<?xml version="1.0" encoding="utf-8" standalone="no"?>
<!DOCTYPE svg PUBLIC "-//W3C//DTD SVG 1.1//EN"
  "http://www.w3.org/Graphics/SVG/1.1/DTD/svg11.dtd">
<svg xmlns:xlink="http://www.w3.org/1999/xlink" width="413.955938pt" height="309.024687pt" viewBox="0 0 413.955938 309.024687" xmlns="http://www.w3.org/2000/svg" version="1.1">
 <metadata>
  <rdf:RDF xmlns:dc="http://purl.org/dc/elements/1.1/" xmlns:cc="http://creativecommons.org/ns#" xmlns:rdf="http://www.w3.org/1999/02/22-rdf-syntax-ns#">
   <cc:Work>
    <dc:type rdf:resource="http://purl.org/dc/dcmitype/StillImage"/>
    <dc:date>2023-09-07T20:40:41.564216</dc:date>
    <dc:format>image/svg+xml</dc:format>
    <dc:creator>
     <cc:Agent>
      <dc:title>Matplotlib v3.7.2, https://matplotlib.org/</dc:title>
     </cc:Agent>
    </dc:creator>
   </cc:Work>
  </rdf:RDF>
 </metadata>
 <defs>
  <style type="text/css">*{stroke-linejoin: round; stroke-linecap: butt}</style>
 </defs>
 <g id="figure_1">
  <g id="patch_1">
   <path d="M 0 309.024687 
L 413.955938 309.024687 
L 413.955938 0 
L 0 0 
z
" style="fill: #ffffff; stroke: #ffffff; stroke-linejoin: miter"/>
  </g>
  <g id="axes_1">
   <g id="patch_2">
    <path d="M 49.635938 273.312 
L 406.755938 273.312 
L 406.755938 7.2 
L 49.635938 7.2 
z
" style="fill: #ffffff; stroke: #7f7f7f; stroke-linejoin: miter"/>
   </g>
   <g id="matplotlib.axis_1">
    <g id="xtick_1">
     <g id="line2d_1">
      <path d="M 65.86832 273.312 
L 65.86832 7.2 
" clip-path="url(#p8d44f5bd88)" style="fill: none; stroke: #e5e5e5; stroke-width: 0.8"/>
     </g>
     <g id="line2d_2">
      <path d="M 65.86832 273.312 
" style="fill: none; stroke: #000000; stroke-width: 3"/>
      <defs>
       <path id="m0b0935848e" d="M 0 0 
L 0 2.75 
" style="stroke: #333333"/>
      </defs>
      <g>
       <use xlink:href="#m0b0935848e" x="65.86832" y="273.312" style="stroke: #333333"/>
      </g>
     </g>
     <g id="text_1">
      <!-- $\mathdefault{0}$ -->
      <g style="fill: #4d4d4d" transform="translate(63.05232 284.948625) scale(0.088 -0.088)">
       <defs>
        <path id="DejaVuSans-30" d="M 2034 4250 
Q 1547 4250 1301 3770 
Q 1056 3291 1056 2328 
Q 1056 1369 1301 889 
Q 1547 409 2034 409 
Q 2525 409 2770 889 
Q 3016 1369 3016 2328 
Q 3016 3291 2770 3770 
Q 2525 4250 2034 4250 
z
M 2034 4750 
Q 2819 4750 3233 4129 
Q 3647 3509 3647 2328 
Q 3647 1150 3233 529 
Q 2819 -91 2034 -91 
Q 1250 -91 836 529 
Q 422 1150 422 2328 
Q 422 3509 836 4129 
Q 1250 4750 2034 4750 
z
" transform="scale(0.015625)"/>
       </defs>
       <use xlink:href="#DejaVuSans-30" transform="translate(0 0.78125)"/>
      </g>
     </g>
    </g>
    <g id="xtick_2">
     <g id="line2d_3">
      <path d="M 145.949499 273.312 
L 145.949499 7.2 
" clip-path="url(#p8d44f5bd88)" style="fill: none; stroke: #e5e5e5; stroke-width: 0.8"/>
     </g>
     <g id="line2d_4">
      <path d="M 145.949499 273.312 
" style="fill: none; stroke: #000000; stroke-width: 3"/>
      <g>
       <use xlink:href="#m0b0935848e" x="145.949499" y="273.312" style="stroke: #333333"/>
      </g>
     </g>
     <g id="text_2">
      <!-- $\mathdefault{5}$ -->
      <g style="fill: #4d4d4d" transform="translate(143.133499 284.948625) scale(0.088 -0.088)">
       <defs>
        <path id="DejaVuSans-35" d="M 691 4666 
L 3169 4666 
L 3169 4134 
L 1269 4134 
L 1269 2991 
Q 1406 3038 1543 3061 
Q 1681 3084 1819 3084 
Q 2600 3084 3056 2656 
Q 3513 2228 3513 1497 
Q 3513 744 3044 326 
Q 2575 -91 1722 -91 
Q 1428 -91 1123 -41 
Q 819 9 494 109 
L 494 744 
Q 775 591 1075 516 
Q 1375 441 1709 441 
Q 2250 441 2565 725 
Q 2881 1009 2881 1497 
Q 2881 1984 2565 2268 
Q 2250 2553 1709 2553 
Q 1456 2553 1204 2497 
Q 953 2441 691 2322 
L 691 4666 
z
" transform="scale(0.015625)"/>
       </defs>
       <use xlink:href="#DejaVuSans-35" transform="translate(0 0.09375)"/>
      </g>
     </g>
    </g>
    <g id="xtick_3">
     <g id="line2d_5">
      <path d="M 226.030677 273.312 
L 226.030677 7.2 
" clip-path="url(#p8d44f5bd88)" style="fill: none; stroke: #e5e5e5; stroke-width: 0.8"/>
     </g>
     <g id="line2d_6">
      <path d="M 226.030677 273.312 
" style="fill: none; stroke: #000000; stroke-width: 3"/>
      <g>
       <use xlink:href="#m0b0935848e" x="226.030677" y="273.312" style="stroke: #333333"/>
      </g>
     </g>
     <g id="text_3">
      <!-- $\mathdefault{10}$ -->
      <g style="fill: #4d4d4d" transform="translate(220.398677 284.948625) scale(0.088 -0.088)">
       <defs>
        <path id="DejaVuSans-31" d="M 794 531 
L 1825 531 
L 1825 4091 
L 703 3866 
L 703 4441 
L 1819 4666 
L 2450 4666 
L 2450 531 
L 3481 531 
L 3481 0 
L 794 0 
L 794 531 
z
" transform="scale(0.015625)"/>
       </defs>
       <use xlink:href="#DejaVuSans-31" transform="translate(0 0.78125)"/>
       <use xlink:href="#DejaVuSans-30" transform="translate(63.623047 0.78125)"/>
      </g>
     </g>
    </g>
    <g id="xtick_4">
     <g id="line2d_7">
      <path d="M 306.111855 273.312 
L 306.111855 7.2 
" clip-path="url(#p8d44f5bd88)" style="fill: none; stroke: #e5e5e5; stroke-width: 0.8"/>
     </g>
     <g id="line2d_8">
      <path d="M 306.111855 273.312 
" style="fill: none; stroke: #000000; stroke-width: 3"/>
      <g>
       <use xlink:href="#m0b0935848e" x="306.111855" y="273.312" style="stroke: #333333"/>
      </g>
     </g>
     <g id="text_4">
      <!-- $\mathdefault{15}$ -->
      <g style="fill: #4d4d4d" transform="translate(300.479855 284.948625) scale(0.088 -0.088)">
       <use xlink:href="#DejaVuSans-31" transform="translate(0 0.09375)"/>
       <use xlink:href="#DejaVuSans-35" transform="translate(63.623047 0.09375)"/>
      </g>
     </g>
    </g>
    <g id="xtick_5">
     <g id="line2d_9">
      <path d="M 386.193033 273.312 
L 386.193033 7.2 
" clip-path="url(#p8d44f5bd88)" style="fill: none; stroke: #e5e5e5; stroke-width: 0.8"/>
     </g>
     <g id="line2d_10">
      <path d="M 386.193033 273.312 
" style="fill: none; stroke: #000000; stroke-width: 3"/>
      <g>
       <use xlink:href="#m0b0935848e" x="386.193033" y="273.312" style="stroke: #333333"/>
      </g>
     </g>
     <g id="text_5">
      <!-- $\mathdefault{20}$ -->
      <g style="fill: #4d4d4d" transform="translate(380.561033 284.948625) scale(0.088 -0.088)">
       <defs>
        <path id="DejaVuSans-32" d="M 1228 531 
L 3431 531 
L 3431 0 
L 469 0 
L 469 531 
Q 828 903 1448 1529 
Q 2069 2156 2228 2338 
Q 2531 2678 2651 2914 
Q 2772 3150 2772 3378 
Q 2772 3750 2511 3984 
Q 2250 4219 1831 4219 
Q 1534 4219 1204 4116 
Q 875 4013 500 3803 
L 500 4441 
Q 881 4594 1212 4672 
Q 1544 4750 1819 4750 
Q 2544 4750 2975 4387 
Q 3406 4025 3406 3419 
Q 3406 3131 3298 2873 
Q 3191 2616 2906 2266 
Q 2828 2175 2409 1742 
Q 1991 1309 1228 531 
z
" transform="scale(0.015625)"/>
       </defs>
       <use xlink:href="#DejaVuSans-32" transform="translate(0 0.78125)"/>
       <use xlink:href="#DejaVuSans-30" transform="translate(63.623047 0.78125)"/>
      </g>
     </g>
    </g>
    <g id="xtick_6">
     <g id="line2d_11">
      <path d="M 105.908909 273.312 
L 105.908909 7.2 
" clip-path="url(#p8d44f5bd88)" style="fill: none; stroke: #fafafa"/>
     </g>
    </g>
    <g id="xtick_7">
     <g id="line2d_12">
      <path d="M 185.990088 273.312 
L 185.990088 7.2 
" clip-path="url(#p8d44f5bd88)" style="fill: none; stroke: #fafafa"/>
     </g>
    </g>
    <g id="xtick_8">
     <g id="line2d_13">
      <path d="M 266.071266 273.312 
L 266.071266 7.2 
" clip-path="url(#p8d44f5bd88)" style="fill: none; stroke: #fafafa"/>
     </g>
    </g>
    <g id="xtick_9">
     <g id="line2d_14">
      <path d="M 346.152444 273.312 
L 346.152444 7.2 
" clip-path="url(#p8d44f5bd88)" style="fill: none; stroke: #fafafa"/>
     </g>
    </g>
    <g id="text_6">
     <!-- age -->
     <g transform="translate(212.189609 299.537031) scale(0.11 -0.11)">
      <defs>
       <path id="DejaVuSans-61" d="M 2194 1759 
Q 1497 1759 1228 1600 
Q 959 1441 959 1056 
Q 959 750 1161 570 
Q 1363 391 1709 391 
Q 2188 391 2477 730 
Q 2766 1069 2766 1631 
L 2766 1759 
L 2194 1759 
z
M 3341 1997 
L 3341 0 
L 2766 0 
L 2766 531 
Q 2569 213 2275 61 
Q 1981 -91 1556 -91 
Q 1019 -91 701 211 
Q 384 513 384 1019 
Q 384 1609 779 1909 
Q 1175 2209 1959 2209 
L 2766 2209 
L 2766 2266 
Q 2766 2663 2505 2880 
Q 2244 3097 1772 3097 
Q 1472 3097 1187 3025 
Q 903 2953 641 2809 
L 641 3341 
Q 956 3463 1253 3523 
Q 1550 3584 1831 3584 
Q 2591 3584 2966 3190 
Q 3341 2797 3341 1997 
z
" transform="scale(0.015625)"/>
       <path id="DejaVuSans-67" d="M 2906 1791 
Q 2906 2416 2648 2759 
Q 2391 3103 1925 3103 
Q 1463 3103 1205 2759 
Q 947 2416 947 1791 
Q 947 1169 1205 825 
Q 1463 481 1925 481 
Q 2391 481 2648 825 
Q 2906 1169 2906 1791 
z
M 3481 434 
Q 3481 -459 3084 -895 
Q 2688 -1331 1869 -1331 
Q 1566 -1331 1297 -1286 
Q 1028 -1241 775 -1147 
L 775 -588 
Q 1028 -725 1275 -790 
Q 1522 -856 1778 -856 
Q 2344 -856 2625 -561 
Q 2906 -266 2906 331 
L 2906 616 
Q 2728 306 2450 153 
Q 2172 0 1784 0 
Q 1141 0 747 490 
Q 353 981 353 1791 
Q 353 2603 747 3093 
Q 1141 3584 1784 3584 
Q 2172 3584 2450 3431 
Q 2728 3278 2906 2969 
L 2906 3500 
L 3481 3500 
L 3481 434 
z
" transform="scale(0.015625)"/>
       <path id="DejaVuSans-65" d="M 3597 1894 
L 3597 1613 
L 953 1613 
Q 991 1019 1311 708 
Q 1631 397 2203 397 
Q 2534 397 2845 478 
Q 3156 559 3463 722 
L 3463 178 
Q 3153 47 2828 -22 
Q 2503 -91 2169 -91 
Q 1331 -91 842 396 
Q 353 884 353 1716 
Q 353 2575 817 3079 
Q 1281 3584 2069 3584 
Q 2775 3584 3186 3129 
Q 3597 2675 3597 1894 
z
M 3022 2063 
Q 3016 2534 2758 2815 
Q 2500 3097 2075 3097 
Q 1594 3097 1305 2825 
Q 1016 2553 972 2059 
L 3022 2063 
z
" transform="scale(0.015625)"/>
      </defs>
      <use xlink:href="#DejaVuSans-61"/>
      <use xlink:href="#DejaVuSans-67" x="61.279297"/>
      <use xlink:href="#DejaVuSans-65" x="124.755859"/>
     </g>
    </g>
   </g>
   <g id="matplotlib.axis_2">
    <g id="ytick_1">
     <g id="line2d_15">
      <path d="M 49.635938 188.670064 
L 406.755938 188.670064 
" clip-path="url(#p8d44f5bd88)" style="fill: none; stroke: #e5e5e5; stroke-width: 0.8"/>
     </g>
     <g id="line2d_16">
      <path d="M 49.635938 188.670064 
" style="fill: none; stroke: #000000; stroke-width: 3"/>
      <defs>
       <path id="m72d43725ff" d="M 0 0 
L -2.75 0 
" style="stroke: #333333"/>
      </defs>
      <g>
       <use xlink:href="#m72d43725ff" x="49.635938" y="188.670064" style="stroke: #333333"/>
      </g>
     </g>
     <g id="text_7">
      <!-- $\mathdefault{2000}$ -->
      <g style="fill: #4d4d4d" transform="translate(22.245938 191.098314) scale(0.088 -0.088)">
       <use xlink:href="#DejaVuSans-32" transform="translate(0 0.78125)"/>
       <use xlink:href="#DejaVuSans-30" transform="translate(63.623047 0.78125)"/>
       <use xlink:href="#DejaVuSans-30" transform="translate(127.246094 0.78125)"/>
       <use xlink:href="#DejaVuSans-30" transform="translate(190.869141 0.78125)"/>
      </g>
     </g>
    </g>
    <g id="ytick_2">
     <g id="line2d_17">
      <path d="M 49.635938 103.106309 
L 406.755938 103.106309 
" clip-path="url(#p8d44f5bd88)" style="fill: none; stroke: #e5e5e5; stroke-width: 0.8"/>
     </g>
     <g id="line2d_18">
      <path d="M 49.635938 103.106309 
" style="fill: none; stroke: #000000; stroke-width: 3"/>
      <g>
       <use xlink:href="#m72d43725ff" x="49.635938" y="103.106309" style="stroke: #333333"/>
      </g>
     </g>
     <g id="text_8">
      <!-- $\mathdefault{3000}$ -->
      <g style="fill: #4d4d4d" transform="translate(22.245938 105.534559) scale(0.088 -0.088)">
       <defs>
        <path id="DejaVuSans-33" d="M 2597 2516 
Q 3050 2419 3304 2112 
Q 3559 1806 3559 1356 
Q 3559 666 3084 287 
Q 2609 -91 1734 -91 
Q 1441 -91 1130 -33 
Q 819 25 488 141 
L 488 750 
Q 750 597 1062 519 
Q 1375 441 1716 441 
Q 2309 441 2620 675 
Q 2931 909 2931 1356 
Q 2931 1769 2642 2001 
Q 2353 2234 1838 2234 
L 1294 2234 
L 1294 2753 
L 1863 2753 
Q 2328 2753 2575 2939 
Q 2822 3125 2822 3475 
Q 2822 3834 2567 4026 
Q 2313 4219 1838 4219 
Q 1578 4219 1281 4162 
Q 984 4106 628 3988 
L 628 4550 
Q 988 4650 1302 4700 
Q 1616 4750 1894 4750 
Q 2613 4750 3031 4423 
Q 3450 4097 3450 3541 
Q 3450 3153 3228 2886 
Q 3006 2619 2597 2516 
z
" transform="scale(0.015625)"/>
       </defs>
       <use xlink:href="#DejaVuSans-33" transform="translate(0 0.78125)"/>
       <use xlink:href="#DejaVuSans-30" transform="translate(63.623047 0.78125)"/>
       <use xlink:href="#DejaVuSans-30" transform="translate(127.246094 0.78125)"/>
       <use xlink:href="#DejaVuSans-30" transform="translate(190.869141 0.78125)"/>
      </g>
     </g>
    </g>
    <g id="ytick_3">
     <g id="line2d_19">
      <path d="M 49.635938 17.542554 
L 406.755938 17.542554 
" clip-path="url(#p8d44f5bd88)" style="fill: none; stroke: #e5e5e5; stroke-width: 0.8"/>
     </g>
     <g id="line2d_20">
      <path d="M 49.635938 17.542554 
" style="fill: none; stroke: #000000; stroke-width: 3"/>
      <g>
       <use xlink:href="#m72d43725ff" x="49.635938" y="17.542554" style="stroke: #333333"/>
      </g>
     </g>
     <g id="text_9">
      <!-- $\mathdefault{4000}$ -->
      <g style="fill: #4d4d4d" transform="translate(22.245938 19.970804) scale(0.088 -0.088)">
       <defs>
        <path id="DejaVuSans-34" d="M 2419 4116 
L 825 1625 
L 2419 1625 
L 2419 4116 
z
M 2253 4666 
L 3047 4666 
L 3047 1625 
L 3713 1625 
L 3713 1100 
L 3047 1100 
L 3047 0 
L 2419 0 
L 2419 1100 
L 313 1100 
L 313 1709 
L 2253 4666 
z
" transform="scale(0.015625)"/>
       </defs>
       <use xlink:href="#DejaVuSans-34" transform="translate(0 0.78125)"/>
       <use xlink:href="#DejaVuSans-30" transform="translate(63.623047 0.78125)"/>
       <use xlink:href="#DejaVuSans-30" transform="translate(127.246094 0.78125)"/>
       <use xlink:href="#DejaVuSans-30" transform="translate(190.869141 0.78125)"/>
      </g>
     </g>
    </g>
    <g id="ytick_4">
     <g id="line2d_21">
      <path d="M 49.635938 231.451942 
L 406.755938 231.451942 
" clip-path="url(#p8d44f5bd88)" style="fill: none; stroke: #fafafa"/>
     </g>
    </g>
    <g id="ytick_5">
     <g id="line2d_22">
      <path d="M 49.635938 145.888187 
L 406.755938 145.888187 
" clip-path="url(#p8d44f5bd88)" style="fill: none; stroke: #fafafa"/>
     </g>
    </g>
    <g id="ytick_6">
     <g id="line2d_23">
      <path d="M 49.635938 60.324432 
L 406.755938 60.324432 
" clip-path="url(#p8d44f5bd88)" style="fill: none; stroke: #fafafa"/>
     </g>
    </g>
    <g id="text_10">
     <!-- sales -->
     <g transform="translate(15.558281 152.540969) rotate(-90) scale(0.11 -0.11)">
      <defs>
       <path id="DejaVuSans-73" d="M 2834 3397 
L 2834 2853 
Q 2591 2978 2328 3040 
Q 2066 3103 1784 3103 
Q 1356 3103 1142 2972 
Q 928 2841 928 2578 
Q 928 2378 1081 2264 
Q 1234 2150 1697 2047 
L 1894 2003 
Q 2506 1872 2764 1633 
Q 3022 1394 3022 966 
Q 3022 478 2636 193 
Q 2250 -91 1575 -91 
Q 1294 -91 989 -36 
Q 684 19 347 128 
L 347 722 
Q 666 556 975 473 
Q 1284 391 1588 391 
Q 1994 391 2212 530 
Q 2431 669 2431 922 
Q 2431 1156 2273 1281 
Q 2116 1406 1581 1522 
L 1381 1569 
Q 847 1681 609 1914 
Q 372 2147 372 2553 
Q 372 3047 722 3315 
Q 1072 3584 1716 3584 
Q 2034 3584 2315 3537 
Q 2597 3491 2834 3397 
z
" transform="scale(0.015625)"/>
       <path id="DejaVuSans-6c" d="M 603 4863 
L 1178 4863 
L 1178 0 
L 603 0 
L 603 4863 
z
" transform="scale(0.015625)"/>
      </defs>
      <use xlink:href="#DejaVuSans-73"/>
      <use xlink:href="#DejaVuSans-61" x="52.099609"/>
      <use xlink:href="#DejaVuSans-6c" x="113.378906"/>
      <use xlink:href="#DejaVuSans-65" x="141.162109"/>
      <use xlink:href="#DejaVuSans-73" x="202.685547"/>
     </g>
    </g>
   </g>
   <g id="PathCollection_1">
    <path d="M 66.09036 187.506291 
C 66.677936 187.506291 67.241524 187.272845 67.657003 186.857367 
C 68.072481 186.441888 68.305928 185.878299 68.305928 185.290724 
C 68.305928 184.703149 68.072481 184.13956 67.657003 183.724081 
C 67.241524 183.308603 66.677936 183.075157 66.09036 183.075157 
C 65.502785 183.075157 64.939196 183.308603 64.523718 183.724081 
C 64.108239 184.13956 63.874793 184.703149 63.874793 185.290724 
C 63.874793 185.878299 64.108239 186.441888 64.523718 186.857367 
C 64.939196 187.272845 65.502785 187.506291 66.09036 187.506291 
z
" clip-path="url(#p8d44f5bd88)" style="fill: #000080; stroke: #000080; stroke-width: 0.886227"/>
    <path d="M 66.572479 164.665422 
C 67.160054 164.665422 67.723643 164.431976 68.139122 164.016497 
C 68.5546 163.601019 68.788046 163.03743 68.788046 162.449855 
C 68.788046 161.862279 68.5546 161.298691 68.139122 160.883212 
C 67.723643 160.467734 67.160054 160.234287 66.572479 160.234287 
C 65.984904 160.234287 65.421315 160.467734 65.005836 160.883212 
C 64.590358 161.298691 64.356912 161.862279 64.356912 162.449855 
C 64.356912 163.03743 64.590358 163.601019 65.005836 164.016497 
C 65.421315 164.431976 65.984904 164.665422 66.572479 164.665422 
z
" clip-path="url(#p8d44f5bd88)" style="fill: #000080; stroke: #000080; stroke-width: 0.886227"/>
    <path d="M 67.110406 157.108283 
C 67.697981 157.108283 68.26157 156.874837 68.677048 156.459359 
C 69.092527 156.04388 69.325973 155.480291 69.325973 154.892716 
C 69.325973 154.305141 69.092527 153.741552 68.677048 153.326073 
C 68.26157 152.910595 67.697981 152.677149 67.110406 152.677149 
C 66.52283 152.677149 65.959241 152.910595 65.543763 153.326073 
C 65.128284 153.741552 64.894838 154.305141 64.894838 154.892716 
C 64.894838 155.480291 65.128284 156.04388 65.543763 156.459359 
C 65.959241 156.874837 66.52283 157.108283 67.110406 157.108283 
z
" clip-path="url(#p8d44f5bd88)" style="fill: #000080; stroke: #000080; stroke-width: 0.886227"/>
    <path d="M 67.678269 155.316622 
C 68.265844 155.316622 68.829433 155.083176 69.244911 154.667698 
C 69.66039 154.252219 69.893836 153.68863 69.893836 153.101055 
C 69.893836 152.51348 69.66039 151.949891 69.244911 151.534412 
C 68.829433 151.118934 68.265844 150.885488 67.678269 150.885488 
C 67.090693 150.885488 66.527104 151.118934 66.111626 151.534412 
C 65.696147 151.949891 65.462701 152.51348 65.462701 153.101055 
C 65.462701 153.68863 65.696147 154.252219 66.111626 154.667698 
C 66.527104 155.083176 67.090693 155.316622 67.678269 155.316622 
z
" clip-path="url(#p8d44f5bd88)" style="fill: #000080; stroke: #000080; stroke-width: 0.886227"/>
    <path d="M 68.247272 148.633905 
C 68.834848 148.633905 69.398437 148.400458 69.813915 147.98498 
C 70.229394 147.569501 70.46284 147.005913 70.46284 146.418337 
C 70.46284 145.830762 70.229394 145.267173 69.813915 144.851695 
C 69.398437 144.436216 68.834848 144.20277 68.247272 144.20277 
C 67.659697 144.20277 67.096108 144.436216 66.68063 144.851695 
C 66.265151 145.267173 66.031705 145.830762 66.031705 146.418337 
C 66.031705 147.005913 66.265151 147.569501 66.68063 147.98498 
C 67.096108 148.400458 67.659697 148.633905 68.247272 148.633905 
z
" clip-path="url(#p8d44f5bd88)" style="fill: #000080; stroke: #000080; stroke-width: 0.886227"/>
    <path d="M 68.874797 140.207926 
C 69.462372 140.207926 70.025961 139.97448 70.441439 139.559002 
C 70.856918 139.143523 71.090364 138.579934 71.090364 137.992359 
C 71.090364 137.404784 70.856918 136.841195 70.441439 136.425716 
C 70.025961 136.010238 69.462372 135.776792 68.874797 135.776792 
C 68.287221 135.776792 67.723632 136.010238 67.308154 136.425716 
C 66.892675 136.841195 66.659229 137.404784 66.659229 137.992359 
C 66.659229 138.579934 66.892675 139.143523 67.308154 139.559002 
C 67.723632 139.97448 68.287221 140.207926 68.874797 140.207926 
z
" clip-path="url(#p8d44f5bd88)" style="fill: #000080; stroke: #000080; stroke-width: 0.886227"/>
    <path d="M 69.615292 124.501412 
C 70.202867 124.501412 70.766456 124.267966 71.181935 123.852488 
C 71.597413 123.437009 71.830859 122.87342 71.830859 122.285845 
C 71.830859 121.69827 71.597413 121.134681 71.181935 120.719202 
C 70.766456 120.303724 70.202867 120.070278 69.615292 120.070278 
C 69.027717 120.070278 68.464128 120.303724 68.048649 120.719202 
C 67.633171 121.134681 67.399725 121.69827 67.399725 122.285845 
C 67.399725 122.87342 67.633171 123.437009 68.048649 123.852488 
C 68.464128 124.267966 69.027717 124.501412 69.615292 124.501412 
z
" clip-path="url(#p8d44f5bd88)" style="fill: #000080; stroke: #000080; stroke-width: 0.886227"/>
    <path d="M 70.3622 106.439455 
C 70.949775 106.439455 71.513364 106.206009 71.928842 105.79053 
C 72.344321 105.375052 72.577767 104.811463 72.577767 104.223887 
C 72.577767 103.636312 72.344321 103.072723 71.928842 102.657245 
C 71.513364 102.241766 70.949775 102.00832 70.3622 102.00832 
C 69.774624 102.00832 69.211035 102.241766 68.795557 102.657245 
C 68.380078 103.072723 68.146632 103.636312 68.146632 104.223887 
C 68.146632 104.811463 68.380078 105.375052 68.795557 105.79053 
C 69.211035 106.206009 69.774624 106.439455 70.3622 106.439455 
z
" clip-path="url(#p8d44f5bd88)" style="fill: #000080; stroke: #000080; stroke-width: 0.886227"/>
    <path d="M 71.117143 91.394359 
C 71.704718 91.394359 72.268307 91.160913 72.683786 90.745435 
C 73.099264 90.329956 73.33271 89.766367 73.33271 89.178792 
C 73.33271 88.591217 73.099264 88.027628 72.683786 87.612149 
C 72.268307 87.196671 71.704718 86.963225 71.117143 86.963225 
C 70.529568 86.963225 69.965979 87.196671 69.5505 87.612149 
C 69.135022 88.027628 68.901576 88.591217 68.901576 89.178792 
C 68.901576 89.766367 69.135022 90.329956 69.5505 90.745435 
C 69.965979 91.160913 70.529568 91.394359 71.117143 91.394359 
z
" clip-path="url(#p8d44f5bd88)" style="fill: #000080; stroke: #000080; stroke-width: 0.886227"/>
    <path d="M 71.914228 129.861075 
C 72.501803 129.861075 73.065392 129.627629 73.480871 129.212151 
C 73.896349 128.796672 74.129795 128.233083 74.129795 127.645508 
C 74.129795 127.057933 73.896349 126.494344 73.480871 126.078865 
C 73.065392 125.663387 72.501803 125.429941 71.914228 125.429941 
C 71.326653 125.429941 70.763064 125.663387 70.347585 126.078865 
C 69.932107 126.494344 69.698661 127.057933 69.698661 127.645508 
C 69.698661 128.233083 69.932107 128.796672 70.347585 129.212151 
C 70.763064 129.627629 71.326653 129.861075 71.914228 129.861075 
z
" clip-path="url(#p8d44f5bd88)" style="fill: #000080; stroke: #000080; stroke-width: 0.886227"/>
    <path d="M 72.843511 81.620063 
C 73.431086 81.620063 73.994675 81.386617 74.410154 80.971138 
C 74.825632 80.55566 75.059078 79.992071 75.059078 79.404496 
C 75.059078 78.81692 74.825632 78.253332 74.410154 77.837853 
C 73.994675 77.422375 73.431086 77.188928 72.843511 77.188928 
C 72.255936 77.188928 71.692347 77.422375 71.276868 77.837853 
C 70.86139 78.253332 70.627944 78.81692 70.627944 79.404496 
C 70.627944 79.992071 70.86139 80.55566 71.276868 80.971138 
C 71.692347 81.386617 72.255936 81.620063 72.843511 81.620063 
z
" clip-path="url(#p8d44f5bd88)" style="fill: #000080; stroke: #000080; stroke-width: 0.886227"/>
    <path d="M 73.793774 81.517569 
C 74.381349 81.517569 74.944938 81.284123 75.360417 80.868645 
C 75.775895 80.453166 76.009341 79.889577 76.009341 79.302002 
C 76.009341 78.714427 75.775895 78.150838 75.360417 77.735359 
C 74.944938 77.319881 74.381349 77.086435 73.793774 77.086435 
C 73.206199 77.086435 72.64261 77.319881 72.227131 77.735359 
C 71.811653 78.150838 71.578207 78.714427 71.578207 79.302002 
C 71.578207 79.889577 71.811653 80.453166 72.227131 80.868645 
C 72.64261 81.284123 73.206199 81.517569 73.793774 81.517569 
z
" clip-path="url(#p8d44f5bd88)" style="fill: #000080; stroke: #000080; stroke-width: 0.886227"/>
    <path d="M 74.856426 95.329312 
C 75.444001 95.329312 76.00759 95.095866 76.423069 94.680388 
C 76.838547 94.264909 77.071993 93.70132 77.071993 93.113745 
C 77.071993 92.52617 76.838547 91.962581 76.423069 91.547102 
C 76.00759 91.131624 75.444001 90.898178 74.856426 90.898178 
C 74.268851 90.898178 73.705262 91.131624 73.289783 91.547102 
C 72.874305 91.962581 72.640859 92.52617 72.640859 93.113745 
C 72.640859 93.70132 72.874305 94.264909 73.289783 94.680388 
C 73.705262 95.095866 74.268851 95.329312 74.856426 95.329312 
z
" clip-path="url(#p8d44f5bd88)" style="fill: #000080; stroke: #000080; stroke-width: 0.886227"/>
    <path d="M 76.007918 86.038855 
C 76.595494 86.038855 77.159082 85.805409 77.574561 85.38993 
C 77.990039 84.974452 78.223486 84.410863 78.223486 83.823288 
C 78.223486 83.235712 77.990039 82.672124 77.574561 82.256645 
C 77.159082 81.841167 76.595494 81.60772 76.007918 81.60772 
C 75.420343 81.60772 74.856754 81.841167 74.441276 82.256645 
C 74.025797 82.672124 73.792351 83.235712 73.792351 83.823288 
C 73.792351 84.410863 74.025797 84.974452 74.441276 85.38993 
C 74.856754 85.805409 75.420343 86.038855 76.007918 86.038855 
z
" clip-path="url(#p8d44f5bd88)" style="fill: #000080; stroke: #000080; stroke-width: 0.886227"/>
    <path d="M 77.277566 51.218966 
C 77.865142 51.218966 78.428731 50.98552 78.844209 50.570042 
C 79.259688 50.154563 79.493134 49.590974 79.493134 49.003399 
C 79.493134 48.415824 79.259688 47.852235 78.844209 47.436756 
C 78.428731 47.021278 77.865142 46.787832 77.277566 46.787832 
C 76.689991 46.787832 76.126402 47.021278 75.710924 47.436756 
C 75.295445 47.852235 75.061999 48.415824 75.061999 49.003399 
C 75.061999 49.590974 75.295445 50.154563 75.710924 50.570042 
C 76.126402 50.98552 76.689991 51.218966 77.277566 51.218966 
z
" clip-path="url(#p8d44f5bd88)" style="fill: #000080; stroke: #000080; stroke-width: 0.886227"/>
    <path d="M 78.678741 55.952367 
C 79.266316 55.952367 79.829905 55.718921 80.245383 55.303443 
C 80.660862 54.887964 80.894308 54.324375 80.894308 53.7368 
C 80.894308 53.149225 80.660862 52.585636 80.245383 52.170157 
C 79.829905 51.754679 79.266316 51.521233 78.678741 51.521233 
C 78.091165 51.521233 77.527576 51.754679 77.112098 52.170157 
C 76.696619 52.585636 76.463173 53.149225 76.463173 53.7368 
C 76.463173 54.324375 76.696619 54.887964 77.112098 55.303443 
C 77.527576 55.718921 78.091165 55.952367 78.678741 55.952367 
z
" clip-path="url(#p8d44f5bd88)" style="fill: #000080; stroke: #000080; stroke-width: 0.886227"/>
    <path d="M 80.176346 65.265612 
C 80.763921 65.265612 81.32751 65.032165 81.742989 64.616687 
C 82.158467 64.201208 82.391913 63.63762 82.391913 63.050044 
C 82.391913 62.462469 82.158467 61.89888 81.742989 61.483402 
C 81.32751 61.067923 80.763921 60.834477 80.176346 60.834477 
C 79.588771 60.834477 79.025182 61.067923 78.609704 61.483402 
C 78.194225 61.89888 77.960779 62.462469 77.960779 63.050044 
C 77.960779 63.63762 78.194225 64.201208 78.609704 64.616687 
C 79.025182 65.032165 79.588771 65.265612 80.176346 65.265612 
z
" clip-path="url(#p8d44f5bd88)" style="fill: #000080; stroke: #000080; stroke-width: 0.886227"/>
    <path d="M 81.833699 64.917221 
C 82.421274 64.917221 82.984863 64.683775 83.400342 64.268296 
C 83.81582 63.852818 84.049266 63.289229 84.049266 62.701654 
C 84.049266 62.114078 83.81582 61.55049 83.400342 61.135011 
C 82.984863 60.719533 82.421274 60.486086 81.833699 60.486086 
C 81.246124 60.486086 80.682535 60.719533 80.267056 61.135011 
C 79.851578 61.55049 79.618132 62.114078 79.618132 62.701654 
C 79.618132 63.289229 79.851578 63.852818 80.267056 64.268296 
C 80.682535 64.683775 81.246124 64.917221 81.833699 64.917221 
z
" clip-path="url(#p8d44f5bd88)" style="fill: #000080; stroke: #000080; stroke-width: 0.886227"/>
    <path d="M 83.949934 59.177866 
C 84.537509 59.177866 85.101098 58.94442 85.516576 58.528941 
C 85.932055 58.113463 86.165501 57.549874 86.165501 56.962299 
C 86.165501 56.374723 85.932055 55.811135 85.516576 55.395656 
C 85.101098 54.980178 84.537509 54.746731 83.949934 54.746731 
C 83.362358 54.746731 82.798769 54.980178 82.383291 55.395656 
C 81.967812 55.811135 81.734366 56.374723 81.734366 56.962299 
C 81.734366 57.549874 81.967812 58.113463 82.383291 58.528941 
C 82.798769 58.94442 83.362358 59.177866 83.949934 59.177866 
z
" clip-path="url(#p8d44f5bd88)" style="fill: #000080; stroke: #000080; stroke-width: 0.886227"/>
    <path d="M 86.404011 74.005229 
C 86.991587 74.005229 87.555176 73.771783 87.970654 73.356305 
C 88.386132 72.940826 88.619579 72.377237 88.619579 71.789662 
C 88.619579 71.202087 88.386132 70.638498 87.970654 70.223019 
C 87.555176 69.807541 86.991587 69.574095 86.404011 69.574095 
C 85.816436 69.574095 85.252847 69.807541 84.837369 70.223019 
C 84.42189 70.638498 84.188444 71.202087 84.188444 71.789662 
C 84.188444 72.377237 84.42189 72.940826 84.837369 73.356305 
C 85.252847 73.771783 85.816436 74.005229 86.404011 74.005229 
z
" clip-path="url(#p8d44f5bd88)" style="fill: #000080; stroke: #000080; stroke-width: 0.886227"/>
    <path d="M 89.384288 88.59137 
C 89.971864 88.59137 90.535452 88.357924 90.950931 87.942445 
C 91.366409 87.526967 91.599856 86.963378 91.599856 86.375802 
C 91.599856 85.788227 91.366409 85.224638 90.950931 84.80916 
C 90.535452 84.393681 89.971864 84.160235 89.384288 84.160235 
C 88.796713 84.160235 88.233124 84.393681 87.817646 84.80916 
C 87.402167 85.224638 87.168721 85.788227 87.168721 86.375802 
C 87.168721 86.963378 87.402167 87.526967 87.817646 87.942445 
C 88.233124 88.357924 88.796713 88.59137 89.384288 88.59137 
z
" clip-path="url(#p8d44f5bd88)" style="fill: #000080; stroke: #000080; stroke-width: 0.886227"/>
    <path d="M 93.215375 152.98237 
C 93.802951 152.98237 94.36654 152.748924 94.782018 152.333445 
C 95.197497 151.917967 95.430943 151.354378 95.430943 150.766803 
C 95.430943 150.179227 95.197497 149.615638 94.782018 149.20016 
C 94.36654 148.784681 93.802951 148.551235 93.215375 148.551235 
C 92.6278 148.551235 92.064211 148.784681 91.648733 149.20016 
C 91.233254 149.615638 90.999808 150.179227 90.999808 150.766803 
C 90.999808 151.354378 91.233254 151.917967 91.648733 152.333445 
C 92.064211 152.748924 92.6278 152.98237 93.215375 152.98237 
z
" clip-path="url(#p8d44f5bd88)" style="fill: #000080; stroke: #000080; stroke-width: 0.886227"/>
    <path d="M 98.660628 142.032461 
C 99.248203 142.032461 99.811792 141.799015 100.22727 141.383536 
C 100.642749 140.968058 100.876195 140.404469 100.876195 139.816893 
C 100.876195 139.229318 100.642749 138.665729 100.22727 138.250251 
C 99.811792 137.834772 99.248203 137.601326 98.660628 137.601326 
C 98.073052 137.601326 97.509463 137.834772 97.093985 138.250251 
C 96.678506 138.665729 96.44506 139.229318 96.44506 139.816893 
C 96.44506 140.404469 96.678506 140.968058 97.093985 141.383536 
C 97.509463 141.799015 98.073052 142.032461 98.660628 142.032461 
z
" clip-path="url(#p8d44f5bd88)" style="fill: #000080; stroke: #000080; stroke-width: 0.886227"/>
    <path d="M 105.332102 160.133308 
C 105.919678 160.133308 106.483267 159.899862 106.898745 159.484384 
C 107.314224 159.068905 107.54767 158.505316 107.54767 157.917741 
C 107.54767 157.330166 107.314224 156.766577 106.898745 156.351098 
C 106.483267 155.93562 105.919678 155.702174 105.332102 155.702174 
C 104.744527 155.702174 104.180938 155.93562 103.76546 156.351098 
C 103.349981 156.766577 103.116535 157.330166 103.116535 157.917741 
C 103.116535 158.505316 103.349981 159.068905 103.76546 159.484384 
C 104.180938 159.899862 104.744527 160.133308 105.332102 160.133308 
z
" clip-path="url(#p8d44f5bd88)" style="fill: #000080; stroke: #000080; stroke-width: 0.886227"/>
    <path d="M 116.193466 134.220184 
C 116.781041 134.220184 117.34463 133.986738 117.760108 133.57126 
C 118.175587 133.155781 118.409033 132.592192 118.409033 132.004617 
C 118.409033 131.417042 118.175587 130.853453 117.760108 130.437974 
C 117.34463 130.022496 116.781041 129.78905 116.193466 129.78905 
C 115.60589 129.78905 115.042301 130.022496 114.626823 130.437974 
C 114.211344 130.853453 113.977898 131.417042 113.977898 132.004617 
C 113.977898 132.592192 114.211344 133.155781 114.626823 133.57126 
C 115.042301 133.986738 115.60589 134.220184 116.193466 134.220184 
z
" clip-path="url(#p8d44f5bd88)" style="fill: #000080; stroke: #000080; stroke-width: 0.886227"/>
    <path d="M 151.136889 202.278967 
C 151.724464 202.278967 152.288053 202.045521 152.703532 201.630042 
C 153.11901 201.214564 153.352456 200.650975 153.352456 200.0634 
C 153.352456 199.475824 153.11901 198.912236 152.703532 198.496757 
C 152.288053 198.081279 151.724464 197.847832 151.136889 197.847832 
C 150.549314 197.847832 149.985725 198.081279 149.570246 198.496757 
C 149.154768 198.912236 148.921322 199.475824 148.921322 200.0634 
C 148.921322 200.650975 149.154768 201.214564 149.570246 201.630042 
C 149.985725 202.045521 150.549314 202.278967 151.136889 202.278967 
z
" clip-path="url(#p8d44f5bd88)" style="fill: #000080; stroke: #000080; stroke-width: 0.886227"/>
   </g>
   <g id="LineCollection_1">
    <path d="M 66.490766 210.054925 
" clip-path="url(#p8d44f5bd88)" style="fill: none; stroke: #000080; stroke-width: 0.886227"/>
    <path d="M 66.172073 179.172089 
L 66.972885 179.172089 
" clip-path="url(#p8d44f5bd88)" style="fill: none; stroke: #000080; stroke-width: 0.886227"/>
    <path d="M 66.71 169.898869 
L 67.510811 169.898869 
" clip-path="url(#p8d44f5bd88)" style="fill: none; stroke: #000080; stroke-width: 0.886227"/>
    <path d="M 67.277863 173.512503 
L 68.078674 173.512503 
" clip-path="url(#p8d44f5bd88)" style="fill: none; stroke: #000080; stroke-width: 0.886227"/>
    <path d="M 67.846866 163.371948 
L 68.647678 163.371948 
" clip-path="url(#p8d44f5bd88)" style="fill: none; stroke: #000080; stroke-width: 0.886227"/>
    <path d="M 68.474391 156.78832 
L 69.275202 156.78832 
" clip-path="url(#p8d44f5bd88)" style="fill: none; stroke: #000080; stroke-width: 0.886227"/>
    <path d="M 69.214886 143.308466 
L 70.015698 143.308466 
" clip-path="url(#p8d44f5bd88)" style="fill: none; stroke: #000080; stroke-width: 0.886227"/>
    <path d="M 69.961794 127.843244 
L 70.762606 127.843244 
" clip-path="url(#p8d44f5bd88)" style="fill: none; stroke: #000080; stroke-width: 0.886227"/>
    <path d="M 70.716737 126.824152 
L 71.517549 126.824152 
" clip-path="url(#p8d44f5bd88)" style="fill: none; stroke: #000080; stroke-width: 0.886227"/>
    <path d="M 71.513822 130.612389 
L 72.314634 130.612389 
" clip-path="url(#p8d44f5bd88)" style="fill: none; stroke: #000080; stroke-width: 0.886227"/>
    <path d="M 72.443105 118.470097 
L 73.243917 118.470097 
" clip-path="url(#p8d44f5bd88)" style="fill: none; stroke: #000080; stroke-width: 0.886227"/>
    <path d="M 73.393368 103.001742 
L 74.19418 103.001742 
" clip-path="url(#p8d44f5bd88)" style="fill: none; stroke: #000080; stroke-width: 0.886227"/>
    <path d="M 74.45602 117.270597 
L 75.256832 117.270597 
" clip-path="url(#p8d44f5bd88)" style="fill: none; stroke: #000080; stroke-width: 0.886227"/>
    <path d="M 75.607512 110.0616 
L 76.408324 110.0616 
" clip-path="url(#p8d44f5bd88)" style="fill: none; stroke: #000080; stroke-width: 0.886227"/>
    <path d="M 76.877161 71.152092 
L 77.677972 71.152092 
" clip-path="url(#p8d44f5bd88)" style="fill: none; stroke: #000080; stroke-width: 0.886227"/>
    <path d="M 78.278335 88.867362 
L 79.079147 88.867362 
" clip-path="url(#p8d44f5bd88)" style="fill: none; stroke: #000080; stroke-width: 0.886227"/>
    <path d="M 79.77594 83.905253 
L 80.576752 83.905253 
" clip-path="url(#p8d44f5bd88)" style="fill: none; stroke: #000080; stroke-width: 0.886227"/>
    <path d="M 81.433293 84.212019 
L 82.234105 84.212019 
" clip-path="url(#p8d44f5bd88)" style="fill: none; stroke: #000080; stroke-width: 0.886227"/>
    <path d="M 83.549528 96.611757 
L 84.350339 96.611757 
" clip-path="url(#p8d44f5bd88)" style="fill: none; stroke: #000080; stroke-width: 0.886227"/>
    <path d="M 86.003605 91.993566 
L 86.804417 91.993566 
" clip-path="url(#p8d44f5bd88)" style="fill: none; stroke: #000080; stroke-width: 0.886227"/>
    <path d="M 88.983882 135.81672 
L 89.784694 135.81672 
" clip-path="url(#p8d44f5bd88)" style="fill: none; stroke: #000080; stroke-width: 0.886227"/>
    <path d="M 92.814969 162.180438 
L 93.615781 162.180438 
" clip-path="url(#p8d44f5bd88)" style="fill: none; stroke: #000080; stroke-width: 0.886227"/>
    <path d="M 98.260222 168.347566 
L 99.061034 168.347566 
" clip-path="url(#p8d44f5bd88)" style="fill: none; stroke: #000080; stroke-width: 0.886227"/>
    <path d="M 104.931696 184.180749 
L 105.732508 184.180749 
" clip-path="url(#p8d44f5bd88)" style="fill: none; stroke: #000080; stroke-width: 0.886227"/>
    <path d="M 115.79306 159.973641 
L 116.593872 159.973641 
" clip-path="url(#p8d44f5bd88)" style="fill: none; stroke: #000080; stroke-width: 0.886227"/>
    <path d="M 150.736483 261.216 
L 151.537295 261.216 
" clip-path="url(#p8d44f5bd88)" style="fill: none; stroke: #000080; stroke-width: 0.886227"/>
    <path d="M 66.490766 170.660569 
" clip-path="url(#p8d44f5bd88)" style="fill: none; stroke: #000080; stroke-width: 0.886227"/>
    <path d="M 66.172073 146.280476 
L 66.972885 146.280476 
" clip-path="url(#p8d44f5bd88)" style="fill: none; stroke: #000080; stroke-width: 0.886227"/>
    <path d="M 66.71 137.927675 
L 67.510811 137.927675 
" clip-path="url(#p8d44f5bd88)" style="fill: none; stroke: #000080; stroke-width: 0.886227"/>
    <path d="M 67.277863 135.492879 
L 68.078674 135.492879 
" clip-path="url(#p8d44f5bd88)" style="fill: none; stroke: #000080; stroke-width: 0.886227"/>
    <path d="M 67.846866 123.894902 
L 68.647678 123.894902 
" clip-path="url(#p8d44f5bd88)" style="fill: none; stroke: #000080; stroke-width: 0.886227"/>
    <path d="M 68.474391 119.623959 
L 69.275202 119.623959 
" clip-path="url(#p8d44f5bd88)" style="fill: none; stroke: #000080; stroke-width: 0.886227"/>
    <path d="M 69.214886 105.218757 
L 70.015698 105.218757 
" clip-path="url(#p8d44f5bd88)" style="fill: none; stroke: #000080; stroke-width: 0.886227"/>
    <path d="M 69.961794 80.777543 
L 70.762606 80.777543 
" clip-path="url(#p8d44f5bd88)" style="fill: none; stroke: #000080; stroke-width: 0.886227"/>
    <path d="M 70.716737 68.715017 
L 71.517549 68.715017 
" clip-path="url(#p8d44f5bd88)" style="fill: none; stroke: #000080; stroke-width: 0.886227"/>
    <path d="M 71.513822 84.018808 
L 72.314634 84.018808 
" clip-path="url(#p8d44f5bd88)" style="fill: none; stroke: #000080; stroke-width: 0.886227"/>
    <path d="M 72.443105 68.974025 
L 73.243917 68.974025 
" clip-path="url(#p8d44f5bd88)" style="fill: none; stroke: #000080; stroke-width: 0.886227"/>
    <path d="M 73.393368 49.564243 
L 74.19418 49.564243 
" clip-path="url(#p8d44f5bd88)" style="fill: none; stroke: #000080; stroke-width: 0.886227"/>
    <path d="M 74.45602 67.399741 
L 75.256832 67.399741 
" clip-path="url(#p8d44f5bd88)" style="fill: none; stroke: #000080; stroke-width: 0.886227"/>
    <path d="M 75.607512 58.320015 
L 76.408324 58.320015 
" clip-path="url(#p8d44f5bd88)" style="fill: none; stroke: #000080; stroke-width: 0.886227"/>
    <path d="M 76.877161 19.296 
L 77.677972 19.296 
" clip-path="url(#p8d44f5bd88)" style="fill: none; stroke: #000080; stroke-width: 0.886227"/>
    <path d="M 78.278335 31.119202 
L 79.079147 31.119202 
" clip-path="url(#p8d44f5bd88)" style="fill: none; stroke: #000080; stroke-width: 0.886227"/>
    <path d="M 79.77594 26.144966 
L 80.576752 26.144966 
" clip-path="url(#p8d44f5bd88)" style="fill: none; stroke: #000080; stroke-width: 0.886227"/>
    <path d="M 81.433293 25.936575 
L 82.234105 25.936575 
" clip-path="url(#p8d44f5bd88)" style="fill: none; stroke: #000080; stroke-width: 0.886227"/>
    <path d="M 83.549528 34.827698 
L 84.350339 34.827698 
" clip-path="url(#p8d44f5bd88)" style="fill: none; stroke: #000080; stroke-width: 0.886227"/>
    <path d="M 86.003605 33.451595 
L 86.804417 33.451595 
" clip-path="url(#p8d44f5bd88)" style="fill: none; stroke: #000080; stroke-width: 0.886227"/>
    <path d="M 88.983882 81.656527 
L 89.784694 81.656527 
" clip-path="url(#p8d44f5bd88)" style="fill: none; stroke: #000080; stroke-width: 0.886227"/>
    <path d="M 92.814969 110.219386 
L 93.615781 110.219386 
" clip-path="url(#p8d44f5bd88)" style="fill: none; stroke: #000080; stroke-width: 0.886227"/>
    <path d="M 98.260222 117.507039 
L 99.061034 117.507039 
" clip-path="url(#p8d44f5bd88)" style="fill: none; stroke: #000080; stroke-width: 0.886227"/>
    <path d="M 104.931696 132.616905 
L 105.732508 132.616905 
" clip-path="url(#p8d44f5bd88)" style="fill: none; stroke: #000080; stroke-width: 0.886227"/>
    <path d="M 115.79306 98.60754 
L 116.593872 98.60754 
" clip-path="url(#p8d44f5bd88)" style="fill: none; stroke: #000080; stroke-width: 0.886227"/>
    <path d="M 150.736483 184.844626 
L 151.537295 184.844626 
" clip-path="url(#p8d44f5bd88)" style="fill: none; stroke: #000080; stroke-width: 0.886227"/>
    <path d="M 66.09036 170.660569 
L 66.09036 210.054925 
" clip-path="url(#p8d44f5bd88)" style="fill: none; stroke: #000080; stroke-width: 0.886227"/>
    <path d="M 66.572479 146.280476 
L 66.572479 179.172089 
" clip-path="url(#p8d44f5bd88)" style="fill: none; stroke: #000080; stroke-width: 0.886227"/>
    <path d="M 67.110406 137.927675 
L 67.110406 169.898869 
" clip-path="url(#p8d44f5bd88)" style="fill: none; stroke: #000080; stroke-width: 0.886227"/>
    <path d="M 67.678269 135.492879 
L 67.678269 173.512503 
" clip-path="url(#p8d44f5bd88)" style="fill: none; stroke: #000080; stroke-width: 0.886227"/>
    <path d="M 68.247272 123.894902 
L 68.247272 163.371948 
" clip-path="url(#p8d44f5bd88)" style="fill: none; stroke: #000080; stroke-width: 0.886227"/>
    <path d="M 68.874797 119.623959 
L 68.874797 156.78832 
" clip-path="url(#p8d44f5bd88)" style="fill: none; stroke: #000080; stroke-width: 0.886227"/>
    <path d="M 69.615292 105.218757 
L 69.615292 143.308466 
" clip-path="url(#p8d44f5bd88)" style="fill: none; stroke: #000080; stroke-width: 0.886227"/>
    <path d="M 70.3622 80.777543 
L 70.3622 127.843244 
" clip-path="url(#p8d44f5bd88)" style="fill: none; stroke: #000080; stroke-width: 0.886227"/>
    <path d="M 71.117143 68.715017 
L 71.117143 126.824152 
" clip-path="url(#p8d44f5bd88)" style="fill: none; stroke: #000080; stroke-width: 0.886227"/>
    <path d="M 71.914228 84.018808 
L 71.914228 130.612389 
" clip-path="url(#p8d44f5bd88)" style="fill: none; stroke: #000080; stroke-width: 0.886227"/>
    <path d="M 72.843511 68.974025 
L 72.843511 118.470097 
" clip-path="url(#p8d44f5bd88)" style="fill: none; stroke: #000080; stroke-width: 0.886227"/>
    <path d="M 73.793774 49.564243 
L 73.793774 103.001742 
" clip-path="url(#p8d44f5bd88)" style="fill: none; stroke: #000080; stroke-width: 0.886227"/>
    <path d="M 74.856426 67.399741 
L 74.856426 117.270597 
" clip-path="url(#p8d44f5bd88)" style="fill: none; stroke: #000080; stroke-width: 0.886227"/>
    <path d="M 76.007918 58.320015 
L 76.007918 110.0616 
" clip-path="url(#p8d44f5bd88)" style="fill: none; stroke: #000080; stroke-width: 0.886227"/>
    <path d="M 77.277566 19.296 
L 77.277566 71.152092 
" clip-path="url(#p8d44f5bd88)" style="fill: none; stroke: #000080; stroke-width: 0.886227"/>
    <path d="M 78.678741 31.119202 
L 78.678741 88.867362 
" clip-path="url(#p8d44f5bd88)" style="fill: none; stroke: #000080; stroke-width: 0.886227"/>
    <path d="M 80.176346 26.144966 
L 80.176346 83.905253 
" clip-path="url(#p8d44f5bd88)" style="fill: none; stroke: #000080; stroke-width: 0.886227"/>
    <path d="M 81.833699 25.936575 
L 81.833699 84.212019 
" clip-path="url(#p8d44f5bd88)" style="fill: none; stroke: #000080; stroke-width: 0.886227"/>
    <path d="M 83.949934 34.827698 
L 83.949934 96.611757 
" clip-path="url(#p8d44f5bd88)" style="fill: none; stroke: #000080; stroke-width: 0.886227"/>
    <path d="M 86.404011 33.451595 
L 86.404011 91.993566 
" clip-path="url(#p8d44f5bd88)" style="fill: none; stroke: #000080; stroke-width: 0.886227"/>
    <path d="M 89.384288 81.656527 
L 89.384288 135.81672 
" clip-path="url(#p8d44f5bd88)" style="fill: none; stroke: #000080; stroke-width: 0.886227"/>
    <path d="M 93.215375 110.219386 
L 93.215375 162.180438 
" clip-path="url(#p8d44f5bd88)" style="fill: none; stroke: #000080; stroke-width: 0.886227"/>
    <path d="M 98.660628 117.507039 
L 98.660628 168.347566 
" clip-path="url(#p8d44f5bd88)" style="fill: none; stroke: #000080; stroke-width: 0.886227"/>
    <path d="M 105.332102 132.616905 
L 105.332102 184.180749 
" clip-path="url(#p8d44f5bd88)" style="fill: none; stroke: #000080; stroke-width: 0.886227"/>
    <path d="M 116.193466 98.60754 
L 116.193466 159.973641 
" clip-path="url(#p8d44f5bd88)" style="fill: none; stroke: #000080; stroke-width: 0.886227"/>
    <path d="M 151.136889 184.844626 
L 151.136889 261.216 
" clip-path="url(#p8d44f5bd88)" style="fill: none; stroke: #000080; stroke-width: 0.886227"/>
   </g>
  </g>
 </g>
 <defs>
  <clipPath id="p8d44f5bd88">
   <rect x="49.635938" y="7.2" width="357.12" height="266.112"/>
  </clipPath>
 </defs>
</svg>