<?xml version="1.0" encoding="utf-8" standalone="no"?>
<!DOCTYPE svg PUBLIC "-//W3C//DTD SVG 1.1//EN"
  "http://www.w3.org/Graphics/SVG/1.1/DTD/svg11.dtd">
<svg xmlns:xlink="http://www.w3.org/1999/xlink" width="413.955938pt" height="309.024687pt" viewBox="0 0 413.955938 309.024687" xmlns="http://www.w3.org/2000/svg" version="1.1">
 <metadata>
  <rdf:RDF xmlns:dc="http://purl.org/dc/elements/1.1/" xmlns:cc="http://creativecommons.org/ns#" xmlns:rdf="http://www.w3.org/1999/02/22-rdf-syntax-ns#">
   <cc:Work>
    <dc:type rdf:resource="http://purl.org/dc/dcmitype/StillImage"/>
    <dc:date>2023-09-07T20:40:41.222522</dc:date>
    <dc:format>image/svg+xml</dc:format>
    <dc:creator>
     <cc:Agent>
      <dc:title>Matplotlib v3.7.2, https://matplotlib.org/</dc:title>
     </cc:Agent>
    </dc:creator>
   </cc:Work>
  </rdf:RDF>
 </metadata>
 <defs>
  <style type="text/css">*{stroke-linejoin: round; stroke-linecap: butt}</style>
 </defs>
 <g id="figure_1">
  <g id="patch_1">
   <path d="M 0 309.024687 
L 413.955938 309.024687 
L 413.955938 0 
L 0 0 
z
" style="fill: #ffffff; stroke: #ffffff; stroke-linejoin: miter"/>
  </g>
  <g id="axes_1">
   <g id="patch_2">
    <path d="M 49.635938 273.312 
L 406.755938 273.312 
L 406.755938 7.2 
L 49.635938 7.2 
z
" style="fill: #ffffff; stroke: #7f7f7f; stroke-linejoin: miter"/>
   </g>
   <g id="matplotlib.axis_1">
    <g id="xtick_1">
     <g id="line2d_1">
      <path d="M 65.86832 273.312 
L 65.86832 7.2 
" clip-path="url(#p08ffc27747)" style="fill: none; stroke: #e5e5e5; stroke-width: 0.8"/>
     </g>
     <g id="line2d_2">
      <path d="M 65.86832 273.312 
" style="fill: none; stroke: #000000; stroke-width: 3"/>
      <defs>
       <path id="mcc12554680" d="M 0 0 
L 0 2.75 
" style="stroke: #333333"/>
      </defs>
      <g>
       <use xlink:href="#mcc12554680" x="65.86832" y="273.312" style="stroke: #333333"/>
      </g>
     </g>
     <g id="text_1">
      <!-- $\mathdefault{0}$ -->
      <g style="fill: #4d4d4d" transform="translate(63.05232 284.948625) scale(0.088 -0.088)">
       <defs>
        <path id="DejaVuSans-30" d="M 2034 4250 
Q 1547 4250 1301 3770 
Q 1056 3291 1056 2328 
Q 1056 1369 1301 889 
Q 1547 409 2034 409 
Q 2525 409 2770 889 
Q 3016 1369 3016 2328 
Q 3016 3291 2770 3770 
Q 2525 4250 2034 4250 
z
M 2034 4750 
Q 2819 4750 3233 4129 
Q 3647 3509 3647 2328 
Q 3647 1150 3233 529 
Q 2819 -91 2034 -91 
Q 1250 -91 836 529 
Q 422 1150 422 2328 
Q 422 3509 836 4129 
Q 1250 4750 2034 4750 
z
" transform="scale(0.015625)"/>
       </defs>
       <use xlink:href="#DejaVuSans-30" transform="translate(0 0.78125)"/>
      </g>
     </g>
    </g>
    <g id="xtick_2">
     <g id="line2d_3">
      <path d="M 145.949499 273.312 
L 145.949499 7.2 
" clip-path="url(#p08ffc27747)" style="fill: none; stroke: #e5e5e5; stroke-width: 0.8"/>
     </g>
     <g id="line2d_4">
      <path d="M 145.949499 273.312 
" style="fill: none; stroke: #000000; stroke-width: 3"/>
      <g>
       <use xlink:href="#mcc12554680" x="145.949499" y="273.312" style="stroke: #333333"/>
      </g>
     </g>
     <g id="text_2">
      <!-- $\mathdefault{5}$ -->
      <g style="fill: #4d4d4d" transform="translate(143.133499 284.948625) scale(0.088 -0.088)">
       <defs>
        <path id="DejaVuSans-35" d="M 691 4666 
L 3169 4666 
L 3169 4134 
L 1269 4134 
L 1269 2991 
Q 1406 3038 1543 3061 
Q 1681 3084 1819 3084 
Q 2600 3084 3056 2656 
Q 3513 2228 3513 1497 
Q 3513 744 3044 326 
Q 2575 -91 1722 -91 
Q 1428 -91 1123 -41 
Q 819 9 494 109 
L 494 744 
Q 775 591 1075 516 
Q 1375 441 1709 441 
Q 2250 441 2565 725 
Q 2881 1009 2881 1497 
Q 2881 1984 2565 2268 
Q 2250 2553 1709 2553 
Q 1456 2553 1204 2497 
Q 953 2441 691 2322 
L 691 4666 
z
" transform="scale(0.015625)"/>
       </defs>
       <use xlink:href="#DejaVuSans-35" transform="translate(0 0.09375)"/>
      </g>
     </g>
    </g>
    <g id="xtick_3">
     <g id="line2d_5">
      <path d="M 226.030677 273.312 
L 226.030677 7.2 
" clip-path="url(#p08ffc27747)" style="fill: none; stroke: #e5e5e5; stroke-width: 0.8"/>
     </g>
     <g id="line2d_6">
      <path d="M 226.030677 273.312 
" style="fill: none; stroke: #000000; stroke-width: 3"/>
      <g>
       <use xlink:href="#mcc12554680" x="226.030677" y="273.312" style="stroke: #333333"/>
      </g>
     </g>
     <g id="text_3">
      <!-- $\mathdefault{10}$ -->
      <g style="fill: #4d4d4d" transform="translate(220.398677 284.948625) scale(0.088 -0.088)">
       <defs>
        <path id="DejaVuSans-31" d="M 794 531 
L 1825 531 
L 1825 4091 
L 703 3866 
L 703 4441 
L 1819 4666 
L 2450 4666 
L 2450 531 
L 3481 531 
L 3481 0 
L 794 0 
L 794 531 
z
" transform="scale(0.015625)"/>
       </defs>
       <use xlink:href="#DejaVuSans-31" transform="translate(0 0.78125)"/>
       <use xlink:href="#DejaVuSans-30" transform="translate(63.623047 0.78125)"/>
      </g>
     </g>
    </g>
    <g id="xtick_4">
     <g id="line2d_7">
      <path d="M 306.111855 273.312 
L 306.111855 7.2 
" clip-path="url(#p08ffc27747)" style="fill: none; stroke: #e5e5e5; stroke-width: 0.8"/>
     </g>
     <g id="line2d_8">
      <path d="M 306.111855 273.312 
" style="fill: none; stroke: #000000; stroke-width: 3"/>
      <g>
       <use xlink:href="#mcc12554680" x="306.111855" y="273.312" style="stroke: #333333"/>
      </g>
     </g>
     <g id="text_4">
      <!-- $\mathdefault{15}$ -->
      <g style="fill: #4d4d4d" transform="translate(300.479855 284.948625) scale(0.088 -0.088)">
       <use xlink:href="#DejaVuSans-31" transform="translate(0 0.09375)"/>
       <use xlink:href="#DejaVuSans-35" transform="translate(63.623047 0.09375)"/>
      </g>
     </g>
    </g>
    <g id="xtick_5">
     <g id="line2d_9">
      <path d="M 386.193033 273.312 
L 386.193033 7.2 
" clip-path="url(#p08ffc27747)" style="fill: none; stroke: #e5e5e5; stroke-width: 0.8"/>
     </g>
     <g id="line2d_10">
      <path d="M 386.193033 273.312 
" style="fill: none; stroke: #000000; stroke-width: 3"/>
      <g>
       <use xlink:href="#mcc12554680" x="386.193033" y="273.312" style="stroke: #333333"/>
      </g>
     </g>
     <g id="text_5">
      <!-- $\mathdefault{20}$ -->
      <g style="fill: #4d4d4d" transform="translate(380.561033 284.948625) scale(0.088 -0.088)">
       <defs>
        <path id="DejaVuSans-32" d="M 1228 531 
L 3431 531 
L 3431 0 
L 469 0 
L 469 531 
Q 828 903 1448 1529 
Q 2069 2156 2228 2338 
Q 2531 2678 2651 2914 
Q 2772 3150 2772 3378 
Q 2772 3750 2511 3984 
Q 2250 4219 1831 4219 
Q 1534 4219 1204 4116 
Q 875 4013 500 3803 
L 500 4441 
Q 881 4594 1212 4672 
Q 1544 4750 1819 4750 
Q 2544 4750 2975 4387 
Q 3406 4025 3406 3419 
Q 3406 3131 3298 2873 
Q 3191 2616 2906 2266 
Q 2828 2175 2409 1742 
Q 1991 1309 1228 531 
z
" transform="scale(0.015625)"/>
       </defs>
       <use xlink:href="#DejaVuSans-32" transform="translate(0 0.78125)"/>
       <use xlink:href="#DejaVuSans-30" transform="translate(63.623047 0.78125)"/>
      </g>
     </g>
    </g>
    <g id="xtick_6">
     <g id="line2d_11">
      <path d="M 105.908909 273.312 
L 105.908909 7.2 
" clip-path="url(#p08ffc27747)" style="fill: none; stroke: #fafafa"/>
     </g>
    </g>
    <g id="xtick_7">
     <g id="line2d_12">
      <path d="M 185.990088 273.312 
L 185.990088 7.2 
" clip-path="url(#p08ffc27747)" style="fill: none; stroke: #fafafa"/>
     </g>
    </g>
    <g id="xtick_8">
     <g id="line2d_13">
      <path d="M 266.071266 273.312 
L 266.071266 7.2 
" clip-path="url(#p08ffc27747)" style="fill: none; stroke: #fafafa"/>
     </g>
    </g>
    <g id="xtick_9">
     <g id="line2d_14">
      <path d="M 346.152444 273.312 
L 346.152444 7.2 
" clip-path="url(#p08ffc27747)" style="fill: none; stroke: #fafafa"/>
     </g>
    </g>
    <g id="text_6">
     <!-- age -->
     <g transform="translate(212.189609 299.537031) scale(0.11 -0.11)">
      <defs>
       <path id="DejaVuSans-61" d="M 2194 1759 
Q 1497 1759 1228 1600 
Q 959 1441 959 1056 
Q 959 750 1161 570 
Q 1363 391 1709 391 
Q 2188 391 2477 730 
Q 2766 1069 2766 1631 
L 2766 1759 
L 2194 1759 
z
M 3341 1997 
L 3341 0 
L 2766 0 
L 2766 531 
Q 2569 213 2275 61 
Q 1981 -91 1556 -91 
Q 1019 -91 701 211 
Q 384 513 384 1019 
Q 384 1609 779 1909 
Q 1175 2209 1959 2209 
L 2766 2209 
L 2766 2266 
Q 2766 2663 2505 2880 
Q 2244 3097 1772 3097 
Q 1472 3097 1187 3025 
Q 903 2953 641 2809 
L 641 3341 
Q 956 3463 1253 3523 
Q 1550 3584 1831 3584 
Q 2591 3584 2966 3190 
Q 3341 2797 3341 1997 
z
" transform="scale(0.015625)"/>
       <path id="DejaVuSans-67" d="M 2906 1791 
Q 2906 2416 2648 2759 
Q 2391 3103 1925 3103 
Q 1463 3103 1205 2759 
Q 947 2416 947 1791 
Q 947 1169 1205 825 
Q 1463 481 1925 481 
Q 2391 481 2648 825 
Q 2906 1169 2906 1791 
z
M 3481 434 
Q 3481 -459 3084 -895 
Q 2688 -1331 1869 -1331 
Q 1566 -1331 1297 -1286 
Q 1028 -1241 775 -1147 
L 775 -588 
Q 1028 -725 1275 -790 
Q 1522 -856 1778 -856 
Q 2344 -856 2625 -561 
Q 2906 -266 2906 331 
L 2906 616 
Q 2728 306 2450 153 
Q 2172 0 1784 0 
Q 1141 0 747 490 
Q 353 981 353 1791 
Q 353 2603 747 3093 
Q 1141 3584 1784 3584 
Q 2172 3584 2450 3431 
Q 2728 3278 2906 2969 
L 2906 3500 
L 3481 3500 
L 3481 434 
z
" transform="scale(0.015625)"/>
       <path id="DejaVuSans-65" d="M 3597 1894 
L 3597 1613 
L 953 1613 
Q 991 1019 1311 708 
Q 1631 397 2203 397 
Q 2534 397 2845 478 
Q 3156 559 3463 722 
L 3463 178 
Q 3153 47 2828 -22 
Q 2503 -91 2169 -91 
Q 1331 -91 842 396 
Q 353 884 353 1716 
Q 353 2575 817 3079 
Q 1281 3584 2069 3584 
Q 2775 3584 3186 3129 
Q 3597 2675 3597 1894 
z
M 3022 2063 
Q 3016 2534 2758 2815 
Q 2500 3097 2075 3097 
Q 1594 3097 1305 2825 
Q 1016 2553 972 2059 
L 3022 2063 
z
" transform="scale(0.015625)"/>
      </defs>
      <use xlink:href="#DejaVuSans-61"/>
      <use xlink:href="#DejaVuSans-67" x="61.279297"/>
      <use xlink:href="#DejaVuSans-65" x="124.755859"/>
     </g>
    </g>
   </g>
   <g id="matplotlib.axis_2">
    <g id="ytick_1">
     <g id="line2d_15">
      <path d="M 49.635938 269.791676 
L 406.755938 269.791676 
" clip-path="url(#p08ffc27747)" style="fill: none; stroke: #e5e5e5; stroke-width: 0.8"/>
     </g>
     <g id="line2d_16">
      <path d="M 49.635938 269.791676 
" style="fill: none; stroke: #000000; stroke-width: 3"/>
      <defs>
       <path id="mbea2253e13" d="M 0 0 
L -2.75 0 
" style="stroke: #333333"/>
      </defs>
      <g>
       <use xlink:href="#mbea2253e13" x="49.635938" y="269.791676" style="stroke: #333333"/>
      </g>
     </g>
     <g id="text_7">
      <!-- $\mathdefault{1000}$ -->
      <g style="fill: #4d4d4d" transform="translate(22.245938 272.219926) scale(0.088 -0.088)">
       <use xlink:href="#DejaVuSans-31" transform="translate(0 0.78125)"/>
       <use xlink:href="#DejaVuSans-30" transform="translate(63.623047 0.78125)"/>
       <use xlink:href="#DejaVuSans-30" transform="translate(127.246094 0.78125)"/>
       <use xlink:href="#DejaVuSans-30" transform="translate(190.869141 0.78125)"/>
      </g>
     </g>
    </g>
    <g id="ytick_2">
     <g id="line2d_17">
      <path d="M 49.635938 190.792538 
L 406.755938 190.792538 
" clip-path="url(#p08ffc27747)" style="fill: none; stroke: #e5e5e5; stroke-width: 0.8"/>
     </g>
     <g id="line2d_18">
      <path d="M 49.635938 190.792538 
" style="fill: none; stroke: #000000; stroke-width: 3"/>
      <g>
       <use xlink:href="#mbea2253e13" x="49.635938" y="190.792538" style="stroke: #333333"/>
      </g>
     </g>
     <g id="text_8">
      <!-- $\mathdefault{2000}$ -->
      <g style="fill: #4d4d4d" transform="translate(22.245938 193.220788) scale(0.088 -0.088)">
       <use xlink:href="#DejaVuSans-32" transform="translate(0 0.78125)"/>
       <use xlink:href="#DejaVuSans-30" transform="translate(63.623047 0.78125)"/>
       <use xlink:href="#DejaVuSans-30" transform="translate(127.246094 0.78125)"/>
       <use xlink:href="#DejaVuSans-30" transform="translate(190.869141 0.78125)"/>
      </g>
     </g>
    </g>
    <g id="ytick_3">
     <g id="line2d_19">
      <path d="M 49.635938 111.793401 
L 406.755938 111.793401 
" clip-path="url(#p08ffc27747)" style="fill: none; stroke: #e5e5e5; stroke-width: 0.8"/>
     </g>
     <g id="line2d_20">
      <path d="M 49.635938 111.793401 
" style="fill: none; stroke: #000000; stroke-width: 3"/>
      <g>
       <use xlink:href="#mbea2253e13" x="49.635938" y="111.793401" style="stroke: #333333"/>
      </g>
     </g>
     <g id="text_9">
      <!-- $\mathdefault{3000}$ -->
      <g style="fill: #4d4d4d" transform="translate(22.245938 114.221651) scale(0.088 -0.088)">
       <defs>
        <path id="DejaVuSans-33" d="M 2597 2516 
Q 3050 2419 3304 2112 
Q 3559 1806 3559 1356 
Q 3559 666 3084 287 
Q 2609 -91 1734 -91 
Q 1441 -91 1130 -33 
Q 819 25 488 141 
L 488 750 
Q 750 597 1062 519 
Q 1375 441 1716 441 
Q 2309 441 2620 675 
Q 2931 909 2931 1356 
Q 2931 1769 2642 2001 
Q 2353 2234 1838 2234 
L 1294 2234 
L 1294 2753 
L 1863 2753 
Q 2328 2753 2575 2939 
Q 2822 3125 2822 3475 
Q 2822 3834 2567 4026 
Q 2313 4219 1838 4219 
Q 1578 4219 1281 4162 
Q 984 4106 628 3988 
L 628 4550 
Q 988 4650 1302 4700 
Q 1616 4750 1894 4750 
Q 2613 4750 3031 4423 
Q 3450 4097 3450 3541 
Q 3450 3153 3228 2886 
Q 3006 2619 2597 2516 
z
" transform="scale(0.015625)"/>
       </defs>
       <use xlink:href="#DejaVuSans-33" transform="translate(0 0.78125)"/>
       <use xlink:href="#DejaVuSans-30" transform="translate(63.623047 0.78125)"/>
       <use xlink:href="#DejaVuSans-30" transform="translate(127.246094 0.78125)"/>
       <use xlink:href="#DejaVuSans-30" transform="translate(190.869141 0.78125)"/>
      </g>
     </g>
    </g>
    <g id="ytick_4">
     <g id="line2d_21">
      <path d="M 49.635938 32.794264 
L 406.755938 32.794264 
" clip-path="url(#p08ffc27747)" style="fill: none; stroke: #e5e5e5; stroke-width: 0.8"/>
     </g>
     <g id="line2d_22">
      <path d="M 49.635938 32.794264 
" style="fill: none; stroke: #000000; stroke-width: 3"/>
      <g>
       <use xlink:href="#mbea2253e13" x="49.635938" y="32.794264" style="stroke: #333333"/>
      </g>
     </g>
     <g id="text_10">
      <!-- $\mathdefault{4000}$ -->
      <g style="fill: #4d4d4d" transform="translate(22.245938 35.222514) scale(0.088 -0.088)">
       <defs>
        <path id="DejaVuSans-34" d="M 2419 4116 
L 825 1625 
L 2419 1625 
L 2419 4116 
z
M 2253 4666 
L 3047 4666 
L 3047 1625 
L 3713 1625 
L 3713 1100 
L 3047 1100 
L 3047 0 
L 2419 0 
L 2419 1100 
L 313 1100 
L 313 1709 
L 2253 4666 
z
" transform="scale(0.015625)"/>
       </defs>
       <use xlink:href="#DejaVuSans-34" transform="translate(0 0.78125)"/>
       <use xlink:href="#DejaVuSans-30" transform="translate(63.623047 0.78125)"/>
       <use xlink:href="#DejaVuSans-30" transform="translate(127.246094 0.78125)"/>
       <use xlink:href="#DejaVuSans-30" transform="translate(190.869141 0.78125)"/>
      </g>
     </g>
    </g>
    <g id="ytick_5">
     <g id="line2d_23">
      <path d="M 49.635938 230.292107 
L 406.755938 230.292107 
" clip-path="url(#p08ffc27747)" style="fill: none; stroke: #fafafa"/>
     </g>
    </g>
    <g id="ytick_6">
     <g id="line2d_24">
      <path d="M 49.635938 151.29297 
L 406.755938 151.29297 
" clip-path="url(#p08ffc27747)" style="fill: none; stroke: #fafafa"/>
     </g>
    </g>
    <g id="ytick_7">
     <g id="line2d_25">
      <path d="M 49.635938 72.293833 
L 406.755938 72.293833 
" clip-path="url(#p08ffc27747)" style="fill: none; stroke: #fafafa"/>
     </g>
    </g>
    <g id="text_11">
     <!-- sales -->
     <g transform="translate(15.558281 152.540969) rotate(-90) scale(0.11 -0.11)">
      <defs>
       <path id="DejaVuSans-73" d="M 2834 3397 
L 2834 2853 
Q 2591 2978 2328 3040 
Q 2066 3103 1784 3103 
Q 1356 3103 1142 2972 
Q 928 2841 928 2578 
Q 928 2378 1081 2264 
Q 1234 2150 1697 2047 
L 1894 2003 
Q 2506 1872 2764 1633 
Q 3022 1394 3022 966 
Q 3022 478 2636 193 
Q 2250 -91 1575 -91 
Q 1294 -91 989 -36 
Q 684 19 347 128 
L 347 722 
Q 666 556 975 473 
Q 1284 391 1588 391 
Q 1994 391 2212 530 
Q 2431 669 2431 922 
Q 2431 1156 2273 1281 
Q 2116 1406 1581 1522 
L 1381 1569 
Q 847 1681 609 1914 
Q 372 2147 372 2553 
Q 372 3047 722 3315 
Q 1072 3584 1716 3584 
Q 2034 3584 2315 3537 
Q 2597 3491 2834 3397 
z
" transform="scale(0.015625)"/>
       <path id="DejaVuSans-6c" d="M 603 4863 
L 1178 4863 
L 1178 0 
L 603 0 
L 603 4863 
z
" transform="scale(0.015625)"/>
      </defs>
      <use xlink:href="#DejaVuSans-73"/>
      <use xlink:href="#DejaVuSans-61" x="52.099609"/>
      <use xlink:href="#DejaVuSans-6c" x="113.378906"/>
      <use xlink:href="#DejaVuSans-65" x="141.162109"/>
      <use xlink:href="#DejaVuSans-73" x="202.685547"/>
     </g>
    </g>
   </g>
   <g id="PathCollection_1">
    <path d="M 66.054014 234.172551 
C 66.641589 234.172551 67.205178 233.939105 67.620657 233.523626 
C 68.036135 233.108148 68.269581 232.544559 68.269581 231.956983 
C 68.269581 231.369408 68.036135 230.805819 67.620657 230.390341 
C 67.205178 229.974862 66.641589 229.741416 66.054014 229.741416 
C 65.466439 229.741416 64.90285 229.974862 64.487371 230.390341 
C 64.071893 230.805819 63.838447 231.369408 63.838447 231.956983 
C 63.838447 232.544559 64.071893 233.108148 64.487371 233.523626 
C 64.90285 233.939105 65.466439 234.172551 66.054014 234.172551 
z
" clip-path="url(#p08ffc27747)" style="fill: #000080; stroke: #000080; stroke-width: 0.886227"/>
    <path d="M 66.446355 211.263393 
C 67.033931 211.263393 67.597519 211.029947 68.012998 210.614469 
C 68.428476 210.19899 68.661923 209.635401 68.661923 209.047826 
C 68.661923 208.460251 68.428476 207.896662 68.012998 207.481183 
C 67.597519 207.065705 67.033931 206.832259 66.446355 206.832259 
C 65.85878 206.832259 65.295191 207.065705 64.879713 207.481183 
C 64.464234 207.896662 64.230788 208.460251 64.230788 209.047826 
C 64.230788 209.635401 64.464234 210.19899 64.879713 210.614469 
C 65.295191 211.029947 65.85878 211.263393 66.446355 211.263393 
z
" clip-path="url(#p08ffc27747)" style="fill: #000080; stroke: #000080; stroke-width: 0.886227"/>
    <path d="M 66.889769 198.61104 
C 67.477344 198.61104 68.040933 198.377594 68.456412 197.962115 
C 68.87189 197.546637 69.105336 196.983048 69.105336 196.395473 
C 69.105336 195.807897 68.87189 195.244308 68.456412 194.82883 
C 68.040933 194.413351 67.477344 194.179905 66.889769 194.179905 
C 66.302194 194.179905 65.738605 194.413351 65.323126 194.82883 
C 64.907648 195.244308 64.674202 195.807897 64.674202 196.395473 
C 64.674202 196.983048 64.907648 197.546637 65.323126 197.962115 
C 65.738605 198.377594 66.302194 198.61104 66.889769 198.61104 
z
" clip-path="url(#p08ffc27747)" style="fill: #000080; stroke: #000080; stroke-width: 0.886227"/>
    <path d="M 67.358885 202.799077 
C 67.946461 202.799077 68.510049 202.565631 68.925528 202.150153 
C 69.341006 201.734674 69.574453 201.171085 69.574453 200.58351 
C 69.574453 199.995935 69.341006 199.432346 68.925528 199.016867 
C 68.510049 198.601389 67.946461 198.367943 67.358885 198.367943 
C 66.77131 198.367943 66.207721 198.601389 65.792243 199.016867 
C 65.376764 199.432346 65.143318 199.995935 65.143318 200.58351 
C 65.143318 201.171085 65.376764 201.734674 65.792243 202.150153 
C 66.207721 202.565631 66.77131 202.799077 67.358885 202.799077 
z
" clip-path="url(#p08ffc27747)" style="fill: #000080; stroke: #000080; stroke-width: 0.886227"/>
    <path d="M 67.835216 192.517125 
C 68.422791 192.517125 68.98638 192.283679 69.401859 191.868201 
C 69.817337 191.452722 70.050783 190.889133 70.050783 190.301558 
C 70.050783 189.713983 69.817337 189.150394 69.401859 188.734915 
C 68.98638 188.319437 68.422791 188.085991 67.835216 188.085991 
C 67.247641 188.085991 66.684052 188.319437 66.268573 188.734915 
C 65.853095 189.150394 65.619649 189.713983 65.619649 190.301558 
C 65.619649 190.889133 65.853095 191.452722 66.268573 191.868201 
C 66.684052 192.283679 67.247641 192.517125 67.835216 192.517125 
z
" clip-path="url(#p08ffc27747)" style="fill: #000080; stroke: #000080; stroke-width: 0.886227"/>
    <path d="M 68.308758 187.850402 
C 68.896333 187.850402 69.459922 187.616956 69.8754 187.201477 
C 70.290879 186.785999 70.524325 186.22241 70.524325 185.634834 
C 70.524325 185.047259 70.290879 184.48367 69.8754 184.068192 
C 69.459922 183.652713 68.896333 183.419267 68.308758 183.419267 
C 67.721182 183.419267 67.157594 183.652713 66.742115 184.068192 
C 66.326637 184.48367 66.09319 185.047259 66.09319 185.634834 
C 66.09319 186.22241 66.326637 186.785999 66.742115 187.201477 
C 67.157594 187.616956 67.721182 187.850402 68.308758 187.850402 
z
" clip-path="url(#p08ffc27747)" style="fill: #000080; stroke: #000080; stroke-width: 0.886227"/>
    <path d="M 68.83999 177.856365 
C 69.427566 177.856365 69.991155 177.622919 70.406633 177.20744 
C 70.822112 176.791962 71.055558 176.228373 71.055558 175.640798 
C 71.055558 175.053222 70.822112 174.489634 70.406633 174.074155 
C 69.991155 173.658677 69.427566 173.42523 68.83999 173.42523 
C 68.252415 173.42523 67.688826 173.658677 67.273348 174.074155 
C 66.857869 174.489634 66.624423 175.053222 66.624423 175.640798 
C 66.624423 176.228373 66.857869 176.791962 67.273348 177.20744 
C 67.688826 177.622919 68.252415 177.856365 68.83999 177.856365 
z
" clip-path="url(#p08ffc27747)" style="fill: #000080; stroke: #000080; stroke-width: 0.886227"/>
    <path d="M 69.455936 163.82466 
C 70.043511 163.82466 70.6071 163.591214 71.022579 163.175736 
C 71.438057 162.760257 71.671503 162.196668 71.671503 161.609093 
C 71.671503 161.021518 71.438057 160.457929 71.022579 160.04245 
C 70.6071 159.626972 70.043511 159.393526 69.455936 159.393526 
C 68.868361 159.393526 68.304772 159.626972 67.889293 160.04245 
C 67.473815 160.457929 67.240369 161.021518 67.240369 161.609093 
C 67.240369 162.196668 67.473815 162.760257 67.889293 163.175736 
C 68.304772 163.591214 68.868361 163.82466 69.455936 163.82466 
z
" clip-path="url(#p08ffc27747)" style="fill: #000080; stroke: #000080; stroke-width: 0.886227"/>
    <path d="M 70.091164 144.484669 
C 70.678739 144.484669 71.242328 144.251222 71.657806 143.835744 
C 72.073285 143.420265 72.306731 142.856677 72.306731 142.269101 
C 72.306731 141.681526 72.073285 141.117937 71.657806 140.702459 
C 71.242328 140.28698 70.678739 140.053534 70.091164 140.053534 
C 69.503588 140.053534 68.94 140.28698 68.524521 140.702459 
C 68.109043 141.117937 67.875596 141.681526 67.875596 142.269101 
C 67.875596 142.856677 68.109043 143.420265 68.524521 143.835744 
C 68.94 144.251222 69.503588 144.484669 70.091164 144.484669 
z
" clip-path="url(#p08ffc27747)" style="fill: #000080; stroke: #000080; stroke-width: 0.886227"/>
    <path d="M 70.713698 155.575482 
C 71.301273 155.575482 71.864862 155.342036 72.28034 154.926557 
C 72.695819 154.511079 72.929265 153.94749 72.929265 153.359915 
C 72.929265 152.772339 72.695819 152.208751 72.28034 151.793272 
C 71.864862 151.377794 71.301273 151.144347 70.713698 151.144347 
C 70.126122 151.144347 69.562533 151.377794 69.147055 151.793272 
C 68.731576 152.208751 68.49813 152.772339 68.49813 153.359915 
C 68.49813 153.94749 68.731576 154.511079 69.147055 154.926557 
C 69.562533 155.342036 70.126122 155.575482 70.713698 155.575482 
z
" clip-path="url(#p08ffc27747)" style="fill: #000080; stroke: #000080; stroke-width: 0.886227"/>
    <path d="M 71.341034 112.426009 
C 71.928609 112.426009 72.492198 112.192563 72.907676 111.777085 
C 73.323155 111.361606 73.556601 110.798017 73.556601 110.210442 
C 73.556601 109.622867 73.323155 109.059278 72.907676 108.643799 
C 72.492198 108.228321 71.928609 107.994875 71.341034 107.994875 
C 70.753458 107.994875 70.18987 108.228321 69.774391 108.643799 
C 69.358913 109.059278 69.125466 109.622867 69.125466 110.210442 
C 69.125466 110.798017 69.358913 111.361606 69.774391 111.777085 
C 70.18987 112.192563 70.753458 112.426009 71.341034 112.426009 
z
" clip-path="url(#p08ffc27747)" style="fill: #000080; stroke: #000080; stroke-width: 0.886227"/>
    <path d="M 72.045384 145.400744 
C 72.632959 145.400744 73.196548 145.167297 73.612027 144.751819 
C 74.027505 144.33634 74.260951 143.772752 74.260951 143.185176 
C 74.260951 142.597601 74.027505 142.034012 73.612027 141.618534 
C 73.196548 141.203055 72.632959 140.969609 72.045384 140.969609 
C 71.457809 140.969609 70.89422 141.203055 70.478741 141.618534 
C 70.063263 142.034012 69.829817 142.597601 69.829817 143.185176 
C 69.829817 143.772752 70.063263 144.33634 70.478741 144.751819 
C 70.89422 145.167297 71.457809 145.400744 72.045384 145.400744 
z
" clip-path="url(#p08ffc27747)" style="fill: #000080; stroke: #000080; stroke-width: 0.886227"/>
    <path d="M 72.828711 117.522828 
C 73.416286 117.522828 73.979875 117.289382 74.395354 116.873904 
C 74.810832 116.458425 75.044278 115.894836 75.044278 115.307261 
C 75.044278 114.719686 74.810832 114.156097 74.395354 113.740618 
C 73.979875 113.32514 73.416286 113.091694 72.828711 113.091694 
C 72.241136 113.091694 71.677547 113.32514 71.262068 113.740618 
C 70.84659 114.156097 70.613144 114.719686 70.613144 115.307261 
C 70.613144 115.894836 70.84659 116.458425 71.262068 116.873904 
C 71.677547 117.289382 72.241136 117.522828 72.828711 117.522828 
z
" clip-path="url(#p08ffc27747)" style="fill: #000080; stroke: #000080; stroke-width: 0.886227"/>
    <path d="M 73.618642 125.926936 
C 74.206218 125.926936 74.769807 125.69349 75.185285 125.278011 
C 75.600764 124.862533 75.83421 124.298944 75.83421 123.711369 
C 75.83421 123.123793 75.600764 122.560205 75.185285 122.144726 
C 74.769807 121.729248 74.206218 121.495801 73.618642 121.495801 
C 73.031067 121.495801 72.467478 121.729248 72.052 122.144726 
C 71.636521 122.560205 71.403075 123.123793 71.403075 123.711369 
C 71.403075 124.298944 71.636521 124.862533 72.052 125.278011 
C 72.467478 125.69349 73.031067 125.926936 73.618642 125.926936 
z
" clip-path="url(#p08ffc27747)" style="fill: #000080; stroke: #000080; stroke-width: 0.886227"/>
    <path d="M 74.493179 111.699544 
C 75.080754 111.699544 75.644343 111.466098 76.059822 111.05062 
C 76.4753 110.635141 76.708746 110.071552 76.708746 109.483977 
C 76.708746 108.896402 76.4753 108.332813 76.059822 107.917334 
C 75.644343 107.501856 75.080754 107.26841 74.493179 107.26841 
C 73.905604 107.26841 73.342015 107.501856 72.926536 107.917334 
C 72.511058 108.332813 72.277612 108.896402 72.277612 109.483977 
C 72.277612 110.071552 72.511058 110.635141 72.926536 111.05062 
C 73.342015 111.466098 73.905604 111.699544 74.493179 111.699544 
z
" clip-path="url(#p08ffc27747)" style="fill: #000080; stroke: #000080; stroke-width: 0.886227"/>
    <path d="M 75.407111 111.695373 
C 75.994686 111.695373 76.558275 111.461927 76.973754 111.046448 
C 77.389232 110.63097 77.622678 110.067381 77.622678 109.479806 
C 77.622678 108.89223 77.389232 108.328641 76.973754 107.913163 
C 76.558275 107.497684 75.994686 107.264238 75.407111 107.264238 
C 74.819536 107.264238 74.255947 107.497684 73.840468 107.913163 
C 73.42499 108.328641 73.191544 108.89223 73.191544 109.479806 
C 73.191544 110.067381 73.42499 110.63097 73.840468 111.046448 
C 74.255947 111.461927 74.819536 111.695373 75.407111 111.695373 
z
" clip-path="url(#p08ffc27747)" style="fill: #000080; stroke: #000080; stroke-width: 0.886227"/>
    <path d="M 76.41451 78.242803 
C 77.002085 78.242803 77.565674 78.009357 77.981153 77.593878 
C 78.396631 77.1784 78.630077 76.614811 78.630077 76.027236 
C 78.630077 75.43966 78.396631 74.876071 77.981153 74.460593 
C 77.565674 74.045114 77.002085 73.811668 76.41451 73.811668 
C 75.826935 73.811668 75.263346 74.045114 74.847867 74.460593 
C 74.432389 74.876071 74.198943 75.43966 74.198943 76.027236 
C 74.198943 76.614811 74.432389 77.1784 74.847867 77.593878 
C 75.263346 78.009357 75.826935 78.242803 76.41451 78.242803 
z
" clip-path="url(#p08ffc27747)" style="fill: #000080; stroke: #000080; stroke-width: 0.886227"/>
    <path d="M 77.523514 83.420722 
C 78.111089 83.420722 78.674678 83.187276 79.090156 82.771797 
C 79.505635 82.356319 79.739081 81.79273 79.739081 81.205155 
C 79.739081 80.617579 79.505635 80.05399 79.090156 79.638512 
C 78.674678 79.223033 78.111089 78.989587 77.523514 78.989587 
C 76.935938 78.989587 76.372349 79.223033 75.956871 79.638512 
C 75.541392 80.05399 75.307946 80.617579 75.307946 81.205155 
C 75.307946 81.79273 75.541392 82.356319 75.956871 82.771797 
C 76.372349 83.187276 76.935938 83.420722 77.523514 83.420722 
z
" clip-path="url(#p08ffc27747)" style="fill: #000080; stroke: #000080; stroke-width: 0.886227"/>
    <path d="M 78.704076 76.004617 
C 79.291651 76.004617 79.85524 75.771171 80.270718 75.355692 
C 80.686197 74.940214 80.919643 74.376625 80.919643 73.78905 
C 80.919643 73.201474 80.686197 72.637885 80.270718 72.222407 
C 79.85524 71.806928 79.291651 71.573482 78.704076 71.573482 
C 78.1165 71.573482 77.552911 71.806928 77.137433 72.222407 
C 76.721954 72.637885 76.488508 73.201474 76.488508 73.78905 
C 76.488508 74.376625 76.721954 74.940214 77.137433 75.355692 
C 77.552911 75.771171 78.1165 76.004617 78.704076 76.004617 
z
" clip-path="url(#p08ffc27747)" style="fill: #000080; stroke: #000080; stroke-width: 0.886227"/>
    <path d="M 79.947002 77.477812 
C 80.534577 77.477812 81.098166 77.244366 81.513645 76.828887 
C 81.929123 76.413409 82.162569 75.84982 82.162569 75.262245 
C 82.162569 74.674669 81.929123 74.111081 81.513645 73.695602 
C 81.098166 73.280124 80.534577 73.046677 79.947002 73.046677 
C 79.359427 73.046677 78.795838 73.280124 78.380359 73.695602 
C 77.964881 74.111081 77.731435 74.674669 77.731435 75.262245 
C 77.731435 75.84982 77.964881 76.413409 78.380359 76.828887 
C 78.795838 77.244366 79.359427 77.477812 79.947002 77.477812 
z
" clip-path="url(#p08ffc27747)" style="fill: #000080; stroke: #000080; stroke-width: 0.886227"/>
    <path d="M 81.285925 56.243885 
C 81.8735 56.243885 82.437089 56.010439 82.852567 55.59496 
C 83.268046 55.179482 83.501492 54.615893 83.501492 54.028317 
C 83.501492 53.440742 83.268046 52.877153 82.852567 52.461675 
C 82.437089 52.046196 81.8735 51.81275 81.285925 51.81275 
C 80.698349 51.81275 80.13476 52.046196 79.719282 52.461675 
C 79.303803 52.877153 79.070357 53.440742 79.070357 54.028317 
C 79.070357 54.615893 79.303803 55.179482 79.719282 55.59496 
C 80.13476 56.010439 80.698349 56.243885 81.285925 56.243885 
z
" clip-path="url(#p08ffc27747)" style="fill: #000080; stroke: #000080; stroke-width: 0.886227"/>
    <path d="M 82.875833 80.814182 
C 83.463409 80.814182 84.026997 80.580736 84.442476 80.165257 
C 84.857954 79.749779 85.091401 79.18619 85.091401 78.598615 
C 85.091401 78.011039 84.857954 77.447451 84.442476 77.031972 
C 84.026997 76.616494 83.463409 76.383047 82.875833 76.383047 
C 82.288258 76.383047 81.724669 76.616494 81.309191 77.031972 
C 80.893712 77.447451 80.660266 78.011039 80.660266 78.598615 
C 80.660266 79.18619 80.893712 79.749779 81.309191 80.165257 
C 81.724669 80.580736 82.288258 80.814182 82.875833 80.814182 
z
" clip-path="url(#p08ffc27747)" style="fill: #000080; stroke: #000080; stroke-width: 0.886227"/>
    <path d="M 84.833815 36.046412 
C 85.421391 36.046412 85.98498 35.812965 86.400458 35.397487 
C 86.815937 34.982008 87.049383 34.41842 87.049383 33.830844 
C 87.049383 33.243269 86.815937 32.67968 86.400458 32.264202 
C 85.98498 31.848723 85.421391 31.615277 84.833815 31.615277 
C 84.24624 31.615277 83.682651 31.848723 83.267173 32.264202 
C 82.851694 32.67968 82.618248 33.243269 82.618248 33.830844 
C 82.618248 34.41842 82.851694 34.982008 83.267173 35.397487 
C 83.682651 35.812965 84.24624 36.046412 84.833815 36.046412 
z
" clip-path="url(#p08ffc27747)" style="fill: #000080; stroke: #000080; stroke-width: 0.886227"/>
    <path d="M 86.969588 98.203005 
C 87.557163 98.203005 88.120752 97.969559 88.536231 97.554081 
C 88.951709 97.138602 89.185155 96.575013 89.185155 95.987438 
C 89.185155 95.399863 88.951709 94.836274 88.536231 94.420795 
C 88.120752 94.005317 87.557163 93.771871 86.969588 93.771871 
C 86.382013 93.771871 85.818424 94.005317 85.402945 94.420795 
C 84.987467 94.836274 84.754021 95.399863 84.754021 95.987438 
C 84.754021 96.575013 84.987467 97.138602 85.402945 97.554081 
C 85.818424 97.969559 86.382013 98.203005 86.969588 98.203005 
z
" clip-path="url(#p08ffc27747)" style="fill: #000080; stroke: #000080; stroke-width: 0.886227"/>
    <path d="M 89.544575 76.61972 
C 90.132151 76.61972 90.695739 76.386274 91.111218 75.970796 
C 91.526696 75.555317 91.760143 74.991728 91.760143 74.404153 
C 91.760143 73.816578 91.526696 73.252989 91.111218 72.83751 
C 90.695739 72.422032 90.132151 72.188586 89.544575 72.188586 
C 88.957 72.188586 88.393411 72.422032 87.977933 72.83751 
C 87.562454 73.252989 87.329008 73.816578 87.329008 74.404153 
C 87.329008 74.991728 87.562454 75.555317 87.977933 75.970796 
C 88.393411 76.386274 88.957 76.61972 89.544575 76.61972 
z
" clip-path="url(#p08ffc27747)" style="fill: #000080; stroke: #000080; stroke-width: 0.886227"/>
    <path d="M 92.687368 123.242856 
C 93.274943 123.242856 93.838532 123.009409 94.25401 122.593931 
C 94.669489 122.178452 94.902935 121.614864 94.902935 121.027288 
C 94.902935 120.439713 94.669489 119.876124 94.25401 119.460646 
C 93.838532 119.045167 93.274943 118.811721 92.687368 118.811721 
C 92.099792 118.811721 91.536203 119.045167 91.120725 119.460646 
C 90.705246 119.876124 90.4718 120.439713 90.4718 121.027288 
C 90.4718 121.614864 90.705246 122.178452 91.120725 122.593931 
C 91.536203 123.009409 92.099792 123.242856 92.687368 123.242856 
z
" clip-path="url(#p08ffc27747)" style="fill: #000080; stroke: #000080; stroke-width: 0.886227"/>
    <path d="M 97.032981 91.062551 
C 97.620556 91.062551 98.184145 90.829105 98.599624 90.413627 
C 99.015102 89.998148 99.248548 89.434559 99.248548 88.846984 
C 99.248548 88.259409 99.015102 87.69582 98.599624 87.280341 
C 98.184145 86.864863 97.620556 86.631417 97.032981 86.631417 
C 96.445406 86.631417 95.881817 86.864863 95.466338 87.280341 
C 95.05086 87.69582 94.817414 88.259409 94.817414 88.846984 
C 94.817414 89.434559 95.05086 89.998148 95.466338 90.413627 
C 95.881817 90.829105 96.445406 91.062551 97.032981 91.062551 
z
" clip-path="url(#p08ffc27747)" style="fill: #000080; stroke: #000080; stroke-width: 0.886227"/>
    <path d="M 102.144109 121.222095 
C 102.731684 121.222095 103.295273 120.988648 103.710751 120.57317 
C 104.12623 120.157691 104.359676 119.594103 104.359676 119.006527 
C 104.359676 118.418952 104.12623 117.855363 103.710751 117.439885 
C 103.295273 117.024406 102.731684 116.79096 102.144109 116.79096 
C 101.556533 116.79096 100.992945 117.024406 100.577466 117.439885 
C 100.161988 117.855363 99.928541 118.418952 99.928541 119.006527 
C 99.928541 119.594103 100.161988 120.157691 100.577466 120.57317 
C 100.992945 120.988648 101.556533 121.222095 102.144109 121.222095 
z
" clip-path="url(#p08ffc27747)" style="fill: #000080; stroke: #000080; stroke-width: 0.886227"/>
    <path d="M 108.778953 76.159629 
C 109.366529 76.159629 109.930118 75.926183 110.345596 75.510705 
C 110.761075 75.095226 110.994521 74.531637 110.994521 73.944062 
C 110.994521 73.356487 110.761075 72.792898 110.345596 72.377419 
C 109.930118 71.961941 109.366529 71.728495 108.778953 71.728495 
C 108.191378 71.728495 107.627789 71.961941 107.212311 72.377419 
C 106.796832 72.792898 106.563386 73.356487 106.563386 73.944062 
C 106.563386 74.531637 106.796832 75.095226 107.212311 75.510705 
C 107.627789 75.926183 108.191378 76.159629 108.778953 76.159629 
z
" clip-path="url(#p08ffc27747)" style="fill: #000080; stroke: #000080; stroke-width: 0.886227"/>
    <path d="M 120.250807 76.21422 
C 120.838383 76.21422 121.401971 75.980774 121.81745 75.565296 
C 122.232928 75.149817 122.466375 74.586228 122.466375 73.998653 
C 122.466375 73.411078 122.232928 72.847489 121.81745 72.43201 
C 121.401971 72.016532 120.838383 71.783086 120.250807 71.783086 
C 119.663232 71.783086 119.099643 72.016532 118.684165 72.43201 
C 118.268686 72.847489 118.03524 73.411078 118.03524 73.998653 
C 118.03524 74.586228 118.268686 75.149817 118.684165 75.565296 
C 119.099643 75.980774 119.663232 76.21422 120.250807 76.21422 
z
" clip-path="url(#p08ffc27747)" style="fill: #000080; stroke: #000080; stroke-width: 0.886227"/>
    <path d="M 155.693803 78.613287 
C 156.281379 78.613287 156.844968 78.379841 157.260446 77.964362 
C 157.675924 77.548884 157.909371 76.985295 157.909371 76.39772 
C 157.909371 75.810144 157.675924 75.246555 157.260446 74.831077 
C 156.844968 74.415598 156.281379 74.182152 155.693803 74.182152 
C 155.106228 74.182152 154.542639 74.415598 154.127161 74.831077 
C 153.711682 75.246555 153.478236 75.810144 153.478236 76.39772 
C 153.478236 76.985295 153.711682 77.548884 154.127161 77.964362 
C 154.542639 78.379841 155.106228 78.613287 155.693803 78.613287 
z
" clip-path="url(#p08ffc27747)" style="fill: #000080; stroke: #000080; stroke-width: 0.886227"/>
   </g>
   <g id="LineCollection_1">
    <path d="M 66.45442 261.216 
" clip-path="url(#p08ffc27747)" style="fill: none; stroke: #000080; stroke-width: 0.886227"/>
    <path d="M 66.045949 220.807595 
L 66.846761 220.807595 
" clip-path="url(#p08ffc27747)" style="fill: none; stroke: #000080; stroke-width: 0.886227"/>
    <path d="M 66.489363 216.07509 
L 67.290175 216.07509 
" clip-path="url(#p08ffc27747)" style="fill: none; stroke: #000080; stroke-width: 0.886227"/>
    <path d="M 66.958479 215.820776 
L 67.759291 215.820776 
" clip-path="url(#p08ffc27747)" style="fill: none; stroke: #000080; stroke-width: 0.886227"/>
    <path d="M 67.43481 210.512718 
L 68.235622 210.512718 
" clip-path="url(#p08ffc27747)" style="fill: none; stroke: #000080; stroke-width: 0.886227"/>
    <path d="M 67.908352 201.722763 
L 68.709164 201.722763 
" clip-path="url(#p08ffc27747)" style="fill: none; stroke: #000080; stroke-width: 0.886227"/>
    <path d="M 68.439585 205.612047 
L 69.240396 205.612047 
" clip-path="url(#p08ffc27747)" style="fill: none; stroke: #000080; stroke-width: 0.886227"/>
    <path d="M 69.05553 172.705315 
L 69.856342 172.705315 
" clip-path="url(#p08ffc27747)" style="fill: none; stroke: #000080; stroke-width: 0.886227"/>
    <path d="M 69.690758 175.564474 
L 70.49157 175.564474 
" clip-path="url(#p08ffc27747)" style="fill: none; stroke: #000080; stroke-width: 0.886227"/>
    <path d="M 70.313292 152.839875 
L 71.114103 152.839875 
" clip-path="url(#p08ffc27747)" style="fill: none; stroke: #000080; stroke-width: 0.886227"/>
    <path d="M 70.940628 162.941165 
L 71.74144 162.941165 
" clip-path="url(#p08ffc27747)" style="fill: none; stroke: #000080; stroke-width: 0.886227"/>
    <path d="M 71.644978 166.461408 
L 72.44579 166.461408 
" clip-path="url(#p08ffc27747)" style="fill: none; stroke: #000080; stroke-width: 0.886227"/>
    <path d="M 72.428305 145.289707 
L 73.229117 145.289707 
" clip-path="url(#p08ffc27747)" style="fill: none; stroke: #000080; stroke-width: 0.886227"/>
    <path d="M 73.218237 141.049609 
L 74.019048 141.049609 
" clip-path="url(#p08ffc27747)" style="fill: none; stroke: #000080; stroke-width: 0.886227"/>
    <path d="M 74.092773 132.690206 
L 74.893585 132.690206 
" clip-path="url(#p08ffc27747)" style="fill: none; stroke: #000080; stroke-width: 0.886227"/>
    <path d="M 75.006705 141.284983 
L 75.807517 141.284983 
" clip-path="url(#p08ffc27747)" style="fill: none; stroke: #000080; stroke-width: 0.886227"/>
    <path d="M 76.014104 116.344291 
L 76.814916 116.344291 
" clip-path="url(#p08ffc27747)" style="fill: none; stroke: #000080; stroke-width: 0.886227"/>
    <path d="M 77.123108 96.998212 
L 77.92392 96.998212 
" clip-path="url(#p08ffc27747)" style="fill: none; stroke: #000080; stroke-width: 0.886227"/>
    <path d="M 78.30367 114.331205 
L 79.104481 114.331205 
" clip-path="url(#p08ffc27747)" style="fill: none; stroke: #000080; stroke-width: 0.886227"/>
    <path d="M 79.546596 96.10781 
L 80.347408 96.10781 
" clip-path="url(#p08ffc27747)" style="fill: none; stroke: #000080; stroke-width: 0.886227"/>
    <path d="M 80.885519 87.666807 
L 81.686331 87.666807 
" clip-path="url(#p08ffc27747)" style="fill: none; stroke: #000080; stroke-width: 0.886227"/>
    <path d="M 82.475427 106.55571 
L 83.276239 106.55571 
" clip-path="url(#p08ffc27747)" style="fill: none; stroke: #000080; stroke-width: 0.886227"/>
    <path d="M 84.43341 84.124962 
L 85.234221 84.124962 
" clip-path="url(#p08ffc27747)" style="fill: none; stroke: #000080; stroke-width: 0.886227"/>
    <path d="M 86.569182 100.902732 
L 87.369994 100.902732 
" clip-path="url(#p08ffc27747)" style="fill: none; stroke: #000080; stroke-width: 0.886227"/>
    <path d="M 89.144169 120.969002 
L 89.944981 120.969002 
" clip-path="url(#p08ffc27747)" style="fill: none; stroke: #000080; stroke-width: 0.886227"/>
    <path d="M 92.286962 133.679226 
L 93.087773 133.679226 
" clip-path="url(#p08ffc27747)" style="fill: none; stroke: #000080; stroke-width: 0.886227"/>
    <path d="M 96.632575 130.702679 
L 97.433387 130.702679 
" clip-path="url(#p08ffc27747)" style="fill: none; stroke: #000080; stroke-width: 0.886227"/>
    <path d="M 101.743703 133.836681 
L 102.544515 133.836681 
" clip-path="url(#p08ffc27747)" style="fill: none; stroke: #000080; stroke-width: 0.886227"/>
    <path d="M 108.378548 112.70919 
L 109.179359 112.70919 
" clip-path="url(#p08ffc27747)" style="fill: none; stroke: #000080; stroke-width: 0.886227"/>
    <path d="M 119.850401 93.241867 
L 120.651213 93.241867 
" clip-path="url(#p08ffc27747)" style="fill: none; stroke: #000080; stroke-width: 0.886227"/>
    <path d="M 155.293397 142.54935 
L 156.094209 142.54935 
" clip-path="url(#p08ffc27747)" style="fill: none; stroke: #000080; stroke-width: 0.886227"/>
    <path d="M 66.45442 221.626332 
" clip-path="url(#p08ffc27747)" style="fill: none; stroke: #000080; stroke-width: 0.886227"/>
    <path d="M 66.045949 188.361789 
L 66.846761 188.361789 
" clip-path="url(#p08ffc27747)" style="fill: none; stroke: #000080; stroke-width: 0.886227"/>
    <path d="M 66.489363 182.423811 
L 67.290175 182.423811 
" clip-path="url(#p08ffc27747)" style="fill: none; stroke: #000080; stroke-width: 0.886227"/>
    <path d="M 66.958479 183.187627 
L 67.759291 183.187627 
" clip-path="url(#p08ffc27747)" style="fill: none; stroke: #000080; stroke-width: 0.886227"/>
    <path d="M 67.43481 167.342308 
L 68.235622 167.342308 
" clip-path="url(#p08ffc27747)" style="fill: none; stroke: #000080; stroke-width: 0.886227"/>
    <path d="M 67.908352 163.651704 
L 68.709164 163.651704 
" clip-path="url(#p08ffc27747)" style="fill: none; stroke: #000080; stroke-width: 0.886227"/>
    <path d="M 68.439585 166.14157 
L 69.240396 166.14157 
" clip-path="url(#p08ffc27747)" style="fill: none; stroke: #000080; stroke-width: 0.886227"/>
    <path d="M 69.05553 132.435782 
L 69.856342 132.435782 
" clip-path="url(#p08ffc27747)" style="fill: none; stroke: #000080; stroke-width: 0.886227"/>
    <path d="M 69.690758 130.519139 
L 70.49157 130.519139 
" clip-path="url(#p08ffc27747)" style="fill: none; stroke: #000080; stroke-width: 0.886227"/>
    <path d="M 70.313292 96.97 
L 71.114103 96.97 
" clip-path="url(#p08ffc27747)" style="fill: none; stroke: #000080; stroke-width: 0.886227"/>
    <path d="M 70.940628 102.236075 
L 71.74144 102.236075 
" clip-path="url(#p08ffc27747)" style="fill: none; stroke: #000080; stroke-width: 0.886227"/>
    <path d="M 71.644978 120.237989 
L 72.44579 120.237989 
" clip-path="url(#p08ffc27747)" style="fill: none; stroke: #000080; stroke-width: 0.886227"/>
    <path d="M 72.428305 93.273436 
L 73.229117 93.273436 
" clip-path="url(#p08ffc27747)" style="fill: none; stroke: #000080; stroke-width: 0.886227"/>
    <path d="M 73.218237 87.406763 
L 74.019048 87.406763 
" clip-path="url(#p08ffc27747)" style="fill: none; stroke: #000080; stroke-width: 0.886227"/>
    <path d="M 74.092773 77.509239 
L 74.893585 77.509239 
" clip-path="url(#p08ffc27747)" style="fill: none; stroke: #000080; stroke-width: 0.886227"/>
    <path d="M 75.006705 89.471757 
L 75.807517 89.471757 
" clip-path="url(#p08ffc27747)" style="fill: none; stroke: #000080; stroke-width: 0.886227"/>
    <path d="M 76.014104 61.644196 
L 76.814916 61.644196 
" clip-path="url(#p08ffc27747)" style="fill: none; stroke: #000080; stroke-width: 0.886227"/>
    <path d="M 77.123108 42.093063 
L 77.92392 42.093063 
" clip-path="url(#p08ffc27747)" style="fill: none; stroke: #000080; stroke-width: 0.886227"/>
    <path d="M 78.30367 53.541173 
L 79.104481 53.541173 
" clip-path="url(#p08ffc27747)" style="fill: none; stroke: #000080; stroke-width: 0.886227"/>
    <path d="M 79.546596 36.103572 
L 80.347408 36.103572 
" clip-path="url(#p08ffc27747)" style="fill: none; stroke: #000080; stroke-width: 0.886227"/>
    <path d="M 80.885519 26.01887 
L 81.686331 26.01887 
" clip-path="url(#p08ffc27747)" style="fill: none; stroke: #000080; stroke-width: 0.886227"/>
    <path d="M 82.475427 43.864625 
L 83.276239 43.864625 
" clip-path="url(#p08ffc27747)" style="fill: none; stroke: #000080; stroke-width: 0.886227"/>
    <path d="M 84.43341 19.296 
L 85.234221 19.296 
" clip-path="url(#p08ffc27747)" style="fill: none; stroke: #000080; stroke-width: 0.886227"/>
    <path d="M 86.569182 42.737801 
L 87.369994 42.737801 
" clip-path="url(#p08ffc27747)" style="fill: none; stroke: #000080; stroke-width: 0.886227"/>
    <path d="M 89.144169 62.424836 
L 89.944981 62.424836 
" clip-path="url(#p08ffc27747)" style="fill: none; stroke: #000080; stroke-width: 0.886227"/>
    <path d="M 92.286962 77.718291 
L 93.087773 77.718291 
" clip-path="url(#p08ffc27747)" style="fill: none; stroke: #000080; stroke-width: 0.886227"/>
    <path d="M 96.632575 74.016499 
L 97.433387 74.016499 
" clip-path="url(#p08ffc27747)" style="fill: none; stroke: #000080; stroke-width: 0.886227"/>
    <path d="M 101.743703 78.761726 
L 102.544515 78.761726 
" clip-path="url(#p08ffc27747)" style="fill: none; stroke: #000080; stroke-width: 0.886227"/>
    <path d="M 108.378548 50.65797 
L 109.179359 50.65797 
" clip-path="url(#p08ffc27747)" style="fill: none; stroke: #000080; stroke-width: 0.886227"/>
    <path d="M 119.850401 28.599695 
L 120.651213 28.599695 
" clip-path="url(#p08ffc27747)" style="fill: none; stroke: #000080; stroke-width: 0.886227"/>
    <path d="M 155.293397 63.622962 
L 156.094209 63.622962 
" clip-path="url(#p08ffc27747)" style="fill: none; stroke: #000080; stroke-width: 0.886227"/>
    <path d="M 66.054014 221.626332 
L 66.054014 261.216 
" clip-path="url(#p08ffc27747)" style="fill: none; stroke: #000080; stroke-width: 0.886227"/>
    <path d="M 66.446355 188.361789 
L 66.446355 220.807595 
" clip-path="url(#p08ffc27747)" style="fill: none; stroke: #000080; stroke-width: 0.886227"/>
    <path d="M 66.889769 182.423811 
L 66.889769 216.07509 
" clip-path="url(#p08ffc27747)" style="fill: none; stroke: #000080; stroke-width: 0.886227"/>
    <path d="M 67.358885 183.187627 
L 67.358885 215.820776 
" clip-path="url(#p08ffc27747)" style="fill: none; stroke: #000080; stroke-width: 0.886227"/>
    <path d="M 67.835216 167.342308 
L 67.835216 210.512718 
" clip-path="url(#p08ffc27747)" style="fill: none; stroke: #000080; stroke-width: 0.886227"/>
    <path d="M 68.308758 163.651704 
L 68.308758 201.722763 
" clip-path="url(#p08ffc27747)" style="fill: none; stroke: #000080; stroke-width: 0.886227"/>
    <path d="M 68.83999 166.14157 
L 68.83999 205.612047 
" clip-path="url(#p08ffc27747)" style="fill: none; stroke: #000080; stroke-width: 0.886227"/>
    <path d="M 69.455936 132.435782 
L 69.455936 172.705315 
" clip-path="url(#p08ffc27747)" style="fill: none; stroke: #000080; stroke-width: 0.886227"/>
    <path d="M 70.091164 130.519139 
L 70.091164 175.564474 
" clip-path="url(#p08ffc27747)" style="fill: none; stroke: #000080; stroke-width: 0.886227"/>
    <path d="M 70.713698 96.97 
L 70.713698 152.839875 
" clip-path="url(#p08ffc27747)" style="fill: none; stroke: #000080; stroke-width: 0.886227"/>
    <path d="M 71.341034 102.236075 
L 71.341034 162.941165 
" clip-path="url(#p08ffc27747)" style="fill: none; stroke: #000080; stroke-width: 0.886227"/>
    <path d="M 72.045384 120.237989 
L 72.045384 166.461408 
" clip-path="url(#p08ffc27747)" style="fill: none; stroke: #000080; stroke-width: 0.886227"/>
    <path d="M 72.828711 93.273436 
L 72.828711 145.289707 
" clip-path="url(#p08ffc27747)" style="fill: none; stroke: #000080; stroke-width: 0.886227"/>
    <path d="M 73.618642 87.406763 
L 73.618642 141.049609 
" clip-path="url(#p08ffc27747)" style="fill: none; stroke: #000080; stroke-width: 0.886227"/>
    <path d="M 74.493179 77.509239 
L 74.493179 132.690206 
" clip-path="url(#p08ffc27747)" style="fill: none; stroke: #000080; stroke-width: 0.886227"/>
    <path d="M 75.407111 89.471757 
L 75.407111 141.284983 
" clip-path="url(#p08ffc27747)" style="fill: none; stroke: #000080; stroke-width: 0.886227"/>
    <path d="M 76.41451 61.644196 
L 76.41451 116.344291 
" clip-path="url(#p08ffc27747)" style="fill: none; stroke: #000080; stroke-width: 0.886227"/>
    <path d="M 77.523514 42.093063 
L 77.523514 96.998212 
" clip-path="url(#p08ffc27747)" style="fill: none; stroke: #000080; stroke-width: 0.886227"/>
    <path d="M 78.704076 53.541173 
L 78.704076 114.331205 
" clip-path="url(#p08ffc27747)" style="fill: none; stroke: #000080; stroke-width: 0.886227"/>
    <path d="M 79.947002 36.103572 
L 79.947002 96.10781 
" clip-path="url(#p08ffc27747)" style="fill: none; stroke: #000080; stroke-width: 0.886227"/>
    <path d="M 81.285925 26.01887 
L 81.285925 87.666807 
" clip-path="url(#p08ffc27747)" style="fill: none; stroke: #000080; stroke-width: 0.886227"/>
    <path d="M 82.875833 43.864625 
L 82.875833 106.55571 
" clip-path="url(#p08ffc27747)" style="fill: none; stroke: #000080; stroke-width: 0.886227"/>
    <path d="M 84.833815 19.296 
L 84.833815 84.124962 
" clip-path="url(#p08ffc27747)" style="fill: none; stroke: #000080; stroke-width: 0.886227"/>
    <path d="M 86.969588 42.737801 
L 86.969588 100.902732 
" clip-path="url(#p08ffc27747)" style="fill: none; stroke: #000080; stroke-width: 0.886227"/>
    <path d="M 89.544575 62.424836 
L 89.544575 120.969002 
" clip-path="url(#p08ffc27747)" style="fill: none; stroke: #000080; stroke-width: 0.886227"/>
    <path d="M 92.687368 77.718291 
L 92.687368 133.679226 
" clip-path="url(#p08ffc27747)" style="fill: none; stroke: #000080; stroke-width: 0.886227"/>
    <path d="M 97.032981 74.016499 
L 97.032981 130.702679 
" clip-path="url(#p08ffc27747)" style="fill: none; stroke: #000080; stroke-width: 0.886227"/>
    <path d="M 102.144109 78.761726 
L 102.144109 133.836681 
" clip-path="url(#p08ffc27747)" style="fill: none; stroke: #000080; stroke-width: 0.886227"/>
    <path d="M 108.778953 50.65797 
L 108.778953 112.70919 
" clip-path="url(#p08ffc27747)" style="fill: none; stroke: #000080; stroke-width: 0.886227"/>
    <path d="M 120.250807 28.599695 
L 120.250807 93.241867 
" clip-path="url(#p08ffc27747)" style="fill: none; stroke: #000080; stroke-width: 0.886227"/>
    <path d="M 155.693803 63.622962 
L 155.693803 142.54935 
" clip-path="url(#p08ffc27747)" style="fill: none; stroke: #000080; stroke-width: 0.886227"/>
   </g>
  </g>
 </g>
 <defs>
  <clipPath id="p08ffc27747">
   <rect x="49.635938" y="7.2" width="357.12" height="266.112"/>
  </clipPath>
 </defs>
</svg>