<?xml version="1.0" encoding="utf-8" standalone="no"?>
<!DOCTYPE svg PUBLIC "-//W3C//DTD SVG 1.1//EN"
  "http://www.w3.org/Graphics/SVG/1.1/DTD/svg11.dtd">
<svg xmlns:xlink="http://www.w3.org/1999/xlink" width="584.39952pt" height="368.39952pt" viewBox="0 0 584.39952 368.39952" xmlns="http://www.w3.org/2000/svg" version="1.1">
 <metadata>
  <rdf:RDF xmlns:dc="http://purl.org/dc/elements/1.1/" xmlns:cc="http://creativecommons.org/ns#" xmlns:rdf="http://www.w3.org/1999/02/22-rdf-syntax-ns#">
   <cc:Work>
    <dc:type rdf:resource="http://purl.org/dc/dcmitype/StillImage"/>
    <dc:date>2023-09-07T18:49:17.189705</dc:date>
    <dc:format>image/svg+xml</dc:format>
    <dc:creator>
     <cc:Agent>
      <dc:title>Matplotlib v3.7.2, https://matplotlib.org/</dc:title>
     </cc:Agent>
    </dc:creator>
   </cc:Work>
  </rdf:RDF>
 </metadata>
 <defs>
  <style type="text/css">*{stroke-linejoin: round; stroke-linecap: butt}</style>
 </defs>
 <g id="figure_1">
  <g id="patch_1">
   <path d="M 0 368.39952 
L 584.39952 368.39952 
L 584.39952 0 
L 0 0 
z
" style="fill: #ffffff"/>
  </g>
  <g id="axes_1">
   <g id="patch_2">
    <path d="M 16.613501 341.144078 
L 567.786019 341.144078 
L 567.786019 24.956118 
L 16.613501 24.956118 
z
" style="fill: #eeeeee"/>
   </g>
   <g id="matplotlib.axis_1">
    <g id="xtick_1">
     <g id="line2d_1">
      <path d="M 16.613501 341.144078 
L 16.613501 24.956118 
" clip-path="url(#pede3953bc3)" style="fill: none; stroke: #ffffff; stroke-width: 0.8; stroke-linecap: round"/>
     </g>
     <g id="line2d_2">
      <defs>
       <path id="m4eb077271f" d="M 0 0 
L 0 3 
" style="stroke: #808080"/>
      </defs>
      <g>
       <use xlink:href="#m4eb077271f" x="16.613501" y="341.144078" style="fill: #808080; stroke: #808080"/>
      </g>
     </g>
     <g id="text_1">
      <!-- $\mathdefault{0.4}$ -->
      <g style="fill: #262626" transform="translate(7.2 357.930682) scale(0.150616 -0.150616)">
       <defs>
        <path id="STIXGeneral-Regular-30" d="M 3046 2112 
Q 3046 1683 2963 1302 
Q 2880 922 2717 602 
Q 2554 282 2266 96 
Q 1978 -90 1600 -90 
Q 1210 -90 915 108 
Q 621 307 461 640 
Q 301 973 227 1350 
Q 154 1728 154 2150 
Q 154 2746 301 3222 
Q 448 3699 790 4012 
Q 1133 4326 1626 4326 
Q 2253 4326 2649 3712 
Q 3046 3098 3046 2112 
z
M 2432 2080 
Q 2432 3091 2217 3625 
Q 2003 4160 1587 4160 
Q 1190 4160 979 3622 
Q 768 3085 768 2106 
Q 768 1120 979 598 
Q 1190 77 1600 77 
Q 2003 77 2217 598 
Q 2432 1120 2432 2080 
z
" transform="scale(0.015625)"/>
        <path id="STIXGeneral-Regular-2e" d="M 1158 275 
Q 1158 134 1052 32 
Q 947 -70 800 -70 
Q 653 -70 550 32 
Q 448 134 448 281 
Q 448 429 553 534 
Q 659 640 806 640 
Q 947 640 1052 531 
Q 1158 422 1158 275 
z
" transform="scale(0.015625)"/>
        <path id="STIXGeneral-Regular-34" d="M 3027 1069 
L 2368 1069 
L 2368 0 
L 1869 0 
L 1869 1069 
L 77 1069 
L 77 1478 
L 2086 4326 
L 2368 4326 
L 2368 1478 
L 3027 1478 
L 3027 1069 
z
M 1869 1478 
L 1869 3674 
L 333 1478 
L 1869 1478 
z
" transform="scale(0.015625)"/>
       </defs>
       <use xlink:href="#STIXGeneral-Regular-30" transform="translate(0 0.40625)"/>
       <use xlink:href="#STIXGeneral-Regular-2e" transform="translate(49.999985 0.40625)"/>
       <use xlink:href="#STIXGeneral-Regular-34" transform="translate(74.999969 0.40625)"/>
      </g>
     </g>
    </g>
    <g id="xtick_2">
     <g id="line2d_3">
      <path d="M 108.475587 341.144078 
L 108.475587 24.956118 
" clip-path="url(#pede3953bc3)" style="fill: none; stroke: #ffffff; stroke-width: 0.8; stroke-linecap: round"/>
     </g>
     <g id="line2d_4">
      <g>
       <use xlink:href="#m4eb077271f" x="108.475587" y="341.144078" style="fill: #808080; stroke: #808080"/>
      </g>
     </g>
     <g id="text_2">
      <!-- $\mathdefault{0.6}$ -->
      <g style="fill: #262626" transform="translate(99.062086 357.930682) scale(0.150616 -0.150616)">
       <defs>
        <path id="STIXGeneral-Regular-36" d="M 2854 4378 
L 2867 4275 
Q 2112 4154 1606 3664 
Q 1101 3174 973 2451 
Q 1344 2739 1786 2739 
Q 2349 2739 2672 2380 
Q 2995 2022 2995 1402 
Q 2995 774 2669 378 
Q 2291 -90 1651 -90 
Q 870 -90 518 557 
Q 218 1107 218 1786 
Q 218 2835 915 3552 
Q 1312 3962 1731 4131 
Q 2150 4301 2854 4378 
z
M 2419 1203 
Q 2419 2445 1555 2445 
Q 1235 2445 1024 2275 
Q 813 2106 813 1702 
Q 813 954 1046 522 
Q 1280 90 1722 90 
Q 2061 90 2240 394 
Q 2419 698 2419 1203 
z
" transform="scale(0.015625)"/>
       </defs>
       <use xlink:href="#STIXGeneral-Regular-30" transform="translate(0 0.59375)"/>
       <use xlink:href="#STIXGeneral-Regular-2e" transform="translate(49.999985 0.59375)"/>
       <use xlink:href="#STIXGeneral-Regular-36" transform="translate(74.999969 0.59375)"/>
      </g>
     </g>
    </g>
    <g id="xtick_3">
     <g id="line2d_5">
      <path d="M 200.337674 341.144078 
L 200.337674 24.956118 
" clip-path="url(#pede3953bc3)" style="fill: none; stroke: #ffffff; stroke-width: 0.8; stroke-linecap: round"/>
     </g>
     <g id="line2d_6">
      <g>
       <use xlink:href="#m4eb077271f" x="200.337674" y="341.144078" style="fill: #808080; stroke: #808080"/>
      </g>
     </g>
     <g id="text_3">
      <!-- $\mathdefault{0.8}$ -->
      <g style="fill: #262626" transform="translate(190.924173 357.930682) scale(0.150616 -0.150616)">
       <defs>
        <path id="STIXGeneral-Regular-38" d="M 2848 992 
Q 2848 499 2505 204 
Q 2163 -90 1587 -90 
Q 1050 -90 704 204 
Q 358 499 358 954 
Q 358 1293 524 1533 
Q 691 1773 1190 2125 
Q 710 2522 553 2765 
Q 397 3008 397 3328 
Q 397 3782 745 4054 
Q 1094 4326 1638 4326 
Q 2106 4326 2410 4060 
Q 2714 3795 2714 3411 
Q 2714 3059 2531 2848 
Q 2349 2637 1856 2374 
Q 2432 1990 2640 1689 
Q 2848 1389 2848 992 
z
M 2272 3411 
Q 2272 3744 2086 3945 
Q 1901 4147 1574 4147 
Q 1248 4147 1059 3977 
Q 870 3808 870 3513 
Q 870 3219 1059 2979 
Q 1248 2739 1670 2490 
Q 1997 2682 2134 2896 
Q 2272 3110 2272 3411 
z
M 1734 1741 
L 1357 1997 
Q 1075 1766 960 1545 
Q 845 1325 845 1011 
Q 845 576 1065 333 
Q 1286 90 1658 90 
Q 1971 90 2166 285 
Q 2362 480 2362 794 
Q 2362 1082 2214 1299 
Q 2067 1517 1734 1741 
z
" transform="scale(0.015625)"/>
       </defs>
       <use xlink:href="#STIXGeneral-Regular-30" transform="translate(0 0.40625)"/>
       <use xlink:href="#STIXGeneral-Regular-2e" transform="translate(49.999985 0.40625)"/>
       <use xlink:href="#STIXGeneral-Regular-38" transform="translate(74.999969 0.40625)"/>
      </g>
     </g>
    </g>
    <g id="xtick_4">
     <g id="line2d_7">
      <path d="M 292.19976 341.144078 
L 292.19976 24.956118 
" clip-path="url(#pede3953bc3)" style="fill: none; stroke: #ffffff; stroke-width: 0.8; stroke-linecap: round"/>
     </g>
     <g id="line2d_8">
      <g>
       <use xlink:href="#m4eb077271f" x="292.19976" y="341.144078" style="fill: #808080; stroke: #808080"/>
      </g>
     </g>
     <g id="text_4">
      <!-- $\mathdefault{1.0}$ -->
      <g style="fill: #262626" transform="translate(282.786259 357.930682) scale(0.150616 -0.150616)">
       <defs>
        <path id="STIXGeneral-Regular-31" d="M 2522 0 
L 755 0 
L 755 96 
Q 1107 115 1235 227 
Q 1363 339 1363 608 
L 1363 3482 
Q 1363 3795 1171 3795 
Q 1082 3795 883 3718 
L 710 3654 
L 710 3744 
L 1856 4326 
L 1914 4307 
L 1914 486 
Q 1914 275 2042 185 
Q 2170 96 2522 96 
L 2522 0 
z
" transform="scale(0.015625)"/>
       </defs>
       <use xlink:href="#STIXGeneral-Regular-31" transform="translate(0 0.40625)"/>
       <use xlink:href="#STIXGeneral-Regular-2e" transform="translate(49.999985 0.40625)"/>
       <use xlink:href="#STIXGeneral-Regular-30" transform="translate(74.999969 0.40625)"/>
      </g>
     </g>
    </g>
    <g id="xtick_5">
     <g id="line2d_9">
      <path d="M 384.061846 341.144078 
L 384.061846 24.956118 
" clip-path="url(#pede3953bc3)" style="fill: none; stroke: #ffffff; stroke-width: 0.8; stroke-linecap: round"/>
     </g>
     <g id="line2d_10">
      <g>
       <use xlink:href="#m4eb077271f" x="384.061846" y="341.144078" style="fill: #808080; stroke: #808080"/>
      </g>
     </g>
     <g id="text_5">
      <!-- $\mathdefault{1.2}$ -->
      <g style="fill: #262626" transform="translate(374.648345 357.930682) scale(0.150616 -0.150616)">
       <defs>
        <path id="STIXGeneral-Regular-32" d="M 3034 877 
L 2688 0 
L 186 0 
L 186 77 
L 1325 1286 
Q 1773 1754 1965 2144 
Q 2157 2534 2157 2950 
Q 2157 3379 1920 3616 
Q 1683 3853 1267 3853 
Q 922 3853 720 3673 
Q 518 3494 326 3021 
L 192 3053 
Q 301 3648 630 3987 
Q 960 4326 1523 4326 
Q 2054 4326 2380 4006 
Q 2707 3686 2707 3200 
Q 2707 2477 1888 1613 
L 832 486 
L 2330 486 
Q 2541 486 2665 569 
Q 2790 653 2944 915 
L 3034 877 
z
" transform="scale(0.015625)"/>
       </defs>
       <use xlink:href="#STIXGeneral-Regular-31" transform="translate(0 0.40625)"/>
       <use xlink:href="#STIXGeneral-Regular-2e" transform="translate(49.999985 0.40625)"/>
       <use xlink:href="#STIXGeneral-Regular-32" transform="translate(74.999969 0.40625)"/>
      </g>
     </g>
    </g>
    <g id="xtick_6">
     <g id="line2d_11">
      <path d="M 475.923933 341.144078 
L 475.923933 24.956118 
" clip-path="url(#pede3953bc3)" style="fill: none; stroke: #ffffff; stroke-width: 0.8; stroke-linecap: round"/>
     </g>
     <g id="line2d_12">
      <g>
       <use xlink:href="#m4eb077271f" x="475.923933" y="341.144078" style="fill: #808080; stroke: #808080"/>
      </g>
     </g>
     <g id="text_6">
      <!-- $\mathdefault{1.4}$ -->
      <g style="fill: #262626" transform="translate(466.510431 357.930682) scale(0.150616 -0.150616)">
       <use xlink:href="#STIXGeneral-Regular-31" transform="translate(0 0.40625)"/>
       <use xlink:href="#STIXGeneral-Regular-2e" transform="translate(49.999985 0.40625)"/>
       <use xlink:href="#STIXGeneral-Regular-34" transform="translate(74.999969 0.40625)"/>
      </g>
     </g>
    </g>
    <g id="xtick_7">
     <g id="line2d_13">
      <path d="M 567.786019 341.144078 
L 567.786019 24.956118 
" clip-path="url(#pede3953bc3)" style="fill: none; stroke: #ffffff; stroke-width: 0.8; stroke-linecap: round"/>
     </g>
     <g id="line2d_14">
      <g>
       <use xlink:href="#m4eb077271f" x="567.786019" y="341.144078" style="fill: #808080; stroke: #808080"/>
      </g>
     </g>
     <g id="text_7">
      <!-- $\mathdefault{1.6}$ -->
      <g style="fill: #262626" transform="translate(558.372518 357.930682) scale(0.150616 -0.150616)">
       <use xlink:href="#STIXGeneral-Regular-31" transform="translate(0 0.59375)"/>
       <use xlink:href="#STIXGeneral-Regular-2e" transform="translate(49.999985 0.59375)"/>
       <use xlink:href="#STIXGeneral-Regular-36" transform="translate(74.999969 0.59375)"/>
      </g>
     </g>
    </g>
   </g>
   <g id="matplotlib.axis_2"/>
   <g id="PolyCollection_1">
    <defs>
     <path id="m58ce422895" d="M 84.9586 -41.627622 
L 84.9586 -44.450532 
L 85.793635 -44.451292 
L 86.62867 -44.458891 
L 87.463704 -44.463667 
L 88.298739 -44.470082 
L 89.133773 -44.478122 
L 89.968808 -44.487765 
L 90.803843 -44.509625 
L 91.638877 -44.524368 
L 92.473912 -44.551564 
L 93.308946 -44.577225 
L 94.143981 -44.596187 
L 94.979016 -44.618147 
L 95.81405 -44.652815 
L 96.649085 -44.685281 
L 97.48412 -44.720086 
L 98.319154 -44.767948 
L 99.154189 -44.814963 
L 99.989223 -44.87117 
L 100.824258 -44.921867 
L 101.659293 -44.976153 
L 102.494327 -45.029733 
L 103.329362 -45.092447 
L 104.164397 -45.164493 
L 104.999431 -45.236422 
L 105.834466 -45.318242 
L 106.6695 -45.416497 
L 107.504535 -45.517596 
L 108.33957 -45.621264 
L 109.174604 -45.727123 
L 110.009639 -45.839992 
L 110.844673 -45.960221 
L 111.679708 -46.083687 
L 112.514743 -46.241679 
L 113.349777 -46.406587 
L 114.184812 -46.567725 
L 115.019847 -46.734442 
L 115.854881 -46.922119 
L 116.689916 -47.126805 
L 117.52495 -47.339349 
L 118.359985 -47.559378 
L 119.19502 -47.796991 
L 120.030054 -48.058759 
L 120.865089 -48.331058 
L 121.700124 -48.61883 
L 122.535158 -48.91187 
L 123.370193 -49.224551 
L 124.205227 -49.56323 
L 125.040262 -49.903403 
L 125.875297 -50.258409 
L 126.710331 -50.644064 
L 127.545366 -51.031184 
L 128.3804 -51.438208 
L 129.215435 -51.860432 
L 130.05047 -52.302867 
L 130.885504 -52.755475 
L 131.720539 -53.223131 
L 132.555574 -53.711511 
L 133.390608 -54.209573 
L 134.225643 -54.72036 
L 135.060677 -55.269855 
L 135.895712 -55.80381 
L 136.730747 -56.358882 
L 137.565781 -56.914923 
L 138.400816 -57.501287 
L 139.235851 -58.07846 
L 140.070885 -58.67406 
L 140.90592 -59.289147 
L 141.740954 -59.914425 
L 142.575989 -60.533608 
L 143.411024 -61.164728 
L 144.246058 -61.808096 
L 145.081093 -62.458871 
L 145.916127 -63.106082 
L 146.751162 -63.768753 
L 147.586197 -64.421731 
L 148.421231 -65.088441 
L 149.256266 -65.744504 
L 150.091301 -66.413259 
L 150.926335 -67.089816 
L 151.76137 -67.774763 
L 152.596404 -68.453742 
L 153.431439 -69.140687 
L 154.266474 -69.862052 
L 155.101508 -70.570463 
L 155.936543 -71.273416 
L 156.771578 -72.006507 
L 157.606612 -72.716244 
L 158.441647 -73.42946 
L 159.276681 -74.146182 
L 160.111716 -74.882391 
L 160.946751 -75.609143 
L 161.781785 -76.351362 
L 162.61682 -77.105732 
L 163.451854 -77.856739 
L 164.286889 -78.613493 
L 165.121924 -79.397433 
L 165.956958 -80.186053 
L 166.791993 -80.968423 
L 167.627028 -81.758104 
L 168.462062 -82.576502 
L 169.297097 -83.380627 
L 170.132131 -84.198959 
L 170.967166 -85.031565 
L 171.802201 -85.873297 
L 172.637235 -86.745578 
L 173.47227 -87.620556 
L 174.307305 -88.502252 
L 175.142339 -89.400722 
L 175.977374 -90.285278 
L 176.812408 -91.188581 
L 177.647443 -92.117544 
L 178.482478 -93.06434 
L 179.317512 -94.019573 
L 180.152547 -94.999485 
L 180.987581 -95.985078 
L 181.822616 -96.995436 
L 182.657651 -98.006316 
L 183.492685 -99.042046 
L 184.32772 -100.064032 
L 185.162755 -101.136112 
L 185.997789 -102.211779 
L 186.832824 -103.279055 
L 187.667858 -104.379555 
L 188.502893 -105.505374 
L 189.337928 -106.670134 
L 190.172962 -107.846295 
L 191.007997 -109.026719 
L 191.843032 -110.269442 
L 192.678066 -111.514443 
L 193.513101 -112.816908 
L 194.348135 -114.124403 
L 195.18317 -115.437546 
L 196.018205 -116.817543 
L 196.853239 -118.193257 
L 197.688274 -119.608429 
L 198.523308 -121.02344 
L 199.358343 -122.486804 
L 200.193378 -123.978801 
L 201.028412 -125.505538 
L 201.863447 -127.066096 
L 202.698482 -128.680815 
L 203.533516 -130.32157 
L 204.368551 -132.003536 
L 205.203585 -133.749834 
L 206.03862 -135.495253 
L 206.873655 -137.293598 
L 207.708689 -139.127806 
L 208.543724 -141.005463 
L 209.378759 -142.907291 
L 210.213793 -144.858732 
L 211.048828 -146.871877 
L 211.883862 -148.969819 
L 212.718897 -151.069947 
L 213.553932 -153.225361 
L 214.388966 -155.41712 
L 215.224001 -157.647337 
L 216.059036 -159.91245 
L 216.89407 -162.198688 
L 217.729105 -164.498563 
L 218.564139 -166.868593 
L 219.399174 -169.262774 
L 220.234209 -171.701234 
L 221.069243 -174.199743 
L 221.904278 -176.716977 
L 222.739312 -179.217527 
L 223.574347 -181.755359 
L 224.409382 -184.298354 
L 225.244416 -186.830093 
L 226.079451 -189.365347 
L 226.914486 -191.924879 
L 227.74952 -194.48551 
L 228.584555 -197.010715 
L 229.419589 -199.542534 
L 230.254624 -202.081638 
L 231.089659 -204.559183 
L 231.924693 -207.013017 
L 232.759728 -209.465913 
L 233.594763 -211.86436 
L 234.429797 -214.214976 
L 235.264832 -216.503082 
L 236.099866 -218.787594 
L 236.934901 -221.029127 
L 237.769936 -223.217317 
L 238.60497 -225.350177 
L 239.440005 -227.423473 
L 240.275039 -229.440286 
L 241.110074 -231.409437 
L 241.945109 -233.31553 
L 242.780143 -235.189637 
L 243.615178 -236.977734 
L 244.450213 -238.740981 
L 245.285247 -240.408323 
L 246.120282 -242.015802 
L 246.955316 -243.58433 
L 247.790351 -245.075714 
L 248.625386 -246.557254 
L 249.46042 -247.984682 
L 250.295455 -249.334976 
L 251.13049 -250.699053 
L 251.965524 -252.031514 
L 252.800559 -253.310374 
L 253.635593 -254.543362 
L 254.470628 -255.74672 
L 255.305663 -256.955138 
L 256.140697 -258.158514 
L 256.975732 -259.328686 
L 257.810766 -260.474343 
L 258.645801 -261.615903 
L 259.480836 -262.727577 
L 260.31587 -263.878087 
L 261.150905 -265.027556 
L 261.98594 -266.144835 
L 262.820974 -267.273374 
L 263.656009 -268.424493 
L 264.491043 -269.545695 
L 265.326078 -270.695398 
L 266.161113 -271.83959 
L 266.996147 -272.977634 
L 267.831182 -274.162491 
L 268.666217 -275.34812 
L 269.501251 -276.534558 
L 270.336286 -277.77635 
L 271.17132 -278.985701 
L 272.006355 -280.184106 
L 272.84139 -281.425167 
L 273.676424 -282.652028 
L 274.511459 -283.875003 
L 275.346493 -285.100479 
L 276.181528 -286.373758 
L 277.016563 -287.594723 
L 277.851597 -288.862083 
L 278.686632 -290.072894 
L 279.521667 -291.288373 
L 280.356701 -292.513249 
L 281.191736 -293.741989 
L 282.02677 -294.932938 
L 282.861805 -296.091025 
L 283.69684 -297.265183 
L 284.531874 -298.427111 
L 285.366909 -299.560847 
L 286.201944 -300.702705 
L 287.036978 -301.791986 
L 287.872013 -302.910269 
L 288.707047 -304.023118 
L 289.542082 -305.08285 
L 290.377117 -306.162713 
L 291.212151 -307.244344 
L 292.047186 -308.348956 
L 292.88222 -309.408022 
L 293.717255 -310.453338 
L 294.55229 -311.457953 
L 295.387324 -312.473135 
L 296.222359 -313.440993 
L 297.057394 -314.40842 
L 297.892428 -315.413281 
L 298.727463 -316.362808 
L 299.562497 -317.300177 
L 300.397532 -318.225542 
L 301.232567 -319.188486 
L 302.067601 -320.067381 
L 302.902636 -320.959227 
L 303.737671 -321.800437 
L 304.572705 -322.599446 
L 305.40774 -323.35854 
L 306.242774 -324.118014 
L 307.077809 -324.822925 
L 307.912844 -325.482666 
L 308.747878 -326.110069 
L 309.582913 -326.695143 
L 310.417947 -327.215786 
L 311.252982 -327.711892 
L 312.088017 -328.126346 
L 312.923051 -328.445475 
L 313.758086 -328.6914 
L 314.593121 -328.856825 
L 315.428155 -328.980011 
L 316.26319 -329.071222 
L 317.098224 -329.03822 
L 317.933259 -328.941775 
L 318.768294 -328.773268 
L 319.603328 -328.532645 
L 320.438363 -328.172437 
L 321.273398 -327.747756 
L 322.108432 -327.235385 
L 322.943467 -326.663981 
L 323.778501 -325.984608 
L 324.613536 -325.264608 
L 325.448571 -324.449782 
L 326.283605 -323.54502 
L 327.11864 -322.591501 
L 327.953674 -321.577702 
L 328.788709 -320.541332 
L 329.623744 -319.399339 
L 330.458778 -318.211519 
L 331.293813 -316.973 
L 332.128848 -315.690582 
L 332.963882 -314.380046 
L 333.798917 -313.020102 
L 334.633951 -311.623821 
L 335.468986 -310.183751 
L 336.304021 -308.699084 
L 337.139055 -307.210409 
L 337.97409 -305.662645 
L 338.809125 -304.11987 
L 339.644159 -302.559714 
L 340.479194 -300.960463 
L 341.314228 -299.350383 
L 342.149263 -297.692865 
L 342.984298 -296.057126 
L 343.819332 -294.40386 
L 344.654367 -292.705043 
L 345.489401 -291.008923 
L 346.324436 -289.310805 
L 347.159471 -287.593796 
L 347.994505 -285.860294 
L 348.82954 -284.089118 
L 349.664575 -282.300871 
L 350.499609 -280.532247 
L 351.334644 -278.738986 
L 352.169678 -276.926921 
L 353.004713 -275.120404 
L 353.839748 -273.264227 
L 354.674782 -271.388385 
L 355.509817 -269.520136 
L 356.344852 -267.648199 
L 357.179886 -265.740164 
L 358.014921 -263.853949 
L 358.849955 -261.909791 
L 359.68499 -259.942432 
L 360.520025 -257.989272 
L 361.355059 -255.956948 
L 362.190094 -253.913345 
L 363.025128 -251.88495 
L 363.860163 -249.777228 
L 364.695198 -247.673988 
L 365.530232 -245.56045 
L 366.365267 -243.414922 
L 367.200302 -241.228154 
L 368.035336 -239.037971 
L 368.870371 -236.835529 
L 369.705405 -234.572297 
L 370.54044 -232.334425 
L 371.375475 -230.038699 
L 372.210509 -227.74353 
L 373.045544 -225.423667 
L 373.880579 -223.101045 
L 374.715613 -220.726151 
L 375.550648 -218.349406 
L 376.385682 -215.945424 
L 377.220717 -213.5215 
L 378.055752 -211.099208 
L 378.890786 -208.633 
L 379.725821 -206.185091 
L 380.560855 -203.747441 
L 381.39589 -201.287653 
L 382.230925 -198.85207 
L 383.065959 -196.414781 
L 383.900994 -193.983638 
L 384.736029 -191.524607 
L 385.571063 -189.096922 
L 386.406098 -186.693669 
L 387.241132 -184.295766 
L 388.076167 -181.955845 
L 388.911202 -179.617891 
L 389.746236 -177.318617 
L 390.581271 -175.039812 
L 391.416306 -172.740356 
L 392.25134 -170.507518 
L 393.086375 -168.32896 
L 393.921409 -166.180955 
L 394.756444 -164.040031 
L 395.591479 -162.013495 
L 396.426513 -159.983547 
L 397.261548 -158.010536 
L 398.096582 -156.074902 
L 398.931617 -154.163696 
L 399.766652 -152.306793 
L 400.601686 -150.49322 
L 401.436721 -148.745581 
L 402.271756 -147.018345 
L 403.10679 -145.339864 
L 403.941825 -143.707401 
L 404.776859 -142.086931 
L 405.611894 -140.504826 
L 406.446929 -138.98579 
L 407.281963 -137.478555 
L 408.116998 -135.992466 
L 408.952033 -134.516062 
L 409.787067 -133.072839 
L 410.622102 -131.672369 
L 411.457136 -130.3007 
L 412.292171 -128.940517 
L 413.127206 -127.590345 
L 413.96224 -126.271818 
L 414.797275 -124.943117 
L 415.632309 -123.631364 
L 416.467344 -122.319583 
L 417.302379 -121.017416 
L 418.137413 -119.726949 
L 418.972448 -118.425829 
L 419.807483 -117.14228 
L 420.642517 -115.842062 
L 421.477552 -114.535244 
L 422.312586 -113.21948 
L 423.147621 -111.913964 
L 423.982656 -110.587826 
L 424.81769 -109.271261 
L 425.652725 -107.970127 
L 426.48776 -106.655429 
L 427.322794 -105.346987 
L 428.157829 -104.046253 
L 428.992863 -102.748843 
L 429.827898 -101.455853 
L 430.662933 -100.169345 
L 431.497967 -98.891469 
L 432.333002 -97.633366 
L 433.168036 -96.386875 
L 434.003071 -95.154444 
L 434.838106 -93.934849 
L 435.67314 -92.744531 
L 436.508175 -91.556474 
L 437.34321 -90.40259 
L 438.178244 -89.27852 
L 439.013279 -88.162837 
L 439.848313 -87.092136 
L 440.683348 -86.051717 
L 441.518383 -85.055175 
L 442.353417 -84.075171 
L 443.188452 -83.123715 
L 444.023487 -82.205412 
L 444.858521 -81.338024 
L 445.693556 -80.48254 
L 446.52859 -79.668526 
L 447.363625 -78.889164 
L 448.19866 -78.142831 
L 449.033694 -77.414376 
L 449.868729 -76.713905 
L 450.703763 -76.036237 
L 451.538798 -75.375073 
L 452.373833 -74.751407 
L 453.208867 -74.1527 
L 454.043902 -73.558377 
L 454.878937 -73.003586 
L 455.713971 -72.455562 
L 456.549006 -71.908819 
L 457.38404 -71.371855 
L 458.219075 -70.847037 
L 459.05411 -70.337782 
L 459.889144 -69.805105 
L 460.724179 -69.303848 
L 461.559214 -68.800836 
L 462.394248 -68.272606 
L 463.229283 -67.753087 
L 464.064317 -67.226023 
L 464.899352 -66.700143 
L 465.734387 -66.184529 
L 466.569421 -65.660379 
L 467.404456 -65.11347 
L 468.23949 -64.567602 
L 469.074525 -64.022047 
L 469.90956 -63.480891 
L 470.744594 -62.92994 
L 471.579629 -62.375457 
L 472.414664 -61.822996 
L 473.249698 -61.270294 
L 474.084733 -60.705428 
L 474.919767 -60.15727 
L 475.754802 -59.598148 
L 476.589837 -59.049852 
L 477.424871 -58.508592 
L 478.259906 -57.984852 
L 479.094941 -57.4617 
L 479.929975 -56.95127 
L 480.76501 -56.46756 
L 481.600044 -55.997212 
L 482.435079 -55.542709 
L 483.270114 -55.104699 
L 484.105148 -54.68368 
L 484.940183 -54.280829 
L 485.775217 -53.892669 
L 486.610252 -53.529668 
L 487.445287 -53.182663 
L 488.280321 -52.857287 
L 489.115356 -52.540272 
L 489.950391 -52.265898 
L 490.785425 -52.003924 
L 491.62046 -51.768178 
L 492.455494 -51.558218 
L 493.290529 -51.363805 
L 494.125564 -51.188699 
L 494.960598 -51.027601 
L 495.795633 -50.893703 
L 496.630668 -50.770996 
L 497.465702 -50.673477 
L 498.300737 -50.580648 
L 499.135771 -50.496599 
L 499.970806 -50.429725 
L 500.805841 -50.368962 
L 501.640875 -50.327156 
L 502.47591 -50.292522 
L 503.310944 -50.25945 
L 504.145979 -50.241793 
L 504.981014 -50.219873 
L 505.816048 -50.20679 
L 506.651083 -50.202443 
L 507.486118 -50.19717 
L 508.321152 -50.188514 
L 509.156187 -50.189944 
L 509.991221 -50.197414 
L 510.826256 -50.19202 
L 511.661291 -50.192044 
L 511.661291 -41.627622 
L 511.661291 -41.627622 
L 510.826256 -41.627622 
L 509.991221 -41.627622 
L 509.156187 -41.627622 
L 508.321152 -41.627622 
L 507.486118 -41.627622 
L 506.651083 -41.627622 
L 505.816048 -41.627622 
L 504.981014 -41.627622 
L 504.145979 -41.627622 
L 503.310944 -41.627622 
L 502.47591 -41.627622 
L 501.640875 -41.627622 
L 500.805841 -41.627622 
L 499.970806 -41.627622 
L 499.135771 -41.627622 
L 498.300737 -41.627622 
L 497.465702 -41.627622 
L 496.630668 -41.627622 
L 495.795633 -41.627622 
L 494.960598 -41.627622 
L 494.125564 -41.627622 
L 493.290529 -41.627622 
L 492.455494 -41.627622 
L 491.62046 -41.627622 
L 490.785425 -41.627622 
L 489.950391 -41.627622 
L 489.115356 -41.627622 
L 488.280321 -41.627622 
L 487.445287 -41.627622 
L 486.610252 -41.627622 
L 485.775217 -41.627622 
L 484.940183 -41.627622 
L 484.105148 -41.627622 
L 483.270114 -41.627622 
L 482.435079 -41.627622 
L 481.600044 -41.627622 
L 480.76501 -41.627622 
L 479.929975 -41.627622 
L 479.094941 -41.627622 
L 478.259906 -41.627622 
L 477.424871 -41.627622 
L 476.589837 -41.627622 
L 475.754802 -41.627622 
L 474.919767 -41.627622 
L 474.084733 -41.627622 
L 473.249698 -41.627622 
L 472.414664 -41.627622 
L 471.579629 -41.627622 
L 470.744594 -41.627622 
L 469.90956 -41.627622 
L 469.074525 -41.627622 
L 468.23949 -41.627622 
L 467.404456 -41.627622 
L 466.569421 -41.627622 
L 465.734387 -41.627622 
L 464.899352 -41.627622 
L 464.064317 -41.627622 
L 463.229283 -41.627622 
L 462.394248 -41.627622 
L 461.559214 -41.627622 
L 460.724179 -41.627622 
L 459.889144 -41.627622 
L 459.05411 -41.627622 
L 458.219075 -41.627622 
L 457.38404 -41.627622 
L 456.549006 -41.627622 
L 455.713971 -41.627622 
L 454.878937 -41.627622 
L 454.043902 -41.627622 
L 453.208867 -41.627622 
L 452.373833 -41.627622 
L 451.538798 -41.627622 
L 450.703763 -41.627622 
L 449.868729 -41.627622 
L 449.033694 -41.627622 
L 448.19866 -41.627622 
L 447.363625 -41.627622 
L 446.52859 -41.627622 
L 445.693556 -41.627622 
L 444.858521 -41.627622 
L 444.023487 -41.627622 
L 443.188452 -41.627622 
L 442.353417 -41.627622 
L 441.518383 -41.627622 
L 440.683348 -41.627622 
L 439.848313 -41.627622 
L 439.013279 -41.627622 
L 438.178244 -41.627622 
L 437.34321 -41.627622 
L 436.508175 -41.627622 
L 435.67314 -41.627622 
L 434.838106 -41.627622 
L 434.003071 -41.627622 
L 433.168036 -41.627622 
L 432.333002 -41.627622 
L 431.497967 -41.627622 
L 430.662933 -41.627622 
L 429.827898 -41.627622 
L 428.992863 -41.627622 
L 428.157829 -41.627622 
L 427.322794 -41.627622 
L 426.48776 -41.627622 
L 425.652725 -41.627622 
L 424.81769 -41.627622 
L 423.982656 -41.627622 
L 423.147621 -41.627622 
L 422.312586 -41.627622 
L 421.477552 -41.627622 
L 420.642517 -41.627622 
L 419.807483 -41.627622 
L 418.972448 -41.627622 
L 418.137413 -41.627622 
L 417.302379 -41.627622 
L 416.467344 -41.627622 
L 415.632309 -41.627622 
L 414.797275 -41.627622 
L 413.96224 -41.627622 
L 413.127206 -41.627622 
L 412.292171 -41.627622 
L 411.457136 -41.627622 
L 410.622102 -41.627622 
L 409.787067 -41.627622 
L 408.952033 -41.627622 
L 408.116998 -41.627622 
L 407.281963 -41.627622 
L 406.446929 -41.627622 
L 405.611894 -41.627622 
L 404.776859 -41.627622 
L 403.941825 -41.627622 
L 403.10679 -41.627622 
L 402.271756 -41.627622 
L 401.436721 -41.627622 
L 400.601686 -41.627622 
L 399.766652 -41.627622 
L 398.931617 -41.627622 
L 398.096582 -41.627622 
L 397.261548 -41.627622 
L 396.426513 -41.627622 
L 395.591479 -41.627622 
L 394.756444 -41.627622 
L 393.921409 -41.627622 
L 393.086375 -41.627622 
L 392.25134 -41.627622 
L 391.416306 -41.627622 
L 390.581271 -41.627622 
L 389.746236 -41.627622 
L 388.911202 -41.627622 
L 388.076167 -41.627622 
L 387.241132 -41.627622 
L 386.406098 -41.627622 
L 385.571063 -41.627622 
L 384.736029 -41.627622 
L 383.900994 -41.627622 
L 383.065959 -41.627622 
L 382.230925 -41.627622 
L 381.39589 -41.627622 
L 380.560855 -41.627622 
L 379.725821 -41.627622 
L 378.890786 -41.627622 
L 378.055752 -41.627622 
L 377.220717 -41.627622 
L 376.385682 -41.627622 
L 375.550648 -41.627622 
L 374.715613 -41.627622 
L 373.880579 -41.627622 
L 373.045544 -41.627622 
L 372.210509 -41.627622 
L 371.375475 -41.627622 
L 370.54044 -41.627622 
L 369.705405 -41.627622 
L 368.870371 -41.627622 
L 368.035336 -41.627622 
L 367.200302 -41.627622 
L 366.365267 -41.627622 
L 365.530232 -41.627622 
L 364.695198 -41.627622 
L 363.860163 -41.627622 
L 363.025128 -41.627622 
L 362.190094 -41.627622 
L 361.355059 -41.627622 
L 360.520025 -41.627622 
L 359.68499 -41.627622 
L 358.849955 -41.627622 
L 358.014921 -41.627622 
L 357.179886 -41.627622 
L 356.344852 -41.627622 
L 355.509817 -41.627622 
L 354.674782 -41.627622 
L 353.839748 -41.627622 
L 353.004713 -41.627622 
L 352.169678 -41.627622 
L 351.334644 -41.627622 
L 350.499609 -41.627622 
L 349.664575 -41.627622 
L 348.82954 -41.627622 
L 347.994505 -41.627622 
L 347.159471 -41.627622 
L 346.324436 -41.627622 
L 345.489401 -41.627622 
L 344.654367 -41.627622 
L 343.819332 -41.627622 
L 342.984298 -41.627622 
L 342.149263 -41.627622 
L 341.314228 -41.627622 
L 340.479194 -41.627622 
L 339.644159 -41.627622 
L 338.809125 -41.627622 
L 337.97409 -41.627622 
L 337.139055 -41.627622 
L 336.304021 -41.627622 
L 335.468986 -41.627622 
L 334.633951 -41.627622 
L 333.798917 -41.627622 
L 332.963882 -41.627622 
L 332.128848 -41.627622 
L 331.293813 -41.627622 
L 330.458778 -41.627622 
L 329.623744 -41.627622 
L 328.788709 -41.627622 
L 327.953674 -41.627622 
L 327.11864 -41.627622 
L 326.283605 -41.627622 
L 325.448571 -41.627622 
L 324.613536 -41.627622 
L 323.778501 -41.627622 
L 322.943467 -41.627622 
L 322.108432 -41.627622 
L 321.273398 -41.627622 
L 320.438363 -41.627622 
L 319.603328 -41.627622 
L 318.768294 -41.627622 
L 317.933259 -41.627622 
L 317.098224 -41.627622 
L 316.26319 -41.627622 
L 315.428155 -41.627622 
L 314.593121 -41.627622 
L 313.758086 -41.627622 
L 312.923051 -41.627622 
L 312.088017 -41.627622 
L 311.252982 -41.627622 
L 310.417947 -41.627622 
L 309.582913 -41.627622 
L 308.747878 -41.627622 
L 307.912844 -41.627622 
L 307.077809 -41.627622 
L 306.242774 -41.627622 
L 305.40774 -41.627622 
L 304.572705 -41.627622 
L 303.737671 -41.627622 
L 302.902636 -41.627622 
L 302.067601 -41.627622 
L 301.232567 -41.627622 
L 300.397532 -41.627622 
L 299.562497 -41.627622 
L 298.727463 -41.627622 
L 297.892428 -41.627622 
L 297.057394 -41.627622 
L 296.222359 -41.627622 
L 295.387324 -41.627622 
L 294.55229 -41.627622 
L 293.717255 -41.627622 
L 292.88222 -41.627622 
L 292.047186 -41.627622 
L 291.212151 -41.627622 
L 290.377117 -41.627622 
L 289.542082 -41.627622 
L 288.707047 -41.627622 
L 287.872013 -41.627622 
L 287.036978 -41.627622 
L 286.201944 -41.627622 
L 285.366909 -41.627622 
L 284.531874 -41.627622 
L 283.69684 -41.627622 
L 282.861805 -41.627622 
L 282.02677 -41.627622 
L 281.191736 -41.627622 
L 280.356701 -41.627622 
L 279.521667 -41.627622 
L 278.686632 -41.627622 
L 277.851597 -41.627622 
L 277.016563 -41.627622 
L 276.181528 -41.627622 
L 275.346493 -41.627622 
L 274.511459 -41.627622 
L 273.676424 -41.627622 
L 272.84139 -41.627622 
L 272.006355 -41.627622 
L 271.17132 -41.627622 
L 270.336286 -41.627622 
L 269.501251 -41.627622 
L 268.666217 -41.627622 
L 267.831182 -41.627622 
L 266.996147 -41.627622 
L 266.161113 -41.627622 
L 265.326078 -41.627622 
L 264.491043 -41.627622 
L 263.656009 -41.627622 
L 262.820974 -41.627622 
L 261.98594 -41.627622 
L 261.150905 -41.627622 
L 260.31587 -41.627622 
L 259.480836 -41.627622 
L 258.645801 -41.627622 
L 257.810766 -41.627622 
L 256.975732 -41.627622 
L 256.140697 -41.627622 
L 255.305663 -41.627622 
L 254.470628 -41.627622 
L 253.635593 -41.627622 
L 252.800559 -41.627622 
L 251.965524 -41.627622 
L 251.13049 -41.627622 
L 250.295455 -41.627622 
L 249.46042 -41.627622 
L 248.625386 -41.627622 
L 247.790351 -41.627622 
L 246.955316 -41.627622 
L 246.120282 -41.627622 
L 245.285247 -41.627622 
L 244.450213 -41.627622 
L 243.615178 -41.627622 
L 242.780143 -41.627622 
L 241.945109 -41.627622 
L 241.110074 -41.627622 
L 240.275039 -41.627622 
L 239.440005 -41.627622 
L 238.60497 -41.627622 
L 237.769936 -41.627622 
L 236.934901 -41.627622 
L 236.099866 -41.627622 
L 235.264832 -41.627622 
L 234.429797 -41.627622 
L 233.594763 -41.627622 
L 232.759728 -41.627622 
L 231.924693 -41.627622 
L 231.089659 -41.627622 
L 230.254624 -41.627622 
L 229.419589 -41.627622 
L 228.584555 -41.627622 
L 227.74952 -41.627622 
L 226.914486 -41.627622 
L 226.079451 -41.627622 
L 225.244416 -41.627622 
L 224.409382 -41.627622 
L 223.574347 -41.627622 
L 222.739312 -41.627622 
L 221.904278 -41.627622 
L 221.069243 -41.627622 
L 220.234209 -41.627622 
L 219.399174 -41.627622 
L 218.564139 -41.627622 
L 217.729105 -41.627622 
L 216.89407 -41.627622 
L 216.059036 -41.627622 
L 215.224001 -41.627622 
L 214.388966 -41.627622 
L 213.553932 -41.627622 
L 212.718897 -41.627622 
L 211.883862 -41.627622 
L 211.048828 -41.627622 
L 210.213793 -41.627622 
L 209.378759 -41.627622 
L 208.543724 -41.627622 
L 207.708689 -41.627622 
L 206.873655 -41.627622 
L 206.03862 -41.627622 
L 205.203585 -41.627622 
L 204.368551 -41.627622 
L 203.533516 -41.627622 
L 202.698482 -41.627622 
L 201.863447 -41.627622 
L 201.028412 -41.627622 
L 200.193378 -41.627622 
L 199.358343 -41.627622 
L 198.523308 -41.627622 
L 197.688274 -41.627622 
L 196.853239 -41.627622 
L 196.018205 -41.627622 
L 195.18317 -41.627622 
L 194.348135 -41.627622 
L 193.513101 -41.627622 
L 192.678066 -41.627622 
L 191.843032 -41.627622 
L 191.007997 -41.627622 
L 190.172962 -41.627622 
L 189.337928 -41.627622 
L 188.502893 -41.627622 
L 187.667858 -41.627622 
L 186.832824 -41.627622 
L 185.997789 -41.627622 
L 185.162755 -41.627622 
L 184.32772 -41.627622 
L 183.492685 -41.627622 
L 182.657651 -41.627622 
L 181.822616 -41.627622 
L 180.987581 -41.627622 
L 180.152547 -41.627622 
L 179.317512 -41.627622 
L 178.482478 -41.627622 
L 177.647443 -41.627622 
L 176.812408 -41.627622 
L 175.977374 -41.627622 
L 175.142339 -41.627622 
L 174.307305 -41.627622 
L 173.47227 -41.627622 
L 172.637235 -41.627622 
L 171.802201 -41.627622 
L 170.967166 -41.627622 
L 170.132131 -41.627622 
L 169.297097 -41.627622 
L 168.462062 -41.627622 
L 167.627028 -41.627622 
L 166.791993 -41.627622 
L 165.956958 -41.627622 
L 165.121924 -41.627622 
L 164.286889 -41.627622 
L 163.451854 -41.627622 
L 162.61682 -41.627622 
L 161.781785 -41.627622 
L 160.946751 -41.627622 
L 160.111716 -41.627622 
L 159.276681 -41.627622 
L 158.441647 -41.627622 
L 157.606612 -41.627622 
L 156.771578 -41.627622 
L 155.936543 -41.627622 
L 155.101508 -41.627622 
L 154.266474 -41.627622 
L 153.431439 -41.627622 
L 152.596404 -41.627622 
L 151.76137 -41.627622 
L 150.926335 -41.627622 
L 150.091301 -41.627622 
L 149.256266 -41.627622 
L 148.421231 -41.627622 
L 147.586197 -41.627622 
L 146.751162 -41.627622 
L 145.916127 -41.627622 
L 145.081093 -41.627622 
L 144.246058 -41.627622 
L 143.411024 -41.627622 
L 142.575989 -41.627622 
L 141.740954 -41.627622 
L 140.90592 -41.627622 
L 140.070885 -41.627622 
L 139.235851 -41.627622 
L 138.400816 -41.627622 
L 137.565781 -41.627622 
L 136.730747 -41.627622 
L 135.895712 -41.627622 
L 135.060677 -41.627622 
L 134.225643 -41.627622 
L 133.390608 -41.627622 
L 132.555574 -41.627622 
L 131.720539 -41.627622 
L 130.885504 -41.627622 
L 130.05047 -41.627622 
L 129.215435 -41.627622 
L 128.3804 -41.627622 
L 127.545366 -41.627622 
L 126.710331 -41.627622 
L 125.875297 -41.627622 
L 125.040262 -41.627622 
L 124.205227 -41.627622 
L 123.370193 -41.627622 
L 122.535158 -41.627622 
L 121.700124 -41.627622 
L 120.865089 -41.627622 
L 120.030054 -41.627622 
L 119.19502 -41.627622 
L 118.359985 -41.627622 
L 117.52495 -41.627622 
L 116.689916 -41.627622 
L 115.854881 -41.627622 
L 115.019847 -41.627622 
L 114.184812 -41.627622 
L 113.349777 -41.627622 
L 112.514743 -41.627622 
L 111.679708 -41.627622 
L 110.844673 -41.627622 
L 110.009639 -41.627622 
L 109.174604 -41.627622 
L 108.33957 -41.627622 
L 107.504535 -41.627622 
L 106.6695 -41.627622 
L 105.834466 -41.627622 
L 104.999431 -41.627622 
L 104.164397 -41.627622 
L 103.329362 -41.627622 
L 102.494327 -41.627622 
L 101.659293 -41.627622 
L 100.824258 -41.627622 
L 99.989223 -41.627622 
L 99.154189 -41.627622 
L 98.319154 -41.627622 
L 97.48412 -41.627622 
L 96.649085 -41.627622 
L 95.81405 -41.627622 
L 94.979016 -41.627622 
L 94.143981 -41.627622 
L 93.308946 -41.627622 
L 92.473912 -41.627622 
L 91.638877 -41.627622 
L 90.803843 -41.627622 
L 89.968808 -41.627622 
L 89.133773 -41.627622 
L 88.298739 -41.627622 
L 87.463704 -41.627622 
L 86.62867 -41.627622 
L 85.793635 -41.627622 
L 84.9586 -41.627622 
z
" style="stroke: #2a2eec; stroke-opacity: 0; stroke-width: 0.8"/>
    </defs>
    <g clip-path="url(#pede3953bc3)">
     <use xlink:href="#m58ce422895" x="0" y="368.39952" style="fill: #2a2eec; fill-opacity: 0; stroke: #2a2eec; stroke-opacity: 0; stroke-width: 0.8"/>
    </g>
   </g>
   <g id="line2d_15">
    <path d="M 84.9586 323.948988 
L 92.473912 323.847956 
L 99.989223 323.52835 
L 105.834466 323.081278 
L 111.679708 322.315833 
L 116.689916 321.272715 
L 120.030054 320.340761 
L 123.370193 319.174969 
L 127.545366 317.368336 
L 130.885504 315.644045 
L 134.225643 313.67916 
L 140.070885 309.72546 
L 145.916127 305.293438 
L 154.266474 298.537468 
L 161.781785 292.048158 
L 167.627028 286.641416 
L 173.47227 280.778964 
L 178.482478 275.33518 
L 182.657651 270.393204 
L 187.667858 264.019965 
L 191.007997 259.372801 
L 195.18317 252.961974 
L 199.358343 245.912716 
L 202.698482 239.718705 
L 205.203585 234.649686 
L 207.708689 229.271714 
L 211.048828 221.527643 
L 215.224001 210.752183 
L 219.399174 199.136746 
L 223.574347 186.644161 
L 232.759728 158.933607 
L 236.099866 149.611926 
L 238.60497 143.049343 
L 241.110074 136.990083 
L 243.615178 131.421786 
L 246.120282 126.383718 
L 248.625386 121.842266 
L 251.13049 117.700467 
L 253.635593 113.856158 
L 258.645801 106.783617 
L 264.491043 98.853825 
L 270.336286 90.62317 
L 277.016563 80.804797 
L 281.191736 74.657531 
L 286.201944 67.696815 
L 294.55229 56.941567 
L 298.727463 52.036712 
L 302.902636 47.440293 
L 305.40774 45.04098 
L 307.077809 43.576595 
L 309.582913 41.704377 
L 312.088017 40.273174 
L 313.758086 39.70812 
L 315.428155 39.419509 
L 316.26319 39.328298 
L 317.933259 39.457745 
L 319.603328 39.866875 
L 321.273398 40.651764 
L 322.943467 41.735539 
L 324.613536 43.134912 
L 326.283605 44.8545 
L 328.788709 47.858188 
L 331.293813 51.42652 
L 333.798917 55.379418 
L 336.304021 59.700436 
L 339.644159 65.839806 
L 343.819332 73.99566 
L 349.664575 86.098649 
L 353.839748 95.135293 
L 360.520025 110.410248 
L 365.530232 122.83907 
L 369.705405 133.827223 
L 373.880579 145.298475 
L 379.725821 162.214429 
L 388.911202 188.781629 
L 393.086375 200.07056 
L 396.426513 208.415973 
L 399.766652 216.092727 
L 402.271756 221.381175 
L 405.611894 227.894694 
L 409.787067 235.326681 
L 413.96224 242.127702 
L 420.642517 252.557458 
L 433.168036 272.012645 
L 437.34321 277.99693 
L 440.683348 282.347803 
L 444.023487 286.194108 
L 447.363625 289.510356 
L 450.703763 292.363283 
L 453.208867 294.24682 
L 456.549006 296.490701 
L 462.394248 300.126914 
L 469.90956 304.918629 
L 479.929975 311.44825 
L 483.270114 313.294821 
L 486.610252 314.869852 
L 489.115356 315.859248 
L 492.455494 316.841302 
L 495.795633 317.505817 
L 499.135771 317.902921 
L 503.310944 318.14007 
L 511.661291 318.207476 
L 511.661291 318.207476 
" clip-path="url(#pede3953bc3)" style="fill: none; stroke: #2a2eec; stroke-width: 3.227486; stroke-linecap: round"/>
   </g>
   <g id="line2d_16">
    <path d="M 178.468216 320.300207 
L 432.608291 320.300207 
" clip-path="url(#pede3953bc3)" style="fill: none; stroke: #000000; stroke-width: 6.454972"/>
   </g>
   <g id="patch_3">
    <path d="M 16.613501 341.144078 
L 567.786019 341.144078 
" style="fill: none"/>
   </g>
   <g id="text_8">
    <!-- 0.75  -->
    <g style="fill: #262626" transform="translate(146.193355 304.120977) scale(0.161374 -0.161374)">
     <defs>
      <path id="STIXGeneral-Regular-37" d="M 2874 4134 
L 1517 -51 
L 1101 -51 
L 2368 3763 
L 992 3763 
Q 717 3763 582 3667 
Q 448 3571 243 3238 
L 128 3296 
L 512 4237 
L 2874 4237 
L 2874 4134 
z
" transform="scale(0.015625)"/>
      <path id="STIXGeneral-Regular-35" d="M 2803 4358 
L 2573 3814 
Q 2534 3731 2400 3731 
L 1158 3731 
L 902 3187 
Q 1606 3053 1920 2896 
Q 2234 2739 2502 2368 
Q 2726 2061 2726 1555 
Q 2726 1094 2576 780 
Q 2426 467 2099 224 
Q 1664 -90 1011 -90 
Q 646 -90 422 19 
Q 198 128 198 307 
Q 198 550 486 550 
Q 717 550 960 352 
Q 1210 147 1414 147 
Q 1747 147 2012 480 
Q 2278 813 2278 1229 
Q 2278 1843 1850 2189 
Q 1293 2637 486 2637 
Q 410 2637 410 2688 
L 416 2720 
L 1114 4237 
L 2438 4237 
Q 2547 4237 2608 4269 
Q 2669 4301 2746 4403 
L 2803 4358 
z
" transform="scale(0.015625)"/>
      <path id="STIXGeneral-Regular-20" transform="scale(0.015625)"/>
     </defs>
     <use xlink:href="#STIXGeneral-Regular-30"/>
     <use xlink:href="#STIXGeneral-Regular-2e" x="49.999985"/>
     <use xlink:href="#STIXGeneral-Regular-37" x="74.999969"/>
     <use xlink:href="#STIXGeneral-Regular-35" x="124.999954"/>
     <use xlink:href="#STIXGeneral-Regular-20" x="174.999939"/>
    </g>
   </g>
   <g id="text_9">
    <!--  1.3 -->
    <g style="fill: #262626" transform="translate(432.608291 304.120977) scale(0.161374 -0.161374)">
     <defs>
      <path id="STIXGeneral-Regular-33" d="M 390 3264 
L 288 3290 
Q 435 3770 748 4048 
Q 1062 4326 1542 4326 
Q 1990 4326 2265 4083 
Q 2541 3840 2541 3450 
Q 2541 2925 1946 2566 
Q 2298 2413 2477 2227 
Q 2758 1914 2758 1402 
Q 2758 890 2464 506 
Q 2246 211 1840 60 
Q 1434 -90 979 -90 
Q 262 -90 262 275 
Q 262 378 339 442 
Q 416 506 525 506 
Q 685 506 915 339 
Q 1197 141 1466 141 
Q 1818 141 2058 425 
Q 2298 710 2298 1120 
Q 2298 1856 1632 2048 
Q 1434 2112 979 2112 
L 979 2202 
Q 1338 2323 1517 2432 
Q 2035 2726 2035 3290 
Q 2035 3610 1852 3776 
Q 1670 3942 1344 3942 
Q 768 3942 390 3264 
z
" transform="scale(0.015625)"/>
     </defs>
     <use xlink:href="#STIXGeneral-Regular-20"/>
     <use xlink:href="#STIXGeneral-Regular-31" x="24.999985"/>
     <use xlink:href="#STIXGeneral-Regular-2e" x="74.999969"/>
     <use xlink:href="#STIXGeneral-Regular-33" x="99.999954"/>
    </g>
   </g>
   <g id="text_10">
    <!-- 94% HDI -->
    <g style="fill: #262626" transform="translate(275.086418 229.696523) scale(0.161374 -0.161374)">
     <defs>
      <path id="STIXGeneral-Regular-39" d="M 378 -141 
L 358 -13 
Q 1094 115 1603 608 
Q 2112 1101 2304 1882 
Q 1933 1517 1344 1517 
Q 826 1517 509 1875 
Q 192 2234 192 2816 
Q 192 3462 573 3894 
Q 954 4326 1523 4326 
Q 2131 4326 2528 3840 
Q 2938 3328 2938 2522 
Q 2938 1958 2742 1462 
Q 2547 966 2170 621 
Q 1773 262 1395 105 
Q 1018 -51 378 -141 
z
M 2317 2272 
L 2317 2522 
Q 2317 4147 1472 4147 
Q 1171 4147 1005 3930 
Q 909 3802 845 3546 
Q 781 3290 781 3034 
Q 781 2464 995 2128 
Q 1210 1792 1568 1792 
Q 1824 1792 2070 1917 
Q 2317 2042 2317 2272 
z
" transform="scale(0.015625)"/>
      <path id="STIXGeneral-Regular-25" d="M 4390 1363 
Q 4390 781 4070 329 
Q 3750 -122 3341 -122 
Q 3014 -122 2790 134 
Q 2566 390 2566 762 
Q 2566 1274 2940 1693 
Q 3315 2112 3776 2112 
Q 4070 2112 4230 1917 
Q 4390 1722 4390 1363 
z
M 4243 1376 
Q 4243 1626 4131 1779 
Q 4019 1933 3840 1933 
Q 3654 1933 3526 1786 
Q 3315 1562 3171 1187 
Q 3027 813 3027 486 
Q 3027 301 3129 176 
Q 3232 51 3386 51 
Q 3718 51 3980 457 
Q 4243 864 4243 1376 
z
M 3974 4518 
L 1222 -115 
L 922 -115 
L 3443 4096 
Q 3264 3891 3094 3811 
Q 2925 3731 2669 3731 
Q 2445 3731 2182 3821 
Q 2208 3674 2208 3539 
Q 2208 3206 2067 2873 
Q 1926 2541 1696 2323 
Q 1453 2086 1146 2086 
Q 826 2086 608 2339 
Q 390 2592 390 2963 
Q 390 3507 761 3916 
Q 1133 4326 1626 4326 
Q 1792 4326 2010 4147 
Q 2310 3898 2624 3898 
Q 2918 3898 3084 3994 
Q 3251 4090 3693 4518 
L 3974 4518 
z
M 2054 3642 
Q 2054 3782 2025 3833 
Q 1997 3885 1894 3936 
Q 1747 4006 1613 4154 
Q 1414 4058 1331 3984 
Q 1248 3910 1152 3750 
Q 845 3264 845 2707 
Q 845 2509 944 2384 
Q 1043 2259 1210 2259 
Q 1549 2259 1801 2675 
Q 2054 3091 2054 3642 
z
" transform="scale(0.015625)"/>
      <path id="STIXGeneral-Regular-48" d="M 4499 0 
L 2714 0 
L 2714 122 
Q 3085 147 3181 265 
Q 3277 384 3277 794 
L 3277 2016 
L 1338 2016 
L 1338 723 
Q 1338 371 1440 256 
Q 1542 141 1894 122 
L 1901 0 
L 115 0 
L 115 122 
Q 493 147 589 259 
Q 685 371 685 781 
L 685 3507 
Q 685 3878 585 3980 
Q 486 4083 115 4115 
L 115 4237 
L 1907 4237 
L 1907 4115 
Q 1549 4083 1443 3977 
Q 1338 3872 1338 3507 
L 1338 2298 
L 3277 2298 
L 3277 3507 
Q 3277 3878 3177 3980 
Q 3078 4083 2707 4115 
L 2707 4237 
L 4499 4237 
L 4499 4115 
Q 4141 4083 4035 3977 
Q 3930 3872 3930 3507 
L 3930 710 
Q 3930 371 4035 259 
Q 4141 147 4499 122 
L 4499 0 
z
" transform="scale(0.015625)"/>
      <path id="STIXGeneral-Regular-44" d="M 102 4237 
L 1830 4237 
Q 3078 4237 3750 3654 
Q 4384 3110 4384 2138 
Q 4384 966 3514 410 
Q 2880 0 1901 0 
L 102 0 
L 102 122 
Q 474 147 570 252 
Q 666 358 666 736 
L 666 3520 
Q 666 3891 570 3990 
Q 474 4090 102 4115 
L 102 4237 
z
M 1318 3731 
L 1318 538 
Q 1318 365 1379 301 
Q 1440 237 1626 237 
Q 2125 237 2432 307 
Q 2739 378 3021 570 
Q 3686 1018 3686 2099 
Q 3686 3027 3078 3558 
Q 2803 3802 2476 3901 
Q 2150 4000 1658 4000 
Q 1472 4000 1395 3942 
Q 1318 3885 1318 3731 
z
" transform="scale(0.015625)"/>
      <path id="STIXGeneral-Regular-49" d="M 2016 0 
L 115 0 
L 115 122 
Q 518 134 627 240 
Q 736 346 736 717 
L 736 3526 
Q 736 3898 633 3994 
Q 531 4090 115 4115 
L 115 4237 
L 2016 4237 
L 2016 4115 
Q 1613 4096 1501 3993 
Q 1389 3891 1389 3526 
L 1389 717 
Q 1389 358 1504 246 
Q 1619 134 2016 122 
L 2016 0 
z
" transform="scale(0.015625)"/>
     </defs>
     <use xlink:href="#STIXGeneral-Regular-39"/>
     <use xlink:href="#STIXGeneral-Regular-34" x="49.999985"/>
     <use xlink:href="#STIXGeneral-Regular-25" x="99.999969"/>
     <use xlink:href="#STIXGeneral-Regular-20" x="174.699951"/>
     <use xlink:href="#STIXGeneral-Regular-48" x="199.699936"/>
     <use xlink:href="#STIXGeneral-Regular-44" x="271.899918"/>
     <use xlink:href="#STIXGeneral-Regular-49" x="344.099899"/>
    </g>
   </g>
   <g id="text_11">
    <!-- mean=1 -->
    <g style="fill: #262626" transform="translate(280.068379 67.904231) scale(0.161374 -0.161374)">
     <defs>
      <path id="STIXGeneral-Regular-6d" d="M 4960 0 
L 3565 0 
L 3565 96 
Q 3834 122 3907 208 
Q 3981 294 3981 576 
L 3981 1894 
Q 3981 2278 3869 2444 
Q 3757 2611 3488 2611 
Q 3264 2611 3107 2521 
Q 2950 2432 2803 2221 
L 2803 608 
Q 2803 301 2896 201 
Q 2989 102 3264 96 
L 3264 0 
L 1830 0 
L 1830 96 
Q 2112 115 2189 188 
Q 2266 262 2266 550 
L 2266 1901 
Q 2266 2611 1850 2611 
Q 1670 2611 1468 2531 
Q 1267 2451 1171 2336 
Q 1088 2240 1088 2227 
L 1088 448 
Q 1088 243 1177 176 
Q 1267 109 1523 96 
L 1523 0 
L 102 0 
L 102 96 
Q 371 102 460 195 
Q 550 288 550 563 
L 550 2150 
Q 550 2387 499 2480 
Q 448 2573 326 2573 
Q 230 2573 122 2547 
L 122 2656 
Q 557 2778 1011 2944 
L 1062 2925 
L 1062 2451 
L 1075 2451 
Q 1363 2752 1584 2848 
Q 1805 2944 2054 2944 
Q 2560 2944 2733 2406 
Q 3232 2944 3776 2944 
Q 4518 2944 4518 1792 
L 4518 493 
Q 4518 282 4582 202 
Q 4646 122 4794 109 
L 4960 96 
L 4960 0 
z
" transform="scale(0.015625)"/>
      <path id="STIXGeneral-Regular-65" d="M 2611 1050 
L 2714 1005 
Q 2330 -64 1376 -64 
Q 813 -64 486 329 
Q 160 723 160 1389 
Q 160 2074 525 2509 
Q 890 2944 1485 2944 
Q 2061 2944 2374 2502 
Q 2560 2246 2592 1773 
L 621 1773 
Q 646 1370 700 1158 
Q 755 947 915 730 
Q 1184 378 1626 378 
Q 1939 378 2153 531 
Q 2368 685 2611 1050 
z
M 634 1978 
L 1939 1978 
Q 1882 2381 1750 2547 
Q 1619 2714 1312 2714 
Q 1043 2714 864 2525 
Q 685 2336 634 1978 
z
" transform="scale(0.015625)"/>
      <path id="STIXGeneral-Regular-61" d="M 2829 422 
L 2829 243 
Q 2586 -64 2253 -64 
Q 1888 -64 1843 403 
L 1837 403 
Q 1427 -64 909 -64 
Q 608 -64 422 112 
Q 237 288 237 602 
Q 237 1050 685 1350 
Q 992 1555 1837 1869 
L 1837 2214 
Q 1837 2502 1699 2646 
Q 1562 2790 1338 2790 
Q 1146 2790 1018 2697 
Q 890 2605 890 2477 
Q 890 2419 909 2348 
Q 928 2278 928 2208 
Q 928 2112 841 2029 
Q 755 1946 634 1946 
Q 525 1946 441 2029 
Q 358 2112 358 2240 
Q 358 2547 685 2752 
Q 986 2944 1421 2944 
Q 1939 2944 2176 2656 
Q 2291 2522 2323 2384 
Q 2355 2246 2355 1946 
L 2355 723 
Q 2355 301 2554 301 
Q 2682 301 2829 422 
z
M 1837 813 
L 1837 1715 
Q 1248 1510 1018 1293 
Q 800 1094 800 800 
Q 800 557 921 432 
Q 1043 307 1242 307 
Q 1453 307 1613 410 
Q 1747 506 1792 589 
Q 1837 672 1837 813 
z
" transform="scale(0.015625)"/>
      <path id="STIXGeneral-Regular-6e" d="M 3104 0 
L 1773 0 
L 1779 96 
Q 2016 115 2096 233 
Q 2176 352 2176 672 
L 2176 1946 
Q 2176 2592 1709 2592 
Q 1549 2592 1408 2515 
Q 1267 2438 1050 2227 
L 1050 461 
Q 1050 269 1136 192 
Q 1222 115 1466 96 
L 1466 0 
L 115 0 
L 115 96 
Q 358 115 435 214 
Q 512 314 512 602 
L 512 2157 
Q 512 2394 467 2483 
Q 422 2573 288 2573 
Q 160 2573 102 2547 
L 102 2656 
Q 550 2784 979 2944 
L 1030 2925 
L 1030 2426 
L 1037 2426 
Q 1491 2944 1958 2944 
Q 2323 2944 2518 2688 
Q 2714 2432 2714 1958 
L 2714 544 
Q 2714 288 2790 205 
Q 2867 122 3104 96 
L 3104 0 
z
" transform="scale(0.015625)"/>
      <path id="STIXGeneral-Regular-3d" d="M 4077 2048 
L 307 2048 
L 307 2470 
L 4077 2470 
L 4077 2048 
z
M 4077 768 
L 307 768 
L 307 1190 
L 4077 1190 
L 4077 768 
z
" transform="scale(0.015625)"/>
     </defs>
     <use xlink:href="#STIXGeneral-Regular-6d"/>
     <use xlink:href="#STIXGeneral-Regular-65" x="77.799988"/>
     <use xlink:href="#STIXGeneral-Regular-61" x="122.199982"/>
     <use xlink:href="#STIXGeneral-Regular-6e" x="166.599976"/>
     <use xlink:href="#STIXGeneral-Regular-3d" x="216.59996"/>
     <use xlink:href="#STIXGeneral-Regular-31" x="285.099945"/>
    </g>
   </g>
   <g id="text_12">
    <!-- alpha -->
    <g style="fill: #262626" transform="translate(16.613501 18.956118) scale(0.172133 -0.172133)">
     <defs>
      <path id="STIXGeneral-Regular-6c" d="M 1645 0 
L 134 0 
L 134 96 
Q 435 122 531 221 
Q 627 320 627 589 
L 627 3590 
Q 627 3821 569 3910 
Q 512 4000 358 4000 
Q 224 4000 122 3987 
L 122 4090 
Q 730 4237 1133 4371 
L 1165 4346 
L 1165 557 
Q 1165 288 1254 201 
Q 1344 115 1645 96 
L 1645 0 
z
" transform="scale(0.015625)"/>
      <path id="STIXGeneral-Regular-70" d="M 1018 2931 
L 1018 2438 
Q 1421 2944 1939 2944 
Q 2406 2944 2707 2560 
Q 3008 2176 3008 1581 
Q 3008 883 2621 409 
Q 2234 -64 1664 -64 
Q 1466 -64 1328 -6 
Q 1190 51 1018 211 
L 1018 -794 
Q 1018 -1094 1120 -1180 
Q 1222 -1267 1581 -1274 
L 1581 -1389 
L 32 -1389 
L 32 -1280 
Q 314 -1254 397 -1171 
Q 480 -1088 480 -838 
L 480 2157 
Q 480 2381 429 2451 
Q 378 2522 218 2522 
Q 115 2522 58 2515 
L 58 2618 
Q 506 2752 979 2944 
L 1018 2931 
z
M 1018 2138 
L 1018 563 
Q 1018 422 1238 281 
Q 1459 141 1683 141 
Q 2029 141 2243 467 
Q 2458 794 2458 1325 
Q 2458 1888 2243 2224 
Q 2029 2560 1670 2560 
Q 1446 2560 1232 2419 
Q 1018 2278 1018 2138 
z
" transform="scale(0.015625)"/>
      <path id="STIXGeneral-Regular-68" d="M 3117 0 
L 1760 0 
L 1760 96 
Q 2042 128 2118 224 
Q 2195 320 2195 653 
L 2195 1920 
Q 2195 2598 1722 2598 
Q 1530 2598 1370 2508 
Q 1210 2419 1005 2195 
L 1005 653 
Q 1005 320 1081 224 
Q 1158 128 1440 96 
L 1440 0 
L 58 0 
L 58 96 
Q 333 134 400 224 
Q 467 314 467 653 
L 467 3667 
Q 467 3872 406 3933 
Q 346 3994 141 3994 
Q 83 3994 64 3987 
L 64 4090 
L 237 4141 
Q 730 4288 973 4371 
L 1005 4352 
L 1005 2406 
Q 1229 2694 1446 2819 
Q 1664 2944 1946 2944 
Q 2733 2944 2733 1926 
L 2733 653 
Q 2733 320 2793 233 
Q 2854 147 3117 96 
L 3117 0 
z
" transform="scale(0.015625)"/>
     </defs>
     <use xlink:href="#STIXGeneral-Regular-61"/>
     <use xlink:href="#STIXGeneral-Regular-6c" x="44.399994"/>
     <use xlink:href="#STIXGeneral-Regular-70" x="72.199982"/>
     <use xlink:href="#STIXGeneral-Regular-68" x="122.199966"/>
     <use xlink:href="#STIXGeneral-Regular-61" x="172.199951"/>
    </g>
   </g>
  </g>
 </g>
 <defs>
  <clipPath id="pede3953bc3">
   <rect x="16.613501" y="24.956118" width="551.172518" height="316.18796"/>
  </clipPath>
 </defs>
</svg>