<?xml version="1.0" encoding="utf-8" standalone="no"?>
<!DOCTYPE svg PUBLIC "-//W3C//DTD SVG 1.1//EN"
  "http://www.w3.org/Graphics/SVG/1.1/DTD/svg11.dtd">
<svg xmlns:xlink="http://www.w3.org/1999/xlink" width="517.2pt" height="293.936406pt" viewBox="0 0 517.2 293.936406" xmlns="http://www.w3.org/2000/svg" version="1.1">
 <metadata>
  <rdf:RDF xmlns:dc="http://purl.org/dc/elements/1.1/" xmlns:cc="http://creativecommons.org/ns#" xmlns:rdf="http://www.w3.org/1999/02/22-rdf-syntax-ns#">
   <cc:Work>
    <dc:type rdf:resource="http://purl.org/dc/dcmitype/StillImage"/>
    <dc:date>2023-09-07T20:40:41.308461</dc:date>
    <dc:format>image/svg+xml</dc:format>
    <dc:creator>
     <cc:Agent>
      <dc:title>Matplotlib v3.7.2, https://matplotlib.org/</dc:title>
     </cc:Agent>
    </dc:creator>
   </cc:Work>
  </rdf:RDF>
 </metadata>
 <defs>
  <style type="text/css">*{stroke-linejoin: round; stroke-linecap: butt}</style>
 </defs>
 <g id="figure_1">
  <g id="patch_1">
   <path d="M 0 293.936406 
L 517.2 293.936406 
L 517.2 0 
L 0 0 
z
" style="fill: #ffffff"/>
  </g>
  <g id="axes_1">
   <g id="patch_2">
    <path d="M 63.6 247.936406 
L 510 247.936406 
L 510 26.176406 
L 63.6 26.176406 
z
" style="fill: #ffffff"/>
   </g>
   <g id="PathCollection_1">
    <path d="M 83.890909 213.475923 
C 84.421315 213.475923 84.930069 213.265191 85.305123 212.890137 
C 85.680176 212.515083 85.890909 212.00633 85.890909 211.475923 
C 85.890909 210.945517 85.680176 210.436764 85.305123 210.06171 
C 84.930069 209.686656 84.421315 209.475923 83.890909 209.475923 
C 83.360503 209.475923 82.851749 209.686656 82.476696 210.06171 
C 82.101642 210.436764 81.890909 210.945517 81.890909 211.475923 
C 81.890909 212.00633 82.101642 212.515083 82.476696 212.890137 
C 82.851749 213.265191 83.360503 213.475923 83.890909 213.475923 
z
" clip-path="url(#p252f224264)" style="fill: #4c72b0; fill-opacity: 0.2; stroke: #4c72b0; stroke-width: 0.75"/>
    <path d="M 85.667121 198.21046 
C 86.197528 198.21046 86.706281 197.999727 87.081335 197.624673 
C 87.456389 197.24962 87.667121 196.740866 87.667121 196.21046 
C 87.667121 195.680054 87.456389 195.1713 87.081335 194.796246 
C 86.706281 194.421193 86.197528 194.21046 85.667121 194.21046 
C 85.136715 194.21046 84.627962 194.421193 84.252908 194.796246 
C 83.877854 195.1713 83.667121 195.680054 83.667121 196.21046 
C 83.667121 196.740866 83.877854 197.24962 84.252908 197.624673 
C 84.627962 197.999727 85.136715 198.21046 85.667121 198.21046 
z
" clip-path="url(#p252f224264)" style="fill: #4c72b0; fill-opacity: 0.2; stroke: #4c72b0; stroke-width: 0.75"/>
    <path d="M 87.674549 189.779594 
C 88.204955 189.779594 88.713709 189.568861 89.088763 189.193807 
C 89.463817 188.818754 89.674549 188.31 89.674549 187.779594 
C 89.674549 187.249188 89.463817 186.740434 89.088763 186.36538 
C 88.713709 185.990326 88.204955 185.779594 87.674549 185.779594 
C 87.144143 185.779594 86.63539 185.990326 86.260336 186.36538 
C 85.885282 186.740434 85.674549 187.249188 85.674549 187.779594 
C 85.674549 188.31 85.885282 188.818754 86.260336 189.193807 
C 86.63539 189.568861 87.144143 189.779594 87.674549 189.779594 
z
" clip-path="url(#p252f224264)" style="fill: #4c72b0; fill-opacity: 0.2; stroke: #4c72b0; stroke-width: 0.75"/>
    <path d="M 89.798336 192.570283 
C 90.328743 192.570283 90.837496 192.35955 91.21255 191.984496 
C 91.587604 191.609442 91.798336 191.100689 91.798336 190.570283 
C 91.798336 190.039876 91.587604 189.531123 91.21255 189.156069 
C 90.837496 188.781015 90.328743 188.570283 89.798336 188.570283 
C 89.26793 188.570283 88.759177 188.781015 88.384123 189.156069 
C 88.009069 189.531123 87.798336 190.039876 87.798336 190.570283 
C 87.798336 191.100689 88.009069 191.609442 88.384123 191.984496 
C 88.759177 192.35955 89.26793 192.570283 89.798336 192.570283 
z
" clip-path="url(#p252f224264)" style="fill: #4c72b0; fill-opacity: 0.2; stroke: #4c72b0; stroke-width: 0.75"/>
    <path d="M 91.954786 185.718928 
C 92.485192 185.718928 92.993945 185.508196 93.368999 185.133142 
C 93.744053 184.758088 93.954786 184.249334 93.954786 183.718928 
C 93.954786 183.188522 93.744053 182.679768 93.368999 182.304715 
C 92.993945 181.929661 92.485192 181.718928 91.954786 181.718928 
C 91.424379 181.718928 90.915626 181.929661 90.540572 182.304715 
C 90.165518 182.679768 89.954786 183.188522 89.954786 183.718928 
C 89.954786 184.249334 90.165518 184.758088 90.540572 185.133142 
C 90.915626 185.508196 91.424379 185.718928 91.954786 185.718928 
z
" clip-path="url(#p252f224264)" style="fill: #4c72b0; fill-opacity: 0.2; stroke: #4c72b0; stroke-width: 0.75"/>
    <path d="M 94.098609 182.609268 
C 94.629015 182.609268 95.137769 182.398535 95.512822 182.023481 
C 95.887876 181.648427 96.098609 181.139674 96.098609 180.609268 
C 96.098609 180.078861 95.887876 179.570108 95.512822 179.195054 
C 95.137769 178.82 94.629015 178.609268 94.098609 178.609268 
C 93.568203 178.609268 93.059449 178.82 92.684395 179.195054 
C 92.309341 179.570108 92.098609 180.078861 92.098609 180.609268 
C 92.098609 181.139674 92.309341 181.648427 92.684395 182.023481 
C 93.059449 182.398535 93.568203 182.609268 94.098609 182.609268 
z
" clip-path="url(#p252f224264)" style="fill: #4c72b0; fill-opacity: 0.2; stroke: #4c72b0; stroke-width: 0.75"/>
    <path d="M 96.503611 175.949765 
C 97.034018 175.949765 97.542771 175.739032 97.917825 175.363978 
C 98.292879 174.988924 98.503611 174.480171 98.503611 173.949765 
C 98.503611 173.419359 98.292879 172.910605 97.917825 172.535551 
C 97.542771 172.160497 97.034018 171.949765 96.503611 171.949765 
C 95.973205 171.949765 95.464452 172.160497 95.089398 172.535551 
C 94.714344 172.910605 94.503611 173.419359 94.503611 173.949765 
C 94.503611 174.480171 94.714344 174.988924 95.089398 175.363978 
C 95.464452 175.739032 95.973205 175.949765 96.503611 175.949765 
z
" clip-path="url(#p252f224264)" style="fill: #4c72b0; fill-opacity: 0.2; stroke: #4c72b0; stroke-width: 0.75"/>
    <path d="M 99.292126 166.599771 
C 99.822532 166.599771 100.331286 166.389038 100.70634 166.013985 
C 101.081393 165.638931 101.292126 165.130177 101.292126 164.599771 
C 101.292126 164.069365 101.081393 163.560611 100.70634 163.185557 
C 100.331286 162.810504 99.822532 162.599771 99.292126 162.599771 
C 98.76172 162.599771 98.252966 162.810504 97.877913 163.185557 
C 97.502859 163.560611 97.292126 164.069365 97.292126 164.599771 
C 97.292126 165.130177 97.502859 165.638931 97.877913 166.013985 
C 98.252966 166.389038 98.76172 166.599771 99.292126 166.599771 
z
" clip-path="url(#p252f224264)" style="fill: #4c72b0; fill-opacity: 0.2; stroke: #4c72b0; stroke-width: 0.75"/>
    <path d="M 102.167936 153.712613 
C 102.698342 153.712613 103.207096 153.50188 103.58215 153.126826 
C 103.957204 152.751773 104.167936 152.243019 104.167936 151.712613 
C 104.167936 151.182207 103.957204 150.673453 103.58215 150.298399 
C 103.207096 149.923345 102.698342 149.712613 102.167936 149.712613 
C 101.63753 149.712613 101.128776 149.923345 100.753723 150.298399 
C 100.378669 150.673453 100.167936 151.182207 100.167936 151.712613 
C 100.167936 152.243019 100.378669 152.751773 100.753723 153.126826 
C 101.128776 153.50188 101.63753 153.712613 102.167936 153.712613 
z
" clip-path="url(#p252f224264)" style="fill: #4c72b0; fill-opacity: 0.2; stroke: #4c72b0; stroke-width: 0.75"/>
    <path d="M 104.986277 161.10295 
C 105.516683 161.10295 106.025437 160.892218 106.400491 160.517164 
C 106.775545 160.14211 106.986277 159.633357 106.986277 159.10295 
C 106.986277 158.572544 106.775545 158.063791 106.400491 157.688737 
C 106.025437 157.313683 105.516683 157.10295 104.986277 157.10295 
C 104.455871 157.10295 103.947117 157.313683 103.572064 157.688737 
C 103.19701 158.063791 102.986277 158.572544 102.986277 159.10295 
C 102.986277 159.633357 103.19701 160.14211 103.572064 160.517164 
C 103.947117 160.892218 104.455871 161.10295 104.986277 161.10295 
z
" clip-path="url(#p252f224264)" style="fill: #4c72b0; fill-opacity: 0.2; stroke: #4c72b0; stroke-width: 0.75"/>
    <path d="M 107.82636 132.3504 
C 108.356766 132.3504 108.86552 132.139668 109.240574 131.764614 
C 109.615627 131.38956 109.82636 130.880806 109.82636 130.3504 
C 109.82636 129.819994 109.615627 129.31124 109.240574 128.936187 
C 108.86552 128.561133 108.356766 128.3504 107.82636 128.3504 
C 107.295954 128.3504 106.7872 128.561133 106.412147 128.936187 
C 106.037093 129.31124 105.82636 129.819994 105.82636 130.3504 
C 105.82636 130.880806 106.037093 131.38956 106.412147 131.764614 
C 106.7872 132.139668 107.295954 132.3504 107.82636 132.3504 
z
" clip-path="url(#p252f224264)" style="fill: #4c72b0; fill-opacity: 0.2; stroke: #4c72b0; stroke-width: 0.75"/>
    <path d="M 111.015101 154.323037 
C 111.545508 154.323037 112.054261 154.112305 112.429315 153.737251 
C 112.804369 153.362197 113.015101 152.853443 113.015101 152.323037 
C 113.015101 151.792631 112.804369 151.283878 112.429315 150.908824 
C 112.054261 150.53377 111.545508 150.323037 111.015101 150.323037 
C 110.484695 150.323037 109.975942 150.53377 109.600888 150.908824 
C 109.225834 151.283878 109.015101 151.792631 109.015101 152.323037 
C 109.015101 152.853443 109.225834 153.362197 109.600888 153.737251 
C 109.975942 154.112305 110.484695 154.323037 111.015101 154.323037 
z
" clip-path="url(#p252f224264)" style="fill: #4c72b0; fill-opacity: 0.2; stroke: #4c72b0; stroke-width: 0.75"/>
    <path d="M 114.561388 135.746654 
C 115.091794 135.746654 115.600547 135.535921 115.975601 135.160867 
C 116.350655 134.785813 116.561388 134.27706 116.561388 133.746654 
C 116.561388 133.216247 116.350655 132.707494 115.975601 132.33244 
C 115.600547 131.957386 115.091794 131.746654 114.561388 131.746654 
C 114.030981 131.746654 113.522228 131.957386 113.147174 132.33244 
C 112.77212 132.707494 112.561388 133.216247 112.561388 133.746654 
C 112.561388 134.27706 112.77212 134.785813 113.147174 135.160867 
C 113.522228 135.535921 114.030981 135.746654 114.561388 135.746654 
z
" clip-path="url(#p252f224264)" style="fill: #4c72b0; fill-opacity: 0.2; stroke: #4c72b0; stroke-width: 0.75"/>
    <path d="M 118.137574 141.346711 
C 118.66798 141.346711 119.176734 141.135978 119.551788 140.760925 
C 119.926842 140.385871 120.137574 139.877117 120.137574 139.346711 
C 120.137574 138.816305 119.926842 138.307551 119.551788 137.932498 
C 119.176734 137.557444 118.66798 137.346711 118.137574 137.346711 
C 117.607168 137.346711 117.098414 137.557444 116.723361 137.932498 
C 116.348307 138.307551 116.137574 138.816305 116.137574 139.346711 
C 116.137574 139.877117 116.348307 140.385871 116.723361 140.760925 
C 117.098414 141.135978 117.607168 141.346711 118.137574 141.346711 
z
" clip-path="url(#p252f224264)" style="fill: #4c72b0; fill-opacity: 0.2; stroke: #4c72b0; stroke-width: 0.75"/>
    <path d="M 122.096785 131.866322 
C 122.627191 131.866322 123.135945 131.655589 123.510999 131.280535 
C 123.886053 130.905482 124.096785 130.396728 124.096785 129.866322 
C 124.096785 129.335916 123.886053 128.827162 123.510999 128.452108 
C 123.135945 128.077055 122.627191 127.866322 122.096785 127.866322 
C 121.566379 127.866322 121.057626 128.077055 120.682572 128.452108 
C 120.307518 128.827162 120.096785 129.335916 120.096785 129.866322 
C 120.096785 130.396728 120.307518 130.905482 120.682572 131.280535 
C 121.057626 131.655589 121.566379 131.866322 122.096785 131.866322 
z
" clip-path="url(#p252f224264)" style="fill: #4c72b0; fill-opacity: 0.2; stroke: #4c72b0; stroke-width: 0.75"/>
    <path d="M 126.234348 131.863542 
C 126.764754 131.863542 127.273508 131.65281 127.648562 131.277756 
C 128.023615 130.902702 128.234348 130.393948 128.234348 129.863542 
C 128.234348 129.333136 128.023615 128.824383 127.648562 128.449329 
C 127.273508 128.074275 126.764754 127.863542 126.234348 127.863542 
C 125.703942 127.863542 125.195188 128.074275 124.820134 128.449329 
C 124.445081 128.824383 124.234348 129.333136 124.234348 129.863542 
C 124.234348 130.393948 124.445081 130.902702 124.820134 131.277756 
C 125.195188 131.65281 125.703942 131.863542 126.234348 131.863542 
z
" clip-path="url(#p252f224264)" style="fill: #4c72b0; fill-opacity: 0.2; stroke: #4c72b0; stroke-width: 0.75"/>
    <path d="M 130.795055 109.5725 
C 131.325461 109.5725 131.834215 109.361768 132.209269 108.986714 
C 132.584322 108.61166 132.795055 108.102907 132.795055 107.5725 
C 132.795055 107.042094 132.584322 106.533341 132.209269 106.158287 
C 131.834215 105.783233 131.325461 105.5725 130.795055 105.5725 
C 130.264649 105.5725 129.755895 105.783233 129.380841 106.158287 
C 129.005788 106.533341 128.795055 107.042094 128.795055 107.5725 
C 128.795055 108.102907 129.005788 108.61166 129.380841 108.986714 
C 129.755895 109.361768 130.264649 109.5725 130.795055 109.5725 
z
" clip-path="url(#p252f224264)" style="fill: #4c72b0; fill-opacity: 0.2; stroke: #4c72b0; stroke-width: 0.75"/>
    <path d="M 135.815747 113.022795 
C 136.346153 113.022795 136.854907 112.812062 137.229961 112.437008 
C 137.605015 112.061954 137.815747 111.553201 137.815747 111.022795 
C 137.815747 110.492389 137.605015 109.983635 137.229961 109.608581 
C 136.854907 109.233527 136.346153 109.022795 135.815747 109.022795 
C 135.285341 109.022795 134.776587 109.233527 134.401534 109.608581 
C 134.02648 109.983635 133.815747 110.492389 133.815747 111.022795 
C 133.815747 111.553201 134.02648 112.061954 134.401534 112.437008 
C 134.776587 112.812062 135.285341 113.022795 135.815747 113.022795 
z
" clip-path="url(#p252f224264)" style="fill: #4c72b0; fill-opacity: 0.2; stroke: #4c72b0; stroke-width: 0.75"/>
    <path d="M 141.160399 108.08109 
C 141.690805 108.08109 142.199559 107.870358 142.574613 107.495304 
C 142.949667 107.12025 143.160399 106.611497 143.160399 106.08109 
C 143.160399 105.550684 142.949667 105.041931 142.574613 104.666877 
C 142.199559 104.291823 141.690805 104.08109 141.160399 104.08109 
C 140.629993 104.08109 140.121239 104.291823 139.746186 104.666877 
C 139.371132 105.041931 139.160399 105.550684 139.160399 106.08109 
C 139.160399 106.611497 139.371132 107.12025 139.746186 107.495304 
C 140.121239 107.870358 140.629993 108.08109 141.160399 108.08109 
z
" clip-path="url(#p252f224264)" style="fill: #4c72b0; fill-opacity: 0.2; stroke: #4c72b0; stroke-width: 0.75"/>
    <path d="M 146.787388 109.062751 
C 147.317795 109.062751 147.826548 108.852018 148.201602 108.476964 
C 148.576656 108.10191 148.787388 107.593157 148.787388 107.062751 
C 148.787388 106.532344 148.576656 106.023591 148.201602 105.648537 
C 147.826548 105.273483 147.317795 105.062751 146.787388 105.062751 
C 146.256982 105.062751 145.748229 105.273483 145.373175 105.648537 
C 144.998121 106.023591 144.787388 106.532344 144.787388 107.062751 
C 144.787388 107.593157 144.998121 108.10191 145.373175 108.476964 
C 145.748229 108.852018 146.256982 109.062751 146.787388 109.062751 
z
" clip-path="url(#p252f224264)" style="fill: #4c72b0; fill-opacity: 0.2; stroke: #4c72b0; stroke-width: 0.75"/>
    <path d="M 152.848973 94.913573 
C 153.379379 94.913573 153.888133 94.70284 154.263187 94.327786 
C 154.63824 93.952733 154.848973 93.443979 154.848973 92.913573 
C 154.848973 92.383167 154.63824 91.874413 154.263187 91.499359 
C 153.888133 91.124305 153.379379 90.913573 152.848973 90.913573 
C 152.318567 90.913573 151.809813 91.124305 151.43476 91.499359 
C 151.059706 91.874413 150.848973 92.383167 150.848973 92.913573 
C 150.848973 93.443979 151.059706 93.952733 151.43476 94.327786 
C 151.809813 94.70284 152.318567 94.913573 152.848973 94.913573 
z
" clip-path="url(#p252f224264)" style="fill: #4c72b0; fill-opacity: 0.2; stroke: #4c72b0; stroke-width: 0.75"/>
    <path d="M 160.046824 111.285933 
C 160.57723 111.285933 161.085984 111.0752 161.461037 110.700147 
C 161.836091 110.325093 162.046824 109.816339 162.046824 109.285933 
C 162.046824 108.755527 161.836091 108.246773 161.461037 107.871719 
C 161.085984 107.496666 160.57723 107.285933 160.046824 107.285933 
C 159.516418 107.285933 159.007664 107.496666 158.63261 107.871719 
C 158.257556 108.246773 158.046824 108.755527 158.046824 109.285933 
C 158.046824 109.816339 158.257556 110.325093 158.63261 110.700147 
C 159.007664 111.0752 159.516418 111.285933 160.046824 111.285933 
z
" clip-path="url(#p252f224264)" style="fill: #4c72b0; fill-opacity: 0.2; stroke: #4c72b0; stroke-width: 0.75"/>
    <path d="M 168.911021 81.455034 
C 169.441428 81.455034 169.950181 81.244301 170.325235 80.869247 
C 170.700289 80.494194 170.911021 79.98544 170.911021 79.455034 
C 170.911021 78.924628 170.700289 78.415874 170.325235 78.04082 
C 169.950181 77.665766 169.441428 77.455034 168.911021 77.455034 
C 168.380615 77.455034 167.871862 77.665766 167.496808 78.04082 
C 167.121754 78.415874 166.911021 78.924628 166.911021 79.455034 
C 166.911021 79.98544 167.121754 80.494194 167.496808 80.869247 
C 167.871862 81.244301 168.380615 81.455034 168.911021 81.455034 
z
" clip-path="url(#p252f224264)" style="fill: #4c72b0; fill-opacity: 0.2; stroke: #4c72b0; stroke-width: 0.75"/>
    <path d="M 178.580112 122.872935 
C 179.110518 122.872935 179.619272 122.662202 179.994326 122.287148 
C 180.369379 121.912094 180.580112 121.403341 180.580112 120.872935 
C 180.580112 120.342528 180.369379 119.833775 179.994326 119.458721 
C 179.619272 119.083667 179.110518 118.872935 178.580112 118.872935 
C 178.049706 118.872935 177.540952 119.083667 177.165898 119.458721 
C 176.790845 119.833775 176.580112 120.342528 176.580112 120.872935 
C 176.580112 121.403341 176.790845 121.912094 177.165898 122.287148 
C 177.540952 122.662202 178.049706 122.872935 178.580112 122.872935 
z
" clip-path="url(#p252f224264)" style="fill: #4c72b0; fill-opacity: 0.2; stroke: #4c72b0; stroke-width: 0.75"/>
    <path d="M 190.237622 108.490963 
C 190.768028 108.490963 191.276781 108.280231 191.651835 107.905177 
C 192.026889 107.530123 192.237622 107.021369 192.237622 106.490963 
C 192.237622 105.960557 192.026889 105.451804 191.651835 105.07675 
C 191.276781 104.701696 190.768028 104.490963 190.237622 104.490963 
C 189.707215 104.490963 189.198462 104.701696 188.823408 105.07675 
C 188.448354 105.451804 188.237622 105.960557 188.237622 106.490963 
C 188.237622 107.021369 188.448354 107.530123 188.823408 107.905177 
C 189.198462 108.280231 189.707215 108.490963 190.237622 108.490963 
z
" clip-path="url(#p252f224264)" style="fill: #4c72b0; fill-opacity: 0.2; stroke: #4c72b0; stroke-width: 0.75"/>
    <path d="M 204.465703 139.55818 
C 204.99611 139.55818 205.504863 139.347448 205.879917 138.972394 
C 206.254971 138.59734 206.465703 138.088587 206.465703 137.55818 
C 206.465703 137.027774 206.254971 136.519021 205.879917 136.143967 
C 205.504863 135.768913 204.99611 135.55818 204.465703 135.55818 
C 203.935297 135.55818 203.426544 135.768913 203.05149 136.143967 
C 202.676436 136.519021 202.465703 137.027774 202.465703 137.55818 
C 202.465703 138.088587 202.676436 138.59734 203.05149 138.972394 
C 203.426544 139.347448 203.935297 139.55818 204.465703 139.55818 
z
" clip-path="url(#p252f224264)" style="fill: #4c72b0; fill-opacity: 0.2; stroke: #4c72b0; stroke-width: 0.75"/>
    <path d="M 224.13921 118.11491 
C 224.669616 118.11491 225.17837 117.904177 225.553424 117.529123 
C 225.928477 117.15407 226.13921 116.645316 226.13921 116.11491 
C 226.13921 115.584504 225.928477 115.07575 225.553424 114.700696 
C 225.17837 114.325642 224.669616 114.11491 224.13921 114.11491 
C 223.608804 114.11491 223.10005 114.325642 222.724996 114.700696 
C 222.349943 115.07575 222.13921 115.584504 222.13921 116.11491 
C 222.13921 116.645316 222.349943 117.15407 222.724996 117.529123 
C 223.10005 117.904177 223.608804 118.11491 224.13921 118.11491 
z
" clip-path="url(#p252f224264)" style="fill: #4c72b0; fill-opacity: 0.2; stroke: #4c72b0; stroke-width: 0.75"/>
    <path d="M 247.27836 138.211651 
C 247.808766 138.211651 248.31752 138.000918 248.692574 137.625865 
C 249.067628 137.250811 249.27836 136.742057 249.27836 136.211651 
C 249.27836 135.681245 249.067628 135.172491 248.692574 134.797437 
C 248.31752 134.422384 247.808766 134.211651 247.27836 134.211651 
C 246.747954 134.211651 246.2392 134.422384 245.864147 134.797437 
C 245.489093 135.172491 245.27836 135.681245 245.27836 136.211651 
C 245.27836 136.742057 245.489093 137.250811 245.864147 137.625865 
C 246.2392 138.000918 246.747954 138.211651 247.27836 138.211651 
z
" clip-path="url(#p252f224264)" style="fill: #4c72b0; fill-opacity: 0.2; stroke: #4c72b0; stroke-width: 0.75"/>
    <path d="M 277.315698 108.184383 
C 277.846104 108.184383 278.354857 107.97365 278.729911 107.598596 
C 279.104965 107.223542 279.315698 106.714789 279.315698 106.184383 
C 279.315698 105.653976 279.104965 105.145223 278.729911 104.770169 
C 278.354857 104.395115 277.846104 104.184383 277.315698 104.184383 
C 276.785291 104.184383 276.276538 104.395115 275.901484 104.770169 
C 275.52643 105.145223 275.315698 105.653976 275.315698 106.184383 
C 275.315698 106.714789 275.52643 107.223542 275.901484 107.598596 
C 276.276538 107.97365 276.785291 108.184383 277.315698 108.184383 
z
" clip-path="url(#p252f224264)" style="fill: #4c72b0; fill-opacity: 0.2; stroke: #4c72b0; stroke-width: 0.75"/>
    <path d="M 329.251193 108.220759 
C 329.781599 108.220759 330.290352 108.010027 330.665406 107.634973 
C 331.04046 107.259919 331.251193 106.751165 331.251193 106.220759 
C 331.251193 105.690353 331.04046 105.181599 330.665406 104.806546 
C 330.290352 104.431492 329.781599 104.220759 329.251193 104.220759 
C 328.720786 104.220759 328.212033 104.431492 327.836979 104.806546 
C 327.461925 105.181599 327.251193 105.690353 327.251193 106.220759 
C 327.251193 106.751165 327.461925 107.259919 327.836979 107.634973 
C 328.212033 108.010027 328.720786 108.220759 329.251193 108.220759 
z
" clip-path="url(#p252f224264)" style="fill: #4c72b0; fill-opacity: 0.2; stroke: #4c72b0; stroke-width: 0.75"/>
    <path d="M 489.709091 109.819372 
C 490.239497 109.819372 490.748251 109.608639 491.123304 109.233585 
C 491.498358 108.858531 491.709091 108.349778 491.709091 107.819372 
C 491.709091 107.288965 491.498358 106.780212 491.123304 106.405158 
C 490.748251 106.030104 490.239497 105.819372 489.709091 105.819372 
C 489.178685 105.819372 488.669931 106.030104 488.294877 106.405158 
C 487.919824 106.780212 487.709091 107.288965 487.709091 107.819372 
C 487.709091 108.349778 487.919824 108.858531 488.294877 109.233585 
C 488.669931 109.608639 489.178685 109.819372 489.709091 109.819372 
z
" clip-path="url(#p252f224264)" style="fill: #4c72b0; fill-opacity: 0.2; stroke: #4c72b0; stroke-width: 0.75"/>
   </g>
   <g id="matplotlib.axis_1">
    <g id="xtick_1">
     <g id="line2d_1">
      <defs>
       <path id="m7b90464af1" d="M 0 0 
L 0 3.5 
" style="stroke: #323034; stroke-width: 0.8"/>
      </defs>
      <g>
       <use xlink:href="#m7b90464af1" x="83.050236" y="247.936406" style="fill: #323034; stroke: #323034; stroke-width: 0.8"/>
      </g>
     </g>
     <g id="text_1">
      <!-- 0 -->
      <g style="fill: #323034" transform="translate(79.050236 265.863906) scale(0.16 -0.16)">
       <defs>
        <path id="STIXGeneral-Regular-30" d="M 3046 2112 
Q 3046 1683 2963 1302 
Q 2880 922 2717 602 
Q 2554 282 2266 96 
Q 1978 -90 1600 -90 
Q 1210 -90 915 108 
Q 621 307 461 640 
Q 301 973 227 1350 
Q 154 1728 154 2150 
Q 154 2746 301 3222 
Q 448 3699 790 4012 
Q 1133 4326 1626 4326 
Q 2253 4326 2649 3712 
Q 3046 3098 3046 2112 
z
M 2432 2080 
Q 2432 3091 2217 3625 
Q 2003 4160 1587 4160 
Q 1190 4160 979 3622 
Q 768 3085 768 2106 
Q 768 1120 979 598 
Q 1190 77 1600 77 
Q 2003 77 2217 598 
Q 2432 1120 2432 2080 
z
" transform="scale(0.015625)"/>
       </defs>
       <use xlink:href="#STIXGeneral-Regular-30"/>
      </g>
     </g>
    </g>
    <g id="xtick_2">
     <g id="line2d_2">
      <g>
       <use xlink:href="#m7b90464af1" x="155.559103" y="247.936406" style="fill: #323034; stroke: #323034; stroke-width: 0.8"/>
      </g>
     </g>
     <g id="text_2">
      <!-- 1 -->
      <g style="fill: #323034" transform="translate(151.559103 265.863906) scale(0.16 -0.16)">
       <defs>
        <path id="STIXGeneral-Regular-31" d="M 2522 0 
L 755 0 
L 755 96 
Q 1107 115 1235 227 
Q 1363 339 1363 608 
L 1363 3482 
Q 1363 3795 1171 3795 
Q 1082 3795 883 3718 
L 710 3654 
L 710 3744 
L 1856 4326 
L 1914 4307 
L 1914 486 
Q 1914 275 2042 185 
Q 2170 96 2522 96 
L 2522 0 
z
" transform="scale(0.015625)"/>
       </defs>
       <use xlink:href="#STIXGeneral-Regular-31"/>
      </g>
     </g>
    </g>
    <g id="xtick_3">
     <g id="line2d_3">
      <g>
       <use xlink:href="#m7b90464af1" x="228.067971" y="247.936406" style="fill: #323034; stroke: #323034; stroke-width: 0.8"/>
      </g>
     </g>
     <g id="text_3">
      <!-- 2 -->
      <g style="fill: #323034" transform="translate(224.067971 265.863906) scale(0.16 -0.16)">
       <defs>
        <path id="STIXGeneral-Regular-32" d="M 3034 877 
L 2688 0 
L 186 0 
L 186 77 
L 1325 1286 
Q 1773 1754 1965 2144 
Q 2157 2534 2157 2950 
Q 2157 3379 1920 3616 
Q 1683 3853 1267 3853 
Q 922 3853 720 3673 
Q 518 3494 326 3021 
L 192 3053 
Q 301 3648 630 3987 
Q 960 4326 1523 4326 
Q 2054 4326 2380 4006 
Q 2707 3686 2707 3200 
Q 2707 2477 1888 1613 
L 832 486 
L 2330 486 
Q 2541 486 2665 569 
Q 2790 653 2944 915 
L 3034 877 
z
" transform="scale(0.015625)"/>
       </defs>
       <use xlink:href="#STIXGeneral-Regular-32"/>
      </g>
     </g>
    </g>
    <g id="xtick_4">
     <g id="line2d_4">
      <g>
       <use xlink:href="#m7b90464af1" x="300.576838" y="247.936406" style="fill: #323034; stroke: #323034; stroke-width: 0.8"/>
      </g>
     </g>
     <g id="text_4">
      <!-- 3 -->
      <g style="fill: #323034" transform="translate(296.576838 265.863906) scale(0.16 -0.16)">
       <defs>
        <path id="STIXGeneral-Regular-33" d="M 390 3264 
L 288 3290 
Q 435 3770 748 4048 
Q 1062 4326 1542 4326 
Q 1990 4326 2265 4083 
Q 2541 3840 2541 3450 
Q 2541 2925 1946 2566 
Q 2298 2413 2477 2227 
Q 2758 1914 2758 1402 
Q 2758 890 2464 506 
Q 2246 211 1840 60 
Q 1434 -90 979 -90 
Q 262 -90 262 275 
Q 262 378 339 442 
Q 416 506 525 506 
Q 685 506 915 339 
Q 1197 141 1466 141 
Q 1818 141 2058 425 
Q 2298 710 2298 1120 
Q 2298 1856 1632 2048 
Q 1434 2112 979 2112 
L 979 2202 
Q 1338 2323 1517 2432 
Q 2035 2726 2035 3290 
Q 2035 3610 1852 3776 
Q 1670 3942 1344 3942 
Q 768 3942 390 3264 
z
" transform="scale(0.015625)"/>
       </defs>
       <use xlink:href="#STIXGeneral-Regular-33"/>
      </g>
     </g>
    </g>
    <g id="xtick_5">
     <g id="line2d_5">
      <g>
       <use xlink:href="#m7b90464af1" x="373.085706" y="247.936406" style="fill: #323034; stroke: #323034; stroke-width: 0.8"/>
      </g>
     </g>
     <g id="text_5">
      <!-- 4 -->
      <g style="fill: #323034" transform="translate(369.085706 265.863906) scale(0.16 -0.16)">
       <defs>
        <path id="STIXGeneral-Regular-34" d="M 3027 1069 
L 2368 1069 
L 2368 0 
L 1869 0 
L 1869 1069 
L 77 1069 
L 77 1478 
L 2086 4326 
L 2368 4326 
L 2368 1478 
L 3027 1478 
L 3027 1069 
z
M 1869 1478 
L 1869 3674 
L 333 1478 
L 1869 1478 
z
" transform="scale(0.015625)"/>
       </defs>
       <use xlink:href="#STIXGeneral-Regular-34"/>
      </g>
     </g>
    </g>
    <g id="xtick_6">
     <g id="line2d_6">
      <g>
       <use xlink:href="#m7b90464af1" x="445.594574" y="247.936406" style="fill: #323034; stroke: #323034; stroke-width: 0.8"/>
      </g>
     </g>
     <g id="text_6">
      <!-- 5 -->
      <g style="fill: #323034" transform="translate(441.594574 265.863906) scale(0.16 -0.16)">
       <defs>
        <path id="STIXGeneral-Regular-35" d="M 2803 4358 
L 2573 3814 
Q 2534 3731 2400 3731 
L 1158 3731 
L 902 3187 
Q 1606 3053 1920 2896 
Q 2234 2739 2502 2368 
Q 2726 2061 2726 1555 
Q 2726 1094 2576 780 
Q 2426 467 2099 224 
Q 1664 -90 1011 -90 
Q 646 -90 422 19 
Q 198 128 198 307 
Q 198 550 486 550 
Q 717 550 960 352 
Q 1210 147 1414 147 
Q 1747 147 2012 480 
Q 2278 813 2278 1229 
Q 2278 1843 1850 2189 
Q 1293 2637 486 2637 
Q 410 2637 410 2688 
L 416 2720 
L 1114 4237 
L 2438 4237 
Q 2547 4237 2608 4269 
Q 2669 4301 2746 4403 
L 2803 4358 
z
" transform="scale(0.015625)"/>
       </defs>
       <use xlink:href="#STIXGeneral-Regular-35"/>
      </g>
     </g>
    </g>
    <g id="text_7">
     <!-- age -->
     <g transform="translate(275.695 283.248906) scale(0.16 -0.16)">
      <defs>
       <path id="STIXGeneral-Regular-61" d="M 2829 422 
L 2829 243 
Q 2586 -64 2253 -64 
Q 1888 -64 1843 403 
L 1837 403 
Q 1427 -64 909 -64 
Q 608 -64 422 112 
Q 237 288 237 602 
Q 237 1050 685 1350 
Q 992 1555 1837 1869 
L 1837 2214 
Q 1837 2502 1699 2646 
Q 1562 2790 1338 2790 
Q 1146 2790 1018 2697 
Q 890 2605 890 2477 
Q 890 2419 909 2348 
Q 928 2278 928 2208 
Q 928 2112 841 2029 
Q 755 1946 634 1946 
Q 525 1946 441 2029 
Q 358 2112 358 2240 
Q 358 2547 685 2752 
Q 986 2944 1421 2944 
Q 1939 2944 2176 2656 
Q 2291 2522 2323 2384 
Q 2355 2246 2355 1946 
L 2355 723 
Q 2355 301 2554 301 
Q 2682 301 2829 422 
z
M 1837 813 
L 1837 1715 
Q 1248 1510 1018 1293 
Q 800 1094 800 800 
Q 800 557 921 432 
Q 1043 307 1242 307 
Q 1453 307 1613 410 
Q 1747 506 1792 589 
Q 1837 672 1837 813 
z
" transform="scale(0.015625)"/>
       <path id="STIXGeneral-Regular-67" d="M 3008 2483 
L 2477 2483 
Q 2598 2208 2598 1946 
Q 2598 1453 2265 1203 
Q 1933 954 1600 954 
Q 1530 954 1357 973 
L 1235 986 
Q 1107 947 979 812 
Q 851 678 851 582 
Q 851 435 1350 410 
L 2176 371 
Q 2528 358 2739 172 
Q 2950 -13 2950 -314 
Q 2950 -685 2566 -986 
Q 2035 -1395 1286 -1395 
Q 826 -1395 502 -1212 
Q 179 -1030 179 -774 
Q 179 -595 320 -419 
Q 461 -243 806 6 
Q 602 102 534 172 
Q 467 243 467 346 
Q 467 531 762 787 
Q 909 915 1037 1043 
Q 717 1203 579 1401 
Q 442 1600 442 1901 
Q 442 2336 752 2640 
Q 1062 2944 1510 2944 
Q 1766 2944 2022 2848 
L 2163 2797 
Q 2349 2733 2515 2733 
L 3008 2733 
L 3008 2483 
z
M 973 2163 
L 973 2144 
Q 973 1683 1155 1398 
Q 1338 1114 1632 1114 
Q 1850 1114 1978 1270 
Q 2106 1427 2106 1690 
Q 2106 2112 1914 2464 
Q 1754 2765 1446 2765 
Q 1222 2765 1097 2605 
Q 973 2445 973 2163 
z
M 2771 -410 
Q 2771 -230 2595 -163 
Q 2419 -96 1978 -96 
Q 1344 -96 941 -13 
Q 749 -243 688 -348 
Q 627 -454 627 -563 
Q 627 -774 880 -902 
Q 1133 -1030 1555 -1030 
Q 2099 -1030 2435 -860 
Q 2771 -691 2771 -410 
z
" transform="scale(0.015625)"/>
       <path id="STIXGeneral-Regular-65" d="M 2611 1050 
L 2714 1005 
Q 2330 -64 1376 -64 
Q 813 -64 486 329 
Q 160 723 160 1389 
Q 160 2074 525 2509 
Q 890 2944 1485 2944 
Q 2061 2944 2374 2502 
Q 2560 2246 2592 1773 
L 621 1773 
Q 646 1370 700 1158 
Q 755 947 915 730 
Q 1184 378 1626 378 
Q 1939 378 2153 531 
Q 2368 685 2611 1050 
z
M 634 1978 
L 1939 1978 
Q 1882 2381 1750 2547 
Q 1619 2714 1312 2714 
Q 1043 2714 864 2525 
Q 685 2336 634 1978 
z
" transform="scale(0.015625)"/>
      </defs>
      <use xlink:href="#STIXGeneral-Regular-61"/>
      <use xlink:href="#STIXGeneral-Regular-67" x="44.399994"/>
      <use xlink:href="#STIXGeneral-Regular-65" x="94.399979"/>
     </g>
    </g>
   </g>
   <g id="matplotlib.axis_2">
    <g id="ytick_1">
     <g id="line2d_7">
      <defs>
       <path id="mc7e50e35f6" d="M 0 0 
L -3.5 0 
" style="stroke: #323034; stroke-width: 0.8"/>
      </defs>
      <g>
       <use xlink:href="#mc7e50e35f6" x="63.6" y="236.686982" style="fill: #323034; stroke: #323034; stroke-width: 0.8"/>
      </g>
     </g>
     <g id="text_8">
      <!-- 1000 -->
      <g style="fill: #323034" transform="translate(24.6 242.150732) scale(0.16 -0.16)">
       <use xlink:href="#STIXGeneral-Regular-31"/>
       <use xlink:href="#STIXGeneral-Regular-30" x="49.999985"/>
       <use xlink:href="#STIXGeneral-Regular-30" x="99.999969"/>
       <use xlink:href="#STIXGeneral-Regular-30" x="149.999954"/>
      </g>
     </g>
    </g>
    <g id="ytick_2">
     <g id="line2d_8">
      <g>
       <use xlink:href="#mc7e50e35f6" x="63.6" y="210.366537" style="fill: #323034; stroke: #323034; stroke-width: 0.8"/>
      </g>
     </g>
     <g id="text_9">
      <!-- 1500 -->
      <g style="fill: #323034" transform="translate(24.6 215.830287) scale(0.16 -0.16)">
       <use xlink:href="#STIXGeneral-Regular-31"/>
       <use xlink:href="#STIXGeneral-Regular-35" x="49.999985"/>
       <use xlink:href="#STIXGeneral-Regular-30" x="99.999969"/>
       <use xlink:href="#STIXGeneral-Regular-30" x="149.999954"/>
      </g>
     </g>
    </g>
    <g id="ytick_3">
     <g id="line2d_9">
      <g>
       <use xlink:href="#mc7e50e35f6" x="63.6" y="184.046092" style="fill: #323034; stroke: #323034; stroke-width: 0.8"/>
      </g>
     </g>
     <g id="text_10">
      <!-- 2000 -->
      <g style="fill: #323034" transform="translate(24.6 189.509842) scale(0.16 -0.16)">
       <use xlink:href="#STIXGeneral-Regular-32"/>
       <use xlink:href="#STIXGeneral-Regular-30" x="49.999985"/>
       <use xlink:href="#STIXGeneral-Regular-30" x="99.999969"/>
       <use xlink:href="#STIXGeneral-Regular-30" x="149.999954"/>
      </g>
     </g>
    </g>
    <g id="ytick_4">
     <g id="line2d_10">
      <g>
       <use xlink:href="#mc7e50e35f6" x="63.6" y="157.725647" style="fill: #323034; stroke: #323034; stroke-width: 0.8"/>
      </g>
     </g>
     <g id="text_11">
      <!-- 2500 -->
      <g style="fill: #323034" transform="translate(24.6 163.189397) scale(0.16 -0.16)">
       <use xlink:href="#STIXGeneral-Regular-32"/>
       <use xlink:href="#STIXGeneral-Regular-35" x="49.999985"/>
       <use xlink:href="#STIXGeneral-Regular-30" x="99.999969"/>
       <use xlink:href="#STIXGeneral-Regular-30" x="149.999954"/>
      </g>
     </g>
    </g>
    <g id="ytick_5">
     <g id="line2d_11">
      <g>
       <use xlink:href="#mc7e50e35f6" x="63.6" y="131.405201" style="fill: #323034; stroke: #323034; stroke-width: 0.8"/>
      </g>
     </g>
     <g id="text_12">
      <!-- 3000 -->
      <g style="fill: #323034" transform="translate(24.6 136.868951) scale(0.16 -0.16)">
       <use xlink:href="#STIXGeneral-Regular-33"/>
       <use xlink:href="#STIXGeneral-Regular-30" x="49.999985"/>
       <use xlink:href="#STIXGeneral-Regular-30" x="99.999969"/>
       <use xlink:href="#STIXGeneral-Regular-30" x="149.999954"/>
      </g>
     </g>
    </g>
    <g id="ytick_6">
     <g id="line2d_12">
      <g>
       <use xlink:href="#mc7e50e35f6" x="63.6" y="105.084756" style="fill: #323034; stroke: #323034; stroke-width: 0.8"/>
      </g>
     </g>
     <g id="text_13">
      <!-- 3500 -->
      <g style="fill: #323034" transform="translate(24.6 110.548506) scale(0.16 -0.16)">
       <use xlink:href="#STIXGeneral-Regular-33"/>
       <use xlink:href="#STIXGeneral-Regular-35" x="49.999985"/>
       <use xlink:href="#STIXGeneral-Regular-30" x="99.999969"/>
       <use xlink:href="#STIXGeneral-Regular-30" x="149.999954"/>
      </g>
     </g>
    </g>
    <g id="ytick_7">
     <g id="line2d_13">
      <g>
       <use xlink:href="#mc7e50e35f6" x="63.6" y="78.764311" style="fill: #323034; stroke: #323034; stroke-width: 0.8"/>
      </g>
     </g>
     <g id="text_14">
      <!-- 4000 -->
      <g style="fill: #323034" transform="translate(24.6 84.228061) scale(0.16 -0.16)">
       <use xlink:href="#STIXGeneral-Regular-34"/>
       <use xlink:href="#STIXGeneral-Regular-30" x="49.999985"/>
       <use xlink:href="#STIXGeneral-Regular-30" x="99.999969"/>
       <use xlink:href="#STIXGeneral-Regular-30" x="149.999954"/>
      </g>
     </g>
    </g>
    <g id="ytick_8">
     <g id="line2d_14">
      <g>
       <use xlink:href="#mc7e50e35f6" x="63.6" y="52.443866" style="fill: #323034; stroke: #323034; stroke-width: 0.8"/>
      </g>
     </g>
     <g id="text_15">
      <!-- 4500 -->
      <g style="fill: #323034" transform="translate(24.6 57.907616) scale(0.16 -0.16)">
       <use xlink:href="#STIXGeneral-Regular-34"/>
       <use xlink:href="#STIXGeneral-Regular-35" x="49.999985"/>
       <use xlink:href="#STIXGeneral-Regular-30" x="99.999969"/>
       <use xlink:href="#STIXGeneral-Regular-30" x="149.999954"/>
      </g>
     </g>
    </g>
    <g id="text_16">
     <!-- sales -->
     <g transform="translate(18.1275 152.610156) rotate(-90) scale(0.16 -0.16)">
      <defs>
       <path id="STIXGeneral-Regular-73" d="M 998 1926 
L 1664 1523 
Q 1984 1331 2105 1164 
Q 2227 998 2227 736 
Q 2227 416 1961 176 
Q 1696 -64 1331 -64 
Q 1030 -64 864 -6 
Q 691 51 570 51 
Q 461 51 416 -26 
L 333 -26 
L 333 979 
L 435 979 
Q 538 512 730 294 
Q 922 77 1248 77 
Q 1485 77 1632 211 
Q 1779 346 1779 550 
Q 1779 845 1440 1030 
L 1094 1222 
Q 326 1651 326 2150 
Q 326 2522 566 2730 
Q 806 2938 1210 2938 
Q 1491 2938 1638 2867 
Q 1754 2816 1818 2816 
Q 1862 2816 1920 2880 
L 1990 2880 
L 2022 2010 
L 1926 2010 
Q 1818 2445 1654 2621 
Q 1491 2797 1203 2797 
Q 986 2797 854 2688 
Q 723 2579 723 2362 
Q 723 2253 796 2128 
Q 870 2003 998 1926 
z
" transform="scale(0.015625)"/>
       <path id="STIXGeneral-Regular-6c" d="M 1645 0 
L 134 0 
L 134 96 
Q 435 122 531 221 
Q 627 320 627 589 
L 627 3590 
Q 627 3821 569 3910 
Q 512 4000 358 4000 
Q 224 4000 122 3987 
L 122 4090 
Q 730 4237 1133 4371 
L 1165 4346 
L 1165 557 
Q 1165 288 1254 201 
Q 1344 115 1645 96 
L 1645 0 
z
" transform="scale(0.015625)"/>
      </defs>
      <use xlink:href="#STIXGeneral-Regular-73"/>
      <use xlink:href="#STIXGeneral-Regular-61" x="38.899994"/>
      <use xlink:href="#STIXGeneral-Regular-6c" x="83.299988"/>
      <use xlink:href="#STIXGeneral-Regular-65" x="111.099976"/>
      <use xlink:href="#STIXGeneral-Regular-73" x="155.499969"/>
     </g>
    </g>
   </g>
   <g id="LineCollection_1">
    <path d="M 83.890909 237.856406 
L 83.890909 185.095441 
" clip-path="url(#p252f224264)" style="fill: none; stroke: #bc80bd; stroke-opacity: 0.2; stroke-width: 2"/>
    <path d="M 85.667121 217.830647 
L 85.667121 174.590273 
" clip-path="url(#p252f224264)" style="fill: none; stroke: #bc80bd; stroke-opacity: 0.2; stroke-width: 2"/>
    <path d="M 87.674549 210.203045 
L 87.674549 165.356142 
" clip-path="url(#p252f224264)" style="fill: none; stroke: #bc80bd; stroke-opacity: 0.2; stroke-width: 2"/>
    <path d="M 89.798336 212.315305 
L 89.798336 168.82526 
" clip-path="url(#p252f224264)" style="fill: none; stroke: #bc80bd; stroke-opacity: 0.2; stroke-width: 2"/>
    <path d="M 91.954786 212.48543 
L 91.954786 154.952427 
" clip-path="url(#p252f224264)" style="fill: none; stroke: #bc80bd; stroke-opacity: 0.2; stroke-width: 2"/>
    <path d="M 94.098609 205.977829 
L 94.098609 155.240706 
" clip-path="url(#p252f224264)" style="fill: none; stroke: #bc80bd; stroke-opacity: 0.2; stroke-width: 2"/>
    <path d="M 96.503611 200.250825 
L 96.503611 147.648705 
" clip-path="url(#p252f224264)" style="fill: none; stroke: #bc80bd; stroke-opacity: 0.2; stroke-width: 2"/>
    <path d="M 99.292126 191.43328 
L 99.292126 137.766262 
" clip-path="url(#p252f224264)" style="fill: none; stroke: #bc80bd; stroke-opacity: 0.2; stroke-width: 2"/>
    <path d="M 102.167936 181.728466 
L 102.167936 121.696759 
" clip-path="url(#p252f224264)" style="fill: none; stroke: #bc80bd; stroke-opacity: 0.2; stroke-width: 2"/>
    <path d="M 104.986277 196.331711 
L 104.986277 121.87419 
" clip-path="url(#p252f224264)" style="fill: none; stroke: #bc80bd; stroke-opacity: 0.2; stroke-width: 2"/>
    <path d="M 107.82636 170.801095 
L 107.82636 89.899705 
" clip-path="url(#p252f224264)" style="fill: none; stroke: #bc80bd; stroke-opacity: 0.2; stroke-width: 2"/>
    <path d="M 111.015101 183.123905 
L 111.015101 121.52217 
" clip-path="url(#p252f224264)" style="fill: none; stroke: #bc80bd; stroke-opacity: 0.2; stroke-width: 2"/>
    <path d="M 114.561388 168.407574 
L 114.561388 99.085733 
" clip-path="url(#p252f224264)" style="fill: none; stroke: #bc80bd; stroke-opacity: 0.2; stroke-width: 2"/>
    <path d="M 118.137574 175.091496 
L 118.137574 103.601927 
" clip-path="url(#p252f224264)" style="fill: none; stroke: #bc80bd; stroke-opacity: 0.2; stroke-width: 2"/>
    <path d="M 122.096785 166.636031 
L 122.096785 93.096613 
" clip-path="url(#p252f224264)" style="fill: none; stroke: #bc80bd; stroke-opacity: 0.2; stroke-width: 2"/>
    <path d="M 126.234348 164.389165 
L 126.234348 95.33792 
" clip-path="url(#p252f224264)" style="fill: none; stroke: #bc80bd; stroke-opacity: 0.2; stroke-width: 2"/>
    <path d="M 130.795055 144.021781 
L 130.795055 71.12322 
" clip-path="url(#p252f224264)" style="fill: none; stroke: #bc80bd; stroke-opacity: 0.2; stroke-width: 2"/>
    <path d="M 135.815747 147.608712 
L 135.815747 74.436877 
" clip-path="url(#p252f224264)" style="fill: none; stroke: #bc80bd; stroke-opacity: 0.2; stroke-width: 2"/>
    <path d="M 141.160399 146.588386 
L 141.160399 65.573795 
" clip-path="url(#p252f224264)" style="fill: none; stroke: #bc80bd; stroke-opacity: 0.2; stroke-width: 2"/>
    <path d="M 146.787388 147.046434 
L 146.787388 67.079067 
" clip-path="url(#p252f224264)" style="fill: none; stroke: #bc80bd; stroke-opacity: 0.2; stroke-width: 2"/>
    <path d="M 152.848973 133.992531 
L 152.848973 51.834614 
" clip-path="url(#p252f224264)" style="fill: none; stroke: #bc80bd; stroke-opacity: 0.2; stroke-width: 2"/>
    <path d="M 160.046824 151.059991 
L 160.046824 67.511875 
" clip-path="url(#p252f224264)" style="fill: none; stroke: #bc80bd; stroke-opacity: 0.2; stroke-width: 2"/>
    <path d="M 168.911021 122.653661 
L 168.911021 36.256406 
" clip-path="url(#p252f224264)" style="fill: none; stroke: #bc80bd; stroke-opacity: 0.2; stroke-width: 2"/>
    <path d="M 178.580112 159.631 
L 178.580112 82.114869 
" clip-path="url(#p252f224264)" style="fill: none; stroke: #bc80bd; stroke-opacity: 0.2; stroke-width: 2"/>
    <path d="M 190.237622 145.501731 
L 190.237622 67.480195 
" clip-path="url(#p252f224264)" style="fill: none; stroke: #bc80bd; stroke-opacity: 0.2; stroke-width: 2"/>
    <path d="M 204.465703 174.847619 
L 204.465703 100.268742 
" clip-path="url(#p252f224264)" style="fill: none; stroke: #bc80bd; stroke-opacity: 0.2; stroke-width: 2"/>
    <path d="M 224.13921 153.887613 
L 224.13921 78.342207 
" clip-path="url(#p252f224264)" style="fill: none; stroke: #bc80bd; stroke-opacity: 0.2; stroke-width: 2"/>
    <path d="M 247.27836 172.910719 
L 247.27836 99.512583 
" clip-path="url(#p252f224264)" style="fill: none; stroke: #bc80bd; stroke-opacity: 0.2; stroke-width: 2"/>
    <path d="M 277.315698 147.532068 
L 277.315698 64.836697 
" clip-path="url(#p252f224264)" style="fill: none; stroke: #bc80bd; stroke-opacity: 0.2; stroke-width: 2"/>
    <path d="M 329.251193 149.29492 
L 329.251193 63.146599 
" clip-path="url(#p252f224264)" style="fill: none; stroke: #bc80bd; stroke-opacity: 0.2; stroke-width: 2"/>
    <path d="M 489.709091 160.411786 
L 489.709091 55.226957 
" clip-path="url(#p252f224264)" style="fill: none; stroke: #bc80bd; stroke-opacity: 0.2; stroke-width: 2"/>
   </g>
   <g id="line2d_15"/>
   <g id="patch_3">
    <path d="M 63.6 247.936406 
L 63.6 26.176406 
" style="fill: none; stroke: #000000; stroke-width: 0.6; stroke-linejoin: miter; stroke-linecap: square"/>
   </g>
   <g id="patch_4">
    <path d="M 63.6 247.936406 
L 510 247.936406 
" style="fill: none; stroke: #000000; stroke-width: 0.6; stroke-linejoin: miter; stroke-linecap: square"/>
   </g>
   <g id="text_17">
    <!-- Binscatter: sales as a function of age -->
    <g style="fill: #323034" transform="translate(63.6 20.176406) scale(0.19 -0.19)">
     <defs>
      <path id="STIXGeneral-Regular-42" d="M 2701 2234 
L 2701 2227 
Q 3181 2150 3482 1875 
Q 3795 1594 3795 1139 
Q 3795 608 3379 304 
Q 2963 0 2266 0 
L 109 0 
L 109 122 
Q 486 134 604 246 
Q 723 358 723 723 
L 723 3520 
Q 723 3891 614 3990 
Q 506 4090 109 4115 
L 109 4237 
L 1901 4237 
Q 2726 4237 3152 3958 
Q 3578 3680 3578 3168 
Q 3578 2733 3315 2502 
Q 3130 2342 2701 2234 
z
M 1376 2342 
L 1965 2342 
Q 2925 2342 2925 3136 
Q 2925 3546 2640 3773 
Q 2355 4000 1792 4000 
L 1530 4000 
Q 1376 4000 1376 3795 
L 1376 2342 
z
M 1376 2086 
L 1376 525 
Q 1376 365 1462 301 
Q 1549 237 1773 237 
Q 2208 237 2413 285 
Q 2618 333 2816 512 
Q 3059 723 3059 1146 
Q 3059 1632 2758 1830 
Q 2688 1882 2617 1917 
Q 2547 1952 2492 1974 
Q 2438 1997 2348 2016 
Q 2259 2035 2211 2044 
Q 2163 2054 2041 2060 
Q 1920 2067 1862 2070 
Q 1805 2074 1635 2080 
Q 1466 2086 1376 2086 
z
" transform="scale(0.015625)"/>
      <path id="STIXGeneral-Regular-69" d="M 1152 4045 
Q 1152 3904 1056 3811 
Q 960 3718 819 3718 
Q 685 3718 592 3811 
Q 499 3904 499 4045 
Q 499 4179 595 4275 
Q 691 4371 826 4371 
Q 966 4371 1059 4275 
Q 1152 4179 1152 4045 
z
M 1619 0 
L 102 0 
L 102 96 
Q 435 115 521 211 
Q 608 307 608 666 
L 608 2118 
Q 608 2342 563 2432 
Q 518 2522 397 2522 
Q 243 2522 128 2490 
L 128 2592 
L 1120 2944 
L 1146 2918 
L 1146 672 
Q 1146 314 1226 218 
Q 1306 122 1619 96 
L 1619 0 
z
" transform="scale(0.015625)"/>
      <path id="STIXGeneral-Regular-6e" d="M 3104 0 
L 1773 0 
L 1779 96 
Q 2016 115 2096 233 
Q 2176 352 2176 672 
L 2176 1946 
Q 2176 2592 1709 2592 
Q 1549 2592 1408 2515 
Q 1267 2438 1050 2227 
L 1050 461 
Q 1050 269 1136 192 
Q 1222 115 1466 96 
L 1466 0 
L 115 0 
L 115 96 
Q 358 115 435 214 
Q 512 314 512 602 
L 512 2157 
Q 512 2394 467 2483 
Q 422 2573 288 2573 
Q 160 2573 102 2547 
L 102 2656 
Q 550 2784 979 2944 
L 1030 2925 
L 1030 2426 
L 1037 2426 
Q 1491 2944 1958 2944 
Q 2323 2944 2518 2688 
Q 2714 2432 2714 1958 
L 2714 544 
Q 2714 288 2790 205 
Q 2867 122 3104 96 
L 3104 0 
z
" transform="scale(0.015625)"/>
      <path id="STIXGeneral-Regular-63" d="M 2547 998 
L 2637 941 
Q 2362 403 2112 205 
Q 1786 -64 1376 -64 
Q 845 -64 502 336 
Q 160 736 160 1357 
Q 160 2170 698 2618 
Q 1094 2944 1562 2944 
Q 1965 2944 2256 2749 
Q 2547 2554 2547 2285 
Q 2547 2176 2457 2096 
Q 2368 2016 2246 2016 
Q 2022 2016 1939 2310 
L 1901 2451 
Q 1850 2630 1773 2694 
Q 1696 2758 1523 2758 
Q 1133 2758 893 2451 
Q 653 2144 653 1645 
Q 653 1094 928 745 
Q 1203 397 1645 397 
Q 1920 397 2118 528 
Q 2317 659 2547 998 
z
" transform="scale(0.015625)"/>
      <path id="STIXGeneral-Regular-74" d="M 1702 493 
L 1786 422 
Q 1478 -64 1011 -64 
Q 448 -64 448 749 
L 448 2675 
L 109 2675 
Q 83 2694 83 2720 
Q 83 2771 192 2842 
Q 435 2982 813 3526 
Q 826 3546 874 3606 
Q 922 3667 941 3706 
Q 986 3706 986 3622 
L 986 2880 
L 1632 2880 
L 1632 2675 
L 986 2675 
L 986 845 
Q 986 538 1062 403 
Q 1139 269 1318 269 
Q 1510 269 1702 493 
z
" transform="scale(0.015625)"/>
      <path id="STIXGeneral-Regular-72" d="M 1024 2931 
L 1024 2342 
Q 1267 2688 1430 2816 
Q 1594 2944 1792 2944 
Q 1958 2944 2051 2854 
Q 2144 2765 2144 2605 
Q 2144 2470 2077 2393 
Q 2010 2317 1894 2317 
Q 1773 2317 1638 2445 
Q 1536 2541 1472 2541 
Q 1338 2541 1181 2355 
Q 1024 2170 1024 2016 
L 1024 576 
Q 1024 301 1133 205 
Q 1242 109 1568 96 
L 1568 0 
L 32 0 
L 32 96 
Q 339 154 412 224 
Q 486 294 486 538 
L 486 2138 
Q 486 2349 438 2435 
Q 390 2522 269 2522 
Q 166 2522 45 2496 
L 45 2598 
Q 448 2726 992 2944 
L 1024 2931 
z
" transform="scale(0.015625)"/>
      <path id="STIXGeneral-Regular-3a" d="M 1123 2832 
Q 1229 2726 1229 2579 
Q 1229 2432 1126 2329 
Q 1024 2227 877 2227 
Q 730 2227 624 2332 
Q 518 2438 518 2579 
Q 518 2733 620 2835 
Q 723 2938 877 2938 
Q 1018 2938 1123 2832 
z
M 1229 282 
Q 1229 141 1126 35 
Q 1024 -70 877 -70 
Q 730 -70 624 35 
Q 518 141 518 282 
Q 518 435 620 537 
Q 723 640 877 640 
Q 1018 640 1123 534 
Q 1229 429 1229 282 
z
" transform="scale(0.015625)"/>
      <path id="STIXGeneral-Regular-20" transform="scale(0.015625)"/>
      <path id="STIXGeneral-Regular-66" d="M 134 2880 
L 659 2880 
Q 666 3264 710 3478 
Q 755 3693 883 3910 
Q 1152 4371 1786 4371 
Q 2074 4371 2262 4259 
Q 2451 4147 2451 3974 
Q 2451 3866 2374 3789 
Q 2298 3712 2182 3712 
Q 2029 3712 1894 3942 
Q 1741 4192 1555 4192 
Q 1197 4192 1197 3622 
L 1197 2880 
L 1978 2880 
L 1978 2675 
L 1197 2675 
L 1197 666 
Q 1197 307 1299 208 
Q 1402 109 1792 96 
L 1792 0 
L 128 0 
L 128 96 
Q 474 115 566 214 
Q 659 314 659 666 
L 659 2675 
L 134 2675 
L 134 2880 
z
" transform="scale(0.015625)"/>
      <path id="STIXGeneral-Regular-75" d="M 3072 320 
L 3072 230 
Q 2573 96 2195 -58 
L 2163 -38 
L 2163 486 
L 2150 486 
Q 1747 -64 1235 -64 
Q 870 -64 662 160 
Q 454 384 454 755 
L 454 2362 
Q 454 2598 371 2688 
Q 288 2778 58 2790 
L 58 2880 
L 992 2880 
L 992 813 
Q 992 595 1123 451 
Q 1254 307 1446 307 
Q 1760 307 1984 506 
Q 2067 582 2099 649 
Q 2131 717 2131 877 
L 2131 2355 
Q 2131 2605 2041 2678 
Q 1952 2752 1658 2771 
L 1658 2880 
L 2669 2880 
L 2669 685 
Q 2669 461 2742 390 
Q 2816 320 3034 320 
L 3072 320 
z
" transform="scale(0.015625)"/>
      <path id="STIXGeneral-Regular-6f" d="M 3008 1478 
Q 3008 806 2608 371 
Q 2208 -64 1568 -64 
Q 979 -64 582 368 
Q 186 800 186 1459 
Q 186 2125 582 2534 
Q 979 2944 1626 2944 
Q 2221 2944 2614 2537 
Q 3008 2131 3008 1478 
z
M 2432 1306 
Q 2432 2035 2112 2445 
Q 1856 2765 1504 2765 
Q 1171 2765 966 2493 
Q 762 2221 762 1747 
Q 762 928 1101 435 
Q 1318 115 1677 115 
Q 2029 115 2230 432 
Q 2432 749 2432 1306 
z
" transform="scale(0.015625)"/>
     </defs>
     <use xlink:href="#STIXGeneral-Regular-42"/>
     <use xlink:href="#STIXGeneral-Regular-69" x="66.699997"/>
     <use xlink:href="#STIXGeneral-Regular-6e" x="94.499985"/>
     <use xlink:href="#STIXGeneral-Regular-73" x="144.499969"/>
     <use xlink:href="#STIXGeneral-Regular-63" x="183.399963"/>
     <use xlink:href="#STIXGeneral-Regular-61" x="227.799957"/>
     <use xlink:href="#STIXGeneral-Regular-74" x="272.199951"/>
     <use xlink:href="#STIXGeneral-Regular-74" x="299.999939"/>
     <use xlink:href="#STIXGeneral-Regular-65" x="327.799927"/>
     <use xlink:href="#STIXGeneral-Regular-72" x="372.199921"/>
     <use xlink:href="#STIXGeneral-Regular-3a" x="405.499908"/>
     <use xlink:href="#STIXGeneral-Regular-20" x="433.299896"/>
     <use xlink:href="#STIXGeneral-Regular-73" x="458.299881"/>
     <use xlink:href="#STIXGeneral-Regular-61" x="497.199875"/>
     <use xlink:href="#STIXGeneral-Regular-6c" x="541.599869"/>
     <use xlink:href="#STIXGeneral-Regular-65" x="569.399857"/>
     <use xlink:href="#STIXGeneral-Regular-73" x="613.79985"/>
     <use xlink:href="#STIXGeneral-Regular-20" x="652.699844"/>
     <use xlink:href="#STIXGeneral-Regular-61" x="677.699829"/>
     <use xlink:href="#STIXGeneral-Regular-73" x="722.099823"/>
     <use xlink:href="#STIXGeneral-Regular-20" x="760.999817"/>
     <use xlink:href="#STIXGeneral-Regular-61" x="785.999802"/>
     <use xlink:href="#STIXGeneral-Regular-20" x="830.399796"/>
     <use xlink:href="#STIXGeneral-Regular-66" x="855.39978"/>
     <use xlink:href="#STIXGeneral-Regular-75" x="888.699768"/>
     <use xlink:href="#STIXGeneral-Regular-6e" x="938.699753"/>
     <use xlink:href="#STIXGeneral-Regular-63" x="988.699738"/>
     <use xlink:href="#STIXGeneral-Regular-74" x="1033.099731"/>
     <use xlink:href="#STIXGeneral-Regular-69" x="1060.899719"/>
     <use xlink:href="#STIXGeneral-Regular-6f" x="1088.699707"/>
     <use xlink:href="#STIXGeneral-Regular-6e" x="1138.699692"/>
     <use xlink:href="#STIXGeneral-Regular-20" x="1188.699677"/>
     <use xlink:href="#STIXGeneral-Regular-6f" x="1213.699661"/>
     <use xlink:href="#STIXGeneral-Regular-66" x="1263.699646"/>
     <use xlink:href="#STIXGeneral-Regular-20" x="1296.999634"/>
     <use xlink:href="#STIXGeneral-Regular-61" x="1321.999619"/>
     <use xlink:href="#STIXGeneral-Regular-67" x="1366.399612"/>
     <use xlink:href="#STIXGeneral-Regular-65" x="1416.399597"/>
    </g>
   </g>
  </g>
 </g>
 <defs>
  <clipPath id="p252f224264">
   <rect x="63.6" y="26.176406" width="446.4" height="221.76"/>
  </clipPath>
 </defs>
</svg>