<?xml version="1.0" encoding="utf-8" standalone="no"?>
<!DOCTYPE svg PUBLIC "-//W3C//DTD SVG 1.1//EN"
  "http://www.w3.org/Graphics/SVG/1.1/DTD/svg11.dtd">
<svg xmlns:xlink="http://www.w3.org/1999/xlink" width="413.955938pt" height="309.024687pt" viewBox="0 0 413.955938 309.024687" xmlns="http://www.w3.org/2000/svg" version="1.1">
 <metadata>
  <rdf:RDF xmlns:dc="http://purl.org/dc/elements/1.1/" xmlns:cc="http://creativecommons.org/ns#" xmlns:rdf="http://www.w3.org/1999/02/22-rdf-syntax-ns#">
   <cc:Work>
    <dc:type rdf:resource="http://purl.org/dc/dcmitype/StillImage"/>
    <dc:date>2023-09-07T18:49:50.060879</dc:date>
    <dc:format>image/svg+xml</dc:format>
    <dc:creator>
     <cc:Agent>
      <dc:title>Matplotlib v3.7.2, https://matplotlib.org/</dc:title>
     </cc:Agent>
    </dc:creator>
   </cc:Work>
  </rdf:RDF>
 </metadata>
 <defs>
  <style type="text/css">*{stroke-linejoin: round; stroke-linecap: butt}</style>
 </defs>
 <g id="figure_1">
  <g id="patch_1">
   <path d="M 0 309.024687 
L 413.955938 309.024687 
L 413.955938 0 
L 0 0 
z
" style="fill: #ffffff; stroke: #ffffff; stroke-linejoin: miter"/>
  </g>
  <g id="axes_1">
   <g id="patch_2">
    <path d="M 49.635938 273.312 
L 406.755938 273.312 
L 406.755938 7.2 
L 49.635938 7.2 
z
" style="fill: #ffffff; stroke: #7f7f7f; stroke-linejoin: miter"/>
   </g>
   <g id="matplotlib.axis_1">
    <g id="xtick_1">
     <g id="line2d_1">
      <path d="M 65.86832 273.312 
L 65.86832 7.2 
" clip-path="url(#pdb3417924b)" style="fill: none; stroke: #e5e5e5; stroke-width: 0.8"/>
     </g>
     <g id="line2d_2">
      <path d="M 65.86832 273.312 
" style="fill: none; stroke: #000000; stroke-width: 3"/>
      <defs>
       <path id="mcdf46cb25b" d="M 0 0 
L 0 2.75 
" style="stroke: #333333"/>
      </defs>
      <g>
       <use xlink:href="#mcdf46cb25b" x="65.86832" y="273.312" style="stroke: #333333"/>
      </g>
     </g>
     <g id="text_1">
      <!-- $\mathdefault{0}$ -->
      <g style="fill: #4d4d4d" transform="translate(63.05232 284.948625) scale(0.088 -0.088)">
       <defs>
        <path id="DejaVuSans-30" d="M 2034 4250 
Q 1547 4250 1301 3770 
Q 1056 3291 1056 2328 
Q 1056 1369 1301 889 
Q 1547 409 2034 409 
Q 2525 409 2770 889 
Q 3016 1369 3016 2328 
Q 3016 3291 2770 3770 
Q 2525 4250 2034 4250 
z
M 2034 4750 
Q 2819 4750 3233 4129 
Q 3647 3509 3647 2328 
Q 3647 1150 3233 529 
Q 2819 -91 2034 -91 
Q 1250 -91 836 529 
Q 422 1150 422 2328 
Q 422 3509 836 4129 
Q 1250 4750 2034 4750 
z
" transform="scale(0.015625)"/>
       </defs>
       <use xlink:href="#DejaVuSans-30" transform="translate(0 0.78125)"/>
      </g>
     </g>
    </g>
    <g id="xtick_2">
     <g id="line2d_3">
      <path d="M 145.949499 273.312 
L 145.949499 7.2 
" clip-path="url(#pdb3417924b)" style="fill: none; stroke: #e5e5e5; stroke-width: 0.8"/>
     </g>
     <g id="line2d_4">
      <path d="M 145.949499 273.312 
" style="fill: none; stroke: #000000; stroke-width: 3"/>
      <g>
       <use xlink:href="#mcdf46cb25b" x="145.949499" y="273.312" style="stroke: #333333"/>
      </g>
     </g>
     <g id="text_2">
      <!-- $\mathdefault{5}$ -->
      <g style="fill: #4d4d4d" transform="translate(143.133499 284.948625) scale(0.088 -0.088)">
       <defs>
        <path id="DejaVuSans-35" d="M 691 4666 
L 3169 4666 
L 3169 4134 
L 1269 4134 
L 1269 2991 
Q 1406 3038 1543 3061 
Q 1681 3084 1819 3084 
Q 2600 3084 3056 2656 
Q 3513 2228 3513 1497 
Q 3513 744 3044 326 
Q 2575 -91 1722 -91 
Q 1428 -91 1123 -41 
Q 819 9 494 109 
L 494 744 
Q 775 591 1075 516 
Q 1375 441 1709 441 
Q 2250 441 2565 725 
Q 2881 1009 2881 1497 
Q 2881 1984 2565 2268 
Q 2250 2553 1709 2553 
Q 1456 2553 1204 2497 
Q 953 2441 691 2322 
L 691 4666 
z
" transform="scale(0.015625)"/>
       </defs>
       <use xlink:href="#DejaVuSans-35" transform="translate(0 0.09375)"/>
      </g>
     </g>
    </g>
    <g id="xtick_3">
     <g id="line2d_5">
      <path d="M 226.030677 273.312 
L 226.030677 7.2 
" clip-path="url(#pdb3417924b)" style="fill: none; stroke: #e5e5e5; stroke-width: 0.8"/>
     </g>
     <g id="line2d_6">
      <path d="M 226.030677 273.312 
" style="fill: none; stroke: #000000; stroke-width: 3"/>
      <g>
       <use xlink:href="#mcdf46cb25b" x="226.030677" y="273.312" style="stroke: #333333"/>
      </g>
     </g>
     <g id="text_3">
      <!-- $\mathdefault{10}$ -->
      <g style="fill: #4d4d4d" transform="translate(220.398677 284.948625) scale(0.088 -0.088)">
       <defs>
        <path id="DejaVuSans-31" d="M 794 531 
L 1825 531 
L 1825 4091 
L 703 3866 
L 703 4441 
L 1819 4666 
L 2450 4666 
L 2450 531 
L 3481 531 
L 3481 0 
L 794 0 
L 794 531 
z
" transform="scale(0.015625)"/>
       </defs>
       <use xlink:href="#DejaVuSans-31" transform="translate(0 0.78125)"/>
       <use xlink:href="#DejaVuSans-30" transform="translate(63.623047 0.78125)"/>
      </g>
     </g>
    </g>
    <g id="xtick_4">
     <g id="line2d_7">
      <path d="M 306.111855 273.312 
L 306.111855 7.2 
" clip-path="url(#pdb3417924b)" style="fill: none; stroke: #e5e5e5; stroke-width: 0.8"/>
     </g>
     <g id="line2d_8">
      <path d="M 306.111855 273.312 
" style="fill: none; stroke: #000000; stroke-width: 3"/>
      <g>
       <use xlink:href="#mcdf46cb25b" x="306.111855" y="273.312" style="stroke: #333333"/>
      </g>
     </g>
     <g id="text_4">
      <!-- $\mathdefault{15}$ -->
      <g style="fill: #4d4d4d" transform="translate(300.479855 284.948625) scale(0.088 -0.088)">
       <use xlink:href="#DejaVuSans-31" transform="translate(0 0.09375)"/>
       <use xlink:href="#DejaVuSans-35" transform="translate(63.623047 0.09375)"/>
      </g>
     </g>
    </g>
    <g id="xtick_5">
     <g id="line2d_9">
      <path d="M 386.193033 273.312 
L 386.193033 7.2 
" clip-path="url(#pdb3417924b)" style="fill: none; stroke: #e5e5e5; stroke-width: 0.8"/>
     </g>
     <g id="line2d_10">
      <path d="M 386.193033 273.312 
" style="fill: none; stroke: #000000; stroke-width: 3"/>
      <g>
       <use xlink:href="#mcdf46cb25b" x="386.193033" y="273.312" style="stroke: #333333"/>
      </g>
     </g>
     <g id="text_5">
      <!-- $\mathdefault{20}$ -->
      <g style="fill: #4d4d4d" transform="translate(380.561033 284.948625) scale(0.088 -0.088)">
       <defs>
        <path id="DejaVuSans-32" d="M 1228 531 
L 3431 531 
L 3431 0 
L 469 0 
L 469 531 
Q 828 903 1448 1529 
Q 2069 2156 2228 2338 
Q 2531 2678 2651 2914 
Q 2772 3150 2772 3378 
Q 2772 3750 2511 3984 
Q 2250 4219 1831 4219 
Q 1534 4219 1204 4116 
Q 875 4013 500 3803 
L 500 4441 
Q 881 4594 1212 4672 
Q 1544 4750 1819 4750 
Q 2544 4750 2975 4387 
Q 3406 4025 3406 3419 
Q 3406 3131 3298 2873 
Q 3191 2616 2906 2266 
Q 2828 2175 2409 1742 
Q 1991 1309 1228 531 
z
" transform="scale(0.015625)"/>
       </defs>
       <use xlink:href="#DejaVuSans-32" transform="translate(0 0.78125)"/>
       <use xlink:href="#DejaVuSans-30" transform="translate(63.623047 0.78125)"/>
      </g>
     </g>
    </g>
    <g id="xtick_6">
     <g id="line2d_11">
      <path d="M 105.908909 273.312 
L 105.908909 7.2 
" clip-path="url(#pdb3417924b)" style="fill: none; stroke: #fafafa"/>
     </g>
    </g>
    <g id="xtick_7">
     <g id="line2d_12">
      <path d="M 185.990088 273.312 
L 185.990088 7.2 
" clip-path="url(#pdb3417924b)" style="fill: none; stroke: #fafafa"/>
     </g>
    </g>
    <g id="xtick_8">
     <g id="line2d_13">
      <path d="M 266.071266 273.312 
L 266.071266 7.2 
" clip-path="url(#pdb3417924b)" style="fill: none; stroke: #fafafa"/>
     </g>
    </g>
    <g id="xtick_9">
     <g id="line2d_14">
      <path d="M 346.152444 273.312 
L 346.152444 7.2 
" clip-path="url(#pdb3417924b)" style="fill: none; stroke: #fafafa"/>
     </g>
    </g>
    <g id="text_6">
     <!-- age -->
     <g transform="translate(212.189609 299.537031) scale(0.11 -0.11)">
      <defs>
       <path id="DejaVuSans-61" d="M 2194 1759 
Q 1497 1759 1228 1600 
Q 959 1441 959 1056 
Q 959 750 1161 570 
Q 1363 391 1709 391 
Q 2188 391 2477 730 
Q 2766 1069 2766 1631 
L 2766 1759 
L 2194 1759 
z
M 3341 1997 
L 3341 0 
L 2766 0 
L 2766 531 
Q 2569 213 2275 61 
Q 1981 -91 1556 -91 
Q 1019 -91 701 211 
Q 384 513 384 1019 
Q 384 1609 779 1909 
Q 1175 2209 1959 2209 
L 2766 2209 
L 2766 2266 
Q 2766 2663 2505 2880 
Q 2244 3097 1772 3097 
Q 1472 3097 1187 3025 
Q 903 2953 641 2809 
L 641 3341 
Q 956 3463 1253 3523 
Q 1550 3584 1831 3584 
Q 2591 3584 2966 3190 
Q 3341 2797 3341 1997 
z
" transform="scale(0.015625)"/>
       <path id="DejaVuSans-67" d="M 2906 1791 
Q 2906 2416 2648 2759 
Q 2391 3103 1925 3103 
Q 1463 3103 1205 2759 
Q 947 2416 947 1791 
Q 947 1169 1205 825 
Q 1463 481 1925 481 
Q 2391 481 2648 825 
Q 2906 1169 2906 1791 
z
M 3481 434 
Q 3481 -459 3084 -895 
Q 2688 -1331 1869 -1331 
Q 1566 -1331 1297 -1286 
Q 1028 -1241 775 -1147 
L 775 -588 
Q 1028 -725 1275 -790 
Q 1522 -856 1778 -856 
Q 2344 -856 2625 -561 
Q 2906 -266 2906 331 
L 2906 616 
Q 2728 306 2450 153 
Q 2172 0 1784 0 
Q 1141 0 747 490 
Q 353 981 353 1791 
Q 353 2603 747 3093 
Q 1141 3584 1784 3584 
Q 2172 3584 2450 3431 
Q 2728 3278 2906 2969 
L 2906 3500 
L 3481 3500 
L 3481 434 
z
" transform="scale(0.015625)"/>
       <path id="DejaVuSans-65" d="M 3597 1894 
L 3597 1613 
L 953 1613 
Q 991 1019 1311 708 
Q 1631 397 2203 397 
Q 2534 397 2845 478 
Q 3156 559 3463 722 
L 3463 178 
Q 3153 47 2828 -22 
Q 2503 -91 2169 -91 
Q 1331 -91 842 396 
Q 353 884 353 1716 
Q 353 2575 817 3079 
Q 1281 3584 2069 3584 
Q 2775 3584 3186 3129 
Q 3597 2675 3597 1894 
z
M 3022 2063 
Q 3016 2534 2758 2815 
Q 2500 3097 2075 3097 
Q 1594 3097 1305 2825 
Q 1016 2553 972 2059 
L 3022 2063 
z
" transform="scale(0.015625)"/>
      </defs>
      <use xlink:href="#DejaVuSans-61"/>
      <use xlink:href="#DejaVuSans-67" x="61.279297"/>
      <use xlink:href="#DejaVuSans-65" x="124.755859"/>
     </g>
    </g>
   </g>
   <g id="matplotlib.axis_2">
    <g id="ytick_1">
     <g id="line2d_15">
      <path d="M 49.635938 195.75521 
L 406.755938 195.75521 
" clip-path="url(#pdb3417924b)" style="fill: none; stroke: #e5e5e5; stroke-width: 0.8"/>
     </g>
     <g id="line2d_16">
      <path d="M 49.635938 195.75521 
" style="fill: none; stroke: #000000; stroke-width: 3"/>
      <defs>
       <path id="mb789b2a69f" d="M 0 0 
L -2.75 0 
" style="stroke: #333333"/>
      </defs>
      <g>
       <use xlink:href="#mb789b2a69f" x="49.635938" y="195.75521" style="stroke: #333333"/>
      </g>
     </g>
     <g id="text_7">
      <!-- $\mathdefault{2000}$ -->
      <g style="fill: #4d4d4d" transform="translate(22.245938 198.18346) scale(0.088 -0.088)">
       <use xlink:href="#DejaVuSans-32" transform="translate(0 0.78125)"/>
       <use xlink:href="#DejaVuSans-30" transform="translate(63.623047 0.78125)"/>
       <use xlink:href="#DejaVuSans-30" transform="translate(127.246094 0.78125)"/>
       <use xlink:href="#DejaVuSans-30" transform="translate(190.869141 0.78125)"/>
      </g>
     </g>
    </g>
    <g id="ytick_2">
     <g id="line2d_17">
      <path d="M 49.635938 107.083572 
L 406.755938 107.083572 
" clip-path="url(#pdb3417924b)" style="fill: none; stroke: #e5e5e5; stroke-width: 0.8"/>
     </g>
     <g id="line2d_18">
      <path d="M 49.635938 107.083572 
" style="fill: none; stroke: #000000; stroke-width: 3"/>
      <g>
       <use xlink:href="#mb789b2a69f" x="49.635938" y="107.083572" style="stroke: #333333"/>
      </g>
     </g>
     <g id="text_8">
      <!-- $\mathdefault{3000}$ -->
      <g style="fill: #4d4d4d" transform="translate(22.245938 109.511822) scale(0.088 -0.088)">
       <defs>
        <path id="DejaVuSans-33" d="M 2597 2516 
Q 3050 2419 3304 2112 
Q 3559 1806 3559 1356 
Q 3559 666 3084 287 
Q 2609 -91 1734 -91 
Q 1441 -91 1130 -33 
Q 819 25 488 141 
L 488 750 
Q 750 597 1062 519 
Q 1375 441 1716 441 
Q 2309 441 2620 675 
Q 2931 909 2931 1356 
Q 2931 1769 2642 2001 
Q 2353 2234 1838 2234 
L 1294 2234 
L 1294 2753 
L 1863 2753 
Q 2328 2753 2575 2939 
Q 2822 3125 2822 3475 
Q 2822 3834 2567 4026 
Q 2313 4219 1838 4219 
Q 1578 4219 1281 4162 
Q 984 4106 628 3988 
L 628 4550 
Q 988 4650 1302 4700 
Q 1616 4750 1894 4750 
Q 2613 4750 3031 4423 
Q 3450 4097 3450 3541 
Q 3450 3153 3228 2886 
Q 3006 2619 2597 2516 
z
" transform="scale(0.015625)"/>
       </defs>
       <use xlink:href="#DejaVuSans-33" transform="translate(0 0.78125)"/>
       <use xlink:href="#DejaVuSans-30" transform="translate(63.623047 0.78125)"/>
       <use xlink:href="#DejaVuSans-30" transform="translate(127.246094 0.78125)"/>
       <use xlink:href="#DejaVuSans-30" transform="translate(190.869141 0.78125)"/>
      </g>
     </g>
    </g>
    <g id="ytick_3">
     <g id="line2d_19">
      <path d="M 49.635938 18.411933 
L 406.755938 18.411933 
" clip-path="url(#pdb3417924b)" style="fill: none; stroke: #e5e5e5; stroke-width: 0.8"/>
     </g>
     <g id="line2d_20">
      <path d="M 49.635938 18.411933 
" style="fill: none; stroke: #000000; stroke-width: 3"/>
      <g>
       <use xlink:href="#mb789b2a69f" x="49.635938" y="18.411933" style="stroke: #333333"/>
      </g>
     </g>
     <g id="text_9">
      <!-- $\mathdefault{4000}$ -->
      <g style="fill: #4d4d4d" transform="translate(22.245938 20.840183) scale(0.088 -0.088)">
       <defs>
        <path id="DejaVuSans-34" d="M 2419 4116 
L 825 1625 
L 2419 1625 
L 2419 4116 
z
M 2253 4666 
L 3047 4666 
L 3047 1625 
L 3713 1625 
L 3713 1100 
L 3047 1100 
L 3047 0 
L 2419 0 
L 2419 1100 
L 313 1100 
L 313 1709 
L 2253 4666 
z
" transform="scale(0.015625)"/>
       </defs>
       <use xlink:href="#DejaVuSans-34" transform="translate(0 0.78125)"/>
       <use xlink:href="#DejaVuSans-30" transform="translate(63.623047 0.78125)"/>
       <use xlink:href="#DejaVuSans-30" transform="translate(127.246094 0.78125)"/>
       <use xlink:href="#DejaVuSans-30" transform="translate(190.869141 0.78125)"/>
      </g>
     </g>
    </g>
    <g id="ytick_4">
     <g id="line2d_21">
      <path d="M 49.635938 240.09103 
L 406.755938 240.09103 
" clip-path="url(#pdb3417924b)" style="fill: none; stroke: #fafafa"/>
     </g>
    </g>
    <g id="ytick_5">
     <g id="line2d_22">
      <path d="M 49.635938 151.419391 
L 406.755938 151.419391 
" clip-path="url(#pdb3417924b)" style="fill: none; stroke: #fafafa"/>
     </g>
    </g>
    <g id="ytick_6">
     <g id="line2d_23">
      <path d="M 49.635938 62.747752 
L 406.755938 62.747752 
" clip-path="url(#pdb3417924b)" style="fill: none; stroke: #fafafa"/>
     </g>
    </g>
    <g id="text_10">
     <!-- sales -->
     <g transform="translate(15.558281 152.540969) rotate(-90) scale(0.11 -0.11)">
      <defs>
       <path id="DejaVuSans-73" d="M 2834 3397 
L 2834 2853 
Q 2591 2978 2328 3040 
Q 2066 3103 1784 3103 
Q 1356 3103 1142 2972 
Q 928 2841 928 2578 
Q 928 2378 1081 2264 
Q 1234 2150 1697 2047 
L 1894 2003 
Q 2506 1872 2764 1633 
Q 3022 1394 3022 966 
Q 3022 478 2636 193 
Q 2250 -91 1575 -91 
Q 1294 -91 989 -36 
Q 684 19 347 128 
L 347 722 
Q 666 556 975 473 
Q 1284 391 1588 391 
Q 1994 391 2212 530 
Q 2431 669 2431 922 
Q 2431 1156 2273 1281 
Q 2116 1406 1581 1522 
L 1381 1569 
Q 847 1681 609 1914 
Q 372 2147 372 2553 
Q 372 3047 722 3315 
Q 1072 3584 1716 3584 
Q 2034 3584 2315 3537 
Q 2597 3491 2834 3397 
z
" transform="scale(0.015625)"/>
       <path id="DejaVuSans-6c" d="M 603 4863 
L 1178 4863 
L 1178 0 
L 603 0 
L 603 4863 
z
" transform="scale(0.015625)"/>
      </defs>
      <use xlink:href="#DejaVuSans-73"/>
      <use xlink:href="#DejaVuSans-61" x="52.099609"/>
      <use xlink:href="#DejaVuSans-6c" x="113.378906"/>
      <use xlink:href="#DejaVuSans-65" x="141.162109"/>
      <use xlink:href="#DejaVuSans-73" x="202.685547"/>
     </g>
    </g>
   </g>
   <g id="PathCollection_1">
    <path d="M 66.119598 236.711194 
C 66.707173 236.711194 67.270762 236.477748 67.686241 236.06227 
C 68.101719 235.646791 68.335165 235.083202 68.335165 234.495627 
C 68.335165 233.908052 68.101719 233.344463 67.686241 232.928984 
C 67.270762 232.513506 66.707173 232.28006 66.119598 232.28006 
C 65.532023 232.28006 64.968434 232.513506 64.552955 232.928984 
C 64.137477 233.344463 63.904031 233.908052 63.904031 234.495627 
C 63.904031 235.083202 64.137477 235.646791 64.552955 236.06227 
C 64.968434 236.477748 65.532023 236.711194 66.119598 236.711194 
z
" clip-path="url(#pdb3417924b)" style="fill: #000080; stroke: #000080; stroke-width: 0.886227"/>
    <path d="M 66.675123 214.783024 
C 67.262698 214.783024 67.826287 214.549577 68.241766 214.134099 
C 68.657244 213.71862 68.89069 213.155032 68.89069 212.567456 
C 68.89069 211.979881 68.657244 211.416292 68.241766 211.000814 
C 67.826287 210.585335 67.262698 210.351889 66.675123 210.351889 
C 66.087548 210.351889 65.523959 210.585335 65.10848 211.000814 
C 64.693002 211.416292 64.459556 211.979881 64.459556 212.567456 
C 64.459556 213.155032 64.693002 213.71862 65.10848 214.134099 
C 65.523959 214.549577 66.087548 214.783024 66.675123 214.783024 
z
" clip-path="url(#pdb3417924b)" style="fill: #000080; stroke: #000080; stroke-width: 0.886227"/>
    <path d="M 67.295899 204.881025 
C 67.883474 204.881025 68.447063 204.647579 68.862541 204.232101 
C 69.27802 203.816622 69.511466 203.253033 69.511466 202.665458 
C 69.511466 202.077883 69.27802 201.514294 68.862541 201.098815 
C 68.447063 200.683337 67.883474 200.449891 67.295899 200.449891 
C 66.708323 200.449891 66.144735 200.683337 65.729256 201.098815 
C 65.313778 201.514294 65.080331 202.077883 65.080331 202.665458 
C 65.080331 203.253033 65.313778 203.816622 65.729256 204.232101 
C 66.144735 204.647579 66.708323 204.881025 67.295899 204.881025 
z
" clip-path="url(#pdb3417924b)" style="fill: #000080; stroke: #000080; stroke-width: 0.886227"/>
    <path d="M 67.940322 190.395899 
C 68.527897 190.395899 69.091486 190.162453 69.506965 189.746975 
C 69.922443 189.331496 70.155889 188.767907 70.155889 188.180332 
C 70.155889 187.592757 69.922443 187.029168 69.506965 186.613689 
C 69.091486 186.198211 68.527897 185.964765 67.940322 185.964765 
C 67.352747 185.964765 66.789158 186.198211 66.373679 186.613689 
C 65.958201 187.029168 65.724755 187.592757 65.724755 188.180332 
C 65.724755 188.767907 65.958201 189.331496 66.373679 189.746975 
C 66.789158 190.162453 67.352747 190.395899 67.940322 190.395899 
z
" clip-path="url(#pdb3417924b)" style="fill: #000080; stroke: #000080; stroke-width: 0.886227"/>
    <path d="M 68.598015 192.90357 
C 69.18559 192.90357 69.749179 192.670124 70.164658 192.254645 
C 70.580136 191.839167 70.813582 191.275578 70.813582 190.688002 
C 70.813582 190.100427 70.580136 189.536838 70.164658 189.12136 
C 69.749179 188.705881 69.18559 188.472435 68.598015 188.472435 
C 68.01044 188.472435 67.446851 188.705881 67.031372 189.12136 
C 66.615894 189.536838 66.382448 190.100427 66.382448 190.688002 
C 66.382448 191.275578 66.615894 191.839167 67.031372 192.254645 
C 67.446851 192.670124 68.01044 192.90357 68.598015 192.90357 
z
" clip-path="url(#pdb3417924b)" style="fill: #000080; stroke: #000080; stroke-width: 0.886227"/>
    <path d="M 69.399903 167.259012 
C 69.987478 167.259012 70.551067 167.025566 70.966546 166.610087 
C 71.382024 166.194609 71.61547 165.63102 71.61547 165.043444 
C 71.61547 164.455869 71.382024 163.89228 70.966546 163.476802 
C 70.551067 163.061323 69.987478 162.827877 69.399903 162.827877 
C 68.812328 162.827877 68.248739 163.061323 67.83326 163.476802 
C 67.417782 163.89228 67.184336 164.455869 67.184336 165.043444 
C 67.184336 165.63102 67.417782 166.194609 67.83326 166.610087 
C 68.248739 167.025566 68.812328 167.259012 69.399903 167.259012 
z
" clip-path="url(#pdb3417924b)" style="fill: #000080; stroke: #000080; stroke-width: 0.886227"/>
    <path d="M 70.250137 148.569793 
C 70.837712 148.569793 71.401301 148.336347 71.816779 147.920868 
C 72.232258 147.50539 72.465704 146.941801 72.465704 146.354226 
C 72.465704 145.76665 72.232258 145.203062 71.816779 144.787583 
C 71.401301 144.372105 70.837712 144.138658 70.250137 144.138658 
C 69.662561 144.138658 69.098972 144.372105 68.683494 144.787583 
C 68.268015 145.203062 68.034569 145.76665 68.034569 146.354226 
C 68.034569 146.941801 68.268015 147.50539 68.683494 147.920868 
C 69.098972 148.336347 69.662561 148.569793 70.250137 148.569793 
z
" clip-path="url(#pdb3417924b)" style="fill: #000080; stroke: #000080; stroke-width: 0.886227"/>
    <path d="M 71.099292 110.421182 
C 71.686867 110.421182 72.250456 110.187736 72.665934 109.772258 
C 73.081413 109.356779 73.314859 108.79319 73.314859 108.205615 
C 73.314859 107.61804 73.081413 107.054451 72.665934 106.638972 
C 72.250456 106.223494 71.686867 105.990048 71.099292 105.990048 
C 70.511716 105.990048 69.948128 106.223494 69.532649 106.638972 
C 69.117171 107.054451 68.883724 107.61804 68.883724 108.205615 
C 68.883724 108.79319 69.117171 109.356779 69.532649 109.772258 
C 69.948128 110.187736 70.511716 110.421182 71.099292 110.421182 
z
" clip-path="url(#pdb3417924b)" style="fill: #000080; stroke: #000080; stroke-width: 0.886227"/>
    <path d="M 72.016659 152.577506 
C 72.604234 152.577506 73.167823 152.34406 73.583302 151.928582 
C 73.99878 151.513103 74.232226 150.949514 74.232226 150.361939 
C 74.232226 149.774364 73.99878 149.210775 73.583302 148.795296 
C 73.167823 148.379818 72.604234 148.146372 72.016659 148.146372 
C 71.429084 148.146372 70.865495 148.379818 70.450016 148.795296 
C 70.034538 149.210775 69.801092 149.774364 69.801092 150.361939 
C 69.801092 150.949514 70.034538 151.513103 70.450016 151.928582 
C 70.865495 152.34406 71.429084 152.577506 72.016659 152.577506 
z
" clip-path="url(#pdb3417924b)" style="fill: #000080; stroke: #000080; stroke-width: 0.886227"/>
    <path d="M 73.062956 121.468938 
C 73.650532 121.468938 74.21412 121.235492 74.629599 120.820014 
C 75.045077 120.404535 75.278524 119.840946 75.278524 119.253371 
C 75.278524 118.665796 75.045077 118.102207 74.629599 117.686728 
C 74.21412 117.27125 73.650532 117.037804 73.062956 117.037804 
C 72.475381 117.037804 71.911792 117.27125 71.496314 117.686728 
C 71.080835 118.102207 70.847389 118.665796 70.847389 119.253371 
C 70.847389 119.840946 71.080835 120.404535 71.496314 120.820014 
C 71.911792 121.235492 72.475381 121.468938 73.062956 121.468938 
z
" clip-path="url(#pdb3417924b)" style="fill: #000080; stroke: #000080; stroke-width: 0.886227"/>
    <path d="M 74.186105 103.778996 
C 74.773681 103.778996 75.337269 103.54555 75.752748 103.130072 
C 76.168226 102.714593 76.401673 102.151004 76.401673 101.563429 
C 76.401673 100.975854 76.168226 100.412265 75.752748 99.996786 
C 75.337269 99.581308 74.773681 99.347862 74.186105 99.347862 
C 73.59853 99.347862 73.034941 99.581308 72.619463 99.996786 
C 72.203984 100.412265 71.970538 100.975854 71.970538 101.563429 
C 71.970538 102.151004 72.203984 102.714593 72.619463 103.130072 
C 73.034941 103.54555 73.59853 103.778996 74.186105 103.778996 
z
" clip-path="url(#pdb3417924b)" style="fill: #000080; stroke: #000080; stroke-width: 0.886227"/>
    <path d="M 75.411379 108.545569 
C 75.998955 108.545569 76.562544 108.312123 76.978022 107.896644 
C 77.393501 107.481166 77.626947 106.917577 77.626947 106.330001 
C 77.626947 105.742426 77.393501 105.178837 76.978022 104.763359 
C 76.562544 104.34788 75.998955 104.114434 75.411379 104.114434 
C 74.823804 104.114434 74.260215 104.34788 73.844737 104.763359 
C 73.429258 105.178837 73.195812 105.742426 73.195812 106.330001 
C 73.195812 106.917577 73.429258 107.481166 73.844737 107.896644 
C 74.260215 108.312123 74.823804 108.545569 75.411379 108.545569 
z
" clip-path="url(#pdb3417924b)" style="fill: #000080; stroke: #000080; stroke-width: 0.886227"/>
    <path d="M 76.783616 72.558375 
C 77.371192 72.558375 77.934781 72.324929 78.350259 71.909451 
C 78.765738 71.493972 78.999184 70.930383 78.999184 70.342808 
C 78.999184 69.755233 78.765738 69.191644 78.350259 68.776165 
C 77.934781 68.360687 77.371192 68.127241 76.783616 68.127241 
C 76.196041 68.127241 75.632452 68.360687 75.216974 68.776165 
C 74.801495 69.191644 74.568049 69.755233 74.568049 70.342808 
C 74.568049 70.930383 74.801495 71.493972 75.216974 71.909451 
C 75.632452 72.324929 76.196041 72.558375 76.783616 72.558375 
z
" clip-path="url(#pdb3417924b)" style="fill: #000080; stroke: #000080; stroke-width: 0.886227"/>
    <path d="M 78.350282 63.790035 
C 78.937857 63.790035 79.501446 63.556589 79.916924 63.141111 
C 80.332403 62.725632 80.565849 62.162043 80.565849 61.574468 
C 80.565849 60.986893 80.332403 60.423304 79.916924 60.007825 
C 79.501446 59.592347 78.937857 59.358901 78.350282 59.358901 
C 77.762706 59.358901 77.199118 59.592347 76.783639 60.007825 
C 76.368161 60.423304 76.134714 60.986893 76.134714 61.574468 
C 76.134714 62.162043 76.368161 62.725632 76.783639 63.141111 
C 77.199118 63.556589 77.762706 63.790035 78.350282 63.790035 
z
" clip-path="url(#pdb3417924b)" style="fill: #000080; stroke: #000080; stroke-width: 0.886227"/>
    <path d="M 80.004903 73.529602 
C 80.592479 73.529602 81.156067 73.296156 81.571546 72.880678 
C 81.987024 72.465199 82.220471 71.90161 82.220471 71.314035 
C 82.220471 70.72646 81.987024 70.162871 81.571546 69.747392 
C 81.156067 69.331914 80.592479 69.098468 80.004903 69.098468 
C 79.417328 69.098468 78.853739 69.331914 78.438261 69.747392 
C 78.022782 70.162871 77.789336 70.72646 77.789336 71.314035 
C 77.789336 71.90161 78.022782 72.465199 78.438261 72.880678 
C 78.853739 73.296156 79.417328 73.529602 80.004903 73.529602 
z
" clip-path="url(#pdb3417924b)" style="fill: #000080; stroke: #000080; stroke-width: 0.886227"/>
    <path d="M 81.878467 55.127699 
C 82.466042 55.127699 83.029631 54.894253 83.445109 54.478774 
C 83.860588 54.063296 84.094034 53.499707 84.094034 52.912131 
C 84.094034 52.324556 83.860588 51.760967 83.445109 51.345489 
C 83.029631 50.93001 82.466042 50.696564 81.878467 50.696564 
C 81.290891 50.696564 80.727302 50.93001 80.311824 51.345489 
C 79.896345 51.760967 79.662899 52.324556 79.662899 52.912131 
C 79.662899 53.499707 79.896345 54.063296 80.311824 54.478774 
C 80.727302 54.894253 81.290891 55.127699 81.878467 55.127699 
z
" clip-path="url(#pdb3417924b)" style="fill: #000080; stroke: #000080; stroke-width: 0.886227"/>
    <path d="M 84.304868 27.49413 
C 84.892444 27.49413 85.456032 27.260684 85.871511 26.845206 
C 86.286989 26.429727 86.520436 25.866138 86.520436 25.278563 
C 86.520436 24.690988 86.286989 24.127399 85.871511 23.71192 
C 85.456032 23.296442 84.892444 23.062996 84.304868 23.062996 
C 83.717293 23.062996 83.153704 23.296442 82.738226 23.71192 
C 82.322747 24.127399 82.089301 24.690988 82.089301 25.278563 
C 82.089301 25.866138 82.322747 26.429727 82.738226 26.845206 
C 83.153704 27.260684 83.717293 27.49413 84.304868 27.49413 
z
" clip-path="url(#pdb3417924b)" style="fill: #000080; stroke: #000080; stroke-width: 0.886227"/>
    <path d="M 87.177712 80.682501 
C 87.765287 80.682501 88.328876 80.449055 88.744355 80.033576 
C 89.159833 79.618098 89.393279 79.054509 89.393279 78.466933 
C 89.393279 77.879358 89.159833 77.315769 88.744355 76.900291 
C 88.328876 76.484812 87.765287 76.251366 87.177712 76.251366 
C 86.590137 76.251366 86.026548 76.484812 85.611069 76.900291 
C 85.195591 77.315769 84.962145 77.879358 84.962145 78.466933 
C 84.962145 79.054509 85.195591 79.618098 85.611069 80.033576 
C 86.026548 80.449055 86.590137 80.682501 87.177712 80.682501 
z
" clip-path="url(#pdb3417924b)" style="fill: #000080; stroke: #000080; stroke-width: 0.886227"/>
    <path d="M 90.842392 98.99545 
C 91.429968 98.99545 91.993557 98.762004 92.409035 98.346525 
C 92.824514 97.931047 93.05796 97.367458 93.05796 96.779883 
C 93.05796 96.192307 92.824514 95.628718 92.409035 95.21324 
C 91.993557 94.797761 91.429968 94.564315 90.842392 94.564315 
C 90.254817 94.564315 89.691228 94.797761 89.27575 95.21324 
C 88.860271 95.628718 88.626825 96.192307 88.626825 96.779883 
C 88.626825 97.367458 88.860271 97.931047 89.27575 98.346525 
C 89.691228 98.762004 90.254817 98.99545 90.842392 98.99545 
z
" clip-path="url(#pdb3417924b)" style="fill: #000080; stroke: #000080; stroke-width: 0.886227"/>
    <path d="M 96.0265 87.374007 
C 96.614075 87.374007 97.177664 87.140561 97.593142 86.725082 
C 98.008621 86.309604 98.242067 85.746015 98.242067 85.158439 
C 98.242067 84.570864 98.008621 84.007275 97.593142 83.591797 
C 97.177664 83.176318 96.614075 82.942872 96.0265 82.942872 
C 95.438924 82.942872 94.875335 83.176318 94.459857 83.591797 
C 94.044378 84.007275 93.810932 84.570864 93.810932 85.158439 
C 93.810932 85.746015 94.044378 86.309604 94.459857 86.725082 
C 94.875335 87.140561 95.438924 87.374007 96.0265 87.374007 
z
" clip-path="url(#pdb3417924b)" style="fill: #000080; stroke: #000080; stroke-width: 0.886227"/>
    <path d="M 102.957725 113.201411 
C 103.5453 113.201411 104.108889 112.967965 104.524367 112.552487 
C 104.939846 112.137008 105.173292 111.573419 105.173292 110.985844 
C 105.173292 110.398269 104.939846 109.83468 104.524367 109.419201 
C 104.108889 109.003723 103.5453 108.770277 102.957725 108.770277 
C 102.370149 108.770277 101.80656 109.003723 101.391082 109.419201 
C 100.975603 109.83468 100.742157 110.398269 100.742157 110.985844 
C 100.742157 111.573419 100.975603 112.137008 101.391082 112.552487 
C 101.80656 112.967965 102.370149 113.201411 102.957725 113.201411 
z
" clip-path="url(#pdb3417924b)" style="fill: #000080; stroke: #000080; stroke-width: 0.886227"/>
    <path d="M 113.528508 49.651029 
C 114.116084 49.651029 114.679672 49.417583 115.095151 49.002105 
C 115.510629 48.586626 115.744076 48.023037 115.744076 47.435462 
C 115.744076 46.847887 115.510629 46.284298 115.095151 45.868819 
C 114.679672 45.453341 114.116084 45.219895 113.528508 45.219895 
C 112.940933 45.219895 112.377344 45.453341 111.961866 45.868819 
C 111.546387 46.284298 111.312941 46.847887 111.312941 47.435462 
C 111.312941 48.023037 111.546387 48.586626 111.961866 49.002105 
C 112.377344 49.417583 112.940933 49.651029 113.528508 49.651029 
z
" clip-path="url(#pdb3417924b)" style="fill: #000080; stroke: #000080; stroke-width: 0.886227"/>
    <path d="M 147.979105 79.861771 
C 148.56668 79.861771 149.130269 79.628325 149.545747 79.212846 
C 149.961226 78.797368 150.194672 78.233779 150.194672 77.646204 
C 150.194672 77.058628 149.961226 76.49504 149.545747 76.079561 
C 149.130269 75.664083 148.56668 75.430636 147.979105 75.430636 
C 147.391529 75.430636 146.827941 75.664083 146.412462 76.079561 
C 145.996984 76.49504 145.763537 77.058628 145.763537 77.646204 
C 145.763537 78.233779 145.996984 78.797368 146.412462 79.212846 
C 146.827941 79.628325 147.391529 79.861771 147.979105 79.861771 
z
" clip-path="url(#pdb3417924b)" style="fill: #000080; stroke: #000080; stroke-width: 0.886227"/>
   </g>
   <g id="LineCollection_1">
    <path d="M 66.520004 261.216 
" clip-path="url(#pdb3417924b)" style="fill: none; stroke: #000080; stroke-width: 0.886227"/>
    <path d="M 66.274717 222.933577 
L 67.075529 222.933577 
" clip-path="url(#pdb3417924b)" style="fill: none; stroke: #000080; stroke-width: 0.886227"/>
    <path d="M 66.895493 220.289385 
L 67.696305 220.289385 
" clip-path="url(#pdb3417924b)" style="fill: none; stroke: #000080; stroke-width: 0.886227"/>
    <path d="M 67.539916 214.801211 
L 68.340728 214.801211 
" clip-path="url(#pdb3417924b)" style="fill: none; stroke: #000080; stroke-width: 0.886227"/>
    <path d="M 68.197609 203.78024 
L 68.998421 203.78024 
" clip-path="url(#pdb3417924b)" style="fill: none; stroke: #000080; stroke-width: 0.886227"/>
    <path d="M 68.999497 185.948689 
L 69.800309 185.948689 
" clip-path="url(#pdb3417924b)" style="fill: none; stroke: #000080; stroke-width: 0.886227"/>
    <path d="M 69.849731 159.481956 
L 70.650542 159.481956 
" clip-path="url(#pdb3417924b)" style="fill: none; stroke: #000080; stroke-width: 0.886227"/>
    <path d="M 70.698886 158.896975 
L 71.499698 158.896975 
" clip-path="url(#pdb3417924b)" style="fill: none; stroke: #000080; stroke-width: 0.886227"/>
    <path d="M 71.616253 158.969088 
L 72.417065 158.969088 
" clip-path="url(#pdb3417924b)" style="fill: none; stroke: #000080; stroke-width: 0.886227"/>
    <path d="M 72.66255 139.570179 
L 73.463362 139.570179 
" clip-path="url(#pdb3417924b)" style="fill: none; stroke: #000080; stroke-width: 0.886227"/>
    <path d="M 73.785699 131.701325 
L 74.586511 131.701325 
" clip-path="url(#pdb3417924b)" style="fill: none; stroke: #000080; stroke-width: 0.886227"/>
    <path d="M 75.010974 129.778074 
L 75.811785 129.778074 
" clip-path="url(#pdb3417924b)" style="fill: none; stroke: #000080; stroke-width: 0.886227"/>
    <path d="M 76.38321 100.048999 
L 77.184022 100.048999 
" clip-path="url(#pdb3417924b)" style="fill: none; stroke: #000080; stroke-width: 0.886227"/>
    <path d="M 77.949876 95.638245 
L 78.750688 95.638245 
" clip-path="url(#pdb3417924b)" style="fill: none; stroke: #000080; stroke-width: 0.886227"/>
    <path d="M 79.604497 89.49553 
L 80.405309 89.49553 
" clip-path="url(#pdb3417924b)" style="fill: none; stroke: #000080; stroke-width: 0.886227"/>
    <path d="M 81.478061 78.800348 
L 82.278872 78.800348 
" clip-path="url(#pdb3417924b)" style="fill: none; stroke: #000080; stroke-width: 0.886227"/>
    <path d="M 83.904462 86.837757 
L 84.705274 86.837757 
" clip-path="url(#pdb3417924b)" style="fill: none; stroke: #000080; stroke-width: 0.886227"/>
    <path d="M 86.777306 86.462426 
L 87.578118 86.462426 
" clip-path="url(#pdb3417924b)" style="fill: none; stroke: #000080; stroke-width: 0.886227"/>
    <path d="M 90.441986 124.13233 
L 91.242798 124.13233 
" clip-path="url(#pdb3417924b)" style="fill: none; stroke: #000080; stroke-width: 0.886227"/>
    <path d="M 95.626094 128.54898 
L 96.426905 128.54898 
" clip-path="url(#pdb3417924b)" style="fill: none; stroke: #000080; stroke-width: 0.886227"/>
    <path d="M 102.557319 124.56944 
L 103.35813 124.56944 
" clip-path="url(#pdb3417924b)" style="fill: none; stroke: #000080; stroke-width: 0.886227"/>
    <path d="M 113.128102 83.508988 
L 113.928914 83.508988 
" clip-path="url(#pdb3417924b)" style="fill: none; stroke: #000080; stroke-width: 0.886227"/>
    <path d="M 147.578699 131.080554 
L 148.379511 131.080554 
" clip-path="url(#pdb3417924b)" style="fill: none; stroke: #000080; stroke-width: 0.886227"/>
    <path d="M 66.520004 221.757469 
" clip-path="url(#pdb3417924b)" style="fill: none; stroke: #000080; stroke-width: 0.886227"/>
    <path d="M 66.274717 188.63551 
L 67.075529 188.63551 
" clip-path="url(#pdb3417924b)" style="fill: none; stroke: #000080; stroke-width: 0.886227"/>
    <path d="M 66.895493 187.55695 
L 67.696305 187.55695 
" clip-path="url(#pdb3417924b)" style="fill: none; stroke: #000080; stroke-width: 0.886227"/>
    <path d="M 67.539916 174.300051 
L 68.340728 174.300051 
" clip-path="url(#pdb3417924b)" style="fill: none; stroke: #000080; stroke-width: 0.886227"/>
    <path d="M 68.197609 167.089814 
L 68.998421 167.089814 
" clip-path="url(#pdb3417924b)" style="fill: none; stroke: #000080; stroke-width: 0.886227"/>
    <path d="M 68.999497 146.820806 
L 69.800309 146.820806 
" clip-path="url(#pdb3417924b)" style="fill: none; stroke: #000080; stroke-width: 0.886227"/>
    <path d="M 69.849731 114.088796 
L 70.650542 114.088796 
" clip-path="url(#pdb3417924b)" style="fill: none; stroke: #000080; stroke-width: 0.886227"/>
    <path d="M 70.698886 101.400352 
L 71.499698 101.400352 
" clip-path="url(#pdb3417924b)" style="fill: none; stroke: #000080; stroke-width: 0.886227"/>
    <path d="M 71.616253 112.328722 
L 72.417065 112.328722 
" clip-path="url(#pdb3417924b)" style="fill: none; stroke: #000080; stroke-width: 0.886227"/>
    <path d="M 72.66255 89.330099 
L 73.463362 89.330099 
" clip-path="url(#pdb3417924b)" style="fill: none; stroke: #000080; stroke-width: 0.886227"/>
    <path d="M 73.785699 77.18383 
L 74.586511 77.18383 
" clip-path="url(#pdb3417924b)" style="fill: none; stroke: #000080; stroke-width: 0.886227"/>
    <path d="M 75.010974 79.962799 
L 75.811785 79.962799 
" clip-path="url(#pdb3417924b)" style="fill: none; stroke: #000080; stroke-width: 0.886227"/>
    <path d="M 76.38321 47.53533 
L 77.184022 47.53533 
" clip-path="url(#pdb3417924b)" style="fill: none; stroke: #000080; stroke-width: 0.886227"/>
    <path d="M 77.949876 38.063622 
L 78.750688 38.063622 
" clip-path="url(#pdb3417924b)" style="fill: none; stroke: #000080; stroke-width: 0.886227"/>
    <path d="M 79.604497 31.163296 
L 80.405309 31.163296 
" clip-path="url(#pdb3417924b)" style="fill: none; stroke: #000080; stroke-width: 0.886227"/>
    <path d="M 81.478061 19.321323 
L 82.278872 19.321323 
" clip-path="url(#pdb3417924b)" style="fill: none; stroke: #000080; stroke-width: 0.886227"/>
    <path d="M 83.904462 22.334958 
L 84.705274 22.334958 
" clip-path="url(#pdb3417924b)" style="fill: none; stroke: #000080; stroke-width: 0.886227"/>
    <path d="M 86.777306 28.210844 
L 87.578118 28.210844 
" clip-path="url(#pdb3417924b)" style="fill: none; stroke: #000080; stroke-width: 0.886227"/>
    <path d="M 90.441986 64.791021 
L 91.242798 64.791021 
" clip-path="url(#pdb3417924b)" style="fill: none; stroke: #000080; stroke-width: 0.886227"/>
    <path d="M 95.626094 73.020905 
L 96.426905 73.020905 
" clip-path="url(#pdb3417924b)" style="fill: none; stroke: #000080; stroke-width: 0.886227"/>
    <path d="M 102.557319 69.803507 
L 103.35813 69.803507 
" clip-path="url(#pdb3417924b)" style="fill: none; stroke: #000080; stroke-width: 0.886227"/>
    <path d="M 113.128102 19.296 
L 113.928914 19.296 
" clip-path="url(#pdb3417924b)" style="fill: none; stroke: #000080; stroke-width: 0.886227"/>
    <path d="M 147.578699 53.460209 
L 148.379511 53.460209 
" clip-path="url(#pdb3417924b)" style="fill: none; stroke: #000080; stroke-width: 0.886227"/>
    <path d="M 66.119598 221.757469 
L 66.119598 261.216 
" clip-path="url(#pdb3417924b)" style="fill: none; stroke: #000080; stroke-width: 0.886227"/>
    <path d="M 66.675123 188.63551 
L 66.675123 222.933577 
" clip-path="url(#pdb3417924b)" style="fill: none; stroke: #000080; stroke-width: 0.886227"/>
    <path d="M 67.295899 187.55695 
L 67.295899 220.289385 
" clip-path="url(#pdb3417924b)" style="fill: none; stroke: #000080; stroke-width: 0.886227"/>
    <path d="M 67.940322 174.300051 
L 67.940322 214.801211 
" clip-path="url(#pdb3417924b)" style="fill: none; stroke: #000080; stroke-width: 0.886227"/>
    <path d="M 68.598015 167.089814 
L 68.598015 203.78024 
" clip-path="url(#pdb3417924b)" style="fill: none; stroke: #000080; stroke-width: 0.886227"/>
    <path d="M 69.399903 146.820806 
L 69.399903 185.948689 
" clip-path="url(#pdb3417924b)" style="fill: none; stroke: #000080; stroke-width: 0.886227"/>
    <path d="M 70.250137 114.088796 
L 70.250137 159.481956 
" clip-path="url(#pdb3417924b)" style="fill: none; stroke: #000080; stroke-width: 0.886227"/>
    <path d="M 71.099292 101.400352 
L 71.099292 158.896975 
" clip-path="url(#pdb3417924b)" style="fill: none; stroke: #000080; stroke-width: 0.886227"/>
    <path d="M 72.016659 112.328722 
L 72.016659 158.969088 
" clip-path="url(#pdb3417924b)" style="fill: none; stroke: #000080; stroke-width: 0.886227"/>
    <path d="M 73.062956 89.330099 
L 73.062956 139.570179 
" clip-path="url(#pdb3417924b)" style="fill: none; stroke: #000080; stroke-width: 0.886227"/>
    <path d="M 74.186105 77.18383 
L 74.186105 131.701325 
" clip-path="url(#pdb3417924b)" style="fill: none; stroke: #000080; stroke-width: 0.886227"/>
    <path d="M 75.411379 79.962799 
L 75.411379 129.778074 
" clip-path="url(#pdb3417924b)" style="fill: none; stroke: #000080; stroke-width: 0.886227"/>
    <path d="M 76.783616 47.53533 
L 76.783616 100.048999 
" clip-path="url(#pdb3417924b)" style="fill: none; stroke: #000080; stroke-width: 0.886227"/>
    <path d="M 78.350282 38.063622 
L 78.350282 95.638245 
" clip-path="url(#pdb3417924b)" style="fill: none; stroke: #000080; stroke-width: 0.886227"/>
    <path d="M 80.004903 31.163296 
L 80.004903 89.49553 
" clip-path="url(#pdb3417924b)" style="fill: none; stroke: #000080; stroke-width: 0.886227"/>
    <path d="M 81.878467 19.321323 
L 81.878467 78.800348 
" clip-path="url(#pdb3417924b)" style="fill: none; stroke: #000080; stroke-width: 0.886227"/>
    <path d="M 84.304868 22.334958 
L 84.304868 86.837757 
" clip-path="url(#pdb3417924b)" style="fill: none; stroke: #000080; stroke-width: 0.886227"/>
    <path d="M 87.177712 28.210844 
L 87.177712 86.462426 
" clip-path="url(#pdb3417924b)" style="fill: none; stroke: #000080; stroke-width: 0.886227"/>
    <path d="M 90.842392 64.791021 
L 90.842392 124.13233 
" clip-path="url(#pdb3417924b)" style="fill: none; stroke: #000080; stroke-width: 0.886227"/>
    <path d="M 96.0265 73.020905 
L 96.0265 128.54898 
" clip-path="url(#pdb3417924b)" style="fill: none; stroke: #000080; stroke-width: 0.886227"/>
    <path d="M 102.957725 69.803507 
L 102.957725 124.56944 
" clip-path="url(#pdb3417924b)" style="fill: none; stroke: #000080; stroke-width: 0.886227"/>
    <path d="M 113.528508 19.296 
L 113.528508 83.508988 
" clip-path="url(#pdb3417924b)" style="fill: none; stroke: #000080; stroke-width: 0.886227"/>
    <path d="M 147.979105 53.460209 
L 147.979105 131.080554 
" clip-path="url(#pdb3417924b)" style="fill: none; stroke: #000080; stroke-width: 0.886227"/>
   </g>
  </g>
 </g>
 <defs>
  <clipPath id="pdb3417924b">
   <rect x="49.635938" y="7.2" width="357.12" height="266.112"/>
  </clipPath>
 </defs>
</svg>