<?xml version="1.0" encoding="utf-8" standalone="no"?>
<!DOCTYPE svg PUBLIC "-//W3C//DTD SVG 1.1//EN"
  "http://www.w3.org/Graphics/SVG/1.1/DTD/svg11.dtd">
<svg xmlns:xlink="http://www.w3.org/1999/xlink" width="526.79952pt" height="353.99952pt" viewBox="0 0 526.79952 353.99952" xmlns="http://www.w3.org/2000/svg" version="1.1">
 <metadata>
  <rdf:RDF xmlns:dc="http://purl.org/dc/elements/1.1/" xmlns:cc="http://creativecommons.org/ns#" xmlns:rdf="http://www.w3.org/1999/02/22-rdf-syntax-ns#">
   <cc:Work>
    <dc:type rdf:resource="http://purl.org/dc/dcmitype/StillImage"/>
    <dc:date>2023-09-07T18:49:21.424929</dc:date>
    <dc:format>image/svg+xml</dc:format>
    <dc:creator>
     <cc:Agent>
      <dc:title>Matplotlib v3.7.2, https://matplotlib.org/</dc:title>
     </cc:Agent>
    </dc:creator>
   </cc:Work>
  </rdf:RDF>
 </metadata>
 <defs>
  <style type="text/css">*{stroke-linejoin: round; stroke-linecap: butt}</style>
 </defs>
 <g id="figure_1">
  <g id="patch_1">
   <path d="M 0 353.99952 
L 526.79952 353.99952 
L 526.79952 0 
L 0 0 
z
" style="fill: #ffffff"/>
  </g>
  <g id="axes_1">
   <g id="patch_2">
    <path d="M 61.36 314.19952 
L 516.09952 314.19952 
L 516.09952 24.1275 
L 61.36 24.1275 
z
" style="fill: #eeeeee"/>
   </g>
   <g id="matplotlib.axis_1">
    <g id="xtick_1">
     <g id="line2d_1">
      <path d="M 61.36 314.19952 
L 61.36 24.1275 
" clip-path="url(#p176f74cfc9)" style="fill: none; stroke: #ffffff; stroke-width: 0.8; stroke-linecap: round"/>
     </g>
     <g id="line2d_2"/>
     <g id="text_1">
      <!-- $\mathdefault{−3}$ -->
      <g style="fill: #262626" transform="translate(53.03 327.261082) scale(0.14 -0.14)">
       <defs>
        <path id="STIXGeneral-Regular-2212" d="M 3974 1408 
L 410 1408 
L 410 1830 
L 3974 1830 
L 3974 1408 
z
" transform="scale(0.015625)"/>
        <path id="STIXGeneral-Regular-33" d="M 390 3264 
L 288 3290 
Q 435 3770 748 4048 
Q 1062 4326 1542 4326 
Q 1990 4326 2265 4083 
Q 2541 3840 2541 3450 
Q 2541 2925 1946 2566 
Q 2298 2413 2477 2227 
Q 2758 1914 2758 1402 
Q 2758 890 2464 506 
Q 2246 211 1840 60 
Q 1434 -90 979 -90 
Q 262 -90 262 275 
Q 262 378 339 442 
Q 416 506 525 506 
Q 685 506 915 339 
Q 1197 141 1466 141 
Q 1818 141 2058 425 
Q 2298 710 2298 1120 
Q 2298 1856 1632 2048 
Q 1434 2112 979 2112 
L 979 2202 
Q 1338 2323 1517 2432 
Q 2035 2726 2035 3290 
Q 2035 3610 1852 3776 
Q 1670 3942 1344 3942 
Q 768 3942 390 3264 
z
" transform="scale(0.015625)"/>
       </defs>
       <use xlink:href="#STIXGeneral-Regular-2212" transform="translate(0 0.40625)"/>
       <use xlink:href="#STIXGeneral-Regular-33" transform="translate(68.499985 0.40625)"/>
      </g>
     </g>
    </g>
    <g id="xtick_2">
     <g id="line2d_3">
      <path d="M 137.14992 314.19952 
L 137.14992 24.1275 
" clip-path="url(#p176f74cfc9)" style="fill: none; stroke: #ffffff; stroke-width: 0.8; stroke-linecap: round"/>
     </g>
     <g id="line2d_4"/>
     <g id="text_2">
      <!-- $\mathdefault{−2}$ -->
      <g style="fill: #262626" transform="translate(128.81992 327.261082) scale(0.14 -0.14)">
       <defs>
        <path id="STIXGeneral-Regular-32" d="M 3034 877 
L 2688 0 
L 186 0 
L 186 77 
L 1325 1286 
Q 1773 1754 1965 2144 
Q 2157 2534 2157 2950 
Q 2157 3379 1920 3616 
Q 1683 3853 1267 3853 
Q 922 3853 720 3673 
Q 518 3494 326 3021 
L 192 3053 
Q 301 3648 630 3987 
Q 960 4326 1523 4326 
Q 2054 4326 2380 4006 
Q 2707 3686 2707 3200 
Q 2707 2477 1888 1613 
L 832 486 
L 2330 486 
Q 2541 486 2665 569 
Q 2790 653 2944 915 
L 3034 877 
z
" transform="scale(0.015625)"/>
       </defs>
       <use xlink:href="#STIXGeneral-Regular-2212" transform="translate(0 0.40625)"/>
       <use xlink:href="#STIXGeneral-Regular-32" transform="translate(68.499985 0.40625)"/>
      </g>
     </g>
    </g>
    <g id="xtick_3">
     <g id="line2d_5">
      <path d="M 212.93984 314.19952 
L 212.93984 24.1275 
" clip-path="url(#p176f74cfc9)" style="fill: none; stroke: #ffffff; stroke-width: 0.8; stroke-linecap: round"/>
     </g>
     <g id="line2d_6"/>
     <g id="text_3">
      <!-- $\mathdefault{−1}$ -->
      <g style="fill: #262626" transform="translate(204.60984 327.261082) scale(0.14 -0.14)">
       <defs>
        <path id="STIXGeneral-Regular-31" d="M 2522 0 
L 755 0 
L 755 96 
Q 1107 115 1235 227 
Q 1363 339 1363 608 
L 1363 3482 
Q 1363 3795 1171 3795 
Q 1082 3795 883 3718 
L 710 3654 
L 710 3744 
L 1856 4326 
L 1914 4307 
L 1914 486 
Q 1914 275 2042 185 
Q 2170 96 2522 96 
L 2522 0 
z
" transform="scale(0.015625)"/>
       </defs>
       <use xlink:href="#STIXGeneral-Regular-2212" transform="translate(0 0.40625)"/>
       <use xlink:href="#STIXGeneral-Regular-31" transform="translate(68.499985 0.40625)"/>
      </g>
     </g>
    </g>
    <g id="xtick_4">
     <g id="line2d_7">
      <path d="M 288.72976 314.19952 
L 288.72976 24.1275 
" clip-path="url(#p176f74cfc9)" style="fill: none; stroke: #ffffff; stroke-width: 0.8; stroke-linecap: round"/>
     </g>
     <g id="line2d_8"/>
     <g id="text_4">
      <!-- $\mathdefault{0}$ -->
      <g style="fill: #262626" transform="translate(285.22976 327.261082) scale(0.14 -0.14)">
       <defs>
        <path id="STIXGeneral-Regular-30" d="M 3046 2112 
Q 3046 1683 2963 1302 
Q 2880 922 2717 602 
Q 2554 282 2266 96 
Q 1978 -90 1600 -90 
Q 1210 -90 915 108 
Q 621 307 461 640 
Q 301 973 227 1350 
Q 154 1728 154 2150 
Q 154 2746 301 3222 
Q 448 3699 790 4012 
Q 1133 4326 1626 4326 
Q 2253 4326 2649 3712 
Q 3046 3098 3046 2112 
z
M 2432 2080 
Q 2432 3091 2217 3625 
Q 2003 4160 1587 4160 
Q 1190 4160 979 3622 
Q 768 3085 768 2106 
Q 768 1120 979 598 
Q 1190 77 1600 77 
Q 2003 77 2217 598 
Q 2432 1120 2432 2080 
z
" transform="scale(0.015625)"/>
       </defs>
       <use xlink:href="#STIXGeneral-Regular-30" transform="translate(0 0.40625)"/>
      </g>
     </g>
    </g>
    <g id="xtick_5">
     <g id="line2d_9">
      <path d="M 364.51968 314.19952 
L 364.51968 24.1275 
" clip-path="url(#p176f74cfc9)" style="fill: none; stroke: #ffffff; stroke-width: 0.8; stroke-linecap: round"/>
     </g>
     <g id="line2d_10"/>
     <g id="text_5">
      <!-- $\mathdefault{1}$ -->
      <g style="fill: #262626" transform="translate(361.01968 327.261082) scale(0.14 -0.14)">
       <use xlink:href="#STIXGeneral-Regular-31" transform="translate(0 0.40625)"/>
      </g>
     </g>
    </g>
    <g id="xtick_6">
     <g id="line2d_11">
      <path d="M 440.3096 314.19952 
L 440.3096 24.1275 
" clip-path="url(#p176f74cfc9)" style="fill: none; stroke: #ffffff; stroke-width: 0.8; stroke-linecap: round"/>
     </g>
     <g id="line2d_12"/>
     <g id="text_6">
      <!-- $\mathdefault{2}$ -->
      <g style="fill: #262626" transform="translate(436.8096 327.261082) scale(0.14 -0.14)">
       <use xlink:href="#STIXGeneral-Regular-32" transform="translate(0 0.40625)"/>
      </g>
     </g>
    </g>
    <g id="xtick_7">
     <g id="line2d_13">
      <path d="M 516.09952 314.19952 
L 516.09952 24.1275 
" clip-path="url(#p176f74cfc9)" style="fill: none; stroke: #ffffff; stroke-width: 0.8; stroke-linecap: round"/>
     </g>
     <g id="line2d_14"/>
     <g id="text_7">
      <!-- $\mathdefault{3}$ -->
      <g style="fill: #262626" transform="translate(512.59952 327.261082) scale(0.14 -0.14)">
       <use xlink:href="#STIXGeneral-Regular-33" transform="translate(0 0.40625)"/>
      </g>
     </g>
    </g>
    <g id="text_8">
     <!-- Predictor (X) -->
     <g style="fill: #262626" transform="translate(248.94226 343.544051) scale(0.15 -0.15)">
      <defs>
       <path id="STIXGeneral-Regular-50" d="M 102 4237 
L 1760 4237 
Q 2669 4237 3149 3834 
Q 3469 3565 3469 3072 
Q 3469 2560 3104 2234 
Q 2835 1990 2553 1916 
Q 2272 1843 1734 1843 
Q 1549 1843 1293 1862 
L 1293 717 
Q 1293 352 1398 246 
Q 1504 141 1894 122 
L 1894 0 
L 102 0 
L 102 122 
Q 474 147 557 256 
Q 640 365 640 781 
L 640 3526 
Q 640 3885 547 3987 
Q 454 4090 102 4115 
L 102 4237 
z
M 1293 3770 
L 1293 2118 
Q 1510 2099 1683 2099 
Q 2202 2099 2486 2352 
Q 2771 2605 2771 3040 
Q 2771 3558 2476 3779 
Q 2182 4000 1517 4000 
Q 1382 4000 1337 3952 
Q 1293 3904 1293 3770 
z
" transform="scale(0.015625)"/>
       <path id="STIXGeneral-Regular-72" d="M 1024 2931 
L 1024 2342 
Q 1267 2688 1430 2816 
Q 1594 2944 1792 2944 
Q 1958 2944 2051 2854 
Q 2144 2765 2144 2605 
Q 2144 2470 2077 2393 
Q 2010 2317 1894 2317 
Q 1773 2317 1638 2445 
Q 1536 2541 1472 2541 
Q 1338 2541 1181 2355 
Q 1024 2170 1024 2016 
L 1024 576 
Q 1024 301 1133 205 
Q 1242 109 1568 96 
L 1568 0 
L 32 0 
L 32 96 
Q 339 154 412 224 
Q 486 294 486 538 
L 486 2138 
Q 486 2349 438 2435 
Q 390 2522 269 2522 
Q 166 2522 45 2496 
L 45 2598 
Q 448 2726 992 2944 
L 1024 2931 
z
" transform="scale(0.015625)"/>
       <path id="STIXGeneral-Regular-65" d="M 2611 1050 
L 2714 1005 
Q 2330 -64 1376 -64 
Q 813 -64 486 329 
Q 160 723 160 1389 
Q 160 2074 525 2509 
Q 890 2944 1485 2944 
Q 2061 2944 2374 2502 
Q 2560 2246 2592 1773 
L 621 1773 
Q 646 1370 700 1158 
Q 755 947 915 730 
Q 1184 378 1626 378 
Q 1939 378 2153 531 
Q 2368 685 2611 1050 
z
M 634 1978 
L 1939 1978 
Q 1882 2381 1750 2547 
Q 1619 2714 1312 2714 
Q 1043 2714 864 2525 
Q 685 2336 634 1978 
z
" transform="scale(0.015625)"/>
       <path id="STIXGeneral-Regular-64" d="M 3142 269 
L 2202 -64 
L 2176 -45 
L 2176 365 
Q 1869 -64 1357 -64 
Q 826 -64 499 317 
Q 173 698 173 1312 
Q 173 1990 563 2467 
Q 954 2944 1504 2944 
Q 1850 2944 2176 2669 
L 2176 3667 
Q 2176 3866 2118 3930 
Q 2061 3994 1882 3994 
Q 1792 3994 1741 3987 
L 1741 4090 
Q 2323 4243 2682 4371 
L 2714 4358 
L 2714 730 
Q 2714 506 2768 435 
Q 2822 365 2995 365 
Q 3034 365 3142 371 
L 3142 269 
z
M 2176 653 
L 2176 2125 
Q 2176 2381 1981 2573 
Q 1786 2765 1523 2765 
Q 1158 2765 940 2438 
Q 723 2112 723 1568 
Q 723 979 963 624 
Q 1203 269 1606 269 
Q 1907 269 2080 474 
Q 2176 582 2176 653 
z
" transform="scale(0.015625)"/>
       <path id="STIXGeneral-Regular-69" d="M 1152 4045 
Q 1152 3904 1056 3811 
Q 960 3718 819 3718 
Q 685 3718 592 3811 
Q 499 3904 499 4045 
Q 499 4179 595 4275 
Q 691 4371 826 4371 
Q 966 4371 1059 4275 
Q 1152 4179 1152 4045 
z
M 1619 0 
L 102 0 
L 102 96 
Q 435 115 521 211 
Q 608 307 608 666 
L 608 2118 
Q 608 2342 563 2432 
Q 518 2522 397 2522 
Q 243 2522 128 2490 
L 128 2592 
L 1120 2944 
L 1146 2918 
L 1146 672 
Q 1146 314 1226 218 
Q 1306 122 1619 96 
L 1619 0 
z
" transform="scale(0.015625)"/>
       <path id="STIXGeneral-Regular-63" d="M 2547 998 
L 2637 941 
Q 2362 403 2112 205 
Q 1786 -64 1376 -64 
Q 845 -64 502 336 
Q 160 736 160 1357 
Q 160 2170 698 2618 
Q 1094 2944 1562 2944 
Q 1965 2944 2256 2749 
Q 2547 2554 2547 2285 
Q 2547 2176 2457 2096 
Q 2368 2016 2246 2016 
Q 2022 2016 1939 2310 
L 1901 2451 
Q 1850 2630 1773 2694 
Q 1696 2758 1523 2758 
Q 1133 2758 893 2451 
Q 653 2144 653 1645 
Q 653 1094 928 745 
Q 1203 397 1645 397 
Q 1920 397 2118 528 
Q 2317 659 2547 998 
z
" transform="scale(0.015625)"/>
       <path id="STIXGeneral-Regular-74" d="M 1702 493 
L 1786 422 
Q 1478 -64 1011 -64 
Q 448 -64 448 749 
L 448 2675 
L 109 2675 
Q 83 2694 83 2720 
Q 83 2771 192 2842 
Q 435 2982 813 3526 
Q 826 3546 874 3606 
Q 922 3667 941 3706 
Q 986 3706 986 3622 
L 986 2880 
L 1632 2880 
L 1632 2675 
L 986 2675 
L 986 845 
Q 986 538 1062 403 
Q 1139 269 1318 269 
Q 1510 269 1702 493 
z
" transform="scale(0.015625)"/>
       <path id="STIXGeneral-Regular-6f" d="M 3008 1478 
Q 3008 806 2608 371 
Q 2208 -64 1568 -64 
Q 979 -64 582 368 
Q 186 800 186 1459 
Q 186 2125 582 2534 
Q 979 2944 1626 2944 
Q 2221 2944 2614 2537 
Q 3008 2131 3008 1478 
z
M 2432 1306 
Q 2432 2035 2112 2445 
Q 1856 2765 1504 2765 
Q 1171 2765 966 2493 
Q 762 2221 762 1747 
Q 762 928 1101 435 
Q 1318 115 1677 115 
Q 2029 115 2230 432 
Q 2432 749 2432 1306 
z
" transform="scale(0.015625)"/>
       <path id="STIXGeneral-Regular-20" transform="scale(0.015625)"/>
       <path id="STIXGeneral-Regular-28" d="M 1946 -1030 
L 1869 -1133 
Q 1126 -710 716 32 
Q 307 774 307 1613 
Q 307 3386 1888 4326 
L 1946 4224 
Q 1293 3667 1075 3126 
Q 858 2586 858 1632 
Q 858 685 1082 96 
Q 1306 -493 1946 -1030 
z
" transform="scale(0.015625)"/>
       <path id="STIXGeneral-Regular-58" d="M 4506 0 
L 2611 0 
L 2611 122 
L 2778 134 
Q 3098 154 3098 320 
Q 3098 461 2771 947 
L 2163 1850 
L 1402 896 
Q 1062 474 1062 326 
Q 1062 230 1168 185 
Q 1274 141 1549 122 
L 1549 0 
L 64 0 
L 64 122 
Q 314 147 470 268 
Q 627 390 992 851 
L 1990 2099 
L 1312 3091 
Q 864 3744 665 3913 
Q 467 4083 141 4115 
L 141 4237 
L 2067 4237 
L 2067 4115 
L 1882 4109 
Q 1734 4102 1660 4064 
Q 1587 4026 1587 3923 
Q 1587 3885 1596 3843 
Q 1606 3802 1635 3744 
Q 1664 3686 1689 3638 
Q 1715 3590 1769 3507 
Q 1824 3424 1862 3366 
Q 1901 3309 1984 3190 
Q 2067 3072 2118 2995 
L 2400 2586 
L 3117 3482 
Q 3373 3795 3373 3910 
Q 3373 4019 3283 4064 
Q 3194 4109 2938 4115 
L 2938 4237 
L 4454 4237 
L 4454 4115 
Q 4147 4096 3968 3977 
Q 3789 3859 3482 3482 
L 2566 2349 
L 3795 595 
Q 3981 326 4115 240 
Q 4250 154 4506 122 
L 4506 0 
z
" transform="scale(0.015625)"/>
       <path id="STIXGeneral-Regular-29" d="M 186 4224 
L 262 4326 
Q 992 3891 1408 3148 
Q 1824 2406 1824 1581 
Q 1824 -166 243 -1133 
L 186 -1030 
Q 845 -486 1059 54 
Q 1274 595 1274 1562 
Q 1274 2534 1059 3120 
Q 845 3706 186 4224 
z
" transform="scale(0.015625)"/>
      </defs>
      <use xlink:href="#STIXGeneral-Regular-50"/>
      <use xlink:href="#STIXGeneral-Regular-72" x="55.699997"/>
      <use xlink:href="#STIXGeneral-Regular-65" x="88.999985"/>
      <use xlink:href="#STIXGeneral-Regular-64" x="133.399979"/>
      <use xlink:href="#STIXGeneral-Regular-69" x="183.399963"/>
      <use xlink:href="#STIXGeneral-Regular-63" x="211.199951"/>
      <use xlink:href="#STIXGeneral-Regular-74" x="255.599945"/>
      <use xlink:href="#STIXGeneral-Regular-6f" x="283.399933"/>
      <use xlink:href="#STIXGeneral-Regular-72" x="333.399918"/>
      <use xlink:href="#STIXGeneral-Regular-20" x="366.699905"/>
      <use xlink:href="#STIXGeneral-Regular-28" x="391.69989"/>
      <use xlink:href="#STIXGeneral-Regular-58" x="424.999878"/>
      <use xlink:href="#STIXGeneral-Regular-29" x="497.19986"/>
     </g>
    </g>
   </g>
   <g id="matplotlib.axis_2">
    <g id="ytick_1">
     <g id="line2d_15">
      <path d="M 61.36 314.19952 
L 516.09952 314.19952 
" clip-path="url(#p176f74cfc9)" style="fill: none; stroke: #ffffff; stroke-width: 0.8; stroke-linecap: round"/>
     </g>
     <g id="line2d_16"/>
     <g id="text_9">
      <!-- $\mathdefault{−10.0}$ -->
      <g style="fill: #262626" transform="translate(23.7 318.980301) scale(0.14 -0.14)">
       <defs>
        <path id="STIXGeneral-Regular-2e" d="M 1158 275 
Q 1158 134 1052 32 
Q 947 -70 800 -70 
Q 653 -70 550 32 
Q 448 134 448 281 
Q 448 429 553 534 
Q 659 640 806 640 
Q 947 640 1052 531 
Q 1158 422 1158 275 
z
" transform="scale(0.015625)"/>
       </defs>
       <use xlink:href="#STIXGeneral-Regular-2212" transform="translate(0 0.40625)"/>
       <use xlink:href="#STIXGeneral-Regular-31" transform="translate(68.499985 0.40625)"/>
       <use xlink:href="#STIXGeneral-Regular-30" transform="translate(118.499969 0.40625)"/>
       <use xlink:href="#STIXGeneral-Regular-2e" transform="translate(168.499954 0.40625)"/>
       <use xlink:href="#STIXGeneral-Regular-30" transform="translate(193.499939 0.40625)"/>
      </g>
     </g>
    </g>
    <g id="ytick_2">
     <g id="line2d_17">
      <path d="M 61.36 281.969296 
L 516.09952 281.969296 
" clip-path="url(#p176f74cfc9)" style="fill: none; stroke: #ffffff; stroke-width: 0.8; stroke-linecap: round"/>
     </g>
     <g id="line2d_18"/>
     <g id="text_10">
      <!-- $\mathdefault{−7.5}$ -->
      <g style="fill: #262626" transform="translate(30.7 286.750077) scale(0.14 -0.14)">
       <defs>
        <path id="STIXGeneral-Regular-37" d="M 2874 4134 
L 1517 -51 
L 1101 -51 
L 2368 3763 
L 992 3763 
Q 717 3763 582 3667 
Q 448 3571 243 3238 
L 128 3296 
L 512 4237 
L 2874 4237 
L 2874 4134 
z
" transform="scale(0.015625)"/>
        <path id="STIXGeneral-Regular-35" d="M 2803 4358 
L 2573 3814 
Q 2534 3731 2400 3731 
L 1158 3731 
L 902 3187 
Q 1606 3053 1920 2896 
Q 2234 2739 2502 2368 
Q 2726 2061 2726 1555 
Q 2726 1094 2576 780 
Q 2426 467 2099 224 
Q 1664 -90 1011 -90 
Q 646 -90 422 19 
Q 198 128 198 307 
Q 198 550 486 550 
Q 717 550 960 352 
Q 1210 147 1414 147 
Q 1747 147 2012 480 
Q 2278 813 2278 1229 
Q 2278 1843 1850 2189 
Q 1293 2637 486 2637 
Q 410 2637 410 2688 
L 416 2720 
L 1114 4237 
L 2438 4237 
Q 2547 4237 2608 4269 
Q 2669 4301 2746 4403 
L 2803 4358 
z
" transform="scale(0.015625)"/>
       </defs>
       <use xlink:href="#STIXGeneral-Regular-2212" transform="translate(0 0.203125)"/>
       <use xlink:href="#STIXGeneral-Regular-37" transform="translate(68.499985 0.203125)"/>
       <use xlink:href="#STIXGeneral-Regular-2e" transform="translate(118.499969 0.203125)"/>
       <use xlink:href="#STIXGeneral-Regular-35" transform="translate(143.499954 0.203125)"/>
      </g>
     </g>
    </g>
    <g id="ytick_3">
     <g id="line2d_19">
      <path d="M 61.36 249.739071 
L 516.09952 249.739071 
" clip-path="url(#p176f74cfc9)" style="fill: none; stroke: #ffffff; stroke-width: 0.8; stroke-linecap: round"/>
     </g>
     <g id="line2d_20"/>
     <g id="text_11">
      <!-- $\mathdefault{−5.0}$ -->
      <g style="fill: #262626" transform="translate(30.7 254.519852) scale(0.14 -0.14)">
       <use xlink:href="#STIXGeneral-Regular-2212" transform="translate(0 0.203125)"/>
       <use xlink:href="#STIXGeneral-Regular-35" transform="translate(68.499985 0.203125)"/>
       <use xlink:href="#STIXGeneral-Regular-2e" transform="translate(118.499969 0.203125)"/>
       <use xlink:href="#STIXGeneral-Regular-30" transform="translate(143.499954 0.203125)"/>
      </g>
     </g>
    </g>
    <g id="ytick_4">
     <g id="line2d_21">
      <path d="M 61.36 217.508847 
L 516.09952 217.508847 
" clip-path="url(#p176f74cfc9)" style="fill: none; stroke: #ffffff; stroke-width: 0.8; stroke-linecap: round"/>
     </g>
     <g id="line2d_22"/>
     <g id="text_12">
      <!-- $\mathdefault{−2.5}$ -->
      <g style="fill: #262626" transform="translate(30.7 222.289628) scale(0.14 -0.14)">
       <use xlink:href="#STIXGeneral-Regular-2212" transform="translate(0 0.203125)"/>
       <use xlink:href="#STIXGeneral-Regular-32" transform="translate(68.499985 0.203125)"/>
       <use xlink:href="#STIXGeneral-Regular-2e" transform="translate(118.499969 0.203125)"/>
       <use xlink:href="#STIXGeneral-Regular-35" transform="translate(143.499954 0.203125)"/>
      </g>
     </g>
    </g>
    <g id="ytick_5">
     <g id="line2d_23">
      <path d="M 61.36 185.278622 
L 516.09952 185.278622 
" clip-path="url(#p176f74cfc9)" style="fill: none; stroke: #ffffff; stroke-width: 0.8; stroke-linecap: round"/>
     </g>
     <g id="line2d_24"/>
     <g id="text_13">
      <!-- $\mathdefault{0.0}$ -->
      <g style="fill: #262626" transform="translate(40.36 190.059403) scale(0.14 -0.14)">
       <use xlink:href="#STIXGeneral-Regular-30" transform="translate(0 0.40625)"/>
       <use xlink:href="#STIXGeneral-Regular-2e" transform="translate(49.999985 0.40625)"/>
       <use xlink:href="#STIXGeneral-Regular-30" transform="translate(74.999969 0.40625)"/>
      </g>
     </g>
    </g>
    <g id="ytick_6">
     <g id="line2d_25">
      <path d="M 61.36 153.048398 
L 516.09952 153.048398 
" clip-path="url(#p176f74cfc9)" style="fill: none; stroke: #ffffff; stroke-width: 0.8; stroke-linecap: round"/>
     </g>
     <g id="line2d_26"/>
     <g id="text_14">
      <!-- $\mathdefault{2.5}$ -->
      <g style="fill: #262626" transform="translate(40.36 157.829179) scale(0.14 -0.14)">
       <use xlink:href="#STIXGeneral-Regular-32" transform="translate(0 0.203125)"/>
       <use xlink:href="#STIXGeneral-Regular-2e" transform="translate(49.999985 0.203125)"/>
       <use xlink:href="#STIXGeneral-Regular-35" transform="translate(74.999969 0.203125)"/>
      </g>
     </g>
    </g>
    <g id="ytick_7">
     <g id="line2d_27">
      <path d="M 61.36 120.818173 
L 516.09952 120.818173 
" clip-path="url(#p176f74cfc9)" style="fill: none; stroke: #ffffff; stroke-width: 0.8; stroke-linecap: round"/>
     </g>
     <g id="line2d_28"/>
     <g id="text_15">
      <!-- $\mathdefault{5.0}$ -->
      <g style="fill: #262626" transform="translate(40.36 125.598955) scale(0.14 -0.14)">
       <use xlink:href="#STIXGeneral-Regular-35" transform="translate(0 0.203125)"/>
       <use xlink:href="#STIXGeneral-Regular-2e" transform="translate(49.999985 0.203125)"/>
       <use xlink:href="#STIXGeneral-Regular-30" transform="translate(74.999969 0.203125)"/>
      </g>
     </g>
    </g>
    <g id="ytick_8">
     <g id="line2d_29">
      <path d="M 61.36 88.587949 
L 516.09952 88.587949 
" clip-path="url(#p176f74cfc9)" style="fill: none; stroke: #ffffff; stroke-width: 0.8; stroke-linecap: round"/>
     </g>
     <g id="line2d_30"/>
     <g id="text_16">
      <!-- $\mathdefault{7.5}$ -->
      <g style="fill: #262626" transform="translate(40.36 93.36873) scale(0.14 -0.14)">
       <use xlink:href="#STIXGeneral-Regular-37" transform="translate(0 0.203125)"/>
       <use xlink:href="#STIXGeneral-Regular-2e" transform="translate(49.999985 0.203125)"/>
       <use xlink:href="#STIXGeneral-Regular-35" transform="translate(74.999969 0.203125)"/>
      </g>
     </g>
    </g>
    <g id="ytick_9">
     <g id="line2d_31">
      <path d="M 61.36 56.357724 
L 516.09952 56.357724 
" clip-path="url(#p176f74cfc9)" style="fill: none; stroke: #ffffff; stroke-width: 0.8; stroke-linecap: round"/>
     </g>
     <g id="line2d_32"/>
     <g id="text_17">
      <!-- $\mathdefault{10.0}$ -->
      <g style="fill: #262626" transform="translate(33.36 61.138506) scale(0.14 -0.14)">
       <use xlink:href="#STIXGeneral-Regular-31" transform="translate(0 0.40625)"/>
       <use xlink:href="#STIXGeneral-Regular-30" transform="translate(49.999985 0.40625)"/>
       <use xlink:href="#STIXGeneral-Regular-2e" transform="translate(99.999969 0.40625)"/>
       <use xlink:href="#STIXGeneral-Regular-30" transform="translate(124.999954 0.40625)"/>
      </g>
     </g>
    </g>
    <g id="ytick_10">
     <g id="line2d_33">
      <path d="M 61.36 24.1275 
L 516.09952 24.1275 
" clip-path="url(#p176f74cfc9)" style="fill: none; stroke: #ffffff; stroke-width: 0.8; stroke-linecap: round"/>
     </g>
     <g id="line2d_34"/>
     <g id="text_18">
      <!-- $\mathdefault{12.5}$ -->
      <g style="fill: #262626" transform="translate(33.36 28.908281) scale(0.14 -0.14)">
       <use xlink:href="#STIXGeneral-Regular-31" transform="translate(0 0.203125)"/>
       <use xlink:href="#STIXGeneral-Regular-32" transform="translate(49.999985 0.203125)"/>
       <use xlink:href="#STIXGeneral-Regular-2e" transform="translate(99.999969 0.203125)"/>
       <use xlink:href="#STIXGeneral-Regular-35" transform="translate(124.999954 0.203125)"/>
      </g>
     </g>
    </g>
    <g id="text_19">
     <!-- Outcome (Y) -->
     <g style="fill: #262626" transform="translate(17.444531 208.943979) rotate(-90) scale(0.15 -0.15)">
      <defs>
       <path id="STIXGeneral-Regular-4f" d="M 4403 2118 
Q 4403 1133 3820 521 
Q 3238 -90 2310 -90 
Q 1376 -90 797 524 
Q 218 1139 218 2138 
Q 218 3110 797 3718 
Q 1376 4326 2310 4326 
Q 3245 4326 3824 3702 
Q 4403 3078 4403 2118 
z
M 3674 2157 
Q 3674 2701 3520 3133 
Q 3366 3565 3091 3795 
Q 2733 4096 2304 4096 
Q 1760 4096 1389 3667 
Q 1184 3437 1065 3011 
Q 947 2586 947 2125 
Q 947 960 1523 429 
Q 1837 141 2317 141 
Q 2816 141 3142 448 
Q 3674 960 3674 2157 
z
" transform="scale(0.015625)"/>
       <path id="STIXGeneral-Regular-75" d="M 3072 320 
L 3072 230 
Q 2573 96 2195 -58 
L 2163 -38 
L 2163 486 
L 2150 486 
Q 1747 -64 1235 -64 
Q 870 -64 662 160 
Q 454 384 454 755 
L 454 2362 
Q 454 2598 371 2688 
Q 288 2778 58 2790 
L 58 2880 
L 992 2880 
L 992 813 
Q 992 595 1123 451 
Q 1254 307 1446 307 
Q 1760 307 1984 506 
Q 2067 582 2099 649 
Q 2131 717 2131 877 
L 2131 2355 
Q 2131 2605 2041 2678 
Q 1952 2752 1658 2771 
L 1658 2880 
L 2669 2880 
L 2669 685 
Q 2669 461 2742 390 
Q 2816 320 3034 320 
L 3072 320 
z
" transform="scale(0.015625)"/>
       <path id="STIXGeneral-Regular-6d" d="M 4960 0 
L 3565 0 
L 3565 96 
Q 3834 122 3907 208 
Q 3981 294 3981 576 
L 3981 1894 
Q 3981 2278 3869 2444 
Q 3757 2611 3488 2611 
Q 3264 2611 3107 2521 
Q 2950 2432 2803 2221 
L 2803 608 
Q 2803 301 2896 201 
Q 2989 102 3264 96 
L 3264 0 
L 1830 0 
L 1830 96 
Q 2112 115 2189 188 
Q 2266 262 2266 550 
L 2266 1901 
Q 2266 2611 1850 2611 
Q 1670 2611 1468 2531 
Q 1267 2451 1171 2336 
Q 1088 2240 1088 2227 
L 1088 448 
Q 1088 243 1177 176 
Q 1267 109 1523 96 
L 1523 0 
L 102 0 
L 102 96 
Q 371 102 460 195 
Q 550 288 550 563 
L 550 2150 
Q 550 2387 499 2480 
Q 448 2573 326 2573 
Q 230 2573 122 2547 
L 122 2656 
Q 557 2778 1011 2944 
L 1062 2925 
L 1062 2451 
L 1075 2451 
Q 1363 2752 1584 2848 
Q 1805 2944 2054 2944 
Q 2560 2944 2733 2406 
Q 3232 2944 3776 2944 
Q 4518 2944 4518 1792 
L 4518 493 
Q 4518 282 4582 202 
Q 4646 122 4794 109 
L 4960 96 
L 4960 0 
z
" transform="scale(0.015625)"/>
       <path id="STIXGeneral-Regular-59" d="M 4499 4237 
L 4499 4115 
Q 4218 4090 4054 3955 
Q 3891 3821 3616 3398 
L 2669 1939 
L 2669 710 
Q 2669 346 2790 243 
Q 2912 141 3328 122 
L 3328 0 
L 1370 0 
L 1370 122 
Q 1805 154 1910 259 
Q 2016 365 2016 787 
L 2016 1882 
L 1178 3110 
Q 742 3750 556 3926 
Q 371 4102 141 4115 
L 141 4237 
L 1926 4237 
L 1926 4115 
L 1773 4109 
Q 1472 4102 1472 3942 
Q 1472 3808 1587 3642 
L 2522 2227 
L 3450 3648 
Q 3539 3782 3539 3917 
Q 3533 4026 3440 4067 
Q 3347 4109 3104 4115 
L 3104 4237 
L 4499 4237 
z
" transform="scale(0.015625)"/>
      </defs>
      <use xlink:href="#STIXGeneral-Regular-4f"/>
      <use xlink:href="#STIXGeneral-Regular-75" x="72.199982"/>
      <use xlink:href="#STIXGeneral-Regular-74" x="122.199966"/>
      <use xlink:href="#STIXGeneral-Regular-63" x="149.999954"/>
      <use xlink:href="#STIXGeneral-Regular-6f" x="194.399948"/>
      <use xlink:href="#STIXGeneral-Regular-6d" x="244.399933"/>
      <use xlink:href="#STIXGeneral-Regular-65" x="322.199921"/>
      <use xlink:href="#STIXGeneral-Regular-20" x="366.599915"/>
      <use xlink:href="#STIXGeneral-Regular-28" x="391.599899"/>
      <use xlink:href="#STIXGeneral-Regular-59" x="424.899887"/>
      <use xlink:href="#STIXGeneral-Regular-29" x="497.099869"/>
     </g>
    </g>
   </g>
   <g id="PolyCollection_1">
    <defs>
     <path id="m046cb036da" d="M 127.623083 -124.321966 
L 127.623083 -106.857567 
L 128.552233 -107.708655 
L 130.410534 -108.559061 
L 132.268835 -109.408785 
L 134.127135 -110.257826 
L 135.985436 -111.106186 
L 137.843737 -111.953862 
L 139.702037 -112.800857 
L 141.560338 -113.647169 
L 143.418639 -114.492799 
L 145.276939 -115.337746 
L 147.13524 -116.182011 
L 148.993541 -117.025594 
L 150.851841 -117.868495 
L 152.710142 -118.710713 
L 154.568443 -119.552249 
L 156.426743 -120.393103 
L 158.285044 -121.233274 
L 160.143345 -122.072763 
L 162.001645 -122.91157 
L 163.859946 -123.749694 
L 165.718247 -124.587136 
L 167.576547 -125.423896 
L 169.434848 -126.259973 
L 171.293149 -127.095368 
L 173.151449 -127.930081 
L 175.00975 -128.764112 
L 176.868051 -129.59746 
L 178.726351 -130.437003 
L 180.584652 -131.263303 
L 182.442953 -132.088518 
L 184.301253 -132.912853 
L 186.159554 -133.735655 
L 188.017855 -134.560291 
L 189.876155 -135.387588 
L 191.734456 -136.216338 
L 193.592757 -137.04595 
L 195.451057 -137.875837 
L 197.309358 -138.705986 
L 199.167659 -139.536399 
L 201.025959 -140.366776 
L 202.88426 -141.197078 
L 204.742561 -142.026859 
L 206.600861 -142.857672 
L 208.459162 -143.689245 
L 210.317463 -144.521323 
L 212.175763 -145.349865 
L 214.034064 -146.177544 
L 215.892365 -147.003139 
L 217.750665 -147.828301 
L 219.608966 -148.653688 
L 221.467267 -149.47826 
L 223.325567 -150.300982 
L 225.183868 -151.121967 
L 227.042169 -151.940058 
L 228.900469 -152.755581 
L 230.75877 -153.570636 
L 232.617071 -154.383423 
L 234.475371 -155.194573 
L 236.333672 -156.006371 
L 238.191973 -156.818002 
L 240.050273 -157.628714 
L 241.908574 -158.435948 
L 243.766875 -159.243507 
L 245.625175 -160.051068 
L 247.483476 -160.856523 
L 249.341777 -161.66027 
L 251.200077 -162.45934 
L 253.058378 -163.256021 
L 254.916679 -164.053731 
L 256.774979 -164.851508 
L 258.63328 -165.649062 
L 260.491581 -166.443239 
L 262.349881 -167.235654 
L 264.208182 -168.026461 
L 266.066483 -168.815446 
L 267.924783 -169.603083 
L 269.783084 -170.389628 
L 271.641385 -171.174796 
L 273.499685 -171.953317 
L 275.357986 -172.730926 
L 277.216287 -173.508686 
L 279.074587 -174.287578 
L 280.932888 -175.068945 
L 282.791189 -175.851792 
L 284.649489 -176.635023 
L 286.50779 -177.418616 
L 288.366091 -178.203612 
L 290.224391 -178.98664 
L 292.082692 -179.7661 
L 293.940993 -180.534921 
L 295.799293 -181.301031 
L 297.657594 -182.064865 
L 299.515895 -182.826401 
L 301.374195 -183.58563 
L 303.232496 -184.342557 
L 305.090797 -185.09684 
L 306.949097 -185.846579 
L 308.807398 -186.590524 
L 310.665699 -187.332954 
L 312.523999 -188.073436 
L 314.3823 -188.816024 
L 316.240601 -189.557777 
L 318.098901 -190.299569 
L 319.957202 -191.039042 
L 321.815503 -191.774872 
L 323.673803 -192.507129 
L 325.532104 -193.239421 
L 327.390405 -193.971574 
L 329.248705 -194.693673 
L 331.107006 -195.416367 
L 332.965307 -196.137971 
L 334.823607 -196.860418 
L 336.681908 -197.583493 
L 338.540209 -198.304813 
L 340.398509 -199.024656 
L 342.25681 -199.740763 
L 344.115111 -200.449041 
L 345.973411 -201.155949 
L 347.831712 -201.860824 
L 349.690013 -202.566202 
L 351.548313 -203.272426 
L 353.406614 -203.982669 
L 355.264915 -204.695483 
L 357.123215 -205.40987 
L 358.981516 -206.124577 
L 360.839817 -206.839448 
L 362.698117 -207.556507 
L 364.556418 -208.27465 
L 366.414719 -208.992851 
L 368.273019 -209.711367 
L 370.13132 -210.429894 
L 371.989621 -211.148398 
L 373.847921 -211.867053 
L 375.706222 -212.591819 
L 377.564523 -213.317728 
L 379.422823 -214.043319 
L 381.281124 -214.766753 
L 383.139425 -215.487335 
L 384.997725 -216.205905 
L 386.856026 -216.922103 
L 388.714327 -217.634879 
L 390.572627 -218.34397 
L 392.430928 -219.049163 
L 394.289229 -219.75024 
L 396.147529 -220.455967 
L 398.00583 -221.160081 
L 399.864131 -221.862777 
L 401.722431 -222.564061 
L 403.580732 -223.263947 
L 405.439033 -223.962455 
L 407.297333 -224.659858 
L 409.155634 -225.359115 
L 411.013935 -226.060803 
L 412.872235 -226.760727 
L 414.730536 -227.458598 
L 416.588837 -228.154197 
L 418.447137 -228.847305 
L 420.305438 -229.537896 
L 422.163739 -230.226426 
L 424.022039 -230.912984 
L 425.88034 -231.598077 
L 427.738641 -232.278552 
L 429.596941 -232.953441 
L 431.455242 -233.635431 
L 433.313543 -234.315829 
L 435.171843 -234.994307 
L 437.030144 -235.670768 
L 438.888445 -236.345118 
L 440.746746 -237.017303 
L 442.605046 -237.687475 
L 444.463347 -238.358258 
L 446.321648 -239.036717 
L 448.179948 -239.718393 
L 450.038249 -240.400288 
L 451.89655 -241.0824 
L 453.75485 -241.76473 
L 455.613151 -242.447279 
L 457.471452 -243.130045 
L 459.329752 -243.813029 
L 461.188053 -244.496232 
L 463.046354 -245.179652 
L 464.904654 -245.86329 
L 466.762955 -246.547147 
L 468.621256 -247.231221 
L 470.479556 -247.915514 
L 472.337857 -248.600024 
L 474.196158 -249.284753 
L 476.054458 -249.969699 
L 477.912759 -250.654864 
L 479.77106 -251.340246 
L 481.62936 -252.025847 
L 483.487661 -252.711666 
L 485.345962 -253.397702 
L 487.204262 -254.083957 
L 489.062563 -254.77043 
L 490.920864 -255.45712 
L 492.779164 -256.144029 
L 494.637465 -256.831156 
L 496.495766 -257.5185 
L 496.495766 -276.758434 
L 496.495766 -276.758434 
L 494.637465 -275.910715 
L 492.779164 -275.063687 
L 490.920864 -274.217351 
L 489.062563 -273.371706 
L 487.204262 -272.526752 
L 485.345962 -271.68249 
L 483.487661 -270.838919 
L 481.62936 -269.996039 
L 479.77106 -269.153851 
L 477.912759 -268.312355 
L 476.054458 -267.471549 
L 474.196158 -266.631435 
L 472.337857 -265.792013 
L 470.479556 -264.953282 
L 468.621256 -264.115242 
L 466.762955 -263.277894 
L 464.904654 -262.441237 
L 463.046354 -261.605272 
L 461.188053 -260.769998 
L 459.329752 -259.935415 
L 457.471452 -259.101524 
L 455.613151 -258.268324 
L 453.75485 -257.435816 
L 451.89655 -256.603999 
L 450.038249 -255.772874 
L 448.179948 -254.942439 
L 446.321648 -254.112697 
L 444.463347 -253.283742 
L 442.605046 -252.462981 
L 440.746746 -251.643995 
L 438.888445 -250.824148 
L 437.030144 -250.003151 
L 435.171843 -249.181015 
L 433.313543 -248.357814 
L 431.455242 -247.533614 
L 429.596941 -246.70701 
L 427.738641 -245.887933 
L 425.88034 -245.064632 
L 424.022039 -244.238026 
L 422.163739 -243.411236 
L 420.305438 -242.582797 
L 418.447137 -241.752663 
L 416.588837 -240.920671 
L 414.730536 -240.086949 
L 412.872235 -239.251739 
L 411.013935 -238.415271 
L 409.155634 -237.577829 
L 407.297333 -236.742865 
L 405.439033 -235.909941 
L 403.580732 -235.07623 
L 401.722431 -234.241577 
L 399.864131 -233.40607 
L 398.00583 -232.569794 
L 396.147529 -231.732826 
L 394.289229 -230.894878 
L 392.430928 -230.062413 
L 390.572627 -229.226165 
L 388.714327 -228.386986 
L 386.856026 -227.54526 
L 384.997725 -226.70136 
L 383.139425 -225.856373 
L 381.281124 -225.010737 
L 379.422823 -224.163199 
L 377.564523 -223.314483 
L 375.706222 -222.466379 
L 373.847921 -221.620632 
L 371.989621 -220.781508 
L 370.13132 -219.944214 
L 368.273019 -219.108669 
L 366.414719 -218.274593 
L 364.556418 -217.441978 
L 362.698117 -216.611228 
L 360.839817 -215.782671 
L 358.981516 -214.958159 
L 357.123215 -214.135735 
L 355.264915 -213.315807 
L 353.406614 -212.499635 
L 351.548313 -211.68841 
L 349.690013 -210.88428 
L 347.831712 -210.084869 
L 345.973411 -209.290319 
L 344.115111 -208.49848 
L 342.25681 -207.710258 
L 340.398509 -206.918509 
L 338.540209 -206.125599 
L 336.681908 -205.333932 
L 334.823607 -204.542822 
L 332.965307 -203.755311 
L 331.107006 -202.971906 
L 329.248705 -202.190915 
L 327.390405 -201.415927 
L 325.532104 -200.635587 
L 323.673803 -199.859547 
L 321.815503 -199.086455 
L 319.957202 -198.312102 
L 318.098901 -197.537599 
L 316.240601 -196.764726 
L 314.3823 -195.995805 
L 312.523999 -195.230178 
L 310.665699 -194.470343 
L 308.807398 -193.712572 
L 306.949097 -192.957203 
L 305.090797 -192.200714 
L 303.232496 -191.444395 
L 301.374195 -190.689999 
L 299.515895 -189.937187 
L 297.657594 -189.185975 
L 295.799293 -188.436356 
L 293.940993 -187.688307 
L 292.082692 -186.941462 
L 290.224391 -186.187538 
L 288.366091 -185.433835 
L 286.50779 -184.681283 
L 284.649489 -183.932406 
L 282.791189 -183.186059 
L 280.932888 -182.442243 
L 279.074587 -181.702714 
L 277.216287 -180.96898 
L 275.357986 -180.239396 
L 273.499685 -179.513062 
L 271.641385 -178.788643 
L 269.783084 -178.061218 
L 267.924783 -177.334956 
L 266.066483 -176.609934 
L 264.208182 -175.885871 
L 262.349881 -175.163034 
L 260.491581 -174.441641 
L 258.63328 -173.72196 
L 256.774979 -173.001555 
L 254.916679 -172.284284 
L 253.058378 -171.57022 
L 251.200077 -170.860831 
L 249.341777 -170.152012 
L 247.483476 -169.441245 
L 245.625175 -168.731015 
L 243.766875 -168.020537 
L 241.908574 -167.311531 
L 240.050273 -166.603513 
L 238.191973 -165.892647 
L 236.333672 -165.182758 
L 234.475371 -164.474613 
L 232.617071 -163.769745 
L 230.75877 -163.065415 
L 228.900469 -162.360666 
L 227.042169 -161.657017 
L 225.183868 -160.952408 
L 223.325567 -160.246332 
L 221.467267 -159.539114 
L 219.608966 -158.831876 
L 217.750665 -158.126251 
L 215.892365 -157.423235 
L 214.034064 -156.721929 
L 212.175763 -156.020539 
L 210.317463 -155.319902 
L 208.459162 -154.617607 
L 206.600861 -153.917228 
L 204.742561 -153.218875 
L 202.88426 -152.522656 
L 201.025959 -151.82677 
L 199.167659 -151.131568 
L 197.309358 -150.437573 
L 195.451057 -149.744902 
L 193.592757 -149.053481 
L 191.734456 -148.363238 
L 189.876155 -147.674486 
L 188.017855 -146.987551 
L 186.159554 -146.303542 
L 184.301253 -145.622051 
L 182.442953 -144.940511 
L 180.584652 -144.259751 
L 178.726351 -143.57964 
L 176.868051 -142.889173 
L 175.00975 -142.200328 
L 173.151449 -141.511572 
L 171.293149 -140.822907 
L 169.434848 -140.134331 
L 167.576547 -139.445846 
L 165.718247 -138.757451 
L 163.859946 -138.069146 
L 162.001645 -137.380931 
L 160.143345 -136.692806 
L 158.285044 -136.004771 
L 156.426743 -135.316827 
L 154.568443 -134.628972 
L 152.710142 -133.941208 
L 150.851841 -133.253533 
L 148.993541 -132.565949 
L 147.13524 -131.878455 
L 145.276939 -131.191051 
L 143.418639 -130.503737 
L 141.560338 -129.816513 
L 139.702037 -129.129379 
L 137.843737 -128.442336 
L 135.985436 -127.755382 
L 134.127135 -127.068519 
L 132.268835 -126.381746 
L 130.410534 -125.695062 
L 128.552233 -125.008469 
L 127.623083 -124.321966 
z
" style="stroke: #da70d6; stroke-opacity: 0.5; stroke-width: 0.8"/>
    </defs>
    <g clip-path="url(#p176f74cfc9)">
     <use xlink:href="#m046cb036da" x="0" y="353.99952" style="fill: #da70d6; fill-opacity: 0.5; stroke: #da70d6; stroke-opacity: 0.5; stroke-width: 0.8"/>
    </g>
   </g>
   <g id="PolyCollection_2">
    <defs>
     <path id="m011ea7efa8" d="M 127.623083 -154.165652 
L 127.623083 -79.219967 
L 128.552233 -79.965194 
L 130.410534 -80.7105 
L 132.268835 -81.455883 
L 134.127135 -82.201343 
L 135.985436 -82.946882 
L 137.843737 -83.692498 
L 139.702037 -84.438192 
L 141.560338 -85.183964 
L 143.418639 -85.929813 
L 145.276939 -86.67574 
L 147.13524 -87.421745 
L 148.993541 -88.167828 
L 150.851841 -88.913988 
L 152.710142 -89.660227 
L 154.568443 -90.406542 
L 156.426743 -91.152936 
L 158.285044 -91.899408 
L 160.143345 -92.645957 
L 162.001645 -93.392584 
L 163.859946 -94.139289 
L 165.718247 -94.886071 
L 167.576547 -95.632931 
L 169.434848 -96.379869 
L 171.293149 -97.126885 
L 173.151449 -97.873978 
L 175.00975 -98.62115 
L 176.868051 -99.368399 
L 178.726351 -100.060017 
L 180.584652 -100.770435 
L 182.442953 -101.479198 
L 184.301253 -102.187277 
L 186.159554 -102.821645 
L 188.017855 -103.570421 
L 189.876155 -104.298254 
L 191.734456 -104.977903 
L 193.592757 -105.663924 
L 195.451057 -106.373774 
L 197.309358 -107.106287 
L 199.167659 -107.860374 
L 201.025959 -108.630998 
L 202.88426 -109.443113 
L 204.742561 -110.279587 
L 206.600861 -111.087136 
L 208.459162 -111.870009 
L 210.317463 -112.632287 
L 212.175763 -113.379092 
L 214.034064 -114.22625 
L 215.892365 -115.057907 
L 217.750665 -115.857699 
L 219.608966 -116.708141 
L 221.467267 -117.608055 
L 223.325567 -118.50544 
L 225.183868 -119.434359 
L 227.042169 -120.341193 
L 228.900469 -121.205798 
L 230.75877 -122.059411 
L 232.617071 -122.873969 
L 234.475371 -123.675433 
L 236.333672 -124.495875 
L 238.191973 -125.291039 
L 240.050273 -126.080811 
L 241.908574 -126.908571 
L 243.766875 -127.733648 
L 245.625175 -128.47641 
L 247.483476 -129.225052 
L 249.341777 -130.028218 
L 251.200077 -130.714871 
L 253.058378 -131.360094 
L 254.916679 -132.091055 
L 256.774979 -132.833924 
L 258.63328 -133.541499 
L 260.491581 -134.256509 
L 262.349881 -134.956812 
L 264.208182 -135.649619 
L 266.066483 -136.327764 
L 267.924783 -136.945561 
L 269.783084 -137.581709 
L 271.641385 -138.286742 
L 273.499685 -139.018584 
L 275.357986 -139.686628 
L 277.216287 -140.356731 
L 279.074587 -141.094823 
L 280.932888 -141.851113 
L 282.791189 -142.571271 
L 284.649489 -143.284111 
L 286.50779 -143.991231 
L 288.366091 -144.782984 
L 290.224391 -145.468823 
L 292.082692 -146.170458 
L 293.940993 -146.941888 
L 295.799293 -147.737819 
L 297.657594 -148.540945 
L 299.515895 -149.349517 
L 301.374195 -150.161746 
L 303.232496 -150.975805 
L 305.090797 -151.754766 
L 306.949097 -152.490595 
L 308.807398 -153.23756 
L 310.665699 -154.039285 
L 312.523999 -154.895622 
L 314.3823 -155.804467 
L 316.240601 -156.643443 
L 318.098901 -157.493179 
L 319.957202 -158.315303 
L 321.815503 -159.102309 
L 323.673803 -159.8784 
L 325.532104 -160.651384 
L 327.390405 -161.38514 
L 329.248705 -162.120226 
L 331.107006 -162.849809 
L 332.965307 -163.592761 
L 334.823607 -164.364353 
L 336.681908 -165.154798 
L 338.540209 -165.916144 
L 340.398509 -166.620238 
L 342.25681 -167.358036 
L 344.115111 -168.122894 
L 345.973411 -168.835475 
L 347.831712 -169.616652 
L 349.690013 -170.372602 
L 351.548313 -171.022338 
L 353.406614 -171.768086 
L 355.264915 -172.591831 
L 357.123215 -173.386097 
L 358.981516 -174.104915 
L 360.839817 -174.745624 
L 362.698117 -175.44253 
L 364.556418 -176.140344 
L 366.414719 -176.833776 
L 368.273019 -177.521656 
L 370.13132 -178.26449 
L 371.989621 -179.015449 
L 373.847921 -179.712007 
L 375.706222 -180.38404 
L 377.564523 -181.134763 
L 379.422823 -181.919066 
L 381.281124 -182.670187 
L 383.139425 -183.38797 
L 384.997725 -184.110979 
L 386.856026 -184.840158 
L 388.714327 -185.559831 
L 390.572627 -186.273267 
L 392.430928 -186.984409 
L 394.289229 -187.692557 
L 396.147529 -188.390167 
L 398.00583 -189.091974 
L 399.864131 -189.814569 
L 401.722431 -190.556528 
L 403.580732 -191.31643 
L 405.439033 -192.09286 
L 407.297333 -192.885675 
L 409.155634 -193.708369 
L 411.013935 -194.562301 
L 412.872235 -195.404089 
L 414.730536 -196.226702 
L 416.588837 -197.023654 
L 418.447137 -197.788281 
L 420.305438 -198.539432 
L 422.163739 -199.357662 
L 424.022039 -200.18651 
L 425.88034 -200.98921 
L 427.738641 -201.807118 
L 429.596941 -202.653194 
L 431.455242 -203.515907 
L 433.313543 -204.419668 
L 435.171843 -205.310232 
L 437.030144 -206.183157 
L 438.888445 -207.033876 
L 440.746746 -207.872151 
L 442.605046 -208.775569 
L 444.463347 -209.662269 
L 446.321648 -210.53632 
L 448.179948 -211.331075 
L 450.038249 -212.120695 
L 451.89655 -212.905181 
L 453.75485 -213.684533 
L 455.613151 -214.458751 
L 457.471452 -215.227836 
L 459.329752 -215.991786 
L 461.188053 -216.750602 
L 463.046354 -217.504285 
L 464.904654 -218.252833 
L 466.762955 -218.996247 
L 468.621256 -219.734528 
L 470.479556 -220.467674 
L 472.337857 -221.195686 
L 474.196158 -221.918565 
L 476.054458 -222.636309 
L 477.912759 -223.34892 
L 479.77106 -224.056396 
L 481.62936 -224.758739 
L 483.487661 -225.455947 
L 485.345962 -226.148022 
L 487.204262 -226.834962 
L 489.062563 -227.516769 
L 490.920864 -228.193441 
L 492.779164 -228.86498 
L 494.637465 -229.531384 
L 496.495766 -230.192655 
L 496.495766 -305.369281 
L 496.495766 -305.369281 
L 494.637465 -304.58062 
L 492.779164 -303.791048 
L 490.920864 -303.000564 
L 489.062563 -302.209169 
L 487.204262 -301.416863 
L 485.345962 -300.623645 
L 483.487661 -299.829517 
L 481.62936 -299.034477 
L 479.77106 -298.238526 
L 477.912759 -297.441663 
L 476.054458 -296.64389 
L 474.196158 -295.845205 
L 472.337857 -295.045608 
L 470.479556 -294.245101 
L 468.621256 -293.443682 
L 466.762955 -292.641352 
L 464.904654 -291.838111 
L 463.046354 -291.033959 
L 461.188053 -290.228895 
L 459.329752 -289.42292 
L 457.471452 -288.616034 
L 455.613151 -287.808236 
L 453.75485 -286.999527 
L 451.89655 -286.189907 
L 450.038249 -285.379376 
L 448.179948 -284.567934 
L 446.321648 -283.75558 
L 444.463347 -282.903104 
L 442.605046 -282.076779 
L 440.746746 -281.214011 
L 438.888445 -280.392909 
L 437.030144 -279.571321 
L 435.171843 -278.74296 
L 433.313543 -277.909142 
L 431.455242 -277.071156 
L 429.596941 -276.267597 
L 427.738641 -275.417665 
L 425.88034 -274.599068 
L 424.022039 -273.796215 
L 422.163739 -272.945458 
L 420.305438 -272.080854 
L 418.447137 -271.251245 
L 416.588837 -270.441692 
L 414.730536 -269.646604 
L 412.872235 -268.864325 
L 411.013935 -268.093284 
L 409.155634 -267.330989 
L 407.297333 -266.523542 
L 405.439033 -265.679955 
L 403.580732 -264.847636 
L 401.722431 -264.030889 
L 399.864131 -263.230014 
L 398.00583 -262.445314 
L 396.147529 -261.677093 
L 394.289229 -260.913566 
L 392.430928 -260.11263 
L 390.572627 -259.317525 
L 388.714327 -258.520411 
L 386.856026 -257.715644 
L 384.997725 -256.89977 
L 383.139425 -256.101466 
L 381.281124 -255.321277 
L 379.422823 -254.556162 
L 377.564523 -253.792142 
L 375.706222 -253.031874 
L 373.847921 -252.340182 
L 371.989621 -251.681278 
L 370.13132 -250.999996 
L 368.273019 -250.319908 
L 366.414719 -249.66282 
L 364.556418 -248.98789 
L 362.698117 -248.269172 
L 360.839817 -247.541324 
L 358.981516 -246.885168 
L 357.123215 -246.183928 
L 355.264915 -245.439488 
L 353.406614 -244.754355 
L 351.548313 -244.055079 
L 349.690013 -243.356246 
L 347.831712 -242.633721 
L 345.973411 -241.856653 
L 344.115111 -241.144061 
L 342.25681 -240.403245 
L 340.398509 -239.661593 
L 338.540209 -238.974878 
L 336.681908 -238.260597 
L 334.823607 -237.447326 
L 332.965307 -236.637961 
L 331.107006 -235.856576 
L 329.248705 -235.076315 
L 327.390405 -234.232695 
L 325.532104 -233.418908 
L 323.673803 -232.587128 
L 321.815503 -231.752496 
L 319.957202 -230.967616 
L 318.098901 -230.177809 
L 316.240601 -229.391671 
L 314.3823 -228.578485 
L 312.523999 -227.701242 
L 310.665699 -226.766071 
L 308.807398 -225.861991 
L 306.949097 -224.979594 
L 305.090797 -224.171873 
L 303.232496 -223.387688 
L 301.374195 -222.549487 
L 299.515895 -221.717145 
L 297.657594 -220.891443 
L 295.799293 -220.073125 
L 293.940993 -219.262909 
L 292.082692 -218.467593 
L 290.224391 -217.722511 
L 288.366091 -216.995204 
L 286.50779 -216.197825 
L 284.649489 -215.554962 
L 282.791189 -214.877839 
L 280.932888 -214.171046 
L 279.074587 -213.460546 
L 277.216287 -212.75891 
L 275.357986 -212.082478 
L 273.499685 -211.435994 
L 271.641385 -210.750563 
L 269.783084 -210.051868 
L 267.924783 -209.401785 
L 266.066483 -208.779344 
L 264.208182 -208.157324 
L 262.349881 -207.546873 
L 260.491581 -206.946918 
L 258.63328 -206.377405 
L 256.774979 -205.774787 
L 254.916679 -205.094616 
L 253.058378 -204.468535 
L 251.200077 -203.861566 
L 249.341777 -203.223452 
L 247.483476 -202.527478 
L 245.625175 -201.820132 
L 243.766875 -201.150532 
L 241.908574 -200.403461 
L 240.050273 -199.63735 
L 238.191973 -198.867823 
L 236.333672 -198.087776 
L 234.475371 -197.286788 
L 232.617071 -196.579507 
L 230.75877 -195.877875 
L 228.900469 -195.134896 
L 227.042169 -194.375137 
L 225.183868 -193.624673 
L 223.325567 -192.88622 
L 221.467267 -192.147182 
L 219.608966 -191.391779 
L 217.750665 -190.629831 
L 215.892365 -189.897152 
L 214.034064 -189.133607 
L 212.175763 -188.371354 
L 210.317463 -187.655244 
L 208.459162 -186.981137 
L 206.600861 -186.259716 
L 204.742561 -185.484573 
L 202.88426 -184.648974 
L 201.025959 -183.808268 
L 199.167659 -183.016939 
L 197.309358 -182.226871 
L 195.451057 -181.444169 
L 193.592757 -180.669411 
L 191.734456 -179.90321 
L 189.876155 -179.138885 
L 188.017855 -178.380454 
L 186.159554 -177.618026 
L 184.301253 -176.952355 
L 182.442953 -176.146666 
L 180.584652 -175.367648 
L 178.726351 -174.620794 
L 176.868051 -173.876034 
L 175.00975 -173.126044 
L 173.151449 -172.37759 
L 171.293149 -171.630674 
L 169.434848 -170.885293 
L 167.576547 -170.14145 
L 165.718247 -169.399143 
L 163.859946 -168.658372 
L 162.001645 -167.919139 
L 160.143345 -167.181441 
L 158.285044 -166.445281 
L 156.426743 -165.710657 
L 154.568443 -164.97757 
L 152.710142 -164.246019 
L 150.851841 -163.516005 
L 148.993541 -162.787527 
L 147.13524 -162.060586 
L 145.276939 -161.335182 
L 143.418639 -160.611314 
L 141.560338 -159.888983 
L 139.702037 -159.168189 
L 137.843737 -158.448931 
L 135.985436 -157.731209 
L 134.127135 -157.015025 
L 132.268835 -156.300377 
L 130.410534 -155.587265 
L 128.552233 -154.87569 
L 127.623083 -154.165652 
z
" style="stroke: #ff7f50; stroke-opacity: 0.2; stroke-width: 0.8"/>
    </defs>
    <g clip-path="url(#p176f74cfc9)">
     <use xlink:href="#m011ea7efa8" x="0" y="353.99952" style="fill: #ff7f50; fill-opacity: 0.2; stroke: #ff7f50; stroke-opacity: 0.2; stroke-width: 0.8"/>
    </g>
   </g>
   <g id="line2d_35">
    <defs>
     <path id="m4a614a8b8d" d="M 0 2 
C 0.530406 2 1.03916 1.789267 1.414214 1.414214 
C 1.789267 1.03916 2 0.530406 2 0 
C 2 -0.530406 1.789267 -1.03916 1.414214 -1.414214 
C 1.03916 -1.789267 0.530406 -2 0 -2 
C -0.530406 -2 -1.03916 -1.789267 -1.414214 -1.414214 
C -1.789267 -1.03916 -2 -0.530406 -2 0 
C -2 0.530406 -1.789267 1.03916 -1.414214 1.414214 
C -1.03916 1.789267 -0.530406 2 0 2 
z
" style="stroke: #000000; stroke-opacity: 0.4"/>
    </defs>
    <g clip-path="url(#p176f74cfc9)">
     <use xlink:href="#m4a614a8b8d" x="359.016476" y="141.619817" style="fill: #2a2eec; fill-opacity: 0.4; stroke: #000000; stroke-opacity: 0.4"/>
     <use xlink:href="#m4a614a8b8d" x="284.201008" y="193.877649" style="fill: #2a2eec; fill-opacity: 0.4; stroke: #000000; stroke-opacity: 0.4"/>
     <use xlink:href="#m4a614a8b8d" x="367.83442" y="143.275664" style="fill: #2a2eec; fill-opacity: 0.4; stroke: #000000; stroke-opacity: 0.4"/>
     <use xlink:href="#m4a614a8b8d" x="402.840494" y="124.70862" style="fill: #2a2eec; fill-opacity: 0.4; stroke: #000000; stroke-opacity: 0.4"/>
     <use xlink:href="#m4a614a8b8d" x="296.886834" y="178.420322" style="fill: #2a2eec; fill-opacity: 0.4; stroke: #000000; stroke-opacity: 0.4"/>
     <use xlink:href="#m4a614a8b8d" x="147.702705" y="202.418773" style="fill: #2a2eec; fill-opacity: 0.4; stroke: #000000; stroke-opacity: 0.4"/>
     <use xlink:href="#m4a614a8b8d" x="447.48389" y="77.118879" style="fill: #2a2eec; fill-opacity: 0.4; stroke: #000000; stroke-opacity: 0.4"/>
     <use xlink:href="#m4a614a8b8d" x="417.641965" y="125.654424" style="fill: #2a2eec; fill-opacity: 0.4; stroke: #000000; stroke-opacity: 0.4"/>
     <use xlink:href="#m4a614a8b8d" x="181.023927" y="222.556066" style="fill: #2a2eec; fill-opacity: 0.4; stroke: #000000; stroke-opacity: 0.4"/>
     <use xlink:href="#m4a614a8b8d" x="377.861135" y="119.877004" style="fill: #2a2eec; fill-opacity: 0.4; stroke: #000000; stroke-opacity: 0.4"/>
     <use xlink:href="#m4a614a8b8d" x="316.817372" y="186.678088" style="fill: #2a2eec; fill-opacity: 0.4; stroke: #000000; stroke-opacity: 0.4"/>
     <use xlink:href="#m4a614a8b8d" x="190.813861" y="207.827679" style="fill: #2a2eec; fill-opacity: 0.4; stroke: #000000; stroke-opacity: 0.4"/>
     <use xlink:href="#m4a614a8b8d" x="392.108383" y="144.632589" style="fill: #2a2eec; fill-opacity: 0.4; stroke: #000000; stroke-opacity: 0.4"/>
     <use xlink:href="#m4a614a8b8d" x="324.515777" y="112.645946" style="fill: #2a2eec; fill-opacity: 0.4; stroke: #000000; stroke-opacity: 0.4"/>
     <use xlink:href="#m4a614a8b8d" x="325.904782" y="150.178516" style="fill: #2a2eec; fill-opacity: 0.4; stroke: #000000; stroke-opacity: 0.4"/>
     <use xlink:href="#m4a614a8b8d" x="393.317481" y="109.767754" style="fill: #2a2eec; fill-opacity: 0.4; stroke: #000000; stroke-opacity: 0.4"/>
     <use xlink:href="#m4a614a8b8d" x="230.21903" y="183.619707" style="fill: #2a2eec; fill-opacity: 0.4; stroke: #000000; stroke-opacity: 0.4"/>
     <use xlink:href="#m4a614a8b8d" x="421.30589" y="98.859863" style="fill: #2a2eec; fill-opacity: 0.4; stroke: #000000; stroke-opacity: 0.4"/>
     <use xlink:href="#m4a614a8b8d" x="205.281453" y="207.531226" style="fill: #2a2eec; fill-opacity: 0.4; stroke: #000000; stroke-opacity: 0.4"/>
     <use xlink:href="#m4a614a8b8d" x="355.117225" y="154.584147" style="fill: #2a2eec; fill-opacity: 0.4; stroke: #000000; stroke-opacity: 0.4"/>
     <use xlink:href="#m4a614a8b8d" x="393.631352" y="134.032996" style="fill: #2a2eec; fill-opacity: 0.4; stroke: #000000; stroke-opacity: 0.4"/>
     <use xlink:href="#m4a614a8b8d" x="290.925205" y="177.902339" style="fill: #2a2eec; fill-opacity: 0.4; stroke: #000000; stroke-opacity: 0.4"/>
     <use xlink:href="#m4a614a8b8d" x="292.709806" y="207.823631" style="fill: #2a2eec; fill-opacity: 0.4; stroke: #000000; stroke-opacity: 0.4"/>
     <use xlink:href="#m4a614a8b8d" x="237.49863" y="197.580641" style="fill: #2a2eec; fill-opacity: 0.4; stroke: #000000; stroke-opacity: 0.4"/>
     <use xlink:href="#m4a614a8b8d" x="323.452662" y="180.0128" style="fill: #2a2eec; fill-opacity: 0.4; stroke: #000000; stroke-opacity: 0.4"/>
     <use xlink:href="#m4a614a8b8d" x="215.343368" y="194.770238" style="fill: #2a2eec; fill-opacity: 0.4; stroke: #000000; stroke-opacity: 0.4"/>
     <use xlink:href="#m4a614a8b8d" x="322.000827" y="156.253212" style="fill: #2a2eec; fill-opacity: 0.4; stroke: #000000; stroke-opacity: 0.4"/>
     <use xlink:href="#m4a614a8b8d" x="308.867828" y="177.624248" style="fill: #2a2eec; fill-opacity: 0.4; stroke: #000000; stroke-opacity: 0.4"/>
     <use xlink:href="#m4a614a8b8d" x="160.331384" y="245.464231" style="fill: #2a2eec; fill-opacity: 0.4; stroke: #000000; stroke-opacity: 0.4"/>
     <use xlink:href="#m4a614a8b8d" x="330.769603" y="143.944956" style="fill: #2a2eec; fill-opacity: 0.4; stroke: #000000; stroke-opacity: 0.4"/>
     <use xlink:href="#m4a614a8b8d" x="302.365929" y="166.693178" style="fill: #2a2eec; fill-opacity: 0.4; stroke: #000000; stroke-opacity: 0.4"/>
     <use xlink:href="#m4a614a8b8d" x="253.042435" y="184.85112" style="fill: #2a2eec; fill-opacity: 0.4; stroke: #000000; stroke-opacity: 0.4"/>
     <use xlink:href="#m4a614a8b8d" x="381.160977" y="133.167138" style="fill: #2a2eec; fill-opacity: 0.4; stroke: #000000; stroke-opacity: 0.4"/>
     <use xlink:href="#m4a614a8b8d" x="374.069203" y="131.811776" style="fill: #2a2eec; fill-opacity: 0.4; stroke: #000000; stroke-opacity: 0.4"/>
     <use xlink:href="#m4a614a8b8d" x="173.650664" y="207.107744" style="fill: #2a2eec; fill-opacity: 0.4; stroke: #000000; stroke-opacity: 0.4"/>
     <use xlink:href="#m4a614a8b8d" x="442.451677" y="93.812834" style="fill: #2a2eec; fill-opacity: 0.4; stroke: #000000; stroke-opacity: 0.4"/>
     <use xlink:href="#m4a614a8b8d" x="437.135825" y="81.760106" style="fill: #2a2eec; fill-opacity: 0.4; stroke: #000000; stroke-opacity: 0.4"/>
     <use xlink:href="#m4a614a8b8d" x="496.495766" y="108.993299" style="fill: #2a2eec; fill-opacity: 0.4; stroke: #000000; stroke-opacity: 0.4"/>
     <use xlink:href="#m4a614a8b8d" x="399.034205" y="110.632086" style="fill: #2a2eec; fill-opacity: 0.4; stroke: #000000; stroke-opacity: 0.4"/>
     <use xlink:href="#m4a614a8b8d" x="370.439637" y="141.141046" style="fill: #2a2eec; fill-opacity: 0.4; stroke: #000000; stroke-opacity: 0.4"/>
     <use xlink:href="#m4a614a8b8d" x="236.033391" y="194.880302" style="fill: #2a2eec; fill-opacity: 0.4; stroke: #000000; stroke-opacity: 0.4"/>
     <use xlink:href="#m4a614a8b8d" x="236.938434" y="182.471284" style="fill: #2a2eec; fill-opacity: 0.4; stroke: #000000; stroke-opacity: 0.4"/>
     <use xlink:href="#m4a614a8b8d" x="299.275806" y="195.0316" style="fill: #2a2eec; fill-opacity: 0.4; stroke: #000000; stroke-opacity: 0.4"/>
     <use xlink:href="#m4a614a8b8d" x="268.128946" y="161.999731" style="fill: #2a2eec; fill-opacity: 0.4; stroke: #000000; stroke-opacity: 0.4"/>
     <use xlink:href="#m4a614a8b8d" x="392.169633" y="131.957554" style="fill: #2a2eec; fill-opacity: 0.4; stroke: #000000; stroke-opacity: 0.4"/>
     <use xlink:href="#m4a614a8b8d" x="236.546162" y="159.824099" style="fill: #2a2eec; fill-opacity: 0.4; stroke: #000000; stroke-opacity: 0.4"/>
     <use xlink:href="#m4a614a8b8d" x="187.484277" y="220.288582" style="fill: #2a2eec; fill-opacity: 0.4; stroke: #000000; stroke-opacity: 0.4"/>
     <use xlink:href="#m4a614a8b8d" x="325.476776" y="166.715904" style="fill: #2a2eec; fill-opacity: 0.4; stroke: #000000; stroke-opacity: 0.4"/>
     <use xlink:href="#m4a614a8b8d" x="414.70661" y="125.625671" style="fill: #2a2eec; fill-opacity: 0.4; stroke: #000000; stroke-opacity: 0.4"/>
     <use xlink:href="#m4a614a8b8d" x="281.164068" y="185.21371" style="fill: #2a2eec; fill-opacity: 0.4; stroke: #000000; stroke-opacity: 0.4"/>
     <use xlink:href="#m4a614a8b8d" x="260.57565" y="214.033459" style="fill: #2a2eec; fill-opacity: 0.4; stroke: #000000; stroke-opacity: 0.4"/>
     <use xlink:href="#m4a614a8b8d" x="324.716539" y="179.398053" style="fill: #2a2eec; fill-opacity: 0.4; stroke: #000000; stroke-opacity: 0.4"/>
     <use xlink:href="#m4a614a8b8d" x="263.991268" y="185.945197" style="fill: #2a2eec; fill-opacity: 0.4; stroke: #000000; stroke-opacity: 0.4"/>
     <use xlink:href="#m4a614a8b8d" x="279.309655" y="176.858378" style="fill: #2a2eec; fill-opacity: 0.4; stroke: #000000; stroke-opacity: 0.4"/>
     <use xlink:href="#m4a614a8b8d" x="372.498339" y="168.595767" style="fill: #2a2eec; fill-opacity: 0.4; stroke: #000000; stroke-opacity: 0.4"/>
     <use xlink:href="#m4a614a8b8d" x="324.931639" y="159.527829" style="fill: #2a2eec; fill-opacity: 0.4; stroke: #000000; stroke-opacity: 0.4"/>
     <use xlink:href="#m4a614a8b8d" x="251.897955" y="166.689879" style="fill: #2a2eec; fill-opacity: 0.4; stroke: #000000; stroke-opacity: 0.4"/>
     <use xlink:href="#m4a614a8b8d" x="388.429802" y="126.675374" style="fill: #2a2eec; fill-opacity: 0.4; stroke: #000000; stroke-opacity: 0.4"/>
     <use xlink:href="#m4a614a8b8d" x="272.138004" y="174.69783" style="fill: #2a2eec; fill-opacity: 0.4; stroke: #000000; stroke-opacity: 0.4"/>
     <use xlink:href="#m4a614a8b8d" x="327.629131" y="145.976863" style="fill: #2a2eec; fill-opacity: 0.4; stroke: #000000; stroke-opacity: 0.4"/>
     <use xlink:href="#m4a614a8b8d" x="206.492171" y="186.765802" style="fill: #2a2eec; fill-opacity: 0.4; stroke: #000000; stroke-opacity: 0.4"/>
     <use xlink:href="#m4a614a8b8d" x="242.751896" y="136.961652" style="fill: #2a2eec; fill-opacity: 0.4; stroke: #000000; stroke-opacity: 0.4"/>
     <use xlink:href="#m4a614a8b8d" x="202.669579" y="219.086057" style="fill: #2a2eec; fill-opacity: 0.4; stroke: #000000; stroke-opacity: 0.4"/>
     <use xlink:href="#m4a614a8b8d" x="271.364956" y="188.283155" style="fill: #2a2eec; fill-opacity: 0.4; stroke: #000000; stroke-opacity: 0.4"/>
     <use xlink:href="#m4a614a8b8d" x="207.98506" y="169.465476" style="fill: #2a2eec; fill-opacity: 0.4; stroke: #000000; stroke-opacity: 0.4"/>
     <use xlink:href="#m4a614a8b8d" x="126.693933" y="241.823626" style="fill: #2a2eec; fill-opacity: 0.4; stroke: #000000; stroke-opacity: 0.4"/>
     <use xlink:href="#m4a614a8b8d" x="254.465698" y="189.360904" style="fill: #2a2eec; fill-opacity: 0.4; stroke: #000000; stroke-opacity: 0.4"/>
     <use xlink:href="#m4a614a8b8d" x="240.034913" y="199.38442" style="fill: #2a2eec; fill-opacity: 0.4; stroke: #000000; stroke-opacity: 0.4"/>
     <use xlink:href="#m4a614a8b8d" x="275.494599" y="203.764523" style="fill: #2a2eec; fill-opacity: 0.4; stroke: #000000; stroke-opacity: 0.4"/>
     <use xlink:href="#m4a614a8b8d" x="405.016808" y="164.382916" style="fill: #2a2eec; fill-opacity: 0.4; stroke: #000000; stroke-opacity: 0.4"/>
     <use xlink:href="#m4a614a8b8d" x="379.025608" y="131.683283" style="fill: #2a2eec; fill-opacity: 0.4; stroke: #000000; stroke-opacity: 0.4"/>
     <use xlink:href="#m4a614a8b8d" x="254.243245" y="153.693142" style="fill: #2a2eec; fill-opacity: 0.4; stroke: #000000; stroke-opacity: 0.4"/>
     <use xlink:href="#m4a614a8b8d" x="202.583761" y="205.213423" style="fill: #2a2eec; fill-opacity: 0.4; stroke: #000000; stroke-opacity: 0.4"/>
     <use xlink:href="#m4a614a8b8d" x="236.338401" y="214.605689" style="fill: #2a2eec; fill-opacity: 0.4; stroke: #000000; stroke-opacity: 0.4"/>
     <use xlink:href="#m4a614a8b8d" x="236.721214" y="177.081368" style="fill: #2a2eec; fill-opacity: 0.4; stroke: #000000; stroke-opacity: 0.4"/>
     <use xlink:href="#m4a614a8b8d" x="407.236655" y="121.503009" style="fill: #2a2eec; fill-opacity: 0.4; stroke: #000000; stroke-opacity: 0.4"/>
     <use xlink:href="#m4a614a8b8d" x="275.053983" y="222.35477" style="fill: #2a2eec; fill-opacity: 0.4; stroke: #000000; stroke-opacity: 0.4"/>
     <use xlink:href="#m4a614a8b8d" x="371.911634" y="159.352393" style="fill: #2a2eec; fill-opacity: 0.4; stroke: #000000; stroke-opacity: 0.4"/>
     <use xlink:href="#m4a614a8b8d" x="325.983938" y="118.280319" style="fill: #2a2eec; fill-opacity: 0.4; stroke: #000000; stroke-opacity: 0.4"/>
     <use xlink:href="#m4a614a8b8d" x="200.905504" y="197.719802" style="fill: #2a2eec; fill-opacity: 0.4; stroke: #000000; stroke-opacity: 0.4"/>
     <use xlink:href="#m4a614a8b8d" x="208.648519" y="203.690848" style="fill: #2a2eec; fill-opacity: 0.4; stroke: #000000; stroke-opacity: 0.4"/>
     <use xlink:href="#m4a614a8b8d" x="274.097412" y="180.418503" style="fill: #2a2eec; fill-opacity: 0.4; stroke: #000000; stroke-opacity: 0.4"/>
     <use xlink:href="#m4a614a8b8d" x="342.439837" y="137.467819" style="fill: #2a2eec; fill-opacity: 0.4; stroke: #000000; stroke-opacity: 0.4"/>
     <use xlink:href="#m4a614a8b8d" x="286.462449" y="144.806379" style="fill: #2a2eec; fill-opacity: 0.4; stroke: #000000; stroke-opacity: 0.4"/>
     <use xlink:href="#m4a614a8b8d" x="292.79295" y="147.363385" style="fill: #2a2eec; fill-opacity: 0.4; stroke: #000000; stroke-opacity: 0.4"/>
     <use xlink:href="#m4a614a8b8d" x="265.462969" y="168.866644" style="fill: #2a2eec; fill-opacity: 0.4; stroke: #000000; stroke-opacity: 0.4"/>
     <use xlink:href="#m4a614a8b8d" x="378.399344" y="116.460787" style="fill: #2a2eec; fill-opacity: 0.4; stroke: #000000; stroke-opacity: 0.4"/>
     <use xlink:href="#m4a614a8b8d" x="296.323341" y="183.617548" style="fill: #2a2eec; fill-opacity: 0.4; stroke: #000000; stroke-opacity: 0.4"/>
     <use xlink:href="#m4a614a8b8d" x="343.51265" y="151.164522" style="fill: #2a2eec; fill-opacity: 0.4; stroke: #000000; stroke-opacity: 0.4"/>
     <use xlink:href="#m4a614a8b8d" x="189.823316" y="217.120214" style="fill: #2a2eec; fill-opacity: 0.4; stroke: #000000; stroke-opacity: 0.4"/>
     <use xlink:href="#m4a614a8b8d" x="266.770831" y="191.822749" style="fill: #2a2eec; fill-opacity: 0.4; stroke: #000000; stroke-opacity: 0.4"/>
     <use xlink:href="#m4a614a8b8d" x="270.898558" y="211.14349" style="fill: #2a2eec; fill-opacity: 0.4; stroke: #000000; stroke-opacity: 0.4"/>
     <use xlink:href="#m4a614a8b8d" x="240.163616" y="218.861063" style="fill: #2a2eec; fill-opacity: 0.4; stroke: #000000; stroke-opacity: 0.4"/>
     <use xlink:href="#m4a614a8b8d" x="309.993815" y="149.600198" style="fill: #2a2eec; fill-opacity: 0.4; stroke: #000000; stroke-opacity: 0.4"/>
     <use xlink:href="#m4a614a8b8d" x="227.676301" y="227.135428" style="fill: #2a2eec; fill-opacity: 0.4; stroke: #000000; stroke-opacity: 0.4"/>
     <use xlink:href="#m4a614a8b8d" x="261.766138" y="197.918765" style="fill: #2a2eec; fill-opacity: 0.4; stroke: #000000; stroke-opacity: 0.4"/>
     <use xlink:href="#m4a614a8b8d" x="298.407127" y="197.44671" style="fill: #2a2eec; fill-opacity: 0.4; stroke: #000000; stroke-opacity: 0.4"/>
     <use xlink:href="#m4a614a8b8d" x="274.371913" y="160.305658" style="fill: #2a2eec; fill-opacity: 0.4; stroke: #000000; stroke-opacity: 0.4"/>
     <use xlink:href="#m4a614a8b8d" x="318.890158" y="141.872655" style="fill: #2a2eec; fill-opacity: 0.4; stroke: #000000; stroke-opacity: 0.4"/>
     <use xlink:href="#m4a614a8b8d" x="311.874445" y="161.450145" style="fill: #2a2eec; fill-opacity: 0.4; stroke: #000000; stroke-opacity: 0.4"/>
    </g>
   </g>
   <g id="line2d_36">
    <path d="M 359.016476 143.247619 
L 284.201008 173.818633 
L 367.83442 139.64444 
L 402.840494 125.340297 
L 296.886834 168.634965 
L 147.702705 229.594419 
L 447.48389 107.098161 
L 417.641965 119.292136 
L 181.023927 215.978739 
L 377.861135 135.547335 
L 316.817372 160.49097 
L 190.813861 211.978386 
L 392.108383 129.72564 
L 324.515777 157.345257 
L 325.904782 156.777683 
L 393.317481 129.23158 
L 230.21903 195.87669 
L 421.30589 117.794987 
L 205.281453 206.066655 
L 355.117225 144.840927 
L 393.631352 129.103326 
L 290.925205 171.070999 
L 292.709806 170.341778 
L 237.49863 192.902107 
L 323.452662 157.779665 
L 215.343368 201.955166 
L 322.000827 158.372913 
L 308.867828 163.739304 
L 160.331384 224.434103 
L 330.769603 154.789825 
L 302.365929 166.396103 
L 253.042435 186.550615 
L 381.160977 134.198957 
L 374.069203 137.09679 
L 173.650664 218.991593 
L 442.451677 109.154419 
L 437.135825 111.326576 
L 496.495766 87.070983 
L 399.034205 126.895618 
L 370.439637 138.579899 
L 236.033391 193.500832 
L 236.938434 193.131014 
L 299.275806 167.658786 
L 268.128946 180.385982 
L 392.169633 129.700612 
L 236.546162 193.291304 
L 187.484277 213.338917 
L 325.476776 156.952574 
L 414.70661 120.491577 
L 281.164068 175.059584 
L 260.57565 183.472401 
L 324.716539 157.263222 
L 263.991268 182.076715 
L 279.309655 175.817332 
L 372.498339 137.738675 
L 324.931639 157.175327 
L 251.897955 187.018271 
L 388.429802 131.228778 
L 272.138004 178.747805 
L 327.629131 156.073081 
L 206.492171 205.571933 
L 242.751896 190.755524 
L 202.669579 207.133916 
L 271.364956 179.063687 
L 207.98506 204.96191 
L 126.693933 238.179001 
L 254.465698 185.969043 
L 240.034913 191.865734 
L 275.494599 177.376236 
L 405.016808 124.451014 
L 379.025608 135.071509 
L 254.243245 186.059941 
L 202.583761 207.168983 
L 236.338401 193.376199 
L 236.721214 193.219774 
L 407.236655 123.543942 
L 275.053983 177.55628 
L 371.911634 137.978413 
L 325.983938 156.745338 
L 200.905504 207.854751 
L 208.648519 204.690808 
L 274.097412 177.947153 
L 342.439837 150.021147 
L 286.462449 172.894565 
L 292.79295 170.307803 
L 265.462969 181.47535 
L 378.399344 135.327413 
L 296.323341 168.865219 
L 343.51265 149.582775 
L 189.823316 212.383142 
L 266.770831 180.940933 
L 270.898558 179.254265 
L 240.163616 191.813144 
L 309.993815 163.279205 
L 227.676301 196.915697 
L 261.766138 182.985945 
L 298.407127 168.013744 
L 274.371913 177.834987 
L 318.890158 159.643991 
L 311.874445 162.510744 
" clip-path="url(#p176f74cfc9)" style="fill: none; stroke: #000000; stroke-width: 0.2; stroke-linecap: round"/>
   </g>
   <g id="line2d_37">
    <path d="M 127.623083 247.141953 
L 128.552233 246.290865 
L 163.859946 230.249826 
L 197.309358 215.293534 
L 234.475371 198.804947 
L 260.491581 187.556281 
L 286.50779 176.580904 
L 301.374195 170.41389 
L 319.957202 162.960478 
L 340.398509 154.974864 
L 403.580732 130.735573 
L 431.455242 120.364089 
L 496.495766 96.48102 
L 496.495766 96.48102 
" clip-path="url(#p176f74cfc9)" style="fill: none; stroke: #fa7c17; stroke-opacity: 0; stroke-width: 3; stroke-linecap: round"/>
   </g>
   <g id="line2d_38">
    <path d="M 127.623083 229.677554 
L 128.552233 228.991051 
L 212.175763 197.978981 
L 251.200077 183.138689 
L 269.783084 175.938302 
L 288.366091 168.565685 
L 323.673803 154.139973 
L 345.973411 144.709201 
L 358.981516 139.041361 
L 377.564523 130.685037 
L 403.580732 118.92329 
L 442.605046 101.536539 
L 463.046354 92.394248 
L 496.495766 77.241086 
L 496.495766 77.241086 
" clip-path="url(#p176f74cfc9)" style="fill: none; stroke: #fa7c17; stroke-opacity: 0; stroke-width: 3; stroke-linecap: round"/>
   </g>
   <g id="line2d_39">
    <path d="M 127.623083 274.779553 
L 128.552233 274.034326 
L 182.442953 252.520322 
L 201.025959 245.368522 
L 210.317463 241.367233 
L 214.034064 239.77327 
L 223.325567 235.49408 
L 228.900469 232.793722 
L 234.475371 230.324087 
L 243.766875 226.265872 
L 256.774979 221.165596 
L 266.066483 217.671756 
L 271.641385 215.712778 
L 275.357986 214.312892 
L 279.074587 212.904697 
L 284.649489 210.715409 
L 292.082692 207.829062 
L 299.515895 204.650003 
L 306.949097 201.508925 
L 310.665699 199.960235 
L 321.815503 194.897211 
L 329.248705 191.879294 
L 336.681908 188.844722 
L 344.115111 185.876626 
L 353.406614 182.231434 
L 357.123215 180.613423 
L 362.698117 178.55699 
L 377.564523 172.864757 
L 383.139425 170.61155 
L 407.297333 161.113845 
L 424.022039 153.81301 
L 431.455242 150.483613 
L 438.888445 146.965644 
L 444.463347 144.337251 
L 448.179948 142.668445 
L 461.188053 137.248918 
L 474.196158 132.080955 
L 487.204262 127.164558 
L 496.495766 123.806865 
L 496.495766 123.806865 
" clip-path="url(#p176f74cfc9)" style="fill: none; stroke: #fa7c17; stroke-opacity: 0; stroke-width: 3; stroke-linecap: round"/>
   </g>
   <g id="line2d_40">
    <path d="M 127.623083 199.833868 
L 128.552233 199.12383 
L 150.851841 190.483515 
L 173.151449 181.62193 
L 197.309358 171.772649 
L 210.317463 166.344276 
L 217.750665 163.369689 
L 230.75877 158.121645 
L 236.333672 155.911744 
L 243.766875 152.848988 
L 256.774979 148.224733 
L 269.783084 143.947652 
L 284.649489 138.444558 
L 286.50779 137.801695 
L 290.224391 136.277009 
L 295.799293 133.926395 
L 308.807398 128.137529 
L 316.240601 124.607849 
L 325.532104 120.580612 
L 336.681908 115.738923 
L 370.13132 102.999524 
L 377.564523 100.207378 
L 386.856026 96.283876 
L 399.864131 90.769506 
L 422.163739 81.054062 
L 429.596941 77.731923 
L 438.888445 73.606611 
L 470.479556 59.754419 
L 496.495766 48.630239 
L 496.495766 48.630239 
" clip-path="url(#p176f74cfc9)" style="fill: none; stroke: #fa7c17; stroke-opacity: 0; stroke-width: 3; stroke-linecap: round"/>
   </g>
   <g id="patch_3">
    <path d="M 61.36 314.19952 
L 61.36 24.1275 
" style="fill: none"/>
   </g>
   <g id="patch_4">
    <path d="M 61.36 314.19952 
L 516.09952 314.19952 
" style="fill: none"/>
   </g>
   <g id="text_20">
    <!-- Posterior predictive checks -->
    <g style="fill: #262626" transform="translate(61.36 18.1275) scale(0.16 -0.16)">
     <defs>
      <path id="STIXGeneral-Regular-73" d="M 998 1926 
L 1664 1523 
Q 1984 1331 2105 1164 
Q 2227 998 2227 736 
Q 2227 416 1961 176 
Q 1696 -64 1331 -64 
Q 1030 -64 864 -6 
Q 691 51 570 51 
Q 461 51 416 -26 
L 333 -26 
L 333 979 
L 435 979 
Q 538 512 730 294 
Q 922 77 1248 77 
Q 1485 77 1632 211 
Q 1779 346 1779 550 
Q 1779 845 1440 1030 
L 1094 1222 
Q 326 1651 326 2150 
Q 326 2522 566 2730 
Q 806 2938 1210 2938 
Q 1491 2938 1638 2867 
Q 1754 2816 1818 2816 
Q 1862 2816 1920 2880 
L 1990 2880 
L 2022 2010 
L 1926 2010 
Q 1818 2445 1654 2621 
Q 1491 2797 1203 2797 
Q 986 2797 854 2688 
Q 723 2579 723 2362 
Q 723 2253 796 2128 
Q 870 2003 998 1926 
z
" transform="scale(0.015625)"/>
      <path id="STIXGeneral-Regular-70" d="M 1018 2931 
L 1018 2438 
Q 1421 2944 1939 2944 
Q 2406 2944 2707 2560 
Q 3008 2176 3008 1581 
Q 3008 883 2621 409 
Q 2234 -64 1664 -64 
Q 1466 -64 1328 -6 
Q 1190 51 1018 211 
L 1018 -794 
Q 1018 -1094 1120 -1180 
Q 1222 -1267 1581 -1274 
L 1581 -1389 
L 32 -1389 
L 32 -1280 
Q 314 -1254 397 -1171 
Q 480 -1088 480 -838 
L 480 2157 
Q 480 2381 429 2451 
Q 378 2522 218 2522 
Q 115 2522 58 2515 
L 58 2618 
Q 506 2752 979 2944 
L 1018 2931 
z
M 1018 2138 
L 1018 563 
Q 1018 422 1238 281 
Q 1459 141 1683 141 
Q 2029 141 2243 467 
Q 2458 794 2458 1325 
Q 2458 1888 2243 2224 
Q 2029 2560 1670 2560 
Q 1446 2560 1232 2419 
Q 1018 2278 1018 2138 
z
" transform="scale(0.015625)"/>
      <path id="STIXGeneral-Regular-76" d="M 3053 2880 
L 3053 2784 
Q 2906 2771 2835 2688 
Q 2765 2605 2637 2285 
L 1818 230 
Q 1690 -90 1638 -90 
Q 1587 -90 1523 77 
Q 1510 96 1497 141 
Q 1485 186 1472 211 
L 704 2048 
Q 499 2534 403 2652 
Q 307 2771 122 2784 
L 122 2880 
L 1376 2880 
L 1376 2784 
Q 1210 2771 1146 2732 
Q 1082 2694 1082 2611 
Q 1082 2509 1139 2368 
L 1792 730 
L 2426 2387 
Q 2464 2483 2464 2579 
Q 2464 2758 2163 2784 
L 2163 2880 
L 3053 2880 
z
" transform="scale(0.015625)"/>
      <path id="STIXGeneral-Regular-68" d="M 3117 0 
L 1760 0 
L 1760 96 
Q 2042 128 2118 224 
Q 2195 320 2195 653 
L 2195 1920 
Q 2195 2598 1722 2598 
Q 1530 2598 1370 2508 
Q 1210 2419 1005 2195 
L 1005 653 
Q 1005 320 1081 224 
Q 1158 128 1440 96 
L 1440 0 
L 58 0 
L 58 96 
Q 333 134 400 224 
Q 467 314 467 653 
L 467 3667 
Q 467 3872 406 3933 
Q 346 3994 141 3994 
Q 83 3994 64 3987 
L 64 4090 
L 237 4141 
Q 730 4288 973 4371 
L 1005 4352 
L 1005 2406 
Q 1229 2694 1446 2819 
Q 1664 2944 1946 2944 
Q 2733 2944 2733 1926 
L 2733 653 
Q 2733 320 2793 233 
Q 2854 147 3117 96 
L 3117 0 
z
" transform="scale(0.015625)"/>
      <path id="STIXGeneral-Regular-6b" d="M 3232 0 
L 1837 0 
L 1837 96 
L 1958 96 
Q 2093 96 2093 192 
Q 2093 250 2022 339 
L 1062 1606 
L 1062 429 
Q 1062 262 1142 185 
Q 1222 109 1414 102 
L 1542 96 
L 1542 0 
L 45 0 
L 45 96 
Q 390 154 457 214 
Q 525 275 525 525 
L 525 3610 
Q 525 3840 467 3920 
Q 410 4000 250 4000 
Q 211 4000 45 3987 
L 45 4090 
L 237 4141 
Q 621 4243 1037 4371 
L 1062 4358 
L 1062 1670 
L 1939 2451 
Q 2086 2586 2086 2675 
Q 2086 2739 2019 2761 
Q 1952 2784 1766 2790 
L 1766 2880 
L 3072 2880 
L 3072 2784 
Q 2752 2784 2505 2646 
Q 2259 2509 1690 1978 
L 1504 1805 
L 2483 563 
Q 2829 122 3232 96 
L 3232 0 
z
" transform="scale(0.015625)"/>
     </defs>
     <use xlink:href="#STIXGeneral-Regular-50"/>
     <use xlink:href="#STIXGeneral-Regular-6f" x="55.699997"/>
     <use xlink:href="#STIXGeneral-Regular-73" x="105.699982"/>
     <use xlink:href="#STIXGeneral-Regular-74" x="144.599976"/>
     <use xlink:href="#STIXGeneral-Regular-65" x="172.399963"/>
     <use xlink:href="#STIXGeneral-Regular-72" x="216.799957"/>
     <use xlink:href="#STIXGeneral-Regular-69" x="250.099945"/>
     <use xlink:href="#STIXGeneral-Regular-6f" x="277.899933"/>
     <use xlink:href="#STIXGeneral-Regular-72" x="327.899918"/>
     <use xlink:href="#STIXGeneral-Regular-20" x="361.199905"/>
     <use xlink:href="#STIXGeneral-Regular-70" x="386.19989"/>
     <use xlink:href="#STIXGeneral-Regular-72" x="436.199875"/>
     <use xlink:href="#STIXGeneral-Regular-65" x="469.499863"/>
     <use xlink:href="#STIXGeneral-Regular-64" x="513.899857"/>
     <use xlink:href="#STIXGeneral-Regular-69" x="563.899841"/>
     <use xlink:href="#STIXGeneral-Regular-63" x="591.699829"/>
     <use xlink:href="#STIXGeneral-Regular-74" x="636.099823"/>
     <use xlink:href="#STIXGeneral-Regular-69" x="663.899811"/>
     <use xlink:href="#STIXGeneral-Regular-76" x="691.699799"/>
     <use xlink:href="#STIXGeneral-Regular-65" x="741.699783"/>
     <use xlink:href="#STIXGeneral-Regular-20" x="786.099777"/>
     <use xlink:href="#STIXGeneral-Regular-63" x="811.099762"/>
     <use xlink:href="#STIXGeneral-Regular-68" x="855.499756"/>
     <use xlink:href="#STIXGeneral-Regular-65" x="905.499741"/>
     <use xlink:href="#STIXGeneral-Regular-63" x="949.899734"/>
     <use xlink:href="#STIXGeneral-Regular-6b" x="994.299728"/>
     <use xlink:href="#STIXGeneral-Regular-73" x="1044.299713"/>
    </g>
   </g>
   <g id="legend_1">
    <g id="line2d_41">
     <g>
      <use xlink:href="#m4a614a8b8d" x="78.36" y="34.6275" style="fill: #2a2eec; fill-opacity: 0.4; stroke: #000000; stroke-opacity: 0.4"/>
     </g>
    </g>
    <g id="text_21">
     <!-- Data -->
     <g style="fill: #262626" transform="translate(96.36 38.1275) scale(0.1 -0.1)">
      <defs>
       <path id="STIXGeneral-Regular-44" d="M 102 4237 
L 1830 4237 
Q 3078 4237 3750 3654 
Q 4384 3110 4384 2138 
Q 4384 966 3514 410 
Q 2880 0 1901 0 
L 102 0 
L 102 122 
Q 474 147 570 252 
Q 666 358 666 736 
L 666 3520 
Q 666 3891 570 3990 
Q 474 4090 102 4115 
L 102 4237 
z
M 1318 3731 
L 1318 538 
Q 1318 365 1379 301 
Q 1440 237 1626 237 
Q 2125 237 2432 307 
Q 2739 378 3021 570 
Q 3686 1018 3686 2099 
Q 3686 3027 3078 3558 
Q 2803 3802 2476 3901 
Q 2150 4000 1658 4000 
Q 1472 4000 1395 3942 
Q 1318 3885 1318 3731 
z
" transform="scale(0.015625)"/>
       <path id="STIXGeneral-Regular-61" d="M 2829 422 
L 2829 243 
Q 2586 -64 2253 -64 
Q 1888 -64 1843 403 
L 1837 403 
Q 1427 -64 909 -64 
Q 608 -64 422 112 
Q 237 288 237 602 
Q 237 1050 685 1350 
Q 992 1555 1837 1869 
L 1837 2214 
Q 1837 2502 1699 2646 
Q 1562 2790 1338 2790 
Q 1146 2790 1018 2697 
Q 890 2605 890 2477 
Q 890 2419 909 2348 
Q 928 2278 928 2208 
Q 928 2112 841 2029 
Q 755 1946 634 1946 
Q 525 1946 441 2029 
Q 358 2112 358 2240 
Q 358 2547 685 2752 
Q 986 2944 1421 2944 
Q 1939 2944 2176 2656 
Q 2291 2522 2323 2384 
Q 2355 2246 2355 1946 
L 2355 723 
Q 2355 301 2554 301 
Q 2682 301 2829 422 
z
M 1837 813 
L 1837 1715 
Q 1248 1510 1018 1293 
Q 800 1094 800 800 
Q 800 557 921 432 
Q 1043 307 1242 307 
Q 1453 307 1613 410 
Q 1747 506 1792 589 
Q 1837 672 1837 813 
z
" transform="scale(0.015625)"/>
      </defs>
      <use xlink:href="#STIXGeneral-Regular-44"/>
      <use xlink:href="#STIXGeneral-Regular-61" x="72.199982"/>
      <use xlink:href="#STIXGeneral-Regular-74" x="116.599976"/>
      <use xlink:href="#STIXGeneral-Regular-61" x="144.399963"/>
     </g>
    </g>
    <g id="line2d_42">
     <path d="M 68.36 47.797812 
L 78.36 47.797812 
L 88.36 47.797812 
" style="fill: none; stroke: #000000; stroke-width: 0.2; stroke-linecap: round"/>
    </g>
    <g id="text_22">
     <!-- Mean outcomes -->
     <g style="fill: #262626" transform="translate(96.36 51.297812) scale(0.1 -0.1)">
      <defs>
       <path id="STIXGeneral-Regular-4d" d="M 5530 0 
L 3738 0 
L 3738 122 
Q 4115 147 4214 265 
Q 4314 384 4314 787 
L 4314 3661 
L 2682 0 
L 2592 0 
L 979 3514 
L 979 966 
Q 979 448 1088 294 
Q 1197 141 1574 122 
L 1574 0 
L 77 0 
L 77 122 
Q 358 141 480 205 
Q 602 269 650 432 
Q 698 595 698 966 
L 698 3514 
Q 698 3878 589 3984 
Q 480 4090 90 4115 
L 90 4237 
L 1357 4237 
L 2835 1024 
L 4250 4237 
L 5523 4237 
L 5523 4115 
Q 5178 4109 5072 3993 
Q 4966 3878 4966 3520 
L 4966 717 
Q 4966 378 5072 262 
Q 5178 147 5530 122 
L 5530 0 
z
" transform="scale(0.015625)"/>
       <path id="STIXGeneral-Regular-6e" d="M 3104 0 
L 1773 0 
L 1779 96 
Q 2016 115 2096 233 
Q 2176 352 2176 672 
L 2176 1946 
Q 2176 2592 1709 2592 
Q 1549 2592 1408 2515 
Q 1267 2438 1050 2227 
L 1050 461 
Q 1050 269 1136 192 
Q 1222 115 1466 96 
L 1466 0 
L 115 0 
L 115 96 
Q 358 115 435 214 
Q 512 314 512 602 
L 512 2157 
Q 512 2394 467 2483 
Q 422 2573 288 2573 
Q 160 2573 102 2547 
L 102 2656 
Q 550 2784 979 2944 
L 1030 2925 
L 1030 2426 
L 1037 2426 
Q 1491 2944 1958 2944 
Q 2323 2944 2518 2688 
Q 2714 2432 2714 1958 
L 2714 544 
Q 2714 288 2790 205 
Q 2867 122 3104 96 
L 3104 0 
z
" transform="scale(0.015625)"/>
      </defs>
      <use xlink:href="#STIXGeneral-Regular-4d"/>
      <use xlink:href="#STIXGeneral-Regular-65" x="88.899994"/>
      <use xlink:href="#STIXGeneral-Regular-61" x="133.299988"/>
      <use xlink:href="#STIXGeneral-Regular-6e" x="177.699982"/>
      <use xlink:href="#STIXGeneral-Regular-20" x="227.699966"/>
      <use xlink:href="#STIXGeneral-Regular-6f" x="252.699951"/>
      <use xlink:href="#STIXGeneral-Regular-75" x="302.699936"/>
      <use xlink:href="#STIXGeneral-Regular-74" x="352.699921"/>
      <use xlink:href="#STIXGeneral-Regular-63" x="380.499908"/>
      <use xlink:href="#STIXGeneral-Regular-6f" x="424.899902"/>
      <use xlink:href="#STIXGeneral-Regular-6d" x="474.899887"/>
      <use xlink:href="#STIXGeneral-Regular-65" x="552.699875"/>
      <use xlink:href="#STIXGeneral-Regular-73" x="597.099869"/>
     </g>
    </g>
    <g id="patch_5">
     <path d="M 174.963125 38.1275 
L 194.963125 38.1275 
L 194.963125 31.1275 
L 174.963125 31.1275 
z
" style="fill: #da70d6; fill-opacity: 0.5; stroke: #da70d6; stroke-opacity: 0.5; stroke-width: 0.8; stroke-linejoin: miter"/>
    </g>
    <g id="text_23">
     <!-- Mean Outcome 94% HPD -->
     <g style="fill: #262626" transform="translate(202.963125 38.1275) scale(0.1 -0.1)">
      <defs>
       <path id="STIXGeneral-Regular-39" d="M 378 -141 
L 358 -13 
Q 1094 115 1603 608 
Q 2112 1101 2304 1882 
Q 1933 1517 1344 1517 
Q 826 1517 509 1875 
Q 192 2234 192 2816 
Q 192 3462 573 3894 
Q 954 4326 1523 4326 
Q 2131 4326 2528 3840 
Q 2938 3328 2938 2522 
Q 2938 1958 2742 1462 
Q 2547 966 2170 621 
Q 1773 262 1395 105 
Q 1018 -51 378 -141 
z
M 2317 2272 
L 2317 2522 
Q 2317 4147 1472 4147 
Q 1171 4147 1005 3930 
Q 909 3802 845 3546 
Q 781 3290 781 3034 
Q 781 2464 995 2128 
Q 1210 1792 1568 1792 
Q 1824 1792 2070 1917 
Q 2317 2042 2317 2272 
z
" transform="scale(0.015625)"/>
       <path id="STIXGeneral-Regular-34" d="M 3027 1069 
L 2368 1069 
L 2368 0 
L 1869 0 
L 1869 1069 
L 77 1069 
L 77 1478 
L 2086 4326 
L 2368 4326 
L 2368 1478 
L 3027 1478 
L 3027 1069 
z
M 1869 1478 
L 1869 3674 
L 333 1478 
L 1869 1478 
z
" transform="scale(0.015625)"/>
       <path id="STIXGeneral-Regular-25" d="M 4390 1363 
Q 4390 781 4070 329 
Q 3750 -122 3341 -122 
Q 3014 -122 2790 134 
Q 2566 390 2566 762 
Q 2566 1274 2940 1693 
Q 3315 2112 3776 2112 
Q 4070 2112 4230 1917 
Q 4390 1722 4390 1363 
z
M 4243 1376 
Q 4243 1626 4131 1779 
Q 4019 1933 3840 1933 
Q 3654 1933 3526 1786 
Q 3315 1562 3171 1187 
Q 3027 813 3027 486 
Q 3027 301 3129 176 
Q 3232 51 3386 51 
Q 3718 51 3980 457 
Q 4243 864 4243 1376 
z
M 3974 4518 
L 1222 -115 
L 922 -115 
L 3443 4096 
Q 3264 3891 3094 3811 
Q 2925 3731 2669 3731 
Q 2445 3731 2182 3821 
Q 2208 3674 2208 3539 
Q 2208 3206 2067 2873 
Q 1926 2541 1696 2323 
Q 1453 2086 1146 2086 
Q 826 2086 608 2339 
Q 390 2592 390 2963 
Q 390 3507 761 3916 
Q 1133 4326 1626 4326 
Q 1792 4326 2010 4147 
Q 2310 3898 2624 3898 
Q 2918 3898 3084 3994 
Q 3251 4090 3693 4518 
L 3974 4518 
z
M 2054 3642 
Q 2054 3782 2025 3833 
Q 1997 3885 1894 3936 
Q 1747 4006 1613 4154 
Q 1414 4058 1331 3984 
Q 1248 3910 1152 3750 
Q 845 3264 845 2707 
Q 845 2509 944 2384 
Q 1043 2259 1210 2259 
Q 1549 2259 1801 2675 
Q 2054 3091 2054 3642 
z
" transform="scale(0.015625)"/>
       <path id="STIXGeneral-Regular-48" d="M 4499 0 
L 2714 0 
L 2714 122 
Q 3085 147 3181 265 
Q 3277 384 3277 794 
L 3277 2016 
L 1338 2016 
L 1338 723 
Q 1338 371 1440 256 
Q 1542 141 1894 122 
L 1901 0 
L 115 0 
L 115 122 
Q 493 147 589 259 
Q 685 371 685 781 
L 685 3507 
Q 685 3878 585 3980 
Q 486 4083 115 4115 
L 115 4237 
L 1907 4237 
L 1907 4115 
Q 1549 4083 1443 3977 
Q 1338 3872 1338 3507 
L 1338 2298 
L 3277 2298 
L 3277 3507 
Q 3277 3878 3177 3980 
Q 3078 4083 2707 4115 
L 2707 4237 
L 4499 4237 
L 4499 4115 
Q 4141 4083 4035 3977 
Q 3930 3872 3930 3507 
L 3930 710 
Q 3930 371 4035 259 
Q 4141 147 4499 122 
L 4499 0 
z
" transform="scale(0.015625)"/>
      </defs>
      <use xlink:href="#STIXGeneral-Regular-4d"/>
      <use xlink:href="#STIXGeneral-Regular-65" x="88.899994"/>
      <use xlink:href="#STIXGeneral-Regular-61" x="133.299988"/>
      <use xlink:href="#STIXGeneral-Regular-6e" x="177.699982"/>
      <use xlink:href="#STIXGeneral-Regular-20" x="227.699966"/>
      <use xlink:href="#STIXGeneral-Regular-4f" x="252.699951"/>
      <use xlink:href="#STIXGeneral-Regular-75" x="324.899933"/>
      <use xlink:href="#STIXGeneral-Regular-74" x="374.899918"/>
      <use xlink:href="#STIXGeneral-Regular-63" x="402.699905"/>
      <use xlink:href="#STIXGeneral-Regular-6f" x="447.099899"/>
      <use xlink:href="#STIXGeneral-Regular-6d" x="497.099884"/>
      <use xlink:href="#STIXGeneral-Regular-65" x="574.899872"/>
      <use xlink:href="#STIXGeneral-Regular-20" x="619.299866"/>
      <use xlink:href="#STIXGeneral-Regular-39" x="644.29985"/>
      <use xlink:href="#STIXGeneral-Regular-34" x="694.299835"/>
      <use xlink:href="#STIXGeneral-Regular-25" x="744.29982"/>
      <use xlink:href="#STIXGeneral-Regular-20" x="818.999802"/>
      <use xlink:href="#STIXGeneral-Regular-48" x="843.999786"/>
      <use xlink:href="#STIXGeneral-Regular-50" x="916.199768"/>
      <use xlink:href="#STIXGeneral-Regular-44" x="971.899765"/>
     </g>
    </g>
    <g id="patch_6">
     <path d="M 174.963125 51.297812 
L 194.963125 51.297812 
L 194.963125 44.297812 
L 174.963125 44.297812 
z
" style="fill: #ff7f50; fill-opacity: 0.2; stroke: #ff7f50; stroke-opacity: 0.2; stroke-width: 0.8; stroke-linejoin: miter"/>
    </g>
    <g id="text_24">
     <!-- Outcome 94% HPD -->
     <g style="fill: #262626" transform="translate(202.963125 51.297812) scale(0.1 -0.1)">
      <use xlink:href="#STIXGeneral-Regular-4f"/>
      <use xlink:href="#STIXGeneral-Regular-75" x="72.199982"/>
      <use xlink:href="#STIXGeneral-Regular-74" x="122.199966"/>
      <use xlink:href="#STIXGeneral-Regular-63" x="149.999954"/>
      <use xlink:href="#STIXGeneral-Regular-6f" x="194.399948"/>
      <use xlink:href="#STIXGeneral-Regular-6d" x="244.399933"/>
      <use xlink:href="#STIXGeneral-Regular-65" x="322.199921"/>
      <use xlink:href="#STIXGeneral-Regular-20" x="366.599915"/>
      <use xlink:href="#STIXGeneral-Regular-39" x="391.599899"/>
      <use xlink:href="#STIXGeneral-Regular-34" x="441.599884"/>
      <use xlink:href="#STIXGeneral-Regular-25" x="491.599869"/>
      <use xlink:href="#STIXGeneral-Regular-20" x="566.29985"/>
      <use xlink:href="#STIXGeneral-Regular-48" x="591.299835"/>
      <use xlink:href="#STIXGeneral-Regular-50" x="663.499817"/>
      <use xlink:href="#STIXGeneral-Regular-44" x="719.199814"/>
     </g>
    </g>
   </g>
  </g>
 </g>
 <defs>
  <clipPath id="p176f74cfc9">
   <rect x="61.36" y="24.1275" width="454.73952" height="290.07202"/>
  </clipPath>
 </defs>
</svg>