<?xml version="1.0" encoding="utf-8" standalone="no"?>
<!DOCTYPE svg PUBLIC "-//W3C//DTD SVG 1.1//EN"
  "http://www.w3.org/Graphics/SVG/1.1/DTD/svg11.dtd">
<svg xmlns:xlink="http://www.w3.org/1999/xlink" width="491.822969pt" height="309.024687pt" viewBox="0 0 491.822969 309.024687" xmlns="http://www.w3.org/2000/svg" version="1.1">
 <metadata>
  <rdf:RDF xmlns:dc="http://purl.org/dc/elements/1.1/" xmlns:cc="http://creativecommons.org/ns#" xmlns:rdf="http://www.w3.org/1999/02/22-rdf-syntax-ns#">
   <cc:Work>
    <dc:type rdf:resource="http://purl.org/dc/dcmitype/StillImage"/>
    <dc:date>2023-09-07T18:49:50.872591</dc:date>
    <dc:format>image/svg+xml</dc:format>
    <dc:creator>
     <cc:Agent>
      <dc:title>Matplotlib v3.7.2, https://matplotlib.org/</dc:title>
     </cc:Agent>
    </dc:creator>
   </cc:Work>
  </rdf:RDF>
 </metadata>
 <defs>
  <style type="text/css">*{stroke-linejoin: round; stroke-linecap: butt}</style>
 </defs>
 <g id="figure_1">
  <g id="patch_1">
   <path d="M 0 309.024687 
L 491.822969 309.024687 
L 491.822969 0 
L 0 0 
z
" style="fill: #ffffff; stroke: #ffffff; stroke-linejoin: miter"/>
  </g>
  <g id="axes_1">
   <g id="patch_2">
    <path d="M 49.635938 273.312 
L 406.755938 273.312 
L 406.755938 7.2 
L 49.635938 7.2 
z
" style="fill: #ffffff; stroke: #7f7f7f; stroke-linejoin: miter"/>
   </g>
   <g id="matplotlib.axis_1">
    <g id="xtick_1">
     <g id="line2d_1">
      <path d="M 65.86832 273.312 
L 65.86832 7.2 
" clip-path="url(#pdebc5441f9)" style="fill: none; stroke: #e5e5e5; stroke-width: 0.8"/>
     </g>
     <g id="line2d_2">
      <path d="M 65.86832 273.312 
" style="fill: none; stroke: #000000; stroke-width: 3"/>
      <defs>
       <path id="m5724efbf75" d="M 0 0 
L 0 2.75 
" style="stroke: #333333"/>
      </defs>
      <g>
       <use xlink:href="#m5724efbf75" x="65.86832" y="273.312" style="stroke: #333333"/>
      </g>
     </g>
     <g id="text_1">
      <!-- $\mathdefault{0}$ -->
      <g style="fill: #4d4d4d" transform="translate(63.05232 284.948625) scale(0.088 -0.088)">
       <defs>
        <path id="DejaVuSans-30" d="M 2034 4250 
Q 1547 4250 1301 3770 
Q 1056 3291 1056 2328 
Q 1056 1369 1301 889 
Q 1547 409 2034 409 
Q 2525 409 2770 889 
Q 3016 1369 3016 2328 
Q 3016 3291 2770 3770 
Q 2525 4250 2034 4250 
z
M 2034 4750 
Q 2819 4750 3233 4129 
Q 3647 3509 3647 2328 
Q 3647 1150 3233 529 
Q 2819 -91 2034 -91 
Q 1250 -91 836 529 
Q 422 1150 422 2328 
Q 422 3509 836 4129 
Q 1250 4750 2034 4750 
z
" transform="scale(0.015625)"/>
       </defs>
       <use xlink:href="#DejaVuSans-30" transform="translate(0 0.78125)"/>
      </g>
     </g>
    </g>
    <g id="xtick_2">
     <g id="line2d_3">
      <path d="M 145.949499 273.312 
L 145.949499 7.2 
" clip-path="url(#pdebc5441f9)" style="fill: none; stroke: #e5e5e5; stroke-width: 0.8"/>
     </g>
     <g id="line2d_4">
      <path d="M 145.949499 273.312 
" style="fill: none; stroke: #000000; stroke-width: 3"/>
      <g>
       <use xlink:href="#m5724efbf75" x="145.949499" y="273.312" style="stroke: #333333"/>
      </g>
     </g>
     <g id="text_2">
      <!-- $\mathdefault{5}$ -->
      <g style="fill: #4d4d4d" transform="translate(143.133499 284.948625) scale(0.088 -0.088)">
       <defs>
        <path id="DejaVuSans-35" d="M 691 4666 
L 3169 4666 
L 3169 4134 
L 1269 4134 
L 1269 2991 
Q 1406 3038 1543 3061 
Q 1681 3084 1819 3084 
Q 2600 3084 3056 2656 
Q 3513 2228 3513 1497 
Q 3513 744 3044 326 
Q 2575 -91 1722 -91 
Q 1428 -91 1123 -41 
Q 819 9 494 109 
L 494 744 
Q 775 591 1075 516 
Q 1375 441 1709 441 
Q 2250 441 2565 725 
Q 2881 1009 2881 1497 
Q 2881 1984 2565 2268 
Q 2250 2553 1709 2553 
Q 1456 2553 1204 2497 
Q 953 2441 691 2322 
L 691 4666 
z
" transform="scale(0.015625)"/>
       </defs>
       <use xlink:href="#DejaVuSans-35" transform="translate(0 0.09375)"/>
      </g>
     </g>
    </g>
    <g id="xtick_3">
     <g id="line2d_5">
      <path d="M 226.030677 273.312 
L 226.030677 7.2 
" clip-path="url(#pdebc5441f9)" style="fill: none; stroke: #e5e5e5; stroke-width: 0.8"/>
     </g>
     <g id="line2d_6">
      <path d="M 226.030677 273.312 
" style="fill: none; stroke: #000000; stroke-width: 3"/>
      <g>
       <use xlink:href="#m5724efbf75" x="226.030677" y="273.312" style="stroke: #333333"/>
      </g>
     </g>
     <g id="text_3">
      <!-- $\mathdefault{10}$ -->
      <g style="fill: #4d4d4d" transform="translate(220.398677 284.948625) scale(0.088 -0.088)">
       <defs>
        <path id="DejaVuSans-31" d="M 794 531 
L 1825 531 
L 1825 4091 
L 703 3866 
L 703 4441 
L 1819 4666 
L 2450 4666 
L 2450 531 
L 3481 531 
L 3481 0 
L 794 0 
L 794 531 
z
" transform="scale(0.015625)"/>
       </defs>
       <use xlink:href="#DejaVuSans-31" transform="translate(0 0.78125)"/>
       <use xlink:href="#DejaVuSans-30" transform="translate(63.623047 0.78125)"/>
      </g>
     </g>
    </g>
    <g id="xtick_4">
     <g id="line2d_7">
      <path d="M 306.111855 273.312 
L 306.111855 7.2 
" clip-path="url(#pdebc5441f9)" style="fill: none; stroke: #e5e5e5; stroke-width: 0.8"/>
     </g>
     <g id="line2d_8">
      <path d="M 306.111855 273.312 
" style="fill: none; stroke: #000000; stroke-width: 3"/>
      <g>
       <use xlink:href="#m5724efbf75" x="306.111855" y="273.312" style="stroke: #333333"/>
      </g>
     </g>
     <g id="text_4">
      <!-- $\mathdefault{15}$ -->
      <g style="fill: #4d4d4d" transform="translate(300.479855 284.948625) scale(0.088 -0.088)">
       <use xlink:href="#DejaVuSans-31" transform="translate(0 0.09375)"/>
       <use xlink:href="#DejaVuSans-35" transform="translate(63.623047 0.09375)"/>
      </g>
     </g>
    </g>
    <g id="xtick_5">
     <g id="line2d_9">
      <path d="M 386.193033 273.312 
L 386.193033 7.2 
" clip-path="url(#pdebc5441f9)" style="fill: none; stroke: #e5e5e5; stroke-width: 0.8"/>
     </g>
     <g id="line2d_10">
      <path d="M 386.193033 273.312 
" style="fill: none; stroke: #000000; stroke-width: 3"/>
      <g>
       <use xlink:href="#m5724efbf75" x="386.193033" y="273.312" style="stroke: #333333"/>
      </g>
     </g>
     <g id="text_5">
      <!-- $\mathdefault{20}$ -->
      <g style="fill: #4d4d4d" transform="translate(380.561033 284.948625) scale(0.088 -0.088)">
       <defs>
        <path id="DejaVuSans-32" d="M 1228 531 
L 3431 531 
L 3431 0 
L 469 0 
L 469 531 
Q 828 903 1448 1529 
Q 2069 2156 2228 2338 
Q 2531 2678 2651 2914 
Q 2772 3150 2772 3378 
Q 2772 3750 2511 3984 
Q 2250 4219 1831 4219 
Q 1534 4219 1204 4116 
Q 875 4013 500 3803 
L 500 4441 
Q 881 4594 1212 4672 
Q 1544 4750 1819 4750 
Q 2544 4750 2975 4387 
Q 3406 4025 3406 3419 
Q 3406 3131 3298 2873 
Q 3191 2616 2906 2266 
Q 2828 2175 2409 1742 
Q 1991 1309 1228 531 
z
" transform="scale(0.015625)"/>
       </defs>
       <use xlink:href="#DejaVuSans-32" transform="translate(0 0.78125)"/>
       <use xlink:href="#DejaVuSans-30" transform="translate(63.623047 0.78125)"/>
      </g>
     </g>
    </g>
    <g id="xtick_6">
     <g id="line2d_11">
      <path d="M 105.908909 273.312 
L 105.908909 7.2 
" clip-path="url(#pdebc5441f9)" style="fill: none; stroke: #fafafa"/>
     </g>
    </g>
    <g id="xtick_7">
     <g id="line2d_12">
      <path d="M 185.990088 273.312 
L 185.990088 7.2 
" clip-path="url(#pdebc5441f9)" style="fill: none; stroke: #fafafa"/>
     </g>
    </g>
    <g id="xtick_8">
     <g id="line2d_13">
      <path d="M 266.071266 273.312 
L 266.071266 7.2 
" clip-path="url(#pdebc5441f9)" style="fill: none; stroke: #fafafa"/>
     </g>
    </g>
    <g id="xtick_9">
     <g id="line2d_14">
      <path d="M 346.152444 273.312 
L 346.152444 7.2 
" clip-path="url(#pdebc5441f9)" style="fill: none; stroke: #fafafa"/>
     </g>
    </g>
    <g id="text_6">
     <!-- age -->
     <g transform="translate(212.189609 299.537031) scale(0.11 -0.11)">
      <defs>
       <path id="DejaVuSans-61" d="M 2194 1759 
Q 1497 1759 1228 1600 
Q 959 1441 959 1056 
Q 959 750 1161 570 
Q 1363 391 1709 391 
Q 2188 391 2477 730 
Q 2766 1069 2766 1631 
L 2766 1759 
L 2194 1759 
z
M 3341 1997 
L 3341 0 
L 2766 0 
L 2766 531 
Q 2569 213 2275 61 
Q 1981 -91 1556 -91 
Q 1019 -91 701 211 
Q 384 513 384 1019 
Q 384 1609 779 1909 
Q 1175 2209 1959 2209 
L 2766 2209 
L 2766 2266 
Q 2766 2663 2505 2880 
Q 2244 3097 1772 3097 
Q 1472 3097 1187 3025 
Q 903 2953 641 2809 
L 641 3341 
Q 956 3463 1253 3523 
Q 1550 3584 1831 3584 
Q 2591 3584 2966 3190 
Q 3341 2797 3341 1997 
z
" transform="scale(0.015625)"/>
       <path id="DejaVuSans-67" d="M 2906 1791 
Q 2906 2416 2648 2759 
Q 2391 3103 1925 3103 
Q 1463 3103 1205 2759 
Q 947 2416 947 1791 
Q 947 1169 1205 825 
Q 1463 481 1925 481 
Q 2391 481 2648 825 
Q 2906 1169 2906 1791 
z
M 3481 434 
Q 3481 -459 3084 -895 
Q 2688 -1331 1869 -1331 
Q 1566 -1331 1297 -1286 
Q 1028 -1241 775 -1147 
L 775 -588 
Q 1028 -725 1275 -790 
Q 1522 -856 1778 -856 
Q 2344 -856 2625 -561 
Q 2906 -266 2906 331 
L 2906 616 
Q 2728 306 2450 153 
Q 2172 0 1784 0 
Q 1141 0 747 490 
Q 353 981 353 1791 
Q 353 2603 747 3093 
Q 1141 3584 1784 3584 
Q 2172 3584 2450 3431 
Q 2728 3278 2906 2969 
L 2906 3500 
L 3481 3500 
L 3481 434 
z
" transform="scale(0.015625)"/>
       <path id="DejaVuSans-65" d="M 3597 1894 
L 3597 1613 
L 953 1613 
Q 991 1019 1311 708 
Q 1631 397 2203 397 
Q 2534 397 2845 478 
Q 3156 559 3463 722 
L 3463 178 
Q 3153 47 2828 -22 
Q 2503 -91 2169 -91 
Q 1331 -91 842 396 
Q 353 884 353 1716 
Q 353 2575 817 3079 
Q 1281 3584 2069 3584 
Q 2775 3584 3186 3129 
Q 3597 2675 3597 1894 
z
M 3022 2063 
Q 3016 2534 2758 2815 
Q 2500 3097 2075 3097 
Q 1594 3097 1305 2825 
Q 1016 2553 972 2059 
L 3022 2063 
z
" transform="scale(0.015625)"/>
      </defs>
      <use xlink:href="#DejaVuSans-61"/>
      <use xlink:href="#DejaVuSans-67" x="61.279297"/>
      <use xlink:href="#DejaVuSans-65" x="124.755859"/>
     </g>
    </g>
   </g>
   <g id="matplotlib.axis_2">
    <g id="ytick_1">
     <g id="line2d_15">
      <path d="M 49.635938 264.720062 
L 406.755938 264.720062 
" clip-path="url(#pdebc5441f9)" style="fill: none; stroke: #e5e5e5; stroke-width: 0.8"/>
     </g>
     <g id="line2d_16">
      <path d="M 49.635938 264.720062 
" style="fill: none; stroke: #000000; stroke-width: 3"/>
      <defs>
       <path id="mae97f129b8" d="M 0 0 
L -2.75 0 
" style="stroke: #333333"/>
      </defs>
      <g>
       <use xlink:href="#mae97f129b8" x="49.635938" y="264.720062" style="stroke: #333333"/>
      </g>
     </g>
     <g id="text_7">
      <!-- $\mathdefault{1000}$ -->
      <g style="fill: #4d4d4d" transform="translate(22.245938 267.148312) scale(0.088 -0.088)">
       <use xlink:href="#DejaVuSans-31" transform="translate(0 0.78125)"/>
       <use xlink:href="#DejaVuSans-30" transform="translate(63.623047 0.78125)"/>
       <use xlink:href="#DejaVuSans-30" transform="translate(127.246094 0.78125)"/>
       <use xlink:href="#DejaVuSans-30" transform="translate(190.869141 0.78125)"/>
      </g>
     </g>
    </g>
    <g id="ytick_2">
     <g id="line2d_17">
      <path d="M 49.635938 201.619356 
L 406.755938 201.619356 
" clip-path="url(#pdebc5441f9)" style="fill: none; stroke: #e5e5e5; stroke-width: 0.8"/>
     </g>
     <g id="line2d_18">
      <path d="M 49.635938 201.619356 
" style="fill: none; stroke: #000000; stroke-width: 3"/>
      <g>
       <use xlink:href="#mae97f129b8" x="49.635938" y="201.619356" style="stroke: #333333"/>
      </g>
     </g>
     <g id="text_8">
      <!-- $\mathdefault{2000}$ -->
      <g style="fill: #4d4d4d" transform="translate(22.245938 204.047606) scale(0.088 -0.088)">
       <use xlink:href="#DejaVuSans-32" transform="translate(0 0.78125)"/>
       <use xlink:href="#DejaVuSans-30" transform="translate(63.623047 0.78125)"/>
       <use xlink:href="#DejaVuSans-30" transform="translate(127.246094 0.78125)"/>
       <use xlink:href="#DejaVuSans-30" transform="translate(190.869141 0.78125)"/>
      </g>
     </g>
    </g>
    <g id="ytick_3">
     <g id="line2d_19">
      <path d="M 49.635938 138.518649 
L 406.755938 138.518649 
" clip-path="url(#pdebc5441f9)" style="fill: none; stroke: #e5e5e5; stroke-width: 0.8"/>
     </g>
     <g id="line2d_20">
      <path d="M 49.635938 138.518649 
" style="fill: none; stroke: #000000; stroke-width: 3"/>
      <g>
       <use xlink:href="#mae97f129b8" x="49.635938" y="138.518649" style="stroke: #333333"/>
      </g>
     </g>
     <g id="text_9">
      <!-- $\mathdefault{3000}$ -->
      <g style="fill: #4d4d4d" transform="translate(22.245938 140.946899) scale(0.088 -0.088)">
       <defs>
        <path id="DejaVuSans-33" d="M 2597 2516 
Q 3050 2419 3304 2112 
Q 3559 1806 3559 1356 
Q 3559 666 3084 287 
Q 2609 -91 1734 -91 
Q 1441 -91 1130 -33 
Q 819 25 488 141 
L 488 750 
Q 750 597 1062 519 
Q 1375 441 1716 441 
Q 2309 441 2620 675 
Q 2931 909 2931 1356 
Q 2931 1769 2642 2001 
Q 2353 2234 1838 2234 
L 1294 2234 
L 1294 2753 
L 1863 2753 
Q 2328 2753 2575 2939 
Q 2822 3125 2822 3475 
Q 2822 3834 2567 4026 
Q 2313 4219 1838 4219 
Q 1578 4219 1281 4162 
Q 984 4106 628 3988 
L 628 4550 
Q 988 4650 1302 4700 
Q 1616 4750 1894 4750 
Q 2613 4750 3031 4423 
Q 3450 4097 3450 3541 
Q 3450 3153 3228 2886 
Q 3006 2619 2597 2516 
z
" transform="scale(0.015625)"/>
       </defs>
       <use xlink:href="#DejaVuSans-33" transform="translate(0 0.78125)"/>
       <use xlink:href="#DejaVuSans-30" transform="translate(63.623047 0.78125)"/>
       <use xlink:href="#DejaVuSans-30" transform="translate(127.246094 0.78125)"/>
       <use xlink:href="#DejaVuSans-30" transform="translate(190.869141 0.78125)"/>
      </g>
     </g>
    </g>
    <g id="ytick_4">
     <g id="line2d_21">
      <path d="M 49.635938 75.417943 
L 406.755938 75.417943 
" clip-path="url(#pdebc5441f9)" style="fill: none; stroke: #e5e5e5; stroke-width: 0.8"/>
     </g>
     <g id="line2d_22">
      <path d="M 49.635938 75.417943 
" style="fill: none; stroke: #000000; stroke-width: 3"/>
      <g>
       <use xlink:href="#mae97f129b8" x="49.635938" y="75.417943" style="stroke: #333333"/>
      </g>
     </g>
     <g id="text_10">
      <!-- $\mathdefault{4000}$ -->
      <g style="fill: #4d4d4d" transform="translate(22.245938 77.846193) scale(0.088 -0.088)">
       <defs>
        <path id="DejaVuSans-34" d="M 2419 4116 
L 825 1625 
L 2419 1625 
L 2419 4116 
z
M 2253 4666 
L 3047 4666 
L 3047 1625 
L 3713 1625 
L 3713 1100 
L 3047 1100 
L 3047 0 
L 2419 0 
L 2419 1100 
L 313 1100 
L 313 1709 
L 2253 4666 
z
" transform="scale(0.015625)"/>
       </defs>
       <use xlink:href="#DejaVuSans-34" transform="translate(0 0.78125)"/>
       <use xlink:href="#DejaVuSans-30" transform="translate(63.623047 0.78125)"/>
       <use xlink:href="#DejaVuSans-30" transform="translate(127.246094 0.78125)"/>
       <use xlink:href="#DejaVuSans-30" transform="translate(190.869141 0.78125)"/>
      </g>
     </g>
    </g>
    <g id="ytick_5">
     <g id="line2d_23">
      <path d="M 49.635938 12.317236 
L 406.755938 12.317236 
" clip-path="url(#pdebc5441f9)" style="fill: none; stroke: #e5e5e5; stroke-width: 0.8"/>
     </g>
     <g id="line2d_24">
      <path d="M 49.635938 12.317236 
" style="fill: none; stroke: #000000; stroke-width: 3"/>
      <g>
       <use xlink:href="#mae97f129b8" x="49.635938" y="12.317236" style="stroke: #333333"/>
      </g>
     </g>
     <g id="text_11">
      <!-- $\mathdefault{5000}$ -->
      <g style="fill: #4d4d4d" transform="translate(22.245938 14.745486) scale(0.088 -0.088)">
       <use xlink:href="#DejaVuSans-35" transform="translate(0 0.78125)"/>
       <use xlink:href="#DejaVuSans-30" transform="translate(63.623047 0.78125)"/>
       <use xlink:href="#DejaVuSans-30" transform="translate(127.246094 0.78125)"/>
       <use xlink:href="#DejaVuSans-30" transform="translate(190.869141 0.78125)"/>
      </g>
     </g>
    </g>
    <g id="ytick_6">
     <g id="line2d_25">
      <path d="M 49.635938 233.169709 
L 406.755938 233.169709 
" clip-path="url(#pdebc5441f9)" style="fill: none; stroke: #fafafa"/>
     </g>
    </g>
    <g id="ytick_7">
     <g id="line2d_26">
      <path d="M 49.635938 170.069002 
L 406.755938 170.069002 
" clip-path="url(#pdebc5441f9)" style="fill: none; stroke: #fafafa"/>
     </g>
    </g>
    <g id="ytick_8">
     <g id="line2d_27">
      <path d="M 49.635938 106.968296 
L 406.755938 106.968296 
" clip-path="url(#pdebc5441f9)" style="fill: none; stroke: #fafafa"/>
     </g>
    </g>
    <g id="ytick_9">
     <g id="line2d_28">
      <path d="M 49.635938 43.86759 
L 406.755938 43.86759 
" clip-path="url(#pdebc5441f9)" style="fill: none; stroke: #fafafa"/>
     </g>
    </g>
    <g id="text_12">
     <!-- sales -->
     <g transform="translate(15.558281 152.540969) rotate(-90) scale(0.11 -0.11)">
      <defs>
       <path id="DejaVuSans-73" d="M 2834 3397 
L 2834 2853 
Q 2591 2978 2328 3040 
Q 2066 3103 1784 3103 
Q 1356 3103 1142 2972 
Q 928 2841 928 2578 
Q 928 2378 1081 2264 
Q 1234 2150 1697 2047 
L 1894 2003 
Q 2506 1872 2764 1633 
Q 3022 1394 3022 966 
Q 3022 478 2636 193 
Q 2250 -91 1575 -91 
Q 1294 -91 989 -36 
Q 684 19 347 128 
L 347 722 
Q 666 556 975 473 
Q 1284 391 1588 391 
Q 1994 391 2212 530 
Q 2431 669 2431 922 
Q 2431 1156 2273 1281 
Q 2116 1406 1581 1522 
L 1381 1569 
Q 847 1681 609 1914 
Q 372 2147 372 2553 
Q 372 3047 722 3315 
Q 1072 3584 1716 3584 
Q 2034 3584 2315 3537 
Q 2597 3491 2834 3397 
z
" transform="scale(0.015625)"/>
       <path id="DejaVuSans-6c" d="M 603 4863 
L 1178 4863 
L 1178 0 
L 603 0 
L 603 4863 
z
" transform="scale(0.015625)"/>
      </defs>
      <use xlink:href="#DejaVuSans-73"/>
      <use xlink:href="#DejaVuSans-61" x="52.099609"/>
      <use xlink:href="#DejaVuSans-6c" x="113.378906"/>
      <use xlink:href="#DejaVuSans-65" x="141.162109"/>
      <use xlink:href="#DejaVuSans-73" x="202.685547"/>
     </g>
    </g>
   </g>
   <g id="PathCollection_1">
    <path d="M 66.122546 198.788928 
C 66.710121 198.788928 67.27371 198.555482 67.689189 198.140003 
C 68.104667 197.724525 68.338113 197.160936 68.338113 196.573361 
C 68.338113 195.985785 68.104667 195.422196 67.689189 195.006718 
C 67.27371 194.591239 66.710121 194.357793 66.122546 194.357793 
C 65.534971 194.357793 64.971382 194.591239 64.555903 195.006718 
C 64.140425 195.422196 63.906979 195.985785 63.906979 196.573361 
C 63.906979 197.160936 64.140425 197.724525 64.555903 198.140003 
C 64.971382 198.555482 65.534971 198.788928 66.122546 198.788928 
z
" clip-path="url(#pdebc5441f9)" style="fill: #000080; stroke: #000080; stroke-width: 0.886227"/>
    <path d="M 66.779323 186.617096 
C 67.366898 186.617096 67.930487 186.38365 68.345965 185.968172 
C 68.761444 185.552693 68.99489 184.989104 68.99489 184.401529 
C 68.99489 183.813954 68.761444 183.250365 68.345965 182.834886 
C 67.930487 182.419408 67.366898 182.185962 66.779323 182.185962 
C 66.191747 182.185962 65.628159 182.419408 65.21268 182.834886 
C 64.797202 183.250365 64.563755 183.813954 64.563755 184.401529 
C 64.563755 184.989104 64.797202 185.552693 65.21268 185.968172 
C 65.628159 186.38365 66.191747 186.617096 66.779323 186.617096 
z
" clip-path="url(#pdebc5441f9)" style="fill: #000080; stroke: #000080; stroke-width: 0.886227"/>
    <path d="M 67.476906 193.37596 
C 68.064481 193.37596 68.62807 193.142514 69.043548 192.727035 
C 69.459027 192.311557 69.692473 191.747968 69.692473 191.160392 
C 69.692473 190.572817 69.459027 190.009228 69.043548 189.59375 
C 68.62807 189.178271 68.064481 188.944825 67.476906 188.944825 
C 66.88933 188.944825 66.325742 189.178271 65.910263 189.59375 
C 65.494785 190.009228 65.261338 190.572817 65.261338 191.160392 
C 65.261338 191.747968 65.494785 192.311557 65.910263 192.727035 
C 66.325742 193.142514 66.88933 193.37596 67.476906 193.37596 
z
" clip-path="url(#pdebc5441f9)" style="fill: #000080; stroke: #000080; stroke-width: 0.886227"/>
    <path d="M 68.13379 176.260837 
C 68.721366 176.260837 69.284954 176.027391 69.700433 175.611912 
C 70.115911 175.196434 70.349358 174.632845 70.349358 174.045269 
C 70.349358 173.457694 70.115911 172.894105 69.700433 172.478627 
C 69.284954 172.063148 68.721366 171.829702 68.13379 171.829702 
C 67.546215 171.829702 66.982626 172.063148 66.567148 172.478627 
C 66.151669 172.894105 65.918223 173.457694 65.918223 174.045269 
C 65.918223 174.632845 66.151669 175.196434 66.567148 175.611912 
C 66.982626 176.027391 67.546215 176.260837 68.13379 176.260837 
z
" clip-path="url(#pdebc5441f9)" style="fill: #000080; stroke: #000080; stroke-width: 0.886227"/>
    <path d="M 68.833094 182.178978 
C 69.420669 182.178978 69.984258 181.945532 70.399737 181.530054 
C 70.815215 181.114575 71.048661 180.550986 71.048661 179.963411 
C 71.048661 179.375836 70.815215 178.812247 70.399737 178.396768 
C 69.984258 177.98129 69.420669 177.747844 68.833094 177.747844 
C 68.245519 177.747844 67.68193 177.98129 67.266451 178.396768 
C 66.850973 178.812247 66.617527 179.375836 66.617527 179.963411 
C 66.617527 180.550986 66.850973 181.114575 67.266451 181.530054 
C 67.68193 181.945532 68.245519 182.178978 68.833094 182.178978 
z
" clip-path="url(#pdebc5441f9)" style="fill: #000080; stroke: #000080; stroke-width: 0.886227"/>
    <path d="M 69.705699 165.479519 
C 70.293274 165.479519 70.856863 165.246073 71.272342 164.830594 
C 71.68782 164.415116 71.921266 163.851527 71.921266 163.263951 
C 71.921266 162.676376 71.68782 162.112787 71.272342 161.697309 
C 70.856863 161.28183 70.293274 161.048384 69.705699 161.048384 
C 69.118124 161.048384 68.554535 161.28183 68.139056 161.697309 
C 67.723578 162.112787 67.490132 162.676376 67.490132 163.263951 
C 67.490132 163.851527 67.723578 164.415116 68.139056 164.830594 
C 68.554535 165.246073 69.118124 165.479519 69.705699 165.479519 
z
" clip-path="url(#pdebc5441f9)" style="fill: #000080; stroke: #000080; stroke-width: 0.886227"/>
    <path d="M 70.577167 173.727366 
C 71.164742 173.727366 71.728331 173.49392 72.143809 173.078442 
C 72.559288 172.662963 72.792734 172.099374 72.792734 171.511799 
C 72.792734 170.924224 72.559288 170.360635 72.143809 169.945156 
C 71.728331 169.529678 71.164742 169.296232 70.577167 169.296232 
C 69.989591 169.296232 69.426003 169.529678 69.010524 169.945156 
C 68.595046 170.360635 68.361599 170.924224 68.361599 171.511799 
C 68.361599 172.099374 68.595046 172.662963 69.010524 173.078442 
C 69.426003 173.49392 69.989591 173.727366 70.577167 173.727366 
z
" clip-path="url(#pdebc5441f9)" style="fill: #000080; stroke: #000080; stroke-width: 0.886227"/>
    <path d="M 71.450971 175.500865 
C 72.038547 175.500865 72.602135 175.267419 73.017614 174.851941 
C 73.433092 174.436462 73.666539 173.872873 73.666539 173.285298 
C 73.666539 172.697723 73.433092 172.134134 73.017614 171.718655 
C 72.602135 171.303177 72.038547 171.069731 71.450971 171.069731 
C 70.863396 171.069731 70.299807 171.303177 69.884329 171.718655 
C 69.46885 172.134134 69.235404 172.697723 69.235404 173.285298 
C 69.235404 173.872873 69.46885 174.436462 69.884329 174.851941 
C 70.299807 175.267419 70.863396 175.500865 71.450971 175.500865 
z
" clip-path="url(#pdebc5441f9)" style="fill: #000080; stroke: #000080; stroke-width: 0.886227"/>
    <path d="M 72.429351 175.013935 
C 73.016927 175.013935 73.580515 174.780489 73.995994 174.365011 
C 74.411472 173.949532 74.644919 173.385943 74.644919 172.798368 
C 74.644919 172.210793 74.411472 171.647204 73.995994 171.231725 
C 73.580515 170.816247 73.016927 170.582801 72.429351 170.582801 
C 71.841776 170.582801 71.278187 170.816247 70.862709 171.231725 
C 70.44723 171.647204 70.213784 172.210793 70.213784 172.798368 
C 70.213784 173.385943 70.44723 173.949532 70.862709 174.365011 
C 71.278187 174.780489 71.841776 175.013935 72.429351 175.013935 
z
" clip-path="url(#pdebc5441f9)" style="fill: #000080; stroke: #000080; stroke-width: 0.886227"/>
    <path d="M 73.582122 178.845339 
C 74.169697 178.845339 74.733286 178.611893 75.148765 178.196414 
C 75.564243 177.780936 75.797689 177.217347 75.797689 176.629771 
C 75.797689 176.042196 75.564243 175.478607 75.148765 175.063129 
C 74.733286 174.64765 74.169697 174.414204 73.582122 174.414204 
C 72.994547 174.414204 72.430958 174.64765 72.01548 175.063129 
C 71.600001 175.478607 71.366555 176.042196 71.366555 176.629771 
C 71.366555 177.217347 71.600001 177.780936 72.01548 178.196414 
C 72.430958 178.611893 72.994547 178.845339 73.582122 178.845339 
z
" clip-path="url(#pdebc5441f9)" style="fill: #000080; stroke: #000080; stroke-width: 0.886227"/>
    <path d="M 74.769843 167.205978 
C 75.357418 167.205978 75.921007 166.972532 76.336486 166.557054 
C 76.751964 166.141575 76.98541 165.577986 76.98541 164.990411 
C 76.98541 164.402836 76.751964 163.839247 76.336486 163.423768 
C 75.921007 163.00829 75.357418 162.774844 74.769843 162.774844 
C 74.182268 162.774844 73.618679 163.00829 73.2032 163.423768 
C 72.787722 163.839247 72.554276 164.402836 72.554276 164.990411 
C 72.554276 165.577986 72.787722 166.141575 73.2032 166.557054 
C 73.618679 166.972532 74.182268 167.205978 74.769843 167.205978 
z
" clip-path="url(#pdebc5441f9)" style="fill: #000080; stroke: #000080; stroke-width: 0.886227"/>
    <path d="M 76.011292 161.986704 
C 76.598867 161.986704 77.162456 161.753257 77.577934 161.337779 
C 77.993413 160.9223 78.226859 160.358712 78.226859 159.771136 
C 78.226859 159.183561 77.993413 158.619972 77.577934 158.204494 
C 77.162456 157.789015 76.598867 157.555569 76.011292 157.555569 
C 75.423716 157.555569 74.860128 157.789015 74.444649 158.204494 
C 74.029171 158.619972 73.795724 159.183561 73.795724 159.771136 
C 73.795724 160.358712 74.029171 160.9223 74.444649 161.337779 
C 74.860128 161.753257 75.423716 161.986704 76.011292 161.986704 
z
" clip-path="url(#pdebc5441f9)" style="fill: #000080; stroke: #000080; stroke-width: 0.886227"/>
    <path d="M 77.607244 154.19812 
C 78.19482 154.19812 78.758409 153.964674 79.173887 153.549195 
C 79.589366 153.133717 79.822812 152.570128 79.822812 151.982553 
C 79.822812 151.394977 79.589366 150.831389 79.173887 150.41591 
C 78.758409 150.000432 78.19482 149.766985 77.607244 149.766985 
C 77.019669 149.766985 76.45608 150.000432 76.040602 150.41591 
C 75.625123 150.831389 75.391677 151.394977 75.391677 151.982553 
C 75.391677 152.570128 75.625123 153.133717 76.040602 153.549195 
C 76.45608 153.964674 77.019669 154.19812 77.607244 154.19812 
z
" clip-path="url(#pdebc5441f9)" style="fill: #000080; stroke: #000080; stroke-width: 0.886227"/>
    <path d="M 79.238063 137.757575 
C 79.825639 137.757575 80.389227 137.524129 80.804706 137.108651 
C 81.220184 136.693172 81.453631 136.129583 81.453631 135.542008 
C 81.453631 134.954433 81.220184 134.390844 80.804706 133.975365 
C 80.389227 133.559887 79.825639 133.326441 79.238063 133.326441 
C 78.650488 133.326441 78.086899 133.559887 77.671421 133.975365 
C 77.255942 134.390844 77.022496 134.954433 77.022496 135.542008 
C 77.022496 136.129583 77.255942 136.693172 77.671421 137.108651 
C 78.086899 137.524129 78.650488 137.757575 79.238063 137.757575 
z
" clip-path="url(#pdebc5441f9)" style="fill: #000080; stroke: #000080; stroke-width: 0.886227"/>
    <path d="M 81.007092 130.30815 
C 81.594667 130.30815 82.158256 130.074704 82.573735 129.659225 
C 82.989213 129.243747 83.222659 128.680158 83.222659 128.092582 
C 83.222659 127.505007 82.989213 126.941418 82.573735 126.52594 
C 82.158256 126.110461 81.594667 125.877015 81.007092 125.877015 
C 80.419517 125.877015 79.855928 126.110461 79.440449 126.52594 
C 79.024971 126.941418 78.791525 127.505007 78.791525 128.092582 
C 78.791525 128.680158 79.024971 129.243747 79.440449 129.659225 
C 79.855928 130.074704 80.419517 130.30815 81.007092 130.30815 
z
" clip-path="url(#pdebc5441f9)" style="fill: #000080; stroke: #000080; stroke-width: 0.886227"/>
    <path d="M 83.161102 143.147329 
C 83.748678 143.147329 84.312266 142.913883 84.727745 142.498404 
C 85.143223 142.082926 85.37667 141.519337 85.37667 140.931762 
C 85.37667 140.344186 85.143223 139.780597 84.727745 139.365119 
C 84.312266 138.94964 83.748678 138.716194 83.161102 138.716194 
C 82.573527 138.716194 82.009938 138.94964 81.59446 139.365119 
C 81.178981 139.780597 80.945535 140.344186 80.945535 140.931762 
C 80.945535 141.519337 81.178981 142.082926 81.59446 142.498404 
C 82.009938 142.913883 82.573527 143.147329 83.161102 143.147329 
z
" clip-path="url(#pdebc5441f9)" style="fill: #000080; stroke: #000080; stroke-width: 0.886227"/>
    <path d="M 86.014539 140.141945 
C 86.602115 140.141945 87.165704 139.908499 87.581182 139.49302 
C 87.996661 139.077542 88.230107 138.513953 88.230107 137.926378 
C 88.230107 137.338802 87.996661 136.775214 87.581182 136.359735 
C 87.165704 135.944257 86.602115 135.71081 86.014539 135.71081 
C 85.426964 135.71081 84.863375 135.944257 84.447897 136.359735 
C 84.032418 136.775214 83.798972 137.338802 83.798972 137.926378 
C 83.798972 138.513953 84.032418 139.077542 84.447897 139.49302 
C 84.863375 139.908499 85.426964 140.141945 86.014539 140.141945 
z
" clip-path="url(#pdebc5441f9)" style="fill: #000080; stroke: #000080; stroke-width: 0.886227"/>
    <path d="M 89.615351 129.387765 
C 90.202926 129.387765 90.766515 129.154319 91.181994 128.73884 
C 91.597472 128.323362 91.830918 127.759773 91.830918 127.172197 
C 91.830918 126.584622 91.597472 126.021033 91.181994 125.605555 
C 90.766515 125.190076 90.202926 124.95663 89.615351 124.95663 
C 89.027776 124.95663 88.464187 125.190076 88.048708 125.605555 
C 87.63323 126.021033 87.399784 126.584622 87.399784 127.172197 
C 87.399784 127.759773 87.63323 128.323362 88.048708 128.73884 
C 88.464187 129.154319 89.027776 129.387765 89.615351 129.387765 
z
" clip-path="url(#pdebc5441f9)" style="fill: #000080; stroke: #000080; stroke-width: 0.886227"/>
    <path d="M 94.80328 123.929902 
C 95.390855 123.929902 95.954444 123.696456 96.369922 123.280978 
C 96.785401 122.865499 97.018847 122.30191 97.018847 121.714335 
C 97.018847 121.12676 96.785401 120.563171 96.369922 120.147692 
C 95.954444 119.732214 95.390855 119.498768 94.80328 119.498768 
C 94.215704 119.498768 93.652115 119.732214 93.236637 120.147692 
C 92.821158 120.563171 92.587712 121.12676 92.587712 121.714335 
C 92.587712 122.30191 92.821158 122.865499 93.236637 123.280978 
C 93.652115 123.696456 94.215704 123.929902 94.80328 123.929902 
z
" clip-path="url(#pdebc5441f9)" style="fill: #000080; stroke: #000080; stroke-width: 0.886227"/>
    <path d="M 102.329979 157.996499 
C 102.917554 157.996499 103.481143 157.763052 103.896622 157.347574 
C 104.3121 156.932095 104.545546 156.368507 104.545546 155.780931 
C 104.545546 155.193356 104.3121 154.629767 103.896622 154.214289 
C 103.481143 153.79881 102.917554 153.565364 102.329979 153.565364 
C 101.742404 153.565364 101.178815 153.79881 100.763336 154.214289 
C 100.347858 154.629767 100.114412 155.193356 100.114412 155.780931 
C 100.114412 156.368507 100.347858 156.932095 100.763336 157.347574 
C 101.178815 157.763052 101.742404 157.996499 102.329979 157.996499 
z
" clip-path="url(#pdebc5441f9)" style="fill: #000080; stroke: #000080; stroke-width: 0.886227"/>
    <path d="M 112.809679 127.237184 
C 113.397254 127.237184 113.960843 127.003738 114.376321 126.588259 
C 114.7918 126.172781 115.025246 125.609192 115.025246 125.021616 
C 115.025246 124.434041 114.7918 123.870452 114.376321 123.454974 
C 113.960843 123.039495 113.397254 122.806049 112.809679 122.806049 
C 112.222103 122.806049 111.658515 123.039495 111.243036 123.454974 
C 110.827558 123.870452 110.594111 124.434041 110.594111 125.021616 
C 110.594111 125.609192 110.827558 126.172781 111.243036 126.588259 
C 111.658515 127.003738 112.222103 127.237184 112.809679 127.237184 
z
" clip-path="url(#pdebc5441f9)" style="fill: #000080; stroke: #000080; stroke-width: 0.886227"/>
    <path d="M 145.486447 199.839425 
C 146.074022 199.839425 146.637611 199.605979 147.05309 199.1905 
C 147.468568 198.775022 147.702014 198.211433 147.702014 197.623858 
C 147.702014 197.036282 147.468568 196.472693 147.05309 196.057215 
C 146.637611 195.641736 146.074022 195.40829 145.486447 195.40829 
C 144.898872 195.40829 144.335283 195.641736 143.919804 196.057215 
C 143.504326 196.472693 143.27088 197.036282 143.27088 197.623858 
C 143.27088 198.211433 143.504326 198.775022 143.919804 199.1905 
C 144.335283 199.605979 144.898872 199.839425 145.486447 199.839425 
z
" clip-path="url(#pdebc5441f9)" style="fill: #000080; stroke: #000080; stroke-width: 0.886227"/>
   </g>
   <g id="LineCollection_1">
    <path d="M 66.522952 221.02154 
" clip-path="url(#pdebc5441f9)" style="fill: none; stroke: #000080; stroke-width: 0.886227"/>
    <path d="M 66.378917 198.611599 
L 67.179729 198.611599 
" clip-path="url(#pdebc5441f9)" style="fill: none; stroke: #000080; stroke-width: 0.886227"/>
    <path d="M 67.0765 201.018129 
L 67.877312 201.018129 
" clip-path="url(#pdebc5441f9)" style="fill: none; stroke: #000080; stroke-width: 0.886227"/>
    <path d="M 67.733384 198.124248 
L 68.534196 198.124248 
" clip-path="url(#pdebc5441f9)" style="fill: none; stroke: #000080; stroke-width: 0.886227"/>
    <path d="M 68.432688 187.020209 
L 69.2335 187.020209 
" clip-path="url(#pdebc5441f9)" style="fill: none; stroke: #000080; stroke-width: 0.886227"/>
    <path d="M 69.305293 189.820906 
L 70.106105 189.820906 
" clip-path="url(#pdebc5441f9)" style="fill: none; stroke: #000080; stroke-width: 0.886227"/>
    <path d="M 70.176761 179.093996 
L 70.977573 179.093996 
" clip-path="url(#pdebc5441f9)" style="fill: none; stroke: #000080; stroke-width: 0.886227"/>
    <path d="M 71.050565 190.876291 
L 71.851377 190.876291 
" clip-path="url(#pdebc5441f9)" style="fill: none; stroke: #000080; stroke-width: 0.886227"/>
    <path d="M 72.028945 203.123842 
L 72.829757 203.123842 
" clip-path="url(#pdebc5441f9)" style="fill: none; stroke: #000080; stroke-width: 0.886227"/>
    <path d="M 73.181716 188.987484 
L 73.982528 188.987484 
" clip-path="url(#pdebc5441f9)" style="fill: none; stroke: #000080; stroke-width: 0.886227"/>
    <path d="M 74.369437 187.300049 
L 75.170249 187.300049 
" clip-path="url(#pdebc5441f9)" style="fill: none; stroke: #000080; stroke-width: 0.886227"/>
    <path d="M 75.610886 174.368143 
L 76.411698 174.368143 
" clip-path="url(#pdebc5441f9)" style="fill: none; stroke: #000080; stroke-width: 0.886227"/>
    <path d="M 77.206838 173.158485 
L 78.00765 173.158485 
" clip-path="url(#pdebc5441f9)" style="fill: none; stroke: #000080; stroke-width: 0.886227"/>
    <path d="M 78.837657 158.526018 
L 79.638469 158.526018 
" clip-path="url(#pdebc5441f9)" style="fill: none; stroke: #000080; stroke-width: 0.886227"/>
    <path d="M 80.606686 156.908669 
L 81.407498 156.908669 
" clip-path="url(#pdebc5441f9)" style="fill: none; stroke: #000080; stroke-width: 0.886227"/>
    <path d="M 82.760696 167.192647 
L 83.561508 167.192647 
" clip-path="url(#pdebc5441f9)" style="fill: none; stroke: #000080; stroke-width: 0.886227"/>
    <path d="M 85.614134 156.783525 
L 86.414945 156.783525 
" clip-path="url(#pdebc5441f9)" style="fill: none; stroke: #000080; stroke-width: 0.886227"/>
    <path d="M 89.214945 158.891976 
L 90.015757 158.891976 
" clip-path="url(#pdebc5441f9)" style="fill: none; stroke: #000080; stroke-width: 0.886227"/>
    <path d="M 94.402874 150.638857 
L 95.203685 150.638857 
" clip-path="url(#pdebc5441f9)" style="fill: none; stroke: #000080; stroke-width: 0.886227"/>
    <path d="M 101.929573 176.416563 
L 102.730385 176.416563 
" clip-path="url(#pdebc5441f9)" style="fill: none; stroke: #000080; stroke-width: 0.886227"/>
    <path d="M 112.409273 167.126369 
L 113.210085 167.126369 
" clip-path="url(#pdebc5441f9)" style="fill: none; stroke: #000080; stroke-width: 0.886227"/>
    <path d="M 145.086041 238.36968 
L 145.886853 238.36968 
" clip-path="url(#pdebc5441f9)" style="fill: none; stroke: #000080; stroke-width: 0.886227"/>
    <path d="M 66.522952 185.816199 
" clip-path="url(#pdebc5441f9)" style="fill: none; stroke: #000080; stroke-width: 0.886227"/>
    <path d="M 66.378917 167.841225 
L 67.179729 167.841225 
" clip-path="url(#pdebc5441f9)" style="fill: none; stroke: #000080; stroke-width: 0.886227"/>
    <path d="M 67.0765 174.4236 
L 67.877312 174.4236 
" clip-path="url(#pdebc5441f9)" style="fill: none; stroke: #000080; stroke-width: 0.886227"/>
    <path d="M 67.733384 167.451079 
L 68.534196 167.451079 
" clip-path="url(#pdebc5441f9)" style="fill: none; stroke: #000080; stroke-width: 0.886227"/>
    <path d="M 68.432688 155.103512 
L 69.2335 155.103512 
" clip-path="url(#pdebc5441f9)" style="fill: none; stroke: #000080; stroke-width: 0.886227"/>
    <path d="M 69.305293 156.920918 
L 70.106105 156.920918 
" clip-path="url(#pdebc5441f9)" style="fill: none; stroke: #000080; stroke-width: 0.886227"/>
    <path d="M 70.176761 137.131391 
L 70.977573 137.131391 
" clip-path="url(#pdebc5441f9)" style="fill: none; stroke: #000080; stroke-width: 0.886227"/>
    <path d="M 71.050565 152.219539 
L 71.851377 152.219539 
" clip-path="url(#pdebc5441f9)" style="fill: none; stroke: #000080; stroke-width: 0.886227"/>
    <path d="M 72.028945 168.22138 
L 72.829757 168.22138 
" clip-path="url(#pdebc5441f9)" style="fill: none; stroke: #000080; stroke-width: 0.886227"/>
    <path d="M 73.181716 152.805418 
L 73.982528 152.805418 
" clip-path="url(#pdebc5441f9)" style="fill: none; stroke: #000080; stroke-width: 0.886227"/>
    <path d="M 74.369437 147.574015 
L 75.170249 147.574015 
" clip-path="url(#pdebc5441f9)" style="fill: none; stroke: #000080; stroke-width: 0.886227"/>
    <path d="M 75.610886 131.546444 
L 76.411698 131.546444 
" clip-path="url(#pdebc5441f9)" style="fill: none; stroke: #000080; stroke-width: 0.886227"/>
    <path d="M 77.206838 132.476493 
L 78.00765 132.476493 
" clip-path="url(#pdebc5441f9)" style="fill: none; stroke: #000080; stroke-width: 0.886227"/>
    <path d="M 78.837657 112.349862 
L 79.638469 112.349862 
" clip-path="url(#pdebc5441f9)" style="fill: none; stroke: #000080; stroke-width: 0.886227"/>
    <path d="M 80.606686 109.434029 
L 81.407498 109.434029 
" clip-path="url(#pdebc5441f9)" style="fill: none; stroke: #000080; stroke-width: 0.886227"/>
    <path d="M 82.760696 108.02144 
L 83.561508 108.02144 
" clip-path="url(#pdebc5441f9)" style="fill: none; stroke: #000080; stroke-width: 0.886227"/>
    <path d="M 85.614134 104.745784 
L 86.414945 104.745784 
" clip-path="url(#pdebc5441f9)" style="fill: none; stroke: #000080; stroke-width: 0.886227"/>
    <path d="M 89.214945 108.64978 
L 90.015757 108.64978 
" clip-path="url(#pdebc5441f9)" style="fill: none; stroke: #000080; stroke-width: 0.886227"/>
    <path d="M 94.402874 93.802356 
L 95.203685 93.802356 
" clip-path="url(#pdebc5441f9)" style="fill: none; stroke: #000080; stroke-width: 0.886227"/>
    <path d="M 101.929573 122.99539 
L 102.730385 122.99539 
" clip-path="url(#pdebc5441f9)" style="fill: none; stroke: #000080; stroke-width: 0.886227"/>
    <path d="M 112.409273 108.213452 
L 113.210085 108.213452 
" clip-path="url(#pdebc5441f9)" style="fill: none; stroke: #000080; stroke-width: 0.886227"/>
    <path d="M 145.086041 154.583034 
L 145.886853 154.583034 
" clip-path="url(#pdebc5441f9)" style="fill: none; stroke: #000080; stroke-width: 0.886227"/>
    <path d="M 66.122546 185.816199 
L 66.122546 221.02154 
" clip-path="url(#pdebc5441f9)" style="fill: none; stroke: #000080; stroke-width: 0.886227"/>
    <path d="M 66.779323 167.841225 
L 66.779323 198.611599 
" clip-path="url(#pdebc5441f9)" style="fill: none; stroke: #000080; stroke-width: 0.886227"/>
    <path d="M 67.476906 174.4236 
L 67.476906 201.018129 
" clip-path="url(#pdebc5441f9)" style="fill: none; stroke: #000080; stroke-width: 0.886227"/>
    <path d="M 68.13379 167.451079 
L 68.13379 198.124248 
" clip-path="url(#pdebc5441f9)" style="fill: none; stroke: #000080; stroke-width: 0.886227"/>
    <path d="M 68.833094 155.103512 
L 68.833094 187.020209 
" clip-path="url(#pdebc5441f9)" style="fill: none; stroke: #000080; stroke-width: 0.886227"/>
    <path d="M 69.705699 156.920918 
L 69.705699 189.820906 
" clip-path="url(#pdebc5441f9)" style="fill: none; stroke: #000080; stroke-width: 0.886227"/>
    <path d="M 70.577167 137.131391 
L 70.577167 179.093996 
" clip-path="url(#pdebc5441f9)" style="fill: none; stroke: #000080; stroke-width: 0.886227"/>
    <path d="M 71.450971 152.219539 
L 71.450971 190.876291 
" clip-path="url(#pdebc5441f9)" style="fill: none; stroke: #000080; stroke-width: 0.886227"/>
    <path d="M 72.429351 168.22138 
L 72.429351 203.123842 
" clip-path="url(#pdebc5441f9)" style="fill: none; stroke: #000080; stroke-width: 0.886227"/>
    <path d="M 73.582122 152.805418 
L 73.582122 188.987484 
" clip-path="url(#pdebc5441f9)" style="fill: none; stroke: #000080; stroke-width: 0.886227"/>
    <path d="M 74.769843 147.574015 
L 74.769843 187.300049 
" clip-path="url(#pdebc5441f9)" style="fill: none; stroke: #000080; stroke-width: 0.886227"/>
    <path d="M 76.011292 131.546444 
L 76.011292 174.368143 
" clip-path="url(#pdebc5441f9)" style="fill: none; stroke: #000080; stroke-width: 0.886227"/>
    <path d="M 77.607244 132.476493 
L 77.607244 173.158485 
" clip-path="url(#pdebc5441f9)" style="fill: none; stroke: #000080; stroke-width: 0.886227"/>
    <path d="M 79.238063 112.349862 
L 79.238063 158.526018 
" clip-path="url(#pdebc5441f9)" style="fill: none; stroke: #000080; stroke-width: 0.886227"/>
    <path d="M 81.007092 109.434029 
L 81.007092 156.908669 
" clip-path="url(#pdebc5441f9)" style="fill: none; stroke: #000080; stroke-width: 0.886227"/>
    <path d="M 83.161102 108.02144 
L 83.161102 167.192647 
" clip-path="url(#pdebc5441f9)" style="fill: none; stroke: #000080; stroke-width: 0.886227"/>
    <path d="M 86.014539 104.745784 
L 86.014539 156.783525 
" clip-path="url(#pdebc5441f9)" style="fill: none; stroke: #000080; stroke-width: 0.886227"/>
    <path d="M 89.615351 108.64978 
L 89.615351 158.891976 
" clip-path="url(#pdebc5441f9)" style="fill: none; stroke: #000080; stroke-width: 0.886227"/>
    <path d="M 94.80328 93.802356 
L 94.80328 150.638857 
" clip-path="url(#pdebc5441f9)" style="fill: none; stroke: #000080; stroke-width: 0.886227"/>
    <path d="M 102.329979 122.99539 
L 102.329979 176.416563 
" clip-path="url(#pdebc5441f9)" style="fill: none; stroke: #000080; stroke-width: 0.886227"/>
    <path d="M 112.809679 108.213452 
L 112.809679 167.126369 
" clip-path="url(#pdebc5441f9)" style="fill: none; stroke: #000080; stroke-width: 0.886227"/>
    <path d="M 145.486447 154.583034 
L 145.486447 238.36968 
" clip-path="url(#pdebc5441f9)" style="fill: none; stroke: #000080; stroke-width: 0.886227"/>
   </g>
   <g id="PathCollection_2">
    <path d="M 66.165182 195.324273 
L 63.949615 199.755407 
L 68.38075 199.755407 
z
" clip-path="url(#pdebc5441f9)" style="fill: #800000; stroke: #800000; stroke-width: 0.886227"/>
    <path d="M 66.75103 171.485989 
L 64.535463 175.917124 
L 68.966598 175.917124 
z
" clip-path="url(#pdebc5441f9)" style="fill: #800000; stroke: #800000; stroke-width: 0.886227"/>
    <path d="M 67.426847 165.969229 
L 65.21128 170.400363 
L 69.642415 170.400363 
z
" clip-path="url(#pdebc5441f9)" style="fill: #800000; stroke: #800000; stroke-width: 0.886227"/>
    <path d="M 68.187072 160.563897 
L 65.971505 164.995031 
L 70.40264 164.995031 
z
" clip-path="url(#pdebc5441f9)" style="fill: #800000; stroke: #800000; stroke-width: 0.886227"/>
    <path d="M 69.04576 137.087571 
L 66.830193 141.518705 
L 71.261327 141.518705 
z
" clip-path="url(#pdebc5441f9)" style="fill: #800000; stroke: #800000; stroke-width: 0.886227"/>
    <path d="M 70.008272 114.973358 
L 67.792705 119.404493 
L 72.223839 119.404493 
z
" clip-path="url(#pdebc5441f9)" style="fill: #800000; stroke: #800000; stroke-width: 0.886227"/>
    <path d="M 71.004152 106.132856 
L 68.788585 110.563991 
L 73.21972 110.563991 
z
" clip-path="url(#pdebc5441f9)" style="fill: #800000; stroke: #800000; stroke-width: 0.886227"/>
    <path d="M 72.128759 100.388195 
L 69.913192 104.81933 
L 74.344326 104.81933 
z
" clip-path="url(#pdebc5441f9)" style="fill: #800000; stroke: #800000; stroke-width: 0.886227"/>
    <path d="M 73.313297 77.440405 
L 71.09773 81.871539 
L 75.528865 81.871539 
z
" clip-path="url(#pdebc5441f9)" style="fill: #800000; stroke: #800000; stroke-width: 0.886227"/>
    <path d="M 74.670847 71.299496 
L 72.455279 75.730631 
L 76.886414 75.730631 
z
" clip-path="url(#pdebc5441f9)" style="fill: #800000; stroke: #800000; stroke-width: 0.886227"/>
    <path d="M 76.283752 72.9401 
L 74.068185 77.371235 
L 78.499319 77.371235 
z
" clip-path="url(#pdebc5441f9)" style="fill: #800000; stroke: #800000; stroke-width: 0.886227"/>
    <path d="M 77.948164 51.631014 
L 75.732597 56.062149 
L 80.163732 56.062149 
z
" clip-path="url(#pdebc5441f9)" style="fill: #800000; stroke: #800000; stroke-width: 0.886227"/>
    <path d="M 79.941965 68.751149 
L 77.726398 73.182283 
L 82.157532 73.182283 
z
" clip-path="url(#pdebc5441f9)" style="fill: #800000; stroke: #800000; stroke-width: 0.886227"/>
    <path d="M 82.23126 73.933111 
L 80.015692 78.364245 
L 84.446827 78.364245 
z
" clip-path="url(#pdebc5441f9)" style="fill: #800000; stroke: #800000; stroke-width: 0.886227"/>
    <path d="M 85.206755 83.551894 
L 82.991187 87.983028 
L 87.422322 87.983028 
z
" clip-path="url(#pdebc5441f9)" style="fill: #800000; stroke: #800000; stroke-width: 0.886227"/>
    <path d="M 88.652005 123.322981 
L 86.436438 127.754115 
L 90.867572 127.754115 
z
" clip-path="url(#pdebc5441f9)" style="fill: #800000; stroke: #800000; stroke-width: 0.886227"/>
    <path d="M 93.354939 200.47753 
L 91.139372 204.908665 
L 95.570507 204.908665 
z
" clip-path="url(#pdebc5441f9)" style="fill: #800000; stroke: #800000; stroke-width: 0.886227"/>
    <path d="M 100.028074 198.33453 
L 97.812507 202.765665 
L 102.243641 202.765665 
z
" clip-path="url(#pdebc5441f9)" style="fill: #800000; stroke: #800000; stroke-width: 0.886227"/>
    <path d="M 110.299849 190.366093 
L 108.084282 194.797228 
L 112.515417 194.797228 
z
" clip-path="url(#pdebc5441f9)" style="fill: #800000; stroke: #800000; stroke-width: 0.886227"/>
    <path d="M 145.588643 214.832401 
L 143.373076 219.263536 
L 147.80421 219.263536 
z
" clip-path="url(#pdebc5441f9)" style="fill: #800000; stroke: #800000; stroke-width: 0.886227"/>
   </g>
   <g id="LineCollection_2">
    <path d="M 66.565588 218.655375 
" clip-path="url(#pdebc5441f9)" style="fill: none; stroke: #800000; stroke-width: 0.886227"/>
    <path d="M 66.350624 189.749495 
L 67.151436 189.749495 
" clip-path="url(#pdebc5441f9)" style="fill: none; stroke: #800000; stroke-width: 0.886227"/>
    <path d="M 67.026442 183.876534 
L 67.827253 183.876534 
" clip-path="url(#pdebc5441f9)" style="fill: none; stroke: #800000; stroke-width: 0.886227"/>
    <path d="M 67.786666 181.081607 
L 68.587478 181.081607 
" clip-path="url(#pdebc5441f9)" style="fill: none; stroke: #800000; stroke-width: 0.886227"/>
    <path d="M 68.645354 168.396753 
L 69.446166 168.396753 
" clip-path="url(#pdebc5441f9)" style="fill: none; stroke: #800000; stroke-width: 0.886227"/>
    <path d="M 69.607866 148.152144 
L 70.408678 148.152144 
" clip-path="url(#pdebc5441f9)" style="fill: none; stroke: #800000; stroke-width: 0.886227"/>
    <path d="M 70.603746 132.042894 
L 71.404558 132.042894 
" clip-path="url(#pdebc5441f9)" style="fill: none; stroke: #800000; stroke-width: 0.886227"/>
    <path d="M 71.728353 122.683624 
L 72.529165 122.683624 
" clip-path="url(#pdebc5441f9)" style="fill: none; stroke: #800000; stroke-width: 0.886227"/>
    <path d="M 72.912891 100.784608 
L 73.713703 100.784608 
" clip-path="url(#pdebc5441f9)" style="fill: none; stroke: #800000; stroke-width: 0.886227"/>
    <path d="M 74.270441 109.5828 
L 75.071253 109.5828 
" clip-path="url(#pdebc5441f9)" style="fill: none; stroke: #800000; stroke-width: 0.886227"/>
    <path d="M 75.883346 105.395168 
L 76.684158 105.395168 
" clip-path="url(#pdebc5441f9)" style="fill: none; stroke: #800000; stroke-width: 0.886227"/>
    <path d="M 77.547759 76.072282 
L 78.34857 76.072282 
" clip-path="url(#pdebc5441f9)" style="fill: none; stroke: #800000; stroke-width: 0.886227"/>
    <path d="M 79.541559 104.110509 
L 80.342371 104.110509 
" clip-path="url(#pdebc5441f9)" style="fill: none; stroke: #800000; stroke-width: 0.886227"/>
    <path d="M 81.830854 98.06398 
L 82.631666 98.06398 
" clip-path="url(#pdebc5441f9)" style="fill: none; stroke: #800000; stroke-width: 0.886227"/>
    <path d="M 84.806349 115.59807 
L 85.607161 115.59807 
" clip-path="url(#pdebc5441f9)" style="fill: none; stroke: #800000; stroke-width: 0.886227"/>
    <path d="M 88.251599 156.842617 
L 89.052411 156.842617 
" clip-path="url(#pdebc5441f9)" style="fill: none; stroke: #800000; stroke-width: 0.886227"/>
    <path d="M 92.954533 225.043413 
L 93.755345 225.043413 
" clip-path="url(#pdebc5441f9)" style="fill: none; stroke: #800000; stroke-width: 0.886227"/>
    <path d="M 99.627668 220.182966 
L 100.42848 220.182966 
" clip-path="url(#pdebc5441f9)" style="fill: none; stroke: #800000; stroke-width: 0.886227"/>
    <path d="M 109.899444 218.602939 
L 110.700255 218.602939 
" clip-path="url(#pdebc5441f9)" style="fill: none; stroke: #800000; stroke-width: 0.886227"/>
    <path d="M 145.188237 261.216 
L 145.989049 261.216 
" clip-path="url(#pdebc5441f9)" style="fill: none; stroke: #800000; stroke-width: 0.886227"/>
    <path d="M 66.565588 181.377811 
" clip-path="url(#pdebc5441f9)" style="fill: none; stroke: #800000; stroke-width: 0.886227"/>
    <path d="M 66.350624 156.501507 
L 67.151436 156.501507 
" clip-path="url(#pdebc5441f9)" style="fill: none; stroke: #800000; stroke-width: 0.886227"/>
    <path d="M 67.026442 147.562195 
L 67.827253 147.562195 
" clip-path="url(#pdebc5441f9)" style="fill: none; stroke: #800000; stroke-width: 0.886227"/>
    <path d="M 67.786666 136.443816 
L 68.587478 136.443816 
" clip-path="url(#pdebc5441f9)" style="fill: none; stroke: #800000; stroke-width: 0.886227"/>
    <path d="M 68.645354 130.361031 
L 69.446166 130.361031 
" clip-path="url(#pdebc5441f9)" style="fill: none; stroke: #800000; stroke-width: 0.886227"/>
    <path d="M 69.607866 105.169658 
L 70.408678 105.169658 
" clip-path="url(#pdebc5441f9)" style="fill: none; stroke: #800000; stroke-width: 0.886227"/>
    <path d="M 70.603746 72.161153 
L 71.404558 72.161153 
" clip-path="url(#pdebc5441f9)" style="fill: none; stroke: #800000; stroke-width: 0.886227"/>
    <path d="M 71.728353 67.923549 
L 72.529165 67.923549 
" clip-path="url(#pdebc5441f9)" style="fill: none; stroke: #800000; stroke-width: 0.886227"/>
    <path d="M 72.912891 47.284939 
L 73.713703 47.284939 
" clip-path="url(#pdebc5441f9)" style="fill: none; stroke: #800000; stroke-width: 0.886227"/>
    <path d="M 74.270441 51.841218 
L 75.071253 51.841218 
" clip-path="url(#pdebc5441f9)" style="fill: none; stroke: #800000; stroke-width: 0.886227"/>
    <path d="M 75.883346 54.327001 
L 76.684158 54.327001 
" clip-path="url(#pdebc5441f9)" style="fill: none; stroke: #800000; stroke-width: 0.886227"/>
    <path d="M 77.547759 19.296 
L 78.34857 19.296 
" clip-path="url(#pdebc5441f9)" style="fill: none; stroke: #800000; stroke-width: 0.886227"/>
    <path d="M 79.541559 44.947961 
L 80.342371 44.947961 
" clip-path="url(#pdebc5441f9)" style="fill: none; stroke: #800000; stroke-width: 0.886227"/>
    <path d="M 81.830854 41.418351 
L 82.631666 41.418351 
" clip-path="url(#pdebc5441f9)" style="fill: none; stroke: #800000; stroke-width: 0.886227"/>
    <path d="M 84.806349 56.959419 
L 85.607161 56.959419 
" clip-path="url(#pdebc5441f9)" style="fill: none; stroke: #800000; stroke-width: 0.886227"/>
    <path d="M 88.251599 104.928889 
L 89.052411 104.928889 
" clip-path="url(#pdebc5441f9)" style="fill: none; stroke: #800000; stroke-width: 0.886227"/>
    <path d="M 92.954533 178.249301 
L 93.755345 178.249301 
" clip-path="url(#pdebc5441f9)" style="fill: none; stroke: #800000; stroke-width: 0.886227"/>
    <path d="M 99.627668 176.723732 
L 100.42848 176.723732 
" clip-path="url(#pdebc5441f9)" style="fill: none; stroke: #800000; stroke-width: 0.886227"/>
    <path d="M 109.899444 165.478422 
L 110.700255 165.478422 
" clip-path="url(#pdebc5441f9)" style="fill: none; stroke: #800000; stroke-width: 0.886227"/>
    <path d="M 145.188237 198.076375 
L 145.989049 198.076375 
" clip-path="url(#pdebc5441f9)" style="fill: none; stroke: #800000; stroke-width: 0.886227"/>
    <path d="M 66.165182 181.377811 
L 66.165182 218.655375 
" clip-path="url(#pdebc5441f9)" style="fill: none; stroke: #800000; stroke-width: 0.886227"/>
    <path d="M 66.75103 156.501507 
L 66.75103 189.749495 
" clip-path="url(#pdebc5441f9)" style="fill: none; stroke: #800000; stroke-width: 0.886227"/>
    <path d="M 67.426847 147.562195 
L 67.426847 183.876534 
" clip-path="url(#pdebc5441f9)" style="fill: none; stroke: #800000; stroke-width: 0.886227"/>
    <path d="M 68.187072 136.443816 
L 68.187072 181.081607 
" clip-path="url(#pdebc5441f9)" style="fill: none; stroke: #800000; stroke-width: 0.886227"/>
    <path d="M 69.04576 130.361031 
L 69.04576 168.396753 
" clip-path="url(#pdebc5441f9)" style="fill: none; stroke: #800000; stroke-width: 0.886227"/>
    <path d="M 70.008272 105.169658 
L 70.008272 148.152144 
" clip-path="url(#pdebc5441f9)" style="fill: none; stroke: #800000; stroke-width: 0.886227"/>
    <path d="M 71.004152 72.161153 
L 71.004152 132.042894 
" clip-path="url(#pdebc5441f9)" style="fill: none; stroke: #800000; stroke-width: 0.886227"/>
    <path d="M 72.128759 67.923549 
L 72.128759 122.683624 
" clip-path="url(#pdebc5441f9)" style="fill: none; stroke: #800000; stroke-width: 0.886227"/>
    <path d="M 73.313297 47.284939 
L 73.313297 100.784608 
" clip-path="url(#pdebc5441f9)" style="fill: none; stroke: #800000; stroke-width: 0.886227"/>
    <path d="M 74.670847 51.841218 
L 74.670847 109.5828 
" clip-path="url(#pdebc5441f9)" style="fill: none; stroke: #800000; stroke-width: 0.886227"/>
    <path d="M 76.283752 54.327001 
L 76.283752 105.395168 
" clip-path="url(#pdebc5441f9)" style="fill: none; stroke: #800000; stroke-width: 0.886227"/>
    <path d="M 77.948164 19.296 
L 77.948164 76.072282 
" clip-path="url(#pdebc5441f9)" style="fill: none; stroke: #800000; stroke-width: 0.886227"/>
    <path d="M 79.941965 44.947961 
L 79.941965 104.110509 
" clip-path="url(#pdebc5441f9)" style="fill: none; stroke: #800000; stroke-width: 0.886227"/>
    <path d="M 82.23126 41.418351 
L 82.23126 98.06398 
" clip-path="url(#pdebc5441f9)" style="fill: none; stroke: #800000; stroke-width: 0.886227"/>
    <path d="M 85.206755 56.959419 
L 85.206755 115.59807 
" clip-path="url(#pdebc5441f9)" style="fill: none; stroke: #800000; stroke-width: 0.886227"/>
    <path d="M 88.652005 104.928889 
L 88.652005 156.842617 
" clip-path="url(#pdebc5441f9)" style="fill: none; stroke: #800000; stroke-width: 0.886227"/>
    <path d="M 93.354939 178.249301 
L 93.354939 225.043413 
" clip-path="url(#pdebc5441f9)" style="fill: none; stroke: #800000; stroke-width: 0.886227"/>
    <path d="M 100.028074 176.723732 
L 100.028074 220.182966 
" clip-path="url(#pdebc5441f9)" style="fill: none; stroke: #800000; stroke-width: 0.886227"/>
    <path d="M 110.299849 165.478422 
L 110.299849 218.602939 
" clip-path="url(#pdebc5441f9)" style="fill: none; stroke: #800000; stroke-width: 0.886227"/>
    <path d="M 145.588643 198.076375 
L 145.588643 261.216 
" clip-path="url(#pdebc5441f9)" style="fill: none; stroke: #800000; stroke-width: 0.886227"/>
   </g>
   <g id="patch_3">
    <path d="M 413.955938 175.090969 
L 484.622969 175.090969 
L 484.622969 101.965031 
L 413.955938 101.965031 
z
" style="fill: #ffffff"/>
   </g>
   <g id="text_13">
    <!-- online = -->
    <g transform="translate(426.155937 125.558625) scale(0.11 -0.11)">
     <defs>
      <path id="DejaVuSans-6f" d="M 1959 3097 
Q 1497 3097 1228 2736 
Q 959 2375 959 1747 
Q 959 1119 1226 758 
Q 1494 397 1959 397 
Q 2419 397 2687 759 
Q 2956 1122 2956 1747 
Q 2956 2369 2687 2733 
Q 2419 3097 1959 3097 
z
M 1959 3584 
Q 2709 3584 3137 3096 
Q 3566 2609 3566 1747 
Q 3566 888 3137 398 
Q 2709 -91 1959 -91 
Q 1206 -91 779 398 
Q 353 888 353 1747 
Q 353 2609 779 3096 
Q 1206 3584 1959 3584 
z
" transform="scale(0.015625)"/>
      <path id="DejaVuSans-6e" d="M 3513 2113 
L 3513 0 
L 2938 0 
L 2938 2094 
Q 2938 2591 2744 2837 
Q 2550 3084 2163 3084 
Q 1697 3084 1428 2787 
Q 1159 2491 1159 1978 
L 1159 0 
L 581 0 
L 581 3500 
L 1159 3500 
L 1159 2956 
Q 1366 3272 1645 3428 
Q 1925 3584 2291 3584 
Q 2894 3584 3203 3211 
Q 3513 2838 3513 2113 
z
" transform="scale(0.015625)"/>
      <path id="DejaVuSans-69" d="M 603 3500 
L 1178 3500 
L 1178 0 
L 603 0 
L 603 3500 
z
M 603 4863 
L 1178 4863 
L 1178 4134 
L 603 4134 
L 603 4863 
z
" transform="scale(0.015625)"/>
      <path id="DejaVuSans-20" transform="scale(0.015625)"/>
      <path id="DejaVuSans-3d" d="M 678 2906 
L 4684 2906 
L 4684 2381 
L 678 2381 
L 678 2906 
z
M 678 1631 
L 4684 1631 
L 4684 1100 
L 678 1100 
L 678 1631 
z
" transform="scale(0.015625)"/>
     </defs>
     <use xlink:href="#DejaVuSans-6f"/>
     <use xlink:href="#DejaVuSans-6e" x="61.181641"/>
     <use xlink:href="#DejaVuSans-6c" x="124.560547"/>
     <use xlink:href="#DejaVuSans-69" x="152.34375"/>
     <use xlink:href="#DejaVuSans-6e" x="180.126953"/>
     <use xlink:href="#DejaVuSans-65" x="243.505859"/>
     <use xlink:href="#DejaVuSans-20" x="305.029297"/>
     <use xlink:href="#DejaVuSans-3d" x="336.816406"/>
    </g>
   </g>
   <g id="patch_4">
    <path d="M 426.155937 145.050969 
L 441.995937 145.050969 
L 441.995937 129.210969 
L 426.155937 129.210969 
z
" clip-path="url(#pfaa65b76f2)" style="fill: #f2f2f2; stroke: #cccccc; stroke-linejoin: miter"/>
   </g>
   <g id="line2d_29">
    <path d="M 434.075938 137.130969 
" clip-path="url(#pfaa65b76f2)" style="fill: none; stroke: #bc80bd; stroke-width: 3; stroke-linecap: square"/>
    <defs>
     <path id="m4778ae0b6d" d="M 0 2.215567 
C 0.587575 2.215567 1.151164 1.982121 1.566643 1.566643 
C 1.982121 1.151164 2.215567 0.587575 2.215567 0 
C 2.215567 -0.587575 1.982121 -1.151164 1.566643 -1.566643 
C 1.151164 -1.982121 0.587575 -2.215567 0 -2.215567 
C -0.587575 -2.215567 -1.151164 -1.982121 -1.566643 -1.566643 
C -1.982121 -1.151164 -2.215567 -0.587575 -2.215567 0 
C -2.215567 0.587575 -1.982121 1.151164 -1.566643 1.566643 
C -1.151164 1.982121 -0.587575 2.215567 0 2.215567 
z
" style="stroke: #000080; stroke-width: 0.886227"/>
    </defs>
    <g clip-path="url(#pfaa65b76f2)">
     <use xlink:href="#m4778ae0b6d" x="434.075938" y="137.130969" style="fill: #000080; stroke: #000080; stroke-width: 0.886227"/>
    </g>
   </g>
   <g id="line2d_30">
    <path d="M 434.075938 137.130969 
" clip-path="url(#pfaa65b76f2)" style="fill: none; stroke: #bc80bd; stroke-width: 3; stroke-linecap: square"/>
    <g clip-path="url(#pfaa65b76f2)">
     <use xlink:href="#m4778ae0b6d" x="434.075938" y="137.130969" style="fill: #000080; stroke: #000080; stroke-width: 0.886227"/>
    </g>
   </g>
   <g id="text_14">
    <!-- 0 -->
    <g transform="translate(444.995937 139.559219) scale(0.088 -0.088)">
     <use xlink:href="#DejaVuSans-30"/>
    </g>
   </g>
   <g id="patch_5">
    <path d="M 426.155937 162.890969 
L 441.995937 162.890969 
L 441.995937 147.050969 
L 426.155937 147.050969 
z
" clip-path="url(#pdcb5b4e1fd)" style="fill: #f2f2f2; stroke: #cccccc; stroke-linejoin: miter"/>
   </g>
   <g id="line2d_31">
    <path d="M 434.075938 154.970969 
" clip-path="url(#pdcb5b4e1fd)" style="fill: none; stroke: #bc80bd; stroke-width: 3; stroke-linecap: square"/>
    <defs>
     <path id="ma0044f9bdf" d="M 0 -2.215567 
L -2.215567 2.215567 
L 2.215567 2.215567 
z
" style="stroke: #800000; stroke-width: 0.886227; stroke-linejoin: miter"/>
    </defs>
    <g clip-path="url(#pdcb5b4e1fd)">
     <use xlink:href="#ma0044f9bdf" x="434.075938" y="154.970969" style="fill: #800000; stroke: #800000; stroke-width: 0.886227; stroke-linejoin: miter"/>
    </g>
   </g>
   <g id="line2d_32">
    <path d="M 434.075938 154.970969 
" clip-path="url(#pdcb5b4e1fd)" style="fill: none; stroke: #bc80bd; stroke-width: 3; stroke-linecap: square"/>
    <g clip-path="url(#pdcb5b4e1fd)">
     <use xlink:href="#ma0044f9bdf" x="434.075938" y="154.970969" style="fill: #800000; stroke: #800000; stroke-width: 0.886227; stroke-linejoin: miter"/>
    </g>
   </g>
   <g id="text_15">
    <!-- 1 -->
    <g transform="translate(444.995937 157.399219) scale(0.088 -0.088)">
     <use xlink:href="#DejaVuSans-31"/>
    </g>
   </g>
  </g>
 </g>
 <defs>
  <clipPath id="pdebc5441f9">
   <rect x="49.635938" y="7.2" width="357.12" height="266.112"/>
  </clipPath>
  <clipPath id="pfaa65b76f2">
   <path d="M 426.155937 145.050969 
L 426.155937 129.210969 
L 441.995937 129.210969 
L 441.995937 145.050969 
"/>
  </clipPath>
  <clipPath id="pdcb5b4e1fd">
   <path d="M 426.155937 162.890969 
L 426.155937 147.050969 
L 441.995937 147.050969 
L 441.995937 162.890969 
"/>
  </clipPath>
 </defs>
</svg>