<?xml version="1.0" encoding="utf-8" standalone="no"?>
<!DOCTYPE svg PUBLIC "-//W3C//DTD SVG 1.1//EN"
  "http://www.w3.org/Graphics/SVG/1.1/DTD/svg11.dtd">
<svg xmlns:xlink="http://www.w3.org/1999/xlink" width="536.769063pt" height="293.936406pt" viewBox="0 0 536.769063 293.936406" xmlns="http://www.w3.org/2000/svg" version="1.1">
 <metadata>
  <rdf:RDF xmlns:dc="http://purl.org/dc/elements/1.1/" xmlns:cc="http://creativecommons.org/ns#" xmlns:rdf="http://www.w3.org/1999/02/22-rdf-syntax-ns#">
   <cc:Work>
    <dc:type rdf:resource="http://purl.org/dc/dcmitype/StillImage"/>
    <dc:date>2023-09-07T20:40:41.643474</dc:date>
    <dc:format>image/svg+xml</dc:format>
    <dc:creator>
     <cc:Agent>
      <dc:title>Matplotlib v3.7.2, https://matplotlib.org/</dc:title>
     </cc:Agent>
    </dc:creator>
   </cc:Work>
  </rdf:RDF>
 </metadata>
 <defs>
  <style type="text/css">*{stroke-linejoin: round; stroke-linecap: butt}</style>
 </defs>
 <g id="figure_1">
  <g id="patch_1">
   <path d="M 0 293.936406 
L 536.769063 293.936406 
L 536.769063 0 
L 0 0 
z
" style="fill: #ffffff"/>
  </g>
  <g id="axes_1">
   <g id="patch_2">
    <path d="M 63.6 247.936406 
L 510 247.936406 
L 510 26.176406 
L 63.6 26.176406 
z
" style="fill: #ffffff"/>
   </g>
   <g id="PathCollection_1">
    <path d="M 83.890909 174.525869 
C 84.421315 174.525869 84.930069 174.315137 85.305123 173.940083 
C 85.680176 173.565029 85.890909 173.056276 85.890909 172.525869 
C 85.890909 171.995463 85.680176 171.48671 85.305123 171.111656 
C 84.930069 170.736602 84.421315 170.525869 83.890909 170.525869 
C 83.360503 170.525869 82.851749 170.736602 82.476696 171.111656 
C 82.101642 171.48671 81.890909 171.995463 81.890909 172.525869 
C 81.890909 173.056276 82.101642 173.565029 82.476696 173.940083 
C 82.851749 174.315137 83.360503 174.525869 83.890909 174.525869 
z
" clip-path="url(#pdbc7895380)" style="fill: #4c72b0; fill-opacity: 0.2; stroke: #4c72b0; stroke-width: 0.75"/>
    <path d="M 86.191444 158.153915 
C 86.72185 158.153915 87.230604 157.943182 87.605658 157.568128 
C 87.980712 157.193074 88.191444 156.684321 88.191444 156.153915 
C 88.191444 155.623508 87.980712 155.114755 87.605658 154.739701 
C 87.230604 154.364647 86.72185 154.153915 86.191444 154.153915 
C 85.661038 154.153915 85.152284 154.364647 84.777231 154.739701 
C 84.402177 155.114755 84.191444 155.623508 84.191444 156.153915 
C 84.191444 156.684321 84.402177 157.193074 84.777231 157.568128 
C 85.152284 157.943182 85.661038 158.153915 86.191444 158.153915 
z
" clip-path="url(#pdbc7895380)" style="fill: #4c72b0; fill-opacity: 0.2; stroke: #4c72b0; stroke-width: 0.75"/>
    <path d="M 88.75828 152.737083 
C 89.288686 152.737083 89.797439 152.526351 90.172493 152.151297 
C 90.547547 151.776243 90.75828 151.26749 90.75828 150.737083 
C 90.75828 150.206677 90.547547 149.697924 90.172493 149.32287 
C 89.797439 148.947816 89.288686 148.737083 88.75828 148.737083 
C 88.227873 148.737083 87.71912 148.947816 87.344066 149.32287 
C 86.969012 149.697924 86.75828 150.206677 86.75828 150.737083 
C 86.75828 151.26749 86.969012 151.776243 87.344066 152.151297 
C 87.71912 152.526351 88.227873 152.737083 88.75828 152.737083 
z
" clip-path="url(#pdbc7895380)" style="fill: #4c72b0; fill-opacity: 0.2; stroke: #4c72b0; stroke-width: 0.75"/>
    <path d="M 91.467962 151.452851 
C 91.998368 151.452851 92.507122 151.242118 92.882176 150.867064 
C 93.25723 150.49201 93.467962 149.983257 93.467962 149.452851 
C 93.467962 148.922444 93.25723 148.413691 92.882176 148.038637 
C 92.507122 147.663583 91.998368 147.452851 91.467962 147.452851 
C 90.937556 147.452851 90.428803 147.663583 90.053749 148.038637 
C 89.678695 148.413691 89.467962 148.922444 89.467962 149.452851 
C 89.467962 149.983257 89.678695 150.49201 90.053749 150.867064 
C 90.428803 151.242118 90.937556 151.452851 91.467962 151.452851 
z
" clip-path="url(#pdbc7895380)" style="fill: #4c72b0; fill-opacity: 0.2; stroke: #4c72b0; stroke-width: 0.75"/>
    <path d="M 94.183089 146.66279 
C 94.713495 146.66279 95.222249 146.452057 95.597303 146.077003 
C 95.972356 145.70195 96.183089 145.193196 96.183089 144.66279 
C 96.183089 144.132384 95.972356 143.62363 95.597303 143.248576 
C 95.222249 142.873522 94.713495 142.66279 94.183089 142.66279 
C 93.652683 142.66279 93.143929 142.873522 92.768876 143.248576 
C 92.393822 143.62363 92.183089 144.132384 92.183089 144.66279 
C 92.183089 145.193196 92.393822 145.70195 92.768876 146.077003 
C 93.143929 146.452057 93.652683 146.66279 94.183089 146.66279 
z
" clip-path="url(#pdbc7895380)" style="fill: #4c72b0; fill-opacity: 0.2; stroke: #4c72b0; stroke-width: 0.75"/>
    <path d="M 97.177458 140.623189 
C 97.707865 140.623189 98.216618 140.412456 98.591672 140.037403 
C 98.966726 139.662349 99.177458 139.153595 99.177458 138.623189 
C 99.177458 138.092783 98.966726 137.584029 98.591672 137.208975 
C 98.216618 136.833922 97.707865 136.623189 97.177458 136.623189 
C 96.647052 136.623189 96.138299 136.833922 95.763245 137.208975 
C 95.388191 137.584029 95.177458 138.092783 95.177458 138.623189 
C 95.177458 139.153595 95.388191 139.662349 95.763245 140.037403 
C 96.138299 140.412456 96.647052 140.623189 97.177458 140.623189 
z
" clip-path="url(#pdbc7895380)" style="fill: #4c72b0; fill-opacity: 0.2; stroke: #4c72b0; stroke-width: 0.75"/>
    <path d="M 100.710895 129.365021 
C 101.241301 129.365021 101.750055 129.154289 102.125109 128.779235 
C 102.500162 128.404181 102.710895 127.895427 102.710895 127.365021 
C 102.710895 126.834615 102.500162 126.325862 102.125109 125.950808 
C 101.750055 125.575754 101.241301 125.365021 100.710895 125.365021 
C 100.180489 125.365021 99.671735 125.575754 99.296682 125.950808 
C 98.921628 126.325862 98.710895 126.834615 98.710895 127.365021 
C 98.710895 127.895427 98.921628 128.404181 99.296682 128.779235 
C 99.671735 129.154289 100.180489 129.365021 100.710895 129.365021 
z
" clip-path="url(#pdbc7895380)" style="fill: #4c72b0; fill-opacity: 0.2; stroke: #4c72b0; stroke-width: 0.75"/>
    <path d="M 104.274929 116.418511 
C 104.805335 116.418511 105.314089 116.207778 105.689142 115.832724 
C 106.064196 115.457671 106.274929 114.948917 106.274929 114.418511 
C 106.274929 113.888105 106.064196 113.379351 105.689142 113.004297 
C 105.314089 112.629243 104.805335 112.418511 104.274929 112.418511 
C 103.744523 112.418511 103.235769 112.629243 102.860715 113.004297 
C 102.485661 113.379351 102.274929 113.888105 102.274929 114.418511 
C 102.274929 114.948917 102.485661 115.457671 102.860715 115.832724 
C 103.235769 116.207778 103.744523 116.418511 104.274929 116.418511 
z
" clip-path="url(#pdbc7895380)" style="fill: #4c72b0; fill-opacity: 0.2; stroke: #4c72b0; stroke-width: 0.75"/>
    <path d="M 107.877306 105.634437 
C 108.407713 105.634437 108.916466 105.423704 109.29152 105.048651 
C 109.666574 104.673597 109.877306 104.164843 109.877306 103.634437 
C 109.877306 103.104031 109.666574 102.595277 109.29152 102.220223 
C 108.916466 101.84517 108.407713 101.634437 107.877306 101.634437 
C 107.3469 101.634437 106.838147 101.84517 106.463093 102.220223 
C 106.088039 102.595277 105.877306 103.104031 105.877306 103.634437 
C 105.877306 104.164843 106.088039 104.673597 106.463093 105.048651 
C 106.838147 105.423704 107.3469 105.634437 107.877306 105.634437 
z
" clip-path="url(#pdbc7895380)" style="fill: #4c72b0; fill-opacity: 0.2; stroke: #4c72b0; stroke-width: 0.75"/>
    <path d="M 111.680772 133.206738 
C 112.211178 133.206738 112.719932 132.996006 113.094986 132.620952 
C 113.47004 132.245898 113.680772 131.737145 113.680772 131.206738 
C 113.680772 130.676332 113.47004 130.167579 113.094986 129.792525 
C 112.719932 129.417471 112.211178 129.206738 111.680772 129.206738 
C 111.150366 129.206738 110.641612 129.417471 110.266559 129.792525 
C 109.891505 130.167579 109.680772 130.676332 109.680772 131.206738 
C 109.680772 131.737145 109.891505 132.245898 110.266559 132.620952 
C 110.641612 132.996006 111.150366 133.206738 111.680772 133.206738 
z
" clip-path="url(#pdbc7895380)" style="fill: #4c72b0; fill-opacity: 0.2; stroke: #4c72b0; stroke-width: 0.75"/>
    <path d="M 116.115051 98.628384 
C 116.645457 98.628384 117.15421 98.417652 117.529264 98.042598 
C 117.904318 97.667544 118.115051 97.15879 118.115051 96.628384 
C 118.115051 96.097978 117.904318 95.589224 117.529264 95.214171 
C 117.15421 94.839117 116.645457 94.628384 116.115051 94.628384 
C 115.584644 94.628384 115.075891 94.839117 114.700837 95.214171 
C 114.325783 95.589224 114.115051 96.097978 114.115051 96.628384 
C 114.115051 97.15879 114.325783 97.667544 114.700837 98.042598 
C 115.075891 98.417652 115.584644 98.628384 116.115051 98.628384 
z
" clip-path="url(#pdbc7895380)" style="fill: #4c72b0; fill-opacity: 0.2; stroke: #4c72b0; stroke-width: 0.75"/>
    <path d="M 120.649438 98.554918 
C 121.179845 98.554918 121.688598 98.344186 122.063652 97.969132 
C 122.438706 97.594078 122.649438 97.085325 122.649438 96.554918 
C 122.649438 96.024512 122.438706 95.515759 122.063652 95.140705 
C 121.688598 94.765651 121.179845 94.554918 120.649438 94.554918 
C 120.119032 94.554918 119.610279 94.765651 119.235225 95.140705 
C 118.860171 95.515759 118.649438 96.024512 118.649438 96.554918 
C 118.649438 97.085325 118.860171 97.594078 119.235225 97.969132 
C 119.610279 98.344186 120.119032 98.554918 120.649438 98.554918 
z
" clip-path="url(#pdbc7895380)" style="fill: #4c72b0; fill-opacity: 0.2; stroke: #4c72b0; stroke-width: 0.75"/>
    <path d="M 125.720117 108.454946 
C 126.250523 108.454946 126.759277 108.244213 127.13433 107.869159 
C 127.509384 107.494105 127.720117 106.985352 127.720117 106.454946 
C 127.720117 105.924539 127.509384 105.415786 127.13433 105.040732 
C 126.759277 104.665678 126.250523 104.454946 125.720117 104.454946 
C 125.189711 104.454946 124.680957 104.665678 124.305903 105.040732 
C 123.930849 105.415786 123.720117 105.924539 123.720117 106.454946 
C 123.720117 106.985352 123.930849 107.494105 124.305903 107.869159 
C 124.680957 108.244213 125.189711 108.454946 125.720117 108.454946 
z
" clip-path="url(#pdbc7895380)" style="fill: #4c72b0; fill-opacity: 0.2; stroke: #4c72b0; stroke-width: 0.75"/>
    <path d="M 131.214714 101.795701 
C 131.745121 101.795701 132.253874 101.584968 132.628928 101.209914 
C 133.003982 100.83486 133.214714 100.326107 133.214714 99.795701 
C 133.214714 99.265295 133.003982 98.756541 132.628928 98.381487 
C 132.253874 98.006433 131.745121 97.795701 131.214714 97.795701 
C 130.684308 97.795701 130.175555 98.006433 129.800501 98.381487 
C 129.425447 98.756541 129.214714 99.265295 129.214714 99.795701 
C 129.214714 100.326107 129.425447 100.83486 129.800501 101.209914 
C 130.175555 101.584968 130.684308 101.795701 131.214714 101.795701 
z
" clip-path="url(#pdbc7895380)" style="fill: #4c72b0; fill-opacity: 0.2; stroke: #4c72b0; stroke-width: 0.75"/>
    <path d="M 137.27312 76.837384 
C 137.803526 76.837384 138.31228 76.626652 138.687333 76.251598 
C 139.062387 75.876544 139.27312 75.36779 139.27312 74.837384 
C 139.27312 74.306978 139.062387 73.798224 138.687333 73.423171 
C 138.31228 73.048117 137.803526 72.837384 137.27312 72.837384 
C 136.742714 72.837384 136.23396 73.048117 135.858906 73.423171 
C 135.483852 73.798224 135.27312 74.306978 135.27312 74.837384 
C 135.27312 75.36779 135.483852 75.876544 135.858906 76.251598 
C 136.23396 76.626652 136.742714 76.837384 137.27312 76.837384 
z
" clip-path="url(#pdbc7895380)" style="fill: #4c72b0; fill-opacity: 0.2; stroke: #4c72b0; stroke-width: 0.75"/>
    <path d="M 143.95913 80.230207 
C 144.489536 80.230207 144.99829 80.019475 145.373343 79.644421 
C 145.748397 79.269367 145.95913 78.760613 145.95913 78.230207 
C 145.95913 77.699801 145.748397 77.191047 145.373343 76.815994 
C 144.99829 76.44094 144.489536 76.230207 143.95913 76.230207 
C 143.428724 76.230207 142.91997 76.44094 142.544916 76.815994 
C 142.169862 77.191047 141.95913 77.699801 141.95913 78.230207 
C 141.95913 78.760613 142.169862 79.269367 142.544916 79.644421 
C 142.91997 80.019475 143.428724 80.230207 143.95913 80.230207 
z
" clip-path="url(#pdbc7895380)" style="fill: #4c72b0; fill-opacity: 0.2; stroke: #4c72b0; stroke-width: 0.75"/>
    <path d="M 151.105283 86.905786 
C 151.63569 86.905786 152.144443 86.695053 152.519497 86.319999 
C 152.894551 85.944945 153.105283 85.436192 153.105283 84.905786 
C 153.105283 84.375379 152.894551 83.866626 152.519497 83.491572 
C 152.144443 83.116518 151.63569 82.905786 151.105283 82.905786 
C 150.574877 82.905786 150.066124 83.116518 149.69107 83.491572 
C 149.316016 83.866626 149.105283 84.375379 149.105283 84.905786 
C 149.105283 85.436192 149.316016 85.944945 149.69107 86.319999 
C 150.066124 86.695053 150.574877 86.905786 151.105283 86.905786 
z
" clip-path="url(#pdbc7895380)" style="fill: #4c72b0; fill-opacity: 0.2; stroke: #4c72b0; stroke-width: 0.75"/>
    <path d="M 159.013707 86.656065 
C 159.544113 86.656065 160.052867 86.445333 160.42792 86.070279 
C 160.802974 85.695225 161.013707 85.186471 161.013707 84.656065 
C 161.013707 84.125659 160.802974 83.616905 160.42792 83.241852 
C 160.052867 82.866798 159.544113 82.656065 159.013707 82.656065 
C 158.483301 82.656065 157.974547 82.866798 157.599493 83.241852 
C 157.224439 83.616905 157.013707 84.125659 157.013707 84.656065 
C 157.013707 85.186471 157.224439 85.695225 157.599493 86.070279 
C 157.974547 86.445333 158.483301 86.656065 159.013707 86.656065 
z
" clip-path="url(#pdbc7895380)" style="fill: #4c72b0; fill-opacity: 0.2; stroke: #4c72b0; stroke-width: 0.75"/>
    <path d="M 169.111784 82.542191 
C 169.64219 82.542191 170.150944 82.331458 170.525998 81.956405 
C 170.901052 81.581351 171.111784 81.072597 171.111784 80.542191 
C 171.111784 80.011785 170.901052 79.503031 170.525998 79.127977 
C 170.150944 78.752924 169.64219 78.542191 169.111784 78.542191 
C 168.581378 78.542191 168.072625 78.752924 167.697571 79.127977 
C 167.322517 79.503031 167.111784 80.011785 167.111784 80.542191 
C 167.111784 81.072597 167.322517 81.581351 167.697571 81.956405 
C 168.072625 82.331458 168.581378 82.542191 169.111784 82.542191 
z
" clip-path="url(#pdbc7895380)" style="fill: #4c72b0; fill-opacity: 0.2; stroke: #4c72b0; stroke-width: 0.75"/>
    <path d="M 180.821955 93.170198 
C 181.352361 93.170198 181.861115 92.959465 182.236168 92.584412 
C 182.611222 92.209358 182.821955 91.700604 182.821955 91.170198 
C 182.821955 90.639792 182.611222 90.131038 182.236168 89.755984 
C 181.861115 89.380931 181.352361 89.170198 180.821955 89.170198 
C 180.291549 89.170198 179.782795 89.380931 179.407741 89.755984 
C 179.032687 90.131038 178.821955 90.639792 178.821955 91.170198 
C 178.821955 91.700604 179.032687 92.209358 179.407741 92.584412 
C 179.782795 92.959465 180.291549 93.170198 180.821955 93.170198 
z
" clip-path="url(#pdbc7895380)" style="fill: #4c72b0; fill-opacity: 0.2; stroke: #4c72b0; stroke-width: 0.75"/>
    <path d="M 195.043 103.625301 
C 195.573407 103.625301 196.08216 103.414568 196.457214 103.039514 
C 196.832268 102.66446 197.043 102.155707 197.043 101.625301 
C 197.043 101.094895 196.832268 100.586141 196.457214 100.211087 
C 196.08216 99.836033 195.573407 99.625301 195.043 99.625301 
C 194.512594 99.625301 194.003841 99.836033 193.628787 100.211087 
C 193.253733 100.586141 193.043 101.094895 193.043 101.625301 
C 193.043 102.155707 193.253733 102.66446 193.628787 103.039514 
C 194.003841 103.414568 194.512594 103.625301 195.043 103.625301 
z
" clip-path="url(#pdbc7895380)" style="fill: #4c72b0; fill-opacity: 0.2; stroke: #4c72b0; stroke-width: 0.75"/>
    <path d="M 213.323874 149.779697 
C 213.85428 149.779697 214.363033 149.568965 214.738087 149.193911 
C 215.113141 148.818857 215.323874 148.310104 215.323874 147.779697 
C 215.323874 147.249291 215.113141 146.740538 214.738087 146.365484 
C 214.363033 145.99043 213.85428 145.779697 213.323874 145.779697 
C 212.793467 145.779697 212.284714 145.99043 211.90966 146.365484 
C 211.534606 146.740538 211.323874 147.249291 211.323874 147.779697 
C 211.323874 148.310104 211.534606 148.818857 211.90966 149.193911 
C 212.284714 149.568965 212.793467 149.779697 213.323874 149.779697 
z
" clip-path="url(#pdbc7895380)" style="fill: #4c72b0; fill-opacity: 0.2; stroke: #4c72b0; stroke-width: 0.75"/>
    <path d="M 239.30709 141.930985 
C 239.837496 141.930985 240.34625 141.720252 240.721304 141.345198 
C 241.096358 140.970145 241.30709 140.461391 241.30709 139.930985 
C 241.30709 139.400579 241.096358 138.891825 240.721304 138.516771 
C 240.34625 138.141717 239.837496 137.930985 239.30709 137.930985 
C 238.776684 137.930985 238.26793 138.141717 237.892877 138.516771 
C 237.517823 138.891825 237.30709 139.400579 237.30709 139.930985 
C 237.30709 140.461391 237.517823 140.970145 237.892877 141.345198 
C 238.26793 141.720252 238.776684 141.930985 239.30709 141.930985 
z
" clip-path="url(#pdbc7895380)" style="fill: #4c72b0; fill-opacity: 0.2; stroke: #4c72b0; stroke-width: 0.75"/>
    <path d="M 271.141497 154.905371 
C 271.671903 154.905371 272.180656 154.694638 272.55571 154.319585 
C 272.930764 153.944531 273.141497 153.435777 273.141497 152.905371 
C 273.141497 152.374965 272.930764 151.866211 272.55571 151.491157 
C 272.180656 151.116104 271.671903 150.905371 271.141497 150.905371 
C 270.61109 150.905371 270.102337 151.116104 269.727283 151.491157 
C 269.352229 151.866211 269.141497 152.374965 269.141497 152.905371 
C 269.141497 153.435777 269.352229 153.944531 269.727283 154.319585 
C 270.102337 154.694638 270.61109 154.905371 271.141497 154.905371 
z
" clip-path="url(#pdbc7895380)" style="fill: #4c72b0; fill-opacity: 0.2; stroke: #4c72b0; stroke-width: 0.75"/>
    <path d="M 322.968876 136.331275 
C 323.499282 136.331275 324.008035 136.120543 324.383089 135.745489 
C 324.758143 135.370435 324.968876 134.861682 324.968876 134.331275 
C 324.968876 133.800869 324.758143 133.292116 324.383089 132.917062 
C 324.008035 132.542008 323.499282 132.331275 322.968876 132.331275 
C 322.43847 132.331275 321.929716 132.542008 321.554662 132.917062 
C 321.179608 133.292116 320.968876 133.800869 320.968876 134.331275 
C 320.968876 134.861682 321.179608 135.370435 321.554662 135.745489 
C 321.929716 136.120543 322.43847 136.331275 322.968876 136.331275 
z
" clip-path="url(#pdbc7895380)" style="fill: #4c72b0; fill-opacity: 0.2; stroke: #4c72b0; stroke-width: 0.75"/>
    <path d="M 489.709091 185.114677 
C 490.239497 185.114677 490.748251 184.903945 491.123304 184.528891 
C 491.498358 184.153837 491.709091 183.645084 491.709091 183.114677 
C 491.709091 182.584271 491.498358 182.075518 491.123304 181.700464 
C 490.748251 181.32541 490.239497 181.114677 489.709091 181.114677 
C 489.178685 181.114677 488.669931 181.32541 488.294877 181.700464 
C 487.919824 182.075518 487.709091 182.584271 487.709091 183.114677 
C 487.709091 183.645084 487.919824 184.153837 488.294877 184.528891 
C 488.669931 184.903945 489.178685 185.114677 489.709091 185.114677 
z
" clip-path="url(#pdbc7895380)" style="fill: #4c72b0; fill-opacity: 0.2; stroke: #4c72b0; stroke-width: 0.75"/>
   </g>
   <g id="matplotlib.axis_1">
    <g id="xtick_1">
     <g id="line2d_1">
      <defs>
       <path id="md227353d1f" d="M 0 0 
L 0 3.5 
" style="stroke: #323034; stroke-width: 0.8"/>
      </defs>
      <g>
       <use xlink:href="#md227353d1f" x="82.831397" y="247.936406" style="fill: #323034; stroke: #323034; stroke-width: 0.8"/>
      </g>
     </g>
     <g id="text_1">
      <!-- 0 -->
      <g style="fill: #323034" transform="translate(78.831397 265.863906) scale(0.16 -0.16)">
       <defs>
        <path id="STIXGeneral-Regular-30" d="M 3046 2112 
Q 3046 1683 2963 1302 
Q 2880 922 2717 602 
Q 2554 282 2266 96 
Q 1978 -90 1600 -90 
Q 1210 -90 915 108 
Q 621 307 461 640 
Q 301 973 227 1350 
Q 154 1728 154 2150 
Q 154 2746 301 3222 
Q 448 3699 790 4012 
Q 1133 4326 1626 4326 
Q 2253 4326 2649 3712 
Q 3046 3098 3046 2112 
z
M 2432 2080 
Q 2432 3091 2217 3625 
Q 2003 4160 1587 4160 
Q 1190 4160 979 3622 
Q 768 3085 768 2106 
Q 768 1120 979 598 
Q 1190 77 1600 77 
Q 2003 77 2217 598 
Q 2432 1120 2432 2080 
z
" transform="scale(0.015625)"/>
       </defs>
       <use xlink:href="#STIXGeneral-Regular-30"/>
      </g>
     </g>
    </g>
    <g id="xtick_2">
     <g id="line2d_2">
      <g>
       <use xlink:href="#md227353d1f" x="159.256382" y="247.936406" style="fill: #323034; stroke: #323034; stroke-width: 0.8"/>
      </g>
     </g>
     <g id="text_2">
      <!-- 1 -->
      <g style="fill: #323034" transform="translate(155.256382 265.863906) scale(0.16 -0.16)">
       <defs>
        <path id="STIXGeneral-Regular-31" d="M 2522 0 
L 755 0 
L 755 96 
Q 1107 115 1235 227 
Q 1363 339 1363 608 
L 1363 3482 
Q 1363 3795 1171 3795 
Q 1082 3795 883 3718 
L 710 3654 
L 710 3744 
L 1856 4326 
L 1914 4307 
L 1914 486 
Q 1914 275 2042 185 
Q 2170 96 2522 96 
L 2522 0 
z
" transform="scale(0.015625)"/>
       </defs>
       <use xlink:href="#STIXGeneral-Regular-31"/>
      </g>
     </g>
    </g>
    <g id="xtick_3">
     <g id="line2d_3">
      <g>
       <use xlink:href="#md227353d1f" x="235.681366" y="247.936406" style="fill: #323034; stroke: #323034; stroke-width: 0.8"/>
      </g>
     </g>
     <g id="text_3">
      <!-- 2 -->
      <g style="fill: #323034" transform="translate(231.681366 265.863906) scale(0.16 -0.16)">
       <defs>
        <path id="STIXGeneral-Regular-32" d="M 3034 877 
L 2688 0 
L 186 0 
L 186 77 
L 1325 1286 
Q 1773 1754 1965 2144 
Q 2157 2534 2157 2950 
Q 2157 3379 1920 3616 
Q 1683 3853 1267 3853 
Q 922 3853 720 3673 
Q 518 3494 326 3021 
L 192 3053 
Q 301 3648 630 3987 
Q 960 4326 1523 4326 
Q 2054 4326 2380 4006 
Q 2707 3686 2707 3200 
Q 2707 2477 1888 1613 
L 832 486 
L 2330 486 
Q 2541 486 2665 569 
Q 2790 653 2944 915 
L 3034 877 
z
" transform="scale(0.015625)"/>
       </defs>
       <use xlink:href="#STIXGeneral-Regular-32"/>
      </g>
     </g>
    </g>
    <g id="xtick_4">
     <g id="line2d_4">
      <g>
       <use xlink:href="#md227353d1f" x="312.10635" y="247.936406" style="fill: #323034; stroke: #323034; stroke-width: 0.8"/>
      </g>
     </g>
     <g id="text_4">
      <!-- 3 -->
      <g style="fill: #323034" transform="translate(308.10635 265.863906) scale(0.16 -0.16)">
       <defs>
        <path id="STIXGeneral-Regular-33" d="M 390 3264 
L 288 3290 
Q 435 3770 748 4048 
Q 1062 4326 1542 4326 
Q 1990 4326 2265 4083 
Q 2541 3840 2541 3450 
Q 2541 2925 1946 2566 
Q 2298 2413 2477 2227 
Q 2758 1914 2758 1402 
Q 2758 890 2464 506 
Q 2246 211 1840 60 
Q 1434 -90 979 -90 
Q 262 -90 262 275 
Q 262 378 339 442 
Q 416 506 525 506 
Q 685 506 915 339 
Q 1197 141 1466 141 
Q 1818 141 2058 425 
Q 2298 710 2298 1120 
Q 2298 1856 1632 2048 
Q 1434 2112 979 2112 
L 979 2202 
Q 1338 2323 1517 2432 
Q 2035 2726 2035 3290 
Q 2035 3610 1852 3776 
Q 1670 3942 1344 3942 
Q 768 3942 390 3264 
z
" transform="scale(0.015625)"/>
       </defs>
       <use xlink:href="#STIXGeneral-Regular-33"/>
      </g>
     </g>
    </g>
    <g id="xtick_5">
     <g id="line2d_5">
      <g>
       <use xlink:href="#md227353d1f" x="388.531335" y="247.936406" style="fill: #323034; stroke: #323034; stroke-width: 0.8"/>
      </g>
     </g>
     <g id="text_5">
      <!-- 4 -->
      <g style="fill: #323034" transform="translate(384.531335 265.863906) scale(0.16 -0.16)">
       <defs>
        <path id="STIXGeneral-Regular-34" d="M 3027 1069 
L 2368 1069 
L 2368 0 
L 1869 0 
L 1869 1069 
L 77 1069 
L 77 1478 
L 2086 4326 
L 2368 4326 
L 2368 1478 
L 3027 1478 
L 3027 1069 
z
M 1869 1478 
L 1869 3674 
L 333 1478 
L 1869 1478 
z
" transform="scale(0.015625)"/>
       </defs>
       <use xlink:href="#STIXGeneral-Regular-34"/>
      </g>
     </g>
    </g>
    <g id="xtick_6">
     <g id="line2d_6">
      <g>
       <use xlink:href="#md227353d1f" x="464.956319" y="247.936406" style="fill: #323034; stroke: #323034; stroke-width: 0.8"/>
      </g>
     </g>
     <g id="text_6">
      <!-- 5 -->
      <g style="fill: #323034" transform="translate(460.956319 265.863906) scale(0.16 -0.16)">
       <defs>
        <path id="STIXGeneral-Regular-35" d="M 2803 4358 
L 2573 3814 
Q 2534 3731 2400 3731 
L 1158 3731 
L 902 3187 
Q 1606 3053 1920 2896 
Q 2234 2739 2502 2368 
Q 2726 2061 2726 1555 
Q 2726 1094 2576 780 
Q 2426 467 2099 224 
Q 1664 -90 1011 -90 
Q 646 -90 422 19 
Q 198 128 198 307 
Q 198 550 486 550 
Q 717 550 960 352 
Q 1210 147 1414 147 
Q 1747 147 2012 480 
Q 2278 813 2278 1229 
Q 2278 1843 1850 2189 
Q 1293 2637 486 2637 
Q 410 2637 410 2688 
L 416 2720 
L 1114 4237 
L 2438 4237 
Q 2547 4237 2608 4269 
Q 2669 4301 2746 4403 
L 2803 4358 
z
" transform="scale(0.015625)"/>
       </defs>
       <use xlink:href="#STIXGeneral-Regular-35"/>
      </g>
     </g>
    </g>
    <g id="text_7">
     <!-- age -->
     <g transform="translate(275.695 283.248906) scale(0.16 -0.16)">
      <defs>
       <path id="STIXGeneral-Regular-61" d="M 2829 422 
L 2829 243 
Q 2586 -64 2253 -64 
Q 1888 -64 1843 403 
L 1837 403 
Q 1427 -64 909 -64 
Q 608 -64 422 112 
Q 237 288 237 602 
Q 237 1050 685 1350 
Q 992 1555 1837 1869 
L 1837 2214 
Q 1837 2502 1699 2646 
Q 1562 2790 1338 2790 
Q 1146 2790 1018 2697 
Q 890 2605 890 2477 
Q 890 2419 909 2348 
Q 928 2278 928 2208 
Q 928 2112 841 2029 
Q 755 1946 634 1946 
Q 525 1946 441 2029 
Q 358 2112 358 2240 
Q 358 2547 685 2752 
Q 986 2944 1421 2944 
Q 1939 2944 2176 2656 
Q 2291 2522 2323 2384 
Q 2355 2246 2355 1946 
L 2355 723 
Q 2355 301 2554 301 
Q 2682 301 2829 422 
z
M 1837 813 
L 1837 1715 
Q 1248 1510 1018 1293 
Q 800 1094 800 800 
Q 800 557 921 432 
Q 1043 307 1242 307 
Q 1453 307 1613 410 
Q 1747 506 1792 589 
Q 1837 672 1837 813 
z
" transform="scale(0.015625)"/>
       <path id="STIXGeneral-Regular-67" d="M 3008 2483 
L 2477 2483 
Q 2598 2208 2598 1946 
Q 2598 1453 2265 1203 
Q 1933 954 1600 954 
Q 1530 954 1357 973 
L 1235 986 
Q 1107 947 979 812 
Q 851 678 851 582 
Q 851 435 1350 410 
L 2176 371 
Q 2528 358 2739 172 
Q 2950 -13 2950 -314 
Q 2950 -685 2566 -986 
Q 2035 -1395 1286 -1395 
Q 826 -1395 502 -1212 
Q 179 -1030 179 -774 
Q 179 -595 320 -419 
Q 461 -243 806 6 
Q 602 102 534 172 
Q 467 243 467 346 
Q 467 531 762 787 
Q 909 915 1037 1043 
Q 717 1203 579 1401 
Q 442 1600 442 1901 
Q 442 2336 752 2640 
Q 1062 2944 1510 2944 
Q 1766 2944 2022 2848 
L 2163 2797 
Q 2349 2733 2515 2733 
L 3008 2733 
L 3008 2483 
z
M 973 2163 
L 973 2144 
Q 973 1683 1155 1398 
Q 1338 1114 1632 1114 
Q 1850 1114 1978 1270 
Q 2106 1427 2106 1690 
Q 2106 2112 1914 2464 
Q 1754 2765 1446 2765 
Q 1222 2765 1097 2605 
Q 973 2445 973 2163 
z
M 2771 -410 
Q 2771 -230 2595 -163 
Q 2419 -96 1978 -96 
Q 1344 -96 941 -13 
Q 749 -243 688 -348 
Q 627 -454 627 -563 
Q 627 -774 880 -902 
Q 1133 -1030 1555 -1030 
Q 2099 -1030 2435 -860 
Q 2771 -691 2771 -410 
z
" transform="scale(0.015625)"/>
       <path id="STIXGeneral-Regular-65" d="M 2611 1050 
L 2714 1005 
Q 2330 -64 1376 -64 
Q 813 -64 486 329 
Q 160 723 160 1389 
Q 160 2074 525 2509 
Q 890 2944 1485 2944 
Q 2061 2944 2374 2502 
Q 2560 2246 2592 1773 
L 621 1773 
Q 646 1370 700 1158 
Q 755 947 915 730 
Q 1184 378 1626 378 
Q 1939 378 2153 531 
Q 2368 685 2611 1050 
z
M 634 1978 
L 1939 1978 
Q 1882 2381 1750 2547 
Q 1619 2714 1312 2714 
Q 1043 2714 864 2525 
Q 685 2336 634 1978 
z
" transform="scale(0.015625)"/>
      </defs>
      <use xlink:href="#STIXGeneral-Regular-61"/>
      <use xlink:href="#STIXGeneral-Regular-67" x="44.399994"/>
      <use xlink:href="#STIXGeneral-Regular-65" x="94.399979"/>
     </g>
    </g>
   </g>
   <g id="matplotlib.axis_2">
    <g id="ytick_1">
     <g id="line2d_7">
      <defs>
       <path id="me7c48d9d77" d="M 0 0 
L -3.5 0 
" style="stroke: #323034; stroke-width: 0.8"/>
      </defs>
      <g>
       <use xlink:href="#me7c48d9d77" x="63.6" y="236.278799" style="fill: #323034; stroke: #323034; stroke-width: 0.8"/>
      </g>
     </g>
     <g id="text_8">
      <!-- 1000 -->
      <g style="fill: #323034" transform="translate(24.6 241.742549) scale(0.16 -0.16)">
       <use xlink:href="#STIXGeneral-Regular-31"/>
       <use xlink:href="#STIXGeneral-Regular-30" x="49.999985"/>
       <use xlink:href="#STIXGeneral-Regular-30" x="99.999969"/>
       <use xlink:href="#STIXGeneral-Regular-30" x="149.999954"/>
      </g>
     </g>
    </g>
    <g id="ytick_2">
     <g id="line2d_8">
      <g>
       <use xlink:href="#me7c48d9d77" x="63.6" y="205.613462" style="fill: #323034; stroke: #323034; stroke-width: 0.8"/>
      </g>
     </g>
     <g id="text_9">
      <!-- 1500 -->
      <g style="fill: #323034" transform="translate(24.6 211.077212) scale(0.16 -0.16)">
       <use xlink:href="#STIXGeneral-Regular-31"/>
       <use xlink:href="#STIXGeneral-Regular-35" x="49.999985"/>
       <use xlink:href="#STIXGeneral-Regular-30" x="99.999969"/>
       <use xlink:href="#STIXGeneral-Regular-30" x="149.999954"/>
      </g>
     </g>
    </g>
    <g id="ytick_3">
     <g id="line2d_9">
      <g>
       <use xlink:href="#me7c48d9d77" x="63.6" y="174.948124" style="fill: #323034; stroke: #323034; stroke-width: 0.8"/>
      </g>
     </g>
     <g id="text_10">
      <!-- 2000 -->
      <g style="fill: #323034" transform="translate(24.6 180.411874) scale(0.16 -0.16)">
       <use xlink:href="#STIXGeneral-Regular-32"/>
       <use xlink:href="#STIXGeneral-Regular-30" x="49.999985"/>
       <use xlink:href="#STIXGeneral-Regular-30" x="99.999969"/>
       <use xlink:href="#STIXGeneral-Regular-30" x="149.999954"/>
      </g>
     </g>
    </g>
    <g id="ytick_4">
     <g id="line2d_10">
      <g>
       <use xlink:href="#me7c48d9d77" x="63.6" y="144.282787" style="fill: #323034; stroke: #323034; stroke-width: 0.8"/>
      </g>
     </g>
     <g id="text_11">
      <!-- 2500 -->
      <g style="fill: #323034" transform="translate(24.6 149.746537) scale(0.16 -0.16)">
       <use xlink:href="#STIXGeneral-Regular-32"/>
       <use xlink:href="#STIXGeneral-Regular-35" x="49.999985"/>
       <use xlink:href="#STIXGeneral-Regular-30" x="99.999969"/>
       <use xlink:href="#STIXGeneral-Regular-30" x="149.999954"/>
      </g>
     </g>
    </g>
    <g id="ytick_5">
     <g id="line2d_11">
      <g>
       <use xlink:href="#me7c48d9d77" x="63.6" y="113.617449" style="fill: #323034; stroke: #323034; stroke-width: 0.8"/>
      </g>
     </g>
     <g id="text_12">
      <!-- 3000 -->
      <g style="fill: #323034" transform="translate(24.6 119.081199) scale(0.16 -0.16)">
       <use xlink:href="#STIXGeneral-Regular-33"/>
       <use xlink:href="#STIXGeneral-Regular-30" x="49.999985"/>
       <use xlink:href="#STIXGeneral-Regular-30" x="99.999969"/>
       <use xlink:href="#STIXGeneral-Regular-30" x="149.999954"/>
      </g>
     </g>
    </g>
    <g id="ytick_6">
     <g id="line2d_12">
      <g>
       <use xlink:href="#me7c48d9d77" x="63.6" y="82.952112" style="fill: #323034; stroke: #323034; stroke-width: 0.8"/>
      </g>
     </g>
     <g id="text_13">
      <!-- 3500 -->
      <g style="fill: #323034" transform="translate(24.6 88.415862) scale(0.16 -0.16)">
       <use xlink:href="#STIXGeneral-Regular-33"/>
       <use xlink:href="#STIXGeneral-Regular-35" x="49.999985"/>
       <use xlink:href="#STIXGeneral-Regular-30" x="99.999969"/>
       <use xlink:href="#STIXGeneral-Regular-30" x="149.999954"/>
      </g>
     </g>
    </g>
    <g id="ytick_7">
     <g id="line2d_13">
      <g>
       <use xlink:href="#me7c48d9d77" x="63.6" y="52.286774" style="fill: #323034; stroke: #323034; stroke-width: 0.8"/>
      </g>
     </g>
     <g id="text_14">
      <!-- 4000 -->
      <g style="fill: #323034" transform="translate(24.6 57.750524) scale(0.16 -0.16)">
       <use xlink:href="#STIXGeneral-Regular-34"/>
       <use xlink:href="#STIXGeneral-Regular-30" x="49.999985"/>
       <use xlink:href="#STIXGeneral-Regular-30" x="99.999969"/>
       <use xlink:href="#STIXGeneral-Regular-30" x="149.999954"/>
      </g>
     </g>
    </g>
    <g id="text_15">
     <!-- sales -->
     <g transform="translate(18.1275 152.610156) rotate(-90) scale(0.16 -0.16)">
      <defs>
       <path id="STIXGeneral-Regular-73" d="M 998 1926 
L 1664 1523 
Q 1984 1331 2105 1164 
Q 2227 998 2227 736 
Q 2227 416 1961 176 
Q 1696 -64 1331 -64 
Q 1030 -64 864 -6 
Q 691 51 570 51 
Q 461 51 416 -26 
L 333 -26 
L 333 979 
L 435 979 
Q 538 512 730 294 
Q 922 77 1248 77 
Q 1485 77 1632 211 
Q 1779 346 1779 550 
Q 1779 845 1440 1030 
L 1094 1222 
Q 326 1651 326 2150 
Q 326 2522 566 2730 
Q 806 2938 1210 2938 
Q 1491 2938 1638 2867 
Q 1754 2816 1818 2816 
Q 1862 2816 1920 2880 
L 1990 2880 
L 2022 2010 
L 1926 2010 
Q 1818 2445 1654 2621 
Q 1491 2797 1203 2797 
Q 986 2797 854 2688 
Q 723 2579 723 2362 
Q 723 2253 796 2128 
Q 870 2003 998 1926 
z
" transform="scale(0.015625)"/>
       <path id="STIXGeneral-Regular-6c" d="M 1645 0 
L 134 0 
L 134 96 
Q 435 122 531 221 
Q 627 320 627 589 
L 627 3590 
Q 627 3821 569 3910 
Q 512 4000 358 4000 
Q 224 4000 122 3987 
L 122 4090 
Q 730 4237 1133 4371 
L 1165 4346 
L 1165 557 
Q 1165 288 1254 201 
Q 1344 115 1645 96 
L 1645 0 
z
" transform="scale(0.015625)"/>
      </defs>
      <use xlink:href="#STIXGeneral-Regular-73"/>
      <use xlink:href="#STIXGeneral-Regular-61" x="38.899994"/>
      <use xlink:href="#STIXGeneral-Regular-6c" x="83.299988"/>
      <use xlink:href="#STIXGeneral-Regular-65" x="111.099976"/>
      <use xlink:href="#STIXGeneral-Regular-73" x="155.499969"/>
     </g>
    </g>
   </g>
   <g id="LineCollection_1">
    <path d="M 83.890909 200.763088 
L 83.890909 144.288651 
" clip-path="url(#pdbc7895380)" style="fill: none; stroke: #bc80bd; stroke-opacity: 0.2; stroke-width: 2"/>
    <path d="M 86.191444 179.730075 
L 86.191444 132.577754 
" clip-path="url(#pdbc7895380)" style="fill: none; stroke: #bc80bd; stroke-opacity: 0.2; stroke-width: 2"/>
    <path d="M 88.75828 173.653503 
L 88.75828 127.820664 
" clip-path="url(#pdbc7895380)" style="fill: none; stroke: #bc80bd; stroke-opacity: 0.2; stroke-width: 2"/>
    <path d="M 91.467962 176.704684 
L 91.467962 122.201017 
" clip-path="url(#pdbc7895380)" style="fill: none; stroke: #bc80bd; stroke-opacity: 0.2; stroke-width: 2"/>
    <path d="M 94.183089 172.959279 
L 94.183089 116.3663 
" clip-path="url(#pdbc7895380)" style="fill: none; stroke: #bc80bd; stroke-opacity: 0.2; stroke-width: 2"/>
    <path d="M 97.177458 165.261984 
L 97.177458 111.984394 
" clip-path="url(#pdbc7895380)" style="fill: none; stroke: #bc80bd; stroke-opacity: 0.2; stroke-width: 2"/>
    <path d="M 100.710895 154.667091 
L 100.710895 100.062952 
" clip-path="url(#pdbc7895380)" style="fill: none; stroke: #bc80bd; stroke-opacity: 0.2; stroke-width: 2"/>
    <path d="M 104.274929 148.154422 
L 104.274929 80.6826 
" clip-path="url(#pdbc7895380)" style="fill: none; stroke: #bc80bd; stroke-opacity: 0.2; stroke-width: 2"/>
    <path d="M 107.877306 145.286097 
L 107.877306 61.982777 
" clip-path="url(#pdbc7895380)" style="fill: none; stroke: #bc80bd; stroke-opacity: 0.2; stroke-width: 2"/>
    <path d="M 111.680772 164.604242 
L 111.680772 97.809235 
" clip-path="url(#pdbc7895380)" style="fill: none; stroke: #bc80bd; stroke-opacity: 0.2; stroke-width: 2"/>
    <path d="M 116.115051 132.106345 
L 116.115051 61.150424 
" clip-path="url(#pdbc7895380)" style="fill: none; stroke: #bc80bd; stroke-opacity: 0.2; stroke-width: 2"/>
    <path d="M 120.649438 134.858028 
L 120.649438 58.251809 
" clip-path="url(#pdbc7895380)" style="fill: none; stroke: #bc80bd; stroke-opacity: 0.2; stroke-width: 2"/>
    <path d="M 125.720117 142.201545 
L 125.720117 70.708346 
" clip-path="url(#pdbc7895380)" style="fill: none; stroke: #bc80bd; stroke-opacity: 0.2; stroke-width: 2"/>
    <path d="M 131.214714 136.883207 
L 131.214714 62.708194 
" clip-path="url(#pdbc7895380)" style="fill: none; stroke: #bc80bd; stroke-opacity: 0.2; stroke-width: 2"/>
    <path d="M 137.27312 112.006968 
L 137.27312 37.667801 
" clip-path="url(#pdbc7895380)" style="fill: none; stroke: #bc80bd; stroke-opacity: 0.2; stroke-width: 2"/>
    <path d="M 143.95913 119.623126 
L 143.95913 36.837288 
" clip-path="url(#pdbc7895380)" style="fill: none; stroke: #bc80bd; stroke-opacity: 0.2; stroke-width: 2"/>
    <path d="M 151.105283 126.307397 
L 151.105283 43.504174 
" clip-path="url(#pdbc7895380)" style="fill: none; stroke: #bc80bd; stroke-opacity: 0.2; stroke-width: 2"/>
    <path d="M 159.013707 126.426933 
L 159.013707 42.885197 
" clip-path="url(#pdbc7895380)" style="fill: none; stroke: #bc80bd; stroke-opacity: 0.2; stroke-width: 2"/>
    <path d="M 169.111784 124.827976 
L 169.111784 36.256406 
" clip-path="url(#pdbc7895380)" style="fill: none; stroke: #bc80bd; stroke-opacity: 0.2; stroke-width: 2"/>
    <path d="M 180.821955 133.132108 
L 180.821955 49.208288 
" clip-path="url(#pdbc7895380)" style="fill: none; stroke: #bc80bd; stroke-opacity: 0.2; stroke-width: 2"/>
    <path d="M 195.043 140.446425 
L 195.043 62.804176 
" clip-path="url(#pdbc7895380)" style="fill: none; stroke: #bc80bd; stroke-opacity: 0.2; stroke-width: 2"/>
    <path d="M 213.323874 185.024514 
L 213.323874 110.534881 
" clip-path="url(#pdbc7895380)" style="fill: none; stroke: #bc80bd; stroke-opacity: 0.2; stroke-width: 2"/>
    <path d="M 239.30709 176.372628 
L 239.30709 103.489341 
" clip-path="url(#pdbc7895380)" style="fill: none; stroke: #bc80bd; stroke-opacity: 0.2; stroke-width: 2"/>
    <path d="M 271.141497 189.865476 
L 271.141497 115.945266 
" clip-path="url(#pdbc7895380)" style="fill: none; stroke: #bc80bd; stroke-opacity: 0.2; stroke-width: 2"/>
    <path d="M 322.968876 178.317475 
L 322.968876 90.345076 
" clip-path="url(#pdbc7895380)" style="fill: none; stroke: #bc80bd; stroke-opacity: 0.2; stroke-width: 2"/>
    <path d="M 489.709091 237.856406 
L 489.709091 128.372948 
" clip-path="url(#pdbc7895380)" style="fill: none; stroke: #bc80bd; stroke-opacity: 0.2; stroke-width: 2"/>
   </g>
   <g id="line2d_14"/>
   <g id="patch_3">
    <path d="M 63.6 247.936406 
L 63.6 26.176406 
" style="fill: none; stroke: #000000; stroke-width: 0.6; stroke-linejoin: miter; stroke-linecap: square"/>
   </g>
   <g id="patch_4">
    <path d="M 63.6 247.936406 
L 510 247.936406 
" style="fill: none; stroke: #000000; stroke-width: 0.6; stroke-linejoin: miter; stroke-linecap: square"/>
   </g>
   <g id="text_16">
    <!-- Binscatter: sales as a function of age conditioned on products -->
    <g style="fill: #323034" transform="translate(63.6 20.176406) scale(0.19 -0.19)">
     <defs>
      <path id="STIXGeneral-Regular-42" d="M 2701 2234 
L 2701 2227 
Q 3181 2150 3482 1875 
Q 3795 1594 3795 1139 
Q 3795 608 3379 304 
Q 2963 0 2266 0 
L 109 0 
L 109 122 
Q 486 134 604 246 
Q 723 358 723 723 
L 723 3520 
Q 723 3891 614 3990 
Q 506 4090 109 4115 
L 109 4237 
L 1901 4237 
Q 2726 4237 3152 3958 
Q 3578 3680 3578 3168 
Q 3578 2733 3315 2502 
Q 3130 2342 2701 2234 
z
M 1376 2342 
L 1965 2342 
Q 2925 2342 2925 3136 
Q 2925 3546 2640 3773 
Q 2355 4000 1792 4000 
L 1530 4000 
Q 1376 4000 1376 3795 
L 1376 2342 
z
M 1376 2086 
L 1376 525 
Q 1376 365 1462 301 
Q 1549 237 1773 237 
Q 2208 237 2413 285 
Q 2618 333 2816 512 
Q 3059 723 3059 1146 
Q 3059 1632 2758 1830 
Q 2688 1882 2617 1917 
Q 2547 1952 2492 1974 
Q 2438 1997 2348 2016 
Q 2259 2035 2211 2044 
Q 2163 2054 2041 2060 
Q 1920 2067 1862 2070 
Q 1805 2074 1635 2080 
Q 1466 2086 1376 2086 
z
" transform="scale(0.015625)"/>
      <path id="STIXGeneral-Regular-69" d="M 1152 4045 
Q 1152 3904 1056 3811 
Q 960 3718 819 3718 
Q 685 3718 592 3811 
Q 499 3904 499 4045 
Q 499 4179 595 4275 
Q 691 4371 826 4371 
Q 966 4371 1059 4275 
Q 1152 4179 1152 4045 
z
M 1619 0 
L 102 0 
L 102 96 
Q 435 115 521 211 
Q 608 307 608 666 
L 608 2118 
Q 608 2342 563 2432 
Q 518 2522 397 2522 
Q 243 2522 128 2490 
L 128 2592 
L 1120 2944 
L 1146 2918 
L 1146 672 
Q 1146 314 1226 218 
Q 1306 122 1619 96 
L 1619 0 
z
" transform="scale(0.015625)"/>
      <path id="STIXGeneral-Regular-6e" d="M 3104 0 
L 1773 0 
L 1779 96 
Q 2016 115 2096 233 
Q 2176 352 2176 672 
L 2176 1946 
Q 2176 2592 1709 2592 
Q 1549 2592 1408 2515 
Q 1267 2438 1050 2227 
L 1050 461 
Q 1050 269 1136 192 
Q 1222 115 1466 96 
L 1466 0 
L 115 0 
L 115 96 
Q 358 115 435 214 
Q 512 314 512 602 
L 512 2157 
Q 512 2394 467 2483 
Q 422 2573 288 2573 
Q 160 2573 102 2547 
L 102 2656 
Q 550 2784 979 2944 
L 1030 2925 
L 1030 2426 
L 1037 2426 
Q 1491 2944 1958 2944 
Q 2323 2944 2518 2688 
Q 2714 2432 2714 1958 
L 2714 544 
Q 2714 288 2790 205 
Q 2867 122 3104 96 
L 3104 0 
z
" transform="scale(0.015625)"/>
      <path id="STIXGeneral-Regular-63" d="M 2547 998 
L 2637 941 
Q 2362 403 2112 205 
Q 1786 -64 1376 -64 
Q 845 -64 502 336 
Q 160 736 160 1357 
Q 160 2170 698 2618 
Q 1094 2944 1562 2944 
Q 1965 2944 2256 2749 
Q 2547 2554 2547 2285 
Q 2547 2176 2457 2096 
Q 2368 2016 2246 2016 
Q 2022 2016 1939 2310 
L 1901 2451 
Q 1850 2630 1773 2694 
Q 1696 2758 1523 2758 
Q 1133 2758 893 2451 
Q 653 2144 653 1645 
Q 653 1094 928 745 
Q 1203 397 1645 397 
Q 1920 397 2118 528 
Q 2317 659 2547 998 
z
" transform="scale(0.015625)"/>
      <path id="STIXGeneral-Regular-74" d="M 1702 493 
L 1786 422 
Q 1478 -64 1011 -64 
Q 448 -64 448 749 
L 448 2675 
L 109 2675 
Q 83 2694 83 2720 
Q 83 2771 192 2842 
Q 435 2982 813 3526 
Q 826 3546 874 3606 
Q 922 3667 941 3706 
Q 986 3706 986 3622 
L 986 2880 
L 1632 2880 
L 1632 2675 
L 986 2675 
L 986 845 
Q 986 538 1062 403 
Q 1139 269 1318 269 
Q 1510 269 1702 493 
z
" transform="scale(0.015625)"/>
      <path id="STIXGeneral-Regular-72" d="M 1024 2931 
L 1024 2342 
Q 1267 2688 1430 2816 
Q 1594 2944 1792 2944 
Q 1958 2944 2051 2854 
Q 2144 2765 2144 2605 
Q 2144 2470 2077 2393 
Q 2010 2317 1894 2317 
Q 1773 2317 1638 2445 
Q 1536 2541 1472 2541 
Q 1338 2541 1181 2355 
Q 1024 2170 1024 2016 
L 1024 576 
Q 1024 301 1133 205 
Q 1242 109 1568 96 
L 1568 0 
L 32 0 
L 32 96 
Q 339 154 412 224 
Q 486 294 486 538 
L 486 2138 
Q 486 2349 438 2435 
Q 390 2522 269 2522 
Q 166 2522 45 2496 
L 45 2598 
Q 448 2726 992 2944 
L 1024 2931 
z
" transform="scale(0.015625)"/>
      <path id="STIXGeneral-Regular-3a" d="M 1123 2832 
Q 1229 2726 1229 2579 
Q 1229 2432 1126 2329 
Q 1024 2227 877 2227 
Q 730 2227 624 2332 
Q 518 2438 518 2579 
Q 518 2733 620 2835 
Q 723 2938 877 2938 
Q 1018 2938 1123 2832 
z
M 1229 282 
Q 1229 141 1126 35 
Q 1024 -70 877 -70 
Q 730 -70 624 35 
Q 518 141 518 282 
Q 518 435 620 537 
Q 723 640 877 640 
Q 1018 640 1123 534 
Q 1229 429 1229 282 
z
" transform="scale(0.015625)"/>
      <path id="STIXGeneral-Regular-20" transform="scale(0.015625)"/>
      <path id="STIXGeneral-Regular-66" d="M 134 2880 
L 659 2880 
Q 666 3264 710 3478 
Q 755 3693 883 3910 
Q 1152 4371 1786 4371 
Q 2074 4371 2262 4259 
Q 2451 4147 2451 3974 
Q 2451 3866 2374 3789 
Q 2298 3712 2182 3712 
Q 2029 3712 1894 3942 
Q 1741 4192 1555 4192 
Q 1197 4192 1197 3622 
L 1197 2880 
L 1978 2880 
L 1978 2675 
L 1197 2675 
L 1197 666 
Q 1197 307 1299 208 
Q 1402 109 1792 96 
L 1792 0 
L 128 0 
L 128 96 
Q 474 115 566 214 
Q 659 314 659 666 
L 659 2675 
L 134 2675 
L 134 2880 
z
" transform="scale(0.015625)"/>
      <path id="STIXGeneral-Regular-75" d="M 3072 320 
L 3072 230 
Q 2573 96 2195 -58 
L 2163 -38 
L 2163 486 
L 2150 486 
Q 1747 -64 1235 -64 
Q 870 -64 662 160 
Q 454 384 454 755 
L 454 2362 
Q 454 2598 371 2688 
Q 288 2778 58 2790 
L 58 2880 
L 992 2880 
L 992 813 
Q 992 595 1123 451 
Q 1254 307 1446 307 
Q 1760 307 1984 506 
Q 2067 582 2099 649 
Q 2131 717 2131 877 
L 2131 2355 
Q 2131 2605 2041 2678 
Q 1952 2752 1658 2771 
L 1658 2880 
L 2669 2880 
L 2669 685 
Q 2669 461 2742 390 
Q 2816 320 3034 320 
L 3072 320 
z
" transform="scale(0.015625)"/>
      <path id="STIXGeneral-Regular-6f" d="M 3008 1478 
Q 3008 806 2608 371 
Q 2208 -64 1568 -64 
Q 979 -64 582 368 
Q 186 800 186 1459 
Q 186 2125 582 2534 
Q 979 2944 1626 2944 
Q 2221 2944 2614 2537 
Q 3008 2131 3008 1478 
z
M 2432 1306 
Q 2432 2035 2112 2445 
Q 1856 2765 1504 2765 
Q 1171 2765 966 2493 
Q 762 2221 762 1747 
Q 762 928 1101 435 
Q 1318 115 1677 115 
Q 2029 115 2230 432 
Q 2432 749 2432 1306 
z
" transform="scale(0.015625)"/>
      <path id="STIXGeneral-Regular-64" d="M 3142 269 
L 2202 -64 
L 2176 -45 
L 2176 365 
Q 1869 -64 1357 -64 
Q 826 -64 499 317 
Q 173 698 173 1312 
Q 173 1990 563 2467 
Q 954 2944 1504 2944 
Q 1850 2944 2176 2669 
L 2176 3667 
Q 2176 3866 2118 3930 
Q 2061 3994 1882 3994 
Q 1792 3994 1741 3987 
L 1741 4090 
Q 2323 4243 2682 4371 
L 2714 4358 
L 2714 730 
Q 2714 506 2768 435 
Q 2822 365 2995 365 
Q 3034 365 3142 371 
L 3142 269 
z
M 2176 653 
L 2176 2125 
Q 2176 2381 1981 2573 
Q 1786 2765 1523 2765 
Q 1158 2765 940 2438 
Q 723 2112 723 1568 
Q 723 979 963 624 
Q 1203 269 1606 269 
Q 1907 269 2080 474 
Q 2176 582 2176 653 
z
" transform="scale(0.015625)"/>
      <path id="STIXGeneral-Regular-70" d="M 1018 2931 
L 1018 2438 
Q 1421 2944 1939 2944 
Q 2406 2944 2707 2560 
Q 3008 2176 3008 1581 
Q 3008 883 2621 409 
Q 2234 -64 1664 -64 
Q 1466 -64 1328 -6 
Q 1190 51 1018 211 
L 1018 -794 
Q 1018 -1094 1120 -1180 
Q 1222 -1267 1581 -1274 
L 1581 -1389 
L 32 -1389 
L 32 -1280 
Q 314 -1254 397 -1171 
Q 480 -1088 480 -838 
L 480 2157 
Q 480 2381 429 2451 
Q 378 2522 218 2522 
Q 115 2522 58 2515 
L 58 2618 
Q 506 2752 979 2944 
L 1018 2931 
z
M 1018 2138 
L 1018 563 
Q 1018 422 1238 281 
Q 1459 141 1683 141 
Q 2029 141 2243 467 
Q 2458 794 2458 1325 
Q 2458 1888 2243 2224 
Q 2029 2560 1670 2560 
Q 1446 2560 1232 2419 
Q 1018 2278 1018 2138 
z
" transform="scale(0.015625)"/>
     </defs>
     <use xlink:href="#STIXGeneral-Regular-42"/>
     <use xlink:href="#STIXGeneral-Regular-69" x="66.699997"/>
     <use xlink:href="#STIXGeneral-Regular-6e" x="94.499985"/>
     <use xlink:href="#STIXGeneral-Regular-73" x="144.499969"/>
     <use xlink:href="#STIXGeneral-Regular-63" x="183.399963"/>
     <use xlink:href="#STIXGeneral-Regular-61" x="227.799957"/>
     <use xlink:href="#STIXGeneral-Regular-74" x="272.199951"/>
     <use xlink:href="#STIXGeneral-Regular-74" x="299.999939"/>
     <use xlink:href="#STIXGeneral-Regular-65" x="327.799927"/>
     <use xlink:href="#STIXGeneral-Regular-72" x="372.199921"/>
     <use xlink:href="#STIXGeneral-Regular-3a" x="405.499908"/>
     <use xlink:href="#STIXGeneral-Regular-20" x="433.299896"/>
     <use xlink:href="#STIXGeneral-Regular-73" x="458.299881"/>
     <use xlink:href="#STIXGeneral-Regular-61" x="497.199875"/>
     <use xlink:href="#STIXGeneral-Regular-6c" x="541.599869"/>
     <use xlink:href="#STIXGeneral-Regular-65" x="569.399857"/>
     <use xlink:href="#STIXGeneral-Regular-73" x="613.79985"/>
     <use xlink:href="#STIXGeneral-Regular-20" x="652.699844"/>
     <use xlink:href="#STIXGeneral-Regular-61" x="677.699829"/>
     <use xlink:href="#STIXGeneral-Regular-73" x="722.099823"/>
     <use xlink:href="#STIXGeneral-Regular-20" x="760.999817"/>
     <use xlink:href="#STIXGeneral-Regular-61" x="785.999802"/>
     <use xlink:href="#STIXGeneral-Regular-20" x="830.399796"/>
     <use xlink:href="#STIXGeneral-Regular-66" x="855.39978"/>
     <use xlink:href="#STIXGeneral-Regular-75" x="888.699768"/>
     <use xlink:href="#STIXGeneral-Regular-6e" x="938.699753"/>
     <use xlink:href="#STIXGeneral-Regular-63" x="988.699738"/>
     <use xlink:href="#STIXGeneral-Regular-74" x="1033.099731"/>
     <use xlink:href="#STIXGeneral-Regular-69" x="1060.899719"/>
     <use xlink:href="#STIXGeneral-Regular-6f" x="1088.699707"/>
     <use xlink:href="#STIXGeneral-Regular-6e" x="1138.699692"/>
     <use xlink:href="#STIXGeneral-Regular-20" x="1188.699677"/>
     <use xlink:href="#STIXGeneral-Regular-6f" x="1213.699661"/>
     <use xlink:href="#STIXGeneral-Regular-66" x="1263.699646"/>
     <use xlink:href="#STIXGeneral-Regular-20" x="1296.999634"/>
     <use xlink:href="#STIXGeneral-Regular-61" x="1321.999619"/>
     <use xlink:href="#STIXGeneral-Regular-67" x="1366.399612"/>
     <use xlink:href="#STIXGeneral-Regular-65" x="1416.399597"/>
     <use xlink:href="#STIXGeneral-Regular-20" x="1460.799591"/>
     <use xlink:href="#STIXGeneral-Regular-63" x="1485.799576"/>
     <use xlink:href="#STIXGeneral-Regular-6f" x="1530.19957"/>
     <use xlink:href="#STIXGeneral-Regular-6e" x="1580.199554"/>
     <use xlink:href="#STIXGeneral-Regular-64" x="1630.199539"/>
     <use xlink:href="#STIXGeneral-Regular-69" x="1680.199524"/>
     <use xlink:href="#STIXGeneral-Regular-74" x="1707.999512"/>
     <use xlink:href="#STIXGeneral-Regular-69" x="1735.7995"/>
     <use xlink:href="#STIXGeneral-Regular-6f" x="1763.599487"/>
     <use xlink:href="#STIXGeneral-Regular-6e" x="1813.599472"/>
     <use xlink:href="#STIXGeneral-Regular-65" x="1863.599457"/>
     <use xlink:href="#STIXGeneral-Regular-64" x="1907.999451"/>
     <use xlink:href="#STIXGeneral-Regular-20" x="1957.999435"/>
     <use xlink:href="#STIXGeneral-Regular-6f" x="1982.99942"/>
     <use xlink:href="#STIXGeneral-Regular-6e" x="2032.999405"/>
     <use xlink:href="#STIXGeneral-Regular-20" x="2082.99939"/>
     <use xlink:href="#STIXGeneral-Regular-70" x="2107.999374"/>
     <use xlink:href="#STIXGeneral-Regular-72" x="2157.999359"/>
     <use xlink:href="#STIXGeneral-Regular-6f" x="2191.299347"/>
     <use xlink:href="#STIXGeneral-Regular-64" x="2241.299332"/>
     <use xlink:href="#STIXGeneral-Regular-75" x="2291.299316"/>
     <use xlink:href="#STIXGeneral-Regular-63" x="2341.299301"/>
     <use xlink:href="#STIXGeneral-Regular-74" x="2385.699295"/>
     <use xlink:href="#STIXGeneral-Regular-73" x="2413.499283"/>
    </g>
   </g>
  </g>
 </g>
 <defs>
  <clipPath id="pdbc7895380">
   <rect x="63.6" y="26.176406" width="446.4" height="221.76"/>
  </clipPath>
 </defs>
</svg>