<?xml version="1.0" encoding="utf-8" standalone="no"?>
<!DOCTYPE svg PUBLIC "-//W3C//DTD SVG 1.1//EN"
  "http://www.w3.org/Graphics/SVG/1.1/DTD/svg11.dtd">
<svg xmlns:xlink="http://www.w3.org/1999/xlink" width="491.822969pt" height="309.024687pt" viewBox="0 0 491.822969 309.024687" xmlns="http://www.w3.org/2000/svg" version="1.1">
 <metadata>
  <rdf:RDF xmlns:dc="http://purl.org/dc/elements/1.1/" xmlns:cc="http://creativecommons.org/ns#" xmlns:rdf="http://www.w3.org/1999/02/22-rdf-syntax-ns#">
   <cc:Work>
    <dc:type rdf:resource="http://purl.org/dc/dcmitype/StillImage"/>
    <dc:date>2023-09-07T20:40:42.051170</dc:date>
    <dc:format>image/svg+xml</dc:format>
    <dc:creator>
     <cc:Agent>
      <dc:title>Matplotlib v3.7.2, https://matplotlib.org/</dc:title>
     </cc:Agent>
    </dc:creator>
   </cc:Work>
  </rdf:RDF>
 </metadata>
 <defs>
  <style type="text/css">*{stroke-linejoin: round; stroke-linecap: butt}</style>
 </defs>
 <g id="figure_1">
  <g id="patch_1">
   <path d="M 0 309.024687 
L 491.822969 309.024687 
L 491.822969 0 
L 0 0 
z
" style="fill: #ffffff; stroke: #ffffff; stroke-linejoin: miter"/>
  </g>
  <g id="axes_1">
   <g id="patch_2">
    <path d="M 49.635938 273.312 
L 406.755938 273.312 
L 406.755938 7.2 
L 49.635938 7.2 
z
" style="fill: #ffffff; stroke: #7f7f7f; stroke-linejoin: miter"/>
   </g>
   <g id="matplotlib.axis_1">
    <g id="xtick_1">
     <g id="line2d_1">
      <path d="M 65.86832 273.312 
L 65.86832 7.2 
" clip-path="url(#p2a3bf2b4cf)" style="fill: none; stroke: #e5e5e5; stroke-width: 0.8"/>
     </g>
     <g id="line2d_2">
      <path d="M 65.86832 273.312 
" style="fill: none; stroke: #000000; stroke-width: 3"/>
      <defs>
       <path id="mb802c5bde7" d="M 0 0 
L 0 2.75 
" style="stroke: #333333"/>
      </defs>
      <g>
       <use xlink:href="#mb802c5bde7" x="65.86832" y="273.312" style="stroke: #333333"/>
      </g>
     </g>
     <g id="text_1">
      <!-- $\mathdefault{0}$ -->
      <g style="fill: #4d4d4d" transform="translate(63.05232 284.948625) scale(0.088 -0.088)">
       <defs>
        <path id="DejaVuSans-30" d="M 2034 4250 
Q 1547 4250 1301 3770 
Q 1056 3291 1056 2328 
Q 1056 1369 1301 889 
Q 1547 409 2034 409 
Q 2525 409 2770 889 
Q 3016 1369 3016 2328 
Q 3016 3291 2770 3770 
Q 2525 4250 2034 4250 
z
M 2034 4750 
Q 2819 4750 3233 4129 
Q 3647 3509 3647 2328 
Q 3647 1150 3233 529 
Q 2819 -91 2034 -91 
Q 1250 -91 836 529 
Q 422 1150 422 2328 
Q 422 3509 836 4129 
Q 1250 4750 2034 4750 
z
" transform="scale(0.015625)"/>
       </defs>
       <use xlink:href="#DejaVuSans-30" transform="translate(0 0.78125)"/>
      </g>
     </g>
    </g>
    <g id="xtick_2">
     <g id="line2d_3">
      <path d="M 145.949499 273.312 
L 145.949499 7.2 
" clip-path="url(#p2a3bf2b4cf)" style="fill: none; stroke: #e5e5e5; stroke-width: 0.8"/>
     </g>
     <g id="line2d_4">
      <path d="M 145.949499 273.312 
" style="fill: none; stroke: #000000; stroke-width: 3"/>
      <g>
       <use xlink:href="#mb802c5bde7" x="145.949499" y="273.312" style="stroke: #333333"/>
      </g>
     </g>
     <g id="text_2">
      <!-- $\mathdefault{5}$ -->
      <g style="fill: #4d4d4d" transform="translate(143.133499 284.948625) scale(0.088 -0.088)">
       <defs>
        <path id="DejaVuSans-35" d="M 691 4666 
L 3169 4666 
L 3169 4134 
L 1269 4134 
L 1269 2991 
Q 1406 3038 1543 3061 
Q 1681 3084 1819 3084 
Q 2600 3084 3056 2656 
Q 3513 2228 3513 1497 
Q 3513 744 3044 326 
Q 2575 -91 1722 -91 
Q 1428 -91 1123 -41 
Q 819 9 494 109 
L 494 744 
Q 775 591 1075 516 
Q 1375 441 1709 441 
Q 2250 441 2565 725 
Q 2881 1009 2881 1497 
Q 2881 1984 2565 2268 
Q 2250 2553 1709 2553 
Q 1456 2553 1204 2497 
Q 953 2441 691 2322 
L 691 4666 
z
" transform="scale(0.015625)"/>
       </defs>
       <use xlink:href="#DejaVuSans-35" transform="translate(0 0.09375)"/>
      </g>
     </g>
    </g>
    <g id="xtick_3">
     <g id="line2d_5">
      <path d="M 226.030677 273.312 
L 226.030677 7.2 
" clip-path="url(#p2a3bf2b4cf)" style="fill: none; stroke: #e5e5e5; stroke-width: 0.8"/>
     </g>
     <g id="line2d_6">
      <path d="M 226.030677 273.312 
" style="fill: none; stroke: #000000; stroke-width: 3"/>
      <g>
       <use xlink:href="#mb802c5bde7" x="226.030677" y="273.312" style="stroke: #333333"/>
      </g>
     </g>
     <g id="text_3">
      <!-- $\mathdefault{10}$ -->
      <g style="fill: #4d4d4d" transform="translate(220.398677 284.948625) scale(0.088 -0.088)">
       <defs>
        <path id="DejaVuSans-31" d="M 794 531 
L 1825 531 
L 1825 4091 
L 703 3866 
L 703 4441 
L 1819 4666 
L 2450 4666 
L 2450 531 
L 3481 531 
L 3481 0 
L 794 0 
L 794 531 
z
" transform="scale(0.015625)"/>
       </defs>
       <use xlink:href="#DejaVuSans-31" transform="translate(0 0.78125)"/>
       <use xlink:href="#DejaVuSans-30" transform="translate(63.623047 0.78125)"/>
      </g>
     </g>
    </g>
    <g id="xtick_4">
     <g id="line2d_7">
      <path d="M 306.111855 273.312 
L 306.111855 7.2 
" clip-path="url(#p2a3bf2b4cf)" style="fill: none; stroke: #e5e5e5; stroke-width: 0.8"/>
     </g>
     <g id="line2d_8">
      <path d="M 306.111855 273.312 
" style="fill: none; stroke: #000000; stroke-width: 3"/>
      <g>
       <use xlink:href="#mb802c5bde7" x="306.111855" y="273.312" style="stroke: #333333"/>
      </g>
     </g>
     <g id="text_4">
      <!-- $\mathdefault{15}$ -->
      <g style="fill: #4d4d4d" transform="translate(300.479855 284.948625) scale(0.088 -0.088)">
       <use xlink:href="#DejaVuSans-31" transform="translate(0 0.09375)"/>
       <use xlink:href="#DejaVuSans-35" transform="translate(63.623047 0.09375)"/>
      </g>
     </g>
    </g>
    <g id="xtick_5">
     <g id="line2d_9">
      <path d="M 386.193033 273.312 
L 386.193033 7.2 
" clip-path="url(#p2a3bf2b4cf)" style="fill: none; stroke: #e5e5e5; stroke-width: 0.8"/>
     </g>
     <g id="line2d_10">
      <path d="M 386.193033 273.312 
" style="fill: none; stroke: #000000; stroke-width: 3"/>
      <g>
       <use xlink:href="#mb802c5bde7" x="386.193033" y="273.312" style="stroke: #333333"/>
      </g>
     </g>
     <g id="text_5">
      <!-- $\mathdefault{20}$ -->
      <g style="fill: #4d4d4d" transform="translate(380.561033 284.948625) scale(0.088 -0.088)">
       <defs>
        <path id="DejaVuSans-32" d="M 1228 531 
L 3431 531 
L 3431 0 
L 469 0 
L 469 531 
Q 828 903 1448 1529 
Q 2069 2156 2228 2338 
Q 2531 2678 2651 2914 
Q 2772 3150 2772 3378 
Q 2772 3750 2511 3984 
Q 2250 4219 1831 4219 
Q 1534 4219 1204 4116 
Q 875 4013 500 3803 
L 500 4441 
Q 881 4594 1212 4672 
Q 1544 4750 1819 4750 
Q 2544 4750 2975 4387 
Q 3406 4025 3406 3419 
Q 3406 3131 3298 2873 
Q 3191 2616 2906 2266 
Q 2828 2175 2409 1742 
Q 1991 1309 1228 531 
z
" transform="scale(0.015625)"/>
       </defs>
       <use xlink:href="#DejaVuSans-32" transform="translate(0 0.78125)"/>
       <use xlink:href="#DejaVuSans-30" transform="translate(63.623047 0.78125)"/>
      </g>
     </g>
    </g>
    <g id="xtick_6">
     <g id="line2d_11">
      <path d="M 105.908909 273.312 
L 105.908909 7.2 
" clip-path="url(#p2a3bf2b4cf)" style="fill: none; stroke: #fafafa"/>
     </g>
    </g>
    <g id="xtick_7">
     <g id="line2d_12">
      <path d="M 185.990088 273.312 
L 185.990088 7.2 
" clip-path="url(#p2a3bf2b4cf)" style="fill: none; stroke: #fafafa"/>
     </g>
    </g>
    <g id="xtick_8">
     <g id="line2d_13">
      <path d="M 266.071266 273.312 
L 266.071266 7.2 
" clip-path="url(#p2a3bf2b4cf)" style="fill: none; stroke: #fafafa"/>
     </g>
    </g>
    <g id="xtick_9">
     <g id="line2d_14">
      <path d="M 346.152444 273.312 
L 346.152444 7.2 
" clip-path="url(#p2a3bf2b4cf)" style="fill: none; stroke: #fafafa"/>
     </g>
    </g>
    <g id="text_6">
     <!-- age -->
     <g transform="translate(212.189609 299.537031) scale(0.11 -0.11)">
      <defs>
       <path id="DejaVuSans-61" d="M 2194 1759 
Q 1497 1759 1228 1600 
Q 959 1441 959 1056 
Q 959 750 1161 570 
Q 1363 391 1709 391 
Q 2188 391 2477 730 
Q 2766 1069 2766 1631 
L 2766 1759 
L 2194 1759 
z
M 3341 1997 
L 3341 0 
L 2766 0 
L 2766 531 
Q 2569 213 2275 61 
Q 1981 -91 1556 -91 
Q 1019 -91 701 211 
Q 384 513 384 1019 
Q 384 1609 779 1909 
Q 1175 2209 1959 2209 
L 2766 2209 
L 2766 2266 
Q 2766 2663 2505 2880 
Q 2244 3097 1772 3097 
Q 1472 3097 1187 3025 
Q 903 2953 641 2809 
L 641 3341 
Q 956 3463 1253 3523 
Q 1550 3584 1831 3584 
Q 2591 3584 2966 3190 
Q 3341 2797 3341 1997 
z
" transform="scale(0.015625)"/>
       <path id="DejaVuSans-67" d="M 2906 1791 
Q 2906 2416 2648 2759 
Q 2391 3103 1925 3103 
Q 1463 3103 1205 2759 
Q 947 2416 947 1791 
Q 947 1169 1205 825 
Q 1463 481 1925 481 
Q 2391 481 2648 825 
Q 2906 1169 2906 1791 
z
M 3481 434 
Q 3481 -459 3084 -895 
Q 2688 -1331 1869 -1331 
Q 1566 -1331 1297 -1286 
Q 1028 -1241 775 -1147 
L 775 -588 
Q 1028 -725 1275 -790 
Q 1522 -856 1778 -856 
Q 2344 -856 2625 -561 
Q 2906 -266 2906 331 
L 2906 616 
Q 2728 306 2450 153 
Q 2172 0 1784 0 
Q 1141 0 747 490 
Q 353 981 353 1791 
Q 353 2603 747 3093 
Q 1141 3584 1784 3584 
Q 2172 3584 2450 3431 
Q 2728 3278 2906 2969 
L 2906 3500 
L 3481 3500 
L 3481 434 
z
" transform="scale(0.015625)"/>
       <path id="DejaVuSans-65" d="M 3597 1894 
L 3597 1613 
L 953 1613 
Q 991 1019 1311 708 
Q 1631 397 2203 397 
Q 2534 397 2845 478 
Q 3156 559 3463 722 
L 3463 178 
Q 3153 47 2828 -22 
Q 2503 -91 2169 -91 
Q 1331 -91 842 396 
Q 353 884 353 1716 
Q 353 2575 817 3079 
Q 1281 3584 2069 3584 
Q 2775 3584 3186 3129 
Q 3597 2675 3597 1894 
z
M 3022 2063 
Q 3016 2534 2758 2815 
Q 2500 3097 2075 3097 
Q 1594 3097 1305 2825 
Q 1016 2553 972 2059 
L 3022 2063 
z
" transform="scale(0.015625)"/>
      </defs>
      <use xlink:href="#DejaVuSans-61"/>
      <use xlink:href="#DejaVuSans-67" x="61.279297"/>
      <use xlink:href="#DejaVuSans-65" x="124.755859"/>
     </g>
    </g>
   </g>
   <g id="matplotlib.axis_2">
    <g id="ytick_1">
     <g id="line2d_15">
      <path d="M 49.635938 264.720062 
L 406.755938 264.720062 
" clip-path="url(#p2a3bf2b4cf)" style="fill: none; stroke: #e5e5e5; stroke-width: 0.8"/>
     </g>
     <g id="line2d_16">
      <path d="M 49.635938 264.720062 
" style="fill: none; stroke: #000000; stroke-width: 3"/>
      <defs>
       <path id="m71e1fff7ea" d="M 0 0 
L -2.75 0 
" style="stroke: #333333"/>
      </defs>
      <g>
       <use xlink:href="#m71e1fff7ea" x="49.635938" y="264.720062" style="stroke: #333333"/>
      </g>
     </g>
     <g id="text_7">
      <!-- $\mathdefault{1000}$ -->
      <g style="fill: #4d4d4d" transform="translate(22.245938 267.148312) scale(0.088 -0.088)">
       <use xlink:href="#DejaVuSans-31" transform="translate(0 0.78125)"/>
       <use xlink:href="#DejaVuSans-30" transform="translate(63.623047 0.78125)"/>
       <use xlink:href="#DejaVuSans-30" transform="translate(127.246094 0.78125)"/>
       <use xlink:href="#DejaVuSans-30" transform="translate(190.869141 0.78125)"/>
      </g>
     </g>
    </g>
    <g id="ytick_2">
     <g id="line2d_17">
      <path d="M 49.635938 201.619356 
L 406.755938 201.619356 
" clip-path="url(#p2a3bf2b4cf)" style="fill: none; stroke: #e5e5e5; stroke-width: 0.8"/>
     </g>
     <g id="line2d_18">
      <path d="M 49.635938 201.619356 
" style="fill: none; stroke: #000000; stroke-width: 3"/>
      <g>
       <use xlink:href="#m71e1fff7ea" x="49.635938" y="201.619356" style="stroke: #333333"/>
      </g>
     </g>
     <g id="text_8">
      <!-- $\mathdefault{2000}$ -->
      <g style="fill: #4d4d4d" transform="translate(22.245938 204.047606) scale(0.088 -0.088)">
       <use xlink:href="#DejaVuSans-32" transform="translate(0 0.78125)"/>
       <use xlink:href="#DejaVuSans-30" transform="translate(63.623047 0.78125)"/>
       <use xlink:href="#DejaVuSans-30" transform="translate(127.246094 0.78125)"/>
       <use xlink:href="#DejaVuSans-30" transform="translate(190.869141 0.78125)"/>
      </g>
     </g>
    </g>
    <g id="ytick_3">
     <g id="line2d_19">
      <path d="M 49.635938 138.518649 
L 406.755938 138.518649 
" clip-path="url(#p2a3bf2b4cf)" style="fill: none; stroke: #e5e5e5; stroke-width: 0.8"/>
     </g>
     <g id="line2d_20">
      <path d="M 49.635938 138.518649 
" style="fill: none; stroke: #000000; stroke-width: 3"/>
      <g>
       <use xlink:href="#m71e1fff7ea" x="49.635938" y="138.518649" style="stroke: #333333"/>
      </g>
     </g>
     <g id="text_9">
      <!-- $\mathdefault{3000}$ -->
      <g style="fill: #4d4d4d" transform="translate(22.245938 140.946899) scale(0.088 -0.088)">
       <defs>
        <path id="DejaVuSans-33" d="M 2597 2516 
Q 3050 2419 3304 2112 
Q 3559 1806 3559 1356 
Q 3559 666 3084 287 
Q 2609 -91 1734 -91 
Q 1441 -91 1130 -33 
Q 819 25 488 141 
L 488 750 
Q 750 597 1062 519 
Q 1375 441 1716 441 
Q 2309 441 2620 675 
Q 2931 909 2931 1356 
Q 2931 1769 2642 2001 
Q 2353 2234 1838 2234 
L 1294 2234 
L 1294 2753 
L 1863 2753 
Q 2328 2753 2575 2939 
Q 2822 3125 2822 3475 
Q 2822 3834 2567 4026 
Q 2313 4219 1838 4219 
Q 1578 4219 1281 4162 
Q 984 4106 628 3988 
L 628 4550 
Q 988 4650 1302 4700 
Q 1616 4750 1894 4750 
Q 2613 4750 3031 4423 
Q 3450 4097 3450 3541 
Q 3450 3153 3228 2886 
Q 3006 2619 2597 2516 
z
" transform="scale(0.015625)"/>
       </defs>
       <use xlink:href="#DejaVuSans-33" transform="translate(0 0.78125)"/>
       <use xlink:href="#DejaVuSans-30" transform="translate(63.623047 0.78125)"/>
       <use xlink:href="#DejaVuSans-30" transform="translate(127.246094 0.78125)"/>
       <use xlink:href="#DejaVuSans-30" transform="translate(190.869141 0.78125)"/>
      </g>
     </g>
    </g>
    <g id="ytick_4">
     <g id="line2d_21">
      <path d="M 49.635938 75.417943 
L 406.755938 75.417943 
" clip-path="url(#p2a3bf2b4cf)" style="fill: none; stroke: #e5e5e5; stroke-width: 0.8"/>
     </g>
     <g id="line2d_22">
      <path d="M 49.635938 75.417943 
" style="fill: none; stroke: #000000; stroke-width: 3"/>
      <g>
       <use xlink:href="#m71e1fff7ea" x="49.635938" y="75.417943" style="stroke: #333333"/>
      </g>
     </g>
     <g id="text_10">
      <!-- $\mathdefault{4000}$ -->
      <g style="fill: #4d4d4d" transform="translate(22.245938 77.846193) scale(0.088 -0.088)">
       <defs>
        <path id="DejaVuSans-34" d="M 2419 4116 
L 825 1625 
L 2419 1625 
L 2419 4116 
z
M 2253 4666 
L 3047 4666 
L 3047 1625 
L 3713 1625 
L 3713 1100 
L 3047 1100 
L 3047 0 
L 2419 0 
L 2419 1100 
L 313 1100 
L 313 1709 
L 2253 4666 
z
" transform="scale(0.015625)"/>
       </defs>
       <use xlink:href="#DejaVuSans-34" transform="translate(0 0.78125)"/>
       <use xlink:href="#DejaVuSans-30" transform="translate(63.623047 0.78125)"/>
       <use xlink:href="#DejaVuSans-30" transform="translate(127.246094 0.78125)"/>
       <use xlink:href="#DejaVuSans-30" transform="translate(190.869141 0.78125)"/>
      </g>
     </g>
    </g>
    <g id="ytick_5">
     <g id="line2d_23">
      <path d="M 49.635938 12.317236 
L 406.755938 12.317236 
" clip-path="url(#p2a3bf2b4cf)" style="fill: none; stroke: #e5e5e5; stroke-width: 0.8"/>
     </g>
     <g id="line2d_24">
      <path d="M 49.635938 12.317236 
" style="fill: none; stroke: #000000; stroke-width: 3"/>
      <g>
       <use xlink:href="#m71e1fff7ea" x="49.635938" y="12.317236" style="stroke: #333333"/>
      </g>
     </g>
     <g id="text_11">
      <!-- $\mathdefault{5000}$ -->
      <g style="fill: #4d4d4d" transform="translate(22.245938 14.745486) scale(0.088 -0.088)">
       <use xlink:href="#DejaVuSans-35" transform="translate(0 0.78125)"/>
       <use xlink:href="#DejaVuSans-30" transform="translate(63.623047 0.78125)"/>
       <use xlink:href="#DejaVuSans-30" transform="translate(127.246094 0.78125)"/>
       <use xlink:href="#DejaVuSans-30" transform="translate(190.869141 0.78125)"/>
      </g>
     </g>
    </g>
    <g id="ytick_6">
     <g id="line2d_25">
      <path d="M 49.635938 233.169709 
L 406.755938 233.169709 
" clip-path="url(#p2a3bf2b4cf)" style="fill: none; stroke: #fafafa"/>
     </g>
    </g>
    <g id="ytick_7">
     <g id="line2d_26">
      <path d="M 49.635938 170.069002 
L 406.755938 170.069002 
" clip-path="url(#p2a3bf2b4cf)" style="fill: none; stroke: #fafafa"/>
     </g>
    </g>
    <g id="ytick_8">
     <g id="line2d_27">
      <path d="M 49.635938 106.968296 
L 406.755938 106.968296 
" clip-path="url(#p2a3bf2b4cf)" style="fill: none; stroke: #fafafa"/>
     </g>
    </g>
    <g id="ytick_9">
     <g id="line2d_28">
      <path d="M 49.635938 43.86759 
L 406.755938 43.86759 
" clip-path="url(#p2a3bf2b4cf)" style="fill: none; stroke: #fafafa"/>
     </g>
    </g>
    <g id="text_12">
     <!-- sales -->
     <g transform="translate(15.558281 152.540969) rotate(-90) scale(0.11 -0.11)">
      <defs>
       <path id="DejaVuSans-73" d="M 2834 3397 
L 2834 2853 
Q 2591 2978 2328 3040 
Q 2066 3103 1784 3103 
Q 1356 3103 1142 2972 
Q 928 2841 928 2578 
Q 928 2378 1081 2264 
Q 1234 2150 1697 2047 
L 1894 2003 
Q 2506 1872 2764 1633 
Q 3022 1394 3022 966 
Q 3022 478 2636 193 
Q 2250 -91 1575 -91 
Q 1294 -91 989 -36 
Q 684 19 347 128 
L 347 722 
Q 666 556 975 473 
Q 1284 391 1588 391 
Q 1994 391 2212 530 
Q 2431 669 2431 922 
Q 2431 1156 2273 1281 
Q 2116 1406 1581 1522 
L 1381 1569 
Q 847 1681 609 1914 
Q 372 2147 372 2553 
Q 372 3047 722 3315 
Q 1072 3584 1716 3584 
Q 2034 3584 2315 3537 
Q 2597 3491 2834 3397 
z
" transform="scale(0.015625)"/>
       <path id="DejaVuSans-6c" d="M 603 4863 
L 1178 4863 
L 1178 0 
L 603 0 
L 603 4863 
z
" transform="scale(0.015625)"/>
      </defs>
      <use xlink:href="#DejaVuSans-73"/>
      <use xlink:href="#DejaVuSans-61" x="52.099609"/>
      <use xlink:href="#DejaVuSans-6c" x="113.378906"/>
      <use xlink:href="#DejaVuSans-65" x="141.162109"/>
      <use xlink:href="#DejaVuSans-73" x="202.685547"/>
     </g>
    </g>
   </g>
   <g id="PathCollection_1">
    <path d="M 66.136498 198.137726 
C 66.724073 198.137726 67.287662 197.90428 67.70314 197.488802 
C 68.118619 197.073323 68.352065 196.509734 68.352065 195.922159 
C 68.352065 195.334584 68.118619 194.770995 67.70314 194.355517 
C 67.287662 193.940038 66.724073 193.706592 66.136498 193.706592 
C 65.548922 193.706592 64.985334 193.940038 64.569855 194.355517 
C 64.154377 194.770995 63.92093 195.334584 63.92093 195.922159 
C 63.92093 196.509734 64.154377 197.073323 64.569855 197.488802 
C 64.985334 197.90428 65.548922 198.137726 66.136498 198.137726 
z
" clip-path="url(#p2a3bf2b4cf)" style="fill: #000080; stroke: #000080; stroke-width: 0.886227"/>
    <path d="M 66.828261 186.523934 
C 67.415837 186.523934 67.979425 186.290488 68.394904 185.875009 
C 68.810382 185.459531 69.043829 184.895942 69.043829 184.308367 
C 69.043829 183.720791 68.810382 183.157203 68.394904 182.741724 
C 67.979425 182.326246 67.415837 182.092799 66.828261 182.092799 
C 66.240686 182.092799 65.677097 182.326246 65.261619 182.741724 
C 64.84614 183.157203 64.612694 183.720791 64.612694 184.308367 
C 64.612694 184.895942 64.84614 185.459531 65.261619 185.875009 
C 65.677097 186.290488 66.240686 186.523934 66.828261 186.523934 
z
" clip-path="url(#p2a3bf2b4cf)" style="fill: #000080; stroke: #000080; stroke-width: 0.886227"/>
    <path d="M 67.556635 200.154361 
C 68.14421 200.154361 68.707799 199.920915 69.123278 199.505436 
C 69.538756 199.089958 69.772202 198.526369 69.772202 197.938794 
C 69.772202 197.351218 69.538756 196.787629 69.123278 196.372151 
C 68.707799 195.956672 68.14421 195.723226 67.556635 195.723226 
C 66.96906 195.723226 66.405471 195.956672 65.989992 196.372151 
C 65.574514 196.787629 65.341068 197.351218 65.341068 197.938794 
C 65.341068 198.526369 65.574514 199.089958 65.989992 199.505436 
C 66.405471 199.920915 66.96906 200.154361 67.556635 200.154361 
z
" clip-path="url(#p2a3bf2b4cf)" style="fill: #000080; stroke: #000080; stroke-width: 0.886227"/>
    <path d="M 68.239133 171.362469 
C 68.826708 171.362469 69.390297 171.129022 69.805775 170.713544 
C 70.221254 170.298066 70.4547 169.734477 70.4547 169.146901 
C 70.4547 168.559326 70.221254 167.995737 69.805775 167.580259 
C 69.390297 167.16478 68.826708 166.931334 68.239133 166.931334 
C 67.651557 166.931334 67.087969 167.16478 66.67249 167.580259 
C 66.257012 167.995737 66.023565 168.559326 66.023565 169.146901 
C 66.023565 169.734477 66.257012 170.298066 66.67249 170.713544 
C 67.087969 171.129022 67.651557 171.362469 68.239133 171.362469 
z
" clip-path="url(#p2a3bf2b4cf)" style="fill: #000080; stroke: #000080; stroke-width: 0.886227"/>
    <path d="M 69.008957 177.08817 
C 69.596532 177.08817 70.160121 176.854724 70.575599 176.439245 
C 70.991078 176.023767 71.224524 175.460178 71.224524 174.872603 
C 71.224524 174.285027 70.991078 173.721439 70.575599 173.30596 
C 70.160121 172.890482 69.596532 172.657035 69.008957 172.657035 
C 68.421381 172.657035 67.857793 172.890482 67.442314 173.30596 
C 67.026836 173.721439 66.793389 174.285027 66.793389 174.872603 
C 66.793389 175.460178 67.026836 176.023767 67.442314 176.439245 
C 67.857793 176.854724 68.421381 177.08817 69.008957 177.08817 
z
" clip-path="url(#p2a3bf2b4cf)" style="fill: #000080; stroke: #000080; stroke-width: 0.886227"/>
    <path d="M 69.944345 172.479531 
C 70.531921 172.479531 71.09551 172.246085 71.510988 171.830606 
C 71.926467 171.415128 72.159913 170.851539 72.159913 170.263964 
C 72.159913 169.676388 71.926467 169.1128 71.510988 168.697321 
C 71.09551 168.281843 70.531921 168.048396 69.944345 168.048396 
C 69.35677 168.048396 68.793181 168.281843 68.377703 168.697321 
C 67.962224 169.1128 67.728778 169.676388 67.728778 170.263964 
C 67.728778 170.851539 67.962224 171.415128 68.377703 171.830606 
C 68.793181 172.246085 69.35677 172.479531 69.944345 172.479531 
z
" clip-path="url(#p2a3bf2b4cf)" style="fill: #000080; stroke: #000080; stroke-width: 0.886227"/>
    <path d="M 70.844564 152.230883 
C 71.432139 152.230883 71.995728 151.997437 72.411206 151.581959 
C 72.826685 151.16648 73.060131 150.602891 73.060131 150.015316 
C 73.060131 149.427741 72.826685 148.864152 72.411206 148.448673 
C 71.995728 148.033195 71.432139 147.799749 70.844564 147.799749 
C 70.256988 147.799749 69.6934 148.033195 69.277921 148.448673 
C 68.862443 148.864152 68.628996 149.427741 68.628996 150.015316 
C 68.628996 150.602891 68.862443 151.16648 69.277921 151.581959 
C 69.6934 151.997437 70.256988 152.230883 70.844564 152.230883 
z
" clip-path="url(#p2a3bf2b4cf)" style="fill: #000080; stroke: #000080; stroke-width: 0.886227"/>
    <path d="M 71.771357 192.523196 
C 72.358933 192.523196 72.922521 192.28975 73.338 191.874271 
C 73.753478 191.458793 73.986925 190.895204 73.986925 190.307628 
C 73.986925 189.720053 73.753478 189.156464 73.338 188.740986 
C 72.922521 188.325507 72.358933 188.092061 71.771357 188.092061 
C 71.183782 188.092061 70.620193 188.325507 70.204715 188.740986 
C 69.789236 189.156464 69.55579 189.720053 69.55579 190.307628 
C 69.55579 190.895204 69.789236 191.458793 70.204715 191.874271 
C 70.620193 192.28975 71.183782 192.523196 71.771357 192.523196 
z
" clip-path="url(#p2a3bf2b4cf)" style="fill: #000080; stroke: #000080; stroke-width: 0.886227"/>
    <path d="M 72.889658 179.040395 
C 73.477234 179.040395 74.040822 178.806949 74.456301 178.391471 
C 74.871779 177.975992 75.105226 177.412403 75.105226 176.824828 
C 75.105226 176.237253 74.871779 175.673664 74.456301 175.258185 
C 74.040822 174.842707 73.477234 174.609261 72.889658 174.609261 
C 72.302083 174.609261 71.738494 174.842707 71.323016 175.258185 
C 70.907537 175.673664 70.674091 176.237253 70.674091 176.824828 
C 70.674091 177.412403 70.907537 177.975992 71.323016 178.391471 
C 71.738494 178.806949 72.302083 179.040395 72.889658 179.040395 
z
" clip-path="url(#p2a3bf2b4cf)" style="fill: #000080; stroke: #000080; stroke-width: 0.886227"/>
    <path d="M 74.136777 173.011446 
C 74.724352 173.011446 75.287941 172.778 75.703419 172.362521 
C 76.118898 171.947043 76.352344 171.383454 76.352344 170.795879 
C 76.352344 170.208303 76.118898 169.644715 75.703419 169.229236 
C 75.287941 168.813758 74.724352 168.580311 74.136777 168.580311 
C 73.549201 168.580311 72.985612 168.813758 72.570134 169.229236 
C 72.154655 169.644715 71.921209 170.208303 71.921209 170.795879 
C 71.921209 171.383454 72.154655 171.947043 72.570134 172.362521 
C 72.985612 172.778 73.549201 173.011446 74.136777 173.011446 
z
" clip-path="url(#p2a3bf2b4cf)" style="fill: #000080; stroke: #000080; stroke-width: 0.886227"/>
    <path d="M 75.345264 161.225398 
C 75.93284 161.225398 76.496428 160.991952 76.911907 160.576474 
C 77.327385 160.160995 77.560832 159.597406 77.560832 159.009831 
C 77.560832 158.422256 77.327385 157.858667 76.911907 157.443188 
C 76.496428 157.02771 75.93284 156.794264 75.345264 156.794264 
C 74.757689 156.794264 74.1941 157.02771 73.778622 157.443188 
C 73.363143 157.858667 73.129697 158.422256 73.129697 159.009831 
C 73.129697 159.597406 73.363143 160.160995 73.778622 160.576474 
C 74.1941 160.991952 74.757689 161.225398 75.345264 161.225398 
z
" clip-path="url(#p2a3bf2b4cf)" style="fill: #000080; stroke: #000080; stroke-width: 0.886227"/>
    <path d="M 76.858135 148.000505 
C 77.445711 148.000505 78.009299 147.767059 78.424778 147.351581 
C 78.840256 146.936102 79.073703 146.372513 79.073703 145.784938 
C 79.073703 145.197363 78.840256 144.633774 78.424778 144.218295 
C 78.009299 143.802817 77.445711 143.569371 76.858135 143.569371 
C 76.27056 143.569371 75.706971 143.802817 75.291493 144.218295 
C 74.876014 144.633774 74.642568 145.197363 74.642568 145.784938 
C 74.642568 146.372513 74.876014 146.936102 75.291493 147.351581 
C 75.706971 147.767059 76.27056 148.000505 76.858135 148.000505 
z
" clip-path="url(#p2a3bf2b4cf)" style="fill: #000080; stroke: #000080; stroke-width: 0.886227"/>
    <path d="M 78.583359 148.920984 
C 79.170935 148.920984 79.734523 148.687538 80.150002 148.272059 
C 80.56548 147.856581 80.798927 147.292992 80.798927 146.705417 
C 80.798927 146.117841 80.56548 145.554253 80.150002 145.138774 
C 79.734523 144.723296 79.170935 144.489849 78.583359 144.489849 
C 77.995784 144.489849 77.432195 144.723296 77.016717 145.138774 
C 76.601238 145.554253 76.367792 146.117841 76.367792 146.705417 
C 76.367792 147.292992 76.601238 147.856581 77.016717 148.272059 
C 77.432195 148.687538 77.995784 148.920984 78.583359 148.920984 
z
" clip-path="url(#p2a3bf2b4cf)" style="fill: #000080; stroke: #000080; stroke-width: 0.886227"/>
    <path d="M 80.347134 136.258985 
C 80.934709 136.258985 81.498298 136.025539 81.913777 135.610061 
C 82.329255 135.194582 82.562701 134.630993 82.562701 134.043418 
C 82.562701 133.455843 82.329255 132.892254 81.913777 132.476775 
C 81.498298 132.061297 80.934709 131.827851 80.347134 131.827851 
C 79.759559 131.827851 79.19597 132.061297 78.780491 132.476775 
C 78.365013 132.892254 78.131567 133.455843 78.131567 134.043418 
C 78.131567 134.630993 78.365013 135.194582 78.780491 135.610061 
C 79.19597 136.025539 79.759559 136.258985 80.347134 136.258985 
z
" clip-path="url(#p2a3bf2b4cf)" style="fill: #000080; stroke: #000080; stroke-width: 0.886227"/>
    <path d="M 82.415027 140.62567 
C 83.002602 140.62567 83.566191 140.392224 83.98167 139.976745 
C 84.397148 139.561267 84.630594 138.997678 84.630594 138.410103 
C 84.630594 137.822527 84.397148 137.258938 83.98167 136.84346 
C 83.566191 136.427981 83.002602 136.194535 82.415027 136.194535 
C 81.827452 136.194535 81.263863 136.427981 80.848384 136.84346 
C 80.432906 137.258938 80.19946 137.822527 80.19946 138.410103 
C 80.19946 138.997678 80.432906 139.561267 80.848384 139.976745 
C 81.263863 140.392224 81.827452 140.62567 82.415027 140.62567 
z
" clip-path="url(#p2a3bf2b4cf)" style="fill: #000080; stroke: #000080; stroke-width: 0.886227"/>
    <path d="M 85.20152 138.497357 
C 85.789096 138.497357 86.352685 138.263911 86.768163 137.848432 
C 87.183641 137.432954 87.417088 136.869365 87.417088 136.28179 
C 87.417088 135.694214 87.183641 135.130625 86.768163 134.715147 
C 86.352685 134.299668 85.789096 134.066222 85.20152 134.066222 
C 84.613945 134.066222 84.050356 134.299668 83.634878 134.715147 
C 83.219399 135.130625 82.985953 135.694214 82.985953 136.28179 
C 82.985953 136.869365 83.219399 137.432954 83.634878 137.848432 
C 84.050356 138.263911 84.613945 138.497357 85.20152 138.497357 
z
" clip-path="url(#p2a3bf2b4cf)" style="fill: #000080; stroke: #000080; stroke-width: 0.886227"/>
    <path d="M 88.79601 126.030266 
C 89.383585 126.030266 89.947174 125.79682 90.362652 125.381342 
C 90.778131 124.965863 91.011577 124.402274 91.011577 123.814699 
C 91.011577 123.227124 90.778131 122.663535 90.362652 122.248056 
C 89.947174 121.832578 89.383585 121.599132 88.79601 121.599132 
C 88.208434 121.599132 87.644845 121.832578 87.229367 122.248056 
C 86.813889 122.663535 86.580442 123.227124 86.580442 123.814699 
C 86.580442 124.402274 86.813889 124.965863 87.229367 125.381342 
C 87.644845 125.79682 88.208434 126.030266 88.79601 126.030266 
z
" clip-path="url(#p2a3bf2b4cf)" style="fill: #000080; stroke: #000080; stroke-width: 0.886227"/>
    <path d="M 93.759319 131.292637 
C 94.346894 131.292637 94.910483 131.059191 95.325962 130.643712 
C 95.74144 130.228234 95.974886 129.664645 95.974886 129.07707 
C 95.974886 128.489494 95.74144 127.925905 95.325962 127.510427 
C 94.910483 127.094948 94.346894 126.861502 93.759319 126.861502 
C 93.171744 126.861502 92.608155 127.094948 92.192676 127.510427 
C 91.777198 127.925905 91.543752 128.489494 91.543752 129.07707 
C 91.543752 129.664645 91.777198 130.228234 92.192676 130.643712 
C 92.608155 131.059191 93.171744 131.292637 93.759319 131.292637 
z
" clip-path="url(#p2a3bf2b4cf)" style="fill: #000080; stroke: #000080; stroke-width: 0.886227"/>
    <path d="M 101.389441 151.058807 
C 101.977016 151.058807 102.540605 150.82536 102.956084 150.409882 
C 103.371562 149.994403 103.605008 149.430815 103.605008 148.843239 
C 103.605008 148.255664 103.371562 147.692075 102.956084 147.276597 
C 102.540605 146.861118 101.977016 146.627672 101.389441 146.627672 
C 100.801866 146.627672 100.238277 146.861118 99.822798 147.276597 
C 99.40732 147.692075 99.173874 148.255664 99.173874 148.843239 
C 99.173874 149.430815 99.40732 149.994403 99.822798 150.409882 
C 100.238277 150.82536 100.801866 151.058807 101.389441 151.058807 
z
" clip-path="url(#p2a3bf2b4cf)" style="fill: #000080; stroke: #000080; stroke-width: 0.886227"/>
    <path d="M 111.862841 134.773951 
C 112.450416 134.773951 113.014005 134.540505 113.429484 134.125027 
C 113.844962 133.709548 114.078408 133.145959 114.078408 132.558384 
C 114.078408 131.970809 113.844962 131.40722 113.429484 130.991741 
C 113.014005 130.576263 112.450416 130.342817 111.862841 130.342817 
C 111.275266 130.342817 110.711677 130.576263 110.296198 130.991741 
C 109.88072 131.40722 109.647274 131.970809 109.647274 132.558384 
C 109.647274 133.145959 109.88072 133.709548 110.296198 134.125027 
C 110.711677 134.540505 111.275266 134.773951 111.862841 134.773951 
z
" clip-path="url(#p2a3bf2b4cf)" style="fill: #000080; stroke: #000080; stroke-width: 0.886227"/>
    <path d="M 144.342364 196.853678 
C 144.92994 196.853678 145.493529 196.620231 145.909007 196.204753 
C 146.324486 195.789274 146.557932 195.225686 146.557932 194.63811 
C 146.557932 194.050535 146.324486 193.486946 145.909007 193.071468 
C 145.493529 192.655989 144.92994 192.422543 144.342364 192.422543 
C 143.754789 192.422543 143.1912 192.655989 142.775722 193.071468 
C 142.360243 193.486946 142.126797 194.050535 142.126797 194.63811 
C 142.126797 195.225686 142.360243 195.789274 142.775722 196.204753 
C 143.1912 196.620231 143.754789 196.853678 144.342364 196.853678 
z
" clip-path="url(#p2a3bf2b4cf)" style="fill: #000080; stroke: #000080; stroke-width: 0.886227"/>
   </g>
   <g id="LineCollection_1">
    <path d="M 66.536904 220.990876 
" clip-path="url(#p2a3bf2b4cf)" style="fill: none; stroke: #000080; stroke-width: 0.886227"/>
    <path d="M 66.427855 197.792343 
L 67.228667 197.792343 
" clip-path="url(#p2a3bf2b4cf)" style="fill: none; stroke: #000080; stroke-width: 0.886227"/>
    <path d="M 67.156229 201.051631 
L 67.957041 201.051631 
" clip-path="url(#p2a3bf2b4cf)" style="fill: none; stroke: #000080; stroke-width: 0.886227"/>
    <path d="M 67.838727 195.304176 
L 68.639539 195.304176 
" clip-path="url(#p2a3bf2b4cf)" style="fill: none; stroke: #000080; stroke-width: 0.886227"/>
    <path d="M 68.608551 188.44132 
L 69.409363 188.44132 
" clip-path="url(#p2a3bf2b4cf)" style="fill: none; stroke: #000080; stroke-width: 0.886227"/>
    <path d="M 69.543939 184.0768 
L 70.344751 184.0768 
" clip-path="url(#p2a3bf2b4cf)" style="fill: none; stroke: #000080; stroke-width: 0.886227"/>
    <path d="M 70.444158 183.096369 
L 71.24497 183.096369 
" clip-path="url(#p2a3bf2b4cf)" style="fill: none; stroke: #000080; stroke-width: 0.886227"/>
    <path d="M 71.370951 194.200579 
L 72.171763 194.200579 
" clip-path="url(#p2a3bf2b4cf)" style="fill: none; stroke: #000080; stroke-width: 0.886227"/>
    <path d="M 72.489252 197.790535 
L 73.290064 197.790535 
" clip-path="url(#p2a3bf2b4cf)" style="fill: none; stroke: #000080; stroke-width: 0.886227"/>
    <path d="M 73.736371 188.375081 
L 74.537182 188.375081 
" clip-path="url(#p2a3bf2b4cf)" style="fill: none; stroke: #000080; stroke-width: 0.886227"/>
    <path d="M 74.944858 179.4683 
L 75.74567 179.4683 
" clip-path="url(#p2a3bf2b4cf)" style="fill: none; stroke: #000080; stroke-width: 0.886227"/>
    <path d="M 76.457729 174.213566 
L 77.258541 174.213566 
" clip-path="url(#p2a3bf2b4cf)" style="fill: none; stroke: #000080; stroke-width: 0.886227"/>
    <path d="M 78.182953 163.749995 
L 78.983765 163.749995 
" clip-path="url(#p2a3bf2b4cf)" style="fill: none; stroke: #000080; stroke-width: 0.886227"/>
    <path d="M 79.946728 154.781862 
L 80.74754 154.781862 
" clip-path="url(#p2a3bf2b4cf)" style="fill: none; stroke: #000080; stroke-width: 0.886227"/>
    <path d="M 82.014621 164.029115 
L 82.815433 164.029115 
" clip-path="url(#p2a3bf2b4cf)" style="fill: none; stroke: #000080; stroke-width: 0.886227"/>
    <path d="M 84.801114 158.388261 
L 85.601926 158.388261 
" clip-path="url(#p2a3bf2b4cf)" style="fill: none; stroke: #000080; stroke-width: 0.886227"/>
    <path d="M 88.395604 158.694538 
L 89.196416 158.694538 
" clip-path="url(#p2a3bf2b4cf)" style="fill: none; stroke: #000080; stroke-width: 0.886227"/>
    <path d="M 93.358913 149.940431 
L 94.159725 149.940431 
" clip-path="url(#p2a3bf2b4cf)" style="fill: none; stroke: #000080; stroke-width: 0.886227"/>
    <path d="M 100.989035 171.957152 
L 101.789847 171.957152 
" clip-path="url(#p2a3bf2b4cf)" style="fill: none; stroke: #000080; stroke-width: 0.886227"/>
    <path d="M 111.462435 168.694247 
L 112.263247 168.694247 
" clip-path="url(#p2a3bf2b4cf)" style="fill: none; stroke: #000080; stroke-width: 0.886227"/>
    <path d="M 143.941959 233.015973 
L 144.74277 233.015973 
" clip-path="url(#p2a3bf2b4cf)" style="fill: none; stroke: #000080; stroke-width: 0.886227"/>
    <path d="M 66.536904 186.401692 
" clip-path="url(#p2a3bf2b4cf)" style="fill: none; stroke: #000080; stroke-width: 0.886227"/>
    <path d="M 66.427855 167.941926 
L 67.228667 167.941926 
" clip-path="url(#p2a3bf2b4cf)" style="fill: none; stroke: #000080; stroke-width: 0.886227"/>
    <path d="M 67.156229 174.726367 
L 67.957041 174.726367 
" clip-path="url(#p2a3bf2b4cf)" style="fill: none; stroke: #000080; stroke-width: 0.886227"/>
    <path d="M 67.838727 164.585276 
L 68.639539 164.585276 
" clip-path="url(#p2a3bf2b4cf)" style="fill: none; stroke: #000080; stroke-width: 0.886227"/>
    <path d="M 68.608551 157.543257 
L 69.409363 157.543257 
" clip-path="url(#p2a3bf2b4cf)" style="fill: none; stroke: #000080; stroke-width: 0.886227"/>
    <path d="M 69.543939 150.103546 
L 70.344751 150.103546 
" clip-path="url(#p2a3bf2b4cf)" style="fill: none; stroke: #000080; stroke-width: 0.886227"/>
    <path d="M 70.444158 140.563833 
L 71.24497 140.563833 
" clip-path="url(#p2a3bf2b4cf)" style="fill: none; stroke: #000080; stroke-width: 0.886227"/>
    <path d="M 71.370951 161.66957 
L 72.171763 161.66957 
" clip-path="url(#p2a3bf2b4cf)" style="fill: none; stroke: #000080; stroke-width: 0.886227"/>
    <path d="M 72.489252 162.07079 
L 73.290064 162.07079 
" clip-path="url(#p2a3bf2b4cf)" style="fill: none; stroke: #000080; stroke-width: 0.886227"/>
    <path d="M 73.736371 151.946977 
L 74.537182 151.946977 
" clip-path="url(#p2a3bf2b4cf)" style="fill: none; stroke: #000080; stroke-width: 0.886227"/>
    <path d="M 74.944858 139.166542 
L 75.74567 139.166542 
" clip-path="url(#p2a3bf2b4cf)" style="fill: none; stroke: #000080; stroke-width: 0.886227"/>
    <path d="M 76.457729 133.420251 
L 77.258541 133.420251 
" clip-path="url(#p2a3bf2b4cf)" style="fill: none; stroke: #000080; stroke-width: 0.886227"/>
    <path d="M 78.182953 121.433919 
L 78.983765 121.433919 
" clip-path="url(#p2a3bf2b4cf)" style="fill: none; stroke: #000080; stroke-width: 0.886227"/>
    <path d="M 79.946728 108.942786 
L 80.74754 108.942786 
" clip-path="url(#p2a3bf2b4cf)" style="fill: none; stroke: #000080; stroke-width: 0.886227"/>
    <path d="M 82.014621 110.551557 
L 82.815433 110.551557 
" clip-path="url(#p2a3bf2b4cf)" style="fill: none; stroke: #000080; stroke-width: 0.886227"/>
    <path d="M 84.801114 104.764323 
L 85.601926 104.764323 
" clip-path="url(#p2a3bf2b4cf)" style="fill: none; stroke: #000080; stroke-width: 0.886227"/>
    <path d="M 88.395604 109.906637 
L 89.196416 109.906637 
" clip-path="url(#p2a3bf2b4cf)" style="fill: none; stroke: #000080; stroke-width: 0.886227"/>
    <path d="M 93.358913 96.195068 
L 94.159725 96.195068 
" clip-path="url(#p2a3bf2b4cf)" style="fill: none; stroke: #000080; stroke-width: 0.886227"/>
    <path d="M 100.989035 119.01817 
L 101.789847 119.01817 
" clip-path="url(#p2a3bf2b4cf)" style="fill: none; stroke: #000080; stroke-width: 0.886227"/>
    <path d="M 111.462435 111.750185 
L 112.263247 111.750185 
" clip-path="url(#p2a3bf2b4cf)" style="fill: none; stroke: #000080; stroke-width: 0.886227"/>
    <path d="M 143.941959 151.337558 
L 144.74277 151.337558 
" clip-path="url(#p2a3bf2b4cf)" style="fill: none; stroke: #000080; stroke-width: 0.886227"/>
    <path d="M 66.136498 186.401692 
L 66.136498 220.990876 
" clip-path="url(#p2a3bf2b4cf)" style="fill: none; stroke: #000080; stroke-width: 0.886227"/>
    <path d="M 66.828261 167.941926 
L 66.828261 197.792343 
" clip-path="url(#p2a3bf2b4cf)" style="fill: none; stroke: #000080; stroke-width: 0.886227"/>
    <path d="M 67.556635 174.726367 
L 67.556635 201.051631 
" clip-path="url(#p2a3bf2b4cf)" style="fill: none; stroke: #000080; stroke-width: 0.886227"/>
    <path d="M 68.239133 164.585276 
L 68.239133 195.304176 
" clip-path="url(#p2a3bf2b4cf)" style="fill: none; stroke: #000080; stroke-width: 0.886227"/>
    <path d="M 69.008957 157.543257 
L 69.008957 188.44132 
" clip-path="url(#p2a3bf2b4cf)" style="fill: none; stroke: #000080; stroke-width: 0.886227"/>
    <path d="M 69.944345 150.103546 
L 69.944345 184.0768 
" clip-path="url(#p2a3bf2b4cf)" style="fill: none; stroke: #000080; stroke-width: 0.886227"/>
    <path d="M 70.844564 140.563833 
L 70.844564 183.096369 
" clip-path="url(#p2a3bf2b4cf)" style="fill: none; stroke: #000080; stroke-width: 0.886227"/>
    <path d="M 71.771357 161.66957 
L 71.771357 194.200579 
" clip-path="url(#p2a3bf2b4cf)" style="fill: none; stroke: #000080; stroke-width: 0.886227"/>
    <path d="M 72.889658 162.07079 
L 72.889658 197.790535 
" clip-path="url(#p2a3bf2b4cf)" style="fill: none; stroke: #000080; stroke-width: 0.886227"/>
    <path d="M 74.136777 151.946977 
L 74.136777 188.375081 
" clip-path="url(#p2a3bf2b4cf)" style="fill: none; stroke: #000080; stroke-width: 0.886227"/>
    <path d="M 75.345264 139.166542 
L 75.345264 179.4683 
" clip-path="url(#p2a3bf2b4cf)" style="fill: none; stroke: #000080; stroke-width: 0.886227"/>
    <path d="M 76.858135 133.420251 
L 76.858135 174.213566 
" clip-path="url(#p2a3bf2b4cf)" style="fill: none; stroke: #000080; stroke-width: 0.886227"/>
    <path d="M 78.583359 121.433919 
L 78.583359 163.749995 
" clip-path="url(#p2a3bf2b4cf)" style="fill: none; stroke: #000080; stroke-width: 0.886227"/>
    <path d="M 80.347134 108.942786 
L 80.347134 154.781862 
" clip-path="url(#p2a3bf2b4cf)" style="fill: none; stroke: #000080; stroke-width: 0.886227"/>
    <path d="M 82.415027 110.551557 
L 82.415027 164.029115 
" clip-path="url(#p2a3bf2b4cf)" style="fill: none; stroke: #000080; stroke-width: 0.886227"/>
    <path d="M 85.20152 104.764323 
L 85.20152 158.388261 
" clip-path="url(#p2a3bf2b4cf)" style="fill: none; stroke: #000080; stroke-width: 0.886227"/>
    <path d="M 88.79601 109.906637 
L 88.79601 158.694538 
" clip-path="url(#p2a3bf2b4cf)" style="fill: none; stroke: #000080; stroke-width: 0.886227"/>
    <path d="M 93.759319 96.195068 
L 93.759319 149.940431 
" clip-path="url(#p2a3bf2b4cf)" style="fill: none; stroke: #000080; stroke-width: 0.886227"/>
    <path d="M 101.389441 119.01817 
L 101.389441 171.957152 
" clip-path="url(#p2a3bf2b4cf)" style="fill: none; stroke: #000080; stroke-width: 0.886227"/>
    <path d="M 111.862841 111.750185 
L 111.862841 168.694247 
" clip-path="url(#p2a3bf2b4cf)" style="fill: none; stroke: #000080; stroke-width: 0.886227"/>
    <path d="M 144.342364 151.337558 
L 144.342364 233.015973 
" clip-path="url(#p2a3bf2b4cf)" style="fill: none; stroke: #000080; stroke-width: 0.886227"/>
   </g>
   <g id="PathCollection_2">
    <path d="M 66.165182 195.324273 
L 63.949615 199.755407 
L 68.38075 199.755407 
z
" clip-path="url(#p2a3bf2b4cf)" style="fill: #800000; stroke: #800000; stroke-width: 0.886227"/>
    <path d="M 66.75103 171.485989 
L 64.535463 175.917124 
L 68.966598 175.917124 
z
" clip-path="url(#p2a3bf2b4cf)" style="fill: #800000; stroke: #800000; stroke-width: 0.886227"/>
    <path d="M 67.426847 165.969229 
L 65.21128 170.400363 
L 69.642415 170.400363 
z
" clip-path="url(#p2a3bf2b4cf)" style="fill: #800000; stroke: #800000; stroke-width: 0.886227"/>
    <path d="M 68.187072 160.563897 
L 65.971505 164.995031 
L 70.40264 164.995031 
z
" clip-path="url(#p2a3bf2b4cf)" style="fill: #800000; stroke: #800000; stroke-width: 0.886227"/>
    <path d="M 69.04576 137.087571 
L 66.830193 141.518705 
L 71.261327 141.518705 
z
" clip-path="url(#p2a3bf2b4cf)" style="fill: #800000; stroke: #800000; stroke-width: 0.886227"/>
    <path d="M 70.008272 114.973358 
L 67.792705 119.404493 
L 72.223839 119.404493 
z
" clip-path="url(#p2a3bf2b4cf)" style="fill: #800000; stroke: #800000; stroke-width: 0.886227"/>
    <path d="M 71.004152 106.132856 
L 68.788585 110.563991 
L 73.21972 110.563991 
z
" clip-path="url(#p2a3bf2b4cf)" style="fill: #800000; stroke: #800000; stroke-width: 0.886227"/>
    <path d="M 72.128759 100.388195 
L 69.913192 104.81933 
L 74.344326 104.81933 
z
" clip-path="url(#p2a3bf2b4cf)" style="fill: #800000; stroke: #800000; stroke-width: 0.886227"/>
    <path d="M 73.313297 77.440405 
L 71.09773 81.871539 
L 75.528865 81.871539 
z
" clip-path="url(#p2a3bf2b4cf)" style="fill: #800000; stroke: #800000; stroke-width: 0.886227"/>
    <path d="M 74.670847 71.299496 
L 72.455279 75.730631 
L 76.886414 75.730631 
z
" clip-path="url(#p2a3bf2b4cf)" style="fill: #800000; stroke: #800000; stroke-width: 0.886227"/>
    <path d="M 76.283752 72.9401 
L 74.068185 77.371235 
L 78.499319 77.371235 
z
" clip-path="url(#p2a3bf2b4cf)" style="fill: #800000; stroke: #800000; stroke-width: 0.886227"/>
    <path d="M 77.948164 51.631014 
L 75.732597 56.062149 
L 80.163732 56.062149 
z
" clip-path="url(#p2a3bf2b4cf)" style="fill: #800000; stroke: #800000; stroke-width: 0.886227"/>
    <path d="M 79.941965 68.751149 
L 77.726398 73.182283 
L 82.157532 73.182283 
z
" clip-path="url(#p2a3bf2b4cf)" style="fill: #800000; stroke: #800000; stroke-width: 0.886227"/>
    <path d="M 82.23126 73.933111 
L 80.015692 78.364245 
L 84.446827 78.364245 
z
" clip-path="url(#p2a3bf2b4cf)" style="fill: #800000; stroke: #800000; stroke-width: 0.886227"/>
    <path d="M 85.206755 83.551894 
L 82.991187 87.983028 
L 87.422322 87.983028 
z
" clip-path="url(#p2a3bf2b4cf)" style="fill: #800000; stroke: #800000; stroke-width: 0.886227"/>
    <path d="M 88.652005 123.322981 
L 86.436438 127.754115 
L 90.867572 127.754115 
z
" clip-path="url(#p2a3bf2b4cf)" style="fill: #800000; stroke: #800000; stroke-width: 0.886227"/>
    <path d="M 93.354939 200.47753 
L 91.139372 204.908665 
L 95.570507 204.908665 
z
" clip-path="url(#p2a3bf2b4cf)" style="fill: #800000; stroke: #800000; stroke-width: 0.886227"/>
    <path d="M 100.028074 198.33453 
L 97.812507 202.765665 
L 102.243641 202.765665 
z
" clip-path="url(#p2a3bf2b4cf)" style="fill: #800000; stroke: #800000; stroke-width: 0.886227"/>
    <path d="M 110.299849 190.366093 
L 108.084282 194.797228 
L 112.515417 194.797228 
z
" clip-path="url(#p2a3bf2b4cf)" style="fill: #800000; stroke: #800000; stroke-width: 0.886227"/>
    <path d="M 145.588643 214.832401 
L 143.373076 219.263536 
L 147.80421 219.263536 
z
" clip-path="url(#p2a3bf2b4cf)" style="fill: #800000; stroke: #800000; stroke-width: 0.886227"/>
   </g>
   <g id="LineCollection_2">
    <path d="M 66.565588 218.655375 
" clip-path="url(#p2a3bf2b4cf)" style="fill: none; stroke: #800000; stroke-width: 0.886227"/>
    <path d="M 66.350624 189.749495 
L 67.151436 189.749495 
" clip-path="url(#p2a3bf2b4cf)" style="fill: none; stroke: #800000; stroke-width: 0.886227"/>
    <path d="M 67.026442 183.876534 
L 67.827253 183.876534 
" clip-path="url(#p2a3bf2b4cf)" style="fill: none; stroke: #800000; stroke-width: 0.886227"/>
    <path d="M 67.786666 181.081607 
L 68.587478 181.081607 
" clip-path="url(#p2a3bf2b4cf)" style="fill: none; stroke: #800000; stroke-width: 0.886227"/>
    <path d="M 68.645354 168.396753 
L 69.446166 168.396753 
" clip-path="url(#p2a3bf2b4cf)" style="fill: none; stroke: #800000; stroke-width: 0.886227"/>
    <path d="M 69.607866 148.152144 
L 70.408678 148.152144 
" clip-path="url(#p2a3bf2b4cf)" style="fill: none; stroke: #800000; stroke-width: 0.886227"/>
    <path d="M 70.603746 132.042894 
L 71.404558 132.042894 
" clip-path="url(#p2a3bf2b4cf)" style="fill: none; stroke: #800000; stroke-width: 0.886227"/>
    <path d="M 71.728353 122.683624 
L 72.529165 122.683624 
" clip-path="url(#p2a3bf2b4cf)" style="fill: none; stroke: #800000; stroke-width: 0.886227"/>
    <path d="M 72.912891 100.784608 
L 73.713703 100.784608 
" clip-path="url(#p2a3bf2b4cf)" style="fill: none; stroke: #800000; stroke-width: 0.886227"/>
    <path d="M 74.270441 109.5828 
L 75.071253 109.5828 
" clip-path="url(#p2a3bf2b4cf)" style="fill: none; stroke: #800000; stroke-width: 0.886227"/>
    <path d="M 75.883346 105.395168 
L 76.684158 105.395168 
" clip-path="url(#p2a3bf2b4cf)" style="fill: none; stroke: #800000; stroke-width: 0.886227"/>
    <path d="M 77.547759 76.072282 
L 78.34857 76.072282 
" clip-path="url(#p2a3bf2b4cf)" style="fill: none; stroke: #800000; stroke-width: 0.886227"/>
    <path d="M 79.541559 104.110509 
L 80.342371 104.110509 
" clip-path="url(#p2a3bf2b4cf)" style="fill: none; stroke: #800000; stroke-width: 0.886227"/>
    <path d="M 81.830854 98.06398 
L 82.631666 98.06398 
" clip-path="url(#p2a3bf2b4cf)" style="fill: none; stroke: #800000; stroke-width: 0.886227"/>
    <path d="M 84.806349 115.59807 
L 85.607161 115.59807 
" clip-path="url(#p2a3bf2b4cf)" style="fill: none; stroke: #800000; stroke-width: 0.886227"/>
    <path d="M 88.251599 156.842617 
L 89.052411 156.842617 
" clip-path="url(#p2a3bf2b4cf)" style="fill: none; stroke: #800000; stroke-width: 0.886227"/>
    <path d="M 92.954533 225.043413 
L 93.755345 225.043413 
" clip-path="url(#p2a3bf2b4cf)" style="fill: none; stroke: #800000; stroke-width: 0.886227"/>
    <path d="M 99.627668 220.182966 
L 100.42848 220.182966 
" clip-path="url(#p2a3bf2b4cf)" style="fill: none; stroke: #800000; stroke-width: 0.886227"/>
    <path d="M 109.899444 218.602939 
L 110.700255 218.602939 
" clip-path="url(#p2a3bf2b4cf)" style="fill: none; stroke: #800000; stroke-width: 0.886227"/>
    <path d="M 145.188237 261.216 
L 145.989049 261.216 
" clip-path="url(#p2a3bf2b4cf)" style="fill: none; stroke: #800000; stroke-width: 0.886227"/>
    <path d="M 66.565588 181.377811 
" clip-path="url(#p2a3bf2b4cf)" style="fill: none; stroke: #800000; stroke-width: 0.886227"/>
    <path d="M 66.350624 156.501507 
L 67.151436 156.501507 
" clip-path="url(#p2a3bf2b4cf)" style="fill: none; stroke: #800000; stroke-width: 0.886227"/>
    <path d="M 67.026442 147.562195 
L 67.827253 147.562195 
" clip-path="url(#p2a3bf2b4cf)" style="fill: none; stroke: #800000; stroke-width: 0.886227"/>
    <path d="M 67.786666 136.443816 
L 68.587478 136.443816 
" clip-path="url(#p2a3bf2b4cf)" style="fill: none; stroke: #800000; stroke-width: 0.886227"/>
    <path d="M 68.645354 130.361031 
L 69.446166 130.361031 
" clip-path="url(#p2a3bf2b4cf)" style="fill: none; stroke: #800000; stroke-width: 0.886227"/>
    <path d="M 69.607866 105.169658 
L 70.408678 105.169658 
" clip-path="url(#p2a3bf2b4cf)" style="fill: none; stroke: #800000; stroke-width: 0.886227"/>
    <path d="M 70.603746 72.161153 
L 71.404558 72.161153 
" clip-path="url(#p2a3bf2b4cf)" style="fill: none; stroke: #800000; stroke-width: 0.886227"/>
    <path d="M 71.728353 67.923549 
L 72.529165 67.923549 
" clip-path="url(#p2a3bf2b4cf)" style="fill: none; stroke: #800000; stroke-width: 0.886227"/>
    <path d="M 72.912891 47.284939 
L 73.713703 47.284939 
" clip-path="url(#p2a3bf2b4cf)" style="fill: none; stroke: #800000; stroke-width: 0.886227"/>
    <path d="M 74.270441 51.841218 
L 75.071253 51.841218 
" clip-path="url(#p2a3bf2b4cf)" style="fill: none; stroke: #800000; stroke-width: 0.886227"/>
    <path d="M 75.883346 54.327001 
L 76.684158 54.327001 
" clip-path="url(#p2a3bf2b4cf)" style="fill: none; stroke: #800000; stroke-width: 0.886227"/>
    <path d="M 77.547759 19.296 
L 78.34857 19.296 
" clip-path="url(#p2a3bf2b4cf)" style="fill: none; stroke: #800000; stroke-width: 0.886227"/>
    <path d="M 79.541559 44.947961 
L 80.342371 44.947961 
" clip-path="url(#p2a3bf2b4cf)" style="fill: none; stroke: #800000; stroke-width: 0.886227"/>
    <path d="M 81.830854 41.418351 
L 82.631666 41.418351 
" clip-path="url(#p2a3bf2b4cf)" style="fill: none; stroke: #800000; stroke-width: 0.886227"/>
    <path d="M 84.806349 56.959419 
L 85.607161 56.959419 
" clip-path="url(#p2a3bf2b4cf)" style="fill: none; stroke: #800000; stroke-width: 0.886227"/>
    <path d="M 88.251599 104.928889 
L 89.052411 104.928889 
" clip-path="url(#p2a3bf2b4cf)" style="fill: none; stroke: #800000; stroke-width: 0.886227"/>
    <path d="M 92.954533 178.249301 
L 93.755345 178.249301 
" clip-path="url(#p2a3bf2b4cf)" style="fill: none; stroke: #800000; stroke-width: 0.886227"/>
    <path d="M 99.627668 176.723732 
L 100.42848 176.723732 
" clip-path="url(#p2a3bf2b4cf)" style="fill: none; stroke: #800000; stroke-width: 0.886227"/>
    <path d="M 109.899444 165.478422 
L 110.700255 165.478422 
" clip-path="url(#p2a3bf2b4cf)" style="fill: none; stroke: #800000; stroke-width: 0.886227"/>
    <path d="M 145.188237 198.076375 
L 145.989049 198.076375 
" clip-path="url(#p2a3bf2b4cf)" style="fill: none; stroke: #800000; stroke-width: 0.886227"/>
    <path d="M 66.165182 181.377811 
L 66.165182 218.655375 
" clip-path="url(#p2a3bf2b4cf)" style="fill: none; stroke: #800000; stroke-width: 0.886227"/>
    <path d="M 66.75103 156.501507 
L 66.75103 189.749495 
" clip-path="url(#p2a3bf2b4cf)" style="fill: none; stroke: #800000; stroke-width: 0.886227"/>
    <path d="M 67.426847 147.562195 
L 67.426847 183.876534 
" clip-path="url(#p2a3bf2b4cf)" style="fill: none; stroke: #800000; stroke-width: 0.886227"/>
    <path d="M 68.187072 136.443816 
L 68.187072 181.081607 
" clip-path="url(#p2a3bf2b4cf)" style="fill: none; stroke: #800000; stroke-width: 0.886227"/>
    <path d="M 69.04576 130.361031 
L 69.04576 168.396753 
" clip-path="url(#p2a3bf2b4cf)" style="fill: none; stroke: #800000; stroke-width: 0.886227"/>
    <path d="M 70.008272 105.169658 
L 70.008272 148.152144 
" clip-path="url(#p2a3bf2b4cf)" style="fill: none; stroke: #800000; stroke-width: 0.886227"/>
    <path d="M 71.004152 72.161153 
L 71.004152 132.042894 
" clip-path="url(#p2a3bf2b4cf)" style="fill: none; stroke: #800000; stroke-width: 0.886227"/>
    <path d="M 72.128759 67.923549 
L 72.128759 122.683624 
" clip-path="url(#p2a3bf2b4cf)" style="fill: none; stroke: #800000; stroke-width: 0.886227"/>
    <path d="M 73.313297 47.284939 
L 73.313297 100.784608 
" clip-path="url(#p2a3bf2b4cf)" style="fill: none; stroke: #800000; stroke-width: 0.886227"/>
    <path d="M 74.670847 51.841218 
L 74.670847 109.5828 
" clip-path="url(#p2a3bf2b4cf)" style="fill: none; stroke: #800000; stroke-width: 0.886227"/>
    <path d="M 76.283752 54.327001 
L 76.283752 105.395168 
" clip-path="url(#p2a3bf2b4cf)" style="fill: none; stroke: #800000; stroke-width: 0.886227"/>
    <path d="M 77.948164 19.296 
L 77.948164 76.072282 
" clip-path="url(#p2a3bf2b4cf)" style="fill: none; stroke: #800000; stroke-width: 0.886227"/>
    <path d="M 79.941965 44.947961 
L 79.941965 104.110509 
" clip-path="url(#p2a3bf2b4cf)" style="fill: none; stroke: #800000; stroke-width: 0.886227"/>
    <path d="M 82.23126 41.418351 
L 82.23126 98.06398 
" clip-path="url(#p2a3bf2b4cf)" style="fill: none; stroke: #800000; stroke-width: 0.886227"/>
    <path d="M 85.206755 56.959419 
L 85.206755 115.59807 
" clip-path="url(#p2a3bf2b4cf)" style="fill: none; stroke: #800000; stroke-width: 0.886227"/>
    <path d="M 88.652005 104.928889 
L 88.652005 156.842617 
" clip-path="url(#p2a3bf2b4cf)" style="fill: none; stroke: #800000; stroke-width: 0.886227"/>
    <path d="M 93.354939 178.249301 
L 93.354939 225.043413 
" clip-path="url(#p2a3bf2b4cf)" style="fill: none; stroke: #800000; stroke-width: 0.886227"/>
    <path d="M 100.028074 176.723732 
L 100.028074 220.182966 
" clip-path="url(#p2a3bf2b4cf)" style="fill: none; stroke: #800000; stroke-width: 0.886227"/>
    <path d="M 110.299849 165.478422 
L 110.299849 218.602939 
" clip-path="url(#p2a3bf2b4cf)" style="fill: none; stroke: #800000; stroke-width: 0.886227"/>
    <path d="M 145.588643 198.076375 
L 145.588643 261.216 
" clip-path="url(#p2a3bf2b4cf)" style="fill: none; stroke: #800000; stroke-width: 0.886227"/>
   </g>
   <g id="patch_3">
    <path d="M 413.955938 175.090969 
L 484.622969 175.090969 
L 484.622969 101.965031 
L 413.955938 101.965031 
z
" style="fill: #ffffff"/>
   </g>
   <g id="text_13">
    <!-- online = -->
    <g transform="translate(426.155937 125.558625) scale(0.11 -0.11)">
     <defs>
      <path id="DejaVuSans-6f" d="M 1959 3097 
Q 1497 3097 1228 2736 
Q 959 2375 959 1747 
Q 959 1119 1226 758 
Q 1494 397 1959 397 
Q 2419 397 2687 759 
Q 2956 1122 2956 1747 
Q 2956 2369 2687 2733 
Q 2419 3097 1959 3097 
z
M 1959 3584 
Q 2709 3584 3137 3096 
Q 3566 2609 3566 1747 
Q 3566 888 3137 398 
Q 2709 -91 1959 -91 
Q 1206 -91 779 398 
Q 353 888 353 1747 
Q 353 2609 779 3096 
Q 1206 3584 1959 3584 
z
" transform="scale(0.015625)"/>
      <path id="DejaVuSans-6e" d="M 3513 2113 
L 3513 0 
L 2938 0 
L 2938 2094 
Q 2938 2591 2744 2837 
Q 2550 3084 2163 3084 
Q 1697 3084 1428 2787 
Q 1159 2491 1159 1978 
L 1159 0 
L 581 0 
L 581 3500 
L 1159 3500 
L 1159 2956 
Q 1366 3272 1645 3428 
Q 1925 3584 2291 3584 
Q 2894 3584 3203 3211 
Q 3513 2838 3513 2113 
z
" transform="scale(0.015625)"/>
      <path id="DejaVuSans-69" d="M 603 3500 
L 1178 3500 
L 1178 0 
L 603 0 
L 603 3500 
z
M 603 4863 
L 1178 4863 
L 1178 4134 
L 603 4134 
L 603 4863 
z
" transform="scale(0.015625)"/>
      <path id="DejaVuSans-20" transform="scale(0.015625)"/>
      <path id="DejaVuSans-3d" d="M 678 2906 
L 4684 2906 
L 4684 2381 
L 678 2381 
L 678 2906 
z
M 678 1631 
L 4684 1631 
L 4684 1100 
L 678 1100 
L 678 1631 
z
" transform="scale(0.015625)"/>
     </defs>
     <use xlink:href="#DejaVuSans-6f"/>
     <use xlink:href="#DejaVuSans-6e" x="61.181641"/>
     <use xlink:href="#DejaVuSans-6c" x="124.560547"/>
     <use xlink:href="#DejaVuSans-69" x="152.34375"/>
     <use xlink:href="#DejaVuSans-6e" x="180.126953"/>
     <use xlink:href="#DejaVuSans-65" x="243.505859"/>
     <use xlink:href="#DejaVuSans-20" x="305.029297"/>
     <use xlink:href="#DejaVuSans-3d" x="336.816406"/>
    </g>
   </g>
   <g id="patch_4">
    <path d="M 426.155937 145.050969 
L 441.995937 145.050969 
L 441.995937 129.210969 
L 426.155937 129.210969 
z
" clip-path="url(#p35b2fb8355)" style="fill: #f2f2f2; stroke: #cccccc; stroke-linejoin: miter"/>
   </g>
   <g id="line2d_29">
    <path d="M 434.075938 137.130969 
" clip-path="url(#p35b2fb8355)" style="fill: none; stroke: #bc80bd; stroke-width: 3; stroke-linecap: square"/>
    <defs>
     <path id="m7d87704c57" d="M 0 2.215567 
C 0.587575 2.215567 1.151164 1.982121 1.566643 1.566643 
C 1.982121 1.151164 2.215567 0.587575 2.215567 0 
C 2.215567 -0.587575 1.982121 -1.151164 1.566643 -1.566643 
C 1.151164 -1.982121 0.587575 -2.215567 0 -2.215567 
C -0.587575 -2.215567 -1.151164 -1.982121 -1.566643 -1.566643 
C -1.982121 -1.151164 -2.215567 -0.587575 -2.215567 0 
C -2.215567 0.587575 -1.982121 1.151164 -1.566643 1.566643 
C -1.151164 1.982121 -0.587575 2.215567 0 2.215567 
z
" style="stroke: #000080; stroke-width: 0.886227"/>
    </defs>
    <g clip-path="url(#p35b2fb8355)">
     <use xlink:href="#m7d87704c57" x="434.075938" y="137.130969" style="fill: #000080; stroke: #000080; stroke-width: 0.886227"/>
    </g>
   </g>
   <g id="line2d_30">
    <path d="M 434.075938 137.130969 
" clip-path="url(#p35b2fb8355)" style="fill: none; stroke: #bc80bd; stroke-width: 3; stroke-linecap: square"/>
    <g clip-path="url(#p35b2fb8355)">
     <use xlink:href="#m7d87704c57" x="434.075938" y="137.130969" style="fill: #000080; stroke: #000080; stroke-width: 0.886227"/>
    </g>
   </g>
   <g id="text_14">
    <!-- 0 -->
    <g transform="translate(444.995937 139.559219) scale(0.088 -0.088)">
     <use xlink:href="#DejaVuSans-30"/>
    </g>
   </g>
   <g id="patch_5">
    <path d="M 426.155937 162.890969 
L 441.995937 162.890969 
L 441.995937 147.050969 
L 426.155937 147.050969 
z
" clip-path="url(#pc5ae482ac6)" style="fill: #f2f2f2; stroke: #cccccc; stroke-linejoin: miter"/>
   </g>
   <g id="line2d_31">
    <path d="M 434.075938 154.970969 
" clip-path="url(#pc5ae482ac6)" style="fill: none; stroke: #bc80bd; stroke-width: 3; stroke-linecap: square"/>
    <defs>
     <path id="mf56c124724" d="M 0 -2.215567 
L -2.215567 2.215567 
L 2.215567 2.215567 
z
" style="stroke: #800000; stroke-width: 0.886227; stroke-linejoin: miter"/>
    </defs>
    <g clip-path="url(#pc5ae482ac6)">
     <use xlink:href="#mf56c124724" x="434.075938" y="154.970969" style="fill: #800000; stroke: #800000; stroke-width: 0.886227; stroke-linejoin: miter"/>
    </g>
   </g>
   <g id="line2d_32">
    <path d="M 434.075938 154.970969 
" clip-path="url(#pc5ae482ac6)" style="fill: none; stroke: #bc80bd; stroke-width: 3; stroke-linecap: square"/>
    <g clip-path="url(#pc5ae482ac6)">
     <use xlink:href="#mf56c124724" x="434.075938" y="154.970969" style="fill: #800000; stroke: #800000; stroke-width: 0.886227; stroke-linejoin: miter"/>
    </g>
   </g>
   <g id="text_15">
    <!-- 1 -->
    <g transform="translate(444.995937 157.399219) scale(0.088 -0.088)">
     <use xlink:href="#DejaVuSans-31"/>
    </g>
   </g>
  </g>
 </g>
 <defs>
  <clipPath id="p2a3bf2b4cf">
   <rect x="49.635938" y="7.2" width="357.12" height="266.112"/>
  </clipPath>
  <clipPath id="p35b2fb8355">
   <path d="M 426.155937 145.050969 
L 426.155937 129.210969 
L 441.995937 129.210969 
L 441.995937 145.050969 
"/>
  </clipPath>
  <clipPath id="pc5ae482ac6">
   <path d="M 426.155937 162.890969 
L 426.155937 147.050969 
L 441.995937 147.050969 
L 441.995937 162.890969 
"/>
  </clipPath>
 </defs>
</svg>