<?xml version="1.0" encoding="utf-8" standalone="no"?>
<!DOCTYPE svg PUBLIC "-//W3C//DTD SVG 1.1//EN"
  "http://www.w3.org/Graphics/SVG/1.1/DTD/svg11.dtd">
<svg xmlns:xlink="http://www.w3.org/1999/xlink" width="496.22pt" height="347.3275pt" viewBox="0 0 496.22 347.3275" xmlns="http://www.w3.org/2000/svg" version="1.1">
 <metadata>
  <rdf:RDF xmlns:dc="http://purl.org/dc/elements/1.1/" xmlns:cc="http://creativecommons.org/ns#" xmlns:rdf="http://www.w3.org/1999/02/22-rdf-syntax-ns#">
   <cc:Work>
    <dc:type rdf:resource="http://purl.org/dc/dcmitype/StillImage"/>
    <dc:date>2023-09-07T18:49:50.966581</dc:date>
    <dc:format>image/svg+xml</dc:format>
    <dc:creator>
     <cc:Agent>
      <dc:title>Matplotlib v3.7.2, https://matplotlib.org/</dc:title>
     </cc:Agent>
    </dc:creator>
   </cc:Work>
  </rdf:RDF>
 </metadata>
 <defs>
  <style type="text/css">*{stroke-linejoin: round; stroke-linecap: butt}</style>
 </defs>
 <g id="figure_1">
  <g id="patch_1">
   <path d="M 0 347.3275 
L 496.22 347.3275 
L 496.22 0 
L 0 0 
z
" style="fill: #ffffff"/>
  </g>
  <g id="axes_1">
   <g id="patch_2">
    <path d="M 63.6 301.3275 
L 454.2 301.3275 
L 454.2 24.1275 
L 63.6 24.1275 
z
" style="fill: #ffffff"/>
   </g>
   <g id="PathCollection_1">
    <path d="M 81.354545 217.03954 
C 82.282756 217.03954 83.173075 216.670757 83.829419 216.014413 
C 84.485763 215.358069 84.854545 214.46775 84.854545 213.53954 
C 84.854545 212.611329 84.485763 211.72101 83.829419 211.064666 
C 83.173075 210.408322 82.282756 210.03954 81.354545 210.03954 
C 80.426335 210.03954 79.536016 210.408322 78.879672 211.064666 
C 78.223328 211.72101 77.854545 212.611329 77.854545 213.53954 
C 77.854545 214.46775 78.223328 215.358069 78.879672 216.014413 
C 79.536016 216.670757 80.426335 217.03954 81.354545 217.03954 
z
" clip-path="url(#pf297432397)" style="fill: #4c72b0; fill-opacity: 0.2; stroke: #4c72b0; stroke-width: 0.75"/>
    <path d="M 84.289324 206.252104 
C 85.217535 206.252104 86.107854 205.883322 86.764198 205.226978 
C 87.420542 204.570634 87.789324 203.680315 87.789324 202.752104 
C 87.789324 201.823893 87.420542 200.933575 86.764198 200.277231 
C 86.107854 199.620886 85.217535 199.252104 84.289324 199.252104 
C 83.361114 199.252104 82.470795 199.620886 81.814451 200.277231 
C 81.158107 200.933575 80.789324 201.823893 80.789324 202.752104 
C 80.789324 203.680315 81.158107 204.570634 81.814451 205.226978 
C 82.470795 205.883322 83.361114 206.252104 84.289324 206.252104 
z
" clip-path="url(#pf297432397)" style="fill: #4c72b0; fill-opacity: 0.2; stroke: #4c72b0; stroke-width: 0.75"/>
    <path d="M 87.406445 212.24223 
C 88.334656 212.24223 89.224975 211.873448 89.881319 211.217104 
C 90.537663 210.56076 90.906445 209.670441 90.906445 208.74223 
C 90.906445 207.814019 90.537663 206.9237 89.881319 206.267356 
C 89.224975 205.611012 88.334656 205.24223 87.406445 205.24223 
C 86.478234 205.24223 85.587916 205.611012 84.931571 206.267356 
C 84.275227 206.9237 83.906445 207.814019 83.906445 208.74223 
C 83.906445 209.670441 84.275227 210.56076 84.931571 211.217104 
C 85.587916 211.873448 86.478234 212.24223 87.406445 212.24223 
z
" clip-path="url(#pf297432397)" style="fill: #4c72b0; fill-opacity: 0.2; stroke: #4c72b0; stroke-width: 0.75"/>
    <path d="M 90.341706 197.073742 
C 91.269916 197.073742 92.160235 196.70496 92.816579 196.048616 
C 93.472923 195.392271 93.841706 194.501953 93.841706 193.573742 
C 93.841706 192.645531 93.472923 191.755212 92.816579 191.098868 
C 92.160235 190.442524 91.269916 190.073742 90.341706 190.073742 
C 89.413495 190.073742 88.523176 190.442524 87.866832 191.098868 
C 87.210488 191.755212 86.841706 192.645531 86.841706 193.573742 
C 86.841706 194.501953 87.210488 195.392271 87.866832 196.048616 
C 88.523176 196.70496 89.413495 197.073742 90.341706 197.073742 
z
" clip-path="url(#pf297432397)" style="fill: #4c72b0; fill-opacity: 0.2; stroke: #4c72b0; stroke-width: 0.75"/>
    <path d="M 93.466515 202.318768 
C 94.394725 202.318768 95.285044 201.949986 95.941388 201.293641 
C 96.597733 200.637297 96.966515 199.746979 96.966515 198.818768 
C 96.966515 197.890557 96.597733 197.000238 95.941388 196.343894 
C 95.285044 195.68755 94.394725 195.318768 93.466515 195.318768 
C 92.538304 195.318768 91.647985 195.68755 90.991641 196.343894 
C 90.335297 197.000238 89.966515 197.890557 89.966515 198.818768 
C 89.966515 199.746979 90.335297 200.637297 90.991641 201.293641 
C 91.647985 201.949986 92.538304 202.318768 93.466515 202.318768 
z
" clip-path="url(#pf297432397)" style="fill: #4c72b0; fill-opacity: 0.2; stroke: #4c72b0; stroke-width: 0.75"/>
    <path d="M 97.365714 187.518666 
C 98.293925 187.518666 99.184244 187.149884 99.840588 186.49354 
C 100.496932 185.837196 100.865714 184.946877 100.865714 184.018666 
C 100.865714 183.090455 100.496932 182.200137 99.840588 181.543793 
C 99.184244 180.887448 98.293925 180.518666 97.365714 180.518666 
C 96.437503 180.518666 95.547184 180.887448 94.89084 181.543793 
C 94.234496 182.200137 93.865714 183.090455 93.865714 184.018666 
C 93.865714 184.946877 94.234496 185.837196 94.89084 186.49354 
C 95.547184 187.149884 96.437503 187.518666 97.365714 187.518666 
z
" clip-path="url(#pf297432397)" style="fill: #4c72b0; fill-opacity: 0.2; stroke: #4c72b0; stroke-width: 0.75"/>
    <path d="M 101.259831 194.828423 
C 102.188041 194.828423 103.07836 194.459641 103.734704 193.803296 
C 104.391049 193.146952 104.759831 192.256634 104.759831 191.328423 
C 104.759831 190.400212 104.391049 189.509893 103.734704 188.853549 
C 103.07836 188.197205 102.188041 187.828423 101.259831 187.828423 
C 100.33162 187.828423 99.441301 188.197205 98.784957 188.853549 
C 98.128613 189.509893 97.759831 190.400212 97.759831 191.328423 
C 97.759831 192.256634 98.128613 193.146952 98.784957 193.803296 
C 99.441301 194.459641 100.33162 194.828423 101.259831 194.828423 
z
" clip-path="url(#pf297432397)" style="fill: #4c72b0; fill-opacity: 0.2; stroke: #4c72b0; stroke-width: 0.75"/>
    <path d="M 105.16439 196.400208 
C 106.0926 196.400208 106.982919 196.031426 107.639263 195.375081 
C 108.295608 194.718737 108.66439 193.828419 108.66439 192.900208 
C 108.66439 191.971997 108.295608 191.081678 107.639263 190.425334 
C 106.982919 189.76899 106.0926 189.400208 105.16439 189.400208 
C 104.236179 189.400208 103.34586 189.76899 102.689516 190.425334 
C 102.033172 191.081678 101.66439 191.971997 101.66439 192.900208 
C 101.66439 193.828419 102.033172 194.718737 102.689516 195.375081 
C 103.34586 196.031426 104.236179 196.400208 105.16439 196.400208 
z
" clip-path="url(#pf297432397)" style="fill: #4c72b0; fill-opacity: 0.2; stroke: #4c72b0; stroke-width: 0.75"/>
    <path d="M 109.536239 195.96866 
C 110.46445 195.96866 111.354769 195.599878 112.011113 194.943534 
C 112.667457 194.28719 113.036239 193.396871 113.036239 192.46866 
C 113.036239 191.540449 112.667457 190.650131 112.011113 189.993786 
C 111.354769 189.337442 110.46445 188.96866 109.536239 188.96866 
C 108.608028 188.96866 107.71771 189.337442 107.061366 189.993786 
C 106.405021 190.650131 106.036239 191.540449 106.036239 192.46866 
C 106.036239 193.396871 106.405021 194.28719 107.061366 194.943534 
C 107.71771 195.599878 108.608028 195.96866 109.536239 195.96866 
z
" clip-path="url(#pf297432397)" style="fill: #4c72b0; fill-opacity: 0.2; stroke: #4c72b0; stroke-width: 0.75"/>
    <path d="M 114.687348 199.364288 
C 115.615558 199.364288 116.505877 198.995506 117.162221 198.339162 
C 117.818565 197.682818 118.187348 196.792499 118.187348 195.864288 
C 118.187348 194.936078 117.818565 194.045759 117.162221 193.389415 
C 116.505877 192.733071 115.615558 192.364288 114.687348 192.364288 
C 113.759137 192.364288 112.868818 192.733071 112.212474 193.389415 
C 111.55613 194.045759 111.187348 194.936078 111.187348 195.864288 
C 111.187348 196.792499 111.55613 197.682818 112.212474 198.339162 
C 112.868818 198.995506 113.759137 199.364288 114.687348 199.364288 
z
" clip-path="url(#pf297432397)" style="fill: #4c72b0; fill-opacity: 0.2; stroke: #4c72b0; stroke-width: 0.75"/>
    <path d="M 119.994628 189.048762 
C 120.922839 189.048762 121.813158 188.67998 122.469502 188.023636 
C 123.125846 187.367292 123.494628 186.476973 123.494628 185.548762 
C 123.494628 184.620552 123.125846 183.730233 122.469502 183.073889 
C 121.813158 182.417544 120.922839 182.048762 119.994628 182.048762 
C 119.066418 182.048762 118.176099 182.417544 117.519755 183.073889 
C 116.86341 183.730233 116.494628 184.620552 116.494628 185.548762 
C 116.494628 186.476973 116.86341 187.367292 117.519755 188.023636 
C 118.176099 188.67998 119.066418 189.048762 119.994628 189.048762 
z
" clip-path="url(#pf297432397)" style="fill: #4c72b0; fill-opacity: 0.2; stroke: #4c72b0; stroke-width: 0.75"/>
    <path d="M 125.541989 184.423116 
C 126.4702 184.423116 127.360519 184.054334 128.016863 183.39799 
C 128.673207 182.741645 129.041989 181.851327 129.041989 180.923116 
C 129.041989 179.994905 128.673207 179.104586 128.016863 178.448242 
C 127.360519 177.791898 126.4702 177.423116 125.541989 177.423116 
C 124.613779 177.423116 123.72346 177.791898 123.067116 178.448242 
C 122.410772 179.104586 122.041989 179.994905 122.041989 180.923116 
C 122.041989 181.851327 122.410772 182.741645 123.067116 183.39799 
C 123.72346 184.054334 124.613779 184.423116 125.541989 184.423116 
z
" clip-path="url(#pf297432397)" style="fill: #4c72b0; fill-opacity: 0.2; stroke: #4c72b0; stroke-width: 0.75"/>
    <path d="M 132.673437 177.520388 
C 133.601648 177.520388 134.491966 177.151606 135.14831 176.495262 
C 135.804655 175.838918 136.173437 174.948599 136.173437 174.020388 
C 136.173437 173.092177 135.804655 172.201859 135.14831 171.545514 
C 134.491966 170.88917 133.601648 170.520388 132.673437 170.520388 
C 131.745226 170.520388 130.854907 170.88917 130.198563 171.545514 
C 129.542219 172.201859 129.173437 173.092177 129.173437 174.020388 
C 129.173437 174.948599 129.542219 175.838918 130.198563 176.495262 
C 130.854907 177.151606 131.745226 177.520388 132.673437 177.520388 
z
" clip-path="url(#pf297432397)" style="fill: #4c72b0; fill-opacity: 0.2; stroke: #4c72b0; stroke-width: 0.75"/>
    <path d="M 139.960682 162.949753 
C 140.888893 162.949753 141.779212 162.580971 142.435556 161.924627 
C 143.0919 161.268283 143.460682 160.377964 143.460682 159.449753 
C 143.460682 158.521542 143.0919 157.631224 142.435556 156.97488 
C 141.779212 156.318535 140.888893 155.949753 139.960682 155.949753 
C 139.032471 155.949753 138.142153 156.318535 137.485808 156.97488 
C 136.829464 157.631224 136.460682 158.521542 136.460682 159.449753 
C 136.460682 160.377964 136.829464 161.268283 137.485808 161.924627 
C 138.142153 162.580971 139.032471 162.949753 139.960682 162.949753 
z
" clip-path="url(#pf297432397)" style="fill: #4c72b0; fill-opacity: 0.2; stroke: #4c72b0; stroke-width: 0.75"/>
    <path d="M 147.865513 156.347608 
C 148.793724 156.347608 149.684043 155.978826 150.340387 155.322482 
C 150.996731 154.666138 151.365513 153.775819 151.365513 152.847608 
C 151.365513 151.919397 150.996731 151.029079 150.340387 150.372735 
C 149.684043 149.71639 148.793724 149.347608 147.865513 149.347608 
C 146.937302 149.347608 146.046984 149.71639 145.390639 150.372735 
C 144.734295 151.029079 144.365513 151.919397 144.365513 152.847608 
C 144.365513 153.775819 144.734295 154.666138 145.390639 155.322482 
C 146.046984 155.978826 146.937302 156.347608 147.865513 156.347608 
z
" clip-path="url(#pf297432397)" style="fill: #4c72b0; fill-opacity: 0.2; stroke: #4c72b0; stroke-width: 0.75"/>
    <path d="M 157.490617 167.726489 
C 158.418828 167.726489 159.309147 167.357707 159.965491 166.701362 
C 160.621835 166.045018 160.990617 165.154699 160.990617 164.226489 
C 160.990617 163.298278 160.621835 162.407959 159.965491 161.751615 
C 159.309147 161.095271 158.418828 160.726489 157.490617 160.726489 
C 156.562406 160.726489 155.672088 161.095271 155.015743 161.751615 
C 154.359399 162.407959 153.990617 163.298278 153.990617 164.226489 
C 153.990617 165.154699 154.359399 166.045018 155.015743 166.701362 
C 155.672088 167.357707 156.562406 167.726489 157.490617 167.726489 
z
" clip-path="url(#pf297432397)" style="fill: #4c72b0; fill-opacity: 0.2; stroke: #4c72b0; stroke-width: 0.75"/>
    <path d="M 170.241081 165.06293 
C 171.169292 165.06293 172.05961 164.694148 172.715955 164.037804 
C 173.372299 163.38146 173.741081 162.491141 173.741081 161.56293 
C 173.741081 160.634719 173.372299 159.744401 172.715955 159.088057 
C 172.05961 158.431712 171.169292 158.06293 170.241081 158.06293 
C 169.31287 158.06293 168.422551 158.431712 167.766207 159.088057 
C 167.109863 159.744401 166.741081 160.634719 166.741081 161.56293 
C 166.741081 162.491141 167.109863 163.38146 167.766207 164.037804 
C 168.422551 164.694148 169.31287 165.06293 170.241081 165.06293 
z
" clip-path="url(#pf297432397)" style="fill: #4c72b0; fill-opacity: 0.2; stroke: #4c72b0; stroke-width: 0.75"/>
    <path d="M 186.331156 155.531906 
C 187.259367 155.531906 188.149686 155.163124 188.80603 154.50678 
C 189.462374 153.850435 189.831156 152.960117 189.831156 152.031906 
C 189.831156 151.103695 189.462374 150.213376 188.80603 149.557032 
C 188.149686 148.900688 187.259367 148.531906 186.331156 148.531906 
C 185.402945 148.531906 184.512626 148.900688 183.856282 149.557032 
C 183.199938 150.213376 182.831156 151.103695 182.831156 152.031906 
C 182.831156 152.960117 183.199938 153.850435 183.856282 154.50678 
C 184.512626 155.163124 185.402945 155.531906 186.331156 155.531906 
z
" clip-path="url(#pf297432397)" style="fill: #4c72b0; fill-opacity: 0.2; stroke: #4c72b0; stroke-width: 0.75"/>
    <path d="M 209.513196 150.694808 
C 210.441407 150.694808 211.331726 150.326026 211.98807 149.669682 
C 212.644414 149.013338 213.013196 148.123019 213.013196 147.194808 
C 213.013196 146.266597 212.644414 145.376278 211.98807 144.719934 
C 211.331726 144.06359 210.441407 143.694808 209.513196 143.694808 
C 208.584985 143.694808 207.694667 144.06359 207.038322 144.719934 
C 206.381978 145.376278 206.013196 146.266597 206.013196 147.194808 
C 206.013196 148.123019 206.381978 149.013338 207.038322 149.669682 
C 207.694667 150.326026 208.584985 150.694808 209.513196 150.694808 
z
" clip-path="url(#pf297432397)" style="fill: #4c72b0; fill-opacity: 0.2; stroke: #4c72b0; stroke-width: 0.75"/>
    <path d="M 243.145936 180.886748 
C 244.074147 180.886748 244.964465 180.517966 245.62081 179.861621 
C 246.277154 179.205277 246.645936 178.314959 246.645936 177.386748 
C 246.645936 176.458537 246.277154 175.568218 245.62081 174.911874 
C 244.964465 174.25553 244.074147 173.886748 243.145936 173.886748 
C 242.217725 173.886748 241.327406 174.25553 240.671062 174.911874 
C 240.014718 175.568218 239.645936 176.458537 239.645936 177.386748 
C 239.645936 178.314959 240.014718 179.205277 240.671062 179.861621 
C 241.327406 180.517966 242.217725 180.886748 243.145936 180.886748 
z
" clip-path="url(#pf297432397)" style="fill: #4c72b0; fill-opacity: 0.2; stroke: #4c72b0; stroke-width: 0.75"/>
    <path d="M 289.974033 153.625927 
C 290.902244 153.625927 291.792563 153.257145 292.448907 152.600801 
C 293.105251 151.944456 293.474033 151.054138 293.474033 150.125927 
C 293.474033 149.197716 293.105251 148.307397 292.448907 147.651053 
C 291.792563 146.994709 290.902244 146.625927 289.974033 146.625927 
C 289.045822 146.625927 288.155504 146.994709 287.499159 147.651053 
C 286.842815 148.307397 286.474033 149.197716 286.474033 150.125927 
C 286.474033 151.054138 286.842815 151.944456 287.499159 152.600801 
C 288.155504 153.257145 289.045822 153.625927 289.974033 153.625927 
z
" clip-path="url(#pf297432397)" style="fill: #4c72b0; fill-opacity: 0.2; stroke: #4c72b0; stroke-width: 0.75"/>
    <path d="M 435.988796 217.970555 
C 436.917007 217.970555 437.807325 217.601773 438.46367 216.945429 
C 439.120014 216.289085 439.488796 215.398766 439.488796 214.470555 
C 439.488796 213.542345 439.120014 212.652026 438.46367 211.995682 
C 437.807325 211.339337 436.917007 210.970555 435.988796 210.970555 
C 435.060585 210.970555 434.170266 211.339337 433.513922 211.995682 
C 432.857578 212.652026 432.488796 213.542345 432.488796 214.470555 
C 432.488796 215.398766 432.857578 216.289085 433.513922 216.945429 
C 434.170266 217.601773 435.060585 217.970555 435.988796 217.970555 
z
" clip-path="url(#pf297432397)" style="fill: #4c72b0; fill-opacity: 0.2; stroke: #4c72b0; stroke-width: 0.75"/>
    <path d="M 81.545064 217.896094 
C 82.473274 217.896094 83.363593 217.527312 84.019937 216.870967 
C 84.676282 216.214623 85.045064 215.324305 85.045064 214.396094 
C 85.045064 213.467883 84.676282 212.577564 84.019937 211.92122 
C 83.363593 211.264876 82.473274 210.896094 81.545064 210.896094 
C 80.616853 210.896094 79.726534 211.264876 79.07019 211.92122 
C 78.413846 212.577564 78.045064 213.467883 78.045064 214.396094 
C 78.045064 215.324305 78.413846 216.214623 79.07019 216.870967 
C 79.726534 217.527312 80.616853 217.896094 81.545064 217.896094 
z
" clip-path="url(#pf297432397)" style="fill: #dd8452; fill-opacity: 0.2; stroke: #dd8452; stroke-width: 0.75"/>
    <path d="M 84.162901 196.769122 
C 85.091111 196.769122 85.98143 196.40034 86.637774 195.743996 
C 87.294119 195.087652 87.662901 194.197333 87.662901 193.269122 
C 87.662901 192.340911 87.294119 191.450592 86.637774 190.794248 
C 85.98143 190.137904 85.091111 189.769122 84.162901 189.769122 
C 83.23469 189.769122 82.344371 190.137904 81.688027 190.794248 
C 81.031683 191.450592 80.662901 192.340911 80.662901 193.269122 
C 80.662901 194.197333 81.031683 195.087652 81.688027 195.743996 
C 82.344371 196.40034 83.23469 196.769122 84.162901 196.769122 
z
" clip-path="url(#pf297432397)" style="fill: #dd8452; fill-opacity: 0.2; stroke: #dd8452; stroke-width: 0.75"/>
    <path d="M 87.182762 191.879825 
C 88.110972 191.879825 89.001291 191.511043 89.657635 190.854699 
C 90.31398 190.198355 90.682762 189.308036 90.682762 188.379825 
C 90.682762 187.451614 90.31398 186.561296 89.657635 185.904952 
C 89.001291 185.248607 88.110972 184.879825 87.182762 184.879825 
C 86.254551 184.879825 85.364232 185.248607 84.707888 185.904952 
C 84.051544 186.561296 83.682762 187.451614 83.682762 188.379825 
C 83.682762 189.308036 84.051544 190.198355 84.707888 190.854699 
C 85.364232 191.511043 86.254551 191.879825 87.182762 191.879825 
z
" clip-path="url(#pf297432397)" style="fill: #dd8452; fill-opacity: 0.2; stroke: #dd8452; stroke-width: 0.75"/>
    <path d="M 90.579794 187.089283 
C 91.508005 187.089283 92.398324 186.720501 93.054668 186.064157 
C 93.711012 185.407813 94.079794 184.517494 94.079794 183.589283 
C 94.079794 182.661072 93.711012 181.770754 93.054668 181.11441 
C 92.398324 180.458065 91.508005 180.089283 90.579794 180.089283 
C 89.651584 180.089283 88.761265 180.458065 88.104921 181.11441 
C 87.448576 181.770754 87.079794 182.661072 87.079794 183.589283 
C 87.079794 184.517494 87.448576 185.407813 88.104921 186.064157 
C 88.761265 186.720501 89.651584 187.089283 90.579794 187.089283 
z
" clip-path="url(#pf297432397)" style="fill: #dd8452; fill-opacity: 0.2; stroke: #dd8452; stroke-width: 0.75"/>
    <path d="M 94.416803 166.283101 
C 95.345014 166.283101 96.235333 165.914319 96.891677 165.257975 
C 97.548021 164.60163 97.916803 163.711312 97.916803 162.783101 
C 97.916803 161.85489 97.548021 160.964571 96.891677 160.308227 
C 96.235333 159.651883 95.345014 159.283101 94.416803 159.283101 
C 93.488593 159.283101 92.598274 159.651883 91.94193 160.308227 
C 91.285585 160.964571 90.916803 161.85489 90.916803 162.783101 
C 90.916803 163.711312 91.285585 164.60163 91.94193 165.257975 
C 92.598274 165.914319 93.488593 166.283101 94.416803 166.283101 
z
" clip-path="url(#pf297432397)" style="fill: #dd8452; fill-opacity: 0.2; stroke: #dd8452; stroke-width: 0.75"/>
    <path d="M 98.717748 146.684109 
C 99.645959 146.684109 100.536278 146.315326 101.192622 145.658982 
C 101.848966 145.002638 102.217748 144.112319 102.217748 143.184109 
C 102.217748 142.255898 101.848966 141.365579 101.192622 140.709235 
C 100.536278 140.052891 99.645959 139.684109 98.717748 139.684109 
C 97.789537 139.684109 96.899218 140.052891 96.242874 140.709235 
C 95.58653 141.365579 95.217748 142.255898 95.217748 143.184109 
C 95.217748 144.112319 95.58653 145.002638 96.242874 145.658982 
C 96.899218 146.315326 97.789537 146.684109 98.717748 146.684109 
z
" clip-path="url(#pf297432397)" style="fill: #dd8452; fill-opacity: 0.2; stroke: #dd8452; stroke-width: 0.75"/>
    <path d="M 103.167798 138.849105 
C 104.096008 138.849105 104.986327 138.480323 105.642671 137.823979 
C 106.299015 137.167634 106.667798 136.277316 106.667798 135.349105 
C 106.667798 134.420894 106.299015 133.530575 105.642671 132.874231 
C 104.986327 132.217887 104.096008 131.849105 103.167798 131.849105 
C 102.239587 131.849105 101.349268 132.217887 100.692924 132.874231 
C 100.03658 133.530575 99.667798 134.420894 99.667798 135.349105 
C 99.667798 136.277316 100.03658 137.167634 100.692924 137.823979 
C 101.349268 138.480323 102.239587 138.849105 103.167798 138.849105 
z
" clip-path="url(#pf297432397)" style="fill: #dd8452; fill-opacity: 0.2; stroke: #dd8452; stroke-width: 0.75"/>
    <path d="M 108.193055 133.757828 
C 109.121266 133.757828 110.011584 133.389046 110.667929 132.732702 
C 111.324273 132.076358 111.693055 131.186039 111.693055 130.257828 
C 111.693055 129.329617 111.324273 128.439299 110.667929 127.782955 
C 110.011584 127.12661 109.121266 126.757828 108.193055 126.757828 
C 107.264844 126.757828 106.374525 127.12661 105.718181 127.782955 
C 105.061837 128.439299 104.693055 129.329617 104.693055 130.257828 
C 104.693055 131.186039 105.061837 132.076358 105.718181 132.732702 
C 106.374525 133.389046 107.264844 133.757828 108.193055 133.757828 
z
" clip-path="url(#pf297432397)" style="fill: #dd8452; fill-opacity: 0.2; stroke: #dd8452; stroke-width: 0.75"/>
    <path d="M 113.486115 113.420067 
C 114.414325 113.420067 115.304644 113.051285 115.960988 112.394941 
C 116.617332 111.738597 116.986115 110.848278 116.986115 109.920067 
C 116.986115 108.991856 116.617332 108.101538 115.960988 107.445193 
C 115.304644 106.788849 114.414325 106.420067 113.486115 106.420067 
C 112.557904 106.420067 111.667585 106.788849 111.011241 107.445193 
C 110.354897 108.101538 109.986115 108.991856 109.986115 109.920067 
C 109.986115 110.848278 110.354897 111.738597 111.011241 112.394941 
C 111.667585 113.051285 112.557904 113.420067 113.486115 113.420067 
z
" clip-path="url(#pf297432397)" style="fill: #dd8452; fill-opacity: 0.2; stroke: #dd8452; stroke-width: 0.75"/>
    <path d="M 119.552268 107.977611 
C 120.480478 107.977611 121.370797 107.608829 122.027141 106.952485 
C 122.683485 106.296141 123.052268 105.405822 123.052268 104.477611 
C 123.052268 103.5494 122.683485 102.659082 122.027141 102.002738 
C 121.370797 101.346393 120.480478 100.977611 119.552268 100.977611 
C 118.624057 100.977611 117.733738 101.346393 117.077394 102.002738 
C 116.42105 102.659082 116.052268 103.5494 116.052268 104.477611 
C 116.052268 105.405822 116.42105 106.296141 117.077394 106.952485 
C 117.733738 107.608829 118.624057 107.977611 119.552268 107.977611 
z
" clip-path="url(#pf297432397)" style="fill: #dd8452; fill-opacity: 0.2; stroke: #dd8452; stroke-width: 0.75"/>
    <path d="M 126.759466 109.431617 
C 127.687677 109.431617 128.577996 109.062835 129.23434 108.40649 
C 129.890684 107.750146 130.259466 106.859827 130.259466 105.931617 
C 130.259466 105.003406 129.890684 104.113087 129.23434 103.456743 
C 128.577996 102.800399 127.687677 102.431617 126.759466 102.431617 
C 125.831255 102.431617 124.940937 102.800399 124.284592 103.456743 
C 123.628248 104.113087 123.259466 105.003406 123.259466 105.931617 
C 123.259466 106.859827 123.628248 107.750146 124.284592 108.40649 
C 124.940937 109.062835 125.831255 109.431617 126.759466 109.431617 
z
" clip-path="url(#pf297432397)" style="fill: #dd8452; fill-opacity: 0.2; stroke: #dd8452; stroke-width: 0.75"/>
    <path d="M 134.196823 90.546178 
C 135.125034 90.546178 136.015353 90.177396 136.671697 89.521051 
C 137.328041 88.864707 137.696823 87.974388 137.696823 87.046178 
C 137.696823 86.117967 137.328041 85.227648 136.671697 84.571304 
C 136.015353 83.91496 135.125034 83.546178 134.196823 83.546178 
C 133.268613 83.546178 132.378294 83.91496 131.72195 84.571304 
C 131.065606 85.227648 130.696823 86.117967 130.696823 87.046178 
C 130.696823 87.974388 131.065606 88.864707 131.72195 89.521051 
C 132.378294 90.177396 133.268613 90.546178 134.196823 90.546178 
z
" clip-path="url(#pf297432397)" style="fill: #dd8452; fill-opacity: 0.2; stroke: #dd8452; stroke-width: 0.75"/>
    <path d="M 143.106037 105.719107 
C 144.034248 105.719107 144.924566 105.350325 145.580911 104.693981 
C 146.237255 104.037637 146.606037 103.147318 146.606037 102.219107 
C 146.606037 101.290896 146.237255 100.400577 145.580911 99.744233 
C 144.924566 99.087889 144.034248 98.719107 143.106037 98.719107 
C 142.177826 98.719107 141.287507 99.087889 140.631163 99.744233 
C 139.974819 100.400577 139.606037 101.290896 139.606037 102.219107 
C 139.606037 103.147318 139.974819 104.037637 140.631163 104.693981 
C 141.287507 105.350325 142.177826 105.719107 143.106037 105.719107 
z
" clip-path="url(#pf297432397)" style="fill: #dd8452; fill-opacity: 0.2; stroke: #dd8452; stroke-width: 0.75"/>
    <path d="M 153.335654 110.311685 
C 154.263865 110.311685 155.154184 109.942902 155.810528 109.286558 
C 156.466872 108.630214 156.835654 107.739895 156.835654 106.811685 
C 156.835654 105.883474 156.466872 104.993155 155.810528 104.336811 
C 155.154184 103.680467 154.263865 103.311685 153.335654 103.311685 
C 152.407443 103.311685 151.517125 103.680467 150.860781 104.336811 
C 150.204436 104.993155 149.835654 105.883474 149.835654 106.811685 
C 149.835654 107.739895 150.204436 108.630214 150.860781 109.286558 
C 151.517125 109.942902 152.407443 110.311685 153.335654 110.311685 
z
" clip-path="url(#pf297432397)" style="fill: #dd8452; fill-opacity: 0.2; stroke: #dd8452; stroke-width: 0.75"/>
    <path d="M 166.631529 118.836449 
C 167.559739 118.836449 168.450058 118.467667 169.106402 117.811323 
C 169.762746 117.154979 170.131529 116.26466 170.131529 115.336449 
C 170.131529 114.408238 169.762746 113.51792 169.106402 112.861576 
C 168.450058 112.205231 167.559739 111.836449 166.631529 111.836449 
C 165.703318 111.836449 164.812999 112.205231 164.156655 112.861576 
C 163.500311 113.51792 163.131529 114.408238 163.131529 115.336449 
C 163.131529 116.26466 163.500311 117.154979 164.156655 117.811323 
C 164.812999 118.467667 165.703318 118.836449 166.631529 118.836449 
z
" clip-path="url(#pf297432397)" style="fill: #dd8452; fill-opacity: 0.2; stroke: #dd8452; stroke-width: 0.75"/>
    <path d="M 182.026485 154.084064 
C 182.954696 154.084064 183.845015 153.715282 184.501359 153.058938 
C 185.157703 152.402594 185.526485 151.512275 185.526485 150.584064 
C 185.526485 149.655853 185.157703 148.765534 184.501359 148.10919 
C 183.845015 147.452846 182.954696 147.084064 182.026485 147.084064 
C 181.098274 147.084064 180.207956 147.452846 179.551612 148.10919 
C 178.895267 148.765534 178.526485 149.655853 178.526485 150.584064 
C 178.526485 151.512275 178.895267 152.402594 179.551612 153.058938 
C 180.207956 153.715282 181.098274 154.084064 182.026485 154.084064 
z
" clip-path="url(#pf297432397)" style="fill: #dd8452; fill-opacity: 0.2; stroke: #dd8452; stroke-width: 0.75"/>
    <path d="M 203.041349 222.463232 
C 203.96956 222.463232 204.859878 222.09445 205.516223 221.438105 
C 206.172567 220.781761 206.541349 219.891443 206.541349 218.963232 
C 206.541349 218.035021 206.172567 217.144702 205.516223 216.488358 
C 204.859878 215.832014 203.96956 215.463232 203.041349 215.463232 
C 202.113138 215.463232 201.222819 215.832014 200.566475 216.488358 
C 199.910131 217.144702 199.541349 218.035021 199.541349 218.963232 
C 199.541349 219.891443 199.910131 220.781761 200.566475 221.438105 
C 201.222819 222.09445 202.113138 222.463232 203.041349 222.463232 
z
" clip-path="url(#pf297432397)" style="fill: #dd8452; fill-opacity: 0.2; stroke: #dd8452; stroke-width: 0.75"/>
    <path d="M 232.85997 220.563971 
C 233.788181 220.563971 234.6785 220.195189 235.334844 219.538845 
C 235.991188 218.882501 236.35997 217.992182 236.35997 217.063971 
C 236.35997 216.13576 235.991188 215.245442 235.334844 214.589097 
C 234.6785 213.932753 233.788181 213.563971 232.85997 213.563971 
C 231.931759 213.563971 231.04144 213.932753 230.385096 214.589097 
C 229.728752 215.245442 229.35997 216.13576 229.35997 217.063971 
C 229.35997 217.992182 229.728752 218.882501 230.385096 219.538845 
C 231.04144 220.195189 231.931759 220.563971 232.85997 220.563971 
z
" clip-path="url(#pf297432397)" style="fill: #dd8452; fill-opacity: 0.2; stroke: #dd8452; stroke-width: 0.75"/>
    <path d="M 278.758966 213.501846 
C 279.687177 213.501846 280.577496 213.133064 281.23384 212.47672 
C 281.890184 211.820376 282.258966 210.930057 282.258966 210.001846 
C 282.258966 209.073635 281.890184 208.183317 281.23384 207.526972 
C 280.577496 206.870628 279.687177 206.501846 278.758966 206.501846 
C 277.830756 206.501846 276.940437 206.870628 276.284093 207.526972 
C 275.627748 208.183317 275.258966 209.073635 275.258966 210.001846 
C 275.258966 210.930057 275.627748 211.820376 276.284093 212.47672 
C 276.940437 213.133064 277.830756 213.501846 278.758966 213.501846 
z
" clip-path="url(#pf297432397)" style="fill: #dd8452; fill-opacity: 0.2; stroke: #dd8452; stroke-width: 0.75"/>
    <path d="M 436.445455 235.185412 
C 437.373665 235.185412 438.263984 234.81663 438.920328 234.160286 
C 439.576672 233.503942 439.945455 232.613623 439.945455 231.685412 
C 439.945455 230.757201 439.576672 229.866883 438.920328 229.210538 
C 438.263984 228.554194 437.373665 228.185412 436.445455 228.185412 
C 435.517244 228.185412 434.626925 228.554194 433.970581 229.210538 
C 433.314237 229.866883 432.945455 230.757201 432.945455 231.685412 
C 432.945455 232.613623 433.314237 233.503942 433.970581 234.160286 
C 434.626925 234.81663 435.517244 235.185412 436.445455 235.185412 
z
" clip-path="url(#pf297432397)" style="fill: #dd8452; fill-opacity: 0.2; stroke: #dd8452; stroke-width: 0.75"/>
   </g>
   <g id="matplotlib.axis_1">
    <g id="xtick_1">
     <g id="line2d_1">
      <defs>
       <path id="m05d2a2290d" d="M 0 0 
L 0 3.5 
" style="stroke: #323034; stroke-width: 0.8"/>
      </defs>
      <g>
       <use xlink:href="#m05d2a2290d" x="80.218549" y="301.3275" style="fill: #323034; stroke: #323034; stroke-width: 0.8"/>
      </g>
     </g>
     <g id="text_1">
      <!-- 0 -->
      <g style="fill: #323034" transform="translate(76.218549 319.255) scale(0.16 -0.16)">
       <defs>
        <path id="STIXGeneral-Regular-30" d="M 3046 2112 
Q 3046 1683 2963 1302 
Q 2880 922 2717 602 
Q 2554 282 2266 96 
Q 1978 -90 1600 -90 
Q 1210 -90 915 108 
Q 621 307 461 640 
Q 301 973 227 1350 
Q 154 1728 154 2150 
Q 154 2746 301 3222 
Q 448 3699 790 4012 
Q 1133 4326 1626 4326 
Q 2253 4326 2649 3712 
Q 3046 3098 3046 2112 
z
M 2432 2080 
Q 2432 3091 2217 3625 
Q 2003 4160 1587 4160 
Q 1190 4160 979 3622 
Q 768 3085 768 2106 
Q 768 1120 979 598 
Q 1190 77 1600 77 
Q 2003 77 2217 598 
Q 2432 1120 2432 2080 
z
" transform="scale(0.015625)"/>
       </defs>
       <use xlink:href="#STIXGeneral-Regular-30"/>
      </g>
     </g>
    </g>
    <g id="xtick_2">
     <g id="line2d_2">
      <g>
       <use xlink:href="#m05d2a2290d" x="151.786424" y="301.3275" style="fill: #323034; stroke: #323034; stroke-width: 0.8"/>
      </g>
     </g>
     <g id="text_2">
      <!-- 1 -->
      <g style="fill: #323034" transform="translate(147.786424 319.255) scale(0.16 -0.16)">
       <defs>
        <path id="STIXGeneral-Regular-31" d="M 2522 0 
L 755 0 
L 755 96 
Q 1107 115 1235 227 
Q 1363 339 1363 608 
L 1363 3482 
Q 1363 3795 1171 3795 
Q 1082 3795 883 3718 
L 710 3654 
L 710 3744 
L 1856 4326 
L 1914 4307 
L 1914 486 
Q 1914 275 2042 185 
Q 2170 96 2522 96 
L 2522 0 
z
" transform="scale(0.015625)"/>
       </defs>
       <use xlink:href="#STIXGeneral-Regular-31"/>
      </g>
     </g>
    </g>
    <g id="xtick_3">
     <g id="line2d_3">
      <g>
       <use xlink:href="#m05d2a2290d" x="223.354298" y="301.3275" style="fill: #323034; stroke: #323034; stroke-width: 0.8"/>
      </g>
     </g>
     <g id="text_3">
      <!-- 2 -->
      <g style="fill: #323034" transform="translate(219.354298 319.255) scale(0.16 -0.16)">
       <defs>
        <path id="STIXGeneral-Regular-32" d="M 3034 877 
L 2688 0 
L 186 0 
L 186 77 
L 1325 1286 
Q 1773 1754 1965 2144 
Q 2157 2534 2157 2950 
Q 2157 3379 1920 3616 
Q 1683 3853 1267 3853 
Q 922 3853 720 3673 
Q 518 3494 326 3021 
L 192 3053 
Q 301 3648 630 3987 
Q 960 4326 1523 4326 
Q 2054 4326 2380 4006 
Q 2707 3686 2707 3200 
Q 2707 2477 1888 1613 
L 832 486 
L 2330 486 
Q 2541 486 2665 569 
Q 2790 653 2944 915 
L 3034 877 
z
" transform="scale(0.015625)"/>
       </defs>
       <use xlink:href="#STIXGeneral-Regular-32"/>
      </g>
     </g>
    </g>
    <g id="xtick_4">
     <g id="line2d_4">
      <g>
       <use xlink:href="#m05d2a2290d" x="294.922173" y="301.3275" style="fill: #323034; stroke: #323034; stroke-width: 0.8"/>
      </g>
     </g>
     <g id="text_4">
      <!-- 3 -->
      <g style="fill: #323034" transform="translate(290.922173 319.255) scale(0.16 -0.16)">
       <defs>
        <path id="STIXGeneral-Regular-33" d="M 390 3264 
L 288 3290 
Q 435 3770 748 4048 
Q 1062 4326 1542 4326 
Q 1990 4326 2265 4083 
Q 2541 3840 2541 3450 
Q 2541 2925 1946 2566 
Q 2298 2413 2477 2227 
Q 2758 1914 2758 1402 
Q 2758 890 2464 506 
Q 2246 211 1840 60 
Q 1434 -90 979 -90 
Q 262 -90 262 275 
Q 262 378 339 442 
Q 416 506 525 506 
Q 685 506 915 339 
Q 1197 141 1466 141 
Q 1818 141 2058 425 
Q 2298 710 2298 1120 
Q 2298 1856 1632 2048 
Q 1434 2112 979 2112 
L 979 2202 
Q 1338 2323 1517 2432 
Q 2035 2726 2035 3290 
Q 2035 3610 1852 3776 
Q 1670 3942 1344 3942 
Q 768 3942 390 3264 
z
" transform="scale(0.015625)"/>
       </defs>
       <use xlink:href="#STIXGeneral-Regular-33"/>
      </g>
     </g>
    </g>
    <g id="xtick_5">
     <g id="line2d_5">
      <g>
       <use xlink:href="#m05d2a2290d" x="366.490048" y="301.3275" style="fill: #323034; stroke: #323034; stroke-width: 0.8"/>
      </g>
     </g>
     <g id="text_5">
      <!-- 4 -->
      <g style="fill: #323034" transform="translate(362.490048 319.255) scale(0.16 -0.16)">
       <defs>
        <path id="STIXGeneral-Regular-34" d="M 3027 1069 
L 2368 1069 
L 2368 0 
L 1869 0 
L 1869 1069 
L 77 1069 
L 77 1478 
L 2086 4326 
L 2368 4326 
L 2368 1478 
L 3027 1478 
L 3027 1069 
z
M 1869 1478 
L 1869 3674 
L 333 1478 
L 1869 1478 
z
" transform="scale(0.015625)"/>
       </defs>
       <use xlink:href="#STIXGeneral-Regular-34"/>
      </g>
     </g>
    </g>
    <g id="xtick_6">
     <g id="line2d_6">
      <g>
       <use xlink:href="#m05d2a2290d" x="438.057923" y="301.3275" style="fill: #323034; stroke: #323034; stroke-width: 0.8"/>
      </g>
     </g>
     <g id="text_6">
      <!-- 5 -->
      <g style="fill: #323034" transform="translate(434.057923 319.255) scale(0.16 -0.16)">
       <defs>
        <path id="STIXGeneral-Regular-35" d="M 2803 4358 
L 2573 3814 
Q 2534 3731 2400 3731 
L 1158 3731 
L 902 3187 
Q 1606 3053 1920 2896 
Q 2234 2739 2502 2368 
Q 2726 2061 2726 1555 
Q 2726 1094 2576 780 
Q 2426 467 2099 224 
Q 1664 -90 1011 -90 
Q 646 -90 422 19 
Q 198 128 198 307 
Q 198 550 486 550 
Q 717 550 960 352 
Q 1210 147 1414 147 
Q 1747 147 2012 480 
Q 2278 813 2278 1229 
Q 2278 1843 1850 2189 
Q 1293 2637 486 2637 
Q 410 2637 410 2688 
L 416 2720 
L 1114 4237 
L 2438 4237 
Q 2547 4237 2608 4269 
Q 2669 4301 2746 4403 
L 2803 4358 
z
" transform="scale(0.015625)"/>
       </defs>
       <use xlink:href="#STIXGeneral-Regular-35"/>
      </g>
     </g>
    </g>
    <g id="text_7">
     <!-- age -->
     <g transform="translate(247.795 336.64) scale(0.16 -0.16)">
      <defs>
       <path id="STIXGeneral-Regular-61" d="M 2829 422 
L 2829 243 
Q 2586 -64 2253 -64 
Q 1888 -64 1843 403 
L 1837 403 
Q 1427 -64 909 -64 
Q 608 -64 422 112 
Q 237 288 237 602 
Q 237 1050 685 1350 
Q 992 1555 1837 1869 
L 1837 2214 
Q 1837 2502 1699 2646 
Q 1562 2790 1338 2790 
Q 1146 2790 1018 2697 
Q 890 2605 890 2477 
Q 890 2419 909 2348 
Q 928 2278 928 2208 
Q 928 2112 841 2029 
Q 755 1946 634 1946 
Q 525 1946 441 2029 
Q 358 2112 358 2240 
Q 358 2547 685 2752 
Q 986 2944 1421 2944 
Q 1939 2944 2176 2656 
Q 2291 2522 2323 2384 
Q 2355 2246 2355 1946 
L 2355 723 
Q 2355 301 2554 301 
Q 2682 301 2829 422 
z
M 1837 813 
L 1837 1715 
Q 1248 1510 1018 1293 
Q 800 1094 800 800 
Q 800 557 921 432 
Q 1043 307 1242 307 
Q 1453 307 1613 410 
Q 1747 506 1792 589 
Q 1837 672 1837 813 
z
" transform="scale(0.015625)"/>
       <path id="STIXGeneral-Regular-67" d="M 3008 2483 
L 2477 2483 
Q 2598 2208 2598 1946 
Q 2598 1453 2265 1203 
Q 1933 954 1600 954 
Q 1530 954 1357 973 
L 1235 986 
Q 1107 947 979 812 
Q 851 678 851 582 
Q 851 435 1350 410 
L 2176 371 
Q 2528 358 2739 172 
Q 2950 -13 2950 -314 
Q 2950 -685 2566 -986 
Q 2035 -1395 1286 -1395 
Q 826 -1395 502 -1212 
Q 179 -1030 179 -774 
Q 179 -595 320 -419 
Q 461 -243 806 6 
Q 602 102 534 172 
Q 467 243 467 346 
Q 467 531 762 787 
Q 909 915 1037 1043 
Q 717 1203 579 1401 
Q 442 1600 442 1901 
Q 442 2336 752 2640 
Q 1062 2944 1510 2944 
Q 1766 2944 2022 2848 
L 2163 2797 
Q 2349 2733 2515 2733 
L 3008 2733 
L 3008 2483 
z
M 973 2163 
L 973 2144 
Q 973 1683 1155 1398 
Q 1338 1114 1632 1114 
Q 1850 1114 1978 1270 
Q 2106 1427 2106 1690 
Q 2106 2112 1914 2464 
Q 1754 2765 1446 2765 
Q 1222 2765 1097 2605 
Q 973 2445 973 2163 
z
M 2771 -410 
Q 2771 -230 2595 -163 
Q 2419 -96 1978 -96 
Q 1344 -96 941 -13 
Q 749 -243 688 -348 
Q 627 -454 627 -563 
Q 627 -774 880 -902 
Q 1133 -1030 1555 -1030 
Q 2099 -1030 2435 -860 
Q 2771 -691 2771 -410 
z
" transform="scale(0.015625)"/>
       <path id="STIXGeneral-Regular-65" d="M 2611 1050 
L 2714 1005 
Q 2330 -64 1376 -64 
Q 813 -64 486 329 
Q 160 723 160 1389 
Q 160 2074 525 2509 
Q 890 2944 1485 2944 
Q 2061 2944 2374 2502 
Q 2560 2246 2592 1773 
L 621 1773 
Q 646 1370 700 1158 
Q 755 947 915 730 
Q 1184 378 1626 378 
Q 1939 378 2153 531 
Q 2368 685 2611 1050 
z
M 634 1978 
L 1939 1978 
Q 1882 2381 1750 2547 
Q 1619 2714 1312 2714 
Q 1043 2714 864 2525 
Q 685 2336 634 1978 
z
" transform="scale(0.015625)"/>
      </defs>
      <use xlink:href="#STIXGeneral-Regular-61"/>
      <use xlink:href="#STIXGeneral-Regular-67" x="44.399994"/>
      <use xlink:href="#STIXGeneral-Regular-65" x="94.399979"/>
     </g>
    </g>
   </g>
   <g id="matplotlib.axis_2">
    <g id="ytick_1">
     <g id="line2d_7">
      <defs>
       <path id="m86558fe7b4" d="M 0 0 
L -3.5 0 
" style="stroke: #323034; stroke-width: 0.8"/>
      </defs>
      <g>
       <use xlink:href="#m86558fe7b4" x="63.6" y="273.935391" style="fill: #323034; stroke: #323034; stroke-width: 0.8"/>
      </g>
     </g>
     <g id="text_8">
      <!-- 1000 -->
      <g style="fill: #323034" transform="translate(24.6 279.399141) scale(0.16 -0.16)">
       <use xlink:href="#STIXGeneral-Regular-31"/>
       <use xlink:href="#STIXGeneral-Regular-30" x="49.999985"/>
       <use xlink:href="#STIXGeneral-Regular-30" x="99.999969"/>
       <use xlink:href="#STIXGeneral-Regular-30" x="149.999954"/>
      </g>
     </g>
    </g>
    <g id="ytick_2">
     <g id="line2d_8">
      <g>
       <use xlink:href="#m86558fe7b4" x="63.6" y="218.011615" style="fill: #323034; stroke: #323034; stroke-width: 0.8"/>
      </g>
     </g>
     <g id="text_9">
      <!-- 2000 -->
      <g style="fill: #323034" transform="translate(24.6 223.475365) scale(0.16 -0.16)">
       <use xlink:href="#STIXGeneral-Regular-32"/>
       <use xlink:href="#STIXGeneral-Regular-30" x="49.999985"/>
       <use xlink:href="#STIXGeneral-Regular-30" x="99.999969"/>
       <use xlink:href="#STIXGeneral-Regular-30" x="149.999954"/>
      </g>
     </g>
    </g>
    <g id="ytick_3">
     <g id="line2d_9">
      <g>
       <use xlink:href="#m86558fe7b4" x="63.6" y="162.087838" style="fill: #323034; stroke: #323034; stroke-width: 0.8"/>
      </g>
     </g>
     <g id="text_10">
      <!-- 3000 -->
      <g style="fill: #323034" transform="translate(24.6 167.551588) scale(0.16 -0.16)">
       <use xlink:href="#STIXGeneral-Regular-33"/>
       <use xlink:href="#STIXGeneral-Regular-30" x="49.999985"/>
       <use xlink:href="#STIXGeneral-Regular-30" x="99.999969"/>
       <use xlink:href="#STIXGeneral-Regular-30" x="149.999954"/>
      </g>
     </g>
    </g>
    <g id="ytick_4">
     <g id="line2d_10">
      <g>
       <use xlink:href="#m86558fe7b4" x="63.6" y="106.164062" style="fill: #323034; stroke: #323034; stroke-width: 0.8"/>
      </g>
     </g>
     <g id="text_11">
      <!-- 4000 -->
      <g style="fill: #323034" transform="translate(24.6 111.627812) scale(0.16 -0.16)">
       <use xlink:href="#STIXGeneral-Regular-34"/>
       <use xlink:href="#STIXGeneral-Regular-30" x="49.999985"/>
       <use xlink:href="#STIXGeneral-Regular-30" x="99.999969"/>
       <use xlink:href="#STIXGeneral-Regular-30" x="149.999954"/>
      </g>
     </g>
    </g>
    <g id="ytick_5">
     <g id="line2d_11">
      <g>
       <use xlink:href="#m86558fe7b4" x="63.6" y="50.240285" style="fill: #323034; stroke: #323034; stroke-width: 0.8"/>
      </g>
     </g>
     <g id="text_12">
      <!-- 5000 -->
      <g style="fill: #323034" transform="translate(24.6 55.704035) scale(0.16 -0.16)">
       <use xlink:href="#STIXGeneral-Regular-35"/>
       <use xlink:href="#STIXGeneral-Regular-30" x="49.999985"/>
       <use xlink:href="#STIXGeneral-Regular-30" x="99.999969"/>
       <use xlink:href="#STIXGeneral-Regular-30" x="149.999954"/>
      </g>
     </g>
    </g>
    <g id="text_13">
     <!-- sales -->
     <g transform="translate(18.1275 178.28125) rotate(-90) scale(0.16 -0.16)">
      <defs>
       <path id="STIXGeneral-Regular-73" d="M 998 1926 
L 1664 1523 
Q 1984 1331 2105 1164 
Q 2227 998 2227 736 
Q 2227 416 1961 176 
Q 1696 -64 1331 -64 
Q 1030 -64 864 -6 
Q 691 51 570 51 
Q 461 51 416 -26 
L 333 -26 
L 333 979 
L 435 979 
Q 538 512 730 294 
Q 922 77 1248 77 
Q 1485 77 1632 211 
Q 1779 346 1779 550 
Q 1779 845 1440 1030 
L 1094 1222 
Q 326 1651 326 2150 
Q 326 2522 566 2730 
Q 806 2938 1210 2938 
Q 1491 2938 1638 2867 
Q 1754 2816 1818 2816 
Q 1862 2816 1920 2880 
L 1990 2880 
L 2022 2010 
L 1926 2010 
Q 1818 2445 1654 2621 
Q 1491 2797 1203 2797 
Q 986 2797 854 2688 
Q 723 2579 723 2362 
Q 723 2253 796 2128 
Q 870 2003 998 1926 
z
" transform="scale(0.015625)"/>
       <path id="STIXGeneral-Regular-6c" d="M 1645 0 
L 134 0 
L 134 96 
Q 435 122 531 221 
Q 627 320 627 589 
L 627 3590 
Q 627 3821 569 3910 
Q 512 4000 358 4000 
Q 224 4000 122 3987 
L 122 4090 
Q 730 4237 1133 4371 
L 1165 4346 
L 1165 557 
Q 1165 288 1254 201 
Q 1344 115 1645 96 
L 1645 0 
z
" transform="scale(0.015625)"/>
      </defs>
      <use xlink:href="#STIXGeneral-Regular-73"/>
      <use xlink:href="#STIXGeneral-Regular-61" x="38.899994"/>
      <use xlink:href="#STIXGeneral-Regular-6c" x="83.299988"/>
      <use xlink:href="#STIXGeneral-Regular-65" x="111.099976"/>
      <use xlink:href="#STIXGeneral-Regular-73" x="155.499969"/>
     </g>
    </g>
   </g>
   <g id="LineCollection_1">
    <path d="M 81.354545 244.740706 
L 81.354545 182.338373 
" clip-path="url(#pf297432397)" style="fill: none; stroke: #bc80bd; stroke-opacity: 0.2; stroke-width: 2"/>
    <path d="M 84.289324 230.022726 
L 84.289324 175.481482 
" clip-path="url(#pf297432397)" style="fill: none; stroke: #bc80bd; stroke-opacity: 0.2; stroke-width: 2"/>
    <path d="M 87.406445 232.311958 
L 87.406445 185.172502 
" clip-path="url(#pf297432397)" style="fill: none; stroke: #bc80bd; stroke-opacity: 0.2; stroke-width: 2"/>
    <path d="M 90.341706 220.758215 
L 90.341706 166.389269 
" clip-path="url(#pf297432397)" style="fill: none; stroke: #bc80bd; stroke-opacity: 0.2; stroke-width: 2"/>
    <path d="M 93.466515 227.105333 
L 93.466515 170.532203 
" clip-path="url(#pf297432397)" style="fill: none; stroke: #bc80bd; stroke-opacity: 0.2; stroke-width: 2"/>
    <path d="M 97.365714 213.176685 
L 97.365714 154.860647 
" clip-path="url(#pf297432397)" style="fill: none; stroke: #bc80bd; stroke-opacity: 0.2; stroke-width: 2"/>
    <path d="M 101.259831 228.518297 
L 101.259831 154.138548 
" clip-path="url(#pf297432397)" style="fill: none; stroke: #bc80bd; stroke-opacity: 0.2; stroke-width: 2"/>
    <path d="M 105.16439 227.160229 
L 105.16439 158.640186 
" clip-path="url(#pf297432397)" style="fill: none; stroke: #bc80bd; stroke-opacity: 0.2; stroke-width: 2"/>
    <path d="M 109.536239 223.401396 
L 109.536239 161.535925 
" clip-path="url(#pf297432397)" style="fill: none; stroke: #bc80bd; stroke-opacity: 0.2; stroke-width: 2"/>
    <path d="M 114.687348 227.931089 
L 114.687348 163.797488 
" clip-path="url(#pf297432397)" style="fill: none; stroke: #bc80bd; stroke-opacity: 0.2; stroke-width: 2"/>
    <path d="M 119.994628 220.756448 
L 119.994628 150.341077 
" clip-path="url(#pf297432397)" style="fill: none; stroke: #bc80bd; stroke-opacity: 0.2; stroke-width: 2"/>
    <path d="M 125.541989 218.874373 
L 125.541989 142.971859 
" clip-path="url(#pf297432397)" style="fill: none; stroke: #bc80bd; stroke-opacity: 0.2; stroke-width: 2"/>
    <path d="M 132.673437 210.075304 
L 132.673437 137.965473 
" clip-path="url(#pf297432397)" style="fill: none; stroke: #bc80bd; stroke-opacity: 0.2; stroke-width: 2"/>
    <path d="M 139.960682 200.373939 
L 139.960682 118.525567 
" clip-path="url(#pf297432397)" style="fill: none; stroke: #bc80bd; stroke-opacity: 0.2; stroke-width: 2"/>
    <path d="M 147.865513 194.922592 
L 147.865513 110.772625 
" clip-path="url(#pf297432397)" style="fill: none; stroke: #bc80bd; stroke-opacity: 0.2; stroke-width: 2"/>
    <path d="M 157.490617 216.667698 
L 157.490617 111.785279 
" clip-path="url(#pf297432397)" style="fill: none; stroke: #bc80bd; stroke-opacity: 0.2; stroke-width: 2"/>
    <path d="M 170.241081 207.682017 
L 170.241081 115.443843 
" clip-path="url(#pf297432397)" style="fill: none; stroke: #bc80bd; stroke-opacity: 0.2; stroke-width: 2"/>
    <path d="M 186.331156 196.55967 
L 186.331156 107.504142 
" clip-path="url(#pf297432397)" style="fill: none; stroke: #bc80bd; stroke-opacity: 0.2; stroke-width: 2"/>
    <path d="M 209.513196 197.566855 
L 209.513196 96.822761 
" clip-path="url(#pf297432397)" style="fill: none; stroke: #bc80bd; stroke-opacity: 0.2; stroke-width: 2"/>
    <path d="M 243.145936 224.731918 
L 243.145936 130.041577 
" clip-path="url(#pf297432397)" style="fill: none; stroke: #bc80bd; stroke-opacity: 0.2; stroke-width: 2"/>
    <path d="M 289.974033 202.338223 
L 289.974033 97.913631 
" clip-path="url(#pf297432397)" style="fill: none; stroke: #bc80bd; stroke-opacity: 0.2; stroke-width: 2"/>
    <path d="M 435.988796 288.7275 
L 435.988796 140.213611 
" clip-path="url(#pf297432397)" style="fill: none; stroke: #bc80bd; stroke-opacity: 0.2; stroke-width: 2"/>
   </g>
   <g id="LineCollection_2">
    <path d="M 81.545064 247.433793 
L 81.545064 181.358395 
" clip-path="url(#pf297432397)" style="fill: none; stroke: #fb8072; stroke-opacity: 0.2; stroke-width: 2"/>
    <path d="M 84.162901 222.73556 
L 84.162901 163.802684 
" clip-path="url(#pf297432397)" style="fill: none; stroke: #fb8072; stroke-opacity: 0.2; stroke-width: 2"/>
    <path d="M 87.182762 220.563854 
L 87.182762 156.195797 
" clip-path="url(#pf297432397)" style="fill: none; stroke: #fb8072; stroke-opacity: 0.2; stroke-width: 2"/>
    <path d="M 90.579794 223.150074 
L 90.579794 144.028493 
" clip-path="url(#pf297432397)" style="fill: none; stroke: #fb8072; stroke-opacity: 0.2; stroke-width: 2"/>
    <path d="M 94.416803 196.492727 
L 94.416803 129.073474 
" clip-path="url(#pf297432397)" style="fill: none; stroke: #fb8072; stroke-opacity: 0.2; stroke-width: 2"/>
    <path d="M 98.717748 181.277866 
L 98.717748 105.090351 
" clip-path="url(#pf297432397)" style="fill: none; stroke: #fb8072; stroke-opacity: 0.2; stroke-width: 2"/>
    <path d="M 103.167798 188.420034 
L 103.167798 82.278175 
" clip-path="url(#pf297432397)" style="fill: none; stroke: #fb8072; stroke-opacity: 0.2; stroke-width: 2"/>
    <path d="M 108.193055 178.789617 
L 108.193055 81.726039 
" clip-path="url(#pf297432397)" style="fill: none; stroke: #fb8072; stroke-opacity: 0.2; stroke-width: 2"/>
    <path d="M 113.486115 157.334806 
L 113.486115 62.505329 
" clip-path="url(#pf297432397)" style="fill: none; stroke: #fb8072; stroke-opacity: 0.2; stroke-width: 2"/>
    <path d="M 119.552268 155.651799 
L 119.552268 53.303424 
" clip-path="url(#pf297432397)" style="fill: none; stroke: #fb8072; stroke-opacity: 0.2; stroke-width: 2"/>
    <path d="M 126.759466 151.191407 
L 126.759466 60.671826 
" clip-path="url(#pf297432397)" style="fill: none; stroke: #fb8072; stroke-opacity: 0.2; stroke-width: 2"/>
    <path d="M 134.196823 137.364855 
L 134.196823 36.7275 
" clip-path="url(#pf297432397)" style="fill: none; stroke: #fb8072; stroke-opacity: 0.2; stroke-width: 2"/>
    <path d="M 143.106037 154.652642 
L 143.106037 49.785572 
" clip-path="url(#pf297432397)" style="fill: none; stroke: #fb8072; stroke-opacity: 0.2; stroke-width: 2"/>
    <path d="M 153.335654 157.014569 
L 153.335654 56.6088 
" clip-path="url(#pf297432397)" style="fill: none; stroke: #fb8072; stroke-opacity: 0.2; stroke-width: 2"/>
    <path d="M 166.631529 167.305675 
L 166.631529 63.367224 
" clip-path="url(#pf297432397)" style="fill: none; stroke: #fb8072; stroke-opacity: 0.2; stroke-width: 2"/>
    <path d="M 182.026485 196.593243 
L 182.026485 104.574885 
" clip-path="url(#pf297432397)" style="fill: none; stroke: #fb8072; stroke-opacity: 0.2; stroke-width: 2"/>
    <path d="M 203.041349 260.435089 
L 203.041349 177.491375 
" clip-path="url(#pf297432397)" style="fill: none; stroke: #fb8072; stroke-opacity: 0.2; stroke-width: 2"/>
    <path d="M 232.85997 255.580251 
L 232.85997 178.547691 
" clip-path="url(#pf297432397)" style="fill: none; stroke: #fb8072; stroke-opacity: 0.2; stroke-width: 2"/>
    <path d="M 278.758966 257.084102 
L 278.758966 162.91959 
" clip-path="url(#pf297432397)" style="fill: none; stroke: #fb8072; stroke-opacity: 0.2; stroke-width: 2"/>
    <path d="M 436.445455 287.643681 
L 436.445455 175.727144 
" clip-path="url(#pf297432397)" style="fill: none; stroke: #fb8072; stroke-opacity: 0.2; stroke-width: 2"/>
   </g>
   <g id="line2d_12"/>
   <g id="line2d_13"/>
   <g id="patch_3">
    <path d="M 63.6 301.3275 
L 63.6 24.1275 
" style="fill: none; stroke: #000000; stroke-width: 0.6; stroke-linejoin: miter; stroke-linecap: square"/>
   </g>
   <g id="patch_4">
    <path d="M 63.6 301.3275 
L 454.2 301.3275 
" style="fill: none; stroke: #000000; stroke-width: 0.6; stroke-linejoin: miter; stroke-linecap: square"/>
   </g>
   <g id="text_14">
    <!-- Binscatter: sales as a function of age conditioned on products -->
    <g style="fill: #323034" transform="translate(63.6 18.1275) scale(0.16 -0.16)">
     <defs>
      <path id="STIXGeneral-Regular-42" d="M 2701 2234 
L 2701 2227 
Q 3181 2150 3482 1875 
Q 3795 1594 3795 1139 
Q 3795 608 3379 304 
Q 2963 0 2266 0 
L 109 0 
L 109 122 
Q 486 134 604 246 
Q 723 358 723 723 
L 723 3520 
Q 723 3891 614 3990 
Q 506 4090 109 4115 
L 109 4237 
L 1901 4237 
Q 2726 4237 3152 3958 
Q 3578 3680 3578 3168 
Q 3578 2733 3315 2502 
Q 3130 2342 2701 2234 
z
M 1376 2342 
L 1965 2342 
Q 2925 2342 2925 3136 
Q 2925 3546 2640 3773 
Q 2355 4000 1792 4000 
L 1530 4000 
Q 1376 4000 1376 3795 
L 1376 2342 
z
M 1376 2086 
L 1376 525 
Q 1376 365 1462 301 
Q 1549 237 1773 237 
Q 2208 237 2413 285 
Q 2618 333 2816 512 
Q 3059 723 3059 1146 
Q 3059 1632 2758 1830 
Q 2688 1882 2617 1917 
Q 2547 1952 2492 1974 
Q 2438 1997 2348 2016 
Q 2259 2035 2211 2044 
Q 2163 2054 2041 2060 
Q 1920 2067 1862 2070 
Q 1805 2074 1635 2080 
Q 1466 2086 1376 2086 
z
" transform="scale(0.015625)"/>
      <path id="STIXGeneral-Regular-69" d="M 1152 4045 
Q 1152 3904 1056 3811 
Q 960 3718 819 3718 
Q 685 3718 592 3811 
Q 499 3904 499 4045 
Q 499 4179 595 4275 
Q 691 4371 826 4371 
Q 966 4371 1059 4275 
Q 1152 4179 1152 4045 
z
M 1619 0 
L 102 0 
L 102 96 
Q 435 115 521 211 
Q 608 307 608 666 
L 608 2118 
Q 608 2342 563 2432 
Q 518 2522 397 2522 
Q 243 2522 128 2490 
L 128 2592 
L 1120 2944 
L 1146 2918 
L 1146 672 
Q 1146 314 1226 218 
Q 1306 122 1619 96 
L 1619 0 
z
" transform="scale(0.015625)"/>
      <path id="STIXGeneral-Regular-6e" d="M 3104 0 
L 1773 0 
L 1779 96 
Q 2016 115 2096 233 
Q 2176 352 2176 672 
L 2176 1946 
Q 2176 2592 1709 2592 
Q 1549 2592 1408 2515 
Q 1267 2438 1050 2227 
L 1050 461 
Q 1050 269 1136 192 
Q 1222 115 1466 96 
L 1466 0 
L 115 0 
L 115 96 
Q 358 115 435 214 
Q 512 314 512 602 
L 512 2157 
Q 512 2394 467 2483 
Q 422 2573 288 2573 
Q 160 2573 102 2547 
L 102 2656 
Q 550 2784 979 2944 
L 1030 2925 
L 1030 2426 
L 1037 2426 
Q 1491 2944 1958 2944 
Q 2323 2944 2518 2688 
Q 2714 2432 2714 1958 
L 2714 544 
Q 2714 288 2790 205 
Q 2867 122 3104 96 
L 3104 0 
z
" transform="scale(0.015625)"/>
      <path id="STIXGeneral-Regular-63" d="M 2547 998 
L 2637 941 
Q 2362 403 2112 205 
Q 1786 -64 1376 -64 
Q 845 -64 502 336 
Q 160 736 160 1357 
Q 160 2170 698 2618 
Q 1094 2944 1562 2944 
Q 1965 2944 2256 2749 
Q 2547 2554 2547 2285 
Q 2547 2176 2457 2096 
Q 2368 2016 2246 2016 
Q 2022 2016 1939 2310 
L 1901 2451 
Q 1850 2630 1773 2694 
Q 1696 2758 1523 2758 
Q 1133 2758 893 2451 
Q 653 2144 653 1645 
Q 653 1094 928 745 
Q 1203 397 1645 397 
Q 1920 397 2118 528 
Q 2317 659 2547 998 
z
" transform="scale(0.015625)"/>
      <path id="STIXGeneral-Regular-74" d="M 1702 493 
L 1786 422 
Q 1478 -64 1011 -64 
Q 448 -64 448 749 
L 448 2675 
L 109 2675 
Q 83 2694 83 2720 
Q 83 2771 192 2842 
Q 435 2982 813 3526 
Q 826 3546 874 3606 
Q 922 3667 941 3706 
Q 986 3706 986 3622 
L 986 2880 
L 1632 2880 
L 1632 2675 
L 986 2675 
L 986 845 
Q 986 538 1062 403 
Q 1139 269 1318 269 
Q 1510 269 1702 493 
z
" transform="scale(0.015625)"/>
      <path id="STIXGeneral-Regular-72" d="M 1024 2931 
L 1024 2342 
Q 1267 2688 1430 2816 
Q 1594 2944 1792 2944 
Q 1958 2944 2051 2854 
Q 2144 2765 2144 2605 
Q 2144 2470 2077 2393 
Q 2010 2317 1894 2317 
Q 1773 2317 1638 2445 
Q 1536 2541 1472 2541 
Q 1338 2541 1181 2355 
Q 1024 2170 1024 2016 
L 1024 576 
Q 1024 301 1133 205 
Q 1242 109 1568 96 
L 1568 0 
L 32 0 
L 32 96 
Q 339 154 412 224 
Q 486 294 486 538 
L 486 2138 
Q 486 2349 438 2435 
Q 390 2522 269 2522 
Q 166 2522 45 2496 
L 45 2598 
Q 448 2726 992 2944 
L 1024 2931 
z
" transform="scale(0.015625)"/>
      <path id="STIXGeneral-Regular-3a" d="M 1123 2832 
Q 1229 2726 1229 2579 
Q 1229 2432 1126 2329 
Q 1024 2227 877 2227 
Q 730 2227 624 2332 
Q 518 2438 518 2579 
Q 518 2733 620 2835 
Q 723 2938 877 2938 
Q 1018 2938 1123 2832 
z
M 1229 282 
Q 1229 141 1126 35 
Q 1024 -70 877 -70 
Q 730 -70 624 35 
Q 518 141 518 282 
Q 518 435 620 537 
Q 723 640 877 640 
Q 1018 640 1123 534 
Q 1229 429 1229 282 
z
" transform="scale(0.015625)"/>
      <path id="STIXGeneral-Regular-20" transform="scale(0.015625)"/>
      <path id="STIXGeneral-Regular-66" d="M 134 2880 
L 659 2880 
Q 666 3264 710 3478 
Q 755 3693 883 3910 
Q 1152 4371 1786 4371 
Q 2074 4371 2262 4259 
Q 2451 4147 2451 3974 
Q 2451 3866 2374 3789 
Q 2298 3712 2182 3712 
Q 2029 3712 1894 3942 
Q 1741 4192 1555 4192 
Q 1197 4192 1197 3622 
L 1197 2880 
L 1978 2880 
L 1978 2675 
L 1197 2675 
L 1197 666 
Q 1197 307 1299 208 
Q 1402 109 1792 96 
L 1792 0 
L 128 0 
L 128 96 
Q 474 115 566 214 
Q 659 314 659 666 
L 659 2675 
L 134 2675 
L 134 2880 
z
" transform="scale(0.015625)"/>
      <path id="STIXGeneral-Regular-75" d="M 3072 320 
L 3072 230 
Q 2573 96 2195 -58 
L 2163 -38 
L 2163 486 
L 2150 486 
Q 1747 -64 1235 -64 
Q 870 -64 662 160 
Q 454 384 454 755 
L 454 2362 
Q 454 2598 371 2688 
Q 288 2778 58 2790 
L 58 2880 
L 992 2880 
L 992 813 
Q 992 595 1123 451 
Q 1254 307 1446 307 
Q 1760 307 1984 506 
Q 2067 582 2099 649 
Q 2131 717 2131 877 
L 2131 2355 
Q 2131 2605 2041 2678 
Q 1952 2752 1658 2771 
L 1658 2880 
L 2669 2880 
L 2669 685 
Q 2669 461 2742 390 
Q 2816 320 3034 320 
L 3072 320 
z
" transform="scale(0.015625)"/>
      <path id="STIXGeneral-Regular-6f" d="M 3008 1478 
Q 3008 806 2608 371 
Q 2208 -64 1568 -64 
Q 979 -64 582 368 
Q 186 800 186 1459 
Q 186 2125 582 2534 
Q 979 2944 1626 2944 
Q 2221 2944 2614 2537 
Q 3008 2131 3008 1478 
z
M 2432 1306 
Q 2432 2035 2112 2445 
Q 1856 2765 1504 2765 
Q 1171 2765 966 2493 
Q 762 2221 762 1747 
Q 762 928 1101 435 
Q 1318 115 1677 115 
Q 2029 115 2230 432 
Q 2432 749 2432 1306 
z
" transform="scale(0.015625)"/>
      <path id="STIXGeneral-Regular-64" d="M 3142 269 
L 2202 -64 
L 2176 -45 
L 2176 365 
Q 1869 -64 1357 -64 
Q 826 -64 499 317 
Q 173 698 173 1312 
Q 173 1990 563 2467 
Q 954 2944 1504 2944 
Q 1850 2944 2176 2669 
L 2176 3667 
Q 2176 3866 2118 3930 
Q 2061 3994 1882 3994 
Q 1792 3994 1741 3987 
L 1741 4090 
Q 2323 4243 2682 4371 
L 2714 4358 
L 2714 730 
Q 2714 506 2768 435 
Q 2822 365 2995 365 
Q 3034 365 3142 371 
L 3142 269 
z
M 2176 653 
L 2176 2125 
Q 2176 2381 1981 2573 
Q 1786 2765 1523 2765 
Q 1158 2765 940 2438 
Q 723 2112 723 1568 
Q 723 979 963 624 
Q 1203 269 1606 269 
Q 1907 269 2080 474 
Q 2176 582 2176 653 
z
" transform="scale(0.015625)"/>
      <path id="STIXGeneral-Regular-70" d="M 1018 2931 
L 1018 2438 
Q 1421 2944 1939 2944 
Q 2406 2944 2707 2560 
Q 3008 2176 3008 1581 
Q 3008 883 2621 409 
Q 2234 -64 1664 -64 
Q 1466 -64 1328 -6 
Q 1190 51 1018 211 
L 1018 -794 
Q 1018 -1094 1120 -1180 
Q 1222 -1267 1581 -1274 
L 1581 -1389 
L 32 -1389 
L 32 -1280 
Q 314 -1254 397 -1171 
Q 480 -1088 480 -838 
L 480 2157 
Q 480 2381 429 2451 
Q 378 2522 218 2522 
Q 115 2522 58 2515 
L 58 2618 
Q 506 2752 979 2944 
L 1018 2931 
z
M 1018 2138 
L 1018 563 
Q 1018 422 1238 281 
Q 1459 141 1683 141 
Q 2029 141 2243 467 
Q 2458 794 2458 1325 
Q 2458 1888 2243 2224 
Q 2029 2560 1670 2560 
Q 1446 2560 1232 2419 
Q 1018 2278 1018 2138 
z
" transform="scale(0.015625)"/>
     </defs>
     <use xlink:href="#STIXGeneral-Regular-42"/>
     <use xlink:href="#STIXGeneral-Regular-69" x="66.699997"/>
     <use xlink:href="#STIXGeneral-Regular-6e" x="94.499985"/>
     <use xlink:href="#STIXGeneral-Regular-73" x="144.499969"/>
     <use xlink:href="#STIXGeneral-Regular-63" x="183.399963"/>
     <use xlink:href="#STIXGeneral-Regular-61" x="227.799957"/>
     <use xlink:href="#STIXGeneral-Regular-74" x="272.199951"/>
     <use xlink:href="#STIXGeneral-Regular-74" x="299.999939"/>
     <use xlink:href="#STIXGeneral-Regular-65" x="327.799927"/>
     <use xlink:href="#STIXGeneral-Regular-72" x="372.199921"/>
     <use xlink:href="#STIXGeneral-Regular-3a" x="405.499908"/>
     <use xlink:href="#STIXGeneral-Regular-20" x="433.299896"/>
     <use xlink:href="#STIXGeneral-Regular-73" x="458.299881"/>
     <use xlink:href="#STIXGeneral-Regular-61" x="497.199875"/>
     <use xlink:href="#STIXGeneral-Regular-6c" x="541.599869"/>
     <use xlink:href="#STIXGeneral-Regular-65" x="569.399857"/>
     <use xlink:href="#STIXGeneral-Regular-73" x="613.79985"/>
     <use xlink:href="#STIXGeneral-Regular-20" x="652.699844"/>
     <use xlink:href="#STIXGeneral-Regular-61" x="677.699829"/>
     <use xlink:href="#STIXGeneral-Regular-73" x="722.099823"/>
     <use xlink:href="#STIXGeneral-Regular-20" x="760.999817"/>
     <use xlink:href="#STIXGeneral-Regular-61" x="785.999802"/>
     <use xlink:href="#STIXGeneral-Regular-20" x="830.399796"/>
     <use xlink:href="#STIXGeneral-Regular-66" x="855.39978"/>
     <use xlink:href="#STIXGeneral-Regular-75" x="888.699768"/>
     <use xlink:href="#STIXGeneral-Regular-6e" x="938.699753"/>
     <use xlink:href="#STIXGeneral-Regular-63" x="988.699738"/>
     <use xlink:href="#STIXGeneral-Regular-74" x="1033.099731"/>
     <use xlink:href="#STIXGeneral-Regular-69" x="1060.899719"/>
     <use xlink:href="#STIXGeneral-Regular-6f" x="1088.699707"/>
     <use xlink:href="#STIXGeneral-Regular-6e" x="1138.699692"/>
     <use xlink:href="#STIXGeneral-Regular-20" x="1188.699677"/>
     <use xlink:href="#STIXGeneral-Regular-6f" x="1213.699661"/>
     <use xlink:href="#STIXGeneral-Regular-66" x="1263.699646"/>
     <use xlink:href="#STIXGeneral-Regular-20" x="1296.999634"/>
     <use xlink:href="#STIXGeneral-Regular-61" x="1321.999619"/>
     <use xlink:href="#STIXGeneral-Regular-67" x="1366.399612"/>
     <use xlink:href="#STIXGeneral-Regular-65" x="1416.399597"/>
     <use xlink:href="#STIXGeneral-Regular-20" x="1460.799591"/>
     <use xlink:href="#STIXGeneral-Regular-63" x="1485.799576"/>
     <use xlink:href="#STIXGeneral-Regular-6f" x="1530.19957"/>
     <use xlink:href="#STIXGeneral-Regular-6e" x="1580.199554"/>
     <use xlink:href="#STIXGeneral-Regular-64" x="1630.199539"/>
     <use xlink:href="#STIXGeneral-Regular-69" x="1680.199524"/>
     <use xlink:href="#STIXGeneral-Regular-74" x="1707.999512"/>
     <use xlink:href="#STIXGeneral-Regular-69" x="1735.7995"/>
     <use xlink:href="#STIXGeneral-Regular-6f" x="1763.599487"/>
     <use xlink:href="#STIXGeneral-Regular-6e" x="1813.599472"/>
     <use xlink:href="#STIXGeneral-Regular-65" x="1863.599457"/>
     <use xlink:href="#STIXGeneral-Regular-64" x="1907.999451"/>
     <use xlink:href="#STIXGeneral-Regular-20" x="1957.999435"/>
     <use xlink:href="#STIXGeneral-Regular-6f" x="1982.99942"/>
     <use xlink:href="#STIXGeneral-Regular-6e" x="2032.999405"/>
     <use xlink:href="#STIXGeneral-Regular-20" x="2082.99939"/>
     <use xlink:href="#STIXGeneral-Regular-70" x="2107.999374"/>
     <use xlink:href="#STIXGeneral-Regular-72" x="2157.999359"/>
     <use xlink:href="#STIXGeneral-Regular-6f" x="2191.299347"/>
     <use xlink:href="#STIXGeneral-Regular-64" x="2241.299332"/>
     <use xlink:href="#STIXGeneral-Regular-75" x="2291.299316"/>
     <use xlink:href="#STIXGeneral-Regular-63" x="2341.299301"/>
     <use xlink:href="#STIXGeneral-Regular-74" x="2385.699295"/>
     <use xlink:href="#STIXGeneral-Regular-73" x="2413.499283"/>
    </g>
   </g>
  </g>
  <g id="legend_1">
   <g id="patch_5">
    <path d="M 444.902969 174.774531 
L 486.22 174.774531 
Q 488.42 174.774531 488.42 172.574531 
L 488.42 126.080469 
Q 488.42 123.880469 486.22 123.880469 
L 444.902969 123.880469 
Q 442.702969 123.880469 442.702969 126.080469 
L 442.702969 172.574531 
Q 442.702969 174.774531 444.902969 174.774531 
z
" style="fill: #eaeaf2; opacity: 0.8; stroke: #cccccc; stroke-linejoin: miter"/>
   </g>
   <g id="text_15">
    <!-- online -->
    <g style="fill: #262626" transform="translate(449.548984 136.869844) scale(0.12 -0.12)">
     <defs>
      <path id="ArialMT-6f" d="M 213 1659 
Q 213 2581 725 3025 
Q 1153 3394 1769 3394 
Q 2453 3394 2887 2945 
Q 3322 2497 3322 1706 
Q 3322 1066 3130 698 
Q 2938 331 2570 128 
Q 2203 -75 1769 -75 
Q 1072 -75 642 372 
Q 213 819 213 1659 
z
M 791 1659 
Q 791 1022 1069 705 
Q 1347 388 1769 388 
Q 2188 388 2466 706 
Q 2744 1025 2744 1678 
Q 2744 2294 2464 2611 
Q 2184 2928 1769 2928 
Q 1347 2928 1069 2612 
Q 791 2297 791 1659 
z
" transform="scale(0.015625)"/>
      <path id="ArialMT-6e" d="M 422 0 
L 422 3319 
L 928 3319 
L 928 2847 
Q 1294 3394 1984 3394 
Q 2284 3394 2536 3286 
Q 2788 3178 2913 3003 
Q 3038 2828 3088 2588 
Q 3119 2431 3119 2041 
L 3119 0 
L 2556 0 
L 2556 2019 
Q 2556 2363 2490 2533 
Q 2425 2703 2258 2804 
Q 2091 2906 1866 2906 
Q 1506 2906 1245 2678 
Q 984 2450 984 1813 
L 984 0 
L 422 0 
z
" transform="scale(0.015625)"/>
      <path id="ArialMT-6c" d="M 409 0 
L 409 4581 
L 972 4581 
L 972 0 
L 409 0 
z
" transform="scale(0.015625)"/>
      <path id="ArialMT-69" d="M 425 3934 
L 425 4581 
L 988 4581 
L 988 3934 
L 425 3934 
z
M 425 0 
L 425 3319 
L 988 3319 
L 988 0 
L 425 0 
z
" transform="scale(0.015625)"/>
      <path id="ArialMT-65" d="M 2694 1069 
L 3275 997 
Q 3138 488 2766 206 
Q 2394 -75 1816 -75 
Q 1088 -75 661 373 
Q 234 822 234 1631 
Q 234 2469 665 2931 
Q 1097 3394 1784 3394 
Q 2450 3394 2872 2941 
Q 3294 2488 3294 1666 
Q 3294 1616 3291 1516 
L 816 1516 
Q 847 969 1125 678 
Q 1403 388 1819 388 
Q 2128 388 2347 550 
Q 2566 713 2694 1069 
z
M 847 1978 
L 2700 1978 
Q 2663 2397 2488 2606 
Q 2219 2931 1791 2931 
Q 1403 2931 1139 2672 
Q 875 2413 847 1978 
z
" transform="scale(0.015625)"/>
     </defs>
     <use xlink:href="#ArialMT-6f"/>
     <use xlink:href="#ArialMT-6e" x="55.615234"/>
     <use xlink:href="#ArialMT-6c" x="111.230469"/>
     <use xlink:href="#ArialMT-69" x="133.447266"/>
     <use xlink:href="#ArialMT-6e" x="155.664062"/>
     <use xlink:href="#ArialMT-65" x="211.279297"/>
    </g>
   </g>
   <g id="PathCollection_2">
    <defs>
     <path id="mdd93a15537" d="M 0 3.5 
C 0.928211 3.5 1.81853 3.131218 2.474874 2.474874 
C 3.131218 1.81853 3.5 0.928211 3.5 0 
C 3.5 -0.928211 3.131218 -1.81853 2.474874 -2.474874 
C 1.81853 -3.131218 0.928211 -3.5 0 -3.5 
C -0.928211 -3.5 -1.81853 -3.131218 -2.474874 -2.474874 
C -3.131218 -1.81853 -3.5 -0.928211 -3.5 0 
C -3.5 0.928211 -3.131218 1.81853 -2.474874 2.474874 
C -1.81853 3.131218 -0.928211 3.5 0 3.5 
z
" style="stroke: #4c72b0; stroke-width: 0.75"/>
    </defs>
    <g>
     <use xlink:href="#mdd93a15537" x="458.102969" y="149.740937" style="fill: #4c72b0; fill-opacity: 0.2; stroke: #4c72b0; stroke-width: 0.75"/>
    </g>
   </g>
   <g id="text_16">
    <!-- 0 -->
    <g style="fill: #262626" transform="translate(477.902969 152.628437) scale(0.11 -0.11)">
     <defs>
      <path id="ArialMT-30" d="M 266 2259 
Q 266 3072 433 3567 
Q 600 4063 929 4331 
Q 1259 4600 1759 4600 
Q 2128 4600 2406 4451 
Q 2684 4303 2865 4023 
Q 3047 3744 3150 3342 
Q 3253 2941 3253 2259 
Q 3253 1453 3087 958 
Q 2922 463 2592 192 
Q 2263 -78 1759 -78 
Q 1097 -78 719 397 
Q 266 969 266 2259 
z
M 844 2259 
Q 844 1131 1108 757 
Q 1372 384 1759 384 
Q 2147 384 2411 759 
Q 2675 1134 2675 2259 
Q 2675 3391 2411 3762 
Q 2147 4134 1753 4134 
Q 1366 4134 1134 3806 
Q 844 3388 844 2259 
z
" transform="scale(0.015625)"/>
     </defs>
     <use xlink:href="#ArialMT-30"/>
    </g>
   </g>
   <g id="PathCollection_3">
    <defs>
     <path id="mfba508cab3" d="M 0 3.5 
C 0.928211 3.5 1.81853 3.131218 2.474874 2.474874 
C 3.131218 1.81853 3.5 0.928211 3.5 0 
C 3.5 -0.928211 3.131218 -1.81853 2.474874 -2.474874 
C 1.81853 -3.131218 0.928211 -3.5 0 -3.5 
C -0.928211 -3.5 -1.81853 -3.131218 -2.474874 -2.474874 
C -3.131218 -1.81853 -3.5 -0.928211 -3.5 0 
C -3.5 0.928211 -3.131218 1.81853 -2.474874 2.474874 
C -1.81853 3.131218 -0.928211 3.5 0 3.5 
z
" style="stroke: #dd8452; stroke-width: 0.75"/>
    </defs>
    <g>
     <use xlink:href="#mfba508cab3" x="458.102969" y="165.300781" style="fill: #dd8452; fill-opacity: 0.2; stroke: #dd8452; stroke-width: 0.75"/>
    </g>
   </g>
   <g id="text_17">
    <!-- 1 -->
    <g style="fill: #262626" transform="translate(477.902969 168.188281) scale(0.11 -0.11)">
     <defs>
      <path id="ArialMT-31" d="M 2384 0 
L 1822 0 
L 1822 3584 
Q 1619 3391 1289 3197 
Q 959 3003 697 2906 
L 697 3450 
Q 1169 3672 1522 3987 
Q 1875 4303 2022 4600 
L 2384 4600 
L 2384 0 
z
" transform="scale(0.015625)"/>
     </defs>
     <use xlink:href="#ArialMT-31"/>
    </g>
   </g>
  </g>
 </g>
 <defs>
  <clipPath id="pf297432397">
   <rect x="63.6" y="24.1275" width="390.6" height="277.2"/>
  </clipPath>
 </defs>
</svg>