<?xml version="1.0" encoding="UTF-8" standalone="no"?>
<!DOCTYPE svg PUBLIC "-//W3C//DTD SVG 1.1//EN"
 "http://www.w3.org/Graphics/SVG/1.1/DTD/svg11.dtd">
<!-- Generated by graphviz version 8.1.0 (0)
 -->
<!-- Pages: 1 -->
<svg width="324pt" height="247pt"
 viewBox="0.00 0.00 324.02 247.13" xmlns="http://www.w3.org/2000/svg" xmlns:xlink="http://www.w3.org/1999/xlink">
<g id="graph0" class="graph" transform="scale(1 1) rotate(0) translate(4 243.13)">
<polygon fill="white" stroke="none" points="-4,4 -4,-243.13 320.02,-243.13 320.02,4 -4,4"/>
<g id="clust1" class="cluster">
<title>cluster100</title>
<path fill="none" stroke="black" d="M121.01,-8C121.01,-8 195.01,-8 195.01,-8 201.01,-8 207.01,-14 207.01,-20 207.01,-20 207.01,-117.82 207.01,-117.82 207.01,-123.82 201.01,-129.82 195.01,-129.82 195.01,-129.82 121.01,-129.82 121.01,-129.82 115.01,-129.82 109.01,-123.82 109.01,-117.82 109.01,-117.82 109.01,-20 109.01,-20 109.01,-14 115.01,-8 121.01,-8"/>
<text text-anchor="middle" x="188.89" y="-15.2" font-family="Times,serif" font-size="14.00">100</text>
</g>
<!-- alpha -->
<g id="node1" class="node">
<title>alpha</title>
<ellipse fill="none" stroke="black" cx="41.01" cy="-198.48" rx="41.01" ry="40.66"/>
<text text-anchor="middle" x="41.01" y="-209.93" font-family="Times,serif" font-size="14.00">alpha</text>
<text text-anchor="middle" x="41.01" y="-193.43" font-family="Times,serif" font-size="14.00">~</text>
<text text-anchor="middle" x="41.01" y="-176.93" font-family="Times,serif" font-size="14.00">Normal</text>
</g>
<!-- Y_obs -->
<g id="node4" class="node">
<title>Y_obs</title>
<ellipse fill="lightgrey" stroke="black" cx="158.01" cy="-81.16" rx="41.01" ry="40.66"/>
<text text-anchor="middle" x="158.01" y="-92.61" font-family="Times,serif" font-size="14.00">Y_obs</text>
<text text-anchor="middle" x="158.01" y="-76.11" font-family="Times,serif" font-size="14.00">~</text>
<text text-anchor="middle" x="158.01" y="-59.61" font-family="Times,serif" font-size="14.00">Normal</text>
</g>
<!-- alpha&#45;&gt;Y_obs -->
<g id="edge3" class="edge">
<title>alpha&#45;&gt;Y_obs</title>
<path fill="none" stroke="black" d="M69.93,-168.97C85.66,-153.47 105.26,-134.15 121.97,-117.68"/>
<polygon fill="black" stroke="black" points="123.76,-120.85 128.42,-111.34 118.84,-115.86 123.76,-120.85"/>
</g>
<!-- sigma -->
<g id="node2" class="node">
<title>sigma</title>
<ellipse fill="none" stroke="black" cx="158.01" cy="-198.48" rx="57.98" ry="40.66"/>
<text text-anchor="middle" x="158.01" y="-209.93" font-family="Times,serif" font-size="14.00">sigma</text>
<text text-anchor="middle" x="158.01" y="-193.43" font-family="Times,serif" font-size="14.00">~</text>
<text text-anchor="middle" x="158.01" y="-176.93" font-family="Times,serif" font-size="14.00">HalfNormal</text>
</g>
<!-- sigma&#45;&gt;Y_obs -->
<g id="edge1" class="edge">
<title>sigma&#45;&gt;Y_obs</title>
<path fill="none" stroke="black" d="M158.01,-157.47C158.01,-149.6 158.01,-141.24 158.01,-133.07"/>
<polygon fill="black" stroke="black" points="161.51,-133.1 158.01,-123.1 154.51,-133.1 161.51,-133.1"/>
</g>
<!-- beta -->
<g id="node3" class="node">
<title>beta</title>
<ellipse fill="none" stroke="black" cx="275.01" cy="-198.48" rx="41.01" ry="40.66"/>
<text text-anchor="middle" x="275.01" y="-209.93" font-family="Times,serif" font-size="14.00">beta</text>
<text text-anchor="middle" x="275.01" y="-193.43" font-family="Times,serif" font-size="14.00">~</text>
<text text-anchor="middle" x="275.01" y="-176.93" font-family="Times,serif" font-size="14.00">Normal</text>
</g>
<!-- beta&#45;&gt;Y_obs -->
<g id="edge2" class="edge">
<title>beta&#45;&gt;Y_obs</title>
<path fill="none" stroke="black" d="M246.09,-168.97C230.36,-153.47 210.77,-134.15 194.05,-117.68"/>
<polygon fill="black" stroke="black" points="197.18,-115.86 187.6,-111.34 192.27,-120.85 197.18,-115.86"/>
</g>
</g>
</svg>