<?xml version="1.0" encoding="utf-8" standalone="no"?>
<!DOCTYPE svg PUBLIC "-//W3C//DTD SVG 1.1//EN"
  "http://www.w3.org/Graphics/SVG/1.1/DTD/svg11.dtd">
<svg height="267.537812pt" version="1.1" viewBox="0 0 388 267.537812" width="388pt" xmlns="http://www.w3.org/2000/svg" xmlns:xlink="http://www.w3.org/1999/xlink">
 <metadata>
  <rdf:RDF xmlns:cc="http://creativecommons.org/ns#" xmlns:dc="http://purl.org/dc/elements/1.1/" xmlns:rdf="http://www.w3.org/1999/02/22-rdf-syntax-ns#">
   <cc:Work>
    <dc:type rdf:resource="http://purl.org/dc/dcmitype/StillImage"/>
    <dc:date>2022-08-20T18:04:48.380271</dc:date>
    <dc:format>image/svg+xml</dc:format>
    <dc:creator>
     <cc:Agent>
      <dc:title>Matplotlib v3.4.3, https://matplotlib.org/</dc:title>
     </cc:Agent>
    </dc:creator>
   </cc:Work>
  </rdf:RDF>
 </metadata>
 <defs>
  <style type="text/css">*{stroke-linecap:butt;stroke-linejoin:round;}</style>
 </defs>
 <g id="figure_1">
  <g id="patch_1">
   <path d="M -0 267.537812 
L 388 267.537812 
L 388 0 
L -0 0 
z
" style="fill:none;"/>
  </g>
  <g id="axes_1">
   <g id="patch_2">
    <path d="M 46 228.737812 
L 380.8 228.737812 
L 380.8 11.297812 
L 46 11.297812 
z
" style="fill:#ffffff;"/>
   </g>
   <g id="PolyCollection_1">
    <defs>
     <path d="M 46 -40.353143 
L 46 -38.8 
L 79.48 -38.8 
L 112.96 -38.8 
L 146.44 -38.8 
L 179.92 -38.8 
L 213.4 -38.8 
L 246.88 -38.8 
L 280.36 -38.8 
L 313.84 -38.8 
L 347.32 -38.8 
L 380.8 -38.8 
L 380.8 -38.8 
L 380.8 -38.8 
L 347.32 -40.353143 
L 313.84 -38.8 
L 280.36 -38.8 
L 246.88 -38.8 
L 213.4 -38.8 
L 179.92 -40.353143 
L 146.44 -40.353143 
L 112.96 -40.353143 
L 79.48 -38.8 
L 46 -40.353143 
z
" id="m91ce56f2c3" style="stroke:#bc80bd;stroke-width:0.8;"/>
    </defs>
    <g clip-path="url(#pe208fb7b01)">
     <use style="fill:#bc80bd;stroke:#bc80bd;stroke-width:0.8;" x="0" xlink:href="#m91ce56f2c3" y="267.537812"/>
    </g>
   </g>
   <g id="PolyCollection_2">
    <defs>
     <path d="M 46 -52.778286 
L 46 -40.353143 
L 79.48 -38.8 
L 112.96 -40.353143 
L 146.44 -40.353143 
L 179.92 -40.353143 
L 213.4 -38.8 
L 246.88 -38.8 
L 280.36 -38.8 
L 313.84 -38.8 
L 347.32 -40.353143 
L 380.8 -38.8 
L 380.8 -41.906286 
L 380.8 -41.906286 
L 347.32 -60.544 
L 313.84 -51.225143 
L 280.36 -54.331429 
L 246.88 -45.012571 
L 213.4 -48.118857 
L 179.92 -49.672 
L 146.44 -57.437714 
L 112.96 -58.990857 
L 79.48 -57.437714 
L 46 -52.778286 
z
" id="ma795c7e36b" style="stroke:#fb8072;stroke-width:0.8;"/>
    </defs>
    <g clip-path="url(#pe208fb7b01)">
     <use style="fill:#fb8072;stroke:#fb8072;stroke-width:0.8;" x="0" xlink:href="#ma795c7e36b" y="267.537812"/>
    </g>
   </g>
   <g id="PolyCollection_3">
    <defs>
     <path d="M 46 -180.136 
L 46 -52.778286 
L 79.48 -57.437714 
L 112.96 -58.990857 
L 146.44 -57.437714 
L 179.92 -49.672 
L 213.4 -48.118857 
L 246.88 -45.012571 
L 280.36 -54.331429 
L 313.84 -51.225143 
L 347.32 -60.544 
L 380.8 -41.906286 
L 380.8 -62.097143 
L 380.8 -62.097143 
L 347.32 -155.285714 
L 313.84 -155.285714 
L 280.36 -159.945143 
L 246.88 -122.669714 
L 213.4 -108.691429 
L 179.92 -119.563429 
L 146.44 -175.476571 
L 112.96 -187.901714 
L 79.48 -212.752 
L 46 -180.136 
z
" id="m20c6d9ecc6" style="stroke:#b3de69;stroke-width:0.8;"/>
    </defs>
    <g clip-path="url(#pe208fb7b01)">
     <use style="fill:#b3de69;stroke:#b3de69;stroke-width:0.8;" x="0" xlink:href="#m20c6d9ecc6" y="267.537812"/>
    </g>
   </g>
   <g id="PolyCollection_4">
    <defs>
     <path d="M 46 -194.114286 
L 46 -180.136 
L 79.48 -212.752 
L 112.96 -187.901714 
L 146.44 -175.476571 
L 179.92 -119.563429 
L 213.4 -108.691429 
L 246.88 -122.669714 
L 280.36 -159.945143 
L 313.84 -155.285714 
L 347.32 -155.285714 
L 380.8 -62.097143 
L 380.8 -68.309714 
L 380.8 -68.309714 
L 347.32 -192.561143 
L 313.84 -184.795429 
L 280.36 -189.454857 
L 246.88 -141.307429 
L 213.4 -121.116571 
L 179.92 -121.116571 
L 146.44 -204.986286 
L 112.96 -209.645714 
L 79.48 -242.261714 
L 46 -194.114286 
z
" id="m5b0e052f34" style="stroke:#fdb462;stroke-width:0.8;"/>
    </defs>
    <g clip-path="url(#pe208fb7b01)">
     <use style="fill:#fdb462;stroke:#fdb462;stroke-width:0.8;" x="0" xlink:href="#m5b0e052f34" y="267.537812"/>
    </g>
   </g>
   <g id="matplotlib.axis_1">
    <g id="xtick_1">
     <g id="line2d_1">
      <defs>
       <path d="M 0 0 
L 0 3.5 
" id="m7da218c047" style="stroke:#323034;stroke-width:0.8;"/>
      </defs>
      <g>
       <use style="fill:#323034;stroke:#323034;stroke-width:0.8;" x="79.48" xlink:href="#m7da218c047" y="228.737812"/>
      </g>
     </g>
     <g id="text_1">
      <!-- 2006 -->
      <g style="fill:#323034;" transform="translate(67.48 243.933437)scale(0.12 -0.12)">
       <defs>
        <path d="M 3034 877 
L 2688 0 
L 186 0 
L 186 77 
L 1325 1286 
Q 1773 1754 1965 2144 
Q 2157 2534 2157 2950 
Q 2157 3379 1920 3616 
Q 1683 3853 1267 3853 
Q 922 3853 720 3673 
Q 518 3494 326 3021 
L 192 3053 
Q 301 3648 630 3987 
Q 960 4326 1523 4326 
Q 2054 4326 2380 4006 
Q 2707 3686 2707 3200 
Q 2707 2477 1888 1613 
L 832 486 
L 2330 486 
Q 2541 486 2665 569 
Q 2790 653 2944 915 
L 3034 877 
z
" id="STIXGeneral-Regular-32" transform="scale(0.015625)"/>
        <path d="M 3046 2112 
Q 3046 1683 2963 1302 
Q 2880 922 2717 602 
Q 2554 282 2266 96 
Q 1978 -90 1600 -90 
Q 1210 -90 915 108 
Q 621 307 461 640 
Q 301 973 227 1350 
Q 154 1728 154 2150 
Q 154 2746 301 3222 
Q 448 3699 790 4012 
Q 1133 4326 1626 4326 
Q 2253 4326 2649 3712 
Q 3046 3098 3046 2112 
z
M 2432 2080 
Q 2432 3091 2217 3625 
Q 2003 4160 1587 4160 
Q 1190 4160 979 3622 
Q 768 3085 768 2106 
Q 768 1120 979 598 
Q 1190 77 1600 77 
Q 2003 77 2217 598 
Q 2432 1120 2432 2080 
z
" id="STIXGeneral-Regular-30" transform="scale(0.015625)"/>
        <path d="M 2854 4378 
L 2867 4275 
Q 2112 4154 1606 3664 
Q 1101 3174 973 2451 
Q 1344 2739 1786 2739 
Q 2349 2739 2672 2380 
Q 2995 2022 2995 1402 
Q 2995 774 2669 378 
Q 2291 -90 1651 -90 
Q 870 -90 518 557 
Q 218 1107 218 1786 
Q 218 2835 915 3552 
Q 1312 3962 1731 4131 
Q 2150 4301 2854 4378 
z
M 2419 1203 
Q 2419 2445 1555 2445 
Q 1235 2445 1024 2275 
Q 813 2106 813 1702 
Q 813 954 1046 522 
Q 1280 90 1722 90 
Q 2061 90 2240 394 
Q 2419 698 2419 1203 
z
" id="STIXGeneral-Regular-36" transform="scale(0.015625)"/>
       </defs>
       <use xlink:href="#STIXGeneral-Regular-32"/>
       <use x="49.999985" xlink:href="#STIXGeneral-Regular-30"/>
       <use x="99.999969" xlink:href="#STIXGeneral-Regular-30"/>
       <use x="149.999954" xlink:href="#STIXGeneral-Regular-36"/>
      </g>
     </g>
    </g>
    <g id="xtick_2">
     <g id="line2d_2">
      <g>
       <use style="fill:#323034;stroke:#323034;stroke-width:0.8;" x="146.44" xlink:href="#m7da218c047" y="228.737812"/>
      </g>
     </g>
     <g id="text_2">
      <!-- 2008 -->
      <g style="fill:#323034;" transform="translate(134.44 243.933437)scale(0.12 -0.12)">
       <defs>
        <path d="M 2848 992 
Q 2848 499 2505 204 
Q 2163 -90 1587 -90 
Q 1050 -90 704 204 
Q 358 499 358 954 
Q 358 1293 524 1533 
Q 691 1773 1190 2125 
Q 710 2522 553 2765 
Q 397 3008 397 3328 
Q 397 3782 745 4054 
Q 1094 4326 1638 4326 
Q 2106 4326 2410 4060 
Q 2714 3795 2714 3411 
Q 2714 3059 2531 2848 
Q 2349 2637 1856 2374 
Q 2432 1990 2640 1689 
Q 2848 1389 2848 992 
z
M 2272 3411 
Q 2272 3744 2086 3945 
Q 1901 4147 1574 4147 
Q 1248 4147 1059 3977 
Q 870 3808 870 3513 
Q 870 3219 1059 2979 
Q 1248 2739 1670 2490 
Q 1997 2682 2134 2896 
Q 2272 3110 2272 3411 
z
M 1734 1741 
L 1357 1997 
Q 1075 1766 960 1545 
Q 845 1325 845 1011 
Q 845 576 1065 333 
Q 1286 90 1658 90 
Q 1971 90 2166 285 
Q 2362 480 2362 794 
Q 2362 1082 2214 1299 
Q 2067 1517 1734 1741 
z
" id="STIXGeneral-Regular-38" transform="scale(0.015625)"/>
       </defs>
       <use xlink:href="#STIXGeneral-Regular-32"/>
       <use x="49.999985" xlink:href="#STIXGeneral-Regular-30"/>
       <use x="99.999969" xlink:href="#STIXGeneral-Regular-30"/>
       <use x="149.999954" xlink:href="#STIXGeneral-Regular-38"/>
      </g>
     </g>
    </g>
    <g id="xtick_3">
     <g id="line2d_3">
      <g>
       <use style="fill:#323034;stroke:#323034;stroke-width:0.8;" x="213.4" xlink:href="#m7da218c047" y="228.737812"/>
      </g>
     </g>
     <g id="text_3">
      <!-- 2010 -->
      <g style="fill:#323034;" transform="translate(201.4 243.933437)scale(0.12 -0.12)">
       <defs>
        <path d="M 2522 0 
L 755 0 
L 755 96 
Q 1107 115 1235 227 
Q 1363 339 1363 608 
L 1363 3482 
Q 1363 3795 1171 3795 
Q 1082 3795 883 3718 
L 710 3654 
L 710 3744 
L 1856 4326 
L 1914 4307 
L 1914 486 
Q 1914 275 2042 185 
Q 2170 96 2522 96 
L 2522 0 
z
" id="STIXGeneral-Regular-31" transform="scale(0.015625)"/>
       </defs>
       <use xlink:href="#STIXGeneral-Regular-32"/>
       <use x="49.999985" xlink:href="#STIXGeneral-Regular-30"/>
       <use x="99.999969" xlink:href="#STIXGeneral-Regular-31"/>
       <use x="149.999954" xlink:href="#STIXGeneral-Regular-30"/>
      </g>
     </g>
    </g>
    <g id="xtick_4">
     <g id="line2d_4">
      <g>
       <use style="fill:#323034;stroke:#323034;stroke-width:0.8;" x="280.36" xlink:href="#m7da218c047" y="228.737812"/>
      </g>
     </g>
     <g id="text_4">
      <!-- 2012 -->
      <g style="fill:#323034;" transform="translate(268.36 243.933437)scale(0.12 -0.12)">
       <use xlink:href="#STIXGeneral-Regular-32"/>
       <use x="49.999985" xlink:href="#STIXGeneral-Regular-30"/>
       <use x="99.999969" xlink:href="#STIXGeneral-Regular-31"/>
       <use x="149.999954" xlink:href="#STIXGeneral-Regular-32"/>
      </g>
     </g>
    </g>
    <g id="xtick_5">
     <g id="line2d_5">
      <g>
       <use style="fill:#323034;stroke:#323034;stroke-width:0.8;" x="347.32" xlink:href="#m7da218c047" y="228.737812"/>
      </g>
     </g>
     <g id="text_5">
      <!-- 2014 -->
      <g style="fill:#323034;" transform="translate(335.32 243.933437)scale(0.12 -0.12)">
       <defs>
        <path d="M 3027 1069 
L 2368 1069 
L 2368 0 
L 1869 0 
L 1869 1069 
L 77 1069 
L 77 1478 
L 2086 4326 
L 2368 4326 
L 2368 1478 
L 3027 1478 
L 3027 1069 
z
M 1869 1478 
L 1869 3674 
L 333 1478 
L 1869 1478 
z
" id="STIXGeneral-Regular-34" transform="scale(0.015625)"/>
       </defs>
       <use xlink:href="#STIXGeneral-Regular-32"/>
       <use x="49.999985" xlink:href="#STIXGeneral-Regular-30"/>
       <use x="99.999969" xlink:href="#STIXGeneral-Regular-31"/>
       <use x="149.999954" xlink:href="#STIXGeneral-Regular-34"/>
      </g>
     </g>
    </g>
    <g id="xtick_6">
     <g id="line2d_6">
      <defs>
       <path d="M 0 0 
L 0 2 
" id="m9b01595b57" style="stroke:#323034;stroke-width:0.6;"/>
      </defs>
      <g>
       <use style="fill:#323034;stroke:#323034;stroke-width:0.6;" x="46" xlink:href="#m9b01595b57" y="228.737812"/>
      </g>
     </g>
    </g>
    <g id="xtick_7">
     <g id="line2d_7">
      <g>
       <use style="fill:#323034;stroke:#323034;stroke-width:0.6;" x="112.96" xlink:href="#m9b01595b57" y="228.737812"/>
      </g>
     </g>
    </g>
    <g id="xtick_8">
     <g id="line2d_8">
      <g>
       <use style="fill:#323034;stroke:#323034;stroke-width:0.6;" x="179.92" xlink:href="#m9b01595b57" y="228.737812"/>
      </g>
     </g>
    </g>
    <g id="xtick_9">
     <g id="line2d_9">
      <g>
       <use style="fill:#323034;stroke:#323034;stroke-width:0.6;" x="246.88" xlink:href="#m9b01595b57" y="228.737812"/>
      </g>
     </g>
    </g>
    <g id="xtick_10">
     <g id="line2d_10">
      <g>
       <use style="fill:#323034;stroke:#323034;stroke-width:0.6;" x="313.84" xlink:href="#m9b01595b57" y="228.737812"/>
      </g>
     </g>
    </g>
    <g id="xtick_11">
     <g id="line2d_11">
      <g>
       <use style="fill:#323034;stroke:#323034;stroke-width:0.6;" x="380.8" xlink:href="#m9b01595b57" y="228.737812"/>
      </g>
     </g>
    </g>
    <g id="text_6">
     <!-- datetime -->
     <g transform="translate(192.735625 257.733437)scale(0.12 -0.12)">
      <defs>
       <path d="M 3142 269 
L 2202 -64 
L 2176 -45 
L 2176 365 
Q 1869 -64 1357 -64 
Q 826 -64 499 317 
Q 173 698 173 1312 
Q 173 1990 563 2467 
Q 954 2944 1504 2944 
Q 1850 2944 2176 2669 
L 2176 3667 
Q 2176 3866 2118 3930 
Q 2061 3994 1882 3994 
Q 1792 3994 1741 3987 
L 1741 4090 
Q 2323 4243 2682 4371 
L 2714 4358 
L 2714 730 
Q 2714 506 2768 435 
Q 2822 365 2995 365 
Q 3034 365 3142 371 
L 3142 269 
z
M 2176 653 
L 2176 2125 
Q 2176 2381 1981 2573 
Q 1786 2765 1523 2765 
Q 1158 2765 940 2438 
Q 723 2112 723 1568 
Q 723 979 963 624 
Q 1203 269 1606 269 
Q 1907 269 2080 474 
Q 2176 582 2176 653 
z
" id="STIXGeneral-Regular-64" transform="scale(0.015625)"/>
       <path d="M 2829 422 
L 2829 243 
Q 2586 -64 2253 -64 
Q 1888 -64 1843 403 
L 1837 403 
Q 1427 -64 909 -64 
Q 608 -64 422 112 
Q 237 288 237 602 
Q 237 1050 685 1350 
Q 992 1555 1837 1869 
L 1837 2214 
Q 1837 2502 1699 2646 
Q 1562 2790 1338 2790 
Q 1146 2790 1018 2697 
Q 890 2605 890 2477 
Q 890 2419 909 2348 
Q 928 2278 928 2208 
Q 928 2112 841 2029 
Q 755 1946 634 1946 
Q 525 1946 441 2029 
Q 358 2112 358 2240 
Q 358 2547 685 2752 
Q 986 2944 1421 2944 
Q 1939 2944 2176 2656 
Q 2291 2522 2323 2384 
Q 2355 2246 2355 1946 
L 2355 723 
Q 2355 301 2554 301 
Q 2682 301 2829 422 
z
M 1837 813 
L 1837 1715 
Q 1248 1510 1018 1293 
Q 800 1094 800 800 
Q 800 557 921 432 
Q 1043 307 1242 307 
Q 1453 307 1613 410 
Q 1747 506 1792 589 
Q 1837 672 1837 813 
z
" id="STIXGeneral-Regular-61" transform="scale(0.015625)"/>
       <path d="M 1702 493 
L 1786 422 
Q 1478 -64 1011 -64 
Q 448 -64 448 749 
L 448 2675 
L 109 2675 
Q 83 2694 83 2720 
Q 83 2771 192 2842 
Q 435 2982 813 3526 
Q 826 3546 874 3606 
Q 922 3667 941 3706 
Q 986 3706 986 3622 
L 986 2880 
L 1632 2880 
L 1632 2675 
L 986 2675 
L 986 845 
Q 986 538 1062 403 
Q 1139 269 1318 269 
Q 1510 269 1702 493 
z
" id="STIXGeneral-Regular-74" transform="scale(0.015625)"/>
       <path d="M 2611 1050 
L 2714 1005 
Q 2330 -64 1376 -64 
Q 813 -64 486 329 
Q 160 723 160 1389 
Q 160 2074 525 2509 
Q 890 2944 1485 2944 
Q 2061 2944 2374 2502 
Q 2560 2246 2592 1773 
L 621 1773 
Q 646 1370 700 1158 
Q 755 947 915 730 
Q 1184 378 1626 378 
Q 1939 378 2153 531 
Q 2368 685 2611 1050 
z
M 634 1978 
L 1939 1978 
Q 1882 2381 1750 2547 
Q 1619 2714 1312 2714 
Q 1043 2714 864 2525 
Q 685 2336 634 1978 
z
" id="STIXGeneral-Regular-65" transform="scale(0.015625)"/>
       <path d="M 1152 4045 
Q 1152 3904 1056 3811 
Q 960 3718 819 3718 
Q 685 3718 592 3811 
Q 499 3904 499 4045 
Q 499 4179 595 4275 
Q 691 4371 826 4371 
Q 966 4371 1059 4275 
Q 1152 4179 1152 4045 
z
M 1619 0 
L 102 0 
L 102 96 
Q 435 115 521 211 
Q 608 307 608 666 
L 608 2118 
Q 608 2342 563 2432 
Q 518 2522 397 2522 
Q 243 2522 128 2490 
L 128 2592 
L 1120 2944 
L 1146 2918 
L 1146 672 
Q 1146 314 1226 218 
Q 1306 122 1619 96 
L 1619 0 
z
" id="STIXGeneral-Regular-69" transform="scale(0.015625)"/>
       <path d="M 4960 0 
L 3565 0 
L 3565 96 
Q 3834 122 3907 208 
Q 3981 294 3981 576 
L 3981 1894 
Q 3981 2278 3869 2444 
Q 3757 2611 3488 2611 
Q 3264 2611 3107 2521 
Q 2950 2432 2803 2221 
L 2803 608 
Q 2803 301 2896 201 
Q 2989 102 3264 96 
L 3264 0 
L 1830 0 
L 1830 96 
Q 2112 115 2189 188 
Q 2266 262 2266 550 
L 2266 1901 
Q 2266 2611 1850 2611 
Q 1670 2611 1468 2531 
Q 1267 2451 1171 2336 
Q 1088 2240 1088 2227 
L 1088 448 
Q 1088 243 1177 176 
Q 1267 109 1523 96 
L 1523 0 
L 102 0 
L 102 96 
Q 371 102 460 195 
Q 550 288 550 563 
L 550 2150 
Q 550 2387 499 2480 
Q 448 2573 326 2573 
Q 230 2573 122 2547 
L 122 2656 
Q 557 2778 1011 2944 
L 1062 2925 
L 1062 2451 
L 1075 2451 
Q 1363 2752 1584 2848 
Q 1805 2944 2054 2944 
Q 2560 2944 2733 2406 
Q 3232 2944 3776 2944 
Q 4518 2944 4518 1792 
L 4518 493 
Q 4518 282 4582 202 
Q 4646 122 4794 109 
L 4960 96 
L 4960 0 
z
" id="STIXGeneral-Regular-6d" transform="scale(0.015625)"/>
      </defs>
      <use xlink:href="#STIXGeneral-Regular-64"/>
      <use x="49.999985" xlink:href="#STIXGeneral-Regular-61"/>
      <use x="94.399979" xlink:href="#STIXGeneral-Regular-74"/>
      <use x="122.199966" xlink:href="#STIXGeneral-Regular-65"/>
      <use x="166.59996" xlink:href="#STIXGeneral-Regular-74"/>
      <use x="194.399948" xlink:href="#STIXGeneral-Regular-69"/>
      <use x="222.199936" xlink:href="#STIXGeneral-Regular-6d"/>
      <use x="299.999924" xlink:href="#STIXGeneral-Regular-65"/>
     </g>
    </g>
   </g>
   <g id="matplotlib.axis_2">
    <g id="ytick_1">
     <g id="line2d_12">
      <defs>
       <path d="M 0 0 
L -3.5 0 
" id="m4fa83c9686" style="stroke:#323034;stroke-width:0.8;"/>
      </defs>
      <g>
       <use style="fill:#323034;stroke:#323034;stroke-width:0.8;" x="46" xlink:href="#m4fa83c9686" y="228.737812"/>
      </g>
     </g>
     <g id="text_7">
      <!-- $\mathdefault{0}$ -->
      <g style="fill:#323034;" transform="translate(33 232.835625)scale(0.12 -0.12)">
       <use transform="translate(0 0.40625)" xlink:href="#STIXGeneral-Regular-30"/>
      </g>
     </g>
    </g>
    <g id="ytick_2">
     <g id="line2d_13">
      <g>
       <use style="fill:#323034;stroke:#323034;stroke-width:0.8;" x="46" xlink:href="#m4fa83c9686" y="197.674955"/>
      </g>
     </g>
     <g id="text_8">
      <!-- $\mathdefault{20}$ -->
      <g style="fill:#323034;" transform="translate(27 201.772768)scale(0.12 -0.12)">
       <use transform="translate(0 0.40625)" xlink:href="#STIXGeneral-Regular-32"/>
       <use transform="translate(49.999985 0.40625)" xlink:href="#STIXGeneral-Regular-30"/>
      </g>
     </g>
    </g>
    <g id="ytick_3">
     <g id="line2d_14">
      <g>
       <use style="fill:#323034;stroke:#323034;stroke-width:0.8;" x="46" xlink:href="#m4fa83c9686" y="166.612098"/>
      </g>
     </g>
     <g id="text_9">
      <!-- $\mathdefault{40}$ -->
      <g style="fill:#323034;" transform="translate(27 170.709911)scale(0.12 -0.12)">
       <use transform="translate(0 0.40625)" xlink:href="#STIXGeneral-Regular-34"/>
       <use transform="translate(49.999985 0.40625)" xlink:href="#STIXGeneral-Regular-30"/>
      </g>
     </g>
    </g>
    <g id="ytick_4">
     <g id="line2d_15">
      <g>
       <use style="fill:#323034;stroke:#323034;stroke-width:0.8;" x="46" xlink:href="#m4fa83c9686" y="135.549241"/>
      </g>
     </g>
     <g id="text_10">
      <!-- $\mathdefault{60}$ -->
      <g style="fill:#323034;" transform="translate(27 139.647054)scale(0.12 -0.12)">
       <use transform="translate(0 0.59375)" xlink:href="#STIXGeneral-Regular-36"/>
       <use transform="translate(49.999985 0.59375)" xlink:href="#STIXGeneral-Regular-30"/>
      </g>
     </g>
    </g>
    <g id="ytick_5">
     <g id="line2d_16">
      <g>
       <use style="fill:#323034;stroke:#323034;stroke-width:0.8;" x="46" xlink:href="#m4fa83c9686" y="104.486384"/>
      </g>
     </g>
     <g id="text_11">
      <!-- $\mathdefault{80}$ -->
      <g style="fill:#323034;" transform="translate(27 108.584196)scale(0.12 -0.12)">
       <use transform="translate(0 0.40625)" xlink:href="#STIXGeneral-Regular-38"/>
       <use transform="translate(49.999985 0.40625)" xlink:href="#STIXGeneral-Regular-30"/>
      </g>
     </g>
    </g>
    <g id="ytick_6">
     <g id="line2d_17">
      <g>
       <use style="fill:#323034;stroke:#323034;stroke-width:0.8;" x="46" xlink:href="#m4fa83c9686" y="73.423527"/>
      </g>
     </g>
     <g id="text_12">
      <!-- $\mathdefault{100}$ -->
      <g style="fill:#323034;" transform="translate(21 77.521339)scale(0.12 -0.12)">
       <use transform="translate(0 0.40625)" xlink:href="#STIXGeneral-Regular-31"/>
       <use transform="translate(49.999985 0.40625)" xlink:href="#STIXGeneral-Regular-30"/>
       <use transform="translate(99.999969 0.40625)" xlink:href="#STIXGeneral-Regular-30"/>
      </g>
     </g>
    </g>
    <g id="ytick_7">
     <g id="line2d_18">
      <g>
       <use style="fill:#323034;stroke:#323034;stroke-width:0.8;" x="46" xlink:href="#m4fa83c9686" y="42.36067"/>
      </g>
     </g>
     <g id="text_13">
      <!-- $\mathdefault{120}$ -->
      <g style="fill:#323034;" transform="translate(21 46.458482)scale(0.12 -0.12)">
       <use transform="translate(0 0.40625)" xlink:href="#STIXGeneral-Regular-31"/>
       <use transform="translate(49.999985 0.40625)" xlink:href="#STIXGeneral-Regular-32"/>
       <use transform="translate(99.999969 0.40625)" xlink:href="#STIXGeneral-Regular-30"/>
      </g>
     </g>
    </g>
    <g id="ytick_8">
     <g id="line2d_19">
      <g>
       <use style="fill:#323034;stroke:#323034;stroke-width:0.8;" x="46" xlink:href="#m4fa83c9686" y="11.297812"/>
      </g>
     </g>
     <g id="text_14">
      <!-- $\mathdefault{140}$ -->
      <g style="fill:#323034;" transform="translate(21 15.395625)scale(0.12 -0.12)">
       <use transform="translate(0 0.40625)" xlink:href="#STIXGeneral-Regular-31"/>
       <use transform="translate(49.999985 0.40625)" xlink:href="#STIXGeneral-Regular-34"/>
       <use transform="translate(99.999969 0.40625)" xlink:href="#STIXGeneral-Regular-30"/>
      </g>
     </g>
    </g>
    <g id="text_15">
     <!-- Count -->
     <g transform="translate(15.395625 134.687812)rotate(-90)scale(0.12 -0.12)">
      <defs>
       <path d="M 3930 838 
L 4051 723 
Q 3482 -90 2304 -90 
Q 1376 -90 794 480 
Q 179 1082 179 2080 
Q 179 3014 755 3661 
Q 1357 4326 2310 4326 
Q 2720 4326 3072 4230 
Q 3475 4115 3514 4115 
Q 3725 4115 3782 4326 
L 3910 4326 
L 3968 2874 
L 3821 2874 
Q 3718 3334 3488 3584 
Q 3034 4070 2458 4070 
Q 1747 4070 1334 3548 
Q 922 3027 922 2182 
Q 922 1152 1382 653 
Q 1811 192 2522 192 
Q 2944 192 3251 339 
Q 3558 486 3930 838 
z
" id="STIXGeneral-Regular-43" transform="scale(0.015625)"/>
       <path d="M 3008 1478 
Q 3008 806 2608 371 
Q 2208 -64 1568 -64 
Q 979 -64 582 368 
Q 186 800 186 1459 
Q 186 2125 582 2534 
Q 979 2944 1626 2944 
Q 2221 2944 2614 2537 
Q 3008 2131 3008 1478 
z
M 2432 1306 
Q 2432 2035 2112 2445 
Q 1856 2765 1504 2765 
Q 1171 2765 966 2493 
Q 762 2221 762 1747 
Q 762 928 1101 435 
Q 1318 115 1677 115 
Q 2029 115 2230 432 
Q 2432 749 2432 1306 
z
" id="STIXGeneral-Regular-6f" transform="scale(0.015625)"/>
       <path d="M 3072 320 
L 3072 230 
Q 2573 96 2195 -58 
L 2163 -38 
L 2163 486 
L 2150 486 
Q 1747 -64 1235 -64 
Q 870 -64 662 160 
Q 454 384 454 755 
L 454 2362 
Q 454 2598 371 2688 
Q 288 2778 58 2790 
L 58 2880 
L 992 2880 
L 992 813 
Q 992 595 1123 451 
Q 1254 307 1446 307 
Q 1760 307 1984 506 
Q 2067 582 2099 649 
Q 2131 717 2131 877 
L 2131 2355 
Q 2131 2605 2041 2678 
Q 1952 2752 1658 2771 
L 1658 2880 
L 2669 2880 
L 2669 685 
Q 2669 461 2742 390 
Q 2816 320 3034 320 
L 3072 320 
z
" id="STIXGeneral-Regular-75" transform="scale(0.015625)"/>
       <path d="M 3104 0 
L 1773 0 
L 1779 96 
Q 2016 115 2096 233 
Q 2176 352 2176 672 
L 2176 1946 
Q 2176 2592 1709 2592 
Q 1549 2592 1408 2515 
Q 1267 2438 1050 2227 
L 1050 461 
Q 1050 269 1136 192 
Q 1222 115 1466 96 
L 1466 0 
L 115 0 
L 115 96 
Q 358 115 435 214 
Q 512 314 512 602 
L 512 2157 
Q 512 2394 467 2483 
Q 422 2573 288 2573 
Q 160 2573 102 2547 
L 102 2656 
Q 550 2784 979 2944 
L 1030 2925 
L 1030 2426 
L 1037 2426 
Q 1491 2944 1958 2944 
Q 2323 2944 2518 2688 
Q 2714 2432 2714 1958 
L 2714 544 
Q 2714 288 2790 205 
Q 2867 122 3104 96 
L 3104 0 
z
" id="STIXGeneral-Regular-6e" transform="scale(0.015625)"/>
      </defs>
      <use xlink:href="#STIXGeneral-Regular-43"/>
      <use x="66.699997" xlink:href="#STIXGeneral-Regular-6f"/>
      <use x="116.699982" xlink:href="#STIXGeneral-Regular-75"/>
      <use x="166.699966" xlink:href="#STIXGeneral-Regular-6e"/>
      <use x="216.699951" xlink:href="#STIXGeneral-Regular-74"/>
     </g>
    </g>
   </g>
   <g id="line2d_20">
    <path clip-path="url(#pe208fb7b01)" d="M 46 227.18467 
L 79.48 228.737812 
L 112.96 227.18467 
L 146.44 227.18467 
L 179.92 227.18467 
L 213.4 228.737812 
L 246.88 228.737812 
L 280.36 228.737812 
L 313.84 228.737812 
L 347.32 227.18467 
L 380.8 228.737812 
" style="fill:none;stroke:#bc80bd;stroke-linecap:square;stroke-width:2;"/>
   </g>
   <g id="line2d_21">
    <path clip-path="url(#pe208fb7b01)" d="M 46 214.759527 
L 79.48 210.100098 
L 112.96 208.546955 
L 146.44 210.100098 
L 179.92 217.865812 
L 213.4 219.418955 
L 246.88 222.525241 
L 280.36 213.206384 
L 313.84 216.31267 
L 347.32 206.993812 
L 380.8 225.631527 
" style="fill:none;stroke:#fb8072;stroke-linecap:square;stroke-width:2;"/>
   </g>
   <g id="line2d_22">
    <path clip-path="url(#pe208fb7b01)" d="M 46 87.401812 
L 79.48 54.785812 
L 112.96 79.636098 
L 146.44 92.061241 
L 179.92 147.974384 
L 213.4 158.846384 
L 246.88 144.868098 
L 280.36 107.59267 
L 313.84 112.252098 
L 347.32 112.252098 
L 380.8 205.44067 
" style="fill:none;stroke:#b3de69;stroke-linecap:square;stroke-width:2;"/>
   </g>
   <g id="line2d_23">
    <path clip-path="url(#pe208fb7b01)" d="M 46 73.423527 
L 79.48 25.276098 
L 112.96 57.892098 
L 146.44 62.551527 
L 179.92 146.421241 
L 213.4 146.421241 
L 246.88 126.230384 
L 280.36 78.082955 
L 313.84 82.742384 
L 347.32 74.97667 
L 380.8 199.228098 
" style="fill:none;stroke:#fdb462;stroke-linecap:square;stroke-width:2;"/>
   </g>
   <g id="patch_3">
    <path d="M 46 228.737812 
L 46 11.297812 
" style="fill:none;stroke:#000000;stroke-linecap:square;stroke-linejoin:miter;stroke-width:0.6;"/>
   </g>
   <g id="patch_4">
    <path d="M 46 228.737812 
L 380.8 228.737812 
" style="fill:none;stroke:#000000;stroke-linecap:square;stroke-linejoin:miter;stroke-width:0.6;"/>
   </g>
   <g id="legend_1">
    <g id="patch_5">
     <path d="M 53 153.758437 
L 127.659375 153.758437 
Q 129.659375 153.758437 129.659375 151.758437 
L 129.659375 88.277187 
Q 129.659375 86.277187 127.659375 86.277187 
L 53 86.277187 
Q 51 86.277187 51 88.277187 
L 51 151.758437 
Q 51 153.758437 53 153.758437 
z
" style="fill:#ffffff;opacity:0.8;stroke:#e6e6e6;stroke-linejoin:miter;stroke-width:0.8;"/>
    </g>
    <g id="text_16">
     <!-- class_ln_price -->
     <g style="fill:#323034;" transform="translate(56.002188 96.472812)scale(0.12 -0.12)">
      <defs>
       <path d="M 2547 998 
L 2637 941 
Q 2362 403 2112 205 
Q 1786 -64 1376 -64 
Q 845 -64 502 336 
Q 160 736 160 1357 
Q 160 2170 698 2618 
Q 1094 2944 1562 2944 
Q 1965 2944 2256 2749 
Q 2547 2554 2547 2285 
Q 2547 2176 2457 2096 
Q 2368 2016 2246 2016 
Q 2022 2016 1939 2310 
L 1901 2451 
Q 1850 2630 1773 2694 
Q 1696 2758 1523 2758 
Q 1133 2758 893 2451 
Q 653 2144 653 1645 
Q 653 1094 928 745 
Q 1203 397 1645 397 
Q 1920 397 2118 528 
Q 2317 659 2547 998 
z
" id="STIXGeneral-Regular-63" transform="scale(0.015625)"/>
       <path d="M 1645 0 
L 134 0 
L 134 96 
Q 435 122 531 221 
Q 627 320 627 589 
L 627 3590 
Q 627 3821 569 3910 
Q 512 4000 358 4000 
Q 224 4000 122 3987 
L 122 4090 
Q 730 4237 1133 4371 
L 1165 4346 
L 1165 557 
Q 1165 288 1254 201 
Q 1344 115 1645 96 
L 1645 0 
z
" id="STIXGeneral-Regular-6c" transform="scale(0.015625)"/>
       <path d="M 998 1926 
L 1664 1523 
Q 1984 1331 2105 1164 
Q 2227 998 2227 736 
Q 2227 416 1961 176 
Q 1696 -64 1331 -64 
Q 1030 -64 864 -6 
Q 691 51 570 51 
Q 461 51 416 -26 
L 333 -26 
L 333 979 
L 435 979 
Q 538 512 730 294 
Q 922 77 1248 77 
Q 1485 77 1632 211 
Q 1779 346 1779 550 
Q 1779 845 1440 1030 
L 1094 1222 
Q 326 1651 326 2150 
Q 326 2522 566 2730 
Q 806 2938 1210 2938 
Q 1491 2938 1638 2867 
Q 1754 2816 1818 2816 
Q 1862 2816 1920 2880 
L 1990 2880 
L 2022 2010 
L 1926 2010 
Q 1818 2445 1654 2621 
Q 1491 2797 1203 2797 
Q 986 2797 854 2688 
Q 723 2579 723 2362 
Q 723 2253 796 2128 
Q 870 2003 998 1926 
z
" id="STIXGeneral-Regular-73" transform="scale(0.015625)"/>
       <path d="M 3200 -800 
L 0 -800 
L 0 -480 
L 3200 -480 
L 3200 -800 
z
" id="STIXGeneral-Regular-5f" transform="scale(0.015625)"/>
       <path d="M 1018 2931 
L 1018 2438 
Q 1421 2944 1939 2944 
Q 2406 2944 2707 2560 
Q 3008 2176 3008 1581 
Q 3008 883 2621 409 
Q 2234 -64 1664 -64 
Q 1466 -64 1328 -6 
Q 1190 51 1018 211 
L 1018 -794 
Q 1018 -1094 1120 -1180 
Q 1222 -1267 1581 -1274 
L 1581 -1389 
L 32 -1389 
L 32 -1280 
Q 314 -1254 397 -1171 
Q 480 -1088 480 -838 
L 480 2157 
Q 480 2381 429 2451 
Q 378 2522 218 2522 
Q 115 2522 58 2515 
L 58 2618 
Q 506 2752 979 2944 
L 1018 2931 
z
M 1018 2138 
L 1018 563 
Q 1018 422 1238 281 
Q 1459 141 1683 141 
Q 2029 141 2243 467 
Q 2458 794 2458 1325 
Q 2458 1888 2243 2224 
Q 2029 2560 1670 2560 
Q 1446 2560 1232 2419 
Q 1018 2278 1018 2138 
z
" id="STIXGeneral-Regular-70" transform="scale(0.015625)"/>
       <path d="M 1024 2931 
L 1024 2342 
Q 1267 2688 1430 2816 
Q 1594 2944 1792 2944 
Q 1958 2944 2051 2854 
Q 2144 2765 2144 2605 
Q 2144 2470 2077 2393 
Q 2010 2317 1894 2317 
Q 1773 2317 1638 2445 
Q 1536 2541 1472 2541 
Q 1338 2541 1181 2355 
Q 1024 2170 1024 2016 
L 1024 576 
Q 1024 301 1133 205 
Q 1242 109 1568 96 
L 1568 0 
L 32 0 
L 32 96 
Q 339 154 412 224 
Q 486 294 486 538 
L 486 2138 
Q 486 2349 438 2435 
Q 390 2522 269 2522 
Q 166 2522 45 2496 
L 45 2598 
Q 448 2726 992 2944 
L 1024 2931 
z
" id="STIXGeneral-Regular-72" transform="scale(0.015625)"/>
      </defs>
      <use xlink:href="#STIXGeneral-Regular-63"/>
      <use x="44.399994" xlink:href="#STIXGeneral-Regular-6c"/>
      <use x="72.199982" xlink:href="#STIXGeneral-Regular-61"/>
      <use x="116.599976" xlink:href="#STIXGeneral-Regular-73"/>
      <use x="155.499969" xlink:href="#STIXGeneral-Regular-73"/>
      <use x="194.399963" xlink:href="#STIXGeneral-Regular-5f"/>
      <use x="244.399948" xlink:href="#STIXGeneral-Regular-6c"/>
      <use x="272.199936" xlink:href="#STIXGeneral-Regular-6e"/>
      <use x="322.199921" xlink:href="#STIXGeneral-Regular-5f"/>
      <use x="372.199905" xlink:href="#STIXGeneral-Regular-70"/>
      <use x="422.19989" xlink:href="#STIXGeneral-Regular-72"/>
      <use x="455.499878" xlink:href="#STIXGeneral-Regular-69"/>
      <use x="483.299866" xlink:href="#STIXGeneral-Regular-63"/>
      <use x="527.69986" xlink:href="#STIXGeneral-Regular-65"/>
     </g>
    </g>
    <g id="patch_6">
     <path d="M 53 110.077187 
L 73 110.077187 
L 73 103.077187 
L 53 103.077187 
z
" style="fill:#bc80bd;stroke:#bc80bd;stroke-linejoin:miter;stroke-width:0.8;"/>
    </g>
    <g id="text_17">
     <!-- (9.0, 10.0] -->
     <g style="fill:#323034;" transform="translate(81 110.077187)scale(0.1 -0.1)">
      <defs>
       <path d="M 1946 -1030 
L 1869 -1133 
Q 1126 -710 716 32 
Q 307 774 307 1613 
Q 307 3386 1888 4326 
L 1946 4224 
Q 1293 3667 1075 3126 
Q 858 2586 858 1632 
Q 858 685 1082 96 
Q 1306 -493 1946 -1030 
z
" id="STIXGeneral-Regular-28" transform="scale(0.015625)"/>
       <path d="M 378 -141 
L 358 -13 
Q 1094 115 1603 608 
Q 2112 1101 2304 1882 
Q 1933 1517 1344 1517 
Q 826 1517 509 1875 
Q 192 2234 192 2816 
Q 192 3462 573 3894 
Q 954 4326 1523 4326 
Q 2131 4326 2528 3840 
Q 2938 3328 2938 2522 
Q 2938 1958 2742 1462 
Q 2547 966 2170 621 
Q 1773 262 1395 105 
Q 1018 -51 378 -141 
z
M 2317 2272 
L 2317 2522 
Q 2317 4147 1472 4147 
Q 1171 4147 1005 3930 
Q 909 3802 845 3546 
Q 781 3290 781 3034 
Q 781 2464 995 2128 
Q 1210 1792 1568 1792 
Q 1824 1792 2070 1917 
Q 2317 2042 2317 2272 
z
" id="STIXGeneral-Regular-39" transform="scale(0.015625)"/>
       <path d="M 1158 275 
Q 1158 134 1052 32 
Q 947 -70 800 -70 
Q 653 -70 550 32 
Q 448 134 448 281 
Q 448 429 553 534 
Q 659 640 806 640 
Q 947 640 1052 531 
Q 1158 422 1158 275 
z
" id="STIXGeneral-Regular-2e" transform="scale(0.015625)"/>
       <path d="M 531 -902 
L 467 -781 
Q 998 -422 998 -96 
Q 998 -13 909 -13 
Q 883 -13 822 -25 
Q 762 -38 723 -38 
Q 352 -38 352 288 
Q 352 454 457 553 
Q 563 653 736 653 
Q 954 653 1101 496 
Q 1248 339 1248 96 
Q 1248 -198 1053 -473 
Q 858 -749 531 -902 
z
" id="STIXGeneral-Regular-2c" transform="scale(0.015625)"/>
       <path id="STIXGeneral-Regular-20" transform="scale(0.015625)"/>
       <path d="M 1568 -998 
L 218 -998 
L 218 -838 
L 781 -838 
Q 947 -838 1014 -768 
Q 1082 -698 1082 -544 
L 1082 3731 
Q 1082 4077 755 4077 
L 218 4077 
L 218 4237 
L 1568 4237 
L 1568 -998 
z
" id="STIXGeneral-Regular-5d" transform="scale(0.015625)"/>
      </defs>
      <use xlink:href="#STIXGeneral-Regular-28"/>
      <use x="33.299988" xlink:href="#STIXGeneral-Regular-39"/>
      <use x="83.299973" xlink:href="#STIXGeneral-Regular-2e"/>
      <use x="108.299957" xlink:href="#STIXGeneral-Regular-30"/>
      <use x="158.299942" xlink:href="#STIXGeneral-Regular-2c"/>
      <use x="183.299927" xlink:href="#STIXGeneral-Regular-20"/>
      <use x="208.299911" xlink:href="#STIXGeneral-Regular-31"/>
      <use x="258.299896" xlink:href="#STIXGeneral-Regular-30"/>
      <use x="308.299881" xlink:href="#STIXGeneral-Regular-2e"/>
      <use x="333.299866" xlink:href="#STIXGeneral-Regular-30"/>
      <use x="383.29985" xlink:href="#STIXGeneral-Regular-5d"/>
     </g>
    </g>
    <g id="patch_7">
     <path d="M 53 123.2475 
L 73 123.2475 
L 73 116.2475 
L 53 116.2475 
z
" style="fill:#fb8072;stroke:#fb8072;stroke-linejoin:miter;stroke-width:0.8;"/>
    </g>
    <g id="text_18">
     <!-- (10.0, 11.0] -->
     <g style="fill:#323034;" transform="translate(81 123.2475)scale(0.1 -0.1)">
      <use xlink:href="#STIXGeneral-Regular-28"/>
      <use x="33.299988" xlink:href="#STIXGeneral-Regular-31"/>
      <use x="83.299973" xlink:href="#STIXGeneral-Regular-30"/>
      <use x="133.299957" xlink:href="#STIXGeneral-Regular-2e"/>
      <use x="158.299942" xlink:href="#STIXGeneral-Regular-30"/>
      <use x="208.299927" xlink:href="#STIXGeneral-Regular-2c"/>
      <use x="233.299911" xlink:href="#STIXGeneral-Regular-20"/>
      <use x="258.299896" xlink:href="#STIXGeneral-Regular-31"/>
      <use x="308.299881" xlink:href="#STIXGeneral-Regular-31"/>
      <use x="358.299866" xlink:href="#STIXGeneral-Regular-2e"/>
      <use x="383.29985" xlink:href="#STIXGeneral-Regular-30"/>
      <use x="433.299835" xlink:href="#STIXGeneral-Regular-5d"/>
     </g>
    </g>
    <g id="patch_8">
     <path d="M 53 136.417812 
L 73 136.417812 
L 73 129.417812 
L 53 129.417812 
z
" style="fill:#b3de69;stroke:#b3de69;stroke-linejoin:miter;stroke-width:0.8;"/>
    </g>
    <g id="text_19">
     <!-- (11.0, 12.0] -->
     <g style="fill:#323034;" transform="translate(81 136.417812)scale(0.1 -0.1)">
      <use xlink:href="#STIXGeneral-Regular-28"/>
      <use x="33.299988" xlink:href="#STIXGeneral-Regular-31"/>
      <use x="83.299973" xlink:href="#STIXGeneral-Regular-31"/>
      <use x="133.299957" xlink:href="#STIXGeneral-Regular-2e"/>
      <use x="158.299942" xlink:href="#STIXGeneral-Regular-30"/>
      <use x="208.299927" xlink:href="#STIXGeneral-Regular-2c"/>
      <use x="233.299911" xlink:href="#STIXGeneral-Regular-20"/>
      <use x="258.299896" xlink:href="#STIXGeneral-Regular-31"/>
      <use x="308.299881" xlink:href="#STIXGeneral-Regular-32"/>
      <use x="358.299866" xlink:href="#STIXGeneral-Regular-2e"/>
      <use x="383.29985" xlink:href="#STIXGeneral-Regular-30"/>
      <use x="433.299835" xlink:href="#STIXGeneral-Regular-5d"/>
     </g>
    </g>
    <g id="patch_9">
     <path d="M 53 149.588125 
L 73 149.588125 
L 73 142.588125 
L 53 142.588125 
z
" style="fill:#fdb462;stroke:#fdb462;stroke-linejoin:miter;stroke-width:0.8;"/>
    </g>
    <g id="text_20">
     <!-- (12.0, 13.0] -->
     <g style="fill:#323034;" transform="translate(81 149.588125)scale(0.1 -0.1)">
      <defs>
       <path d="M 390 3264 
L 288 3290 
Q 435 3770 748 4048 
Q 1062 4326 1542 4326 
Q 1990 4326 2265 4083 
Q 2541 3840 2541 3450 
Q 2541 2925 1946 2566 
Q 2298 2413 2477 2227 
Q 2758 1914 2758 1402 
Q 2758 890 2464 506 
Q 2246 211 1840 60 
Q 1434 -90 979 -90 
Q 262 -90 262 275 
Q 262 378 339 442 
Q 416 506 525 506 
Q 685 506 915 339 
Q 1197 141 1466 141 
Q 1818 141 2058 425 
Q 2298 710 2298 1120 
Q 2298 1856 1632 2048 
Q 1434 2112 979 2112 
L 979 2202 
Q 1338 2323 1517 2432 
Q 2035 2726 2035 3290 
Q 2035 3610 1852 3776 
Q 1670 3942 1344 3942 
Q 768 3942 390 3264 
z
" id="STIXGeneral-Regular-33" transform="scale(0.015625)"/>
      </defs>
      <use xlink:href="#STIXGeneral-Regular-28"/>
      <use x="33.299988" xlink:href="#STIXGeneral-Regular-31"/>
      <use x="83.299973" xlink:href="#STIXGeneral-Regular-32"/>
      <use x="133.299957" xlink:href="#STIXGeneral-Regular-2e"/>
      <use x="158.299942" xlink:href="#STIXGeneral-Regular-30"/>
      <use x="208.299927" xlink:href="#STIXGeneral-Regular-2c"/>
      <use x="233.299911" xlink:href="#STIXGeneral-Regular-20"/>
      <use x="258.299896" xlink:href="#STIXGeneral-Regular-31"/>
      <use x="308.299881" xlink:href="#STIXGeneral-Regular-33"/>
      <use x="358.299866" xlink:href="#STIXGeneral-Regular-2e"/>
      <use x="383.29985" xlink:href="#STIXGeneral-Regular-30"/>
      <use x="433.299835" xlink:href="#STIXGeneral-Regular-5d"/>
     </g>
    </g>
   </g>
  </g>
 </g>
 <defs>
  <clipPath id="pe208fb7b01">
   <rect height="217.44" width="334.8" x="46" y="11.297812"/>
  </clipPath>
 </defs>
</svg>
