<?xml version="1.0" encoding="utf-8" standalone="no"?>
<!DOCTYPE svg PUBLIC "-//W3C//DTD SVG 1.1//EN"
  "http://www.w3.org/Graphics/SVG/1.1/DTD/svg11.dtd">
<svg height="253.749062pt" version="1.1" viewBox="0 0 394.621562 253.749062" width="394.621562pt" xmlns="http://www.w3.org/2000/svg" xmlns:xlink="http://www.w3.org/1999/xlink">
 <metadata>
  <rdf:RDF xmlns:cc="http://creativecommons.org/ns#" xmlns:dc="http://purl.org/dc/elements/1.1/" xmlns:rdf="http://www.w3.org/1999/02/22-rdf-syntax-ns#">
   <cc:Work>
    <dc:type rdf:resource="http://purl.org/dc/dcmitype/StillImage"/>
    <dc:date>2022-08-20T18:05:47.718953</dc:date>
    <dc:format>image/svg+xml</dc:format>
    <dc:creator>
     <cc:Agent>
      <dc:title>Matplotlib v3.4.3, https://matplotlib.org/</dc:title>
     </cc:Agent>
    </dc:creator>
   </cc:Work>
  </rdf:RDF>
 </metadata>
 <defs>
  <style type="text/css">*{stroke-linecap:butt;stroke-linejoin:round;}</style>
 </defs>
 <g id="figure_1">
  <g id="patch_1">
   <path d="M 0 253.749062 
L 394.621562 253.749062 
L 394.621562 0 
L 0 0 
z
" style="fill:none;"/>
  </g>
  <g id="axes_1">
   <g id="patch_2">
    <path d="M 40.48 228.737812 
L 375.28 228.737812 
L 375.28 11.297812 
L 40.48 11.297812 
z
" style="fill:#ffffff;"/>
   </g>
   <g id="matplotlib.axis_1">
    <g id="xtick_1">
     <g id="line2d_1">
      <defs>
       <path d="M 0 0 
L 0 3.5 
" id="m9c91371774" style="stroke:#323034;stroke-width:0.8;"/>
      </defs>
      <g>
       <use style="fill:#323034;stroke:#323034;stroke-width:0.8;" x="82.33" xlink:href="#m9c91371774" y="228.737812"/>
      </g>
     </g>
     <g id="text_1">
      <!-- height -->
      <g style="fill:#323034;" transform="translate(67.33 243.933437)scale(0.12 -0.12)">
       <defs>
        <path d="M 3117 0 
L 1760 0 
L 1760 96 
Q 2042 128 2118 224 
Q 2195 320 2195 653 
L 2195 1920 
Q 2195 2598 1722 2598 
Q 1530 2598 1370 2508 
Q 1210 2419 1005 2195 
L 1005 653 
Q 1005 320 1081 224 
Q 1158 128 1440 96 
L 1440 0 
L 58 0 
L 58 96 
Q 333 134 400 224 
Q 467 314 467 653 
L 467 3667 
Q 467 3872 406 3933 
Q 346 3994 141 3994 
Q 83 3994 64 3987 
L 64 4090 
L 237 4141 
Q 730 4288 973 4371 
L 1005 4352 
L 1005 2406 
Q 1229 2694 1446 2819 
Q 1664 2944 1946 2944 
Q 2733 2944 2733 1926 
L 2733 653 
Q 2733 320 2793 233 
Q 2854 147 3117 96 
L 3117 0 
z
" id="STIXGeneral-Regular-68" transform="scale(0.015625)"/>
        <path d="M 2611 1050 
L 2714 1005 
Q 2330 -64 1376 -64 
Q 813 -64 486 329 
Q 160 723 160 1389 
Q 160 2074 525 2509 
Q 890 2944 1485 2944 
Q 2061 2944 2374 2502 
Q 2560 2246 2592 1773 
L 621 1773 
Q 646 1370 700 1158 
Q 755 947 915 730 
Q 1184 378 1626 378 
Q 1939 378 2153 531 
Q 2368 685 2611 1050 
z
M 634 1978 
L 1939 1978 
Q 1882 2381 1750 2547 
Q 1619 2714 1312 2714 
Q 1043 2714 864 2525 
Q 685 2336 634 1978 
z
" id="STIXGeneral-Regular-65" transform="scale(0.015625)"/>
        <path d="M 1152 4045 
Q 1152 3904 1056 3811 
Q 960 3718 819 3718 
Q 685 3718 592 3811 
Q 499 3904 499 4045 
Q 499 4179 595 4275 
Q 691 4371 826 4371 
Q 966 4371 1059 4275 
Q 1152 4179 1152 4045 
z
M 1619 0 
L 102 0 
L 102 96 
Q 435 115 521 211 
Q 608 307 608 666 
L 608 2118 
Q 608 2342 563 2432 
Q 518 2522 397 2522 
Q 243 2522 128 2490 
L 128 2592 
L 1120 2944 
L 1146 2918 
L 1146 672 
Q 1146 314 1226 218 
Q 1306 122 1619 96 
L 1619 0 
z
" id="STIXGeneral-Regular-69" transform="scale(0.015625)"/>
        <path d="M 3008 2483 
L 2477 2483 
Q 2598 2208 2598 1946 
Q 2598 1453 2265 1203 
Q 1933 954 1600 954 
Q 1530 954 1357 973 
L 1235 986 
Q 1107 947 979 812 
Q 851 678 851 582 
Q 851 435 1350 410 
L 2176 371 
Q 2528 358 2739 172 
Q 2950 -13 2950 -314 
Q 2950 -685 2566 -986 
Q 2035 -1395 1286 -1395 
Q 826 -1395 502 -1212 
Q 179 -1030 179 -774 
Q 179 -595 320 -419 
Q 461 -243 806 6 
Q 602 102 534 172 
Q 467 243 467 346 
Q 467 531 762 787 
Q 909 915 1037 1043 
Q 717 1203 579 1401 
Q 442 1600 442 1901 
Q 442 2336 752 2640 
Q 1062 2944 1510 2944 
Q 1766 2944 2022 2848 
L 2163 2797 
Q 2349 2733 2515 2733 
L 3008 2733 
L 3008 2483 
z
M 973 2163 
L 973 2144 
Q 973 1683 1155 1398 
Q 1338 1114 1632 1114 
Q 1850 1114 1978 1270 
Q 2106 1427 2106 1690 
Q 2106 2112 1914 2464 
Q 1754 2765 1446 2765 
Q 1222 2765 1097 2605 
Q 973 2445 973 2163 
z
M 2771 -410 
Q 2771 -230 2595 -163 
Q 2419 -96 1978 -96 
Q 1344 -96 941 -13 
Q 749 -243 688 -348 
Q 627 -454 627 -563 
Q 627 -774 880 -902 
Q 1133 -1030 1555 -1030 
Q 2099 -1030 2435 -860 
Q 2771 -691 2771 -410 
z
" id="STIXGeneral-Regular-67" transform="scale(0.015625)"/>
        <path d="M 1702 493 
L 1786 422 
Q 1478 -64 1011 -64 
Q 448 -64 448 749 
L 448 2675 
L 109 2675 
Q 83 2694 83 2720 
Q 83 2771 192 2842 
Q 435 2982 813 3526 
Q 826 3546 874 3606 
Q 922 3667 941 3706 
Q 986 3706 986 3622 
L 986 2880 
L 1632 2880 
L 1632 2675 
L 986 2675 
L 986 845 
Q 986 538 1062 403 
Q 1139 269 1318 269 
Q 1510 269 1702 493 
z
" id="STIXGeneral-Regular-74" transform="scale(0.015625)"/>
       </defs>
       <use xlink:href="#STIXGeneral-Regular-68"/>
       <use x="49.999985" xlink:href="#STIXGeneral-Regular-65"/>
       <use x="94.399979" xlink:href="#STIXGeneral-Regular-69"/>
       <use x="122.199966" xlink:href="#STIXGeneral-Regular-67"/>
       <use x="172.199951" xlink:href="#STIXGeneral-Regular-68"/>
       <use x="222.199936" xlink:href="#STIXGeneral-Regular-74"/>
      </g>
     </g>
    </g>
    <g id="xtick_2">
     <g id="line2d_2">
      <g>
       <use style="fill:#323034;stroke:#323034;stroke-width:0.8;" x="166.03" xlink:href="#m9c91371774" y="228.737812"/>
      </g>
     </g>
     <g id="text_2">
      <!-- mass -->
      <g style="fill:#323034;" transform="translate(154.029063 243.933437)scale(0.12 -0.12)">
       <defs>
        <path d="M 4960 0 
L 3565 0 
L 3565 96 
Q 3834 122 3907 208 
Q 3981 294 3981 576 
L 3981 1894 
Q 3981 2278 3869 2444 
Q 3757 2611 3488 2611 
Q 3264 2611 3107 2521 
Q 2950 2432 2803 2221 
L 2803 608 
Q 2803 301 2896 201 
Q 2989 102 3264 96 
L 3264 0 
L 1830 0 
L 1830 96 
Q 2112 115 2189 188 
Q 2266 262 2266 550 
L 2266 1901 
Q 2266 2611 1850 2611 
Q 1670 2611 1468 2531 
Q 1267 2451 1171 2336 
Q 1088 2240 1088 2227 
L 1088 448 
Q 1088 243 1177 176 
Q 1267 109 1523 96 
L 1523 0 
L 102 0 
L 102 96 
Q 371 102 460 195 
Q 550 288 550 563 
L 550 2150 
Q 550 2387 499 2480 
Q 448 2573 326 2573 
Q 230 2573 122 2547 
L 122 2656 
Q 557 2778 1011 2944 
L 1062 2925 
L 1062 2451 
L 1075 2451 
Q 1363 2752 1584 2848 
Q 1805 2944 2054 2944 
Q 2560 2944 2733 2406 
Q 3232 2944 3776 2944 
Q 4518 2944 4518 1792 
L 4518 493 
Q 4518 282 4582 202 
Q 4646 122 4794 109 
L 4960 96 
L 4960 0 
z
" id="STIXGeneral-Regular-6d" transform="scale(0.015625)"/>
        <path d="M 2829 422 
L 2829 243 
Q 2586 -64 2253 -64 
Q 1888 -64 1843 403 
L 1837 403 
Q 1427 -64 909 -64 
Q 608 -64 422 112 
Q 237 288 237 602 
Q 237 1050 685 1350 
Q 992 1555 1837 1869 
L 1837 2214 
Q 1837 2502 1699 2646 
Q 1562 2790 1338 2790 
Q 1146 2790 1018 2697 
Q 890 2605 890 2477 
Q 890 2419 909 2348 
Q 928 2278 928 2208 
Q 928 2112 841 2029 
Q 755 1946 634 1946 
Q 525 1946 441 2029 
Q 358 2112 358 2240 
Q 358 2547 685 2752 
Q 986 2944 1421 2944 
Q 1939 2944 2176 2656 
Q 2291 2522 2323 2384 
Q 2355 2246 2355 1946 
L 2355 723 
Q 2355 301 2554 301 
Q 2682 301 2829 422 
z
M 1837 813 
L 1837 1715 
Q 1248 1510 1018 1293 
Q 800 1094 800 800 
Q 800 557 921 432 
Q 1043 307 1242 307 
Q 1453 307 1613 410 
Q 1747 506 1792 589 
Q 1837 672 1837 813 
z
" id="STIXGeneral-Regular-61" transform="scale(0.015625)"/>
        <path d="M 998 1926 
L 1664 1523 
Q 1984 1331 2105 1164 
Q 2227 998 2227 736 
Q 2227 416 1961 176 
Q 1696 -64 1331 -64 
Q 1030 -64 864 -6 
Q 691 51 570 51 
Q 461 51 416 -26 
L 333 -26 
L 333 979 
L 435 979 
Q 538 512 730 294 
Q 922 77 1248 77 
Q 1485 77 1632 211 
Q 1779 346 1779 550 
Q 1779 845 1440 1030 
L 1094 1222 
Q 326 1651 326 2150 
Q 326 2522 566 2730 
Q 806 2938 1210 2938 
Q 1491 2938 1638 2867 
Q 1754 2816 1818 2816 
Q 1862 2816 1920 2880 
L 1990 2880 
L 2022 2010 
L 1926 2010 
Q 1818 2445 1654 2621 
Q 1491 2797 1203 2797 
Q 986 2797 854 2688 
Q 723 2579 723 2362 
Q 723 2253 796 2128 
Q 870 2003 998 1926 
z
" id="STIXGeneral-Regular-73" transform="scale(0.015625)"/>
       </defs>
       <use xlink:href="#STIXGeneral-Regular-6d"/>
       <use x="77.799988" xlink:href="#STIXGeneral-Regular-61"/>
       <use x="122.199982" xlink:href="#STIXGeneral-Regular-73"/>
       <use x="161.099976" xlink:href="#STIXGeneral-Regular-73"/>
      </g>
     </g>
    </g>
    <g id="xtick_3">
     <g id="line2d_3">
      <g>
       <use style="fill:#323034;stroke:#323034;stroke-width:0.8;" x="249.73" xlink:href="#m9c91371774" y="228.737812"/>
      </g>
     </g>
     <g id="text_3">
      <!-- height_m -->
      <g style="fill:#323034;" transform="translate(227.062188 243.933437)scale(0.12 -0.12)">
       <defs>
        <path d="M 3200 -800 
L 0 -800 
L 0 -480 
L 3200 -480 
L 3200 -800 
z
" id="STIXGeneral-Regular-5f" transform="scale(0.015625)"/>
       </defs>
       <use xlink:href="#STIXGeneral-Regular-68"/>
       <use x="49.999985" xlink:href="#STIXGeneral-Regular-65"/>
       <use x="94.399979" xlink:href="#STIXGeneral-Regular-69"/>
       <use x="122.199966" xlink:href="#STIXGeneral-Regular-67"/>
       <use x="172.199951" xlink:href="#STIXGeneral-Regular-68"/>
       <use x="222.199936" xlink:href="#STIXGeneral-Regular-74"/>
       <use x="249.999924" xlink:href="#STIXGeneral-Regular-5f"/>
       <use x="299.999908" xlink:href="#STIXGeneral-Regular-6d"/>
      </g>
     </g>
    </g>
    <g id="xtick_4">
     <g id="line2d_4">
      <g>
       <use style="fill:#323034;stroke:#323034;stroke-width:0.8;" x="333.43" xlink:href="#m9c91371774" y="228.737812"/>
      </g>
     </g>
     <g id="text_4">
      <!-- mass_demean_species -->
      <g style="fill:#323034;" transform="translate(279.438438 243.933437)scale(0.12 -0.12)">
       <defs>
        <path d="M 3142 269 
L 2202 -64 
L 2176 -45 
L 2176 365 
Q 1869 -64 1357 -64 
Q 826 -64 499 317 
Q 173 698 173 1312 
Q 173 1990 563 2467 
Q 954 2944 1504 2944 
Q 1850 2944 2176 2669 
L 2176 3667 
Q 2176 3866 2118 3930 
Q 2061 3994 1882 3994 
Q 1792 3994 1741 3987 
L 1741 4090 
Q 2323 4243 2682 4371 
L 2714 4358 
L 2714 730 
Q 2714 506 2768 435 
Q 2822 365 2995 365 
Q 3034 365 3142 371 
L 3142 269 
z
M 2176 653 
L 2176 2125 
Q 2176 2381 1981 2573 
Q 1786 2765 1523 2765 
Q 1158 2765 940 2438 
Q 723 2112 723 1568 
Q 723 979 963 624 
Q 1203 269 1606 269 
Q 1907 269 2080 474 
Q 2176 582 2176 653 
z
" id="STIXGeneral-Regular-64" transform="scale(0.015625)"/>
        <path d="M 3104 0 
L 1773 0 
L 1779 96 
Q 2016 115 2096 233 
Q 2176 352 2176 672 
L 2176 1946 
Q 2176 2592 1709 2592 
Q 1549 2592 1408 2515 
Q 1267 2438 1050 2227 
L 1050 461 
Q 1050 269 1136 192 
Q 1222 115 1466 96 
L 1466 0 
L 115 0 
L 115 96 
Q 358 115 435 214 
Q 512 314 512 602 
L 512 2157 
Q 512 2394 467 2483 
Q 422 2573 288 2573 
Q 160 2573 102 2547 
L 102 2656 
Q 550 2784 979 2944 
L 1030 2925 
L 1030 2426 
L 1037 2426 
Q 1491 2944 1958 2944 
Q 2323 2944 2518 2688 
Q 2714 2432 2714 1958 
L 2714 544 
Q 2714 288 2790 205 
Q 2867 122 3104 96 
L 3104 0 
z
" id="STIXGeneral-Regular-6e" transform="scale(0.015625)"/>
        <path d="M 1018 2931 
L 1018 2438 
Q 1421 2944 1939 2944 
Q 2406 2944 2707 2560 
Q 3008 2176 3008 1581 
Q 3008 883 2621 409 
Q 2234 -64 1664 -64 
Q 1466 -64 1328 -6 
Q 1190 51 1018 211 
L 1018 -794 
Q 1018 -1094 1120 -1180 
Q 1222 -1267 1581 -1274 
L 1581 -1389 
L 32 -1389 
L 32 -1280 
Q 314 -1254 397 -1171 
Q 480 -1088 480 -838 
L 480 2157 
Q 480 2381 429 2451 
Q 378 2522 218 2522 
Q 115 2522 58 2515 
L 58 2618 
Q 506 2752 979 2944 
L 1018 2931 
z
M 1018 2138 
L 1018 563 
Q 1018 422 1238 281 
Q 1459 141 1683 141 
Q 2029 141 2243 467 
Q 2458 794 2458 1325 
Q 2458 1888 2243 2224 
Q 2029 2560 1670 2560 
Q 1446 2560 1232 2419 
Q 1018 2278 1018 2138 
z
" id="STIXGeneral-Regular-70" transform="scale(0.015625)"/>
        <path d="M 2547 998 
L 2637 941 
Q 2362 403 2112 205 
Q 1786 -64 1376 -64 
Q 845 -64 502 336 
Q 160 736 160 1357 
Q 160 2170 698 2618 
Q 1094 2944 1562 2944 
Q 1965 2944 2256 2749 
Q 2547 2554 2547 2285 
Q 2547 2176 2457 2096 
Q 2368 2016 2246 2016 
Q 2022 2016 1939 2310 
L 1901 2451 
Q 1850 2630 1773 2694 
Q 1696 2758 1523 2758 
Q 1133 2758 893 2451 
Q 653 2144 653 1645 
Q 653 1094 928 745 
Q 1203 397 1645 397 
Q 1920 397 2118 528 
Q 2317 659 2547 998 
z
" id="STIXGeneral-Regular-63" transform="scale(0.015625)"/>
       </defs>
       <use xlink:href="#STIXGeneral-Regular-6d"/>
       <use x="77.799988" xlink:href="#STIXGeneral-Regular-61"/>
       <use x="122.199982" xlink:href="#STIXGeneral-Regular-73"/>
       <use x="161.099976" xlink:href="#STIXGeneral-Regular-73"/>
       <use x="199.999969" xlink:href="#STIXGeneral-Regular-5f"/>
       <use x="249.999954" xlink:href="#STIXGeneral-Regular-64"/>
       <use x="299.999939" xlink:href="#STIXGeneral-Regular-65"/>
       <use x="344.399933" xlink:href="#STIXGeneral-Regular-6d"/>
       <use x="422.199921" xlink:href="#STIXGeneral-Regular-65"/>
       <use x="466.599915" xlink:href="#STIXGeneral-Regular-61"/>
       <use x="510.999908" xlink:href="#STIXGeneral-Regular-6e"/>
       <use x="560.999893" xlink:href="#STIXGeneral-Regular-5f"/>
       <use x="610.999878" xlink:href="#STIXGeneral-Regular-73"/>
       <use x="649.899872" xlink:href="#STIXGeneral-Regular-70"/>
       <use x="699.899857" xlink:href="#STIXGeneral-Regular-65"/>
       <use x="744.29985" xlink:href="#STIXGeneral-Regular-63"/>
       <use x="788.699844" xlink:href="#STIXGeneral-Regular-69"/>
       <use x="816.499832" xlink:href="#STIXGeneral-Regular-65"/>
       <use x="860.899826" xlink:href="#STIXGeneral-Regular-73"/>
      </g>
     </g>
    </g>
   </g>
   <g id="matplotlib.axis_2">
    <g id="ytick_1">
     <g id="line2d_5">
      <defs>
       <path d="M 0 0 
L -3.5 0 
" id="m1752706493" style="stroke:#323034;stroke-width:0.8;"/>
      </defs>
      <g>
       <use style="fill:#323034;stroke:#323034;stroke-width:0.8;" x="40.48" xlink:href="#m1752706493" y="228.737812"/>
      </g>
     </g>
     <g id="text_5">
      <!-- $\mathdefault{−200}$ -->
      <g style="fill:#323034;" transform="translate(7.2 232.835625)scale(0.12 -0.12)">
       <defs>
        <path d="M 3974 1408 
L 410 1408 
L 410 1830 
L 3974 1830 
L 3974 1408 
z
" id="STIXGeneral-Regular-2212" transform="scale(0.015625)"/>
        <path d="M 3034 877 
L 2688 0 
L 186 0 
L 186 77 
L 1325 1286 
Q 1773 1754 1965 2144 
Q 2157 2534 2157 2950 
Q 2157 3379 1920 3616 
Q 1683 3853 1267 3853 
Q 922 3853 720 3673 
Q 518 3494 326 3021 
L 192 3053 
Q 301 3648 630 3987 
Q 960 4326 1523 4326 
Q 2054 4326 2380 4006 
Q 2707 3686 2707 3200 
Q 2707 2477 1888 1613 
L 832 486 
L 2330 486 
Q 2541 486 2665 569 
Q 2790 653 2944 915 
L 3034 877 
z
" id="STIXGeneral-Regular-32" transform="scale(0.015625)"/>
        <path d="M 3046 2112 
Q 3046 1683 2963 1302 
Q 2880 922 2717 602 
Q 2554 282 2266 96 
Q 1978 -90 1600 -90 
Q 1210 -90 915 108 
Q 621 307 461 640 
Q 301 973 227 1350 
Q 154 1728 154 2150 
Q 154 2746 301 3222 
Q 448 3699 790 4012 
Q 1133 4326 1626 4326 
Q 2253 4326 2649 3712 
Q 3046 3098 3046 2112 
z
M 2432 2080 
Q 2432 3091 2217 3625 
Q 2003 4160 1587 4160 
Q 1190 4160 979 3622 
Q 768 3085 768 2106 
Q 768 1120 979 598 
Q 1190 77 1600 77 
Q 2003 77 2217 598 
Q 2432 1120 2432 2080 
z
" id="STIXGeneral-Regular-30" transform="scale(0.015625)"/>
       </defs>
       <use transform="translate(0 0.40625)" xlink:href="#STIXGeneral-Regular-2212"/>
       <use transform="translate(68.499985 0.40625)" xlink:href="#STIXGeneral-Regular-32"/>
       <use transform="translate(118.499969 0.40625)" xlink:href="#STIXGeneral-Regular-30"/>
       <use transform="translate(168.499954 0.40625)" xlink:href="#STIXGeneral-Regular-30"/>
      </g>
     </g>
    </g>
    <g id="ytick_2">
     <g id="line2d_6">
      <g>
       <use style="fill:#323034;stroke:#323034;stroke-width:0.8;" x="40.48" xlink:href="#m1752706493" y="204.577812"/>
      </g>
     </g>
     <g id="text_6">
      <!-- $\mathdefault{0}$ -->
      <g style="fill:#323034;" transform="translate(27.48 208.675625)scale(0.12 -0.12)">
       <use transform="translate(0 0.40625)" xlink:href="#STIXGeneral-Regular-30"/>
      </g>
     </g>
    </g>
    <g id="ytick_3">
     <g id="line2d_7">
      <g>
       <use style="fill:#323034;stroke:#323034;stroke-width:0.8;" x="40.48" xlink:href="#m1752706493" y="180.417812"/>
      </g>
     </g>
     <g id="text_7">
      <!-- $\mathdefault{200}$ -->
      <g style="fill:#323034;" transform="translate(15.48 184.515625)scale(0.12 -0.12)">
       <use transform="translate(0 0.40625)" xlink:href="#STIXGeneral-Regular-32"/>
       <use transform="translate(49.999985 0.40625)" xlink:href="#STIXGeneral-Regular-30"/>
       <use transform="translate(99.999969 0.40625)" xlink:href="#STIXGeneral-Regular-30"/>
      </g>
     </g>
    </g>
    <g id="ytick_4">
     <g id="line2d_8">
      <g>
       <use style="fill:#323034;stroke:#323034;stroke-width:0.8;" x="40.48" xlink:href="#m1752706493" y="156.257812"/>
      </g>
     </g>
     <g id="text_8">
      <!-- $\mathdefault{400}$ -->
      <g style="fill:#323034;" transform="translate(15.48 160.355625)scale(0.12 -0.12)">
       <defs>
        <path d="M 3027 1069 
L 2368 1069 
L 2368 0 
L 1869 0 
L 1869 1069 
L 77 1069 
L 77 1478 
L 2086 4326 
L 2368 4326 
L 2368 1478 
L 3027 1478 
L 3027 1069 
z
M 1869 1478 
L 1869 3674 
L 333 1478 
L 1869 1478 
z
" id="STIXGeneral-Regular-34" transform="scale(0.015625)"/>
       </defs>
       <use transform="translate(0 0.40625)" xlink:href="#STIXGeneral-Regular-34"/>
       <use transform="translate(49.999985 0.40625)" xlink:href="#STIXGeneral-Regular-30"/>
       <use transform="translate(99.999969 0.40625)" xlink:href="#STIXGeneral-Regular-30"/>
      </g>
     </g>
    </g>
    <g id="ytick_5">
     <g id="line2d_9">
      <g>
       <use style="fill:#323034;stroke:#323034;stroke-width:0.8;" x="40.48" xlink:href="#m1752706493" y="132.097812"/>
      </g>
     </g>
     <g id="text_9">
      <!-- $\mathdefault{600}$ -->
      <g style="fill:#323034;" transform="translate(15.48 136.195625)scale(0.12 -0.12)">
       <defs>
        <path d="M 2854 4378 
L 2867 4275 
Q 2112 4154 1606 3664 
Q 1101 3174 973 2451 
Q 1344 2739 1786 2739 
Q 2349 2739 2672 2380 
Q 2995 2022 2995 1402 
Q 2995 774 2669 378 
Q 2291 -90 1651 -90 
Q 870 -90 518 557 
Q 218 1107 218 1786 
Q 218 2835 915 3552 
Q 1312 3962 1731 4131 
Q 2150 4301 2854 4378 
z
M 2419 1203 
Q 2419 2445 1555 2445 
Q 1235 2445 1024 2275 
Q 813 2106 813 1702 
Q 813 954 1046 522 
Q 1280 90 1722 90 
Q 2061 90 2240 394 
Q 2419 698 2419 1203 
z
" id="STIXGeneral-Regular-36" transform="scale(0.015625)"/>
       </defs>
       <use transform="translate(0 0.59375)" xlink:href="#STIXGeneral-Regular-36"/>
       <use transform="translate(49.999985 0.59375)" xlink:href="#STIXGeneral-Regular-30"/>
       <use transform="translate(99.999969 0.59375)" xlink:href="#STIXGeneral-Regular-30"/>
      </g>
     </g>
    </g>
    <g id="ytick_6">
     <g id="line2d_10">
      <g>
       <use style="fill:#323034;stroke:#323034;stroke-width:0.8;" x="40.48" xlink:href="#m1752706493" y="107.937812"/>
      </g>
     </g>
     <g id="text_10">
      <!-- $\mathdefault{800}$ -->
      <g style="fill:#323034;" transform="translate(15.48 112.035625)scale(0.12 -0.12)">
       <defs>
        <path d="M 2848 992 
Q 2848 499 2505 204 
Q 2163 -90 1587 -90 
Q 1050 -90 704 204 
Q 358 499 358 954 
Q 358 1293 524 1533 
Q 691 1773 1190 2125 
Q 710 2522 553 2765 
Q 397 3008 397 3328 
Q 397 3782 745 4054 
Q 1094 4326 1638 4326 
Q 2106 4326 2410 4060 
Q 2714 3795 2714 3411 
Q 2714 3059 2531 2848 
Q 2349 2637 1856 2374 
Q 2432 1990 2640 1689 
Q 2848 1389 2848 992 
z
M 2272 3411 
Q 2272 3744 2086 3945 
Q 1901 4147 1574 4147 
Q 1248 4147 1059 3977 
Q 870 3808 870 3513 
Q 870 3219 1059 2979 
Q 1248 2739 1670 2490 
Q 1997 2682 2134 2896 
Q 2272 3110 2272 3411 
z
M 1734 1741 
L 1357 1997 
Q 1075 1766 960 1545 
Q 845 1325 845 1011 
Q 845 576 1065 333 
Q 1286 90 1658 90 
Q 1971 90 2166 285 
Q 2362 480 2362 794 
Q 2362 1082 2214 1299 
Q 2067 1517 1734 1741 
z
" id="STIXGeneral-Regular-38" transform="scale(0.015625)"/>
       </defs>
       <use transform="translate(0 0.40625)" xlink:href="#STIXGeneral-Regular-38"/>
       <use transform="translate(49.999985 0.40625)" xlink:href="#STIXGeneral-Regular-30"/>
       <use transform="translate(99.999969 0.40625)" xlink:href="#STIXGeneral-Regular-30"/>
      </g>
     </g>
    </g>
    <g id="ytick_7">
     <g id="line2d_11">
      <g>
       <use style="fill:#323034;stroke:#323034;stroke-width:0.8;" x="40.48" xlink:href="#m1752706493" y="83.777812"/>
      </g>
     </g>
     <g id="text_11">
      <!-- $\mathdefault{1000}$ -->
      <g style="fill:#323034;" transform="translate(9.48 87.875625)scale(0.12 -0.12)">
       <defs>
        <path d="M 2522 0 
L 755 0 
L 755 96 
Q 1107 115 1235 227 
Q 1363 339 1363 608 
L 1363 3482 
Q 1363 3795 1171 3795 
Q 1082 3795 883 3718 
L 710 3654 
L 710 3744 
L 1856 4326 
L 1914 4307 
L 1914 486 
Q 1914 275 2042 185 
Q 2170 96 2522 96 
L 2522 0 
z
" id="STIXGeneral-Regular-31" transform="scale(0.015625)"/>
       </defs>
       <use transform="translate(0 0.40625)" xlink:href="#STIXGeneral-Regular-31"/>
       <use transform="translate(49.999985 0.40625)" xlink:href="#STIXGeneral-Regular-30"/>
       <use transform="translate(99.999969 0.40625)" xlink:href="#STIXGeneral-Regular-30"/>
       <use transform="translate(149.999954 0.40625)" xlink:href="#STIXGeneral-Regular-30"/>
      </g>
     </g>
    </g>
    <g id="ytick_8">
     <g id="line2d_12">
      <g>
       <use style="fill:#323034;stroke:#323034;stroke-width:0.8;" x="40.48" xlink:href="#m1752706493" y="59.617812"/>
      </g>
     </g>
     <g id="text_12">
      <!-- $\mathdefault{1200}$ -->
      <g style="fill:#323034;" transform="translate(9.48 63.715625)scale(0.12 -0.12)">
       <use transform="translate(0 0.40625)" xlink:href="#STIXGeneral-Regular-31"/>
       <use transform="translate(49.999985 0.40625)" xlink:href="#STIXGeneral-Regular-32"/>
       <use transform="translate(99.999969 0.40625)" xlink:href="#STIXGeneral-Regular-30"/>
       <use transform="translate(149.999954 0.40625)" xlink:href="#STIXGeneral-Regular-30"/>
      </g>
     </g>
    </g>
    <g id="ytick_9">
     <g id="line2d_13">
      <g>
       <use style="fill:#323034;stroke:#323034;stroke-width:0.8;" x="40.48" xlink:href="#m1752706493" y="35.457812"/>
      </g>
     </g>
     <g id="text_13">
      <!-- $\mathdefault{1400}$ -->
      <g style="fill:#323034;" transform="translate(9.48 39.555625)scale(0.12 -0.12)">
       <use transform="translate(0 0.40625)" xlink:href="#STIXGeneral-Regular-31"/>
       <use transform="translate(49.999985 0.40625)" xlink:href="#STIXGeneral-Regular-34"/>
       <use transform="translate(99.999969 0.40625)" xlink:href="#STIXGeneral-Regular-30"/>
       <use transform="translate(149.999954 0.40625)" xlink:href="#STIXGeneral-Regular-30"/>
      </g>
     </g>
    </g>
    <g id="ytick_10">
     <g id="line2d_14">
      <g>
       <use style="fill:#323034;stroke:#323034;stroke-width:0.8;" x="40.48" xlink:href="#m1752706493" y="11.297812"/>
      </g>
     </g>
     <g id="text_14">
      <!-- $\mathdefault{1600}$ -->
      <g style="fill:#323034;" transform="translate(9.48 15.395625)scale(0.12 -0.12)">
       <use transform="translate(0 0.59375)" xlink:href="#STIXGeneral-Regular-31"/>
       <use transform="translate(49.999985 0.59375)" xlink:href="#STIXGeneral-Regular-36"/>
       <use transform="translate(99.999969 0.59375)" xlink:href="#STIXGeneral-Regular-30"/>
       <use transform="translate(149.999954 0.59375)" xlink:href="#STIXGeneral-Regular-30"/>
      </g>
     </g>
    </g>
   </g>
   <g id="line2d_15">
    <path clip-path="url(#peee5db4b85)" d="M 63.4975 184.404212 
L 101.1625 184.404212 
L 101.1625 181.505012 
L 63.4975 181.505012 
L 63.4975 184.404212 
" style="fill:none;stroke:#bc80bd;stroke-linecap:square;"/>
   </g>
   <g id="line2d_16">
    <path clip-path="url(#peee5db4b85)" d="M 82.33 184.404212 
L 82.33 188.028212 
" style="fill:none;stroke:#bc80bd;stroke-linecap:square;"/>
   </g>
   <g id="line2d_17">
    <path clip-path="url(#peee5db4b85)" d="M 82.33 181.505012 
L 82.33 177.518612 
" style="fill:none;stroke:#bc80bd;stroke-linecap:square;"/>
   </g>
   <g id="line2d_18">
    <path clip-path="url(#peee5db4b85)" d="M 72.91375 188.028212 
L 91.74625 188.028212 
" style="fill:none;stroke:#bc80bd;stroke-linecap:square;"/>
   </g>
   <g id="line2d_19">
    <path clip-path="url(#peee5db4b85)" d="M 72.91375 177.518612 
L 91.74625 177.518612 
" style="fill:none;stroke:#bc80bd;stroke-linecap:square;"/>
   </g>
   <g id="line2d_20">
    <defs>
     <path d="M 0 3 
C 0.795609 3 1.55874 2.683901 2.12132 2.12132 
C 2.683901 1.55874 3 0.795609 3 0 
C 3 -0.795609 2.683901 -1.55874 2.12132 -2.12132 
C 1.55874 -2.683901 0.795609 -3 0 -3 
C -0.795609 -3 -1.55874 -2.683901 -2.12132 -2.12132 
C -2.683901 -1.55874 -3 -0.795609 -3 0 
C -3 0.795609 -2.683901 1.55874 -2.12132 2.12132 
C -1.55874 2.683901 -0.795609 3 0 3 
z
" id="m3bdd1a18de" style="stroke:#000000;"/>
    </defs>
    <g clip-path="url(#peee5db4b85)">
     <use style="fill-opacity:0;stroke:#000000;" x="82.33" xlink:href="#m3bdd1a18de" y="192.981012"/>
     <use style="fill-opacity:0;stroke:#000000;" x="82.33" xlink:href="#m3bdd1a18de" y="192.860212"/>
     <use style="fill-opacity:0;stroke:#000000;" x="82.33" xlink:href="#m3bdd1a18de" y="196.605012"/>
     <use style="fill-opacity:0;stroke:#000000;" x="82.33" xlink:href="#m3bdd1a18de" y="193.947412"/>
     <use style="fill-opacity:0;stroke:#000000;" x="82.33" xlink:href="#m3bdd1a18de" y="191.048212"/>
     <use style="fill-opacity:0;stroke:#000000;" x="82.33" xlink:href="#m3bdd1a18de" y="193.222612"/>
     <use style="fill-opacity:0;stroke:#000000;" x="82.33" xlink:href="#m3bdd1a18de" y="189.840212"/>
     <use style="fill-opacity:0;stroke:#000000;" x="82.33" xlink:href="#m3bdd1a18de" y="195.034612"/>
     <use style="fill-opacity:0;stroke:#000000;" x="82.33" xlink:href="#m3bdd1a18de" y="177.035412"/>
     <use style="fill-opacity:0;stroke:#000000;" x="82.33" xlink:href="#m3bdd1a18de" y="172.686612"/>
     <use style="fill-opacity:0;stroke:#000000;" x="82.33" xlink:href="#m3bdd1a18de" y="176.914612"/>
     <use style="fill-opacity:0;stroke:#000000;" x="82.33" xlink:href="#m3bdd1a18de" y="176.310612"/>
    </g>
   </g>
   <g id="line2d_21">
    <path clip-path="url(#peee5db4b85)" d="M 147.1975 197.764692 
L 184.8625 197.764692 
L 184.8625 194.340012 
L 147.1975 194.340012 
L 147.1975 197.764692 
" style="fill:none;stroke:#bc80bd;stroke-linecap:square;"/>
   </g>
   <g id="line2d_22">
    <path clip-path="url(#peee5db4b85)" d="M 166.03 197.764692 
L 166.03 202.765812 
" style="fill:none;stroke:#bc80bd;stroke-linecap:square;"/>
   </g>
   <g id="line2d_23">
    <path clip-path="url(#peee5db4b85)" d="M 166.03 194.340012 
L 166.03 190.081812 
" style="fill:none;stroke:#bc80bd;stroke-linecap:square;"/>
   </g>
   <g id="line2d_24">
    <path clip-path="url(#peee5db4b85)" d="M 156.61375 202.765812 
L 175.44625 202.765812 
" style="fill:none;stroke:#bc80bd;stroke-linecap:square;"/>
   </g>
   <g id="line2d_25">
    <path clip-path="url(#peee5db4b85)" d="M 156.61375 190.081812 
L 175.44625 190.081812 
" style="fill:none;stroke:#bc80bd;stroke-linecap:square;"/>
   </g>
   <g id="line2d_26">
    <g clip-path="url(#peee5db4b85)">
     <use style="fill-opacity:0;stroke:#000000;" x="166.03" xlink:href="#m3bdd1a18de" y="188.149012"/>
     <use style="fill-opacity:0;stroke:#000000;" x="166.03" xlink:href="#m3bdd1a18de" y="40.531412"/>
     <use style="fill-opacity:0;stroke:#000000;" x="166.03" xlink:href="#m3bdd1a18de" y="187.665812"/>
     <use style="fill-opacity:0;stroke:#000000;" x="166.03" xlink:href="#m3bdd1a18de" y="185.370612"/>
     <use style="fill-opacity:0;stroke:#000000;" x="166.03" xlink:href="#m3bdd1a18de" y="188.149012"/>
    </g>
   </g>
   <g id="line2d_27">
    <path clip-path="url(#peee5db4b85)" d="M 230.8975 204.376076 
L 268.5625 204.376076 
L 268.5625 204.347084 
L 230.8975 204.347084 
L 230.8975 204.376076 
" style="fill:none;stroke:#bc80bd;stroke-linecap:square;"/>
   </g>
   <g id="line2d_28">
    <path clip-path="url(#peee5db4b85)" d="M 249.73 204.376076 
L 249.73 204.412316 
" style="fill:none;stroke:#bc80bd;stroke-linecap:square;"/>
   </g>
   <g id="line2d_29">
    <path clip-path="url(#peee5db4b85)" d="M 249.73 204.347084 
L 249.73 204.30722 
" style="fill:none;stroke:#bc80bd;stroke-linecap:square;"/>
   </g>
   <g id="line2d_30">
    <path clip-path="url(#peee5db4b85)" d="M 240.31375 204.412316 
L 259.14625 204.412316 
" style="fill:none;stroke:#bc80bd;stroke-linecap:square;"/>
   </g>
   <g id="line2d_31">
    <path clip-path="url(#peee5db4b85)" d="M 240.31375 204.30722 
L 259.14625 204.30722 
" style="fill:none;stroke:#bc80bd;stroke-linecap:square;"/>
   </g>
   <g id="line2d_32">
    <g clip-path="url(#peee5db4b85)">
     <use style="fill-opacity:0;stroke:#000000;" x="249.73" xlink:href="#m3bdd1a18de" y="204.461844"/>
     <use style="fill-opacity:0;stroke:#000000;" x="249.73" xlink:href="#m3bdd1a18de" y="204.460636"/>
     <use style="fill-opacity:0;stroke:#000000;" x="249.73" xlink:href="#m3bdd1a18de" y="204.498084"/>
     <use style="fill-opacity:0;stroke:#000000;" x="249.73" xlink:href="#m3bdd1a18de" y="204.471508"/>
     <use style="fill-opacity:0;stroke:#000000;" x="249.73" xlink:href="#m3bdd1a18de" y="204.442516"/>
     <use style="fill-opacity:0;stroke:#000000;" x="249.73" xlink:href="#m3bdd1a18de" y="204.46426"/>
     <use style="fill-opacity:0;stroke:#000000;" x="249.73" xlink:href="#m3bdd1a18de" y="204.430436"/>
     <use style="fill-opacity:0;stroke:#000000;" x="249.73" xlink:href="#m3bdd1a18de" y="204.48238"/>
     <use style="fill-opacity:0;stroke:#000000;" x="249.73" xlink:href="#m3bdd1a18de" y="204.302388"/>
     <use style="fill-opacity:0;stroke:#000000;" x="249.73" xlink:href="#m3bdd1a18de" y="204.2589"/>
     <use style="fill-opacity:0;stroke:#000000;" x="249.73" xlink:href="#m3bdd1a18de" y="204.30118"/>
     <use style="fill-opacity:0;stroke:#000000;" x="249.73" xlink:href="#m3bdd1a18de" y="204.29514"/>
    </g>
   </g>
   <g id="line2d_33">
    <path clip-path="url(#peee5db4b85)" d="M 314.5975 205.034656 
L 352.2625 205.034656 
L 352.2625 204.577812 
L 314.5975 204.577812 
L 314.5975 205.034656 
" style="fill:none;stroke:#bc80bd;stroke-linecap:square;"/>
   </g>
   <g id="line2d_34">
    <path clip-path="url(#peee5db4b85)" d="M 333.43 205.034656 
L 333.43 205.544212 
" style="fill:none;stroke:#bc80bd;stroke-linecap:square;"/>
   </g>
   <g id="line2d_35">
    <path clip-path="url(#peee5db4b85)" d="M 333.43 204.577812 
L 333.43 203.943612 
" style="fill:none;stroke:#bc80bd;stroke-linecap:square;"/>
   </g>
   <g id="line2d_36">
    <path clip-path="url(#peee5db4b85)" d="M 324.01375 205.544212 
L 342.84625 205.544212 
" style="fill:none;stroke:#bc80bd;stroke-linecap:square;"/>
   </g>
   <g id="line2d_37">
    <path clip-path="url(#peee5db4b85)" d="M 324.01375 203.943612 
L 342.84625 203.943612 
" style="fill:none;stroke:#bc80bd;stroke-linecap:square;"/>
   </g>
   <g id="line2d_38">
    <g clip-path="url(#peee5db4b85)">
     <use style="fill-opacity:0;stroke:#000000;" x="333.43" xlink:href="#m3bdd1a18de" y="209.138012"/>
     <use style="fill-opacity:0;stroke:#000000;" x="333.43" xlink:href="#m3bdd1a18de" y="208.658656"/>
     <use style="fill-opacity:0;stroke:#000000;" x="333.43" xlink:href="#m3bdd1a18de" y="209.138012"/>
     <use style="fill-opacity:0;stroke:#000000;" x="333.43" xlink:href="#m3bdd1a18de" y="206.027412"/>
     <use style="fill-opacity:0;stroke:#000000;" x="333.43" xlink:href="#m3bdd1a18de" y="209.141856"/>
     <use style="fill-opacity:0;stroke:#000000;" x="333.43" xlink:href="#m3bdd1a18de" y="198.149056"/>
     <use style="fill-opacity:0;stroke:#000000;" x="333.43" xlink:href="#m3bdd1a18de" y="200.081856"/>
     <use style="fill-opacity:0;stroke:#000000;" x="333.43" xlink:href="#m3bdd1a18de" y="201.289856"/>
     <use style="fill-opacity:0;stroke:#000000;" x="333.43" xlink:href="#m3bdd1a18de" y="196.091612"/>
     <use style="fill-opacity:0;stroke:#000000;" x="333.43" xlink:href="#m3bdd1a18de" y="203.826656"/>
     <use style="fill-opacity:0;stroke:#000000;" x="333.43" xlink:href="#m3bdd1a18de" y="203.611412"/>
     <use style="fill-opacity:0;stroke:#000000;" x="333.43" xlink:href="#m3bdd1a18de" y="203.128212"/>
    </g>
   </g>
   <g id="line2d_39">
    <path clip-path="url(#peee5db4b85)" d="M 63.4975 182.833812 
L 101.1625 182.833812 
" style="fill:none;stroke:#b3de69;stroke-linecap:square;"/>
   </g>
   <g id="line2d_40">
    <path clip-path="url(#peee5db4b85)" d="M 147.1975 195.034612 
L 184.8625 195.034612 
" style="fill:none;stroke:#b3de69;stroke-linecap:square;"/>
   </g>
   <g id="line2d_41">
    <path clip-path="url(#peee5db4b85)" d="M 230.8975 204.360372 
L 268.5625 204.360372 
" style="fill:none;stroke:#b3de69;stroke-linecap:square;"/>
   </g>
   <g id="line2d_42">
    <path clip-path="url(#peee5db4b85)" d="M 314.5975 204.577812 
L 352.2625 204.577812 
" style="fill:none;stroke:#b3de69;stroke-linecap:square;"/>
   </g>
   <g id="patch_3">
    <path d="M 40.48 228.737812 
L 40.48 11.297812 
" style="fill:none;stroke:#000000;stroke-linecap:square;stroke-linejoin:miter;stroke-width:0.6;"/>
   </g>
   <g id="patch_4">
    <path d="M 40.48 228.737812 
L 375.28 228.737812 
" style="fill:none;stroke:#000000;stroke-linecap:square;stroke-linejoin:miter;stroke-width:0.6;"/>
   </g>
  </g>
 </g>
 <defs>
  <clipPath id="peee5db4b85">
   <rect height="217.44" width="334.8" x="40.48" y="11.297812"/>
  </clipPath>
 </defs>
</svg>
