<?xml version="1.0" encoding="utf-8" standalone="no"?>
<!DOCTYPE svg PUBLIC "-//W3C//DTD SVG 1.1//EN"
  "http://www.w3.org/Graphics/SVG/1.1/DTD/svg11.dtd">
<svg height="280.3675pt" version="1.1" viewBox="0 0 380.2 280.3675" width="380.2pt" xmlns="http://www.w3.org/2000/svg" xmlns:xlink="http://www.w3.org/1999/xlink">
 <metadata>
  <rdf:RDF xmlns:cc="http://creativecommons.org/ns#" xmlns:dc="http://purl.org/dc/elements/1.1/" xmlns:rdf="http://www.w3.org/1999/02/22-rdf-syntax-ns#">
   <cc:Work>
    <dc:type rdf:resource="http://purl.org/dc/dcmitype/StillImage"/>
    <dc:date>2022-08-20T23:37:55.329862</dc:date>
    <dc:format>image/svg+xml</dc:format>
    <dc:creator>
     <cc:Agent>
      <dc:title>Matplotlib v3.4.3, https://matplotlib.org/</dc:title>
     </cc:Agent>
    </dc:creator>
   </cc:Work>
  </rdf:RDF>
 </metadata>
 <defs>
  <style type="text/css">*{stroke-linecap:butt;stroke-linejoin:round;}</style>
 </defs>
 <g id="figure_1">
  <g id="patch_1">
   <path d="M -0 280.3675 
L 380.2 280.3675 
L 380.2 0 
L -0 0 
z
" style="fill:none;"/>
  </g>
  <g id="axes_1">
   <g id="patch_2">
    <path d="M 38.2 241.5675 
L 373 241.5675 
L 373 24.1275 
L 38.2 24.1275 
z
" style="fill:#ffffff;"/>
   </g>
   <g id="matplotlib.axis_1">
    <g id="xtick_1">
     <g id="line2d_1">
      <defs>
       <path d="M 0 0 
L 0 3.5 
" id="m5d5f717ea8" style="stroke:#323034;stroke-width:0.8;"/>
      </defs>
      <g>
       <use style="fill:#323034;stroke:#323034;stroke-width:0.8;" x="80.546245" xlink:href="#m5d5f717ea8" y="241.5675"/>
      </g>
     </g>
     <g id="text_1">
      <!-- 2004 -->
      <g style="fill:#323034;" transform="translate(68.546245 256.763125)scale(0.12 -0.12)">
       <defs>
        <path d="M 3034 877 
L 2688 0 
L 186 0 
L 186 77 
L 1325 1286 
Q 1773 1754 1965 2144 
Q 2157 2534 2157 2950 
Q 2157 3379 1920 3616 
Q 1683 3853 1267 3853 
Q 922 3853 720 3673 
Q 518 3494 326 3021 
L 192 3053 
Q 301 3648 630 3987 
Q 960 4326 1523 4326 
Q 2054 4326 2380 4006 
Q 2707 3686 2707 3200 
Q 2707 2477 1888 1613 
L 832 486 
L 2330 486 
Q 2541 486 2665 569 
Q 2790 653 2944 915 
L 3034 877 
z
" id="STIXGeneral-Regular-32" transform="scale(0.015625)"/>
        <path d="M 3046 2112 
Q 3046 1683 2963 1302 
Q 2880 922 2717 602 
Q 2554 282 2266 96 
Q 1978 -90 1600 -90 
Q 1210 -90 915 108 
Q 621 307 461 640 
Q 301 973 227 1350 
Q 154 1728 154 2150 
Q 154 2746 301 3222 
Q 448 3699 790 4012 
Q 1133 4326 1626 4326 
Q 2253 4326 2649 3712 
Q 3046 3098 3046 2112 
z
M 2432 2080 
Q 2432 3091 2217 3625 
Q 2003 4160 1587 4160 
Q 1190 4160 979 3622 
Q 768 3085 768 2106 
Q 768 1120 979 598 
Q 1190 77 1600 77 
Q 2003 77 2217 598 
Q 2432 1120 2432 2080 
z
" id="STIXGeneral-Regular-30" transform="scale(0.015625)"/>
        <path d="M 3027 1069 
L 2368 1069 
L 2368 0 
L 1869 0 
L 1869 1069 
L 77 1069 
L 77 1478 
L 2086 4326 
L 2368 4326 
L 2368 1478 
L 3027 1478 
L 3027 1069 
z
M 1869 1478 
L 1869 3674 
L 333 1478 
L 1869 1478 
z
" id="STIXGeneral-Regular-34" transform="scale(0.015625)"/>
       </defs>
       <use xlink:href="#STIXGeneral-Regular-32"/>
       <use x="49.999985" xlink:href="#STIXGeneral-Regular-30"/>
       <use x="99.999969" xlink:href="#STIXGeneral-Regular-30"/>
       <use x="149.999954" xlink:href="#STIXGeneral-Regular-34"/>
      </g>
     </g>
    </g>
    <g id="xtick_2">
     <g id="line2d_2">
      <g>
       <use style="fill:#323034;stroke:#323034;stroke-width:0.8;" x="159.945455" xlink:href="#m5d5f717ea8" y="241.5675"/>
      </g>
     </g>
     <g id="text_2">
      <!-- 2009 -->
      <g style="fill:#323034;" transform="translate(147.945455 256.763125)scale(0.12 -0.12)">
       <defs>
        <path d="M 378 -141 
L 358 -13 
Q 1094 115 1603 608 
Q 2112 1101 2304 1882 
Q 1933 1517 1344 1517 
Q 826 1517 509 1875 
Q 192 2234 192 2816 
Q 192 3462 573 3894 
Q 954 4326 1523 4326 
Q 2131 4326 2528 3840 
Q 2938 3328 2938 2522 
Q 2938 1958 2742 1462 
Q 2547 966 2170 621 
Q 1773 262 1395 105 
Q 1018 -51 378 -141 
z
M 2317 2272 
L 2317 2522 
Q 2317 4147 1472 4147 
Q 1171 4147 1005 3930 
Q 909 3802 845 3546 
Q 781 3290 781 3034 
Q 781 2464 995 2128 
Q 1210 1792 1568 1792 
Q 1824 1792 2070 1917 
Q 2317 2042 2317 2272 
z
" id="STIXGeneral-Regular-39" transform="scale(0.015625)"/>
       </defs>
       <use xlink:href="#STIXGeneral-Regular-32"/>
       <use x="49.999985" xlink:href="#STIXGeneral-Regular-30"/>
       <use x="99.999969" xlink:href="#STIXGeneral-Regular-30"/>
       <use x="149.999954" xlink:href="#STIXGeneral-Regular-39"/>
      </g>
     </g>
    </g>
    <g id="xtick_3">
     <g id="line2d_3">
      <g>
       <use style="fill:#323034;stroke:#323034;stroke-width:0.8;" x="239.344664" xlink:href="#m5d5f717ea8" y="241.5675"/>
      </g>
     </g>
     <g id="text_3">
      <!-- 2014 -->
      <g style="fill:#323034;" transform="translate(227.344664 256.763125)scale(0.12 -0.12)">
       <defs>
        <path d="M 2522 0 
L 755 0 
L 755 96 
Q 1107 115 1235 227 
Q 1363 339 1363 608 
L 1363 3482 
Q 1363 3795 1171 3795 
Q 1082 3795 883 3718 
L 710 3654 
L 710 3744 
L 1856 4326 
L 1914 4307 
L 1914 486 
Q 1914 275 2042 185 
Q 2170 96 2522 96 
L 2522 0 
z
" id="STIXGeneral-Regular-31" transform="scale(0.015625)"/>
       </defs>
       <use xlink:href="#STIXGeneral-Regular-32"/>
       <use x="49.999985" xlink:href="#STIXGeneral-Regular-30"/>
       <use x="99.999969" xlink:href="#STIXGeneral-Regular-31"/>
       <use x="149.999954" xlink:href="#STIXGeneral-Regular-34"/>
      </g>
     </g>
    </g>
    <g id="xtick_4">
     <g id="line2d_4">
      <g>
       <use style="fill:#323034;stroke:#323034;stroke-width:0.8;" x="318.743874" xlink:href="#m5d5f717ea8" y="241.5675"/>
      </g>
     </g>
     <g id="text_4">
      <!-- 2019 -->
      <g style="fill:#323034;" transform="translate(306.743874 256.763125)scale(0.12 -0.12)">
       <use xlink:href="#STIXGeneral-Regular-32"/>
       <use x="49.999985" xlink:href="#STIXGeneral-Regular-30"/>
       <use x="99.999969" xlink:href="#STIXGeneral-Regular-31"/>
       <use x="149.999954" xlink:href="#STIXGeneral-Regular-39"/>
      </g>
     </g>
    </g>
    <g id="xtick_5">
     <g id="line2d_5">
      <defs>
       <path d="M 0 0 
L 0 2 
" id="mfdd0d9d810" style="stroke:#323034;stroke-width:0.6;"/>
      </defs>
      <g>
       <use style="fill:#323034;stroke:#323034;stroke-width:0.6;" x="48.786561" xlink:href="#mfdd0d9d810" y="241.5675"/>
      </g>
     </g>
    </g>
    <g id="xtick_6">
     <g id="line2d_6">
      <g>
       <use style="fill:#323034;stroke:#323034;stroke-width:0.6;" x="64.666403" xlink:href="#mfdd0d9d810" y="241.5675"/>
      </g>
     </g>
    </g>
    <g id="xtick_7">
     <g id="line2d_7">
      <g>
       <use style="fill:#323034;stroke:#323034;stroke-width:0.6;" x="96.426087" xlink:href="#mfdd0d9d810" y="241.5675"/>
      </g>
     </g>
    </g>
    <g id="xtick_8">
     <g id="line2d_8">
      <g>
       <use style="fill:#323034;stroke:#323034;stroke-width:0.6;" x="112.305929" xlink:href="#mfdd0d9d810" y="241.5675"/>
      </g>
     </g>
    </g>
    <g id="xtick_9">
     <g id="line2d_9">
      <g>
       <use style="fill:#323034;stroke:#323034;stroke-width:0.6;" x="128.185771" xlink:href="#mfdd0d9d810" y="241.5675"/>
      </g>
     </g>
    </g>
    <g id="xtick_10">
     <g id="line2d_10">
      <g>
       <use style="fill:#323034;stroke:#323034;stroke-width:0.6;" x="144.065613" xlink:href="#mfdd0d9d810" y="241.5675"/>
      </g>
     </g>
    </g>
    <g id="xtick_11">
     <g id="line2d_11">
      <g>
       <use style="fill:#323034;stroke:#323034;stroke-width:0.6;" x="175.825296" xlink:href="#mfdd0d9d810" y="241.5675"/>
      </g>
     </g>
    </g>
    <g id="xtick_12">
     <g id="line2d_12">
      <g>
       <use style="fill:#323034;stroke:#323034;stroke-width:0.6;" x="191.705138" xlink:href="#mfdd0d9d810" y="241.5675"/>
      </g>
     </g>
    </g>
    <g id="xtick_13">
     <g id="line2d_13">
      <g>
       <use style="fill:#323034;stroke:#323034;stroke-width:0.6;" x="207.58498" xlink:href="#mfdd0d9d810" y="241.5675"/>
      </g>
     </g>
    </g>
    <g id="xtick_14">
     <g id="line2d_14">
      <g>
       <use style="fill:#323034;stroke:#323034;stroke-width:0.6;" x="223.464822" xlink:href="#mfdd0d9d810" y="241.5675"/>
      </g>
     </g>
    </g>
    <g id="xtick_15">
     <g id="line2d_15">
      <g>
       <use style="fill:#323034;stroke:#323034;stroke-width:0.6;" x="255.224506" xlink:href="#mfdd0d9d810" y="241.5675"/>
      </g>
     </g>
    </g>
    <g id="xtick_16">
     <g id="line2d_16">
      <g>
       <use style="fill:#323034;stroke:#323034;stroke-width:0.6;" x="271.104348" xlink:href="#mfdd0d9d810" y="241.5675"/>
      </g>
     </g>
    </g>
    <g id="xtick_17">
     <g id="line2d_17">
      <g>
       <use style="fill:#323034;stroke:#323034;stroke-width:0.6;" x="286.98419" xlink:href="#mfdd0d9d810" y="241.5675"/>
      </g>
     </g>
    </g>
    <g id="xtick_18">
     <g id="line2d_18">
      <g>
       <use style="fill:#323034;stroke:#323034;stroke-width:0.6;" x="302.864032" xlink:href="#mfdd0d9d810" y="241.5675"/>
      </g>
     </g>
    </g>
    <g id="xtick_19">
     <g id="line2d_19">
      <g>
       <use style="fill:#323034;stroke:#323034;stroke-width:0.6;" x="334.623715" xlink:href="#mfdd0d9d810" y="241.5675"/>
      </g>
     </g>
    </g>
    <g id="xtick_20">
     <g id="line2d_20">
      <g>
       <use style="fill:#323034;stroke:#323034;stroke-width:0.6;" x="350.503557" xlink:href="#mfdd0d9d810" y="241.5675"/>
      </g>
     </g>
    </g>
    <g id="xtick_21">
     <g id="line2d_21">
      <g>
       <use style="fill:#323034;stroke:#323034;stroke-width:0.6;" x="366.383399" xlink:href="#mfdd0d9d810" y="241.5675"/>
      </g>
     </g>
    </g>
    <g id="text_5">
     <!-- date -->
     <g transform="translate(195.603438 270.563125)scale(0.12 -0.12)">
      <defs>
       <path d="M 3142 269 
L 2202 -64 
L 2176 -45 
L 2176 365 
Q 1869 -64 1357 -64 
Q 826 -64 499 317 
Q 173 698 173 1312 
Q 173 1990 563 2467 
Q 954 2944 1504 2944 
Q 1850 2944 2176 2669 
L 2176 3667 
Q 2176 3866 2118 3930 
Q 2061 3994 1882 3994 
Q 1792 3994 1741 3987 
L 1741 4090 
Q 2323 4243 2682 4371 
L 2714 4358 
L 2714 730 
Q 2714 506 2768 435 
Q 2822 365 2995 365 
Q 3034 365 3142 371 
L 3142 269 
z
M 2176 653 
L 2176 2125 
Q 2176 2381 1981 2573 
Q 1786 2765 1523 2765 
Q 1158 2765 940 2438 
Q 723 2112 723 1568 
Q 723 979 963 624 
Q 1203 269 1606 269 
Q 1907 269 2080 474 
Q 2176 582 2176 653 
z
" id="STIXGeneral-Regular-64" transform="scale(0.015625)"/>
       <path d="M 2829 422 
L 2829 243 
Q 2586 -64 2253 -64 
Q 1888 -64 1843 403 
L 1837 403 
Q 1427 -64 909 -64 
Q 608 -64 422 112 
Q 237 288 237 602 
Q 237 1050 685 1350 
Q 992 1555 1837 1869 
L 1837 2214 
Q 1837 2502 1699 2646 
Q 1562 2790 1338 2790 
Q 1146 2790 1018 2697 
Q 890 2605 890 2477 
Q 890 2419 909 2348 
Q 928 2278 928 2208 
Q 928 2112 841 2029 
Q 755 1946 634 1946 
Q 525 1946 441 2029 
Q 358 2112 358 2240 
Q 358 2547 685 2752 
Q 986 2944 1421 2944 
Q 1939 2944 2176 2656 
Q 2291 2522 2323 2384 
Q 2355 2246 2355 1946 
L 2355 723 
Q 2355 301 2554 301 
Q 2682 301 2829 422 
z
M 1837 813 
L 1837 1715 
Q 1248 1510 1018 1293 
Q 800 1094 800 800 
Q 800 557 921 432 
Q 1043 307 1242 307 
Q 1453 307 1613 410 
Q 1747 506 1792 589 
Q 1837 672 1837 813 
z
" id="STIXGeneral-Regular-61" transform="scale(0.015625)"/>
       <path d="M 1702 493 
L 1786 422 
Q 1478 -64 1011 -64 
Q 448 -64 448 749 
L 448 2675 
L 109 2675 
Q 83 2694 83 2720 
Q 83 2771 192 2842 
Q 435 2982 813 3526 
Q 826 3546 874 3606 
Q 922 3667 941 3706 
Q 986 3706 986 3622 
L 986 2880 
L 1632 2880 
L 1632 2675 
L 986 2675 
L 986 845 
Q 986 538 1062 403 
Q 1139 269 1318 269 
Q 1510 269 1702 493 
z
" id="STIXGeneral-Regular-74" transform="scale(0.015625)"/>
       <path d="M 2611 1050 
L 2714 1005 
Q 2330 -64 1376 -64 
Q 813 -64 486 329 
Q 160 723 160 1389 
Q 160 2074 525 2509 
Q 890 2944 1485 2944 
Q 2061 2944 2374 2502 
Q 2560 2246 2592 1773 
L 621 1773 
Q 646 1370 700 1158 
Q 755 947 915 730 
Q 1184 378 1626 378 
Q 1939 378 2153 531 
Q 2368 685 2611 1050 
z
M 634 1978 
L 1939 1978 
Q 1882 2381 1750 2547 
Q 1619 2714 1312 2714 
Q 1043 2714 864 2525 
Q 685 2336 634 1978 
z
" id="STIXGeneral-Regular-65" transform="scale(0.015625)"/>
      </defs>
      <use xlink:href="#STIXGeneral-Regular-64"/>
      <use x="49.999985" xlink:href="#STIXGeneral-Regular-61"/>
      <use x="94.399979" xlink:href="#STIXGeneral-Regular-74"/>
      <use x="122.199966" xlink:href="#STIXGeneral-Regular-65"/>
     </g>
    </g>
   </g>
   <g id="matplotlib.axis_2">
    <g id="ytick_1">
     <g id="line2d_22">
      <defs>
       <path d="M 0 0 
L -3.5 0 
" id="mad4abb752e" style="stroke:#323034;stroke-width:0.8;"/>
      </defs>
      <g>
       <use style="fill:#323034;stroke:#323034;stroke-width:0.8;" x="38.2" xlink:href="#mad4abb752e" y="241.5675"/>
      </g>
     </g>
     <g id="text_6">
      <!-- $\mathdefault{0}$ -->
      <g style="fill:#323034;" transform="translate(25.2 245.665312)scale(0.12 -0.12)">
       <use transform="translate(0 0.40625)" xlink:href="#STIXGeneral-Regular-30"/>
      </g>
     </g>
    </g>
    <g id="ytick_2">
     <g id="line2d_23">
      <g>
       <use style="fill:#323034;stroke:#323034;stroke-width:0.8;" x="38.2" xlink:href="#mad4abb752e" y="209.889178"/>
      </g>
     </g>
     <g id="text_7">
      <!-- $\mathdefault{200}$ -->
      <g style="fill:#323034;" transform="translate(13.2 213.986991)scale(0.12 -0.12)">
       <use transform="translate(0 0.40625)" xlink:href="#STIXGeneral-Regular-32"/>
       <use transform="translate(49.999985 0.40625)" xlink:href="#STIXGeneral-Regular-30"/>
       <use transform="translate(99.999969 0.40625)" xlink:href="#STIXGeneral-Regular-30"/>
      </g>
     </g>
    </g>
    <g id="ytick_3">
     <g id="line2d_24">
      <g>
       <use style="fill:#323034;stroke:#323034;stroke-width:0.8;" x="38.2" xlink:href="#mad4abb752e" y="178.210857"/>
      </g>
     </g>
     <g id="text_8">
      <!-- $\mathdefault{400}$ -->
      <g style="fill:#323034;" transform="translate(13.2 182.308669)scale(0.12 -0.12)">
       <use transform="translate(0 0.40625)" xlink:href="#STIXGeneral-Regular-34"/>
       <use transform="translate(49.999985 0.40625)" xlink:href="#STIXGeneral-Regular-30"/>
       <use transform="translate(99.999969 0.40625)" xlink:href="#STIXGeneral-Regular-30"/>
      </g>
     </g>
    </g>
    <g id="ytick_4">
     <g id="line2d_25">
      <g>
       <use style="fill:#323034;stroke:#323034;stroke-width:0.8;" x="38.2" xlink:href="#mad4abb752e" y="146.532535"/>
      </g>
     </g>
     <g id="text_9">
      <!-- $\mathdefault{600}$ -->
      <g style="fill:#323034;" transform="translate(13.2 150.630347)scale(0.12 -0.12)">
       <defs>
        <path d="M 2854 4378 
L 2867 4275 
Q 2112 4154 1606 3664 
Q 1101 3174 973 2451 
Q 1344 2739 1786 2739 
Q 2349 2739 2672 2380 
Q 2995 2022 2995 1402 
Q 2995 774 2669 378 
Q 2291 -90 1651 -90 
Q 870 -90 518 557 
Q 218 1107 218 1786 
Q 218 2835 915 3552 
Q 1312 3962 1731 4131 
Q 2150 4301 2854 4378 
z
M 2419 1203 
Q 2419 2445 1555 2445 
Q 1235 2445 1024 2275 
Q 813 2106 813 1702 
Q 813 954 1046 522 
Q 1280 90 1722 90 
Q 2061 90 2240 394 
Q 2419 698 2419 1203 
z
" id="STIXGeneral-Regular-36" transform="scale(0.015625)"/>
       </defs>
       <use transform="translate(0 0.59375)" xlink:href="#STIXGeneral-Regular-36"/>
       <use transform="translate(49.999985 0.59375)" xlink:href="#STIXGeneral-Regular-30"/>
       <use transform="translate(99.999969 0.59375)" xlink:href="#STIXGeneral-Regular-30"/>
      </g>
     </g>
    </g>
    <g id="ytick_5">
     <g id="line2d_26">
      <g>
       <use style="fill:#323034;stroke:#323034;stroke-width:0.8;" x="38.2" xlink:href="#mad4abb752e" y="114.854213"/>
      </g>
     </g>
     <g id="text_10">
      <!-- $\mathdefault{800}$ -->
      <g style="fill:#323034;" transform="translate(13.2 118.952026)scale(0.12 -0.12)">
       <defs>
        <path d="M 2848 992 
Q 2848 499 2505 204 
Q 2163 -90 1587 -90 
Q 1050 -90 704 204 
Q 358 499 358 954 
Q 358 1293 524 1533 
Q 691 1773 1190 2125 
Q 710 2522 553 2765 
Q 397 3008 397 3328 
Q 397 3782 745 4054 
Q 1094 4326 1638 4326 
Q 2106 4326 2410 4060 
Q 2714 3795 2714 3411 
Q 2714 3059 2531 2848 
Q 2349 2637 1856 2374 
Q 2432 1990 2640 1689 
Q 2848 1389 2848 992 
z
M 2272 3411 
Q 2272 3744 2086 3945 
Q 1901 4147 1574 4147 
Q 1248 4147 1059 3977 
Q 870 3808 870 3513 
Q 870 3219 1059 2979 
Q 1248 2739 1670 2490 
Q 1997 2682 2134 2896 
Q 2272 3110 2272 3411 
z
M 1734 1741 
L 1357 1997 
Q 1075 1766 960 1545 
Q 845 1325 845 1011 
Q 845 576 1065 333 
Q 1286 90 1658 90 
Q 1971 90 2166 285 
Q 2362 480 2362 794 
Q 2362 1082 2214 1299 
Q 2067 1517 1734 1741 
z
" id="STIXGeneral-Regular-38" transform="scale(0.015625)"/>
       </defs>
       <use transform="translate(0 0.40625)" xlink:href="#STIXGeneral-Regular-38"/>
       <use transform="translate(49.999985 0.40625)" xlink:href="#STIXGeneral-Regular-30"/>
       <use transform="translate(99.999969 0.40625)" xlink:href="#STIXGeneral-Regular-30"/>
      </g>
     </g>
    </g>
    <g id="ytick_6">
     <g id="line2d_27">
      <g>
       <use style="fill:#323034;stroke:#323034;stroke-width:0.8;" x="38.2" xlink:href="#mad4abb752e" y="83.175892"/>
      </g>
     </g>
     <g id="text_11">
      <!-- $\mathdefault{1000}$ -->
      <g style="fill:#323034;" transform="translate(7.2 87.273704)scale(0.12 -0.12)">
       <use transform="translate(0 0.40625)" xlink:href="#STIXGeneral-Regular-31"/>
       <use transform="translate(49.999985 0.40625)" xlink:href="#STIXGeneral-Regular-30"/>
       <use transform="translate(99.999969 0.40625)" xlink:href="#STIXGeneral-Regular-30"/>
       <use transform="translate(149.999954 0.40625)" xlink:href="#STIXGeneral-Regular-30"/>
      </g>
     </g>
    </g>
    <g id="ytick_7">
     <g id="line2d_28">
      <g>
       <use style="fill:#323034;stroke:#323034;stroke-width:0.8;" x="38.2" xlink:href="#mad4abb752e" y="51.49757"/>
      </g>
     </g>
     <g id="text_12">
      <!-- $\mathdefault{1200}$ -->
      <g style="fill:#323034;" transform="translate(7.2 55.595382)scale(0.12 -0.12)">
       <use transform="translate(0 0.40625)" xlink:href="#STIXGeneral-Regular-31"/>
       <use transform="translate(49.999985 0.40625)" xlink:href="#STIXGeneral-Regular-32"/>
       <use transform="translate(99.999969 0.40625)" xlink:href="#STIXGeneral-Regular-30"/>
       <use transform="translate(149.999954 0.40625)" xlink:href="#STIXGeneral-Regular-30"/>
      </g>
     </g>
    </g>
   </g>
   <g id="line2d_29">
    <path clip-path="url(#p7d6d26d808)" d="M 38.2 151.601066 
L 39.52332 152.234633 
L 40.84664 153.976941 
L 42.16996 153.818549 
L 43.493281 156.669598 
L 44.816601 158.253514 
L 46.139921 160.629388 
L 47.463241 160.470997 
L 48.786561 159.045472 
L 50.109881 158.88708 
L 51.433202 158.253514 
L 52.756522 159.362255 
L 54.079842 159.520647 
L 55.403162 160.154213 
L 56.726482 159.83743 
L 59.373123 159.520647 
L 62.019763 160.470997 
L 63.343083 160.78778 
L 64.666403 161.738129 
L 65.989723 161.738129 
L 67.313043 162.530087 
L 68.636364 162.371696 
L 69.959684 163.480437 
L 71.283004 164.272395 
L 72.606324 164.272395 
L 73.929644 162.054913 
L 75.252964 160.312605 
L 77.899605 159.045472 
L 79.222925 158.88708 
L 80.546245 157.778339 
L 81.869565 156.82799 
L 83.192885 156.036031 
L 84.516206 155.402465 
L 85.839526 154.92729 
L 87.162846 153.501766 
L 88.486166 153.660157 
L 89.809486 153.184983 
L 91.132806 153.026591 
L 93.779447 151.442675 
L 95.102767 151.442675 
L 96.426087 151.759458 
L 97.749407 154.135332 
L 99.072727 154.452115 
L 101.719368 153.184983 
L 103.042688 153.976941 
L 104.366008 155.085682 
L 105.689328 155.244073 
L 107.012648 157.461556 
L 108.335968 158.411906 
L 109.659289 157.936731 
L 110.982609 157.619948 
L 112.305929 157.936731 
L 113.629249 159.203864 
L 114.952569 159.362255 
L 116.275889 159.679038 
L 117.599209 158.570297 
L 118.92253 157.936731 
L 120.24585 157.461556 
L 121.56917 157.303164 
L 122.89249 156.194423 
L 124.21581 156.036031 
L 125.53913 156.036031 
L 126.862451 156.511206 
L 128.185771 155.560857 
L 130.832411 152.709808 
L 132.155731 151.91785 
L 133.479051 150.492325 
L 134.802372 150.01715 
L 136.125692 148.274843 
L 137.449012 148.274843 
L 138.772332 148.116451 
L 140.095652 147.324493 
L 141.418972 147.799668 
L 142.742292 148.908409 
L 144.065613 147.641276 
L 145.388933 146.05736 
L 146.712253 145.898969 
L 148.035573 148.274843 
L 149.358893 151.601066 
L 150.682213 153.343374 
L 152.005534 155.560857 
L 153.328854 156.352815 
L 154.652174 158.411906 
L 155.975494 162.371696 
L 158.622134 171.241626 
L 159.945455 173.934283 
L 161.268775 175.676591 
L 162.592095 176.785332 
L 165.238735 180.111556 
L 166.562055 180.428339 
L 167.885375 178.686031 
L 169.208696 179.161206 
L 170.532016 179.319598 
L 171.855336 178.844423 
L 173.178656 176.468549 
L 174.501976 175.359808 
L 175.825296 174.409458 
L 177.148617 174.884633 
L 178.471937 173.775892 
L 179.795257 172.983934 
L 181.118577 172.350367 
L 182.441897 173.934283 
L 183.765217 176.151766 
L 185.088538 177.102115 
L 186.411858 177.102115 
L 187.735178 174.409458 
L 189.058498 173.459108 
L 190.381818 171.875192 
L 191.705138 172.983934 
L 193.028458 174.251066 
L 194.351779 176.310157 
L 195.675099 177.57729 
L 196.998419 177.260507 
L 198.321739 177.57729 
L 199.645059 176.468549 
L 200.968379 176.310157 
L 202.2917 175.834983 
L 203.61502 176.626941 
L 204.93834 176.468549 
L 206.26166 175.834983 
L 207.58498 176.151766 
L 208.9083 176.943724 
L 210.231621 177.418899 
L 211.554941 176.310157 
L 212.878261 175.834983 
L 214.201581 174.884633 
L 215.524901 173.775892 
L 218.171542 173.142325 
L 219.494862 172.508759 
L 220.818182 171.241626 
L 222.141502 171.083234 
L 223.464822 170.608059 
L 224.788142 170.766451 
L 226.111462 168.865752 
L 227.434783 168.232185 
L 228.758103 166.648269 
L 230.081423 165.69792 
L 231.404743 165.69792 
L 232.728063 163.955612 
L 234.051383 163.322045 
L 235.374704 161.421346 
L 236.698024 161.104563 
L 238.021344 159.679038 
L 239.344664 157.619948 
L 240.667984 155.244073 
L 243.314625 150.01715 
L 244.637945 148.433234 
L 245.961265 147.958059 
L 247.284585 146.374143 
L 248.607905 146.05736 
L 249.931225 142.731136 
L 251.254545 142.255962 
L 252.577866 141.464003 
L 253.901186 141.622395 
L 255.224506 140.830437 
L 256.547826 139.088129 
L 257.871146 139.088129 
L 259.194466 138.929738 
L 260.517787 139.088129 
L 261.841107 137.662605 
L 263.164427 137.18743 
L 264.487747 137.18743 
L 265.811067 136.712255 
L 267.134387 136.553864 
L 269.781028 135.286731 
L 271.104348 135.445122 
L 272.427668 135.286731 
L 273.750988 135.445122 
L 275.074308 135.445122 
L 276.397628 135.128339 
L 277.720949 135.603514 
L 279.044269 134.653164 
L 280.367589 134.969948 
L 281.690909 134.494773 
L 283.014229 135.920297 
L 285.66087 135.920297 
L 286.98419 134.17799 
L 288.30751 132.752465 
L 289.63083 130.693374 
L 290.95415 131.326941 
L 293.600791 131.643724 
L 294.924111 130.534983 
L 296.247431 129.109458 
L 297.570751 128.634283 
L 298.894071 127.36715 
L 300.217391 126.416801 
L 301.540711 125.149668 
L 302.864032 126.258409 
L 304.187352 126.258409 
L 305.510672 127.208759 
L 306.833992 125.941626 
L 308.157312 124.991276 
L 309.480632 124.35771 
L 310.803953 124.040927 
L 312.127273 122.932185 
L 313.450593 120.873094 
L 314.773913 121.506661 
L 316.097233 121.665052 
L 317.420553 120.873094 
L 318.743874 122.45701 
L 320.067194 122.615402 
L 321.390514 122.932185 
L 322.713834 123.882535 
L 324.037154 125.624843 
L 325.360474 125.783234 
L 326.683794 126.575192 
L 328.007115 125.466451 
L 330.653755 128.159108 
L 331.977075 127.050367 
L 333.300395 126.258409 
L 334.623715 125.783234 
L 335.947036 129.109458 
L 339.916996 194.366801 
L 341.240316 189.773444 
L 342.563636 182.329038 
L 343.886957 173.934283 
L 345.210277 169.499318 
L 346.533597 165.856311 
L 347.856917 159.520647 
L 349.180237 156.986381 
L 350.503557 157.303164 
L 351.826877 157.144773 
L 353.150198 151.125892 
L 357.120158 106.776241 
L 358.443478 94.896871 
L 359.766798 85.868549 
L 361.090119 77.790577 
L 363.736759 69.554213 
L 365.060079 64.960857 
L 366.383399 63.693724 
L 367.706719 61.634633 
L 369.03004 61.31785 
L 370.35336 60.3675 
L 371.67668 60.525892 
L 373 63.376941 
L 373 63.376941 
" style="fill:none;stroke:#bc80bd;stroke-linecap:square;stroke-width:3;"/>
   </g>
   <g id="patch_3">
    <path d="M 38.2 241.5675 
L 38.2 24.1275 
" style="fill:none;stroke:#000000;stroke-linecap:square;stroke-linejoin:miter;stroke-width:0.6;"/>
   </g>
   <g id="patch_4">
    <path d="M 38.2 241.5675 
L 373 241.5675 
" style="fill:none;stroke:#000000;stroke-linecap:square;stroke-linejoin:miter;stroke-width:0.6;"/>
   </g>
   <g id="text_13">
    <!-- UK Job Vacancies (thousands) - Total Services -->
    <g style="fill:#323034;" transform="translate(38.2 18.1275)scale(0.16 -0.16)">
     <defs>
      <path d="M 4512 4237 
L 4512 4115 
Q 4122 4077 4016 3926 
Q 3910 3776 3910 3302 
L 3910 1670 
Q 3910 1178 3840 896 
Q 3770 614 3565 378 
Q 3155 -90 2272 -90 
Q 1574 -90 1184 205 
Q 666 589 666 1594 
L 666 3578 
Q 666 3898 566 3994 
Q 467 4090 90 4115 
L 90 4237 
L 1901 4237 
L 1901 4115 
Q 1517 4083 1417 3977 
Q 1318 3872 1318 3514 
L 1318 1517 
Q 1318 1101 1369 877 
Q 1421 653 1600 480 
Q 1901 192 2419 192 
Q 3066 192 3392 570 
Q 3539 749 3584 963 
Q 3629 1178 3629 1600 
L 3629 3283 
Q 3629 3782 3520 3936 
Q 3411 4090 3027 4115 
L 3027 4237 
L 4512 4237 
z
" id="STIXGeneral-Regular-55" transform="scale(0.015625)"/>
      <path d="M 4627 0 
L 2688 0 
L 2688 122 
L 2861 128 
Q 3130 134 3130 282 
Q 3130 397 2922 643 
Q 2714 890 2253 1370 
L 1613 2029 
L 1446 1894 
L 1446 710 
Q 1446 352 1548 253 
Q 1651 154 2016 122 
L 2016 0 
L 211 0 
L 211 122 
Q 589 141 691 262 
Q 794 384 794 800 
L 794 3514 
Q 794 3872 691 3981 
Q 589 4090 218 4115 
L 218 4237 
L 2022 4237 
L 2022 4115 
Q 1632 4090 1539 3987 
Q 1446 3885 1446 3507 
L 1446 2227 
L 2586 3277 
Q 2861 3533 2973 3667 
Q 3085 3802 3085 3910 
Q 3085 4013 3030 4057 
Q 2976 4102 2822 4109 
L 2662 4115 
L 2662 4237 
L 4320 4237 
L 4320 4115 
Q 3994 4090 3824 4003 
Q 3654 3917 3322 3597 
L 2131 2458 
L 3629 819 
Q 4026 384 4214 253 
Q 4403 122 4627 122 
L 4627 0 
z
" id="STIXGeneral-Regular-4b" transform="scale(0.015625)"/>
      <path id="STIXGeneral-Regular-20" transform="scale(0.015625)"/>
      <path d="M 2266 4237 
L 2266 4115 
Q 1875 4083 1776 3984 
Q 1677 3885 1677 3514 
L 1677 1184 
Q 1677 -90 608 -90 
Q 314 -90 138 32 
Q -38 154 -38 371 
Q -38 499 54 601 
Q 147 704 275 704 
Q 486 704 589 435 
Q 602 403 621 348 
Q 640 294 649 265 
Q 659 237 678 208 
Q 698 179 723 166 
Q 749 154 787 154 
Q 928 154 976 253 
Q 1024 352 1024 602 
L 1024 3520 
Q 1024 3898 928 3990 
Q 832 4083 429 4115 
L 429 4237 
L 2266 4237 
z
" id="STIXGeneral-Regular-4a" transform="scale(0.015625)"/>
      <path d="M 3008 1478 
Q 3008 806 2608 371 
Q 2208 -64 1568 -64 
Q 979 -64 582 368 
Q 186 800 186 1459 
Q 186 2125 582 2534 
Q 979 2944 1626 2944 
Q 2221 2944 2614 2537 
Q 3008 2131 3008 1478 
z
M 2432 1306 
Q 2432 2035 2112 2445 
Q 1856 2765 1504 2765 
Q 1171 2765 966 2493 
Q 762 2221 762 1747 
Q 762 928 1101 435 
Q 1318 115 1677 115 
Q 2029 115 2230 432 
Q 2432 749 2432 1306 
z
" id="STIXGeneral-Regular-6f" transform="scale(0.015625)"/>
      <path d="M 979 4358 
L 979 2406 
Q 1082 2650 1315 2797 
Q 1549 2944 1843 2944 
Q 2349 2944 2672 2541 
Q 2995 2138 2995 1536 
Q 2995 832 2566 384 
Q 2138 -64 1498 -64 
Q 1107 -64 774 67 
Q 442 198 442 358 
L 442 3622 
Q 442 3859 384 3926 
Q 326 3994 128 3994 
Q 83 3994 19 3981 
L 19 4090 
L 211 4147 
Q 864 4346 947 4371 
L 979 4358 
z
M 979 2035 
L 979 474 
Q 979 326 1161 233 
Q 1344 141 1600 141 
Q 1978 141 2195 416 
Q 2432 710 2432 1261 
Q 2432 1888 2182 2240 
Q 1971 2541 1613 2541 
Q 1357 2541 1168 2390 
Q 979 2240 979 2035 
z
" id="STIXGeneral-Regular-62" transform="scale(0.015625)"/>
      <path d="M 4461 4237 
L 4461 4115 
Q 4262 4109 4134 3990 
Q 4006 3872 3872 3533 
L 2451 -70 
L 2355 -70 
L 794 3411 
Q 589 3866 467 3987 
Q 346 4109 102 4115 
L 102 4237 
L 1798 4237 
L 1798 4115 
L 1619 4102 
Q 1331 4083 1331 3904 
Q 1331 3776 1581 3219 
L 2554 1030 
L 3494 3392 
Q 3616 3699 3616 3853 
Q 3616 3898 3606 3933 
Q 3597 3968 3584 3993 
Q 3571 4019 3536 4038 
Q 3501 4058 3481 4067 
Q 3462 4077 3411 4086 
Q 3360 4096 3337 4099 
Q 3315 4102 3248 4108 
Q 3181 4115 3155 4115 
L 3155 4237 
L 4461 4237 
z
" id="STIXGeneral-Regular-56" transform="scale(0.015625)"/>
      <path d="M 2547 998 
L 2637 941 
Q 2362 403 2112 205 
Q 1786 -64 1376 -64 
Q 845 -64 502 336 
Q 160 736 160 1357 
Q 160 2170 698 2618 
Q 1094 2944 1562 2944 
Q 1965 2944 2256 2749 
Q 2547 2554 2547 2285 
Q 2547 2176 2457 2096 
Q 2368 2016 2246 2016 
Q 2022 2016 1939 2310 
L 1901 2451 
Q 1850 2630 1773 2694 
Q 1696 2758 1523 2758 
Q 1133 2758 893 2451 
Q 653 2144 653 1645 
Q 653 1094 928 745 
Q 1203 397 1645 397 
Q 1920 397 2118 528 
Q 2317 659 2547 998 
z
" id="STIXGeneral-Regular-63" transform="scale(0.015625)"/>
      <path d="M 3104 0 
L 1773 0 
L 1779 96 
Q 2016 115 2096 233 
Q 2176 352 2176 672 
L 2176 1946 
Q 2176 2592 1709 2592 
Q 1549 2592 1408 2515 
Q 1267 2438 1050 2227 
L 1050 461 
Q 1050 269 1136 192 
Q 1222 115 1466 96 
L 1466 0 
L 115 0 
L 115 96 
Q 358 115 435 214 
Q 512 314 512 602 
L 512 2157 
Q 512 2394 467 2483 
Q 422 2573 288 2573 
Q 160 2573 102 2547 
L 102 2656 
Q 550 2784 979 2944 
L 1030 2925 
L 1030 2426 
L 1037 2426 
Q 1491 2944 1958 2944 
Q 2323 2944 2518 2688 
Q 2714 2432 2714 1958 
L 2714 544 
Q 2714 288 2790 205 
Q 2867 122 3104 96 
L 3104 0 
z
" id="STIXGeneral-Regular-6e" transform="scale(0.015625)"/>
      <path d="M 1152 4045 
Q 1152 3904 1056 3811 
Q 960 3718 819 3718 
Q 685 3718 592 3811 
Q 499 3904 499 4045 
Q 499 4179 595 4275 
Q 691 4371 826 4371 
Q 966 4371 1059 4275 
Q 1152 4179 1152 4045 
z
M 1619 0 
L 102 0 
L 102 96 
Q 435 115 521 211 
Q 608 307 608 666 
L 608 2118 
Q 608 2342 563 2432 
Q 518 2522 397 2522 
Q 243 2522 128 2490 
L 128 2592 
L 1120 2944 
L 1146 2918 
L 1146 672 
Q 1146 314 1226 218 
Q 1306 122 1619 96 
L 1619 0 
z
" id="STIXGeneral-Regular-69" transform="scale(0.015625)"/>
      <path d="M 998 1926 
L 1664 1523 
Q 1984 1331 2105 1164 
Q 2227 998 2227 736 
Q 2227 416 1961 176 
Q 1696 -64 1331 -64 
Q 1030 -64 864 -6 
Q 691 51 570 51 
Q 461 51 416 -26 
L 333 -26 
L 333 979 
L 435 979 
Q 538 512 730 294 
Q 922 77 1248 77 
Q 1485 77 1632 211 
Q 1779 346 1779 550 
Q 1779 845 1440 1030 
L 1094 1222 
Q 326 1651 326 2150 
Q 326 2522 566 2730 
Q 806 2938 1210 2938 
Q 1491 2938 1638 2867 
Q 1754 2816 1818 2816 
Q 1862 2816 1920 2880 
L 1990 2880 
L 2022 2010 
L 1926 2010 
Q 1818 2445 1654 2621 
Q 1491 2797 1203 2797 
Q 986 2797 854 2688 
Q 723 2579 723 2362 
Q 723 2253 796 2128 
Q 870 2003 998 1926 
z
" id="STIXGeneral-Regular-73" transform="scale(0.015625)"/>
      <path d="M 1946 -1030 
L 1869 -1133 
Q 1126 -710 716 32 
Q 307 774 307 1613 
Q 307 3386 1888 4326 
L 1946 4224 
Q 1293 3667 1075 3126 
Q 858 2586 858 1632 
Q 858 685 1082 96 
Q 1306 -493 1946 -1030 
z
" id="STIXGeneral-Regular-28" transform="scale(0.015625)"/>
      <path d="M 3117 0 
L 1760 0 
L 1760 96 
Q 2042 128 2118 224 
Q 2195 320 2195 653 
L 2195 1920 
Q 2195 2598 1722 2598 
Q 1530 2598 1370 2508 
Q 1210 2419 1005 2195 
L 1005 653 
Q 1005 320 1081 224 
Q 1158 128 1440 96 
L 1440 0 
L 58 0 
L 58 96 
Q 333 134 400 224 
Q 467 314 467 653 
L 467 3667 
Q 467 3872 406 3933 
Q 346 3994 141 3994 
Q 83 3994 64 3987 
L 64 4090 
L 237 4141 
Q 730 4288 973 4371 
L 1005 4352 
L 1005 2406 
Q 1229 2694 1446 2819 
Q 1664 2944 1946 2944 
Q 2733 2944 2733 1926 
L 2733 653 
Q 2733 320 2793 233 
Q 2854 147 3117 96 
L 3117 0 
z
" id="STIXGeneral-Regular-68" transform="scale(0.015625)"/>
      <path d="M 3072 320 
L 3072 230 
Q 2573 96 2195 -58 
L 2163 -38 
L 2163 486 
L 2150 486 
Q 1747 -64 1235 -64 
Q 870 -64 662 160 
Q 454 384 454 755 
L 454 2362 
Q 454 2598 371 2688 
Q 288 2778 58 2790 
L 58 2880 
L 992 2880 
L 992 813 
Q 992 595 1123 451 
Q 1254 307 1446 307 
Q 1760 307 1984 506 
Q 2067 582 2099 649 
Q 2131 717 2131 877 
L 2131 2355 
Q 2131 2605 2041 2678 
Q 1952 2752 1658 2771 
L 1658 2880 
L 2669 2880 
L 2669 685 
Q 2669 461 2742 390 
Q 2816 320 3034 320 
L 3072 320 
z
" id="STIXGeneral-Regular-75" transform="scale(0.015625)"/>
      <path d="M 186 4224 
L 262 4326 
Q 992 3891 1408 3148 
Q 1824 2406 1824 1581 
Q 1824 -166 243 -1133 
L 186 -1030 
Q 845 -486 1059 54 
Q 1274 595 1274 1562 
Q 1274 2534 1059 3120 
Q 845 3706 186 4224 
z
" id="STIXGeneral-Regular-29" transform="scale(0.015625)"/>
      <path d="M 1824 1242 
L 250 1242 
L 250 1645 
L 1824 1645 
L 1824 1242 
z
" id="STIXGeneral-Regular-2d" transform="scale(0.015625)"/>
      <path d="M 3795 3149 
L 3642 3149 
Q 3539 3674 3353 3821 
Q 3168 3968 2656 3968 
L 2278 3968 
L 2278 710 
Q 2278 346 2387 243 
Q 2496 141 2893 122 
L 2893 0 
L 1024 0 
L 1024 122 
Q 1427 147 1526 256 
Q 1626 365 1626 787 
L 1626 3968 
L 1242 3968 
Q 723 3968 540 3817 
Q 358 3667 262 3149 
L 109 3149 
L 154 4237 
L 3750 4237 
L 3795 3149 
z
" id="STIXGeneral-Regular-54" transform="scale(0.015625)"/>
      <path d="M 1645 0 
L 134 0 
L 134 96 
Q 435 122 531 221 
Q 627 320 627 589 
L 627 3590 
Q 627 3821 569 3910 
Q 512 4000 358 4000 
Q 224 4000 122 3987 
L 122 4090 
Q 730 4237 1133 4371 
L 1165 4346 
L 1165 557 
Q 1165 288 1254 201 
Q 1344 115 1645 96 
L 1645 0 
z
" id="STIXGeneral-Regular-6c" transform="scale(0.015625)"/>
      <path d="M 3002 2963 
L 2842 2963 
Q 2733 3360 2579 3565 
Q 2189 4064 1651 4064 
Q 1357 4064 1181 3894 
Q 1005 3725 1005 3456 
Q 1005 3328 1069 3206 
Q 1133 3085 1206 2998 
Q 1280 2912 1465 2784 
Q 1651 2656 1766 2589 
Q 1882 2522 2150 2362 
Q 2669 2061 2905 1763 
Q 3142 1466 3142 1107 
Q 3142 576 2771 243 
Q 2400 -90 1837 -90 
Q 1421 -90 1082 58 
Q 915 128 781 128 
Q 704 128 653 70 
Q 602 13 602 -83 
L 461 -83 
L 275 1274 
L 416 1274 
Q 845 141 1734 141 
Q 2074 141 2285 342 
Q 2496 544 2496 858 
Q 2496 1158 2310 1363 
Q 2003 1696 1235 2106 
Q 454 2522 454 3206 
Q 454 3718 768 4022 
Q 1082 4326 1568 4326 
Q 1907 4326 2240 4186 
Q 2413 4109 2522 4109 
Q 2688 4109 2726 4326 
L 2861 4326 
L 3002 2963 
z
" id="STIXGeneral-Regular-53" transform="scale(0.015625)"/>
      <path d="M 1024 2931 
L 1024 2342 
Q 1267 2688 1430 2816 
Q 1594 2944 1792 2944 
Q 1958 2944 2051 2854 
Q 2144 2765 2144 2605 
Q 2144 2470 2077 2393 
Q 2010 2317 1894 2317 
Q 1773 2317 1638 2445 
Q 1536 2541 1472 2541 
Q 1338 2541 1181 2355 
Q 1024 2170 1024 2016 
L 1024 576 
Q 1024 301 1133 205 
Q 1242 109 1568 96 
L 1568 0 
L 32 0 
L 32 96 
Q 339 154 412 224 
Q 486 294 486 538 
L 486 2138 
Q 486 2349 438 2435 
Q 390 2522 269 2522 
Q 166 2522 45 2496 
L 45 2598 
Q 448 2726 992 2944 
L 1024 2931 
z
" id="STIXGeneral-Regular-72" transform="scale(0.015625)"/>
      <path d="M 3053 2880 
L 3053 2784 
Q 2906 2771 2835 2688 
Q 2765 2605 2637 2285 
L 1818 230 
Q 1690 -90 1638 -90 
Q 1587 -90 1523 77 
Q 1510 96 1497 141 
Q 1485 186 1472 211 
L 704 2048 
Q 499 2534 403 2652 
Q 307 2771 122 2784 
L 122 2880 
L 1376 2880 
L 1376 2784 
Q 1210 2771 1146 2732 
Q 1082 2694 1082 2611 
Q 1082 2509 1139 2368 
L 1792 730 
L 2426 2387 
Q 2464 2483 2464 2579 
Q 2464 2758 2163 2784 
L 2163 2880 
L 3053 2880 
z
" id="STIXGeneral-Regular-76" transform="scale(0.015625)"/>
     </defs>
     <use xlink:href="#STIXGeneral-Regular-55"/>
     <use x="72.199982" xlink:href="#STIXGeneral-Regular-4b"/>
     <use x="144.399963" xlink:href="#STIXGeneral-Regular-20"/>
     <use x="169.399948" xlink:href="#STIXGeneral-Regular-4a"/>
     <use x="206.699936" xlink:href="#STIXGeneral-Regular-6f"/>
     <use x="256.699921" xlink:href="#STIXGeneral-Regular-62"/>
     <use x="306.699905" xlink:href="#STIXGeneral-Regular-20"/>
     <use x="331.69989" xlink:href="#STIXGeneral-Regular-56"/>
     <use x="403.899872" xlink:href="#STIXGeneral-Regular-61"/>
     <use x="448.299866" xlink:href="#STIXGeneral-Regular-63"/>
     <use x="492.69986" xlink:href="#STIXGeneral-Regular-61"/>
     <use x="537.099854" xlink:href="#STIXGeneral-Regular-6e"/>
     <use x="587.099838" xlink:href="#STIXGeneral-Regular-63"/>
     <use x="631.499832" xlink:href="#STIXGeneral-Regular-69"/>
     <use x="659.29982" xlink:href="#STIXGeneral-Regular-65"/>
     <use x="703.699814" xlink:href="#STIXGeneral-Regular-73"/>
     <use x="742.599808" xlink:href="#STIXGeneral-Regular-20"/>
     <use x="767.599792" xlink:href="#STIXGeneral-Regular-28"/>
     <use x="800.89978" xlink:href="#STIXGeneral-Regular-74"/>
     <use x="828.699768" xlink:href="#STIXGeneral-Regular-68"/>
     <use x="878.699753" xlink:href="#STIXGeneral-Regular-6f"/>
     <use x="928.699738" xlink:href="#STIXGeneral-Regular-75"/>
     <use x="978.699722" xlink:href="#STIXGeneral-Regular-73"/>
     <use x="1017.599716" xlink:href="#STIXGeneral-Regular-61"/>
     <use x="1061.99971" xlink:href="#STIXGeneral-Regular-6e"/>
     <use x="1111.999695" xlink:href="#STIXGeneral-Regular-64"/>
     <use x="1161.99968" xlink:href="#STIXGeneral-Regular-73"/>
     <use x="1200.899673" xlink:href="#STIXGeneral-Regular-29"/>
     <use x="1234.199661" xlink:href="#STIXGeneral-Regular-20"/>
     <use x="1259.199646" xlink:href="#STIXGeneral-Regular-2d"/>
     <use x="1292.499634" xlink:href="#STIXGeneral-Regular-20"/>
     <use x="1317.499619" xlink:href="#STIXGeneral-Regular-54"/>
     <use x="1378.599609" xlink:href="#STIXGeneral-Regular-6f"/>
     <use x="1428.599594" xlink:href="#STIXGeneral-Regular-74"/>
     <use x="1456.399582" xlink:href="#STIXGeneral-Regular-61"/>
     <use x="1500.799576" xlink:href="#STIXGeneral-Regular-6c"/>
     <use x="1528.599564" xlink:href="#STIXGeneral-Regular-20"/>
     <use x="1553.599548" xlink:href="#STIXGeneral-Regular-53"/>
     <use x="1609.199539" xlink:href="#STIXGeneral-Regular-65"/>
     <use x="1653.599533" xlink:href="#STIXGeneral-Regular-72"/>
     <use x="1686.899521" xlink:href="#STIXGeneral-Regular-76"/>
     <use x="1736.899506" xlink:href="#STIXGeneral-Regular-69"/>
     <use x="1764.699493" xlink:href="#STIXGeneral-Regular-63"/>
     <use x="1809.099487" xlink:href="#STIXGeneral-Regular-65"/>
     <use x="1853.499481" xlink:href="#STIXGeneral-Regular-73"/>
    </g>
   </g>
  </g>
 </g>
 <defs>
  <clipPath id="p7d6d26d808">
   <rect height="217.44" width="334.8" x="38.2" y="24.1275"/>
  </clipPath>
 </defs>
</svg>
