<?xml version="1.0" encoding="utf-8" standalone="no"?>
<!DOCTYPE svg PUBLIC "-//W3C//DTD SVG 1.1//EN"
  "http://www.w3.org/Graphics/SVG/1.1/DTD/svg11.dtd">
<svg xmlns:xlink="http://www.w3.org/1999/xlink" width="517.2pt" height="293.936406pt" viewBox="0 0 517.2 293.936406" xmlns="http://www.w3.org/2000/svg" version="1.1">
 <metadata>
  <rdf:RDF xmlns:dc="http://purl.org/dc/elements/1.1/" xmlns:cc="http://creativecommons.org/ns#" xmlns:rdf="http://www.w3.org/1999/02/22-rdf-syntax-ns#">
   <cc:Work>
    <dc:type rdf:resource="http://purl.org/dc/dcmitype/StillImage"/>
    <dc:date>2023-09-07T18:49:50.144245</dc:date>
    <dc:format>image/svg+xml</dc:format>
    <dc:creator>
     <cc:Agent>
      <dc:title>Matplotlib v3.7.2, https://matplotlib.org/</dc:title>
     </cc:Agent>
    </dc:creator>
   </cc:Work>
  </rdf:RDF>
 </metadata>
 <defs>
  <style type="text/css">*{stroke-linejoin: round; stroke-linecap: butt}</style>
 </defs>
 <g id="figure_1">
  <g id="patch_1">
   <path d="M 0 293.936406 
L 517.2 293.936406 
L 517.2 0 
L 0 0 
z
" style="fill: #ffffff"/>
  </g>
  <g id="axes_1">
   <g id="patch_2">
    <path d="M 63.6 247.936406 
L 510 247.936406 
L 510 26.176406 
L 63.6 26.176406 
z
" style="fill: #ffffff"/>
   </g>
   <g id="PathCollection_1">
    <path d="M 83.890909 214.456059 
C 84.421315 214.456059 84.930069 214.245327 85.305123 213.870273 
C 85.680176 213.495219 85.890909 212.986466 85.890909 212.456059 
C 85.890909 211.925653 85.680176 211.4169 85.305123 211.041846 
C 84.930069 210.666792 84.421315 210.456059 83.890909 210.456059 
C 83.360503 210.456059 82.851749 210.666792 82.476696 211.041846 
C 82.101642 211.4169 81.890909 211.925653 81.890909 212.456059 
C 81.890909 212.986466 82.101642 213.495219 82.476696 213.870273 
C 82.851749 214.245327 83.360503 214.456059 83.890909 214.456059 
z
" clip-path="url(#pa04fd3d513)" style="fill: #4c72b0; fill-opacity: 0.2; stroke: #4c72b0; stroke-width: 0.75"/>
    <path d="M 86.644921 200.340401 
C 87.175328 200.340401 87.684081 200.129668 88.059135 199.754615 
C 88.434189 199.379561 88.644921 198.870807 88.644921 198.340401 
C 88.644921 197.809995 88.434189 197.301241 88.059135 196.926187 
C 87.684081 196.551134 87.175328 196.340401 86.644921 196.340401 
C 86.114515 196.340401 85.605762 196.551134 85.230708 196.926187 
C 84.855654 197.301241 84.644921 197.809995 84.644921 198.340401 
C 84.644921 198.870807 84.855654 199.379561 85.230708 199.754615 
C 85.605762 200.129668 86.114515 200.340401 86.644921 200.340401 
z
" clip-path="url(#pa04fd3d513)" style="fill: #4c72b0; fill-opacity: 0.2; stroke: #4c72b0; stroke-width: 0.75"/>
    <path d="M 89.722414 193.966261 
C 90.252821 193.966261 90.761574 193.755529 91.136628 193.380475 
C 91.511682 193.005421 91.722414 192.496667 91.722414 191.966261 
C 91.722414 191.435855 91.511682 190.927101 91.136628 190.552048 
C 90.761574 190.176994 90.252821 189.966261 89.722414 189.966261 
C 89.192008 189.966261 88.683255 190.176994 88.308201 190.552048 
C 87.933147 190.927101 87.722414 191.435855 87.722414 191.966261 
C 87.722414 192.496667 87.933147 193.005421 88.308201 193.380475 
C 88.683255 193.755529 89.192008 193.966261 89.722414 193.966261 
z
" clip-path="url(#pa04fd3d513)" style="fill: #4c72b0; fill-opacity: 0.2; stroke: #4c72b0; stroke-width: 0.75"/>
    <path d="M 92.917141 184.641859 
C 93.447547 184.641859 93.956301 184.431126 94.331354 184.056072 
C 94.706408 183.681019 94.917141 183.172265 94.917141 182.641859 
C 94.917141 182.111453 94.706408 181.602699 94.331354 181.227645 
C 93.956301 180.852591 93.447547 180.641859 92.917141 180.641859 
C 92.386735 180.641859 91.877981 180.852591 91.502927 181.227645 
C 91.127873 181.602699 90.917141 182.111453 90.917141 182.641859 
C 90.917141 183.172265 91.127873 183.681019 91.502927 184.056072 
C 91.877981 184.431126 92.386735 184.641859 92.917141 184.641859 
z
" clip-path="url(#pa04fd3d513)" style="fill: #4c72b0; fill-opacity: 0.2; stroke: #4c72b0; stroke-width: 0.75"/>
    <path d="M 96.17765 186.256103 
C 96.708056 186.256103 97.21681 186.04537 97.591864 185.670316 
C 97.966917 185.295262 98.17765 184.786509 98.17765 184.256103 
C 98.17765 183.725697 97.966917 183.216943 97.591864 182.841889 
C 97.21681 182.466835 96.708056 182.256103 96.17765 182.256103 
C 95.647244 182.256103 95.13849 182.466835 94.763436 182.841889 
C 94.388383 183.216943 94.17765 183.725697 94.17765 184.256103 
C 94.17765 184.786509 94.388383 185.295262 94.763436 185.670316 
C 95.13849 186.04537 95.647244 186.256103 96.17765 186.256103 
z
" clip-path="url(#pa04fd3d513)" style="fill: #4c72b0; fill-opacity: 0.2; stroke: #4c72b0; stroke-width: 0.75"/>
    <path d="M 100.153008 169.748122 
C 100.683414 169.748122 101.192167 169.537389 101.567221 169.162336 
C 101.942275 168.787282 102.153008 168.278528 102.153008 167.748122 
C 102.153008 167.217716 101.942275 166.708962 101.567221 166.333909 
C 101.192167 165.958855 100.683414 165.748122 100.153008 165.748122 
C 99.622601 165.748122 99.113848 165.958855 98.738794 166.333909 
C 98.36374 166.708962 98.153008 167.217716 98.153008 167.748122 
C 98.153008 168.278528 98.36374 168.787282 98.738794 169.162336 
C 99.113848 169.537389 99.622601 169.748122 100.153008 169.748122 
z
" clip-path="url(#pa04fd3d513)" style="fill: #4c72b0; fill-opacity: 0.2; stroke: #4c72b0; stroke-width: 0.75"/>
    <path d="M 104.368037 157.71745 
C 104.898443 157.71745 105.407197 157.506718 105.782251 157.131664 
C 106.157304 156.75661 106.368037 156.247856 106.368037 155.71745 
C 106.368037 155.187044 106.157304 154.67829 105.782251 154.303237 
C 105.407197 153.928183 104.898443 153.71745 104.368037 153.71745 
C 103.837631 153.71745 103.328877 153.928183 102.953824 154.303237 
C 102.57877 154.67829 102.368037 155.187044 102.368037 155.71745 
C 102.368037 156.247856 102.57877 156.75661 102.953824 157.131664 
C 103.328877 157.506718 103.837631 157.71745 104.368037 157.71745 
z
" clip-path="url(#pa04fd3d513)" style="fill: #4c72b0; fill-opacity: 0.2; stroke: #4c72b0; stroke-width: 0.75"/>
    <path d="M 108.577721 133.160328 
C 109.108127 133.160328 109.616881 132.949596 109.991934 132.574542 
C 110.366988 132.199488 110.577721 131.690735 110.577721 131.160328 
C 110.577721 130.629922 110.366988 130.121169 109.991934 129.746115 
C 109.616881 129.371061 109.108127 129.160328 108.577721 129.160328 
C 108.047315 129.160328 107.538561 129.371061 107.163507 129.746115 
C 106.788453 130.121169 106.577721 130.629922 106.577721 131.160328 
C 106.577721 131.690735 106.788453 132.199488 107.163507 132.574542 
C 107.538561 132.949596 108.047315 133.160328 108.577721 133.160328 
z
" clip-path="url(#pa04fd3d513)" style="fill: #4c72b0; fill-opacity: 0.2; stroke: #4c72b0; stroke-width: 0.75"/>
    <path d="M 113.125565 160.297306 
C 113.655971 160.297306 114.164724 160.086573 114.539778 159.711519 
C 114.914832 159.336465 115.125565 158.827712 115.125565 158.297306 
C 115.125565 157.7669 114.914832 157.258146 114.539778 156.883092 
C 114.164724 156.508038 113.655971 156.297306 113.125565 156.297306 
C 112.595158 156.297306 112.086405 156.508038 111.711351 156.883092 
C 111.336297 157.258146 111.125565 157.7669 111.125565 158.297306 
C 111.125565 158.827712 111.336297 159.336465 111.711351 159.711519 
C 112.086405 160.086573 112.595158 160.297306 113.125565 160.297306 
z
" clip-path="url(#pa04fd3d513)" style="fill: #4c72b0; fill-opacity: 0.2; stroke: #4c72b0; stroke-width: 0.75"/>
    <path d="M 118.312579 140.272018 
C 118.842986 140.272018 119.351739 140.061286 119.726793 139.686232 
C 120.101847 139.311178 120.312579 138.802425 120.312579 138.272018 
C 120.312579 137.741612 120.101847 137.232859 119.726793 136.857805 
C 119.351739 136.482751 118.842986 136.272018 118.312579 136.272018 
C 117.782173 136.272018 117.27342 136.482751 116.898366 136.857805 
C 116.523312 137.232859 116.312579 137.741612 116.312579 138.272018 
C 116.312579 138.802425 116.523312 139.311178 116.898366 139.686232 
C 117.27342 140.061286 117.782173 140.272018 118.312579 140.272018 
z
" clip-path="url(#pa04fd3d513)" style="fill: #4c72b0; fill-opacity: 0.2; stroke: #4c72b0; stroke-width: 0.75"/>
    <path d="M 123.880586 128.884604 
C 124.410992 128.884604 124.919746 128.673871 125.2948 128.298817 
C 125.669853 127.923763 125.880586 127.41501 125.880586 126.884604 
C 125.880586 126.354197 125.669853 125.845444 125.2948 125.47039 
C 124.919746 125.095336 124.410992 124.884604 123.880586 124.884604 
C 123.35018 124.884604 122.841426 125.095336 122.466372 125.47039 
C 122.091319 125.845444 121.880586 126.354197 121.880586 126.884604 
C 121.880586 127.41501 122.091319 127.923763 122.466372 128.298817 
C 122.841426 128.673871 123.35018 128.884604 123.880586 128.884604 
z
" clip-path="url(#pa04fd3d513)" style="fill: #4c72b0; fill-opacity: 0.2; stroke: #4c72b0; stroke-width: 0.75"/>
    <path d="M 129.954878 131.952954 
C 130.485284 131.952954 130.994038 131.742221 131.369092 131.367167 
C 131.744146 130.992114 131.954878 130.48336 131.954878 129.952954 
C 131.954878 129.422548 131.744146 128.913794 131.369092 128.53874 
C 130.994038 128.163686 130.485284 127.952954 129.954878 127.952954 
C 129.424472 127.952954 128.915718 128.163686 128.540665 128.53874 
C 128.165611 128.913794 127.954878 129.422548 127.954878 129.952954 
C 127.954878 130.48336 128.165611 130.992114 128.540665 131.367167 
C 128.915718 131.742221 129.424472 131.952954 129.954878 131.952954 
z
" clip-path="url(#pa04fd3d513)" style="fill: #4c72b0; fill-opacity: 0.2; stroke: #4c72b0; stroke-width: 0.75"/>
    <path d="M 136.757737 108.787185 
C 137.288144 108.787185 137.796897 108.576453 138.171951 108.201399 
C 138.547005 107.826345 138.757737 107.317591 138.757737 106.787185 
C 138.757737 106.256779 138.547005 105.748025 138.171951 105.372972 
C 137.796897 104.997918 137.288144 104.787185 136.757737 104.787185 
C 136.227331 104.787185 135.718578 104.997918 135.343524 105.372972 
C 134.96847 105.748025 134.757737 106.256779 134.757737 106.787185 
C 134.757737 107.317591 134.96847 107.826345 135.343524 108.201399 
C 135.718578 108.576453 136.227331 108.787185 136.757737 108.787185 
z
" clip-path="url(#pa04fd3d513)" style="fill: #4c72b0; fill-opacity: 0.2; stroke: #4c72b0; stroke-width: 0.75"/>
    <path d="M 144.524475 103.142807 
C 145.054881 103.142807 145.563634 102.932074 145.938688 102.557021 
C 146.313742 102.181967 146.524475 101.673213 146.524475 101.142807 
C 146.524475 100.612401 146.313742 100.103647 145.938688 99.728593 
C 145.563634 99.35354 145.054881 99.142807 144.524475 99.142807 
C 143.994068 99.142807 143.485315 99.35354 143.110261 99.728593 
C 142.735207 100.103647 142.524475 100.612401 142.524475 101.142807 
C 142.524475 101.673213 142.735207 102.181967 143.110261 102.557021 
C 143.485315 102.932074 143.994068 103.142807 144.524475 103.142807 
z
" clip-path="url(#pa04fd3d513)" style="fill: #4c72b0; fill-opacity: 0.2; stroke: #4c72b0; stroke-width: 0.75"/>
    <path d="M 152.727255 109.412386 
C 153.257661 109.412386 153.766414 109.201653 154.141468 108.826599 
C 154.516522 108.451546 154.727255 107.942792 154.727255 107.412386 
C 154.727255 106.88198 154.516522 106.373226 154.141468 105.998172 
C 153.766414 105.623118 153.257661 105.412386 152.727255 105.412386 
C 152.196848 105.412386 151.688095 105.623118 151.313041 105.998172 
C 150.937987 106.373226 150.727255 106.88198 150.727255 107.412386 
C 150.727255 107.942792 150.937987 108.451546 151.313041 108.826599 
C 151.688095 109.201653 152.196848 109.412386 152.727255 109.412386 
z
" clip-path="url(#pa04fd3d513)" style="fill: #4c72b0; fill-opacity: 0.2; stroke: #4c72b0; stroke-width: 0.75"/>
    <path d="M 162.015437 97.566665 
C 162.545844 97.566665 163.054597 97.355933 163.429651 96.980879 
C 163.804705 96.605825 164.015437 96.097071 164.015437 95.566665 
C 164.015437 95.036259 163.804705 94.527506 163.429651 94.152452 
C 163.054597 93.777398 162.545844 93.566665 162.015437 93.566665 
C 161.485031 93.566665 160.976278 93.777398 160.601224 94.152452 
C 160.22617 94.527506 160.015437 95.036259 160.015437 95.566665 
C 160.015437 96.097071 160.22617 96.605825 160.601224 96.980879 
C 160.976278 97.355933 161.485031 97.566665 162.015437 97.566665 
z
" clip-path="url(#pa04fd3d513)" style="fill: #4c72b0; fill-opacity: 0.2; stroke: #4c72b0; stroke-width: 0.75"/>
    <path d="M 174.044314 79.778314 
C 174.57472 79.778314 175.083474 79.567581 175.458528 79.192527 
C 175.833581 78.817473 176.044314 78.30872 176.044314 77.778314 
C 176.044314 77.247908 175.833581 76.739154 175.458528 76.3641 
C 175.083474 75.989046 174.57472 75.778314 174.044314 75.778314 
C 173.513908 75.778314 173.005154 75.989046 172.6301 76.3641 
C 172.255047 76.739154 172.044314 77.247908 172.044314 77.778314 
C 172.044314 78.30872 172.255047 78.817473 172.6301 79.192527 
C 173.005154 79.567581 173.513908 79.778314 174.044314 79.778314 
z
" clip-path="url(#pa04fd3d513)" style="fill: #4c72b0; fill-opacity: 0.2; stroke: #4c72b0; stroke-width: 0.75"/>
    <path d="M 188.286426 114.016868 
C 188.816832 114.016868 189.325586 113.806135 189.70064 113.431082 
C 190.075693 113.056028 190.286426 112.547274 190.286426 112.016868 
C 190.286426 111.486462 190.075693 110.977708 189.70064 110.602654 
C 189.325586 110.227601 188.816832 110.016868 188.286426 110.016868 
C 187.75602 110.016868 187.247266 110.227601 186.872212 110.602654 
C 186.497159 110.977708 186.286426 111.486462 186.286426 112.016868 
C 186.286426 112.547274 186.497159 113.056028 186.872212 113.431082 
C 187.247266 113.806135 187.75602 114.016868 188.286426 114.016868 
z
" clip-path="url(#pa04fd3d513)" style="fill: #4c72b0; fill-opacity: 0.2; stroke: #4c72b0; stroke-width: 0.75"/>
    <path d="M 206.454064 125.805327 
C 206.98447 125.805327 207.493224 125.594594 207.868278 125.21954 
C 208.243332 124.844486 208.454064 124.335733 208.454064 123.805327 
C 208.454064 123.274921 208.243332 122.766167 207.868278 122.391113 
C 207.493224 122.016059 206.98447 121.805327 206.454064 121.805327 
C 205.923658 121.805327 205.414904 122.016059 205.039851 122.391113 
C 204.664797 122.766167 204.454064 123.274921 204.454064 123.805327 
C 204.454064 124.335733 204.664797 124.844486 205.039851 125.21954 
C 205.414904 125.594594 205.923658 125.805327 206.454064 125.805327 
z
" clip-path="url(#pa04fd3d513)" style="fill: #4c72b0; fill-opacity: 0.2; stroke: #4c72b0; stroke-width: 0.75"/>
    <path d="M 232.154255 118.324342 
C 232.684661 118.324342 233.193415 118.113609 233.568469 117.738555 
C 233.943523 117.363501 234.154255 116.854748 234.154255 116.324342 
C 234.154255 115.793935 233.943523 115.285182 233.568469 114.910128 
C 233.193415 114.535074 232.684661 114.324342 232.154255 114.324342 
C 231.623849 114.324342 231.115095 114.535074 230.740042 114.910128 
C 230.364988 115.285182 230.154255 115.793935 230.154255 116.324342 
C 230.154255 116.854748 230.364988 117.363501 230.740042 117.738555 
C 231.115095 118.113609 231.623849 118.324342 232.154255 118.324342 
z
" clip-path="url(#pa04fd3d513)" style="fill: #4c72b0; fill-opacity: 0.2; stroke: #4c72b0; stroke-width: 0.75"/>
    <path d="M 266.515776 134.950025 
C 267.046182 134.950025 267.554936 134.739292 267.92999 134.364238 
C 268.305043 133.989184 268.515776 133.480431 268.515776 132.950025 
C 268.515776 132.419618 268.305043 131.910865 267.92999 131.535811 
C 267.554936 131.160757 267.046182 130.950025 266.515776 130.950025 
C 265.98537 130.950025 265.476616 131.160757 265.101562 131.535811 
C 264.726509 131.910865 264.515776 132.419618 264.515776 132.950025 
C 264.515776 133.480431 264.726509 133.989184 265.101562 134.364238 
C 265.476616 134.739292 265.98537 134.950025 266.515776 134.950025 
z
" clip-path="url(#pa04fd3d513)" style="fill: #4c72b0; fill-opacity: 0.2; stroke: #4c72b0; stroke-width: 0.75"/>
    <path d="M 318.920395 94.04121 
C 319.450801 94.04121 319.959554 93.830477 320.334608 93.455423 
C 320.709662 93.080369 320.920395 92.571616 320.920395 92.04121 
C 320.920395 91.510803 320.709662 91.00205 320.334608 90.626996 
C 319.959554 90.251942 319.450801 90.04121 318.920395 90.04121 
C 318.389988 90.04121 317.881235 90.251942 317.506181 90.626996 
C 317.131127 91.00205 316.920395 91.510803 316.920395 92.04121 
C 316.920395 92.571616 317.131127 93.080369 317.506181 93.455423 
C 317.881235 93.830477 318.389988 94.04121 318.920395 94.04121 
z
" clip-path="url(#pa04fd3d513)" style="fill: #4c72b0; fill-opacity: 0.2; stroke: #4c72b0; stroke-width: 0.75"/>
    <path d="M 489.709091 113.488546 
C 490.239497 113.488546 490.748251 113.277813 491.123304 112.902759 
C 491.498358 112.527706 491.709091 112.018952 491.709091 111.488546 
C 491.709091 110.95814 491.498358 110.449386 491.123304 110.074332 
C 490.748251 109.699278 490.239497 109.488546 489.709091 109.488546 
C 489.178685 109.488546 488.669931 109.699278 488.294877 110.074332 
C 487.919824 110.449386 487.709091 110.95814 487.709091 111.488546 
C 487.709091 112.018952 487.919824 112.527706 488.294877 112.902759 
C 488.669931 113.277813 489.178685 113.488546 489.709091 113.488546 
z
" clip-path="url(#pa04fd3d513)" style="fill: #4c72b0; fill-opacity: 0.2; stroke: #4c72b0; stroke-width: 0.75"/>
   </g>
   <g id="matplotlib.axis_1">
    <g id="xtick_1">
     <g id="line2d_1">
      <defs>
       <path id="m58e889eb7d" d="M 0 0 
L 0 3.5 
" style="stroke: #323034; stroke-width: 0.8"/>
      </defs>
      <g>
       <use xlink:href="#m58e889eb7d" x="82.6452" y="247.936406" style="fill: #323034; stroke: #323034; stroke-width: 0.8"/>
      </g>
     </g>
     <g id="text_1">
      <!-- 0 -->
      <g style="fill: #323034" transform="translate(78.6452 265.863906) scale(0.16 -0.16)">
       <defs>
        <path id="STIXGeneral-Regular-30" d="M 3046 2112 
Q 3046 1683 2963 1302 
Q 2880 922 2717 602 
Q 2554 282 2266 96 
Q 1978 -90 1600 -90 
Q 1210 -90 915 108 
Q 621 307 461 640 
Q 301 973 227 1350 
Q 154 1728 154 2150 
Q 154 2746 301 3222 
Q 448 3699 790 4012 
Q 1133 4326 1626 4326 
Q 2253 4326 2649 3712 
Q 3046 3098 3046 2112 
z
M 2432 2080 
Q 2432 3091 2217 3625 
Q 2003 4160 1587 4160 
Q 1190 4160 979 3622 
Q 768 3085 768 2106 
Q 768 1120 979 598 
Q 1190 77 1600 77 
Q 2003 77 2217 598 
Q 2432 1120 2432 2080 
z
" transform="scale(0.015625)"/>
       </defs>
       <use xlink:href="#STIXGeneral-Regular-30"/>
      </g>
     </g>
    </g>
    <g id="xtick_2">
     <g id="line2d_2">
      <g>
       <use xlink:href="#m58e889eb7d" x="162.045625" y="247.936406" style="fill: #323034; stroke: #323034; stroke-width: 0.8"/>
      </g>
     </g>
     <g id="text_2">
      <!-- 1 -->
      <g style="fill: #323034" transform="translate(158.045625 265.863906) scale(0.16 -0.16)">
       <defs>
        <path id="STIXGeneral-Regular-31" d="M 2522 0 
L 755 0 
L 755 96 
Q 1107 115 1235 227 
Q 1363 339 1363 608 
L 1363 3482 
Q 1363 3795 1171 3795 
Q 1082 3795 883 3718 
L 710 3654 
L 710 3744 
L 1856 4326 
L 1914 4307 
L 1914 486 
Q 1914 275 2042 185 
Q 2170 96 2522 96 
L 2522 0 
z
" transform="scale(0.015625)"/>
       </defs>
       <use xlink:href="#STIXGeneral-Regular-31"/>
      </g>
     </g>
    </g>
    <g id="xtick_3">
     <g id="line2d_3">
      <g>
       <use xlink:href="#m58e889eb7d" x="241.446051" y="247.936406" style="fill: #323034; stroke: #323034; stroke-width: 0.8"/>
      </g>
     </g>
     <g id="text_3">
      <!-- 2 -->
      <g style="fill: #323034" transform="translate(237.446051 265.863906) scale(0.16 -0.16)">
       <defs>
        <path id="STIXGeneral-Regular-32" d="M 3034 877 
L 2688 0 
L 186 0 
L 186 77 
L 1325 1286 
Q 1773 1754 1965 2144 
Q 2157 2534 2157 2950 
Q 2157 3379 1920 3616 
Q 1683 3853 1267 3853 
Q 922 3853 720 3673 
Q 518 3494 326 3021 
L 192 3053 
Q 301 3648 630 3987 
Q 960 4326 1523 4326 
Q 2054 4326 2380 4006 
Q 2707 3686 2707 3200 
Q 2707 2477 1888 1613 
L 832 486 
L 2330 486 
Q 2541 486 2665 569 
Q 2790 653 2944 915 
L 3034 877 
z
" transform="scale(0.015625)"/>
       </defs>
       <use xlink:href="#STIXGeneral-Regular-32"/>
      </g>
     </g>
    </g>
    <g id="xtick_4">
     <g id="line2d_4">
      <g>
       <use xlink:href="#m58e889eb7d" x="320.846476" y="247.936406" style="fill: #323034; stroke: #323034; stroke-width: 0.8"/>
      </g>
     </g>
     <g id="text_4">
      <!-- 3 -->
      <g style="fill: #323034" transform="translate(316.846476 265.863906) scale(0.16 -0.16)">
       <defs>
        <path id="STIXGeneral-Regular-33" d="M 390 3264 
L 288 3290 
Q 435 3770 748 4048 
Q 1062 4326 1542 4326 
Q 1990 4326 2265 4083 
Q 2541 3840 2541 3450 
Q 2541 2925 1946 2566 
Q 2298 2413 2477 2227 
Q 2758 1914 2758 1402 
Q 2758 890 2464 506 
Q 2246 211 1840 60 
Q 1434 -90 979 -90 
Q 262 -90 262 275 
Q 262 378 339 442 
Q 416 506 525 506 
Q 685 506 915 339 
Q 1197 141 1466 141 
Q 1818 141 2058 425 
Q 2298 710 2298 1120 
Q 2298 1856 1632 2048 
Q 1434 2112 979 2112 
L 979 2202 
Q 1338 2323 1517 2432 
Q 2035 2726 2035 3290 
Q 2035 3610 1852 3776 
Q 1670 3942 1344 3942 
Q 768 3942 390 3264 
z
" transform="scale(0.015625)"/>
       </defs>
       <use xlink:href="#STIXGeneral-Regular-33"/>
      </g>
     </g>
    </g>
    <g id="xtick_5">
     <g id="line2d_5">
      <g>
       <use xlink:href="#m58e889eb7d" x="400.246901" y="247.936406" style="fill: #323034; stroke: #323034; stroke-width: 0.8"/>
      </g>
     </g>
     <g id="text_5">
      <!-- 4 -->
      <g style="fill: #323034" transform="translate(396.246901 265.863906) scale(0.16 -0.16)">
       <defs>
        <path id="STIXGeneral-Regular-34" d="M 3027 1069 
L 2368 1069 
L 2368 0 
L 1869 0 
L 1869 1069 
L 77 1069 
L 77 1478 
L 2086 4326 
L 2368 4326 
L 2368 1478 
L 3027 1478 
L 3027 1069 
z
M 1869 1478 
L 1869 3674 
L 333 1478 
L 1869 1478 
z
" transform="scale(0.015625)"/>
       </defs>
       <use xlink:href="#STIXGeneral-Regular-34"/>
      </g>
     </g>
    </g>
    <g id="xtick_6">
     <g id="line2d_6">
      <g>
       <use xlink:href="#m58e889eb7d" x="479.647326" y="247.936406" style="fill: #323034; stroke: #323034; stroke-width: 0.8"/>
      </g>
     </g>
     <g id="text_6">
      <!-- 5 -->
      <g style="fill: #323034" transform="translate(475.647326 265.863906) scale(0.16 -0.16)">
       <defs>
        <path id="STIXGeneral-Regular-35" d="M 2803 4358 
L 2573 3814 
Q 2534 3731 2400 3731 
L 1158 3731 
L 902 3187 
Q 1606 3053 1920 2896 
Q 2234 2739 2502 2368 
Q 2726 2061 2726 1555 
Q 2726 1094 2576 780 
Q 2426 467 2099 224 
Q 1664 -90 1011 -90 
Q 646 -90 422 19 
Q 198 128 198 307 
Q 198 550 486 550 
Q 717 550 960 352 
Q 1210 147 1414 147 
Q 1747 147 2012 480 
Q 2278 813 2278 1229 
Q 2278 1843 1850 2189 
Q 1293 2637 486 2637 
Q 410 2637 410 2688 
L 416 2720 
L 1114 4237 
L 2438 4237 
Q 2547 4237 2608 4269 
Q 2669 4301 2746 4403 
L 2803 4358 
z
" transform="scale(0.015625)"/>
       </defs>
       <use xlink:href="#STIXGeneral-Regular-35"/>
      </g>
     </g>
    </g>
    <g id="text_7">
     <!-- age -->
     <g transform="translate(275.695 283.248906) scale(0.16 -0.16)">
      <defs>
       <path id="STIXGeneral-Regular-61" d="M 2829 422 
L 2829 243 
Q 2586 -64 2253 -64 
Q 1888 -64 1843 403 
L 1837 403 
Q 1427 -64 909 -64 
Q 608 -64 422 112 
Q 237 288 237 602 
Q 237 1050 685 1350 
Q 992 1555 1837 1869 
L 1837 2214 
Q 1837 2502 1699 2646 
Q 1562 2790 1338 2790 
Q 1146 2790 1018 2697 
Q 890 2605 890 2477 
Q 890 2419 909 2348 
Q 928 2278 928 2208 
Q 928 2112 841 2029 
Q 755 1946 634 1946 
Q 525 1946 441 2029 
Q 358 2112 358 2240 
Q 358 2547 685 2752 
Q 986 2944 1421 2944 
Q 1939 2944 2176 2656 
Q 2291 2522 2323 2384 
Q 2355 2246 2355 1946 
L 2355 723 
Q 2355 301 2554 301 
Q 2682 301 2829 422 
z
M 1837 813 
L 1837 1715 
Q 1248 1510 1018 1293 
Q 800 1094 800 800 
Q 800 557 921 432 
Q 1043 307 1242 307 
Q 1453 307 1613 410 
Q 1747 506 1792 589 
Q 1837 672 1837 813 
z
" transform="scale(0.015625)"/>
       <path id="STIXGeneral-Regular-67" d="M 3008 2483 
L 2477 2483 
Q 2598 2208 2598 1946 
Q 2598 1453 2265 1203 
Q 1933 954 1600 954 
Q 1530 954 1357 973 
L 1235 986 
Q 1107 947 979 812 
Q 851 678 851 582 
Q 851 435 1350 410 
L 2176 371 
Q 2528 358 2739 172 
Q 2950 -13 2950 -314 
Q 2950 -685 2566 -986 
Q 2035 -1395 1286 -1395 
Q 826 -1395 502 -1212 
Q 179 -1030 179 -774 
Q 179 -595 320 -419 
Q 461 -243 806 6 
Q 602 102 534 172 
Q 467 243 467 346 
Q 467 531 762 787 
Q 909 915 1037 1043 
Q 717 1203 579 1401 
Q 442 1600 442 1901 
Q 442 2336 752 2640 
Q 1062 2944 1510 2944 
Q 1766 2944 2022 2848 
L 2163 2797 
Q 2349 2733 2515 2733 
L 3008 2733 
L 3008 2483 
z
M 973 2163 
L 973 2144 
Q 973 1683 1155 1398 
Q 1338 1114 1632 1114 
Q 1850 1114 1978 1270 
Q 2106 1427 2106 1690 
Q 2106 2112 1914 2464 
Q 1754 2765 1446 2765 
Q 1222 2765 1097 2605 
Q 973 2445 973 2163 
z
M 2771 -410 
Q 2771 -230 2595 -163 
Q 2419 -96 1978 -96 
Q 1344 -96 941 -13 
Q 749 -243 688 -348 
Q 627 -454 627 -563 
Q 627 -774 880 -902 
Q 1133 -1030 1555 -1030 
Q 2099 -1030 2435 -860 
Q 2771 -691 2771 -410 
z
" transform="scale(0.015625)"/>
       <path id="STIXGeneral-Regular-65" d="M 2611 1050 
L 2714 1005 
Q 2330 -64 1376 -64 
Q 813 -64 486 329 
Q 160 723 160 1389 
Q 160 2074 525 2509 
Q 890 2944 1485 2944 
Q 2061 2944 2374 2502 
Q 2560 2246 2592 1773 
L 621 1773 
Q 646 1370 700 1158 
Q 755 947 915 730 
Q 1184 378 1626 378 
Q 1939 378 2153 531 
Q 2368 685 2611 1050 
z
M 634 1978 
L 1939 1978 
Q 1882 2381 1750 2547 
Q 1619 2714 1312 2714 
Q 1043 2714 864 2525 
Q 685 2336 634 1978 
z
" transform="scale(0.015625)"/>
      </defs>
      <use xlink:href="#STIXGeneral-Regular-61"/>
      <use xlink:href="#STIXGeneral-Regular-67" x="44.399994"/>
      <use xlink:href="#STIXGeneral-Regular-65" x="94.399979"/>
     </g>
    </g>
   </g>
   <g id="matplotlib.axis_2">
    <g id="ytick_1">
     <g id="line2d_7">
      <defs>
       <path id="mc623c2d2f2" d="M 0 0 
L -3.5 0 
" style="stroke: #323034; stroke-width: 0.8"/>
      </defs>
      <g>
       <use xlink:href="#mc623c2d2f2" x="63.6" y="244.597914" style="fill: #323034; stroke: #323034; stroke-width: 0.8"/>
      </g>
     </g>
     <g id="text_8">
      <!-- 1000 -->
      <g style="fill: #323034" transform="translate(24.6 250.061664) scale(0.16 -0.16)">
       <use xlink:href="#STIXGeneral-Regular-31"/>
       <use xlink:href="#STIXGeneral-Regular-30" x="49.999985"/>
       <use xlink:href="#STIXGeneral-Regular-30" x="99.999969"/>
       <use xlink:href="#STIXGeneral-Regular-30" x="149.999954"/>
      </g>
     </g>
    </g>
    <g id="ytick_2">
     <g id="line2d_8">
      <g>
       <use xlink:href="#mc623c2d2f2" x="63.6" y="216.057946" style="fill: #323034; stroke: #323034; stroke-width: 0.8"/>
      </g>
     </g>
     <g id="text_9">
      <!-- 1500 -->
      <g style="fill: #323034" transform="translate(24.6 221.521696) scale(0.16 -0.16)">
       <use xlink:href="#STIXGeneral-Regular-31"/>
       <use xlink:href="#STIXGeneral-Regular-35" x="49.999985"/>
       <use xlink:href="#STIXGeneral-Regular-30" x="99.999969"/>
       <use xlink:href="#STIXGeneral-Regular-30" x="149.999954"/>
      </g>
     </g>
    </g>
    <g id="ytick_3">
     <g id="line2d_9">
      <g>
       <use xlink:href="#mc623c2d2f2" x="63.6" y="187.517979" style="fill: #323034; stroke: #323034; stroke-width: 0.8"/>
      </g>
     </g>
     <g id="text_10">
      <!-- 2000 -->
      <g style="fill: #323034" transform="translate(24.6 192.981729) scale(0.16 -0.16)">
       <use xlink:href="#STIXGeneral-Regular-32"/>
       <use xlink:href="#STIXGeneral-Regular-30" x="49.999985"/>
       <use xlink:href="#STIXGeneral-Regular-30" x="99.999969"/>
       <use xlink:href="#STIXGeneral-Regular-30" x="149.999954"/>
      </g>
     </g>
    </g>
    <g id="ytick_4">
     <g id="line2d_10">
      <g>
       <use xlink:href="#mc623c2d2f2" x="63.6" y="158.978011" style="fill: #323034; stroke: #323034; stroke-width: 0.8"/>
      </g>
     </g>
     <g id="text_11">
      <!-- 2500 -->
      <g style="fill: #323034" transform="translate(24.6 164.441761) scale(0.16 -0.16)">
       <use xlink:href="#STIXGeneral-Regular-32"/>
       <use xlink:href="#STIXGeneral-Regular-35" x="49.999985"/>
       <use xlink:href="#STIXGeneral-Regular-30" x="99.999969"/>
       <use xlink:href="#STIXGeneral-Regular-30" x="149.999954"/>
      </g>
     </g>
    </g>
    <g id="ytick_5">
     <g id="line2d_11">
      <g>
       <use xlink:href="#mc623c2d2f2" x="63.6" y="130.438044" style="fill: #323034; stroke: #323034; stroke-width: 0.8"/>
      </g>
     </g>
     <g id="text_12">
      <!-- 3000 -->
      <g style="fill: #323034" transform="translate(24.6 135.901794) scale(0.16 -0.16)">
       <use xlink:href="#STIXGeneral-Regular-33"/>
       <use xlink:href="#STIXGeneral-Regular-30" x="49.999985"/>
       <use xlink:href="#STIXGeneral-Regular-30" x="99.999969"/>
       <use xlink:href="#STIXGeneral-Regular-30" x="149.999954"/>
      </g>
     </g>
    </g>
    <g id="ytick_6">
     <g id="line2d_12">
      <g>
       <use xlink:href="#mc623c2d2f2" x="63.6" y="101.898077" style="fill: #323034; stroke: #323034; stroke-width: 0.8"/>
      </g>
     </g>
     <g id="text_13">
      <!-- 3500 -->
      <g style="fill: #323034" transform="translate(24.6 107.361827) scale(0.16 -0.16)">
       <use xlink:href="#STIXGeneral-Regular-33"/>
       <use xlink:href="#STIXGeneral-Regular-35" x="49.999985"/>
       <use xlink:href="#STIXGeneral-Regular-30" x="99.999969"/>
       <use xlink:href="#STIXGeneral-Regular-30" x="149.999954"/>
      </g>
     </g>
    </g>
    <g id="ytick_7">
     <g id="line2d_13">
      <g>
       <use xlink:href="#mc623c2d2f2" x="63.6" y="73.358109" style="fill: #323034; stroke: #323034; stroke-width: 0.8"/>
      </g>
     </g>
     <g id="text_14">
      <!-- 4000 -->
      <g style="fill: #323034" transform="translate(24.6 78.821859) scale(0.16 -0.16)">
       <use xlink:href="#STIXGeneral-Regular-34"/>
       <use xlink:href="#STIXGeneral-Regular-30" x="49.999985"/>
       <use xlink:href="#STIXGeneral-Regular-30" x="99.999969"/>
       <use xlink:href="#STIXGeneral-Regular-30" x="149.999954"/>
      </g>
     </g>
    </g>
    <g id="ytick_8">
     <g id="line2d_14">
      <g>
       <use xlink:href="#mc623c2d2f2" x="63.6" y="44.818142" style="fill: #323034; stroke: #323034; stroke-width: 0.8"/>
      </g>
     </g>
     <g id="text_15">
      <!-- 4500 -->
      <g style="fill: #323034" transform="translate(24.6 50.281892) scale(0.16 -0.16)">
       <use xlink:href="#STIXGeneral-Regular-34"/>
       <use xlink:href="#STIXGeneral-Regular-35" x="49.999985"/>
       <use xlink:href="#STIXGeneral-Regular-30" x="99.999969"/>
       <use xlink:href="#STIXGeneral-Regular-30" x="149.999954"/>
      </g>
     </g>
    </g>
    <g id="text_16">
     <!-- sales -->
     <g transform="translate(18.1275 152.610156) rotate(-90) scale(0.16 -0.16)">
      <defs>
       <path id="STIXGeneral-Regular-73" d="M 998 1926 
L 1664 1523 
Q 1984 1331 2105 1164 
Q 2227 998 2227 736 
Q 2227 416 1961 176 
Q 1696 -64 1331 -64 
Q 1030 -64 864 -6 
Q 691 51 570 51 
Q 461 51 416 -26 
L 333 -26 
L 333 979 
L 435 979 
Q 538 512 730 294 
Q 922 77 1248 77 
Q 1485 77 1632 211 
Q 1779 346 1779 550 
Q 1779 845 1440 1030 
L 1094 1222 
Q 326 1651 326 2150 
Q 326 2522 566 2730 
Q 806 2938 1210 2938 
Q 1491 2938 1638 2867 
Q 1754 2816 1818 2816 
Q 1862 2816 1920 2880 
L 1990 2880 
L 2022 2010 
L 1926 2010 
Q 1818 2445 1654 2621 
Q 1491 2797 1203 2797 
Q 986 2797 854 2688 
Q 723 2579 723 2362 
Q 723 2253 796 2128 
Q 870 2003 998 1926 
z
" transform="scale(0.015625)"/>
       <path id="STIXGeneral-Regular-6c" d="M 1645 0 
L 134 0 
L 134 96 
Q 435 122 531 221 
Q 627 320 627 589 
L 627 3590 
Q 627 3821 569 3910 
Q 512 4000 358 4000 
Q 224 4000 122 3987 
L 122 4090 
Q 730 4237 1133 4371 
L 1165 4346 
L 1165 557 
Q 1165 288 1254 201 
Q 1344 115 1645 96 
L 1645 0 
z
" transform="scale(0.015625)"/>
      </defs>
      <use xlink:href="#STIXGeneral-Regular-73"/>
      <use xlink:href="#STIXGeneral-Regular-61" x="38.899994"/>
      <use xlink:href="#STIXGeneral-Regular-6c" x="83.299988"/>
      <use xlink:href="#STIXGeneral-Regular-65" x="111.099976"/>
      <use xlink:href="#STIXGeneral-Regular-73" x="155.499969"/>
     </g>
    </g>
   </g>
   <g id="LineCollection_1">
    <path d="M 83.890909 237.856406 
L 83.890909 187.055713 
" clip-path="url(#pa04fd3d513)" style="fill: none; stroke: #bc80bd; stroke-opacity: 0.2; stroke-width: 2"/>
    <path d="M 86.644921 220.418841 
L 86.644921 176.261961 
" clip-path="url(#pa04fd3d513)" style="fill: none; stroke: #bc80bd; stroke-opacity: 0.2; stroke-width: 2"/>
    <path d="M 89.722414 213.036868 
L 89.722414 170.895654 
" clip-path="url(#pa04fd3d513)" style="fill: none; stroke: #bc80bd; stroke-opacity: 0.2; stroke-width: 2"/>
    <path d="M 92.917141 208.71337 
L 92.917141 156.570348 
" clip-path="url(#pa04fd3d513)" style="fill: none; stroke: #bc80bd; stroke-opacity: 0.2; stroke-width: 2"/>
    <path d="M 96.17765 207.874558 
L 96.17765 160.637647 
" clip-path="url(#pa04fd3d513)" style="fill: none; stroke: #bc80bd; stroke-opacity: 0.2; stroke-width: 2"/>
    <path d="M 100.153008 192.935623 
L 100.153008 142.560621 
" clip-path="url(#pa04fd3d513)" style="fill: none; stroke: #bc80bd; stroke-opacity: 0.2; stroke-width: 2"/>
    <path d="M 104.368037 184.938052 
L 104.368037 126.496848 
" clip-path="url(#pa04fd3d513)" style="fill: none; stroke: #bc80bd; stroke-opacity: 0.2; stroke-width: 2"/>
    <path d="M 108.577721 168.172203 
L 108.577721 94.148454 
" clip-path="url(#pa04fd3d513)" style="fill: none; stroke: #bc80bd; stroke-opacity: 0.2; stroke-width: 2"/>
    <path d="M 113.125565 188.320762 
L 113.125565 128.273849 
" clip-path="url(#pa04fd3d513)" style="fill: none; stroke: #bc80bd; stroke-opacity: 0.2; stroke-width: 2"/>
    <path d="M 118.312579 170.612692 
L 118.312579 105.931345 
" clip-path="url(#pa04fd3d513)" style="fill: none; stroke: #bc80bd; stroke-opacity: 0.2; stroke-width: 2"/>
    <path d="M 123.880586 161.978746 
L 123.880586 91.790462 
" clip-path="url(#pa04fd3d513)" style="fill: none; stroke: #bc80bd; stroke-opacity: 0.2; stroke-width: 2"/>
    <path d="M 129.954878 162.02017 
L 129.954878 97.885738 
" clip-path="url(#pa04fd3d513)" style="fill: none; stroke: #bc80bd; stroke-opacity: 0.2; stroke-width: 2"/>
    <path d="M 136.757737 140.591419 
L 136.757737 72.982951 
" clip-path="url(#pa04fd3d513)" style="fill: none; stroke: #bc80bd; stroke-opacity: 0.2; stroke-width: 2"/>
    <path d="M 144.524475 138.204891 
L 144.524475 64.080723 
" clip-path="url(#pa04fd3d513)" style="fill: none; stroke: #bc80bd; stroke-opacity: 0.2; stroke-width: 2"/>
    <path d="M 152.727255 144.962161 
L 152.727255 69.862611 
" clip-path="url(#pa04fd3d513)" style="fill: none; stroke: #bc80bd; stroke-opacity: 0.2; stroke-width: 2"/>
    <path d="M 162.015437 133.854656 
L 162.015437 57.278675 
" clip-path="url(#pa04fd3d513)" style="fill: none; stroke: #bc80bd; stroke-opacity: 0.2; stroke-width: 2"/>
    <path d="M 174.044314 119.300221 
L 174.044314 36.256406 
" clip-path="url(#pa04fd3d513)" style="fill: none; stroke: #bc80bd; stroke-opacity: 0.2; stroke-width: 2"/>
    <path d="M 188.286426 149.514726 
L 188.286426 74.51901 
" clip-path="url(#pa04fd3d513)" style="fill: none; stroke: #bc80bd; stroke-opacity: 0.2; stroke-width: 2"/>
    <path d="M 206.454064 162.004667 
L 206.454064 85.605987 
" clip-path="url(#pa04fd3d513)" style="fill: none; stroke: #bc80bd; stroke-opacity: 0.2; stroke-width: 2"/>
    <path d="M 232.154255 152.069016 
L 232.154255 80.579667 
" clip-path="url(#pa04fd3d513)" style="fill: none; stroke: #bc80bd; stroke-opacity: 0.2; stroke-width: 2"/>
    <path d="M 266.515776 168.204091 
L 266.515776 97.695958 
" clip-path="url(#pa04fd3d513)" style="fill: none; stroke: #bc80bd; stroke-opacity: 0.2; stroke-width: 2"/>
    <path d="M 318.920395 133.376559 
L 318.920395 50.70586 
" clip-path="url(#pa04fd3d513)" style="fill: none; stroke: #bc80bd; stroke-opacity: 0.2; stroke-width: 2"/>
    <path d="M 489.709091 161.454514 
L 489.709091 61.522578 
" clip-path="url(#pa04fd3d513)" style="fill: none; stroke: #bc80bd; stroke-opacity: 0.2; stroke-width: 2"/>
   </g>
   <g id="line2d_15"/>
   <g id="patch_3">
    <path d="M 63.6 247.936406 
L 63.6 26.176406 
" style="fill: none; stroke: #000000; stroke-width: 0.6; stroke-linejoin: miter; stroke-linecap: square"/>
   </g>
   <g id="patch_4">
    <path d="M 63.6 247.936406 
L 510 247.936406 
" style="fill: none; stroke: #000000; stroke-width: 0.6; stroke-linejoin: miter; stroke-linecap: square"/>
   </g>
   <g id="text_17">
    <!-- Binscatter: sales as a function of age -->
    <g style="fill: #323034" transform="translate(63.6 20.176406) scale(0.19 -0.19)">
     <defs>
      <path id="STIXGeneral-Regular-42" d="M 2701 2234 
L 2701 2227 
Q 3181 2150 3482 1875 
Q 3795 1594 3795 1139 
Q 3795 608 3379 304 
Q 2963 0 2266 0 
L 109 0 
L 109 122 
Q 486 134 604 246 
Q 723 358 723 723 
L 723 3520 
Q 723 3891 614 3990 
Q 506 4090 109 4115 
L 109 4237 
L 1901 4237 
Q 2726 4237 3152 3958 
Q 3578 3680 3578 3168 
Q 3578 2733 3315 2502 
Q 3130 2342 2701 2234 
z
M 1376 2342 
L 1965 2342 
Q 2925 2342 2925 3136 
Q 2925 3546 2640 3773 
Q 2355 4000 1792 4000 
L 1530 4000 
Q 1376 4000 1376 3795 
L 1376 2342 
z
M 1376 2086 
L 1376 525 
Q 1376 365 1462 301 
Q 1549 237 1773 237 
Q 2208 237 2413 285 
Q 2618 333 2816 512 
Q 3059 723 3059 1146 
Q 3059 1632 2758 1830 
Q 2688 1882 2617 1917 
Q 2547 1952 2492 1974 
Q 2438 1997 2348 2016 
Q 2259 2035 2211 2044 
Q 2163 2054 2041 2060 
Q 1920 2067 1862 2070 
Q 1805 2074 1635 2080 
Q 1466 2086 1376 2086 
z
" transform="scale(0.015625)"/>
      <path id="STIXGeneral-Regular-69" d="M 1152 4045 
Q 1152 3904 1056 3811 
Q 960 3718 819 3718 
Q 685 3718 592 3811 
Q 499 3904 499 4045 
Q 499 4179 595 4275 
Q 691 4371 826 4371 
Q 966 4371 1059 4275 
Q 1152 4179 1152 4045 
z
M 1619 0 
L 102 0 
L 102 96 
Q 435 115 521 211 
Q 608 307 608 666 
L 608 2118 
Q 608 2342 563 2432 
Q 518 2522 397 2522 
Q 243 2522 128 2490 
L 128 2592 
L 1120 2944 
L 1146 2918 
L 1146 672 
Q 1146 314 1226 218 
Q 1306 122 1619 96 
L 1619 0 
z
" transform="scale(0.015625)"/>
      <path id="STIXGeneral-Regular-6e" d="M 3104 0 
L 1773 0 
L 1779 96 
Q 2016 115 2096 233 
Q 2176 352 2176 672 
L 2176 1946 
Q 2176 2592 1709 2592 
Q 1549 2592 1408 2515 
Q 1267 2438 1050 2227 
L 1050 461 
Q 1050 269 1136 192 
Q 1222 115 1466 96 
L 1466 0 
L 115 0 
L 115 96 
Q 358 115 435 214 
Q 512 314 512 602 
L 512 2157 
Q 512 2394 467 2483 
Q 422 2573 288 2573 
Q 160 2573 102 2547 
L 102 2656 
Q 550 2784 979 2944 
L 1030 2925 
L 1030 2426 
L 1037 2426 
Q 1491 2944 1958 2944 
Q 2323 2944 2518 2688 
Q 2714 2432 2714 1958 
L 2714 544 
Q 2714 288 2790 205 
Q 2867 122 3104 96 
L 3104 0 
z
" transform="scale(0.015625)"/>
      <path id="STIXGeneral-Regular-63" d="M 2547 998 
L 2637 941 
Q 2362 403 2112 205 
Q 1786 -64 1376 -64 
Q 845 -64 502 336 
Q 160 736 160 1357 
Q 160 2170 698 2618 
Q 1094 2944 1562 2944 
Q 1965 2944 2256 2749 
Q 2547 2554 2547 2285 
Q 2547 2176 2457 2096 
Q 2368 2016 2246 2016 
Q 2022 2016 1939 2310 
L 1901 2451 
Q 1850 2630 1773 2694 
Q 1696 2758 1523 2758 
Q 1133 2758 893 2451 
Q 653 2144 653 1645 
Q 653 1094 928 745 
Q 1203 397 1645 397 
Q 1920 397 2118 528 
Q 2317 659 2547 998 
z
" transform="scale(0.015625)"/>
      <path id="STIXGeneral-Regular-74" d="M 1702 493 
L 1786 422 
Q 1478 -64 1011 -64 
Q 448 -64 448 749 
L 448 2675 
L 109 2675 
Q 83 2694 83 2720 
Q 83 2771 192 2842 
Q 435 2982 813 3526 
Q 826 3546 874 3606 
Q 922 3667 941 3706 
Q 986 3706 986 3622 
L 986 2880 
L 1632 2880 
L 1632 2675 
L 986 2675 
L 986 845 
Q 986 538 1062 403 
Q 1139 269 1318 269 
Q 1510 269 1702 493 
z
" transform="scale(0.015625)"/>
      <path id="STIXGeneral-Regular-72" d="M 1024 2931 
L 1024 2342 
Q 1267 2688 1430 2816 
Q 1594 2944 1792 2944 
Q 1958 2944 2051 2854 
Q 2144 2765 2144 2605 
Q 2144 2470 2077 2393 
Q 2010 2317 1894 2317 
Q 1773 2317 1638 2445 
Q 1536 2541 1472 2541 
Q 1338 2541 1181 2355 
Q 1024 2170 1024 2016 
L 1024 576 
Q 1024 301 1133 205 
Q 1242 109 1568 96 
L 1568 0 
L 32 0 
L 32 96 
Q 339 154 412 224 
Q 486 294 486 538 
L 486 2138 
Q 486 2349 438 2435 
Q 390 2522 269 2522 
Q 166 2522 45 2496 
L 45 2598 
Q 448 2726 992 2944 
L 1024 2931 
z
" transform="scale(0.015625)"/>
      <path id="STIXGeneral-Regular-3a" d="M 1123 2832 
Q 1229 2726 1229 2579 
Q 1229 2432 1126 2329 
Q 1024 2227 877 2227 
Q 730 2227 624 2332 
Q 518 2438 518 2579 
Q 518 2733 620 2835 
Q 723 2938 877 2938 
Q 1018 2938 1123 2832 
z
M 1229 282 
Q 1229 141 1126 35 
Q 1024 -70 877 -70 
Q 730 -70 624 35 
Q 518 141 518 282 
Q 518 435 620 537 
Q 723 640 877 640 
Q 1018 640 1123 534 
Q 1229 429 1229 282 
z
" transform="scale(0.015625)"/>
      <path id="STIXGeneral-Regular-20" transform="scale(0.015625)"/>
      <path id="STIXGeneral-Regular-66" d="M 134 2880 
L 659 2880 
Q 666 3264 710 3478 
Q 755 3693 883 3910 
Q 1152 4371 1786 4371 
Q 2074 4371 2262 4259 
Q 2451 4147 2451 3974 
Q 2451 3866 2374 3789 
Q 2298 3712 2182 3712 
Q 2029 3712 1894 3942 
Q 1741 4192 1555 4192 
Q 1197 4192 1197 3622 
L 1197 2880 
L 1978 2880 
L 1978 2675 
L 1197 2675 
L 1197 666 
Q 1197 307 1299 208 
Q 1402 109 1792 96 
L 1792 0 
L 128 0 
L 128 96 
Q 474 115 566 214 
Q 659 314 659 666 
L 659 2675 
L 134 2675 
L 134 2880 
z
" transform="scale(0.015625)"/>
      <path id="STIXGeneral-Regular-75" d="M 3072 320 
L 3072 230 
Q 2573 96 2195 -58 
L 2163 -38 
L 2163 486 
L 2150 486 
Q 1747 -64 1235 -64 
Q 870 -64 662 160 
Q 454 384 454 755 
L 454 2362 
Q 454 2598 371 2688 
Q 288 2778 58 2790 
L 58 2880 
L 992 2880 
L 992 813 
Q 992 595 1123 451 
Q 1254 307 1446 307 
Q 1760 307 1984 506 
Q 2067 582 2099 649 
Q 2131 717 2131 877 
L 2131 2355 
Q 2131 2605 2041 2678 
Q 1952 2752 1658 2771 
L 1658 2880 
L 2669 2880 
L 2669 685 
Q 2669 461 2742 390 
Q 2816 320 3034 320 
L 3072 320 
z
" transform="scale(0.015625)"/>
      <path id="STIXGeneral-Regular-6f" d="M 3008 1478 
Q 3008 806 2608 371 
Q 2208 -64 1568 -64 
Q 979 -64 582 368 
Q 186 800 186 1459 
Q 186 2125 582 2534 
Q 979 2944 1626 2944 
Q 2221 2944 2614 2537 
Q 3008 2131 3008 1478 
z
M 2432 1306 
Q 2432 2035 2112 2445 
Q 1856 2765 1504 2765 
Q 1171 2765 966 2493 
Q 762 2221 762 1747 
Q 762 928 1101 435 
Q 1318 115 1677 115 
Q 2029 115 2230 432 
Q 2432 749 2432 1306 
z
" transform="scale(0.015625)"/>
     </defs>
     <use xlink:href="#STIXGeneral-Regular-42"/>
     <use xlink:href="#STIXGeneral-Regular-69" x="66.699997"/>
     <use xlink:href="#STIXGeneral-Regular-6e" x="94.499985"/>
     <use xlink:href="#STIXGeneral-Regular-73" x="144.499969"/>
     <use xlink:href="#STIXGeneral-Regular-63" x="183.399963"/>
     <use xlink:href="#STIXGeneral-Regular-61" x="227.799957"/>
     <use xlink:href="#STIXGeneral-Regular-74" x="272.199951"/>
     <use xlink:href="#STIXGeneral-Regular-74" x="299.999939"/>
     <use xlink:href="#STIXGeneral-Regular-65" x="327.799927"/>
     <use xlink:href="#STIXGeneral-Regular-72" x="372.199921"/>
     <use xlink:href="#STIXGeneral-Regular-3a" x="405.499908"/>
     <use xlink:href="#STIXGeneral-Regular-20" x="433.299896"/>
     <use xlink:href="#STIXGeneral-Regular-73" x="458.299881"/>
     <use xlink:href="#STIXGeneral-Regular-61" x="497.199875"/>
     <use xlink:href="#STIXGeneral-Regular-6c" x="541.599869"/>
     <use xlink:href="#STIXGeneral-Regular-65" x="569.399857"/>
     <use xlink:href="#STIXGeneral-Regular-73" x="613.79985"/>
     <use xlink:href="#STIXGeneral-Regular-20" x="652.699844"/>
     <use xlink:href="#STIXGeneral-Regular-61" x="677.699829"/>
     <use xlink:href="#STIXGeneral-Regular-73" x="722.099823"/>
     <use xlink:href="#STIXGeneral-Regular-20" x="760.999817"/>
     <use xlink:href="#STIXGeneral-Regular-61" x="785.999802"/>
     <use xlink:href="#STIXGeneral-Regular-20" x="830.399796"/>
     <use xlink:href="#STIXGeneral-Regular-66" x="855.39978"/>
     <use xlink:href="#STIXGeneral-Regular-75" x="888.699768"/>
     <use xlink:href="#STIXGeneral-Regular-6e" x="938.699753"/>
     <use xlink:href="#STIXGeneral-Regular-63" x="988.699738"/>
     <use xlink:href="#STIXGeneral-Regular-74" x="1033.099731"/>
     <use xlink:href="#STIXGeneral-Regular-69" x="1060.899719"/>
     <use xlink:href="#STIXGeneral-Regular-6f" x="1088.699707"/>
     <use xlink:href="#STIXGeneral-Regular-6e" x="1138.699692"/>
     <use xlink:href="#STIXGeneral-Regular-20" x="1188.699677"/>
     <use xlink:href="#STIXGeneral-Regular-6f" x="1213.699661"/>
     <use xlink:href="#STIXGeneral-Regular-66" x="1263.699646"/>
     <use xlink:href="#STIXGeneral-Regular-20" x="1296.999634"/>
     <use xlink:href="#STIXGeneral-Regular-61" x="1321.999619"/>
     <use xlink:href="#STIXGeneral-Regular-67" x="1366.399612"/>
     <use xlink:href="#STIXGeneral-Regular-65" x="1416.399597"/>
    </g>
   </g>
  </g>
 </g>
 <defs>
  <clipPath id="pa04fd3d513">
   <rect x="63.6" y="26.176406" width="446.4" height="221.76"/>
  </clipPath>
 </defs>
</svg>