<?xml version="1.0" encoding="utf-8" standalone="no"?>
<!DOCTYPE svg PUBLIC "-//W3C//DTD SVG 1.1//EN"
  "http://www.w3.org/Graphics/SVG/1.1/DTD/svg11.dtd">
<svg height="294.0525pt" version="1.1" viewBox="0 0 437.94 294.0525" width="437.94pt" xmlns="http://www.w3.org/2000/svg" xmlns:xlink="http://www.w3.org/1999/xlink">
 <metadata>
  <rdf:RDF xmlns:cc="http://creativecommons.org/ns#" xmlns:dc="http://purl.org/dc/elements/1.1/" xmlns:rdf="http://www.w3.org/1999/02/22-rdf-syntax-ns#">
   <cc:Work>
    <dc:type rdf:resource="http://purl.org/dc/dcmitype/StillImage"/>
    <dc:date>2022-08-20T17:52:17.212348</dc:date>
    <dc:format>image/svg+xml</dc:format>
    <dc:creator>
     <cc:Agent>
      <dc:title>Matplotlib v3.4.3, https://matplotlib.org/</dc:title>
     </cc:Agent>
    </dc:creator>
   </cc:Work>
  </rdf:RDF>
 </metadata>
 <defs>
  <style type="text/css">*{stroke-linecap:butt;stroke-linejoin:round;}</style>
 </defs>
 <g id="figure_1">
  <g id="patch_1">
   <path d="M 0 294.0525 
L 437.94 294.0525 
L 437.94 0 
L 0 0 
z
" style="fill:none;"/>
  </g>
  <g id="axes_1">
   <g id="patch_2">
    <path d="M 40 255.2525 
L 430.74 255.2525 
L 430.74 24.1275 
L 40 24.1275 
z
" style="fill:#ffffff;"/>
   </g>
   <g id="matplotlib.axis_1">
    <g id="xtick_1">
     <g id="line2d_1">
      <defs>
       <path d="M 0 0 
L 0 3.5 
" id="m2f5ccc4d4e" style="stroke:#323034;stroke-width:0.8;"/>
      </defs>
      <g>
       <use style="fill:#323034;stroke:#323034;stroke-width:0.8;" x="75.7248" xlink:href="#m2f5ccc4d4e" y="255.2525"/>
      </g>
     </g>
     <g id="text_1">
      <!-- $\mathdefault{40}$ -->
      <g style="fill:#323034;" transform="translate(69.7248 270.448125)scale(0.12 -0.12)">
       <defs>
        <path d="M 3027 1069 
L 2368 1069 
L 2368 0 
L 1869 0 
L 1869 1069 
L 77 1069 
L 77 1478 
L 2086 4326 
L 2368 4326 
L 2368 1478 
L 3027 1478 
L 3027 1069 
z
M 1869 1478 
L 1869 3674 
L 333 1478 
L 1869 1478 
z
" id="STIXGeneral-Regular-34" transform="scale(0.015625)"/>
        <path d="M 3046 2112 
Q 3046 1683 2963 1302 
Q 2880 922 2717 602 
Q 2554 282 2266 96 
Q 1978 -90 1600 -90 
Q 1210 -90 915 108 
Q 621 307 461 640 
Q 301 973 227 1350 
Q 154 1728 154 2150 
Q 154 2746 301 3222 
Q 448 3699 790 4012 
Q 1133 4326 1626 4326 
Q 2253 4326 2649 3712 
Q 3046 3098 3046 2112 
z
M 2432 2080 
Q 2432 3091 2217 3625 
Q 2003 4160 1587 4160 
Q 1190 4160 979 3622 
Q 768 3085 768 2106 
Q 768 1120 979 598 
Q 1190 77 1600 77 
Q 2003 77 2217 598 
Q 2432 1120 2432 2080 
z
" id="STIXGeneral-Regular-30" transform="scale(0.015625)"/>
       </defs>
       <use transform="translate(0 0.40625)" xlink:href="#STIXGeneral-Regular-34"/>
       <use transform="translate(49.999985 0.40625)" xlink:href="#STIXGeneral-Regular-30"/>
      </g>
     </g>
    </g>
    <g id="xtick_2">
     <g id="line2d_2">
      <g>
       <use style="fill:#323034;stroke:#323034;stroke-width:0.8;" x="120.3808" xlink:href="#m2f5ccc4d4e" y="255.2525"/>
      </g>
     </g>
     <g id="text_2">
      <!-- $\mathdefault{60}$ -->
      <g style="fill:#323034;" transform="translate(114.3808 270.448125)scale(0.12 -0.12)">
       <defs>
        <path d="M 2854 4378 
L 2867 4275 
Q 2112 4154 1606 3664 
Q 1101 3174 973 2451 
Q 1344 2739 1786 2739 
Q 2349 2739 2672 2380 
Q 2995 2022 2995 1402 
Q 2995 774 2669 378 
Q 2291 -90 1651 -90 
Q 870 -90 518 557 
Q 218 1107 218 1786 
Q 218 2835 915 3552 
Q 1312 3962 1731 4131 
Q 2150 4301 2854 4378 
z
M 2419 1203 
Q 2419 2445 1555 2445 
Q 1235 2445 1024 2275 
Q 813 2106 813 1702 
Q 813 954 1046 522 
Q 1280 90 1722 90 
Q 2061 90 2240 394 
Q 2419 698 2419 1203 
z
" id="STIXGeneral-Regular-36" transform="scale(0.015625)"/>
       </defs>
       <use transform="translate(0 0.59375)" xlink:href="#STIXGeneral-Regular-36"/>
       <use transform="translate(49.999985 0.59375)" xlink:href="#STIXGeneral-Regular-30"/>
      </g>
     </g>
    </g>
    <g id="xtick_3">
     <g id="line2d_3">
      <g>
       <use style="fill:#323034;stroke:#323034;stroke-width:0.8;" x="165.0368" xlink:href="#m2f5ccc4d4e" y="255.2525"/>
      </g>
     </g>
     <g id="text_3">
      <!-- $\mathdefault{80}$ -->
      <g style="fill:#323034;" transform="translate(159.0368 270.448125)scale(0.12 -0.12)">
       <defs>
        <path d="M 2848 992 
Q 2848 499 2505 204 
Q 2163 -90 1587 -90 
Q 1050 -90 704 204 
Q 358 499 358 954 
Q 358 1293 524 1533 
Q 691 1773 1190 2125 
Q 710 2522 553 2765 
Q 397 3008 397 3328 
Q 397 3782 745 4054 
Q 1094 4326 1638 4326 
Q 2106 4326 2410 4060 
Q 2714 3795 2714 3411 
Q 2714 3059 2531 2848 
Q 2349 2637 1856 2374 
Q 2432 1990 2640 1689 
Q 2848 1389 2848 992 
z
M 2272 3411 
Q 2272 3744 2086 3945 
Q 1901 4147 1574 4147 
Q 1248 4147 1059 3977 
Q 870 3808 870 3513 
Q 870 3219 1059 2979 
Q 1248 2739 1670 2490 
Q 1997 2682 2134 2896 
Q 2272 3110 2272 3411 
z
M 1734 1741 
L 1357 1997 
Q 1075 1766 960 1545 
Q 845 1325 845 1011 
Q 845 576 1065 333 
Q 1286 90 1658 90 
Q 1971 90 2166 285 
Q 2362 480 2362 794 
Q 2362 1082 2214 1299 
Q 2067 1517 1734 1741 
z
" id="STIXGeneral-Regular-38" transform="scale(0.015625)"/>
       </defs>
       <use transform="translate(0 0.40625)" xlink:href="#STIXGeneral-Regular-38"/>
       <use transform="translate(49.999985 0.40625)" xlink:href="#STIXGeneral-Regular-30"/>
      </g>
     </g>
    </g>
    <g id="xtick_4">
     <g id="line2d_4">
      <g>
       <use style="fill:#323034;stroke:#323034;stroke-width:0.8;" x="209.6928" xlink:href="#m2f5ccc4d4e" y="255.2525"/>
      </g>
     </g>
     <g id="text_4">
      <!-- $\mathdefault{100}$ -->
      <g style="fill:#323034;" transform="translate(200.6928 270.448125)scale(0.12 -0.12)">
       <defs>
        <path d="M 2522 0 
L 755 0 
L 755 96 
Q 1107 115 1235 227 
Q 1363 339 1363 608 
L 1363 3482 
Q 1363 3795 1171 3795 
Q 1082 3795 883 3718 
L 710 3654 
L 710 3744 
L 1856 4326 
L 1914 4307 
L 1914 486 
Q 1914 275 2042 185 
Q 2170 96 2522 96 
L 2522 0 
z
" id="STIXGeneral-Regular-31" transform="scale(0.015625)"/>
       </defs>
       <use transform="translate(0 0.40625)" xlink:href="#STIXGeneral-Regular-31"/>
       <use transform="translate(49.999985 0.40625)" xlink:href="#STIXGeneral-Regular-30"/>
       <use transform="translate(99.999969 0.40625)" xlink:href="#STIXGeneral-Regular-30"/>
      </g>
     </g>
    </g>
    <g id="xtick_5">
     <g id="line2d_5">
      <g>
       <use style="fill:#323034;stroke:#323034;stroke-width:0.8;" x="254.3488" xlink:href="#m2f5ccc4d4e" y="255.2525"/>
      </g>
     </g>
     <g id="text_5">
      <!-- $\mathdefault{120}$ -->
      <g style="fill:#323034;" transform="translate(245.3488 270.448125)scale(0.12 -0.12)">
       <defs>
        <path d="M 3034 877 
L 2688 0 
L 186 0 
L 186 77 
L 1325 1286 
Q 1773 1754 1965 2144 
Q 2157 2534 2157 2950 
Q 2157 3379 1920 3616 
Q 1683 3853 1267 3853 
Q 922 3853 720 3673 
Q 518 3494 326 3021 
L 192 3053 
Q 301 3648 630 3987 
Q 960 4326 1523 4326 
Q 2054 4326 2380 4006 
Q 2707 3686 2707 3200 
Q 2707 2477 1888 1613 
L 832 486 
L 2330 486 
Q 2541 486 2665 569 
Q 2790 653 2944 915 
L 3034 877 
z
" id="STIXGeneral-Regular-32" transform="scale(0.015625)"/>
       </defs>
       <use transform="translate(0 0.40625)" xlink:href="#STIXGeneral-Regular-31"/>
       <use transform="translate(49.999985 0.40625)" xlink:href="#STIXGeneral-Regular-32"/>
       <use transform="translate(99.999969 0.40625)" xlink:href="#STIXGeneral-Regular-30"/>
      </g>
     </g>
    </g>
    <g id="xtick_6">
     <g id="line2d_6">
      <g>
       <use style="fill:#323034;stroke:#323034;stroke-width:0.8;" x="299.0048" xlink:href="#m2f5ccc4d4e" y="255.2525"/>
      </g>
     </g>
     <g id="text_6">
      <!-- $\mathdefault{140}$ -->
      <g style="fill:#323034;" transform="translate(290.0048 270.448125)scale(0.12 -0.12)">
       <use transform="translate(0 0.40625)" xlink:href="#STIXGeneral-Regular-31"/>
       <use transform="translate(49.999985 0.40625)" xlink:href="#STIXGeneral-Regular-34"/>
       <use transform="translate(99.999969 0.40625)" xlink:href="#STIXGeneral-Regular-30"/>
      </g>
     </g>
    </g>
    <g id="xtick_7">
     <g id="line2d_7">
      <g>
       <use style="fill:#323034;stroke:#323034;stroke-width:0.8;" x="343.6608" xlink:href="#m2f5ccc4d4e" y="255.2525"/>
      </g>
     </g>
     <g id="text_7">
      <!-- $\mathdefault{160}$ -->
      <g style="fill:#323034;" transform="translate(334.6608 270.448125)scale(0.12 -0.12)">
       <use transform="translate(0 0.59375)" xlink:href="#STIXGeneral-Regular-31"/>
       <use transform="translate(49.999985 0.59375)" xlink:href="#STIXGeneral-Regular-36"/>
       <use transform="translate(99.999969 0.59375)" xlink:href="#STIXGeneral-Regular-30"/>
      </g>
     </g>
    </g>
    <g id="xtick_8">
     <g id="line2d_8">
      <g>
       <use style="fill:#323034;stroke:#323034;stroke-width:0.8;" x="388.3168" xlink:href="#m2f5ccc4d4e" y="255.2525"/>
      </g>
     </g>
     <g id="text_8">
      <!-- $\mathdefault{180}$ -->
      <g style="fill:#323034;" transform="translate(379.3168 270.448125)scale(0.12 -0.12)">
       <use transform="translate(0 0.40625)" xlink:href="#STIXGeneral-Regular-31"/>
       <use transform="translate(49.999985 0.40625)" xlink:href="#STIXGeneral-Regular-38"/>
       <use transform="translate(99.999969 0.40625)" xlink:href="#STIXGeneral-Regular-30"/>
      </g>
     </g>
    </g>
    <g id="text_9">
     <!-- Time step -->
     <g transform="translate(211.537813 284.248125)scale(0.12 -0.12)">
      <defs>
       <path d="M 3795 3149 
L 3642 3149 
Q 3539 3674 3353 3821 
Q 3168 3968 2656 3968 
L 2278 3968 
L 2278 710 
Q 2278 346 2387 243 
Q 2496 141 2893 122 
L 2893 0 
L 1024 0 
L 1024 122 
Q 1427 147 1526 256 
Q 1626 365 1626 787 
L 1626 3968 
L 1242 3968 
Q 723 3968 540 3817 
Q 358 3667 262 3149 
L 109 3149 
L 154 4237 
L 3750 4237 
L 3795 3149 
z
" id="STIXGeneral-Regular-54" transform="scale(0.015625)"/>
       <path d="M 1152 4045 
Q 1152 3904 1056 3811 
Q 960 3718 819 3718 
Q 685 3718 592 3811 
Q 499 3904 499 4045 
Q 499 4179 595 4275 
Q 691 4371 826 4371 
Q 966 4371 1059 4275 
Q 1152 4179 1152 4045 
z
M 1619 0 
L 102 0 
L 102 96 
Q 435 115 521 211 
Q 608 307 608 666 
L 608 2118 
Q 608 2342 563 2432 
Q 518 2522 397 2522 
Q 243 2522 128 2490 
L 128 2592 
L 1120 2944 
L 1146 2918 
L 1146 672 
Q 1146 314 1226 218 
Q 1306 122 1619 96 
L 1619 0 
z
" id="STIXGeneral-Regular-69" transform="scale(0.015625)"/>
       <path d="M 4960 0 
L 3565 0 
L 3565 96 
Q 3834 122 3907 208 
Q 3981 294 3981 576 
L 3981 1894 
Q 3981 2278 3869 2444 
Q 3757 2611 3488 2611 
Q 3264 2611 3107 2521 
Q 2950 2432 2803 2221 
L 2803 608 
Q 2803 301 2896 201 
Q 2989 102 3264 96 
L 3264 0 
L 1830 0 
L 1830 96 
Q 2112 115 2189 188 
Q 2266 262 2266 550 
L 2266 1901 
Q 2266 2611 1850 2611 
Q 1670 2611 1468 2531 
Q 1267 2451 1171 2336 
Q 1088 2240 1088 2227 
L 1088 448 
Q 1088 243 1177 176 
Q 1267 109 1523 96 
L 1523 0 
L 102 0 
L 102 96 
Q 371 102 460 195 
Q 550 288 550 563 
L 550 2150 
Q 550 2387 499 2480 
Q 448 2573 326 2573 
Q 230 2573 122 2547 
L 122 2656 
Q 557 2778 1011 2944 
L 1062 2925 
L 1062 2451 
L 1075 2451 
Q 1363 2752 1584 2848 
Q 1805 2944 2054 2944 
Q 2560 2944 2733 2406 
Q 3232 2944 3776 2944 
Q 4518 2944 4518 1792 
L 4518 493 
Q 4518 282 4582 202 
Q 4646 122 4794 109 
L 4960 96 
L 4960 0 
z
" id="STIXGeneral-Regular-6d" transform="scale(0.015625)"/>
       <path d="M 2611 1050 
L 2714 1005 
Q 2330 -64 1376 -64 
Q 813 -64 486 329 
Q 160 723 160 1389 
Q 160 2074 525 2509 
Q 890 2944 1485 2944 
Q 2061 2944 2374 2502 
Q 2560 2246 2592 1773 
L 621 1773 
Q 646 1370 700 1158 
Q 755 947 915 730 
Q 1184 378 1626 378 
Q 1939 378 2153 531 
Q 2368 685 2611 1050 
z
M 634 1978 
L 1939 1978 
Q 1882 2381 1750 2547 
Q 1619 2714 1312 2714 
Q 1043 2714 864 2525 
Q 685 2336 634 1978 
z
" id="STIXGeneral-Regular-65" transform="scale(0.015625)"/>
       <path id="STIXGeneral-Regular-20" transform="scale(0.015625)"/>
       <path d="M 998 1926 
L 1664 1523 
Q 1984 1331 2105 1164 
Q 2227 998 2227 736 
Q 2227 416 1961 176 
Q 1696 -64 1331 -64 
Q 1030 -64 864 -6 
Q 691 51 570 51 
Q 461 51 416 -26 
L 333 -26 
L 333 979 
L 435 979 
Q 538 512 730 294 
Q 922 77 1248 77 
Q 1485 77 1632 211 
Q 1779 346 1779 550 
Q 1779 845 1440 1030 
L 1094 1222 
Q 326 1651 326 2150 
Q 326 2522 566 2730 
Q 806 2938 1210 2938 
Q 1491 2938 1638 2867 
Q 1754 2816 1818 2816 
Q 1862 2816 1920 2880 
L 1990 2880 
L 2022 2010 
L 1926 2010 
Q 1818 2445 1654 2621 
Q 1491 2797 1203 2797 
Q 986 2797 854 2688 
Q 723 2579 723 2362 
Q 723 2253 796 2128 
Q 870 2003 998 1926 
z
" id="STIXGeneral-Regular-73" transform="scale(0.015625)"/>
       <path d="M 1702 493 
L 1786 422 
Q 1478 -64 1011 -64 
Q 448 -64 448 749 
L 448 2675 
L 109 2675 
Q 83 2694 83 2720 
Q 83 2771 192 2842 
Q 435 2982 813 3526 
Q 826 3546 874 3606 
Q 922 3667 941 3706 
Q 986 3706 986 3622 
L 986 2880 
L 1632 2880 
L 1632 2675 
L 986 2675 
L 986 845 
Q 986 538 1062 403 
Q 1139 269 1318 269 
Q 1510 269 1702 493 
z
" id="STIXGeneral-Regular-74" transform="scale(0.015625)"/>
       <path d="M 1018 2931 
L 1018 2438 
Q 1421 2944 1939 2944 
Q 2406 2944 2707 2560 
Q 3008 2176 3008 1581 
Q 3008 883 2621 409 
Q 2234 -64 1664 -64 
Q 1466 -64 1328 -6 
Q 1190 51 1018 211 
L 1018 -794 
Q 1018 -1094 1120 -1180 
Q 1222 -1267 1581 -1274 
L 1581 -1389 
L 32 -1389 
L 32 -1280 
Q 314 -1254 397 -1171 
Q 480 -1088 480 -838 
L 480 2157 
Q 480 2381 429 2451 
Q 378 2522 218 2522 
Q 115 2522 58 2515 
L 58 2618 
Q 506 2752 979 2944 
L 1018 2931 
z
M 1018 2138 
L 1018 563 
Q 1018 422 1238 281 
Q 1459 141 1683 141 
Q 2029 141 2243 467 
Q 2458 794 2458 1325 
Q 2458 1888 2243 2224 
Q 2029 2560 1670 2560 
Q 1446 2560 1232 2419 
Q 1018 2278 1018 2138 
z
" id="STIXGeneral-Regular-70" transform="scale(0.015625)"/>
      </defs>
      <use xlink:href="#STIXGeneral-Regular-54"/>
      <use x="61.099991" xlink:href="#STIXGeneral-Regular-69"/>
      <use x="88.899979" xlink:href="#STIXGeneral-Regular-6d"/>
      <use x="166.699966" xlink:href="#STIXGeneral-Regular-65"/>
      <use x="211.09996" xlink:href="#STIXGeneral-Regular-20"/>
      <use x="236.099945" xlink:href="#STIXGeneral-Regular-73"/>
      <use x="274.999939" xlink:href="#STIXGeneral-Regular-74"/>
      <use x="302.799927" xlink:href="#STIXGeneral-Regular-65"/>
      <use x="347.199921" xlink:href="#STIXGeneral-Regular-70"/>
     </g>
    </g>
   </g>
   <g id="matplotlib.axis_2">
    <g id="ytick_1">
     <g id="line2d_9">
      <defs>
       <path d="M 0 0 
L -3.5 0 
" id="m1fb8d55764" style="stroke:#323034;stroke-width:0.8;"/>
      </defs>
      <g>
       <use style="fill:#323034;stroke:#323034;stroke-width:0.8;" x="40" xlink:href="#m1fb8d55764" y="255.2525"/>
      </g>
     </g>
     <g id="text_10">
      <!-- $\mathdefault{14}$ -->
      <g style="fill:#323034;" transform="translate(21 259.350312)scale(0.12 -0.12)">
       <use transform="translate(0 0.40625)" xlink:href="#STIXGeneral-Regular-31"/>
       <use transform="translate(49.999985 0.40625)" xlink:href="#STIXGeneral-Regular-34"/>
      </g>
     </g>
    </g>
    <g id="ytick_2">
     <g id="line2d_10">
      <g>
       <use style="fill:#323034;stroke:#323034;stroke-width:0.8;" x="40" xlink:href="#m1fb8d55764" y="216.731667"/>
      </g>
     </g>
     <g id="text_11">
      <!-- $\mathdefault{16}$ -->
      <g style="fill:#323034;" transform="translate(21 220.829479)scale(0.12 -0.12)">
       <use transform="translate(0 0.59375)" xlink:href="#STIXGeneral-Regular-31"/>
       <use transform="translate(49.999985 0.59375)" xlink:href="#STIXGeneral-Regular-36"/>
      </g>
     </g>
    </g>
    <g id="ytick_3">
     <g id="line2d_11">
      <g>
       <use style="fill:#323034;stroke:#323034;stroke-width:0.8;" x="40" xlink:href="#m1fb8d55764" y="178.210833"/>
      </g>
     </g>
     <g id="text_12">
      <!-- $\mathdefault{18}$ -->
      <g style="fill:#323034;" transform="translate(21 182.308646)scale(0.12 -0.12)">
       <use transform="translate(0 0.40625)" xlink:href="#STIXGeneral-Regular-31"/>
       <use transform="translate(49.999985 0.40625)" xlink:href="#STIXGeneral-Regular-38"/>
      </g>
     </g>
    </g>
    <g id="ytick_4">
     <g id="line2d_12">
      <g>
       <use style="fill:#323034;stroke:#323034;stroke-width:0.8;" x="40" xlink:href="#m1fb8d55764" y="139.69"/>
      </g>
     </g>
     <g id="text_13">
      <!-- $\mathdefault{20}$ -->
      <g style="fill:#323034;" transform="translate(21 143.787813)scale(0.12 -0.12)">
       <use transform="translate(0 0.40625)" xlink:href="#STIXGeneral-Regular-32"/>
       <use transform="translate(49.999985 0.40625)" xlink:href="#STIXGeneral-Regular-30"/>
      </g>
     </g>
    </g>
    <g id="ytick_5">
     <g id="line2d_13">
      <g>
       <use style="fill:#323034;stroke:#323034;stroke-width:0.8;" x="40" xlink:href="#m1fb8d55764" y="101.169167"/>
      </g>
     </g>
     <g id="text_14">
      <!-- $\mathdefault{22}$ -->
      <g style="fill:#323034;" transform="translate(21 105.266979)scale(0.12 -0.12)">
       <use transform="translate(0 0.40625)" xlink:href="#STIXGeneral-Regular-32"/>
       <use transform="translate(49.999985 0.40625)" xlink:href="#STIXGeneral-Regular-32"/>
      </g>
     </g>
    </g>
    <g id="ytick_6">
     <g id="line2d_14">
      <g>
       <use style="fill:#323034;stroke:#323034;stroke-width:0.8;" x="40" xlink:href="#m1fb8d55764" y="62.648333"/>
      </g>
     </g>
     <g id="text_15">
      <!-- $\mathdefault{24}$ -->
      <g style="fill:#323034;" transform="translate(21 66.746146)scale(0.12 -0.12)">
       <use transform="translate(0 0.40625)" xlink:href="#STIXGeneral-Regular-32"/>
       <use transform="translate(49.999985 0.40625)" xlink:href="#STIXGeneral-Regular-34"/>
      </g>
     </g>
    </g>
    <g id="ytick_7">
     <g id="line2d_15">
      <g>
       <use style="fill:#323034;stroke:#323034;stroke-width:0.8;" x="40" xlink:href="#m1fb8d55764" y="24.1275"/>
      </g>
     </g>
     <g id="text_16">
      <!-- $\mathdefault{26}$ -->
      <g style="fill:#323034;" transform="translate(21 28.225313)scale(0.12 -0.12)">
       <use transform="translate(0 0.59375)" xlink:href="#STIXGeneral-Regular-32"/>
       <use transform="translate(49.999985 0.59375)" xlink:href="#STIXGeneral-Regular-36"/>
      </g>
     </g>
    </g>
    <g id="text_17">
     <!-- Coefficient value -->
     <g transform="translate(15.395625 181.180937)rotate(-90)scale(0.12 -0.12)">
      <defs>
       <path d="M 3930 838 
L 4051 723 
Q 3482 -90 2304 -90 
Q 1376 -90 794 480 
Q 179 1082 179 2080 
Q 179 3014 755 3661 
Q 1357 4326 2310 4326 
Q 2720 4326 3072 4230 
Q 3475 4115 3514 4115 
Q 3725 4115 3782 4326 
L 3910 4326 
L 3968 2874 
L 3821 2874 
Q 3718 3334 3488 3584 
Q 3034 4070 2458 4070 
Q 1747 4070 1334 3548 
Q 922 3027 922 2182 
Q 922 1152 1382 653 
Q 1811 192 2522 192 
Q 2944 192 3251 339 
Q 3558 486 3930 838 
z
" id="STIXGeneral-Regular-43" transform="scale(0.015625)"/>
       <path d="M 3008 1478 
Q 3008 806 2608 371 
Q 2208 -64 1568 -64 
Q 979 -64 582 368 
Q 186 800 186 1459 
Q 186 2125 582 2534 
Q 979 2944 1626 2944 
Q 2221 2944 2614 2537 
Q 3008 2131 3008 1478 
z
M 2432 1306 
Q 2432 2035 2112 2445 
Q 1856 2765 1504 2765 
Q 1171 2765 966 2493 
Q 762 2221 762 1747 
Q 762 928 1101 435 
Q 1318 115 1677 115 
Q 2029 115 2230 432 
Q 2432 749 2432 1306 
z
" id="STIXGeneral-Regular-6f" transform="scale(0.015625)"/>
       <path d="M 134 2880 
L 659 2880 
Q 666 3264 710 3478 
Q 755 3693 883 3910 
Q 1152 4371 1786 4371 
Q 2074 4371 2262 4259 
Q 2451 4147 2451 3974 
Q 2451 3866 2374 3789 
Q 2298 3712 2182 3712 
Q 2029 3712 1894 3942 
Q 1741 4192 1555 4192 
Q 1197 4192 1197 3622 
L 1197 2880 
L 1978 2880 
L 1978 2675 
L 1197 2675 
L 1197 666 
Q 1197 307 1299 208 
Q 1402 109 1792 96 
L 1792 0 
L 128 0 
L 128 96 
Q 474 115 566 214 
Q 659 314 659 666 
L 659 2675 
L 134 2675 
L 134 2880 
z
" id="STIXGeneral-Regular-66" transform="scale(0.015625)"/>
       <path d="M 2547 998 
L 2637 941 
Q 2362 403 2112 205 
Q 1786 -64 1376 -64 
Q 845 -64 502 336 
Q 160 736 160 1357 
Q 160 2170 698 2618 
Q 1094 2944 1562 2944 
Q 1965 2944 2256 2749 
Q 2547 2554 2547 2285 
Q 2547 2176 2457 2096 
Q 2368 2016 2246 2016 
Q 2022 2016 1939 2310 
L 1901 2451 
Q 1850 2630 1773 2694 
Q 1696 2758 1523 2758 
Q 1133 2758 893 2451 
Q 653 2144 653 1645 
Q 653 1094 928 745 
Q 1203 397 1645 397 
Q 1920 397 2118 528 
Q 2317 659 2547 998 
z
" id="STIXGeneral-Regular-63" transform="scale(0.015625)"/>
       <path d="M 3104 0 
L 1773 0 
L 1779 96 
Q 2016 115 2096 233 
Q 2176 352 2176 672 
L 2176 1946 
Q 2176 2592 1709 2592 
Q 1549 2592 1408 2515 
Q 1267 2438 1050 2227 
L 1050 461 
Q 1050 269 1136 192 
Q 1222 115 1466 96 
L 1466 0 
L 115 0 
L 115 96 
Q 358 115 435 214 
Q 512 314 512 602 
L 512 2157 
Q 512 2394 467 2483 
Q 422 2573 288 2573 
Q 160 2573 102 2547 
L 102 2656 
Q 550 2784 979 2944 
L 1030 2925 
L 1030 2426 
L 1037 2426 
Q 1491 2944 1958 2944 
Q 2323 2944 2518 2688 
Q 2714 2432 2714 1958 
L 2714 544 
Q 2714 288 2790 205 
Q 2867 122 3104 96 
L 3104 0 
z
" id="STIXGeneral-Regular-6e" transform="scale(0.015625)"/>
       <path d="M 3053 2880 
L 3053 2784 
Q 2906 2771 2835 2688 
Q 2765 2605 2637 2285 
L 1818 230 
Q 1690 -90 1638 -90 
Q 1587 -90 1523 77 
Q 1510 96 1497 141 
Q 1485 186 1472 211 
L 704 2048 
Q 499 2534 403 2652 
Q 307 2771 122 2784 
L 122 2880 
L 1376 2880 
L 1376 2784 
Q 1210 2771 1146 2732 
Q 1082 2694 1082 2611 
Q 1082 2509 1139 2368 
L 1792 730 
L 2426 2387 
Q 2464 2483 2464 2579 
Q 2464 2758 2163 2784 
L 2163 2880 
L 3053 2880 
z
" id="STIXGeneral-Regular-76" transform="scale(0.015625)"/>
       <path d="M 2829 422 
L 2829 243 
Q 2586 -64 2253 -64 
Q 1888 -64 1843 403 
L 1837 403 
Q 1427 -64 909 -64 
Q 608 -64 422 112 
Q 237 288 237 602 
Q 237 1050 685 1350 
Q 992 1555 1837 1869 
L 1837 2214 
Q 1837 2502 1699 2646 
Q 1562 2790 1338 2790 
Q 1146 2790 1018 2697 
Q 890 2605 890 2477 
Q 890 2419 909 2348 
Q 928 2278 928 2208 
Q 928 2112 841 2029 
Q 755 1946 634 1946 
Q 525 1946 441 2029 
Q 358 2112 358 2240 
Q 358 2547 685 2752 
Q 986 2944 1421 2944 
Q 1939 2944 2176 2656 
Q 2291 2522 2323 2384 
Q 2355 2246 2355 1946 
L 2355 723 
Q 2355 301 2554 301 
Q 2682 301 2829 422 
z
M 1837 813 
L 1837 1715 
Q 1248 1510 1018 1293 
Q 800 1094 800 800 
Q 800 557 921 432 
Q 1043 307 1242 307 
Q 1453 307 1613 410 
Q 1747 506 1792 589 
Q 1837 672 1837 813 
z
" id="STIXGeneral-Regular-61" transform="scale(0.015625)"/>
       <path d="M 1645 0 
L 134 0 
L 134 96 
Q 435 122 531 221 
Q 627 320 627 589 
L 627 3590 
Q 627 3821 569 3910 
Q 512 4000 358 4000 
Q 224 4000 122 3987 
L 122 4090 
Q 730 4237 1133 4371 
L 1165 4346 
L 1165 557 
Q 1165 288 1254 201 
Q 1344 115 1645 96 
L 1645 0 
z
" id="STIXGeneral-Regular-6c" transform="scale(0.015625)"/>
       <path d="M 3072 320 
L 3072 230 
Q 2573 96 2195 -58 
L 2163 -38 
L 2163 486 
L 2150 486 
Q 1747 -64 1235 -64 
Q 870 -64 662 160 
Q 454 384 454 755 
L 454 2362 
Q 454 2598 371 2688 
Q 288 2778 58 2790 
L 58 2880 
L 992 2880 
L 992 813 
Q 992 595 1123 451 
Q 1254 307 1446 307 
Q 1760 307 1984 506 
Q 2067 582 2099 649 
Q 2131 717 2131 877 
L 2131 2355 
Q 2131 2605 2041 2678 
Q 1952 2752 1658 2771 
L 1658 2880 
L 2669 2880 
L 2669 685 
Q 2669 461 2742 390 
Q 2816 320 3034 320 
L 3072 320 
z
" id="STIXGeneral-Regular-75" transform="scale(0.015625)"/>
      </defs>
      <use xlink:href="#STIXGeneral-Regular-43"/>
      <use x="66.699997" xlink:href="#STIXGeneral-Regular-6f"/>
      <use x="116.699982" xlink:href="#STIXGeneral-Regular-65"/>
      <use x="161.099976" xlink:href="#STIXGeneral-Regular-66"/>
      <use x="194.399963" xlink:href="#STIXGeneral-Regular-66"/>
      <use x="227.699951" xlink:href="#STIXGeneral-Regular-69"/>
      <use x="255.499939" xlink:href="#STIXGeneral-Regular-63"/>
      <use x="299.899933" xlink:href="#STIXGeneral-Regular-69"/>
      <use x="327.699921" xlink:href="#STIXGeneral-Regular-65"/>
      <use x="372.099915" xlink:href="#STIXGeneral-Regular-6e"/>
      <use x="422.099899" xlink:href="#STIXGeneral-Regular-74"/>
      <use x="449.899887" xlink:href="#STIXGeneral-Regular-20"/>
      <use x="474.899872" xlink:href="#STIXGeneral-Regular-76"/>
      <use x="524.899857" xlink:href="#STIXGeneral-Regular-61"/>
      <use x="569.29985" xlink:href="#STIXGeneral-Regular-6c"/>
      <use x="597.099838" xlink:href="#STIXGeneral-Regular-75"/>
      <use x="647.099823" xlink:href="#STIXGeneral-Regular-65"/>
     </g>
    </g>
   </g>
   <g id="line2d_16">
    <path clip-path="url(#pa97473a143)" d="M 40 125.510216 
L 42.2328 132.915747 
L 44.4656 132.601649 
L 46.6984 129.430836 
L 48.9312 130.634316 
L 51.164 139.646453 
L 53.3968 141.144054 
L 57.8624 140.51379 
L 60.0952 144.309725 
L 62.328 146.976409 
L 64.5608 147.498951 
L 66.7936 147.416185 
L 69.0264 147.464197 
L 71.2592 151.780688 
L 73.492 142.926812 
L 75.7248 142.766597 
L 77.9576 153.605166 
L 80.1904 152.889792 
L 82.4232 149.184119 
L 84.656 150.098992 
L 86.8888 149.080614 
L 89.1216 148.469263 
L 91.3544 150.182137 
L 93.5872 147.178887 
L 95.82 136.143182 
L 98.0528 132.092022 
L 100.2856 126.629203 
L 102.5184 127.923491 
L 104.7512 120.807032 
L 106.984 120.563213 
L 109.2168 117.774518 
L 111.4496 111.222141 
L 113.6824 116.294329 
L 115.9152 112.371866 
L 118.148 101.288004 
L 120.3808 105.33878 
L 122.6136 104.583408 
L 124.8464 112.027024 
L 127.0792 109.550425 
L 129.312 109.319676 
L 131.5448 103.18163 
L 133.7776 102.554219 
L 136.0104 106.344899 
L 138.2432 106.452465 
L 140.476 100.957719 
L 144.9416 103.147774 
L 147.1744 103.440612 
L 149.4072 104.977888 
L 151.64 108.563427 
L 153.8728 106.302087 
L 156.1056 108.348798 
L 158.3384 106.342933 
L 160.5712 110.44785 
L 162.804 107.547943 
L 165.0368 108.029318 
L 167.2696 113.125024 
L 169.5024 110.67112 
L 171.7352 111.45061 
L 173.968 115.844574 
L 176.2008 116.495839 
L 178.4336 116.113435 
L 180.6664 106.732385 
L 182.8992 107.655704 
L 185.132 111.082857 
L 187.3648 130.115547 
L 189.5976 136.001735 
L 191.8304 155.286854 
L 194.0632 143.06187 
L 196.296 158.73338 
L 198.5288 161.691393 
L 200.7616 157.32482 
L 202.9944 159.849908 
L 205.2272 164.269514 
L 207.46 166.170424 
L 209.6928 171.708303 
L 211.9256 169.920988 
L 214.1584 169.278527 
L 216.3912 163.817789 
L 218.624 167.892373 
L 220.8568 166.072944 
L 223.0896 165.306416 
L 225.3224 168.296316 
L 227.5552 166.484263 
L 229.788 163.55592 
L 232.0208 161.287901 
L 234.2536 157.934222 
L 236.4864 155.467034 
L 238.7192 155.12077 
L 240.952 154.254457 
L 243.1848 155.443486 
L 245.4176 154.359649 
L 247.6504 151.655605 
L 249.8832 155.986856 
L 252.116 147.898992 
L 254.3488 145.813093 
L 256.5816 144.728537 
L 258.8144 144.779916 
L 261.0472 141.593233 
L 263.28 138.88101 
L 265.5128 138.502956 
L 267.7456 142.271547 
L 269.9784 134.949477 
L 272.2112 136.323824 
L 274.444 131.58645 
L 276.6768 133.792643 
L 278.9096 125.930533 
L 281.1424 124.846234 
L 283.3752 127.446369 
L 285.608 127.162399 
L 287.8408 122.332129 
L 290.0736 120.682311 
L 292.3064 125.224752 
L 294.5392 120.038072 
L 296.772 118.747836 
L 299.0048 121.723372 
L 301.2376 122.866467 
L 303.4704 122.289883 
L 305.7032 124.538357 
L 307.936 124.086513 
L 310.1688 126.098665 
L 312.4016 123.631584 
L 314.6344 114.916243 
L 316.8672 113.45819 
L 319.1 113.76256 
L 321.3328 113.239021 
L 323.5656 111.335261 
L 325.7984 111.764677 
L 330.264 114.764122 
L 332.4968 107.368325 
L 334.7296 110.67629 
L 336.9624 109.556365 
L 339.1952 107.47992 
L 341.428 102.708089 
L 343.6608 99.958736 
L 345.8936 101.429167 
L 348.1264 103.205116 
L 350.3592 103.524045 
L 352.592 105.371293 
L 354.8248 99.130598 
L 357.0576 99.167763 
L 359.2904 99.358187 
L 361.5232 97.984933 
L 363.756 98.37482 
L 368.2216 105.712182 
L 370.4544 113.274462 
L 372.6872 116.351283 
L 374.92 115.733661 
L 377.1528 116.603615 
L 379.3856 120.308812 
L 381.6184 113.366817 
L 383.8512 117.974139 
L 386.084 115.774141 
L 388.3168 119.289412 
L 390.5496 121.22656 
L 392.7824 121.031036 
L 395.0152 124.485018 
L 397.248 129.69691 
L 399.4808 148.710834 
L 401.7136 143.017902 
L 403.9464 138.721945 
L 406.1792 142.388271 
L 408.412 135.29629 
L 410.6448 137.678477 
L 412.8776 136.687077 
L 415.1104 135.965375 
L 417.3432 133.533924 
L 419.576 135.438621 
L 421.8088 135.864526 
L 424.0416 137.330603 
L 426.2744 136.629017 
L 428.5072 133.545498 
L 430.74 133.28584 
L 430.74 133.28584 
" style="fill:none;stroke:#bc80bd;stroke-linecap:square;stroke-width:2;"/>
   </g>
   <g id="line2d_17">
    <path clip-path="url(#pa97473a143)" d="M 40 162.845845 
L 42.2328 169.889438 
L 44.4656 170.364014 
L 46.6984 167.410586 
L 48.9312 167.357349 
L 51.164 170.788989 
L 53.3968 173.25974 
L 57.8624 173.332614 
L 60.0952 174.956007 
L 62.328 177.082708 
L 64.5608 176.401428 
L 66.7936 173.262166 
L 69.0264 174.338093 
L 71.2592 173.780359 
L 73.492 163.400422 
L 75.7248 163.738369 
L 77.9576 174.267715 
L 80.1904 177.186571 
L 82.4232 172.762817 
L 84.656 179.886562 
L 86.8888 179.584318 
L 89.1216 182.505187 
L 91.3544 184.597642 
L 93.5872 179.35904 
L 95.82 171.272694 
L 98.0528 166.50076 
L 100.2856 162.183584 
L 102.5184 161.716387 
L 104.7512 154.888463 
L 106.984 154.50909 
L 109.2168 151.652349 
L 111.4496 142.063013 
L 113.6824 148.040914 
L 115.9152 145.836084 
L 118.148 134.21545 
L 120.3808 140.965453 
L 122.6136 140.577495 
L 124.8464 147.190931 
L 127.0792 143.421816 
L 129.312 142.462793 
L 131.5448 133.463739 
L 133.7776 132.971156 
L 136.0104 135.039476 
L 138.2432 135.284933 
L 140.476 126.485461 
L 142.7088 125.882057 
L 144.9416 129.951314 
L 147.1744 130.677631 
L 149.4072 133.357187 
L 151.64 134.366033 
L 153.8728 132.138421 
L 156.1056 133.641191 
L 158.3384 132.742533 
L 160.5712 136.440034 
L 162.804 134.640502 
L 165.0368 135.370702 
L 167.2696 146.322373 
L 169.5024 141.450857 
L 171.7352 141.136209 
L 173.968 146.533191 
L 176.2008 145.605621 
L 178.4336 146.444495 
L 180.6664 136.751617 
L 182.8992 137.698355 
L 185.132 141.659364 
L 187.3648 165.508863 
L 189.5976 172.19008 
L 191.8304 189.978836 
L 194.0632 184.45577 
L 196.296 196.744274 
L 198.5288 201.7782 
L 200.7616 194.254924 
L 202.9944 196.266831 
L 205.2272 202.358121 
L 207.46 201.070779 
L 209.6928 205.040803 
L 211.9256 204.964727 
L 214.1584 203.443533 
L 216.3912 199.924856 
L 218.624 202.66254 
L 220.8568 201.908835 
L 223.0896 208.3468 
L 225.3224 213.731405 
L 227.5552 213.717931 
L 229.788 211.098943 
L 232.0208 206.526678 
L 234.2536 199.651417 
L 236.4864 196.35032 
L 238.7192 190.200179 
L 240.952 189.545205 
L 243.1848 190.10736 
L 245.4176 188.920128 
L 247.6504 186.206778 
L 249.8832 186.82488 
L 252.116 179.936531 
L 254.3488 177.070848 
L 256.5816 173.747661 
L 258.8144 172.825189 
L 261.0472 168.556284 
L 263.28 166.84546 
L 265.5128 166.817157 
L 267.7456 170.699358 
L 269.9784 162.414015 
L 272.2112 162.694908 
L 274.444 155.81022 
L 276.6768 157.436768 
L 278.9096 143.74681 
L 281.1424 139.181193 
L 283.3752 140.3919 
L 285.608 140.857306 
L 287.8408 140.730712 
L 290.0736 139.310232 
L 292.3064 146.194803 
L 294.5392 142.793703 
L 296.772 141.270174 
L 299.0048 145.581544 
L 301.2376 147.142193 
L 303.4704 147.042441 
L 305.7032 151.81894 
L 307.936 151.969295 
L 310.1688 155.370998 
L 312.4016 158.260669 
L 314.6344 146.890463 
L 316.8672 144.233341 
L 319.1 144.187286 
L 321.3328 143.688017 
L 323.5656 141.620595 
L 325.7984 143.212945 
L 328.0312 144.943754 
L 330.264 150.307545 
L 332.4968 143.822852 
L 334.7296 151.661846 
L 336.9624 157.473409 
L 339.1952 154.848042 
L 341.428 148.617364 
L 343.6608 141.141986 
L 345.8936 143.084542 
L 348.1264 143.275916 
L 350.3592 142.269878 
L 352.592 144.557391 
L 354.8248 136.340214 
L 357.0576 135.269548 
L 359.2904 135.590293 
L 361.5232 131.508714 
L 363.756 131.592734 
L 365.9888 135.224449 
L 368.2216 135.725934 
L 370.4544 145.86742 
L 372.6872 152.378462 
L 374.92 152.626163 
L 377.1528 153.703231 
L 379.3856 158.155945 
L 381.6184 148.511298 
L 383.8512 153.7475 
L 386.084 149.395485 
L 388.3168 152.742741 
L 390.5496 152.677677 
L 392.7824 145.795185 
L 395.0152 151.180423 
L 397.248 155.968401 
L 399.4808 177.298568 
L 401.7136 170.024259 
L 403.9464 165.387999 
L 406.1792 168.363506 
L 408.412 165.942558 
L 410.6448 168.823413 
L 412.8776 168.416245 
L 415.1104 167.435418 
L 417.3432 165.6843 
L 419.576 165.94074 
L 421.8088 168.876205 
L 424.0416 169.214387 
L 426.2744 169.048189 
L 428.5072 166.297382 
L 430.74 166.199218 
L 430.74 166.199218 
" style="fill:none;stroke:#000000;stroke-dasharray:2,3.3;stroke-dashoffset:0;stroke-width:2;"/>
   </g>
   <g id="line2d_18">
    <path clip-path="url(#pa97473a143)" d="M 40 88.174588 
L 42.2328 95.942056 
L 44.4656 94.839283 
L 46.6984 91.451086 
L 48.9312 93.911282 
L 51.164 108.503917 
L 53.3968 109.028368 
L 57.8624 107.694966 
L 60.0952 113.663443 
L 62.328 116.870109 
L 64.5608 118.596475 
L 66.7936 121.570203 
L 69.0264 120.590302 
L 71.2592 129.781018 
L 73.492 122.453203 
L 75.7248 121.794825 
L 77.9576 132.942617 
L 80.1904 128.593013 
L 82.4232 125.605422 
L 84.656 120.311422 
L 86.8888 118.57691 
L 89.1216 114.43334 
L 91.3544 115.766633 
L 93.5872 114.998735 
L 95.82 101.013669 
L 98.0528 97.683285 
L 100.2856 91.074821 
L 102.5184 94.130595 
L 104.7512 86.725601 
L 106.984 86.617337 
L 109.2168 83.896686 
L 111.4496 80.381269 
L 113.6824 84.547744 
L 115.9152 78.907648 
L 118.148 68.360559 
L 120.3808 69.712107 
L 122.6136 68.58932 
L 124.8464 76.863118 
L 127.0792 75.679034 
L 129.312 76.17656 
L 131.5448 72.89952 
L 133.7776 72.137282 
L 136.0104 77.650322 
L 138.2432 77.619998 
L 140.476 75.429978 
L 142.7088 78.107107 
L 144.9416 76.344233 
L 147.1744 76.203593 
L 149.4072 76.59859 
L 151.64 82.76082 
L 153.8728 80.465752 
L 156.1056 83.056406 
L 158.3384 79.943332 
L 160.5712 84.455667 
L 162.804 80.455384 
L 165.0368 80.687934 
L 167.2696 79.927676 
L 169.5024 79.891382 
L 171.7352 81.765011 
L 173.968 85.155957 
L 176.2008 87.386056 
L 178.4336 85.782375 
L 180.6664 76.713152 
L 182.8992 77.613053 
L 185.132 80.50635 
L 187.3648 94.722231 
L 189.5976 99.81339 
L 191.8304 120.594871 
L 194.0632 101.667971 
L 196.296 120.722486 
L 198.5288 121.604585 
L 200.7616 120.394717 
L 202.9944 123.432986 
L 205.2272 126.180907 
L 207.46 131.270069 
L 209.6928 138.375802 
L 211.9256 134.877249 
L 214.1584 135.113522 
L 216.3912 127.710721 
L 218.624 133.122206 
L 220.8568 130.237053 
L 223.0896 122.266032 
L 225.3224 122.861227 
L 227.5552 119.250595 
L 229.788 116.012898 
L 232.0208 116.049125 
L 234.2536 116.217027 
L 236.4864 114.583749 
L 238.7192 120.04136 
L 240.952 118.963709 
L 243.1848 120.779613 
L 245.4176 119.79917 
L 247.6504 117.104432 
L 249.8832 125.148832 
L 252.116 115.861453 
L 254.3488 114.555338 
L 256.5816 115.709413 
L 258.8144 116.734643 
L 261.0472 114.630181 
L 263.28 110.91656 
L 265.5128 110.188754 
L 267.7456 113.843737 
L 269.9784 107.484938 
L 272.2112 109.95274 
L 274.444 107.36268 
L 276.6768 110.148517 
L 278.9096 108.114257 
L 281.1424 110.511276 
L 283.3752 114.500838 
L 285.608 113.467492 
L 287.8408 103.933545 
L 290.0736 102.05439 
L 292.3064 104.254701 
L 294.5392 97.282441 
L 296.772 96.225498 
L 299.0048 97.8652 
L 301.2376 98.59074 
L 303.4704 97.537324 
L 305.7032 97.257773 
L 307.936 96.203731 
L 310.1688 96.826332 
L 312.4016 89.002498 
L 314.6344 82.942023 
L 316.8672 82.683039 
L 319.1 83.337834 
L 321.3328 82.790025 
L 323.5656 81.049926 
L 325.7984 80.31641 
L 328.0312 81.534268 
L 330.264 79.220699 
L 332.4968 70.913799 
L 334.7296 69.690733 
L 336.9624 61.639321 
L 339.1952 60.111797 
L 341.428 56.798815 
L 343.6608 58.775485 
L 345.8936 59.773793 
L 348.1264 63.134315 
L 350.3592 64.778212 
L 352.592 66.185195 
L 354.8248 61.920982 
L 357.0576 63.065978 
L 359.2904 63.126081 
L 361.5232 64.461151 
L 363.756 65.156906 
L 365.9888 68.881072 
L 368.2216 75.698431 
L 370.4544 80.681504 
L 372.6872 80.324105 
L 374.92 78.841158 
L 377.1528 79.504 
L 379.3856 82.461678 
L 381.6184 78.222335 
L 383.8512 82.200779 
L 386.084 82.152797 
L 388.3168 85.836083 
L 390.5496 89.775444 
L 392.7824 96.266887 
L 395.0152 97.789613 
L 397.248 103.42542 
L 399.4808 120.1231 
L 403.9464 112.055891 
L 406.1792 116.413035 
L 408.412 104.650022 
L 410.6448 106.53354 
L 412.8776 104.957909 
L 415.1104 104.495332 
L 417.3432 101.383548 
L 419.576 104.936503 
L 421.8088 102.852848 
L 424.0416 105.446819 
L 426.2744 104.209845 
L 428.5072 100.793615 
L 430.74 100.372462 
L 430.74 100.372462 
" style="fill:none;stroke:#000000;stroke-dasharray:2,3.3;stroke-dashoffset:0;stroke-width:2;"/>
   </g>
   <g id="patch_3">
    <path d="M 40 255.2525 
L 40 24.1275 
" style="fill:none;stroke:#000000;stroke-linecap:square;stroke-linejoin:miter;stroke-width:0.6;"/>
   </g>
   <g id="patch_4">
    <path d="M 40 255.2525 
L 430.74 255.2525 
" style="fill:none;stroke:#000000;stroke-linecap:square;stroke-linejoin:miter;stroke-width:0.6;"/>
   </g>
   <g id="text_18">
    <!-- feature0 -->
    <g style="fill:#323034;" transform="translate(40 18.1275)scale(0.16 -0.16)">
     <defs>
      <path d="M 1024 2931 
L 1024 2342 
Q 1267 2688 1430 2816 
Q 1594 2944 1792 2944 
Q 1958 2944 2051 2854 
Q 2144 2765 2144 2605 
Q 2144 2470 2077 2393 
Q 2010 2317 1894 2317 
Q 1773 2317 1638 2445 
Q 1536 2541 1472 2541 
Q 1338 2541 1181 2355 
Q 1024 2170 1024 2016 
L 1024 576 
Q 1024 301 1133 205 
Q 1242 109 1568 96 
L 1568 0 
L 32 0 
L 32 96 
Q 339 154 412 224 
Q 486 294 486 538 
L 486 2138 
Q 486 2349 438 2435 
Q 390 2522 269 2522 
Q 166 2522 45 2496 
L 45 2598 
Q 448 2726 992 2944 
L 1024 2931 
z
" id="STIXGeneral-Regular-72" transform="scale(0.015625)"/>
     </defs>
     <use xlink:href="#STIXGeneral-Regular-66"/>
     <use x="33.299988" xlink:href="#STIXGeneral-Regular-65"/>
     <use x="77.699982" xlink:href="#STIXGeneral-Regular-61"/>
     <use x="122.099976" xlink:href="#STIXGeneral-Regular-74"/>
     <use x="149.899963" xlink:href="#STIXGeneral-Regular-75"/>
     <use x="199.899948" xlink:href="#STIXGeneral-Regular-72"/>
     <use x="233.199936" xlink:href="#STIXGeneral-Regular-65"/>
     <use x="277.59993" xlink:href="#STIXGeneral-Regular-30"/>
    </g>
   </g>
   <g id="legend_1">
    <g id="patch_5">
     <path d="M 47 55.468125 
L 113.6 55.468125 
Q 115.6 55.468125 115.6 53.468125 
L 115.6 31.1275 
Q 115.6 29.1275 113.6 29.1275 
L 47 29.1275 
Q 45 29.1275 45 31.1275 
L 45 53.468125 
Q 45 55.468125 47 55.468125 
z
" style="fill:#ffffff;opacity:0.8;stroke:#e6e6e6;stroke-linejoin:miter;stroke-width:0.8;"/>
    </g>
    <g id="line2d_19">
     <path d="M 47 34.6275 
L 67 34.6275 
" style="fill:none;stroke:#000000;stroke-dasharray:2,3.3;stroke-dashoffset:0;stroke-width:2;"/>
    </g>
    <g id="line2d_20"/>
    <g id="text_19">
     <!-- Lower CI -->
     <g style="fill:#323034;" transform="translate(75 38.1275)scale(0.1 -0.1)">
      <defs>
       <path d="M 3827 1114 
L 3520 0 
L 77 0 
L 77 122 
Q 429 141 531 256 
Q 634 371 634 736 
L 634 3494 
Q 634 3872 541 3981 
Q 448 4090 77 4115 
L 77 4237 
L 1888 4237 
L 1888 4115 
Q 1498 4090 1392 3984 
Q 1286 3878 1286 3507 
L 1286 538 
Q 1286 358 1398 304 
Q 1510 250 1862 250 
L 2310 250 
Q 3085 250 3392 640 
Q 3520 813 3661 1114 
L 3827 1114 
z
" id="STIXGeneral-Regular-4c" transform="scale(0.015625)"/>
       <path d="M 4442 2880 
L 4442 2784 
Q 4346 2752 4301 2691 
Q 4256 2630 4179 2438 
L 3296 224 
Q 3168 -90 3117 -90 
Q 3085 -90 3062 -48 
Q 3040 -6 2963 186 
L 2381 1696 
L 1664 160 
Q 1549 -90 1504 -90 
Q 1446 -90 1338 192 
L 474 2381 
Q 378 2630 314 2700 
Q 250 2771 134 2784 
L 134 2880 
L 1286 2880 
L 1286 2784 
Q 1120 2765 1056 2720 
Q 992 2675 992 2573 
Q 992 2477 1030 2381 
L 1664 710 
L 2246 1984 
L 2118 2342 
Q 2029 2598 1942 2681 
Q 1856 2765 1677 2784 
L 1677 2880 
L 2976 2880 
L 2976 2784 
Q 2752 2752 2678 2707 
Q 2605 2662 2605 2560 
Q 2605 2458 2714 2176 
L 3251 742 
L 3827 2163 
Q 3936 2432 3936 2592 
Q 3936 2669 3875 2710 
Q 3814 2752 3654 2784 
L 3654 2880 
L 4442 2880 
z
" id="STIXGeneral-Regular-77" transform="scale(0.015625)"/>
       <path d="M 2016 0 
L 115 0 
L 115 122 
Q 518 134 627 240 
Q 736 346 736 717 
L 736 3526 
Q 736 3898 633 3994 
Q 531 4090 115 4115 
L 115 4237 
L 2016 4237 
L 2016 4115 
Q 1613 4096 1501 3993 
Q 1389 3891 1389 3526 
L 1389 717 
Q 1389 358 1504 246 
Q 1619 134 2016 122 
L 2016 0 
z
" id="STIXGeneral-Regular-49" transform="scale(0.015625)"/>
      </defs>
      <use xlink:href="#STIXGeneral-Regular-4c"/>
      <use x="61.099991" xlink:href="#STIXGeneral-Regular-6f"/>
      <use x="111.099976" xlink:href="#STIXGeneral-Regular-77"/>
      <use x="183.299957" xlink:href="#STIXGeneral-Regular-65"/>
      <use x="227.699951" xlink:href="#STIXGeneral-Regular-72"/>
      <use x="260.999939" xlink:href="#STIXGeneral-Regular-20"/>
      <use x="285.999924" xlink:href="#STIXGeneral-Regular-43"/>
      <use x="352.699921" xlink:href="#STIXGeneral-Regular-49"/>
     </g>
    </g>
    <g id="line2d_21">
     <path d="M 47 47.797812 
L 67 47.797812 
" style="fill:none;stroke:#000000;stroke-dasharray:2,3.3;stroke-dashoffset:0;stroke-width:2;"/>
    </g>
    <g id="line2d_22"/>
    <g id="text_20">
     <!-- Upper CI -->
     <g style="fill:#323034;" transform="translate(75 51.297812)scale(0.1 -0.1)">
      <defs>
       <path d="M 4512 4237 
L 4512 4115 
Q 4122 4077 4016 3926 
Q 3910 3776 3910 3302 
L 3910 1670 
Q 3910 1178 3840 896 
Q 3770 614 3565 378 
Q 3155 -90 2272 -90 
Q 1574 -90 1184 205 
Q 666 589 666 1594 
L 666 3578 
Q 666 3898 566 3994 
Q 467 4090 90 4115 
L 90 4237 
L 1901 4237 
L 1901 4115 
Q 1517 4083 1417 3977 
Q 1318 3872 1318 3514 
L 1318 1517 
Q 1318 1101 1369 877 
Q 1421 653 1600 480 
Q 1901 192 2419 192 
Q 3066 192 3392 570 
Q 3539 749 3584 963 
Q 3629 1178 3629 1600 
L 3629 3283 
Q 3629 3782 3520 3936 
Q 3411 4090 3027 4115 
L 3027 4237 
L 4512 4237 
z
" id="STIXGeneral-Regular-55" transform="scale(0.015625)"/>
      </defs>
      <use xlink:href="#STIXGeneral-Regular-55"/>
      <use x="72.199982" xlink:href="#STIXGeneral-Regular-70"/>
      <use x="122.199966" xlink:href="#STIXGeneral-Regular-70"/>
      <use x="172.199951" xlink:href="#STIXGeneral-Regular-65"/>
      <use x="216.599945" xlink:href="#STIXGeneral-Regular-72"/>
      <use x="249.899933" xlink:href="#STIXGeneral-Regular-20"/>
      <use x="274.899918" xlink:href="#STIXGeneral-Regular-43"/>
      <use x="341.599915" xlink:href="#STIXGeneral-Regular-49"/>
     </g>
    </g>
   </g>
  </g>
 </g>
 <defs>
  <clipPath id="pa97473a143">
   <rect height="231.125" width="390.74" x="40" y="24.1275"/>
  </clipPath>
 </defs>
</svg>
