<?xml version="1.0" encoding="utf-8" standalone="no"?>
<!DOCTYPE svg PUBLIC "-//W3C//DTD SVG 1.1//EN"
  "http://www.w3.org/Graphics/SVG/1.1/DTD/svg11.dtd">
<svg xmlns:xlink="http://www.w3.org/1999/xlink" width="526.79952pt" height="353.99952pt" viewBox="0 0 526.79952 353.99952" xmlns="http://www.w3.org/2000/svg" version="1.1">
 <metadata>
  <rdf:RDF xmlns:dc="http://purl.org/dc/elements/1.1/" xmlns:cc="http://creativecommons.org/ns#" xmlns:rdf="http://www.w3.org/1999/02/22-rdf-syntax-ns#">
   <cc:Work>
    <dc:type rdf:resource="http://purl.org/dc/dcmitype/StillImage"/>
    <dc:date>2022-10-28T18:17:43.012465</dc:date>
    <dc:format>image/svg+xml</dc:format>
    <dc:creator>
     <cc:Agent>
      <dc:title>Matplotlib v3.5.3, https://matplotlib.org/</dc:title>
     </cc:Agent>
    </dc:creator>
   </cc:Work>
  </rdf:RDF>
 </metadata>
 <defs>
  <style type="text/css">*{stroke-linejoin: round; stroke-linecap: butt}</style>
 </defs>
 <g id="figure_1">
  <g id="patch_1">
   <path d="M 0 353.99952 
L 526.79952 353.99952 
L 526.79952 0 
L 0 0 
z
" style="fill: #ffffff"/>
  </g>
  <g id="axes_1">
   <g id="patch_2">
    <path d="M 61.36 314.19952 
L 516.09952 314.19952 
L 516.09952 24.1275 
L 61.36 24.1275 
z
" style="fill: #eeeeee"/>
   </g>
   <g id="matplotlib.axis_1">
    <g id="xtick_1">
     <g id="line2d_1">
      <path d="M 61.36 314.19952 
L 61.36 24.1275 
" clip-path="url(#pe821c65605)" style="fill: none; stroke: #ffffff; stroke-width: 0.8; stroke-linecap: round"/>
     </g>
     <g id="line2d_2"/>
     <g id="text_1">
      <!-- $\mathdefault{−3}$ -->
      <g style="fill: #262626" transform="translate(53.03 327.261082)scale(0.14 -0.14)">
       <defs>
        <path id="STIXGeneral-Regular-2212" d="M 3974 1408 
L 410 1408 
L 410 1830 
L 3974 1830 
L 3974 1408 
z
" transform="scale(0.015625)"/>
        <path id="STIXGeneral-Regular-33" d="M 390 3264 
L 288 3290 
Q 435 3770 748 4048 
Q 1062 4326 1542 4326 
Q 1990 4326 2265 4083 
Q 2541 3840 2541 3450 
Q 2541 2925 1946 2566 
Q 2298 2413 2477 2227 
Q 2758 1914 2758 1402 
Q 2758 890 2464 506 
Q 2246 211 1840 60 
Q 1434 -90 979 -90 
Q 262 -90 262 275 
Q 262 378 339 442 
Q 416 506 525 506 
Q 685 506 915 339 
Q 1197 141 1466 141 
Q 1818 141 2058 425 
Q 2298 710 2298 1120 
Q 2298 1856 1632 2048 
Q 1434 2112 979 2112 
L 979 2202 
Q 1338 2323 1517 2432 
Q 2035 2726 2035 3290 
Q 2035 3610 1852 3776 
Q 1670 3942 1344 3942 
Q 768 3942 390 3264 
z
" transform="scale(0.015625)"/>
       </defs>
       <use xlink:href="#STIXGeneral-Regular-2212" transform="translate(0 0.40625)"/>
       <use xlink:href="#STIXGeneral-Regular-33" transform="translate(68.499985 0.40625)"/>
      </g>
     </g>
    </g>
    <g id="xtick_2">
     <g id="line2d_3">
      <path d="M 137.14992 314.19952 
L 137.14992 24.1275 
" clip-path="url(#pe821c65605)" style="fill: none; stroke: #ffffff; stroke-width: 0.8; stroke-linecap: round"/>
     </g>
     <g id="line2d_4"/>
     <g id="text_2">
      <!-- $\mathdefault{−2}$ -->
      <g style="fill: #262626" transform="translate(128.81992 327.261082)scale(0.14 -0.14)">
       <defs>
        <path id="STIXGeneral-Regular-32" d="M 3034 877 
L 2688 0 
L 186 0 
L 186 77 
L 1325 1286 
Q 1773 1754 1965 2144 
Q 2157 2534 2157 2950 
Q 2157 3379 1920 3616 
Q 1683 3853 1267 3853 
Q 922 3853 720 3673 
Q 518 3494 326 3021 
L 192 3053 
Q 301 3648 630 3987 
Q 960 4326 1523 4326 
Q 2054 4326 2380 4006 
Q 2707 3686 2707 3200 
Q 2707 2477 1888 1613 
L 832 486 
L 2330 486 
Q 2541 486 2665 569 
Q 2790 653 2944 915 
L 3034 877 
z
" transform="scale(0.015625)"/>
       </defs>
       <use xlink:href="#STIXGeneral-Regular-2212" transform="translate(0 0.40625)"/>
       <use xlink:href="#STIXGeneral-Regular-32" transform="translate(68.499985 0.40625)"/>
      </g>
     </g>
    </g>
    <g id="xtick_3">
     <g id="line2d_5">
      <path d="M 212.93984 314.19952 
L 212.93984 24.1275 
" clip-path="url(#pe821c65605)" style="fill: none; stroke: #ffffff; stroke-width: 0.8; stroke-linecap: round"/>
     </g>
     <g id="line2d_6"/>
     <g id="text_3">
      <!-- $\mathdefault{−1}$ -->
      <g style="fill: #262626" transform="translate(204.60984 327.261082)scale(0.14 -0.14)">
       <defs>
        <path id="STIXGeneral-Regular-31" d="M 2522 0 
L 755 0 
L 755 96 
Q 1107 115 1235 227 
Q 1363 339 1363 608 
L 1363 3482 
Q 1363 3795 1171 3795 
Q 1082 3795 883 3718 
L 710 3654 
L 710 3744 
L 1856 4326 
L 1914 4307 
L 1914 486 
Q 1914 275 2042 185 
Q 2170 96 2522 96 
L 2522 0 
z
" transform="scale(0.015625)"/>
       </defs>
       <use xlink:href="#STIXGeneral-Regular-2212" transform="translate(0 0.40625)"/>
       <use xlink:href="#STIXGeneral-Regular-31" transform="translate(68.499985 0.40625)"/>
      </g>
     </g>
    </g>
    <g id="xtick_4">
     <g id="line2d_7">
      <path d="M 288.72976 314.19952 
L 288.72976 24.1275 
" clip-path="url(#pe821c65605)" style="fill: none; stroke: #ffffff; stroke-width: 0.8; stroke-linecap: round"/>
     </g>
     <g id="line2d_8"/>
     <g id="text_4">
      <!-- $\mathdefault{0}$ -->
      <g style="fill: #262626" transform="translate(285.22976 327.261082)scale(0.14 -0.14)">
       <defs>
        <path id="STIXGeneral-Regular-30" d="M 3046 2112 
Q 3046 1683 2963 1302 
Q 2880 922 2717 602 
Q 2554 282 2266 96 
Q 1978 -90 1600 -90 
Q 1210 -90 915 108 
Q 621 307 461 640 
Q 301 973 227 1350 
Q 154 1728 154 2150 
Q 154 2746 301 3222 
Q 448 3699 790 4012 
Q 1133 4326 1626 4326 
Q 2253 4326 2649 3712 
Q 3046 3098 3046 2112 
z
M 2432 2080 
Q 2432 3091 2217 3625 
Q 2003 4160 1587 4160 
Q 1190 4160 979 3622 
Q 768 3085 768 2106 
Q 768 1120 979 598 
Q 1190 77 1600 77 
Q 2003 77 2217 598 
Q 2432 1120 2432 2080 
z
" transform="scale(0.015625)"/>
       </defs>
       <use xlink:href="#STIXGeneral-Regular-30" transform="translate(0 0.40625)"/>
      </g>
     </g>
    </g>
    <g id="xtick_5">
     <g id="line2d_9">
      <path d="M 364.51968 314.19952 
L 364.51968 24.1275 
" clip-path="url(#pe821c65605)" style="fill: none; stroke: #ffffff; stroke-width: 0.8; stroke-linecap: round"/>
     </g>
     <g id="line2d_10"/>
     <g id="text_5">
      <!-- $\mathdefault{1}$ -->
      <g style="fill: #262626" transform="translate(361.01968 327.261082)scale(0.14 -0.14)">
       <use xlink:href="#STIXGeneral-Regular-31" transform="translate(0 0.40625)"/>
      </g>
     </g>
    </g>
    <g id="xtick_6">
     <g id="line2d_11">
      <path d="M 440.3096 314.19952 
L 440.3096 24.1275 
" clip-path="url(#pe821c65605)" style="fill: none; stroke: #ffffff; stroke-width: 0.8; stroke-linecap: round"/>
     </g>
     <g id="line2d_12"/>
     <g id="text_6">
      <!-- $\mathdefault{2}$ -->
      <g style="fill: #262626" transform="translate(436.8096 327.261082)scale(0.14 -0.14)">
       <use xlink:href="#STIXGeneral-Regular-32" transform="translate(0 0.40625)"/>
      </g>
     </g>
    </g>
    <g id="xtick_7">
     <g id="line2d_13">
      <path d="M 516.09952 314.19952 
L 516.09952 24.1275 
" clip-path="url(#pe821c65605)" style="fill: none; stroke: #ffffff; stroke-width: 0.8; stroke-linecap: round"/>
     </g>
     <g id="line2d_14"/>
     <g id="text_7">
      <!-- $\mathdefault{3}$ -->
      <g style="fill: #262626" transform="translate(512.59952 327.261082)scale(0.14 -0.14)">
       <use xlink:href="#STIXGeneral-Regular-33" transform="translate(0 0.40625)"/>
      </g>
     </g>
    </g>
    <g id="text_8">
     <!-- Predictor (X) -->
     <g style="fill: #262626" transform="translate(248.94226 343.544051)scale(0.15 -0.15)">
      <defs>
       <path id="STIXGeneral-Regular-50" d="M 102 4237 
L 1760 4237 
Q 2669 4237 3149 3834 
Q 3469 3565 3469 3072 
Q 3469 2560 3104 2234 
Q 2835 1990 2553 1916 
Q 2272 1843 1734 1843 
Q 1549 1843 1293 1862 
L 1293 717 
Q 1293 352 1398 246 
Q 1504 141 1894 122 
L 1894 0 
L 102 0 
L 102 122 
Q 474 147 557 256 
Q 640 365 640 781 
L 640 3526 
Q 640 3885 547 3987 
Q 454 4090 102 4115 
L 102 4237 
z
M 1293 3770 
L 1293 2118 
Q 1510 2099 1683 2099 
Q 2202 2099 2486 2352 
Q 2771 2605 2771 3040 
Q 2771 3558 2476 3779 
Q 2182 4000 1517 4000 
Q 1382 4000 1337 3952 
Q 1293 3904 1293 3770 
z
" transform="scale(0.015625)"/>
       <path id="STIXGeneral-Regular-72" d="M 1024 2931 
L 1024 2342 
Q 1267 2688 1430 2816 
Q 1594 2944 1792 2944 
Q 1958 2944 2051 2854 
Q 2144 2765 2144 2605 
Q 2144 2470 2077 2393 
Q 2010 2317 1894 2317 
Q 1773 2317 1638 2445 
Q 1536 2541 1472 2541 
Q 1338 2541 1181 2355 
Q 1024 2170 1024 2016 
L 1024 576 
Q 1024 301 1133 205 
Q 1242 109 1568 96 
L 1568 0 
L 32 0 
L 32 96 
Q 339 154 412 224 
Q 486 294 486 538 
L 486 2138 
Q 486 2349 438 2435 
Q 390 2522 269 2522 
Q 166 2522 45 2496 
L 45 2598 
Q 448 2726 992 2944 
L 1024 2931 
z
" transform="scale(0.015625)"/>
       <path id="STIXGeneral-Regular-65" d="M 2611 1050 
L 2714 1005 
Q 2330 -64 1376 -64 
Q 813 -64 486 329 
Q 160 723 160 1389 
Q 160 2074 525 2509 
Q 890 2944 1485 2944 
Q 2061 2944 2374 2502 
Q 2560 2246 2592 1773 
L 621 1773 
Q 646 1370 700 1158 
Q 755 947 915 730 
Q 1184 378 1626 378 
Q 1939 378 2153 531 
Q 2368 685 2611 1050 
z
M 634 1978 
L 1939 1978 
Q 1882 2381 1750 2547 
Q 1619 2714 1312 2714 
Q 1043 2714 864 2525 
Q 685 2336 634 1978 
z
" transform="scale(0.015625)"/>
       <path id="STIXGeneral-Regular-64" d="M 3142 269 
L 2202 -64 
L 2176 -45 
L 2176 365 
Q 1869 -64 1357 -64 
Q 826 -64 499 317 
Q 173 698 173 1312 
Q 173 1990 563 2467 
Q 954 2944 1504 2944 
Q 1850 2944 2176 2669 
L 2176 3667 
Q 2176 3866 2118 3930 
Q 2061 3994 1882 3994 
Q 1792 3994 1741 3987 
L 1741 4090 
Q 2323 4243 2682 4371 
L 2714 4358 
L 2714 730 
Q 2714 506 2768 435 
Q 2822 365 2995 365 
Q 3034 365 3142 371 
L 3142 269 
z
M 2176 653 
L 2176 2125 
Q 2176 2381 1981 2573 
Q 1786 2765 1523 2765 
Q 1158 2765 940 2438 
Q 723 2112 723 1568 
Q 723 979 963 624 
Q 1203 269 1606 269 
Q 1907 269 2080 474 
Q 2176 582 2176 653 
z
" transform="scale(0.015625)"/>
       <path id="STIXGeneral-Regular-69" d="M 1152 4045 
Q 1152 3904 1056 3811 
Q 960 3718 819 3718 
Q 685 3718 592 3811 
Q 499 3904 499 4045 
Q 499 4179 595 4275 
Q 691 4371 826 4371 
Q 966 4371 1059 4275 
Q 1152 4179 1152 4045 
z
M 1619 0 
L 102 0 
L 102 96 
Q 435 115 521 211 
Q 608 307 608 666 
L 608 2118 
Q 608 2342 563 2432 
Q 518 2522 397 2522 
Q 243 2522 128 2490 
L 128 2592 
L 1120 2944 
L 1146 2918 
L 1146 672 
Q 1146 314 1226 218 
Q 1306 122 1619 96 
L 1619 0 
z
" transform="scale(0.015625)"/>
       <path id="STIXGeneral-Regular-63" d="M 2547 998 
L 2637 941 
Q 2362 403 2112 205 
Q 1786 -64 1376 -64 
Q 845 -64 502 336 
Q 160 736 160 1357 
Q 160 2170 698 2618 
Q 1094 2944 1562 2944 
Q 1965 2944 2256 2749 
Q 2547 2554 2547 2285 
Q 2547 2176 2457 2096 
Q 2368 2016 2246 2016 
Q 2022 2016 1939 2310 
L 1901 2451 
Q 1850 2630 1773 2694 
Q 1696 2758 1523 2758 
Q 1133 2758 893 2451 
Q 653 2144 653 1645 
Q 653 1094 928 745 
Q 1203 397 1645 397 
Q 1920 397 2118 528 
Q 2317 659 2547 998 
z
" transform="scale(0.015625)"/>
       <path id="STIXGeneral-Regular-74" d="M 1702 493 
L 1786 422 
Q 1478 -64 1011 -64 
Q 448 -64 448 749 
L 448 2675 
L 109 2675 
Q 83 2694 83 2720 
Q 83 2771 192 2842 
Q 435 2982 813 3526 
Q 826 3546 874 3606 
Q 922 3667 941 3706 
Q 986 3706 986 3622 
L 986 2880 
L 1632 2880 
L 1632 2675 
L 986 2675 
L 986 845 
Q 986 538 1062 403 
Q 1139 269 1318 269 
Q 1510 269 1702 493 
z
" transform="scale(0.015625)"/>
       <path id="STIXGeneral-Regular-6f" d="M 3008 1478 
Q 3008 806 2608 371 
Q 2208 -64 1568 -64 
Q 979 -64 582 368 
Q 186 800 186 1459 
Q 186 2125 582 2534 
Q 979 2944 1626 2944 
Q 2221 2944 2614 2537 
Q 3008 2131 3008 1478 
z
M 2432 1306 
Q 2432 2035 2112 2445 
Q 1856 2765 1504 2765 
Q 1171 2765 966 2493 
Q 762 2221 762 1747 
Q 762 928 1101 435 
Q 1318 115 1677 115 
Q 2029 115 2230 432 
Q 2432 749 2432 1306 
z
" transform="scale(0.015625)"/>
       <path id="STIXGeneral-Regular-20" transform="scale(0.015625)"/>
       <path id="STIXGeneral-Regular-28" d="M 1946 -1030 
L 1869 -1133 
Q 1126 -710 716 32 
Q 307 774 307 1613 
Q 307 3386 1888 4326 
L 1946 4224 
Q 1293 3667 1075 3126 
Q 858 2586 858 1632 
Q 858 685 1082 96 
Q 1306 -493 1946 -1030 
z
" transform="scale(0.015625)"/>
       <path id="STIXGeneral-Regular-58" d="M 4506 0 
L 2611 0 
L 2611 122 
L 2778 134 
Q 3098 154 3098 320 
Q 3098 461 2771 947 
L 2163 1850 
L 1402 896 
Q 1062 474 1062 326 
Q 1062 230 1168 185 
Q 1274 141 1549 122 
L 1549 0 
L 64 0 
L 64 122 
Q 314 147 470 268 
Q 627 390 992 851 
L 1990 2099 
L 1312 3091 
Q 864 3744 665 3913 
Q 467 4083 141 4115 
L 141 4237 
L 2067 4237 
L 2067 4115 
L 1882 4109 
Q 1734 4102 1660 4064 
Q 1587 4026 1587 3923 
Q 1587 3885 1596 3843 
Q 1606 3802 1635 3744 
Q 1664 3686 1689 3638 
Q 1715 3590 1769 3507 
Q 1824 3424 1862 3366 
Q 1901 3309 1984 3190 
Q 2067 3072 2118 2995 
L 2400 2586 
L 3117 3482 
Q 3373 3795 3373 3910 
Q 3373 4019 3283 4064 
Q 3194 4109 2938 4115 
L 2938 4237 
L 4454 4237 
L 4454 4115 
Q 4147 4096 3968 3977 
Q 3789 3859 3482 3482 
L 2566 2349 
L 3795 595 
Q 3981 326 4115 240 
Q 4250 154 4506 122 
L 4506 0 
z
" transform="scale(0.015625)"/>
       <path id="STIXGeneral-Regular-29" d="M 186 4224 
L 262 4326 
Q 992 3891 1408 3148 
Q 1824 2406 1824 1581 
Q 1824 -166 243 -1133 
L 186 -1030 
Q 845 -486 1059 54 
Q 1274 595 1274 1562 
Q 1274 2534 1059 3120 
Q 845 3706 186 4224 
z
" transform="scale(0.015625)"/>
      </defs>
      <use xlink:href="#STIXGeneral-Regular-50"/>
      <use xlink:href="#STIXGeneral-Regular-72" x="55.699997"/>
      <use xlink:href="#STIXGeneral-Regular-65" x="88.999985"/>
      <use xlink:href="#STIXGeneral-Regular-64" x="133.399979"/>
      <use xlink:href="#STIXGeneral-Regular-69" x="183.399963"/>
      <use xlink:href="#STIXGeneral-Regular-63" x="211.199951"/>
      <use xlink:href="#STIXGeneral-Regular-74" x="255.599945"/>
      <use xlink:href="#STIXGeneral-Regular-6f" x="283.399933"/>
      <use xlink:href="#STIXGeneral-Regular-72" x="333.399918"/>
      <use xlink:href="#STIXGeneral-Regular-20" x="366.699905"/>
      <use xlink:href="#STIXGeneral-Regular-28" x="391.69989"/>
      <use xlink:href="#STIXGeneral-Regular-58" x="424.999878"/>
      <use xlink:href="#STIXGeneral-Regular-29" x="497.19986"/>
     </g>
    </g>
   </g>
   <g id="matplotlib.axis_2">
    <g id="ytick_1">
     <g id="line2d_15">
      <path d="M 61.36 314.19952 
L 516.09952 314.19952 
" clip-path="url(#pe821c65605)" style="fill: none; stroke: #ffffff; stroke-width: 0.8; stroke-linecap: round"/>
     </g>
     <g id="line2d_16"/>
     <g id="text_9">
      <!-- $\mathdefault{−10.0}$ -->
      <g style="fill: #262626" transform="translate(23.7 318.980301)scale(0.14 -0.14)">
       <defs>
        <path id="STIXGeneral-Regular-2e" d="M 1158 275 
Q 1158 134 1052 32 
Q 947 -70 800 -70 
Q 653 -70 550 32 
Q 448 134 448 281 
Q 448 429 553 534 
Q 659 640 806 640 
Q 947 640 1052 531 
Q 1158 422 1158 275 
z
" transform="scale(0.015625)"/>
       </defs>
       <use xlink:href="#STIXGeneral-Regular-2212" transform="translate(0 0.40625)"/>
       <use xlink:href="#STIXGeneral-Regular-31" transform="translate(68.499985 0.40625)"/>
       <use xlink:href="#STIXGeneral-Regular-30" transform="translate(118.499969 0.40625)"/>
       <use xlink:href="#STIXGeneral-Regular-2e" transform="translate(168.499954 0.40625)"/>
       <use xlink:href="#STIXGeneral-Regular-30" transform="translate(193.499939 0.40625)"/>
      </g>
     </g>
    </g>
    <g id="ytick_2">
     <g id="line2d_17">
      <path d="M 61.36 281.969296 
L 516.09952 281.969296 
" clip-path="url(#pe821c65605)" style="fill: none; stroke: #ffffff; stroke-width: 0.8; stroke-linecap: round"/>
     </g>
     <g id="line2d_18"/>
     <g id="text_10">
      <!-- $\mathdefault{−7.5}$ -->
      <g style="fill: #262626" transform="translate(30.7 286.750077)scale(0.14 -0.14)">
       <defs>
        <path id="STIXGeneral-Regular-37" d="M 2874 4134 
L 1517 -51 
L 1101 -51 
L 2368 3763 
L 992 3763 
Q 717 3763 582 3667 
Q 448 3571 243 3238 
L 128 3296 
L 512 4237 
L 2874 4237 
L 2874 4134 
z
" transform="scale(0.015625)"/>
        <path id="STIXGeneral-Regular-35" d="M 2803 4358 
L 2573 3814 
Q 2534 3731 2400 3731 
L 1158 3731 
L 902 3187 
Q 1606 3053 1920 2896 
Q 2234 2739 2502 2368 
Q 2726 2061 2726 1555 
Q 2726 1094 2576 780 
Q 2426 467 2099 224 
Q 1664 -90 1011 -90 
Q 646 -90 422 19 
Q 198 128 198 307 
Q 198 550 486 550 
Q 717 550 960 352 
Q 1210 147 1414 147 
Q 1747 147 2012 480 
Q 2278 813 2278 1229 
Q 2278 1843 1850 2189 
Q 1293 2637 486 2637 
Q 410 2637 410 2688 
L 416 2720 
L 1114 4237 
L 2438 4237 
Q 2547 4237 2608 4269 
Q 2669 4301 2746 4403 
L 2803 4358 
z
" transform="scale(0.015625)"/>
       </defs>
       <use xlink:href="#STIXGeneral-Regular-2212" transform="translate(0 0.203125)"/>
       <use xlink:href="#STIXGeneral-Regular-37" transform="translate(68.499985 0.203125)"/>
       <use xlink:href="#STIXGeneral-Regular-2e" transform="translate(118.499969 0.203125)"/>
       <use xlink:href="#STIXGeneral-Regular-35" transform="translate(143.499954 0.203125)"/>
      </g>
     </g>
    </g>
    <g id="ytick_3">
     <g id="line2d_19">
      <path d="M 61.36 249.739071 
L 516.09952 249.739071 
" clip-path="url(#pe821c65605)" style="fill: none; stroke: #ffffff; stroke-width: 0.8; stroke-linecap: round"/>
     </g>
     <g id="line2d_20"/>
     <g id="text_11">
      <!-- $\mathdefault{−5.0}$ -->
      <g style="fill: #262626" transform="translate(30.7 254.519852)scale(0.14 -0.14)">
       <use xlink:href="#STIXGeneral-Regular-2212" transform="translate(0 0.203125)"/>
       <use xlink:href="#STIXGeneral-Regular-35" transform="translate(68.499985 0.203125)"/>
       <use xlink:href="#STIXGeneral-Regular-2e" transform="translate(118.499969 0.203125)"/>
       <use xlink:href="#STIXGeneral-Regular-30" transform="translate(143.499954 0.203125)"/>
      </g>
     </g>
    </g>
    <g id="ytick_4">
     <g id="line2d_21">
      <path d="M 61.36 217.508847 
L 516.09952 217.508847 
" clip-path="url(#pe821c65605)" style="fill: none; stroke: #ffffff; stroke-width: 0.8; stroke-linecap: round"/>
     </g>
     <g id="line2d_22"/>
     <g id="text_12">
      <!-- $\mathdefault{−2.5}$ -->
      <g style="fill: #262626" transform="translate(30.7 222.289628)scale(0.14 -0.14)">
       <use xlink:href="#STIXGeneral-Regular-2212" transform="translate(0 0.203125)"/>
       <use xlink:href="#STIXGeneral-Regular-32" transform="translate(68.499985 0.203125)"/>
       <use xlink:href="#STIXGeneral-Regular-2e" transform="translate(118.499969 0.203125)"/>
       <use xlink:href="#STIXGeneral-Regular-35" transform="translate(143.499954 0.203125)"/>
      </g>
     </g>
    </g>
    <g id="ytick_5">
     <g id="line2d_23">
      <path d="M 61.36 185.278622 
L 516.09952 185.278622 
" clip-path="url(#pe821c65605)" style="fill: none; stroke: #ffffff; stroke-width: 0.8; stroke-linecap: round"/>
     </g>
     <g id="line2d_24"/>
     <g id="text_13">
      <!-- $\mathdefault{0.0}$ -->
      <g style="fill: #262626" transform="translate(40.36 190.059403)scale(0.14 -0.14)">
       <use xlink:href="#STIXGeneral-Regular-30" transform="translate(0 0.40625)"/>
       <use xlink:href="#STIXGeneral-Regular-2e" transform="translate(49.999985 0.40625)"/>
       <use xlink:href="#STIXGeneral-Regular-30" transform="translate(74.999969 0.40625)"/>
      </g>
     </g>
    </g>
    <g id="ytick_6">
     <g id="line2d_25">
      <path d="M 61.36 153.048398 
L 516.09952 153.048398 
" clip-path="url(#pe821c65605)" style="fill: none; stroke: #ffffff; stroke-width: 0.8; stroke-linecap: round"/>
     </g>
     <g id="line2d_26"/>
     <g id="text_14">
      <!-- $\mathdefault{2.5}$ -->
      <g style="fill: #262626" transform="translate(40.36 157.829179)scale(0.14 -0.14)">
       <use xlink:href="#STIXGeneral-Regular-32" transform="translate(0 0.203125)"/>
       <use xlink:href="#STIXGeneral-Regular-2e" transform="translate(49.999985 0.203125)"/>
       <use xlink:href="#STIXGeneral-Regular-35" transform="translate(74.999969 0.203125)"/>
      </g>
     </g>
    </g>
    <g id="ytick_7">
     <g id="line2d_27">
      <path d="M 61.36 120.818173 
L 516.09952 120.818173 
" clip-path="url(#pe821c65605)" style="fill: none; stroke: #ffffff; stroke-width: 0.8; stroke-linecap: round"/>
     </g>
     <g id="line2d_28"/>
     <g id="text_15">
      <!-- $\mathdefault{5.0}$ -->
      <g style="fill: #262626" transform="translate(40.36 125.598955)scale(0.14 -0.14)">
       <use xlink:href="#STIXGeneral-Regular-35" transform="translate(0 0.203125)"/>
       <use xlink:href="#STIXGeneral-Regular-2e" transform="translate(49.999985 0.203125)"/>
       <use xlink:href="#STIXGeneral-Regular-30" transform="translate(74.999969 0.203125)"/>
      </g>
     </g>
    </g>
    <g id="ytick_8">
     <g id="line2d_29">
      <path d="M 61.36 88.587949 
L 516.09952 88.587949 
" clip-path="url(#pe821c65605)" style="fill: none; stroke: #ffffff; stroke-width: 0.8; stroke-linecap: round"/>
     </g>
     <g id="line2d_30"/>
     <g id="text_16">
      <!-- $\mathdefault{7.5}$ -->
      <g style="fill: #262626" transform="translate(40.36 93.36873)scale(0.14 -0.14)">
       <use xlink:href="#STIXGeneral-Regular-37" transform="translate(0 0.203125)"/>
       <use xlink:href="#STIXGeneral-Regular-2e" transform="translate(49.999985 0.203125)"/>
       <use xlink:href="#STIXGeneral-Regular-35" transform="translate(74.999969 0.203125)"/>
      </g>
     </g>
    </g>
    <g id="ytick_9">
     <g id="line2d_31">
      <path d="M 61.36 56.357724 
L 516.09952 56.357724 
" clip-path="url(#pe821c65605)" style="fill: none; stroke: #ffffff; stroke-width: 0.8; stroke-linecap: round"/>
     </g>
     <g id="line2d_32"/>
     <g id="text_17">
      <!-- $\mathdefault{10.0}$ -->
      <g style="fill: #262626" transform="translate(33.36 61.138506)scale(0.14 -0.14)">
       <use xlink:href="#STIXGeneral-Regular-31" transform="translate(0 0.40625)"/>
       <use xlink:href="#STIXGeneral-Regular-30" transform="translate(49.999985 0.40625)"/>
       <use xlink:href="#STIXGeneral-Regular-2e" transform="translate(99.999969 0.40625)"/>
       <use xlink:href="#STIXGeneral-Regular-30" transform="translate(124.999954 0.40625)"/>
      </g>
     </g>
    </g>
    <g id="ytick_10">
     <g id="line2d_33">
      <path d="M 61.36 24.1275 
L 516.09952 24.1275 
" clip-path="url(#pe821c65605)" style="fill: none; stroke: #ffffff; stroke-width: 0.8; stroke-linecap: round"/>
     </g>
     <g id="line2d_34"/>
     <g id="text_18">
      <!-- $\mathdefault{12.5}$ -->
      <g style="fill: #262626" transform="translate(33.36 28.908281)scale(0.14 -0.14)">
       <use xlink:href="#STIXGeneral-Regular-31" transform="translate(0 0.203125)"/>
       <use xlink:href="#STIXGeneral-Regular-32" transform="translate(49.999985 0.203125)"/>
       <use xlink:href="#STIXGeneral-Regular-2e" transform="translate(99.999969 0.203125)"/>
       <use xlink:href="#STIXGeneral-Regular-35" transform="translate(124.999954 0.203125)"/>
      </g>
     </g>
    </g>
    <g id="text_19">
     <!-- Outcome (Y) -->
     <g style="fill: #262626" transform="translate(17.444531 208.943979)rotate(-90)scale(0.15 -0.15)">
      <defs>
       <path id="STIXGeneral-Regular-4f" d="M 4403 2118 
Q 4403 1133 3820 521 
Q 3238 -90 2310 -90 
Q 1376 -90 797 524 
Q 218 1139 218 2138 
Q 218 3110 797 3718 
Q 1376 4326 2310 4326 
Q 3245 4326 3824 3702 
Q 4403 3078 4403 2118 
z
M 3674 2157 
Q 3674 2701 3520 3133 
Q 3366 3565 3091 3795 
Q 2733 4096 2304 4096 
Q 1760 4096 1389 3667 
Q 1184 3437 1065 3011 
Q 947 2586 947 2125 
Q 947 960 1523 429 
Q 1837 141 2317 141 
Q 2816 141 3142 448 
Q 3674 960 3674 2157 
z
" transform="scale(0.015625)"/>
       <path id="STIXGeneral-Regular-75" d="M 3072 320 
L 3072 230 
Q 2573 96 2195 -58 
L 2163 -38 
L 2163 486 
L 2150 486 
Q 1747 -64 1235 -64 
Q 870 -64 662 160 
Q 454 384 454 755 
L 454 2362 
Q 454 2598 371 2688 
Q 288 2778 58 2790 
L 58 2880 
L 992 2880 
L 992 813 
Q 992 595 1123 451 
Q 1254 307 1446 307 
Q 1760 307 1984 506 
Q 2067 582 2099 649 
Q 2131 717 2131 877 
L 2131 2355 
Q 2131 2605 2041 2678 
Q 1952 2752 1658 2771 
L 1658 2880 
L 2669 2880 
L 2669 685 
Q 2669 461 2742 390 
Q 2816 320 3034 320 
L 3072 320 
z
" transform="scale(0.015625)"/>
       <path id="STIXGeneral-Regular-6d" d="M 4960 0 
L 3565 0 
L 3565 96 
Q 3834 122 3907 208 
Q 3981 294 3981 576 
L 3981 1894 
Q 3981 2278 3869 2444 
Q 3757 2611 3488 2611 
Q 3264 2611 3107 2521 
Q 2950 2432 2803 2221 
L 2803 608 
Q 2803 301 2896 201 
Q 2989 102 3264 96 
L 3264 0 
L 1830 0 
L 1830 96 
Q 2112 115 2189 188 
Q 2266 262 2266 550 
L 2266 1901 
Q 2266 2611 1850 2611 
Q 1670 2611 1468 2531 
Q 1267 2451 1171 2336 
Q 1088 2240 1088 2227 
L 1088 448 
Q 1088 243 1177 176 
Q 1267 109 1523 96 
L 1523 0 
L 102 0 
L 102 96 
Q 371 102 460 195 
Q 550 288 550 563 
L 550 2150 
Q 550 2387 499 2480 
Q 448 2573 326 2573 
Q 230 2573 122 2547 
L 122 2656 
Q 557 2778 1011 2944 
L 1062 2925 
L 1062 2451 
L 1075 2451 
Q 1363 2752 1584 2848 
Q 1805 2944 2054 2944 
Q 2560 2944 2733 2406 
Q 3232 2944 3776 2944 
Q 4518 2944 4518 1792 
L 4518 493 
Q 4518 282 4582 202 
Q 4646 122 4794 109 
L 4960 96 
L 4960 0 
z
" transform="scale(0.015625)"/>
       <path id="STIXGeneral-Regular-59" d="M 4499 4237 
L 4499 4115 
Q 4218 4090 4054 3955 
Q 3891 3821 3616 3398 
L 2669 1939 
L 2669 710 
Q 2669 346 2790 243 
Q 2912 141 3328 122 
L 3328 0 
L 1370 0 
L 1370 122 
Q 1805 154 1910 259 
Q 2016 365 2016 787 
L 2016 1882 
L 1178 3110 
Q 742 3750 556 3926 
Q 371 4102 141 4115 
L 141 4237 
L 1926 4237 
L 1926 4115 
L 1773 4109 
Q 1472 4102 1472 3942 
Q 1472 3808 1587 3642 
L 2522 2227 
L 3450 3648 
Q 3539 3782 3539 3917 
Q 3533 4026 3440 4067 
Q 3347 4109 3104 4115 
L 3104 4237 
L 4499 4237 
z
" transform="scale(0.015625)"/>
      </defs>
      <use xlink:href="#STIXGeneral-Regular-4f"/>
      <use xlink:href="#STIXGeneral-Regular-75" x="72.199982"/>
      <use xlink:href="#STIXGeneral-Regular-74" x="122.199966"/>
      <use xlink:href="#STIXGeneral-Regular-63" x="149.999954"/>
      <use xlink:href="#STIXGeneral-Regular-6f" x="194.399948"/>
      <use xlink:href="#STIXGeneral-Regular-6d" x="244.399933"/>
      <use xlink:href="#STIXGeneral-Regular-65" x="322.199921"/>
      <use xlink:href="#STIXGeneral-Regular-20" x="366.599915"/>
      <use xlink:href="#STIXGeneral-Regular-28" x="391.599899"/>
      <use xlink:href="#STIXGeneral-Regular-59" x="424.899887"/>
      <use xlink:href="#STIXGeneral-Regular-29" x="497.099869"/>
     </g>
    </g>
   </g>
   <g id="PolyCollection_1">
    <defs>
     <path id="mb6e4b8ea22" d="M 127.623083 -125.385219 
L 127.623083 -107.548069 
L 128.552233 -108.367085 
L 130.410534 -109.186166 
L 132.268835 -110.005314 
L 134.127135 -110.824528 
L 135.985436 -111.643808 
L 137.843737 -112.463154 
L 139.702037 -113.282566 
L 141.560338 -114.102044 
L 143.418639 -114.921588 
L 145.276939 -115.741199 
L 147.13524 -116.560875 
L 148.993541 -117.380618 
L 150.851841 -118.200426 
L 152.710142 -119.020301 
L 154.568443 -119.840242 
L 156.426743 -120.660249 
L 158.285044 -121.480322 
L 160.143345 -122.300461 
L 162.001645 -123.120666 
L 163.859946 -123.940938 
L 165.718247 -124.761275 
L 167.576547 -125.581679 
L 169.434848 -126.402148 
L 171.293149 -127.222684 
L 173.151449 -128.043286 
L 175.00975 -128.863954 
L 176.868051 -129.684688 
L 178.726351 -130.514429 
L 180.584652 -131.334229 
L 182.442953 -132.153136 
L 184.301253 -132.971342 
L 186.159554 -133.789028 
L 188.017855 -134.601919 
L 189.876155 -135.420703 
L 191.734456 -136.239634 
L 193.592757 -137.059297 
L 195.451057 -137.880047 
L 197.309358 -138.701875 
L 199.167659 -139.524782 
L 201.025959 -140.348786 
L 202.88426 -141.174871 
L 204.742561 -142.000767 
L 206.600861 -142.825529 
L 208.459162 -143.649634 
L 210.317463 -144.473545 
L 212.175763 -145.301349 
L 214.034064 -146.131308 
L 215.892365 -146.960504 
L 217.750665 -147.795988 
L 219.608966 -148.632122 
L 221.467267 -149.46537 
L 223.325567 -150.288739 
L 225.183868 -151.107496 
L 227.042169 -151.925147 
L 228.900469 -152.742532 
L 230.75877 -153.56028 
L 232.617071 -154.378736 
L 234.475371 -155.197385 
L 236.333672 -156.016685 
L 238.191973 -156.836001 
L 240.050273 -157.655318 
L 241.908574 -158.474899 
L 243.766875 -159.294478 
L 245.625175 -160.114379 
L 247.483476 -160.937413 
L 249.341777 -161.756178 
L 251.200077 -162.57602 
L 253.058378 -163.395603 
L 254.916679 -164.212904 
L 256.774979 -165.025729 
L 258.63328 -165.834892 
L 260.491581 -166.641016 
L 262.349881 -167.444347 
L 264.208182 -168.244194 
L 266.066483 -169.040374 
L 267.924783 -169.832196 
L 269.783084 -170.621653 
L 271.641385 -171.409888 
L 273.499685 -172.195817 
L 275.357986 -172.974799 
L 277.216287 -173.755351 
L 279.074587 -174.532573 
L 280.932888 -175.305168 
L 282.791189 -176.072917 
L 284.649489 -176.837364 
L 286.50779 -177.59878 
L 288.366091 -178.357467 
L 290.224391 -179.11909 
L 292.082692 -179.873331 
L 293.940993 -180.626048 
L 295.799293 -181.37918 
L 297.657594 -182.132012 
L 299.515895 -182.884166 
L 301.374195 -183.635293 
L 303.232496 -184.385078 
L 305.090797 -185.13207 
L 306.949097 -185.878315 
L 308.807398 -186.625254 
L 310.665699 -187.370943 
L 312.523999 -188.116113 
L 314.3823 -188.85722 
L 316.240601 -189.593657 
L 318.098901 -190.328122 
L 319.957202 -191.053179 
L 321.815503 -191.765234 
L 323.673803 -192.472936 
L 325.532104 -193.185588 
L 327.390405 -193.899038 
L 329.248705 -194.617857 
L 331.107006 -195.336946 
L 332.965307 -196.054147 
L 334.823607 -196.76959 
L 336.681908 -197.483268 
L 338.540209 -198.194657 
L 340.398509 -198.905167 
L 342.25681 -199.614288 
L 344.115111 -200.320299 
L 345.973411 -201.024135 
L 347.831712 -201.725721 
L 349.690013 -202.421989 
L 351.548313 -203.120843 
L 353.406614 -203.81747 
L 355.264915 -204.512844 
L 357.123215 -205.207329 
L 358.981516 -205.900828 
L 360.839817 -206.593566 
L 362.698117 -207.285118 
L 364.556418 -207.975598 
L 366.414719 -208.666647 
L 368.273019 -209.358105 
L 370.13132 -210.05076 
L 371.989621 -210.7434 
L 373.847921 -211.434652 
L 375.706222 -212.125045 
L 377.564523 -212.819743 
L 379.422823 -213.510137 
L 381.281124 -214.200344 
L 383.139425 -214.890637 
L 384.997725 -215.58132 
L 386.856026 -216.272515 
L 388.714327 -216.963397 
L 390.572627 -217.654259 
L 392.430928 -218.345502 
L 394.289229 -219.037815 
L 396.147529 -219.730728 
L 398.00583 -220.421522 
L 399.864131 -221.109708 
L 401.722431 -221.795105 
L 403.580732 -222.477524 
L 405.439033 -223.156769 
L 407.297333 -223.832635 
L 409.155634 -224.504935 
L 411.013935 -225.173452 
L 412.872235 -225.840643 
L 414.730536 -226.506786 
L 416.588837 -227.172122 
L 418.447137 -227.836902 
L 420.305438 -228.500959 
L 422.163739 -229.163118 
L 424.022039 -229.831477 
L 425.88034 -230.501427 
L 427.738641 -231.17171 
L 429.596941 -231.842378 
L 431.455242 -232.506927 
L 433.313543 -233.16959 
L 435.171843 -233.832283 
L 437.030144 -234.495183 
L 438.888445 -235.158476 
L 440.746746 -235.822169 
L 442.605046 -236.485432 
L 444.463347 -237.148902 
L 446.321648 -237.814783 
L 448.179948 -238.487187 
L 450.038249 -239.160317 
L 451.89655 -239.834174 
L 453.75485 -240.508757 
L 455.613151 -241.184066 
L 457.471452 -241.860102 
L 459.329752 -242.536865 
L 461.188053 -243.214353 
L 463.046354 -243.892568 
L 464.904654 -244.57151 
L 466.762955 -245.251177 
L 468.621256 -245.931572 
L 470.479556 -246.612692 
L 472.337857 -247.294539 
L 474.196158 -247.977112 
L 476.054458 -248.660412 
L 477.912759 -249.344438 
L 479.77106 -250.02919 
L 481.62936 -250.714669 
L 483.487661 -251.400874 
L 485.345962 -252.087806 
L 487.204262 -252.775464 
L 489.062563 -253.463848 
L 490.920864 -254.152959 
L 492.779164 -254.842796 
L 494.637465 -255.533359 
L 496.495766 -256.224649 
L 496.495766 -277.16162 
L 496.495766 -277.16162 
L 494.637465 -276.291152 
L 492.779164 -275.421996 
L 490.920864 -274.554153 
L 489.062563 -273.687623 
L 487.204262 -272.822405 
L 485.345962 -271.9585 
L 483.487661 -271.095908 
L 481.62936 -270.234628 
L 479.77106 -269.374661 
L 477.912759 -268.516007 
L 476.054458 -267.658665 
L 474.196158 -266.802636 
L 472.337857 -265.94792 
L 470.479556 -265.094516 
L 468.621256 -264.242425 
L 466.762955 -263.391647 
L 464.904654 -262.542181 
L 463.046354 -261.694028 
L 461.188053 -260.847188 
L 459.329752 -260.00166 
L 457.471452 -259.157445 
L 455.613151 -258.314543 
L 453.75485 -257.472953 
L 451.89655 -256.632676 
L 450.038249 -255.793712 
L 448.179948 -254.95606 
L 446.321648 -254.119721 
L 444.463347 -253.28632 
L 442.605046 -252.455789 
L 440.746746 -251.626608 
L 438.888445 -250.798302 
L 437.030144 -249.971178 
L 435.171843 -249.145232 
L 433.313543 -248.320389 
L 431.455242 -247.49657 
L 429.596941 -246.672515 
L 427.738641 -245.843981 
L 425.88034 -245.017765 
L 424.022039 -244.193598 
L 422.163739 -243.372223 
L 420.305438 -242.557765 
L 418.447137 -241.743821 
L 416.588837 -240.930241 
L 414.730536 -240.116838 
L 412.872235 -239.303406 
L 411.013935 -238.489741 
L 409.155634 -237.675589 
L 407.297333 -236.858315 
L 405.439033 -236.038188 
L 403.580732 -235.21527 
L 401.722431 -234.389813 
L 399.864131 -233.562069 
L 398.00583 -232.73227 
L 396.147529 -231.90063 
L 394.289229 -231.067568 
L 392.430928 -230.235448 
L 390.572627 -229.405043 
L 388.714327 -228.576198 
L 386.856026 -227.748613 
L 384.997725 -226.922032 
L 383.139425 -226.097107 
L 381.281124 -225.273707 
L 379.422823 -224.450645 
L 377.564523 -223.627673 
L 375.706222 -222.801497 
L 373.847921 -221.980746 
L 371.989621 -221.159517 
L 370.13132 -220.337339 
L 368.273019 -219.515402 
L 366.414719 -218.694677 
L 364.556418 -217.875085 
L 362.698117 -217.057448 
L 360.839817 -216.239272 
L 358.981516 -215.420324 
L 357.123215 -214.601302 
L 355.264915 -213.782273 
L 353.406614 -212.963706 
L 351.548313 -212.14577 
L 349.690013 -211.32779 
L 347.831712 -210.515514 
L 345.973411 -209.701003 
L 344.115111 -208.888056 
L 342.25681 -208.076804 
L 340.398509 -207.265965 
L 338.540209 -206.456461 
L 336.681908 -205.648914 
L 334.823607 -204.842396 
L 332.965307 -204.038132 
L 331.107006 -203.236447 
L 329.248705 -202.437058 
L 327.390405 -201.641991 
L 325.532104 -200.856491 
L 323.673803 -200.074906 
L 321.815503 -199.302329 
L 319.957202 -198.529908 
L 318.098901 -197.749648 
L 316.240601 -196.963159 
L 314.3823 -196.17809 
L 312.523999 -195.392412 
L 310.665699 -194.607143 
L 308.807398 -193.826042 
L 306.949097 -193.048444 
L 305.090797 -192.276559 
L 303.232496 -191.508314 
L 301.374195 -190.742084 
L 299.515895 -189.979213 
L 297.657594 -189.220128 
L 295.799293 -188.465249 
L 293.940993 -187.714988 
L 292.082692 -186.9701 
L 290.224391 -186.228785 
L 288.366091 -185.484115 
L 286.50779 -184.746916 
L 284.649489 -184.011192 
L 282.791189 -183.276469 
L 280.932888 -182.54237 
L 279.074587 -181.807186 
L 277.216287 -181.07204 
L 275.357986 -180.338414 
L 273.499685 -179.610306 
L 271.641385 -178.878905 
L 269.783084 -178.149404 
L 267.924783 -177.422745 
L 266.066483 -176.697752 
L 264.208182 -175.972169 
L 262.349881 -175.246412 
L 260.491581 -174.520492 
L 258.63328 -173.795646 
L 256.774979 -173.072271 
L 254.916679 -172.349442 
L 253.058378 -171.625649 
L 251.200077 -170.903584 
L 249.341777 -170.185455 
L 247.483476 -169.47256 
L 245.625175 -168.758626 
L 243.766875 -168.051056 
L 241.908574 -167.346207 
L 240.050273 -166.643679 
L 238.191973 -165.943409 
L 236.333672 -165.24567 
L 234.475371 -164.55036 
L 232.617071 -163.85829 
L 230.75877 -163.168354 
L 228.900469 -162.480273 
L 227.042169 -161.794051 
L 225.183868 -161.108711 
L 223.325567 -160.423433 
L 221.467267 -159.736004 
L 219.608966 -159.040175 
L 217.750665 -158.342688 
L 215.892365 -157.646736 
L 214.034064 -156.957838 
L 212.175763 -156.269717 
L 210.317463 -155.585014 
L 208.459162 -154.904828 
L 206.600861 -154.224761 
L 204.742561 -153.544123 
L 202.88426 -152.862197 
L 201.025959 -152.180468 
L 199.167659 -151.50097 
L 197.309358 -150.82265 
L 195.451057 -150.145007 
L 193.592757 -149.468027 
L 191.734456 -148.791688 
L 189.876155 -148.115543 
L 188.017855 -147.439146 
L 186.159554 -146.769097 
L 184.301253 -146.094262 
L 182.442953 -145.419221 
L 180.584652 -144.743959 
L 178.726351 -144.068344 
L 176.868051 -143.385518 
L 175.00975 -142.711957 
L 173.151449 -142.038926 
L 171.293149 -141.366425 
L 169.434848 -140.694452 
L 167.576547 -140.023009 
L 165.718247 -139.352096 
L 163.859946 -138.681712 
L 162.001645 -138.011858 
L 160.143345 -137.342533 
L 158.285044 -136.673737 
L 156.426743 -136.005471 
L 154.568443 -135.337734 
L 152.710142 -134.670527 
L 150.851841 -134.003849 
L 148.993541 -133.337701 
L 147.13524 -132.672082 
L 145.276939 -132.006993 
L 143.418639 -131.342433 
L 141.560338 -130.678403 
L 139.702037 -130.014901 
L 137.843737 -129.35193 
L 135.985436 -128.689488 
L 134.127135 -128.027575 
L 132.268835 -127.366192 
L 130.410534 -126.705338 
L 128.552233 -126.045014 
L 127.623083 -125.385219 
z
" style="stroke: #da70d6; stroke-opacity: 0.5; stroke-width: 0.8"/>
    </defs>
    <g clip-path="url(#pe821c65605)">
     <use xlink:href="#mb6e4b8ea22" x="0" y="353.99952" style="fill: #da70d6; fill-opacity: 0.5; stroke: #da70d6; stroke-opacity: 0.5; stroke-width: 0.8"/>
    </g>
   </g>
   <g id="PolyCollection_2">
    <defs>
     <path id="m6a2e49da54" d="M 127.623083 -152.994201 
L 127.623083 -77.089882 
L 128.552233 -78.004469 
L 130.410534 -78.914211 
L 132.268835 -79.819109 
L 134.127135 -80.719163 
L 135.985436 -81.614372 
L 137.843737 -82.504738 
L 139.702037 -83.390258 
L 141.560338 -84.270935 
L 143.418639 -85.146767 
L 145.276939 -86.017755 
L 147.13524 -86.883898 
L 148.993541 -87.745197 
L 150.851841 -88.601652 
L 152.710142 -89.453263 
L 154.568443 -90.300029 
L 156.426743 -91.141951 
L 158.285044 -91.979028 
L 160.143345 -92.811262 
L 162.001645 -93.638651 
L 163.859946 -94.461195 
L 165.718247 -95.278895 
L 167.576547 -96.091751 
L 169.434848 -96.899763 
L 171.293149 -97.70293 
L 173.151449 -98.501253 
L 175.00975 -99.294732 
L 176.868051 -100.083366 
L 178.726351 -100.814537 
L 180.584652 -101.567082 
L 182.442953 -102.314686 
L 184.301253 -103.057875 
L 186.159554 -103.839392 
L 188.017855 -104.567828 
L 189.876155 -105.23618 
L 191.734456 -105.944149 
L 193.592757 -106.647911 
L 195.451057 -107.364655 
L 197.309358 -108.09339 
L 199.167659 -108.833203 
L 201.025959 -109.580386 
L 202.88426 -110.313321 
L 204.742561 -111.051585 
L 206.600861 -111.807698 
L 208.459162 -112.577914 
L 210.317463 -113.358626 
L 212.175763 -114.074452 
L 214.034064 -114.781979 
L 215.892365 -115.489797 
L 217.750665 -116.231448 
L 219.608966 -117.00912 
L 221.467267 -117.865465 
L 223.325567 -118.75549 
L 225.183868 -119.608278 
L 227.042169 -120.438859 
L 228.900469 -121.247791 
L 230.75877 -122.08653 
L 232.617071 -122.937188 
L 234.475371 -123.803289 
L 236.333672 -124.641162 
L 238.191973 -125.49117 
L 240.050273 -126.335185 
L 241.908574 -127.126288 
L 243.766875 -127.928495 
L 245.625175 -128.706384 
L 247.483476 -129.512419 
L 249.341777 -130.274572 
L 251.200077 -131.013112 
L 253.058378 -131.751772 
L 254.916679 -132.488062 
L 256.774979 -133.209299 
L 258.63328 -133.927208 
L 260.491581 -134.726039 
L 262.349881 -135.487993 
L 264.208182 -136.232262 
L 266.066483 -136.951829 
L 267.924783 -137.639428 
L 269.783084 -138.340616 
L 271.641385 -139.070888 
L 273.499685 -139.815673 
L 275.357986 -140.525967 
L 277.216287 -141.296041 
L 279.074587 -142.13733 
L 280.932888 -142.993569 
L 282.791189 -143.778958 
L 284.649489 -144.530365 
L 286.50779 -145.2526 
L 288.366091 -145.8997 
L 290.224391 -146.568039 
L 292.082692 -147.289357 
L 293.940993 -148.170257 
L 295.799293 -149.019438 
L 297.657594 -149.826017 
L 299.515895 -150.594106 
L 301.374195 -151.327597 
L 303.232496 -152.030156 
L 305.090797 -152.728736 
L 306.949097 -153.416483 
L 308.807398 -154.079071 
L 310.665699 -154.757817 
L 312.523999 -155.44425 
L 314.3823 -156.215252 
L 316.240601 -157.035749 
L 318.098901 -157.903521 
L 319.957202 -158.78561 
L 321.815503 -159.605523 
L 323.673803 -160.31378 
L 325.532104 -160.953907 
L 327.390405 -161.622296 
L 329.248705 -162.391056 
L 331.107006 -163.156961 
L 332.965307 -163.90567 
L 334.823607 -164.632546 
L 336.681908 -165.349801 
L 338.540209 -166.109742 
L 340.398509 -166.859694 
L 342.25681 -167.613196 
L 344.115111 -168.37402 
L 345.973411 -169.081584 
L 347.831712 -169.788036 
L 349.690013 -170.452751 
L 351.548313 -171.163962 
L 353.406614 -171.914289 
L 355.264915 -172.692419 
L 357.123215 -173.496793 
L 358.981516 -174.289211 
L 360.839817 -175.068734 
L 362.698117 -175.850031 
L 364.556418 -176.645464 
L 366.414719 -177.48116 
L 368.273019 -178.329402 
L 370.13132 -179.179339 
L 371.989621 -180.015276 
L 373.847921 -180.816541 
L 375.706222 -181.599701 
L 377.564523 -182.429269 
L 379.422823 -183.220941 
L 381.281124 -183.95454 
L 383.139425 -184.625615 
L 384.997725 -185.303535 
L 386.856026 -185.994125 
L 388.714327 -186.702299 
L 390.572627 -187.434222 
L 392.430928 -188.196775 
L 394.289229 -189.002397 
L 396.147529 -189.621117 
L 398.00583 -190.257278 
L 399.864131 -190.919019 
L 401.722431 -191.609626 
L 403.580732 -192.332589 
L 405.439033 -193.091599 
L 407.297333 -193.889839 
L 409.155634 -194.723058 
L 411.013935 -195.59401 
L 412.872235 -196.454951 
L 414.730536 -197.29923 
L 416.588837 -198.120841 
L 418.447137 -198.913614 
L 420.305438 -199.670656 
L 422.163739 -200.383569 
L 424.022039 -201.126118 
L 425.88034 -201.910081 
L 427.738641 -202.741345 
L 429.596941 -203.618515 
L 431.455242 -204.437515 
L 433.313543 -205.288128 
L 435.171843 -206.125277 
L 437.030144 -206.945537 
L 438.888445 -207.745399 
L 440.746746 -208.525974 
L 442.605046 -209.310385 
L 444.463347 -210.087913 
L 446.321648 -210.844447 
L 448.179948 -211.58421 
L 450.038249 -212.319272 
L 451.89655 -213.049634 
L 453.75485 -213.775294 
L 455.613151 -214.496254 
L 457.471452 -215.212513 
L 459.329752 -215.924072 
L 461.188053 -216.630929 
L 463.046354 -217.333086 
L 464.904654 -218.030542 
L 466.762955 -218.723297 
L 468.621256 -219.411352 
L 470.479556 -220.094705 
L 472.337857 -220.773358 
L 474.196158 -221.44731 
L 476.054458 -222.116562 
L 477.912759 -222.781112 
L 479.77106 -223.440962 
L 481.62936 -224.096111 
L 483.487661 -224.746559 
L 485.345962 -225.392307 
L 487.204262 -226.033354 
L 489.062563 -226.669699 
L 490.920864 -227.301345 
L 492.779164 -227.928289 
L 494.637465 -228.550533 
L 496.495766 -229.168075 
L 496.495766 -305.125095 
L 496.495766 -305.125095 
L 494.637465 -304.321344 
L 492.779164 -303.519143 
L 490.920864 -302.718493 
L 489.062563 -301.919392 
L 487.204262 -301.121842 
L 485.345962 -300.325843 
L 483.487661 -299.531393 
L 481.62936 -298.738494 
L 479.77106 -297.947145 
L 477.912759 -297.157346 
L 476.054458 -296.369097 
L 474.196158 -295.582399 
L 472.337857 -294.797251 
L 470.479556 -294.013653 
L 468.621256 -293.231606 
L 466.762955 -292.451108 
L 464.904654 -291.672161 
L 463.046354 -290.894765 
L 461.188053 -290.118918 
L 459.329752 -289.344622 
L 457.471452 -288.571876 
L 455.613151 -287.80068 
L 453.75485 -287.031035 
L 451.89655 -286.26294 
L 450.038249 -285.496395 
L 448.179948 -284.7314 
L 446.321648 -283.967956 
L 444.463347 -283.234138 
L 442.605046 -282.481503 
L 440.746746 -281.749469 
L 438.888445 -281.018897 
L 437.030144 -280.27197 
L 435.171843 -279.507417 
L 433.313543 -278.72744 
L 431.455242 -277.934188 
L 429.596941 -277.15673 
L 427.738641 -276.260979 
L 425.88034 -275.447028 
L 424.022039 -274.697366 
L 422.163739 -273.919564 
L 420.305438 -273.150317 
L 418.447137 -272.302064 
L 416.588837 -271.452418 
L 414.730536 -270.623003 
L 412.872235 -269.812242 
L 411.013935 -269.018625 
L 409.155634 -268.240311 
L 407.297333 -267.454936 
L 405.439033 -266.665324 
L 403.580732 -265.905702 
L 401.722431 -265.175383 
L 399.864131 -264.470578 
L 398.00583 -263.787661 
L 396.147529 -263.123165 
L 394.289229 -262.471624 
L 392.430928 -261.654935 
L 390.572627 -260.87392 
L 388.714327 -260.105895 
L 386.856026 -259.341871 
L 384.997725 -258.575715 
L 383.139425 -257.824532 
L 381.281124 -257.085202 
L 379.422823 -256.320596 
L 377.564523 -255.524764 
L 375.706222 -254.66896 
L 373.847921 -253.890589 
L 371.989621 -253.129874 
L 370.13132 -252.340142 
L 368.273019 -251.521665 
L 366.414719 -250.676484 
L 364.556418 -249.836494 
L 362.698117 -249.028817 
L 360.839817 -248.219463 
L 358.981516 -247.393573 
L 357.123215 -246.588529 
L 355.264915 -245.801334 
L 353.406614 -245.119959 
L 351.548313 -244.432901 
L 349.690013 -243.727367 
L 347.831712 -243.103032 
L 345.973411 -242.388802 
L 344.115111 -241.680686 
L 342.25681 -240.918995 
L 340.398509 -240.177962 
L 338.540209 -239.416035 
L 336.681908 -238.642871 
L 334.823607 -237.850386 
L 332.965307 -237.049811 
L 331.107006 -236.242136 
L 329.248705 -235.406553 
L 327.390405 -234.511665 
L 325.532104 -233.746516 
L 323.673803 -232.992191 
L 321.815503 -232.12634 
L 319.957202 -231.29199 
L 318.098901 -230.437341 
L 316.240601 -229.643073 
L 314.3823 -228.871251 
L 312.523999 -228.160295 
L 310.665699 -227.430732 
L 308.807398 -226.695656 
L 306.949097 -225.954017 
L 305.090797 -225.229578 
L 303.232496 -224.499976 
L 301.374195 -223.756373 
L 299.515895 -222.989489 
L 297.657594 -222.196252 
L 295.799293 -221.373389 
L 293.940993 -220.517426 
L 292.082692 -219.641454 
L 290.224391 -218.839652 
L 288.366091 -218.139978 
L 286.50779 -217.48478 
L 284.649489 -216.792203 
L 282.791189 -216.072088 
L 280.932888 -215.321852 
L 279.074587 -214.521453 
L 277.216287 -213.717609 
L 275.357986 -212.952074 
L 273.499685 -212.269445 
L 271.641385 -211.53004 
L 269.783084 -210.775823 
L 267.924783 -210.053861 
L 266.066483 -209.356923 
L 264.208182 -208.666634 
L 262.349881 -207.978798 
L 260.491581 -207.293629 
L 258.63328 -206.618289 
L 256.774979 -206.026636 
L 254.916679 -205.353502 
L 253.058378 -204.686603 
L 251.200077 -203.96168 
L 249.341777 -203.236781 
L 247.483476 -202.530468 
L 245.625175 -201.752264 
L 243.766875 -201.052623 
L 241.908574 -200.322268 
L 240.050273 -199.632247 
L 238.191973 -198.846996 
L 236.333672 -198.050158 
L 234.475371 -197.270349 
L 232.617071 -196.526072 
L 230.75877 -195.801993 
L 228.900469 -195.078329 
L 227.042169 -194.383678 
L 225.183868 -193.730931 
L 223.325567 -193.094011 
L 221.467267 -192.394578 
L 219.608966 -191.740329 
L 217.750665 -191.075922 
L 215.892365 -190.414255 
L 214.034064 -189.777634 
L 212.175763 -189.146768 
L 210.317463 -188.448709 
L 208.459162 -187.737309 
L 206.600861 -187.001584 
L 204.742561 -186.242643 
L 202.88426 -185.46154 
L 201.025959 -184.689453 
L 199.167659 -183.907093 
L 197.309358 -183.122603 
L 195.451057 -182.343823 
L 193.592757 -181.57165 
L 191.734456 -180.807036 
L 189.876155 -180.030875 
L 188.017855 -179.368634 
L 186.159554 -178.619134 
L 184.301253 -177.808317 
L 182.442953 -177.00707 
L 180.584652 -176.206025 
L 178.726351 -175.406071 
L 176.868051 -174.618702 
L 175.00975 -173.844427 
L 173.151449 -173.068103 
L 171.293149 -172.289731 
L 169.434848 -171.50931 
L 167.576547 -170.72684 
L 165.718247 -169.942322 
L 163.859946 -169.155755 
L 162.001645 -168.367139 
L 160.143345 -167.576475 
L 158.285044 -166.783762 
L 156.426743 -165.989001 
L 154.568443 -165.192191 
L 152.710142 -164.393332 
L 150.851841 -163.592425 
L 148.993541 -162.789468 
L 147.13524 -161.984464 
L 145.276939 -161.17741 
L 143.418639 -160.368308 
L 141.560338 -159.557158 
L 139.702037 -158.743958 
L 137.843737 -157.92871 
L 135.985436 -157.111414 
L 134.127135 -156.292068 
L 132.268835 -155.470674 
L 130.410534 -154.647232 
L 128.552233 -153.821741 
L 127.623083 -152.994201 
z
" style="stroke: #ff7f50; stroke-opacity: 0.2; stroke-width: 0.8"/>
    </defs>
    <g clip-path="url(#pe821c65605)">
     <use xlink:href="#m6a2e49da54" x="0" y="353.99952" style="fill: #ff7f50; fill-opacity: 0.2; stroke: #ff7f50; stroke-opacity: 0.2; stroke-width: 0.8"/>
    </g>
   </g>
   <g id="line2d_35">
    <defs>
     <path id="m674a8a13a6" d="M 0 2 
C 0.530406 2 1.03916 1.789267 1.414214 1.414214 
C 1.789267 1.03916 2 0.530406 2 0 
C 2 -0.530406 1.789267 -1.03916 1.414214 -1.414214 
C 1.03916 -1.789267 0.530406 -2 0 -2 
C -0.530406 -2 -1.03916 -1.789267 -1.414214 -1.414214 
C -1.789267 -1.03916 -2 -0.530406 -2 0 
C -2 0.530406 -1.789267 1.03916 -1.414214 1.414214 
C -1.03916 1.789267 -0.530406 2 0 2 
z
" style="stroke: #000000; stroke-opacity: 0.4"/>
    </defs>
    <g clip-path="url(#pe821c65605)">
     <use xlink:href="#m674a8a13a6" x="359.016476" y="141.619817" style="fill: #2a2eec; fill-opacity: 0.4; stroke: #000000; stroke-opacity: 0.4"/>
     <use xlink:href="#m674a8a13a6" x="284.201008" y="193.877649" style="fill: #2a2eec; fill-opacity: 0.4; stroke: #000000; stroke-opacity: 0.4"/>
     <use xlink:href="#m674a8a13a6" x="367.83442" y="143.275664" style="fill: #2a2eec; fill-opacity: 0.4; stroke: #000000; stroke-opacity: 0.4"/>
     <use xlink:href="#m674a8a13a6" x="402.840494" y="124.70862" style="fill: #2a2eec; fill-opacity: 0.4; stroke: #000000; stroke-opacity: 0.4"/>
     <use xlink:href="#m674a8a13a6" x="296.886834" y="178.420322" style="fill: #2a2eec; fill-opacity: 0.4; stroke: #000000; stroke-opacity: 0.4"/>
     <use xlink:href="#m674a8a13a6" x="147.702705" y="202.418773" style="fill: #2a2eec; fill-opacity: 0.4; stroke: #000000; stroke-opacity: 0.4"/>
     <use xlink:href="#m674a8a13a6" x="447.48389" y="77.118879" style="fill: #2a2eec; fill-opacity: 0.4; stroke: #000000; stroke-opacity: 0.4"/>
     <use xlink:href="#m674a8a13a6" x="417.641965" y="125.654424" style="fill: #2a2eec; fill-opacity: 0.4; stroke: #000000; stroke-opacity: 0.4"/>
     <use xlink:href="#m674a8a13a6" x="181.023927" y="222.556066" style="fill: #2a2eec; fill-opacity: 0.4; stroke: #000000; stroke-opacity: 0.4"/>
     <use xlink:href="#m674a8a13a6" x="377.861135" y="119.877004" style="fill: #2a2eec; fill-opacity: 0.4; stroke: #000000; stroke-opacity: 0.4"/>
     <use xlink:href="#m674a8a13a6" x="316.817372" y="186.678088" style="fill: #2a2eec; fill-opacity: 0.4; stroke: #000000; stroke-opacity: 0.4"/>
     <use xlink:href="#m674a8a13a6" x="190.813861" y="207.827679" style="fill: #2a2eec; fill-opacity: 0.4; stroke: #000000; stroke-opacity: 0.4"/>
     <use xlink:href="#m674a8a13a6" x="392.108383" y="144.632589" style="fill: #2a2eec; fill-opacity: 0.4; stroke: #000000; stroke-opacity: 0.4"/>
     <use xlink:href="#m674a8a13a6" x="324.515777" y="112.645946" style="fill: #2a2eec; fill-opacity: 0.4; stroke: #000000; stroke-opacity: 0.4"/>
     <use xlink:href="#m674a8a13a6" x="325.904782" y="150.178516" style="fill: #2a2eec; fill-opacity: 0.4; stroke: #000000; stroke-opacity: 0.4"/>
     <use xlink:href="#m674a8a13a6" x="393.317481" y="109.767754" style="fill: #2a2eec; fill-opacity: 0.4; stroke: #000000; stroke-opacity: 0.4"/>
     <use xlink:href="#m674a8a13a6" x="230.21903" y="183.619707" style="fill: #2a2eec; fill-opacity: 0.4; stroke: #000000; stroke-opacity: 0.4"/>
     <use xlink:href="#m674a8a13a6" x="421.30589" y="98.859863" style="fill: #2a2eec; fill-opacity: 0.4; stroke: #000000; stroke-opacity: 0.4"/>
     <use xlink:href="#m674a8a13a6" x="205.281453" y="207.531226" style="fill: #2a2eec; fill-opacity: 0.4; stroke: #000000; stroke-opacity: 0.4"/>
     <use xlink:href="#m674a8a13a6" x="355.117225" y="154.584147" style="fill: #2a2eec; fill-opacity: 0.4; stroke: #000000; stroke-opacity: 0.4"/>
     <use xlink:href="#m674a8a13a6" x="393.631352" y="134.032996" style="fill: #2a2eec; fill-opacity: 0.4; stroke: #000000; stroke-opacity: 0.4"/>
     <use xlink:href="#m674a8a13a6" x="290.925205" y="177.902339" style="fill: #2a2eec; fill-opacity: 0.4; stroke: #000000; stroke-opacity: 0.4"/>
     <use xlink:href="#m674a8a13a6" x="292.709806" y="207.823631" style="fill: #2a2eec; fill-opacity: 0.4; stroke: #000000; stroke-opacity: 0.4"/>
     <use xlink:href="#m674a8a13a6" x="237.49863" y="197.580641" style="fill: #2a2eec; fill-opacity: 0.4; stroke: #000000; stroke-opacity: 0.4"/>
     <use xlink:href="#m674a8a13a6" x="323.452662" y="180.0128" style="fill: #2a2eec; fill-opacity: 0.4; stroke: #000000; stroke-opacity: 0.4"/>
     <use xlink:href="#m674a8a13a6" x="215.343368" y="194.770238" style="fill: #2a2eec; fill-opacity: 0.4; stroke: #000000; stroke-opacity: 0.4"/>
     <use xlink:href="#m674a8a13a6" x="322.000827" y="156.253212" style="fill: #2a2eec; fill-opacity: 0.4; stroke: #000000; stroke-opacity: 0.4"/>
     <use xlink:href="#m674a8a13a6" x="308.867828" y="177.624248" style="fill: #2a2eec; fill-opacity: 0.4; stroke: #000000; stroke-opacity: 0.4"/>
     <use xlink:href="#m674a8a13a6" x="160.331384" y="245.464231" style="fill: #2a2eec; fill-opacity: 0.4; stroke: #000000; stroke-opacity: 0.4"/>
     <use xlink:href="#m674a8a13a6" x="330.769603" y="143.944956" style="fill: #2a2eec; fill-opacity: 0.4; stroke: #000000; stroke-opacity: 0.4"/>
     <use xlink:href="#m674a8a13a6" x="302.365929" y="166.693178" style="fill: #2a2eec; fill-opacity: 0.4; stroke: #000000; stroke-opacity: 0.4"/>
     <use xlink:href="#m674a8a13a6" x="253.042435" y="184.85112" style="fill: #2a2eec; fill-opacity: 0.4; stroke: #000000; stroke-opacity: 0.4"/>
     <use xlink:href="#m674a8a13a6" x="381.160977" y="133.167138" style="fill: #2a2eec; fill-opacity: 0.4; stroke: #000000; stroke-opacity: 0.4"/>
     <use xlink:href="#m674a8a13a6" x="374.069203" y="131.811776" style="fill: #2a2eec; fill-opacity: 0.4; stroke: #000000; stroke-opacity: 0.4"/>
     <use xlink:href="#m674a8a13a6" x="173.650664" y="207.107744" style="fill: #2a2eec; fill-opacity: 0.4; stroke: #000000; stroke-opacity: 0.4"/>
     <use xlink:href="#m674a8a13a6" x="442.451677" y="93.812834" style="fill: #2a2eec; fill-opacity: 0.4; stroke: #000000; stroke-opacity: 0.4"/>
     <use xlink:href="#m674a8a13a6" x="437.135825" y="81.760106" style="fill: #2a2eec; fill-opacity: 0.4; stroke: #000000; stroke-opacity: 0.4"/>
     <use xlink:href="#m674a8a13a6" x="496.495766" y="108.993299" style="fill: #2a2eec; fill-opacity: 0.4; stroke: #000000; stroke-opacity: 0.4"/>
     <use xlink:href="#m674a8a13a6" x="399.034205" y="110.632086" style="fill: #2a2eec; fill-opacity: 0.4; stroke: #000000; stroke-opacity: 0.4"/>
     <use xlink:href="#m674a8a13a6" x="370.439637" y="141.141046" style="fill: #2a2eec; fill-opacity: 0.4; stroke: #000000; stroke-opacity: 0.4"/>
     <use xlink:href="#m674a8a13a6" x="236.033391" y="194.880302" style="fill: #2a2eec; fill-opacity: 0.4; stroke: #000000; stroke-opacity: 0.4"/>
     <use xlink:href="#m674a8a13a6" x="236.938434" y="182.471284" style="fill: #2a2eec; fill-opacity: 0.4; stroke: #000000; stroke-opacity: 0.4"/>
     <use xlink:href="#m674a8a13a6" x="299.275806" y="195.0316" style="fill: #2a2eec; fill-opacity: 0.4; stroke: #000000; stroke-opacity: 0.4"/>
     <use xlink:href="#m674a8a13a6" x="268.128946" y="161.999731" style="fill: #2a2eec; fill-opacity: 0.4; stroke: #000000; stroke-opacity: 0.4"/>
     <use xlink:href="#m674a8a13a6" x="392.169633" y="131.957554" style="fill: #2a2eec; fill-opacity: 0.4; stroke: #000000; stroke-opacity: 0.4"/>
     <use xlink:href="#m674a8a13a6" x="236.546162" y="159.824099" style="fill: #2a2eec; fill-opacity: 0.4; stroke: #000000; stroke-opacity: 0.4"/>
     <use xlink:href="#m674a8a13a6" x="187.484277" y="220.288582" style="fill: #2a2eec; fill-opacity: 0.4; stroke: #000000; stroke-opacity: 0.4"/>
     <use xlink:href="#m674a8a13a6" x="325.476776" y="166.715904" style="fill: #2a2eec; fill-opacity: 0.4; stroke: #000000; stroke-opacity: 0.4"/>
     <use xlink:href="#m674a8a13a6" x="414.70661" y="125.625671" style="fill: #2a2eec; fill-opacity: 0.4; stroke: #000000; stroke-opacity: 0.4"/>
     <use xlink:href="#m674a8a13a6" x="281.164068" y="185.21371" style="fill: #2a2eec; fill-opacity: 0.4; stroke: #000000; stroke-opacity: 0.4"/>
     <use xlink:href="#m674a8a13a6" x="260.57565" y="214.033459" style="fill: #2a2eec; fill-opacity: 0.4; stroke: #000000; stroke-opacity: 0.4"/>
     <use xlink:href="#m674a8a13a6" x="324.716539" y="179.398053" style="fill: #2a2eec; fill-opacity: 0.4; stroke: #000000; stroke-opacity: 0.4"/>
     <use xlink:href="#m674a8a13a6" x="263.991268" y="185.945197" style="fill: #2a2eec; fill-opacity: 0.4; stroke: #000000; stroke-opacity: 0.4"/>
     <use xlink:href="#m674a8a13a6" x="279.309655" y="176.858378" style="fill: #2a2eec; fill-opacity: 0.4; stroke: #000000; stroke-opacity: 0.4"/>
     <use xlink:href="#m674a8a13a6" x="372.498339" y="168.595767" style="fill: #2a2eec; fill-opacity: 0.4; stroke: #000000; stroke-opacity: 0.4"/>
     <use xlink:href="#m674a8a13a6" x="324.931639" y="159.527829" style="fill: #2a2eec; fill-opacity: 0.4; stroke: #000000; stroke-opacity: 0.4"/>
     <use xlink:href="#m674a8a13a6" x="251.897955" y="166.689879" style="fill: #2a2eec; fill-opacity: 0.4; stroke: #000000; stroke-opacity: 0.4"/>
     <use xlink:href="#m674a8a13a6" x="388.429802" y="126.675374" style="fill: #2a2eec; fill-opacity: 0.4; stroke: #000000; stroke-opacity: 0.4"/>
     <use xlink:href="#m674a8a13a6" x="272.138004" y="174.69783" style="fill: #2a2eec; fill-opacity: 0.4; stroke: #000000; stroke-opacity: 0.4"/>
     <use xlink:href="#m674a8a13a6" x="327.629131" y="145.976863" style="fill: #2a2eec; fill-opacity: 0.4; stroke: #000000; stroke-opacity: 0.4"/>
     <use xlink:href="#m674a8a13a6" x="206.492171" y="186.765802" style="fill: #2a2eec; fill-opacity: 0.4; stroke: #000000; stroke-opacity: 0.4"/>
     <use xlink:href="#m674a8a13a6" x="242.751896" y="136.961652" style="fill: #2a2eec; fill-opacity: 0.4; stroke: #000000; stroke-opacity: 0.4"/>
     <use xlink:href="#m674a8a13a6" x="202.669579" y="219.086057" style="fill: #2a2eec; fill-opacity: 0.4; stroke: #000000; stroke-opacity: 0.4"/>
     <use xlink:href="#m674a8a13a6" x="271.364956" y="188.283155" style="fill: #2a2eec; fill-opacity: 0.4; stroke: #000000; stroke-opacity: 0.4"/>
     <use xlink:href="#m674a8a13a6" x="207.98506" y="169.465476" style="fill: #2a2eec; fill-opacity: 0.4; stroke: #000000; stroke-opacity: 0.4"/>
     <use xlink:href="#m674a8a13a6" x="126.693933" y="241.823626" style="fill: #2a2eec; fill-opacity: 0.4; stroke: #000000; stroke-opacity: 0.4"/>
     <use xlink:href="#m674a8a13a6" x="254.465698" y="189.360904" style="fill: #2a2eec; fill-opacity: 0.4; stroke: #000000; stroke-opacity: 0.4"/>
     <use xlink:href="#m674a8a13a6" x="240.034913" y="199.38442" style="fill: #2a2eec; fill-opacity: 0.4; stroke: #000000; stroke-opacity: 0.4"/>
     <use xlink:href="#m674a8a13a6" x="275.494599" y="203.764523" style="fill: #2a2eec; fill-opacity: 0.4; stroke: #000000; stroke-opacity: 0.4"/>
     <use xlink:href="#m674a8a13a6" x="405.016808" y="164.382916" style="fill: #2a2eec; fill-opacity: 0.4; stroke: #000000; stroke-opacity: 0.4"/>
     <use xlink:href="#m674a8a13a6" x="379.025608" y="131.683283" style="fill: #2a2eec; fill-opacity: 0.4; stroke: #000000; stroke-opacity: 0.4"/>
     <use xlink:href="#m674a8a13a6" x="254.243245" y="153.693142" style="fill: #2a2eec; fill-opacity: 0.4; stroke: #000000; stroke-opacity: 0.4"/>
     <use xlink:href="#m674a8a13a6" x="202.583761" y="205.213423" style="fill: #2a2eec; fill-opacity: 0.4; stroke: #000000; stroke-opacity: 0.4"/>
     <use xlink:href="#m674a8a13a6" x="236.338401" y="214.605689" style="fill: #2a2eec; fill-opacity: 0.4; stroke: #000000; stroke-opacity: 0.4"/>
     <use xlink:href="#m674a8a13a6" x="236.721214" y="177.081368" style="fill: #2a2eec; fill-opacity: 0.4; stroke: #000000; stroke-opacity: 0.4"/>
     <use xlink:href="#m674a8a13a6" x="407.236655" y="121.503009" style="fill: #2a2eec; fill-opacity: 0.4; stroke: #000000; stroke-opacity: 0.4"/>
     <use xlink:href="#m674a8a13a6" x="275.053983" y="222.35477" style="fill: #2a2eec; fill-opacity: 0.4; stroke: #000000; stroke-opacity: 0.4"/>
     <use xlink:href="#m674a8a13a6" x="371.911634" y="159.352393" style="fill: #2a2eec; fill-opacity: 0.4; stroke: #000000; stroke-opacity: 0.4"/>
     <use xlink:href="#m674a8a13a6" x="325.983938" y="118.280319" style="fill: #2a2eec; fill-opacity: 0.4; stroke: #000000; stroke-opacity: 0.4"/>
     <use xlink:href="#m674a8a13a6" x="200.905504" y="197.719802" style="fill: #2a2eec; fill-opacity: 0.4; stroke: #000000; stroke-opacity: 0.4"/>
     <use xlink:href="#m674a8a13a6" x="208.648519" y="203.690848" style="fill: #2a2eec; fill-opacity: 0.4; stroke: #000000; stroke-opacity: 0.4"/>
     <use xlink:href="#m674a8a13a6" x="274.097412" y="180.418503" style="fill: #2a2eec; fill-opacity: 0.4; stroke: #000000; stroke-opacity: 0.4"/>
     <use xlink:href="#m674a8a13a6" x="342.439837" y="137.467819" style="fill: #2a2eec; fill-opacity: 0.4; stroke: #000000; stroke-opacity: 0.4"/>
     <use xlink:href="#m674a8a13a6" x="286.462449" y="144.806379" style="fill: #2a2eec; fill-opacity: 0.4; stroke: #000000; stroke-opacity: 0.4"/>
     <use xlink:href="#m674a8a13a6" x="292.79295" y="147.363385" style="fill: #2a2eec; fill-opacity: 0.4; stroke: #000000; stroke-opacity: 0.4"/>
     <use xlink:href="#m674a8a13a6" x="265.462969" y="168.866644" style="fill: #2a2eec; fill-opacity: 0.4; stroke: #000000; stroke-opacity: 0.4"/>
     <use xlink:href="#m674a8a13a6" x="378.399344" y="116.460787" style="fill: #2a2eec; fill-opacity: 0.4; stroke: #000000; stroke-opacity: 0.4"/>
     <use xlink:href="#m674a8a13a6" x="296.323341" y="183.617548" style="fill: #2a2eec; fill-opacity: 0.4; stroke: #000000; stroke-opacity: 0.4"/>
     <use xlink:href="#m674a8a13a6" x="343.51265" y="151.164522" style="fill: #2a2eec; fill-opacity: 0.4; stroke: #000000; stroke-opacity: 0.4"/>
     <use xlink:href="#m674a8a13a6" x="189.823316" y="217.120214" style="fill: #2a2eec; fill-opacity: 0.4; stroke: #000000; stroke-opacity: 0.4"/>
     <use xlink:href="#m674a8a13a6" x="266.770831" y="191.822749" style="fill: #2a2eec; fill-opacity: 0.4; stroke: #000000; stroke-opacity: 0.4"/>
     <use xlink:href="#m674a8a13a6" x="270.898558" y="211.14349" style="fill: #2a2eec; fill-opacity: 0.4; stroke: #000000; stroke-opacity: 0.4"/>
     <use xlink:href="#m674a8a13a6" x="240.163616" y="218.861063" style="fill: #2a2eec; fill-opacity: 0.4; stroke: #000000; stroke-opacity: 0.4"/>
     <use xlink:href="#m674a8a13a6" x="309.993815" y="149.600198" style="fill: #2a2eec; fill-opacity: 0.4; stroke: #000000; stroke-opacity: 0.4"/>
     <use xlink:href="#m674a8a13a6" x="227.676301" y="227.135428" style="fill: #2a2eec; fill-opacity: 0.4; stroke: #000000; stroke-opacity: 0.4"/>
     <use xlink:href="#m674a8a13a6" x="261.766138" y="197.918765" style="fill: #2a2eec; fill-opacity: 0.4; stroke: #000000; stroke-opacity: 0.4"/>
     <use xlink:href="#m674a8a13a6" x="298.407127" y="197.44671" style="fill: #2a2eec; fill-opacity: 0.4; stroke: #000000; stroke-opacity: 0.4"/>
     <use xlink:href="#m674a8a13a6" x="274.371913" y="160.305658" style="fill: #2a2eec; fill-opacity: 0.4; stroke: #000000; stroke-opacity: 0.4"/>
     <use xlink:href="#m674a8a13a6" x="318.890158" y="141.872655" style="fill: #2a2eec; fill-opacity: 0.4; stroke: #000000; stroke-opacity: 0.4"/>
     <use xlink:href="#m674a8a13a6" x="311.874445" y="161.450145" style="fill: #2a2eec; fill-opacity: 0.4; stroke: #000000; stroke-opacity: 0.4"/>
    </g>
   </g>
   <g id="line2d_36">
    <path d="M 359.016476 143.337577 
L 284.201008 173.825898 
L 367.83442 139.744145 
L 402.840494 125.478694 
L 296.886834 168.656251 
L 147.702705 229.450813 
L 447.48389 107.285903 
L 417.641965 119.446893 
L 181.023927 215.871962 
L 377.861135 135.658122 
L 316.817372 160.534286 
L 190.813861 211.88243 
L 392.108383 129.852175 
L 324.515777 157.397082 
L 325.904782 156.831043 
L 393.317481 129.359451 
L 230.21903 195.824288 
L 421.30589 117.953794 
L 205.281453 205.98669 
L 355.117225 144.926575 
L 393.631352 129.231544 
L 290.925205 171.085696 
L 292.709806 170.358447 
L 237.49863 192.857752 
L 323.452662 157.830315 
L 215.343368 201.886323 
L 322.000827 158.421958 
L 308.867828 163.773834 
L 160.331384 224.304454 
L 330.769603 154.848562 
L 302.365929 166.423446 
L 253.042435 186.52344 
L 381.160977 134.313392 
L 374.069203 137.203386 
L 173.650664 218.876667 
L 442.451677 109.336598 
L 437.135825 111.50288 
L 496.495766 87.312897 
L 399.034205 127.029808 
L 370.439637 138.682484 
L 236.033391 193.454857 
L 236.938434 193.086039 
L 299.275806 167.682713 
L 268.128946 180.375482 
L 392.169633 129.827215 
L 236.546162 193.245896 
L 187.484277 213.239281 
L 325.476776 157.005461 
L 414.70661 120.64309 
L 281.164068 175.063492 
L 260.57565 183.453552 
L 324.716539 157.315268 
L 263.991268 182.061642 
L 279.309655 175.819191 
L 372.498339 137.843535 
L 324.931639 157.227612 
L 251.897955 186.989831 
L 388.429802 131.351247 
L 272.138004 178.741736 
L 327.629131 156.128347 
L 206.492171 205.493306 
L 242.751896 190.716975 
L 202.669579 207.051064 
L 271.364956 179.056764 
L 207.98506 204.884933 
L 126.693933 238.012173 
L 254.465698 185.943441 
L 240.034913 191.824182 
L 275.494599 177.373878 
L 405.016808 124.591816 
L 379.025608 135.183584 
L 254.243245 186.034094 
L 202.583761 207.086036 
L 236.338401 193.330561 
L 236.721214 193.17456 
L 407.236655 123.687199 
L 275.053983 177.553435 
L 371.911634 138.082625 
L 325.983938 156.798786 
L 200.905504 207.769949 
L 208.648519 204.614565 
L 274.097412 177.943251 
L 342.439837 150.092783 
L 286.462449 172.90433 
L 292.79295 170.324565 
L 265.462969 181.461904 
L 378.399344 135.438795 
L 296.323341 168.885882 
L 343.51265 149.655597 
L 189.823316 212.286091 
L 266.770831 180.928932 
L 270.898558 179.246827 
L 240.163616 191.771734 
L 309.993815 163.314978 
L 227.676301 196.860485 
L 261.766138 182.968413 
L 298.407127 168.036711 
L 274.371913 177.831388 
L 318.890158 159.689598 
L 311.874445 162.548596 
" clip-path="url(#pe821c65605)" style="fill: none; stroke: #000000; stroke-width: 0.2; stroke-linecap: round"/>
   </g>
   <g id="line2d_37">
    <path d="M 127.623083 246.451451 
L 128.552233 245.632435 
L 217.750665 206.203532 
L 232.617071 199.620784 
L 267.924783 184.167324 
L 284.649489 177.162156 
L 308.807398 167.374266 
L 323.673803 161.526584 
L 358.981516 148.098692 
L 409.155634 129.494585 
L 477.912759 104.655082 
L 496.495766 97.774871 
L 496.495766 97.774871 
" clip-path="url(#pe821c65605)" style="fill: none; stroke: #fa7c17; stroke-opacity: 0; stroke-width: 3; stroke-linecap: round"/>
   </g>
   <g id="line2d_38">
    <path d="M 127.623083 228.614301 
L 128.552233 227.954506 
L 167.576547 213.976511 
L 208.459162 199.094692 
L 232.617071 190.14123 
L 249.341777 183.814065 
L 277.216287 172.92748 
L 301.374195 163.257436 
L 318.098901 156.249872 
L 336.681908 148.350606 
L 364.556418 136.124435 
L 399.864131 120.437451 
L 420.305438 111.441755 
L 440.746746 102.372912 
L 463.046354 92.305492 
L 489.062563 80.311897 
L 496.495766 76.8379 
L 496.495766 76.8379 
" clip-path="url(#pe821c65605)" style="fill: none; stroke: #fa7c17; stroke-opacity: 0; stroke-width: 3; stroke-linecap: round"/>
   </g>
   <g id="line2d_39">
    <path d="M 127.623083 276.909638 
L 128.552233 275.995051 
L 141.560338 269.728585 
L 154.568443 263.699491 
L 167.576547 257.907769 
L 176.868051 253.916154 
L 219.608966 236.9904 
L 240.050273 227.664335 
L 251.200077 222.986408 
L 279.074587 211.86219 
L 282.791189 210.220562 
L 286.50779 208.74692 
L 292.082692 206.710163 
L 297.657594 204.173503 
L 303.232496 201.969364 
L 316.240601 196.963771 
L 321.815503 194.393997 
L 336.681908 188.649719 
L 345.973411 184.917936 
L 355.264915 181.307101 
L 381.281124 170.04498 
L 388.714327 167.297221 
L 398.00583 163.742242 
L 403.580732 161.666931 
L 409.155634 159.276462 
L 416.588837 155.878679 
L 422.163739 153.615951 
L 425.88034 152.089439 
L 442.605046 144.689135 
L 450.038249 141.680248 
L 463.046354 136.666434 
L 476.054458 131.882958 
L 489.062563 127.329821 
L 496.495766 124.831445 
L 496.495766 124.831445 
" clip-path="url(#pe821c65605)" style="fill: none; stroke: #fa7c17; stroke-opacity: 0; stroke-width: 3; stroke-linecap: round"/>
   </g>
   <g id="line2d_40">
    <path d="M 127.623083 201.005319 
L 128.552233 200.177779 
L 148.993541 191.210052 
L 169.434848 182.49021 
L 206.600861 166.997936 
L 212.175763 164.852752 
L 221.467267 161.604942 
L 236.333672 155.949362 
L 241.908574 153.677252 
L 254.916679 148.646018 
L 269.783084 143.223697 
L 286.50779 136.51474 
L 290.224391 135.159868 
L 293.940993 133.482094 
L 299.515895 131.010031 
L 306.949097 128.045503 
L 318.098901 123.562179 
L 325.532104 120.253004 
L 327.390405 119.487855 
L 331.107006 117.757384 
L 340.398509 113.821558 
L 347.831712 110.896488 
L 351.548313 109.566619 
L 357.123215 107.410991 
L 384.997725 95.423805 
L 396.147529 90.876355 
L 401.722431 88.824137 
L 407.297333 86.544584 
L 416.588837 82.547102 
L 422.163739 80.079956 
L 427.738641 77.738541 
L 431.455242 76.065332 
L 438.888445 72.980623 
L 450.038249 68.503125 
L 472.337857 59.202269 
L 494.637465 49.678176 
L 496.495766 48.874425 
L 496.495766 48.874425 
" clip-path="url(#pe821c65605)" style="fill: none; stroke: #fa7c17; stroke-opacity: 0; stroke-width: 3; stroke-linecap: round"/>
   </g>
   <g id="patch_3">
    <path d="M 61.36 314.19952 
L 61.36 24.1275 
" style="fill: none"/>
   </g>
   <g id="patch_4">
    <path d="M 61.36 314.19952 
L 516.09952 314.19952 
" style="fill: none"/>
   </g>
   <g id="text_20">
    <!-- Posterior predictive checks -->
    <g style="fill: #262626" transform="translate(61.36 18.1275)scale(0.16 -0.16)">
     <defs>
      <path id="STIXGeneral-Regular-73" d="M 998 1926 
L 1664 1523 
Q 1984 1331 2105 1164 
Q 2227 998 2227 736 
Q 2227 416 1961 176 
Q 1696 -64 1331 -64 
Q 1030 -64 864 -6 
Q 691 51 570 51 
Q 461 51 416 -26 
L 333 -26 
L 333 979 
L 435 979 
Q 538 512 730 294 
Q 922 77 1248 77 
Q 1485 77 1632 211 
Q 1779 346 1779 550 
Q 1779 845 1440 1030 
L 1094 1222 
Q 326 1651 326 2150 
Q 326 2522 566 2730 
Q 806 2938 1210 2938 
Q 1491 2938 1638 2867 
Q 1754 2816 1818 2816 
Q 1862 2816 1920 2880 
L 1990 2880 
L 2022 2010 
L 1926 2010 
Q 1818 2445 1654 2621 
Q 1491 2797 1203 2797 
Q 986 2797 854 2688 
Q 723 2579 723 2362 
Q 723 2253 796 2128 
Q 870 2003 998 1926 
z
" transform="scale(0.015625)"/>
      <path id="STIXGeneral-Regular-70" d="M 1018 2931 
L 1018 2438 
Q 1421 2944 1939 2944 
Q 2406 2944 2707 2560 
Q 3008 2176 3008 1581 
Q 3008 883 2621 409 
Q 2234 -64 1664 -64 
Q 1466 -64 1328 -6 
Q 1190 51 1018 211 
L 1018 -794 
Q 1018 -1094 1120 -1180 
Q 1222 -1267 1581 -1274 
L 1581 -1389 
L 32 -1389 
L 32 -1280 
Q 314 -1254 397 -1171 
Q 480 -1088 480 -838 
L 480 2157 
Q 480 2381 429 2451 
Q 378 2522 218 2522 
Q 115 2522 58 2515 
L 58 2618 
Q 506 2752 979 2944 
L 1018 2931 
z
M 1018 2138 
L 1018 563 
Q 1018 422 1238 281 
Q 1459 141 1683 141 
Q 2029 141 2243 467 
Q 2458 794 2458 1325 
Q 2458 1888 2243 2224 
Q 2029 2560 1670 2560 
Q 1446 2560 1232 2419 
Q 1018 2278 1018 2138 
z
" transform="scale(0.015625)"/>
      <path id="STIXGeneral-Regular-76" d="M 3053 2880 
L 3053 2784 
Q 2906 2771 2835 2688 
Q 2765 2605 2637 2285 
L 1818 230 
Q 1690 -90 1638 -90 
Q 1587 -90 1523 77 
Q 1510 96 1497 141 
Q 1485 186 1472 211 
L 704 2048 
Q 499 2534 403 2652 
Q 307 2771 122 2784 
L 122 2880 
L 1376 2880 
L 1376 2784 
Q 1210 2771 1146 2732 
Q 1082 2694 1082 2611 
Q 1082 2509 1139 2368 
L 1792 730 
L 2426 2387 
Q 2464 2483 2464 2579 
Q 2464 2758 2163 2784 
L 2163 2880 
L 3053 2880 
z
" transform="scale(0.015625)"/>
      <path id="STIXGeneral-Regular-68" d="M 3117 0 
L 1760 0 
L 1760 96 
Q 2042 128 2118 224 
Q 2195 320 2195 653 
L 2195 1920 
Q 2195 2598 1722 2598 
Q 1530 2598 1370 2508 
Q 1210 2419 1005 2195 
L 1005 653 
Q 1005 320 1081 224 
Q 1158 128 1440 96 
L 1440 0 
L 58 0 
L 58 96 
Q 333 134 400 224 
Q 467 314 467 653 
L 467 3667 
Q 467 3872 406 3933 
Q 346 3994 141 3994 
Q 83 3994 64 3987 
L 64 4090 
L 237 4141 
Q 730 4288 973 4371 
L 1005 4352 
L 1005 2406 
Q 1229 2694 1446 2819 
Q 1664 2944 1946 2944 
Q 2733 2944 2733 1926 
L 2733 653 
Q 2733 320 2793 233 
Q 2854 147 3117 96 
L 3117 0 
z
" transform="scale(0.015625)"/>
      <path id="STIXGeneral-Regular-6b" d="M 3232 0 
L 1837 0 
L 1837 96 
L 1958 96 
Q 2093 96 2093 192 
Q 2093 250 2022 339 
L 1062 1606 
L 1062 429 
Q 1062 262 1142 185 
Q 1222 109 1414 102 
L 1542 96 
L 1542 0 
L 45 0 
L 45 96 
Q 390 154 457 214 
Q 525 275 525 525 
L 525 3610 
Q 525 3840 467 3920 
Q 410 4000 250 4000 
Q 211 4000 45 3987 
L 45 4090 
L 237 4141 
Q 621 4243 1037 4371 
L 1062 4358 
L 1062 1670 
L 1939 2451 
Q 2086 2586 2086 2675 
Q 2086 2739 2019 2761 
Q 1952 2784 1766 2790 
L 1766 2880 
L 3072 2880 
L 3072 2784 
Q 2752 2784 2505 2646 
Q 2259 2509 1690 1978 
L 1504 1805 
L 2483 563 
Q 2829 122 3232 96 
L 3232 0 
z
" transform="scale(0.015625)"/>
     </defs>
     <use xlink:href="#STIXGeneral-Regular-50"/>
     <use xlink:href="#STIXGeneral-Regular-6f" x="55.699997"/>
     <use xlink:href="#STIXGeneral-Regular-73" x="105.699982"/>
     <use xlink:href="#STIXGeneral-Regular-74" x="144.599976"/>
     <use xlink:href="#STIXGeneral-Regular-65" x="172.399963"/>
     <use xlink:href="#STIXGeneral-Regular-72" x="216.799957"/>
     <use xlink:href="#STIXGeneral-Regular-69" x="250.099945"/>
     <use xlink:href="#STIXGeneral-Regular-6f" x="277.899933"/>
     <use xlink:href="#STIXGeneral-Regular-72" x="327.899918"/>
     <use xlink:href="#STIXGeneral-Regular-20" x="361.199905"/>
     <use xlink:href="#STIXGeneral-Regular-70" x="386.19989"/>
     <use xlink:href="#STIXGeneral-Regular-72" x="436.199875"/>
     <use xlink:href="#STIXGeneral-Regular-65" x="469.499863"/>
     <use xlink:href="#STIXGeneral-Regular-64" x="513.899857"/>
     <use xlink:href="#STIXGeneral-Regular-69" x="563.899841"/>
     <use xlink:href="#STIXGeneral-Regular-63" x="591.699829"/>
     <use xlink:href="#STIXGeneral-Regular-74" x="636.099823"/>
     <use xlink:href="#STIXGeneral-Regular-69" x="663.899811"/>
     <use xlink:href="#STIXGeneral-Regular-76" x="691.699799"/>
     <use xlink:href="#STIXGeneral-Regular-65" x="741.699783"/>
     <use xlink:href="#STIXGeneral-Regular-20" x="786.099777"/>
     <use xlink:href="#STIXGeneral-Regular-63" x="811.099762"/>
     <use xlink:href="#STIXGeneral-Regular-68" x="855.499756"/>
     <use xlink:href="#STIXGeneral-Regular-65" x="905.499741"/>
     <use xlink:href="#STIXGeneral-Regular-63" x="949.899734"/>
     <use xlink:href="#STIXGeneral-Regular-6b" x="994.299728"/>
     <use xlink:href="#STIXGeneral-Regular-73" x="1044.299713"/>
    </g>
   </g>
   <g id="legend_1">
    <g id="line2d_41">
     <g>
      <use xlink:href="#m674a8a13a6" x="78.36" y="34.6275" style="fill: #2a2eec; fill-opacity: 0.4; stroke: #000000; stroke-opacity: 0.4"/>
     </g>
    </g>
    <g id="text_21">
     <!-- Data -->
     <g style="fill: #262626" transform="translate(96.36 38.1275)scale(0.1 -0.1)">
      <defs>
       <path id="STIXGeneral-Regular-44" d="M 102 4237 
L 1830 4237 
Q 3078 4237 3750 3654 
Q 4384 3110 4384 2138 
Q 4384 966 3514 410 
Q 2880 0 1901 0 
L 102 0 
L 102 122 
Q 474 147 570 252 
Q 666 358 666 736 
L 666 3520 
Q 666 3891 570 3990 
Q 474 4090 102 4115 
L 102 4237 
z
M 1318 3731 
L 1318 538 
Q 1318 365 1379 301 
Q 1440 237 1626 237 
Q 2125 237 2432 307 
Q 2739 378 3021 570 
Q 3686 1018 3686 2099 
Q 3686 3027 3078 3558 
Q 2803 3802 2476 3901 
Q 2150 4000 1658 4000 
Q 1472 4000 1395 3942 
Q 1318 3885 1318 3731 
z
" transform="scale(0.015625)"/>
       <path id="STIXGeneral-Regular-61" d="M 2829 422 
L 2829 243 
Q 2586 -64 2253 -64 
Q 1888 -64 1843 403 
L 1837 403 
Q 1427 -64 909 -64 
Q 608 -64 422 112 
Q 237 288 237 602 
Q 237 1050 685 1350 
Q 992 1555 1837 1869 
L 1837 2214 
Q 1837 2502 1699 2646 
Q 1562 2790 1338 2790 
Q 1146 2790 1018 2697 
Q 890 2605 890 2477 
Q 890 2419 909 2348 
Q 928 2278 928 2208 
Q 928 2112 841 2029 
Q 755 1946 634 1946 
Q 525 1946 441 2029 
Q 358 2112 358 2240 
Q 358 2547 685 2752 
Q 986 2944 1421 2944 
Q 1939 2944 2176 2656 
Q 2291 2522 2323 2384 
Q 2355 2246 2355 1946 
L 2355 723 
Q 2355 301 2554 301 
Q 2682 301 2829 422 
z
M 1837 813 
L 1837 1715 
Q 1248 1510 1018 1293 
Q 800 1094 800 800 
Q 800 557 921 432 
Q 1043 307 1242 307 
Q 1453 307 1613 410 
Q 1747 506 1792 589 
Q 1837 672 1837 813 
z
" transform="scale(0.015625)"/>
      </defs>
      <use xlink:href="#STIXGeneral-Regular-44"/>
      <use xlink:href="#STIXGeneral-Regular-61" x="72.199982"/>
      <use xlink:href="#STIXGeneral-Regular-74" x="116.599976"/>
      <use xlink:href="#STIXGeneral-Regular-61" x="144.399963"/>
     </g>
    </g>
    <g id="line2d_42">
     <path d="M 68.36 47.797812 
L 78.36 47.797812 
L 88.36 47.797812 
" style="fill: none; stroke: #000000; stroke-width: 0.2; stroke-linecap: round"/>
    </g>
    <g id="text_22">
     <!-- Mean outcomes -->
     <g style="fill: #262626" transform="translate(96.36 51.297812)scale(0.1 -0.1)">
      <defs>
       <path id="STIXGeneral-Regular-4d" d="M 5530 0 
L 3738 0 
L 3738 122 
Q 4115 147 4214 265 
Q 4314 384 4314 787 
L 4314 3661 
L 2682 0 
L 2592 0 
L 979 3514 
L 979 966 
Q 979 448 1088 294 
Q 1197 141 1574 122 
L 1574 0 
L 77 0 
L 77 122 
Q 358 141 480 205 
Q 602 269 650 432 
Q 698 595 698 966 
L 698 3514 
Q 698 3878 589 3984 
Q 480 4090 90 4115 
L 90 4237 
L 1357 4237 
L 2835 1024 
L 4250 4237 
L 5523 4237 
L 5523 4115 
Q 5178 4109 5072 3993 
Q 4966 3878 4966 3520 
L 4966 717 
Q 4966 378 5072 262 
Q 5178 147 5530 122 
L 5530 0 
z
" transform="scale(0.015625)"/>
       <path id="STIXGeneral-Regular-6e" d="M 3104 0 
L 1773 0 
L 1779 96 
Q 2016 115 2096 233 
Q 2176 352 2176 672 
L 2176 1946 
Q 2176 2592 1709 2592 
Q 1549 2592 1408 2515 
Q 1267 2438 1050 2227 
L 1050 461 
Q 1050 269 1136 192 
Q 1222 115 1466 96 
L 1466 0 
L 115 0 
L 115 96 
Q 358 115 435 214 
Q 512 314 512 602 
L 512 2157 
Q 512 2394 467 2483 
Q 422 2573 288 2573 
Q 160 2573 102 2547 
L 102 2656 
Q 550 2784 979 2944 
L 1030 2925 
L 1030 2426 
L 1037 2426 
Q 1491 2944 1958 2944 
Q 2323 2944 2518 2688 
Q 2714 2432 2714 1958 
L 2714 544 
Q 2714 288 2790 205 
Q 2867 122 3104 96 
L 3104 0 
z
" transform="scale(0.015625)"/>
      </defs>
      <use xlink:href="#STIXGeneral-Regular-4d"/>
      <use xlink:href="#STIXGeneral-Regular-65" x="88.899994"/>
      <use xlink:href="#STIXGeneral-Regular-61" x="133.299988"/>
      <use xlink:href="#STIXGeneral-Regular-6e" x="177.699982"/>
      <use xlink:href="#STIXGeneral-Regular-20" x="227.699966"/>
      <use xlink:href="#STIXGeneral-Regular-6f" x="252.699951"/>
      <use xlink:href="#STIXGeneral-Regular-75" x="302.699936"/>
      <use xlink:href="#STIXGeneral-Regular-74" x="352.699921"/>
      <use xlink:href="#STIXGeneral-Regular-63" x="380.499908"/>
      <use xlink:href="#STIXGeneral-Regular-6f" x="424.899902"/>
      <use xlink:href="#STIXGeneral-Regular-6d" x="474.899887"/>
      <use xlink:href="#STIXGeneral-Regular-65" x="552.699875"/>
      <use xlink:href="#STIXGeneral-Regular-73" x="597.099869"/>
     </g>
    </g>
    <g id="patch_5">
     <path d="M 174.963125 38.1275 
L 194.963125 38.1275 
L 194.963125 31.1275 
L 174.963125 31.1275 
z
" style="fill: #da70d6; fill-opacity: 0.5; stroke: #da70d6; stroke-opacity: 0.5; stroke-width: 0.8; stroke-linejoin: miter"/>
    </g>
    <g id="text_23">
     <!-- Mean Outcome 94% HPD -->
     <g style="fill: #262626" transform="translate(202.963125 38.1275)scale(0.1 -0.1)">
      <defs>
       <path id="STIXGeneral-Regular-39" d="M 378 -141 
L 358 -13 
Q 1094 115 1603 608 
Q 2112 1101 2304 1882 
Q 1933 1517 1344 1517 
Q 826 1517 509 1875 
Q 192 2234 192 2816 
Q 192 3462 573 3894 
Q 954 4326 1523 4326 
Q 2131 4326 2528 3840 
Q 2938 3328 2938 2522 
Q 2938 1958 2742 1462 
Q 2547 966 2170 621 
Q 1773 262 1395 105 
Q 1018 -51 378 -141 
z
M 2317 2272 
L 2317 2522 
Q 2317 4147 1472 4147 
Q 1171 4147 1005 3930 
Q 909 3802 845 3546 
Q 781 3290 781 3034 
Q 781 2464 995 2128 
Q 1210 1792 1568 1792 
Q 1824 1792 2070 1917 
Q 2317 2042 2317 2272 
z
" transform="scale(0.015625)"/>
       <path id="STIXGeneral-Regular-34" d="M 3027 1069 
L 2368 1069 
L 2368 0 
L 1869 0 
L 1869 1069 
L 77 1069 
L 77 1478 
L 2086 4326 
L 2368 4326 
L 2368 1478 
L 3027 1478 
L 3027 1069 
z
M 1869 1478 
L 1869 3674 
L 333 1478 
L 1869 1478 
z
" transform="scale(0.015625)"/>
       <path id="STIXGeneral-Regular-25" d="M 4390 1363 
Q 4390 781 4070 329 
Q 3750 -122 3341 -122 
Q 3014 -122 2790 134 
Q 2566 390 2566 762 
Q 2566 1274 2940 1693 
Q 3315 2112 3776 2112 
Q 4070 2112 4230 1917 
Q 4390 1722 4390 1363 
z
M 4243 1376 
Q 4243 1626 4131 1779 
Q 4019 1933 3840 1933 
Q 3654 1933 3526 1786 
Q 3315 1562 3171 1187 
Q 3027 813 3027 486 
Q 3027 301 3129 176 
Q 3232 51 3386 51 
Q 3718 51 3980 457 
Q 4243 864 4243 1376 
z
M 3974 4518 
L 1222 -115 
L 922 -115 
L 3443 4096 
Q 3264 3891 3094 3811 
Q 2925 3731 2669 3731 
Q 2445 3731 2182 3821 
Q 2208 3674 2208 3539 
Q 2208 3206 2067 2873 
Q 1926 2541 1696 2323 
Q 1453 2086 1146 2086 
Q 826 2086 608 2339 
Q 390 2592 390 2963 
Q 390 3507 761 3916 
Q 1133 4326 1626 4326 
Q 1792 4326 2010 4147 
Q 2310 3898 2624 3898 
Q 2918 3898 3084 3994 
Q 3251 4090 3693 4518 
L 3974 4518 
z
M 2054 3642 
Q 2054 3782 2025 3833 
Q 1997 3885 1894 3936 
Q 1747 4006 1613 4154 
Q 1414 4058 1331 3984 
Q 1248 3910 1152 3750 
Q 845 3264 845 2707 
Q 845 2509 944 2384 
Q 1043 2259 1210 2259 
Q 1549 2259 1801 2675 
Q 2054 3091 2054 3642 
z
" transform="scale(0.015625)"/>
       <path id="STIXGeneral-Regular-48" d="M 4499 0 
L 2714 0 
L 2714 122 
Q 3085 147 3181 265 
Q 3277 384 3277 794 
L 3277 2016 
L 1338 2016 
L 1338 723 
Q 1338 371 1440 256 
Q 1542 141 1894 122 
L 1901 0 
L 115 0 
L 115 122 
Q 493 147 589 259 
Q 685 371 685 781 
L 685 3507 
Q 685 3878 585 3980 
Q 486 4083 115 4115 
L 115 4237 
L 1907 4237 
L 1907 4115 
Q 1549 4083 1443 3977 
Q 1338 3872 1338 3507 
L 1338 2298 
L 3277 2298 
L 3277 3507 
Q 3277 3878 3177 3980 
Q 3078 4083 2707 4115 
L 2707 4237 
L 4499 4237 
L 4499 4115 
Q 4141 4083 4035 3977 
Q 3930 3872 3930 3507 
L 3930 710 
Q 3930 371 4035 259 
Q 4141 147 4499 122 
L 4499 0 
z
" transform="scale(0.015625)"/>
      </defs>
      <use xlink:href="#STIXGeneral-Regular-4d"/>
      <use xlink:href="#STIXGeneral-Regular-65" x="88.899994"/>
      <use xlink:href="#STIXGeneral-Regular-61" x="133.299988"/>
      <use xlink:href="#STIXGeneral-Regular-6e" x="177.699982"/>
      <use xlink:href="#STIXGeneral-Regular-20" x="227.699966"/>
      <use xlink:href="#STIXGeneral-Regular-4f" x="252.699951"/>
      <use xlink:href="#STIXGeneral-Regular-75" x="324.899933"/>
      <use xlink:href="#STIXGeneral-Regular-74" x="374.899918"/>
      <use xlink:href="#STIXGeneral-Regular-63" x="402.699905"/>
      <use xlink:href="#STIXGeneral-Regular-6f" x="447.099899"/>
      <use xlink:href="#STIXGeneral-Regular-6d" x="497.099884"/>
      <use xlink:href="#STIXGeneral-Regular-65" x="574.899872"/>
      <use xlink:href="#STIXGeneral-Regular-20" x="619.299866"/>
      <use xlink:href="#STIXGeneral-Regular-39" x="644.29985"/>
      <use xlink:href="#STIXGeneral-Regular-34" x="694.299835"/>
      <use xlink:href="#STIXGeneral-Regular-25" x="744.29982"/>
      <use xlink:href="#STIXGeneral-Regular-20" x="818.999802"/>
      <use xlink:href="#STIXGeneral-Regular-48" x="843.999786"/>
      <use xlink:href="#STIXGeneral-Regular-50" x="916.199768"/>
      <use xlink:href="#STIXGeneral-Regular-44" x="971.899765"/>
     </g>
    </g>
    <g id="patch_6">
     <path d="M 174.963125 51.297812 
L 194.963125 51.297812 
L 194.963125 44.297812 
L 174.963125 44.297812 
z
" style="fill: #ff7f50; fill-opacity: 0.2; stroke: #ff7f50; stroke-opacity: 0.2; stroke-width: 0.8; stroke-linejoin: miter"/>
    </g>
    <g id="text_24">
     <!-- Outcome 94% HPD -->
     <g style="fill: #262626" transform="translate(202.963125 51.297812)scale(0.1 -0.1)">
      <use xlink:href="#STIXGeneral-Regular-4f"/>
      <use xlink:href="#STIXGeneral-Regular-75" x="72.199982"/>
      <use xlink:href="#STIXGeneral-Regular-74" x="122.199966"/>
      <use xlink:href="#STIXGeneral-Regular-63" x="149.999954"/>
      <use xlink:href="#STIXGeneral-Regular-6f" x="194.399948"/>
      <use xlink:href="#STIXGeneral-Regular-6d" x="244.399933"/>
      <use xlink:href="#STIXGeneral-Regular-65" x="322.199921"/>
      <use xlink:href="#STIXGeneral-Regular-20" x="366.599915"/>
      <use xlink:href="#STIXGeneral-Regular-39" x="391.599899"/>
      <use xlink:href="#STIXGeneral-Regular-34" x="441.599884"/>
      <use xlink:href="#STIXGeneral-Regular-25" x="491.599869"/>
      <use xlink:href="#STIXGeneral-Regular-20" x="566.29985"/>
      <use xlink:href="#STIXGeneral-Regular-48" x="591.299835"/>
      <use xlink:href="#STIXGeneral-Regular-50" x="663.499817"/>
      <use xlink:href="#STIXGeneral-Regular-44" x="719.199814"/>
     </g>
    </g>
   </g>
  </g>
 </g>
 <defs>
  <clipPath id="pe821c65605">
   <rect x="61.36" y="24.1275" width="454.73952" height="290.07202"/>
  </clipPath>
 </defs>
</svg>
