<?xml version="1.0" encoding="utf-8" standalone="no"?>
<!DOCTYPE svg PUBLIC "-//W3C//DTD SVG 1.1//EN"
  "http://www.w3.org/Graphics/SVG/1.1/DTD/svg11.dtd">
<svg xmlns:xlink="http://www.w3.org/1999/xlink" width="536.769063pt" height="293.936406pt" viewBox="0 0 536.769063 293.936406" xmlns="http://www.w3.org/2000/svg" version="1.1">
 <metadata>
  <rdf:RDF xmlns:dc="http://purl.org/dc/elements/1.1/" xmlns:cc="http://creativecommons.org/ns#" xmlns:rdf="http://www.w3.org/1999/02/22-rdf-syntax-ns#">
   <cc:Work>
    <dc:type rdf:resource="http://purl.org/dc/dcmitype/StillImage"/>
    <dc:date>2022-11-02T23:48:53.827117</dc:date>
    <dc:format>image/svg+xml</dc:format>
    <dc:creator>
     <cc:Agent>
      <dc:title>Matplotlib v3.6.0, https://matplotlib.org/</dc:title>
     </cc:Agent>
    </dc:creator>
   </cc:Work>
  </rdf:RDF>
 </metadata>
 <defs>
  <style type="text/css">*{stroke-linejoin: round; stroke-linecap: butt}</style>
 </defs>
 <g id="figure_1">
  <g id="patch_1">
   <path d="M 0 293.936406 
L 536.769063 293.936406 
L 536.769063 0 
L 0 0 
z
" style="fill: #ffffff"/>
  </g>
  <g id="axes_1">
   <g id="patch_2">
    <path d="M 63.6 247.936406 
L 510 247.936406 
L 510 26.176406 
L 63.6 26.176406 
z
" style="fill: #ffffff"/>
   </g>
   <g id="PathCollection_1">
    <path d="M 83.890909 179.653698 
C 84.421315 179.653698 84.930069 179.442965 85.305123 179.067912 
C 85.680176 178.692858 85.890909 178.184104 85.890909 177.653698 
C 85.890909 177.123292 85.680176 176.614538 85.305123 176.239484 
C 84.930069 175.864431 84.421315 175.653698 83.890909 175.653698 
C 83.360503 175.653698 82.851749 175.864431 82.476696 176.239484 
C 82.101642 176.614538 81.890909 177.123292 81.890909 177.653698 
C 81.890909 178.184104 82.101642 178.692858 82.476696 179.067912 
C 82.851749 179.442965 83.360503 179.653698 83.890909 179.653698 
z
" clip-path="url(#p9064ee0a81)" style="fill: #4c72b0; fill-opacity: 0.2; stroke: #4c72b0; stroke-width: 0.75"/>
    <path d="M 85.667121 167.804438 
C 86.197528 167.804438 86.706281 167.593705 87.081335 167.218651 
C 87.456389 166.843597 87.667121 166.334844 87.667121 165.804438 
C 87.667121 165.274031 87.456389 164.765278 87.081335 164.390224 
C 86.706281 164.01517 86.197528 163.804438 85.667121 163.804438 
C 85.136715 163.804438 84.627962 164.01517 84.252908 164.390224 
C 83.877854 164.765278 83.667121 165.274031 83.667121 165.804438 
C 83.667121 166.334844 83.877854 166.843597 84.252908 167.218651 
C 84.627962 167.593705 85.136715 167.804438 85.667121 167.804438 
z
" clip-path="url(#p9064ee0a81)" style="fill: #4c72b0; fill-opacity: 0.2; stroke: #4c72b0; stroke-width: 0.75"/>
    <path d="M 87.674549 153.788147 
C 88.204955 153.788147 88.713709 153.577414 89.088763 153.20236 
C 89.463817 152.827306 89.674549 152.318553 89.674549 151.788147 
C 89.674549 151.257741 89.463817 150.748987 89.088763 150.373933 
C 88.713709 149.998879 88.204955 149.788147 87.674549 149.788147 
C 87.144143 149.788147 86.63539 149.998879 86.260336 150.373933 
C 85.885282 150.748987 85.674549 151.257741 85.674549 151.788147 
C 85.674549 152.318553 85.885282 152.827306 86.260336 153.20236 
C 86.63539 153.577414 87.144143 153.788147 87.674549 153.788147 
z
" clip-path="url(#p9064ee0a81)" style="fill: #4c72b0; fill-opacity: 0.2; stroke: #4c72b0; stroke-width: 0.75"/>
    <path d="M 89.798336 159.951441 
C 90.328743 159.951441 90.837496 159.740709 91.21255 159.365655 
C 91.587604 158.990601 91.798336 158.481847 91.798336 157.951441 
C 91.798336 157.421035 91.587604 156.912282 91.21255 156.537228 
C 90.837496 156.162174 90.328743 155.951441 89.798336 155.951441 
C 89.26793 155.951441 88.759177 156.162174 88.384123 156.537228 
C 88.009069 156.912282 87.798336 157.421035 87.798336 157.951441 
C 87.798336 158.481847 88.009069 158.990601 88.384123 159.365655 
C 88.759177 159.740709 89.26793 159.951441 89.798336 159.951441 
z
" clip-path="url(#p9064ee0a81)" style="fill: #4c72b0; fill-opacity: 0.2; stroke: #4c72b0; stroke-width: 0.75"/>
    <path d="M 91.954786 155.509824 
C 92.485192 155.509824 92.993945 155.299091 93.368999 154.924037 
C 93.744053 154.548984 93.954786 154.04023 93.954786 153.509824 
C 93.954786 152.979418 93.744053 152.470664 93.368999 152.09561 
C 92.993945 151.720556 92.485192 151.509824 91.954786 151.509824 
C 91.424379 151.509824 90.915626 151.720556 90.540572 152.09561 
C 90.165518 152.470664 89.954786 152.979418 89.954786 153.509824 
C 89.954786 154.04023 90.165518 154.548984 90.540572 154.924037 
C 90.915626 155.299091 91.424379 155.509824 91.954786 155.509824 
z
" clip-path="url(#p9064ee0a81)" style="fill: #4c72b0; fill-opacity: 0.2; stroke: #4c72b0; stroke-width: 0.75"/>
    <path d="M 94.098609 149.378227 
C 94.629015 149.378227 95.137769 149.167494 95.512822 148.79244 
C 95.887876 148.417387 96.098609 147.908633 96.098609 147.378227 
C 96.098609 146.847821 95.887876 146.339067 95.512822 145.964013 
C 95.137769 145.58896 94.629015 145.378227 94.098609 145.378227 
C 93.568203 145.378227 93.059449 145.58896 92.684395 145.964013 
C 92.309341 146.339067 92.098609 146.847821 92.098609 147.378227 
C 92.098609 147.908633 92.309341 148.417387 92.684395 148.79244 
C 93.059449 149.167494 93.568203 149.378227 94.098609 149.378227 
z
" clip-path="url(#p9064ee0a81)" style="fill: #4c72b0; fill-opacity: 0.2; stroke: #4c72b0; stroke-width: 0.75"/>
    <path d="M 96.503611 144.100268 
C 97.034018 144.100268 97.542771 143.889535 97.917825 143.514481 
C 98.292879 143.139427 98.503611 142.630674 98.503611 142.100268 
C 98.503611 141.569862 98.292879 141.061108 97.917825 140.686054 
C 97.542771 140.311 97.034018 140.100268 96.503611 140.100268 
C 95.973205 140.100268 95.464452 140.311 95.089398 140.686054 
C 94.714344 141.061108 94.503611 141.569862 94.503611 142.100268 
C 94.503611 142.630674 94.714344 143.139427 95.089398 143.514481 
C 95.464452 143.889535 95.973205 144.100268 96.503611 144.100268 
z
" clip-path="url(#p9064ee0a81)" style="fill: #4c72b0; fill-opacity: 0.2; stroke: #4c72b0; stroke-width: 0.75"/>
    <path d="M 99.292126 140.678911 
C 99.822532 140.678911 100.331286 140.468178 100.70634 140.093125 
C 101.081393 139.718071 101.292126 139.209317 101.292126 138.678911 
C 101.292126 138.148505 101.081393 137.639751 100.70634 137.264697 
C 100.331286 136.889644 99.822532 136.678911 99.292126 136.678911 
C 98.76172 136.678911 98.252966 136.889644 97.877913 137.264697 
C 97.502859 137.639751 97.292126 138.148505 97.292126 138.678911 
C 97.292126 139.209317 97.502859 139.718071 97.877913 140.093125 
C 98.252966 140.468178 98.76172 140.678911 99.292126 140.678911 
z
" clip-path="url(#p9064ee0a81)" style="fill: #4c72b0; fill-opacity: 0.2; stroke: #4c72b0; stroke-width: 0.75"/>
    <path d="M 102.167936 128.816306 
C 102.698342 128.816306 103.207096 128.605573 103.58215 128.230519 
C 103.957204 127.855466 104.167936 127.346712 104.167936 126.816306 
C 104.167936 126.2859 103.957204 125.777146 103.58215 125.402092 
C 103.207096 125.027038 102.698342 124.816306 102.167936 124.816306 
C 101.63753 124.816306 101.128776 125.027038 100.753723 125.402092 
C 100.378669 125.777146 100.167936 126.2859 100.167936 126.816306 
C 100.167936 127.346712 100.378669 127.855466 100.753723 128.230519 
C 101.128776 128.605573 101.63753 128.816306 102.167936 128.816306 
z
" clip-path="url(#p9064ee0a81)" style="fill: #4c72b0; fill-opacity: 0.2; stroke: #4c72b0; stroke-width: 0.75"/>
    <path d="M 104.986277 134.014847 
C 105.516683 134.014847 106.025437 133.804114 106.400491 133.42906 
C 106.775545 133.054006 106.986277 132.545253 106.986277 132.014847 
C 106.986277 131.48444 106.775545 130.975687 106.400491 130.600633 
C 106.025437 130.225579 105.516683 130.014847 104.986277 130.014847 
C 104.455871 130.014847 103.947117 130.225579 103.572064 130.600633 
C 103.19701 130.975687 102.986277 131.48444 102.986277 132.014847 
C 102.986277 132.545253 103.19701 133.054006 103.572064 133.42906 
C 103.947117 133.804114 104.455871 134.014847 104.986277 134.014847 
z
" clip-path="url(#p9064ee0a81)" style="fill: #4c72b0; fill-opacity: 0.2; stroke: #4c72b0; stroke-width: 0.75"/>
    <path d="M 107.82636 103.702531 
C 108.356766 103.702531 108.86552 103.491798 109.240574 103.116744 
C 109.615627 102.741691 109.82636 102.232937 109.82636 101.702531 
C 109.82636 101.172125 109.615627 100.663371 109.240574 100.288317 
C 108.86552 99.913263 108.356766 99.702531 107.82636 99.702531 
C 107.295954 99.702531 106.7872 99.913263 106.412147 100.288317 
C 106.037093 100.663371 105.82636 101.172125 105.82636 101.702531 
C 105.82636 102.232937 106.037093 102.741691 106.412147 103.116744 
C 106.7872 103.491798 107.295954 103.702531 107.82636 103.702531 
z
" clip-path="url(#p9064ee0a81)" style="fill: #4c72b0; fill-opacity: 0.2; stroke: #4c72b0; stroke-width: 0.75"/>
    <path d="M 111.015101 131.960209 
C 111.545508 131.960209 112.054261 131.749477 112.429315 131.374423 
C 112.804369 130.999369 113.015101 130.490615 113.015101 129.960209 
C 113.015101 129.429803 112.804369 128.92105 112.429315 128.545996 
C 112.054261 128.170942 111.545508 127.960209 111.015101 127.960209 
C 110.484695 127.960209 109.975942 128.170942 109.600888 128.545996 
C 109.225834 128.92105 109.015101 129.429803 109.015101 129.960209 
C 109.015101 130.490615 109.225834 130.999369 109.600888 131.374423 
C 109.975942 131.749477 110.484695 131.960209 111.015101 131.960209 
z
" clip-path="url(#p9064ee0a81)" style="fill: #4c72b0; fill-opacity: 0.2; stroke: #4c72b0; stroke-width: 0.75"/>
    <path d="M 114.561388 111.869281 
C 115.091794 111.869281 115.600547 111.658548 115.975601 111.283494 
C 116.350655 110.90844 116.561388 110.399687 116.561388 109.869281 
C 116.561388 109.338874 116.350655 108.830121 115.975601 108.455067 
C 115.600547 108.080013 115.091794 107.869281 114.561388 107.869281 
C 114.030981 107.869281 113.522228 108.080013 113.147174 108.455067 
C 112.77212 108.830121 112.561388 109.338874 112.561388 109.869281 
C 112.561388 110.399687 112.77212 110.90844 113.147174 111.283494 
C 113.522228 111.658548 114.030981 111.869281 114.561388 111.869281 
z
" clip-path="url(#p9064ee0a81)" style="fill: #4c72b0; fill-opacity: 0.2; stroke: #4c72b0; stroke-width: 0.75"/>
    <path d="M 118.137574 114.650417 
C 118.66798 114.650417 119.176734 114.439685 119.551788 114.064631 
C 119.926842 113.689577 120.137574 113.180823 120.137574 112.650417 
C 120.137574 112.120011 119.926842 111.611257 119.551788 111.236204 
C 119.176734 110.86115 118.66798 110.650417 118.137574 110.650417 
C 117.607168 110.650417 117.098414 110.86115 116.723361 111.236204 
C 116.348307 111.611257 116.137574 112.120011 116.137574 112.650417 
C 116.137574 113.180823 116.348307 113.689577 116.723361 114.064631 
C 117.098414 114.439685 117.607168 114.650417 118.137574 114.650417 
z
" clip-path="url(#p9064ee0a81)" style="fill: #4c72b0; fill-opacity: 0.2; stroke: #4c72b0; stroke-width: 0.75"/>
    <path d="M 122.096785 111.482818 
C 122.627191 111.482818 123.135945 111.272086 123.510999 110.897032 
C 123.886053 110.521978 124.096785 110.013225 124.096785 109.482818 
C 124.096785 108.952412 123.886053 108.443659 123.510999 108.068605 
C 123.135945 107.693551 122.627191 107.482818 122.096785 107.482818 
C 121.566379 107.482818 121.057626 107.693551 120.682572 108.068605 
C 120.307518 108.443659 120.096785 108.952412 120.096785 109.482818 
C 120.096785 110.013225 120.307518 110.521978 120.682572 110.897032 
C 121.057626 111.272086 121.566379 111.482818 122.096785 111.482818 
z
" clip-path="url(#p9064ee0a81)" style="fill: #4c72b0; fill-opacity: 0.2; stroke: #4c72b0; stroke-width: 0.75"/>
    <path d="M 126.234348 117.480224 
C 126.764754 117.480224 127.273508 117.269491 127.648562 116.894437 
C 128.023615 116.519383 128.234348 116.01063 128.234348 115.480224 
C 128.234348 114.949817 128.023615 114.441064 127.648562 114.06601 
C 127.273508 113.690956 126.764754 113.480224 126.234348 113.480224 
C 125.703942 113.480224 125.195188 113.690956 124.820134 114.06601 
C 124.445081 114.441064 124.234348 114.949817 124.234348 115.480224 
C 124.234348 116.01063 124.445081 116.519383 124.820134 116.894437 
C 125.195188 117.269491 125.703942 117.480224 126.234348 117.480224 
z
" clip-path="url(#p9064ee0a81)" style="fill: #4c72b0; fill-opacity: 0.2; stroke: #4c72b0; stroke-width: 0.75"/>
    <path d="M 130.795055 93.417358 
C 131.325461 93.417358 131.834215 93.206625 132.209269 92.831571 
C 132.584322 92.456518 132.795055 91.947764 132.795055 91.417358 
C 132.795055 90.886952 132.584322 90.378198 132.209269 90.003144 
C 131.834215 89.62809 131.325461 89.417358 130.795055 89.417358 
C 130.264649 89.417358 129.755895 89.62809 129.380841 90.003144 
C 129.005788 90.378198 128.795055 90.886952 128.795055 91.417358 
C 128.795055 91.947764 129.005788 92.456518 129.380841 92.831571 
C 129.755895 93.206625 130.264649 93.417358 130.795055 93.417358 
z
" clip-path="url(#p9064ee0a81)" style="fill: #4c72b0; fill-opacity: 0.2; stroke: #4c72b0; stroke-width: 0.75"/>
    <path d="M 135.815747 91.865617 
C 136.346153 91.865617 136.854907 91.654884 137.229961 91.27983 
C 137.605015 90.904776 137.815747 90.396023 137.815747 89.865617 
C 137.815747 89.33521 137.605015 88.826457 137.229961 88.451403 
C 136.854907 88.076349 136.346153 87.865617 135.815747 87.865617 
C 135.285341 87.865617 134.776587 88.076349 134.401534 88.451403 
C 134.02648 88.826457 133.815747 89.33521 133.815747 89.865617 
C 133.815747 90.396023 134.02648 90.904776 134.401534 91.27983 
C 134.776587 91.654884 135.285341 91.865617 135.815747 91.865617 
z
" clip-path="url(#p9064ee0a81)" style="fill: #4c72b0; fill-opacity: 0.2; stroke: #4c72b0; stroke-width: 0.75"/>
    <path d="M 141.160399 91.626934 
C 141.690805 91.626934 142.199559 91.416201 142.574613 91.041147 
C 142.949667 90.666093 143.160399 90.15734 143.160399 89.626934 
C 143.160399 89.096527 142.949667 88.587774 142.574613 88.21272 
C 142.199559 87.837666 141.690805 87.626934 141.160399 87.626934 
C 140.629993 87.626934 140.121239 87.837666 139.746186 88.21272 
C 139.371132 88.587774 139.160399 89.096527 139.160399 89.626934 
C 139.160399 90.15734 139.371132 90.666093 139.746186 91.041147 
C 140.121239 91.416201 140.629993 91.626934 141.160399 91.626934 
z
" clip-path="url(#p9064ee0a81)" style="fill: #4c72b0; fill-opacity: 0.2; stroke: #4c72b0; stroke-width: 0.75"/>
    <path d="M 146.787388 95.358075 
C 147.317795 95.358075 147.826548 95.147342 148.201602 94.772288 
C 148.576656 94.397234 148.787388 93.888481 148.787388 93.358075 
C 148.787388 92.827668 148.576656 92.318915 148.201602 91.943861 
C 147.826548 91.568807 147.317795 91.358075 146.787388 91.358075 
C 146.256982 91.358075 145.748229 91.568807 145.373175 91.943861 
C 144.998121 92.318915 144.787388 92.827668 144.787388 93.358075 
C 144.787388 93.888481 144.998121 94.397234 145.373175 94.772288 
C 145.748229 95.147342 146.256982 95.358075 146.787388 95.358075 
z
" clip-path="url(#p9064ee0a81)" style="fill: #4c72b0; fill-opacity: 0.2; stroke: #4c72b0; stroke-width: 0.75"/>
    <path d="M 152.848973 87.395734 
C 153.379379 87.395734 153.888133 87.185001 154.263187 86.809947 
C 154.63824 86.434894 154.848973 85.92614 154.848973 85.395734 
C 154.848973 84.865328 154.63824 84.356574 154.263187 83.98152 
C 153.888133 83.606466 153.379379 83.395734 152.848973 83.395734 
C 152.318567 83.395734 151.809813 83.606466 151.43476 83.98152 
C 151.059706 84.356574 150.848973 84.865328 150.848973 85.395734 
C 150.848973 85.92614 151.059706 86.434894 151.43476 86.809947 
C 151.809813 87.185001 152.318567 87.395734 152.848973 87.395734 
z
" clip-path="url(#p9064ee0a81)" style="fill: #4c72b0; fill-opacity: 0.2; stroke: #4c72b0; stroke-width: 0.75"/>
    <path d="M 160.046824 103.530214 
C 160.57723 103.530214 161.085984 103.319482 161.461037 102.944428 
C 161.836091 102.569374 162.046824 102.06062 162.046824 101.530214 
C 162.046824 100.999808 161.836091 100.491054 161.461037 100.116001 
C 161.085984 99.740947 160.57723 99.530214 160.046824 99.530214 
C 159.516418 99.530214 159.007664 99.740947 158.63261 100.116001 
C 158.257556 100.491054 158.046824 100.999808 158.046824 101.530214 
C 158.046824 102.06062 158.257556 102.569374 158.63261 102.944428 
C 159.007664 103.319482 159.516418 103.530214 160.046824 103.530214 
z
" clip-path="url(#p9064ee0a81)" style="fill: #4c72b0; fill-opacity: 0.2; stroke: #4c72b0; stroke-width: 0.75"/>
    <path d="M 168.911021 80.821379 
C 169.441428 80.821379 169.950181 80.610646 170.325235 80.235592 
C 170.700289 79.860538 170.911021 79.351785 170.911021 78.821379 
C 170.911021 78.290972 170.700289 77.782219 170.325235 77.407165 
C 169.950181 77.032111 169.441428 76.821379 168.911021 76.821379 
C 168.380615 76.821379 167.871862 77.032111 167.496808 77.407165 
C 167.121754 77.782219 166.911021 78.290972 166.911021 78.821379 
C 166.911021 79.351785 167.121754 79.860538 167.496808 80.235592 
C 167.871862 80.610646 168.380615 80.821379 168.911021 80.821379 
z
" clip-path="url(#p9064ee0a81)" style="fill: #4c72b0; fill-opacity: 0.2; stroke: #4c72b0; stroke-width: 0.75"/>
    <path d="M 178.580112 121.220524 
C 179.110518 121.220524 179.619272 121.009791 179.994326 120.634737 
C 180.369379 120.259683 180.580112 119.75093 180.580112 119.220524 
C 180.580112 118.690117 180.369379 118.181364 179.994326 117.80631 
C 179.619272 117.431256 179.110518 117.220524 178.580112 117.220524 
C 178.049706 117.220524 177.540952 117.431256 177.165898 117.80631 
C 176.790845 118.181364 176.580112 118.690117 176.580112 119.220524 
C 176.580112 119.75093 176.790845 120.259683 177.165898 120.634737 
C 177.540952 121.009791 178.049706 121.220524 178.580112 121.220524 
z
" clip-path="url(#p9064ee0a81)" style="fill: #4c72b0; fill-opacity: 0.2; stroke: #4c72b0; stroke-width: 0.75"/>
    <path d="M 190.237622 113.886858 
C 190.768028 113.886858 191.276781 113.676126 191.651835 113.301072 
C 192.026889 112.926018 192.237622 112.417264 192.237622 111.886858 
C 192.237622 111.356452 192.026889 110.847698 191.651835 110.472645 
C 191.276781 110.097591 190.768028 109.886858 190.237622 109.886858 
C 189.707215 109.886858 189.198462 110.097591 188.823408 110.472645 
C 188.448354 110.847698 188.237622 111.356452 188.237622 111.886858 
C 188.237622 112.417264 188.448354 112.926018 188.823408 113.301072 
C 189.198462 113.676126 189.707215 113.886858 190.237622 113.886858 
z
" clip-path="url(#p9064ee0a81)" style="fill: #4c72b0; fill-opacity: 0.2; stroke: #4c72b0; stroke-width: 0.75"/>
    <path d="M 204.465703 156.348883 
C 204.99611 156.348883 205.504863 156.13815 205.879917 155.763096 
C 206.254971 155.388042 206.465703 154.879289 206.465703 154.348883 
C 206.465703 153.818476 206.254971 153.309723 205.879917 152.934669 
C 205.504863 152.559615 204.99611 152.348883 204.465703 152.348883 
C 203.935297 152.348883 203.426544 152.559615 203.05149 152.934669 
C 202.676436 153.309723 202.465703 153.818476 202.465703 154.348883 
C 202.465703 154.879289 202.676436 155.388042 203.05149 155.763096 
C 203.426544 156.13815 203.935297 156.348883 204.465703 156.348883 
z
" clip-path="url(#p9064ee0a81)" style="fill: #4c72b0; fill-opacity: 0.2; stroke: #4c72b0; stroke-width: 0.75"/>
    <path d="M 224.13921 136.998094 
C 224.669616 136.998094 225.17837 136.787362 225.553424 136.412308 
C 225.928477 136.037254 226.13921 135.528501 226.13921 134.998094 
C 226.13921 134.467688 225.928477 133.958935 225.553424 133.583881 
C 225.17837 133.208827 224.669616 132.998094 224.13921 132.998094 
C 223.608804 132.998094 223.10005 133.208827 222.724996 133.583881 
C 222.349943 133.958935 222.13921 134.467688 222.13921 134.998094 
C 222.13921 135.528501 222.349943 136.037254 222.724996 136.412308 
C 223.10005 136.787362 223.608804 136.998094 224.13921 136.998094 
z
" clip-path="url(#p9064ee0a81)" style="fill: #4c72b0; fill-opacity: 0.2; stroke: #4c72b0; stroke-width: 0.75"/>
    <path d="M 247.27836 166.324007 
C 247.808766 166.324007 248.31752 166.113274 248.692574 165.73822 
C 249.067628 165.363167 249.27836 164.854413 249.27836 164.324007 
C 249.27836 163.793601 249.067628 163.284847 248.692574 162.909793 
C 248.31752 162.53474 247.808766 162.324007 247.27836 162.324007 
C 246.747954 162.324007 246.2392 162.53474 245.864147 162.909793 
C 245.489093 163.284847 245.27836 163.793601 245.27836 164.324007 
C 245.27836 164.854413 245.489093 165.363167 245.864147 165.73822 
C 246.2392 166.113274 246.747954 166.324007 247.27836 166.324007 
z
" clip-path="url(#p9064ee0a81)" style="fill: #4c72b0; fill-opacity: 0.2; stroke: #4c72b0; stroke-width: 0.75"/>
    <path d="M 277.315698 146.008948 
C 277.846104 146.008948 278.354857 145.798216 278.729911 145.423162 
C 279.104965 145.048108 279.315698 144.539354 279.315698 144.008948 
C 279.315698 143.478542 279.104965 142.969789 278.729911 142.594735 
C 278.354857 142.219681 277.846104 142.008948 277.315698 142.008948 
C 276.785291 142.008948 276.276538 142.219681 275.901484 142.594735 
C 275.52643 142.969789 275.315698 143.478542 275.315698 144.008948 
C 275.315698 144.539354 275.52643 145.048108 275.901484 145.423162 
C 276.276538 145.798216 276.785291 146.008948 277.315698 146.008948 
z
" clip-path="url(#p9064ee0a81)" style="fill: #4c72b0; fill-opacity: 0.2; stroke: #4c72b0; stroke-width: 0.75"/>
    <path d="M 329.251193 154.810475 
C 329.781599 154.810475 330.290352 154.599743 330.665406 154.224689 
C 331.04046 153.849635 331.251193 153.340882 331.251193 152.810475 
C 331.251193 152.280069 331.04046 151.771316 330.665406 151.396262 
C 330.290352 151.021208 329.781599 150.810475 329.251193 150.810475 
C 328.720786 150.810475 328.212033 151.021208 327.836979 151.396262 
C 327.461925 151.771316 327.251193 152.280069 327.251193 152.810475 
C 327.251193 153.340882 327.461925 153.849635 327.836979 154.224689 
C 328.212033 154.599743 328.720786 154.810475 329.251193 154.810475 
z
" clip-path="url(#p9064ee0a81)" style="fill: #4c72b0; fill-opacity: 0.2; stroke: #4c72b0; stroke-width: 0.75"/>
    <path d="M 489.709091 185.536747 
C 490.239497 185.536747 490.748251 185.326015 491.123304 184.950961 
C 491.498358 184.575907 491.709091 184.067154 491.709091 183.536747 
C 491.709091 183.006341 491.498358 182.497588 491.123304 182.122534 
C 490.748251 181.74748 490.239497 181.536747 489.709091 181.536747 
C 489.178685 181.536747 488.669931 181.74748 488.294877 182.122534 
C 487.919824 182.497588 487.709091 183.006341 487.709091 183.536747 
C 487.709091 184.067154 487.919824 184.575907 488.294877 184.950961 
C 488.669931 185.326015 489.178685 185.536747 489.709091 185.536747 
z
" clip-path="url(#p9064ee0a81)" style="fill: #4c72b0; fill-opacity: 0.2; stroke: #4c72b0; stroke-width: 0.75"/>
   </g>
   <g id="matplotlib.axis_1">
    <g id="xtick_1">
     <g id="line2d_1">
      <defs>
       <path id="m4ad2ac3a5b" d="M 0 0 
L 0 3.5 
" style="stroke: #323034; stroke-width: 0.8"/>
      </defs>
      <g>
       <use xlink:href="#m4ad2ac3a5b" x="83.050236" y="247.936406" style="fill: #323034; stroke: #323034; stroke-width: 0.8"/>
      </g>
     </g>
     <g id="text_1">
      <!-- 0 -->
      <g style="fill: #323034" transform="translate(79.050236 265.863906) scale(0.16 -0.16)">
       <defs>
        <path id="STIXGeneral-Regular-30" d="M 3046 2112 
Q 3046 1683 2963 1302 
Q 2880 922 2717 602 
Q 2554 282 2266 96 
Q 1978 -90 1600 -90 
Q 1210 -90 915 108 
Q 621 307 461 640 
Q 301 973 227 1350 
Q 154 1728 154 2150 
Q 154 2746 301 3222 
Q 448 3699 790 4012 
Q 1133 4326 1626 4326 
Q 2253 4326 2649 3712 
Q 3046 3098 3046 2112 
z
M 2432 2080 
Q 2432 3091 2217 3625 
Q 2003 4160 1587 4160 
Q 1190 4160 979 3622 
Q 768 3085 768 2106 
Q 768 1120 979 598 
Q 1190 77 1600 77 
Q 2003 77 2217 598 
Q 2432 1120 2432 2080 
z
" transform="scale(0.015625)"/>
       </defs>
       <use xlink:href="#STIXGeneral-Regular-30"/>
      </g>
     </g>
    </g>
    <g id="xtick_2">
     <g id="line2d_2">
      <g>
       <use xlink:href="#m4ad2ac3a5b" x="155.559103" y="247.936406" style="fill: #323034; stroke: #323034; stroke-width: 0.8"/>
      </g>
     </g>
     <g id="text_2">
      <!-- 1 -->
      <g style="fill: #323034" transform="translate(151.559103 265.863906) scale(0.16 -0.16)">
       <defs>
        <path id="STIXGeneral-Regular-31" d="M 2522 0 
L 755 0 
L 755 96 
Q 1107 115 1235 227 
Q 1363 339 1363 608 
L 1363 3482 
Q 1363 3795 1171 3795 
Q 1082 3795 883 3718 
L 710 3654 
L 710 3744 
L 1856 4326 
L 1914 4307 
L 1914 486 
Q 1914 275 2042 185 
Q 2170 96 2522 96 
L 2522 0 
z
" transform="scale(0.015625)"/>
       </defs>
       <use xlink:href="#STIXGeneral-Regular-31"/>
      </g>
     </g>
    </g>
    <g id="xtick_3">
     <g id="line2d_3">
      <g>
       <use xlink:href="#m4ad2ac3a5b" x="228.067971" y="247.936406" style="fill: #323034; stroke: #323034; stroke-width: 0.8"/>
      </g>
     </g>
     <g id="text_3">
      <!-- 2 -->
      <g style="fill: #323034" transform="translate(224.067971 265.863906) scale(0.16 -0.16)">
       <defs>
        <path id="STIXGeneral-Regular-32" d="M 3034 877 
L 2688 0 
L 186 0 
L 186 77 
L 1325 1286 
Q 1773 1754 1965 2144 
Q 2157 2534 2157 2950 
Q 2157 3379 1920 3616 
Q 1683 3853 1267 3853 
Q 922 3853 720 3673 
Q 518 3494 326 3021 
L 192 3053 
Q 301 3648 630 3987 
Q 960 4326 1523 4326 
Q 2054 4326 2380 4006 
Q 2707 3686 2707 3200 
Q 2707 2477 1888 1613 
L 832 486 
L 2330 486 
Q 2541 486 2665 569 
Q 2790 653 2944 915 
L 3034 877 
z
" transform="scale(0.015625)"/>
       </defs>
       <use xlink:href="#STIXGeneral-Regular-32"/>
      </g>
     </g>
    </g>
    <g id="xtick_4">
     <g id="line2d_4">
      <g>
       <use xlink:href="#m4ad2ac3a5b" x="300.576838" y="247.936406" style="fill: #323034; stroke: #323034; stroke-width: 0.8"/>
      </g>
     </g>
     <g id="text_4">
      <!-- 3 -->
      <g style="fill: #323034" transform="translate(296.576838 265.863906) scale(0.16 -0.16)">
       <defs>
        <path id="STIXGeneral-Regular-33" d="M 390 3264 
L 288 3290 
Q 435 3770 748 4048 
Q 1062 4326 1542 4326 
Q 1990 4326 2265 4083 
Q 2541 3840 2541 3450 
Q 2541 2925 1946 2566 
Q 2298 2413 2477 2227 
Q 2758 1914 2758 1402 
Q 2758 890 2464 506 
Q 2246 211 1840 60 
Q 1434 -90 979 -90 
Q 262 -90 262 275 
Q 262 378 339 442 
Q 416 506 525 506 
Q 685 506 915 339 
Q 1197 141 1466 141 
Q 1818 141 2058 425 
Q 2298 710 2298 1120 
Q 2298 1856 1632 2048 
Q 1434 2112 979 2112 
L 979 2202 
Q 1338 2323 1517 2432 
Q 2035 2726 2035 3290 
Q 2035 3610 1852 3776 
Q 1670 3942 1344 3942 
Q 768 3942 390 3264 
z
" transform="scale(0.015625)"/>
       </defs>
       <use xlink:href="#STIXGeneral-Regular-33"/>
      </g>
     </g>
    </g>
    <g id="xtick_5">
     <g id="line2d_5">
      <g>
       <use xlink:href="#m4ad2ac3a5b" x="373.085706" y="247.936406" style="fill: #323034; stroke: #323034; stroke-width: 0.8"/>
      </g>
     </g>
     <g id="text_5">
      <!-- 4 -->
      <g style="fill: #323034" transform="translate(369.085706 265.863906) scale(0.16 -0.16)">
       <defs>
        <path id="STIXGeneral-Regular-34" d="M 3027 1069 
L 2368 1069 
L 2368 0 
L 1869 0 
L 1869 1069 
L 77 1069 
L 77 1478 
L 2086 4326 
L 2368 4326 
L 2368 1478 
L 3027 1478 
L 3027 1069 
z
M 1869 1478 
L 1869 3674 
L 333 1478 
L 1869 1478 
z
" transform="scale(0.015625)"/>
       </defs>
       <use xlink:href="#STIXGeneral-Regular-34"/>
      </g>
     </g>
    </g>
    <g id="xtick_6">
     <g id="line2d_6">
      <g>
       <use xlink:href="#m4ad2ac3a5b" x="445.594574" y="247.936406" style="fill: #323034; stroke: #323034; stroke-width: 0.8"/>
      </g>
     </g>
     <g id="text_6">
      <!-- 5 -->
      <g style="fill: #323034" transform="translate(441.594574 265.863906) scale(0.16 -0.16)">
       <defs>
        <path id="STIXGeneral-Regular-35" d="M 2803 4358 
L 2573 3814 
Q 2534 3731 2400 3731 
L 1158 3731 
L 902 3187 
Q 1606 3053 1920 2896 
Q 2234 2739 2502 2368 
Q 2726 2061 2726 1555 
Q 2726 1094 2576 780 
Q 2426 467 2099 224 
Q 1664 -90 1011 -90 
Q 646 -90 422 19 
Q 198 128 198 307 
Q 198 550 486 550 
Q 717 550 960 352 
Q 1210 147 1414 147 
Q 1747 147 2012 480 
Q 2278 813 2278 1229 
Q 2278 1843 1850 2189 
Q 1293 2637 486 2637 
Q 410 2637 410 2688 
L 416 2720 
L 1114 4237 
L 2438 4237 
Q 2547 4237 2608 4269 
Q 2669 4301 2746 4403 
L 2803 4358 
z
" transform="scale(0.015625)"/>
       </defs>
       <use xlink:href="#STIXGeneral-Regular-35"/>
      </g>
     </g>
    </g>
    <g id="text_7">
     <!-- age -->
     <g transform="translate(275.695 283.248906) scale(0.16 -0.16)">
      <defs>
       <path id="STIXGeneral-Regular-61" d="M 2829 422 
L 2829 243 
Q 2586 -64 2253 -64 
Q 1888 -64 1843 403 
L 1837 403 
Q 1427 -64 909 -64 
Q 608 -64 422 112 
Q 237 288 237 602 
Q 237 1050 685 1350 
Q 992 1555 1837 1869 
L 1837 2214 
Q 1837 2502 1699 2646 
Q 1562 2790 1338 2790 
Q 1146 2790 1018 2697 
Q 890 2605 890 2477 
Q 890 2419 909 2348 
Q 928 2278 928 2208 
Q 928 2112 841 2029 
Q 755 1946 634 1946 
Q 525 1946 441 2029 
Q 358 2112 358 2240 
Q 358 2547 685 2752 
Q 986 2944 1421 2944 
Q 1939 2944 2176 2656 
Q 2291 2522 2323 2384 
Q 2355 2246 2355 1946 
L 2355 723 
Q 2355 301 2554 301 
Q 2682 301 2829 422 
z
M 1837 813 
L 1837 1715 
Q 1248 1510 1018 1293 
Q 800 1094 800 800 
Q 800 557 921 432 
Q 1043 307 1242 307 
Q 1453 307 1613 410 
Q 1747 506 1792 589 
Q 1837 672 1837 813 
z
" transform="scale(0.015625)"/>
       <path id="STIXGeneral-Regular-67" d="M 3008 2483 
L 2477 2483 
Q 2598 2208 2598 1946 
Q 2598 1453 2265 1203 
Q 1933 954 1600 954 
Q 1530 954 1357 973 
L 1235 986 
Q 1107 947 979 812 
Q 851 678 851 582 
Q 851 435 1350 410 
L 2176 371 
Q 2528 358 2739 172 
Q 2950 -13 2950 -314 
Q 2950 -685 2566 -986 
Q 2035 -1395 1286 -1395 
Q 826 -1395 502 -1212 
Q 179 -1030 179 -774 
Q 179 -595 320 -419 
Q 461 -243 806 6 
Q 602 102 534 172 
Q 467 243 467 346 
Q 467 531 762 787 
Q 909 915 1037 1043 
Q 717 1203 579 1401 
Q 442 1600 442 1901 
Q 442 2336 752 2640 
Q 1062 2944 1510 2944 
Q 1766 2944 2022 2848 
L 2163 2797 
Q 2349 2733 2515 2733 
L 3008 2733 
L 3008 2483 
z
M 973 2163 
L 973 2144 
Q 973 1683 1155 1398 
Q 1338 1114 1632 1114 
Q 1850 1114 1978 1270 
Q 2106 1427 2106 1690 
Q 2106 2112 1914 2464 
Q 1754 2765 1446 2765 
Q 1222 2765 1097 2605 
Q 973 2445 973 2163 
z
M 2771 -410 
Q 2771 -230 2595 -163 
Q 2419 -96 1978 -96 
Q 1344 -96 941 -13 
Q 749 -243 688 -348 
Q 627 -454 627 -563 
Q 627 -774 880 -902 
Q 1133 -1030 1555 -1030 
Q 2099 -1030 2435 -860 
Q 2771 -691 2771 -410 
z
" transform="scale(0.015625)"/>
       <path id="STIXGeneral-Regular-65" d="M 2611 1050 
L 2714 1005 
Q 2330 -64 1376 -64 
Q 813 -64 486 329 
Q 160 723 160 1389 
Q 160 2074 525 2509 
Q 890 2944 1485 2944 
Q 2061 2944 2374 2502 
Q 2560 2246 2592 1773 
L 621 1773 
Q 646 1370 700 1158 
Q 755 947 915 730 
Q 1184 378 1626 378 
Q 1939 378 2153 531 
Q 2368 685 2611 1050 
z
M 634 1978 
L 1939 1978 
Q 1882 2381 1750 2547 
Q 1619 2714 1312 2714 
Q 1043 2714 864 2525 
Q 685 2336 634 1978 
z
" transform="scale(0.015625)"/>
      </defs>
      <use xlink:href="#STIXGeneral-Regular-61"/>
      <use xlink:href="#STIXGeneral-Regular-67" x="44.399994"/>
      <use xlink:href="#STIXGeneral-Regular-65" x="94.399979"/>
     </g>
    </g>
   </g>
   <g id="matplotlib.axis_2">
    <g id="ytick_1">
     <g id="line2d_7">
      <defs>
       <path id="maff79be1da" d="M 0 0 
L -3.5 0 
" style="stroke: #323034; stroke-width: 0.8"/>
      </defs>
      <g>
       <use xlink:href="#maff79be1da" x="63.6" y="233.16287" style="fill: #323034; stroke: #323034; stroke-width: 0.8"/>
      </g>
     </g>
     <g id="text_8">
      <!-- 1000 -->
      <g style="fill: #323034" transform="translate(24.6 238.62662) scale(0.16 -0.16)">
       <use xlink:href="#STIXGeneral-Regular-31"/>
       <use xlink:href="#STIXGeneral-Regular-30" x="49.999985"/>
       <use xlink:href="#STIXGeneral-Regular-30" x="99.999969"/>
       <use xlink:href="#STIXGeneral-Regular-30" x="149.999954"/>
      </g>
     </g>
    </g>
    <g id="ytick_2">
     <g id="line2d_8">
      <g>
       <use xlink:href="#maff79be1da" x="63.6" y="205.224783" style="fill: #323034; stroke: #323034; stroke-width: 0.8"/>
      </g>
     </g>
     <g id="text_9">
      <!-- 1500 -->
      <g style="fill: #323034" transform="translate(24.6 210.688533) scale(0.16 -0.16)">
       <use xlink:href="#STIXGeneral-Regular-31"/>
       <use xlink:href="#STIXGeneral-Regular-35" x="49.999985"/>
       <use xlink:href="#STIXGeneral-Regular-30" x="99.999969"/>
       <use xlink:href="#STIXGeneral-Regular-30" x="149.999954"/>
      </g>
     </g>
    </g>
    <g id="ytick_3">
     <g id="line2d_9">
      <g>
       <use xlink:href="#maff79be1da" x="63.6" y="177.286695" style="fill: #323034; stroke: #323034; stroke-width: 0.8"/>
      </g>
     </g>
     <g id="text_10">
      <!-- 2000 -->
      <g style="fill: #323034" transform="translate(24.6 182.750445) scale(0.16 -0.16)">
       <use xlink:href="#STIXGeneral-Regular-32"/>
       <use xlink:href="#STIXGeneral-Regular-30" x="49.999985"/>
       <use xlink:href="#STIXGeneral-Regular-30" x="99.999969"/>
       <use xlink:href="#STIXGeneral-Regular-30" x="149.999954"/>
      </g>
     </g>
    </g>
    <g id="ytick_4">
     <g id="line2d_10">
      <g>
       <use xlink:href="#maff79be1da" x="63.6" y="149.348608" style="fill: #323034; stroke: #323034; stroke-width: 0.8"/>
      </g>
     </g>
     <g id="text_11">
      <!-- 2500 -->
      <g style="fill: #323034" transform="translate(24.6 154.812358) scale(0.16 -0.16)">
       <use xlink:href="#STIXGeneral-Regular-32"/>
       <use xlink:href="#STIXGeneral-Regular-35" x="49.999985"/>
       <use xlink:href="#STIXGeneral-Regular-30" x="99.999969"/>
       <use xlink:href="#STIXGeneral-Regular-30" x="149.999954"/>
      </g>
     </g>
    </g>
    <g id="ytick_5">
     <g id="line2d_11">
      <g>
       <use xlink:href="#maff79be1da" x="63.6" y="121.41052" style="fill: #323034; stroke: #323034; stroke-width: 0.8"/>
      </g>
     </g>
     <g id="text_12">
      <!-- 3000 -->
      <g style="fill: #323034" transform="translate(24.6 126.87427) scale(0.16 -0.16)">
       <use xlink:href="#STIXGeneral-Regular-33"/>
       <use xlink:href="#STIXGeneral-Regular-30" x="49.999985"/>
       <use xlink:href="#STIXGeneral-Regular-30" x="99.999969"/>
       <use xlink:href="#STIXGeneral-Regular-30" x="149.999954"/>
      </g>
     </g>
    </g>
    <g id="ytick_6">
     <g id="line2d_12">
      <g>
       <use xlink:href="#maff79be1da" x="63.6" y="93.472432" style="fill: #323034; stroke: #323034; stroke-width: 0.8"/>
      </g>
     </g>
     <g id="text_13">
      <!-- 3500 -->
      <g style="fill: #323034" transform="translate(24.6 98.936182) scale(0.16 -0.16)">
       <use xlink:href="#STIXGeneral-Regular-33"/>
       <use xlink:href="#STIXGeneral-Regular-35" x="49.999985"/>
       <use xlink:href="#STIXGeneral-Regular-30" x="99.999969"/>
       <use xlink:href="#STIXGeneral-Regular-30" x="149.999954"/>
      </g>
     </g>
    </g>
    <g id="ytick_7">
     <g id="line2d_13">
      <g>
       <use xlink:href="#maff79be1da" x="63.6" y="65.534345" style="fill: #323034; stroke: #323034; stroke-width: 0.8"/>
      </g>
     </g>
     <g id="text_14">
      <!-- 4000 -->
      <g style="fill: #323034" transform="translate(24.6 70.998095) scale(0.16 -0.16)">
       <use xlink:href="#STIXGeneral-Regular-34"/>
       <use xlink:href="#STIXGeneral-Regular-30" x="49.999985"/>
       <use xlink:href="#STIXGeneral-Regular-30" x="99.999969"/>
       <use xlink:href="#STIXGeneral-Regular-30" x="149.999954"/>
      </g>
     </g>
    </g>
    <g id="ytick_8">
     <g id="line2d_14">
      <g>
       <use xlink:href="#maff79be1da" x="63.6" y="37.596257" style="fill: #323034; stroke: #323034; stroke-width: 0.8"/>
      </g>
     </g>
     <g id="text_15">
      <!-- 4500 -->
      <g style="fill: #323034" transform="translate(24.6 43.060007) scale(0.16 -0.16)">
       <use xlink:href="#STIXGeneral-Regular-34"/>
       <use xlink:href="#STIXGeneral-Regular-35" x="49.999985"/>
       <use xlink:href="#STIXGeneral-Regular-30" x="99.999969"/>
       <use xlink:href="#STIXGeneral-Regular-30" x="149.999954"/>
      </g>
     </g>
    </g>
    <g id="text_16">
     <!-- sales -->
     <g transform="translate(18.1275 152.610156) rotate(-90) scale(0.16 -0.16)">
      <defs>
       <path id="STIXGeneral-Regular-73" d="M 998 1926 
L 1664 1523 
Q 1984 1331 2105 1164 
Q 2227 998 2227 736 
Q 2227 416 1961 176 
Q 1696 -64 1331 -64 
Q 1030 -64 864 -6 
Q 691 51 570 51 
Q 461 51 416 -26 
L 333 -26 
L 333 979 
L 435 979 
Q 538 512 730 294 
Q 922 77 1248 77 
Q 1485 77 1632 211 
Q 1779 346 1779 550 
Q 1779 845 1440 1030 
L 1094 1222 
Q 326 1651 326 2150 
Q 326 2522 566 2730 
Q 806 2938 1210 2938 
Q 1491 2938 1638 2867 
Q 1754 2816 1818 2816 
Q 1862 2816 1920 2880 
L 1990 2880 
L 2022 2010 
L 1926 2010 
Q 1818 2445 1654 2621 
Q 1491 2797 1203 2797 
Q 986 2797 854 2688 
Q 723 2579 723 2362 
Q 723 2253 796 2128 
Q 870 2003 998 1926 
z
" transform="scale(0.015625)"/>
       <path id="STIXGeneral-Regular-6c" d="M 1645 0 
L 134 0 
L 134 96 
Q 435 122 531 221 
Q 627 320 627 589 
L 627 3590 
Q 627 3821 569 3910 
Q 512 4000 358 4000 
Q 224 4000 122 3987 
L 122 4090 
Q 730 4237 1133 4371 
L 1165 4346 
L 1165 557 
Q 1165 288 1254 201 
Q 1344 115 1645 96 
L 1645 0 
z
" transform="scale(0.015625)"/>
      </defs>
      <use xlink:href="#STIXGeneral-Regular-73"/>
      <use xlink:href="#STIXGeneral-Regular-61" x="38.899994"/>
      <use xlink:href="#STIXGeneral-Regular-6c" x="83.299988"/>
      <use xlink:href="#STIXGeneral-Regular-65" x="111.099976"/>
      <use xlink:href="#STIXGeneral-Regular-73" x="155.499969"/>
     </g>
    </g>
   </g>
   <g id="LineCollection_1">
    <path d="M 83.890909 205.478889 
L 83.890909 149.828507 
" clip-path="url(#p9064ee0a81)" style="fill: none; stroke: #bc80bd; stroke-opacity: 0.2; stroke-width: 2"/>
    <path d="M 85.667121 187.739474 
L 85.667121 143.869401 
" clip-path="url(#p9064ee0a81)" style="fill: none; stroke: #bc80bd; stroke-opacity: 0.2; stroke-width: 2"/>
    <path d="M 87.674549 174.494341 
L 87.674549 129.081952 
" clip-path="url(#p9064ee0a81)" style="fill: none; stroke: #bc80bd; stroke-opacity: 0.2; stroke-width: 2"/>
    <path d="M 89.798336 180.350913 
L 89.798336 135.551969 
" clip-path="url(#p9064ee0a81)" style="fill: none; stroke: #bc80bd; stroke-opacity: 0.2; stroke-width: 2"/>
    <path d="M 91.954786 182.929268 
L 91.954786 124.09038 
" clip-path="url(#p9064ee0a81)" style="fill: none; stroke: #bc80bd; stroke-opacity: 0.2; stroke-width: 2"/>
    <path d="M 94.098609 174.030725 
L 94.098609 120.725729 
" clip-path="url(#p9064ee0a81)" style="fill: none; stroke: #bc80bd; stroke-opacity: 0.2; stroke-width: 2"/>
    <path d="M 96.503611 168.148459 
L 96.503611 116.052077 
" clip-path="url(#p9064ee0a81)" style="fill: none; stroke: #bc80bd; stroke-opacity: 0.2; stroke-width: 2"/>
    <path d="M 99.292126 165.809184 
L 99.292126 111.548638 
" clip-path="url(#p9064ee0a81)" style="fill: none; stroke: #bc80bd; stroke-opacity: 0.2; stroke-width: 2"/>
    <path d="M 102.167936 157.361939 
L 102.167936 96.270673 
" clip-path="url(#p9064ee0a81)" style="fill: none; stroke: #bc80bd; stroke-opacity: 0.2; stroke-width: 2"/>
    <path d="M 104.986277 170.153848 
L 104.986277 93.875845 
" clip-path="url(#p9064ee0a81)" style="fill: none; stroke: #bc80bd; stroke-opacity: 0.2; stroke-width: 2"/>
    <path d="M 107.82636 142.990059 
L 107.82636 60.415003 
" clip-path="url(#p9064ee0a81)" style="fill: none; stroke: #bc80bd; stroke-opacity: 0.2; stroke-width: 2"/>
    <path d="M 111.015101 162.432533 
L 111.015101 97.487885 
" clip-path="url(#p9064ee0a81)" style="fill: none; stroke: #bc80bd; stroke-opacity: 0.2; stroke-width: 2"/>
    <path d="M 114.561388 145.544876 
L 114.561388 74.193686 
" clip-path="url(#p9064ee0a81)" style="fill: none; stroke: #bc80bd; stroke-opacity: 0.2; stroke-width: 2"/>
    <path d="M 118.137574 149.268099 
L 118.137574 76.032735 
" clip-path="url(#p9064ee0a81)" style="fill: none; stroke: #bc80bd; stroke-opacity: 0.2; stroke-width: 2"/>
    <path d="M 122.096785 147.747024 
L 122.096785 71.218612 
" clip-path="url(#p9064ee0a81)" style="fill: none; stroke: #bc80bd; stroke-opacity: 0.2; stroke-width: 2"/>
    <path d="M 126.234348 150.418509 
L 126.234348 80.541938 
" clip-path="url(#p9064ee0a81)" style="fill: none; stroke: #bc80bd; stroke-opacity: 0.2; stroke-width: 2"/>
    <path d="M 130.795055 128.348279 
L 130.795055 54.486436 
" clip-path="url(#p9064ee0a81)" style="fill: none; stroke: #bc80bd; stroke-opacity: 0.2; stroke-width: 2"/>
    <path d="M 135.815747 127.160406 
L 135.815747 52.570827 
" clip-path="url(#p9064ee0a81)" style="fill: none; stroke: #bc80bd; stroke-opacity: 0.2; stroke-width: 2"/>
    <path d="M 141.160399 130.60355 
L 141.160399 48.650317 
" clip-path="url(#p9064ee0a81)" style="fill: none; stroke: #bc80bd; stroke-opacity: 0.2; stroke-width: 2"/>
    <path d="M 146.787388 134.072606 
L 146.787388 52.643544 
" clip-path="url(#p9064ee0a81)" style="fill: none; stroke: #bc80bd; stroke-opacity: 0.2; stroke-width: 2"/>
    <path d="M 152.848973 127.399222 
L 152.848973 43.392246 
" clip-path="url(#p9064ee0a81)" style="fill: none; stroke: #bc80bd; stroke-opacity: 0.2; stroke-width: 2"/>
    <path d="M 160.046824 143.807787 
L 160.046824 59.252641 
" clip-path="url(#p9064ee0a81)" style="fill: none; stroke: #bc80bd; stroke-opacity: 0.2; stroke-width: 2"/>
    <path d="M 168.911021 121.386351 
L 168.911021 36.256406 
" clip-path="url(#p9064ee0a81)" style="fill: none; stroke: #bc80bd; stroke-opacity: 0.2; stroke-width: 2"/>
    <path d="M 178.580112 158.332499 
L 178.580112 80.108548 
" clip-path="url(#p9064ee0a81)" style="fill: none; stroke: #bc80bd; stroke-opacity: 0.2; stroke-width: 2"/>
    <path d="M 190.237622 150.498144 
L 190.237622 73.275572 
" clip-path="url(#p9064ee0a81)" style="fill: none; stroke: #bc80bd; stroke-opacity: 0.2; stroke-width: 2"/>
    <path d="M 204.465703 190.919423 
L 204.465703 117.778342 
" clip-path="url(#p9064ee0a81)" style="fill: none; stroke: #bc80bd; stroke-opacity: 0.2; stroke-width: 2"/>
    <path d="M 224.13921 171.760189 
L 224.13921 98.236 
" clip-path="url(#p9064ee0a81)" style="fill: none; stroke: #bc80bd; stroke-opacity: 0.2; stroke-width: 2"/>
    <path d="M 247.27836 200.057971 
L 247.27836 128.590043 
" clip-path="url(#p9064ee0a81)" style="fill: none; stroke: #bc80bd; stroke-opacity: 0.2; stroke-width: 2"/>
    <path d="M 277.315698 184.413309 
L 277.315698 103.604587 
" clip-path="url(#p9064ee0a81)" style="fill: none; stroke: #bc80bd; stroke-opacity: 0.2; stroke-width: 2"/>
    <path d="M 329.251193 195.428664 
L 329.251193 110.192286 
" clip-path="url(#p9064ee0a81)" style="fill: none; stroke: #bc80bd; stroke-opacity: 0.2; stroke-width: 2"/>
    <path d="M 489.709091 237.856406 
L 489.709091 129.217088 
" clip-path="url(#p9064ee0a81)" style="fill: none; stroke: #bc80bd; stroke-opacity: 0.2; stroke-width: 2"/>
   </g>
   <g id="line2d_15"/>
   <g id="patch_3">
    <path d="M 63.6 247.936406 
L 63.6 26.176406 
" style="fill: none; stroke: #000000; stroke-width: 0.6; stroke-linejoin: miter; stroke-linecap: square"/>
   </g>
   <g id="patch_4">
    <path d="M 63.6 247.936406 
L 510 247.936406 
" style="fill: none; stroke: #000000; stroke-width: 0.6; stroke-linejoin: miter; stroke-linecap: square"/>
   </g>
   <g id="text_17">
    <!-- Binscatter: sales as a function of age conditioned on products -->
    <g style="fill: #323034" transform="translate(63.6 20.176406) scale(0.19 -0.19)">
     <defs>
      <path id="STIXGeneral-Regular-42" d="M 2701 2234 
L 2701 2227 
Q 3181 2150 3482 1875 
Q 3795 1594 3795 1139 
Q 3795 608 3379 304 
Q 2963 0 2266 0 
L 109 0 
L 109 122 
Q 486 134 604 246 
Q 723 358 723 723 
L 723 3520 
Q 723 3891 614 3990 
Q 506 4090 109 4115 
L 109 4237 
L 1901 4237 
Q 2726 4237 3152 3958 
Q 3578 3680 3578 3168 
Q 3578 2733 3315 2502 
Q 3130 2342 2701 2234 
z
M 1376 2342 
L 1965 2342 
Q 2925 2342 2925 3136 
Q 2925 3546 2640 3773 
Q 2355 4000 1792 4000 
L 1530 4000 
Q 1376 4000 1376 3795 
L 1376 2342 
z
M 1376 2086 
L 1376 525 
Q 1376 365 1462 301 
Q 1549 237 1773 237 
Q 2208 237 2413 285 
Q 2618 333 2816 512 
Q 3059 723 3059 1146 
Q 3059 1632 2758 1830 
Q 2688 1882 2617 1917 
Q 2547 1952 2492 1974 
Q 2438 1997 2348 2016 
Q 2259 2035 2211 2044 
Q 2163 2054 2041 2060 
Q 1920 2067 1862 2070 
Q 1805 2074 1635 2080 
Q 1466 2086 1376 2086 
z
" transform="scale(0.015625)"/>
      <path id="STIXGeneral-Regular-69" d="M 1152 4045 
Q 1152 3904 1056 3811 
Q 960 3718 819 3718 
Q 685 3718 592 3811 
Q 499 3904 499 4045 
Q 499 4179 595 4275 
Q 691 4371 826 4371 
Q 966 4371 1059 4275 
Q 1152 4179 1152 4045 
z
M 1619 0 
L 102 0 
L 102 96 
Q 435 115 521 211 
Q 608 307 608 666 
L 608 2118 
Q 608 2342 563 2432 
Q 518 2522 397 2522 
Q 243 2522 128 2490 
L 128 2592 
L 1120 2944 
L 1146 2918 
L 1146 672 
Q 1146 314 1226 218 
Q 1306 122 1619 96 
L 1619 0 
z
" transform="scale(0.015625)"/>
      <path id="STIXGeneral-Regular-6e" d="M 3104 0 
L 1773 0 
L 1779 96 
Q 2016 115 2096 233 
Q 2176 352 2176 672 
L 2176 1946 
Q 2176 2592 1709 2592 
Q 1549 2592 1408 2515 
Q 1267 2438 1050 2227 
L 1050 461 
Q 1050 269 1136 192 
Q 1222 115 1466 96 
L 1466 0 
L 115 0 
L 115 96 
Q 358 115 435 214 
Q 512 314 512 602 
L 512 2157 
Q 512 2394 467 2483 
Q 422 2573 288 2573 
Q 160 2573 102 2547 
L 102 2656 
Q 550 2784 979 2944 
L 1030 2925 
L 1030 2426 
L 1037 2426 
Q 1491 2944 1958 2944 
Q 2323 2944 2518 2688 
Q 2714 2432 2714 1958 
L 2714 544 
Q 2714 288 2790 205 
Q 2867 122 3104 96 
L 3104 0 
z
" transform="scale(0.015625)"/>
      <path id="STIXGeneral-Regular-63" d="M 2547 998 
L 2637 941 
Q 2362 403 2112 205 
Q 1786 -64 1376 -64 
Q 845 -64 502 336 
Q 160 736 160 1357 
Q 160 2170 698 2618 
Q 1094 2944 1562 2944 
Q 1965 2944 2256 2749 
Q 2547 2554 2547 2285 
Q 2547 2176 2457 2096 
Q 2368 2016 2246 2016 
Q 2022 2016 1939 2310 
L 1901 2451 
Q 1850 2630 1773 2694 
Q 1696 2758 1523 2758 
Q 1133 2758 893 2451 
Q 653 2144 653 1645 
Q 653 1094 928 745 
Q 1203 397 1645 397 
Q 1920 397 2118 528 
Q 2317 659 2547 998 
z
" transform="scale(0.015625)"/>
      <path id="STIXGeneral-Regular-74" d="M 1702 493 
L 1786 422 
Q 1478 -64 1011 -64 
Q 448 -64 448 749 
L 448 2675 
L 109 2675 
Q 83 2694 83 2720 
Q 83 2771 192 2842 
Q 435 2982 813 3526 
Q 826 3546 874 3606 
Q 922 3667 941 3706 
Q 986 3706 986 3622 
L 986 2880 
L 1632 2880 
L 1632 2675 
L 986 2675 
L 986 845 
Q 986 538 1062 403 
Q 1139 269 1318 269 
Q 1510 269 1702 493 
z
" transform="scale(0.015625)"/>
      <path id="STIXGeneral-Regular-72" d="M 1024 2931 
L 1024 2342 
Q 1267 2688 1430 2816 
Q 1594 2944 1792 2944 
Q 1958 2944 2051 2854 
Q 2144 2765 2144 2605 
Q 2144 2470 2077 2393 
Q 2010 2317 1894 2317 
Q 1773 2317 1638 2445 
Q 1536 2541 1472 2541 
Q 1338 2541 1181 2355 
Q 1024 2170 1024 2016 
L 1024 576 
Q 1024 301 1133 205 
Q 1242 109 1568 96 
L 1568 0 
L 32 0 
L 32 96 
Q 339 154 412 224 
Q 486 294 486 538 
L 486 2138 
Q 486 2349 438 2435 
Q 390 2522 269 2522 
Q 166 2522 45 2496 
L 45 2598 
Q 448 2726 992 2944 
L 1024 2931 
z
" transform="scale(0.015625)"/>
      <path id="STIXGeneral-Regular-3a" d="M 1123 2832 
Q 1229 2726 1229 2579 
Q 1229 2432 1126 2329 
Q 1024 2227 877 2227 
Q 730 2227 624 2332 
Q 518 2438 518 2579 
Q 518 2733 620 2835 
Q 723 2938 877 2938 
Q 1018 2938 1123 2832 
z
M 1229 282 
Q 1229 141 1126 35 
Q 1024 -70 877 -70 
Q 730 -70 624 35 
Q 518 141 518 282 
Q 518 435 620 537 
Q 723 640 877 640 
Q 1018 640 1123 534 
Q 1229 429 1229 282 
z
" transform="scale(0.015625)"/>
      <path id="STIXGeneral-Regular-20" transform="scale(0.015625)"/>
      <path id="STIXGeneral-Regular-66" d="M 134 2880 
L 659 2880 
Q 666 3264 710 3478 
Q 755 3693 883 3910 
Q 1152 4371 1786 4371 
Q 2074 4371 2262 4259 
Q 2451 4147 2451 3974 
Q 2451 3866 2374 3789 
Q 2298 3712 2182 3712 
Q 2029 3712 1894 3942 
Q 1741 4192 1555 4192 
Q 1197 4192 1197 3622 
L 1197 2880 
L 1978 2880 
L 1978 2675 
L 1197 2675 
L 1197 666 
Q 1197 307 1299 208 
Q 1402 109 1792 96 
L 1792 0 
L 128 0 
L 128 96 
Q 474 115 566 214 
Q 659 314 659 666 
L 659 2675 
L 134 2675 
L 134 2880 
z
" transform="scale(0.015625)"/>
      <path id="STIXGeneral-Regular-75" d="M 3072 320 
L 3072 230 
Q 2573 96 2195 -58 
L 2163 -38 
L 2163 486 
L 2150 486 
Q 1747 -64 1235 -64 
Q 870 -64 662 160 
Q 454 384 454 755 
L 454 2362 
Q 454 2598 371 2688 
Q 288 2778 58 2790 
L 58 2880 
L 992 2880 
L 992 813 
Q 992 595 1123 451 
Q 1254 307 1446 307 
Q 1760 307 1984 506 
Q 2067 582 2099 649 
Q 2131 717 2131 877 
L 2131 2355 
Q 2131 2605 2041 2678 
Q 1952 2752 1658 2771 
L 1658 2880 
L 2669 2880 
L 2669 685 
Q 2669 461 2742 390 
Q 2816 320 3034 320 
L 3072 320 
z
" transform="scale(0.015625)"/>
      <path id="STIXGeneral-Regular-6f" d="M 3008 1478 
Q 3008 806 2608 371 
Q 2208 -64 1568 -64 
Q 979 -64 582 368 
Q 186 800 186 1459 
Q 186 2125 582 2534 
Q 979 2944 1626 2944 
Q 2221 2944 2614 2537 
Q 3008 2131 3008 1478 
z
M 2432 1306 
Q 2432 2035 2112 2445 
Q 1856 2765 1504 2765 
Q 1171 2765 966 2493 
Q 762 2221 762 1747 
Q 762 928 1101 435 
Q 1318 115 1677 115 
Q 2029 115 2230 432 
Q 2432 749 2432 1306 
z
" transform="scale(0.015625)"/>
      <path id="STIXGeneral-Regular-64" d="M 3142 269 
L 2202 -64 
L 2176 -45 
L 2176 365 
Q 1869 -64 1357 -64 
Q 826 -64 499 317 
Q 173 698 173 1312 
Q 173 1990 563 2467 
Q 954 2944 1504 2944 
Q 1850 2944 2176 2669 
L 2176 3667 
Q 2176 3866 2118 3930 
Q 2061 3994 1882 3994 
Q 1792 3994 1741 3987 
L 1741 4090 
Q 2323 4243 2682 4371 
L 2714 4358 
L 2714 730 
Q 2714 506 2768 435 
Q 2822 365 2995 365 
Q 3034 365 3142 371 
L 3142 269 
z
M 2176 653 
L 2176 2125 
Q 2176 2381 1981 2573 
Q 1786 2765 1523 2765 
Q 1158 2765 940 2438 
Q 723 2112 723 1568 
Q 723 979 963 624 
Q 1203 269 1606 269 
Q 1907 269 2080 474 
Q 2176 582 2176 653 
z
" transform="scale(0.015625)"/>
      <path id="STIXGeneral-Regular-70" d="M 1018 2931 
L 1018 2438 
Q 1421 2944 1939 2944 
Q 2406 2944 2707 2560 
Q 3008 2176 3008 1581 
Q 3008 883 2621 409 
Q 2234 -64 1664 -64 
Q 1466 -64 1328 -6 
Q 1190 51 1018 211 
L 1018 -794 
Q 1018 -1094 1120 -1180 
Q 1222 -1267 1581 -1274 
L 1581 -1389 
L 32 -1389 
L 32 -1280 
Q 314 -1254 397 -1171 
Q 480 -1088 480 -838 
L 480 2157 
Q 480 2381 429 2451 
Q 378 2522 218 2522 
Q 115 2522 58 2515 
L 58 2618 
Q 506 2752 979 2944 
L 1018 2931 
z
M 1018 2138 
L 1018 563 
Q 1018 422 1238 281 
Q 1459 141 1683 141 
Q 2029 141 2243 467 
Q 2458 794 2458 1325 
Q 2458 1888 2243 2224 
Q 2029 2560 1670 2560 
Q 1446 2560 1232 2419 
Q 1018 2278 1018 2138 
z
" transform="scale(0.015625)"/>
     </defs>
     <use xlink:href="#STIXGeneral-Regular-42"/>
     <use xlink:href="#STIXGeneral-Regular-69" x="66.699997"/>
     <use xlink:href="#STIXGeneral-Regular-6e" x="94.499985"/>
     <use xlink:href="#STIXGeneral-Regular-73" x="144.499969"/>
     <use xlink:href="#STIXGeneral-Regular-63" x="183.399963"/>
     <use xlink:href="#STIXGeneral-Regular-61" x="227.799957"/>
     <use xlink:href="#STIXGeneral-Regular-74" x="272.199951"/>
     <use xlink:href="#STIXGeneral-Regular-74" x="299.999939"/>
     <use xlink:href="#STIXGeneral-Regular-65" x="327.799927"/>
     <use xlink:href="#STIXGeneral-Regular-72" x="372.199921"/>
     <use xlink:href="#STIXGeneral-Regular-3a" x="405.499908"/>
     <use xlink:href="#STIXGeneral-Regular-20" x="433.299896"/>
     <use xlink:href="#STIXGeneral-Regular-73" x="458.299881"/>
     <use xlink:href="#STIXGeneral-Regular-61" x="497.199875"/>
     <use xlink:href="#STIXGeneral-Regular-6c" x="541.599869"/>
     <use xlink:href="#STIXGeneral-Regular-65" x="569.399857"/>
     <use xlink:href="#STIXGeneral-Regular-73" x="613.79985"/>
     <use xlink:href="#STIXGeneral-Regular-20" x="652.699844"/>
     <use xlink:href="#STIXGeneral-Regular-61" x="677.699829"/>
     <use xlink:href="#STIXGeneral-Regular-73" x="722.099823"/>
     <use xlink:href="#STIXGeneral-Regular-20" x="760.999817"/>
     <use xlink:href="#STIXGeneral-Regular-61" x="785.999802"/>
     <use xlink:href="#STIXGeneral-Regular-20" x="830.399796"/>
     <use xlink:href="#STIXGeneral-Regular-66" x="855.39978"/>
     <use xlink:href="#STIXGeneral-Regular-75" x="888.699768"/>
     <use xlink:href="#STIXGeneral-Regular-6e" x="938.699753"/>
     <use xlink:href="#STIXGeneral-Regular-63" x="988.699738"/>
     <use xlink:href="#STIXGeneral-Regular-74" x="1033.099731"/>
     <use xlink:href="#STIXGeneral-Regular-69" x="1060.899719"/>
     <use xlink:href="#STIXGeneral-Regular-6f" x="1088.699707"/>
     <use xlink:href="#STIXGeneral-Regular-6e" x="1138.699692"/>
     <use xlink:href="#STIXGeneral-Regular-20" x="1188.699677"/>
     <use xlink:href="#STIXGeneral-Regular-6f" x="1213.699661"/>
     <use xlink:href="#STIXGeneral-Regular-66" x="1263.699646"/>
     <use xlink:href="#STIXGeneral-Regular-20" x="1296.999634"/>
     <use xlink:href="#STIXGeneral-Regular-61" x="1321.999619"/>
     <use xlink:href="#STIXGeneral-Regular-67" x="1366.399612"/>
     <use xlink:href="#STIXGeneral-Regular-65" x="1416.399597"/>
     <use xlink:href="#STIXGeneral-Regular-20" x="1460.799591"/>
     <use xlink:href="#STIXGeneral-Regular-63" x="1485.799576"/>
     <use xlink:href="#STIXGeneral-Regular-6f" x="1530.19957"/>
     <use xlink:href="#STIXGeneral-Regular-6e" x="1580.199554"/>
     <use xlink:href="#STIXGeneral-Regular-64" x="1630.199539"/>
     <use xlink:href="#STIXGeneral-Regular-69" x="1680.199524"/>
     <use xlink:href="#STIXGeneral-Regular-74" x="1707.999512"/>
     <use xlink:href="#STIXGeneral-Regular-69" x="1735.7995"/>
     <use xlink:href="#STIXGeneral-Regular-6f" x="1763.599487"/>
     <use xlink:href="#STIXGeneral-Regular-6e" x="1813.599472"/>
     <use xlink:href="#STIXGeneral-Regular-65" x="1863.599457"/>
     <use xlink:href="#STIXGeneral-Regular-64" x="1907.999451"/>
     <use xlink:href="#STIXGeneral-Regular-20" x="1957.999435"/>
     <use xlink:href="#STIXGeneral-Regular-6f" x="1982.99942"/>
     <use xlink:href="#STIXGeneral-Regular-6e" x="2032.999405"/>
     <use xlink:href="#STIXGeneral-Regular-20" x="2082.99939"/>
     <use xlink:href="#STIXGeneral-Regular-70" x="2107.999374"/>
     <use xlink:href="#STIXGeneral-Regular-72" x="2157.999359"/>
     <use xlink:href="#STIXGeneral-Regular-6f" x="2191.299347"/>
     <use xlink:href="#STIXGeneral-Regular-64" x="2241.299332"/>
     <use xlink:href="#STIXGeneral-Regular-75" x="2291.299316"/>
     <use xlink:href="#STIXGeneral-Regular-63" x="2341.299301"/>
     <use xlink:href="#STIXGeneral-Regular-74" x="2385.699295"/>
     <use xlink:href="#STIXGeneral-Regular-73" x="2413.499283"/>
    </g>
   </g>
  </g>
 </g>
 <defs>
  <clipPath id="p9064ee0a81">
   <rect x="63.6" y="26.176406" width="446.4" height="221.76"/>
  </clipPath>
 </defs>
</svg>
