<?xml version="1.0" encoding="utf-8" standalone="no"?>
<!DOCTYPE svg PUBLIC "-//W3C//DTD SVG 1.1//EN"
  "http://www.w3.org/Graphics/SVG/1.1/DTD/svg11.dtd">
<svg xmlns:xlink="http://www.w3.org/1999/xlink" width="410.32pt" height="312.112pt" viewBox="0 0 410.32 312.112" xmlns="http://www.w3.org/2000/svg" version="1.1">
 <metadata>
  <rdf:RDF xmlns:dc="http://purl.org/dc/elements/1.1/" xmlns:cc="http://creativecommons.org/ns#" xmlns:rdf="http://www.w3.org/1999/02/22-rdf-syntax-ns#">
   <cc:Work>
    <dc:type rdf:resource="http://purl.org/dc/dcmitype/StillImage"/>
    <dc:date>2022-09-16T15:04:33.562607</dc:date>
    <dc:format>image/svg+xml</dc:format>
    <dc:creator>
     <cc:Agent>
      <dc:title>Matplotlib v3.5.3, https://matplotlib.org/</dc:title>
     </cc:Agent>
    </dc:creator>
   </cc:Work>
  </rdf:RDF>
 </metadata>
 <defs>
  <style type="text/css">*{stroke-linejoin: round; stroke-linecap: butt}</style>
 </defs>
 <g id="figure_1">
  <g id="patch_1">
   <path d="M -0 312.112 
L 410.32 312.112 
L 410.32 0 
L -0 0 
z
" style="fill: #ffffff"/>
  </g>
  <g id="axes_1">
   <g id="patch_2">
    <path d="M 43 273.312 
L 400.12 273.312 
L 400.12 7.2 
L 43 7.2 
z
" style="fill: #ffffff"/>
   </g>
   <g id="PolyCollection_1">
    <defs>
     <path id="ma54ecd9f7d" d="M 134.605932 -67.752795 
L 134.605932 -38.8 
L 135.321603 -38.8 
L 136.037275 -38.8 
L 136.752946 -38.8 
L 137.468617 -38.8 
L 138.184289 -38.8 
L 138.89996 -38.8 
L 139.615631 -38.8 
L 140.331303 -38.8 
L 141.046974 -38.8 
L 141.762645 -38.8 
L 142.478317 -38.8 
L 143.193988 -38.8 
L 143.909659 -38.8 
L 144.625331 -38.8 
L 145.341002 -38.8 
L 146.056673 -38.8 
L 146.772345 -38.8 
L 147.488016 -38.8 
L 148.203687 -38.8 
L 148.919359 -38.8 
L 149.63503 -38.8 
L 150.350701 -38.8 
L 151.066373 -38.8 
L 151.782044 -38.8 
L 152.497715 -38.8 
L 153.213387 -38.8 
L 153.929058 -38.8 
L 154.644729 -38.8 
L 155.360401 -38.8 
L 156.076072 -38.8 
L 156.791743 -38.8 
L 157.507415 -38.8 
L 158.223086 -38.8 
L 158.938758 -38.8 
L 159.654429 -38.8 
L 160.3701 -38.8 
L 161.085772 -38.8 
L 161.801443 -38.8 
L 162.517114 -38.8 
L 163.232786 -38.8 
L 163.948457 -38.8 
L 164.664128 -38.8 
L 165.3798 -38.8 
L 166.095471 -38.8 
L 166.811142 -38.8 
L 167.526814 -38.8 
L 168.242485 -38.8 
L 168.958156 -38.8 
L 169.673828 -38.8 
L 170.389499 -38.8 
L 171.10517 -38.8 
L 171.820842 -38.8 
L 172.536513 -38.8 
L 173.252184 -38.8 
L 173.967856 -38.8 
L 174.683527 -38.8 
L 175.399198 -38.8 
L 176.11487 -38.8 
L 176.830541 -38.8 
L 177.546212 -38.8 
L 178.261884 -38.8 
L 178.977555 -38.8 
L 179.693226 -38.8 
L 180.408898 -38.8 
L 181.124569 -38.8 
L 181.84024 -38.8 
L 182.555912 -38.8 
L 183.271583 -38.8 
L 183.987255 -38.8 
L 184.702926 -38.8 
L 185.418597 -38.8 
L 186.134269 -38.8 
L 186.84994 -38.8 
L 187.565611 -38.8 
L 188.281283 -38.8 
L 188.996954 -38.8 
L 189.712625 -38.8 
L 190.428297 -38.8 
L 191.143968 -38.8 
L 191.859639 -38.8 
L 192.575311 -38.8 
L 193.290982 -38.8 
L 194.006653 -38.8 
L 194.722325 -38.8 
L 195.437996 -38.8 
L 196.153667 -38.8 
L 196.869339 -38.8 
L 197.58501 -38.8 
L 198.300681 -38.8 
L 199.016353 -38.8 
L 199.732024 -38.8 
L 200.447695 -38.8 
L 201.163367 -38.8 
L 201.879038 -38.8 
L 202.594709 -38.8 
L 203.310381 -38.8 
L 204.026052 -38.8 
L 204.741723 -38.8 
L 205.457395 -38.8 
L 206.173066 -38.8 
L 206.888737 -38.8 
L 207.604409 -38.8 
L 208.32008 -38.8 
L 209.035752 -38.8 
L 209.751423 -38.8 
L 210.467094 -38.8 
L 211.182766 -38.8 
L 211.898437 -38.8 
L 212.614108 -38.8 
L 213.32978 -38.8 
L 214.045451 -38.8 
L 214.761122 -38.8 
L 215.476794 -38.8 
L 216.192465 -38.8 
L 216.908136 -38.8 
L 217.623808 -38.8 
L 218.339479 -38.8 
L 219.05515 -38.8 
L 219.770822 -38.8 
L 220.486493 -38.8 
L 221.202164 -38.8 
L 221.917836 -38.8 
L 222.633507 -38.8 
L 223.349178 -38.8 
L 224.06485 -38.8 
L 224.780521 -38.8 
L 225.496192 -38.8 
L 226.211864 -38.8 
L 226.927535 -38.8 
L 227.643206 -38.8 
L 228.358878 -38.8 
L 229.074549 -38.8 
L 229.79022 -38.8 
L 230.505892 -38.8 
L 231.221563 -38.8 
L 231.937234 -38.8 
L 232.652906 -38.8 
L 233.368577 -38.8 
L 234.084248 -38.8 
L 234.79992 -38.8 
L 235.515591 -38.8 
L 236.231263 -38.8 
L 236.946934 -38.8 
L 237.662605 -38.8 
L 238.378277 -38.8 
L 239.093948 -38.8 
L 239.809619 -38.8 
L 240.525291 -38.8 
L 241.240962 -38.8 
L 241.956633 -38.8 
L 242.672305 -38.8 
L 243.387976 -38.8 
L 244.103647 -38.8 
L 244.819319 -38.8 
L 245.53499 -38.8 
L 246.250661 -38.8 
L 246.966333 -38.8 
L 247.682004 -38.8 
L 248.397675 -38.8 
L 249.113347 -38.8 
L 249.829018 -38.8 
L 250.544689 -38.8 
L 251.260361 -38.8 
L 251.976032 -38.8 
L 252.691703 -38.8 
L 253.407375 -38.8 
L 254.123046 -38.8 
L 254.838717 -38.8 
L 255.554389 -38.8 
L 256.27006 -38.8 
L 256.985731 -38.8 
L 257.701403 -38.8 
L 258.417074 -38.8 
L 259.132745 -38.8 
L 259.848417 -38.8 
L 260.564088 -38.8 
L 261.27976 -38.8 
L 261.995431 -38.8 
L 262.711102 -38.8 
L 263.426774 -38.8 
L 264.142445 -38.8 
L 264.858116 -38.8 
L 265.573788 -38.8 
L 266.289459 -38.8 
L 267.00513 -38.8 
L 267.720802 -38.8 
L 268.436473 -38.8 
L 269.152144 -38.8 
L 269.867816 -38.8 
L 270.583487 -38.8 
L 271.299158 -38.8 
L 272.01483 -38.8 
L 272.730501 -38.8 
L 273.446172 -38.8 
L 274.161844 -38.8 
L 274.877515 -38.8 
L 275.593186 -38.8 
L 276.308858 -38.8 
L 277.024529 -38.8 
L 277.7402 -38.8 
L 278.455872 -38.8 
L 279.171543 -38.8 
L 279.887214 -38.8 
L 280.602886 -38.8 
L 281.318557 -38.8 
L 282.034228 -38.8 
L 282.7499 -38.8 
L 283.465571 -38.8 
L 284.181242 -38.8 
L 284.896914 -38.8 
L 285.612585 -38.8 
L 286.328257 -38.8 
L 287.043928 -38.8 
L 287.759599 -38.8 
L 288.475271 -38.8 
L 289.190942 -38.8 
L 289.906613 -38.8 
L 290.622285 -38.8 
L 291.337956 -38.8 
L 292.053627 -38.8 
L 292.769299 -38.8 
L 293.48497 -38.8 
L 294.200641 -38.8 
L 294.916313 -38.8 
L 295.631984 -38.8 
L 296.347655 -38.8 
L 297.063327 -38.8 
L 297.778998 -38.8 
L 298.494669 -38.8 
L 299.210341 -38.8 
L 299.926012 -38.8 
L 300.641683 -38.8 
L 301.357355 -38.8 
L 302.073026 -38.8 
L 302.788697 -38.8 
L 303.504369 -38.8 
L 304.22004 -38.8 
L 304.935711 -38.8 
L 305.651383 -38.8 
L 306.367054 -38.8 
L 307.082725 -38.8 
L 307.798397 -38.8 
L 308.514068 -38.8 
L 308.514068 -67.752795 
L 308.514068 -67.752795 
L 307.798397 -68.667383 
L 307.082725 -69.602944 
L 306.367054 -70.559646 
L 305.651383 -71.537646 
L 304.935711 -72.537091 
L 304.22004 -73.558112 
L 303.504369 -74.600831 
L 302.788697 -75.665354 
L 302.073026 -76.751774 
L 301.357355 -77.86017 
L 300.641683 -78.990606 
L 299.926012 -80.14313 
L 299.210341 -81.317775 
L 298.494669 -82.514556 
L 297.778998 -83.733474 
L 297.063327 -84.97451 
L 296.347655 -86.237628 
L 295.631984 -87.522775 
L 294.916313 -88.829877 
L 294.200641 -90.158842 
L 293.48497 -91.509561 
L 292.769299 -92.8819 
L 292.053627 -94.275709 
L 291.337956 -95.690815 
L 290.622285 -97.127024 
L 289.906613 -98.584123 
L 289.190942 -100.061874 
L 288.475271 -101.56002 
L 287.759599 -103.078279 
L 287.043928 -104.616348 
L 286.328257 -106.173901 
L 285.612585 -107.75059 
L 284.896914 -109.346041 
L 284.181242 -110.959861 
L 283.465571 -112.59163 
L 282.7499 -114.240905 
L 282.034228 -115.907221 
L 281.318557 -117.590089 
L 280.602886 -119.288994 
L 279.887214 -121.003401 
L 279.171543 -122.732749 
L 278.455872 -124.476454 
L 277.7402 -126.233909 
L 277.024529 -128.004482 
L 276.308858 -129.787522 
L 275.593186 -131.582351 
L 274.877515 -133.388269 
L 274.161844 -135.204557 
L 273.446172 -137.030469 
L 272.730501 -138.865242 
L 272.01483 -140.708089 
L 271.299158 -142.558202 
L 270.583487 -144.414754 
L 269.867816 -146.276898 
L 269.152144 -148.143766 
L 268.436473 -150.014473 
L 267.720802 -151.888114 
L 267.00513 -153.763768 
L 266.289459 -155.640496 
L 265.573788 -157.517344 
L 264.858116 -159.39334 
L 264.142445 -161.267499 
L 263.426774 -163.138822 
L 262.711102 -165.006297 
L 261.995431 -166.868899 
L 261.27976 -168.725591 
L 260.564088 -170.575326 
L 259.848417 -172.417048 
L 259.132745 -174.249692 
L 258.417074 -176.072185 
L 257.701403 -177.883446 
L 256.985731 -179.682391 
L 256.27006 -181.467931 
L 255.554389 -183.23897 
L 254.838717 -184.994414 
L 254.123046 -186.733165 
L 253.407375 -188.454126 
L 252.691703 -190.156199 
L 251.976032 -191.838291 
L 251.260361 -193.49931 
L 250.544689 -195.138168 
L 249.829018 -196.753785 
L 249.113347 -198.345085 
L 248.397675 -199.911001 
L 247.682004 -201.450476 
L 246.966333 -202.962461 
L 246.250661 -204.44592 
L 245.53499 -205.89983 
L 244.819319 -207.323181 
L 244.103647 -208.714978 
L 243.387976 -210.074241 
L 242.672305 -211.400009 
L 241.956633 -212.691339 
L 241.240962 -213.947307 
L 240.525291 -215.16701 
L 239.809619 -216.349565 
L 239.093948 -217.494115 
L 238.378277 -218.599823 
L 237.662605 -219.66588 
L 236.946934 -220.6915 
L 236.231263 -221.675926 
L 235.515591 -222.618428 
L 234.79992 -223.518304 
L 234.084248 -224.37488 
L 233.368577 -225.187517 
L 232.652906 -225.955601 
L 231.937234 -226.678555 
L 231.221563 -227.355831 
L 230.505892 -227.986916 
L 229.79022 -228.571331 
L 229.074549 -229.10863 
L 228.358878 -229.598404 
L 227.643206 -230.040278 
L 226.927535 -230.433914 
L 226.211864 -230.77901 
L 225.496192 -231.075301 
L 224.780521 -231.32256 
L 224.06485 -231.520596 
L 223.349178 -231.669256 
L 222.633507 -231.768427 
L 221.917836 -231.818031 
L 221.202164 -231.818031 
L 220.486493 -231.768427 
L 219.770822 -231.669256 
L 219.05515 -231.520596 
L 218.339479 -231.32256 
L 217.623808 -231.075301 
L 216.908136 -230.77901 
L 216.192465 -230.433914 
L 215.476794 -230.040278 
L 214.761122 -229.598404 
L 214.045451 -229.10863 
L 213.32978 -228.571331 
L 212.614108 -227.986916 
L 211.898437 -227.355831 
L 211.182766 -226.678555 
L 210.467094 -225.955601 
L 209.751423 -225.187517 
L 209.035752 -224.37488 
L 208.32008 -223.518304 
L 207.604409 -222.618428 
L 206.888737 -221.675926 
L 206.173066 -220.6915 
L 205.457395 -219.66588 
L 204.741723 -218.599823 
L 204.026052 -217.494115 
L 203.310381 -216.349565 
L 202.594709 -215.16701 
L 201.879038 -213.947307 
L 201.163367 -212.691339 
L 200.447695 -211.400009 
L 199.732024 -210.074241 
L 199.016353 -208.714978 
L 198.300681 -207.323181 
L 197.58501 -205.89983 
L 196.869339 -204.44592 
L 196.153667 -202.962461 
L 195.437996 -201.450476 
L 194.722325 -199.911001 
L 194.006653 -198.345085 
L 193.290982 -196.753785 
L 192.575311 -195.138168 
L 191.859639 -193.49931 
L 191.143968 -191.838291 
L 190.428297 -190.156199 
L 189.712625 -188.454126 
L 188.996954 -186.733165 
L 188.281283 -184.994414 
L 187.565611 -183.23897 
L 186.84994 -181.467931 
L 186.134269 -179.682391 
L 185.418597 -177.883446 
L 184.702926 -176.072185 
L 183.987255 -174.249692 
L 183.271583 -172.417048 
L 182.555912 -170.575326 
L 181.84024 -168.725591 
L 181.124569 -166.868899 
L 180.408898 -165.006297 
L 179.693226 -163.138822 
L 178.977555 -161.267499 
L 178.261884 -159.39334 
L 177.546212 -157.517344 
L 176.830541 -155.640496 
L 176.11487 -153.763768 
L 175.399198 -151.888114 
L 174.683527 -150.014473 
L 173.967856 -148.143766 
L 173.252184 -146.276898 
L 172.536513 -144.414754 
L 171.820842 -142.558202 
L 171.10517 -140.708089 
L 170.389499 -138.865242 
L 169.673828 -137.030469 
L 168.958156 -135.204557 
L 168.242485 -133.388269 
L 167.526814 -131.582351 
L 166.811142 -129.787522 
L 166.095471 -128.004482 
L 165.3798 -126.233909 
L 164.664128 -124.476454 
L 163.948457 -122.732749 
L 163.232786 -121.003401 
L 162.517114 -119.288994 
L 161.801443 -117.590089 
L 161.085772 -115.907221 
L 160.3701 -114.240905 
L 159.654429 -112.59163 
L 158.938758 -110.959861 
L 158.223086 -109.346041 
L 157.507415 -107.75059 
L 156.791743 -106.173901 
L 156.076072 -104.616348 
L 155.360401 -103.078279 
L 154.644729 -101.56002 
L 153.929058 -100.061874 
L 153.213387 -98.584123 
L 152.497715 -97.127024 
L 151.782044 -95.690815 
L 151.066373 -94.275709 
L 150.350701 -92.8819 
L 149.63503 -91.509561 
L 148.919359 -90.158842 
L 148.203687 -88.829877 
L 147.488016 -87.522775 
L 146.772345 -86.237628 
L 146.056673 -84.97451 
L 145.341002 -83.733474 
L 144.625331 -82.514556 
L 143.909659 -81.317775 
L 143.193988 -80.14313 
L 142.478317 -78.990606 
L 141.762645 -77.86017 
L 141.046974 -76.751774 
L 140.331303 -75.665354 
L 139.615631 -74.600831 
L 138.89996 -73.558112 
L 138.184289 -72.537091 
L 137.468617 -71.537646 
L 136.752946 -70.559646 
L 136.037275 -69.602944 
L 135.321603 -68.667383 
L 134.605932 -67.752795 
z
" style="stroke: #000000; stroke-opacity: 0.2; stroke-width: 0.8"/>
    </defs>
    <g clip-path="url(#pdfb3e53f12)">
     <use xlink:href="#ma54ecd9f7d" x="0" y="312.112" style="fill: #bc80bd; fill-opacity: 0.2; stroke: #000000; stroke-opacity: 0.2; stroke-width: 0.8"/>
    </g>
   </g>
   <g id="matplotlib.axis_1">
    <g id="xtick_1">
     <g id="line2d_1">
      <defs>
       <path id="m5d3a0976bc" d="M 0 0 
L 0 3.5 
" style="stroke: #323034; stroke-width: 0.8"/>
      </defs>
      <g>
       <use xlink:href="#m5d3a0976bc" x="43" y="273.312" style="fill: #323034; stroke: #323034; stroke-width: 0.8"/>
      </g>
     </g>
     <g id="text_1">
      <!-- $\mathdefault{−4}$ -->
      <g style="fill: #323034" transform="translate(35.86 288.507625)scale(0.12 -0.12)">
       <defs>
        <path id="STIXGeneral-Regular-2212" d="M 3974 1408 
L 410 1408 
L 410 1830 
L 3974 1830 
L 3974 1408 
z
" transform="scale(0.015625)"/>
        <path id="STIXGeneral-Regular-34" d="M 3027 1069 
L 2368 1069 
L 2368 0 
L 1869 0 
L 1869 1069 
L 77 1069 
L 77 1478 
L 2086 4326 
L 2368 4326 
L 2368 1478 
L 3027 1478 
L 3027 1069 
z
M 1869 1478 
L 1869 3674 
L 333 1478 
L 1869 1478 
z
" transform="scale(0.015625)"/>
       </defs>
       <use xlink:href="#STIXGeneral-Regular-2212" transform="translate(0 0.40625)"/>
       <use xlink:href="#STIXGeneral-Regular-34" transform="translate(68.499985 0.40625)"/>
      </g>
     </g>
    </g>
    <g id="xtick_2">
     <g id="line2d_2">
      <g>
       <use xlink:href="#m5d3a0976bc" x="87.64" y="273.312" style="fill: #323034; stroke: #323034; stroke-width: 0.8"/>
      </g>
     </g>
     <g id="text_2">
      <!-- $\mathdefault{−3}$ -->
      <g style="fill: #323034" transform="translate(80.5 288.507625)scale(0.12 -0.12)">
       <defs>
        <path id="STIXGeneral-Regular-33" d="M 390 3264 
L 288 3290 
Q 435 3770 748 4048 
Q 1062 4326 1542 4326 
Q 1990 4326 2265 4083 
Q 2541 3840 2541 3450 
Q 2541 2925 1946 2566 
Q 2298 2413 2477 2227 
Q 2758 1914 2758 1402 
Q 2758 890 2464 506 
Q 2246 211 1840 60 
Q 1434 -90 979 -90 
Q 262 -90 262 275 
Q 262 378 339 442 
Q 416 506 525 506 
Q 685 506 915 339 
Q 1197 141 1466 141 
Q 1818 141 2058 425 
Q 2298 710 2298 1120 
Q 2298 1856 1632 2048 
Q 1434 2112 979 2112 
L 979 2202 
Q 1338 2323 1517 2432 
Q 2035 2726 2035 3290 
Q 2035 3610 1852 3776 
Q 1670 3942 1344 3942 
Q 768 3942 390 3264 
z
" transform="scale(0.015625)"/>
       </defs>
       <use xlink:href="#STIXGeneral-Regular-2212" transform="translate(0 0.40625)"/>
       <use xlink:href="#STIXGeneral-Regular-33" transform="translate(68.499985 0.40625)"/>
      </g>
     </g>
    </g>
    <g id="xtick_3">
     <g id="line2d_3">
      <g>
       <use xlink:href="#m5d3a0976bc" x="132.28" y="273.312" style="fill: #323034; stroke: #323034; stroke-width: 0.8"/>
      </g>
     </g>
     <g id="text_3">
      <!-- $\mathdefault{−2}$ -->
      <g style="fill: #323034" transform="translate(125.14 288.507625)scale(0.12 -0.12)">
       <defs>
        <path id="STIXGeneral-Regular-32" d="M 3034 877 
L 2688 0 
L 186 0 
L 186 77 
L 1325 1286 
Q 1773 1754 1965 2144 
Q 2157 2534 2157 2950 
Q 2157 3379 1920 3616 
Q 1683 3853 1267 3853 
Q 922 3853 720 3673 
Q 518 3494 326 3021 
L 192 3053 
Q 301 3648 630 3987 
Q 960 4326 1523 4326 
Q 2054 4326 2380 4006 
Q 2707 3686 2707 3200 
Q 2707 2477 1888 1613 
L 832 486 
L 2330 486 
Q 2541 486 2665 569 
Q 2790 653 2944 915 
L 3034 877 
z
" transform="scale(0.015625)"/>
       </defs>
       <use xlink:href="#STIXGeneral-Regular-2212" transform="translate(0 0.40625)"/>
       <use xlink:href="#STIXGeneral-Regular-32" transform="translate(68.499985 0.40625)"/>
      </g>
     </g>
    </g>
    <g id="xtick_4">
     <g id="line2d_4">
      <g>
       <use xlink:href="#m5d3a0976bc" x="176.92" y="273.312" style="fill: #323034; stroke: #323034; stroke-width: 0.8"/>
      </g>
     </g>
     <g id="text_4">
      <!-- $\mathdefault{−1}$ -->
      <g style="fill: #323034" transform="translate(169.78 288.507625)scale(0.12 -0.12)">
       <defs>
        <path id="STIXGeneral-Regular-31" d="M 2522 0 
L 755 0 
L 755 96 
Q 1107 115 1235 227 
Q 1363 339 1363 608 
L 1363 3482 
Q 1363 3795 1171 3795 
Q 1082 3795 883 3718 
L 710 3654 
L 710 3744 
L 1856 4326 
L 1914 4307 
L 1914 486 
Q 1914 275 2042 185 
Q 2170 96 2522 96 
L 2522 0 
z
" transform="scale(0.015625)"/>
       </defs>
       <use xlink:href="#STIXGeneral-Regular-2212" transform="translate(0 0.40625)"/>
       <use xlink:href="#STIXGeneral-Regular-31" transform="translate(68.499985 0.40625)"/>
      </g>
     </g>
    </g>
    <g id="xtick_5">
     <g id="line2d_5">
      <g>
       <use xlink:href="#m5d3a0976bc" x="221.56" y="273.312" style="fill: #323034; stroke: #323034; stroke-width: 0.8"/>
      </g>
     </g>
     <g id="text_5">
      <!-- $\mathdefault{0}$ -->
      <g style="fill: #323034" transform="translate(218.56 288.507625)scale(0.12 -0.12)">
       <defs>
        <path id="STIXGeneral-Regular-30" d="M 3046 2112 
Q 3046 1683 2963 1302 
Q 2880 922 2717 602 
Q 2554 282 2266 96 
Q 1978 -90 1600 -90 
Q 1210 -90 915 108 
Q 621 307 461 640 
Q 301 973 227 1350 
Q 154 1728 154 2150 
Q 154 2746 301 3222 
Q 448 3699 790 4012 
Q 1133 4326 1626 4326 
Q 2253 4326 2649 3712 
Q 3046 3098 3046 2112 
z
M 2432 2080 
Q 2432 3091 2217 3625 
Q 2003 4160 1587 4160 
Q 1190 4160 979 3622 
Q 768 3085 768 2106 
Q 768 1120 979 598 
Q 1190 77 1600 77 
Q 2003 77 2217 598 
Q 2432 1120 2432 2080 
z
" transform="scale(0.015625)"/>
       </defs>
       <use xlink:href="#STIXGeneral-Regular-30" transform="translate(0 0.40625)"/>
      </g>
     </g>
    </g>
    <g id="xtick_6">
     <g id="line2d_6">
      <g>
       <use xlink:href="#m5d3a0976bc" x="266.2" y="273.312" style="fill: #323034; stroke: #323034; stroke-width: 0.8"/>
      </g>
     </g>
     <g id="text_6">
      <!-- $\mathdefault{1}$ -->
      <g style="fill: #323034" transform="translate(263.2 288.507625)scale(0.12 -0.12)">
       <use xlink:href="#STIXGeneral-Regular-31" transform="translate(0 0.40625)"/>
      </g>
     </g>
    </g>
    <g id="xtick_7">
     <g id="line2d_7">
      <g>
       <use xlink:href="#m5d3a0976bc" x="310.84" y="273.312" style="fill: #323034; stroke: #323034; stroke-width: 0.8"/>
      </g>
     </g>
     <g id="text_7">
      <!-- $\mathdefault{2}$ -->
      <g style="fill: #323034" transform="translate(307.84 288.507625)scale(0.12 -0.12)">
       <use xlink:href="#STIXGeneral-Regular-32" transform="translate(0 0.40625)"/>
      </g>
     </g>
    </g>
    <g id="xtick_8">
     <g id="line2d_8">
      <g>
       <use xlink:href="#m5d3a0976bc" x="355.48" y="273.312" style="fill: #323034; stroke: #323034; stroke-width: 0.8"/>
      </g>
     </g>
     <g id="text_8">
      <!-- $\mathdefault{3}$ -->
      <g style="fill: #323034" transform="translate(352.48 288.507625)scale(0.12 -0.12)">
       <use xlink:href="#STIXGeneral-Regular-33" transform="translate(0 0.40625)"/>
      </g>
     </g>
    </g>
    <g id="xtick_9">
     <g id="line2d_9">
      <g>
       <use xlink:href="#m5d3a0976bc" x="400.12" y="273.312" style="fill: #323034; stroke: #323034; stroke-width: 0.8"/>
      </g>
     </g>
     <g id="text_9">
      <!-- $\mathdefault{4}$ -->
      <g style="fill: #323034" transform="translate(397.12 288.507625)scale(0.12 -0.12)">
       <use xlink:href="#STIXGeneral-Regular-34" transform="translate(0 0.40625)"/>
      </g>
     </g>
    </g>
    <g id="text_10">
     <!-- x -->
     <g transform="translate(218.56 302.307625)scale(0.12 -0.12)">
      <defs>
       <path id="STIXGeneral-Regular-78" d="M 3066 0 
L 1779 0 
L 1779 96 
Q 1939 109 1987 137 
Q 2035 166 2035 250 
Q 2035 307 1997 365 
L 1414 1261 
L 909 474 
Q 781 275 781 211 
Q 781 96 1037 96 
L 1037 0 
L 109 0 
L 109 96 
Q 269 109 355 169 
Q 442 230 576 422 
L 1306 1478 
L 704 2400 
Q 557 2624 454 2704 
Q 352 2784 211 2784 
L 154 2784 
L 154 2880 
L 1478 2880 
L 1478 2784 
Q 1203 2778 1203 2643 
Q 1203 2509 1498 2074 
Q 1581 1958 1587 1946 
Q 1619 1990 1779 2227 
Q 1811 2285 1856 2349 
Q 1901 2413 1923 2451 
Q 1946 2490 1971 2528 
Q 1997 2566 2006 2595 
Q 2016 2624 2016 2643 
Q 2016 2765 1760 2784 
L 1760 2880 
L 2771 2880 
L 2771 2784 
Q 2445 2771 2253 2502 
L 1722 1734 
L 2541 480 
Q 2790 96 3066 96 
L 3066 0 
z
" transform="scale(0.015625)"/>
      </defs>
      <use xlink:href="#STIXGeneral-Regular-78"/>
     </g>
    </g>
   </g>
   <g id="matplotlib.axis_2">
    <g id="ytick_1">
     <g id="line2d_10">
      <defs>
       <path id="m8697a82657" d="M 0 0 
L -3.5 0 
" style="stroke: #323034; stroke-width: 0.8"/>
      </defs>
      <g>
       <use xlink:href="#m8697a82657" x="43" y="273.312" style="fill: #323034; stroke: #323034; stroke-width: 0.8"/>
      </g>
     </g>
     <g id="text_11">
      <!-- $\mathdefault{0.0}$ -->
      <g style="fill: #323034" transform="translate(21 277.409812)scale(0.12 -0.12)">
       <defs>
        <path id="STIXGeneral-Regular-2e" d="M 1158 275 
Q 1158 134 1052 32 
Q 947 -70 800 -70 
Q 653 -70 550 32 
Q 448 134 448 281 
Q 448 429 553 534 
Q 659 640 806 640 
Q 947 640 1052 531 
Q 1158 422 1158 275 
z
" transform="scale(0.015625)"/>
       </defs>
       <use xlink:href="#STIXGeneral-Regular-30" transform="translate(0 0.40625)"/>
       <use xlink:href="#STIXGeneral-Regular-2e" transform="translate(49.999985 0.40625)"/>
       <use xlink:href="#STIXGeneral-Regular-30" transform="translate(74.999969 0.40625)"/>
      </g>
     </g>
    </g>
    <g id="ytick_2">
     <g id="line2d_11">
      <g>
       <use xlink:href="#m8697a82657" x="43" y="224.928" style="fill: #323034; stroke: #323034; stroke-width: 0.8"/>
      </g>
     </g>
     <g id="text_12">
      <!-- $\mathdefault{0.1}$ -->
      <g style="fill: #323034" transform="translate(21 229.025812)scale(0.12 -0.12)">
       <use xlink:href="#STIXGeneral-Regular-30" transform="translate(0 0.40625)"/>
       <use xlink:href="#STIXGeneral-Regular-2e" transform="translate(49.999985 0.40625)"/>
       <use xlink:href="#STIXGeneral-Regular-31" transform="translate(74.999969 0.40625)"/>
      </g>
     </g>
    </g>
    <g id="ytick_3">
     <g id="line2d_12">
      <g>
       <use xlink:href="#m8697a82657" x="43" y="176.544" style="fill: #323034; stroke: #323034; stroke-width: 0.8"/>
      </g>
     </g>
     <g id="text_13">
      <!-- $\mathdefault{0.2}$ -->
      <g style="fill: #323034" transform="translate(21 180.641812)scale(0.12 -0.12)">
       <use xlink:href="#STIXGeneral-Regular-30" transform="translate(0 0.40625)"/>
       <use xlink:href="#STIXGeneral-Regular-2e" transform="translate(49.999985 0.40625)"/>
       <use xlink:href="#STIXGeneral-Regular-32" transform="translate(74.999969 0.40625)"/>
      </g>
     </g>
    </g>
    <g id="ytick_4">
     <g id="line2d_13">
      <g>
       <use xlink:href="#m8697a82657" x="43" y="128.16" style="fill: #323034; stroke: #323034; stroke-width: 0.8"/>
      </g>
     </g>
     <g id="text_14">
      <!-- $\mathdefault{0.3}$ -->
      <g style="fill: #323034" transform="translate(21 132.257812)scale(0.12 -0.12)">
       <use xlink:href="#STIXGeneral-Regular-30" transform="translate(0 0.40625)"/>
       <use xlink:href="#STIXGeneral-Regular-2e" transform="translate(49.999985 0.40625)"/>
       <use xlink:href="#STIXGeneral-Regular-33" transform="translate(74.999969 0.40625)"/>
      </g>
     </g>
    </g>
    <g id="ytick_5">
     <g id="line2d_14">
      <g>
       <use xlink:href="#m8697a82657" x="43" y="79.776" style="fill: #323034; stroke: #323034; stroke-width: 0.8"/>
      </g>
     </g>
     <g id="text_15">
      <!-- $\mathdefault{0.4}$ -->
      <g style="fill: #323034" transform="translate(21 83.873812)scale(0.12 -0.12)">
       <use xlink:href="#STIXGeneral-Regular-30" transform="translate(0 0.40625)"/>
       <use xlink:href="#STIXGeneral-Regular-2e" transform="translate(49.999985 0.40625)"/>
       <use xlink:href="#STIXGeneral-Regular-34" transform="translate(74.999969 0.40625)"/>
      </g>
     </g>
    </g>
    <g id="ytick_6">
     <g id="line2d_15">
      <g>
       <use xlink:href="#m8697a82657" x="43" y="31.392" style="fill: #323034; stroke: #323034; stroke-width: 0.8"/>
      </g>
     </g>
     <g id="text_16">
      <!-- $\mathdefault{0.5}$ -->
      <g style="fill: #323034" transform="translate(21 35.489812)scale(0.12 -0.12)">
       <defs>
        <path id="STIXGeneral-Regular-35" d="M 2803 4358 
L 2573 3814 
Q 2534 3731 2400 3731 
L 1158 3731 
L 902 3187 
Q 1606 3053 1920 2896 
Q 2234 2739 2502 2368 
Q 2726 2061 2726 1555 
Q 2726 1094 2576 780 
Q 2426 467 2099 224 
Q 1664 -90 1011 -90 
Q 646 -90 422 19 
Q 198 128 198 307 
Q 198 550 486 550 
Q 717 550 960 352 
Q 1210 147 1414 147 
Q 1747 147 2012 480 
Q 2278 813 2278 1229 
Q 2278 1843 1850 2189 
Q 1293 2637 486 2637 
Q 410 2637 410 2688 
L 416 2720 
L 1114 4237 
L 2438 4237 
Q 2547 4237 2608 4269 
Q 2669 4301 2746 4403 
L 2803 4358 
z
" transform="scale(0.015625)"/>
       </defs>
       <use xlink:href="#STIXGeneral-Regular-30" transform="translate(0 0.203125)"/>
       <use xlink:href="#STIXGeneral-Regular-2e" transform="translate(49.999985 0.203125)"/>
       <use xlink:href="#STIXGeneral-Regular-35" transform="translate(74.999969 0.203125)"/>
      </g>
     </g>
    </g>
    <g id="text_17">
     <!-- PDF -->
     <g transform="translate(15.395625 151.266)rotate(-90)scale(0.12 -0.12)">
      <defs>
       <path id="STIXGeneral-Regular-50" d="M 102 4237 
L 1760 4237 
Q 2669 4237 3149 3834 
Q 3469 3565 3469 3072 
Q 3469 2560 3104 2234 
Q 2835 1990 2553 1916 
Q 2272 1843 1734 1843 
Q 1549 1843 1293 1862 
L 1293 717 
Q 1293 352 1398 246 
Q 1504 141 1894 122 
L 1894 0 
L 102 0 
L 102 122 
Q 474 147 557 256 
Q 640 365 640 781 
L 640 3526 
Q 640 3885 547 3987 
Q 454 4090 102 4115 
L 102 4237 
z
M 1293 3770 
L 1293 2118 
Q 1510 2099 1683 2099 
Q 2202 2099 2486 2352 
Q 2771 2605 2771 3040 
Q 2771 3558 2476 3779 
Q 2182 4000 1517 4000 
Q 1382 4000 1337 3952 
Q 1293 3904 1293 3770 
z
" transform="scale(0.015625)"/>
       <path id="STIXGeneral-Regular-44" d="M 102 4237 
L 1830 4237 
Q 3078 4237 3750 3654 
Q 4384 3110 4384 2138 
Q 4384 966 3514 410 
Q 2880 0 1901 0 
L 102 0 
L 102 122 
Q 474 147 570 252 
Q 666 358 666 736 
L 666 3520 
Q 666 3891 570 3990 
Q 474 4090 102 4115 
L 102 4237 
z
M 1318 3731 
L 1318 538 
Q 1318 365 1379 301 
Q 1440 237 1626 237 
Q 2125 237 2432 307 
Q 2739 378 3021 570 
Q 3686 1018 3686 2099 
Q 3686 3027 3078 3558 
Q 2803 3802 2476 3901 
Q 2150 4000 1658 4000 
Q 1472 4000 1395 3942 
Q 1318 3885 1318 3731 
z
" transform="scale(0.015625)"/>
       <path id="STIXGeneral-Regular-46" d="M 3494 3322 
L 3334 3322 
Q 3264 3757 3094 3875 
Q 2925 3994 2349 3994 
L 1504 3994 
Q 1370 3994 1328 3946 
Q 1286 3898 1286 3744 
L 1286 2355 
L 2195 2355 
Q 2598 2355 2736 2470 
Q 2874 2586 2918 2963 
L 3066 2963 
L 3066 1472 
L 2918 1472 
Q 2880 1862 2745 1977 
Q 2611 2093 2195 2093 
L 1286 2093 
L 1286 717 
Q 1286 352 1392 246 
Q 1498 141 1869 122 
L 1869 0 
L 70 0 
L 70 122 
Q 435 147 534 259 
Q 634 371 634 787 
L 634 3526 
Q 634 3878 538 3984 
Q 442 4090 77 4115 
L 77 4237 
L 3462 4237 
L 3494 3322 
z
" transform="scale(0.015625)"/>
      </defs>
      <use xlink:href="#STIXGeneral-Regular-50"/>
      <use xlink:href="#STIXGeneral-Regular-44" x="55.699997"/>
      <use xlink:href="#STIXGeneral-Regular-46" x="127.899979"/>
     </g>
    </g>
   </g>
   <g id="line2d_16">
    <path d="M 43 273.247248 
L 59.460441 273.04758 
L 69.47984 272.72947 
L 77.352224 272.266101 
L 83.793267 271.662313 
L 88.802966 270.994167 
L 93.812665 270.096171 
L 98.106693 269.096641 
L 101.68505 268.067354 
L 105.263407 266.828535 
L 108.841764 265.348435 
L 112.42012 263.593097 
L 115.282806 261.966706 
L 118.145491 260.122502 
L 121.008176 258.041447 
L 123.870862 255.704599 
L 126.733547 253.093462 
L 129.596232 250.190382 
L 132.458918 246.978978 
L 135.321603 243.444617 
L 138.184289 239.574909 
L 141.046974 235.360226 
L 143.909659 230.794225 
L 146.772345 225.874372 
L 150.350701 219.2301 
L 153.929058 212.050126 
L 157.507415 204.36141 
L 161.801443 194.521911 
L 166.095471 184.107518 
L 171.820842 169.553798 
L 188.281283 127.117586 
L 192.575311 116.973832 
L 196.153667 109.149539 
L 199.016353 103.397022 
L 201.879038 98.164693 
L 204.026052 94.617885 
L 206.173066 91.4205 
L 208.32008 88.593696 
L 210.467094 86.156399 
L 212.614108 84.125084 
L 214.761122 82.513596 
L 216.192465 81.678086 
L 217.623808 81.036699 
L 219.05515 80.591404 
L 220.486493 80.343573 
L 221.917836 80.293969 
L 223.349178 80.442744 
L 224.780521 80.78944 
L 226.211864 81.33299 
L 227.643206 82.071722 
L 229.074549 83.00337 
L 230.505892 84.125084 
L 232.652906 86.156399 
L 234.79992 88.593696 
L 236.946934 91.4205 
L 239.093948 94.617885 
L 241.240962 98.164693 
L 244.103647 103.397022 
L 246.966333 109.149539 
L 249.829018 115.358215 
L 253.407375 123.657874 
L 257.701403 134.228554 
L 263.426774 148.973178 
L 275.593186 180.529649 
L 280.602886 192.823006 
L 284.896914 202.765959 
L 288.475271 210.55198 
L 292.053627 217.836291 
L 295.631984 224.589225 
L 299.210341 230.794225 
L 302.073026 235.360226 
L 304.935711 239.574909 
L 307.798397 243.444617 
L 310.661082 246.978978 
L 313.523768 250.190382 
L 316.386453 253.093462 
L 319.249138 255.704599 
L 322.111824 258.041447 
L 324.974509 260.122502 
L 327.837194 261.966706 
L 330.69988 263.593097 
L 334.278236 265.348435 
L 337.856593 266.828535 
L 341.43495 268.067354 
L 345.013307 269.096641 
L 349.307335 270.096171 
L 353.601363 270.881292 
L 358.611062 271.57886 
L 364.336433 272.152551 
L 371.493146 272.626547 
L 380.081202 272.959374 
L 392.247615 273.18292 
L 400.12 273.247248 
L 400.12 273.247248 
" clip-path="url(#pdfb3e53f12)" style="fill: none; stroke: #bc80bd; stroke-width: 2; stroke-linecap: square"/>
   </g>
   <g id="line2d_17">
    <path d="M 191.450778 273.312 
L 191.450778 119.558983 
" clip-path="url(#pdfb3e53f12)" style="fill: none; stroke: #000000; stroke-opacity: 0.4; stroke-width: 0.8; stroke-linecap: square"/>
   </g>
   <g id="line2d_18">
    <path d="M 221.56 273.312 
L 221.56 80.287767 
" clip-path="url(#pdfb3e53f12)" style="fill: none; stroke: #000000; stroke-opacity: 0.4; stroke-width: 0.8; stroke-linecap: square"/>
   </g>
   <g id="line2d_19">
    <path d="M 251.669222 273.312 
L 251.669222 119.558983 
" clip-path="url(#pdfb3e53f12)" style="fill: none; stroke: #000000; stroke-opacity: 0.4; stroke-width: 0.8; stroke-linecap: square"/>
   </g>
   <g id="patch_3">
    <path d="M 43 273.312 
L 43 7.2 
" style="fill: none; stroke: #000000; stroke-width: 0.6; stroke-linejoin: miter; stroke-linecap: square"/>
   </g>
   <g id="patch_4">
    <path d="M 43 273.312 
L 400.12 273.312 
" style="fill: none; stroke: #000000; stroke-width: 0.6; stroke-linejoin: miter; stroke-linecap: square"/>
   </g>
   <g id="patch_5">
    <path d="M 192.50739 96.108177 
Q 191.520556 103.644399 191.459575 116.664842 
" style="fill: none; stroke: #000000; stroke-width: 0.8; stroke-linecap: round"/>
    <path d="M 193.478287 112.674253 
L 191.459575 116.664842 
L 189.478331 112.655519 
" style="fill: none; stroke: #000000; stroke-width: 0.8; stroke-linecap: round"/>
   </g>
   <g id="text_18">
    <!-- q=0.25 -->
    <g style="fill: #323034" transform="translate(181.450778 89.558983)scale(0.1 -0.1)">
     <defs>
      <path id="STIXGeneral-Regular-71" d="M 3123 -1389 
L 1613 -1389 
L 1613 -1280 
Q 1952 -1254 2067 -1158 
Q 2182 -1062 2182 -794 
L 2182 410 
Q 1747 -64 1178 -64 
Q 730 -64 442 320 
Q 154 704 154 1312 
Q 154 2003 560 2473 
Q 966 2944 1562 2944 
Q 1920 2944 2304 2720 
L 2650 2925 
L 2720 2925 
L 2720 -902 
Q 2720 -1107 2797 -1180 
Q 2874 -1254 3123 -1280 
L 3123 -1389 
z
M 2182 813 
L 2182 2131 
Q 2182 2758 1587 2758 
Q 1178 2758 941 2432 
Q 704 2106 704 1542 
Q 704 1210 803 925 
Q 902 640 1062 499 
Q 1254 326 1542 326 
Q 1882 326 2106 531 
Q 2182 602 2182 813 
z
" transform="scale(0.015625)"/>
      <path id="STIXGeneral-Regular-3d" d="M 4077 2048 
L 307 2048 
L 307 2470 
L 4077 2470 
L 4077 2048 
z
M 4077 768 
L 307 768 
L 307 1190 
L 4077 1190 
L 4077 768 
z
" transform="scale(0.015625)"/>
     </defs>
     <use xlink:href="#STIXGeneral-Regular-71"/>
     <use xlink:href="#STIXGeneral-Regular-3d" x="49.999985"/>
     <use xlink:href="#STIXGeneral-Regular-30" x="118.499969"/>
     <use xlink:href="#STIXGeneral-Regular-2e" x="168.499954"/>
     <use xlink:href="#STIXGeneral-Regular-32" x="193.499939"/>
     <use xlink:href="#STIXGeneral-Regular-35" x="243.499924"/>
    </g>
   </g>
   <g id="patch_6">
    <path d="M 222.051037 56.845872 
Q 221.592428 64.381702 221.564089 77.394704 
" style="fill: none; stroke: #000000; stroke-width: 0.8; stroke-linecap: round"/>
    <path d="M 223.572795 73.399069 
L 221.564089 77.394704 
L 219.572805 73.390359 
" style="fill: none; stroke: #000000; stroke-width: 0.8; stroke-linecap: round"/>
   </g>
   <g id="text_19">
    <!-- q=0.5 -->
    <g style="fill: #323034" transform="translate(211.56 50.287767)scale(0.1 -0.1)">
     <use xlink:href="#STIXGeneral-Regular-71"/>
     <use xlink:href="#STIXGeneral-Regular-3d" x="49.999985"/>
     <use xlink:href="#STIXGeneral-Regular-30" x="118.499969"/>
     <use xlink:href="#STIXGeneral-Regular-2e" x="168.499954"/>
     <use xlink:href="#STIXGeneral-Regular-35" x="193.499939"/>
    </g>
   </g>
   <g id="patch_7">
    <path d="M 252.725835 96.108177 
Q 251.739001 103.644399 251.67802 116.664842 
" style="fill: none; stroke: #000000; stroke-width: 0.8; stroke-linecap: round"/>
    <path d="M 253.696732 112.674253 
L 251.67802 116.664842 
L 249.696775 112.655519 
" style="fill: none; stroke: #000000; stroke-width: 0.8; stroke-linecap: round"/>
   </g>
   <g id="text_20">
    <!-- q=0.75 -->
    <g style="fill: #323034" transform="translate(241.669222 89.558983)scale(0.1 -0.1)">
     <defs>
      <path id="STIXGeneral-Regular-37" d="M 2874 4134 
L 1517 -51 
L 1101 -51 
L 2368 3763 
L 992 3763 
Q 717 3763 582 3667 
Q 448 3571 243 3238 
L 128 3296 
L 512 4237 
L 2874 4237 
L 2874 4134 
z
" transform="scale(0.015625)"/>
     </defs>
     <use xlink:href="#STIXGeneral-Regular-71"/>
     <use xlink:href="#STIXGeneral-Regular-3d" x="49.999985"/>
     <use xlink:href="#STIXGeneral-Regular-30" x="118.499969"/>
     <use xlink:href="#STIXGeneral-Regular-2e" x="168.499954"/>
     <use xlink:href="#STIXGeneral-Regular-37" x="193.499939"/>
     <use xlink:href="#STIXGeneral-Regular-35" x="243.499924"/>
    </g>
   </g>
   <g id="legend_1">
    <g id="patch_8">
     <path d="M 314.599688 25.370313 
L 393.12 25.370313 
Q 395.12 25.370313 395.12 23.370313 
L 395.12 14.2 
Q 395.12 12.2 393.12 12.2 
L 314.599688 12.2 
Q 312.599688 12.2 312.599688 14.2 
L 312.599688 23.370313 
Q 312.599688 25.370313 314.599688 25.370313 
z
" style="fill: #ffffff; opacity: 0.8; stroke: #e6e6e6; stroke-width: 0.8; stroke-linejoin: miter"/>
    </g>
    <g id="patch_9">
     <path d="M 314.599688 21.2 
L 334.599688 21.2 
L 334.599688 14.2 
L 314.599688 14.2 
z
" style="fill: #bc80bd; fill-opacity: 0.2; stroke: #000000; stroke-opacity: 0.2; stroke-width: 0.8; stroke-linejoin: miter"/>
    </g>
    <g id="text_21">
     <!-- 95% interval -->
     <g style="fill: #323034" transform="translate(342.599688 21.2)scale(0.1 -0.1)">
      <defs>
       <path id="STIXGeneral-Regular-39" d="M 378 -141 
L 358 -13 
Q 1094 115 1603 608 
Q 2112 1101 2304 1882 
Q 1933 1517 1344 1517 
Q 826 1517 509 1875 
Q 192 2234 192 2816 
Q 192 3462 573 3894 
Q 954 4326 1523 4326 
Q 2131 4326 2528 3840 
Q 2938 3328 2938 2522 
Q 2938 1958 2742 1462 
Q 2547 966 2170 621 
Q 1773 262 1395 105 
Q 1018 -51 378 -141 
z
M 2317 2272 
L 2317 2522 
Q 2317 4147 1472 4147 
Q 1171 4147 1005 3930 
Q 909 3802 845 3546 
Q 781 3290 781 3034 
Q 781 2464 995 2128 
Q 1210 1792 1568 1792 
Q 1824 1792 2070 1917 
Q 2317 2042 2317 2272 
z
" transform="scale(0.015625)"/>
       <path id="STIXGeneral-Regular-25" d="M 4390 1363 
Q 4390 781 4070 329 
Q 3750 -122 3341 -122 
Q 3014 -122 2790 134 
Q 2566 390 2566 762 
Q 2566 1274 2940 1693 
Q 3315 2112 3776 2112 
Q 4070 2112 4230 1917 
Q 4390 1722 4390 1363 
z
M 4243 1376 
Q 4243 1626 4131 1779 
Q 4019 1933 3840 1933 
Q 3654 1933 3526 1786 
Q 3315 1562 3171 1187 
Q 3027 813 3027 486 
Q 3027 301 3129 176 
Q 3232 51 3386 51 
Q 3718 51 3980 457 
Q 4243 864 4243 1376 
z
M 3974 4518 
L 1222 -115 
L 922 -115 
L 3443 4096 
Q 3264 3891 3094 3811 
Q 2925 3731 2669 3731 
Q 2445 3731 2182 3821 
Q 2208 3674 2208 3539 
Q 2208 3206 2067 2873 
Q 1926 2541 1696 2323 
Q 1453 2086 1146 2086 
Q 826 2086 608 2339 
Q 390 2592 390 2963 
Q 390 3507 761 3916 
Q 1133 4326 1626 4326 
Q 1792 4326 2010 4147 
Q 2310 3898 2624 3898 
Q 2918 3898 3084 3994 
Q 3251 4090 3693 4518 
L 3974 4518 
z
M 2054 3642 
Q 2054 3782 2025 3833 
Q 1997 3885 1894 3936 
Q 1747 4006 1613 4154 
Q 1414 4058 1331 3984 
Q 1248 3910 1152 3750 
Q 845 3264 845 2707 
Q 845 2509 944 2384 
Q 1043 2259 1210 2259 
Q 1549 2259 1801 2675 
Q 2054 3091 2054 3642 
z
" transform="scale(0.015625)"/>
       <path id="STIXGeneral-Regular-20" transform="scale(0.015625)"/>
       <path id="STIXGeneral-Regular-69" d="M 1152 4045 
Q 1152 3904 1056 3811 
Q 960 3718 819 3718 
Q 685 3718 592 3811 
Q 499 3904 499 4045 
Q 499 4179 595 4275 
Q 691 4371 826 4371 
Q 966 4371 1059 4275 
Q 1152 4179 1152 4045 
z
M 1619 0 
L 102 0 
L 102 96 
Q 435 115 521 211 
Q 608 307 608 666 
L 608 2118 
Q 608 2342 563 2432 
Q 518 2522 397 2522 
Q 243 2522 128 2490 
L 128 2592 
L 1120 2944 
L 1146 2918 
L 1146 672 
Q 1146 314 1226 218 
Q 1306 122 1619 96 
L 1619 0 
z
" transform="scale(0.015625)"/>
       <path id="STIXGeneral-Regular-6e" d="M 3104 0 
L 1773 0 
L 1779 96 
Q 2016 115 2096 233 
Q 2176 352 2176 672 
L 2176 1946 
Q 2176 2592 1709 2592 
Q 1549 2592 1408 2515 
Q 1267 2438 1050 2227 
L 1050 461 
Q 1050 269 1136 192 
Q 1222 115 1466 96 
L 1466 0 
L 115 0 
L 115 96 
Q 358 115 435 214 
Q 512 314 512 602 
L 512 2157 
Q 512 2394 467 2483 
Q 422 2573 288 2573 
Q 160 2573 102 2547 
L 102 2656 
Q 550 2784 979 2944 
L 1030 2925 
L 1030 2426 
L 1037 2426 
Q 1491 2944 1958 2944 
Q 2323 2944 2518 2688 
Q 2714 2432 2714 1958 
L 2714 544 
Q 2714 288 2790 205 
Q 2867 122 3104 96 
L 3104 0 
z
" transform="scale(0.015625)"/>
       <path id="STIXGeneral-Regular-74" d="M 1702 493 
L 1786 422 
Q 1478 -64 1011 -64 
Q 448 -64 448 749 
L 448 2675 
L 109 2675 
Q 83 2694 83 2720 
Q 83 2771 192 2842 
Q 435 2982 813 3526 
Q 826 3546 874 3606 
Q 922 3667 941 3706 
Q 986 3706 986 3622 
L 986 2880 
L 1632 2880 
L 1632 2675 
L 986 2675 
L 986 845 
Q 986 538 1062 403 
Q 1139 269 1318 269 
Q 1510 269 1702 493 
z
" transform="scale(0.015625)"/>
       <path id="STIXGeneral-Regular-65" d="M 2611 1050 
L 2714 1005 
Q 2330 -64 1376 -64 
Q 813 -64 486 329 
Q 160 723 160 1389 
Q 160 2074 525 2509 
Q 890 2944 1485 2944 
Q 2061 2944 2374 2502 
Q 2560 2246 2592 1773 
L 621 1773 
Q 646 1370 700 1158 
Q 755 947 915 730 
Q 1184 378 1626 378 
Q 1939 378 2153 531 
Q 2368 685 2611 1050 
z
M 634 1978 
L 1939 1978 
Q 1882 2381 1750 2547 
Q 1619 2714 1312 2714 
Q 1043 2714 864 2525 
Q 685 2336 634 1978 
z
" transform="scale(0.015625)"/>
       <path id="STIXGeneral-Regular-72" d="M 1024 2931 
L 1024 2342 
Q 1267 2688 1430 2816 
Q 1594 2944 1792 2944 
Q 1958 2944 2051 2854 
Q 2144 2765 2144 2605 
Q 2144 2470 2077 2393 
Q 2010 2317 1894 2317 
Q 1773 2317 1638 2445 
Q 1536 2541 1472 2541 
Q 1338 2541 1181 2355 
Q 1024 2170 1024 2016 
L 1024 576 
Q 1024 301 1133 205 
Q 1242 109 1568 96 
L 1568 0 
L 32 0 
L 32 96 
Q 339 154 412 224 
Q 486 294 486 538 
L 486 2138 
Q 486 2349 438 2435 
Q 390 2522 269 2522 
Q 166 2522 45 2496 
L 45 2598 
Q 448 2726 992 2944 
L 1024 2931 
z
" transform="scale(0.015625)"/>
       <path id="STIXGeneral-Regular-76" d="M 3053 2880 
L 3053 2784 
Q 2906 2771 2835 2688 
Q 2765 2605 2637 2285 
L 1818 230 
Q 1690 -90 1638 -90 
Q 1587 -90 1523 77 
Q 1510 96 1497 141 
Q 1485 186 1472 211 
L 704 2048 
Q 499 2534 403 2652 
Q 307 2771 122 2784 
L 122 2880 
L 1376 2880 
L 1376 2784 
Q 1210 2771 1146 2732 
Q 1082 2694 1082 2611 
Q 1082 2509 1139 2368 
L 1792 730 
L 2426 2387 
Q 2464 2483 2464 2579 
Q 2464 2758 2163 2784 
L 2163 2880 
L 3053 2880 
z
" transform="scale(0.015625)"/>
       <path id="STIXGeneral-Regular-61" d="M 2829 422 
L 2829 243 
Q 2586 -64 2253 -64 
Q 1888 -64 1843 403 
L 1837 403 
Q 1427 -64 909 -64 
Q 608 -64 422 112 
Q 237 288 237 602 
Q 237 1050 685 1350 
Q 992 1555 1837 1869 
L 1837 2214 
Q 1837 2502 1699 2646 
Q 1562 2790 1338 2790 
Q 1146 2790 1018 2697 
Q 890 2605 890 2477 
Q 890 2419 909 2348 
Q 928 2278 928 2208 
Q 928 2112 841 2029 
Q 755 1946 634 1946 
Q 525 1946 441 2029 
Q 358 2112 358 2240 
Q 358 2547 685 2752 
Q 986 2944 1421 2944 
Q 1939 2944 2176 2656 
Q 2291 2522 2323 2384 
Q 2355 2246 2355 1946 
L 2355 723 
Q 2355 301 2554 301 
Q 2682 301 2829 422 
z
M 1837 813 
L 1837 1715 
Q 1248 1510 1018 1293 
Q 800 1094 800 800 
Q 800 557 921 432 
Q 1043 307 1242 307 
Q 1453 307 1613 410 
Q 1747 506 1792 589 
Q 1837 672 1837 813 
z
" transform="scale(0.015625)"/>
       <path id="STIXGeneral-Regular-6c" d="M 1645 0 
L 134 0 
L 134 96 
Q 435 122 531 221 
Q 627 320 627 589 
L 627 3590 
Q 627 3821 569 3910 
Q 512 4000 358 4000 
Q 224 4000 122 3987 
L 122 4090 
Q 730 4237 1133 4371 
L 1165 4346 
L 1165 557 
Q 1165 288 1254 201 
Q 1344 115 1645 96 
L 1645 0 
z
" transform="scale(0.015625)"/>
      </defs>
      <use xlink:href="#STIXGeneral-Regular-39"/>
      <use xlink:href="#STIXGeneral-Regular-35" x="49.999985"/>
      <use xlink:href="#STIXGeneral-Regular-25" x="99.999969"/>
      <use xlink:href="#STIXGeneral-Regular-20" x="174.699951"/>
      <use xlink:href="#STIXGeneral-Regular-69" x="199.699936"/>
      <use xlink:href="#STIXGeneral-Regular-6e" x="227.499924"/>
      <use xlink:href="#STIXGeneral-Regular-74" x="277.499908"/>
      <use xlink:href="#STIXGeneral-Regular-65" x="305.299896"/>
      <use xlink:href="#STIXGeneral-Regular-72" x="349.69989"/>
      <use xlink:href="#STIXGeneral-Regular-76" x="382.999878"/>
      <use xlink:href="#STIXGeneral-Regular-61" x="432.999863"/>
      <use xlink:href="#STIXGeneral-Regular-6c" x="477.399857"/>
     </g>
    </g>
   </g>
  </g>
 </g>
 <defs>
  <clipPath id="pdfb3e53f12">
   <rect x="43" y="7.2" width="357.12" height="266.112"/>
  </clipPath>
 </defs>
</svg>
