<?xml version="1.0" encoding="utf-8" standalone="no"?>
<!DOCTYPE svg PUBLIC "-//W3C//DTD SVG 1.1//EN"
  "http://www.w3.org/Graphics/SVG/1.1/DTD/svg11.dtd">
<svg xmlns:xlink="http://www.w3.org/1999/xlink" width="584.39952pt" height="368.39952pt" viewBox="0 0 584.39952 368.39952" xmlns="http://www.w3.org/2000/svg" version="1.1">
 <metadata>
  <rdf:RDF xmlns:dc="http://purl.org/dc/elements/1.1/" xmlns:cc="http://creativecommons.org/ns#" xmlns:rdf="http://www.w3.org/1999/02/22-rdf-syntax-ns#">
   <cc:Work>
    <dc:type rdf:resource="http://purl.org/dc/dcmitype/StillImage"/>
    <dc:date>2022-10-28T18:17:26.138137</dc:date>
    <dc:format>image/svg+xml</dc:format>
    <dc:creator>
     <cc:Agent>
      <dc:title>Matplotlib v3.5.3, https://matplotlib.org/</dc:title>
     </cc:Agent>
    </dc:creator>
   </cc:Work>
  </rdf:RDF>
 </metadata>
 <defs>
  <style type="text/css">*{stroke-linejoin: round; stroke-linecap: butt}</style>
 </defs>
 <g id="figure_1">
  <g id="patch_1">
   <path d="M 0 368.39952 
L 584.39952 368.39952 
L 584.39952 0 
L 0 0 
z
" style="fill: #ffffff"/>
  </g>
  <g id="axes_1">
   <g id="patch_2">
    <path d="M 16.613501 341.144078 
L 567.786019 341.144078 
L 567.786019 24.956118 
L 16.613501 24.956118 
z
" style="fill: #eeeeee"/>
   </g>
   <g id="matplotlib.axis_1">
    <g id="xtick_1">
     <g id="line2d_1">
      <path d="M 16.613501 341.144078 
L 16.613501 24.956118 
" clip-path="url(#p717a88a3cc)" style="fill: none; stroke: #ffffff; stroke-width: 0.8; stroke-linecap: round"/>
     </g>
     <g id="line2d_2">
      <defs>
       <path id="m15ea00d73e" d="M 0 0 
L 0 3 
" style="stroke: #808080"/>
      </defs>
      <g>
       <use xlink:href="#m15ea00d73e" x="16.613501" y="341.144078" style="fill: #808080; stroke: #808080"/>
      </g>
     </g>
     <g id="text_1">
      <!-- $\mathdefault{0.4}$ -->
      <g style="fill: #262626" transform="translate(7.2 357.930682)scale(0.150616 -0.150616)">
       <defs>
        <path id="STIXGeneral-Regular-30" d="M 3046 2112 
Q 3046 1683 2963 1302 
Q 2880 922 2717 602 
Q 2554 282 2266 96 
Q 1978 -90 1600 -90 
Q 1210 -90 915 108 
Q 621 307 461 640 
Q 301 973 227 1350 
Q 154 1728 154 2150 
Q 154 2746 301 3222 
Q 448 3699 790 4012 
Q 1133 4326 1626 4326 
Q 2253 4326 2649 3712 
Q 3046 3098 3046 2112 
z
M 2432 2080 
Q 2432 3091 2217 3625 
Q 2003 4160 1587 4160 
Q 1190 4160 979 3622 
Q 768 3085 768 2106 
Q 768 1120 979 598 
Q 1190 77 1600 77 
Q 2003 77 2217 598 
Q 2432 1120 2432 2080 
z
" transform="scale(0.015625)"/>
        <path id="STIXGeneral-Regular-2e" d="M 1158 275 
Q 1158 134 1052 32 
Q 947 -70 800 -70 
Q 653 -70 550 32 
Q 448 134 448 281 
Q 448 429 553 534 
Q 659 640 806 640 
Q 947 640 1052 531 
Q 1158 422 1158 275 
z
" transform="scale(0.015625)"/>
        <path id="STIXGeneral-Regular-34" d="M 3027 1069 
L 2368 1069 
L 2368 0 
L 1869 0 
L 1869 1069 
L 77 1069 
L 77 1478 
L 2086 4326 
L 2368 4326 
L 2368 1478 
L 3027 1478 
L 3027 1069 
z
M 1869 1478 
L 1869 3674 
L 333 1478 
L 1869 1478 
z
" transform="scale(0.015625)"/>
       </defs>
       <use xlink:href="#STIXGeneral-Regular-30" transform="translate(0 0.40625)"/>
       <use xlink:href="#STIXGeneral-Regular-2e" transform="translate(49.999985 0.40625)"/>
       <use xlink:href="#STIXGeneral-Regular-34" transform="translate(74.999969 0.40625)"/>
      </g>
     </g>
    </g>
    <g id="xtick_2">
     <g id="line2d_3">
      <path d="M 108.475587 341.144078 
L 108.475587 24.956118 
" clip-path="url(#p717a88a3cc)" style="fill: none; stroke: #ffffff; stroke-width: 0.8; stroke-linecap: round"/>
     </g>
     <g id="line2d_4">
      <g>
       <use xlink:href="#m15ea00d73e" x="108.475587" y="341.144078" style="fill: #808080; stroke: #808080"/>
      </g>
     </g>
     <g id="text_2">
      <!-- $\mathdefault{0.6}$ -->
      <g style="fill: #262626" transform="translate(99.062086 357.930682)scale(0.150616 -0.150616)">
       <defs>
        <path id="STIXGeneral-Regular-36" d="M 2854 4378 
L 2867 4275 
Q 2112 4154 1606 3664 
Q 1101 3174 973 2451 
Q 1344 2739 1786 2739 
Q 2349 2739 2672 2380 
Q 2995 2022 2995 1402 
Q 2995 774 2669 378 
Q 2291 -90 1651 -90 
Q 870 -90 518 557 
Q 218 1107 218 1786 
Q 218 2835 915 3552 
Q 1312 3962 1731 4131 
Q 2150 4301 2854 4378 
z
M 2419 1203 
Q 2419 2445 1555 2445 
Q 1235 2445 1024 2275 
Q 813 2106 813 1702 
Q 813 954 1046 522 
Q 1280 90 1722 90 
Q 2061 90 2240 394 
Q 2419 698 2419 1203 
z
" transform="scale(0.015625)"/>
       </defs>
       <use xlink:href="#STIXGeneral-Regular-30" transform="translate(0 0.59375)"/>
       <use xlink:href="#STIXGeneral-Regular-2e" transform="translate(49.999985 0.59375)"/>
       <use xlink:href="#STIXGeneral-Regular-36" transform="translate(74.999969 0.59375)"/>
      </g>
     </g>
    </g>
    <g id="xtick_3">
     <g id="line2d_5">
      <path d="M 200.337674 341.144078 
L 200.337674 24.956118 
" clip-path="url(#p717a88a3cc)" style="fill: none; stroke: #ffffff; stroke-width: 0.8; stroke-linecap: round"/>
     </g>
     <g id="line2d_6">
      <g>
       <use xlink:href="#m15ea00d73e" x="200.337674" y="341.144078" style="fill: #808080; stroke: #808080"/>
      </g>
     </g>
     <g id="text_3">
      <!-- $\mathdefault{0.8}$ -->
      <g style="fill: #262626" transform="translate(190.924173 357.930682)scale(0.150616 -0.150616)">
       <defs>
        <path id="STIXGeneral-Regular-38" d="M 2848 992 
Q 2848 499 2505 204 
Q 2163 -90 1587 -90 
Q 1050 -90 704 204 
Q 358 499 358 954 
Q 358 1293 524 1533 
Q 691 1773 1190 2125 
Q 710 2522 553 2765 
Q 397 3008 397 3328 
Q 397 3782 745 4054 
Q 1094 4326 1638 4326 
Q 2106 4326 2410 4060 
Q 2714 3795 2714 3411 
Q 2714 3059 2531 2848 
Q 2349 2637 1856 2374 
Q 2432 1990 2640 1689 
Q 2848 1389 2848 992 
z
M 2272 3411 
Q 2272 3744 2086 3945 
Q 1901 4147 1574 4147 
Q 1248 4147 1059 3977 
Q 870 3808 870 3513 
Q 870 3219 1059 2979 
Q 1248 2739 1670 2490 
Q 1997 2682 2134 2896 
Q 2272 3110 2272 3411 
z
M 1734 1741 
L 1357 1997 
Q 1075 1766 960 1545 
Q 845 1325 845 1011 
Q 845 576 1065 333 
Q 1286 90 1658 90 
Q 1971 90 2166 285 
Q 2362 480 2362 794 
Q 2362 1082 2214 1299 
Q 2067 1517 1734 1741 
z
" transform="scale(0.015625)"/>
       </defs>
       <use xlink:href="#STIXGeneral-Regular-30" transform="translate(0 0.40625)"/>
       <use xlink:href="#STIXGeneral-Regular-2e" transform="translate(49.999985 0.40625)"/>
       <use xlink:href="#STIXGeneral-Regular-38" transform="translate(74.999969 0.40625)"/>
      </g>
     </g>
    </g>
    <g id="xtick_4">
     <g id="line2d_7">
      <path d="M 292.19976 341.144078 
L 292.19976 24.956118 
" clip-path="url(#p717a88a3cc)" style="fill: none; stroke: #ffffff; stroke-width: 0.8; stroke-linecap: round"/>
     </g>
     <g id="line2d_8">
      <g>
       <use xlink:href="#m15ea00d73e" x="292.19976" y="341.144078" style="fill: #808080; stroke: #808080"/>
      </g>
     </g>
     <g id="text_4">
      <!-- $\mathdefault{1.0}$ -->
      <g style="fill: #262626" transform="translate(282.786259 357.930682)scale(0.150616 -0.150616)">
       <defs>
        <path id="STIXGeneral-Regular-31" d="M 2522 0 
L 755 0 
L 755 96 
Q 1107 115 1235 227 
Q 1363 339 1363 608 
L 1363 3482 
Q 1363 3795 1171 3795 
Q 1082 3795 883 3718 
L 710 3654 
L 710 3744 
L 1856 4326 
L 1914 4307 
L 1914 486 
Q 1914 275 2042 185 
Q 2170 96 2522 96 
L 2522 0 
z
" transform="scale(0.015625)"/>
       </defs>
       <use xlink:href="#STIXGeneral-Regular-31" transform="translate(0 0.40625)"/>
       <use xlink:href="#STIXGeneral-Regular-2e" transform="translate(49.999985 0.40625)"/>
       <use xlink:href="#STIXGeneral-Regular-30" transform="translate(74.999969 0.40625)"/>
      </g>
     </g>
    </g>
    <g id="xtick_5">
     <g id="line2d_9">
      <path d="M 384.061846 341.144078 
L 384.061846 24.956118 
" clip-path="url(#p717a88a3cc)" style="fill: none; stroke: #ffffff; stroke-width: 0.8; stroke-linecap: round"/>
     </g>
     <g id="line2d_10">
      <g>
       <use xlink:href="#m15ea00d73e" x="384.061846" y="341.144078" style="fill: #808080; stroke: #808080"/>
      </g>
     </g>
     <g id="text_5">
      <!-- $\mathdefault{1.2}$ -->
      <g style="fill: #262626" transform="translate(374.648345 357.930682)scale(0.150616 -0.150616)">
       <defs>
        <path id="STIXGeneral-Regular-32" d="M 3034 877 
L 2688 0 
L 186 0 
L 186 77 
L 1325 1286 
Q 1773 1754 1965 2144 
Q 2157 2534 2157 2950 
Q 2157 3379 1920 3616 
Q 1683 3853 1267 3853 
Q 922 3853 720 3673 
Q 518 3494 326 3021 
L 192 3053 
Q 301 3648 630 3987 
Q 960 4326 1523 4326 
Q 2054 4326 2380 4006 
Q 2707 3686 2707 3200 
Q 2707 2477 1888 1613 
L 832 486 
L 2330 486 
Q 2541 486 2665 569 
Q 2790 653 2944 915 
L 3034 877 
z
" transform="scale(0.015625)"/>
       </defs>
       <use xlink:href="#STIXGeneral-Regular-31" transform="translate(0 0.40625)"/>
       <use xlink:href="#STIXGeneral-Regular-2e" transform="translate(49.999985 0.40625)"/>
       <use xlink:href="#STIXGeneral-Regular-32" transform="translate(74.999969 0.40625)"/>
      </g>
     </g>
    </g>
    <g id="xtick_6">
     <g id="line2d_11">
      <path d="M 475.923933 341.144078 
L 475.923933 24.956118 
" clip-path="url(#p717a88a3cc)" style="fill: none; stroke: #ffffff; stroke-width: 0.8; stroke-linecap: round"/>
     </g>
     <g id="line2d_12">
      <g>
       <use xlink:href="#m15ea00d73e" x="475.923933" y="341.144078" style="fill: #808080; stroke: #808080"/>
      </g>
     </g>
     <g id="text_6">
      <!-- $\mathdefault{1.4}$ -->
      <g style="fill: #262626" transform="translate(466.510431 357.930682)scale(0.150616 -0.150616)">
       <use xlink:href="#STIXGeneral-Regular-31" transform="translate(0 0.40625)"/>
       <use xlink:href="#STIXGeneral-Regular-2e" transform="translate(49.999985 0.40625)"/>
       <use xlink:href="#STIXGeneral-Regular-34" transform="translate(74.999969 0.40625)"/>
      </g>
     </g>
    </g>
    <g id="xtick_7">
     <g id="line2d_13">
      <path d="M 567.786019 341.144078 
L 567.786019 24.956118 
" clip-path="url(#p717a88a3cc)" style="fill: none; stroke: #ffffff; stroke-width: 0.8; stroke-linecap: round"/>
     </g>
     <g id="line2d_14">
      <g>
       <use xlink:href="#m15ea00d73e" x="567.786019" y="341.144078" style="fill: #808080; stroke: #808080"/>
      </g>
     </g>
     <g id="text_7">
      <!-- $\mathdefault{1.6}$ -->
      <g style="fill: #262626" transform="translate(558.372518 357.930682)scale(0.150616 -0.150616)">
       <use xlink:href="#STIXGeneral-Regular-31" transform="translate(0 0.59375)"/>
       <use xlink:href="#STIXGeneral-Regular-2e" transform="translate(49.999985 0.59375)"/>
       <use xlink:href="#STIXGeneral-Regular-36" transform="translate(74.999969 0.59375)"/>
      </g>
     </g>
    </g>
   </g>
   <g id="matplotlib.axis_2"/>
   <g id="PolyCollection_1">
    <defs>
     <path id="m0f69284bc2" d="M 116.122993 -41.627622 
L 116.122993 -50.911979 
L 116.958446 -50.928846 
L 117.793899 -50.968299 
L 118.629352 -51.026595 
L 119.464805 -51.120164 
L 120.300258 -51.213243 
L 121.135711 -51.321287 
L 121.971164 -51.464452 
L 122.806617 -51.611604 
L 123.64207 -51.794394 
L 124.477523 -51.976911 
L 125.312976 -52.195495 
L 126.148429 -52.439057 
L 126.983881 -52.692751 
L 127.819334 -52.962488 
L 128.654787 -53.269357 
L 129.49024 -53.594574 
L 130.325693 -53.943242 
L 131.161146 -54.318609 
L 131.996599 -54.710519 
L 132.832052 -55.103797 
L 133.667505 -55.540098 
L 134.502958 -56.003184 
L 135.338411 -56.476871 
L 136.173864 -56.977101 
L 137.009317 -57.498792 
L 137.84477 -58.06356 
L 138.680222 -58.635124 
L 139.515675 -59.238975 
L 140.351128 -59.843347 
L 141.186581 -60.478093 
L 142.022034 -61.132058 
L 142.857487 -61.821714 
L 143.69294 -62.5094 
L 144.528393 -63.220018 
L 145.363846 -63.959338 
L 146.199299 -64.694219 
L 147.034752 -65.459837 
L 147.870205 -66.245756 
L 148.705658 -67.035949 
L 149.541111 -67.834261 
L 150.376563 -68.637754 
L 151.212016 -69.460517 
L 152.047469 -70.297693 
L 152.882922 -71.137938 
L 153.718375 -71.96979 
L 154.553828 -72.81779 
L 155.389281 -73.698115 
L 156.224734 -74.563598 
L 157.060187 -75.438461 
L 157.89564 -76.323097 
L 158.731093 -77.200937 
L 159.566546 -78.081059 
L 160.401999 -78.974439 
L 161.237451 -79.871342 
L 162.072904 -80.766923 
L 162.908357 -81.661085 
L 163.74381 -82.569014 
L 164.579263 -83.468922 
L 165.414716 -84.376108 
L 166.250169 -85.274437 
L 167.085622 -86.184821 
L 167.921075 -87.080589 
L 168.756528 -87.998735 
L 169.591981 -88.903063 
L 170.427434 -89.847835 
L 171.262887 -90.756188 
L 172.09834 -91.677634 
L 172.933792 -92.634943 
L 173.769245 -93.622917 
L 174.604698 -94.560695 
L 175.440151 -95.513316 
L 176.275604 -96.495061 
L 177.111057 -97.463531 
L 177.94651 -98.448578 
L 178.781963 -99.436161 
L 179.617416 -100.41414 
L 180.452869 -101.408176 
L 181.288322 -102.414443 
L 182.123775 -103.450338 
L 182.959228 -104.508933 
L 183.79468 -105.530299 
L 184.630133 -106.598704 
L 185.465586 -107.681594 
L 186.301039 -108.744898 
L 187.136492 -109.846521 
L 187.971945 -110.975122 
L 188.807398 -112.100756 
L 189.642851 -113.289697 
L 190.478304 -114.459317 
L 191.313757 -115.684005 
L 192.14921 -116.905927 
L 192.984663 -118.167292 
L 193.820116 -119.446623 
L 194.655569 -120.744223 
L 195.491021 -122.080079 
L 196.326474 -123.468633 
L 197.161927 -124.879908 
L 197.99738 -126.342813 
L 198.832833 -127.865465 
L 199.668286 -129.400932 
L 200.503739 -131.022715 
L 201.339192 -132.682716 
L 202.174645 -134.367995 
L 203.010098 -136.121042 
L 203.845551 -137.905976 
L 204.681004 -139.755877 
L 205.516457 -141.654066 
L 206.35191 -143.604388 
L 207.187362 -145.658825 
L 208.022815 -147.756434 
L 208.858268 -149.928429 
L 209.693721 -152.148601 
L 210.529174 -154.403564 
L 211.364627 -156.695194 
L 212.20008 -159.025394 
L 213.035533 -161.445947 
L 213.870986 -163.906997 
L 214.706439 -166.409899 
L 215.541892 -168.94509 
L 216.377345 -171.49011 
L 217.212798 -174.093235 
L 218.04825 -176.679823 
L 218.883703 -179.301213 
L 219.719156 -181.966707 
L 220.554609 -184.612763 
L 221.390062 -187.281268 
L 222.225515 -189.921687 
L 223.060968 -192.539559 
L 223.896421 -195.130556 
L 224.731874 -197.721644 
L 225.567327 -200.287037 
L 226.40278 -202.833812 
L 227.238233 -205.298992 
L 228.073686 -207.737605 
L 228.909139 -210.143128 
L 229.744591 -212.504192 
L 230.580044 -214.792937 
L 231.415497 -217.015176 
L 232.25095 -219.165588 
L 233.086403 -221.290696 
L 233.921856 -223.337199 
L 234.757309 -225.319994 
L 235.592762 -227.242026 
L 236.428215 -229.080293 
L 237.263668 -230.893117 
L 238.099121 -232.623409 
L 238.934574 -234.312824 
L 239.770027 -235.949254 
L 240.60548 -237.527714 
L 241.440932 -239.078872 
L 242.276385 -240.579727 
L 243.111838 -242.064792 
L 243.947291 -243.497502 
L 244.782744 -244.887824 
L 245.618197 -246.249263 
L 246.45365 -247.62954 
L 247.289103 -248.971063 
L 248.124556 -250.290047 
L 248.960009 -251.65754 
L 249.795462 -253.032816 
L 250.630915 -254.377 
L 251.466368 -255.765658 
L 252.30182 -257.160845 
L 253.137273 -258.571795 
L 253.972726 -260.002372 
L 254.808179 -261.442553 
L 255.643632 -262.918711 
L 256.479085 -264.416671 
L 257.314538 -265.946497 
L 258.149991 -267.5082 
L 258.985444 -269.089877 
L 259.820897 -270.763881 
L 260.65635 -272.414386 
L 261.491803 -274.059843 
L 262.327256 -275.750669 
L 263.162709 -277.440638 
L 263.998161 -279.168828 
L 264.833614 -280.929619 
L 265.669067 -282.65422 
L 266.50452 -284.378535 
L 267.339973 -286.214748 
L 268.175426 -287.993671 
L 269.010879 -289.713017 
L 269.846332 -291.436993 
L 270.681785 -293.149731 
L 271.517238 -294.832657 
L 272.352691 -296.498902 
L 273.188144 -298.157104 
L 274.023597 -299.730681 
L 274.859049 -301.22737 
L 275.694502 -302.716177 
L 276.529955 -304.198763 
L 277.365408 -305.570281 
L 278.200861 -306.937984 
L 279.036314 -308.210311 
L 279.871767 -309.434896 
L 280.70722 -310.602425 
L 281.542673 -311.699787 
L 282.378126 -312.699781 
L 283.213579 -313.668668 
L 284.049032 -314.547734 
L 284.884485 -315.398541 
L 285.719938 -316.161733 
L 286.55539 -316.877289 
L 287.390843 -317.575239 
L 288.226296 -318.194148 
L 289.061749 -318.765162 
L 289.897202 -319.273936 
L 290.732655 -319.755636 
L 291.568108 -320.202808 
L 292.403561 -320.656256 
L 293.239014 -320.971295 
L 294.074467 -321.31236 
L 294.90992 -321.661389 
L 295.745373 -321.980901 
L 296.580826 -322.283742 
L 297.416279 -322.550863 
L 298.251731 -322.832115 
L 299.087184 -323.139206 
L 299.922637 -323.358834 
L 300.75809 -323.629739 
L 301.593543 -323.881866 
L 302.428996 -324.129486 
L 303.264449 -324.406322 
L 304.099902 -324.695525 
L 304.935355 -325.007755 
L 305.770808 -325.277988 
L 306.606261 -325.586042 
L 307.441714 -325.872562 
L 308.277167 -326.170115 
L 309.112619 -326.485364 
L 309.948072 -326.833551 
L 310.783525 -327.165791 
L 311.618978 -327.430092 
L 312.454431 -327.662304 
L 313.289884 -327.929192 
L 314.125337 -328.133233 
L 314.96079 -328.34417 
L 315.796243 -328.556032 
L 316.631696 -328.754942 
L 317.467149 -328.882444 
L 318.302602 -328.989214 
L 319.138055 -329.00962 
L 319.973508 -329.071222 
L 320.80896 -329.050246 
L 321.644413 -328.977954 
L 322.479866 -328.860634 
L 323.315319 -328.689599 
L 324.150772 -328.530833 
L 324.986225 -328.292325 
L 325.821678 -328.000056 
L 326.657131 -327.648466 
L 327.492584 -327.261651 
L 328.328037 -326.816238 
L 329.16349 -326.356935 
L 329.998943 -325.80021 
L 330.834396 -325.233547 
L 331.669849 -324.597363 
L 332.505301 -323.901408 
L 333.340754 -323.156082 
L 334.176207 -322.379348 
L 335.01166 -321.544709 
L 335.847113 -320.672302 
L 336.682566 -319.752753 
L 337.518019 -318.782565 
L 338.353472 -317.792499 
L 339.188925 -316.700956 
L 340.024378 -315.596305 
L 340.859831 -314.413722 
L 341.695284 -313.160191 
L 342.530737 -311.847807 
L 343.366189 -310.507817 
L 344.201642 -309.118382 
L 345.037095 -307.675912 
L 345.872548 -306.155997 
L 346.708001 -304.59966 
L 347.543454 -303.01216 
L 348.378907 -301.33934 
L 349.21436 -299.605884 
L 350.049813 -297.822161 
L 350.885266 -295.968277 
L 351.720719 -294.098883 
L 352.556172 -292.084106 
L 353.391625 -290.073647 
L 354.227078 -288.020088 
L 355.06253 -285.883102 
L 355.897983 -283.675413 
L 356.733436 -281.442035 
L 357.568889 -279.145586 
L 358.404342 -276.808942 
L 359.239795 -274.411389 
L 360.075248 -271.939348 
L 360.910701 -269.462946 
L 361.746154 -266.988548 
L 362.581607 -264.480506 
L 363.41706 -261.906086 
L 364.252513 -259.316863 
L 365.087966 -256.705519 
L 365.923418 -254.025495 
L 366.758871 -251.378447 
L 367.594324 -248.715377 
L 368.429777 -245.984165 
L 369.26523 -243.247956 
L 370.100683 -240.528984 
L 370.936136 -237.759056 
L 371.771589 -235.041286 
L 372.607042 -232.281095 
L 373.442495 -229.517494 
L 374.277948 -226.777148 
L 375.113401 -224.049958 
L 375.948854 -221.315533 
L 376.784307 -218.607641 
L 377.619759 -215.879081 
L 378.455212 -213.1864 
L 379.290665 -210.543597 
L 380.126118 -207.852589 
L 380.961571 -205.182225 
L 381.797024 -202.550606 
L 382.632477 -199.964887 
L 383.46793 -197.374469 
L 384.303383 -194.792975 
L 385.138836 -192.244028 
L 385.974289 -189.794536 
L 386.809742 -187.338982 
L 387.645195 -184.914101 
L 388.480648 -182.528665 
L 389.3161 -180.210572 
L 390.151553 -177.928998 
L 390.987006 -175.696775 
L 391.822459 -173.462371 
L 392.657912 -171.3194 
L 393.493365 -169.19963 
L 394.328818 -167.142893 
L 395.164271 -165.157679 
L 395.999724 -163.20675 
L 396.835177 -161.312357 
L 397.67063 -159.461101 
L 398.506083 -157.674511 
L 399.341536 -155.926297 
L 400.176988 -154.241251 
L 401.012441 -152.605042 
L 401.847894 -151.011566 
L 402.683347 -149.417732 
L 403.5188 -147.920811 
L 404.354253 -146.48937 
L 405.189706 -145.093197 
L 406.025159 -143.712168 
L 406.860612 -142.385831 
L 407.696065 -141.073783 
L 408.531518 -139.789564 
L 409.366971 -138.515938 
L 410.202424 -137.286015 
L 411.037877 -136.075987 
L 411.873329 -134.902337 
L 412.708782 -133.705431 
L 413.544235 -132.557712 
L 414.379688 -131.397828 
L 415.215141 -130.244333 
L 416.050594 -129.103511 
L 416.886047 -127.944523 
L 417.7215 -126.807083 
L 418.556953 -125.650355 
L 419.392406 -124.514534 
L 420.227859 -123.350695 
L 421.063312 -122.174548 
L 421.898765 -121.000923 
L 422.734217 -119.812621 
L 423.56967 -118.599147 
L 424.405123 -117.3958 
L 425.240576 -116.190793 
L 426.076029 -114.968001 
L 426.911482 -113.718892 
L 427.746935 -112.474986 
L 428.582388 -111.198572 
L 429.417841 -109.922293 
L 430.253294 -108.644871 
L 431.088747 -107.336602 
L 431.9242 -106.040139 
L 432.759653 -104.724163 
L 433.595106 -103.415548 
L 434.430558 -102.093802 
L 435.266011 -100.770846 
L 436.101464 -99.452124 
L 436.936917 -98.109731 
L 437.77237 -96.778407 
L 438.607823 -95.457019 
L 439.443276 -94.120696 
L 440.278729 -92.778481 
L 441.114182 -91.462246 
L 441.949635 -90.150839 
L 442.785088 -88.841167 
L 443.620541 -87.540473 
L 444.455994 -86.231931 
L 445.291447 -84.953762 
L 446.126899 -83.698795 
L 446.962352 -82.453244 
L 447.797805 -81.233786 
L 448.633258 -80.029591 
L 449.468711 -78.827679 
L 450.304164 -77.641338 
L 451.139617 -76.486615 
L 451.97507 -75.357783 
L 452.810523 -74.246204 
L 453.645976 -73.163159 
L 454.481429 -72.098919 
L 455.316882 -71.054993 
L 456.152335 -70.046171 
L 456.987787 -69.051963 
L 457.82324 -68.08403 
L 458.658693 -67.147311 
L 459.494146 -66.231481 
L 460.329599 -65.352797 
L 461.165052 -64.500025 
L 462.000505 -63.6724 
L 462.835958 -62.866112 
L 463.671411 -62.086772 
L 464.506864 -61.342914 
L 465.342317 -60.624077 
L 466.17777 -59.920669 
L 467.013223 -59.247724 
L 467.848676 -58.589709 
L 468.684128 -57.976795 
L 469.519581 -57.362079 
L 470.355034 -56.787908 
L 471.190487 -56.241619 
L 472.02594 -55.678871 
L 472.861393 -55.177819 
L 473.696846 -54.702907 
L 474.532299 -54.23383 
L 475.367752 -53.787153 
L 476.203205 -53.371865 
L 477.038658 -52.985767 
L 477.874111 -52.612475 
L 478.709564 -52.247778 
L 479.545017 -51.916891 
L 480.380469 -51.592749 
L 481.215922 -51.291003 
L 482.051375 -50.991 
L 482.886828 -50.723376 
L 483.722281 -50.455973 
L 484.557734 -50.219379 
L 485.393187 -49.995807 
L 486.22864 -49.784608 
L 487.064093 -49.580283 
L 487.899546 -49.392496 
L 488.734999 -49.214766 
L 489.570452 -49.046313 
L 490.405905 -48.876721 
L 491.241357 -48.721158 
L 492.07681 -48.568155 
L 492.912263 -48.43199 
L 493.747716 -48.300452 
L 494.583169 -48.172787 
L 495.418622 -48.043449 
L 496.254075 -47.922111 
L 497.089528 -47.812896 
L 497.924981 -47.700106 
L 498.760434 -47.583287 
L 499.595887 -47.466704 
L 500.43134 -47.354675 
L 501.266793 -47.241184 
L 502.102246 -47.125989 
L 502.937698 -47.008902 
L 503.773151 -46.880181 
L 504.608604 -46.760549 
L 505.444057 -46.633767 
L 506.27951 -46.500708 
L 507.114963 -46.371793 
L 507.950416 -46.246213 
L 508.785869 -46.118559 
L 509.621322 -45.979586 
L 510.456775 -45.850498 
L 511.292228 -45.720313 
L 512.127681 -45.584736 
L 512.963134 -45.454694 
L 513.798586 -45.325021 
L 514.634039 -45.191482 
L 515.469492 -45.065046 
L 516.304945 -44.940564 
L 517.140398 -44.818601 
L 517.975851 -44.690088 
L 518.811304 -44.576328 
L 519.646757 -44.45676 
L 520.48221 -44.352641 
L 521.317663 -44.252951 
L 522.153116 -44.158073 
L 522.988569 -44.068319 
L 523.824022 -43.983936 
L 524.659475 -43.905099 
L 525.494927 -43.831914 
L 526.33038 -43.764413 
L 527.165833 -43.702559 
L 528.001286 -43.646249 
L 528.836739 -43.595311 
L 529.672192 -43.55044 
L 530.507645 -43.506564 
L 531.343098 -43.472858 
L 532.178551 -43.448997 
L 533.014004 -43.424241 
L 533.849457 -43.403022 
L 534.68491 -43.390675 
L 535.520363 -43.376416 
L 536.355816 -43.364661 
L 537.191268 -43.35022 
L 538.026721 -43.343121 
L 538.862174 -43.337302 
L 539.697627 -43.32765 
L 540.53308 -43.330016 
L 541.368533 -43.32807 
L 542.203986 -43.332185 
L 543.039439 -43.331865 
L 543.039439 -41.627622 
L 543.039439 -41.627622 
L 542.203986 -41.627622 
L 541.368533 -41.627622 
L 540.53308 -41.627622 
L 539.697627 -41.627622 
L 538.862174 -41.627622 
L 538.026721 -41.627622 
L 537.191268 -41.627622 
L 536.355816 -41.627622 
L 535.520363 -41.627622 
L 534.68491 -41.627622 
L 533.849457 -41.627622 
L 533.014004 -41.627622 
L 532.178551 -41.627622 
L 531.343098 -41.627622 
L 530.507645 -41.627622 
L 529.672192 -41.627622 
L 528.836739 -41.627622 
L 528.001286 -41.627622 
L 527.165833 -41.627622 
L 526.33038 -41.627622 
L 525.494927 -41.627622 
L 524.659475 -41.627622 
L 523.824022 -41.627622 
L 522.988569 -41.627622 
L 522.153116 -41.627622 
L 521.317663 -41.627622 
L 520.48221 -41.627622 
L 519.646757 -41.627622 
L 518.811304 -41.627622 
L 517.975851 -41.627622 
L 517.140398 -41.627622 
L 516.304945 -41.627622 
L 515.469492 -41.627622 
L 514.634039 -41.627622 
L 513.798586 -41.627622 
L 512.963134 -41.627622 
L 512.127681 -41.627622 
L 511.292228 -41.627622 
L 510.456775 -41.627622 
L 509.621322 -41.627622 
L 508.785869 -41.627622 
L 507.950416 -41.627622 
L 507.114963 -41.627622 
L 506.27951 -41.627622 
L 505.444057 -41.627622 
L 504.608604 -41.627622 
L 503.773151 -41.627622 
L 502.937698 -41.627622 
L 502.102246 -41.627622 
L 501.266793 -41.627622 
L 500.43134 -41.627622 
L 499.595887 -41.627622 
L 498.760434 -41.627622 
L 497.924981 -41.627622 
L 497.089528 -41.627622 
L 496.254075 -41.627622 
L 495.418622 -41.627622 
L 494.583169 -41.627622 
L 493.747716 -41.627622 
L 492.912263 -41.627622 
L 492.07681 -41.627622 
L 491.241357 -41.627622 
L 490.405905 -41.627622 
L 489.570452 -41.627622 
L 488.734999 -41.627622 
L 487.899546 -41.627622 
L 487.064093 -41.627622 
L 486.22864 -41.627622 
L 485.393187 -41.627622 
L 484.557734 -41.627622 
L 483.722281 -41.627622 
L 482.886828 -41.627622 
L 482.051375 -41.627622 
L 481.215922 -41.627622 
L 480.380469 -41.627622 
L 479.545017 -41.627622 
L 478.709564 -41.627622 
L 477.874111 -41.627622 
L 477.038658 -41.627622 
L 476.203205 -41.627622 
L 475.367752 -41.627622 
L 474.532299 -41.627622 
L 473.696846 -41.627622 
L 472.861393 -41.627622 
L 472.02594 -41.627622 
L 471.190487 -41.627622 
L 470.355034 -41.627622 
L 469.519581 -41.627622 
L 468.684128 -41.627622 
L 467.848676 -41.627622 
L 467.013223 -41.627622 
L 466.17777 -41.627622 
L 465.342317 -41.627622 
L 464.506864 -41.627622 
L 463.671411 -41.627622 
L 462.835958 -41.627622 
L 462.000505 -41.627622 
L 461.165052 -41.627622 
L 460.329599 -41.627622 
L 459.494146 -41.627622 
L 458.658693 -41.627622 
L 457.82324 -41.627622 
L 456.987787 -41.627622 
L 456.152335 -41.627622 
L 455.316882 -41.627622 
L 454.481429 -41.627622 
L 453.645976 -41.627622 
L 452.810523 -41.627622 
L 451.97507 -41.627622 
L 451.139617 -41.627622 
L 450.304164 -41.627622 
L 449.468711 -41.627622 
L 448.633258 -41.627622 
L 447.797805 -41.627622 
L 446.962352 -41.627622 
L 446.126899 -41.627622 
L 445.291447 -41.627622 
L 444.455994 -41.627622 
L 443.620541 -41.627622 
L 442.785088 -41.627622 
L 441.949635 -41.627622 
L 441.114182 -41.627622 
L 440.278729 -41.627622 
L 439.443276 -41.627622 
L 438.607823 -41.627622 
L 437.77237 -41.627622 
L 436.936917 -41.627622 
L 436.101464 -41.627622 
L 435.266011 -41.627622 
L 434.430558 -41.627622 
L 433.595106 -41.627622 
L 432.759653 -41.627622 
L 431.9242 -41.627622 
L 431.088747 -41.627622 
L 430.253294 -41.627622 
L 429.417841 -41.627622 
L 428.582388 -41.627622 
L 427.746935 -41.627622 
L 426.911482 -41.627622 
L 426.076029 -41.627622 
L 425.240576 -41.627622 
L 424.405123 -41.627622 
L 423.56967 -41.627622 
L 422.734217 -41.627622 
L 421.898765 -41.627622 
L 421.063312 -41.627622 
L 420.227859 -41.627622 
L 419.392406 -41.627622 
L 418.556953 -41.627622 
L 417.7215 -41.627622 
L 416.886047 -41.627622 
L 416.050594 -41.627622 
L 415.215141 -41.627622 
L 414.379688 -41.627622 
L 413.544235 -41.627622 
L 412.708782 -41.627622 
L 411.873329 -41.627622 
L 411.037877 -41.627622 
L 410.202424 -41.627622 
L 409.366971 -41.627622 
L 408.531518 -41.627622 
L 407.696065 -41.627622 
L 406.860612 -41.627622 
L 406.025159 -41.627622 
L 405.189706 -41.627622 
L 404.354253 -41.627622 
L 403.5188 -41.627622 
L 402.683347 -41.627622 
L 401.847894 -41.627622 
L 401.012441 -41.627622 
L 400.176988 -41.627622 
L 399.341536 -41.627622 
L 398.506083 -41.627622 
L 397.67063 -41.627622 
L 396.835177 -41.627622 
L 395.999724 -41.627622 
L 395.164271 -41.627622 
L 394.328818 -41.627622 
L 393.493365 -41.627622 
L 392.657912 -41.627622 
L 391.822459 -41.627622 
L 390.987006 -41.627622 
L 390.151553 -41.627622 
L 389.3161 -41.627622 
L 388.480648 -41.627622 
L 387.645195 -41.627622 
L 386.809742 -41.627622 
L 385.974289 -41.627622 
L 385.138836 -41.627622 
L 384.303383 -41.627622 
L 383.46793 -41.627622 
L 382.632477 -41.627622 
L 381.797024 -41.627622 
L 380.961571 -41.627622 
L 380.126118 -41.627622 
L 379.290665 -41.627622 
L 378.455212 -41.627622 
L 377.619759 -41.627622 
L 376.784307 -41.627622 
L 375.948854 -41.627622 
L 375.113401 -41.627622 
L 374.277948 -41.627622 
L 373.442495 -41.627622 
L 372.607042 -41.627622 
L 371.771589 -41.627622 
L 370.936136 -41.627622 
L 370.100683 -41.627622 
L 369.26523 -41.627622 
L 368.429777 -41.627622 
L 367.594324 -41.627622 
L 366.758871 -41.627622 
L 365.923418 -41.627622 
L 365.087966 -41.627622 
L 364.252513 -41.627622 
L 363.41706 -41.627622 
L 362.581607 -41.627622 
L 361.746154 -41.627622 
L 360.910701 -41.627622 
L 360.075248 -41.627622 
L 359.239795 -41.627622 
L 358.404342 -41.627622 
L 357.568889 -41.627622 
L 356.733436 -41.627622 
L 355.897983 -41.627622 
L 355.06253 -41.627622 
L 354.227078 -41.627622 
L 353.391625 -41.627622 
L 352.556172 -41.627622 
L 351.720719 -41.627622 
L 350.885266 -41.627622 
L 350.049813 -41.627622 
L 349.21436 -41.627622 
L 348.378907 -41.627622 
L 347.543454 -41.627622 
L 346.708001 -41.627622 
L 345.872548 -41.627622 
L 345.037095 -41.627622 
L 344.201642 -41.627622 
L 343.366189 -41.627622 
L 342.530737 -41.627622 
L 341.695284 -41.627622 
L 340.859831 -41.627622 
L 340.024378 -41.627622 
L 339.188925 -41.627622 
L 338.353472 -41.627622 
L 337.518019 -41.627622 
L 336.682566 -41.627622 
L 335.847113 -41.627622 
L 335.01166 -41.627622 
L 334.176207 -41.627622 
L 333.340754 -41.627622 
L 332.505301 -41.627622 
L 331.669849 -41.627622 
L 330.834396 -41.627622 
L 329.998943 -41.627622 
L 329.16349 -41.627622 
L 328.328037 -41.627622 
L 327.492584 -41.627622 
L 326.657131 -41.627622 
L 325.821678 -41.627622 
L 324.986225 -41.627622 
L 324.150772 -41.627622 
L 323.315319 -41.627622 
L 322.479866 -41.627622 
L 321.644413 -41.627622 
L 320.80896 -41.627622 
L 319.973508 -41.627622 
L 319.138055 -41.627622 
L 318.302602 -41.627622 
L 317.467149 -41.627622 
L 316.631696 -41.627622 
L 315.796243 -41.627622 
L 314.96079 -41.627622 
L 314.125337 -41.627622 
L 313.289884 -41.627622 
L 312.454431 -41.627622 
L 311.618978 -41.627622 
L 310.783525 -41.627622 
L 309.948072 -41.627622 
L 309.112619 -41.627622 
L 308.277167 -41.627622 
L 307.441714 -41.627622 
L 306.606261 -41.627622 
L 305.770808 -41.627622 
L 304.935355 -41.627622 
L 304.099902 -41.627622 
L 303.264449 -41.627622 
L 302.428996 -41.627622 
L 301.593543 -41.627622 
L 300.75809 -41.627622 
L 299.922637 -41.627622 
L 299.087184 -41.627622 
L 298.251731 -41.627622 
L 297.416279 -41.627622 
L 296.580826 -41.627622 
L 295.745373 -41.627622 
L 294.90992 -41.627622 
L 294.074467 -41.627622 
L 293.239014 -41.627622 
L 292.403561 -41.627622 
L 291.568108 -41.627622 
L 290.732655 -41.627622 
L 289.897202 -41.627622 
L 289.061749 -41.627622 
L 288.226296 -41.627622 
L 287.390843 -41.627622 
L 286.55539 -41.627622 
L 285.719938 -41.627622 
L 284.884485 -41.627622 
L 284.049032 -41.627622 
L 283.213579 -41.627622 
L 282.378126 -41.627622 
L 281.542673 -41.627622 
L 280.70722 -41.627622 
L 279.871767 -41.627622 
L 279.036314 -41.627622 
L 278.200861 -41.627622 
L 277.365408 -41.627622 
L 276.529955 -41.627622 
L 275.694502 -41.627622 
L 274.859049 -41.627622 
L 274.023597 -41.627622 
L 273.188144 -41.627622 
L 272.352691 -41.627622 
L 271.517238 -41.627622 
L 270.681785 -41.627622 
L 269.846332 -41.627622 
L 269.010879 -41.627622 
L 268.175426 -41.627622 
L 267.339973 -41.627622 
L 266.50452 -41.627622 
L 265.669067 -41.627622 
L 264.833614 -41.627622 
L 263.998161 -41.627622 
L 263.162709 -41.627622 
L 262.327256 -41.627622 
L 261.491803 -41.627622 
L 260.65635 -41.627622 
L 259.820897 -41.627622 
L 258.985444 -41.627622 
L 258.149991 -41.627622 
L 257.314538 -41.627622 
L 256.479085 -41.627622 
L 255.643632 -41.627622 
L 254.808179 -41.627622 
L 253.972726 -41.627622 
L 253.137273 -41.627622 
L 252.30182 -41.627622 
L 251.466368 -41.627622 
L 250.630915 -41.627622 
L 249.795462 -41.627622 
L 248.960009 -41.627622 
L 248.124556 -41.627622 
L 247.289103 -41.627622 
L 246.45365 -41.627622 
L 245.618197 -41.627622 
L 244.782744 -41.627622 
L 243.947291 -41.627622 
L 243.111838 -41.627622 
L 242.276385 -41.627622 
L 241.440932 -41.627622 
L 240.60548 -41.627622 
L 239.770027 -41.627622 
L 238.934574 -41.627622 
L 238.099121 -41.627622 
L 237.263668 -41.627622 
L 236.428215 -41.627622 
L 235.592762 -41.627622 
L 234.757309 -41.627622 
L 233.921856 -41.627622 
L 233.086403 -41.627622 
L 232.25095 -41.627622 
L 231.415497 -41.627622 
L 230.580044 -41.627622 
L 229.744591 -41.627622 
L 228.909139 -41.627622 
L 228.073686 -41.627622 
L 227.238233 -41.627622 
L 226.40278 -41.627622 
L 225.567327 -41.627622 
L 224.731874 -41.627622 
L 223.896421 -41.627622 
L 223.060968 -41.627622 
L 222.225515 -41.627622 
L 221.390062 -41.627622 
L 220.554609 -41.627622 
L 219.719156 -41.627622 
L 218.883703 -41.627622 
L 218.04825 -41.627622 
L 217.212798 -41.627622 
L 216.377345 -41.627622 
L 215.541892 -41.627622 
L 214.706439 -41.627622 
L 213.870986 -41.627622 
L 213.035533 -41.627622 
L 212.20008 -41.627622 
L 211.364627 -41.627622 
L 210.529174 -41.627622 
L 209.693721 -41.627622 
L 208.858268 -41.627622 
L 208.022815 -41.627622 
L 207.187362 -41.627622 
L 206.35191 -41.627622 
L 205.516457 -41.627622 
L 204.681004 -41.627622 
L 203.845551 -41.627622 
L 203.010098 -41.627622 
L 202.174645 -41.627622 
L 201.339192 -41.627622 
L 200.503739 -41.627622 
L 199.668286 -41.627622 
L 198.832833 -41.627622 
L 197.99738 -41.627622 
L 197.161927 -41.627622 
L 196.326474 -41.627622 
L 195.491021 -41.627622 
L 194.655569 -41.627622 
L 193.820116 -41.627622 
L 192.984663 -41.627622 
L 192.14921 -41.627622 
L 191.313757 -41.627622 
L 190.478304 -41.627622 
L 189.642851 -41.627622 
L 188.807398 -41.627622 
L 187.971945 -41.627622 
L 187.136492 -41.627622 
L 186.301039 -41.627622 
L 185.465586 -41.627622 
L 184.630133 -41.627622 
L 183.79468 -41.627622 
L 182.959228 -41.627622 
L 182.123775 -41.627622 
L 181.288322 -41.627622 
L 180.452869 -41.627622 
L 179.617416 -41.627622 
L 178.781963 -41.627622 
L 177.94651 -41.627622 
L 177.111057 -41.627622 
L 176.275604 -41.627622 
L 175.440151 -41.627622 
L 174.604698 -41.627622 
L 173.769245 -41.627622 
L 172.933792 -41.627622 
L 172.09834 -41.627622 
L 171.262887 -41.627622 
L 170.427434 -41.627622 
L 169.591981 -41.627622 
L 168.756528 -41.627622 
L 167.921075 -41.627622 
L 167.085622 -41.627622 
L 166.250169 -41.627622 
L 165.414716 -41.627622 
L 164.579263 -41.627622 
L 163.74381 -41.627622 
L 162.908357 -41.627622 
L 162.072904 -41.627622 
L 161.237451 -41.627622 
L 160.401999 -41.627622 
L 159.566546 -41.627622 
L 158.731093 -41.627622 
L 157.89564 -41.627622 
L 157.060187 -41.627622 
L 156.224734 -41.627622 
L 155.389281 -41.627622 
L 154.553828 -41.627622 
L 153.718375 -41.627622 
L 152.882922 -41.627622 
L 152.047469 -41.627622 
L 151.212016 -41.627622 
L 150.376563 -41.627622 
L 149.541111 -41.627622 
L 148.705658 -41.627622 
L 147.870205 -41.627622 
L 147.034752 -41.627622 
L 146.199299 -41.627622 
L 145.363846 -41.627622 
L 144.528393 -41.627622 
L 143.69294 -41.627622 
L 142.857487 -41.627622 
L 142.022034 -41.627622 
L 141.186581 -41.627622 
L 140.351128 -41.627622 
L 139.515675 -41.627622 
L 138.680222 -41.627622 
L 137.84477 -41.627622 
L 137.009317 -41.627622 
L 136.173864 -41.627622 
L 135.338411 -41.627622 
L 134.502958 -41.627622 
L 133.667505 -41.627622 
L 132.832052 -41.627622 
L 131.996599 -41.627622 
L 131.161146 -41.627622 
L 130.325693 -41.627622 
L 129.49024 -41.627622 
L 128.654787 -41.627622 
L 127.819334 -41.627622 
L 126.983881 -41.627622 
L 126.148429 -41.627622 
L 125.312976 -41.627622 
L 124.477523 -41.627622 
L 123.64207 -41.627622 
L 122.806617 -41.627622 
L 121.971164 -41.627622 
L 121.135711 -41.627622 
L 120.300258 -41.627622 
L 119.464805 -41.627622 
L 118.629352 -41.627622 
L 117.793899 -41.627622 
L 116.958446 -41.627622 
L 116.122993 -41.627622 
z
" style="stroke: #2a2eec; stroke-opacity: 0; stroke-width: 0.8"/>
    </defs>
    <g clip-path="url(#p717a88a3cc)">
     <use xlink:href="#m0f69284bc2" x="0" y="368.39952" style="fill: #2a2eec; fill-opacity: 0; stroke: #2a2eec; stroke-opacity: 0; stroke-width: 0.8"/>
    </g>
   </g>
   <g id="line2d_15">
    <path d="M 116.122993 317.487541 
L 118.629352 317.372925 
L 121.971164 316.935068 
L 124.477523 316.422609 
L 127.819334 315.437032 
L 130.325693 314.456278 
L 133.667505 312.859422 
L 137.009317 310.900728 
L 140.351128 308.556173 
L 143.69294 305.89012 
L 147.034752 302.939683 
L 152.047469 298.101827 
L 157.89564 292.076423 
L 165.414716 284.023412 
L 172.09834 276.721886 
L 180.452869 266.991344 
L 184.630133 261.800816 
L 188.807398 256.298764 
L 192.984663 250.232228 
L 196.326474 244.930887 
L 198.832833 240.534055 
L 201.339192 235.716804 
L 203.845551 230.493544 
L 206.35191 224.795132 
L 208.858268 218.471091 
L 212.20008 209.374126 
L 215.541892 199.45443 
L 219.719156 186.432813 
L 226.40278 165.565708 
L 229.744591 155.895328 
L 232.25095 149.233932 
L 234.757309 143.079526 
L 237.263668 137.506403 
L 239.770027 132.450266 
L 243.111838 126.334728 
L 246.45365 120.76998 
L 253.137273 109.827725 
L 256.479085 103.982849 
L 259.820897 97.635639 
L 263.998161 89.230692 
L 271.517238 73.566863 
L 274.023597 68.668839 
L 277.365408 62.829239 
L 279.036314 60.189209 
L 281.542673 56.699733 
L 284.049032 53.851786 
L 285.719938 52.237787 
L 288.226296 50.205372 
L 289.897202 49.125584 
L 292.403561 47.743264 
L 299.087184 45.260314 
L 302.428996 44.270034 
L 308.277167 42.229405 
L 312.454431 40.737216 
L 314.125337 40.266287 
L 317.467149 39.517076 
L 319.138055 39.3899 
L 320.80896 39.349274 
L 322.479866 39.538886 
L 324.986225 40.107195 
L 326.657131 40.751054 
L 328.328037 41.583282 
L 329.998943 42.59931 
L 331.669849 43.802157 
L 334.176207 46.020172 
L 336.682566 48.646767 
L 339.188925 51.698564 
L 340.859831 53.985798 
L 343.366189 57.891703 
L 345.872548 62.243523 
L 348.378907 67.06018 
L 350.885266 72.431243 
L 352.556172 76.315414 
L 355.06253 82.516418 
L 358.404342 91.590578 
L 361.746154 101.410972 
L 365.087966 111.694001 
L 372.607042 136.118425 
L 379.290665 157.855923 
L 383.46793 171.025051 
L 386.809742 181.060538 
L 390.151553 190.470522 
L 393.493365 199.19989 
L 395.999724 205.19277 
L 398.506083 210.725009 
L 401.012441 215.794478 
L 403.5188 220.478709 
L 406.860612 226.013689 
L 410.202424 231.113505 
L 414.379688 237.001692 
L 424.405123 251.00372 
L 428.582388 257.200948 
L 434.430558 266.305718 
L 446.962352 285.946276 
L 451.139617 291.912905 
L 454.481429 296.300601 
L 457.82324 300.31549 
L 461.165052 303.899495 
L 464.506864 307.056606 
L 467.848676 309.809811 
L 471.190487 312.157901 
L 472.861393 313.221701 
L 476.203205 315.027655 
L 479.545017 316.482629 
L 482.886828 317.676144 
L 485.393187 318.403713 
L 489.570452 319.353207 
L 493.747716 320.099068 
L 502.102246 321.273531 
L 510.456775 322.549022 
L 521.317663 324.146569 
L 526.33038 324.635107 
L 531.343098 324.926662 
L 539.697627 325.07187 
L 543.039439 325.067655 
L 543.039439 325.067655 
" clip-path="url(#p717a88a3cc)" style="fill: none; stroke: #2a2eec; stroke-width: 3.227486; stroke-linecap: round"/>
   </g>
   <g id="line2d_16">
    <path d="M 183.435861 320.035772 
L 436.568764 320.035772 
" clip-path="url(#p717a88a3cc)" style="fill: none; stroke: #000000; stroke-width: 6.454972"/>
   </g>
   <g id="patch_3">
    <path d="M 16.613501 341.144078 
L 567.786019 341.144078 
" style="fill: none"/>
   </g>
   <g id="text_8">
    <!-- 0.76  -->
    <g style="fill: #262626" transform="translate(151.161 303.195457)scale(0.161374 -0.161374)">
     <defs>
      <path id="STIXGeneral-Regular-37" d="M 2874 4134 
L 1517 -51 
L 1101 -51 
L 2368 3763 
L 992 3763 
Q 717 3763 582 3667 
Q 448 3571 243 3238 
L 128 3296 
L 512 4237 
L 2874 4237 
L 2874 4134 
z
" transform="scale(0.015625)"/>
      <path id="STIXGeneral-Regular-20" transform="scale(0.015625)"/>
     </defs>
     <use xlink:href="#STIXGeneral-Regular-30"/>
     <use xlink:href="#STIXGeneral-Regular-2e" x="49.999985"/>
     <use xlink:href="#STIXGeneral-Regular-37" x="74.999969"/>
     <use xlink:href="#STIXGeneral-Regular-36" x="124.999954"/>
     <use xlink:href="#STIXGeneral-Regular-20" x="174.999939"/>
    </g>
   </g>
   <g id="text_9">
    <!--  1.3 -->
    <g style="fill: #262626" transform="translate(436.568764 303.195457)scale(0.161374 -0.161374)">
     <defs>
      <path id="STIXGeneral-Regular-33" d="M 390 3264 
L 288 3290 
Q 435 3770 748 4048 
Q 1062 4326 1542 4326 
Q 1990 4326 2265 4083 
Q 2541 3840 2541 3450 
Q 2541 2925 1946 2566 
Q 2298 2413 2477 2227 
Q 2758 1914 2758 1402 
Q 2758 890 2464 506 
Q 2246 211 1840 60 
Q 1434 -90 979 -90 
Q 262 -90 262 275 
Q 262 378 339 442 
Q 416 506 525 506 
Q 685 506 915 339 
Q 1197 141 1466 141 
Q 1818 141 2058 425 
Q 2298 710 2298 1120 
Q 2298 1856 1632 2048 
Q 1434 2112 979 2112 
L 979 2202 
Q 1338 2323 1517 2432 
Q 2035 2726 2035 3290 
Q 2035 3610 1852 3776 
Q 1670 3942 1344 3942 
Q 768 3942 390 3264 
z
" transform="scale(0.015625)"/>
     </defs>
     <use xlink:href="#STIXGeneral-Regular-20"/>
     <use xlink:href="#STIXGeneral-Regular-31" x="24.999985"/>
     <use xlink:href="#STIXGeneral-Regular-2e" x="74.999969"/>
     <use xlink:href="#STIXGeneral-Regular-33" x="99.999954"/>
    </g>
   </g>
   <g id="text_10">
    <!-- 94% HDI -->
    <g style="fill: #262626" transform="translate(279.550476 225.730008)scale(0.161374 -0.161374)">
     <defs>
      <path id="STIXGeneral-Regular-39" d="M 378 -141 
L 358 -13 
Q 1094 115 1603 608 
Q 2112 1101 2304 1882 
Q 1933 1517 1344 1517 
Q 826 1517 509 1875 
Q 192 2234 192 2816 
Q 192 3462 573 3894 
Q 954 4326 1523 4326 
Q 2131 4326 2528 3840 
Q 2938 3328 2938 2522 
Q 2938 1958 2742 1462 
Q 2547 966 2170 621 
Q 1773 262 1395 105 
Q 1018 -51 378 -141 
z
M 2317 2272 
L 2317 2522 
Q 2317 4147 1472 4147 
Q 1171 4147 1005 3930 
Q 909 3802 845 3546 
Q 781 3290 781 3034 
Q 781 2464 995 2128 
Q 1210 1792 1568 1792 
Q 1824 1792 2070 1917 
Q 2317 2042 2317 2272 
z
" transform="scale(0.015625)"/>
      <path id="STIXGeneral-Regular-25" d="M 4390 1363 
Q 4390 781 4070 329 
Q 3750 -122 3341 -122 
Q 3014 -122 2790 134 
Q 2566 390 2566 762 
Q 2566 1274 2940 1693 
Q 3315 2112 3776 2112 
Q 4070 2112 4230 1917 
Q 4390 1722 4390 1363 
z
M 4243 1376 
Q 4243 1626 4131 1779 
Q 4019 1933 3840 1933 
Q 3654 1933 3526 1786 
Q 3315 1562 3171 1187 
Q 3027 813 3027 486 
Q 3027 301 3129 176 
Q 3232 51 3386 51 
Q 3718 51 3980 457 
Q 4243 864 4243 1376 
z
M 3974 4518 
L 1222 -115 
L 922 -115 
L 3443 4096 
Q 3264 3891 3094 3811 
Q 2925 3731 2669 3731 
Q 2445 3731 2182 3821 
Q 2208 3674 2208 3539 
Q 2208 3206 2067 2873 
Q 1926 2541 1696 2323 
Q 1453 2086 1146 2086 
Q 826 2086 608 2339 
Q 390 2592 390 2963 
Q 390 3507 761 3916 
Q 1133 4326 1626 4326 
Q 1792 4326 2010 4147 
Q 2310 3898 2624 3898 
Q 2918 3898 3084 3994 
Q 3251 4090 3693 4518 
L 3974 4518 
z
M 2054 3642 
Q 2054 3782 2025 3833 
Q 1997 3885 1894 3936 
Q 1747 4006 1613 4154 
Q 1414 4058 1331 3984 
Q 1248 3910 1152 3750 
Q 845 3264 845 2707 
Q 845 2509 944 2384 
Q 1043 2259 1210 2259 
Q 1549 2259 1801 2675 
Q 2054 3091 2054 3642 
z
" transform="scale(0.015625)"/>
      <path id="STIXGeneral-Regular-48" d="M 4499 0 
L 2714 0 
L 2714 122 
Q 3085 147 3181 265 
Q 3277 384 3277 794 
L 3277 2016 
L 1338 2016 
L 1338 723 
Q 1338 371 1440 256 
Q 1542 141 1894 122 
L 1901 0 
L 115 0 
L 115 122 
Q 493 147 589 259 
Q 685 371 685 781 
L 685 3507 
Q 685 3878 585 3980 
Q 486 4083 115 4115 
L 115 4237 
L 1907 4237 
L 1907 4115 
Q 1549 4083 1443 3977 
Q 1338 3872 1338 3507 
L 1338 2298 
L 3277 2298 
L 3277 3507 
Q 3277 3878 3177 3980 
Q 3078 4083 2707 4115 
L 2707 4237 
L 4499 4237 
L 4499 4115 
Q 4141 4083 4035 3977 
Q 3930 3872 3930 3507 
L 3930 710 
Q 3930 371 4035 259 
Q 4141 147 4499 122 
L 4499 0 
z
" transform="scale(0.015625)"/>
      <path id="STIXGeneral-Regular-44" d="M 102 4237 
L 1830 4237 
Q 3078 4237 3750 3654 
Q 4384 3110 4384 2138 
Q 4384 966 3514 410 
Q 2880 0 1901 0 
L 102 0 
L 102 122 
Q 474 147 570 252 
Q 666 358 666 736 
L 666 3520 
Q 666 3891 570 3990 
Q 474 4090 102 4115 
L 102 4237 
z
M 1318 3731 
L 1318 538 
Q 1318 365 1379 301 
Q 1440 237 1626 237 
Q 2125 237 2432 307 
Q 2739 378 3021 570 
Q 3686 1018 3686 2099 
Q 3686 3027 3078 3558 
Q 2803 3802 2476 3901 
Q 2150 4000 1658 4000 
Q 1472 4000 1395 3942 
Q 1318 3885 1318 3731 
z
" transform="scale(0.015625)"/>
      <path id="STIXGeneral-Regular-49" d="M 2016 0 
L 115 0 
L 115 122 
Q 518 134 627 240 
Q 736 346 736 717 
L 736 3526 
Q 736 3898 633 3994 
Q 531 4090 115 4115 
L 115 4237 
L 2016 4237 
L 2016 4115 
Q 1613 4096 1501 3993 
Q 1389 3891 1389 3526 
L 1389 717 
Q 1389 358 1504 246 
Q 1619 134 2016 122 
L 2016 0 
z
" transform="scale(0.015625)"/>
     </defs>
     <use xlink:href="#STIXGeneral-Regular-39"/>
     <use xlink:href="#STIXGeneral-Regular-34" x="49.999985"/>
     <use xlink:href="#STIXGeneral-Regular-25" x="99.999969"/>
     <use xlink:href="#STIXGeneral-Regular-20" x="174.699951"/>
     <use xlink:href="#STIXGeneral-Regular-48" x="199.699936"/>
     <use xlink:href="#STIXGeneral-Regular-44" x="271.899918"/>
     <use xlink:href="#STIXGeneral-Regular-49" x="344.099899"/>
    </g>
   </g>
   <g id="text_11">
    <!-- mean=1 -->
    <g style="fill: #262626" transform="translate(279.631215 57.326858)scale(0.161374 -0.161374)">
     <defs>
      <path id="STIXGeneral-Regular-6d" d="M 4960 0 
L 3565 0 
L 3565 96 
Q 3834 122 3907 208 
Q 3981 294 3981 576 
L 3981 1894 
Q 3981 2278 3869 2444 
Q 3757 2611 3488 2611 
Q 3264 2611 3107 2521 
Q 2950 2432 2803 2221 
L 2803 608 
Q 2803 301 2896 201 
Q 2989 102 3264 96 
L 3264 0 
L 1830 0 
L 1830 96 
Q 2112 115 2189 188 
Q 2266 262 2266 550 
L 2266 1901 
Q 2266 2611 1850 2611 
Q 1670 2611 1468 2531 
Q 1267 2451 1171 2336 
Q 1088 2240 1088 2227 
L 1088 448 
Q 1088 243 1177 176 
Q 1267 109 1523 96 
L 1523 0 
L 102 0 
L 102 96 
Q 371 102 460 195 
Q 550 288 550 563 
L 550 2150 
Q 550 2387 499 2480 
Q 448 2573 326 2573 
Q 230 2573 122 2547 
L 122 2656 
Q 557 2778 1011 2944 
L 1062 2925 
L 1062 2451 
L 1075 2451 
Q 1363 2752 1584 2848 
Q 1805 2944 2054 2944 
Q 2560 2944 2733 2406 
Q 3232 2944 3776 2944 
Q 4518 2944 4518 1792 
L 4518 493 
Q 4518 282 4582 202 
Q 4646 122 4794 109 
L 4960 96 
L 4960 0 
z
" transform="scale(0.015625)"/>
      <path id="STIXGeneral-Regular-65" d="M 2611 1050 
L 2714 1005 
Q 2330 -64 1376 -64 
Q 813 -64 486 329 
Q 160 723 160 1389 
Q 160 2074 525 2509 
Q 890 2944 1485 2944 
Q 2061 2944 2374 2502 
Q 2560 2246 2592 1773 
L 621 1773 
Q 646 1370 700 1158 
Q 755 947 915 730 
Q 1184 378 1626 378 
Q 1939 378 2153 531 
Q 2368 685 2611 1050 
z
M 634 1978 
L 1939 1978 
Q 1882 2381 1750 2547 
Q 1619 2714 1312 2714 
Q 1043 2714 864 2525 
Q 685 2336 634 1978 
z
" transform="scale(0.015625)"/>
      <path id="STIXGeneral-Regular-61" d="M 2829 422 
L 2829 243 
Q 2586 -64 2253 -64 
Q 1888 -64 1843 403 
L 1837 403 
Q 1427 -64 909 -64 
Q 608 -64 422 112 
Q 237 288 237 602 
Q 237 1050 685 1350 
Q 992 1555 1837 1869 
L 1837 2214 
Q 1837 2502 1699 2646 
Q 1562 2790 1338 2790 
Q 1146 2790 1018 2697 
Q 890 2605 890 2477 
Q 890 2419 909 2348 
Q 928 2278 928 2208 
Q 928 2112 841 2029 
Q 755 1946 634 1946 
Q 525 1946 441 2029 
Q 358 2112 358 2240 
Q 358 2547 685 2752 
Q 986 2944 1421 2944 
Q 1939 2944 2176 2656 
Q 2291 2522 2323 2384 
Q 2355 2246 2355 1946 
L 2355 723 
Q 2355 301 2554 301 
Q 2682 301 2829 422 
z
M 1837 813 
L 1837 1715 
Q 1248 1510 1018 1293 
Q 800 1094 800 800 
Q 800 557 921 432 
Q 1043 307 1242 307 
Q 1453 307 1613 410 
Q 1747 506 1792 589 
Q 1837 672 1837 813 
z
" transform="scale(0.015625)"/>
      <path id="STIXGeneral-Regular-6e" d="M 3104 0 
L 1773 0 
L 1779 96 
Q 2016 115 2096 233 
Q 2176 352 2176 672 
L 2176 1946 
Q 2176 2592 1709 2592 
Q 1549 2592 1408 2515 
Q 1267 2438 1050 2227 
L 1050 461 
Q 1050 269 1136 192 
Q 1222 115 1466 96 
L 1466 0 
L 115 0 
L 115 96 
Q 358 115 435 214 
Q 512 314 512 602 
L 512 2157 
Q 512 2394 467 2483 
Q 422 2573 288 2573 
Q 160 2573 102 2547 
L 102 2656 
Q 550 2784 979 2944 
L 1030 2925 
L 1030 2426 
L 1037 2426 
Q 1491 2944 1958 2944 
Q 2323 2944 2518 2688 
Q 2714 2432 2714 1958 
L 2714 544 
Q 2714 288 2790 205 
Q 2867 122 3104 96 
L 3104 0 
z
" transform="scale(0.015625)"/>
      <path id="STIXGeneral-Regular-3d" d="M 4077 2048 
L 307 2048 
L 307 2470 
L 4077 2470 
L 4077 2048 
z
M 4077 768 
L 307 768 
L 307 1190 
L 4077 1190 
L 4077 768 
z
" transform="scale(0.015625)"/>
     </defs>
     <use xlink:href="#STIXGeneral-Regular-6d"/>
     <use xlink:href="#STIXGeneral-Regular-65" x="77.799988"/>
     <use xlink:href="#STIXGeneral-Regular-61" x="122.199982"/>
     <use xlink:href="#STIXGeneral-Regular-6e" x="166.599976"/>
     <use xlink:href="#STIXGeneral-Regular-3d" x="216.59996"/>
     <use xlink:href="#STIXGeneral-Regular-31" x="285.099945"/>
    </g>
   </g>
   <g id="text_12">
    <!-- alpha -->
    <g style="fill: #262626" transform="translate(16.613501 18.956118)scale(0.172133 -0.172133)">
     <defs>
      <path id="STIXGeneral-Regular-6c" d="M 1645 0 
L 134 0 
L 134 96 
Q 435 122 531 221 
Q 627 320 627 589 
L 627 3590 
Q 627 3821 569 3910 
Q 512 4000 358 4000 
Q 224 4000 122 3987 
L 122 4090 
Q 730 4237 1133 4371 
L 1165 4346 
L 1165 557 
Q 1165 288 1254 201 
Q 1344 115 1645 96 
L 1645 0 
z
" transform="scale(0.015625)"/>
      <path id="STIXGeneral-Regular-70" d="M 1018 2931 
L 1018 2438 
Q 1421 2944 1939 2944 
Q 2406 2944 2707 2560 
Q 3008 2176 3008 1581 
Q 3008 883 2621 409 
Q 2234 -64 1664 -64 
Q 1466 -64 1328 -6 
Q 1190 51 1018 211 
L 1018 -794 
Q 1018 -1094 1120 -1180 
Q 1222 -1267 1581 -1274 
L 1581 -1389 
L 32 -1389 
L 32 -1280 
Q 314 -1254 397 -1171 
Q 480 -1088 480 -838 
L 480 2157 
Q 480 2381 429 2451 
Q 378 2522 218 2522 
Q 115 2522 58 2515 
L 58 2618 
Q 506 2752 979 2944 
L 1018 2931 
z
M 1018 2138 
L 1018 563 
Q 1018 422 1238 281 
Q 1459 141 1683 141 
Q 2029 141 2243 467 
Q 2458 794 2458 1325 
Q 2458 1888 2243 2224 
Q 2029 2560 1670 2560 
Q 1446 2560 1232 2419 
Q 1018 2278 1018 2138 
z
" transform="scale(0.015625)"/>
      <path id="STIXGeneral-Regular-68" d="M 3117 0 
L 1760 0 
L 1760 96 
Q 2042 128 2118 224 
Q 2195 320 2195 653 
L 2195 1920 
Q 2195 2598 1722 2598 
Q 1530 2598 1370 2508 
Q 1210 2419 1005 2195 
L 1005 653 
Q 1005 320 1081 224 
Q 1158 128 1440 96 
L 1440 0 
L 58 0 
L 58 96 
Q 333 134 400 224 
Q 467 314 467 653 
L 467 3667 
Q 467 3872 406 3933 
Q 346 3994 141 3994 
Q 83 3994 64 3987 
L 64 4090 
L 237 4141 
Q 730 4288 973 4371 
L 1005 4352 
L 1005 2406 
Q 1229 2694 1446 2819 
Q 1664 2944 1946 2944 
Q 2733 2944 2733 1926 
L 2733 653 
Q 2733 320 2793 233 
Q 2854 147 3117 96 
L 3117 0 
z
" transform="scale(0.015625)"/>
     </defs>
     <use xlink:href="#STIXGeneral-Regular-61"/>
     <use xlink:href="#STIXGeneral-Regular-6c" x="44.399994"/>
     <use xlink:href="#STIXGeneral-Regular-70" x="72.199982"/>
     <use xlink:href="#STIXGeneral-Regular-68" x="122.199966"/>
     <use xlink:href="#STIXGeneral-Regular-61" x="172.199951"/>
    </g>
   </g>
  </g>
 </g>
 <defs>
  <clipPath id="p717a88a3cc">
   <rect x="16.613501" y="24.956118" width="551.172518" height="316.18796"/>
  </clipPath>
 </defs>
</svg>
