<?xml version="1.0" encoding="utf-8" standalone="no"?>
<!DOCTYPE svg PUBLIC "-//W3C//DTD SVG 1.1//EN"
  "http://www.w3.org/Graphics/SVG/1.1/DTD/svg11.dtd">
<svg xmlns:xlink="http://www.w3.org/1999/xlink" width="630.6pt" height="353.225312pt" viewBox="0 0 630.6 353.225312" xmlns="http://www.w3.org/2000/svg" version="1.1">
 <metadata>
  <rdf:RDF xmlns:dc="http://purl.org/dc/elements/1.1/" xmlns:cc="http://creativecommons.org/ns#" xmlns:rdf="http://www.w3.org/1999/02/22-rdf-syntax-ns#">
   <cc:Work>
    <dc:type rdf:resource="http://purl.org/dc/dcmitype/StillImage"/>
    <dc:date>2022-10-28T21:07:22.711792</dc:date>
    <dc:format>image/svg+xml</dc:format>
    <dc:creator>
     <cc:Agent>
      <dc:title>Matplotlib v3.5.3, https://matplotlib.org/</dc:title>
     </cc:Agent>
    </dc:creator>
   </cc:Work>
  </rdf:RDF>
 </metadata>
 <defs>
  <style type="text/css">*{stroke-linejoin: round; stroke-linecap: butt}</style>
 </defs>
 <g id="figure_1">
  <g id="patch_1">
   <path d="M 0 353.225312 
L 630.6 353.225312 
L 630.6 0 
L 0 0 
z
" style="fill: #ffffff"/>
  </g>
  <g id="axes_1">
   <g id="patch_2">
    <path d="M 65.4 305.425312 
L 623.4 305.425312 
L 623.4 28.225312 
L 65.4 28.225312 
z
" style="fill: #ffffff"/>
   </g>
   <g id="PathCollection_1">
    <path d="M 90.763636 219.571927 
C 91.294043 219.571927 91.802796 219.361194 92.17785 218.986141 
C 92.552904 218.611087 92.763636 218.102333 92.763636 217.571927 
C 92.763636 217.041521 92.552904 216.532767 92.17785 216.157714 
C 91.802796 215.78266 91.294043 215.571927 90.763636 215.571927 
C 90.23323 215.571927 89.724477 215.78266 89.349423 216.157714 
C 88.974369 216.532767 88.763636 217.041521 88.763636 217.571927 
C 88.763636 218.102333 88.974369 218.611087 89.349423 218.986141 
C 89.724477 219.361194 90.23323 219.571927 90.763636 219.571927 
z
" clip-path="url(#pdd206f9d77)" style="fill: #4c72b0; fill-opacity: 0.2; stroke: #4c72b0; stroke-width: 0.75"/>
    <path d="M 92.983902 204.760352 
C 93.514308 204.760352 94.023062 204.549619 94.398115 204.174565 
C 94.773169 203.799511 94.983902 203.290758 94.983902 202.760352 
C 94.983902 202.229945 94.773169 201.721192 94.398115 201.346138 
C 94.023062 200.971084 93.514308 200.760352 92.983902 200.760352 
C 92.453496 200.760352 91.944742 200.971084 91.569688 201.346138 
C 91.194634 201.721192 90.983902 202.229945 90.983902 202.760352 
C 90.983902 203.290758 91.194634 203.799511 91.569688 204.174565 
C 91.944742 204.549619 92.453496 204.760352 92.983902 204.760352 
z
" clip-path="url(#pdd206f9d77)" style="fill: #4c72b0; fill-opacity: 0.2; stroke: #4c72b0; stroke-width: 0.75"/>
    <path d="M 95.493187 187.239988 
C 96.023593 187.239988 96.532346 187.029255 96.9074 186.654202 
C 97.282454 186.279148 97.493187 185.770394 97.493187 185.239988 
C 97.493187 184.709582 97.282454 184.200828 96.9074 183.825775 
C 96.532346 183.450721 96.023593 183.239988 95.493187 183.239988 
C 94.96278 183.239988 94.454027 183.450721 94.078973 183.825775 
C 93.703919 184.200828 93.493187 184.709582 93.493187 185.239988 
C 93.493187 185.770394 93.703919 186.279148 94.078973 186.654202 
C 94.454027 187.029255 94.96278 187.239988 95.493187 187.239988 
z
" clip-path="url(#pdd206f9d77)" style="fill: #4c72b0; fill-opacity: 0.2; stroke: #4c72b0; stroke-width: 0.75"/>
    <path d="M 98.147921 194.944106 
C 98.678327 194.944106 99.18708 194.733374 99.562134 194.35832 
C 99.937188 193.983266 100.147921 193.474512 100.147921 192.944106 
C 100.147921 192.4137 99.937188 191.904947 99.562134 191.529893 
C 99.18708 191.154839 98.678327 190.944106 98.147921 190.944106 
C 97.617514 190.944106 97.108761 191.154839 96.733707 191.529893 
C 96.358653 191.904947 96.147921 192.4137 96.147921 192.944106 
C 96.147921 193.474512 96.358653 193.983266 96.733707 194.35832 
C 97.108761 194.733374 97.617514 194.944106 98.147921 194.944106 
z
" clip-path="url(#pdd206f9d77)" style="fill: #4c72b0; fill-opacity: 0.2; stroke: #4c72b0; stroke-width: 0.75"/>
    <path d="M 100.843482 189.392085 
C 101.373888 189.392085 101.882642 189.181352 102.257696 188.806298 
C 102.632749 188.431244 102.843482 187.922491 102.843482 187.392085 
C 102.843482 186.861678 102.632749 186.352925 102.257696 185.977871 
C 101.882642 185.602817 101.373888 185.392085 100.843482 185.392085 
C 100.313076 185.392085 99.804322 185.602817 99.429268 185.977871 
C 99.054215 186.352925 98.843482 186.861678 98.843482 187.392085 
C 98.843482 187.922491 99.054215 188.431244 99.429268 188.806298 
C 99.804322 189.181352 100.313076 189.392085 100.843482 189.392085 
z
" clip-path="url(#pdd206f9d77)" style="fill: #4c72b0; fill-opacity: 0.2; stroke: #4c72b0; stroke-width: 0.75"/>
    <path d="M 103.523261 181.727588 
C 104.053667 181.727588 104.562421 181.516856 104.937475 181.141802 
C 105.312528 180.766748 105.523261 180.257994 105.523261 179.727588 
C 105.523261 179.197182 105.312528 178.688429 104.937475 178.313375 
C 104.562421 177.938321 104.053667 177.727588 103.523261 177.727588 
C 102.992855 177.727588 102.484101 177.938321 102.109047 178.313375 
C 101.733994 178.688429 101.523261 179.197182 101.523261 179.727588 
C 101.523261 180.257994 101.733994 180.766748 102.109047 181.141802 
C 102.484101 181.516856 102.992855 181.727588 103.523261 181.727588 
z
" clip-path="url(#pdd206f9d77)" style="fill: #4c72b0; fill-opacity: 0.2; stroke: #4c72b0; stroke-width: 0.75"/>
    <path d="M 106.529514 175.130139 
C 107.059921 175.130139 107.568674 174.919407 107.943728 174.544353 
C 108.318782 174.169299 108.529514 173.660546 108.529514 173.130139 
C 108.529514 172.599733 108.318782 172.09098 107.943728 171.715926 
C 107.568674 171.340872 107.059921 171.130139 106.529514 171.130139 
C 105.999108 171.130139 105.490355 171.340872 105.115301 171.715926 
C 104.740247 172.09098 104.529514 172.599733 104.529514 173.130139 
C 104.529514 173.660546 104.740247 174.169299 105.115301 174.544353 
C 105.490355 174.919407 105.999108 175.130139 106.529514 175.130139 
z
" clip-path="url(#pdd206f9d77)" style="fill: #4c72b0; fill-opacity: 0.2; stroke: #4c72b0; stroke-width: 0.75"/>
    <path d="M 110.015158 170.853443 
C 110.545564 170.853443 111.054317 170.642711 111.429371 170.267657 
C 111.804425 169.892603 112.015158 169.38385 112.015158 168.853443 
C 112.015158 168.323037 111.804425 167.814284 111.429371 167.43923 
C 111.054317 167.064176 110.545564 166.853443 110.015158 166.853443 
C 109.484751 166.853443 108.975998 167.064176 108.600944 167.43923 
C 108.22589 167.814284 108.015158 168.323037 108.015158 168.853443 
C 108.015158 169.38385 108.22589 169.892603 108.600944 170.267657 
C 108.975998 170.642711 109.484751 170.853443 110.015158 170.853443 
z
" clip-path="url(#pdd206f9d77)" style="fill: #4c72b0; fill-opacity: 0.2; stroke: #4c72b0; stroke-width: 0.75"/>
    <path d="M 113.60992 156.025187 
C 114.140326 156.025187 114.64908 155.814454 115.024134 155.439401 
C 115.399188 155.064347 115.60992 154.555593 115.60992 154.025187 
C 115.60992 153.494781 115.399188 152.986027 115.024134 152.610973 
C 114.64908 152.23592 114.140326 152.025187 113.60992 152.025187 
C 113.079514 152.025187 112.57076 152.23592 112.195707 152.610973 
C 111.820653 152.986027 111.60992 153.494781 111.60992 154.025187 
C 111.60992 154.555593 111.820653 155.064347 112.195707 155.439401 
C 112.57076 155.814454 113.079514 156.025187 113.60992 156.025187 
z
" clip-path="url(#pdd206f9d77)" style="fill: #4c72b0; fill-opacity: 0.2; stroke: #4c72b0; stroke-width: 0.75"/>
    <path d="M 117.132847 162.523363 
C 117.663253 162.523363 118.172006 162.31263 118.54706 161.937576 
C 118.922114 161.562523 119.132847 161.053769 119.132847 160.523363 
C 119.132847 159.992957 118.922114 159.484203 118.54706 159.109149 
C 118.172006 158.734096 117.663253 158.523363 117.132847 158.523363 
C 116.60244 158.523363 116.093687 158.734096 115.718633 159.109149 
C 115.343579 159.484203 115.132847 159.992957 115.132847 160.523363 
C 115.132847 161.053769 115.343579 161.562523 115.718633 161.937576 
C 116.093687 162.31263 116.60244 162.523363 117.132847 162.523363 
z
" clip-path="url(#pdd206f9d77)" style="fill: #4c72b0; fill-opacity: 0.2; stroke: #4c72b0; stroke-width: 0.75"/>
    <path d="M 120.68295 124.632968 
C 121.213356 124.632968 121.72211 124.422236 122.097164 124.047182 
C 122.472217 123.672128 122.68295 123.163374 122.68295 122.632968 
C 122.68295 122.102562 122.472217 121.593809 122.097164 121.218755 
C 121.72211 120.843701 121.213356 120.632968 120.68295 120.632968 
C 120.152544 120.632968 119.64379 120.843701 119.268737 121.218755 
C 118.893683 121.593809 118.68295 122.102562 118.68295 122.632968 
C 118.68295 123.163374 118.893683 123.672128 119.268737 124.047182 
C 119.64379 124.422236 120.152544 124.632968 120.68295 124.632968 
z
" clip-path="url(#pdd206f9d77)" style="fill: #4c72b0; fill-opacity: 0.2; stroke: #4c72b0; stroke-width: 0.75"/>
    <path d="M 124.668877 159.955066 
C 125.199283 159.955066 125.708036 159.744334 126.08309 159.36928 
C 126.458144 158.994226 126.668877 158.485472 126.668877 157.955066 
C 126.668877 157.42466 126.458144 156.915907 126.08309 156.540853 
C 125.708036 156.165799 125.199283 155.955066 124.668877 155.955066 
C 124.13847 155.955066 123.629717 156.165799 123.254663 156.540853 
C 122.879609 156.915907 122.668877 157.42466 122.668877 157.955066 
C 122.668877 158.485472 122.879609 158.994226 123.254663 159.36928 
C 123.629717 159.744334 124.13847 159.955066 124.668877 159.955066 
z
" clip-path="url(#pdd206f9d77)" style="fill: #4c72b0; fill-opacity: 0.2; stroke: #4c72b0; stroke-width: 0.75"/>
    <path d="M 129.101735 134.841406 
C 129.632141 134.841406 130.140894 134.630673 130.515948 134.255619 
C 130.891002 133.880565 131.101735 133.371812 131.101735 132.841406 
C 131.101735 132.310999 130.891002 131.802246 130.515948 131.427192 
C 130.140894 131.052138 129.632141 130.841406 129.101735 130.841406 
C 128.571328 130.841406 128.062575 131.052138 127.687521 131.427192 
C 127.312467 131.802246 127.101735 132.310999 127.101735 132.841406 
C 127.101735 133.371812 127.312467 133.880565 127.687521 134.255619 
C 128.062575 134.630673 128.571328 134.841406 129.101735 134.841406 
z
" clip-path="url(#pdd206f9d77)" style="fill: #4c72b0; fill-opacity: 0.2; stroke: #4c72b0; stroke-width: 0.75"/>
    <path d="M 133.571968 138.317826 
C 134.102374 138.317826 134.611127 138.107094 134.986181 137.73204 
C 135.361235 137.356986 135.571968 136.848232 135.571968 136.317826 
C 135.571968 135.78742 135.361235 135.278666 134.986181 134.903613 
C 134.611127 134.528559 134.102374 134.317826 133.571968 134.317826 
C 133.041561 134.317826 132.532808 134.528559 132.157754 134.903613 
C 131.7827 135.278666 131.571968 135.78742 131.571968 136.317826 
C 131.571968 136.848232 131.7827 137.356986 132.157754 137.73204 
C 132.532808 138.107094 133.041561 138.317826 133.571968 138.317826 
z
" clip-path="url(#pdd206f9d77)" style="fill: #4c72b0; fill-opacity: 0.2; stroke: #4c72b0; stroke-width: 0.75"/>
    <path d="M 138.520982 134.358328 
C 139.051388 134.358328 139.560141 134.147595 139.935195 133.772541 
C 140.310249 133.397487 140.520982 132.888734 140.520982 132.358328 
C 140.520982 131.827921 140.310249 131.319168 139.935195 130.944114 
C 139.560141 130.56906 139.051388 130.358328 138.520982 130.358328 
C 137.990575 130.358328 137.481822 130.56906 137.106768 130.944114 
C 136.731714 131.319168 136.520982 131.827921 136.520982 132.358328 
C 136.520982 132.888734 136.731714 133.397487 137.106768 133.772541 
C 137.481822 134.147595 137.990575 134.358328 138.520982 134.358328 
z
" clip-path="url(#pdd206f9d77)" style="fill: #4c72b0; fill-opacity: 0.2; stroke: #4c72b0; stroke-width: 0.75"/>
    <path d="M 143.692935 141.855084 
C 144.223341 141.855084 144.732095 141.644352 145.107149 141.269298 
C 145.482202 140.894244 145.692935 140.38549 145.692935 139.855084 
C 145.692935 139.324678 145.482202 138.815924 145.107149 138.440871 
C 144.732095 138.065817 144.223341 137.855084 143.692935 137.855084 
C 143.162529 137.855084 142.653775 138.065817 142.278721 138.440871 
C 141.903668 138.815924 141.692935 139.324678 141.692935 139.855084 
C 141.692935 140.38549 141.903668 140.894244 142.278721 141.269298 
C 142.653775 141.644352 143.162529 141.855084 143.692935 141.855084 
z
" clip-path="url(#pdd206f9d77)" style="fill: #4c72b0; fill-opacity: 0.2; stroke: #4c72b0; stroke-width: 0.75"/>
    <path d="M 149.393819 111.776502 
C 149.924225 111.776502 150.432978 111.565769 150.808032 111.190716 
C 151.183086 110.815662 151.393819 110.306908 151.393819 109.776502 
C 151.393819 109.246096 151.183086 108.737342 150.808032 108.362288 
C 150.432978 107.987235 149.924225 107.776502 149.393819 107.776502 
C 148.863413 107.776502 148.354659 107.987235 147.979605 108.362288 
C 147.604551 108.737342 147.393819 109.246096 147.393819 109.776502 
C 147.393819 110.306908 147.604551 110.815662 147.979605 111.190716 
C 148.354659 111.565769 148.863413 111.776502 149.393819 111.776502 
z
" clip-path="url(#pdd206f9d77)" style="fill: #4c72b0; fill-opacity: 0.2; stroke: #4c72b0; stroke-width: 0.75"/>
    <path d="M 155.669684 109.836826 
C 156.20009 109.836826 156.708844 109.626093 157.083897 109.251039 
C 157.458951 108.875985 157.669684 108.367232 157.669684 107.836826 
C 157.669684 107.306419 157.458951 106.797666 157.083897 106.422612 
C 156.708844 106.047558 156.20009 105.836826 155.669684 105.836826 
C 155.139278 105.836826 154.630524 106.047558 154.25547 106.422612 
C 153.880417 106.797666 153.669684 107.306419 153.669684 107.836826 
C 153.669684 108.367232 153.880417 108.875985 154.25547 109.251039 
C 154.630524 109.626093 155.139278 109.836826 155.669684 109.836826 
z
" clip-path="url(#pdd206f9d77)" style="fill: #4c72b0; fill-opacity: 0.2; stroke: #4c72b0; stroke-width: 0.75"/>
    <path d="M 162.350499 109.538472 
C 162.880905 109.538472 163.389659 109.327739 163.764713 108.952685 
C 164.139766 108.577631 164.350499 108.068878 164.350499 107.538472 
C 164.350499 107.008065 164.139766 106.499312 163.764713 106.124258 
C 163.389659 105.749204 162.880905 105.538472 162.350499 105.538472 
C 161.820093 105.538472 161.311339 105.749204 160.936285 106.124258 
C 160.561232 106.499312 160.350499 107.008065 160.350499 107.538472 
C 160.350499 108.068878 160.561232 108.577631 160.936285 108.952685 
C 161.311339 109.327739 161.820093 109.538472 162.350499 109.538472 
z
" clip-path="url(#pdd206f9d77)" style="fill: #4c72b0; fill-opacity: 0.2; stroke: #4c72b0; stroke-width: 0.75"/>
    <path d="M 169.384236 114.202398 
C 169.914642 114.202398 170.423395 113.991665 170.798449 113.616612 
C 171.173503 113.241558 171.384236 112.732804 171.384236 112.202398 
C 171.384236 111.671992 171.173503 111.163238 170.798449 110.788184 
C 170.423395 110.413131 169.914642 110.202398 169.384236 110.202398 
C 168.853829 110.202398 168.345076 110.413131 167.970022 110.788184 
C 167.594968 111.163238 167.384236 111.671992 167.384236 112.202398 
C 167.384236 112.732804 167.594968 113.241558 167.970022 113.616612 
C 168.345076 113.991665 168.853829 114.202398 169.384236 114.202398 
z
" clip-path="url(#pdd206f9d77)" style="fill: #4c72b0; fill-opacity: 0.2; stroke: #4c72b0; stroke-width: 0.75"/>
    <path d="M 176.961216 104.249472 
C 177.491623 104.249472 178.000376 104.038739 178.37543 103.663686 
C 178.750484 103.288632 178.961216 102.779878 178.961216 102.249472 
C 178.961216 101.719066 178.750484 101.210312 178.37543 100.835258 
C 178.000376 100.460205 177.491623 100.249472 176.961216 100.249472 
C 176.43081 100.249472 175.922057 100.460205 175.547003 100.835258 
C 175.171949 101.210312 174.961216 101.719066 174.961216 102.249472 
C 174.961216 102.779878 175.171949 103.288632 175.547003 103.663686 
C 175.922057 104.038739 176.43081 104.249472 176.961216 104.249472 
z
" clip-path="url(#pdd206f9d77)" style="fill: #4c72b0; fill-opacity: 0.2; stroke: #4c72b0; stroke-width: 0.75"/>
    <path d="M 185.95853 124.417572 
C 186.488936 124.417572 186.997689 124.20684 187.372743 123.831786 
C 187.747797 123.456732 187.95853 122.947979 187.95853 122.417572 
C 187.95853 121.887166 187.747797 121.378413 187.372743 121.003359 
C 186.997689 120.628305 186.488936 120.417572 185.95853 120.417572 
C 185.428124 120.417572 184.91937 120.628305 184.544316 121.003359 
C 184.169262 121.378413 183.95853 121.887166 183.95853 122.417572 
C 183.95853 122.947979 184.169262 123.456732 184.544316 123.831786 
C 184.91937 124.20684 185.428124 124.417572 185.95853 124.417572 
z
" clip-path="url(#pdd206f9d77)" style="fill: #4c72b0; fill-opacity: 0.2; stroke: #4c72b0; stroke-width: 0.75"/>
    <path d="M 197.038777 96.031528 
C 197.569183 96.031528 198.077936 95.820795 198.45299 95.445741 
C 198.828044 95.070688 199.038777 94.561934 199.038777 94.031528 
C 199.038777 93.501122 198.828044 92.992368 198.45299 92.617314 
C 198.077936 92.24226 197.569183 92.031528 197.038777 92.031528 
C 196.508371 92.031528 195.999617 92.24226 195.624563 92.617314 
C 195.249509 92.992368 195.038777 93.501122 195.038777 94.031528 
C 195.038777 94.561934 195.249509 95.070688 195.624563 95.445741 
C 195.999617 95.820795 196.508371 96.031528 197.038777 96.031528 
z
" clip-path="url(#pdd206f9d77)" style="fill: #4c72b0; fill-opacity: 0.2; stroke: #4c72b0; stroke-width: 0.75"/>
    <path d="M 209.12514 146.530459 
C 209.655546 146.530459 210.1643 146.319727 210.539354 145.944673 
C 210.914407 145.569619 211.12514 145.060865 211.12514 144.530459 
C 211.12514 144.000053 210.914407 143.491299 210.539354 143.116246 
C 210.1643 142.741192 209.655546 142.530459 209.12514 142.530459 
C 208.594734 142.530459 208.08598 142.741192 207.710926 143.116246 
C 207.335873 143.491299 207.12514 144.000053 207.12514 144.530459 
C 207.12514 145.060865 207.335873 145.569619 207.710926 145.944673 
C 208.08598 146.319727 208.594734 146.530459 209.12514 146.530459 
z
" clip-path="url(#pdd206f9d77)" style="fill: #4c72b0; fill-opacity: 0.2; stroke: #4c72b0; stroke-width: 0.75"/>
    <path d="M 223.697027 137.363377 
C 224.227433 137.363377 224.736187 137.152645 225.111241 136.777591 
C 225.486294 136.402537 225.697027 135.893784 225.697027 135.363377 
C 225.697027 134.832971 225.486294 134.324218 225.111241 133.949164 
C 224.736187 133.57411 224.227433 133.363377 223.697027 133.363377 
C 223.166621 133.363377 222.657867 133.57411 222.282814 133.949164 
C 221.90776 134.324218 221.697027 134.832971 221.697027 135.363377 
C 221.697027 135.893784 221.90776 136.402537 222.282814 136.777591 
C 222.657867 137.152645 223.166621 137.363377 223.697027 137.363377 
z
" clip-path="url(#pdd206f9d77)" style="fill: #4c72b0; fill-opacity: 0.2; stroke: #4c72b0; stroke-width: 0.75"/>
    <path d="M 241.482129 190.440908 
C 242.012535 190.440908 242.521289 190.230175 242.896343 189.855121 
C 243.271397 189.480068 243.482129 188.971314 243.482129 188.440908 
C 243.482129 187.910502 243.271397 187.401748 242.896343 187.026694 
C 242.521289 186.651641 242.012535 186.440908 241.482129 186.440908 
C 240.951723 186.440908 240.442969 186.651641 240.067916 187.026694 
C 239.692862 187.401748 239.482129 187.910502 239.482129 188.440908 
C 239.482129 188.971314 239.692862 189.480068 240.067916 189.855121 
C 240.442969 190.230175 240.951723 190.440908 241.482129 190.440908 
z
" clip-path="url(#pdd206f9d77)" style="fill: #4c72b0; fill-opacity: 0.2; stroke: #4c72b0; stroke-width: 0.75"/>
    <path d="M 266.074012 166.252423 
C 266.604419 166.252423 267.113172 166.04169 267.488226 165.666636 
C 267.86328 165.291582 268.074012 164.782829 268.074012 164.252423 
C 268.074012 163.722017 267.86328 163.213263 267.488226 162.838209 
C 267.113172 162.463155 266.604419 162.252423 266.074012 162.252423 
C 265.543606 162.252423 265.034853 162.463155 264.659799 162.838209 
C 264.284745 163.213263 264.074012 163.722017 264.074012 164.252423 
C 264.074012 164.782829 264.284745 165.291582 264.659799 165.666636 
C 265.034853 166.04169 265.543606 166.252423 266.074012 166.252423 
z
" clip-path="url(#pdd206f9d77)" style="fill: #4c72b0; fill-opacity: 0.2; stroke: #4c72b0; stroke-width: 0.75"/>
    <path d="M 294.99795 202.909813 
C 295.528356 202.909813 296.03711 202.699081 296.412164 202.324027 
C 296.787218 201.948973 296.99795 201.44022 296.99795 200.909813 
C 296.99795 200.379407 296.787218 199.870654 296.412164 199.4956 
C 296.03711 199.120546 295.528356 198.909813 294.99795 198.909813 
C 294.467544 198.909813 293.95879 199.120546 293.583737 199.4956 
C 293.208683 199.870654 292.99795 200.379407 292.99795 200.909813 
C 292.99795 201.44022 293.208683 201.948973 293.583737 202.324027 
C 293.95879 202.699081 294.467544 202.909813 294.99795 202.909813 
z
" clip-path="url(#pdd206f9d77)" style="fill: #4c72b0; fill-opacity: 0.2; stroke: #4c72b0; stroke-width: 0.75"/>
    <path d="M 332.544622 177.51599 
C 333.075028 177.51599 333.583782 177.305257 333.958836 176.930204 
C 334.333889 176.55515 334.544622 176.046396 334.544622 175.51599 
C 334.544622 174.985584 334.333889 174.47683 333.958836 174.101776 
C 333.583782 173.726723 333.075028 173.51599 332.544622 173.51599 
C 332.014216 173.51599 331.505462 173.726723 331.130408 174.101776 
C 330.755355 174.47683 330.544622 174.985584 330.544622 175.51599 
C 330.544622 176.046396 330.755355 176.55515 331.130408 176.930204 
C 331.505462 177.305257 332.014216 177.51599 332.544622 177.51599 
z
" clip-path="url(#pdd206f9d77)" style="fill: #4c72b0; fill-opacity: 0.2; stroke: #4c72b0; stroke-width: 0.75"/>
    <path d="M 397.463991 188.517899 
C 397.994397 188.517899 398.503151 188.307166 398.878204 187.932112 
C 399.253258 187.557059 399.463991 187.048305 399.463991 186.517899 
C 399.463991 185.987493 399.253258 185.478739 398.878204 185.103685 
C 398.503151 184.728631 397.994397 184.517899 397.463991 184.517899 
C 396.933585 184.517899 396.424831 184.728631 396.049777 185.103685 
C 395.674723 185.478739 395.463991 185.987493 395.463991 186.517899 
C 395.463991 187.048305 395.674723 187.557059 396.049777 187.932112 
C 396.424831 188.307166 396.933585 188.517899 397.463991 188.517899 
z
" clip-path="url(#pdd206f9d77)" style="fill: #4c72b0; fill-opacity: 0.2; stroke: #4c72b0; stroke-width: 0.75"/>
    <path d="M 598.036364 226.925739 
C 598.56677 226.925739 599.075523 226.715006 599.450577 226.339952 
C 599.825631 225.964899 600.036364 225.456145 600.036364 224.925739 
C 600.036364 224.395333 599.825631 223.886579 599.450577 223.511525 
C 599.075523 223.136471 598.56677 222.925739 598.036364 222.925739 
C 597.505957 222.925739 596.997204 223.136471 596.62215 223.511525 
C 596.247096 223.886579 596.036364 224.395333 596.036364 224.925739 
C 596.036364 225.456145 596.247096 225.964899 596.62215 226.339952 
C 596.997204 226.715006 597.505957 226.925739 598.036364 226.925739 
z
" clip-path="url(#pdd206f9d77)" style="fill: #4c72b0; fill-opacity: 0.2; stroke: #4c72b0; stroke-width: 0.75"/>
   </g>
   <g id="matplotlib.axis_1">
    <g id="xtick_1">
     <g id="line2d_1">
      <defs>
       <path id="m36c617c8c1" d="M 0 0 
L 0 3.5 
" style="stroke: #323034; stroke-width: 0.8"/>
      </defs>
      <g>
       <use xlink:href="#m36c617c8c1" x="89.712794" y="305.425312" style="fill: #323034; stroke: #323034; stroke-width: 0.8"/>
      </g>
     </g>
     <g id="text_1">
      <!-- 0 -->
      <g style="fill: #323034" transform="translate(85.712794 323.352812)scale(0.16 -0.16)">
       <defs>
        <path id="STIXGeneral-Regular-30" d="M 3046 2112 
Q 3046 1683 2963 1302 
Q 2880 922 2717 602 
Q 2554 282 2266 96 
Q 1978 -90 1600 -90 
Q 1210 -90 915 108 
Q 621 307 461 640 
Q 301 973 227 1350 
Q 154 1728 154 2150 
Q 154 2746 301 3222 
Q 448 3699 790 4012 
Q 1133 4326 1626 4326 
Q 2253 4326 2649 3712 
Q 3046 3098 3046 2112 
z
M 2432 2080 
Q 2432 3091 2217 3625 
Q 2003 4160 1587 4160 
Q 1190 4160 979 3622 
Q 768 3085 768 2106 
Q 768 1120 979 598 
Q 1190 77 1600 77 
Q 2003 77 2217 598 
Q 2432 1120 2432 2080 
z
" transform="scale(0.015625)"/>
       </defs>
       <use xlink:href="#STIXGeneral-Regular-30"/>
      </g>
     </g>
    </g>
    <g id="xtick_2">
     <g id="line2d_2">
      <g>
       <use xlink:href="#m36c617c8c1" x="180.348879" y="305.425312" style="fill: #323034; stroke: #323034; stroke-width: 0.8"/>
      </g>
     </g>
     <g id="text_2">
      <!-- 1 -->
      <g style="fill: #323034" transform="translate(176.348879 323.352812)scale(0.16 -0.16)">
       <defs>
        <path id="STIXGeneral-Regular-31" d="M 2522 0 
L 755 0 
L 755 96 
Q 1107 115 1235 227 
Q 1363 339 1363 608 
L 1363 3482 
Q 1363 3795 1171 3795 
Q 1082 3795 883 3718 
L 710 3654 
L 710 3744 
L 1856 4326 
L 1914 4307 
L 1914 486 
Q 1914 275 2042 185 
Q 2170 96 2522 96 
L 2522 0 
z
" transform="scale(0.015625)"/>
       </defs>
       <use xlink:href="#STIXGeneral-Regular-31"/>
      </g>
     </g>
    </g>
    <g id="xtick_3">
     <g id="line2d_3">
      <g>
       <use xlink:href="#m36c617c8c1" x="270.984963" y="305.425312" style="fill: #323034; stroke: #323034; stroke-width: 0.8"/>
      </g>
     </g>
     <g id="text_3">
      <!-- 2 -->
      <g style="fill: #323034" transform="translate(266.984963 323.352812)scale(0.16 -0.16)">
       <defs>
        <path id="STIXGeneral-Regular-32" d="M 3034 877 
L 2688 0 
L 186 0 
L 186 77 
L 1325 1286 
Q 1773 1754 1965 2144 
Q 2157 2534 2157 2950 
Q 2157 3379 1920 3616 
Q 1683 3853 1267 3853 
Q 922 3853 720 3673 
Q 518 3494 326 3021 
L 192 3053 
Q 301 3648 630 3987 
Q 960 4326 1523 4326 
Q 2054 4326 2380 4006 
Q 2707 3686 2707 3200 
Q 2707 2477 1888 1613 
L 832 486 
L 2330 486 
Q 2541 486 2665 569 
Q 2790 653 2944 915 
L 3034 877 
z
" transform="scale(0.015625)"/>
       </defs>
       <use xlink:href="#STIXGeneral-Regular-32"/>
      </g>
     </g>
    </g>
    <g id="xtick_4">
     <g id="line2d_4">
      <g>
       <use xlink:href="#m36c617c8c1" x="361.621048" y="305.425312" style="fill: #323034; stroke: #323034; stroke-width: 0.8"/>
      </g>
     </g>
     <g id="text_4">
      <!-- 3 -->
      <g style="fill: #323034" transform="translate(357.621048 323.352812)scale(0.16 -0.16)">
       <defs>
        <path id="STIXGeneral-Regular-33" d="M 390 3264 
L 288 3290 
Q 435 3770 748 4048 
Q 1062 4326 1542 4326 
Q 1990 4326 2265 4083 
Q 2541 3840 2541 3450 
Q 2541 2925 1946 2566 
Q 2298 2413 2477 2227 
Q 2758 1914 2758 1402 
Q 2758 890 2464 506 
Q 2246 211 1840 60 
Q 1434 -90 979 -90 
Q 262 -90 262 275 
Q 262 378 339 442 
Q 416 506 525 506 
Q 685 506 915 339 
Q 1197 141 1466 141 
Q 1818 141 2058 425 
Q 2298 710 2298 1120 
Q 2298 1856 1632 2048 
Q 1434 2112 979 2112 
L 979 2202 
Q 1338 2323 1517 2432 
Q 2035 2726 2035 3290 
Q 2035 3610 1852 3776 
Q 1670 3942 1344 3942 
Q 768 3942 390 3264 
z
" transform="scale(0.015625)"/>
       </defs>
       <use xlink:href="#STIXGeneral-Regular-33"/>
      </g>
     </g>
    </g>
    <g id="xtick_5">
     <g id="line2d_5">
      <g>
       <use xlink:href="#m36c617c8c1" x="452.257132" y="305.425312" style="fill: #323034; stroke: #323034; stroke-width: 0.8"/>
      </g>
     </g>
     <g id="text_5">
      <!-- 4 -->
      <g style="fill: #323034" transform="translate(448.257132 323.352812)scale(0.16 -0.16)">
       <defs>
        <path id="STIXGeneral-Regular-34" d="M 3027 1069 
L 2368 1069 
L 2368 0 
L 1869 0 
L 1869 1069 
L 77 1069 
L 77 1478 
L 2086 4326 
L 2368 4326 
L 2368 1478 
L 3027 1478 
L 3027 1069 
z
M 1869 1478 
L 1869 3674 
L 333 1478 
L 1869 1478 
z
" transform="scale(0.015625)"/>
       </defs>
       <use xlink:href="#STIXGeneral-Regular-34"/>
      </g>
     </g>
    </g>
    <g id="xtick_6">
     <g id="line2d_6">
      <g>
       <use xlink:href="#m36c617c8c1" x="542.893217" y="305.425312" style="fill: #323034; stroke: #323034; stroke-width: 0.8"/>
      </g>
     </g>
     <g id="text_6">
      <!-- 5 -->
      <g style="fill: #323034" transform="translate(538.893217 323.352812)scale(0.16 -0.16)">
       <defs>
        <path id="STIXGeneral-Regular-35" d="M 2803 4358 
L 2573 3814 
Q 2534 3731 2400 3731 
L 1158 3731 
L 902 3187 
Q 1606 3053 1920 2896 
Q 2234 2739 2502 2368 
Q 2726 2061 2726 1555 
Q 2726 1094 2576 780 
Q 2426 467 2099 224 
Q 1664 -90 1011 -90 
Q 646 -90 422 19 
Q 198 128 198 307 
Q 198 550 486 550 
Q 717 550 960 352 
Q 1210 147 1414 147 
Q 1747 147 2012 480 
Q 2278 813 2278 1229 
Q 2278 1843 1850 2189 
Q 1293 2637 486 2637 
Q 410 2637 410 2688 
L 416 2720 
L 1114 4237 
L 2438 4237 
Q 2547 4237 2608 4269 
Q 2669 4301 2746 4403 
L 2803 4358 
z
" transform="scale(0.015625)"/>
       </defs>
       <use xlink:href="#STIXGeneral-Regular-35"/>
      </g>
     </g>
    </g>
    <g id="text_7">
     <!-- age -->
     <g transform="translate(331.906875 342.101875)scale(0.18 -0.18)">
      <defs>
       <path id="STIXGeneral-Regular-61" d="M 2829 422 
L 2829 243 
Q 2586 -64 2253 -64 
Q 1888 -64 1843 403 
L 1837 403 
Q 1427 -64 909 -64 
Q 608 -64 422 112 
Q 237 288 237 602 
Q 237 1050 685 1350 
Q 992 1555 1837 1869 
L 1837 2214 
Q 1837 2502 1699 2646 
Q 1562 2790 1338 2790 
Q 1146 2790 1018 2697 
Q 890 2605 890 2477 
Q 890 2419 909 2348 
Q 928 2278 928 2208 
Q 928 2112 841 2029 
Q 755 1946 634 1946 
Q 525 1946 441 2029 
Q 358 2112 358 2240 
Q 358 2547 685 2752 
Q 986 2944 1421 2944 
Q 1939 2944 2176 2656 
Q 2291 2522 2323 2384 
Q 2355 2246 2355 1946 
L 2355 723 
Q 2355 301 2554 301 
Q 2682 301 2829 422 
z
M 1837 813 
L 1837 1715 
Q 1248 1510 1018 1293 
Q 800 1094 800 800 
Q 800 557 921 432 
Q 1043 307 1242 307 
Q 1453 307 1613 410 
Q 1747 506 1792 589 
Q 1837 672 1837 813 
z
" transform="scale(0.015625)"/>
       <path id="STIXGeneral-Regular-67" d="M 3008 2483 
L 2477 2483 
Q 2598 2208 2598 1946 
Q 2598 1453 2265 1203 
Q 1933 954 1600 954 
Q 1530 954 1357 973 
L 1235 986 
Q 1107 947 979 812 
Q 851 678 851 582 
Q 851 435 1350 410 
L 2176 371 
Q 2528 358 2739 172 
Q 2950 -13 2950 -314 
Q 2950 -685 2566 -986 
Q 2035 -1395 1286 -1395 
Q 826 -1395 502 -1212 
Q 179 -1030 179 -774 
Q 179 -595 320 -419 
Q 461 -243 806 6 
Q 602 102 534 172 
Q 467 243 467 346 
Q 467 531 762 787 
Q 909 915 1037 1043 
Q 717 1203 579 1401 
Q 442 1600 442 1901 
Q 442 2336 752 2640 
Q 1062 2944 1510 2944 
Q 1766 2944 2022 2848 
L 2163 2797 
Q 2349 2733 2515 2733 
L 3008 2733 
L 3008 2483 
z
M 973 2163 
L 973 2144 
Q 973 1683 1155 1398 
Q 1338 1114 1632 1114 
Q 1850 1114 1978 1270 
Q 2106 1427 2106 1690 
Q 2106 2112 1914 2464 
Q 1754 2765 1446 2765 
Q 1222 2765 1097 2605 
Q 973 2445 973 2163 
z
M 2771 -410 
Q 2771 -230 2595 -163 
Q 2419 -96 1978 -96 
Q 1344 -96 941 -13 
Q 749 -243 688 -348 
Q 627 -454 627 -563 
Q 627 -774 880 -902 
Q 1133 -1030 1555 -1030 
Q 2099 -1030 2435 -860 
Q 2771 -691 2771 -410 
z
" transform="scale(0.015625)"/>
       <path id="STIXGeneral-Regular-65" d="M 2611 1050 
L 2714 1005 
Q 2330 -64 1376 -64 
Q 813 -64 486 329 
Q 160 723 160 1389 
Q 160 2074 525 2509 
Q 890 2944 1485 2944 
Q 2061 2944 2374 2502 
Q 2560 2246 2592 1773 
L 621 1773 
Q 646 1370 700 1158 
Q 755 947 915 730 
Q 1184 378 1626 378 
Q 1939 378 2153 531 
Q 2368 685 2611 1050 
z
M 634 1978 
L 1939 1978 
Q 1882 2381 1750 2547 
Q 1619 2714 1312 2714 
Q 1043 2714 864 2525 
Q 685 2336 634 1978 
z
" transform="scale(0.015625)"/>
      </defs>
      <use xlink:href="#STIXGeneral-Regular-61"/>
      <use xlink:href="#STIXGeneral-Regular-67" x="44.399994"/>
      <use xlink:href="#STIXGeneral-Regular-65" x="94.399979"/>
     </g>
    </g>
   </g>
   <g id="matplotlib.axis_2">
    <g id="ytick_1">
     <g id="line2d_7">
      <defs>
       <path id="m1a0e7d0205" d="M 0 0 
L -3.5 0 
" style="stroke: #323034; stroke-width: 0.8"/>
      </defs>
      <g>
       <use xlink:href="#m1a0e7d0205" x="65.4" y="286.958392" style="fill: #323034; stroke: #323034; stroke-width: 0.8"/>
      </g>
     </g>
     <g id="text_8">
      <!-- 1000 -->
      <g style="fill: #323034" transform="translate(26.4 292.422142)scale(0.16 -0.16)">
       <use xlink:href="#STIXGeneral-Regular-31"/>
       <use xlink:href="#STIXGeneral-Regular-30" x="49.999985"/>
       <use xlink:href="#STIXGeneral-Regular-30" x="99.999969"/>
       <use xlink:href="#STIXGeneral-Regular-30" x="149.999954"/>
      </g>
     </g>
    </g>
    <g id="ytick_2">
     <g id="line2d_8">
      <g>
       <use xlink:href="#m1a0e7d0205" x="65.4" y="252.035783" style="fill: #323034; stroke: #323034; stroke-width: 0.8"/>
      </g>
     </g>
     <g id="text_9">
      <!-- 1500 -->
      <g style="fill: #323034" transform="translate(26.4 257.499533)scale(0.16 -0.16)">
       <use xlink:href="#STIXGeneral-Regular-31"/>
       <use xlink:href="#STIXGeneral-Regular-35" x="49.999985"/>
       <use xlink:href="#STIXGeneral-Regular-30" x="99.999969"/>
       <use xlink:href="#STIXGeneral-Regular-30" x="149.999954"/>
      </g>
     </g>
    </g>
    <g id="ytick_3">
     <g id="line2d_9">
      <g>
       <use xlink:href="#m1a0e7d0205" x="65.4" y="217.113174" style="fill: #323034; stroke: #323034; stroke-width: 0.8"/>
      </g>
     </g>
     <g id="text_10">
      <!-- 2000 -->
      <g style="fill: #323034" transform="translate(26.4 222.576924)scale(0.16 -0.16)">
       <use xlink:href="#STIXGeneral-Regular-32"/>
       <use xlink:href="#STIXGeneral-Regular-30" x="49.999985"/>
       <use xlink:href="#STIXGeneral-Regular-30" x="99.999969"/>
       <use xlink:href="#STIXGeneral-Regular-30" x="149.999954"/>
      </g>
     </g>
    </g>
    <g id="ytick_4">
     <g id="line2d_10">
      <g>
       <use xlink:href="#m1a0e7d0205" x="65.4" y="182.190564" style="fill: #323034; stroke: #323034; stroke-width: 0.8"/>
      </g>
     </g>
     <g id="text_11">
      <!-- 2500 -->
      <g style="fill: #323034" transform="translate(26.4 187.654314)scale(0.16 -0.16)">
       <use xlink:href="#STIXGeneral-Regular-32"/>
       <use xlink:href="#STIXGeneral-Regular-35" x="49.999985"/>
       <use xlink:href="#STIXGeneral-Regular-30" x="99.999969"/>
       <use xlink:href="#STIXGeneral-Regular-30" x="149.999954"/>
      </g>
     </g>
    </g>
    <g id="ytick_5">
     <g id="line2d_11">
      <g>
       <use xlink:href="#m1a0e7d0205" x="65.4" y="147.267955" style="fill: #323034; stroke: #323034; stroke-width: 0.8"/>
      </g>
     </g>
     <g id="text_12">
      <!-- 3000 -->
      <g style="fill: #323034" transform="translate(26.4 152.731705)scale(0.16 -0.16)">
       <use xlink:href="#STIXGeneral-Regular-33"/>
       <use xlink:href="#STIXGeneral-Regular-30" x="49.999985"/>
       <use xlink:href="#STIXGeneral-Regular-30" x="99.999969"/>
       <use xlink:href="#STIXGeneral-Regular-30" x="149.999954"/>
      </g>
     </g>
    </g>
    <g id="ytick_6">
     <g id="line2d_12">
      <g>
       <use xlink:href="#m1a0e7d0205" x="65.4" y="112.345345" style="fill: #323034; stroke: #323034; stroke-width: 0.8"/>
      </g>
     </g>
     <g id="text_13">
      <!-- 3500 -->
      <g style="fill: #323034" transform="translate(26.4 117.809095)scale(0.16 -0.16)">
       <use xlink:href="#STIXGeneral-Regular-33"/>
       <use xlink:href="#STIXGeneral-Regular-35" x="49.999985"/>
       <use xlink:href="#STIXGeneral-Regular-30" x="99.999969"/>
       <use xlink:href="#STIXGeneral-Regular-30" x="149.999954"/>
      </g>
     </g>
    </g>
    <g id="ytick_7">
     <g id="line2d_13">
      <g>
       <use xlink:href="#m1a0e7d0205" x="65.4" y="77.422736" style="fill: #323034; stroke: #323034; stroke-width: 0.8"/>
      </g>
     </g>
     <g id="text_14">
      <!-- 4000 -->
      <g style="fill: #323034" transform="translate(26.4 82.886486)scale(0.16 -0.16)">
       <use xlink:href="#STIXGeneral-Regular-34"/>
       <use xlink:href="#STIXGeneral-Regular-30" x="49.999985"/>
       <use xlink:href="#STIXGeneral-Regular-30" x="99.999969"/>
       <use xlink:href="#STIXGeneral-Regular-30" x="149.999954"/>
      </g>
     </g>
    </g>
    <g id="ytick_8">
     <g id="line2d_14">
      <g>
       <use xlink:href="#m1a0e7d0205" x="65.4" y="42.500126" style="fill: #323034; stroke: #323034; stroke-width: 0.8"/>
      </g>
     </g>
     <g id="text_15">
      <!-- 4500 -->
      <g style="fill: #323034" transform="translate(26.4 47.963876)scale(0.16 -0.16)">
       <use xlink:href="#STIXGeneral-Regular-34"/>
       <use xlink:href="#STIXGeneral-Regular-35" x="49.999985"/>
       <use xlink:href="#STIXGeneral-Regular-30" x="99.999969"/>
       <use xlink:href="#STIXGeneral-Regular-30" x="149.999954"/>
      </g>
     </g>
    </g>
    <g id="text_16">
     <!-- sales -->
     <g transform="translate(19.493438 184.323281)rotate(-90)scale(0.18 -0.18)">
      <defs>
       <path id="STIXGeneral-Regular-73" d="M 998 1926 
L 1664 1523 
Q 1984 1331 2105 1164 
Q 2227 998 2227 736 
Q 2227 416 1961 176 
Q 1696 -64 1331 -64 
Q 1030 -64 864 -6 
Q 691 51 570 51 
Q 461 51 416 -26 
L 333 -26 
L 333 979 
L 435 979 
Q 538 512 730 294 
Q 922 77 1248 77 
Q 1485 77 1632 211 
Q 1779 346 1779 550 
Q 1779 845 1440 1030 
L 1094 1222 
Q 326 1651 326 2150 
Q 326 2522 566 2730 
Q 806 2938 1210 2938 
Q 1491 2938 1638 2867 
Q 1754 2816 1818 2816 
Q 1862 2816 1920 2880 
L 1990 2880 
L 2022 2010 
L 1926 2010 
Q 1818 2445 1654 2621 
Q 1491 2797 1203 2797 
Q 986 2797 854 2688 
Q 723 2579 723 2362 
Q 723 2253 796 2128 
Q 870 2003 998 1926 
z
" transform="scale(0.015625)"/>
       <path id="STIXGeneral-Regular-6c" d="M 1645 0 
L 134 0 
L 134 96 
Q 435 122 531 221 
Q 627 320 627 589 
L 627 3590 
Q 627 3821 569 3910 
Q 512 4000 358 4000 
Q 224 4000 122 3987 
L 122 4090 
Q 730 4237 1133 4371 
L 1165 4346 
L 1165 557 
Q 1165 288 1254 201 
Q 1344 115 1645 96 
L 1645 0 
z
" transform="scale(0.015625)"/>
      </defs>
      <use xlink:href="#STIXGeneral-Regular-73"/>
      <use xlink:href="#STIXGeneral-Regular-61" x="38.899994"/>
      <use xlink:href="#STIXGeneral-Regular-6c" x="83.299988"/>
      <use xlink:href="#STIXGeneral-Regular-65" x="111.099976"/>
      <use xlink:href="#STIXGeneral-Regular-73" x="155.499969"/>
     </g>
    </g>
   </g>
   <g id="LineCollection_1">
    <path d="M 90.763636 252.353415 
L 90.763636 182.790439 
" clip-path="url(#pdd206f9d77)" style="fill: none; stroke: #bc80bd; stroke-opacity: 0.2; stroke-width: 2"/>
    <path d="M 92.983902 230.179147 
L 92.983902 175.341556 
" clip-path="url(#pdd206f9d77)" style="fill: none; stroke: #bc80bd; stroke-opacity: 0.2; stroke-width: 2"/>
    <path d="M 95.493187 213.622731 
L 95.493187 156.857245 
" clip-path="url(#pdd206f9d77)" style="fill: none; stroke: #bc80bd; stroke-opacity: 0.2; stroke-width: 2"/>
    <path d="M 98.147921 220.943446 
L 98.147921 164.944767 
" clip-path="url(#pdd206f9d77)" style="fill: none; stroke: #bc80bd; stroke-opacity: 0.2; stroke-width: 2"/>
    <path d="M 100.843482 224.16639 
L 100.843482 150.617779 
" clip-path="url(#pdd206f9d77)" style="fill: none; stroke: #bc80bd; stroke-opacity: 0.2; stroke-width: 2"/>
    <path d="M 103.523261 213.043211 
L 103.523261 146.411966 
" clip-path="url(#pdd206f9d77)" style="fill: none; stroke: #bc80bd; stroke-opacity: 0.2; stroke-width: 2"/>
    <path d="M 106.529514 205.690378 
L 106.529514 140.5699 
" clip-path="url(#pdd206f9d77)" style="fill: none; stroke: #bc80bd; stroke-opacity: 0.2; stroke-width: 2"/>
    <path d="M 110.015158 202.766285 
L 110.015158 134.940602 
" clip-path="url(#pdd206f9d77)" style="fill: none; stroke: #bc80bd; stroke-opacity: 0.2; stroke-width: 2"/>
    <path d="M 113.60992 192.207229 
L 113.60992 115.843145 
" clip-path="url(#pdd206f9d77)" style="fill: none; stroke: #bc80bd; stroke-opacity: 0.2; stroke-width: 2"/>
    <path d="M 117.132847 208.197115 
L 117.132847 112.849611 
" clip-path="url(#pdd206f9d77)" style="fill: none; stroke: #bc80bd; stroke-opacity: 0.2; stroke-width: 2"/>
    <path d="M 120.68295 174.242379 
L 120.68295 71.023558 
" clip-path="url(#pdd206f9d77)" style="fill: none; stroke: #bc80bd; stroke-opacity: 0.2; stroke-width: 2"/>
    <path d="M 124.668877 198.545471 
L 124.668877 117.364661 
" clip-path="url(#pdd206f9d77)" style="fill: none; stroke: #bc80bd; stroke-opacity: 0.2; stroke-width: 2"/>
    <path d="M 129.101735 177.435899 
L 129.101735 88.246912 
" clip-path="url(#pdd206f9d77)" style="fill: none; stroke: #bc80bd; stroke-opacity: 0.2; stroke-width: 2"/>
    <path d="M 133.571968 182.089929 
L 133.571968 90.545724 
" clip-path="url(#pdd206f9d77)" style="fill: none; stroke: #bc80bd; stroke-opacity: 0.2; stroke-width: 2"/>
    <path d="M 138.520982 180.188585 
L 138.520982 84.52807 
" clip-path="url(#pdd206f9d77)" style="fill: none; stroke: #bc80bd; stroke-opacity: 0.2; stroke-width: 2"/>
    <path d="M 143.692935 183.527941 
L 143.692935 96.182228 
" clip-path="url(#pdd206f9d77)" style="fill: none; stroke: #bc80bd; stroke-opacity: 0.2; stroke-width: 2"/>
    <path d="M 149.393819 155.940154 
L 149.393819 63.61285 
" clip-path="url(#pdd206f9d77)" style="fill: none; stroke: #bc80bd; stroke-opacity: 0.2; stroke-width: 2"/>
    <path d="M 155.669684 154.455313 
L 155.669684 61.218338 
" clip-path="url(#pdd206f9d77)" style="fill: none; stroke: #bc80bd; stroke-opacity: 0.2; stroke-width: 2"/>
    <path d="M 162.350499 158.759242 
L 162.350499 56.317701 
" clip-path="url(#pdd206f9d77)" style="fill: none; stroke: #bc80bd; stroke-opacity: 0.2; stroke-width: 2"/>
    <path d="M 169.384236 163.095562 
L 169.384236 61.309234 
" clip-path="url(#pdd206f9d77)" style="fill: none; stroke: #bc80bd; stroke-opacity: 0.2; stroke-width: 2"/>
    <path d="M 176.961216 154.753832 
L 176.961216 49.745112 
" clip-path="url(#pdd206f9d77)" style="fill: none; stroke: #bc80bd; stroke-opacity: 0.2; stroke-width: 2"/>
    <path d="M 185.95853 175.264538 
L 185.95853 69.570607 
" clip-path="url(#pdd206f9d77)" style="fill: none; stroke: #bc80bd; stroke-opacity: 0.2; stroke-width: 2"/>
    <path d="M 197.038777 147.237743 
L 197.038777 40.825312 
" clip-path="url(#pdd206f9d77)" style="fill: none; stroke: #bc80bd; stroke-opacity: 0.2; stroke-width: 2"/>
    <path d="M 209.12514 193.420428 
L 209.12514 95.64049 
" clip-path="url(#pdd206f9d77)" style="fill: none; stroke: #bc80bd; stroke-opacity: 0.2; stroke-width: 2"/>
    <path d="M 223.697027 183.627485 
L 223.697027 87.09927 
" clip-path="url(#pdd206f9d77)" style="fill: none; stroke: #bc80bd; stroke-opacity: 0.2; stroke-width: 2"/>
    <path d="M 241.482129 234.154084 
L 241.482129 142.727732 
" clip-path="url(#pdd206f9d77)" style="fill: none; stroke: #bc80bd; stroke-opacity: 0.2; stroke-width: 2"/>
    <path d="M 266.074012 210.20504 
L 266.074012 118.299805 
" clip-path="url(#pdd206f9d77)" style="fill: none; stroke: #bc80bd; stroke-opacity: 0.2; stroke-width: 2"/>
    <path d="M 294.99795 245.577268 
L 294.99795 156.242359 
" clip-path="url(#pdd206f9d77)" style="fill: none; stroke: #bc80bd; stroke-opacity: 0.2; stroke-width: 2"/>
    <path d="M 332.544622 226.021441 
L 332.544622 125.010539 
" clip-path="url(#pdd206f9d77)" style="fill: none; stroke: #bc80bd; stroke-opacity: 0.2; stroke-width: 2"/>
    <path d="M 397.463991 239.790635 
L 397.463991 133.245163 
" clip-path="url(#pdd206f9d77)" style="fill: none; stroke: #bc80bd; stroke-opacity: 0.2; stroke-width: 2"/>
    <path d="M 598.036364 292.825312 
L 598.036364 157.026165 
" clip-path="url(#pdd206f9d77)" style="fill: none; stroke: #bc80bd; stroke-opacity: 0.2; stroke-width: 2"/>
   </g>
   <g id="line2d_15"/>
   <g id="patch_3">
    <path d="M 65.4 305.425313 
L 65.4 28.225313 
" style="fill: none; stroke: #000000; stroke-width: 0.6; stroke-linejoin: miter; stroke-linecap: square"/>
   </g>
   <g id="patch_4">
    <path d="M 65.4 305.425312 
L 623.4 305.425312 
" style="fill: none; stroke: #000000; stroke-width: 0.6; stroke-linejoin: miter; stroke-linecap: square"/>
   </g>
   <g id="text_17">
    <!-- Binscatter: sales as a function of age conditioned on products -->
    <g style="fill: #323034" transform="translate(65.4 22.225312)scale(0.22 -0.22)">
     <defs>
      <path id="STIXGeneral-Regular-42" d="M 2701 2234 
L 2701 2227 
Q 3181 2150 3482 1875 
Q 3795 1594 3795 1139 
Q 3795 608 3379 304 
Q 2963 0 2266 0 
L 109 0 
L 109 122 
Q 486 134 604 246 
Q 723 358 723 723 
L 723 3520 
Q 723 3891 614 3990 
Q 506 4090 109 4115 
L 109 4237 
L 1901 4237 
Q 2726 4237 3152 3958 
Q 3578 3680 3578 3168 
Q 3578 2733 3315 2502 
Q 3130 2342 2701 2234 
z
M 1376 2342 
L 1965 2342 
Q 2925 2342 2925 3136 
Q 2925 3546 2640 3773 
Q 2355 4000 1792 4000 
L 1530 4000 
Q 1376 4000 1376 3795 
L 1376 2342 
z
M 1376 2086 
L 1376 525 
Q 1376 365 1462 301 
Q 1549 237 1773 237 
Q 2208 237 2413 285 
Q 2618 333 2816 512 
Q 3059 723 3059 1146 
Q 3059 1632 2758 1830 
Q 2688 1882 2617 1917 
Q 2547 1952 2492 1974 
Q 2438 1997 2348 2016 
Q 2259 2035 2211 2044 
Q 2163 2054 2041 2060 
Q 1920 2067 1862 2070 
Q 1805 2074 1635 2080 
Q 1466 2086 1376 2086 
z
" transform="scale(0.015625)"/>
      <path id="STIXGeneral-Regular-69" d="M 1152 4045 
Q 1152 3904 1056 3811 
Q 960 3718 819 3718 
Q 685 3718 592 3811 
Q 499 3904 499 4045 
Q 499 4179 595 4275 
Q 691 4371 826 4371 
Q 966 4371 1059 4275 
Q 1152 4179 1152 4045 
z
M 1619 0 
L 102 0 
L 102 96 
Q 435 115 521 211 
Q 608 307 608 666 
L 608 2118 
Q 608 2342 563 2432 
Q 518 2522 397 2522 
Q 243 2522 128 2490 
L 128 2592 
L 1120 2944 
L 1146 2918 
L 1146 672 
Q 1146 314 1226 218 
Q 1306 122 1619 96 
L 1619 0 
z
" transform="scale(0.015625)"/>
      <path id="STIXGeneral-Regular-6e" d="M 3104 0 
L 1773 0 
L 1779 96 
Q 2016 115 2096 233 
Q 2176 352 2176 672 
L 2176 1946 
Q 2176 2592 1709 2592 
Q 1549 2592 1408 2515 
Q 1267 2438 1050 2227 
L 1050 461 
Q 1050 269 1136 192 
Q 1222 115 1466 96 
L 1466 0 
L 115 0 
L 115 96 
Q 358 115 435 214 
Q 512 314 512 602 
L 512 2157 
Q 512 2394 467 2483 
Q 422 2573 288 2573 
Q 160 2573 102 2547 
L 102 2656 
Q 550 2784 979 2944 
L 1030 2925 
L 1030 2426 
L 1037 2426 
Q 1491 2944 1958 2944 
Q 2323 2944 2518 2688 
Q 2714 2432 2714 1958 
L 2714 544 
Q 2714 288 2790 205 
Q 2867 122 3104 96 
L 3104 0 
z
" transform="scale(0.015625)"/>
      <path id="STIXGeneral-Regular-63" d="M 2547 998 
L 2637 941 
Q 2362 403 2112 205 
Q 1786 -64 1376 -64 
Q 845 -64 502 336 
Q 160 736 160 1357 
Q 160 2170 698 2618 
Q 1094 2944 1562 2944 
Q 1965 2944 2256 2749 
Q 2547 2554 2547 2285 
Q 2547 2176 2457 2096 
Q 2368 2016 2246 2016 
Q 2022 2016 1939 2310 
L 1901 2451 
Q 1850 2630 1773 2694 
Q 1696 2758 1523 2758 
Q 1133 2758 893 2451 
Q 653 2144 653 1645 
Q 653 1094 928 745 
Q 1203 397 1645 397 
Q 1920 397 2118 528 
Q 2317 659 2547 998 
z
" transform="scale(0.015625)"/>
      <path id="STIXGeneral-Regular-74" d="M 1702 493 
L 1786 422 
Q 1478 -64 1011 -64 
Q 448 -64 448 749 
L 448 2675 
L 109 2675 
Q 83 2694 83 2720 
Q 83 2771 192 2842 
Q 435 2982 813 3526 
Q 826 3546 874 3606 
Q 922 3667 941 3706 
Q 986 3706 986 3622 
L 986 2880 
L 1632 2880 
L 1632 2675 
L 986 2675 
L 986 845 
Q 986 538 1062 403 
Q 1139 269 1318 269 
Q 1510 269 1702 493 
z
" transform="scale(0.015625)"/>
      <path id="STIXGeneral-Regular-72" d="M 1024 2931 
L 1024 2342 
Q 1267 2688 1430 2816 
Q 1594 2944 1792 2944 
Q 1958 2944 2051 2854 
Q 2144 2765 2144 2605 
Q 2144 2470 2077 2393 
Q 2010 2317 1894 2317 
Q 1773 2317 1638 2445 
Q 1536 2541 1472 2541 
Q 1338 2541 1181 2355 
Q 1024 2170 1024 2016 
L 1024 576 
Q 1024 301 1133 205 
Q 1242 109 1568 96 
L 1568 0 
L 32 0 
L 32 96 
Q 339 154 412 224 
Q 486 294 486 538 
L 486 2138 
Q 486 2349 438 2435 
Q 390 2522 269 2522 
Q 166 2522 45 2496 
L 45 2598 
Q 448 2726 992 2944 
L 1024 2931 
z
" transform="scale(0.015625)"/>
      <path id="STIXGeneral-Regular-3a" d="M 1123 2832 
Q 1229 2726 1229 2579 
Q 1229 2432 1126 2329 
Q 1024 2227 877 2227 
Q 730 2227 624 2332 
Q 518 2438 518 2579 
Q 518 2733 620 2835 
Q 723 2938 877 2938 
Q 1018 2938 1123 2832 
z
M 1229 282 
Q 1229 141 1126 35 
Q 1024 -70 877 -70 
Q 730 -70 624 35 
Q 518 141 518 282 
Q 518 435 620 537 
Q 723 640 877 640 
Q 1018 640 1123 534 
Q 1229 429 1229 282 
z
" transform="scale(0.015625)"/>
      <path id="STIXGeneral-Regular-20" transform="scale(0.015625)"/>
      <path id="STIXGeneral-Regular-66" d="M 134 2880 
L 659 2880 
Q 666 3264 710 3478 
Q 755 3693 883 3910 
Q 1152 4371 1786 4371 
Q 2074 4371 2262 4259 
Q 2451 4147 2451 3974 
Q 2451 3866 2374 3789 
Q 2298 3712 2182 3712 
Q 2029 3712 1894 3942 
Q 1741 4192 1555 4192 
Q 1197 4192 1197 3622 
L 1197 2880 
L 1978 2880 
L 1978 2675 
L 1197 2675 
L 1197 666 
Q 1197 307 1299 208 
Q 1402 109 1792 96 
L 1792 0 
L 128 0 
L 128 96 
Q 474 115 566 214 
Q 659 314 659 666 
L 659 2675 
L 134 2675 
L 134 2880 
z
" transform="scale(0.015625)"/>
      <path id="STIXGeneral-Regular-75" d="M 3072 320 
L 3072 230 
Q 2573 96 2195 -58 
L 2163 -38 
L 2163 486 
L 2150 486 
Q 1747 -64 1235 -64 
Q 870 -64 662 160 
Q 454 384 454 755 
L 454 2362 
Q 454 2598 371 2688 
Q 288 2778 58 2790 
L 58 2880 
L 992 2880 
L 992 813 
Q 992 595 1123 451 
Q 1254 307 1446 307 
Q 1760 307 1984 506 
Q 2067 582 2099 649 
Q 2131 717 2131 877 
L 2131 2355 
Q 2131 2605 2041 2678 
Q 1952 2752 1658 2771 
L 1658 2880 
L 2669 2880 
L 2669 685 
Q 2669 461 2742 390 
Q 2816 320 3034 320 
L 3072 320 
z
" transform="scale(0.015625)"/>
      <path id="STIXGeneral-Regular-6f" d="M 3008 1478 
Q 3008 806 2608 371 
Q 2208 -64 1568 -64 
Q 979 -64 582 368 
Q 186 800 186 1459 
Q 186 2125 582 2534 
Q 979 2944 1626 2944 
Q 2221 2944 2614 2537 
Q 3008 2131 3008 1478 
z
M 2432 1306 
Q 2432 2035 2112 2445 
Q 1856 2765 1504 2765 
Q 1171 2765 966 2493 
Q 762 2221 762 1747 
Q 762 928 1101 435 
Q 1318 115 1677 115 
Q 2029 115 2230 432 
Q 2432 749 2432 1306 
z
" transform="scale(0.015625)"/>
      <path id="STIXGeneral-Regular-64" d="M 3142 269 
L 2202 -64 
L 2176 -45 
L 2176 365 
Q 1869 -64 1357 -64 
Q 826 -64 499 317 
Q 173 698 173 1312 
Q 173 1990 563 2467 
Q 954 2944 1504 2944 
Q 1850 2944 2176 2669 
L 2176 3667 
Q 2176 3866 2118 3930 
Q 2061 3994 1882 3994 
Q 1792 3994 1741 3987 
L 1741 4090 
Q 2323 4243 2682 4371 
L 2714 4358 
L 2714 730 
Q 2714 506 2768 435 
Q 2822 365 2995 365 
Q 3034 365 3142 371 
L 3142 269 
z
M 2176 653 
L 2176 2125 
Q 2176 2381 1981 2573 
Q 1786 2765 1523 2765 
Q 1158 2765 940 2438 
Q 723 2112 723 1568 
Q 723 979 963 624 
Q 1203 269 1606 269 
Q 1907 269 2080 474 
Q 2176 582 2176 653 
z
" transform="scale(0.015625)"/>
      <path id="STIXGeneral-Regular-70" d="M 1018 2931 
L 1018 2438 
Q 1421 2944 1939 2944 
Q 2406 2944 2707 2560 
Q 3008 2176 3008 1581 
Q 3008 883 2621 409 
Q 2234 -64 1664 -64 
Q 1466 -64 1328 -6 
Q 1190 51 1018 211 
L 1018 -794 
Q 1018 -1094 1120 -1180 
Q 1222 -1267 1581 -1274 
L 1581 -1389 
L 32 -1389 
L 32 -1280 
Q 314 -1254 397 -1171 
Q 480 -1088 480 -838 
L 480 2157 
Q 480 2381 429 2451 
Q 378 2522 218 2522 
Q 115 2522 58 2515 
L 58 2618 
Q 506 2752 979 2944 
L 1018 2931 
z
M 1018 2138 
L 1018 563 
Q 1018 422 1238 281 
Q 1459 141 1683 141 
Q 2029 141 2243 467 
Q 2458 794 2458 1325 
Q 2458 1888 2243 2224 
Q 2029 2560 1670 2560 
Q 1446 2560 1232 2419 
Q 1018 2278 1018 2138 
z
" transform="scale(0.015625)"/>
     </defs>
     <use xlink:href="#STIXGeneral-Regular-42"/>
     <use xlink:href="#STIXGeneral-Regular-69" x="66.699997"/>
     <use xlink:href="#STIXGeneral-Regular-6e" x="94.499985"/>
     <use xlink:href="#STIXGeneral-Regular-73" x="144.499969"/>
     <use xlink:href="#STIXGeneral-Regular-63" x="183.399963"/>
     <use xlink:href="#STIXGeneral-Regular-61" x="227.799957"/>
     <use xlink:href="#STIXGeneral-Regular-74" x="272.199951"/>
     <use xlink:href="#STIXGeneral-Regular-74" x="299.999939"/>
     <use xlink:href="#STIXGeneral-Regular-65" x="327.799927"/>
     <use xlink:href="#STIXGeneral-Regular-72" x="372.199921"/>
     <use xlink:href="#STIXGeneral-Regular-3a" x="405.499908"/>
     <use xlink:href="#STIXGeneral-Regular-20" x="433.299896"/>
     <use xlink:href="#STIXGeneral-Regular-73" x="458.299881"/>
     <use xlink:href="#STIXGeneral-Regular-61" x="497.199875"/>
     <use xlink:href="#STIXGeneral-Regular-6c" x="541.599869"/>
     <use xlink:href="#STIXGeneral-Regular-65" x="569.399857"/>
     <use xlink:href="#STIXGeneral-Regular-73" x="613.79985"/>
     <use xlink:href="#STIXGeneral-Regular-20" x="652.699844"/>
     <use xlink:href="#STIXGeneral-Regular-61" x="677.699829"/>
     <use xlink:href="#STIXGeneral-Regular-73" x="722.099823"/>
     <use xlink:href="#STIXGeneral-Regular-20" x="760.999817"/>
     <use xlink:href="#STIXGeneral-Regular-61" x="785.999802"/>
     <use xlink:href="#STIXGeneral-Regular-20" x="830.399796"/>
     <use xlink:href="#STIXGeneral-Regular-66" x="855.39978"/>
     <use xlink:href="#STIXGeneral-Regular-75" x="888.699768"/>
     <use xlink:href="#STIXGeneral-Regular-6e" x="938.699753"/>
     <use xlink:href="#STIXGeneral-Regular-63" x="988.699738"/>
     <use xlink:href="#STIXGeneral-Regular-74" x="1033.099731"/>
     <use xlink:href="#STIXGeneral-Regular-69" x="1060.899719"/>
     <use xlink:href="#STIXGeneral-Regular-6f" x="1088.699707"/>
     <use xlink:href="#STIXGeneral-Regular-6e" x="1138.699692"/>
     <use xlink:href="#STIXGeneral-Regular-20" x="1188.699677"/>
     <use xlink:href="#STIXGeneral-Regular-6f" x="1213.699661"/>
     <use xlink:href="#STIXGeneral-Regular-66" x="1263.699646"/>
     <use xlink:href="#STIXGeneral-Regular-20" x="1296.999634"/>
     <use xlink:href="#STIXGeneral-Regular-61" x="1321.999619"/>
     <use xlink:href="#STIXGeneral-Regular-67" x="1366.399612"/>
     <use xlink:href="#STIXGeneral-Regular-65" x="1416.399597"/>
     <use xlink:href="#STIXGeneral-Regular-20" x="1460.799591"/>
     <use xlink:href="#STIXGeneral-Regular-63" x="1485.799576"/>
     <use xlink:href="#STIXGeneral-Regular-6f" x="1530.19957"/>
     <use xlink:href="#STIXGeneral-Regular-6e" x="1580.199554"/>
     <use xlink:href="#STIXGeneral-Regular-64" x="1630.199539"/>
     <use xlink:href="#STIXGeneral-Regular-69" x="1680.199524"/>
     <use xlink:href="#STIXGeneral-Regular-74" x="1707.999512"/>
     <use xlink:href="#STIXGeneral-Regular-69" x="1735.7995"/>
     <use xlink:href="#STIXGeneral-Regular-6f" x="1763.599487"/>
     <use xlink:href="#STIXGeneral-Regular-6e" x="1813.599472"/>
     <use xlink:href="#STIXGeneral-Regular-65" x="1863.599457"/>
     <use xlink:href="#STIXGeneral-Regular-64" x="1907.999451"/>
     <use xlink:href="#STIXGeneral-Regular-20" x="1957.999435"/>
     <use xlink:href="#STIXGeneral-Regular-6f" x="1982.99942"/>
     <use xlink:href="#STIXGeneral-Regular-6e" x="2032.999405"/>
     <use xlink:href="#STIXGeneral-Regular-20" x="2082.99939"/>
     <use xlink:href="#STIXGeneral-Regular-70" x="2107.999374"/>
     <use xlink:href="#STIXGeneral-Regular-72" x="2157.999359"/>
     <use xlink:href="#STIXGeneral-Regular-6f" x="2191.299347"/>
     <use xlink:href="#STIXGeneral-Regular-64" x="2241.299332"/>
     <use xlink:href="#STIXGeneral-Regular-75" x="2291.299316"/>
     <use xlink:href="#STIXGeneral-Regular-63" x="2341.299301"/>
     <use xlink:href="#STIXGeneral-Regular-74" x="2385.699295"/>
     <use xlink:href="#STIXGeneral-Regular-73" x="2413.499283"/>
    </g>
   </g>
  </g>
 </g>
 <defs>
  <clipPath id="pdd206f9d77">
   <rect x="65.4" y="28.225312" width="558" height="277.2"/>
  </clipPath>
 </defs>
</svg>
