<?xml version="1.0" encoding="utf-8" standalone="no"?>
<!DOCTYPE svg PUBLIC "-//W3C//DTD SVG 1.1//EN"
  "http://www.w3.org/Graphics/SVG/1.1/DTD/svg11.dtd">
<svg height="306.47625pt" version="1.1" viewBox="0 0 423.81 306.47625" width="423.81pt" xmlns="http://www.w3.org/2000/svg" xmlns:xlink="http://www.w3.org/1999/xlink">
 <metadata>
  <rdf:RDF xmlns:cc="http://creativecommons.org/ns#" xmlns:dc="http://purl.org/dc/elements/1.1/" xmlns:rdf="http://www.w3.org/1999/02/22-rdf-syntax-ns#">
   <cc:Work>
    <dc:type rdf:resource="http://purl.org/dc/dcmitype/StillImage"/>
    <dc:date>2022-08-20T17:52:17.588312</dc:date>
    <dc:format>image/svg+xml</dc:format>
    <dc:creator>
     <cc:Agent>
      <dc:title>Matplotlib v3.4.3, https://matplotlib.org/</dc:title>
     </cc:Agent>
    </dc:creator>
   </cc:Work>
  </rdf:RDF>
 </metadata>
 <defs>
  <style type="text/css">*{stroke-linecap:butt;stroke-linejoin:round;}</style>
 </defs>
 <g id="figure_1">
  <g id="patch_1">
   <path d="M 0 306.47625 
L 423.81 306.47625 
L 423.81 0 
L 0 0 
z
" style="fill:none;"/>
  </g>
  <g id="axes_1">
   <g id="patch_2">
    <path d="M 26.2 134.738125 
L 407.61 134.738125 
L 407.61 24.1275 
L 26.2 24.1275 
z
" style="fill:#ffffff;"/>
   </g>
   <g id="PolyCollection_1">
    <defs>
     <path d="M 29.25128 -275.311074 
L 29.25128 -209.962848 
L 30.77692 -197.032768 
L 32.30256 -216.875928 
L 33.8282 -216.269996 
L 35.35384 -216.332436 
L 36.87948 -215.699773 
L 38.40512 -216.887626 
L 39.93076 -214.847177 
L 41.4564 -214.648241 
L 42.98204 -221.20719 
L 44.50768 -220.760415 
L 46.03332 -231.167389 
L 47.55896 -218.07651 
L 49.0846 -218.47695 
L 50.61024 -222.680307 
L 52.13588 -223.706905 
L 53.66152 -222.74308 
L 55.18716 -222.338755 
L 56.7128 -222.335632 
L 58.23844 -221.089403 
L 59.76408 -221.453782 
L 61.28972 -222.093288 
L 62.81536 -222.083363 
L 64.341 -221.162125 
L 65.86664 -220.691179 
L 67.39228 -220.652288 
L 68.91792 -220.750714 
L 70.44356 -220.927725 
L 71.9692 -220.631063 
L 73.49484 -220.628154 
L 75.02048 -220.629248 
L 76.54612 -220.770352 
L 78.07176 -219.731127 
L 79.5974 -220.093423 
L 81.12304 -220.381323 
L 82.64868 -220.289223 
L 84.17432 -220.343921 
L 85.69996 -220.292189 
L 87.2256 -220.385721 
L 88.75124 -220.401232 
L 90.27688 -221.318375 
L 91.80252 -221.412156 
L 93.32816 -220.888186 
L 94.8538 -221.042284 
L 96.37944 -220.964356 
L 97.90508 -221.074161 
L 99.43072 -221.923666 
L 100.95636 -223.023729 
L 102.482 -222.912983 
L 104.00764 -223.199243 
L 105.53328 -223.222292 
L 107.05892 -224.145327 
L 108.58456 -224.248577 
L 110.1102 -224.357802 
L 111.63584 -225.87235 
L 113.16148 -225.359457 
L 114.68712 -225.406794 
L 116.21276 -225.440256 
L 117.7384 -225.042199 
L 119.26404 -224.940322 
L 120.78968 -224.40853 
L 122.31532 -224.848845 
L 123.84096 -224.87748 
L 125.3666 -226.312901 
L 126.89224 -226.348855 
L 128.41788 -226.648333 
L 129.94352 -226.651909 
L 131.46916 -226.551802 
L 132.9948 -226.731247 
L 134.52044 -226.503959 
L 136.04608 -226.478843 
L 137.57172 -226.436903 
L 139.09736 -226.421104 
L 140.623 -226.645866 
L 142.14864 -226.680392 
L 143.67428 -226.666346 
L 145.19992 -226.660583 
L 146.72556 -226.663879 
L 148.2512 -226.669351 
L 149.77684 -226.636286 
L 151.30248 -226.640049 
L 152.82812 -226.631926 
L 154.35376 -226.394044 
L 155.8794 -226.451277 
L 157.40504 -226.315426 
L 158.93068 -226.30902 
L 160.45632 -226.456345 
L 161.98196 -226.328529 
L 163.5076 -226.41978 
L 165.03324 -226.187645 
L 166.55888 -225.787833 
L 168.08452 -226.241332 
L 169.61016 -225.389704 
L 171.1358 -225.430205 
L 172.66144 -225.442618 
L 174.18708 -225.28104 
L 175.71272 -224.990271 
L 177.23836 -224.663196 
L 178.764 -224.565668 
L 180.28964 -224.764579 
L 181.81528 -224.769912 
L 183.34092 -224.996448 
L 184.86656 -224.616251 
L 186.3922 -224.711573 
L 187.91784 -224.719623 
L 189.44348 -224.558447 
L 190.96912 -224.720602 
L 192.49476 -224.726152 
L 194.0204 -224.781344 
L 195.54604 -224.747397 
L 197.07168 -224.856863 
L 198.59732 -224.759729 
L 200.12296 -224.74017 
L 201.6486 -224.722132 
L 203.17424 -224.672413 
L 204.69988 -224.607651 
L 206.22552 -224.644707 
L 207.75116 -224.623493 
L 209.2768 -224.757367 
L 210.80244 -224.764535 
L 212.32808 -224.707464 
L 213.85372 -224.781206 
L 215.37936 -224.742675 
L 216.905 -224.693549 
L 218.43064 -224.594124 
L 219.95628 -225.274077 
L 221.48192 -225.28165 
L 223.00756 -225.333874 
L 224.5332 -225.227201 
L 226.05884 -226.071071 
L 227.58448 -226.275524 
L 229.11012 -226.325885 
L 230.63576 -226.340006 
L 232.1614 -226.580152 
L 233.68704 -226.58527 
L 235.21268 -226.256602 
L 236.73832 -226.355921 
L 238.26396 -226.529459 
L 239.7896 -226.310578 
L 241.31524 -226.200587 
L 242.84088 -226.26762 
L 244.36652 -226.083279 
L 245.89216 -226.082931 
L 247.4178 -226.090835 
L 248.94344 -226.3872 
L 250.46908 -226.91581 
L 251.99472 -227.140716 
L 253.52036 -227.158799 
L 255.046 -227.173237 
L 256.57164 -227.19353 
L 258.09728 -227.197757 
L 259.62292 -227.147446 
L 261.14856 -227.067774 
L 262.6742 -227.178202 
L 264.19984 -227.317482 
L 265.72548 -227.263793 
L 267.25112 -227.352823 
L 268.77676 -227.576612 
L 270.3024 -228.094472 
L 271.82804 -228.061724 
L 273.35368 -227.755871 
L 274.87932 -227.84994 
L 276.40496 -227.843637 
L 277.9306 -227.962874 
L 279.45624 -227.910913 
L 280.98188 -227.909637 
L 282.50752 -227.84323 
L 284.03316 -227.846759 
L 285.5588 -227.794173 
L 287.08444 -227.743577 
L 288.61008 -227.692187 
L 290.13572 -227.669318 
L 291.66136 -227.680143 
L 293.187 -227.627367 
L 294.71264 -227.578514 
L 296.23828 -227.905803 
L 297.76392 -227.741737 
L 299.28956 -227.789999 
L 300.8152 -227.785865 
L 302.34084 -227.773361 
L 303.86648 -227.870674 
L 305.39212 -227.798277 
L 306.91776 -227.84823 
L 308.4434 -227.651826 
L 309.96904 -227.736953 
L 311.49468 -227.702614 
L 313.02032 -227.614675 
L 314.54596 -227.806426 
L 316.0716 -227.704938 
L 317.59724 -227.738992 
L 319.12288 -227.730881 
L 320.64852 -227.713721 
L 322.17416 -227.63273 
L 323.6998 -227.6204 
L 325.22544 -227.509304 
L 326.75108 -227.485108 
L 328.27672 -227.589688 
L 329.80236 -227.637323 
L 329.80236 -234.050894 
L 329.80236 -234.050894 
L 328.27672 -234.010581 
L 326.75108 -233.912826 
L 325.22544 -233.942435 
L 323.6998 -234.076901 
L 322.17416 -234.089281 
L 320.64852 -234.215812 
L 319.12288 -234.234781 
L 317.59724 -234.244267 
L 316.0716 -234.213717 
L 314.54596 -234.328133 
L 313.02032 -234.143413 
L 311.49468 -234.283563 
L 309.96904 -234.366938 
L 308.4434 -234.321054 
L 306.91776 -234.526131 
L 305.39212 -234.495555 
L 303.86648 -234.570156 
L 302.34084 -234.595646 
L 300.8152 -234.608993 
L 299.28956 -234.620036 
L 297.76392 -234.628714 
L 296.23828 -234.807396 
L 294.71264 -234.556683 
L 293.187 -234.608121 
L 291.66136 -234.663735 
L 290.13572 -234.654921 
L 288.61008 -234.678443 
L 287.08444 -234.74869 
L 285.5588 -234.803128 
L 284.03316 -234.904092 
L 282.50752 -234.904252 
L 280.98188 -234.980294 
L 279.45624 -234.981594 
L 277.9306 -235.069619 
L 276.40496 -234.979769 
L 274.87932 -235.003218 
L 273.35368 -234.947362 
L 271.82804 -235.305002 
L 270.3024 -235.358524 
L 268.77676 -234.919581 
L 267.25112 -234.72508 
L 265.72548 -234.646937 
L 264.19984 -234.701203 
L 262.6742 -234.567619 
L 261.14856 -234.467486 
L 259.62292 -234.555703 
L 258.09728 -234.610716 
L 256.57164 -234.606963 
L 255.046 -234.590063 
L 253.52036 -234.575967 
L 251.99472 -234.593738 
L 250.46908 -234.447552 
L 248.94344 -234.056002 
L 247.4178 -233.772548 
L 245.89216 -233.766323 
L 244.36652 -233.766672 
L 242.84088 -233.960502 
L 241.31524 -233.907566 
L 239.7896 -234.028623 
L 238.26396 -234.27017 
L 236.73832 -234.137689 
L 235.21268 -234.049126 
L 233.68704 -234.420342 
L 232.1614 -234.430505 
L 230.63576 -234.202273 
L 229.11012 -234.18846 
L 227.58448 -234.14211 
L 226.05884 -234.057538 
L 224.5332 -233.401843 
L 223.00756 -233.522656 
L 221.48192 -233.613024 
L 219.95628 -233.607293 
L 218.43064 -233.11113 
L 216.905 -233.225503 
L 215.37936 -233.286922 
L 213.85372 -233.330156 
L 212.32808 -233.281136 
L 210.80244 -233.394014 
L 209.2768 -233.533415 
L 207.75116 -233.478147 
L 206.22552 -233.516749 
L 204.69988 -233.513927 
L 203.17424 -233.609135 
L 201.6486 -233.666359 
L 200.12296 -233.705929 
L 198.59732 -233.727761 
L 197.07168 -234.170552 
L 195.54604 -234.107614 
L 194.0204 -234.28711 
L 192.49476 -234.299024 
L 190.96912 -234.29434 
L 189.44348 -234.150792 
L 187.91784 -234.319816 
L 186.3922 -234.311772 
L 184.86656 -234.221934 
L 183.34092 -234.689422 
L 181.81528 -234.482232 
L 180.28964 -234.480798 
L 178.764 -234.326667 
L 177.23836 -234.477634 
L 175.71272 -234.953803 
L 174.18708 -235.271764 
L 172.66144 -235.457677 
L 171.1358 -235.44552 
L 169.61016 -235.442067 
L 168.08452 -236.54033 
L 166.55888 -236.117615 
L 165.03324 -236.605778 
L 163.5076 -236.868824 
L 161.98196 -236.788378 
L 160.45632 -236.951529 
L 158.93068 -236.860759 
L 157.40504 -236.867268 
L 155.8794 -237.02467 
L 154.35376 -236.979562 
L 152.82812 -237.252944 
L 151.30248 -237.282287 
L 149.77684 -237.288003 
L 148.2512 -237.346726 
L 146.72556 -237.341327 
L 145.19992 -237.338241 
L 143.67428 -237.344109 
L 142.14864 -237.358366 
L 140.623 -237.416582 
L 139.09736 -237.243947 
L 137.57172 -237.266053 
L 136.04608 -237.334632 
L 134.52044 -237.360558 
L 132.9948 -237.596835 
L 131.46916 -237.607267 
L 129.94352 -237.729287 
L 128.41788 -237.726803 
L 126.89224 -237.531779 
L 125.3666 -237.498853 
L 123.84096 -236.54988 
L 122.31532 -236.559881 
L 120.78968 -236.321136 
L 119.26404 -237.066024 
L 117.7384 -237.246259 
L 116.21276 -237.690474 
L 114.68712 -237.661298 
L 113.16148 -237.616061 
L 111.63584 -238.232003 
L 110.1102 -237.379866 
L 108.58456 -237.349007 
L 107.05892 -237.472192 
L 105.53328 -236.755328 
L 104.00764 -236.903286 
L 102.482 -236.648946 
L 100.95636 -236.946634 
L 99.43072 -236.022776 
L 97.90508 -235.598442 
L 96.37944 -235.504271 
L 94.8538 -235.59896 
L 93.32816 -235.469454 
L 91.80252 -236.028797 
L 90.27688 -235.981917 
L 88.75124 -235.16579 
L 87.2256 -235.184021 
L 85.69996 -235.097216 
L 84.17432 -235.151899 
L 82.64868 -235.145169 
L 81.12304 -235.243088 
L 79.5974 -235.311937 
L 78.07176 -235.422112 
L 76.54612 -236.803044 
L 75.02048 -237.39075 
L 73.49484 -237.390345 
L 71.9692 -237.398657 
L 70.44356 -237.818187 
L 68.91792 -238.076444 
L 67.39228 -238.014523 
L 65.86664 -238.055019 
L 64.341 -238.798478 
L 62.81536 -240.146818 
L 61.28972 -240.157084 
L 59.76408 -239.728148 
L 58.23844 -239.542201 
L 56.7128 -242.43631 
L 55.18716 -242.450102 
L 53.66152 -243.680878 
L 52.13588 -245.015113 
L 50.61024 -244.810995 
L 49.0846 -245.254759 
L 47.55896 -245.098912 
L 46.03332 -265.087363 
L 44.50768 -261.466197 
L 42.98204 -262.42367 
L 41.4564 -258.802274 
L 39.93076 -259.117767 
L 38.40512 -261.466001 
L 36.87948 -260.71772 
L 35.35384 -265.487229 
L 33.8282 -265.429083 
L 32.30256 -268.892831 
L 30.77692 -255.238469 
L 29.25128 -275.311074 
z
" id="m1760630152" style="stroke:#000000;stroke-opacity:0.2;stroke-width:0.8;"/>
    </defs>
    <g clip-path="url(#p8d334ab93c)">
     <use style="fill:#bc80bd;fill-opacity:0.2;stroke:#000000;stroke-opacity:0.2;stroke-width:0.8;" x="0" xlink:href="#m1760630152" y="306.47625"/>
    </g>
   </g>
   <g id="matplotlib.axis_1">
    <g id="xtick_1">
     <g id="line2d_1">
      <defs>
       <path d="M 0 0 
L 0 3.5 
" id="m1667554d97" style="stroke:#323034;stroke-width:0.8;"/>
      </defs>
      <g>
       <use style="fill:#323034;stroke:#323034;stroke-width:0.8;" x="26.2" xlink:href="#m1667554d97" y="134.738125"/>
      </g>
     </g>
    </g>
    <g id="xtick_2">
     <g id="line2d_2">
      <g>
       <use style="fill:#323034;stroke:#323034;stroke-width:0.8;" x="102.482" xlink:href="#m1667554d97" y="134.738125"/>
      </g>
     </g>
    </g>
    <g id="xtick_3">
     <g id="line2d_3">
      <g>
       <use style="fill:#323034;stroke:#323034;stroke-width:0.8;" x="178.764" xlink:href="#m1667554d97" y="134.738125"/>
      </g>
     </g>
    </g>
    <g id="xtick_4">
     <g id="line2d_4">
      <g>
       <use style="fill:#323034;stroke:#323034;stroke-width:0.8;" x="255.046" xlink:href="#m1667554d97" y="134.738125"/>
      </g>
     </g>
    </g>
    <g id="xtick_5">
     <g id="line2d_5">
      <g>
       <use style="fill:#323034;stroke:#323034;stroke-width:0.8;" x="331.328" xlink:href="#m1667554d97" y="134.738125"/>
      </g>
     </g>
    </g>
    <g id="xtick_6">
     <g id="line2d_6">
      <g>
       <use style="fill:#323034;stroke:#323034;stroke-width:0.8;" x="407.61" xlink:href="#m1667554d97" y="134.738125"/>
      </g>
     </g>
    </g>
   </g>
   <g id="matplotlib.axis_2">
    <g id="ytick_1">
     <g id="line2d_7">
      <defs>
       <path d="M 0 0 
L -3.5 0 
" id="m487d3552e8" style="stroke:#323034;stroke-width:0.8;"/>
      </defs>
      <g>
       <use style="fill:#323034;stroke:#323034;stroke-width:0.8;" x="26.2" xlink:href="#m487d3552e8" y="134.738125"/>
      </g>
     </g>
     <g id="text_1">
      <!-- $\mathdefault{10}$ -->
      <g style="fill:#323034;" transform="translate(7.2 138.835937)scale(0.12 -0.12)">
       <defs>
        <path d="M 2522 0 
L 755 0 
L 755 96 
Q 1107 115 1235 227 
Q 1363 339 1363 608 
L 1363 3482 
Q 1363 3795 1171 3795 
Q 1082 3795 883 3718 
L 710 3654 
L 710 3744 
L 1856 4326 
L 1914 4307 
L 1914 486 
Q 1914 275 2042 185 
Q 2170 96 2522 96 
L 2522 0 
z
" id="STIXGeneral-Regular-31" transform="scale(0.015625)"/>
        <path d="M 3046 2112 
Q 3046 1683 2963 1302 
Q 2880 922 2717 602 
Q 2554 282 2266 96 
Q 1978 -90 1600 -90 
Q 1210 -90 915 108 
Q 621 307 461 640 
Q 301 973 227 1350 
Q 154 1728 154 2150 
Q 154 2746 301 3222 
Q 448 3699 790 4012 
Q 1133 4326 1626 4326 
Q 2253 4326 2649 3712 
Q 3046 3098 3046 2112 
z
M 2432 2080 
Q 2432 3091 2217 3625 
Q 2003 4160 1587 4160 
Q 1190 4160 979 3622 
Q 768 3085 768 2106 
Q 768 1120 979 598 
Q 1190 77 1600 77 
Q 2003 77 2217 598 
Q 2432 1120 2432 2080 
z
" id="STIXGeneral-Regular-30" transform="scale(0.015625)"/>
       </defs>
       <use transform="translate(0 0.40625)" xlink:href="#STIXGeneral-Regular-31"/>
       <use transform="translate(49.999985 0.40625)" xlink:href="#STIXGeneral-Regular-30"/>
      </g>
     </g>
    </g>
    <g id="ytick_2">
     <g id="line2d_8">
      <g>
       <use style="fill:#323034;stroke:#323034;stroke-width:0.8;" x="26.2" xlink:href="#m487d3552e8" y="107.085469"/>
      </g>
     </g>
     <g id="text_2">
      <!-- $\mathdefault{15}$ -->
      <g style="fill:#323034;" transform="translate(7.2 111.183281)scale(0.12 -0.12)">
       <defs>
        <path d="M 2803 4358 
L 2573 3814 
Q 2534 3731 2400 3731 
L 1158 3731 
L 902 3187 
Q 1606 3053 1920 2896 
Q 2234 2739 2502 2368 
Q 2726 2061 2726 1555 
Q 2726 1094 2576 780 
Q 2426 467 2099 224 
Q 1664 -90 1011 -90 
Q 646 -90 422 19 
Q 198 128 198 307 
Q 198 550 486 550 
Q 717 550 960 352 
Q 1210 147 1414 147 
Q 1747 147 2012 480 
Q 2278 813 2278 1229 
Q 2278 1843 1850 2189 
Q 1293 2637 486 2637 
Q 410 2637 410 2688 
L 416 2720 
L 1114 4237 
L 2438 4237 
Q 2547 4237 2608 4269 
Q 2669 4301 2746 4403 
L 2803 4358 
z
" id="STIXGeneral-Regular-35" transform="scale(0.015625)"/>
       </defs>
       <use transform="translate(0 0.203125)" xlink:href="#STIXGeneral-Regular-31"/>
       <use transform="translate(49.999985 0.203125)" xlink:href="#STIXGeneral-Regular-35"/>
      </g>
     </g>
    </g>
    <g id="ytick_3">
     <g id="line2d_9">
      <g>
       <use style="fill:#323034;stroke:#323034;stroke-width:0.8;" x="26.2" xlink:href="#m487d3552e8" y="79.432812"/>
      </g>
     </g>
     <g id="text_3">
      <!-- $\mathdefault{20}$ -->
      <g style="fill:#323034;" transform="translate(7.2 83.530625)scale(0.12 -0.12)">
       <defs>
        <path d="M 3034 877 
L 2688 0 
L 186 0 
L 186 77 
L 1325 1286 
Q 1773 1754 1965 2144 
Q 2157 2534 2157 2950 
Q 2157 3379 1920 3616 
Q 1683 3853 1267 3853 
Q 922 3853 720 3673 
Q 518 3494 326 3021 
L 192 3053 
Q 301 3648 630 3987 
Q 960 4326 1523 4326 
Q 2054 4326 2380 4006 
Q 2707 3686 2707 3200 
Q 2707 2477 1888 1613 
L 832 486 
L 2330 486 
Q 2541 486 2665 569 
Q 2790 653 2944 915 
L 3034 877 
z
" id="STIXGeneral-Regular-32" transform="scale(0.015625)"/>
       </defs>
       <use transform="translate(0 0.40625)" xlink:href="#STIXGeneral-Regular-32"/>
       <use transform="translate(49.999985 0.40625)" xlink:href="#STIXGeneral-Regular-30"/>
      </g>
     </g>
    </g>
    <g id="ytick_4">
     <g id="line2d_10">
      <g>
       <use style="fill:#323034;stroke:#323034;stroke-width:0.8;" x="26.2" xlink:href="#m487d3552e8" y="51.780156"/>
      </g>
     </g>
     <g id="text_4">
      <!-- $\mathdefault{25}$ -->
      <g style="fill:#323034;" transform="translate(7.2 55.877969)scale(0.12 -0.12)">
       <use transform="translate(0 0.203125)" xlink:href="#STIXGeneral-Regular-32"/>
       <use transform="translate(49.999985 0.203125)" xlink:href="#STIXGeneral-Regular-35"/>
      </g>
     </g>
    </g>
    <g id="ytick_5">
     <g id="line2d_11">
      <g>
       <use style="fill:#323034;stroke:#323034;stroke-width:0.8;" x="26.2" xlink:href="#m487d3552e8" y="24.1275"/>
      </g>
     </g>
     <g id="text_5">
      <!-- $\mathdefault{30}$ -->
      <g style="fill:#323034;" transform="translate(7.2 28.225312)scale(0.12 -0.12)">
       <defs>
        <path d="M 390 3264 
L 288 3290 
Q 435 3770 748 4048 
Q 1062 4326 1542 4326 
Q 1990 4326 2265 4083 
Q 2541 3840 2541 3450 
Q 2541 2925 1946 2566 
Q 2298 2413 2477 2227 
Q 2758 1914 2758 1402 
Q 2758 890 2464 506 
Q 2246 211 1840 60 
Q 1434 -90 979 -90 
Q 262 -90 262 275 
Q 262 378 339 442 
Q 416 506 525 506 
Q 685 506 915 339 
Q 1197 141 1466 141 
Q 1818 141 2058 425 
Q 2298 710 2298 1120 
Q 2298 1856 1632 2048 
Q 1434 2112 979 2112 
L 979 2202 
Q 1338 2323 1517 2432 
Q 2035 2726 2035 3290 
Q 2035 3610 1852 3776 
Q 1670 3942 1344 3942 
Q 768 3942 390 3264 
z
" id="STIXGeneral-Regular-33" transform="scale(0.015625)"/>
       </defs>
       <use transform="translate(0 0.40625)" xlink:href="#STIXGeneral-Regular-33"/>
       <use transform="translate(49.999985 0.40625)" xlink:href="#STIXGeneral-Regular-30"/>
      </g>
     </g>
    </g>
   </g>
   <g id="line2d_12">
    <path clip-path="url(#p8d334ab93c)" d="M 29.25128 63.839289 
L 30.77692 80.340632 
L 32.30256 63.591871 
L 33.8282 65.626711 
L 35.35384 65.566418 
L 36.87948 68.267503 
L 38.40512 67.299436 
L 39.93076 69.493778 
L 41.4564 69.750993 
L 42.98204 64.66082 
L 44.50768 65.362944 
L 46.03332 58.348874 
L 47.55896 74.888539 
L 49.0846 74.610395 
L 50.61024 72.730599 
L 52.13588 72.115241 
L 53.66152 73.264271 
L 55.18716 74.081822 
L 56.7128 74.090279 
L 58.23844 76.160448 
L 59.76408 75.885285 
L 61.28972 75.351064 
L 62.81536 75.361159 
L 64.341 76.495949 
L 65.86664 77.103151 
L 67.39228 77.142844 
L 68.91792 77.062671 
L 70.44356 77.103294 
L 71.9692 77.46139 
L 75.02048 77.466251 
L 76.54612 77.689552 
L 78.07176 78.899631 
L 81.12304 78.664044 
L 82.64868 78.759054 
L 88.75124 78.692739 
L 90.27688 77.826104 
L 91.80252 77.755774 
L 93.32816 78.29743 
L 94.8538 78.155628 
L 96.37944 78.241936 
L 97.90508 78.139948 
L 99.43072 77.503029 
L 100.95636 76.491068 
L 102.482 76.695286 
L 104.00764 76.424985 
L 105.53328 76.48744 
L 107.05892 75.667491 
L 110.1102 75.607416 
L 111.63584 74.424073 
L 113.16148 74.988491 
L 116.21276 74.910885 
L 117.7384 75.332021 
L 119.26404 75.473077 
L 120.78968 76.111417 
L 122.31532 75.771887 
L 123.84096 75.76257 
L 125.3666 74.570373 
L 126.89224 74.535933 
L 128.41788 74.288682 
L 129.94352 74.285652 
L 131.46916 74.396716 
L 132.9948 74.312209 
L 134.52044 74.543991 
L 139.09736 74.643725 
L 140.623 74.445026 
L 152.82812 74.533815 
L 154.35376 74.789447 
L 155.8794 74.738276 
L 157.40504 74.884903 
L 158.93068 74.891361 
L 160.45632 74.772313 
L 161.98196 74.917796 
L 163.5076 74.831948 
L 165.03324 75.079539 
L 166.55888 75.523526 
L 168.08452 75.085419 
L 169.61016 76.060365 
L 172.66144 76.026102 
L 174.18708 76.199848 
L 178.764 77.030082 
L 180.28964 76.853561 
L 181.81528 76.850178 
L 183.34092 76.633315 
L 184.86656 77.057158 
L 187.91784 76.956531 
L 189.44348 77.121631 
L 190.96912 76.968779 
L 197.07168 76.962542 
L 198.59732 77.232505 
L 216.905 77.516724 
L 218.43064 77.623623 
L 219.95628 77.035565 
L 223.00756 77.047985 
L 224.5332 77.161728 
L 226.05884 76.411945 
L 229.11012 76.219077 
L 230.63576 76.205111 
L 232.1614 75.970922 
L 233.68704 75.973444 
L 235.21268 76.323386 
L 238.26396 76.076435 
L 239.7896 76.30665 
L 241.31524 76.422173 
L 242.84088 76.362189 
L 244.36652 76.551275 
L 247.4178 76.544558 
L 248.94344 76.254649 
L 250.46908 75.794569 
L 251.99472 75.609023 
L 262.6742 75.60334 
L 264.19984 75.466908 
L 265.72548 75.520885 
L 267.25112 75.437298 
L 268.77676 75.228154 
L 270.3024 74.749752 
L 271.82804 74.792887 
L 273.35368 75.124633 
L 277.9306 74.960003 
L 282.50752 75.102509 
L 285.5588 75.177599 
L 294.71264 75.408651 
L 296.23828 75.11965 
L 297.76392 75.291025 
L 303.86648 75.255835 
L 305.39212 75.329334 
L 306.91776 75.289069 
L 308.4434 75.48981 
L 309.96904 75.424305 
L 313.02032 75.597206 
L 314.54596 75.40897 
L 316.0716 75.516922 
L 320.64852 75.511484 
L 325.22544 75.750381 
L 326.75108 75.777283 
L 329.80236 75.632142 
L 329.80236 75.632142 
" style="fill:none;stroke:#bc80bd;stroke-linecap:square;stroke-width:2;"/>
   </g>
   <g id="patch_3">
    <path d="M 26.2 134.738125 
L 26.2 24.1275 
" style="fill:none;stroke:#000000;stroke-linecap:square;stroke-linejoin:miter;stroke-width:0.6;"/>
   </g>
   <g id="patch_4">
    <path d="M 26.2 134.738125 
L 407.61 134.738125 
" style="fill:none;stroke:#000000;stroke-linecap:square;stroke-linejoin:miter;stroke-width:0.6;"/>
   </g>
   <g id="text_6">
    <!-- Coefficient value -->
    <g style="fill:#323034;" transform="translate(26.2 18.1275)scale(0.16 -0.16)">
     <defs>
      <path d="M 3930 838 
L 4051 723 
Q 3482 -90 2304 -90 
Q 1376 -90 794 480 
Q 179 1082 179 2080 
Q 179 3014 755 3661 
Q 1357 4326 2310 4326 
Q 2720 4326 3072 4230 
Q 3475 4115 3514 4115 
Q 3725 4115 3782 4326 
L 3910 4326 
L 3968 2874 
L 3821 2874 
Q 3718 3334 3488 3584 
Q 3034 4070 2458 4070 
Q 1747 4070 1334 3548 
Q 922 3027 922 2182 
Q 922 1152 1382 653 
Q 1811 192 2522 192 
Q 2944 192 3251 339 
Q 3558 486 3930 838 
z
" id="STIXGeneral-Regular-43" transform="scale(0.015625)"/>
      <path d="M 3008 1478 
Q 3008 806 2608 371 
Q 2208 -64 1568 -64 
Q 979 -64 582 368 
Q 186 800 186 1459 
Q 186 2125 582 2534 
Q 979 2944 1626 2944 
Q 2221 2944 2614 2537 
Q 3008 2131 3008 1478 
z
M 2432 1306 
Q 2432 2035 2112 2445 
Q 1856 2765 1504 2765 
Q 1171 2765 966 2493 
Q 762 2221 762 1747 
Q 762 928 1101 435 
Q 1318 115 1677 115 
Q 2029 115 2230 432 
Q 2432 749 2432 1306 
z
" id="STIXGeneral-Regular-6f" transform="scale(0.015625)"/>
      <path d="M 2611 1050 
L 2714 1005 
Q 2330 -64 1376 -64 
Q 813 -64 486 329 
Q 160 723 160 1389 
Q 160 2074 525 2509 
Q 890 2944 1485 2944 
Q 2061 2944 2374 2502 
Q 2560 2246 2592 1773 
L 621 1773 
Q 646 1370 700 1158 
Q 755 947 915 730 
Q 1184 378 1626 378 
Q 1939 378 2153 531 
Q 2368 685 2611 1050 
z
M 634 1978 
L 1939 1978 
Q 1882 2381 1750 2547 
Q 1619 2714 1312 2714 
Q 1043 2714 864 2525 
Q 685 2336 634 1978 
z
" id="STIXGeneral-Regular-65" transform="scale(0.015625)"/>
      <path d="M 134 2880 
L 659 2880 
Q 666 3264 710 3478 
Q 755 3693 883 3910 
Q 1152 4371 1786 4371 
Q 2074 4371 2262 4259 
Q 2451 4147 2451 3974 
Q 2451 3866 2374 3789 
Q 2298 3712 2182 3712 
Q 2029 3712 1894 3942 
Q 1741 4192 1555 4192 
Q 1197 4192 1197 3622 
L 1197 2880 
L 1978 2880 
L 1978 2675 
L 1197 2675 
L 1197 666 
Q 1197 307 1299 208 
Q 1402 109 1792 96 
L 1792 0 
L 128 0 
L 128 96 
Q 474 115 566 214 
Q 659 314 659 666 
L 659 2675 
L 134 2675 
L 134 2880 
z
" id="STIXGeneral-Regular-66" transform="scale(0.015625)"/>
      <path d="M 1152 4045 
Q 1152 3904 1056 3811 
Q 960 3718 819 3718 
Q 685 3718 592 3811 
Q 499 3904 499 4045 
Q 499 4179 595 4275 
Q 691 4371 826 4371 
Q 966 4371 1059 4275 
Q 1152 4179 1152 4045 
z
M 1619 0 
L 102 0 
L 102 96 
Q 435 115 521 211 
Q 608 307 608 666 
L 608 2118 
Q 608 2342 563 2432 
Q 518 2522 397 2522 
Q 243 2522 128 2490 
L 128 2592 
L 1120 2944 
L 1146 2918 
L 1146 672 
Q 1146 314 1226 218 
Q 1306 122 1619 96 
L 1619 0 
z
" id="STIXGeneral-Regular-69" transform="scale(0.015625)"/>
      <path d="M 2547 998 
L 2637 941 
Q 2362 403 2112 205 
Q 1786 -64 1376 -64 
Q 845 -64 502 336 
Q 160 736 160 1357 
Q 160 2170 698 2618 
Q 1094 2944 1562 2944 
Q 1965 2944 2256 2749 
Q 2547 2554 2547 2285 
Q 2547 2176 2457 2096 
Q 2368 2016 2246 2016 
Q 2022 2016 1939 2310 
L 1901 2451 
Q 1850 2630 1773 2694 
Q 1696 2758 1523 2758 
Q 1133 2758 893 2451 
Q 653 2144 653 1645 
Q 653 1094 928 745 
Q 1203 397 1645 397 
Q 1920 397 2118 528 
Q 2317 659 2547 998 
z
" id="STIXGeneral-Regular-63" transform="scale(0.015625)"/>
      <path d="M 3104 0 
L 1773 0 
L 1779 96 
Q 2016 115 2096 233 
Q 2176 352 2176 672 
L 2176 1946 
Q 2176 2592 1709 2592 
Q 1549 2592 1408 2515 
Q 1267 2438 1050 2227 
L 1050 461 
Q 1050 269 1136 192 
Q 1222 115 1466 96 
L 1466 0 
L 115 0 
L 115 96 
Q 358 115 435 214 
Q 512 314 512 602 
L 512 2157 
Q 512 2394 467 2483 
Q 422 2573 288 2573 
Q 160 2573 102 2547 
L 102 2656 
Q 550 2784 979 2944 
L 1030 2925 
L 1030 2426 
L 1037 2426 
Q 1491 2944 1958 2944 
Q 2323 2944 2518 2688 
Q 2714 2432 2714 1958 
L 2714 544 
Q 2714 288 2790 205 
Q 2867 122 3104 96 
L 3104 0 
z
" id="STIXGeneral-Regular-6e" transform="scale(0.015625)"/>
      <path d="M 1702 493 
L 1786 422 
Q 1478 -64 1011 -64 
Q 448 -64 448 749 
L 448 2675 
L 109 2675 
Q 83 2694 83 2720 
Q 83 2771 192 2842 
Q 435 2982 813 3526 
Q 826 3546 874 3606 
Q 922 3667 941 3706 
Q 986 3706 986 3622 
L 986 2880 
L 1632 2880 
L 1632 2675 
L 986 2675 
L 986 845 
Q 986 538 1062 403 
Q 1139 269 1318 269 
Q 1510 269 1702 493 
z
" id="STIXGeneral-Regular-74" transform="scale(0.015625)"/>
      <path id="STIXGeneral-Regular-20" transform="scale(0.015625)"/>
      <path d="M 3053 2880 
L 3053 2784 
Q 2906 2771 2835 2688 
Q 2765 2605 2637 2285 
L 1818 230 
Q 1690 -90 1638 -90 
Q 1587 -90 1523 77 
Q 1510 96 1497 141 
Q 1485 186 1472 211 
L 704 2048 
Q 499 2534 403 2652 
Q 307 2771 122 2784 
L 122 2880 
L 1376 2880 
L 1376 2784 
Q 1210 2771 1146 2732 
Q 1082 2694 1082 2611 
Q 1082 2509 1139 2368 
L 1792 730 
L 2426 2387 
Q 2464 2483 2464 2579 
Q 2464 2758 2163 2784 
L 2163 2880 
L 3053 2880 
z
" id="STIXGeneral-Regular-76" transform="scale(0.015625)"/>
      <path d="M 2829 422 
L 2829 243 
Q 2586 -64 2253 -64 
Q 1888 -64 1843 403 
L 1837 403 
Q 1427 -64 909 -64 
Q 608 -64 422 112 
Q 237 288 237 602 
Q 237 1050 685 1350 
Q 992 1555 1837 1869 
L 1837 2214 
Q 1837 2502 1699 2646 
Q 1562 2790 1338 2790 
Q 1146 2790 1018 2697 
Q 890 2605 890 2477 
Q 890 2419 909 2348 
Q 928 2278 928 2208 
Q 928 2112 841 2029 
Q 755 1946 634 1946 
Q 525 1946 441 2029 
Q 358 2112 358 2240 
Q 358 2547 685 2752 
Q 986 2944 1421 2944 
Q 1939 2944 2176 2656 
Q 2291 2522 2323 2384 
Q 2355 2246 2355 1946 
L 2355 723 
Q 2355 301 2554 301 
Q 2682 301 2829 422 
z
M 1837 813 
L 1837 1715 
Q 1248 1510 1018 1293 
Q 800 1094 800 800 
Q 800 557 921 432 
Q 1043 307 1242 307 
Q 1453 307 1613 410 
Q 1747 506 1792 589 
Q 1837 672 1837 813 
z
" id="STIXGeneral-Regular-61" transform="scale(0.015625)"/>
      <path d="M 1645 0 
L 134 0 
L 134 96 
Q 435 122 531 221 
Q 627 320 627 589 
L 627 3590 
Q 627 3821 569 3910 
Q 512 4000 358 4000 
Q 224 4000 122 3987 
L 122 4090 
Q 730 4237 1133 4371 
L 1165 4346 
L 1165 557 
Q 1165 288 1254 201 
Q 1344 115 1645 96 
L 1645 0 
z
" id="STIXGeneral-Regular-6c" transform="scale(0.015625)"/>
      <path d="M 3072 320 
L 3072 230 
Q 2573 96 2195 -58 
L 2163 -38 
L 2163 486 
L 2150 486 
Q 1747 -64 1235 -64 
Q 870 -64 662 160 
Q 454 384 454 755 
L 454 2362 
Q 454 2598 371 2688 
Q 288 2778 58 2790 
L 58 2880 
L 992 2880 
L 992 813 
Q 992 595 1123 451 
Q 1254 307 1446 307 
Q 1760 307 1984 506 
Q 2067 582 2099 649 
Q 2131 717 2131 877 
L 2131 2355 
Q 2131 2605 2041 2678 
Q 1952 2752 1658 2771 
L 1658 2880 
L 2669 2880 
L 2669 685 
Q 2669 461 2742 390 
Q 2816 320 3034 320 
L 3072 320 
z
" id="STIXGeneral-Regular-75" transform="scale(0.015625)"/>
     </defs>
     <use xlink:href="#STIXGeneral-Regular-43"/>
     <use x="66.699997" xlink:href="#STIXGeneral-Regular-6f"/>
     <use x="116.699982" xlink:href="#STIXGeneral-Regular-65"/>
     <use x="161.099976" xlink:href="#STIXGeneral-Regular-66"/>
     <use x="194.399963" xlink:href="#STIXGeneral-Regular-66"/>
     <use x="227.699951" xlink:href="#STIXGeneral-Regular-69"/>
     <use x="255.499939" xlink:href="#STIXGeneral-Regular-63"/>
     <use x="299.899933" xlink:href="#STIXGeneral-Regular-69"/>
     <use x="327.699921" xlink:href="#STIXGeneral-Regular-65"/>
     <use x="372.099915" xlink:href="#STIXGeneral-Regular-6e"/>
     <use x="422.099899" xlink:href="#STIXGeneral-Regular-74"/>
     <use x="449.899887" xlink:href="#STIXGeneral-Regular-20"/>
     <use x="474.899872" xlink:href="#STIXGeneral-Regular-76"/>
     <use x="524.899857" xlink:href="#STIXGeneral-Regular-61"/>
     <use x="569.29985" xlink:href="#STIXGeneral-Regular-6c"/>
     <use x="597.099838" xlink:href="#STIXGeneral-Regular-75"/>
     <use x="647.099823" xlink:href="#STIXGeneral-Regular-65"/>
    </g>
   </g>
   <g id="legend_1">
    <g id="patch_5">
     <path d="M 254.855313 55.468125 
L 400.61 55.468125 
Q 402.61 55.468125 402.61 53.468125 
L 402.61 31.1275 
Q 402.61 29.1275 400.61 29.1275 
L 254.855313 29.1275 
Q 252.855313 29.1275 252.855313 31.1275 
L 252.855313 53.468125 
Q 252.855313 55.468125 254.855313 55.468125 
z
" style="fill:#ffffff;opacity:0.8;stroke:#e6e6e6;stroke-linejoin:miter;stroke-width:0.8;"/>
    </g>
    <g id="line2d_13">
     <path d="M 254.855313 34.6275 
L 274.855313 34.6275 
" style="fill:none;stroke:#bc80bd;stroke-linecap:square;stroke-width:2;"/>
    </g>
    <g id="line2d_14"/>
    <g id="text_7">
     <!-- Recursive estimates: feature0 -->
     <g style="fill:#323034;" transform="translate(282.855313 38.1275)scale(0.1 -0.1)">
      <defs>
       <path d="M 4224 0 
L 3187 0 
L 1664 1971 
L 1306 1958 
L 1306 717 
Q 1306 352 1405 249 
Q 1504 147 1875 122 
L 1875 0 
L 109 0 
L 109 122 
Q 474 154 563 262 
Q 653 371 653 794 
L 653 3526 
Q 653 3885 563 3987 
Q 474 4090 109 4115 
L 109 4237 
L 1850 4237 
Q 2726 4237 3187 3859 
Q 3501 3603 3501 3091 
Q 3501 2221 2342 2042 
L 3622 422 
Q 3757 256 3878 198 
Q 4000 141 4224 122 
L 4224 0 
z
M 1306 3731 
L 1306 2195 
Q 1766 2202 1990 2246 
Q 2214 2291 2438 2413 
Q 2803 2618 2803 3142 
Q 2803 4000 1632 4000 
Q 1459 4000 1382 3945 
Q 1306 3891 1306 3731 
z
" id="STIXGeneral-Regular-52" transform="scale(0.015625)"/>
       <path d="M 1024 2931 
L 1024 2342 
Q 1267 2688 1430 2816 
Q 1594 2944 1792 2944 
Q 1958 2944 2051 2854 
Q 2144 2765 2144 2605 
Q 2144 2470 2077 2393 
Q 2010 2317 1894 2317 
Q 1773 2317 1638 2445 
Q 1536 2541 1472 2541 
Q 1338 2541 1181 2355 
Q 1024 2170 1024 2016 
L 1024 576 
Q 1024 301 1133 205 
Q 1242 109 1568 96 
L 1568 0 
L 32 0 
L 32 96 
Q 339 154 412 224 
Q 486 294 486 538 
L 486 2138 
Q 486 2349 438 2435 
Q 390 2522 269 2522 
Q 166 2522 45 2496 
L 45 2598 
Q 448 2726 992 2944 
L 1024 2931 
z
" id="STIXGeneral-Regular-72" transform="scale(0.015625)"/>
       <path d="M 998 1926 
L 1664 1523 
Q 1984 1331 2105 1164 
Q 2227 998 2227 736 
Q 2227 416 1961 176 
Q 1696 -64 1331 -64 
Q 1030 -64 864 -6 
Q 691 51 570 51 
Q 461 51 416 -26 
L 333 -26 
L 333 979 
L 435 979 
Q 538 512 730 294 
Q 922 77 1248 77 
Q 1485 77 1632 211 
Q 1779 346 1779 550 
Q 1779 845 1440 1030 
L 1094 1222 
Q 326 1651 326 2150 
Q 326 2522 566 2730 
Q 806 2938 1210 2938 
Q 1491 2938 1638 2867 
Q 1754 2816 1818 2816 
Q 1862 2816 1920 2880 
L 1990 2880 
L 2022 2010 
L 1926 2010 
Q 1818 2445 1654 2621 
Q 1491 2797 1203 2797 
Q 986 2797 854 2688 
Q 723 2579 723 2362 
Q 723 2253 796 2128 
Q 870 2003 998 1926 
z
" id="STIXGeneral-Regular-73" transform="scale(0.015625)"/>
       <path d="M 4960 0 
L 3565 0 
L 3565 96 
Q 3834 122 3907 208 
Q 3981 294 3981 576 
L 3981 1894 
Q 3981 2278 3869 2444 
Q 3757 2611 3488 2611 
Q 3264 2611 3107 2521 
Q 2950 2432 2803 2221 
L 2803 608 
Q 2803 301 2896 201 
Q 2989 102 3264 96 
L 3264 0 
L 1830 0 
L 1830 96 
Q 2112 115 2189 188 
Q 2266 262 2266 550 
L 2266 1901 
Q 2266 2611 1850 2611 
Q 1670 2611 1468 2531 
Q 1267 2451 1171 2336 
Q 1088 2240 1088 2227 
L 1088 448 
Q 1088 243 1177 176 
Q 1267 109 1523 96 
L 1523 0 
L 102 0 
L 102 96 
Q 371 102 460 195 
Q 550 288 550 563 
L 550 2150 
Q 550 2387 499 2480 
Q 448 2573 326 2573 
Q 230 2573 122 2547 
L 122 2656 
Q 557 2778 1011 2944 
L 1062 2925 
L 1062 2451 
L 1075 2451 
Q 1363 2752 1584 2848 
Q 1805 2944 2054 2944 
Q 2560 2944 2733 2406 
Q 3232 2944 3776 2944 
Q 4518 2944 4518 1792 
L 4518 493 
Q 4518 282 4582 202 
Q 4646 122 4794 109 
L 4960 96 
L 4960 0 
z
" id="STIXGeneral-Regular-6d" transform="scale(0.015625)"/>
       <path d="M 1123 2832 
Q 1229 2726 1229 2579 
Q 1229 2432 1126 2329 
Q 1024 2227 877 2227 
Q 730 2227 624 2332 
Q 518 2438 518 2579 
Q 518 2733 620 2835 
Q 723 2938 877 2938 
Q 1018 2938 1123 2832 
z
M 1229 282 
Q 1229 141 1126 35 
Q 1024 -70 877 -70 
Q 730 -70 624 35 
Q 518 141 518 282 
Q 518 435 620 537 
Q 723 640 877 640 
Q 1018 640 1123 534 
Q 1229 429 1229 282 
z
" id="STIXGeneral-Regular-3a" transform="scale(0.015625)"/>
      </defs>
      <use xlink:href="#STIXGeneral-Regular-52"/>
      <use x="66.699997" xlink:href="#STIXGeneral-Regular-65"/>
      <use x="111.099991" xlink:href="#STIXGeneral-Regular-63"/>
      <use x="155.499985" xlink:href="#STIXGeneral-Regular-75"/>
      <use x="205.499969" xlink:href="#STIXGeneral-Regular-72"/>
      <use x="238.799957" xlink:href="#STIXGeneral-Regular-73"/>
      <use x="277.699951" xlink:href="#STIXGeneral-Regular-69"/>
      <use x="305.499939" xlink:href="#STIXGeneral-Regular-76"/>
      <use x="355.499924" xlink:href="#STIXGeneral-Regular-65"/>
      <use x="399.899918" xlink:href="#STIXGeneral-Regular-20"/>
      <use x="424.899902" xlink:href="#STIXGeneral-Regular-65"/>
      <use x="469.299896" xlink:href="#STIXGeneral-Regular-73"/>
      <use x="508.19989" xlink:href="#STIXGeneral-Regular-74"/>
      <use x="535.999878" xlink:href="#STIXGeneral-Regular-69"/>
      <use x="563.799866" xlink:href="#STIXGeneral-Regular-6d"/>
      <use x="641.599854" xlink:href="#STIXGeneral-Regular-61"/>
      <use x="685.999847" xlink:href="#STIXGeneral-Regular-74"/>
      <use x="713.799835" xlink:href="#STIXGeneral-Regular-65"/>
      <use x="758.199829" xlink:href="#STIXGeneral-Regular-73"/>
      <use x="797.099823" xlink:href="#STIXGeneral-Regular-3a"/>
      <use x="824.899811" xlink:href="#STIXGeneral-Regular-20"/>
      <use x="849.899796" xlink:href="#STIXGeneral-Regular-66"/>
      <use x="883.199783" xlink:href="#STIXGeneral-Regular-65"/>
      <use x="927.599777" xlink:href="#STIXGeneral-Regular-61"/>
      <use x="971.999771" xlink:href="#STIXGeneral-Regular-74"/>
      <use x="999.799759" xlink:href="#STIXGeneral-Regular-75"/>
      <use x="1049.799744" xlink:href="#STIXGeneral-Regular-72"/>
      <use x="1083.099731" xlink:href="#STIXGeneral-Regular-65"/>
      <use x="1127.499725" xlink:href="#STIXGeneral-Regular-30"/>
     </g>
    </g>
    <g id="patch_6">
     <path d="M 254.855313 51.297812 
L 274.855313 51.297812 
L 274.855313 44.297812 
L 254.855313 44.297812 
z
" style="fill:#bc80bd;fill-opacity:0.2;stroke:#000000;stroke-linejoin:miter;stroke-width:0.8;"/>
    </g>
    <g id="text_8">
     <!-- $95 \%$ confidence interval -->
     <g style="fill:#323034;" transform="translate(282.855313 51.297812)scale(0.1 -0.1)">
      <defs>
       <path d="M 378 -141 
L 358 -13 
Q 1094 115 1603 608 
Q 2112 1101 2304 1882 
Q 1933 1517 1344 1517 
Q 826 1517 509 1875 
Q 192 2234 192 2816 
Q 192 3462 573 3894 
Q 954 4326 1523 4326 
Q 2131 4326 2528 3840 
Q 2938 3328 2938 2522 
Q 2938 1958 2742 1462 
Q 2547 966 2170 621 
Q 1773 262 1395 105 
Q 1018 -51 378 -141 
z
M 2317 2272 
L 2317 2522 
Q 2317 4147 1472 4147 
Q 1171 4147 1005 3930 
Q 909 3802 845 3546 
Q 781 3290 781 3034 
Q 781 2464 995 2128 
Q 1210 1792 1568 1792 
Q 1824 1792 2070 1917 
Q 2317 2042 2317 2272 
z
" id="STIXGeneral-Regular-39" transform="scale(0.015625)"/>
       <path d="M 4390 1363 
Q 4390 781 4070 329 
Q 3750 -122 3341 -122 
Q 3014 -122 2790 134 
Q 2566 390 2566 762 
Q 2566 1274 2940 1693 
Q 3315 2112 3776 2112 
Q 4070 2112 4230 1917 
Q 4390 1722 4390 1363 
z
M 4243 1376 
Q 4243 1626 4131 1779 
Q 4019 1933 3840 1933 
Q 3654 1933 3526 1786 
Q 3315 1562 3171 1187 
Q 3027 813 3027 486 
Q 3027 301 3129 176 
Q 3232 51 3386 51 
Q 3718 51 3980 457 
Q 4243 864 4243 1376 
z
M 3974 4518 
L 1222 -115 
L 922 -115 
L 3443 4096 
Q 3264 3891 3094 3811 
Q 2925 3731 2669 3731 
Q 2445 3731 2182 3821 
Q 2208 3674 2208 3539 
Q 2208 3206 2067 2873 
Q 1926 2541 1696 2323 
Q 1453 2086 1146 2086 
Q 826 2086 608 2339 
Q 390 2592 390 2963 
Q 390 3507 761 3916 
Q 1133 4326 1626 4326 
Q 1792 4326 2010 4147 
Q 2310 3898 2624 3898 
Q 2918 3898 3084 3994 
Q 3251 4090 3693 4518 
L 3974 4518 
z
M 2054 3642 
Q 2054 3782 2025 3833 
Q 1997 3885 1894 3936 
Q 1747 4006 1613 4154 
Q 1414 4058 1331 3984 
Q 1248 3910 1152 3750 
Q 845 3264 845 2707 
Q 845 2509 944 2384 
Q 1043 2259 1210 2259 
Q 1549 2259 1801 2675 
Q 2054 3091 2054 3642 
z
" id="STIXGeneral-Regular-25" transform="scale(0.015625)"/>
       <path d="M 3142 269 
L 2202 -64 
L 2176 -45 
L 2176 365 
Q 1869 -64 1357 -64 
Q 826 -64 499 317 
Q 173 698 173 1312 
Q 173 1990 563 2467 
Q 954 2944 1504 2944 
Q 1850 2944 2176 2669 
L 2176 3667 
Q 2176 3866 2118 3930 
Q 2061 3994 1882 3994 
Q 1792 3994 1741 3987 
L 1741 4090 
Q 2323 4243 2682 4371 
L 2714 4358 
L 2714 730 
Q 2714 506 2768 435 
Q 2822 365 2995 365 
Q 3034 365 3142 371 
L 3142 269 
z
M 2176 653 
L 2176 2125 
Q 2176 2381 1981 2573 
Q 1786 2765 1523 2765 
Q 1158 2765 940 2438 
Q 723 2112 723 1568 
Q 723 979 963 624 
Q 1203 269 1606 269 
Q 1907 269 2080 474 
Q 2176 582 2176 653 
z
" id="STIXGeneral-Regular-64" transform="scale(0.015625)"/>
      </defs>
      <use transform="translate(0 0.40625)" xlink:href="#STIXGeneral-Regular-39"/>
      <use transform="translate(49.999985 0.40625)" xlink:href="#STIXGeneral-Regular-35"/>
      <use transform="translate(99.999969 0.40625)" xlink:href="#STIXGeneral-Regular-25"/>
      <use transform="translate(174.699951 0.40625)" xlink:href="#STIXGeneral-Regular-20"/>
      <use transform="translate(199.699936 0.40625)" xlink:href="#STIXGeneral-Regular-63"/>
      <use transform="translate(244.09993 0.40625)" xlink:href="#STIXGeneral-Regular-6f"/>
      <use transform="translate(294.099915 0.40625)" xlink:href="#STIXGeneral-Regular-6e"/>
      <use transform="translate(344.099899 0.40625)" xlink:href="#STIXGeneral-Regular-66"/>
      <use transform="translate(377.399887 0.40625)" xlink:href="#STIXGeneral-Regular-69"/>
      <use transform="translate(405.199875 0.40625)" xlink:href="#STIXGeneral-Regular-64"/>
      <use transform="translate(455.19986 0.40625)" xlink:href="#STIXGeneral-Regular-65"/>
      <use transform="translate(499.599854 0.40625)" xlink:href="#STIXGeneral-Regular-6e"/>
      <use transform="translate(549.599838 0.40625)" xlink:href="#STIXGeneral-Regular-63"/>
      <use transform="translate(593.999832 0.40625)" xlink:href="#STIXGeneral-Regular-65"/>
      <use transform="translate(638.399826 0.40625)" xlink:href="#STIXGeneral-Regular-20"/>
      <use transform="translate(663.399811 0.40625)" xlink:href="#STIXGeneral-Regular-69"/>
      <use transform="translate(691.199799 0.40625)" xlink:href="#STIXGeneral-Regular-6e"/>
      <use transform="translate(741.199783 0.40625)" xlink:href="#STIXGeneral-Regular-74"/>
      <use transform="translate(768.999771 0.40625)" xlink:href="#STIXGeneral-Regular-65"/>
      <use transform="translate(813.399765 0.40625)" xlink:href="#STIXGeneral-Regular-72"/>
      <use transform="translate(846.699753 0.40625)" xlink:href="#STIXGeneral-Regular-76"/>
      <use transform="translate(896.699738 0.40625)" xlink:href="#STIXGeneral-Regular-61"/>
      <use transform="translate(941.099731 0.40625)" xlink:href="#STIXGeneral-Regular-6c"/>
     </g>
    </g>
   </g>
  </g>
  <g id="axes_2">
   <g id="patch_7">
    <path d="M 26.2 267.67625 
L 407.61 267.67625 
L 407.61 157.065625 
L 26.2 157.065625 
z
" style="fill:#ffffff;"/>
   </g>
   <g id="PolyCollection_2">
    <defs>
     <path d="M 29.25128 -124.49297 
L 29.25128 -62.275755 
L 30.77692 -46.946635 
L 32.30256 -48.462486 
L 33.8282 -49.022338 
L 35.35384 -51.390238 
L 36.87948 -50.722477 
L 38.40512 -49.902248 
L 39.93076 -49.397854 
L 41.4564 -49.788816 
L 42.98204 -53.313528 
L 44.50768 -53.934918 
L 46.03332 -61.879623 
L 47.55896 -55.589492 
L 49.0846 -55.615341 
L 50.61024 -56.844257 
L 52.13588 -57.013407 
L 53.66152 -57.823849 
L 55.18716 -59.621172 
L 56.7128 -59.672824 
L 58.23844 -58.549973 
L 59.76408 -58.601656 
L 61.28972 -59.168465 
L 62.81536 -59.072697 
L 64.341 -58.744522 
L 65.86664 -58.842359 
L 67.39228 -59.746191 
L 68.91792 -59.659302 
L 70.44356 -59.68019 
L 71.9692 -59.168055 
L 73.49484 -59.283152 
L 75.02048 -59.285814 
L 76.54612 -59.46368 
L 78.07176 -58.4268 
L 79.5974 -58.434935 
L 81.12304 -58.689713 
L 82.64868 -58.263032 
L 84.17432 -58.30313 
L 85.69996 -58.489366 
L 87.2256 -58.087191 
L 88.75124 -58.101172 
L 90.27688 -56.540061 
L 91.80252 -56.526339 
L 93.32816 -58.725727 
L 94.8538 -59.403017 
L 96.37944 -59.210964 
L 97.90508 -59.013006 
L 99.43072 -58.99085 
L 100.95636 -60.148428 
L 102.482 -60.080603 
L 104.00764 -59.591743 
L 105.53328 -59.65063 
L 107.05892 -59.806115 
L 108.58456 -59.84401 
L 110.1102 -59.936753 
L 111.63584 -59.530304 
L 113.16148 -59.313838 
L 114.68712 -59.408792 
L 116.21276 -59.473121 
L 117.7384 -58.44014 
L 119.26404 -58.479186 
L 120.78968 -58.307234 
L 122.31532 -58.82019 
L 123.84096 -58.829204 
L 125.3666 -59.191358 
L 126.89224 -59.016926 
L 128.41788 -59.270319 
L 129.94352 -59.2834 
L 131.46916 -59.27839 
L 132.9948 -59.260836 
L 134.52044 -58.83384 
L 136.04608 -58.704858 
L 137.57172 -58.753885 
L 139.09736 -58.728381 
L 140.623 -58.603721 
L 142.14864 -58.606298 
L 143.67428 -58.705834 
L 145.19992 -58.666219 
L 146.72556 -58.718366 
L 148.2512 -58.692919 
L 149.77684 -58.715849 
L 151.30248 -58.884261 
L 152.82812 -58.892487 
L 154.35376 -58.912614 
L 155.8794 -59.074407 
L 157.40504 -59.009081 
L 158.93068 -58.924759 
L 160.45632 -58.95193 
L 161.98196 -59.055908 
L 163.5076 -59.030664 
L 165.03324 -58.802075 
L 166.55888 -58.676736 
L 168.08452 -58.61354 
L 169.61016 -59.183427 
L 171.1358 -59.361932 
L 172.66144 -59.330286 
L 174.18708 -59.251826 
L 175.71272 -58.591635 
L 177.23836 -58.592874 
L 178.764 -58.627292 
L 180.28964 -58.667122 
L 181.81528 -58.683308 
L 183.34092 -58.480055 
L 184.86656 -58.394009 
L 186.3922 -58.368278 
L 187.91784 -58.033765 
L 189.44348 -58.418961 
L 190.96912 -58.771635 
L 192.49476 -58.780187 
L 194.0204 -58.777958 
L 195.54604 -58.827114 
L 197.07168 -58.806544 
L 198.59732 -58.910095 
L 200.12296 -58.864609 
L 201.6486 -58.906751 
L 203.17424 -58.877243 
L 204.69988 -58.787558 
L 206.22552 -58.793233 
L 207.75116 -58.77061 
L 209.2768 -58.892414 
L 210.80244 -58.887712 
L 212.32808 -59.000502 
L 213.85372 -59.04218 
L 215.37936 -59.01302 
L 216.905 -58.996984 
L 218.43064 -58.949944 
L 219.95628 -58.438614 
L 221.48192 -58.470446 
L 223.00756 -58.482683 
L 224.5332 -58.266349 
L 226.05884 -57.773462 
L 227.58448 -57.695568 
L 229.11012 -57.585779 
L 230.63576 -57.645691 
L 232.1614 -58.195006 
L 233.68704 -58.194813 
L 235.21268 -58.467265 
L 236.73832 -58.211968 
L 238.26396 -58.067616 
L 239.7896 -57.995054 
L 241.31524 -57.905117 
L 242.84088 -57.803813 
L 244.36652 -57.880414 
L 245.89216 -57.958012 
L 247.4178 -58.020425 
L 248.94344 -57.370268 
L 250.46908 -57.346975 
L 251.99472 -57.386035 
L 253.52036 -57.397736 
L 255.046 -57.219599 
L 256.57164 -57.211331 
L 258.09728 -57.194538 
L 259.62292 -57.156035 
L 261.14856 -57.034522 
L 262.6742 -57.266696 
L 264.19984 -57.127094 
L 265.72548 -57.243792 
L 267.25112 -57.3342 
L 268.77676 -57.472213 
L 270.3024 -57.580398 
L 271.82804 -57.717478 
L 273.35368 -57.776632 
L 274.87932 -57.759309 
L 276.40496 -57.776679 
L 277.9306 -57.686515 
L 279.45624 -57.754165 
L 280.98188 -57.773338 
L 282.50752 -57.656346 
L 284.03316 -57.658861 
L 285.5588 -57.815889 
L 287.08444 -57.735795 
L 288.61008 -57.73009 
L 290.13572 -57.785817 
L 291.66136 -57.782771 
L 293.187 -57.74729 
L 294.71264 -57.567984 
L 296.23828 -57.539078 
L 297.76392 -57.316074 
L 299.28956 -57.312919 
L 300.8152 -57.312259 
L 302.34084 -57.377749 
L 303.86648 -57.372389 
L 305.39212 -57.407952 
L 306.91776 -57.371967 
L 308.4434 -57.41903 
L 309.96904 -57.468782 
L 311.49468 -57.579493 
L 313.02032 -57.609824 
L 314.54596 -57.773311 
L 316.0716 -57.932876 
L 317.59724 -57.889414 
L 319.12288 -58.052028 
L 320.64852 -58.125331 
L 322.17416 -58.1104 
L 323.6998 -58.041825 
L 325.22544 -57.930636 
L 326.75108 -58.031415 
L 328.27672 -58.096131 
L 329.80236 -58.01258 
L 329.80236 -64.555627 
L 329.80236 -64.555627 
L 328.27672 -64.678694 
L 326.75108 -64.616594 
L 325.22544 -64.560562 
L 323.6998 -64.694316 
L 322.17416 -64.76439 
L 320.64852 -64.7803 
L 319.12288 -64.728246 
L 317.59724 -64.708317 
L 316.0716 -64.758856 
L 314.54596 -64.62244 
L 313.02032 -64.463854 
L 311.49468 -64.436695 
L 309.96904 -64.399828 
L 308.4434 -64.365548 
L 306.91776 -64.318939 
L 305.39212 -64.384549 
L 303.86648 -64.349476 
L 302.34084 -64.363473 
L 300.8152 -64.314188 
L 299.28956 -64.314903 
L 297.76392 -64.321313 
L 296.23828 -64.571704 
L 294.71264 -64.601386 
L 293.187 -64.821209 
L 291.66136 -64.857934 
L 290.13572 -64.861183 
L 288.61008 -64.80895 
L 287.08444 -64.814824 
L 285.5588 -64.904894 
L 284.03316 -64.84394 
L 282.50752 -64.85229 
L 280.98188 -65.002491 
L 279.45624 -64.987563 
L 277.9306 -64.942706 
L 276.40496 -65.061664 
L 274.87932 -65.055135 
L 273.35368 -65.074737 
L 271.82804 -65.017168 
L 270.3024 -64.971818 
L 268.77676 -64.867479 
L 267.25112 -64.741099 
L 265.72548 -64.661852 
L 264.19984 -64.547778 
L 262.6742 -64.69358 
L 261.14856 -64.502672 
L 259.62292 -64.645095 
L 258.09728 -64.686259 
L 256.57164 -64.730088 
L 255.046 -64.739075 
L 253.52036 -64.99482 
L 251.99472 -65.006778 
L 250.46908 -64.970876 
L 248.94344 -64.994524 
L 247.4178 -65.7172 
L 245.89216 -65.703402 
L 244.36652 -65.641275 
L 242.84088 -65.566186 
L 241.31524 -65.741471 
L 239.7896 -65.838539 
L 238.26396 -65.913391 
L 236.73832 -66.107175 
L 235.21268 -66.480256 
L 233.68704 -66.230839 
L 232.1614 -66.231237 
L 230.63576 -65.739283 
L 229.11012 -65.684417 
L 227.58448 -65.819042 
L 226.05884 -65.969854 
L 224.5332 -66.558719 
L 223.00756 -66.8421 
L 221.48192 -66.876255 
L 219.95628 -66.864235 
L 218.43064 -67.570185 
L 216.905 -67.620276 
L 215.37936 -67.637408 
L 213.85372 -67.669154 
L 212.32808 -67.636472 
L 210.80244 -67.579177 
L 209.2768 -67.584768 
L 207.75116 -67.531217 
L 206.22552 -67.576448 
L 204.69988 -67.637618 
L 203.17424 -67.808135 
L 201.6486 -67.840127 
L 200.12296 -67.821764 
L 198.59732 -67.882107 
L 197.07168 -67.814058 
L 195.54604 -67.837815 
L 194.0204 -67.80898 
L 192.49476 -67.827524 
L 190.96912 -67.820968 
L 189.44348 -67.549943 
L 187.91784 -67.204989 
L 186.3922 -67.550711 
L 184.86656 -67.576893 
L 183.34092 -67.666894 
L 181.81528 -67.889857 
L 180.28964 -67.93144 
L 178.764 -67.893871 
L 177.23836 -67.863312 
L 175.71272 -67.862075 
L 174.18708 -68.697217 
L 172.66144 -68.781316 
L 171.1358 -68.81487 
L 169.61016 -68.882661 
L 168.08452 -68.389394 
L 166.55888 -68.453272 
L 165.03324 -68.586561 
L 163.5076 -68.847281 
L 161.98196 -68.873562 
L 160.45632 -68.785924 
L 158.93068 -68.761585 
L 157.40504 -68.870812 
L 155.8794 -68.941071 
L 154.35376 -68.855156 
L 152.82812 -68.835261 
L 151.30248 -68.829982 
L 149.77684 -68.987249 
L 148.2512 -68.96954 
L 146.72556 -68.996739 
L 145.19992 -68.974326 
L 143.67428 -69.019796 
L 142.14864 -68.929999 
L 140.623 -68.929283 
L 139.09736 -69.080103 
L 137.57172 -69.135932 
L 136.04608 -69.102413 
L 134.52044 -69.257598 
L 132.9948 -69.718931 
L 131.46916 -69.762364 
L 129.94352 -69.767422 
L 128.41788 -69.763465 
L 126.89224 -69.59167 
L 125.3666 -69.971132 
L 123.84096 -69.651112 
L 122.31532 -69.651351 
L 120.78968 -69.407836 
L 119.26404 -69.598374 
L 117.7384 -69.564979 
L 116.21276 -71.038515 
L 114.68712 -70.989139 
L 113.16148 -70.902715 
L 111.63584 -71.136587 
L 110.1102 -71.652542 
L 108.58456 -71.624536 
L 107.05892 -71.652282 
L 105.53328 -71.504773 
L 104.00764 -71.498777 
L 102.482 -72.150148 
L 100.95636 -72.25716 
L 99.43072 -71.316723 
L 97.90508 -71.339494 
L 96.37944 -71.652643 
L 94.8538 -72.187889 
L 93.32816 -71.858762 
L 91.80252 -70.159217 
L 90.27688 -70.175183 
L 88.75124 -72.193532 
L 87.2256 -72.205197 
L 85.69996 -72.837545 
L 84.17432 -72.682585 
L 82.64868 -72.673794 
L 81.12304 -73.274975 
L 79.5974 -73.866856 
L 78.07176 -74.024726 
L 76.54612 -75.404257 
L 75.02048 -75.379687 
L 73.49484 -75.379542 
L 71.9692 -75.578931 
L 70.44356 -76.878172 
L 68.91792 -76.880316 
L 67.39228 -77.184131 
L 65.86664 -76.736965 
L 64.341 -76.645596 
L 62.81536 -77.013824 
L 61.28972 -77.893142 
L 59.76408 -77.492956 
L 58.23844 -77.44676 
L 56.7128 -79.585452 
L 55.18716 -79.704597 
L 53.66152 -79.337008 
L 52.13588 -78.675301 
L 50.61024 -78.552506 
L 49.0846 -78.214568 
L 47.55896 -78.191015 
L 46.03332 -86.144007 
L 44.50768 -83.528055 
L 42.98204 -83.216829 
L 41.4564 -80.998191 
L 39.93076 -83.651071 
L 38.40512 -84.177479 
L 36.87948 -86.301453 
L 35.35384 -88.035073 
L 33.8282 -87.959848 
L 32.30256 -87.592321 
L 30.77692 -86.144634 
L 29.25128 -124.49297 
z
" id="m490de61c76" style="stroke:#000000;stroke-opacity:0.2;stroke-width:0.8;"/>
    </defs>
    <g clip-path="url(#pbe764b3075)">
     <use style="fill:#bc80bd;fill-opacity:0.2;stroke:#000000;stroke-opacity:0.2;stroke-width:0.8;" x="0" xlink:href="#m490de61c76" y="306.47625"/>
    </g>
   </g>
   <g id="matplotlib.axis_3">
    <g id="xtick_7">
     <g id="line2d_15">
      <g>
       <use style="fill:#323034;stroke:#323034;stroke-width:0.8;" x="26.2" xlink:href="#m1667554d97" y="267.67625"/>
      </g>
     </g>
     <g id="text_9">
      <!-- $\mathdefault{0}$ -->
      <g style="fill:#323034;" transform="translate(23.2 282.871875)scale(0.12 -0.12)">
       <use transform="translate(0 0.40625)" xlink:href="#STIXGeneral-Regular-30"/>
      </g>
     </g>
    </g>
    <g id="xtick_8">
     <g id="line2d_16">
      <g>
       <use style="fill:#323034;stroke:#323034;stroke-width:0.8;" x="102.482" xlink:href="#m1667554d97" y="267.67625"/>
      </g>
     </g>
     <g id="text_10">
      <!-- $\mathdefault{50}$ -->
      <g style="fill:#323034;" transform="translate(96.482 282.871875)scale(0.12 -0.12)">
       <use transform="translate(0 0.203125)" xlink:href="#STIXGeneral-Regular-35"/>
       <use transform="translate(49.999985 0.203125)" xlink:href="#STIXGeneral-Regular-30"/>
      </g>
     </g>
    </g>
    <g id="xtick_9">
     <g id="line2d_17">
      <g>
       <use style="fill:#323034;stroke:#323034;stroke-width:0.8;" x="178.764" xlink:href="#m1667554d97" y="267.67625"/>
      </g>
     </g>
     <g id="text_11">
      <!-- $\mathdefault{100}$ -->
      <g style="fill:#323034;" transform="translate(169.764 282.871875)scale(0.12 -0.12)">
       <use transform="translate(0 0.40625)" xlink:href="#STIXGeneral-Regular-31"/>
       <use transform="translate(49.999985 0.40625)" xlink:href="#STIXGeneral-Regular-30"/>
       <use transform="translate(99.999969 0.40625)" xlink:href="#STIXGeneral-Regular-30"/>
      </g>
     </g>
    </g>
    <g id="xtick_10">
     <g id="line2d_18">
      <g>
       <use style="fill:#323034;stroke:#323034;stroke-width:0.8;" x="255.046" xlink:href="#m1667554d97" y="267.67625"/>
      </g>
     </g>
     <g id="text_12">
      <!-- $\mathdefault{150}$ -->
      <g style="fill:#323034;" transform="translate(246.046 282.871875)scale(0.12 -0.12)">
       <use transform="translate(0 0.203125)" xlink:href="#STIXGeneral-Regular-31"/>
       <use transform="translate(49.999985 0.203125)" xlink:href="#STIXGeneral-Regular-35"/>
       <use transform="translate(99.999969 0.203125)" xlink:href="#STIXGeneral-Regular-30"/>
      </g>
     </g>
    </g>
    <g id="xtick_11">
     <g id="line2d_19">
      <g>
       <use style="fill:#323034;stroke:#323034;stroke-width:0.8;" x="331.328" xlink:href="#m1667554d97" y="267.67625"/>
      </g>
     </g>
     <g id="text_13">
      <!-- $\mathdefault{200}$ -->
      <g style="fill:#323034;" transform="translate(322.328 282.871875)scale(0.12 -0.12)">
       <use transform="translate(0 0.40625)" xlink:href="#STIXGeneral-Regular-32"/>
       <use transform="translate(49.999985 0.40625)" xlink:href="#STIXGeneral-Regular-30"/>
       <use transform="translate(99.999969 0.40625)" xlink:href="#STIXGeneral-Regular-30"/>
      </g>
     </g>
    </g>
    <g id="xtick_12">
     <g id="line2d_20">
      <g>
       <use style="fill:#323034;stroke:#323034;stroke-width:0.8;" x="407.61" xlink:href="#m1667554d97" y="267.67625"/>
      </g>
     </g>
     <g id="text_14">
      <!-- $\mathdefault{250}$ -->
      <g style="fill:#323034;" transform="translate(398.61 282.871875)scale(0.12 -0.12)">
       <use transform="translate(0 0.203125)" xlink:href="#STIXGeneral-Regular-32"/>
       <use transform="translate(49.999985 0.203125)" xlink:href="#STIXGeneral-Regular-35"/>
       <use transform="translate(99.999969 0.203125)" xlink:href="#STIXGeneral-Regular-30"/>
      </g>
     </g>
    </g>
    <g id="text_15">
     <!-- Time step -->
     <g transform="translate(193.072812 296.671875)scale(0.12 -0.12)">
      <defs>
       <path d="M 3795 3149 
L 3642 3149 
Q 3539 3674 3353 3821 
Q 3168 3968 2656 3968 
L 2278 3968 
L 2278 710 
Q 2278 346 2387 243 
Q 2496 141 2893 122 
L 2893 0 
L 1024 0 
L 1024 122 
Q 1427 147 1526 256 
Q 1626 365 1626 787 
L 1626 3968 
L 1242 3968 
Q 723 3968 540 3817 
Q 358 3667 262 3149 
L 109 3149 
L 154 4237 
L 3750 4237 
L 3795 3149 
z
" id="STIXGeneral-Regular-54" transform="scale(0.015625)"/>
       <path d="M 1018 2931 
L 1018 2438 
Q 1421 2944 1939 2944 
Q 2406 2944 2707 2560 
Q 3008 2176 3008 1581 
Q 3008 883 2621 409 
Q 2234 -64 1664 -64 
Q 1466 -64 1328 -6 
Q 1190 51 1018 211 
L 1018 -794 
Q 1018 -1094 1120 -1180 
Q 1222 -1267 1581 -1274 
L 1581 -1389 
L 32 -1389 
L 32 -1280 
Q 314 -1254 397 -1171 
Q 480 -1088 480 -838 
L 480 2157 
Q 480 2381 429 2451 
Q 378 2522 218 2522 
Q 115 2522 58 2515 
L 58 2618 
Q 506 2752 979 2944 
L 1018 2931 
z
M 1018 2138 
L 1018 563 
Q 1018 422 1238 281 
Q 1459 141 1683 141 
Q 2029 141 2243 467 
Q 2458 794 2458 1325 
Q 2458 1888 2243 2224 
Q 2029 2560 1670 2560 
Q 1446 2560 1232 2419 
Q 1018 2278 1018 2138 
z
" id="STIXGeneral-Regular-70" transform="scale(0.015625)"/>
      </defs>
      <use xlink:href="#STIXGeneral-Regular-54"/>
      <use x="61.099991" xlink:href="#STIXGeneral-Regular-69"/>
      <use x="88.899979" xlink:href="#STIXGeneral-Regular-6d"/>
      <use x="166.699966" xlink:href="#STIXGeneral-Regular-65"/>
      <use x="211.09996" xlink:href="#STIXGeneral-Regular-20"/>
      <use x="236.099945" xlink:href="#STIXGeneral-Regular-73"/>
      <use x="274.999939" xlink:href="#STIXGeneral-Regular-74"/>
      <use x="302.799927" xlink:href="#STIXGeneral-Regular-65"/>
      <use x="347.199921" xlink:href="#STIXGeneral-Regular-70"/>
     </g>
    </g>
   </g>
   <g id="matplotlib.axis_4">
    <g id="ytick_6">
     <g id="line2d_21">
      <g>
       <use style="fill:#323034;stroke:#323034;stroke-width:0.8;" x="26.2" xlink:href="#m487d3552e8" y="267.67625"/>
      </g>
     </g>
     <g id="text_16">
      <!-- $\mathdefault{30}$ -->
      <g style="fill:#323034;" transform="translate(7.2 271.774062)scale(0.12 -0.12)">
       <use transform="translate(0 0.40625)" xlink:href="#STIXGeneral-Regular-33"/>
       <use transform="translate(49.999985 0.40625)" xlink:href="#STIXGeneral-Regular-30"/>
      </g>
     </g>
    </g>
    <g id="ytick_7">
     <g id="line2d_22">
      <g>
       <use style="fill:#323034;stroke:#323034;stroke-width:0.8;" x="26.2" xlink:href="#m487d3552e8" y="240.023594"/>
      </g>
     </g>
     <g id="text_17">
      <!-- $\mathdefault{35}$ -->
      <g style="fill:#323034;" transform="translate(7.2 244.121406)scale(0.12 -0.12)">
       <use transform="translate(0 0.203125)" xlink:href="#STIXGeneral-Regular-33"/>
       <use transform="translate(49.999985 0.203125)" xlink:href="#STIXGeneral-Regular-35"/>
      </g>
     </g>
    </g>
    <g id="ytick_8">
     <g id="line2d_23">
      <g>
       <use style="fill:#323034;stroke:#323034;stroke-width:0.8;" x="26.2" xlink:href="#m487d3552e8" y="212.370937"/>
      </g>
     </g>
     <g id="text_18">
      <!-- $\mathdefault{40}$ -->
      <g style="fill:#323034;" transform="translate(7.2 216.46875)scale(0.12 -0.12)">
       <defs>
        <path d="M 3027 1069 
L 2368 1069 
L 2368 0 
L 1869 0 
L 1869 1069 
L 77 1069 
L 77 1478 
L 2086 4326 
L 2368 4326 
L 2368 1478 
L 3027 1478 
L 3027 1069 
z
M 1869 1478 
L 1869 3674 
L 333 1478 
L 1869 1478 
z
" id="STIXGeneral-Regular-34" transform="scale(0.015625)"/>
       </defs>
       <use transform="translate(0 0.40625)" xlink:href="#STIXGeneral-Regular-34"/>
       <use transform="translate(49.999985 0.40625)" xlink:href="#STIXGeneral-Regular-30"/>
      </g>
     </g>
    </g>
    <g id="ytick_9">
     <g id="line2d_24">
      <g>
       <use style="fill:#323034;stroke:#323034;stroke-width:0.8;" x="26.2" xlink:href="#m487d3552e8" y="184.718281"/>
      </g>
     </g>
     <g id="text_19">
      <!-- $\mathdefault{45}$ -->
      <g style="fill:#323034;" transform="translate(7.2 188.816094)scale(0.12 -0.12)">
       <use transform="translate(0 0.203125)" xlink:href="#STIXGeneral-Regular-34"/>
       <use transform="translate(49.999985 0.203125)" xlink:href="#STIXGeneral-Regular-35"/>
      </g>
     </g>
    </g>
    <g id="ytick_10">
     <g id="line2d_25">
      <g>
       <use style="fill:#323034;stroke:#323034;stroke-width:0.8;" x="26.2" xlink:href="#m487d3552e8" y="157.065625"/>
      </g>
     </g>
     <g id="text_20">
      <!-- $\mathdefault{50}$ -->
      <g style="fill:#323034;" transform="translate(7.2 161.163437)scale(0.12 -0.12)">
       <use transform="translate(0 0.203125)" xlink:href="#STIXGeneral-Regular-35"/>
       <use transform="translate(49.999985 0.203125)" xlink:href="#STIXGeneral-Regular-30"/>
      </g>
     </g>
    </g>
   </g>
   <g id="line2d_26">
    <path clip-path="url(#pbe764b3075)" d="M 29.25128 213.091888 
L 30.77692 239.930615 
L 32.30256 238.448846 
L 33.8282 237.985157 
L 35.35384 236.763595 
L 36.87948 237.964285 
L 38.40512 239.436387 
L 39.93076 239.951787 
L 41.4564 241.082746 
L 42.98204 238.211071 
L 44.50768 237.744764 
L 46.03332 232.464435 
L 47.55896 239.585997 
L 49.0846 239.561295 
L 50.61024 238.777868 
L 52.13588 238.631896 
L 53.66152 237.895822 
L 55.18716 236.813365 
L 56.7128 236.847112 
L 58.23844 238.477883 
L 59.76408 238.428944 
L 61.28972 237.945446 
L 62.81536 238.43299 
L 64.341 238.781191 
L 65.86664 238.686588 
L 67.39228 238.011089 
L 68.91792 238.206441 
L 70.44356 238.197069 
L 71.9692 239.102757 
L 75.02048 239.143499 
L 76.54612 239.042281 
L 78.07176 240.250487 
L 81.12304 240.493906 
L 82.64868 241.007837 
L 84.17432 240.983392 
L 85.69996 240.812794 
L 87.2256 241.330056 
L 88.75124 241.328898 
L 90.27688 243.118628 
L 91.80252 243.133472 
L 93.32816 241.184005 
L 94.8538 240.680797 
L 97.90508 241.3 
L 99.43072 241.322464 
L 100.95636 240.273456 
L 102.482 240.360874 
L 104.00764 240.93099 
L 105.53328 240.898548 
L 107.05892 240.747051 
L 110.1102 240.681602 
L 111.63584 241.142804 
L 113.16148 241.367974 
L 116.21276 241.220432 
L 117.7384 242.473691 
L 119.26404 242.43747 
L 120.78968 242.618715 
L 122.31532 242.240479 
L 123.84096 242.236092 
L 125.3666 241.895005 
L 126.89224 242.171952 
L 128.41788 241.959358 
L 132.9948 241.986366 
L 134.52044 242.430531 
L 136.04608 242.572615 
L 139.09736 242.572008 
L 140.623 242.709748 
L 154.35376 242.592365 
L 155.8794 242.468511 
L 160.45632 242.607323 
L 161.98196 242.511515 
L 163.5076 242.537278 
L 165.03324 242.781932 
L 168.08452 242.974783 
L 169.61016 242.443206 
L 172.66144 242.420449 
L 174.18708 242.501729 
L 175.71272 243.249395 
L 181.81528 243.189668 
L 183.34092 243.402775 
L 186.3922 243.516755 
L 187.91784 243.856873 
L 190.96912 243.179948 
L 203.17424 243.133561 
L 206.22552 243.29141 
L 207.75116 243.325337 
L 212.32808 243.157763 
L 215.37936 243.151036 
L 218.43064 243.216185 
L 219.95628 243.824826 
L 223.00756 243.813859 
L 224.5332 244.063716 
L 226.05884 244.604592 
L 229.11012 244.841152 
L 230.63576 244.783763 
L 232.1614 244.263128 
L 233.68704 244.263424 
L 235.21268 244.002489 
L 236.73832 244.316679 
L 239.7896 244.559454 
L 242.84088 244.79125 
L 247.4178 244.607438 
L 248.94344 245.293854 
L 258.09728 245.535852 
L 261.14856 245.707653 
L 262.6742 245.496112 
L 264.19984 245.638814 
L 273.35368 245.050566 
L 290.13572 245.15275 
L 293.187 245.192001 
L 294.71264 245.391565 
L 296.23828 245.420859 
L 297.76392 245.657557 
L 308.4434 245.583961 
L 313.02032 245.439411 
L 316.0716 245.130384 
L 317.59724 245.177384 
L 320.64852 245.023434 
L 323.6998 245.108179 
L 325.22544 245.230651 
L 328.27672 245.088838 
L 329.80236 245.192147 
L 329.80236 245.192147 
" style="fill:none;stroke:#bc80bd;stroke-linecap:square;stroke-width:2;"/>
   </g>
   <g id="patch_8">
    <path d="M 26.2 267.67625 
L 26.2 157.065625 
" style="fill:none;stroke:#000000;stroke-linecap:square;stroke-linejoin:miter;stroke-width:0.6;"/>
   </g>
   <g id="patch_9">
    <path d="M 26.2 267.67625 
L 407.61 267.67625 
" style="fill:none;stroke:#000000;stroke-linecap:square;stroke-linejoin:miter;stroke-width:0.6;"/>
   </g>
   <g id="legend_2">
    <g id="patch_10">
     <path d="M 254.855313 175.235937 
L 400.61 175.235937 
Q 402.61 175.235937 402.61 173.235937 
L 402.61 164.065625 
Q 402.61 162.065625 400.61 162.065625 
L 254.855313 162.065625 
Q 252.855313 162.065625 252.855313 164.065625 
L 252.855313 173.235937 
Q 252.855313 175.235937 254.855313 175.235937 
z
" style="fill:#ffffff;opacity:0.8;stroke:#e6e6e6;stroke-linejoin:miter;stroke-width:0.8;"/>
    </g>
    <g id="line2d_27">
     <path d="M 254.855313 167.565625 
L 274.855313 167.565625 
" style="fill:none;stroke:#bc80bd;stroke-linecap:square;stroke-width:2;"/>
    </g>
    <g id="line2d_28"/>
    <g id="text_21">
     <!-- Recursive estimates: feature1 -->
     <g style="fill:#323034;" transform="translate(282.855313 171.065625)scale(0.1 -0.1)">
      <use xlink:href="#STIXGeneral-Regular-52"/>
      <use x="66.699997" xlink:href="#STIXGeneral-Regular-65"/>
      <use x="111.099991" xlink:href="#STIXGeneral-Regular-63"/>
      <use x="155.499985" xlink:href="#STIXGeneral-Regular-75"/>
      <use x="205.499969" xlink:href="#STIXGeneral-Regular-72"/>
      <use x="238.799957" xlink:href="#STIXGeneral-Regular-73"/>
      <use x="277.699951" xlink:href="#STIXGeneral-Regular-69"/>
      <use x="305.499939" xlink:href="#STIXGeneral-Regular-76"/>
      <use x="355.499924" xlink:href="#STIXGeneral-Regular-65"/>
      <use x="399.899918" xlink:href="#STIXGeneral-Regular-20"/>
      <use x="424.899902" xlink:href="#STIXGeneral-Regular-65"/>
      <use x="469.299896" xlink:href="#STIXGeneral-Regular-73"/>
      <use x="508.19989" xlink:href="#STIXGeneral-Regular-74"/>
      <use x="535.999878" xlink:href="#STIXGeneral-Regular-69"/>
      <use x="563.799866" xlink:href="#STIXGeneral-Regular-6d"/>
      <use x="641.599854" xlink:href="#STIXGeneral-Regular-61"/>
      <use x="685.999847" xlink:href="#STIXGeneral-Regular-74"/>
      <use x="713.799835" xlink:href="#STIXGeneral-Regular-65"/>
      <use x="758.199829" xlink:href="#STIXGeneral-Regular-73"/>
      <use x="797.099823" xlink:href="#STIXGeneral-Regular-3a"/>
      <use x="824.899811" xlink:href="#STIXGeneral-Regular-20"/>
      <use x="849.899796" xlink:href="#STIXGeneral-Regular-66"/>
      <use x="883.199783" xlink:href="#STIXGeneral-Regular-65"/>
      <use x="927.599777" xlink:href="#STIXGeneral-Regular-61"/>
      <use x="971.999771" xlink:href="#STIXGeneral-Regular-74"/>
      <use x="999.799759" xlink:href="#STIXGeneral-Regular-75"/>
      <use x="1049.799744" xlink:href="#STIXGeneral-Regular-72"/>
      <use x="1083.099731" xlink:href="#STIXGeneral-Regular-65"/>
      <use x="1127.499725" xlink:href="#STIXGeneral-Regular-31"/>
     </g>
    </g>
   </g>
  </g>
 </g>
 <defs>
  <clipPath id="p8d334ab93c">
   <rect height="110.610625" width="381.41" x="26.2" y="24.1275"/>
  </clipPath>
  <clipPath id="pbe764b3075">
   <rect height="110.610625" width="381.41" x="26.2" y="157.065625"/>
  </clipPath>
 </defs>
</svg>
