<?xml version="1.0" encoding="UTF-8" standalone="no"?>
<!DOCTYPE svg PUBLIC "-//W3C//DTD SVG 1.1//EN"
 "http://www.w3.org/Graphics/SVG/1.1/DTD/svg11.dtd">
<!-- Generated by graphviz version 2.50.0 (20211204.2007)
 -->
<!-- Pages: 1 -->
<svg width="327pt" height="233pt"
 viewBox="0.00 0.00 327.41 232.91" xmlns="http://www.w3.org/2000/svg" xmlns:xlink="http://www.w3.org/1999/xlink">
<g id="graph0" class="graph" transform="scale(1 1) rotate(0) translate(4 228.91)">
<polygon fill="white" stroke="transparent" points="-4,4 -4,-228.91 323.41,-228.91 323.41,4 -4,4"/>
<g id="clust1" class="cluster">
<title>cluster100</title>
<path fill="none" stroke="black" d="M138.69,-8C138.69,-8 232.69,-8 232.69,-8 238.69,-8 244.69,-14 244.69,-20 244.69,-20 244.69,-109.95 244.69,-109.95 244.69,-115.95 238.69,-121.95 232.69,-121.95 232.69,-121.95 138.69,-121.95 138.69,-121.95 132.69,-121.95 126.69,-115.95 126.69,-109.95 126.69,-109.95 126.69,-20 126.69,-20 126.69,-14 132.69,-8 138.69,-8"/>
<text text-anchor="middle" x="226.19" y="-15.8" font-family="Times,serif" font-size="14.00">100</text>
</g>
<!-- sigma -->
<g id="node1" class="node">
<title>sigma</title>
<ellipse fill="none" stroke="black" cx="58.69" cy="-187.43" rx="58.88" ry="37.45"/>
<text text-anchor="middle" x="58.69" y="-198.73" font-family="Times,serif" font-size="14.00">sigma</text>
<text text-anchor="middle" x="58.69" y="-183.73" font-family="Times,serif" font-size="14.00">~</text>
<text text-anchor="middle" x="58.69" y="-168.73" font-family="Times,serif" font-size="14.00">HalfNormal</text>
</g>
<!-- Y_obs -->
<g id="node4" class="node">
<title>Y_obs</title>
<ellipse fill="lightgrey" stroke="black" cx="176.69" cy="-76.48" rx="41.94" ry="37.45"/>
<text text-anchor="middle" x="176.69" y="-87.78" font-family="Times,serif" font-size="14.00">Y_obs</text>
<text text-anchor="middle" x="176.69" y="-72.78" font-family="Times,serif" font-size="14.00">~</text>
<text text-anchor="middle" x="176.69" y="-57.78" font-family="Times,serif" font-size="14.00">Normal</text>
</g>
<!-- sigma&#45;&gt;Y_obs -->
<g id="edge1" class="edge">
<title>sigma&#45;&gt;Y_obs</title>
<path fill="none" stroke="black" d="M91.56,-156.08C106.8,-142.01 124.95,-125.25 140.57,-110.83"/>
<polygon fill="black" stroke="black" points="143.03,-113.32 148.01,-103.96 138.29,-108.17 143.03,-113.32"/>
</g>
<!-- beta -->
<g id="node2" class="node">
<title>beta</title>
<ellipse fill="none" stroke="black" cx="176.69" cy="-187.43" rx="41.94" ry="37.45"/>
<text text-anchor="middle" x="176.69" y="-198.73" font-family="Times,serif" font-size="14.00">beta</text>
<text text-anchor="middle" x="176.69" y="-183.73" font-family="Times,serif" font-size="14.00">~</text>
<text text-anchor="middle" x="176.69" y="-168.73" font-family="Times,serif" font-size="14.00">Normal</text>
</g>
<!-- beta&#45;&gt;Y_obs -->
<g id="edge2" class="edge">
<title>beta&#45;&gt;Y_obs</title>
<path fill="none" stroke="black" d="M176.69,-149.85C176.69,-141.67 176.69,-132.89 176.69,-124.37"/>
<polygon fill="black" stroke="black" points="180.19,-124.15 176.69,-114.15 173.19,-124.15 180.19,-124.15"/>
</g>
<!-- alpha -->
<g id="node3" class="node">
<title>alpha</title>
<ellipse fill="none" stroke="black" cx="277.69" cy="-187.43" rx="41.94" ry="37.45"/>
<text text-anchor="middle" x="277.69" y="-198.73" font-family="Times,serif" font-size="14.00">alpha</text>
<text text-anchor="middle" x="277.69" y="-183.73" font-family="Times,serif" font-size="14.00">~</text>
<text text-anchor="middle" x="277.69" y="-168.73" font-family="Times,serif" font-size="14.00">Normal</text>
</g>
<!-- alpha&#45;&gt;Y_obs -->
<g id="edge3" class="edge">
<title>alpha&#45;&gt;Y_obs</title>
<path fill="none" stroke="black" d="M251.42,-158.09C238.77,-144.45 223.48,-127.95 210.02,-113.44"/>
<polygon fill="black" stroke="black" points="212.55,-111.01 203.18,-106.06 207.41,-115.77 212.55,-111.01"/>
</g>
<!-- Y_obs&#45;&gt;Y_obs -->
<g id="edge4" class="edge">
<title>Y_obs&#45;&gt;Y_obs</title>
<path fill="none" stroke="black" d="M211.65,-97.02C225.17,-97.93 236.41,-91.09 236.41,-76.48 236.41,-65.75 230.35,-59.2 221.78,-56.85"/>
<polygon fill="black" stroke="black" points="221.93,-53.35 211.65,-55.93 221.3,-60.32 221.93,-53.35"/>
</g>
</g>
</svg>
