<?xml version="1.0" encoding="utf-8" standalone="no"?>
<!DOCTYPE svg PUBLIC "-//W3C//DTD SVG 1.1//EN"
  "http://www.w3.org/Graphics/SVG/1.1/DTD/svg11.dtd">
<svg xmlns:xlink="http://www.w3.org/1999/xlink" width="584.39952pt" height="368.39952pt" viewBox="0 0 584.39952 368.39952" xmlns="http://www.w3.org/2000/svg" version="1.1">
 <metadata>
  <rdf:RDF xmlns:dc="http://purl.org/dc/elements/1.1/" xmlns:cc="http://creativecommons.org/ns#" xmlns:rdf="http://www.w3.org/1999/02/22-rdf-syntax-ns#">
   <cc:Work>
    <dc:type rdf:resource="http://purl.org/dc/dcmitype/StillImage"/>
    <dc:date>2022-10-24T21:27:06.007918</dc:date>
    <dc:format>image/svg+xml</dc:format>
    <dc:creator>
     <cc:Agent>
      <dc:title>Matplotlib v3.5.3, https://matplotlib.org/</dc:title>
     </cc:Agent>
    </dc:creator>
   </cc:Work>
  </rdf:RDF>
 </metadata>
 <defs>
  <style type="text/css">*{stroke-linejoin: round; stroke-linecap: butt}</style>
 </defs>
 <g id="figure_1">
  <g id="patch_1">
   <path d="M 0 368.39952 
L 584.39952 368.39952 
L 584.39952 0 
L 0 0 
z
" style="fill: #ffffff"/>
  </g>
  <g id="axes_1">
   <g id="patch_2">
    <path d="M 16.613501 341.144078 
L 567.786019 341.144078 
L 567.786019 24.956118 
L 16.613501 24.956118 
z
" style="fill: #eeeeee"/>
   </g>
   <g id="matplotlib.axis_1">
    <g id="xtick_1">
     <g id="line2d_1">
      <path d="M 16.613501 341.144078 
L 16.613501 24.956118 
" clip-path="url(#p118a7c805e)" style="fill: none; stroke: #ffffff; stroke-width: 0.8; stroke-linecap: round"/>
     </g>
     <g id="line2d_2">
      <defs>
       <path id="m1b9279c7a3" d="M 0 0 
L 0 3 
" style="stroke: #808080"/>
      </defs>
      <g>
       <use xlink:href="#m1b9279c7a3" x="16.613501" y="341.144078" style="fill: #808080; stroke: #808080"/>
      </g>
     </g>
     <g id="text_1">
      <!-- $\mathdefault{0.2}$ -->
      <g style="fill: #262626" transform="translate(7.2 357.930682)scale(0.150616 -0.150616)">
       <defs>
        <path id="STIXGeneral-Regular-30" d="M 3046 2112 
Q 3046 1683 2963 1302 
Q 2880 922 2717 602 
Q 2554 282 2266 96 
Q 1978 -90 1600 -90 
Q 1210 -90 915 108 
Q 621 307 461 640 
Q 301 973 227 1350 
Q 154 1728 154 2150 
Q 154 2746 301 3222 
Q 448 3699 790 4012 
Q 1133 4326 1626 4326 
Q 2253 4326 2649 3712 
Q 3046 3098 3046 2112 
z
M 2432 2080 
Q 2432 3091 2217 3625 
Q 2003 4160 1587 4160 
Q 1190 4160 979 3622 
Q 768 3085 768 2106 
Q 768 1120 979 598 
Q 1190 77 1600 77 
Q 2003 77 2217 598 
Q 2432 1120 2432 2080 
z
" transform="scale(0.015625)"/>
        <path id="STIXGeneral-Regular-2e" d="M 1158 275 
Q 1158 134 1052 32 
Q 947 -70 800 -70 
Q 653 -70 550 32 
Q 448 134 448 281 
Q 448 429 553 534 
Q 659 640 806 640 
Q 947 640 1052 531 
Q 1158 422 1158 275 
z
" transform="scale(0.015625)"/>
        <path id="STIXGeneral-Regular-32" d="M 3034 877 
L 2688 0 
L 186 0 
L 186 77 
L 1325 1286 
Q 1773 1754 1965 2144 
Q 2157 2534 2157 2950 
Q 2157 3379 1920 3616 
Q 1683 3853 1267 3853 
Q 922 3853 720 3673 
Q 518 3494 326 3021 
L 192 3053 
Q 301 3648 630 3987 
Q 960 4326 1523 4326 
Q 2054 4326 2380 4006 
Q 2707 3686 2707 3200 
Q 2707 2477 1888 1613 
L 832 486 
L 2330 486 
Q 2541 486 2665 569 
Q 2790 653 2944 915 
L 3034 877 
z
" transform="scale(0.015625)"/>
       </defs>
       <use xlink:href="#STIXGeneral-Regular-30" transform="translate(0 0.40625)"/>
       <use xlink:href="#STIXGeneral-Regular-2e" transform="translate(49.999985 0.40625)"/>
       <use xlink:href="#STIXGeneral-Regular-32" transform="translate(74.999969 0.40625)"/>
      </g>
     </g>
    </g>
    <g id="xtick_2">
     <g id="line2d_3">
      <path d="M 85.510066 341.144078 
L 85.510066 24.956118 
" clip-path="url(#p118a7c805e)" style="fill: none; stroke: #ffffff; stroke-width: 0.8; stroke-linecap: round"/>
     </g>
     <g id="line2d_4">
      <g>
       <use xlink:href="#m1b9279c7a3" x="85.510066" y="341.144078" style="fill: #808080; stroke: #808080"/>
      </g>
     </g>
     <g id="text_2">
      <!-- $\mathdefault{0.4}$ -->
      <g style="fill: #262626" transform="translate(76.096565 357.930682)scale(0.150616 -0.150616)">
       <defs>
        <path id="STIXGeneral-Regular-34" d="M 3027 1069 
L 2368 1069 
L 2368 0 
L 1869 0 
L 1869 1069 
L 77 1069 
L 77 1478 
L 2086 4326 
L 2368 4326 
L 2368 1478 
L 3027 1478 
L 3027 1069 
z
M 1869 1478 
L 1869 3674 
L 333 1478 
L 1869 1478 
z
" transform="scale(0.015625)"/>
       </defs>
       <use xlink:href="#STIXGeneral-Regular-30" transform="translate(0 0.40625)"/>
       <use xlink:href="#STIXGeneral-Regular-2e" transform="translate(49.999985 0.40625)"/>
       <use xlink:href="#STIXGeneral-Regular-34" transform="translate(74.999969 0.40625)"/>
      </g>
     </g>
    </g>
    <g id="xtick_3">
     <g id="line2d_5">
      <path d="M 154.406631 341.144078 
L 154.406631 24.956118 
" clip-path="url(#p118a7c805e)" style="fill: none; stroke: #ffffff; stroke-width: 0.8; stroke-linecap: round"/>
     </g>
     <g id="line2d_6">
      <g>
       <use xlink:href="#m1b9279c7a3" x="154.406631" y="341.144078" style="fill: #808080; stroke: #808080"/>
      </g>
     </g>
     <g id="text_3">
      <!-- $\mathdefault{0.6}$ -->
      <g style="fill: #262626" transform="translate(144.993129 357.930682)scale(0.150616 -0.150616)">
       <defs>
        <path id="STIXGeneral-Regular-36" d="M 2854 4378 
L 2867 4275 
Q 2112 4154 1606 3664 
Q 1101 3174 973 2451 
Q 1344 2739 1786 2739 
Q 2349 2739 2672 2380 
Q 2995 2022 2995 1402 
Q 2995 774 2669 378 
Q 2291 -90 1651 -90 
Q 870 -90 518 557 
Q 218 1107 218 1786 
Q 218 2835 915 3552 
Q 1312 3962 1731 4131 
Q 2150 4301 2854 4378 
z
M 2419 1203 
Q 2419 2445 1555 2445 
Q 1235 2445 1024 2275 
Q 813 2106 813 1702 
Q 813 954 1046 522 
Q 1280 90 1722 90 
Q 2061 90 2240 394 
Q 2419 698 2419 1203 
z
" transform="scale(0.015625)"/>
       </defs>
       <use xlink:href="#STIXGeneral-Regular-30" transform="translate(0 0.59375)"/>
       <use xlink:href="#STIXGeneral-Regular-2e" transform="translate(49.999985 0.59375)"/>
       <use xlink:href="#STIXGeneral-Regular-36" transform="translate(74.999969 0.59375)"/>
      </g>
     </g>
    </g>
    <g id="xtick_4">
     <g id="line2d_7">
      <path d="M 223.303195 341.144078 
L 223.303195 24.956118 
" clip-path="url(#p118a7c805e)" style="fill: none; stroke: #ffffff; stroke-width: 0.8; stroke-linecap: round"/>
     </g>
     <g id="line2d_8">
      <g>
       <use xlink:href="#m1b9279c7a3" x="223.303195" y="341.144078" style="fill: #808080; stroke: #808080"/>
      </g>
     </g>
     <g id="text_4">
      <!-- $\mathdefault{0.8}$ -->
      <g style="fill: #262626" transform="translate(213.889694 357.930682)scale(0.150616 -0.150616)">
       <defs>
        <path id="STIXGeneral-Regular-38" d="M 2848 992 
Q 2848 499 2505 204 
Q 2163 -90 1587 -90 
Q 1050 -90 704 204 
Q 358 499 358 954 
Q 358 1293 524 1533 
Q 691 1773 1190 2125 
Q 710 2522 553 2765 
Q 397 3008 397 3328 
Q 397 3782 745 4054 
Q 1094 4326 1638 4326 
Q 2106 4326 2410 4060 
Q 2714 3795 2714 3411 
Q 2714 3059 2531 2848 
Q 2349 2637 1856 2374 
Q 2432 1990 2640 1689 
Q 2848 1389 2848 992 
z
M 2272 3411 
Q 2272 3744 2086 3945 
Q 1901 4147 1574 4147 
Q 1248 4147 1059 3977 
Q 870 3808 870 3513 
Q 870 3219 1059 2979 
Q 1248 2739 1670 2490 
Q 1997 2682 2134 2896 
Q 2272 3110 2272 3411 
z
M 1734 1741 
L 1357 1997 
Q 1075 1766 960 1545 
Q 845 1325 845 1011 
Q 845 576 1065 333 
Q 1286 90 1658 90 
Q 1971 90 2166 285 
Q 2362 480 2362 794 
Q 2362 1082 2214 1299 
Q 2067 1517 1734 1741 
z
" transform="scale(0.015625)"/>
       </defs>
       <use xlink:href="#STIXGeneral-Regular-30" transform="translate(0 0.40625)"/>
       <use xlink:href="#STIXGeneral-Regular-2e" transform="translate(49.999985 0.40625)"/>
       <use xlink:href="#STIXGeneral-Regular-38" transform="translate(74.999969 0.40625)"/>
      </g>
     </g>
    </g>
    <g id="xtick_5">
     <g id="line2d_9">
      <path d="M 292.19976 341.144078 
L 292.19976 24.956118 
" clip-path="url(#p118a7c805e)" style="fill: none; stroke: #ffffff; stroke-width: 0.8; stroke-linecap: round"/>
     </g>
     <g id="line2d_10">
      <g>
       <use xlink:href="#m1b9279c7a3" x="292.19976" y="341.144078" style="fill: #808080; stroke: #808080"/>
      </g>
     </g>
     <g id="text_5">
      <!-- $\mathdefault{1.0}$ -->
      <g style="fill: #262626" transform="translate(282.786259 357.930682)scale(0.150616 -0.150616)">
       <defs>
        <path id="STIXGeneral-Regular-31" d="M 2522 0 
L 755 0 
L 755 96 
Q 1107 115 1235 227 
Q 1363 339 1363 608 
L 1363 3482 
Q 1363 3795 1171 3795 
Q 1082 3795 883 3718 
L 710 3654 
L 710 3744 
L 1856 4326 
L 1914 4307 
L 1914 486 
Q 1914 275 2042 185 
Q 2170 96 2522 96 
L 2522 0 
z
" transform="scale(0.015625)"/>
       </defs>
       <use xlink:href="#STIXGeneral-Regular-31" transform="translate(0 0.40625)"/>
       <use xlink:href="#STIXGeneral-Regular-2e" transform="translate(49.999985 0.40625)"/>
       <use xlink:href="#STIXGeneral-Regular-30" transform="translate(74.999969 0.40625)"/>
      </g>
     </g>
    </g>
    <g id="xtick_6">
     <g id="line2d_11">
      <path d="M 361.096325 341.144078 
L 361.096325 24.956118 
" clip-path="url(#p118a7c805e)" style="fill: none; stroke: #ffffff; stroke-width: 0.8; stroke-linecap: round"/>
     </g>
     <g id="line2d_12">
      <g>
       <use xlink:href="#m1b9279c7a3" x="361.096325" y="341.144078" style="fill: #808080; stroke: #808080"/>
      </g>
     </g>
     <g id="text_6">
      <!-- $\mathdefault{1.2}$ -->
      <g style="fill: #262626" transform="translate(351.682824 357.930682)scale(0.150616 -0.150616)">
       <use xlink:href="#STIXGeneral-Regular-31" transform="translate(0 0.40625)"/>
       <use xlink:href="#STIXGeneral-Regular-2e" transform="translate(49.999985 0.40625)"/>
       <use xlink:href="#STIXGeneral-Regular-32" transform="translate(74.999969 0.40625)"/>
      </g>
     </g>
    </g>
    <g id="xtick_7">
     <g id="line2d_13">
      <path d="M 429.992889 341.144078 
L 429.992889 24.956118 
" clip-path="url(#p118a7c805e)" style="fill: none; stroke: #ffffff; stroke-width: 0.8; stroke-linecap: round"/>
     </g>
     <g id="line2d_14">
      <g>
       <use xlink:href="#m1b9279c7a3" x="429.992889" y="341.144078" style="fill: #808080; stroke: #808080"/>
      </g>
     </g>
     <g id="text_7">
      <!-- $\mathdefault{1.4}$ -->
      <g style="fill: #262626" transform="translate(420.579388 357.930682)scale(0.150616 -0.150616)">
       <use xlink:href="#STIXGeneral-Regular-31" transform="translate(0 0.40625)"/>
       <use xlink:href="#STIXGeneral-Regular-2e" transform="translate(49.999985 0.40625)"/>
       <use xlink:href="#STIXGeneral-Regular-34" transform="translate(74.999969 0.40625)"/>
      </g>
     </g>
    </g>
    <g id="xtick_8">
     <g id="line2d_15">
      <path d="M 498.889454 341.144078 
L 498.889454 24.956118 
" clip-path="url(#p118a7c805e)" style="fill: none; stroke: #ffffff; stroke-width: 0.8; stroke-linecap: round"/>
     </g>
     <g id="line2d_16">
      <g>
       <use xlink:href="#m1b9279c7a3" x="498.889454" y="341.144078" style="fill: #808080; stroke: #808080"/>
      </g>
     </g>
     <g id="text_8">
      <!-- $\mathdefault{1.6}$ -->
      <g style="fill: #262626" transform="translate(489.475953 357.930682)scale(0.150616 -0.150616)">
       <use xlink:href="#STIXGeneral-Regular-31" transform="translate(0 0.59375)"/>
       <use xlink:href="#STIXGeneral-Regular-2e" transform="translate(49.999985 0.59375)"/>
       <use xlink:href="#STIXGeneral-Regular-36" transform="translate(74.999969 0.59375)"/>
      </g>
     </g>
    </g>
    <g id="xtick_9">
     <g id="line2d_17">
      <path d="M 567.786019 341.144078 
L 567.786019 24.956118 
" clip-path="url(#p118a7c805e)" style="fill: none; stroke: #ffffff; stroke-width: 0.8; stroke-linecap: round"/>
     </g>
     <g id="line2d_18">
      <g>
       <use xlink:href="#m1b9279c7a3" x="567.786019" y="341.144078" style="fill: #808080; stroke: #808080"/>
      </g>
     </g>
     <g id="text_9">
      <!-- $\mathdefault{1.8}$ -->
      <g style="fill: #262626" transform="translate(558.372518 357.930682)scale(0.150616 -0.150616)">
       <use xlink:href="#STIXGeneral-Regular-31" transform="translate(0 0.40625)"/>
       <use xlink:href="#STIXGeneral-Regular-2e" transform="translate(49.999985 0.40625)"/>
       <use xlink:href="#STIXGeneral-Regular-38" transform="translate(74.999969 0.40625)"/>
      </g>
     </g>
    </g>
   </g>
   <g id="matplotlib.axis_2"/>
   <g id="PolyCollection_1">
    <defs>
     <path id="m5b32764c71" d="M 102.660889 -41.627622 
L 102.660889 -42.96984 
L 103.409333 -42.967671 
L 104.157778 -42.952515 
L 104.906223 -42.943433 
L 105.654667 -42.930077 
L 106.403112 -42.918025 
L 107.151556 -42.898175 
L 107.900001 -42.880589 
L 108.648445 -42.856298 
L 109.39689 -42.830198 
L 110.145335 -42.802883 
L 110.893779 -42.774977 
L 111.642224 -42.747127 
L 112.390668 -42.719995 
L 113.139113 -42.694244 
L 113.887558 -42.670535 
L 114.636002 -42.654798 
L 115.384447 -42.638205 
L 116.132891 -42.625713 
L 116.881336 -42.623187 
L 117.62978 -42.621708 
L 118.378225 -42.626121 
L 119.12667 -42.636873 
L 119.875114 -42.654345 
L 120.623559 -42.678849 
L 121.372003 -42.710621 
L 122.120448 -42.749817 
L 122.868892 -42.79651 
L 123.617337 -42.85069 
L 124.365782 -42.912257 
L 125.114226 -42.981024 
L 125.862671 -43.056714 
L 126.611115 -43.138966 
L 127.35956 -43.227332 
L 128.108005 -43.321281 
L 128.856449 -43.420206 
L 129.604894 -43.528713 
L 130.353338 -43.636606 
L 131.101783 -43.74745 
L 131.850227 -43.860417 
L 132.598672 -43.974643 
L 133.347117 -44.089232 
L 134.095561 -44.208561 
L 134.844006 -44.322256 
L 135.59245 -44.444347 
L 136.340895 -44.555061 
L 137.089339 -44.662297 
L 137.837784 -44.770603 
L 138.586229 -44.880422 
L 139.334673 -44.976607 
L 140.083118 -45.063051 
L 140.831562 -45.144527 
L 141.580007 -45.224986 
L 142.328452 -45.304315 
L 143.076896 -45.373053 
L 143.825341 -45.435664 
L 144.573785 -45.502949 
L 145.32223 -45.561624 
L 146.070674 -45.621985 
L 146.819119 -45.670082 
L 147.567564 -45.73122 
L 148.316008 -45.78318 
L 149.064453 -45.830542 
L 149.812897 -45.878747 
L 150.561342 -45.934235 
L 151.309786 -46.004611 
L 152.058231 -46.067106 
L 152.806676 -46.141358 
L 153.55512 -46.229809 
L 154.303565 -46.324498 
L 155.052009 -46.42598 
L 155.800454 -46.539877 
L 156.548899 -46.667386 
L 157.297343 -46.820174 
L 158.045788 -47.001457 
L 158.794232 -47.188288 
L 159.542677 -47.394709 
L 160.291121 -47.626891 
L 161.039566 -47.876123 
L 161.788011 -48.142074 
L 162.536455 -48.450513 
L 163.2849 -48.763722 
L 164.033344 -49.109641 
L 164.781789 -49.469173 
L 165.530233 -49.855953 
L 166.278678 -50.265288 
L 167.027123 -50.712528 
L 167.775567 -51.168649 
L 168.524012 -51.64594 
L 169.272456 -52.159385 
L 170.020901 -52.695491 
L 170.769346 -53.243185 
L 171.51779 -53.810281 
L 172.266235 -54.395856 
L 173.014679 -54.998952 
L 173.763124 -55.618591 
L 174.511568 -56.269649 
L 175.260013 -56.938658 
L 176.008458 -57.619995 
L 176.756902 -58.303637 
L 177.505347 -58.996559 
L 178.253791 -59.721515 
L 179.002236 -60.43988 
L 179.75068 -61.178907 
L 180.499125 -61.929611 
L 181.24757 -62.708579 
L 181.996014 -63.482056 
L 182.744459 -64.262009 
L 183.492903 -65.063127 
L 184.241348 -65.881229 
L 184.989792 -66.712348 
L 185.738237 -67.562197 
L 186.486682 -68.453511 
L 187.235126 -69.329146 
L 187.983571 -70.209413 
L 188.732015 -71.134817 
L 189.48046 -72.065446 
L 190.228905 -73.030761 
L 190.977349 -74.007275 
L 191.725794 -74.994732 
L 192.474238 -76.02853 
L 193.222683 -77.081774 
L 193.971127 -78.17022 
L 194.719572 -79.259883 
L 195.468017 -80.383282 
L 196.216461 -81.532179 
L 196.964906 -82.696355 
L 197.71335 -83.900262 
L 198.461795 -85.1206 
L 199.210239 -86.387091 
L 199.958684 -87.656431 
L 200.707129 -88.949956 
L 201.455573 -90.267187 
L 202.204018 -91.612835 
L 202.952462 -92.997928 
L 203.700907 -94.404141 
L 204.449352 -95.836601 
L 205.197796 -97.30047 
L 205.946241 -98.806425 
L 206.694685 -100.315696 
L 207.44313 -101.860504 
L 208.191574 -103.453621 
L 208.940019 -105.058552 
L 209.688464 -106.672072 
L 210.436908 -108.32298 
L 211.185353 -110.023991 
L 211.933797 -111.75682 
L 212.682242 -113.534009 
L 213.430686 -115.334336 
L 214.179131 -117.155068 
L 214.927576 -119.013163 
L 215.67602 -120.920732 
L 216.424465 -122.860467 
L 217.172909 -124.811983 
L 217.921354 -126.828508 
L 218.669799 -128.888967 
L 219.418243 -130.996897 
L 220.166688 -133.123302 
L 220.915132 -135.284554 
L 221.663577 -137.483688 
L 222.412021 -139.710521 
L 223.160466 -142.015888 
L 223.908911 -144.357054 
L 224.657355 -146.7267 
L 225.4058 -149.107386 
L 226.154244 -151.548402 
L 226.902689 -154.031356 
L 227.651133 -156.527891 
L 228.399578 -159.060702 
L 229.148023 -161.623547 
L 229.896467 -164.201846 
L 230.644912 -166.837597 
L 231.393356 -169.503818 
L 232.141801 -172.185586 
L 232.890246 -174.871838 
L 233.63869 -177.570541 
L 234.387135 -180.295505 
L 235.135579 -183.020735 
L 235.884024 -185.74043 
L 236.632468 -188.478008 
L 237.380913 -191.209477 
L 238.129358 -193.939959 
L 238.877802 -196.653445 
L 239.626247 -199.375889 
L 240.374691 -202.069991 
L 241.123136 -204.751539 
L 241.87158 -207.37366 
L 242.620025 -209.982866 
L 243.36847 -212.533596 
L 244.116914 -215.046606 
L 244.865359 -217.50019 
L 245.613803 -219.937992 
L 246.362248 -222.298321 
L 247.110693 -224.604777 
L 247.859137 -226.871319 
L 248.607582 -229.052438 
L 249.356026 -231.160069 
L 250.104471 -233.214436 
L 250.852915 -235.226087 
L 251.60136 -237.1655 
L 252.349805 -239.075154 
L 253.098249 -240.896123 
L 253.846694 -242.687992 
L 254.595138 -244.389128 
L 255.343583 -246.039693 
L 256.092027 -247.642233 
L 256.840472 -249.215191 
L 257.588917 -250.739925 
L 258.337361 -252.231459 
L 259.085806 -253.665707 
L 259.83425 -255.085294 
L 260.582695 -256.456372 
L 261.33114 -257.778443 
L 262.079584 -259.115482 
L 262.828029 -260.490551 
L 263.576473 -261.796342 
L 264.324918 -263.1226 
L 265.073362 -264.398422 
L 265.821807 -265.727091 
L 266.570252 -267.077035 
L 267.318696 -268.393861 
L 268.067141 -269.731657 
L 268.815585 -271.063132 
L 269.56403 -272.450996 
L 270.312474 -273.82861 
L 271.060919 -275.230637 
L 271.809364 -276.699813 
L 272.557808 -278.142616 
L 273.306253 -279.603365 
L 274.054697 -281.067741 
L 274.803142 -282.578434 
L 275.551587 -284.093735 
L 276.300031 -285.605485 
L 277.048476 -287.147001 
L 277.79692 -288.682139 
L 278.545365 -290.233236 
L 279.293809 -291.777945 
L 280.042254 -293.31692 
L 280.790699 -294.842624 
L 281.539143 -296.37298 
L 282.287588 -297.914016 
L 283.036032 -299.429809 
L 283.784477 -300.977274 
L 284.532921 -302.533024 
L 285.281366 -304.013836 
L 286.029811 -305.458192 
L 286.778255 -306.929948 
L 287.5267 -308.354662 
L 288.275144 -309.76178 
L 289.023589 -311.148501 
L 289.772034 -312.500395 
L 290.520478 -313.77703 
L 291.268923 -315.03828 
L 292.017367 -316.271256 
L 292.765812 -317.440922 
L 293.514256 -318.567858 
L 294.262701 -319.642903 
L 295.011146 -320.674647 
L 295.75959 -321.67717 
L 296.508035 -322.662314 
L 297.256479 -323.556079 
L 298.004924 -324.350554 
L 298.753368 -325.11713 
L 299.501813 -325.839662 
L 300.250258 -326.497828 
L 300.998702 -327.04519 
L 301.747147 -327.575171 
L 302.495591 -328.0381 
L 303.244036 -328.399891 
L 303.992481 -328.690451 
L 304.740925 -328.91534 
L 305.48937 -329.031912 
L 306.237814 -329.071222 
L 306.986259 -329.04249 
L 307.734703 -328.933512 
L 308.483148 -328.763765 
L 309.231593 -328.478683 
L 309.980037 -328.110588 
L 310.728482 -327.682609 
L 311.476926 -327.143057 
L 312.225371 -326.519589 
L 312.973815 -325.823454 
L 313.72226 -325.034932 
L 314.470705 -324.130937 
L 315.219149 -323.154968 
L 315.967594 -322.08997 
L 316.716038 -320.975671 
L 317.464483 -319.775057 
L 318.212928 -318.522716 
L 318.961372 -317.173748 
L 319.709817 -315.769182 
L 320.458261 -314.269224 
L 321.206706 -312.728485 
L 321.95515 -311.129712 
L 322.703595 -309.439351 
L 323.45204 -307.731054 
L 324.200484 -305.985348 
L 324.948929 -304.174563 
L 325.697373 -302.30271 
L 326.445818 -300.400215 
L 327.194262 -298.45693 
L 327.942707 -296.455465 
L 328.691152 -294.451323 
L 329.439596 -292.424066 
L 330.188041 -290.374314 
L 330.936485 -288.25855 
L 331.68493 -286.135906 
L 332.433375 -284.003979 
L 333.181819 -281.821315 
L 333.930264 -279.655604 
L 334.678708 -277.452391 
L 335.427153 -275.266636 
L 336.175597 -273.070984 
L 336.924042 -270.867807 
L 337.672487 -268.63178 
L 338.420931 -266.450063 
L 339.169376 -264.236858 
L 339.91782 -262.08795 
L 340.666265 -259.887601 
L 341.414709 -257.68863 
L 342.163154 -255.55531 
L 342.911599 -253.41671 
L 343.660043 -251.311109 
L 344.408488 -249.202763 
L 345.156932 -247.136155 
L 345.905377 -245.093972 
L 346.653822 -243.038738 
L 347.402266 -241.035857 
L 348.150711 -239.091623 
L 348.899155 -237.137989 
L 349.6476 -235.206011 
L 350.396044 -233.303683 
L 351.144489 -231.442348 
L 351.892934 -229.569219 
L 352.641378 -227.727451 
L 353.389823 -225.89555 
L 354.138267 -224.062864 
L 354.886712 -222.247144 
L 355.635156 -220.451935 
L 356.383601 -218.649663 
L 357.132046 -216.813524 
L 357.88049 -214.972049 
L 358.628935 -213.111112 
L 359.377379 -211.228529 
L 360.125824 -209.383785 
L 360.874269 -207.519586 
L 361.622713 -205.585557 
L 362.371158 -203.655115 
L 363.119602 -201.70619 
L 363.868047 -199.745135 
L 364.616491 -197.761664 
L 365.364936 -195.779071 
L 366.113381 -193.760595 
L 366.861825 -191.72361 
L 367.61027 -189.675169 
L 368.358714 -187.599097 
L 369.107159 -185.51213 
L 369.855603 -183.433579 
L 370.604048 -181.327538 
L 371.352493 -179.196278 
L 372.100937 -177.087126 
L 372.849382 -174.98658 
L 373.597826 -172.863391 
L 374.346271 -170.740636 
L 375.094716 -168.642604 
L 375.84316 -166.54839 
L 376.591605 -164.412686 
L 377.340049 -162.320713 
L 378.088494 -160.236635 
L 378.836938 -158.152488 
L 379.585383 -156.062869 
L 380.333828 -153.988423 
L 381.082272 -151.912613 
L 381.830717 -149.810664 
L 382.579161 -147.723386 
L 383.327606 -145.620486 
L 384.07605 -143.528202 
L 384.824495 -141.441193 
L 385.57294 -139.348866 
L 386.321384 -137.252001 
L 387.069829 -135.135807 
L 387.818273 -133.030973 
L 388.566718 -130.928603 
L 389.315163 -128.847265 
L 390.063607 -126.769944 
L 390.812052 -124.701121 
L 391.560496 -122.630696 
L 392.308941 -120.602766 
L 393.057385 -118.584581 
L 393.80583 -116.593771 
L 394.554275 -114.634159 
L 395.302719 -112.714919 
L 396.051164 -110.830441 
L 396.799608 -108.981046 
L 397.548053 -107.199739 
L 398.296497 -105.452487 
L 399.044942 -103.745568 
L 399.793387 -102.111217 
L 400.541831 -100.545501 
L 401.290276 -99.054696 
L 402.03872 -97.61252 
L 402.787165 -96.269959 
L 403.53561 -94.95611 
L 404.284054 -93.729459 
L 405.032499 -92.559004 
L 405.780943 -91.474874 
L 406.529388 -90.449576 
L 407.277832 -89.477051 
L 408.026277 -88.575618 
L 408.774722 -87.70687 
L 409.523166 -86.891053 
L 410.271611 -86.104528 
L 411.020055 -85.357175 
L 411.7685 -84.638617 
L 412.516944 -83.934939 
L 413.265389 -83.243392 
L 414.013834 -82.586142 
L 414.762278 -81.918802 
L 415.510723 -81.274543 
L 416.259167 -80.632187 
L 417.007612 -79.960841 
L 417.756057 -79.300004 
L 418.504501 -78.621017 
L 419.252946 -77.930648 
L 420.00139 -77.217069 
L 420.749835 -76.475037 
L 421.498279 -75.717848 
L 422.246724 -74.953295 
L 422.995169 -74.139597 
L 423.743613 -73.333266 
L 424.492058 -72.499397 
L 425.240502 -71.644665 
L 425.988947 -70.762139 
L 426.737391 -69.868509 
L 427.485836 -68.952057 
L 428.234281 -68.029899 
L 428.982725 -67.116717 
L 429.73117 -66.190409 
L 430.479614 -65.242154 
L 431.228059 -64.313125 
L 431.976504 -63.385503 
L 432.724948 -62.46254 
L 433.473393 -61.538689 
L 434.221837 -60.644576 
L 434.970282 -59.749197 
L 435.718726 -58.880508 
L 436.467171 -58.030534 
L 437.215616 -57.196362 
L 437.96406 -56.389572 
L 438.712505 -55.61637 
L 439.460949 -54.859415 
L 440.209394 -54.129664 
L 440.957838 -53.423838 
L 441.706283 -52.752228 
L 442.454728 -52.101459 
L 443.203172 -51.490855 
L 443.951617 -50.905697 
L 444.700061 -50.355461 
L 445.448506 -49.830352 
L 446.196951 -49.335169 
L 446.945395 -48.877981 
L 447.69384 -48.447794 
L 448.442284 -48.049334 
L 449.190729 -47.673416 
L 449.939173 -47.314969 
L 450.687618 -46.986874 
L 451.436063 -46.687233 
L 452.184507 -46.388219 
L 452.932952 -46.127656 
L 453.681396 -45.888591 
L 454.429841 -45.674293 
L 455.178285 -45.461203 
L 455.92673 -45.268955 
L 456.675175 -45.113498 
L 457.423619 -44.968627 
L 458.172064 -44.84744 
L 458.920508 -44.744103 
L 459.668953 -44.639905 
L 460.417398 -44.540198 
L 461.165842 -44.467425 
L 461.914287 -44.414728 
L 462.662731 -44.362551 
L 463.411176 -44.32424 
L 464.15962 -44.294035 
L 464.908065 -44.267104 
L 465.65651 -44.248071 
L 466.404954 -44.240625 
L 467.153399 -44.221616 
L 467.901843 -44.219758 
L 468.650288 -44.228081 
L 469.398732 -44.240746 
L 470.147177 -44.257201 
L 470.895622 -44.281245 
L 471.644066 -44.307204 
L 472.392511 -44.330337 
L 473.140955 -44.359712 
L 473.8894 -44.389652 
L 474.637845 -44.419761 
L 475.386289 -44.454934 
L 476.134734 -44.480991 
L 476.883178 -44.511397 
L 477.631623 -44.540548 
L 478.380067 -44.568141 
L 479.128512 -44.593892 
L 479.876957 -44.617532 
L 480.625401 -44.638813 
L 481.373846 -44.653168 
L 482.12229 -44.665523 
L 482.870735 -44.679909 
L 483.619179 -44.69092 
L 484.367624 -44.703747 
L 485.116069 -44.70886 
L 485.116069 -41.627622 
L 485.116069 -41.627622 
L 484.367624 -41.627622 
L 483.619179 -41.627622 
L 482.870735 -41.627622 
L 482.12229 -41.627622 
L 481.373846 -41.627622 
L 480.625401 -41.627622 
L 479.876957 -41.627622 
L 479.128512 -41.627622 
L 478.380067 -41.627622 
L 477.631623 -41.627622 
L 476.883178 -41.627622 
L 476.134734 -41.627622 
L 475.386289 -41.627622 
L 474.637845 -41.627622 
L 473.8894 -41.627622 
L 473.140955 -41.627622 
L 472.392511 -41.627622 
L 471.644066 -41.627622 
L 470.895622 -41.627622 
L 470.147177 -41.627622 
L 469.398732 -41.627622 
L 468.650288 -41.627622 
L 467.901843 -41.627622 
L 467.153399 -41.627622 
L 466.404954 -41.627622 
L 465.65651 -41.627622 
L 464.908065 -41.627622 
L 464.15962 -41.627622 
L 463.411176 -41.627622 
L 462.662731 -41.627622 
L 461.914287 -41.627622 
L 461.165842 -41.627622 
L 460.417398 -41.627622 
L 459.668953 -41.627622 
L 458.920508 -41.627622 
L 458.172064 -41.627622 
L 457.423619 -41.627622 
L 456.675175 -41.627622 
L 455.92673 -41.627622 
L 455.178285 -41.627622 
L 454.429841 -41.627622 
L 453.681396 -41.627622 
L 452.932952 -41.627622 
L 452.184507 -41.627622 
L 451.436063 -41.627622 
L 450.687618 -41.627622 
L 449.939173 -41.627622 
L 449.190729 -41.627622 
L 448.442284 -41.627622 
L 447.69384 -41.627622 
L 446.945395 -41.627622 
L 446.196951 -41.627622 
L 445.448506 -41.627622 
L 444.700061 -41.627622 
L 443.951617 -41.627622 
L 443.203172 -41.627622 
L 442.454728 -41.627622 
L 441.706283 -41.627622 
L 440.957838 -41.627622 
L 440.209394 -41.627622 
L 439.460949 -41.627622 
L 438.712505 -41.627622 
L 437.96406 -41.627622 
L 437.215616 -41.627622 
L 436.467171 -41.627622 
L 435.718726 -41.627622 
L 434.970282 -41.627622 
L 434.221837 -41.627622 
L 433.473393 -41.627622 
L 432.724948 -41.627622 
L 431.976504 -41.627622 
L 431.228059 -41.627622 
L 430.479614 -41.627622 
L 429.73117 -41.627622 
L 428.982725 -41.627622 
L 428.234281 -41.627622 
L 427.485836 -41.627622 
L 426.737391 -41.627622 
L 425.988947 -41.627622 
L 425.240502 -41.627622 
L 424.492058 -41.627622 
L 423.743613 -41.627622 
L 422.995169 -41.627622 
L 422.246724 -41.627622 
L 421.498279 -41.627622 
L 420.749835 -41.627622 
L 420.00139 -41.627622 
L 419.252946 -41.627622 
L 418.504501 -41.627622 
L 417.756057 -41.627622 
L 417.007612 -41.627622 
L 416.259167 -41.627622 
L 415.510723 -41.627622 
L 414.762278 -41.627622 
L 414.013834 -41.627622 
L 413.265389 -41.627622 
L 412.516944 -41.627622 
L 411.7685 -41.627622 
L 411.020055 -41.627622 
L 410.271611 -41.627622 
L 409.523166 -41.627622 
L 408.774722 -41.627622 
L 408.026277 -41.627622 
L 407.277832 -41.627622 
L 406.529388 -41.627622 
L 405.780943 -41.627622 
L 405.032499 -41.627622 
L 404.284054 -41.627622 
L 403.53561 -41.627622 
L 402.787165 -41.627622 
L 402.03872 -41.627622 
L 401.290276 -41.627622 
L 400.541831 -41.627622 
L 399.793387 -41.627622 
L 399.044942 -41.627622 
L 398.296497 -41.627622 
L 397.548053 -41.627622 
L 396.799608 -41.627622 
L 396.051164 -41.627622 
L 395.302719 -41.627622 
L 394.554275 -41.627622 
L 393.80583 -41.627622 
L 393.057385 -41.627622 
L 392.308941 -41.627622 
L 391.560496 -41.627622 
L 390.812052 -41.627622 
L 390.063607 -41.627622 
L 389.315163 -41.627622 
L 388.566718 -41.627622 
L 387.818273 -41.627622 
L 387.069829 -41.627622 
L 386.321384 -41.627622 
L 385.57294 -41.627622 
L 384.824495 -41.627622 
L 384.07605 -41.627622 
L 383.327606 -41.627622 
L 382.579161 -41.627622 
L 381.830717 -41.627622 
L 381.082272 -41.627622 
L 380.333828 -41.627622 
L 379.585383 -41.627622 
L 378.836938 -41.627622 
L 378.088494 -41.627622 
L 377.340049 -41.627622 
L 376.591605 -41.627622 
L 375.84316 -41.627622 
L 375.094716 -41.627622 
L 374.346271 -41.627622 
L 373.597826 -41.627622 
L 372.849382 -41.627622 
L 372.100937 -41.627622 
L 371.352493 -41.627622 
L 370.604048 -41.627622 
L 369.855603 -41.627622 
L 369.107159 -41.627622 
L 368.358714 -41.627622 
L 367.61027 -41.627622 
L 366.861825 -41.627622 
L 366.113381 -41.627622 
L 365.364936 -41.627622 
L 364.616491 -41.627622 
L 363.868047 -41.627622 
L 363.119602 -41.627622 
L 362.371158 -41.627622 
L 361.622713 -41.627622 
L 360.874269 -41.627622 
L 360.125824 -41.627622 
L 359.377379 -41.627622 
L 358.628935 -41.627622 
L 357.88049 -41.627622 
L 357.132046 -41.627622 
L 356.383601 -41.627622 
L 355.635156 -41.627622 
L 354.886712 -41.627622 
L 354.138267 -41.627622 
L 353.389823 -41.627622 
L 352.641378 -41.627622 
L 351.892934 -41.627622 
L 351.144489 -41.627622 
L 350.396044 -41.627622 
L 349.6476 -41.627622 
L 348.899155 -41.627622 
L 348.150711 -41.627622 
L 347.402266 -41.627622 
L 346.653822 -41.627622 
L 345.905377 -41.627622 
L 345.156932 -41.627622 
L 344.408488 -41.627622 
L 343.660043 -41.627622 
L 342.911599 -41.627622 
L 342.163154 -41.627622 
L 341.414709 -41.627622 
L 340.666265 -41.627622 
L 339.91782 -41.627622 
L 339.169376 -41.627622 
L 338.420931 -41.627622 
L 337.672487 -41.627622 
L 336.924042 -41.627622 
L 336.175597 -41.627622 
L 335.427153 -41.627622 
L 334.678708 -41.627622 
L 333.930264 -41.627622 
L 333.181819 -41.627622 
L 332.433375 -41.627622 
L 331.68493 -41.627622 
L 330.936485 -41.627622 
L 330.188041 -41.627622 
L 329.439596 -41.627622 
L 328.691152 -41.627622 
L 327.942707 -41.627622 
L 327.194262 -41.627622 
L 326.445818 -41.627622 
L 325.697373 -41.627622 
L 324.948929 -41.627622 
L 324.200484 -41.627622 
L 323.45204 -41.627622 
L 322.703595 -41.627622 
L 321.95515 -41.627622 
L 321.206706 -41.627622 
L 320.458261 -41.627622 
L 319.709817 -41.627622 
L 318.961372 -41.627622 
L 318.212928 -41.627622 
L 317.464483 -41.627622 
L 316.716038 -41.627622 
L 315.967594 -41.627622 
L 315.219149 -41.627622 
L 314.470705 -41.627622 
L 313.72226 -41.627622 
L 312.973815 -41.627622 
L 312.225371 -41.627622 
L 311.476926 -41.627622 
L 310.728482 -41.627622 
L 309.980037 -41.627622 
L 309.231593 -41.627622 
L 308.483148 -41.627622 
L 307.734703 -41.627622 
L 306.986259 -41.627622 
L 306.237814 -41.627622 
L 305.48937 -41.627622 
L 304.740925 -41.627622 
L 303.992481 -41.627622 
L 303.244036 -41.627622 
L 302.495591 -41.627622 
L 301.747147 -41.627622 
L 300.998702 -41.627622 
L 300.250258 -41.627622 
L 299.501813 -41.627622 
L 298.753368 -41.627622 
L 298.004924 -41.627622 
L 297.256479 -41.627622 
L 296.508035 -41.627622 
L 295.75959 -41.627622 
L 295.011146 -41.627622 
L 294.262701 -41.627622 
L 293.514256 -41.627622 
L 292.765812 -41.627622 
L 292.017367 -41.627622 
L 291.268923 -41.627622 
L 290.520478 -41.627622 
L 289.772034 -41.627622 
L 289.023589 -41.627622 
L 288.275144 -41.627622 
L 287.5267 -41.627622 
L 286.778255 -41.627622 
L 286.029811 -41.627622 
L 285.281366 -41.627622 
L 284.532921 -41.627622 
L 283.784477 -41.627622 
L 283.036032 -41.627622 
L 282.287588 -41.627622 
L 281.539143 -41.627622 
L 280.790699 -41.627622 
L 280.042254 -41.627622 
L 279.293809 -41.627622 
L 278.545365 -41.627622 
L 277.79692 -41.627622 
L 277.048476 -41.627622 
L 276.300031 -41.627622 
L 275.551587 -41.627622 
L 274.803142 -41.627622 
L 274.054697 -41.627622 
L 273.306253 -41.627622 
L 272.557808 -41.627622 
L 271.809364 -41.627622 
L 271.060919 -41.627622 
L 270.312474 -41.627622 
L 269.56403 -41.627622 
L 268.815585 -41.627622 
L 268.067141 -41.627622 
L 267.318696 -41.627622 
L 266.570252 -41.627622 
L 265.821807 -41.627622 
L 265.073362 -41.627622 
L 264.324918 -41.627622 
L 263.576473 -41.627622 
L 262.828029 -41.627622 
L 262.079584 -41.627622 
L 261.33114 -41.627622 
L 260.582695 -41.627622 
L 259.83425 -41.627622 
L 259.085806 -41.627622 
L 258.337361 -41.627622 
L 257.588917 -41.627622 
L 256.840472 -41.627622 
L 256.092027 -41.627622 
L 255.343583 -41.627622 
L 254.595138 -41.627622 
L 253.846694 -41.627622 
L 253.098249 -41.627622 
L 252.349805 -41.627622 
L 251.60136 -41.627622 
L 250.852915 -41.627622 
L 250.104471 -41.627622 
L 249.356026 -41.627622 
L 248.607582 -41.627622 
L 247.859137 -41.627622 
L 247.110693 -41.627622 
L 246.362248 -41.627622 
L 245.613803 -41.627622 
L 244.865359 -41.627622 
L 244.116914 -41.627622 
L 243.36847 -41.627622 
L 242.620025 -41.627622 
L 241.87158 -41.627622 
L 241.123136 -41.627622 
L 240.374691 -41.627622 
L 239.626247 -41.627622 
L 238.877802 -41.627622 
L 238.129358 -41.627622 
L 237.380913 -41.627622 
L 236.632468 -41.627622 
L 235.884024 -41.627622 
L 235.135579 -41.627622 
L 234.387135 -41.627622 
L 233.63869 -41.627622 
L 232.890246 -41.627622 
L 232.141801 -41.627622 
L 231.393356 -41.627622 
L 230.644912 -41.627622 
L 229.896467 -41.627622 
L 229.148023 -41.627622 
L 228.399578 -41.627622 
L 227.651133 -41.627622 
L 226.902689 -41.627622 
L 226.154244 -41.627622 
L 225.4058 -41.627622 
L 224.657355 -41.627622 
L 223.908911 -41.627622 
L 223.160466 -41.627622 
L 222.412021 -41.627622 
L 221.663577 -41.627622 
L 220.915132 -41.627622 
L 220.166688 -41.627622 
L 219.418243 -41.627622 
L 218.669799 -41.627622 
L 217.921354 -41.627622 
L 217.172909 -41.627622 
L 216.424465 -41.627622 
L 215.67602 -41.627622 
L 214.927576 -41.627622 
L 214.179131 -41.627622 
L 213.430686 -41.627622 
L 212.682242 -41.627622 
L 211.933797 -41.627622 
L 211.185353 -41.627622 
L 210.436908 -41.627622 
L 209.688464 -41.627622 
L 208.940019 -41.627622 
L 208.191574 -41.627622 
L 207.44313 -41.627622 
L 206.694685 -41.627622 
L 205.946241 -41.627622 
L 205.197796 -41.627622 
L 204.449352 -41.627622 
L 203.700907 -41.627622 
L 202.952462 -41.627622 
L 202.204018 -41.627622 
L 201.455573 -41.627622 
L 200.707129 -41.627622 
L 199.958684 -41.627622 
L 199.210239 -41.627622 
L 198.461795 -41.627622 
L 197.71335 -41.627622 
L 196.964906 -41.627622 
L 196.216461 -41.627622 
L 195.468017 -41.627622 
L 194.719572 -41.627622 
L 193.971127 -41.627622 
L 193.222683 -41.627622 
L 192.474238 -41.627622 
L 191.725794 -41.627622 
L 190.977349 -41.627622 
L 190.228905 -41.627622 
L 189.48046 -41.627622 
L 188.732015 -41.627622 
L 187.983571 -41.627622 
L 187.235126 -41.627622 
L 186.486682 -41.627622 
L 185.738237 -41.627622 
L 184.989792 -41.627622 
L 184.241348 -41.627622 
L 183.492903 -41.627622 
L 182.744459 -41.627622 
L 181.996014 -41.627622 
L 181.24757 -41.627622 
L 180.499125 -41.627622 
L 179.75068 -41.627622 
L 179.002236 -41.627622 
L 178.253791 -41.627622 
L 177.505347 -41.627622 
L 176.756902 -41.627622 
L 176.008458 -41.627622 
L 175.260013 -41.627622 
L 174.511568 -41.627622 
L 173.763124 -41.627622 
L 173.014679 -41.627622 
L 172.266235 -41.627622 
L 171.51779 -41.627622 
L 170.769346 -41.627622 
L 170.020901 -41.627622 
L 169.272456 -41.627622 
L 168.524012 -41.627622 
L 167.775567 -41.627622 
L 167.027123 -41.627622 
L 166.278678 -41.627622 
L 165.530233 -41.627622 
L 164.781789 -41.627622 
L 164.033344 -41.627622 
L 163.2849 -41.627622 
L 162.536455 -41.627622 
L 161.788011 -41.627622 
L 161.039566 -41.627622 
L 160.291121 -41.627622 
L 159.542677 -41.627622 
L 158.794232 -41.627622 
L 158.045788 -41.627622 
L 157.297343 -41.627622 
L 156.548899 -41.627622 
L 155.800454 -41.627622 
L 155.052009 -41.627622 
L 154.303565 -41.627622 
L 153.55512 -41.627622 
L 152.806676 -41.627622 
L 152.058231 -41.627622 
L 151.309786 -41.627622 
L 150.561342 -41.627622 
L 149.812897 -41.627622 
L 149.064453 -41.627622 
L 148.316008 -41.627622 
L 147.567564 -41.627622 
L 146.819119 -41.627622 
L 146.070674 -41.627622 
L 145.32223 -41.627622 
L 144.573785 -41.627622 
L 143.825341 -41.627622 
L 143.076896 -41.627622 
L 142.328452 -41.627622 
L 141.580007 -41.627622 
L 140.831562 -41.627622 
L 140.083118 -41.627622 
L 139.334673 -41.627622 
L 138.586229 -41.627622 
L 137.837784 -41.627622 
L 137.089339 -41.627622 
L 136.340895 -41.627622 
L 135.59245 -41.627622 
L 134.844006 -41.627622 
L 134.095561 -41.627622 
L 133.347117 -41.627622 
L 132.598672 -41.627622 
L 131.850227 -41.627622 
L 131.101783 -41.627622 
L 130.353338 -41.627622 
L 129.604894 -41.627622 
L 128.856449 -41.627622 
L 128.108005 -41.627622 
L 127.35956 -41.627622 
L 126.611115 -41.627622 
L 125.862671 -41.627622 
L 125.114226 -41.627622 
L 124.365782 -41.627622 
L 123.617337 -41.627622 
L 122.868892 -41.627622 
L 122.120448 -41.627622 
L 121.372003 -41.627622 
L 120.623559 -41.627622 
L 119.875114 -41.627622 
L 119.12667 -41.627622 
L 118.378225 -41.627622 
L 117.62978 -41.627622 
L 116.881336 -41.627622 
L 116.132891 -41.627622 
L 115.384447 -41.627622 
L 114.636002 -41.627622 
L 113.887558 -41.627622 
L 113.139113 -41.627622 
L 112.390668 -41.627622 
L 111.642224 -41.627622 
L 110.893779 -41.627622 
L 110.145335 -41.627622 
L 109.39689 -41.627622 
L 108.648445 -41.627622 
L 107.900001 -41.627622 
L 107.151556 -41.627622 
L 106.403112 -41.627622 
L 105.654667 -41.627622 
L 104.906223 -41.627622 
L 104.157778 -41.627622 
L 103.409333 -41.627622 
L 102.660889 -41.627622 
z
" style="stroke: #2a2eec; stroke-opacity: 0; stroke-width: 0.8"/>
    </defs>
    <g clip-path="url(#p118a7c805e)">
     <use xlink:href="#m5b32764c71" x="0" y="368.39952" style="fill: #2a2eec; fill-opacity: 0; stroke: #2a2eec; stroke-opacity: 0; stroke-width: 0.8"/>
    </g>
   </g>
   <g id="line2d_19">
    <path d="M 102.660889 325.42968 
L 108.648445 325.543222 
L 118.378225 325.773399 
L 122.868892 325.60301 
L 127.35956 325.172188 
L 133.347117 324.310288 
L 140.083118 323.336469 
L 146.070674 322.777535 
L 152.806676 322.258162 
L 156.548899 321.732134 
L 158.794232 321.211232 
L 161.039566 320.523397 
L 163.2849 319.635798 
L 166.278678 318.134232 
L 169.272456 316.240135 
L 172.266235 314.003664 
L 175.260013 311.460862 
L 179.002236 307.95964 
L 182.744459 304.137511 
L 185.738237 300.837323 
L 190.228905 295.368759 
L 193.222683 291.317746 
L 196.964906 285.703165 
L 199.958684 280.743089 
L 202.952462 275.401592 
L 205.946241 269.593095 
L 208.940019 263.340968 
L 211.933797 256.6427 
L 215.67602 247.478788 
L 218.669799 239.510553 
L 222.412021 228.688999 
L 226.154244 216.851118 
L 229.896467 204.197674 
L 235.135579 185.378785 
L 243.36847 155.865924 
L 246.362248 146.101199 
L 248.607582 139.347082 
L 251.60136 131.23402 
L 253.846694 125.711528 
L 256.092027 120.757287 
L 258.337361 116.168061 
L 261.33114 110.621077 
L 271.809364 91.699707 
L 275.551587 84.305785 
L 283.036032 68.969711 
L 286.778255 61.469572 
L 289.772034 55.899125 
L 292.765812 50.958598 
L 295.011146 47.724873 
L 297.256479 44.843441 
L 299.501813 42.559858 
L 300.998702 41.35433 
L 302.495591 40.36142 
L 303.992481 39.709069 
L 305.48937 39.367608 
L 306.986259 39.35703 
L 308.483148 39.635755 
L 309.980037 40.288932 
L 311.476926 41.256463 
L 312.973815 42.576066 
L 314.470705 44.268583 
L 315.967594 46.30955 
L 317.464483 48.624463 
L 318.961372 51.225772 
L 321.206706 55.671035 
L 323.45204 60.668466 
L 325.697373 66.09681 
L 328.691152 73.948197 
L 332.433375 84.395541 
L 345.156932 121.263365 
L 348.899155 131.261531 
L 352.641378 140.672069 
L 362.371158 164.744405 
L 366.861825 176.67591 
L 372.100937 191.312394 
L 393.057385 249.814939 
L 396.051164 257.569079 
L 398.296497 262.947033 
L 400.541831 267.854019 
L 402.787165 272.129561 
L 404.284054 274.670061 
L 405.780943 276.924646 
L 408.026277 279.823902 
L 410.271611 282.294992 
L 413.265389 285.156128 
L 420.00139 291.182451 
L 422.995169 294.259923 
L 425.988947 297.637381 
L 430.479614 303.157366 
L 435.718726 309.519012 
L 438.712505 312.78315 
L 440.957838 314.975682 
L 443.203172 316.908665 
L 445.448506 318.569168 
L 447.69384 319.951726 
L 449.939173 321.084551 
L 452.184507 322.011301 
L 455.178285 322.938317 
L 457.423619 323.430893 
L 461.165842 323.932095 
L 465.65651 324.151449 
L 470.895622 324.118275 
L 485.116069 323.69066 
L 485.116069 323.69066 
" clip-path="url(#p118a7c805e)" style="fill: none; stroke: #2a2eec; stroke-width: 2.151657; stroke-linecap: round"/>
   </g>
   <g id="line2d_20">
    <path d="M 199.080066 319.913186 
L 397.353231 319.913186 
" clip-path="url(#p118a7c805e)" style="fill: none; stroke: #000000; stroke-width: 4.303315"/>
   </g>
   <g id="patch_3">
    <path d="M 16.613501 341.144078 
L 567.786019 341.144078 
" style="fill: none"/>
   </g>
   <g id="text_10">
    <!-- 0.73  -->
    <g style="fill: #262626" transform="translate(166.805205 302.766404)scale(0.161374 -0.161374)">
     <defs>
      <path id="STIXGeneral-Regular-37" d="M 2874 4134 
L 1517 -51 
L 1101 -51 
L 2368 3763 
L 992 3763 
Q 717 3763 582 3667 
Q 448 3571 243 3238 
L 128 3296 
L 512 4237 
L 2874 4237 
L 2874 4134 
z
" transform="scale(0.015625)"/>
      <path id="STIXGeneral-Regular-33" d="M 390 3264 
L 288 3290 
Q 435 3770 748 4048 
Q 1062 4326 1542 4326 
Q 1990 4326 2265 4083 
Q 2541 3840 2541 3450 
Q 2541 2925 1946 2566 
Q 2298 2413 2477 2227 
Q 2758 1914 2758 1402 
Q 2758 890 2464 506 
Q 2246 211 1840 60 
Q 1434 -90 979 -90 
Q 262 -90 262 275 
Q 262 378 339 442 
Q 416 506 525 506 
Q 685 506 915 339 
Q 1197 141 1466 141 
Q 1818 141 2058 425 
Q 2298 710 2298 1120 
Q 2298 1856 1632 2048 
Q 1434 2112 979 2112 
L 979 2202 
Q 1338 2323 1517 2432 
Q 2035 2726 2035 3290 
Q 2035 3610 1852 3776 
Q 1670 3942 1344 3942 
Q 768 3942 390 3264 
z
" transform="scale(0.015625)"/>
      <path id="STIXGeneral-Regular-20" transform="scale(0.015625)"/>
     </defs>
     <use xlink:href="#STIXGeneral-Regular-30"/>
     <use xlink:href="#STIXGeneral-Regular-2e" x="49.999985"/>
     <use xlink:href="#STIXGeneral-Regular-37" x="74.999969"/>
     <use xlink:href="#STIXGeneral-Regular-33" x="124.999954"/>
     <use xlink:href="#STIXGeneral-Regular-20" x="174.999939"/>
    </g>
   </g>
   <g id="text_11">
    <!--  1.3 -->
    <g style="fill: #262626" transform="translate(397.353231 302.766404)scale(0.161374 -0.161374)">
     <use xlink:href="#STIXGeneral-Regular-20"/>
     <use xlink:href="#STIXGeneral-Regular-31" x="24.999985"/>
     <use xlink:href="#STIXGeneral-Regular-2e" x="74.999969"/>
     <use xlink:href="#STIXGeneral-Regular-33" x="99.999954"/>
    </g>
   </g>
   <g id="text_12">
    <!-- 94% HDI -->
    <g style="fill: #262626" transform="translate(267.764813 223.89121)scale(0.161374 -0.161374)">
     <defs>
      <path id="STIXGeneral-Regular-39" d="M 378 -141 
L 358 -13 
Q 1094 115 1603 608 
Q 2112 1101 2304 1882 
Q 1933 1517 1344 1517 
Q 826 1517 509 1875 
Q 192 2234 192 2816 
Q 192 3462 573 3894 
Q 954 4326 1523 4326 
Q 2131 4326 2528 3840 
Q 2938 3328 2938 2522 
Q 2938 1958 2742 1462 
Q 2547 966 2170 621 
Q 1773 262 1395 105 
Q 1018 -51 378 -141 
z
M 2317 2272 
L 2317 2522 
Q 2317 4147 1472 4147 
Q 1171 4147 1005 3930 
Q 909 3802 845 3546 
Q 781 3290 781 3034 
Q 781 2464 995 2128 
Q 1210 1792 1568 1792 
Q 1824 1792 2070 1917 
Q 2317 2042 2317 2272 
z
" transform="scale(0.015625)"/>
      <path id="STIXGeneral-Regular-25" d="M 4390 1363 
Q 4390 781 4070 329 
Q 3750 -122 3341 -122 
Q 3014 -122 2790 134 
Q 2566 390 2566 762 
Q 2566 1274 2940 1693 
Q 3315 2112 3776 2112 
Q 4070 2112 4230 1917 
Q 4390 1722 4390 1363 
z
M 4243 1376 
Q 4243 1626 4131 1779 
Q 4019 1933 3840 1933 
Q 3654 1933 3526 1786 
Q 3315 1562 3171 1187 
Q 3027 813 3027 486 
Q 3027 301 3129 176 
Q 3232 51 3386 51 
Q 3718 51 3980 457 
Q 4243 864 4243 1376 
z
M 3974 4518 
L 1222 -115 
L 922 -115 
L 3443 4096 
Q 3264 3891 3094 3811 
Q 2925 3731 2669 3731 
Q 2445 3731 2182 3821 
Q 2208 3674 2208 3539 
Q 2208 3206 2067 2873 
Q 1926 2541 1696 2323 
Q 1453 2086 1146 2086 
Q 826 2086 608 2339 
Q 390 2592 390 2963 
Q 390 3507 761 3916 
Q 1133 4326 1626 4326 
Q 1792 4326 2010 4147 
Q 2310 3898 2624 3898 
Q 2918 3898 3084 3994 
Q 3251 4090 3693 4518 
L 3974 4518 
z
M 2054 3642 
Q 2054 3782 2025 3833 
Q 1997 3885 1894 3936 
Q 1747 4006 1613 4154 
Q 1414 4058 1331 3984 
Q 1248 3910 1152 3750 
Q 845 3264 845 2707 
Q 845 2509 944 2384 
Q 1043 2259 1210 2259 
Q 1549 2259 1801 2675 
Q 2054 3091 2054 3642 
z
" transform="scale(0.015625)"/>
      <path id="STIXGeneral-Regular-48" d="M 4499 0 
L 2714 0 
L 2714 122 
Q 3085 147 3181 265 
Q 3277 384 3277 794 
L 3277 2016 
L 1338 2016 
L 1338 723 
Q 1338 371 1440 256 
Q 1542 141 1894 122 
L 1901 0 
L 115 0 
L 115 122 
Q 493 147 589 259 
Q 685 371 685 781 
L 685 3507 
Q 685 3878 585 3980 
Q 486 4083 115 4115 
L 115 4237 
L 1907 4237 
L 1907 4115 
Q 1549 4083 1443 3977 
Q 1338 3872 1338 3507 
L 1338 2298 
L 3277 2298 
L 3277 3507 
Q 3277 3878 3177 3980 
Q 3078 4083 2707 4115 
L 2707 4237 
L 4499 4237 
L 4499 4115 
Q 4141 4083 4035 3977 
Q 3930 3872 3930 3507 
L 3930 710 
Q 3930 371 4035 259 
Q 4141 147 4499 122 
L 4499 0 
z
" transform="scale(0.015625)"/>
      <path id="STIXGeneral-Regular-44" d="M 102 4237 
L 1830 4237 
Q 3078 4237 3750 3654 
Q 4384 3110 4384 2138 
Q 4384 966 3514 410 
Q 2880 0 1901 0 
L 102 0 
L 102 122 
Q 474 147 570 252 
Q 666 358 666 736 
L 666 3520 
Q 666 3891 570 3990 
Q 474 4090 102 4115 
L 102 4237 
z
M 1318 3731 
L 1318 538 
Q 1318 365 1379 301 
Q 1440 237 1626 237 
Q 2125 237 2432 307 
Q 2739 378 3021 570 
Q 3686 1018 3686 2099 
Q 3686 3027 3078 3558 
Q 2803 3802 2476 3901 
Q 2150 4000 1658 4000 
Q 1472 4000 1395 3942 
Q 1318 3885 1318 3731 
z
" transform="scale(0.015625)"/>
      <path id="STIXGeneral-Regular-49" d="M 2016 0 
L 115 0 
L 115 122 
Q 518 134 627 240 
Q 736 346 736 717 
L 736 3526 
Q 736 3898 633 3994 
Q 531 4090 115 4115 
L 115 4237 
L 2016 4237 
L 2016 4115 
Q 1613 4096 1501 3993 
Q 1389 3891 1389 3526 
L 1389 717 
Q 1389 358 1504 246 
Q 1619 134 2016 122 
L 2016 0 
z
" transform="scale(0.015625)"/>
     </defs>
     <use xlink:href="#STIXGeneral-Regular-39"/>
     <use xlink:href="#STIXGeneral-Regular-34" x="49.999985"/>
     <use xlink:href="#STIXGeneral-Regular-25" x="99.999969"/>
     <use xlink:href="#STIXGeneral-Regular-20" x="174.699951"/>
     <use xlink:href="#STIXGeneral-Regular-48" x="199.699936"/>
     <use xlink:href="#STIXGeneral-Regular-44" x="271.899918"/>
     <use xlink:href="#STIXGeneral-Regular-49" x="344.099899"/>
    </g>
   </g>
   <g id="text_13">
    <!-- mean=1 -->
    <g style="fill: #262626" transform="translate(276.308743 52.423395)scale(0.161374 -0.161374)">
     <defs>
      <path id="STIXGeneral-Regular-6d" d="M 4960 0 
L 3565 0 
L 3565 96 
Q 3834 122 3907 208 
Q 3981 294 3981 576 
L 3981 1894 
Q 3981 2278 3869 2444 
Q 3757 2611 3488 2611 
Q 3264 2611 3107 2521 
Q 2950 2432 2803 2221 
L 2803 608 
Q 2803 301 2896 201 
Q 2989 102 3264 96 
L 3264 0 
L 1830 0 
L 1830 96 
Q 2112 115 2189 188 
Q 2266 262 2266 550 
L 2266 1901 
Q 2266 2611 1850 2611 
Q 1670 2611 1468 2531 
Q 1267 2451 1171 2336 
Q 1088 2240 1088 2227 
L 1088 448 
Q 1088 243 1177 176 
Q 1267 109 1523 96 
L 1523 0 
L 102 0 
L 102 96 
Q 371 102 460 195 
Q 550 288 550 563 
L 550 2150 
Q 550 2387 499 2480 
Q 448 2573 326 2573 
Q 230 2573 122 2547 
L 122 2656 
Q 557 2778 1011 2944 
L 1062 2925 
L 1062 2451 
L 1075 2451 
Q 1363 2752 1584 2848 
Q 1805 2944 2054 2944 
Q 2560 2944 2733 2406 
Q 3232 2944 3776 2944 
Q 4518 2944 4518 1792 
L 4518 493 
Q 4518 282 4582 202 
Q 4646 122 4794 109 
L 4960 96 
L 4960 0 
z
" transform="scale(0.015625)"/>
      <path id="STIXGeneral-Regular-65" d="M 2611 1050 
L 2714 1005 
Q 2330 -64 1376 -64 
Q 813 -64 486 329 
Q 160 723 160 1389 
Q 160 2074 525 2509 
Q 890 2944 1485 2944 
Q 2061 2944 2374 2502 
Q 2560 2246 2592 1773 
L 621 1773 
Q 646 1370 700 1158 
Q 755 947 915 730 
Q 1184 378 1626 378 
Q 1939 378 2153 531 
Q 2368 685 2611 1050 
z
M 634 1978 
L 1939 1978 
Q 1882 2381 1750 2547 
Q 1619 2714 1312 2714 
Q 1043 2714 864 2525 
Q 685 2336 634 1978 
z
" transform="scale(0.015625)"/>
      <path id="STIXGeneral-Regular-61" d="M 2829 422 
L 2829 243 
Q 2586 -64 2253 -64 
Q 1888 -64 1843 403 
L 1837 403 
Q 1427 -64 909 -64 
Q 608 -64 422 112 
Q 237 288 237 602 
Q 237 1050 685 1350 
Q 992 1555 1837 1869 
L 1837 2214 
Q 1837 2502 1699 2646 
Q 1562 2790 1338 2790 
Q 1146 2790 1018 2697 
Q 890 2605 890 2477 
Q 890 2419 909 2348 
Q 928 2278 928 2208 
Q 928 2112 841 2029 
Q 755 1946 634 1946 
Q 525 1946 441 2029 
Q 358 2112 358 2240 
Q 358 2547 685 2752 
Q 986 2944 1421 2944 
Q 1939 2944 2176 2656 
Q 2291 2522 2323 2384 
Q 2355 2246 2355 1946 
L 2355 723 
Q 2355 301 2554 301 
Q 2682 301 2829 422 
z
M 1837 813 
L 1837 1715 
Q 1248 1510 1018 1293 
Q 800 1094 800 800 
Q 800 557 921 432 
Q 1043 307 1242 307 
Q 1453 307 1613 410 
Q 1747 506 1792 589 
Q 1837 672 1837 813 
z
" transform="scale(0.015625)"/>
      <path id="STIXGeneral-Regular-6e" d="M 3104 0 
L 1773 0 
L 1779 96 
Q 2016 115 2096 233 
Q 2176 352 2176 672 
L 2176 1946 
Q 2176 2592 1709 2592 
Q 1549 2592 1408 2515 
Q 1267 2438 1050 2227 
L 1050 461 
Q 1050 269 1136 192 
Q 1222 115 1466 96 
L 1466 0 
L 115 0 
L 115 96 
Q 358 115 435 214 
Q 512 314 512 602 
L 512 2157 
Q 512 2394 467 2483 
Q 422 2573 288 2573 
Q 160 2573 102 2547 
L 102 2656 
Q 550 2784 979 2944 
L 1030 2925 
L 1030 2426 
L 1037 2426 
Q 1491 2944 1958 2944 
Q 2323 2944 2518 2688 
Q 2714 2432 2714 1958 
L 2714 544 
Q 2714 288 2790 205 
Q 2867 122 3104 96 
L 3104 0 
z
" transform="scale(0.015625)"/>
      <path id="STIXGeneral-Regular-3d" d="M 4077 2048 
L 307 2048 
L 307 2470 
L 4077 2470 
L 4077 2048 
z
M 4077 768 
L 307 768 
L 307 1190 
L 4077 1190 
L 4077 768 
z
" transform="scale(0.015625)"/>
     </defs>
     <use xlink:href="#STIXGeneral-Regular-6d"/>
     <use xlink:href="#STIXGeneral-Regular-65" x="77.799988"/>
     <use xlink:href="#STIXGeneral-Regular-61" x="122.199982"/>
     <use xlink:href="#STIXGeneral-Regular-6e" x="166.599976"/>
     <use xlink:href="#STIXGeneral-Regular-3d" x="216.59996"/>
     <use xlink:href="#STIXGeneral-Regular-31" x="285.099945"/>
    </g>
   </g>
   <g id="text_14">
    <!-- alpha -->
    <g style="fill: #262626" transform="translate(16.613501 18.956118)scale(0.172133 -0.172133)">
     <defs>
      <path id="STIXGeneral-Regular-6c" d="M 1645 0 
L 134 0 
L 134 96 
Q 435 122 531 221 
Q 627 320 627 589 
L 627 3590 
Q 627 3821 569 3910 
Q 512 4000 358 4000 
Q 224 4000 122 3987 
L 122 4090 
Q 730 4237 1133 4371 
L 1165 4346 
L 1165 557 
Q 1165 288 1254 201 
Q 1344 115 1645 96 
L 1645 0 
z
" transform="scale(0.015625)"/>
      <path id="STIXGeneral-Regular-70" d="M 1018 2931 
L 1018 2438 
Q 1421 2944 1939 2944 
Q 2406 2944 2707 2560 
Q 3008 2176 3008 1581 
Q 3008 883 2621 409 
Q 2234 -64 1664 -64 
Q 1466 -64 1328 -6 
Q 1190 51 1018 211 
L 1018 -794 
Q 1018 -1094 1120 -1180 
Q 1222 -1267 1581 -1274 
L 1581 -1389 
L 32 -1389 
L 32 -1280 
Q 314 -1254 397 -1171 
Q 480 -1088 480 -838 
L 480 2157 
Q 480 2381 429 2451 
Q 378 2522 218 2522 
Q 115 2522 58 2515 
L 58 2618 
Q 506 2752 979 2944 
L 1018 2931 
z
M 1018 2138 
L 1018 563 
Q 1018 422 1238 281 
Q 1459 141 1683 141 
Q 2029 141 2243 467 
Q 2458 794 2458 1325 
Q 2458 1888 2243 2224 
Q 2029 2560 1670 2560 
Q 1446 2560 1232 2419 
Q 1018 2278 1018 2138 
z
" transform="scale(0.015625)"/>
      <path id="STIXGeneral-Regular-68" d="M 3117 0 
L 1760 0 
L 1760 96 
Q 2042 128 2118 224 
Q 2195 320 2195 653 
L 2195 1920 
Q 2195 2598 1722 2598 
Q 1530 2598 1370 2508 
Q 1210 2419 1005 2195 
L 1005 653 
Q 1005 320 1081 224 
Q 1158 128 1440 96 
L 1440 0 
L 58 0 
L 58 96 
Q 333 134 400 224 
Q 467 314 467 653 
L 467 3667 
Q 467 3872 406 3933 
Q 346 3994 141 3994 
Q 83 3994 64 3987 
L 64 4090 
L 237 4141 
Q 730 4288 973 4371 
L 1005 4352 
L 1005 2406 
Q 1229 2694 1446 2819 
Q 1664 2944 1946 2944 
Q 2733 2944 2733 1926 
L 2733 653 
Q 2733 320 2793 233 
Q 2854 147 3117 96 
L 3117 0 
z
" transform="scale(0.015625)"/>
     </defs>
     <use xlink:href="#STIXGeneral-Regular-61"/>
     <use xlink:href="#STIXGeneral-Regular-6c" x="44.399994"/>
     <use xlink:href="#STIXGeneral-Regular-70" x="72.199982"/>
     <use xlink:href="#STIXGeneral-Regular-68" x="122.199966"/>
     <use xlink:href="#STIXGeneral-Regular-61" x="172.199951"/>
    </g>
   </g>
  </g>
 </g>
 <defs>
  <clipPath id="p118a7c805e">
   <rect x="16.613501" y="24.956118" width="551.172518" height="316.18796"/>
  </clipPath>
 </defs>
</svg>
