<?xml version="1.0" encoding="utf-8" standalone="no"?>
<!DOCTYPE svg PUBLIC "-//W3C//DTD SVG 1.1//EN"
  "http://www.w3.org/Graphics/SVG/1.1/DTD/svg11.dtd">
<svg xmlns:xlink="http://www.w3.org/1999/xlink" width="630.6pt" height="353.225312pt" viewBox="0 0 630.6 353.225312" xmlns="http://www.w3.org/2000/svg" version="1.1">
 <metadata>
  <rdf:RDF xmlns:dc="http://purl.org/dc/elements/1.1/" xmlns:cc="http://creativecommons.org/ns#" xmlns:rdf="http://www.w3.org/1999/02/22-rdf-syntax-ns#">
   <cc:Work>
    <dc:type rdf:resource="http://purl.org/dc/dcmitype/StillImage"/>
    <dc:date>2022-10-28T21:07:13.167388</dc:date>
    <dc:format>image/svg+xml</dc:format>
    <dc:creator>
     <cc:Agent>
      <dc:title>Matplotlib v3.5.3, https://matplotlib.org/</dc:title>
     </cc:Agent>
    </dc:creator>
   </cc:Work>
  </rdf:RDF>
 </metadata>
 <defs>
  <style type="text/css">*{stroke-linejoin: round; stroke-linecap: butt}</style>
 </defs>
 <g id="figure_1">
  <g id="patch_1">
   <path d="M 0 353.225312 
L 630.6 353.225312 
L 630.6 0 
L 0 0 
z
" style="fill: #ffffff"/>
  </g>
  <g id="axes_1">
   <g id="patch_2">
    <path d="M 65.4 305.425312 
L 623.4 305.425312 
L 623.4 28.225312 
L 65.4 28.225312 
z
" style="fill: #ffffff"/>
   </g>
   <g id="PathCollection_1">
    <path d="M 90.763636 260.758137 
C 91.294043 260.758137 91.802796 260.547404 92.17785 260.172351 
C 92.552904 259.797297 92.763636 259.288543 92.763636 258.758137 
C 92.763636 258.227731 92.552904 257.718977 92.17785 257.343923 
C 91.802796 256.96887 91.294043 256.758137 90.763636 256.758137 
C 90.23323 256.758137 89.724477 256.96887 89.349423 257.343923 
C 88.974369 257.718977 88.763636 258.227731 88.763636 258.758137 
C 88.763636 259.288543 88.974369 259.797297 89.349423 260.172351 
C 89.724477 260.547404 90.23323 260.758137 90.763636 260.758137 
z
" clip-path="url(#pe479f61cf2)" style="fill: #4c72b0; fill-opacity: 0.2; stroke: #4c72b0; stroke-width: 0.75"/>
    <path d="M 92.788098 238.700186 
C 93.318504 238.700186 93.827258 238.489453 94.202312 238.114399 
C 94.577365 237.739346 94.788098 237.230592 94.788098 236.700186 
C 94.788098 236.16978 94.577365 235.661026 94.202312 235.285972 
C 93.827258 234.910918 93.318504 234.700186 92.788098 234.700186 
C 92.257692 234.700186 91.748938 234.910918 91.373885 235.285972 
C 90.998831 235.661026 90.788098 236.16978 90.788098 236.700186 
C 90.788098 237.230592 90.998831 237.739346 91.373885 238.114399 
C 91.748938 238.489453 92.257692 238.700186 92.788098 238.700186 
z
" clip-path="url(#pe479f61cf2)" style="fill: #4c72b0; fill-opacity: 0.2; stroke: #4c72b0; stroke-width: 0.75"/>
    <path d="M 95.095013 234.471604 
C 95.625419 234.471604 96.134173 234.260872 96.509227 233.885818 
C 96.884281 233.510764 97.095013 233.00201 97.095013 232.471604 
C 97.095013 231.941198 96.884281 231.432445 96.509227 231.057391 
C 96.134173 230.682337 95.625419 230.471604 95.095013 230.471604 
C 94.564607 230.471604 94.055853 230.682337 93.6808 231.057391 
C 93.305746 231.432445 93.095013 231.941198 93.095013 232.471604 
C 93.095013 233.00201 93.305746 233.510764 93.6808 233.885818 
C 94.055853 234.260872 94.564607 234.471604 95.095013 234.471604 
z
" clip-path="url(#pe479f61cf2)" style="fill: #4c72b0; fill-opacity: 0.2; stroke: #4c72b0; stroke-width: 0.75"/>
    <path d="M 97.519225 232.690451 
C 98.049631 232.690451 98.558385 232.479719 98.933439 232.104665 
C 99.308493 231.729611 99.519225 231.220857 99.519225 230.690451 
C 99.519225 230.160045 99.308493 229.651291 98.933439 229.276238 
C 98.558385 228.901184 98.049631 228.690451 97.519225 228.690451 
C 96.988819 228.690451 96.480065 228.901184 96.105012 229.276238 
C 95.729958 229.651291 95.519225 230.160045 95.519225 230.690451 
C 95.519225 231.220857 95.729958 231.729611 96.105012 232.104665 
C 96.480065 232.479719 96.988819 232.690451 97.519225 232.690451 
z
" clip-path="url(#pe479f61cf2)" style="fill: #4c72b0; fill-opacity: 0.2; stroke: #4c72b0; stroke-width: 0.75"/>
    <path d="M 99.986661 229.228306 
C 100.517067 229.228306 101.025821 229.017574 101.400875 228.64252 
C 101.775928 228.267466 101.986661 227.758713 101.986661 227.228306 
C 101.986661 226.6979 101.775928 226.189147 101.400875 225.814093 
C 101.025821 225.439039 100.517067 225.228306 99.986661 225.228306 
C 99.456255 225.228306 98.947501 225.439039 98.572447 225.814093 
C 98.197394 226.189147 97.986661 226.6979 97.986661 227.228306 
C 97.986661 227.758713 98.197394 228.267466 98.572447 228.64252 
C 98.947501 229.017574 99.456255 229.228306 99.986661 229.228306 
z
" clip-path="url(#pe479f61cf2)" style="fill: #4c72b0; fill-opacity: 0.2; stroke: #4c72b0; stroke-width: 0.75"/>
    <path d="M 102.508564 209.029481 
C 103.03897 209.029481 103.547724 208.818748 103.922777 208.443694 
C 104.297831 208.068641 104.508564 207.559887 104.508564 207.029481 
C 104.508564 206.499075 104.297831 205.990321 103.922777 205.615267 
C 103.547724 205.240213 103.03897 205.029481 102.508564 205.029481 
C 101.978158 205.029481 101.469404 205.240213 101.09435 205.615267 
C 100.719296 205.990321 100.508564 206.499075 100.508564 207.029481 
C 100.508564 207.559887 100.719296 208.068641 101.09435 208.443694 
C 101.469404 208.818748 101.978158 209.029481 102.508564 209.029481 
z
" clip-path="url(#pe479f61cf2)" style="fill: #4c72b0; fill-opacity: 0.2; stroke: #4c72b0; stroke-width: 0.75"/>
    <path d="M 105.071263 228.564855 
C 105.60167 228.564855 106.110423 228.354122 106.485477 227.979068 
C 106.860531 227.604014 107.071263 227.095261 107.071263 226.564855 
C 107.071263 226.034449 106.860531 225.525695 106.485477 225.150641 
C 106.110423 224.775587 105.60167 224.564855 105.071263 224.564855 
C 104.540857 224.564855 104.032104 224.775587 103.65705 225.150641 
C 103.281996 225.525695 103.071263 226.034449 103.071263 226.564855 
C 103.071263 227.095261 103.281996 227.604014 103.65705 227.979068 
C 104.032104 228.354122 104.540857 228.564855 105.071263 228.564855 
z
" clip-path="url(#pe479f61cf2)" style="fill: #4c72b0; fill-opacity: 0.2; stroke: #4c72b0; stroke-width: 0.75"/>
    <path d="M 108.150287 202.651829 
C 108.680693 202.651829 109.189446 202.441096 109.5645 202.066042 
C 109.939554 201.690989 110.150287 201.182235 110.150287 200.651829 
C 110.150287 200.121423 109.939554 199.612669 109.5645 199.237615 
C 109.189446 198.862561 108.680693 198.651829 108.150287 198.651829 
C 107.61988 198.651829 107.111127 198.862561 106.736073 199.237615 
C 106.361019 199.612669 106.150287 200.121423 106.150287 200.651829 
C 106.150287 201.182235 106.361019 201.690989 106.736073 202.066042 
C 107.111127 202.441096 107.61988 202.651829 108.150287 202.651829 
z
" clip-path="url(#pe479f61cf2)" style="fill: #4c72b0; fill-opacity: 0.2; stroke: #4c72b0; stroke-width: 0.75"/>
    <path d="M 111.457914 196.035283 
C 111.988321 196.035283 112.497074 195.82455 112.872128 195.449496 
C 113.247182 195.074443 113.457914 194.565689 113.457914 194.035283 
C 113.457914 193.504877 113.247182 192.996123 112.872128 192.621069 
C 112.497074 192.246016 111.988321 192.035283 111.457914 192.035283 
C 110.927508 192.035283 110.418755 192.246016 110.043701 192.621069 
C 109.668647 192.996123 109.457914 193.504877 109.457914 194.035283 
C 109.457914 194.565689 109.668647 195.074443 110.043701 195.449496 
C 110.418755 195.82455 110.927508 196.035283 111.457914 196.035283 
z
" clip-path="url(#pe479f61cf2)" style="fill: #4c72b0; fill-opacity: 0.2; stroke: #4c72b0; stroke-width: 0.75"/>
    <path d="M 114.712012 186.37962 
C 115.242418 186.37962 115.751172 186.168887 116.126226 185.793833 
C 116.501279 185.418779 116.712012 184.910026 116.712012 184.37962 
C 116.712012 183.849213 116.501279 183.34046 116.126226 182.965406 
C 115.751172 182.590352 115.242418 182.37962 114.712012 182.37962 
C 114.181606 182.37962 113.672852 182.590352 113.297798 182.965406 
C 112.922745 183.34046 112.712012 183.849213 112.712012 184.37962 
C 112.712012 184.910026 112.922745 185.418779 113.297798 185.793833 
C 113.672852 186.168887 114.181606 186.37962 114.712012 186.37962 
z
" clip-path="url(#pe479f61cf2)" style="fill: #4c72b0; fill-opacity: 0.2; stroke: #4c72b0; stroke-width: 0.75"/>
    <path d="M 118.055011 159.51007 
C 118.585417 159.51007 119.09417 159.299337 119.469224 158.924284 
C 119.844278 158.54923 120.055011 158.040476 120.055011 157.51007 
C 120.055011 156.979664 119.844278 156.47091 119.469224 156.095856 
C 119.09417 155.720803 118.585417 155.51007 118.055011 155.51007 
C 117.524604 155.51007 117.015851 155.720803 116.640797 156.095856 
C 116.265743 156.47091 116.055011 156.979664 116.055011 157.51007 
C 116.055011 158.040476 116.265743 158.54923 116.640797 158.924284 
C 117.015851 159.299337 117.524604 159.51007 118.055011 159.51007 
z
" clip-path="url(#pe479f61cf2)" style="fill: #4c72b0; fill-opacity: 0.2; stroke: #4c72b0; stroke-width: 0.75"/>
    <path d="M 121.321919 189.191971 
C 121.852325 189.191971 122.361078 188.981239 122.736132 188.606185 
C 123.111186 188.231131 123.321919 187.722378 123.321919 187.191971 
C 123.321919 186.661565 123.111186 186.152812 122.736132 185.777758 
C 122.361078 185.402704 121.852325 185.191971 121.321919 185.191971 
C 120.791512 185.191971 120.282759 185.402704 119.907705 185.777758 
C 119.532651 186.152812 119.321919 186.661565 119.321919 187.191971 
C 119.321919 187.722378 119.532651 188.231131 119.907705 188.606185 
C 120.282759 188.981239 120.791512 189.191971 121.321919 189.191971 
z
" clip-path="url(#pe479f61cf2)" style="fill: #4c72b0; fill-opacity: 0.2; stroke: #4c72b0; stroke-width: 0.75"/>
    <path d="M 125.209379 177.88003 
C 125.739786 177.88003 126.248539 177.669298 126.623593 177.294244 
C 126.998647 176.91919 127.209379 176.410436 127.209379 175.88003 
C 127.209379 175.349624 126.998647 174.84087 126.623593 174.465817 
C 126.248539 174.090763 125.739786 173.88003 125.209379 173.88003 
C 124.678973 173.88003 124.17022 174.090763 123.795166 174.465817 
C 123.420112 174.84087 123.209379 175.349624 123.209379 175.88003 
C 123.209379 176.410436 123.420112 176.91919 123.795166 177.294244 
C 124.17022 177.669298 124.678973 177.88003 125.209379 177.88003 
z
" clip-path="url(#pe479f61cf2)" style="fill: #4c72b0; fill-opacity: 0.2; stroke: #4c72b0; stroke-width: 0.75"/>
    <path d="M 129.253394 161.168616 
C 129.783801 161.168616 130.292554 160.957883 130.667608 160.582829 
C 131.042662 160.207776 131.253394 159.699022 131.253394 159.168616 
C 131.253394 158.63821 131.042662 158.129456 130.667608 157.754402 
C 130.292554 157.379349 129.783801 157.168616 129.253394 157.168616 
C 128.722988 157.168616 128.214235 157.379349 127.839181 157.754402 
C 127.464127 158.129456 127.253394 158.63821 127.253394 159.168616 
C 127.253394 159.699022 127.464127 160.207776 127.839181 160.582829 
C 128.214235 160.957883 128.722988 161.168616 129.253394 161.168616 
z
" clip-path="url(#pe479f61cf2)" style="fill: #4c72b0; fill-opacity: 0.2; stroke: #4c72b0; stroke-width: 0.75"/>
    <path d="M 133.439119 157.567617 
C 133.969525 157.567617 134.478278 157.356884 134.853332 156.981831 
C 135.228386 156.606777 135.439119 156.098023 135.439119 155.567617 
C 135.439119 155.037211 135.228386 154.528457 134.853332 154.153403 
C 134.478278 153.77835 133.969525 153.567617 133.439119 153.567617 
C 132.908712 153.567617 132.399959 153.77835 132.024905 154.153403 
C 131.649851 154.528457 131.439119 155.037211 131.439119 155.567617 
C 131.439119 156.098023 131.649851 156.606777 132.024905 156.981831 
C 132.399959 157.356884 132.908712 157.567617 133.439119 157.567617 
z
" clip-path="url(#pe479f61cf2)" style="fill: #4c72b0; fill-opacity: 0.2; stroke: #4c72b0; stroke-width: 0.75"/>
    <path d="M 138.057 163.339541 
C 138.587406 163.339541 139.09616 163.128808 139.471214 162.753754 
C 139.846267 162.3787 140.057 161.869947 140.057 161.339541 
C 140.057 160.809135 139.846267 160.300381 139.471214 159.925327 
C 139.09616 159.550273 138.587406 159.339541 138.057 159.339541 
C 137.526594 159.339541 137.01784 159.550273 136.642787 159.925327 
C 136.267733 160.300381 136.057 160.809135 136.057 161.339541 
C 136.057 161.869947 136.267733 162.3787 136.642787 162.753754 
C 137.01784 163.128808 137.526594 163.339541 138.057 163.339541 
z
" clip-path="url(#pe479f61cf2)" style="fill: #4c72b0; fill-opacity: 0.2; stroke: #4c72b0; stroke-width: 0.75"/>
    <path d="M 142.830358 154.330847 
C 143.360764 154.330847 143.869518 154.120115 144.244572 153.745061 
C 144.619625 153.370007 144.830358 152.861253 144.830358 152.330847 
C 144.830358 151.800441 144.619625 151.291687 144.244572 150.916634 
C 143.869518 150.54158 143.360764 150.330847 142.830358 150.330847 
C 142.299952 150.330847 141.791198 150.54158 141.416144 150.916634 
C 141.041091 151.291687 140.830358 151.800441 140.830358 152.330847 
C 140.830358 152.861253 141.041091 153.370007 141.416144 153.745061 
C 141.791198 154.120115 142.299952 154.330847 142.830358 154.330847 
z
" clip-path="url(#pe479f61cf2)" style="fill: #4c72b0; fill-opacity: 0.2; stroke: #4c72b0; stroke-width: 0.75"/>
    <path d="M 148.095245 140.504077 
C 148.625651 140.504077 149.134405 140.293344 149.509459 139.91829 
C 149.884512 139.543236 150.095245 139.034483 150.095245 138.504077 
C 150.095245 137.97367 149.884512 137.464917 149.509459 137.089863 
C 149.134405 136.714809 148.625651 136.504077 148.095245 136.504077 
C 147.564839 136.504077 147.056085 136.714809 146.681032 137.089863 
C 146.305978 137.464917 146.095245 137.97367 146.095245 138.504077 
C 146.095245 139.034483 146.305978 139.543236 146.681032 139.91829 
C 147.056085 140.293344 147.564839 140.504077 148.095245 140.504077 
z
" clip-path="url(#pe479f61cf2)" style="fill: #4c72b0; fill-opacity: 0.2; stroke: #4c72b0; stroke-width: 0.75"/>
    <path d="M 153.807482 126.902723 
C 154.337888 126.902723 154.846642 126.69199 155.221696 126.316937 
C 155.596749 125.941883 155.807482 125.433129 155.807482 124.902723 
C 155.807482 124.372317 155.596749 123.863563 155.221696 123.48851 
C 154.846642 123.113456 154.337888 122.902723 153.807482 122.902723 
C 153.277076 122.902723 152.768322 123.113456 152.393269 123.48851 
C 152.018215 123.863563 151.807482 124.372317 151.807482 124.902723 
C 151.807482 125.433129 152.018215 125.941883 152.393269 126.316937 
C 152.768322 126.69199 153.277076 126.902723 153.807482 126.902723 
z
" clip-path="url(#pe479f61cf2)" style="fill: #4c72b0; fill-opacity: 0.2; stroke: #4c72b0; stroke-width: 0.75"/>
    <path d="M 159.987542 133.082691 
C 160.517948 133.082691 161.026702 132.871959 161.401756 132.496905 
C 161.77681 132.121851 161.987542 131.613098 161.987542 131.082691 
C 161.987542 130.552285 161.77681 130.043532 161.401756 129.668478 
C 161.026702 129.293424 160.517948 129.082691 159.987542 129.082691 
C 159.457136 129.082691 158.948383 129.293424 158.573329 129.668478 
C 158.198275 130.043532 157.987542 130.552285 157.987542 131.082691 
C 157.987542 131.613098 158.198275 132.121851 158.573329 132.496905 
C 158.948383 132.871959 159.457136 133.082691 159.987542 133.082691 
z
" clip-path="url(#pe479f61cf2)" style="fill: #4c72b0; fill-opacity: 0.2; stroke: #4c72b0; stroke-width: 0.75"/>
    <path d="M 166.283749 132.080267 
C 166.814155 132.080267 167.322909 131.869534 167.697962 131.49448 
C 168.073016 131.119426 168.283749 130.610673 168.283749 130.080267 
C 168.283749 129.549861 168.073016 129.041107 167.697962 128.666053 
C 167.322909 128.290999 166.814155 128.080267 166.283749 128.080267 
C 165.753343 128.080267 165.244589 128.290999 164.869535 128.666053 
C 164.494481 129.041107 164.283749 129.549861 164.283749 130.080267 
C 164.283749 130.610673 164.494481 131.119426 164.869535 131.49448 
C 165.244589 131.869534 165.753343 132.080267 166.283749 132.080267 
z
" clip-path="url(#pe479f61cf2)" style="fill: #4c72b0; fill-opacity: 0.2; stroke: #4c72b0; stroke-width: 0.75"/>
    <path d="M 173.252196 96.950897 
C 173.782603 96.950897 174.291356 96.740165 174.66641 96.365111 
C 175.041464 95.990057 175.252196 95.481304 175.252196 94.950897 
C 175.252196 94.420491 175.041464 93.911738 174.66641 93.536684 
C 174.291356 93.16163 173.782603 92.950897 173.252196 92.950897 
C 172.72179 92.950897 172.213037 93.16163 171.837983 93.536684 
C 171.462929 93.911738 171.252196 94.420491 171.252196 94.950897 
C 171.252196 95.481304 171.462929 95.990057 171.837983 96.365111 
C 172.213037 96.740165 172.72179 96.950897 173.252196 96.950897 
z
" clip-path="url(#pe479f61cf2)" style="fill: #4c72b0; fill-opacity: 0.2; stroke: #4c72b0; stroke-width: 0.75"/>
    <path d="M 180.912336 140.115796 
C 181.442742 140.115796 181.951495 139.905063 182.326549 139.530009 
C 182.701603 139.154956 182.912336 138.646202 182.912336 138.115796 
C 182.912336 137.58539 182.701603 137.076636 182.326549 136.701582 
C 181.951495 136.326528 181.442742 136.115796 180.912336 136.115796 
C 180.381929 136.115796 179.873176 136.326528 179.498122 136.701582 
C 179.123068 137.076636 178.912336 137.58539 178.912336 138.115796 
C 178.912336 138.646202 179.123068 139.154956 179.498122 139.530009 
C 179.873176 139.905063 180.381929 140.115796 180.912336 140.115796 
z
" clip-path="url(#pe479f61cf2)" style="fill: #4c72b0; fill-opacity: 0.2; stroke: #4c72b0; stroke-width: 0.75"/>
    <path d="M 190.563766 121.256343 
C 191.094172 121.256343 191.602926 121.045611 191.97798 120.670557 
C 192.353033 120.295503 192.563766 119.78675 192.563766 119.256343 
C 192.563766 118.725937 192.353033 118.217184 191.97798 117.84213 
C 191.602926 117.467076 191.094172 117.256343 190.563766 117.256343 
C 190.03336 117.256343 189.524606 117.467076 189.149552 117.84213 
C 188.774499 118.217184 188.563766 118.725937 188.563766 119.256343 
C 188.563766 119.78675 188.774499 120.295503 189.149552 120.670557 
C 189.524606 121.045611 190.03336 121.256343 190.563766 121.256343 
z
" clip-path="url(#pe479f61cf2)" style="fill: #4c72b0; fill-opacity: 0.2; stroke: #4c72b0; stroke-width: 0.75"/>
    <path d="M 201.067761 102.72345 
C 201.598167 102.72345 202.106921 102.512717 202.481974 102.137664 
C 202.857028 101.76261 203.067761 101.253856 203.067761 100.72345 
C 203.067761 100.193044 202.857028 99.68429 202.481974 99.309236 
C 202.106921 98.934183 201.598167 98.72345 201.067761 98.72345 
C 200.537355 98.72345 200.028601 98.934183 199.653547 99.309236 
C 199.278494 99.68429 199.067761 100.193044 199.067761 100.72345 
C 199.067761 101.253856 199.278494 101.76261 199.653547 102.137664 
C 200.028601 102.512717 200.537355 102.72345 201.067761 102.72345 
z
" clip-path="url(#pe479f61cf2)" style="fill: #4c72b0; fill-opacity: 0.2; stroke: #4c72b0; stroke-width: 0.75"/>
    <path d="M 213.135098 131.755897 
C 213.665504 131.755897 214.174258 131.545164 214.549311 131.17011 
C 214.924365 130.795056 215.135098 130.286303 215.135098 129.755897 
C 215.135098 129.22549 214.924365 128.716737 214.549311 128.341683 
C 214.174258 127.966629 213.665504 127.755897 213.135098 127.755897 
C 212.604692 127.755897 212.095938 127.966629 211.720884 128.341683 
C 211.345831 128.716737 211.135098 129.22549 211.135098 129.755897 
C 211.135098 130.286303 211.345831 130.795056 211.720884 131.17011 
C 212.095938 131.545164 212.604692 131.755897 213.135098 131.755897 
z
" clip-path="url(#pe479f61cf2)" style="fill: #4c72b0; fill-opacity: 0.2; stroke: #4c72b0; stroke-width: 0.75"/>
    <path d="M 227.877657 137.804512 
C 228.408063 137.804512 228.916816 137.59378 229.29187 137.218726 
C 229.666924 136.843672 229.877657 136.334919 229.877657 135.804512 
C 229.877657 135.274106 229.666924 134.765353 229.29187 134.390299 
C 228.916816 134.015245 228.408063 133.804512 227.877657 133.804512 
C 227.34725 133.804512 226.838497 134.015245 226.463443 134.390299 
C 226.088389 134.765353 225.877657 135.274106 225.877657 135.804512 
C 225.877657 136.334919 226.088389 136.843672 226.463443 137.218726 
C 226.838497 137.59378 227.34725 137.804512 227.877657 137.804512 
z
" clip-path="url(#pe479f61cf2)" style="fill: #4c72b0; fill-opacity: 0.2; stroke: #4c72b0; stroke-width: 0.75"/>
    <path d="M 246.107779 163.656879 
C 246.638185 163.656879 247.146939 163.446147 247.521993 163.071093 
C 247.897047 162.696039 248.107779 162.187285 248.107779 161.656879 
C 248.107779 161.126473 247.897047 160.617719 247.521993 160.242666 
C 247.146939 159.867612 246.638185 159.656879 246.107779 159.656879 
C 245.577373 159.656879 245.06862 159.867612 244.693566 160.242666 
C 244.318512 160.617719 244.107779 161.126473 244.107779 161.656879 
C 244.107779 162.187285 244.318512 162.696039 244.693566 163.071093 
C 245.06862 163.446147 245.577373 163.656879 246.107779 163.656879 
z
" clip-path="url(#pe479f61cf2)" style="fill: #4c72b0; fill-opacity: 0.2; stroke: #4c72b0; stroke-width: 0.75"/>
    <path d="M 270.590702 145.819298 
C 271.121108 145.819298 271.629862 145.608565 272.004916 145.233511 
C 272.379969 144.858457 272.590702 144.349704 272.590702 143.819298 
C 272.590702 143.288891 272.379969 142.780138 272.004916 142.405084 
C 271.629862 142.03003 271.121108 141.819298 270.590702 141.819298 
C 270.060296 141.819298 269.551542 142.03003 269.176488 142.405084 
C 268.801435 142.780138 268.590702 143.288891 268.590702 143.819298 
C 268.590702 144.349704 268.801435 144.858457 269.176488 145.233511 
C 269.551542 145.608565 270.060296 145.819298 270.590702 145.819298 
z
" clip-path="url(#pe479f61cf2)" style="fill: #4c72b0; fill-opacity: 0.2; stroke: #4c72b0; stroke-width: 0.75"/>
    <path d="M 298.268179 160.193613 
C 298.798585 160.193613 299.307339 159.98288 299.682392 159.607826 
C 300.057446 159.232773 300.268179 158.724019 300.268179 158.193613 
C 300.268179 157.663207 300.057446 157.154453 299.682392 156.779399 
C 299.307339 156.404345 298.798585 156.193613 298.268179 156.193613 
C 297.737773 156.193613 297.229019 156.404345 296.853965 156.779399 
C 296.478911 157.154453 296.268179 157.663207 296.268179 158.193613 
C 296.268179 158.724019 296.478911 159.232773 296.853965 159.607826 
C 297.229019 159.98288 297.737773 160.193613 298.268179 160.193613 
z
" clip-path="url(#pe479f61cf2)" style="fill: #4c72b0; fill-opacity: 0.2; stroke: #4c72b0; stroke-width: 0.75"/>
    <path d="M 335.190496 118.227787 
C 335.720902 118.227787 336.229656 118.017055 336.60471 117.642001 
C 336.979764 117.266947 337.190496 116.758194 337.190496 116.227787 
C 337.190496 115.697381 336.979764 115.188628 336.60471 114.813574 
C 336.229656 114.43852 335.720902 114.227787 335.190496 114.227787 
C 334.66009 114.227787 334.151336 114.43852 333.776283 114.813574 
C 333.401229 115.188628 333.190496 115.697381 333.190496 116.227787 
C 333.190496 116.758194 333.401229 117.266947 333.776283 117.642001 
C 334.151336 118.017055 334.66009 118.227787 335.190496 118.227787 
z
" clip-path="url(#pe479f61cf2)" style="fill: #4c72b0; fill-opacity: 0.2; stroke: #4c72b0; stroke-width: 0.75"/>
    <path d="M 400.490343 133.30092 
C 401.020749 133.30092 401.529503 133.090187 401.904557 132.715133 
C 402.279611 132.34008 402.490343 131.831326 402.490343 131.30092 
C 402.490343 130.770514 402.279611 130.26176 401.904557 129.886706 
C 401.529503 129.511652 401.020749 129.30092 400.490343 129.30092 
C 399.959937 129.30092 399.451183 129.511652 399.07613 129.886706 
C 398.701076 130.26176 398.490343 130.770514 398.490343 131.30092 
C 398.490343 131.831326 398.701076 132.34008 399.07613 132.715133 
C 399.451183 133.090187 399.959937 133.30092 400.490343 133.30092 
z
" clip-path="url(#pe479f61cf2)" style="fill: #4c72b0; fill-opacity: 0.2; stroke: #4c72b0; stroke-width: 0.75"/>
    <path d="M 598.036364 126.432662 
C 598.56677 126.432662 599.075523 126.221929 599.450577 125.846875 
C 599.825631 125.471822 600.036364 124.963068 600.036364 124.432662 
C 600.036364 123.902256 599.825631 123.393502 599.450577 123.018448 
C 599.075523 122.643395 598.56677 122.432662 598.036364 122.432662 
C 597.505957 122.432662 596.997204 122.643395 596.62215 123.018448 
C 596.247096 123.393502 596.036364 123.902256 596.036364 124.432662 
C 596.036364 124.963068 596.247096 125.471822 596.62215 125.846875 
C 596.997204 126.221929 597.505957 126.432662 598.036364 126.432662 
z
" clip-path="url(#pe479f61cf2)" style="fill: #4c72b0; fill-opacity: 0.2; stroke: #4c72b0; stroke-width: 0.75"/>
   </g>
   <g id="matplotlib.axis_1">
    <g id="xtick_1">
     <g id="line2d_1">
      <defs>
       <path id="m2cf956effb" d="M 0 0 
L 0 3.5 
" style="stroke: #323034; stroke-width: 0.8"/>
      </defs>
      <g>
       <use xlink:href="#m2cf956effb" x="89.79649" y="305.425312" style="fill: #323034; stroke: #323034; stroke-width: 0.8"/>
      </g>
     </g>
     <g id="text_1">
      <!-- 0 -->
      <g style="fill: #323034" transform="translate(85.79649 323.352812)scale(0.16 -0.16)">
       <defs>
        <path id="STIXGeneral-Regular-30" d="M 3046 2112 
Q 3046 1683 2963 1302 
Q 2880 922 2717 602 
Q 2554 282 2266 96 
Q 1978 -90 1600 -90 
Q 1210 -90 915 108 
Q 621 307 461 640 
Q 301 973 227 1350 
Q 154 1728 154 2150 
Q 154 2746 301 3222 
Q 448 3699 790 4012 
Q 1133 4326 1626 4326 
Q 2253 4326 2649 3712 
Q 3046 3098 3046 2112 
z
M 2432 2080 
Q 2432 3091 2217 3625 
Q 2003 4160 1587 4160 
Q 1190 4160 979 3622 
Q 768 3085 768 2106 
Q 768 1120 979 598 
Q 1190 77 1600 77 
Q 2003 77 2217 598 
Q 2432 1120 2432 2080 
z
" transform="scale(0.015625)"/>
       </defs>
       <use xlink:href="#STIXGeneral-Regular-30"/>
      </g>
     </g>
    </g>
    <g id="xtick_2">
     <g id="line2d_2">
      <g>
       <use xlink:href="#m2cf956effb" x="178.862009" y="305.425312" style="fill: #323034; stroke: #323034; stroke-width: 0.8"/>
      </g>
     </g>
     <g id="text_2">
      <!-- 1 -->
      <g style="fill: #323034" transform="translate(174.862009 323.352812)scale(0.16 -0.16)">
       <defs>
        <path id="STIXGeneral-Regular-31" d="M 2522 0 
L 755 0 
L 755 96 
Q 1107 115 1235 227 
Q 1363 339 1363 608 
L 1363 3482 
Q 1363 3795 1171 3795 
Q 1082 3795 883 3718 
L 710 3654 
L 710 3744 
L 1856 4326 
L 1914 4307 
L 1914 486 
Q 1914 275 2042 185 
Q 2170 96 2522 96 
L 2522 0 
z
" transform="scale(0.015625)"/>
       </defs>
       <use xlink:href="#STIXGeneral-Regular-31"/>
      </g>
     </g>
    </g>
    <g id="xtick_3">
     <g id="line2d_3">
      <g>
       <use xlink:href="#m2cf956effb" x="267.927527" y="305.425312" style="fill: #323034; stroke: #323034; stroke-width: 0.8"/>
      </g>
     </g>
     <g id="text_3">
      <!-- 2 -->
      <g style="fill: #323034" transform="translate(263.927527 323.352812)scale(0.16 -0.16)">
       <defs>
        <path id="STIXGeneral-Regular-32" d="M 3034 877 
L 2688 0 
L 186 0 
L 186 77 
L 1325 1286 
Q 1773 1754 1965 2144 
Q 2157 2534 2157 2950 
Q 2157 3379 1920 3616 
Q 1683 3853 1267 3853 
Q 922 3853 720 3673 
Q 518 3494 326 3021 
L 192 3053 
Q 301 3648 630 3987 
Q 960 4326 1523 4326 
Q 2054 4326 2380 4006 
Q 2707 3686 2707 3200 
Q 2707 2477 1888 1613 
L 832 486 
L 2330 486 
Q 2541 486 2665 569 
Q 2790 653 2944 915 
L 3034 877 
z
" transform="scale(0.015625)"/>
       </defs>
       <use xlink:href="#STIXGeneral-Regular-32"/>
      </g>
     </g>
    </g>
    <g id="xtick_4">
     <g id="line2d_4">
      <g>
       <use xlink:href="#m2cf956effb" x="356.993045" y="305.425312" style="fill: #323034; stroke: #323034; stroke-width: 0.8"/>
      </g>
     </g>
     <g id="text_4">
      <!-- 3 -->
      <g style="fill: #323034" transform="translate(352.993045 323.352812)scale(0.16 -0.16)">
       <defs>
        <path id="STIXGeneral-Regular-33" d="M 390 3264 
L 288 3290 
Q 435 3770 748 4048 
Q 1062 4326 1542 4326 
Q 1990 4326 2265 4083 
Q 2541 3840 2541 3450 
Q 2541 2925 1946 2566 
Q 2298 2413 2477 2227 
Q 2758 1914 2758 1402 
Q 2758 890 2464 506 
Q 2246 211 1840 60 
Q 1434 -90 979 -90 
Q 262 -90 262 275 
Q 262 378 339 442 
Q 416 506 525 506 
Q 685 506 915 339 
Q 1197 141 1466 141 
Q 1818 141 2058 425 
Q 2298 710 2298 1120 
Q 2298 1856 1632 2048 
Q 1434 2112 979 2112 
L 979 2202 
Q 1338 2323 1517 2432 
Q 2035 2726 2035 3290 
Q 2035 3610 1852 3776 
Q 1670 3942 1344 3942 
Q 768 3942 390 3264 
z
" transform="scale(0.015625)"/>
       </defs>
       <use xlink:href="#STIXGeneral-Regular-33"/>
      </g>
     </g>
    </g>
    <g id="xtick_5">
     <g id="line2d_5">
      <g>
       <use xlink:href="#m2cf956effb" x="446.058564" y="305.425312" style="fill: #323034; stroke: #323034; stroke-width: 0.8"/>
      </g>
     </g>
     <g id="text_5">
      <!-- 4 -->
      <g style="fill: #323034" transform="translate(442.058564 323.352812)scale(0.16 -0.16)">
       <defs>
        <path id="STIXGeneral-Regular-34" d="M 3027 1069 
L 2368 1069 
L 2368 0 
L 1869 0 
L 1869 1069 
L 77 1069 
L 77 1478 
L 2086 4326 
L 2368 4326 
L 2368 1478 
L 3027 1478 
L 3027 1069 
z
M 1869 1478 
L 1869 3674 
L 333 1478 
L 1869 1478 
z
" transform="scale(0.015625)"/>
       </defs>
       <use xlink:href="#STIXGeneral-Regular-34"/>
      </g>
     </g>
    </g>
    <g id="xtick_6">
     <g id="line2d_6">
      <g>
       <use xlink:href="#m2cf956effb" x="535.124082" y="305.425312" style="fill: #323034; stroke: #323034; stroke-width: 0.8"/>
      </g>
     </g>
     <g id="text_6">
      <!-- 5 -->
      <g style="fill: #323034" transform="translate(531.124082 323.352812)scale(0.16 -0.16)">
       <defs>
        <path id="STIXGeneral-Regular-35" d="M 2803 4358 
L 2573 3814 
Q 2534 3731 2400 3731 
L 1158 3731 
L 902 3187 
Q 1606 3053 1920 2896 
Q 2234 2739 2502 2368 
Q 2726 2061 2726 1555 
Q 2726 1094 2576 780 
Q 2426 467 2099 224 
Q 1664 -90 1011 -90 
Q 646 -90 422 19 
Q 198 128 198 307 
Q 198 550 486 550 
Q 717 550 960 352 
Q 1210 147 1414 147 
Q 1747 147 2012 480 
Q 2278 813 2278 1229 
Q 2278 1843 1850 2189 
Q 1293 2637 486 2637 
Q 410 2637 410 2688 
L 416 2720 
L 1114 4237 
L 2438 4237 
Q 2547 4237 2608 4269 
Q 2669 4301 2746 4403 
L 2803 4358 
z
" transform="scale(0.015625)"/>
       </defs>
       <use xlink:href="#STIXGeneral-Regular-35"/>
      </g>
     </g>
    </g>
    <g id="text_7">
     <!-- age -->
     <g transform="translate(331.906875 342.101875)scale(0.18 -0.18)">
      <defs>
       <path id="STIXGeneral-Regular-61" d="M 2829 422 
L 2829 243 
Q 2586 -64 2253 -64 
Q 1888 -64 1843 403 
L 1837 403 
Q 1427 -64 909 -64 
Q 608 -64 422 112 
Q 237 288 237 602 
Q 237 1050 685 1350 
Q 992 1555 1837 1869 
L 1837 2214 
Q 1837 2502 1699 2646 
Q 1562 2790 1338 2790 
Q 1146 2790 1018 2697 
Q 890 2605 890 2477 
Q 890 2419 909 2348 
Q 928 2278 928 2208 
Q 928 2112 841 2029 
Q 755 1946 634 1946 
Q 525 1946 441 2029 
Q 358 2112 358 2240 
Q 358 2547 685 2752 
Q 986 2944 1421 2944 
Q 1939 2944 2176 2656 
Q 2291 2522 2323 2384 
Q 2355 2246 2355 1946 
L 2355 723 
Q 2355 301 2554 301 
Q 2682 301 2829 422 
z
M 1837 813 
L 1837 1715 
Q 1248 1510 1018 1293 
Q 800 1094 800 800 
Q 800 557 921 432 
Q 1043 307 1242 307 
Q 1453 307 1613 410 
Q 1747 506 1792 589 
Q 1837 672 1837 813 
z
" transform="scale(0.015625)"/>
       <path id="STIXGeneral-Regular-67" d="M 3008 2483 
L 2477 2483 
Q 2598 2208 2598 1946 
Q 2598 1453 2265 1203 
Q 1933 954 1600 954 
Q 1530 954 1357 973 
L 1235 986 
Q 1107 947 979 812 
Q 851 678 851 582 
Q 851 435 1350 410 
L 2176 371 
Q 2528 358 2739 172 
Q 2950 -13 2950 -314 
Q 2950 -685 2566 -986 
Q 2035 -1395 1286 -1395 
Q 826 -1395 502 -1212 
Q 179 -1030 179 -774 
Q 179 -595 320 -419 
Q 461 -243 806 6 
Q 602 102 534 172 
Q 467 243 467 346 
Q 467 531 762 787 
Q 909 915 1037 1043 
Q 717 1203 579 1401 
Q 442 1600 442 1901 
Q 442 2336 752 2640 
Q 1062 2944 1510 2944 
Q 1766 2944 2022 2848 
L 2163 2797 
Q 2349 2733 2515 2733 
L 3008 2733 
L 3008 2483 
z
M 973 2163 
L 973 2144 
Q 973 1683 1155 1398 
Q 1338 1114 1632 1114 
Q 1850 1114 1978 1270 
Q 2106 1427 2106 1690 
Q 2106 2112 1914 2464 
Q 1754 2765 1446 2765 
Q 1222 2765 1097 2605 
Q 973 2445 973 2163 
z
M 2771 -410 
Q 2771 -230 2595 -163 
Q 2419 -96 1978 -96 
Q 1344 -96 941 -13 
Q 749 -243 688 -348 
Q 627 -454 627 -563 
Q 627 -774 880 -902 
Q 1133 -1030 1555 -1030 
Q 2099 -1030 2435 -860 
Q 2771 -691 2771 -410 
z
" transform="scale(0.015625)"/>
       <path id="STIXGeneral-Regular-65" d="M 2611 1050 
L 2714 1005 
Q 2330 -64 1376 -64 
Q 813 -64 486 329 
Q 160 723 160 1389 
Q 160 2074 525 2509 
Q 890 2944 1485 2944 
Q 2061 2944 2374 2502 
Q 2560 2246 2592 1773 
L 621 1773 
Q 646 1370 700 1158 
Q 755 947 915 730 
Q 1184 378 1626 378 
Q 1939 378 2153 531 
Q 2368 685 2611 1050 
z
M 634 1978 
L 1939 1978 
Q 1882 2381 1750 2547 
Q 1619 2714 1312 2714 
Q 1043 2714 864 2525 
Q 685 2336 634 1978 
z
" transform="scale(0.015625)"/>
      </defs>
      <use xlink:href="#STIXGeneral-Regular-61"/>
      <use xlink:href="#STIXGeneral-Regular-67" x="44.399994"/>
      <use xlink:href="#STIXGeneral-Regular-65" x="94.399979"/>
     </g>
    </g>
   </g>
   <g id="matplotlib.axis_2">
    <g id="ytick_1">
     <g id="line2d_7">
      <defs>
       <path id="m072c78a541" d="M 0 0 
L -3.5 0 
" style="stroke: #323034; stroke-width: 0.8"/>
      </defs>
      <g>
       <use xlink:href="#m072c78a541" x="65.4" y="289.69812" style="fill: #323034; stroke: #323034; stroke-width: 0.8"/>
      </g>
     </g>
     <g id="text_8">
      <!-- 1000 -->
      <g style="fill: #323034" transform="translate(26.4 295.16187)scale(0.16 -0.16)">
       <use xlink:href="#STIXGeneral-Regular-31"/>
       <use xlink:href="#STIXGeneral-Regular-30" x="49.999985"/>
       <use xlink:href="#STIXGeneral-Regular-30" x="99.999969"/>
       <use xlink:href="#STIXGeneral-Regular-30" x="149.999954"/>
      </g>
     </g>
    </g>
    <g id="ytick_2">
     <g id="line2d_8">
      <g>
       <use xlink:href="#m072c78a541" x="65.4" y="256.414119" style="fill: #323034; stroke: #323034; stroke-width: 0.8"/>
      </g>
     </g>
     <g id="text_9">
      <!-- 1500 -->
      <g style="fill: #323034" transform="translate(26.4 261.877869)scale(0.16 -0.16)">
       <use xlink:href="#STIXGeneral-Regular-31"/>
       <use xlink:href="#STIXGeneral-Regular-35" x="49.999985"/>
       <use xlink:href="#STIXGeneral-Regular-30" x="99.999969"/>
       <use xlink:href="#STIXGeneral-Regular-30" x="149.999954"/>
      </g>
     </g>
    </g>
    <g id="ytick_3">
     <g id="line2d_9">
      <g>
       <use xlink:href="#m072c78a541" x="65.4" y="223.130119" style="fill: #323034; stroke: #323034; stroke-width: 0.8"/>
      </g>
     </g>
     <g id="text_10">
      <!-- 2000 -->
      <g style="fill: #323034" transform="translate(26.4 228.593869)scale(0.16 -0.16)">
       <use xlink:href="#STIXGeneral-Regular-32"/>
       <use xlink:href="#STIXGeneral-Regular-30" x="49.999985"/>
       <use xlink:href="#STIXGeneral-Regular-30" x="99.999969"/>
       <use xlink:href="#STIXGeneral-Regular-30" x="149.999954"/>
      </g>
     </g>
    </g>
    <g id="ytick_4">
     <g id="line2d_10">
      <g>
       <use xlink:href="#m072c78a541" x="65.4" y="189.846119" style="fill: #323034; stroke: #323034; stroke-width: 0.8"/>
      </g>
     </g>
     <g id="text_11">
      <!-- 2500 -->
      <g style="fill: #323034" transform="translate(26.4 195.309869)scale(0.16 -0.16)">
       <use xlink:href="#STIXGeneral-Regular-32"/>
       <use xlink:href="#STIXGeneral-Regular-35" x="49.999985"/>
       <use xlink:href="#STIXGeneral-Regular-30" x="99.999969"/>
       <use xlink:href="#STIXGeneral-Regular-30" x="149.999954"/>
      </g>
     </g>
    </g>
    <g id="ytick_5">
     <g id="line2d_11">
      <g>
       <use xlink:href="#m072c78a541" x="65.4" y="156.562119" style="fill: #323034; stroke: #323034; stroke-width: 0.8"/>
      </g>
     </g>
     <g id="text_12">
      <!-- 3000 -->
      <g style="fill: #323034" transform="translate(26.4 162.025869)scale(0.16 -0.16)">
       <use xlink:href="#STIXGeneral-Regular-33"/>
       <use xlink:href="#STIXGeneral-Regular-30" x="49.999985"/>
       <use xlink:href="#STIXGeneral-Regular-30" x="99.999969"/>
       <use xlink:href="#STIXGeneral-Regular-30" x="149.999954"/>
      </g>
     </g>
    </g>
    <g id="ytick_6">
     <g id="line2d_12">
      <g>
       <use xlink:href="#m072c78a541" x="65.4" y="123.278118" style="fill: #323034; stroke: #323034; stroke-width: 0.8"/>
      </g>
     </g>
     <g id="text_13">
      <!-- 3500 -->
      <g style="fill: #323034" transform="translate(26.4 128.741868)scale(0.16 -0.16)">
       <use xlink:href="#STIXGeneral-Regular-33"/>
       <use xlink:href="#STIXGeneral-Regular-35" x="49.999985"/>
       <use xlink:href="#STIXGeneral-Regular-30" x="99.999969"/>
       <use xlink:href="#STIXGeneral-Regular-30" x="149.999954"/>
      </g>
     </g>
    </g>
    <g id="ytick_7">
     <g id="line2d_13">
      <g>
       <use xlink:href="#m072c78a541" x="65.4" y="89.994118" style="fill: #323034; stroke: #323034; stroke-width: 0.8"/>
      </g>
     </g>
     <g id="text_14">
      <!-- 4000 -->
      <g style="fill: #323034" transform="translate(26.4 95.457868)scale(0.16 -0.16)">
       <use xlink:href="#STIXGeneral-Regular-34"/>
       <use xlink:href="#STIXGeneral-Regular-30" x="49.999985"/>
       <use xlink:href="#STIXGeneral-Regular-30" x="99.999969"/>
       <use xlink:href="#STIXGeneral-Regular-30" x="149.999954"/>
      </g>
     </g>
    </g>
    <g id="ytick_8">
     <g id="line2d_14">
      <g>
       <use xlink:href="#m072c78a541" x="65.4" y="56.710118" style="fill: #323034; stroke: #323034; stroke-width: 0.8"/>
      </g>
     </g>
     <g id="text_15">
      <!-- 4500 -->
      <g style="fill: #323034" transform="translate(26.4 62.173868)scale(0.16 -0.16)">
       <use xlink:href="#STIXGeneral-Regular-34"/>
       <use xlink:href="#STIXGeneral-Regular-35" x="49.999985"/>
       <use xlink:href="#STIXGeneral-Regular-30" x="99.999969"/>
       <use xlink:href="#STIXGeneral-Regular-30" x="149.999954"/>
      </g>
     </g>
    </g>
    <g id="text_16">
     <!-- sales -->
     <g transform="translate(19.493438 184.323281)rotate(-90)scale(0.18 -0.18)">
      <defs>
       <path id="STIXGeneral-Regular-73" d="M 998 1926 
L 1664 1523 
Q 1984 1331 2105 1164 
Q 2227 998 2227 736 
Q 2227 416 1961 176 
Q 1696 -64 1331 -64 
Q 1030 -64 864 -6 
Q 691 51 570 51 
Q 461 51 416 -26 
L 333 -26 
L 333 979 
L 435 979 
Q 538 512 730 294 
Q 922 77 1248 77 
Q 1485 77 1632 211 
Q 1779 346 1779 550 
Q 1779 845 1440 1030 
L 1094 1222 
Q 326 1651 326 2150 
Q 326 2522 566 2730 
Q 806 2938 1210 2938 
Q 1491 2938 1638 2867 
Q 1754 2816 1818 2816 
Q 1862 2816 1920 2880 
L 1990 2880 
L 2022 2010 
L 1926 2010 
Q 1818 2445 1654 2621 
Q 1491 2797 1203 2797 
Q 986 2797 854 2688 
Q 723 2579 723 2362 
Q 723 2253 796 2128 
Q 870 2003 998 1926 
z
" transform="scale(0.015625)"/>
       <path id="STIXGeneral-Regular-6c" d="M 1645 0 
L 134 0 
L 134 96 
Q 435 122 531 221 
Q 627 320 627 589 
L 627 3590 
Q 627 3821 569 3910 
Q 512 4000 358 4000 
Q 224 4000 122 3987 
L 122 4090 
Q 730 4237 1133 4371 
L 1165 4346 
L 1165 557 
Q 1165 288 1254 201 
Q 1344 115 1645 96 
L 1645 0 
z
" transform="scale(0.015625)"/>
      </defs>
      <use xlink:href="#STIXGeneral-Regular-73"/>
      <use xlink:href="#STIXGeneral-Regular-61" x="38.899994"/>
      <use xlink:href="#STIXGeneral-Regular-6c" x="83.299988"/>
      <use xlink:href="#STIXGeneral-Regular-65" x="111.099976"/>
      <use xlink:href="#STIXGeneral-Regular-73" x="155.499969"/>
     </g>
    </g>
   </g>
   <g id="LineCollection_1">
    <path d="M 90.763636 292.825312 
L 90.763636 224.690962 
" clip-path="url(#pe479f61cf2)" style="fill: none; stroke: #bc80bd; stroke-opacity: 0.2; stroke-width: 2"/>
    <path d="M 92.788098 264.052052 
L 92.788098 209.34832 
" clip-path="url(#pe479f61cf2)" style="fill: none; stroke: #bc80bd; stroke-opacity: 0.2; stroke-width: 2"/>
    <path d="M 95.095013 261.575579 
L 95.095013 203.36763 
" clip-path="url(#pe479f61cf2)" style="fill: none; stroke: #bc80bd; stroke-opacity: 0.2; stroke-width: 2"/>
    <path d="M 97.519225 259.025443 
L 97.519225 202.355459 
" clip-path="url(#pe479f61cf2)" style="fill: none; stroke: #bc80bd; stroke-opacity: 0.2; stroke-width: 2"/>
    <path d="M 99.986661 263.110059 
L 99.986661 191.346554 
" clip-path="url(#pe479f61cf2)" style="fill: none; stroke: #bc80bd; stroke-opacity: 0.2; stroke-width: 2"/>
    <path d="M 102.508564 242.879986 
L 102.508564 171.178976 
" clip-path="url(#pe479f61cf2)" style="fill: none; stroke: #bc80bd; stroke-opacity: 0.2; stroke-width: 2"/>
    <path d="M 105.071263 259.519117 
L 105.071263 193.610593 
" clip-path="url(#pe479f61cf2)" style="fill: none; stroke: #bc80bd; stroke-opacity: 0.2; stroke-width: 2"/>
    <path d="M 108.150287 235.418372 
L 108.150287 165.885286 
" clip-path="url(#pe479f61cf2)" style="fill: none; stroke: #bc80bd; stroke-opacity: 0.2; stroke-width: 2"/>
    <path d="M 111.457914 229.225437 
L 111.457914 158.845129 
" clip-path="url(#pe479f61cf2)" style="fill: none; stroke: #bc80bd; stroke-opacity: 0.2; stroke-width: 2"/>
    <path d="M 114.712012 227.543908 
L 114.712012 141.215331 
" clip-path="url(#pe479f61cf2)" style="fill: none; stroke: #bc80bd; stroke-opacity: 0.2; stroke-width: 2"/>
    <path d="M 118.055011 210.970054 
L 118.055011 104.050085 
" clip-path="url(#pe479f61cf2)" style="fill: none; stroke: #bc80bd; stroke-opacity: 0.2; stroke-width: 2"/>
    <path d="M 121.321919 234.726963 
L 121.321919 139.65698 
" clip-path="url(#pe479f61cf2)" style="fill: none; stroke: #bc80bd; stroke-opacity: 0.2; stroke-width: 2"/>
    <path d="M 125.209379 219.252094 
L 125.209379 132.507966 
" clip-path="url(#pe479f61cf2)" style="fill: none; stroke: #bc80bd; stroke-opacity: 0.2; stroke-width: 2"/>
    <path d="M 129.253394 204.317723 
L 129.253394 114.019509 
" clip-path="url(#pe479f61cf2)" style="fill: none; stroke: #bc80bd; stroke-opacity: 0.2; stroke-width: 2"/>
    <path d="M 133.439119 203.508265 
L 133.439119 107.626969 
" clip-path="url(#pe479f61cf2)" style="fill: none; stroke: #bc80bd; stroke-opacity: 0.2; stroke-width: 2"/>
    <path d="M 138.057 208.378969 
L 138.057 114.300112 
" clip-path="url(#pe479f61cf2)" style="fill: none; stroke: #bc80bd; stroke-opacity: 0.2; stroke-width: 2"/>
    <path d="M 142.830358 197.654828 
L 142.830358 107.006866 
" clip-path="url(#pe479f61cf2)" style="fill: none; stroke: #bc80bd; stroke-opacity: 0.2; stroke-width: 2"/>
    <path d="M 148.095245 186.358151 
L 148.095245 90.650002 
" clip-path="url(#pe479f61cf2)" style="fill: none; stroke: #bc80bd; stroke-opacity: 0.2; stroke-width: 2"/>
    <path d="M 153.807482 171.140463 
L 153.807482 78.664984 
" clip-path="url(#pe479f61cf2)" style="fill: none; stroke: #bc80bd; stroke-opacity: 0.2; stroke-width: 2"/>
    <path d="M 159.987542 183.813996 
L 159.987542 78.351387 
" clip-path="url(#pe479f61cf2)" style="fill: none; stroke: #bc80bd; stroke-opacity: 0.2; stroke-width: 2"/>
    <path d="M 166.283749 182.49733 
L 166.283749 77.663203 
" clip-path="url(#pe479f61cf2)" style="fill: none; stroke: #bc80bd; stroke-opacity: 0.2; stroke-width: 2"/>
    <path d="M 173.252196 149.076482 
L 173.252196 40.825313 
" clip-path="url(#pe479f61cf2)" style="fill: none; stroke: #bc80bd; stroke-opacity: 0.2; stroke-width: 2"/>
    <path d="M 180.912336 189.426943 
L 180.912336 86.804649 
" clip-path="url(#pe479f61cf2)" style="fill: none; stroke: #bc80bd; stroke-opacity: 0.2; stroke-width: 2"/>
    <path d="M 190.563766 177.442872 
L 190.563766 61.069815 
" clip-path="url(#pe479f61cf2)" style="fill: none; stroke: #bc80bd; stroke-opacity: 0.2; stroke-width: 2"/>
    <path d="M 201.067761 157.897643 
L 201.067761 43.549257 
" clip-path="url(#pe479f61cf2)" style="fill: none; stroke: #bc80bd; stroke-opacity: 0.2; stroke-width: 2"/>
    <path d="M 213.135098 177.26154 
L 213.135098 82.250253 
" clip-path="url(#pe479f61cf2)" style="fill: none; stroke: #bc80bd; stroke-opacity: 0.2; stroke-width: 2"/>
    <path d="M 227.877657 188.950026 
L 227.877657 82.658999 
" clip-path="url(#pe479f61cf2)" style="fill: none; stroke: #bc80bd; stroke-opacity: 0.2; stroke-width: 2"/>
    <path d="M 246.107779 208.811311 
L 246.107779 114.502447 
" clip-path="url(#pe479f61cf2)" style="fill: none; stroke: #bc80bd; stroke-opacity: 0.2; stroke-width: 2"/>
    <path d="M 270.590702 190.566112 
L 270.590702 97.072483 
" clip-path="url(#pe479f61cf2)" style="fill: none; stroke: #bc80bd; stroke-opacity: 0.2; stroke-width: 2"/>
    <path d="M 298.268179 205.278199 
L 298.268179 111.109026 
" clip-path="url(#pe479f61cf2)" style="fill: none; stroke: #bc80bd; stroke-opacity: 0.2; stroke-width: 2"/>
    <path d="M 335.190496 171.490844 
L 335.190496 60.964731 
" clip-path="url(#pe479f61cf2)" style="fill: none; stroke: #bc80bd; stroke-opacity: 0.2; stroke-width: 2"/>
    <path d="M 400.490343 186.085549 
L 400.490343 76.516291 
" clip-path="url(#pe479f61cf2)" style="fill: none; stroke: #bc80bd; stroke-opacity: 0.2; stroke-width: 2"/>
    <path d="M 598.036364 192.512524 
L 598.036364 56.352799 
" clip-path="url(#pe479f61cf2)" style="fill: none; stroke: #bc80bd; stroke-opacity: 0.2; stroke-width: 2"/>
   </g>
   <g id="line2d_15"/>
   <g id="patch_3">
    <path d="M 65.4 305.425313 
L 65.4 28.225313 
" style="fill: none; stroke: #000000; stroke-width: 0.6; stroke-linejoin: miter; stroke-linecap: square"/>
   </g>
   <g id="patch_4">
    <path d="M 65.4 305.425312 
L 623.4 305.425312 
" style="fill: none; stroke: #000000; stroke-width: 0.6; stroke-linejoin: miter; stroke-linecap: square"/>
   </g>
   <g id="text_17">
    <!-- Binscatter: sales as a function of age -->
    <g style="fill: #323034" transform="translate(65.4 22.225312)scale(0.22 -0.22)">
     <defs>
      <path id="STIXGeneral-Regular-42" d="M 2701 2234 
L 2701 2227 
Q 3181 2150 3482 1875 
Q 3795 1594 3795 1139 
Q 3795 608 3379 304 
Q 2963 0 2266 0 
L 109 0 
L 109 122 
Q 486 134 604 246 
Q 723 358 723 723 
L 723 3520 
Q 723 3891 614 3990 
Q 506 4090 109 4115 
L 109 4237 
L 1901 4237 
Q 2726 4237 3152 3958 
Q 3578 3680 3578 3168 
Q 3578 2733 3315 2502 
Q 3130 2342 2701 2234 
z
M 1376 2342 
L 1965 2342 
Q 2925 2342 2925 3136 
Q 2925 3546 2640 3773 
Q 2355 4000 1792 4000 
L 1530 4000 
Q 1376 4000 1376 3795 
L 1376 2342 
z
M 1376 2086 
L 1376 525 
Q 1376 365 1462 301 
Q 1549 237 1773 237 
Q 2208 237 2413 285 
Q 2618 333 2816 512 
Q 3059 723 3059 1146 
Q 3059 1632 2758 1830 
Q 2688 1882 2617 1917 
Q 2547 1952 2492 1974 
Q 2438 1997 2348 2016 
Q 2259 2035 2211 2044 
Q 2163 2054 2041 2060 
Q 1920 2067 1862 2070 
Q 1805 2074 1635 2080 
Q 1466 2086 1376 2086 
z
" transform="scale(0.015625)"/>
      <path id="STIXGeneral-Regular-69" d="M 1152 4045 
Q 1152 3904 1056 3811 
Q 960 3718 819 3718 
Q 685 3718 592 3811 
Q 499 3904 499 4045 
Q 499 4179 595 4275 
Q 691 4371 826 4371 
Q 966 4371 1059 4275 
Q 1152 4179 1152 4045 
z
M 1619 0 
L 102 0 
L 102 96 
Q 435 115 521 211 
Q 608 307 608 666 
L 608 2118 
Q 608 2342 563 2432 
Q 518 2522 397 2522 
Q 243 2522 128 2490 
L 128 2592 
L 1120 2944 
L 1146 2918 
L 1146 672 
Q 1146 314 1226 218 
Q 1306 122 1619 96 
L 1619 0 
z
" transform="scale(0.015625)"/>
      <path id="STIXGeneral-Regular-6e" d="M 3104 0 
L 1773 0 
L 1779 96 
Q 2016 115 2096 233 
Q 2176 352 2176 672 
L 2176 1946 
Q 2176 2592 1709 2592 
Q 1549 2592 1408 2515 
Q 1267 2438 1050 2227 
L 1050 461 
Q 1050 269 1136 192 
Q 1222 115 1466 96 
L 1466 0 
L 115 0 
L 115 96 
Q 358 115 435 214 
Q 512 314 512 602 
L 512 2157 
Q 512 2394 467 2483 
Q 422 2573 288 2573 
Q 160 2573 102 2547 
L 102 2656 
Q 550 2784 979 2944 
L 1030 2925 
L 1030 2426 
L 1037 2426 
Q 1491 2944 1958 2944 
Q 2323 2944 2518 2688 
Q 2714 2432 2714 1958 
L 2714 544 
Q 2714 288 2790 205 
Q 2867 122 3104 96 
L 3104 0 
z
" transform="scale(0.015625)"/>
      <path id="STIXGeneral-Regular-63" d="M 2547 998 
L 2637 941 
Q 2362 403 2112 205 
Q 1786 -64 1376 -64 
Q 845 -64 502 336 
Q 160 736 160 1357 
Q 160 2170 698 2618 
Q 1094 2944 1562 2944 
Q 1965 2944 2256 2749 
Q 2547 2554 2547 2285 
Q 2547 2176 2457 2096 
Q 2368 2016 2246 2016 
Q 2022 2016 1939 2310 
L 1901 2451 
Q 1850 2630 1773 2694 
Q 1696 2758 1523 2758 
Q 1133 2758 893 2451 
Q 653 2144 653 1645 
Q 653 1094 928 745 
Q 1203 397 1645 397 
Q 1920 397 2118 528 
Q 2317 659 2547 998 
z
" transform="scale(0.015625)"/>
      <path id="STIXGeneral-Regular-74" d="M 1702 493 
L 1786 422 
Q 1478 -64 1011 -64 
Q 448 -64 448 749 
L 448 2675 
L 109 2675 
Q 83 2694 83 2720 
Q 83 2771 192 2842 
Q 435 2982 813 3526 
Q 826 3546 874 3606 
Q 922 3667 941 3706 
Q 986 3706 986 3622 
L 986 2880 
L 1632 2880 
L 1632 2675 
L 986 2675 
L 986 845 
Q 986 538 1062 403 
Q 1139 269 1318 269 
Q 1510 269 1702 493 
z
" transform="scale(0.015625)"/>
      <path id="STIXGeneral-Regular-72" d="M 1024 2931 
L 1024 2342 
Q 1267 2688 1430 2816 
Q 1594 2944 1792 2944 
Q 1958 2944 2051 2854 
Q 2144 2765 2144 2605 
Q 2144 2470 2077 2393 
Q 2010 2317 1894 2317 
Q 1773 2317 1638 2445 
Q 1536 2541 1472 2541 
Q 1338 2541 1181 2355 
Q 1024 2170 1024 2016 
L 1024 576 
Q 1024 301 1133 205 
Q 1242 109 1568 96 
L 1568 0 
L 32 0 
L 32 96 
Q 339 154 412 224 
Q 486 294 486 538 
L 486 2138 
Q 486 2349 438 2435 
Q 390 2522 269 2522 
Q 166 2522 45 2496 
L 45 2598 
Q 448 2726 992 2944 
L 1024 2931 
z
" transform="scale(0.015625)"/>
      <path id="STIXGeneral-Regular-3a" d="M 1123 2832 
Q 1229 2726 1229 2579 
Q 1229 2432 1126 2329 
Q 1024 2227 877 2227 
Q 730 2227 624 2332 
Q 518 2438 518 2579 
Q 518 2733 620 2835 
Q 723 2938 877 2938 
Q 1018 2938 1123 2832 
z
M 1229 282 
Q 1229 141 1126 35 
Q 1024 -70 877 -70 
Q 730 -70 624 35 
Q 518 141 518 282 
Q 518 435 620 537 
Q 723 640 877 640 
Q 1018 640 1123 534 
Q 1229 429 1229 282 
z
" transform="scale(0.015625)"/>
      <path id="STIXGeneral-Regular-20" transform="scale(0.015625)"/>
      <path id="STIXGeneral-Regular-66" d="M 134 2880 
L 659 2880 
Q 666 3264 710 3478 
Q 755 3693 883 3910 
Q 1152 4371 1786 4371 
Q 2074 4371 2262 4259 
Q 2451 4147 2451 3974 
Q 2451 3866 2374 3789 
Q 2298 3712 2182 3712 
Q 2029 3712 1894 3942 
Q 1741 4192 1555 4192 
Q 1197 4192 1197 3622 
L 1197 2880 
L 1978 2880 
L 1978 2675 
L 1197 2675 
L 1197 666 
Q 1197 307 1299 208 
Q 1402 109 1792 96 
L 1792 0 
L 128 0 
L 128 96 
Q 474 115 566 214 
Q 659 314 659 666 
L 659 2675 
L 134 2675 
L 134 2880 
z
" transform="scale(0.015625)"/>
      <path id="STIXGeneral-Regular-75" d="M 3072 320 
L 3072 230 
Q 2573 96 2195 -58 
L 2163 -38 
L 2163 486 
L 2150 486 
Q 1747 -64 1235 -64 
Q 870 -64 662 160 
Q 454 384 454 755 
L 454 2362 
Q 454 2598 371 2688 
Q 288 2778 58 2790 
L 58 2880 
L 992 2880 
L 992 813 
Q 992 595 1123 451 
Q 1254 307 1446 307 
Q 1760 307 1984 506 
Q 2067 582 2099 649 
Q 2131 717 2131 877 
L 2131 2355 
Q 2131 2605 2041 2678 
Q 1952 2752 1658 2771 
L 1658 2880 
L 2669 2880 
L 2669 685 
Q 2669 461 2742 390 
Q 2816 320 3034 320 
L 3072 320 
z
" transform="scale(0.015625)"/>
      <path id="STIXGeneral-Regular-6f" d="M 3008 1478 
Q 3008 806 2608 371 
Q 2208 -64 1568 -64 
Q 979 -64 582 368 
Q 186 800 186 1459 
Q 186 2125 582 2534 
Q 979 2944 1626 2944 
Q 2221 2944 2614 2537 
Q 3008 2131 3008 1478 
z
M 2432 1306 
Q 2432 2035 2112 2445 
Q 1856 2765 1504 2765 
Q 1171 2765 966 2493 
Q 762 2221 762 1747 
Q 762 928 1101 435 
Q 1318 115 1677 115 
Q 2029 115 2230 432 
Q 2432 749 2432 1306 
z
" transform="scale(0.015625)"/>
     </defs>
     <use xlink:href="#STIXGeneral-Regular-42"/>
     <use xlink:href="#STIXGeneral-Regular-69" x="66.699997"/>
     <use xlink:href="#STIXGeneral-Regular-6e" x="94.499985"/>
     <use xlink:href="#STIXGeneral-Regular-73" x="144.499969"/>
     <use xlink:href="#STIXGeneral-Regular-63" x="183.399963"/>
     <use xlink:href="#STIXGeneral-Regular-61" x="227.799957"/>
     <use xlink:href="#STIXGeneral-Regular-74" x="272.199951"/>
     <use xlink:href="#STIXGeneral-Regular-74" x="299.999939"/>
     <use xlink:href="#STIXGeneral-Regular-65" x="327.799927"/>
     <use xlink:href="#STIXGeneral-Regular-72" x="372.199921"/>
     <use xlink:href="#STIXGeneral-Regular-3a" x="405.499908"/>
     <use xlink:href="#STIXGeneral-Regular-20" x="433.299896"/>
     <use xlink:href="#STIXGeneral-Regular-73" x="458.299881"/>
     <use xlink:href="#STIXGeneral-Regular-61" x="497.199875"/>
     <use xlink:href="#STIXGeneral-Regular-6c" x="541.599869"/>
     <use xlink:href="#STIXGeneral-Regular-65" x="569.399857"/>
     <use xlink:href="#STIXGeneral-Regular-73" x="613.79985"/>
     <use xlink:href="#STIXGeneral-Regular-20" x="652.699844"/>
     <use xlink:href="#STIXGeneral-Regular-61" x="677.699829"/>
     <use xlink:href="#STIXGeneral-Regular-73" x="722.099823"/>
     <use xlink:href="#STIXGeneral-Regular-20" x="760.999817"/>
     <use xlink:href="#STIXGeneral-Regular-61" x="785.999802"/>
     <use xlink:href="#STIXGeneral-Regular-20" x="830.399796"/>
     <use xlink:href="#STIXGeneral-Regular-66" x="855.39978"/>
     <use xlink:href="#STIXGeneral-Regular-75" x="888.699768"/>
     <use xlink:href="#STIXGeneral-Regular-6e" x="938.699753"/>
     <use xlink:href="#STIXGeneral-Regular-63" x="988.699738"/>
     <use xlink:href="#STIXGeneral-Regular-74" x="1033.099731"/>
     <use xlink:href="#STIXGeneral-Regular-69" x="1060.899719"/>
     <use xlink:href="#STIXGeneral-Regular-6f" x="1088.699707"/>
     <use xlink:href="#STIXGeneral-Regular-6e" x="1138.699692"/>
     <use xlink:href="#STIXGeneral-Regular-20" x="1188.699677"/>
     <use xlink:href="#STIXGeneral-Regular-6f" x="1213.699661"/>
     <use xlink:href="#STIXGeneral-Regular-66" x="1263.699646"/>
     <use xlink:href="#STIXGeneral-Regular-20" x="1296.999634"/>
     <use xlink:href="#STIXGeneral-Regular-61" x="1321.999619"/>
     <use xlink:href="#STIXGeneral-Regular-67" x="1366.399612"/>
     <use xlink:href="#STIXGeneral-Regular-65" x="1416.399597"/>
    </g>
   </g>
  </g>
 </g>
 <defs>
  <clipPath id="pe479f61cf2">
   <rect x="65.4" y="28.225312" width="558" height="277.2"/>
  </clipPath>
 </defs>
</svg>
