<?xml version="1.0" encoding="utf-8" standalone="no"?>
<!DOCTYPE svg PUBLIC "-//W3C//DTD SVG 1.1//EN"
  "http://www.w3.org/Graphics/SVG/1.1/DTD/svg11.dtd">
<svg xmlns:xlink="http://www.w3.org/1999/xlink" width="466.74pt" height="351.6525pt" viewBox="0 0 466.74 351.6525" xmlns="http://www.w3.org/2000/svg" version="1.1">
 <metadata>
  <rdf:RDF xmlns:dc="http://purl.org/dc/elements/1.1/" xmlns:cc="http://creativecommons.org/ns#" xmlns:rdf="http://www.w3.org/1999/02/22-rdf-syntax-ns#">
   <cc:Work>
    <dc:type rdf:resource="http://purl.org/dc/dcmitype/StillImage"/>
    <dc:date>2022-09-16T15:20:43.812097</dc:date>
    <dc:format>image/svg+xml</dc:format>
    <dc:creator>
     <cc:Agent>
      <dc:title>Matplotlib v3.5.3, https://matplotlib.org/</dc:title>
     </cc:Agent>
    </dc:creator>
   </cc:Work>
  </rdf:RDF>
 </metadata>
 <defs>
  <style type="text/css">*{stroke-linejoin: round; stroke-linecap: butt}</style>
 </defs>
 <g id="figure_1">
  <g id="patch_1">
   <path d="M 0 351.6525 
L 466.74 351.6525 
L 466.74 0 
L 0 0 
z
" style="fill: #ffffff"/>
  </g>
  <g id="axes_1">
   <g id="patch_2">
    <path d="M 40 312.8525 
L 459.54 312.8525 
L 459.54 24.1275 
L 40 24.1275 
z
" style="fill: #ffffff"/>
   </g>
   <g id="matplotlib.axis_1">
    <g id="xtick_1">
     <g id="line2d_1">
      <defs>
       <path id="md584176b3f" d="M 0 0 
L 0 3.5 
" style="stroke: #323034; stroke-width: 0.8"/>
      </defs>
      <g>
       <use xlink:href="#md584176b3f" x="78.357943" y="312.8525" style="fill: #323034; stroke: #323034; stroke-width: 0.8"/>
      </g>
     </g>
     <g id="text_1">
      <!-- $\mathdefault{40}$ -->
      <g style="fill: #323034" transform="translate(72.357943 328.048125)scale(0.12 -0.12)">
       <defs>
        <path id="STIXGeneral-Regular-34" d="M 3027 1069 
L 2368 1069 
L 2368 0 
L 1869 0 
L 1869 1069 
L 77 1069 
L 77 1478 
L 2086 4326 
L 2368 4326 
L 2368 1478 
L 3027 1478 
L 3027 1069 
z
M 1869 1478 
L 1869 3674 
L 333 1478 
L 1869 1478 
z
" transform="scale(0.015625)"/>
        <path id="STIXGeneral-Regular-30" d="M 3046 2112 
Q 3046 1683 2963 1302 
Q 2880 922 2717 602 
Q 2554 282 2266 96 
Q 1978 -90 1600 -90 
Q 1210 -90 915 108 
Q 621 307 461 640 
Q 301 973 227 1350 
Q 154 1728 154 2150 
Q 154 2746 301 3222 
Q 448 3699 790 4012 
Q 1133 4326 1626 4326 
Q 2253 4326 2649 3712 
Q 3046 3098 3046 2112 
z
M 2432 2080 
Q 2432 3091 2217 3625 
Q 2003 4160 1587 4160 
Q 1190 4160 979 3622 
Q 768 3085 768 2106 
Q 768 1120 979 598 
Q 1190 77 1600 77 
Q 2003 77 2217 598 
Q 2432 1120 2432 2080 
z
" transform="scale(0.015625)"/>
       </defs>
       <use xlink:href="#STIXGeneral-Regular-34" transform="translate(0 0.40625)"/>
       <use xlink:href="#STIXGeneral-Regular-30" transform="translate(49.999985 0.40625)"/>
      </g>
     </g>
    </g>
    <g id="xtick_2">
     <g id="line2d_2">
      <g>
       <use xlink:href="#md584176b3f" x="126.305371" y="312.8525" style="fill: #323034; stroke: #323034; stroke-width: 0.8"/>
      </g>
     </g>
     <g id="text_2">
      <!-- $\mathdefault{60}$ -->
      <g style="fill: #323034" transform="translate(120.305371 328.048125)scale(0.12 -0.12)">
       <defs>
        <path id="STIXGeneral-Regular-36" d="M 2854 4378 
L 2867 4275 
Q 2112 4154 1606 3664 
Q 1101 3174 973 2451 
Q 1344 2739 1786 2739 
Q 2349 2739 2672 2380 
Q 2995 2022 2995 1402 
Q 2995 774 2669 378 
Q 2291 -90 1651 -90 
Q 870 -90 518 557 
Q 218 1107 218 1786 
Q 218 2835 915 3552 
Q 1312 3962 1731 4131 
Q 2150 4301 2854 4378 
z
M 2419 1203 
Q 2419 2445 1555 2445 
Q 1235 2445 1024 2275 
Q 813 2106 813 1702 
Q 813 954 1046 522 
Q 1280 90 1722 90 
Q 2061 90 2240 394 
Q 2419 698 2419 1203 
z
" transform="scale(0.015625)"/>
       </defs>
       <use xlink:href="#STIXGeneral-Regular-36" transform="translate(0 0.59375)"/>
       <use xlink:href="#STIXGeneral-Regular-30" transform="translate(49.999985 0.59375)"/>
      </g>
     </g>
    </g>
    <g id="xtick_3">
     <g id="line2d_3">
      <g>
       <use xlink:href="#md584176b3f" x="174.2528" y="312.8525" style="fill: #323034; stroke: #323034; stroke-width: 0.8"/>
      </g>
     </g>
     <g id="text_3">
      <!-- $\mathdefault{80}$ -->
      <g style="fill: #323034" transform="translate(168.2528 328.048125)scale(0.12 -0.12)">
       <defs>
        <path id="STIXGeneral-Regular-38" d="M 2848 992 
Q 2848 499 2505 204 
Q 2163 -90 1587 -90 
Q 1050 -90 704 204 
Q 358 499 358 954 
Q 358 1293 524 1533 
Q 691 1773 1190 2125 
Q 710 2522 553 2765 
Q 397 3008 397 3328 
Q 397 3782 745 4054 
Q 1094 4326 1638 4326 
Q 2106 4326 2410 4060 
Q 2714 3795 2714 3411 
Q 2714 3059 2531 2848 
Q 2349 2637 1856 2374 
Q 2432 1990 2640 1689 
Q 2848 1389 2848 992 
z
M 2272 3411 
Q 2272 3744 2086 3945 
Q 1901 4147 1574 4147 
Q 1248 4147 1059 3977 
Q 870 3808 870 3513 
Q 870 3219 1059 2979 
Q 1248 2739 1670 2490 
Q 1997 2682 2134 2896 
Q 2272 3110 2272 3411 
z
M 1734 1741 
L 1357 1997 
Q 1075 1766 960 1545 
Q 845 1325 845 1011 
Q 845 576 1065 333 
Q 1286 90 1658 90 
Q 1971 90 2166 285 
Q 2362 480 2362 794 
Q 2362 1082 2214 1299 
Q 2067 1517 1734 1741 
z
" transform="scale(0.015625)"/>
       </defs>
       <use xlink:href="#STIXGeneral-Regular-38" transform="translate(0 0.40625)"/>
       <use xlink:href="#STIXGeneral-Regular-30" transform="translate(49.999985 0.40625)"/>
      </g>
     </g>
    </g>
    <g id="xtick_4">
     <g id="line2d_4">
      <g>
       <use xlink:href="#md584176b3f" x="222.200229" y="312.8525" style="fill: #323034; stroke: #323034; stroke-width: 0.8"/>
      </g>
     </g>
     <g id="text_4">
      <!-- $\mathdefault{100}$ -->
      <g style="fill: #323034" transform="translate(213.200229 328.048125)scale(0.12 -0.12)">
       <defs>
        <path id="STIXGeneral-Regular-31" d="M 2522 0 
L 755 0 
L 755 96 
Q 1107 115 1235 227 
Q 1363 339 1363 608 
L 1363 3482 
Q 1363 3795 1171 3795 
Q 1082 3795 883 3718 
L 710 3654 
L 710 3744 
L 1856 4326 
L 1914 4307 
L 1914 486 
Q 1914 275 2042 185 
Q 2170 96 2522 96 
L 2522 0 
z
" transform="scale(0.015625)"/>
       </defs>
       <use xlink:href="#STIXGeneral-Regular-31" transform="translate(0 0.40625)"/>
       <use xlink:href="#STIXGeneral-Regular-30" transform="translate(49.999985 0.40625)"/>
       <use xlink:href="#STIXGeneral-Regular-30" transform="translate(99.999969 0.40625)"/>
      </g>
     </g>
    </g>
    <g id="xtick_5">
     <g id="line2d_5">
      <g>
       <use xlink:href="#md584176b3f" x="270.147657" y="312.8525" style="fill: #323034; stroke: #323034; stroke-width: 0.8"/>
      </g>
     </g>
     <g id="text_5">
      <!-- $\mathdefault{120}$ -->
      <g style="fill: #323034" transform="translate(261.147657 328.048125)scale(0.12 -0.12)">
       <defs>
        <path id="STIXGeneral-Regular-32" d="M 3034 877 
L 2688 0 
L 186 0 
L 186 77 
L 1325 1286 
Q 1773 1754 1965 2144 
Q 2157 2534 2157 2950 
Q 2157 3379 1920 3616 
Q 1683 3853 1267 3853 
Q 922 3853 720 3673 
Q 518 3494 326 3021 
L 192 3053 
Q 301 3648 630 3987 
Q 960 4326 1523 4326 
Q 2054 4326 2380 4006 
Q 2707 3686 2707 3200 
Q 2707 2477 1888 1613 
L 832 486 
L 2330 486 
Q 2541 486 2665 569 
Q 2790 653 2944 915 
L 3034 877 
z
" transform="scale(0.015625)"/>
       </defs>
       <use xlink:href="#STIXGeneral-Regular-31" transform="translate(0 0.40625)"/>
       <use xlink:href="#STIXGeneral-Regular-32" transform="translate(49.999985 0.40625)"/>
       <use xlink:href="#STIXGeneral-Regular-30" transform="translate(99.999969 0.40625)"/>
      </g>
     </g>
    </g>
    <g id="xtick_6">
     <g id="line2d_6">
      <g>
       <use xlink:href="#md584176b3f" x="318.095086" y="312.8525" style="fill: #323034; stroke: #323034; stroke-width: 0.8"/>
      </g>
     </g>
     <g id="text_6">
      <!-- $\mathdefault{140}$ -->
      <g style="fill: #323034" transform="translate(309.095086 328.048125)scale(0.12 -0.12)">
       <use xlink:href="#STIXGeneral-Regular-31" transform="translate(0 0.40625)"/>
       <use xlink:href="#STIXGeneral-Regular-34" transform="translate(49.999985 0.40625)"/>
       <use xlink:href="#STIXGeneral-Regular-30" transform="translate(99.999969 0.40625)"/>
      </g>
     </g>
    </g>
    <g id="xtick_7">
     <g id="line2d_7">
      <g>
       <use xlink:href="#md584176b3f" x="366.042514" y="312.8525" style="fill: #323034; stroke: #323034; stroke-width: 0.8"/>
      </g>
     </g>
     <g id="text_7">
      <!-- $\mathdefault{160}$ -->
      <g style="fill: #323034" transform="translate(357.042514 328.048125)scale(0.12 -0.12)">
       <use xlink:href="#STIXGeneral-Regular-31" transform="translate(0 0.59375)"/>
       <use xlink:href="#STIXGeneral-Regular-36" transform="translate(49.999985 0.59375)"/>
       <use xlink:href="#STIXGeneral-Regular-30" transform="translate(99.999969 0.59375)"/>
      </g>
     </g>
    </g>
    <g id="xtick_8">
     <g id="line2d_8">
      <g>
       <use xlink:href="#md584176b3f" x="413.989943" y="312.8525" style="fill: #323034; stroke: #323034; stroke-width: 0.8"/>
      </g>
     </g>
     <g id="text_8">
      <!-- $\mathdefault{180}$ -->
      <g style="fill: #323034" transform="translate(404.989943 328.048125)scale(0.12 -0.12)">
       <use xlink:href="#STIXGeneral-Regular-31" transform="translate(0 0.40625)"/>
       <use xlink:href="#STIXGeneral-Regular-38" transform="translate(49.999985 0.40625)"/>
       <use xlink:href="#STIXGeneral-Regular-30" transform="translate(99.999969 0.40625)"/>
      </g>
     </g>
    </g>
    <g id="text_9">
     <!-- Time step -->
     <g transform="translate(225.937812 341.848125)scale(0.12 -0.12)">
      <defs>
       <path id="STIXGeneral-Regular-54" d="M 3795 3149 
L 3642 3149 
Q 3539 3674 3353 3821 
Q 3168 3968 2656 3968 
L 2278 3968 
L 2278 710 
Q 2278 346 2387 243 
Q 2496 141 2893 122 
L 2893 0 
L 1024 0 
L 1024 122 
Q 1427 147 1526 256 
Q 1626 365 1626 787 
L 1626 3968 
L 1242 3968 
Q 723 3968 540 3817 
Q 358 3667 262 3149 
L 109 3149 
L 154 4237 
L 3750 4237 
L 3795 3149 
z
" transform="scale(0.015625)"/>
       <path id="STIXGeneral-Regular-69" d="M 1152 4045 
Q 1152 3904 1056 3811 
Q 960 3718 819 3718 
Q 685 3718 592 3811 
Q 499 3904 499 4045 
Q 499 4179 595 4275 
Q 691 4371 826 4371 
Q 966 4371 1059 4275 
Q 1152 4179 1152 4045 
z
M 1619 0 
L 102 0 
L 102 96 
Q 435 115 521 211 
Q 608 307 608 666 
L 608 2118 
Q 608 2342 563 2432 
Q 518 2522 397 2522 
Q 243 2522 128 2490 
L 128 2592 
L 1120 2944 
L 1146 2918 
L 1146 672 
Q 1146 314 1226 218 
Q 1306 122 1619 96 
L 1619 0 
z
" transform="scale(0.015625)"/>
       <path id="STIXGeneral-Regular-6d" d="M 4960 0 
L 3565 0 
L 3565 96 
Q 3834 122 3907 208 
Q 3981 294 3981 576 
L 3981 1894 
Q 3981 2278 3869 2444 
Q 3757 2611 3488 2611 
Q 3264 2611 3107 2521 
Q 2950 2432 2803 2221 
L 2803 608 
Q 2803 301 2896 201 
Q 2989 102 3264 96 
L 3264 0 
L 1830 0 
L 1830 96 
Q 2112 115 2189 188 
Q 2266 262 2266 550 
L 2266 1901 
Q 2266 2611 1850 2611 
Q 1670 2611 1468 2531 
Q 1267 2451 1171 2336 
Q 1088 2240 1088 2227 
L 1088 448 
Q 1088 243 1177 176 
Q 1267 109 1523 96 
L 1523 0 
L 102 0 
L 102 96 
Q 371 102 460 195 
Q 550 288 550 563 
L 550 2150 
Q 550 2387 499 2480 
Q 448 2573 326 2573 
Q 230 2573 122 2547 
L 122 2656 
Q 557 2778 1011 2944 
L 1062 2925 
L 1062 2451 
L 1075 2451 
Q 1363 2752 1584 2848 
Q 1805 2944 2054 2944 
Q 2560 2944 2733 2406 
Q 3232 2944 3776 2944 
Q 4518 2944 4518 1792 
L 4518 493 
Q 4518 282 4582 202 
Q 4646 122 4794 109 
L 4960 96 
L 4960 0 
z
" transform="scale(0.015625)"/>
       <path id="STIXGeneral-Regular-65" d="M 2611 1050 
L 2714 1005 
Q 2330 -64 1376 -64 
Q 813 -64 486 329 
Q 160 723 160 1389 
Q 160 2074 525 2509 
Q 890 2944 1485 2944 
Q 2061 2944 2374 2502 
Q 2560 2246 2592 1773 
L 621 1773 
Q 646 1370 700 1158 
Q 755 947 915 730 
Q 1184 378 1626 378 
Q 1939 378 2153 531 
Q 2368 685 2611 1050 
z
M 634 1978 
L 1939 1978 
Q 1882 2381 1750 2547 
Q 1619 2714 1312 2714 
Q 1043 2714 864 2525 
Q 685 2336 634 1978 
z
" transform="scale(0.015625)"/>
       <path id="STIXGeneral-Regular-20" transform="scale(0.015625)"/>
       <path id="STIXGeneral-Regular-73" d="M 998 1926 
L 1664 1523 
Q 1984 1331 2105 1164 
Q 2227 998 2227 736 
Q 2227 416 1961 176 
Q 1696 -64 1331 -64 
Q 1030 -64 864 -6 
Q 691 51 570 51 
Q 461 51 416 -26 
L 333 -26 
L 333 979 
L 435 979 
Q 538 512 730 294 
Q 922 77 1248 77 
Q 1485 77 1632 211 
Q 1779 346 1779 550 
Q 1779 845 1440 1030 
L 1094 1222 
Q 326 1651 326 2150 
Q 326 2522 566 2730 
Q 806 2938 1210 2938 
Q 1491 2938 1638 2867 
Q 1754 2816 1818 2816 
Q 1862 2816 1920 2880 
L 1990 2880 
L 2022 2010 
L 1926 2010 
Q 1818 2445 1654 2621 
Q 1491 2797 1203 2797 
Q 986 2797 854 2688 
Q 723 2579 723 2362 
Q 723 2253 796 2128 
Q 870 2003 998 1926 
z
" transform="scale(0.015625)"/>
       <path id="STIXGeneral-Regular-74" d="M 1702 493 
L 1786 422 
Q 1478 -64 1011 -64 
Q 448 -64 448 749 
L 448 2675 
L 109 2675 
Q 83 2694 83 2720 
Q 83 2771 192 2842 
Q 435 2982 813 3526 
Q 826 3546 874 3606 
Q 922 3667 941 3706 
Q 986 3706 986 3622 
L 986 2880 
L 1632 2880 
L 1632 2675 
L 986 2675 
L 986 845 
Q 986 538 1062 403 
Q 1139 269 1318 269 
Q 1510 269 1702 493 
z
" transform="scale(0.015625)"/>
       <path id="STIXGeneral-Regular-70" d="M 1018 2931 
L 1018 2438 
Q 1421 2944 1939 2944 
Q 2406 2944 2707 2560 
Q 3008 2176 3008 1581 
Q 3008 883 2621 409 
Q 2234 -64 1664 -64 
Q 1466 -64 1328 -6 
Q 1190 51 1018 211 
L 1018 -794 
Q 1018 -1094 1120 -1180 
Q 1222 -1267 1581 -1274 
L 1581 -1389 
L 32 -1389 
L 32 -1280 
Q 314 -1254 397 -1171 
Q 480 -1088 480 -838 
L 480 2157 
Q 480 2381 429 2451 
Q 378 2522 218 2522 
Q 115 2522 58 2515 
L 58 2618 
Q 506 2752 979 2944 
L 1018 2931 
z
M 1018 2138 
L 1018 563 
Q 1018 422 1238 281 
Q 1459 141 1683 141 
Q 2029 141 2243 467 
Q 2458 794 2458 1325 
Q 2458 1888 2243 2224 
Q 2029 2560 1670 2560 
Q 1446 2560 1232 2419 
Q 1018 2278 1018 2138 
z
" transform="scale(0.015625)"/>
      </defs>
      <use xlink:href="#STIXGeneral-Regular-54"/>
      <use xlink:href="#STIXGeneral-Regular-69" x="61.099991"/>
      <use xlink:href="#STIXGeneral-Regular-6d" x="88.899979"/>
      <use xlink:href="#STIXGeneral-Regular-65" x="166.699966"/>
      <use xlink:href="#STIXGeneral-Regular-20" x="211.09996"/>
      <use xlink:href="#STIXGeneral-Regular-73" x="236.099945"/>
      <use xlink:href="#STIXGeneral-Regular-74" x="274.999939"/>
      <use xlink:href="#STIXGeneral-Regular-65" x="302.799927"/>
      <use xlink:href="#STIXGeneral-Regular-70" x="347.199921"/>
     </g>
    </g>
   </g>
   <g id="matplotlib.axis_2">
    <g id="ytick_1">
     <g id="line2d_9">
      <defs>
       <path id="md4b9eab707" d="M 0 0 
L -3.5 0 
" style="stroke: #323034; stroke-width: 0.8"/>
      </defs>
      <g>
       <use xlink:href="#md4b9eab707" x="40" y="312.8525" style="fill: #323034; stroke: #323034; stroke-width: 0.8"/>
      </g>
     </g>
     <g id="text_10">
      <!-- $\mathdefault{14}$ -->
      <g style="fill: #323034" transform="translate(21 316.950312)scale(0.12 -0.12)">
       <use xlink:href="#STIXGeneral-Regular-31" transform="translate(0 0.40625)"/>
       <use xlink:href="#STIXGeneral-Regular-34" transform="translate(49.999985 0.40625)"/>
      </g>
     </g>
    </g>
    <g id="ytick_2">
     <g id="line2d_10">
      <g>
       <use xlink:href="#md4b9eab707" x="40" y="264.731667" style="fill: #323034; stroke: #323034; stroke-width: 0.8"/>
      </g>
     </g>
     <g id="text_11">
      <!-- $\mathdefault{16}$ -->
      <g style="fill: #323034" transform="translate(21 268.829479)scale(0.12 -0.12)">
       <use xlink:href="#STIXGeneral-Regular-31" transform="translate(0 0.59375)"/>
       <use xlink:href="#STIXGeneral-Regular-36" transform="translate(49.999985 0.59375)"/>
      </g>
     </g>
    </g>
    <g id="ytick_3">
     <g id="line2d_11">
      <g>
       <use xlink:href="#md4b9eab707" x="40" y="216.610833" style="fill: #323034; stroke: #323034; stroke-width: 0.8"/>
      </g>
     </g>
     <g id="text_12">
      <!-- $\mathdefault{18}$ -->
      <g style="fill: #323034" transform="translate(21 220.708646)scale(0.12 -0.12)">
       <use xlink:href="#STIXGeneral-Regular-31" transform="translate(0 0.40625)"/>
       <use xlink:href="#STIXGeneral-Regular-38" transform="translate(49.999985 0.40625)"/>
      </g>
     </g>
    </g>
    <g id="ytick_4">
     <g id="line2d_12">
      <g>
       <use xlink:href="#md4b9eab707" x="40" y="168.49" style="fill: #323034; stroke: #323034; stroke-width: 0.8"/>
      </g>
     </g>
     <g id="text_13">
      <!-- $\mathdefault{20}$ -->
      <g style="fill: #323034" transform="translate(21 172.587812)scale(0.12 -0.12)">
       <use xlink:href="#STIXGeneral-Regular-32" transform="translate(0 0.40625)"/>
       <use xlink:href="#STIXGeneral-Regular-30" transform="translate(49.999985 0.40625)"/>
      </g>
     </g>
    </g>
    <g id="ytick_5">
     <g id="line2d_13">
      <g>
       <use xlink:href="#md4b9eab707" x="40" y="120.369167" style="fill: #323034; stroke: #323034; stroke-width: 0.8"/>
      </g>
     </g>
     <g id="text_14">
      <!-- $\mathdefault{22}$ -->
      <g style="fill: #323034" transform="translate(21 124.466979)scale(0.12 -0.12)">
       <use xlink:href="#STIXGeneral-Regular-32" transform="translate(0 0.40625)"/>
       <use xlink:href="#STIXGeneral-Regular-32" transform="translate(49.999985 0.40625)"/>
      </g>
     </g>
    </g>
    <g id="ytick_6">
     <g id="line2d_14">
      <g>
       <use xlink:href="#md4b9eab707" x="40" y="72.248333" style="fill: #323034; stroke: #323034; stroke-width: 0.8"/>
      </g>
     </g>
     <g id="text_15">
      <!-- $\mathdefault{24}$ -->
      <g style="fill: #323034" transform="translate(21 76.346146)scale(0.12 -0.12)">
       <use xlink:href="#STIXGeneral-Regular-32" transform="translate(0 0.40625)"/>
       <use xlink:href="#STIXGeneral-Regular-34" transform="translate(49.999985 0.40625)"/>
      </g>
     </g>
    </g>
    <g id="ytick_7">
     <g id="line2d_15">
      <g>
       <use xlink:href="#md4b9eab707" x="40" y="24.1275" style="fill: #323034; stroke: #323034; stroke-width: 0.8"/>
      </g>
     </g>
     <g id="text_16">
      <!-- $\mathdefault{26}$ -->
      <g style="fill: #323034" transform="translate(21 28.225312)scale(0.12 -0.12)">
       <use xlink:href="#STIXGeneral-Regular-32" transform="translate(0 0.59375)"/>
       <use xlink:href="#STIXGeneral-Regular-36" transform="translate(49.999985 0.59375)"/>
      </g>
     </g>
    </g>
    <g id="text_17">
     <!-- Coefficient value -->
     <g transform="translate(15.395625 209.980937)rotate(-90)scale(0.12 -0.12)">
      <defs>
       <path id="STIXGeneral-Regular-43" d="M 3930 838 
L 4051 723 
Q 3482 -90 2304 -90 
Q 1376 -90 794 480 
Q 179 1082 179 2080 
Q 179 3014 755 3661 
Q 1357 4326 2310 4326 
Q 2720 4326 3072 4230 
Q 3475 4115 3514 4115 
Q 3725 4115 3782 4326 
L 3910 4326 
L 3968 2874 
L 3821 2874 
Q 3718 3334 3488 3584 
Q 3034 4070 2458 4070 
Q 1747 4070 1334 3548 
Q 922 3027 922 2182 
Q 922 1152 1382 653 
Q 1811 192 2522 192 
Q 2944 192 3251 339 
Q 3558 486 3930 838 
z
" transform="scale(0.015625)"/>
       <path id="STIXGeneral-Regular-6f" d="M 3008 1478 
Q 3008 806 2608 371 
Q 2208 -64 1568 -64 
Q 979 -64 582 368 
Q 186 800 186 1459 
Q 186 2125 582 2534 
Q 979 2944 1626 2944 
Q 2221 2944 2614 2537 
Q 3008 2131 3008 1478 
z
M 2432 1306 
Q 2432 2035 2112 2445 
Q 1856 2765 1504 2765 
Q 1171 2765 966 2493 
Q 762 2221 762 1747 
Q 762 928 1101 435 
Q 1318 115 1677 115 
Q 2029 115 2230 432 
Q 2432 749 2432 1306 
z
" transform="scale(0.015625)"/>
       <path id="STIXGeneral-Regular-66" d="M 134 2880 
L 659 2880 
Q 666 3264 710 3478 
Q 755 3693 883 3910 
Q 1152 4371 1786 4371 
Q 2074 4371 2262 4259 
Q 2451 4147 2451 3974 
Q 2451 3866 2374 3789 
Q 2298 3712 2182 3712 
Q 2029 3712 1894 3942 
Q 1741 4192 1555 4192 
Q 1197 4192 1197 3622 
L 1197 2880 
L 1978 2880 
L 1978 2675 
L 1197 2675 
L 1197 666 
Q 1197 307 1299 208 
Q 1402 109 1792 96 
L 1792 0 
L 128 0 
L 128 96 
Q 474 115 566 214 
Q 659 314 659 666 
L 659 2675 
L 134 2675 
L 134 2880 
z
" transform="scale(0.015625)"/>
       <path id="STIXGeneral-Regular-63" d="M 2547 998 
L 2637 941 
Q 2362 403 2112 205 
Q 1786 -64 1376 -64 
Q 845 -64 502 336 
Q 160 736 160 1357 
Q 160 2170 698 2618 
Q 1094 2944 1562 2944 
Q 1965 2944 2256 2749 
Q 2547 2554 2547 2285 
Q 2547 2176 2457 2096 
Q 2368 2016 2246 2016 
Q 2022 2016 1939 2310 
L 1901 2451 
Q 1850 2630 1773 2694 
Q 1696 2758 1523 2758 
Q 1133 2758 893 2451 
Q 653 2144 653 1645 
Q 653 1094 928 745 
Q 1203 397 1645 397 
Q 1920 397 2118 528 
Q 2317 659 2547 998 
z
" transform="scale(0.015625)"/>
       <path id="STIXGeneral-Regular-6e" d="M 3104 0 
L 1773 0 
L 1779 96 
Q 2016 115 2096 233 
Q 2176 352 2176 672 
L 2176 1946 
Q 2176 2592 1709 2592 
Q 1549 2592 1408 2515 
Q 1267 2438 1050 2227 
L 1050 461 
Q 1050 269 1136 192 
Q 1222 115 1466 96 
L 1466 0 
L 115 0 
L 115 96 
Q 358 115 435 214 
Q 512 314 512 602 
L 512 2157 
Q 512 2394 467 2483 
Q 422 2573 288 2573 
Q 160 2573 102 2547 
L 102 2656 
Q 550 2784 979 2944 
L 1030 2925 
L 1030 2426 
L 1037 2426 
Q 1491 2944 1958 2944 
Q 2323 2944 2518 2688 
Q 2714 2432 2714 1958 
L 2714 544 
Q 2714 288 2790 205 
Q 2867 122 3104 96 
L 3104 0 
z
" transform="scale(0.015625)"/>
       <path id="STIXGeneral-Regular-76" d="M 3053 2880 
L 3053 2784 
Q 2906 2771 2835 2688 
Q 2765 2605 2637 2285 
L 1818 230 
Q 1690 -90 1638 -90 
Q 1587 -90 1523 77 
Q 1510 96 1497 141 
Q 1485 186 1472 211 
L 704 2048 
Q 499 2534 403 2652 
Q 307 2771 122 2784 
L 122 2880 
L 1376 2880 
L 1376 2784 
Q 1210 2771 1146 2732 
Q 1082 2694 1082 2611 
Q 1082 2509 1139 2368 
L 1792 730 
L 2426 2387 
Q 2464 2483 2464 2579 
Q 2464 2758 2163 2784 
L 2163 2880 
L 3053 2880 
z
" transform="scale(0.015625)"/>
       <path id="STIXGeneral-Regular-61" d="M 2829 422 
L 2829 243 
Q 2586 -64 2253 -64 
Q 1888 -64 1843 403 
L 1837 403 
Q 1427 -64 909 -64 
Q 608 -64 422 112 
Q 237 288 237 602 
Q 237 1050 685 1350 
Q 992 1555 1837 1869 
L 1837 2214 
Q 1837 2502 1699 2646 
Q 1562 2790 1338 2790 
Q 1146 2790 1018 2697 
Q 890 2605 890 2477 
Q 890 2419 909 2348 
Q 928 2278 928 2208 
Q 928 2112 841 2029 
Q 755 1946 634 1946 
Q 525 1946 441 2029 
Q 358 2112 358 2240 
Q 358 2547 685 2752 
Q 986 2944 1421 2944 
Q 1939 2944 2176 2656 
Q 2291 2522 2323 2384 
Q 2355 2246 2355 1946 
L 2355 723 
Q 2355 301 2554 301 
Q 2682 301 2829 422 
z
M 1837 813 
L 1837 1715 
Q 1248 1510 1018 1293 
Q 800 1094 800 800 
Q 800 557 921 432 
Q 1043 307 1242 307 
Q 1453 307 1613 410 
Q 1747 506 1792 589 
Q 1837 672 1837 813 
z
" transform="scale(0.015625)"/>
       <path id="STIXGeneral-Regular-6c" d="M 1645 0 
L 134 0 
L 134 96 
Q 435 122 531 221 
Q 627 320 627 589 
L 627 3590 
Q 627 3821 569 3910 
Q 512 4000 358 4000 
Q 224 4000 122 3987 
L 122 4090 
Q 730 4237 1133 4371 
L 1165 4346 
L 1165 557 
Q 1165 288 1254 201 
Q 1344 115 1645 96 
L 1645 0 
z
" transform="scale(0.015625)"/>
       <path id="STIXGeneral-Regular-75" d="M 3072 320 
L 3072 230 
Q 2573 96 2195 -58 
L 2163 -38 
L 2163 486 
L 2150 486 
Q 1747 -64 1235 -64 
Q 870 -64 662 160 
Q 454 384 454 755 
L 454 2362 
Q 454 2598 371 2688 
Q 288 2778 58 2790 
L 58 2880 
L 992 2880 
L 992 813 
Q 992 595 1123 451 
Q 1254 307 1446 307 
Q 1760 307 1984 506 
Q 2067 582 2099 649 
Q 2131 717 2131 877 
L 2131 2355 
Q 2131 2605 2041 2678 
Q 1952 2752 1658 2771 
L 1658 2880 
L 2669 2880 
L 2669 685 
Q 2669 461 2742 390 
Q 2816 320 3034 320 
L 3072 320 
z
" transform="scale(0.015625)"/>
      </defs>
      <use xlink:href="#STIXGeneral-Regular-43"/>
      <use xlink:href="#STIXGeneral-Regular-6f" x="66.699997"/>
      <use xlink:href="#STIXGeneral-Regular-65" x="116.699982"/>
      <use xlink:href="#STIXGeneral-Regular-66" x="161.099976"/>
      <use xlink:href="#STIXGeneral-Regular-66" x="194.399963"/>
      <use xlink:href="#STIXGeneral-Regular-69" x="227.699951"/>
      <use xlink:href="#STIXGeneral-Regular-63" x="255.499939"/>
      <use xlink:href="#STIXGeneral-Regular-69" x="299.899933"/>
      <use xlink:href="#STIXGeneral-Regular-65" x="327.699921"/>
      <use xlink:href="#STIXGeneral-Regular-6e" x="372.099915"/>
      <use xlink:href="#STIXGeneral-Regular-74" x="422.099899"/>
      <use xlink:href="#STIXGeneral-Regular-20" x="449.899887"/>
      <use xlink:href="#STIXGeneral-Regular-76" x="474.899872"/>
      <use xlink:href="#STIXGeneral-Regular-61" x="524.899857"/>
      <use xlink:href="#STIXGeneral-Regular-6c" x="569.29985"/>
      <use xlink:href="#STIXGeneral-Regular-75" x="597.099838"/>
      <use xlink:href="#STIXGeneral-Regular-65" x="647.099823"/>
     </g>
    </g>
   </g>
   <g id="line2d_16">
    <path d="M 40 150.77639 
L 42.397371 160.027496 
L 44.794743 159.63512 
L 47.192114 155.674091 
L 49.589486 157.177496 
L 51.986857 168.4356 
L 54.384229 170.306427 
L 59.178971 169.519092 
L 61.576343 174.261034 
L 63.973714 177.592297 
L 66.371086 178.245065 
L 68.768457 178.141672 
L 71.165829 178.20165 
L 73.5632 183.593879 
L 75.960571 172.533477 
L 78.357943 172.333334 
L 80.755314 185.873045 
L 83.152686 184.979389 
L 85.550057 180.350204 
L 87.947429 181.493077 
L 90.3448 180.220904 
L 92.742171 179.457194 
L 95.139543 181.596944 
L 97.536914 177.845236 
L 99.934286 164.059259 
L 102.331657 158.998487 
L 104.729029 152.174246 
L 107.1264 153.791091 
L 109.523771 144.901099 
L 111.921143 144.596516 
L 114.318514 141.112833 
L 116.715886 132.927501 
L 119.113257 139.263759 
L 121.510629 134.363756 
L 123.908 120.51762 
L 126.305371 125.577913 
L 128.702743 124.63429 
L 131.100114 133.932974 
L 133.497486 130.839167 
L 135.894857 130.550912 
L 138.292229 122.883167 
L 140.6896 122.099396 
L 143.086971 126.834773 
L 145.484343 126.969147 
L 147.881714 120.105023 
L 150.279086 121.400289 
L 152.676457 122.840874 
L 155.073829 123.206692 
L 157.4712 125.127082 
L 159.868571 129.606193 
L 162.265943 126.781291 
L 164.663314 129.338076 
L 167.060686 126.832317 
L 169.458057 131.960245 
L 171.855429 128.337635 
L 174.2528 128.938976 
L 176.650171 135.304613 
L 179.047543 132.239157 
L 181.444914 133.212908 
L 183.842286 138.701918 
L 186.239657 139.515487 
L 188.637029 139.037783 
L 191.0344 127.318826 
L 193.431771 128.472252 
L 195.829143 132.753505 
L 198.226514 156.529442 
L 200.623886 163.882561 
L 203.021257 187.973836 
L 205.418629 172.702193 
L 207.816 192.279291 
L 210.213371 195.974487 
L 212.610743 190.519696 
L 215.008114 193.674076 
L 217.405486 199.195117 
L 219.802857 201.569764 
L 222.200229 208.487769 
L 224.5976 206.255028 
L 226.994971 205.452456 
L 229.392343 198.630815 
L 231.789714 203.72085 
L 234.187086 201.447991 
L 236.584457 200.490431 
L 238.981829 204.225461 
L 241.3792 201.961817 
L 243.776571 198.303685 
L 246.173943 195.470439 
L 248.571314 191.28097 
L 250.968686 188.198921 
L 253.366057 187.766361 
L 255.763429 186.684149 
L 258.1608 188.169504 
L 260.558171 186.815557 
L 262.955543 183.437623 
L 265.352914 188.84829 
L 267.750286 178.744802 
L 270.147657 176.139064 
L 272.545029 174.78422 
L 274.9424 174.848403 
L 277.339771 170.867548 
L 279.737143 167.479397 
L 282.134514 167.007125 
L 284.531886 171.71491 
L 286.929257 162.568063 
L 289.326629 164.28492 
L 291.724 158.366918 
L 294.121371 161.122928 
L 296.518743 151.301457 
L 298.916114 149.946933 
L 301.313486 153.195063 
L 303.710857 152.840323 
L 306.108229 146.806273 
L 308.5056 144.745295 
L 310.902971 150.419784 
L 313.300343 143.940501 
L 315.697714 142.328718 
L 318.095086 146.045805 
L 320.492457 147.473776 
L 322.889829 146.753499 
L 325.2872 149.562328 
L 327.684571 148.997878 
L 330.081943 151.51149 
L 332.479314 148.429573 
L 334.876686 137.542232 
L 337.274057 135.720808 
L 339.671429 136.101033 
L 342.0688 135.447019 
L 344.466171 133.068812 
L 346.863543 133.605246 
L 351.658286 137.3522 
L 354.055657 128.113254 
L 356.453029 132.245615 
L 358.8504 130.846587 
L 361.247771 128.252659 
L 363.645143 122.291613 
L 366.042514 118.857077 
L 368.439886 120.693964 
L 370.837257 122.912506 
L 373.234629 123.310918 
L 375.632 125.618529 
L 378.029371 117.822555 
L 380.426743 117.868981 
L 382.824114 118.106862 
L 385.221486 116.391371 
L 387.618857 116.878425 
L 392.4136 126.044374 
L 394.810971 135.491292 
L 397.208343 139.334906 
L 399.605714 138.563362 
L 402.003086 139.650123 
L 404.400457 144.278714 
L 406.797829 135.606664 
L 409.1952 141.362204 
L 411.592571 138.613931 
L 413.989943 143.005263 
L 416.387314 145.425179 
L 418.784686 145.180927 
L 421.182057 149.495697 
L 423.579429 156.006475 
L 425.9768 179.758969 
L 428.374171 172.647268 
L 430.771543 167.28069 
L 433.168914 171.860722 
L 435.566286 163.001308 
L 437.963657 165.977173 
L 440.361029 164.738701 
L 442.7584 163.83714 
L 445.155771 160.799733 
L 447.553143 163.17911 
L 449.950514 163.711158 
L 452.347886 165.542604 
L 454.745257 164.666172 
L 457.142629 160.814191 
L 459.54 160.489822 
L 459.54 160.489822 
" clip-path="url(#pea1794b6f5)" style="fill: none; stroke: #bc80bd; stroke-width: 2; stroke-linecap: square"/>
   </g>
   <g id="line2d_17">
    <path d="M 40 197.416647 
L 42.397371 206.215614 
L 44.794743 206.808463 
L 47.192114 203.118994 
L 49.589486 203.05249 
L 51.986857 207.339348 
L 54.384229 210.42585 
L 59.178971 210.516885 
L 61.576343 212.544853 
L 63.973714 215.201562 
L 66.371086 214.350496 
L 68.768457 210.42888 
L 71.165829 211.772944 
L 73.5632 211.076215 
L 75.960571 198.109433 
L 78.357943 198.531602 
L 80.755314 211.685028 
L 83.152686 215.331309 
L 85.550057 209.805085 
L 87.947429 218.70418 
L 90.3448 218.326612 
L 92.742171 221.975407 
L 95.139543 224.589336 
L 97.536914 218.045191 
L 99.934286 207.943601 
L 102.331657 201.982425 
L 104.729029 196.589341 
L 107.1264 196.00571 
L 109.523771 187.47616 
L 111.921143 187.002241 
L 114.318514 183.433555 
L 116.715886 171.454405 
L 119.113257 178.922094 
L 121.510629 176.167785 
L 123.908 161.651105 
L 126.305371 170.083316 
L 128.702743 169.598673 
L 131.100114 177.860282 
L 133.497486 173.151843 
L 135.894857 171.953816 
L 138.292229 160.712056 
L 140.6896 160.096714 
L 143.086971 162.680491 
L 145.484343 162.98712 
L 147.881714 151.994681 
L 150.279086 151.240899 
L 152.676457 156.32428 
L 155.073829 157.231606 
L 157.4712 160.57895 
L 159.868571 161.839217 
L 162.265943 159.056448 
L 164.663314 160.933732 
L 167.060686 159.811115 
L 169.458057 164.430091 
L 171.855429 162.182088 
L 174.2528 163.094265 
L 176.650171 176.775265 
L 179.047543 170.689691 
L 181.444914 170.296627 
L 183.842286 177.038623 
L 186.239657 175.879887 
L 188.637029 176.927821 
L 191.0344 164.819326 
L 193.431771 166.002006 
L 195.829143 170.95016 
L 198.226514 200.743332 
L 200.623886 209.089613 
L 203.021257 231.311608 
L 205.418629 224.412106 
L 207.816 239.7631 
L 210.213371 246.05156 
L 212.610743 236.653364 
L 215.008114 239.16667 
L 217.405486 246.776006 
L 219.802857 245.167839 
L 222.200229 250.127255 
L 224.5976 250.03222 
L 226.994971 248.13192 
L 229.392343 243.736334 
L 231.789714 247.156291 
L 234.187086 246.214752 
L 236.584457 254.257159 
L 238.981829 260.983692 
L 241.3792 260.96686 
L 243.776571 257.69518 
L 246.173943 251.983433 
L 248.571314 243.394749 
L 250.968686 239.270966 
L 253.366057 231.588113 
L 255.763429 230.769909 
L 258.1608 231.472162 
L 260.558171 229.989054 
L 262.955543 226.599493 
L 265.352914 227.371637 
L 267.750286 218.766603 
L 270.147657 215.186745 
L 272.545029 211.035368 
L 274.9424 209.883001 
L 277.339771 204.550218 
L 279.737143 202.413029 
L 282.134514 202.377673 
L 284.531886 207.22738 
L 286.929257 196.877198 
L 289.326629 197.228094 
L 291.724 188.627633 
L 294.121371 190.659543 
L 296.518743 173.557831 
L 298.916114 167.85439 
L 301.313486 169.366825 
L 303.710857 169.948218 
L 306.108229 169.790074 
L 308.5056 168.015588 
L 310.902971 176.615903 
L 313.300343 172.367195 
L 315.697714 170.463979 
L 318.095086 175.84981 
L 320.492457 177.799397 
L 322.889829 177.674786 
L 325.2872 183.641664 
L 327.684571 183.82949 
L 330.081943 188.078951 
L 332.479314 191.688773 
L 334.876686 177.484933 
L 337.274057 174.165613 
L 339.671429 174.108081 
L 342.0688 173.484386 
L 344.466171 170.90173 
L 346.863543 172.890919 
L 349.260914 175.053073 
L 351.658286 181.753605 
L 354.055657 173.652824 
L 356.453029 183.445419 
L 358.8504 190.705316 
L 361.247771 187.425666 
L 363.645143 179.642203 
L 366.042514 170.303844 
L 368.439886 172.730515 
L 370.837257 172.969583 
L 373.234629 171.712824 
L 375.632 174.570422 
L 378.029371 164.305395 
L 380.426743 162.967901 
L 382.824114 163.368581 
L 385.221486 158.269809 
L 387.618857 158.374767 
L 390.016229 162.911563 
L 392.4136 163.538026 
L 394.810971 176.206931 
L 397.208343 184.340626 
L 399.605714 184.650059 
L 402.003086 185.995549 
L 404.400457 191.557951 
L 406.797829 179.509704 
L 409.1952 186.05085 
L 411.592571 180.614246 
L 413.989943 184.79569 
L 416.387314 184.714411 
L 418.784686 176.116693 
L 421.182057 182.844018 
L 423.579429 188.825236 
L 425.9768 215.471217 
L 428.374171 206.384036 
L 430.771543 200.592346 
L 433.168914 204.309396 
L 435.566286 201.28511 
L 437.963657 204.88392 
L 440.361029 204.375279 
L 442.7584 203.150014 
L 445.155771 200.96249 
L 447.553143 201.282839 
L 449.950514 204.949868 
L 452.347886 205.372331 
L 454.745257 205.164714 
L 457.142629 201.728362 
L 459.54 201.605734 
L 459.54 201.605734 
" clip-path="url(#pea1794b6f5)" style="fill: none; stroke-dasharray: 2,3.3; stroke-dashoffset: 0; stroke: #000000; stroke-width: 2"/>
   </g>
   <g id="line2d_18">
    <path d="M 40 104.136133 
L 42.397371 113.839378 
L 44.794743 112.461776 
L 47.192114 108.229187 
L 49.589486 111.302502 
L 51.986857 129.531852 
L 54.384229 130.187005 
L 59.178971 128.521299 
L 61.576343 135.977214 
L 63.973714 139.983032 
L 66.371086 142.139635 
L 68.768457 145.854464 
L 71.165829 144.630356 
L 73.5632 156.111543 
L 75.960571 146.957521 
L 78.357943 146.135065 
L 80.755314 160.061063 
L 83.152686 154.627469 
L 85.550057 150.895322 
L 87.947429 144.281974 
L 90.3448 142.115195 
L 92.742171 136.938982 
L 95.139543 138.604552 
L 97.536914 137.645282 
L 99.934286 120.174917 
L 102.331657 116.014548 
L 104.729029 107.759151 
L 107.1264 111.576471 
L 109.523771 102.326037 
L 111.921143 102.190791 
L 114.318514 98.792111 
L 116.715886 94.400597 
L 119.113257 99.605424 
L 121.510629 92.559726 
L 123.908 79.384136 
L 126.305371 81.072511 
L 128.702743 79.669908 
L 131.100114 90.005666 
L 133.497486 88.526491 
L 135.894857 89.148008 
L 138.292229 85.054278 
L 140.6896 84.102078 
L 143.086971 90.989054 
L 145.484343 90.951173 
L 147.881714 88.215365 
L 150.279086 91.559678 
L 152.676457 89.357468 
L 155.073829 89.181777 
L 157.4712 89.675214 
L 159.868571 97.373169 
L 162.265943 94.506134 
L 164.663314 97.74242 
L 167.060686 93.853519 
L 169.458057 99.490399 
L 171.855429 94.493183 
L 174.2528 94.783688 
L 176.650171 93.833961 
L 179.047543 93.788622 
L 181.444914 96.12919 
L 183.842286 100.365213 
L 186.239657 103.151087 
L 188.637029 101.147744 
L 191.0344 89.818326 
L 193.431771 90.942498 
L 195.829143 94.55685 
L 198.226514 112.315552 
L 200.623886 118.67551 
L 203.021257 144.636064 
L 205.418629 120.992281 
L 207.816 144.795482 
L 210.213371 145.897414 
L 212.610743 144.386028 
L 215.008114 148.181481 
L 217.405486 151.614228 
L 219.802857 157.971689 
L 222.200229 166.848284 
L 224.5976 162.477835 
L 226.994971 162.772992 
L 229.392343 153.525295 
L 231.789714 160.285408 
L 234.187086 156.68123 
L 236.584457 146.723704 
L 238.981829 147.467231 
L 241.3792 142.956773 
L 243.776571 138.91219 
L 246.173943 138.957445 
L 248.571314 139.167191 
L 250.968686 137.126875 
L 253.366057 143.944609 
L 255.763429 142.59839 
L 258.1608 144.866845 
L 260.558171 143.642061 
L 262.955543 140.275752 
L 265.352914 150.324944 
L 267.750286 138.723002 
L 270.147657 137.091383 
L 272.545029 138.533072 
L 274.9424 139.813805 
L 277.339771 137.184879 
L 279.737143 132.545765 
L 282.134514 131.636578 
L 284.531886 136.20244 
L 286.929257 128.258928 
L 289.326629 131.341745 
L 291.724 128.106202 
L 294.121371 131.586313 
L 296.518743 129.045083 
L 298.916114 132.039477 
L 301.313486 137.023302 
L 303.710857 135.732429 
L 306.108229 123.822472 
L 308.5056 121.475002 
L 310.902971 124.223665 
L 313.300343 115.513807 
L 315.697714 114.193458 
L 318.095086 116.241799 
L 320.492457 117.148155 
L 322.889829 115.832212 
L 325.2872 115.482992 
L 327.684571 114.166266 
L 330.081943 114.944029 
L 332.479314 105.170372 
L 334.876686 97.599531 
L 337.274057 97.276004 
L 339.671429 98.093984 
L 342.0688 97.409653 
L 344.466171 95.235894 
L 346.863543 94.319573 
L 349.260914 95.840941 
L 351.658286 92.950795 
L 354.055657 82.573684 
L 356.453029 81.04581 
L 358.8504 70.987859 
L 361.247771 69.079652 
L 363.645143 64.941023 
L 366.042514 67.41031 
L 368.439886 68.657412 
L 370.837257 72.855429 
L 373.234629 74.909012 
L 375.632 76.666637 
L 378.029371 71.339714 
L 380.426743 72.770061 
L 382.824114 72.845144 
L 385.221486 74.512934 
L 387.618857 75.382082 
L 390.016229 80.034368 
L 392.4136 88.550721 
L 394.810971 94.775654 
L 397.208343 94.329186 
L 399.605714 92.476666 
L 402.003086 93.304698 
L 404.400457 96.999477 
L 406.797829 91.703623 
L 409.1952 96.673557 
L 411.592571 96.613617 
L 413.989943 101.214837 
L 416.387314 106.135948 
L 418.784686 114.245161 
L 421.182057 116.147375 
L 423.579429 123.187713 
L 425.9768 144.04672 
L 430.771543 133.969035 
L 433.168914 139.412048 
L 435.566286 124.717507 
L 437.963657 127.070427 
L 440.361029 125.102124 
L 442.7584 124.524265 
L 445.155771 120.636975 
L 447.553143 125.075382 
L 449.950514 122.472448 
L 452.347886 125.712878 
L 454.745257 124.16763 
L 457.142629 119.900021 
L 459.54 119.373911 
L 459.54 119.373911 
" clip-path="url(#pea1794b6f5)" style="fill: none; stroke-dasharray: 2,3.3; stroke-dashoffset: 0; stroke: #000000; stroke-width: 2"/>
   </g>
   <g id="patch_3">
    <path d="M 40 312.8525 
L 40 24.1275 
" style="fill: none; stroke: #000000; stroke-width: 0.6; stroke-linejoin: miter; stroke-linecap: square"/>
   </g>
   <g id="patch_4">
    <path d="M 40 312.8525 
L 459.54 312.8525 
" style="fill: none; stroke: #000000; stroke-width: 0.6; stroke-linejoin: miter; stroke-linecap: square"/>
   </g>
   <g id="text_18">
    <!-- feature0 -->
    <g style="fill: #323034" transform="translate(40 18.1275)scale(0.16 -0.16)">
     <defs>
      <path id="STIXGeneral-Regular-72" d="M 1024 2931 
L 1024 2342 
Q 1267 2688 1430 2816 
Q 1594 2944 1792 2944 
Q 1958 2944 2051 2854 
Q 2144 2765 2144 2605 
Q 2144 2470 2077 2393 
Q 2010 2317 1894 2317 
Q 1773 2317 1638 2445 
Q 1536 2541 1472 2541 
Q 1338 2541 1181 2355 
Q 1024 2170 1024 2016 
L 1024 576 
Q 1024 301 1133 205 
Q 1242 109 1568 96 
L 1568 0 
L 32 0 
L 32 96 
Q 339 154 412 224 
Q 486 294 486 538 
L 486 2138 
Q 486 2349 438 2435 
Q 390 2522 269 2522 
Q 166 2522 45 2496 
L 45 2598 
Q 448 2726 992 2944 
L 1024 2931 
z
" transform="scale(0.015625)"/>
     </defs>
     <use xlink:href="#STIXGeneral-Regular-66"/>
     <use xlink:href="#STIXGeneral-Regular-65" x="33.299988"/>
     <use xlink:href="#STIXGeneral-Regular-61" x="77.699982"/>
     <use xlink:href="#STIXGeneral-Regular-74" x="122.099976"/>
     <use xlink:href="#STIXGeneral-Regular-75" x="149.899963"/>
     <use xlink:href="#STIXGeneral-Regular-72" x="199.899948"/>
     <use xlink:href="#STIXGeneral-Regular-65" x="233.199936"/>
     <use xlink:href="#STIXGeneral-Regular-30" x="277.59993"/>
    </g>
   </g>
   <g id="legend_1">
    <g id="patch_5">
     <path d="M 47 55.468125 
L 113.6 55.468125 
Q 115.6 55.468125 115.6 53.468125 
L 115.6 31.1275 
Q 115.6 29.1275 113.6 29.1275 
L 47 29.1275 
Q 45 29.1275 45 31.1275 
L 45 53.468125 
Q 45 55.468125 47 55.468125 
z
" style="fill: #ffffff; opacity: 0.8; stroke: #e6e6e6; stroke-width: 0.8; stroke-linejoin: miter"/>
    </g>
    <g id="line2d_19">
     <path d="M 47 34.6275 
L 57 34.6275 
L 67 34.6275 
" style="fill: none; stroke-dasharray: 2,3.3; stroke-dashoffset: 0; stroke: #000000; stroke-width: 2"/>
    </g>
    <g id="text_19">
     <!-- Lower CI -->
     <g style="fill: #323034" transform="translate(75 38.1275)scale(0.1 -0.1)">
      <defs>
       <path id="STIXGeneral-Regular-4c" d="M 3827 1114 
L 3520 0 
L 77 0 
L 77 122 
Q 429 141 531 256 
Q 634 371 634 736 
L 634 3494 
Q 634 3872 541 3981 
Q 448 4090 77 4115 
L 77 4237 
L 1888 4237 
L 1888 4115 
Q 1498 4090 1392 3984 
Q 1286 3878 1286 3507 
L 1286 538 
Q 1286 358 1398 304 
Q 1510 250 1862 250 
L 2310 250 
Q 3085 250 3392 640 
Q 3520 813 3661 1114 
L 3827 1114 
z
" transform="scale(0.015625)"/>
       <path id="STIXGeneral-Regular-77" d="M 4442 2880 
L 4442 2784 
Q 4346 2752 4301 2691 
Q 4256 2630 4179 2438 
L 3296 224 
Q 3168 -90 3117 -90 
Q 3085 -90 3062 -48 
Q 3040 -6 2963 186 
L 2381 1696 
L 1664 160 
Q 1549 -90 1504 -90 
Q 1446 -90 1338 192 
L 474 2381 
Q 378 2630 314 2700 
Q 250 2771 134 2784 
L 134 2880 
L 1286 2880 
L 1286 2784 
Q 1120 2765 1056 2720 
Q 992 2675 992 2573 
Q 992 2477 1030 2381 
L 1664 710 
L 2246 1984 
L 2118 2342 
Q 2029 2598 1942 2681 
Q 1856 2765 1677 2784 
L 1677 2880 
L 2976 2880 
L 2976 2784 
Q 2752 2752 2678 2707 
Q 2605 2662 2605 2560 
Q 2605 2458 2714 2176 
L 3251 742 
L 3827 2163 
Q 3936 2432 3936 2592 
Q 3936 2669 3875 2710 
Q 3814 2752 3654 2784 
L 3654 2880 
L 4442 2880 
z
" transform="scale(0.015625)"/>
       <path id="STIXGeneral-Regular-49" d="M 2016 0 
L 115 0 
L 115 122 
Q 518 134 627 240 
Q 736 346 736 717 
L 736 3526 
Q 736 3898 633 3994 
Q 531 4090 115 4115 
L 115 4237 
L 2016 4237 
L 2016 4115 
Q 1613 4096 1501 3993 
Q 1389 3891 1389 3526 
L 1389 717 
Q 1389 358 1504 246 
Q 1619 134 2016 122 
L 2016 0 
z
" transform="scale(0.015625)"/>
      </defs>
      <use xlink:href="#STIXGeneral-Regular-4c"/>
      <use xlink:href="#STIXGeneral-Regular-6f" x="61.099991"/>
      <use xlink:href="#STIXGeneral-Regular-77" x="111.099976"/>
      <use xlink:href="#STIXGeneral-Regular-65" x="183.299957"/>
      <use xlink:href="#STIXGeneral-Regular-72" x="227.699951"/>
      <use xlink:href="#STIXGeneral-Regular-20" x="260.999939"/>
      <use xlink:href="#STIXGeneral-Regular-43" x="285.999924"/>
      <use xlink:href="#STIXGeneral-Regular-49" x="352.699921"/>
     </g>
    </g>
    <g id="line2d_20">
     <path d="M 47 47.797813 
L 57 47.797813 
L 67 47.797813 
" style="fill: none; stroke-dasharray: 2,3.3; stroke-dashoffset: 0; stroke: #000000; stroke-width: 2"/>
    </g>
    <g id="text_20">
     <!-- Upper CI -->
     <g style="fill: #323034" transform="translate(75 51.297813)scale(0.1 -0.1)">
      <defs>
       <path id="STIXGeneral-Regular-55" d="M 4512 4237 
L 4512 4115 
Q 4122 4077 4016 3926 
Q 3910 3776 3910 3302 
L 3910 1670 
Q 3910 1178 3840 896 
Q 3770 614 3565 378 
Q 3155 -90 2272 -90 
Q 1574 -90 1184 205 
Q 666 589 666 1594 
L 666 3578 
Q 666 3898 566 3994 
Q 467 4090 90 4115 
L 90 4237 
L 1901 4237 
L 1901 4115 
Q 1517 4083 1417 3977 
Q 1318 3872 1318 3514 
L 1318 1517 
Q 1318 1101 1369 877 
Q 1421 653 1600 480 
Q 1901 192 2419 192 
Q 3066 192 3392 570 
Q 3539 749 3584 963 
Q 3629 1178 3629 1600 
L 3629 3283 
Q 3629 3782 3520 3936 
Q 3411 4090 3027 4115 
L 3027 4237 
L 4512 4237 
z
" transform="scale(0.015625)"/>
      </defs>
      <use xlink:href="#STIXGeneral-Regular-55"/>
      <use xlink:href="#STIXGeneral-Regular-70" x="72.199982"/>
      <use xlink:href="#STIXGeneral-Regular-70" x="122.199966"/>
      <use xlink:href="#STIXGeneral-Regular-65" x="172.199951"/>
      <use xlink:href="#STIXGeneral-Regular-72" x="216.599945"/>
      <use xlink:href="#STIXGeneral-Regular-20" x="249.899933"/>
      <use xlink:href="#STIXGeneral-Regular-43" x="274.899918"/>
      <use xlink:href="#STIXGeneral-Regular-49" x="341.599915"/>
     </g>
    </g>
   </g>
  </g>
 </g>
 <defs>
  <clipPath id="pea1794b6f5">
   <rect x="40" y="24.1275" width="419.54" height="288.725"/>
  </clipPath>
 </defs>
</svg>
