<?xml version="1.0" encoding="utf-8" standalone="no"?>
<!DOCTYPE svg PUBLIC "-//W3C//DTD SVG 1.1//EN"
  "http://www.w3.org/Graphics/SVG/1.1/DTD/svg11.dtd">
<svg height="368.39952pt" version="1.1" viewBox="0 0 584.39952 368.39952" width="584.39952pt" xmlns="http://www.w3.org/2000/svg" xmlns:xlink="http://www.w3.org/1999/xlink">
 <metadata>
  <rdf:RDF xmlns:cc="http://creativecommons.org/ns#" xmlns:dc="http://purl.org/dc/elements/1.1/" xmlns:rdf="http://www.w3.org/1999/02/22-rdf-syntax-ns#">
   <cc:Work>
    <dc:type rdf:resource="http://purl.org/dc/dcmitype/StillImage"/>
    <dc:date>2022-08-20T17:53:14.206606</dc:date>
    <dc:format>image/svg+xml</dc:format>
    <dc:creator>
     <cc:Agent>
      <dc:title>Matplotlib v3.4.3, https://matplotlib.org/</dc:title>
     </cc:Agent>
    </dc:creator>
   </cc:Work>
  </rdf:RDF>
 </metadata>
 <defs>
  <style type="text/css">*{stroke-linecap:butt;stroke-linejoin:round;}</style>
 </defs>
 <g id="figure_1">
  <g id="patch_1">
   <path d="M 0 368.39952 
L 584.39952 368.39952 
L 584.39952 0 
L 0 0 
z
" style="fill:#ffffff;"/>
  </g>
  <g id="axes_1">
   <g id="patch_2">
    <path d="M 16.613501 341.144078 
L 567.786019 341.144078 
L 567.786019 24.956118 
L 16.613501 24.956118 
z
" style="fill:#eeeeee;"/>
   </g>
   <g id="matplotlib.axis_1">
    <g id="xtick_1">
     <g id="line2d_1">
      <path clip-path="url(#pee939634c5)" d="M 16.613501 341.144078 
L 16.613501 24.956118 
" style="fill:none;stroke:#ffffff;stroke-linecap:round;stroke-width:0.8;"/>
     </g>
     <g id="line2d_2">
      <defs>
       <path d="M 0 0 
L 0 3 
" id="md4d51766ad" style="stroke:#808080;"/>
      </defs>
      <g>
       <use style="fill:#808080;stroke:#808080;" x="16.613501" xlink:href="#md4d51766ad" y="341.144078"/>
      </g>
     </g>
     <g id="text_1">
      <!-- $\mathdefault{0.4}$ -->
      <g style="fill:#262626;" transform="translate(7.2 357.930682)scale(0.150616 -0.150616)">
       <defs>
        <path d="M 3046 2112 
Q 3046 1683 2963 1302 
Q 2880 922 2717 602 
Q 2554 282 2266 96 
Q 1978 -90 1600 -90 
Q 1210 -90 915 108 
Q 621 307 461 640 
Q 301 973 227 1350 
Q 154 1728 154 2150 
Q 154 2746 301 3222 
Q 448 3699 790 4012 
Q 1133 4326 1626 4326 
Q 2253 4326 2649 3712 
Q 3046 3098 3046 2112 
z
M 2432 2080 
Q 2432 3091 2217 3625 
Q 2003 4160 1587 4160 
Q 1190 4160 979 3622 
Q 768 3085 768 2106 
Q 768 1120 979 598 
Q 1190 77 1600 77 
Q 2003 77 2217 598 
Q 2432 1120 2432 2080 
z
" id="STIXGeneral-Regular-30" transform="scale(0.015625)"/>
        <path d="M 1158 275 
Q 1158 134 1052 32 
Q 947 -70 800 -70 
Q 653 -70 550 32 
Q 448 134 448 281 
Q 448 429 553 534 
Q 659 640 806 640 
Q 947 640 1052 531 
Q 1158 422 1158 275 
z
" id="STIXGeneral-Regular-2e" transform="scale(0.015625)"/>
        <path d="M 3027 1069 
L 2368 1069 
L 2368 0 
L 1869 0 
L 1869 1069 
L 77 1069 
L 77 1478 
L 2086 4326 
L 2368 4326 
L 2368 1478 
L 3027 1478 
L 3027 1069 
z
M 1869 1478 
L 1869 3674 
L 333 1478 
L 1869 1478 
z
" id="STIXGeneral-Regular-34" transform="scale(0.015625)"/>
       </defs>
       <use transform="translate(0 0.40625)" xlink:href="#STIXGeneral-Regular-30"/>
       <use transform="translate(49.999985 0.40625)" xlink:href="#STIXGeneral-Regular-2e"/>
       <use transform="translate(74.999969 0.40625)" xlink:href="#STIXGeneral-Regular-34"/>
      </g>
     </g>
    </g>
    <g id="xtick_2">
     <g id="line2d_3">
      <path clip-path="url(#pee939634c5)" d="M 95.352432 341.144078 
L 95.352432 24.956118 
" style="fill:none;stroke:#ffffff;stroke-linecap:round;stroke-width:0.8;"/>
     </g>
     <g id="line2d_4">
      <g>
       <use style="fill:#808080;stroke:#808080;" x="95.352432" xlink:href="#md4d51766ad" y="341.144078"/>
      </g>
     </g>
     <g id="text_2">
      <!-- $\mathdefault{0.6}$ -->
      <g style="fill:#262626;" transform="translate(85.938931 357.930682)scale(0.150616 -0.150616)">
       <defs>
        <path d="M 2854 4378 
L 2867 4275 
Q 2112 4154 1606 3664 
Q 1101 3174 973 2451 
Q 1344 2739 1786 2739 
Q 2349 2739 2672 2380 
Q 2995 2022 2995 1402 
Q 2995 774 2669 378 
Q 2291 -90 1651 -90 
Q 870 -90 518 557 
Q 218 1107 218 1786 
Q 218 2835 915 3552 
Q 1312 3962 1731 4131 
Q 2150 4301 2854 4378 
z
M 2419 1203 
Q 2419 2445 1555 2445 
Q 1235 2445 1024 2275 
Q 813 2106 813 1702 
Q 813 954 1046 522 
Q 1280 90 1722 90 
Q 2061 90 2240 394 
Q 2419 698 2419 1203 
z
" id="STIXGeneral-Regular-36" transform="scale(0.015625)"/>
       </defs>
       <use transform="translate(0 0.59375)" xlink:href="#STIXGeneral-Regular-30"/>
       <use transform="translate(49.999985 0.59375)" xlink:href="#STIXGeneral-Regular-2e"/>
       <use transform="translate(74.999969 0.59375)" xlink:href="#STIXGeneral-Regular-36"/>
      </g>
     </g>
    </g>
    <g id="xtick_3">
     <g id="line2d_5">
      <path clip-path="url(#pee939634c5)" d="M 174.091363 341.144078 
L 174.091363 24.956118 
" style="fill:none;stroke:#ffffff;stroke-linecap:round;stroke-width:0.8;"/>
     </g>
     <g id="line2d_6">
      <g>
       <use style="fill:#808080;stroke:#808080;" x="174.091363" xlink:href="#md4d51766ad" y="341.144078"/>
      </g>
     </g>
     <g id="text_3">
      <!-- $\mathdefault{0.8}$ -->
      <g style="fill:#262626;" transform="translate(164.677862 357.930682)scale(0.150616 -0.150616)">
       <defs>
        <path d="M 2848 992 
Q 2848 499 2505 204 
Q 2163 -90 1587 -90 
Q 1050 -90 704 204 
Q 358 499 358 954 
Q 358 1293 524 1533 
Q 691 1773 1190 2125 
Q 710 2522 553 2765 
Q 397 3008 397 3328 
Q 397 3782 745 4054 
Q 1094 4326 1638 4326 
Q 2106 4326 2410 4060 
Q 2714 3795 2714 3411 
Q 2714 3059 2531 2848 
Q 2349 2637 1856 2374 
Q 2432 1990 2640 1689 
Q 2848 1389 2848 992 
z
M 2272 3411 
Q 2272 3744 2086 3945 
Q 1901 4147 1574 4147 
Q 1248 4147 1059 3977 
Q 870 3808 870 3513 
Q 870 3219 1059 2979 
Q 1248 2739 1670 2490 
Q 1997 2682 2134 2896 
Q 2272 3110 2272 3411 
z
M 1734 1741 
L 1357 1997 
Q 1075 1766 960 1545 
Q 845 1325 845 1011 
Q 845 576 1065 333 
Q 1286 90 1658 90 
Q 1971 90 2166 285 
Q 2362 480 2362 794 
Q 2362 1082 2214 1299 
Q 2067 1517 1734 1741 
z
" id="STIXGeneral-Regular-38" transform="scale(0.015625)"/>
       </defs>
       <use transform="translate(0 0.40625)" xlink:href="#STIXGeneral-Regular-30"/>
       <use transform="translate(49.999985 0.40625)" xlink:href="#STIXGeneral-Regular-2e"/>
       <use transform="translate(74.999969 0.40625)" xlink:href="#STIXGeneral-Regular-38"/>
      </g>
     </g>
    </g>
    <g id="xtick_4">
     <g id="line2d_7">
      <path clip-path="url(#pee939634c5)" d="M 252.830294 341.144078 
L 252.830294 24.956118 
" style="fill:none;stroke:#ffffff;stroke-linecap:round;stroke-width:0.8;"/>
     </g>
     <g id="line2d_8">
      <g>
       <use style="fill:#808080;stroke:#808080;" x="252.830294" xlink:href="#md4d51766ad" y="341.144078"/>
      </g>
     </g>
     <g id="text_4">
      <!-- $\mathdefault{1.0}$ -->
      <g style="fill:#262626;" transform="translate(243.416793 357.930682)scale(0.150616 -0.150616)">
       <defs>
        <path d="M 2522 0 
L 755 0 
L 755 96 
Q 1107 115 1235 227 
Q 1363 339 1363 608 
L 1363 3482 
Q 1363 3795 1171 3795 
Q 1082 3795 883 3718 
L 710 3654 
L 710 3744 
L 1856 4326 
L 1914 4307 
L 1914 486 
Q 1914 275 2042 185 
Q 2170 96 2522 96 
L 2522 0 
z
" id="STIXGeneral-Regular-31" transform="scale(0.015625)"/>
       </defs>
       <use transform="translate(0 0.40625)" xlink:href="#STIXGeneral-Regular-31"/>
       <use transform="translate(49.999985 0.40625)" xlink:href="#STIXGeneral-Regular-2e"/>
       <use transform="translate(74.999969 0.40625)" xlink:href="#STIXGeneral-Regular-30"/>
      </g>
     </g>
    </g>
    <g id="xtick_5">
     <g id="line2d_9">
      <path clip-path="url(#pee939634c5)" d="M 331.569226 341.144078 
L 331.569226 24.956118 
" style="fill:none;stroke:#ffffff;stroke-linecap:round;stroke-width:0.8;"/>
     </g>
     <g id="line2d_10">
      <g>
       <use style="fill:#808080;stroke:#808080;" x="331.569226" xlink:href="#md4d51766ad" y="341.144078"/>
      </g>
     </g>
     <g id="text_5">
      <!-- $\mathdefault{1.2}$ -->
      <g style="fill:#262626;" transform="translate(322.155724 357.930682)scale(0.150616 -0.150616)">
       <defs>
        <path d="M 3034 877 
L 2688 0 
L 186 0 
L 186 77 
L 1325 1286 
Q 1773 1754 1965 2144 
Q 2157 2534 2157 2950 
Q 2157 3379 1920 3616 
Q 1683 3853 1267 3853 
Q 922 3853 720 3673 
Q 518 3494 326 3021 
L 192 3053 
Q 301 3648 630 3987 
Q 960 4326 1523 4326 
Q 2054 4326 2380 4006 
Q 2707 3686 2707 3200 
Q 2707 2477 1888 1613 
L 832 486 
L 2330 486 
Q 2541 486 2665 569 
Q 2790 653 2944 915 
L 3034 877 
z
" id="STIXGeneral-Regular-32" transform="scale(0.015625)"/>
       </defs>
       <use transform="translate(0 0.40625)" xlink:href="#STIXGeneral-Regular-31"/>
       <use transform="translate(49.999985 0.40625)" xlink:href="#STIXGeneral-Regular-2e"/>
       <use transform="translate(74.999969 0.40625)" xlink:href="#STIXGeneral-Regular-32"/>
      </g>
     </g>
    </g>
    <g id="xtick_6">
     <g id="line2d_11">
      <path clip-path="url(#pee939634c5)" d="M 410.308157 341.144078 
L 410.308157 24.956118 
" style="fill:none;stroke:#ffffff;stroke-linecap:round;stroke-width:0.8;"/>
     </g>
     <g id="line2d_12">
      <g>
       <use style="fill:#808080;stroke:#808080;" x="410.308157" xlink:href="#md4d51766ad" y="341.144078"/>
      </g>
     </g>
     <g id="text_6">
      <!-- $\mathdefault{1.4}$ -->
      <g style="fill:#262626;" transform="translate(400.894655 357.930682)scale(0.150616 -0.150616)">
       <use transform="translate(0 0.40625)" xlink:href="#STIXGeneral-Regular-31"/>
       <use transform="translate(49.999985 0.40625)" xlink:href="#STIXGeneral-Regular-2e"/>
       <use transform="translate(74.999969 0.40625)" xlink:href="#STIXGeneral-Regular-34"/>
      </g>
     </g>
    </g>
    <g id="xtick_7">
     <g id="line2d_13">
      <path clip-path="url(#pee939634c5)" d="M 489.047088 341.144078 
L 489.047088 24.956118 
" style="fill:none;stroke:#ffffff;stroke-linecap:round;stroke-width:0.8;"/>
     </g>
     <g id="line2d_14">
      <g>
       <use style="fill:#808080;stroke:#808080;" x="489.047088" xlink:href="#md4d51766ad" y="341.144078"/>
      </g>
     </g>
     <g id="text_7">
      <!-- $\mathdefault{1.6}$ -->
      <g style="fill:#262626;" transform="translate(479.633587 357.930682)scale(0.150616 -0.150616)">
       <use transform="translate(0 0.59375)" xlink:href="#STIXGeneral-Regular-31"/>
       <use transform="translate(49.999985 0.59375)" xlink:href="#STIXGeneral-Regular-2e"/>
       <use transform="translate(74.999969 0.59375)" xlink:href="#STIXGeneral-Regular-36"/>
      </g>
     </g>
    </g>
    <g id="xtick_8">
     <g id="line2d_15">
      <path clip-path="url(#pee939634c5)" d="M 567.786019 341.144078 
L 567.786019 24.956118 
" style="fill:none;stroke:#ffffff;stroke-linecap:round;stroke-width:0.8;"/>
     </g>
     <g id="line2d_16">
      <g>
       <use style="fill:#808080;stroke:#808080;" x="567.786019" xlink:href="#md4d51766ad" y="341.144078"/>
      </g>
     </g>
     <g id="text_8">
      <!-- $\mathdefault{1.8}$ -->
      <g style="fill:#262626;" transform="translate(558.372518 357.930682)scale(0.150616 -0.150616)">
       <use transform="translate(0 0.40625)" xlink:href="#STIXGeneral-Regular-31"/>
       <use transform="translate(49.999985 0.40625)" xlink:href="#STIXGeneral-Regular-2e"/>
       <use transform="translate(74.999969 0.40625)" xlink:href="#STIXGeneral-Regular-38"/>
      </g>
     </g>
    </g>
   </g>
   <g id="matplotlib.axis_2"/>
   <g id="PolyCollection_1">
    <defs>
     <path d="M 41.151294 -41.627622 
L 41.151294 -44.848451 
L 42.016546 -44.844176 
L 42.881798 -44.831386 
L 43.747051 -44.81019 
L 44.612303 -44.780768 
L 45.477555 -44.743366 
L 46.342808 -44.698294 
L 47.20806 -44.645921 
L 48.073312 -44.58667 
L 48.938565 -44.521007 
L 49.803817 -44.455063 
L 50.669069 -44.379378 
L 51.534321 -44.299135 
L 52.399574 -44.214953 
L 53.264826 -44.127466 
L 54.130078 -44.037317 
L 54.995331 -43.945148 
L 55.860583 -43.851595 
L 56.725835 -43.757286 
L 57.591088 -43.662829 
L 58.45634 -43.574435 
L 59.321592 -43.48267 
L 60.186845 -43.392685 
L 61.052097 -43.310643 
L 61.917349 -43.232677 
L 62.782601 -43.159504 
L 63.647854 -43.086223 
L 64.513106 -43.017936 
L 65.378358 -42.966375 
L 66.243611 -42.907429 
L 67.108863 -42.860791 
L 67.974115 -42.821348 
L 68.839368 -42.789575 
L 69.70462 -42.771541 
L 70.569872 -42.757661 
L 71.435125 -42.752929 
L 72.300377 -42.774582 
L 73.165629 -42.792966 
L 74.030881 -42.822221 
L 74.896134 -42.862702 
L 75.761386 -42.920344 
L 76.626638 -42.996656 
L 77.491891 -43.07189 
L 78.357143 -43.176733 
L 79.222395 -43.297038 
L 80.087648 -43.4222 
L 80.9529 -43.561613 
L 81.818152 -43.715441 
L 82.683405 -43.879191 
L 83.548657 -44.058322 
L 84.413909 -44.262811 
L 85.279161 -44.482545 
L 86.144414 -44.711915 
L 87.009666 -44.966478 
L 87.874918 -45.242722 
L 88.740171 -45.526052 
L 89.605423 -45.825429 
L 90.470675 -46.156432 
L 91.335928 -46.483137 
L 92.20118 -46.834636 
L 93.066432 -47.195989 
L 93.931685 -47.565789 
L 94.796937 -47.959241 
L 95.662189 -48.366912 
L 96.527442 -48.788535 
L 97.392694 -49.212615 
L 98.257946 -49.647675 
L 99.123198 -50.109901 
L 99.988451 -50.57525 
L 100.853703 -51.058098 
L 101.718955 -51.547043 
L 102.584208 -52.057586 
L 103.44946 -52.569428 
L 104.314712 -53.108369 
L 105.179965 -53.644212 
L 106.045217 -54.184993 
L 106.910469 -54.735015 
L 107.775722 -55.293973 
L 108.640974 -55.867146 
L 109.506226 -56.449754 
L 110.371478 -57.041562 
L 111.236731 -57.659135 
L 112.101983 -58.272112 
L 112.967235 -58.899496 
L 113.832488 -59.542071 
L 114.69774 -60.189504 
L 115.562992 -60.857225 
L 116.428245 -61.53037 
L 117.293497 -62.201962 
L 118.158749 -62.885988 
L 119.024002 -63.565906 
L 119.889254 -64.26089 
L 120.754506 -64.955179 
L 121.619758 -65.657699 
L 122.485011 -66.357064 
L 123.350263 -67.067638 
L 124.215515 -67.773499 
L 125.080768 -68.472262 
L 125.94602 -69.178183 
L 126.811272 -69.864053 
L 127.676525 -70.575602 
L 128.541777 -71.262331 
L 129.407029 -71.941425 
L 130.272282 -72.617461 
L 131.137534 -73.296379 
L 132.002786 -73.952013 
L 132.868039 -74.626751 
L 133.733291 -75.270306 
L 134.598543 -75.91025 
L 135.463795 -76.553725 
L 136.329048 -77.170208 
L 137.1943 -77.778625 
L 138.059552 -78.402215 
L 138.924805 -79.024367 
L 139.790057 -79.66391 
L 140.655309 -80.276191 
L 141.520562 -80.89727 
L 142.385814 -81.536052 
L 143.251066 -82.179512 
L 144.116319 -82.824764 
L 144.981571 -83.512552 
L 145.846823 -84.212231 
L 146.712075 -84.940817 
L 147.577328 -85.696213 
L 148.44258 -86.478426 
L 149.307832 -87.317927 
L 150.173085 -88.181675 
L 151.038337 -89.08145 
L 151.903589 -90.025215 
L 152.768842 -91.028496 
L 153.634094 -92.080039 
L 154.499346 -93.169757 
L 155.364599 -94.328187 
L 156.229851 -95.543171 
L 157.095103 -96.812786 
L 157.960355 -98.177019 
L 158.825608 -99.589432 
L 159.69086 -101.088749 
L 160.556112 -102.673188 
L 161.421365 -104.296144 
L 162.286617 -106.003254 
L 163.151869 -107.794775 
L 164.017122 -109.659709 
L 164.882374 -111.592245 
L 165.747626 -113.601745 
L 166.612879 -115.688126 
L 167.478131 -117.81837 
L 168.343383 -120.052974 
L 169.208636 -122.37381 
L 170.073888 -124.715996 
L 170.93914 -127.137146 
L 171.804392 -129.631428 
L 172.669645 -132.18446 
L 173.534897 -134.772506 
L 174.400149 -137.425476 
L 175.265402 -140.140575 
L 176.130654 -142.884878 
L 176.995906 -145.649264 
L 177.861159 -148.466388 
L 178.726411 -151.282394 
L 179.591663 -154.108564 
L 180.456916 -157.036513 
L 181.322168 -159.988612 
L 182.18742 -162.915519 
L 183.052672 -165.834865 
L 183.917925 -168.788349 
L 184.783177 -171.721437 
L 185.648429 -174.666139 
L 186.513682 -177.588228 
L 187.378934 -180.503913 
L 188.244186 -183.455115 
L 189.109439 -186.394077 
L 189.974691 -189.328605 
L 190.839943 -192.264283 
L 191.705196 -195.153051 
L 192.570448 -198.071097 
L 193.4357 -200.942062 
L 194.300952 -203.81631 
L 195.166205 -206.729533 
L 196.031457 -209.577264 
L 196.896709 -212.4162 
L 197.761962 -215.25167 
L 198.627214 -218.074501 
L 199.492466 -220.890252 
L 200.357719 -223.690313 
L 201.222971 -226.444556 
L 202.088223 -229.155896 
L 202.953476 -231.874462 
L 203.818728 -234.539257 
L 204.68398 -237.159014 
L 205.549233 -239.756236 
L 206.414485 -242.303851 
L 207.279737 -244.825334 
L 208.144989 -247.34679 
L 209.010242 -249.780636 
L 209.875494 -252.141704 
L 210.740746 -254.453423 
L 211.605999 -256.732391 
L 212.471251 -258.970577 
L 213.336503 -261.142395 
L 214.201756 -263.258369 
L 215.067008 -265.304783 
L 215.93226 -267.275492 
L 216.797513 -269.199217 
L 217.662765 -271.117739 
L 218.528017 -272.940035 
L 219.393269 -274.706398 
L 220.258522 -276.380468 
L 221.123774 -277.994461 
L 221.989026 -279.530839 
L 222.854279 -281.045093 
L 223.719531 -282.47477 
L 224.584783 -283.889279 
L 225.450036 -285.184932 
L 226.315288 -286.455859 
L 227.18054 -287.663538 
L 228.045793 -288.789859 
L 228.911045 -289.889514 
L 229.776297 -290.894445 
L 230.641549 -291.898206 
L 231.506802 -292.858974 
L 232.372054 -293.715973 
L 233.237306 -294.569939 
L 234.102559 -295.366999 
L 234.967811 -296.129127 
L 235.833063 -296.864657 
L 236.698316 -297.552371 
L 237.563568 -298.254796 
L 238.42882 -298.88169 
L 239.294073 -299.556183 
L 240.159325 -300.25845 
L 241.024577 -300.906643 
L 241.88983 -301.58146 
L 242.755082 -302.259583 
L 243.620334 -302.936343 
L 244.485586 -303.656256 
L 245.350839 -304.424857 
L 246.216091 -305.168658 
L 247.081343 -305.984718 
L 247.946596 -306.826344 
L 248.811848 -307.726066 
L 249.6771 -308.634542 
L 250.542353 -309.602751 
L 251.407605 -310.553012 
L 252.272857 -311.530209 
L 253.13811 -312.589738 
L 254.003362 -313.656556 
L 254.868614 -314.7548 
L 255.733866 -315.874688 
L 256.599119 -316.975005 
L 257.464371 -318.074419 
L 258.329623 -319.153294 
L 259.194876 -320.213369 
L 260.060128 -321.2941 
L 260.92538 -322.266579 
L 261.790633 -323.219772 
L 262.655885 -324.172157 
L 263.521137 -324.973894 
L 264.38639 -325.735449 
L 265.251642 -326.402286 
L 266.116894 -327.041128 
L 266.982146 -327.5808 
L 267.847399 -328.075259 
L 268.712651 -328.450673 
L 269.577903 -328.753247 
L 270.443156 -328.955707 
L 271.308408 -329.071222 
L 272.17366 -329.07034 
L 273.038913 -328.94666 
L 273.904165 -328.759191 
L 274.769417 -328.50517 
L 275.63467 -328.148943 
L 276.499922 -327.718313 
L 277.365174 -327.199816 
L 278.230427 -326.579021 
L 279.095679 -325.942416 
L 279.960931 -325.223498 
L 280.826183 -324.443062 
L 281.691436 -323.596898 
L 282.556688 -322.688516 
L 283.42194 -321.733653 
L 284.287193 -320.758194 
L 285.152445 -319.73466 
L 286.017697 -318.643491 
L 286.88295 -317.547547 
L 287.748202 -316.410478 
L 288.613454 -315.230194 
L 289.478707 -313.987086 
L 290.343959 -312.723412 
L 291.209211 -311.384741 
L 292.074463 -310.039056 
L 292.939716 -308.704458 
L 293.804968 -307.279768 
L 294.67022 -305.833574 
L 295.535473 -304.337434 
L 296.400725 -302.805667 
L 297.265977 -301.237899 
L 298.13123 -299.641035 
L 298.996482 -297.958229 
L 299.861734 -296.274687 
L 300.726987 -294.47406 
L 301.592239 -292.662465 
L 302.457491 -290.847082 
L 303.322743 -288.983974 
L 304.187996 -287.057674 
L 305.053248 -285.096427 
L 305.9185 -283.055342 
L 306.783753 -281.010369 
L 307.649005 -278.892869 
L 308.514257 -276.770528 
L 309.37951 -274.597204 
L 310.244762 -272.405103 
L 311.110014 -270.175462 
L 311.975267 -267.924059 
L 312.840519 -265.671833 
L 313.705771 -263.345103 
L 314.571024 -261.00226 
L 315.436276 -258.696683 
L 316.301528 -256.380902 
L 317.16678 -254.064774 
L 318.032033 -251.721151 
L 318.897285 -249.364056 
L 319.762537 -247.040773 
L 320.62779 -244.697354 
L 321.493042 -242.402043 
L 322.358294 -240.061066 
L 323.223547 -237.688076 
L 324.088799 -235.355546 
L 324.954051 -233.006851 
L 325.819304 -230.665607 
L 326.684556 -228.333003 
L 327.549808 -225.998213 
L 328.41506 -223.62149 
L 329.280313 -221.283612 
L 330.145565 -218.884679 
L 331.010817 -216.469136 
L 331.87607 -214.026058 
L 332.741322 -211.562849 
L 333.606574 -209.074053 
L 334.471827 -206.573598 
L 335.337079 -204.034667 
L 336.202331 -201.427117 
L 337.067584 -198.803672 
L 337.932836 -196.12642 
L 338.798088 -193.409716 
L 339.66334 -190.690128 
L 340.528593 -187.95243 
L 341.393845 -185.160617 
L 342.259097 -182.361402 
L 343.12435 -179.508414 
L 343.989602 -176.674987 
L 344.854854 -173.832264 
L 345.720107 -170.929723 
L 346.585359 -168.043787 
L 347.450611 -165.142223 
L 348.315864 -162.30258 
L 349.181116 -159.432288 
L 350.046368 -156.577245 
L 350.911621 -153.730221 
L 351.776873 -150.909851 
L 352.642125 -148.12798 
L 353.507377 -145.374683 
L 354.37263 -142.638065 
L 355.237882 -139.98044 
L 356.103134 -137.39974 
L 356.968387 -134.820335 
L 357.833639 -132.302635 
L 358.698891 -129.830964 
L 359.564144 -127.43676 
L 360.429396 -125.090569 
L 361.294648 -122.800422 
L 362.159901 -120.570664 
L 363.025153 -118.411893 
L 363.890405 -116.309718 
L 364.755657 -114.275247 
L 365.62091 -112.301601 
L 366.486162 -110.39078 
L 367.351414 -108.532973 
L 368.216667 -106.746451 
L 369.081919 -104.989618 
L 369.947171 -103.284037 
L 370.812424 -101.643275 
L 371.677676 -100.050597 
L 372.542928 -98.532352 
L 373.408181 -97.030593 
L 374.273433 -95.584651 
L 375.138685 -94.190289 
L 376.003937 -92.826297 
L 376.86919 -91.516465 
L 377.734442 -90.222922 
L 378.599694 -88.975979 
L 379.464947 -87.757922 
L 380.330199 -86.561155 
L 381.195451 -85.408412 
L 382.060704 -84.30416 
L 382.925956 -83.19216 
L 383.791208 -82.123759 
L 384.656461 -81.071012 
L 385.521713 -80.014606 
L 386.386965 -79.009391 
L 387.252218 -78.013042 
L 388.11747 -77.035052 
L 388.982722 -76.064659 
L 389.847974 -75.136264 
L 390.713227 -74.19914 
L 391.578479 -73.308355 
L 392.443731 -72.412566 
L 393.308984 -71.538868 
L 394.174236 -70.686547 
L 395.039488 -69.835782 
L 395.904741 -69.021839 
L 396.769993 -68.227673 
L 397.635245 -67.448657 
L 398.500498 -66.6857 
L 399.36575 -65.916717 
L 400.231002 -65.183415 
L 401.096254 -64.483098 
L 401.961507 -63.79062 
L 402.826759 -63.113009 
L 403.692011 -62.451393 
L 404.557264 -61.797477 
L 405.422516 -61.176527 
L 406.287768 -60.590645 
L 407.153021 -60.01845 
L 408.018273 -59.479046 
L 408.883525 -58.941972 
L 409.748778 -58.432685 
L 410.61403 -57.935043 
L 411.479282 -57.454032 
L 412.344534 -56.988916 
L 413.209787 -56.53887 
L 414.075039 -56.112156 
L 414.940291 -55.684213 
L 415.805544 -55.284442 
L 416.670796 -54.885126 
L 417.536048 -54.491857 
L 418.401301 -54.109019 
L 419.266553 -53.749174 
L 420.131805 -53.376531 
L 420.997058 -53.021429 
L 421.86231 -52.680953 
L 422.727562 -52.343443 
L 423.592815 -51.994763 
L 424.458067 -51.660069 
L 425.323319 -51.32774 
L 426.188571 -51.003104 
L 427.053824 -50.675965 
L 427.919076 -50.341678 
L 428.784328 -50.015758 
L 429.649581 -49.697192 
L 430.514833 -49.380683 
L 431.380085 -49.062064 
L 432.245338 -48.751859 
L 433.11059 -48.43588 
L 433.975842 -48.130258 
L 434.841095 -47.839122 
L 435.706347 -47.552221 
L 436.571599 -47.265949 
L 437.436851 -46.986701 
L 438.302104 -46.719819 
L 439.167356 -46.451429 
L 440.032608 -46.202428 
L 440.897861 -45.962389 
L 441.763113 -45.722866 
L 442.628365 -45.510148 
L 443.493618 -45.300006 
L 444.35887 -45.107545 
L 445.224122 -44.926536 
L 446.089375 -44.752698 
L 446.954627 -44.591655 
L 447.819879 -44.438737 
L 448.685131 -44.30837 
L 449.550384 -44.189249 
L 450.415636 -44.076616 
L 451.280888 -43.980224 
L 452.146141 -43.894118 
L 453.011393 -43.817884 
L 453.876645 -43.746466 
L 454.741898 -43.684779 
L 455.60715 -43.632108 
L 456.472402 -43.592317 
L 457.337655 -43.559248 
L 458.202907 -43.532349 
L 459.068159 -43.506483 
L 459.933412 -43.492163 
L 460.798664 -43.483283 
L 461.663916 -43.469197 
L 462.529168 -43.469534 
L 463.394421 -43.472701 
L 464.259673 -43.478359 
L 465.124925 -43.486187 
L 465.990178 -43.495878 
L 466.85543 -43.502558 
L 467.720682 -43.515977 
L 468.585935 -43.530272 
L 469.451187 -43.540626 
L 470.316439 -43.552252 
L 471.181692 -43.574971 
L 472.046944 -43.592986 
L 472.912196 -43.606142 
L 473.777448 -43.624307 
L 474.642701 -43.637144 
L 475.507953 -43.654541 
L 476.373205 -43.666178 
L 477.238458 -43.681962 
L 478.10371 -43.69618 
L 478.968962 -43.708738 
L 479.834215 -43.719544 
L 480.699467 -43.728514 
L 481.564719 -43.735574 
L 482.429972 -43.740662 
L 483.295224 -43.743734 
L 483.295224 -41.627622 
L 483.295224 -41.627622 
L 482.429972 -41.627622 
L 481.564719 -41.627622 
L 480.699467 -41.627622 
L 479.834215 -41.627622 
L 478.968962 -41.627622 
L 478.10371 -41.627622 
L 477.238458 -41.627622 
L 476.373205 -41.627622 
L 475.507953 -41.627622 
L 474.642701 -41.627622 
L 473.777448 -41.627622 
L 472.912196 -41.627622 
L 472.046944 -41.627622 
L 471.181692 -41.627622 
L 470.316439 -41.627622 
L 469.451187 -41.627622 
L 468.585935 -41.627622 
L 467.720682 -41.627622 
L 466.85543 -41.627622 
L 465.990178 -41.627622 
L 465.124925 -41.627622 
L 464.259673 -41.627622 
L 463.394421 -41.627622 
L 462.529168 -41.627622 
L 461.663916 -41.627622 
L 460.798664 -41.627622 
L 459.933412 -41.627622 
L 459.068159 -41.627622 
L 458.202907 -41.627622 
L 457.337655 -41.627622 
L 456.472402 -41.627622 
L 455.60715 -41.627622 
L 454.741898 -41.627622 
L 453.876645 -41.627622 
L 453.011393 -41.627622 
L 452.146141 -41.627622 
L 451.280888 -41.627622 
L 450.415636 -41.627622 
L 449.550384 -41.627622 
L 448.685131 -41.627622 
L 447.819879 -41.627622 
L 446.954627 -41.627622 
L 446.089375 -41.627622 
L 445.224122 -41.627622 
L 444.35887 -41.627622 
L 443.493618 -41.627622 
L 442.628365 -41.627622 
L 441.763113 -41.627622 
L 440.897861 -41.627622 
L 440.032608 -41.627622 
L 439.167356 -41.627622 
L 438.302104 -41.627622 
L 437.436851 -41.627622 
L 436.571599 -41.627622 
L 435.706347 -41.627622 
L 434.841095 -41.627622 
L 433.975842 -41.627622 
L 433.11059 -41.627622 
L 432.245338 -41.627622 
L 431.380085 -41.627622 
L 430.514833 -41.627622 
L 429.649581 -41.627622 
L 428.784328 -41.627622 
L 427.919076 -41.627622 
L 427.053824 -41.627622 
L 426.188571 -41.627622 
L 425.323319 -41.627622 
L 424.458067 -41.627622 
L 423.592815 -41.627622 
L 422.727562 -41.627622 
L 421.86231 -41.627622 
L 420.997058 -41.627622 
L 420.131805 -41.627622 
L 419.266553 -41.627622 
L 418.401301 -41.627622 
L 417.536048 -41.627622 
L 416.670796 -41.627622 
L 415.805544 -41.627622 
L 414.940291 -41.627622 
L 414.075039 -41.627622 
L 413.209787 -41.627622 
L 412.344534 -41.627622 
L 411.479282 -41.627622 
L 410.61403 -41.627622 
L 409.748778 -41.627622 
L 408.883525 -41.627622 
L 408.018273 -41.627622 
L 407.153021 -41.627622 
L 406.287768 -41.627622 
L 405.422516 -41.627622 
L 404.557264 -41.627622 
L 403.692011 -41.627622 
L 402.826759 -41.627622 
L 401.961507 -41.627622 
L 401.096254 -41.627622 
L 400.231002 -41.627622 
L 399.36575 -41.627622 
L 398.500498 -41.627622 
L 397.635245 -41.627622 
L 396.769993 -41.627622 
L 395.904741 -41.627622 
L 395.039488 -41.627622 
L 394.174236 -41.627622 
L 393.308984 -41.627622 
L 392.443731 -41.627622 
L 391.578479 -41.627622 
L 390.713227 -41.627622 
L 389.847974 -41.627622 
L 388.982722 -41.627622 
L 388.11747 -41.627622 
L 387.252218 -41.627622 
L 386.386965 -41.627622 
L 385.521713 -41.627622 
L 384.656461 -41.627622 
L 383.791208 -41.627622 
L 382.925956 -41.627622 
L 382.060704 -41.627622 
L 381.195451 -41.627622 
L 380.330199 -41.627622 
L 379.464947 -41.627622 
L 378.599694 -41.627622 
L 377.734442 -41.627622 
L 376.86919 -41.627622 
L 376.003937 -41.627622 
L 375.138685 -41.627622 
L 374.273433 -41.627622 
L 373.408181 -41.627622 
L 372.542928 -41.627622 
L 371.677676 -41.627622 
L 370.812424 -41.627622 
L 369.947171 -41.627622 
L 369.081919 -41.627622 
L 368.216667 -41.627622 
L 367.351414 -41.627622 
L 366.486162 -41.627622 
L 365.62091 -41.627622 
L 364.755657 -41.627622 
L 363.890405 -41.627622 
L 363.025153 -41.627622 
L 362.159901 -41.627622 
L 361.294648 -41.627622 
L 360.429396 -41.627622 
L 359.564144 -41.627622 
L 358.698891 -41.627622 
L 357.833639 -41.627622 
L 356.968387 -41.627622 
L 356.103134 -41.627622 
L 355.237882 -41.627622 
L 354.37263 -41.627622 
L 353.507377 -41.627622 
L 352.642125 -41.627622 
L 351.776873 -41.627622 
L 350.911621 -41.627622 
L 350.046368 -41.627622 
L 349.181116 -41.627622 
L 348.315864 -41.627622 
L 347.450611 -41.627622 
L 346.585359 -41.627622 
L 345.720107 -41.627622 
L 344.854854 -41.627622 
L 343.989602 -41.627622 
L 343.12435 -41.627622 
L 342.259097 -41.627622 
L 341.393845 -41.627622 
L 340.528593 -41.627622 
L 339.66334 -41.627622 
L 338.798088 -41.627622 
L 337.932836 -41.627622 
L 337.067584 -41.627622 
L 336.202331 -41.627622 
L 335.337079 -41.627622 
L 334.471827 -41.627622 
L 333.606574 -41.627622 
L 332.741322 -41.627622 
L 331.87607 -41.627622 
L 331.010817 -41.627622 
L 330.145565 -41.627622 
L 329.280313 -41.627622 
L 328.41506 -41.627622 
L 327.549808 -41.627622 
L 326.684556 -41.627622 
L 325.819304 -41.627622 
L 324.954051 -41.627622 
L 324.088799 -41.627622 
L 323.223547 -41.627622 
L 322.358294 -41.627622 
L 321.493042 -41.627622 
L 320.62779 -41.627622 
L 319.762537 -41.627622 
L 318.897285 -41.627622 
L 318.032033 -41.627622 
L 317.16678 -41.627622 
L 316.301528 -41.627622 
L 315.436276 -41.627622 
L 314.571024 -41.627622 
L 313.705771 -41.627622 
L 312.840519 -41.627622 
L 311.975267 -41.627622 
L 311.110014 -41.627622 
L 310.244762 -41.627622 
L 309.37951 -41.627622 
L 308.514257 -41.627622 
L 307.649005 -41.627622 
L 306.783753 -41.627622 
L 305.9185 -41.627622 
L 305.053248 -41.627622 
L 304.187996 -41.627622 
L 303.322743 -41.627622 
L 302.457491 -41.627622 
L 301.592239 -41.627622 
L 300.726987 -41.627622 
L 299.861734 -41.627622 
L 298.996482 -41.627622 
L 298.13123 -41.627622 
L 297.265977 -41.627622 
L 296.400725 -41.627622 
L 295.535473 -41.627622 
L 294.67022 -41.627622 
L 293.804968 -41.627622 
L 292.939716 -41.627622 
L 292.074463 -41.627622 
L 291.209211 -41.627622 
L 290.343959 -41.627622 
L 289.478707 -41.627622 
L 288.613454 -41.627622 
L 287.748202 -41.627622 
L 286.88295 -41.627622 
L 286.017697 -41.627622 
L 285.152445 -41.627622 
L 284.287193 -41.627622 
L 283.42194 -41.627622 
L 282.556688 -41.627622 
L 281.691436 -41.627622 
L 280.826183 -41.627622 
L 279.960931 -41.627622 
L 279.095679 -41.627622 
L 278.230427 -41.627622 
L 277.365174 -41.627622 
L 276.499922 -41.627622 
L 275.63467 -41.627622 
L 274.769417 -41.627622 
L 273.904165 -41.627622 
L 273.038913 -41.627622 
L 272.17366 -41.627622 
L 271.308408 -41.627622 
L 270.443156 -41.627622 
L 269.577903 -41.627622 
L 268.712651 -41.627622 
L 267.847399 -41.627622 
L 266.982146 -41.627622 
L 266.116894 -41.627622 
L 265.251642 -41.627622 
L 264.38639 -41.627622 
L 263.521137 -41.627622 
L 262.655885 -41.627622 
L 261.790633 -41.627622 
L 260.92538 -41.627622 
L 260.060128 -41.627622 
L 259.194876 -41.627622 
L 258.329623 -41.627622 
L 257.464371 -41.627622 
L 256.599119 -41.627622 
L 255.733866 -41.627622 
L 254.868614 -41.627622 
L 254.003362 -41.627622 
L 253.13811 -41.627622 
L 252.272857 -41.627622 
L 251.407605 -41.627622 
L 250.542353 -41.627622 
L 249.6771 -41.627622 
L 248.811848 -41.627622 
L 247.946596 -41.627622 
L 247.081343 -41.627622 
L 246.216091 -41.627622 
L 245.350839 -41.627622 
L 244.485586 -41.627622 
L 243.620334 -41.627622 
L 242.755082 -41.627622 
L 241.88983 -41.627622 
L 241.024577 -41.627622 
L 240.159325 -41.627622 
L 239.294073 -41.627622 
L 238.42882 -41.627622 
L 237.563568 -41.627622 
L 236.698316 -41.627622 
L 235.833063 -41.627622 
L 234.967811 -41.627622 
L 234.102559 -41.627622 
L 233.237306 -41.627622 
L 232.372054 -41.627622 
L 231.506802 -41.627622 
L 230.641549 -41.627622 
L 229.776297 -41.627622 
L 228.911045 -41.627622 
L 228.045793 -41.627622 
L 227.18054 -41.627622 
L 226.315288 -41.627622 
L 225.450036 -41.627622 
L 224.584783 -41.627622 
L 223.719531 -41.627622 
L 222.854279 -41.627622 
L 221.989026 -41.627622 
L 221.123774 -41.627622 
L 220.258522 -41.627622 
L 219.393269 -41.627622 
L 218.528017 -41.627622 
L 217.662765 -41.627622 
L 216.797513 -41.627622 
L 215.93226 -41.627622 
L 215.067008 -41.627622 
L 214.201756 -41.627622 
L 213.336503 -41.627622 
L 212.471251 -41.627622 
L 211.605999 -41.627622 
L 210.740746 -41.627622 
L 209.875494 -41.627622 
L 209.010242 -41.627622 
L 208.144989 -41.627622 
L 207.279737 -41.627622 
L 206.414485 -41.627622 
L 205.549233 -41.627622 
L 204.68398 -41.627622 
L 203.818728 -41.627622 
L 202.953476 -41.627622 
L 202.088223 -41.627622 
L 201.222971 -41.627622 
L 200.357719 -41.627622 
L 199.492466 -41.627622 
L 198.627214 -41.627622 
L 197.761962 -41.627622 
L 196.896709 -41.627622 
L 196.031457 -41.627622 
L 195.166205 -41.627622 
L 194.300952 -41.627622 
L 193.4357 -41.627622 
L 192.570448 -41.627622 
L 191.705196 -41.627622 
L 190.839943 -41.627622 
L 189.974691 -41.627622 
L 189.109439 -41.627622 
L 188.244186 -41.627622 
L 187.378934 -41.627622 
L 186.513682 -41.627622 
L 185.648429 -41.627622 
L 184.783177 -41.627622 
L 183.917925 -41.627622 
L 183.052672 -41.627622 
L 182.18742 -41.627622 
L 181.322168 -41.627622 
L 180.456916 -41.627622 
L 179.591663 -41.627622 
L 178.726411 -41.627622 
L 177.861159 -41.627622 
L 176.995906 -41.627622 
L 176.130654 -41.627622 
L 175.265402 -41.627622 
L 174.400149 -41.627622 
L 173.534897 -41.627622 
L 172.669645 -41.627622 
L 171.804392 -41.627622 
L 170.93914 -41.627622 
L 170.073888 -41.627622 
L 169.208636 -41.627622 
L 168.343383 -41.627622 
L 167.478131 -41.627622 
L 166.612879 -41.627622 
L 165.747626 -41.627622 
L 164.882374 -41.627622 
L 164.017122 -41.627622 
L 163.151869 -41.627622 
L 162.286617 -41.627622 
L 161.421365 -41.627622 
L 160.556112 -41.627622 
L 159.69086 -41.627622 
L 158.825608 -41.627622 
L 157.960355 -41.627622 
L 157.095103 -41.627622 
L 156.229851 -41.627622 
L 155.364599 -41.627622 
L 154.499346 -41.627622 
L 153.634094 -41.627622 
L 152.768842 -41.627622 
L 151.903589 -41.627622 
L 151.038337 -41.627622 
L 150.173085 -41.627622 
L 149.307832 -41.627622 
L 148.44258 -41.627622 
L 147.577328 -41.627622 
L 146.712075 -41.627622 
L 145.846823 -41.627622 
L 144.981571 -41.627622 
L 144.116319 -41.627622 
L 143.251066 -41.627622 
L 142.385814 -41.627622 
L 141.520562 -41.627622 
L 140.655309 -41.627622 
L 139.790057 -41.627622 
L 138.924805 -41.627622 
L 138.059552 -41.627622 
L 137.1943 -41.627622 
L 136.329048 -41.627622 
L 135.463795 -41.627622 
L 134.598543 -41.627622 
L 133.733291 -41.627622 
L 132.868039 -41.627622 
L 132.002786 -41.627622 
L 131.137534 -41.627622 
L 130.272282 -41.627622 
L 129.407029 -41.627622 
L 128.541777 -41.627622 
L 127.676525 -41.627622 
L 126.811272 -41.627622 
L 125.94602 -41.627622 
L 125.080768 -41.627622 
L 124.215515 -41.627622 
L 123.350263 -41.627622 
L 122.485011 -41.627622 
L 121.619758 -41.627622 
L 120.754506 -41.627622 
L 119.889254 -41.627622 
L 119.024002 -41.627622 
L 118.158749 -41.627622 
L 117.293497 -41.627622 
L 116.428245 -41.627622 
L 115.562992 -41.627622 
L 114.69774 -41.627622 
L 113.832488 -41.627622 
L 112.967235 -41.627622 
L 112.101983 -41.627622 
L 111.236731 -41.627622 
L 110.371478 -41.627622 
L 109.506226 -41.627622 
L 108.640974 -41.627622 
L 107.775722 -41.627622 
L 106.910469 -41.627622 
L 106.045217 -41.627622 
L 105.179965 -41.627622 
L 104.314712 -41.627622 
L 103.44946 -41.627622 
L 102.584208 -41.627622 
L 101.718955 -41.627622 
L 100.853703 -41.627622 
L 99.988451 -41.627622 
L 99.123198 -41.627622 
L 98.257946 -41.627622 
L 97.392694 -41.627622 
L 96.527442 -41.627622 
L 95.662189 -41.627622 
L 94.796937 -41.627622 
L 93.931685 -41.627622 
L 93.066432 -41.627622 
L 92.20118 -41.627622 
L 91.335928 -41.627622 
L 90.470675 -41.627622 
L 89.605423 -41.627622 
L 88.740171 -41.627622 
L 87.874918 -41.627622 
L 87.009666 -41.627622 
L 86.144414 -41.627622 
L 85.279161 -41.627622 
L 84.413909 -41.627622 
L 83.548657 -41.627622 
L 82.683405 -41.627622 
L 81.818152 -41.627622 
L 80.9529 -41.627622 
L 80.087648 -41.627622 
L 79.222395 -41.627622 
L 78.357143 -41.627622 
L 77.491891 -41.627622 
L 76.626638 -41.627622 
L 75.761386 -41.627622 
L 74.896134 -41.627622 
L 74.030881 -41.627622 
L 73.165629 -41.627622 
L 72.300377 -41.627622 
L 71.435125 -41.627622 
L 70.569872 -41.627622 
L 69.70462 -41.627622 
L 68.839368 -41.627622 
L 67.974115 -41.627622 
L 67.108863 -41.627622 
L 66.243611 -41.627622 
L 65.378358 -41.627622 
L 64.513106 -41.627622 
L 63.647854 -41.627622 
L 62.782601 -41.627622 
L 61.917349 -41.627622 
L 61.052097 -41.627622 
L 60.186845 -41.627622 
L 59.321592 -41.627622 
L 58.45634 -41.627622 
L 57.591088 -41.627622 
L 56.725835 -41.627622 
L 55.860583 -41.627622 
L 54.995331 -41.627622 
L 54.130078 -41.627622 
L 53.264826 -41.627622 
L 52.399574 -41.627622 
L 51.534321 -41.627622 
L 50.669069 -41.627622 
L 49.803817 -41.627622 
L 48.938565 -41.627622 
L 48.073312 -41.627622 
L 47.20806 -41.627622 
L 46.342808 -41.627622 
L 45.477555 -41.627622 
L 44.612303 -41.627622 
L 43.747051 -41.627622 
L 42.881798 -41.627622 
L 42.016546 -41.627622 
L 41.151294 -41.627622 
z
" id="m3cf1da1921" style="stroke:#2a2eec;stroke-opacity:0;stroke-width:0.8;"/>
    </defs>
    <g clip-path="url(#pee939634c5)">
     <use style="fill:#2a2eec;fill-opacity:0;stroke:#2a2eec;stroke-opacity:0;stroke-width:0.8;" x="0" xlink:href="#m3cf1da1921" y="368.39952"/>
    </g>
   </g>
   <g id="line2d_17">
    <path clip-path="url(#pee939634c5)" d="M 41.151294 323.551069 
L 45.477555 323.656154 
L 50.669069 324.020142 
L 68.839368 325.609945 
L 73.165629 325.606554 
L 76.626638 325.402864 
L 79.222395 325.102482 
L 82.683405 324.520329 
L 85.279161 323.916975 
L 87.874918 323.156798 
L 91.335928 321.916383 
L 94.796937 320.440279 
L 99.123198 318.289619 
L 102.584208 316.341934 
L 106.910469 313.664505 
L 111.236731 310.740385 
L 115.562992 307.542295 
L 122.485011 302.042456 
L 130.272282 295.782059 
L 135.463795 291.845795 
L 144.116319 285.574756 
L 147.577328 282.703307 
L 150.173085 280.217845 
L 152.768842 277.371024 
L 155.364599 274.071333 
L 157.095103 271.586734 
L 159.69086 267.310771 
L 162.286617 262.396266 
L 164.882374 256.807275 
L 167.478131 250.58115 
L 170.073888 243.683524 
L 172.669645 236.21506 
L 176.130654 225.514642 
L 180.456916 211.363007 
L 193.4357 167.457458 
L 201.222971 141.954964 
L 205.549233 128.643284 
L 209.010242 118.618884 
L 212.471251 109.428943 
L 215.067008 103.094737 
L 218.528017 95.459485 
L 221.123774 90.405059 
L 223.719531 85.92475 
L 225.450036 83.214588 
L 227.18054 80.735982 
L 229.776297 77.505075 
L 231.506802 75.540546 
L 234.102559 73.032521 
L 236.698316 70.847149 
L 240.159325 68.14107 
L 243.620334 65.463177 
L 246.216091 63.230862 
L 248.811848 60.673454 
L 251.407605 57.846508 
L 253.13811 55.809782 
L 262.655885 44.227363 
L 264.38639 42.664071 
L 266.116894 41.358392 
L 267.847399 40.324261 
L 269.577903 39.646273 
L 271.308408 39.328298 
L 272.17366 39.32918 
L 273.904165 39.640329 
L 275.63467 40.250577 
L 277.365174 41.199704 
L 279.960931 43.176022 
L 281.691436 44.802622 
L 284.287193 47.641326 
L 286.88295 50.851973 
L 289.478707 54.412434 
L 292.074463 58.360464 
L 294.67022 62.565946 
L 298.13123 68.758485 
L 300.726987 73.92546 
L 304.187996 81.341846 
L 306.783753 87.389151 
L 311.110014 98.224058 
L 316.301528 112.018618 
L 327.549808 142.401307 
L 333.606574 159.325467 
L 337.067584 169.595848 
L 341.393845 183.238903 
L 346.585359 200.355733 
L 351.776873 217.489669 
L 355.237882 228.41908 
L 358.698891 238.568556 
L 362.159901 247.828856 
L 364.755657 254.124273 
L 367.351414 259.866547 
L 369.947171 265.115483 
L 372.542928 269.867168 
L 375.138685 274.209231 
L 377.734442 278.176598 
L 381.195451 282.991108 
L 385.521713 288.384914 
L 389.847974 293.263256 
L 393.308984 296.860652 
L 396.769993 300.171847 
L 400.231002 303.216105 
L 404.557264 306.602043 
L 407.153021 308.38107 
L 410.61403 310.464477 
L 414.075039 312.287364 
L 417.536048 313.907663 
L 421.86231 315.718567 
L 431.380085 319.337456 
L 437.436851 321.412819 
L 441.763113 322.676654 
L 446.089375 323.646822 
L 449.550384 324.210271 
L 453.011393 324.581636 
L 457.337655 324.840272 
L 463.394421 324.926819 
L 476.373205 324.733342 
L 483.295224 324.655786 
L 483.295224 324.655786 
" style="fill:none;stroke:#2a2eec;stroke-linecap:round;stroke-width:2.151657;"/>
   </g>
   <g id="line2d_18">
    <path clip-path="url(#pee939634c5)" d="M 152.70727 319.852561 
L 378.409115 319.852561 
" style="fill:none;stroke:#000000;stroke-width:4.303315;"/>
   </g>
   <g id="patch_3">
    <path d="M 16.613501 341.144078 
L 567.786019 341.144078 
" style="fill:none;"/>
   </g>
   <g id="text_9">
    <!-- 0.75  -->
    <g style="fill:#262626;" transform="translate(120.432409 302.554218)scale(0.161374 -0.161374)">
     <defs>
      <path d="M 2874 4134 
L 1517 -51 
L 1101 -51 
L 2368 3763 
L 992 3763 
Q 717 3763 582 3667 
Q 448 3571 243 3238 
L 128 3296 
L 512 4237 
L 2874 4237 
L 2874 4134 
z
" id="STIXGeneral-Regular-37" transform="scale(0.015625)"/>
      <path d="M 2803 4358 
L 2573 3814 
Q 2534 3731 2400 3731 
L 1158 3731 
L 902 3187 
Q 1606 3053 1920 2896 
Q 2234 2739 2502 2368 
Q 2726 2061 2726 1555 
Q 2726 1094 2576 780 
Q 2426 467 2099 224 
Q 1664 -90 1011 -90 
Q 646 -90 422 19 
Q 198 128 198 307 
Q 198 550 486 550 
Q 717 550 960 352 
Q 1210 147 1414 147 
Q 1747 147 2012 480 
Q 2278 813 2278 1229 
Q 2278 1843 1850 2189 
Q 1293 2637 486 2637 
Q 410 2637 410 2688 
L 416 2720 
L 1114 4237 
L 2438 4237 
Q 2547 4237 2608 4269 
Q 2669 4301 2746 4403 
L 2803 4358 
z
" id="STIXGeneral-Regular-35" transform="scale(0.015625)"/>
      <path id="STIXGeneral-Regular-20" transform="scale(0.015625)"/>
     </defs>
     <use xlink:href="#STIXGeneral-Regular-30"/>
     <use x="49.999985" xlink:href="#STIXGeneral-Regular-2e"/>
     <use x="74.999969" xlink:href="#STIXGeneral-Regular-37"/>
     <use x="124.999954" xlink:href="#STIXGeneral-Regular-35"/>
     <use x="174.999939" xlink:href="#STIXGeneral-Regular-20"/>
    </g>
   </g>
   <g id="text_10">
    <!--  1.3 -->
    <g style="fill:#262626;" transform="translate(378.409115 302.554218)scale(0.161374 -0.161374)">
     <defs>
      <path d="M 390 3264 
L 288 3290 
Q 435 3770 748 4048 
Q 1062 4326 1542 4326 
Q 1990 4326 2265 4083 
Q 2541 3840 2541 3450 
Q 2541 2925 1946 2566 
Q 2298 2413 2477 2227 
Q 2758 1914 2758 1402 
Q 2758 890 2464 506 
Q 2246 211 1840 60 
Q 1434 -90 979 -90 
Q 262 -90 262 275 
Q 262 378 339 442 
Q 416 506 525 506 
Q 685 506 915 339 
Q 1197 141 1466 141 
Q 1818 141 2058 425 
Q 2298 710 2298 1120 
Q 2298 1856 1632 2048 
Q 1434 2112 979 2112 
L 979 2202 
Q 1338 2323 1517 2432 
Q 2035 2726 2035 3290 
Q 2035 3610 1852 3776 
Q 1670 3942 1344 3942 
Q 768 3942 390 3264 
z
" id="STIXGeneral-Regular-33" transform="scale(0.015625)"/>
     </defs>
     <use xlink:href="#STIXGeneral-Regular-20"/>
     <use x="24.999985" xlink:href="#STIXGeneral-Regular-31"/>
     <use x="74.999969" xlink:href="#STIXGeneral-Regular-2e"/>
     <use x="99.999954" xlink:href="#STIXGeneral-Regular-33"/>
    </g>
   </g>
   <g id="text_11">
    <!-- 94% HDI -->
    <g style="fill:#262626;" transform="translate(235.106357 222.981842)scale(0.161374 -0.161374)">
     <defs>
      <path d="M 378 -141 
L 358 -13 
Q 1094 115 1603 608 
Q 2112 1101 2304 1882 
Q 1933 1517 1344 1517 
Q 826 1517 509 1875 
Q 192 2234 192 2816 
Q 192 3462 573 3894 
Q 954 4326 1523 4326 
Q 2131 4326 2528 3840 
Q 2938 3328 2938 2522 
Q 2938 1958 2742 1462 
Q 2547 966 2170 621 
Q 1773 262 1395 105 
Q 1018 -51 378 -141 
z
M 2317 2272 
L 2317 2522 
Q 2317 4147 1472 4147 
Q 1171 4147 1005 3930 
Q 909 3802 845 3546 
Q 781 3290 781 3034 
Q 781 2464 995 2128 
Q 1210 1792 1568 1792 
Q 1824 1792 2070 1917 
Q 2317 2042 2317 2272 
z
" id="STIXGeneral-Regular-39" transform="scale(0.015625)"/>
      <path d="M 4390 1363 
Q 4390 781 4070 329 
Q 3750 -122 3341 -122 
Q 3014 -122 2790 134 
Q 2566 390 2566 762 
Q 2566 1274 2940 1693 
Q 3315 2112 3776 2112 
Q 4070 2112 4230 1917 
Q 4390 1722 4390 1363 
z
M 4243 1376 
Q 4243 1626 4131 1779 
Q 4019 1933 3840 1933 
Q 3654 1933 3526 1786 
Q 3315 1562 3171 1187 
Q 3027 813 3027 486 
Q 3027 301 3129 176 
Q 3232 51 3386 51 
Q 3718 51 3980 457 
Q 4243 864 4243 1376 
z
M 3974 4518 
L 1222 -115 
L 922 -115 
L 3443 4096 
Q 3264 3891 3094 3811 
Q 2925 3731 2669 3731 
Q 2445 3731 2182 3821 
Q 2208 3674 2208 3539 
Q 2208 3206 2067 2873 
Q 1926 2541 1696 2323 
Q 1453 2086 1146 2086 
Q 826 2086 608 2339 
Q 390 2592 390 2963 
Q 390 3507 761 3916 
Q 1133 4326 1626 4326 
Q 1792 4326 2010 4147 
Q 2310 3898 2624 3898 
Q 2918 3898 3084 3994 
Q 3251 4090 3693 4518 
L 3974 4518 
z
M 2054 3642 
Q 2054 3782 2025 3833 
Q 1997 3885 1894 3936 
Q 1747 4006 1613 4154 
Q 1414 4058 1331 3984 
Q 1248 3910 1152 3750 
Q 845 3264 845 2707 
Q 845 2509 944 2384 
Q 1043 2259 1210 2259 
Q 1549 2259 1801 2675 
Q 2054 3091 2054 3642 
z
" id="STIXGeneral-Regular-25" transform="scale(0.015625)"/>
      <path d="M 4499 0 
L 2714 0 
L 2714 122 
Q 3085 147 3181 265 
Q 3277 384 3277 794 
L 3277 2016 
L 1338 2016 
L 1338 723 
Q 1338 371 1440 256 
Q 1542 141 1894 122 
L 1901 0 
L 115 0 
L 115 122 
Q 493 147 589 259 
Q 685 371 685 781 
L 685 3507 
Q 685 3878 585 3980 
Q 486 4083 115 4115 
L 115 4237 
L 1907 4237 
L 1907 4115 
Q 1549 4083 1443 3977 
Q 1338 3872 1338 3507 
L 1338 2298 
L 3277 2298 
L 3277 3507 
Q 3277 3878 3177 3980 
Q 3078 4083 2707 4115 
L 2707 4237 
L 4499 4237 
L 4499 4115 
Q 4141 4083 4035 3977 
Q 3930 3872 3930 3507 
L 3930 710 
Q 3930 371 4035 259 
Q 4141 147 4499 122 
L 4499 0 
z
" id="STIXGeneral-Regular-48" transform="scale(0.015625)"/>
      <path d="M 102 4237 
L 1830 4237 
Q 3078 4237 3750 3654 
Q 4384 3110 4384 2138 
Q 4384 966 3514 410 
Q 2880 0 1901 0 
L 102 0 
L 102 122 
Q 474 147 570 252 
Q 666 358 666 736 
L 666 3520 
Q 666 3891 570 3990 
Q 474 4090 102 4115 
L 102 4237 
z
M 1318 3731 
L 1318 538 
Q 1318 365 1379 301 
Q 1440 237 1626 237 
Q 2125 237 2432 307 
Q 2739 378 3021 570 
Q 3686 1018 3686 2099 
Q 3686 3027 3078 3558 
Q 2803 3802 2476 3901 
Q 2150 4000 1658 4000 
Q 1472 4000 1395 3942 
Q 1318 3885 1318 3731 
z
" id="STIXGeneral-Regular-44" transform="scale(0.015625)"/>
      <path d="M 2016 0 
L 115 0 
L 115 122 
Q 518 134 627 240 
Q 736 346 736 717 
L 736 3526 
Q 736 3898 633 3994 
Q 531 4090 115 4115 
L 115 4237 
L 2016 4237 
L 2016 4115 
Q 1613 4096 1501 3993 
Q 1389 3891 1389 3526 
L 1389 717 
Q 1389 358 1504 246 
Q 1619 134 2016 122 
L 2016 0 
z
" id="STIXGeneral-Regular-49" transform="scale(0.015625)"/>
     </defs>
     <use xlink:href="#STIXGeneral-Regular-39"/>
     <use x="49.999985" xlink:href="#STIXGeneral-Regular-34"/>
     <use x="99.999969" xlink:href="#STIXGeneral-Regular-25"/>
     <use x="174.699951" xlink:href="#STIXGeneral-Regular-20"/>
     <use x="199.699936" xlink:href="#STIXGeneral-Regular-48"/>
     <use x="271.899918" xlink:href="#STIXGeneral-Regular-44"/>
     <use x="344.099899" xlink:href="#STIXGeneral-Regular-49"/>
    </g>
   </g>
   <g id="text_12">
    <!-- mean=1 -->
    <g style="fill:#262626;" transform="translate(236.902403 49.998415)scale(0.161374 -0.161374)">
     <defs>
      <path d="M 4960 0 
L 3565 0 
L 3565 96 
Q 3834 122 3907 208 
Q 3981 294 3981 576 
L 3981 1894 
Q 3981 2278 3869 2444 
Q 3757 2611 3488 2611 
Q 3264 2611 3107 2521 
Q 2950 2432 2803 2221 
L 2803 608 
Q 2803 301 2896 201 
Q 2989 102 3264 96 
L 3264 0 
L 1830 0 
L 1830 96 
Q 2112 115 2189 188 
Q 2266 262 2266 550 
L 2266 1901 
Q 2266 2611 1850 2611 
Q 1670 2611 1468 2531 
Q 1267 2451 1171 2336 
Q 1088 2240 1088 2227 
L 1088 448 
Q 1088 243 1177 176 
Q 1267 109 1523 96 
L 1523 0 
L 102 0 
L 102 96 
Q 371 102 460 195 
Q 550 288 550 563 
L 550 2150 
Q 550 2387 499 2480 
Q 448 2573 326 2573 
Q 230 2573 122 2547 
L 122 2656 
Q 557 2778 1011 2944 
L 1062 2925 
L 1062 2451 
L 1075 2451 
Q 1363 2752 1584 2848 
Q 1805 2944 2054 2944 
Q 2560 2944 2733 2406 
Q 3232 2944 3776 2944 
Q 4518 2944 4518 1792 
L 4518 493 
Q 4518 282 4582 202 
Q 4646 122 4794 109 
L 4960 96 
L 4960 0 
z
" id="STIXGeneral-Regular-6d" transform="scale(0.015625)"/>
      <path d="M 2611 1050 
L 2714 1005 
Q 2330 -64 1376 -64 
Q 813 -64 486 329 
Q 160 723 160 1389 
Q 160 2074 525 2509 
Q 890 2944 1485 2944 
Q 2061 2944 2374 2502 
Q 2560 2246 2592 1773 
L 621 1773 
Q 646 1370 700 1158 
Q 755 947 915 730 
Q 1184 378 1626 378 
Q 1939 378 2153 531 
Q 2368 685 2611 1050 
z
M 634 1978 
L 1939 1978 
Q 1882 2381 1750 2547 
Q 1619 2714 1312 2714 
Q 1043 2714 864 2525 
Q 685 2336 634 1978 
z
" id="STIXGeneral-Regular-65" transform="scale(0.015625)"/>
      <path d="M 2829 422 
L 2829 243 
Q 2586 -64 2253 -64 
Q 1888 -64 1843 403 
L 1837 403 
Q 1427 -64 909 -64 
Q 608 -64 422 112 
Q 237 288 237 602 
Q 237 1050 685 1350 
Q 992 1555 1837 1869 
L 1837 2214 
Q 1837 2502 1699 2646 
Q 1562 2790 1338 2790 
Q 1146 2790 1018 2697 
Q 890 2605 890 2477 
Q 890 2419 909 2348 
Q 928 2278 928 2208 
Q 928 2112 841 2029 
Q 755 1946 634 1946 
Q 525 1946 441 2029 
Q 358 2112 358 2240 
Q 358 2547 685 2752 
Q 986 2944 1421 2944 
Q 1939 2944 2176 2656 
Q 2291 2522 2323 2384 
Q 2355 2246 2355 1946 
L 2355 723 
Q 2355 301 2554 301 
Q 2682 301 2829 422 
z
M 1837 813 
L 1837 1715 
Q 1248 1510 1018 1293 
Q 800 1094 800 800 
Q 800 557 921 432 
Q 1043 307 1242 307 
Q 1453 307 1613 410 
Q 1747 506 1792 589 
Q 1837 672 1837 813 
z
" id="STIXGeneral-Regular-61" transform="scale(0.015625)"/>
      <path d="M 3104 0 
L 1773 0 
L 1779 96 
Q 2016 115 2096 233 
Q 2176 352 2176 672 
L 2176 1946 
Q 2176 2592 1709 2592 
Q 1549 2592 1408 2515 
Q 1267 2438 1050 2227 
L 1050 461 
Q 1050 269 1136 192 
Q 1222 115 1466 96 
L 1466 0 
L 115 0 
L 115 96 
Q 358 115 435 214 
Q 512 314 512 602 
L 512 2157 
Q 512 2394 467 2483 
Q 422 2573 288 2573 
Q 160 2573 102 2547 
L 102 2656 
Q 550 2784 979 2944 
L 1030 2925 
L 1030 2426 
L 1037 2426 
Q 1491 2944 1958 2944 
Q 2323 2944 2518 2688 
Q 2714 2432 2714 1958 
L 2714 544 
Q 2714 288 2790 205 
Q 2867 122 3104 96 
L 3104 0 
z
" id="STIXGeneral-Regular-6e" transform="scale(0.015625)"/>
      <path d="M 4077 2048 
L 307 2048 
L 307 2470 
L 4077 2470 
L 4077 2048 
z
M 4077 768 
L 307 768 
L 307 1190 
L 4077 1190 
L 4077 768 
z
" id="STIXGeneral-Regular-3d" transform="scale(0.015625)"/>
     </defs>
     <use xlink:href="#STIXGeneral-Regular-6d"/>
     <use x="77.799988" xlink:href="#STIXGeneral-Regular-65"/>
     <use x="122.199982" xlink:href="#STIXGeneral-Regular-61"/>
     <use x="166.599976" xlink:href="#STIXGeneral-Regular-6e"/>
     <use x="216.59996" xlink:href="#STIXGeneral-Regular-3d"/>
     <use x="285.099945" xlink:href="#STIXGeneral-Regular-31"/>
    </g>
   </g>
   <g id="text_13">
    <!-- alpha -->
    <g style="fill:#262626;" transform="translate(16.613501 18.956118)scale(0.172133 -0.172133)">
     <defs>
      <path d="M 1645 0 
L 134 0 
L 134 96 
Q 435 122 531 221 
Q 627 320 627 589 
L 627 3590 
Q 627 3821 569 3910 
Q 512 4000 358 4000 
Q 224 4000 122 3987 
L 122 4090 
Q 730 4237 1133 4371 
L 1165 4346 
L 1165 557 
Q 1165 288 1254 201 
Q 1344 115 1645 96 
L 1645 0 
z
" id="STIXGeneral-Regular-6c" transform="scale(0.015625)"/>
      <path d="M 1018 2931 
L 1018 2438 
Q 1421 2944 1939 2944 
Q 2406 2944 2707 2560 
Q 3008 2176 3008 1581 
Q 3008 883 2621 409 
Q 2234 -64 1664 -64 
Q 1466 -64 1328 -6 
Q 1190 51 1018 211 
L 1018 -794 
Q 1018 -1094 1120 -1180 
Q 1222 -1267 1581 -1274 
L 1581 -1389 
L 32 -1389 
L 32 -1280 
Q 314 -1254 397 -1171 
Q 480 -1088 480 -838 
L 480 2157 
Q 480 2381 429 2451 
Q 378 2522 218 2522 
Q 115 2522 58 2515 
L 58 2618 
Q 506 2752 979 2944 
L 1018 2931 
z
M 1018 2138 
L 1018 563 
Q 1018 422 1238 281 
Q 1459 141 1683 141 
Q 2029 141 2243 467 
Q 2458 794 2458 1325 
Q 2458 1888 2243 2224 
Q 2029 2560 1670 2560 
Q 1446 2560 1232 2419 
Q 1018 2278 1018 2138 
z
" id="STIXGeneral-Regular-70" transform="scale(0.015625)"/>
      <path d="M 3117 0 
L 1760 0 
L 1760 96 
Q 2042 128 2118 224 
Q 2195 320 2195 653 
L 2195 1920 
Q 2195 2598 1722 2598 
Q 1530 2598 1370 2508 
Q 1210 2419 1005 2195 
L 1005 653 
Q 1005 320 1081 224 
Q 1158 128 1440 96 
L 1440 0 
L 58 0 
L 58 96 
Q 333 134 400 224 
Q 467 314 467 653 
L 467 3667 
Q 467 3872 406 3933 
Q 346 3994 141 3994 
Q 83 3994 64 3987 
L 64 4090 
L 237 4141 
Q 730 4288 973 4371 
L 1005 4352 
L 1005 2406 
Q 1229 2694 1446 2819 
Q 1664 2944 1946 2944 
Q 2733 2944 2733 1926 
L 2733 653 
Q 2733 320 2793 233 
Q 2854 147 3117 96 
L 3117 0 
z
" id="STIXGeneral-Regular-68" transform="scale(0.015625)"/>
     </defs>
     <use xlink:href="#STIXGeneral-Regular-61"/>
     <use x="44.399994" xlink:href="#STIXGeneral-Regular-6c"/>
     <use x="72.199982" xlink:href="#STIXGeneral-Regular-70"/>
     <use x="122.199966" xlink:href="#STIXGeneral-Regular-68"/>
     <use x="172.199951" xlink:href="#STIXGeneral-Regular-61"/>
    </g>
   </g>
  </g>
 </g>
 <defs>
  <clipPath id="pee939634c5">
   <rect height="316.18796" width="551.172518" x="16.613501" y="24.956118"/>
  </clipPath>
 </defs>
</svg>
