<?xml version="1.0" encoding="utf-8" standalone="no"?>
<!DOCTYPE svg PUBLIC "-//W3C//DTD SVG 1.1//EN"
  "http://www.w3.org/Graphics/SVG/1.1/DTD/svg11.dtd">
<svg xmlns:xlink="http://www.w3.org/1999/xlink" width="405.52pt" height="302.409812pt" viewBox="0 0 405.52 302.409812" xmlns="http://www.w3.org/2000/svg" version="1.1">
 <metadata>
  <rdf:RDF xmlns:dc="http://purl.org/dc/elements/1.1/" xmlns:cc="http://creativecommons.org/ns#" xmlns:rdf="http://www.w3.org/1999/02/22-rdf-syntax-ns#">
   <cc:Work>
    <dc:type rdf:resource="http://purl.org/dc/dcmitype/StillImage"/>
    <dc:date>2022-09-16T15:04:35.531386</dc:date>
    <dc:format>image/svg+xml</dc:format>
    <dc:creator>
     <cc:Agent>
      <dc:title>Matplotlib v3.5.3, https://matplotlib.org/</dc:title>
     </cc:Agent>
    </dc:creator>
   </cc:Work>
  </rdf:RDF>
 </metadata>
 <defs>
  <style type="text/css">*{stroke-linejoin: round; stroke-linecap: butt}</style>
 </defs>
 <g id="figure_1">
  <g id="patch_1">
   <path d="M 0 302.409812 
L 405.52 302.409812 
L 405.52 0 
L 0 0 
z
" style="fill: #ffffff"/>
  </g>
  <g id="axes_1">
   <g id="patch_2">
    <path d="M 35.2 277.409812 
L 392.32 277.409812 
L 392.32 11.297812 
L 35.2 11.297812 
z
" style="fill: #ffffff"/>
   </g>
   <g id="patch_3">
    <path d="M 109.07022 277.409812 
L 112.673867 277.409812 
L 112.673867 271.91573 
L 109.07022 271.91573 
z
" clip-path="url(#pfcb24903fa)" style="fill: #bc80bd; opacity: 0.4; stroke: #000000; stroke-width: 0.8; stroke-linejoin: miter"/>
   </g>
   <g id="patch_4">
    <path d="M 112.673867 277.409812 
L 116.277514 277.409812 
L 116.277514 271.91573 
L 112.673867 271.91573 
z
" clip-path="url(#pfcb24903fa)" style="fill: #bc80bd; opacity: 0.4; stroke: #000000; stroke-width: 0.8; stroke-linejoin: miter"/>
   </g>
   <g id="patch_5">
    <path d="M 116.277514 277.409812 
L 119.881161 277.409812 
L 119.881161 266.421648 
L 116.277514 266.421648 
z
" clip-path="url(#pfcb24903fa)" style="fill: #bc80bd; opacity: 0.4; stroke: #000000; stroke-width: 0.8; stroke-linejoin: miter"/>
   </g>
   <g id="patch_6">
    <path d="M 119.881161 277.409812 
L 123.484808 277.409812 
L 123.484808 277.409812 
L 119.881161 277.409812 
z
" clip-path="url(#pfcb24903fa)" style="fill: #bc80bd; opacity: 0.4; stroke: #000000; stroke-width: 0.8; stroke-linejoin: miter"/>
   </g>
   <g id="patch_7">
    <path d="M 123.484808 277.409812 
L 127.088455 277.409812 
L 127.088455 271.91573 
L 123.484808 271.91573 
z
" clip-path="url(#pfcb24903fa)" style="fill: #bc80bd; opacity: 0.4; stroke: #000000; stroke-width: 0.8; stroke-linejoin: miter"/>
   </g>
   <g id="patch_8">
    <path d="M 127.088455 277.409812 
L 130.692102 277.409812 
L 130.692102 271.91573 
L 127.088455 271.91573 
z
" clip-path="url(#pfcb24903fa)" style="fill: #bc80bd; opacity: 0.4; stroke: #000000; stroke-width: 0.8; stroke-linejoin: miter"/>
   </g>
   <g id="patch_9">
    <path d="M 130.692102 277.409812 
L 134.295749 277.409812 
L 134.295749 260.927566 
L 130.692102 260.927566 
z
" clip-path="url(#pfcb24903fa)" style="fill: #bc80bd; opacity: 0.4; stroke: #000000; stroke-width: 0.8; stroke-linejoin: miter"/>
   </g>
   <g id="patch_10">
    <path d="M 134.295749 277.409812 
L 137.899396 277.409812 
L 137.899396 260.927566 
L 134.295749 260.927566 
z
" clip-path="url(#pfcb24903fa)" style="fill: #bc80bd; opacity: 0.4; stroke: #000000; stroke-width: 0.8; stroke-linejoin: miter"/>
   </g>
   <g id="patch_11">
    <path d="M 137.899396 277.409812 
L 141.503043 277.409812 
L 141.503043 249.939401 
L 137.899396 249.939401 
z
" clip-path="url(#pfcb24903fa)" style="fill: #bc80bd; opacity: 0.4; stroke: #000000; stroke-width: 0.8; stroke-linejoin: miter"/>
   </g>
   <g id="patch_12">
    <path d="M 141.503043 277.409812 
L 145.10669 277.409812 
L 145.10669 271.91573 
L 141.503043 271.91573 
z
" clip-path="url(#pfcb24903fa)" style="fill: #bc80bd; opacity: 0.4; stroke: #000000; stroke-width: 0.8; stroke-linejoin: miter"/>
   </g>
   <g id="patch_13">
    <path d="M 145.10669 277.409812 
L 148.710337 277.409812 
L 148.710337 249.939401 
L 145.10669 249.939401 
z
" clip-path="url(#pfcb24903fa)" style="fill: #bc80bd; opacity: 0.4; stroke: #000000; stroke-width: 0.8; stroke-linejoin: miter"/>
   </g>
   <g id="patch_14">
    <path d="M 148.710337 277.409812 
L 152.313984 277.409812 
L 152.313984 227.963073 
L 148.710337 227.963073 
z
" clip-path="url(#pfcb24903fa)" style="fill: #bc80bd; opacity: 0.4; stroke: #000000; stroke-width: 0.8; stroke-linejoin: miter"/>
   </g>
   <g id="patch_15">
    <path d="M 152.313984 277.409812 
L 155.917631 277.409812 
L 155.917631 233.457155 
L 152.313984 233.457155 
z
" clip-path="url(#pfcb24903fa)" style="fill: #bc80bd; opacity: 0.4; stroke: #000000; stroke-width: 0.8; stroke-linejoin: miter"/>
   </g>
   <g id="patch_16">
    <path d="M 155.917631 277.409812 
L 159.521278 277.409812 
L 159.521278 178.516333 
L 155.917631 178.516333 
z
" clip-path="url(#pfcb24903fa)" style="fill: #bc80bd; opacity: 0.4; stroke: #000000; stroke-width: 0.8; stroke-linejoin: miter"/>
   </g>
   <g id="patch_17">
    <path d="M 159.521278 277.409812 
L 163.124925 277.409812 
L 163.124925 200.492662 
L 159.521278 200.492662 
z
" clip-path="url(#pfcb24903fa)" style="fill: #bc80bd; opacity: 0.4; stroke: #000000; stroke-width: 0.8; stroke-linejoin: miter"/>
   </g>
   <g id="patch_18">
    <path d="M 163.124925 277.409812 
L 166.728572 277.409812 
L 166.728572 194.998579 
L 163.124925 194.998579 
z
" clip-path="url(#pfcb24903fa)" style="fill: #bc80bd; opacity: 0.4; stroke: #000000; stroke-width: 0.8; stroke-linejoin: miter"/>
   </g>
   <g id="patch_19">
    <path d="M 166.728572 277.409812 
L 170.332219 277.409812 
L 170.332219 151.045922 
L 166.728572 151.045922 
z
" clip-path="url(#pfcb24903fa)" style="fill: #bc80bd; opacity: 0.4; stroke: #000000; stroke-width: 0.8; stroke-linejoin: miter"/>
   </g>
   <g id="patch_20">
    <path d="M 170.332219 277.409812 
L 173.935866 277.409812 
L 173.935866 145.55184 
L 170.332219 145.55184 
z
" clip-path="url(#pfcb24903fa)" style="fill: #bc80bd; opacity: 0.4; stroke: #000000; stroke-width: 0.8; stroke-linejoin: miter"/>
   </g>
   <g id="patch_21">
    <path d="M 173.935866 277.409812 
L 177.539513 277.409812 
L 177.539513 107.093264 
L 173.935866 107.093264 
z
" clip-path="url(#pfcb24903fa)" style="fill: #bc80bd; opacity: 0.4; stroke: #000000; stroke-width: 0.8; stroke-linejoin: miter"/>
   </g>
   <g id="patch_22">
    <path d="M 177.539513 277.409812 
L 181.14316 277.409812 
L 181.14316 145.55184 
L 177.539513 145.55184 
z
" clip-path="url(#pfcb24903fa)" style="fill: #bc80bd; opacity: 0.4; stroke: #000000; stroke-width: 0.8; stroke-linejoin: miter"/>
   </g>
   <g id="patch_23">
    <path d="M 181.14316 277.409812 
L 184.746807 277.409812 
L 184.746807 96.1051 
L 181.14316 96.1051 
z
" clip-path="url(#pfcb24903fa)" style="fill: #bc80bd; opacity: 0.4; stroke: #000000; stroke-width: 0.8; stroke-linejoin: miter"/>
   </g>
   <g id="patch_24">
    <path d="M 184.746807 277.409812 
L 188.350454 277.409812 
L 188.350454 118.081429 
L 184.746807 118.081429 
z
" clip-path="url(#pfcb24903fa)" style="fill: #bc80bd; opacity: 0.4; stroke: #000000; stroke-width: 0.8; stroke-linejoin: miter"/>
   </g>
   <g id="patch_25">
    <path d="M 188.350454 277.409812 
L 191.954101 277.409812 
L 191.954101 156.540004 
L 188.350454 156.540004 
z
" clip-path="url(#pfcb24903fa)" style="fill: #bc80bd; opacity: 0.4; stroke: #000000; stroke-width: 0.8; stroke-linejoin: miter"/>
   </g>
   <g id="patch_26">
    <path d="M 191.954101 277.409812 
L 195.557748 277.409812 
L 195.557748 101.599182 
L 191.954101 101.599182 
z
" clip-path="url(#pfcb24903fa)" style="fill: #bc80bd; opacity: 0.4; stroke: #000000; stroke-width: 0.8; stroke-linejoin: miter"/>
   </g>
   <g id="patch_27">
    <path d="M 195.557748 277.409812 
L 199.161395 277.409812 
L 199.161395 118.081429 
L 195.557748 118.081429 
z
" clip-path="url(#pfcb24903fa)" style="fill: #bc80bd; opacity: 0.4; stroke: #000000; stroke-width: 0.8; stroke-linejoin: miter"/>
   </g>
   <g id="patch_28">
    <path d="M 199.161395 277.409812 
L 202.765042 277.409812 
L 202.765042 68.634689 
L 199.161395 68.634689 
z
" clip-path="url(#pfcb24903fa)" style="fill: #bc80bd; opacity: 0.4; stroke: #000000; stroke-width: 0.8; stroke-linejoin: miter"/>
   </g>
   <g id="patch_29">
    <path d="M 202.765042 277.409812 
L 206.368689 277.409812 
L 206.368689 74.128771 
L 202.765042 74.128771 
z
" clip-path="url(#pfcb24903fa)" style="fill: #bc80bd; opacity: 0.4; stroke: #000000; stroke-width: 0.8; stroke-linejoin: miter"/>
   </g>
   <g id="patch_30">
    <path d="M 206.368689 277.409812 
L 209.972336 277.409812 
L 209.972336 90.611018 
L 206.368689 90.611018 
z
" clip-path="url(#pfcb24903fa)" style="fill: #bc80bd; opacity: 0.4; stroke: #000000; stroke-width: 0.8; stroke-linejoin: miter"/>
   </g>
   <g id="patch_31">
    <path d="M 209.972336 277.409812 
L 213.575983 277.409812 
L 213.575983 52.152442 
L 209.972336 52.152442 
z
" clip-path="url(#pfcb24903fa)" style="fill: #bc80bd; opacity: 0.4; stroke: #000000; stroke-width: 0.8; stroke-linejoin: miter"/>
   </g>
   <g id="patch_32">
    <path d="M 213.575983 277.409812 
L 217.17963 277.409812 
L 217.17963 41.164278 
L 213.575983 41.164278 
z
" clip-path="url(#pfcb24903fa)" style="fill: #bc80bd; opacity: 0.4; stroke: #000000; stroke-width: 0.8; stroke-linejoin: miter"/>
   </g>
   <g id="patch_33">
    <path d="M 217.17963 277.409812 
L 220.783277 277.409812 
L 220.783277 35.670195 
L 217.17963 35.670195 
z
" clip-path="url(#pfcb24903fa)" style="fill: #bc80bd; opacity: 0.4; stroke: #000000; stroke-width: 0.8; stroke-linejoin: miter"/>
   </g>
   <g id="patch_34">
    <path d="M 220.783277 277.409812 
L 224.386924 277.409812 
L 224.386924 41.164278 
L 220.783277 41.164278 
z
" clip-path="url(#pfcb24903fa)" style="fill: #bc80bd; opacity: 0.4; stroke: #000000; stroke-width: 0.8; stroke-linejoin: miter"/>
   </g>
   <g id="patch_35">
    <path d="M 224.386924 277.409812 
L 227.990571 277.409812 
L 227.990571 46.65836 
L 224.386924 46.65836 
z
" clip-path="url(#pfcb24903fa)" style="fill: #bc80bd; opacity: 0.4; stroke: #000000; stroke-width: 0.8; stroke-linejoin: miter"/>
   </g>
   <g id="patch_36">
    <path d="M 227.990571 277.409812 
L 231.594218 277.409812 
L 231.594218 57.646524 
L 227.990571 57.646524 
z
" clip-path="url(#pfcb24903fa)" style="fill: #bc80bd; opacity: 0.4; stroke: #000000; stroke-width: 0.8; stroke-linejoin: miter"/>
   </g>
   <g id="patch_37">
    <path d="M 231.594218 277.409812 
L 235.197865 277.409812 
L 235.197865 63.140606 
L 231.594218 63.140606 
z
" clip-path="url(#pfcb24903fa)" style="fill: #bc80bd; opacity: 0.4; stroke: #000000; stroke-width: 0.8; stroke-linejoin: miter"/>
   </g>
   <g id="patch_38">
    <path d="M 235.197865 277.409812 
L 238.801512 277.409812 
L 238.801512 68.634689 
L 235.197865 68.634689 
z
" clip-path="url(#pfcb24903fa)" style="fill: #bc80bd; opacity: 0.4; stroke: #000000; stroke-width: 0.8; stroke-linejoin: miter"/>
   </g>
   <g id="patch_39">
    <path d="M 238.801512 277.409812 
L 242.405159 277.409812 
L 242.405159 74.128771 
L 238.801512 74.128771 
z
" clip-path="url(#pfcb24903fa)" style="fill: #bc80bd; opacity: 0.4; stroke: #000000; stroke-width: 0.8; stroke-linejoin: miter"/>
   </g>
   <g id="patch_40">
    <path d="M 242.405159 277.409812 
L 246.008806 277.409812 
L 246.008806 162.034086 
L 242.405159 162.034086 
z
" clip-path="url(#pfcb24903fa)" style="fill: #bc80bd; opacity: 0.4; stroke: #000000; stroke-width: 0.8; stroke-linejoin: miter"/>
   </g>
   <g id="patch_41">
    <path d="M 246.008806 277.409812 
L 249.612453 277.409812 
L 249.612453 134.563675 
L 246.008806 134.563675 
z
" clip-path="url(#pfcb24903fa)" style="fill: #bc80bd; opacity: 0.4; stroke: #000000; stroke-width: 0.8; stroke-linejoin: miter"/>
   </g>
   <g id="patch_42">
    <path d="M 249.612453 277.409812 
L 253.2161 277.409812 
L 253.2161 112.587346 
L 249.612453 112.587346 
z
" clip-path="url(#pfcb24903fa)" style="fill: #bc80bd; opacity: 0.4; stroke: #000000; stroke-width: 0.8; stroke-linejoin: miter"/>
   </g>
   <g id="patch_43">
    <path d="M 253.2161 277.409812 
L 256.819747 277.409812 
L 256.819747 178.516333 
L 253.2161 178.516333 
z
" clip-path="url(#pfcb24903fa)" style="fill: #bc80bd; opacity: 0.4; stroke: #000000; stroke-width: 0.8; stroke-linejoin: miter"/>
   </g>
   <g id="patch_44">
    <path d="M 256.819747 277.409812 
L 260.423393 277.409812 
L 260.423393 211.480826 
L 256.819747 211.480826 
z
" clip-path="url(#pfcb24903fa)" style="fill: #bc80bd; opacity: 0.4; stroke: #000000; stroke-width: 0.8; stroke-linejoin: miter"/>
   </g>
   <g id="patch_45">
    <path d="M 260.423393 277.409812 
L 264.02704 277.409812 
L 264.02704 178.516333 
L 260.423393 178.516333 
z
" clip-path="url(#pfcb24903fa)" style="fill: #bc80bd; opacity: 0.4; stroke: #000000; stroke-width: 0.8; stroke-linejoin: miter"/>
   </g>
   <g id="patch_46">
    <path d="M 264.02704 277.409812 
L 267.630687 277.409812 
L 267.630687 184.010415 
L 264.02704 184.010415 
z
" clip-path="url(#pfcb24903fa)" style="fill: #bc80bd; opacity: 0.4; stroke: #000000; stroke-width: 0.8; stroke-linejoin: miter"/>
   </g>
   <g id="patch_47">
    <path d="M 267.630687 277.409812 
L 271.234334 277.409812 
L 271.234334 233.457155 
L 267.630687 233.457155 
z
" clip-path="url(#pfcb24903fa)" style="fill: #bc80bd; opacity: 0.4; stroke: #000000; stroke-width: 0.8; stroke-linejoin: miter"/>
   </g>
   <g id="patch_48">
    <path d="M 271.234334 277.409812 
L 274.837981 277.409812 
L 274.837981 255.433484 
L 271.234334 255.433484 
z
" clip-path="url(#pfcb24903fa)" style="fill: #bc80bd; opacity: 0.4; stroke: #000000; stroke-width: 0.8; stroke-linejoin: miter"/>
   </g>
   <g id="patch_49">
    <path d="M 274.837981 277.409812 
L 278.441628 277.409812 
L 278.441628 227.963073 
L 274.837981 227.963073 
z
" clip-path="url(#pfcb24903fa)" style="fill: #bc80bd; opacity: 0.4; stroke: #000000; stroke-width: 0.8; stroke-linejoin: miter"/>
   </g>
   <g id="patch_50">
    <path d="M 278.441628 277.409812 
L 282.045275 277.409812 
L 282.045275 255.433484 
L 278.441628 255.433484 
z
" clip-path="url(#pfcb24903fa)" style="fill: #bc80bd; opacity: 0.4; stroke: #000000; stroke-width: 0.8; stroke-linejoin: miter"/>
   </g>
   <g id="patch_51">
    <path d="M 282.045275 277.409812 
L 285.648922 277.409812 
L 285.648922 260.927566 
L 282.045275 260.927566 
z
" clip-path="url(#pfcb24903fa)" style="fill: #bc80bd; opacity: 0.4; stroke: #000000; stroke-width: 0.8; stroke-linejoin: miter"/>
   </g>
   <g id="patch_52">
    <path d="M 285.648922 277.409812 
L 289.252569 277.409812 
L 289.252569 271.91573 
L 285.648922 271.91573 
z
" clip-path="url(#pfcb24903fa)" style="fill: #bc80bd; opacity: 0.4; stroke: #000000; stroke-width: 0.8; stroke-linejoin: miter"/>
   </g>
   <g id="patch_53">
    <path d="M 289.252569 277.409812 
L 292.856216 277.409812 
L 292.856216 255.433484 
L 289.252569 255.433484 
z
" clip-path="url(#pfcb24903fa)" style="fill: #bc80bd; opacity: 0.4; stroke: #000000; stroke-width: 0.8; stroke-linejoin: miter"/>
   </g>
   <g id="patch_54">
    <path d="M 292.856216 277.409812 
L 296.459863 277.409812 
L 296.459863 249.939401 
L 292.856216 249.939401 
z
" clip-path="url(#pfcb24903fa)" style="fill: #bc80bd; opacity: 0.4; stroke: #000000; stroke-width: 0.8; stroke-linejoin: miter"/>
   </g>
   <g id="patch_55">
    <path d="M 296.459863 277.409812 
L 300.06351 277.409812 
L 300.06351 266.421648 
L 296.459863 266.421648 
z
" clip-path="url(#pfcb24903fa)" style="fill: #bc80bd; opacity: 0.4; stroke: #000000; stroke-width: 0.8; stroke-linejoin: miter"/>
   </g>
   <g id="patch_56">
    <path d="M 300.06351 277.409812 
L 303.667157 277.409812 
L 303.667157 266.421648 
L 300.06351 266.421648 
z
" clip-path="url(#pfcb24903fa)" style="fill: #bc80bd; opacity: 0.4; stroke: #000000; stroke-width: 0.8; stroke-linejoin: miter"/>
   </g>
   <g id="patch_57">
    <path d="M 303.667157 277.409812 
L 307.270804 277.409812 
L 307.270804 266.421648 
L 303.667157 266.421648 
z
" clip-path="url(#pfcb24903fa)" style="fill: #bc80bd; opacity: 0.4; stroke: #000000; stroke-width: 0.8; stroke-linejoin: miter"/>
   </g>
   <g id="patch_58">
    <path d="M 307.270804 277.409812 
L 310.874451 277.409812 
L 310.874451 271.91573 
L 307.270804 271.91573 
z
" clip-path="url(#pfcb24903fa)" style="fill: #bc80bd; opacity: 0.4; stroke: #000000; stroke-width: 0.8; stroke-linejoin: miter"/>
   </g>
   <g id="patch_59">
    <path d="M 310.874451 277.409812 
L 314.478098 277.409812 
L 314.478098 271.91573 
L 310.874451 271.91573 
z
" clip-path="url(#pfcb24903fa)" style="fill: #bc80bd; opacity: 0.4; stroke: #000000; stroke-width: 0.8; stroke-linejoin: miter"/>
   </g>
   <g id="patch_60">
    <path d="M 314.478098 277.409812 
L 318.081745 277.409812 
L 318.081745 271.91573 
L 314.478098 271.91573 
z
" clip-path="url(#pfcb24903fa)" style="fill: #bc80bd; opacity: 0.4; stroke: #000000; stroke-width: 0.8; stroke-linejoin: miter"/>
   </g>
   <g id="patch_61">
    <path d="M 318.081745 277.409812 
L 321.685392 277.409812 
L 321.685392 277.409812 
L 318.081745 277.409812 
z
" clip-path="url(#pfcb24903fa)" style="fill: #bc80bd; opacity: 0.4; stroke: #000000; stroke-width: 0.8; stroke-linejoin: miter"/>
   </g>
   <g id="patch_62">
    <path d="M 321.685392 277.409812 
L 325.289039 277.409812 
L 325.289039 271.91573 
L 321.685392 271.91573 
z
" clip-path="url(#pfcb24903fa)" style="fill: #bc80bd; opacity: 0.4; stroke: #000000; stroke-width: 0.8; stroke-linejoin: miter"/>
   </g>
   <g id="matplotlib.axis_1">
    <g id="xtick_1">
     <g id="line2d_1">
      <defs>
       <path id="m1ce9e96750" d="M 0 0 
L 0 3.5 
" style="stroke: #323034; stroke-width: 0.8"/>
      </defs>
      <g>
       <use xlink:href="#m1ce9e96750" x="35.2" y="277.409812" style="fill: #323034; stroke: #323034; stroke-width: 0.8"/>
      </g>
     </g>
     <g id="text_1">
      <!-- $\mathdefault{−6}$ -->
      <g style="fill: #323034" transform="translate(28.06 292.605437)scale(0.12 -0.12)">
       <defs>
        <path id="STIXGeneral-Regular-2212" d="M 3974 1408 
L 410 1408 
L 410 1830 
L 3974 1830 
L 3974 1408 
z
" transform="scale(0.015625)"/>
        <path id="STIXGeneral-Regular-36" d="M 2854 4378 
L 2867 4275 
Q 2112 4154 1606 3664 
Q 1101 3174 973 2451 
Q 1344 2739 1786 2739 
Q 2349 2739 2672 2380 
Q 2995 2022 2995 1402 
Q 2995 774 2669 378 
Q 2291 -90 1651 -90 
Q 870 -90 518 557 
Q 218 1107 218 1786 
Q 218 2835 915 3552 
Q 1312 3962 1731 4131 
Q 2150 4301 2854 4378 
z
M 2419 1203 
Q 2419 2445 1555 2445 
Q 1235 2445 1024 2275 
Q 813 2106 813 1702 
Q 813 954 1046 522 
Q 1280 90 1722 90 
Q 2061 90 2240 394 
Q 2419 698 2419 1203 
z
" transform="scale(0.015625)"/>
       </defs>
       <use xlink:href="#STIXGeneral-Regular-2212" transform="translate(0 0.59375)"/>
       <use xlink:href="#STIXGeneral-Regular-36" transform="translate(68.499985 0.59375)"/>
      </g>
     </g>
    </g>
    <g id="xtick_2">
     <g id="line2d_2">
      <g>
       <use xlink:href="#m1ce9e96750" x="79.84" y="277.409812" style="fill: #323034; stroke: #323034; stroke-width: 0.8"/>
      </g>
     </g>
     <g id="text_2">
      <!-- $\mathdefault{−4}$ -->
      <g style="fill: #323034" transform="translate(72.7 292.605437)scale(0.12 -0.12)">
       <defs>
        <path id="STIXGeneral-Regular-34" d="M 3027 1069 
L 2368 1069 
L 2368 0 
L 1869 0 
L 1869 1069 
L 77 1069 
L 77 1478 
L 2086 4326 
L 2368 4326 
L 2368 1478 
L 3027 1478 
L 3027 1069 
z
M 1869 1478 
L 1869 3674 
L 333 1478 
L 1869 1478 
z
" transform="scale(0.015625)"/>
       </defs>
       <use xlink:href="#STIXGeneral-Regular-2212" transform="translate(0 0.40625)"/>
       <use xlink:href="#STIXGeneral-Regular-34" transform="translate(68.499985 0.40625)"/>
      </g>
     </g>
    </g>
    <g id="xtick_3">
     <g id="line2d_3">
      <g>
       <use xlink:href="#m1ce9e96750" x="124.48" y="277.409812" style="fill: #323034; stroke: #323034; stroke-width: 0.8"/>
      </g>
     </g>
     <g id="text_3">
      <!-- $\mathdefault{−2}$ -->
      <g style="fill: #323034" transform="translate(117.34 292.605437)scale(0.12 -0.12)">
       <defs>
        <path id="STIXGeneral-Regular-32" d="M 3034 877 
L 2688 0 
L 186 0 
L 186 77 
L 1325 1286 
Q 1773 1754 1965 2144 
Q 2157 2534 2157 2950 
Q 2157 3379 1920 3616 
Q 1683 3853 1267 3853 
Q 922 3853 720 3673 
Q 518 3494 326 3021 
L 192 3053 
Q 301 3648 630 3987 
Q 960 4326 1523 4326 
Q 2054 4326 2380 4006 
Q 2707 3686 2707 3200 
Q 2707 2477 1888 1613 
L 832 486 
L 2330 486 
Q 2541 486 2665 569 
Q 2790 653 2944 915 
L 3034 877 
z
" transform="scale(0.015625)"/>
       </defs>
       <use xlink:href="#STIXGeneral-Regular-2212" transform="translate(0 0.40625)"/>
       <use xlink:href="#STIXGeneral-Regular-32" transform="translate(68.499985 0.40625)"/>
      </g>
     </g>
    </g>
    <g id="xtick_4">
     <g id="line2d_4">
      <g>
       <use xlink:href="#m1ce9e96750" x="169.12" y="277.409812" style="fill: #323034; stroke: #323034; stroke-width: 0.8"/>
      </g>
     </g>
     <g id="text_4">
      <!-- $\mathdefault{0}$ -->
      <g style="fill: #323034" transform="translate(166.12 292.605437)scale(0.12 -0.12)">
       <defs>
        <path id="STIXGeneral-Regular-30" d="M 3046 2112 
Q 3046 1683 2963 1302 
Q 2880 922 2717 602 
Q 2554 282 2266 96 
Q 1978 -90 1600 -90 
Q 1210 -90 915 108 
Q 621 307 461 640 
Q 301 973 227 1350 
Q 154 1728 154 2150 
Q 154 2746 301 3222 
Q 448 3699 790 4012 
Q 1133 4326 1626 4326 
Q 2253 4326 2649 3712 
Q 3046 3098 3046 2112 
z
M 2432 2080 
Q 2432 3091 2217 3625 
Q 2003 4160 1587 4160 
Q 1190 4160 979 3622 
Q 768 3085 768 2106 
Q 768 1120 979 598 
Q 1190 77 1600 77 
Q 2003 77 2217 598 
Q 2432 1120 2432 2080 
z
" transform="scale(0.015625)"/>
       </defs>
       <use xlink:href="#STIXGeneral-Regular-30" transform="translate(0 0.40625)"/>
      </g>
     </g>
    </g>
    <g id="xtick_5">
     <g id="line2d_5">
      <g>
       <use xlink:href="#m1ce9e96750" x="213.76" y="277.409812" style="fill: #323034; stroke: #323034; stroke-width: 0.8"/>
      </g>
     </g>
     <g id="text_5">
      <!-- $\mathdefault{2}$ -->
      <g style="fill: #323034" transform="translate(210.76 292.605437)scale(0.12 -0.12)">
       <use xlink:href="#STIXGeneral-Regular-32" transform="translate(0 0.40625)"/>
      </g>
     </g>
    </g>
    <g id="xtick_6">
     <g id="line2d_6">
      <g>
       <use xlink:href="#m1ce9e96750" x="258.4" y="277.409812" style="fill: #323034; stroke: #323034; stroke-width: 0.8"/>
      </g>
     </g>
     <g id="text_6">
      <!-- $\mathdefault{4}$ -->
      <g style="fill: #323034" transform="translate(255.4 292.605437)scale(0.12 -0.12)">
       <use xlink:href="#STIXGeneral-Regular-34" transform="translate(0 0.40625)"/>
      </g>
     </g>
    </g>
    <g id="xtick_7">
     <g id="line2d_7">
      <g>
       <use xlink:href="#m1ce9e96750" x="303.04" y="277.409812" style="fill: #323034; stroke: #323034; stroke-width: 0.8"/>
      </g>
     </g>
     <g id="text_7">
      <!-- $\mathdefault{6}$ -->
      <g style="fill: #323034" transform="translate(300.04 292.605437)scale(0.12 -0.12)">
       <use xlink:href="#STIXGeneral-Regular-36" transform="translate(0 0.59375)"/>
      </g>
     </g>
    </g>
    <g id="xtick_8">
     <g id="line2d_8">
      <g>
       <use xlink:href="#m1ce9e96750" x="347.68" y="277.409812" style="fill: #323034; stroke: #323034; stroke-width: 0.8"/>
      </g>
     </g>
     <g id="text_8">
      <!-- $\mathdefault{8}$ -->
      <g style="fill: #323034" transform="translate(344.68 292.605437)scale(0.12 -0.12)">
       <defs>
        <path id="STIXGeneral-Regular-38" d="M 2848 992 
Q 2848 499 2505 204 
Q 2163 -90 1587 -90 
Q 1050 -90 704 204 
Q 358 499 358 954 
Q 358 1293 524 1533 
Q 691 1773 1190 2125 
Q 710 2522 553 2765 
Q 397 3008 397 3328 
Q 397 3782 745 4054 
Q 1094 4326 1638 4326 
Q 2106 4326 2410 4060 
Q 2714 3795 2714 3411 
Q 2714 3059 2531 2848 
Q 2349 2637 1856 2374 
Q 2432 1990 2640 1689 
Q 2848 1389 2848 992 
z
M 2272 3411 
Q 2272 3744 2086 3945 
Q 1901 4147 1574 4147 
Q 1248 4147 1059 3977 
Q 870 3808 870 3513 
Q 870 3219 1059 2979 
Q 1248 2739 1670 2490 
Q 1997 2682 2134 2896 
Q 2272 3110 2272 3411 
z
M 1734 1741 
L 1357 1997 
Q 1075 1766 960 1545 
Q 845 1325 845 1011 
Q 845 576 1065 333 
Q 1286 90 1658 90 
Q 1971 90 2166 285 
Q 2362 480 2362 794 
Q 2362 1082 2214 1299 
Q 2067 1517 1734 1741 
z
" transform="scale(0.015625)"/>
       </defs>
       <use xlink:href="#STIXGeneral-Regular-38" transform="translate(0 0.40625)"/>
      </g>
     </g>
    </g>
    <g id="xtick_9">
     <g id="line2d_9">
      <g>
       <use xlink:href="#m1ce9e96750" x="392.32" y="277.409812" style="fill: #323034; stroke: #323034; stroke-width: 0.8"/>
      </g>
     </g>
     <g id="text_9">
      <!-- $\mathdefault{10}$ -->
      <g style="fill: #323034" transform="translate(386.32 292.605437)scale(0.12 -0.12)">
       <defs>
        <path id="STIXGeneral-Regular-31" d="M 2522 0 
L 755 0 
L 755 96 
Q 1107 115 1235 227 
Q 1363 339 1363 608 
L 1363 3482 
Q 1363 3795 1171 3795 
Q 1082 3795 883 3718 
L 710 3654 
L 710 3744 
L 1856 4326 
L 1914 4307 
L 1914 486 
Q 1914 275 2042 185 
Q 2170 96 2522 96 
L 2522 0 
z
" transform="scale(0.015625)"/>
       </defs>
       <use xlink:href="#STIXGeneral-Regular-31" transform="translate(0 0.40625)"/>
       <use xlink:href="#STIXGeneral-Regular-30" transform="translate(49.999985 0.40625)"/>
      </g>
     </g>
    </g>
   </g>
   <g id="matplotlib.axis_2">
    <g id="ytick_1">
     <g id="line2d_10">
      <defs>
       <path id="m525d6003a2" d="M 0 0 
L -3.5 0 
" style="stroke: #323034; stroke-width: 0.8"/>
      </defs>
      <g>
       <use xlink:href="#m525d6003a2" x="35.2" y="277.409812" style="fill: #323034; stroke: #323034; stroke-width: 0.8"/>
      </g>
     </g>
     <g id="text_10">
      <!-- $\mathdefault{0.00}$ -->
      <g style="fill: #323034" transform="translate(7.2 281.507625)scale(0.12 -0.12)">
       <defs>
        <path id="STIXGeneral-Regular-2e" d="M 1158 275 
Q 1158 134 1052 32 
Q 947 -70 800 -70 
Q 653 -70 550 32 
Q 448 134 448 281 
Q 448 429 553 534 
Q 659 640 806 640 
Q 947 640 1052 531 
Q 1158 422 1158 275 
z
" transform="scale(0.015625)"/>
       </defs>
       <use xlink:href="#STIXGeneral-Regular-30" transform="translate(0 0.40625)"/>
       <use xlink:href="#STIXGeneral-Regular-2e" transform="translate(49.999985 0.40625)"/>
       <use xlink:href="#STIXGeneral-Regular-30" transform="translate(74.999969 0.40625)"/>
       <use xlink:href="#STIXGeneral-Regular-30" transform="translate(124.999954 0.40625)"/>
      </g>
     </g>
    </g>
    <g id="ytick_2">
     <g id="line2d_11">
      <g>
       <use xlink:href="#m525d6003a2" x="35.2" y="233.057812" style="fill: #323034; stroke: #323034; stroke-width: 0.8"/>
      </g>
     </g>
     <g id="text_11">
      <!-- $\mathdefault{0.05}$ -->
      <g style="fill: #323034" transform="translate(7.2 237.155625)scale(0.12 -0.12)">
       <defs>
        <path id="STIXGeneral-Regular-35" d="M 2803 4358 
L 2573 3814 
Q 2534 3731 2400 3731 
L 1158 3731 
L 902 3187 
Q 1606 3053 1920 2896 
Q 2234 2739 2502 2368 
Q 2726 2061 2726 1555 
Q 2726 1094 2576 780 
Q 2426 467 2099 224 
Q 1664 -90 1011 -90 
Q 646 -90 422 19 
Q 198 128 198 307 
Q 198 550 486 550 
Q 717 550 960 352 
Q 1210 147 1414 147 
Q 1747 147 2012 480 
Q 2278 813 2278 1229 
Q 2278 1843 1850 2189 
Q 1293 2637 486 2637 
Q 410 2637 410 2688 
L 416 2720 
L 1114 4237 
L 2438 4237 
Q 2547 4237 2608 4269 
Q 2669 4301 2746 4403 
L 2803 4358 
z
" transform="scale(0.015625)"/>
       </defs>
       <use xlink:href="#STIXGeneral-Regular-30" transform="translate(0 0.203125)"/>
       <use xlink:href="#STIXGeneral-Regular-2e" transform="translate(49.999985 0.203125)"/>
       <use xlink:href="#STIXGeneral-Regular-30" transform="translate(74.999969 0.203125)"/>
       <use xlink:href="#STIXGeneral-Regular-35" transform="translate(124.999954 0.203125)"/>
      </g>
     </g>
    </g>
    <g id="ytick_3">
     <g id="line2d_12">
      <g>
       <use xlink:href="#m525d6003a2" x="35.2" y="188.705812" style="fill: #323034; stroke: #323034; stroke-width: 0.8"/>
      </g>
     </g>
     <g id="text_12">
      <!-- $\mathdefault{0.10}$ -->
      <g style="fill: #323034" transform="translate(7.2 192.803625)scale(0.12 -0.12)">
       <use xlink:href="#STIXGeneral-Regular-30" transform="translate(0 0.40625)"/>
       <use xlink:href="#STIXGeneral-Regular-2e" transform="translate(49.999985 0.40625)"/>
       <use xlink:href="#STIXGeneral-Regular-31" transform="translate(74.999969 0.40625)"/>
       <use xlink:href="#STIXGeneral-Regular-30" transform="translate(124.999954 0.40625)"/>
      </g>
     </g>
    </g>
    <g id="ytick_4">
     <g id="line2d_13">
      <g>
       <use xlink:href="#m525d6003a2" x="35.2" y="144.353812" style="fill: #323034; stroke: #323034; stroke-width: 0.8"/>
      </g>
     </g>
     <g id="text_13">
      <!-- $\mathdefault{0.15}$ -->
      <g style="fill: #323034" transform="translate(7.2 148.451625)scale(0.12 -0.12)">
       <use xlink:href="#STIXGeneral-Regular-30" transform="translate(0 0.203125)"/>
       <use xlink:href="#STIXGeneral-Regular-2e" transform="translate(49.999985 0.203125)"/>
       <use xlink:href="#STIXGeneral-Regular-31" transform="translate(74.999969 0.203125)"/>
       <use xlink:href="#STIXGeneral-Regular-35" transform="translate(124.999954 0.203125)"/>
      </g>
     </g>
    </g>
    <g id="ytick_5">
     <g id="line2d_14">
      <g>
       <use xlink:href="#m525d6003a2" x="35.2" y="100.001812" style="fill: #323034; stroke: #323034; stroke-width: 0.8"/>
      </g>
     </g>
     <g id="text_14">
      <!-- $\mathdefault{0.20}$ -->
      <g style="fill: #323034" transform="translate(7.2 104.099625)scale(0.12 -0.12)">
       <use xlink:href="#STIXGeneral-Regular-30" transform="translate(0 0.40625)"/>
       <use xlink:href="#STIXGeneral-Regular-2e" transform="translate(49.999985 0.40625)"/>
       <use xlink:href="#STIXGeneral-Regular-32" transform="translate(74.999969 0.40625)"/>
       <use xlink:href="#STIXGeneral-Regular-30" transform="translate(124.999954 0.40625)"/>
      </g>
     </g>
    </g>
    <g id="ytick_6">
     <g id="line2d_15">
      <g>
       <use xlink:href="#m525d6003a2" x="35.2" y="55.649812" style="fill: #323034; stroke: #323034; stroke-width: 0.8"/>
      </g>
     </g>
     <g id="text_15">
      <!-- $\mathdefault{0.25}$ -->
      <g style="fill: #323034" transform="translate(7.2 59.747625)scale(0.12 -0.12)">
       <use xlink:href="#STIXGeneral-Regular-30" transform="translate(0 0.203125)"/>
       <use xlink:href="#STIXGeneral-Regular-2e" transform="translate(49.999985 0.203125)"/>
       <use xlink:href="#STIXGeneral-Regular-32" transform="translate(74.999969 0.203125)"/>
       <use xlink:href="#STIXGeneral-Regular-35" transform="translate(124.999954 0.203125)"/>
      </g>
     </g>
    </g>
    <g id="ytick_7">
     <g id="line2d_16">
      <g>
       <use xlink:href="#m525d6003a2" x="35.2" y="11.297812" style="fill: #323034; stroke: #323034; stroke-width: 0.8"/>
      </g>
     </g>
     <g id="text_16">
      <!-- $\mathdefault{0.30}$ -->
      <g style="fill: #323034" transform="translate(7.2 15.395625)scale(0.12 -0.12)">
       <defs>
        <path id="STIXGeneral-Regular-33" d="M 390 3264 
L 288 3290 
Q 435 3770 748 4048 
Q 1062 4326 1542 4326 
Q 1990 4326 2265 4083 
Q 2541 3840 2541 3450 
Q 2541 2925 1946 2566 
Q 2298 2413 2477 2227 
Q 2758 1914 2758 1402 
Q 2758 890 2464 506 
Q 2246 211 1840 60 
Q 1434 -90 979 -90 
Q 262 -90 262 275 
Q 262 378 339 442 
Q 416 506 525 506 
Q 685 506 915 339 
Q 1197 141 1466 141 
Q 1818 141 2058 425 
Q 2298 710 2298 1120 
Q 2298 1856 1632 2048 
Q 1434 2112 979 2112 
L 979 2202 
Q 1338 2323 1517 2432 
Q 2035 2726 2035 3290 
Q 2035 3610 1852 3776 
Q 1670 3942 1344 3942 
Q 768 3942 390 3264 
z
" transform="scale(0.015625)"/>
       </defs>
       <use xlink:href="#STIXGeneral-Regular-30" transform="translate(0 0.40625)"/>
       <use xlink:href="#STIXGeneral-Regular-2e" transform="translate(49.999985 0.40625)"/>
       <use xlink:href="#STIXGeneral-Regular-33" transform="translate(74.999969 0.40625)"/>
       <use xlink:href="#STIXGeneral-Regular-30" transform="translate(124.999954 0.40625)"/>
      </g>
     </g>
    </g>
   </g>
   <g id="line2d_17">
    <path d="M 83.157509 277.235537 
L 92.586201 276.935012 
L 99.320981 276.482103 
L 104.708805 275.867666 
L 108.749673 275.188256 
L 112.790541 274.253457 
L 115.484453 273.45126 
L 118.178365 272.475589 
L 120.872277 271.297112 
L 123.566189 269.883551 
L 126.260101 268.19986 
L 128.954013 266.208539 
L 131.647925 263.870105 
L 134.341837 261.143726 
L 137.035749 257.988044 
L 139.72966 254.362178 
L 142.423572 250.226909 
L 145.117484 245.546037 
L 147.811396 240.287885 
L 150.505308 234.426914 
L 153.19922 227.945409 
L 155.893132 220.835179 
L 158.587044 213.099203 
L 161.280956 204.753158 
L 163.974868 195.826738 
L 168.015736 181.451107 
L 172.056604 166.091794 
L 177.444428 144.608646 
L 185.526164 112.15818 
L 189.567032 96.853428 
L 192.260944 87.335929 
L 194.954856 78.542252 
L 197.648768 70.616095 
L 200.34268 63.691058 
L 201.689636 60.642026 
L 203.036592 57.886915 
L 204.383548 55.437972 
L 205.730504 53.306171 
L 207.07746 51.501131 
L 208.424416 50.031049 
L 209.771372 48.902629 
L 211.118328 48.121042 
L 212.465284 47.689875 
L 213.81224 47.611112 
L 215.159196 47.885116 
L 216.506152 48.510626 
L 217.853108 49.484766 
L 219.200064 50.80307 
L 220.54702 52.459511 
L 221.893976 54.446553 
L 223.240932 56.755203 
L 224.587888 59.375081 
L 225.934844 62.294498 
L 228.628755 68.979178 
L 231.322667 76.693038 
L 234.016579 85.305246 
L 236.710491 94.674028 
L 240.751359 109.819163 
L 246.139183 131.255039 
L 254.220919 163.739497 
L 258.261787 179.221623 
L 262.302655 193.759376 
L 264.996567 202.809774 
L 267.690479 211.28845 
L 270.384391 219.162427 
L 273.078303 226.413007 
L 275.772215 233.034501 
L 278.466127 239.032749 
L 281.160039 244.423484 
L 283.853951 249.230648 
L 286.547863 253.484692 
L 289.241775 257.22094 
L 291.935687 260.478061 
L 294.629599 263.296674 
L 297.323511 265.718124 
L 300.017423 267.783438 
L 302.711335 269.532462 
L 305.405247 271.003185 
L 308.099159 272.231233 
L 310.793071 273.249521 
L 313.486983 274.088048 
L 317.52785 275.067021 
L 321.568718 275.780159 
L 325.609586 276.291782 
L 330.99741 276.747708 
L 337.73219 277.077529 
L 347.160882 277.291151 
L 351.20175 277.335228 
L 351.20175 277.335228 
" clip-path="url(#pfcb24903fa)" style="fill: none; stroke: #282828; stroke-width: 2; stroke-linecap: square"/>
   </g>
   <g id="patch_63">
    <path d="M 35.2 277.409812 
L 35.2 11.297812 
" style="fill: none; stroke: #000000; stroke-width: 0.6; stroke-linejoin: miter; stroke-linecap: square"/>
   </g>
   <g id="patch_64">
    <path d="M 35.2 277.409812 
L 392.32 277.409812 
" style="fill: none; stroke: #000000; stroke-width: 0.6; stroke-linejoin: miter; stroke-linecap: square"/>
   </g>
   <g id="legend_1">
    <g id="line2d_18">
     <path d="M 42.2 21.9275 
L 52.2 21.9275 
L 62.2 21.9275 
" style="fill: none; stroke: #282828; stroke-width: 2; stroke-linecap: square"/>
    </g>
    <g id="text_17">
     <!-- Est. normal dist. ($\hat{\mu}=$1.99 and $\hat{\sigma}=$1.54 ) -->
     <g style="fill: #323034" transform="translate(70.2 25.4275)scale(0.1 -0.1)">
      <defs>
       <path id="STIXGeneral-Regular-45" d="M 3821 1082 
L 3526 0 
L 77 0 
L 77 122 
Q 442 147 538 252 
Q 634 358 634 730 
L 634 3520 
Q 634 3878 534 3987 
Q 435 4096 77 4115 
L 77 4237 
L 3469 4237 
L 3494 3322 
L 3334 3322 
Q 3264 3750 3085 3872 
Q 2906 3994 2349 3994 
L 1510 3994 
Q 1370 3994 1328 3952 
Q 1286 3910 1286 3763 
L 1286 2355 
L 2253 2355 
Q 2656 2355 2787 2470 
Q 2918 2586 2976 2970 
L 3123 2970 
L 3123 1472 
L 2976 1472 
Q 2918 1875 2790 1984 
Q 2662 2093 2253 2093 
L 1286 2093 
L 1286 538 
Q 1286 346 1420 291 
Q 1555 237 1933 237 
L 2163 237 
Q 2848 237 3136 403 
Q 3424 570 3642 1082 
L 3821 1082 
z
" transform="scale(0.015625)"/>
       <path id="STIXGeneral-Regular-73" d="M 998 1926 
L 1664 1523 
Q 1984 1331 2105 1164 
Q 2227 998 2227 736 
Q 2227 416 1961 176 
Q 1696 -64 1331 -64 
Q 1030 -64 864 -6 
Q 691 51 570 51 
Q 461 51 416 -26 
L 333 -26 
L 333 979 
L 435 979 
Q 538 512 730 294 
Q 922 77 1248 77 
Q 1485 77 1632 211 
Q 1779 346 1779 550 
Q 1779 845 1440 1030 
L 1094 1222 
Q 326 1651 326 2150 
Q 326 2522 566 2730 
Q 806 2938 1210 2938 
Q 1491 2938 1638 2867 
Q 1754 2816 1818 2816 
Q 1862 2816 1920 2880 
L 1990 2880 
L 2022 2010 
L 1926 2010 
Q 1818 2445 1654 2621 
Q 1491 2797 1203 2797 
Q 986 2797 854 2688 
Q 723 2579 723 2362 
Q 723 2253 796 2128 
Q 870 2003 998 1926 
z
" transform="scale(0.015625)"/>
       <path id="STIXGeneral-Regular-74" d="M 1702 493 
L 1786 422 
Q 1478 -64 1011 -64 
Q 448 -64 448 749 
L 448 2675 
L 109 2675 
Q 83 2694 83 2720 
Q 83 2771 192 2842 
Q 435 2982 813 3526 
Q 826 3546 874 3606 
Q 922 3667 941 3706 
Q 986 3706 986 3622 
L 986 2880 
L 1632 2880 
L 1632 2675 
L 986 2675 
L 986 845 
Q 986 538 1062 403 
Q 1139 269 1318 269 
Q 1510 269 1702 493 
z
" transform="scale(0.015625)"/>
       <path id="STIXGeneral-Regular-20" transform="scale(0.015625)"/>
       <path id="STIXGeneral-Regular-6e" d="M 3104 0 
L 1773 0 
L 1779 96 
Q 2016 115 2096 233 
Q 2176 352 2176 672 
L 2176 1946 
Q 2176 2592 1709 2592 
Q 1549 2592 1408 2515 
Q 1267 2438 1050 2227 
L 1050 461 
Q 1050 269 1136 192 
Q 1222 115 1466 96 
L 1466 0 
L 115 0 
L 115 96 
Q 358 115 435 214 
Q 512 314 512 602 
L 512 2157 
Q 512 2394 467 2483 
Q 422 2573 288 2573 
Q 160 2573 102 2547 
L 102 2656 
Q 550 2784 979 2944 
L 1030 2925 
L 1030 2426 
L 1037 2426 
Q 1491 2944 1958 2944 
Q 2323 2944 2518 2688 
Q 2714 2432 2714 1958 
L 2714 544 
Q 2714 288 2790 205 
Q 2867 122 3104 96 
L 3104 0 
z
" transform="scale(0.015625)"/>
       <path id="STIXGeneral-Regular-6f" d="M 3008 1478 
Q 3008 806 2608 371 
Q 2208 -64 1568 -64 
Q 979 -64 582 368 
Q 186 800 186 1459 
Q 186 2125 582 2534 
Q 979 2944 1626 2944 
Q 2221 2944 2614 2537 
Q 3008 2131 3008 1478 
z
M 2432 1306 
Q 2432 2035 2112 2445 
Q 1856 2765 1504 2765 
Q 1171 2765 966 2493 
Q 762 2221 762 1747 
Q 762 928 1101 435 
Q 1318 115 1677 115 
Q 2029 115 2230 432 
Q 2432 749 2432 1306 
z
" transform="scale(0.015625)"/>
       <path id="STIXGeneral-Regular-72" d="M 1024 2931 
L 1024 2342 
Q 1267 2688 1430 2816 
Q 1594 2944 1792 2944 
Q 1958 2944 2051 2854 
Q 2144 2765 2144 2605 
Q 2144 2470 2077 2393 
Q 2010 2317 1894 2317 
Q 1773 2317 1638 2445 
Q 1536 2541 1472 2541 
Q 1338 2541 1181 2355 
Q 1024 2170 1024 2016 
L 1024 576 
Q 1024 301 1133 205 
Q 1242 109 1568 96 
L 1568 0 
L 32 0 
L 32 96 
Q 339 154 412 224 
Q 486 294 486 538 
L 486 2138 
Q 486 2349 438 2435 
Q 390 2522 269 2522 
Q 166 2522 45 2496 
L 45 2598 
Q 448 2726 992 2944 
L 1024 2931 
z
" transform="scale(0.015625)"/>
       <path id="STIXGeneral-Regular-6d" d="M 4960 0 
L 3565 0 
L 3565 96 
Q 3834 122 3907 208 
Q 3981 294 3981 576 
L 3981 1894 
Q 3981 2278 3869 2444 
Q 3757 2611 3488 2611 
Q 3264 2611 3107 2521 
Q 2950 2432 2803 2221 
L 2803 608 
Q 2803 301 2896 201 
Q 2989 102 3264 96 
L 3264 0 
L 1830 0 
L 1830 96 
Q 2112 115 2189 188 
Q 2266 262 2266 550 
L 2266 1901 
Q 2266 2611 1850 2611 
Q 1670 2611 1468 2531 
Q 1267 2451 1171 2336 
Q 1088 2240 1088 2227 
L 1088 448 
Q 1088 243 1177 176 
Q 1267 109 1523 96 
L 1523 0 
L 102 0 
L 102 96 
Q 371 102 460 195 
Q 550 288 550 563 
L 550 2150 
Q 550 2387 499 2480 
Q 448 2573 326 2573 
Q 230 2573 122 2547 
L 122 2656 
Q 557 2778 1011 2944 
L 1062 2925 
L 1062 2451 
L 1075 2451 
Q 1363 2752 1584 2848 
Q 1805 2944 2054 2944 
Q 2560 2944 2733 2406 
Q 3232 2944 3776 2944 
Q 4518 2944 4518 1792 
L 4518 493 
Q 4518 282 4582 202 
Q 4646 122 4794 109 
L 4960 96 
L 4960 0 
z
" transform="scale(0.015625)"/>
       <path id="STIXGeneral-Regular-61" d="M 2829 422 
L 2829 243 
Q 2586 -64 2253 -64 
Q 1888 -64 1843 403 
L 1837 403 
Q 1427 -64 909 -64 
Q 608 -64 422 112 
Q 237 288 237 602 
Q 237 1050 685 1350 
Q 992 1555 1837 1869 
L 1837 2214 
Q 1837 2502 1699 2646 
Q 1562 2790 1338 2790 
Q 1146 2790 1018 2697 
Q 890 2605 890 2477 
Q 890 2419 909 2348 
Q 928 2278 928 2208 
Q 928 2112 841 2029 
Q 755 1946 634 1946 
Q 525 1946 441 2029 
Q 358 2112 358 2240 
Q 358 2547 685 2752 
Q 986 2944 1421 2944 
Q 1939 2944 2176 2656 
Q 2291 2522 2323 2384 
Q 2355 2246 2355 1946 
L 2355 723 
Q 2355 301 2554 301 
Q 2682 301 2829 422 
z
M 1837 813 
L 1837 1715 
Q 1248 1510 1018 1293 
Q 800 1094 800 800 
Q 800 557 921 432 
Q 1043 307 1242 307 
Q 1453 307 1613 410 
Q 1747 506 1792 589 
Q 1837 672 1837 813 
z
" transform="scale(0.015625)"/>
       <path id="STIXGeneral-Regular-6c" d="M 1645 0 
L 134 0 
L 134 96 
Q 435 122 531 221 
Q 627 320 627 589 
L 627 3590 
Q 627 3821 569 3910 
Q 512 4000 358 4000 
Q 224 4000 122 3987 
L 122 4090 
Q 730 4237 1133 4371 
L 1165 4346 
L 1165 557 
Q 1165 288 1254 201 
Q 1344 115 1645 96 
L 1645 0 
z
" transform="scale(0.015625)"/>
       <path id="STIXGeneral-Regular-64" d="M 3142 269 
L 2202 -64 
L 2176 -45 
L 2176 365 
Q 1869 -64 1357 -64 
Q 826 -64 499 317 
Q 173 698 173 1312 
Q 173 1990 563 2467 
Q 954 2944 1504 2944 
Q 1850 2944 2176 2669 
L 2176 3667 
Q 2176 3866 2118 3930 
Q 2061 3994 1882 3994 
Q 1792 3994 1741 3987 
L 1741 4090 
Q 2323 4243 2682 4371 
L 2714 4358 
L 2714 730 
Q 2714 506 2768 435 
Q 2822 365 2995 365 
Q 3034 365 3142 371 
L 3142 269 
z
M 2176 653 
L 2176 2125 
Q 2176 2381 1981 2573 
Q 1786 2765 1523 2765 
Q 1158 2765 940 2438 
Q 723 2112 723 1568 
Q 723 979 963 624 
Q 1203 269 1606 269 
Q 1907 269 2080 474 
Q 2176 582 2176 653 
z
" transform="scale(0.015625)"/>
       <path id="STIXGeneral-Regular-69" d="M 1152 4045 
Q 1152 3904 1056 3811 
Q 960 3718 819 3718 
Q 685 3718 592 3811 
Q 499 3904 499 4045 
Q 499 4179 595 4275 
Q 691 4371 826 4371 
Q 966 4371 1059 4275 
Q 1152 4179 1152 4045 
z
M 1619 0 
L 102 0 
L 102 96 
Q 435 115 521 211 
Q 608 307 608 666 
L 608 2118 
Q 608 2342 563 2432 
Q 518 2522 397 2522 
Q 243 2522 128 2490 
L 128 2592 
L 1120 2944 
L 1146 2918 
L 1146 672 
Q 1146 314 1226 218 
Q 1306 122 1619 96 
L 1619 0 
z
" transform="scale(0.015625)"/>
       <path id="STIXGeneral-Regular-28" d="M 1946 -1030 
L 1869 -1133 
Q 1126 -710 716 32 
Q 307 774 307 1613 
Q 307 3386 1888 4326 
L 1946 4224 
Q 1293 3667 1075 3126 
Q 858 2586 858 1632 
Q 858 685 1082 96 
Q 1306 -493 1946 -1030 
z
" transform="scale(0.015625)"/>
       <path id="STIXGeneral-Regular-302" d="M -480 3245 
L -698 3245 
L -1478 3904 
L -2253 3245 
L -2470 3245 
L -1677 4314 
L -1280 4314 
L -480 3245 
z
" transform="scale(0.015625)"/>
       <path id="STIXGeneral-Italic-3bc" d="M 3002 749 
L 3091 691 
Q 2797 237 2614 83 
Q 2432 -70 2214 -70 
Q 2080 -70 1990 6 
Q 1901 83 1901 218 
Q 1901 416 1997 704 
L 2208 1370 
L 2202 1370 
Q 1766 595 1475 268 
Q 1184 -58 902 -58 
Q 723 -58 672 122 
Q 614 -109 547 -374 
Q 480 -640 451 -758 
Q 422 -877 384 -1005 
Q 346 -1133 314 -1197 
Q 282 -1261 243 -1312 
L -211 -1312 
Q -58 -1088 70 -595 
L 909 2739 
L 1389 2739 
L 909 832 
Q 883 717 883 659 
Q 883 352 1139 352 
Q 1395 352 1811 969 
Q 2227 1587 2323 1958 
L 2534 2739 
L 3027 2739 
L 2522 819 
Q 2400 333 2400 326 
Q 2400 230 2470 230 
Q 2547 230 2652 329 
Q 2758 429 3002 749 
z
" transform="scale(0.015625)"/>
       <path id="STIXGeneral-Regular-3d" d="M 4077 2048 
L 307 2048 
L 307 2470 
L 4077 2470 
L 4077 2048 
z
M 4077 768 
L 307 768 
L 307 1190 
L 4077 1190 
L 4077 768 
z
" transform="scale(0.015625)"/>
       <path id="STIXGeneral-Regular-39" d="M 378 -141 
L 358 -13 
Q 1094 115 1603 608 
Q 2112 1101 2304 1882 
Q 1933 1517 1344 1517 
Q 826 1517 509 1875 
Q 192 2234 192 2816 
Q 192 3462 573 3894 
Q 954 4326 1523 4326 
Q 2131 4326 2528 3840 
Q 2938 3328 2938 2522 
Q 2938 1958 2742 1462 
Q 2547 966 2170 621 
Q 1773 262 1395 105 
Q 1018 -51 378 -141 
z
M 2317 2272 
L 2317 2522 
Q 2317 4147 1472 4147 
Q 1171 4147 1005 3930 
Q 909 3802 845 3546 
Q 781 3290 781 3034 
Q 781 2464 995 2128 
Q 1210 1792 1568 1792 
Q 1824 1792 2070 1917 
Q 2317 2042 2317 2272 
z
" transform="scale(0.015625)"/>
       <path id="STIXGeneral-Italic-3c3" d="M 3398 2739 
L 3283 2266 
L 2195 2266 
Q 2291 2112 2457 1981 
Q 2624 1850 2717 1725 
Q 2810 1600 2810 1389 
Q 2810 851 2288 390 
Q 1766 -70 1107 -70 
Q 659 -70 416 170 
Q 173 410 173 832 
Q 173 1274 409 1706 
Q 646 2138 1113 2438 
Q 1581 2739 2157 2739 
L 3398 2739 
z
M 2272 1414 
Q 2272 1709 2166 1939 
Q 2061 2170 1901 2266 
Q 1530 2266 1120 1770 
Q 710 1274 710 640 
Q 710 358 844 211 
Q 979 64 1210 64 
Q 1638 64 1955 525 
Q 2272 986 2272 1414 
z
" transform="scale(0.015625)"/>
       <path id="STIXGeneral-Regular-29" d="M 186 4224 
L 262 4326 
Q 992 3891 1408 3148 
Q 1824 2406 1824 1581 
Q 1824 -166 243 -1133 
L 186 -1030 
Q 845 -486 1059 54 
Q 1274 595 1274 1562 
Q 1274 2534 1059 3120 
Q 845 3706 186 4224 
z
" transform="scale(0.015625)"/>
      </defs>
      <use xlink:href="#STIXGeneral-Regular-45"/>
      <use xlink:href="#STIXGeneral-Regular-73" transform="translate(61.099991 0)"/>
      <use xlink:href="#STIXGeneral-Regular-74" transform="translate(99.999985 0)"/>
      <use xlink:href="#STIXGeneral-Regular-2e" transform="translate(127.799973 0)"/>
      <use xlink:href="#STIXGeneral-Regular-20" transform="translate(152.799957 0)"/>
      <use xlink:href="#STIXGeneral-Regular-6e" transform="translate(177.799942 0)"/>
      <use xlink:href="#STIXGeneral-Regular-6f" transform="translate(227.799927 0)"/>
      <use xlink:href="#STIXGeneral-Regular-72" transform="translate(277.799911 0)"/>
      <use xlink:href="#STIXGeneral-Regular-6d" transform="translate(311.099899 0)"/>
      <use xlink:href="#STIXGeneral-Regular-61" transform="translate(388.899887 0)"/>
      <use xlink:href="#STIXGeneral-Regular-6c" transform="translate(433.299881 0)"/>
      <use xlink:href="#STIXGeneral-Regular-20" transform="translate(461.099869 0)"/>
      <use xlink:href="#STIXGeneral-Regular-64" transform="translate(486.099854 0)"/>
      <use xlink:href="#STIXGeneral-Regular-69" transform="translate(536.099838 0)"/>
      <use xlink:href="#STIXGeneral-Regular-73" transform="translate(563.899826 0)"/>
      <use xlink:href="#STIXGeneral-Regular-74" transform="translate(602.79982 0)"/>
      <use xlink:href="#STIXGeneral-Regular-2e" transform="translate(630.599808 0)"/>
      <use xlink:href="#STIXGeneral-Regular-20" transform="translate(655.599792 0)"/>
      <use xlink:href="#STIXGeneral-Regular-28" transform="translate(680.599777 0)"/>
      <use xlink:href="#STIXGeneral-Regular-302" transform="translate(769.643513 4.59375)"/>
      <use xlink:href="#STIXGeneral-Italic-3bc" transform="translate(713.899765 0)"/>
      <use xlink:href="#STIXGeneral-Regular-3d" transform="translate(780.939752 0)"/>
      <use xlink:href="#STIXGeneral-Regular-31" transform="translate(863.879733 0)"/>
      <use xlink:href="#STIXGeneral-Regular-2e" transform="translate(913.879718 0)"/>
      <use xlink:href="#STIXGeneral-Regular-39" transform="translate(938.879703 0)"/>
      <use xlink:href="#STIXGeneral-Regular-39" transform="translate(988.879688 0)"/>
      <use xlink:href="#STIXGeneral-Regular-20" transform="translate(1038.879672 0)"/>
      <use xlink:href="#STIXGeneral-Regular-61" transform="translate(1063.879657 0)"/>
      <use xlink:href="#STIXGeneral-Regular-6e" transform="translate(1108.279651 0)"/>
      <use xlink:href="#STIXGeneral-Regular-64" transform="translate(1158.279636 0)"/>
      <use xlink:href="#STIXGeneral-Regular-20" transform="translate(1208.27962 0)"/>
      <use xlink:href="#STIXGeneral-Regular-302" transform="translate(1287.323352 4.59375)"/>
      <use xlink:href="#STIXGeneral-Italic-3c3" transform="translate(1233.279605 0)"/>
      <use xlink:href="#STIXGeneral-Regular-3d" transform="translate(1297.519589 0)"/>
      <use xlink:href="#STIXGeneral-Regular-31" transform="translate(1380.45957 0)"/>
      <use xlink:href="#STIXGeneral-Regular-2e" transform="translate(1430.459555 0)"/>
      <use xlink:href="#STIXGeneral-Regular-35" transform="translate(1455.45954 0)"/>
      <use xlink:href="#STIXGeneral-Regular-34" transform="translate(1505.459525 0)"/>
      <use xlink:href="#STIXGeneral-Regular-20" transform="translate(1555.459509 0)"/>
      <use xlink:href="#STIXGeneral-Regular-29" transform="translate(1580.459494 0)"/>
     </g>
    </g>
    <g id="patch_65">
     <path d="M 42.2 38.597812 
L 62.2 38.597812 
L 62.2 31.597812 
L 42.2 31.597812 
z
" style="fill: #bc80bd; opacity: 0.4; stroke: #000000; stroke-width: 0.8; stroke-linejoin: miter"/>
    </g>
    <g id="text_18">
     <!-- Histogram -->
     <g style="fill: #323034" transform="translate(70.2 38.597812)scale(0.1 -0.1)">
      <defs>
       <path id="STIXGeneral-Regular-48" d="M 4499 0 
L 2714 0 
L 2714 122 
Q 3085 147 3181 265 
Q 3277 384 3277 794 
L 3277 2016 
L 1338 2016 
L 1338 723 
Q 1338 371 1440 256 
Q 1542 141 1894 122 
L 1901 0 
L 115 0 
L 115 122 
Q 493 147 589 259 
Q 685 371 685 781 
L 685 3507 
Q 685 3878 585 3980 
Q 486 4083 115 4115 
L 115 4237 
L 1907 4237 
L 1907 4115 
Q 1549 4083 1443 3977 
Q 1338 3872 1338 3507 
L 1338 2298 
L 3277 2298 
L 3277 3507 
Q 3277 3878 3177 3980 
Q 3078 4083 2707 4115 
L 2707 4237 
L 4499 4237 
L 4499 4115 
Q 4141 4083 4035 3977 
Q 3930 3872 3930 3507 
L 3930 710 
Q 3930 371 4035 259 
Q 4141 147 4499 122 
L 4499 0 
z
" transform="scale(0.015625)"/>
       <path id="STIXGeneral-Regular-67" d="M 3008 2483 
L 2477 2483 
Q 2598 2208 2598 1946 
Q 2598 1453 2265 1203 
Q 1933 954 1600 954 
Q 1530 954 1357 973 
L 1235 986 
Q 1107 947 979 812 
Q 851 678 851 582 
Q 851 435 1350 410 
L 2176 371 
Q 2528 358 2739 172 
Q 2950 -13 2950 -314 
Q 2950 -685 2566 -986 
Q 2035 -1395 1286 -1395 
Q 826 -1395 502 -1212 
Q 179 -1030 179 -774 
Q 179 -595 320 -419 
Q 461 -243 806 6 
Q 602 102 534 172 
Q 467 243 467 346 
Q 467 531 762 787 
Q 909 915 1037 1043 
Q 717 1203 579 1401 
Q 442 1600 442 1901 
Q 442 2336 752 2640 
Q 1062 2944 1510 2944 
Q 1766 2944 2022 2848 
L 2163 2797 
Q 2349 2733 2515 2733 
L 3008 2733 
L 3008 2483 
z
M 973 2163 
L 973 2144 
Q 973 1683 1155 1398 
Q 1338 1114 1632 1114 
Q 1850 1114 1978 1270 
Q 2106 1427 2106 1690 
Q 2106 2112 1914 2464 
Q 1754 2765 1446 2765 
Q 1222 2765 1097 2605 
Q 973 2445 973 2163 
z
M 2771 -410 
Q 2771 -230 2595 -163 
Q 2419 -96 1978 -96 
Q 1344 -96 941 -13 
Q 749 -243 688 -348 
Q 627 -454 627 -563 
Q 627 -774 880 -902 
Q 1133 -1030 1555 -1030 
Q 2099 -1030 2435 -860 
Q 2771 -691 2771 -410 
z
" transform="scale(0.015625)"/>
      </defs>
      <use xlink:href="#STIXGeneral-Regular-48"/>
      <use xlink:href="#STIXGeneral-Regular-69" x="72.199982"/>
      <use xlink:href="#STIXGeneral-Regular-73" x="99.999969"/>
      <use xlink:href="#STIXGeneral-Regular-74" x="138.899963"/>
      <use xlink:href="#STIXGeneral-Regular-6f" x="166.699951"/>
      <use xlink:href="#STIXGeneral-Regular-67" x="216.699936"/>
      <use xlink:href="#STIXGeneral-Regular-72" x="266.699921"/>
      <use xlink:href="#STIXGeneral-Regular-61" x="299.999908"/>
      <use xlink:href="#STIXGeneral-Regular-6d" x="344.399902"/>
     </g>
    </g>
   </g>
  </g>
 </g>
 <defs>
  <clipPath id="pfcb24903fa">
   <rect x="35.2" y="11.297812" width="357.12" height="266.112"/>
  </clipPath>
 </defs>
</svg>
