<?xml version="1.0" encoding="utf-8" standalone="no"?>
<!DOCTYPE svg PUBLIC "-//W3C//DTD SVG 1.1//EN"
  "http://www.w3.org/Graphics/SVG/1.1/DTD/svg11.dtd">
<svg height="263.44pt" version="1.1" viewBox="0 0 388 263.44" width="388pt" xmlns="http://www.w3.org/2000/svg" xmlns:xlink="http://www.w3.org/1999/xlink">
 <metadata>
  <rdf:RDF xmlns:cc="http://creativecommons.org/ns#" xmlns:dc="http://purl.org/dc/elements/1.1/" xmlns:rdf="http://www.w3.org/1999/02/22-rdf-syntax-ns#">
   <cc:Work>
    <dc:type rdf:resource="http://purl.org/dc/dcmitype/StillImage"/>
    <dc:date>2022-08-20T18:05:36.740503</dc:date>
    <dc:format>image/svg+xml</dc:format>
    <dc:creator>
     <cc:Agent>
      <dc:title>Matplotlib v3.4.3, https://matplotlib.org/</dc:title>
     </cc:Agent>
    </dc:creator>
   </cc:Work>
  </rdf:RDF>
 </metadata>
 <defs>
  <style type="text/css">*{stroke-linecap:butt;stroke-linejoin:round;}</style>
 </defs>
 <g id="figure_1">
  <g id="patch_1">
   <path d="M 0 263.44 
L 388 263.44 
L 388 0 
L 0 0 
z
" style="fill:none;"/>
  </g>
  <g id="axes_1">
   <g id="patch_2">
    <path d="M 43 224.64 
L 377.8 224.64 
L 377.8 7.2 
L 43 7.2 
z
" style="fill:#ffffff;"/>
   </g>
   <g id="PolyCollection_1">
    <defs>
     <path d="M 128.880561 -62.457316 
L 128.880561 -38.8 
L 129.551503 -38.8 
L 130.222445 -38.8 
L 130.893387 -38.8 
L 131.564329 -38.8 
L 132.235271 -38.8 
L 132.906212 -38.8 
L 133.577154 -38.8 
L 134.248096 -38.8 
L 134.919038 -38.8 
L 135.58998 -38.8 
L 136.260922 -38.8 
L 136.931864 -38.8 
L 137.602806 -38.8 
L 138.273747 -38.8 
L 138.944689 -38.8 
L 139.615631 -38.8 
L 140.286573 -38.8 
L 140.957515 -38.8 
L 141.628457 -38.8 
L 142.299399 -38.8 
L 142.970341 -38.8 
L 143.641283 -38.8 
L 144.312224 -38.8 
L 144.983166 -38.8 
L 145.654108 -38.8 
L 146.32505 -38.8 
L 146.995992 -38.8 
L 147.666934 -38.8 
L 148.337876 -38.8 
L 149.008818 -38.8 
L 149.67976 -38.8 
L 150.350701 -38.8 
L 151.021643 -38.8 
L 151.692585 -38.8 
L 152.363527 -38.8 
L 153.034469 -38.8 
L 153.705411 -38.8 
L 154.376353 -38.8 
L 155.047295 -38.8 
L 155.718236 -38.8 
L 156.389178 -38.8 
L 157.06012 -38.8 
L 157.731062 -38.8 
L 158.402004 -38.8 
L 159.072946 -38.8 
L 159.743888 -38.8 
L 160.41483 -38.8 
L 161.085772 -38.8 
L 161.756713 -38.8 
L 162.427655 -38.8 
L 163.098597 -38.8 
L 163.769539 -38.8 
L 164.440481 -38.8 
L 165.111423 -38.8 
L 165.782365 -38.8 
L 166.453307 -38.8 
L 167.124248 -38.8 
L 167.79519 -38.8 
L 168.466132 -38.8 
L 169.137074 -38.8 
L 169.808016 -38.8 
L 170.478958 -38.8 
L 171.1499 -38.8 
L 171.820842 -38.8 
L 172.491784 -38.8 
L 173.162725 -38.8 
L 173.833667 -38.8 
L 174.504609 -38.8 
L 175.175551 -38.8 
L 175.846493 -38.8 
L 176.517435 -38.8 
L 177.188377 -38.8 
L 177.859319 -38.8 
L 178.530261 -38.8 
L 179.201202 -38.8 
L 179.872144 -38.8 
L 180.543086 -38.8 
L 181.214028 -38.8 
L 181.88497 -38.8 
L 182.555912 -38.8 
L 183.226854 -38.8 
L 183.897796 -38.8 
L 184.568737 -38.8 
L 185.239679 -38.8 
L 185.910621 -38.8 
L 186.581563 -38.8 
L 187.252505 -38.8 
L 187.923447 -38.8 
L 188.594389 -38.8 
L 189.265331 -38.8 
L 189.936273 -38.8 
L 190.607214 -38.8 
L 191.278156 -38.8 
L 191.949098 -38.8 
L 192.62004 -38.8 
L 193.290982 -38.8 
L 193.961924 -38.8 
L 194.632866 -38.8 
L 195.303808 -38.8 
L 195.974749 -38.8 
L 196.645691 -38.8 
L 197.316633 -38.8 
L 197.987575 -38.8 
L 198.658517 -38.8 
L 199.329459 -38.8 
L 200.000401 -38.8 
L 200.671343 -38.8 
L 201.342285 -38.8 
L 202.013226 -38.8 
L 202.684168 -38.8 
L 203.35511 -38.8 
L 204.026052 -38.8 
L 204.696994 -38.8 
L 205.367936 -38.8 
L 206.038878 -38.8 
L 206.70982 -38.8 
L 207.380762 -38.8 
L 208.051703 -38.8 
L 208.722645 -38.8 
L 209.393587 -38.8 
L 210.064529 -38.8 
L 210.735471 -38.8 
L 211.406413 -38.8 
L 212.077355 -38.8 
L 212.748297 -38.8 
L 213.419238 -38.8 
L 214.09018 -38.8 
L 214.761122 -38.8 
L 215.432064 -38.8 
L 216.103006 -38.8 
L 216.773948 -38.8 
L 217.44489 -38.8 
L 218.115832 -38.8 
L 218.786774 -38.8 
L 219.457715 -38.8 
L 220.128657 -38.8 
L 220.799599 -38.8 
L 221.470541 -38.8 
L 222.141483 -38.8 
L 222.812425 -38.8 
L 223.483367 -38.8 
L 224.154309 -38.8 
L 224.825251 -38.8 
L 225.496192 -38.8 
L 226.167134 -38.8 
L 226.838076 -38.8 
L 227.509018 -38.8 
L 228.17996 -38.8 
L 228.850902 -38.8 
L 229.521844 -38.8 
L 230.192786 -38.8 
L 230.863727 -38.8 
L 231.534669 -38.8 
L 232.205611 -38.8 
L 232.876553 -38.8 
L 233.547495 -38.8 
L 234.218437 -38.8 
L 234.889379 -38.8 
L 235.560321 -38.8 
L 236.231263 -38.8 
L 236.902204 -38.8 
L 237.573146 -38.8 
L 238.244088 -38.8 
L 238.91503 -38.8 
L 239.585972 -38.8 
L 240.256914 -38.8 
L 240.927856 -38.8 
L 241.598798 -38.8 
L 242.269739 -38.8 
L 242.940681 -38.8 
L 243.611623 -38.8 
L 244.282565 -38.8 
L 244.953507 -38.8 
L 245.624449 -38.8 
L 246.295391 -38.8 
L 246.966333 -38.8 
L 247.637275 -38.8 
L 248.308216 -38.8 
L 248.979158 -38.8 
L 249.6501 -38.8 
L 250.321042 -38.8 
L 250.991984 -38.8 
L 251.662926 -38.8 
L 252.333868 -38.8 
L 253.00481 -38.8 
L 253.675752 -38.8 
L 254.346693 -38.8 
L 255.017635 -38.8 
L 255.688577 -38.8 
L 256.359519 -38.8 
L 257.030461 -38.8 
L 257.701403 -38.8 
L 258.372345 -38.8 
L 259.043287 -38.8 
L 259.714228 -38.8 
L 260.38517 -38.8 
L 261.056112 -38.8 
L 261.727054 -38.8 
L 262.397996 -38.8 
L 263.068938 -38.8 
L 263.73988 -38.8 
L 264.410822 -38.8 
L 265.081764 -38.8 
L 265.752705 -38.8 
L 266.423647 -38.8 
L 267.094589 -38.8 
L 267.765531 -38.8 
L 268.436473 -38.8 
L 269.107415 -38.8 
L 269.778357 -38.8 
L 270.449299 -38.8 
L 271.12024 -38.8 
L 271.791182 -38.8 
L 272.462124 -38.8 
L 273.133066 -38.8 
L 273.804008 -38.8 
L 274.47495 -38.8 
L 275.145892 -38.8 
L 275.816834 -38.8 
L 276.487776 -38.8 
L 277.158717 -38.8 
L 277.829659 -38.8 
L 278.500601 -38.8 
L 279.171543 -38.8 
L 279.842485 -38.8 
L 280.513427 -38.8 
L 281.184369 -38.8 
L 281.855311 -38.8 
L 282.526253 -38.8 
L 283.197194 -38.8 
L 283.868136 -38.8 
L 284.539078 -38.8 
L 285.21002 -38.8 
L 285.880962 -38.8 
L 286.551904 -38.8 
L 287.222846 -38.8 
L 287.893788 -38.8 
L 288.564729 -38.8 
L 289.235671 -38.8 
L 289.906613 -38.8 
L 290.577555 -38.8 
L 291.248497 -38.8 
L 291.919439 -38.8 
L 291.919439 -62.457316 
L 291.919439 -62.457316 
L 291.248497 -63.204626 
L 290.577555 -63.969072 
L 289.906613 -64.750793 
L 289.235671 -65.549917 
L 288.564729 -66.366562 
L 287.893788 -67.200838 
L 287.222846 -68.052843 
L 286.551904 -68.922665 
L 285.880962 -69.810378 
L 285.21002 -70.716048 
L 284.539078 -71.639727 
L 283.868136 -72.581454 
L 283.197194 -73.541255 
L 282.526253 -74.519145 
L 281.855311 -75.515122 
L 281.184369 -76.529172 
L 280.513427 -77.561265 
L 279.842485 -78.611358 
L 279.171543 -79.679391 
L 278.500601 -80.765288 
L 277.829659 -81.868959 
L 277.158717 -82.990297 
L 276.487776 -84.129178 
L 275.816834 -85.28546 
L 275.145892 -86.458986 
L 274.47495 -87.649581 
L 273.804008 -88.857051 
L 273.133066 -90.081185 
L 272.462124 -91.321754 
L 271.791182 -92.578509 
L 271.12024 -93.851185 
L 270.449299 -95.139497 
L 269.778357 -96.44314 
L 269.107415 -97.761791 
L 268.436473 -99.095109 
L 267.765531 -100.442731 
L 267.094589 -101.804277 
L 266.423647 -103.179347 
L 265.752705 -104.567522 
L 265.081764 -105.968364 
L 264.410822 -107.381413 
L 263.73988 -108.806193 
L 263.068938 -110.242209 
L 262.397996 -111.688944 
L 261.727054 -113.145865 
L 261.056112 -114.612418 
L 260.38517 -116.088034 
L 259.714228 -117.572121 
L 259.043287 -119.064074 
L 258.372345 -120.563266 
L 257.701403 -122.069055 
L 257.030461 -123.580782 
L 256.359519 -125.09777 
L 255.688577 -126.619327 
L 255.017635 -128.144744 
L 254.346693 -129.673298 
L 253.675752 -131.204249 
L 253.00481 -132.736845 
L 252.333868 -134.270319 
L 251.662926 -135.80389 
L 250.991984 -137.336766 
L 250.321042 -138.86814 
L 249.6501 -140.397198 
L 248.979158 -141.923111 
L 248.308216 -143.445042 
L 247.637275 -144.962144 
L 246.966333 -146.473562 
L 246.295391 -147.978432 
L 245.624449 -149.475885 
L 244.953507 -150.965043 
L 244.282565 -152.445024 
L 243.611623 -153.914941 
L 242.940681 -155.373904 
L 242.269739 -156.82102 
L 241.598798 -158.255392 
L 240.927856 -159.676125 
L 240.256914 -161.082321 
L 239.585972 -162.473085 
L 238.91503 -163.847521 
L 238.244088 -165.204739 
L 237.573146 -166.54385 
L 236.902204 -167.863969 
L 236.231263 -169.16422 
L 235.560321 -170.443729 
L 234.889379 -171.701633 
L 234.218437 -172.937076 
L 233.547495 -174.14921 
L 232.876553 -175.337199 
L 232.205611 -176.500218 
L 231.534669 -177.637455 
L 230.863727 -178.748108 
L 230.192786 -179.831393 
L 229.521844 -180.886538 
L 228.850902 -181.912789 
L 228.17996 -182.909407 
L 227.509018 -183.875673 
L 226.838076 -184.810884 
L 226.167134 -185.714358 
L 225.496192 -186.585432 
L 224.825251 -187.423466 
L 224.154309 -188.22784 
L 223.483367 -188.997958 
L 222.812425 -189.733246 
L 222.141483 -190.433154 
L 221.470541 -191.097159 
L 220.799599 -191.724761 
L 220.128657 -192.315486 
L 219.457715 -192.868888 
L 218.786774 -193.384547 
L 218.115832 -193.862072 
L 217.44489 -194.301099 
L 216.773948 -194.701293 
L 216.103006 -195.062348 
L 215.432064 -195.383988 
L 214.761122 -195.665966 
L 214.09018 -195.908065 
L 213.419238 -196.1101 
L 212.748297 -196.271915 
L 212.077355 -196.393386 
L 211.406413 -196.474418 
L 210.735471 -196.51495 
L 210.064529 -196.51495 
L 209.393587 -196.474418 
L 208.722645 -196.393386 
L 208.051703 -196.271915 
L 207.380762 -196.1101 
L 206.70982 -195.908065 
L 206.038878 -195.665966 
L 205.367936 -195.383988 
L 204.696994 -195.062348 
L 204.026052 -194.701293 
L 203.35511 -194.301099 
L 202.684168 -193.862072 
L 202.013226 -193.384547 
L 201.342285 -192.868888 
L 200.671343 -192.315486 
L 200.000401 -191.724761 
L 199.329459 -191.097159 
L 198.658517 -190.433154 
L 197.987575 -189.733246 
L 197.316633 -188.997958 
L 196.645691 -188.22784 
L 195.974749 -187.423466 
L 195.303808 -186.585432 
L 194.632866 -185.714358 
L 193.961924 -184.810884 
L 193.290982 -183.875673 
L 192.62004 -182.909407 
L 191.949098 -181.912789 
L 191.278156 -180.886538 
L 190.607214 -179.831393 
L 189.936273 -178.748108 
L 189.265331 -177.637455 
L 188.594389 -176.500218 
L 187.923447 -175.337199 
L 187.252505 -174.14921 
L 186.581563 -172.937076 
L 185.910621 -171.701633 
L 185.239679 -170.443729 
L 184.568737 -169.16422 
L 183.897796 -167.863969 
L 183.226854 -166.54385 
L 182.555912 -165.204739 
L 181.88497 -163.847521 
L 181.214028 -162.473085 
L 180.543086 -161.082321 
L 179.872144 -159.676125 
L 179.201202 -158.255392 
L 178.530261 -156.82102 
L 177.859319 -155.373904 
L 177.188377 -153.914941 
L 176.517435 -152.445024 
L 175.846493 -150.965043 
L 175.175551 -149.475885 
L 174.504609 -147.978432 
L 173.833667 -146.473562 
L 173.162725 -144.962144 
L 172.491784 -143.445042 
L 171.820842 -141.923111 
L 171.1499 -140.397198 
L 170.478958 -138.86814 
L 169.808016 -137.336766 
L 169.137074 -135.80389 
L 168.466132 -134.270319 
L 167.79519 -132.736845 
L 167.124248 -131.204249 
L 166.453307 -129.673298 
L 165.782365 -128.144744 
L 165.111423 -126.619327 
L 164.440481 -125.09777 
L 163.769539 -123.580782 
L 163.098597 -122.069055 
L 162.427655 -120.563266 
L 161.756713 -119.064074 
L 161.085772 -117.572121 
L 160.41483 -116.088034 
L 159.743888 -114.612418 
L 159.072946 -113.145865 
L 158.402004 -111.688944 
L 157.731062 -110.242209 
L 157.06012 -108.806193 
L 156.389178 -107.381413 
L 155.718236 -105.968364 
L 155.047295 -104.567522 
L 154.376353 -103.179347 
L 153.705411 -101.804277 
L 153.034469 -100.442731 
L 152.363527 -99.095109 
L 151.692585 -97.761791 
L 151.021643 -96.44314 
L 150.350701 -95.139497 
L 149.67976 -93.851185 
L 149.008818 -92.578509 
L 148.337876 -91.321754 
L 147.666934 -90.081185 
L 146.995992 -88.857051 
L 146.32505 -87.649581 
L 145.654108 -86.458986 
L 144.983166 -85.28546 
L 144.312224 -84.129178 
L 143.641283 -82.990297 
L 142.970341 -81.868959 
L 142.299399 -80.765288 
L 141.628457 -79.679391 
L 140.957515 -78.611358 
L 140.286573 -77.561265 
L 139.615631 -76.529172 
L 138.944689 -75.515122 
L 138.273747 -74.519145 
L 137.602806 -73.541255 
L 136.931864 -72.581454 
L 136.260922 -71.639727 
L 135.58998 -70.716048 
L 134.919038 -69.810378 
L 134.248096 -68.922665 
L 133.577154 -68.052843 
L 132.906212 -67.200838 
L 132.235271 -66.366562 
L 131.564329 -65.549917 
L 130.893387 -64.750793 
L 130.222445 -63.969072 
L 129.551503 -63.204626 
L 128.880561 -62.457316 
z
" id="m9595b9f31d" style="stroke:#000000;stroke-opacity:0.2;stroke-width:0.8;"/>
    </defs>
    <g clip-path="url(#pfbe0bd79c0)">
     <use style="fill:#bc80bd;fill-opacity:0.2;stroke:#000000;stroke-opacity:0.2;stroke-width:0.8;" x="0" xlink:href="#m9595b9f31d" y="263.44"/>
    </g>
   </g>
   <g id="matplotlib.axis_1">
    <g id="xtick_1">
     <g id="line2d_1">
      <defs>
       <path d="M 0 0 
L 0 3.5 
" id="m3c979d3ccb" style="stroke:#323034;stroke-width:0.8;"/>
      </defs>
      <g>
       <use style="fill:#323034;stroke:#323034;stroke-width:0.8;" x="43" xlink:href="#m3c979d3ccb" y="224.64"/>
      </g>
     </g>
     <g id="text_1">
      <!-- $\mathdefault{−4}$ -->
      <g style="fill:#323034;" transform="translate(35.86 239.835625)scale(0.12 -0.12)">
       <defs>
        <path d="M 3974 1408 
L 410 1408 
L 410 1830 
L 3974 1830 
L 3974 1408 
z
" id="STIXGeneral-Regular-2212" transform="scale(0.015625)"/>
        <path d="M 3027 1069 
L 2368 1069 
L 2368 0 
L 1869 0 
L 1869 1069 
L 77 1069 
L 77 1478 
L 2086 4326 
L 2368 4326 
L 2368 1478 
L 3027 1478 
L 3027 1069 
z
M 1869 1478 
L 1869 3674 
L 333 1478 
L 1869 1478 
z
" id="STIXGeneral-Regular-34" transform="scale(0.015625)"/>
       </defs>
       <use transform="translate(0 0.40625)" xlink:href="#STIXGeneral-Regular-2212"/>
       <use transform="translate(68.499985 0.40625)" xlink:href="#STIXGeneral-Regular-34"/>
      </g>
     </g>
    </g>
    <g id="xtick_2">
     <g id="line2d_2">
      <g>
       <use style="fill:#323034;stroke:#323034;stroke-width:0.8;" x="84.85" xlink:href="#m3c979d3ccb" y="224.64"/>
      </g>
     </g>
     <g id="text_2">
      <!-- $\mathdefault{−3}$ -->
      <g style="fill:#323034;" transform="translate(77.71 239.835625)scale(0.12 -0.12)">
       <defs>
        <path d="M 390 3264 
L 288 3290 
Q 435 3770 748 4048 
Q 1062 4326 1542 4326 
Q 1990 4326 2265 4083 
Q 2541 3840 2541 3450 
Q 2541 2925 1946 2566 
Q 2298 2413 2477 2227 
Q 2758 1914 2758 1402 
Q 2758 890 2464 506 
Q 2246 211 1840 60 
Q 1434 -90 979 -90 
Q 262 -90 262 275 
Q 262 378 339 442 
Q 416 506 525 506 
Q 685 506 915 339 
Q 1197 141 1466 141 
Q 1818 141 2058 425 
Q 2298 710 2298 1120 
Q 2298 1856 1632 2048 
Q 1434 2112 979 2112 
L 979 2202 
Q 1338 2323 1517 2432 
Q 2035 2726 2035 3290 
Q 2035 3610 1852 3776 
Q 1670 3942 1344 3942 
Q 768 3942 390 3264 
z
" id="STIXGeneral-Regular-33" transform="scale(0.015625)"/>
       </defs>
       <use transform="translate(0 0.40625)" xlink:href="#STIXGeneral-Regular-2212"/>
       <use transform="translate(68.499985 0.40625)" xlink:href="#STIXGeneral-Regular-33"/>
      </g>
     </g>
    </g>
    <g id="xtick_3">
     <g id="line2d_3">
      <g>
       <use style="fill:#323034;stroke:#323034;stroke-width:0.8;" x="126.7" xlink:href="#m3c979d3ccb" y="224.64"/>
      </g>
     </g>
     <g id="text_3">
      <!-- $\mathdefault{−2}$ -->
      <g style="fill:#323034;" transform="translate(119.56 239.835625)scale(0.12 -0.12)">
       <defs>
        <path d="M 3034 877 
L 2688 0 
L 186 0 
L 186 77 
L 1325 1286 
Q 1773 1754 1965 2144 
Q 2157 2534 2157 2950 
Q 2157 3379 1920 3616 
Q 1683 3853 1267 3853 
Q 922 3853 720 3673 
Q 518 3494 326 3021 
L 192 3053 
Q 301 3648 630 3987 
Q 960 4326 1523 4326 
Q 2054 4326 2380 4006 
Q 2707 3686 2707 3200 
Q 2707 2477 1888 1613 
L 832 486 
L 2330 486 
Q 2541 486 2665 569 
Q 2790 653 2944 915 
L 3034 877 
z
" id="STIXGeneral-Regular-32" transform="scale(0.015625)"/>
       </defs>
       <use transform="translate(0 0.40625)" xlink:href="#STIXGeneral-Regular-2212"/>
       <use transform="translate(68.499985 0.40625)" xlink:href="#STIXGeneral-Regular-32"/>
      </g>
     </g>
    </g>
    <g id="xtick_4">
     <g id="line2d_4">
      <g>
       <use style="fill:#323034;stroke:#323034;stroke-width:0.8;" x="168.55" xlink:href="#m3c979d3ccb" y="224.64"/>
      </g>
     </g>
     <g id="text_4">
      <!-- $\mathdefault{−1}$ -->
      <g style="fill:#323034;" transform="translate(161.41 239.835625)scale(0.12 -0.12)">
       <defs>
        <path d="M 2522 0 
L 755 0 
L 755 96 
Q 1107 115 1235 227 
Q 1363 339 1363 608 
L 1363 3482 
Q 1363 3795 1171 3795 
Q 1082 3795 883 3718 
L 710 3654 
L 710 3744 
L 1856 4326 
L 1914 4307 
L 1914 486 
Q 1914 275 2042 185 
Q 2170 96 2522 96 
L 2522 0 
z
" id="STIXGeneral-Regular-31" transform="scale(0.015625)"/>
       </defs>
       <use transform="translate(0 0.40625)" xlink:href="#STIXGeneral-Regular-2212"/>
       <use transform="translate(68.499985 0.40625)" xlink:href="#STIXGeneral-Regular-31"/>
      </g>
     </g>
    </g>
    <g id="xtick_5">
     <g id="line2d_5">
      <g>
       <use style="fill:#323034;stroke:#323034;stroke-width:0.8;" x="210.4" xlink:href="#m3c979d3ccb" y="224.64"/>
      </g>
     </g>
     <g id="text_5">
      <!-- $\mathdefault{0}$ -->
      <g style="fill:#323034;" transform="translate(207.4 239.835625)scale(0.12 -0.12)">
       <defs>
        <path d="M 3046 2112 
Q 3046 1683 2963 1302 
Q 2880 922 2717 602 
Q 2554 282 2266 96 
Q 1978 -90 1600 -90 
Q 1210 -90 915 108 
Q 621 307 461 640 
Q 301 973 227 1350 
Q 154 1728 154 2150 
Q 154 2746 301 3222 
Q 448 3699 790 4012 
Q 1133 4326 1626 4326 
Q 2253 4326 2649 3712 
Q 3046 3098 3046 2112 
z
M 2432 2080 
Q 2432 3091 2217 3625 
Q 2003 4160 1587 4160 
Q 1190 4160 979 3622 
Q 768 3085 768 2106 
Q 768 1120 979 598 
Q 1190 77 1600 77 
Q 2003 77 2217 598 
Q 2432 1120 2432 2080 
z
" id="STIXGeneral-Regular-30" transform="scale(0.015625)"/>
       </defs>
       <use transform="translate(0 0.40625)" xlink:href="#STIXGeneral-Regular-30"/>
      </g>
     </g>
    </g>
    <g id="xtick_6">
     <g id="line2d_6">
      <g>
       <use style="fill:#323034;stroke:#323034;stroke-width:0.8;" x="252.25" xlink:href="#m3c979d3ccb" y="224.64"/>
      </g>
     </g>
     <g id="text_6">
      <!-- $\mathdefault{1}$ -->
      <g style="fill:#323034;" transform="translate(249.25 239.835625)scale(0.12 -0.12)">
       <use transform="translate(0 0.40625)" xlink:href="#STIXGeneral-Regular-31"/>
      </g>
     </g>
    </g>
    <g id="xtick_7">
     <g id="line2d_7">
      <g>
       <use style="fill:#323034;stroke:#323034;stroke-width:0.8;" x="294.1" xlink:href="#m3c979d3ccb" y="224.64"/>
      </g>
     </g>
     <g id="text_7">
      <!-- $\mathdefault{2}$ -->
      <g style="fill:#323034;" transform="translate(291.1 239.835625)scale(0.12 -0.12)">
       <use transform="translate(0 0.40625)" xlink:href="#STIXGeneral-Regular-32"/>
      </g>
     </g>
    </g>
    <g id="xtick_8">
     <g id="line2d_8">
      <g>
       <use style="fill:#323034;stroke:#323034;stroke-width:0.8;" x="335.95" xlink:href="#m3c979d3ccb" y="224.64"/>
      </g>
     </g>
     <g id="text_8">
      <!-- $\mathdefault{3}$ -->
      <g style="fill:#323034;" transform="translate(332.95 239.835625)scale(0.12 -0.12)">
       <use transform="translate(0 0.40625)" xlink:href="#STIXGeneral-Regular-33"/>
      </g>
     </g>
    </g>
    <g id="xtick_9">
     <g id="line2d_9">
      <g>
       <use style="fill:#323034;stroke:#323034;stroke-width:0.8;" x="377.8" xlink:href="#m3c979d3ccb" y="224.64"/>
      </g>
     </g>
     <g id="text_9">
      <!-- $\mathdefault{4}$ -->
      <g style="fill:#323034;" transform="translate(374.8 239.835625)scale(0.12 -0.12)">
       <use transform="translate(0 0.40625)" xlink:href="#STIXGeneral-Regular-34"/>
      </g>
     </g>
    </g>
    <g id="text_10">
     <!-- x -->
     <g transform="translate(207.4 253.635625)scale(0.12 -0.12)">
      <defs>
       <path d="M 3066 0 
L 1779 0 
L 1779 96 
Q 1939 109 1987 137 
Q 2035 166 2035 250 
Q 2035 307 1997 365 
L 1414 1261 
L 909 474 
Q 781 275 781 211 
Q 781 96 1037 96 
L 1037 0 
L 109 0 
L 109 96 
Q 269 109 355 169 
Q 442 230 576 422 
L 1306 1478 
L 704 2400 
Q 557 2624 454 2704 
Q 352 2784 211 2784 
L 154 2784 
L 154 2880 
L 1478 2880 
L 1478 2784 
Q 1203 2778 1203 2643 
Q 1203 2509 1498 2074 
Q 1581 1958 1587 1946 
Q 1619 1990 1779 2227 
Q 1811 2285 1856 2349 
Q 1901 2413 1923 2451 
Q 1946 2490 1971 2528 
Q 1997 2566 2006 2595 
Q 2016 2624 2016 2643 
Q 2016 2765 1760 2784 
L 1760 2880 
L 2771 2880 
L 2771 2784 
Q 2445 2771 2253 2502 
L 1722 1734 
L 2541 480 
Q 2790 96 3066 96 
L 3066 0 
z
" id="STIXGeneral-Regular-78" transform="scale(0.015625)"/>
      </defs>
      <use xlink:href="#STIXGeneral-Regular-78"/>
     </g>
    </g>
   </g>
   <g id="matplotlib.axis_2">
    <g id="ytick_1">
     <g id="line2d_10">
      <defs>
       <path d="M 0 0 
L -3.5 0 
" id="m87774c28b1" style="stroke:#323034;stroke-width:0.8;"/>
      </defs>
      <g>
       <use style="fill:#323034;stroke:#323034;stroke-width:0.8;" x="43" xlink:href="#m87774c28b1" y="224.64"/>
      </g>
     </g>
     <g id="text_11">
      <!-- $\mathdefault{0.0}$ -->
      <g style="fill:#323034;" transform="translate(21 228.737812)scale(0.12 -0.12)">
       <defs>
        <path d="M 1158 275 
Q 1158 134 1052 32 
Q 947 -70 800 -70 
Q 653 -70 550 32 
Q 448 134 448 281 
Q 448 429 553 534 
Q 659 640 806 640 
Q 947 640 1052 531 
Q 1158 422 1158 275 
z
" id="STIXGeneral-Regular-2e" transform="scale(0.015625)"/>
       </defs>
       <use transform="translate(0 0.40625)" xlink:href="#STIXGeneral-Regular-30"/>
       <use transform="translate(49.999985 0.40625)" xlink:href="#STIXGeneral-Regular-2e"/>
       <use transform="translate(74.999969 0.40625)" xlink:href="#STIXGeneral-Regular-30"/>
      </g>
     </g>
    </g>
    <g id="ytick_2">
     <g id="line2d_11">
      <g>
       <use style="fill:#323034;stroke:#323034;stroke-width:0.8;" x="43" xlink:href="#m87774c28b1" y="185.105455"/>
      </g>
     </g>
     <g id="text_12">
      <!-- $\mathdefault{0.1}$ -->
      <g style="fill:#323034;" transform="translate(21 189.203267)scale(0.12 -0.12)">
       <use transform="translate(0 0.40625)" xlink:href="#STIXGeneral-Regular-30"/>
       <use transform="translate(49.999985 0.40625)" xlink:href="#STIXGeneral-Regular-2e"/>
       <use transform="translate(74.999969 0.40625)" xlink:href="#STIXGeneral-Regular-31"/>
      </g>
     </g>
    </g>
    <g id="ytick_3">
     <g id="line2d_12">
      <g>
       <use style="fill:#323034;stroke:#323034;stroke-width:0.8;" x="43" xlink:href="#m87774c28b1" y="145.570909"/>
      </g>
     </g>
     <g id="text_13">
      <!-- $\mathdefault{0.2}$ -->
      <g style="fill:#323034;" transform="translate(21 149.668722)scale(0.12 -0.12)">
       <use transform="translate(0 0.40625)" xlink:href="#STIXGeneral-Regular-30"/>
       <use transform="translate(49.999985 0.40625)" xlink:href="#STIXGeneral-Regular-2e"/>
       <use transform="translate(74.999969 0.40625)" xlink:href="#STIXGeneral-Regular-32"/>
      </g>
     </g>
    </g>
    <g id="ytick_4">
     <g id="line2d_13">
      <g>
       <use style="fill:#323034;stroke:#323034;stroke-width:0.8;" x="43" xlink:href="#m87774c28b1" y="106.036364"/>
      </g>
     </g>
     <g id="text_14">
      <!-- $\mathdefault{0.3}$ -->
      <g style="fill:#323034;" transform="translate(21 110.134176)scale(0.12 -0.12)">
       <use transform="translate(0 0.40625)" xlink:href="#STIXGeneral-Regular-30"/>
       <use transform="translate(49.999985 0.40625)" xlink:href="#STIXGeneral-Regular-2e"/>
       <use transform="translate(74.999969 0.40625)" xlink:href="#STIXGeneral-Regular-33"/>
      </g>
     </g>
    </g>
    <g id="ytick_5">
     <g id="line2d_14">
      <g>
       <use style="fill:#323034;stroke:#323034;stroke-width:0.8;" x="43" xlink:href="#m87774c28b1" y="66.501818"/>
      </g>
     </g>
     <g id="text_15">
      <!-- $\mathdefault{0.4}$ -->
      <g style="fill:#323034;" transform="translate(21 70.599631)scale(0.12 -0.12)">
       <use transform="translate(0 0.40625)" xlink:href="#STIXGeneral-Regular-30"/>
       <use transform="translate(49.999985 0.40625)" xlink:href="#STIXGeneral-Regular-2e"/>
       <use transform="translate(74.999969 0.40625)" xlink:href="#STIXGeneral-Regular-34"/>
      </g>
     </g>
    </g>
    <g id="ytick_6">
     <g id="line2d_15">
      <g>
       <use style="fill:#323034;stroke:#323034;stroke-width:0.8;" x="43" xlink:href="#m87774c28b1" y="26.967273"/>
      </g>
     </g>
     <g id="text_16">
      <!-- $\mathdefault{0.5}$ -->
      <g style="fill:#323034;" transform="translate(21 31.065085)scale(0.12 -0.12)">
       <defs>
        <path d="M 2803 4358 
L 2573 3814 
Q 2534 3731 2400 3731 
L 1158 3731 
L 902 3187 
Q 1606 3053 1920 2896 
Q 2234 2739 2502 2368 
Q 2726 2061 2726 1555 
Q 2726 1094 2576 780 
Q 2426 467 2099 224 
Q 1664 -90 1011 -90 
Q 646 -90 422 19 
Q 198 128 198 307 
Q 198 550 486 550 
Q 717 550 960 352 
Q 1210 147 1414 147 
Q 1747 147 2012 480 
Q 2278 813 2278 1229 
Q 2278 1843 1850 2189 
Q 1293 2637 486 2637 
Q 410 2637 410 2688 
L 416 2720 
L 1114 4237 
L 2438 4237 
Q 2547 4237 2608 4269 
Q 2669 4301 2746 4403 
L 2803 4358 
z
" id="STIXGeneral-Regular-35" transform="scale(0.015625)"/>
       </defs>
       <use transform="translate(0 0.203125)" xlink:href="#STIXGeneral-Regular-30"/>
       <use transform="translate(49.999985 0.203125)" xlink:href="#STIXGeneral-Regular-2e"/>
       <use transform="translate(74.999969 0.203125)" xlink:href="#STIXGeneral-Regular-35"/>
      </g>
     </g>
    </g>
    <g id="text_17">
     <!-- PDF -->
     <g transform="translate(15.395625 126.93)rotate(-90)scale(0.12 -0.12)">
      <defs>
       <path d="M 102 4237 
L 1760 4237 
Q 2669 4237 3149 3834 
Q 3469 3565 3469 3072 
Q 3469 2560 3104 2234 
Q 2835 1990 2553 1916 
Q 2272 1843 1734 1843 
Q 1549 1843 1293 1862 
L 1293 717 
Q 1293 352 1398 246 
Q 1504 141 1894 122 
L 1894 0 
L 102 0 
L 102 122 
Q 474 147 557 256 
Q 640 365 640 781 
L 640 3526 
Q 640 3885 547 3987 
Q 454 4090 102 4115 
L 102 4237 
z
M 1293 3770 
L 1293 2118 
Q 1510 2099 1683 2099 
Q 2202 2099 2486 2352 
Q 2771 2605 2771 3040 
Q 2771 3558 2476 3779 
Q 2182 4000 1517 4000 
Q 1382 4000 1337 3952 
Q 1293 3904 1293 3770 
z
" id="STIXGeneral-Regular-50" transform="scale(0.015625)"/>
       <path d="M 102 4237 
L 1830 4237 
Q 3078 4237 3750 3654 
Q 4384 3110 4384 2138 
Q 4384 966 3514 410 
Q 2880 0 1901 0 
L 102 0 
L 102 122 
Q 474 147 570 252 
Q 666 358 666 736 
L 666 3520 
Q 666 3891 570 3990 
Q 474 4090 102 4115 
L 102 4237 
z
M 1318 3731 
L 1318 538 
Q 1318 365 1379 301 
Q 1440 237 1626 237 
Q 2125 237 2432 307 
Q 2739 378 3021 570 
Q 3686 1018 3686 2099 
Q 3686 3027 3078 3558 
Q 2803 3802 2476 3901 
Q 2150 4000 1658 4000 
Q 1472 4000 1395 3942 
Q 1318 3885 1318 3731 
z
" id="STIXGeneral-Regular-44" transform="scale(0.015625)"/>
       <path d="M 3494 3322 
L 3334 3322 
Q 3264 3757 3094 3875 
Q 2925 3994 2349 3994 
L 1504 3994 
Q 1370 3994 1328 3946 
Q 1286 3898 1286 3744 
L 1286 2355 
L 2195 2355 
Q 2598 2355 2736 2470 
Q 2874 2586 2918 2963 
L 3066 2963 
L 3066 1472 
L 2918 1472 
Q 2880 1862 2745 1977 
Q 2611 2093 2195 2093 
L 1286 2093 
L 1286 717 
Q 1286 352 1392 246 
Q 1498 141 1869 122 
L 1869 0 
L 70 0 
L 70 122 
Q 435 147 534 259 
Q 634 371 634 787 
L 634 3526 
Q 634 3878 538 3984 
Q 442 4090 77 4115 
L 77 4237 
L 3462 4237 
L 3494 3322 
z
" id="STIXGeneral-Regular-46" transform="scale(0.015625)"/>
      </defs>
      <use xlink:href="#STIXGeneral-Regular-50"/>
      <use x="55.699997" xlink:href="#STIXGeneral-Regular-44"/>
      <use x="127.899979" xlink:href="#STIXGeneral-Regular-46"/>
     </g>
    </g>
   </g>
   <g id="line2d_16">
    <path clip-path="url(#pfbe0bd79c0)" d="M 43 224.587091 
L 59.773547 224.397388 
L 69.837675 224.079917 
L 77.218036 223.642897 
L 83.256513 223.078155 
L 88.624048 222.352873 
L 93.320641 221.489529 
L 97.346293 220.53571 
L 101.371944 219.342364 
L 104.726653 218.132975 
L 108.081363 216.698689 
L 111.436072 215.010332 
L 114.790782 213.037816 
L 118.145491 210.75079 
L 120.829259 208.674646 
L 123.513026 206.363479 
L 126.196794 203.803609 
L 128.880561 200.982684 
L 131.564329 197.890083 
L 134.248096 194.517335 
L 137.602806 189.898745 
L 140.957515 184.828642 
L 144.312224 179.310822 
L 147.666934 173.358815 
L 151.021643 166.99686 
L 155.047295 158.872478 
L 159.743888 148.827582 
L 165.782365 135.295256 
L 177.188377 109.525059 
L 181.214028 100.966915 
L 184.568737 94.27578 
L 187.923447 88.102801 
L 190.607214 83.608607 
L 193.290982 79.564327 
L 195.303808 76.854568 
L 197.316633 74.442042 
L 199.329459 72.342841 
L 201.342285 70.571112 
L 203.35511 69.138901 
L 205.367936 68.056012 
L 207.380762 67.3299 
L 208.722645 67.046614 
L 210.064529 66.92505 
L 211.406413 66.965582 
L 212.748297 67.168085 
L 214.09018 67.531935 
L 215.432064 68.056012 
L 217.44489 69.138901 
L 219.457715 70.571112 
L 221.470541 72.342841 
L 223.483367 74.442042 
L 225.496192 76.854568 
L 227.509018 79.564327 
L 230.192786 83.608607 
L 232.876553 88.102801 
L 235.560321 92.996271 
L 238.91503 99.592479 
L 242.940681 108.066096 
L 248.308216 119.994958 
L 262.397996 151.751056 
L 267.094589 161.635723 
L 271.12024 169.588815 
L 274.47495 175.790419 
L 277.829659 181.571041 
L 281.184369 186.910828 
L 284.539078 191.800273 
L 287.893788 196.239162 
L 291.248497 200.235374 
L 293.932265 203.123299 
L 296.616032 205.747336 
L 299.2998 208.119441 
L 301.983567 210.253 
L 305.338277 212.606539 
L 308.692986 214.639534 
L 312.047695 216.382297 
L 315.402405 217.865025 
L 318.757114 219.117122 
L 322.782766 220.354602 
L 326.808417 221.345433 
L 331.50501 222.243958 
L 336.201603 222.919238 
L 341.569138 223.479325 
L 348.278557 223.946731 
L 356.32986 224.278926 
L 367.735872 224.505497 
L 377.8 224.587091 
L 377.8 224.587091 
" style="fill:none;stroke:#bc80bd;stroke-linecap:square;stroke-width:2;"/>
   </g>
   <g id="line2d_17">
    <path clip-path="url(#pfbe0bd79c0)" d="M 182.172604 224.64 
L 182.172604 99.008476 
" style="fill:none;stroke:#000000;stroke-linecap:square;stroke-opacity:0.4;stroke-width:0.8;"/>
   </g>
   <g id="line2d_18">
    <path clip-path="url(#pfbe0bd79c0)" d="M 210.4 224.64 
L 210.4 66.919983 
" style="fill:none;stroke:#000000;stroke-linecap:square;stroke-opacity:0.4;stroke-width:0.8;"/>
   </g>
   <g id="line2d_19">
    <path clip-path="url(#pfbe0bd79c0)" d="M 238.627396 224.64 
L 238.627396 99.008476 
" style="fill:none;stroke:#000000;stroke-linecap:square;stroke-opacity:0.4;stroke-width:0.8;"/>
   </g>
   <g id="patch_3">
    <path d="M 43 224.64 
L 43 7.2 
" style="fill:none;stroke:#000000;stroke-linecap:square;stroke-linejoin:miter;stroke-width:0.6;"/>
   </g>
   <g id="patch_4">
    <path d="M 43 224.64 
L 377.8 224.64 
" style="fill:none;stroke:#000000;stroke-linecap:square;stroke-linejoin:miter;stroke-width:0.6;"/>
   </g>
   <g id="patch_5">
    <path d="M 183.229217 75.55767 
Q 182.242383 83.093892 182.181401 96.114335 
" style="fill:none;stroke:#000000;stroke-linecap:round;stroke-width:0.8;"/>
    <path d="M 184.200113 92.123746 
L 182.181401 96.114335 
L 180.200157 92.105012 
" style="fill:none;stroke:#000000;stroke-linecap:round;stroke-width:0.8;"/>
   </g>
   <g id="text_18">
    <!-- q=0.25 -->
    <g style="fill:#323034;" transform="translate(172.172604 69.008476)scale(0.1 -0.1)">
     <defs>
      <path d="M 3123 -1389 
L 1613 -1389 
L 1613 -1280 
Q 1952 -1254 2067 -1158 
Q 2182 -1062 2182 -794 
L 2182 410 
Q 1747 -64 1178 -64 
Q 730 -64 442 320 
Q 154 704 154 1312 
Q 154 2003 560 2473 
Q 966 2944 1562 2944 
Q 1920 2944 2304 2720 
L 2650 2925 
L 2720 2925 
L 2720 -902 
Q 2720 -1107 2797 -1180 
Q 2874 -1254 3123 -1280 
L 3123 -1389 
z
M 2182 813 
L 2182 2131 
Q 2182 2758 1587 2758 
Q 1178 2758 941 2432 
Q 704 2106 704 1542 
Q 704 1210 803 925 
Q 902 640 1062 499 
Q 1254 326 1542 326 
Q 1882 326 2106 531 
Q 2182 602 2182 813 
z
" id="STIXGeneral-Regular-71" transform="scale(0.015625)"/>
      <path d="M 4077 2048 
L 307 2048 
L 307 2470 
L 4077 2470 
L 4077 2048 
z
M 4077 768 
L 307 768 
L 307 1190 
L 4077 1190 
L 4077 768 
z
" id="STIXGeneral-Regular-3d" transform="scale(0.015625)"/>
     </defs>
     <use xlink:href="#STIXGeneral-Regular-71"/>
     <use x="49.999985" xlink:href="#STIXGeneral-Regular-3d"/>
     <use x="118.499969" xlink:href="#STIXGeneral-Regular-30"/>
     <use x="168.499954" xlink:href="#STIXGeneral-Regular-2e"/>
     <use x="193.499939" xlink:href="#STIXGeneral-Regular-32"/>
     <use x="243.499924" xlink:href="#STIXGeneral-Regular-35"/>
    </g>
   </g>
   <g id="patch_6">
    <path d="M 210.891037 43.478088 
Q 210.432428 51.013918 210.404089 64.02692 
" style="fill:none;stroke:#000000;stroke-linecap:round;stroke-width:0.8;"/>
    <path d="M 212.412795 60.031285 
L 210.404089 64.02692 
L 208.412805 60.022574 
" style="fill:none;stroke:#000000;stroke-linecap:round;stroke-width:0.8;"/>
   </g>
   <g id="text_19">
    <!-- q=0.5 -->
    <g style="fill:#323034;" transform="translate(200.4 36.919983)scale(0.1 -0.1)">
     <use xlink:href="#STIXGeneral-Regular-71"/>
     <use x="49.999985" xlink:href="#STIXGeneral-Regular-3d"/>
     <use x="118.499969" xlink:href="#STIXGeneral-Regular-30"/>
     <use x="168.499954" xlink:href="#STIXGeneral-Regular-2e"/>
     <use x="193.499939" xlink:href="#STIXGeneral-Regular-35"/>
    </g>
   </g>
   <g id="patch_7">
    <path d="M 239.684009 75.55767 
Q 238.697175 83.093892 238.636193 96.114335 
" style="fill:none;stroke:#000000;stroke-linecap:round;stroke-width:0.8;"/>
    <path d="M 240.654905 92.123746 
L 238.636193 96.114335 
L 236.654949 92.105012 
" style="fill:none;stroke:#000000;stroke-linecap:round;stroke-width:0.8;"/>
   </g>
   <g id="text_20">
    <!-- q=0.75 -->
    <g style="fill:#323034;" transform="translate(228.627396 69.008476)scale(0.1 -0.1)">
     <defs>
      <path d="M 2874 4134 
L 1517 -51 
L 1101 -51 
L 2368 3763 
L 992 3763 
Q 717 3763 582 3667 
Q 448 3571 243 3238 
L 128 3296 
L 512 4237 
L 2874 4237 
L 2874 4134 
z
" id="STIXGeneral-Regular-37" transform="scale(0.015625)"/>
     </defs>
     <use xlink:href="#STIXGeneral-Regular-71"/>
     <use x="49.999985" xlink:href="#STIXGeneral-Regular-3d"/>
     <use x="118.499969" xlink:href="#STIXGeneral-Regular-30"/>
     <use x="168.499954" xlink:href="#STIXGeneral-Regular-2e"/>
     <use x="193.499939" xlink:href="#STIXGeneral-Regular-37"/>
     <use x="243.499924" xlink:href="#STIXGeneral-Regular-35"/>
    </g>
   </g>
   <g id="legend_1">
    <g id="patch_8">
     <path d="M 292.279688 25.370312 
L 370.8 25.370312 
Q 372.8 25.370312 372.8 23.370312 
L 372.8 14.2 
Q 372.8 12.2 370.8 12.2 
L 292.279688 12.2 
Q 290.279688 12.2 290.279688 14.2 
L 290.279688 23.370312 
Q 290.279688 25.370312 292.279688 25.370312 
z
" style="fill:#ffffff;opacity:0.8;stroke:#e6e6e6;stroke-linejoin:miter;stroke-width:0.8;"/>
    </g>
    <g id="patch_9">
     <path d="M 292.279688 21.2 
L 312.279688 21.2 
L 312.279688 14.2 
L 292.279688 14.2 
z
" style="fill:#bc80bd;fill-opacity:0.2;stroke:#000000;stroke-linejoin:miter;stroke-opacity:0.2;stroke-width:0.8;"/>
    </g>
    <g id="text_21">
     <!-- 95% interval -->
     <g style="fill:#323034;" transform="translate(320.279688 21.2)scale(0.1 -0.1)">
      <defs>
       <path d="M 378 -141 
L 358 -13 
Q 1094 115 1603 608 
Q 2112 1101 2304 1882 
Q 1933 1517 1344 1517 
Q 826 1517 509 1875 
Q 192 2234 192 2816 
Q 192 3462 573 3894 
Q 954 4326 1523 4326 
Q 2131 4326 2528 3840 
Q 2938 3328 2938 2522 
Q 2938 1958 2742 1462 
Q 2547 966 2170 621 
Q 1773 262 1395 105 
Q 1018 -51 378 -141 
z
M 2317 2272 
L 2317 2522 
Q 2317 4147 1472 4147 
Q 1171 4147 1005 3930 
Q 909 3802 845 3546 
Q 781 3290 781 3034 
Q 781 2464 995 2128 
Q 1210 1792 1568 1792 
Q 1824 1792 2070 1917 
Q 2317 2042 2317 2272 
z
" id="STIXGeneral-Regular-39" transform="scale(0.015625)"/>
       <path d="M 4390 1363 
Q 4390 781 4070 329 
Q 3750 -122 3341 -122 
Q 3014 -122 2790 134 
Q 2566 390 2566 762 
Q 2566 1274 2940 1693 
Q 3315 2112 3776 2112 
Q 4070 2112 4230 1917 
Q 4390 1722 4390 1363 
z
M 4243 1376 
Q 4243 1626 4131 1779 
Q 4019 1933 3840 1933 
Q 3654 1933 3526 1786 
Q 3315 1562 3171 1187 
Q 3027 813 3027 486 
Q 3027 301 3129 176 
Q 3232 51 3386 51 
Q 3718 51 3980 457 
Q 4243 864 4243 1376 
z
M 3974 4518 
L 1222 -115 
L 922 -115 
L 3443 4096 
Q 3264 3891 3094 3811 
Q 2925 3731 2669 3731 
Q 2445 3731 2182 3821 
Q 2208 3674 2208 3539 
Q 2208 3206 2067 2873 
Q 1926 2541 1696 2323 
Q 1453 2086 1146 2086 
Q 826 2086 608 2339 
Q 390 2592 390 2963 
Q 390 3507 761 3916 
Q 1133 4326 1626 4326 
Q 1792 4326 2010 4147 
Q 2310 3898 2624 3898 
Q 2918 3898 3084 3994 
Q 3251 4090 3693 4518 
L 3974 4518 
z
M 2054 3642 
Q 2054 3782 2025 3833 
Q 1997 3885 1894 3936 
Q 1747 4006 1613 4154 
Q 1414 4058 1331 3984 
Q 1248 3910 1152 3750 
Q 845 3264 845 2707 
Q 845 2509 944 2384 
Q 1043 2259 1210 2259 
Q 1549 2259 1801 2675 
Q 2054 3091 2054 3642 
z
" id="STIXGeneral-Regular-25" transform="scale(0.015625)"/>
       <path id="STIXGeneral-Regular-20" transform="scale(0.015625)"/>
       <path d="M 1152 4045 
Q 1152 3904 1056 3811 
Q 960 3718 819 3718 
Q 685 3718 592 3811 
Q 499 3904 499 4045 
Q 499 4179 595 4275 
Q 691 4371 826 4371 
Q 966 4371 1059 4275 
Q 1152 4179 1152 4045 
z
M 1619 0 
L 102 0 
L 102 96 
Q 435 115 521 211 
Q 608 307 608 666 
L 608 2118 
Q 608 2342 563 2432 
Q 518 2522 397 2522 
Q 243 2522 128 2490 
L 128 2592 
L 1120 2944 
L 1146 2918 
L 1146 672 
Q 1146 314 1226 218 
Q 1306 122 1619 96 
L 1619 0 
z
" id="STIXGeneral-Regular-69" transform="scale(0.015625)"/>
       <path d="M 3104 0 
L 1773 0 
L 1779 96 
Q 2016 115 2096 233 
Q 2176 352 2176 672 
L 2176 1946 
Q 2176 2592 1709 2592 
Q 1549 2592 1408 2515 
Q 1267 2438 1050 2227 
L 1050 461 
Q 1050 269 1136 192 
Q 1222 115 1466 96 
L 1466 0 
L 115 0 
L 115 96 
Q 358 115 435 214 
Q 512 314 512 602 
L 512 2157 
Q 512 2394 467 2483 
Q 422 2573 288 2573 
Q 160 2573 102 2547 
L 102 2656 
Q 550 2784 979 2944 
L 1030 2925 
L 1030 2426 
L 1037 2426 
Q 1491 2944 1958 2944 
Q 2323 2944 2518 2688 
Q 2714 2432 2714 1958 
L 2714 544 
Q 2714 288 2790 205 
Q 2867 122 3104 96 
L 3104 0 
z
" id="STIXGeneral-Regular-6e" transform="scale(0.015625)"/>
       <path d="M 1702 493 
L 1786 422 
Q 1478 -64 1011 -64 
Q 448 -64 448 749 
L 448 2675 
L 109 2675 
Q 83 2694 83 2720 
Q 83 2771 192 2842 
Q 435 2982 813 3526 
Q 826 3546 874 3606 
Q 922 3667 941 3706 
Q 986 3706 986 3622 
L 986 2880 
L 1632 2880 
L 1632 2675 
L 986 2675 
L 986 845 
Q 986 538 1062 403 
Q 1139 269 1318 269 
Q 1510 269 1702 493 
z
" id="STIXGeneral-Regular-74" transform="scale(0.015625)"/>
       <path d="M 2611 1050 
L 2714 1005 
Q 2330 -64 1376 -64 
Q 813 -64 486 329 
Q 160 723 160 1389 
Q 160 2074 525 2509 
Q 890 2944 1485 2944 
Q 2061 2944 2374 2502 
Q 2560 2246 2592 1773 
L 621 1773 
Q 646 1370 700 1158 
Q 755 947 915 730 
Q 1184 378 1626 378 
Q 1939 378 2153 531 
Q 2368 685 2611 1050 
z
M 634 1978 
L 1939 1978 
Q 1882 2381 1750 2547 
Q 1619 2714 1312 2714 
Q 1043 2714 864 2525 
Q 685 2336 634 1978 
z
" id="STIXGeneral-Regular-65" transform="scale(0.015625)"/>
       <path d="M 1024 2931 
L 1024 2342 
Q 1267 2688 1430 2816 
Q 1594 2944 1792 2944 
Q 1958 2944 2051 2854 
Q 2144 2765 2144 2605 
Q 2144 2470 2077 2393 
Q 2010 2317 1894 2317 
Q 1773 2317 1638 2445 
Q 1536 2541 1472 2541 
Q 1338 2541 1181 2355 
Q 1024 2170 1024 2016 
L 1024 576 
Q 1024 301 1133 205 
Q 1242 109 1568 96 
L 1568 0 
L 32 0 
L 32 96 
Q 339 154 412 224 
Q 486 294 486 538 
L 486 2138 
Q 486 2349 438 2435 
Q 390 2522 269 2522 
Q 166 2522 45 2496 
L 45 2598 
Q 448 2726 992 2944 
L 1024 2931 
z
" id="STIXGeneral-Regular-72" transform="scale(0.015625)"/>
       <path d="M 3053 2880 
L 3053 2784 
Q 2906 2771 2835 2688 
Q 2765 2605 2637 2285 
L 1818 230 
Q 1690 -90 1638 -90 
Q 1587 -90 1523 77 
Q 1510 96 1497 141 
Q 1485 186 1472 211 
L 704 2048 
Q 499 2534 403 2652 
Q 307 2771 122 2784 
L 122 2880 
L 1376 2880 
L 1376 2784 
Q 1210 2771 1146 2732 
Q 1082 2694 1082 2611 
Q 1082 2509 1139 2368 
L 1792 730 
L 2426 2387 
Q 2464 2483 2464 2579 
Q 2464 2758 2163 2784 
L 2163 2880 
L 3053 2880 
z
" id="STIXGeneral-Regular-76" transform="scale(0.015625)"/>
       <path d="M 2829 422 
L 2829 243 
Q 2586 -64 2253 -64 
Q 1888 -64 1843 403 
L 1837 403 
Q 1427 -64 909 -64 
Q 608 -64 422 112 
Q 237 288 237 602 
Q 237 1050 685 1350 
Q 992 1555 1837 1869 
L 1837 2214 
Q 1837 2502 1699 2646 
Q 1562 2790 1338 2790 
Q 1146 2790 1018 2697 
Q 890 2605 890 2477 
Q 890 2419 909 2348 
Q 928 2278 928 2208 
Q 928 2112 841 2029 
Q 755 1946 634 1946 
Q 525 1946 441 2029 
Q 358 2112 358 2240 
Q 358 2547 685 2752 
Q 986 2944 1421 2944 
Q 1939 2944 2176 2656 
Q 2291 2522 2323 2384 
Q 2355 2246 2355 1946 
L 2355 723 
Q 2355 301 2554 301 
Q 2682 301 2829 422 
z
M 1837 813 
L 1837 1715 
Q 1248 1510 1018 1293 
Q 800 1094 800 800 
Q 800 557 921 432 
Q 1043 307 1242 307 
Q 1453 307 1613 410 
Q 1747 506 1792 589 
Q 1837 672 1837 813 
z
" id="STIXGeneral-Regular-61" transform="scale(0.015625)"/>
       <path d="M 1645 0 
L 134 0 
L 134 96 
Q 435 122 531 221 
Q 627 320 627 589 
L 627 3590 
Q 627 3821 569 3910 
Q 512 4000 358 4000 
Q 224 4000 122 3987 
L 122 4090 
Q 730 4237 1133 4371 
L 1165 4346 
L 1165 557 
Q 1165 288 1254 201 
Q 1344 115 1645 96 
L 1645 0 
z
" id="STIXGeneral-Regular-6c" transform="scale(0.015625)"/>
      </defs>
      <use xlink:href="#STIXGeneral-Regular-39"/>
      <use x="49.999985" xlink:href="#STIXGeneral-Regular-35"/>
      <use x="99.999969" xlink:href="#STIXGeneral-Regular-25"/>
      <use x="174.699951" xlink:href="#STIXGeneral-Regular-20"/>
      <use x="199.699936" xlink:href="#STIXGeneral-Regular-69"/>
      <use x="227.499924" xlink:href="#STIXGeneral-Regular-6e"/>
      <use x="277.499908" xlink:href="#STIXGeneral-Regular-74"/>
      <use x="305.299896" xlink:href="#STIXGeneral-Regular-65"/>
      <use x="349.69989" xlink:href="#STIXGeneral-Regular-72"/>
      <use x="382.999878" xlink:href="#STIXGeneral-Regular-76"/>
      <use x="432.999863" xlink:href="#STIXGeneral-Regular-61"/>
      <use x="477.399857" xlink:href="#STIXGeneral-Regular-6c"/>
     </g>
    </g>
   </g>
  </g>
 </g>
 <defs>
  <clipPath id="pfbe0bd79c0">
   <rect height="217.44" width="334.8" x="43" y="7.2"/>
  </clipPath>
 </defs>
</svg>
