<?xml version="1.0" encoding="utf-8" standalone="no"?>
<!DOCTYPE svg PUBLIC "-//W3C//DTD SVG 1.1//EN"
  "http://www.w3.org/Graphics/SVG/1.1/DTD/svg11.dtd">
<svg xmlns:xlink="http://www.w3.org/1999/xlink" width="425.078695pt" height="332.6395pt" viewBox="0 0 425.078695 332.6395" xmlns="http://www.w3.org/2000/svg" version="1.1">
 <metadata>
  <rdf:RDF xmlns:dc="http://purl.org/dc/elements/1.1/" xmlns:cc="http://creativecommons.org/ns#" xmlns:rdf="http://www.w3.org/1999/02/22-rdf-syntax-ns#">
   <cc:Work>
    <dc:type rdf:resource="http://purl.org/dc/dcmitype/StillImage"/>
    <dc:date>2022-09-16T15:20:47.832927</dc:date>
    <dc:format>image/svg+xml</dc:format>
    <dc:creator>
     <cc:Agent>
      <dc:title>Matplotlib v3.5.3, https://matplotlib.org/</dc:title>
     </cc:Agent>
    </dc:creator>
   </cc:Work>
  </rdf:RDF>
 </metadata>
 <defs>
  <style type="text/css">*{stroke-linejoin: round; stroke-linecap: butt}</style>
 </defs>
 <g id="figure_1">
  <g id="patch_1">
   <path d="M 0 332.6395 
L 425.078695 332.6395 
L 425.078695 0 
L 0 0 
z
" style="fill: #ffffff"/>
  </g>
  <g id="axes_1">
   <g id="patch_2">
    <path d="M 45.88 290.2395 
L 403 290.2395 
L 403 24.1275 
L 45.88 24.1275 
z
" style="fill: #ffffff"/>
   </g>
   <g id="PathCollection_1">
    <path d="M 117.313861 164.116781 
C 118.375212 164.116781 119.393236 163.695102 120.143724 162.944613 
C 120.894213 162.194125 121.315892 161.176101 121.315892 160.11475 
C 121.315892 159.053399 120.894213 158.035375 120.143724 157.284887 
C 119.393236 156.534398 118.375212 156.112719 117.313861 156.112719 
C 116.25251 156.112719 115.234486 156.534398 114.483998 157.284887 
C 113.733509 158.035375 113.31183 159.053399 113.31183 160.11475 
C 113.31183 161.176101 113.733509 162.194125 114.483998 162.944613 
C 115.234486 163.695102 116.25251 164.116781 117.313861 164.116781 
z
" clip-path="url(#p055ea27f90)" style="fill: #bc80bd; fill-opacity: 0.75; stroke: #000000; stroke-opacity: 0.75; stroke-width: 0.8"/>
    <path d="M 155.943036 186.084 
C 157.092898 186.084 158.19582 185.627155 159.008895 184.814079 
C 159.821971 184.001003 160.278816 182.898082 160.278816 181.748219 
C 160.278816 180.598357 159.821971 179.495435 159.008895 178.68236 
C 158.19582 177.869284 157.092898 177.412439 155.943036 177.412439 
C 154.793173 177.412439 153.690251 177.869284 152.877176 178.68236 
C 152.0641 179.495435 151.607255 180.598357 151.607255 181.748219 
C 151.607255 182.898082 152.0641 184.001003 152.877176 184.814079 
C 153.690251 185.627155 154.793173 186.084 155.943036 186.084 
z
" clip-path="url(#p055ea27f90)" style="fill: #bc80bd; fill-opacity: 0.75; stroke: #000000; stroke-opacity: 0.75; stroke-width: 0.8"/>
    <path d="M 123.060237 165.597802 
C 124.122512 165.597802 125.141421 165.175756 125.892563 164.424615 
C 126.643704 163.673473 127.06575 162.654564 127.06575 161.592289 
C 127.06575 160.530015 126.643704 159.511105 125.892563 158.759964 
C 125.141421 158.008823 124.122512 157.586776 123.060237 157.586776 
C 121.997963 157.586776 120.979053 158.008823 120.227912 158.759964 
C 119.47677 159.511105 119.054724 160.530015 119.054724 161.592289 
C 119.054724 162.654564 119.47677 163.673473 120.227912 164.424615 
C 120.979053 165.175756 121.997963 165.597802 123.060237 165.597802 
z
" clip-path="url(#p055ea27f90)" style="fill: #bc80bd; fill-opacity: 0.75; stroke: #000000; stroke-opacity: 0.75; stroke-width: 0.8"/>
    <path d="M 121.41452 155.894596 
C 122.47734 155.894596 123.496773 155.472333 124.2483 154.720805 
C 124.999827 153.969278 125.42209 152.949845 125.42209 151.887025 
C 125.42209 150.824205 124.999827 149.804772 124.2483 149.053245 
C 123.496773 148.301718 122.47734 147.879455 121.41452 147.879455 
C 120.3517 147.879455 119.332267 148.301718 118.58074 149.053245 
C 117.829213 149.804772 117.40695 150.824205 117.40695 151.887025 
C 117.40695 152.949845 117.829213 153.969278 118.58074 154.720805 
C 119.332267 155.472333 120.3517 155.894596 121.41452 155.894596 
z
" clip-path="url(#p055ea27f90)" style="fill: #bc80bd; fill-opacity: 0.75; stroke: #000000; stroke-opacity: 0.75; stroke-width: 0.8"/>
    <path d="M 151.874266 154.704075 
C 152.941179 154.704075 153.964537 154.280187 154.718958 153.525765 
C 155.473379 152.771344 155.897268 151.747986 155.897268 150.681073 
C 155.897268 149.61416 155.473379 148.590802 154.718958 147.836381 
C 153.964537 147.08196 152.941179 146.658071 151.874266 146.658071 
C 150.807353 146.658071 149.783995 147.08196 149.029574 147.836381 
C 148.275152 148.590802 147.851264 149.61416 147.851264 150.681073 
C 147.851264 151.747986 148.275152 152.771344 149.029574 153.525765 
C 149.783995 154.280187 150.807353 154.704075 151.874266 154.704075 
z
" clip-path="url(#p055ea27f90)" style="fill: #bc80bd; fill-opacity: 0.75; stroke: #000000; stroke-opacity: 0.75; stroke-width: 0.8"/>
    <path d="M 126.070622 157.177619 
C 127.132752 157.177619 128.151524 156.75563 128.902564 156.00459 
C 129.653604 155.25355 130.075593 154.234779 130.075593 153.172648 
C 130.075593 152.110517 129.653604 151.091746 128.902564 150.340706 
C 128.151524 149.589666 127.132752 149.167677 126.070622 149.167677 
C 125.008491 149.167677 123.989719 149.589666 123.238679 150.340706 
C 122.487639 151.091746 122.06565 152.110517 122.06565 153.172648 
C 122.06565 154.234779 122.487639 155.25355 123.238679 156.00459 
C 123.989719 156.75563 125.008491 157.177619 126.070622 157.177619 
z
" clip-path="url(#p055ea27f90)" style="fill: #bc80bd; fill-opacity: 0.75; stroke: #000000; stroke-opacity: 0.75; stroke-width: 0.8"/>
    <path d="M 118.154709 176.640117 
C 119.230659 176.640117 120.262685 176.212638 121.023497 175.451826 
C 121.784308 174.691015 122.211788 173.658988 122.211788 172.583038 
C 122.211788 171.507088 121.784308 170.475062 121.023497 169.71425 
C 120.262685 168.953439 119.230659 168.525959 118.154709 168.525959 
C 117.078759 168.525959 116.046733 168.953439 115.285921 169.71425 
C 114.52511 170.475062 114.09763 171.507088 114.09763 172.583038 
C 114.09763 173.658988 114.52511 174.691015 115.285921 175.451826 
C 116.046733 176.212638 117.078759 176.640117 118.154709 176.640117 
z
" clip-path="url(#p055ea27f90)" style="fill: #bc80bd; fill-opacity: 0.75; stroke: #000000; stroke-opacity: 0.75; stroke-width: 0.8"/>
    <path d="M 119.204505 178.612388 
C 120.285149 178.612388 121.321678 178.183043 122.085809 177.418912 
C 122.84994 176.654782 123.279284 175.618253 123.279284 174.537608 
C 123.279284 173.456964 122.84994 172.420435 122.085809 171.656305 
C 121.321678 170.892174 120.285149 170.462829 119.204505 170.462829 
C 118.123861 170.462829 117.087332 170.892174 116.323201 171.656305 
C 115.55907 172.420435 115.129726 173.456964 115.129726 174.537608 
C 115.129726 175.618253 115.55907 176.654782 116.323201 177.418912 
C 117.087332 178.183043 118.123861 178.612388 119.204505 178.612388 
z
" clip-path="url(#p055ea27f90)" style="fill: #bc80bd; fill-opacity: 0.75; stroke: #000000; stroke-opacity: 0.75; stroke-width: 0.8"/>
    <path d="M 380.29817 77.037443 
C 386.663045 77.037443 392.768087 74.508652 397.268733 70.008006 
C 401.769379 65.50736 404.29817 59.402317 404.29817 53.037443 
C 404.29817 46.672569 401.769379 40.567526 397.268733 36.06688 
C 392.768087 31.566234 386.663045 29.037443 380.29817 29.037443 
C 373.933296 29.037443 367.828253 31.566234 363.327608 36.06688 
C 358.826962 40.567526 356.29817 46.672569 356.29817 53.037443 
C 356.29817 59.402317 358.826962 65.50736 363.327608 70.008006 
C 367.828253 74.508652 373.933296 77.037443 380.29817 77.037443 
z
" clip-path="url(#p055ea27f90)" style="fill: #bc80bd; fill-opacity: 0.75; stroke: #000000; stroke-opacity: 0.75; stroke-width: 0.8"/>
    <path d="M 116.094327 172.49148 
C 117.162747 172.49148 118.187552 172.066992 118.943039 171.311505 
C 119.698526 170.556018 120.123014 169.531214 120.123014 168.462793 
C 120.123014 167.394373 119.698526 166.369569 118.943039 165.614081 
C 118.187552 164.858594 117.162747 164.434106 116.094327 164.434106 
C 115.025907 164.434106 114.001102 164.858594 113.245615 165.614081 
C 112.490128 166.369569 112.06564 167.394373 112.06564 168.462793 
C 112.06564 169.531214 112.490128 170.556018 113.245615 171.311505 
C 114.001102 172.066992 115.025907 172.49148 116.094327 172.49148 
z
" clip-path="url(#p055ea27f90)" style="fill: #bc80bd; fill-opacity: 0.75; stroke: #000000; stroke-opacity: 0.75; stroke-width: 0.8"/>
    <path d="M 101.49545 197.617642 
C 102.594327 197.617642 103.648345 197.181054 104.425368 196.404031 
C 105.202391 195.627007 105.63898 194.57299 105.63898 193.474113 
C 105.63898 192.375236 105.202391 191.321218 104.425368 190.544195 
C 103.648345 189.767171 102.594327 189.330583 101.49545 189.330583 
C 100.396573 189.330583 99.342555 189.767171 98.565532 190.544195 
C 97.788509 191.321218 97.35192 192.375236 97.35192 193.474113 
C 97.35192 194.57299 97.788509 195.627007 98.565532 196.404031 
C 99.342555 197.181054 100.396573 197.617642 101.49545 197.617642 
z
" clip-path="url(#p055ea27f90)" style="fill: #bc80bd; fill-opacity: 0.75; stroke: #000000; stroke-opacity: 0.75; stroke-width: 0.8"/>
    <path d="M 113.046062 241.015883 
C 114.370853 241.015883 115.641561 240.489538 116.57833 239.55277 
C 117.515098 238.616002 118.041443 237.345293 118.041443 236.020503 
C 118.041443 234.695712 117.515098 233.425004 116.57833 232.488235 
C 115.641561 231.551467 114.370853 231.025122 113.046062 231.025122 
C 111.721272 231.025122 110.450563 231.551467 109.513795 232.488235 
C 108.577027 233.425004 108.050682 234.695712 108.050682 236.020503 
C 108.050682 237.345293 108.577027 238.616002 109.513795 239.55277 
C 110.450563 240.489538 111.721272 241.015883 113.046062 241.015883 
z
" clip-path="url(#p055ea27f90)" style="fill: #bc80bd; fill-opacity: 0.75; stroke: #000000; stroke-opacity: 0.75; stroke-width: 0.8"/>
    <path d="M 118.634895 161.085941 
C 119.695707 161.085941 120.713214 160.664476 121.463322 159.914368 
C 122.21343 159.164261 122.634895 158.146754 122.634895 157.085941 
C 122.634895 156.025129 122.21343 155.007622 121.463322 154.257514 
C 120.713214 153.507406 119.695707 153.085941 118.634895 153.085941 
C 117.574082 153.085941 116.556575 153.507406 115.806468 154.257514 
C 115.05636 155.007622 114.634895 156.025129 114.634895 157.085941 
C 114.634895 158.146754 115.05636 159.164261 115.806468 159.914368 
C 116.556575 160.664476 117.574082 161.085941 118.634895 161.085941 
z
" clip-path="url(#p055ea27f90)" style="fill: #bc80bd; fill-opacity: 0.75; stroke: #000000; stroke-opacity: 0.75; stroke-width: 0.8"/>
    <path d="M 100.991198 94.496228 
C 102.166485 94.496228 103.293793 94.029282 104.124847 93.198228 
C 104.9559 92.367175 105.422847 91.239866 105.422847 90.064579 
C 105.422847 88.889292 104.9559 87.761983 104.124847 86.93093 
C 103.293793 86.099876 102.166485 85.63293 100.991198 85.63293 
C 99.81591 85.63293 98.688602 86.099876 97.857548 86.93093 
C 97.026495 87.761983 96.559548 88.889292 96.559548 90.064579 
C 96.559548 91.239866 97.026495 92.367175 97.857548 93.198228 
C 98.688602 94.029282 99.81591 94.496228 100.991198 94.496228 
z
" clip-path="url(#p055ea27f90)" style="fill: #bc80bd; fill-opacity: 0.75; stroke: #000000; stroke-opacity: 0.75; stroke-width: 0.8"/>
    <path d="M 94.336547 146.700047 
C 95.400769 146.700047 96.421547 146.277227 97.174066 145.524708 
C 97.926586 144.772189 98.349406 143.751411 98.349406 142.687189 
C 98.349406 141.622966 97.926586 140.602188 97.174066 139.849669 
C 96.421547 139.09715 95.400769 138.67433 94.336547 138.67433 
C 93.272324 138.67433 92.251546 139.09715 91.499027 139.849669 
C 90.746508 140.602188 90.323688 141.622966 90.323688 142.687189 
C 90.323688 143.751411 90.746508 144.772189 91.499027 145.524708 
C 92.251546 146.277227 93.272324 146.700047 94.336547 146.700047 
z
" clip-path="url(#p055ea27f90)" style="fill: #bc80bd; fill-opacity: 0.75; stroke: #000000; stroke-opacity: 0.75; stroke-width: 0.8"/>
    <path d="M 107.330388 172.333586 
C 108.396365 172.333586 109.418826 171.910069 110.172586 171.156309 
C 110.926346 170.40255 111.349863 169.380088 111.349863 168.314111 
C 111.349863 167.248134 110.926346 166.225673 110.172586 165.471913 
C 109.418826 164.718153 108.396365 164.294636 107.330388 164.294636 
C 106.264411 164.294636 105.24195 164.718153 104.48819 165.471913 
C 103.73443 166.225673 103.310913 167.248134 103.310913 168.314111 
C 103.310913 169.380088 103.73443 170.40255 104.48819 171.156309 
C 105.24195 171.910069 106.264411 172.333586 107.330388 172.333586 
z
" clip-path="url(#p055ea27f90)" style="fill: #bc80bd; fill-opacity: 0.75; stroke: #000000; stroke-opacity: 0.75; stroke-width: 0.8"/>
    <path d="M 103.019315 145.617289 
C 104.088138 145.617289 105.113329 145.192641 105.869101 144.436869 
C 106.624873 143.681097 107.049521 142.655907 107.049521 141.587084 
C 107.049521 140.518261 106.624873 139.49307 105.869101 138.737298 
C 105.113329 137.981526 104.088138 137.556878 103.019315 137.556878 
C 101.950492 137.556878 100.925301 137.981526 100.169529 138.737298 
C 99.413757 139.49307 98.989109 140.518261 98.989109 141.587084 
C 98.989109 142.655907 99.413757 143.681097 100.169529 144.436869 
C 100.925301 145.192641 101.950492 145.617289 103.019315 145.617289 
z
" clip-path="url(#p055ea27f90)" style="fill: #bc80bd; fill-opacity: 0.75; stroke: #000000; stroke-opacity: 0.75; stroke-width: 0.8"/>
    <path d="M 126.609371 180.259195 
C 127.699518 180.259195 128.745162 179.826076 129.516012 179.055225 
C 130.286863 178.284375 130.719982 177.238731 130.719982 176.148584 
C 130.719982 175.058437 130.286863 174.012793 129.516012 173.241943 
C 128.745162 172.471093 127.699518 172.037973 126.609371 172.037973 
C 125.519224 172.037973 124.47358 172.471093 123.70273 173.241943 
C 122.93188 174.012793 122.49876 175.058437 122.49876 176.148584 
C 122.49876 177.238731 122.93188 178.284375 123.70273 179.055225 
C 124.47358 179.826076 125.519224 180.259195 126.609371 180.259195 
z
" clip-path="url(#p055ea27f90)" style="fill: #bc80bd; fill-opacity: 0.75; stroke: #000000; stroke-opacity: 0.75; stroke-width: 0.8"/>
    <path d="M 114.54986 86.52527 
C 115.870727 86.52527 117.137673 86.000483 118.071667 85.066489 
C 119.005662 84.132495 119.530448 82.865549 119.530448 81.544681 
C 119.530448 80.223814 119.005662 78.956868 118.071667 78.022874 
C 117.137673 77.088879 115.870727 76.564093 114.54986 76.564093 
C 113.228992 76.564093 111.962046 77.088879 111.028052 78.022874 
C 110.094058 78.956868 109.569272 80.223814 109.569272 81.544681 
C 109.569272 82.865549 110.094058 84.132495 111.028052 85.066489 
C 111.962046 86.000483 113.228992 86.52527 114.54986 86.52527 
z
" clip-path="url(#p055ea27f90)" style="fill: #bc80bd; fill-opacity: 0.75; stroke: #000000; stroke-opacity: 0.75; stroke-width: 0.8"/>
    <path d="M 125.370989 179.700754 
C 126.458577 179.700754 127.501768 179.268651 128.270809 178.499609 
C 129.039851 177.730568 129.471954 176.687377 129.471954 175.599789 
C 129.471954 174.5122 129.039851 173.469009 128.270809 172.699968 
C 127.501768 171.930926 126.458577 171.498823 125.370989 171.498823 
C 124.2834 171.498823 123.240209 171.930926 122.471168 172.699968 
C 121.702126 173.469009 121.270023 174.5122 121.270023 175.599789 
C 121.270023 176.687377 121.702126 177.730568 122.471168 178.499609 
C 123.240209 179.268651 124.2834 179.700754 125.370989 179.700754 
z
" clip-path="url(#p055ea27f90)" style="fill: #bc80bd; fill-opacity: 0.75; stroke: #000000; stroke-opacity: 0.75; stroke-width: 0.8"/>
    <path d="M 131.351759 101.358256 
C 132.698979 101.358256 133.991201 100.823 134.943829 99.870372 
C 135.896458 98.917744 136.431714 97.625521 136.431714 96.278302 
C 136.431714 94.931082 135.896458 93.638859 134.943829 92.686231 
C 133.991201 91.733603 132.698979 91.198347 131.351759 91.198347 
C 130.004539 91.198347 128.712317 91.733603 127.759688 92.686231 
C 126.80706 93.638859 126.271804 94.931082 126.271804 96.278302 
C 126.271804 97.625521 126.80706 98.917744 127.759688 99.870372 
C 128.712317 100.823 130.004539 101.358256 131.351759 101.358256 
z
" clip-path="url(#p055ea27f90)" style="fill: #bc80bd; fill-opacity: 0.75; stroke: #000000; stroke-opacity: 0.75; stroke-width: 0.8"/>
    <path d="M 116.486098 194.914995 
C 117.61183 194.914995 118.691607 194.467737 119.48762 193.671724 
C 120.283633 192.875711 120.730891 191.795934 120.730891 190.670202 
C 120.730891 189.544469 120.283633 188.464692 119.48762 187.668679 
C 118.691607 186.872666 117.61183 186.425408 116.486098 186.425408 
C 115.360365 186.425408 114.280589 186.872666 113.484576 187.668679 
C 112.688563 188.464692 112.241304 189.544469 112.241304 190.670202 
C 112.241304 191.795934 112.688563 192.875711 113.484576 193.671724 
C 114.280589 194.467737 115.360365 194.914995 116.486098 194.914995 
z
" clip-path="url(#p055ea27f90)" style="fill: #bc80bd; fill-opacity: 0.75; stroke: #000000; stroke-opacity: 0.75; stroke-width: 0.8"/>
    <path d="M 125.417333 165.514887 
C 126.479651 165.514887 127.498603 165.092823 128.249775 164.341651 
C 129.000947 163.590478 129.423011 162.571527 129.423011 161.509208 
C 129.423011 160.44689 129.000947 159.427939 128.249775 158.676766 
C 127.498603 157.925594 126.479651 157.50353 125.417333 157.50353 
C 124.355015 157.50353 123.336063 157.925594 122.584891 158.676766 
C 121.833718 159.427939 121.411655 160.44689 121.411655 161.509208 
C 121.411655 162.571527 121.833718 163.590478 122.584891 164.341651 
C 123.336063 165.092823 124.355015 165.514887 125.417333 165.514887 
z
" clip-path="url(#p055ea27f90)" style="fill: #bc80bd; fill-opacity: 0.75; stroke: #000000; stroke-opacity: 0.75; stroke-width: 0.8"/>
    <path d="M 111.087397 170.108688 
C 112.152135 170.108688 113.173408 169.685663 113.926292 168.932779 
C 114.679175 168.179896 115.1022 167.158623 115.1022 166.093884 
C 115.1022 165.029146 114.679175 164.007873 113.926292 163.254989 
C 113.173408 162.502106 112.152135 162.079081 111.087397 162.079081 
C 110.022658 162.079081 109.001386 162.502106 108.248502 163.254989 
C 107.495618 164.007873 107.072593 165.029146 107.072593 166.093884 
C 107.072593 167.158623 107.495618 168.179896 108.248502 168.932779 
C 109.001386 169.685663 110.022658 170.108688 111.087397 170.108688 
z
" clip-path="url(#p055ea27f90)" style="fill: #bc80bd; fill-opacity: 0.75; stroke: #000000; stroke-opacity: 0.75; stroke-width: 0.8"/>
    <path d="M 171.605042 258.978024 
C 173.680027 258.978024 175.670306 258.153623 177.137542 256.686387 
C 178.604778 255.219151 179.429178 253.228873 179.429178 251.153887 
C 179.429178 249.078902 178.604778 247.088623 177.137542 245.621387 
C 175.670306 244.154151 173.680027 243.329751 171.605042 243.329751 
C 169.530056 243.329751 167.539778 244.154151 166.072542 245.621387 
C 164.605306 247.088623 163.780905 249.078902 163.780905 251.153887 
C 163.780905 253.228873 164.605306 255.219151 166.072542 256.686387 
C 167.539778 258.153623 169.530056 258.978024 171.605042 258.978024 
z
" clip-path="url(#p055ea27f90)" style="fill: #bc80bd; fill-opacity: 0.75; stroke: #000000; stroke-opacity: 0.75; stroke-width: 0.8"/>
    <path d="M 94.236783 132.885558 
C 95.310278 132.885558 96.33995 132.459054 97.099025 131.699979 
C 97.858101 130.940903 98.284605 129.911231 98.284605 128.837736 
C 98.284605 127.764241 97.858101 126.734569 97.099025 125.975493 
C 96.33995 125.216418 95.310278 124.789914 94.236783 124.789914 
C 93.163288 124.789914 92.133616 125.216418 91.37454 125.975493 
C 90.615465 126.734569 90.188961 127.764241 90.188961 128.837736 
C 90.188961 129.911231 90.615465 130.940903 91.37454 131.699979 
C 92.133616 132.459054 93.163288 132.885558 94.236783 132.885558 
z
" clip-path="url(#p055ea27f90)" style="fill: #bc80bd; fill-opacity: 0.75; stroke: #000000; stroke-opacity: 0.75; stroke-width: 0.8"/>
    <path d="M 136.941354 159.603219 
C 138.002434 159.603219 139.020198 159.181648 139.770495 158.431351 
C 140.520792 157.681054 140.942364 156.66329 140.942364 155.602209 
C 140.942364 154.541129 140.520792 153.523365 139.770495 152.773068 
C 139.020198 152.022771 138.002434 151.6012 136.941354 151.6012 
C 135.880274 151.6012 134.86251 152.022771 134.112213 152.773068 
C 133.361916 153.523365 132.940344 154.541129 132.940344 155.602209 
C 132.940344 156.66329 133.361916 157.681054 134.112213 158.431351 
C 134.86251 159.181648 135.880274 159.603219 136.941354 159.603219 
z
" clip-path="url(#p055ea27f90)" style="fill: #bc80bd; fill-opacity: 0.75; stroke: #000000; stroke-opacity: 0.75; stroke-width: 0.8"/>
    <path d="M 102.264114 158.032069 
C 103.325241 158.032069 104.34305 157.610479 105.09338 156.860149 
C 105.84371 156.109819 106.2653 155.09201 106.2653 154.030883 
C 106.2653 152.969756 105.84371 151.951948 105.09338 151.201618 
C 104.34305 150.451287 103.325241 150.029697 102.264114 150.029697 
C 101.202987 150.029697 100.185178 150.451287 99.434848 151.201618 
C 98.684518 151.951948 98.262928 152.969756 98.262928 154.030883 
C 98.262928 155.09201 98.684518 156.109819 99.434848 156.860149 
C 100.185178 157.610479 101.202987 158.032069 102.264114 158.032069 
z
" clip-path="url(#p055ea27f90)" style="fill: #bc80bd; fill-opacity: 0.75; stroke: #000000; stroke-opacity: 0.75; stroke-width: 0.8"/>
    <path d="M 123.657392 158.712417 
C 124.718672 158.712417 125.736628 158.290766 126.487067 157.540327 
C 127.237505 156.789889 127.659156 155.771933 127.659156 154.710652 
C 127.659156 153.649372 127.237505 152.631416 126.487067 151.880977 
C 125.736628 151.130539 124.718672 150.708888 123.657392 150.708888 
C 122.596111 150.708888 121.578155 151.130539 120.827717 151.880977 
C 120.077278 152.631416 119.655627 153.649372 119.655627 154.710652 
C 119.655627 155.771933 120.077278 156.789889 120.827717 157.540327 
C 121.578155 158.290766 122.596111 158.712417 123.657392 158.712417 
z
" clip-path="url(#p055ea27f90)" style="fill: #bc80bd; fill-opacity: 0.75; stroke: #000000; stroke-opacity: 0.75; stroke-width: 0.8"/>
    <path d="M 127.087928 148.012829 
C 128.163345 148.012829 129.194861 147.585561 129.955296 146.825126 
C 130.715731 146.064691 131.142999 145.033175 131.142999 143.957758 
C 131.142999 142.88234 130.715731 141.850824 129.955296 141.090389 
C 129.194861 140.329954 128.163345 139.902686 127.087928 139.902686 
C 126.01251 139.902686 124.980994 140.329954 124.220559 141.090389 
C 123.460124 141.850824 123.032856 142.88234 123.032856 143.957758 
C 123.032856 145.033175 123.460124 146.064691 124.220559 146.825126 
C 124.980994 147.585561 126.01251 148.012829 127.087928 148.012829 
z
" clip-path="url(#p055ea27f90)" style="fill: #bc80bd; fill-opacity: 0.75; stroke: #000000; stroke-opacity: 0.75; stroke-width: 0.8"/>
    <path d="M 128.391893 166.673934 
C 129.455323 166.673934 130.475341 166.251429 131.2273 165.49947 
C 131.979259 164.747511 132.401764 163.727493 132.401764 162.664063 
C 132.401764 161.600632 131.979259 160.580614 131.2273 159.828655 
C 130.475341 159.076696 129.455323 158.654191 128.391893 158.654191 
C 127.328463 158.654191 126.308444 159.076696 125.556486 159.828655 
C 124.804527 160.580614 124.382021 161.600632 124.382021 162.664063 
C 124.382021 163.727493 124.804527 164.747511 125.556486 165.49947 
C 126.308444 166.251429 127.328463 166.673934 128.391893 166.673934 
z
" clip-path="url(#p055ea27f90)" style="fill: #bc80bd; fill-opacity: 0.75; stroke: #000000; stroke-opacity: 0.75; stroke-width: 0.8"/>
    <path d="M 109.362585 114.672547 
C 110.516209 114.672547 111.62274 114.214208 112.438476 113.398472 
C 113.254211 112.582736 113.712551 111.476205 113.712551 110.322581 
C 113.712551 109.168956 113.254211 108.062426 112.438476 107.24669 
C 111.62274 106.430954 110.516209 105.972614 109.362585 105.972614 
C 108.20896 105.972614 107.10243 106.430954 106.286694 107.24669 
C 105.470958 108.062426 105.012618 109.168956 105.012618 110.322581 
C 105.012618 111.476205 105.470958 112.582736 106.286694 113.398472 
C 107.10243 114.214208 108.20896 114.672547 109.362585 114.672547 
z
" clip-path="url(#p055ea27f90)" style="fill: #bc80bd; fill-opacity: 0.75; stroke: #000000; stroke-opacity: 0.75; stroke-width: 0.8"/>
    <path d="M 106.672992 245.817611 
C 107.959377 245.817611 109.193248 245.306524 110.10286 244.396913 
C 111.012472 243.487301 111.523558 242.253429 111.523558 240.967044 
C 111.523558 239.680659 111.012472 238.446788 110.10286 237.537176 
C 109.193248 236.627564 107.959377 236.116478 106.672992 236.116478 
C 105.386607 236.116478 104.152735 236.627564 103.243123 237.537176 
C 102.333512 238.446788 101.822425 239.680659 101.822425 240.967044 
C 101.822425 242.253429 102.333512 243.487301 103.243123 244.396913 
C 104.152735 245.306524 105.386607 245.817611 106.672992 245.817611 
z
" clip-path="url(#p055ea27f90)" style="fill: #bc80bd; fill-opacity: 0.75; stroke: #000000; stroke-opacity: 0.75; stroke-width: 0.8"/>
    <path d="M 99.669871 168.652147 
C 100.732162 168.652147 101.751088 168.230094 102.502241 167.47894 
C 103.253394 166.727787 103.675447 165.708861 103.675447 164.64657 
C 103.675447 163.584279 103.253394 162.565353 102.502241 161.8142 
C 101.751088 161.063046 100.732162 160.640994 99.669871 160.640994 
C 98.607579 160.640994 97.588654 161.063046 96.8375 161.8142 
C 96.086347 162.565353 95.664294 163.584279 95.664294 164.64657 
C 95.664294 165.708861 96.086347 166.727787 96.8375 167.47894 
C 97.588654 168.230094 98.607579 168.652147 99.669871 168.652147 
z
" clip-path="url(#p055ea27f90)" style="fill: #bc80bd; fill-opacity: 0.75; stroke: #000000; stroke-opacity: 0.75; stroke-width: 0.8"/>
    <path d="M 112.030338 126.141993 
C 113.152021 126.141993 114.227913 125.696344 115.021063 124.903195 
C 115.814213 124.110045 116.259862 123.034152 116.259862 121.91247 
C 116.259862 120.790787 115.814213 119.714894 115.021063 118.921744 
C 114.227913 118.128595 113.152021 117.682946 112.030338 117.682946 
C 110.908655 117.682946 109.832762 118.128595 109.039613 118.921744 
C 108.246463 119.714894 107.800814 120.790787 107.800814 121.91247 
C 107.800814 123.034152 108.246463 124.110045 109.039613 124.903195 
C 109.832762 125.696344 110.908655 126.141993 112.030338 126.141993 
z
" clip-path="url(#p055ea27f90)" style="fill: #bc80bd; fill-opacity: 0.75; stroke: #000000; stroke-opacity: 0.75; stroke-width: 0.8"/>
    <path d="M 105.017927 191.045948 
C 106.110609 191.045948 107.158686 190.61182 107.931329 189.839177 
C 108.703972 189.066534 109.138099 188.018457 109.138099 186.925775 
C 109.138099 185.833092 108.703972 184.785016 107.931329 184.012373 
C 107.158686 183.23973 106.110609 182.805602 105.017927 182.805602 
C 103.925244 182.805602 102.877168 183.23973 102.104525 184.012373 
C 101.331882 184.785016 100.897754 185.833092 100.897754 186.925775 
C 100.897754 188.018457 101.331882 189.066534 102.104525 189.839177 
C 102.877168 190.61182 103.925244 191.045948 105.017927 191.045948 
z
" clip-path="url(#p055ea27f90)" style="fill: #bc80bd; fill-opacity: 0.75; stroke: #000000; stroke-opacity: 0.75; stroke-width: 0.8"/>
    <path d="M 100.628564 146.23365 
C 101.695716 146.23365 102.719305 145.809666 103.473895 145.055075 
C 104.228486 144.300484 104.65247 143.276896 104.65247 142.209744 
C 104.65247 141.142591 104.228486 140.119003 103.473895 139.364412 
C 102.719305 138.609822 101.695716 138.185837 100.628564 138.185837 
C 99.561411 138.185837 98.537823 138.609822 97.783232 139.364412 
C 97.028642 140.119003 96.604657 141.142591 96.604657 142.209744 
C 96.604657 143.276896 97.028642 144.300484 97.783232 145.055075 
C 98.537823 145.809666 99.561411 146.23365 100.628564 146.23365 
z
" clip-path="url(#p055ea27f90)" style="fill: #bc80bd; fill-opacity: 0.75; stroke: #000000; stroke-opacity: 0.75; stroke-width: 0.8"/>
    <path d="M 114.160025 201.592739 
C 115.304813 201.592739 116.402869 201.13791 117.212356 200.328422 
C 118.021844 199.518934 118.476674 198.420879 118.476674 197.27609 
C 118.476674 196.131301 118.021844 195.033246 117.212356 194.223758 
C 116.402869 193.414271 115.304813 192.959441 114.160025 192.959441 
C 113.015236 192.959441 111.917181 193.414271 111.107693 194.223758 
C 110.298205 195.033246 109.843376 196.131301 109.843376 197.27609 
C 109.843376 198.420879 110.298205 199.518934 111.107693 200.328422 
C 111.917181 201.13791 113.015236 201.592739 114.160025 201.592739 
z
" clip-path="url(#p055ea27f90)" style="fill: #bc80bd; fill-opacity: 0.75; stroke: #000000; stroke-opacity: 0.75; stroke-width: 0.8"/>
    <path d="M 96.707199 139.290916 
C 97.777902 139.290916 98.804896 138.865521 99.561998 138.10842 
C 100.319099 137.351318 100.744494 136.324324 100.744494 135.253621 
C 100.744494 134.182918 100.319099 133.155924 99.561998 132.398823 
C 98.804896 131.641721 97.777902 131.216326 96.707199 131.216326 
C 95.636496 131.216326 94.609502 131.641721 93.852401 132.398823 
C 93.0953 133.155924 92.669905 134.182918 92.669905 135.253621 
C 92.669905 136.324324 93.0953 137.351318 93.852401 138.10842 
C 94.609502 138.865521 95.636496 139.290916 96.707199 139.290916 
z
" clip-path="url(#p055ea27f90)" style="fill: #bc80bd; fill-opacity: 0.75; stroke: #000000; stroke-opacity: 0.75; stroke-width: 0.8"/>
    <path d="M 125.795645 203.24298 
C 126.98476 203.24298 128.125331 202.77054 128.966163 201.929708 
C 129.806994 201.088877 130.279434 199.948305 130.279434 198.75919 
C 130.279434 197.570076 129.806994 196.429504 128.966163 195.588672 
C 128.125331 194.747841 126.98476 194.275401 125.795645 194.275401 
C 124.60653 194.275401 123.465958 194.747841 122.625127 195.588672 
C 121.784295 196.429504 121.311855 197.570076 121.311855 198.75919 
C 121.311855 199.948305 121.784295 201.088877 122.625127 201.929708 
C 123.465958 202.77054 124.60653 203.24298 125.795645 203.24298 
z
" clip-path="url(#p055ea27f90)" style="fill: #bc80bd; fill-opacity: 0.75; stroke: #000000; stroke-opacity: 0.75; stroke-width: 0.8"/>
    <path d="M 103.37812 172.064608 
C 104.442922 172.064608 105.464255 171.641558 106.217184 170.88863 
C 106.970112 170.135701 107.393162 169.114368 107.393162 168.049566 
C 107.393162 166.984765 106.970112 165.963431 106.217184 165.210503 
C 105.464255 164.457574 104.442922 164.034524 103.37812 164.034524 
C 102.313319 164.034524 101.291985 164.457574 100.539057 165.210503 
C 99.786129 165.963431 99.363078 166.984765 99.363078 168.049566 
C 99.363078 169.114368 99.786129 170.135701 100.539057 170.88863 
C 101.291985 171.641558 102.313319 172.064608 103.37812 172.064608 
z
" clip-path="url(#p055ea27f90)" style="fill: #bc80bd; fill-opacity: 0.75; stroke: #000000; stroke-opacity: 0.75; stroke-width: 0.8"/>
    <path d="M 117.076217 145.256554 
C 118.152746 145.256554 119.185328 144.828845 119.946549 144.067624 
C 120.707769 143.306403 121.135479 142.273821 121.135479 141.197292 
C 121.135479 140.120763 120.707769 139.088181 119.946549 138.32696 
C 119.185328 137.56574 118.152746 137.13803 117.076217 137.13803 
C 115.999688 137.13803 114.967106 137.56574 114.205885 138.32696 
C 113.444664 139.088181 113.016955 140.120763 113.016955 141.197292 
C 113.016955 142.273821 113.444664 143.306403 114.205885 144.067624 
C 114.967106 144.828845 115.999688 145.256554 117.076217 145.256554 
z
" clip-path="url(#p055ea27f90)" style="fill: #bc80bd; fill-opacity: 0.75; stroke: #000000; stroke-opacity: 0.75; stroke-width: 0.8"/>
    <path d="M 106.406954 126.432742 
C 107.514396 126.432742 108.57663 125.992751 109.35971 125.20967 
C 110.14279 124.42659 110.582782 123.364356 110.582782 122.256914 
C 110.582782 121.149471 110.14279 120.087237 109.35971 119.304157 
C 108.57663 118.521077 107.514396 118.081085 106.406954 118.081085 
C 105.299511 118.081085 104.237277 118.521077 103.454197 119.304157 
C 102.671117 120.087237 102.231125 121.149471 102.231125 122.256914 
C 102.231125 123.364356 102.671117 124.42659 103.454197 125.20967 
C 104.237277 125.992751 105.299511 126.432742 106.406954 126.432742 
z
" clip-path="url(#p055ea27f90)" style="fill: #bc80bd; fill-opacity: 0.75; stroke: #000000; stroke-opacity: 0.75; stroke-width: 0.8"/>
    <path d="M 136.77481 170.715262 
C 137.845206 170.715262 138.871905 170.289989 139.628789 169.533105 
C 140.385674 168.776221 140.810946 167.749521 140.810946 166.679125 
C 140.810946 165.60873 140.385674 164.58203 139.628789 163.825146 
C 138.871905 163.068262 137.845206 162.642989 136.77481 162.642989 
C 135.704414 162.642989 134.677715 163.068262 133.920831 163.825146 
C 133.163947 164.58203 132.738674 165.60873 132.738674 166.679125 
C 132.738674 167.749521 133.163947 168.776221 133.920831 169.533105 
C 134.677715 170.289989 135.704414 170.715262 136.77481 170.715262 
z
" clip-path="url(#p055ea27f90)" style="fill: #bc80bd; fill-opacity: 0.75; stroke: #000000; stroke-opacity: 0.75; stroke-width: 0.8"/>
    <path d="M 156.345779 143.3238 
C 157.456141 143.3238 158.521175 142.882648 159.30632 142.097504 
C 160.091464 141.312359 160.532616 140.247325 160.532616 139.136963 
C 160.532616 138.026601 160.091464 136.961567 159.30632 136.176423 
C 158.521175 135.391278 157.456141 134.950127 156.345779 134.950127 
C 155.235417 134.950127 154.170383 135.391278 153.385239 136.176423 
C 152.600094 136.961567 152.158943 138.026601 152.158943 139.136963 
C 152.158943 140.247325 152.600094 141.312359 153.385239 142.097504 
C 154.170383 142.882648 155.235417 143.3238 156.345779 143.3238 
z
" clip-path="url(#p055ea27f90)" style="fill: #bc80bd; fill-opacity: 0.75; stroke: #000000; stroke-opacity: 0.75; stroke-width: 0.8"/>
    <path d="M 149.6337 181.159497 
C 150.74715 181.159497 151.815146 180.717118 152.602474 179.92979 
C 153.389802 179.142463 153.83218 178.074467 153.83218 176.961017 
C 153.83218 175.847567 153.389802 174.779571 152.602474 173.992243 
C 151.815146 173.204915 150.74715 172.762537 149.6337 172.762537 
C 148.52025 172.762537 147.452254 173.204915 146.664926 173.992243 
C 145.877598 174.779571 145.43522 175.847567 145.43522 176.961017 
C 145.43522 178.074467 145.877598 179.142463 146.664926 179.92979 
C 147.452254 180.717118 148.52025 181.159497 149.6337 181.159497 
z
" clip-path="url(#p055ea27f90)" style="fill: #bc80bd; fill-opacity: 0.75; stroke: #000000; stroke-opacity: 0.75; stroke-width: 0.8"/>
    <path d="M 118.176873 120.653681 
C 119.337632 120.653681 120.451005 120.192507 121.271785 119.371727 
C 122.092566 118.550946 122.55374 117.437573 122.55374 116.276814 
C 122.55374 115.116055 122.092566 114.002682 121.271785 113.181901 
C 120.451005 112.361121 119.337632 111.899946 118.176873 111.899946 
C 117.016114 111.899946 115.902741 112.361121 115.08196 113.181901 
C 114.26118 114.002682 113.800005 115.116055 113.800005 116.276814 
C 113.800005 117.437573 114.26118 118.550946 115.08196 119.371727 
C 115.902741 120.192507 117.016114 120.653681 118.176873 120.653681 
z
" clip-path="url(#p055ea27f90)" style="fill: #bc80bd; fill-opacity: 0.75; stroke: #000000; stroke-opacity: 0.75; stroke-width: 0.8"/>
    <path d="M 115.019222 173.193477 
C 116.088284 173.193477 117.113704 172.768734 117.869645 172.012794 
C 118.625585 171.256853 119.050328 170.231433 119.050328 169.162371 
C 119.050328 168.09331 118.625585 167.06789 117.869645 166.311949 
C 117.113704 165.556008 116.088284 165.131265 115.019222 165.131265 
C 113.95016 165.131265 112.924741 165.556008 112.1688 166.311949 
C 111.412859 167.06789 110.988116 168.09331 110.988116 169.162371 
C 110.988116 170.231433 111.412859 171.256853 112.1688 172.012794 
C 112.924741 172.768734 113.95016 173.193477 115.019222 173.193477 
z
" clip-path="url(#p055ea27f90)" style="fill: #bc80bd; fill-opacity: 0.75; stroke: #000000; stroke-opacity: 0.75; stroke-width: 0.8"/>
    <path d="M 128.244543 136.542674 
C 129.357102 136.542674 130.424242 136.10065 131.21094 135.313953 
C 131.997637 134.527255 132.439661 133.460115 132.439661 132.347557 
C 132.439661 131.234998 131.997637 130.167858 131.21094 129.38116 
C 130.424242 128.594463 129.357102 128.152439 128.244543 128.152439 
C 127.131985 128.152439 126.064845 128.594463 125.278147 129.38116 
C 124.49145 130.167858 124.049426 131.234998 124.049426 132.347557 
C 124.049426 133.460115 124.49145 134.527255 125.278147 135.313953 
C 126.064845 136.10065 127.131985 136.542674 128.244543 136.542674 
z
" clip-path="url(#p055ea27f90)" style="fill: #bc80bd; fill-opacity: 0.75; stroke: #000000; stroke-opacity: 0.75; stroke-width: 0.8"/>
    <path d="M 100.414511 174.242052 
C 101.48007 174.242052 102.502129 173.818701 103.255593 173.065237 
C 104.009057 172.311773 104.432408 171.289714 104.432408 170.224155 
C 104.432408 169.158596 104.009057 168.136537 103.255593 167.383073 
C 102.502129 166.629609 101.48007 166.206258 100.414511 166.206258 
C 99.348952 166.206258 98.326893 166.629609 97.573429 167.383073 
C 96.819965 168.136537 96.396614 169.158596 96.396614 170.224155 
C 96.396614 171.289714 96.819965 172.311773 97.573429 173.065237 
C 98.326893 173.818701 99.348952 174.242052 100.414511 174.242052 
z
" clip-path="url(#p055ea27f90)" style="fill: #bc80bd; fill-opacity: 0.75; stroke: #000000; stroke-opacity: 0.75; stroke-width: 0.8"/>
    <path d="M 142.704708 125.196001 
C 143.913182 125.196001 145.072322 124.71587 145.926841 123.86135 
C 146.781361 123.006831 147.261492 121.847691 147.261492 120.639218 
C 147.261492 119.430744 146.781361 118.271604 145.926841 117.417085 
C 145.072322 116.562565 143.913182 116.082434 142.704708 116.082434 
C 141.496235 116.082434 140.337095 116.562565 139.482576 117.417085 
C 138.628056 118.271604 138.147925 119.430744 138.147925 120.639218 
C 138.147925 121.847691 138.628056 123.006831 139.482576 123.86135 
C 140.337095 124.71587 141.496235 125.196001 142.704708 125.196001 
z
" clip-path="url(#p055ea27f90)" style="fill: #bc80bd; fill-opacity: 0.75; stroke: #000000; stroke-opacity: 0.75; stroke-width: 0.8"/>
   </g>
   <g id="matplotlib.axis_1">
    <g id="xtick_1">
     <g id="line2d_1">
      <defs>
       <path id="m1df92bb35d" d="M 0 0 
L 0 3.5 
" style="stroke: #323034; stroke-width: 0.8"/>
      </defs>
      <g>
       <use xlink:href="#m1df92bb35d" x="45.88" y="290.2395" style="fill: #323034; stroke: #323034; stroke-width: 0.8"/>
      </g>
     </g>
     <g id="text_1">
      <!-- $\mathdefault{−0.1}$ -->
      <g style="fill: #323034" transform="translate(34.24 305.435125)scale(0.12 -0.12)">
       <defs>
        <path id="STIXGeneral-Regular-2212" d="M 3974 1408 
L 410 1408 
L 410 1830 
L 3974 1830 
L 3974 1408 
z
" transform="scale(0.015625)"/>
        <path id="STIXGeneral-Regular-30" d="M 3046 2112 
Q 3046 1683 2963 1302 
Q 2880 922 2717 602 
Q 2554 282 2266 96 
Q 1978 -90 1600 -90 
Q 1210 -90 915 108 
Q 621 307 461 640 
Q 301 973 227 1350 
Q 154 1728 154 2150 
Q 154 2746 301 3222 
Q 448 3699 790 4012 
Q 1133 4326 1626 4326 
Q 2253 4326 2649 3712 
Q 3046 3098 3046 2112 
z
M 2432 2080 
Q 2432 3091 2217 3625 
Q 2003 4160 1587 4160 
Q 1190 4160 979 3622 
Q 768 3085 768 2106 
Q 768 1120 979 598 
Q 1190 77 1600 77 
Q 2003 77 2217 598 
Q 2432 1120 2432 2080 
z
" transform="scale(0.015625)"/>
        <path id="STIXGeneral-Regular-2e" d="M 1158 275 
Q 1158 134 1052 32 
Q 947 -70 800 -70 
Q 653 -70 550 32 
Q 448 134 448 281 
Q 448 429 553 534 
Q 659 640 806 640 
Q 947 640 1052 531 
Q 1158 422 1158 275 
z
" transform="scale(0.015625)"/>
        <path id="STIXGeneral-Regular-31" d="M 2522 0 
L 755 0 
L 755 96 
Q 1107 115 1235 227 
Q 1363 339 1363 608 
L 1363 3482 
Q 1363 3795 1171 3795 
Q 1082 3795 883 3718 
L 710 3654 
L 710 3744 
L 1856 4326 
L 1914 4307 
L 1914 486 
Q 1914 275 2042 185 
Q 2170 96 2522 96 
L 2522 0 
z
" transform="scale(0.015625)"/>
       </defs>
       <use xlink:href="#STIXGeneral-Regular-2212" transform="translate(0 0.40625)"/>
       <use xlink:href="#STIXGeneral-Regular-30" transform="translate(68.499985 0.40625)"/>
       <use xlink:href="#STIXGeneral-Regular-2e" transform="translate(118.499969 0.40625)"/>
       <use xlink:href="#STIXGeneral-Regular-31" transform="translate(143.499954 0.40625)"/>
      </g>
     </g>
    </g>
    <g id="xtick_2">
     <g id="line2d_2">
      <g>
       <use xlink:href="#m1df92bb35d" x="85.56" y="290.2395" style="fill: #323034; stroke: #323034; stroke-width: 0.8"/>
      </g>
     </g>
     <g id="text_2">
      <!-- $\mathdefault{0.0}$ -->
      <g style="fill: #323034" transform="translate(78.06 305.435125)scale(0.12 -0.12)">
       <use xlink:href="#STIXGeneral-Regular-30" transform="translate(0 0.40625)"/>
       <use xlink:href="#STIXGeneral-Regular-2e" transform="translate(49.999985 0.40625)"/>
       <use xlink:href="#STIXGeneral-Regular-30" transform="translate(74.999969 0.40625)"/>
      </g>
     </g>
    </g>
    <g id="xtick_3">
     <g id="line2d_3">
      <g>
       <use xlink:href="#m1df92bb35d" x="125.24" y="290.2395" style="fill: #323034; stroke: #323034; stroke-width: 0.8"/>
      </g>
     </g>
     <g id="text_3">
      <!-- $\mathdefault{0.1}$ -->
      <g style="fill: #323034" transform="translate(117.74 305.435125)scale(0.12 -0.12)">
       <use xlink:href="#STIXGeneral-Regular-30" transform="translate(0 0.40625)"/>
       <use xlink:href="#STIXGeneral-Regular-2e" transform="translate(49.999985 0.40625)"/>
       <use xlink:href="#STIXGeneral-Regular-31" transform="translate(74.999969 0.40625)"/>
      </g>
     </g>
    </g>
    <g id="xtick_4">
     <g id="line2d_4">
      <g>
       <use xlink:href="#m1df92bb35d" x="164.92" y="290.2395" style="fill: #323034; stroke: #323034; stroke-width: 0.8"/>
      </g>
     </g>
     <g id="text_4">
      <!-- $\mathdefault{0.2}$ -->
      <g style="fill: #323034" transform="translate(157.42 305.435125)scale(0.12 -0.12)">
       <defs>
        <path id="STIXGeneral-Regular-32" d="M 3034 877 
L 2688 0 
L 186 0 
L 186 77 
L 1325 1286 
Q 1773 1754 1965 2144 
Q 2157 2534 2157 2950 
Q 2157 3379 1920 3616 
Q 1683 3853 1267 3853 
Q 922 3853 720 3673 
Q 518 3494 326 3021 
L 192 3053 
Q 301 3648 630 3987 
Q 960 4326 1523 4326 
Q 2054 4326 2380 4006 
Q 2707 3686 2707 3200 
Q 2707 2477 1888 1613 
L 832 486 
L 2330 486 
Q 2541 486 2665 569 
Q 2790 653 2944 915 
L 3034 877 
z
" transform="scale(0.015625)"/>
       </defs>
       <use xlink:href="#STIXGeneral-Regular-30" transform="translate(0 0.40625)"/>
       <use xlink:href="#STIXGeneral-Regular-2e" transform="translate(49.999985 0.40625)"/>
       <use xlink:href="#STIXGeneral-Regular-32" transform="translate(74.999969 0.40625)"/>
      </g>
     </g>
    </g>
    <g id="xtick_5">
     <g id="line2d_5">
      <g>
       <use xlink:href="#m1df92bb35d" x="204.6" y="290.2395" style="fill: #323034; stroke: #323034; stroke-width: 0.8"/>
      </g>
     </g>
     <g id="text_5">
      <!-- $\mathdefault{0.3}$ -->
      <g style="fill: #323034" transform="translate(197.1 305.435125)scale(0.12 -0.12)">
       <defs>
        <path id="STIXGeneral-Regular-33" d="M 390 3264 
L 288 3290 
Q 435 3770 748 4048 
Q 1062 4326 1542 4326 
Q 1990 4326 2265 4083 
Q 2541 3840 2541 3450 
Q 2541 2925 1946 2566 
Q 2298 2413 2477 2227 
Q 2758 1914 2758 1402 
Q 2758 890 2464 506 
Q 2246 211 1840 60 
Q 1434 -90 979 -90 
Q 262 -90 262 275 
Q 262 378 339 442 
Q 416 506 525 506 
Q 685 506 915 339 
Q 1197 141 1466 141 
Q 1818 141 2058 425 
Q 2298 710 2298 1120 
Q 2298 1856 1632 2048 
Q 1434 2112 979 2112 
L 979 2202 
Q 1338 2323 1517 2432 
Q 2035 2726 2035 3290 
Q 2035 3610 1852 3776 
Q 1670 3942 1344 3942 
Q 768 3942 390 3264 
z
" transform="scale(0.015625)"/>
       </defs>
       <use xlink:href="#STIXGeneral-Regular-30" transform="translate(0 0.40625)"/>
       <use xlink:href="#STIXGeneral-Regular-2e" transform="translate(49.999985 0.40625)"/>
       <use xlink:href="#STIXGeneral-Regular-33" transform="translate(74.999969 0.40625)"/>
      </g>
     </g>
    </g>
    <g id="xtick_6">
     <g id="line2d_6">
      <g>
       <use xlink:href="#m1df92bb35d" x="244.28" y="290.2395" style="fill: #323034; stroke: #323034; stroke-width: 0.8"/>
      </g>
     </g>
     <g id="text_6">
      <!-- $\mathdefault{0.4}$ -->
      <g style="fill: #323034" transform="translate(236.78 305.435125)scale(0.12 -0.12)">
       <defs>
        <path id="STIXGeneral-Regular-34" d="M 3027 1069 
L 2368 1069 
L 2368 0 
L 1869 0 
L 1869 1069 
L 77 1069 
L 77 1478 
L 2086 4326 
L 2368 4326 
L 2368 1478 
L 3027 1478 
L 3027 1069 
z
M 1869 1478 
L 1869 3674 
L 333 1478 
L 1869 1478 
z
" transform="scale(0.015625)"/>
       </defs>
       <use xlink:href="#STIXGeneral-Regular-30" transform="translate(0 0.40625)"/>
       <use xlink:href="#STIXGeneral-Regular-2e" transform="translate(49.999985 0.40625)"/>
       <use xlink:href="#STIXGeneral-Regular-34" transform="translate(74.999969 0.40625)"/>
      </g>
     </g>
    </g>
    <g id="xtick_7">
     <g id="line2d_7">
      <g>
       <use xlink:href="#m1df92bb35d" x="283.96" y="290.2395" style="fill: #323034; stroke: #323034; stroke-width: 0.8"/>
      </g>
     </g>
     <g id="text_7">
      <!-- $\mathdefault{0.5}$ -->
      <g style="fill: #323034" transform="translate(276.46 305.435125)scale(0.12 -0.12)">
       <defs>
        <path id="STIXGeneral-Regular-35" d="M 2803 4358 
L 2573 3814 
Q 2534 3731 2400 3731 
L 1158 3731 
L 902 3187 
Q 1606 3053 1920 2896 
Q 2234 2739 2502 2368 
Q 2726 2061 2726 1555 
Q 2726 1094 2576 780 
Q 2426 467 2099 224 
Q 1664 -90 1011 -90 
Q 646 -90 422 19 
Q 198 128 198 307 
Q 198 550 486 550 
Q 717 550 960 352 
Q 1210 147 1414 147 
Q 1747 147 2012 480 
Q 2278 813 2278 1229 
Q 2278 1843 1850 2189 
Q 1293 2637 486 2637 
Q 410 2637 410 2688 
L 416 2720 
L 1114 4237 
L 2438 4237 
Q 2547 4237 2608 4269 
Q 2669 4301 2746 4403 
L 2803 4358 
z
" transform="scale(0.015625)"/>
       </defs>
       <use xlink:href="#STIXGeneral-Regular-30" transform="translate(0 0.203125)"/>
       <use xlink:href="#STIXGeneral-Regular-2e" transform="translate(49.999985 0.203125)"/>
       <use xlink:href="#STIXGeneral-Regular-35" transform="translate(74.999969 0.203125)"/>
      </g>
     </g>
    </g>
    <g id="xtick_8">
     <g id="line2d_8">
      <g>
       <use xlink:href="#m1df92bb35d" x="323.64" y="290.2395" style="fill: #323034; stroke: #323034; stroke-width: 0.8"/>
      </g>
     </g>
     <g id="text_8">
      <!-- $\mathdefault{0.6}$ -->
      <g style="fill: #323034" transform="translate(316.14 305.435125)scale(0.12 -0.12)">
       <defs>
        <path id="STIXGeneral-Regular-36" d="M 2854 4378 
L 2867 4275 
Q 2112 4154 1606 3664 
Q 1101 3174 973 2451 
Q 1344 2739 1786 2739 
Q 2349 2739 2672 2380 
Q 2995 2022 2995 1402 
Q 2995 774 2669 378 
Q 2291 -90 1651 -90 
Q 870 -90 518 557 
Q 218 1107 218 1786 
Q 218 2835 915 3552 
Q 1312 3962 1731 4131 
Q 2150 4301 2854 4378 
z
M 2419 1203 
Q 2419 2445 1555 2445 
Q 1235 2445 1024 2275 
Q 813 2106 813 1702 
Q 813 954 1046 522 
Q 1280 90 1722 90 
Q 2061 90 2240 394 
Q 2419 698 2419 1203 
z
" transform="scale(0.015625)"/>
       </defs>
       <use xlink:href="#STIXGeneral-Regular-30" transform="translate(0 0.59375)"/>
       <use xlink:href="#STIXGeneral-Regular-2e" transform="translate(49.999985 0.59375)"/>
       <use xlink:href="#STIXGeneral-Regular-36" transform="translate(74.999969 0.59375)"/>
      </g>
     </g>
    </g>
    <g id="xtick_9">
     <g id="line2d_9">
      <g>
       <use xlink:href="#m1df92bb35d" x="363.32" y="290.2395" style="fill: #323034; stroke: #323034; stroke-width: 0.8"/>
      </g>
     </g>
     <g id="text_9">
      <!-- $\mathdefault{0.7}$ -->
      <g style="fill: #323034" transform="translate(355.82 305.435125)scale(0.12 -0.12)">
       <defs>
        <path id="STIXGeneral-Regular-37" d="M 2874 4134 
L 1517 -51 
L 1101 -51 
L 2368 3763 
L 992 3763 
Q 717 3763 582 3667 
Q 448 3571 243 3238 
L 128 3296 
L 512 4237 
L 2874 4237 
L 2874 4134 
z
" transform="scale(0.015625)"/>
       </defs>
       <use xlink:href="#STIXGeneral-Regular-30" transform="translate(0 0.40625)"/>
       <use xlink:href="#STIXGeneral-Regular-2e" transform="translate(49.999985 0.40625)"/>
       <use xlink:href="#STIXGeneral-Regular-37" transform="translate(74.999969 0.40625)"/>
      </g>
     </g>
    </g>
    <g id="xtick_10">
     <g id="line2d_10">
      <g>
       <use xlink:href="#m1df92bb35d" x="403" y="290.2395" style="fill: #323034; stroke: #323034; stroke-width: 0.8"/>
      </g>
     </g>
     <g id="text_10">
      <!-- $\mathdefault{0.8}$ -->
      <g style="fill: #323034" transform="translate(395.5 305.435125)scale(0.12 -0.12)">
       <defs>
        <path id="STIXGeneral-Regular-38" d="M 2848 992 
Q 2848 499 2505 204 
Q 2163 -90 1587 -90 
Q 1050 -90 704 204 
Q 358 499 358 954 
Q 358 1293 524 1533 
Q 691 1773 1190 2125 
Q 710 2522 553 2765 
Q 397 3008 397 3328 
Q 397 3782 745 4054 
Q 1094 4326 1638 4326 
Q 2106 4326 2410 4060 
Q 2714 3795 2714 3411 
Q 2714 3059 2531 2848 
Q 2349 2637 1856 2374 
Q 2432 1990 2640 1689 
Q 2848 1389 2848 992 
z
M 2272 3411 
Q 2272 3744 2086 3945 
Q 1901 4147 1574 4147 
Q 1248 4147 1059 3977 
Q 870 3808 870 3513 
Q 870 3219 1059 2979 
Q 1248 2739 1670 2490 
Q 1997 2682 2134 2896 
Q 2272 3110 2272 3411 
z
M 1734 1741 
L 1357 1997 
Q 1075 1766 960 1545 
Q 845 1325 845 1011 
Q 845 576 1065 333 
Q 1286 90 1658 90 
Q 1971 90 2166 285 
Q 2362 480 2362 794 
Q 2362 1082 2214 1299 
Q 2067 1517 1734 1741 
z
" transform="scale(0.015625)"/>
       </defs>
       <use xlink:href="#STIXGeneral-Regular-30" transform="translate(0 0.40625)"/>
       <use xlink:href="#STIXGeneral-Regular-2e" transform="translate(49.999985 0.40625)"/>
       <use xlink:href="#STIXGeneral-Regular-38" transform="translate(74.999969 0.40625)"/>
      </g>
     </g>
    </g>
    <g id="text_11">
     <!-- H Leverage -->
     <g transform="translate(186.9025 321.952)scale(0.16 -0.16)">
      <defs>
       <path id="STIXGeneral-Regular-48" d="M 4499 0 
L 2714 0 
L 2714 122 
Q 3085 147 3181 265 
Q 3277 384 3277 794 
L 3277 2016 
L 1338 2016 
L 1338 723 
Q 1338 371 1440 256 
Q 1542 141 1894 122 
L 1901 0 
L 115 0 
L 115 122 
Q 493 147 589 259 
Q 685 371 685 781 
L 685 3507 
Q 685 3878 585 3980 
Q 486 4083 115 4115 
L 115 4237 
L 1907 4237 
L 1907 4115 
Q 1549 4083 1443 3977 
Q 1338 3872 1338 3507 
L 1338 2298 
L 3277 2298 
L 3277 3507 
Q 3277 3878 3177 3980 
Q 3078 4083 2707 4115 
L 2707 4237 
L 4499 4237 
L 4499 4115 
Q 4141 4083 4035 3977 
Q 3930 3872 3930 3507 
L 3930 710 
Q 3930 371 4035 259 
Q 4141 147 4499 122 
L 4499 0 
z
" transform="scale(0.015625)"/>
       <path id="STIXGeneral-Regular-20" transform="scale(0.015625)"/>
       <path id="STIXGeneral-Regular-4c" d="M 3827 1114 
L 3520 0 
L 77 0 
L 77 122 
Q 429 141 531 256 
Q 634 371 634 736 
L 634 3494 
Q 634 3872 541 3981 
Q 448 4090 77 4115 
L 77 4237 
L 1888 4237 
L 1888 4115 
Q 1498 4090 1392 3984 
Q 1286 3878 1286 3507 
L 1286 538 
Q 1286 358 1398 304 
Q 1510 250 1862 250 
L 2310 250 
Q 3085 250 3392 640 
Q 3520 813 3661 1114 
L 3827 1114 
z
" transform="scale(0.015625)"/>
       <path id="STIXGeneral-Regular-65" d="M 2611 1050 
L 2714 1005 
Q 2330 -64 1376 -64 
Q 813 -64 486 329 
Q 160 723 160 1389 
Q 160 2074 525 2509 
Q 890 2944 1485 2944 
Q 2061 2944 2374 2502 
Q 2560 2246 2592 1773 
L 621 1773 
Q 646 1370 700 1158 
Q 755 947 915 730 
Q 1184 378 1626 378 
Q 1939 378 2153 531 
Q 2368 685 2611 1050 
z
M 634 1978 
L 1939 1978 
Q 1882 2381 1750 2547 
Q 1619 2714 1312 2714 
Q 1043 2714 864 2525 
Q 685 2336 634 1978 
z
" transform="scale(0.015625)"/>
       <path id="STIXGeneral-Regular-76" d="M 3053 2880 
L 3053 2784 
Q 2906 2771 2835 2688 
Q 2765 2605 2637 2285 
L 1818 230 
Q 1690 -90 1638 -90 
Q 1587 -90 1523 77 
Q 1510 96 1497 141 
Q 1485 186 1472 211 
L 704 2048 
Q 499 2534 403 2652 
Q 307 2771 122 2784 
L 122 2880 
L 1376 2880 
L 1376 2784 
Q 1210 2771 1146 2732 
Q 1082 2694 1082 2611 
Q 1082 2509 1139 2368 
L 1792 730 
L 2426 2387 
Q 2464 2483 2464 2579 
Q 2464 2758 2163 2784 
L 2163 2880 
L 3053 2880 
z
" transform="scale(0.015625)"/>
       <path id="STIXGeneral-Regular-72" d="M 1024 2931 
L 1024 2342 
Q 1267 2688 1430 2816 
Q 1594 2944 1792 2944 
Q 1958 2944 2051 2854 
Q 2144 2765 2144 2605 
Q 2144 2470 2077 2393 
Q 2010 2317 1894 2317 
Q 1773 2317 1638 2445 
Q 1536 2541 1472 2541 
Q 1338 2541 1181 2355 
Q 1024 2170 1024 2016 
L 1024 576 
Q 1024 301 1133 205 
Q 1242 109 1568 96 
L 1568 0 
L 32 0 
L 32 96 
Q 339 154 412 224 
Q 486 294 486 538 
L 486 2138 
Q 486 2349 438 2435 
Q 390 2522 269 2522 
Q 166 2522 45 2496 
L 45 2598 
Q 448 2726 992 2944 
L 1024 2931 
z
" transform="scale(0.015625)"/>
       <path id="STIXGeneral-Regular-61" d="M 2829 422 
L 2829 243 
Q 2586 -64 2253 -64 
Q 1888 -64 1843 403 
L 1837 403 
Q 1427 -64 909 -64 
Q 608 -64 422 112 
Q 237 288 237 602 
Q 237 1050 685 1350 
Q 992 1555 1837 1869 
L 1837 2214 
Q 1837 2502 1699 2646 
Q 1562 2790 1338 2790 
Q 1146 2790 1018 2697 
Q 890 2605 890 2477 
Q 890 2419 909 2348 
Q 928 2278 928 2208 
Q 928 2112 841 2029 
Q 755 1946 634 1946 
Q 525 1946 441 2029 
Q 358 2112 358 2240 
Q 358 2547 685 2752 
Q 986 2944 1421 2944 
Q 1939 2944 2176 2656 
Q 2291 2522 2323 2384 
Q 2355 2246 2355 1946 
L 2355 723 
Q 2355 301 2554 301 
Q 2682 301 2829 422 
z
M 1837 813 
L 1837 1715 
Q 1248 1510 1018 1293 
Q 800 1094 800 800 
Q 800 557 921 432 
Q 1043 307 1242 307 
Q 1453 307 1613 410 
Q 1747 506 1792 589 
Q 1837 672 1837 813 
z
" transform="scale(0.015625)"/>
       <path id="STIXGeneral-Regular-67" d="M 3008 2483 
L 2477 2483 
Q 2598 2208 2598 1946 
Q 2598 1453 2265 1203 
Q 1933 954 1600 954 
Q 1530 954 1357 973 
L 1235 986 
Q 1107 947 979 812 
Q 851 678 851 582 
Q 851 435 1350 410 
L 2176 371 
Q 2528 358 2739 172 
Q 2950 -13 2950 -314 
Q 2950 -685 2566 -986 
Q 2035 -1395 1286 -1395 
Q 826 -1395 502 -1212 
Q 179 -1030 179 -774 
Q 179 -595 320 -419 
Q 461 -243 806 6 
Q 602 102 534 172 
Q 467 243 467 346 
Q 467 531 762 787 
Q 909 915 1037 1043 
Q 717 1203 579 1401 
Q 442 1600 442 1901 
Q 442 2336 752 2640 
Q 1062 2944 1510 2944 
Q 1766 2944 2022 2848 
L 2163 2797 
Q 2349 2733 2515 2733 
L 3008 2733 
L 3008 2483 
z
M 973 2163 
L 973 2144 
Q 973 1683 1155 1398 
Q 1338 1114 1632 1114 
Q 1850 1114 1978 1270 
Q 2106 1427 2106 1690 
Q 2106 2112 1914 2464 
Q 1754 2765 1446 2765 
Q 1222 2765 1097 2605 
Q 973 2445 973 2163 
z
M 2771 -410 
Q 2771 -230 2595 -163 
Q 2419 -96 1978 -96 
Q 1344 -96 941 -13 
Q 749 -243 688 -348 
Q 627 -454 627 -563 
Q 627 -774 880 -902 
Q 1133 -1030 1555 -1030 
Q 2099 -1030 2435 -860 
Q 2771 -691 2771 -410 
z
" transform="scale(0.015625)"/>
      </defs>
      <use xlink:href="#STIXGeneral-Regular-48"/>
      <use xlink:href="#STIXGeneral-Regular-20" x="72.199982"/>
      <use xlink:href="#STIXGeneral-Regular-4c" x="97.199966"/>
      <use xlink:href="#STIXGeneral-Regular-65" x="158.299957"/>
      <use xlink:href="#STIXGeneral-Regular-76" x="202.699951"/>
      <use xlink:href="#STIXGeneral-Regular-65" x="252.699936"/>
      <use xlink:href="#STIXGeneral-Regular-72" x="297.09993"/>
      <use xlink:href="#STIXGeneral-Regular-61" x="330.399918"/>
      <use xlink:href="#STIXGeneral-Regular-67" x="374.799911"/>
      <use xlink:href="#STIXGeneral-Regular-65" x="424.799896"/>
     </g>
    </g>
   </g>
   <g id="matplotlib.axis_2">
    <g id="ytick_1">
     <g id="line2d_11">
      <defs>
       <path id="m93858d89ef" d="M 0 0 
L -3.5 0 
" style="stroke: #323034; stroke-width: 0.8"/>
      </defs>
      <g>
       <use xlink:href="#m93858d89ef" x="45.88" y="290.2395" style="fill: #323034; stroke: #323034; stroke-width: 0.8"/>
      </g>
     </g>
     <g id="text_12">
      <!-- $\mathdefault{−4}$ -->
      <g style="fill: #323034" transform="translate(24.6 294.337312)scale(0.12 -0.12)">
       <use xlink:href="#STIXGeneral-Regular-2212" transform="translate(0 0.40625)"/>
       <use xlink:href="#STIXGeneral-Regular-34" transform="translate(68.499985 0.40625)"/>
      </g>
     </g>
    </g>
    <g id="ytick_2">
     <g id="line2d_12">
      <g>
       <use xlink:href="#m93858d89ef" x="45.88" y="256.9755" style="fill: #323034; stroke: #323034; stroke-width: 0.8"/>
      </g>
     </g>
     <g id="text_13">
      <!-- $\mathdefault{−3}$ -->
      <g style="fill: #323034" transform="translate(24.6 261.073312)scale(0.12 -0.12)">
       <use xlink:href="#STIXGeneral-Regular-2212" transform="translate(0 0.40625)"/>
       <use xlink:href="#STIXGeneral-Regular-33" transform="translate(68.499985 0.40625)"/>
      </g>
     </g>
    </g>
    <g id="ytick_3">
     <g id="line2d_13">
      <g>
       <use xlink:href="#m93858d89ef" x="45.88" y="223.7115" style="fill: #323034; stroke: #323034; stroke-width: 0.8"/>
      </g>
     </g>
     <g id="text_14">
      <!-- $\mathdefault{−2}$ -->
      <g style="fill: #323034" transform="translate(24.6 227.809312)scale(0.12 -0.12)">
       <use xlink:href="#STIXGeneral-Regular-2212" transform="translate(0 0.40625)"/>
       <use xlink:href="#STIXGeneral-Regular-32" transform="translate(68.499985 0.40625)"/>
      </g>
     </g>
    </g>
    <g id="ytick_4">
     <g id="line2d_14">
      <g>
       <use xlink:href="#m93858d89ef" x="45.88" y="190.4475" style="fill: #323034; stroke: #323034; stroke-width: 0.8"/>
      </g>
     </g>
     <g id="text_15">
      <!-- $\mathdefault{−1}$ -->
      <g style="fill: #323034" transform="translate(24.6 194.545312)scale(0.12 -0.12)">
       <use xlink:href="#STIXGeneral-Regular-2212" transform="translate(0 0.40625)"/>
       <use xlink:href="#STIXGeneral-Regular-31" transform="translate(68.499985 0.40625)"/>
      </g>
     </g>
    </g>
    <g id="ytick_5">
     <g id="line2d_15">
      <g>
       <use xlink:href="#m93858d89ef" x="45.88" y="157.1835" style="fill: #323034; stroke: #323034; stroke-width: 0.8"/>
      </g>
     </g>
     <g id="text_16">
      <!-- $\mathdefault{0}$ -->
      <g style="fill: #323034" transform="translate(32.88 161.281312)scale(0.12 -0.12)">
       <use xlink:href="#STIXGeneral-Regular-30" transform="translate(0 0.40625)"/>
      </g>
     </g>
    </g>
    <g id="ytick_6">
     <g id="line2d_16">
      <g>
       <use xlink:href="#m93858d89ef" x="45.88" y="123.9195" style="fill: #323034; stroke: #323034; stroke-width: 0.8"/>
      </g>
     </g>
     <g id="text_17">
      <!-- $\mathdefault{1}$ -->
      <g style="fill: #323034" transform="translate(32.88 128.017312)scale(0.12 -0.12)">
       <use xlink:href="#STIXGeneral-Regular-31" transform="translate(0 0.40625)"/>
      </g>
     </g>
    </g>
    <g id="ytick_7">
     <g id="line2d_17">
      <g>
       <use xlink:href="#m93858d89ef" x="45.88" y="90.6555" style="fill: #323034; stroke: #323034; stroke-width: 0.8"/>
      </g>
     </g>
     <g id="text_18">
      <!-- $\mathdefault{2}$ -->
      <g style="fill: #323034" transform="translate(32.88 94.753312)scale(0.12 -0.12)">
       <use xlink:href="#STIXGeneral-Regular-32" transform="translate(0 0.40625)"/>
      </g>
     </g>
    </g>
    <g id="ytick_8">
     <g id="line2d_18">
      <g>
       <use xlink:href="#m93858d89ef" x="45.88" y="57.3915" style="fill: #323034; stroke: #323034; stroke-width: 0.8"/>
      </g>
     </g>
     <g id="text_19">
      <!-- $\mathdefault{3}$ -->
      <g style="fill: #323034" transform="translate(32.88 61.489312)scale(0.12 -0.12)">
       <use xlink:href="#STIXGeneral-Regular-33" transform="translate(0 0.40625)"/>
      </g>
     </g>
    </g>
    <g id="ytick_9">
     <g id="line2d_19">
      <g>
       <use xlink:href="#m93858d89ef" x="45.88" y="24.1275" style="fill: #323034; stroke: #323034; stroke-width: 0.8"/>
      </g>
     </g>
     <g id="text_20">
      <!-- $\mathdefault{4}$ -->
      <g style="fill: #323034" transform="translate(32.88 28.225312)scale(0.12 -0.12)">
       <use xlink:href="#STIXGeneral-Regular-34" transform="translate(0 0.40625)"/>
      </g>
     </g>
    </g>
    <g id="text_21">
     <!-- Studentized Residuals -->
     <g transform="translate(18.1275 228.0735)rotate(-90)scale(0.16 -0.16)">
      <defs>
       <path id="STIXGeneral-Regular-53" d="M 3002 2963 
L 2842 2963 
Q 2733 3360 2579 3565 
Q 2189 4064 1651 4064 
Q 1357 4064 1181 3894 
Q 1005 3725 1005 3456 
Q 1005 3328 1069 3206 
Q 1133 3085 1206 2998 
Q 1280 2912 1465 2784 
Q 1651 2656 1766 2589 
Q 1882 2522 2150 2362 
Q 2669 2061 2905 1763 
Q 3142 1466 3142 1107 
Q 3142 576 2771 243 
Q 2400 -90 1837 -90 
Q 1421 -90 1082 58 
Q 915 128 781 128 
Q 704 128 653 70 
Q 602 13 602 -83 
L 461 -83 
L 275 1274 
L 416 1274 
Q 845 141 1734 141 
Q 2074 141 2285 342 
Q 2496 544 2496 858 
Q 2496 1158 2310 1363 
Q 2003 1696 1235 2106 
Q 454 2522 454 3206 
Q 454 3718 768 4022 
Q 1082 4326 1568 4326 
Q 1907 4326 2240 4186 
Q 2413 4109 2522 4109 
Q 2688 4109 2726 4326 
L 2861 4326 
L 3002 2963 
z
" transform="scale(0.015625)"/>
       <path id="STIXGeneral-Regular-74" d="M 1702 493 
L 1786 422 
Q 1478 -64 1011 -64 
Q 448 -64 448 749 
L 448 2675 
L 109 2675 
Q 83 2694 83 2720 
Q 83 2771 192 2842 
Q 435 2982 813 3526 
Q 826 3546 874 3606 
Q 922 3667 941 3706 
Q 986 3706 986 3622 
L 986 2880 
L 1632 2880 
L 1632 2675 
L 986 2675 
L 986 845 
Q 986 538 1062 403 
Q 1139 269 1318 269 
Q 1510 269 1702 493 
z
" transform="scale(0.015625)"/>
       <path id="STIXGeneral-Regular-75" d="M 3072 320 
L 3072 230 
Q 2573 96 2195 -58 
L 2163 -38 
L 2163 486 
L 2150 486 
Q 1747 -64 1235 -64 
Q 870 -64 662 160 
Q 454 384 454 755 
L 454 2362 
Q 454 2598 371 2688 
Q 288 2778 58 2790 
L 58 2880 
L 992 2880 
L 992 813 
Q 992 595 1123 451 
Q 1254 307 1446 307 
Q 1760 307 1984 506 
Q 2067 582 2099 649 
Q 2131 717 2131 877 
L 2131 2355 
Q 2131 2605 2041 2678 
Q 1952 2752 1658 2771 
L 1658 2880 
L 2669 2880 
L 2669 685 
Q 2669 461 2742 390 
Q 2816 320 3034 320 
L 3072 320 
z
" transform="scale(0.015625)"/>
       <path id="STIXGeneral-Regular-64" d="M 3142 269 
L 2202 -64 
L 2176 -45 
L 2176 365 
Q 1869 -64 1357 -64 
Q 826 -64 499 317 
Q 173 698 173 1312 
Q 173 1990 563 2467 
Q 954 2944 1504 2944 
Q 1850 2944 2176 2669 
L 2176 3667 
Q 2176 3866 2118 3930 
Q 2061 3994 1882 3994 
Q 1792 3994 1741 3987 
L 1741 4090 
Q 2323 4243 2682 4371 
L 2714 4358 
L 2714 730 
Q 2714 506 2768 435 
Q 2822 365 2995 365 
Q 3034 365 3142 371 
L 3142 269 
z
M 2176 653 
L 2176 2125 
Q 2176 2381 1981 2573 
Q 1786 2765 1523 2765 
Q 1158 2765 940 2438 
Q 723 2112 723 1568 
Q 723 979 963 624 
Q 1203 269 1606 269 
Q 1907 269 2080 474 
Q 2176 582 2176 653 
z
" transform="scale(0.015625)"/>
       <path id="STIXGeneral-Regular-6e" d="M 3104 0 
L 1773 0 
L 1779 96 
Q 2016 115 2096 233 
Q 2176 352 2176 672 
L 2176 1946 
Q 2176 2592 1709 2592 
Q 1549 2592 1408 2515 
Q 1267 2438 1050 2227 
L 1050 461 
Q 1050 269 1136 192 
Q 1222 115 1466 96 
L 1466 0 
L 115 0 
L 115 96 
Q 358 115 435 214 
Q 512 314 512 602 
L 512 2157 
Q 512 2394 467 2483 
Q 422 2573 288 2573 
Q 160 2573 102 2547 
L 102 2656 
Q 550 2784 979 2944 
L 1030 2925 
L 1030 2426 
L 1037 2426 
Q 1491 2944 1958 2944 
Q 2323 2944 2518 2688 
Q 2714 2432 2714 1958 
L 2714 544 
Q 2714 288 2790 205 
Q 2867 122 3104 96 
L 3104 0 
z
" transform="scale(0.015625)"/>
       <path id="STIXGeneral-Regular-69" d="M 1152 4045 
Q 1152 3904 1056 3811 
Q 960 3718 819 3718 
Q 685 3718 592 3811 
Q 499 3904 499 4045 
Q 499 4179 595 4275 
Q 691 4371 826 4371 
Q 966 4371 1059 4275 
Q 1152 4179 1152 4045 
z
M 1619 0 
L 102 0 
L 102 96 
Q 435 115 521 211 
Q 608 307 608 666 
L 608 2118 
Q 608 2342 563 2432 
Q 518 2522 397 2522 
Q 243 2522 128 2490 
L 128 2592 
L 1120 2944 
L 1146 2918 
L 1146 672 
Q 1146 314 1226 218 
Q 1306 122 1619 96 
L 1619 0 
z
" transform="scale(0.015625)"/>
       <path id="STIXGeneral-Regular-7a" d="M 2675 870 
L 2579 0 
L 173 0 
L 173 96 
L 1875 2688 
L 1011 2688 
Q 710 2688 604 2582 
Q 499 2477 454 2125 
L 339 2125 
L 365 2880 
L 2579 2880 
L 2579 2784 
L 858 192 
L 1709 192 
Q 2246 192 2387 365 
Q 2477 474 2560 896 
L 2675 870 
z
" transform="scale(0.015625)"/>
       <path id="STIXGeneral-Regular-52" d="M 4224 0 
L 3187 0 
L 1664 1971 
L 1306 1958 
L 1306 717 
Q 1306 352 1405 249 
Q 1504 147 1875 122 
L 1875 0 
L 109 0 
L 109 122 
Q 474 154 563 262 
Q 653 371 653 794 
L 653 3526 
Q 653 3885 563 3987 
Q 474 4090 109 4115 
L 109 4237 
L 1850 4237 
Q 2726 4237 3187 3859 
Q 3501 3603 3501 3091 
Q 3501 2221 2342 2042 
L 3622 422 
Q 3757 256 3878 198 
Q 4000 141 4224 122 
L 4224 0 
z
M 1306 3731 
L 1306 2195 
Q 1766 2202 1990 2246 
Q 2214 2291 2438 2413 
Q 2803 2618 2803 3142 
Q 2803 4000 1632 4000 
Q 1459 4000 1382 3945 
Q 1306 3891 1306 3731 
z
" transform="scale(0.015625)"/>
       <path id="STIXGeneral-Regular-73" d="M 998 1926 
L 1664 1523 
Q 1984 1331 2105 1164 
Q 2227 998 2227 736 
Q 2227 416 1961 176 
Q 1696 -64 1331 -64 
Q 1030 -64 864 -6 
Q 691 51 570 51 
Q 461 51 416 -26 
L 333 -26 
L 333 979 
L 435 979 
Q 538 512 730 294 
Q 922 77 1248 77 
Q 1485 77 1632 211 
Q 1779 346 1779 550 
Q 1779 845 1440 1030 
L 1094 1222 
Q 326 1651 326 2150 
Q 326 2522 566 2730 
Q 806 2938 1210 2938 
Q 1491 2938 1638 2867 
Q 1754 2816 1818 2816 
Q 1862 2816 1920 2880 
L 1990 2880 
L 2022 2010 
L 1926 2010 
Q 1818 2445 1654 2621 
Q 1491 2797 1203 2797 
Q 986 2797 854 2688 
Q 723 2579 723 2362 
Q 723 2253 796 2128 
Q 870 2003 998 1926 
z
" transform="scale(0.015625)"/>
       <path id="STIXGeneral-Regular-6c" d="M 1645 0 
L 134 0 
L 134 96 
Q 435 122 531 221 
Q 627 320 627 589 
L 627 3590 
Q 627 3821 569 3910 
Q 512 4000 358 4000 
Q 224 4000 122 3987 
L 122 4090 
Q 730 4237 1133 4371 
L 1165 4346 
L 1165 557 
Q 1165 288 1254 201 
Q 1344 115 1645 96 
L 1645 0 
z
" transform="scale(0.015625)"/>
      </defs>
      <use xlink:href="#STIXGeneral-Regular-53"/>
      <use xlink:href="#STIXGeneral-Regular-74" x="55.599991"/>
      <use xlink:href="#STIXGeneral-Regular-75" x="83.399979"/>
      <use xlink:href="#STIXGeneral-Regular-64" x="133.399963"/>
      <use xlink:href="#STIXGeneral-Regular-65" x="183.399948"/>
      <use xlink:href="#STIXGeneral-Regular-6e" x="227.799942"/>
      <use xlink:href="#STIXGeneral-Regular-74" x="277.799927"/>
      <use xlink:href="#STIXGeneral-Regular-69" x="305.599915"/>
      <use xlink:href="#STIXGeneral-Regular-7a" x="333.399902"/>
      <use xlink:href="#STIXGeneral-Regular-65" x="377.799896"/>
      <use xlink:href="#STIXGeneral-Regular-64" x="422.19989"/>
      <use xlink:href="#STIXGeneral-Regular-20" x="472.199875"/>
      <use xlink:href="#STIXGeneral-Regular-52" x="497.19986"/>
      <use xlink:href="#STIXGeneral-Regular-65" x="563.899857"/>
      <use xlink:href="#STIXGeneral-Regular-73" x="608.29985"/>
      <use xlink:href="#STIXGeneral-Regular-69" x="647.199844"/>
      <use xlink:href="#STIXGeneral-Regular-64" x="674.999832"/>
      <use xlink:href="#STIXGeneral-Regular-75" x="724.999817"/>
      <use xlink:href="#STIXGeneral-Regular-61" x="774.999802"/>
      <use xlink:href="#STIXGeneral-Regular-6c" x="819.399796"/>
      <use xlink:href="#STIXGeneral-Regular-73" x="847.199783"/>
     </g>
    </g>
   </g>
   <g id="patch_3">
    <path d="M 45.88 290.2395 
L 45.88 24.1275 
" style="fill: none; stroke: #000000; stroke-width: 0.6; stroke-linejoin: miter; stroke-linecap: square"/>
   </g>
   <g id="patch_4">
    <path d="M 45.88 290.2395 
L 403 290.2395 
" style="fill: none; stroke: #000000; stroke-width: 0.6; stroke-linejoin: miter; stroke-linecap: square"/>
   </g>
   <g id="text_22">
    <!-- District of Columbia -->
    <g style="fill: #323034" transform="translate(346.357045 19.096318)scale(0.0864 -0.0864)">
     <defs>
      <path id="STIXGeneral-Regular-44" d="M 102 4237 
L 1830 4237 
Q 3078 4237 3750 3654 
Q 4384 3110 4384 2138 
Q 4384 966 3514 410 
Q 2880 0 1901 0 
L 102 0 
L 102 122 
Q 474 147 570 252 
Q 666 358 666 736 
L 666 3520 
Q 666 3891 570 3990 
Q 474 4090 102 4115 
L 102 4237 
z
M 1318 3731 
L 1318 538 
Q 1318 365 1379 301 
Q 1440 237 1626 237 
Q 2125 237 2432 307 
Q 2739 378 3021 570 
Q 3686 1018 3686 2099 
Q 3686 3027 3078 3558 
Q 2803 3802 2476 3901 
Q 2150 4000 1658 4000 
Q 1472 4000 1395 3942 
Q 1318 3885 1318 3731 
z
" transform="scale(0.015625)"/>
      <path id="STIXGeneral-Regular-63" d="M 2547 998 
L 2637 941 
Q 2362 403 2112 205 
Q 1786 -64 1376 -64 
Q 845 -64 502 336 
Q 160 736 160 1357 
Q 160 2170 698 2618 
Q 1094 2944 1562 2944 
Q 1965 2944 2256 2749 
Q 2547 2554 2547 2285 
Q 2547 2176 2457 2096 
Q 2368 2016 2246 2016 
Q 2022 2016 1939 2310 
L 1901 2451 
Q 1850 2630 1773 2694 
Q 1696 2758 1523 2758 
Q 1133 2758 893 2451 
Q 653 2144 653 1645 
Q 653 1094 928 745 
Q 1203 397 1645 397 
Q 1920 397 2118 528 
Q 2317 659 2547 998 
z
" transform="scale(0.015625)"/>
      <path id="STIXGeneral-Regular-6f" d="M 3008 1478 
Q 3008 806 2608 371 
Q 2208 -64 1568 -64 
Q 979 -64 582 368 
Q 186 800 186 1459 
Q 186 2125 582 2534 
Q 979 2944 1626 2944 
Q 2221 2944 2614 2537 
Q 3008 2131 3008 1478 
z
M 2432 1306 
Q 2432 2035 2112 2445 
Q 1856 2765 1504 2765 
Q 1171 2765 966 2493 
Q 762 2221 762 1747 
Q 762 928 1101 435 
Q 1318 115 1677 115 
Q 2029 115 2230 432 
Q 2432 749 2432 1306 
z
" transform="scale(0.015625)"/>
      <path id="STIXGeneral-Regular-66" d="M 134 2880 
L 659 2880 
Q 666 3264 710 3478 
Q 755 3693 883 3910 
Q 1152 4371 1786 4371 
Q 2074 4371 2262 4259 
Q 2451 4147 2451 3974 
Q 2451 3866 2374 3789 
Q 2298 3712 2182 3712 
Q 2029 3712 1894 3942 
Q 1741 4192 1555 4192 
Q 1197 4192 1197 3622 
L 1197 2880 
L 1978 2880 
L 1978 2675 
L 1197 2675 
L 1197 666 
Q 1197 307 1299 208 
Q 1402 109 1792 96 
L 1792 0 
L 128 0 
L 128 96 
Q 474 115 566 214 
Q 659 314 659 666 
L 659 2675 
L 134 2675 
L 134 2880 
z
" transform="scale(0.015625)"/>
      <path id="STIXGeneral-Regular-43" d="M 3930 838 
L 4051 723 
Q 3482 -90 2304 -90 
Q 1376 -90 794 480 
Q 179 1082 179 2080 
Q 179 3014 755 3661 
Q 1357 4326 2310 4326 
Q 2720 4326 3072 4230 
Q 3475 4115 3514 4115 
Q 3725 4115 3782 4326 
L 3910 4326 
L 3968 2874 
L 3821 2874 
Q 3718 3334 3488 3584 
Q 3034 4070 2458 4070 
Q 1747 4070 1334 3548 
Q 922 3027 922 2182 
Q 922 1152 1382 653 
Q 1811 192 2522 192 
Q 2944 192 3251 339 
Q 3558 486 3930 838 
z
" transform="scale(0.015625)"/>
      <path id="STIXGeneral-Regular-6d" d="M 4960 0 
L 3565 0 
L 3565 96 
Q 3834 122 3907 208 
Q 3981 294 3981 576 
L 3981 1894 
Q 3981 2278 3869 2444 
Q 3757 2611 3488 2611 
Q 3264 2611 3107 2521 
Q 2950 2432 2803 2221 
L 2803 608 
Q 2803 301 2896 201 
Q 2989 102 3264 96 
L 3264 0 
L 1830 0 
L 1830 96 
Q 2112 115 2189 188 
Q 2266 262 2266 550 
L 2266 1901 
Q 2266 2611 1850 2611 
Q 1670 2611 1468 2531 
Q 1267 2451 1171 2336 
Q 1088 2240 1088 2227 
L 1088 448 
Q 1088 243 1177 176 
Q 1267 109 1523 96 
L 1523 0 
L 102 0 
L 102 96 
Q 371 102 460 195 
Q 550 288 550 563 
L 550 2150 
Q 550 2387 499 2480 
Q 448 2573 326 2573 
Q 230 2573 122 2547 
L 122 2656 
Q 557 2778 1011 2944 
L 1062 2925 
L 1062 2451 
L 1075 2451 
Q 1363 2752 1584 2848 
Q 1805 2944 2054 2944 
Q 2560 2944 2733 2406 
Q 3232 2944 3776 2944 
Q 4518 2944 4518 1792 
L 4518 493 
Q 4518 282 4582 202 
Q 4646 122 4794 109 
L 4960 96 
L 4960 0 
z
" transform="scale(0.015625)"/>
      <path id="STIXGeneral-Regular-62" d="M 979 4358 
L 979 2406 
Q 1082 2650 1315 2797 
Q 1549 2944 1843 2944 
Q 2349 2944 2672 2541 
Q 2995 2138 2995 1536 
Q 2995 832 2566 384 
Q 2138 -64 1498 -64 
Q 1107 -64 774 67 
Q 442 198 442 358 
L 442 3622 
Q 442 3859 384 3926 
Q 326 3994 128 3994 
Q 83 3994 19 3981 
L 19 4090 
L 211 4147 
Q 864 4346 947 4371 
L 979 4358 
z
M 979 2035 
L 979 474 
Q 979 326 1161 233 
Q 1344 141 1600 141 
Q 1978 141 2195 416 
Q 2432 710 2432 1261 
Q 2432 1888 2182 2240 
Q 1971 2541 1613 2541 
Q 1357 2541 1168 2390 
Q 979 2240 979 2035 
z
" transform="scale(0.015625)"/>
     </defs>
     <use xlink:href="#STIXGeneral-Regular-44"/>
     <use xlink:href="#STIXGeneral-Regular-69" x="72.199982"/>
     <use xlink:href="#STIXGeneral-Regular-73" x="99.999969"/>
     <use xlink:href="#STIXGeneral-Regular-74" x="138.899963"/>
     <use xlink:href="#STIXGeneral-Regular-72" x="166.699951"/>
     <use xlink:href="#STIXGeneral-Regular-69" x="199.999939"/>
     <use xlink:href="#STIXGeneral-Regular-63" x="227.799927"/>
     <use xlink:href="#STIXGeneral-Regular-74" x="272.199921"/>
     <use xlink:href="#STIXGeneral-Regular-20" x="299.999908"/>
     <use xlink:href="#STIXGeneral-Regular-6f" x="324.999893"/>
     <use xlink:href="#STIXGeneral-Regular-66" x="374.999878"/>
     <use xlink:href="#STIXGeneral-Regular-20" x="408.299866"/>
     <use xlink:href="#STIXGeneral-Regular-43" x="433.29985"/>
     <use xlink:href="#STIXGeneral-Regular-6f" x="499.999847"/>
     <use xlink:href="#STIXGeneral-Regular-6c" x="549.999832"/>
     <use xlink:href="#STIXGeneral-Regular-75" x="577.79982"/>
     <use xlink:href="#STIXGeneral-Regular-6d" x="627.799805"/>
     <use xlink:href="#STIXGeneral-Regular-62" x="705.599792"/>
     <use xlink:href="#STIXGeneral-Regular-69" x="755.599777"/>
     <use xlink:href="#STIXGeneral-Regular-61" x="783.399765"/>
    </g>
   </g>
   <g id="text_23">
    <!-- Hawaii -->
    <g style="fill: #323034" transform="translate(105.981527 228.955968)scale(0.0864 -0.0864)">
     <defs>
      <path id="STIXGeneral-Regular-77" d="M 4442 2880 
L 4442 2784 
Q 4346 2752 4301 2691 
Q 4256 2630 4179 2438 
L 3296 224 
Q 3168 -90 3117 -90 
Q 3085 -90 3062 -48 
Q 3040 -6 2963 186 
L 2381 1696 
L 1664 160 
Q 1549 -90 1504 -90 
Q 1446 -90 1338 192 
L 474 2381 
Q 378 2630 314 2700 
Q 250 2771 134 2784 
L 134 2880 
L 1286 2880 
L 1286 2784 
Q 1120 2765 1056 2720 
Q 992 2675 992 2573 
Q 992 2477 1030 2381 
L 1664 710 
L 2246 1984 
L 2118 2342 
Q 2029 2598 1942 2681 
Q 1856 2765 1677 2784 
L 1677 2880 
L 2976 2880 
L 2976 2784 
Q 2752 2752 2678 2707 
Q 2605 2662 2605 2560 
Q 2605 2458 2714 2176 
L 3251 742 
L 3827 2163 
Q 3936 2432 3936 2592 
Q 3936 2669 3875 2710 
Q 3814 2752 3654 2784 
L 3654 2880 
L 4442 2880 
z
" transform="scale(0.015625)"/>
     </defs>
     <use xlink:href="#STIXGeneral-Regular-48"/>
     <use xlink:href="#STIXGeneral-Regular-61" x="72.199982"/>
     <use xlink:href="#STIXGeneral-Regular-77" x="116.599976"/>
     <use xlink:href="#STIXGeneral-Regular-61" x="188.799957"/>
     <use xlink:href="#STIXGeneral-Regular-69" x="233.199951"/>
     <use xlink:href="#STIXGeneral-Regular-69" x="260.999939"/>
    </g>
   </g>
   <g id="text_24">
    <!-- Illinois -->
    <g style="fill: #323034" transform="translate(94.723899 83.79728)scale(0.0864 -0.0864)">
     <defs>
      <path id="STIXGeneral-Regular-49" d="M 2016 0 
L 115 0 
L 115 122 
Q 518 134 627 240 
Q 736 346 736 717 
L 736 3526 
Q 736 3898 633 3994 
Q 531 4090 115 4115 
L 115 4237 
L 2016 4237 
L 2016 4115 
Q 1613 4096 1501 3993 
Q 1389 3891 1389 3526 
L 1389 717 
Q 1389 358 1504 246 
Q 1619 134 2016 122 
L 2016 0 
z
" transform="scale(0.015625)"/>
     </defs>
     <use xlink:href="#STIXGeneral-Regular-49"/>
     <use xlink:href="#STIXGeneral-Regular-6c" x="33.299988"/>
     <use xlink:href="#STIXGeneral-Regular-6c" x="61.099976"/>
     <use xlink:href="#STIXGeneral-Regular-69" x="88.899963"/>
     <use xlink:href="#STIXGeneral-Regular-6e" x="116.699951"/>
     <use xlink:href="#STIXGeneral-Regular-6f" x="166.699936"/>
     <use xlink:href="#STIXGeneral-Regular-69" x="216.699921"/>
     <use xlink:href="#STIXGeneral-Regular-73" x="244.499908"/>
    </g>
   </g>
   <g id="text_25">
    <!-- Louisiana -->
    <g style="fill: #323034" transform="translate(107.506244 74.501066)scale(0.0864 -0.0864)">
     <use xlink:href="#STIXGeneral-Regular-4c"/>
     <use xlink:href="#STIXGeneral-Regular-6f" x="61.099991"/>
     <use xlink:href="#STIXGeneral-Regular-75" x="111.099976"/>
     <use xlink:href="#STIXGeneral-Regular-69" x="161.09996"/>
     <use xlink:href="#STIXGeneral-Regular-73" x="188.899948"/>
     <use xlink:href="#STIXGeneral-Regular-69" x="227.799942"/>
     <use xlink:href="#STIXGeneral-Regular-61" x="255.59993"/>
     <use xlink:href="#STIXGeneral-Regular-6e" x="299.999924"/>
     <use xlink:href="#STIXGeneral-Regular-61" x="349.999908"/>
    </g>
   </g>
   <g id="text_26">
    <!-- Mississippi -->
    <g style="fill: #323034" transform="translate(160.540042 240.088887)scale(0.0864 -0.0864)">
     <defs>
      <path id="STIXGeneral-Regular-4d" d="M 5530 0 
L 3738 0 
L 3738 122 
Q 4115 147 4214 265 
Q 4314 384 4314 787 
L 4314 3661 
L 2682 0 
L 2592 0 
L 979 3514 
L 979 966 
Q 979 448 1088 294 
Q 1197 141 1574 122 
L 1574 0 
L 77 0 
L 77 122 
Q 358 141 480 205 
Q 602 269 650 432 
Q 698 595 698 966 
L 698 3514 
Q 698 3878 589 3984 
Q 480 4090 90 4115 
L 90 4237 
L 1357 4237 
L 2835 1024 
L 4250 4237 
L 5523 4237 
L 5523 4115 
Q 5178 4109 5072 3993 
Q 4966 3878 4966 3520 
L 4966 717 
Q 4966 378 5072 262 
Q 5178 147 5530 122 
L 5530 0 
z
" transform="scale(0.015625)"/>
      <path id="STIXGeneral-Regular-70" d="M 1018 2931 
L 1018 2438 
Q 1421 2944 1939 2944 
Q 2406 2944 2707 2560 
Q 3008 2176 3008 1581 
Q 3008 883 2621 409 
Q 2234 -64 1664 -64 
Q 1466 -64 1328 -6 
Q 1190 51 1018 211 
L 1018 -794 
Q 1018 -1094 1120 -1180 
Q 1222 -1267 1581 -1274 
L 1581 -1389 
L 32 -1389 
L 32 -1280 
Q 314 -1254 397 -1171 
Q 480 -1088 480 -838 
L 480 2157 
Q 480 2381 429 2451 
Q 378 2522 218 2522 
Q 115 2522 58 2515 
L 58 2618 
Q 506 2752 979 2944 
L 1018 2931 
z
M 1018 2138 
L 1018 563 
Q 1018 422 1238 281 
Q 1459 141 1683 141 
Q 2029 141 2243 467 
Q 2458 794 2458 1325 
Q 2458 1888 2243 2224 
Q 2029 2560 1670 2560 
Q 1446 2560 1232 2419 
Q 1018 2278 1018 2138 
z
" transform="scale(0.015625)"/>
     </defs>
     <use xlink:href="#STIXGeneral-Regular-4d"/>
     <use xlink:href="#STIXGeneral-Regular-69" x="88.899994"/>
     <use xlink:href="#STIXGeneral-Regular-73" x="116.699982"/>
     <use xlink:href="#STIXGeneral-Regular-73" x="155.599976"/>
     <use xlink:href="#STIXGeneral-Regular-69" x="194.499969"/>
     <use xlink:href="#STIXGeneral-Regular-73" x="222.299957"/>
     <use xlink:href="#STIXGeneral-Regular-73" x="261.199951"/>
     <use xlink:href="#STIXGeneral-Regular-69" x="300.099945"/>
     <use xlink:href="#STIXGeneral-Regular-70" x="327.899933"/>
     <use xlink:href="#STIXGeneral-Regular-70" x="377.899918"/>
     <use xlink:href="#STIXGeneral-Regular-69" x="427.899902"/>
    </g>
   </g>
   <g id="text_27">
    <!-- New York -->
    <g style="fill: #323034" transform="translate(99.813255 234.107307)scale(0.0864 -0.0864)">
     <defs>
      <path id="STIXGeneral-Regular-4e" d="M 4525 4237 
L 4525 4115 
Q 4198 4083 4102 4000 
Q 4000 3910 3958 3756 
Q 3917 3603 3917 3245 
L 3917 -70 
L 3802 -70 
L 979 3443 
L 979 960 
Q 979 474 1088 323 
Q 1197 173 1574 122 
L 1574 0 
L 77 0 
L 77 122 
Q 474 166 586 310 
Q 698 454 698 960 
L 698 3776 
Q 531 3981 416 4048 
Q 301 4115 77 4115 
L 77 4237 
L 1165 4237 
L 3635 1146 
L 3635 3322 
Q 3635 3808 3514 3949 
Q 3437 4032 3344 4061 
Q 3251 4090 3008 4115 
L 3008 4237 
L 4525 4237 
z
" transform="scale(0.015625)"/>
      <path id="STIXGeneral-Regular-59" d="M 4499 4237 
L 4499 4115 
Q 4218 4090 4054 3955 
Q 3891 3821 3616 3398 
L 2669 1939 
L 2669 710 
Q 2669 346 2790 243 
Q 2912 141 3328 122 
L 3328 0 
L 1370 0 
L 1370 122 
Q 1805 154 1910 259 
Q 2016 365 2016 787 
L 2016 1882 
L 1178 3110 
Q 742 3750 556 3926 
Q 371 4102 141 4115 
L 141 4237 
L 1926 4237 
L 1926 4115 
L 1773 4109 
Q 1472 4102 1472 3942 
Q 1472 3808 1587 3642 
L 2522 2227 
L 3450 3648 
Q 3539 3782 3539 3917 
Q 3533 4026 3440 4067 
Q 3347 4109 3104 4115 
L 3104 4237 
L 4499 4237 
z
" transform="scale(0.015625)"/>
      <path id="STIXGeneral-Regular-6b" d="M 3232 0 
L 1837 0 
L 1837 96 
L 1958 96 
Q 2093 96 2093 192 
Q 2093 250 2022 339 
L 1062 1606 
L 1062 429 
Q 1062 262 1142 185 
Q 1222 109 1414 102 
L 1542 96 
L 1542 0 
L 45 0 
L 45 96 
Q 390 154 457 214 
Q 525 275 525 525 
L 525 3610 
Q 525 3840 467 3920 
Q 410 4000 250 4000 
Q 211 4000 45 3987 
L 45 4090 
L 237 4141 
Q 621 4243 1037 4371 
L 1062 4358 
L 1062 1670 
L 1939 2451 
Q 2086 2586 2086 2675 
Q 2086 2739 2019 2761 
Q 1952 2784 1766 2790 
L 1766 2880 
L 3072 2880 
L 3072 2784 
Q 2752 2784 2505 2646 
Q 2259 2509 1690 1978 
L 1504 1805 
L 2483 563 
Q 2829 122 3232 96 
L 3232 0 
z
" transform="scale(0.015625)"/>
     </defs>
     <use xlink:href="#STIXGeneral-Regular-4e"/>
     <use xlink:href="#STIXGeneral-Regular-65" x="72.199982"/>
     <use xlink:href="#STIXGeneral-Regular-77" x="116.599976"/>
     <use xlink:href="#STIXGeneral-Regular-20" x="188.799957"/>
     <use xlink:href="#STIXGeneral-Regular-59" x="213.799942"/>
     <use xlink:href="#STIXGeneral-Regular-6f" x="285.999924"/>
     <use xlink:href="#STIXGeneral-Regular-72" x="335.999908"/>
     <use xlink:href="#STIXGeneral-Regular-6b" x="369.299896"/>
    </g>
   </g>
   <g id="text_28">
    <!-- Influence Plot -->
    <g transform="translate(45.88 18.1275)scale(0.16 -0.16)">
     <defs>
      <path id="STIXGeneral-Regular-50" d="M 102 4237 
L 1760 4237 
Q 2669 4237 3149 3834 
Q 3469 3565 3469 3072 
Q 3469 2560 3104 2234 
Q 2835 1990 2553 1916 
Q 2272 1843 1734 1843 
Q 1549 1843 1293 1862 
L 1293 717 
Q 1293 352 1398 246 
Q 1504 141 1894 122 
L 1894 0 
L 102 0 
L 102 122 
Q 474 147 557 256 
Q 640 365 640 781 
L 640 3526 
Q 640 3885 547 3987 
Q 454 4090 102 4115 
L 102 4237 
z
M 1293 3770 
L 1293 2118 
Q 1510 2099 1683 2099 
Q 2202 2099 2486 2352 
Q 2771 2605 2771 3040 
Q 2771 3558 2476 3779 
Q 2182 4000 1517 4000 
Q 1382 4000 1337 3952 
Q 1293 3904 1293 3770 
z
" transform="scale(0.015625)"/>
     </defs>
     <use xlink:href="#STIXGeneral-Regular-49"/>
     <use xlink:href="#STIXGeneral-Regular-6e" x="33.299988"/>
     <use xlink:href="#STIXGeneral-Regular-66" x="83.299973"/>
     <use xlink:href="#STIXGeneral-Regular-6c" x="116.59996"/>
     <use xlink:href="#STIXGeneral-Regular-75" x="144.399948"/>
     <use xlink:href="#STIXGeneral-Regular-65" x="194.399933"/>
     <use xlink:href="#STIXGeneral-Regular-6e" x="238.799927"/>
     <use xlink:href="#STIXGeneral-Regular-63" x="288.799911"/>
     <use xlink:href="#STIXGeneral-Regular-65" x="333.199905"/>
     <use xlink:href="#STIXGeneral-Regular-20" x="377.599899"/>
     <use xlink:href="#STIXGeneral-Regular-50" x="402.599884"/>
     <use xlink:href="#STIXGeneral-Regular-6c" x="458.299881"/>
     <use xlink:href="#STIXGeneral-Regular-6f" x="486.099869"/>
     <use xlink:href="#STIXGeneral-Regular-74" x="536.099854"/>
    </g>
   </g>
  </g>
 </g>
 <defs>
  <clipPath id="p055ea27f90">
   <rect x="45.88" y="24.1275" width="357.12" height="266.112"/>
  </clipPath>
 </defs>
</svg>
