<?xml version="1.0" encoding="UTF-8" standalone="no"?>
<!DOCTYPE svg PUBLIC "-//W3C//DTD SVG 1.1//EN"
 "http://www.w3.org/Graphics/SVG/1.1/DTD/svg11.dtd">
<!-- Generated by graphviz version 2.49.1 (20210923.0004)
 -->
<!-- Pages: 1 -->
<svg width="329pt" height="233pt"
 viewBox="0.00 0.00 329.12 232.91" xmlns="http://www.w3.org/2000/svg" xmlns:xlink="http://www.w3.org/1999/xlink">
<g id="graph0" class="graph" transform="scale(1 1) rotate(0) translate(4 228.91)">
<polygon fill="white" stroke="transparent" points="-4,4 -4,-228.91 325.12,-228.91 325.12,4 -4,4"/>
<g id="clust1" class="cluster">
<title>cluster100</title>
<path fill="none" stroke="black" d="M104.72,-8C104.72,-8 180.72,-8 180.72,-8 186.72,-8 192.72,-14 192.72,-20 192.72,-20 192.72,-109.95 192.72,-109.95 192.72,-115.95 186.72,-121.95 180.72,-121.95 180.72,-121.95 104.72,-121.95 104.72,-121.95 98.72,-121.95 92.72,-115.95 92.72,-109.95 92.72,-109.95 92.72,-20 92.72,-20 92.72,-14 98.72,-8 104.72,-8"/>
<text text-anchor="middle" x="173.72" y="-15.8" font-family="Times,serif" font-size="14.00">100</text>
</g>
<!-- beta -->
<g id="node1" class="node">
<title>beta</title>
<ellipse fill="none" stroke="black" cx="41.72" cy="-187.43" rx="41.94" ry="37.45"/>
<text text-anchor="middle" x="41.72" y="-198.73" font-family="Times,serif" font-size="14.00">beta</text>
<text text-anchor="middle" x="41.72" y="-183.73" font-family="Times,serif" font-size="14.00">~</text>
<text text-anchor="middle" x="41.72" y="-168.73" font-family="Times,serif" font-size="14.00">Normal</text>
</g>
<!-- Y_obs -->
<g id="node4" class="node">
<title>Y_obs</title>
<ellipse fill="lightgrey" stroke="black" cx="142.72" cy="-76.48" rx="41.94" ry="37.45"/>
<text text-anchor="middle" x="142.72" y="-87.78" font-family="Times,serif" font-size="14.00">Y_obs</text>
<text text-anchor="middle" x="142.72" y="-72.78" font-family="Times,serif" font-size="14.00">~</text>
<text text-anchor="middle" x="142.72" y="-57.78" font-family="Times,serif" font-size="14.00">Normal</text>
</g>
<!-- beta&#45;&gt;Y_obs -->
<g id="edge1" class="edge">
<title>beta&#45;&gt;Y_obs</title>
<path fill="none" stroke="black" d="M67.99,-158.09C80.63,-144.45 95.93,-127.95 109.38,-113.44"/>
<polygon fill="black" stroke="black" points="112,-115.77 116.23,-106.06 106.86,-111.01 112,-115.77"/>
</g>
<!-- alpha -->
<g id="node2" class="node">
<title>alpha</title>
<ellipse fill="none" stroke="black" cx="142.72" cy="-187.43" rx="41.94" ry="37.45"/>
<text text-anchor="middle" x="142.72" y="-198.73" font-family="Times,serif" font-size="14.00">alpha</text>
<text text-anchor="middle" x="142.72" y="-183.73" font-family="Times,serif" font-size="14.00">~</text>
<text text-anchor="middle" x="142.72" y="-168.73" font-family="Times,serif" font-size="14.00">Normal</text>
</g>
<!-- alpha&#45;&gt;Y_obs -->
<g id="edge2" class="edge">
<title>alpha&#45;&gt;Y_obs</title>
<path fill="none" stroke="black" d="M142.72,-149.85C142.72,-141.67 142.72,-132.89 142.72,-124.37"/>
<polygon fill="black" stroke="black" points="146.22,-124.15 142.72,-114.15 139.22,-124.15 146.22,-124.15"/>
</g>
<!-- sigma -->
<g id="node3" class="node">
<title>sigma</title>
<ellipse fill="none" stroke="black" cx="261.72" cy="-187.43" rx="59.29" ry="37.45"/>
<text text-anchor="middle" x="261.72" y="-198.73" font-family="Times,serif" font-size="14.00">sigma</text>
<text text-anchor="middle" x="261.72" y="-183.73" font-family="Times,serif" font-size="14.00">~</text>
<text text-anchor="middle" x="261.72" y="-168.73" font-family="Times,serif" font-size="14.00">HalfNormal</text>
</g>
<!-- sigma&#45;&gt;Y_obs -->
<g id="edge3" class="edge">
<title>sigma&#45;&gt;Y_obs</title>
<path fill="none" stroke="black" d="M228.57,-156.08C213.2,-142.01 194.9,-125.25 179.15,-110.83"/>
<polygon fill="black" stroke="black" points="181.38,-108.13 171.64,-103.96 176.66,-113.29 181.38,-108.13"/>
</g>
</g>
</svg>
