<?xml version="1.0" encoding="utf-8" standalone="no"?>
<!DOCTYPE svg PUBLIC "-//W3C//DTD SVG 1.1//EN"
  "http://www.w3.org/Graphics/SVG/1.1/DTD/svg11.dtd">
<svg xmlns:xlink="http://www.w3.org/1999/xlink" width="498.02pt" height="349.1275pt" viewBox="0 0 498.02 349.1275" xmlns="http://www.w3.org/2000/svg" version="1.1">
 <metadata>
  <rdf:RDF xmlns:dc="http://purl.org/dc/elements/1.1/" xmlns:cc="http://creativecommons.org/ns#" xmlns:rdf="http://www.w3.org/1999/02/22-rdf-syntax-ns#">
   <cc:Work>
    <dc:type rdf:resource="http://purl.org/dc/dcmitype/StillImage"/>
    <dc:date>2022-10-28T21:16:11.605260</dc:date>
    <dc:format>image/svg+xml</dc:format>
    <dc:creator>
     <cc:Agent>
      <dc:title>Matplotlib v3.5.3, https://matplotlib.org/</dc:title>
     </cc:Agent>
    </dc:creator>
   </cc:Work>
  </rdf:RDF>
 </metadata>
 <defs>
  <style type="text/css">*{stroke-linejoin: round; stroke-linecap: butt}</style>
 </defs>
 <g id="figure_1">
  <g id="patch_1">
   <path d="M 0 349.1275 
L 498.02 349.1275 
L 498.02 0 
L 0 0 
z
" style="fill: #ffffff"/>
  </g>
  <g id="axes_1">
   <g id="patch_2">
    <path d="M 65.4 301.3275 
L 456 301.3275 
L 456 24.1275 
L 65.4 24.1275 
z
" style="fill: #ffffff"/>
   </g>
   <g id="PathCollection_1">
    <path d="M 83.154545 217.223642 
C 84.082756 217.223642 84.973075 216.85486 85.629419 216.198515 
C 86.285763 215.542171 86.654545 214.651853 86.654545 213.723642 
C 86.654545 212.795431 86.285763 211.905112 85.629419 211.248768 
C 84.973075 210.592424 84.082756 210.223642 83.154545 210.223642 
C 82.226335 210.223642 81.336016 210.592424 80.679672 211.248768 
C 80.023328 211.905112 79.654545 212.795431 79.654545 213.723642 
C 79.654545 214.651853 80.023328 215.542171 80.679672 216.198515 
C 81.336016 216.85486 82.226335 217.223642 83.154545 217.223642 
z
" clip-path="url(#pa755fe6fa4)" style="fill: #4c72b0; fill-opacity: 0.2; stroke: #4c72b0; stroke-width: 0.75"/>
    <path d="M 86.246204 206.886316 
C 87.174415 206.886316 88.064734 206.517534 88.721078 205.86119 
C 89.377422 205.204845 89.746204 204.314527 89.746204 203.386316 
C 89.746204 202.458105 89.377422 201.567786 88.721078 200.911442 
C 88.064734 200.255098 87.174415 199.886316 86.246204 199.886316 
C 85.317993 199.886316 84.427675 200.255098 83.771331 200.911442 
C 83.114986 201.567786 82.746204 202.458105 82.746204 203.386316 
C 82.746204 204.314527 83.114986 205.204845 83.771331 205.86119 
C 84.427675 206.517534 85.317993 206.886316 86.246204 206.886316 
z
" clip-path="url(#pa755fe6fa4)" style="fill: #4c72b0; fill-opacity: 0.2; stroke: #4c72b0; stroke-width: 0.75"/>
    <path d="M 89.501483 219.018629 
C 90.429694 219.018629 91.320012 218.649847 91.976356 217.993502 
C 92.632701 217.337158 93.001483 216.44684 93.001483 215.518629 
C 93.001483 214.590418 92.632701 213.700099 91.976356 213.043755 
C 91.320012 212.387411 90.429694 212.018629 89.501483 212.018629 
C 88.573272 212.018629 87.682953 212.387411 87.026609 213.043755 
C 86.370265 213.700099 86.001483 214.590418 86.001483 215.518629 
C 86.001483 216.44684 86.370265 217.337158 87.026609 217.993502 
C 87.682953 218.649847 88.573272 219.018629 89.501483 219.018629 
z
" clip-path="url(#pa755fe6fa4)" style="fill: #4c72b0; fill-opacity: 0.2; stroke: #4c72b0; stroke-width: 0.75"/>
    <path d="M 92.551731 193.39124 
C 93.479942 193.39124 94.37026 193.022458 95.026605 192.366114 
C 95.682949 191.70977 96.051731 190.819451 96.051731 189.89124 
C 96.051731 188.963029 95.682949 188.072711 95.026605 187.416367 
C 94.37026 186.760022 93.479942 186.39124 92.551731 186.39124 
C 91.62352 186.39124 90.733201 186.760022 90.076857 187.416367 
C 89.420513 188.072711 89.051731 188.963029 89.051731 189.89124 
C 89.051731 190.819451 89.420513 191.70977 90.076857 192.366114 
C 90.733201 193.022458 91.62352 193.39124 92.551731 193.39124 
z
" clip-path="url(#pa755fe6fa4)" style="fill: #4c72b0; fill-opacity: 0.2; stroke: #4c72b0; stroke-width: 0.75"/>
    <path d="M 95.992262 198.487633 
C 96.920472 198.487633 97.810791 198.11885 98.467135 197.462506 
C 99.12348 196.806162 99.492262 195.915843 99.492262 194.987633 
C 99.492262 194.059422 99.12348 193.169103 98.467135 192.512759 
C 97.810791 191.856415 96.920472 191.487633 95.992262 191.487633 
C 95.064051 191.487633 94.173732 191.856415 93.517388 192.512759 
C 92.861044 193.169103 92.492262 194.059422 92.492262 194.987633 
C 92.492262 195.915843 92.861044 196.806162 93.517388 197.462506 
C 94.173732 198.11885 95.064051 198.487633 95.992262 198.487633 
z
" clip-path="url(#pa755fe6fa4)" style="fill: #4c72b0; fill-opacity: 0.2; stroke: #4c72b0; stroke-width: 0.75"/>
    <path d="M 100.17274 194.385527 
C 101.100951 194.385527 101.99127 194.016745 102.647614 193.360401 
C 103.303958 192.704056 103.67274 191.813738 103.67274 190.885527 
C 103.67274 189.957316 103.303958 189.066997 102.647614 188.410653 
C 101.99127 187.754309 101.100951 187.385527 100.17274 187.385527 
C 99.244529 187.385527 98.35421 187.754309 97.697866 188.410653 
C 97.041522 189.066997 96.67274 189.957316 96.67274 190.885527 
C 96.67274 191.813738 97.041522 192.704056 97.697866 193.360401 
C 98.35421 194.016745 99.244529 194.385527 100.17274 194.385527 
z
" clip-path="url(#pa755fe6fa4)" style="fill: #4c72b0; fill-opacity: 0.2; stroke: #4c72b0; stroke-width: 0.75"/>
    <path d="M 104.196034 176.362399 
C 105.124245 176.362399 106.014564 175.993617 106.670908 175.337273 
C 107.327252 174.680928 107.696034 173.79061 107.696034 172.862399 
C 107.696034 171.934188 107.327252 171.043869 106.670908 170.387525 
C 106.014564 169.731181 105.124245 169.362399 104.196034 169.362399 
C 103.267823 169.362399 102.377505 169.731181 101.72116 170.387525 
C 101.064816 171.043869 100.696034 171.934188 100.696034 172.862399 
C 100.696034 173.79061 101.064816 174.680928 101.72116 175.337273 
C 102.377505 175.993617 103.267823 176.362399 104.196034 176.362399 
z
" clip-path="url(#pa755fe6fa4)" style="fill: #4c72b0; fill-opacity: 0.2; stroke: #4c72b0; stroke-width: 0.75"/>
    <path d="M 108.338099 212.226202 
C 109.26631 212.226202 110.156629 211.857419 110.812973 211.201075 
C 111.469317 210.544731 111.838099 209.654412 111.838099 208.726202 
C 111.838099 207.797991 111.469317 206.907672 110.812973 206.251328 
C 110.156629 205.594984 109.26631 205.226202 108.338099 205.226202 
C 107.409889 205.226202 106.51957 205.594984 105.863226 206.251328 
C 105.206882 206.907672 104.838099 207.797991 104.838099 208.726202 
C 104.838099 209.654412 105.206882 210.544731 105.863226 211.201075 
C 106.51957 211.857419 107.409889 212.226202 108.338099 212.226202 
z
" clip-path="url(#pa755fe6fa4)" style="fill: #4c72b0; fill-opacity: 0.2; stroke: #4c72b0; stroke-width: 0.75"/>
    <path d="M 113.336058 200.22529 
C 114.264269 200.22529 115.154587 199.856508 115.810931 199.200163 
C 116.467276 198.543819 116.836058 197.6535 116.836058 196.72529 
C 116.836058 195.797079 116.467276 194.90676 115.810931 194.250416 
C 115.154587 193.594072 114.264269 193.22529 113.336058 193.22529 
C 112.407847 193.22529 111.517528 193.594072 110.861184 194.250416 
C 110.20484 194.90676 109.836058 195.797079 109.836058 196.72529 
C 109.836058 197.6535 110.20484 198.543819 110.861184 199.200163 
C 111.517528 199.856508 112.407847 200.22529 113.336058 200.22529 
z
" clip-path="url(#pa755fe6fa4)" style="fill: #4c72b0; fill-opacity: 0.2; stroke: #4c72b0; stroke-width: 0.75"/>
    <path d="M 118.909732 194.858979 
C 119.837943 194.858979 120.728262 194.490197 121.384606 193.833853 
C 122.04095 193.177509 122.409732 192.28719 122.409732 191.358979 
C 122.409732 190.430769 122.04095 189.54045 121.384606 188.884106 
C 120.728262 188.227761 119.837943 187.858979 118.909732 187.858979 
C 117.981521 187.858979 117.091202 188.227761 116.434858 188.884106 
C 115.778514 189.54045 115.409732 190.430769 115.409732 191.358979 
C 115.409732 192.28719 115.778514 193.177509 116.434858 193.833853 
C 117.091202 194.490197 117.981521 194.858979 118.909732 194.858979 
z
" clip-path="url(#pa755fe6fa4)" style="fill: #4c72b0; fill-opacity: 0.2; stroke: #4c72b0; stroke-width: 0.75"/>
    <path d="M 124.310757 184.368331 
C 125.238968 184.368331 126.129286 183.999549 126.78563 183.343205 
C 127.441975 182.68686 127.810757 181.796542 127.810757 180.868331 
C 127.810757 179.94012 127.441975 179.049801 126.78563 178.393457 
C 126.129286 177.737113 125.238968 177.368331 124.310757 177.368331 
C 123.382546 177.368331 122.492227 177.737113 121.835883 178.393457 
C 121.179539 179.049801 120.810757 179.94012 120.810757 180.868331 
C 120.810757 181.796542 121.179539 182.68686 121.835883 183.343205 
C 122.492227 183.999549 123.382546 184.368331 124.310757 184.368331 
z
" clip-path="url(#pa755fe6fa4)" style="fill: #4c72b0; fill-opacity: 0.2; stroke: #4c72b0; stroke-width: 0.75"/>
    <path d="M 131.072144 172.59698 
C 132.000355 172.59698 132.890674 172.228198 133.547018 171.571854 
C 134.203362 170.915509 134.572144 170.025191 134.572144 169.09698 
C 134.572144 168.168769 134.203362 167.27845 133.547018 166.622106 
C 132.890674 165.965762 132.000355 165.59698 131.072144 165.59698 
C 130.143933 165.59698 129.253614 165.965762 128.59727 166.622106 
C 127.940926 167.27845 127.572144 168.168769 127.572144 169.09698 
C 127.572144 170.025191 127.940926 170.915509 128.59727 171.571854 
C 129.253614 172.228198 130.143933 172.59698 131.072144 172.59698 
z
" clip-path="url(#pa755fe6fa4)" style="fill: #4c72b0; fill-opacity: 0.2; stroke: #4c72b0; stroke-width: 0.75"/>
    <path d="M 138.782588 173.416289 
C 139.710799 173.416289 140.601118 173.047507 141.257462 172.391163 
C 141.913806 171.734819 142.282588 170.8445 142.282588 169.916289 
C 142.282588 168.988078 141.913806 168.09776 141.257462 167.441415 
C 140.601118 166.785071 139.710799 166.416289 138.782588 166.416289 
C 137.854378 166.416289 136.964059 166.785071 136.307715 167.441415 
C 135.651371 168.09776 135.282588 168.988078 135.282588 169.916289 
C 135.282588 170.8445 135.651371 171.734819 136.307715 172.391163 
C 136.964059 173.047507 137.854378 173.416289 138.782588 173.416289 
z
" clip-path="url(#pa755fe6fa4)" style="fill: #4c72b0; fill-opacity: 0.2; stroke: #4c72b0; stroke-width: 0.75"/>
    <path d="M 146.665326 162.145965 
C 147.593537 162.145965 148.483855 161.777183 149.1402 161.120839 
C 149.796544 160.464494 150.165326 159.574176 150.165326 158.645965 
C 150.165326 157.717754 149.796544 156.827435 149.1402 156.171091 
C 148.483855 155.514747 147.593537 155.145965 146.665326 155.145965 
C 145.737115 155.145965 144.846796 155.514747 144.190452 156.171091 
C 143.534108 156.827435 143.165326 157.717754 143.165326 158.645965 
C 143.165326 159.574176 143.534108 160.464494 144.190452 161.120839 
C 144.846796 161.777183 145.737115 162.145965 146.665326 162.145965 
z
" clip-path="url(#pa755fe6fa4)" style="fill: #4c72b0; fill-opacity: 0.2; stroke: #4c72b0; stroke-width: 0.75"/>
    <path d="M 155.907241 166.032709 
C 156.835452 166.032709 157.725771 165.663927 158.382115 165.007583 
C 159.038459 164.351239 159.407241 163.46092 159.407241 162.532709 
C 159.407241 161.604498 159.038459 160.71418 158.382115 160.057835 
C 157.725771 159.401491 156.835452 159.032709 155.907241 159.032709 
C 154.97903 159.032709 154.088711 159.401491 153.432367 160.057835 
C 152.776023 160.71418 152.407241 161.604498 152.407241 162.532709 
C 152.407241 163.46092 152.776023 164.351239 153.432367 165.007583 
C 154.088711 165.663927 154.97903 166.032709 155.907241 166.032709 
z
" clip-path="url(#pa755fe6fa4)" style="fill: #4c72b0; fill-opacity: 0.2; stroke: #4c72b0; stroke-width: 0.75"/>
    <path d="M 168.360756 164.138318 
C 169.288967 164.138318 170.179285 163.769536 170.83563 163.113192 
C 171.491974 162.456848 171.860756 161.566529 171.860756 160.638318 
C 171.860756 159.710107 171.491974 158.819789 170.83563 158.163444 
C 170.179285 157.5071 169.288967 157.138318 168.360756 157.138318 
C 167.432545 157.138318 166.542226 157.5071 165.885882 158.163444 
C 165.229538 158.819789 164.860756 159.710107 164.860756 160.638318 
C 164.860756 161.566529 165.229538 162.456848 165.885882 163.113192 
C 166.542226 163.769536 167.432545 164.138318 168.360756 164.138318 
z
" clip-path="url(#pa755fe6fa4)" style="fill: #4c72b0; fill-opacity: 0.2; stroke: #4c72b0; stroke-width: 0.75"/>
    <path d="M 184.425401 153.04148 
C 185.353611 153.04148 186.24393 152.672698 186.900274 152.016354 
C 187.556619 151.360009 187.925401 150.469691 187.925401 149.54148 
C 187.925401 148.613269 187.556619 147.72295 186.900274 147.066606 
C 186.24393 146.410262 185.353611 146.04148 184.425401 146.04148 
C 183.49719 146.04148 182.606871 146.410262 181.950527 147.066606 
C 181.294183 147.72295 180.925401 148.613269 180.925401 149.54148 
C 180.925401 150.469691 181.294183 151.360009 181.950527 152.016354 
C 182.606871 152.672698 183.49719 153.04148 184.425401 153.04148 
z
" clip-path="url(#pa755fe6fa4)" style="fill: #4c72b0; fill-opacity: 0.2; stroke: #4c72b0; stroke-width: 0.75"/>
    <path d="M 206.607633 157.725466 
C 207.535844 157.725466 208.426163 157.356684 209.082507 156.700339 
C 209.738851 156.043995 210.107633 155.153676 210.107633 154.225466 
C 210.107633 153.297255 209.738851 152.406936 209.082507 151.750592 
C 208.426163 151.094248 207.535844 150.725466 206.607633 150.725466 
C 205.679422 150.725466 204.789104 151.094248 204.132759 151.750592 
C 203.476415 152.406936 203.107633 153.297255 203.107633 154.225466 
C 203.107633 155.153676 203.476415 156.043995 204.132759 156.700339 
C 204.789104 157.356684 205.679422 157.725466 206.607633 157.725466 
z
" clip-path="url(#pa755fe6fa4)" style="fill: #4c72b0; fill-opacity: 0.2; stroke: #4c72b0; stroke-width: 0.75"/>
    <path d="M 240.7085 175.319145 
C 241.636711 175.319145 242.52703 174.950362 243.183374 174.294018 
C 243.839718 173.637674 244.2085 172.747355 244.2085 171.819145 
C 244.2085 170.890934 243.839718 170.000615 243.183374 169.344271 
C 242.52703 168.687927 241.636711 168.319145 240.7085 168.319145 
C 239.78029 168.319145 238.889971 168.687927 238.233627 169.344271 
C 237.577282 170.000615 237.2085 170.890934 237.2085 171.819145 
C 237.2085 172.747355 237.577282 173.637674 238.233627 174.294018 
C 238.889971 174.950362 239.78029 175.319145 240.7085 175.319145 
z
" clip-path="url(#pa755fe6fa4)" style="fill: #4c72b0; fill-opacity: 0.2; stroke: #4c72b0; stroke-width: 0.75"/>
    <path d="M 287.516666 160.82415 
C 288.444876 160.82415 289.335195 160.455368 289.991539 159.799024 
C 290.647883 159.14268 291.016666 158.252361 291.016666 157.32415 
C 291.016666 156.395939 290.647883 155.505621 289.991539 154.849277 
C 289.335195 154.192932 288.444876 153.82415 287.516666 153.82415 
C 286.588455 153.82415 285.698136 154.192932 285.041792 154.849277 
C 284.385448 155.505621 284.016666 156.395939 284.016666 157.32415 
C 284.016666 158.252361 284.385448 159.14268 285.041792 159.799024 
C 285.698136 160.455368 286.588455 160.82415 287.516666 160.82415 
z
" clip-path="url(#pa755fe6fa4)" style="fill: #4c72b0; fill-opacity: 0.2; stroke: #4c72b0; stroke-width: 0.75"/>
    <path d="M 432.675534 216.080722 
C 433.603745 216.080722 434.494063 215.71194 435.150408 215.055596 
C 435.806752 214.399252 436.175534 213.508933 436.175534 212.580722 
C 436.175534 211.652511 435.806752 210.762193 435.150408 210.105848 
C 434.494063 209.449504 433.603745 209.080722 432.675534 209.080722 
C 431.747323 209.080722 430.857004 209.449504 430.20066 210.105848 
C 429.544316 210.762193 429.175534 211.652511 429.175534 212.580722 
C 429.175534 213.508933 429.544316 214.399252 430.20066 215.055596 
C 430.857004 215.71194 431.747323 216.080722 432.675534 216.080722 
z
" clip-path="url(#pa755fe6fa4)" style="fill: #4c72b0; fill-opacity: 0.2; stroke: #4c72b0; stroke-width: 0.75"/>
    <path d="M 83.282743 218.663524 
C 84.210954 218.663524 85.101273 218.294742 85.757617 217.638398 
C 86.413961 216.982053 86.782743 216.091735 86.782743 215.163524 
C 86.782743 214.235313 86.413961 213.344994 85.757617 212.68865 
C 85.101273 212.032306 84.210954 211.663524 83.282743 211.663524 
C 82.354532 211.663524 81.464214 212.032306 80.80787 212.68865 
C 80.151525 213.344994 79.782743 214.235313 79.782743 215.163524 
C 79.782743 216.091735 80.151525 216.982053 80.80787 217.638398 
C 81.464214 218.294742 82.354532 218.663524 83.282743 218.663524 
z
" clip-path="url(#pa755fe6fa4)" style="fill: #dd8452; fill-opacity: 0.2; stroke: #dd8452; stroke-width: 0.75"/>
    <path d="M 85.90104 197.445295 
C 86.829251 197.445295 87.71957 197.076513 88.375914 196.420169 
C 89.032258 195.763825 89.40104 194.873506 89.40104 193.945295 
C 89.40104 193.017084 89.032258 192.126766 88.375914 191.470422 
C 87.71957 190.814077 86.829251 190.445295 85.90104 190.445295 
C 84.972829 190.445295 84.08251 190.814077 83.426166 191.470422 
C 82.769822 192.126766 82.40104 193.017084 82.40104 193.945295 
C 82.40104 194.873506 82.769822 195.763825 83.426166 196.420169 
C 84.08251 197.076513 84.972829 197.445295 85.90104 197.445295 
z
" clip-path="url(#pa755fe6fa4)" style="fill: #dd8452; fill-opacity: 0.2; stroke: #dd8452; stroke-width: 0.75"/>
    <path d="M 88.921431 192.53488 
C 89.849642 192.53488 90.739961 192.166097 91.396305 191.509753 
C 92.052649 190.853409 92.421431 189.96309 92.421431 189.03488 
C 92.421431 188.106669 92.052649 187.21635 91.396305 186.560006 
C 90.739961 185.903662 89.849642 185.53488 88.921431 185.53488 
C 87.99322 185.53488 87.102902 185.903662 86.446557 186.560006 
C 85.790213 187.21635 85.421431 188.106669 85.421431 189.03488 
C 85.421431 189.96309 85.790213 190.853409 86.446557 191.509753 
C 87.102902 192.166097 87.99322 192.53488 88.921431 192.53488 
z
" clip-path="url(#pa755fe6fa4)" style="fill: #dd8452; fill-opacity: 0.2; stroke: #dd8452; stroke-width: 0.75"/>
    <path d="M 92.319061 187.723645 
C 93.247271 187.723645 94.13759 187.354863 94.793934 186.698519 
C 95.450278 186.042175 95.819061 185.151856 95.819061 184.223645 
C 95.819061 183.295434 95.450278 182.405115 94.793934 181.748771 
C 94.13759 181.092427 93.247271 180.723645 92.319061 180.723645 
C 91.39085 180.723645 90.500531 181.092427 89.844187 181.748771 
C 89.187843 182.405115 88.819061 183.295434 88.819061 184.223645 
C 88.819061 185.151856 89.187843 186.042175 89.844187 186.698519 
C 90.500531 187.354863 91.39085 187.723645 92.319061 187.723645 
z
" clip-path="url(#pa755fe6fa4)" style="fill: #dd8452; fill-opacity: 0.2; stroke: #dd8452; stroke-width: 0.75"/>
    <path d="M 96.156743 166.827591 
C 97.084954 166.827591 97.975273 166.458809 98.631617 165.802465 
C 99.287961 165.146121 99.656743 164.255802 99.656743 163.327591 
C 99.656743 162.399381 99.287961 161.509062 98.631617 160.852718 
C 97.975273 160.196373 97.084954 159.827591 96.156743 159.827591 
C 95.228532 159.827591 94.338214 160.196373 93.68187 160.852718 
C 93.025525 161.509062 92.656743 162.399381 92.656743 163.327591 
C 92.656743 164.255802 93.025525 165.146121 93.68187 165.802465 
C 94.338214 166.458809 95.228532 166.827591 96.156743 166.827591 
z
" clip-path="url(#pa755fe6fa4)" style="fill: #dd8452; fill-opacity: 0.2; stroke: #dd8452; stroke-width: 0.75"/>
    <path d="M 100.458443 147.143942 
C 101.386654 147.143942 102.276973 146.77516 102.933317 146.118816 
C 103.589661 145.462472 103.958443 144.572153 103.958443 143.643942 
C 103.958443 142.715731 103.589661 141.825413 102.933317 141.169069 
C 102.276973 140.512724 101.386654 140.143942 100.458443 140.143942 
C 99.530232 140.143942 98.639914 140.512724 97.983569 141.169069 
C 97.327225 141.825413 96.958443 142.715731 96.958443 143.643942 
C 96.958443 144.572153 97.327225 145.462472 97.983569 146.118816 
C 98.639914 146.77516 99.530232 147.143942 100.458443 147.143942 
z
" clip-path="url(#pa755fe6fa4)" style="fill: #dd8452; fill-opacity: 0.2; stroke: #dd8452; stroke-width: 0.75"/>
    <path d="M 104.909274 139.275096 
C 105.837485 139.275096 106.727804 138.906314 107.384148 138.249969 
C 108.040492 137.593625 108.409274 136.703307 108.409274 135.775096 
C 108.409274 134.846885 108.040492 133.956566 107.384148 133.300222 
C 106.727804 132.643878 105.837485 132.275096 104.909274 132.275096 
C 103.981063 132.275096 103.090745 132.643878 102.4344 133.300222 
C 101.778056 133.956566 101.409274 134.846885 101.409274 135.775096 
C 101.409274 136.703307 101.778056 137.593625 102.4344 138.249969 
C 103.090745 138.906314 103.981063 139.275096 104.909274 139.275096 
z
" clip-path="url(#pa755fe6fa4)" style="fill: #dd8452; fill-opacity: 0.2; stroke: #dd8452; stroke-width: 0.75"/>
    <path d="M 109.935414 134.161828 
C 110.863625 134.161828 111.753943 133.793046 112.410288 133.136701 
C 113.066632 132.480357 113.435414 131.590038 113.435414 130.661828 
C 113.435414 129.733617 113.066632 128.843298 112.410288 128.186954 
C 111.753943 127.53061 110.863625 127.161828 109.935414 127.161828 
C 109.007203 127.161828 108.116884 127.53061 107.46054 128.186954 
C 106.804196 128.843298 106.435414 129.733617 106.435414 130.661828 
C 106.435414 131.590038 106.804196 132.480357 107.46054 133.136701 
C 108.116884 133.793046 109.007203 134.161828 109.935414 134.161828 
z
" clip-path="url(#pa755fe6fa4)" style="fill: #dd8452; fill-opacity: 0.2; stroke: #dd8452; stroke-width: 0.75"/>
    <path d="M 115.229403 113.736219 
C 116.157614 113.736219 117.047933 113.367437 117.704277 112.711092 
C 118.360621 112.054748 118.729403 111.164429 118.729403 110.236219 
C 118.729403 109.308008 118.360621 108.417689 117.704277 107.761345 
C 117.047933 107.105001 116.157614 106.736219 115.229403 106.736219 
C 114.301192 106.736219 113.410874 107.105001 112.754529 107.761345 
C 112.098185 108.417689 111.729403 109.308008 111.729403 110.236219 
C 111.729403 111.164429 112.098185 112.054748 112.754529 112.711092 
C 113.410874 113.367437 114.301192 113.736219 115.229403 113.736219 
z
" clip-path="url(#pa755fe6fa4)" style="fill: #dd8452; fill-opacity: 0.2; stroke: #dd8452; stroke-width: 0.75"/>
    <path d="M 121.296621 108.270254 
C 122.224832 108.270254 123.115151 107.901472 123.771495 107.245128 
C 124.427839 106.588784 124.796621 105.698465 124.796621 104.770254 
C 124.796621 103.842044 124.427839 102.951725 123.771495 102.295381 
C 123.115151 101.639036 122.224832 101.270254 121.296621 101.270254 
C 120.36841 101.270254 119.478092 101.639036 118.821748 102.295381 
C 118.165403 102.951725 117.796621 103.842044 117.796621 104.770254 
C 117.796621 105.698465 118.165403 106.588784 118.821748 107.245128 
C 119.478092 107.901472 120.36841 108.270254 121.296621 108.270254 
z
" clip-path="url(#pa755fe6fa4)" style="fill: #dd8452; fill-opacity: 0.2; stroke: #dd8452; stroke-width: 0.75"/>
    <path d="M 128.505085 109.73054 
C 129.433296 109.73054 130.323615 109.361758 130.979959 108.705414 
C 131.636303 108.04907 132.005085 107.158751 132.005085 106.23054 
C 132.005085 105.302329 131.636303 104.412011 130.979959 103.755666 
C 130.323615 103.099322 129.433296 102.73054 128.505085 102.73054 
C 127.576875 102.73054 126.686556 103.099322 126.030212 103.755666 
C 125.373868 104.412011 125.005085 105.302329 125.005085 106.23054 
C 125.005085 107.158751 125.373868 108.04907 126.030212 108.705414 
C 126.686556 109.361758 127.576875 109.73054 128.505085 109.73054 
z
" clip-path="url(#pa755fe6fa4)" style="fill: #dd8452; fill-opacity: 0.2; stroke: #dd8452; stroke-width: 0.75"/>
    <path d="M 135.943749 90.763526 
C 136.87196 90.763526 137.762278 90.394744 138.418623 89.7384 
C 139.074967 89.082056 139.443749 88.191737 139.443749 87.263526 
C 139.443749 86.335316 139.074967 85.444997 138.418623 84.788653 
C 137.762278 84.132309 136.87196 83.763526 135.943749 83.763526 
C 135.015538 83.763526 134.125219 84.132309 133.468875 84.788653 
C 132.812531 85.444997 132.443749 86.335316 132.443749 87.263526 
C 132.443749 88.191737 132.812531 89.082056 133.468875 89.7384 
C 134.125219 90.394744 135.015538 90.763526 135.943749 90.763526 
z
" clip-path="url(#pa755fe6fa4)" style="fill: #dd8452; fill-opacity: 0.2; stroke: #dd8452; stroke-width: 0.75"/>
    <path d="M 144.854527 106.001995 
C 145.782737 106.001995 146.673056 105.633213 147.3294 104.976868 
C 147.985745 104.320524 148.354527 103.430205 148.354527 102.501995 
C 148.354527 101.573784 147.985745 100.683465 147.3294 100.027121 
C 146.673056 99.370777 145.782737 99.001995 144.854527 99.001995 
C 143.926316 99.001995 143.035997 99.370777 142.379653 100.027121 
C 141.723309 100.683465 141.354527 101.573784 141.354527 102.501995 
C 141.354527 103.430205 141.723309 104.320524 142.379653 104.976868 
C 143.035997 105.633213 143.926316 106.001995 144.854527 106.001995 
z
" clip-path="url(#pa755fe6fa4)" style="fill: #dd8452; fill-opacity: 0.2; stroke: #dd8452; stroke-width: 0.75"/>
    <path d="M 155.08594 110.61441 
C 156.014151 110.61441 156.90447 110.245627 157.560814 109.589283 
C 158.217158 108.932939 158.58594 108.04262 158.58594 107.11441 
C 158.58594 106.186199 158.217158 105.29588 157.560814 104.639536 
C 156.90447 103.983192 156.014151 103.61441 155.08594 103.61441 
C 154.157729 103.61441 153.267411 103.983192 152.611067 104.639536 
C 151.954722 105.29588 151.58594 106.186199 151.58594 107.11441 
C 151.58594 108.04262 151.954722 108.932939 152.611067 109.589283 
C 153.267411 110.245627 154.157729 110.61441 155.08594 110.61441 
z
" clip-path="url(#pa755fe6fa4)" style="fill: #dd8452; fill-opacity: 0.2; stroke: #dd8452; stroke-width: 0.75"/>
    <path d="M 168.384149 119.175997 
C 169.31236 119.175997 170.202679 118.807214 170.859023 118.15087 
C 171.515367 117.494526 171.884149 116.604207 171.884149 115.675997 
C 171.884149 114.747786 171.515367 113.857467 170.859023 113.201123 
C 170.202679 112.544779 169.31236 112.175997 168.384149 112.175997 
C 167.455938 112.175997 166.56562 112.544779 165.909276 113.201123 
C 165.252931 113.857467 164.884149 114.747786 164.884149 115.675997 
C 164.884149 116.604207 165.252931 117.494526 165.909276 118.15087 
C 166.56562 118.807214 167.455938 119.175997 168.384149 119.175997 
z
" clip-path="url(#pa755fe6fa4)" style="fill: #dd8452; fill-opacity: 0.2; stroke: #dd8452; stroke-width: 0.75"/>
    <path d="M 183.781809 154.575861 
C 184.71002 154.575861 185.600339 154.207079 186.256683 153.550735 
C 186.913027 152.894391 187.281809 152.004072 187.281809 151.075861 
C 187.281809 150.147651 186.913027 149.257332 186.256683 148.600988 
C 185.600339 147.944644 184.71002 147.575861 183.781809 147.575861 
C 182.853599 147.575861 181.96328 147.944644 181.306936 148.600988 
C 180.650592 149.257332 180.281809 150.147651 180.281809 151.075861 
C 180.281809 152.004072 180.650592 152.894391 181.306936 153.550735 
C 181.96328 154.207079 182.853599 154.575861 183.781809 154.575861 
z
" clip-path="url(#pa755fe6fa4)" style="fill: #dd8452; fill-opacity: 0.2; stroke: #dd8452; stroke-width: 0.75"/>
    <path d="M 204.800363 223.250389 
C 205.728574 223.250389 206.618893 222.881607 207.275237 222.225263 
C 207.931581 221.568919 208.300363 220.6786 208.300363 219.750389 
C 208.300363 218.822179 207.931581 217.93186 207.275237 217.275516 
C 206.618893 216.619172 205.728574 216.250389 204.800363 216.250389 
C 203.872152 216.250389 202.981834 216.619172 202.325489 217.275516 
C 201.669145 217.93186 201.300363 218.822179 201.300363 219.750389 
C 201.300363 220.6786 201.669145 221.568919 202.325489 222.225263 
C 202.981834 222.881607 203.872152 223.250389 204.800363 223.250389 
z
" clip-path="url(#pa755fe6fa4)" style="fill: #dd8452; fill-opacity: 0.2; stroke: #dd8452; stroke-width: 0.75"/>
    <path d="M 234.62422 221.342925 
C 235.552431 221.342925 236.44275 220.974143 237.099094 220.317799 
C 237.755438 219.661455 238.12422 218.771136 238.12422 217.842925 
C 238.12422 216.914714 237.755438 216.024396 237.099094 215.368051 
C 236.44275 214.711707 235.552431 214.342925 234.62422 214.342925 
C 233.69601 214.342925 232.805691 214.711707 232.149347 215.368051 
C 231.493003 216.024396 231.12422 216.914714 231.12422 217.842925 
C 231.12422 218.771136 231.493003 219.661455 232.149347 220.317799 
C 232.805691 220.974143 233.69601 221.342925 234.62422 221.342925 
z
" clip-path="url(#pa755fe6fa4)" style="fill: #dd8452; fill-opacity: 0.2; stroke: #dd8452; stroke-width: 0.75"/>
    <path d="M 280.531277 214.250296 
C 281.459488 214.250296 282.349806 213.881513 283.00615 213.225169 
C 283.662495 212.568825 284.031277 211.678506 284.031277 210.750296 
C 284.031277 209.822085 283.662495 208.931766 283.00615 208.275422 
C 282.349806 207.619078 281.459488 207.250296 280.531277 207.250296 
C 279.603066 207.250296 278.712747 207.619078 278.056403 208.275422 
C 277.400059 208.931766 277.031277 209.822085 277.031277 210.750296 
C 277.031277 211.678506 277.400059 212.568825 278.056403 213.225169 
C 278.712747 213.881513 279.603066 214.250296 280.531277 214.250296 
z
" clip-path="url(#pa755fe6fa4)" style="fill: #dd8452; fill-opacity: 0.2; stroke: #dd8452; stroke-width: 0.75"/>
    <path d="M 438.245455 236.027523 
C 439.173665 236.027523 440.063984 235.658741 440.720328 235.002396 
C 441.376672 234.346052 441.745455 233.455733 441.745455 232.527523 
C 441.745455 231.599312 441.376672 230.708993 440.720328 230.052649 
C 440.063984 229.396305 439.173665 229.027523 438.245455 229.027523 
C 437.317244 229.027523 436.426925 229.396305 435.770581 230.052649 
C 435.114237 230.708993 434.745455 231.599312 434.745455 232.527523 
C 434.745455 233.455733 435.114237 234.346052 435.770581 235.002396 
C 436.426925 235.658741 437.317244 236.027523 438.245455 236.027523 
z
" clip-path="url(#pa755fe6fa4)" style="fill: #dd8452; fill-opacity: 0.2; stroke: #dd8452; stroke-width: 0.75"/>
   </g>
   <g id="matplotlib.axis_1">
    <g id="xtick_1">
     <g id="line2d_1">
      <defs>
       <path id="m3d89c88648" d="M 0 0 
L 0 3.5 
" style="stroke: #323034; stroke-width: 0.8"/>
      </defs>
      <g>
       <use xlink:href="#m3d89c88648" x="81.955995" y="301.3275" style="fill: #323034; stroke: #323034; stroke-width: 0.8"/>
      </g>
     </g>
     <g id="text_1">
      <!-- 0 -->
      <g style="fill: #323034" transform="translate(77.955995 319.255)scale(0.16 -0.16)">
       <defs>
        <path id="STIXGeneral-Regular-30" d="M 3046 2112 
Q 3046 1683 2963 1302 
Q 2880 922 2717 602 
Q 2554 282 2266 96 
Q 1978 -90 1600 -90 
Q 1210 -90 915 108 
Q 621 307 461 640 
Q 301 973 227 1350 
Q 154 1728 154 2150 
Q 154 2746 301 3222 
Q 448 3699 790 4012 
Q 1133 4326 1626 4326 
Q 2253 4326 2649 3712 
Q 3046 3098 3046 2112 
z
M 2432 2080 
Q 2432 3091 2217 3625 
Q 2003 4160 1587 4160 
Q 1190 4160 979 3622 
Q 768 3085 768 2106 
Q 768 1120 979 598 
Q 1190 77 1600 77 
Q 2003 77 2217 598 
Q 2432 1120 2432 2080 
z
" transform="scale(0.015625)"/>
       </defs>
       <use xlink:href="#STIXGeneral-Regular-30"/>
      </g>
     </g>
    </g>
    <g id="xtick_2">
     <g id="line2d_2">
      <g>
       <use xlink:href="#m3d89c88648" x="153.536438" y="301.3275" style="fill: #323034; stroke: #323034; stroke-width: 0.8"/>
      </g>
     </g>
     <g id="text_2">
      <!-- 1 -->
      <g style="fill: #323034" transform="translate(149.536438 319.255)scale(0.16 -0.16)">
       <defs>
        <path id="STIXGeneral-Regular-31" d="M 2522 0 
L 755 0 
L 755 96 
Q 1107 115 1235 227 
Q 1363 339 1363 608 
L 1363 3482 
Q 1363 3795 1171 3795 
Q 1082 3795 883 3718 
L 710 3654 
L 710 3744 
L 1856 4326 
L 1914 4307 
L 1914 486 
Q 1914 275 2042 185 
Q 2170 96 2522 96 
L 2522 0 
z
" transform="scale(0.015625)"/>
       </defs>
       <use xlink:href="#STIXGeneral-Regular-31"/>
      </g>
     </g>
    </g>
    <g id="xtick_3">
     <g id="line2d_3">
      <g>
       <use xlink:href="#m3d89c88648" x="225.11688" y="301.3275" style="fill: #323034; stroke: #323034; stroke-width: 0.8"/>
      </g>
     </g>
     <g id="text_3">
      <!-- 2 -->
      <g style="fill: #323034" transform="translate(221.11688 319.255)scale(0.16 -0.16)">
       <defs>
        <path id="STIXGeneral-Regular-32" d="M 3034 877 
L 2688 0 
L 186 0 
L 186 77 
L 1325 1286 
Q 1773 1754 1965 2144 
Q 2157 2534 2157 2950 
Q 2157 3379 1920 3616 
Q 1683 3853 1267 3853 
Q 922 3853 720 3673 
Q 518 3494 326 3021 
L 192 3053 
Q 301 3648 630 3987 
Q 960 4326 1523 4326 
Q 2054 4326 2380 4006 
Q 2707 3686 2707 3200 
Q 2707 2477 1888 1613 
L 832 486 
L 2330 486 
Q 2541 486 2665 569 
Q 2790 653 2944 915 
L 3034 877 
z
" transform="scale(0.015625)"/>
       </defs>
       <use xlink:href="#STIXGeneral-Regular-32"/>
      </g>
     </g>
    </g>
    <g id="xtick_4">
     <g id="line2d_4">
      <g>
       <use xlink:href="#m3d89c88648" x="296.697322" y="301.3275" style="fill: #323034; stroke: #323034; stroke-width: 0.8"/>
      </g>
     </g>
     <g id="text_4">
      <!-- 3 -->
      <g style="fill: #323034" transform="translate(292.697322 319.255)scale(0.16 -0.16)">
       <defs>
        <path id="STIXGeneral-Regular-33" d="M 390 3264 
L 288 3290 
Q 435 3770 748 4048 
Q 1062 4326 1542 4326 
Q 1990 4326 2265 4083 
Q 2541 3840 2541 3450 
Q 2541 2925 1946 2566 
Q 2298 2413 2477 2227 
Q 2758 1914 2758 1402 
Q 2758 890 2464 506 
Q 2246 211 1840 60 
Q 1434 -90 979 -90 
Q 262 -90 262 275 
Q 262 378 339 442 
Q 416 506 525 506 
Q 685 506 915 339 
Q 1197 141 1466 141 
Q 1818 141 2058 425 
Q 2298 710 2298 1120 
Q 2298 1856 1632 2048 
Q 1434 2112 979 2112 
L 979 2202 
Q 1338 2323 1517 2432 
Q 2035 2726 2035 3290 
Q 2035 3610 1852 3776 
Q 1670 3942 1344 3942 
Q 768 3942 390 3264 
z
" transform="scale(0.015625)"/>
       </defs>
       <use xlink:href="#STIXGeneral-Regular-33"/>
      </g>
     </g>
    </g>
    <g id="xtick_5">
     <g id="line2d_5">
      <g>
       <use xlink:href="#m3d89c88648" x="368.277764" y="301.3275" style="fill: #323034; stroke: #323034; stroke-width: 0.8"/>
      </g>
     </g>
     <g id="text_5">
      <!-- 4 -->
      <g style="fill: #323034" transform="translate(364.277764 319.255)scale(0.16 -0.16)">
       <defs>
        <path id="STIXGeneral-Regular-34" d="M 3027 1069 
L 2368 1069 
L 2368 0 
L 1869 0 
L 1869 1069 
L 77 1069 
L 77 1478 
L 2086 4326 
L 2368 4326 
L 2368 1478 
L 3027 1478 
L 3027 1069 
z
M 1869 1478 
L 1869 3674 
L 333 1478 
L 1869 1478 
z
" transform="scale(0.015625)"/>
       </defs>
       <use xlink:href="#STIXGeneral-Regular-34"/>
      </g>
     </g>
    </g>
    <g id="xtick_6">
     <g id="line2d_6">
      <g>
       <use xlink:href="#m3d89c88648" x="439.858206" y="301.3275" style="fill: #323034; stroke: #323034; stroke-width: 0.8"/>
      </g>
     </g>
     <g id="text_6">
      <!-- 5 -->
      <g style="fill: #323034" transform="translate(435.858206 319.255)scale(0.16 -0.16)">
       <defs>
        <path id="STIXGeneral-Regular-35" d="M 2803 4358 
L 2573 3814 
Q 2534 3731 2400 3731 
L 1158 3731 
L 902 3187 
Q 1606 3053 1920 2896 
Q 2234 2739 2502 2368 
Q 2726 2061 2726 1555 
Q 2726 1094 2576 780 
Q 2426 467 2099 224 
Q 1664 -90 1011 -90 
Q 646 -90 422 19 
Q 198 128 198 307 
Q 198 550 486 550 
Q 717 550 960 352 
Q 1210 147 1414 147 
Q 1747 147 2012 480 
Q 2278 813 2278 1229 
Q 2278 1843 1850 2189 
Q 1293 2637 486 2637 
Q 410 2637 410 2688 
L 416 2720 
L 1114 4237 
L 2438 4237 
Q 2547 4237 2608 4269 
Q 2669 4301 2746 4403 
L 2803 4358 
z
" transform="scale(0.015625)"/>
       </defs>
       <use xlink:href="#STIXGeneral-Regular-35"/>
      </g>
     </g>
    </g>
    <g id="text_7">
     <!-- age -->
     <g transform="translate(248.206875 338.004062)scale(0.18 -0.18)">
      <defs>
       <path id="STIXGeneral-Regular-61" d="M 2829 422 
L 2829 243 
Q 2586 -64 2253 -64 
Q 1888 -64 1843 403 
L 1837 403 
Q 1427 -64 909 -64 
Q 608 -64 422 112 
Q 237 288 237 602 
Q 237 1050 685 1350 
Q 992 1555 1837 1869 
L 1837 2214 
Q 1837 2502 1699 2646 
Q 1562 2790 1338 2790 
Q 1146 2790 1018 2697 
Q 890 2605 890 2477 
Q 890 2419 909 2348 
Q 928 2278 928 2208 
Q 928 2112 841 2029 
Q 755 1946 634 1946 
Q 525 1946 441 2029 
Q 358 2112 358 2240 
Q 358 2547 685 2752 
Q 986 2944 1421 2944 
Q 1939 2944 2176 2656 
Q 2291 2522 2323 2384 
Q 2355 2246 2355 1946 
L 2355 723 
Q 2355 301 2554 301 
Q 2682 301 2829 422 
z
M 1837 813 
L 1837 1715 
Q 1248 1510 1018 1293 
Q 800 1094 800 800 
Q 800 557 921 432 
Q 1043 307 1242 307 
Q 1453 307 1613 410 
Q 1747 506 1792 589 
Q 1837 672 1837 813 
z
" transform="scale(0.015625)"/>
       <path id="STIXGeneral-Regular-67" d="M 3008 2483 
L 2477 2483 
Q 2598 2208 2598 1946 
Q 2598 1453 2265 1203 
Q 1933 954 1600 954 
Q 1530 954 1357 973 
L 1235 986 
Q 1107 947 979 812 
Q 851 678 851 582 
Q 851 435 1350 410 
L 2176 371 
Q 2528 358 2739 172 
Q 2950 -13 2950 -314 
Q 2950 -685 2566 -986 
Q 2035 -1395 1286 -1395 
Q 826 -1395 502 -1212 
Q 179 -1030 179 -774 
Q 179 -595 320 -419 
Q 461 -243 806 6 
Q 602 102 534 172 
Q 467 243 467 346 
Q 467 531 762 787 
Q 909 915 1037 1043 
Q 717 1203 579 1401 
Q 442 1600 442 1901 
Q 442 2336 752 2640 
Q 1062 2944 1510 2944 
Q 1766 2944 2022 2848 
L 2163 2797 
Q 2349 2733 2515 2733 
L 3008 2733 
L 3008 2483 
z
M 973 2163 
L 973 2144 
Q 973 1683 1155 1398 
Q 1338 1114 1632 1114 
Q 1850 1114 1978 1270 
Q 2106 1427 2106 1690 
Q 2106 2112 1914 2464 
Q 1754 2765 1446 2765 
Q 1222 2765 1097 2605 
Q 973 2445 973 2163 
z
M 2771 -410 
Q 2771 -230 2595 -163 
Q 2419 -96 1978 -96 
Q 1344 -96 941 -13 
Q 749 -243 688 -348 
Q 627 -454 627 -563 
Q 627 -774 880 -902 
Q 1133 -1030 1555 -1030 
Q 2099 -1030 2435 -860 
Q 2771 -691 2771 -410 
z
" transform="scale(0.015625)"/>
       <path id="STIXGeneral-Regular-65" d="M 2611 1050 
L 2714 1005 
Q 2330 -64 1376 -64 
Q 813 -64 486 329 
Q 160 723 160 1389 
Q 160 2074 525 2509 
Q 890 2944 1485 2944 
Q 2061 2944 2374 2502 
Q 2560 2246 2592 1773 
L 621 1773 
Q 646 1370 700 1158 
Q 755 947 915 730 
Q 1184 378 1626 378 
Q 1939 378 2153 531 
Q 2368 685 2611 1050 
z
M 634 1978 
L 1939 1978 
Q 1882 2381 1750 2547 
Q 1619 2714 1312 2714 
Q 1043 2714 864 2525 
Q 685 2336 634 1978 
z
" transform="scale(0.015625)"/>
      </defs>
      <use xlink:href="#STIXGeneral-Regular-61"/>
      <use xlink:href="#STIXGeneral-Regular-67" x="44.399994"/>
      <use xlink:href="#STIXGeneral-Regular-65" x="94.399979"/>
     </g>
    </g>
   </g>
   <g id="matplotlib.axis_2">
    <g id="ytick_1">
     <g id="line2d_7">
      <defs>
       <path id="m774729312f" d="M 0 0 
L -3.5 0 
" style="stroke: #323034; stroke-width: 0.8"/>
      </defs>
      <g>
       <use xlink:href="#m774729312f" x="65.4" y="274.959998" style="fill: #323034; stroke: #323034; stroke-width: 0.8"/>
      </g>
     </g>
     <g id="text_8">
      <!-- 1000 -->
      <g style="fill: #323034" transform="translate(26.4 280.423748)scale(0.16 -0.16)">
       <use xlink:href="#STIXGeneral-Regular-31"/>
       <use xlink:href="#STIXGeneral-Regular-30" x="49.999985"/>
       <use xlink:href="#STIXGeneral-Regular-30" x="99.999969"/>
       <use xlink:href="#STIXGeneral-Regular-30" x="149.999954"/>
      </g>
     </g>
    </g>
    <g id="ytick_2">
     <g id="line2d_8">
      <g>
       <use xlink:href="#m774729312f" x="65.4" y="218.794662" style="fill: #323034; stroke: #323034; stroke-width: 0.8"/>
      </g>
     </g>
     <g id="text_9">
      <!-- 2000 -->
      <g style="fill: #323034" transform="translate(26.4 224.258412)scale(0.16 -0.16)">
       <use xlink:href="#STIXGeneral-Regular-32"/>
       <use xlink:href="#STIXGeneral-Regular-30" x="49.999985"/>
       <use xlink:href="#STIXGeneral-Regular-30" x="99.999969"/>
       <use xlink:href="#STIXGeneral-Regular-30" x="149.999954"/>
      </g>
     </g>
    </g>
    <g id="ytick_3">
     <g id="line2d_9">
      <g>
       <use xlink:href="#m774729312f" x="65.4" y="162.629326" style="fill: #323034; stroke: #323034; stroke-width: 0.8"/>
      </g>
     </g>
     <g id="text_10">
      <!-- 3000 -->
      <g style="fill: #323034" transform="translate(26.4 168.093076)scale(0.16 -0.16)">
       <use xlink:href="#STIXGeneral-Regular-33"/>
       <use xlink:href="#STIXGeneral-Regular-30" x="49.999985"/>
       <use xlink:href="#STIXGeneral-Regular-30" x="99.999969"/>
       <use xlink:href="#STIXGeneral-Regular-30" x="149.999954"/>
      </g>
     </g>
    </g>
    <g id="ytick_4">
     <g id="line2d_10">
      <g>
       <use xlink:href="#m774729312f" x="65.4" y="106.463989" style="fill: #323034; stroke: #323034; stroke-width: 0.8"/>
      </g>
     </g>
     <g id="text_11">
      <!-- 4000 -->
      <g style="fill: #323034" transform="translate(26.4 111.927739)scale(0.16 -0.16)">
       <use xlink:href="#STIXGeneral-Regular-34"/>
       <use xlink:href="#STIXGeneral-Regular-30" x="49.999985"/>
       <use xlink:href="#STIXGeneral-Regular-30" x="99.999969"/>
       <use xlink:href="#STIXGeneral-Regular-30" x="149.999954"/>
      </g>
     </g>
    </g>
    <g id="ytick_5">
     <g id="line2d_11">
      <g>
       <use xlink:href="#m774729312f" x="65.4" y="50.298653" style="fill: #323034; stroke: #323034; stroke-width: 0.8"/>
      </g>
     </g>
     <g id="text_12">
      <!-- 5000 -->
      <g style="fill: #323034" transform="translate(26.4 55.762403)scale(0.16 -0.16)">
       <use xlink:href="#STIXGeneral-Regular-35"/>
       <use xlink:href="#STIXGeneral-Regular-30" x="49.999985"/>
       <use xlink:href="#STIXGeneral-Regular-30" x="99.999969"/>
       <use xlink:href="#STIXGeneral-Regular-30" x="149.999954"/>
      </g>
     </g>
    </g>
    <g id="text_13">
     <!-- sales -->
     <g transform="translate(19.493438 180.225469)rotate(-90)scale(0.18 -0.18)">
      <defs>
       <path id="STIXGeneral-Regular-73" d="M 998 1926 
L 1664 1523 
Q 1984 1331 2105 1164 
Q 2227 998 2227 736 
Q 2227 416 1961 176 
Q 1696 -64 1331 -64 
Q 1030 -64 864 -6 
Q 691 51 570 51 
Q 461 51 416 -26 
L 333 -26 
L 333 979 
L 435 979 
Q 538 512 730 294 
Q 922 77 1248 77 
Q 1485 77 1632 211 
Q 1779 346 1779 550 
Q 1779 845 1440 1030 
L 1094 1222 
Q 326 1651 326 2150 
Q 326 2522 566 2730 
Q 806 2938 1210 2938 
Q 1491 2938 1638 2867 
Q 1754 2816 1818 2816 
Q 1862 2816 1920 2880 
L 1990 2880 
L 2022 2010 
L 1926 2010 
Q 1818 2445 1654 2621 
Q 1491 2797 1203 2797 
Q 986 2797 854 2688 
Q 723 2579 723 2362 
Q 723 2253 796 2128 
Q 870 2003 998 1926 
z
" transform="scale(0.015625)"/>
       <path id="STIXGeneral-Regular-6c" d="M 1645 0 
L 134 0 
L 134 96 
Q 435 122 531 221 
Q 627 320 627 589 
L 627 3590 
Q 627 3821 569 3910 
Q 512 4000 358 4000 
Q 224 4000 122 3987 
L 122 4090 
Q 730 4237 1133 4371 
L 1165 4346 
L 1165 557 
Q 1165 288 1254 201 
Q 1344 115 1645 96 
L 1645 0 
z
" transform="scale(0.015625)"/>
      </defs>
      <use xlink:href="#STIXGeneral-Regular-73"/>
      <use xlink:href="#STIXGeneral-Regular-61" x="38.899994"/>
      <use xlink:href="#STIXGeneral-Regular-6c" x="83.299988"/>
      <use xlink:href="#STIXGeneral-Regular-65" x="111.099976"/>
      <use xlink:href="#STIXGeneral-Regular-73" x="155.499969"/>
     </g>
    </g>
   </g>
   <g id="LineCollection_1">
    <path d="M 83.154545 244.511145 
L 83.154545 182.936139 
" clip-path="url(#pa755fe6fa4)" style="fill: none; stroke: #bc80bd; stroke-opacity: 0.2; stroke-width: 2"/>
    <path d="M 86.246204 229.955887 
L 86.246204 176.816745 
" clip-path="url(#pa755fe6fa4)" style="fill: none; stroke: #bc80bd; stroke-opacity: 0.2; stroke-width: 2"/>
    <path d="M 89.501483 238.950495 
L 89.501483 192.086762 
" clip-path="url(#pa755fe6fa4)" style="fill: none; stroke: #bc80bd; stroke-opacity: 0.2; stroke-width: 2"/>
    <path d="M 92.551731 217.23384 
L 92.551731 162.54864 
" clip-path="url(#pa755fe6fa4)" style="fill: none; stroke: #bc80bd; stroke-opacity: 0.2; stroke-width: 2"/>
    <path d="M 95.992262 222.489704 
L 95.992262 167.485561 
" clip-path="url(#pa755fe6fa4)" style="fill: none; stroke: #bc80bd; stroke-opacity: 0.2; stroke-width: 2"/>
    <path d="M 100.17274 221.124796 
L 100.17274 160.646258 
" clip-path="url(#pa755fe6fa4)" style="fill: none; stroke: #bc80bd; stroke-opacity: 0.2; stroke-width: 2"/>
    <path d="M 104.196034 210.720203 
L 104.196034 135.004594 
" clip-path="url(#pa755fe6fa4)" style="fill: none; stroke: #bc80bd; stroke-opacity: 0.2; stroke-width: 2"/>
    <path d="M 108.338099 237.681743 
L 108.338099 179.770661 
" clip-path="url(#pa755fe6fa4)" style="fill: none; stroke: #bc80bd; stroke-opacity: 0.2; stroke-width: 2"/>
    <path d="M 113.336058 228.519093 
L 113.336058 164.931486 
" clip-path="url(#pa755fe6fa4)" style="fill: none; stroke: #bc80bd; stroke-opacity: 0.2; stroke-width: 2"/>
    <path d="M 118.909732 223.783288 
L 118.909732 158.934671 
" clip-path="url(#pa755fe6fa4)" style="fill: none; stroke: #bc80bd; stroke-opacity: 0.2; stroke-width: 2"/>
    <path d="M 124.310757 216.740541 
L 124.310757 144.996121 
" clip-path="url(#pa755fe6fa4)" style="fill: none; stroke: #bc80bd; stroke-opacity: 0.2; stroke-width: 2"/>
    <path d="M 131.072144 205.40672 
L 131.072144 132.78724 
" clip-path="url(#pa755fe6fa4)" style="fill: none; stroke: #bc80bd; stroke-opacity: 0.2; stroke-width: 2"/>
    <path d="M 138.782588 207.581424 
L 138.782588 132.251154 
" clip-path="url(#pa755fe6fa4)" style="fill: none; stroke: #bc80bd; stroke-opacity: 0.2; stroke-width: 2"/>
    <path d="M 146.665326 199.446889 
L 146.665326 117.845041 
" clip-path="url(#pa755fe6fa4)" style="fill: none; stroke: #bc80bd; stroke-opacity: 0.2; stroke-width: 2"/>
    <path d="M 155.907241 210.132573 
L 155.907241 114.932845 
" clip-path="url(#pa755fe6fa4)" style="fill: none; stroke: #bc80bd; stroke-opacity: 0.2; stroke-width: 2"/>
    <path d="M 168.360756 208.368473 
L 168.360756 112.908163 
" clip-path="url(#pa755fe6fa4)" style="fill: none; stroke: #bc80bd; stroke-opacity: 0.2; stroke-width: 2"/>
    <path d="M 184.425401 192.967124 
L 184.425401 106.115836 
" clip-path="url(#pa755fe6fa4)" style="fill: none; stroke: #bc80bd; stroke-opacity: 0.2; stroke-width: 2"/>
    <path d="M 206.607633 202.0637 
L 206.607633 106.387231 
" clip-path="url(#pa755fe6fa4)" style="fill: none; stroke: #bc80bd; stroke-opacity: 0.2; stroke-width: 2"/>
    <path d="M 240.7085 218.939627 
L 240.7085 124.698662 
" clip-path="url(#pa755fe6fa4)" style="fill: none; stroke: #bc80bd; stroke-opacity: 0.2; stroke-width: 2"/>
    <path d="M 287.516666 208.009516 
L 287.516666 106.638784 
" clip-path="url(#pa755fe6fa4)" style="fill: none; stroke: #bc80bd; stroke-opacity: 0.2; stroke-width: 2"/>
    <path d="M 432.675534 285.2819 
L 432.675534 139.879544 
" clip-path="url(#pa755fe6fa4)" style="fill: none; stroke: #bc80bd; stroke-opacity: 0.2; stroke-width: 2"/>
   </g>
   <g id="LineCollection_2">
    <path d="M 83.282743 248.343927 
L 83.282743 181.98312 
" clip-path="url(#pa755fe6fa4)" style="fill: none; stroke: #fb8072; stroke-opacity: 0.2; stroke-width: 2"/>
    <path d="M 85.90104 223.539012 
L 85.90104 164.351579 
" clip-path="url(#pa755fe6fa4)" style="fill: none; stroke: #fb8072; stroke-opacity: 0.2; stroke-width: 2"/>
    <path d="M 88.921431 221.357926 
L 88.921431 156.711834 
" clip-path="url(#pa755fe6fa4)" style="fill: none; stroke: #fb8072; stroke-opacity: 0.2; stroke-width: 2"/>
    <path d="M 92.319061 223.955316 
L 92.319061 144.491974 
" clip-path="url(#pa755fe6fa4)" style="fill: none; stroke: #fb8072; stroke-opacity: 0.2; stroke-width: 2"/>
    <path d="M 96.156743 197.182825 
L 96.156743 129.472358 
" clip-path="url(#pa755fe6fa4)" style="fill: none; stroke: #fb8072; stroke-opacity: 0.2; stroke-width: 2"/>
    <path d="M 100.458443 181.902243 
L 100.458443 105.385641 
" clip-path="url(#pa755fe6fa4)" style="fill: none; stroke: #fb8072; stroke-opacity: 0.2; stroke-width: 2"/>
    <path d="M 104.909274 189.075262 
L 104.909274 82.474929 
" clip-path="url(#pa755fe6fa4)" style="fill: none; stroke: #fb8072; stroke-opacity: 0.2; stroke-width: 2"/>
    <path d="M 109.935414 179.403247 
L 109.935414 81.920408 
" clip-path="url(#pa755fe6fa4)" style="fill: none; stroke: #fb8072; stroke-opacity: 0.2; stroke-width: 2"/>
    <path d="M 115.229403 157.855763 
L 115.229403 62.616675 
" clip-path="url(#pa755fe6fa4)" style="fill: none; stroke: #fb8072; stroke-opacity: 0.2; stroke-width: 2"/>
    <path d="M 121.296621 156.165486 
L 121.296621 53.375023 
" clip-path="url(#pa755fe6fa4)" style="fill: none; stroke: #fb8072; stroke-opacity: 0.2; stroke-width: 2"/>
    <path d="M 128.505085 151.685828 
L 128.505085 60.775252 
" clip-path="url(#pa755fe6fa4)" style="fill: none; stroke: #fb8072; stroke-opacity: 0.2; stroke-width: 2"/>
    <path d="M 135.943749 137.799553 
L 135.943749 36.7275 
" clip-path="url(#pa755fe6fa4)" style="fill: none; stroke: #fb8072; stroke-opacity: 0.2; stroke-width: 2"/>
    <path d="M 144.854527 155.162014 
L 144.854527 49.841975 
" clip-path="url(#pa755fe6fa4)" style="fill: none; stroke: #fb8072; stroke-opacity: 0.2; stroke-width: 2"/>
    <path d="M 155.08594 157.534142 
L 155.08594 56.694677 
" clip-path="url(#pa755fe6fa4)" style="fill: none; stroke: #fb8072; stroke-opacity: 0.2; stroke-width: 2"/>
    <path d="M 168.384149 167.8697 
L 168.384149 63.482293 
" clip-path="url(#pa755fe6fa4)" style="fill: none; stroke: #fb8072; stroke-opacity: 0.2; stroke-width: 2"/>
    <path d="M 183.781809 197.283775 
L 183.781809 104.867948 
" clip-path="url(#pa755fe6fa4)" style="fill: none; stroke: #fb8072; stroke-opacity: 0.2; stroke-width: 2"/>
    <path d="M 204.800363 261.401382 
L 204.800363 178.099397 
" clip-path="url(#pa755fe6fa4)" style="fill: none; stroke: #fb8072; stroke-opacity: 0.2; stroke-width: 2"/>
    <path d="M 234.62422 256.525574 
L 234.62422 179.160276 
" clip-path="url(#pa755fe6fa4)" style="fill: none; stroke: #fb8072; stroke-opacity: 0.2; stroke-width: 2"/>
    <path d="M 280.531277 258.035921 
L 280.531277 163.46467 
" clip-path="url(#pa755fe6fa4)" style="fill: none; stroke: #fb8072; stroke-opacity: 0.2; stroke-width: 2"/>
    <path d="M 438.245455 288.7275 
L 438.245455 176.327545 
" clip-path="url(#pa755fe6fa4)" style="fill: none; stroke: #fb8072; stroke-opacity: 0.2; stroke-width: 2"/>
   </g>
   <g id="line2d_12"/>
   <g id="line2d_13"/>
   <g id="patch_3">
    <path d="M 65.4 301.3275 
L 65.4 24.1275 
" style="fill: none; stroke: #000000; stroke-width: 0.6; stroke-linejoin: miter; stroke-linecap: square"/>
   </g>
   <g id="patch_4">
    <path d="M 65.4 301.3275 
L 456 301.3275 
" style="fill: none; stroke: #000000; stroke-width: 0.6; stroke-linejoin: miter; stroke-linecap: square"/>
   </g>
   <g id="text_14">
    <!-- Binscatter: sales as a function of age conditioned on products -->
    <g style="fill: #323034" transform="translate(65.4 18.1275)scale(0.16 -0.16)">
     <defs>
      <path id="STIXGeneral-Regular-42" d="M 2701 2234 
L 2701 2227 
Q 3181 2150 3482 1875 
Q 3795 1594 3795 1139 
Q 3795 608 3379 304 
Q 2963 0 2266 0 
L 109 0 
L 109 122 
Q 486 134 604 246 
Q 723 358 723 723 
L 723 3520 
Q 723 3891 614 3990 
Q 506 4090 109 4115 
L 109 4237 
L 1901 4237 
Q 2726 4237 3152 3958 
Q 3578 3680 3578 3168 
Q 3578 2733 3315 2502 
Q 3130 2342 2701 2234 
z
M 1376 2342 
L 1965 2342 
Q 2925 2342 2925 3136 
Q 2925 3546 2640 3773 
Q 2355 4000 1792 4000 
L 1530 4000 
Q 1376 4000 1376 3795 
L 1376 2342 
z
M 1376 2086 
L 1376 525 
Q 1376 365 1462 301 
Q 1549 237 1773 237 
Q 2208 237 2413 285 
Q 2618 333 2816 512 
Q 3059 723 3059 1146 
Q 3059 1632 2758 1830 
Q 2688 1882 2617 1917 
Q 2547 1952 2492 1974 
Q 2438 1997 2348 2016 
Q 2259 2035 2211 2044 
Q 2163 2054 2041 2060 
Q 1920 2067 1862 2070 
Q 1805 2074 1635 2080 
Q 1466 2086 1376 2086 
z
" transform="scale(0.015625)"/>
      <path id="STIXGeneral-Regular-69" d="M 1152 4045 
Q 1152 3904 1056 3811 
Q 960 3718 819 3718 
Q 685 3718 592 3811 
Q 499 3904 499 4045 
Q 499 4179 595 4275 
Q 691 4371 826 4371 
Q 966 4371 1059 4275 
Q 1152 4179 1152 4045 
z
M 1619 0 
L 102 0 
L 102 96 
Q 435 115 521 211 
Q 608 307 608 666 
L 608 2118 
Q 608 2342 563 2432 
Q 518 2522 397 2522 
Q 243 2522 128 2490 
L 128 2592 
L 1120 2944 
L 1146 2918 
L 1146 672 
Q 1146 314 1226 218 
Q 1306 122 1619 96 
L 1619 0 
z
" transform="scale(0.015625)"/>
      <path id="STIXGeneral-Regular-6e" d="M 3104 0 
L 1773 0 
L 1779 96 
Q 2016 115 2096 233 
Q 2176 352 2176 672 
L 2176 1946 
Q 2176 2592 1709 2592 
Q 1549 2592 1408 2515 
Q 1267 2438 1050 2227 
L 1050 461 
Q 1050 269 1136 192 
Q 1222 115 1466 96 
L 1466 0 
L 115 0 
L 115 96 
Q 358 115 435 214 
Q 512 314 512 602 
L 512 2157 
Q 512 2394 467 2483 
Q 422 2573 288 2573 
Q 160 2573 102 2547 
L 102 2656 
Q 550 2784 979 2944 
L 1030 2925 
L 1030 2426 
L 1037 2426 
Q 1491 2944 1958 2944 
Q 2323 2944 2518 2688 
Q 2714 2432 2714 1958 
L 2714 544 
Q 2714 288 2790 205 
Q 2867 122 3104 96 
L 3104 0 
z
" transform="scale(0.015625)"/>
      <path id="STIXGeneral-Regular-63" d="M 2547 998 
L 2637 941 
Q 2362 403 2112 205 
Q 1786 -64 1376 -64 
Q 845 -64 502 336 
Q 160 736 160 1357 
Q 160 2170 698 2618 
Q 1094 2944 1562 2944 
Q 1965 2944 2256 2749 
Q 2547 2554 2547 2285 
Q 2547 2176 2457 2096 
Q 2368 2016 2246 2016 
Q 2022 2016 1939 2310 
L 1901 2451 
Q 1850 2630 1773 2694 
Q 1696 2758 1523 2758 
Q 1133 2758 893 2451 
Q 653 2144 653 1645 
Q 653 1094 928 745 
Q 1203 397 1645 397 
Q 1920 397 2118 528 
Q 2317 659 2547 998 
z
" transform="scale(0.015625)"/>
      <path id="STIXGeneral-Regular-74" d="M 1702 493 
L 1786 422 
Q 1478 -64 1011 -64 
Q 448 -64 448 749 
L 448 2675 
L 109 2675 
Q 83 2694 83 2720 
Q 83 2771 192 2842 
Q 435 2982 813 3526 
Q 826 3546 874 3606 
Q 922 3667 941 3706 
Q 986 3706 986 3622 
L 986 2880 
L 1632 2880 
L 1632 2675 
L 986 2675 
L 986 845 
Q 986 538 1062 403 
Q 1139 269 1318 269 
Q 1510 269 1702 493 
z
" transform="scale(0.015625)"/>
      <path id="STIXGeneral-Regular-72" d="M 1024 2931 
L 1024 2342 
Q 1267 2688 1430 2816 
Q 1594 2944 1792 2944 
Q 1958 2944 2051 2854 
Q 2144 2765 2144 2605 
Q 2144 2470 2077 2393 
Q 2010 2317 1894 2317 
Q 1773 2317 1638 2445 
Q 1536 2541 1472 2541 
Q 1338 2541 1181 2355 
Q 1024 2170 1024 2016 
L 1024 576 
Q 1024 301 1133 205 
Q 1242 109 1568 96 
L 1568 0 
L 32 0 
L 32 96 
Q 339 154 412 224 
Q 486 294 486 538 
L 486 2138 
Q 486 2349 438 2435 
Q 390 2522 269 2522 
Q 166 2522 45 2496 
L 45 2598 
Q 448 2726 992 2944 
L 1024 2931 
z
" transform="scale(0.015625)"/>
      <path id="STIXGeneral-Regular-3a" d="M 1123 2832 
Q 1229 2726 1229 2579 
Q 1229 2432 1126 2329 
Q 1024 2227 877 2227 
Q 730 2227 624 2332 
Q 518 2438 518 2579 
Q 518 2733 620 2835 
Q 723 2938 877 2938 
Q 1018 2938 1123 2832 
z
M 1229 282 
Q 1229 141 1126 35 
Q 1024 -70 877 -70 
Q 730 -70 624 35 
Q 518 141 518 282 
Q 518 435 620 537 
Q 723 640 877 640 
Q 1018 640 1123 534 
Q 1229 429 1229 282 
z
" transform="scale(0.015625)"/>
      <path id="STIXGeneral-Regular-20" transform="scale(0.015625)"/>
      <path id="STIXGeneral-Regular-66" d="M 134 2880 
L 659 2880 
Q 666 3264 710 3478 
Q 755 3693 883 3910 
Q 1152 4371 1786 4371 
Q 2074 4371 2262 4259 
Q 2451 4147 2451 3974 
Q 2451 3866 2374 3789 
Q 2298 3712 2182 3712 
Q 2029 3712 1894 3942 
Q 1741 4192 1555 4192 
Q 1197 4192 1197 3622 
L 1197 2880 
L 1978 2880 
L 1978 2675 
L 1197 2675 
L 1197 666 
Q 1197 307 1299 208 
Q 1402 109 1792 96 
L 1792 0 
L 128 0 
L 128 96 
Q 474 115 566 214 
Q 659 314 659 666 
L 659 2675 
L 134 2675 
L 134 2880 
z
" transform="scale(0.015625)"/>
      <path id="STIXGeneral-Regular-75" d="M 3072 320 
L 3072 230 
Q 2573 96 2195 -58 
L 2163 -38 
L 2163 486 
L 2150 486 
Q 1747 -64 1235 -64 
Q 870 -64 662 160 
Q 454 384 454 755 
L 454 2362 
Q 454 2598 371 2688 
Q 288 2778 58 2790 
L 58 2880 
L 992 2880 
L 992 813 
Q 992 595 1123 451 
Q 1254 307 1446 307 
Q 1760 307 1984 506 
Q 2067 582 2099 649 
Q 2131 717 2131 877 
L 2131 2355 
Q 2131 2605 2041 2678 
Q 1952 2752 1658 2771 
L 1658 2880 
L 2669 2880 
L 2669 685 
Q 2669 461 2742 390 
Q 2816 320 3034 320 
L 3072 320 
z
" transform="scale(0.015625)"/>
      <path id="STIXGeneral-Regular-6f" d="M 3008 1478 
Q 3008 806 2608 371 
Q 2208 -64 1568 -64 
Q 979 -64 582 368 
Q 186 800 186 1459 
Q 186 2125 582 2534 
Q 979 2944 1626 2944 
Q 2221 2944 2614 2537 
Q 3008 2131 3008 1478 
z
M 2432 1306 
Q 2432 2035 2112 2445 
Q 1856 2765 1504 2765 
Q 1171 2765 966 2493 
Q 762 2221 762 1747 
Q 762 928 1101 435 
Q 1318 115 1677 115 
Q 2029 115 2230 432 
Q 2432 749 2432 1306 
z
" transform="scale(0.015625)"/>
      <path id="STIXGeneral-Regular-64" d="M 3142 269 
L 2202 -64 
L 2176 -45 
L 2176 365 
Q 1869 -64 1357 -64 
Q 826 -64 499 317 
Q 173 698 173 1312 
Q 173 1990 563 2467 
Q 954 2944 1504 2944 
Q 1850 2944 2176 2669 
L 2176 3667 
Q 2176 3866 2118 3930 
Q 2061 3994 1882 3994 
Q 1792 3994 1741 3987 
L 1741 4090 
Q 2323 4243 2682 4371 
L 2714 4358 
L 2714 730 
Q 2714 506 2768 435 
Q 2822 365 2995 365 
Q 3034 365 3142 371 
L 3142 269 
z
M 2176 653 
L 2176 2125 
Q 2176 2381 1981 2573 
Q 1786 2765 1523 2765 
Q 1158 2765 940 2438 
Q 723 2112 723 1568 
Q 723 979 963 624 
Q 1203 269 1606 269 
Q 1907 269 2080 474 
Q 2176 582 2176 653 
z
" transform="scale(0.015625)"/>
      <path id="STIXGeneral-Regular-70" d="M 1018 2931 
L 1018 2438 
Q 1421 2944 1939 2944 
Q 2406 2944 2707 2560 
Q 3008 2176 3008 1581 
Q 3008 883 2621 409 
Q 2234 -64 1664 -64 
Q 1466 -64 1328 -6 
Q 1190 51 1018 211 
L 1018 -794 
Q 1018 -1094 1120 -1180 
Q 1222 -1267 1581 -1274 
L 1581 -1389 
L 32 -1389 
L 32 -1280 
Q 314 -1254 397 -1171 
Q 480 -1088 480 -838 
L 480 2157 
Q 480 2381 429 2451 
Q 378 2522 218 2522 
Q 115 2522 58 2515 
L 58 2618 
Q 506 2752 979 2944 
L 1018 2931 
z
M 1018 2138 
L 1018 563 
Q 1018 422 1238 281 
Q 1459 141 1683 141 
Q 2029 141 2243 467 
Q 2458 794 2458 1325 
Q 2458 1888 2243 2224 
Q 2029 2560 1670 2560 
Q 1446 2560 1232 2419 
Q 1018 2278 1018 2138 
z
" transform="scale(0.015625)"/>
     </defs>
     <use xlink:href="#STIXGeneral-Regular-42"/>
     <use xlink:href="#STIXGeneral-Regular-69" x="66.699997"/>
     <use xlink:href="#STIXGeneral-Regular-6e" x="94.499985"/>
     <use xlink:href="#STIXGeneral-Regular-73" x="144.499969"/>
     <use xlink:href="#STIXGeneral-Regular-63" x="183.399963"/>
     <use xlink:href="#STIXGeneral-Regular-61" x="227.799957"/>
     <use xlink:href="#STIXGeneral-Regular-74" x="272.199951"/>
     <use xlink:href="#STIXGeneral-Regular-74" x="299.999939"/>
     <use xlink:href="#STIXGeneral-Regular-65" x="327.799927"/>
     <use xlink:href="#STIXGeneral-Regular-72" x="372.199921"/>
     <use xlink:href="#STIXGeneral-Regular-3a" x="405.499908"/>
     <use xlink:href="#STIXGeneral-Regular-20" x="433.299896"/>
     <use xlink:href="#STIXGeneral-Regular-73" x="458.299881"/>
     <use xlink:href="#STIXGeneral-Regular-61" x="497.199875"/>
     <use xlink:href="#STIXGeneral-Regular-6c" x="541.599869"/>
     <use xlink:href="#STIXGeneral-Regular-65" x="569.399857"/>
     <use xlink:href="#STIXGeneral-Regular-73" x="613.79985"/>
     <use xlink:href="#STIXGeneral-Regular-20" x="652.699844"/>
     <use xlink:href="#STIXGeneral-Regular-61" x="677.699829"/>
     <use xlink:href="#STIXGeneral-Regular-73" x="722.099823"/>
     <use xlink:href="#STIXGeneral-Regular-20" x="760.999817"/>
     <use xlink:href="#STIXGeneral-Regular-61" x="785.999802"/>
     <use xlink:href="#STIXGeneral-Regular-20" x="830.399796"/>
     <use xlink:href="#STIXGeneral-Regular-66" x="855.39978"/>
     <use xlink:href="#STIXGeneral-Regular-75" x="888.699768"/>
     <use xlink:href="#STIXGeneral-Regular-6e" x="938.699753"/>
     <use xlink:href="#STIXGeneral-Regular-63" x="988.699738"/>
     <use xlink:href="#STIXGeneral-Regular-74" x="1033.099731"/>
     <use xlink:href="#STIXGeneral-Regular-69" x="1060.899719"/>
     <use xlink:href="#STIXGeneral-Regular-6f" x="1088.699707"/>
     <use xlink:href="#STIXGeneral-Regular-6e" x="1138.699692"/>
     <use xlink:href="#STIXGeneral-Regular-20" x="1188.699677"/>
     <use xlink:href="#STIXGeneral-Regular-6f" x="1213.699661"/>
     <use xlink:href="#STIXGeneral-Regular-66" x="1263.699646"/>
     <use xlink:href="#STIXGeneral-Regular-20" x="1296.999634"/>
     <use xlink:href="#STIXGeneral-Regular-61" x="1321.999619"/>
     <use xlink:href="#STIXGeneral-Regular-67" x="1366.399612"/>
     <use xlink:href="#STIXGeneral-Regular-65" x="1416.399597"/>
     <use xlink:href="#STIXGeneral-Regular-20" x="1460.799591"/>
     <use xlink:href="#STIXGeneral-Regular-63" x="1485.799576"/>
     <use xlink:href="#STIXGeneral-Regular-6f" x="1530.19957"/>
     <use xlink:href="#STIXGeneral-Regular-6e" x="1580.199554"/>
     <use xlink:href="#STIXGeneral-Regular-64" x="1630.199539"/>
     <use xlink:href="#STIXGeneral-Regular-69" x="1680.199524"/>
     <use xlink:href="#STIXGeneral-Regular-74" x="1707.999512"/>
     <use xlink:href="#STIXGeneral-Regular-69" x="1735.7995"/>
     <use xlink:href="#STIXGeneral-Regular-6f" x="1763.599487"/>
     <use xlink:href="#STIXGeneral-Regular-6e" x="1813.599472"/>
     <use xlink:href="#STIXGeneral-Regular-65" x="1863.599457"/>
     <use xlink:href="#STIXGeneral-Regular-64" x="1907.999451"/>
     <use xlink:href="#STIXGeneral-Regular-20" x="1957.999435"/>
     <use xlink:href="#STIXGeneral-Regular-6f" x="1982.99942"/>
     <use xlink:href="#STIXGeneral-Regular-6e" x="2032.999405"/>
     <use xlink:href="#STIXGeneral-Regular-20" x="2082.99939"/>
     <use xlink:href="#STIXGeneral-Regular-70" x="2107.999374"/>
     <use xlink:href="#STIXGeneral-Regular-72" x="2157.999359"/>
     <use xlink:href="#STIXGeneral-Regular-6f" x="2191.299347"/>
     <use xlink:href="#STIXGeneral-Regular-64" x="2241.299332"/>
     <use xlink:href="#STIXGeneral-Regular-75" x="2291.299316"/>
     <use xlink:href="#STIXGeneral-Regular-63" x="2341.299301"/>
     <use xlink:href="#STIXGeneral-Regular-74" x="2385.699295"/>
     <use xlink:href="#STIXGeneral-Regular-73" x="2413.499283"/>
    </g>
   </g>
  </g>
  <g id="legend_1">
   <g id="patch_5">
    <path d="M 444.902969 176.574531 
L 486.22 176.574531 
Q 488.42 176.574531 488.42 174.374531 
L 488.42 127.880469 
Q 488.42 125.680469 486.22 125.680469 
L 444.902969 125.680469 
Q 442.702969 125.680469 442.702969 127.880469 
L 442.702969 174.374531 
Q 442.702969 176.574531 444.902969 176.574531 
z
" style="fill: #eaeaf2; opacity: 0.8; stroke: #cccccc; stroke-linejoin: miter"/>
   </g>
   <g id="text_15">
    <!-- online -->
    <g style="fill: #262626" transform="translate(449.548984 138.669844)scale(0.12 -0.12)">
     <defs>
      <path id="ArialMT-6f" d="M 213 1659 
Q 213 2581 725 3025 
Q 1153 3394 1769 3394 
Q 2453 3394 2887 2945 
Q 3322 2497 3322 1706 
Q 3322 1066 3130 698 
Q 2938 331 2570 128 
Q 2203 -75 1769 -75 
Q 1072 -75 642 372 
Q 213 819 213 1659 
z
M 791 1659 
Q 791 1022 1069 705 
Q 1347 388 1769 388 
Q 2188 388 2466 706 
Q 2744 1025 2744 1678 
Q 2744 2294 2464 2611 
Q 2184 2928 1769 2928 
Q 1347 2928 1069 2612 
Q 791 2297 791 1659 
z
" transform="scale(0.015625)"/>
      <path id="ArialMT-6e" d="M 422 0 
L 422 3319 
L 928 3319 
L 928 2847 
Q 1294 3394 1984 3394 
Q 2284 3394 2536 3286 
Q 2788 3178 2913 3003 
Q 3038 2828 3088 2588 
Q 3119 2431 3119 2041 
L 3119 0 
L 2556 0 
L 2556 2019 
Q 2556 2363 2490 2533 
Q 2425 2703 2258 2804 
Q 2091 2906 1866 2906 
Q 1506 2906 1245 2678 
Q 984 2450 984 1813 
L 984 0 
L 422 0 
z
" transform="scale(0.015625)"/>
      <path id="ArialMT-6c" d="M 409 0 
L 409 4581 
L 972 4581 
L 972 0 
L 409 0 
z
" transform="scale(0.015625)"/>
      <path id="ArialMT-69" d="M 425 3934 
L 425 4581 
L 988 4581 
L 988 3934 
L 425 3934 
z
M 425 0 
L 425 3319 
L 988 3319 
L 988 0 
L 425 0 
z
" transform="scale(0.015625)"/>
      <path id="ArialMT-65" d="M 2694 1069 
L 3275 997 
Q 3138 488 2766 206 
Q 2394 -75 1816 -75 
Q 1088 -75 661 373 
Q 234 822 234 1631 
Q 234 2469 665 2931 
Q 1097 3394 1784 3394 
Q 2450 3394 2872 2941 
Q 3294 2488 3294 1666 
Q 3294 1616 3291 1516 
L 816 1516 
Q 847 969 1125 678 
Q 1403 388 1819 388 
Q 2128 388 2347 550 
Q 2566 713 2694 1069 
z
M 847 1978 
L 2700 1978 
Q 2663 2397 2488 2606 
Q 2219 2931 1791 2931 
Q 1403 2931 1139 2672 
Q 875 2413 847 1978 
z
" transform="scale(0.015625)"/>
     </defs>
     <use xlink:href="#ArialMT-6f"/>
     <use xlink:href="#ArialMT-6e" x="55.615234"/>
     <use xlink:href="#ArialMT-6c" x="111.230469"/>
     <use xlink:href="#ArialMT-69" x="133.447266"/>
     <use xlink:href="#ArialMT-6e" x="155.664062"/>
     <use xlink:href="#ArialMT-65" x="211.279297"/>
    </g>
   </g>
   <g id="PathCollection_2">
    <defs>
     <path id="madd2a0e939" d="M 0 3.5 
C 0.928211 3.5 1.81853 3.131218 2.474874 2.474874 
C 3.131218 1.81853 3.5 0.928211 3.5 0 
C 3.5 -0.928211 3.131218 -1.81853 2.474874 -2.474874 
C 1.81853 -3.131218 0.928211 -3.5 0 -3.5 
C -0.928211 -3.5 -1.81853 -3.131218 -2.474874 -2.474874 
C -3.131218 -1.81853 -3.5 -0.928211 -3.5 0 
C -3.5 0.928211 -3.131218 1.81853 -2.474874 2.474874 
C -1.81853 3.131218 -0.928211 3.5 0 3.5 
z
" style="stroke: #4c72b0; stroke-width: 0.75"/>
    </defs>
    <g>
     <use xlink:href="#madd2a0e939" x="458.102969" y="151.540937" style="fill: #4c72b0; fill-opacity: 0.2; stroke: #4c72b0; stroke-width: 0.75"/>
    </g>
   </g>
   <g id="text_16">
    <!-- 0 -->
    <g style="fill: #262626" transform="translate(477.902969 154.428437)scale(0.11 -0.11)">
     <defs>
      <path id="ArialMT-30" d="M 266 2259 
Q 266 3072 433 3567 
Q 600 4063 929 4331 
Q 1259 4600 1759 4600 
Q 2128 4600 2406 4451 
Q 2684 4303 2865 4023 
Q 3047 3744 3150 3342 
Q 3253 2941 3253 2259 
Q 3253 1453 3087 958 
Q 2922 463 2592 192 
Q 2263 -78 1759 -78 
Q 1097 -78 719 397 
Q 266 969 266 2259 
z
M 844 2259 
Q 844 1131 1108 757 
Q 1372 384 1759 384 
Q 2147 384 2411 759 
Q 2675 1134 2675 2259 
Q 2675 3391 2411 3762 
Q 2147 4134 1753 4134 
Q 1366 4134 1134 3806 
Q 844 3388 844 2259 
z
" transform="scale(0.015625)"/>
     </defs>
     <use xlink:href="#ArialMT-30"/>
    </g>
   </g>
   <g id="PathCollection_3">
    <defs>
     <path id="m84af53de29" d="M 0 3.5 
C 0.928211 3.5 1.81853 3.131218 2.474874 2.474874 
C 3.131218 1.81853 3.5 0.928211 3.5 0 
C 3.5 -0.928211 3.131218 -1.81853 2.474874 -2.474874 
C 1.81853 -3.131218 0.928211 -3.5 0 -3.5 
C -0.928211 -3.5 -1.81853 -3.131218 -2.474874 -2.474874 
C -3.131218 -1.81853 -3.5 -0.928211 -3.5 0 
C -3.5 0.928211 -3.131218 1.81853 -2.474874 2.474874 
C -1.81853 3.131218 -0.928211 3.5 0 3.5 
z
" style="stroke: #dd8452; stroke-width: 0.75"/>
    </defs>
    <g>
     <use xlink:href="#m84af53de29" x="458.102969" y="167.100781" style="fill: #dd8452; fill-opacity: 0.2; stroke: #dd8452; stroke-width: 0.75"/>
    </g>
   </g>
   <g id="text_17">
    <!-- 1 -->
    <g style="fill: #262626" transform="translate(477.902969 169.988281)scale(0.11 -0.11)">
     <defs>
      <path id="ArialMT-31" d="M 2384 0 
L 1822 0 
L 1822 3584 
Q 1619 3391 1289 3197 
Q 959 3003 697 2906 
L 697 3450 
Q 1169 3672 1522 3987 
Q 1875 4303 2022 4600 
L 2384 4600 
L 2384 0 
z
" transform="scale(0.015625)"/>
     </defs>
     <use xlink:href="#ArialMT-31"/>
    </g>
   </g>
  </g>
 </g>
 <defs>
  <clipPath id="pa755fe6fa4">
   <rect x="65.4" y="24.1275" width="390.6" height="277.2"/>
  </clipPath>
 </defs>
</svg>
