<?xml version="1.0" encoding="utf-8" standalone="no"?>
<!DOCTYPE svg PUBLIC "-//W3C//DTD SVG 1.1//EN"
  "http://www.w3.org/Graphics/SVG/1.1/DTD/svg11.dtd">
<svg height="353.99952pt" version="1.1" viewBox="0 0 526.79952 353.99952" width="526.79952pt" xmlns="http://www.w3.org/2000/svg" xmlns:xlink="http://www.w3.org/1999/xlink">
 <metadata>
  <rdf:RDF xmlns:cc="http://creativecommons.org/ns#" xmlns:dc="http://purl.org/dc/elements/1.1/" xmlns:rdf="http://www.w3.org/1999/02/22-rdf-syntax-ns#">
   <cc:Work>
    <dc:type rdf:resource="http://purl.org/dc/dcmitype/StillImage"/>
    <dc:date>2022-08-20T17:53:25.155327</dc:date>
    <dc:format>image/svg+xml</dc:format>
    <dc:creator>
     <cc:Agent>
      <dc:title>Matplotlib v3.4.3, https://matplotlib.org/</dc:title>
     </cc:Agent>
    </dc:creator>
   </cc:Work>
  </rdf:RDF>
 </metadata>
 <defs>
  <style type="text/css">*{stroke-linecap:butt;stroke-linejoin:round;}</style>
 </defs>
 <g id="figure_1">
  <g id="patch_1">
   <path d="M 0 353.99952 
L 526.79952 353.99952 
L 526.79952 0 
L 0 0 
z
" style="fill:#ffffff;"/>
  </g>
  <g id="axes_1">
   <g id="patch_2">
    <path d="M 61.36 314.19952 
L 516.09952 314.19952 
L 516.09952 24.1275 
L 61.36 24.1275 
z
" style="fill:#eeeeee;"/>
   </g>
   <g id="matplotlib.axis_1">
    <g id="xtick_1">
     <g id="line2d_1">
      <path clip-path="url(#p8948ea9fb1)" d="M 61.36 314.19952 
L 61.36 24.1275 
" style="fill:none;stroke:#ffffff;stroke-linecap:round;stroke-width:0.8;"/>
     </g>
     <g id="line2d_2"/>
     <g id="text_1">
      <!-- $\mathdefault{−3}$ -->
      <g style="fill:#262626;" transform="translate(53.03 327.261082)scale(0.14 -0.14)">
       <defs>
        <path d="M 3974 1408 
L 410 1408 
L 410 1830 
L 3974 1830 
L 3974 1408 
z
" id="STIXGeneral-Regular-2212" transform="scale(0.015625)"/>
        <path d="M 390 3264 
L 288 3290 
Q 435 3770 748 4048 
Q 1062 4326 1542 4326 
Q 1990 4326 2265 4083 
Q 2541 3840 2541 3450 
Q 2541 2925 1946 2566 
Q 2298 2413 2477 2227 
Q 2758 1914 2758 1402 
Q 2758 890 2464 506 
Q 2246 211 1840 60 
Q 1434 -90 979 -90 
Q 262 -90 262 275 
Q 262 378 339 442 
Q 416 506 525 506 
Q 685 506 915 339 
Q 1197 141 1466 141 
Q 1818 141 2058 425 
Q 2298 710 2298 1120 
Q 2298 1856 1632 2048 
Q 1434 2112 979 2112 
L 979 2202 
Q 1338 2323 1517 2432 
Q 2035 2726 2035 3290 
Q 2035 3610 1852 3776 
Q 1670 3942 1344 3942 
Q 768 3942 390 3264 
z
" id="STIXGeneral-Regular-33" transform="scale(0.015625)"/>
       </defs>
       <use transform="translate(0 0.40625)" xlink:href="#STIXGeneral-Regular-2212"/>
       <use transform="translate(68.499985 0.40625)" xlink:href="#STIXGeneral-Regular-33"/>
      </g>
     </g>
    </g>
    <g id="xtick_2">
     <g id="line2d_3">
      <path clip-path="url(#p8948ea9fb1)" d="M 137.14992 314.19952 
L 137.14992 24.1275 
" style="fill:none;stroke:#ffffff;stroke-linecap:round;stroke-width:0.8;"/>
     </g>
     <g id="line2d_4"/>
     <g id="text_2">
      <!-- $\mathdefault{−2}$ -->
      <g style="fill:#262626;" transform="translate(128.81992 327.261082)scale(0.14 -0.14)">
       <defs>
        <path d="M 3034 877 
L 2688 0 
L 186 0 
L 186 77 
L 1325 1286 
Q 1773 1754 1965 2144 
Q 2157 2534 2157 2950 
Q 2157 3379 1920 3616 
Q 1683 3853 1267 3853 
Q 922 3853 720 3673 
Q 518 3494 326 3021 
L 192 3053 
Q 301 3648 630 3987 
Q 960 4326 1523 4326 
Q 2054 4326 2380 4006 
Q 2707 3686 2707 3200 
Q 2707 2477 1888 1613 
L 832 486 
L 2330 486 
Q 2541 486 2665 569 
Q 2790 653 2944 915 
L 3034 877 
z
" id="STIXGeneral-Regular-32" transform="scale(0.015625)"/>
       </defs>
       <use transform="translate(0 0.40625)" xlink:href="#STIXGeneral-Regular-2212"/>
       <use transform="translate(68.499985 0.40625)" xlink:href="#STIXGeneral-Regular-32"/>
      </g>
     </g>
    </g>
    <g id="xtick_3">
     <g id="line2d_5">
      <path clip-path="url(#p8948ea9fb1)" d="M 212.93984 314.19952 
L 212.93984 24.1275 
" style="fill:none;stroke:#ffffff;stroke-linecap:round;stroke-width:0.8;"/>
     </g>
     <g id="line2d_6"/>
     <g id="text_3">
      <!-- $\mathdefault{−1}$ -->
      <g style="fill:#262626;" transform="translate(204.60984 327.261082)scale(0.14 -0.14)">
       <defs>
        <path d="M 2522 0 
L 755 0 
L 755 96 
Q 1107 115 1235 227 
Q 1363 339 1363 608 
L 1363 3482 
Q 1363 3795 1171 3795 
Q 1082 3795 883 3718 
L 710 3654 
L 710 3744 
L 1856 4326 
L 1914 4307 
L 1914 486 
Q 1914 275 2042 185 
Q 2170 96 2522 96 
L 2522 0 
z
" id="STIXGeneral-Regular-31" transform="scale(0.015625)"/>
       </defs>
       <use transform="translate(0 0.40625)" xlink:href="#STIXGeneral-Regular-2212"/>
       <use transform="translate(68.499985 0.40625)" xlink:href="#STIXGeneral-Regular-31"/>
      </g>
     </g>
    </g>
    <g id="xtick_4">
     <g id="line2d_7">
      <path clip-path="url(#p8948ea9fb1)" d="M 288.72976 314.19952 
L 288.72976 24.1275 
" style="fill:none;stroke:#ffffff;stroke-linecap:round;stroke-width:0.8;"/>
     </g>
     <g id="line2d_8"/>
     <g id="text_4">
      <!-- $\mathdefault{0}$ -->
      <g style="fill:#262626;" transform="translate(285.22976 327.261082)scale(0.14 -0.14)">
       <defs>
        <path d="M 3046 2112 
Q 3046 1683 2963 1302 
Q 2880 922 2717 602 
Q 2554 282 2266 96 
Q 1978 -90 1600 -90 
Q 1210 -90 915 108 
Q 621 307 461 640 
Q 301 973 227 1350 
Q 154 1728 154 2150 
Q 154 2746 301 3222 
Q 448 3699 790 4012 
Q 1133 4326 1626 4326 
Q 2253 4326 2649 3712 
Q 3046 3098 3046 2112 
z
M 2432 2080 
Q 2432 3091 2217 3625 
Q 2003 4160 1587 4160 
Q 1190 4160 979 3622 
Q 768 3085 768 2106 
Q 768 1120 979 598 
Q 1190 77 1600 77 
Q 2003 77 2217 598 
Q 2432 1120 2432 2080 
z
" id="STIXGeneral-Regular-30" transform="scale(0.015625)"/>
       </defs>
       <use transform="translate(0 0.40625)" xlink:href="#STIXGeneral-Regular-30"/>
      </g>
     </g>
    </g>
    <g id="xtick_5">
     <g id="line2d_9">
      <path clip-path="url(#p8948ea9fb1)" d="M 364.51968 314.19952 
L 364.51968 24.1275 
" style="fill:none;stroke:#ffffff;stroke-linecap:round;stroke-width:0.8;"/>
     </g>
     <g id="line2d_10"/>
     <g id="text_5">
      <!-- $\mathdefault{1}$ -->
      <g style="fill:#262626;" transform="translate(361.01968 327.261082)scale(0.14 -0.14)">
       <use transform="translate(0 0.40625)" xlink:href="#STIXGeneral-Regular-31"/>
      </g>
     </g>
    </g>
    <g id="xtick_6">
     <g id="line2d_11">
      <path clip-path="url(#p8948ea9fb1)" d="M 440.3096 314.19952 
L 440.3096 24.1275 
" style="fill:none;stroke:#ffffff;stroke-linecap:round;stroke-width:0.8;"/>
     </g>
     <g id="line2d_12"/>
     <g id="text_6">
      <!-- $\mathdefault{2}$ -->
      <g style="fill:#262626;" transform="translate(436.8096 327.261082)scale(0.14 -0.14)">
       <use transform="translate(0 0.40625)" xlink:href="#STIXGeneral-Regular-32"/>
      </g>
     </g>
    </g>
    <g id="xtick_7">
     <g id="line2d_13">
      <path clip-path="url(#p8948ea9fb1)" d="M 516.09952 314.19952 
L 516.09952 24.1275 
" style="fill:none;stroke:#ffffff;stroke-linecap:round;stroke-width:0.8;"/>
     </g>
     <g id="line2d_14"/>
     <g id="text_7">
      <!-- $\mathdefault{3}$ -->
      <g style="fill:#262626;" transform="translate(512.59952 327.261082)scale(0.14 -0.14)">
       <use transform="translate(0 0.40625)" xlink:href="#STIXGeneral-Regular-33"/>
      </g>
     </g>
    </g>
    <g id="text_8">
     <!-- Predictor (X) -->
     <g style="fill:#262626;" transform="translate(248.94226 343.544051)scale(0.15 -0.15)">
      <defs>
       <path d="M 102 4237 
L 1760 4237 
Q 2669 4237 3149 3834 
Q 3469 3565 3469 3072 
Q 3469 2560 3104 2234 
Q 2835 1990 2553 1916 
Q 2272 1843 1734 1843 
Q 1549 1843 1293 1862 
L 1293 717 
Q 1293 352 1398 246 
Q 1504 141 1894 122 
L 1894 0 
L 102 0 
L 102 122 
Q 474 147 557 256 
Q 640 365 640 781 
L 640 3526 
Q 640 3885 547 3987 
Q 454 4090 102 4115 
L 102 4237 
z
M 1293 3770 
L 1293 2118 
Q 1510 2099 1683 2099 
Q 2202 2099 2486 2352 
Q 2771 2605 2771 3040 
Q 2771 3558 2476 3779 
Q 2182 4000 1517 4000 
Q 1382 4000 1337 3952 
Q 1293 3904 1293 3770 
z
" id="STIXGeneral-Regular-50" transform="scale(0.015625)"/>
       <path d="M 1024 2931 
L 1024 2342 
Q 1267 2688 1430 2816 
Q 1594 2944 1792 2944 
Q 1958 2944 2051 2854 
Q 2144 2765 2144 2605 
Q 2144 2470 2077 2393 
Q 2010 2317 1894 2317 
Q 1773 2317 1638 2445 
Q 1536 2541 1472 2541 
Q 1338 2541 1181 2355 
Q 1024 2170 1024 2016 
L 1024 576 
Q 1024 301 1133 205 
Q 1242 109 1568 96 
L 1568 0 
L 32 0 
L 32 96 
Q 339 154 412 224 
Q 486 294 486 538 
L 486 2138 
Q 486 2349 438 2435 
Q 390 2522 269 2522 
Q 166 2522 45 2496 
L 45 2598 
Q 448 2726 992 2944 
L 1024 2931 
z
" id="STIXGeneral-Regular-72" transform="scale(0.015625)"/>
       <path d="M 2611 1050 
L 2714 1005 
Q 2330 -64 1376 -64 
Q 813 -64 486 329 
Q 160 723 160 1389 
Q 160 2074 525 2509 
Q 890 2944 1485 2944 
Q 2061 2944 2374 2502 
Q 2560 2246 2592 1773 
L 621 1773 
Q 646 1370 700 1158 
Q 755 947 915 730 
Q 1184 378 1626 378 
Q 1939 378 2153 531 
Q 2368 685 2611 1050 
z
M 634 1978 
L 1939 1978 
Q 1882 2381 1750 2547 
Q 1619 2714 1312 2714 
Q 1043 2714 864 2525 
Q 685 2336 634 1978 
z
" id="STIXGeneral-Regular-65" transform="scale(0.015625)"/>
       <path d="M 3142 269 
L 2202 -64 
L 2176 -45 
L 2176 365 
Q 1869 -64 1357 -64 
Q 826 -64 499 317 
Q 173 698 173 1312 
Q 173 1990 563 2467 
Q 954 2944 1504 2944 
Q 1850 2944 2176 2669 
L 2176 3667 
Q 2176 3866 2118 3930 
Q 2061 3994 1882 3994 
Q 1792 3994 1741 3987 
L 1741 4090 
Q 2323 4243 2682 4371 
L 2714 4358 
L 2714 730 
Q 2714 506 2768 435 
Q 2822 365 2995 365 
Q 3034 365 3142 371 
L 3142 269 
z
M 2176 653 
L 2176 2125 
Q 2176 2381 1981 2573 
Q 1786 2765 1523 2765 
Q 1158 2765 940 2438 
Q 723 2112 723 1568 
Q 723 979 963 624 
Q 1203 269 1606 269 
Q 1907 269 2080 474 
Q 2176 582 2176 653 
z
" id="STIXGeneral-Regular-64" transform="scale(0.015625)"/>
       <path d="M 1152 4045 
Q 1152 3904 1056 3811 
Q 960 3718 819 3718 
Q 685 3718 592 3811 
Q 499 3904 499 4045 
Q 499 4179 595 4275 
Q 691 4371 826 4371 
Q 966 4371 1059 4275 
Q 1152 4179 1152 4045 
z
M 1619 0 
L 102 0 
L 102 96 
Q 435 115 521 211 
Q 608 307 608 666 
L 608 2118 
Q 608 2342 563 2432 
Q 518 2522 397 2522 
Q 243 2522 128 2490 
L 128 2592 
L 1120 2944 
L 1146 2918 
L 1146 672 
Q 1146 314 1226 218 
Q 1306 122 1619 96 
L 1619 0 
z
" id="STIXGeneral-Regular-69" transform="scale(0.015625)"/>
       <path d="M 2547 998 
L 2637 941 
Q 2362 403 2112 205 
Q 1786 -64 1376 -64 
Q 845 -64 502 336 
Q 160 736 160 1357 
Q 160 2170 698 2618 
Q 1094 2944 1562 2944 
Q 1965 2944 2256 2749 
Q 2547 2554 2547 2285 
Q 2547 2176 2457 2096 
Q 2368 2016 2246 2016 
Q 2022 2016 1939 2310 
L 1901 2451 
Q 1850 2630 1773 2694 
Q 1696 2758 1523 2758 
Q 1133 2758 893 2451 
Q 653 2144 653 1645 
Q 653 1094 928 745 
Q 1203 397 1645 397 
Q 1920 397 2118 528 
Q 2317 659 2547 998 
z
" id="STIXGeneral-Regular-63" transform="scale(0.015625)"/>
       <path d="M 1702 493 
L 1786 422 
Q 1478 -64 1011 -64 
Q 448 -64 448 749 
L 448 2675 
L 109 2675 
Q 83 2694 83 2720 
Q 83 2771 192 2842 
Q 435 2982 813 3526 
Q 826 3546 874 3606 
Q 922 3667 941 3706 
Q 986 3706 986 3622 
L 986 2880 
L 1632 2880 
L 1632 2675 
L 986 2675 
L 986 845 
Q 986 538 1062 403 
Q 1139 269 1318 269 
Q 1510 269 1702 493 
z
" id="STIXGeneral-Regular-74" transform="scale(0.015625)"/>
       <path d="M 3008 1478 
Q 3008 806 2608 371 
Q 2208 -64 1568 -64 
Q 979 -64 582 368 
Q 186 800 186 1459 
Q 186 2125 582 2534 
Q 979 2944 1626 2944 
Q 2221 2944 2614 2537 
Q 3008 2131 3008 1478 
z
M 2432 1306 
Q 2432 2035 2112 2445 
Q 1856 2765 1504 2765 
Q 1171 2765 966 2493 
Q 762 2221 762 1747 
Q 762 928 1101 435 
Q 1318 115 1677 115 
Q 2029 115 2230 432 
Q 2432 749 2432 1306 
z
" id="STIXGeneral-Regular-6f" transform="scale(0.015625)"/>
       <path id="STIXGeneral-Regular-20" transform="scale(0.015625)"/>
       <path d="M 1946 -1030 
L 1869 -1133 
Q 1126 -710 716 32 
Q 307 774 307 1613 
Q 307 3386 1888 4326 
L 1946 4224 
Q 1293 3667 1075 3126 
Q 858 2586 858 1632 
Q 858 685 1082 96 
Q 1306 -493 1946 -1030 
z
" id="STIXGeneral-Regular-28" transform="scale(0.015625)"/>
       <path d="M 4506 0 
L 2611 0 
L 2611 122 
L 2778 134 
Q 3098 154 3098 320 
Q 3098 461 2771 947 
L 2163 1850 
L 1402 896 
Q 1062 474 1062 326 
Q 1062 230 1168 185 
Q 1274 141 1549 122 
L 1549 0 
L 64 0 
L 64 122 
Q 314 147 470 268 
Q 627 390 992 851 
L 1990 2099 
L 1312 3091 
Q 864 3744 665 3913 
Q 467 4083 141 4115 
L 141 4237 
L 2067 4237 
L 2067 4115 
L 1882 4109 
Q 1734 4102 1660 4064 
Q 1587 4026 1587 3923 
Q 1587 3885 1596 3843 
Q 1606 3802 1635 3744 
Q 1664 3686 1689 3638 
Q 1715 3590 1769 3507 
Q 1824 3424 1862 3366 
Q 1901 3309 1984 3190 
Q 2067 3072 2118 2995 
L 2400 2586 
L 3117 3482 
Q 3373 3795 3373 3910 
Q 3373 4019 3283 4064 
Q 3194 4109 2938 4115 
L 2938 4237 
L 4454 4237 
L 4454 4115 
Q 4147 4096 3968 3977 
Q 3789 3859 3482 3482 
L 2566 2349 
L 3795 595 
Q 3981 326 4115 240 
Q 4250 154 4506 122 
L 4506 0 
z
" id="STIXGeneral-Regular-58" transform="scale(0.015625)"/>
       <path d="M 186 4224 
L 262 4326 
Q 992 3891 1408 3148 
Q 1824 2406 1824 1581 
Q 1824 -166 243 -1133 
L 186 -1030 
Q 845 -486 1059 54 
Q 1274 595 1274 1562 
Q 1274 2534 1059 3120 
Q 845 3706 186 4224 
z
" id="STIXGeneral-Regular-29" transform="scale(0.015625)"/>
      </defs>
      <use xlink:href="#STIXGeneral-Regular-50"/>
      <use x="55.699997" xlink:href="#STIXGeneral-Regular-72"/>
      <use x="88.999985" xlink:href="#STIXGeneral-Regular-65"/>
      <use x="133.399979" xlink:href="#STIXGeneral-Regular-64"/>
      <use x="183.399963" xlink:href="#STIXGeneral-Regular-69"/>
      <use x="211.199951" xlink:href="#STIXGeneral-Regular-63"/>
      <use x="255.599945" xlink:href="#STIXGeneral-Regular-74"/>
      <use x="283.399933" xlink:href="#STIXGeneral-Regular-6f"/>
      <use x="333.399918" xlink:href="#STIXGeneral-Regular-72"/>
      <use x="366.699905" xlink:href="#STIXGeneral-Regular-20"/>
      <use x="391.69989" xlink:href="#STIXGeneral-Regular-28"/>
      <use x="424.999878" xlink:href="#STIXGeneral-Regular-58"/>
      <use x="497.19986" xlink:href="#STIXGeneral-Regular-29"/>
     </g>
    </g>
   </g>
   <g id="matplotlib.axis_2">
    <g id="ytick_1">
     <g id="line2d_15">
      <path clip-path="url(#p8948ea9fb1)" d="M 61.36 314.19952 
L 516.09952 314.19952 
" style="fill:none;stroke:#ffffff;stroke-linecap:round;stroke-width:0.8;"/>
     </g>
     <g id="line2d_16"/>
     <g id="text_9">
      <!-- $\mathdefault{−10.0}$ -->
      <g style="fill:#262626;" transform="translate(23.7 318.980301)scale(0.14 -0.14)">
       <defs>
        <path d="M 1158 275 
Q 1158 134 1052 32 
Q 947 -70 800 -70 
Q 653 -70 550 32 
Q 448 134 448 281 
Q 448 429 553 534 
Q 659 640 806 640 
Q 947 640 1052 531 
Q 1158 422 1158 275 
z
" id="STIXGeneral-Regular-2e" transform="scale(0.015625)"/>
       </defs>
       <use transform="translate(0 0.40625)" xlink:href="#STIXGeneral-Regular-2212"/>
       <use transform="translate(68.499985 0.40625)" xlink:href="#STIXGeneral-Regular-31"/>
       <use transform="translate(118.499969 0.40625)" xlink:href="#STIXGeneral-Regular-30"/>
       <use transform="translate(168.499954 0.40625)" xlink:href="#STIXGeneral-Regular-2e"/>
       <use transform="translate(193.499939 0.40625)" xlink:href="#STIXGeneral-Regular-30"/>
      </g>
     </g>
    </g>
    <g id="ytick_2">
     <g id="line2d_17">
      <path clip-path="url(#p8948ea9fb1)" d="M 61.36 281.969296 
L 516.09952 281.969296 
" style="fill:none;stroke:#ffffff;stroke-linecap:round;stroke-width:0.8;"/>
     </g>
     <g id="line2d_18"/>
     <g id="text_10">
      <!-- $\mathdefault{−7.5}$ -->
      <g style="fill:#262626;" transform="translate(30.7 286.750077)scale(0.14 -0.14)">
       <defs>
        <path d="M 2874 4134 
L 1517 -51 
L 1101 -51 
L 2368 3763 
L 992 3763 
Q 717 3763 582 3667 
Q 448 3571 243 3238 
L 128 3296 
L 512 4237 
L 2874 4237 
L 2874 4134 
z
" id="STIXGeneral-Regular-37" transform="scale(0.015625)"/>
        <path d="M 2803 4358 
L 2573 3814 
Q 2534 3731 2400 3731 
L 1158 3731 
L 902 3187 
Q 1606 3053 1920 2896 
Q 2234 2739 2502 2368 
Q 2726 2061 2726 1555 
Q 2726 1094 2576 780 
Q 2426 467 2099 224 
Q 1664 -90 1011 -90 
Q 646 -90 422 19 
Q 198 128 198 307 
Q 198 550 486 550 
Q 717 550 960 352 
Q 1210 147 1414 147 
Q 1747 147 2012 480 
Q 2278 813 2278 1229 
Q 2278 1843 1850 2189 
Q 1293 2637 486 2637 
Q 410 2637 410 2688 
L 416 2720 
L 1114 4237 
L 2438 4237 
Q 2547 4237 2608 4269 
Q 2669 4301 2746 4403 
L 2803 4358 
z
" id="STIXGeneral-Regular-35" transform="scale(0.015625)"/>
       </defs>
       <use transform="translate(0 0.203125)" xlink:href="#STIXGeneral-Regular-2212"/>
       <use transform="translate(68.499985 0.203125)" xlink:href="#STIXGeneral-Regular-37"/>
       <use transform="translate(118.499969 0.203125)" xlink:href="#STIXGeneral-Regular-2e"/>
       <use transform="translate(143.499954 0.203125)" xlink:href="#STIXGeneral-Regular-35"/>
      </g>
     </g>
    </g>
    <g id="ytick_3">
     <g id="line2d_19">
      <path clip-path="url(#p8948ea9fb1)" d="M 61.36 249.739071 
L 516.09952 249.739071 
" style="fill:none;stroke:#ffffff;stroke-linecap:round;stroke-width:0.8;"/>
     </g>
     <g id="line2d_20"/>
     <g id="text_11">
      <!-- $\mathdefault{−5.0}$ -->
      <g style="fill:#262626;" transform="translate(30.7 254.519852)scale(0.14 -0.14)">
       <use transform="translate(0 0.203125)" xlink:href="#STIXGeneral-Regular-2212"/>
       <use transform="translate(68.499985 0.203125)" xlink:href="#STIXGeneral-Regular-35"/>
       <use transform="translate(118.499969 0.203125)" xlink:href="#STIXGeneral-Regular-2e"/>
       <use transform="translate(143.499954 0.203125)" xlink:href="#STIXGeneral-Regular-30"/>
      </g>
     </g>
    </g>
    <g id="ytick_4">
     <g id="line2d_21">
      <path clip-path="url(#p8948ea9fb1)" d="M 61.36 217.508847 
L 516.09952 217.508847 
" style="fill:none;stroke:#ffffff;stroke-linecap:round;stroke-width:0.8;"/>
     </g>
     <g id="line2d_22"/>
     <g id="text_12">
      <!-- $\mathdefault{−2.5}$ -->
      <g style="fill:#262626;" transform="translate(30.7 222.289628)scale(0.14 -0.14)">
       <use transform="translate(0 0.203125)" xlink:href="#STIXGeneral-Regular-2212"/>
       <use transform="translate(68.499985 0.203125)" xlink:href="#STIXGeneral-Regular-32"/>
       <use transform="translate(118.499969 0.203125)" xlink:href="#STIXGeneral-Regular-2e"/>
       <use transform="translate(143.499954 0.203125)" xlink:href="#STIXGeneral-Regular-35"/>
      </g>
     </g>
    </g>
    <g id="ytick_5">
     <g id="line2d_23">
      <path clip-path="url(#p8948ea9fb1)" d="M 61.36 185.278622 
L 516.09952 185.278622 
" style="fill:none;stroke:#ffffff;stroke-linecap:round;stroke-width:0.8;"/>
     </g>
     <g id="line2d_24"/>
     <g id="text_13">
      <!-- $\mathdefault{0.0}$ -->
      <g style="fill:#262626;" transform="translate(40.36 190.059403)scale(0.14 -0.14)">
       <use transform="translate(0 0.40625)" xlink:href="#STIXGeneral-Regular-30"/>
       <use transform="translate(49.999985 0.40625)" xlink:href="#STIXGeneral-Regular-2e"/>
       <use transform="translate(74.999969 0.40625)" xlink:href="#STIXGeneral-Regular-30"/>
      </g>
     </g>
    </g>
    <g id="ytick_6">
     <g id="line2d_25">
      <path clip-path="url(#p8948ea9fb1)" d="M 61.36 153.048398 
L 516.09952 153.048398 
" style="fill:none;stroke:#ffffff;stroke-linecap:round;stroke-width:0.8;"/>
     </g>
     <g id="line2d_26"/>
     <g id="text_14">
      <!-- $\mathdefault{2.5}$ -->
      <g style="fill:#262626;" transform="translate(40.36 157.829179)scale(0.14 -0.14)">
       <use transform="translate(0 0.203125)" xlink:href="#STIXGeneral-Regular-32"/>
       <use transform="translate(49.999985 0.203125)" xlink:href="#STIXGeneral-Regular-2e"/>
       <use transform="translate(74.999969 0.203125)" xlink:href="#STIXGeneral-Regular-35"/>
      </g>
     </g>
    </g>
    <g id="ytick_7">
     <g id="line2d_27">
      <path clip-path="url(#p8948ea9fb1)" d="M 61.36 120.818173 
L 516.09952 120.818173 
" style="fill:none;stroke:#ffffff;stroke-linecap:round;stroke-width:0.8;"/>
     </g>
     <g id="line2d_28"/>
     <g id="text_15">
      <!-- $\mathdefault{5.0}$ -->
      <g style="fill:#262626;" transform="translate(40.36 125.598955)scale(0.14 -0.14)">
       <use transform="translate(0 0.203125)" xlink:href="#STIXGeneral-Regular-35"/>
       <use transform="translate(49.999985 0.203125)" xlink:href="#STIXGeneral-Regular-2e"/>
       <use transform="translate(74.999969 0.203125)" xlink:href="#STIXGeneral-Regular-30"/>
      </g>
     </g>
    </g>
    <g id="ytick_8">
     <g id="line2d_29">
      <path clip-path="url(#p8948ea9fb1)" d="M 61.36 88.587949 
L 516.09952 88.587949 
" style="fill:none;stroke:#ffffff;stroke-linecap:round;stroke-width:0.8;"/>
     </g>
     <g id="line2d_30"/>
     <g id="text_16">
      <!-- $\mathdefault{7.5}$ -->
      <g style="fill:#262626;" transform="translate(40.36 93.36873)scale(0.14 -0.14)">
       <use transform="translate(0 0.203125)" xlink:href="#STIXGeneral-Regular-37"/>
       <use transform="translate(49.999985 0.203125)" xlink:href="#STIXGeneral-Regular-2e"/>
       <use transform="translate(74.999969 0.203125)" xlink:href="#STIXGeneral-Regular-35"/>
      </g>
     </g>
    </g>
    <g id="ytick_9">
     <g id="line2d_31">
      <path clip-path="url(#p8948ea9fb1)" d="M 61.36 56.357724 
L 516.09952 56.357724 
" style="fill:none;stroke:#ffffff;stroke-linecap:round;stroke-width:0.8;"/>
     </g>
     <g id="line2d_32"/>
     <g id="text_17">
      <!-- $\mathdefault{10.0}$ -->
      <g style="fill:#262626;" transform="translate(33.36 61.138506)scale(0.14 -0.14)">
       <use transform="translate(0 0.40625)" xlink:href="#STIXGeneral-Regular-31"/>
       <use transform="translate(49.999985 0.40625)" xlink:href="#STIXGeneral-Regular-30"/>
       <use transform="translate(99.999969 0.40625)" xlink:href="#STIXGeneral-Regular-2e"/>
       <use transform="translate(124.999954 0.40625)" xlink:href="#STIXGeneral-Regular-30"/>
      </g>
     </g>
    </g>
    <g id="ytick_10">
     <g id="line2d_33">
      <path clip-path="url(#p8948ea9fb1)" d="M 61.36 24.1275 
L 516.09952 24.1275 
" style="fill:none;stroke:#ffffff;stroke-linecap:round;stroke-width:0.8;"/>
     </g>
     <g id="line2d_34"/>
     <g id="text_18">
      <!-- $\mathdefault{12.5}$ -->
      <g style="fill:#262626;" transform="translate(33.36 28.908281)scale(0.14 -0.14)">
       <use transform="translate(0 0.203125)" xlink:href="#STIXGeneral-Regular-31"/>
       <use transform="translate(49.999985 0.203125)" xlink:href="#STIXGeneral-Regular-32"/>
       <use transform="translate(99.999969 0.203125)" xlink:href="#STIXGeneral-Regular-2e"/>
       <use transform="translate(124.999954 0.203125)" xlink:href="#STIXGeneral-Regular-35"/>
      </g>
     </g>
    </g>
    <g id="text_19">
     <!-- Outcome (Y) -->
     <g style="fill:#262626;" transform="translate(17.444531 208.943979)rotate(-90)scale(0.15 -0.15)">
      <defs>
       <path d="M 4403 2118 
Q 4403 1133 3820 521 
Q 3238 -90 2310 -90 
Q 1376 -90 797 524 
Q 218 1139 218 2138 
Q 218 3110 797 3718 
Q 1376 4326 2310 4326 
Q 3245 4326 3824 3702 
Q 4403 3078 4403 2118 
z
M 3674 2157 
Q 3674 2701 3520 3133 
Q 3366 3565 3091 3795 
Q 2733 4096 2304 4096 
Q 1760 4096 1389 3667 
Q 1184 3437 1065 3011 
Q 947 2586 947 2125 
Q 947 960 1523 429 
Q 1837 141 2317 141 
Q 2816 141 3142 448 
Q 3674 960 3674 2157 
z
" id="STIXGeneral-Regular-4f" transform="scale(0.015625)"/>
       <path d="M 3072 320 
L 3072 230 
Q 2573 96 2195 -58 
L 2163 -38 
L 2163 486 
L 2150 486 
Q 1747 -64 1235 -64 
Q 870 -64 662 160 
Q 454 384 454 755 
L 454 2362 
Q 454 2598 371 2688 
Q 288 2778 58 2790 
L 58 2880 
L 992 2880 
L 992 813 
Q 992 595 1123 451 
Q 1254 307 1446 307 
Q 1760 307 1984 506 
Q 2067 582 2099 649 
Q 2131 717 2131 877 
L 2131 2355 
Q 2131 2605 2041 2678 
Q 1952 2752 1658 2771 
L 1658 2880 
L 2669 2880 
L 2669 685 
Q 2669 461 2742 390 
Q 2816 320 3034 320 
L 3072 320 
z
" id="STIXGeneral-Regular-75" transform="scale(0.015625)"/>
       <path d="M 4960 0 
L 3565 0 
L 3565 96 
Q 3834 122 3907 208 
Q 3981 294 3981 576 
L 3981 1894 
Q 3981 2278 3869 2444 
Q 3757 2611 3488 2611 
Q 3264 2611 3107 2521 
Q 2950 2432 2803 2221 
L 2803 608 
Q 2803 301 2896 201 
Q 2989 102 3264 96 
L 3264 0 
L 1830 0 
L 1830 96 
Q 2112 115 2189 188 
Q 2266 262 2266 550 
L 2266 1901 
Q 2266 2611 1850 2611 
Q 1670 2611 1468 2531 
Q 1267 2451 1171 2336 
Q 1088 2240 1088 2227 
L 1088 448 
Q 1088 243 1177 176 
Q 1267 109 1523 96 
L 1523 0 
L 102 0 
L 102 96 
Q 371 102 460 195 
Q 550 288 550 563 
L 550 2150 
Q 550 2387 499 2480 
Q 448 2573 326 2573 
Q 230 2573 122 2547 
L 122 2656 
Q 557 2778 1011 2944 
L 1062 2925 
L 1062 2451 
L 1075 2451 
Q 1363 2752 1584 2848 
Q 1805 2944 2054 2944 
Q 2560 2944 2733 2406 
Q 3232 2944 3776 2944 
Q 4518 2944 4518 1792 
L 4518 493 
Q 4518 282 4582 202 
Q 4646 122 4794 109 
L 4960 96 
L 4960 0 
z
" id="STIXGeneral-Regular-6d" transform="scale(0.015625)"/>
       <path d="M 4499 4237 
L 4499 4115 
Q 4218 4090 4054 3955 
Q 3891 3821 3616 3398 
L 2669 1939 
L 2669 710 
Q 2669 346 2790 243 
Q 2912 141 3328 122 
L 3328 0 
L 1370 0 
L 1370 122 
Q 1805 154 1910 259 
Q 2016 365 2016 787 
L 2016 1882 
L 1178 3110 
Q 742 3750 556 3926 
Q 371 4102 141 4115 
L 141 4237 
L 1926 4237 
L 1926 4115 
L 1773 4109 
Q 1472 4102 1472 3942 
Q 1472 3808 1587 3642 
L 2522 2227 
L 3450 3648 
Q 3539 3782 3539 3917 
Q 3533 4026 3440 4067 
Q 3347 4109 3104 4115 
L 3104 4237 
L 4499 4237 
z
" id="STIXGeneral-Regular-59" transform="scale(0.015625)"/>
      </defs>
      <use xlink:href="#STIXGeneral-Regular-4f"/>
      <use x="72.199982" xlink:href="#STIXGeneral-Regular-75"/>
      <use x="122.199966" xlink:href="#STIXGeneral-Regular-74"/>
      <use x="149.999954" xlink:href="#STIXGeneral-Regular-63"/>
      <use x="194.399948" xlink:href="#STIXGeneral-Regular-6f"/>
      <use x="244.399933" xlink:href="#STIXGeneral-Regular-6d"/>
      <use x="322.199921" xlink:href="#STIXGeneral-Regular-65"/>
      <use x="366.599915" xlink:href="#STIXGeneral-Regular-20"/>
      <use x="391.599899" xlink:href="#STIXGeneral-Regular-28"/>
      <use x="424.899887" xlink:href="#STIXGeneral-Regular-59"/>
      <use x="497.099869" xlink:href="#STIXGeneral-Regular-29"/>
     </g>
    </g>
   </g>
   <g id="PolyCollection_1">
    <defs>
     <path d="M 127.623083 -122.045622 
L 127.623083 -108.593873 
L 128.552233 -109.265225 
L 130.410534 -109.943263 
L 132.268835 -110.627987 
L 134.127135 -111.319397 
L 135.985436 -112.017493 
L 137.843737 -112.722275 
L 139.702037 -113.433743 
L 141.560338 -114.151897 
L 143.418639 -114.876737 
L 145.276939 -115.608263 
L 147.13524 -116.346475 
L 148.993541 -117.091373 
L 150.851841 -117.842958 
L 152.710142 -118.601228 
L 154.568443 -119.366184 
L 156.426743 -120.137826 
L 158.285044 -120.916155 
L 160.143345 -121.701169 
L 162.001645 -122.492869 
L 163.859946 -123.291256 
L 165.718247 -124.096328 
L 167.576547 -124.908086 
L 169.434848 -125.726531 
L 171.293149 -126.551661 
L 173.151449 -127.383478 
L 175.00975 -128.22198 
L 176.868051 -129.067169 
L 178.726351 -129.951749 
L 180.584652 -130.829623 
L 182.442953 -131.711461 
L 184.301253 -132.597714 
L 186.159554 -133.519424 
L 188.017855 -134.406821 
L 189.876155 -135.341438 
L 191.734456 -136.275354 
L 193.592757 -137.190438 
L 195.451057 -138.114172 
L 197.309358 -139.045794 
L 199.167659 -139.984541 
L 201.025959 -140.927763 
L 202.88426 -141.910328 
L 204.742561 -142.902293 
L 206.600861 -143.869228 
L 208.459162 -144.813182 
L 210.317463 -145.736077 
L 212.175763 -146.662604 
L 214.034064 -147.576311 
L 215.892365 -148.49641 
L 217.750665 -149.402157 
L 219.608966 -150.277167 
L 221.467267 -151.164928 
L 223.325567 -152.030727 
L 225.183868 -152.871997 
L 227.042169 -153.679604 
L 228.900469 -154.471691 
L 230.75877 -155.241038 
L 232.617071 -155.984005 
L 234.475371 -156.726983 
L 236.333672 -157.478337 
L 238.191973 -158.245902 
L 240.050273 -159.037569 
L 241.908574 -159.855544 
L 243.766875 -160.74254 
L 245.625175 -161.614258 
L 247.483476 -162.465951 
L 249.341777 -163.281236 
L 251.200077 -164.098153 
L 253.058378 -164.914108 
L 254.916679 -165.64314 
L 256.774979 -166.405111 
L 258.63328 -167.18201 
L 260.491581 -167.837659 
L 262.349881 -168.490614 
L 264.208182 -169.184211 
L 266.066483 -169.924496 
L 267.924783 -170.706274 
L 269.783084 -171.493601 
L 271.641385 -172.28134 
L 273.499685 -172.996138 
L 275.357986 -173.799469 
L 277.216287 -174.523381 
L 279.074587 -175.236131 
L 280.932888 -175.939295 
L 282.791189 -176.651616 
L 284.649489 -177.373644 
L 286.50779 -178.106424 
L 288.366091 -178.814305 
L 290.224391 -179.569161 
L 292.082692 -180.289524 
L 293.940993 -181.033179 
L 295.799293 -181.80433 
L 297.657594 -182.579452 
L 299.515895 -183.358578 
L 301.374195 -184.141754 
L 303.232496 -184.929041 
L 305.090797 -185.675572 
L 306.949097 -186.390566 
L 308.807398 -187.109279 
L 310.665699 -187.839047 
L 312.523999 -188.58427 
L 314.3823 -189.321894 
L 316.240601 -190.066899 
L 318.098901 -190.802826 
L 319.957202 -191.562692 
L 321.815503 -192.42929 
L 323.673803 -193.282104 
L 325.532104 -194.12624 
L 327.390405 -194.950243 
L 329.248705 -195.711285 
L 331.107006 -196.492282 
L 332.965307 -197.252891 
L 334.823607 -197.994357 
L 336.681908 -198.718979 
L 338.540209 -199.436554 
L 340.398509 -200.170573 
L 342.25681 -200.88518 
L 344.115111 -201.584283 
L 345.973411 -202.266879 
L 347.831712 -202.969127 
L 349.690013 -203.685877 
L 351.548313 -204.427926 
L 353.406614 -205.151139 
L 355.264915 -205.874133 
L 357.123215 -206.700638 
L 358.981516 -207.470794 
L 360.839817 -208.192583 
L 362.698117 -208.890171 
L 364.556418 -209.552842 
L 366.414719 -210.260799 
L 368.273019 -211.019386 
L 370.13132 -211.830929 
L 371.989621 -212.638039 
L 373.847921 -213.386452 
L 375.706222 -214.162798 
L 377.564523 -214.80308 
L 379.422823 -215.4727 
L 381.281124 -216.119473 
L 383.139425 -216.755176 
L 384.997725 -217.370627 
L 386.856026 -217.968824 
L 388.714327 -218.56152 
L 390.572627 -219.150399 
L 392.430928 -219.73633 
L 394.289229 -220.31849 
L 396.147529 -220.878365 
L 398.00583 -221.432942 
L 399.864131 -221.98353 
L 401.722431 -222.531095 
L 403.580732 -223.076575 
L 405.439033 -223.620888 
L 407.297333 -224.165893 
L 409.155634 -224.723847 
L 411.013935 -225.2977 
L 412.872235 -225.887396 
L 414.730536 -226.495396 
L 416.588837 -227.124239 
L 418.447137 -227.776496 
L 420.305438 -228.448808 
L 422.163739 -229.123491 
L 424.022039 -229.718447 
L 425.88034 -230.288001 
L 427.738641 -230.852042 
L 429.596941 -231.427796 
L 431.455242 -232.08159 
L 433.313543 -232.717882 
L 435.171843 -233.376738 
L 437.030144 -234.061012 
L 438.888445 -234.773615 
L 440.746746 -235.511671 
L 442.605046 -236.244832 
L 444.463347 -237.006407 
L 446.321648 -237.815428 
L 448.179948 -238.572426 
L 450.038249 -239.340553 
L 451.89655 -240.119807 
L 453.75485 -240.91019 
L 455.613151 -241.711702 
L 457.471452 -242.524341 
L 459.329752 -243.348109 
L 461.188053 -244.183005 
L 463.046354 -245.029029 
L 464.904654 -245.886182 
L 466.762955 -246.754463 
L 468.621256 -247.633872 
L 470.479556 -248.52441 
L 472.337857 -249.426076 
L 474.196158 -250.33887 
L 476.054458 -251.262792 
L 477.912759 -252.197843 
L 479.77106 -253.144021 
L 481.62936 -254.101329 
L 483.487661 -255.069764 
L 485.345962 -256.049328 
L 487.204262 -257.04002 
L 489.062563 -258.04184 
L 490.920864 -259.054788 
L 492.779164 -260.078865 
L 494.637465 -261.11407 
L 496.495766 -262.160404 
L 496.495766 -277.225996 
L 496.495766 -277.225996 
L 494.637465 -276.401538 
L 492.779164 -275.57552 
L 490.920864 -274.747943 
L 489.062563 -273.918807 
L 487.204262 -273.088111 
L 485.345962 -272.255855 
L 483.487661 -271.42204 
L 481.62936 -270.586665 
L 479.77106 -269.749731 
L 477.912759 -268.911238 
L 476.054458 -268.071185 
L 474.196158 -267.229572 
L 472.337857 -266.3864 
L 470.479556 -265.541668 
L 468.621256 -264.695377 
L 466.762955 -263.847526 
L 464.904654 -262.998116 
L 463.046354 -262.147147 
L 461.188053 -261.294617 
L 459.329752 -260.440529 
L 457.471452 -259.58488 
L 455.613151 -258.727673 
L 453.75485 -257.868906 
L 451.89655 -257.008579 
L 450.038249 -256.146693 
L 448.179948 -255.283247 
L 446.321648 -254.418242 
L 444.463347 -253.577788 
L 442.605046 -252.693614 
L 440.746746 -251.781487 
L 438.888445 -250.830126 
L 437.030144 -249.881084 
L 435.171843 -248.941649 
L 433.313543 -248.011842 
L 431.455242 -247.091705 
L 429.596941 -246.205772 
L 427.738641 -245.347653 
L 425.88034 -244.509801 
L 424.022039 -243.678611 
L 422.163739 -242.840318 
L 420.305438 -241.950105 
L 418.447137 -241.084203 
L 416.588837 -240.23188 
L 414.730536 -239.389643 
L 412.872235 -238.557038 
L 411.013935 -237.733669 
L 409.155634 -236.918623 
L 407.297333 -236.081734 
L 405.439033 -235.228656 
L 403.580732 -234.379581 
L 401.722431 -233.538281 
L 399.864131 -232.706958 
L 398.00583 -231.887771 
L 396.147529 -231.082826 
L 394.289229 -230.25865 
L 392.430928 -229.423981 
L 390.572627 -228.546027 
L 388.714327 -227.678329 
L 386.856026 -226.826356 
L 384.997725 -225.989997 
L 383.139425 -225.155502 
L 381.281124 -224.321281 
L 379.422823 -223.459154 
L 377.564523 -222.577342 
L 375.706222 -221.672378 
L 373.847921 -220.804628 
L 371.989621 -219.918664 
L 370.13132 -218.976729 
L 368.273019 -218.059804 
L 366.414719 -217.229436 
L 364.556418 -216.462717 
L 362.698117 -215.810542 
L 360.839817 -215.123801 
L 358.981516 -214.393126 
L 357.123215 -213.650277 
L 355.264915 -212.887454 
L 353.406614 -212.099403 
L 351.548313 -211.285295 
L 349.690013 -210.46787 
L 347.831712 -209.649876 
L 345.973411 -208.844205 
L 344.115111 -208.020044 
L 342.25681 -207.13285 
L 340.398509 -206.26003 
L 338.540209 -205.430764 
L 336.681908 -204.666201 
L 334.823607 -203.928736 
L 332.965307 -203.202083 
L 331.107006 -202.483714 
L 329.248705 -201.775543 
L 327.390405 -201.038165 
L 325.532104 -200.264504 
L 323.673803 -199.468468 
L 321.815503 -198.65071 
L 319.957202 -197.850232 
L 318.098901 -197.091024 
L 316.240601 -196.346825 
L 314.3823 -195.564321 
L 312.523999 -194.71561 
L 310.665699 -193.885983 
L 308.807398 -193.070046 
L 306.949097 -192.262827 
L 305.090797 -191.494844 
L 303.232496 -190.73909 
L 301.374195 -190.010255 
L 299.515895 -189.283406 
L 297.657594 -188.561207 
L 295.799293 -187.846325 
L 293.940993 -187.141435 
L 292.082692 -186.444126 
L 290.224391 -185.75814 
L 288.366091 -185.056342 
L 286.50779 -184.321088 
L 284.649489 -183.610314 
L 282.791189 -182.881291 
L 280.932888 -182.132933 
L 279.074587 -181.359626 
L 277.216287 -180.592628 
L 275.357986 -179.834427 
L 273.499685 -179.095877 
L 271.641385 -178.313852 
L 269.783084 -177.539259 
L 267.924783 -176.822845 
L 266.066483 -176.103152 
L 264.208182 -175.324529 
L 262.349881 -174.553698 
L 260.491581 -173.788978 
L 258.63328 -173.057167 
L 256.774979 -172.358899 
L 254.916679 -171.579068 
L 253.058378 -170.884307 
L 251.200077 -170.190153 
L 249.341777 -169.470937 
L 247.483476 -168.729237 
L 245.625175 -167.983056 
L 243.766875 -167.206715 
L 241.908574 -166.416409 
L 240.050273 -165.754573 
L 238.191973 -165.099216 
L 236.333672 -164.414652 
L 234.475371 -163.701831 
L 232.617071 -162.964571 
L 230.75877 -162.218774 
L 228.900469 -161.484872 
L 227.042169 -160.759238 
L 225.183868 -160.051727 
L 223.325567 -159.371868 
L 221.467267 -158.713013 
L 219.608966 -158.08133 
L 217.750665 -157.446012 
L 215.892365 -156.834858 
L 214.034064 -156.198498 
L 212.175763 -155.592644 
L 210.317463 -155.05734 
L 208.459162 -154.488621 
L 206.600861 -153.885421 
L 204.742561 -153.246719 
L 202.88426 -152.571256 
L 201.025959 -151.890904 
L 199.167659 -151.178656 
L 197.309358 -150.466412 
L 195.451057 -149.771585 
L 193.592757 -149.092735 
L 191.734456 -148.428525 
L 189.876155 -147.783817 
L 188.017855 -147.109317 
L 186.159554 -146.441726 
L 184.301253 -145.80103 
L 182.442953 -145.124105 
L 180.584652 -144.444444 
L 178.726351 -143.760831 
L 176.868051 -143.063906 
L 175.00975 -142.345755 
L 173.151449 -141.622966 
L 171.293149 -140.895538 
L 169.434848 -140.163471 
L 167.576547 -139.426765 
L 165.718247 -138.68542 
L 163.859946 -137.939437 
L 162.001645 -137.188815 
L 160.143345 -136.433554 
L 158.285044 -135.673654 
L 156.426743 -134.909116 
L 154.568443 -134.139938 
L 152.710142 -133.366122 
L 150.851841 -132.587667 
L 148.993541 -131.804573 
L 147.13524 -131.016841 
L 145.276939 -130.224469 
L 143.418639 -129.427459 
L 141.560338 -128.62581 
L 139.702037 -127.819522 
L 137.843737 -127.008596 
L 135.985436 -126.193031 
L 134.127135 -125.372826 
L 132.268835 -124.547983 
L 130.410534 -123.718502 
L 128.552233 -122.884381 
L 127.623083 -122.045622 
z
" id="m55158018a8" style="stroke:#da70d6;stroke-opacity:0.5;stroke-width:0.8;"/>
    </defs>
    <g clip-path="url(#p8948ea9fb1)">
     <use style="fill:#da70d6;fill-opacity:0.5;stroke:#da70d6;stroke-opacity:0.5;stroke-width:0.8;" x="0" xlink:href="#m55158018a8" y="353.99952"/>
    </g>
   </g>
   <g id="PolyCollection_2">
    <defs>
     <path d="M 127.623083 -156.002672 
L 127.623083 -80.71574 
L 128.552233 -81.368722 
L 130.410534 -82.0246 
L 132.268835 -82.683375 
L 134.127135 -83.345047 
L 135.985436 -84.009615 
L 137.843737 -84.67708 
L 139.702037 -85.347441 
L 141.560338 -86.020699 
L 143.418639 -86.696853 
L 145.276939 -87.375904 
L 147.13524 -88.057851 
L 148.993541 -88.742695 
L 150.851841 -89.430435 
L 152.710142 -90.121072 
L 154.568443 -90.814605 
L 156.426743 -91.511035 
L 158.285044 -92.210362 
L 160.143345 -92.912585 
L 162.001645 -93.617705 
L 163.859946 -94.325721 
L 165.718247 -95.036633 
L 167.576547 -95.750443 
L 169.434848 -96.467148 
L 171.293149 -97.186751 
L 173.151449 -97.909249 
L 175.00975 -98.634645 
L 176.868051 -99.362936 
L 178.726351 -100.012135 
L 180.584652 -100.66474 
L 182.442953 -101.333664 
L 184.301253 -102.019718 
L 186.159554 -102.729818 
L 188.017855 -103.401714 
L 189.876155 -104.13633 
L 191.734456 -104.90049 
L 193.592757 -105.682025 
L 195.451057 -106.470615 
L 197.309358 -107.271862 
L 199.167659 -108.091348 
L 201.025959 -108.909224 
L 202.88426 -109.749325 
L 204.742561 -110.634674 
L 206.600861 -111.462949 
L 208.459162 -112.23816 
L 210.317463 -112.963895 
L 212.175763 -113.753645 
L 214.034064 -114.536326 
L 215.892365 -115.358191 
L 217.750665 -116.079848 
L 219.608966 -116.850463 
L 221.467267 -117.682223 
L 223.325567 -118.472575 
L 225.183868 -119.215029 
L 227.042169 -119.973666 
L 228.900469 -120.784033 
L 230.75877 -121.608955 
L 232.617071 -122.462227 
L 234.475371 -123.313169 
L 236.333672 -124.120835 
L 238.191973 -124.974539 
L 240.050273 -125.863698 
L 241.908574 -126.711666 
L 243.766875 -127.549245 
L 245.625175 -128.333726 
L 247.483476 -129.165833 
L 249.341777 -129.938119 
L 251.200077 -130.680406 
L 253.058378 -131.407499 
L 254.916679 -132.222221 
L 256.774979 -133.145294 
L 258.63328 -133.978389 
L 260.491581 -134.778237 
L 262.349881 -135.591337 
L 264.208182 -136.365174 
L 266.066483 -137.101307 
L 267.924783 -137.838554 
L 269.783084 -138.574732 
L 271.641385 -139.291162 
L 273.499685 -139.967667 
L 275.357986 -140.71684 
L 277.216287 -141.455675 
L 279.074587 -142.220113 
L 280.932888 -142.983507 
L 282.791189 -143.713228 
L 284.649489 -144.41353 
L 286.50779 -145.086224 
L 288.366091 -145.725799 
L 290.224391 -146.407096 
L 292.082692 -147.036421 
L 293.940993 -147.686061 
L 295.799293 -148.333327 
L 297.657594 -148.994238 
L 299.515895 -149.67162 
L 301.374195 -150.368398 
L 303.232496 -151.087602 
L 305.090797 -151.791649 
L 306.949097 -152.438939 
L 308.807398 -153.126284 
L 310.665699 -153.86459 
L 312.523999 -154.661726 
L 314.3823 -155.393438 
L 316.240601 -156.134702 
L 318.098901 -156.837954 
L 319.957202 -157.665849 
L 321.815503 -158.481173 
L 323.673803 -159.142442 
L 325.532104 -159.869237 
L 327.390405 -160.682329 
L 329.248705 -161.455643 
L 331.107006 -162.173449 
L 332.965307 -162.91991 
L 334.823607 -163.684733 
L 336.681908 -164.47795 
L 338.540209 -165.345477 
L 340.398509 -166.216218 
L 342.25681 -167.011737 
L 344.115111 -167.883813 
L 345.973411 -168.76217 
L 347.831712 -169.675272 
L 349.690013 -170.510677 
L 351.548313 -171.36187 
L 353.406614 -172.193161 
L 355.264915 -173.00064 
L 357.123215 -173.81597 
L 358.981516 -174.568309 
L 360.839817 -175.255347 
L 362.698117 -175.978724 
L 364.556418 -176.671632 
L 366.414719 -177.476601 
L 368.273019 -178.325411 
L 370.13132 -179.106382 
L 371.989621 -179.850397 
L 373.847921 -180.599119 
L 375.706222 -181.387018 
L 377.564523 -182.100105 
L 379.422823 -182.813761 
L 381.281124 -183.492328 
L 383.139425 -184.146424 
L 384.997725 -184.804854 
L 386.856026 -185.471475 
L 388.714327 -186.182979 
L 390.572627 -186.93902 
L 392.430928 -187.732077 
L 394.289229 -188.504201 
L 396.147529 -189.212607 
L 398.00583 -189.9078 
L 399.864131 -190.617454 
L 401.722431 -191.340542 
L 403.580732 -192.076069 
L 405.439033 -192.823077 
L 407.297333 -193.580775 
L 409.155634 -194.349837 
L 411.013935 -195.129701 
L 412.872235 -195.916464 
L 414.730536 -196.709003 
L 416.588837 -197.506276 
L 418.447137 -198.307265 
L 420.305438 -199.105613 
L 422.163739 -199.882073 
L 424.022039 -200.624635 
L 425.88034 -201.451755 
L 427.738641 -202.248697 
L 429.596941 -203.001143 
L 431.455242 -203.794945 
L 433.313543 -204.627423 
L 435.171843 -205.45587 
L 437.030144 -206.278429 
L 438.888445 -207.09322 
L 440.746746 -207.893792 
L 442.605046 -208.652302 
L 444.463347 -209.439276 
L 446.321648 -210.171352 
L 448.179948 -210.89384 
L 450.038249 -211.609626 
L 451.89655 -212.318708 
L 453.75485 -213.021086 
L 455.613151 -213.716762 
L 457.471452 -214.405734 
L 459.329752 -215.088003 
L 461.188053 -215.763569 
L 463.046354 -216.432431 
L 464.904654 -217.09459 
L 466.762955 -217.750046 
L 468.621256 -218.398799 
L 470.479556 -219.040848 
L 472.337857 -219.676194 
L 474.196158 -220.304837 
L 476.054458 -220.926776 
L 477.912759 -221.542013 
L 479.77106 -222.150545 
L 481.62936 -222.752375 
L 483.487661 -223.347501 
L 485.345962 -223.935924 
L 487.204262 -224.517644 
L 489.062563 -225.092661 
L 490.920864 -225.660974 
L 492.779164 -226.222584 
L 494.637465 -226.777491 
L 496.495766 -227.325694 
L 496.495766 -305.768709 
L 496.495766 -305.768709 
L 494.637465 -304.971943 
L 492.779164 -304.174975 
L 490.920864 -303.377807 
L 489.062563 -302.580437 
L 487.204262 -301.782867 
L 485.345962 -300.985096 
L 483.487661 -300.187123 
L 481.62936 -299.38895 
L 479.77106 -298.590576 
L 477.912759 -297.792001 
L 476.054458 -296.993225 
L 474.196158 -296.194248 
L 472.337857 -295.39507 
L 470.479556 -294.595691 
L 468.621256 -293.79611 
L 466.762955 -292.99633 
L 464.904654 -292.196348 
L 463.046354 -291.396165 
L 461.188053 -290.595781 
L 459.329752 -289.795196 
L 457.471452 -288.99441 
L 455.613151 -288.193423 
L 453.75485 -287.392235 
L 451.89655 -286.590847 
L 450.038249 -285.789257 
L 448.179948 -284.987466 
L 446.321648 -284.185475 
L 444.463347 -283.361088 
L 442.605046 -282.570934 
L 440.746746 -281.715492 
L 438.888445 -280.869091 
L 437.030144 -280.011853 
L 435.171843 -279.143074 
L 433.313543 -278.266047 
L 431.455242 -277.383968 
L 429.596941 -276.595575 
L 427.738641 -275.793011 
L 425.88034 -274.969638 
L 424.022039 -274.136492 
L 422.163739 -273.351091 
L 420.305438 -272.61819 
L 418.447137 -271.85794 
L 416.588837 -271.091095 
L 414.730536 -270.324255 
L 412.872235 -269.558154 
L 411.013935 -268.793544 
L 409.155634 -268.030677 
L 407.297333 -267.243463 
L 405.439033 -266.437984 
L 403.580732 -265.652653 
L 401.722431 -264.889739 
L 399.864131 -264.148215 
L 398.00583 -263.427127 
L 396.147529 -262.725593 
L 394.289229 -262.017193 
L 392.430928 -261.219656 
L 390.572627 -260.39725 
L 388.714327 -259.586278 
L 386.856026 -258.790019 
L 384.997725 -258.008064 
L 383.139425 -257.232817 
L 381.281124 -256.463139 
L 379.422823 -255.675696 
L 377.564523 -254.879332 
L 375.706222 -254.092055 
L 373.847921 -253.29393 
L 371.989621 -252.498976 
L 370.13132 -251.709467 
L 368.273019 -250.912554 
L 366.414719 -250.10391 
L 364.556418 -249.30776 
L 362.698117 -248.522089 
L 360.839817 -247.765414 
L 358.981516 -247.021005 
L 357.123215 -246.251238 
L 355.264915 -245.458842 
L 353.406614 -244.658328 
L 351.548313 -243.85229 
L 349.690013 -243.073484 
L 347.831712 -242.336698 
L 345.973411 -241.507837 
L 344.115111 -240.703765 
L 342.25681 -239.899998 
L 340.398509 -239.079244 
L 338.540209 -238.263245 
L 336.681908 -237.397998 
L 334.823607 -236.633974 
L 332.965307 -235.924188 
L 331.107006 -235.246805 
L 329.248705 -234.562501 
L 327.390405 -233.775425 
L 325.532104 -232.991928 
L 323.673803 -232.302694 
L 321.815503 -231.625779 
L 319.957202 -230.927387 
L 318.098901 -230.130893 
L 316.240601 -229.391074 
L 314.3823 -228.615686 
L 312.523999 -227.883042 
L 310.665699 -227.040975 
L 308.807398 -226.247002 
L 306.949097 -225.493566 
L 305.090797 -224.805209 
L 303.232496 -224.091649 
L 301.374195 -223.43008 
L 299.515895 -222.768263 
L 297.657594 -222.102439 
L 295.799293 -221.428868 
L 293.940993 -220.743822 
L 292.082692 -219.991051 
L 290.224391 -219.259621 
L 288.366091 -218.513575 
L 286.50779 -217.855529 
L 284.649489 -217.123684 
L 282.791189 -216.40071 
L 280.932888 -215.681758 
L 279.074587 -214.941031 
L 277.216287 -214.19763 
L 275.357986 -213.453273 
L 273.499685 -212.692299 
L 271.641385 -211.937531 
L 269.783084 -211.179284 
L 267.924783 -210.416922 
L 266.066483 -209.660224 
L 264.208182 -208.916058 
L 262.349881 -208.16191 
L 260.491581 -207.394675 
L 258.63328 -206.594636 
L 256.774979 -205.760078 
L 254.916679 -204.942078 
L 253.058378 -204.145537 
L 251.200077 -203.35547 
L 249.341777 -202.561297 
L 247.483476 -201.751937 
L 245.625175 -200.932756 
L 243.766875 -200.220997 
L 241.908574 -199.477364 
L 240.050273 -198.702236 
L 238.191973 -197.881516 
L 236.333672 -197.112596 
L 234.475371 -196.409856 
L 232.617071 -195.640998 
L 230.75877 -194.840157 
L 228.900469 -194.023996 
L 227.042169 -193.240723 
L 225.183868 -192.48693 
L 223.325567 -191.760462 
L 221.467267 -190.978879 
L 219.608966 -190.212091 
L 217.750665 -189.431749 
L 215.892365 -188.69719 
L 214.034064 -187.928482 
L 212.175763 -187.202456 
L 210.317463 -186.431936 
L 208.459162 -185.762375 
L 206.600861 -185.052633 
L 204.742561 -184.2995 
L 202.88426 -183.499355 
L 201.025959 -182.754104 
L 199.167659 -181.956736 
L 197.309358 -181.155674 
L 195.451057 -180.371381 
L 193.592757 -179.598281 
L 191.734456 -178.830802 
L 189.876155 -178.1264 
L 188.017855 -177.480111 
L 186.159554 -176.872865 
L 184.301253 -176.18324 
L 182.442953 -175.562615 
L 180.584652 -174.931953 
L 178.726351 -174.285193 
L 176.868051 -173.626413 
L 175.00975 -172.932791 
L 173.151449 -172.242314 
L 171.293149 -171.554983 
L 169.434848 -170.870797 
L 167.576547 -170.189757 
L 165.718247 -169.511862 
L 163.859946 -168.837113 
L 162.001645 -168.165509 
L 160.143345 -167.49705 
L 158.285044 -166.831737 
L 156.426743 -166.169569 
L 154.568443 -165.510547 
L 152.710142 -164.854671 
L 150.851841 -164.20194 
L 148.993541 -163.552354 
L 147.13524 -162.905914 
L 145.276939 -162.262619 
L 143.418639 -161.62247 
L 141.560338 -160.985466 
L 139.702037 -160.351607 
L 137.843737 -159.720894 
L 135.985436 -159.093327 
L 134.127135 -158.468905 
L 132.268835 -157.847628 
L 130.410534 -157.229497 
L 128.552233 -156.614512 
L 127.623083 -156.002672 
z
" id="m47bef6b630" style="stroke:#ff7f50;stroke-opacity:0.2;stroke-width:0.8;"/>
    </defs>
    <g clip-path="url(#p8948ea9fb1)">
     <use style="fill:#ff7f50;fill-opacity:0.2;stroke:#ff7f50;stroke-opacity:0.2;stroke-width:0.8;" x="0" xlink:href="#m47bef6b630" y="353.99952"/>
    </g>
   </g>
   <g id="line2d_35">
    <defs>
     <path d="M 0 2 
C 0.530406 2 1.03916 1.789267 1.414214 1.414214 
C 1.789267 1.03916 2 0.530406 2 0 
C 2 -0.530406 1.789267 -1.03916 1.414214 -1.414214 
C 1.03916 -1.789267 0.530406 -2 0 -2 
C -0.530406 -2 -1.03916 -1.789267 -1.414214 -1.414214 
C -1.789267 -1.03916 -2 -0.530406 -2 0 
C -2 0.530406 -1.789267 1.03916 -1.414214 1.414214 
C -1.03916 1.789267 -0.530406 2 0 2 
z
" id="m26abc41f80" style="stroke:#000000;stroke-opacity:0.4;"/>
    </defs>
    <g clip-path="url(#p8948ea9fb1)">
     <use style="fill:#2a2eec;fill-opacity:0.4;stroke:#000000;stroke-opacity:0.4;" x="359.016476" xlink:href="#m26abc41f80" y="141.619817"/>
     <use style="fill:#2a2eec;fill-opacity:0.4;stroke:#000000;stroke-opacity:0.4;" x="284.201008" xlink:href="#m26abc41f80" y="193.877649"/>
     <use style="fill:#2a2eec;fill-opacity:0.4;stroke:#000000;stroke-opacity:0.4;" x="367.83442" xlink:href="#m26abc41f80" y="143.275664"/>
     <use style="fill:#2a2eec;fill-opacity:0.4;stroke:#000000;stroke-opacity:0.4;" x="402.840494" xlink:href="#m26abc41f80" y="124.70862"/>
     <use style="fill:#2a2eec;fill-opacity:0.4;stroke:#000000;stroke-opacity:0.4;" x="296.886834" xlink:href="#m26abc41f80" y="178.420322"/>
     <use style="fill:#2a2eec;fill-opacity:0.4;stroke:#000000;stroke-opacity:0.4;" x="147.702705" xlink:href="#m26abc41f80" y="202.418773"/>
     <use style="fill:#2a2eec;fill-opacity:0.4;stroke:#000000;stroke-opacity:0.4;" x="447.48389" xlink:href="#m26abc41f80" y="77.118879"/>
     <use style="fill:#2a2eec;fill-opacity:0.4;stroke:#000000;stroke-opacity:0.4;" x="417.641965" xlink:href="#m26abc41f80" y="125.654424"/>
     <use style="fill:#2a2eec;fill-opacity:0.4;stroke:#000000;stroke-opacity:0.4;" x="181.023927" xlink:href="#m26abc41f80" y="222.556066"/>
     <use style="fill:#2a2eec;fill-opacity:0.4;stroke:#000000;stroke-opacity:0.4;" x="377.861135" xlink:href="#m26abc41f80" y="119.877004"/>
     <use style="fill:#2a2eec;fill-opacity:0.4;stroke:#000000;stroke-opacity:0.4;" x="316.817372" xlink:href="#m26abc41f80" y="186.678088"/>
     <use style="fill:#2a2eec;fill-opacity:0.4;stroke:#000000;stroke-opacity:0.4;" x="190.813861" xlink:href="#m26abc41f80" y="207.827679"/>
     <use style="fill:#2a2eec;fill-opacity:0.4;stroke:#000000;stroke-opacity:0.4;" x="392.108383" xlink:href="#m26abc41f80" y="144.632589"/>
     <use style="fill:#2a2eec;fill-opacity:0.4;stroke:#000000;stroke-opacity:0.4;" x="324.515777" xlink:href="#m26abc41f80" y="112.645946"/>
     <use style="fill:#2a2eec;fill-opacity:0.4;stroke:#000000;stroke-opacity:0.4;" x="325.904782" xlink:href="#m26abc41f80" y="150.178516"/>
     <use style="fill:#2a2eec;fill-opacity:0.4;stroke:#000000;stroke-opacity:0.4;" x="393.317481" xlink:href="#m26abc41f80" y="109.767754"/>
     <use style="fill:#2a2eec;fill-opacity:0.4;stroke:#000000;stroke-opacity:0.4;" x="230.21903" xlink:href="#m26abc41f80" y="183.619707"/>
     <use style="fill:#2a2eec;fill-opacity:0.4;stroke:#000000;stroke-opacity:0.4;" x="421.30589" xlink:href="#m26abc41f80" y="98.859863"/>
     <use style="fill:#2a2eec;fill-opacity:0.4;stroke:#000000;stroke-opacity:0.4;" x="205.281453" xlink:href="#m26abc41f80" y="207.531226"/>
     <use style="fill:#2a2eec;fill-opacity:0.4;stroke:#000000;stroke-opacity:0.4;" x="355.117225" xlink:href="#m26abc41f80" y="154.584147"/>
     <use style="fill:#2a2eec;fill-opacity:0.4;stroke:#000000;stroke-opacity:0.4;" x="393.631352" xlink:href="#m26abc41f80" y="134.032996"/>
     <use style="fill:#2a2eec;fill-opacity:0.4;stroke:#000000;stroke-opacity:0.4;" x="290.925205" xlink:href="#m26abc41f80" y="177.902339"/>
     <use style="fill:#2a2eec;fill-opacity:0.4;stroke:#000000;stroke-opacity:0.4;" x="292.709806" xlink:href="#m26abc41f80" y="207.823631"/>
     <use style="fill:#2a2eec;fill-opacity:0.4;stroke:#000000;stroke-opacity:0.4;" x="237.49863" xlink:href="#m26abc41f80" y="197.580641"/>
     <use style="fill:#2a2eec;fill-opacity:0.4;stroke:#000000;stroke-opacity:0.4;" x="323.452662" xlink:href="#m26abc41f80" y="180.0128"/>
     <use style="fill:#2a2eec;fill-opacity:0.4;stroke:#000000;stroke-opacity:0.4;" x="215.343368" xlink:href="#m26abc41f80" y="194.770238"/>
     <use style="fill:#2a2eec;fill-opacity:0.4;stroke:#000000;stroke-opacity:0.4;" x="322.000827" xlink:href="#m26abc41f80" y="156.253212"/>
     <use style="fill:#2a2eec;fill-opacity:0.4;stroke:#000000;stroke-opacity:0.4;" x="308.867828" xlink:href="#m26abc41f80" y="177.624248"/>
     <use style="fill:#2a2eec;fill-opacity:0.4;stroke:#000000;stroke-opacity:0.4;" x="160.331384" xlink:href="#m26abc41f80" y="245.464231"/>
     <use style="fill:#2a2eec;fill-opacity:0.4;stroke:#000000;stroke-opacity:0.4;" x="330.769603" xlink:href="#m26abc41f80" y="143.944956"/>
     <use style="fill:#2a2eec;fill-opacity:0.4;stroke:#000000;stroke-opacity:0.4;" x="302.365929" xlink:href="#m26abc41f80" y="166.693178"/>
     <use style="fill:#2a2eec;fill-opacity:0.4;stroke:#000000;stroke-opacity:0.4;" x="253.042435" xlink:href="#m26abc41f80" y="184.85112"/>
     <use style="fill:#2a2eec;fill-opacity:0.4;stroke:#000000;stroke-opacity:0.4;" x="381.160977" xlink:href="#m26abc41f80" y="133.167138"/>
     <use style="fill:#2a2eec;fill-opacity:0.4;stroke:#000000;stroke-opacity:0.4;" x="374.069203" xlink:href="#m26abc41f80" y="131.811776"/>
     <use style="fill:#2a2eec;fill-opacity:0.4;stroke:#000000;stroke-opacity:0.4;" x="173.650664" xlink:href="#m26abc41f80" y="207.107744"/>
     <use style="fill:#2a2eec;fill-opacity:0.4;stroke:#000000;stroke-opacity:0.4;" x="442.451677" xlink:href="#m26abc41f80" y="93.812834"/>
     <use style="fill:#2a2eec;fill-opacity:0.4;stroke:#000000;stroke-opacity:0.4;" x="437.135825" xlink:href="#m26abc41f80" y="81.760106"/>
     <use style="fill:#2a2eec;fill-opacity:0.4;stroke:#000000;stroke-opacity:0.4;" x="496.495766" xlink:href="#m26abc41f80" y="108.993299"/>
     <use style="fill:#2a2eec;fill-opacity:0.4;stroke:#000000;stroke-opacity:0.4;" x="399.034205" xlink:href="#m26abc41f80" y="110.632086"/>
     <use style="fill:#2a2eec;fill-opacity:0.4;stroke:#000000;stroke-opacity:0.4;" x="370.439637" xlink:href="#m26abc41f80" y="141.141046"/>
     <use style="fill:#2a2eec;fill-opacity:0.4;stroke:#000000;stroke-opacity:0.4;" x="236.033391" xlink:href="#m26abc41f80" y="194.880302"/>
     <use style="fill:#2a2eec;fill-opacity:0.4;stroke:#000000;stroke-opacity:0.4;" x="236.938434" xlink:href="#m26abc41f80" y="182.471284"/>
     <use style="fill:#2a2eec;fill-opacity:0.4;stroke:#000000;stroke-opacity:0.4;" x="299.275806" xlink:href="#m26abc41f80" y="195.0316"/>
     <use style="fill:#2a2eec;fill-opacity:0.4;stroke:#000000;stroke-opacity:0.4;" x="268.128946" xlink:href="#m26abc41f80" y="161.999731"/>
     <use style="fill:#2a2eec;fill-opacity:0.4;stroke:#000000;stroke-opacity:0.4;" x="392.169633" xlink:href="#m26abc41f80" y="131.957554"/>
     <use style="fill:#2a2eec;fill-opacity:0.4;stroke:#000000;stroke-opacity:0.4;" x="236.546162" xlink:href="#m26abc41f80" y="159.824099"/>
     <use style="fill:#2a2eec;fill-opacity:0.4;stroke:#000000;stroke-opacity:0.4;" x="187.484277" xlink:href="#m26abc41f80" y="220.288582"/>
     <use style="fill:#2a2eec;fill-opacity:0.4;stroke:#000000;stroke-opacity:0.4;" x="325.476776" xlink:href="#m26abc41f80" y="166.715904"/>
     <use style="fill:#2a2eec;fill-opacity:0.4;stroke:#000000;stroke-opacity:0.4;" x="414.70661" xlink:href="#m26abc41f80" y="125.625671"/>
     <use style="fill:#2a2eec;fill-opacity:0.4;stroke:#000000;stroke-opacity:0.4;" x="281.164068" xlink:href="#m26abc41f80" y="185.21371"/>
     <use style="fill:#2a2eec;fill-opacity:0.4;stroke:#000000;stroke-opacity:0.4;" x="260.57565" xlink:href="#m26abc41f80" y="214.033459"/>
     <use style="fill:#2a2eec;fill-opacity:0.4;stroke:#000000;stroke-opacity:0.4;" x="324.716539" xlink:href="#m26abc41f80" y="179.398053"/>
     <use style="fill:#2a2eec;fill-opacity:0.4;stroke:#000000;stroke-opacity:0.4;" x="263.991268" xlink:href="#m26abc41f80" y="185.945197"/>
     <use style="fill:#2a2eec;fill-opacity:0.4;stroke:#000000;stroke-opacity:0.4;" x="279.309655" xlink:href="#m26abc41f80" y="176.858378"/>
     <use style="fill:#2a2eec;fill-opacity:0.4;stroke:#000000;stroke-opacity:0.4;" x="372.498339" xlink:href="#m26abc41f80" y="168.595767"/>
     <use style="fill:#2a2eec;fill-opacity:0.4;stroke:#000000;stroke-opacity:0.4;" x="324.931639" xlink:href="#m26abc41f80" y="159.527829"/>
     <use style="fill:#2a2eec;fill-opacity:0.4;stroke:#000000;stroke-opacity:0.4;" x="251.897955" xlink:href="#m26abc41f80" y="166.689879"/>
     <use style="fill:#2a2eec;fill-opacity:0.4;stroke:#000000;stroke-opacity:0.4;" x="388.429802" xlink:href="#m26abc41f80" y="126.675374"/>
     <use style="fill:#2a2eec;fill-opacity:0.4;stroke:#000000;stroke-opacity:0.4;" x="272.138004" xlink:href="#m26abc41f80" y="174.69783"/>
     <use style="fill:#2a2eec;fill-opacity:0.4;stroke:#000000;stroke-opacity:0.4;" x="327.629131" xlink:href="#m26abc41f80" y="145.976863"/>
     <use style="fill:#2a2eec;fill-opacity:0.4;stroke:#000000;stroke-opacity:0.4;" x="206.492171" xlink:href="#m26abc41f80" y="186.765802"/>
     <use style="fill:#2a2eec;fill-opacity:0.4;stroke:#000000;stroke-opacity:0.4;" x="242.751896" xlink:href="#m26abc41f80" y="136.961652"/>
     <use style="fill:#2a2eec;fill-opacity:0.4;stroke:#000000;stroke-opacity:0.4;" x="202.669579" xlink:href="#m26abc41f80" y="219.086057"/>
     <use style="fill:#2a2eec;fill-opacity:0.4;stroke:#000000;stroke-opacity:0.4;" x="271.364956" xlink:href="#m26abc41f80" y="188.283155"/>
     <use style="fill:#2a2eec;fill-opacity:0.4;stroke:#000000;stroke-opacity:0.4;" x="207.98506" xlink:href="#m26abc41f80" y="169.465476"/>
     <use style="fill:#2a2eec;fill-opacity:0.4;stroke:#000000;stroke-opacity:0.4;" x="126.693933" xlink:href="#m26abc41f80" y="241.823626"/>
     <use style="fill:#2a2eec;fill-opacity:0.4;stroke:#000000;stroke-opacity:0.4;" x="254.465698" xlink:href="#m26abc41f80" y="189.360904"/>
     <use style="fill:#2a2eec;fill-opacity:0.4;stroke:#000000;stroke-opacity:0.4;" x="240.034913" xlink:href="#m26abc41f80" y="199.38442"/>
     <use style="fill:#2a2eec;fill-opacity:0.4;stroke:#000000;stroke-opacity:0.4;" x="275.494599" xlink:href="#m26abc41f80" y="203.764523"/>
     <use style="fill:#2a2eec;fill-opacity:0.4;stroke:#000000;stroke-opacity:0.4;" x="405.016808" xlink:href="#m26abc41f80" y="164.382916"/>
     <use style="fill:#2a2eec;fill-opacity:0.4;stroke:#000000;stroke-opacity:0.4;" x="379.025608" xlink:href="#m26abc41f80" y="131.683283"/>
     <use style="fill:#2a2eec;fill-opacity:0.4;stroke:#000000;stroke-opacity:0.4;" x="254.243245" xlink:href="#m26abc41f80" y="153.693142"/>
     <use style="fill:#2a2eec;fill-opacity:0.4;stroke:#000000;stroke-opacity:0.4;" x="202.583761" xlink:href="#m26abc41f80" y="205.213423"/>
     <use style="fill:#2a2eec;fill-opacity:0.4;stroke:#000000;stroke-opacity:0.4;" x="236.338401" xlink:href="#m26abc41f80" y="214.605689"/>
     <use style="fill:#2a2eec;fill-opacity:0.4;stroke:#000000;stroke-opacity:0.4;" x="236.721214" xlink:href="#m26abc41f80" y="177.081368"/>
     <use style="fill:#2a2eec;fill-opacity:0.4;stroke:#000000;stroke-opacity:0.4;" x="407.236655" xlink:href="#m26abc41f80" y="121.503009"/>
     <use style="fill:#2a2eec;fill-opacity:0.4;stroke:#000000;stroke-opacity:0.4;" x="275.053983" xlink:href="#m26abc41f80" y="222.35477"/>
     <use style="fill:#2a2eec;fill-opacity:0.4;stroke:#000000;stroke-opacity:0.4;" x="371.911634" xlink:href="#m26abc41f80" y="159.352393"/>
     <use style="fill:#2a2eec;fill-opacity:0.4;stroke:#000000;stroke-opacity:0.4;" x="325.983938" xlink:href="#m26abc41f80" y="118.280319"/>
     <use style="fill:#2a2eec;fill-opacity:0.4;stroke:#000000;stroke-opacity:0.4;" x="200.905504" xlink:href="#m26abc41f80" y="197.719802"/>
     <use style="fill:#2a2eec;fill-opacity:0.4;stroke:#000000;stroke-opacity:0.4;" x="208.648519" xlink:href="#m26abc41f80" y="203.690848"/>
     <use style="fill:#2a2eec;fill-opacity:0.4;stroke:#000000;stroke-opacity:0.4;" x="274.097412" xlink:href="#m26abc41f80" y="180.418503"/>
     <use style="fill:#2a2eec;fill-opacity:0.4;stroke:#000000;stroke-opacity:0.4;" x="342.439837" xlink:href="#m26abc41f80" y="137.467819"/>
     <use style="fill:#2a2eec;fill-opacity:0.4;stroke:#000000;stroke-opacity:0.4;" x="286.462449" xlink:href="#m26abc41f80" y="144.806379"/>
     <use style="fill:#2a2eec;fill-opacity:0.4;stroke:#000000;stroke-opacity:0.4;" x="292.79295" xlink:href="#m26abc41f80" y="147.363385"/>
     <use style="fill:#2a2eec;fill-opacity:0.4;stroke:#000000;stroke-opacity:0.4;" x="265.462969" xlink:href="#m26abc41f80" y="168.866644"/>
     <use style="fill:#2a2eec;fill-opacity:0.4;stroke:#000000;stroke-opacity:0.4;" x="378.399344" xlink:href="#m26abc41f80" y="116.460787"/>
     <use style="fill:#2a2eec;fill-opacity:0.4;stroke:#000000;stroke-opacity:0.4;" x="296.323341" xlink:href="#m26abc41f80" y="183.617548"/>
     <use style="fill:#2a2eec;fill-opacity:0.4;stroke:#000000;stroke-opacity:0.4;" x="343.51265" xlink:href="#m26abc41f80" y="151.164522"/>
     <use style="fill:#2a2eec;fill-opacity:0.4;stroke:#000000;stroke-opacity:0.4;" x="189.823316" xlink:href="#m26abc41f80" y="217.120214"/>
     <use style="fill:#2a2eec;fill-opacity:0.4;stroke:#000000;stroke-opacity:0.4;" x="266.770831" xlink:href="#m26abc41f80" y="191.822749"/>
     <use style="fill:#2a2eec;fill-opacity:0.4;stroke:#000000;stroke-opacity:0.4;" x="270.898558" xlink:href="#m26abc41f80" y="211.14349"/>
     <use style="fill:#2a2eec;fill-opacity:0.4;stroke:#000000;stroke-opacity:0.4;" x="240.163616" xlink:href="#m26abc41f80" y="218.861063"/>
     <use style="fill:#2a2eec;fill-opacity:0.4;stroke:#000000;stroke-opacity:0.4;" x="309.993815" xlink:href="#m26abc41f80" y="149.600198"/>
     <use style="fill:#2a2eec;fill-opacity:0.4;stroke:#000000;stroke-opacity:0.4;" x="227.676301" xlink:href="#m26abc41f80" y="227.135428"/>
     <use style="fill:#2a2eec;fill-opacity:0.4;stroke:#000000;stroke-opacity:0.4;" x="261.766138" xlink:href="#m26abc41f80" y="197.918765"/>
     <use style="fill:#2a2eec;fill-opacity:0.4;stroke:#000000;stroke-opacity:0.4;" x="298.407127" xlink:href="#m26abc41f80" y="197.44671"/>
     <use style="fill:#2a2eec;fill-opacity:0.4;stroke:#000000;stroke-opacity:0.4;" x="274.371913" xlink:href="#m26abc41f80" y="160.305658"/>
     <use style="fill:#2a2eec;fill-opacity:0.4;stroke:#000000;stroke-opacity:0.4;" x="318.890158" xlink:href="#m26abc41f80" y="141.872655"/>
     <use style="fill:#2a2eec;fill-opacity:0.4;stroke:#000000;stroke-opacity:0.4;" x="311.874445" xlink:href="#m26abc41f80" y="161.450145"/>
    </g>
   </g>
   <g id="line2d_36">
    <path clip-path="url(#p8948ea9fb1)" d="M 359.016476 143.361111 
L 284.201008 173.621789 
L 367.83442 139.169142 
L 402.840494 125.964631 
L 296.886834 168.453531 
L 147.702705 230.28246 
L 447.48389 105.463496 
L 417.641965 117.819227 
L 181.023927 216.644236 
L 377.861135 135.542952 
L 316.817372 160.814282 
L 190.813861 211.182527 
L 392.108383 130.295515 
L 324.515777 157.328112 
L 325.904782 156.983843 
L 393.317481 129.689493 
L 230.21903 195.660819 
L 421.30589 118.81847 
L 205.281453 206.003093 
L 355.117225 144.254678 
L 393.631352 129.121328 
L 290.925205 171.303858 
L 292.709806 170.434752 
L 237.49863 192.569048 
L 323.452662 157.684326 
L 215.343368 201.004245 
L 322.000827 159.264886 
L 308.867828 163.512031 
L 160.331384 224.210473 
L 330.769603 155.189359 
L 302.365929 166.232845 
L 253.042435 186.944228 
L 381.160977 133.960249 
L 374.069203 138.289259 
L 173.650664 219.068651 
L 442.451677 109.995718 
L 437.135825 112.332929 
L 496.495766 86.189758 
L 399.034205 127.081415 
L 370.439637 138.548354 
L 236.033391 193.455725 
L 236.938434 192.71916 
L 299.275806 167.577761 
L 268.128946 179.912613 
L 392.169633 130.708229 
L 236.546162 193.830681 
L 187.484277 213.349656 
L 325.476776 157.145256 
L 414.70661 118.344046 
L 281.164068 175.132104 
L 260.57565 182.932476 
L 324.716539 157.764317 
L 263.991268 181.601662 
L 279.309655 175.869416 
L 372.498339 137.61726 
L 324.931639 156.843797 
L 251.897955 187.177925 
L 388.429802 130.87941 
L 272.138004 178.687982 
L 327.629131 156.483838 
L 206.492171 205.871125 
L 242.751896 190.338884 
L 202.669579 207.209904 
L 271.364956 179.068543 
L 207.98506 205.652159 
L 126.693933 240.278453 
L 254.465698 185.869588 
L 240.034913 191.905239 
L 275.494599 177.390681 
L 405.016808 124.235477 
L 379.025608 134.638452 
L 254.243245 186.147358 
L 202.583761 207.232042 
L 236.338401 192.708823 
L 236.721214 194.086741 
L 407.236655 124.195286 
L 275.053983 177.8913 
L 371.911634 138.80748 
L 325.983938 156.98798 
L 200.905504 207.851792 
L 208.648519 205.216754 
L 274.097412 177.868509 
L 342.439837 149.337527 
L 286.462449 172.834153 
L 292.79295 171.387579 
L 265.462969 181.327423 
L 378.399344 136.023525 
L 296.323341 169.302163 
L 343.51265 150.154227 
L 189.823316 211.861779 
L 266.770831 181.370166 
L 270.898558 178.467583 
L 240.163616 191.899886 
L 309.993815 163.197247 
L 227.676301 197.471837 
L 261.766138 182.332709 
L 298.407127 168.576557 
L 274.371913 177.583168 
L 318.890158 159.382175 
L 311.874445 162.344052 
" style="fill:none;stroke:#000000;stroke-linecap:round;stroke-width:0.2;"/>
   </g>
   <g id="line2d_37">
    <path clip-path="url(#p8948ea9fb1)" d="M 127.623083 245.405647 
L 128.552233 244.734295 
L 139.702037 240.565777 
L 150.851841 236.156562 
L 162.001645 231.506651 
L 173.151449 226.616042 
L 180.584652 223.169897 
L 189.876155 218.658082 
L 206.600861 210.130292 
L 215.892365 205.50311 
L 223.325567 201.968793 
L 228.900469 199.527829 
L 243.766875 193.25698 
L 249.341777 190.718284 
L 254.916679 188.35638 
L 260.491581 186.161861 
L 264.208182 184.815309 
L 269.783084 182.505919 
L 275.357986 180.200051 
L 297.657594 171.420068 
L 306.949097 167.608954 
L 318.098901 163.196694 
L 321.815503 161.57023 
L 327.390405 159.049277 
L 340.398509 153.828947 
L 357.123215 147.298882 
L 360.839817 145.806937 
L 368.273019 142.980134 
L 375.706222 139.836722 
L 388.714327 135.438 
L 399.864131 132.01599 
L 412.872235 128.112124 
L 418.447137 126.223024 
L 424.022039 124.281073 
L 431.455242 121.91793 
L 437.030144 119.938508 
L 444.463347 116.993113 
L 450.038249 114.658967 
L 459.329752 110.651411 
L 468.621256 106.365648 
L 477.912759 101.801677 
L 487.204262 96.9595 
L 496.495766 91.839116 
L 496.495766 91.839116 
" style="fill:none;stroke:#fa7c17;stroke-linecap:round;stroke-opacity:0;stroke-width:2;"/>
   </g>
   <g id="line2d_38">
    <path clip-path="url(#p8948ea9fb1)" d="M 127.623083 231.953898 
L 128.552233 231.115139 
L 141.560338 225.37371 
L 154.568443 219.859582 
L 167.576547 214.572755 
L 178.726351 210.238689 
L 191.734456 205.570995 
L 199.167659 202.820864 
L 204.742561 200.752801 
L 210.317463 198.94218 
L 214.034064 197.801022 
L 227.042169 193.240282 
L 240.050273 188.244947 
L 241.908574 187.583111 
L 249.341777 184.528583 
L 264.208182 178.674991 
L 267.924783 177.176675 
L 271.641385 175.685668 
L 280.932888 171.866587 
L 290.224391 168.24138 
L 299.515895 164.716114 
L 306.949097 161.736693 
L 327.390405 152.961355 
L 340.398509 147.73949 
L 347.831712 144.349644 
L 357.123215 140.349243 
L 362.698117 138.188978 
L 366.414719 136.770084 
L 370.13132 135.022791 
L 373.847921 133.194892 
L 394.289229 123.74087 
L 418.447137 112.915317 
L 435.171843 105.057871 
L 444.463347 100.421732 
L 455.613151 95.271847 
L 479.77106 84.249789 
L 496.495766 76.773524 
L 496.495766 76.773524 
" style="fill:none;stroke:#fa7c17;stroke-linecap:round;stroke-opacity:0;stroke-width:2;"/>
   </g>
   <g id="line2d_39">
    <path clip-path="url(#p8948ea9fb1)" d="M 127.623083 273.28378 
L 128.552233 272.630798 
L 145.276939 266.623616 
L 162.001645 260.381815 
L 186.159554 251.269702 
L 189.876155 249.86319 
L 197.309358 246.727658 
L 215.892365 238.641329 
L 219.608966 237.149057 
L 223.325567 235.526945 
L 228.900469 233.215487 
L 238.191973 229.024981 
L 243.766875 226.450275 
L 256.774979 220.854226 
L 264.208182 217.634346 
L 286.50779 208.913296 
L 299.515895 204.3279 
L 312.523999 199.337794 
L 319.957202 196.333671 
L 321.815503 195.518347 
L 325.532104 194.130283 
L 329.248705 192.543877 
L 334.823607 190.314787 
L 338.540209 188.654043 
L 353.406614 181.806359 
L 358.981516 179.431211 
L 364.556418 177.327888 
L 375.706222 172.612502 
L 383.139425 169.853096 
L 388.714327 167.816541 
L 399.864131 163.382066 
L 409.155634 159.649683 
L 431.455242 150.204575 
L 440.746746 146.105728 
L 450.038249 142.389894 
L 461.188053 138.235951 
L 472.337857 134.323326 
L 483.487661 130.652019 
L 494.637465 127.222029 
L 496.495766 126.673826 
L 496.495766 126.673826 
" style="fill:none;stroke:#fa7c17;stroke-linecap:round;stroke-opacity:0;stroke-width:2;"/>
   </g>
   <g id="line2d_40">
    <path clip-path="url(#p8948ea9fb1)" d="M 127.623083 197.996848 
L 128.552233 197.385008 
L 145.276939 191.736901 
L 162.001645 185.834011 
L 195.451057 173.628139 
L 208.459162 168.237145 
L 212.175763 166.797064 
L 219.608966 163.787429 
L 251.200077 150.64405 
L 271.641385 142.061989 
L 284.649489 136.875836 
L 295.799293 132.570652 
L 308.807398 127.752518 
L 319.957202 123.072133 
L 327.390405 120.224095 
L 331.107006 118.752715 
L 334.823607 117.365546 
L 338.540209 115.736275 
L 349.690013 110.926036 
L 375.706222 99.907465 
L 398.00583 90.572393 
L 403.580732 88.346867 
L 420.305438 81.38133 
L 424.022039 79.863028 
L 455.613151 65.806097 
L 496.495766 48.230811 
L 496.495766 48.230811 
" style="fill:none;stroke:#fa7c17;stroke-linecap:round;stroke-opacity:0;stroke-width:2;"/>
   </g>
   <g id="patch_3">
    <path d="M 61.36 314.19952 
L 61.36 24.1275 
" style="fill:none;"/>
   </g>
   <g id="patch_4">
    <path d="M 61.36 314.19952 
L 516.09952 314.19952 
" style="fill:none;"/>
   </g>
   <g id="text_20">
    <!-- Posterior predictive checks -->
    <g style="fill:#262626;" transform="translate(61.36 18.1275)scale(0.16 -0.16)">
     <defs>
      <path d="M 998 1926 
L 1664 1523 
Q 1984 1331 2105 1164 
Q 2227 998 2227 736 
Q 2227 416 1961 176 
Q 1696 -64 1331 -64 
Q 1030 -64 864 -6 
Q 691 51 570 51 
Q 461 51 416 -26 
L 333 -26 
L 333 979 
L 435 979 
Q 538 512 730 294 
Q 922 77 1248 77 
Q 1485 77 1632 211 
Q 1779 346 1779 550 
Q 1779 845 1440 1030 
L 1094 1222 
Q 326 1651 326 2150 
Q 326 2522 566 2730 
Q 806 2938 1210 2938 
Q 1491 2938 1638 2867 
Q 1754 2816 1818 2816 
Q 1862 2816 1920 2880 
L 1990 2880 
L 2022 2010 
L 1926 2010 
Q 1818 2445 1654 2621 
Q 1491 2797 1203 2797 
Q 986 2797 854 2688 
Q 723 2579 723 2362 
Q 723 2253 796 2128 
Q 870 2003 998 1926 
z
" id="STIXGeneral-Regular-73" transform="scale(0.015625)"/>
      <path d="M 1018 2931 
L 1018 2438 
Q 1421 2944 1939 2944 
Q 2406 2944 2707 2560 
Q 3008 2176 3008 1581 
Q 3008 883 2621 409 
Q 2234 -64 1664 -64 
Q 1466 -64 1328 -6 
Q 1190 51 1018 211 
L 1018 -794 
Q 1018 -1094 1120 -1180 
Q 1222 -1267 1581 -1274 
L 1581 -1389 
L 32 -1389 
L 32 -1280 
Q 314 -1254 397 -1171 
Q 480 -1088 480 -838 
L 480 2157 
Q 480 2381 429 2451 
Q 378 2522 218 2522 
Q 115 2522 58 2515 
L 58 2618 
Q 506 2752 979 2944 
L 1018 2931 
z
M 1018 2138 
L 1018 563 
Q 1018 422 1238 281 
Q 1459 141 1683 141 
Q 2029 141 2243 467 
Q 2458 794 2458 1325 
Q 2458 1888 2243 2224 
Q 2029 2560 1670 2560 
Q 1446 2560 1232 2419 
Q 1018 2278 1018 2138 
z
" id="STIXGeneral-Regular-70" transform="scale(0.015625)"/>
      <path d="M 3053 2880 
L 3053 2784 
Q 2906 2771 2835 2688 
Q 2765 2605 2637 2285 
L 1818 230 
Q 1690 -90 1638 -90 
Q 1587 -90 1523 77 
Q 1510 96 1497 141 
Q 1485 186 1472 211 
L 704 2048 
Q 499 2534 403 2652 
Q 307 2771 122 2784 
L 122 2880 
L 1376 2880 
L 1376 2784 
Q 1210 2771 1146 2732 
Q 1082 2694 1082 2611 
Q 1082 2509 1139 2368 
L 1792 730 
L 2426 2387 
Q 2464 2483 2464 2579 
Q 2464 2758 2163 2784 
L 2163 2880 
L 3053 2880 
z
" id="STIXGeneral-Regular-76" transform="scale(0.015625)"/>
      <path d="M 3117 0 
L 1760 0 
L 1760 96 
Q 2042 128 2118 224 
Q 2195 320 2195 653 
L 2195 1920 
Q 2195 2598 1722 2598 
Q 1530 2598 1370 2508 
Q 1210 2419 1005 2195 
L 1005 653 
Q 1005 320 1081 224 
Q 1158 128 1440 96 
L 1440 0 
L 58 0 
L 58 96 
Q 333 134 400 224 
Q 467 314 467 653 
L 467 3667 
Q 467 3872 406 3933 
Q 346 3994 141 3994 
Q 83 3994 64 3987 
L 64 4090 
L 237 4141 
Q 730 4288 973 4371 
L 1005 4352 
L 1005 2406 
Q 1229 2694 1446 2819 
Q 1664 2944 1946 2944 
Q 2733 2944 2733 1926 
L 2733 653 
Q 2733 320 2793 233 
Q 2854 147 3117 96 
L 3117 0 
z
" id="STIXGeneral-Regular-68" transform="scale(0.015625)"/>
      <path d="M 3232 0 
L 1837 0 
L 1837 96 
L 1958 96 
Q 2093 96 2093 192 
Q 2093 250 2022 339 
L 1062 1606 
L 1062 429 
Q 1062 262 1142 185 
Q 1222 109 1414 102 
L 1542 96 
L 1542 0 
L 45 0 
L 45 96 
Q 390 154 457 214 
Q 525 275 525 525 
L 525 3610 
Q 525 3840 467 3920 
Q 410 4000 250 4000 
Q 211 4000 45 3987 
L 45 4090 
L 237 4141 
Q 621 4243 1037 4371 
L 1062 4358 
L 1062 1670 
L 1939 2451 
Q 2086 2586 2086 2675 
Q 2086 2739 2019 2761 
Q 1952 2784 1766 2790 
L 1766 2880 
L 3072 2880 
L 3072 2784 
Q 2752 2784 2505 2646 
Q 2259 2509 1690 1978 
L 1504 1805 
L 2483 563 
Q 2829 122 3232 96 
L 3232 0 
z
" id="STIXGeneral-Regular-6b" transform="scale(0.015625)"/>
     </defs>
     <use xlink:href="#STIXGeneral-Regular-50"/>
     <use x="55.699997" xlink:href="#STIXGeneral-Regular-6f"/>
     <use x="105.699982" xlink:href="#STIXGeneral-Regular-73"/>
     <use x="144.599976" xlink:href="#STIXGeneral-Regular-74"/>
     <use x="172.399963" xlink:href="#STIXGeneral-Regular-65"/>
     <use x="216.799957" xlink:href="#STIXGeneral-Regular-72"/>
     <use x="250.099945" xlink:href="#STIXGeneral-Regular-69"/>
     <use x="277.899933" xlink:href="#STIXGeneral-Regular-6f"/>
     <use x="327.899918" xlink:href="#STIXGeneral-Regular-72"/>
     <use x="361.199905" xlink:href="#STIXGeneral-Regular-20"/>
     <use x="386.19989" xlink:href="#STIXGeneral-Regular-70"/>
     <use x="436.199875" xlink:href="#STIXGeneral-Regular-72"/>
     <use x="469.499863" xlink:href="#STIXGeneral-Regular-65"/>
     <use x="513.899857" xlink:href="#STIXGeneral-Regular-64"/>
     <use x="563.899841" xlink:href="#STIXGeneral-Regular-69"/>
     <use x="591.699829" xlink:href="#STIXGeneral-Regular-63"/>
     <use x="636.099823" xlink:href="#STIXGeneral-Regular-74"/>
     <use x="663.899811" xlink:href="#STIXGeneral-Regular-69"/>
     <use x="691.699799" xlink:href="#STIXGeneral-Regular-76"/>
     <use x="741.699783" xlink:href="#STIXGeneral-Regular-65"/>
     <use x="786.099777" xlink:href="#STIXGeneral-Regular-20"/>
     <use x="811.099762" xlink:href="#STIXGeneral-Regular-63"/>
     <use x="855.499756" xlink:href="#STIXGeneral-Regular-68"/>
     <use x="905.499741" xlink:href="#STIXGeneral-Regular-65"/>
     <use x="949.899734" xlink:href="#STIXGeneral-Regular-63"/>
     <use x="994.299728" xlink:href="#STIXGeneral-Regular-6b"/>
     <use x="1044.299713" xlink:href="#STIXGeneral-Regular-73"/>
    </g>
   </g>
   <g id="legend_1">
    <g id="line2d_41"/>
    <g id="line2d_42">
     <g>
      <use style="fill:#2a2eec;fill-opacity:0.4;stroke:#000000;stroke-opacity:0.4;" x="78.36" xlink:href="#m26abc41f80" y="34.6275"/>
     </g>
    </g>
    <g id="text_21">
     <!-- Data -->
     <g style="fill:#262626;" transform="translate(96.36 38.1275)scale(0.1 -0.1)">
      <defs>
       <path d="M 102 4237 
L 1830 4237 
Q 3078 4237 3750 3654 
Q 4384 3110 4384 2138 
Q 4384 966 3514 410 
Q 2880 0 1901 0 
L 102 0 
L 102 122 
Q 474 147 570 252 
Q 666 358 666 736 
L 666 3520 
Q 666 3891 570 3990 
Q 474 4090 102 4115 
L 102 4237 
z
M 1318 3731 
L 1318 538 
Q 1318 365 1379 301 
Q 1440 237 1626 237 
Q 2125 237 2432 307 
Q 2739 378 3021 570 
Q 3686 1018 3686 2099 
Q 3686 3027 3078 3558 
Q 2803 3802 2476 3901 
Q 2150 4000 1658 4000 
Q 1472 4000 1395 3942 
Q 1318 3885 1318 3731 
z
" id="STIXGeneral-Regular-44" transform="scale(0.015625)"/>
       <path d="M 2829 422 
L 2829 243 
Q 2586 -64 2253 -64 
Q 1888 -64 1843 403 
L 1837 403 
Q 1427 -64 909 -64 
Q 608 -64 422 112 
Q 237 288 237 602 
Q 237 1050 685 1350 
Q 992 1555 1837 1869 
L 1837 2214 
Q 1837 2502 1699 2646 
Q 1562 2790 1338 2790 
Q 1146 2790 1018 2697 
Q 890 2605 890 2477 
Q 890 2419 909 2348 
Q 928 2278 928 2208 
Q 928 2112 841 2029 
Q 755 1946 634 1946 
Q 525 1946 441 2029 
Q 358 2112 358 2240 
Q 358 2547 685 2752 
Q 986 2944 1421 2944 
Q 1939 2944 2176 2656 
Q 2291 2522 2323 2384 
Q 2355 2246 2355 1946 
L 2355 723 
Q 2355 301 2554 301 
Q 2682 301 2829 422 
z
M 1837 813 
L 1837 1715 
Q 1248 1510 1018 1293 
Q 800 1094 800 800 
Q 800 557 921 432 
Q 1043 307 1242 307 
Q 1453 307 1613 410 
Q 1747 506 1792 589 
Q 1837 672 1837 813 
z
" id="STIXGeneral-Regular-61" transform="scale(0.015625)"/>
      </defs>
      <use xlink:href="#STIXGeneral-Regular-44"/>
      <use x="72.199982" xlink:href="#STIXGeneral-Regular-61"/>
      <use x="116.599976" xlink:href="#STIXGeneral-Regular-74"/>
      <use x="144.399963" xlink:href="#STIXGeneral-Regular-61"/>
     </g>
    </g>
    <g id="line2d_43">
     <path d="M 68.36 47.797812 
L 88.36 47.797812 
" style="fill:none;stroke:#000000;stroke-linecap:round;stroke-width:0.2;"/>
    </g>
    <g id="line2d_44"/>
    <g id="text_22">
     <!-- Mean outcomes -->
     <g style="fill:#262626;" transform="translate(96.36 51.297812)scale(0.1 -0.1)">
      <defs>
       <path d="M 5530 0 
L 3738 0 
L 3738 122 
Q 4115 147 4214 265 
Q 4314 384 4314 787 
L 4314 3661 
L 2682 0 
L 2592 0 
L 979 3514 
L 979 966 
Q 979 448 1088 294 
Q 1197 141 1574 122 
L 1574 0 
L 77 0 
L 77 122 
Q 358 141 480 205 
Q 602 269 650 432 
Q 698 595 698 966 
L 698 3514 
Q 698 3878 589 3984 
Q 480 4090 90 4115 
L 90 4237 
L 1357 4237 
L 2835 1024 
L 4250 4237 
L 5523 4237 
L 5523 4115 
Q 5178 4109 5072 3993 
Q 4966 3878 4966 3520 
L 4966 717 
Q 4966 378 5072 262 
Q 5178 147 5530 122 
L 5530 0 
z
" id="STIXGeneral-Regular-4d" transform="scale(0.015625)"/>
       <path d="M 3104 0 
L 1773 0 
L 1779 96 
Q 2016 115 2096 233 
Q 2176 352 2176 672 
L 2176 1946 
Q 2176 2592 1709 2592 
Q 1549 2592 1408 2515 
Q 1267 2438 1050 2227 
L 1050 461 
Q 1050 269 1136 192 
Q 1222 115 1466 96 
L 1466 0 
L 115 0 
L 115 96 
Q 358 115 435 214 
Q 512 314 512 602 
L 512 2157 
Q 512 2394 467 2483 
Q 422 2573 288 2573 
Q 160 2573 102 2547 
L 102 2656 
Q 550 2784 979 2944 
L 1030 2925 
L 1030 2426 
L 1037 2426 
Q 1491 2944 1958 2944 
Q 2323 2944 2518 2688 
Q 2714 2432 2714 1958 
L 2714 544 
Q 2714 288 2790 205 
Q 2867 122 3104 96 
L 3104 0 
z
" id="STIXGeneral-Regular-6e" transform="scale(0.015625)"/>
      </defs>
      <use xlink:href="#STIXGeneral-Regular-4d"/>
      <use x="88.899994" xlink:href="#STIXGeneral-Regular-65"/>
      <use x="133.299988" xlink:href="#STIXGeneral-Regular-61"/>
      <use x="177.699982" xlink:href="#STIXGeneral-Regular-6e"/>
      <use x="227.699966" xlink:href="#STIXGeneral-Regular-20"/>
      <use x="252.699951" xlink:href="#STIXGeneral-Regular-6f"/>
      <use x="302.699936" xlink:href="#STIXGeneral-Regular-75"/>
      <use x="352.699921" xlink:href="#STIXGeneral-Regular-74"/>
      <use x="380.499908" xlink:href="#STIXGeneral-Regular-63"/>
      <use x="424.899902" xlink:href="#STIXGeneral-Regular-6f"/>
      <use x="474.899887" xlink:href="#STIXGeneral-Regular-6d"/>
      <use x="552.699875" xlink:href="#STIXGeneral-Regular-65"/>
      <use x="597.099869" xlink:href="#STIXGeneral-Regular-73"/>
     </g>
    </g>
    <g id="patch_5">
     <path d="M 174.963125 38.1275 
L 194.963125 38.1275 
L 194.963125 31.1275 
L 174.963125 31.1275 
z
" style="fill:#da70d6;fill-opacity:0.5;stroke:#da70d6;stroke-linejoin:miter;stroke-opacity:0.5;stroke-width:0.8;"/>
    </g>
    <g id="text_23">
     <!-- Mean Outcome 94% HPD -->
     <g style="fill:#262626;" transform="translate(202.963125 38.1275)scale(0.1 -0.1)">
      <defs>
       <path d="M 378 -141 
L 358 -13 
Q 1094 115 1603 608 
Q 2112 1101 2304 1882 
Q 1933 1517 1344 1517 
Q 826 1517 509 1875 
Q 192 2234 192 2816 
Q 192 3462 573 3894 
Q 954 4326 1523 4326 
Q 2131 4326 2528 3840 
Q 2938 3328 2938 2522 
Q 2938 1958 2742 1462 
Q 2547 966 2170 621 
Q 1773 262 1395 105 
Q 1018 -51 378 -141 
z
M 2317 2272 
L 2317 2522 
Q 2317 4147 1472 4147 
Q 1171 4147 1005 3930 
Q 909 3802 845 3546 
Q 781 3290 781 3034 
Q 781 2464 995 2128 
Q 1210 1792 1568 1792 
Q 1824 1792 2070 1917 
Q 2317 2042 2317 2272 
z
" id="STIXGeneral-Regular-39" transform="scale(0.015625)"/>
       <path d="M 3027 1069 
L 2368 1069 
L 2368 0 
L 1869 0 
L 1869 1069 
L 77 1069 
L 77 1478 
L 2086 4326 
L 2368 4326 
L 2368 1478 
L 3027 1478 
L 3027 1069 
z
M 1869 1478 
L 1869 3674 
L 333 1478 
L 1869 1478 
z
" id="STIXGeneral-Regular-34" transform="scale(0.015625)"/>
       <path d="M 4390 1363 
Q 4390 781 4070 329 
Q 3750 -122 3341 -122 
Q 3014 -122 2790 134 
Q 2566 390 2566 762 
Q 2566 1274 2940 1693 
Q 3315 2112 3776 2112 
Q 4070 2112 4230 1917 
Q 4390 1722 4390 1363 
z
M 4243 1376 
Q 4243 1626 4131 1779 
Q 4019 1933 3840 1933 
Q 3654 1933 3526 1786 
Q 3315 1562 3171 1187 
Q 3027 813 3027 486 
Q 3027 301 3129 176 
Q 3232 51 3386 51 
Q 3718 51 3980 457 
Q 4243 864 4243 1376 
z
M 3974 4518 
L 1222 -115 
L 922 -115 
L 3443 4096 
Q 3264 3891 3094 3811 
Q 2925 3731 2669 3731 
Q 2445 3731 2182 3821 
Q 2208 3674 2208 3539 
Q 2208 3206 2067 2873 
Q 1926 2541 1696 2323 
Q 1453 2086 1146 2086 
Q 826 2086 608 2339 
Q 390 2592 390 2963 
Q 390 3507 761 3916 
Q 1133 4326 1626 4326 
Q 1792 4326 2010 4147 
Q 2310 3898 2624 3898 
Q 2918 3898 3084 3994 
Q 3251 4090 3693 4518 
L 3974 4518 
z
M 2054 3642 
Q 2054 3782 2025 3833 
Q 1997 3885 1894 3936 
Q 1747 4006 1613 4154 
Q 1414 4058 1331 3984 
Q 1248 3910 1152 3750 
Q 845 3264 845 2707 
Q 845 2509 944 2384 
Q 1043 2259 1210 2259 
Q 1549 2259 1801 2675 
Q 2054 3091 2054 3642 
z
" id="STIXGeneral-Regular-25" transform="scale(0.015625)"/>
       <path d="M 4499 0 
L 2714 0 
L 2714 122 
Q 3085 147 3181 265 
Q 3277 384 3277 794 
L 3277 2016 
L 1338 2016 
L 1338 723 
Q 1338 371 1440 256 
Q 1542 141 1894 122 
L 1901 0 
L 115 0 
L 115 122 
Q 493 147 589 259 
Q 685 371 685 781 
L 685 3507 
Q 685 3878 585 3980 
Q 486 4083 115 4115 
L 115 4237 
L 1907 4237 
L 1907 4115 
Q 1549 4083 1443 3977 
Q 1338 3872 1338 3507 
L 1338 2298 
L 3277 2298 
L 3277 3507 
Q 3277 3878 3177 3980 
Q 3078 4083 2707 4115 
L 2707 4237 
L 4499 4237 
L 4499 4115 
Q 4141 4083 4035 3977 
Q 3930 3872 3930 3507 
L 3930 710 
Q 3930 371 4035 259 
Q 4141 147 4499 122 
L 4499 0 
z
" id="STIXGeneral-Regular-48" transform="scale(0.015625)"/>
      </defs>
      <use xlink:href="#STIXGeneral-Regular-4d"/>
      <use x="88.899994" xlink:href="#STIXGeneral-Regular-65"/>
      <use x="133.299988" xlink:href="#STIXGeneral-Regular-61"/>
      <use x="177.699982" xlink:href="#STIXGeneral-Regular-6e"/>
      <use x="227.699966" xlink:href="#STIXGeneral-Regular-20"/>
      <use x="252.699951" xlink:href="#STIXGeneral-Regular-4f"/>
      <use x="324.899933" xlink:href="#STIXGeneral-Regular-75"/>
      <use x="374.899918" xlink:href="#STIXGeneral-Regular-74"/>
      <use x="402.699905" xlink:href="#STIXGeneral-Regular-63"/>
      <use x="447.099899" xlink:href="#STIXGeneral-Regular-6f"/>
      <use x="497.099884" xlink:href="#STIXGeneral-Regular-6d"/>
      <use x="574.899872" xlink:href="#STIXGeneral-Regular-65"/>
      <use x="619.299866" xlink:href="#STIXGeneral-Regular-20"/>
      <use x="644.29985" xlink:href="#STIXGeneral-Regular-39"/>
      <use x="694.299835" xlink:href="#STIXGeneral-Regular-34"/>
      <use x="744.29982" xlink:href="#STIXGeneral-Regular-25"/>
      <use x="818.999802" xlink:href="#STIXGeneral-Regular-20"/>
      <use x="843.999786" xlink:href="#STIXGeneral-Regular-48"/>
      <use x="916.199768" xlink:href="#STIXGeneral-Regular-50"/>
      <use x="971.899765" xlink:href="#STIXGeneral-Regular-44"/>
     </g>
    </g>
    <g id="patch_6">
     <path d="M 174.963125 51.297812 
L 194.963125 51.297812 
L 194.963125 44.297812 
L 174.963125 44.297812 
z
" style="fill:#ff7f50;fill-opacity:0.2;stroke:#ff7f50;stroke-linejoin:miter;stroke-opacity:0.2;stroke-width:0.8;"/>
    </g>
    <g id="text_24">
     <!-- Outcome 94% HPD -->
     <g style="fill:#262626;" transform="translate(202.963125 51.297812)scale(0.1 -0.1)">
      <use xlink:href="#STIXGeneral-Regular-4f"/>
      <use x="72.199982" xlink:href="#STIXGeneral-Regular-75"/>
      <use x="122.199966" xlink:href="#STIXGeneral-Regular-74"/>
      <use x="149.999954" xlink:href="#STIXGeneral-Regular-63"/>
      <use x="194.399948" xlink:href="#STIXGeneral-Regular-6f"/>
      <use x="244.399933" xlink:href="#STIXGeneral-Regular-6d"/>
      <use x="322.199921" xlink:href="#STIXGeneral-Regular-65"/>
      <use x="366.599915" xlink:href="#STIXGeneral-Regular-20"/>
      <use x="391.599899" xlink:href="#STIXGeneral-Regular-39"/>
      <use x="441.599884" xlink:href="#STIXGeneral-Regular-34"/>
      <use x="491.599869" xlink:href="#STIXGeneral-Regular-25"/>
      <use x="566.29985" xlink:href="#STIXGeneral-Regular-20"/>
      <use x="591.299835" xlink:href="#STIXGeneral-Regular-48"/>
      <use x="663.499817" xlink:href="#STIXGeneral-Regular-50"/>
      <use x="719.199814" xlink:href="#STIXGeneral-Regular-44"/>
     </g>
    </g>
   </g>
  </g>
 </g>
 <defs>
  <clipPath id="p8948ea9fb1">
   <rect height="290.07202" width="454.73952" x="61.36" y="24.1275"/>
  </clipPath>
 </defs>
</svg>
