<?xml version="1.0" encoding="UTF-8" standalone="no"?>
<!DOCTYPE svg PUBLIC "-//W3C//DTD SVG 1.1//EN"
 "http://www.w3.org/Graphics/SVG/1.1/DTD/svg11.dtd">
<!-- Generated by graphviz version 2.49.1 (20210923.0004)
 -->
<!-- Pages: 1 -->
<svg width="329pt" height="233pt"
 viewBox="0.00 0.00 329.12 232.91" xmlns="http://www.w3.org/2000/svg" xmlns:xlink="http://www.w3.org/1999/xlink">
<g id="graph0" class="graph" transform="scale(1 1) rotate(0) translate(4 228.91)">
<polygon fill="white" stroke="transparent" points="-4,4 -4,-228.91 325.12,-228.91 325.12,4 -4,4"/>
<g id="clust1" class="cluster">
<title>cluster100</title>
<path fill="none" stroke="black" d="M140.4,-8C140.4,-8 216.4,-8 216.4,-8 222.4,-8 228.4,-14 228.4,-20 228.4,-20 228.4,-109.95 228.4,-109.95 228.4,-115.95 222.4,-121.95 216.4,-121.95 216.4,-121.95 140.4,-121.95 140.4,-121.95 134.4,-121.95 128.4,-115.95 128.4,-109.95 128.4,-109.95 128.4,-20 128.4,-20 128.4,-14 134.4,-8 140.4,-8"/>
<text text-anchor="middle" x="209.9" y="-15.8" font-family="Times,serif" font-size="14.00">100</text>
</g>
<!-- sigma -->
<g id="node1" class="node">
<title>sigma</title>
<ellipse fill="none" stroke="black" cx="59.4" cy="-187.43" rx="59.29" ry="37.45"/>
<text text-anchor="middle" x="59.4" y="-198.73" font-family="Times,serif" font-size="14.00">sigma</text>
<text text-anchor="middle" x="59.4" y="-183.73" font-family="Times,serif" font-size="14.00">~</text>
<text text-anchor="middle" x="59.4" y="-168.73" font-family="Times,serif" font-size="14.00">HalfNormal</text>
</g>
<!-- Y_obs -->
<g id="node4" class="node">
<title>Y_obs</title>
<ellipse fill="lightgrey" stroke="black" cx="178.4" cy="-76.48" rx="41.94" ry="37.45"/>
<text text-anchor="middle" x="178.4" y="-87.78" font-family="Times,serif" font-size="14.00">Y_obs</text>
<text text-anchor="middle" x="178.4" y="-72.78" font-family="Times,serif" font-size="14.00">~</text>
<text text-anchor="middle" x="178.4" y="-57.78" font-family="Times,serif" font-size="14.00">Normal</text>
</g>
<!-- sigma&#45;&gt;Y_obs -->
<g id="edge1" class="edge">
<title>sigma&#45;&gt;Y_obs</title>
<path fill="none" stroke="black" d="M92.55,-156.08C107.91,-142.01 126.22,-125.25 141.97,-110.83"/>
<polygon fill="black" stroke="black" points="144.46,-113.29 149.47,-103.96 139.73,-108.13 144.46,-113.29"/>
</g>
<!-- beta -->
<g id="node2" class="node">
<title>beta</title>
<ellipse fill="none" stroke="black" cx="178.4" cy="-187.43" rx="41.94" ry="37.45"/>
<text text-anchor="middle" x="178.4" y="-198.73" font-family="Times,serif" font-size="14.00">beta</text>
<text text-anchor="middle" x="178.4" y="-183.73" font-family="Times,serif" font-size="14.00">~</text>
<text text-anchor="middle" x="178.4" y="-168.73" font-family="Times,serif" font-size="14.00">Normal</text>
</g>
<!-- beta&#45;&gt;Y_obs -->
<g id="edge2" class="edge">
<title>beta&#45;&gt;Y_obs</title>
<path fill="none" stroke="black" d="M178.4,-149.85C178.4,-141.67 178.4,-132.89 178.4,-124.37"/>
<polygon fill="black" stroke="black" points="181.9,-124.15 178.4,-114.15 174.9,-124.15 181.9,-124.15"/>
</g>
<!-- alpha -->
<g id="node3" class="node">
<title>alpha</title>
<ellipse fill="none" stroke="black" cx="279.4" cy="-187.43" rx="41.94" ry="37.45"/>
<text text-anchor="middle" x="279.4" y="-198.73" font-family="Times,serif" font-size="14.00">alpha</text>
<text text-anchor="middle" x="279.4" y="-183.73" font-family="Times,serif" font-size="14.00">~</text>
<text text-anchor="middle" x="279.4" y="-168.73" font-family="Times,serif" font-size="14.00">Normal</text>
</g>
<!-- alpha&#45;&gt;Y_obs -->
<g id="edge3" class="edge">
<title>alpha&#45;&gt;Y_obs</title>
<path fill="none" stroke="black" d="M253.12,-158.09C240.48,-144.45 225.18,-127.95 211.73,-113.44"/>
<polygon fill="black" stroke="black" points="214.25,-111.01 204.89,-106.06 209.12,-115.77 214.25,-111.01"/>
</g>
</g>
</svg>
