<?xml version="1.0" encoding="UTF-8" standalone="no"?>
<!DOCTYPE svg PUBLIC "-//W3C//DTD SVG 1.1//EN"
 "http://www.w3.org/Graphics/SVG/1.1/DTD/svg11.dtd">
<!-- Generated by graphviz version 2.49.1 (20210923.0004)
 -->
<!-- Pages: 1 -->
<svg width="329pt" height="233pt"
 viewBox="0.00 0.00 329.44 232.91" xmlns="http://www.w3.org/2000/svg" xmlns:xlink="http://www.w3.org/1999/xlink">
<g id="graph0" class="graph" transform="scale(1 1) rotate(0) translate(4 228.91)">
<polygon fill="white" stroke="transparent" points="-4,4 -4,-228.91 325.44,-228.91 325.44,4 -4,4"/>
<g id="clust1" class="cluster">
<title>cluster100</title>
<path fill="none" stroke="black" d="M122.72,-8C122.72,-8 198.72,-8 198.72,-8 204.72,-8 210.72,-14 210.72,-20 210.72,-20 210.72,-109.95 210.72,-109.95 210.72,-115.95 204.72,-121.95 198.72,-121.95 198.72,-121.95 122.72,-121.95 122.72,-121.95 116.72,-121.95 110.72,-115.95 110.72,-109.95 110.72,-109.95 110.72,-20 110.72,-20 110.72,-14 116.72,-8 122.72,-8"/>
<text text-anchor="middle" x="191.72" y="-15.8" font-family="Times,serif" font-size="14.00">100</text>
</g>
<!-- beta -->
<g id="node1" class="node">
<title>beta</title>
<ellipse fill="none" stroke="black" cx="41.72" cy="-187.43" rx="41.94" ry="37.45"/>
<text text-anchor="middle" x="41.72" y="-198.73" font-family="Times,serif" font-size="14.00">beta</text>
<text text-anchor="middle" x="41.72" y="-183.73" font-family="Times,serif" font-size="14.00">~</text>
<text text-anchor="middle" x="41.72" y="-168.73" font-family="Times,serif" font-size="14.00">Normal</text>
</g>
<!-- Y_obs -->
<g id="node4" class="node">
<title>Y_obs</title>
<ellipse fill="lightgrey" stroke="black" cx="160.72" cy="-76.48" rx="41.94" ry="37.45"/>
<text text-anchor="middle" x="160.72" y="-87.78" font-family="Times,serif" font-size="14.00">Y_obs</text>
<text text-anchor="middle" x="160.72" y="-72.78" font-family="Times,serif" font-size="14.00">~</text>
<text text-anchor="middle" x="160.72" y="-57.78" font-family="Times,serif" font-size="14.00">Normal</text>
</g>
<!-- beta&#45;&gt;Y_obs -->
<g id="edge1" class="edge">
<title>beta&#45;&gt;Y_obs</title>
<path fill="none" stroke="black" d="M70.53,-160.06C86.63,-145.31 106.87,-126.78 124.09,-111.01"/>
<polygon fill="black" stroke="black" points="126.75,-113.32 131.77,-103.99 122.03,-108.16 126.75,-113.32"/>
</g>
<!-- sigma -->
<g id="node2" class="node">
<title>sigma</title>
<ellipse fill="none" stroke="black" cx="160.72" cy="-187.43" rx="59.29" ry="37.45"/>
<text text-anchor="middle" x="160.72" y="-198.73" font-family="Times,serif" font-size="14.00">sigma</text>
<text text-anchor="middle" x="160.72" y="-183.73" font-family="Times,serif" font-size="14.00">~</text>
<text text-anchor="middle" x="160.72" y="-168.73" font-family="Times,serif" font-size="14.00">HalfNormal</text>
</g>
<!-- sigma&#45;&gt;Y_obs -->
<g id="edge3" class="edge">
<title>sigma&#45;&gt;Y_obs</title>
<path fill="none" stroke="black" d="M160.72,-149.85C160.72,-141.67 160.72,-132.89 160.72,-124.37"/>
<polygon fill="black" stroke="black" points="164.22,-124.15 160.72,-114.15 157.22,-124.15 164.22,-124.15"/>
</g>
<!-- alpha -->
<g id="node3" class="node">
<title>alpha</title>
<ellipse fill="none" stroke="black" cx="279.72" cy="-187.43" rx="41.94" ry="37.45"/>
<text text-anchor="middle" x="279.72" y="-198.73" font-family="Times,serif" font-size="14.00">alpha</text>
<text text-anchor="middle" x="279.72" y="-183.73" font-family="Times,serif" font-size="14.00">~</text>
<text text-anchor="middle" x="279.72" y="-168.73" font-family="Times,serif" font-size="14.00">Normal</text>
</g>
<!-- alpha&#45;&gt;Y_obs -->
<g id="edge2" class="edge">
<title>alpha&#45;&gt;Y_obs</title>
<path fill="none" stroke="black" d="M250.91,-160.06C234.81,-145.31 214.57,-126.78 197.35,-111.01"/>
<polygon fill="black" stroke="black" points="199.41,-108.16 189.67,-103.99 194.69,-113.32 199.41,-108.16"/>
</g>
</g>
</svg>
