<?xml version="1.0" encoding="utf-8" standalone="no"?>
<!DOCTYPE svg PUBLIC "-//W3C//DTD SVG 1.1//EN"
  "http://www.w3.org/Graphics/SVG/1.1/DTD/svg11.dtd">
<svg xmlns:xlink="http://www.w3.org/1999/xlink" width="584.39952pt" height="368.39952pt" viewBox="0 0 584.39952 368.39952" xmlns="http://www.w3.org/2000/svg" version="1.1">
 <metadata>
  <rdf:RDF xmlns:dc="http://purl.org/dc/elements/1.1/" xmlns:cc="http://creativecommons.org/ns#" xmlns:rdf="http://www.w3.org/1999/02/22-rdf-syntax-ns#">
   <cc:Work>
    <dc:type rdf:resource="http://purl.org/dc/dcmitype/StillImage"/>
    <dc:date>2022-09-16T15:06:38.071111</dc:date>
    <dc:format>image/svg+xml</dc:format>
    <dc:creator>
     <cc:Agent>
      <dc:title>Matplotlib v3.5.3, https://matplotlib.org/</dc:title>
     </cc:Agent>
    </dc:creator>
   </cc:Work>
  </rdf:RDF>
 </metadata>
 <defs>
  <style type="text/css">*{stroke-linejoin: round; stroke-linecap: butt}</style>
 </defs>
 <g id="figure_1">
  <g id="patch_1">
   <path d="M 0 368.39952 
L 584.39952 368.39952 
L 584.39952 0 
L 0 0 
z
" style="fill: #ffffff"/>
  </g>
  <g id="axes_1">
   <g id="patch_2">
    <path d="M 16.613501 341.144078 
L 567.786019 341.144078 
L 567.786019 24.956118 
L 16.613501 24.956118 
z
" style="fill: #eeeeee"/>
   </g>
   <g id="matplotlib.axis_1">
    <g id="xtick_1">
     <g id="line2d_1">
      <path d="M 16.613501 341.144078 
L 16.613501 24.956118 
" clip-path="url(#pb879602876)" style="fill: none; stroke: #ffffff; stroke-width: 0.8; stroke-linecap: round"/>
     </g>
     <g id="line2d_2">
      <defs>
       <path id="m42a460ac8d" d="M 0 0 
L 0 3 
" style="stroke: #808080"/>
      </defs>
      <g>
       <use xlink:href="#m42a460ac8d" x="16.613501" y="341.144078" style="fill: #808080; stroke: #808080"/>
      </g>
     </g>
     <g id="text_1">
      <!-- $\mathdefault{0.4}$ -->
      <g style="fill: #262626" transform="translate(7.2 357.930682)scale(0.150616 -0.150616)">
       <defs>
        <path id="STIXGeneral-Regular-30" d="M 3046 2112 
Q 3046 1683 2963 1302 
Q 2880 922 2717 602 
Q 2554 282 2266 96 
Q 1978 -90 1600 -90 
Q 1210 -90 915 108 
Q 621 307 461 640 
Q 301 973 227 1350 
Q 154 1728 154 2150 
Q 154 2746 301 3222 
Q 448 3699 790 4012 
Q 1133 4326 1626 4326 
Q 2253 4326 2649 3712 
Q 3046 3098 3046 2112 
z
M 2432 2080 
Q 2432 3091 2217 3625 
Q 2003 4160 1587 4160 
Q 1190 4160 979 3622 
Q 768 3085 768 2106 
Q 768 1120 979 598 
Q 1190 77 1600 77 
Q 2003 77 2217 598 
Q 2432 1120 2432 2080 
z
" transform="scale(0.015625)"/>
        <path id="STIXGeneral-Regular-2e" d="M 1158 275 
Q 1158 134 1052 32 
Q 947 -70 800 -70 
Q 653 -70 550 32 
Q 448 134 448 281 
Q 448 429 553 534 
Q 659 640 806 640 
Q 947 640 1052 531 
Q 1158 422 1158 275 
z
" transform="scale(0.015625)"/>
        <path id="STIXGeneral-Regular-34" d="M 3027 1069 
L 2368 1069 
L 2368 0 
L 1869 0 
L 1869 1069 
L 77 1069 
L 77 1478 
L 2086 4326 
L 2368 4326 
L 2368 1478 
L 3027 1478 
L 3027 1069 
z
M 1869 1478 
L 1869 3674 
L 333 1478 
L 1869 1478 
z
" transform="scale(0.015625)"/>
       </defs>
       <use xlink:href="#STIXGeneral-Regular-30" transform="translate(0 0.40625)"/>
       <use xlink:href="#STIXGeneral-Regular-2e" transform="translate(49.999985 0.40625)"/>
       <use xlink:href="#STIXGeneral-Regular-34" transform="translate(74.999969 0.40625)"/>
      </g>
     </g>
    </g>
    <g id="xtick_2">
     <g id="line2d_3">
      <path d="M 95.352432 341.144078 
L 95.352432 24.956118 
" clip-path="url(#pb879602876)" style="fill: none; stroke: #ffffff; stroke-width: 0.8; stroke-linecap: round"/>
     </g>
     <g id="line2d_4">
      <g>
       <use xlink:href="#m42a460ac8d" x="95.352432" y="341.144078" style="fill: #808080; stroke: #808080"/>
      </g>
     </g>
     <g id="text_2">
      <!-- $\mathdefault{0.6}$ -->
      <g style="fill: #262626" transform="translate(85.938931 357.930682)scale(0.150616 -0.150616)">
       <defs>
        <path id="STIXGeneral-Regular-36" d="M 2854 4378 
L 2867 4275 
Q 2112 4154 1606 3664 
Q 1101 3174 973 2451 
Q 1344 2739 1786 2739 
Q 2349 2739 2672 2380 
Q 2995 2022 2995 1402 
Q 2995 774 2669 378 
Q 2291 -90 1651 -90 
Q 870 -90 518 557 
Q 218 1107 218 1786 
Q 218 2835 915 3552 
Q 1312 3962 1731 4131 
Q 2150 4301 2854 4378 
z
M 2419 1203 
Q 2419 2445 1555 2445 
Q 1235 2445 1024 2275 
Q 813 2106 813 1702 
Q 813 954 1046 522 
Q 1280 90 1722 90 
Q 2061 90 2240 394 
Q 2419 698 2419 1203 
z
" transform="scale(0.015625)"/>
       </defs>
       <use xlink:href="#STIXGeneral-Regular-30" transform="translate(0 0.59375)"/>
       <use xlink:href="#STIXGeneral-Regular-2e" transform="translate(49.999985 0.59375)"/>
       <use xlink:href="#STIXGeneral-Regular-36" transform="translate(74.999969 0.59375)"/>
      </g>
     </g>
    </g>
    <g id="xtick_3">
     <g id="line2d_5">
      <path d="M 174.091363 341.144078 
L 174.091363 24.956118 
" clip-path="url(#pb879602876)" style="fill: none; stroke: #ffffff; stroke-width: 0.8; stroke-linecap: round"/>
     </g>
     <g id="line2d_6">
      <g>
       <use xlink:href="#m42a460ac8d" x="174.091363" y="341.144078" style="fill: #808080; stroke: #808080"/>
      </g>
     </g>
     <g id="text_3">
      <!-- $\mathdefault{0.8}$ -->
      <g style="fill: #262626" transform="translate(164.677862 357.930682)scale(0.150616 -0.150616)">
       <defs>
        <path id="STIXGeneral-Regular-38" d="M 2848 992 
Q 2848 499 2505 204 
Q 2163 -90 1587 -90 
Q 1050 -90 704 204 
Q 358 499 358 954 
Q 358 1293 524 1533 
Q 691 1773 1190 2125 
Q 710 2522 553 2765 
Q 397 3008 397 3328 
Q 397 3782 745 4054 
Q 1094 4326 1638 4326 
Q 2106 4326 2410 4060 
Q 2714 3795 2714 3411 
Q 2714 3059 2531 2848 
Q 2349 2637 1856 2374 
Q 2432 1990 2640 1689 
Q 2848 1389 2848 992 
z
M 2272 3411 
Q 2272 3744 2086 3945 
Q 1901 4147 1574 4147 
Q 1248 4147 1059 3977 
Q 870 3808 870 3513 
Q 870 3219 1059 2979 
Q 1248 2739 1670 2490 
Q 1997 2682 2134 2896 
Q 2272 3110 2272 3411 
z
M 1734 1741 
L 1357 1997 
Q 1075 1766 960 1545 
Q 845 1325 845 1011 
Q 845 576 1065 333 
Q 1286 90 1658 90 
Q 1971 90 2166 285 
Q 2362 480 2362 794 
Q 2362 1082 2214 1299 
Q 2067 1517 1734 1741 
z
" transform="scale(0.015625)"/>
       </defs>
       <use xlink:href="#STIXGeneral-Regular-30" transform="translate(0 0.40625)"/>
       <use xlink:href="#STIXGeneral-Regular-2e" transform="translate(49.999985 0.40625)"/>
       <use xlink:href="#STIXGeneral-Regular-38" transform="translate(74.999969 0.40625)"/>
      </g>
     </g>
    </g>
    <g id="xtick_4">
     <g id="line2d_7">
      <path d="M 252.830294 341.144078 
L 252.830294 24.956118 
" clip-path="url(#pb879602876)" style="fill: none; stroke: #ffffff; stroke-width: 0.8; stroke-linecap: round"/>
     </g>
     <g id="line2d_8">
      <g>
       <use xlink:href="#m42a460ac8d" x="252.830294" y="341.144078" style="fill: #808080; stroke: #808080"/>
      </g>
     </g>
     <g id="text_4">
      <!-- $\mathdefault{1.0}$ -->
      <g style="fill: #262626" transform="translate(243.416793 357.930682)scale(0.150616 -0.150616)">
       <defs>
        <path id="STIXGeneral-Regular-31" d="M 2522 0 
L 755 0 
L 755 96 
Q 1107 115 1235 227 
Q 1363 339 1363 608 
L 1363 3482 
Q 1363 3795 1171 3795 
Q 1082 3795 883 3718 
L 710 3654 
L 710 3744 
L 1856 4326 
L 1914 4307 
L 1914 486 
Q 1914 275 2042 185 
Q 2170 96 2522 96 
L 2522 0 
z
" transform="scale(0.015625)"/>
       </defs>
       <use xlink:href="#STIXGeneral-Regular-31" transform="translate(0 0.40625)"/>
       <use xlink:href="#STIXGeneral-Regular-2e" transform="translate(49.999985 0.40625)"/>
       <use xlink:href="#STIXGeneral-Regular-30" transform="translate(74.999969 0.40625)"/>
      </g>
     </g>
    </g>
    <g id="xtick_5">
     <g id="line2d_9">
      <path d="M 331.569226 341.144078 
L 331.569226 24.956118 
" clip-path="url(#pb879602876)" style="fill: none; stroke: #ffffff; stroke-width: 0.8; stroke-linecap: round"/>
     </g>
     <g id="line2d_10">
      <g>
       <use xlink:href="#m42a460ac8d" x="331.569226" y="341.144078" style="fill: #808080; stroke: #808080"/>
      </g>
     </g>
     <g id="text_5">
      <!-- $\mathdefault{1.2}$ -->
      <g style="fill: #262626" transform="translate(322.155724 357.930682)scale(0.150616 -0.150616)">
       <defs>
        <path id="STIXGeneral-Regular-32" d="M 3034 877 
L 2688 0 
L 186 0 
L 186 77 
L 1325 1286 
Q 1773 1754 1965 2144 
Q 2157 2534 2157 2950 
Q 2157 3379 1920 3616 
Q 1683 3853 1267 3853 
Q 922 3853 720 3673 
Q 518 3494 326 3021 
L 192 3053 
Q 301 3648 630 3987 
Q 960 4326 1523 4326 
Q 2054 4326 2380 4006 
Q 2707 3686 2707 3200 
Q 2707 2477 1888 1613 
L 832 486 
L 2330 486 
Q 2541 486 2665 569 
Q 2790 653 2944 915 
L 3034 877 
z
" transform="scale(0.015625)"/>
       </defs>
       <use xlink:href="#STIXGeneral-Regular-31" transform="translate(0 0.40625)"/>
       <use xlink:href="#STIXGeneral-Regular-2e" transform="translate(49.999985 0.40625)"/>
       <use xlink:href="#STIXGeneral-Regular-32" transform="translate(74.999969 0.40625)"/>
      </g>
     </g>
    </g>
    <g id="xtick_6">
     <g id="line2d_11">
      <path d="M 410.308157 341.144078 
L 410.308157 24.956118 
" clip-path="url(#pb879602876)" style="fill: none; stroke: #ffffff; stroke-width: 0.8; stroke-linecap: round"/>
     </g>
     <g id="line2d_12">
      <g>
       <use xlink:href="#m42a460ac8d" x="410.308157" y="341.144078" style="fill: #808080; stroke: #808080"/>
      </g>
     </g>
     <g id="text_6">
      <!-- $\mathdefault{1.4}$ -->
      <g style="fill: #262626" transform="translate(400.894655 357.930682)scale(0.150616 -0.150616)">
       <use xlink:href="#STIXGeneral-Regular-31" transform="translate(0 0.40625)"/>
       <use xlink:href="#STIXGeneral-Regular-2e" transform="translate(49.999985 0.40625)"/>
       <use xlink:href="#STIXGeneral-Regular-34" transform="translate(74.999969 0.40625)"/>
      </g>
     </g>
    </g>
    <g id="xtick_7">
     <g id="line2d_13">
      <path d="M 489.047088 341.144078 
L 489.047088 24.956118 
" clip-path="url(#pb879602876)" style="fill: none; stroke: #ffffff; stroke-width: 0.8; stroke-linecap: round"/>
     </g>
     <g id="line2d_14">
      <g>
       <use xlink:href="#m42a460ac8d" x="489.047088" y="341.144078" style="fill: #808080; stroke: #808080"/>
      </g>
     </g>
     <g id="text_7">
      <!-- $\mathdefault{1.6}$ -->
      <g style="fill: #262626" transform="translate(479.633587 357.930682)scale(0.150616 -0.150616)">
       <use xlink:href="#STIXGeneral-Regular-31" transform="translate(0 0.59375)"/>
       <use xlink:href="#STIXGeneral-Regular-2e" transform="translate(49.999985 0.59375)"/>
       <use xlink:href="#STIXGeneral-Regular-36" transform="translate(74.999969 0.59375)"/>
      </g>
     </g>
    </g>
    <g id="xtick_8">
     <g id="line2d_15">
      <path d="M 567.786019 341.144078 
L 567.786019 24.956118 
" clip-path="url(#pb879602876)" style="fill: none; stroke: #ffffff; stroke-width: 0.8; stroke-linecap: round"/>
     </g>
     <g id="line2d_16">
      <g>
       <use xlink:href="#m42a460ac8d" x="567.786019" y="341.144078" style="fill: #808080; stroke: #808080"/>
      </g>
     </g>
     <g id="text_8">
      <!-- $\mathdefault{1.8}$ -->
      <g style="fill: #262626" transform="translate(558.372518 357.930682)scale(0.150616 -0.150616)">
       <use xlink:href="#STIXGeneral-Regular-31" transform="translate(0 0.40625)"/>
       <use xlink:href="#STIXGeneral-Regular-2e" transform="translate(49.999985 0.40625)"/>
       <use xlink:href="#STIXGeneral-Regular-38" transform="translate(74.999969 0.40625)"/>
      </g>
     </g>
    </g>
   </g>
   <g id="matplotlib.axis_2"/>
   <g id="PolyCollection_1">
    <defs>
     <path id="md20b6342a1" d="M 73.274561 -41.627622 
L 73.274561 -46.806741 
L 74.098477 -46.803856 
L 74.922394 -46.798219 
L 75.74631 -46.790087 
L 76.570227 -46.779838 
L 77.394143 -46.767947 
L 78.218059 -46.749996 
L 79.041976 -46.737485 
L 79.865892 -46.726115 
L 80.689809 -46.716594 
L 81.513725 -46.714611 
L 82.337641 -46.70997 
L 83.161558 -46.714362 
L 83.985474 -46.723546 
L 84.809391 -46.745397 
L 85.633307 -46.775744 
L 86.457223 -46.797057 
L 87.28114 -46.831559 
L 88.105056 -46.868357 
L 88.928973 -46.917296 
L 89.752889 -46.972261 
L 90.576806 -47.028139 
L 91.400722 -47.10168 
L 92.224638 -47.187834 
L 93.048555 -47.281738 
L 93.872471 -47.377433 
L 94.696388 -47.479873 
L 95.520304 -47.582981 
L 96.34422 -47.697706 
L 97.168137 -47.81922 
L 97.992053 -47.953868 
L 98.81597 -48.085053 
L 99.639886 -48.235215 
L 100.463802 -48.395216 
L 101.287719 -48.553819 
L 102.111635 -48.727735 
L 102.935552 -48.925127 
L 103.759468 -49.131392 
L 104.583385 -49.352853 
L 105.407301 -49.578716 
L 106.231217 -49.832135 
L 107.055134 -50.098435 
L 107.87905 -50.39592 
L 108.702967 -50.698939 
L 109.526883 -51.029318 
L 110.350799 -51.387923 
L 111.174716 -51.759616 
L 111.998632 -52.161918 
L 112.822549 -52.590234 
L 113.646465 -53.032581 
L 114.470381 -53.533989 
L 115.294298 -54.051926 
L 116.118214 -54.579266 
L 116.942131 -55.14245 
L 117.766047 -55.72994 
L 118.589964 -56.341105 
L 119.41388 -56.975167 
L 120.237796 -57.631215 
L 121.061713 -58.308234 
L 121.885629 -59.017319 
L 122.709546 -59.729489 
L 123.533462 -60.458308 
L 124.357378 -61.232851 
L 125.181295 -61.991277 
L 126.005211 -62.810699 
L 126.829128 -63.62099 
L 127.653044 -64.44025 
L 128.47696 -65.272645 
L 129.300877 -66.11743 
L 130.124793 -66.986118 
L 130.94871 -67.886871 
L 131.772626 -68.780964 
L 132.596543 -69.669949 
L 133.420459 -70.586432 
L 134.244375 -71.510527 
L 135.068292 -72.4715 
L 135.892208 -73.424746 
L 136.716125 -74.39747 
L 137.540041 -75.37394 
L 138.363957 -76.394561 
L 139.187874 -77.42217 
L 140.01179 -78.473528 
L 140.835707 -79.544617 
L 141.659623 -80.629231 
L 142.483539 -81.720949 
L 143.307456 -82.830058 
L 144.131372 -83.950669 
L 144.955289 -85.094837 
L 145.779205 -86.281892 
L 146.603122 -87.480365 
L 147.427038 -88.706466 
L 148.250954 -89.966562 
L 149.074871 -91.232983 
L 149.898787 -92.532722 
L 150.722704 -93.85597 
L 151.54662 -95.214968 
L 152.370536 -96.575753 
L 153.194453 -97.957711 
L 154.018369 -99.378474 
L 154.842286 -100.798557 
L 155.666202 -102.242883 
L 156.490118 -103.729848 
L 157.314035 -105.227072 
L 158.137951 -106.720533 
L 158.961868 -108.265155 
L 159.785784 -109.794097 
L 160.6097 -111.372202 
L 161.433617 -112.938716 
L 162.257533 -114.530458 
L 163.08145 -116.120462 
L 163.905366 -117.747678 
L 164.729283 -119.400464 
L 165.553199 -121.055511 
L 166.377115 -122.728533 
L 167.201032 -124.407286 
L 168.024948 -126.108761 
L 168.848865 -127.835499 
L 169.672781 -129.555117 
L 170.496697 -131.265531 
L 171.320614 -133.005479 
L 172.14453 -134.740677 
L 172.968447 -136.520982 
L 173.792363 -138.309964 
L 174.616279 -140.125255 
L 175.440196 -141.940595 
L 176.264112 -143.747896 
L 177.088029 -145.601884 
L 177.911945 -147.460944 
L 178.735862 -149.355527 
L 179.559778 -151.250706 
L 180.383694 -153.147929 
L 181.207611 -155.05974 
L 182.031527 -156.99851 
L 182.855444 -158.934204 
L 183.67936 -160.88415 
L 184.503276 -162.835735 
L 185.327193 -164.799122 
L 186.151109 -166.774446 
L 186.975026 -168.754609 
L 187.798942 -170.759437 
L 188.622858 -172.756245 
L 189.446775 -174.813756 
L 190.270691 -176.808861 
L 191.094608 -178.824247 
L 191.918524 -180.805502 
L 192.742441 -182.814621 
L 193.566357 -184.799144 
L 194.390273 -186.766211 
L 195.21419 -188.717342 
L 196.038106 -190.694044 
L 196.862023 -192.666886 
L 197.685939 -194.612473 
L 198.509855 -196.508784 
L 199.333772 -198.433187 
L 200.157688 -200.306107 
L 200.981605 -202.203669 
L 201.805521 -204.046563 
L 202.629437 -205.924584 
L 203.453354 -207.769038 
L 204.27727 -209.536163 
L 205.101187 -211.374677 
L 205.925103 -213.205615 
L 206.74902 -215.042717 
L 207.572936 -216.854873 
L 208.396852 -218.660615 
L 209.220769 -220.454449 
L 210.044685 -222.324882 
L 210.868602 -224.256962 
L 211.692518 -226.203993 
L 212.516434 -228.147446 
L 213.340351 -230.123759 
L 214.164267 -232.134571 
L 214.988184 -234.173673 
L 215.8121 -236.326428 
L 216.636016 -238.479558 
L 217.459933 -240.69876 
L 218.283849 -242.961967 
L 219.107766 -245.27417 
L 219.931682 -247.655354 
L 220.755599 -250.128558 
L 221.579515 -252.649802 
L 222.403431 -255.227222 
L 223.227348 -257.848466 
L 224.051264 -260.459837 
L 224.875181 -263.09519 
L 225.699097 -265.756313 
L 226.523013 -268.480444 
L 227.34693 -271.224947 
L 228.170846 -273.945207 
L 228.994763 -276.671088 
L 229.818679 -279.40379 
L 230.642595 -282.141631 
L 231.466512 -284.839924 
L 232.290428 -287.497368 
L 233.114345 -290.127464 
L 233.938261 -292.703987 
L 234.762178 -295.182017 
L 235.586094 -297.626106 
L 236.41001 -300.023525 
L 237.233927 -302.35114 
L 238.057843 -304.591733 
L 238.88176 -306.73803 
L 239.705676 -308.838675 
L 240.529592 -310.847156 
L 241.353509 -312.760303 
L 242.177425 -314.588402 
L 243.001342 -316.296872 
L 243.825258 -317.918538 
L 244.649174 -319.433748 
L 245.473091 -320.837785 
L 246.297007 -322.158608 
L 247.120924 -323.324393 
L 247.94484 -324.418424 
L 248.768757 -325.391604 
L 249.592673 -326.271847 
L 250.416589 -327.037748 
L 251.240506 -327.673245 
L 252.064422 -328.191504 
L 252.888339 -328.543959 
L 253.712255 -328.81703 
L 254.536171 -329.018849 
L 255.360088 -329.071222 
L 256.184004 -329.009896 
L 257.007921 -328.852424 
L 257.831837 -328.6263 
L 258.655753 -328.324382 
L 259.47967 -327.891739 
L 260.303586 -327.366206 
L 261.127503 -326.76873 
L 261.951419 -326.128223 
L 262.775336 -325.410812 
L 263.599252 -324.647676 
L 264.423168 -323.864944 
L 265.247085 -323.065192 
L 266.071001 -322.213667 
L 266.894918 -321.394445 
L 267.718834 -320.505609 
L 268.54275 -319.681767 
L 269.366667 -318.86682 
L 270.190583 -318.105551 
L 271.0145 -317.312284 
L 271.838416 -316.581319 
L 272.662332 -315.893162 
L 273.486249 -315.268368 
L 274.310165 -314.656234 
L 275.134082 -314.113171 
L 275.957998 -313.639041 
L 276.781914 -313.219231 
L 277.605831 -312.831137 
L 278.429747 -312.50204 
L 279.253664 -312.198862 
L 280.07758 -311.976795 
L 280.901497 -311.73136 
L 281.725413 -311.561263 
L 282.549329 -311.397888 
L 283.373246 -311.208513 
L 284.197162 -311.04682 
L 285.021079 -310.841248 
L 285.844995 -310.68589 
L 286.668911 -310.532666 
L 287.492828 -310.32378 
L 288.316744 -310.022695 
L 289.140661 -309.688607 
L 289.964577 -309.288261 
L 290.788493 -308.849498 
L 291.61241 -308.345518 
L 292.436326 -307.779476 
L 293.260243 -307.179934 
L 294.084159 -306.424473 
L 294.908076 -305.576743 
L 295.731992 -304.642186 
L 296.555908 -303.599633 
L 297.379825 -302.478719 
L 298.203741 -301.228201 
L 299.027658 -299.867617 
L 299.851574 -298.398795 
L 300.67549 -296.806422 
L 301.499407 -295.130234 
L 302.323323 -293.368864 
L 303.14724 -291.505758 
L 303.971156 -289.536929 
L 304.795072 -287.398121 
L 305.618989 -285.188094 
L 306.442905 -282.895688 
L 307.266822 -280.519009 
L 308.090738 -278.052469 
L 308.914655 -275.478915 
L 309.738571 -272.859616 
L 310.562487 -270.162008 
L 311.386404 -267.389383 
L 312.21032 -264.580302 
L 313.034237 -261.705607 
L 313.858153 -258.793449 
L 314.682069 -255.815484 
L 315.505986 -252.767422 
L 316.329902 -249.717939 
L 317.153819 -246.650533 
L 317.977735 -243.537522 
L 318.801651 -240.401229 
L 319.625568 -237.243195 
L 320.449484 -234.092411 
L 321.273401 -230.949059 
L 322.097317 -227.815319 
L 322.921234 -224.679878 
L 323.74515 -221.567069 
L 324.569066 -218.440804 
L 325.392983 -215.383421 
L 326.216899 -212.339921 
L 327.040816 -209.34331 
L 327.864732 -206.344447 
L 328.688648 -203.427637 
L 329.512565 -200.537061 
L 330.336481 -197.732571 
L 331.160398 -195.021017 
L 331.984314 -192.333631 
L 332.80823 -189.707189 
L 333.632147 -187.163102 
L 334.456063 -184.72517 
L 335.27998 -182.326223 
L 336.103896 -180.011408 
L 336.927813 -177.770878 
L 337.751729 -175.651734 
L 338.575645 -173.616896 
L 339.399562 -171.668982 
L 340.223478 -169.767967 
L 341.047395 -167.949389 
L 341.871311 -166.216205 
L 342.695227 -164.489821 
L 343.519144 -162.829419 
L 344.34306 -161.242335 
L 345.166977 -159.667055 
L 345.990893 -158.16009 
L 346.814809 -156.686939 
L 347.638726 -155.229946 
L 348.462642 -153.793528 
L 349.286559 -152.375389 
L 350.110475 -150.93861 
L 350.934392 -149.500435 
L 351.758308 -148.019349 
L 352.582224 -146.502862 
L 353.406141 -144.952709 
L 354.230057 -143.365191 
L 355.053974 -141.764977 
L 355.87789 -140.10062 
L 356.701806 -138.404417 
L 357.525723 -136.675681 
L 358.349639 -134.882986 
L 359.173556 -133.050425 
L 359.997472 -131.203035 
L 360.821388 -129.333704 
L 361.645305 -127.411749 
L 362.469221 -125.450254 
L 363.293138 -123.496156 
L 364.117054 -121.478419 
L 364.940971 -119.436074 
L 365.764887 -117.41721 
L 366.588803 -115.411274 
L 367.41272 -113.381786 
L 368.236636 -111.396917 
L 369.060553 -109.431682 
L 369.884469 -107.46931 
L 370.708385 -105.55572 
L 371.532302 -103.617623 
L 372.356218 -101.749119 
L 373.180135 -99.948508 
L 374.004051 -98.18359 
L 374.827967 -96.46899 
L 375.651884 -94.786786 
L 376.4758 -93.173224 
L 377.299717 -91.593165 
L 378.123633 -90.075495 
L 378.94755 -88.6283 
L 379.771466 -87.214962 
L 380.595382 -85.869033 
L 381.419299 -84.581395 
L 382.243215 -83.339976 
L 383.067132 -82.164227 
L 383.891048 -81.024556 
L 384.714964 -79.936055 
L 385.538881 -78.881641 
L 386.362797 -77.850865 
L 387.186714 -76.893259 
L 388.01063 -75.95484 
L 388.834546 -75.050762 
L 389.658463 -74.192811 
L 390.482379 -73.335267 
L 391.306296 -72.530016 
L 392.130212 -71.714314 
L 392.954128 -70.942318 
L 393.778045 -70.187201 
L 394.601961 -69.450569 
L 395.425878 -68.699561 
L 396.249794 -67.971969 
L 397.073711 -67.258619 
L 397.897627 -66.571824 
L 398.721543 -65.856832 
L 399.54546 -65.168654 
L 400.369376 -64.472511 
L 401.193293 -63.794915 
L 402.017209 -63.117755 
L 402.841125 -62.441362 
L 403.665042 -61.767327 
L 404.488958 -61.086318 
L 405.312875 -60.419757 
L 406.136791 -59.761344 
L 406.960707 -59.096218 
L 407.784624 -58.453476 
L 408.60854 -57.801408 
L 409.432457 -57.158139 
L 410.256373 -56.539594 
L 411.08029 -55.914128 
L 411.904206 -55.310927 
L 412.728122 -54.699194 
L 413.552039 -54.129805 
L 414.375955 -53.568761 
L 415.199872 -53.02222 
L 416.023788 -52.486278 
L 416.847704 -51.967805 
L 417.671621 -51.467483 
L 418.495537 -50.990879 
L 419.319454 -50.532579 
L 420.14337 -50.073234 
L 420.967286 -49.661806 
L 421.791203 -49.268411 
L 422.615119 -48.888529 
L 423.439036 -48.533352 
L 424.262952 -48.19697 
L 425.086869 -47.879433 
L 425.910785 -47.570707 
L 426.734701 -47.282411 
L 427.558618 -47.003949 
L 428.382534 -46.766353 
L 429.206451 -46.539927 
L 430.030367 -46.325172 
L 430.854283 -46.137246 
L 431.6782 -45.953439 
L 432.502116 -45.794872 
L 433.326033 -45.648662 
L 434.149949 -45.509071 
L 434.973865 -45.386155 
L 435.797782 -45.25803 
L 436.621698 -45.156456 
L 437.445615 -45.052332 
L 438.269531 -44.951625 
L 439.093448 -44.868985 
L 439.917364 -44.791264 
L 440.74128 -44.717536 
L 441.565197 -44.646912 
L 442.389113 -44.58352 
L 443.21303 -44.515681 
L 444.036946 -44.453711 
L 444.860862 -44.391016 
L 445.684779 -44.327151 
L 446.508695 -44.251777 
L 447.332612 -44.186352 
L 448.156528 -44.118485 
L 448.980444 -44.038102 
L 449.804361 -43.966924 
L 450.628277 -43.887849 
L 451.452194 -43.811898 
L 452.27611 -43.733194 
L 453.100027 -43.65201 
L 453.923943 -43.568666 
L 454.747859 -43.478546 
L 455.571776 -43.394053 
L 456.395692 -43.315667 
L 457.219609 -43.231937 
L 458.043525 -43.143434 
L 458.867441 -43.061619 
L 459.691358 -42.980993 
L 460.515274 -42.902143 
L 461.339191 -42.825639 
L 462.163107 -42.752023 
L 462.987023 -42.681809 
L 463.81094 -42.610501 
L 464.634856 -42.549427 
L 465.458773 -42.492913 
L 466.282689 -42.44134 
L 467.106606 -42.395037 
L 467.930522 -42.35428 
L 468.754438 -42.319296 
L 469.578355 -42.290255 
L 470.402271 -42.267273 
L 471.226188 -42.245436 
L 472.050104 -42.235637 
L 472.87402 -42.231758 
L 473.697937 -42.233719 
L 474.521853 -42.241385 
L 475.34577 -42.254563 
L 476.169686 -42.273005 
L 476.993602 -42.296406 
L 477.817519 -42.32441 
L 478.641435 -42.35661 
L 479.465352 -42.392551 
L 480.289268 -42.431733 
L 481.113185 -42.473617 
L 481.937101 -42.512651 
L 482.761017 -42.559117 
L 483.584934 -42.606316 
L 484.40885 -42.653626 
L 485.232767 -42.700418 
L 486.056683 -42.74108 
L 486.880599 -42.785871 
L 487.704516 -42.828109 
L 488.528432 -42.867229 
L 489.352349 -42.902703 
L 490.176265 -42.934038 
L 491.000181 -42.960796 
L 491.824098 -42.977615 
L 492.648014 -42.995064 
L 493.471931 -43.006821 
L 494.295847 -43.012738 
L 494.295847 -41.627622 
L 494.295847 -41.627622 
L 493.471931 -41.627622 
L 492.648014 -41.627622 
L 491.824098 -41.627622 
L 491.000181 -41.627622 
L 490.176265 -41.627622 
L 489.352349 -41.627622 
L 488.528432 -41.627622 
L 487.704516 -41.627622 
L 486.880599 -41.627622 
L 486.056683 -41.627622 
L 485.232767 -41.627622 
L 484.40885 -41.627622 
L 483.584934 -41.627622 
L 482.761017 -41.627622 
L 481.937101 -41.627622 
L 481.113185 -41.627622 
L 480.289268 -41.627622 
L 479.465352 -41.627622 
L 478.641435 -41.627622 
L 477.817519 -41.627622 
L 476.993602 -41.627622 
L 476.169686 -41.627622 
L 475.34577 -41.627622 
L 474.521853 -41.627622 
L 473.697937 -41.627622 
L 472.87402 -41.627622 
L 472.050104 -41.627622 
L 471.226188 -41.627622 
L 470.402271 -41.627622 
L 469.578355 -41.627622 
L 468.754438 -41.627622 
L 467.930522 -41.627622 
L 467.106606 -41.627622 
L 466.282689 -41.627622 
L 465.458773 -41.627622 
L 464.634856 -41.627622 
L 463.81094 -41.627622 
L 462.987023 -41.627622 
L 462.163107 -41.627622 
L 461.339191 -41.627622 
L 460.515274 -41.627622 
L 459.691358 -41.627622 
L 458.867441 -41.627622 
L 458.043525 -41.627622 
L 457.219609 -41.627622 
L 456.395692 -41.627622 
L 455.571776 -41.627622 
L 454.747859 -41.627622 
L 453.923943 -41.627622 
L 453.100027 -41.627622 
L 452.27611 -41.627622 
L 451.452194 -41.627622 
L 450.628277 -41.627622 
L 449.804361 -41.627622 
L 448.980444 -41.627622 
L 448.156528 -41.627622 
L 447.332612 -41.627622 
L 446.508695 -41.627622 
L 445.684779 -41.627622 
L 444.860862 -41.627622 
L 444.036946 -41.627622 
L 443.21303 -41.627622 
L 442.389113 -41.627622 
L 441.565197 -41.627622 
L 440.74128 -41.627622 
L 439.917364 -41.627622 
L 439.093448 -41.627622 
L 438.269531 -41.627622 
L 437.445615 -41.627622 
L 436.621698 -41.627622 
L 435.797782 -41.627622 
L 434.973865 -41.627622 
L 434.149949 -41.627622 
L 433.326033 -41.627622 
L 432.502116 -41.627622 
L 431.6782 -41.627622 
L 430.854283 -41.627622 
L 430.030367 -41.627622 
L 429.206451 -41.627622 
L 428.382534 -41.627622 
L 427.558618 -41.627622 
L 426.734701 -41.627622 
L 425.910785 -41.627622 
L 425.086869 -41.627622 
L 424.262952 -41.627622 
L 423.439036 -41.627622 
L 422.615119 -41.627622 
L 421.791203 -41.627622 
L 420.967286 -41.627622 
L 420.14337 -41.627622 
L 419.319454 -41.627622 
L 418.495537 -41.627622 
L 417.671621 -41.627622 
L 416.847704 -41.627622 
L 416.023788 -41.627622 
L 415.199872 -41.627622 
L 414.375955 -41.627622 
L 413.552039 -41.627622 
L 412.728122 -41.627622 
L 411.904206 -41.627622 
L 411.08029 -41.627622 
L 410.256373 -41.627622 
L 409.432457 -41.627622 
L 408.60854 -41.627622 
L 407.784624 -41.627622 
L 406.960707 -41.627622 
L 406.136791 -41.627622 
L 405.312875 -41.627622 
L 404.488958 -41.627622 
L 403.665042 -41.627622 
L 402.841125 -41.627622 
L 402.017209 -41.627622 
L 401.193293 -41.627622 
L 400.369376 -41.627622 
L 399.54546 -41.627622 
L 398.721543 -41.627622 
L 397.897627 -41.627622 
L 397.073711 -41.627622 
L 396.249794 -41.627622 
L 395.425878 -41.627622 
L 394.601961 -41.627622 
L 393.778045 -41.627622 
L 392.954128 -41.627622 
L 392.130212 -41.627622 
L 391.306296 -41.627622 
L 390.482379 -41.627622 
L 389.658463 -41.627622 
L 388.834546 -41.627622 
L 388.01063 -41.627622 
L 387.186714 -41.627622 
L 386.362797 -41.627622 
L 385.538881 -41.627622 
L 384.714964 -41.627622 
L 383.891048 -41.627622 
L 383.067132 -41.627622 
L 382.243215 -41.627622 
L 381.419299 -41.627622 
L 380.595382 -41.627622 
L 379.771466 -41.627622 
L 378.94755 -41.627622 
L 378.123633 -41.627622 
L 377.299717 -41.627622 
L 376.4758 -41.627622 
L 375.651884 -41.627622 
L 374.827967 -41.627622 
L 374.004051 -41.627622 
L 373.180135 -41.627622 
L 372.356218 -41.627622 
L 371.532302 -41.627622 
L 370.708385 -41.627622 
L 369.884469 -41.627622 
L 369.060553 -41.627622 
L 368.236636 -41.627622 
L 367.41272 -41.627622 
L 366.588803 -41.627622 
L 365.764887 -41.627622 
L 364.940971 -41.627622 
L 364.117054 -41.627622 
L 363.293138 -41.627622 
L 362.469221 -41.627622 
L 361.645305 -41.627622 
L 360.821388 -41.627622 
L 359.997472 -41.627622 
L 359.173556 -41.627622 
L 358.349639 -41.627622 
L 357.525723 -41.627622 
L 356.701806 -41.627622 
L 355.87789 -41.627622 
L 355.053974 -41.627622 
L 354.230057 -41.627622 
L 353.406141 -41.627622 
L 352.582224 -41.627622 
L 351.758308 -41.627622 
L 350.934392 -41.627622 
L 350.110475 -41.627622 
L 349.286559 -41.627622 
L 348.462642 -41.627622 
L 347.638726 -41.627622 
L 346.814809 -41.627622 
L 345.990893 -41.627622 
L 345.166977 -41.627622 
L 344.34306 -41.627622 
L 343.519144 -41.627622 
L 342.695227 -41.627622 
L 341.871311 -41.627622 
L 341.047395 -41.627622 
L 340.223478 -41.627622 
L 339.399562 -41.627622 
L 338.575645 -41.627622 
L 337.751729 -41.627622 
L 336.927813 -41.627622 
L 336.103896 -41.627622 
L 335.27998 -41.627622 
L 334.456063 -41.627622 
L 333.632147 -41.627622 
L 332.80823 -41.627622 
L 331.984314 -41.627622 
L 331.160398 -41.627622 
L 330.336481 -41.627622 
L 329.512565 -41.627622 
L 328.688648 -41.627622 
L 327.864732 -41.627622 
L 327.040816 -41.627622 
L 326.216899 -41.627622 
L 325.392983 -41.627622 
L 324.569066 -41.627622 
L 323.74515 -41.627622 
L 322.921234 -41.627622 
L 322.097317 -41.627622 
L 321.273401 -41.627622 
L 320.449484 -41.627622 
L 319.625568 -41.627622 
L 318.801651 -41.627622 
L 317.977735 -41.627622 
L 317.153819 -41.627622 
L 316.329902 -41.627622 
L 315.505986 -41.627622 
L 314.682069 -41.627622 
L 313.858153 -41.627622 
L 313.034237 -41.627622 
L 312.21032 -41.627622 
L 311.386404 -41.627622 
L 310.562487 -41.627622 
L 309.738571 -41.627622 
L 308.914655 -41.627622 
L 308.090738 -41.627622 
L 307.266822 -41.627622 
L 306.442905 -41.627622 
L 305.618989 -41.627622 
L 304.795072 -41.627622 
L 303.971156 -41.627622 
L 303.14724 -41.627622 
L 302.323323 -41.627622 
L 301.499407 -41.627622 
L 300.67549 -41.627622 
L 299.851574 -41.627622 
L 299.027658 -41.627622 
L 298.203741 -41.627622 
L 297.379825 -41.627622 
L 296.555908 -41.627622 
L 295.731992 -41.627622 
L 294.908076 -41.627622 
L 294.084159 -41.627622 
L 293.260243 -41.627622 
L 292.436326 -41.627622 
L 291.61241 -41.627622 
L 290.788493 -41.627622 
L 289.964577 -41.627622 
L 289.140661 -41.627622 
L 288.316744 -41.627622 
L 287.492828 -41.627622 
L 286.668911 -41.627622 
L 285.844995 -41.627622 
L 285.021079 -41.627622 
L 284.197162 -41.627622 
L 283.373246 -41.627622 
L 282.549329 -41.627622 
L 281.725413 -41.627622 
L 280.901497 -41.627622 
L 280.07758 -41.627622 
L 279.253664 -41.627622 
L 278.429747 -41.627622 
L 277.605831 -41.627622 
L 276.781914 -41.627622 
L 275.957998 -41.627622 
L 275.134082 -41.627622 
L 274.310165 -41.627622 
L 273.486249 -41.627622 
L 272.662332 -41.627622 
L 271.838416 -41.627622 
L 271.0145 -41.627622 
L 270.190583 -41.627622 
L 269.366667 -41.627622 
L 268.54275 -41.627622 
L 267.718834 -41.627622 
L 266.894918 -41.627622 
L 266.071001 -41.627622 
L 265.247085 -41.627622 
L 264.423168 -41.627622 
L 263.599252 -41.627622 
L 262.775336 -41.627622 
L 261.951419 -41.627622 
L 261.127503 -41.627622 
L 260.303586 -41.627622 
L 259.47967 -41.627622 
L 258.655753 -41.627622 
L 257.831837 -41.627622 
L 257.007921 -41.627622 
L 256.184004 -41.627622 
L 255.360088 -41.627622 
L 254.536171 -41.627622 
L 253.712255 -41.627622 
L 252.888339 -41.627622 
L 252.064422 -41.627622 
L 251.240506 -41.627622 
L 250.416589 -41.627622 
L 249.592673 -41.627622 
L 248.768757 -41.627622 
L 247.94484 -41.627622 
L 247.120924 -41.627622 
L 246.297007 -41.627622 
L 245.473091 -41.627622 
L 244.649174 -41.627622 
L 243.825258 -41.627622 
L 243.001342 -41.627622 
L 242.177425 -41.627622 
L 241.353509 -41.627622 
L 240.529592 -41.627622 
L 239.705676 -41.627622 
L 238.88176 -41.627622 
L 238.057843 -41.627622 
L 237.233927 -41.627622 
L 236.41001 -41.627622 
L 235.586094 -41.627622 
L 234.762178 -41.627622 
L 233.938261 -41.627622 
L 233.114345 -41.627622 
L 232.290428 -41.627622 
L 231.466512 -41.627622 
L 230.642595 -41.627622 
L 229.818679 -41.627622 
L 228.994763 -41.627622 
L 228.170846 -41.627622 
L 227.34693 -41.627622 
L 226.523013 -41.627622 
L 225.699097 -41.627622 
L 224.875181 -41.627622 
L 224.051264 -41.627622 
L 223.227348 -41.627622 
L 222.403431 -41.627622 
L 221.579515 -41.627622 
L 220.755599 -41.627622 
L 219.931682 -41.627622 
L 219.107766 -41.627622 
L 218.283849 -41.627622 
L 217.459933 -41.627622 
L 216.636016 -41.627622 
L 215.8121 -41.627622 
L 214.988184 -41.627622 
L 214.164267 -41.627622 
L 213.340351 -41.627622 
L 212.516434 -41.627622 
L 211.692518 -41.627622 
L 210.868602 -41.627622 
L 210.044685 -41.627622 
L 209.220769 -41.627622 
L 208.396852 -41.627622 
L 207.572936 -41.627622 
L 206.74902 -41.627622 
L 205.925103 -41.627622 
L 205.101187 -41.627622 
L 204.27727 -41.627622 
L 203.453354 -41.627622 
L 202.629437 -41.627622 
L 201.805521 -41.627622 
L 200.981605 -41.627622 
L 200.157688 -41.627622 
L 199.333772 -41.627622 
L 198.509855 -41.627622 
L 197.685939 -41.627622 
L 196.862023 -41.627622 
L 196.038106 -41.627622 
L 195.21419 -41.627622 
L 194.390273 -41.627622 
L 193.566357 -41.627622 
L 192.742441 -41.627622 
L 191.918524 -41.627622 
L 191.094608 -41.627622 
L 190.270691 -41.627622 
L 189.446775 -41.627622 
L 188.622858 -41.627622 
L 187.798942 -41.627622 
L 186.975026 -41.627622 
L 186.151109 -41.627622 
L 185.327193 -41.627622 
L 184.503276 -41.627622 
L 183.67936 -41.627622 
L 182.855444 -41.627622 
L 182.031527 -41.627622 
L 181.207611 -41.627622 
L 180.383694 -41.627622 
L 179.559778 -41.627622 
L 178.735862 -41.627622 
L 177.911945 -41.627622 
L 177.088029 -41.627622 
L 176.264112 -41.627622 
L 175.440196 -41.627622 
L 174.616279 -41.627622 
L 173.792363 -41.627622 
L 172.968447 -41.627622 
L 172.14453 -41.627622 
L 171.320614 -41.627622 
L 170.496697 -41.627622 
L 169.672781 -41.627622 
L 168.848865 -41.627622 
L 168.024948 -41.627622 
L 167.201032 -41.627622 
L 166.377115 -41.627622 
L 165.553199 -41.627622 
L 164.729283 -41.627622 
L 163.905366 -41.627622 
L 163.08145 -41.627622 
L 162.257533 -41.627622 
L 161.433617 -41.627622 
L 160.6097 -41.627622 
L 159.785784 -41.627622 
L 158.961868 -41.627622 
L 158.137951 -41.627622 
L 157.314035 -41.627622 
L 156.490118 -41.627622 
L 155.666202 -41.627622 
L 154.842286 -41.627622 
L 154.018369 -41.627622 
L 153.194453 -41.627622 
L 152.370536 -41.627622 
L 151.54662 -41.627622 
L 150.722704 -41.627622 
L 149.898787 -41.627622 
L 149.074871 -41.627622 
L 148.250954 -41.627622 
L 147.427038 -41.627622 
L 146.603122 -41.627622 
L 145.779205 -41.627622 
L 144.955289 -41.627622 
L 144.131372 -41.627622 
L 143.307456 -41.627622 
L 142.483539 -41.627622 
L 141.659623 -41.627622 
L 140.835707 -41.627622 
L 140.01179 -41.627622 
L 139.187874 -41.627622 
L 138.363957 -41.627622 
L 137.540041 -41.627622 
L 136.716125 -41.627622 
L 135.892208 -41.627622 
L 135.068292 -41.627622 
L 134.244375 -41.627622 
L 133.420459 -41.627622 
L 132.596543 -41.627622 
L 131.772626 -41.627622 
L 130.94871 -41.627622 
L 130.124793 -41.627622 
L 129.300877 -41.627622 
L 128.47696 -41.627622 
L 127.653044 -41.627622 
L 126.829128 -41.627622 
L 126.005211 -41.627622 
L 125.181295 -41.627622 
L 124.357378 -41.627622 
L 123.533462 -41.627622 
L 122.709546 -41.627622 
L 121.885629 -41.627622 
L 121.061713 -41.627622 
L 120.237796 -41.627622 
L 119.41388 -41.627622 
L 118.589964 -41.627622 
L 117.766047 -41.627622 
L 116.942131 -41.627622 
L 116.118214 -41.627622 
L 115.294298 -41.627622 
L 114.470381 -41.627622 
L 113.646465 -41.627622 
L 112.822549 -41.627622 
L 111.998632 -41.627622 
L 111.174716 -41.627622 
L 110.350799 -41.627622 
L 109.526883 -41.627622 
L 108.702967 -41.627622 
L 107.87905 -41.627622 
L 107.055134 -41.627622 
L 106.231217 -41.627622 
L 105.407301 -41.627622 
L 104.583385 -41.627622 
L 103.759468 -41.627622 
L 102.935552 -41.627622 
L 102.111635 -41.627622 
L 101.287719 -41.627622 
L 100.463802 -41.627622 
L 99.639886 -41.627622 
L 98.81597 -41.627622 
L 97.992053 -41.627622 
L 97.168137 -41.627622 
L 96.34422 -41.627622 
L 95.520304 -41.627622 
L 94.696388 -41.627622 
L 93.872471 -41.627622 
L 93.048555 -41.627622 
L 92.224638 -41.627622 
L 91.400722 -41.627622 
L 90.576806 -41.627622 
L 89.752889 -41.627622 
L 88.928973 -41.627622 
L 88.105056 -41.627622 
L 87.28114 -41.627622 
L 86.457223 -41.627622 
L 85.633307 -41.627622 
L 84.809391 -41.627622 
L 83.985474 -41.627622 
L 83.161558 -41.627622 
L 82.337641 -41.627622 
L 81.513725 -41.627622 
L 80.689809 -41.627622 
L 79.865892 -41.627622 
L 79.041976 -41.627622 
L 78.218059 -41.627622 
L 77.394143 -41.627622 
L 76.570227 -41.627622 
L 75.74631 -41.627622 
L 74.922394 -41.627622 
L 74.098477 -41.627622 
L 73.274561 -41.627622 
z
" style="stroke: #2a2eec; stroke-opacity: 0; stroke-width: 0.8"/>
    </defs>
    <g clip-path="url(#pb879602876)">
     <use xlink:href="#md20b6342a1" x="0" y="368.39952" style="fill: #2a2eec; fill-opacity: 0; stroke: #2a2eec; stroke-opacity: 0; stroke-width: 0.8"/>
    </g>
   </g>
   <g id="line2d_17">
    <path d="M 73.274561 321.592779 
L 87.28114 321.567961 
L 91.400722 321.29784 
L 96.34422 320.701814 
L 100.463802 320.004304 
L 103.759468 319.268128 
L 107.055134 318.301085 
L 110.350799 317.011597 
L 112.822549 315.809286 
L 114.470381 314.865531 
L 117.766047 312.66958 
L 121.061713 310.091286 
L 125.181295 306.408243 
L 130.124793 301.413402 
L 135.892208 294.974774 
L 139.187874 290.97735 
L 143.307456 285.569462 
L 146.603122 280.919155 
L 149.898787 275.866798 
L 153.194453 270.441809 
L 157.314035 263.172448 
L 160.6097 257.027318 
L 164.729283 248.999056 
L 169.672781 238.844403 
L 173.792363 230.089556 
L 179.559778 217.148814 
L 185.327193 203.600398 
L 201.805521 164.352957 
L 206.74902 153.356803 
L 210.868602 144.142558 
L 214.988184 134.225847 
L 218.283849 125.437553 
L 220.755599 118.270962 
L 224.051264 107.939683 
L 228.170846 94.454313 
L 233.938261 75.695533 
L 237.233927 66.04838 
L 239.705676 59.560845 
L 242.177425 53.811118 
L 243.825258 50.480982 
L 245.473091 47.561735 
L 247.120924 45.075127 
L 248.768757 43.007916 
L 250.416589 41.361772 
L 252.064422 40.208016 
L 253.712255 39.58249 
L 254.536171 39.380671 
L 255.360088 39.328298 
L 257.007921 39.547096 
L 258.655753 40.075138 
L 260.303586 41.033314 
L 261.951419 42.271297 
L 264.423168 44.534576 
L 266.894918 47.005075 
L 269.366667 49.5327 
L 272.662332 52.506358 
L 275.134082 54.286349 
L 276.781914 55.180289 
L 278.429747 55.89748 
L 280.07758 56.422725 
L 281.725413 56.838257 
L 287.492828 58.07574 
L 289.140661 58.710913 
L 290.788493 59.550022 
L 292.436326 60.620044 
L 293.260243 61.219586 
L 294.908076 62.822777 
L 296.555908 64.799887 
L 298.203741 67.171319 
L 299.851574 70.000725 
L 301.499407 73.269286 
L 303.14724 76.893762 
L 304.795072 81.001399 
L 307.266822 87.880511 
L 309.738571 95.539904 
L 313.034237 106.693913 
L 316.329902 118.681581 
L 321.273401 137.450461 
L 327.040816 159.05621 
L 330.336481 170.666949 
L 333.632147 181.236418 
L 336.103896 188.388112 
L 337.751729 192.747786 
L 340.223478 198.631553 
L 342.695227 203.909699 
L 345.166977 208.732465 
L 348.462642 214.605992 
L 352.582224 221.896658 
L 355.87789 228.2989 
L 358.349639 233.516534 
L 362.469221 242.949266 
L 366.588803 252.988246 
L 370.708385 262.8438 
L 373.180135 268.451012 
L 375.651884 273.612734 
L 378.123633 278.324025 
L 380.595382 282.530487 
L 383.067132 286.235293 
L 385.538881 289.517879 
L 388.01063 292.44468 
L 390.482379 295.064253 
L 394.601961 298.948951 
L 397.897627 301.827696 
L 402.017209 305.281765 
L 409.432457 311.241381 
L 414.375955 314.830759 
L 417.671621 316.932037 
L 420.967286 318.737714 
L 424.262952 320.20255 
L 427.558618 321.395571 
L 430.854283 322.262274 
L 434.149949 322.890449 
L 439.093448 323.530535 
L 465.458773 325.906607 
L 470.402271 326.132247 
L 474.521853 326.158135 
L 480.289268 325.967787 
L 493.471931 325.392699 
L 494.295847 325.386782 
L 494.295847 325.386782 
" clip-path="url(#pb879602876)" style="fill: none; stroke: #2a2eec; stroke-width: 2.151657; stroke-linecap: round"/>
   </g>
   <g id="line2d_18">
    <path d="M 152.790444 320.10501 
L 372.919989 320.10501 
" clip-path="url(#pb879602876)" style="fill: none; stroke: #000000; stroke-width: 4.303315"/>
   </g>
   <g id="patch_3">
    <path d="M 16.613501 341.144078 
L 567.786019 341.144078 
" style="fill: none"/>
   </g>
   <g id="text_9">
    <!-- 0.75  -->
    <g style="fill: #262626" transform="translate(120.515583 303.437791)scale(0.161374 -0.161374)">
     <defs>
      <path id="STIXGeneral-Regular-37" d="M 2874 4134 
L 1517 -51 
L 1101 -51 
L 2368 3763 
L 992 3763 
Q 717 3763 582 3667 
Q 448 3571 243 3238 
L 128 3296 
L 512 4237 
L 2874 4237 
L 2874 4134 
z
" transform="scale(0.015625)"/>
      <path id="STIXGeneral-Regular-35" d="M 2803 4358 
L 2573 3814 
Q 2534 3731 2400 3731 
L 1158 3731 
L 902 3187 
Q 1606 3053 1920 2896 
Q 2234 2739 2502 2368 
Q 2726 2061 2726 1555 
Q 2726 1094 2576 780 
Q 2426 467 2099 224 
Q 1664 -90 1011 -90 
Q 646 -90 422 19 
Q 198 128 198 307 
Q 198 550 486 550 
Q 717 550 960 352 
Q 1210 147 1414 147 
Q 1747 147 2012 480 
Q 2278 813 2278 1229 
Q 2278 1843 1850 2189 
Q 1293 2637 486 2637 
Q 410 2637 410 2688 
L 416 2720 
L 1114 4237 
L 2438 4237 
Q 2547 4237 2608 4269 
Q 2669 4301 2746 4403 
L 2803 4358 
z
" transform="scale(0.015625)"/>
      <path id="STIXGeneral-Regular-20" transform="scale(0.015625)"/>
     </defs>
     <use xlink:href="#STIXGeneral-Regular-30"/>
     <use xlink:href="#STIXGeneral-Regular-2e" x="49.999985"/>
     <use xlink:href="#STIXGeneral-Regular-37" x="74.999969"/>
     <use xlink:href="#STIXGeneral-Regular-35" x="124.999954"/>
     <use xlink:href="#STIXGeneral-Regular-20" x="174.999939"/>
    </g>
   </g>
   <g id="text_10">
    <!--  1.3 -->
    <g style="fill: #262626" transform="translate(372.919989 303.437791)scale(0.161374 -0.161374)">
     <defs>
      <path id="STIXGeneral-Regular-33" d="M 390 3264 
L 288 3290 
Q 435 3770 748 4048 
Q 1062 4326 1542 4326 
Q 1990 4326 2265 4083 
Q 2541 3840 2541 3450 
Q 2541 2925 1946 2566 
Q 2298 2413 2477 2227 
Q 2758 1914 2758 1402 
Q 2758 890 2464 506 
Q 2246 211 1840 60 
Q 1434 -90 979 -90 
Q 262 -90 262 275 
Q 262 378 339 442 
Q 416 506 525 506 
Q 685 506 915 339 
Q 1197 141 1466 141 
Q 1818 141 2058 425 
Q 2298 710 2298 1120 
Q 2298 1856 1632 2048 
Q 1434 2112 979 2112 
L 979 2202 
Q 1338 2323 1517 2432 
Q 2035 2726 2035 3290 
Q 2035 3610 1852 3776 
Q 1670 3942 1344 3942 
Q 768 3942 390 3264 
z
" transform="scale(0.015625)"/>
     </defs>
     <use xlink:href="#STIXGeneral-Regular-20"/>
     <use xlink:href="#STIXGeneral-Regular-31" x="24.999985"/>
     <use xlink:href="#STIXGeneral-Regular-2e" x="74.999969"/>
     <use xlink:href="#STIXGeneral-Regular-33" x="99.999954"/>
    </g>
   </g>
   <g id="text_11">
    <!-- 94% HDI -->
    <g style="fill: #262626" transform="translate(232.403381 226.768581)scale(0.161374 -0.161374)">
     <defs>
      <path id="STIXGeneral-Regular-39" d="M 378 -141 
L 358 -13 
Q 1094 115 1603 608 
Q 2112 1101 2304 1882 
Q 1933 1517 1344 1517 
Q 826 1517 509 1875 
Q 192 2234 192 2816 
Q 192 3462 573 3894 
Q 954 4326 1523 4326 
Q 2131 4326 2528 3840 
Q 2938 3328 2938 2522 
Q 2938 1958 2742 1462 
Q 2547 966 2170 621 
Q 1773 262 1395 105 
Q 1018 -51 378 -141 
z
M 2317 2272 
L 2317 2522 
Q 2317 4147 1472 4147 
Q 1171 4147 1005 3930 
Q 909 3802 845 3546 
Q 781 3290 781 3034 
Q 781 2464 995 2128 
Q 1210 1792 1568 1792 
Q 1824 1792 2070 1917 
Q 2317 2042 2317 2272 
z
" transform="scale(0.015625)"/>
      <path id="STIXGeneral-Regular-25" d="M 4390 1363 
Q 4390 781 4070 329 
Q 3750 -122 3341 -122 
Q 3014 -122 2790 134 
Q 2566 390 2566 762 
Q 2566 1274 2940 1693 
Q 3315 2112 3776 2112 
Q 4070 2112 4230 1917 
Q 4390 1722 4390 1363 
z
M 4243 1376 
Q 4243 1626 4131 1779 
Q 4019 1933 3840 1933 
Q 3654 1933 3526 1786 
Q 3315 1562 3171 1187 
Q 3027 813 3027 486 
Q 3027 301 3129 176 
Q 3232 51 3386 51 
Q 3718 51 3980 457 
Q 4243 864 4243 1376 
z
M 3974 4518 
L 1222 -115 
L 922 -115 
L 3443 4096 
Q 3264 3891 3094 3811 
Q 2925 3731 2669 3731 
Q 2445 3731 2182 3821 
Q 2208 3674 2208 3539 
Q 2208 3206 2067 2873 
Q 1926 2541 1696 2323 
Q 1453 2086 1146 2086 
Q 826 2086 608 2339 
Q 390 2592 390 2963 
Q 390 3507 761 3916 
Q 1133 4326 1626 4326 
Q 1792 4326 2010 4147 
Q 2310 3898 2624 3898 
Q 2918 3898 3084 3994 
Q 3251 4090 3693 4518 
L 3974 4518 
z
M 2054 3642 
Q 2054 3782 2025 3833 
Q 1997 3885 1894 3936 
Q 1747 4006 1613 4154 
Q 1414 4058 1331 3984 
Q 1248 3910 1152 3750 
Q 845 3264 845 2707 
Q 845 2509 944 2384 
Q 1043 2259 1210 2259 
Q 1549 2259 1801 2675 
Q 2054 3091 2054 3642 
z
" transform="scale(0.015625)"/>
      <path id="STIXGeneral-Regular-48" d="M 4499 0 
L 2714 0 
L 2714 122 
Q 3085 147 3181 265 
Q 3277 384 3277 794 
L 3277 2016 
L 1338 2016 
L 1338 723 
Q 1338 371 1440 256 
Q 1542 141 1894 122 
L 1901 0 
L 115 0 
L 115 122 
Q 493 147 589 259 
Q 685 371 685 781 
L 685 3507 
Q 685 3878 585 3980 
Q 486 4083 115 4115 
L 115 4237 
L 1907 4237 
L 1907 4115 
Q 1549 4083 1443 3977 
Q 1338 3872 1338 3507 
L 1338 2298 
L 3277 2298 
L 3277 3507 
Q 3277 3878 3177 3980 
Q 3078 4083 2707 4115 
L 2707 4237 
L 4499 4237 
L 4499 4115 
Q 4141 4083 4035 3977 
Q 3930 3872 3930 3507 
L 3930 710 
Q 3930 371 4035 259 
Q 4141 147 4499 122 
L 4499 0 
z
" transform="scale(0.015625)"/>
      <path id="STIXGeneral-Regular-44" d="M 102 4237 
L 1830 4237 
Q 3078 4237 3750 3654 
Q 4384 3110 4384 2138 
Q 4384 966 3514 410 
Q 2880 0 1901 0 
L 102 0 
L 102 122 
Q 474 147 570 252 
Q 666 358 666 736 
L 666 3520 
Q 666 3891 570 3990 
Q 474 4090 102 4115 
L 102 4237 
z
M 1318 3731 
L 1318 538 
Q 1318 365 1379 301 
Q 1440 237 1626 237 
Q 2125 237 2432 307 
Q 2739 378 3021 570 
Q 3686 1018 3686 2099 
Q 3686 3027 3078 3558 
Q 2803 3802 2476 3901 
Q 2150 4000 1658 4000 
Q 1472 4000 1395 3942 
Q 1318 3885 1318 3731 
z
" transform="scale(0.015625)"/>
      <path id="STIXGeneral-Regular-49" d="M 2016 0 
L 115 0 
L 115 122 
Q 518 134 627 240 
Q 736 346 736 717 
L 736 3526 
Q 736 3898 633 3994 
Q 531 4090 115 4115 
L 115 4237 
L 2016 4237 
L 2016 4115 
Q 1613 4096 1501 3993 
Q 1389 3891 1389 3526 
L 1389 717 
Q 1389 358 1504 246 
Q 1619 134 2016 122 
L 2016 0 
z
" transform="scale(0.015625)"/>
     </defs>
     <use xlink:href="#STIXGeneral-Regular-39"/>
     <use xlink:href="#STIXGeneral-Regular-34" x="49.999985"/>
     <use xlink:href="#STIXGeneral-Regular-25" x="99.999969"/>
     <use xlink:href="#STIXGeneral-Regular-20" x="174.699951"/>
     <use xlink:href="#STIXGeneral-Regular-48" x="199.699936"/>
     <use xlink:href="#STIXGeneral-Regular-44" x="271.899918"/>
     <use xlink:href="#STIXGeneral-Regular-49" x="344.099899"/>
    </g>
   </g>
   <g id="text_12">
    <!-- mean=1 -->
    <g style="fill: #262626" transform="translate(237.721074 60.096387)scale(0.161374 -0.161374)">
     <defs>
      <path id="STIXGeneral-Regular-6d" d="M 4960 0 
L 3565 0 
L 3565 96 
Q 3834 122 3907 208 
Q 3981 294 3981 576 
L 3981 1894 
Q 3981 2278 3869 2444 
Q 3757 2611 3488 2611 
Q 3264 2611 3107 2521 
Q 2950 2432 2803 2221 
L 2803 608 
Q 2803 301 2896 201 
Q 2989 102 3264 96 
L 3264 0 
L 1830 0 
L 1830 96 
Q 2112 115 2189 188 
Q 2266 262 2266 550 
L 2266 1901 
Q 2266 2611 1850 2611 
Q 1670 2611 1468 2531 
Q 1267 2451 1171 2336 
Q 1088 2240 1088 2227 
L 1088 448 
Q 1088 243 1177 176 
Q 1267 109 1523 96 
L 1523 0 
L 102 0 
L 102 96 
Q 371 102 460 195 
Q 550 288 550 563 
L 550 2150 
Q 550 2387 499 2480 
Q 448 2573 326 2573 
Q 230 2573 122 2547 
L 122 2656 
Q 557 2778 1011 2944 
L 1062 2925 
L 1062 2451 
L 1075 2451 
Q 1363 2752 1584 2848 
Q 1805 2944 2054 2944 
Q 2560 2944 2733 2406 
Q 3232 2944 3776 2944 
Q 4518 2944 4518 1792 
L 4518 493 
Q 4518 282 4582 202 
Q 4646 122 4794 109 
L 4960 96 
L 4960 0 
z
" transform="scale(0.015625)"/>
      <path id="STIXGeneral-Regular-65" d="M 2611 1050 
L 2714 1005 
Q 2330 -64 1376 -64 
Q 813 -64 486 329 
Q 160 723 160 1389 
Q 160 2074 525 2509 
Q 890 2944 1485 2944 
Q 2061 2944 2374 2502 
Q 2560 2246 2592 1773 
L 621 1773 
Q 646 1370 700 1158 
Q 755 947 915 730 
Q 1184 378 1626 378 
Q 1939 378 2153 531 
Q 2368 685 2611 1050 
z
M 634 1978 
L 1939 1978 
Q 1882 2381 1750 2547 
Q 1619 2714 1312 2714 
Q 1043 2714 864 2525 
Q 685 2336 634 1978 
z
" transform="scale(0.015625)"/>
      <path id="STIXGeneral-Regular-61" d="M 2829 422 
L 2829 243 
Q 2586 -64 2253 -64 
Q 1888 -64 1843 403 
L 1837 403 
Q 1427 -64 909 -64 
Q 608 -64 422 112 
Q 237 288 237 602 
Q 237 1050 685 1350 
Q 992 1555 1837 1869 
L 1837 2214 
Q 1837 2502 1699 2646 
Q 1562 2790 1338 2790 
Q 1146 2790 1018 2697 
Q 890 2605 890 2477 
Q 890 2419 909 2348 
Q 928 2278 928 2208 
Q 928 2112 841 2029 
Q 755 1946 634 1946 
Q 525 1946 441 2029 
Q 358 2112 358 2240 
Q 358 2547 685 2752 
Q 986 2944 1421 2944 
Q 1939 2944 2176 2656 
Q 2291 2522 2323 2384 
Q 2355 2246 2355 1946 
L 2355 723 
Q 2355 301 2554 301 
Q 2682 301 2829 422 
z
M 1837 813 
L 1837 1715 
Q 1248 1510 1018 1293 
Q 800 1094 800 800 
Q 800 557 921 432 
Q 1043 307 1242 307 
Q 1453 307 1613 410 
Q 1747 506 1792 589 
Q 1837 672 1837 813 
z
" transform="scale(0.015625)"/>
      <path id="STIXGeneral-Regular-6e" d="M 3104 0 
L 1773 0 
L 1779 96 
Q 2016 115 2096 233 
Q 2176 352 2176 672 
L 2176 1946 
Q 2176 2592 1709 2592 
Q 1549 2592 1408 2515 
Q 1267 2438 1050 2227 
L 1050 461 
Q 1050 269 1136 192 
Q 1222 115 1466 96 
L 1466 0 
L 115 0 
L 115 96 
Q 358 115 435 214 
Q 512 314 512 602 
L 512 2157 
Q 512 2394 467 2483 
Q 422 2573 288 2573 
Q 160 2573 102 2547 
L 102 2656 
Q 550 2784 979 2944 
L 1030 2925 
L 1030 2426 
L 1037 2426 
Q 1491 2944 1958 2944 
Q 2323 2944 2518 2688 
Q 2714 2432 2714 1958 
L 2714 544 
Q 2714 288 2790 205 
Q 2867 122 3104 96 
L 3104 0 
z
" transform="scale(0.015625)"/>
      <path id="STIXGeneral-Regular-3d" d="M 4077 2048 
L 307 2048 
L 307 2470 
L 4077 2470 
L 4077 2048 
z
M 4077 768 
L 307 768 
L 307 1190 
L 4077 1190 
L 4077 768 
z
" transform="scale(0.015625)"/>
     </defs>
     <use xlink:href="#STIXGeneral-Regular-6d"/>
     <use xlink:href="#STIXGeneral-Regular-65" x="77.799988"/>
     <use xlink:href="#STIXGeneral-Regular-61" x="122.199982"/>
     <use xlink:href="#STIXGeneral-Regular-6e" x="166.599976"/>
     <use xlink:href="#STIXGeneral-Regular-3d" x="216.59996"/>
     <use xlink:href="#STIXGeneral-Regular-31" x="285.099945"/>
    </g>
   </g>
   <g id="text_13">
    <!-- alpha -->
    <g style="fill: #262626" transform="translate(16.613501 18.956118)scale(0.172133 -0.172133)">
     <defs>
      <path id="STIXGeneral-Regular-6c" d="M 1645 0 
L 134 0 
L 134 96 
Q 435 122 531 221 
Q 627 320 627 589 
L 627 3590 
Q 627 3821 569 3910 
Q 512 4000 358 4000 
Q 224 4000 122 3987 
L 122 4090 
Q 730 4237 1133 4371 
L 1165 4346 
L 1165 557 
Q 1165 288 1254 201 
Q 1344 115 1645 96 
L 1645 0 
z
" transform="scale(0.015625)"/>
      <path id="STIXGeneral-Regular-70" d="M 1018 2931 
L 1018 2438 
Q 1421 2944 1939 2944 
Q 2406 2944 2707 2560 
Q 3008 2176 3008 1581 
Q 3008 883 2621 409 
Q 2234 -64 1664 -64 
Q 1466 -64 1328 -6 
Q 1190 51 1018 211 
L 1018 -794 
Q 1018 -1094 1120 -1180 
Q 1222 -1267 1581 -1274 
L 1581 -1389 
L 32 -1389 
L 32 -1280 
Q 314 -1254 397 -1171 
Q 480 -1088 480 -838 
L 480 2157 
Q 480 2381 429 2451 
Q 378 2522 218 2522 
Q 115 2522 58 2515 
L 58 2618 
Q 506 2752 979 2944 
L 1018 2931 
z
M 1018 2138 
L 1018 563 
Q 1018 422 1238 281 
Q 1459 141 1683 141 
Q 2029 141 2243 467 
Q 2458 794 2458 1325 
Q 2458 1888 2243 2224 
Q 2029 2560 1670 2560 
Q 1446 2560 1232 2419 
Q 1018 2278 1018 2138 
z
" transform="scale(0.015625)"/>
      <path id="STIXGeneral-Regular-68" d="M 3117 0 
L 1760 0 
L 1760 96 
Q 2042 128 2118 224 
Q 2195 320 2195 653 
L 2195 1920 
Q 2195 2598 1722 2598 
Q 1530 2598 1370 2508 
Q 1210 2419 1005 2195 
L 1005 653 
Q 1005 320 1081 224 
Q 1158 128 1440 96 
L 1440 0 
L 58 0 
L 58 96 
Q 333 134 400 224 
Q 467 314 467 653 
L 467 3667 
Q 467 3872 406 3933 
Q 346 3994 141 3994 
Q 83 3994 64 3987 
L 64 4090 
L 237 4141 
Q 730 4288 973 4371 
L 1005 4352 
L 1005 2406 
Q 1229 2694 1446 2819 
Q 1664 2944 1946 2944 
Q 2733 2944 2733 1926 
L 2733 653 
Q 2733 320 2793 233 
Q 2854 147 3117 96 
L 3117 0 
z
" transform="scale(0.015625)"/>
     </defs>
     <use xlink:href="#STIXGeneral-Regular-61"/>
     <use xlink:href="#STIXGeneral-Regular-6c" x="44.399994"/>
     <use xlink:href="#STIXGeneral-Regular-70" x="72.199982"/>
     <use xlink:href="#STIXGeneral-Regular-68" x="122.199966"/>
     <use xlink:href="#STIXGeneral-Regular-61" x="172.199951"/>
    </g>
   </g>
  </g>
 </g>
 <defs>
  <clipPath id="pb879602876">
   <rect x="16.613501" y="24.956118" width="551.172518" height="316.18796"/>
  </clipPath>
 </defs>
</svg>
