<?xml version="1.0" encoding="utf-8" standalone="no"?>
<!DOCTYPE svg PUBLIC "-//W3C//DTD SVG 1.1//EN"
  "http://www.w3.org/Graphics/SVG/1.1/DTD/svg11.dtd">
<svg xmlns:xlink="http://www.w3.org/1999/xlink" width="496.22pt" height="347.3275pt" viewBox="0 0 496.22 347.3275" xmlns="http://www.w3.org/2000/svg" version="1.1">
 <metadata>
  <rdf:RDF xmlns:dc="http://purl.org/dc/elements/1.1/" xmlns:cc="http://creativecommons.org/ns#" xmlns:rdf="http://www.w3.org/1999/02/22-rdf-syntax-ns#">
   <cc:Work>
    <dc:type rdf:resource="http://purl.org/dc/dcmitype/StillImage"/>
    <dc:date>2023-07-28T12:37:17.688655</dc:date>
    <dc:format>image/svg+xml</dc:format>
    <dc:creator>
     <cc:Agent>
      <dc:title>Matplotlib v3.6.0, https://matplotlib.org/</dc:title>
     </cc:Agent>
    </dc:creator>
   </cc:Work>
  </rdf:RDF>
 </metadata>
 <defs>
  <style type="text/css">*{stroke-linejoin: round; stroke-linecap: butt}</style>
 </defs>
 <g id="figure_1">
  <g id="patch_1">
   <path d="M 0 347.3275 
L 496.22 347.3275 
L 496.22 0 
L 0 0 
z
" style="fill: #ffffff"/>
  </g>
  <g id="axes_1">
   <g id="patch_2">
    <path d="M 63.6 301.3275 
L 454.2 301.3275 
L 454.2 24.1275 
L 63.6 24.1275 
z
" style="fill: #ffffff"/>
   </g>
   <g id="PathCollection_1">
    <path d="M 81.354545 217.223642 
C 82.282756 217.223642 83.173075 216.85486 83.829419 216.198515 
C 84.485763 215.542171 84.854545 214.651853 84.854545 213.723642 
C 84.854545 212.795431 84.485763 211.905112 83.829419 211.248768 
C 83.173075 210.592424 82.282756 210.223642 81.354545 210.223642 
C 80.426335 210.223642 79.536016 210.592424 78.879672 211.248768 
C 78.223328 211.905112 77.854545 212.795431 77.854545 213.723642 
C 77.854545 214.651853 78.223328 215.542171 78.879672 216.198515 
C 79.536016 216.85486 80.426335 217.223642 81.354545 217.223642 
z
" clip-path="url(#pfca106a0a6)" style="fill: #4c72b0; fill-opacity: 0.2; stroke: #4c72b0; stroke-width: 0.75"/>
    <path d="M 84.446204 206.886316 
C 85.374415 206.886316 86.264734 206.517534 86.921078 205.86119 
C 87.577422 205.204845 87.946204 204.314527 87.946204 203.386316 
C 87.946204 202.458105 87.577422 201.567786 86.921078 200.911442 
C 86.264734 200.255098 85.374415 199.886316 84.446204 199.886316 
C 83.517993 199.886316 82.627675 200.255098 81.971331 200.911442 
C 81.314986 201.567786 80.946204 202.458105 80.946204 203.386316 
C 80.946204 204.314527 81.314986 205.204845 81.971331 205.86119 
C 82.627675 206.517534 83.517993 206.886316 84.446204 206.886316 
z
" clip-path="url(#pfca106a0a6)" style="fill: #4c72b0; fill-opacity: 0.2; stroke: #4c72b0; stroke-width: 0.75"/>
    <path d="M 87.701483 219.018629 
C 88.629694 219.018629 89.520012 218.649847 90.176356 217.993502 
C 90.832701 217.337158 91.201483 216.44684 91.201483 215.518629 
C 91.201483 214.590418 90.832701 213.700099 90.176356 213.043755 
C 89.520012 212.387411 88.629694 212.018629 87.701483 212.018629 
C 86.773272 212.018629 85.882953 212.387411 85.226609 213.043755 
C 84.570265 213.700099 84.201483 214.590418 84.201483 215.518629 
C 84.201483 216.44684 84.570265 217.337158 85.226609 217.993502 
C 85.882953 218.649847 86.773272 219.018629 87.701483 219.018629 
z
" clip-path="url(#pfca106a0a6)" style="fill: #4c72b0; fill-opacity: 0.2; stroke: #4c72b0; stroke-width: 0.75"/>
    <path d="M 90.751731 193.39124 
C 91.679942 193.39124 92.57026 193.022458 93.226605 192.366114 
C 93.882949 191.70977 94.251731 190.819451 94.251731 189.89124 
C 94.251731 188.963029 93.882949 188.072711 93.226605 187.416367 
C 92.57026 186.760022 91.679942 186.39124 90.751731 186.39124 
C 89.82352 186.39124 88.933201 186.760022 88.276857 187.416367 
C 87.620513 188.072711 87.251731 188.963029 87.251731 189.89124 
C 87.251731 190.819451 87.620513 191.70977 88.276857 192.366114 
C 88.933201 193.022458 89.82352 193.39124 90.751731 193.39124 
z
" clip-path="url(#pfca106a0a6)" style="fill: #4c72b0; fill-opacity: 0.2; stroke: #4c72b0; stroke-width: 0.75"/>
    <path d="M 94.192262 198.487633 
C 95.120472 198.487633 96.010791 198.11885 96.667135 197.462506 
C 97.32348 196.806162 97.692262 195.915843 97.692262 194.987633 
C 97.692262 194.059422 97.32348 193.169103 96.667135 192.512759 
C 96.010791 191.856415 95.120472 191.487633 94.192262 191.487633 
C 93.264051 191.487633 92.373732 191.856415 91.717388 192.512759 
C 91.061044 193.169103 90.692262 194.059422 90.692262 194.987633 
C 90.692262 195.915843 91.061044 196.806162 91.717388 197.462506 
C 92.373732 198.11885 93.264051 198.487633 94.192262 198.487633 
z
" clip-path="url(#pfca106a0a6)" style="fill: #4c72b0; fill-opacity: 0.2; stroke: #4c72b0; stroke-width: 0.75"/>
    <path d="M 98.37274 194.385527 
C 99.300951 194.385527 100.19127 194.016745 100.847614 193.360401 
C 101.503958 192.704056 101.87274 191.813738 101.87274 190.885527 
C 101.87274 189.957316 101.503958 189.066997 100.847614 188.410653 
C 100.19127 187.754309 99.300951 187.385527 98.37274 187.385527 
C 97.444529 187.385527 96.55421 187.754309 95.897866 188.410653 
C 95.241522 189.066997 94.87274 189.957316 94.87274 190.885527 
C 94.87274 191.813738 95.241522 192.704056 95.897866 193.360401 
C 96.55421 194.016745 97.444529 194.385527 98.37274 194.385527 
z
" clip-path="url(#pfca106a0a6)" style="fill: #4c72b0; fill-opacity: 0.2; stroke: #4c72b0; stroke-width: 0.75"/>
    <path d="M 102.396034 176.362399 
C 103.324245 176.362399 104.214564 175.993617 104.870908 175.337273 
C 105.527252 174.680928 105.896034 173.79061 105.896034 172.862399 
C 105.896034 171.934188 105.527252 171.043869 104.870908 170.387525 
C 104.214564 169.731181 103.324245 169.362399 102.396034 169.362399 
C 101.467823 169.362399 100.577505 169.731181 99.92116 170.387525 
C 99.264816 171.043869 98.896034 171.934188 98.896034 172.862399 
C 98.896034 173.79061 99.264816 174.680928 99.92116 175.337273 
C 100.577505 175.993617 101.467823 176.362399 102.396034 176.362399 
z
" clip-path="url(#pfca106a0a6)" style="fill: #4c72b0; fill-opacity: 0.2; stroke: #4c72b0; stroke-width: 0.75"/>
    <path d="M 106.538099 212.226202 
C 107.46631 212.226202 108.356629 211.857419 109.012973 211.201075 
C 109.669317 210.544731 110.038099 209.654412 110.038099 208.726202 
C 110.038099 207.797991 109.669317 206.907672 109.012973 206.251328 
C 108.356629 205.594984 107.46631 205.226202 106.538099 205.226202 
C 105.609889 205.226202 104.71957 205.594984 104.063226 206.251328 
C 103.406882 206.907672 103.038099 207.797991 103.038099 208.726202 
C 103.038099 209.654412 103.406882 210.544731 104.063226 211.201075 
C 104.71957 211.857419 105.609889 212.226202 106.538099 212.226202 
z
" clip-path="url(#pfca106a0a6)" style="fill: #4c72b0; fill-opacity: 0.2; stroke: #4c72b0; stroke-width: 0.75"/>
    <path d="M 111.536058 200.22529 
C 112.464269 200.22529 113.354587 199.856508 114.010931 199.200163 
C 114.667276 198.543819 115.036058 197.6535 115.036058 196.72529 
C 115.036058 195.797079 114.667276 194.90676 114.010931 194.250416 
C 113.354587 193.594072 112.464269 193.22529 111.536058 193.22529 
C 110.607847 193.22529 109.717528 193.594072 109.061184 194.250416 
C 108.40484 194.90676 108.036058 195.797079 108.036058 196.72529 
C 108.036058 197.6535 108.40484 198.543819 109.061184 199.200163 
C 109.717528 199.856508 110.607847 200.22529 111.536058 200.22529 
z
" clip-path="url(#pfca106a0a6)" style="fill: #4c72b0; fill-opacity: 0.2; stroke: #4c72b0; stroke-width: 0.75"/>
    <path d="M 117.109732 194.858979 
C 118.037943 194.858979 118.928262 194.490197 119.584606 193.833853 
C 120.24095 193.177509 120.609732 192.28719 120.609732 191.358979 
C 120.609732 190.430769 120.24095 189.54045 119.584606 188.884106 
C 118.928262 188.227761 118.037943 187.858979 117.109732 187.858979 
C 116.181521 187.858979 115.291202 188.227761 114.634858 188.884106 
C 113.978514 189.54045 113.609732 190.430769 113.609732 191.358979 
C 113.609732 192.28719 113.978514 193.177509 114.634858 193.833853 
C 115.291202 194.490197 116.181521 194.858979 117.109732 194.858979 
z
" clip-path="url(#pfca106a0a6)" style="fill: #4c72b0; fill-opacity: 0.2; stroke: #4c72b0; stroke-width: 0.75"/>
    <path d="M 122.510757 184.368331 
C 123.438968 184.368331 124.329286 183.999549 124.98563 183.343205 
C 125.641975 182.68686 126.010757 181.796542 126.010757 180.868331 
C 126.010757 179.94012 125.641975 179.049801 124.98563 178.393457 
C 124.329286 177.737113 123.438968 177.368331 122.510757 177.368331 
C 121.582546 177.368331 120.692227 177.737113 120.035883 178.393457 
C 119.379539 179.049801 119.010757 179.94012 119.010757 180.868331 
C 119.010757 181.796542 119.379539 182.68686 120.035883 183.343205 
C 120.692227 183.999549 121.582546 184.368331 122.510757 184.368331 
z
" clip-path="url(#pfca106a0a6)" style="fill: #4c72b0; fill-opacity: 0.2; stroke: #4c72b0; stroke-width: 0.75"/>
    <path d="M 129.272144 172.59698 
C 130.200355 172.59698 131.090674 172.228198 131.747018 171.571854 
C 132.403362 170.915509 132.772144 170.025191 132.772144 169.09698 
C 132.772144 168.168769 132.403362 167.27845 131.747018 166.622106 
C 131.090674 165.965762 130.200355 165.59698 129.272144 165.59698 
C 128.343933 165.59698 127.453614 165.965762 126.79727 166.622106 
C 126.140926 167.27845 125.772144 168.168769 125.772144 169.09698 
C 125.772144 170.025191 126.140926 170.915509 126.79727 171.571854 
C 127.453614 172.228198 128.343933 172.59698 129.272144 172.59698 
z
" clip-path="url(#pfca106a0a6)" style="fill: #4c72b0; fill-opacity: 0.2; stroke: #4c72b0; stroke-width: 0.75"/>
    <path d="M 136.982588 173.416289 
C 137.910799 173.416289 138.801118 173.047507 139.457462 172.391163 
C 140.113806 171.734819 140.482588 170.8445 140.482588 169.916289 
C 140.482588 168.988078 140.113806 168.09776 139.457462 167.441415 
C 138.801118 166.785071 137.910799 166.416289 136.982588 166.416289 
C 136.054378 166.416289 135.164059 166.785071 134.507715 167.441415 
C 133.851371 168.09776 133.482588 168.988078 133.482588 169.916289 
C 133.482588 170.8445 133.851371 171.734819 134.507715 172.391163 
C 135.164059 173.047507 136.054378 173.416289 136.982588 173.416289 
z
" clip-path="url(#pfca106a0a6)" style="fill: #4c72b0; fill-opacity: 0.2; stroke: #4c72b0; stroke-width: 0.75"/>
    <path d="M 144.865326 162.145965 
C 145.793537 162.145965 146.683855 161.777183 147.3402 161.120839 
C 147.996544 160.464494 148.365326 159.574176 148.365326 158.645965 
C 148.365326 157.717754 147.996544 156.827435 147.3402 156.171091 
C 146.683855 155.514747 145.793537 155.145965 144.865326 155.145965 
C 143.937115 155.145965 143.046796 155.514747 142.390452 156.171091 
C 141.734108 156.827435 141.365326 157.717754 141.365326 158.645965 
C 141.365326 159.574176 141.734108 160.464494 142.390452 161.120839 
C 143.046796 161.777183 143.937115 162.145965 144.865326 162.145965 
z
" clip-path="url(#pfca106a0a6)" style="fill: #4c72b0; fill-opacity: 0.2; stroke: #4c72b0; stroke-width: 0.75"/>
    <path d="M 154.107241 166.032709 
C 155.035452 166.032709 155.925771 165.663927 156.582115 165.007583 
C 157.238459 164.351239 157.607241 163.46092 157.607241 162.532709 
C 157.607241 161.604498 157.238459 160.71418 156.582115 160.057835 
C 155.925771 159.401491 155.035452 159.032709 154.107241 159.032709 
C 153.17903 159.032709 152.288711 159.401491 151.632367 160.057835 
C 150.976023 160.71418 150.607241 161.604498 150.607241 162.532709 
C 150.607241 163.46092 150.976023 164.351239 151.632367 165.007583 
C 152.288711 165.663927 153.17903 166.032709 154.107241 166.032709 
z
" clip-path="url(#pfca106a0a6)" style="fill: #4c72b0; fill-opacity: 0.2; stroke: #4c72b0; stroke-width: 0.75"/>
    <path d="M 166.560756 164.138318 
C 167.488967 164.138318 168.379285 163.769536 169.03563 163.113192 
C 169.691974 162.456848 170.060756 161.566529 170.060756 160.638318 
C 170.060756 159.710107 169.691974 158.819789 169.03563 158.163444 
C 168.379285 157.5071 167.488967 157.138318 166.560756 157.138318 
C 165.632545 157.138318 164.742226 157.5071 164.085882 158.163444 
C 163.429538 158.819789 163.060756 159.710107 163.060756 160.638318 
C 163.060756 161.566529 163.429538 162.456848 164.085882 163.113192 
C 164.742226 163.769536 165.632545 164.138318 166.560756 164.138318 
z
" clip-path="url(#pfca106a0a6)" style="fill: #4c72b0; fill-opacity: 0.2; stroke: #4c72b0; stroke-width: 0.75"/>
    <path d="M 182.625401 153.04148 
C 183.553611 153.04148 184.44393 152.672698 185.100274 152.016354 
C 185.756619 151.360009 186.125401 150.469691 186.125401 149.54148 
C 186.125401 148.613269 185.756619 147.72295 185.100274 147.066606 
C 184.44393 146.410262 183.553611 146.04148 182.625401 146.04148 
C 181.69719 146.04148 180.806871 146.410262 180.150527 147.066606 
C 179.494183 147.72295 179.125401 148.613269 179.125401 149.54148 
C 179.125401 150.469691 179.494183 151.360009 180.150527 152.016354 
C 180.806871 152.672698 181.69719 153.04148 182.625401 153.04148 
z
" clip-path="url(#pfca106a0a6)" style="fill: #4c72b0; fill-opacity: 0.2; stroke: #4c72b0; stroke-width: 0.75"/>
    <path d="M 204.807633 157.725466 
C 205.735844 157.725466 206.626163 157.356684 207.282507 156.700339 
C 207.938851 156.043995 208.307633 155.153676 208.307633 154.225466 
C 208.307633 153.297255 207.938851 152.406936 207.282507 151.750592 
C 206.626163 151.094248 205.735844 150.725466 204.807633 150.725466 
C 203.879422 150.725466 202.989104 151.094248 202.332759 151.750592 
C 201.676415 152.406936 201.307633 153.297255 201.307633 154.225466 
C 201.307633 155.153676 201.676415 156.043995 202.332759 156.700339 
C 202.989104 157.356684 203.879422 157.725466 204.807633 157.725466 
z
" clip-path="url(#pfca106a0a6)" style="fill: #4c72b0; fill-opacity: 0.2; stroke: #4c72b0; stroke-width: 0.75"/>
    <path d="M 238.9085 175.319145 
C 239.836711 175.319145 240.72703 174.950362 241.383374 174.294018 
C 242.039718 173.637674 242.4085 172.747355 242.4085 171.819145 
C 242.4085 170.890934 242.039718 170.000615 241.383374 169.344271 
C 240.72703 168.687927 239.836711 168.319145 238.9085 168.319145 
C 237.98029 168.319145 237.089971 168.687927 236.433627 169.344271 
C 235.777282 170.000615 235.4085 170.890934 235.4085 171.819145 
C 235.4085 172.747355 235.777282 173.637674 236.433627 174.294018 
C 237.089971 174.950362 237.98029 175.319145 238.9085 175.319145 
z
" clip-path="url(#pfca106a0a6)" style="fill: #4c72b0; fill-opacity: 0.2; stroke: #4c72b0; stroke-width: 0.75"/>
    <path d="M 285.716666 160.82415 
C 286.644876 160.82415 287.535195 160.455368 288.191539 159.799024 
C 288.847883 159.14268 289.216666 158.252361 289.216666 157.32415 
C 289.216666 156.395939 288.847883 155.505621 288.191539 154.849277 
C 287.535195 154.192932 286.644876 153.82415 285.716666 153.82415 
C 284.788455 153.82415 283.898136 154.192932 283.241792 154.849277 
C 282.585448 155.505621 282.216666 156.395939 282.216666 157.32415 
C 282.216666 158.252361 282.585448 159.14268 283.241792 159.799024 
C 283.898136 160.455368 284.788455 160.82415 285.716666 160.82415 
z
" clip-path="url(#pfca106a0a6)" style="fill: #4c72b0; fill-opacity: 0.2; stroke: #4c72b0; stroke-width: 0.75"/>
    <path d="M 430.875534 216.080722 
C 431.803745 216.080722 432.694063 215.71194 433.350408 215.055596 
C 434.006752 214.399252 434.375534 213.508933 434.375534 212.580722 
C 434.375534 211.652511 434.006752 210.762193 433.350408 210.105848 
C 432.694063 209.449504 431.803745 209.080722 430.875534 209.080722 
C 429.947323 209.080722 429.057004 209.449504 428.40066 210.105848 
C 427.744316 210.762193 427.375534 211.652511 427.375534 212.580722 
C 427.375534 213.508933 427.744316 214.399252 428.40066 215.055596 
C 429.057004 215.71194 429.947323 216.080722 430.875534 216.080722 
z
" clip-path="url(#pfca106a0a6)" style="fill: #4c72b0; fill-opacity: 0.2; stroke: #4c72b0; stroke-width: 0.75"/>
    <path d="M 81.482743 218.663524 
C 82.410954 218.663524 83.301273 218.294742 83.957617 217.638398 
C 84.613961 216.982053 84.982743 216.091735 84.982743 215.163524 
C 84.982743 214.235313 84.613961 213.344994 83.957617 212.68865 
C 83.301273 212.032306 82.410954 211.663524 81.482743 211.663524 
C 80.554532 211.663524 79.664214 212.032306 79.00787 212.68865 
C 78.351525 213.344994 77.982743 214.235313 77.982743 215.163524 
C 77.982743 216.091735 78.351525 216.982053 79.00787 217.638398 
C 79.664214 218.294742 80.554532 218.663524 81.482743 218.663524 
z
" clip-path="url(#pfca106a0a6)" style="fill: #dd8452; fill-opacity: 0.2; stroke: #dd8452; stroke-width: 0.75"/>
    <path d="M 84.10104 197.445295 
C 85.029251 197.445295 85.91957 197.076513 86.575914 196.420169 
C 87.232258 195.763825 87.60104 194.873506 87.60104 193.945295 
C 87.60104 193.017084 87.232258 192.126766 86.575914 191.470422 
C 85.91957 190.814077 85.029251 190.445295 84.10104 190.445295 
C 83.172829 190.445295 82.28251 190.814077 81.626166 191.470422 
C 80.969822 192.126766 80.60104 193.017084 80.60104 193.945295 
C 80.60104 194.873506 80.969822 195.763825 81.626166 196.420169 
C 82.28251 197.076513 83.172829 197.445295 84.10104 197.445295 
z
" clip-path="url(#pfca106a0a6)" style="fill: #dd8452; fill-opacity: 0.2; stroke: #dd8452; stroke-width: 0.75"/>
    <path d="M 87.121431 192.53488 
C 88.049642 192.53488 88.939961 192.166097 89.596305 191.509753 
C 90.252649 190.853409 90.621431 189.96309 90.621431 189.03488 
C 90.621431 188.106669 90.252649 187.21635 89.596305 186.560006 
C 88.939961 185.903662 88.049642 185.53488 87.121431 185.53488 
C 86.19322 185.53488 85.302902 185.903662 84.646557 186.560006 
C 83.990213 187.21635 83.621431 188.106669 83.621431 189.03488 
C 83.621431 189.96309 83.990213 190.853409 84.646557 191.509753 
C 85.302902 192.166097 86.19322 192.53488 87.121431 192.53488 
z
" clip-path="url(#pfca106a0a6)" style="fill: #dd8452; fill-opacity: 0.2; stroke: #dd8452; stroke-width: 0.75"/>
    <path d="M 90.519061 187.723645 
C 91.447271 187.723645 92.33759 187.354863 92.993934 186.698519 
C 93.650278 186.042175 94.019061 185.151856 94.019061 184.223645 
C 94.019061 183.295434 93.650278 182.405115 92.993934 181.748771 
C 92.33759 181.092427 91.447271 180.723645 90.519061 180.723645 
C 89.59085 180.723645 88.700531 181.092427 88.044187 181.748771 
C 87.387843 182.405115 87.019061 183.295434 87.019061 184.223645 
C 87.019061 185.151856 87.387843 186.042175 88.044187 186.698519 
C 88.700531 187.354863 89.59085 187.723645 90.519061 187.723645 
z
" clip-path="url(#pfca106a0a6)" style="fill: #dd8452; fill-opacity: 0.2; stroke: #dd8452; stroke-width: 0.75"/>
    <path d="M 94.356743 166.827591 
C 95.284954 166.827591 96.175273 166.458809 96.831617 165.802465 
C 97.487961 165.146121 97.856743 164.255802 97.856743 163.327591 
C 97.856743 162.399381 97.487961 161.509062 96.831617 160.852718 
C 96.175273 160.196373 95.284954 159.827591 94.356743 159.827591 
C 93.428532 159.827591 92.538214 160.196373 91.88187 160.852718 
C 91.225525 161.509062 90.856743 162.399381 90.856743 163.327591 
C 90.856743 164.255802 91.225525 165.146121 91.88187 165.802465 
C 92.538214 166.458809 93.428532 166.827591 94.356743 166.827591 
z
" clip-path="url(#pfca106a0a6)" style="fill: #dd8452; fill-opacity: 0.2; stroke: #dd8452; stroke-width: 0.75"/>
    <path d="M 98.658443 147.143942 
C 99.586654 147.143942 100.476973 146.77516 101.133317 146.118816 
C 101.789661 145.462472 102.158443 144.572153 102.158443 143.643942 
C 102.158443 142.715731 101.789661 141.825413 101.133317 141.169069 
C 100.476973 140.512724 99.586654 140.143942 98.658443 140.143942 
C 97.730232 140.143942 96.839914 140.512724 96.183569 141.169069 
C 95.527225 141.825413 95.158443 142.715731 95.158443 143.643942 
C 95.158443 144.572153 95.527225 145.462472 96.183569 146.118816 
C 96.839914 146.77516 97.730232 147.143942 98.658443 147.143942 
z
" clip-path="url(#pfca106a0a6)" style="fill: #dd8452; fill-opacity: 0.2; stroke: #dd8452; stroke-width: 0.75"/>
    <path d="M 103.109274 139.275096 
C 104.037485 139.275096 104.927804 138.906314 105.584148 138.249969 
C 106.240492 137.593625 106.609274 136.703307 106.609274 135.775096 
C 106.609274 134.846885 106.240492 133.956566 105.584148 133.300222 
C 104.927804 132.643878 104.037485 132.275096 103.109274 132.275096 
C 102.181063 132.275096 101.290745 132.643878 100.6344 133.300222 
C 99.978056 133.956566 99.609274 134.846885 99.609274 135.775096 
C 99.609274 136.703307 99.978056 137.593625 100.6344 138.249969 
C 101.290745 138.906314 102.181063 139.275096 103.109274 139.275096 
z
" clip-path="url(#pfca106a0a6)" style="fill: #dd8452; fill-opacity: 0.2; stroke: #dd8452; stroke-width: 0.75"/>
    <path d="M 108.135414 134.161828 
C 109.063625 134.161828 109.953943 133.793046 110.610288 133.136701 
C 111.266632 132.480357 111.635414 131.590038 111.635414 130.661828 
C 111.635414 129.733617 111.266632 128.843298 110.610288 128.186954 
C 109.953943 127.53061 109.063625 127.161828 108.135414 127.161828 
C 107.207203 127.161828 106.316884 127.53061 105.66054 128.186954 
C 105.004196 128.843298 104.635414 129.733617 104.635414 130.661828 
C 104.635414 131.590038 105.004196 132.480357 105.66054 133.136701 
C 106.316884 133.793046 107.207203 134.161828 108.135414 134.161828 
z
" clip-path="url(#pfca106a0a6)" style="fill: #dd8452; fill-opacity: 0.2; stroke: #dd8452; stroke-width: 0.75"/>
    <path d="M 113.429403 113.736219 
C 114.357614 113.736219 115.247933 113.367437 115.904277 112.711092 
C 116.560621 112.054748 116.929403 111.164429 116.929403 110.236219 
C 116.929403 109.308008 116.560621 108.417689 115.904277 107.761345 
C 115.247933 107.105001 114.357614 106.736219 113.429403 106.736219 
C 112.501192 106.736219 111.610874 107.105001 110.954529 107.761345 
C 110.298185 108.417689 109.929403 109.308008 109.929403 110.236219 
C 109.929403 111.164429 110.298185 112.054748 110.954529 112.711092 
C 111.610874 113.367437 112.501192 113.736219 113.429403 113.736219 
z
" clip-path="url(#pfca106a0a6)" style="fill: #dd8452; fill-opacity: 0.2; stroke: #dd8452; stroke-width: 0.75"/>
    <path d="M 119.496621 108.270254 
C 120.424832 108.270254 121.315151 107.901472 121.971495 107.245128 
C 122.627839 106.588784 122.996621 105.698465 122.996621 104.770254 
C 122.996621 103.842044 122.627839 102.951725 121.971495 102.295381 
C 121.315151 101.639036 120.424832 101.270254 119.496621 101.270254 
C 118.56841 101.270254 117.678092 101.639036 117.021748 102.295381 
C 116.365403 102.951725 115.996621 103.842044 115.996621 104.770254 
C 115.996621 105.698465 116.365403 106.588784 117.021748 107.245128 
C 117.678092 107.901472 118.56841 108.270254 119.496621 108.270254 
z
" clip-path="url(#pfca106a0a6)" style="fill: #dd8452; fill-opacity: 0.2; stroke: #dd8452; stroke-width: 0.75"/>
    <path d="M 126.705085 109.73054 
C 127.633296 109.73054 128.523615 109.361758 129.179959 108.705414 
C 129.836303 108.04907 130.205085 107.158751 130.205085 106.23054 
C 130.205085 105.302329 129.836303 104.412011 129.179959 103.755666 
C 128.523615 103.099322 127.633296 102.73054 126.705085 102.73054 
C 125.776875 102.73054 124.886556 103.099322 124.230212 103.755666 
C 123.573868 104.412011 123.205085 105.302329 123.205085 106.23054 
C 123.205085 107.158751 123.573868 108.04907 124.230212 108.705414 
C 124.886556 109.361758 125.776875 109.73054 126.705085 109.73054 
z
" clip-path="url(#pfca106a0a6)" style="fill: #dd8452; fill-opacity: 0.2; stroke: #dd8452; stroke-width: 0.75"/>
    <path d="M 134.143749 90.763526 
C 135.07196 90.763526 135.962278 90.394744 136.618623 89.7384 
C 137.274967 89.082056 137.643749 88.191737 137.643749 87.263526 
C 137.643749 86.335316 137.274967 85.444997 136.618623 84.788653 
C 135.962278 84.132309 135.07196 83.763526 134.143749 83.763526 
C 133.215538 83.763526 132.325219 84.132309 131.668875 84.788653 
C 131.012531 85.444997 130.643749 86.335316 130.643749 87.263526 
C 130.643749 88.191737 131.012531 89.082056 131.668875 89.7384 
C 132.325219 90.394744 133.215538 90.763526 134.143749 90.763526 
z
" clip-path="url(#pfca106a0a6)" style="fill: #dd8452; fill-opacity: 0.2; stroke: #dd8452; stroke-width: 0.75"/>
    <path d="M 143.054527 106.001995 
C 143.982737 106.001995 144.873056 105.633213 145.5294 104.976868 
C 146.185745 104.320524 146.554527 103.430205 146.554527 102.501995 
C 146.554527 101.573784 146.185745 100.683465 145.5294 100.027121 
C 144.873056 99.370777 143.982737 99.001995 143.054527 99.001995 
C 142.126316 99.001995 141.235997 99.370777 140.579653 100.027121 
C 139.923309 100.683465 139.554527 101.573784 139.554527 102.501995 
C 139.554527 103.430205 139.923309 104.320524 140.579653 104.976868 
C 141.235997 105.633213 142.126316 106.001995 143.054527 106.001995 
z
" clip-path="url(#pfca106a0a6)" style="fill: #dd8452; fill-opacity: 0.2; stroke: #dd8452; stroke-width: 0.75"/>
    <path d="M 153.28594 110.61441 
C 154.214151 110.61441 155.10447 110.245627 155.760814 109.589283 
C 156.417158 108.932939 156.78594 108.04262 156.78594 107.11441 
C 156.78594 106.186199 156.417158 105.29588 155.760814 104.639536 
C 155.10447 103.983192 154.214151 103.61441 153.28594 103.61441 
C 152.357729 103.61441 151.467411 103.983192 150.811067 104.639536 
C 150.154722 105.29588 149.78594 106.186199 149.78594 107.11441 
C 149.78594 108.04262 150.154722 108.932939 150.811067 109.589283 
C 151.467411 110.245627 152.357729 110.61441 153.28594 110.61441 
z
" clip-path="url(#pfca106a0a6)" style="fill: #dd8452; fill-opacity: 0.2; stroke: #dd8452; stroke-width: 0.75"/>
    <path d="M 166.584149 119.175997 
C 167.51236 119.175997 168.402679 118.807214 169.059023 118.15087 
C 169.715367 117.494526 170.084149 116.604207 170.084149 115.675997 
C 170.084149 114.747786 169.715367 113.857467 169.059023 113.201123 
C 168.402679 112.544779 167.51236 112.175997 166.584149 112.175997 
C 165.655938 112.175997 164.76562 112.544779 164.109276 113.201123 
C 163.452931 113.857467 163.084149 114.747786 163.084149 115.675997 
C 163.084149 116.604207 163.452931 117.494526 164.109276 118.15087 
C 164.76562 118.807214 165.655938 119.175997 166.584149 119.175997 
z
" clip-path="url(#pfca106a0a6)" style="fill: #dd8452; fill-opacity: 0.2; stroke: #dd8452; stroke-width: 0.75"/>
    <path d="M 181.981809 154.575861 
C 182.91002 154.575861 183.800339 154.207079 184.456683 153.550735 
C 185.113027 152.894391 185.481809 152.004072 185.481809 151.075861 
C 185.481809 150.147651 185.113027 149.257332 184.456683 148.600988 
C 183.800339 147.944644 182.91002 147.575861 181.981809 147.575861 
C 181.053599 147.575861 180.16328 147.944644 179.506936 148.600988 
C 178.850592 149.257332 178.481809 150.147651 178.481809 151.075861 
C 178.481809 152.004072 178.850592 152.894391 179.506936 153.550735 
C 180.16328 154.207079 181.053599 154.575861 181.981809 154.575861 
z
" clip-path="url(#pfca106a0a6)" style="fill: #dd8452; fill-opacity: 0.2; stroke: #dd8452; stroke-width: 0.75"/>
    <path d="M 203.000363 223.250389 
C 203.928574 223.250389 204.818893 222.881607 205.475237 222.225263 
C 206.131581 221.568919 206.500363 220.6786 206.500363 219.750389 
C 206.500363 218.822179 206.131581 217.93186 205.475237 217.275516 
C 204.818893 216.619172 203.928574 216.250389 203.000363 216.250389 
C 202.072152 216.250389 201.181834 216.619172 200.525489 217.275516 
C 199.869145 217.93186 199.500363 218.822179 199.500363 219.750389 
C 199.500363 220.6786 199.869145 221.568919 200.525489 222.225263 
C 201.181834 222.881607 202.072152 223.250389 203.000363 223.250389 
z
" clip-path="url(#pfca106a0a6)" style="fill: #dd8452; fill-opacity: 0.2; stroke: #dd8452; stroke-width: 0.75"/>
    <path d="M 232.82422 221.342925 
C 233.752431 221.342925 234.64275 220.974143 235.299094 220.317799 
C 235.955438 219.661455 236.32422 218.771136 236.32422 217.842925 
C 236.32422 216.914714 235.955438 216.024396 235.299094 215.368051 
C 234.64275 214.711707 233.752431 214.342925 232.82422 214.342925 
C 231.89601 214.342925 231.005691 214.711707 230.349347 215.368051 
C 229.693003 216.024396 229.32422 216.914714 229.32422 217.842925 
C 229.32422 218.771136 229.693003 219.661455 230.349347 220.317799 
C 231.005691 220.974143 231.89601 221.342925 232.82422 221.342925 
z
" clip-path="url(#pfca106a0a6)" style="fill: #dd8452; fill-opacity: 0.2; stroke: #dd8452; stroke-width: 0.75"/>
    <path d="M 278.731277 214.250296 
C 279.659488 214.250296 280.549806 213.881513 281.20615 213.225169 
C 281.862495 212.568825 282.231277 211.678506 282.231277 210.750296 
C 282.231277 209.822085 281.862495 208.931766 281.20615 208.275422 
C 280.549806 207.619078 279.659488 207.250296 278.731277 207.250296 
C 277.803066 207.250296 276.912747 207.619078 276.256403 208.275422 
C 275.600059 208.931766 275.231277 209.822085 275.231277 210.750296 
C 275.231277 211.678506 275.600059 212.568825 276.256403 213.225169 
C 276.912747 213.881513 277.803066 214.250296 278.731277 214.250296 
z
" clip-path="url(#pfca106a0a6)" style="fill: #dd8452; fill-opacity: 0.2; stroke: #dd8452; stroke-width: 0.75"/>
    <path d="M 436.445455 236.027523 
C 437.373665 236.027523 438.263984 235.658741 438.920328 235.002396 
C 439.576672 234.346052 439.945455 233.455733 439.945455 232.527523 
C 439.945455 231.599312 439.576672 230.708993 438.920328 230.052649 
C 438.263984 229.396305 437.373665 229.027523 436.445455 229.027523 
C 435.517244 229.027523 434.626925 229.396305 433.970581 230.052649 
C 433.314237 230.708993 432.945455 231.599312 432.945455 232.527523 
C 432.945455 233.455733 433.314237 234.346052 433.970581 235.002396 
C 434.626925 235.658741 435.517244 236.027523 436.445455 236.027523 
z
" clip-path="url(#pfca106a0a6)" style="fill: #dd8452; fill-opacity: 0.2; stroke: #dd8452; stroke-width: 0.75"/>
   </g>
   <g id="matplotlib.axis_1">
    <g id="xtick_1">
     <g id="line2d_1">
      <defs>
       <path id="md24c442e08" d="M 0 0 
L 0 3.5 
" style="stroke: #323034; stroke-width: 0.8"/>
      </defs>
      <g>
       <use xlink:href="#md24c442e08" x="80.155995" y="301.3275" style="fill: #323034; stroke: #323034; stroke-width: 0.8"/>
      </g>
     </g>
     <g id="text_1">
      <!-- 0 -->
      <g style="fill: #323034" transform="translate(76.155995 319.255) scale(0.16 -0.16)">
       <defs>
        <path id="STIXGeneral-Regular-30" d="M 3046 2112 
Q 3046 1683 2963 1302 
Q 2880 922 2717 602 
Q 2554 282 2266 96 
Q 1978 -90 1600 -90 
Q 1210 -90 915 108 
Q 621 307 461 640 
Q 301 973 227 1350 
Q 154 1728 154 2150 
Q 154 2746 301 3222 
Q 448 3699 790 4012 
Q 1133 4326 1626 4326 
Q 2253 4326 2649 3712 
Q 3046 3098 3046 2112 
z
M 2432 2080 
Q 2432 3091 2217 3625 
Q 2003 4160 1587 4160 
Q 1190 4160 979 3622 
Q 768 3085 768 2106 
Q 768 1120 979 598 
Q 1190 77 1600 77 
Q 2003 77 2217 598 
Q 2432 1120 2432 2080 
z
" transform="scale(0.015625)"/>
       </defs>
       <use xlink:href="#STIXGeneral-Regular-30"/>
      </g>
     </g>
    </g>
    <g id="xtick_2">
     <g id="line2d_2">
      <g>
       <use xlink:href="#md24c442e08" x="151.736438" y="301.3275" style="fill: #323034; stroke: #323034; stroke-width: 0.8"/>
      </g>
     </g>
     <g id="text_2">
      <!-- 1 -->
      <g style="fill: #323034" transform="translate(147.736438 319.255) scale(0.16 -0.16)">
       <defs>
        <path id="STIXGeneral-Regular-31" d="M 2522 0 
L 755 0 
L 755 96 
Q 1107 115 1235 227 
Q 1363 339 1363 608 
L 1363 3482 
Q 1363 3795 1171 3795 
Q 1082 3795 883 3718 
L 710 3654 
L 710 3744 
L 1856 4326 
L 1914 4307 
L 1914 486 
Q 1914 275 2042 185 
Q 2170 96 2522 96 
L 2522 0 
z
" transform="scale(0.015625)"/>
       </defs>
       <use xlink:href="#STIXGeneral-Regular-31"/>
      </g>
     </g>
    </g>
    <g id="xtick_3">
     <g id="line2d_3">
      <g>
       <use xlink:href="#md24c442e08" x="223.31688" y="301.3275" style="fill: #323034; stroke: #323034; stroke-width: 0.8"/>
      </g>
     </g>
     <g id="text_3">
      <!-- 2 -->
      <g style="fill: #323034" transform="translate(219.31688 319.255) scale(0.16 -0.16)">
       <defs>
        <path id="STIXGeneral-Regular-32" d="M 3034 877 
L 2688 0 
L 186 0 
L 186 77 
L 1325 1286 
Q 1773 1754 1965 2144 
Q 2157 2534 2157 2950 
Q 2157 3379 1920 3616 
Q 1683 3853 1267 3853 
Q 922 3853 720 3673 
Q 518 3494 326 3021 
L 192 3053 
Q 301 3648 630 3987 
Q 960 4326 1523 4326 
Q 2054 4326 2380 4006 
Q 2707 3686 2707 3200 
Q 2707 2477 1888 1613 
L 832 486 
L 2330 486 
Q 2541 486 2665 569 
Q 2790 653 2944 915 
L 3034 877 
z
" transform="scale(0.015625)"/>
       </defs>
       <use xlink:href="#STIXGeneral-Regular-32"/>
      </g>
     </g>
    </g>
    <g id="xtick_4">
     <g id="line2d_4">
      <g>
       <use xlink:href="#md24c442e08" x="294.897322" y="301.3275" style="fill: #323034; stroke: #323034; stroke-width: 0.8"/>
      </g>
     </g>
     <g id="text_4">
      <!-- 3 -->
      <g style="fill: #323034" transform="translate(290.897322 319.255) scale(0.16 -0.16)">
       <defs>
        <path id="STIXGeneral-Regular-33" d="M 390 3264 
L 288 3290 
Q 435 3770 748 4048 
Q 1062 4326 1542 4326 
Q 1990 4326 2265 4083 
Q 2541 3840 2541 3450 
Q 2541 2925 1946 2566 
Q 2298 2413 2477 2227 
Q 2758 1914 2758 1402 
Q 2758 890 2464 506 
Q 2246 211 1840 60 
Q 1434 -90 979 -90 
Q 262 -90 262 275 
Q 262 378 339 442 
Q 416 506 525 506 
Q 685 506 915 339 
Q 1197 141 1466 141 
Q 1818 141 2058 425 
Q 2298 710 2298 1120 
Q 2298 1856 1632 2048 
Q 1434 2112 979 2112 
L 979 2202 
Q 1338 2323 1517 2432 
Q 2035 2726 2035 3290 
Q 2035 3610 1852 3776 
Q 1670 3942 1344 3942 
Q 768 3942 390 3264 
z
" transform="scale(0.015625)"/>
       </defs>
       <use xlink:href="#STIXGeneral-Regular-33"/>
      </g>
     </g>
    </g>
    <g id="xtick_5">
     <g id="line2d_5">
      <g>
       <use xlink:href="#md24c442e08" x="366.477764" y="301.3275" style="fill: #323034; stroke: #323034; stroke-width: 0.8"/>
      </g>
     </g>
     <g id="text_5">
      <!-- 4 -->
      <g style="fill: #323034" transform="translate(362.477764 319.255) scale(0.16 -0.16)">
       <defs>
        <path id="STIXGeneral-Regular-34" d="M 3027 1069 
L 2368 1069 
L 2368 0 
L 1869 0 
L 1869 1069 
L 77 1069 
L 77 1478 
L 2086 4326 
L 2368 4326 
L 2368 1478 
L 3027 1478 
L 3027 1069 
z
M 1869 1478 
L 1869 3674 
L 333 1478 
L 1869 1478 
z
" transform="scale(0.015625)"/>
       </defs>
       <use xlink:href="#STIXGeneral-Regular-34"/>
      </g>
     </g>
    </g>
    <g id="xtick_6">
     <g id="line2d_6">
      <g>
       <use xlink:href="#md24c442e08" x="438.058206" y="301.3275" style="fill: #323034; stroke: #323034; stroke-width: 0.8"/>
      </g>
     </g>
     <g id="text_6">
      <!-- 5 -->
      <g style="fill: #323034" transform="translate(434.058206 319.255) scale(0.16 -0.16)">
       <defs>
        <path id="STIXGeneral-Regular-35" d="M 2803 4358 
L 2573 3814 
Q 2534 3731 2400 3731 
L 1158 3731 
L 902 3187 
Q 1606 3053 1920 2896 
Q 2234 2739 2502 2368 
Q 2726 2061 2726 1555 
Q 2726 1094 2576 780 
Q 2426 467 2099 224 
Q 1664 -90 1011 -90 
Q 646 -90 422 19 
Q 198 128 198 307 
Q 198 550 486 550 
Q 717 550 960 352 
Q 1210 147 1414 147 
Q 1747 147 2012 480 
Q 2278 813 2278 1229 
Q 2278 1843 1850 2189 
Q 1293 2637 486 2637 
Q 410 2637 410 2688 
L 416 2720 
L 1114 4237 
L 2438 4237 
Q 2547 4237 2608 4269 
Q 2669 4301 2746 4403 
L 2803 4358 
z
" transform="scale(0.015625)"/>
       </defs>
       <use xlink:href="#STIXGeneral-Regular-35"/>
      </g>
     </g>
    </g>
    <g id="text_7">
     <!-- age -->
     <g transform="translate(247.795 336.64) scale(0.16 -0.16)">
      <defs>
       <path id="STIXGeneral-Regular-61" d="M 2829 422 
L 2829 243 
Q 2586 -64 2253 -64 
Q 1888 -64 1843 403 
L 1837 403 
Q 1427 -64 909 -64 
Q 608 -64 422 112 
Q 237 288 237 602 
Q 237 1050 685 1350 
Q 992 1555 1837 1869 
L 1837 2214 
Q 1837 2502 1699 2646 
Q 1562 2790 1338 2790 
Q 1146 2790 1018 2697 
Q 890 2605 890 2477 
Q 890 2419 909 2348 
Q 928 2278 928 2208 
Q 928 2112 841 2029 
Q 755 1946 634 1946 
Q 525 1946 441 2029 
Q 358 2112 358 2240 
Q 358 2547 685 2752 
Q 986 2944 1421 2944 
Q 1939 2944 2176 2656 
Q 2291 2522 2323 2384 
Q 2355 2246 2355 1946 
L 2355 723 
Q 2355 301 2554 301 
Q 2682 301 2829 422 
z
M 1837 813 
L 1837 1715 
Q 1248 1510 1018 1293 
Q 800 1094 800 800 
Q 800 557 921 432 
Q 1043 307 1242 307 
Q 1453 307 1613 410 
Q 1747 506 1792 589 
Q 1837 672 1837 813 
z
" transform="scale(0.015625)"/>
       <path id="STIXGeneral-Regular-67" d="M 3008 2483 
L 2477 2483 
Q 2598 2208 2598 1946 
Q 2598 1453 2265 1203 
Q 1933 954 1600 954 
Q 1530 954 1357 973 
L 1235 986 
Q 1107 947 979 812 
Q 851 678 851 582 
Q 851 435 1350 410 
L 2176 371 
Q 2528 358 2739 172 
Q 2950 -13 2950 -314 
Q 2950 -685 2566 -986 
Q 2035 -1395 1286 -1395 
Q 826 -1395 502 -1212 
Q 179 -1030 179 -774 
Q 179 -595 320 -419 
Q 461 -243 806 6 
Q 602 102 534 172 
Q 467 243 467 346 
Q 467 531 762 787 
Q 909 915 1037 1043 
Q 717 1203 579 1401 
Q 442 1600 442 1901 
Q 442 2336 752 2640 
Q 1062 2944 1510 2944 
Q 1766 2944 2022 2848 
L 2163 2797 
Q 2349 2733 2515 2733 
L 3008 2733 
L 3008 2483 
z
M 973 2163 
L 973 2144 
Q 973 1683 1155 1398 
Q 1338 1114 1632 1114 
Q 1850 1114 1978 1270 
Q 2106 1427 2106 1690 
Q 2106 2112 1914 2464 
Q 1754 2765 1446 2765 
Q 1222 2765 1097 2605 
Q 973 2445 973 2163 
z
M 2771 -410 
Q 2771 -230 2595 -163 
Q 2419 -96 1978 -96 
Q 1344 -96 941 -13 
Q 749 -243 688 -348 
Q 627 -454 627 -563 
Q 627 -774 880 -902 
Q 1133 -1030 1555 -1030 
Q 2099 -1030 2435 -860 
Q 2771 -691 2771 -410 
z
" transform="scale(0.015625)"/>
       <path id="STIXGeneral-Regular-65" d="M 2611 1050 
L 2714 1005 
Q 2330 -64 1376 -64 
Q 813 -64 486 329 
Q 160 723 160 1389 
Q 160 2074 525 2509 
Q 890 2944 1485 2944 
Q 2061 2944 2374 2502 
Q 2560 2246 2592 1773 
L 621 1773 
Q 646 1370 700 1158 
Q 755 947 915 730 
Q 1184 378 1626 378 
Q 1939 378 2153 531 
Q 2368 685 2611 1050 
z
M 634 1978 
L 1939 1978 
Q 1882 2381 1750 2547 
Q 1619 2714 1312 2714 
Q 1043 2714 864 2525 
Q 685 2336 634 1978 
z
" transform="scale(0.015625)"/>
      </defs>
      <use xlink:href="#STIXGeneral-Regular-61"/>
      <use xlink:href="#STIXGeneral-Regular-67" x="44.399994"/>
      <use xlink:href="#STIXGeneral-Regular-65" x="94.399979"/>
     </g>
    </g>
   </g>
   <g id="matplotlib.axis_2">
    <g id="ytick_1">
     <g id="line2d_7">
      <defs>
       <path id="me41cc66304" d="M 0 0 
L -3.5 0 
" style="stroke: #323034; stroke-width: 0.8"/>
      </defs>
      <g>
       <use xlink:href="#me41cc66304" x="63.6" y="274.959998" style="fill: #323034; stroke: #323034; stroke-width: 0.8"/>
      </g>
     </g>
     <g id="text_8">
      <!-- 1000 -->
      <g style="fill: #323034" transform="translate(24.6 280.423748) scale(0.16 -0.16)">
       <use xlink:href="#STIXGeneral-Regular-31"/>
       <use xlink:href="#STIXGeneral-Regular-30" x="49.999985"/>
       <use xlink:href="#STIXGeneral-Regular-30" x="99.999969"/>
       <use xlink:href="#STIXGeneral-Regular-30" x="149.999954"/>
      </g>
     </g>
    </g>
    <g id="ytick_2">
     <g id="line2d_8">
      <g>
       <use xlink:href="#me41cc66304" x="63.6" y="218.794662" style="fill: #323034; stroke: #323034; stroke-width: 0.8"/>
      </g>
     </g>
     <g id="text_9">
      <!-- 2000 -->
      <g style="fill: #323034" transform="translate(24.6 224.258412) scale(0.16 -0.16)">
       <use xlink:href="#STIXGeneral-Regular-32"/>
       <use xlink:href="#STIXGeneral-Regular-30" x="49.999985"/>
       <use xlink:href="#STIXGeneral-Regular-30" x="99.999969"/>
       <use xlink:href="#STIXGeneral-Regular-30" x="149.999954"/>
      </g>
     </g>
    </g>
    <g id="ytick_3">
     <g id="line2d_9">
      <g>
       <use xlink:href="#me41cc66304" x="63.6" y="162.629326" style="fill: #323034; stroke: #323034; stroke-width: 0.8"/>
      </g>
     </g>
     <g id="text_10">
      <!-- 3000 -->
      <g style="fill: #323034" transform="translate(24.6 168.093076) scale(0.16 -0.16)">
       <use xlink:href="#STIXGeneral-Regular-33"/>
       <use xlink:href="#STIXGeneral-Regular-30" x="49.999985"/>
       <use xlink:href="#STIXGeneral-Regular-30" x="99.999969"/>
       <use xlink:href="#STIXGeneral-Regular-30" x="149.999954"/>
      </g>
     </g>
    </g>
    <g id="ytick_4">
     <g id="line2d_10">
      <g>
       <use xlink:href="#me41cc66304" x="63.6" y="106.463989" style="fill: #323034; stroke: #323034; stroke-width: 0.8"/>
      </g>
     </g>
     <g id="text_11">
      <!-- 4000 -->
      <g style="fill: #323034" transform="translate(24.6 111.927739) scale(0.16 -0.16)">
       <use xlink:href="#STIXGeneral-Regular-34"/>
       <use xlink:href="#STIXGeneral-Regular-30" x="49.999985"/>
       <use xlink:href="#STIXGeneral-Regular-30" x="99.999969"/>
       <use xlink:href="#STIXGeneral-Regular-30" x="149.999954"/>
      </g>
     </g>
    </g>
    <g id="ytick_5">
     <g id="line2d_11">
      <g>
       <use xlink:href="#me41cc66304" x="63.6" y="50.298653" style="fill: #323034; stroke: #323034; stroke-width: 0.8"/>
      </g>
     </g>
     <g id="text_12">
      <!-- 5000 -->
      <g style="fill: #323034" transform="translate(24.6 55.762403) scale(0.16 -0.16)">
       <use xlink:href="#STIXGeneral-Regular-35"/>
       <use xlink:href="#STIXGeneral-Regular-30" x="49.999985"/>
       <use xlink:href="#STIXGeneral-Regular-30" x="99.999969"/>
       <use xlink:href="#STIXGeneral-Regular-30" x="149.999954"/>
      </g>
     </g>
    </g>
    <g id="text_13">
     <!-- sales -->
     <g transform="translate(18.1275 178.28125) rotate(-90) scale(0.16 -0.16)">
      <defs>
       <path id="STIXGeneral-Regular-73" d="M 998 1926 
L 1664 1523 
Q 1984 1331 2105 1164 
Q 2227 998 2227 736 
Q 2227 416 1961 176 
Q 1696 -64 1331 -64 
Q 1030 -64 864 -6 
Q 691 51 570 51 
Q 461 51 416 -26 
L 333 -26 
L 333 979 
L 435 979 
Q 538 512 730 294 
Q 922 77 1248 77 
Q 1485 77 1632 211 
Q 1779 346 1779 550 
Q 1779 845 1440 1030 
L 1094 1222 
Q 326 1651 326 2150 
Q 326 2522 566 2730 
Q 806 2938 1210 2938 
Q 1491 2938 1638 2867 
Q 1754 2816 1818 2816 
Q 1862 2816 1920 2880 
L 1990 2880 
L 2022 2010 
L 1926 2010 
Q 1818 2445 1654 2621 
Q 1491 2797 1203 2797 
Q 986 2797 854 2688 
Q 723 2579 723 2362 
Q 723 2253 796 2128 
Q 870 2003 998 1926 
z
" transform="scale(0.015625)"/>
       <path id="STIXGeneral-Regular-6c" d="M 1645 0 
L 134 0 
L 134 96 
Q 435 122 531 221 
Q 627 320 627 589 
L 627 3590 
Q 627 3821 569 3910 
Q 512 4000 358 4000 
Q 224 4000 122 3987 
L 122 4090 
Q 730 4237 1133 4371 
L 1165 4346 
L 1165 557 
Q 1165 288 1254 201 
Q 1344 115 1645 96 
L 1645 0 
z
" transform="scale(0.015625)"/>
      </defs>
      <use xlink:href="#STIXGeneral-Regular-73"/>
      <use xlink:href="#STIXGeneral-Regular-61" x="38.899994"/>
      <use xlink:href="#STIXGeneral-Regular-6c" x="83.299988"/>
      <use xlink:href="#STIXGeneral-Regular-65" x="111.099976"/>
      <use xlink:href="#STIXGeneral-Regular-73" x="155.499969"/>
     </g>
    </g>
   </g>
   <g id="LineCollection_1">
    <path d="M 81.354545 244.511145 
L 81.354545 182.936139 
" clip-path="url(#pfca106a0a6)" style="fill: none; stroke: #bc80bd; stroke-opacity: 0.2; stroke-width: 2"/>
    <path d="M 84.446204 229.955887 
L 84.446204 176.816745 
" clip-path="url(#pfca106a0a6)" style="fill: none; stroke: #bc80bd; stroke-opacity: 0.2; stroke-width: 2"/>
    <path d="M 87.701483 238.950495 
L 87.701483 192.086762 
" clip-path="url(#pfca106a0a6)" style="fill: none; stroke: #bc80bd; stroke-opacity: 0.2; stroke-width: 2"/>
    <path d="M 90.751731 217.23384 
L 90.751731 162.54864 
" clip-path="url(#pfca106a0a6)" style="fill: none; stroke: #bc80bd; stroke-opacity: 0.2; stroke-width: 2"/>
    <path d="M 94.192262 222.489704 
L 94.192262 167.485561 
" clip-path="url(#pfca106a0a6)" style="fill: none; stroke: #bc80bd; stroke-opacity: 0.2; stroke-width: 2"/>
    <path d="M 98.37274 221.124796 
L 98.37274 160.646258 
" clip-path="url(#pfca106a0a6)" style="fill: none; stroke: #bc80bd; stroke-opacity: 0.2; stroke-width: 2"/>
    <path d="M 102.396034 210.720203 
L 102.396034 135.004594 
" clip-path="url(#pfca106a0a6)" style="fill: none; stroke: #bc80bd; stroke-opacity: 0.2; stroke-width: 2"/>
    <path d="M 106.538099 237.681743 
L 106.538099 179.770661 
" clip-path="url(#pfca106a0a6)" style="fill: none; stroke: #bc80bd; stroke-opacity: 0.2; stroke-width: 2"/>
    <path d="M 111.536058 228.519093 
L 111.536058 164.931486 
" clip-path="url(#pfca106a0a6)" style="fill: none; stroke: #bc80bd; stroke-opacity: 0.2; stroke-width: 2"/>
    <path d="M 117.109732 223.783288 
L 117.109732 158.934671 
" clip-path="url(#pfca106a0a6)" style="fill: none; stroke: #bc80bd; stroke-opacity: 0.2; stroke-width: 2"/>
    <path d="M 122.510757 216.740541 
L 122.510757 144.996121 
" clip-path="url(#pfca106a0a6)" style="fill: none; stroke: #bc80bd; stroke-opacity: 0.2; stroke-width: 2"/>
    <path d="M 129.272144 205.40672 
L 129.272144 132.78724 
" clip-path="url(#pfca106a0a6)" style="fill: none; stroke: #bc80bd; stroke-opacity: 0.2; stroke-width: 2"/>
    <path d="M 136.982588 207.581424 
L 136.982588 132.251154 
" clip-path="url(#pfca106a0a6)" style="fill: none; stroke: #bc80bd; stroke-opacity: 0.2; stroke-width: 2"/>
    <path d="M 144.865326 199.446889 
L 144.865326 117.845041 
" clip-path="url(#pfca106a0a6)" style="fill: none; stroke: #bc80bd; stroke-opacity: 0.2; stroke-width: 2"/>
    <path d="M 154.107241 210.132573 
L 154.107241 114.932845 
" clip-path="url(#pfca106a0a6)" style="fill: none; stroke: #bc80bd; stroke-opacity: 0.2; stroke-width: 2"/>
    <path d="M 166.560756 208.368473 
L 166.560756 112.908163 
" clip-path="url(#pfca106a0a6)" style="fill: none; stroke: #bc80bd; stroke-opacity: 0.2; stroke-width: 2"/>
    <path d="M 182.625401 192.967124 
L 182.625401 106.115836 
" clip-path="url(#pfca106a0a6)" style="fill: none; stroke: #bc80bd; stroke-opacity: 0.2; stroke-width: 2"/>
    <path d="M 204.807633 202.0637 
L 204.807633 106.387231 
" clip-path="url(#pfca106a0a6)" style="fill: none; stroke: #bc80bd; stroke-opacity: 0.2; stroke-width: 2"/>
    <path d="M 238.9085 218.939627 
L 238.9085 124.698662 
" clip-path="url(#pfca106a0a6)" style="fill: none; stroke: #bc80bd; stroke-opacity: 0.2; stroke-width: 2"/>
    <path d="M 285.716666 208.009516 
L 285.716666 106.638784 
" clip-path="url(#pfca106a0a6)" style="fill: none; stroke: #bc80bd; stroke-opacity: 0.2; stroke-width: 2"/>
    <path d="M 430.875534 285.2819 
L 430.875534 139.879544 
" clip-path="url(#pfca106a0a6)" style="fill: none; stroke: #bc80bd; stroke-opacity: 0.2; stroke-width: 2"/>
   </g>
   <g id="LineCollection_2">
    <path d="M 81.482743 248.343927 
L 81.482743 181.98312 
" clip-path="url(#pfca106a0a6)" style="fill: none; stroke: #fb8072; stroke-opacity: 0.2; stroke-width: 2"/>
    <path d="M 84.10104 223.539012 
L 84.10104 164.351579 
" clip-path="url(#pfca106a0a6)" style="fill: none; stroke: #fb8072; stroke-opacity: 0.2; stroke-width: 2"/>
    <path d="M 87.121431 221.357926 
L 87.121431 156.711834 
" clip-path="url(#pfca106a0a6)" style="fill: none; stroke: #fb8072; stroke-opacity: 0.2; stroke-width: 2"/>
    <path d="M 90.519061 223.955316 
L 90.519061 144.491974 
" clip-path="url(#pfca106a0a6)" style="fill: none; stroke: #fb8072; stroke-opacity: 0.2; stroke-width: 2"/>
    <path d="M 94.356743 197.182825 
L 94.356743 129.472358 
" clip-path="url(#pfca106a0a6)" style="fill: none; stroke: #fb8072; stroke-opacity: 0.2; stroke-width: 2"/>
    <path d="M 98.658443 181.902243 
L 98.658443 105.385641 
" clip-path="url(#pfca106a0a6)" style="fill: none; stroke: #fb8072; stroke-opacity: 0.2; stroke-width: 2"/>
    <path d="M 103.109274 189.075262 
L 103.109274 82.474929 
" clip-path="url(#pfca106a0a6)" style="fill: none; stroke: #fb8072; stroke-opacity: 0.2; stroke-width: 2"/>
    <path d="M 108.135414 179.403247 
L 108.135414 81.920408 
" clip-path="url(#pfca106a0a6)" style="fill: none; stroke: #fb8072; stroke-opacity: 0.2; stroke-width: 2"/>
    <path d="M 113.429403 157.855763 
L 113.429403 62.616675 
" clip-path="url(#pfca106a0a6)" style="fill: none; stroke: #fb8072; stroke-opacity: 0.2; stroke-width: 2"/>
    <path d="M 119.496621 156.165486 
L 119.496621 53.375023 
" clip-path="url(#pfca106a0a6)" style="fill: none; stroke: #fb8072; stroke-opacity: 0.2; stroke-width: 2"/>
    <path d="M 126.705085 151.685828 
L 126.705085 60.775252 
" clip-path="url(#pfca106a0a6)" style="fill: none; stroke: #fb8072; stroke-opacity: 0.2; stroke-width: 2"/>
    <path d="M 134.143749 137.799553 
L 134.143749 36.7275 
" clip-path="url(#pfca106a0a6)" style="fill: none; stroke: #fb8072; stroke-opacity: 0.2; stroke-width: 2"/>
    <path d="M 143.054527 155.162014 
L 143.054527 49.841975 
" clip-path="url(#pfca106a0a6)" style="fill: none; stroke: #fb8072; stroke-opacity: 0.2; stroke-width: 2"/>
    <path d="M 153.28594 157.534142 
L 153.28594 56.694677 
" clip-path="url(#pfca106a0a6)" style="fill: none; stroke: #fb8072; stroke-opacity: 0.2; stroke-width: 2"/>
    <path d="M 166.584149 167.8697 
L 166.584149 63.482293 
" clip-path="url(#pfca106a0a6)" style="fill: none; stroke: #fb8072; stroke-opacity: 0.2; stroke-width: 2"/>
    <path d="M 181.981809 197.283775 
L 181.981809 104.867948 
" clip-path="url(#pfca106a0a6)" style="fill: none; stroke: #fb8072; stroke-opacity: 0.2; stroke-width: 2"/>
    <path d="M 203.000363 261.401382 
L 203.000363 178.099397 
" clip-path="url(#pfca106a0a6)" style="fill: none; stroke: #fb8072; stroke-opacity: 0.2; stroke-width: 2"/>
    <path d="M 232.82422 256.525574 
L 232.82422 179.160276 
" clip-path="url(#pfca106a0a6)" style="fill: none; stroke: #fb8072; stroke-opacity: 0.2; stroke-width: 2"/>
    <path d="M 278.731277 258.035921 
L 278.731277 163.46467 
" clip-path="url(#pfca106a0a6)" style="fill: none; stroke: #fb8072; stroke-opacity: 0.2; stroke-width: 2"/>
    <path d="M 436.445455 288.7275 
L 436.445455 176.327545 
" clip-path="url(#pfca106a0a6)" style="fill: none; stroke: #fb8072; stroke-opacity: 0.2; stroke-width: 2"/>
   </g>
   <g id="line2d_12"/>
   <g id="line2d_13"/>
   <g id="patch_3">
    <path d="M 63.6 301.3275 
L 63.6 24.1275 
" style="fill: none; stroke: #000000; stroke-width: 0.6; stroke-linejoin: miter; stroke-linecap: square"/>
   </g>
   <g id="patch_4">
    <path d="M 63.6 301.3275 
L 454.2 301.3275 
" style="fill: none; stroke: #000000; stroke-width: 0.6; stroke-linejoin: miter; stroke-linecap: square"/>
   </g>
   <g id="text_14">
    <!-- Binscatter: sales as a function of age conditioned on products -->
    <g style="fill: #323034" transform="translate(63.6 18.1275) scale(0.16 -0.16)">
     <defs>
      <path id="STIXGeneral-Regular-42" d="M 2701 2234 
L 2701 2227 
Q 3181 2150 3482 1875 
Q 3795 1594 3795 1139 
Q 3795 608 3379 304 
Q 2963 0 2266 0 
L 109 0 
L 109 122 
Q 486 134 604 246 
Q 723 358 723 723 
L 723 3520 
Q 723 3891 614 3990 
Q 506 4090 109 4115 
L 109 4237 
L 1901 4237 
Q 2726 4237 3152 3958 
Q 3578 3680 3578 3168 
Q 3578 2733 3315 2502 
Q 3130 2342 2701 2234 
z
M 1376 2342 
L 1965 2342 
Q 2925 2342 2925 3136 
Q 2925 3546 2640 3773 
Q 2355 4000 1792 4000 
L 1530 4000 
Q 1376 4000 1376 3795 
L 1376 2342 
z
M 1376 2086 
L 1376 525 
Q 1376 365 1462 301 
Q 1549 237 1773 237 
Q 2208 237 2413 285 
Q 2618 333 2816 512 
Q 3059 723 3059 1146 
Q 3059 1632 2758 1830 
Q 2688 1882 2617 1917 
Q 2547 1952 2492 1974 
Q 2438 1997 2348 2016 
Q 2259 2035 2211 2044 
Q 2163 2054 2041 2060 
Q 1920 2067 1862 2070 
Q 1805 2074 1635 2080 
Q 1466 2086 1376 2086 
z
" transform="scale(0.015625)"/>
      <path id="STIXGeneral-Regular-69" d="M 1152 4045 
Q 1152 3904 1056 3811 
Q 960 3718 819 3718 
Q 685 3718 592 3811 
Q 499 3904 499 4045 
Q 499 4179 595 4275 
Q 691 4371 826 4371 
Q 966 4371 1059 4275 
Q 1152 4179 1152 4045 
z
M 1619 0 
L 102 0 
L 102 96 
Q 435 115 521 211 
Q 608 307 608 666 
L 608 2118 
Q 608 2342 563 2432 
Q 518 2522 397 2522 
Q 243 2522 128 2490 
L 128 2592 
L 1120 2944 
L 1146 2918 
L 1146 672 
Q 1146 314 1226 218 
Q 1306 122 1619 96 
L 1619 0 
z
" transform="scale(0.015625)"/>
      <path id="STIXGeneral-Regular-6e" d="M 3104 0 
L 1773 0 
L 1779 96 
Q 2016 115 2096 233 
Q 2176 352 2176 672 
L 2176 1946 
Q 2176 2592 1709 2592 
Q 1549 2592 1408 2515 
Q 1267 2438 1050 2227 
L 1050 461 
Q 1050 269 1136 192 
Q 1222 115 1466 96 
L 1466 0 
L 115 0 
L 115 96 
Q 358 115 435 214 
Q 512 314 512 602 
L 512 2157 
Q 512 2394 467 2483 
Q 422 2573 288 2573 
Q 160 2573 102 2547 
L 102 2656 
Q 550 2784 979 2944 
L 1030 2925 
L 1030 2426 
L 1037 2426 
Q 1491 2944 1958 2944 
Q 2323 2944 2518 2688 
Q 2714 2432 2714 1958 
L 2714 544 
Q 2714 288 2790 205 
Q 2867 122 3104 96 
L 3104 0 
z
" transform="scale(0.015625)"/>
      <path id="STIXGeneral-Regular-63" d="M 2547 998 
L 2637 941 
Q 2362 403 2112 205 
Q 1786 -64 1376 -64 
Q 845 -64 502 336 
Q 160 736 160 1357 
Q 160 2170 698 2618 
Q 1094 2944 1562 2944 
Q 1965 2944 2256 2749 
Q 2547 2554 2547 2285 
Q 2547 2176 2457 2096 
Q 2368 2016 2246 2016 
Q 2022 2016 1939 2310 
L 1901 2451 
Q 1850 2630 1773 2694 
Q 1696 2758 1523 2758 
Q 1133 2758 893 2451 
Q 653 2144 653 1645 
Q 653 1094 928 745 
Q 1203 397 1645 397 
Q 1920 397 2118 528 
Q 2317 659 2547 998 
z
" transform="scale(0.015625)"/>
      <path id="STIXGeneral-Regular-74" d="M 1702 493 
L 1786 422 
Q 1478 -64 1011 -64 
Q 448 -64 448 749 
L 448 2675 
L 109 2675 
Q 83 2694 83 2720 
Q 83 2771 192 2842 
Q 435 2982 813 3526 
Q 826 3546 874 3606 
Q 922 3667 941 3706 
Q 986 3706 986 3622 
L 986 2880 
L 1632 2880 
L 1632 2675 
L 986 2675 
L 986 845 
Q 986 538 1062 403 
Q 1139 269 1318 269 
Q 1510 269 1702 493 
z
" transform="scale(0.015625)"/>
      <path id="STIXGeneral-Regular-72" d="M 1024 2931 
L 1024 2342 
Q 1267 2688 1430 2816 
Q 1594 2944 1792 2944 
Q 1958 2944 2051 2854 
Q 2144 2765 2144 2605 
Q 2144 2470 2077 2393 
Q 2010 2317 1894 2317 
Q 1773 2317 1638 2445 
Q 1536 2541 1472 2541 
Q 1338 2541 1181 2355 
Q 1024 2170 1024 2016 
L 1024 576 
Q 1024 301 1133 205 
Q 1242 109 1568 96 
L 1568 0 
L 32 0 
L 32 96 
Q 339 154 412 224 
Q 486 294 486 538 
L 486 2138 
Q 486 2349 438 2435 
Q 390 2522 269 2522 
Q 166 2522 45 2496 
L 45 2598 
Q 448 2726 992 2944 
L 1024 2931 
z
" transform="scale(0.015625)"/>
      <path id="STIXGeneral-Regular-3a" d="M 1123 2832 
Q 1229 2726 1229 2579 
Q 1229 2432 1126 2329 
Q 1024 2227 877 2227 
Q 730 2227 624 2332 
Q 518 2438 518 2579 
Q 518 2733 620 2835 
Q 723 2938 877 2938 
Q 1018 2938 1123 2832 
z
M 1229 282 
Q 1229 141 1126 35 
Q 1024 -70 877 -70 
Q 730 -70 624 35 
Q 518 141 518 282 
Q 518 435 620 537 
Q 723 640 877 640 
Q 1018 640 1123 534 
Q 1229 429 1229 282 
z
" transform="scale(0.015625)"/>
      <path id="STIXGeneral-Regular-20" transform="scale(0.015625)"/>
      <path id="STIXGeneral-Regular-66" d="M 134 2880 
L 659 2880 
Q 666 3264 710 3478 
Q 755 3693 883 3910 
Q 1152 4371 1786 4371 
Q 2074 4371 2262 4259 
Q 2451 4147 2451 3974 
Q 2451 3866 2374 3789 
Q 2298 3712 2182 3712 
Q 2029 3712 1894 3942 
Q 1741 4192 1555 4192 
Q 1197 4192 1197 3622 
L 1197 2880 
L 1978 2880 
L 1978 2675 
L 1197 2675 
L 1197 666 
Q 1197 307 1299 208 
Q 1402 109 1792 96 
L 1792 0 
L 128 0 
L 128 96 
Q 474 115 566 214 
Q 659 314 659 666 
L 659 2675 
L 134 2675 
L 134 2880 
z
" transform="scale(0.015625)"/>
      <path id="STIXGeneral-Regular-75" d="M 3072 320 
L 3072 230 
Q 2573 96 2195 -58 
L 2163 -38 
L 2163 486 
L 2150 486 
Q 1747 -64 1235 -64 
Q 870 -64 662 160 
Q 454 384 454 755 
L 454 2362 
Q 454 2598 371 2688 
Q 288 2778 58 2790 
L 58 2880 
L 992 2880 
L 992 813 
Q 992 595 1123 451 
Q 1254 307 1446 307 
Q 1760 307 1984 506 
Q 2067 582 2099 649 
Q 2131 717 2131 877 
L 2131 2355 
Q 2131 2605 2041 2678 
Q 1952 2752 1658 2771 
L 1658 2880 
L 2669 2880 
L 2669 685 
Q 2669 461 2742 390 
Q 2816 320 3034 320 
L 3072 320 
z
" transform="scale(0.015625)"/>
      <path id="STIXGeneral-Regular-6f" d="M 3008 1478 
Q 3008 806 2608 371 
Q 2208 -64 1568 -64 
Q 979 -64 582 368 
Q 186 800 186 1459 
Q 186 2125 582 2534 
Q 979 2944 1626 2944 
Q 2221 2944 2614 2537 
Q 3008 2131 3008 1478 
z
M 2432 1306 
Q 2432 2035 2112 2445 
Q 1856 2765 1504 2765 
Q 1171 2765 966 2493 
Q 762 2221 762 1747 
Q 762 928 1101 435 
Q 1318 115 1677 115 
Q 2029 115 2230 432 
Q 2432 749 2432 1306 
z
" transform="scale(0.015625)"/>
      <path id="STIXGeneral-Regular-64" d="M 3142 269 
L 2202 -64 
L 2176 -45 
L 2176 365 
Q 1869 -64 1357 -64 
Q 826 -64 499 317 
Q 173 698 173 1312 
Q 173 1990 563 2467 
Q 954 2944 1504 2944 
Q 1850 2944 2176 2669 
L 2176 3667 
Q 2176 3866 2118 3930 
Q 2061 3994 1882 3994 
Q 1792 3994 1741 3987 
L 1741 4090 
Q 2323 4243 2682 4371 
L 2714 4358 
L 2714 730 
Q 2714 506 2768 435 
Q 2822 365 2995 365 
Q 3034 365 3142 371 
L 3142 269 
z
M 2176 653 
L 2176 2125 
Q 2176 2381 1981 2573 
Q 1786 2765 1523 2765 
Q 1158 2765 940 2438 
Q 723 2112 723 1568 
Q 723 979 963 624 
Q 1203 269 1606 269 
Q 1907 269 2080 474 
Q 2176 582 2176 653 
z
" transform="scale(0.015625)"/>
      <path id="STIXGeneral-Regular-70" d="M 1018 2931 
L 1018 2438 
Q 1421 2944 1939 2944 
Q 2406 2944 2707 2560 
Q 3008 2176 3008 1581 
Q 3008 883 2621 409 
Q 2234 -64 1664 -64 
Q 1466 -64 1328 -6 
Q 1190 51 1018 211 
L 1018 -794 
Q 1018 -1094 1120 -1180 
Q 1222 -1267 1581 -1274 
L 1581 -1389 
L 32 -1389 
L 32 -1280 
Q 314 -1254 397 -1171 
Q 480 -1088 480 -838 
L 480 2157 
Q 480 2381 429 2451 
Q 378 2522 218 2522 
Q 115 2522 58 2515 
L 58 2618 
Q 506 2752 979 2944 
L 1018 2931 
z
M 1018 2138 
L 1018 563 
Q 1018 422 1238 281 
Q 1459 141 1683 141 
Q 2029 141 2243 467 
Q 2458 794 2458 1325 
Q 2458 1888 2243 2224 
Q 2029 2560 1670 2560 
Q 1446 2560 1232 2419 
Q 1018 2278 1018 2138 
z
" transform="scale(0.015625)"/>
     </defs>
     <use xlink:href="#STIXGeneral-Regular-42"/>
     <use xlink:href="#STIXGeneral-Regular-69" x="66.699997"/>
     <use xlink:href="#STIXGeneral-Regular-6e" x="94.499985"/>
     <use xlink:href="#STIXGeneral-Regular-73" x="144.499969"/>
     <use xlink:href="#STIXGeneral-Regular-63" x="183.399963"/>
     <use xlink:href="#STIXGeneral-Regular-61" x="227.799957"/>
     <use xlink:href="#STIXGeneral-Regular-74" x="272.199951"/>
     <use xlink:href="#STIXGeneral-Regular-74" x="299.999939"/>
     <use xlink:href="#STIXGeneral-Regular-65" x="327.799927"/>
     <use xlink:href="#STIXGeneral-Regular-72" x="372.199921"/>
     <use xlink:href="#STIXGeneral-Regular-3a" x="405.499908"/>
     <use xlink:href="#STIXGeneral-Regular-20" x="433.299896"/>
     <use xlink:href="#STIXGeneral-Regular-73" x="458.299881"/>
     <use xlink:href="#STIXGeneral-Regular-61" x="497.199875"/>
     <use xlink:href="#STIXGeneral-Regular-6c" x="541.599869"/>
     <use xlink:href="#STIXGeneral-Regular-65" x="569.399857"/>
     <use xlink:href="#STIXGeneral-Regular-73" x="613.79985"/>
     <use xlink:href="#STIXGeneral-Regular-20" x="652.699844"/>
     <use xlink:href="#STIXGeneral-Regular-61" x="677.699829"/>
     <use xlink:href="#STIXGeneral-Regular-73" x="722.099823"/>
     <use xlink:href="#STIXGeneral-Regular-20" x="760.999817"/>
     <use xlink:href="#STIXGeneral-Regular-61" x="785.999802"/>
     <use xlink:href="#STIXGeneral-Regular-20" x="830.399796"/>
     <use xlink:href="#STIXGeneral-Regular-66" x="855.39978"/>
     <use xlink:href="#STIXGeneral-Regular-75" x="888.699768"/>
     <use xlink:href="#STIXGeneral-Regular-6e" x="938.699753"/>
     <use xlink:href="#STIXGeneral-Regular-63" x="988.699738"/>
     <use xlink:href="#STIXGeneral-Regular-74" x="1033.099731"/>
     <use xlink:href="#STIXGeneral-Regular-69" x="1060.899719"/>
     <use xlink:href="#STIXGeneral-Regular-6f" x="1088.699707"/>
     <use xlink:href="#STIXGeneral-Regular-6e" x="1138.699692"/>
     <use xlink:href="#STIXGeneral-Regular-20" x="1188.699677"/>
     <use xlink:href="#STIXGeneral-Regular-6f" x="1213.699661"/>
     <use xlink:href="#STIXGeneral-Regular-66" x="1263.699646"/>
     <use xlink:href="#STIXGeneral-Regular-20" x="1296.999634"/>
     <use xlink:href="#STIXGeneral-Regular-61" x="1321.999619"/>
     <use xlink:href="#STIXGeneral-Regular-67" x="1366.399612"/>
     <use xlink:href="#STIXGeneral-Regular-65" x="1416.399597"/>
     <use xlink:href="#STIXGeneral-Regular-20" x="1460.799591"/>
     <use xlink:href="#STIXGeneral-Regular-63" x="1485.799576"/>
     <use xlink:href="#STIXGeneral-Regular-6f" x="1530.19957"/>
     <use xlink:href="#STIXGeneral-Regular-6e" x="1580.199554"/>
     <use xlink:href="#STIXGeneral-Regular-64" x="1630.199539"/>
     <use xlink:href="#STIXGeneral-Regular-69" x="1680.199524"/>
     <use xlink:href="#STIXGeneral-Regular-74" x="1707.999512"/>
     <use xlink:href="#STIXGeneral-Regular-69" x="1735.7995"/>
     <use xlink:href="#STIXGeneral-Regular-6f" x="1763.599487"/>
     <use xlink:href="#STIXGeneral-Regular-6e" x="1813.599472"/>
     <use xlink:href="#STIXGeneral-Regular-65" x="1863.599457"/>
     <use xlink:href="#STIXGeneral-Regular-64" x="1907.999451"/>
     <use xlink:href="#STIXGeneral-Regular-20" x="1957.999435"/>
     <use xlink:href="#STIXGeneral-Regular-6f" x="1982.99942"/>
     <use xlink:href="#STIXGeneral-Regular-6e" x="2032.999405"/>
     <use xlink:href="#STIXGeneral-Regular-20" x="2082.99939"/>
     <use xlink:href="#STIXGeneral-Regular-70" x="2107.999374"/>
     <use xlink:href="#STIXGeneral-Regular-72" x="2157.999359"/>
     <use xlink:href="#STIXGeneral-Regular-6f" x="2191.299347"/>
     <use xlink:href="#STIXGeneral-Regular-64" x="2241.299332"/>
     <use xlink:href="#STIXGeneral-Regular-75" x="2291.299316"/>
     <use xlink:href="#STIXGeneral-Regular-63" x="2341.299301"/>
     <use xlink:href="#STIXGeneral-Regular-74" x="2385.699295"/>
     <use xlink:href="#STIXGeneral-Regular-73" x="2413.499283"/>
    </g>
   </g>
  </g>
  <g id="legend_1">
   <g id="patch_5">
    <path d="M 444.902969 174.774531 
L 486.22 174.774531 
Q 488.42 174.774531 488.42 172.574531 
L 488.42 126.080469 
Q 488.42 123.880469 486.22 123.880469 
L 444.902969 123.880469 
Q 442.702969 123.880469 442.702969 126.080469 
L 442.702969 172.574531 
Q 442.702969 174.774531 444.902969 174.774531 
z
" style="fill: #eaeaf2; opacity: 0.8; stroke: #cccccc; stroke-linejoin: miter"/>
   </g>
   <g id="text_15">
    <!-- online -->
    <g style="fill: #262626" transform="translate(449.548984 136.869844) scale(0.12 -0.12)">
     <defs>
      <path id="ArialMT-6f" d="M 213 1659 
Q 213 2581 725 3025 
Q 1153 3394 1769 3394 
Q 2453 3394 2887 2945 
Q 3322 2497 3322 1706 
Q 3322 1066 3130 698 
Q 2938 331 2570 128 
Q 2203 -75 1769 -75 
Q 1072 -75 642 372 
Q 213 819 213 1659 
z
M 791 1659 
Q 791 1022 1069 705 
Q 1347 388 1769 388 
Q 2188 388 2466 706 
Q 2744 1025 2744 1678 
Q 2744 2294 2464 2611 
Q 2184 2928 1769 2928 
Q 1347 2928 1069 2612 
Q 791 2297 791 1659 
z
" transform="scale(0.015625)"/>
      <path id="ArialMT-6e" d="M 422 0 
L 422 3319 
L 928 3319 
L 928 2847 
Q 1294 3394 1984 3394 
Q 2284 3394 2536 3286 
Q 2788 3178 2913 3003 
Q 3038 2828 3088 2588 
Q 3119 2431 3119 2041 
L 3119 0 
L 2556 0 
L 2556 2019 
Q 2556 2363 2490 2533 
Q 2425 2703 2258 2804 
Q 2091 2906 1866 2906 
Q 1506 2906 1245 2678 
Q 984 2450 984 1813 
L 984 0 
L 422 0 
z
" transform="scale(0.015625)"/>
      <path id="ArialMT-6c" d="M 409 0 
L 409 4581 
L 972 4581 
L 972 0 
L 409 0 
z
" transform="scale(0.015625)"/>
      <path id="ArialMT-69" d="M 425 3934 
L 425 4581 
L 988 4581 
L 988 3934 
L 425 3934 
z
M 425 0 
L 425 3319 
L 988 3319 
L 988 0 
L 425 0 
z
" transform="scale(0.015625)"/>
      <path id="ArialMT-65" d="M 2694 1069 
L 3275 997 
Q 3138 488 2766 206 
Q 2394 -75 1816 -75 
Q 1088 -75 661 373 
Q 234 822 234 1631 
Q 234 2469 665 2931 
Q 1097 3394 1784 3394 
Q 2450 3394 2872 2941 
Q 3294 2488 3294 1666 
Q 3294 1616 3291 1516 
L 816 1516 
Q 847 969 1125 678 
Q 1403 388 1819 388 
Q 2128 388 2347 550 
Q 2566 713 2694 1069 
z
M 847 1978 
L 2700 1978 
Q 2663 2397 2488 2606 
Q 2219 2931 1791 2931 
Q 1403 2931 1139 2672 
Q 875 2413 847 1978 
z
" transform="scale(0.015625)"/>
     </defs>
     <use xlink:href="#ArialMT-6f"/>
     <use xlink:href="#ArialMT-6e" x="55.615234"/>
     <use xlink:href="#ArialMT-6c" x="111.230469"/>
     <use xlink:href="#ArialMT-69" x="133.447266"/>
     <use xlink:href="#ArialMT-6e" x="155.664062"/>
     <use xlink:href="#ArialMT-65" x="211.279297"/>
    </g>
   </g>
   <g id="PathCollection_2">
    <defs>
     <path id="mbf9170aaa9" d="M 0 3.5 
C 0.928211 3.5 1.81853 3.131218 2.474874 2.474874 
C 3.131218 1.81853 3.5 0.928211 3.5 0 
C 3.5 -0.928211 3.131218 -1.81853 2.474874 -2.474874 
C 1.81853 -3.131218 0.928211 -3.5 0 -3.5 
C -0.928211 -3.5 -1.81853 -3.131218 -2.474874 -2.474874 
C -3.131218 -1.81853 -3.5 -0.928211 -3.5 0 
C -3.5 0.928211 -3.131218 1.81853 -2.474874 2.474874 
C -1.81853 3.131218 -0.928211 3.5 0 3.5 
z
" style="stroke: #4c72b0; stroke-width: 0.75"/>
    </defs>
    <g>
     <use xlink:href="#mbf9170aaa9" x="458.102969" y="149.740937" style="fill: #4c72b0; fill-opacity: 0.2; stroke: #4c72b0; stroke-width: 0.75"/>
    </g>
   </g>
   <g id="text_16">
    <!-- 0 -->
    <g style="fill: #262626" transform="translate(477.902969 152.628437) scale(0.11 -0.11)">
     <defs>
      <path id="ArialMT-30" d="M 266 2259 
Q 266 3072 433 3567 
Q 600 4063 929 4331 
Q 1259 4600 1759 4600 
Q 2128 4600 2406 4451 
Q 2684 4303 2865 4023 
Q 3047 3744 3150 3342 
Q 3253 2941 3253 2259 
Q 3253 1453 3087 958 
Q 2922 463 2592 192 
Q 2263 -78 1759 -78 
Q 1097 -78 719 397 
Q 266 969 266 2259 
z
M 844 2259 
Q 844 1131 1108 757 
Q 1372 384 1759 384 
Q 2147 384 2411 759 
Q 2675 1134 2675 2259 
Q 2675 3391 2411 3762 
Q 2147 4134 1753 4134 
Q 1366 4134 1134 3806 
Q 844 3388 844 2259 
z
" transform="scale(0.015625)"/>
     </defs>
     <use xlink:href="#ArialMT-30"/>
    </g>
   </g>
   <g id="PathCollection_3">
    <defs>
     <path id="mbd8f09731a" d="M 0 3.5 
C 0.928211 3.5 1.81853 3.131218 2.474874 2.474874 
C 3.131218 1.81853 3.5 0.928211 3.5 0 
C 3.5 -0.928211 3.131218 -1.81853 2.474874 -2.474874 
C 1.81853 -3.131218 0.928211 -3.5 0 -3.5 
C -0.928211 -3.5 -1.81853 -3.131218 -2.474874 -2.474874 
C -3.131218 -1.81853 -3.5 -0.928211 -3.5 0 
C -3.5 0.928211 -3.131218 1.81853 -2.474874 2.474874 
C -1.81853 3.131218 -0.928211 3.5 0 3.5 
z
" style="stroke: #dd8452; stroke-width: 0.75"/>
    </defs>
    <g>
     <use xlink:href="#mbd8f09731a" x="458.102969" y="165.300781" style="fill: #dd8452; fill-opacity: 0.2; stroke: #dd8452; stroke-width: 0.75"/>
    </g>
   </g>
   <g id="text_17">
    <!-- 1 -->
    <g style="fill: #262626" transform="translate(477.902969 168.188281) scale(0.11 -0.11)">
     <defs>
      <path id="ArialMT-31" d="M 2384 0 
L 1822 0 
L 1822 3584 
Q 1619 3391 1289 3197 
Q 959 3003 697 2906 
L 697 3450 
Q 1169 3672 1522 3987 
Q 1875 4303 2022 4600 
L 2384 4600 
L 2384 0 
z
" transform="scale(0.015625)"/>
     </defs>
     <use xlink:href="#ArialMT-31"/>
    </g>
   </g>
  </g>
 </g>
 <defs>
  <clipPath id="pfca106a0a6">
   <rect x="63.6" y="24.1275" width="390.6" height="277.2"/>
  </clipPath>
 </defs>
</svg>
