<?xml version="1.0" encoding="utf-8" standalone="no"?>
<!DOCTYPE svg PUBLIC "-//W3C//DTD SVG 1.1//EN"
  "http://www.w3.org/Graphics/SVG/1.1/DTD/svg11.dtd">
<svg xmlns:xlink="http://www.w3.org/1999/xlink" width="526.79952pt" height="353.99952pt" viewBox="0 0 526.79952 353.99952" xmlns="http://www.w3.org/2000/svg" version="1.1">
 <metadata>
  <rdf:RDF xmlns:dc="http://purl.org/dc/elements/1.1/" xmlns:cc="http://creativecommons.org/ns#" xmlns:rdf="http://www.w3.org/1999/02/22-rdf-syntax-ns#">
   <cc:Work>
    <dc:type rdf:resource="http://purl.org/dc/dcmitype/StillImage"/>
    <dc:date>2022-09-16T15:06:52.059733</dc:date>
    <dc:format>image/svg+xml</dc:format>
    <dc:creator>
     <cc:Agent>
      <dc:title>Matplotlib v3.5.3, https://matplotlib.org/</dc:title>
     </cc:Agent>
    </dc:creator>
   </cc:Work>
  </rdf:RDF>
 </metadata>
 <defs>
  <style type="text/css">*{stroke-linejoin: round; stroke-linecap: butt}</style>
 </defs>
 <g id="figure_1">
  <g id="patch_1">
   <path d="M 0 353.99952 
L 526.79952 353.99952 
L 526.79952 0 
L 0 0 
z
" style="fill: #ffffff"/>
  </g>
  <g id="axes_1">
   <g id="patch_2">
    <path d="M 61.36 314.19952 
L 516.09952 314.19952 
L 516.09952 24.1275 
L 61.36 24.1275 
z
" style="fill: #eeeeee"/>
   </g>
   <g id="matplotlib.axis_1">
    <g id="xtick_1">
     <g id="line2d_1">
      <path d="M 61.36 314.19952 
L 61.36 24.1275 
" clip-path="url(#p547114306d)" style="fill: none; stroke: #ffffff; stroke-width: 0.8; stroke-linecap: round"/>
     </g>
     <g id="line2d_2"/>
     <g id="text_1">
      <!-- $\mathdefault{−3}$ -->
      <g style="fill: #262626" transform="translate(53.03 327.261082)scale(0.14 -0.14)">
       <defs>
        <path id="STIXGeneral-Regular-2212" d="M 3974 1408 
L 410 1408 
L 410 1830 
L 3974 1830 
L 3974 1408 
z
" transform="scale(0.015625)"/>
        <path id="STIXGeneral-Regular-33" d="M 390 3264 
L 288 3290 
Q 435 3770 748 4048 
Q 1062 4326 1542 4326 
Q 1990 4326 2265 4083 
Q 2541 3840 2541 3450 
Q 2541 2925 1946 2566 
Q 2298 2413 2477 2227 
Q 2758 1914 2758 1402 
Q 2758 890 2464 506 
Q 2246 211 1840 60 
Q 1434 -90 979 -90 
Q 262 -90 262 275 
Q 262 378 339 442 
Q 416 506 525 506 
Q 685 506 915 339 
Q 1197 141 1466 141 
Q 1818 141 2058 425 
Q 2298 710 2298 1120 
Q 2298 1856 1632 2048 
Q 1434 2112 979 2112 
L 979 2202 
Q 1338 2323 1517 2432 
Q 2035 2726 2035 3290 
Q 2035 3610 1852 3776 
Q 1670 3942 1344 3942 
Q 768 3942 390 3264 
z
" transform="scale(0.015625)"/>
       </defs>
       <use xlink:href="#STIXGeneral-Regular-2212" transform="translate(0 0.40625)"/>
       <use xlink:href="#STIXGeneral-Regular-33" transform="translate(68.499985 0.40625)"/>
      </g>
     </g>
    </g>
    <g id="xtick_2">
     <g id="line2d_3">
      <path d="M 137.14992 314.19952 
L 137.14992 24.1275 
" clip-path="url(#p547114306d)" style="fill: none; stroke: #ffffff; stroke-width: 0.8; stroke-linecap: round"/>
     </g>
     <g id="line2d_4"/>
     <g id="text_2">
      <!-- $\mathdefault{−2}$ -->
      <g style="fill: #262626" transform="translate(128.81992 327.261082)scale(0.14 -0.14)">
       <defs>
        <path id="STIXGeneral-Regular-32" d="M 3034 877 
L 2688 0 
L 186 0 
L 186 77 
L 1325 1286 
Q 1773 1754 1965 2144 
Q 2157 2534 2157 2950 
Q 2157 3379 1920 3616 
Q 1683 3853 1267 3853 
Q 922 3853 720 3673 
Q 518 3494 326 3021 
L 192 3053 
Q 301 3648 630 3987 
Q 960 4326 1523 4326 
Q 2054 4326 2380 4006 
Q 2707 3686 2707 3200 
Q 2707 2477 1888 1613 
L 832 486 
L 2330 486 
Q 2541 486 2665 569 
Q 2790 653 2944 915 
L 3034 877 
z
" transform="scale(0.015625)"/>
       </defs>
       <use xlink:href="#STIXGeneral-Regular-2212" transform="translate(0 0.40625)"/>
       <use xlink:href="#STIXGeneral-Regular-32" transform="translate(68.499985 0.40625)"/>
      </g>
     </g>
    </g>
    <g id="xtick_3">
     <g id="line2d_5">
      <path d="M 212.93984 314.19952 
L 212.93984 24.1275 
" clip-path="url(#p547114306d)" style="fill: none; stroke: #ffffff; stroke-width: 0.8; stroke-linecap: round"/>
     </g>
     <g id="line2d_6"/>
     <g id="text_3">
      <!-- $\mathdefault{−1}$ -->
      <g style="fill: #262626" transform="translate(204.60984 327.261082)scale(0.14 -0.14)">
       <defs>
        <path id="STIXGeneral-Regular-31" d="M 2522 0 
L 755 0 
L 755 96 
Q 1107 115 1235 227 
Q 1363 339 1363 608 
L 1363 3482 
Q 1363 3795 1171 3795 
Q 1082 3795 883 3718 
L 710 3654 
L 710 3744 
L 1856 4326 
L 1914 4307 
L 1914 486 
Q 1914 275 2042 185 
Q 2170 96 2522 96 
L 2522 0 
z
" transform="scale(0.015625)"/>
       </defs>
       <use xlink:href="#STIXGeneral-Regular-2212" transform="translate(0 0.40625)"/>
       <use xlink:href="#STIXGeneral-Regular-31" transform="translate(68.499985 0.40625)"/>
      </g>
     </g>
    </g>
    <g id="xtick_4">
     <g id="line2d_7">
      <path d="M 288.72976 314.19952 
L 288.72976 24.1275 
" clip-path="url(#p547114306d)" style="fill: none; stroke: #ffffff; stroke-width: 0.8; stroke-linecap: round"/>
     </g>
     <g id="line2d_8"/>
     <g id="text_4">
      <!-- $\mathdefault{0}$ -->
      <g style="fill: #262626" transform="translate(285.22976 327.261082)scale(0.14 -0.14)">
       <defs>
        <path id="STIXGeneral-Regular-30" d="M 3046 2112 
Q 3046 1683 2963 1302 
Q 2880 922 2717 602 
Q 2554 282 2266 96 
Q 1978 -90 1600 -90 
Q 1210 -90 915 108 
Q 621 307 461 640 
Q 301 973 227 1350 
Q 154 1728 154 2150 
Q 154 2746 301 3222 
Q 448 3699 790 4012 
Q 1133 4326 1626 4326 
Q 2253 4326 2649 3712 
Q 3046 3098 3046 2112 
z
M 2432 2080 
Q 2432 3091 2217 3625 
Q 2003 4160 1587 4160 
Q 1190 4160 979 3622 
Q 768 3085 768 2106 
Q 768 1120 979 598 
Q 1190 77 1600 77 
Q 2003 77 2217 598 
Q 2432 1120 2432 2080 
z
" transform="scale(0.015625)"/>
       </defs>
       <use xlink:href="#STIXGeneral-Regular-30" transform="translate(0 0.40625)"/>
      </g>
     </g>
    </g>
    <g id="xtick_5">
     <g id="line2d_9">
      <path d="M 364.51968 314.19952 
L 364.51968 24.1275 
" clip-path="url(#p547114306d)" style="fill: none; stroke: #ffffff; stroke-width: 0.8; stroke-linecap: round"/>
     </g>
     <g id="line2d_10"/>
     <g id="text_5">
      <!-- $\mathdefault{1}$ -->
      <g style="fill: #262626" transform="translate(361.01968 327.261082)scale(0.14 -0.14)">
       <use xlink:href="#STIXGeneral-Regular-31" transform="translate(0 0.40625)"/>
      </g>
     </g>
    </g>
    <g id="xtick_6">
     <g id="line2d_11">
      <path d="M 440.3096 314.19952 
L 440.3096 24.1275 
" clip-path="url(#p547114306d)" style="fill: none; stroke: #ffffff; stroke-width: 0.8; stroke-linecap: round"/>
     </g>
     <g id="line2d_12"/>
     <g id="text_6">
      <!-- $\mathdefault{2}$ -->
      <g style="fill: #262626" transform="translate(436.8096 327.261082)scale(0.14 -0.14)">
       <use xlink:href="#STIXGeneral-Regular-32" transform="translate(0 0.40625)"/>
      </g>
     </g>
    </g>
    <g id="xtick_7">
     <g id="line2d_13">
      <path d="M 516.09952 314.19952 
L 516.09952 24.1275 
" clip-path="url(#p547114306d)" style="fill: none; stroke: #ffffff; stroke-width: 0.8; stroke-linecap: round"/>
     </g>
     <g id="line2d_14"/>
     <g id="text_7">
      <!-- $\mathdefault{3}$ -->
      <g style="fill: #262626" transform="translate(512.59952 327.261082)scale(0.14 -0.14)">
       <use xlink:href="#STIXGeneral-Regular-33" transform="translate(0 0.40625)"/>
      </g>
     </g>
    </g>
    <g id="text_8">
     <!-- Predictor (X) -->
     <g style="fill: #262626" transform="translate(248.94226 343.544051)scale(0.15 -0.15)">
      <defs>
       <path id="STIXGeneral-Regular-50" d="M 102 4237 
L 1760 4237 
Q 2669 4237 3149 3834 
Q 3469 3565 3469 3072 
Q 3469 2560 3104 2234 
Q 2835 1990 2553 1916 
Q 2272 1843 1734 1843 
Q 1549 1843 1293 1862 
L 1293 717 
Q 1293 352 1398 246 
Q 1504 141 1894 122 
L 1894 0 
L 102 0 
L 102 122 
Q 474 147 557 256 
Q 640 365 640 781 
L 640 3526 
Q 640 3885 547 3987 
Q 454 4090 102 4115 
L 102 4237 
z
M 1293 3770 
L 1293 2118 
Q 1510 2099 1683 2099 
Q 2202 2099 2486 2352 
Q 2771 2605 2771 3040 
Q 2771 3558 2476 3779 
Q 2182 4000 1517 4000 
Q 1382 4000 1337 3952 
Q 1293 3904 1293 3770 
z
" transform="scale(0.015625)"/>
       <path id="STIXGeneral-Regular-72" d="M 1024 2931 
L 1024 2342 
Q 1267 2688 1430 2816 
Q 1594 2944 1792 2944 
Q 1958 2944 2051 2854 
Q 2144 2765 2144 2605 
Q 2144 2470 2077 2393 
Q 2010 2317 1894 2317 
Q 1773 2317 1638 2445 
Q 1536 2541 1472 2541 
Q 1338 2541 1181 2355 
Q 1024 2170 1024 2016 
L 1024 576 
Q 1024 301 1133 205 
Q 1242 109 1568 96 
L 1568 0 
L 32 0 
L 32 96 
Q 339 154 412 224 
Q 486 294 486 538 
L 486 2138 
Q 486 2349 438 2435 
Q 390 2522 269 2522 
Q 166 2522 45 2496 
L 45 2598 
Q 448 2726 992 2944 
L 1024 2931 
z
" transform="scale(0.015625)"/>
       <path id="STIXGeneral-Regular-65" d="M 2611 1050 
L 2714 1005 
Q 2330 -64 1376 -64 
Q 813 -64 486 329 
Q 160 723 160 1389 
Q 160 2074 525 2509 
Q 890 2944 1485 2944 
Q 2061 2944 2374 2502 
Q 2560 2246 2592 1773 
L 621 1773 
Q 646 1370 700 1158 
Q 755 947 915 730 
Q 1184 378 1626 378 
Q 1939 378 2153 531 
Q 2368 685 2611 1050 
z
M 634 1978 
L 1939 1978 
Q 1882 2381 1750 2547 
Q 1619 2714 1312 2714 
Q 1043 2714 864 2525 
Q 685 2336 634 1978 
z
" transform="scale(0.015625)"/>
       <path id="STIXGeneral-Regular-64" d="M 3142 269 
L 2202 -64 
L 2176 -45 
L 2176 365 
Q 1869 -64 1357 -64 
Q 826 -64 499 317 
Q 173 698 173 1312 
Q 173 1990 563 2467 
Q 954 2944 1504 2944 
Q 1850 2944 2176 2669 
L 2176 3667 
Q 2176 3866 2118 3930 
Q 2061 3994 1882 3994 
Q 1792 3994 1741 3987 
L 1741 4090 
Q 2323 4243 2682 4371 
L 2714 4358 
L 2714 730 
Q 2714 506 2768 435 
Q 2822 365 2995 365 
Q 3034 365 3142 371 
L 3142 269 
z
M 2176 653 
L 2176 2125 
Q 2176 2381 1981 2573 
Q 1786 2765 1523 2765 
Q 1158 2765 940 2438 
Q 723 2112 723 1568 
Q 723 979 963 624 
Q 1203 269 1606 269 
Q 1907 269 2080 474 
Q 2176 582 2176 653 
z
" transform="scale(0.015625)"/>
       <path id="STIXGeneral-Regular-69" d="M 1152 4045 
Q 1152 3904 1056 3811 
Q 960 3718 819 3718 
Q 685 3718 592 3811 
Q 499 3904 499 4045 
Q 499 4179 595 4275 
Q 691 4371 826 4371 
Q 966 4371 1059 4275 
Q 1152 4179 1152 4045 
z
M 1619 0 
L 102 0 
L 102 96 
Q 435 115 521 211 
Q 608 307 608 666 
L 608 2118 
Q 608 2342 563 2432 
Q 518 2522 397 2522 
Q 243 2522 128 2490 
L 128 2592 
L 1120 2944 
L 1146 2918 
L 1146 672 
Q 1146 314 1226 218 
Q 1306 122 1619 96 
L 1619 0 
z
" transform="scale(0.015625)"/>
       <path id="STIXGeneral-Regular-63" d="M 2547 998 
L 2637 941 
Q 2362 403 2112 205 
Q 1786 -64 1376 -64 
Q 845 -64 502 336 
Q 160 736 160 1357 
Q 160 2170 698 2618 
Q 1094 2944 1562 2944 
Q 1965 2944 2256 2749 
Q 2547 2554 2547 2285 
Q 2547 2176 2457 2096 
Q 2368 2016 2246 2016 
Q 2022 2016 1939 2310 
L 1901 2451 
Q 1850 2630 1773 2694 
Q 1696 2758 1523 2758 
Q 1133 2758 893 2451 
Q 653 2144 653 1645 
Q 653 1094 928 745 
Q 1203 397 1645 397 
Q 1920 397 2118 528 
Q 2317 659 2547 998 
z
" transform="scale(0.015625)"/>
       <path id="STIXGeneral-Regular-74" d="M 1702 493 
L 1786 422 
Q 1478 -64 1011 -64 
Q 448 -64 448 749 
L 448 2675 
L 109 2675 
Q 83 2694 83 2720 
Q 83 2771 192 2842 
Q 435 2982 813 3526 
Q 826 3546 874 3606 
Q 922 3667 941 3706 
Q 986 3706 986 3622 
L 986 2880 
L 1632 2880 
L 1632 2675 
L 986 2675 
L 986 845 
Q 986 538 1062 403 
Q 1139 269 1318 269 
Q 1510 269 1702 493 
z
" transform="scale(0.015625)"/>
       <path id="STIXGeneral-Regular-6f" d="M 3008 1478 
Q 3008 806 2608 371 
Q 2208 -64 1568 -64 
Q 979 -64 582 368 
Q 186 800 186 1459 
Q 186 2125 582 2534 
Q 979 2944 1626 2944 
Q 2221 2944 2614 2537 
Q 3008 2131 3008 1478 
z
M 2432 1306 
Q 2432 2035 2112 2445 
Q 1856 2765 1504 2765 
Q 1171 2765 966 2493 
Q 762 2221 762 1747 
Q 762 928 1101 435 
Q 1318 115 1677 115 
Q 2029 115 2230 432 
Q 2432 749 2432 1306 
z
" transform="scale(0.015625)"/>
       <path id="STIXGeneral-Regular-20" transform="scale(0.015625)"/>
       <path id="STIXGeneral-Regular-28" d="M 1946 -1030 
L 1869 -1133 
Q 1126 -710 716 32 
Q 307 774 307 1613 
Q 307 3386 1888 4326 
L 1946 4224 
Q 1293 3667 1075 3126 
Q 858 2586 858 1632 
Q 858 685 1082 96 
Q 1306 -493 1946 -1030 
z
" transform="scale(0.015625)"/>
       <path id="STIXGeneral-Regular-58" d="M 4506 0 
L 2611 0 
L 2611 122 
L 2778 134 
Q 3098 154 3098 320 
Q 3098 461 2771 947 
L 2163 1850 
L 1402 896 
Q 1062 474 1062 326 
Q 1062 230 1168 185 
Q 1274 141 1549 122 
L 1549 0 
L 64 0 
L 64 122 
Q 314 147 470 268 
Q 627 390 992 851 
L 1990 2099 
L 1312 3091 
Q 864 3744 665 3913 
Q 467 4083 141 4115 
L 141 4237 
L 2067 4237 
L 2067 4115 
L 1882 4109 
Q 1734 4102 1660 4064 
Q 1587 4026 1587 3923 
Q 1587 3885 1596 3843 
Q 1606 3802 1635 3744 
Q 1664 3686 1689 3638 
Q 1715 3590 1769 3507 
Q 1824 3424 1862 3366 
Q 1901 3309 1984 3190 
Q 2067 3072 2118 2995 
L 2400 2586 
L 3117 3482 
Q 3373 3795 3373 3910 
Q 3373 4019 3283 4064 
Q 3194 4109 2938 4115 
L 2938 4237 
L 4454 4237 
L 4454 4115 
Q 4147 4096 3968 3977 
Q 3789 3859 3482 3482 
L 2566 2349 
L 3795 595 
Q 3981 326 4115 240 
Q 4250 154 4506 122 
L 4506 0 
z
" transform="scale(0.015625)"/>
       <path id="STIXGeneral-Regular-29" d="M 186 4224 
L 262 4326 
Q 992 3891 1408 3148 
Q 1824 2406 1824 1581 
Q 1824 -166 243 -1133 
L 186 -1030 
Q 845 -486 1059 54 
Q 1274 595 1274 1562 
Q 1274 2534 1059 3120 
Q 845 3706 186 4224 
z
" transform="scale(0.015625)"/>
      </defs>
      <use xlink:href="#STIXGeneral-Regular-50"/>
      <use xlink:href="#STIXGeneral-Regular-72" x="55.699997"/>
      <use xlink:href="#STIXGeneral-Regular-65" x="88.999985"/>
      <use xlink:href="#STIXGeneral-Regular-64" x="133.399979"/>
      <use xlink:href="#STIXGeneral-Regular-69" x="183.399963"/>
      <use xlink:href="#STIXGeneral-Regular-63" x="211.199951"/>
      <use xlink:href="#STIXGeneral-Regular-74" x="255.599945"/>
      <use xlink:href="#STIXGeneral-Regular-6f" x="283.399933"/>
      <use xlink:href="#STIXGeneral-Regular-72" x="333.399918"/>
      <use xlink:href="#STIXGeneral-Regular-20" x="366.699905"/>
      <use xlink:href="#STIXGeneral-Regular-28" x="391.69989"/>
      <use xlink:href="#STIXGeneral-Regular-58" x="424.999878"/>
      <use xlink:href="#STIXGeneral-Regular-29" x="497.19986"/>
     </g>
    </g>
   </g>
   <g id="matplotlib.axis_2">
    <g id="ytick_1">
     <g id="line2d_15">
      <path d="M 61.36 314.19952 
L 516.09952 314.19952 
" clip-path="url(#p547114306d)" style="fill: none; stroke: #ffffff; stroke-width: 0.8; stroke-linecap: round"/>
     </g>
     <g id="line2d_16"/>
     <g id="text_9">
      <!-- $\mathdefault{−10.0}$ -->
      <g style="fill: #262626" transform="translate(23.7 318.980301)scale(0.14 -0.14)">
       <defs>
        <path id="STIXGeneral-Regular-2e" d="M 1158 275 
Q 1158 134 1052 32 
Q 947 -70 800 -70 
Q 653 -70 550 32 
Q 448 134 448 281 
Q 448 429 553 534 
Q 659 640 806 640 
Q 947 640 1052 531 
Q 1158 422 1158 275 
z
" transform="scale(0.015625)"/>
       </defs>
       <use xlink:href="#STIXGeneral-Regular-2212" transform="translate(0 0.40625)"/>
       <use xlink:href="#STIXGeneral-Regular-31" transform="translate(68.499985 0.40625)"/>
       <use xlink:href="#STIXGeneral-Regular-30" transform="translate(118.499969 0.40625)"/>
       <use xlink:href="#STIXGeneral-Regular-2e" transform="translate(168.499954 0.40625)"/>
       <use xlink:href="#STIXGeneral-Regular-30" transform="translate(193.499939 0.40625)"/>
      </g>
     </g>
    </g>
    <g id="ytick_2">
     <g id="line2d_17">
      <path d="M 61.36 281.969296 
L 516.09952 281.969296 
" clip-path="url(#p547114306d)" style="fill: none; stroke: #ffffff; stroke-width: 0.8; stroke-linecap: round"/>
     </g>
     <g id="line2d_18"/>
     <g id="text_10">
      <!-- $\mathdefault{−7.5}$ -->
      <g style="fill: #262626" transform="translate(30.7 286.750077)scale(0.14 -0.14)">
       <defs>
        <path id="STIXGeneral-Regular-37" d="M 2874 4134 
L 1517 -51 
L 1101 -51 
L 2368 3763 
L 992 3763 
Q 717 3763 582 3667 
Q 448 3571 243 3238 
L 128 3296 
L 512 4237 
L 2874 4237 
L 2874 4134 
z
" transform="scale(0.015625)"/>
        <path id="STIXGeneral-Regular-35" d="M 2803 4358 
L 2573 3814 
Q 2534 3731 2400 3731 
L 1158 3731 
L 902 3187 
Q 1606 3053 1920 2896 
Q 2234 2739 2502 2368 
Q 2726 2061 2726 1555 
Q 2726 1094 2576 780 
Q 2426 467 2099 224 
Q 1664 -90 1011 -90 
Q 646 -90 422 19 
Q 198 128 198 307 
Q 198 550 486 550 
Q 717 550 960 352 
Q 1210 147 1414 147 
Q 1747 147 2012 480 
Q 2278 813 2278 1229 
Q 2278 1843 1850 2189 
Q 1293 2637 486 2637 
Q 410 2637 410 2688 
L 416 2720 
L 1114 4237 
L 2438 4237 
Q 2547 4237 2608 4269 
Q 2669 4301 2746 4403 
L 2803 4358 
z
" transform="scale(0.015625)"/>
       </defs>
       <use xlink:href="#STIXGeneral-Regular-2212" transform="translate(0 0.203125)"/>
       <use xlink:href="#STIXGeneral-Regular-37" transform="translate(68.499985 0.203125)"/>
       <use xlink:href="#STIXGeneral-Regular-2e" transform="translate(118.499969 0.203125)"/>
       <use xlink:href="#STIXGeneral-Regular-35" transform="translate(143.499954 0.203125)"/>
      </g>
     </g>
    </g>
    <g id="ytick_3">
     <g id="line2d_19">
      <path d="M 61.36 249.739071 
L 516.09952 249.739071 
" clip-path="url(#p547114306d)" style="fill: none; stroke: #ffffff; stroke-width: 0.8; stroke-linecap: round"/>
     </g>
     <g id="line2d_20"/>
     <g id="text_11">
      <!-- $\mathdefault{−5.0}$ -->
      <g style="fill: #262626" transform="translate(30.7 254.519852)scale(0.14 -0.14)">
       <use xlink:href="#STIXGeneral-Regular-2212" transform="translate(0 0.203125)"/>
       <use xlink:href="#STIXGeneral-Regular-35" transform="translate(68.499985 0.203125)"/>
       <use xlink:href="#STIXGeneral-Regular-2e" transform="translate(118.499969 0.203125)"/>
       <use xlink:href="#STIXGeneral-Regular-30" transform="translate(143.499954 0.203125)"/>
      </g>
     </g>
    </g>
    <g id="ytick_4">
     <g id="line2d_21">
      <path d="M 61.36 217.508847 
L 516.09952 217.508847 
" clip-path="url(#p547114306d)" style="fill: none; stroke: #ffffff; stroke-width: 0.8; stroke-linecap: round"/>
     </g>
     <g id="line2d_22"/>
     <g id="text_12">
      <!-- $\mathdefault{−2.5}$ -->
      <g style="fill: #262626" transform="translate(30.7 222.289628)scale(0.14 -0.14)">
       <use xlink:href="#STIXGeneral-Regular-2212" transform="translate(0 0.203125)"/>
       <use xlink:href="#STIXGeneral-Regular-32" transform="translate(68.499985 0.203125)"/>
       <use xlink:href="#STIXGeneral-Regular-2e" transform="translate(118.499969 0.203125)"/>
       <use xlink:href="#STIXGeneral-Regular-35" transform="translate(143.499954 0.203125)"/>
      </g>
     </g>
    </g>
    <g id="ytick_5">
     <g id="line2d_23">
      <path d="M 61.36 185.278622 
L 516.09952 185.278622 
" clip-path="url(#p547114306d)" style="fill: none; stroke: #ffffff; stroke-width: 0.8; stroke-linecap: round"/>
     </g>
     <g id="line2d_24"/>
     <g id="text_13">
      <!-- $\mathdefault{0.0}$ -->
      <g style="fill: #262626" transform="translate(40.36 190.059403)scale(0.14 -0.14)">
       <use xlink:href="#STIXGeneral-Regular-30" transform="translate(0 0.40625)"/>
       <use xlink:href="#STIXGeneral-Regular-2e" transform="translate(49.999985 0.40625)"/>
       <use xlink:href="#STIXGeneral-Regular-30" transform="translate(74.999969 0.40625)"/>
      </g>
     </g>
    </g>
    <g id="ytick_6">
     <g id="line2d_25">
      <path d="M 61.36 153.048398 
L 516.09952 153.048398 
" clip-path="url(#p547114306d)" style="fill: none; stroke: #ffffff; stroke-width: 0.8; stroke-linecap: round"/>
     </g>
     <g id="line2d_26"/>
     <g id="text_14">
      <!-- $\mathdefault{2.5}$ -->
      <g style="fill: #262626" transform="translate(40.36 157.829179)scale(0.14 -0.14)">
       <use xlink:href="#STIXGeneral-Regular-32" transform="translate(0 0.203125)"/>
       <use xlink:href="#STIXGeneral-Regular-2e" transform="translate(49.999985 0.203125)"/>
       <use xlink:href="#STIXGeneral-Regular-35" transform="translate(74.999969 0.203125)"/>
      </g>
     </g>
    </g>
    <g id="ytick_7">
     <g id="line2d_27">
      <path d="M 61.36 120.818173 
L 516.09952 120.818173 
" clip-path="url(#p547114306d)" style="fill: none; stroke: #ffffff; stroke-width: 0.8; stroke-linecap: round"/>
     </g>
     <g id="line2d_28"/>
     <g id="text_15">
      <!-- $\mathdefault{5.0}$ -->
      <g style="fill: #262626" transform="translate(40.36 125.598955)scale(0.14 -0.14)">
       <use xlink:href="#STIXGeneral-Regular-35" transform="translate(0 0.203125)"/>
       <use xlink:href="#STIXGeneral-Regular-2e" transform="translate(49.999985 0.203125)"/>
       <use xlink:href="#STIXGeneral-Regular-30" transform="translate(74.999969 0.203125)"/>
      </g>
     </g>
    </g>
    <g id="ytick_8">
     <g id="line2d_29">
      <path d="M 61.36 88.587949 
L 516.09952 88.587949 
" clip-path="url(#p547114306d)" style="fill: none; stroke: #ffffff; stroke-width: 0.8; stroke-linecap: round"/>
     </g>
     <g id="line2d_30"/>
     <g id="text_16">
      <!-- $\mathdefault{7.5}$ -->
      <g style="fill: #262626" transform="translate(40.36 93.36873)scale(0.14 -0.14)">
       <use xlink:href="#STIXGeneral-Regular-37" transform="translate(0 0.203125)"/>
       <use xlink:href="#STIXGeneral-Regular-2e" transform="translate(49.999985 0.203125)"/>
       <use xlink:href="#STIXGeneral-Regular-35" transform="translate(74.999969 0.203125)"/>
      </g>
     </g>
    </g>
    <g id="ytick_9">
     <g id="line2d_31">
      <path d="M 61.36 56.357724 
L 516.09952 56.357724 
" clip-path="url(#p547114306d)" style="fill: none; stroke: #ffffff; stroke-width: 0.8; stroke-linecap: round"/>
     </g>
     <g id="line2d_32"/>
     <g id="text_17">
      <!-- $\mathdefault{10.0}$ -->
      <g style="fill: #262626" transform="translate(33.36 61.138506)scale(0.14 -0.14)">
       <use xlink:href="#STIXGeneral-Regular-31" transform="translate(0 0.40625)"/>
       <use xlink:href="#STIXGeneral-Regular-30" transform="translate(49.999985 0.40625)"/>
       <use xlink:href="#STIXGeneral-Regular-2e" transform="translate(99.999969 0.40625)"/>
       <use xlink:href="#STIXGeneral-Regular-30" transform="translate(124.999954 0.40625)"/>
      </g>
     </g>
    </g>
    <g id="ytick_10">
     <g id="line2d_33">
      <path d="M 61.36 24.1275 
L 516.09952 24.1275 
" clip-path="url(#p547114306d)" style="fill: none; stroke: #ffffff; stroke-width: 0.8; stroke-linecap: round"/>
     </g>
     <g id="line2d_34"/>
     <g id="text_18">
      <!-- $\mathdefault{12.5}$ -->
      <g style="fill: #262626" transform="translate(33.36 28.908281)scale(0.14 -0.14)">
       <use xlink:href="#STIXGeneral-Regular-31" transform="translate(0 0.203125)"/>
       <use xlink:href="#STIXGeneral-Regular-32" transform="translate(49.999985 0.203125)"/>
       <use xlink:href="#STIXGeneral-Regular-2e" transform="translate(99.999969 0.203125)"/>
       <use xlink:href="#STIXGeneral-Regular-35" transform="translate(124.999954 0.203125)"/>
      </g>
     </g>
    </g>
    <g id="text_19">
     <!-- Outcome (Y) -->
     <g style="fill: #262626" transform="translate(17.444531 208.943979)rotate(-90)scale(0.15 -0.15)">
      <defs>
       <path id="STIXGeneral-Regular-4f" d="M 4403 2118 
Q 4403 1133 3820 521 
Q 3238 -90 2310 -90 
Q 1376 -90 797 524 
Q 218 1139 218 2138 
Q 218 3110 797 3718 
Q 1376 4326 2310 4326 
Q 3245 4326 3824 3702 
Q 4403 3078 4403 2118 
z
M 3674 2157 
Q 3674 2701 3520 3133 
Q 3366 3565 3091 3795 
Q 2733 4096 2304 4096 
Q 1760 4096 1389 3667 
Q 1184 3437 1065 3011 
Q 947 2586 947 2125 
Q 947 960 1523 429 
Q 1837 141 2317 141 
Q 2816 141 3142 448 
Q 3674 960 3674 2157 
z
" transform="scale(0.015625)"/>
       <path id="STIXGeneral-Regular-75" d="M 3072 320 
L 3072 230 
Q 2573 96 2195 -58 
L 2163 -38 
L 2163 486 
L 2150 486 
Q 1747 -64 1235 -64 
Q 870 -64 662 160 
Q 454 384 454 755 
L 454 2362 
Q 454 2598 371 2688 
Q 288 2778 58 2790 
L 58 2880 
L 992 2880 
L 992 813 
Q 992 595 1123 451 
Q 1254 307 1446 307 
Q 1760 307 1984 506 
Q 2067 582 2099 649 
Q 2131 717 2131 877 
L 2131 2355 
Q 2131 2605 2041 2678 
Q 1952 2752 1658 2771 
L 1658 2880 
L 2669 2880 
L 2669 685 
Q 2669 461 2742 390 
Q 2816 320 3034 320 
L 3072 320 
z
" transform="scale(0.015625)"/>
       <path id="STIXGeneral-Regular-6d" d="M 4960 0 
L 3565 0 
L 3565 96 
Q 3834 122 3907 208 
Q 3981 294 3981 576 
L 3981 1894 
Q 3981 2278 3869 2444 
Q 3757 2611 3488 2611 
Q 3264 2611 3107 2521 
Q 2950 2432 2803 2221 
L 2803 608 
Q 2803 301 2896 201 
Q 2989 102 3264 96 
L 3264 0 
L 1830 0 
L 1830 96 
Q 2112 115 2189 188 
Q 2266 262 2266 550 
L 2266 1901 
Q 2266 2611 1850 2611 
Q 1670 2611 1468 2531 
Q 1267 2451 1171 2336 
Q 1088 2240 1088 2227 
L 1088 448 
Q 1088 243 1177 176 
Q 1267 109 1523 96 
L 1523 0 
L 102 0 
L 102 96 
Q 371 102 460 195 
Q 550 288 550 563 
L 550 2150 
Q 550 2387 499 2480 
Q 448 2573 326 2573 
Q 230 2573 122 2547 
L 122 2656 
Q 557 2778 1011 2944 
L 1062 2925 
L 1062 2451 
L 1075 2451 
Q 1363 2752 1584 2848 
Q 1805 2944 2054 2944 
Q 2560 2944 2733 2406 
Q 3232 2944 3776 2944 
Q 4518 2944 4518 1792 
L 4518 493 
Q 4518 282 4582 202 
Q 4646 122 4794 109 
L 4960 96 
L 4960 0 
z
" transform="scale(0.015625)"/>
       <path id="STIXGeneral-Regular-59" d="M 4499 4237 
L 4499 4115 
Q 4218 4090 4054 3955 
Q 3891 3821 3616 3398 
L 2669 1939 
L 2669 710 
Q 2669 346 2790 243 
Q 2912 141 3328 122 
L 3328 0 
L 1370 0 
L 1370 122 
Q 1805 154 1910 259 
Q 2016 365 2016 787 
L 2016 1882 
L 1178 3110 
Q 742 3750 556 3926 
Q 371 4102 141 4115 
L 141 4237 
L 1926 4237 
L 1926 4115 
L 1773 4109 
Q 1472 4102 1472 3942 
Q 1472 3808 1587 3642 
L 2522 2227 
L 3450 3648 
Q 3539 3782 3539 3917 
Q 3533 4026 3440 4067 
Q 3347 4109 3104 4115 
L 3104 4237 
L 4499 4237 
z
" transform="scale(0.015625)"/>
      </defs>
      <use xlink:href="#STIXGeneral-Regular-4f"/>
      <use xlink:href="#STIXGeneral-Regular-75" x="72.199982"/>
      <use xlink:href="#STIXGeneral-Regular-74" x="122.199966"/>
      <use xlink:href="#STIXGeneral-Regular-63" x="149.999954"/>
      <use xlink:href="#STIXGeneral-Regular-6f" x="194.399948"/>
      <use xlink:href="#STIXGeneral-Regular-6d" x="244.399933"/>
      <use xlink:href="#STIXGeneral-Regular-65" x="322.199921"/>
      <use xlink:href="#STIXGeneral-Regular-20" x="366.599915"/>
      <use xlink:href="#STIXGeneral-Regular-28" x="391.599899"/>
      <use xlink:href="#STIXGeneral-Regular-59" x="424.899887"/>
      <use xlink:href="#STIXGeneral-Regular-29" x="497.099869"/>
     </g>
    </g>
   </g>
   <g id="PolyCollection_1">
    <defs>
     <path id="md76d225dcf" d="M 127.623083 -124.800179 
L 127.623083 -106.899486 
L 128.552233 -107.739438 
L 130.410534 -108.57915 
L 132.268835 -109.418623 
L 134.127135 -110.257856 
L 135.985436 -111.09685 
L 137.843737 -111.935604 
L 139.702037 -112.774118 
L 141.560338 -113.612393 
L 143.418639 -114.450428 
L 145.276939 -115.288223 
L 147.13524 -116.125779 
L 148.993541 -116.963096 
L 150.851841 -117.800172 
L 152.710142 -118.637009 
L 154.568443 -119.473607 
L 156.426743 -120.309965 
L 158.285044 -121.146083 
L 160.143345 -121.981962 
L 162.001645 -122.817601 
L 163.859946 -123.653001 
L 165.718247 -124.48816 
L 167.576547 -125.323081 
L 169.434848 -126.157761 
L 171.293149 -126.992202 
L 173.151449 -127.826404 
L 175.00975 -128.660366 
L 176.868051 -129.494088 
L 178.726351 -130.334653 
L 180.584652 -131.166812 
L 182.442953 -132.005556 
L 184.301253 -132.849511 
L 186.159554 -133.696067 
L 188.017855 -134.537798 
L 189.876155 -135.375645 
L 191.734456 -136.209785 
L 193.592757 -137.03925 
L 195.451057 -137.863039 
L 197.309358 -138.68174 
L 199.167659 -139.495927 
L 201.025959 -140.306737 
L 202.88426 -141.118406 
L 204.742561 -141.929918 
L 206.600861 -142.740801 
L 208.459162 -143.551461 
L 210.317463 -144.362306 
L 212.175763 -145.175778 
L 214.034064 -145.992732 
L 215.892365 -146.809963 
L 217.750665 -147.62629 
L 219.608966 -148.443335 
L 221.467267 -149.260556 
L 223.325567 -150.076791 
L 225.183868 -150.89212 
L 227.042169 -151.704062 
L 228.900469 -152.51293 
L 230.75877 -153.321895 
L 232.617071 -154.131524 
L 234.475371 -154.941357 
L 236.333672 -155.749389 
L 238.191973 -156.559078 
L 240.050273 -157.369481 
L 241.908574 -158.179222 
L 243.766875 -158.987194 
L 245.625175 -159.792641 
L 247.483476 -160.596743 
L 249.341777 -161.401967 
L 251.200077 -162.205225 
L 253.058378 -163.00708 
L 254.916679 -163.808414 
L 256.774979 -164.613115 
L 258.63328 -165.419414 
L 260.491581 -166.220471 
L 262.349881 -167.020256 
L 264.208182 -167.819533 
L 266.066483 -168.618274 
L 267.924783 -169.416907 
L 269.783084 -170.217246 
L 271.641385 -171.019985 
L 273.499685 -171.826623 
L 275.357986 -172.631471 
L 277.216287 -173.440039 
L 279.074587 -174.2503 
L 280.932888 -175.061334 
L 282.791189 -175.869431 
L 284.649489 -176.668339 
L 286.50779 -177.456723 
L 288.366091 -178.234757 
L 290.224391 -179.008985 
L 292.082692 -179.778741 
L 293.940993 -180.544595 
L 295.799293 -181.30765 
L 297.657594 -182.069698 
L 299.515895 -182.831224 
L 301.374195 -183.592749 
L 303.232496 -184.354826 
L 305.090797 -185.114283 
L 306.949097 -185.875059 
L 308.807398 -186.63761 
L 310.665699 -187.399077 
L 312.523999 -188.15973 
L 314.3823 -188.917486 
L 316.240601 -189.669454 
L 318.098901 -190.418085 
L 319.957202 -191.164953 
L 321.815503 -191.907649 
L 323.673803 -192.641658 
L 325.532104 -193.37551 
L 327.390405 -194.110432 
L 329.248705 -194.845052 
L 331.107006 -195.580166 
L 332.965307 -196.313124 
L 334.823607 -197.043151 
L 336.681908 -197.770941 
L 338.540209 -198.49898 
L 340.398509 -199.223461 
L 342.25681 -199.944562 
L 344.115111 -200.661472 
L 345.973411 -201.376106 
L 347.831712 -202.089982 
L 349.690013 -202.802527 
L 351.548313 -203.511186 
L 353.406614 -204.218785 
L 355.264915 -204.924808 
L 357.123215 -205.627803 
L 358.981516 -206.327972 
L 360.839817 -207.025153 
L 362.698117 -207.726346 
L 364.556418 -208.427869 
L 366.414719 -209.129291 
L 368.273019 -209.828997 
L 370.13132 -210.524999 
L 371.989621 -211.21865 
L 373.847921 -211.911427 
L 375.706222 -212.601076 
L 377.564523 -213.293263 
L 379.422823 -213.982528 
L 381.281124 -214.670311 
L 383.139425 -215.356874 
L 384.997725 -216.043291 
L 386.856026 -216.729679 
L 388.714327 -217.414062 
L 390.572627 -218.096865 
L 392.430928 -218.77879 
L 394.289229 -219.461842 
L 396.147529 -220.145571 
L 398.00583 -220.830479 
L 399.864131 -221.517055 
L 401.722431 -222.205379 
L 403.580732 -222.895542 
L 405.439033 -223.587642 
L 407.297333 -224.281502 
L 409.155634 -224.973844 
L 411.013935 -225.664172 
L 412.872235 -226.355123 
L 414.730536 -227.046779 
L 416.588837 -227.739178 
L 418.447137 -228.432365 
L 420.305438 -229.1262 
L 422.163739 -229.820099 
L 424.022039 -230.514513 
L 425.88034 -231.214885 
L 427.738641 -231.914002 
L 429.596941 -232.609105 
L 431.455242 -233.303846 
L 433.313543 -233.998077 
L 435.171843 -234.69163 
L 437.030144 -235.384403 
L 438.888445 -236.076297 
L 440.746746 -236.767372 
L 442.605046 -237.458451 
L 444.463347 -238.149509 
L 446.321648 -238.840394 
L 448.179948 -239.527423 
L 450.038249 -240.213863 
L 451.89655 -240.899715 
L 453.75485 -241.584978 
L 455.613151 -242.269653 
L 457.471452 -242.95374 
L 459.329752 -243.637238 
L 461.188053 -244.320147 
L 463.046354 -245.002468 
L 464.904654 -245.6842 
L 466.762955 -246.365344 
L 468.621256 -247.0459 
L 470.479556 -247.725867 
L 472.337857 -248.405245 
L 474.196158 -249.084035 
L 476.054458 -249.762237 
L 477.912759 -250.43985 
L 479.77106 -251.116874 
L 481.62936 -251.79331 
L 483.487661 -252.469158 
L 485.345962 -253.144417 
L 487.204262 -253.819088 
L 489.062563 -254.49317 
L 490.920864 -255.166663 
L 492.779164 -255.839568 
L 494.637465 -256.511885 
L 496.495766 -257.183613 
L 496.495766 -276.908484 
L 496.495766 -276.908484 
L 494.637465 -276.07339 
L 492.779164 -275.237944 
L 490.920864 -274.402146 
L 489.062563 -273.565996 
L 487.204262 -272.729495 
L 485.345962 -271.892643 
L 483.487661 -271.055439 
L 481.62936 -270.217883 
L 479.77106 -269.379976 
L 477.912759 -268.541717 
L 476.054458 -267.703106 
L 474.196158 -266.864144 
L 472.337857 -266.02483 
L 470.479556 -265.185165 
L 468.621256 -264.345148 
L 466.762955 -263.50478 
L 464.904654 -262.66406 
L 463.046354 -261.822988 
L 461.188053 -260.981565 
L 459.329752 -260.13979 
L 457.471452 -259.297664 
L 455.613151 -258.455186 
L 453.75485 -257.612357 
L 451.89655 -256.769176 
L 450.038249 -255.925643 
L 448.179948 -255.081759 
L 446.321648 -254.237523 
L 444.463347 -253.388794 
L 442.605046 -252.540009 
L 440.746746 -251.691774 
L 438.888445 -250.844119 
L 437.030144 -249.995352 
L 435.171843 -249.145388 
L 433.313543 -248.294481 
L 431.455242 -247.442876 
L 429.596941 -246.591576 
L 427.738641 -245.740029 
L 425.88034 -244.884458 
L 424.022039 -244.027747 
L 422.163739 -243.177083 
L 420.305438 -242.328185 
L 418.447137 -241.480826 
L 416.588837 -240.634805 
L 414.730536 -239.790117 
L 412.872235 -238.946835 
L 411.013935 -238.105032 
L 409.155634 -237.264717 
L 407.297333 -236.422846 
L 405.439033 -235.580097 
L 403.580732 -234.74042 
L 401.722431 -233.904094 
L 399.864131 -233.071055 
L 398.00583 -232.241239 
L 396.147529 -231.414584 
L 394.289229 -230.590647 
L 392.430928 -229.767975 
L 390.572627 -228.947245 
L 388.714327 -228.126974 
L 386.856026 -227.3067 
L 384.997725 -226.486187 
L 383.139425 -225.667336 
L 381.281124 -224.850159 
L 379.422823 -224.03414 
L 377.564523 -223.218987 
L 375.706222 -222.402639 
L 373.847921 -221.589744 
L 371.989621 -220.775571 
L 370.13132 -219.961731 
L 368.273019 -219.146945 
L 366.414719 -218.329733 
L 364.556418 -217.511749 
L 362.698117 -216.69504 
L 360.839817 -215.880109 
L 358.981516 -215.071434 
L 357.123215 -214.262542 
L 355.264915 -213.45369 
L 353.406614 -212.645322 
L 351.548313 -211.839051 
L 349.690013 -211.035377 
L 347.831712 -210.231139 
L 345.973411 -209.428899 
L 344.115111 -208.6284 
L 342.25681 -207.828171 
L 340.398509 -207.026762 
L 338.540209 -206.224685 
L 336.681908 -205.421806 
L 334.823607 -204.62293 
L 332.965307 -203.826135 
L 331.107006 -203.03082 
L 329.248705 -202.23721 
L 327.390405 -201.448269 
L 325.532104 -200.663938 
L 323.673803 -199.884884 
L 321.815503 -199.109527 
L 319.957202 -198.330645 
L 318.098901 -197.551606 
L 316.240601 -196.774835 
L 314.3823 -195.998455 
L 312.523999 -195.221045 
L 310.665699 -194.444913 
L 308.807398 -193.67182 
L 306.949097 -192.90161 
L 305.090797 -192.137801 
L 303.232496 -191.379583 
L 301.374195 -190.622823 
L 299.515895 -189.870513 
L 297.657594 -189.122074 
L 295.799293 -188.376924 
L 293.940993 -187.634469 
L 292.082692 -186.89291 
L 290.224391 -186.152253 
L 288.366091 -185.411338 
L 286.50779 -184.671352 
L 284.649489 -183.925298 
L 282.791189 -183.173139 
L 280.932888 -182.415967 
L 279.074587 -181.659114 
L 277.216287 -180.905516 
L 275.357986 -180.156244 
L 273.499685 -179.413674 
L 271.641385 -178.673098 
L 269.783084 -177.939273 
L 267.924783 -177.211312 
L 266.066483 -176.488293 
L 264.208182 -175.768524 
L 262.349881 -175.052199 
L 260.491581 -174.339262 
L 258.63328 -173.628969 
L 256.774979 -172.915544 
L 254.916679 -172.204914 
L 253.058378 -171.499294 
L 251.200077 -170.795431 
L 249.341777 -170.092059 
L 247.483476 -169.388349 
L 245.625175 -168.687481 
L 243.766875 -167.986814 
L 241.908574 -167.285961 
L 240.050273 -166.585588 
L 238.191973 -165.886882 
L 236.333672 -165.191179 
L 234.475371 -164.499299 
L 232.617071 -163.807672 
L 230.75877 -163.117862 
L 228.900469 -162.430057 
L 227.042169 -161.744293 
L 225.183868 -161.056212 
L 223.325567 -160.365182 
L 221.467267 -159.674562 
L 219.608966 -158.984863 
L 217.750665 -158.296278 
L 215.892365 -157.609316 
L 214.034064 -156.921747 
L 212.175763 -156.235657 
L 210.317463 -155.553335 
L 208.459162 -154.874059 
L 206.600861 -154.195782 
L 204.742561 -153.518097 
L 202.88426 -152.840591 
L 201.025959 -152.164296 
L 199.167659 -151.490022 
L 197.309358 -150.813785 
L 195.451057 -150.13465 
L 193.592757 -149.452017 
L 191.734456 -148.765266 
L 189.876155 -148.075197 
L 188.017855 -147.382513 
L 186.159554 -146.687486 
L 184.301253 -145.988482 
L 182.442953 -145.293115 
L 180.584652 -144.60355 
L 178.726351 -143.921 
L 176.868051 -143.232947 
L 175.00975 -142.546184 
L 173.151449 -141.859733 
L 171.293149 -141.173596 
L 169.434848 -140.487771 
L 167.576547 -139.80226 
L 165.718247 -139.117061 
L 163.859946 -138.432176 
L 162.001645 -137.747603 
L 160.143345 -137.063343 
L 158.285044 -136.379396 
L 156.426743 -135.695763 
L 154.568443 -135.012442 
L 152.710142 -134.329434 
L 150.851841 -133.646738 
L 148.993541 -132.964356 
L 147.13524 -132.282287 
L 145.276939 -131.600531 
L 143.418639 -130.919087 
L 141.560338 -130.237957 
L 139.702037 -129.557139 
L 137.843737 -128.876635 
L 135.985436 -128.196443 
L 134.127135 -127.516564 
L 132.268835 -126.836998 
L 130.410534 -126.157746 
L 128.552233 -125.478806 
L 127.623083 -124.800179 
z
" style="stroke: #da70d6; stroke-opacity: 0.5; stroke-width: 0.8"/>
    </defs>
    <g clip-path="url(#p547114306d)">
     <use xlink:href="#md76d225dcf" x="0" y="353.99952" style="fill: #da70d6; fill-opacity: 0.5; stroke: #da70d6; stroke-opacity: 0.5; stroke-width: 0.8"/>
    </g>
   </g>
   <g id="PolyCollection_2">
    <defs>
     <path id="m9a2037f25e" d="M 127.623083 -154.594298 
L 127.623083 -77.479704 
L 128.552233 -78.240791 
L 130.410534 -79.002102 
L 132.268835 -79.763637 
L 134.127135 -80.525395 
L 135.985436 -81.287376 
L 137.843737 -82.049581 
L 139.702037 -82.812009 
L 141.560338 -83.574661 
L 143.418639 -84.337536 
L 145.276939 -85.100634 
L 147.13524 -85.863956 
L 148.993541 -86.627502 
L 150.851841 -87.391271 
L 152.710142 -88.155263 
L 154.568443 -88.919478 
L 156.426743 -89.683918 
L 158.285044 -90.44858 
L 160.143345 -91.213466 
L 162.001645 -91.978575 
L 163.859946 -92.743908 
L 165.718247 -93.509464 
L 167.576547 -94.275244 
L 169.434848 -95.041247 
L 171.293149 -95.807474 
L 173.151449 -96.573924 
L 175.00975 -97.340597 
L 176.868051 -98.107494 
L 178.726351 -98.853108 
L 180.584652 -99.641824 
L 182.442953 -100.40219 
L 184.301253 -101.139438 
L 186.159554 -101.878641 
L 188.017855 -102.707967 
L 189.876155 -103.50145 
L 191.734456 -104.32116 
L 193.592757 -105.131453 
L 195.451057 -105.940315 
L 197.309358 -106.746816 
L 199.167659 -107.550009 
L 201.025959 -108.349212 
L 202.88426 -109.153219 
L 204.742561 -109.941864 
L 206.600861 -110.751493 
L 208.459162 -111.575805 
L 210.317463 -112.40869 
L 212.175763 -113.055248 
L 214.034064 -113.843573 
L 215.892365 -114.551169 
L 217.750665 -115.282398 
L 219.608966 -116.027322 
L 221.467267 -116.83165 
L 223.325567 -117.620552 
L 225.183868 -118.398398 
L 227.042169 -119.140385 
L 228.900469 -119.855058 
L 230.75877 -120.671969 
L 232.617071 -121.494024 
L 234.475371 -122.325197 
L 236.333672 -123.180409 
L 238.191973 -123.999244 
L 240.050273 -124.787079 
L 241.908574 -125.588421 
L 243.766875 -126.447528 
L 245.625175 -127.296894 
L 247.483476 -128.039097 
L 249.341777 -128.887996 
L 251.200077 -129.645089 
L 253.058378 -130.363325 
L 254.916679 -131.141689 
L 256.774979 -131.999498 
L 258.63328 -132.84296 
L 260.491581 -133.676388 
L 262.349881 -134.40147 
L 264.208182 -135.109027 
L 266.066483 -135.789791 
L 267.924783 -136.417283 
L 269.783084 -137.055156 
L 271.641385 -137.732943 
L 273.499685 -138.447583 
L 275.357986 -139.138534 
L 277.216287 -139.90885 
L 279.074587 -140.755157 
L 280.932888 -141.604552 
L 282.791189 -142.389362 
L 284.649489 -143.18954 
L 286.50779 -144.014267 
L 288.366091 -144.848743 
L 290.224391 -145.593524 
L 292.082692 -146.367695 
L 293.940993 -147.202455 
L 295.799293 -148.033912 
L 297.657594 -148.855787 
L 299.515895 -149.669174 
L 301.374195 -150.475121 
L 303.232496 -151.274624 
L 305.090797 -152.058003 
L 306.949097 -152.855104 
L 308.807398 -153.623359 
L 310.665699 -154.359149 
L 312.523999 -155.054681 
L 314.3823 -155.928634 
L 316.240601 -156.670769 
L 318.098901 -157.491991 
L 319.957202 -158.29076 
L 321.815503 -159.07125 
L 323.673803 -159.822428 
L 325.532104 -160.597057 
L 327.390405 -161.392075 
L 329.248705 -162.12129 
L 331.107006 -162.963123 
L 332.965307 -163.700794 
L 334.823607 -164.408497 
L 336.681908 -165.095998 
L 338.540209 -165.752138 
L 340.398509 -166.446222 
L 342.25681 -167.233239 
L 344.115111 -168.002676 
L 345.973411 -168.713005 
L 347.831712 -169.410845 
L 349.690013 -170.217523 
L 351.548313 -170.922331 
L 353.406614 -171.701623 
L 355.264915 -172.497878 
L 357.123215 -173.217807 
L 358.981516 -173.913328 
L 360.839817 -174.58102 
L 362.698117 -175.257757 
L 364.556418 -175.988759 
L 366.414719 -176.696527 
L 368.273019 -177.401785 
L 370.13132 -178.172427 
L 371.989621 -178.967614 
L 373.847921 -179.733934 
L 375.706222 -180.477489 
L 377.564523 -181.275963 
L 379.422823 -182.039172 
L 381.281124 -182.766855 
L 383.139425 -183.449341 
L 384.997725 -184.139689 
L 386.856026 -184.842609 
L 388.714327 -185.602943 
L 390.572627 -186.420165 
L 392.430928 -187.285191 
L 394.289229 -188.129795 
L 396.147529 -188.85803 
L 398.00583 -189.577513 
L 399.864131 -190.323578 
L 401.722431 -191.095456 
L 403.580732 -191.892473 
L 405.439033 -192.714051 
L 407.297333 -193.558647 
L 409.155634 -194.413421 
L 411.013935 -195.275778 
L 412.872235 -196.139044 
L 414.730536 -196.99987 
L 416.588837 -197.854963 
L 418.447137 -198.701022 
L 420.305438 -199.538917 
L 422.163739 -200.379594 
L 424.022039 -201.230701 
L 425.88034 -202.046072 
L 427.738641 -202.836125 
L 429.596941 -203.606475 
L 431.455242 -204.485035 
L 433.313543 -205.300883 
L 435.171843 -206.1163 
L 437.030144 -206.931737 
L 438.888445 -207.747749 
L 440.746746 -208.565005 
L 442.605046 -209.384347 
L 444.463347 -210.152445 
L 446.321648 -210.924962 
L 448.179948 -211.630091 
L 450.038249 -212.323526 
L 451.89655 -213.005265 
L 453.75485 -213.67531 
L 455.613151 -214.333659 
L 457.471452 -214.980314 
L 459.329752 -215.615274 
L 461.188053 -216.238539 
L 463.046354 -216.850109 
L 464.904654 -217.449984 
L 466.762955 -218.038164 
L 468.621256 -218.614649 
L 470.479556 -219.17944 
L 472.337857 -219.732535 
L 474.196158 -220.273936 
L 476.054458 -220.803641 
L 477.912759 -221.321652 
L 479.77106 -221.827968 
L 481.62936 -222.322588 
L 483.487661 -222.805514 
L 485.345962 -223.276745 
L 487.204262 -223.736282 
L 489.062563 -224.184123 
L 490.920864 -224.620269 
L 492.779164 -225.044721 
L 494.637465 -225.457477 
L 496.495766 -225.858539 
L 496.495766 -303.520596 
L 496.495766 -303.520596 
L 494.637465 -302.837788 
L 492.779164 -302.152109 
L 490.920864 -301.46356 
L 489.062563 -300.772141 
L 487.204262 -300.077852 
L 485.345962 -299.380692 
L 483.487661 -298.680662 
L 481.62936 -297.977761 
L 479.77106 -297.271991 
L 477.912759 -296.56335 
L 476.054458 -295.851838 
L 474.196158 -295.137457 
L 472.337857 -294.420205 
L 470.479556 -293.700083 
L 468.621256 -292.977091 
L 466.762955 -292.251228 
L 464.904654 -291.522495 
L 463.046354 -290.790892 
L 461.188053 -290.056419 
L 459.329752 -289.319075 
L 457.471452 -288.578861 
L 455.613151 -287.835777 
L 453.75485 -287.089822 
L 451.89655 -286.340997 
L 450.038249 -285.589302 
L 448.179948 -284.834737 
L 446.321648 -284.077301 
L 444.463347 -283.29634 
L 442.605046 -282.537689 
L 440.746746 -281.762728 
L 438.888445 -280.966194 
L 437.030144 -280.170792 
L 435.171843 -279.379505 
L 433.313543 -278.591186 
L 431.455242 -277.804778 
L 429.596941 -276.990033 
L 427.738641 -276.174588 
L 425.88034 -275.382717 
L 424.022039 -274.601608 
L 422.163739 -273.747918 
L 420.305438 -272.901785 
L 418.447137 -272.015529 
L 416.588837 -271.147365 
L 414.730536 -270.311784 
L 412.872235 -269.505231 
L 411.013935 -268.724331 
L 409.155634 -267.964941 
L 407.297333 -267.17531 
L 405.439033 -266.362164 
L 403.580732 -265.560448 
L 401.722431 -264.773505 
L 399.864131 -264.001777 
L 398.00583 -263.245742 
L 396.147529 -262.505916 
L 394.289229 -261.750318 
L 392.430928 -260.893765 
L 390.572627 -260.012352 
L 388.714327 -259.170011 
L 386.856026 -258.374761 
L 384.997725 -257.627061 
L 383.139425 -256.892971 
L 381.281124 -256.169083 
L 379.422823 -255.419784 
L 377.564523 -254.64195 
L 375.706222 -253.850021 
L 373.847921 -253.07906 
L 371.989621 -252.278457 
L 370.13132 -251.482807 
L 368.273019 -250.733732 
L 366.414719 -250.059075 
L 364.556418 -249.351451 
L 362.698117 -248.553064 
L 360.839817 -247.806081 
L 358.981516 -247.074681 
L 357.123215 -246.338713 
L 355.264915 -245.600046 
L 353.406614 -244.909059 
L 351.548313 -244.172205 
L 349.690013 -243.433854 
L 347.831712 -242.661214 
L 345.973411 -241.967385 
L 344.115111 -241.240121 
L 342.25681 -240.463058 
L 340.398509 -239.669008 
L 338.540209 -238.922002 
L 336.681908 -238.224247 
L 334.823607 -237.472248 
L 332.965307 -236.701974 
L 331.107006 -235.915976 
L 329.248705 -235.062013 
L 327.390405 -234.205055 
L 325.532104 -233.355617 
L 323.673803 -232.527503 
L 321.815503 -231.668619 
L 319.957202 -230.911722 
L 318.098901 -230.143819 
L 316.240601 -229.382984 
L 314.3823 -228.658023 
L 312.523999 -227.835282 
L 310.665699 -227.080861 
L 308.807398 -226.284262 
L 306.949097 -225.443909 
L 305.090797 -224.615757 
L 303.232496 -223.816912 
L 301.374195 -222.967168 
L 299.515895 -222.12062 
L 297.657594 -221.277048 
L 295.799293 -220.436208 
L 293.940993 -219.59783 
L 292.082692 -218.764126 
L 290.224391 -217.949056 
L 288.366091 -217.196206 
L 286.50779 -216.38555 
L 284.649489 -215.584034 
L 282.791189 -214.80001 
L 280.932888 -214.027007 
L 279.074587 -213.211842 
L 277.216287 -212.400756 
L 275.357986 -211.655502 
L 273.499685 -210.963675 
L 271.641385 -210.283628 
L 269.783084 -209.662 
L 267.924783 -209.063408 
L 266.066483 -208.467199 
L 264.208182 -207.850443 
L 262.349881 -207.246941 
L 260.491581 -206.660564 
L 258.63328 -206.001173 
L 256.774979 -205.289255 
L 254.916679 -204.535362 
L 253.058378 -203.817372 
L 251.200077 -203.100573 
L 249.341777 -202.361749 
L 247.483476 -201.593136 
L 245.625175 -200.895294 
L 243.766875 -200.1301 
L 241.908574 -199.374253 
L 240.050273 -198.689928 
L 238.191973 -197.965236 
L 236.333672 -197.210685 
L 234.475371 -196.435163 
L 232.617071 -195.716435 
L 230.75877 -195.010708 
L 228.900469 -194.291987 
L 227.042169 -193.620482 
L 225.183868 -192.979782 
L 223.325567 -192.345788 
L 221.467267 -191.677715 
L 219.608966 -191.019986 
L 217.750665 -190.322137 
L 215.892365 -189.61845 
L 214.034064 -188.951304 
L 212.175763 -188.239578 
L 210.317463 -187.60009 
L 208.459162 -186.834162 
L 206.600861 -186.035802 
L 204.742561 -185.208933 
L 202.88426 -184.357428 
L 201.025959 -183.473234 
L 199.167659 -182.619969 
L 197.309358 -181.755861 
L 195.451057 -180.889264 
L 193.592757 -180.021157 
L 191.734456 -179.152494 
L 189.876155 -178.281192 
L 188.017855 -177.477241 
L 186.159554 -176.62317 
L 184.301253 -175.83771 
L 182.442953 -175.062045 
L 180.584652 -174.281553 
L 178.726351 -173.493828 
L 176.868051 -172.745297 
L 175.00975 -172.008572 
L 173.151449 -171.276805 
L 171.293149 -170.549997 
L 169.434848 -169.828148 
L 167.576547 -169.111258 
L 165.718247 -168.399328 
L 163.859946 -167.692356 
L 162.001645 -166.990343 
L 160.143345 -166.293289 
L 158.285044 -165.601194 
L 156.426743 -164.914058 
L 154.568443 -164.23188 
L 152.710142 -163.554662 
L 150.851841 -162.882403 
L 148.993541 -162.215103 
L 147.13524 -161.552761 
L 145.276939 -160.895379 
L 143.418639 -160.242956 
L 141.560338 -159.595491 
L 139.702037 -158.952986 
L 137.843737 -158.315439 
L 135.985436 -157.682852 
L 134.127135 -157.055223 
L 132.268835 -156.432553 
L 130.410534 -155.814843 
L 128.552233 -155.202091 
L 127.623083 -154.594298 
z
" style="stroke: #ff7f50; stroke-opacity: 0.2; stroke-width: 0.8"/>
    </defs>
    <g clip-path="url(#p547114306d)">
     <use xlink:href="#m9a2037f25e" x="0" y="353.99952" style="fill: #ff7f50; fill-opacity: 0.2; stroke: #ff7f50; stroke-opacity: 0.2; stroke-width: 0.8"/>
    </g>
   </g>
   <g id="line2d_35">
    <defs>
     <path id="me6f1a88d5b" d="M 0 2 
C 0.530406 2 1.03916 1.789267 1.414214 1.414214 
C 1.789267 1.03916 2 0.530406 2 0 
C 2 -0.530406 1.789267 -1.03916 1.414214 -1.414214 
C 1.03916 -1.789267 0.530406 -2 0 -2 
C -0.530406 -2 -1.03916 -1.789267 -1.414214 -1.414214 
C -1.789267 -1.03916 -2 -0.530406 -2 0 
C -2 0.530406 -1.789267 1.03916 -1.414214 1.414214 
C -1.03916 1.789267 -0.530406 2 0 2 
z
" style="stroke: #000000; stroke-opacity: 0.4"/>
    </defs>
    <g clip-path="url(#p547114306d)">
     <use xlink:href="#me6f1a88d5b" x="359.016476" y="141.619817" style="fill: #2a2eec; fill-opacity: 0.4; stroke: #000000; stroke-opacity: 0.4"/>
     <use xlink:href="#me6f1a88d5b" x="284.201008" y="193.877649" style="fill: #2a2eec; fill-opacity: 0.4; stroke: #000000; stroke-opacity: 0.4"/>
     <use xlink:href="#me6f1a88d5b" x="367.83442" y="143.275664" style="fill: #2a2eec; fill-opacity: 0.4; stroke: #000000; stroke-opacity: 0.4"/>
     <use xlink:href="#me6f1a88d5b" x="402.840494" y="124.70862" style="fill: #2a2eec; fill-opacity: 0.4; stroke: #000000; stroke-opacity: 0.4"/>
     <use xlink:href="#me6f1a88d5b" x="296.886834" y="178.420322" style="fill: #2a2eec; fill-opacity: 0.4; stroke: #000000; stroke-opacity: 0.4"/>
     <use xlink:href="#me6f1a88d5b" x="147.702705" y="202.418773" style="fill: #2a2eec; fill-opacity: 0.4; stroke: #000000; stroke-opacity: 0.4"/>
     <use xlink:href="#me6f1a88d5b" x="447.48389" y="77.118879" style="fill: #2a2eec; fill-opacity: 0.4; stroke: #000000; stroke-opacity: 0.4"/>
     <use xlink:href="#me6f1a88d5b" x="417.641965" y="125.654424" style="fill: #2a2eec; fill-opacity: 0.4; stroke: #000000; stroke-opacity: 0.4"/>
     <use xlink:href="#me6f1a88d5b" x="181.023927" y="222.556066" style="fill: #2a2eec; fill-opacity: 0.4; stroke: #000000; stroke-opacity: 0.4"/>
     <use xlink:href="#me6f1a88d5b" x="377.861135" y="119.877004" style="fill: #2a2eec; fill-opacity: 0.4; stroke: #000000; stroke-opacity: 0.4"/>
     <use xlink:href="#me6f1a88d5b" x="316.817372" y="186.678088" style="fill: #2a2eec; fill-opacity: 0.4; stroke: #000000; stroke-opacity: 0.4"/>
     <use xlink:href="#me6f1a88d5b" x="190.813861" y="207.827679" style="fill: #2a2eec; fill-opacity: 0.4; stroke: #000000; stroke-opacity: 0.4"/>
     <use xlink:href="#me6f1a88d5b" x="392.108383" y="144.632589" style="fill: #2a2eec; fill-opacity: 0.4; stroke: #000000; stroke-opacity: 0.4"/>
     <use xlink:href="#me6f1a88d5b" x="324.515777" y="112.645946" style="fill: #2a2eec; fill-opacity: 0.4; stroke: #000000; stroke-opacity: 0.4"/>
     <use xlink:href="#me6f1a88d5b" x="325.904782" y="150.178516" style="fill: #2a2eec; fill-opacity: 0.4; stroke: #000000; stroke-opacity: 0.4"/>
     <use xlink:href="#me6f1a88d5b" x="393.317481" y="109.767754" style="fill: #2a2eec; fill-opacity: 0.4; stroke: #000000; stroke-opacity: 0.4"/>
     <use xlink:href="#me6f1a88d5b" x="230.21903" y="183.619707" style="fill: #2a2eec; fill-opacity: 0.4; stroke: #000000; stroke-opacity: 0.4"/>
     <use xlink:href="#me6f1a88d5b" x="421.30589" y="98.859863" style="fill: #2a2eec; fill-opacity: 0.4; stroke: #000000; stroke-opacity: 0.4"/>
     <use xlink:href="#me6f1a88d5b" x="205.281453" y="207.531226" style="fill: #2a2eec; fill-opacity: 0.4; stroke: #000000; stroke-opacity: 0.4"/>
     <use xlink:href="#me6f1a88d5b" x="355.117225" y="154.584147" style="fill: #2a2eec; fill-opacity: 0.4; stroke: #000000; stroke-opacity: 0.4"/>
     <use xlink:href="#me6f1a88d5b" x="393.631352" y="134.032996" style="fill: #2a2eec; fill-opacity: 0.4; stroke: #000000; stroke-opacity: 0.4"/>
     <use xlink:href="#me6f1a88d5b" x="290.925205" y="177.902339" style="fill: #2a2eec; fill-opacity: 0.4; stroke: #000000; stroke-opacity: 0.4"/>
     <use xlink:href="#me6f1a88d5b" x="292.709806" y="207.823631" style="fill: #2a2eec; fill-opacity: 0.4; stroke: #000000; stroke-opacity: 0.4"/>
     <use xlink:href="#me6f1a88d5b" x="237.49863" y="197.580641" style="fill: #2a2eec; fill-opacity: 0.4; stroke: #000000; stroke-opacity: 0.4"/>
     <use xlink:href="#me6f1a88d5b" x="323.452662" y="180.0128" style="fill: #2a2eec; fill-opacity: 0.4; stroke: #000000; stroke-opacity: 0.4"/>
     <use xlink:href="#me6f1a88d5b" x="215.343368" y="194.770238" style="fill: #2a2eec; fill-opacity: 0.4; stroke: #000000; stroke-opacity: 0.4"/>
     <use xlink:href="#me6f1a88d5b" x="322.000827" y="156.253212" style="fill: #2a2eec; fill-opacity: 0.4; stroke: #000000; stroke-opacity: 0.4"/>
     <use xlink:href="#me6f1a88d5b" x="308.867828" y="177.624248" style="fill: #2a2eec; fill-opacity: 0.4; stroke: #000000; stroke-opacity: 0.4"/>
     <use xlink:href="#me6f1a88d5b" x="160.331384" y="245.464231" style="fill: #2a2eec; fill-opacity: 0.4; stroke: #000000; stroke-opacity: 0.4"/>
     <use xlink:href="#me6f1a88d5b" x="330.769603" y="143.944956" style="fill: #2a2eec; fill-opacity: 0.4; stroke: #000000; stroke-opacity: 0.4"/>
     <use xlink:href="#me6f1a88d5b" x="302.365929" y="166.693178" style="fill: #2a2eec; fill-opacity: 0.4; stroke: #000000; stroke-opacity: 0.4"/>
     <use xlink:href="#me6f1a88d5b" x="253.042435" y="184.85112" style="fill: #2a2eec; fill-opacity: 0.4; stroke: #000000; stroke-opacity: 0.4"/>
     <use xlink:href="#me6f1a88d5b" x="381.160977" y="133.167138" style="fill: #2a2eec; fill-opacity: 0.4; stroke: #000000; stroke-opacity: 0.4"/>
     <use xlink:href="#me6f1a88d5b" x="374.069203" y="131.811776" style="fill: #2a2eec; fill-opacity: 0.4; stroke: #000000; stroke-opacity: 0.4"/>
     <use xlink:href="#me6f1a88d5b" x="173.650664" y="207.107744" style="fill: #2a2eec; fill-opacity: 0.4; stroke: #000000; stroke-opacity: 0.4"/>
     <use xlink:href="#me6f1a88d5b" x="442.451677" y="93.812834" style="fill: #2a2eec; fill-opacity: 0.4; stroke: #000000; stroke-opacity: 0.4"/>
     <use xlink:href="#me6f1a88d5b" x="437.135825" y="81.760106" style="fill: #2a2eec; fill-opacity: 0.4; stroke: #000000; stroke-opacity: 0.4"/>
     <use xlink:href="#me6f1a88d5b" x="496.495766" y="108.993299" style="fill: #2a2eec; fill-opacity: 0.4; stroke: #000000; stroke-opacity: 0.4"/>
     <use xlink:href="#me6f1a88d5b" x="399.034205" y="110.632086" style="fill: #2a2eec; fill-opacity: 0.4; stroke: #000000; stroke-opacity: 0.4"/>
     <use xlink:href="#me6f1a88d5b" x="370.439637" y="141.141046" style="fill: #2a2eec; fill-opacity: 0.4; stroke: #000000; stroke-opacity: 0.4"/>
     <use xlink:href="#me6f1a88d5b" x="236.033391" y="194.880302" style="fill: #2a2eec; fill-opacity: 0.4; stroke: #000000; stroke-opacity: 0.4"/>
     <use xlink:href="#me6f1a88d5b" x="236.938434" y="182.471284" style="fill: #2a2eec; fill-opacity: 0.4; stroke: #000000; stroke-opacity: 0.4"/>
     <use xlink:href="#me6f1a88d5b" x="299.275806" y="195.0316" style="fill: #2a2eec; fill-opacity: 0.4; stroke: #000000; stroke-opacity: 0.4"/>
     <use xlink:href="#me6f1a88d5b" x="268.128946" y="161.999731" style="fill: #2a2eec; fill-opacity: 0.4; stroke: #000000; stroke-opacity: 0.4"/>
     <use xlink:href="#me6f1a88d5b" x="392.169633" y="131.957554" style="fill: #2a2eec; fill-opacity: 0.4; stroke: #000000; stroke-opacity: 0.4"/>
     <use xlink:href="#me6f1a88d5b" x="236.546162" y="159.824099" style="fill: #2a2eec; fill-opacity: 0.4; stroke: #000000; stroke-opacity: 0.4"/>
     <use xlink:href="#me6f1a88d5b" x="187.484277" y="220.288582" style="fill: #2a2eec; fill-opacity: 0.4; stroke: #000000; stroke-opacity: 0.4"/>
     <use xlink:href="#me6f1a88d5b" x="325.476776" y="166.715904" style="fill: #2a2eec; fill-opacity: 0.4; stroke: #000000; stroke-opacity: 0.4"/>
     <use xlink:href="#me6f1a88d5b" x="414.70661" y="125.625671" style="fill: #2a2eec; fill-opacity: 0.4; stroke: #000000; stroke-opacity: 0.4"/>
     <use xlink:href="#me6f1a88d5b" x="281.164068" y="185.21371" style="fill: #2a2eec; fill-opacity: 0.4; stroke: #000000; stroke-opacity: 0.4"/>
     <use xlink:href="#me6f1a88d5b" x="260.57565" y="214.033459" style="fill: #2a2eec; fill-opacity: 0.4; stroke: #000000; stroke-opacity: 0.4"/>
     <use xlink:href="#me6f1a88d5b" x="324.716539" y="179.398053" style="fill: #2a2eec; fill-opacity: 0.4; stroke: #000000; stroke-opacity: 0.4"/>
     <use xlink:href="#me6f1a88d5b" x="263.991268" y="185.945197" style="fill: #2a2eec; fill-opacity: 0.4; stroke: #000000; stroke-opacity: 0.4"/>
     <use xlink:href="#me6f1a88d5b" x="279.309655" y="176.858378" style="fill: #2a2eec; fill-opacity: 0.4; stroke: #000000; stroke-opacity: 0.4"/>
     <use xlink:href="#me6f1a88d5b" x="372.498339" y="168.595767" style="fill: #2a2eec; fill-opacity: 0.4; stroke: #000000; stroke-opacity: 0.4"/>
     <use xlink:href="#me6f1a88d5b" x="324.931639" y="159.527829" style="fill: #2a2eec; fill-opacity: 0.4; stroke: #000000; stroke-opacity: 0.4"/>
     <use xlink:href="#me6f1a88d5b" x="251.897955" y="166.689879" style="fill: #2a2eec; fill-opacity: 0.4; stroke: #000000; stroke-opacity: 0.4"/>
     <use xlink:href="#me6f1a88d5b" x="388.429802" y="126.675374" style="fill: #2a2eec; fill-opacity: 0.4; stroke: #000000; stroke-opacity: 0.4"/>
     <use xlink:href="#me6f1a88d5b" x="272.138004" y="174.69783" style="fill: #2a2eec; fill-opacity: 0.4; stroke: #000000; stroke-opacity: 0.4"/>
     <use xlink:href="#me6f1a88d5b" x="327.629131" y="145.976863" style="fill: #2a2eec; fill-opacity: 0.4; stroke: #000000; stroke-opacity: 0.4"/>
     <use xlink:href="#me6f1a88d5b" x="206.492171" y="186.765802" style="fill: #2a2eec; fill-opacity: 0.4; stroke: #000000; stroke-opacity: 0.4"/>
     <use xlink:href="#me6f1a88d5b" x="242.751896" y="136.961652" style="fill: #2a2eec; fill-opacity: 0.4; stroke: #000000; stroke-opacity: 0.4"/>
     <use xlink:href="#me6f1a88d5b" x="202.669579" y="219.086057" style="fill: #2a2eec; fill-opacity: 0.4; stroke: #000000; stroke-opacity: 0.4"/>
     <use xlink:href="#me6f1a88d5b" x="271.364956" y="188.283155" style="fill: #2a2eec; fill-opacity: 0.4; stroke: #000000; stroke-opacity: 0.4"/>
     <use xlink:href="#me6f1a88d5b" x="207.98506" y="169.465476" style="fill: #2a2eec; fill-opacity: 0.4; stroke: #000000; stroke-opacity: 0.4"/>
     <use xlink:href="#me6f1a88d5b" x="126.693933" y="241.823626" style="fill: #2a2eec; fill-opacity: 0.4; stroke: #000000; stroke-opacity: 0.4"/>
     <use xlink:href="#me6f1a88d5b" x="254.465698" y="189.360904" style="fill: #2a2eec; fill-opacity: 0.4; stroke: #000000; stroke-opacity: 0.4"/>
     <use xlink:href="#me6f1a88d5b" x="240.034913" y="199.38442" style="fill: #2a2eec; fill-opacity: 0.4; stroke: #000000; stroke-opacity: 0.4"/>
     <use xlink:href="#me6f1a88d5b" x="275.494599" y="203.764523" style="fill: #2a2eec; fill-opacity: 0.4; stroke: #000000; stroke-opacity: 0.4"/>
     <use xlink:href="#me6f1a88d5b" x="405.016808" y="164.382916" style="fill: #2a2eec; fill-opacity: 0.4; stroke: #000000; stroke-opacity: 0.4"/>
     <use xlink:href="#me6f1a88d5b" x="379.025608" y="131.683283" style="fill: #2a2eec; fill-opacity: 0.4; stroke: #000000; stroke-opacity: 0.4"/>
     <use xlink:href="#me6f1a88d5b" x="254.243245" y="153.693142" style="fill: #2a2eec; fill-opacity: 0.4; stroke: #000000; stroke-opacity: 0.4"/>
     <use xlink:href="#me6f1a88d5b" x="202.583761" y="205.213423" style="fill: #2a2eec; fill-opacity: 0.4; stroke: #000000; stroke-opacity: 0.4"/>
     <use xlink:href="#me6f1a88d5b" x="236.338401" y="214.605689" style="fill: #2a2eec; fill-opacity: 0.4; stroke: #000000; stroke-opacity: 0.4"/>
     <use xlink:href="#me6f1a88d5b" x="236.721214" y="177.081368" style="fill: #2a2eec; fill-opacity: 0.4; stroke: #000000; stroke-opacity: 0.4"/>
     <use xlink:href="#me6f1a88d5b" x="407.236655" y="121.503009" style="fill: #2a2eec; fill-opacity: 0.4; stroke: #000000; stroke-opacity: 0.4"/>
     <use xlink:href="#me6f1a88d5b" x="275.053983" y="222.35477" style="fill: #2a2eec; fill-opacity: 0.4; stroke: #000000; stroke-opacity: 0.4"/>
     <use xlink:href="#me6f1a88d5b" x="371.911634" y="159.352393" style="fill: #2a2eec; fill-opacity: 0.4; stroke: #000000; stroke-opacity: 0.4"/>
     <use xlink:href="#me6f1a88d5b" x="325.983938" y="118.280319" style="fill: #2a2eec; fill-opacity: 0.4; stroke: #000000; stroke-opacity: 0.4"/>
     <use xlink:href="#me6f1a88d5b" x="200.905504" y="197.719802" style="fill: #2a2eec; fill-opacity: 0.4; stroke: #000000; stroke-opacity: 0.4"/>
     <use xlink:href="#me6f1a88d5b" x="208.648519" y="203.690848" style="fill: #2a2eec; fill-opacity: 0.4; stroke: #000000; stroke-opacity: 0.4"/>
     <use xlink:href="#me6f1a88d5b" x="274.097412" y="180.418503" style="fill: #2a2eec; fill-opacity: 0.4; stroke: #000000; stroke-opacity: 0.4"/>
     <use xlink:href="#me6f1a88d5b" x="342.439837" y="137.467819" style="fill: #2a2eec; fill-opacity: 0.4; stroke: #000000; stroke-opacity: 0.4"/>
     <use xlink:href="#me6f1a88d5b" x="286.462449" y="144.806379" style="fill: #2a2eec; fill-opacity: 0.4; stroke: #000000; stroke-opacity: 0.4"/>
     <use xlink:href="#me6f1a88d5b" x="292.79295" y="147.363385" style="fill: #2a2eec; fill-opacity: 0.4; stroke: #000000; stroke-opacity: 0.4"/>
     <use xlink:href="#me6f1a88d5b" x="265.462969" y="168.866644" style="fill: #2a2eec; fill-opacity: 0.4; stroke: #000000; stroke-opacity: 0.4"/>
     <use xlink:href="#me6f1a88d5b" x="378.399344" y="116.460787" style="fill: #2a2eec; fill-opacity: 0.4; stroke: #000000; stroke-opacity: 0.4"/>
     <use xlink:href="#me6f1a88d5b" x="296.323341" y="183.617548" style="fill: #2a2eec; fill-opacity: 0.4; stroke: #000000; stroke-opacity: 0.4"/>
     <use xlink:href="#me6f1a88d5b" x="343.51265" y="151.164522" style="fill: #2a2eec; fill-opacity: 0.4; stroke: #000000; stroke-opacity: 0.4"/>
     <use xlink:href="#me6f1a88d5b" x="189.823316" y="217.120214" style="fill: #2a2eec; fill-opacity: 0.4; stroke: #000000; stroke-opacity: 0.4"/>
     <use xlink:href="#me6f1a88d5b" x="266.770831" y="191.822749" style="fill: #2a2eec; fill-opacity: 0.4; stroke: #000000; stroke-opacity: 0.4"/>
     <use xlink:href="#me6f1a88d5b" x="270.898558" y="211.14349" style="fill: #2a2eec; fill-opacity: 0.4; stroke: #000000; stroke-opacity: 0.4"/>
     <use xlink:href="#me6f1a88d5b" x="240.163616" y="218.861063" style="fill: #2a2eec; fill-opacity: 0.4; stroke: #000000; stroke-opacity: 0.4"/>
     <use xlink:href="#me6f1a88d5b" x="309.993815" y="149.600198" style="fill: #2a2eec; fill-opacity: 0.4; stroke: #000000; stroke-opacity: 0.4"/>
     <use xlink:href="#me6f1a88d5b" x="227.676301" y="227.135428" style="fill: #2a2eec; fill-opacity: 0.4; stroke: #000000; stroke-opacity: 0.4"/>
     <use xlink:href="#me6f1a88d5b" x="261.766138" y="197.918765" style="fill: #2a2eec; fill-opacity: 0.4; stroke: #000000; stroke-opacity: 0.4"/>
     <use xlink:href="#me6f1a88d5b" x="298.407127" y="197.44671" style="fill: #2a2eec; fill-opacity: 0.4; stroke: #000000; stroke-opacity: 0.4"/>
     <use xlink:href="#me6f1a88d5b" x="274.371913" y="160.305658" style="fill: #2a2eec; fill-opacity: 0.4; stroke: #000000; stroke-opacity: 0.4"/>
     <use xlink:href="#me6f1a88d5b" x="318.890158" y="141.872655" style="fill: #2a2eec; fill-opacity: 0.4; stroke: #000000; stroke-opacity: 0.4"/>
     <use xlink:href="#me6f1a88d5b" x="311.874445" y="161.450145" style="fill: #2a2eec; fill-opacity: 0.4; stroke: #000000; stroke-opacity: 0.4"/>
    </g>
   </g>
   <g id="line2d_36">
    <path d="M 359.016476 143.309319 
L 284.201008 173.844222 
L 367.83442 139.710397 
L 402.840494 125.423149 
L 296.886834 168.666677 
L 147.702705 229.554124 
L 447.48389 107.202562 
L 417.641965 119.382133 
L 181.023927 215.954527 
L 377.861135 135.618131 
L 316.817372 160.532302 
L 190.813861 211.9589 
L 392.108383 129.803313 
L 324.515777 157.390304 
L 325.904782 156.823401 
L 393.317481 129.309836 
L 230.21903 195.876223 
L 421.30589 117.886753 
L 205.281453 206.054152 
L 355.117225 144.900745 
L 393.631352 129.181734 
L 290.925205 171.099834 
L 292.709806 170.371473 
L 237.49863 192.905154 
L 323.452662 157.8242 
L 215.343368 201.947519 
L 322.000827 158.416747 
L 308.867828 163.776799 
L 160.331384 224.399903 
L 330.769603 154.837891 
L 302.365929 166.43046 
L 253.042435 186.561164 
L 381.160977 134.271346 
L 374.069203 137.165756 
L 173.650664 218.963822 
L 442.451677 109.256391 
L 437.135825 111.425983 
L 496.495766 87.19904 
L 399.034205 126.976634 
L 370.439637 138.647113 
L 236.033391 193.503171 
L 236.938434 193.13379 
L 299.275806 167.691651 
L 268.128946 180.403813 
L 392.169633 129.778315 
L 236.546162 193.293891 
L 187.484277 213.317824 
L 325.476776 156.998086 
L 414.70661 120.580158 
L 281.164068 175.083707 
L 260.57565 183.486586 
L 324.716539 157.308366 
L 263.991268 182.092549 
L 279.309655 175.84056 
L 372.498339 137.806882 
L 324.931639 157.220576 
L 251.897955 187.028268 
L 388.429802 131.304675 
L 272.138004 178.767571 
L 327.629131 156.119632 
L 206.492171 205.560014 
L 242.751896 190.761106 
L 202.669579 207.120152 
L 271.364956 179.08308 
L 207.98506 204.950711 
L 126.693933 238.128566 
L 254.465698 185.980279 
L 240.034913 191.870005 
L 275.494599 177.397623 
L 405.016808 124.534917 
L 379.025608 135.142867 
L 254.243245 186.07107 
L 202.583761 207.155177 
L 236.338401 193.378686 
L 236.721214 193.222446 
L 407.236655 123.628917 
L 275.053983 177.577454 
L 371.911634 138.046338 
L 325.983938 156.791094 
L 200.905504 207.840135 
L 208.648519 204.67993 
L 274.097412 177.967865 
L 342.439837 150.074846 
L 286.462449 172.921246 
L 292.79295 170.337539 
L 265.462969 181.491895 
L 378.399344 135.398468 
L 296.323341 168.896659 
L 343.51265 149.636992 
L 189.823316 212.363177 
L 266.770831 180.958109 
L 270.898558 179.273434 
L 240.163616 191.817477 
L 309.993815 163.317243 
L 227.676301 196.914002 
L 261.766138 183.000705 
L 298.407127 168.04619 
L 274.371913 177.855832 
L 318.890158 159.686323 
L 311.874445 162.54969 
" clip-path="url(#p547114306d)" style="fill: none; stroke: #000000; stroke-width: 0.2; stroke-linecap: round"/>
   </g>
   <g id="line2d_37">
    <path d="M 127.623083 247.100034 
L 128.552233 246.260082 
L 195.451057 216.136481 
L 234.475371 199.058163 
L 286.50779 176.542797 
L 303.232496 169.644694 
L 327.390405 159.889088 
L 347.831712 151.909538 
L 370.13132 143.474521 
L 409.155634 129.025676 
L 483.487661 101.530362 
L 496.495766 96.815907 
L 496.495766 96.815907 
" clip-path="url(#p547114306d)" style="fill: none; stroke: #fa7c17; stroke-opacity: 0; stroke-width: 2; stroke-linecap: round"/>
   </g>
   <g id="line2d_38">
    <path d="M 127.623083 229.199341 
L 128.552233 228.520714 
L 180.584652 209.39597 
L 262.349881 178.947321 
L 275.357986 173.843276 
L 314.3823 158.001065 
L 336.681908 148.577714 
L 375.706222 131.596881 
L 405.439033 118.419423 
L 496.495766 77.091036 
L 496.495766 77.091036 
" clip-path="url(#p547114306d)" style="fill: none; stroke: #fa7c17; stroke-opacity: 0; stroke-width: 2; stroke-linecap: round"/>
   </g>
   <g id="line2d_39">
    <path d="M 127.623083 276.519816 
L 128.552233 275.758729 
L 188.017855 251.291553 
L 206.600861 243.248027 
L 210.317463 241.59083 
L 212.175763 240.944272 
L 215.892365 239.448351 
L 221.467267 237.16787 
L 227.042169 234.859135 
L 230.75877 233.327551 
L 251.200077 224.354431 
L 254.916679 222.857831 
L 260.491581 220.323132 
L 266.066483 218.209729 
L 271.641385 216.266577 
L 277.216287 214.09067 
L 284.649489 210.80998 
L 299.515895 204.330346 
L 308.807398 200.376161 
L 316.240601 197.328751 
L 321.815503 194.92827 
L 329.248705 191.87823 
L 332.965307 190.298726 
L 347.831712 184.588675 
L 351.548313 183.077189 
L 357.123215 180.781713 
L 370.13132 175.827093 
L 379.422823 171.960348 
L 390.572627 167.579355 
L 394.289229 165.869725 
L 401.722431 162.904064 
L 407.297333 160.440873 
L 425.88034 151.953448 
L 435.171843 147.88322 
L 446.321648 143.074558 
L 455.613151 139.665861 
L 464.904654 136.549536 
L 472.337857 134.266985 
L 479.77106 132.171552 
L 487.204262 130.263238 
L 494.637465 128.542043 
L 496.495766 128.140981 
L 496.495766 128.140981 
" clip-path="url(#p547114306d)" style="fill: none; stroke: #fa7c17; stroke-opacity: 0; stroke-width: 2; stroke-linecap: round"/>
   </g>
   <g id="line2d_40">
    <path d="M 127.623083 199.405222 
L 128.552233 198.797429 
L 141.560338 194.404029 
L 154.568443 189.76764 
L 167.576547 184.888262 
L 178.726351 180.505692 
L 189.876155 175.718328 
L 206.600861 167.963718 
L 210.317463 166.39943 
L 215.892365 164.38107 
L 223.325567 161.653732 
L 228.900469 159.707533 
L 243.766875 153.86942 
L 251.200077 150.898947 
L 260.491581 147.338956 
L 271.641385 143.715892 
L 277.216287 141.598764 
L 288.366091 136.803314 
L 292.082692 135.235394 
L 314.3823 125.341497 
L 321.815503 122.330901 
L 332.965307 117.297546 
L 344.115111 112.759399 
L 370.13132 102.516713 
L 381.281124 97.830437 
L 388.714327 94.829509 
L 396.147529 91.493604 
L 403.580732 88.439072 
L 418.447137 81.983991 
L 424.022039 79.397912 
L 438.888445 73.033326 
L 448.179948 69.164783 
L 464.904654 62.477025 
L 481.62936 56.021759 
L 496.495766 50.478924 
L 496.495766 50.478924 
" clip-path="url(#p547114306d)" style="fill: none; stroke: #fa7c17; stroke-opacity: 0; stroke-width: 2; stroke-linecap: round"/>
   </g>
   <g id="patch_3">
    <path d="M 61.36 314.19952 
L 61.36 24.1275 
" style="fill: none"/>
   </g>
   <g id="patch_4">
    <path d="M 61.36 314.19952 
L 516.09952 314.19952 
" style="fill: none"/>
   </g>
   <g id="text_20">
    <!-- Posterior predictive checks -->
    <g style="fill: #262626" transform="translate(61.36 18.1275)scale(0.16 -0.16)">
     <defs>
      <path id="STIXGeneral-Regular-73" d="M 998 1926 
L 1664 1523 
Q 1984 1331 2105 1164 
Q 2227 998 2227 736 
Q 2227 416 1961 176 
Q 1696 -64 1331 -64 
Q 1030 -64 864 -6 
Q 691 51 570 51 
Q 461 51 416 -26 
L 333 -26 
L 333 979 
L 435 979 
Q 538 512 730 294 
Q 922 77 1248 77 
Q 1485 77 1632 211 
Q 1779 346 1779 550 
Q 1779 845 1440 1030 
L 1094 1222 
Q 326 1651 326 2150 
Q 326 2522 566 2730 
Q 806 2938 1210 2938 
Q 1491 2938 1638 2867 
Q 1754 2816 1818 2816 
Q 1862 2816 1920 2880 
L 1990 2880 
L 2022 2010 
L 1926 2010 
Q 1818 2445 1654 2621 
Q 1491 2797 1203 2797 
Q 986 2797 854 2688 
Q 723 2579 723 2362 
Q 723 2253 796 2128 
Q 870 2003 998 1926 
z
" transform="scale(0.015625)"/>
      <path id="STIXGeneral-Regular-70" d="M 1018 2931 
L 1018 2438 
Q 1421 2944 1939 2944 
Q 2406 2944 2707 2560 
Q 3008 2176 3008 1581 
Q 3008 883 2621 409 
Q 2234 -64 1664 -64 
Q 1466 -64 1328 -6 
Q 1190 51 1018 211 
L 1018 -794 
Q 1018 -1094 1120 -1180 
Q 1222 -1267 1581 -1274 
L 1581 -1389 
L 32 -1389 
L 32 -1280 
Q 314 -1254 397 -1171 
Q 480 -1088 480 -838 
L 480 2157 
Q 480 2381 429 2451 
Q 378 2522 218 2522 
Q 115 2522 58 2515 
L 58 2618 
Q 506 2752 979 2944 
L 1018 2931 
z
M 1018 2138 
L 1018 563 
Q 1018 422 1238 281 
Q 1459 141 1683 141 
Q 2029 141 2243 467 
Q 2458 794 2458 1325 
Q 2458 1888 2243 2224 
Q 2029 2560 1670 2560 
Q 1446 2560 1232 2419 
Q 1018 2278 1018 2138 
z
" transform="scale(0.015625)"/>
      <path id="STIXGeneral-Regular-76" d="M 3053 2880 
L 3053 2784 
Q 2906 2771 2835 2688 
Q 2765 2605 2637 2285 
L 1818 230 
Q 1690 -90 1638 -90 
Q 1587 -90 1523 77 
Q 1510 96 1497 141 
Q 1485 186 1472 211 
L 704 2048 
Q 499 2534 403 2652 
Q 307 2771 122 2784 
L 122 2880 
L 1376 2880 
L 1376 2784 
Q 1210 2771 1146 2732 
Q 1082 2694 1082 2611 
Q 1082 2509 1139 2368 
L 1792 730 
L 2426 2387 
Q 2464 2483 2464 2579 
Q 2464 2758 2163 2784 
L 2163 2880 
L 3053 2880 
z
" transform="scale(0.015625)"/>
      <path id="STIXGeneral-Regular-68" d="M 3117 0 
L 1760 0 
L 1760 96 
Q 2042 128 2118 224 
Q 2195 320 2195 653 
L 2195 1920 
Q 2195 2598 1722 2598 
Q 1530 2598 1370 2508 
Q 1210 2419 1005 2195 
L 1005 653 
Q 1005 320 1081 224 
Q 1158 128 1440 96 
L 1440 0 
L 58 0 
L 58 96 
Q 333 134 400 224 
Q 467 314 467 653 
L 467 3667 
Q 467 3872 406 3933 
Q 346 3994 141 3994 
Q 83 3994 64 3987 
L 64 4090 
L 237 4141 
Q 730 4288 973 4371 
L 1005 4352 
L 1005 2406 
Q 1229 2694 1446 2819 
Q 1664 2944 1946 2944 
Q 2733 2944 2733 1926 
L 2733 653 
Q 2733 320 2793 233 
Q 2854 147 3117 96 
L 3117 0 
z
" transform="scale(0.015625)"/>
      <path id="STIXGeneral-Regular-6b" d="M 3232 0 
L 1837 0 
L 1837 96 
L 1958 96 
Q 2093 96 2093 192 
Q 2093 250 2022 339 
L 1062 1606 
L 1062 429 
Q 1062 262 1142 185 
Q 1222 109 1414 102 
L 1542 96 
L 1542 0 
L 45 0 
L 45 96 
Q 390 154 457 214 
Q 525 275 525 525 
L 525 3610 
Q 525 3840 467 3920 
Q 410 4000 250 4000 
Q 211 4000 45 3987 
L 45 4090 
L 237 4141 
Q 621 4243 1037 4371 
L 1062 4358 
L 1062 1670 
L 1939 2451 
Q 2086 2586 2086 2675 
Q 2086 2739 2019 2761 
Q 1952 2784 1766 2790 
L 1766 2880 
L 3072 2880 
L 3072 2784 
Q 2752 2784 2505 2646 
Q 2259 2509 1690 1978 
L 1504 1805 
L 2483 563 
Q 2829 122 3232 96 
L 3232 0 
z
" transform="scale(0.015625)"/>
     </defs>
     <use xlink:href="#STIXGeneral-Regular-50"/>
     <use xlink:href="#STIXGeneral-Regular-6f" x="55.699997"/>
     <use xlink:href="#STIXGeneral-Regular-73" x="105.699982"/>
     <use xlink:href="#STIXGeneral-Regular-74" x="144.599976"/>
     <use xlink:href="#STIXGeneral-Regular-65" x="172.399963"/>
     <use xlink:href="#STIXGeneral-Regular-72" x="216.799957"/>
     <use xlink:href="#STIXGeneral-Regular-69" x="250.099945"/>
     <use xlink:href="#STIXGeneral-Regular-6f" x="277.899933"/>
     <use xlink:href="#STIXGeneral-Regular-72" x="327.899918"/>
     <use xlink:href="#STIXGeneral-Regular-20" x="361.199905"/>
     <use xlink:href="#STIXGeneral-Regular-70" x="386.19989"/>
     <use xlink:href="#STIXGeneral-Regular-72" x="436.199875"/>
     <use xlink:href="#STIXGeneral-Regular-65" x="469.499863"/>
     <use xlink:href="#STIXGeneral-Regular-64" x="513.899857"/>
     <use xlink:href="#STIXGeneral-Regular-69" x="563.899841"/>
     <use xlink:href="#STIXGeneral-Regular-63" x="591.699829"/>
     <use xlink:href="#STIXGeneral-Regular-74" x="636.099823"/>
     <use xlink:href="#STIXGeneral-Regular-69" x="663.899811"/>
     <use xlink:href="#STIXGeneral-Regular-76" x="691.699799"/>
     <use xlink:href="#STIXGeneral-Regular-65" x="741.699783"/>
     <use xlink:href="#STIXGeneral-Regular-20" x="786.099777"/>
     <use xlink:href="#STIXGeneral-Regular-63" x="811.099762"/>
     <use xlink:href="#STIXGeneral-Regular-68" x="855.499756"/>
     <use xlink:href="#STIXGeneral-Regular-65" x="905.499741"/>
     <use xlink:href="#STIXGeneral-Regular-63" x="949.899734"/>
     <use xlink:href="#STIXGeneral-Regular-6b" x="994.299728"/>
     <use xlink:href="#STIXGeneral-Regular-73" x="1044.299713"/>
    </g>
   </g>
   <g id="legend_1">
    <g id="line2d_41">
     <g>
      <use xlink:href="#me6f1a88d5b" x="78.36" y="34.6275" style="fill: #2a2eec; fill-opacity: 0.4; stroke: #000000; stroke-opacity: 0.4"/>
     </g>
    </g>
    <g id="text_21">
     <!-- Data -->
     <g style="fill: #262626" transform="translate(96.36 38.1275)scale(0.1 -0.1)">
      <defs>
       <path id="STIXGeneral-Regular-44" d="M 102 4237 
L 1830 4237 
Q 3078 4237 3750 3654 
Q 4384 3110 4384 2138 
Q 4384 966 3514 410 
Q 2880 0 1901 0 
L 102 0 
L 102 122 
Q 474 147 570 252 
Q 666 358 666 736 
L 666 3520 
Q 666 3891 570 3990 
Q 474 4090 102 4115 
L 102 4237 
z
M 1318 3731 
L 1318 538 
Q 1318 365 1379 301 
Q 1440 237 1626 237 
Q 2125 237 2432 307 
Q 2739 378 3021 570 
Q 3686 1018 3686 2099 
Q 3686 3027 3078 3558 
Q 2803 3802 2476 3901 
Q 2150 4000 1658 4000 
Q 1472 4000 1395 3942 
Q 1318 3885 1318 3731 
z
" transform="scale(0.015625)"/>
       <path id="STIXGeneral-Regular-61" d="M 2829 422 
L 2829 243 
Q 2586 -64 2253 -64 
Q 1888 -64 1843 403 
L 1837 403 
Q 1427 -64 909 -64 
Q 608 -64 422 112 
Q 237 288 237 602 
Q 237 1050 685 1350 
Q 992 1555 1837 1869 
L 1837 2214 
Q 1837 2502 1699 2646 
Q 1562 2790 1338 2790 
Q 1146 2790 1018 2697 
Q 890 2605 890 2477 
Q 890 2419 909 2348 
Q 928 2278 928 2208 
Q 928 2112 841 2029 
Q 755 1946 634 1946 
Q 525 1946 441 2029 
Q 358 2112 358 2240 
Q 358 2547 685 2752 
Q 986 2944 1421 2944 
Q 1939 2944 2176 2656 
Q 2291 2522 2323 2384 
Q 2355 2246 2355 1946 
L 2355 723 
Q 2355 301 2554 301 
Q 2682 301 2829 422 
z
M 1837 813 
L 1837 1715 
Q 1248 1510 1018 1293 
Q 800 1094 800 800 
Q 800 557 921 432 
Q 1043 307 1242 307 
Q 1453 307 1613 410 
Q 1747 506 1792 589 
Q 1837 672 1837 813 
z
" transform="scale(0.015625)"/>
      </defs>
      <use xlink:href="#STIXGeneral-Regular-44"/>
      <use xlink:href="#STIXGeneral-Regular-61" x="72.199982"/>
      <use xlink:href="#STIXGeneral-Regular-74" x="116.599976"/>
      <use xlink:href="#STIXGeneral-Regular-61" x="144.399963"/>
     </g>
    </g>
    <g id="line2d_42">
     <path d="M 68.36 47.797812 
L 78.36 47.797812 
L 88.36 47.797812 
" style="fill: none; stroke: #000000; stroke-width: 0.2; stroke-linecap: round"/>
    </g>
    <g id="text_22">
     <!-- Mean outcomes -->
     <g style="fill: #262626" transform="translate(96.36 51.297812)scale(0.1 -0.1)">
      <defs>
       <path id="STIXGeneral-Regular-4d" d="M 5530 0 
L 3738 0 
L 3738 122 
Q 4115 147 4214 265 
Q 4314 384 4314 787 
L 4314 3661 
L 2682 0 
L 2592 0 
L 979 3514 
L 979 966 
Q 979 448 1088 294 
Q 1197 141 1574 122 
L 1574 0 
L 77 0 
L 77 122 
Q 358 141 480 205 
Q 602 269 650 432 
Q 698 595 698 966 
L 698 3514 
Q 698 3878 589 3984 
Q 480 4090 90 4115 
L 90 4237 
L 1357 4237 
L 2835 1024 
L 4250 4237 
L 5523 4237 
L 5523 4115 
Q 5178 4109 5072 3993 
Q 4966 3878 4966 3520 
L 4966 717 
Q 4966 378 5072 262 
Q 5178 147 5530 122 
L 5530 0 
z
" transform="scale(0.015625)"/>
       <path id="STIXGeneral-Regular-6e" d="M 3104 0 
L 1773 0 
L 1779 96 
Q 2016 115 2096 233 
Q 2176 352 2176 672 
L 2176 1946 
Q 2176 2592 1709 2592 
Q 1549 2592 1408 2515 
Q 1267 2438 1050 2227 
L 1050 461 
Q 1050 269 1136 192 
Q 1222 115 1466 96 
L 1466 0 
L 115 0 
L 115 96 
Q 358 115 435 214 
Q 512 314 512 602 
L 512 2157 
Q 512 2394 467 2483 
Q 422 2573 288 2573 
Q 160 2573 102 2547 
L 102 2656 
Q 550 2784 979 2944 
L 1030 2925 
L 1030 2426 
L 1037 2426 
Q 1491 2944 1958 2944 
Q 2323 2944 2518 2688 
Q 2714 2432 2714 1958 
L 2714 544 
Q 2714 288 2790 205 
Q 2867 122 3104 96 
L 3104 0 
z
" transform="scale(0.015625)"/>
      </defs>
      <use xlink:href="#STIXGeneral-Regular-4d"/>
      <use xlink:href="#STIXGeneral-Regular-65" x="88.899994"/>
      <use xlink:href="#STIXGeneral-Regular-61" x="133.299988"/>
      <use xlink:href="#STIXGeneral-Regular-6e" x="177.699982"/>
      <use xlink:href="#STIXGeneral-Regular-20" x="227.699966"/>
      <use xlink:href="#STIXGeneral-Regular-6f" x="252.699951"/>
      <use xlink:href="#STIXGeneral-Regular-75" x="302.699936"/>
      <use xlink:href="#STIXGeneral-Regular-74" x="352.699921"/>
      <use xlink:href="#STIXGeneral-Regular-63" x="380.499908"/>
      <use xlink:href="#STIXGeneral-Regular-6f" x="424.899902"/>
      <use xlink:href="#STIXGeneral-Regular-6d" x="474.899887"/>
      <use xlink:href="#STIXGeneral-Regular-65" x="552.699875"/>
      <use xlink:href="#STIXGeneral-Regular-73" x="597.099869"/>
     </g>
    </g>
    <g id="patch_5">
     <path d="M 174.963125 38.1275 
L 194.963125 38.1275 
L 194.963125 31.1275 
L 174.963125 31.1275 
z
" style="fill: #da70d6; fill-opacity: 0.5; stroke: #da70d6; stroke-opacity: 0.5; stroke-width: 0.8; stroke-linejoin: miter"/>
    </g>
    <g id="text_23">
     <!-- Mean Outcome 94% HPD -->
     <g style="fill: #262626" transform="translate(202.963125 38.1275)scale(0.1 -0.1)">
      <defs>
       <path id="STIXGeneral-Regular-39" d="M 378 -141 
L 358 -13 
Q 1094 115 1603 608 
Q 2112 1101 2304 1882 
Q 1933 1517 1344 1517 
Q 826 1517 509 1875 
Q 192 2234 192 2816 
Q 192 3462 573 3894 
Q 954 4326 1523 4326 
Q 2131 4326 2528 3840 
Q 2938 3328 2938 2522 
Q 2938 1958 2742 1462 
Q 2547 966 2170 621 
Q 1773 262 1395 105 
Q 1018 -51 378 -141 
z
M 2317 2272 
L 2317 2522 
Q 2317 4147 1472 4147 
Q 1171 4147 1005 3930 
Q 909 3802 845 3546 
Q 781 3290 781 3034 
Q 781 2464 995 2128 
Q 1210 1792 1568 1792 
Q 1824 1792 2070 1917 
Q 2317 2042 2317 2272 
z
" transform="scale(0.015625)"/>
       <path id="STIXGeneral-Regular-34" d="M 3027 1069 
L 2368 1069 
L 2368 0 
L 1869 0 
L 1869 1069 
L 77 1069 
L 77 1478 
L 2086 4326 
L 2368 4326 
L 2368 1478 
L 3027 1478 
L 3027 1069 
z
M 1869 1478 
L 1869 3674 
L 333 1478 
L 1869 1478 
z
" transform="scale(0.015625)"/>
       <path id="STIXGeneral-Regular-25" d="M 4390 1363 
Q 4390 781 4070 329 
Q 3750 -122 3341 -122 
Q 3014 -122 2790 134 
Q 2566 390 2566 762 
Q 2566 1274 2940 1693 
Q 3315 2112 3776 2112 
Q 4070 2112 4230 1917 
Q 4390 1722 4390 1363 
z
M 4243 1376 
Q 4243 1626 4131 1779 
Q 4019 1933 3840 1933 
Q 3654 1933 3526 1786 
Q 3315 1562 3171 1187 
Q 3027 813 3027 486 
Q 3027 301 3129 176 
Q 3232 51 3386 51 
Q 3718 51 3980 457 
Q 4243 864 4243 1376 
z
M 3974 4518 
L 1222 -115 
L 922 -115 
L 3443 4096 
Q 3264 3891 3094 3811 
Q 2925 3731 2669 3731 
Q 2445 3731 2182 3821 
Q 2208 3674 2208 3539 
Q 2208 3206 2067 2873 
Q 1926 2541 1696 2323 
Q 1453 2086 1146 2086 
Q 826 2086 608 2339 
Q 390 2592 390 2963 
Q 390 3507 761 3916 
Q 1133 4326 1626 4326 
Q 1792 4326 2010 4147 
Q 2310 3898 2624 3898 
Q 2918 3898 3084 3994 
Q 3251 4090 3693 4518 
L 3974 4518 
z
M 2054 3642 
Q 2054 3782 2025 3833 
Q 1997 3885 1894 3936 
Q 1747 4006 1613 4154 
Q 1414 4058 1331 3984 
Q 1248 3910 1152 3750 
Q 845 3264 845 2707 
Q 845 2509 944 2384 
Q 1043 2259 1210 2259 
Q 1549 2259 1801 2675 
Q 2054 3091 2054 3642 
z
" transform="scale(0.015625)"/>
       <path id="STIXGeneral-Regular-48" d="M 4499 0 
L 2714 0 
L 2714 122 
Q 3085 147 3181 265 
Q 3277 384 3277 794 
L 3277 2016 
L 1338 2016 
L 1338 723 
Q 1338 371 1440 256 
Q 1542 141 1894 122 
L 1901 0 
L 115 0 
L 115 122 
Q 493 147 589 259 
Q 685 371 685 781 
L 685 3507 
Q 685 3878 585 3980 
Q 486 4083 115 4115 
L 115 4237 
L 1907 4237 
L 1907 4115 
Q 1549 4083 1443 3977 
Q 1338 3872 1338 3507 
L 1338 2298 
L 3277 2298 
L 3277 3507 
Q 3277 3878 3177 3980 
Q 3078 4083 2707 4115 
L 2707 4237 
L 4499 4237 
L 4499 4115 
Q 4141 4083 4035 3977 
Q 3930 3872 3930 3507 
L 3930 710 
Q 3930 371 4035 259 
Q 4141 147 4499 122 
L 4499 0 
z
" transform="scale(0.015625)"/>
      </defs>
      <use xlink:href="#STIXGeneral-Regular-4d"/>
      <use xlink:href="#STIXGeneral-Regular-65" x="88.899994"/>
      <use xlink:href="#STIXGeneral-Regular-61" x="133.299988"/>
      <use xlink:href="#STIXGeneral-Regular-6e" x="177.699982"/>
      <use xlink:href="#STIXGeneral-Regular-20" x="227.699966"/>
      <use xlink:href="#STIXGeneral-Regular-4f" x="252.699951"/>
      <use xlink:href="#STIXGeneral-Regular-75" x="324.899933"/>
      <use xlink:href="#STIXGeneral-Regular-74" x="374.899918"/>
      <use xlink:href="#STIXGeneral-Regular-63" x="402.699905"/>
      <use xlink:href="#STIXGeneral-Regular-6f" x="447.099899"/>
      <use xlink:href="#STIXGeneral-Regular-6d" x="497.099884"/>
      <use xlink:href="#STIXGeneral-Regular-65" x="574.899872"/>
      <use xlink:href="#STIXGeneral-Regular-20" x="619.299866"/>
      <use xlink:href="#STIXGeneral-Regular-39" x="644.29985"/>
      <use xlink:href="#STIXGeneral-Regular-34" x="694.299835"/>
      <use xlink:href="#STIXGeneral-Regular-25" x="744.29982"/>
      <use xlink:href="#STIXGeneral-Regular-20" x="818.999802"/>
      <use xlink:href="#STIXGeneral-Regular-48" x="843.999786"/>
      <use xlink:href="#STIXGeneral-Regular-50" x="916.199768"/>
      <use xlink:href="#STIXGeneral-Regular-44" x="971.899765"/>
     </g>
    </g>
    <g id="patch_6">
     <path d="M 174.963125 51.297812 
L 194.963125 51.297812 
L 194.963125 44.297812 
L 174.963125 44.297812 
z
" style="fill: #ff7f50; fill-opacity: 0.2; stroke: #ff7f50; stroke-opacity: 0.2; stroke-width: 0.8; stroke-linejoin: miter"/>
    </g>
    <g id="text_24">
     <!-- Outcome 94% HPD -->
     <g style="fill: #262626" transform="translate(202.963125 51.297812)scale(0.1 -0.1)">
      <use xlink:href="#STIXGeneral-Regular-4f"/>
      <use xlink:href="#STIXGeneral-Regular-75" x="72.199982"/>
      <use xlink:href="#STIXGeneral-Regular-74" x="122.199966"/>
      <use xlink:href="#STIXGeneral-Regular-63" x="149.999954"/>
      <use xlink:href="#STIXGeneral-Regular-6f" x="194.399948"/>
      <use xlink:href="#STIXGeneral-Regular-6d" x="244.399933"/>
      <use xlink:href="#STIXGeneral-Regular-65" x="322.199921"/>
      <use xlink:href="#STIXGeneral-Regular-20" x="366.599915"/>
      <use xlink:href="#STIXGeneral-Regular-39" x="391.599899"/>
      <use xlink:href="#STIXGeneral-Regular-34" x="441.599884"/>
      <use xlink:href="#STIXGeneral-Regular-25" x="491.599869"/>
      <use xlink:href="#STIXGeneral-Regular-20" x="566.29985"/>
      <use xlink:href="#STIXGeneral-Regular-48" x="591.299835"/>
      <use xlink:href="#STIXGeneral-Regular-50" x="663.499817"/>
      <use xlink:href="#STIXGeneral-Regular-44" x="719.199814"/>
     </g>
    </g>
   </g>
  </g>
 </g>
 <defs>
  <clipPath id="p547114306d">
   <rect x="61.36" y="24.1275" width="454.73952" height="290.07202"/>
  </clipPath>
 </defs>
</svg>
