<?xml version="1.0" encoding="utf-8" standalone="no"?>
<!DOCTYPE svg PUBLIC "-//W3C//DTD SVG 1.1//EN"
  "http://www.w3.org/Graphics/SVG/1.1/DTD/svg11.dtd">
<svg height="283.9675pt" version="1.1" viewBox="0 0 404.177559 283.9675" width="404.177559pt" xmlns="http://www.w3.org/2000/svg" xmlns:xlink="http://www.w3.org/1999/xlink">
 <metadata>
  <rdf:RDF xmlns:cc="http://creativecommons.org/ns#" xmlns:dc="http://purl.org/dc/elements/1.1/" xmlns:rdf="http://www.w3.org/1999/02/22-rdf-syntax-ns#">
   <cc:Work>
    <dc:type rdf:resource="http://purl.org/dc/dcmitype/StillImage"/>
    <dc:date>2022-08-20T17:52:20.812527</dc:date>
    <dc:format>image/svg+xml</dc:format>
    <dc:creator>
     <cc:Agent>
      <dc:title>Matplotlib v3.4.3, https://matplotlib.org/</dc:title>
     </cc:Agent>
    </dc:creator>
   </cc:Work>
  </rdf:RDF>
 </metadata>
 <defs>
  <style type="text/css">*{stroke-linecap:butt;stroke-linejoin:round;}</style>
 </defs>
 <g id="figure_1">
  <g id="patch_1">
   <path d="M 0 283.9675 
L 404.177559 283.9675 
L 404.177559 0 
L 0 0 
z
" style="fill:none;"/>
  </g>
  <g id="axes_1">
   <g id="patch_2">
    <path d="M 45.88 241.5675 
L 380.68 241.5675 
L 380.68 24.1275 
L 45.88 24.1275 
z
" style="fill:#ffffff;"/>
   </g>
   <g id="PathCollection_1">
    <path clip-path="url(#pc780154cb0)" d="M 112.849245 139.244654 
C 113.910596 139.244654 114.928619 138.822975 115.679108 138.072486 
C 116.429596 137.321998 116.851276 136.303974 116.851276 135.242623 
C 116.851276 134.181272 116.429596 133.163248 115.679108 132.41276 
C 114.928619 131.662271 113.910596 131.240592 112.849245 131.240592 
C 111.787894 131.240592 110.76987 131.662271 110.019381 132.41276 
C 109.268893 133.163248 108.847214 134.181272 108.847214 135.242623 
C 108.847214 136.303974 109.268893 137.321998 110.019381 138.072486 
C 110.76987 138.822975 111.787894 139.244654 112.849245 139.244654 
z
" style="fill:#bc80bd;fill-opacity:0.75;stroke:#000000;stroke-opacity:0.75;stroke-width:0.8;"/>
    <path clip-path="url(#pc780154cb0)" d="M 149.064096 157.255102 
C 150.213958 157.255102 151.31688 156.798257 152.129956 155.985181 
C 152.943031 155.172106 153.399876 154.069184 153.399876 152.919321 
C 153.399876 151.769459 152.943031 150.666537 152.129956 149.853462 
C 151.31688 149.040386 150.213958 148.583541 149.064096 148.583541 
C 147.914233 148.583541 146.811312 149.040386 145.998236 149.853462 
C 145.185161 150.666537 144.728315 151.769459 144.728315 152.919321 
C 144.728315 154.069184 145.185161 155.172106 145.998236 155.985181 
C 146.811312 156.798257 147.914233 157.255102 149.064096 157.255102 
z
" style="fill:#bc80bd;fill-opacity:0.75;stroke:#000000;stroke-opacity:0.75;stroke-width:0.8;"/>
    <path clip-path="url(#pc780154cb0)" d="M 118.236473 140.455433 
C 119.298747 140.455433 120.317656 140.033387 121.068798 139.282245 
C 121.819939 138.531104 122.241986 137.512194 122.241986 136.44992 
C 122.241986 135.387645 121.819939 134.368736 121.068798 133.617595 
C 120.317656 132.866453 119.298747 132.444407 118.236473 132.444407 
C 117.174198 132.444407 116.155289 132.866453 115.404147 133.617595 
C 114.653006 134.368736 114.23096 135.387645 114.23096 136.44992 
C 114.23096 137.512194 114.653006 138.531104 115.404147 139.282245 
C 116.155289 140.033387 117.174198 140.455433 118.236473 140.455433 
z
" style="fill:#bc80bd;fill-opacity:0.75;stroke:#000000;stroke-opacity:0.75;stroke-width:0.8;"/>
    <path clip-path="url(#pc780154cb0)" d="M 116.693613 132.527323 
C 117.756433 132.527323 118.775865 132.10506 119.527393 131.353533 
C 120.27892 130.602006 120.701183 129.582573 120.701183 128.519753 
C 120.701183 127.456933 120.27892 126.4375 119.527393 125.685973 
C 118.775865 124.934445 117.756433 124.512183 116.693613 124.512183 
C 115.630792 124.512183 114.61136 124.934445 113.859832 125.685973 
C 113.108305 126.4375 112.686042 127.456933 112.686042 128.519753 
C 112.686042 129.582573 113.108305 130.602006 113.859832 131.353533 
C 114.61136 132.10506 115.630792 132.527323 116.693613 132.527323 
z
" style="fill:#bc80bd;fill-opacity:0.75;stroke:#000000;stroke-opacity:0.75;stroke-width:0.8;"/>
    <path clip-path="url(#pc780154cb0)" d="M 145.249624 131.557372 
C 146.316537 131.557372 147.339895 131.133483 148.094317 130.379062 
C 148.848738 129.624641 149.272627 128.601282 149.272627 127.53437 
C 149.272627 126.467457 148.848738 125.444099 148.094317 124.689678 
C 147.339895 123.935256 146.316537 123.511367 145.249624 123.511367 
C 144.182712 123.511367 143.159353 123.935256 142.404932 124.689678 
C 141.650511 125.444099 141.226622 126.467457 141.226622 127.53437 
C 141.226622 128.601282 141.650511 129.624641 142.404932 130.379062 
C 143.159353 131.133483 144.182712 131.557372 145.249624 131.557372 
z
" style="fill:#bc80bd;fill-opacity:0.75;stroke:#000000;stroke-opacity:0.75;stroke-width:0.8;"/>
    <path clip-path="url(#pc780154cb0)" d="M 121.058708 133.575206 
C 122.120838 133.575206 123.13961 133.153217 123.89065 132.402177 
C 124.64169 131.651137 125.063679 130.632365 125.063679 129.570234 
C 125.063679 128.508104 124.64169 127.489332 123.89065 126.738292 
C 123.13961 125.987252 122.120838 125.565263 121.058708 125.565263 
C 119.996577 125.565263 118.977805 125.987252 118.226765 126.738292 
C 117.475726 127.489332 117.053737 128.508104 117.053737 129.570234 
C 117.053737 130.632365 117.475726 131.651137 118.226765 132.402177 
C 118.977805 133.153217 119.996577 133.575206 121.058708 133.575206 
z
" style="fill:#bc80bd;fill-opacity:0.75;stroke:#000000;stroke-opacity:0.75;stroke-width:0.8;"/>
    <path clip-path="url(#pc780154cb0)" d="M 113.63754 149.487535 
C 114.71349 149.487535 115.745516 149.060055 116.506328 148.299244 
C 117.267139 147.538432 117.694618 146.506406 117.694618 145.430456 
C 117.694618 144.354506 117.267139 143.32248 116.506328 142.561668 
C 115.745516 141.800857 114.71349 141.373377 113.63754 141.373377 
C 112.56159 141.373377 111.529563 141.800857 110.768752 142.561668 
C 110.00794 143.32248 109.580461 144.354506 109.580461 145.430456 
C 109.580461 146.506406 110.00794 147.538432 110.768752 148.299244 
C 111.529563 149.060055 112.56159 149.487535 113.63754 149.487535 
z
" style="fill:#bc80bd;fill-opacity:0.75;stroke:#000000;stroke-opacity:0.75;stroke-width:0.8;"/>
    <path clip-path="url(#pc780154cb0)" d="M 114.621724 151.102314 
C 115.702368 151.102314 116.738897 150.672969 117.503027 149.908838 
C 118.267158 149.144708 118.696503 148.108179 118.696503 147.027535 
C 118.696503 145.94689 118.267158 144.910361 117.503027 144.146231 
C 116.738897 143.3821 115.702368 142.952755 114.621724 142.952755 
C 113.541079 142.952755 112.50455 143.3821 111.74042 144.146231 
C 110.976289 144.910361 110.546944 145.94689 110.546944 147.027535 
C 110.546944 148.108179 110.976289 149.144708 111.74042 149.908838 
C 112.50455 150.672969 113.541079 151.102314 114.621724 151.102314 
z
" style="fill:#bc80bd;fill-opacity:0.75;stroke:#000000;stroke-opacity:0.75;stroke-width:0.8;"/>
    <path clip-path="url(#pc780154cb0)" d="M 359.397035 71.749802 
C 365.761909 71.749802 371.866952 69.221011 376.367597 64.720365 
C 380.868243 60.219719 383.397035 54.114676 383.397035 47.749802 
C 383.397035 41.384928 380.868243 35.279885 376.367597 30.779239 
C 371.866952 26.278593 365.761909 23.749802 359.397035 23.749802 
C 353.03216 23.749802 346.927118 26.278593 342.426472 30.779239 
C 337.925826 35.279885 335.397035 41.384928 335.397035 47.749802 
C 335.397035 54.114676 337.925826 60.219719 342.426472 64.720365 
C 346.927118 69.221011 353.03216 71.749802 359.397035 71.749802 
z
" style="fill:#bc80bd;fill-opacity:0.75;stroke:#000000;stroke-opacity:0.75;stroke-width:0.8;"/>
    <path clip-path="url(#pc780154cb0)" d="M 111.705932 146.092493 
C 112.774352 146.092493 113.799156 145.668005 114.554643 144.912518 
C 115.310131 144.15703 115.734619 143.132226 115.734619 142.063806 
C 115.734619 140.995385 115.310131 139.970581 114.554643 139.215094 
C 113.799156 138.459607 112.774352 138.035119 111.705932 138.035119 
C 110.637511 138.035119 109.612707 138.459607 108.85722 139.215094 
C 108.101732 139.970581 107.677245 140.995385 107.677245 142.063806 
C 107.677245 143.132226 108.101732 144.15703 108.85722 144.912518 
C 109.612707 145.668005 110.637511 146.092493 111.705932 146.092493 
z
" style="fill:#bc80bd;fill-opacity:0.75;stroke:#000000;stroke-opacity:0.75;stroke-width:0.8;"/>
    <path clip-path="url(#pc780154cb0)" d="M 98.019484 166.644074 
C 99.118361 166.644074 100.172379 166.207485 100.949402 165.430462 
C 101.726426 164.653439 102.163014 163.599421 102.163014 162.500544 
C 102.163014 161.401667 101.726426 160.347649 100.949402 159.570626 
C 100.172379 158.793602 99.118361 158.357014 98.019484 158.357014 
C 96.920607 158.357014 95.86659 158.793602 95.089566 159.570626 
C 94.312543 160.347649 93.875955 161.401667 93.875955 162.500544 
C 93.875955 163.599421 94.312543 164.653439 95.089566 165.430462 
C 95.86659 166.207485 96.920607 166.644074 98.019484 166.644074 
z
" style="fill:#bc80bd;fill-opacity:0.75;stroke:#000000;stroke-opacity:0.75;stroke-width:0.8;"/>
    <path clip-path="url(#pc780154cb0)" d="M 108.848183 202.260561 
C 110.172974 202.260561 111.443683 201.734217 112.380451 200.797448 
C 113.317219 199.86068 113.843564 198.589971 113.843564 197.265181 
C 113.843564 195.94039 113.317219 194.669682 112.380451 193.732913 
C 111.443683 192.796145 110.172974 192.2698 108.848183 192.2698 
C 107.523393 192.2698 106.252684 192.796145 105.315916 193.732913 
C 104.379148 194.669682 103.852803 195.94039 103.852803 197.265181 
C 103.852803 198.589971 104.379148 199.86068 105.315916 200.797448 
C 106.252684 201.734217 107.523393 202.260561 108.848183 202.260561 
z
" style="fill:#bc80bd;fill-opacity:0.75;stroke:#000000;stroke-opacity:0.75;stroke-width:0.8;"/>
    <path clip-path="url(#pc780154cb0)" d="M 114.087714 136.767785 
C 115.148526 136.767785 116.166033 136.34632 116.916141 135.596212 
C 117.666249 134.846104 118.087714 133.828597 118.087714 132.767785 
C 118.087714 131.706972 117.666249 130.689465 116.916141 129.939358 
C 116.166033 129.18925 115.148526 128.767785 114.087714 128.767785 
C 113.026901 128.767785 112.009394 129.18925 111.259287 129.939358 
C 110.509179 130.689465 110.087714 131.706972 110.087714 132.767785 
C 110.087714 133.828597 110.509179 134.846104 111.259287 135.596212 
C 112.009394 136.34632 113.026901 136.767785 114.087714 136.767785 
z
" style="fill:#bc80bd;fill-opacity:0.75;stroke:#000000;stroke-opacity:0.75;stroke-width:0.8;"/>
    <path clip-path="url(#pc780154cb0)" d="M 97.546748 82.436308 
C 98.722035 82.436308 99.849344 81.969361 100.680397 81.138308 
C 101.511451 80.307254 101.978397 79.179946 101.978397 78.004659 
C 101.978397 76.829372 101.511451 75.702063 100.680397 74.871009 
C 99.849344 74.039956 98.722035 73.573009 97.546748 73.573009 
C 96.371461 73.573009 95.244152 74.039956 94.413098 74.871009 
C 93.582045 75.702063 93.115098 76.829372 93.115098 78.004659 
C 93.115098 79.179946 93.582045 80.307254 94.413098 81.138308 
C 95.244152 81.969361 96.371461 82.436308 97.546748 82.436308 
z
" style="fill:#bc80bd;fill-opacity:0.75;stroke:#000000;stroke-opacity:0.75;stroke-width:0.8;"/>
    <path clip-path="url(#pc780154cb0)" d="M 91.308013 125.015429 
C 92.372235 125.015429 93.393013 124.592609 94.145532 123.84009 
C 94.898051 123.087571 95.320871 122.066793 95.320871 121.00257 
C 95.320871 119.938348 94.898051 118.91757 94.145532 118.165051 
C 93.393013 117.412532 92.372235 116.989711 91.308013 116.989711 
C 90.24379 116.989711 89.223012 117.412532 88.470493 118.165051 
C 87.717974 118.91757 87.295154 119.938348 87.295154 121.00257 
C 87.295154 122.066793 87.717974 123.087571 88.470493 123.84009 
C 89.223012 124.592609 90.24379 125.015429 91.308013 125.015429 
z
" style="fill:#bc80bd;fill-opacity:0.75;stroke:#000000;stroke-opacity:0.75;stroke-width:0.8;"/>
    <path clip-path="url(#pc780154cb0)" d="M 103.489739 145.961793 
C 104.555716 145.961793 105.578177 145.538275 106.331937 144.784516 
C 107.085696 144.030756 107.509214 143.008295 107.509214 141.942318 
C 107.509214 140.87634 107.085696 139.853879 106.331937 139.10012 
C 105.578177 138.34636 104.555716 137.922843 103.489739 137.922843 
C 102.423761 137.922843 101.4013 138.34636 100.647541 139.10012 
C 99.893781 139.853879 99.470264 140.87634 99.470264 141.942318 
C 99.470264 143.008295 99.893781 144.030756 100.647541 144.784516 
C 101.4013 145.538275 102.423761 145.961793 103.489739 145.961793 
z
" style="fill:#bc80bd;fill-opacity:0.75;stroke:#000000;stroke-opacity:0.75;stroke-width:0.8;"/>
    <path clip-path="url(#pc780154cb0)" d="M 99.448108 124.133881 
C 100.516931 124.133881 101.542121 123.709233 102.297893 122.953461 
C 103.053666 122.197689 103.478313 121.172498 103.478313 120.103675 
C 103.478313 119.034852 103.053666 118.009661 102.297893 117.253889 
C 101.542121 116.498117 100.516931 116.073469 99.448108 116.073469 
C 98.379285 116.073469 97.354094 116.498117 96.598322 117.253889 
C 95.84255 118.009661 95.417902 119.034852 95.417902 120.103675 
C 95.417902 121.172498 95.84255 122.197689 96.598322 122.953461 
C 97.354094 123.709233 98.379285 124.133881 99.448108 124.133881 
z
" style="fill:#bc80bd;fill-opacity:0.75;stroke:#000000;stroke-opacity:0.75;stroke-width:0.8;"/>
    <path clip-path="url(#pc780154cb0)" d="M 121.563786 152.454473 
C 122.653932 152.454473 123.699576 152.021353 124.470427 151.250503 
C 125.241277 150.479653 125.674397 149.434009 125.674397 148.343862 
C 125.674397 147.253715 125.241277 146.208071 124.470427 145.437221 
C 123.699576 144.666371 122.653932 144.233251 121.563786 144.233251 
C 120.473639 144.233251 119.427995 144.666371 118.657145 145.437221 
C 117.886294 146.208071 117.453174 147.253715 117.453174 148.343862 
C 117.453174 149.434009 117.886294 150.479653 118.657145 151.250503 
C 119.427995 152.021353 120.473639 152.454473 121.563786 152.454473 
z
" style="fill:#bc80bd;fill-opacity:0.75;stroke:#000000;stroke-opacity:0.75;stroke-width:0.8;"/>
    <path clip-path="url(#pc780154cb0)" d="M 110.257994 76.023642 
C 111.578861 76.023642 112.845807 75.498856 113.779801 74.564862 
C 114.713795 73.630867 115.238582 72.363921 115.238582 71.043054 
C 115.238582 69.722187 114.713795 68.455241 113.779801 67.521246 
C 112.845807 66.587252 111.578861 66.062466 110.257994 66.062466 
C 108.937126 66.062466 107.67018 66.587252 106.736186 67.521246 
C 105.802192 68.455241 105.277405 69.722187 105.277405 71.043054 
C 105.277405 72.363921 105.802192 73.630867 106.736186 74.564862 
C 107.67018 75.498856 108.937126 76.023642 110.257994 76.023642 
z
" style="fill:#bc80bd;fill-opacity:0.75;stroke:#000000;stroke-opacity:0.75;stroke-width:0.8;"/>
    <path clip-path="url(#pc780154cb0)" d="M 120.402802 151.996407 
C 121.490391 151.996407 122.533581 151.564304 123.302623 150.795262 
C 124.071664 150.026221 124.503768 148.98303 124.503768 147.895441 
C 124.503768 146.807853 124.071664 145.764662 123.302623 144.995621 
C 122.533581 144.226579 121.490391 143.794476 120.402802 143.794476 
C 119.315213 143.794476 118.272022 144.226579 117.502981 144.995621 
C 116.73394 145.764662 116.301836 146.807853 116.301836 147.895441 
C 116.301836 148.98303 116.73394 150.026221 117.502981 150.795262 
C 118.272022 151.564304 119.315213 151.996407 120.402802 151.996407 
z
" style="fill:#bc80bd;fill-opacity:0.75;stroke:#000000;stroke-opacity:0.75;stroke-width:0.8;"/>
    <path clip-path="url(#pc780154cb0)" d="M 126.009774 88.161844 
C 127.356994 88.161844 128.649216 87.626588 129.601845 86.673959 
C 130.554473 85.721331 131.089729 84.429109 131.089729 83.081889 
C 131.089729 81.734669 130.554473 80.442446 129.601845 79.489818 
C 128.649216 78.53719 127.356994 78.001934 126.009774 78.001934 
C 124.662554 78.001934 123.370332 78.53719 122.417703 79.489818 
C 121.465075 80.442446 120.929819 81.734669 120.929819 83.081889 
C 120.929819 84.429109 121.465075 85.721331 122.417703 86.673959 
C 123.370332 87.626588 124.662554 88.161844 126.009774 88.161844 
z
" style="fill:#bc80bd;fill-opacity:0.75;stroke:#000000;stroke-opacity:0.75;stroke-width:0.8;"/>
    <path clip-path="url(#pc780154cb0)" d="M 112.073217 164.454263 
C 113.198949 164.454263 114.278726 164.007004 115.074739 163.210991 
C 115.870752 162.414978 116.31801 161.335202 116.31801 160.209469 
C 116.31801 159.083737 115.870752 158.00396 115.074739 157.207947 
C 114.278726 156.411934 113.198949 155.964676 112.073217 155.964676 
C 110.947484 155.964676 109.867707 156.411934 109.071694 157.207947 
C 108.275681 158.00396 107.828423 159.083737 107.828423 160.209469 
C 107.828423 161.335202 108.275681 162.414978 109.071694 163.210991 
C 109.867707 164.007004 110.947484 164.454263 112.073217 164.454263 
z
" style="fill:#bc80bd;fill-opacity:0.75;stroke:#000000;stroke-opacity:0.75;stroke-width:0.8;"/>
    <path clip-path="url(#pc780154cb0)" d="M 120.44625 140.387713 
C 121.508568 140.387713 122.527519 139.965649 123.278692 139.214477 
C 124.029864 138.463304 124.451928 137.444353 124.451928 136.382034 
C 124.451928 135.319716 124.029864 134.300765 123.278692 133.549592 
C 122.527519 132.79842 121.508568 132.376356 120.44625 132.376356 
C 119.383931 132.376356 118.36498 132.79842 117.613807 133.549592 
C 116.862635 134.300765 116.440572 135.319716 116.440572 136.382034 
C 116.440572 137.444353 116.862635 138.463304 117.613807 139.214477 
C 118.36498 139.965649 119.383931 140.387713 120.44625 140.387713 
z
" style="fill:#bc80bd;fill-opacity:0.75;stroke:#000000;stroke-opacity:0.75;stroke-width:0.8;"/>
    <path clip-path="url(#pc780154cb0)" d="M 107.011934 144.142975 
C 108.076673 144.142975 109.097946 143.71995 109.850829 142.967066 
C 110.603713 142.214182 111.026738 141.19291 111.026738 140.128171 
C 111.026738 139.063433 110.603713 138.04216 109.850829 137.289276 
C 109.097946 136.536393 108.076673 136.113368 107.011934 136.113368 
C 105.947196 136.113368 104.925923 136.536393 104.17304 137.289276 
C 103.420156 138.04216 102.997131 139.063433 102.997131 140.128171 
C 102.997131 141.19291 103.420156 142.214182 104.17304 142.967066 
C 104.925923 143.71995 105.947196 144.142975 107.011934 144.142975 
z
" style="fill:#bc80bd;fill-opacity:0.75;stroke:#000000;stroke-opacity:0.75;stroke-width:0.8;"/>
    <path clip-path="url(#pc780154cb0)" d="M 163.747227 217.454799 
C 165.822212 217.454799 167.81249 216.630399 169.279727 215.163163 
C 170.746963 213.695927 171.571363 211.705648 171.571363 209.630663 
C 171.571363 207.555678 170.746963 205.565399 169.279727 204.098163 
C 167.81249 202.630927 165.822212 201.806526 163.747227 201.806526 
C 161.672241 201.806526 159.681963 202.630927 158.214727 204.098163 
C 156.74749 205.565399 155.92309 207.555678 155.92309 209.630663 
C 155.92309 211.705648 156.74749 213.695927 158.214727 215.163163 
C 159.681963 216.630399 161.672241 217.454799 163.747227 217.454799 
z
" style="fill:#bc80bd;fill-opacity:0.75;stroke:#000000;stroke-opacity:0.75;stroke-width:0.8;"/>
    <path clip-path="url(#pc780154cb0)" d="M 91.214484 113.734011 
C 92.287979 113.734011 93.317651 113.307507 94.076727 112.548431 
C 94.835802 111.789355 95.262306 110.759683 95.262306 109.686188 
C 95.262306 108.612693 94.835802 107.583021 94.076727 106.823946 
C 93.317651 106.06487 92.287979 105.638366 91.214484 105.638366 
C 90.140989 105.638366 89.111317 106.06487 88.352241 106.823946 
C 87.593166 107.583021 87.166662 108.612693 87.166662 109.686188 
C 87.166662 110.759683 87.593166 111.789355 88.352241 112.548431 
C 89.111317 113.307507 90.140989 113.734011 91.214484 113.734011 
z
" style="fill:#bc80bd;fill-opacity:0.75;stroke:#000000;stroke-opacity:0.75;stroke-width:0.8;"/>
    <path clip-path="url(#pc780154cb0)" d="M 131.250019 135.556438 
C 132.3111 135.556438 133.328864 135.134866 134.079161 134.384569 
C 134.829458 133.634272 135.251029 132.616508 135.251029 131.555428 
C 135.251029 130.494348 134.829458 129.476584 134.079161 128.726287 
C 133.328864 127.97599 132.3111 127.554418 131.250019 127.554418 
C 130.188939 127.554418 129.171175 127.97599 128.420878 128.726287 
C 127.670581 129.476584 127.24901 130.494348 127.24901 131.555428 
C 127.24901 132.616508 127.670581 133.634272 128.420878 134.384569 
C 129.171175 135.134866 130.188939 135.556438 131.250019 135.556438 
z
" style="fill:#bc80bd;fill-opacity:0.75;stroke:#000000;stroke-opacity:0.75;stroke-width:0.8;"/>
    <path clip-path="url(#pc780154cb0)" d="M 98.740107 134.272684 
C 99.801234 134.272684 100.819042 133.851094 101.569372 133.100764 
C 102.319703 132.350434 102.741293 131.332625 102.741293 130.271498 
C 102.741293 129.210371 102.319703 128.192563 101.569372 127.442232 
C 100.819042 126.691902 99.801234 126.270312 98.740107 126.270312 
C 97.67898 126.270312 96.661171 126.691902 95.910841 127.442232 
C 95.160511 128.192563 94.738921 129.210371 94.738921 130.271498 
C 94.738921 131.332625 95.160511 132.350434 95.910841 133.100764 
C 96.661171 133.851094 97.67898 134.272684 98.740107 134.272684 
z
" style="fill:#bc80bd;fill-opacity:0.75;stroke:#000000;stroke-opacity:0.75;stroke-width:0.8;"/>
    <path clip-path="url(#pc780154cb0)" d="M 118.796305 134.828702 
C 119.857585 134.828702 120.875541 134.407051 121.62598 133.656612 
C 122.376418 132.906174 122.798069 131.888218 122.798069 130.826937 
C 122.798069 129.765657 122.376418 128.747701 121.62598 127.997262 
C 120.875541 127.246824 119.857585 126.825173 118.796305 126.825173 
C 117.735024 126.825173 116.717068 127.246824 115.96663 127.997262 
C 115.216191 128.747701 114.79454 129.765657 114.79454 130.826937 
C 114.79454 131.888218 115.216191 132.906174 115.96663 133.656612 
C 116.717068 134.407051 117.735024 134.828702 118.796305 134.828702 
z
" style="fill:#bc80bd;fill-opacity:0.75;stroke:#000000;stroke-opacity:0.75;stroke-width:0.8;"/>
    <path clip-path="url(#pc780154cb0)" d="M 122.012432 126.095823 
C 123.08785 126.095823 124.119365 125.668555 124.8798 124.90812 
C 125.640235 124.147685 126.067503 123.116169 126.067503 122.040752 
C 126.067503 120.965334 125.640235 119.933818 124.8798 119.173383 
C 124.119365 118.412948 123.08785 117.98568 122.012432 117.98568 
C 120.937015 117.98568 119.905499 118.412948 119.145064 119.173383 
C 118.384629 119.933818 117.957361 120.965334 117.957361 122.040752 
C 117.957361 123.116169 118.384629 124.147685 119.145064 124.90812 
C 119.905499 125.668555 120.937015 126.095823 122.012432 126.095823 
z
" style="fill:#bc80bd;fill-opacity:0.75;stroke:#000000;stroke-opacity:0.75;stroke-width:0.8;"/>
    <path clip-path="url(#pc780154cb0)" d="M 123.2349 141.335537 
C 124.29833 141.335537 125.318348 140.913031 126.070307 140.161073 
C 126.822266 139.409114 127.244771 138.389096 127.244771 137.325665 
C 127.244771 136.262235 126.822266 135.242217 126.070307 134.490258 
C 125.318348 133.738299 124.29833 133.315794 123.2349 133.315794 
C 122.171469 133.315794 121.151451 133.738299 120.399492 134.490258 
C 119.647534 135.242217 119.225028 136.262235 119.225028 137.325665 
C 119.225028 138.389096 119.647534 139.409114 120.399492 140.161073 
C 121.151451 140.913031 122.171469 141.335537 123.2349 141.335537 
z
" style="fill:#bc80bd;fill-opacity:0.75;stroke:#000000;stroke-opacity:0.75;stroke-width:0.8;"/>
    <path clip-path="url(#pc780154cb0)" d="M 105.394923 98.90743 
C 106.548548 98.90743 107.655078 98.44909 108.470814 97.633354 
C 109.28655 96.817618 109.74489 95.711088 109.74489 94.557463 
C 109.74489 93.403839 109.28655 92.297308 108.470814 91.481572 
C 107.655078 90.665837 106.548548 90.207497 105.394923 90.207497 
C 104.241299 90.207497 103.134768 90.665837 102.319032 91.481572 
C 101.503297 92.297308 101.044957 93.403839 101.044957 94.557463 
C 101.044957 95.711088 101.503297 96.817618 102.319032 97.633354 
C 103.134768 98.44909 104.241299 98.90743 105.394923 98.90743 
z
" style="fill:#bc80bd;fill-opacity:0.75;stroke:#000000;stroke-opacity:0.75;stroke-width:0.8;"/>
    <path clip-path="url(#pc780154cb0)" d="M 102.87343 206.157564 
C 104.159815 206.157564 105.393686 205.646478 106.303298 204.736866 
C 107.21291 203.827254 107.723996 202.593383 107.723996 201.306998 
C 107.723996 200.020612 107.21291 198.786741 106.303298 197.877129 
C 105.393686 196.967518 104.159815 196.456431 102.87343 196.456431 
C 101.587045 196.456431 100.353173 196.967518 99.443561 197.877129 
C 98.53395 198.786741 98.022863 200.020612 98.022863 201.306998 
C 98.022863 202.593383 98.53395 203.827254 99.443561 204.736866 
C 100.353173 205.646478 101.587045 206.157564 102.87343 206.157564 
z
" style="fill:#bc80bd;fill-opacity:0.75;stroke:#000000;stroke-opacity:0.75;stroke-width:0.8;"/>
    <path clip-path="url(#pc780154cb0)" d="M 96.308004 142.951148 
C 97.370295 142.951148 98.389221 142.529095 99.140374 141.777942 
C 99.891527 141.026788 100.31358 140.007863 100.31358 138.945571 
C 100.31358 137.88328 99.891527 136.864354 99.140374 136.113201 
C 98.389221 135.362048 97.370295 134.939995 96.308004 134.939995 
C 95.245712 134.939995 94.226787 135.362048 93.475633 136.113201 
C 92.72448 136.864354 92.302427 137.88328 92.302427 138.945571 
C 92.302427 140.007863 92.72448 141.026788 93.475633 141.777942 
C 94.226787 142.529095 95.245712 142.951148 96.308004 142.951148 
z
" style="fill:#bc80bd;fill-opacity:0.75;stroke:#000000;stroke-opacity:0.75;stroke-width:0.8;"/>
    <path clip-path="url(#pc780154cb0)" d="M 107.895942 108.25708 
C 109.017625 108.25708 110.093517 107.811431 110.886667 107.018281 
C 111.679816 106.225132 112.125466 105.149239 112.125466 104.027556 
C 112.125466 102.905873 111.679816 101.829981 110.886667 101.036831 
C 110.093517 100.243682 109.017625 99.798032 107.895942 99.798032 
C 106.774259 99.798032 105.698366 100.243682 104.905217 101.036831 
C 104.112067 101.829981 103.666418 102.905873 103.666418 104.027556 
C 103.666418 105.149239 104.112067 106.225132 104.905217 107.018281 
C 105.698366 107.811431 106.774259 108.25708 107.895942 108.25708 
z
" style="fill:#bc80bd;fill-opacity:0.75;stroke:#000000;stroke-opacity:0.75;stroke-width:0.8;"/>
    <path clip-path="url(#pc780154cb0)" d="M 101.321806 161.270073 
C 102.414489 161.270073 103.462565 160.835945 104.235208 160.063302 
C 105.007852 159.290659 105.441979 158.242583 105.441979 157.1499 
C 105.441979 156.057217 105.007852 155.009141 104.235208 154.236498 
C 103.462565 153.463855 102.414489 153.029727 101.321806 153.029727 
C 100.229124 153.029727 99.181048 153.463855 98.408404 154.236498 
C 97.635761 155.009141 97.201634 156.057217 97.201634 157.1499 
C 97.201634 158.242583 97.635761 159.290659 98.408404 160.063302 
C 99.181048 160.835945 100.229124 161.270073 101.321806 161.270073 
z
" style="fill:#bc80bd;fill-opacity:0.75;stroke:#000000;stroke-opacity:0.75;stroke-width:0.8;"/>
    <path clip-path="url(#pc780154cb0)" d="M 97.206779 124.636357 
C 98.273931 124.636357 99.297519 124.212372 100.05211 123.457782 
C 100.806701 122.703191 101.230685 121.679603 101.230685 120.61245 
C 101.230685 119.545298 100.806701 118.52171 100.05211 117.767119 
C 99.297519 117.012528 98.273931 116.588544 97.206779 116.588544 
C 96.139626 116.588544 95.116038 117.012528 94.361447 117.767119 
C 93.606856 118.52171 93.182872 119.545298 93.182872 120.61245 
C 93.182872 121.679603 93.606856 122.703191 94.361447 123.457782 
C 95.116038 124.212372 96.139626 124.636357 97.206779 124.636357 
z
" style="fill:#bc80bd;fill-opacity:0.75;stroke:#000000;stroke-opacity:0.75;stroke-width:0.8;"/>
    <path clip-path="url(#pc780154cb0)" d="M 109.892523 169.923787 
C 111.037312 169.923787 112.135367 169.468958 112.944855 168.65947 
C 113.754343 167.849982 114.209172 166.751927 114.209172 165.607138 
C 114.209172 164.462349 113.754343 163.364294 112.944855 162.554806 
C 112.135367 161.745318 111.037312 161.290489 109.892523 161.290489 
C 108.747734 161.290489 107.649679 161.745318 106.840191 162.554806 
C 106.030704 163.364294 105.575874 164.462349 105.575874 165.607138 
C 105.575874 166.751927 106.030704 167.849982 106.840191 168.65947 
C 107.649679 169.468958 108.747734 169.923787 109.892523 169.923787 
z
" style="fill:#bc80bd;fill-opacity:0.75;stroke:#000000;stroke-opacity:0.75;stroke-width:0.8;"/>
    <path clip-path="url(#pc780154cb0)" d="M 93.530499 118.9659 
C 94.601203 118.9659 95.628197 118.540505 96.385298 117.783404 
C 97.142399 117.026302 97.567794 115.999309 97.567794 114.928605 
C 97.567794 113.857902 97.142399 112.830908 96.385298 112.073807 
C 95.628197 111.316706 94.601203 110.891311 93.530499 110.891311 
C 92.459796 110.891311 91.432802 111.316706 90.675701 112.073807 
C 89.9186 112.830908 89.493205 113.857902 89.493205 114.928605 
C 89.493205 115.999309 89.9186 117.026302 90.675701 117.783404 
C 91.432802 118.540505 92.459796 118.9659 93.530499 118.9659 
z
" style="fill:#bc80bd;fill-opacity:0.75;stroke:#000000;stroke-opacity:0.75;stroke-width:0.8;"/>
    <path clip-path="url(#pc780154cb0)" d="M 120.800917 171.302768 
C 121.990032 171.302768 123.130604 170.830328 123.971435 169.989497 
C 124.812266 169.148665 125.284706 168.008094 125.284706 166.818979 
C 125.284706 165.629864 124.812266 164.489292 123.971435 163.648461 
C 123.130604 162.807629 121.990032 162.335189 120.800917 162.335189 
C 119.611802 162.335189 118.47123 162.807629 117.630399 163.648461 
C 116.789568 164.489292 116.317127 165.629864 116.317127 166.818979 
C 116.317127 168.008094 116.789568 169.148665 117.630399 169.989497 
C 118.47123 170.830328 119.611802 171.302768 120.800917 171.302768 
z
" style="fill:#bc80bd;fill-opacity:0.75;stroke:#000000;stroke-opacity:0.75;stroke-width:0.8;"/>
    <path clip-path="url(#pc780154cb0)" d="M 99.784488 145.7412 
C 100.849289 145.7412 101.870623 145.31815 102.623551 144.565221 
C 103.37648 143.812293 103.79953 142.79096 103.79953 141.726158 
C 103.79953 140.661356 103.37648 139.640023 102.623551 138.887095 
C 101.870623 138.134166 100.849289 137.711116 99.784488 137.711116 
C 98.719686 137.711116 97.698353 138.134166 96.945424 138.887095 
C 96.192496 139.640023 95.769446 140.661356 95.769446 141.726158 
C 95.769446 142.79096 96.192496 143.812293 96.945424 144.565221 
C 97.698353 145.31815 98.719686 145.7412 99.784488 145.7412 
z
" style="fill:#bc80bd;fill-opacity:0.75;stroke:#000000;stroke-opacity:0.75;stroke-width:0.8;"/>
    <path clip-path="url(#pc780154cb0)" d="M 112.626453 123.844438 
C 113.702982 123.844438 114.735564 123.416729 115.496785 122.655508 
C 116.258006 121.894287 116.685715 120.861705 116.685715 119.785176 
C 116.685715 118.708648 116.258006 117.676066 115.496785 116.914845 
C 114.735564 116.153624 113.702982 115.725915 112.626453 115.725915 
C 111.549925 115.725915 110.517343 116.153624 109.756122 116.914845 
C 108.994901 117.676066 108.567191 118.708648 108.567191 119.785176 
C 108.567191 120.861705 108.994901 121.894287 109.756122 122.655508 
C 110.517343 123.416729 111.549925 123.844438 112.626453 123.844438 
z
" style="fill:#bc80bd;fill-opacity:0.75;stroke:#000000;stroke-opacity:0.75;stroke-width:0.8;"/>
    <path clip-path="url(#pc780154cb0)" d="M 102.624019 108.48483 
C 103.731462 108.48483 104.793695 108.044838 105.576776 107.261758 
C 106.359856 106.478678 106.799847 105.416444 106.799847 104.309001 
C 106.799847 103.201559 106.359856 102.139325 105.576776 101.356245 
C 104.793695 100.573165 103.731462 100.133173 102.624019 100.133173 
C 101.516576 100.133173 100.454342 100.573165 99.671262 101.356245 
C 98.888182 102.139325 98.44819 103.201559 98.44819 104.309001 
C 98.44819 105.416444 98.888182 106.478678 99.671262 107.261758 
C 100.454342 108.044838 101.516576 108.48483 102.624019 108.48483 
z
" style="fill:#bc80bd;fill-opacity:0.75;stroke:#000000;stroke-opacity:0.75;stroke-width:0.8;"/>
    <path clip-path="url(#pc780154cb0)" d="M 131.093884 144.642508 
C 132.16428 144.642508 133.19098 144.217235 133.947864 143.460351 
C 134.704748 142.703467 135.130021 141.676767 135.130021 140.606371 
C 135.130021 139.535976 134.704748 138.509276 133.947864 137.752392 
C 133.19098 136.995508 132.16428 136.570235 131.093884 136.570235 
C 130.023489 136.570235 128.996789 136.995508 128.239905 137.752392 
C 127.483021 138.509276 127.057748 139.535976 127.057748 140.606371 
C 127.057748 141.676767 127.483021 142.703467 128.239905 143.460351 
C 128.996789 144.217235 130.023489 144.642508 131.093884 144.642508 
z
" style="fill:#bc80bd;fill-opacity:0.75;stroke:#000000;stroke-opacity:0.75;stroke-width:0.8;"/>
    <path clip-path="url(#pc780154cb0)" d="M 149.441668 122.288519 
C 150.55203 122.288519 151.617064 121.847368 152.402209 121.062223 
C 153.187353 120.277079 153.628505 119.212045 153.628505 118.101683 
C 153.628505 116.991321 153.187353 115.926287 152.402209 115.141142 
C 151.617064 114.355998 150.55203 113.914846 149.441668 113.914846 
C 148.331306 113.914846 147.266272 114.355998 146.481128 115.141142 
C 145.695983 115.926287 145.254832 116.991321 145.254832 118.101683 
C 145.254832 119.212045 145.695983 120.277079 146.481128 121.062223 
C 147.266272 121.847368 148.331306 122.288519 149.441668 122.288519 
z
" style="fill:#bc80bd;fill-opacity:0.75;stroke:#000000;stroke-opacity:0.75;stroke-width:0.8;"/>
    <path clip-path="url(#pc780154cb0)" d="M 143.149094 153.20618 
C 144.262544 153.20618 145.330539 152.763802 146.117867 151.976474 
C 146.905195 151.189146 147.347574 150.12115 147.347574 149.0077 
C 147.347574 147.894251 146.905195 146.826255 146.117867 146.038927 
C 145.330539 145.251599 144.262544 144.80922 143.149094 144.80922 
C 142.035644 144.80922 140.967648 145.251599 140.18032 146.038927 
C 139.392992 146.826255 138.950614 147.894251 138.950614 149.0077 
C 138.950614 150.12115 139.392992 151.189146 140.18032 151.976474 
C 140.967648 152.763802 142.035644 153.20618 143.149094 153.20618 
z
" style="fill:#bc80bd;fill-opacity:0.75;stroke:#000000;stroke-opacity:0.75;stroke-width:0.8;"/>
    <path clip-path="url(#pc780154cb0)" d="M 113.658318 103.799532 
C 114.819077 103.799532 115.93245 103.338358 116.753231 102.517577 
C 117.574011 101.696797 118.035186 100.583423 118.035186 99.422664 
C 118.035186 98.261906 117.574011 97.148532 116.753231 96.327752 
C 115.93245 95.506971 114.819077 95.045797 113.658318 95.045797 
C 112.497559 95.045797 111.384186 95.506971 110.563406 96.327752 
C 109.742625 97.148532 109.281451 98.261906 109.281451 99.422664 
C 109.281451 100.583423 109.742625 101.696797 110.563406 102.517577 
C 111.384186 103.338358 112.497559 103.799532 113.658318 103.799532 
z
" style="fill:#bc80bd;fill-opacity:0.75;stroke:#000000;stroke-opacity:0.75;stroke-width:0.8;"/>
    <path clip-path="url(#pc780154cb0)" d="M 110.698021 146.666536 
C 111.767083 146.666536 112.792502 146.241794 113.548443 145.485853 
C 114.304384 144.729912 114.729127 143.704492 114.729127 142.635431 
C 114.729127 141.566369 114.304384 140.540949 113.548443 139.785008 
C 112.792502 139.029067 111.767083 138.604325 110.698021 138.604325 
C 109.628959 138.604325 108.603539 139.029067 107.847598 139.785008 
C 107.091658 140.540949 106.666915 141.566369 106.666915 142.635431 
C 106.666915 143.704492 107.091658 144.729912 107.847598 145.485853 
C 108.603539 146.241794 109.628959 146.666536 110.698021 146.666536 
z
" style="fill:#bc80bd;fill-opacity:0.75;stroke:#000000;stroke-opacity:0.75;stroke-width:0.8;"/>
    <path clip-path="url(#pc780154cb0)" d="M 123.096759 116.749179 
C 124.209318 116.749179 125.276458 116.307155 126.063156 115.520458 
C 126.849853 114.73376 127.291877 113.66662 127.291877 112.554061 
C 127.291877 111.441503 126.849853 110.374363 126.063156 109.587665 
C 125.276458 108.800968 124.209318 108.358943 123.096759 108.358943 
C 121.984201 108.358943 120.917061 108.800968 120.130363 109.587665 
C 119.343666 110.374363 118.901642 111.441503 118.901642 112.554061 
C 118.901642 113.66662 119.343666 114.73376 120.130363 115.520458 
C 120.917061 116.307155 121.984201 116.749179 123.096759 116.749179 
z
" style="fill:#bc80bd;fill-opacity:0.75;stroke:#000000;stroke-opacity:0.75;stroke-width:0.8;"/>
    <path clip-path="url(#pc780154cb0)" d="M 97.006104 147.52091 
C 98.071663 147.52091 99.093722 147.097559 99.847186 146.344096 
C 100.60065 145.590632 101.024001 144.568572 101.024001 143.503013 
C 101.024001 142.437455 100.60065 141.415395 99.847186 140.661931 
C 99.093722 139.908468 98.071663 139.485117 97.006104 139.485117 
C 95.940545 139.485117 94.918486 139.908468 94.165022 140.661931 
C 93.411558 141.415395 92.988207 142.437455 92.988207 143.503013 
C 92.988207 144.568572 93.411558 145.590632 94.165022 146.344096 
C 94.918486 147.097559 95.940545 147.52091 97.006104 147.52091 
z
" style="fill:#bc80bd;fill-opacity:0.75;stroke:#000000;stroke-opacity:0.75;stroke-width:0.8;"/>
    <path clip-path="url(#pc780154cb0)" d="M 136.653164 107.543966 
C 137.861637 107.543966 139.020777 107.063835 139.875297 106.209315 
C 140.729816 105.354796 141.209948 104.195656 141.209948 102.987183 
C 141.209948 101.778709 140.729816 100.619569 139.875297 99.76505 
C 139.020777 98.91053 137.861637 98.430399 136.653164 98.430399 
C 135.444691 98.430399 134.285551 98.91053 133.431031 99.76505 
C 132.576512 100.619569 132.09638 101.778709 132.09638 102.987183 
C 132.09638 104.195656 132.576512 105.354796 133.431031 106.209315 
C 134.285551 107.063835 135.444691 107.543966 136.653164 107.543966 
z
" style="fill:#bc80bd;fill-opacity:0.75;stroke:#000000;stroke-opacity:0.75;stroke-width:0.8;"/>
   </g>
   <g id="matplotlib.axis_1">
    <g id="xtick_1">
     <g id="line2d_1">
      <defs>
       <path d="M 0 0 
L 0 3.5 
" id="m125262470c" style="stroke:#323034;stroke-width:0.8;"/>
      </defs>
      <g>
       <use style="fill:#323034;stroke:#323034;stroke-width:0.8;" x="45.88" xlink:href="#m125262470c" y="241.5675"/>
      </g>
     </g>
     <g id="text_1">
      <!-- $\mathdefault{−0.1}$ -->
      <g style="fill:#323034;" transform="translate(34.24 256.763125)scale(0.12 -0.12)">
       <defs>
        <path d="M 3974 1408 
L 410 1408 
L 410 1830 
L 3974 1830 
L 3974 1408 
z
" id="STIXGeneral-Regular-2212" transform="scale(0.015625)"/>
        <path d="M 3046 2112 
Q 3046 1683 2963 1302 
Q 2880 922 2717 602 
Q 2554 282 2266 96 
Q 1978 -90 1600 -90 
Q 1210 -90 915 108 
Q 621 307 461 640 
Q 301 973 227 1350 
Q 154 1728 154 2150 
Q 154 2746 301 3222 
Q 448 3699 790 4012 
Q 1133 4326 1626 4326 
Q 2253 4326 2649 3712 
Q 3046 3098 3046 2112 
z
M 2432 2080 
Q 2432 3091 2217 3625 
Q 2003 4160 1587 4160 
Q 1190 4160 979 3622 
Q 768 3085 768 2106 
Q 768 1120 979 598 
Q 1190 77 1600 77 
Q 2003 77 2217 598 
Q 2432 1120 2432 2080 
z
" id="STIXGeneral-Regular-30" transform="scale(0.015625)"/>
        <path d="M 1158 275 
Q 1158 134 1052 32 
Q 947 -70 800 -70 
Q 653 -70 550 32 
Q 448 134 448 281 
Q 448 429 553 534 
Q 659 640 806 640 
Q 947 640 1052 531 
Q 1158 422 1158 275 
z
" id="STIXGeneral-Regular-2e" transform="scale(0.015625)"/>
        <path d="M 2522 0 
L 755 0 
L 755 96 
Q 1107 115 1235 227 
Q 1363 339 1363 608 
L 1363 3482 
Q 1363 3795 1171 3795 
Q 1082 3795 883 3718 
L 710 3654 
L 710 3744 
L 1856 4326 
L 1914 4307 
L 1914 486 
Q 1914 275 2042 185 
Q 2170 96 2522 96 
L 2522 0 
z
" id="STIXGeneral-Regular-31" transform="scale(0.015625)"/>
       </defs>
       <use transform="translate(0 0.40625)" xlink:href="#STIXGeneral-Regular-2212"/>
       <use transform="translate(68.499985 0.40625)" xlink:href="#STIXGeneral-Regular-30"/>
       <use transform="translate(118.499969 0.40625)" xlink:href="#STIXGeneral-Regular-2e"/>
       <use transform="translate(143.499954 0.40625)" xlink:href="#STIXGeneral-Regular-31"/>
      </g>
     </g>
    </g>
    <g id="xtick_2">
     <g id="line2d_2">
      <g>
       <use style="fill:#323034;stroke:#323034;stroke-width:0.8;" x="83.08" xlink:href="#m125262470c" y="241.5675"/>
      </g>
     </g>
     <g id="text_2">
      <!-- $\mathdefault{0.0}$ -->
      <g style="fill:#323034;" transform="translate(75.58 256.763125)scale(0.12 -0.12)">
       <use transform="translate(0 0.40625)" xlink:href="#STIXGeneral-Regular-30"/>
       <use transform="translate(49.999985 0.40625)" xlink:href="#STIXGeneral-Regular-2e"/>
       <use transform="translate(74.999969 0.40625)" xlink:href="#STIXGeneral-Regular-30"/>
      </g>
     </g>
    </g>
    <g id="xtick_3">
     <g id="line2d_3">
      <g>
       <use style="fill:#323034;stroke:#323034;stroke-width:0.8;" x="120.28" xlink:href="#m125262470c" y="241.5675"/>
      </g>
     </g>
     <g id="text_3">
      <!-- $\mathdefault{0.1}$ -->
      <g style="fill:#323034;" transform="translate(112.78 256.763125)scale(0.12 -0.12)">
       <use transform="translate(0 0.40625)" xlink:href="#STIXGeneral-Regular-30"/>
       <use transform="translate(49.999985 0.40625)" xlink:href="#STIXGeneral-Regular-2e"/>
       <use transform="translate(74.999969 0.40625)" xlink:href="#STIXGeneral-Regular-31"/>
      </g>
     </g>
    </g>
    <g id="xtick_4">
     <g id="line2d_4">
      <g>
       <use style="fill:#323034;stroke:#323034;stroke-width:0.8;" x="157.48" xlink:href="#m125262470c" y="241.5675"/>
      </g>
     </g>
     <g id="text_4">
      <!-- $\mathdefault{0.2}$ -->
      <g style="fill:#323034;" transform="translate(149.98 256.763125)scale(0.12 -0.12)">
       <defs>
        <path d="M 3034 877 
L 2688 0 
L 186 0 
L 186 77 
L 1325 1286 
Q 1773 1754 1965 2144 
Q 2157 2534 2157 2950 
Q 2157 3379 1920 3616 
Q 1683 3853 1267 3853 
Q 922 3853 720 3673 
Q 518 3494 326 3021 
L 192 3053 
Q 301 3648 630 3987 
Q 960 4326 1523 4326 
Q 2054 4326 2380 4006 
Q 2707 3686 2707 3200 
Q 2707 2477 1888 1613 
L 832 486 
L 2330 486 
Q 2541 486 2665 569 
Q 2790 653 2944 915 
L 3034 877 
z
" id="STIXGeneral-Regular-32" transform="scale(0.015625)"/>
       </defs>
       <use transform="translate(0 0.40625)" xlink:href="#STIXGeneral-Regular-30"/>
       <use transform="translate(49.999985 0.40625)" xlink:href="#STIXGeneral-Regular-2e"/>
       <use transform="translate(74.999969 0.40625)" xlink:href="#STIXGeneral-Regular-32"/>
      </g>
     </g>
    </g>
    <g id="xtick_5">
     <g id="line2d_5">
      <g>
       <use style="fill:#323034;stroke:#323034;stroke-width:0.8;" x="194.68" xlink:href="#m125262470c" y="241.5675"/>
      </g>
     </g>
     <g id="text_5">
      <!-- $\mathdefault{0.3}$ -->
      <g style="fill:#323034;" transform="translate(187.18 256.763125)scale(0.12 -0.12)">
       <defs>
        <path d="M 390 3264 
L 288 3290 
Q 435 3770 748 4048 
Q 1062 4326 1542 4326 
Q 1990 4326 2265 4083 
Q 2541 3840 2541 3450 
Q 2541 2925 1946 2566 
Q 2298 2413 2477 2227 
Q 2758 1914 2758 1402 
Q 2758 890 2464 506 
Q 2246 211 1840 60 
Q 1434 -90 979 -90 
Q 262 -90 262 275 
Q 262 378 339 442 
Q 416 506 525 506 
Q 685 506 915 339 
Q 1197 141 1466 141 
Q 1818 141 2058 425 
Q 2298 710 2298 1120 
Q 2298 1856 1632 2048 
Q 1434 2112 979 2112 
L 979 2202 
Q 1338 2323 1517 2432 
Q 2035 2726 2035 3290 
Q 2035 3610 1852 3776 
Q 1670 3942 1344 3942 
Q 768 3942 390 3264 
z
" id="STIXGeneral-Regular-33" transform="scale(0.015625)"/>
       </defs>
       <use transform="translate(0 0.40625)" xlink:href="#STIXGeneral-Regular-30"/>
       <use transform="translate(49.999985 0.40625)" xlink:href="#STIXGeneral-Regular-2e"/>
       <use transform="translate(74.999969 0.40625)" xlink:href="#STIXGeneral-Regular-33"/>
      </g>
     </g>
    </g>
    <g id="xtick_6">
     <g id="line2d_6">
      <g>
       <use style="fill:#323034;stroke:#323034;stroke-width:0.8;" x="231.88" xlink:href="#m125262470c" y="241.5675"/>
      </g>
     </g>
     <g id="text_6">
      <!-- $\mathdefault{0.4}$ -->
      <g style="fill:#323034;" transform="translate(224.38 256.763125)scale(0.12 -0.12)">
       <defs>
        <path d="M 3027 1069 
L 2368 1069 
L 2368 0 
L 1869 0 
L 1869 1069 
L 77 1069 
L 77 1478 
L 2086 4326 
L 2368 4326 
L 2368 1478 
L 3027 1478 
L 3027 1069 
z
M 1869 1478 
L 1869 3674 
L 333 1478 
L 1869 1478 
z
" id="STIXGeneral-Regular-34" transform="scale(0.015625)"/>
       </defs>
       <use transform="translate(0 0.40625)" xlink:href="#STIXGeneral-Regular-30"/>
       <use transform="translate(49.999985 0.40625)" xlink:href="#STIXGeneral-Regular-2e"/>
       <use transform="translate(74.999969 0.40625)" xlink:href="#STIXGeneral-Regular-34"/>
      </g>
     </g>
    </g>
    <g id="xtick_7">
     <g id="line2d_7">
      <g>
       <use style="fill:#323034;stroke:#323034;stroke-width:0.8;" x="269.08" xlink:href="#m125262470c" y="241.5675"/>
      </g>
     </g>
     <g id="text_7">
      <!-- $\mathdefault{0.5}$ -->
      <g style="fill:#323034;" transform="translate(261.58 256.763125)scale(0.12 -0.12)">
       <defs>
        <path d="M 2803 4358 
L 2573 3814 
Q 2534 3731 2400 3731 
L 1158 3731 
L 902 3187 
Q 1606 3053 1920 2896 
Q 2234 2739 2502 2368 
Q 2726 2061 2726 1555 
Q 2726 1094 2576 780 
Q 2426 467 2099 224 
Q 1664 -90 1011 -90 
Q 646 -90 422 19 
Q 198 128 198 307 
Q 198 550 486 550 
Q 717 550 960 352 
Q 1210 147 1414 147 
Q 1747 147 2012 480 
Q 2278 813 2278 1229 
Q 2278 1843 1850 2189 
Q 1293 2637 486 2637 
Q 410 2637 410 2688 
L 416 2720 
L 1114 4237 
L 2438 4237 
Q 2547 4237 2608 4269 
Q 2669 4301 2746 4403 
L 2803 4358 
z
" id="STIXGeneral-Regular-35" transform="scale(0.015625)"/>
       </defs>
       <use transform="translate(0 0.203125)" xlink:href="#STIXGeneral-Regular-30"/>
       <use transform="translate(49.999985 0.203125)" xlink:href="#STIXGeneral-Regular-2e"/>
       <use transform="translate(74.999969 0.203125)" xlink:href="#STIXGeneral-Regular-35"/>
      </g>
     </g>
    </g>
    <g id="xtick_8">
     <g id="line2d_8">
      <g>
       <use style="fill:#323034;stroke:#323034;stroke-width:0.8;" x="306.28" xlink:href="#m125262470c" y="241.5675"/>
      </g>
     </g>
     <g id="text_8">
      <!-- $\mathdefault{0.6}$ -->
      <g style="fill:#323034;" transform="translate(298.78 256.763125)scale(0.12 -0.12)">
       <defs>
        <path d="M 2854 4378 
L 2867 4275 
Q 2112 4154 1606 3664 
Q 1101 3174 973 2451 
Q 1344 2739 1786 2739 
Q 2349 2739 2672 2380 
Q 2995 2022 2995 1402 
Q 2995 774 2669 378 
Q 2291 -90 1651 -90 
Q 870 -90 518 557 
Q 218 1107 218 1786 
Q 218 2835 915 3552 
Q 1312 3962 1731 4131 
Q 2150 4301 2854 4378 
z
M 2419 1203 
Q 2419 2445 1555 2445 
Q 1235 2445 1024 2275 
Q 813 2106 813 1702 
Q 813 954 1046 522 
Q 1280 90 1722 90 
Q 2061 90 2240 394 
Q 2419 698 2419 1203 
z
" id="STIXGeneral-Regular-36" transform="scale(0.015625)"/>
       </defs>
       <use transform="translate(0 0.59375)" xlink:href="#STIXGeneral-Regular-30"/>
       <use transform="translate(49.999985 0.59375)" xlink:href="#STIXGeneral-Regular-2e"/>
       <use transform="translate(74.999969 0.59375)" xlink:href="#STIXGeneral-Regular-36"/>
      </g>
     </g>
    </g>
    <g id="xtick_9">
     <g id="line2d_9">
      <g>
       <use style="fill:#323034;stroke:#323034;stroke-width:0.8;" x="343.48" xlink:href="#m125262470c" y="241.5675"/>
      </g>
     </g>
     <g id="text_9">
      <!-- $\mathdefault{0.7}$ -->
      <g style="fill:#323034;" transform="translate(335.98 256.763125)scale(0.12 -0.12)">
       <defs>
        <path d="M 2874 4134 
L 1517 -51 
L 1101 -51 
L 2368 3763 
L 992 3763 
Q 717 3763 582 3667 
Q 448 3571 243 3238 
L 128 3296 
L 512 4237 
L 2874 4237 
L 2874 4134 
z
" id="STIXGeneral-Regular-37" transform="scale(0.015625)"/>
       </defs>
       <use transform="translate(0 0.40625)" xlink:href="#STIXGeneral-Regular-30"/>
       <use transform="translate(49.999985 0.40625)" xlink:href="#STIXGeneral-Regular-2e"/>
       <use transform="translate(74.999969 0.40625)" xlink:href="#STIXGeneral-Regular-37"/>
      </g>
     </g>
    </g>
    <g id="xtick_10">
     <g id="line2d_10">
      <g>
       <use style="fill:#323034;stroke:#323034;stroke-width:0.8;" x="380.68" xlink:href="#m125262470c" y="241.5675"/>
      </g>
     </g>
     <g id="text_10">
      <!-- $\mathdefault{0.8}$ -->
      <g style="fill:#323034;" transform="translate(373.18 256.763125)scale(0.12 -0.12)">
       <defs>
        <path d="M 2848 992 
Q 2848 499 2505 204 
Q 2163 -90 1587 -90 
Q 1050 -90 704 204 
Q 358 499 358 954 
Q 358 1293 524 1533 
Q 691 1773 1190 2125 
Q 710 2522 553 2765 
Q 397 3008 397 3328 
Q 397 3782 745 4054 
Q 1094 4326 1638 4326 
Q 2106 4326 2410 4060 
Q 2714 3795 2714 3411 
Q 2714 3059 2531 2848 
Q 2349 2637 1856 2374 
Q 2432 1990 2640 1689 
Q 2848 1389 2848 992 
z
M 2272 3411 
Q 2272 3744 2086 3945 
Q 1901 4147 1574 4147 
Q 1248 4147 1059 3977 
Q 870 3808 870 3513 
Q 870 3219 1059 2979 
Q 1248 2739 1670 2490 
Q 1997 2682 2134 2896 
Q 2272 3110 2272 3411 
z
M 1734 1741 
L 1357 1997 
Q 1075 1766 960 1545 
Q 845 1325 845 1011 
Q 845 576 1065 333 
Q 1286 90 1658 90 
Q 1971 90 2166 285 
Q 2362 480 2362 794 
Q 2362 1082 2214 1299 
Q 2067 1517 1734 1741 
z
" id="STIXGeneral-Regular-38" transform="scale(0.015625)"/>
       </defs>
       <use transform="translate(0 0.40625)" xlink:href="#STIXGeneral-Regular-30"/>
       <use transform="translate(49.999985 0.40625)" xlink:href="#STIXGeneral-Regular-2e"/>
       <use transform="translate(74.999969 0.40625)" xlink:href="#STIXGeneral-Regular-38"/>
      </g>
     </g>
    </g>
    <g id="text_11">
     <!-- H Leverage -->
     <g transform="translate(175.7425 273.28)scale(0.16 -0.16)">
      <defs>
       <path d="M 4499 0 
L 2714 0 
L 2714 122 
Q 3085 147 3181 265 
Q 3277 384 3277 794 
L 3277 2016 
L 1338 2016 
L 1338 723 
Q 1338 371 1440 256 
Q 1542 141 1894 122 
L 1901 0 
L 115 0 
L 115 122 
Q 493 147 589 259 
Q 685 371 685 781 
L 685 3507 
Q 685 3878 585 3980 
Q 486 4083 115 4115 
L 115 4237 
L 1907 4237 
L 1907 4115 
Q 1549 4083 1443 3977 
Q 1338 3872 1338 3507 
L 1338 2298 
L 3277 2298 
L 3277 3507 
Q 3277 3878 3177 3980 
Q 3078 4083 2707 4115 
L 2707 4237 
L 4499 4237 
L 4499 4115 
Q 4141 4083 4035 3977 
Q 3930 3872 3930 3507 
L 3930 710 
Q 3930 371 4035 259 
Q 4141 147 4499 122 
L 4499 0 
z
" id="STIXGeneral-Regular-48" transform="scale(0.015625)"/>
       <path id="STIXGeneral-Regular-20" transform="scale(0.015625)"/>
       <path d="M 3827 1114 
L 3520 0 
L 77 0 
L 77 122 
Q 429 141 531 256 
Q 634 371 634 736 
L 634 3494 
Q 634 3872 541 3981 
Q 448 4090 77 4115 
L 77 4237 
L 1888 4237 
L 1888 4115 
Q 1498 4090 1392 3984 
Q 1286 3878 1286 3507 
L 1286 538 
Q 1286 358 1398 304 
Q 1510 250 1862 250 
L 2310 250 
Q 3085 250 3392 640 
Q 3520 813 3661 1114 
L 3827 1114 
z
" id="STIXGeneral-Regular-4c" transform="scale(0.015625)"/>
       <path d="M 2611 1050 
L 2714 1005 
Q 2330 -64 1376 -64 
Q 813 -64 486 329 
Q 160 723 160 1389 
Q 160 2074 525 2509 
Q 890 2944 1485 2944 
Q 2061 2944 2374 2502 
Q 2560 2246 2592 1773 
L 621 1773 
Q 646 1370 700 1158 
Q 755 947 915 730 
Q 1184 378 1626 378 
Q 1939 378 2153 531 
Q 2368 685 2611 1050 
z
M 634 1978 
L 1939 1978 
Q 1882 2381 1750 2547 
Q 1619 2714 1312 2714 
Q 1043 2714 864 2525 
Q 685 2336 634 1978 
z
" id="STIXGeneral-Regular-65" transform="scale(0.015625)"/>
       <path d="M 3053 2880 
L 3053 2784 
Q 2906 2771 2835 2688 
Q 2765 2605 2637 2285 
L 1818 230 
Q 1690 -90 1638 -90 
Q 1587 -90 1523 77 
Q 1510 96 1497 141 
Q 1485 186 1472 211 
L 704 2048 
Q 499 2534 403 2652 
Q 307 2771 122 2784 
L 122 2880 
L 1376 2880 
L 1376 2784 
Q 1210 2771 1146 2732 
Q 1082 2694 1082 2611 
Q 1082 2509 1139 2368 
L 1792 730 
L 2426 2387 
Q 2464 2483 2464 2579 
Q 2464 2758 2163 2784 
L 2163 2880 
L 3053 2880 
z
" id="STIXGeneral-Regular-76" transform="scale(0.015625)"/>
       <path d="M 1024 2931 
L 1024 2342 
Q 1267 2688 1430 2816 
Q 1594 2944 1792 2944 
Q 1958 2944 2051 2854 
Q 2144 2765 2144 2605 
Q 2144 2470 2077 2393 
Q 2010 2317 1894 2317 
Q 1773 2317 1638 2445 
Q 1536 2541 1472 2541 
Q 1338 2541 1181 2355 
Q 1024 2170 1024 2016 
L 1024 576 
Q 1024 301 1133 205 
Q 1242 109 1568 96 
L 1568 0 
L 32 0 
L 32 96 
Q 339 154 412 224 
Q 486 294 486 538 
L 486 2138 
Q 486 2349 438 2435 
Q 390 2522 269 2522 
Q 166 2522 45 2496 
L 45 2598 
Q 448 2726 992 2944 
L 1024 2931 
z
" id="STIXGeneral-Regular-72" transform="scale(0.015625)"/>
       <path d="M 2829 422 
L 2829 243 
Q 2586 -64 2253 -64 
Q 1888 -64 1843 403 
L 1837 403 
Q 1427 -64 909 -64 
Q 608 -64 422 112 
Q 237 288 237 602 
Q 237 1050 685 1350 
Q 992 1555 1837 1869 
L 1837 2214 
Q 1837 2502 1699 2646 
Q 1562 2790 1338 2790 
Q 1146 2790 1018 2697 
Q 890 2605 890 2477 
Q 890 2419 909 2348 
Q 928 2278 928 2208 
Q 928 2112 841 2029 
Q 755 1946 634 1946 
Q 525 1946 441 2029 
Q 358 2112 358 2240 
Q 358 2547 685 2752 
Q 986 2944 1421 2944 
Q 1939 2944 2176 2656 
Q 2291 2522 2323 2384 
Q 2355 2246 2355 1946 
L 2355 723 
Q 2355 301 2554 301 
Q 2682 301 2829 422 
z
M 1837 813 
L 1837 1715 
Q 1248 1510 1018 1293 
Q 800 1094 800 800 
Q 800 557 921 432 
Q 1043 307 1242 307 
Q 1453 307 1613 410 
Q 1747 506 1792 589 
Q 1837 672 1837 813 
z
" id="STIXGeneral-Regular-61" transform="scale(0.015625)"/>
       <path d="M 3008 2483 
L 2477 2483 
Q 2598 2208 2598 1946 
Q 2598 1453 2265 1203 
Q 1933 954 1600 954 
Q 1530 954 1357 973 
L 1235 986 
Q 1107 947 979 812 
Q 851 678 851 582 
Q 851 435 1350 410 
L 2176 371 
Q 2528 358 2739 172 
Q 2950 -13 2950 -314 
Q 2950 -685 2566 -986 
Q 2035 -1395 1286 -1395 
Q 826 -1395 502 -1212 
Q 179 -1030 179 -774 
Q 179 -595 320 -419 
Q 461 -243 806 6 
Q 602 102 534 172 
Q 467 243 467 346 
Q 467 531 762 787 
Q 909 915 1037 1043 
Q 717 1203 579 1401 
Q 442 1600 442 1901 
Q 442 2336 752 2640 
Q 1062 2944 1510 2944 
Q 1766 2944 2022 2848 
L 2163 2797 
Q 2349 2733 2515 2733 
L 3008 2733 
L 3008 2483 
z
M 973 2163 
L 973 2144 
Q 973 1683 1155 1398 
Q 1338 1114 1632 1114 
Q 1850 1114 1978 1270 
Q 2106 1427 2106 1690 
Q 2106 2112 1914 2464 
Q 1754 2765 1446 2765 
Q 1222 2765 1097 2605 
Q 973 2445 973 2163 
z
M 2771 -410 
Q 2771 -230 2595 -163 
Q 2419 -96 1978 -96 
Q 1344 -96 941 -13 
Q 749 -243 688 -348 
Q 627 -454 627 -563 
Q 627 -774 880 -902 
Q 1133 -1030 1555 -1030 
Q 2099 -1030 2435 -860 
Q 2771 -691 2771 -410 
z
" id="STIXGeneral-Regular-67" transform="scale(0.015625)"/>
      </defs>
      <use xlink:href="#STIXGeneral-Regular-48"/>
      <use x="72.199982" xlink:href="#STIXGeneral-Regular-20"/>
      <use x="97.199966" xlink:href="#STIXGeneral-Regular-4c"/>
      <use x="158.299957" xlink:href="#STIXGeneral-Regular-65"/>
      <use x="202.699951" xlink:href="#STIXGeneral-Regular-76"/>
      <use x="252.699936" xlink:href="#STIXGeneral-Regular-65"/>
      <use x="297.09993" xlink:href="#STIXGeneral-Regular-72"/>
      <use x="330.399918" xlink:href="#STIXGeneral-Regular-61"/>
      <use x="374.799911" xlink:href="#STIXGeneral-Regular-67"/>
      <use x="424.799896" xlink:href="#STIXGeneral-Regular-65"/>
     </g>
    </g>
   </g>
   <g id="matplotlib.axis_2">
    <g id="ytick_1">
     <g id="line2d_11">
      <defs>
       <path d="M 0 0 
L -3.5 0 
" id="m23bb35e022" style="stroke:#323034;stroke-width:0.8;"/>
      </defs>
      <g>
       <use style="fill:#323034;stroke:#323034;stroke-width:0.8;" x="45.88" xlink:href="#m23bb35e022" y="241.5675"/>
      </g>
     </g>
     <g id="text_12">
      <!-- $\mathdefault{−4}$ -->
      <g style="fill:#323034;" transform="translate(24.6 245.665312)scale(0.12 -0.12)">
       <use transform="translate(0 0.40625)" xlink:href="#STIXGeneral-Regular-2212"/>
       <use transform="translate(68.499985 0.40625)" xlink:href="#STIXGeneral-Regular-34"/>
      </g>
     </g>
    </g>
    <g id="ytick_2">
     <g id="line2d_12">
      <g>
       <use style="fill:#323034;stroke:#323034;stroke-width:0.8;" x="45.88" xlink:href="#m23bb35e022" y="214.3875"/>
      </g>
     </g>
     <g id="text_13">
      <!-- $\mathdefault{−3}$ -->
      <g style="fill:#323034;" transform="translate(24.6 218.485312)scale(0.12 -0.12)">
       <use transform="translate(0 0.40625)" xlink:href="#STIXGeneral-Regular-2212"/>
       <use transform="translate(68.499985 0.40625)" xlink:href="#STIXGeneral-Regular-33"/>
      </g>
     </g>
    </g>
    <g id="ytick_3">
     <g id="line2d_13">
      <g>
       <use style="fill:#323034;stroke:#323034;stroke-width:0.8;" x="45.88" xlink:href="#m23bb35e022" y="187.2075"/>
      </g>
     </g>
     <g id="text_14">
      <!-- $\mathdefault{−2}$ -->
      <g style="fill:#323034;" transform="translate(24.6 191.305312)scale(0.12 -0.12)">
       <use transform="translate(0 0.40625)" xlink:href="#STIXGeneral-Regular-2212"/>
       <use transform="translate(68.499985 0.40625)" xlink:href="#STIXGeneral-Regular-32"/>
      </g>
     </g>
    </g>
    <g id="ytick_4">
     <g id="line2d_14">
      <g>
       <use style="fill:#323034;stroke:#323034;stroke-width:0.8;" x="45.88" xlink:href="#m23bb35e022" y="160.0275"/>
      </g>
     </g>
     <g id="text_15">
      <!-- $\mathdefault{−1}$ -->
      <g style="fill:#323034;" transform="translate(24.6 164.125313)scale(0.12 -0.12)">
       <use transform="translate(0 0.40625)" xlink:href="#STIXGeneral-Regular-2212"/>
       <use transform="translate(68.499985 0.40625)" xlink:href="#STIXGeneral-Regular-31"/>
      </g>
     </g>
    </g>
    <g id="ytick_5">
     <g id="line2d_15">
      <g>
       <use style="fill:#323034;stroke:#323034;stroke-width:0.8;" x="45.88" xlink:href="#m23bb35e022" y="132.8475"/>
      </g>
     </g>
     <g id="text_16">
      <!-- $\mathdefault{0}$ -->
      <g style="fill:#323034;" transform="translate(32.88 136.945312)scale(0.12 -0.12)">
       <use transform="translate(0 0.40625)" xlink:href="#STIXGeneral-Regular-30"/>
      </g>
     </g>
    </g>
    <g id="ytick_6">
     <g id="line2d_16">
      <g>
       <use style="fill:#323034;stroke:#323034;stroke-width:0.8;" x="45.88" xlink:href="#m23bb35e022" y="105.6675"/>
      </g>
     </g>
     <g id="text_17">
      <!-- $\mathdefault{1}$ -->
      <g style="fill:#323034;" transform="translate(32.88 109.765312)scale(0.12 -0.12)">
       <use transform="translate(0 0.40625)" xlink:href="#STIXGeneral-Regular-31"/>
      </g>
     </g>
    </g>
    <g id="ytick_7">
     <g id="line2d_17">
      <g>
       <use style="fill:#323034;stroke:#323034;stroke-width:0.8;" x="45.88" xlink:href="#m23bb35e022" y="78.4875"/>
      </g>
     </g>
     <g id="text_18">
      <!-- $\mathdefault{2}$ -->
      <g style="fill:#323034;" transform="translate(32.88 82.585313)scale(0.12 -0.12)">
       <use transform="translate(0 0.40625)" xlink:href="#STIXGeneral-Regular-32"/>
      </g>
     </g>
    </g>
    <g id="ytick_8">
     <g id="line2d_18">
      <g>
       <use style="fill:#323034;stroke:#323034;stroke-width:0.8;" x="45.88" xlink:href="#m23bb35e022" y="51.3075"/>
      </g>
     </g>
     <g id="text_19">
      <!-- $\mathdefault{3}$ -->
      <g style="fill:#323034;" transform="translate(32.88 55.405313)scale(0.12 -0.12)">
       <use transform="translate(0 0.40625)" xlink:href="#STIXGeneral-Regular-33"/>
      </g>
     </g>
    </g>
    <g id="ytick_9">
     <g id="line2d_19">
      <g>
       <use style="fill:#323034;stroke:#323034;stroke-width:0.8;" x="45.88" xlink:href="#m23bb35e022" y="24.1275"/>
      </g>
     </g>
     <g id="text_20">
      <!-- $\mathdefault{4}$ -->
      <g style="fill:#323034;" transform="translate(32.88 28.225313)scale(0.12 -0.12)">
       <use transform="translate(0 0.40625)" xlink:href="#STIXGeneral-Regular-34"/>
      </g>
     </g>
    </g>
    <g id="text_21">
     <!-- Studentized Residuals -->
     <g transform="translate(18.1275 203.7375)rotate(-90)scale(0.16 -0.16)">
      <defs>
       <path d="M 3002 2963 
L 2842 2963 
Q 2733 3360 2579 3565 
Q 2189 4064 1651 4064 
Q 1357 4064 1181 3894 
Q 1005 3725 1005 3456 
Q 1005 3328 1069 3206 
Q 1133 3085 1206 2998 
Q 1280 2912 1465 2784 
Q 1651 2656 1766 2589 
Q 1882 2522 2150 2362 
Q 2669 2061 2905 1763 
Q 3142 1466 3142 1107 
Q 3142 576 2771 243 
Q 2400 -90 1837 -90 
Q 1421 -90 1082 58 
Q 915 128 781 128 
Q 704 128 653 70 
Q 602 13 602 -83 
L 461 -83 
L 275 1274 
L 416 1274 
Q 845 141 1734 141 
Q 2074 141 2285 342 
Q 2496 544 2496 858 
Q 2496 1158 2310 1363 
Q 2003 1696 1235 2106 
Q 454 2522 454 3206 
Q 454 3718 768 4022 
Q 1082 4326 1568 4326 
Q 1907 4326 2240 4186 
Q 2413 4109 2522 4109 
Q 2688 4109 2726 4326 
L 2861 4326 
L 3002 2963 
z
" id="STIXGeneral-Regular-53" transform="scale(0.015625)"/>
       <path d="M 1702 493 
L 1786 422 
Q 1478 -64 1011 -64 
Q 448 -64 448 749 
L 448 2675 
L 109 2675 
Q 83 2694 83 2720 
Q 83 2771 192 2842 
Q 435 2982 813 3526 
Q 826 3546 874 3606 
Q 922 3667 941 3706 
Q 986 3706 986 3622 
L 986 2880 
L 1632 2880 
L 1632 2675 
L 986 2675 
L 986 845 
Q 986 538 1062 403 
Q 1139 269 1318 269 
Q 1510 269 1702 493 
z
" id="STIXGeneral-Regular-74" transform="scale(0.015625)"/>
       <path d="M 3072 320 
L 3072 230 
Q 2573 96 2195 -58 
L 2163 -38 
L 2163 486 
L 2150 486 
Q 1747 -64 1235 -64 
Q 870 -64 662 160 
Q 454 384 454 755 
L 454 2362 
Q 454 2598 371 2688 
Q 288 2778 58 2790 
L 58 2880 
L 992 2880 
L 992 813 
Q 992 595 1123 451 
Q 1254 307 1446 307 
Q 1760 307 1984 506 
Q 2067 582 2099 649 
Q 2131 717 2131 877 
L 2131 2355 
Q 2131 2605 2041 2678 
Q 1952 2752 1658 2771 
L 1658 2880 
L 2669 2880 
L 2669 685 
Q 2669 461 2742 390 
Q 2816 320 3034 320 
L 3072 320 
z
" id="STIXGeneral-Regular-75" transform="scale(0.015625)"/>
       <path d="M 3142 269 
L 2202 -64 
L 2176 -45 
L 2176 365 
Q 1869 -64 1357 -64 
Q 826 -64 499 317 
Q 173 698 173 1312 
Q 173 1990 563 2467 
Q 954 2944 1504 2944 
Q 1850 2944 2176 2669 
L 2176 3667 
Q 2176 3866 2118 3930 
Q 2061 3994 1882 3994 
Q 1792 3994 1741 3987 
L 1741 4090 
Q 2323 4243 2682 4371 
L 2714 4358 
L 2714 730 
Q 2714 506 2768 435 
Q 2822 365 2995 365 
Q 3034 365 3142 371 
L 3142 269 
z
M 2176 653 
L 2176 2125 
Q 2176 2381 1981 2573 
Q 1786 2765 1523 2765 
Q 1158 2765 940 2438 
Q 723 2112 723 1568 
Q 723 979 963 624 
Q 1203 269 1606 269 
Q 1907 269 2080 474 
Q 2176 582 2176 653 
z
" id="STIXGeneral-Regular-64" transform="scale(0.015625)"/>
       <path d="M 3104 0 
L 1773 0 
L 1779 96 
Q 2016 115 2096 233 
Q 2176 352 2176 672 
L 2176 1946 
Q 2176 2592 1709 2592 
Q 1549 2592 1408 2515 
Q 1267 2438 1050 2227 
L 1050 461 
Q 1050 269 1136 192 
Q 1222 115 1466 96 
L 1466 0 
L 115 0 
L 115 96 
Q 358 115 435 214 
Q 512 314 512 602 
L 512 2157 
Q 512 2394 467 2483 
Q 422 2573 288 2573 
Q 160 2573 102 2547 
L 102 2656 
Q 550 2784 979 2944 
L 1030 2925 
L 1030 2426 
L 1037 2426 
Q 1491 2944 1958 2944 
Q 2323 2944 2518 2688 
Q 2714 2432 2714 1958 
L 2714 544 
Q 2714 288 2790 205 
Q 2867 122 3104 96 
L 3104 0 
z
" id="STIXGeneral-Regular-6e" transform="scale(0.015625)"/>
       <path d="M 1152 4045 
Q 1152 3904 1056 3811 
Q 960 3718 819 3718 
Q 685 3718 592 3811 
Q 499 3904 499 4045 
Q 499 4179 595 4275 
Q 691 4371 826 4371 
Q 966 4371 1059 4275 
Q 1152 4179 1152 4045 
z
M 1619 0 
L 102 0 
L 102 96 
Q 435 115 521 211 
Q 608 307 608 666 
L 608 2118 
Q 608 2342 563 2432 
Q 518 2522 397 2522 
Q 243 2522 128 2490 
L 128 2592 
L 1120 2944 
L 1146 2918 
L 1146 672 
Q 1146 314 1226 218 
Q 1306 122 1619 96 
L 1619 0 
z
" id="STIXGeneral-Regular-69" transform="scale(0.015625)"/>
       <path d="M 2675 870 
L 2579 0 
L 173 0 
L 173 96 
L 1875 2688 
L 1011 2688 
Q 710 2688 604 2582 
Q 499 2477 454 2125 
L 339 2125 
L 365 2880 
L 2579 2880 
L 2579 2784 
L 858 192 
L 1709 192 
Q 2246 192 2387 365 
Q 2477 474 2560 896 
L 2675 870 
z
" id="STIXGeneral-Regular-7a" transform="scale(0.015625)"/>
       <path d="M 4224 0 
L 3187 0 
L 1664 1971 
L 1306 1958 
L 1306 717 
Q 1306 352 1405 249 
Q 1504 147 1875 122 
L 1875 0 
L 109 0 
L 109 122 
Q 474 154 563 262 
Q 653 371 653 794 
L 653 3526 
Q 653 3885 563 3987 
Q 474 4090 109 4115 
L 109 4237 
L 1850 4237 
Q 2726 4237 3187 3859 
Q 3501 3603 3501 3091 
Q 3501 2221 2342 2042 
L 3622 422 
Q 3757 256 3878 198 
Q 4000 141 4224 122 
L 4224 0 
z
M 1306 3731 
L 1306 2195 
Q 1766 2202 1990 2246 
Q 2214 2291 2438 2413 
Q 2803 2618 2803 3142 
Q 2803 4000 1632 4000 
Q 1459 4000 1382 3945 
Q 1306 3891 1306 3731 
z
" id="STIXGeneral-Regular-52" transform="scale(0.015625)"/>
       <path d="M 998 1926 
L 1664 1523 
Q 1984 1331 2105 1164 
Q 2227 998 2227 736 
Q 2227 416 1961 176 
Q 1696 -64 1331 -64 
Q 1030 -64 864 -6 
Q 691 51 570 51 
Q 461 51 416 -26 
L 333 -26 
L 333 979 
L 435 979 
Q 538 512 730 294 
Q 922 77 1248 77 
Q 1485 77 1632 211 
Q 1779 346 1779 550 
Q 1779 845 1440 1030 
L 1094 1222 
Q 326 1651 326 2150 
Q 326 2522 566 2730 
Q 806 2938 1210 2938 
Q 1491 2938 1638 2867 
Q 1754 2816 1818 2816 
Q 1862 2816 1920 2880 
L 1990 2880 
L 2022 2010 
L 1926 2010 
Q 1818 2445 1654 2621 
Q 1491 2797 1203 2797 
Q 986 2797 854 2688 
Q 723 2579 723 2362 
Q 723 2253 796 2128 
Q 870 2003 998 1926 
z
" id="STIXGeneral-Regular-73" transform="scale(0.015625)"/>
       <path d="M 1645 0 
L 134 0 
L 134 96 
Q 435 122 531 221 
Q 627 320 627 589 
L 627 3590 
Q 627 3821 569 3910 
Q 512 4000 358 4000 
Q 224 4000 122 3987 
L 122 4090 
Q 730 4237 1133 4371 
L 1165 4346 
L 1165 557 
Q 1165 288 1254 201 
Q 1344 115 1645 96 
L 1645 0 
z
" id="STIXGeneral-Regular-6c" transform="scale(0.015625)"/>
      </defs>
      <use xlink:href="#STIXGeneral-Regular-53"/>
      <use x="55.599991" xlink:href="#STIXGeneral-Regular-74"/>
      <use x="83.399979" xlink:href="#STIXGeneral-Regular-75"/>
      <use x="133.399963" xlink:href="#STIXGeneral-Regular-64"/>
      <use x="183.399948" xlink:href="#STIXGeneral-Regular-65"/>
      <use x="227.799942" xlink:href="#STIXGeneral-Regular-6e"/>
      <use x="277.799927" xlink:href="#STIXGeneral-Regular-74"/>
      <use x="305.599915" xlink:href="#STIXGeneral-Regular-69"/>
      <use x="333.399902" xlink:href="#STIXGeneral-Regular-7a"/>
      <use x="377.799896" xlink:href="#STIXGeneral-Regular-65"/>
      <use x="422.19989" xlink:href="#STIXGeneral-Regular-64"/>
      <use x="472.199875" xlink:href="#STIXGeneral-Regular-20"/>
      <use x="497.19986" xlink:href="#STIXGeneral-Regular-52"/>
      <use x="563.899857" xlink:href="#STIXGeneral-Regular-65"/>
      <use x="608.29985" xlink:href="#STIXGeneral-Regular-73"/>
      <use x="647.199844" xlink:href="#STIXGeneral-Regular-69"/>
      <use x="674.999832" xlink:href="#STIXGeneral-Regular-64"/>
      <use x="724.999817" xlink:href="#STIXGeneral-Regular-75"/>
      <use x="774.999802" xlink:href="#STIXGeneral-Regular-61"/>
      <use x="819.399796" xlink:href="#STIXGeneral-Regular-6c"/>
      <use x="847.199783" xlink:href="#STIXGeneral-Regular-73"/>
     </g>
    </g>
   </g>
   <g id="patch_3">
    <path d="M 45.88 241.5675 
L 45.88 24.1275 
" style="fill:none;stroke:#000000;stroke-linecap:square;stroke-linejoin:miter;stroke-width:0.6;"/>
   </g>
   <g id="patch_4">
    <path d="M 45.88 241.5675 
L 380.68 241.5675 
" style="fill:none;stroke:#000000;stroke-linecap:square;stroke-linejoin:miter;stroke-width:0.6;"/>
   </g>
   <g id="text_22">
    <!-- District of Columbia -->
    <g style="fill:#323034;" transform="translate(325.455909 13.808676)scale(0.0864 -0.0864)">
     <defs>
      <path d="M 102 4237 
L 1830 4237 
Q 3078 4237 3750 3654 
Q 4384 3110 4384 2138 
Q 4384 966 3514 410 
Q 2880 0 1901 0 
L 102 0 
L 102 122 
Q 474 147 570 252 
Q 666 358 666 736 
L 666 3520 
Q 666 3891 570 3990 
Q 474 4090 102 4115 
L 102 4237 
z
M 1318 3731 
L 1318 538 
Q 1318 365 1379 301 
Q 1440 237 1626 237 
Q 2125 237 2432 307 
Q 2739 378 3021 570 
Q 3686 1018 3686 2099 
Q 3686 3027 3078 3558 
Q 2803 3802 2476 3901 
Q 2150 4000 1658 4000 
Q 1472 4000 1395 3942 
Q 1318 3885 1318 3731 
z
" id="STIXGeneral-Regular-44" transform="scale(0.015625)"/>
      <path d="M 2547 998 
L 2637 941 
Q 2362 403 2112 205 
Q 1786 -64 1376 -64 
Q 845 -64 502 336 
Q 160 736 160 1357 
Q 160 2170 698 2618 
Q 1094 2944 1562 2944 
Q 1965 2944 2256 2749 
Q 2547 2554 2547 2285 
Q 2547 2176 2457 2096 
Q 2368 2016 2246 2016 
Q 2022 2016 1939 2310 
L 1901 2451 
Q 1850 2630 1773 2694 
Q 1696 2758 1523 2758 
Q 1133 2758 893 2451 
Q 653 2144 653 1645 
Q 653 1094 928 745 
Q 1203 397 1645 397 
Q 1920 397 2118 528 
Q 2317 659 2547 998 
z
" id="STIXGeneral-Regular-63" transform="scale(0.015625)"/>
      <path d="M 3008 1478 
Q 3008 806 2608 371 
Q 2208 -64 1568 -64 
Q 979 -64 582 368 
Q 186 800 186 1459 
Q 186 2125 582 2534 
Q 979 2944 1626 2944 
Q 2221 2944 2614 2537 
Q 3008 2131 3008 1478 
z
M 2432 1306 
Q 2432 2035 2112 2445 
Q 1856 2765 1504 2765 
Q 1171 2765 966 2493 
Q 762 2221 762 1747 
Q 762 928 1101 435 
Q 1318 115 1677 115 
Q 2029 115 2230 432 
Q 2432 749 2432 1306 
z
" id="STIXGeneral-Regular-6f" transform="scale(0.015625)"/>
      <path d="M 134 2880 
L 659 2880 
Q 666 3264 710 3478 
Q 755 3693 883 3910 
Q 1152 4371 1786 4371 
Q 2074 4371 2262 4259 
Q 2451 4147 2451 3974 
Q 2451 3866 2374 3789 
Q 2298 3712 2182 3712 
Q 2029 3712 1894 3942 
Q 1741 4192 1555 4192 
Q 1197 4192 1197 3622 
L 1197 2880 
L 1978 2880 
L 1978 2675 
L 1197 2675 
L 1197 666 
Q 1197 307 1299 208 
Q 1402 109 1792 96 
L 1792 0 
L 128 0 
L 128 96 
Q 474 115 566 214 
Q 659 314 659 666 
L 659 2675 
L 134 2675 
L 134 2880 
z
" id="STIXGeneral-Regular-66" transform="scale(0.015625)"/>
      <path d="M 3930 838 
L 4051 723 
Q 3482 -90 2304 -90 
Q 1376 -90 794 480 
Q 179 1082 179 2080 
Q 179 3014 755 3661 
Q 1357 4326 2310 4326 
Q 2720 4326 3072 4230 
Q 3475 4115 3514 4115 
Q 3725 4115 3782 4326 
L 3910 4326 
L 3968 2874 
L 3821 2874 
Q 3718 3334 3488 3584 
Q 3034 4070 2458 4070 
Q 1747 4070 1334 3548 
Q 922 3027 922 2182 
Q 922 1152 1382 653 
Q 1811 192 2522 192 
Q 2944 192 3251 339 
Q 3558 486 3930 838 
z
" id="STIXGeneral-Regular-43" transform="scale(0.015625)"/>
      <path d="M 4960 0 
L 3565 0 
L 3565 96 
Q 3834 122 3907 208 
Q 3981 294 3981 576 
L 3981 1894 
Q 3981 2278 3869 2444 
Q 3757 2611 3488 2611 
Q 3264 2611 3107 2521 
Q 2950 2432 2803 2221 
L 2803 608 
Q 2803 301 2896 201 
Q 2989 102 3264 96 
L 3264 0 
L 1830 0 
L 1830 96 
Q 2112 115 2189 188 
Q 2266 262 2266 550 
L 2266 1901 
Q 2266 2611 1850 2611 
Q 1670 2611 1468 2531 
Q 1267 2451 1171 2336 
Q 1088 2240 1088 2227 
L 1088 448 
Q 1088 243 1177 176 
Q 1267 109 1523 96 
L 1523 0 
L 102 0 
L 102 96 
Q 371 102 460 195 
Q 550 288 550 563 
L 550 2150 
Q 550 2387 499 2480 
Q 448 2573 326 2573 
Q 230 2573 122 2547 
L 122 2656 
Q 557 2778 1011 2944 
L 1062 2925 
L 1062 2451 
L 1075 2451 
Q 1363 2752 1584 2848 
Q 1805 2944 2054 2944 
Q 2560 2944 2733 2406 
Q 3232 2944 3776 2944 
Q 4518 2944 4518 1792 
L 4518 493 
Q 4518 282 4582 202 
Q 4646 122 4794 109 
L 4960 96 
L 4960 0 
z
" id="STIXGeneral-Regular-6d" transform="scale(0.015625)"/>
      <path d="M 979 4358 
L 979 2406 
Q 1082 2650 1315 2797 
Q 1549 2944 1843 2944 
Q 2349 2944 2672 2541 
Q 2995 2138 2995 1536 
Q 2995 832 2566 384 
Q 2138 -64 1498 -64 
Q 1107 -64 774 67 
Q 442 198 442 358 
L 442 3622 
Q 442 3859 384 3926 
Q 326 3994 128 3994 
Q 83 3994 19 3981 
L 19 4090 
L 211 4147 
Q 864 4346 947 4371 
L 979 4358 
z
M 979 2035 
L 979 474 
Q 979 326 1161 233 
Q 1344 141 1600 141 
Q 1978 141 2195 416 
Q 2432 710 2432 1261 
Q 2432 1888 2182 2240 
Q 1971 2541 1613 2541 
Q 1357 2541 1168 2390 
Q 979 2240 979 2035 
z
" id="STIXGeneral-Regular-62" transform="scale(0.015625)"/>
     </defs>
     <use xlink:href="#STIXGeneral-Regular-44"/>
     <use x="72.199982" xlink:href="#STIXGeneral-Regular-69"/>
     <use x="99.999969" xlink:href="#STIXGeneral-Regular-73"/>
     <use x="138.899963" xlink:href="#STIXGeneral-Regular-74"/>
     <use x="166.699951" xlink:href="#STIXGeneral-Regular-72"/>
     <use x="199.999939" xlink:href="#STIXGeneral-Regular-69"/>
     <use x="227.799927" xlink:href="#STIXGeneral-Regular-63"/>
     <use x="272.199921" xlink:href="#STIXGeneral-Regular-74"/>
     <use x="299.999908" xlink:href="#STIXGeneral-Regular-20"/>
     <use x="324.999893" xlink:href="#STIXGeneral-Regular-6f"/>
     <use x="374.999878" xlink:href="#STIXGeneral-Regular-66"/>
     <use x="408.299866" xlink:href="#STIXGeneral-Regular-20"/>
     <use x="433.29985" xlink:href="#STIXGeneral-Regular-43"/>
     <use x="499.999847" xlink:href="#STIXGeneral-Regular-6f"/>
     <use x="549.999832" xlink:href="#STIXGeneral-Regular-6c"/>
     <use x="577.79982" xlink:href="#STIXGeneral-Regular-75"/>
     <use x="627.799805" xlink:href="#STIXGeneral-Regular-6d"/>
     <use x="705.599792" xlink:href="#STIXGeneral-Regular-62"/>
     <use x="755.599777" xlink:href="#STIXGeneral-Regular-69"/>
     <use x="783.399765" xlink:href="#STIXGeneral-Regular-61"/>
    </g>
   </g>
   <g id="text_23">
    <!-- Hawaii -->
    <g style="fill:#323034;" transform="translate(101.783649 190.200646)scale(0.0864 -0.0864)">
     <defs>
      <path d="M 4442 2880 
L 4442 2784 
Q 4346 2752 4301 2691 
Q 4256 2630 4179 2438 
L 3296 224 
Q 3168 -90 3117 -90 
Q 3085 -90 3062 -48 
Q 3040 -6 2963 186 
L 2381 1696 
L 1664 160 
Q 1549 -90 1504 -90 
Q 1446 -90 1338 192 
L 474 2381 
Q 378 2630 314 2700 
Q 250 2771 134 2784 
L 134 2880 
L 1286 2880 
L 1286 2784 
Q 1120 2765 1056 2720 
Q 992 2675 992 2573 
Q 992 2477 1030 2381 
L 1664 710 
L 2246 1984 
L 2118 2342 
Q 2029 2598 1942 2681 
Q 1856 2765 1677 2784 
L 1677 2880 
L 2976 2880 
L 2976 2784 
Q 2752 2752 2678 2707 
Q 2605 2662 2605 2560 
Q 2605 2458 2714 2176 
L 3251 742 
L 3827 2163 
Q 3936 2432 3936 2592 
Q 3936 2669 3875 2710 
Q 3814 2752 3654 2784 
L 3654 2880 
L 4442 2880 
z
" id="STIXGeneral-Regular-77" transform="scale(0.015625)"/>
     </defs>
     <use xlink:href="#STIXGeneral-Regular-48"/>
     <use x="72.199982" xlink:href="#STIXGeneral-Regular-61"/>
     <use x="116.599976" xlink:href="#STIXGeneral-Regular-77"/>
     <use x="188.799957" xlink:href="#STIXGeneral-Regular-61"/>
     <use x="233.199951" xlink:href="#STIXGeneral-Regular-69"/>
     <use x="260.999939" xlink:href="#STIXGeneral-Regular-69"/>
    </g>
   </g>
   <g id="text_24">
    <!-- Illinois -->
    <g style="fill:#323034;" transform="translate(91.279449 71.73736)scale(0.0864 -0.0864)">
     <defs>
      <path d="M 2016 0 
L 115 0 
L 115 122 
Q 518 134 627 240 
Q 736 346 736 717 
L 736 3526 
Q 736 3898 633 3994 
Q 531 4090 115 4115 
L 115 4237 
L 2016 4237 
L 2016 4115 
Q 1613 4096 1501 3993 
Q 1389 3891 1389 3526 
L 1389 717 
Q 1389 358 1504 246 
Q 1619 134 2016 122 
L 2016 0 
z
" id="STIXGeneral-Regular-49" transform="scale(0.015625)"/>
     </defs>
     <use xlink:href="#STIXGeneral-Regular-49"/>
     <use x="33.299988" xlink:href="#STIXGeneral-Regular-6c"/>
     <use x="61.099976" xlink:href="#STIXGeneral-Regular-6c"/>
     <use x="88.899963" xlink:href="#STIXGeneral-Regular-69"/>
     <use x="116.699951" xlink:href="#STIXGeneral-Regular-6e"/>
     <use x="166.699936" xlink:href="#STIXGeneral-Regular-6f"/>
     <use x="216.699921" xlink:href="#STIXGeneral-Regular-69"/>
     <use x="244.499908" xlink:href="#STIXGeneral-Regular-73"/>
    </g>
   </g>
   <g id="text_25">
    <!-- Louisiana -->
    <g style="fill:#323034;" transform="translate(103.214378 63.999439)scale(0.0864 -0.0864)">
     <use xlink:href="#STIXGeneral-Regular-4c"/>
     <use x="61.099991" xlink:href="#STIXGeneral-Regular-6f"/>
     <use x="111.099976" xlink:href="#STIXGeneral-Regular-75"/>
     <use x="161.09996" xlink:href="#STIXGeneral-Regular-69"/>
     <use x="188.899948" xlink:href="#STIXGeneral-Regular-73"/>
     <use x="227.799942" xlink:href="#STIXGeneral-Regular-69"/>
     <use x="255.59993" xlink:href="#STIXGeneral-Regular-61"/>
     <use x="299.999924" xlink:href="#STIXGeneral-Regular-6e"/>
     <use x="349.999908" xlink:href="#STIXGeneral-Regular-61"/>
    </g>
   </g>
   <g id="text_26">
    <!-- Mississippi -->
    <g style="fill:#323034;" transform="translate(152.682227 198.565663)scale(0.0864 -0.0864)">
     <defs>
      <path d="M 5530 0 
L 3738 0 
L 3738 122 
Q 4115 147 4214 265 
Q 4314 384 4314 787 
L 4314 3661 
L 2682 0 
L 2592 0 
L 979 3514 
L 979 966 
Q 979 448 1088 294 
Q 1197 141 1574 122 
L 1574 0 
L 77 0 
L 77 122 
Q 358 141 480 205 
Q 602 269 650 432 
Q 698 595 698 966 
L 698 3514 
Q 698 3878 589 3984 
Q 480 4090 90 4115 
L 90 4237 
L 1357 4237 
L 2835 1024 
L 4250 4237 
L 5523 4237 
L 5523 4115 
Q 5178 4109 5072 3993 
Q 4966 3878 4966 3520 
L 4966 717 
Q 4966 378 5072 262 
Q 5178 147 5530 122 
L 5530 0 
z
" id="STIXGeneral-Regular-4d" transform="scale(0.015625)"/>
      <path d="M 1018 2931 
L 1018 2438 
Q 1421 2944 1939 2944 
Q 2406 2944 2707 2560 
Q 3008 2176 3008 1581 
Q 3008 883 2621 409 
Q 2234 -64 1664 -64 
Q 1466 -64 1328 -6 
Q 1190 51 1018 211 
L 1018 -794 
Q 1018 -1094 1120 -1180 
Q 1222 -1267 1581 -1274 
L 1581 -1389 
L 32 -1389 
L 32 -1280 
Q 314 -1254 397 -1171 
Q 480 -1088 480 -838 
L 480 2157 
Q 480 2381 429 2451 
Q 378 2522 218 2522 
Q 115 2522 58 2515 
L 58 2618 
Q 506 2752 979 2944 
L 1018 2931 
z
M 1018 2138 
L 1018 563 
Q 1018 422 1238 281 
Q 1459 141 1683 141 
Q 2029 141 2243 467 
Q 2458 794 2458 1325 
Q 2458 1888 2243 2224 
Q 2029 2560 1670 2560 
Q 1446 2560 1232 2419 
Q 1018 2278 1018 2138 
z
" id="STIXGeneral-Regular-70" transform="scale(0.015625)"/>
     </defs>
     <use xlink:href="#STIXGeneral-Regular-4d"/>
     <use x="88.899994" xlink:href="#STIXGeneral-Regular-69"/>
     <use x="116.699982" xlink:href="#STIXGeneral-Regular-73"/>
     <use x="155.599976" xlink:href="#STIXGeneral-Regular-73"/>
     <use x="194.499969" xlink:href="#STIXGeneral-Regular-69"/>
     <use x="222.299957" xlink:href="#STIXGeneral-Regular-73"/>
     <use x="261.199951" xlink:href="#STIXGeneral-Regular-73"/>
     <use x="300.099945" xlink:href="#STIXGeneral-Regular-69"/>
     <use x="327.899933" xlink:href="#STIXGeneral-Regular-70"/>
     <use x="377.899918" xlink:href="#STIXGeneral-Regular-70"/>
     <use x="427.899902" xlink:href="#STIXGeneral-Regular-69"/>
    </g>
   </g>
   <g id="text_27">
    <!-- New York -->
    <g style="fill:#323034;" transform="translate(96.013693 194.447261)scale(0.0864 -0.0864)">
     <defs>
      <path d="M 4525 4237 
L 4525 4115 
Q 4198 4083 4102 4000 
Q 4000 3910 3958 3756 
Q 3917 3603 3917 3245 
L 3917 -70 
L 3802 -70 
L 979 3443 
L 979 960 
Q 979 474 1088 323 
Q 1197 173 1574 122 
L 1574 0 
L 77 0 
L 77 122 
Q 474 166 586 310 
Q 698 454 698 960 
L 698 3776 
Q 531 3981 416 4048 
Q 301 4115 77 4115 
L 77 4237 
L 1165 4237 
L 3635 1146 
L 3635 3322 
Q 3635 3808 3514 3949 
Q 3437 4032 3344 4061 
Q 3251 4090 3008 4115 
L 3008 4237 
L 4525 4237 
z
" id="STIXGeneral-Regular-4e" transform="scale(0.015625)"/>
      <path d="M 4499 4237 
L 4499 4115 
Q 4218 4090 4054 3955 
Q 3891 3821 3616 3398 
L 2669 1939 
L 2669 710 
Q 2669 346 2790 243 
Q 2912 141 3328 122 
L 3328 0 
L 1370 0 
L 1370 122 
Q 1805 154 1910 259 
Q 2016 365 2016 787 
L 2016 1882 
L 1178 3110 
Q 742 3750 556 3926 
Q 371 4102 141 4115 
L 141 4237 
L 1926 4237 
L 1926 4115 
L 1773 4109 
Q 1472 4102 1472 3942 
Q 1472 3808 1587 3642 
L 2522 2227 
L 3450 3648 
Q 3539 3782 3539 3917 
Q 3533 4026 3440 4067 
Q 3347 4109 3104 4115 
L 3104 4237 
L 4499 4237 
z
" id="STIXGeneral-Regular-59" transform="scale(0.015625)"/>
      <path d="M 3232 0 
L 1837 0 
L 1837 96 
L 1958 96 
Q 2093 96 2093 192 
Q 2093 250 2022 339 
L 1062 1606 
L 1062 429 
Q 1062 262 1142 185 
Q 1222 109 1414 102 
L 1542 96 
L 1542 0 
L 45 0 
L 45 96 
Q 390 154 457 214 
Q 525 275 525 525 
L 525 3610 
Q 525 3840 467 3920 
Q 410 4000 250 4000 
Q 211 4000 45 3987 
L 45 4090 
L 237 4141 
Q 621 4243 1037 4371 
L 1062 4358 
L 1062 1670 
L 1939 2451 
Q 2086 2586 2086 2675 
Q 2086 2739 2019 2761 
Q 1952 2784 1766 2790 
L 1766 2880 
L 3072 2880 
L 3072 2784 
Q 2752 2784 2505 2646 
Q 2259 2509 1690 1978 
L 1504 1805 
L 2483 563 
Q 2829 122 3232 96 
L 3232 0 
z
" id="STIXGeneral-Regular-6b" transform="scale(0.015625)"/>
     </defs>
     <use xlink:href="#STIXGeneral-Regular-4e"/>
     <use x="72.199982" xlink:href="#STIXGeneral-Regular-65"/>
     <use x="116.599976" xlink:href="#STIXGeneral-Regular-77"/>
     <use x="188.799957" xlink:href="#STIXGeneral-Regular-20"/>
     <use x="213.799942" xlink:href="#STIXGeneral-Regular-59"/>
     <use x="285.999924" xlink:href="#STIXGeneral-Regular-6f"/>
     <use x="335.999908" xlink:href="#STIXGeneral-Regular-72"/>
     <use x="369.299896" xlink:href="#STIXGeneral-Regular-6b"/>
    </g>
   </g>
   <g id="text_28">
    <!-- Influence Plot -->
    <g transform="translate(45.88 18.1275)scale(0.16 -0.16)">
     <defs>
      <path d="M 102 4237 
L 1760 4237 
Q 2669 4237 3149 3834 
Q 3469 3565 3469 3072 
Q 3469 2560 3104 2234 
Q 2835 1990 2553 1916 
Q 2272 1843 1734 1843 
Q 1549 1843 1293 1862 
L 1293 717 
Q 1293 352 1398 246 
Q 1504 141 1894 122 
L 1894 0 
L 102 0 
L 102 122 
Q 474 147 557 256 
Q 640 365 640 781 
L 640 3526 
Q 640 3885 547 3987 
Q 454 4090 102 4115 
L 102 4237 
z
M 1293 3770 
L 1293 2118 
Q 1510 2099 1683 2099 
Q 2202 2099 2486 2352 
Q 2771 2605 2771 3040 
Q 2771 3558 2476 3779 
Q 2182 4000 1517 4000 
Q 1382 4000 1337 3952 
Q 1293 3904 1293 3770 
z
" id="STIXGeneral-Regular-50" transform="scale(0.015625)"/>
     </defs>
     <use xlink:href="#STIXGeneral-Regular-49"/>
     <use x="33.299988" xlink:href="#STIXGeneral-Regular-6e"/>
     <use x="83.299973" xlink:href="#STIXGeneral-Regular-66"/>
     <use x="116.59996" xlink:href="#STIXGeneral-Regular-6c"/>
     <use x="144.399948" xlink:href="#STIXGeneral-Regular-75"/>
     <use x="194.399933" xlink:href="#STIXGeneral-Regular-65"/>
     <use x="238.799927" xlink:href="#STIXGeneral-Regular-6e"/>
     <use x="288.799911" xlink:href="#STIXGeneral-Regular-63"/>
     <use x="333.199905" xlink:href="#STIXGeneral-Regular-65"/>
     <use x="377.599899" xlink:href="#STIXGeneral-Regular-20"/>
     <use x="402.599884" xlink:href="#STIXGeneral-Regular-50"/>
     <use x="458.299881" xlink:href="#STIXGeneral-Regular-6c"/>
     <use x="486.099869" xlink:href="#STIXGeneral-Regular-6f"/>
     <use x="536.099854" xlink:href="#STIXGeneral-Regular-74"/>
    </g>
   </g>
  </g>
 </g>
 <defs>
  <clipPath id="pc780154cb0">
   <rect height="217.44" width="334.8" x="45.88" y="24.1275"/>
  </clipPath>
 </defs>
</svg>
