<?xml version="1.0" encoding="utf-8" standalone="no"?>
<!DOCTYPE svg PUBLIC "-//W3C//DTD SVG 1.1//EN"
  "http://www.w3.org/Graphics/SVG/1.1/DTD/svg11.dtd">
<svg height="492.075625pt" version="1.1" viewBox="0 0 255.007178 492.075625" width="255.007178pt" xmlns="http://www.w3.org/2000/svg" xmlns:xlink="http://www.w3.org/1999/xlink">
 <metadata>
  <rdf:RDF xmlns:cc="http://creativecommons.org/ns#" xmlns:dc="http://purl.org/dc/elements/1.1/" xmlns:rdf="http://www.w3.org/1999/02/22-rdf-syntax-ns#">
   <cc:Work>
    <dc:type rdf:resource="http://purl.org/dc/dcmitype/StillImage"/>
    <dc:date>2022-08-20T18:00:41.291558</dc:date>
    <dc:format>image/svg+xml</dc:format>
    <dc:creator>
     <cc:Agent>
      <dc:title>Matplotlib v3.4.3, https://matplotlib.org/</dc:title>
     </cc:Agent>
    </dc:creator>
   </cc:Work>
  </rdf:RDF>
 </metadata>
 <defs>
  <style type="text/css">*{stroke-linecap:butt;stroke-linejoin:round;}</style>
 </defs>
 <g id="figure_1">
  <g id="patch_1">
   <path d="M 0 492.075625 
L 255.007178 492.075625 
L 255.007178 0 
L 0 0 
z
" style="fill:none;"/>
  </g>
  <g id="axes_1">
   <g id="patch_2">
    <path d="M 20.2 453.275625 
L 247.807178 453.275625 
L 247.807178 18.395625 
L 20.2 18.395625 
z
" style="fill:#ffffff;"/>
   </g>
   <g id="matplotlib.axis_1">
    <g id="xtick_1">
     <g id="line2d_1">
      <defs>
       <path d="M 0 0 
L 0 3.5 
" id="mc133bebe4a" style="stroke:#323034;stroke-width:0.8;"/>
      </defs>
      <g>
       <use style="fill:#323034;stroke:#323034;stroke-width:0.8;" x="24.916253" xlink:href="#mc133bebe4a" y="453.275625"/>
      </g>
     </g>
     <g id="text_1">
      <!-- $\mathdefault{2}$ -->
      <g style="fill:#323034;" transform="translate(21.916253 468.47125)scale(0.12 -0.12)">
       <defs>
        <path d="M 3034 877 
L 2688 0 
L 186 0 
L 186 77 
L 1325 1286 
Q 1773 1754 1965 2144 
Q 2157 2534 2157 2950 
Q 2157 3379 1920 3616 
Q 1683 3853 1267 3853 
Q 922 3853 720 3673 
Q 518 3494 326 3021 
L 192 3053 
Q 301 3648 630 3987 
Q 960 4326 1523 4326 
Q 2054 4326 2380 4006 
Q 2707 3686 2707 3200 
Q 2707 2477 1888 1613 
L 832 486 
L 2330 486 
Q 2541 486 2665 569 
Q 2790 653 2944 915 
L 3034 877 
z
" id="STIXGeneral-Regular-32" transform="scale(0.015625)"/>
       </defs>
       <use transform="translate(0 0.40625)" xlink:href="#STIXGeneral-Regular-32"/>
      </g>
     </g>
    </g>
    <g id="xtick_2">
     <g id="line2d_2">
      <g>
       <use style="fill:#323034;stroke:#323034;stroke-width:0.8;" x="83.024369" xlink:href="#mc133bebe4a" y="453.275625"/>
      </g>
     </g>
     <g id="text_2">
      <!-- $\mathdefault{3}$ -->
      <g style="fill:#323034;" transform="translate(80.024369 468.47125)scale(0.12 -0.12)">
       <defs>
        <path d="M 390 3264 
L 288 3290 
Q 435 3770 748 4048 
Q 1062 4326 1542 4326 
Q 1990 4326 2265 4083 
Q 2541 3840 2541 3450 
Q 2541 2925 1946 2566 
Q 2298 2413 2477 2227 
Q 2758 1914 2758 1402 
Q 2758 890 2464 506 
Q 2246 211 1840 60 
Q 1434 -90 979 -90 
Q 262 -90 262 275 
Q 262 378 339 442 
Q 416 506 525 506 
Q 685 506 915 339 
Q 1197 141 1466 141 
Q 1818 141 2058 425 
Q 2298 710 2298 1120 
Q 2298 1856 1632 2048 
Q 1434 2112 979 2112 
L 979 2202 
Q 1338 2323 1517 2432 
Q 2035 2726 2035 3290 
Q 2035 3610 1852 3776 
Q 1670 3942 1344 3942 
Q 768 3942 390 3264 
z
" id="STIXGeneral-Regular-33" transform="scale(0.015625)"/>
       </defs>
       <use transform="translate(0 0.40625)" xlink:href="#STIXGeneral-Regular-33"/>
      </g>
     </g>
    </g>
    <g id="xtick_3">
     <g id="line2d_3">
      <g>
       <use style="fill:#323034;stroke:#323034;stroke-width:0.8;" x="141.132486" xlink:href="#mc133bebe4a" y="453.275625"/>
      </g>
     </g>
     <g id="text_3">
      <!-- $\mathdefault{4}$ -->
      <g style="fill:#323034;" transform="translate(138.132486 468.47125)scale(0.12 -0.12)">
       <defs>
        <path d="M 3027 1069 
L 2368 1069 
L 2368 0 
L 1869 0 
L 1869 1069 
L 77 1069 
L 77 1478 
L 2086 4326 
L 2368 4326 
L 2368 1478 
L 3027 1478 
L 3027 1069 
z
M 1869 1478 
L 1869 3674 
L 333 1478 
L 1869 1478 
z
" id="STIXGeneral-Regular-34" transform="scale(0.015625)"/>
       </defs>
       <use transform="translate(0 0.40625)" xlink:href="#STIXGeneral-Regular-34"/>
      </g>
     </g>
    </g>
    <g id="xtick_4">
     <g id="line2d_4">
      <g>
       <use style="fill:#323034;stroke:#323034;stroke-width:0.8;" x="199.240602" xlink:href="#mc133bebe4a" y="453.275625"/>
      </g>
     </g>
     <g id="text_4">
      <!-- $\mathdefault{5}$ -->
      <g style="fill:#323034;" transform="translate(196.240602 468.47125)scale(0.12 -0.12)">
       <defs>
        <path d="M 2803 4358 
L 2573 3814 
Q 2534 3731 2400 3731 
L 1158 3731 
L 902 3187 
Q 1606 3053 1920 2896 
Q 2234 2739 2502 2368 
Q 2726 2061 2726 1555 
Q 2726 1094 2576 780 
Q 2426 467 2099 224 
Q 1664 -90 1011 -90 
Q 646 -90 422 19 
Q 198 128 198 307 
Q 198 550 486 550 
Q 717 550 960 352 
Q 1210 147 1414 147 
Q 1747 147 2012 480 
Q 2278 813 2278 1229 
Q 2278 1843 1850 2189 
Q 1293 2637 486 2637 
Q 410 2637 410 2688 
L 416 2720 
L 1114 4237 
L 2438 4237 
Q 2547 4237 2608 4269 
Q 2669 4301 2746 4403 
L 2803 4358 
z
" id="STIXGeneral-Regular-35" transform="scale(0.015625)"/>
       </defs>
       <use transform="translate(0 0.203125)" xlink:href="#STIXGeneral-Regular-35"/>
      </g>
     </g>
    </g>
    <g id="text_5">
     <!-- $\times\mathdefault{10^{5}}\mathdefault{}$ -->
     <g style="fill:#323034;" transform="translate(223.087178 482.27125)scale(0.12 -0.12)">
      <defs>
       <path d="M 3821 141 
L 3526 -160 
L 2048 1312 
L 570 -160 
L 275 134 
L 1747 1613 
L 275 3091 
L 576 3386 
L 2048 1914 
L 3526 3386 
L 3821 3098 
L 2349 1613 
L 3821 141 
z
" id="STIXGeneral-Regular-d7" transform="scale(0.015625)"/>
       <path d="M 2522 0 
L 755 0 
L 755 96 
Q 1107 115 1235 227 
Q 1363 339 1363 608 
L 1363 3482 
Q 1363 3795 1171 3795 
Q 1082 3795 883 3718 
L 710 3654 
L 710 3744 
L 1856 4326 
L 1914 4307 
L 1914 486 
Q 1914 275 2042 185 
Q 2170 96 2522 96 
L 2522 0 
z
" id="STIXGeneral-Regular-31" transform="scale(0.015625)"/>
       <path d="M 3046 2112 
Q 3046 1683 2963 1302 
Q 2880 922 2717 602 
Q 2554 282 2266 96 
Q 1978 -90 1600 -90 
Q 1210 -90 915 108 
Q 621 307 461 640 
Q 301 973 227 1350 
Q 154 1728 154 2150 
Q 154 2746 301 3222 
Q 448 3699 790 4012 
Q 1133 4326 1626 4326 
Q 2253 4326 2649 3712 
Q 3046 3098 3046 2112 
z
M 2432 2080 
Q 2432 3091 2217 3625 
Q 2003 4160 1587 4160 
Q 1190 4160 979 3622 
Q 768 3085 768 2106 
Q 768 1120 979 598 
Q 1190 77 1600 77 
Q 2003 77 2217 598 
Q 2432 1120 2432 2080 
z
" id="STIXGeneral-Regular-30" transform="scale(0.015625)"/>
      </defs>
      <use transform="translate(0 0.842187)" xlink:href="#STIXGeneral-Regular-d7"/>
      <use transform="translate(63.999985 0.842187)" xlink:href="#STIXGeneral-Regular-31"/>
      <use transform="translate(113.999969 0.842187)" xlink:href="#STIXGeneral-Regular-30"/>
      <use transform="translate(165.574954 36.842187)scale(0.7)" xlink:href="#STIXGeneral-Regular-35"/>
     </g>
    </g>
   </g>
   <g id="matplotlib.axis_2">
    <g id="ytick_1">
     <g id="line2d_5">
      <defs>
       <path d="M 0 0 
L -3.5 0 
" id="mf07a8903f4" style="stroke:#323034;stroke-width:0.8;"/>
      </defs>
      <g>
       <use style="fill:#323034;stroke:#323034;stroke-width:0.8;" x="20.2" xlink:href="#mf07a8903f4" y="414.174455"/>
      </g>
     </g>
     <g id="text_6">
      <!-- $\mathdefault{2}$ -->
      <g style="fill:#323034;" transform="translate(7.2 418.272268)scale(0.12 -0.12)">
       <use transform="translate(0 0.40625)" xlink:href="#STIXGeneral-Regular-32"/>
      </g>
     </g>
    </g>
    <g id="ytick_2">
     <g id="line2d_6">
      <g>
       <use style="fill:#323034;stroke:#323034;stroke-width:0.8;" x="20.2" xlink:href="#mf07a8903f4" y="356.066339"/>
      </g>
     </g>
     <g id="text_7">
      <!-- $\mathdefault{3}$ -->
      <g style="fill:#323034;" transform="translate(7.2 360.164152)scale(0.12 -0.12)">
       <use transform="translate(0 0.40625)" xlink:href="#STIXGeneral-Regular-33"/>
      </g>
     </g>
    </g>
    <g id="ytick_3">
     <g id="line2d_7">
      <g>
       <use style="fill:#323034;stroke:#323034;stroke-width:0.8;" x="20.2" xlink:href="#mf07a8903f4" y="297.958223"/>
      </g>
     </g>
     <g id="text_8">
      <!-- $\mathdefault{4}$ -->
      <g style="fill:#323034;" transform="translate(7.2 302.056036)scale(0.12 -0.12)">
       <use transform="translate(0 0.40625)" xlink:href="#STIXGeneral-Regular-34"/>
      </g>
     </g>
    </g>
    <g id="ytick_4">
     <g id="line2d_8">
      <g>
       <use style="fill:#323034;stroke:#323034;stroke-width:0.8;" x="20.2" xlink:href="#mf07a8903f4" y="239.850107"/>
      </g>
     </g>
     <g id="text_9">
      <!-- $\mathdefault{5}$ -->
      <g style="fill:#323034;" transform="translate(7.2 243.947919)scale(0.12 -0.12)">
       <use transform="translate(0 0.203125)" xlink:href="#STIXGeneral-Regular-35"/>
      </g>
     </g>
    </g>
    <g id="ytick_5">
     <g id="line2d_9">
      <g>
       <use style="fill:#323034;stroke:#323034;stroke-width:0.8;" x="20.2" xlink:href="#mf07a8903f4" y="181.741991"/>
      </g>
     </g>
     <g id="text_10">
      <!-- $\mathdefault{6}$ -->
      <g style="fill:#323034;" transform="translate(7.2 185.839803)scale(0.12 -0.12)">
       <defs>
        <path d="M 2854 4378 
L 2867 4275 
Q 2112 4154 1606 3664 
Q 1101 3174 973 2451 
Q 1344 2739 1786 2739 
Q 2349 2739 2672 2380 
Q 2995 2022 2995 1402 
Q 2995 774 2669 378 
Q 2291 -90 1651 -90 
Q 870 -90 518 557 
Q 218 1107 218 1786 
Q 218 2835 915 3552 
Q 1312 3962 1731 4131 
Q 2150 4301 2854 4378 
z
M 2419 1203 
Q 2419 2445 1555 2445 
Q 1235 2445 1024 2275 
Q 813 2106 813 1702 
Q 813 954 1046 522 
Q 1280 90 1722 90 
Q 2061 90 2240 394 
Q 2419 698 2419 1203 
z
" id="STIXGeneral-Regular-36" transform="scale(0.015625)"/>
       </defs>
       <use transform="translate(0 0.59375)" xlink:href="#STIXGeneral-Regular-36"/>
      </g>
     </g>
    </g>
    <g id="ytick_6">
     <g id="line2d_10">
      <g>
       <use style="fill:#323034;stroke:#323034;stroke-width:0.8;" x="20.2" xlink:href="#mf07a8903f4" y="123.633875"/>
      </g>
     </g>
     <g id="text_11">
      <!-- $\mathdefault{7}$ -->
      <g style="fill:#323034;" transform="translate(7.2 127.731687)scale(0.12 -0.12)">
       <defs>
        <path d="M 2874 4134 
L 1517 -51 
L 1101 -51 
L 2368 3763 
L 992 3763 
Q 717 3763 582 3667 
Q 448 3571 243 3238 
L 128 3296 
L 512 4237 
L 2874 4237 
L 2874 4134 
z
" id="STIXGeneral-Regular-37" transform="scale(0.015625)"/>
       </defs>
       <use transform="translate(0 0.796875)" xlink:href="#STIXGeneral-Regular-37"/>
      </g>
     </g>
    </g>
    <g id="ytick_7">
     <g id="line2d_11">
      <g>
       <use style="fill:#323034;stroke:#323034;stroke-width:0.8;" x="20.2" xlink:href="#mf07a8903f4" y="65.525759"/>
      </g>
     </g>
     <g id="text_12">
      <!-- $\mathdefault{8}$ -->
      <g style="fill:#323034;" transform="translate(7.2 69.623571)scale(0.12 -0.12)">
       <defs>
        <path d="M 2848 992 
Q 2848 499 2505 204 
Q 2163 -90 1587 -90 
Q 1050 -90 704 204 
Q 358 499 358 954 
Q 358 1293 524 1533 
Q 691 1773 1190 2125 
Q 710 2522 553 2765 
Q 397 3008 397 3328 
Q 397 3782 745 4054 
Q 1094 4326 1638 4326 
Q 2106 4326 2410 4060 
Q 2714 3795 2714 3411 
Q 2714 3059 2531 2848 
Q 2349 2637 1856 2374 
Q 2432 1990 2640 1689 
Q 2848 1389 2848 992 
z
M 2272 3411 
Q 2272 3744 2086 3945 
Q 1901 4147 1574 4147 
Q 1248 4147 1059 3977 
Q 870 3808 870 3513 
Q 870 3219 1059 2979 
Q 1248 2739 1670 2490 
Q 1997 2682 2134 2896 
Q 2272 3110 2272 3411 
z
M 1734 1741 
L 1357 1997 
Q 1075 1766 960 1545 
Q 845 1325 845 1011 
Q 845 576 1065 333 
Q 1286 90 1658 90 
Q 1971 90 2166 285 
Q 2362 480 2362 794 
Q 2362 1082 2214 1299 
Q 2067 1517 1734 1741 
z
" id="STIXGeneral-Regular-38" transform="scale(0.015625)"/>
       </defs>
       <use transform="translate(0 0.40625)" xlink:href="#STIXGeneral-Regular-38"/>
      </g>
     </g>
    </g>
    <g id="text_13">
     <!-- $\times\mathdefault{10^{5}}\mathdefault{}$ -->
     <g style="fill:#323034;" transform="translate(20.2 15.395625)scale(0.12 -0.12)">
      <use transform="translate(0 0.842187)" xlink:href="#STIXGeneral-Regular-d7"/>
      <use transform="translate(63.999985 0.842187)" xlink:href="#STIXGeneral-Regular-31"/>
      <use transform="translate(113.999969 0.842187)" xlink:href="#STIXGeneral-Regular-30"/>
      <use transform="translate(165.574954 36.842187)scale(0.7)" xlink:href="#STIXGeneral-Regular-35"/>
     </g>
    </g>
   </g>
   <g id="LineCollection_1">
    <path clip-path="url(#p2e4054db41)" d="M 139.155919 404.911444 
L 140.302534 405.395896 
L 141.273556 406.300671 
L 142.000821 407.825803 
L 142.343905 409.529742 
L 142.413371 411.817552 
L 143.132733 413.237196 
L 143.679617 414.735699 
L 147.28936 416.797311 
L 148.074838 416.974387 
L 148.496496 416.836625 
L 151.650924 416.658779 
L 152.429714 416.30879 
L 153.523068 414.981686 
L 153.935101 415.008855 
L 155.617663 415.453388 
L 156.453604 415.238789 
L 158.777537 414.03188 
L 161.921412 414.011335 
L 162.358306 413.866206 
L 163.219733 413.252378 
L 163.69245 413.114669 
L 164.131287 413.245391 
L 165.108646 413.69517 
L 165.630559 413.580413 
L 166.26645 412.659864 
L 166.796058 410.091162 
L 167.508585 409.11179 
L 168.225642 408.673955 
L 168.687829 408.559193 
L 169.1944 408.654326 
L 169.485002 409.017087 
L 169.891061 410.165032 
L 170.963905 411.02482 
L 171.36667 412.404045 
L 171.645542 413.776612 
L 172.106418 414.40297 
L 172.432185 414.604654 
L 172.437026 415.059576 
L 172.134538 415.52038 
L 169.77085 416.588374 
L 170.421249 417.352528 
L 171.240083 417.591482 
L 172.698403 417.481546 
L 172.750724 417.173287 
L 173.081884 416.633213 
L 173.459506 416.463405 
L 173.749025 417.793573 
L 174.010505 418.056286 
L 175.6557 418.794884 
L 176.161857 419.236002 
L 176.397641 420.058993 
L 176.469129 421.651884 
L 176.19821 422.570333 
L 175.693309 423.404711 
L 175.441072 424.414893 
L 175.945314 425.871225 
L 176.554621 426.60037 
L 177.359024 427.148178 
L 178.259655 427.489432 
L 179.157457 427.593757 
L 179.861109 427.913384 
L 181.411437 429.373383 
L 182.078942 429.763979 
L 182.995913 429.651206 
L 184.325448 428.64848 
L 185.304468 428.207965 
L 186.34777 426.835087 
L 186.626684 426.183806 
L 186.588446 425.831962 
L 186.389602 425.493102 
L 186.189425 424.849164 
L 186.03209 423.565447 
L 186.225935 423.373123 
L 186.771849 423.682975 
L 187.680575 423.902858 
L 190.567298 422.932731 
L 191.112916 423.007714 
L 191.813769 422.572301 
L 192.78586 422.473896 
L 193.682199 422.726347 
L 194.145972 423.351954 
L 194.040772 424.619009 
L 193.625314 425.428655 
L 193.564854 426.089941 
L 194.485927 426.920412 
L 195.178189 427.06565 
L 196.848332 426.813689 
L 197.519206 426.864082 
L 198.056132 427.29044 
L 198.530565 428.044088 
L 198.798477 428.980542 
L 198.70271 429.971422 
L 200.502552 430.709207 
L 203.056888 433.508352 
L 204.871005 433.375242 
L 205.737036 432.635756 
L 206.460171 432.298992 
L 206.668246 432.036609 
L 206.902688 431.926195 
L 207.91988 432.826776 
L 208.518737 432.82112 
L 208.945932 432.648284 
L 209.268673 432.227883 
L 209.54718 431.463815 
L 209.104707 430.889974 
L 209.028662 430.370829 
L 209.507384 429.741579 
L 208.874589 428.524953 
L 209.388253 427.997529 
L 210.966418 427.897565 
L 211.422935 427.749958 
L 211.914116 427.130541 
L 212.337574 426.980945 
L 212.762707 427.173251 
L 213.434185 428.032984 
L 213.908997 428.231815 
L 214.67324 428.03928 
L 215.571135 427.54588 
L 216.412054 426.890526 
L 217.718112 425.441488 
L 218.415929 425.254921 
L 219.130781 425.467649 
L 220.340291 426.119545 
L 221.600126 426.306501 
L 222.254913 425.867599 
L 222.684944 425.739983 
L 223.817826 426.434719 
L 224.77061 426.321065 
L 227.03579 425.474528 
L 227.832069 425.411804 
L 228.650342 425.758727 
L 229.484668 426.744375 
L 230.103006 427.199496 
L 233.01262 428.178929 
L 234.276332 427.69201 
L 234.919864 427.66642 
L 235.223696 428.330525 
L 235.574872 428.824647 
L 236.338741 428.952828 
L 237.461397 428.479615 
L 237.461397 428.479615 
" style="fill:none;stroke:#0000cd;stroke-width:2;"/>
    <path clip-path="url(#p2e4054db41)" d="M 47.111008 60.007795 
L 47.134509 59.992909 
L 48.454534 58.600461 
L 49.168382 57.903431 
L 51.39028 55.205567 
L 52.597695 54.094016 
L 53.197661 53.473345 
L 54.765647 51.030404 
L 57.314525 47.5149 
L 58.806889 45.878417 
L 59.33288 44.492459 
" style="fill:none;stroke:#0000cd;stroke-width:2;"/>
    <path clip-path="url(#p2e4054db41)" d="M 59.335812 44.489925 
L 60.057852 43.756018 
L 60.66106 42.741267 
L 61.304931 41.854201 
L 62.161023 41.487763 
L 62.157575 41.250559 
L 62.501189 40.740405 
L 62.891223 40.281796 
L 63.034743 40.191704 
L 63.197523 40.033748 
L 63.350903 40.117826 
L 63.46865 40.076912 
L 63.531383 39.549489 
L 63.520692 39.269909 
L 63.490992 39.137221 
L 63.48897 38.939587 
L 63.661993 38.162898 
" style="fill:none;stroke:#0000cd;stroke-width:2;"/>
    <path clip-path="url(#p2e4054db41)" d="M 41.126934 68.672703 
L 40.9084 68.879709 
L 40.794394 69.062068 
L 40.42442 69.449827 
L 40.068803 69.904022 
L 39.386206 71.011145 
L 39.047118 71.405296 
L 38.213784 71.907497 
L 37.585342 72.660704 
L 36.923944 73.16724 
L 36.595448 73.566817 
L 36.200164 73.776325 
" style="fill:none;stroke:#0000cd;stroke-width:2;"/>
    <path clip-path="url(#p2e4054db41)" d="M 47.134509 59.992909 
L 46.463947 60.361732 
L 46.060646 60.777899 
L 45.72421 61.238833 
L 45.426459 61.73289 
L 44.254652 64.34202 
L 43.428615 64.822392 
L 41.126934 68.672703 
" style="fill:none;stroke:#0000cd;stroke-width:2;"/>
    <path clip-path="url(#p2e4054db41)" d="M 134.797273 327.466118 
L 133.61357 330.1803 
L 133.527724 331.395251 
L 134.056716 333.132606 
L 134.687516 334.430864 
L 135.419415 335.568743 
L 137.100417 337.433933 
L 139.208937 338.980201 
L 139.810305 339.674953 
L 141.240146 342.071446 
L 141.900054 342.705248 
L 145.078384 344.943614 
L 145.879656 345.223832 
L 147.685575 345.1887 
L 149.265187 345.250386 
L 151.760074 346.007554 
L 152.444721 345.610377 
L 153.726924 344.011061 
L 154.768368 343.027797 
L 157.378679 339.515736 
L 158.419924 338.720456 
L 159.543439 338.429276 
L 164.332794 339.020002 
L 165.410164 338.78473 
L 168.723848 336.760393 
L 170.004988 336.655495 
L 171.581749 335.357838 
L 174.578005 332.19346 
L 176.286797 331.541226 
L 177.718576 331.86227 
L 178.191574 331.840268 
L 178.71348 331.43871 
L 179.068372 330.205394 
L 180.804166 329.260637 
L 183.562881 325.971227 
L 186.690916 323.396339 
L 187.737107 321.561106 
L 188.180006 319.485753 
L 188.908534 311.643483 
L 189.646781 309.494241 
L 189.766542 308.776488 
L 189.672601 308.27034 
L 189.022727 306.213642 
L 188.838596 305.940564 
L 188.580751 305.77135 
L 188.372467 305.553907 
L 188.336743 305.12039 
L 188.497804 304.420398 
L 188.541945 304.059182 
L 188.498404 303.720518 
L 187.962885 302.553556 
L 187.572052 301.931332 
L 187.45051 301.244032 
L 187.71627 299.866124 
L 188.219949 298.468332 
L 189.385667 296.032741 
L 189.735549 294.537332 
L 190.16473 286.646534 
L 190.857762 284.88421 
" style="fill:none;stroke:#0000cd;stroke-width:2;"/>
    <path clip-path="url(#p2e4054db41)" d="M 74.541226 359.733171 
L 75.60308 360.031496 
L 76.335137 360.442954 
L 76.857045 361.780902 
L 77.550622 362.648969 
L 78.558611 363.413263 
L 79.57259 363.924731 
L 80.247915 364.055009 
L 81.561927 364.845766 
L 82.468085 364.864565 
L 83.349005 364.701035 
L 84.12057 364.053602 
L 84.452365 363.36831 
L 84.874811 361.827115 
L 85.146719 361.145823 
L 85.585822 360.607214 
L 86.102491 360.280513 
L 87.198442 360.027917 
L 90.814395 360.233676 
L 91.99382 359.762369 
L 92.814132 359.068779 
L 94.297356 357.239001 
L 95.700194 354.910003 
L 99.059722 347.393578 
L 99.746287 346.535624 
L 100.030447 346.318807 
L 100.175283 346.239366 
L 100.319767 346.183587 
L 100.853446 346.149174 
L 103.136927 346.567577 
L 104.79401 346.576282 
L 105.366726 346.736182 
L 106.471637 347.24979 
L 107.028612 347.409156 
L 107.809147 347.305383 
L 109.359329 346.628853 
L 110.145549 346.558703 
L 110.203984 346.76189 
L 110.184829 347.634986 
L 110.255289 347.909323 
L 110.67031 348.079551 
L 111.964324 347.901195 
L 112.632949 348.115815 
L 112.914307 348.410609 
L 113.053816 348.838113 
L 113.309958 349.432482 
L 115.174069 352.117455 
L 116.315771 353.245607 
L 117.331403 353.675188 
L 120.962578 352.772318 
L 122.217197 353.191315 
L 122.896709 354.011147 
L 123.346745 355.234431 
L 123.902726 358.062697 
L 123.962573 358.765319 
L 123.960227 360.209274 
L 124.071478 360.912202 
L 126.437463 366.877394 
L 127.517634 368.928972 
L 129.158622 371.219246 
L 129.829367 372.605396 
L 130.237522 373.290798 
L 130.414171 373.875334 
L 130.435281 374.262025 
L 130.389478 375.295448 
L 130.43264 375.824241 
L 130.664852 376.706154 
L 131.236738 378.328271 
L 131.468936 379.349498 
L 131.617469 381.296161 
L 131.712855 381.769859 
L 131.971895 382.630668 
L 132.07062 383.104358 
L 132.105593 384.31947 
L 131.810046 386.656517 
L 131.774131 387.734665 
L 131.962556 388.561063 
L 133.654176 393.315495 
L 134.083771 394.123947 
L 135.003228 395.230591 
L 135.071211 395.328039 
L 132.390224 399.25009 
L 131.088617 400.47663 
L 130.754852 401.025076 
L 131.001754 402.05945 
L 131.020052 402.411903 
L 130.872065 402.837404 
L 130.642713 403.241565 
L 129.539618 404.696882 
L 129.203696 404.790192 
L 128.842691 404.64668 
L 128.15202 404.659453 
L 127.642459 404.954295 
L 127.405639 405.429176 
L 127.262628 406.035973 
L 127.047538 406.705529 
L 126.669674 407.30326 
L 125.79367 408.332269 
L 125.499651 409.02496 
" style="fill:none;stroke:#0000cd;stroke-width:2;"/>
    <path clip-path="url(#p2e4054db41)" d="M 36.200164 73.776325 
L 35.558676 74.802602 
L 33.998922 76.16247 
L 31.031667 79.674563 
L 30.545781 80.63298 
" style="fill:none;stroke:#0000cd;stroke-width:2;"/>
   </g>
   <g id="patch_3">
    <path d="M 20.2 453.275625 
L 20.2 18.395625 
" style="fill:none;stroke:#000000;stroke-linecap:square;stroke-linejoin:miter;stroke-width:0.6;"/>
   </g>
   <g id="patch_4">
    <path d="M 20.2 453.275625 
L 247.807178 453.275625 
" style="fill:none;stroke:#000000;stroke-linecap:square;stroke-linejoin:miter;stroke-width:0.6;"/>
   </g>
  </g>
 </g>
 <defs>
  <clipPath id="p2e4054db41">
   <rect height="434.88" width="227.607178" x="20.2" y="18.395625"/>
  </clipPath>
 </defs>
</svg>
