<?xml version="1.0" encoding="utf-8" standalone="no"?>
<!DOCTYPE svg PUBLIC "-//W3C//DTD SVG 1.1//EN"
  "http://www.w3.org/Graphics/SVG/1.1/DTD/svg11.dtd">
<svg xmlns:xlink="http://www.w3.org/1999/xlink" width="554.689936pt" height="585.745pt" viewBox="0 0 554.689936 585.745" xmlns="http://www.w3.org/2000/svg" version="1.1">
 <metadata>
  <rdf:RDF xmlns:dc="http://purl.org/dc/elements/1.1/" xmlns:cc="http://creativecommons.org/ns#" xmlns:rdf="http://www.w3.org/1999/02/22-rdf-syntax-ns#">
   <cc:Work>
    <dc:type rdf:resource="http://purl.org/dc/dcmitype/StillImage"/>
    <dc:date>2022-10-24T21:30:46.082363</dc:date>
    <dc:format>image/svg+xml</dc:format>
    <dc:creator>
     <cc:Agent>
      <dc:title>Matplotlib v3.5.3, https://matplotlib.org/</dc:title>
     </cc:Agent>
    </dc:creator>
   </cc:Work>
  </rdf:RDF>
 </metadata>
 <defs>
  <style type="text/css">*{stroke-linejoin: round; stroke-linecap: butt}</style>
 </defs>
 <g id="figure_1">
  <g id="patch_1">
   <path d="M 0 585.745 
L 554.689936 585.745 
L 554.689936 0 
L 0 0 
z
" style="fill: #ffffff"/>
  </g>
  <g id="axes_1">
   <g id="PatchCollection_1">
    <path d="M 516.861537 236.055133 
L 516.584539 236.405873 
L 516.600089 236.340308 
L 516.861536 235.992168 
L 522.177542 228.913413 
L 520.180835 231.852179 
L 516.861537 236.055133 
" clip-path="url(#p3fd6571624)" style="fill: #808080; stroke: #999999; stroke-width: 0.2"/>
    <path d="M 421.369037 56.326736 
L 426.68997 58.482086 
L 430.829601 57.307006 
L 434.555578 61.635513 
L 441.692258 60.11013 
L 448.344626 62.500428 
L 451.298884 54.465014 
L 451.327945 54.477451 
L 460.313072 57.97276 
L 472.888758 62.864834 
L 476.178833 66.094484 
L 476.826359 66.817973 
L 471.722411 70.800568 
L 460.313046 72.753761 
L 460.243334 72.765695 
L 452.173719 86.283604 
L 452.339868 96.933124 
L 452.414793 101.73551 
L 460.313083 124.532765 
L 463.855304 134.756866 
L 476.242624 153.481501 
L 486.919286 169.620309 
L 516.715873 208.357564 
L 516.861497 208.77873 
L 517.294115 210.02993 
L 522.677373 225.599146 
L 522.931302 227.804023 
L 522.184931 228.902538 
L 522.528432 226.598271 
L 522.04858 225.09242 
L 516.86162 220.912398 
L 510.366697 215.678327 
L 501.135727 213.143543 
L 485.171814 219.969224 
L 475.858848 218.267116 
L 468.11565 210.029933 
L 460.313077 201.729588 
L 454.605732 195.658137 
L 452.159107 195.836321 
L 451.388351 187.9693 
L 449.023636 189.314729 
L 448.728979 186.894925 
L 448.78067 186.781696 
L 448.143746 185.652023 
L 448.584493 187.092792 
L 447.672731 188.137861 
L 447.450351 188.049249 
L 449.13715 181.30394 
L 446.685211 178.660293 
L 446.89698 173.044179 
L 442.061805 172.931934 
L 434.77187 163.284192 
L 426.231628 166.109364 
L 426.861315 169.721664 
L 420.766228 170.575838 
L 421.687133 177.411693 
L 416.14028 180.278416 
L 415.448698 183.331187 
L 419.24706 183.558815 
L 415.5799 189.456799 
L 416.258513 193.187123 
L 416.240249 193.194154 
L 403.764721 195.366925 
L 393.298097 197.189821 
L 385.575277 191.6325 
L 376.785663 189.478592 
L 375.50512 191.108022 
L 378.985969 190.532071 
L 369.136929 193.447158 
L 364.691651 199.02989 
L 355.976124 198.362611 
L 361.621355 199.723739 
L 364.254523 201.123591 
L 362.127464 201.750449 
L 364.042474 201.769387 
L 364.183108 203.436213 
L 363.637307 207.504247 
L 360.019895 206.981465 
L 350.297814 214.437083 
L 350.696756 211.955175 
L 347.620236 213.538814 
L 336.632578 221.956328 
L 333.416952 220.538103 
L 318.080459 214.030221 
L 299.069136 215.268362 
L 288.755553 211.155017 
L 292.901967 206.364783 
L 293.963934 200.253333 
L 296.430303 199.349665 
L 300.727711 203.345677 
L 311.653708 202.230832 
L 311.587548 199.684166 
L 314.936076 200.970926 
L 315.7925 196.541198 
L 325.847107 195.281291 
L 324.432541 190.800401 
L 315.131154 189.886868 
L 312.668189 185.561753 
L 321.049254 180.491628 
L 319.714697 169.128753 
L 322.326394 164.585085 
L 318.4746 162.306749 
L 316.879644 150.345622 
L 321.382876 144.250566 
L 321.832733 141.143496 
L 316.488884 140.18697 
L 321.544897 131.457877 
L 321.430387 119.186586 
L 319.000502 116.69535 
L 320.524751 109.415858 
L 326.304564 106.804462 
L 329.081662 101.207287 
L 343.446383 98.790108 
L 343.753732 100.378269 
L 355.719386 96.644397 
L 356.516153 102.155022 
L 365.244409 103.222662 
L 364.460929 96.325159 
L 369.525685 94.215629 
L 372.163678 88.518928 
L 369.217216 86.061639 
L 377.460577 83.576311 
L 387.002547 75.988945 
L 394.181959 78.523993 
L 404.881477 71.32311 
L 406.961328 68.404659 
L 406.124138 65.524085 
L 411.853899 61.788489 
L 410.54622 53.436552 
L 413.229742 50.232528 
L 418.287713 49.345 
L 421.369037 56.326736 
" clip-path="url(#p3fd6571624)" style="fill: #808080; stroke: #999999; stroke-width: 0.2"/>
    <path d="M 397.517176 204.410773 
L 394.746302 205.715058 
L 391.332756 202.928921 
L 397.517176 204.410773 
" clip-path="url(#p3fd6571624)" style="fill: #808080; stroke: #999999; stroke-width: 0.2"/>
    <path d="M 439.612785 194.366401 
L 447.669458 204.604054 
L 450.510549 210.016215 
L 457.130679 216.626472 
L 457.62151 217.250174 
L 451.798316 222.437277 
L 440.754126 226.085502 
L 437.671381 225.825087 
L 439.275382 231.780507 
L 432.9592 243.465672 
L 417.753326 242.368353 
L 415.4207 238.860921 
L 408.476556 247.056772 
L 404.01855 248.122999 
L 402.144266 250.810176 
L 415.304488 247.733661 
L 419.62311 252.115337 
L 420.300542 256.660702 
L 404.768669 261.013517 
L 405.260371 268.678078 
L 408.090039 270.379078 
L 393.168877 275.521593 
L 378.541497 276.219965 
L 379.197737 259.020754 
L 357.578703 257.187441 
L 355.338254 263.332556 
L 352.347126 263.889568 
L 351.805395 270.104812 
L 349.413392 270.942564 
L 349.489157 275.122645 
L 347.070859 277.779832 
L 333.040063 274.47063 
L 324.748353 276.491659 
L 323.97308 274.863642 
L 327.638259 271.772146 
L 320.924277 263.265848 
L 321.536691 260.690888 
L 318.163847 259.801663 
L 319.264583 254.441442 
L 328.867912 252.148691 
L 327.136392 248.890368 
L 328.969133 242.994052 
L 327.063168 242.342348 
L 327.589909 237.755404 
L 333.416952 220.538103 
L 336.632578 221.956328 
L 347.620236 213.538814 
L 350.696756 211.955175 
L 350.297814 214.437083 
L 360.019895 206.981465 
L 363.637307 207.504247 
L 364.183108 203.436213 
L 364.336232 205.251069 
L 365.631405 207.070557 
L 366.940003 208.908905 
L 364.948366 202.121103 
L 375.197211 197.005752 
L 380.554349 195.552448 
L 385.23937 202.105557 
L 397.058857 207.008601 
L 403.764662 202.267962 
L 406.801373 200.121173 
L 411.87699 200.285172 
L 412.039304 202.822176 
L 412.034939 200.288904 
L 420.905848 199.237061 
L 421.813027 202.615831 
L 422.260523 198.532835 
L 439.612785 194.366401 
" clip-path="url(#p3fd6571624)" style="fill: #808080; stroke: #999999; stroke-width: 0.2"/>
    <path d="M 237.639986 453.31843 
L 234.88324 453.657991 
L 231.85395 458.689109 
L 231.017319 464.819525 
L 226.713407 466.038701 
L 223.287411 462.525926 
L 217.502517 463.348132 
L 215.833778 458.715114 
L 208.484443 457.287278 
L 205.55127 449.398481 
L 207.962784 446.386131 
L 214.785075 442.175268 
L 217.121081 433.217418 
L 221.066194 433.173888 
L 222.255983 437.96692 
L 233.516744 437.985858 
L 230.764264 442.623116 
L 238.560868 445.615681 
L 237.639986 453.31843 
" clip-path="url(#p3fd6571624)" style="fill: #808080; stroke: #999999; stroke-width: 0.2"/>
    <path d="M 294.914819 437.894531 
L 292.364479 440.001262 
L 286.265429 439.811823 
L 284.382659 443.240081 
L 282.386499 441.679338 
L 281.322527 453.31956 
L 277.9726 456.816788 
L 270.786987 452.069547 
L 271.334663 449.629472 
L 273.604812 450.445487 
L 276.753694 447.938394 
L 264.356296 436.793819 
L 267.140458 432.219906 
L 264.263001 426.934025 
L 268.196224 427.962092 
L 272.50692 425.905702 
L 269.503064 424.689919 
L 268.300267 419.482081 
L 271.161336 416.290495 
L 276.306681 416.098794 
L 283.793418 419.807792 
L 281.903562 422.760755 
L 284.835034 423.462519 
L 284.063724 426.163009 
L 287.814296 427.005284 
L 288.383185 431.918786 
L 294.914819 437.894531 
" clip-path="url(#p3fd6571624)" style="fill: #808080; stroke: #999999; stroke-width: 0.2"/>
    <path d="M 86.983874 394.533172 
L 88.783791 394.647706 
L 90.768365 400.731456 
L 97.537504 402.487857 
L 99.199459 407.69513 
L 96.318878 407.910009 
L 97.829001 415.995029 
L 101.668649 419.391884 
L 101.381675 423.532082 
L 104.489014 423.711063 
L 103.855107 427.336958 
L 106.252192 430.833904 
L 104.56422 431.03578 
L 105.8736 433.222223 
L 98.188662 436.61399 
L 96.536032 431.86477 
L 93.632558 430.307164 
L 90.410708 437.454314 
L 87.693826 437.340373 
L 86.793016 439.697316 
L 80.953525 428.869972 
L 82.505796 428.616934 
L 80.421981 417.945929 
L 82.886368 416.48898 
L 76.068041 399.677694 
L 83.689919 393.605223 
L 86.983874 394.533172 
" clip-path="url(#p3fd6571624)" style="fill: #808080; stroke: #999999; stroke-width: 0.2"/>
    <path d="M 265.923534 455.936043 
L 265.897541 459.767773 
L 260.622975 461.942626 
L 250.839233 462.195664 
L 244.992981 459.783602 
L 246.98632 456.941187 
L 237.639986 453.31843 
L 238.560868 445.615681 
L 230.764264 442.623116 
L 233.516744 437.985858 
L 222.255983 437.96692 
L 221.066194 433.173888 
L 220.248796 427.950786 
L 233.443521 429.590391 
L 237.964563 427.890833 
L 240.720167 430.764341 
L 247.965739 429.108623 
L 252.700811 421.038584 
L 256.54356 431.693731 
L 255.684876 436.133918 
L 257.88376 438.130072 
L 257.859445 450.355573 
L 264.650078 452.584697 
L 265.923534 455.936043 
" clip-path="url(#p3fd6571624)" style="fill: #808080; stroke: #999999; stroke-width: 0.2"/>
    <path d="M 207.962784 446.386131 
L 205.55127 449.398481 
L 208.484443 457.287278 
L 215.833778 458.715114 
L 217.502517 463.348132 
L 223.287411 462.525926 
L 226.713407 466.038701 
L 231.017319 464.819525 
L 231.85395 458.689109 
L 234.88324 453.657991 
L 237.639986 453.31843 
L 246.98632 456.941187 
L 244.992981 459.783602 
L 250.839233 462.195664 
L 249.712807 464.372807 
L 245.991049 463.919277 
L 244.830401 468.41006 
L 242.913969 467.830745 
L 236.658586 473.676437 
L 237.884835 474.822092 
L 232.294458 484.770953 
L 227.362863 484.454853 
L 227.609694 487.52317 
L 223.736989 489.477491 
L 225.075206 492.540156 
L 222.702716 495.771597 
L 217.848028 498.269362 
L 215.731413 495.591231 
L 206.619764 496.995605 
L 204.792408 501.015898 
L 208.237053 506.936806 
L 207.228215 510.521716 
L 198.191771 516.83281 
L 187.207796 517.400252 
L 186.874174 510.18354 
L 177.780056 506.974711 
L 184.8865 490.385654 
L 195.45822 491.376665 
L 194.833358 489.219054 
L 199.670235 485.546236 
L 199.08948 482.522297 
L 195.519858 480.367513 
L 200.283232 475.525269 
L 192.359366 468.421677 
L 180.252625 465.323652 
L 178.290105 466.554162 
L 177.571108 464.639413 
L 173.58669 466.862348 
L 169.639619 464.03661 
L 171.406177 455.68668 
L 169.029747 450.262266 
L 175.590777 451.152056 
L 176.761333 447.241153 
L 182.46932 447.348875 
L 186.165341 453.30766 
L 187.750949 440.0957 
L 195.934933 439.233893 
L 196.538581 442.489107 
L 202.992468 442.772136 
L 207.962784 446.386131 
" clip-path="url(#p3fd6571624)" style="fill: #808080; stroke: #999999; stroke-width: 0.2"/>
    <path d="M 261.960634 481.719312 
L 259.224822 484.931844 
L 258.855555 490.330507 
L 251.165255 489.709613 
L 248.211147 496.747909 
L 248.700868 499.914621 
L 253.986437 501.296948 
L 257.327039 505.822809 
L 261.220982 501.544079 
L 264.248011 503.582068 
L 265.021885 504.990711 
L 258.298835 511.893302 
L 245.295504 518.459978 
L 246.930324 519.689074 
L 243.531208 524.037085 
L 235.642124 525.487534 
L 231.351221 521.772317 
L 227.282855 528.10885 
L 221.2709 523.8267 
L 218.041147 526.575808 
L 216.426679 523.886653 
L 209.862525 527.672563 
L 207.001176 527.14978 
L 199.72397 520.963651 
L 198.191771 516.83281 
L 207.228215 510.521716 
L 208.237053 506.936806 
L 204.792408 501.015898 
L 206.619764 496.995605 
L 215.731413 495.591231 
L 217.848028 498.269362 
L 222.702716 495.771597 
L 225.075206 492.540156 
L 223.736989 489.477491 
L 227.609694 487.52317 
L 227.362863 484.454853 
L 232.294458 484.770953 
L 237.884835 474.822092 
L 236.658586 473.676437 
L 242.913969 467.830745 
L 244.830401 468.41006 
L 245.991049 463.919277 
L 249.712807 464.372807 
L 250.839233 462.195664 
L 260.622975 461.942626 
L 259.508975 473.667675 
L 261.960634 481.719312 
" clip-path="url(#p3fd6571624)" style="fill: #808080; stroke: #999999; stroke-width: 0.2"/>
    <path d="M 440.754126 226.085502 
L 449.067609 232.053078 
L 448.590897 234.900552 
L 451.708983 234.320926 
L 454.118517 239.999537 
L 459.21493 238.737652 
L 460.354667 240.501685 
L 454.898033 251.124609 
L 456.6465 251.364079 
L 458.023183 257.604762 
L 457.002199 265.649079 
L 461.150594 266.095232 
L 462.546207 271.060179 
L 467.848467 271.859234 
L 468.838913 277.80643 
L 472.1849 281.105738 
L 463.010751 279.843853 
L 456.731333 283.799417 
L 458.477259 290.11362 
L 454.166004 293.487014 
L 458.982809 301.603155 
L 449.597754 310.567195 
L 449.827892 314.999467 
L 446.0745 317.675337 
L 442.628433 313.777182 
L 439.545407 318.405395 
L 442.439277 323.692944 
L 438.350537 325.278561 
L 438.681338 331.180531 
L 441.454473 332.414998 
L 441.741191 335.985181 
L 443.816799 335.930881 
L 441.829125 336.576395 
L 445.729828 340.361175 
L 446.647329 345.242143 
L 441.869548 352.83293 
L 444.484346 362.544581 
L 438.821305 360.921907 
L 432.270439 347.5516 
L 426.686566 346.408743 
L 405.358749 348.981979 
L 405.045199 342.087897 
L 401.551901 340.02444 
L 386.362159 343.103216 
L 381.120114 339.127301 
L 376.265426 340.781322 
L 376.306992 343.84964 
L 372.911256 345.080998 
L 368.756076 339.277705 
L 360.081253 340.814422 
L 359.961661 344.003747 
L 352.022805 343.187195 
L 354.296335 335.021023 
L 351.626124 331.569869 
L 354.297757 326.621033 
L 356.691741 328.415311 
L 357.354206 325.027501 
L 356.714074 318.782296 
L 353.571393 316.984033 
L 354.921197 309.494495 
L 351.882582 306.213531 
L 348.750345 306.544076 
L 351.664589 302.024433 
L 348.761371 299.526979 
L 351.203426 296.005413 
L 348.946587 290.271401 
L 343.348005 286.678605 
L 342.82124 282.355187 
L 347.070859 277.779832 
L 349.489157 275.122645 
L 349.413392 270.942564 
L 351.805395 270.104812 
L 352.347126 263.889568 
L 355.338254 263.332556 
L 357.578703 257.187441 
L 379.197737 259.020754 
L 378.541497 276.219965 
L 393.168877 275.521593 
L 408.090039 270.379078 
L 405.260371 268.678078 
L 404.768669 261.013517 
L 420.300542 256.660702 
L 419.62311 252.115337 
L 415.304488 247.733661 
L 402.144266 250.810176 
L 404.01855 248.122999 
L 408.476556 247.056772 
L 415.4207 238.860921 
L 417.753326 242.368353 
L 432.9592 243.465672 
L 439.275382 231.780507 
L 437.671381 225.825087 
L 440.754126 226.085502 
" clip-path="url(#p3fd6571624)" style="fill: #808080; stroke: #999999; stroke-width: 0.2"/>
    <path d="M 347.070859 277.779832 
L 342.82124 282.355187 
L 343.348005 286.678605 
L 348.946587 290.271401 
L 351.203426 296.005413 
L 348.761371 299.526979 
L 351.664589 302.024433 
L 348.750345 306.544076 
L 351.882582 306.213531 
L 354.921197 309.494495 
L 353.571393 316.984033 
L 356.714074 318.782296 
L 357.354206 325.027501 
L 356.691741 328.415311 
L 354.297757 326.621033 
L 351.626124 331.569869 
L 354.296335 335.021023 
L 352.022805 343.187195 
L 351.673051 359.084665 
L 350.320706 356.537999 
L 343.863999 357.657366 
L 340.328016 352.187444 
L 336.959998 354.353818 
L 330.029702 350.855713 
L 319.753721 354.015641 
L 320.012418 350.327561 
L 316.141391 347.394101 
L 308.688876 347.189963 
L 304.691754 339.468841 
L 290.52183 347.653104 
L 286.693232 351.149201 
L 270.555986 353.522821 
L 271.895626 347.890313 
L 269.772227 344.102142 
L 271.720038 339.819172 
L 276.941451 338.518816 
L 275.631791 337.002762 
L 278.442529 334.572015 
L 275.838757 331.620211 
L 276.431379 325.951776 
L 272.053963 324.016987 
L 283.436601 314.46453 
L 282.985345 312.782215 
L 280.011188 313.377104 
L 278.881336 309.654792 
L 283.415107 309.895422 
L 281.955595 305.781229 
L 284.845781 303.69205 
L 284.024979 299.152905 
L 287.575089 296.85874 
L 287.448713 293.662886 
L 294.061217 287.43888 
L 303.341367 286.022633 
L 303.447694 287.840937 
L 306.480668 287.453295 
L 309.942564 284.060398 
L 311.60762 273.105262 
L 317.689419 269.006079 
L 320.924277 263.265848 
L 327.638259 271.772146 
L 323.97308 274.863642 
L 324.748353 276.491659 
L 333.040063 274.47063 
L 347.070859 277.779832 
" clip-path="url(#p3fd6571624)" style="fill: #808080; stroke: #999999; stroke-width: 0.2"/>
    <path d="M 268.300267 419.482081 
L 269.503064 424.689919 
L 272.50692 425.905702 
L 268.196224 427.962092 
L 264.263001 426.934025 
L 267.140458 432.219906 
L 264.356296 436.793819 
L 276.753694 447.938394 
L 273.604812 450.445487 
L 271.334663 449.629472 
L 270.786987 452.069547 
L 269.567242 454.86699 
L 265.923534 455.936043 
L 264.650078 452.584697 
L 257.859445 450.355573 
L 257.88376 438.130072 
L 255.684876 436.133918 
L 256.54356 431.693731 
L 252.700811 421.038584 
L 247.963757 412.436153 
L 247.16417 405.579635 
L 253.327655 409.007046 
L 256.852611 406.976944 
L 262.830345 409.569146 
L 267.507743 414.8827 
L 268.300267 419.482081 
" clip-path="url(#p3fd6571624)" style="fill: #808080; stroke: #999999; stroke-width: 0.2"/>
    <path d="M 309.767815 426.093163 
L 307.993331 427.757671 
L 303.990824 426.761007 
L 303.386336 436.924182 
L 297.312463 435.560793 
L 294.914819 437.894531 
L 288.383185 431.918786 
L 287.814296 427.005284 
L 284.063724 426.163009 
L 284.835034 423.462519 
L 281.903562 422.760755 
L 283.793418 419.807792 
L 276.306681 416.098794 
L 276.330716 406.712882 
L 269.624917 406.591309 
L 266.953284 402.519515 
L 267.914052 396.395882 
L 279.504216 389.417256 
L 284.243555 390.50129 
L 284.108111 392.797151 
L 287.822782 394.514516 
L 286.027084 398.670261 
L 293.927754 397.324425 
L 293.052961 400.551061 
L 295.531755 405.201321 
L 305.30475 413.948532 
L 301.05343 418.328483 
L 304.560552 420.054357 
L 303.834771 422.973656 
L 309.767815 426.093163 
" clip-path="url(#p3fd6571624)" style="fill: #808080; stroke: #999999; stroke-width: 0.2"/>
    <path d="M 372.911256 345.080998 
L 371.285761 352.051428 
L 367.165923 351.311222 
L 364.002331 355.342002 
L 360.998194 354.404979 
L 354.835245 363.379224 
L 363.529581 364.889908 
L 364.28364 377.588725 
L 361.112704 380.50237 
L 364.139174 384.103391 
L 361.807107 389.897073 
L 368.516589 399.722355 
L 365.044506 399.861735 
L 364.565252 402.06884 
L 358.268024 403.420611 
L 356.271024 411.542688 
L 351.058936 412.75084 
L 349.734006 417.572732 
L 348.156884 416.999042 
L 353.242853 428.107691 
L 349.85108 428.225335 
L 346.78076 434.337915 
L 345.403261 433.41675 
L 342.317113 431.121172 
L 346.196065 425.476792 
L 344.644377 420.681187 
L 336.692816 417.550373 
L 333.828903 419.165698 
L 327.931481 409.951983 
L 315.671485 425.736897 
L 309.767815 426.093163 
L 303.834771 422.973656 
L 304.560552 420.054357 
L 301.05343 418.328483 
L 305.30475 413.948532 
L 295.531755 405.201321 
L 293.052961 400.551061 
L 293.927754 397.324425 
L 286.027084 398.670261 
L 287.822782 394.514516 
L 284.108111 392.797151 
L 284.243555 390.50129 
L 279.504216 389.417256 
L 276.880653 385.817082 
L 282.676597 383.501718 
L 287.778675 384.344275 
L 285.814756 377.27856 
L 289.378153 373.519786 
L 281.362974 366.787413 
L 289.168343 359.209347 
L 292.159774 349.832479 
L 290.52183 347.653104 
L 304.691754 339.468841 
L 308.688876 347.189963 
L 316.141391 347.394101 
L 320.012418 350.327561 
L 319.753721 354.015641 
L 330.029702 350.855713 
L 336.959998 354.353818 
L 340.328016 352.187444 
L 343.863999 357.657366 
L 350.320706 356.537999 
L 351.673051 359.084665 
L 352.022805 343.187195 
L 359.961661 344.003747 
L 360.081253 340.814422 
L 368.756076 339.277705 
L 372.911256 345.080998 
" clip-path="url(#p3fd6571624)" style="fill: #808080; stroke: #999999; stroke-width: 0.2"/>
    <path d="M 345.403261 433.41675 
L 342.840473 438.046659 
L 344.675476 439.303739 
L 337.497206 448.440542 
L 338.534603 450.77459 
L 327.386347 459.350169 
L 322.896123 460.070023 
L 325.3161 463.423065 
L 319.444391 470.524989 
L 316.111994 471.530415 
L 315.128053 477.855642 
L 307.648683 477.526257 
L 304.939447 479.505169 
L 298.192082 480.180928 
L 297.634779 476.817427 
L 289.556562 478.53875 
L 286.95053 482.895806 
L 280.775994 482.750207 
L 274.269258 488.206561 
L 268.892912 487.552567 
L 261.960634 481.719312 
L 259.508975 473.667675 
L 260.622975 461.942626 
L 265.897541 459.767773 
L 265.923534 455.936043 
L 269.567242 454.86699 
L 270.786987 452.069547 
L 277.9726 456.816788 
L 281.322527 453.31956 
L 282.386499 441.679338 
L 284.382659 443.240081 
L 286.265429 439.811823 
L 292.364479 440.001262 
L 294.914819 437.894531 
L 297.312463 435.560793 
L 303.386336 436.924182 
L 303.990824 426.761007 
L 307.993331 427.757671 
L 309.767815 426.093163 
L 315.671485 425.736897 
L 327.931481 409.951983 
L 333.828903 419.165698 
L 336.692816 417.550373 
L 344.644377 420.681187 
L 346.196065 425.476792 
L 342.317113 431.121172 
L 345.403261 433.41675 
" clip-path="url(#p3fd6571624)" style="fill: #808080; stroke: #999999; stroke-width: 0.2"/>
    <path d="M 169.639619 464.03661 
L 173.58669 466.862348 
L 177.571108 464.639413 
L 178.290105 466.554162 
L 180.252625 465.323652 
L 192.359366 468.421677 
L 200.283232 475.525269 
L 195.519858 480.367513 
L 199.08948 482.522297 
L 199.670235 485.546236 
L 194.833358 489.219054 
L 195.45822 491.376665 
L 184.8865 490.385654 
L 177.780056 506.974711 
L 168.90477 504.784877 
L 165.734953 501.128454 
L 162.49105 502.712093 
L 161.2693 500.204999 
L 156.116891 499.77722 
L 154.027715 495.425817 
L 157.624473 490.981673 
L 156.025857 487.846054 
L 151.35072 486.974355 
L 149.189998 491.259615 
L 142.288539 485.594006 
L 139.990975 487.186125 
L 130.573119 483.38806 
L 127.417429 478.06402 
L 133.333805 470.595682 
L 133.479996 463.513545 
L 128.807097 463.637379 
L 125.165674 456.38816 
L 121.352881 456.706522 
L 118.872105 452.204404 
L 113.40188 448.775326 
L 126.785224 441.443514 
L 132.603198 444.369907 
L 135.18804 441.278694 
L 138.363218 441.742937 
L 139.621708 439.790058 
L 135.451818 434.391932 
L 147.893346 429.788028 
L 143.957279 424.50048 
L 143.264554 416.495764 
L 145.650915 416.498873 
L 148.593694 412.069428 
L 153.439057 412.412663 
L 156.730447 413.532059 
L 159.994702 418.612078 
L 162.096327 415.028045 
L 160.225423 410.393331 
L 163.192516 408.65191 
L 167.001066 411.007723 
L 166.381566 422.791876 
L 154.183231 429.98934 
L 153.633574 439.860723 
L 148.560334 446.890568 
L 153.981627 459.133848 
L 163.683356 459.30011 
L 169.639619 464.03661 
" clip-path="url(#p3fd6571624)" style="fill: #808080; stroke: #999999; stroke-width: 0.2"/>
    <path d="M 177.780056 506.974711 
L 186.874174 510.18354 
L 187.207796 517.400252 
L 198.191771 516.83281 
L 199.72397 520.963651 
L 189.201135 530.374749 
L 181.686424 533.639855 
L 174.38742 532.36836 
L 172.094658 534.512968 
L 172.707934 538.224227 
L 178.303696 543.529329 
L 180.348765 542.999198 
L 178.683406 551.370893 
L 173.147883 552.32968 
L 170.631766 550.328438 
L 161.88992 552.38935 
L 160.261907 548.852521 
L 154.203023 545.849216 
L 149.262663 547.997782 
L 145.70831 553.345 
L 141.927479 548.882766 
L 143.102557 543.767104 
L 137.371934 537.52416 
L 139.454606 535.030097 
L 136.978353 532.929895 
L 138.340885 530.850609 
L 133.999673 529.248287 
L 131.73801 530.920709 
L 129.983318 528.927099 
L 129.084467 522.163068 
L 137.434993 513.824416 
L 133.194701 512.056708 
L 138.317993 501.068784 
L 138.156532 498.527489 
L 131.988524 493.976754 
L 129.277866 486.199919 
L 130.573119 483.38806 
L 139.990975 487.186125 
L 142.288539 485.594006 
L 149.189998 491.259615 
L 151.35072 486.974355 
L 156.025857 487.846054 
L 157.624473 490.981673 
L 154.027715 495.425817 
L 156.116891 499.77722 
L 161.2693 500.204999 
L 162.49105 502.712093 
L 165.734953 501.128454 
L 168.90477 504.784877 
L 177.780056 506.974711 
" clip-path="url(#p3fd6571624)" style="fill: #808080; stroke: #999999; stroke-width: 0.2"/>
    <path d="M 86.983874 394.533172 
L 83.689919 393.605223 
L 76.068041 399.677694 
L 82.886368 416.48898 
L 80.421981 417.945929 
L 82.505796 428.616934 
L 80.953525 428.869972 
L 69.992186 434.21182 
L 68.482063 438.05316 
L 71.092059 446.728547 
L 60.497423 443.937605 
L 55.251135 449.67614 
L 53.252994 448.25506 
L 49.202696 450.030117 
L 49.212044 456.687866 
L 37.497742 459.921569 
L 36.393347 462.185489 
L 31.758633 452.134304 
L 38.243059 440.307752 
L 40.50724 438.308488 
L 44.238603 439.180725 
L 42.878612 434.629141 
L 47.933202 437.338112 
L 49.204118 430.158428 
L 51.295555 429.133215 
L 49.037295 423.128893 
L 48.625903 420.177626 
L 51.023011 418.054811 
L 48.432528 414.394996 
L 49.041538 406.099337 
L 55.427003 404.993509 
L 61.059226 397.096798 
L 65.728721 398.070566 
L 73.346636 393.176878 
L 74.448211 394.478901 
L 81.306682 386.330819 
L 86.983874 394.533172 
" clip-path="url(#p3fd6571624)" style="fill: #808080; stroke: #999999; stroke-width: 0.2"/>
    <path d="M 104.56422 431.03578 
L 113.122249 438.120179 
L 109.312581 447.211474 
L 113.40188 448.775326 
L 118.872105 452.204404 
L 121.352881 456.706522 
L 125.165674 456.38816 
L 128.807097 463.637379 
L 133.479996 463.513545 
L 133.333805 470.595682 
L 127.417429 478.06402 
L 130.573119 483.38806 
L 129.277866 486.199919 
L 131.988524 493.976754 
L 126.422741 497.817528 
L 117.941036 498.539361 
L 116.179258 505.756073 
L 113.015106 497.881438 
L 106.765924 496.109208 
L 108.713735 494.041794 
L 103.149375 489.982466 
L 102.419607 494.133122 
L 99.437804 495.521102 
L 93.254246 491.176201 
L 90.615134 503.701125 
L 87.339549 503.294828 
L 85.454519 506.756723 
L 79.903703 506.762941 
L 74.434923 512.329844 
L 68.812865 503.620821 
L 61.699637 504.196206 
L 47.88061 488.815866 
L 50.486363 487.026958 
L 49.32371 481.875681 
L 41.977802 477.002881 
L 46.298103 474.003278 
L 49.212044 456.687866 
L 49.202696 450.030117 
L 53.252994 448.25506 
L 55.251135 449.67614 
L 60.497423 443.937605 
L 71.092059 446.728547 
L 68.482063 438.05316 
L 69.992186 434.21182 
L 80.953525 428.869972 
L 86.793016 439.697316 
L 87.693826 437.340373 
L 90.410708 437.454314 
L 93.632558 430.307164 
L 96.536032 431.86477 
L 98.188662 436.61399 
L 105.8736 433.222223 
L 104.56422 431.03578 
" clip-path="url(#p3fd6571624)" style="fill: #808080; stroke: #999999; stroke-width: 0.2"/>
   </g>
   <g id="PatchCollection_2">
    <path d="M 516.861537 236.055133 
L 516.584539 236.405873 
L 516.600089 236.340308 
L 516.861536 235.992168 
L 522.177542 228.913413 
L 520.180835 231.852179 
L 516.861537 236.055133 
" clip-path="url(#p3fd6571624)" style="fill: #ff0000; stroke: #000000; stroke-width: 0.2"/>
    <path d="M 421.369037 56.326736 
L 426.68997 58.482086 
L 430.829601 57.307006 
L 434.555578 61.635513 
L 441.692258 60.11013 
L 448.344626 62.500428 
L 451.298884 54.465014 
L 451.327945 54.477451 
L 460.313072 57.97276 
L 472.888758 62.864834 
L 476.178833 66.094484 
L 476.826359 66.817973 
L 471.722411 70.800568 
L 460.313046 72.753761 
L 460.243334 72.765695 
L 452.173719 86.283604 
L 452.339868 96.933124 
L 452.414793 101.73551 
L 460.313083 124.532765 
L 463.855304 134.756866 
L 476.242624 153.481501 
L 486.919286 169.620309 
L 516.715873 208.357564 
L 516.861497 208.77873 
L 517.294115 210.02993 
L 522.677373 225.599146 
L 522.931302 227.804023 
L 522.184931 228.902538 
L 522.528432 226.598271 
L 522.04858 225.09242 
L 516.86162 220.912398 
L 510.366697 215.678327 
L 501.135727 213.143543 
L 485.171814 219.969224 
L 475.858848 218.267116 
L 468.11565 210.029933 
L 460.313077 201.729588 
L 454.605732 195.658137 
L 452.159107 195.836321 
L 451.388351 187.9693 
L 449.023636 189.314729 
L 448.728979 186.894925 
L 448.78067 186.781696 
L 448.143746 185.652023 
L 448.584493 187.092792 
L 447.672731 188.137861 
L 447.450351 188.049249 
L 449.13715 181.30394 
L 446.685211 178.660293 
L 446.89698 173.044179 
L 442.061805 172.931934 
L 434.77187 163.284192 
L 426.231628 166.109364 
L 426.861315 169.721664 
L 420.766228 170.575838 
L 421.687133 177.411693 
L 416.14028 180.278416 
L 415.448698 183.331187 
L 419.24706 183.558815 
L 415.5799 189.456799 
L 416.258513 193.187123 
L 416.240249 193.194154 
L 403.764721 195.366925 
L 393.298097 197.189821 
L 385.575277 191.6325 
L 376.785663 189.478592 
L 375.50512 191.108022 
L 378.985969 190.532071 
L 369.136929 193.447158 
L 364.691651 199.02989 
L 355.976124 198.362611 
L 361.621355 199.723739 
L 364.254523 201.123591 
L 362.127464 201.750449 
L 364.042474 201.769387 
L 364.183108 203.436213 
L 363.637307 207.504247 
L 360.019895 206.981465 
L 350.297814 214.437083 
L 350.696756 211.955175 
L 347.620236 213.538814 
L 336.632578 221.956328 
L 333.416952 220.538103 
L 318.080459 214.030221 
L 299.069136 215.268362 
L 288.755553 211.155017 
L 292.901967 206.364783 
L 293.963934 200.253333 
L 296.430303 199.349665 
L 300.727711 203.345677 
L 311.653708 202.230832 
L 311.587548 199.684166 
L 314.936076 200.970926 
L 315.7925 196.541198 
L 325.847107 195.281291 
L 324.432541 190.800401 
L 315.131154 189.886868 
L 312.668189 185.561753 
L 321.049254 180.491628 
L 319.714697 169.128753 
L 322.326394 164.585085 
L 318.4746 162.306749 
L 316.879644 150.345622 
L 321.382876 144.250566 
L 321.832733 141.143496 
L 316.488884 140.18697 
L 321.544897 131.457877 
L 321.430387 119.186586 
L 319.000502 116.69535 
L 320.524751 109.415858 
L 326.304564 106.804462 
L 329.081662 101.207287 
L 343.446383 98.790108 
L 343.753732 100.378269 
L 355.719386 96.644397 
L 356.516153 102.155022 
L 365.244409 103.222662 
L 364.460929 96.325159 
L 369.525685 94.215629 
L 372.163678 88.518928 
L 369.217216 86.061639 
L 377.460577 83.576311 
L 387.002547 75.988945 
L 394.181959 78.523993 
L 404.881477 71.32311 
L 406.961328 68.404659 
L 406.124138 65.524085 
L 411.853899 61.788489 
L 410.54622 53.436552 
L 413.229742 50.232528 
L 418.287713 49.345 
L 421.369037 56.326736 
" clip-path="url(#p3fd6571624)" style="fill: #ff0000; stroke: #000000; stroke-width: 0.2"/>
   </g>
   <g id="PatchCollection_3">
    <defs>
     <path id="m6fc052c5d9" d="M 104.56422 -154.70922 
L 113.122249 -147.624821 
L 109.312581 -138.533526 
L 113.40188 -136.969674 
L 118.872105 -133.540596 
L 121.352881 -129.038478 
L 125.165674 -129.35684 
L 128.807097 -122.107621 
L 133.479996 -122.231455 
L 133.333805 -115.149318 
L 127.417429 -107.68098 
L 130.573119 -102.35694 
L 129.277866 -99.545081 
L 131.988524 -91.768246 
L 126.422741 -87.927472 
L 117.941036 -87.205639 
L 116.179258 -79.988927 
L 113.015106 -87.863562 
L 106.765924 -89.635792 
L 108.713735 -91.703206 
L 103.149375 -95.762534 
L 102.419607 -91.611878 
L 99.437804 -90.223898 
L 93.254246 -94.568799 
L 90.615134 -82.043875 
L 87.339549 -82.450172 
L 85.454519 -78.988277 
L 79.903703 -78.982059 
L 74.434923 -73.415156 
L 68.812865 -82.124179 
L 61.699637 -81.548794 
L 47.88061 -96.929134 
L 50.486363 -98.718042 
L 49.32371 -103.869319 
L 41.977802 -108.742119 
L 46.298103 -111.741722 
L 49.212044 -129.057134 
L 49.202696 -135.714883 
L 53.252994 -137.48994 
L 55.251135 -136.06886 
L 60.497423 -141.807395 
L 71.092059 -139.016453 
L 68.482063 -147.69184 
L 69.992186 -151.53318 
L 80.953525 -156.875028 
L 86.793016 -146.047684 
L 87.693826 -148.404627 
L 90.410708 -148.290686 
L 93.632558 -155.437836 
L 96.536032 -153.88023 
L 98.188662 -149.13101 
L 105.8736 -152.522777 
L 104.56422 -154.70922 
" style="stroke: #000000; stroke-width: 0.2"/>
    </defs>
    <g clip-path="url(#p3fd6571624)">
     <use xlink:href="#m6fc052c5d9" x="0" y="585.745" style="fill: #008000; stroke: #000000; stroke-width: 0.2"/>
    </g>
   </g>
   <g id="matplotlib.axis_1"/>
   <g id="matplotlib.axis_2"/>
   <g id="LineCollection_1">
    <path d="M 90.1965 410.157868 
L 84.436845 423.364526 
L 84.019133 429.276231 
L 86.593103 437.72985 
L 89.662448 444.046908 
L 93.22372 449.583594 
L 101.403132 458.65923 
L 111.662762 466.18306 
L 114.588897 469.56358 
L 121.546213 481.224428 
L 124.75719 484.308379 
L 140.222301 495.199812 
L 144.121128 496.5633 
L 152.908361 496.392355 
L 160.594432 496.692504 
L 172.734047 500.37673 
L 176.065399 498.444146 
L 182.304338 490.662201 
L 187.371793 485.87784 
L 200.073039 468.788865 
L 205.139524 464.919192 
L 210.606318 463.502368 
L 233.910347 466.37672 
L 239.152611 465.231936 
L 255.276324 455.381924 
L 261.510094 454.87151 
L 269.182293 448.557374 
L 283.761467 433.160154 
L 292.076103 429.986515 
L 299.042845 431.54865 
L 301.34436 431.441595 
L 303.88385 429.487692 
L 305.61068 423.48663 
L 314.056702 418.889634 
L 327.48005 402.884033 
L 342.70043 390.35515 
L 347.790983 381.425281 
L 349.946039 371.327034 
L 353.490909 333.168138 
L 357.083068 322.710366 
L 357.665803 319.217926 
L 357.208705 316.755109 
L 354.046552 306.747636 
L 353.150603 305.418893 
L 351.895984 304.595533 
L 350.882515 303.537498 
L 350.70869 301.428094 
L 351.492382 298.022074 
L 351.707161 296.264468 
L 351.495302 294.616599 
L 348.889575 288.938399 
L 346.987858 285.910787 
L 346.396459 282.566524 
L 347.689595 275.8619 
L 350.140397 269.060527 
L 355.812542 257.209437 
L 357.514998 249.933081 
L 359.603303 211.538061 
L 362.975458 202.962949 
" clip-path="url(#p3fd6571624)" style="fill: none; stroke: #add8e6; stroke-width: 2"/>
   </g>
   <g id="text_1">
    <!-- East Riding of Yorkshire -->
    <g transform="translate(311.643966 137.471918)scale(0.15 -0.15)">
     <defs>
      <path id="STIXGeneral-Bold-45" d="M 4102 1331 
L 3846 0 
L 102 0 
L 102 160 
Q 448 198 557 294 
Q 666 390 666 646 
L 666 3712 
Q 666 3955 550 4051 
Q 435 4147 102 4166 
L 102 4326 
L 3795 4326 
L 3795 3040 
L 3635 3040 
Q 3526 3680 3216 3894 
Q 2906 4109 2118 4109 
Q 1875 4109 1788 4032 
Q 1702 3955 1702 3763 
L 1702 2323 
Q 2221 2330 2451 2531 
Q 2682 2733 2739 3277 
L 2906 3277 
L 2906 1114 
L 2739 1114 
Q 2694 1677 2464 1891 
Q 2234 2106 1702 2106 
L 1702 557 
Q 1702 352 1814 275 
Q 1926 198 2234 198 
Q 2982 198 3398 544 
Q 3558 672 3667 838 
Q 3776 1005 3923 1331 
L 4102 1331 
z
" transform="scale(0.015625)"/>
      <path id="STIXGeneral-Bold-61" d="M 3027 410 
L 3123 275 
Q 2784 -90 2406 -90 
Q 2170 -90 2051 9 
Q 1933 109 1882 352 
Q 1395 -90 864 -90 
Q 544 -90 352 80 
Q 160 250 160 589 
Q 160 1018 589 1306 
Q 909 1517 1875 1792 
L 1875 2227 
Q 1875 2541 1756 2681 
Q 1638 2822 1357 2822 
Q 1178 2822 1059 2758 
Q 941 2694 941 2586 
Q 941 2515 1011 2438 
Q 1133 2291 1133 2170 
Q 1133 2003 1011 1894 
Q 890 1786 698 1786 
Q 499 1786 390 1901 
Q 282 2016 282 2221 
Q 282 2598 618 2812 
Q 954 3027 1504 3027 
Q 2093 3027 2425 2803 
Q 2758 2579 2758 2170 
L 2758 499 
Q 2758 320 2893 320 
Q 2938 320 2963 346 
L 3027 410 
z
M 1875 621 
L 1875 1568 
Q 1094 1350 1094 794 
Q 1094 589 1187 477 
Q 1280 365 1427 365 
Q 1696 365 1875 621 
z
" transform="scale(0.015625)"/>
      <path id="STIXGeneral-Bold-73" d="M 2176 2086 
L 2016 2086 
Q 1894 2445 1715 2611 
Q 1498 2816 1235 2816 
Q 1056 2816 934 2710 
Q 813 2605 813 2445 
Q 813 2278 957 2147 
Q 1101 2016 1427 1882 
Q 1907 1683 2108 1452 
Q 2310 1222 2310 883 
Q 2310 454 2035 182 
Q 1760 -90 1325 -90 
Q 992 -90 634 58 
Q 538 96 486 96 
Q 416 96 320 -83 
L 160 -83 
L 160 973 
L 339 973 
Q 544 128 1216 128 
Q 1434 128 1565 243 
Q 1696 358 1696 544 
Q 1696 698 1555 829 
Q 1414 960 1082 1101 
Q 602 1306 387 1539 
Q 173 1773 173 2093 
Q 173 2496 457 2761 
Q 742 3027 1178 3027 
Q 1395 3027 1677 2931 
Q 1818 2886 1875 2886 
Q 1984 2886 2035 3014 
L 2176 3014 
L 2176 2086 
z
" transform="scale(0.015625)"/>
      <path id="STIXGeneral-Bold-74" d="M 1965 717 
L 2125 646 
Q 1926 250 1712 86 
Q 1498 -77 1178 -77 
Q 845 -77 653 105 
Q 461 288 461 608 
L 461 2669 
L 122 2669 
L 122 2842 
Q 435 3053 646 3299 
Q 858 3546 1190 4032 
L 1350 4032 
L 1350 2950 
L 1958 2950 
L 1958 2669 
L 1350 2669 
L 1350 762 
Q 1350 378 1600 378 
Q 1786 378 1965 717 
z
" transform="scale(0.015625)"/>
      <path id="STIXGeneral-Bold-20" transform="scale(0.015625)"/>
      <path id="STIXGeneral-Bold-52" d="M 4582 0 
L 3270 0 
L 1946 2003 
L 1766 2003 
L 1766 749 
Q 1766 403 1859 307 
Q 1952 211 2330 160 
L 2330 0 
L 166 0 
L 166 160 
Q 544 205 637 301 
Q 730 397 730 768 
L 730 3526 
Q 730 3904 624 4022 
Q 518 4141 166 4166 
L 166 4326 
L 2138 4326 
Q 4032 4326 4032 3226 
Q 4032 2739 3744 2470 
Q 3475 2227 3027 2106 
L 4301 301 
Q 4397 160 4582 160 
L 4582 0 
z
M 1766 3821 
L 1766 2208 
Q 2426 2214 2682 2406 
Q 2938 2598 2938 3162 
Q 2938 3667 2746 3888 
Q 2554 4109 2106 4109 
Q 1920 4109 1843 4045 
Q 1766 3981 1766 3821 
z
" transform="scale(0.015625)"/>
      <path id="STIXGeneral-Bold-69" d="M 1376 3923 
Q 1376 3712 1232 3571 
Q 1088 3430 877 3430 
Q 666 3430 525 3571 
Q 384 3712 384 3923 
Q 384 4134 528 4278 
Q 672 4422 890 4422 
Q 1088 4422 1232 4275 
Q 1376 4128 1376 3923 
z
M 1638 0 
L 102 0 
L 102 154 
Q 326 205 384 275 
Q 442 346 442 563 
L 442 2387 
Q 442 2598 374 2675 
Q 307 2752 96 2797 
L 96 2950 
L 1331 2950 
L 1331 544 
Q 1331 339 1398 259 
Q 1466 179 1638 154 
L 1638 0 
z
" transform="scale(0.015625)"/>
      <path id="STIXGeneral-Bold-64" d="M 3418 128 
L 3021 77 
Q 2496 6 2170 -83 
L 2170 333 
Q 1946 96 1760 3 
Q 1574 -90 1318 -90 
Q 813 -90 486 332 
Q 160 755 160 1414 
Q 160 2112 509 2569 
Q 858 3027 1389 3027 
Q 1606 3027 1776 2940 
Q 1946 2854 2150 2630 
L 2150 3802 
Q 2150 4026 2067 4086 
Q 1984 4147 1664 4173 
L 1664 4326 
L 3040 4326 
L 3040 646 
Q 3040 442 3120 365 
Q 3200 288 3418 275 
L 3418 128 
z
M 2150 717 
L 2150 2272 
Q 2080 2458 1945 2563 
Q 1811 2669 1651 2669 
Q 1107 2669 1107 1466 
Q 1107 269 1606 269 
Q 1837 269 2029 506 
Q 2150 666 2150 717 
z
" transform="scale(0.015625)"/>
      <path id="STIXGeneral-Bold-6e" d="M 3450 0 
L 1952 0 
L 1952 154 
Q 2112 173 2179 259 
Q 2246 346 2246 538 
L 2246 2054 
Q 2246 2598 1920 2598 
Q 1690 2598 1472 2381 
Q 1363 2272 1363 2227 
L 1363 538 
Q 1363 352 1430 265 
Q 1498 179 1670 154 
L 1670 0 
L 134 0 
L 134 154 
Q 346 198 410 275 
Q 474 352 474 557 
L 474 2406 
Q 474 2611 410 2688 
Q 346 2765 134 2797 
L 134 2950 
L 1357 2950 
L 1357 2470 
L 1363 2470 
Q 1677 3027 2272 3027 
Q 2669 3027 2902 2780 
Q 3136 2534 3136 2118 
L 3136 538 
Q 3136 320 3200 243 
Q 3264 166 3450 154 
L 3450 0 
z
" transform="scale(0.015625)"/>
      <path id="STIXGeneral-Bold-67" d="M 1626 435 
L 1958 435 
Q 2477 435 2784 227 
Q 3091 19 3091 -333 
Q 3091 -787 2652 -1052 
Q 2214 -1318 1421 -1318 
Q 179 -1318 179 -730 
Q 179 -339 794 -250 
Q 493 -141 381 -25 
Q 269 90 269 275 
Q 269 557 454 733 
Q 640 909 1030 1024 
Q 678 1120 457 1382 
Q 237 1645 237 1997 
Q 237 2464 598 2745 
Q 960 3027 1536 3027 
Q 1869 3027 2253 2886 
L 3078 2886 
L 3078 2547 
L 2566 2547 
Q 2822 2317 2822 1920 
Q 2822 1318 2234 1075 
Q 2080 1011 1971 998 
Q 1862 986 1421 986 
Q 1229 986 1104 899 
Q 979 813 979 672 
Q 979 538 1113 486 
Q 1248 435 1626 435 
z
M 1958 1997 
Q 1958 2445 1859 2637 
Q 1760 2829 1529 2829 
Q 1299 2829 1206 2643 
Q 1114 2458 1114 1990 
Q 1114 1542 1210 1353 
Q 1306 1165 1536 1165 
Q 1766 1165 1862 1353 
Q 1958 1542 1958 1997 
z
M 2016 -333 
L 966 -333 
Q 832 -442 787 -512 
Q 742 -582 742 -685 
Q 742 -1114 1600 -1114 
Q 2061 -1114 2323 -995 
Q 2586 -877 2586 -691 
Q 2586 -333 2016 -333 
z
" transform="scale(0.015625)"/>
      <path id="STIXGeneral-Bold-6f" d="M 3046 1466 
Q 3046 794 2633 352 
Q 2221 -90 1600 -90 
Q 992 -90 576 348 
Q 160 787 160 1459 
Q 160 2157 573 2592 
Q 986 3027 1626 3027 
Q 2234 3027 2640 2585 
Q 3046 2144 3046 1466 
z
M 2106 1395 
Q 2106 2214 1997 2521 
Q 1888 2829 1606 2829 
Q 1312 2829 1206 2525 
Q 1101 2221 1101 1395 
Q 1101 698 1216 403 
Q 1331 109 1606 109 
Q 1882 109 1994 393 
Q 2106 678 2106 1395 
z
" transform="scale(0.015625)"/>
      <path id="STIXGeneral-Bold-66" d="M 90 2950 
L 454 2950 
Q 454 3789 710 4096 
Q 979 4422 1574 4422 
Q 1984 4422 2237 4243 
Q 2490 4064 2490 3782 
Q 2490 3603 2381 3488 
Q 2272 3373 2093 3373 
Q 1933 3373 1821 3481 
Q 1709 3590 1709 3738 
Q 1709 3866 1779 3971 
Q 1850 4077 1850 4102 
Q 1850 4224 1664 4224 
Q 1491 4224 1417 4112 
Q 1344 4000 1344 3718 
L 1344 2950 
L 1894 2950 
L 1894 2669 
L 1344 2669 
L 1344 685 
Q 1344 365 1440 262 
Q 1536 160 1869 154 
L 1869 0 
L 90 0 
L 90 154 
Q 307 179 380 259 
Q 454 339 454 557 
L 454 2669 
L 90 2669 
L 90 2950 
z
" transform="scale(0.015625)"/>
      <path id="STIXGeneral-Bold-59" d="M 4474 4326 
L 4474 4166 
Q 4160 4122 4038 3917 
L 2816 1926 
L 2816 787 
Q 2816 416 2921 304 
Q 3027 192 3405 160 
L 3405 0 
L 1184 0 
L 1184 160 
Q 1568 192 1673 320 
Q 1779 448 1779 819 
L 1779 1690 
L 627 3789 
Q 429 4147 96 4166 
L 96 4326 
L 2240 4326 
L 2240 4166 
L 2067 4154 
Q 1862 4141 1792 4105 
Q 1722 4070 1722 3968 
Q 1722 3885 1875 3590 
L 2643 2106 
L 3341 3245 
Q 3603 3680 3603 3898 
Q 3603 4038 3497 4089 
Q 3392 4141 3066 4166 
L 3066 4326 
L 4474 4326 
z
" transform="scale(0.015625)"/>
      <path id="STIXGeneral-Bold-72" d="M 1395 2950 
L 1395 2426 
Q 1619 2752 1817 2889 
Q 2016 3027 2259 3027 
Q 2483 3027 2630 2883 
Q 2778 2739 2778 2522 
Q 2778 2330 2666 2208 
Q 2554 2086 2374 2086 
Q 2138 2086 1990 2330 
Q 1901 2477 1811 2477 
Q 1645 2477 1533 2285 
Q 1421 2093 1421 1811 
L 1421 678 
Q 1421 371 1507 272 
Q 1594 173 1882 154 
L 1882 0 
L 186 0 
L 186 154 
Q 397 192 464 265 
Q 531 339 531 538 
L 531 2387 
Q 531 2611 460 2688 
Q 390 2765 179 2797 
L 179 2950 
L 1395 2950 
z
" transform="scale(0.015625)"/>
      <path id="STIXGeneral-Bold-6b" d="M 3475 0 
L 1978 0 
L 1978 154 
Q 2246 166 2246 275 
Q 2246 352 2093 563 
L 1485 1421 
L 1338 1267 
L 1338 538 
Q 1338 314 1392 250 
Q 1446 186 1670 154 
L 1670 0 
L 141 0 
L 141 154 
Q 448 179 448 538 
L 448 3802 
Q 448 4147 141 4173 
L 141 4326 
L 1338 4326 
L 1338 1568 
L 2157 2387 
Q 2291 2522 2291 2630 
Q 2291 2746 2067 2778 
L 1914 2803 
L 1914 2950 
L 3283 2950 
L 3283 2803 
Q 2982 2765 2768 2617 
Q 2554 2470 2074 1965 
L 3315 250 
Q 3386 154 3475 154 
L 3475 0 
z
" transform="scale(0.015625)"/>
      <path id="STIXGeneral-Bold-68" d="M 3418 0 
L 1920 0 
L 1920 154 
Q 2080 173 2147 259 
Q 2214 346 2214 544 
L 2214 1978 
Q 2214 2323 2144 2460 
Q 2074 2598 1888 2598 
Q 1658 2598 1440 2381 
Q 1331 2272 1331 2227 
L 1331 544 
Q 1331 346 1395 262 
Q 1459 179 1638 154 
L 1638 0 
L 102 0 
L 102 154 
Q 333 198 387 256 
Q 442 314 442 570 
L 442 3782 
Q 442 4006 384 4067 
Q 326 4128 96 4173 
L 96 4326 
L 1331 4326 
L 1331 2534 
Q 1747 3027 2272 3027 
Q 2656 3027 2880 2784 
Q 3104 2541 3104 2157 
L 3104 557 
Q 3104 339 3177 246 
Q 3251 154 3418 154 
L 3418 0 
z
" transform="scale(0.015625)"/>
      <path id="STIXGeneral-Bold-65" d="M 2579 806 
L 2733 717 
Q 2451 269 2166 89 
Q 1882 -90 1466 -90 
Q 890 -90 525 342 
Q 160 774 160 1434 
Q 160 2150 528 2588 
Q 896 3027 1498 3027 
Q 2029 3027 2317 2707 
Q 2656 2336 2694 1568 
L 1082 1568 
Q 1101 1299 1133 1116 
Q 1165 934 1241 748 
Q 1318 563 1468 467 
Q 1619 371 1843 371 
Q 2048 371 2214 470 
Q 2381 570 2579 806 
z
M 1907 1805 
L 1907 1939 
Q 1907 2406 1850 2528 
Q 1773 2688 1699 2758 
Q 1626 2829 1498 2829 
Q 1267 2829 1158 2595 
Q 1050 2362 1050 1805 
L 1907 1805 
z
" transform="scale(0.015625)"/>
     </defs>
     <use xlink:href="#STIXGeneral-Bold-45"/>
     <use xlink:href="#STIXGeneral-Bold-61" x="66.699997"/>
     <use xlink:href="#STIXGeneral-Bold-73" x="116.699982"/>
     <use xlink:href="#STIXGeneral-Bold-74" x="155.599976"/>
     <use xlink:href="#STIXGeneral-Bold-20" x="188.899963"/>
     <use xlink:href="#STIXGeneral-Bold-52" x="213.899948"/>
     <use xlink:href="#STIXGeneral-Bold-69" x="286.09993"/>
     <use xlink:href="#STIXGeneral-Bold-64" x="313.899918"/>
     <use xlink:href="#STIXGeneral-Bold-69" x="369.499908"/>
     <use xlink:href="#STIXGeneral-Bold-6e" x="397.299896"/>
     <use xlink:href="#STIXGeneral-Bold-67" x="452.899887"/>
     <use xlink:href="#STIXGeneral-Bold-20" x="502.899872"/>
     <use xlink:href="#STIXGeneral-Bold-6f" x="527.899857"/>
     <use xlink:href="#STIXGeneral-Bold-66" x="577.899841"/>
     <use xlink:href="#STIXGeneral-Bold-20" x="611.199829"/>
     <use xlink:href="#STIXGeneral-Bold-59" x="636.199814"/>
     <use xlink:href="#STIXGeneral-Bold-6f" x="708.399796"/>
     <use xlink:href="#STIXGeneral-Bold-72" x="758.39978"/>
     <use xlink:href="#STIXGeneral-Bold-6b" x="802.799774"/>
     <use xlink:href="#STIXGeneral-Bold-73" x="858.399765"/>
     <use xlink:href="#STIXGeneral-Bold-68" x="897.299759"/>
     <use xlink:href="#STIXGeneral-Bold-69" x="952.89975"/>
     <use xlink:href="#STIXGeneral-Bold-72" x="980.699738"/>
     <use xlink:href="#STIXGeneral-Bold-65" x="1025.099731"/>
    </g>
   </g>
   <g id="text_2">
    <!-- Stafford -->
    <g transform="translate(62.623119 472.29948)scale(0.15 -0.15)">
     <defs>
      <path id="STIXGeneral-Bold-53" d="M 3098 3034 
L 2918 3034 
Q 2752 3578 2470 3866 
Q 2125 4224 1683 4224 
Q 1357 4224 1168 4048 
Q 979 3872 979 3590 
Q 979 3360 1113 3213 
Q 1248 3066 1638 2861 
Q 1754 2797 2077 2633 
Q 2400 2470 2586 2368 
Q 2899 2195 3091 1897 
Q 3283 1600 3283 1242 
Q 3283 634 2844 256 
Q 2406 -122 1696 -122 
Q 1306 -122 864 32 
Q 666 96 602 96 
Q 525 96 480 48 
Q 435 0 410 -122 
L 224 -122 
L 224 1466 
L 410 1466 
Q 557 851 794 550 
Q 1158 90 1715 90 
Q 2086 90 2304 285 
Q 2522 480 2522 813 
Q 2522 1120 2157 1376 
Q 1997 1491 1376 1792 
Q 806 2067 544 2368 
Q 282 2669 282 3136 
Q 282 3744 656 4083 
Q 1030 4422 1683 4422 
Q 2035 4422 2432 4275 
Q 2624 4211 2701 4211 
Q 2790 4211 2832 4256 
Q 2874 4301 2906 4429 
L 3098 4429 
L 3098 3034 
z
" transform="scale(0.015625)"/>
     </defs>
     <use xlink:href="#STIXGeneral-Bold-53"/>
     <use xlink:href="#STIXGeneral-Bold-74" x="55.599991"/>
     <use xlink:href="#STIXGeneral-Bold-61" x="88.899979"/>
     <use xlink:href="#STIXGeneral-Bold-66" x="138.899963"/>
     <use xlink:href="#STIXGeneral-Bold-66" x="172.199951"/>
     <use xlink:href="#STIXGeneral-Bold-6f" x="205.499939"/>
     <use xlink:href="#STIXGeneral-Bold-72" x="255.499924"/>
     <use xlink:href="#STIXGeneral-Bold-64" x="299.899918"/>
    </g>
   </g>
   <g id="text_3">
    <!-- Distance between East Riding of Yorkshire and Stafford is 160 km. -->
    <g style="fill: #323034" transform="translate(7.2 18.145)scale(0.16 -0.16)">
     <defs>
      <path id="STIXGeneral-Regular-44" d="M 102 4237 
L 1830 4237 
Q 3078 4237 3750 3654 
Q 4384 3110 4384 2138 
Q 4384 966 3514 410 
Q 2880 0 1901 0 
L 102 0 
L 102 122 
Q 474 147 570 252 
Q 666 358 666 736 
L 666 3520 
Q 666 3891 570 3990 
Q 474 4090 102 4115 
L 102 4237 
z
M 1318 3731 
L 1318 538 
Q 1318 365 1379 301 
Q 1440 237 1626 237 
Q 2125 237 2432 307 
Q 2739 378 3021 570 
Q 3686 1018 3686 2099 
Q 3686 3027 3078 3558 
Q 2803 3802 2476 3901 
Q 2150 4000 1658 4000 
Q 1472 4000 1395 3942 
Q 1318 3885 1318 3731 
z
" transform="scale(0.015625)"/>
      <path id="STIXGeneral-Regular-69" d="M 1152 4045 
Q 1152 3904 1056 3811 
Q 960 3718 819 3718 
Q 685 3718 592 3811 
Q 499 3904 499 4045 
Q 499 4179 595 4275 
Q 691 4371 826 4371 
Q 966 4371 1059 4275 
Q 1152 4179 1152 4045 
z
M 1619 0 
L 102 0 
L 102 96 
Q 435 115 521 211 
Q 608 307 608 666 
L 608 2118 
Q 608 2342 563 2432 
Q 518 2522 397 2522 
Q 243 2522 128 2490 
L 128 2592 
L 1120 2944 
L 1146 2918 
L 1146 672 
Q 1146 314 1226 218 
Q 1306 122 1619 96 
L 1619 0 
z
" transform="scale(0.015625)"/>
      <path id="STIXGeneral-Regular-73" d="M 998 1926 
L 1664 1523 
Q 1984 1331 2105 1164 
Q 2227 998 2227 736 
Q 2227 416 1961 176 
Q 1696 -64 1331 -64 
Q 1030 -64 864 -6 
Q 691 51 570 51 
Q 461 51 416 -26 
L 333 -26 
L 333 979 
L 435 979 
Q 538 512 730 294 
Q 922 77 1248 77 
Q 1485 77 1632 211 
Q 1779 346 1779 550 
Q 1779 845 1440 1030 
L 1094 1222 
Q 326 1651 326 2150 
Q 326 2522 566 2730 
Q 806 2938 1210 2938 
Q 1491 2938 1638 2867 
Q 1754 2816 1818 2816 
Q 1862 2816 1920 2880 
L 1990 2880 
L 2022 2010 
L 1926 2010 
Q 1818 2445 1654 2621 
Q 1491 2797 1203 2797 
Q 986 2797 854 2688 
Q 723 2579 723 2362 
Q 723 2253 796 2128 
Q 870 2003 998 1926 
z
" transform="scale(0.015625)"/>
      <path id="STIXGeneral-Regular-74" d="M 1702 493 
L 1786 422 
Q 1478 -64 1011 -64 
Q 448 -64 448 749 
L 448 2675 
L 109 2675 
Q 83 2694 83 2720 
Q 83 2771 192 2842 
Q 435 2982 813 3526 
Q 826 3546 874 3606 
Q 922 3667 941 3706 
Q 986 3706 986 3622 
L 986 2880 
L 1632 2880 
L 1632 2675 
L 986 2675 
L 986 845 
Q 986 538 1062 403 
Q 1139 269 1318 269 
Q 1510 269 1702 493 
z
" transform="scale(0.015625)"/>
      <path id="STIXGeneral-Regular-61" d="M 2829 422 
L 2829 243 
Q 2586 -64 2253 -64 
Q 1888 -64 1843 403 
L 1837 403 
Q 1427 -64 909 -64 
Q 608 -64 422 112 
Q 237 288 237 602 
Q 237 1050 685 1350 
Q 992 1555 1837 1869 
L 1837 2214 
Q 1837 2502 1699 2646 
Q 1562 2790 1338 2790 
Q 1146 2790 1018 2697 
Q 890 2605 890 2477 
Q 890 2419 909 2348 
Q 928 2278 928 2208 
Q 928 2112 841 2029 
Q 755 1946 634 1946 
Q 525 1946 441 2029 
Q 358 2112 358 2240 
Q 358 2547 685 2752 
Q 986 2944 1421 2944 
Q 1939 2944 2176 2656 
Q 2291 2522 2323 2384 
Q 2355 2246 2355 1946 
L 2355 723 
Q 2355 301 2554 301 
Q 2682 301 2829 422 
z
M 1837 813 
L 1837 1715 
Q 1248 1510 1018 1293 
Q 800 1094 800 800 
Q 800 557 921 432 
Q 1043 307 1242 307 
Q 1453 307 1613 410 
Q 1747 506 1792 589 
Q 1837 672 1837 813 
z
" transform="scale(0.015625)"/>
      <path id="STIXGeneral-Regular-6e" d="M 3104 0 
L 1773 0 
L 1779 96 
Q 2016 115 2096 233 
Q 2176 352 2176 672 
L 2176 1946 
Q 2176 2592 1709 2592 
Q 1549 2592 1408 2515 
Q 1267 2438 1050 2227 
L 1050 461 
Q 1050 269 1136 192 
Q 1222 115 1466 96 
L 1466 0 
L 115 0 
L 115 96 
Q 358 115 435 214 
Q 512 314 512 602 
L 512 2157 
Q 512 2394 467 2483 
Q 422 2573 288 2573 
Q 160 2573 102 2547 
L 102 2656 
Q 550 2784 979 2944 
L 1030 2925 
L 1030 2426 
L 1037 2426 
Q 1491 2944 1958 2944 
Q 2323 2944 2518 2688 
Q 2714 2432 2714 1958 
L 2714 544 
Q 2714 288 2790 205 
Q 2867 122 3104 96 
L 3104 0 
z
" transform="scale(0.015625)"/>
      <path id="STIXGeneral-Regular-63" d="M 2547 998 
L 2637 941 
Q 2362 403 2112 205 
Q 1786 -64 1376 -64 
Q 845 -64 502 336 
Q 160 736 160 1357 
Q 160 2170 698 2618 
Q 1094 2944 1562 2944 
Q 1965 2944 2256 2749 
Q 2547 2554 2547 2285 
Q 2547 2176 2457 2096 
Q 2368 2016 2246 2016 
Q 2022 2016 1939 2310 
L 1901 2451 
Q 1850 2630 1773 2694 
Q 1696 2758 1523 2758 
Q 1133 2758 893 2451 
Q 653 2144 653 1645 
Q 653 1094 928 745 
Q 1203 397 1645 397 
Q 1920 397 2118 528 
Q 2317 659 2547 998 
z
" transform="scale(0.015625)"/>
      <path id="STIXGeneral-Regular-65" d="M 2611 1050 
L 2714 1005 
Q 2330 -64 1376 -64 
Q 813 -64 486 329 
Q 160 723 160 1389 
Q 160 2074 525 2509 
Q 890 2944 1485 2944 
Q 2061 2944 2374 2502 
Q 2560 2246 2592 1773 
L 621 1773 
Q 646 1370 700 1158 
Q 755 947 915 730 
Q 1184 378 1626 378 
Q 1939 378 2153 531 
Q 2368 685 2611 1050 
z
M 634 1978 
L 1939 1978 
Q 1882 2381 1750 2547 
Q 1619 2714 1312 2714 
Q 1043 2714 864 2525 
Q 685 2336 634 1978 
z
" transform="scale(0.015625)"/>
      <path id="STIXGeneral-Regular-20" transform="scale(0.015625)"/>
      <path id="STIXGeneral-Regular-62" d="M 979 4358 
L 979 2406 
Q 1082 2650 1315 2797 
Q 1549 2944 1843 2944 
Q 2349 2944 2672 2541 
Q 2995 2138 2995 1536 
Q 2995 832 2566 384 
Q 2138 -64 1498 -64 
Q 1107 -64 774 67 
Q 442 198 442 358 
L 442 3622 
Q 442 3859 384 3926 
Q 326 3994 128 3994 
Q 83 3994 19 3981 
L 19 4090 
L 211 4147 
Q 864 4346 947 4371 
L 979 4358 
z
M 979 2035 
L 979 474 
Q 979 326 1161 233 
Q 1344 141 1600 141 
Q 1978 141 2195 416 
Q 2432 710 2432 1261 
Q 2432 1888 2182 2240 
Q 1971 2541 1613 2541 
Q 1357 2541 1168 2390 
Q 979 2240 979 2035 
z
" transform="scale(0.015625)"/>
      <path id="STIXGeneral-Regular-77" d="M 4442 2880 
L 4442 2784 
Q 4346 2752 4301 2691 
Q 4256 2630 4179 2438 
L 3296 224 
Q 3168 -90 3117 -90 
Q 3085 -90 3062 -48 
Q 3040 -6 2963 186 
L 2381 1696 
L 1664 160 
Q 1549 -90 1504 -90 
Q 1446 -90 1338 192 
L 474 2381 
Q 378 2630 314 2700 
Q 250 2771 134 2784 
L 134 2880 
L 1286 2880 
L 1286 2784 
Q 1120 2765 1056 2720 
Q 992 2675 992 2573 
Q 992 2477 1030 2381 
L 1664 710 
L 2246 1984 
L 2118 2342 
Q 2029 2598 1942 2681 
Q 1856 2765 1677 2784 
L 1677 2880 
L 2976 2880 
L 2976 2784 
Q 2752 2752 2678 2707 
Q 2605 2662 2605 2560 
Q 2605 2458 2714 2176 
L 3251 742 
L 3827 2163 
Q 3936 2432 3936 2592 
Q 3936 2669 3875 2710 
Q 3814 2752 3654 2784 
L 3654 2880 
L 4442 2880 
z
" transform="scale(0.015625)"/>
      <path id="STIXGeneral-Regular-45" d="M 3821 1082 
L 3526 0 
L 77 0 
L 77 122 
Q 442 147 538 252 
Q 634 358 634 730 
L 634 3520 
Q 634 3878 534 3987 
Q 435 4096 77 4115 
L 77 4237 
L 3469 4237 
L 3494 3322 
L 3334 3322 
Q 3264 3750 3085 3872 
Q 2906 3994 2349 3994 
L 1510 3994 
Q 1370 3994 1328 3952 
Q 1286 3910 1286 3763 
L 1286 2355 
L 2253 2355 
Q 2656 2355 2787 2470 
Q 2918 2586 2976 2970 
L 3123 2970 
L 3123 1472 
L 2976 1472 
Q 2918 1875 2790 1984 
Q 2662 2093 2253 2093 
L 1286 2093 
L 1286 538 
Q 1286 346 1420 291 
Q 1555 237 1933 237 
L 2163 237 
Q 2848 237 3136 403 
Q 3424 570 3642 1082 
L 3821 1082 
z
" transform="scale(0.015625)"/>
      <path id="STIXGeneral-Regular-52" d="M 4224 0 
L 3187 0 
L 1664 1971 
L 1306 1958 
L 1306 717 
Q 1306 352 1405 249 
Q 1504 147 1875 122 
L 1875 0 
L 109 0 
L 109 122 
Q 474 154 563 262 
Q 653 371 653 794 
L 653 3526 
Q 653 3885 563 3987 
Q 474 4090 109 4115 
L 109 4237 
L 1850 4237 
Q 2726 4237 3187 3859 
Q 3501 3603 3501 3091 
Q 3501 2221 2342 2042 
L 3622 422 
Q 3757 256 3878 198 
Q 4000 141 4224 122 
L 4224 0 
z
M 1306 3731 
L 1306 2195 
Q 1766 2202 1990 2246 
Q 2214 2291 2438 2413 
Q 2803 2618 2803 3142 
Q 2803 4000 1632 4000 
Q 1459 4000 1382 3945 
Q 1306 3891 1306 3731 
z
" transform="scale(0.015625)"/>
      <path id="STIXGeneral-Regular-64" d="M 3142 269 
L 2202 -64 
L 2176 -45 
L 2176 365 
Q 1869 -64 1357 -64 
Q 826 -64 499 317 
Q 173 698 173 1312 
Q 173 1990 563 2467 
Q 954 2944 1504 2944 
Q 1850 2944 2176 2669 
L 2176 3667 
Q 2176 3866 2118 3930 
Q 2061 3994 1882 3994 
Q 1792 3994 1741 3987 
L 1741 4090 
Q 2323 4243 2682 4371 
L 2714 4358 
L 2714 730 
Q 2714 506 2768 435 
Q 2822 365 2995 365 
Q 3034 365 3142 371 
L 3142 269 
z
M 2176 653 
L 2176 2125 
Q 2176 2381 1981 2573 
Q 1786 2765 1523 2765 
Q 1158 2765 940 2438 
Q 723 2112 723 1568 
Q 723 979 963 624 
Q 1203 269 1606 269 
Q 1907 269 2080 474 
Q 2176 582 2176 653 
z
" transform="scale(0.015625)"/>
      <path id="STIXGeneral-Regular-67" d="M 3008 2483 
L 2477 2483 
Q 2598 2208 2598 1946 
Q 2598 1453 2265 1203 
Q 1933 954 1600 954 
Q 1530 954 1357 973 
L 1235 986 
Q 1107 947 979 812 
Q 851 678 851 582 
Q 851 435 1350 410 
L 2176 371 
Q 2528 358 2739 172 
Q 2950 -13 2950 -314 
Q 2950 -685 2566 -986 
Q 2035 -1395 1286 -1395 
Q 826 -1395 502 -1212 
Q 179 -1030 179 -774 
Q 179 -595 320 -419 
Q 461 -243 806 6 
Q 602 102 534 172 
Q 467 243 467 346 
Q 467 531 762 787 
Q 909 915 1037 1043 
Q 717 1203 579 1401 
Q 442 1600 442 1901 
Q 442 2336 752 2640 
Q 1062 2944 1510 2944 
Q 1766 2944 2022 2848 
L 2163 2797 
Q 2349 2733 2515 2733 
L 3008 2733 
L 3008 2483 
z
M 973 2163 
L 973 2144 
Q 973 1683 1155 1398 
Q 1338 1114 1632 1114 
Q 1850 1114 1978 1270 
Q 2106 1427 2106 1690 
Q 2106 2112 1914 2464 
Q 1754 2765 1446 2765 
Q 1222 2765 1097 2605 
Q 973 2445 973 2163 
z
M 2771 -410 
Q 2771 -230 2595 -163 
Q 2419 -96 1978 -96 
Q 1344 -96 941 -13 
Q 749 -243 688 -348 
Q 627 -454 627 -563 
Q 627 -774 880 -902 
Q 1133 -1030 1555 -1030 
Q 2099 -1030 2435 -860 
Q 2771 -691 2771 -410 
z
" transform="scale(0.015625)"/>
      <path id="STIXGeneral-Regular-6f" d="M 3008 1478 
Q 3008 806 2608 371 
Q 2208 -64 1568 -64 
Q 979 -64 582 368 
Q 186 800 186 1459 
Q 186 2125 582 2534 
Q 979 2944 1626 2944 
Q 2221 2944 2614 2537 
Q 3008 2131 3008 1478 
z
M 2432 1306 
Q 2432 2035 2112 2445 
Q 1856 2765 1504 2765 
Q 1171 2765 966 2493 
Q 762 2221 762 1747 
Q 762 928 1101 435 
Q 1318 115 1677 115 
Q 2029 115 2230 432 
Q 2432 749 2432 1306 
z
" transform="scale(0.015625)"/>
      <path id="STIXGeneral-Regular-66" d="M 134 2880 
L 659 2880 
Q 666 3264 710 3478 
Q 755 3693 883 3910 
Q 1152 4371 1786 4371 
Q 2074 4371 2262 4259 
Q 2451 4147 2451 3974 
Q 2451 3866 2374 3789 
Q 2298 3712 2182 3712 
Q 2029 3712 1894 3942 
Q 1741 4192 1555 4192 
Q 1197 4192 1197 3622 
L 1197 2880 
L 1978 2880 
L 1978 2675 
L 1197 2675 
L 1197 666 
Q 1197 307 1299 208 
Q 1402 109 1792 96 
L 1792 0 
L 128 0 
L 128 96 
Q 474 115 566 214 
Q 659 314 659 666 
L 659 2675 
L 134 2675 
L 134 2880 
z
" transform="scale(0.015625)"/>
      <path id="STIXGeneral-Regular-59" d="M 4499 4237 
L 4499 4115 
Q 4218 4090 4054 3955 
Q 3891 3821 3616 3398 
L 2669 1939 
L 2669 710 
Q 2669 346 2790 243 
Q 2912 141 3328 122 
L 3328 0 
L 1370 0 
L 1370 122 
Q 1805 154 1910 259 
Q 2016 365 2016 787 
L 2016 1882 
L 1178 3110 
Q 742 3750 556 3926 
Q 371 4102 141 4115 
L 141 4237 
L 1926 4237 
L 1926 4115 
L 1773 4109 
Q 1472 4102 1472 3942 
Q 1472 3808 1587 3642 
L 2522 2227 
L 3450 3648 
Q 3539 3782 3539 3917 
Q 3533 4026 3440 4067 
Q 3347 4109 3104 4115 
L 3104 4237 
L 4499 4237 
z
" transform="scale(0.015625)"/>
      <path id="STIXGeneral-Regular-72" d="M 1024 2931 
L 1024 2342 
Q 1267 2688 1430 2816 
Q 1594 2944 1792 2944 
Q 1958 2944 2051 2854 
Q 2144 2765 2144 2605 
Q 2144 2470 2077 2393 
Q 2010 2317 1894 2317 
Q 1773 2317 1638 2445 
Q 1536 2541 1472 2541 
Q 1338 2541 1181 2355 
Q 1024 2170 1024 2016 
L 1024 576 
Q 1024 301 1133 205 
Q 1242 109 1568 96 
L 1568 0 
L 32 0 
L 32 96 
Q 339 154 412 224 
Q 486 294 486 538 
L 486 2138 
Q 486 2349 438 2435 
Q 390 2522 269 2522 
Q 166 2522 45 2496 
L 45 2598 
Q 448 2726 992 2944 
L 1024 2931 
z
" transform="scale(0.015625)"/>
      <path id="STIXGeneral-Regular-6b" d="M 3232 0 
L 1837 0 
L 1837 96 
L 1958 96 
Q 2093 96 2093 192 
Q 2093 250 2022 339 
L 1062 1606 
L 1062 429 
Q 1062 262 1142 185 
Q 1222 109 1414 102 
L 1542 96 
L 1542 0 
L 45 0 
L 45 96 
Q 390 154 457 214 
Q 525 275 525 525 
L 525 3610 
Q 525 3840 467 3920 
Q 410 4000 250 4000 
Q 211 4000 45 3987 
L 45 4090 
L 237 4141 
Q 621 4243 1037 4371 
L 1062 4358 
L 1062 1670 
L 1939 2451 
Q 2086 2586 2086 2675 
Q 2086 2739 2019 2761 
Q 1952 2784 1766 2790 
L 1766 2880 
L 3072 2880 
L 3072 2784 
Q 2752 2784 2505 2646 
Q 2259 2509 1690 1978 
L 1504 1805 
L 2483 563 
Q 2829 122 3232 96 
L 3232 0 
z
" transform="scale(0.015625)"/>
      <path id="STIXGeneral-Regular-68" d="M 3117 0 
L 1760 0 
L 1760 96 
Q 2042 128 2118 224 
Q 2195 320 2195 653 
L 2195 1920 
Q 2195 2598 1722 2598 
Q 1530 2598 1370 2508 
Q 1210 2419 1005 2195 
L 1005 653 
Q 1005 320 1081 224 
Q 1158 128 1440 96 
L 1440 0 
L 58 0 
L 58 96 
Q 333 134 400 224 
Q 467 314 467 653 
L 467 3667 
Q 467 3872 406 3933 
Q 346 3994 141 3994 
Q 83 3994 64 3987 
L 64 4090 
L 237 4141 
Q 730 4288 973 4371 
L 1005 4352 
L 1005 2406 
Q 1229 2694 1446 2819 
Q 1664 2944 1946 2944 
Q 2733 2944 2733 1926 
L 2733 653 
Q 2733 320 2793 233 
Q 2854 147 3117 96 
L 3117 0 
z
" transform="scale(0.015625)"/>
      <path id="STIXGeneral-Regular-53" d="M 3002 2963 
L 2842 2963 
Q 2733 3360 2579 3565 
Q 2189 4064 1651 4064 
Q 1357 4064 1181 3894 
Q 1005 3725 1005 3456 
Q 1005 3328 1069 3206 
Q 1133 3085 1206 2998 
Q 1280 2912 1465 2784 
Q 1651 2656 1766 2589 
Q 1882 2522 2150 2362 
Q 2669 2061 2905 1763 
Q 3142 1466 3142 1107 
Q 3142 576 2771 243 
Q 2400 -90 1837 -90 
Q 1421 -90 1082 58 
Q 915 128 781 128 
Q 704 128 653 70 
Q 602 13 602 -83 
L 461 -83 
L 275 1274 
L 416 1274 
Q 845 141 1734 141 
Q 2074 141 2285 342 
Q 2496 544 2496 858 
Q 2496 1158 2310 1363 
Q 2003 1696 1235 2106 
Q 454 2522 454 3206 
Q 454 3718 768 4022 
Q 1082 4326 1568 4326 
Q 1907 4326 2240 4186 
Q 2413 4109 2522 4109 
Q 2688 4109 2726 4326 
L 2861 4326 
L 3002 2963 
z
" transform="scale(0.015625)"/>
      <path id="STIXGeneral-Regular-31" d="M 2522 0 
L 755 0 
L 755 96 
Q 1107 115 1235 227 
Q 1363 339 1363 608 
L 1363 3482 
Q 1363 3795 1171 3795 
Q 1082 3795 883 3718 
L 710 3654 
L 710 3744 
L 1856 4326 
L 1914 4307 
L 1914 486 
Q 1914 275 2042 185 
Q 2170 96 2522 96 
L 2522 0 
z
" transform="scale(0.015625)"/>
      <path id="STIXGeneral-Regular-36" d="M 2854 4378 
L 2867 4275 
Q 2112 4154 1606 3664 
Q 1101 3174 973 2451 
Q 1344 2739 1786 2739 
Q 2349 2739 2672 2380 
Q 2995 2022 2995 1402 
Q 2995 774 2669 378 
Q 2291 -90 1651 -90 
Q 870 -90 518 557 
Q 218 1107 218 1786 
Q 218 2835 915 3552 
Q 1312 3962 1731 4131 
Q 2150 4301 2854 4378 
z
M 2419 1203 
Q 2419 2445 1555 2445 
Q 1235 2445 1024 2275 
Q 813 2106 813 1702 
Q 813 954 1046 522 
Q 1280 90 1722 90 
Q 2061 90 2240 394 
Q 2419 698 2419 1203 
z
" transform="scale(0.015625)"/>
      <path id="STIXGeneral-Regular-30" d="M 3046 2112 
Q 3046 1683 2963 1302 
Q 2880 922 2717 602 
Q 2554 282 2266 96 
Q 1978 -90 1600 -90 
Q 1210 -90 915 108 
Q 621 307 461 640 
Q 301 973 227 1350 
Q 154 1728 154 2150 
Q 154 2746 301 3222 
Q 448 3699 790 4012 
Q 1133 4326 1626 4326 
Q 2253 4326 2649 3712 
Q 3046 3098 3046 2112 
z
M 2432 2080 
Q 2432 3091 2217 3625 
Q 2003 4160 1587 4160 
Q 1190 4160 979 3622 
Q 768 3085 768 2106 
Q 768 1120 979 598 
Q 1190 77 1600 77 
Q 2003 77 2217 598 
Q 2432 1120 2432 2080 
z
" transform="scale(0.015625)"/>
      <path id="STIXGeneral-Regular-6d" d="M 4960 0 
L 3565 0 
L 3565 96 
Q 3834 122 3907 208 
Q 3981 294 3981 576 
L 3981 1894 
Q 3981 2278 3869 2444 
Q 3757 2611 3488 2611 
Q 3264 2611 3107 2521 
Q 2950 2432 2803 2221 
L 2803 608 
Q 2803 301 2896 201 
Q 2989 102 3264 96 
L 3264 0 
L 1830 0 
L 1830 96 
Q 2112 115 2189 188 
Q 2266 262 2266 550 
L 2266 1901 
Q 2266 2611 1850 2611 
Q 1670 2611 1468 2531 
Q 1267 2451 1171 2336 
Q 1088 2240 1088 2227 
L 1088 448 
Q 1088 243 1177 176 
Q 1267 109 1523 96 
L 1523 0 
L 102 0 
L 102 96 
Q 371 102 460 195 
Q 550 288 550 563 
L 550 2150 
Q 550 2387 499 2480 
Q 448 2573 326 2573 
Q 230 2573 122 2547 
L 122 2656 
Q 557 2778 1011 2944 
L 1062 2925 
L 1062 2451 
L 1075 2451 
Q 1363 2752 1584 2848 
Q 1805 2944 2054 2944 
Q 2560 2944 2733 2406 
Q 3232 2944 3776 2944 
Q 4518 2944 4518 1792 
L 4518 493 
Q 4518 282 4582 202 
Q 4646 122 4794 109 
L 4960 96 
L 4960 0 
z
" transform="scale(0.015625)"/>
      <path id="STIXGeneral-Regular-2e" d="M 1158 275 
Q 1158 134 1052 32 
Q 947 -70 800 -70 
Q 653 -70 550 32 
Q 448 134 448 281 
Q 448 429 553 534 
Q 659 640 806 640 
Q 947 640 1052 531 
Q 1158 422 1158 275 
z
" transform="scale(0.015625)"/>
     </defs>
     <use xlink:href="#STIXGeneral-Regular-44"/>
     <use xlink:href="#STIXGeneral-Regular-69" x="72.199982"/>
     <use xlink:href="#STIXGeneral-Regular-73" x="99.999969"/>
     <use xlink:href="#STIXGeneral-Regular-74" x="138.899963"/>
     <use xlink:href="#STIXGeneral-Regular-61" x="166.699951"/>
     <use xlink:href="#STIXGeneral-Regular-6e" x="211.099945"/>
     <use xlink:href="#STIXGeneral-Regular-63" x="261.09993"/>
     <use xlink:href="#STIXGeneral-Regular-65" x="305.499924"/>
     <use xlink:href="#STIXGeneral-Regular-20" x="349.899918"/>
     <use xlink:href="#STIXGeneral-Regular-62" x="374.899902"/>
     <use xlink:href="#STIXGeneral-Regular-65" x="424.899887"/>
     <use xlink:href="#STIXGeneral-Regular-74" x="469.299881"/>
     <use xlink:href="#STIXGeneral-Regular-77" x="497.099869"/>
     <use xlink:href="#STIXGeneral-Regular-65" x="569.29985"/>
     <use xlink:href="#STIXGeneral-Regular-65" x="613.699844"/>
     <use xlink:href="#STIXGeneral-Regular-6e" x="658.099838"/>
     <use xlink:href="#STIXGeneral-Regular-20" x="708.099823"/>
     <use xlink:href="#STIXGeneral-Regular-45" x="733.099808"/>
     <use xlink:href="#STIXGeneral-Regular-61" x="794.199799"/>
     <use xlink:href="#STIXGeneral-Regular-73" x="838.599792"/>
     <use xlink:href="#STIXGeneral-Regular-74" x="877.499786"/>
     <use xlink:href="#STIXGeneral-Regular-20" x="905.299774"/>
     <use xlink:href="#STIXGeneral-Regular-52" x="930.299759"/>
     <use xlink:href="#STIXGeneral-Regular-69" x="996.999756"/>
     <use xlink:href="#STIXGeneral-Regular-64" x="1024.799744"/>
     <use xlink:href="#STIXGeneral-Regular-69" x="1074.799728"/>
     <use xlink:href="#STIXGeneral-Regular-6e" x="1102.599716"/>
     <use xlink:href="#STIXGeneral-Regular-67" x="1152.599701"/>
     <use xlink:href="#STIXGeneral-Regular-20" x="1202.599686"/>
     <use xlink:href="#STIXGeneral-Regular-6f" x="1227.59967"/>
     <use xlink:href="#STIXGeneral-Regular-66" x="1277.599655"/>
     <use xlink:href="#STIXGeneral-Regular-20" x="1310.899643"/>
     <use xlink:href="#STIXGeneral-Regular-59" x="1335.899628"/>
     <use xlink:href="#STIXGeneral-Regular-6f" x="1408.099609"/>
     <use xlink:href="#STIXGeneral-Regular-72" x="1458.099594"/>
     <use xlink:href="#STIXGeneral-Regular-6b" x="1491.399582"/>
     <use xlink:href="#STIXGeneral-Regular-73" x="1541.399567"/>
     <use xlink:href="#STIXGeneral-Regular-68" x="1580.299561"/>
     <use xlink:href="#STIXGeneral-Regular-69" x="1630.299545"/>
     <use xlink:href="#STIXGeneral-Regular-72" x="1658.099533"/>
     <use xlink:href="#STIXGeneral-Regular-65" x="1691.399521"/>
     <use xlink:href="#STIXGeneral-Regular-20" x="1735.799515"/>
     <use xlink:href="#STIXGeneral-Regular-61" x="1760.7995"/>
     <use xlink:href="#STIXGeneral-Regular-6e" x="1805.199493"/>
     <use xlink:href="#STIXGeneral-Regular-64" x="1855.199478"/>
     <use xlink:href="#STIXGeneral-Regular-20" x="1905.199463"/>
     <use xlink:href="#STIXGeneral-Regular-53" x="1930.199448"/>
     <use xlink:href="#STIXGeneral-Regular-74" x="1985.799438"/>
     <use xlink:href="#STIXGeneral-Regular-61" x="2013.599426"/>
     <use xlink:href="#STIXGeneral-Regular-66" x="2057.99942"/>
     <use xlink:href="#STIXGeneral-Regular-66" x="2091.299408"/>
     <use xlink:href="#STIXGeneral-Regular-6f" x="2124.599396"/>
     <use xlink:href="#STIXGeneral-Regular-72" x="2174.59938"/>
     <use xlink:href="#STIXGeneral-Regular-64" x="2207.899368"/>
     <use xlink:href="#STIXGeneral-Regular-20" x="2257.899353"/>
     <use xlink:href="#STIXGeneral-Regular-69" x="2282.899338"/>
     <use xlink:href="#STIXGeneral-Regular-73" x="2310.699326"/>
     <use xlink:href="#STIXGeneral-Regular-20" x="2349.599319"/>
     <use xlink:href="#STIXGeneral-Regular-31" x="2374.599304"/>
     <use xlink:href="#STIXGeneral-Regular-36" x="2424.599289"/>
     <use xlink:href="#STIXGeneral-Regular-30" x="2474.599274"/>
     <use xlink:href="#STIXGeneral-Regular-20" x="2524.599258"/>
     <use xlink:href="#STIXGeneral-Regular-6b" x="2549.599243"/>
     <use xlink:href="#STIXGeneral-Regular-6d" x="2599.599228"/>
     <use xlink:href="#STIXGeneral-Regular-2e" x="2677.399216"/>
    </g>
   </g>
  </g>
 </g>
 <defs>
  <clipPath id="p3fd6571624">
   <rect x="7.2" y="24.145" width="540.289936" height="554.4"/>
  </clipPath>
 </defs>
</svg>
