<?xml version="1.0" encoding="utf-8" standalone="no"?>
<!DOCTYPE svg PUBLIC "-//W3C//DTD SVG 1.1//EN"
  "http://www.w3.org/Graphics/SVG/1.1/DTD/svg11.dtd">
<svg height="467.08pt" version="1.1" viewBox="0 0 564.85869 467.08" width="564.85869pt" xmlns="http://www.w3.org/2000/svg" xmlns:xlink="http://www.w3.org/1999/xlink">
 <metadata>
  <rdf:RDF xmlns:cc="http://creativecommons.org/ns#" xmlns:dc="http://purl.org/dc/elements/1.1/" xmlns:rdf="http://www.w3.org/1999/02/22-rdf-syntax-ns#">
   <cc:Work>
    <dc:type rdf:resource="http://purl.org/dc/dcmitype/StillImage"/>
    <dc:date>2022-08-20T18:00:40.188790</dc:date>
    <dc:format>image/svg+xml</dc:format>
    <dc:creator>
     <cc:Agent>
      <dc:title>Matplotlib v3.4.3, https://matplotlib.org/</dc:title>
     </cc:Agent>
    </dc:creator>
   </cc:Work>
  </rdf:RDF>
 </metadata>
 <defs>
  <style type="text/css">*{stroke-linecap:butt;stroke-linejoin:round;}</style>
 </defs>
 <g id="figure_1">
  <g id="patch_1">
   <path d="M 0 467.08 
L 564.85869 467.08 
L 564.85869 0 
L 0 0 
z
" style="fill:none;"/>
  </g>
  <g id="axes_1">
   <g id="patch_2">
    <path d="M 34.48 442.08 
L 557.65869 442.08 
L 557.65869 7.2 
L 34.48 7.2 
z
" style="fill:#ffffff;"/>
   </g>
   <g id="PatchCollection_1">
    <path clip-path="url(#p9e59d1a4f1)" d="M 346.439346 72.203359 
L 346.333527 73.004382 
L 346.410522 73.239069 
L 346.556615 73.40263 
L 346.624529 73.58244 
L 346.746931 75.719389 
L 346.723635 75.88961 
L 346.229288 76.747906 
L 346.117942 76.999907 
L 346.093461 78.063853 
L 346.010149 78.349686 
L 345.834837 78.631522 
L 345.521724 79.543095 
L 345.249675 79.953063 
L 344.509339 79.453057 
L 344.07264 79.237018 
L 343.858633 79.00393 
L 343.718858 78.843033 
L 343.808883 78.628592 
L 344.007885 78.405627 
L 344.039473 78.230345 
L 343.571185 78.031621 
L 343.356784 77.89896 
L 343.359548 77.666672 
L 343.521435 77.304387 
L 343.447599 77.005768 
L 343.177524 77.020952 
L 342.968256 76.9754 
L 342.941011 76.820363 
L 343.095791 76.621639 
L 343.294398 76.362179 
L 343.288081 76.075814 
L 343.048015 75.952477 
L 342.830454 75.719922 
L 342.743193 75.403722 
L 342.911793 75.187416 
L 343.185026 75.04783 
L 342.984444 74.723905 
L 342.849012 74.716712 
L 342.740824 74.645854 
L 342.82927 74.495345 
L 343.041697 74.270249 
L 343.337042 73.598157 
L 343.748471 73.280891 
L 344.476567 73.076839 
L 344.673595 72.9876 
L 344.854435 72.751316 
L 345.054622 72.598943 
L 345.297847 72.619188 
L 345.522119 72.710559 
L 345.660315 72.80779 
L 345.76416 72.706563 
L 345.86524 72.413538 
L 345.803249 72.156209 
L 345.835232 71.448421 
L 345.965531 71.046977 
L 346.175984 71.024601 
L 346.370248 71.245435 
L 346.360377 71.440696 
L 346.432239 71.902876 
L 346.439346 72.203359 
" style="fill:#bc80bd;stroke:#000000;stroke-width:0.2;"/>
    <path clip-path="url(#p9e59d1a4f1)" d="M 338.899763 46.085802 
L 338.411734 46.333275 
L 338.300387 46.549847 
L 338.108887 46.836212 
L 337.798143 46.956618 
L 337.48503 46.996576 
L 337.231934 46.958749 
L 337.087815 46.844203 
L 337.094923 46.737649 
L 336.960675 46.647078 
L 336.626635 46.649741 
L 336.282724 46.846867 
L 336.007912 47.168662 
L 336.093198 47.348739 
L 336.346295 47.396155 
L 336.413024 47.467547 
L 336.413024 47.559983 
L 336.323788 47.671598 
L 336.216785 47.861798 
L 335.685717 48.4292 
L 335.149517 49.001664 
L 335.063835 49.174815 
L 334.893656 49.295754 
L 334.212152 49.601299 
L 334.140685 49.723837 
L 334.10199 50.234499 
L 334.025785 50.653791 
L 333.520382 51.048575 
L 333.017349 51.441494 
L 332.891788 51.681775 
L 332.800183 51.959615 
L 332.642245 52.273418 
L 332.611052 52.43911 
L 332.865728 52.709492 
L 332.836114 52.93299 
L 332.755171 53.250789 
L 332.513525 53.476151 
L 332.246215 53.60375 
L 332.252137 53.950052 
L 332.394282 53.998534 
L 332.717661 53.972961 
L 333.173708 53.721759 
L 333.471027 53.398899 
L 333.295715 53.092289 
L 333.273998 53.032352 
L 333.316247 52.960428 
L 333.668844 52.627179 
L 334.101596 52.426324 
L 334.705315 52.38903 
L 335.432621 52.506772 
L 335.505273 52.556587 
L 335.470132 52.760905 
L 335.538045 53.062187 
L 335.669924 53.273698 
L 335.489084 53.874132 
L 335.624911 54.062201 
L 335.836549 54.287297 
L 335.995277 54.492681 
L 336.223498 54.681548 
L 336.426448 54.999613 
L 336.495941 55.179957 
L 336.171378 55.493227 
L 335.620173 55.786784 
L 335.558182 55.974853 
L 335.565289 56.188761 
L 335.62728 56.357117 
L 335.931312 56.573422 
L 336.258639 57.063306 
L 336.465933 57.500179 
L 336.920401 57.919205 
L 337.030957 58.043341 
L 337.002529 58.14803 
L 336.88289 58.326509 
L 336.727321 58.921616 
L 336.541743 59.016183 
L 336.334844 59.054542 
L 335.772978 59.490616 
L 335.522646 59.437872 
L 335.166495 59.443466 
L 334.905502 59.587048 
L 334.933931 59.858762 
L 335.162941 60.1073 
L 335.297584 60.377948 
L 335.352073 60.659518 
L 335.606353 60.868099 
L 335.963294 60.992767 
L 336.167429 61.001292 
L 336.300887 61.076146 
L 336.381041 61.172844 
L 336.534636 61.776209 
L 336.442637 61.927516 
L 336.250347 61.991982 
L 336.135447 62.240253 
L 335.906041 62.606268 
L 335.775742 62.900092 
L 335.919861 63.158753 
L 335.981457 63.350284 
L 335.904462 63.54741 
L 336.007122 63.854553 
L 336.278381 64.1585 
L 337.014769 64.585783 
L 337.698642 64.933417 
L 337.910279 64.991223 
L 338.834219 64.767725 
L 338.987024 64.786904 
L 339.099555 65.053291 
L 339.148516 65.232568 
L 339.044672 65.502684 
L 338.794734 65.874825 
L 338.52387 66.171313 
L 338.359614 66.423314 
L 338.393966 66.65214 
L 338.404626 66.956619 
L 338.184302 67.047723 
L 338.177195 66.98752 
L 338.086381 66.936107 
L 338.007806 66.966475 
L 337.947395 67.032539 
L 337.937919 67.149749 
L 337.468052 67.344211 
L 337.144278 67.545865 
L 335.863793 68.750463 
L 335.264812 69.103691 
L 335.146753 69.316533 
L 335.024745 69.714248 
L 334.672938 70.055755 
L 334.364958 70.21825 
L 333.602115 70.385008 
L 332.836114 70.747027 
L 332.491019 70.590925 
L 331.597088 70.607707 
L 331.039565 70.171633 
L 329.967954 69.895124 
L 329.61891 69.26006 
L 329.13088 69.21877 
L 328.811055 69.23795 
L 328.61995 69.141784 
L 328.570199 68.925212 
L 328.565856 68.716632 
L 328.227078 68.812531 
L 327.968059 68.812531 
L 327.813674 68.896176 
L 327.691667 68.992608 
L 327.547548 68.931073 
L 327.463841 68.951851 
L 327.471343 69.074655 
L 327.160204 69.105289 
L 326.823006 69.029902 
L 325.937761 68.701981 
L 325.801934 68.6519 
L 325.187554 68.5251 
L 324.939196 68.394038 
L 324.738219 68.070113 
L 324.584624 67.967554 
L 324.49381 67.906286 
L 323.920493 68.069847 
L 323.721491 68.324778 
L 323.410747 68.623397 
L 321.284502 70.087721 
L 320.896368 70.701208 
L 320.447034 71.60479 
L 320.411892 72.026213 
L 320.605367 73.37386 
L 321.037723 74.081381 
L 321.092607 74.245209 
L 320.852935 74.246008 
L 320.450587 74.157568 
L 320.116548 74.04835 
L 319.798697 74.109352 
L 319.492296 74.255598 
L 319.224591 74.344038 
L 319.032301 74.368812 
L 318.903581 74.453256 
L 318.841985 74.621879 
L 318.82935 74.739888 
L 318.490967 74.710852 
L 317.708382 74.468174 
L 317.004767 74.300884 
L 316.592153 74.491083 
L 316.326816 74.668763 
L 316.140054 74.641591 
L 315.998305 74.454588 
L 315.903147 74.271581 
L 315.627544 74.103758 
L 315.006057 73.85149 
L 315.038039 73.729752 
L 315.144253 73.560064 
L 315.141094 73.455374 
L 315.021456 73.299805 
L 314.448534 73.133047 
L 314.17846 73.090958 
L 314.006702 73.20577 
L 313.883115 73.346422 
L 313.56408 72.829367 
L 313.337043 72.724144 
L 312.993527 72.706829 
L 312.600655 72.549129 
L 312.19199 72.347741 
L 311.198952 72.025414 
L 310.925719 71.986788 
L 310.816347 72.037934 
L 310.7433 72.230531 
L 310.703816 72.775024 
L 310.661962 72.835227 
L 310.201177 72.853342 
L 309.633388 72.777688 
L 309.373185 72.815248 
L 309.141015 72.817113 
L 308.922271 72.672998 
L 307.941671 72.837891 
L 307.7786 72.757443 
L 307.541889 72.511568 
L 307.277935 72.313111 
L 307.072813 72.211351 
L 306.897896 72.094674 
L 306.739168 72.075761 
L 306.497127 72.188708 
L 306.162693 72.236658 
L 305.885116 72.222007 
L 305.737049 72.238522 
L 305.115364 71.635424 
L 305.024549 71.470265 
L 304.71499 71.424447 
L 304.332384 71.417254 
L 303.355536 71.026466 
L 302.910742 70.816554 
L 302.845592 70.691885 
L 302.851712 70.590925 
L 302.775704 70.612768 
L 302.638693 70.791247 
L 302.566831 70.936694 
L 302.471673 70.963865 
L 302.331305 70.941222 
L 302.201598 70.859442 
L 302.122234 70.753686 
L 302.207324 70.569081 
L 302.35618 70.328268 
L 302.417974 70.06641 
L 302.404352 69.831991 
L 302.157573 69.681482 
L 301.79471 69.618615 
L 301.529176 69.600767 
L 301.182698 69.466775 
L 301.019232 69.370343 
L 300.859714 69.109285 
L 300.854384 68.919618 
L 301.511802 68.752061 
L 302.104466 68.066117 
L 302.665937 65.57594 
L 303.072234 62.631841 
L 303.374291 62.075627 
L 303.753738 61.922721 
L 303.446745 61.518081 
L 303.254652 61.722932 
L 303.174104 61.940303 
L 303.073418 62.048988 
L 303.300455 59.349698 
L 303.462144 58.361406 
L 303.737352 57.325963 
L 304.300402 57.736997 
L 304.76711 58.153891 
L 305.008361 58.515643 
L 305.313774 59.720774 
L 305.544759 59.973574 
L 305.890446 60.22744 
L 305.75383 59.950399 
L 305.515935 59.738622 
L 305.14399 58.132314 
L 304.910834 57.677326 
L 304.547378 57.294529 
L 303.377647 56.488445 
L 303.27242 56.332876 
L 303.215957 56.024933 
L 303.602512 56.037986 
L 303.936551 56.187695 
L 303.897067 56.015343 
L 303.79796 55.835266 
L 303.642786 55.182354 
L 303.513474 53.65756 
L 303.531045 53.396502 
L 303.473397 53.076306 
L 303.099281 53.004648 
L 302.800185 52.991595 
L 302.47799 52.865062 
L 300.884787 51.966275 
L 300.339308 51.038985 
L 299.781588 50.354373 
L 299.647735 50.055754 
L 299.656619 49.753139 
L 299.945251 49.114079 
L 299.690378 48.710504 
L 299.44123 48.630322 
L 299.224855 48.430532 
L 299.420896 48.097816 
L 299.58377 47.884974 
L 299.91011 47.826902 
L 300.338123 47.897494 
L 300.744222 48.090091 
L 301.062665 48.141237 
L 300.121155 47.624448 
L 298.594286 47.798665 
L 298.265182 47.732068 
L 297.987408 47.616989 
L 297.878628 47.237656 
L 298.095793 47.066636 
L 298.292426 46.750435 
L 298.069931 46.528269 
L 297.781496 46.444091 
L 297.3292 46.448886 
L 296.907109 46.516016 
L 296.800106 46.388417 
L 297.057546 46.036254 
L 296.838801 45.906791 
L 296.54701 45.96726 
L 296.123735 46.04025 
L 295.71882 45.9297 
L 295.336215 45.529588 
L 295.082526 45.532518 
L 294.908202 45.5818 
L 294.649775 45.427828 
L 294.377726 45.389202 
L 294.183462 45.440349 
L 293.925233 45.210724 
L 292.335781 44.750142 
L 291.649341 44.693935 
L 291.019759 44.902515 
L 290.673282 44.830058 
L 290.418606 44.532505 
L 290.204797 44.033297 
L 289.190635 43.648369 
L 289.391217 43.395835 
L 289.863453 43.336165 
L 290.40755 43.161149 
L 290.603197 42.936586 
L 290.177948 42.674728 
L 289.864243 42.610529 
L 289.734338 42.516495 
L 289.60167 42.281542 
L 289.789617 42.174189 
L 289.922087 42.231195 
L 290.304496 42.265026 
L 290.95915 42.207221 
L 290.715135 41.970403 
L 290.461842 41.917659 
L 290.34556 41.858255 
L 289.813307 41.832682 
L 289.571069 41.913397 
L 289.026577 41.882762 
L 288.908715 41.627032 
L 288.852252 41.40753 
L 289.021049 40.918445 
L 289.787445 40.481572 
L 291.697117 40.003941 
L 292.518792 40.073735 
L 293.088357 39.987692 
L 293.770848 39.686676 
L 294.072116 39.428814 
L 295.042647 39.276707 
L 295.965402 39.550286 
L 296.8159 40.584663 
L 297.222394 40.935227 
L 298.217603 40.327068 
L 299.700447 40.344916 
L 300.00665 40.688287 
L 300.130237 40.398992 
L 300.402878 40.060682 
L 300.62024 40.214919 
L 300.730402 40.424032 
L 302.295374 40.364628 
L 302.542745 40.303626 
L 302.122234 40.058018 
L 301.778521 39.469305 
L 301.707251 37.304118 
L 301.27371 36.699688 
L 300.776007 35.734305 
L 300.546996 35.161575 
L 300.525477 34.96365 
L 300.602077 34.677818 
L 301.213891 34.693268 
L 301.686522 34.765725 
L 302.586178 34.549686 
L 303.019127 34.697531 
L 302.993659 35.144526 
L 303.125735 35.708466 
L 303.276566 35.981511 
L 303.504787 36.292118 
L 304.230119 36.263348 
L 305.012901 36.445822 
L 306.00199 36.474059 
L 307.447126 36.789194 
L 308.062889 36.60672 
L 308.658514 36.217796 
L 309.793696 35.962065 
L 309.884116 35.826741 
L 309.230645 35.880818 
L 308.631269 35.63441 
L 308.550326 35.366692 
L 308.619819 35.126412 
L 308.863044 34.572862 
L 310.599576 33.700447 
L 311.844526 33.442586 
L 313.143963 32.962292 
L 313.797828 32.469744 
L 314.22979 31.83388 
L 314.368776 31.694027 
L 314.548036 31.576818 
L 314.381411 31.349057 
L 314.494337 28.919616 
L 314.615949 28.481944 
L 314.86944 28.124454 
L 315.255205 27.847945 
L 315.840761 27.548261 
L 317.99662 27.134297 
L 318.31684 26.967273 
L 318.361852 27.226999 
L 318.518606 27.559449 
L 318.626399 27.741124 
L 318.536769 27.978474 
L 318.607447 28.174002 
L 318.900027 28.525898 
L 319.264865 28.857548 
L 319.589823 29.069592 
L 319.681427 29.046416 
L 319.922283 28.986213 
L 320.330159 28.768842 
L 320.669727 28.700381 
L 320.863991 28.866872 
L 320.973758 28.960906 
L 321.187765 29.335978 
L 321.247781 29.727565 
L 321.342939 30.052823 
L 321.516276 30.184684 
L 322.166193 30.227838 
L 322.645141 30.348511 
L 322.771887 30.45773 
L 322.935748 31.180701 
L 323.024983 31.282994 
L 323.144226 31.19775 
L 323.262285 31.078676 
L 323.426146 31.059762 
L 323.707277 31.105581 
L 324.077642 31.119965 
L 324.459458 31.199615 
L 324.986972 31.607985 
L 324.966835 31.742776 
L 324.86378 31.979327 
L 324.827849 32.168195 
L 324.918664 32.244115 
L 325.058044 32.439109 
L 325.024483 32.664472 
L 324.888656 32.822439 
L 324.834167 32.952702 
L 324.834956 33.037412 
L 324.884707 33.107738 
L 324.992895 33.16954 
L 325.771926 33.252919 
L 326.484623 33.16954 
L 326.933957 32.939382 
L 327.010558 32.696971 
L 327.138093 32.423126 
L 327.405798 32.194034 
L 327.590981 32.117049 
L 327.76037 32.211349 
L 327.475291 33.173269 
L 327.683375 33.419144 
L 327.714173 33.786757 
L 327.788799 34.108551 
L 328.043474 34.102424 
L 328.352244 34.161828 
L 328.570989 34.280903 
L 328.826059 34.472168 
L 329.193661 34.647983 
L 329.451495 34.709784 
L 329.545074 34.856829 
L 329.753552 35.026784 
L 330.081669 35.383208 
L 330.375435 35.621091 
L 330.517184 35.620292 
L 330.790812 35.526524 
L 331.196714 35.466587 
L 331.517329 35.471649 
L 331.653551 35.652791 
L 331.968638 35.736436 
L 332.079984 35.803033 
L 332.203571 35.927968 
L 332.413629 35.978048 
L 332.66712 35.927968 
L 332.852303 35.76121 
L 333.099477 35.686356 
L 333.34665 35.711396 
L 333.488795 35.803033 
L 333.759659 35.938357 
L 333.912859 35.908788 
L 334.219654 35.992167 
L 334.527634 36.25509 
L 334.657144 36.519611 
L 334.691101 36.664259 
L 334.824164 36.821427 
L 335.341017 37.532145 
L 335.506062 37.567308 
L 335.685717 37.459421 
L 335.802197 37.306516 
L 335.970796 37.276148 
L 336.242055 37.346474 
L 336.416577 37.426922 
L 336.500285 37.734865 
L 336.559117 37.79347 
L 336.676386 37.72714 
L 336.885259 37.712488 
L 337.218904 37.788408 
L 337.677715 37.701566 
L 338.044922 37.573168 
L 338.232474 37.577963 
L 338.53532 37.937052 
L 338.880811 38.07131 
L 339.642074 38.179729 
L 340.45901 38.348618 
L 340.78002 38.485274 
L 340.999159 38.552404 
L 341.02127 39.027903 
L 340.955331 39.099561 
L 340.141554 40.052956 
L 339.798827 40.393931 
L 339.624306 40.880618 
L 339.504272 41.627032 
L 339.263811 42.336152 
L 338.903712 43.00851 
L 338.772623 43.513045 
L 338.870939 43.849757 
L 338.809344 44.378534 
L 338.58823 45.098842 
L 338.551114 45.643068 
L 338.696812 46.010415 
L 338.899763 46.085802 
" style="fill:#bc80bd;stroke:#000000;stroke-width:0.2;"/>
    <path clip-path="url(#p9e59d1a4f1)" d="M 303.343888 55.298498 
L 303.201348 55.775596 
L 302.931668 55.336325 
L 302.574135 54.951397 
L 302.4926 54.595239 
L 302.493389 54.500139 
L 302.912321 54.760399 
L 303.343888 55.298498 
" style="fill:#bc80bd;stroke:#000000;stroke-width:0.2;"/>
    <path clip-path="url(#p9e59d1a4f1)" d="M 490.781987 376.527885 
L 490.528496 376.572638 
L 490.407673 376.428257 
L 490.333837 376.085151 
L 490.410042 375.754833 
L 490.431364 375.487914 
L 490.225254 375.024935 
L 490.426626 374.761745 
L 490.597989 375.068089 
L 490.695121 375.088868 
L 490.955324 375.302509 
L 490.879119 375.696228 
L 490.896492 375.825159 
L 490.778433 376.21941 
L 490.781987 376.527885 
" style="fill:#bc80bd;stroke:#000000;stroke-width:0.2;"/>
    <path clip-path="url(#p9e59d1a4f1)" d="M 533.709241 422.150765 
L 533.138294 422.312727 
L 532.739894 422.254122 
L 531.951782 421.792209 
L 531.740145 421.485332 
L 531.426637 420.617979 
L 531.49613 420.312701 
L 531.744093 419.776199 
L 532.306748 419.563623 
L 532.897043 419.642473 
L 533.16159 419.78792 
L 533.473913 420.416591 
L 533.87784 421.055385 
L 533.810717 421.815118 
L 533.709241 422.150765 
" style="fill:#bc80bd;stroke:#000000;stroke-width:0.2;"/>
    <path clip-path="url(#p9e59d1a4f1)" d="M 62.17397 226.656143 
L 62.132116 226.967548 
L 62.029062 227.028284 
L 61.87823 226.769091 
L 61.213902 226.805586 
L 61.112229 226.57383 
L 61.106307 226.464079 
L 61.425737 226.070094 
L 61.049844 225.964605 
L 60.900987 225.79465 
L 60.583136 224.965391 
L 60.608998 224.724311 
L 60.740482 224.596979 
L 60.956463 224.578598 
L 61.361969 224.846582 
L 61.663434 225.228047 
L 61.766094 225.233908 
L 61.800446 225.342061 
L 61.73964 225.610311 
L 61.919689 225.837539 
L 61.997277 226.005628 
L 62.17397 226.656143 
" style="fill:#bc80bd;stroke:#000000;stroke-width:0.2;"/>
    <path clip-path="url(#p9e59d1a4f1)" d="M 60.148805 217.185585 
L 59.673016 217.246321 
L 59.360298 217.198638 
L 59.288239 216.808116 
L 59.447559 216.477531 
L 59.333054 216.076087 
L 59.40689 215.836606 
L 59.566408 215.678639 
L 59.82819 215.887752 
L 59.869847 216.18717 
L 60.0343 216.461281 
L 60.773649 217.045466 
L 60.148805 217.185585 
" style="fill:#bc80bd;stroke:#000000;stroke-width:0.2;"/>
    <path clip-path="url(#p9e59d1a4f1)" d="M 59.087854 218.404834 
L 58.760724 218.649643 
L 58.599825 218.573989 
L 58.40102 218.104084 
L 58.26085 216.800657 
L 58.369827 216.585151 
L 58.447019 216.504436 
L 58.877796 216.664267 
L 59.057649 216.848607 
L 59.238291 216.964751 
L 59.146489 217.203433 
L 59.191699 218.182135 
L 59.087854 218.404834 
" style="fill:#bc80bd;stroke:#000000;stroke-width:0.2;"/>
    <path clip-path="url(#p9e59d1a4f1)" d="M 60.539703 219.043095 
L 60.314246 219.064406 
L 60.215139 219.017256 
L 60.184144 218.688802 
L 60.358469 218.463173 
L 60.460734 218.408297 
L 60.612947 218.661364 
L 60.649075 218.872342 
L 60.539703 219.043095 
" style="fill:#bc80bd;stroke:#000000;stroke-width:0.2;"/>
    <path clip-path="url(#p9e59d1a4f1)" d="M 87.28242 293.038224 
L 87.329012 292.988942 
L 87.475894 292.951915 
L 87.607181 292.947919 
L 87.810921 292.550737 
L 88.148712 292.302998 
L 88.736045 290.927114 
L 88.983614 290.358912 
L 89.013622 290.04804 
L 89.083904 289.400189 
L 88.952816 288.61142 
L 89.013819 288.390053 
L 89.51863 287.437723 
L 89.7354 286.91827 
L 89.75001 286.471008 
L 89.812593 286.148947 
L 89.750207 285.980591 
L 89.635702 285.931576 
L 89.442622 285.513882 
L 89.318048 285.16758 
L 88.975717 284.813021 
L 88.740981 284.449404 
L 88.356006 283.61455 
L 88.390752 283.14571 
L 88.281578 282.977088 
L 88.163321 282.805002 
L 88.172008 282.592693 
L 88.092052 282.067646 
L 87.992353 281.574565 
L 87.956225 281.263692 
L 88.051382 280.729055 
L 87.99413 280.134482 
L 87.869161 279.821744 
L 87.834612 279.345979 
L 87.860277 278.919495 
L 87.96728 278.678948 
L 87.945761 278.380596 
L 88.433198 277.431729 
L 88.802972 276.881641 
L 89.143526 276.495648 
L 89.429197 276.207418 
L 89.816146 274.766003 
L 90.097869 274.258804 
L 90.392029 274.186613 
L 91.979902 275.380023 
L 92.724187 275.490307 
L 94.224404 276.135227 
L 94.767514 276.96209 
L 96.025098 278.337708 
L 96.685873 278.769519 
L 96.692388 279.12994 
L 96.548072 279.704002 
L 96.971149 279.202663 
L 97.625606 279.995961 
L 97.810789 280.385417 
L 98.01453 281.103328 
L 97.94405 281.564442 
L 97.85363 281.802591 
L 97.848694 281.98773 
L 98.043353 281.732532 
L 98.152923 281.530345 
L 98.185695 281.049252 
L 98.344621 280.45228 
L 98.557838 280.441625 
L 98.727227 280.79725 
L 99.079034 282.344953 
L 99.211703 282.66142 
L 99.26244 283.152636 
L 99.242895 283.372405 
L 99.265402 283.575391 
L 99.140433 283.693133 
L 98.802247 283.949663 
L 98.647863 284.291969 
L 98.558035 284.621223 
L 98.34778 284.844987 
L 98.147988 285.126557 
L 98.085602 285.35485 
L 97.898445 285.53546 
L 97.862514 285.83621 
L 97.391068 286.897758 
L 97.203121 287.375655 
L 96.932849 287.88312 
L 96.763855 288.071722 
L 96.534845 288.373803 
L 96.418562 288.723036 
L 96.418562 289.083989 
L 96.25786 289.516866 
L 96.168822 289.889807 
L 96.017399 290.106378 
L 95.617815 291.287534 
L 95.598467 291.69404 
L 95.50331 291.935385 
L 95.219613 292.498259 
L 95.027718 292.836836 
L 94.693086 293.090435 
L 94.341278 293.366145 
L 94.207623 293.666895 
L 93.959462 293.819534 
L 93.77803 293.82939 
L 93.48466 293.720438 
L 93.089222 293.66796 
L 92.888245 293.703123 
L 92.797628 293.553681 
L 92.662985 293.210309 
L 92.465168 292.967365 
L 92.337435 293.052076 
L 92.071309 293.296352 
L 91.75938 293.439934 
L 91.537082 293.391984 
L 91.053001 293.222829 
L 90.846694 293.137586 
L 90.784308 292.993204 
L 90.713039 292.885052 
L 90.606036 292.933268 
L 90.463299 293.113611 
L 90.272983 293.302745 
L 89.990668 293.552082 
L 89.411232 293.999877 
L 89.24816 294.160508 
L 89.097329 294.073134 
L 88.852327 293.984427 
L 88.589163 293.979366 
L 88.022953 293.688739 
L 87.69148 293.481757 
L 87.548349 293.22203 
L 87.380737 293.109082 
L 87.28242 293.038224 
" style="fill:#bc80bd;stroke:#000000;stroke-width:0.2;"/>
   </g>
   <g id="PathCollection_1">
    <defs>
     <path d="M 0 3 
C 0.795609 3 1.55874 2.683901 2.12132 2.12132 
C 2.683901 1.55874 3 0.795609 3 0 
C 3 -0.795609 2.683901 -1.55874 2.12132 -2.12132 
C 1.55874 -2.683901 0.795609 -3 0 -3 
C -0.795609 -3 -1.55874 -2.683901 -2.12132 -2.12132 
C -2.683901 -1.55874 -3 -0.795609 -3 0 
C -3 0.795609 -2.683901 1.55874 -2.12132 2.12132 
C -1.55874 2.683901 -0.795609 3 0 3 
z
" id="md7622883a3" style="stroke:#ff0000;stroke-width:0.2;"/>
    </defs>
    <g clip-path="url(#p9e59d1a4f1)">
     <use style="fill:#ff0000;stroke:#ff0000;stroke-width:0.2;" x="296.941812" xlink:href="#md7622883a3" y="75.65118"/>
    </g>
   </g>
   <g id="matplotlib.axis_1">
    <g id="xtick_1">
     <g id="line2d_1">
      <defs>
       <path d="M 0 0 
L 0 3.5 
" id="m0ace4d4bb2" style="stroke:#323034;stroke-width:0.8;"/>
      </defs>
      <g>
       <use style="fill:#323034;stroke:#323034;stroke-width:0.8;" x="65.514761" xlink:href="#m0ace4d4bb2" y="442.08"/>
      </g>
     </g>
     <g id="text_1">
      <!-- $\mathdefault{−60}$ -->
      <g style="fill:#323034;" transform="translate(55.374761 457.275625)scale(0.12 -0.12)">
       <defs>
        <path d="M 3974 1408 
L 410 1408 
L 410 1830 
L 3974 1830 
L 3974 1408 
z
" id="STIXGeneral-Regular-2212" transform="scale(0.015625)"/>
        <path d="M 2854 4378 
L 2867 4275 
Q 2112 4154 1606 3664 
Q 1101 3174 973 2451 
Q 1344 2739 1786 2739 
Q 2349 2739 2672 2380 
Q 2995 2022 2995 1402 
Q 2995 774 2669 378 
Q 2291 -90 1651 -90 
Q 870 -90 518 557 
Q 218 1107 218 1786 
Q 218 2835 915 3552 
Q 1312 3962 1731 4131 
Q 2150 4301 2854 4378 
z
M 2419 1203 
Q 2419 2445 1555 2445 
Q 1235 2445 1024 2275 
Q 813 2106 813 1702 
Q 813 954 1046 522 
Q 1280 90 1722 90 
Q 2061 90 2240 394 
Q 2419 698 2419 1203 
z
" id="STIXGeneral-Regular-36" transform="scale(0.015625)"/>
        <path d="M 3046 2112 
Q 3046 1683 2963 1302 
Q 2880 922 2717 602 
Q 2554 282 2266 96 
Q 1978 -90 1600 -90 
Q 1210 -90 915 108 
Q 621 307 461 640 
Q 301 973 227 1350 
Q 154 1728 154 2150 
Q 154 2746 301 3222 
Q 448 3699 790 4012 
Q 1133 4326 1626 4326 
Q 2253 4326 2649 3712 
Q 3046 3098 3046 2112 
z
M 2432 2080 
Q 2432 3091 2217 3625 
Q 2003 4160 1587 4160 
Q 1190 4160 979 3622 
Q 768 3085 768 2106 
Q 768 1120 979 598 
Q 1190 77 1600 77 
Q 2003 77 2217 598 
Q 2432 1120 2432 2080 
z
" id="STIXGeneral-Regular-30" transform="scale(0.015625)"/>
       </defs>
       <use transform="translate(0 0.59375)" xlink:href="#STIXGeneral-Regular-2212"/>
       <use transform="translate(68.499985 0.59375)" xlink:href="#STIXGeneral-Regular-36"/>
       <use transform="translate(118.499969 0.59375)" xlink:href="#STIXGeneral-Regular-30"/>
      </g>
     </g>
    </g>
    <g id="xtick_2">
     <g id="line2d_2">
      <g>
       <use style="fill:#323034;stroke:#323034;stroke-width:0.8;" x="146.379207" xlink:href="#m0ace4d4bb2" y="442.08"/>
      </g>
     </g>
     <g id="text_2">
      <!-- $\mathdefault{−40}$ -->
      <g style="fill:#323034;" transform="translate(136.239207 457.275625)scale(0.12 -0.12)">
       <defs>
        <path d="M 3027 1069 
L 2368 1069 
L 2368 0 
L 1869 0 
L 1869 1069 
L 77 1069 
L 77 1478 
L 2086 4326 
L 2368 4326 
L 2368 1478 
L 3027 1478 
L 3027 1069 
z
M 1869 1478 
L 1869 3674 
L 333 1478 
L 1869 1478 
z
" id="STIXGeneral-Regular-34" transform="scale(0.015625)"/>
       </defs>
       <use transform="translate(0 0.40625)" xlink:href="#STIXGeneral-Regular-2212"/>
       <use transform="translate(68.499985 0.40625)" xlink:href="#STIXGeneral-Regular-34"/>
       <use transform="translate(118.499969 0.40625)" xlink:href="#STIXGeneral-Regular-30"/>
      </g>
     </g>
    </g>
    <g id="xtick_3">
     <g id="line2d_3">
      <g>
       <use style="fill:#323034;stroke:#323034;stroke-width:0.8;" x="227.243653" xlink:href="#m0ace4d4bb2" y="442.08"/>
      </g>
     </g>
     <g id="text_3">
      <!-- $\mathdefault{−20}$ -->
      <g style="fill:#323034;" transform="translate(217.103653 457.275625)scale(0.12 -0.12)">
       <defs>
        <path d="M 3034 877 
L 2688 0 
L 186 0 
L 186 77 
L 1325 1286 
Q 1773 1754 1965 2144 
Q 2157 2534 2157 2950 
Q 2157 3379 1920 3616 
Q 1683 3853 1267 3853 
Q 922 3853 720 3673 
Q 518 3494 326 3021 
L 192 3053 
Q 301 3648 630 3987 
Q 960 4326 1523 4326 
Q 2054 4326 2380 4006 
Q 2707 3686 2707 3200 
Q 2707 2477 1888 1613 
L 832 486 
L 2330 486 
Q 2541 486 2665 569 
Q 2790 653 2944 915 
L 3034 877 
z
" id="STIXGeneral-Regular-32" transform="scale(0.015625)"/>
       </defs>
       <use transform="translate(0 0.40625)" xlink:href="#STIXGeneral-Regular-2212"/>
       <use transform="translate(68.499985 0.40625)" xlink:href="#STIXGeneral-Regular-32"/>
       <use transform="translate(118.499969 0.40625)" xlink:href="#STIXGeneral-Regular-30"/>
      </g>
     </g>
    </g>
    <g id="xtick_4">
     <g id="line2d_4">
      <g>
       <use style="fill:#323034;stroke:#323034;stroke-width:0.8;" x="308.108099" xlink:href="#m0ace4d4bb2" y="442.08"/>
      </g>
     </g>
     <g id="text_4">
      <!-- $\mathdefault{0}$ -->
      <g style="fill:#323034;" transform="translate(305.108099 457.275625)scale(0.12 -0.12)">
       <use transform="translate(0 0.40625)" xlink:href="#STIXGeneral-Regular-30"/>
      </g>
     </g>
    </g>
    <g id="xtick_5">
     <g id="line2d_5">
      <g>
       <use style="fill:#323034;stroke:#323034;stroke-width:0.8;" x="388.972544" xlink:href="#m0ace4d4bb2" y="442.08"/>
      </g>
     </g>
     <g id="text_5">
      <!-- $\mathdefault{20}$ -->
      <g style="fill:#323034;" transform="translate(382.972544 457.275625)scale(0.12 -0.12)">
       <use transform="translate(0 0.40625)" xlink:href="#STIXGeneral-Regular-32"/>
       <use transform="translate(49.999985 0.40625)" xlink:href="#STIXGeneral-Regular-30"/>
      </g>
     </g>
    </g>
    <g id="xtick_6">
     <g id="line2d_6">
      <g>
       <use style="fill:#323034;stroke:#323034;stroke-width:0.8;" x="469.83699" xlink:href="#m0ace4d4bb2" y="442.08"/>
      </g>
     </g>
     <g id="text_6">
      <!-- $\mathdefault{40}$ -->
      <g style="fill:#323034;" transform="translate(463.83699 457.275625)scale(0.12 -0.12)">
       <use transform="translate(0 0.40625)" xlink:href="#STIXGeneral-Regular-34"/>
       <use transform="translate(49.999985 0.40625)" xlink:href="#STIXGeneral-Regular-30"/>
      </g>
     </g>
    </g>
    <g id="xtick_7">
     <g id="line2d_7">
      <g>
       <use style="fill:#323034;stroke:#323034;stroke-width:0.8;" x="550.701436" xlink:href="#m0ace4d4bb2" y="442.08"/>
      </g>
     </g>
     <g id="text_7">
      <!-- $\mathdefault{60}$ -->
      <g style="fill:#323034;" transform="translate(544.701436 457.275625)scale(0.12 -0.12)">
       <use transform="translate(0 0.59375)" xlink:href="#STIXGeneral-Regular-36"/>
       <use transform="translate(49.999985 0.59375)" xlink:href="#STIXGeneral-Regular-30"/>
      </g>
     </g>
    </g>
   </g>
   <g id="matplotlib.axis_2">
    <g id="ytick_1">
     <g id="line2d_8">
      <defs>
       <path d="M 0 0 
L -3.5 0 
" id="m8076c2ea6a" style="stroke:#323034;stroke-width:0.8;"/>
      </defs>
      <g>
       <use style="fill:#323034;stroke:#323034;stroke-width:0.8;" x="34.48" xlink:href="#m8076c2ea6a" y="414.843794"/>
      </g>
     </g>
     <g id="text_8">
      <!-- $\mathdefault{−20}$ -->
      <g style="fill:#323034;" transform="translate(7.2 418.941607)scale(0.12 -0.12)">
       <use transform="translate(0 0.40625)" xlink:href="#STIXGeneral-Regular-2212"/>
       <use transform="translate(68.499985 0.40625)" xlink:href="#STIXGeneral-Regular-32"/>
       <use transform="translate(118.499969 0.40625)" xlink:href="#STIXGeneral-Regular-30"/>
      </g>
     </g>
    </g>
    <g id="ytick_2">
     <g id="line2d_9">
      <g>
       <use style="fill:#323034;stroke:#323034;stroke-width:0.8;" x="34.48" xlink:href="#m8076c2ea6a" y="360.287924"/>
      </g>
     </g>
     <g id="text_9">
      <!-- $\mathdefault{−10}$ -->
      <g style="fill:#323034;" transform="translate(7.2 364.385736)scale(0.12 -0.12)">
       <defs>
        <path d="M 2522 0 
L 755 0 
L 755 96 
Q 1107 115 1235 227 
Q 1363 339 1363 608 
L 1363 3482 
Q 1363 3795 1171 3795 
Q 1082 3795 883 3718 
L 710 3654 
L 710 3744 
L 1856 4326 
L 1914 4307 
L 1914 486 
Q 1914 275 2042 185 
Q 2170 96 2522 96 
L 2522 0 
z
" id="STIXGeneral-Regular-31" transform="scale(0.015625)"/>
       </defs>
       <use transform="translate(0 0.40625)" xlink:href="#STIXGeneral-Regular-2212"/>
       <use transform="translate(68.499985 0.40625)" xlink:href="#STIXGeneral-Regular-31"/>
       <use transform="translate(118.499969 0.40625)" xlink:href="#STIXGeneral-Regular-30"/>
      </g>
     </g>
    </g>
    <g id="ytick_3">
     <g id="line2d_10">
      <g>
       <use style="fill:#323034;stroke:#323034;stroke-width:0.8;" x="34.48" xlink:href="#m8076c2ea6a" y="305.732053"/>
      </g>
     </g>
     <g id="text_10">
      <!-- $\mathdefault{0}$ -->
      <g style="fill:#323034;" transform="translate(21.48 309.829866)scale(0.12 -0.12)">
       <use transform="translate(0 0.40625)" xlink:href="#STIXGeneral-Regular-30"/>
      </g>
     </g>
    </g>
    <g id="ytick_4">
     <g id="line2d_11">
      <g>
       <use style="fill:#323034;stroke:#323034;stroke-width:0.8;" x="34.48" xlink:href="#m8076c2ea6a" y="251.176183"/>
      </g>
     </g>
     <g id="text_11">
      <!-- $\mathdefault{10}$ -->
      <g style="fill:#323034;" transform="translate(15.48 255.273996)scale(0.12 -0.12)">
       <use transform="translate(0 0.40625)" xlink:href="#STIXGeneral-Regular-31"/>
       <use transform="translate(49.999985 0.40625)" xlink:href="#STIXGeneral-Regular-30"/>
      </g>
     </g>
    </g>
    <g id="ytick_5">
     <g id="line2d_12">
      <g>
       <use style="fill:#323034;stroke:#323034;stroke-width:0.8;" x="34.48" xlink:href="#m8076c2ea6a" y="196.620313"/>
      </g>
     </g>
     <g id="text_12">
      <!-- $\mathdefault{20}$ -->
      <g style="fill:#323034;" transform="translate(15.48 200.718125)scale(0.12 -0.12)">
       <use transform="translate(0 0.40625)" xlink:href="#STIXGeneral-Regular-32"/>
       <use transform="translate(49.999985 0.40625)" xlink:href="#STIXGeneral-Regular-30"/>
      </g>
     </g>
    </g>
    <g id="ytick_6">
     <g id="line2d_13">
      <g>
       <use style="fill:#323034;stroke:#323034;stroke-width:0.8;" x="34.48" xlink:href="#m8076c2ea6a" y="142.064442"/>
      </g>
     </g>
     <g id="text_13">
      <!-- $\mathdefault{30}$ -->
      <g style="fill:#323034;" transform="translate(15.48 146.162255)scale(0.12 -0.12)">
       <defs>
        <path d="M 390 3264 
L 288 3290 
Q 435 3770 748 4048 
Q 1062 4326 1542 4326 
Q 1990 4326 2265 4083 
Q 2541 3840 2541 3450 
Q 2541 2925 1946 2566 
Q 2298 2413 2477 2227 
Q 2758 1914 2758 1402 
Q 2758 890 2464 506 
Q 2246 211 1840 60 
Q 1434 -90 979 -90 
Q 262 -90 262 275 
Q 262 378 339 442 
Q 416 506 525 506 
Q 685 506 915 339 
Q 1197 141 1466 141 
Q 1818 141 2058 425 
Q 2298 710 2298 1120 
Q 2298 1856 1632 2048 
Q 1434 2112 979 2112 
L 979 2202 
Q 1338 2323 1517 2432 
Q 2035 2726 2035 3290 
Q 2035 3610 1852 3776 
Q 1670 3942 1344 3942 
Q 768 3942 390 3264 
z
" id="STIXGeneral-Regular-33" transform="scale(0.015625)"/>
       </defs>
       <use transform="translate(0 0.40625)" xlink:href="#STIXGeneral-Regular-33"/>
       <use transform="translate(49.999985 0.40625)" xlink:href="#STIXGeneral-Regular-30"/>
      </g>
     </g>
    </g>
    <g id="ytick_7">
     <g id="line2d_14">
      <g>
       <use style="fill:#323034;stroke:#323034;stroke-width:0.8;" x="34.48" xlink:href="#m8076c2ea6a" y="87.508572"/>
      </g>
     </g>
     <g id="text_14">
      <!-- $\mathdefault{40}$ -->
      <g style="fill:#323034;" transform="translate(15.48 91.606385)scale(0.12 -0.12)">
       <use transform="translate(0 0.40625)" xlink:href="#STIXGeneral-Regular-34"/>
       <use transform="translate(49.999985 0.40625)" xlink:href="#STIXGeneral-Regular-30"/>
      </g>
     </g>
    </g>
    <g id="ytick_8">
     <g id="line2d_15">
      <g>
       <use style="fill:#323034;stroke:#323034;stroke-width:0.8;" x="34.48" xlink:href="#m8076c2ea6a" y="32.952702"/>
      </g>
     </g>
     <g id="text_15">
      <!-- $\mathdefault{50}$ -->
      <g style="fill:#323034;" transform="translate(15.48 37.050514)scale(0.12 -0.12)">
       <defs>
        <path d="M 2803 4358 
L 2573 3814 
Q 2534 3731 2400 3731 
L 1158 3731 
L 902 3187 
Q 1606 3053 1920 2896 
Q 2234 2739 2502 2368 
Q 2726 2061 2726 1555 
Q 2726 1094 2576 780 
Q 2426 467 2099 224 
Q 1664 -90 1011 -90 
Q 646 -90 422 19 
Q 198 128 198 307 
Q 198 550 486 550 
Q 717 550 960 352 
Q 1210 147 1414 147 
Q 1747 147 2012 480 
Q 2278 813 2278 1229 
Q 2278 1843 1850 2189 
Q 1293 2637 486 2637 
Q 410 2637 410 2688 
L 416 2720 
L 1114 4237 
L 2438 4237 
Q 2547 4237 2608 4269 
Q 2669 4301 2746 4403 
L 2803 4358 
z
" id="STIXGeneral-Regular-35" transform="scale(0.015625)"/>
       </defs>
       <use transform="translate(0 0.203125)" xlink:href="#STIXGeneral-Regular-35"/>
       <use transform="translate(49.999985 0.203125)" xlink:href="#STIXGeneral-Regular-30"/>
      </g>
     </g>
    </g>
   </g>
   <g id="patch_3">
    <path d="M 34.48 442.08 
L 34.48 7.2 
" style="fill:none;stroke:#000000;stroke-linecap:square;stroke-linejoin:miter;stroke-width:0.6;"/>
   </g>
   <g id="patch_4">
    <path d="M 34.48 442.08 
L 557.65869 442.08 
" style="fill:none;stroke:#000000;stroke-linecap:square;stroke-linejoin:miter;stroke-width:0.6;"/>
   </g>
  </g>
 </g>
 <defs>
  <clipPath id="p9e59d1a4f1">
   <rect height="434.88" width="523.17869" x="34.48" y="7.2"/>
  </clipPath>
 </defs>
</svg>
