<?xml version="1.0" encoding="utf-8" standalone="no"?>
<!DOCTYPE svg PUBLIC "-//W3C//DTD SVG 1.1//EN"
  "http://www.w3.org/Graphics/SVG/1.1/DTD/svg11.dtd">
<svg xmlns:xlink="http://www.w3.org/1999/xlink" width="575.252969pt" height="475.72pt" viewBox="0 0 575.252969 475.72" xmlns="http://www.w3.org/2000/svg" version="1.1">
 <metadata>
  <rdf:RDF xmlns:dc="http://purl.org/dc/elements/1.1/" xmlns:cc="http://creativecommons.org/ns#" xmlns:rdf="http://www.w3.org/1999/02/22-rdf-syntax-ns#">
   <cc:Work>
    <dc:type rdf:resource="http://purl.org/dc/dcmitype/StillImage"/>
    <dc:date>2022-09-16T16:54:16.867958</dc:date>
    <dc:format>image/svg+xml</dc:format>
    <dc:creator>
     <cc:Agent>
      <dc:title>Matplotlib v3.5.3, https://matplotlib.org/</dc:title>
     </cc:Agent>
    </dc:creator>
   </cc:Work>
  </rdf:RDF>
 </metadata>
 <defs>
  <style type="text/css">*{stroke-linejoin: round; stroke-linecap: butt}</style>
 </defs>
 <g id="figure_1">
  <g id="patch_1">
   <path d="M 0 475.72 
L 575.252969 475.72 
L 575.252969 0 
L 0 0 
z
" style="fill: #ffffff"/>
  </g>
  <g id="axes_1">
   <g id="patch_2">
    <path d="M 34.48 450.72 
L 568.052969 450.72 
L 568.052969 7.2 
L 34.48 7.2 
z
" style="fill: #ffffff"/>
   </g>
   <g id="PatchCollection_1">
    <path d="M 352.637214 73.494817 
L 352.529293 74.311754 
L 352.607818 74.551103 
L 352.756813 74.717914 
L 352.826076 74.901297 
L 352.95091 77.080702 
L 352.927151 77.254304 
L 352.422983 78.129653 
L 352.309424 78.38666 
L 352.284457 79.471745 
L 352.199489 79.763256 
L 352.020695 80.050691 
L 351.701361 80.980375 
L 351.423907 81.398489 
L 350.668863 80.888548 
L 350.223487 80.668217 
L 350.005229 80.430498 
L 349.862676 80.266404 
L 349.95449 80.047703 
L 350.157446 79.820308 
L 350.189661 79.641544 
L 349.71207 79.438871 
L 349.493409 79.303575 
L 349.496228 79.066672 
L 349.661331 78.697189 
L 349.586028 78.392637 
L 349.310587 78.408123 
L 349.097161 78.361666 
L 349.069376 78.203549 
L 349.22723 78.000877 
L 349.429784 77.736262 
L 349.423341 77.444208 
L 349.178505 77.318421 
L 348.956622 77.081245 
L 348.867628 76.758763 
L 349.039577 76.53816 
L 349.318239 76.3958 
L 349.113672 76.065439 
L 348.975549 76.058104 
L 348.865212 75.985837 
L 348.955414 75.832339 
L 349.172062 75.602771 
L 349.473274 74.917326 
L 349.892878 74.593757 
L 350.635439 74.385651 
L 350.836382 74.294639 
L 351.020814 74.05366 
L 351.224978 73.89826 
L 351.473036 73.918907 
L 351.701764 74.012093 
L 351.842706 74.111256 
L 351.948613 74.008018 
L 352.051702 73.709171 
L 351.98848 73.44673 
L 352.021097 72.72488 
L 352.153985 72.31546 
L 352.368619 72.292639 
L 352.566743 72.517861 
L 352.556676 72.717001 
L 352.629966 73.188364 
L 352.637214 73.494817 
" clip-path="url(#pc55dbd3752)" style="fill: #bc80bd; stroke: #000000; stroke-width: 0.2"/>
    <path d="M 344.947838 46.858368 
L 344.450112 47.110757 
L 344.336554 47.331632 
L 344.141249 47.623686 
L 343.824331 47.746485 
L 343.504998 47.787237 
L 343.246873 47.748658 
L 343.099891 47.631836 
L 343.10714 47.523165 
L 342.970225 47.430794 
L 342.629549 47.433511 
L 342.278805 47.634553 
L 341.998532 47.962741 
L 342.085514 48.146396 
L 342.343638 48.194754 
L 342.411693 48.267564 
L 342.411693 48.361837 
L 342.320685 48.47567 
L 342.211556 48.669648 
L 341.669937 49.248324 
L 341.123083 49.832161 
L 341.035699 50.008752 
L 340.86214 50.132094 
L 340.167096 50.443709 
L 340.094209 50.568681 
L 340.054745 51.089489 
L 339.977026 51.517111 
L 339.461582 51.919739 
L 338.948554 52.320464 
L 338.820499 52.565518 
L 338.727074 52.848879 
L 338.565998 53.168916 
L 338.534186 53.337901 
L 338.793921 53.613654 
L 338.763719 53.841592 
L 338.681168 54.165705 
L 338.434721 54.395545 
L 338.1621 54.525679 
L 338.16814 54.878861 
L 338.313109 54.928307 
L 338.642912 54.902225 
L 339.10802 54.646033 
L 339.411246 54.316758 
L 339.232451 54.004056 
L 339.210303 53.942929 
L 339.253391 53.869575 
L 339.612994 53.529706 
L 340.054342 53.32486 
L 340.670056 53.286825 
L 341.411812 53.406907 
L 341.485907 53.457711 
L 341.450068 53.666088 
L 341.519331 53.973357 
L 341.653829 54.189069 
L 341.469397 54.801433 
L 341.607923 54.993238 
L 341.823765 55.222806 
L 341.985646 55.43227 
L 342.218401 55.62489 
L 342.425384 55.949274 
L 342.496258 56.133201 
L 342.165246 56.452695 
L 341.60309 56.752085 
L 341.539868 56.94389 
L 341.547116 57.162047 
L 341.610339 57.333748 
L 341.92041 57.554351 
L 342.254241 58.053968 
L 342.465653 58.499521 
L 342.92915 58.926871 
L 343.041904 59.053473 
L 343.01291 59.160243 
L 342.890895 59.342268 
L 342.732235 59.949197 
L 342.54297 60.045643 
L 342.33196 60.084765 
L 341.758932 60.529503 
L 341.503626 60.47571 
L 341.140399 60.481416 
L 340.87422 60.62785 
L 340.903214 60.904962 
L 341.136775 61.158439 
L 341.274092 61.434464 
L 341.329663 61.721628 
L 341.588996 61.934352 
L 341.953028 62.061498 
L 342.161219 62.070192 
L 342.297329 62.146533 
L 342.379075 62.245153 
L 342.535722 62.860504 
L 342.441895 63.014818 
L 342.245784 63.080564 
L 342.128601 63.333768 
L 341.894638 63.707055 
L 341.76175 64.006716 
L 341.908732 64.270516 
L 341.971552 64.465853 
L 341.893028 64.666895 
L 341.997727 64.98014 
L 342.274375 65.290126 
L 343.025393 65.725898 
L 343.722853 66.080438 
L 343.938695 66.139393 
L 344.880991 65.911454 
L 345.036833 65.931015 
L 345.151599 66.202694 
L 345.201533 66.385533 
L 345.095625 66.661015 
L 344.840722 67.04055 
L 344.564477 67.342928 
L 344.396957 67.599936 
L 344.431991 67.833308 
L 344.442864 68.143837 
L 344.218163 68.236751 
L 344.210914 68.175351 
L 344.118295 68.122917 
L 344.03816 68.153889 
L 343.976548 68.221265 
L 343.966884 68.340804 
L 343.487682 68.539129 
L 343.157476 68.74479 
L 341.85155 69.97332 
L 341.240669 70.333566 
L 341.120264 70.550637 
L 340.995833 70.956253 
L 340.637036 71.304545 
L 340.322937 71.470269 
L 339.544939 71.640339 
L 338.763719 72.00955 
L 338.411768 71.850347 
L 337.500076 71.867463 
L 336.931477 71.422725 
L 335.838575 71.140723 
L 335.482597 70.493041 
L 334.984871 70.450931 
L 334.658692 70.470492 
L 334.46379 70.372416 
L 334.413051 70.151541 
L 334.408621 69.938817 
L 334.063113 70.036621 
L 333.798948 70.036621 
L 333.641496 70.121928 
L 333.517064 70.220276 
L 333.370082 70.157518 
L 333.284712 70.178709 
L 333.292363 70.303953 
L 332.975043 70.335196 
L 332.631145 70.258311 
L 331.728313 69.923874 
L 331.589787 69.872799 
L 330.963201 69.74348 
L 330.709908 69.609814 
L 330.504939 69.279453 
L 330.348292 69.174857 
L 330.255673 69.112371 
L 329.670967 69.279181 
L 329.468011 69.539178 
L 329.151093 69.843729 
L 326.982605 71.337146 
L 326.58676 71.962822 
L 326.128498 72.884355 
L 326.092659 73.314151 
L 326.289977 74.688572 
L 326.730923 75.410151 
L 326.786897 75.577233 
L 326.542464 75.578048 
L 326.132122 75.487851 
L 325.791446 75.376462 
L 325.46728 75.438677 
L 325.154792 75.587828 
L 324.881768 75.678026 
L 324.685658 75.703292 
L 324.554381 75.789414 
L 324.491561 75.961386 
L 324.478675 76.08174 
L 324.133569 76.052127 
L 323.335436 75.804628 
L 322.617842 75.634014 
L 322.19703 75.827992 
L 321.926422 76.009202 
L 321.735949 75.98149 
L 321.591384 75.790772 
L 321.494335 75.604129 
L 321.213257 75.432972 
L 320.579422 75.175692 
L 320.61204 75.051535 
L 320.720364 74.878476 
L 320.717142 74.771706 
L 320.595127 74.613046 
L 320.010823 74.442975 
L 319.735383 74.40005 
L 319.560212 74.517143 
L 319.43417 74.66059 
L 319.108796 74.133261 
L 318.877249 74.025948 
L 318.526909 74.008289 
L 318.126231 73.847456 
L 317.709447 73.642067 
L 316.69668 73.313336 
L 316.418018 73.273942 
L 316.306473 73.326105 
L 316.231975 73.522528 
L 316.191706 74.077839 
L 316.149021 74.139238 
L 315.679081 74.157713 
L 315.100012 74.080556 
L 314.834639 74.118863 
L 314.597857 74.120764 
L 314.374766 73.973786 
L 313.374684 74.141955 
L 313.208373 74.059908 
L 312.96696 73.809149 
L 312.697761 73.606749 
L 312.488564 73.502967 
L 312.310172 73.383972 
L 312.14829 73.364683 
L 311.901441 73.479875 
L 311.560362 73.528777 
L 311.277271 73.513834 
L 311.126262 73.530679 
L 310.492225 72.915598 
L 310.399607 72.747158 
L 310.083897 72.700429 
L 309.69369 72.693094 
L 308.697434 72.294541 
L 308.243803 72.080459 
L 308.177359 71.953313 
L 308.1836 71.850347 
L 308.106083 71.872624 
L 307.966349 72.054649 
L 307.893059 72.202986 
L 307.796011 72.230697 
L 307.652854 72.207604 
L 307.52057 72.124199 
L 307.43963 72.016342 
L 307.526409 71.828069 
L 307.678224 71.582472 
L 307.741245 71.315412 
L 307.727352 71.076335 
L 307.47567 70.922836 
L 307.105598 70.85872 
L 306.834788 70.840518 
L 306.481428 70.703863 
L 306.314714 70.605516 
L 306.152027 70.339271 
L 306.14659 70.145836 
L 306.81707 69.97495 
L 307.421509 69.275378 
L 307.994135 66.735727 
L 308.408503 63.733136 
L 308.716561 63.165871 
L 309.103547 63.009928 
L 308.790455 62.597248 
L 308.594546 62.806169 
L 308.512397 63.027858 
L 308.409711 63.138703 
L 308.641258 60.385785 
L 308.80616 59.377857 
L 309.086835 58.321843 
L 309.661072 58.741043 
L 310.137052 59.16622 
L 310.383096 59.535159 
L 310.694577 60.764233 
L 310.930151 61.022056 
L 311.282707 61.280966 
L 311.143376 60.99842 
L 310.900755 60.782435 
L 310.52142 59.144214 
L 310.283632 58.680187 
L 309.912955 58.289785 
L 308.719984 57.467686 
L 308.612667 57.309026 
L 308.555082 56.994965 
L 308.949317 57.008277 
L 309.289993 57.160961 
L 309.249724 56.985185 
L 309.148648 56.80153 
L 308.990391 56.135646 
L 308.85851 54.580558 
L 308.87643 54.314313 
L 308.817637 53.987756 
L 308.436087 53.914674 
L 308.131049 53.901362 
L 307.802454 53.772314 
L 306.177597 52.855671 
L 305.621281 51.909958 
L 305.05248 51.211744 
L 304.915968 50.907193 
L 304.925029 50.598566 
L 305.219395 49.946809 
L 304.959459 49.535216 
L 304.705361 49.453441 
L 304.484686 49.249682 
L 304.684622 48.910356 
L 304.850732 48.693284 
L 305.183556 48.634059 
L 305.620072 48.706053 
L 306.03424 48.902477 
L 306.35901 48.954639 
L 305.398794 48.427583 
L 303.84159 48.605261 
L 303.505947 48.537341 
L 303.222654 48.419976 
L 303.111713 48.033106 
L 303.333193 47.858688 
L 303.533733 47.536206 
L 303.306817 47.309626 
L 303.012651 47.223775 
L 302.551369 47.228666 
L 302.120893 47.297129 
L 302.011764 47.166995 
L 302.274318 46.807835 
L 302.051227 46.6758 
L 301.753639 46.737471 
L 301.321955 46.811911 
L 300.908996 46.699164 
L 300.518789 46.291103 
L 300.26006 46.294091 
L 300.082272 46.344352 
L 299.818711 46.187322 
L 299.541257 46.147928 
L 299.343134 46.200091 
L 299.079774 45.965904 
L 297.458743 45.496172 
L 296.758666 45.438847 
L 296.116576 45.651572 
L 295.763215 45.577675 
L 295.503479 45.27421 
L 295.285422 44.765085 
L 294.251112 44.372509 
L 294.455678 44.114958 
L 294.937296 44.054102 
L 295.492204 43.875609 
L 295.691737 43.646584 
L 295.258039 43.379524 
L 294.938102 43.31405 
L 294.805616 43.218147 
L 294.670312 42.978527 
L 294.861993 42.86904 
L 294.997096 42.927179 
L 295.387102 42.961683 
L 296.054763 42.902728 
L 295.8059 42.661206 
L 295.547574 42.607414 
L 295.428981 42.54683 
L 294.886155 42.520748 
L 294.639104 42.603067 
L 294.083794 42.571824 
L 293.963591 42.311013 
L 293.906006 42.087149 
L 294.078156 41.588348 
L 294.859778 41.142795 
L 296.807391 40.655675 
L 297.64539 40.726855 
L 298.226271 40.639103 
L 298.922322 40.332106 
L 299.229575 40.069121 
L 300.219388 39.913993 
L 301.160476 40.193007 
L 302.027871 41.247934 
L 302.442441 41.605463 
L 303.457423 40.985221 
L 304.969727 41.003424 
L 305.282014 41.353617 
L 305.408056 41.058575 
L 305.686114 40.713543 
L 305.907795 40.870845 
L 306.020145 41.084112 
L 307.616209 41.023528 
L 307.868495 40.961314 
L 307.43963 40.710826 
L 307.089088 40.110417 
L 307.016402 37.902213 
L 306.574248 37.285775 
L 306.066656 36.301212 
L 305.833096 35.717103 
L 305.811149 35.515246 
L 305.889271 35.223735 
L 306.51324 35.239492 
L 306.995261 35.313389 
L 307.912791 35.093058 
L 308.354341 35.243839 
L 308.328368 35.699716 
L 308.463068 36.274859 
L 308.616895 36.55333 
L 308.849651 36.870107 
L 309.589393 36.840765 
L 310.387727 37.026865 
L 311.396467 37.055663 
L 312.870314 37.377059 
L 313.49831 37.190959 
L 314.105769 36.794308 
L 315.263504 36.533497 
L 315.35572 36.395484 
L 314.689268 36.450635 
L 314.077983 36.199332 
L 313.995432 35.926296 
L 314.066305 35.681242 
L 314.314363 35.116694 
L 316.085396 34.226946 
L 317.355079 33.963962 
L 318.680334 33.474125 
L 319.347189 32.971792 
L 319.787733 32.323295 
L 319.92948 32.180664 
L 320.112301 32.061125 
L 319.942366 31.82884 
L 320.057535 29.351132 
L 320.181564 28.904764 
L 320.440091 28.540172 
L 320.83352 28.258169 
L 321.43071 27.952531 
L 323.6294 27.530342 
L 323.955982 27.36 
L 324.001889 27.624887 
L 324.161757 27.963941 
L 324.271692 28.149226 
L 324.180281 28.391292 
L 324.252363 28.590704 
L 324.550756 28.949591 
L 324.922842 29.287831 
L 325.254257 29.504087 
L 325.347681 29.480451 
L 325.593322 29.419052 
L 326.009302 29.197362 
L 326.355615 29.12754 
L 326.553739 29.29734 
L 326.665687 29.393242 
L 326.883945 29.775765 
L 326.945154 30.175133 
L 327.042203 30.506852 
L 327.218984 30.641333 
L 327.881813 30.685345 
L 328.370276 30.808416 
L 328.49954 30.919804 
L 328.666656 31.657139 
L 328.757665 31.761464 
L 328.879277 31.674527 
L 328.999682 31.553086 
L 329.166798 31.533797 
L 329.453514 31.580526 
L 329.831238 31.595197 
L 330.220639 31.676428 
L 330.758634 32.092912 
L 330.738097 32.230381 
L 330.632994 32.471631 
L 330.59635 32.664252 
L 330.688968 32.74168 
L 330.831118 32.940549 
L 330.796889 33.170389 
L 330.658364 33.331494 
L 330.602793 33.464345 
L 330.603598 33.550739 
L 330.654337 33.622462 
L 330.764674 33.685491 
L 331.559183 33.770526 
L 332.286039 33.685491 
L 332.744301 33.450761 
L 332.822423 33.203533 
L 332.952492 32.924248 
L 333.225516 32.690604 
L 333.414378 32.612089 
L 333.587132 32.708263 
L 333.29639 33.689295 
L 333.508608 33.940054 
L 333.540017 34.31497 
L 333.616126 34.643158 
L 333.875861 34.636909 
L 334.190765 34.697494 
L 334.413856 34.818934 
L 334.673994 35.013999 
L 335.048899 35.193307 
L 335.311856 35.256336 
L 335.407294 35.406303 
L 335.619914 35.579634 
L 335.95455 35.94314 
L 336.254152 36.185749 
L 336.398718 36.184934 
L 336.677782 36.089303 
L 337.091748 36.028175 
L 337.418733 36.033337 
L 337.557661 36.218078 
L 337.879008 36.303385 
L 337.992567 36.371305 
L 338.118609 36.498722 
L 338.33284 36.549798 
L 338.591368 36.498722 
L 338.78023 36.328651 
L 339.032314 36.25231 
L 339.284398 36.277848 
L 339.429367 36.371305 
L 339.705612 36.509318 
L 339.861856 36.479161 
L 340.174747 36.564197 
L 340.488846 36.832343 
L 340.620928 37.10212 
L 340.655559 37.249642 
L 340.791266 37.409932 
L 341.318388 38.13477 
L 341.486713 38.170632 
L 341.669937 38.060602 
L 341.788731 37.904659 
L 341.96068 37.873687 
L 342.237328 37.94541 
L 342.415317 38.027457 
L 342.500688 38.341518 
L 342.560688 38.401287 
L 342.680288 38.333639 
L 342.893311 38.318697 
L 343.233584 38.396125 
L 343.701511 38.307558 
L 344.076013 38.176609 
L 344.267291 38.181499 
L 344.576155 38.547722 
L 344.928509 38.684648 
L 345.704896 38.795221 
L 346.538063 38.967465 
L 346.86545 39.106836 
L 347.088944 39.175299 
L 347.111494 39.660245 
L 347.044245 39.733327 
L 346.2143 40.705664 
L 345.864764 41.053413 
L 345.686775 41.549769 
L 345.564357 42.311013 
L 345.319119 43.034221 
L 344.951865 43.719937 
L 344.818172 44.234497 
L 344.918442 44.577898 
L 344.855622 45.11718 
L 344.630115 45.851799 
L 344.592262 46.406838 
L 344.740855 46.781483 
L 344.947838 46.858368 
" clip-path="url(#pc55dbd3752)" style="fill: #bc80bd; stroke: #000000; stroke-width: 0.2"/>
    <path d="M 308.685554 56.254098 
L 308.540183 56.740674 
L 308.265145 56.292676 
L 307.900509 55.900101 
L 307.817353 55.536866 
L 307.818159 55.439877 
L 308.245413 55.705307 
L 308.685554 56.254098 
" clip-path="url(#pc55dbd3752)" style="fill: #bc80bd; stroke: #000000; stroke-width: 0.2"/>
    <path d="M 499.847589 383.865525 
L 499.589062 383.911167 
L 499.465839 383.763918 
L 499.390536 383.413996 
L 499.468255 383.077114 
L 499.49 382.804892 
L 499.279796 382.332715 
L 499.485168 382.064297 
L 499.659935 382.376727 
L 499.758997 382.397918 
L 500.02437 382.615804 
L 499.946651 383.017345 
L 499.96437 383.148837 
L 499.843965 383.550922 
L 499.847589 383.865525 
" clip-path="url(#pc55dbd3752)" style="fill: #bc80bd; stroke: #000000; stroke-width: 0.2"/>
    <path d="M 543.627703 430.394819 
L 543.045412 430.56 
L 542.639098 430.500231 
L 541.835327 430.02914 
L 541.619485 429.716167 
L 541.299749 428.831581 
L 541.370622 428.520238 
L 541.623512 427.973077 
L 542.197346 427.756278 
L 542.799368 427.836694 
L 543.069171 427.985031 
L 543.387699 428.626192 
L 543.799652 429.277677 
L 543.731194 430.052505 
L 543.627703 430.394819 
" clip-path="url(#pc55dbd3752)" style="fill: #bc80bd; stroke: #000000; stroke-width: 0.2"/>
    <path d="M 62.724181 231.016199 
L 62.681496 231.333791 
L 62.576394 231.395734 
L 62.422566 231.131391 
L 61.745039 231.168611 
L 61.641347 230.93225 
L 61.635306 230.820319 
L 61.961083 230.418506 
L 61.577721 230.310921 
L 61.425907 230.137591 
L 61.101741 229.291855 
L 61.128117 229.045986 
L 61.262213 228.916124 
L 61.482485 228.897378 
L 61.896048 229.170687 
L 62.203503 229.55973 
L 62.308202 229.565707 
L 62.343236 229.676009 
L 62.281222 229.949589 
L 62.464849 230.181331 
L 62.543977 230.35276 
L 62.724181 231.016199 
" clip-path="url(#pc55dbd3752)" style="fill: #bc80bd; stroke: #000000; stroke-width: 0.2"/>
    <path d="M 60.658782 221.357484 
L 60.173539 221.419427 
L 59.854609 221.370796 
L 59.781118 220.972516 
L 59.943603 220.635362 
L 59.826823 220.225943 
L 59.902126 219.981704 
L 60.064813 219.820599 
L 60.331797 220.033866 
L 60.374281 220.339233 
L 60.542001 220.61879 
L 61.296039 221.214581 
L 60.658782 221.357484 
" clip-path="url(#pc55dbd3752)" style="fill: #bc80bd; stroke: #000000; stroke-width: 0.2"/>
    <path d="M 59.576752 222.600957 
L 59.243123 222.850629 
L 59.079027 222.773472 
L 58.876272 222.294232 
L 58.733317 220.964909 
L 58.844459 220.745121 
L 58.923185 220.662802 
L 59.362521 220.825809 
L 59.545946 221.013811 
L 59.730177 221.132263 
L 59.636552 221.375686 
L 59.68266 222.373833 
L 59.576752 222.600957 
" clip-path="url(#pc55dbd3752)" style="fill: #bc80bd; stroke: #000000; stroke-width: 0.2"/>
    <path d="M 61.057445 223.251898 
L 60.827509 223.273633 
L 60.726434 223.225546 
L 60.694822 222.890566 
L 60.87261 222.660454 
L 60.976907 222.604488 
L 61.132144 222.862583 
L 61.168991 223.077752 
L 61.057445 223.251898 
" clip-path="url(#pc55dbd3752)" style="fill: #bc80bd; stroke: #000000; stroke-width: 0.2"/>
    <path d="M 88.331475 298.717129 
L 88.378992 298.666868 
L 88.528793 298.629105 
L 88.662688 298.62503 
L 88.870476 298.219957 
L 89.214978 297.967296 
L 89.81398 296.564077 
L 90.066467 295.984586 
L 90.097071 295.667537 
L 90.16875 295.006815 
L 90.035057 294.202375 
L 90.097273 293.97661 
L 90.612113 293.00536 
L 90.83319 292.475586 
L 90.848089 292.019438 
L 90.911916 291.690979 
L 90.848291 291.519278 
L 90.73151 291.469289 
L 90.534595 291.043297 
L 90.407546 290.690115 
L 90.058413 290.328511 
L 89.819014 289.95767 
L 89.42639 289.106229 
L 89.461827 288.628075 
L 89.350483 288.456103 
L 89.229877 288.280598 
L 89.238736 288.064071 
L 89.157192 287.528592 
L 89.055512 287.025715 
L 89.018666 286.708666 
L 89.115715 286.163408 
L 89.057324 285.557021 
L 88.929873 285.238071 
L 88.894637 284.752853 
L 88.920812 284.317895 
L 89.029941 284.07257 
L 89.007995 283.76829 
L 89.505116 282.800571 
L 89.882236 282.239555 
L 90.229557 281.845892 
L 90.520903 281.551936 
L 90.91554 280.081884 
L 91.20286 279.564608 
L 91.502864 279.490983 
L 93.122284 280.708103 
L 93.881356 280.820578 
L 95.411379 281.478311 
L 95.965279 282.321602 
L 97.247849 283.724549 
L 97.921751 284.16494 
L 97.928396 284.532521 
L 97.781212 285.117989 
L 98.212695 284.60669 
L 98.880155 285.415748 
L 99.069017 285.812942 
L 99.276805 286.545116 
L 99.204925 287.015391 
L 99.112709 287.258272 
L 99.107675 287.447089 
L 99.306201 287.186821 
L 99.417948 286.980617 
L 99.451371 286.489965 
L 99.613454 285.881134 
L 99.830907 285.870266 
L 100.003662 286.232957 
L 100.362459 287.81141 
L 100.497763 288.134164 
L 100.549509 288.635139 
L 100.529575 288.859274 
L 100.552529 289.066293 
L 100.425077 289.186375 
L 100.080173 289.448001 
L 99.922721 289.797108 
L 99.831109 290.132902 
L 99.616676 290.361112 
L 99.412914 290.648277 
L 99.349289 290.881105 
L 99.158414 291.065303 
L 99.121769 291.372028 
L 98.640957 292.454667 
L 98.449276 292.942058 
L 98.173634 293.459606 
L 98.001283 293.651954 
L 97.767722 293.960038 
L 97.64913 294.316208 
L 97.64913 294.684333 
L 97.485235 295.12581 
L 97.394428 295.50616 
L 97.239996 295.727035 
L 96.832473 296.931658 
L 96.812742 297.346239 
L 96.715693 297.59238 
L 96.42636 298.166436 
L 96.230652 298.51174 
L 95.889372 298.770378 
L 95.530575 299.051565 
L 95.394264 299.35829 
L 95.141173 299.513962 
L 94.956137 299.524014 
L 94.656938 299.412898 
L 94.253643 299.359377 
L 94.048674 299.395238 
L 93.956256 299.242827 
L 93.818939 298.892633 
L 93.617191 298.644862 
L 93.48692 298.731256 
L 93.215507 298.980385 
L 92.897381 299.12682 
L 92.670667 299.077918 
L 92.176968 298.905402 
L 91.966562 298.818465 
L 91.902937 298.671215 
L 91.830251 298.560914 
L 91.721122 298.610087 
L 91.57555 298.794014 
L 91.381453 298.986906 
L 91.093529 299.241197 
L 90.502581 299.697888 
L 90.33627 299.86171 
L 90.182442 299.7726 
L 89.932572 299.682131 
L 89.664179 299.676969 
L 89.086721 299.380568 
L 88.748662 299.169474 
L 88.602687 298.904587 
L 88.431745 298.789395 
L 88.331475 298.717129 
" clip-path="url(#pc55dbd3752)" style="fill: #bc80bd; stroke: #000000; stroke-width: 0.2"/>
   </g>
   <g id="PathCollection_1">
    <defs>
     <path id="mcb5109a2fe" d="M 0 3 
C 0.795609 3 1.55874 2.683901 2.12132 2.12132 
C 2.683901 1.55874 3 0.795609 3 0 
C 3 -0.795609 2.683901 -1.55874 2.12132 -2.12132 
C 1.55874 -2.683901 0.795609 -3 0 -3 
C -0.795609 -3 -1.55874 -2.683901 -2.12132 -2.12132 
C -2.683901 -1.55874 -3 -0.795609 -3 0 
C -3 0.795609 -2.683901 1.55874 -2.12132 2.12132 
C -1.55874 2.683901 -0.795609 3 0 3 
z
" style="stroke: #ff0000; stroke-width: 0.2"/>
    </defs>
    <g clip-path="url(#pc55dbd3752)">
     <use xlink:href="#mcb5109a2fe" x="302.156286" y="77.011138" style="fill: #ff0000; stroke: #ff0000; stroke-width: 0.2"/>
    </g>
   </g>
   <g id="matplotlib.axis_1">
    <g id="xtick_1">
     <g id="line2d_1">
      <defs>
       <path id="m5b0fe6f8dc" d="M 0 0 
L 0 3.5 
" style="stroke: #323034; stroke-width: 0.8"/>
      </defs>
      <g>
       <use xlink:href="#m5b0fe6f8dc" x="66.131346" y="450.72" style="fill: #323034; stroke: #323034; stroke-width: 0.8"/>
      </g>
     </g>
     <g id="text_1">
      <!-- $\mathdefault{−60}$ -->
      <g style="fill: #323034" transform="translate(55.991346 465.915625)scale(0.12 -0.12)">
       <defs>
        <path id="STIXGeneral-Regular-2212" d="M 3974 1408 
L 410 1408 
L 410 1830 
L 3974 1830 
L 3974 1408 
z
" transform="scale(0.015625)"/>
        <path id="STIXGeneral-Regular-36" d="M 2854 4378 
L 2867 4275 
Q 2112 4154 1606 3664 
Q 1101 3174 973 2451 
Q 1344 2739 1786 2739 
Q 2349 2739 2672 2380 
Q 2995 2022 2995 1402 
Q 2995 774 2669 378 
Q 2291 -90 1651 -90 
Q 870 -90 518 557 
Q 218 1107 218 1786 
Q 218 2835 915 3552 
Q 1312 3962 1731 4131 
Q 2150 4301 2854 4378 
z
M 2419 1203 
Q 2419 2445 1555 2445 
Q 1235 2445 1024 2275 
Q 813 2106 813 1702 
Q 813 954 1046 522 
Q 1280 90 1722 90 
Q 2061 90 2240 394 
Q 2419 698 2419 1203 
z
" transform="scale(0.015625)"/>
        <path id="STIXGeneral-Regular-30" d="M 3046 2112 
Q 3046 1683 2963 1302 
Q 2880 922 2717 602 
Q 2554 282 2266 96 
Q 1978 -90 1600 -90 
Q 1210 -90 915 108 
Q 621 307 461 640 
Q 301 973 227 1350 
Q 154 1728 154 2150 
Q 154 2746 301 3222 
Q 448 3699 790 4012 
Q 1133 4326 1626 4326 
Q 2253 4326 2649 3712 
Q 3046 3098 3046 2112 
z
M 2432 2080 
Q 2432 3091 2217 3625 
Q 2003 4160 1587 4160 
Q 1190 4160 979 3622 
Q 768 3085 768 2106 
Q 768 1120 979 598 
Q 1190 77 1600 77 
Q 2003 77 2217 598 
Q 2432 1120 2432 2080 
z
" transform="scale(0.015625)"/>
       </defs>
       <use xlink:href="#STIXGeneral-Regular-2212" transform="translate(0 0.59375)"/>
       <use xlink:href="#STIXGeneral-Regular-36" transform="translate(68.499985 0.59375)"/>
       <use xlink:href="#STIXGeneral-Regular-30" transform="translate(118.499969 0.59375)"/>
      </g>
     </g>
    </g>
    <g id="xtick_2">
     <g id="line2d_2">
      <g>
       <use xlink:href="#m5b0fe6f8dc" x="148.60237" y="450.72" style="fill: #323034; stroke: #323034; stroke-width: 0.8"/>
      </g>
     </g>
     <g id="text_2">
      <!-- $\mathdefault{−40}$ -->
      <g style="fill: #323034" transform="translate(138.46237 465.915625)scale(0.12 -0.12)">
       <defs>
        <path id="STIXGeneral-Regular-34" d="M 3027 1069 
L 2368 1069 
L 2368 0 
L 1869 0 
L 1869 1069 
L 77 1069 
L 77 1478 
L 2086 4326 
L 2368 4326 
L 2368 1478 
L 3027 1478 
L 3027 1069 
z
M 1869 1478 
L 1869 3674 
L 333 1478 
L 1869 1478 
z
" transform="scale(0.015625)"/>
       </defs>
       <use xlink:href="#STIXGeneral-Regular-2212" transform="translate(0 0.40625)"/>
       <use xlink:href="#STIXGeneral-Regular-34" transform="translate(68.499985 0.40625)"/>
       <use xlink:href="#STIXGeneral-Regular-30" transform="translate(118.499969 0.40625)"/>
      </g>
     </g>
    </g>
    <g id="xtick_3">
     <g id="line2d_3">
      <g>
       <use xlink:href="#m5b0fe6f8dc" x="231.073394" y="450.72" style="fill: #323034; stroke: #323034; stroke-width: 0.8"/>
      </g>
     </g>
     <g id="text_3">
      <!-- $\mathdefault{−20}$ -->
      <g style="fill: #323034" transform="translate(220.933394 465.915625)scale(0.12 -0.12)">
       <defs>
        <path id="STIXGeneral-Regular-32" d="M 3034 877 
L 2688 0 
L 186 0 
L 186 77 
L 1325 1286 
Q 1773 1754 1965 2144 
Q 2157 2534 2157 2950 
Q 2157 3379 1920 3616 
Q 1683 3853 1267 3853 
Q 922 3853 720 3673 
Q 518 3494 326 3021 
L 192 3053 
Q 301 3648 630 3987 
Q 960 4326 1523 4326 
Q 2054 4326 2380 4006 
Q 2707 3686 2707 3200 
Q 2707 2477 1888 1613 
L 832 486 
L 2330 486 
Q 2541 486 2665 569 
Q 2790 653 2944 915 
L 3034 877 
z
" transform="scale(0.015625)"/>
       </defs>
       <use xlink:href="#STIXGeneral-Regular-2212" transform="translate(0 0.40625)"/>
       <use xlink:href="#STIXGeneral-Regular-32" transform="translate(68.499985 0.40625)"/>
       <use xlink:href="#STIXGeneral-Regular-30" transform="translate(118.499969 0.40625)"/>
      </g>
     </g>
    </g>
    <g id="xtick_4">
     <g id="line2d_4">
      <g>
       <use xlink:href="#m5b0fe6f8dc" x="313.544418" y="450.72" style="fill: #323034; stroke: #323034; stroke-width: 0.8"/>
      </g>
     </g>
     <g id="text_4">
      <!-- $\mathdefault{0}$ -->
      <g style="fill: #323034" transform="translate(310.544418 465.915625)scale(0.12 -0.12)">
       <use xlink:href="#STIXGeneral-Regular-30" transform="translate(0 0.40625)"/>
      </g>
     </g>
    </g>
    <g id="xtick_5">
     <g id="line2d_5">
      <g>
       <use xlink:href="#m5b0fe6f8dc" x="396.015442" y="450.72" style="fill: #323034; stroke: #323034; stroke-width: 0.8"/>
      </g>
     </g>
     <g id="text_5">
      <!-- $\mathdefault{20}$ -->
      <g style="fill: #323034" transform="translate(390.015442 465.915625)scale(0.12 -0.12)">
       <use xlink:href="#STIXGeneral-Regular-32" transform="translate(0 0.40625)"/>
       <use xlink:href="#STIXGeneral-Regular-30" transform="translate(49.999985 0.40625)"/>
      </g>
     </g>
    </g>
    <g id="xtick_6">
     <g id="line2d_6">
      <g>
       <use xlink:href="#m5b0fe6f8dc" x="478.486467" y="450.72" style="fill: #323034; stroke: #323034; stroke-width: 0.8"/>
      </g>
     </g>
     <g id="text_6">
      <!-- $\mathdefault{40}$ -->
      <g style="fill: #323034" transform="translate(472.486467 465.915625)scale(0.12 -0.12)">
       <use xlink:href="#STIXGeneral-Regular-34" transform="translate(0 0.40625)"/>
       <use xlink:href="#STIXGeneral-Regular-30" transform="translate(49.999985 0.40625)"/>
      </g>
     </g>
    </g>
    <g id="xtick_7">
     <g id="line2d_7">
      <g>
       <use xlink:href="#m5b0fe6f8dc" x="560.957491" y="450.72" style="fill: #323034; stroke: #323034; stroke-width: 0.8"/>
      </g>
     </g>
     <g id="text_7">
      <!-- $\mathdefault{60}$ -->
      <g style="fill: #323034" transform="translate(554.957491 465.915625)scale(0.12 -0.12)">
       <use xlink:href="#STIXGeneral-Regular-36" transform="translate(0 0.59375)"/>
       <use xlink:href="#STIXGeneral-Regular-30" transform="translate(49.999985 0.59375)"/>
      </g>
     </g>
    </g>
   </g>
   <g id="matplotlib.axis_2">
    <g id="ytick_1">
     <g id="line2d_8">
      <defs>
       <path id="m8ff7372486" d="M 0 0 
L -3.5 0 
" style="stroke: #323034; stroke-width: 0.8"/>
      </defs>
      <g>
       <use xlink:href="#m8ff7372486" x="34.48" y="422.942678" style="fill: #323034; stroke: #323034; stroke-width: 0.8"/>
      </g>
     </g>
     <g id="text_8">
      <!-- $\mathdefault{−20}$ -->
      <g style="fill: #323034" transform="translate(7.2 427.04049)scale(0.12 -0.12)">
       <use xlink:href="#STIXGeneral-Regular-2212" transform="translate(0 0.40625)"/>
       <use xlink:href="#STIXGeneral-Regular-32" transform="translate(68.499985 0.40625)"/>
       <use xlink:href="#STIXGeneral-Regular-30" transform="translate(118.499969 0.40625)"/>
      </g>
     </g>
    </g>
    <g id="ytick_2">
     <g id="line2d_9">
      <g>
       <use xlink:href="#m8ff7372486" x="34.48" y="367.302916" style="fill: #323034; stroke: #323034; stroke-width: 0.8"/>
      </g>
     </g>
     <g id="text_9">
      <!-- $\mathdefault{−10}$ -->
      <g style="fill: #323034" transform="translate(7.2 371.400728)scale(0.12 -0.12)">
       <defs>
        <path id="STIXGeneral-Regular-31" d="M 2522 0 
L 755 0 
L 755 96 
Q 1107 115 1235 227 
Q 1363 339 1363 608 
L 1363 3482 
Q 1363 3795 1171 3795 
Q 1082 3795 883 3718 
L 710 3654 
L 710 3744 
L 1856 4326 
L 1914 4307 
L 1914 486 
Q 1914 275 2042 185 
Q 2170 96 2522 96 
L 2522 0 
z
" transform="scale(0.015625)"/>
       </defs>
       <use xlink:href="#STIXGeneral-Regular-2212" transform="translate(0 0.40625)"/>
       <use xlink:href="#STIXGeneral-Regular-31" transform="translate(68.499985 0.40625)"/>
       <use xlink:href="#STIXGeneral-Regular-30" transform="translate(118.499969 0.40625)"/>
      </g>
     </g>
    </g>
    <g id="ytick_3">
     <g id="line2d_10">
      <g>
       <use xlink:href="#m8ff7372486" x="34.48" y="311.663154" style="fill: #323034; stroke: #323034; stroke-width: 0.8"/>
      </g>
     </g>
     <g id="text_10">
      <!-- $\mathdefault{0}$ -->
      <g style="fill: #323034" transform="translate(21.48 315.760966)scale(0.12 -0.12)">
       <use xlink:href="#STIXGeneral-Regular-30" transform="translate(0 0.40625)"/>
      </g>
     </g>
    </g>
    <g id="ytick_4">
     <g id="line2d_11">
      <g>
       <use xlink:href="#m8ff7372486" x="34.48" y="256.023392" style="fill: #323034; stroke: #323034; stroke-width: 0.8"/>
      </g>
     </g>
     <g id="text_11">
      <!-- $\mathdefault{10}$ -->
      <g style="fill: #323034" transform="translate(15.48 260.121205)scale(0.12 -0.12)">
       <use xlink:href="#STIXGeneral-Regular-31" transform="translate(0 0.40625)"/>
       <use xlink:href="#STIXGeneral-Regular-30" transform="translate(49.999985 0.40625)"/>
      </g>
     </g>
    </g>
    <g id="ytick_5">
     <g id="line2d_12">
      <g>
       <use xlink:href="#m8ff7372486" x="34.48" y="200.38363" style="fill: #323034; stroke: #323034; stroke-width: 0.8"/>
      </g>
     </g>
     <g id="text_12">
      <!-- $\mathdefault{20}$ -->
      <g style="fill: #323034" transform="translate(15.48 204.481443)scale(0.12 -0.12)">
       <use xlink:href="#STIXGeneral-Regular-32" transform="translate(0 0.40625)"/>
       <use xlink:href="#STIXGeneral-Regular-30" transform="translate(49.999985 0.40625)"/>
      </g>
     </g>
    </g>
    <g id="ytick_6">
     <g id="line2d_13">
      <g>
       <use xlink:href="#m8ff7372486" x="34.48" y="144.743868" style="fill: #323034; stroke: #323034; stroke-width: 0.8"/>
      </g>
     </g>
     <g id="text_13">
      <!-- $\mathdefault{30}$ -->
      <g style="fill: #323034" transform="translate(15.48 148.841681)scale(0.12 -0.12)">
       <defs>
        <path id="STIXGeneral-Regular-33" d="M 390 3264 
L 288 3290 
Q 435 3770 748 4048 
Q 1062 4326 1542 4326 
Q 1990 4326 2265 4083 
Q 2541 3840 2541 3450 
Q 2541 2925 1946 2566 
Q 2298 2413 2477 2227 
Q 2758 1914 2758 1402 
Q 2758 890 2464 506 
Q 2246 211 1840 60 
Q 1434 -90 979 -90 
Q 262 -90 262 275 
Q 262 378 339 442 
Q 416 506 525 506 
Q 685 506 915 339 
Q 1197 141 1466 141 
Q 1818 141 2058 425 
Q 2298 710 2298 1120 
Q 2298 1856 1632 2048 
Q 1434 2112 979 2112 
L 979 2202 
Q 1338 2323 1517 2432 
Q 2035 2726 2035 3290 
Q 2035 3610 1852 3776 
Q 1670 3942 1344 3942 
Q 768 3942 390 3264 
z
" transform="scale(0.015625)"/>
       </defs>
       <use xlink:href="#STIXGeneral-Regular-33" transform="translate(0 0.40625)"/>
       <use xlink:href="#STIXGeneral-Regular-30" transform="translate(49.999985 0.40625)"/>
      </g>
     </g>
    </g>
    <g id="ytick_7">
     <g id="line2d_14">
      <g>
       <use xlink:href="#m8ff7372486" x="34.48" y="89.104107" style="fill: #323034; stroke: #323034; stroke-width: 0.8"/>
      </g>
     </g>
     <g id="text_14">
      <!-- $\mathdefault{40}$ -->
      <g style="fill: #323034" transform="translate(15.48 93.201919)scale(0.12 -0.12)">
       <use xlink:href="#STIXGeneral-Regular-34" transform="translate(0 0.40625)"/>
       <use xlink:href="#STIXGeneral-Regular-30" transform="translate(49.999985 0.40625)"/>
      </g>
     </g>
    </g>
    <g id="ytick_8">
     <g id="line2d_15">
      <g>
       <use xlink:href="#m8ff7372486" x="34.48" y="33.464345" style="fill: #323034; stroke: #323034; stroke-width: 0.8"/>
      </g>
     </g>
     <g id="text_15">
      <!-- $\mathdefault{50}$ -->
      <g style="fill: #323034" transform="translate(15.48 37.562157)scale(0.12 -0.12)">
       <defs>
        <path id="STIXGeneral-Regular-35" d="M 2803 4358 
L 2573 3814 
Q 2534 3731 2400 3731 
L 1158 3731 
L 902 3187 
Q 1606 3053 1920 2896 
Q 2234 2739 2502 2368 
Q 2726 2061 2726 1555 
Q 2726 1094 2576 780 
Q 2426 467 2099 224 
Q 1664 -90 1011 -90 
Q 646 -90 422 19 
Q 198 128 198 307 
Q 198 550 486 550 
Q 717 550 960 352 
Q 1210 147 1414 147 
Q 1747 147 2012 480 
Q 2278 813 2278 1229 
Q 2278 1843 1850 2189 
Q 1293 2637 486 2637 
Q 410 2637 410 2688 
L 416 2720 
L 1114 4237 
L 2438 4237 
Q 2547 4237 2608 4269 
Q 2669 4301 2746 4403 
L 2803 4358 
z
" transform="scale(0.015625)"/>
       </defs>
       <use xlink:href="#STIXGeneral-Regular-35" transform="translate(0 0.203125)"/>
       <use xlink:href="#STIXGeneral-Regular-30" transform="translate(49.999985 0.203125)"/>
      </g>
     </g>
    </g>
   </g>
   <g id="patch_3">
    <path d="M 34.48 450.72 
L 34.48 7.2 
" style="fill: none; stroke: #000000; stroke-width: 0.6; stroke-linejoin: miter; stroke-linecap: square"/>
   </g>
   <g id="patch_4">
    <path d="M 34.48 450.72 
L 568.052969 450.72 
" style="fill: none; stroke: #000000; stroke-width: 0.6; stroke-linejoin: miter; stroke-linecap: square"/>
   </g>
  </g>
 </g>
 <defs>
  <clipPath id="pc55dbd3752">
   <rect x="34.48" y="7.2" width="533.572969" height="443.52"/>
  </clipPath>
 </defs>
</svg>
