<?xml version="1.0" encoding="utf-8" standalone="no"?>
<!DOCTYPE svg PUBLIC "-//W3C//DTD SVG 1.1//EN"
  "http://www.w3.org/Graphics/SVG/1.1/DTD/svg11.dtd">
<svg xmlns:xlink="http://www.w3.org/1999/xlink" width="259.529175pt" height="500.715625pt" viewBox="0 0 259.529175 500.715625" xmlns="http://www.w3.org/2000/svg" version="1.1">
 <metadata>
  <rdf:RDF xmlns:dc="http://purl.org/dc/elements/1.1/" xmlns:cc="http://creativecommons.org/ns#" xmlns:rdf="http://www.w3.org/1999/02/22-rdf-syntax-ns#">
   <cc:Work>
    <dc:type rdf:resource="http://purl.org/dc/dcmitype/StillImage"/>
    <dc:date>2022-09-16T16:54:17.794501</dc:date>
    <dc:format>image/svg+xml</dc:format>
    <dc:creator>
     <cc:Agent>
      <dc:title>Matplotlib v3.5.3, https://matplotlib.org/</dc:title>
     </cc:Agent>
    </dc:creator>
   </cc:Work>
  </rdf:RDF>
 </metadata>
 <defs>
  <style type="text/css">*{stroke-linejoin: round; stroke-linecap: butt}</style>
 </defs>
 <g id="figure_1">
  <g id="patch_1">
   <path d="M 0 500.715625 
L 259.529175 500.715625 
L 259.529175 0 
L 0 0 
z
" style="fill: #ffffff"/>
  </g>
  <g id="axes_1">
   <g id="patch_2">
    <path d="M 20.2 461.915625 
L 252.329175 461.915625 
L 252.329175 18.395625 
L 20.2 18.395625 
z
" style="fill: #ffffff"/>
   </g>
   <g id="matplotlib.axis_1">
    <g id="xtick_1">
     <g id="line2d_1">
      <defs>
       <path id="mdae422b022" d="M 0 0 
L 0 3.5 
" style="stroke: #323034; stroke-width: 0.8"/>
      </defs>
      <g>
       <use xlink:href="#mdae422b022" x="25.009954" y="461.915625" style="fill: #323034; stroke: #323034; stroke-width: 0.8"/>
      </g>
     </g>
     <g id="text_1">
      <!-- $\mathdefault{2}$ -->
      <g style="fill: #323034" transform="translate(22.009954 477.11125)scale(0.12 -0.12)">
       <defs>
        <path id="STIXGeneral-Regular-32" d="M 3034 877 
L 2688 0 
L 186 0 
L 186 77 
L 1325 1286 
Q 1773 1754 1965 2144 
Q 2157 2534 2157 2950 
Q 2157 3379 1920 3616 
Q 1683 3853 1267 3853 
Q 922 3853 720 3673 
Q 518 3494 326 3021 
L 192 3053 
Q 301 3648 630 3987 
Q 960 4326 1523 4326 
Q 2054 4326 2380 4006 
Q 2707 3686 2707 3200 
Q 2707 2477 1888 1613 
L 832 486 
L 2330 486 
Q 2541 486 2665 569 
Q 2790 653 2944 915 
L 3034 877 
z
" transform="scale(0.015625)"/>
       </defs>
       <use xlink:href="#STIXGeneral-Regular-32" transform="translate(0 0.40625)"/>
      </g>
     </g>
    </g>
    <g id="xtick_2">
     <g id="line2d_2">
      <g>
       <use xlink:href="#mdae422b022" x="84.272536" y="461.915625" style="fill: #323034; stroke: #323034; stroke-width: 0.8"/>
      </g>
     </g>
     <g id="text_2">
      <!-- $\mathdefault{3}$ -->
      <g style="fill: #323034" transform="translate(81.272536 477.11125)scale(0.12 -0.12)">
       <defs>
        <path id="STIXGeneral-Regular-33" d="M 390 3264 
L 288 3290 
Q 435 3770 748 4048 
Q 1062 4326 1542 4326 
Q 1990 4326 2265 4083 
Q 2541 3840 2541 3450 
Q 2541 2925 1946 2566 
Q 2298 2413 2477 2227 
Q 2758 1914 2758 1402 
Q 2758 890 2464 506 
Q 2246 211 1840 60 
Q 1434 -90 979 -90 
Q 262 -90 262 275 
Q 262 378 339 442 
Q 416 506 525 506 
Q 685 506 915 339 
Q 1197 141 1466 141 
Q 1818 141 2058 425 
Q 2298 710 2298 1120 
Q 2298 1856 1632 2048 
Q 1434 2112 979 2112 
L 979 2202 
Q 1338 2323 1517 2432 
Q 2035 2726 2035 3290 
Q 2035 3610 1852 3776 
Q 1670 3942 1344 3942 
Q 768 3942 390 3264 
z
" transform="scale(0.015625)"/>
       </defs>
       <use xlink:href="#STIXGeneral-Regular-33" transform="translate(0 0.40625)"/>
      </g>
     </g>
    </g>
    <g id="xtick_3">
     <g id="line2d_3">
      <g>
       <use xlink:href="#mdae422b022" x="143.535118" y="461.915625" style="fill: #323034; stroke: #323034; stroke-width: 0.8"/>
      </g>
     </g>
     <g id="text_3">
      <!-- $\mathdefault{4}$ -->
      <g style="fill: #323034" transform="translate(140.535118 477.11125)scale(0.12 -0.12)">
       <defs>
        <path id="STIXGeneral-Regular-34" d="M 3027 1069 
L 2368 1069 
L 2368 0 
L 1869 0 
L 1869 1069 
L 77 1069 
L 77 1478 
L 2086 4326 
L 2368 4326 
L 2368 1478 
L 3027 1478 
L 3027 1069 
z
M 1869 1478 
L 1869 3674 
L 333 1478 
L 1869 1478 
z
" transform="scale(0.015625)"/>
       </defs>
       <use xlink:href="#STIXGeneral-Regular-34" transform="translate(0 0.40625)"/>
      </g>
     </g>
    </g>
    <g id="xtick_4">
     <g id="line2d_4">
      <g>
       <use xlink:href="#mdae422b022" x="202.7977" y="461.915625" style="fill: #323034; stroke: #323034; stroke-width: 0.8"/>
      </g>
     </g>
     <g id="text_4">
      <!-- $\mathdefault{5}$ -->
      <g style="fill: #323034" transform="translate(199.7977 477.11125)scale(0.12 -0.12)">
       <defs>
        <path id="STIXGeneral-Regular-35" d="M 2803 4358 
L 2573 3814 
Q 2534 3731 2400 3731 
L 1158 3731 
L 902 3187 
Q 1606 3053 1920 2896 
Q 2234 2739 2502 2368 
Q 2726 2061 2726 1555 
Q 2726 1094 2576 780 
Q 2426 467 2099 224 
Q 1664 -90 1011 -90 
Q 646 -90 422 19 
Q 198 128 198 307 
Q 198 550 486 550 
Q 717 550 960 352 
Q 1210 147 1414 147 
Q 1747 147 2012 480 
Q 2278 813 2278 1229 
Q 2278 1843 1850 2189 
Q 1293 2637 486 2637 
Q 410 2637 410 2688 
L 416 2720 
L 1114 4237 
L 2438 4237 
Q 2547 4237 2608 4269 
Q 2669 4301 2746 4403 
L 2803 4358 
z
" transform="scale(0.015625)"/>
       </defs>
       <use xlink:href="#STIXGeneral-Regular-35" transform="translate(0 0.203125)"/>
      </g>
     </g>
    </g>
    <g id="text_5">
     <!-- $\times\mathdefault{10^{5}}\mathdefault{}$ -->
     <g style="fill: #323034" transform="translate(227.609175 490.91125)scale(0.12 -0.12)">
      <defs>
       <path id="STIXGeneral-Regular-d7" d="M 3821 141 
L 3526 -160 
L 2048 1312 
L 570 -160 
L 275 134 
L 1747 1613 
L 275 3091 
L 576 3386 
L 2048 1914 
L 3526 3386 
L 3821 3098 
L 2349 1613 
L 3821 141 
z
" transform="scale(0.015625)"/>
       <path id="STIXGeneral-Regular-31" d="M 2522 0 
L 755 0 
L 755 96 
Q 1107 115 1235 227 
Q 1363 339 1363 608 
L 1363 3482 
Q 1363 3795 1171 3795 
Q 1082 3795 883 3718 
L 710 3654 
L 710 3744 
L 1856 4326 
L 1914 4307 
L 1914 486 
Q 1914 275 2042 185 
Q 2170 96 2522 96 
L 2522 0 
z
" transform="scale(0.015625)"/>
       <path id="STIXGeneral-Regular-30" d="M 3046 2112 
Q 3046 1683 2963 1302 
Q 2880 922 2717 602 
Q 2554 282 2266 96 
Q 1978 -90 1600 -90 
Q 1210 -90 915 108 
Q 621 307 461 640 
Q 301 973 227 1350 
Q 154 1728 154 2150 
Q 154 2746 301 3222 
Q 448 3699 790 4012 
Q 1133 4326 1626 4326 
Q 2253 4326 2649 3712 
Q 3046 3098 3046 2112 
z
M 2432 2080 
Q 2432 3091 2217 3625 
Q 2003 4160 1587 4160 
Q 1190 4160 979 3622 
Q 768 3085 768 2106 
Q 768 1120 979 598 
Q 1190 77 1600 77 
Q 2003 77 2217 598 
Q 2432 1120 2432 2080 
z
" transform="scale(0.015625)"/>
      </defs>
      <use xlink:href="#STIXGeneral-Regular-d7" transform="translate(0 0.842187)"/>
      <use xlink:href="#STIXGeneral-Regular-31" transform="translate(63.999985 0.842187)"/>
      <use xlink:href="#STIXGeneral-Regular-30" transform="translate(113.999969 0.842187)"/>
      <use xlink:href="#STIXGeneral-Regular-35" transform="translate(165.574954 36.842187)scale(0.7)"/>
     </g>
    </g>
   </g>
   <g id="matplotlib.axis_2">
    <g id="ytick_1">
     <g id="line2d_5">
      <defs>
       <path id="mc3ba8e6c83" d="M 0 0 
L -3.5 0 
" style="stroke: #323034; stroke-width: 0.8"/>
      </defs>
      <g>
       <use xlink:href="#mc3ba8e6c83" x="20.2" y="422.037611" style="fill: #323034; stroke: #323034; stroke-width: 0.8"/>
      </g>
     </g>
     <g id="text_6">
      <!-- $\mathdefault{2}$ -->
      <g style="fill: #323034" transform="translate(7.2 426.135423)scale(0.12 -0.12)">
       <use xlink:href="#STIXGeneral-Regular-32" transform="translate(0 0.40625)"/>
      </g>
     </g>
    </g>
    <g id="ytick_2">
     <g id="line2d_6">
      <g>
       <use xlink:href="#mc3ba8e6c83" x="20.2" y="362.775029" style="fill: #323034; stroke: #323034; stroke-width: 0.8"/>
      </g>
     </g>
     <g id="text_7">
      <!-- $\mathdefault{3}$ -->
      <g style="fill: #323034" transform="translate(7.2 366.872841)scale(0.12 -0.12)">
       <use xlink:href="#STIXGeneral-Regular-33" transform="translate(0 0.40625)"/>
      </g>
     </g>
    </g>
    <g id="ytick_3">
     <g id="line2d_7">
      <g>
       <use xlink:href="#mc3ba8e6c83" x="20.2" y="303.512447" style="fill: #323034; stroke: #323034; stroke-width: 0.8"/>
      </g>
     </g>
     <g id="text_8">
      <!-- $\mathdefault{4}$ -->
      <g style="fill: #323034" transform="translate(7.2 307.610259)scale(0.12 -0.12)">
       <use xlink:href="#STIXGeneral-Regular-34" transform="translate(0 0.40625)"/>
      </g>
     </g>
    </g>
    <g id="ytick_4">
     <g id="line2d_8">
      <g>
       <use xlink:href="#mc3ba8e6c83" x="20.2" y="244.249865" style="fill: #323034; stroke: #323034; stroke-width: 0.8"/>
      </g>
     </g>
     <g id="text_9">
      <!-- $\mathdefault{5}$ -->
      <g style="fill: #323034" transform="translate(7.2 248.347677)scale(0.12 -0.12)">
       <use xlink:href="#STIXGeneral-Regular-35" transform="translate(0 0.203125)"/>
      </g>
     </g>
    </g>
    <g id="ytick_5">
     <g id="line2d_9">
      <g>
       <use xlink:href="#mc3ba8e6c83" x="20.2" y="184.987283" style="fill: #323034; stroke: #323034; stroke-width: 0.8"/>
      </g>
     </g>
     <g id="text_10">
      <!-- $\mathdefault{6}$ -->
      <g style="fill: #323034" transform="translate(7.2 189.085095)scale(0.12 -0.12)">
       <defs>
        <path id="STIXGeneral-Regular-36" d="M 2854 4378 
L 2867 4275 
Q 2112 4154 1606 3664 
Q 1101 3174 973 2451 
Q 1344 2739 1786 2739 
Q 2349 2739 2672 2380 
Q 2995 2022 2995 1402 
Q 2995 774 2669 378 
Q 2291 -90 1651 -90 
Q 870 -90 518 557 
Q 218 1107 218 1786 
Q 218 2835 915 3552 
Q 1312 3962 1731 4131 
Q 2150 4301 2854 4378 
z
M 2419 1203 
Q 2419 2445 1555 2445 
Q 1235 2445 1024 2275 
Q 813 2106 813 1702 
Q 813 954 1046 522 
Q 1280 90 1722 90 
Q 2061 90 2240 394 
Q 2419 698 2419 1203 
z
" transform="scale(0.015625)"/>
       </defs>
       <use xlink:href="#STIXGeneral-Regular-36" transform="translate(0 0.59375)"/>
      </g>
     </g>
    </g>
    <g id="ytick_6">
     <g id="line2d_10">
      <g>
       <use xlink:href="#mc3ba8e6c83" x="20.2" y="125.724701" style="fill: #323034; stroke: #323034; stroke-width: 0.8"/>
      </g>
     </g>
     <g id="text_11">
      <!-- $\mathdefault{7}$ -->
      <g style="fill: #323034" transform="translate(7.2 129.822514)scale(0.12 -0.12)">
       <defs>
        <path id="STIXGeneral-Regular-37" d="M 2874 4134 
L 1517 -51 
L 1101 -51 
L 2368 3763 
L 992 3763 
Q 717 3763 582 3667 
Q 448 3571 243 3238 
L 128 3296 
L 512 4237 
L 2874 4237 
L 2874 4134 
z
" transform="scale(0.015625)"/>
       </defs>
       <use xlink:href="#STIXGeneral-Regular-37" transform="translate(0 0.796875)"/>
      </g>
     </g>
    </g>
    <g id="ytick_7">
     <g id="line2d_11">
      <g>
       <use xlink:href="#mc3ba8e6c83" x="20.2" y="66.462119" style="fill: #323034; stroke: #323034; stroke-width: 0.8"/>
      </g>
     </g>
     <g id="text_12">
      <!-- $\mathdefault{8}$ -->
      <g style="fill: #323034" transform="translate(7.2 70.559932)scale(0.12 -0.12)">
       <defs>
        <path id="STIXGeneral-Regular-38" d="M 2848 992 
Q 2848 499 2505 204 
Q 2163 -90 1587 -90 
Q 1050 -90 704 204 
Q 358 499 358 954 
Q 358 1293 524 1533 
Q 691 1773 1190 2125 
Q 710 2522 553 2765 
Q 397 3008 397 3328 
Q 397 3782 745 4054 
Q 1094 4326 1638 4326 
Q 2106 4326 2410 4060 
Q 2714 3795 2714 3411 
Q 2714 3059 2531 2848 
Q 2349 2637 1856 2374 
Q 2432 1990 2640 1689 
Q 2848 1389 2848 992 
z
M 2272 3411 
Q 2272 3744 2086 3945 
Q 1901 4147 1574 4147 
Q 1248 4147 1059 3977 
Q 870 3808 870 3513 
Q 870 3219 1059 2979 
Q 1248 2739 1670 2490 
Q 1997 2682 2134 2896 
Q 2272 3110 2272 3411 
z
M 1734 1741 
L 1357 1997 
Q 1075 1766 960 1545 
Q 845 1325 845 1011 
Q 845 576 1065 333 
Q 1286 90 1658 90 
Q 1971 90 2166 285 
Q 2362 480 2362 794 
Q 2362 1082 2214 1299 
Q 2067 1517 1734 1741 
z
" transform="scale(0.015625)"/>
       </defs>
       <use xlink:href="#STIXGeneral-Regular-38" transform="translate(0 0.40625)"/>
      </g>
     </g>
    </g>
    <g id="text_13">
     <!-- $\times\mathdefault{10^{5}}\mathdefault{}$ -->
     <g style="fill: #323034" transform="translate(20.2 15.395625)scale(0.12 -0.12)">
      <use xlink:href="#STIXGeneral-Regular-d7" transform="translate(0 0.842187)"/>
      <use xlink:href="#STIXGeneral-Regular-31" transform="translate(63.999985 0.842187)"/>
      <use xlink:href="#STIXGeneral-Regular-30" transform="translate(113.999969 0.842187)"/>
      <use xlink:href="#STIXGeneral-Regular-35" transform="translate(165.574954 36.842187)scale(0.7)"/>
     </g>
    </g>
   </g>
   <g id="LineCollection_1">
    <path d="M 141.519282 412.590567 
L 142.688677 413.084643 
L 143.678991 414.007394 
L 144.420705 415.562826 
L 144.770605 417.300618 
L 144.841452 419.633882 
L 145.575105 421.081731 
L 146.132855 422.610005 
L 149.814314 424.712576 
L 150.615398 424.89317 
L 151.045433 424.752671 
L 154.262532 424.571292 
L 155.056795 424.214349 
L 155.474339 423.523475 
L 155.747825 423.120091 
L 156.171871 422.860879 
L 156.59209 422.888589 
L 158.30808 423.341952 
L 159.16063 423.12309 
L 161.530733 421.892203 
L 164.737069 421.87125 
L 165.182643 421.723238 
L 166.061184 421.097214 
L 166.543293 420.956769 
L 166.990849 421.090088 
L 167.987626 421.548803 
L 168.519908 421.431767 
L 169.168432 420.492928 
L 169.708563 417.873192 
L 170.435246 416.874363 
L 171.166548 416.427829 
L 171.637918 416.310787 
L 172.154554 416.40781 
L 172.450929 416.777779 
L 172.865056 417.948531 
L 173.959215 418.8254 
L 174.369981 420.232027 
L 174.654394 421.631864 
L 175.124427 422.270665 
L 175.456665 422.476356 
L 175.461603 422.940316 
L 175.153105 423.410275 
L 172.742456 424.499488 
L 173.405777 425.278824 
L 174.240879 425.522525 
L 175.728173 425.410405 
L 175.781533 425.096022 
L 176.119272 424.545219 
L 176.504397 424.372036 
L 176.799668 425.728632 
L 177.066343 425.996564 
L 178.744224 426.749836 
L 179.260437 427.199718 
L 179.500905 428.03906 
L 179.573814 429.663598 
L 179.297512 430.600294 
L 178.78258 431.451249 
L 178.525332 432.481501 
L 179.039592 433.966767 
L 179.661004 434.710398 
L 180.481389 435.26909 
L 181.399913 435.617124 
L 182.315552 435.723521 
L 183.033184 436.049498 
L 184.614313 437.538504 
L 185.29508 437.93686 
L 186.230269 437.821847 
L 187.586219 436.799199 
L 188.584689 436.349932 
L 189.648719 434.949778 
L 189.933174 434.285558 
L 189.894177 433.926723 
L 189.691382 433.581132 
L 189.487228 432.9244 
L 189.326767 431.615178 
L 189.524463 431.419034 
L 190.081223 431.735042 
L 191.008004 431.959293 
L 193.952078 430.969892 
L 194.508537 431.046365 
L 195.223314 430.602302 
L 196.214719 430.501941 
L 197.128866 430.759408 
L 197.601852 431.397444 
L 197.494562 432.689672 
L 197.07085 433.515404 
L 197.009189 434.189828 
L 197.948561 435.036798 
L 198.654577 435.184922 
L 200.357902 434.927955 
L 201.042104 434.979349 
L 201.589698 435.414178 
L 202.073556 436.182799 
L 202.346791 437.137859 
L 202.249122 438.148425 
L 204.084721 438.900868 
L 206.689806 441.755625 
L 208.539966 441.61987 
L 209.423203 440.865692 
L 210.160704 440.522237 
L 210.372913 440.254642 
L 210.612013 440.142035 
L 211.649414 441.060507 
L 212.260168 441.054739 
L 212.695852 440.878469 
L 213.025004 440.449715 
L 213.309045 439.670467 
L 212.857781 439.085226 
L 212.780224 438.555767 
L 213.268458 437.914015 
L 212.623091 436.673218 
L 213.14696 436.135316 
L 214.756479 436.033365 
L 215.222066 435.882825 
L 215.723006 435.251102 
L 216.154877 435.098534 
L 216.588456 435.294661 
L 217.273275 436.171475 
L 217.75752 436.374255 
L 218.536947 436.177896 
L 219.452681 435.674693 
L 220.310307 435.006319 
L 221.642313 433.528492 
L 222.353994 433.338219 
L 223.083049 433.555172 
L 224.316588 434.22002 
L 225.601453 434.41069 
L 226.269249 433.963069 
L 226.707824 433.832918 
L 227.863213 434.541456 
L 228.834926 434.425544 
L 231.145111 433.562189 
L 231.957209 433.498218 
L 232.79174 433.852034 
L 233.642641 434.857264 
L 234.273264 435.321427 
L 237.240685 436.320319 
L 238.529504 435.823727 
L 239.185822 435.797628 
L 239.49569 436.474927 
L 239.853843 436.978866 
L 240.632888 437.109594 
L 241.777849 436.626979 
L 241.777849 436.626979 
" clip-path="url(#pd62134dd4a)" style="fill: none; stroke: #0000cd; stroke-width: 2"/>
    <path d="M 47.645664 60.834527 
L 47.669631 60.819345 
L 49.015883 59.399233 
L 49.743913 58.688355 
L 52.009954 55.93689 
L 53.241358 54.803256 
L 53.853244 54.170253 
L 55.452382 51.678777 
L 58.0519 48.093429 
L 59.573913 46.424432 
L 60.110355 45.010939 
" clip-path="url(#pd62134dd4a)" style="fill: none; stroke: #0000cd; stroke-width: 2"/>
    <path d="M 60.113345 45.008355 
L 60.84973 44.259867 
L 61.464922 43.224955 
L 62.121585 42.320266 
L 62.994686 41.946547 
L 62.991169 41.70463 
L 63.34161 41.184341 
L 63.739393 40.71662 
L 63.885765 40.624739 
L 64.051779 40.463644 
L 64.208206 40.549393 
L 64.328292 40.507666 
L 64.392271 39.969764 
L 64.381368 39.68463 
L 64.351078 39.549306 
L 64.349016 39.347745 
L 64.525477 38.555625 
" clip-path="url(#pd62134dd4a)" style="fill: none; stroke: #0000cd; stroke-width: 2"/>
    <path d="M 41.542701 69.671585 
L 41.319825 69.882704 
L 41.203554 70.068686 
L 40.82623 70.464148 
L 40.463548 70.927368 
L 39.767389 72.056486 
L 39.421564 72.458469 
L 38.571674 72.970647 
L 37.930746 73.738819 
L 37.256208 74.255418 
L 36.921185 74.662933 
L 36.518048 74.876604 
" clip-path="url(#pd62134dd4a)" style="fill: none; stroke: #0000cd; stroke-width: 2"/>
    <path d="M 47.669631 60.819345 
L 46.985747 61.195495 
L 46.574434 61.619931 
L 46.231313 62.090022 
L 45.927647 62.593896 
L 44.732559 65.254862 
L 43.890111 65.744778 
L 41.542701 69.671585 
" clip-path="url(#pd62134dd4a)" style="fill: none; stroke: #0000cd; stroke-width: 2"/>
    <path d="M 137.07404 333.606591 
L 135.86682 336.374697 
L 135.779268 337.613787 
L 136.31877 339.385659 
L 136.962103 340.70971 
L 137.708543 341.870195 
L 139.422942 343.772442 
L 141.573353 345.349431 
L 142.186669 346.057986 
L 143.644917 348.502091 
L 144.317935 349.148485 
L 147.559412 351.431322 
L 148.376603 351.717108 
L 150.218401 351.681278 
L 151.829396 351.744189 
L 154.37385 352.5164 
L 155.072099 352.111332 
L 156.379776 350.480242 
L 157.441911 349.477443 
L 160.104083 345.895606 
L 161.166015 345.084526 
L 162.311851 344.78756 
L 167.196359 345.390023 
L 168.295134 345.150076 
L 171.674652 343.085521 
L 172.981246 342.978539 
L 174.589334 341.6551 
L 177.645118 338.427854 
L 179.38786 337.762662 
L 180.848084 338.090084 
L 181.33048 338.067645 
L 181.862755 337.658109 
L 182.224697 336.40029 
L 183.994977 335.436763 
L 186.808502 332.082001 
L 189.998682 329.455956 
L 191.065659 327.584262 
L 191.517357 325.467676 
L 192.260359 317.469599 
L 193.013273 315.277658 
L 193.135414 314.545645 
L 193.039606 314.02944 
L 192.376821 311.931881 
L 192.189031 311.653377 
L 191.926064 311.480802 
L 191.713642 311.259038 
L 191.677208 310.816909 
L 191.841469 310.103009 
L 191.886487 309.734616 
L 191.842081 309.389224 
L 191.295923 308.199077 
L 190.897324 307.564492 
L 190.773367 306.863537 
L 191.044408 305.458253 
L 191.558094 304.03269 
L 192.746972 301.54871 
L 193.103805 300.023591 
L 193.541512 291.976022 
L 194.248314 290.178685 
" clip-path="url(#pd62134dd4a)" style="fill: none; stroke: #0000cd; stroke-width: 2"/>
    <path d="M 75.620853 366.514712 
L 76.703803 366.818964 
L 77.450405 367.238596 
L 77.982682 368.603127 
L 78.690038 369.488439 
L 79.718053 370.267918 
L 80.752178 370.789547 
L 81.44092 370.922414 
L 82.781038 371.728881 
L 83.705199 371.748054 
L 84.603621 371.581275 
L 85.390515 370.92098 
L 85.728902 370.222072 
L 86.159741 368.650258 
L 86.437051 367.95543 
L 86.884878 367.40612 
L 87.411812 367.072928 
L 88.529537 366.815314 
L 92.21733 367.02516 
L 93.420187 366.54449 
L 94.256797 365.83712 
L 95.769489 363.970988 
L 97.200198 361.59572 
L 100.626471 353.929961 
L 101.326676 353.054962 
L 101.616483 352.833837 
L 101.764195 352.752817 
L 101.91155 352.695931 
L 102.455832 352.660834 
L 104.784681 353.08755 
L 106.474685 353.096427 
L 107.05878 353.259505 
L 108.185643 353.783317 
L 108.753684 353.945849 
L 109.549726 353.840014 
L 111.130706 353.150043 
L 111.932547 353.078499 
L 111.992143 353.285723 
L 111.972607 354.176165 
L 112.044467 354.455953 
L 112.467734 354.629563 
L 113.787456 354.447664 
L 114.469366 354.666547 
L 114.756313 354.967198 
L 114.898593 355.403196 
L 115.159825 356.009373 
L 117.060971 358.74769 
L 118.225356 359.898256 
L 119.261166 360.336371 
L 122.964483 359.415563 
L 124.244029 359.842885 
L 124.937041 360.679005 
L 125.396018 361.926592 
L 125.963045 364.811049 
L 126.024081 365.52763 
L 126.021689 367.000274 
L 126.13515 367.717167 
L 128.548141 373.800873 
L 129.649773 375.893211 
L 131.323363 378.228986 
L 132.007434 379.642676 
L 132.423697 380.341695 
L 132.603857 380.937845 
L 132.625386 381.332219 
L 132.578673 382.386172 
L 132.622692 382.925472 
L 132.859518 383.824907 
L 133.442766 385.47925 
L 133.679577 386.520767 
L 133.831061 388.506105 
L 133.928342 388.989214 
L 134.192529 389.867125 
L 134.293215 390.350227 
L 134.328883 391.589481 
L 134.027464 393.972959 
L 133.990836 395.072527 
L 134.183004 395.915343 
L 135.908232 400.764234 
L 136.346362 401.588748 
L 137.284087 402.717378 
L 137.353421 402.816762 
L 134.619168 406.816735 
L 133.291702 408.067643 
L 132.951306 408.626985 
L 133.203114 409.68191 
L 133.221774 410.041365 
L 133.070848 410.47532 
L 132.836939 410.887511 
L 131.711928 412.371741 
L 131.369332 412.466906 
L 131.001155 412.320542 
L 130.296762 412.333569 
L 129.777077 412.634268 
L 129.535553 413.118584 
L 129.3897 413.737437 
L 129.170337 414.420295 
L 128.784966 415.029901 
L 127.891558 416.079355 
L 127.591697 416.785807 
" clip-path="url(#pd62134dd4a)" style="fill: none; stroke: #0000cd; stroke-width: 2"/>
    <path d="M 36.518048 74.876604 
L 35.863816 75.92327 
L 34.273072 77.310156 
L 31.246866 80.892025 
L 30.751326 81.869483 
" clip-path="url(#pd62134dd4a)" style="fill: none; stroke: #0000cd; stroke-width: 2"/>
   </g>
   <g id="patch_3">
    <path d="M 20.2 461.915625 
L 20.2 18.395625 
" style="fill: none; stroke: #000000; stroke-width: 0.6; stroke-linejoin: miter; stroke-linecap: square"/>
   </g>
   <g id="patch_4">
    <path d="M 20.2 461.915625 
L 252.329175 461.915625 
" style="fill: none; stroke: #000000; stroke-width: 0.6; stroke-linejoin: miter; stroke-linecap: square"/>
   </g>
  </g>
 </g>
 <defs>
  <clipPath id="pd62134dd4a">
   <rect x="20.2" y="18.395625" width="232.129175" height="443.52"/>
  </clipPath>
 </defs>
</svg>
