<?xml version="1.0" encoding="utf-8" standalone="no"?>
<!DOCTYPE svg PUBLIC "-//W3C//DTD SVG 1.1//EN"
  "http://www.w3.org/Graphics/SVG/1.1/DTD/svg11.dtd">
<svg height="558pt" version="1.1" viewBox="0 0 552.642725 558" width="552.642725pt" xmlns="http://www.w3.org/2000/svg" xmlns:xlink="http://www.w3.org/1999/xlink">
 <metadata>
  <rdf:RDF xmlns:cc="http://creativecommons.org/ns#" xmlns:dc="http://purl.org/dc/elements/1.1/" xmlns:rdf="http://www.w3.org/1999/02/22-rdf-syntax-ns#">
   <cc:Work>
    <dc:type rdf:resource="http://purl.org/dc/dcmitype/StillImage"/>
    <dc:date>2022-08-20T18:00:44.320578</dc:date>
    <dc:format>image/svg+xml</dc:format>
    <dc:creator>
     <cc:Agent>
      <dc:title>Matplotlib v3.4.3, https://matplotlib.org/</dc:title>
     </cc:Agent>
    </dc:creator>
   </cc:Work>
  </rdf:RDF>
 </metadata>
 <defs>
  <style type="text/css">*{stroke-linecap:butt;stroke-linejoin:round;}</style>
 </defs>
 <g id="figure_1">
  <g id="patch_1">
   <path d="M -0 558 
L 552.642725 558 
L 552.642725 0 
L -0 0 
z
" style="fill:none;"/>
  </g>
  <g id="axes_1">
   <g id="PatchCollection_1">
    <path clip-path="url(#p700fa84b36)" d="M 178.523019 255.81187 
L 184.148151 260.723901 
L 182.663217 265.396861 
L 197.565214 254.089885 
L 202.741588 254.71757 
L 221.038325 258.595366 
L 222.502854 263.362771 
L 218.132049 266.333122 
L 229.208414 272.628157 
L 234.703328 264.039145 
L 232.363122 261.124936 
L 236.408421 250.526676 
L 241.63798 253.505473 
L 250.906856 251.233853 
L 259.864649 256.046966 
L 268.970527 246.823812 
L 272.112327 248.940373 
L 280.137816 257.617372 
L 279.238292 309.543681 
L 290.721662 325.903238 
L 285.611382 330.362018 
L 286.560076 335.56623 
L 282.313999 346.540186 
L 266.932471 347.137515 
L 259.050107 358.719781 
L 245.147039 360.375192 
L 235.74102 351.980935 
L 235.388635 366.996241 
L 230.662044 365.346295 
L 212.091963 389.51068 
L 200.037114 403.832223 
L 198.100921 401.543712 
L 184.711229 410.145144 
L 176.503852 408.433591 
L 166.60433 422.313311 
L 155.380864 424.256979 
L 154.310433 438.837913 
L 158.863617 445.270617 
L 154.650321 449.001801 
L 155.373407 454.189121 
L 136.66569 460.802221 
L 137.325675 470.058166 
L 121.753285 475.876152 
L 108.370026 467.242377 
L 105.560205 482.204474 
L 95.035978 472.290537 
L 86.597543 477.515615 
L 82.866808 473.268084 
L 83.879137 464.098089 
L 71.36209 454.556372 
L 57.292049 460.513965 
L 49.127409 455.030986 
L 59.515476 431.237827 
L 48.40633 422.469363 
L 43.069908 428.004558 
L 31.665578 414.058264 
L 38.849195 401.646554 
L 45.64023 400.70135 
L 47.542577 386.971223 
L 59.139735 388.542125 
L 63.01212 380.36955 
L 69.141162 381.694426 
L 74.563058 369.342881 
L 85.566324 372.943401 
L 84.164897 364.987987 
L 88.444245 366.888878 
L 92.19436 362.510136 
L 101.931376 370.160899 
L 116.339338 362.315332 
L 126.555966 368.69587 
L 134.924826 364.798151 
L 135.056028 358.742138 
L 130.460106 355.475582 
L 130.822899 341.147629 
L 139.402985 343.770601 
L 147.39467 357.019158 
L 152.14814 353.823698 
L 156.705299 358.217344 
L 159.921633 352.196655 
L 158.688162 345.196382 
L 146.234258 339.536484 
L 144.943135 332.00794 
L 149.26772 330.673128 
L 150.926593 323.714091 
L 161.673438 329.737811 
L 166.644076 315.696574 
L 161.626726 315.954027 
L 151.746585 305.809466 
L 145.009719 304.905995 
L 140.675219 308.833523 
L 132.234242 295.854293 
L 117.399894 292.792975 
L 112.795491 275.378862 
L 118.941948 263.284721 
L 110.856841 263.729526 
L 110.000094 260.676653 
L 121.380576 249.697232 
L 136.917646 250.484446 
L 141.381381 239.012028 
L 158.109718 251.330783 
L 169.990136 250.26972 
L 178.523019 255.81187 
" style="fill:#b2df8a;stroke:#000000;stroke-width:0.2;"/>
    <path clip-path="url(#p700fa84b36)" d="M 415.130204 281.16053 
L 415.725571 289.761018 
L 421.975408 294.859854 
L 418.445984 299.154633 
L 419.973656 308.015008 
L 426.328306 308.678962 
L 429.221142 315.222506 
L 424.315122 319.978435 
L 425.38162 329.860079 
L 443.181862 341.037781 
L 432.339095 342.64997 
L 431.834201 350.649104 
L 450.1672 378.995936 
L 440.859071 386.542814 
L 438.405528 397.587865 
L 444.769685 401.480069 
L 442.371336 405.435419 
L 437.622823 405.077608 
L 431.137462 415.029303 
L 418.473314 423.002106 
L 421.999747 429.857754 
L 416.173837 436.429618 
L 420.768284 441.978227 
L 426.946046 440.790971 
L 423.699882 443.45518 
L 426.835209 445.641346 
L 422.82818 445.117546 
L 423.521477 452.092929 
L 416.039685 454.147885 
L 415.119304 461.330989 
L 425.401984 467.599195 
L 425.558017 471.705132 
L 416.107253 473.959363 
L 413.569261 482.496208 
L 399.184613 484.010969 
L 396.397657 507.233081 
L 389.901315 496.759574 
L 379.868623 496.570235 
L 377.811186 503.444266 
L 366.279137 501.88032 
L 370.456089 511.414584 
L 367.351084 526.090909 
L 356.882009 517.76576 
L 339.829684 517.473529 
L 330.300903 495.954026 
L 339.217926 483.59796 
L 340.184036 466.247441 
L 361.624539 453.59676 
L 362.713409 432.884246 
L 356.019281 428.743531 
L 357.103193 420.718065 
L 350.866754 404.682038 
L 354.34205 396.691846 
L 341.601853 377.99802 
L 344.680551 368.238147 
L 328.628098 349.432038 
L 316.033034 343.077833 
L 309.407498 333.118189 
L 311.993718 331.064723 
L 316.368497 337.274304 
L 319.897921 333.243885 
L 321.33766 341.218674 
L 324.624553 334.382948 
L 334.700022 345.915979 
L 338.288614 344.345574 
L 338.38851 337.123718 
L 324.096794 328.197712 
L 333.984885 315.149921 
L 351.911371 311.786485 
L 342.846756 297.352162 
L 341.125764 286.161989 
L 361.58131 266.515505 
L 371.659279 266.263567 
L 372.566712 277.033776 
L 381.540895 274.520602 
L 382.700325 268.334371 
L 391.153183 260.245809 
L 390.408216 249.17691 
L 396.794213 236.697136 
L 393.643972 250.70906 
L 417.850126 262.013502 
L 410.660526 263.547639 
L 403.966397 275.956319 
L 406.37372 278.384984 
L 411.748864 274.906235 
L 415.130204 281.16053 
" style="fill:#b2df8a;stroke:#000000;stroke-width:0.2;"/>
    <path clip-path="url(#p700fa84b36)" d="M 340.957316 165.47818 
L 349.532936 175.373238 
L 347.858655 187.630883 
L 358.782431 196.568762 
L 366.413781 197.975663 
L 368.331576 220.741097 
L 378.654042 222.718548 
L 379.860182 229.505089 
L 396.794213 236.697136 
L 390.408216 249.17691 
L 391.153183 260.245809 
L 382.700325 268.334371 
L 381.540895 274.520602 
L 372.566712 277.033776 
L 371.659279 266.263567 
L 361.58131 266.515505 
L 341.125764 286.161989 
L 342.846756 297.352162 
L 351.911371 311.786485 
L 333.984885 315.149921 
L 324.096794 328.197712 
L 338.38851 337.123718 
L 338.288614 344.345574 
L 334.700022 345.915979 
L 324.624553 334.382948 
L 321.33766 341.218674 
L 319.897921 333.243885 
L 316.368497 337.274304 
L 311.993718 331.064723 
L 309.407498 333.118189 
L 316.033034 343.077833 
L 296.748841 335.472778 
L 294.867842 328.565956 
L 286.560076 335.56623 
L 285.611382 330.362018 
L 290.721662 325.903238 
L 279.238292 309.543681 
L 280.137816 257.617372 
L 272.112327 248.940373 
L 271.215302 246.021195 
L 280.847462 240.060621 
L 284.915626 224.101105 
L 277.857721 223.715422 
L 273.712565 215.987652 
L 277.685298 210.516547 
L 280.990097 212.640611 
L 279.663694 209.529113 
L 287.070461 201.966785 
L 286.399044 187.656221 
L 294.449405 171.776195 
L 298.424104 174.885706 
L 308.09851 171.694717 
L 306.507737 165.617837 
L 312.149751 155.967266 
L 317.262531 158.602659 
L 324.047092 154.821793 
L 334.503219 166.147102 
L 340.957316 165.47818 
" style="fill:#33a02c;stroke:#000000;stroke-width:0.2;"/>
    <path clip-path="url(#p700fa84b36)" d="M 316.033034 343.077833 
L 328.628098 349.432038 
L 344.680551 368.238147 
L 341.601853 377.99802 
L 354.34205 396.691846 
L 350.866754 404.682038 
L 357.103193 420.718065 
L 356.019281 428.743531 
L 350.804145 431.804353 
L 354.092553 439.950597 
L 350.398615 446.250102 
L 344.66117 437.321165 
L 338.876031 435.35365 
L 330.359538 434.750359 
L 325.18714 442.53581 
L 320.992732 442.530345 
L 322.210305 456.599901 
L 329.128567 465.893605 
L 307.260612 473.985695 
L 314.589853 483.473755 
L 312.377858 486.90625 
L 306.796979 486.090269 
L 302.253711 491.523565 
L 292.0277 486.379966 
L 268.504354 499.266787 
L 261.316763 496.518068 
L 268.012859 480.538679 
L 252.970767 468.086726 
L 255.937645 467.731896 
L 251.724389 461.585461 
L 252.838582 455.212376 
L 247.37694 454.897788 
L 247.881343 447.620735 
L 241.132554 441.650225 
L 238.478274 427.439522 
L 243.541352 427.061838 
L 240.620202 417.909231 
L 228.722369 414.822078 
L 225.234166 404.128926 
L 222.070526 403.927613 
L 212.091963 389.51068 
L 230.662044 365.346295 
L 235.388635 366.996241 
L 235.74102 351.980935 
L 245.147039 360.375192 
L 259.050107 358.719781 
L 266.932471 347.137515 
L 282.313999 346.540186 
L 286.560076 335.56623 
L 294.867842 328.565956 
L 296.748841 335.472778 
L 316.033034 343.077833 
" style="fill:#b2df8a;stroke:#000000;stroke-width:0.2;"/>
    <path clip-path="url(#p700fa84b36)" d="M 279.269105 112.643929 
L 301.235933 143.123221 
L 311.065879 148.641027 
L 312.149751 155.967266 
L 306.507737 165.617837 
L 308.09851 171.694717 
L 298.424104 174.885706 
L 294.449405 171.776195 
L 264.29159 159.848589 
L 264.541087 164.893271 
L 251.65379 165.793265 
L 237.499258 181.632501 
L 228.628946 181.10423 
L 223.476912 173.903737 
L 231.385622 167.186254 
L 221.102901 161.065158 
L 226.58544 151.624295 
L 225.760982 144.947105 
L 232.70555 140.046551 
L 230.862289 131.658753 
L 240.980987 129.350865 
L 245.995345 122.054932 
L 262.684919 126.067914 
L 270.600554 120.297673 
L 273.568456 108.557865 
L 274.809343 113.16276 
L 279.269105 112.643929 
" style="fill:#b2df8a;stroke:#000000;stroke-width:0.2;"/>
    <path clip-path="url(#p700fa84b36)" d="M 273.712565 215.987652 
L 277.857721 223.715422 
L 284.915626 224.101105 
L 280.847462 240.060621 
L 271.215302 246.021195 
L 272.112327 248.940373 
L 268.970527 246.823812 
L 259.864649 256.046966 
L 250.906856 251.233853 
L 241.63798 253.505473 
L 236.408421 250.526676 
L 232.363122 261.124936 
L 234.703328 264.039145 
L 229.208414 272.628157 
L 218.132049 266.333122 
L 222.502854 263.362771 
L 221.038325 258.595366 
L 202.741588 254.71757 
L 200.814861 234.538344 
L 212.145149 228.543937 
L 211.88971 221.937792 
L 220.135809 212.154073 
L 224.115507 214.128991 
L 225.321156 205.892822 
L 230.092 202.06918 
L 235.604819 211.306245 
L 244.08554 209.950517 
L 248.558701 214.447553 
L 252.986174 211.854886 
L 256.028569 218.013792 
L 273.712565 215.987652 
" style="fill:#b2df8a;stroke:#000000;stroke-width:0.2;"/>
    <path clip-path="url(#p700fa84b36)" d="M 294.449405 171.776195 
L 286.399044 187.656221 
L 287.070461 201.966785 
L 279.663694 209.529113 
L 280.990097 212.640611 
L 277.685298 210.516547 
L 273.712565 215.987652 
L 256.028569 218.013792 
L 252.986174 211.854886 
L 248.558701 214.447553 
L 244.08554 209.950517 
L 235.604819 211.306245 
L 230.092 202.06918 
L 233.942504 195.043568 
L 226.952699 188.156173 
L 228.628946 181.10423 
L 237.499258 181.632501 
L 251.65379 165.793265 
L 264.541087 164.893271 
L 264.29159 159.848589 
L 294.449405 171.776195 
" style="fill:#b2df8a;stroke:#000000;stroke-width:0.2;"/>
    <path clip-path="url(#p700fa84b36)" d="M 496.656714 130.150997 
L 504.002345 143.996386 
L 513.634997 147.602371 
L 514.987747 156.262477 
L 520.977147 159.505186 
L 517.553069 161.241082 
L 519.220876 166.901973 
L 508.967534 168.494735 
L 486.669218 168.459461 
L 471.021311 184.278824 
L 466.683327 181.409378 
L 463.031142 184.852852 
L 462.093347 192.1463 
L 448.99634 184.215231 
L 442.464759 196.757604 
L 443.05316 203.523278 
L 436.580706 210.813746 
L 430.500341 206.490648 
L 434.476557 197.889217 
L 430.91677 188.634712 
L 412.095267 180.776724 
L 380.914224 175.280779 
L 370.75578 182.07979 
L 368.566157 189.687279 
L 353.730293 185.508807 
L 347.858655 187.630883 
L 349.532936 175.373238 
L 340.957316 165.47818 
L 346.846327 156.659041 
L 357.525604 158.375064 
L 367.499168 154.350159 
L 373.511432 143.90199 
L 391.210343 147.530829 
L 398.1763 142.539306 
L 408.90573 142.023456 
L 415.258947 134.270298 
L 413.398313 128.324629 
L 417.911219 125.132149 
L 418.368951 117.561375 
L 426.91724 117.301487 
L 436.72629 125.213628 
L 440.685132 121.543553 
L 447.965162 122.790428 
L 448.416912 119.57112 
L 452.202757 124.145162 
L 463.993235 114.175085 
L 479.600414 121.827338 
L 487.342601 117.444075 
L 496.656714 130.150997 
" style="fill:#b2df8a;stroke:#000000;stroke-width:0.2;"/>
    <path clip-path="url(#p700fa84b36)" d="M 462.093347 192.1463 
L 466.721065 206.661605 
L 477.738796 220.442457 
L 486.989766 218.252316 
L 482.686078 220.592497 
L 488.669496 235.098411 
L 483.562697 240.867163 
L 503.365266 257.811679 
L 505.905717 270.806807 
L 501.642267 278.013758 
L 485.414399 277.171893 
L 485.388052 267.62322 
L 477.260208 263.771259 
L 474.039858 267.902534 
L 467.042637 266.341071 
L 461.145144 270.147822 
L 462.723502 275.012605 
L 458.542535 277.669858 
L 447.211755 277.495921 
L 435.790503 284.668144 
L 427.518548 283.800941 
L 427.485769 278.515697 
L 421.274202 280.89319 
L 419.796233 275.455869 
L 415.130204 281.16053 
L 411.748864 274.906235 
L 406.37372 278.384984 
L 403.966397 275.956319 
L 410.660526 263.547639 
L 417.850126 262.013502 
L 393.643972 250.70906 
L 396.794213 236.697136 
L 379.860182 229.505089 
L 378.654042 222.718548 
L 368.331576 220.741097 
L 366.413781 197.975663 
L 358.782431 196.568762 
L 347.858655 187.630883 
L 353.730293 185.508807 
L 368.566157 189.687279 
L 370.75578 182.07979 
L 380.914224 175.280779 
L 412.095267 180.776724 
L 430.91677 188.634712 
L 434.476557 197.889217 
L 430.500341 206.490648 
L 436.580706 210.813746 
L 443.05316 203.523278 
L 442.464759 196.757604 
L 448.99634 184.215231 
L 462.093347 192.1463 
" style="fill:#b2df8a;stroke:#000000;stroke-width:0.2;"/>
    <path clip-path="url(#p700fa84b36)" d="M 386.706329 35.1751 
L 394.329771 41.228132 
L 401.062662 39.939028 
L 405.903573 56.049131 
L 416.125159 55.998903 
L 423.079644 62.666206 
L 414.15967 66.380498 
L 412.830276 70.595289 
L 416.311022 72.14428 
L 408.700487 78.685341 
L 416.826857 87.994496 
L 405.590975 91.93837 
L 409.365429 107.991339 
L 418.368951 117.561375 
L 417.911219 125.132149 
L 413.398313 128.324629 
L 415.258947 134.270298 
L 408.90573 142.023456 
L 398.1763 142.539306 
L 391.210343 147.530829 
L 373.511432 143.90199 
L 367.499168 154.350159 
L 357.525604 158.375064 
L 346.846327 156.659041 
L 340.957316 165.47818 
L 334.503219 166.147102 
L 324.047092 154.821793 
L 317.262531 158.602659 
L 312.149751 155.967266 
L 311.065879 148.641027 
L 301.235933 143.123221 
L 279.269105 112.643929 
L 291.341369 107.669298 
L 304.014448 95.184059 
L 317.010575 96.781789 
L 333.751327 85.305893 
L 330.422148 81.765539 
L 339.604567 83.006452 
L 365.306062 69.472619 
L 370.59229 77.317193 
L 369.01889 59.148209 
L 363.167617 52.192699 
L 357.773093 51.993871 
L 360.766809 47.343317 
L 365.687253 47.412376 
L 365.229029 40.599503 
L 369.640113 40.525924 
L 375.94211 31.909091 
L 386.706329 35.1751 
" style="fill:#b2df8a;stroke:#000000;stroke-width:0.2;"/>
   </g>
   <g id="matplotlib.axis_1"/>
   <g id="matplotlib.axis_2"/>
   <g id="text_1">
    <!-- Cheshire East -->
    <g transform="translate(140.469037 361.345262)scale(0.15 -0.15)">
     <defs>
      <path d="M 4205 973 
L 4397 813 
Q 3968 282 3549 80 
Q 3130 -122 2554 -122 
Q 1536 -122 925 496 
Q 314 1114 314 2067 
Q 314 3091 938 3756 
Q 1562 4422 2534 4422 
Q 2989 4422 3533 4198 
Q 3738 4109 3827 4109 
Q 3917 4109 3977 4169 
Q 4038 4230 4109 4403 
L 4282 4403 
L 4282 2899 
L 4122 2899 
Q 3981 3296 3693 3635 
Q 3213 4211 2624 4211 
Q 2106 4211 1776 3676 
Q 1446 3142 1446 2208 
Q 1446 1216 1792 672 
Q 1933 454 2192 320 
Q 2451 186 2733 186 
Q 3142 186 3539 403 
Q 3802 550 4205 973 
z
" id="STIXGeneral-Bold-43" transform="scale(0.015625)"/>
      <path d="M 3418 0 
L 1920 0 
L 1920 154 
Q 2080 173 2147 259 
Q 2214 346 2214 544 
L 2214 1978 
Q 2214 2323 2144 2460 
Q 2074 2598 1888 2598 
Q 1658 2598 1440 2381 
Q 1331 2272 1331 2227 
L 1331 544 
Q 1331 346 1395 262 
Q 1459 179 1638 154 
L 1638 0 
L 102 0 
L 102 154 
Q 333 198 387 256 
Q 442 314 442 570 
L 442 3782 
Q 442 4006 384 4067 
Q 326 4128 96 4173 
L 96 4326 
L 1331 4326 
L 1331 2534 
Q 1747 3027 2272 3027 
Q 2656 3027 2880 2784 
Q 3104 2541 3104 2157 
L 3104 557 
Q 3104 339 3177 246 
Q 3251 154 3418 154 
L 3418 0 
z
" id="STIXGeneral-Bold-68" transform="scale(0.015625)"/>
      <path d="M 2579 806 
L 2733 717 
Q 2451 269 2166 89 
Q 1882 -90 1466 -90 
Q 890 -90 525 342 
Q 160 774 160 1434 
Q 160 2150 528 2588 
Q 896 3027 1498 3027 
Q 2029 3027 2317 2707 
Q 2656 2336 2694 1568 
L 1082 1568 
Q 1101 1299 1133 1116 
Q 1165 934 1241 748 
Q 1318 563 1468 467 
Q 1619 371 1843 371 
Q 2048 371 2214 470 
Q 2381 570 2579 806 
z
M 1907 1805 
L 1907 1939 
Q 1907 2406 1850 2528 
Q 1773 2688 1699 2758 
Q 1626 2829 1498 2829 
Q 1267 2829 1158 2595 
Q 1050 2362 1050 1805 
L 1907 1805 
z
" id="STIXGeneral-Bold-65" transform="scale(0.015625)"/>
      <path d="M 2176 2086 
L 2016 2086 
Q 1894 2445 1715 2611 
Q 1498 2816 1235 2816 
Q 1056 2816 934 2710 
Q 813 2605 813 2445 
Q 813 2278 957 2147 
Q 1101 2016 1427 1882 
Q 1907 1683 2108 1452 
Q 2310 1222 2310 883 
Q 2310 454 2035 182 
Q 1760 -90 1325 -90 
Q 992 -90 634 58 
Q 538 96 486 96 
Q 416 96 320 -83 
L 160 -83 
L 160 973 
L 339 973 
Q 544 128 1216 128 
Q 1434 128 1565 243 
Q 1696 358 1696 544 
Q 1696 698 1555 829 
Q 1414 960 1082 1101 
Q 602 1306 387 1539 
Q 173 1773 173 2093 
Q 173 2496 457 2761 
Q 742 3027 1178 3027 
Q 1395 3027 1677 2931 
Q 1818 2886 1875 2886 
Q 1984 2886 2035 3014 
L 2176 3014 
L 2176 2086 
z
" id="STIXGeneral-Bold-73" transform="scale(0.015625)"/>
      <path d="M 1376 3923 
Q 1376 3712 1232 3571 
Q 1088 3430 877 3430 
Q 666 3430 525 3571 
Q 384 3712 384 3923 
Q 384 4134 528 4278 
Q 672 4422 890 4422 
Q 1088 4422 1232 4275 
Q 1376 4128 1376 3923 
z
M 1638 0 
L 102 0 
L 102 154 
Q 326 205 384 275 
Q 442 346 442 563 
L 442 2387 
Q 442 2598 374 2675 
Q 307 2752 96 2797 
L 96 2950 
L 1331 2950 
L 1331 544 
Q 1331 339 1398 259 
Q 1466 179 1638 154 
L 1638 0 
z
" id="STIXGeneral-Bold-69" transform="scale(0.015625)"/>
      <path d="M 1395 2950 
L 1395 2426 
Q 1619 2752 1817 2889 
Q 2016 3027 2259 3027 
Q 2483 3027 2630 2883 
Q 2778 2739 2778 2522 
Q 2778 2330 2666 2208 
Q 2554 2086 2374 2086 
Q 2138 2086 1990 2330 
Q 1901 2477 1811 2477 
Q 1645 2477 1533 2285 
Q 1421 2093 1421 1811 
L 1421 678 
Q 1421 371 1507 272 
Q 1594 173 1882 154 
L 1882 0 
L 186 0 
L 186 154 
Q 397 192 464 265 
Q 531 339 531 538 
L 531 2387 
Q 531 2611 460 2688 
Q 390 2765 179 2797 
L 179 2950 
L 1395 2950 
z
" id="STIXGeneral-Bold-72" transform="scale(0.015625)"/>
      <path id="STIXGeneral-Bold-20" transform="scale(0.015625)"/>
      <path d="M 4102 1331 
L 3846 0 
L 102 0 
L 102 160 
Q 448 198 557 294 
Q 666 390 666 646 
L 666 3712 
Q 666 3955 550 4051 
Q 435 4147 102 4166 
L 102 4326 
L 3795 4326 
L 3795 3040 
L 3635 3040 
Q 3526 3680 3216 3894 
Q 2906 4109 2118 4109 
Q 1875 4109 1788 4032 
Q 1702 3955 1702 3763 
L 1702 2323 
Q 2221 2330 2451 2531 
Q 2682 2733 2739 3277 
L 2906 3277 
L 2906 1114 
L 2739 1114 
Q 2694 1677 2464 1891 
Q 2234 2106 1702 2106 
L 1702 557 
Q 1702 352 1814 275 
Q 1926 198 2234 198 
Q 2982 198 3398 544 
Q 3558 672 3667 838 
Q 3776 1005 3923 1331 
L 4102 1331 
z
" id="STIXGeneral-Bold-45" transform="scale(0.015625)"/>
      <path d="M 3027 410 
L 3123 275 
Q 2784 -90 2406 -90 
Q 2170 -90 2051 9 
Q 1933 109 1882 352 
Q 1395 -90 864 -90 
Q 544 -90 352 80 
Q 160 250 160 589 
Q 160 1018 589 1306 
Q 909 1517 1875 1792 
L 1875 2227 
Q 1875 2541 1756 2681 
Q 1638 2822 1357 2822 
Q 1178 2822 1059 2758 
Q 941 2694 941 2586 
Q 941 2515 1011 2438 
Q 1133 2291 1133 2170 
Q 1133 2003 1011 1894 
Q 890 1786 698 1786 
Q 499 1786 390 1901 
Q 282 2016 282 2221 
Q 282 2598 618 2812 
Q 954 3027 1504 3027 
Q 2093 3027 2425 2803 
Q 2758 2579 2758 2170 
L 2758 499 
Q 2758 320 2893 320 
Q 2938 320 2963 346 
L 3027 410 
z
M 1875 621 
L 1875 1568 
Q 1094 1350 1094 794 
Q 1094 589 1187 477 
Q 1280 365 1427 365 
Q 1696 365 1875 621 
z
" id="STIXGeneral-Bold-61" transform="scale(0.015625)"/>
      <path d="M 1965 717 
L 2125 646 
Q 1926 250 1712 86 
Q 1498 -77 1178 -77 
Q 845 -77 653 105 
Q 461 288 461 608 
L 461 2669 
L 122 2669 
L 122 2842 
Q 435 3053 646 3299 
Q 858 3546 1190 4032 
L 1350 4032 
L 1350 2950 
L 1958 2950 
L 1958 2669 
L 1350 2669 
L 1350 762 
Q 1350 378 1600 378 
Q 1786 378 1965 717 
z
" id="STIXGeneral-Bold-74" transform="scale(0.015625)"/>
     </defs>
     <use xlink:href="#STIXGeneral-Bold-43"/>
     <use x="72.199982" xlink:href="#STIXGeneral-Bold-68"/>
     <use x="127.799973" xlink:href="#STIXGeneral-Bold-65"/>
     <use x="172.199966" xlink:href="#STIXGeneral-Bold-73"/>
     <use x="211.09996" xlink:href="#STIXGeneral-Bold-68"/>
     <use x="266.699951" xlink:href="#STIXGeneral-Bold-69"/>
     <use x="294.499939" xlink:href="#STIXGeneral-Bold-72"/>
     <use x="338.899933" xlink:href="#STIXGeneral-Bold-65"/>
     <use x="383.299927" xlink:href="#STIXGeneral-Bold-20"/>
     <use x="408.299911" xlink:href="#STIXGeneral-Bold-45"/>
     <use x="474.999908" xlink:href="#STIXGeneral-Bold-61"/>
     <use x="524.999893" xlink:href="#STIXGeneral-Bold-73"/>
     <use x="563.899887" xlink:href="#STIXGeneral-Bold-74"/>
    </g>
   </g>
   <g id="text_2">
    <!-- Derbyshire Dales -->
    <g transform="translate(339.981035 382.769375)scale(0.15 -0.15)">
     <defs>
      <path d="M 90 4326 
L 2086 4326 
Q 3181 4326 3798 3763 
Q 4416 3200 4416 2208 
Q 4416 1715 4221 1267 
Q 4026 819 3680 518 
Q 3085 0 2067 0 
L 90 0 
L 90 160 
Q 365 166 493 281 
Q 621 397 621 627 
L 621 3738 
Q 621 3955 509 4044 
Q 397 4134 90 4166 
L 90 4326 
z
M 1658 3827 
L 1658 640 
Q 1658 416 1738 320 
Q 1818 224 2029 224 
Q 2656 224 2982 685 
Q 3130 896 3216 1289 
Q 3302 1683 3302 2112 
Q 3302 3002 3040 3462 
Q 2669 4109 1997 4109 
Q 1658 4109 1658 3827 
z
" id="STIXGeneral-Bold-44" transform="scale(0.015625)"/>
      <path d="M 1350 4326 
L 1350 2669 
Q 1690 3027 2131 3027 
Q 2662 3027 2998 2611 
Q 3334 2195 3334 1530 
Q 3334 806 2931 358 
Q 2528 -90 1888 -90 
Q 1440 -90 1043 275 
L 538 -83 
L 461 -83 
L 461 3802 
Q 461 3994 397 4061 
Q 333 4128 109 4173 
L 109 4326 
L 1350 4326 
z
M 1350 2304 
L 1350 621 
Q 1350 390 1472 252 
Q 1594 115 1792 115 
Q 2394 115 2394 1414 
Q 2394 2682 1798 2682 
Q 1638 2682 1536 2595 
Q 1434 2509 1350 2304 
z
" id="STIXGeneral-Bold-62" transform="scale(0.015625)"/>
      <path d="M 3085 2950 
L 3085 2797 
Q 2931 2778 2854 2710 
Q 2778 2643 2701 2445 
L 1754 -102 
Q 1466 -877 1261 -1101 
Q 1062 -1312 723 -1312 
Q 448 -1312 275 -1171 
Q 102 -1030 102 -806 
Q 102 -621 211 -499 
Q 320 -378 499 -378 
Q 659 -378 771 -474 
Q 883 -570 883 -710 
Q 883 -736 870 -800 
L 864 -838 
Q 864 -883 896 -915 
Q 928 -947 973 -947 
Q 1216 -947 1395 -422 
L 1510 -83 
L 749 1773 
Q 435 2547 320 2707 
Q 269 2771 102 2797 
L 102 2950 
L 1696 2950 
L 1696 2797 
L 1594 2790 
Q 1363 2771 1363 2630 
Q 1363 2586 1491 2259 
L 1952 1069 
L 2387 2272 
Q 2458 2477 2458 2586 
Q 2458 2701 2387 2745 
Q 2317 2790 2112 2797 
L 2112 2950 
L 3085 2950 
z
" id="STIXGeneral-Bold-79" transform="scale(0.015625)"/>
      <path d="M 1638 0 
L 102 0 
L 102 154 
Q 429 179 429 557 
L 429 3757 
Q 429 4147 96 4173 
L 96 4326 
L 1318 4326 
L 1318 557 
Q 1318 346 1395 253 
Q 1472 160 1638 154 
L 1638 0 
z
" id="STIXGeneral-Bold-6c" transform="scale(0.015625)"/>
     </defs>
     <use xlink:href="#STIXGeneral-Bold-44"/>
     <use x="72.199982" xlink:href="#STIXGeneral-Bold-65"/>
     <use x="116.599976" xlink:href="#STIXGeneral-Bold-72"/>
     <use x="160.999969" xlink:href="#STIXGeneral-Bold-62"/>
     <use x="216.59996" xlink:href="#STIXGeneral-Bold-79"/>
     <use x="266.599945" xlink:href="#STIXGeneral-Bold-73"/>
     <use x="305.499939" xlink:href="#STIXGeneral-Bold-68"/>
     <use x="361.09993" xlink:href="#STIXGeneral-Bold-69"/>
     <use x="388.899918" xlink:href="#STIXGeneral-Bold-72"/>
     <use x="433.299911" xlink:href="#STIXGeneral-Bold-65"/>
     <use x="477.699905" xlink:href="#STIXGeneral-Bold-20"/>
     <use x="502.69989" xlink:href="#STIXGeneral-Bold-44"/>
     <use x="574.899872" xlink:href="#STIXGeneral-Bold-61"/>
     <use x="624.899857" xlink:href="#STIXGeneral-Bold-6c"/>
     <use x="652.699844" xlink:href="#STIXGeneral-Bold-65"/>
     <use x="697.099838" xlink:href="#STIXGeneral-Bold-73"/>
    </g>
   </g>
   <g id="text_3">
    <!-- High Peak -->
    <g transform="translate(299.917261 253.397141)scale(0.15 -0.15)">
     <defs>
      <path d="M 4858 0 
L 2688 0 
L 2688 160 
Q 3034 198 3146 291 
Q 3258 384 3258 627 
L 3258 2086 
L 1715 2086 
L 1715 627 
Q 1715 371 1824 284 
Q 1933 198 2285 160 
L 2285 0 
L 134 0 
L 134 160 
Q 474 205 576 291 
Q 678 378 678 627 
L 678 3693 
Q 678 3955 569 4044 
Q 461 4134 134 4166 
L 134 4326 
L 2285 4326 
L 2285 4166 
Q 1946 4141 1830 4048 
Q 1715 3955 1715 3693 
L 1715 2387 
L 3258 2387 
L 3258 3693 
Q 3258 3955 3142 4048 
Q 3027 4141 2688 4166 
L 2688 4326 
L 4858 4326 
L 4858 4166 
Q 4531 4141 4412 4045 
Q 4294 3949 4294 3693 
L 4294 627 
Q 4294 378 4400 291 
Q 4506 205 4858 160 
L 4858 0 
z
" id="STIXGeneral-Bold-48" transform="scale(0.015625)"/>
      <path d="M 1626 435 
L 1958 435 
Q 2477 435 2784 227 
Q 3091 19 3091 -333 
Q 3091 -787 2652 -1052 
Q 2214 -1318 1421 -1318 
Q 179 -1318 179 -730 
Q 179 -339 794 -250 
Q 493 -141 381 -25 
Q 269 90 269 275 
Q 269 557 454 733 
Q 640 909 1030 1024 
Q 678 1120 457 1382 
Q 237 1645 237 1997 
Q 237 2464 598 2745 
Q 960 3027 1536 3027 
Q 1869 3027 2253 2886 
L 3078 2886 
L 3078 2547 
L 2566 2547 
Q 2822 2317 2822 1920 
Q 2822 1318 2234 1075 
Q 2080 1011 1971 998 
Q 1862 986 1421 986 
Q 1229 986 1104 899 
Q 979 813 979 672 
Q 979 538 1113 486 
Q 1248 435 1626 435 
z
M 1958 1997 
Q 1958 2445 1859 2637 
Q 1760 2829 1529 2829 
Q 1299 2829 1206 2643 
Q 1114 2458 1114 1990 
Q 1114 1542 1210 1353 
Q 1306 1165 1536 1165 
Q 1766 1165 1862 1353 
Q 1958 1542 1958 1997 
z
M 2016 -333 
L 966 -333 
Q 832 -442 787 -512 
Q 742 -582 742 -685 
Q 742 -1114 1600 -1114 
Q 2061 -1114 2323 -995 
Q 2586 -877 2586 -691 
Q 2586 -333 2016 -333 
z
" id="STIXGeneral-Bold-67" transform="scale(0.015625)"/>
      <path d="M 102 4326 
L 2118 4326 
Q 2938 4326 3389 4035 
Q 3840 3744 3840 3168 
Q 3840 2784 3625 2499 
Q 3411 2214 3014 2067 
Q 2810 1990 2563 1968 
Q 2317 1946 1677 1939 
L 1677 710 
Q 1677 384 1766 294 
Q 1856 205 2234 160 
L 2234 0 
L 102 0 
L 102 160 
Q 314 179 390 218 
Q 538 275 589 409 
Q 640 544 640 806 
L 640 3539 
Q 640 3910 541 4022 
Q 442 4134 102 4166 
L 102 4326 
z
M 1677 3878 
L 1677 2163 
Q 2278 2170 2508 2368 
Q 2739 2566 2739 3098 
Q 2739 3635 2566 3868 
Q 2394 4102 1997 4102 
Q 1677 4102 1677 3878 
z
" id="STIXGeneral-Bold-50" transform="scale(0.015625)"/>
      <path d="M 3475 0 
L 1978 0 
L 1978 154 
Q 2246 166 2246 275 
Q 2246 352 2093 563 
L 1485 1421 
L 1338 1267 
L 1338 538 
Q 1338 314 1392 250 
Q 1446 186 1670 154 
L 1670 0 
L 141 0 
L 141 154 
Q 448 179 448 538 
L 448 3802 
Q 448 4147 141 4173 
L 141 4326 
L 1338 4326 
L 1338 1568 
L 2157 2387 
Q 2291 2522 2291 2630 
Q 2291 2746 2067 2778 
L 1914 2803 
L 1914 2950 
L 3283 2950 
L 3283 2803 
Q 2982 2765 2768 2617 
Q 2554 2470 2074 1965 
L 3315 250 
Q 3386 154 3475 154 
L 3475 0 
z
" id="STIXGeneral-Bold-6b" transform="scale(0.015625)"/>
     </defs>
     <use xlink:href="#STIXGeneral-Bold-48"/>
     <use x="77.799988" xlink:href="#STIXGeneral-Bold-69"/>
     <use x="105.599976" xlink:href="#STIXGeneral-Bold-67"/>
     <use x="155.59996" xlink:href="#STIXGeneral-Bold-68"/>
     <use x="211.199951" xlink:href="#STIXGeneral-Bold-20"/>
     <use x="236.199936" xlink:href="#STIXGeneral-Bold-50"/>
     <use x="297.299927" xlink:href="#STIXGeneral-Bold-65"/>
     <use x="341.699921" xlink:href="#STIXGeneral-Bold-61"/>
     <use x="391.699905" xlink:href="#STIXGeneral-Bold-6b"/>
    </g>
   </g>
   <g id="text_4">
    <!-- Staffordshire Moorlands -->
    <g transform="translate(210.581223 409.752058)scale(0.15 -0.15)">
     <defs>
      <path d="M 3098 3034 
L 2918 3034 
Q 2752 3578 2470 3866 
Q 2125 4224 1683 4224 
Q 1357 4224 1168 4048 
Q 979 3872 979 3590 
Q 979 3360 1113 3213 
Q 1248 3066 1638 2861 
Q 1754 2797 2077 2633 
Q 2400 2470 2586 2368 
Q 2899 2195 3091 1897 
Q 3283 1600 3283 1242 
Q 3283 634 2844 256 
Q 2406 -122 1696 -122 
Q 1306 -122 864 32 
Q 666 96 602 96 
Q 525 96 480 48 
Q 435 0 410 -122 
L 224 -122 
L 224 1466 
L 410 1466 
Q 557 851 794 550 
Q 1158 90 1715 90 
Q 2086 90 2304 285 
Q 2522 480 2522 813 
Q 2522 1120 2157 1376 
Q 1997 1491 1376 1792 
Q 806 2067 544 2368 
Q 282 2669 282 3136 
Q 282 3744 656 4083 
Q 1030 4422 1683 4422 
Q 2035 4422 2432 4275 
Q 2624 4211 2701 4211 
Q 2790 4211 2832 4256 
Q 2874 4301 2906 4429 
L 3098 4429 
L 3098 3034 
z
" id="STIXGeneral-Bold-53" transform="scale(0.015625)"/>
      <path d="M 90 2950 
L 454 2950 
Q 454 3789 710 4096 
Q 979 4422 1574 4422 
Q 1984 4422 2237 4243 
Q 2490 4064 2490 3782 
Q 2490 3603 2381 3488 
Q 2272 3373 2093 3373 
Q 1933 3373 1821 3481 
Q 1709 3590 1709 3738 
Q 1709 3866 1779 3971 
Q 1850 4077 1850 4102 
Q 1850 4224 1664 4224 
Q 1491 4224 1417 4112 
Q 1344 4000 1344 3718 
L 1344 2950 
L 1894 2950 
L 1894 2669 
L 1344 2669 
L 1344 685 
Q 1344 365 1440 262 
Q 1536 160 1869 154 
L 1869 0 
L 90 0 
L 90 154 
Q 307 179 380 259 
Q 454 339 454 557 
L 454 2669 
L 90 2669 
L 90 2950 
z
" id="STIXGeneral-Bold-66" transform="scale(0.015625)"/>
      <path d="M 3046 1466 
Q 3046 794 2633 352 
Q 2221 -90 1600 -90 
Q 992 -90 576 348 
Q 160 787 160 1459 
Q 160 2157 573 2592 
Q 986 3027 1626 3027 
Q 2234 3027 2640 2585 
Q 3046 2144 3046 1466 
z
M 2106 1395 
Q 2106 2214 1997 2521 
Q 1888 2829 1606 2829 
Q 1312 2829 1206 2525 
Q 1101 2221 1101 1395 
Q 1101 698 1216 403 
Q 1331 109 1606 109 
Q 1882 109 1994 393 
Q 2106 678 2106 1395 
z
" id="STIXGeneral-Bold-6f" transform="scale(0.015625)"/>
      <path d="M 3418 128 
L 3021 77 
Q 2496 6 2170 -83 
L 2170 333 
Q 1946 96 1760 3 
Q 1574 -90 1318 -90 
Q 813 -90 486 332 
Q 160 755 160 1414 
Q 160 2112 509 2569 
Q 858 3027 1389 3027 
Q 1606 3027 1776 2940 
Q 1946 2854 2150 2630 
L 2150 3802 
Q 2150 4026 2067 4086 
Q 1984 4147 1664 4173 
L 1664 4326 
L 3040 4326 
L 3040 646 
Q 3040 442 3120 365 
Q 3200 288 3418 275 
L 3418 128 
z
M 2150 717 
L 2150 2272 
Q 2080 2458 1945 2563 
Q 1811 2669 1651 2669 
Q 1107 2669 1107 1466 
Q 1107 269 1606 269 
Q 1837 269 2029 506 
Q 2150 666 2150 717 
z
" id="STIXGeneral-Bold-64" transform="scale(0.015625)"/>
      <path d="M 5894 0 
L 3770 0 
L 3770 160 
Q 4122 192 4230 301 
Q 4339 410 4339 698 
L 4339 3872 
L 2726 0 
L 2554 0 
L 941 3802 
L 941 826 
Q 941 454 1069 320 
Q 1197 186 1587 160 
L 1587 0 
L 90 0 
L 90 160 
Q 467 198 569 291 
Q 672 384 672 691 
L 672 3693 
Q 672 3955 563 4048 
Q 454 4141 102 4166 
L 102 4326 
L 1722 4326 
L 2995 1306 
L 4282 4326 
L 5894 4326 
L 5894 4166 
Q 5542 4141 5436 4022 
Q 5331 3904 5331 3546 
L 5331 806 
Q 5331 442 5427 317 
Q 5523 192 5894 160 
L 5894 0 
z
" id="STIXGeneral-Bold-4d" transform="scale(0.015625)"/>
      <path d="M 3450 0 
L 1952 0 
L 1952 154 
Q 2112 173 2179 259 
Q 2246 346 2246 538 
L 2246 2054 
Q 2246 2598 1920 2598 
Q 1690 2598 1472 2381 
Q 1363 2272 1363 2227 
L 1363 538 
Q 1363 352 1430 265 
Q 1498 179 1670 154 
L 1670 0 
L 134 0 
L 134 154 
Q 346 198 410 275 
Q 474 352 474 557 
L 474 2406 
Q 474 2611 410 2688 
Q 346 2765 134 2797 
L 134 2950 
L 1357 2950 
L 1357 2470 
L 1363 2470 
Q 1677 3027 2272 3027 
Q 2669 3027 2902 2780 
Q 3136 2534 3136 2118 
L 3136 538 
Q 3136 320 3200 243 
Q 3264 166 3450 154 
L 3450 0 
z
" id="STIXGeneral-Bold-6e" transform="scale(0.015625)"/>
     </defs>
     <use xlink:href="#STIXGeneral-Bold-53"/>
     <use x="55.599991" xlink:href="#STIXGeneral-Bold-74"/>
     <use x="88.899979" xlink:href="#STIXGeneral-Bold-61"/>
     <use x="138.899963" xlink:href="#STIXGeneral-Bold-66"/>
     <use x="172.199951" xlink:href="#STIXGeneral-Bold-66"/>
     <use x="205.499939" xlink:href="#STIXGeneral-Bold-6f"/>
     <use x="255.499924" xlink:href="#STIXGeneral-Bold-72"/>
     <use x="299.899918" xlink:href="#STIXGeneral-Bold-64"/>
     <use x="355.499908" xlink:href="#STIXGeneral-Bold-73"/>
     <use x="394.399902" xlink:href="#STIXGeneral-Bold-68"/>
     <use x="449.999893" xlink:href="#STIXGeneral-Bold-69"/>
     <use x="477.799881" xlink:href="#STIXGeneral-Bold-72"/>
     <use x="522.199875" xlink:href="#STIXGeneral-Bold-65"/>
     <use x="566.599869" xlink:href="#STIXGeneral-Bold-20"/>
     <use x="591.599854" xlink:href="#STIXGeneral-Bold-4d"/>
     <use x="685.999847" xlink:href="#STIXGeneral-Bold-6f"/>
     <use x="735.999832" xlink:href="#STIXGeneral-Bold-6f"/>
     <use x="785.999817" xlink:href="#STIXGeneral-Bold-72"/>
     <use x="830.399811" xlink:href="#STIXGeneral-Bold-6c"/>
     <use x="858.199799" xlink:href="#STIXGeneral-Bold-61"/>
     <use x="908.199783" xlink:href="#STIXGeneral-Bold-6e"/>
     <use x="963.799774" xlink:href="#STIXGeneral-Bold-64"/>
     <use x="1019.399765" xlink:href="#STIXGeneral-Bold-73"/>
    </g>
   </g>
   <g id="text_5">
    <!-- Oldham -->
    <g transform="translate(240.62642 146.794066)scale(0.15 -0.15)">
     <defs>
      <path d="M 4755 2144 
Q 4755 1146 4118 512 
Q 3482 -122 2483 -122 
Q 1491 -122 857 512 
Q 224 1146 224 2138 
Q 224 3155 870 3788 
Q 1517 4422 2522 4422 
Q 3488 4422 4121 3779 
Q 4755 3136 4755 2144 
z
M 3622 2099 
Q 3622 3123 3324 3667 
Q 3027 4211 2464 4211 
Q 1933 4211 1645 3664 
Q 1357 3117 1357 2112 
Q 1357 1107 1651 598 
Q 1946 90 2496 90 
Q 3046 90 3334 602 
Q 3622 1114 3622 2099 
z
" id="STIXGeneral-Bold-4f" transform="scale(0.015625)"/>
      <path d="M 5210 0 
L 3693 0 
L 3693 154 
Q 3872 166 3936 246 
Q 4000 326 4000 531 
L 4000 1990 
Q 4000 2598 3661 2598 
Q 3475 2598 3290 2438 
Q 3232 2394 3174 2323 
Q 3117 2253 3117 2227 
L 3117 531 
Q 3117 346 3181 259 
Q 3245 173 3411 154 
L 3411 0 
L 1926 0 
L 1926 154 
Q 2099 166 2163 249 
Q 2227 333 2227 531 
L 2227 2067 
Q 2227 2355 2147 2476 
Q 2067 2598 1882 2598 
Q 1760 2598 1552 2454 
Q 1344 2310 1344 2202 
L 1344 531 
Q 1344 346 1405 262 
Q 1466 179 1632 154 
L 1632 0 
L 102 0 
L 102 154 
Q 314 192 384 272 
Q 454 352 454 550 
L 454 2387 
Q 454 2611 384 2688 
Q 314 2765 96 2797 
L 96 2950 
L 1325 2950 
L 1325 2470 
L 1344 2470 
Q 1530 2765 1744 2896 
Q 1958 3027 2266 3027 
Q 2566 3027 2752 2899 
Q 2938 2771 3085 2470 
Q 3334 2778 3542 2902 
Q 3750 3027 4026 3027 
Q 4422 3027 4656 2784 
Q 4890 2541 4890 2118 
L 4890 531 
Q 4890 326 4957 243 
Q 5024 160 5210 154 
L 5210 0 
z
" id="STIXGeneral-Bold-6d" transform="scale(0.015625)"/>
     </defs>
     <use xlink:href="#STIXGeneral-Bold-4f"/>
     <use x="77.799988" xlink:href="#STIXGeneral-Bold-6c"/>
     <use x="105.599976" xlink:href="#STIXGeneral-Bold-64"/>
     <use x="161.199966" xlink:href="#STIXGeneral-Bold-68"/>
     <use x="216.799957" xlink:href="#STIXGeneral-Bold-61"/>
     <use x="266.799942" xlink:href="#STIXGeneral-Bold-6d"/>
    </g>
   </g>
   <g id="text_6">
    <!-- Stockport -->
    <g transform="translate(209.650831 237.299483)scale(0.15 -0.15)">
     <defs>
      <path d="M 2637 698 
L 2752 582 
Q 2490 224 2202 67 
Q 1914 -90 1530 -90 
Q 922 -90 541 326 
Q 160 742 160 1421 
Q 160 2125 595 2576 
Q 1030 3027 1677 3027 
Q 2099 3027 2380 2828 
Q 2662 2630 2662 2323 
Q 2662 2138 2544 2026 
Q 2426 1914 2227 1914 
Q 2061 1914 1965 2035 
Q 1869 2157 1869 2381 
Q 1869 2496 1865 2547 
Q 1862 2598 1849 2665 
Q 1837 2733 1811 2761 
Q 1786 2790 1731 2809 
Q 1677 2829 1600 2829 
Q 1357 2829 1209 2544 
Q 1062 2259 1062 1747 
Q 1062 1094 1299 716 
Q 1536 339 1952 339 
Q 2323 339 2637 698 
z
" id="STIXGeneral-Bold-63" transform="scale(0.015625)"/>
      <path d="M 1357 2950 
L 1357 2509 
Q 1517 2790 1712 2908 
Q 1907 3027 2195 3027 
Q 2739 3027 3046 2659 
Q 3354 2291 3354 1594 
Q 3354 838 3024 377 
Q 2694 -83 2125 -83 
Q 1907 -83 1753 -3 
Q 1600 77 1370 301 
L 1370 -506 
Q 1370 -838 1475 -992 
Q 1581 -1146 1862 -1158 
L 1862 -1312 
L 122 -1312 
L 122 -1158 
Q 346 -1120 413 -1040 
Q 480 -960 480 -755 
L 480 2381 
Q 480 2592 409 2678 
Q 339 2765 128 2797 
L 128 2950 
L 1357 2950 
z
M 1370 2214 
L 1370 685 
Q 1446 499 1577 384 
Q 1709 269 1862 269 
Q 2406 269 2406 1498 
Q 2406 2662 1920 2662 
Q 1683 2662 1485 2426 
Q 1370 2291 1370 2214 
z
" id="STIXGeneral-Bold-70" transform="scale(0.015625)"/>
     </defs>
     <use xlink:href="#STIXGeneral-Bold-53"/>
     <use x="55.599991" xlink:href="#STIXGeneral-Bold-74"/>
     <use x="88.899979" xlink:href="#STIXGeneral-Bold-6f"/>
     <use x="138.899963" xlink:href="#STIXGeneral-Bold-63"/>
     <use x="183.299957" xlink:href="#STIXGeneral-Bold-6b"/>
     <use x="238.899948" xlink:href="#STIXGeneral-Bold-70"/>
     <use x="294.499939" xlink:href="#STIXGeneral-Bold-6f"/>
     <use x="344.499924" xlink:href="#STIXGeneral-Bold-72"/>
     <use x="388.899918" xlink:href="#STIXGeneral-Bold-74"/>
    </g>
   </g>
   <g id="text_7">
    <!-- Tameside -->
    <g transform="translate(227.682633 191.599871)scale(0.15 -0.15)">
     <defs>
      <path d="M 4070 3040 
L 3885 3040 
Q 3802 3610 3523 3856 
Q 3245 4102 2656 4122 
L 2656 749 
Q 2656 384 2761 288 
Q 2867 192 3283 160 
L 3283 0 
L 998 0 
L 998 160 
Q 1408 192 1513 291 
Q 1619 390 1619 749 
L 1619 4122 
Q 1024 4102 745 3856 
Q 467 3610 384 3040 
L 198 3040 
L 218 4326 
L 4058 4326 
L 4070 3040 
z
" id="STIXGeneral-Bold-54" transform="scale(0.015625)"/>
     </defs>
     <use xlink:href="#STIXGeneral-Bold-54"/>
     <use x="66.699997" xlink:href="#STIXGeneral-Bold-61"/>
     <use x="116.699982" xlink:href="#STIXGeneral-Bold-6d"/>
     <use x="199.999969" xlink:href="#STIXGeneral-Bold-65"/>
     <use x="244.399963" xlink:href="#STIXGeneral-Bold-73"/>
     <use x="283.299957" xlink:href="#STIXGeneral-Bold-69"/>
     <use x="311.099945" xlink:href="#STIXGeneral-Bold-64"/>
     <use x="366.699936" xlink:href="#STIXGeneral-Bold-65"/>
    </g>
   </g>
   <g id="text_8">
    <!-- Barnsley -->
    <g transform="translate(401.938672 163.359631)scale(0.15 -0.15)">
     <defs>
      <path d="M 2726 2336 
L 2726 2330 
Q 3270 2259 3616 1955 
Q 3962 1651 3962 1203 
Q 3962 672 3501 336 
Q 3040 0 2208 0 
L 102 0 
L 102 160 
Q 454 198 560 294 
Q 666 390 666 659 
L 666 3648 
Q 666 3930 547 4035 
Q 429 4141 102 4166 
L 102 4326 
L 2131 4326 
Q 2906 4326 3325 4060 
Q 3744 3795 3744 3302 
Q 3744 2925 3507 2685 
Q 3270 2445 2726 2336 
z
M 1690 3789 
L 1690 2387 
Q 2272 2387 2480 2579 
Q 2688 2771 2688 3258 
Q 2688 4134 2054 4134 
Q 1862 4134 1776 4054 
Q 1690 3974 1690 3789 
z
M 1690 2195 
L 1690 627 
Q 1690 397 1786 301 
Q 1882 205 2093 205 
Q 2464 205 2662 461 
Q 2861 717 2861 1203 
Q 2861 2195 1856 2195 
L 1690 2195 
z
" id="STIXGeneral-Bold-42" transform="scale(0.015625)"/>
     </defs>
     <use xlink:href="#STIXGeneral-Bold-42"/>
     <use x="66.699997" xlink:href="#STIXGeneral-Bold-61"/>
     <use x="116.699982" xlink:href="#STIXGeneral-Bold-72"/>
     <use x="161.099976" xlink:href="#STIXGeneral-Bold-6e"/>
     <use x="216.699966" xlink:href="#STIXGeneral-Bold-73"/>
     <use x="255.59996" xlink:href="#STIXGeneral-Bold-6c"/>
     <use x="283.399948" xlink:href="#STIXGeneral-Bold-65"/>
     <use x="327.799942" xlink:href="#STIXGeneral-Bold-79"/>
    </g>
   </g>
   <g id="text_9">
    <!-- Sheffield -->
    <g transform="translate(408.646899 232.30175)scale(0.15 -0.15)">
     <use xlink:href="#STIXGeneral-Bold-53"/>
     <use x="55.599991" xlink:href="#STIXGeneral-Bold-68"/>
     <use x="111.199982" xlink:href="#STIXGeneral-Bold-65"/>
     <use x="155.599976" xlink:href="#STIXGeneral-Bold-66"/>
     <use x="188.899963" xlink:href="#STIXGeneral-Bold-66"/>
     <use x="222.199951" xlink:href="#STIXGeneral-Bold-69"/>
     <use x="249.999939" xlink:href="#STIXGeneral-Bold-65"/>
     <use x="294.399933" xlink:href="#STIXGeneral-Bold-6c"/>
     <use x="322.199921" xlink:href="#STIXGeneral-Bold-64"/>
    </g>
   </g>
   <g id="text_10">
    <!-- Kirklees -->
    <g transform="translate(325.355183 102.225544)scale(0.15 -0.15)">
     <defs>
      <path d="M 4922 0 
L 2784 0 
L 2784 160 
Q 3085 166 3181 198 
Q 3277 230 3277 294 
Q 3277 378 3117 582 
L 1958 2022 
L 1786 1862 
L 1786 608 
Q 1786 371 1891 288 
Q 1997 205 2342 160 
L 2342 0 
L 192 0 
L 192 160 
Q 544 192 646 281 
Q 749 371 749 646 
L 749 3667 
Q 749 3962 640 4054 
Q 531 4147 192 4166 
L 192 4326 
L 2349 4326 
L 2349 4166 
Q 2003 4141 1894 4035 
Q 1786 3930 1786 3629 
L 1786 2202 
L 3142 3578 
Q 3296 3731 3347 3801 
Q 3398 3872 3398 3949 
Q 3398 4045 3331 4089 
Q 3264 4134 3091 4147 
L 2867 4166 
L 2867 4326 
L 4717 4326 
L 4717 4166 
Q 4218 4109 3866 3869 
Q 3514 3629 2656 2714 
L 4608 294 
Q 4710 166 4922 160 
L 4922 0 
z
" id="STIXGeneral-Bold-4b" transform="scale(0.015625)"/>
     </defs>
     <use xlink:href="#STIXGeneral-Bold-4b"/>
     <use x="77.799988" xlink:href="#STIXGeneral-Bold-69"/>
     <use x="105.599976" xlink:href="#STIXGeneral-Bold-72"/>
     <use x="149.999969" xlink:href="#STIXGeneral-Bold-6b"/>
     <use x="205.59996" xlink:href="#STIXGeneral-Bold-6c"/>
     <use x="233.399948" xlink:href="#STIXGeneral-Bold-65"/>
     <use x="277.799942" xlink:href="#STIXGeneral-Bold-65"/>
     <use x="322.199936" xlink:href="#STIXGeneral-Bold-73"/>
    </g>
   </g>
  </g>
 </g>
 <defs>
  <clipPath id="p700fa84b36">
   <rect height="543.6" width="538.242725" x="7.2" y="7.2"/>
  </clipPath>
 </defs>
</svg>
