<?xml version="1.0" encoding="utf-8" standalone="no"?>
<!DOCTYPE svg PUBLIC "-//W3C//DTD SVG 1.1//EN"
  "http://www.w3.org/Graphics/SVG/1.1/DTD/svg11.dtd">
<svg height="577.659375pt" version="1.1" viewBox="0 0 544.164807 577.659375" width="544.164807pt" xmlns="http://www.w3.org/2000/svg" xmlns:xlink="http://www.w3.org/1999/xlink">
 <metadata>
  <rdf:RDF xmlns:cc="http://creativecommons.org/ns#" xmlns:dc="http://purl.org/dc/elements/1.1/" xmlns:rdf="http://www.w3.org/1999/02/22-rdf-syntax-ns#">
   <cc:Work>
    <dc:type rdf:resource="http://purl.org/dc/dcmitype/StillImage"/>
    <dc:date>2022-08-20T18:00:41.867777</dc:date>
    <dc:format>image/svg+xml</dc:format>
    <dc:creator>
     <cc:Agent>
      <dc:title>Matplotlib v3.4.3, https://matplotlib.org/</dc:title>
     </cc:Agent>
    </dc:creator>
   </cc:Work>
  </rdf:RDF>
 </metadata>
 <defs>
  <style type="text/css">*{stroke-linecap:butt;stroke-linejoin:round;}</style>
 </defs>
 <g id="figure_1">
  <g id="patch_1">
   <path d="M 0 577.659375 
L 544.164807 577.659375 
L 544.164807 0 
L 0 0 
z
" style="fill:none;"/>
  </g>
  <g id="axes_1">
   <g id="PatchCollection_1">
    <path clip-path="url(#p59c81d344c)" d="M 506.933066 234.641389 
L 506.661464 234.985296 
L 506.676711 234.921008 
L 506.933064 234.57965 
L 512.145512 227.638792 
L 510.187702 230.52031 
L 506.933066 234.641389 
" style="fill:#808080;stroke:#999999;stroke-width:0.2;"/>
    <path clip-path="url(#p59c81d344c)" d="M 413.300809 58.414194 
L 418.518088 60.527557 
L 422.577076 59.375368 
L 426.23047 63.619553 
L 433.228123 62.123886 
L 439.750899 64.46762 
L 442.647607 56.58874 
L 442.676102 56.600934 
L 451.486194 60.028153 
L 463.816899 64.824927 
L 467.042882 67.991661 
L 467.677793 68.701057 
L 462.673273 72.606068 
L 451.486169 74.521212 
L 451.417814 74.532914 
L 443.5054 87.787487 
L 443.668312 98.229548 
L 443.741778 102.938381 
L 451.486205 125.291534 
L 454.959422 135.316465 
L 467.10543 153.676333 
L 477.574105 169.500749 
L 506.790239 207.483382 
L 506.933026 207.896344 
L 507.357217 209.12317 
L 512.635606 224.38909 
L 512.884589 226.551015 
L 512.152757 227.62813 
L 512.489566 225.368751 
L 512.019062 223.892235 
L 506.933146 219.793642 
L 500.564748 214.661533 
L 491.513602 212.176128 
L 475.860675 218.868842 
L 466.729131 217.199891 
L 459.136774 209.123173 
L 451.486199 200.984523 
L 445.890036 195.031347 
L 443.491072 195.20606 
L 442.735331 187.492292 
L 440.416682 188.811512 
L 440.127765 186.438847 
L 440.178449 186.327824 
L 439.553933 185.220158 
L 439.986094 186.632859 
L 439.092093 187.65757 
L 438.874045 187.570684 
L 440.527984 180.956777 
L 438.123811 178.36463 
L 438.331454 172.857921 
L 433.590471 172.747862 
L 426.442547 163.288064 
L 418.068674 166.0582 
L 418.686095 169.60013 
L 412.709743 170.437665 
L 413.612708 177.140353 
L 408.173911 179.951231 
L 407.495801 182.944533 
L 411.220169 183.167726 
L 407.624447 188.950814 
L 408.289841 192.608469 
L 408.271933 192.615363 
L 396.039435 194.745808 
L 385.776706 196.533193 
L 378.20433 191.084132 
L 369.585942 188.972183 
L 368.330345 190.56987 
L 371.743385 190.005139 
L 362.08621 192.863439 
L 357.727528 198.337416 
L 349.181784 197.683136 
L 354.717042 199.017749 
L 357.298915 200.390331 
L 355.213293 201.004978 
L 357.090998 201.023547 
L 357.228892 202.657902 
L 356.693723 206.646689 
L 353.14678 206.134091 
L 343.61409 213.44447 
L 344.005261 211.01091 
L 340.988673 212.563699 
L 330.21506 220.817236 
L 327.062077 219.426638 
L 312.024346 213.045533 
L 293.383374 214.259555 
L 283.270704 210.22634 
L 287.336344 205.529422 
L 288.377624 199.537026 
L 290.795947 198.650962 
L 295.009639 202.56913 
L 305.722792 201.476002 
L 305.657921 198.978947 
L 308.941218 200.24064 
L 309.780957 195.897205 
L 319.639696 194.661842 
L 318.252687 190.268243 
L 309.132495 189.372505 
L 306.71751 185.131646 
L 314.935308 180.160289 
L 313.626748 169.01877 
L 316.187568 164.563614 
L 312.410809 162.329661 
L 310.846924 150.601543 
L 315.262431 144.625222 
L 315.703524 141.578679 
L 310.463776 140.640787 
L 315.421295 132.081742 
L 315.309015 120.049501 
L 312.926466 117.606796 
L 314.421023 110.469112 
L 320.088241 107.908588 
L 322.81124 102.420448 
L 336.896128 100.050357 
L 337.19749 101.60758 
L 348.930047 97.946446 
L 349.711293 103.349721 
L 358.269518 104.396563 
L 357.501301 97.633427 
L 362.467392 95.564992 
L 365.053996 89.979266 
L 362.164933 87.569846 
L 370.247708 85.132933 
L 379.603796 77.693373 
L 386.643349 80.179037 
L 397.134435 73.11843 
L 399.17377 70.256833 
L 398.352888 67.432374 
L 403.971031 63.769549 
L 402.688826 55.580312 
L 405.320072 52.438705 
L 410.279511 51.568466 
L 413.300809 58.414194 
" style="fill:#808080;stroke:#999999;stroke-width:0.2;"/>
    <path clip-path="url(#p59c81d344c)" d="M 389.913595 203.613477 
L 387.196699 204.892354 
L 383.84965 202.160492 
L 389.913595 203.613477 
" style="fill:#808080;stroke:#999999;stroke-width:0.2;"/>
    <path clip-path="url(#p59c81d344c)" d="M 431.189159 193.764774 
L 439.088885 203.802993 
L 441.87463 209.109722 
L 448.365796 215.591208 
L 448.847065 216.20276 
L 443.13731 221.288815 
L 432.308266 224.865972 
L 429.285574 224.610629 
L 430.858329 230.450035 
L 424.66519 241.907567 
L 409.755534 240.831623 
L 407.468348 237.392518 
L 400.65948 245.42871 
L 396.288318 246.474166 
L 394.450547 249.108996 
L 407.354401 246.092413 
L 411.588894 250.388731 
L 412.253129 254.84555 
L 397.023825 259.11357 
L 397.505948 266.628822 
L 400.280492 268.296685 
L 385.650003 273.339022 
L 371.307572 274.023788 
L 371.951028 257.159628 
L 350.753144 255.362028 
L 348.55634 261.387433 
L 345.62348 261.933595 
L 345.092303 268.027762 
L 342.746898 268.849194 
L 342.821187 272.947845 
L 340.449998 275.553268 
L 326.692529 272.308532 
L 318.562346 274.29019 
L 317.802176 272.693888 
L 321.395955 269.662616 
L 314.812765 261.322025 
L 315.413249 258.797226 
L 312.10611 257.925324 
L 313.185403 252.669523 
L 322.601654 250.421436 
L 320.903865 247.226587 
L 322.700904 241.445134 
L 320.832068 240.806125 
L 321.348548 236.308537 
L 327.062077 219.426638 
L 330.21506 220.817236 
L 340.988673 212.563699 
L 344.005261 211.01091 
L 343.61409 213.44447 
L 353.14678 206.134091 
L 356.693723 206.646689 
L 357.228892 202.657902 
L 357.379033 204.437404 
L 358.648975 206.221447 
L 359.932081 208.023983 
L 357.979242 201.368411 
L 368.028435 196.352709 
L 373.281212 194.927717 
L 377.874967 201.353167 
L 389.464203 206.160698 
L 396.039376 201.512409 
L 399.016931 199.407441 
L 403.993672 199.568245 
L 404.152824 202.055827 
L 404.148544 199.571905 
L 412.846643 198.540551 
L 413.736149 201.853502 
L 414.174928 197.850044 
L 431.189159 193.764774 
" style="fill:#808080;stroke:#999999;stroke-width:0.2;"/>
    <path clip-path="url(#p59c81d344c)" d="M 233.150896 447.672283 
L 230.447852 448.005229 
L 227.477574 452.938339 
L 226.657241 458.949332 
L 222.437171 460.144757 
L 219.077916 456.700413 
L 213.405715 457.506602 
L 211.769483 452.963837 
L 204.563318 451.563816 
L 201.687284 443.828698 
L 204.051821 440.875029 
L 210.74121 436.746196 
L 213.03171 427.962849 
L 216.89997 427.920167 
L 218.066581 432.619829 
L 229.107977 432.638399 
L 226.409116 437.18532 
L 234.053838 440.119588 
L 233.150896 447.672283 
" style="fill:#808080;stroke:#999999;stroke-width:0.2;"/>
    <path clip-path="url(#p59c81d344c)" d="M 289.309985 432.54885 
L 286.809327 434.614541 
L 280.829089 434.428792 
L 278.982997 437.790266 
L 277.025723 436.259927 
L 275.982478 447.673392 
L 272.697809 451.102492 
L 265.652176 446.447729 
L 266.189182 444.055189 
L 268.415108 444.855307 
L 271.502648 442.397053 
L 259.346758 431.469581 
L 262.076683 426.984769 
L 259.25528 421.80186 
L 263.111882 422.8099 
L 267.338604 420.79357 
L 264.393264 419.601471 
L 263.213898 414.495084 
L 266.019232 411.365672 
L 271.064343 411.177706 
L 278.405235 414.81445 
L 276.552194 417.709888 
L 279.426559 418.397981 
L 278.670275 421.045865 
L 282.347784 421.871731 
L 282.905591 426.689516 
L 289.309985 432.54885 
" style="fill:#808080;stroke:#999999;stroke-width:0.2;"/>
    <path clip-path="url(#p59c81d344c)" d="M 85.429642 390.032193 
L 87.194497 390.144496 
L 89.14041 396.109731 
L 95.777682 397.831917 
L 97.407262 402.937749 
L 94.582796 403.148442 
L 96.063501 411.075962 
L 99.82835 414.406644 
L 99.546967 418.466189 
L 102.593774 418.641683 
L 101.972215 422.196945 
L 104.322603 425.625768 
L 102.667514 425.823712 
L 103.951387 427.967561 
L 96.416156 431.293255 
L 94.795719 426.636552 
L 91.948807 425.109289 
L 88.789721 432.117209 
L 86.125764 432.005488 
L 85.242503 434.316516 
L 79.516768 423.700095 
L 81.0388 423.451985 
L 78.995579 412.988858 
L 81.411959 411.56029 
L 74.726456 395.076497 
L 82.199856 389.122321 
L 85.429642 390.032193 
" style="fill:#808080;stroke:#999999;stroke-width:0.2;"/>
    <path clip-path="url(#p59c81d344c)" d="M 260.883465 450.238904 
L 260.857978 453.99599 
L 255.686164 456.128476 
L 246.093014 456.376585 
L 240.36065 454.011511 
L 242.315158 451.224468 
L 233.150896 447.672283 
L 234.053838 440.119588 
L 226.409116 437.18532 
L 229.107977 432.638399 
L 218.066581 432.619829 
L 216.89997 427.920167 
L 216.098495 422.798814 
L 229.036179 424.40648 
L 233.469149 422.74003 
L 236.171073 425.55756 
L 243.275497 423.934096 
L 247.918328 416.021266 
L 251.686218 426.468845 
L 250.844261 430.822534 
L 253.00031 432.779803 
L 252.976469 444.767144 
L 259.634816 446.952844 
L 260.883465 450.238904 
" style="fill:#808080;stroke:#999999;stroke-width:0.2;"/>
    <path clip-path="url(#p59c81d344c)" d="M 204.051821 440.875029 
L 201.687284 443.828698 
L 204.563318 451.563816 
L 211.769483 452.963837 
L 213.405715 457.506602 
L 219.077916 456.700413 
L 222.437171 460.144757 
L 226.657241 458.949332 
L 227.477574 452.938339 
L 230.447852 448.005229 
L 233.150896 447.672283 
L 242.315158 451.224468 
L 240.36065 454.011511 
L 246.093014 456.376585 
L 244.988532 458.511316 
L 241.339276 458.066621 
L 240.201238 462.469921 
L 238.322138 461.901891 
L 232.188614 467.633706 
L 233.390975 468.757043 
L 227.909501 478.512095 
L 223.073976 478.202153 
L 223.315998 481.210698 
L 219.518736 483.126947 
L 220.830884 486.12995 
L 218.504611 489.298441 
L 213.744495 491.747548 
L 211.669113 489.121588 
L 202.734964 490.498605 
L 200.943205 494.440581 
L 204.320747 500.246146 
L 203.331561 503.76122 
L 194.471152 509.94937 
L 183.701151 510.505759 
L 183.374028 503.429632 
L 174.457068 500.283313 
L 181.425074 484.017419 
L 191.790852 484.989124 
L 191.178162 482.873545 
L 195.920815 479.272276 
L 195.351373 476.307244 
L 191.851289 474.194436 
L 196.52187 469.446521 
L 188.752365 462.481312 
L 176.88147 459.443638 
L 174.957181 460.650177 
L 174.25219 458.772728 
L 170.345391 460.952359 
L 166.475211 458.181668 
L 168.207355 449.994398 
L 165.877219 444.675656 
L 172.310437 445.548112 
L 173.45819 441.713395 
L 179.054983 441.819019 
L 182.679003 447.661723 
L 184.233723 434.707139 
L 192.258278 433.862121 
L 192.850167 437.053921 
L 199.178329 437.331436 
L 204.051821 440.875029 
" style="fill:#808080;stroke:#999999;stroke-width:0.2;"/>
    <path clip-path="url(#p59c81d344c)" d="M 256.997764 475.519902 
L 254.315247 478.669852 
L 253.953174 483.963346 
L 246.412685 483.354547 
L 243.516125 490.255734 
L 243.996306 493.360757 
L 249.178909 494.716156 
L 252.454435 499.15385 
L 256.272521 494.958472 
L 259.240582 496.95676 
L 259.999381 498.337962 
L 253.407299 505.106087 
L 240.65728 511.544841 
L 242.260253 512.749993 
L 238.927353 517.013302 
L 231.191953 518.435496 
L 226.984638 514.792654 
L 222.995527 521.005748 
L 217.100687 516.807016 
L 213.933852 519.50257 
L 212.350834 516.865801 
L 205.914554 520.577959 
L 203.108946 520.065361 
L 195.973503 513.999741 
L 194.471152 509.94937 
L 203.331561 503.76122 
L 204.320747 500.246146 
L 200.943205 494.440581 
L 202.734964 490.498605 
L 211.669113 489.121588 
L 213.744495 491.747548 
L 218.504611 489.298441 
L 220.830884 486.12995 
L 219.518736 483.126947 
L 223.315998 481.210698 
L 223.073976 478.202153 
L 227.909501 478.512095 
L 233.390975 468.757043 
L 232.188614 467.633706 
L 238.322138 461.901891 
L 240.201238 462.469921 
L 241.339276 458.066621 
L 244.988532 458.511316 
L 246.093014 456.376585 
L 255.686164 456.128476 
L 254.593865 467.625114 
L 256.997764 475.519902 
" style="fill:#808080;stroke:#999999;stroke-width:0.2;"/>
    <path clip-path="url(#p59c81d344c)" d="M 432.308266 224.865972 
L 440.459799 230.717295 
L 439.992373 233.509299 
L 443.049717 232.940965 
L 445.412312 238.508954 
L 450.409444 237.271651 
L 451.526979 239.00132 
L 446.176642 249.417303 
L 447.891048 249.652109 
L 449.240913 255.77122 
L 448.239818 263.658829 
L 452.307401 264.096291 
L 453.675827 268.964518 
L 458.874796 269.748008 
L 459.845947 275.579349 
L 463.126753 278.814385 
L 454.131321 277.577082 
L 447.974229 281.455589 
L 449.686144 287.646788 
L 445.458874 290.954466 
L 450.181846 298.912501 
L 440.979616 307.701917 
L 441.205271 312.047846 
L 437.524996 314.671589 
L 434.14606 310.849372 
L 431.123094 315.387425 
L 433.96059 320.571969 
L 429.9515 322.126698 
L 430.275857 327.913694 
L 432.99497 329.124113 
L 433.276102 332.624747 
L 435.311277 332.571506 
L 433.362323 333.204445 
L 437.187039 336.915494 
L 438.086667 341.701379 
L 433.401959 349.144293 
L 435.96582 358.666757 
L 430.413098 357.075693 
L 423.989846 343.965846 
L 418.51475 342.845253 
L 397.60241 345.368361 
L 397.294968 338.608579 
L 393.869721 336.58532 
L 378.975883 339.60412 
L 373.835956 335.705657 
L 369.07584 337.327457 
L 369.116596 340.336003 
L 365.787011 341.543373 
L 361.712776 335.853132 
L 353.206942 337.359912 
L 353.08968 340.487108 
L 345.305478 339.686462 
L 347.534718 331.679371 
L 344.916524 328.295447 
L 347.536112 323.443018 
L 349.88346 325.202342 
L 350.53302 321.880529 
L 349.905359 315.756983 
L 346.823898 313.993751 
L 348.147408 306.650114 
L 345.167986 303.433065 
L 342.096766 303.75717 
L 344.95424 299.325573 
L 342.107578 296.87677 
L 344.50206 293.423806 
L 342.289186 287.801496 
L 336.799667 284.278689 
L 336.283164 280.039493 
L 340.449998 275.553268 
L 342.821187 272.947845 
L 342.746898 268.849194 
L 345.092303 268.027762 
L 345.62348 261.933595 
L 348.55634 261.387433 
L 350.753144 255.362028 
L 371.951028 257.159628 
L 371.307572 274.023788 
L 385.650003 273.339022 
L 400.280492 268.296685 
L 397.505948 266.628822 
L 397.023825 259.11357 
L 412.253129 254.84555 
L 411.588894 250.388731 
L 407.354401 246.092413 
L 394.450547 249.108996 
L 396.288318 246.474166 
L 400.65948 245.42871 
L 407.468348 237.392518 
L 409.755534 240.831623 
L 424.66519 241.907567 
L 430.858329 230.450035 
L 429.285574 224.610629 
L 432.308266 224.865972 
" style="fill:#808080;stroke:#999999;stroke-width:0.2;"/>
    <path clip-path="url(#p59c81d344c)" d="M 340.449998 275.553268 
L 336.283164 280.039493 
L 336.799667 284.278689 
L 342.289186 287.801496 
L 344.50206 293.423806 
L 342.107578 296.87677 
L 344.95424 299.325573 
L 342.096766 303.75717 
L 345.167986 303.433065 
L 348.147408 306.650114 
L 346.823898 313.993751 
L 349.905359 315.756983 
L 350.53302 321.880529 
L 349.88346 325.202342 
L 347.536112 323.443018 
L 344.916524 328.295447 
L 347.534718 331.679371 
L 345.305478 339.686462 
L 344.962537 355.274241 
L 343.636536 352.777185 
L 337.305609 353.874747 
L 333.838509 348.511382 
L 330.536102 350.635553 
L 323.740812 347.205594 
L 313.665012 350.303965 
L 313.918669 346.68773 
L 310.123052 343.811415 
L 302.815716 343.611254 
L 298.89646 336.040544 
L 285.002574 344.065373 
L 281.248559 347.493364 
L 265.425674 349.820745 
L 266.739218 344.297961 
L 264.657184 340.583585 
L 266.56705 336.38405 
L 271.686748 335.109026 
L 270.4026 333.622505 
L 273.158583 331.239111 
L 270.605535 328.344809 
L 271.186612 322.786798 
L 266.89447 320.8897 
L 278.055368 311.52333 
L 277.612903 309.873787 
L 274.696684 310.457087 
L 273.588842 306.807288 
L 278.034293 307.04323 
L 276.603213 303.009184 
L 279.437097 300.960704 
L 278.632285 296.509983 
L 282.113236 294.260509 
L 281.989323 291.126912 
L 288.473011 285.024153 
L 297.572379 283.635496 
L 297.676635 285.418378 
L 300.650525 285.038288 
L 304.044981 281.711486 
L 305.677601 270.969762 
L 311.640924 266.950433 
L 314.812765 261.322025 
L 321.395955 269.662616 
L 317.802176 272.693888 
L 318.562346 274.29019 
L 326.692529 272.308532 
L 340.449998 275.553268 
" style="fill:#808080;stroke:#999999;stroke-width:0.2;"/>
    <path clip-path="url(#p59c81d344c)" d="M 263.213898 414.495084 
L 264.393264 419.601471 
L 267.338604 420.79357 
L 263.111882 422.8099 
L 259.25528 421.80186 
L 262.076683 426.984769 
L 259.346758 431.469581 
L 271.502648 442.397053 
L 268.415108 444.855307 
L 266.189182 444.055189 
L 265.652176 446.447729 
L 264.456192 449.190677 
L 260.883465 450.238904 
L 259.634816 446.952844 
L 252.976469 444.767144 
L 253.00031 432.779803 
L 250.844261 430.822534 
L 251.686218 426.468845 
L 247.918328 416.021266 
L 243.273554 407.586414 
L 242.489543 400.863466 
L 248.532961 404.224108 
L 251.989249 402.233553 
L 257.850533 404.775259 
L 262.436813 409.985302 
L 263.213898 414.495084 
" style="fill:#808080;stroke:#999999;stroke-width:0.2;"/>
    <path clip-path="url(#p59c81d344c)" d="M 303.873637 420.977379 
L 302.133721 422.609462 
L 298.209184 421.632213 
L 297.616472 431.597404 
L 291.660921 430.260575 
L 289.309985 432.54885 
L 282.905591 426.689516 
L 282.347784 421.871731 
L 278.670275 421.045865 
L 279.426559 418.397981 
L 276.552194 417.709888 
L 278.405235 414.81445 
L 271.064343 411.177706 
L 271.08791 401.974635 
L 264.512743 401.855431 
L 261.893155 397.862958 
L 262.835207 391.858617 
L 274.199589 385.015937 
L 278.846603 386.078854 
L 278.713797 388.32999 
L 282.356104 390.013901 
L 280.595387 394.088689 
L 288.342148 392.769071 
L 287.484396 395.932851 
L 289.914903 400.492521 
L 299.497515 409.069332 
L 295.329013 413.363959 
L 298.767814 415.056212 
L 298.056172 417.918641 
L 303.873637 420.977379 
" style="fill:#808080;stroke:#999999;stroke-width:0.2;"/>
    <path clip-path="url(#p59c81d344c)" d="M 365.787011 341.543373 
L 364.193182 348.378015 
L 360.1536 347.652229 
L 357.051636 351.604487 
L 354.106022 350.685718 
L 348.063129 359.48514 
L 356.588096 360.966395 
L 357.327465 373.417832 
L 354.218301 376.274718 
L 357.185813 379.805589 
L 354.899176 385.486408 
L 361.477955 395.120288 
L 358.073509 395.256953 
L 357.603591 397.421062 
L 351.429036 398.7465 
L 349.47094 406.710355 
L 344.360385 407.894971 
L 343.061266 412.62293 
L 341.514867 412.060416 
L 346.501759 422.952663 
L 343.176059 423.068015 
L 340.165551 429.061519 
L 338.814886 428.158299 
L 335.788857 425.90744 
L 339.592246 420.373015 
L 338.070785 415.670831 
L 330.274125 412.601007 
L 327.466003 414.184865 
L 321.683465 405.150638 
L 309.662301 420.628053 
L 303.873637 420.977379 
L 298.056172 417.918641 
L 298.767814 415.056212 
L 295.329013 413.363959 
L 299.497515 409.069332 
L 289.914903 400.492521 
L 287.484396 395.932851 
L 288.342148 392.769071 
L 280.595387 394.088689 
L 282.356104 390.013901 
L 278.713797 388.32999 
L 278.846603 386.078854 
L 274.199589 385.015937 
L 271.627134 381.485897 
L 277.31017 379.215638 
L 282.312857 380.041781 
L 280.387195 373.11371 
L 283.881176 369.428158 
L 276.022137 362.826936 
L 283.675453 355.396494 
L 286.60861 346.202293 
L 285.002574 344.065373 
L 298.89646 336.040544 
L 302.815716 343.611254 
L 310.123052 343.811415 
L 313.918669 346.68773 
L 313.665012 350.303965 
L 323.740812 347.205594 
L 330.536102 350.635553 
L 333.838509 348.511382 
L 337.305609 353.874747 
L 343.636536 352.777185 
L 344.962537 355.274241 
L 345.305478 339.686462 
L 353.08968 340.487108 
L 353.206942 337.359912 
L 361.712776 335.853132 
L 365.787011 341.543373 
" style="fill:#808080;stroke:#999999;stroke-width:0.2;"/>
    <path clip-path="url(#p59c81d344c)" d="M 338.814886 428.158299 
L 336.302022 432.698015 
L 338.101278 433.930606 
L 331.062845 442.889419 
L 332.080032 445.177999 
L 321.14895 453.586521 
L 316.746198 454.292352 
L 319.119033 457.580075 
L 313.361708 464.54365 
L 310.094228 465.52949 
L 309.129455 471.731498 
L 301.795786 471.40853 
L 299.139328 473.348892 
L 292.523405 474.011486 
L 291.976958 470.713508 
L 284.05611 472.401299 
L 281.500844 476.673477 
L 275.446591 476.530714 
L 269.06661 481.880775 
L 263.794998 481.239522 
L 256.997764 475.519902 
L 254.593865 467.625114 
L 255.686164 456.128476 
L 260.857978 453.99599 
L 260.883465 450.238904 
L 264.456192 449.190677 
L 265.652176 446.447729 
L 272.697809 451.102492 
L 275.982478 447.673392 
L 277.025723 436.259927 
L 278.982997 437.790266 
L 280.829089 434.428792 
L 286.809327 434.614541 
L 289.309985 432.54885 
L 291.660921 430.260575 
L 297.616472 431.597404 
L 298.209184 421.632213 
L 302.133721 422.609462 
L 303.873637 420.977379 
L 309.662301 420.628053 
L 321.683465 405.150638 
L 327.466003 414.184865 
L 330.274125 412.601007 
L 338.070785 415.670831 
L 339.592246 420.373015 
L 335.788857 425.90744 
L 338.814886 428.158299 
" style="fill:#808080;stroke:#999999;stroke-width:0.2;"/>
    <path clip-path="url(#p59c81d344c)" d="M 166.475211 458.181668 
L 170.345391 460.952359 
L 174.25219 458.772728 
L 174.957181 460.650177 
L 176.88147 459.443638 
L 188.752365 462.481312 
L 196.52187 469.446521 
L 191.851289 474.194436 
L 195.351373 476.307244 
L 195.920815 479.272276 
L 191.178162 482.873545 
L 191.790852 484.989124 
L 181.425074 484.017419 
L 174.457068 500.283313 
L 165.754677 498.136137 
L 162.64661 494.550944 
L 159.4659 496.103732 
L 158.26795 493.645478 
L 153.215913 493.226032 
L 151.167435 488.959397 
L 154.694126 484.601828 
L 153.126652 481.527292 
L 148.542589 480.672574 
L 146.423959 484.874354 
L 139.656944 479.319115 
L 137.404138 480.880218 
L 128.169746 477.156142 
L 125.075532 471.935817 
L 130.876653 464.612966 
L 131.019996 457.668792 
L 126.438128 457.790214 
L 122.867641 450.682214 
L 119.129124 450.994374 
L 116.696675 446.57996 
L 111.333012 443.217682 
L 124.455641 436.028697 
L 130.160279 438.898083 
L 132.694766 435.867088 
L 135.808091 436.322287 
L 137.042065 434.407451 
L 132.953406 429.114484 
L 145.152567 424.600266 
L 141.293176 419.415722 
L 140.613946 411.566942 
L 142.95382 411.569991 
L 145.839271 407.226833 
L 150.590244 407.563383 
L 153.817516 408.660972 
L 157.018181 413.642029 
L 159.078866 410.127815 
L 157.244409 405.583388 
L 160.153701 403.875891 
L 163.888058 406.185812 
L 163.280626 417.740403 
L 151.319922 424.797656 
L 150.780972 434.47674 
L 145.806561 441.36964 
L 151.122244 453.374414 
L 160.634979 453.537437 
L 166.475211 458.181668 
" style="fill:#808080;stroke:#999999;stroke-width:0.2;"/>
    <path clip-path="url(#p59c81d344c)" d="M 174.457068 500.283313 
L 183.374028 503.429632 
L 183.701151 510.505759 
L 194.471152 509.94937 
L 195.973503 513.999741 
L 185.655659 523.227505 
L 178.287338 526.429006 
L 171.130523 525.18228 
L 168.882425 527.28511 
L 169.483754 530.924072 
L 174.970507 536.125828 
L 176.975738 535.606023 
L 175.34282 543.814634 
L 169.915132 544.754743 
L 167.44803 542.792486 
L 158.87648 544.813251 
L 157.280182 541.345321 
L 151.339328 538.400522 
L 146.495208 540.507232 
L 143.010096 545.750284 
L 139.302917 541.374977 
L 140.455105 536.35897 
L 134.836117 530.237642 
L 136.878217 527.792165 
L 134.450203 525.732876 
L 135.786193 523.694096 
L 131.52955 522.122987 
L 129.311945 523.76283 
L 127.591435 521.808056 
L 126.710094 515.175793 
L 134.897948 506.999582 
L 130.740258 505.26631 
L 135.763746 494.492436 
L 135.60543 492.000646 
L 129.557578 487.538562 
L 126.899725 479.913225 
L 128.169746 477.156142 
L 137.404138 480.880218 
L 139.656944 479.319115 
L 146.423959 484.874354 
L 148.542589 480.672574 
L 153.126652 481.527292 
L 154.694126 484.601828 
L 151.167435 488.959397 
L 153.215913 493.226032 
L 158.26795 493.645478 
L 159.4659 496.103732 
L 162.64661 494.550944 
L 165.754677 498.136137 
L 174.457068 500.283313 
" style="fill:#808080;stroke:#999999;stroke-width:0.2;"/>
    <path clip-path="url(#p59c81d344c)" d="M 85.429642 390.032193 
L 82.199856 389.122321 
L 74.726456 395.076497 
L 81.411959 411.56029 
L 78.995579 412.988858 
L 81.0388 423.451985 
L 79.516768 423.700095 
L 68.768962 428.937881 
L 67.288257 432.704389 
L 69.847409 441.210775 
L 59.459162 438.474202 
L 54.315074 444.100947 
L 52.355857 442.70755 
L 48.384461 444.448028 
L 48.393628 450.976081 
L 36.907527 454.14679 
L 35.824645 456.366608 
L 31.280219 446.511225 
L 37.638324 434.91506 
L 39.858398 432.954743 
L 43.517072 433.809988 
L 42.183574 429.347072 
L 47.139698 432.00327 
L 48.385856 424.96345 
L 50.436551 423.958209 
L 48.222283 418.070855 
L 47.818905 415.17708 
L 50.169316 413.095618 
L 47.629297 409.507098 
L 48.226443 401.373043 
L 54.487516 400.288757 
L 60.01002 392.545878 
L 64.588551 393.500677 
L 72.058065 388.70232 
L 73.138181 389.978979 
L 79.863046 381.989626 
L 85.429642 390.032193 
" style="fill:#808080;stroke:#999999;stroke-width:0.2;"/>
    <path clip-path="url(#p59c81d344c)" d="M 102.667514 425.823712 
L 111.058829 432.770103 
L 107.323375 441.684294 
L 111.333012 443.217682 
L 116.696675 446.57996 
L 119.129124 450.994374 
L 122.867641 450.682214 
L 126.438128 457.790214 
L 131.019996 457.668792 
L 130.876653 464.612966 
L 125.075532 471.935817 
L 128.169746 477.156142 
L 126.899725 479.913225 
L 129.557578 487.538562 
L 124.10022 491.304516 
L 115.783743 492.012287 
L 114.056285 499.088414 
L 110.953773 491.367181 
L 104.826328 489.629475 
L 106.736194 487.602335 
L 101.280231 483.622085 
L 100.56468 487.691884 
L 97.640964 489.052826 
L 91.577865 484.792566 
L 88.990163 497.073497 
L 85.778389 496.675115 
L 83.93008 500.069571 
L 78.487397 500.075668 
L 73.125152 505.534125 
L 67.612614 496.994758 
L 60.637956 497.558934 
L 47.088131 482.478211 
L 49.643122 480.724152 
L 48.503118 475.673224 
L 41.300312 470.895349 
L 45.536451 467.95418 
L 48.393628 450.976081 
L 48.384461 444.448028 
L 52.355857 442.70755 
L 54.315074 444.100947 
L 59.459162 438.474202 
L 69.847409 441.210775 
L 67.288257 432.704389 
L 68.768962 428.937881 
L 79.516768 423.700095 
L 85.242503 434.316516 
L 86.125764 432.005488 
L 88.789721 432.117209 
L 91.948807 425.109289 
L 94.795719 426.636552 
L 96.416156 431.293255 
L 103.951387 427.967561 
L 102.667514 425.823712 
" style="fill:#808080;stroke:#999999;stroke-width:0.2;"/>
   </g>
   <g id="matplotlib.axis_1"/>
   <g id="matplotlib.axis_2"/>
   <g id="LineCollection_1">
    <path clip-path="url(#p59c81d344c)" d="M 88.579685 405.352511 
L 82.932231 418.301897 
L 82.522656 424.09844 
L 85.046484 432.387377 
L 88.056037 438.581376 
L 91.547933 444.010205 
L 99.568006 452.909042 
L 109.627773 460.286304 
L 112.496906 463.60097 
L 119.318689 475.034658 
L 122.467115 478.058532 
L 137.630958 488.737795 
L 141.453833 490.074721 
L 150.069886 489.907106 
L 157.606229 490.201408 
L 169.509358 493.813863 
L 172.775813 491.918927 
L 178.893214 484.288579 
L 183.861953 479.59742 
L 196.315772 462.841346 
L 201.283559 459.047057 
L 206.643858 457.657834 
L 229.493912 460.476192 
L 234.634054 459.353708 
L 250.443669 449.69558 
L 256.556002 449.195109 
L 264.078742 443.003975 
L 278.373906 427.906702 
L 286.526568 424.794886 
L 293.357595 426.326591 
L 295.614275 426.221621 
L 298.104294 424.305781 
L 299.797485 418.421623 
L 308.078974 413.914178 
L 321.240829 398.220375 
L 336.164707 385.935561 
L 341.156094 377.17965 
L 343.269168 367.278123 
L 346.744982 329.862582 
L 350.267164 319.608532 
L 350.838547 316.184127 
L 350.390353 313.769287 
L 347.289801 303.956764 
L 346.411306 302.653906 
L 345.181127 301.846586 
L 344.187401 300.809162 
L 344.016962 298.74085 
L 344.785388 295.401181 
L 344.995983 293.677815 
L 344.78825 292.062047 
L 342.233284 286.494461 
L 340.368614 283.525828 
L 339.788736 280.246714 
L 341.056681 273.672699 
L 343.45974 267.003821 
L 349.021388 255.383595 
L 350.69068 248.248986 
L 352.738304 210.601921 
L 356.044767 202.193858 
" style="fill:none;stroke:#add8e6;stroke-width:2;"/>
   </g>
   <g id="text_1">
    <!-- East Riding of Yorkshire -->
    <g transform="translate(330.888158 137.978626)scale(0.1 -0.1)">
     <defs>
      <path d="M 4102 1331 
L 3846 0 
L 102 0 
L 102 160 
Q 448 198 557 294 
Q 666 390 666 646 
L 666 3712 
Q 666 3955 550 4051 
Q 435 4147 102 4166 
L 102 4326 
L 3795 4326 
L 3795 3040 
L 3635 3040 
Q 3526 3680 3216 3894 
Q 2906 4109 2118 4109 
Q 1875 4109 1788 4032 
Q 1702 3955 1702 3763 
L 1702 2323 
Q 2221 2330 2451 2531 
Q 2682 2733 2739 3277 
L 2906 3277 
L 2906 1114 
L 2739 1114 
Q 2694 1677 2464 1891 
Q 2234 2106 1702 2106 
L 1702 557 
Q 1702 352 1814 275 
Q 1926 198 2234 198 
Q 2982 198 3398 544 
Q 3558 672 3667 838 
Q 3776 1005 3923 1331 
L 4102 1331 
z
" id="STIXGeneral-Bold-45" transform="scale(0.015625)"/>
      <path d="M 3027 410 
L 3123 275 
Q 2784 -90 2406 -90 
Q 2170 -90 2051 9 
Q 1933 109 1882 352 
Q 1395 -90 864 -90 
Q 544 -90 352 80 
Q 160 250 160 589 
Q 160 1018 589 1306 
Q 909 1517 1875 1792 
L 1875 2227 
Q 1875 2541 1756 2681 
Q 1638 2822 1357 2822 
Q 1178 2822 1059 2758 
Q 941 2694 941 2586 
Q 941 2515 1011 2438 
Q 1133 2291 1133 2170 
Q 1133 2003 1011 1894 
Q 890 1786 698 1786 
Q 499 1786 390 1901 
Q 282 2016 282 2221 
Q 282 2598 618 2812 
Q 954 3027 1504 3027 
Q 2093 3027 2425 2803 
Q 2758 2579 2758 2170 
L 2758 499 
Q 2758 320 2893 320 
Q 2938 320 2963 346 
L 3027 410 
z
M 1875 621 
L 1875 1568 
Q 1094 1350 1094 794 
Q 1094 589 1187 477 
Q 1280 365 1427 365 
Q 1696 365 1875 621 
z
" id="STIXGeneral-Bold-61" transform="scale(0.015625)"/>
      <path d="M 2176 2086 
L 2016 2086 
Q 1894 2445 1715 2611 
Q 1498 2816 1235 2816 
Q 1056 2816 934 2710 
Q 813 2605 813 2445 
Q 813 2278 957 2147 
Q 1101 2016 1427 1882 
Q 1907 1683 2108 1452 
Q 2310 1222 2310 883 
Q 2310 454 2035 182 
Q 1760 -90 1325 -90 
Q 992 -90 634 58 
Q 538 96 486 96 
Q 416 96 320 -83 
L 160 -83 
L 160 973 
L 339 973 
Q 544 128 1216 128 
Q 1434 128 1565 243 
Q 1696 358 1696 544 
Q 1696 698 1555 829 
Q 1414 960 1082 1101 
Q 602 1306 387 1539 
Q 173 1773 173 2093 
Q 173 2496 457 2761 
Q 742 3027 1178 3027 
Q 1395 3027 1677 2931 
Q 1818 2886 1875 2886 
Q 1984 2886 2035 3014 
L 2176 3014 
L 2176 2086 
z
" id="STIXGeneral-Bold-73" transform="scale(0.015625)"/>
      <path d="M 1965 717 
L 2125 646 
Q 1926 250 1712 86 
Q 1498 -77 1178 -77 
Q 845 -77 653 105 
Q 461 288 461 608 
L 461 2669 
L 122 2669 
L 122 2842 
Q 435 3053 646 3299 
Q 858 3546 1190 4032 
L 1350 4032 
L 1350 2950 
L 1958 2950 
L 1958 2669 
L 1350 2669 
L 1350 762 
Q 1350 378 1600 378 
Q 1786 378 1965 717 
z
" id="STIXGeneral-Bold-74" transform="scale(0.015625)"/>
      <path id="STIXGeneral-Bold-20" transform="scale(0.015625)"/>
      <path d="M 4582 0 
L 3270 0 
L 1946 2003 
L 1766 2003 
L 1766 749 
Q 1766 403 1859 307 
Q 1952 211 2330 160 
L 2330 0 
L 166 0 
L 166 160 
Q 544 205 637 301 
Q 730 397 730 768 
L 730 3526 
Q 730 3904 624 4022 
Q 518 4141 166 4166 
L 166 4326 
L 2138 4326 
Q 4032 4326 4032 3226 
Q 4032 2739 3744 2470 
Q 3475 2227 3027 2106 
L 4301 301 
Q 4397 160 4582 160 
L 4582 0 
z
M 1766 3821 
L 1766 2208 
Q 2426 2214 2682 2406 
Q 2938 2598 2938 3162 
Q 2938 3667 2746 3888 
Q 2554 4109 2106 4109 
Q 1920 4109 1843 4045 
Q 1766 3981 1766 3821 
z
" id="STIXGeneral-Bold-52" transform="scale(0.015625)"/>
      <path d="M 1376 3923 
Q 1376 3712 1232 3571 
Q 1088 3430 877 3430 
Q 666 3430 525 3571 
Q 384 3712 384 3923 
Q 384 4134 528 4278 
Q 672 4422 890 4422 
Q 1088 4422 1232 4275 
Q 1376 4128 1376 3923 
z
M 1638 0 
L 102 0 
L 102 154 
Q 326 205 384 275 
Q 442 346 442 563 
L 442 2387 
Q 442 2598 374 2675 
Q 307 2752 96 2797 
L 96 2950 
L 1331 2950 
L 1331 544 
Q 1331 339 1398 259 
Q 1466 179 1638 154 
L 1638 0 
z
" id="STIXGeneral-Bold-69" transform="scale(0.015625)"/>
      <path d="M 3418 128 
L 3021 77 
Q 2496 6 2170 -83 
L 2170 333 
Q 1946 96 1760 3 
Q 1574 -90 1318 -90 
Q 813 -90 486 332 
Q 160 755 160 1414 
Q 160 2112 509 2569 
Q 858 3027 1389 3027 
Q 1606 3027 1776 2940 
Q 1946 2854 2150 2630 
L 2150 3802 
Q 2150 4026 2067 4086 
Q 1984 4147 1664 4173 
L 1664 4326 
L 3040 4326 
L 3040 646 
Q 3040 442 3120 365 
Q 3200 288 3418 275 
L 3418 128 
z
M 2150 717 
L 2150 2272 
Q 2080 2458 1945 2563 
Q 1811 2669 1651 2669 
Q 1107 2669 1107 1466 
Q 1107 269 1606 269 
Q 1837 269 2029 506 
Q 2150 666 2150 717 
z
" id="STIXGeneral-Bold-64" transform="scale(0.015625)"/>
      <path d="M 3450 0 
L 1952 0 
L 1952 154 
Q 2112 173 2179 259 
Q 2246 346 2246 538 
L 2246 2054 
Q 2246 2598 1920 2598 
Q 1690 2598 1472 2381 
Q 1363 2272 1363 2227 
L 1363 538 
Q 1363 352 1430 265 
Q 1498 179 1670 154 
L 1670 0 
L 134 0 
L 134 154 
Q 346 198 410 275 
Q 474 352 474 557 
L 474 2406 
Q 474 2611 410 2688 
Q 346 2765 134 2797 
L 134 2950 
L 1357 2950 
L 1357 2470 
L 1363 2470 
Q 1677 3027 2272 3027 
Q 2669 3027 2902 2780 
Q 3136 2534 3136 2118 
L 3136 538 
Q 3136 320 3200 243 
Q 3264 166 3450 154 
L 3450 0 
z
" id="STIXGeneral-Bold-6e" transform="scale(0.015625)"/>
      <path d="M 1626 435 
L 1958 435 
Q 2477 435 2784 227 
Q 3091 19 3091 -333 
Q 3091 -787 2652 -1052 
Q 2214 -1318 1421 -1318 
Q 179 -1318 179 -730 
Q 179 -339 794 -250 
Q 493 -141 381 -25 
Q 269 90 269 275 
Q 269 557 454 733 
Q 640 909 1030 1024 
Q 678 1120 457 1382 
Q 237 1645 237 1997 
Q 237 2464 598 2745 
Q 960 3027 1536 3027 
Q 1869 3027 2253 2886 
L 3078 2886 
L 3078 2547 
L 2566 2547 
Q 2822 2317 2822 1920 
Q 2822 1318 2234 1075 
Q 2080 1011 1971 998 
Q 1862 986 1421 986 
Q 1229 986 1104 899 
Q 979 813 979 672 
Q 979 538 1113 486 
Q 1248 435 1626 435 
z
M 1958 1997 
Q 1958 2445 1859 2637 
Q 1760 2829 1529 2829 
Q 1299 2829 1206 2643 
Q 1114 2458 1114 1990 
Q 1114 1542 1210 1353 
Q 1306 1165 1536 1165 
Q 1766 1165 1862 1353 
Q 1958 1542 1958 1997 
z
M 2016 -333 
L 966 -333 
Q 832 -442 787 -512 
Q 742 -582 742 -685 
Q 742 -1114 1600 -1114 
Q 2061 -1114 2323 -995 
Q 2586 -877 2586 -691 
Q 2586 -333 2016 -333 
z
" id="STIXGeneral-Bold-67" transform="scale(0.015625)"/>
      <path d="M 3046 1466 
Q 3046 794 2633 352 
Q 2221 -90 1600 -90 
Q 992 -90 576 348 
Q 160 787 160 1459 
Q 160 2157 573 2592 
Q 986 3027 1626 3027 
Q 2234 3027 2640 2585 
Q 3046 2144 3046 1466 
z
M 2106 1395 
Q 2106 2214 1997 2521 
Q 1888 2829 1606 2829 
Q 1312 2829 1206 2525 
Q 1101 2221 1101 1395 
Q 1101 698 1216 403 
Q 1331 109 1606 109 
Q 1882 109 1994 393 
Q 2106 678 2106 1395 
z
" id="STIXGeneral-Bold-6f" transform="scale(0.015625)"/>
      <path d="M 90 2950 
L 454 2950 
Q 454 3789 710 4096 
Q 979 4422 1574 4422 
Q 1984 4422 2237 4243 
Q 2490 4064 2490 3782 
Q 2490 3603 2381 3488 
Q 2272 3373 2093 3373 
Q 1933 3373 1821 3481 
Q 1709 3590 1709 3738 
Q 1709 3866 1779 3971 
Q 1850 4077 1850 4102 
Q 1850 4224 1664 4224 
Q 1491 4224 1417 4112 
Q 1344 4000 1344 3718 
L 1344 2950 
L 1894 2950 
L 1894 2669 
L 1344 2669 
L 1344 685 
Q 1344 365 1440 262 
Q 1536 160 1869 154 
L 1869 0 
L 90 0 
L 90 154 
Q 307 179 380 259 
Q 454 339 454 557 
L 454 2669 
L 90 2669 
L 90 2950 
z
" id="STIXGeneral-Bold-66" transform="scale(0.015625)"/>
      <path d="M 4474 4326 
L 4474 4166 
Q 4160 4122 4038 3917 
L 2816 1926 
L 2816 787 
Q 2816 416 2921 304 
Q 3027 192 3405 160 
L 3405 0 
L 1184 0 
L 1184 160 
Q 1568 192 1673 320 
Q 1779 448 1779 819 
L 1779 1690 
L 627 3789 
Q 429 4147 96 4166 
L 96 4326 
L 2240 4326 
L 2240 4166 
L 2067 4154 
Q 1862 4141 1792 4105 
Q 1722 4070 1722 3968 
Q 1722 3885 1875 3590 
L 2643 2106 
L 3341 3245 
Q 3603 3680 3603 3898 
Q 3603 4038 3497 4089 
Q 3392 4141 3066 4166 
L 3066 4326 
L 4474 4326 
z
" id="STIXGeneral-Bold-59" transform="scale(0.015625)"/>
      <path d="M 1395 2950 
L 1395 2426 
Q 1619 2752 1817 2889 
Q 2016 3027 2259 3027 
Q 2483 3027 2630 2883 
Q 2778 2739 2778 2522 
Q 2778 2330 2666 2208 
Q 2554 2086 2374 2086 
Q 2138 2086 1990 2330 
Q 1901 2477 1811 2477 
Q 1645 2477 1533 2285 
Q 1421 2093 1421 1811 
L 1421 678 
Q 1421 371 1507 272 
Q 1594 173 1882 154 
L 1882 0 
L 186 0 
L 186 154 
Q 397 192 464 265 
Q 531 339 531 538 
L 531 2387 
Q 531 2611 460 2688 
Q 390 2765 179 2797 
L 179 2950 
L 1395 2950 
z
" id="STIXGeneral-Bold-72" transform="scale(0.015625)"/>
      <path d="M 3475 0 
L 1978 0 
L 1978 154 
Q 2246 166 2246 275 
Q 2246 352 2093 563 
L 1485 1421 
L 1338 1267 
L 1338 538 
Q 1338 314 1392 250 
Q 1446 186 1670 154 
L 1670 0 
L 141 0 
L 141 154 
Q 448 179 448 538 
L 448 3802 
Q 448 4147 141 4173 
L 141 4326 
L 1338 4326 
L 1338 1568 
L 2157 2387 
Q 2291 2522 2291 2630 
Q 2291 2746 2067 2778 
L 1914 2803 
L 1914 2950 
L 3283 2950 
L 3283 2803 
Q 2982 2765 2768 2617 
Q 2554 2470 2074 1965 
L 3315 250 
Q 3386 154 3475 154 
L 3475 0 
z
" id="STIXGeneral-Bold-6b" transform="scale(0.015625)"/>
      <path d="M 3418 0 
L 1920 0 
L 1920 154 
Q 2080 173 2147 259 
Q 2214 346 2214 544 
L 2214 1978 
Q 2214 2323 2144 2460 
Q 2074 2598 1888 2598 
Q 1658 2598 1440 2381 
Q 1331 2272 1331 2227 
L 1331 544 
Q 1331 346 1395 262 
Q 1459 179 1638 154 
L 1638 0 
L 102 0 
L 102 154 
Q 333 198 387 256 
Q 442 314 442 570 
L 442 3782 
Q 442 4006 384 4067 
Q 326 4128 96 4173 
L 96 4326 
L 1331 4326 
L 1331 2534 
Q 1747 3027 2272 3027 
Q 2656 3027 2880 2784 
Q 3104 2541 3104 2157 
L 3104 557 
Q 3104 339 3177 246 
Q 3251 154 3418 154 
L 3418 0 
z
" id="STIXGeneral-Bold-68" transform="scale(0.015625)"/>
      <path d="M 2579 806 
L 2733 717 
Q 2451 269 2166 89 
Q 1882 -90 1466 -90 
Q 890 -90 525 342 
Q 160 774 160 1434 
Q 160 2150 528 2588 
Q 896 3027 1498 3027 
Q 2029 3027 2317 2707 
Q 2656 2336 2694 1568 
L 1082 1568 
Q 1101 1299 1133 1116 
Q 1165 934 1241 748 
Q 1318 563 1468 467 
Q 1619 371 1843 371 
Q 2048 371 2214 470 
Q 2381 570 2579 806 
z
M 1907 1805 
L 1907 1939 
Q 1907 2406 1850 2528 
Q 1773 2688 1699 2758 
Q 1626 2829 1498 2829 
Q 1267 2829 1158 2595 
Q 1050 2362 1050 1805 
L 1907 1805 
z
" id="STIXGeneral-Bold-65" transform="scale(0.015625)"/>
     </defs>
     <use xlink:href="#STIXGeneral-Bold-45"/>
     <use x="66.699997" xlink:href="#STIXGeneral-Bold-61"/>
     <use x="116.699982" xlink:href="#STIXGeneral-Bold-73"/>
     <use x="155.599976" xlink:href="#STIXGeneral-Bold-74"/>
     <use x="188.899963" xlink:href="#STIXGeneral-Bold-20"/>
     <use x="213.899948" xlink:href="#STIXGeneral-Bold-52"/>
     <use x="286.09993" xlink:href="#STIXGeneral-Bold-69"/>
     <use x="313.899918" xlink:href="#STIXGeneral-Bold-64"/>
     <use x="369.499908" xlink:href="#STIXGeneral-Bold-69"/>
     <use x="397.299896" xlink:href="#STIXGeneral-Bold-6e"/>
     <use x="452.899887" xlink:href="#STIXGeneral-Bold-67"/>
     <use x="502.899872" xlink:href="#STIXGeneral-Bold-20"/>
     <use x="527.899857" xlink:href="#STIXGeneral-Bold-6f"/>
     <use x="577.899841" xlink:href="#STIXGeneral-Bold-66"/>
     <use x="611.199829" xlink:href="#STIXGeneral-Bold-20"/>
     <use x="636.199814" xlink:href="#STIXGeneral-Bold-59"/>
     <use x="708.399796" xlink:href="#STIXGeneral-Bold-6f"/>
     <use x="758.39978" xlink:href="#STIXGeneral-Bold-72"/>
     <use x="802.799774" xlink:href="#STIXGeneral-Bold-6b"/>
     <use x="858.399765" xlink:href="#STIXGeneral-Bold-73"/>
     <use x="897.299759" xlink:href="#STIXGeneral-Bold-68"/>
     <use x="952.89975" xlink:href="#STIXGeneral-Bold-69"/>
     <use x="980.699738" xlink:href="#STIXGeneral-Bold-72"/>
     <use x="1025.099731" xlink:href="#STIXGeneral-Bold-65"/>
    </g>
   </g>
   <g id="text_2">
    <!-- North Lincolnshire -->
    <g transform="translate(334.832454 233.379286)scale(0.1 -0.1)">
     <defs>
      <path d="M 4486 4326 
L 4486 4166 
Q 4166 4115 4076 4022 
Q 3987 3930 3987 3635 
L 3987 -115 
L 3808 -115 
L 947 3373 
L 947 838 
Q 947 467 1062 336 
Q 1178 205 1549 160 
L 1549 0 
L 102 0 
L 102 160 
Q 454 205 560 304 
Q 666 403 666 698 
L 666 3706 
Q 333 4166 122 4166 
L 122 4326 
L 1472 4326 
L 3706 1574 
L 3706 3488 
Q 3706 3872 3590 4003 
Q 3475 4134 3117 4166 
L 3117 4326 
L 4486 4326 
z
" id="STIXGeneral-Bold-4e" transform="scale(0.015625)"/>
      <path d="M 4083 1453 
L 3814 0 
L 122 0 
L 122 160 
Q 474 205 573 288 
Q 672 371 672 627 
L 672 3686 
Q 672 3955 560 4051 
Q 448 4147 122 4166 
L 122 4326 
L 2349 4333 
L 2349 4173 
Q 1933 4154 1821 4045 
Q 1709 3936 1709 3539 
L 1709 570 
Q 1709 358 1827 278 
Q 1946 198 2253 198 
Q 2950 198 3341 550 
Q 3610 800 3898 1453 
L 4083 1453 
z
" id="STIXGeneral-Bold-4c" transform="scale(0.015625)"/>
      <path d="M 2637 698 
L 2752 582 
Q 2490 224 2202 67 
Q 1914 -90 1530 -90 
Q 922 -90 541 326 
Q 160 742 160 1421 
Q 160 2125 595 2576 
Q 1030 3027 1677 3027 
Q 2099 3027 2380 2828 
Q 2662 2630 2662 2323 
Q 2662 2138 2544 2026 
Q 2426 1914 2227 1914 
Q 2061 1914 1965 2035 
Q 1869 2157 1869 2381 
Q 1869 2496 1865 2547 
Q 1862 2598 1849 2665 
Q 1837 2733 1811 2761 
Q 1786 2790 1731 2809 
Q 1677 2829 1600 2829 
Q 1357 2829 1209 2544 
Q 1062 2259 1062 1747 
Q 1062 1094 1299 716 
Q 1536 339 1952 339 
Q 2323 339 2637 698 
z
" id="STIXGeneral-Bold-63" transform="scale(0.015625)"/>
      <path d="M 1638 0 
L 102 0 
L 102 154 
Q 429 179 429 557 
L 429 3757 
Q 429 4147 96 4173 
L 96 4326 
L 1318 4326 
L 1318 557 
Q 1318 346 1395 253 
Q 1472 160 1638 154 
L 1638 0 
z
" id="STIXGeneral-Bold-6c" transform="scale(0.015625)"/>
     </defs>
     <use xlink:href="#STIXGeneral-Bold-4e"/>
     <use x="72.199982" xlink:href="#STIXGeneral-Bold-6f"/>
     <use x="122.199966" xlink:href="#STIXGeneral-Bold-72"/>
     <use x="166.59996" xlink:href="#STIXGeneral-Bold-74"/>
     <use x="199.899948" xlink:href="#STIXGeneral-Bold-68"/>
     <use x="255.499939" xlink:href="#STIXGeneral-Bold-20"/>
     <use x="280.499924" xlink:href="#STIXGeneral-Bold-4c"/>
     <use x="347.199921" xlink:href="#STIXGeneral-Bold-69"/>
     <use x="374.999908" xlink:href="#STIXGeneral-Bold-6e"/>
     <use x="430.599899" xlink:href="#STIXGeneral-Bold-63"/>
     <use x="474.999893" xlink:href="#STIXGeneral-Bold-6f"/>
     <use x="524.999878" xlink:href="#STIXGeneral-Bold-6c"/>
     <use x="552.799866" xlink:href="#STIXGeneral-Bold-6e"/>
     <use x="608.399857" xlink:href="#STIXGeneral-Bold-73"/>
     <use x="647.29985" xlink:href="#STIXGeneral-Bold-68"/>
     <use x="702.899841" xlink:href="#STIXGeneral-Bold-69"/>
     <use x="730.699829" xlink:href="#STIXGeneral-Bold-72"/>
     <use x="775.099823" xlink:href="#STIXGeneral-Bold-65"/>
    </g>
   </g>
   <g id="text_3">
    <!-- South Derbyshire -->
    <g transform="translate(175.288244 471.820479)scale(0.1 -0.1)">
     <defs>
      <path d="M 3098 3034 
L 2918 3034 
Q 2752 3578 2470 3866 
Q 2125 4224 1683 4224 
Q 1357 4224 1168 4048 
Q 979 3872 979 3590 
Q 979 3360 1113 3213 
Q 1248 3066 1638 2861 
Q 1754 2797 2077 2633 
Q 2400 2470 2586 2368 
Q 2899 2195 3091 1897 
Q 3283 1600 3283 1242 
Q 3283 634 2844 256 
Q 2406 -122 1696 -122 
Q 1306 -122 864 32 
Q 666 96 602 96 
Q 525 96 480 48 
Q 435 0 410 -122 
L 224 -122 
L 224 1466 
L 410 1466 
Q 557 851 794 550 
Q 1158 90 1715 90 
Q 2086 90 2304 285 
Q 2522 480 2522 813 
Q 2522 1120 2157 1376 
Q 1997 1491 1376 1792 
Q 806 2067 544 2368 
Q 282 2669 282 3136 
Q 282 3744 656 4083 
Q 1030 4422 1683 4422 
Q 2035 4422 2432 4275 
Q 2624 4211 2701 4211 
Q 2790 4211 2832 4256 
Q 2874 4301 2906 4429 
L 3098 4429 
L 3098 3034 
z
" id="STIXGeneral-Bold-53" transform="scale(0.015625)"/>
      <path d="M 3443 128 
L 3040 83 
Q 2509 26 2195 -83 
L 2195 333 
Q 1946 96 1738 3 
Q 1530 -90 1267 -90 
Q 864 -90 640 153 
Q 416 397 416 838 
L 416 2381 
Q 416 2605 358 2681 
Q 301 2758 102 2797 
L 102 2950 
L 1306 2950 
L 1306 813 
Q 1306 326 1664 326 
Q 1914 326 2189 627 
L 2189 2394 
Q 2189 2611 2112 2694 
Q 2035 2778 1798 2797 
L 1798 2950 
L 3078 2950 
L 3078 672 
Q 3078 461 3155 371 
Q 3232 282 3443 275 
L 3443 128 
z
" id="STIXGeneral-Bold-75" transform="scale(0.015625)"/>
      <path d="M 90 4326 
L 2086 4326 
Q 3181 4326 3798 3763 
Q 4416 3200 4416 2208 
Q 4416 1715 4221 1267 
Q 4026 819 3680 518 
Q 3085 0 2067 0 
L 90 0 
L 90 160 
Q 365 166 493 281 
Q 621 397 621 627 
L 621 3738 
Q 621 3955 509 4044 
Q 397 4134 90 4166 
L 90 4326 
z
M 1658 3827 
L 1658 640 
Q 1658 416 1738 320 
Q 1818 224 2029 224 
Q 2656 224 2982 685 
Q 3130 896 3216 1289 
Q 3302 1683 3302 2112 
Q 3302 3002 3040 3462 
Q 2669 4109 1997 4109 
Q 1658 4109 1658 3827 
z
" id="STIXGeneral-Bold-44" transform="scale(0.015625)"/>
      <path d="M 1350 4326 
L 1350 2669 
Q 1690 3027 2131 3027 
Q 2662 3027 2998 2611 
Q 3334 2195 3334 1530 
Q 3334 806 2931 358 
Q 2528 -90 1888 -90 
Q 1440 -90 1043 275 
L 538 -83 
L 461 -83 
L 461 3802 
Q 461 3994 397 4061 
Q 333 4128 109 4173 
L 109 4326 
L 1350 4326 
z
M 1350 2304 
L 1350 621 
Q 1350 390 1472 252 
Q 1594 115 1792 115 
Q 2394 115 2394 1414 
Q 2394 2682 1798 2682 
Q 1638 2682 1536 2595 
Q 1434 2509 1350 2304 
z
" id="STIXGeneral-Bold-62" transform="scale(0.015625)"/>
      <path d="M 3085 2950 
L 3085 2797 
Q 2931 2778 2854 2710 
Q 2778 2643 2701 2445 
L 1754 -102 
Q 1466 -877 1261 -1101 
Q 1062 -1312 723 -1312 
Q 448 -1312 275 -1171 
Q 102 -1030 102 -806 
Q 102 -621 211 -499 
Q 320 -378 499 -378 
Q 659 -378 771 -474 
Q 883 -570 883 -710 
Q 883 -736 870 -800 
L 864 -838 
Q 864 -883 896 -915 
Q 928 -947 973 -947 
Q 1216 -947 1395 -422 
L 1510 -83 
L 749 1773 
Q 435 2547 320 2707 
Q 269 2771 102 2797 
L 102 2950 
L 1696 2950 
L 1696 2797 
L 1594 2790 
Q 1363 2771 1363 2630 
Q 1363 2586 1491 2259 
L 1952 1069 
L 2387 2272 
Q 2458 2477 2458 2586 
Q 2458 2701 2387 2745 
Q 2317 2790 2112 2797 
L 2112 2950 
L 3085 2950 
z
" id="STIXGeneral-Bold-79" transform="scale(0.015625)"/>
     </defs>
     <use xlink:href="#STIXGeneral-Bold-53"/>
     <use x="55.599991" xlink:href="#STIXGeneral-Bold-6f"/>
     <use x="105.599976" xlink:href="#STIXGeneral-Bold-75"/>
     <use x="161.199966" xlink:href="#STIXGeneral-Bold-74"/>
     <use x="194.499954" xlink:href="#STIXGeneral-Bold-68"/>
     <use x="250.099945" xlink:href="#STIXGeneral-Bold-20"/>
     <use x="275.09993" xlink:href="#STIXGeneral-Bold-44"/>
     <use x="347.299911" xlink:href="#STIXGeneral-Bold-65"/>
     <use x="391.699905" xlink:href="#STIXGeneral-Bold-72"/>
     <use x="436.099899" xlink:href="#STIXGeneral-Bold-62"/>
     <use x="491.69989" xlink:href="#STIXGeneral-Bold-79"/>
     <use x="541.699875" xlink:href="#STIXGeneral-Bold-73"/>
     <use x="580.599869" xlink:href="#STIXGeneral-Bold-68"/>
     <use x="636.19986" xlink:href="#STIXGeneral-Bold-69"/>
     <use x="663.999847" xlink:href="#STIXGeneral-Bold-72"/>
     <use x="708.399841" xlink:href="#STIXGeneral-Bold-65"/>
    </g>
   </g>
   <g id="text_4">
    <!-- North West Leicestershire -->
    <g transform="translate(176.078664 487.625769)scale(0.1 -0.1)">
     <defs>
      <path d="M 6278 4326 
L 6278 4166 
Q 5958 4134 5837 3757 
L 4557 -96 
L 4384 -96 
L 3290 2957 
L 2099 -96 
L 1920 -96 
L 563 3757 
Q 480 3994 403 4064 
Q 326 4134 122 4166 
L 122 4326 
L 2003 4326 
L 2003 4166 
Q 1754 4147 1674 4092 
Q 1594 4038 1594 3898 
Q 1594 3814 1638 3686 
L 2406 1357 
L 3162 3328 
L 2938 3942 
Q 2861 4147 2477 4166 
L 2477 4326 
L 4474 4326 
L 4474 4166 
L 4390 4160 
Q 4179 4147 4096 4096 
Q 4013 4045 4013 3930 
Q 4013 3846 4102 3571 
L 4794 1421 
L 5510 3616 
Q 5555 3744 5555 3885 
Q 5555 4032 5462 4093 
Q 5370 4154 5114 4166 
L 5114 4326 
L 6278 4326 
z
" id="STIXGeneral-Bold-57" transform="scale(0.015625)"/>
     </defs>
     <use xlink:href="#STIXGeneral-Bold-4e"/>
     <use x="72.199982" xlink:href="#STIXGeneral-Bold-6f"/>
     <use x="122.199966" xlink:href="#STIXGeneral-Bold-72"/>
     <use x="166.59996" xlink:href="#STIXGeneral-Bold-74"/>
     <use x="199.899948" xlink:href="#STIXGeneral-Bold-68"/>
     <use x="255.499939" xlink:href="#STIXGeneral-Bold-20"/>
     <use x="280.499924" xlink:href="#STIXGeneral-Bold-57"/>
     <use x="380.499908" xlink:href="#STIXGeneral-Bold-65"/>
     <use x="424.899902" xlink:href="#STIXGeneral-Bold-73"/>
     <use x="463.799896" xlink:href="#STIXGeneral-Bold-74"/>
     <use x="497.099884" xlink:href="#STIXGeneral-Bold-20"/>
     <use x="522.099869" xlink:href="#STIXGeneral-Bold-4c"/>
     <use x="588.799866" xlink:href="#STIXGeneral-Bold-65"/>
     <use x="633.19986" xlink:href="#STIXGeneral-Bold-69"/>
     <use x="660.999847" xlink:href="#STIXGeneral-Bold-63"/>
     <use x="705.399841" xlink:href="#STIXGeneral-Bold-65"/>
     <use x="749.799835" xlink:href="#STIXGeneral-Bold-73"/>
     <use x="788.699829" xlink:href="#STIXGeneral-Bold-74"/>
     <use x="821.999817" xlink:href="#STIXGeneral-Bold-65"/>
     <use x="866.399811" xlink:href="#STIXGeneral-Bold-72"/>
     <use x="910.799805" xlink:href="#STIXGeneral-Bold-73"/>
     <use x="949.699799" xlink:href="#STIXGeneral-Bold-68"/>
     <use x="1005.299789" xlink:href="#STIXGeneral-Bold-69"/>
     <use x="1033.099777" xlink:href="#STIXGeneral-Bold-72"/>
     <use x="1077.499771" xlink:href="#STIXGeneral-Bold-65"/>
    </g>
   </g>
   <g id="text_5">
    <!-- West Lindsey -->
    <g transform="translate(366.073402 292.189136)scale(0.1 -0.1)">
     <use xlink:href="#STIXGeneral-Bold-57"/>
     <use x="99.999985" xlink:href="#STIXGeneral-Bold-65"/>
     <use x="144.399979" xlink:href="#STIXGeneral-Bold-73"/>
     <use x="183.299973" xlink:href="#STIXGeneral-Bold-74"/>
     <use x="216.59996" xlink:href="#STIXGeneral-Bold-20"/>
     <use x="241.599945" xlink:href="#STIXGeneral-Bold-4c"/>
     <use x="308.299942" xlink:href="#STIXGeneral-Bold-69"/>
     <use x="336.09993" xlink:href="#STIXGeneral-Bold-6e"/>
     <use x="391.699921" xlink:href="#STIXGeneral-Bold-64"/>
     <use x="447.299911" xlink:href="#STIXGeneral-Bold-73"/>
     <use x="486.199905" xlink:href="#STIXGeneral-Bold-65"/>
     <use x="530.599899" xlink:href="#STIXGeneral-Bold-79"/>
    </g>
   </g>
   <g id="text_6">
    <!-- Bassetlaw -->
    <g transform="translate(289.84483 308.458509)scale(0.1 -0.1)">
     <defs>
      <path d="M 2726 2336 
L 2726 2330 
Q 3270 2259 3616 1955 
Q 3962 1651 3962 1203 
Q 3962 672 3501 336 
Q 3040 0 2208 0 
L 102 0 
L 102 160 
Q 454 198 560 294 
Q 666 390 666 659 
L 666 3648 
Q 666 3930 547 4035 
Q 429 4141 102 4166 
L 102 4326 
L 2131 4326 
Q 2906 4326 3325 4060 
Q 3744 3795 3744 3302 
Q 3744 2925 3507 2685 
Q 3270 2445 2726 2336 
z
M 1690 3789 
L 1690 2387 
Q 2272 2387 2480 2579 
Q 2688 2771 2688 3258 
Q 2688 4134 2054 4134 
Q 1862 4134 1776 4054 
Q 1690 3974 1690 3789 
z
M 1690 2195 
L 1690 627 
Q 1690 397 1786 301 
Q 1882 205 2093 205 
Q 2464 205 2662 461 
Q 2861 717 2861 1203 
Q 2861 2195 1856 2195 
L 1690 2195 
z
" id="STIXGeneral-Bold-42" transform="scale(0.015625)"/>
      <path d="M 4525 2950 
L 4525 2797 
Q 4403 2771 4336 2707 
Q 4269 2643 4205 2477 
L 3213 -90 
L 3066 -90 
L 2413 1894 
L 1613 -90 
L 1459 -90 
L 512 2304 
Q 390 2605 329 2688 
Q 269 2771 147 2797 
L 147 2950 
L 1568 2950 
L 1568 2797 
Q 1325 2765 1325 2618 
Q 1325 2541 1574 1882 
L 1862 1126 
L 2298 2221 
Q 2272 2298 2259 2342 
Q 2170 2656 2118 2717 
Q 2067 2778 1882 2797 
L 1882 2950 
L 3379 2950 
L 3379 2797 
Q 3200 2784 3136 2752 
Q 3072 2720 3072 2643 
Q 3072 2554 3245 1965 
Q 3392 1459 3462 1152 
L 3686 1754 
Q 3968 2509 3968 2573 
Q 3968 2682 3904 2730 
Q 3840 2778 3661 2797 
L 3661 2950 
L 4525 2950 
z
" id="STIXGeneral-Bold-77" transform="scale(0.015625)"/>
     </defs>
     <use xlink:href="#STIXGeneral-Bold-42"/>
     <use x="66.699997" xlink:href="#STIXGeneral-Bold-61"/>
     <use x="116.699982" xlink:href="#STIXGeneral-Bold-73"/>
     <use x="155.599976" xlink:href="#STIXGeneral-Bold-73"/>
     <use x="194.499969" xlink:href="#STIXGeneral-Bold-65"/>
     <use x="238.899963" xlink:href="#STIXGeneral-Bold-74"/>
     <use x="272.199951" xlink:href="#STIXGeneral-Bold-6c"/>
     <use x="299.999939" xlink:href="#STIXGeneral-Bold-61"/>
     <use x="349.999924" xlink:href="#STIXGeneral-Bold-77"/>
    </g>
   </g>
   <g id="text_7">
    <!-- Newark and Sherwood -->
    <g transform="translate(265.466339 383.250917)scale(0.1 -0.1)">
     <use xlink:href="#STIXGeneral-Bold-4e"/>
     <use x="72.199982" xlink:href="#STIXGeneral-Bold-65"/>
     <use x="116.599976" xlink:href="#STIXGeneral-Bold-77"/>
     <use x="188.799957" xlink:href="#STIXGeneral-Bold-61"/>
     <use x="238.799942" xlink:href="#STIXGeneral-Bold-72"/>
     <use x="283.199936" xlink:href="#STIXGeneral-Bold-6b"/>
     <use x="338.799927" xlink:href="#STIXGeneral-Bold-20"/>
     <use x="363.799911" xlink:href="#STIXGeneral-Bold-61"/>
     <use x="413.799896" xlink:href="#STIXGeneral-Bold-6e"/>
     <use x="469.399887" xlink:href="#STIXGeneral-Bold-64"/>
     <use x="524.999878" xlink:href="#STIXGeneral-Bold-20"/>
     <use x="549.999863" xlink:href="#STIXGeneral-Bold-53"/>
     <use x="605.599854" xlink:href="#STIXGeneral-Bold-68"/>
     <use x="661.199844" xlink:href="#STIXGeneral-Bold-65"/>
     <use x="705.599838" xlink:href="#STIXGeneral-Bold-72"/>
     <use x="749.999832" xlink:href="#STIXGeneral-Bold-77"/>
     <use x="822.199814" xlink:href="#STIXGeneral-Bold-6f"/>
     <use x="872.199799" xlink:href="#STIXGeneral-Bold-6f"/>
     <use x="922.199783" xlink:href="#STIXGeneral-Bold-64"/>
    </g>
   </g>
   <g id="text_8">
    <!-- Rushcliffe -->
    <g transform="translate(282.278457 444.033709)scale(0.1 -0.1)">
     <use xlink:href="#STIXGeneral-Bold-52"/>
     <use x="72.199982" xlink:href="#STIXGeneral-Bold-75"/>
     <use x="127.799973" xlink:href="#STIXGeneral-Bold-73"/>
     <use x="166.699966" xlink:href="#STIXGeneral-Bold-68"/>
     <use x="222.299957" xlink:href="#STIXGeneral-Bold-63"/>
     <use x="266.699951" xlink:href="#STIXGeneral-Bold-6c"/>
     <use x="294.499939" xlink:href="#STIXGeneral-Bold-69"/>
     <use x="322.299927" xlink:href="#STIXGeneral-Bold-66"/>
     <use x="355.599915" xlink:href="#STIXGeneral-Bold-66"/>
     <use x="388.899902" xlink:href="#STIXGeneral-Bold-65"/>
    </g>
   </g>
   <g id="text_9">
    <!-- East Staffordshire -->
    <g transform="translate(98.083761 452.184394)scale(0.1 -0.1)">
     <use xlink:href="#STIXGeneral-Bold-45"/>
     <use x="66.699997" xlink:href="#STIXGeneral-Bold-61"/>
     <use x="116.699982" xlink:href="#STIXGeneral-Bold-73"/>
     <use x="155.599976" xlink:href="#STIXGeneral-Bold-74"/>
     <use x="188.899963" xlink:href="#STIXGeneral-Bold-20"/>
     <use x="213.899948" xlink:href="#STIXGeneral-Bold-53"/>
     <use x="269.499939" xlink:href="#STIXGeneral-Bold-74"/>
     <use x="302.799927" xlink:href="#STIXGeneral-Bold-61"/>
     <use x="352.799911" xlink:href="#STIXGeneral-Bold-66"/>
     <use x="386.099899" xlink:href="#STIXGeneral-Bold-66"/>
     <use x="419.399887" xlink:href="#STIXGeneral-Bold-6f"/>
     <use x="469.399872" xlink:href="#STIXGeneral-Bold-72"/>
     <use x="513.799866" xlink:href="#STIXGeneral-Bold-64"/>
     <use x="569.399857" xlink:href="#STIXGeneral-Bold-73"/>
     <use x="608.29985" xlink:href="#STIXGeneral-Bold-68"/>
     <use x="663.899841" xlink:href="#STIXGeneral-Bold-69"/>
     <use x="691.699829" xlink:href="#STIXGeneral-Bold-72"/>
     <use x="736.099823" xlink:href="#STIXGeneral-Bold-65"/>
    </g>
   </g>
   <g id="text_10">
    <!-- Lichfield -->
    <g transform="translate(143.311876 512.25275)scale(0.1 -0.1)">
     <use xlink:href="#STIXGeneral-Bold-4c"/>
     <use x="66.699997" xlink:href="#STIXGeneral-Bold-69"/>
     <use x="94.499985" xlink:href="#STIXGeneral-Bold-63"/>
     <use x="138.899979" xlink:href="#STIXGeneral-Bold-68"/>
     <use x="194.499969" xlink:href="#STIXGeneral-Bold-66"/>
     <use x="227.799957" xlink:href="#STIXGeneral-Bold-69"/>
     <use x="255.599945" xlink:href="#STIXGeneral-Bold-65"/>
     <use x="299.999939" xlink:href="#STIXGeneral-Bold-6c"/>
     <use x="327.799927" xlink:href="#STIXGeneral-Bold-64"/>
    </g>
   </g>
   <g id="text_11">
    <!-- Stafford -->
    <g transform="translate(69.91118 466.283573)scale(0.1 -0.1)">
     <use xlink:href="#STIXGeneral-Bold-53"/>
     <use x="55.599991" xlink:href="#STIXGeneral-Bold-74"/>
     <use x="88.899979" xlink:href="#STIXGeneral-Bold-61"/>
     <use x="138.899963" xlink:href="#STIXGeneral-Bold-66"/>
     <use x="172.199951" xlink:href="#STIXGeneral-Bold-66"/>
     <use x="205.499939" xlink:href="#STIXGeneral-Bold-6f"/>
     <use x="255.499924" xlink:href="#STIXGeneral-Bold-72"/>
     <use x="299.899918" xlink:href="#STIXGeneral-Bold-64"/>
    </g>
   </g>
   <g id="text_12">
    <!-- Local Authority Districts that are intersected by the Trent -->
    <g style="fill:#323034;" transform="translate(7.2 20.859375)scale(0.2 -0.2)">
     <defs>
      <path d="M 3827 1114 
L 3520 0 
L 77 0 
L 77 122 
Q 429 141 531 256 
Q 634 371 634 736 
L 634 3494 
Q 634 3872 541 3981 
Q 448 4090 77 4115 
L 77 4237 
L 1888 4237 
L 1888 4115 
Q 1498 4090 1392 3984 
Q 1286 3878 1286 3507 
L 1286 538 
Q 1286 358 1398 304 
Q 1510 250 1862 250 
L 2310 250 
Q 3085 250 3392 640 
Q 3520 813 3661 1114 
L 3827 1114 
z
" id="STIXGeneral-Regular-4c" transform="scale(0.015625)"/>
      <path d="M 3008 1478 
Q 3008 806 2608 371 
Q 2208 -64 1568 -64 
Q 979 -64 582 368 
Q 186 800 186 1459 
Q 186 2125 582 2534 
Q 979 2944 1626 2944 
Q 2221 2944 2614 2537 
Q 3008 2131 3008 1478 
z
M 2432 1306 
Q 2432 2035 2112 2445 
Q 1856 2765 1504 2765 
Q 1171 2765 966 2493 
Q 762 2221 762 1747 
Q 762 928 1101 435 
Q 1318 115 1677 115 
Q 2029 115 2230 432 
Q 2432 749 2432 1306 
z
" id="STIXGeneral-Regular-6f" transform="scale(0.015625)"/>
      <path d="M 2547 998 
L 2637 941 
Q 2362 403 2112 205 
Q 1786 -64 1376 -64 
Q 845 -64 502 336 
Q 160 736 160 1357 
Q 160 2170 698 2618 
Q 1094 2944 1562 2944 
Q 1965 2944 2256 2749 
Q 2547 2554 2547 2285 
Q 2547 2176 2457 2096 
Q 2368 2016 2246 2016 
Q 2022 2016 1939 2310 
L 1901 2451 
Q 1850 2630 1773 2694 
Q 1696 2758 1523 2758 
Q 1133 2758 893 2451 
Q 653 2144 653 1645 
Q 653 1094 928 745 
Q 1203 397 1645 397 
Q 1920 397 2118 528 
Q 2317 659 2547 998 
z
" id="STIXGeneral-Regular-63" transform="scale(0.015625)"/>
      <path d="M 2829 422 
L 2829 243 
Q 2586 -64 2253 -64 
Q 1888 -64 1843 403 
L 1837 403 
Q 1427 -64 909 -64 
Q 608 -64 422 112 
Q 237 288 237 602 
Q 237 1050 685 1350 
Q 992 1555 1837 1869 
L 1837 2214 
Q 1837 2502 1699 2646 
Q 1562 2790 1338 2790 
Q 1146 2790 1018 2697 
Q 890 2605 890 2477 
Q 890 2419 909 2348 
Q 928 2278 928 2208 
Q 928 2112 841 2029 
Q 755 1946 634 1946 
Q 525 1946 441 2029 
Q 358 2112 358 2240 
Q 358 2547 685 2752 
Q 986 2944 1421 2944 
Q 1939 2944 2176 2656 
Q 2291 2522 2323 2384 
Q 2355 2246 2355 1946 
L 2355 723 
Q 2355 301 2554 301 
Q 2682 301 2829 422 
z
M 1837 813 
L 1837 1715 
Q 1248 1510 1018 1293 
Q 800 1094 800 800 
Q 800 557 921 432 
Q 1043 307 1242 307 
Q 1453 307 1613 410 
Q 1747 506 1792 589 
Q 1837 672 1837 813 
z
" id="STIXGeneral-Regular-61" transform="scale(0.015625)"/>
      <path d="M 1645 0 
L 134 0 
L 134 96 
Q 435 122 531 221 
Q 627 320 627 589 
L 627 3590 
Q 627 3821 569 3910 
Q 512 4000 358 4000 
Q 224 4000 122 3987 
L 122 4090 
Q 730 4237 1133 4371 
L 1165 4346 
L 1165 557 
Q 1165 288 1254 201 
Q 1344 115 1645 96 
L 1645 0 
z
" id="STIXGeneral-Regular-6c" transform="scale(0.015625)"/>
      <path id="STIXGeneral-Regular-20" transform="scale(0.015625)"/>
      <path d="M 4525 0 
L 2893 0 
L 2893 122 
Q 3149 122 3245 179 
Q 3334 224 3334 333 
Q 3334 499 3213 781 
L 2950 1382 
L 1274 1382 
L 979 653 
Q 922 506 922 384 
Q 922 237 1027 179 
Q 1133 122 1370 122 
L 1370 0 
L 96 0 
L 96 122 
Q 365 147 486 316 
Q 608 486 902 1190 
L 2221 4314 
L 2349 4314 
L 3923 710 
Q 4064 378 4176 262 
Q 4288 147 4525 122 
L 4525 0 
z
M 2861 1645 
L 2118 3405 
L 1382 1645 
L 2861 1645 
z
" id="STIXGeneral-Regular-41" transform="scale(0.015625)"/>
      <path d="M 3072 320 
L 3072 230 
Q 2573 96 2195 -58 
L 2163 -38 
L 2163 486 
L 2150 486 
Q 1747 -64 1235 -64 
Q 870 -64 662 160 
Q 454 384 454 755 
L 454 2362 
Q 454 2598 371 2688 
Q 288 2778 58 2790 
L 58 2880 
L 992 2880 
L 992 813 
Q 992 595 1123 451 
Q 1254 307 1446 307 
Q 1760 307 1984 506 
Q 2067 582 2099 649 
Q 2131 717 2131 877 
L 2131 2355 
Q 2131 2605 2041 2678 
Q 1952 2752 1658 2771 
L 1658 2880 
L 2669 2880 
L 2669 685 
Q 2669 461 2742 390 
Q 2816 320 3034 320 
L 3072 320 
z
" id="STIXGeneral-Regular-75" transform="scale(0.015625)"/>
      <path d="M 1702 493 
L 1786 422 
Q 1478 -64 1011 -64 
Q 448 -64 448 749 
L 448 2675 
L 109 2675 
Q 83 2694 83 2720 
Q 83 2771 192 2842 
Q 435 2982 813 3526 
Q 826 3546 874 3606 
Q 922 3667 941 3706 
Q 986 3706 986 3622 
L 986 2880 
L 1632 2880 
L 1632 2675 
L 986 2675 
L 986 845 
Q 986 538 1062 403 
Q 1139 269 1318 269 
Q 1510 269 1702 493 
z
" id="STIXGeneral-Regular-74" transform="scale(0.015625)"/>
      <path d="M 3117 0 
L 1760 0 
L 1760 96 
Q 2042 128 2118 224 
Q 2195 320 2195 653 
L 2195 1920 
Q 2195 2598 1722 2598 
Q 1530 2598 1370 2508 
Q 1210 2419 1005 2195 
L 1005 653 
Q 1005 320 1081 224 
Q 1158 128 1440 96 
L 1440 0 
L 58 0 
L 58 96 
Q 333 134 400 224 
Q 467 314 467 653 
L 467 3667 
Q 467 3872 406 3933 
Q 346 3994 141 3994 
Q 83 3994 64 3987 
L 64 4090 
L 237 4141 
Q 730 4288 973 4371 
L 1005 4352 
L 1005 2406 
Q 1229 2694 1446 2819 
Q 1664 2944 1946 2944 
Q 2733 2944 2733 1926 
L 2733 653 
Q 2733 320 2793 233 
Q 2854 147 3117 96 
L 3117 0 
z
" id="STIXGeneral-Regular-68" transform="scale(0.015625)"/>
      <path d="M 1024 2931 
L 1024 2342 
Q 1267 2688 1430 2816 
Q 1594 2944 1792 2944 
Q 1958 2944 2051 2854 
Q 2144 2765 2144 2605 
Q 2144 2470 2077 2393 
Q 2010 2317 1894 2317 
Q 1773 2317 1638 2445 
Q 1536 2541 1472 2541 
Q 1338 2541 1181 2355 
Q 1024 2170 1024 2016 
L 1024 576 
Q 1024 301 1133 205 
Q 1242 109 1568 96 
L 1568 0 
L 32 0 
L 32 96 
Q 339 154 412 224 
Q 486 294 486 538 
L 486 2138 
Q 486 2349 438 2435 
Q 390 2522 269 2522 
Q 166 2522 45 2496 
L 45 2598 
Q 448 2726 992 2944 
L 1024 2931 
z
" id="STIXGeneral-Regular-72" transform="scale(0.015625)"/>
      <path d="M 1152 4045 
Q 1152 3904 1056 3811 
Q 960 3718 819 3718 
Q 685 3718 592 3811 
Q 499 3904 499 4045 
Q 499 4179 595 4275 
Q 691 4371 826 4371 
Q 966 4371 1059 4275 
Q 1152 4179 1152 4045 
z
M 1619 0 
L 102 0 
L 102 96 
Q 435 115 521 211 
Q 608 307 608 666 
L 608 2118 
Q 608 2342 563 2432 
Q 518 2522 397 2522 
Q 243 2522 128 2490 
L 128 2592 
L 1120 2944 
L 1146 2918 
L 1146 672 
Q 1146 314 1226 218 
Q 1306 122 1619 96 
L 1619 0 
z
" id="STIXGeneral-Regular-69" transform="scale(0.015625)"/>
      <path d="M 3040 2880 
L 3040 2784 
Q 2925 2771 2854 2700 
Q 2784 2630 2720 2458 
L 1760 -160 
Q 1510 -838 1257 -1116 
Q 1005 -1395 640 -1395 
Q 435 -1395 313 -1289 
Q 192 -1184 192 -1024 
Q 192 -902 272 -816 
Q 352 -730 467 -730 
Q 653 -730 800 -813 
Q 883 -858 966 -858 
Q 1101 -858 1286 -576 
Q 1376 -448 1459 -211 
Q 1542 26 1542 115 
Q 1542 198 1274 762 
L 429 2566 
Q 346 2752 90 2790 
L 90 2880 
L 1402 2880 
L 1402 2784 
Q 1197 2778 1117 2739 
Q 1037 2701 1037 2611 
Q 1037 2541 1120 2349 
L 1837 749 
L 2458 2515 
Q 2483 2573 2483 2630 
Q 2483 2784 2189 2784 
L 2189 2880 
L 3040 2880 
z
" id="STIXGeneral-Regular-79" transform="scale(0.015625)"/>
      <path d="M 102 4237 
L 1830 4237 
Q 3078 4237 3750 3654 
Q 4384 3110 4384 2138 
Q 4384 966 3514 410 
Q 2880 0 1901 0 
L 102 0 
L 102 122 
Q 474 147 570 252 
Q 666 358 666 736 
L 666 3520 
Q 666 3891 570 3990 
Q 474 4090 102 4115 
L 102 4237 
z
M 1318 3731 
L 1318 538 
Q 1318 365 1379 301 
Q 1440 237 1626 237 
Q 2125 237 2432 307 
Q 2739 378 3021 570 
Q 3686 1018 3686 2099 
Q 3686 3027 3078 3558 
Q 2803 3802 2476 3901 
Q 2150 4000 1658 4000 
Q 1472 4000 1395 3942 
Q 1318 3885 1318 3731 
z
" id="STIXGeneral-Regular-44" transform="scale(0.015625)"/>
      <path d="M 998 1926 
L 1664 1523 
Q 1984 1331 2105 1164 
Q 2227 998 2227 736 
Q 2227 416 1961 176 
Q 1696 -64 1331 -64 
Q 1030 -64 864 -6 
Q 691 51 570 51 
Q 461 51 416 -26 
L 333 -26 
L 333 979 
L 435 979 
Q 538 512 730 294 
Q 922 77 1248 77 
Q 1485 77 1632 211 
Q 1779 346 1779 550 
Q 1779 845 1440 1030 
L 1094 1222 
Q 326 1651 326 2150 
Q 326 2522 566 2730 
Q 806 2938 1210 2938 
Q 1491 2938 1638 2867 
Q 1754 2816 1818 2816 
Q 1862 2816 1920 2880 
L 1990 2880 
L 2022 2010 
L 1926 2010 
Q 1818 2445 1654 2621 
Q 1491 2797 1203 2797 
Q 986 2797 854 2688 
Q 723 2579 723 2362 
Q 723 2253 796 2128 
Q 870 2003 998 1926 
z
" id="STIXGeneral-Regular-73" transform="scale(0.015625)"/>
      <path d="M 2611 1050 
L 2714 1005 
Q 2330 -64 1376 -64 
Q 813 -64 486 329 
Q 160 723 160 1389 
Q 160 2074 525 2509 
Q 890 2944 1485 2944 
Q 2061 2944 2374 2502 
Q 2560 2246 2592 1773 
L 621 1773 
Q 646 1370 700 1158 
Q 755 947 915 730 
Q 1184 378 1626 378 
Q 1939 378 2153 531 
Q 2368 685 2611 1050 
z
M 634 1978 
L 1939 1978 
Q 1882 2381 1750 2547 
Q 1619 2714 1312 2714 
Q 1043 2714 864 2525 
Q 685 2336 634 1978 
z
" id="STIXGeneral-Regular-65" transform="scale(0.015625)"/>
      <path d="M 3104 0 
L 1773 0 
L 1779 96 
Q 2016 115 2096 233 
Q 2176 352 2176 672 
L 2176 1946 
Q 2176 2592 1709 2592 
Q 1549 2592 1408 2515 
Q 1267 2438 1050 2227 
L 1050 461 
Q 1050 269 1136 192 
Q 1222 115 1466 96 
L 1466 0 
L 115 0 
L 115 96 
Q 358 115 435 214 
Q 512 314 512 602 
L 512 2157 
Q 512 2394 467 2483 
Q 422 2573 288 2573 
Q 160 2573 102 2547 
L 102 2656 
Q 550 2784 979 2944 
L 1030 2925 
L 1030 2426 
L 1037 2426 
Q 1491 2944 1958 2944 
Q 2323 2944 2518 2688 
Q 2714 2432 2714 1958 
L 2714 544 
Q 2714 288 2790 205 
Q 2867 122 3104 96 
L 3104 0 
z
" id="STIXGeneral-Regular-6e" transform="scale(0.015625)"/>
      <path d="M 3142 269 
L 2202 -64 
L 2176 -45 
L 2176 365 
Q 1869 -64 1357 -64 
Q 826 -64 499 317 
Q 173 698 173 1312 
Q 173 1990 563 2467 
Q 954 2944 1504 2944 
Q 1850 2944 2176 2669 
L 2176 3667 
Q 2176 3866 2118 3930 
Q 2061 3994 1882 3994 
Q 1792 3994 1741 3987 
L 1741 4090 
Q 2323 4243 2682 4371 
L 2714 4358 
L 2714 730 
Q 2714 506 2768 435 
Q 2822 365 2995 365 
Q 3034 365 3142 371 
L 3142 269 
z
M 2176 653 
L 2176 2125 
Q 2176 2381 1981 2573 
Q 1786 2765 1523 2765 
Q 1158 2765 940 2438 
Q 723 2112 723 1568 
Q 723 979 963 624 
Q 1203 269 1606 269 
Q 1907 269 2080 474 
Q 2176 582 2176 653 
z
" id="STIXGeneral-Regular-64" transform="scale(0.015625)"/>
      <path d="M 979 4358 
L 979 2406 
Q 1082 2650 1315 2797 
Q 1549 2944 1843 2944 
Q 2349 2944 2672 2541 
Q 2995 2138 2995 1536 
Q 2995 832 2566 384 
Q 2138 -64 1498 -64 
Q 1107 -64 774 67 
Q 442 198 442 358 
L 442 3622 
Q 442 3859 384 3926 
Q 326 3994 128 3994 
Q 83 3994 19 3981 
L 19 4090 
L 211 4147 
Q 864 4346 947 4371 
L 979 4358 
z
M 979 2035 
L 979 474 
Q 979 326 1161 233 
Q 1344 141 1600 141 
Q 1978 141 2195 416 
Q 2432 710 2432 1261 
Q 2432 1888 2182 2240 
Q 1971 2541 1613 2541 
Q 1357 2541 1168 2390 
Q 979 2240 979 2035 
z
" id="STIXGeneral-Regular-62" transform="scale(0.015625)"/>
      <path d="M 3795 3149 
L 3642 3149 
Q 3539 3674 3353 3821 
Q 3168 3968 2656 3968 
L 2278 3968 
L 2278 710 
Q 2278 346 2387 243 
Q 2496 141 2893 122 
L 2893 0 
L 1024 0 
L 1024 122 
Q 1427 147 1526 256 
Q 1626 365 1626 787 
L 1626 3968 
L 1242 3968 
Q 723 3968 540 3817 
Q 358 3667 262 3149 
L 109 3149 
L 154 4237 
L 3750 4237 
L 3795 3149 
z
" id="STIXGeneral-Regular-54" transform="scale(0.015625)"/>
     </defs>
     <use xlink:href="#STIXGeneral-Regular-4c"/>
     <use x="61.099991" xlink:href="#STIXGeneral-Regular-6f"/>
     <use x="111.099976" xlink:href="#STIXGeneral-Regular-63"/>
     <use x="155.499969" xlink:href="#STIXGeneral-Regular-61"/>
     <use x="199.899963" xlink:href="#STIXGeneral-Regular-6c"/>
     <use x="227.699951" xlink:href="#STIXGeneral-Regular-20"/>
     <use x="252.699936" xlink:href="#STIXGeneral-Regular-41"/>
     <use x="324.899918" xlink:href="#STIXGeneral-Regular-75"/>
     <use x="374.899902" xlink:href="#STIXGeneral-Regular-74"/>
     <use x="402.69989" xlink:href="#STIXGeneral-Regular-68"/>
     <use x="452.699875" xlink:href="#STIXGeneral-Regular-6f"/>
     <use x="502.69986" xlink:href="#STIXGeneral-Regular-72"/>
     <use x="535.999847" xlink:href="#STIXGeneral-Regular-69"/>
     <use x="563.799835" xlink:href="#STIXGeneral-Regular-74"/>
     <use x="591.599823" xlink:href="#STIXGeneral-Regular-79"/>
     <use x="641.599808" xlink:href="#STIXGeneral-Regular-20"/>
     <use x="666.599792" xlink:href="#STIXGeneral-Regular-44"/>
     <use x="738.799774" xlink:href="#STIXGeneral-Regular-69"/>
     <use x="766.599762" xlink:href="#STIXGeneral-Regular-73"/>
     <use x="805.499756" xlink:href="#STIXGeneral-Regular-74"/>
     <use x="833.299744" xlink:href="#STIXGeneral-Regular-72"/>
     <use x="866.599731" xlink:href="#STIXGeneral-Regular-69"/>
     <use x="894.399719" xlink:href="#STIXGeneral-Regular-63"/>
     <use x="938.799713" xlink:href="#STIXGeneral-Regular-74"/>
     <use x="966.599701" xlink:href="#STIXGeneral-Regular-73"/>
     <use x="1005.499695" xlink:href="#STIXGeneral-Regular-20"/>
     <use x="1030.49968" xlink:href="#STIXGeneral-Regular-74"/>
     <use x="1058.299667" xlink:href="#STIXGeneral-Regular-68"/>
     <use x="1108.299652" xlink:href="#STIXGeneral-Regular-61"/>
     <use x="1152.699646" xlink:href="#STIXGeneral-Regular-74"/>
     <use x="1180.499634" xlink:href="#STIXGeneral-Regular-20"/>
     <use x="1205.499619" xlink:href="#STIXGeneral-Regular-61"/>
     <use x="1249.899612" xlink:href="#STIXGeneral-Regular-72"/>
     <use x="1283.1996" xlink:href="#STIXGeneral-Regular-65"/>
     <use x="1327.599594" xlink:href="#STIXGeneral-Regular-20"/>
     <use x="1352.599579" xlink:href="#STIXGeneral-Regular-69"/>
     <use x="1380.399567" xlink:href="#STIXGeneral-Regular-6e"/>
     <use x="1430.399551" xlink:href="#STIXGeneral-Regular-74"/>
     <use x="1458.199539" xlink:href="#STIXGeneral-Regular-65"/>
     <use x="1502.599533" xlink:href="#STIXGeneral-Regular-72"/>
     <use x="1535.899521" xlink:href="#STIXGeneral-Regular-73"/>
     <use x="1574.799515" xlink:href="#STIXGeneral-Regular-65"/>
     <use x="1619.199509" xlink:href="#STIXGeneral-Regular-63"/>
     <use x="1663.599503" xlink:href="#STIXGeneral-Regular-74"/>
     <use x="1691.39949" xlink:href="#STIXGeneral-Regular-65"/>
     <use x="1735.799484" xlink:href="#STIXGeneral-Regular-64"/>
     <use x="1785.799469" xlink:href="#STIXGeneral-Regular-20"/>
     <use x="1810.799454" xlink:href="#STIXGeneral-Regular-62"/>
     <use x="1860.799438" xlink:href="#STIXGeneral-Regular-79"/>
     <use x="1910.799423" xlink:href="#STIXGeneral-Regular-20"/>
     <use x="1935.799408" xlink:href="#STIXGeneral-Regular-74"/>
     <use x="1963.599396" xlink:href="#STIXGeneral-Regular-68"/>
     <use x="2013.59938" xlink:href="#STIXGeneral-Regular-65"/>
     <use x="2057.999374" xlink:href="#STIXGeneral-Regular-20"/>
     <use x="2082.999359" xlink:href="#STIXGeneral-Regular-54"/>
     <use x="2144.09935" xlink:href="#STIXGeneral-Regular-72"/>
     <use x="2177.399338" xlink:href="#STIXGeneral-Regular-65"/>
     <use x="2221.799332" xlink:href="#STIXGeneral-Regular-6e"/>
     <use x="2271.799316" xlink:href="#STIXGeneral-Regular-74"/>
    </g>
   </g>
  </g>
 </g>
 <defs>
  <clipPath id="p59c81d344c">
   <rect height="543.6" width="529.764807" x="7.2" y="26.859375"/>
  </clipPath>
 </defs>
</svg>
