<?xml version="1.0" encoding="utf-8" standalone="no"?>
<!DOCTYPE svg PUBLIC "-//W3C//DTD SVG 1.1//EN"
  "http://www.w3.org/Graphics/SVG/1.1/DTD/svg11.dtd">
<svg height="574.945pt" version="1.1" viewBox="0 0 544.164807 574.945" width="544.164807pt" xmlns="http://www.w3.org/2000/svg" xmlns:xlink="http://www.w3.org/1999/xlink">
 <metadata>
  <rdf:RDF xmlns:cc="http://creativecommons.org/ns#" xmlns:dc="http://purl.org/dc/elements/1.1/" xmlns:rdf="http://www.w3.org/1999/02/22-rdf-syntax-ns#">
   <cc:Work>
    <dc:type rdf:resource="http://purl.org/dc/dcmitype/StillImage"/>
    <dc:date>2022-08-20T18:00:42.526578</dc:date>
    <dc:format>image/svg+xml</dc:format>
    <dc:creator>
     <cc:Agent>
      <dc:title>Matplotlib v3.4.3, https://matplotlib.org/</dc:title>
     </cc:Agent>
    </dc:creator>
   </cc:Work>
  </rdf:RDF>
 </metadata>
 <defs>
  <style type="text/css">*{stroke-linecap:butt;stroke-linejoin:round;}</style>
 </defs>
 <g id="figure_1">
  <g id="patch_1">
   <path d="M 0 574.945 
L 544.164807 574.945 
L 544.164807 0 
L 0 0 
z
" style="fill:none;"/>
  </g>
  <g id="axes_1">
   <g id="PatchCollection_1">
    <path clip-path="url(#paa073d8a8e)" d="M 506.933066 231.927014 
L 506.661464 232.270921 
L 506.676711 232.206633 
L 506.933064 231.865275 
L 512.145512 224.924417 
L 510.187702 227.805935 
L 506.933066 231.927014 
" style="fill:#808080;stroke:#999999;stroke-width:0.2;"/>
    <path clip-path="url(#paa073d8a8e)" d="M 413.300809 55.699819 
L 418.518088 57.813182 
L 422.577076 56.660993 
L 426.23047 60.905178 
L 433.228123 59.409511 
L 439.750899 61.753245 
L 442.647607 53.874365 
L 442.676102 53.886559 
L 451.486194 57.313778 
L 463.816899 62.110552 
L 467.042882 65.277286 
L 467.677793 65.986682 
L 462.673273 69.891693 
L 451.486169 71.806837 
L 451.417814 71.818539 
L 443.5054 85.073112 
L 443.668312 95.515173 
L 443.741778 100.224006 
L 451.486205 122.577159 
L 454.959422 132.60209 
L 467.10543 150.961958 
L 477.574105 166.786374 
L 506.790239 204.769007 
L 506.933026 205.181969 
L 507.357217 206.408795 
L 512.635606 221.674715 
L 512.884589 223.83664 
L 512.152757 224.913755 
L 512.489566 222.654376 
L 512.019062 221.17786 
L 506.933146 217.079267 
L 500.564748 211.947158 
L 491.513602 209.461753 
L 475.860675 216.154467 
L 466.729131 214.485516 
L 459.136774 206.408798 
L 451.486199 198.270148 
L 445.890036 192.316972 
L 443.491072 192.491685 
L 442.735331 184.777917 
L 440.416682 186.097137 
L 440.127765 183.724472 
L 440.178449 183.613449 
L 439.553933 182.505783 
L 439.986094 183.918484 
L 439.092093 184.943195 
L 438.874045 184.856309 
L 440.527984 178.242402 
L 438.123811 175.650255 
L 438.331454 170.143546 
L 433.590471 170.033487 
L 426.442547 160.573689 
L 418.068674 163.343825 
L 418.686095 166.885755 
L 412.709743 167.72329 
L 413.612708 174.425978 
L 408.173911 177.236856 
L 407.495801 180.230158 
L 411.220169 180.453351 
L 407.624447 186.236439 
L 408.289841 189.894094 
L 408.271933 189.900988 
L 396.039435 192.031433 
L 385.776706 193.818818 
L 378.20433 188.369757 
L 369.585942 186.257808 
L 368.330345 187.855495 
L 371.743385 187.290764 
L 362.08621 190.149064 
L 357.727528 195.623041 
L 349.181784 194.968761 
L 354.717042 196.303374 
L 357.298915 197.675956 
L 355.213293 198.290603 
L 357.090998 198.309172 
L 357.228892 199.943527 
L 356.693723 203.932314 
L 353.14678 203.419716 
L 343.61409 210.730095 
L 344.005261 208.296535 
L 340.988673 209.849324 
L 330.21506 218.102861 
L 327.062077 216.712263 
L 312.024346 210.331158 
L 293.383374 211.54518 
L 283.270704 207.511965 
L 287.336344 202.815047 
L 288.377624 196.822651 
L 290.795947 195.936587 
L 295.009639 199.854755 
L 305.722792 198.761627 
L 305.657921 196.264572 
L 308.941218 197.526265 
L 309.780957 193.18283 
L 319.639696 191.947467 
L 318.252687 187.553868 
L 309.132495 186.65813 
L 306.71751 182.417271 
L 314.935308 177.445914 
L 313.626748 166.304395 
L 316.187568 161.849239 
L 312.410809 159.615286 
L 310.846924 147.887168 
L 315.262431 141.910847 
L 315.703524 138.864304 
L 310.463776 137.926412 
L 315.421295 129.367367 
L 315.309015 117.335126 
L 312.926466 114.892421 
L 314.421023 107.754737 
L 320.088241 105.194213 
L 322.81124 99.706073 
L 336.896128 97.335982 
L 337.19749 98.893205 
L 348.930047 95.232071 
L 349.711293 100.635346 
L 358.269518 101.682188 
L 357.501301 94.919052 
L 362.467392 92.850617 
L 365.053996 87.264891 
L 362.164933 84.855471 
L 370.247708 82.418558 
L 379.603796 74.978998 
L 386.643349 77.464662 
L 397.134435 70.404055 
L 399.17377 67.542458 
L 398.352888 64.717999 
L 403.971031 61.055174 
L 402.688826 52.865937 
L 405.320072 49.72433 
L 410.279511 48.854091 
L 413.300809 55.699819 
" style="fill:#808080;stroke:#999999;stroke-width:0.2;"/>
    <path clip-path="url(#paa073d8a8e)" d="M 389.913595 200.899102 
L 387.196699 202.177979 
L 383.84965 199.446117 
L 389.913595 200.899102 
" style="fill:#808080;stroke:#999999;stroke-width:0.2;"/>
    <path clip-path="url(#paa073d8a8e)" d="M 431.189159 191.050399 
L 439.088885 201.088618 
L 441.87463 206.395347 
L 448.365796 212.876833 
L 448.847065 213.488385 
L 443.13731 218.57444 
L 432.308266 222.151597 
L 429.285574 221.896254 
L 430.858329 227.73566 
L 424.66519 239.193192 
L 409.755534 238.117248 
L 407.468348 234.678143 
L 400.65948 242.714335 
L 396.288318 243.759791 
L 394.450547 246.394621 
L 407.354401 243.378038 
L 411.588894 247.674356 
L 412.253129 252.131175 
L 397.023825 256.399195 
L 397.505948 263.914447 
L 400.280492 265.58231 
L 385.650003 270.624647 
L 371.307572 271.309413 
L 371.951028 254.445253 
L 350.753144 252.647653 
L 348.55634 258.673058 
L 345.62348 259.21922 
L 345.092303 265.313387 
L 342.746898 266.134819 
L 342.821187 270.23347 
L 340.449998 272.838893 
L 326.692529 269.594157 
L 318.562346 271.575815 
L 317.802176 269.979513 
L 321.395955 266.948241 
L 314.812765 258.60765 
L 315.413249 256.082851 
L 312.10611 255.210949 
L 313.185403 249.955148 
L 322.601654 247.707061 
L 320.903865 244.512212 
L 322.700904 238.730759 
L 320.832068 238.09175 
L 321.348548 233.594162 
L 327.062077 216.712263 
L 330.21506 218.102861 
L 340.988673 209.849324 
L 344.005261 208.296535 
L 343.61409 210.730095 
L 353.14678 203.419716 
L 356.693723 203.932314 
L 357.228892 199.943527 
L 357.379033 201.723029 
L 358.648975 203.507072 
L 359.932081 205.309608 
L 357.979242 198.654036 
L 368.028435 193.638334 
L 373.281212 192.213342 
L 377.874967 198.638792 
L 389.464203 203.446323 
L 396.039376 198.798034 
L 399.016931 196.693066 
L 403.993672 196.85387 
L 404.152824 199.341452 
L 404.148544 196.85753 
L 412.846643 195.826176 
L 413.736149 199.139127 
L 414.174928 195.135669 
L 431.189159 191.050399 
" style="fill:#808080;stroke:#999999;stroke-width:0.2;"/>
    <path clip-path="url(#paa073d8a8e)" d="M 233.150896 444.957908 
L 230.447852 445.290854 
L 227.477574 450.223964 
L 226.657241 456.234957 
L 222.437171 457.430382 
L 219.077916 453.986038 
L 213.405715 454.792227 
L 211.769483 450.249462 
L 204.563318 448.849441 
L 201.687284 441.114323 
L 204.051821 438.160654 
L 210.74121 434.031821 
L 213.03171 425.248474 
L 216.89997 425.205792 
L 218.066581 429.905454 
L 229.107977 429.924024 
L 226.409116 434.470945 
L 234.053838 437.405213 
L 233.150896 444.957908 
" style="fill:#808080;stroke:#999999;stroke-width:0.2;"/>
    <path clip-path="url(#paa073d8a8e)" d="M 289.309985 429.834475 
L 286.809327 431.900166 
L 280.829089 431.714417 
L 278.982997 435.075891 
L 277.025723 433.545552 
L 275.982478 444.959017 
L 272.697809 448.388117 
L 265.652176 443.733354 
L 266.189182 441.340814 
L 268.415108 442.140932 
L 271.502648 439.682678 
L 259.346758 428.755206 
L 262.076683 424.270394 
L 259.25528 419.087485 
L 263.111882 420.095525 
L 267.338604 418.079195 
L 264.393264 416.887096 
L 263.213898 411.780709 
L 266.019232 408.651297 
L 271.064343 408.463331 
L 278.405235 412.100075 
L 276.552194 414.995513 
L 279.426559 415.683606 
L 278.670275 418.33149 
L 282.347784 419.157356 
L 282.905591 423.975141 
L 289.309985 429.834475 
" style="fill:#808080;stroke:#999999;stroke-width:0.2;"/>
    <path clip-path="url(#paa073d8a8e)" d="M 85.429642 387.317818 
L 87.194497 387.430121 
L 89.14041 393.395356 
L 95.777682 395.117542 
L 97.407262 400.223374 
L 94.582796 400.434067 
L 96.063501 408.361587 
L 99.82835 411.692269 
L 99.546967 415.751814 
L 102.593774 415.927308 
L 101.972215 419.48257 
L 104.322603 422.911393 
L 102.667514 423.109337 
L 103.951387 425.253186 
L 96.416156 428.57888 
L 94.795719 423.922177 
L 91.948807 422.394914 
L 88.789721 429.402834 
L 86.125764 429.291113 
L 85.242503 431.602141 
L 79.516768 420.98572 
L 81.0388 420.73761 
L 78.995579 410.274483 
L 81.411959 408.845915 
L 74.726456 392.362122 
L 82.199856 386.407946 
L 85.429642 387.317818 
" style="fill:#808080;stroke:#999999;stroke-width:0.2;"/>
    <path clip-path="url(#paa073d8a8e)" d="M 260.883465 447.524529 
L 260.857978 451.281615 
L 255.686164 453.414101 
L 246.093014 453.66221 
L 240.36065 451.297136 
L 242.315158 448.510093 
L 233.150896 444.957908 
L 234.053838 437.405213 
L 226.409116 434.470945 
L 229.107977 429.924024 
L 218.066581 429.905454 
L 216.89997 425.205792 
L 216.098495 420.084439 
L 229.036179 421.692105 
L 233.469149 420.025655 
L 236.171073 422.843185 
L 243.275497 421.219721 
L 247.918328 413.306891 
L 251.686218 423.75447 
L 250.844261 428.108159 
L 253.00031 430.065428 
L 252.976469 442.052769 
L 259.634816 444.238469 
L 260.883465 447.524529 
" style="fill:#808080;stroke:#999999;stroke-width:0.2;"/>
    <path clip-path="url(#paa073d8a8e)" d="M 204.051821 438.160654 
L 201.687284 441.114323 
L 204.563318 448.849441 
L 211.769483 450.249462 
L 213.405715 454.792227 
L 219.077916 453.986038 
L 222.437171 457.430382 
L 226.657241 456.234957 
L 227.477574 450.223964 
L 230.447852 445.290854 
L 233.150896 444.957908 
L 242.315158 448.510093 
L 240.36065 451.297136 
L 246.093014 453.66221 
L 244.988532 455.796941 
L 241.339276 455.352246 
L 240.201238 459.755546 
L 238.322138 459.187516 
L 232.188614 464.919331 
L 233.390975 466.042668 
L 227.909501 475.79772 
L 223.073976 475.487778 
L 223.315998 478.496323 
L 219.518736 480.412572 
L 220.830884 483.415575 
L 218.504611 486.584066 
L 213.744495 489.033173 
L 211.669113 486.407213 
L 202.734964 487.78423 
L 200.943205 491.726206 
L 204.320747 497.531771 
L 203.331561 501.046845 
L 194.471152 507.234995 
L 183.701151 507.791384 
L 183.374028 500.715257 
L 174.457068 497.568938 
L 181.425074 481.303044 
L 191.790852 482.274749 
L 191.178162 480.15917 
L 195.920815 476.557901 
L 195.351373 473.592869 
L 191.851289 471.480061 
L 196.52187 466.732146 
L 188.752365 459.766937 
L 176.88147 456.729263 
L 174.957181 457.935802 
L 174.25219 456.058353 
L 170.345391 458.237984 
L 166.475211 455.467293 
L 168.207355 447.280023 
L 165.877219 441.961281 
L 172.310437 442.833737 
L 173.45819 438.99902 
L 179.054983 439.104644 
L 182.679003 444.947348 
L 184.233723 431.992764 
L 192.258278 431.147746 
L 192.850167 434.339546 
L 199.178329 434.617061 
L 204.051821 438.160654 
" style="fill:#808080;stroke:#999999;stroke-width:0.2;"/>
    <path clip-path="url(#paa073d8a8e)" d="M 256.997764 472.805527 
L 254.315247 475.955477 
L 253.953174 481.248971 
L 246.412685 480.640172 
L 243.516125 487.541359 
L 243.996306 490.646382 
L 249.178909 492.001781 
L 252.454435 496.439475 
L 256.272521 492.244097 
L 259.240582 494.242385 
L 259.999381 495.623587 
L 253.407299 502.391712 
L 240.65728 508.830466 
L 242.260253 510.035618 
L 238.927353 514.298927 
L 231.191953 515.721121 
L 226.984638 512.078279 
L 222.995527 518.291373 
L 217.100687 514.092641 
L 213.933852 516.788195 
L 212.350834 514.151426 
L 205.914554 517.863584 
L 203.108946 517.350986 
L 195.973503 511.285366 
L 194.471152 507.234995 
L 203.331561 501.046845 
L 204.320747 497.531771 
L 200.943205 491.726206 
L 202.734964 487.78423 
L 211.669113 486.407213 
L 213.744495 489.033173 
L 218.504611 486.584066 
L 220.830884 483.415575 
L 219.518736 480.412572 
L 223.315998 478.496323 
L 223.073976 475.487778 
L 227.909501 475.79772 
L 233.390975 466.042668 
L 232.188614 464.919331 
L 238.322138 459.187516 
L 240.201238 459.755546 
L 241.339276 455.352246 
L 244.988532 455.796941 
L 246.093014 453.66221 
L 255.686164 453.414101 
L 254.593865 464.910739 
L 256.997764 472.805527 
" style="fill:#808080;stroke:#999999;stroke-width:0.2;"/>
    <path clip-path="url(#paa073d8a8e)" d="M 432.308266 222.151597 
L 440.459799 228.00292 
L 439.992373 230.794924 
L 443.049717 230.22659 
L 445.412312 235.794579 
L 450.409444 234.557276 
L 451.526979 236.286945 
L 446.176642 246.702928 
L 447.891048 246.937734 
L 449.240913 253.056845 
L 448.239818 260.944454 
L 452.307401 261.381916 
L 453.675827 266.250143 
L 458.874796 267.033633 
L 459.845947 272.864974 
L 463.126753 276.10001 
L 454.131321 274.862707 
L 447.974229 278.741214 
L 449.686144 284.932413 
L 445.458874 288.240091 
L 450.181846 296.198126 
L 440.979616 304.987542 
L 441.205271 309.333471 
L 437.524996 311.957214 
L 434.14606 308.134997 
L 431.123094 312.67305 
L 433.96059 317.857594 
L 429.9515 319.412323 
L 430.275857 325.199319 
L 432.99497 326.409738 
L 433.276102 329.910372 
L 435.311277 329.857131 
L 433.362323 330.49007 
L 437.187039 334.201119 
L 438.086667 338.987004 
L 433.401959 346.429918 
L 435.96582 355.952382 
L 430.413098 354.361318 
L 423.989846 341.251471 
L 418.51475 340.130878 
L 397.60241 342.653986 
L 397.294968 335.894204 
L 393.869721 333.870945 
L 378.975883 336.889745 
L 373.835956 332.991282 
L 369.07584 334.613082 
L 369.116596 337.621628 
L 365.787011 338.828998 
L 361.712776 333.138757 
L 353.206942 334.645537 
L 353.08968 337.772733 
L 345.305478 336.972087 
L 347.534718 328.964996 
L 344.916524 325.581072 
L 347.536112 320.728643 
L 349.88346 322.487967 
L 350.53302 319.166154 
L 349.905359 313.042608 
L 346.823898 311.279376 
L 348.147408 303.935739 
L 345.167986 300.71869 
L 342.096766 301.042795 
L 344.95424 296.611198 
L 342.107578 294.162395 
L 344.50206 290.709431 
L 342.289186 285.087121 
L 336.799667 281.564314 
L 336.283164 277.325118 
L 340.449998 272.838893 
L 342.821187 270.23347 
L 342.746898 266.134819 
L 345.092303 265.313387 
L 345.62348 259.21922 
L 348.55634 258.673058 
L 350.753144 252.647653 
L 371.951028 254.445253 
L 371.307572 271.309413 
L 385.650003 270.624647 
L 400.280492 265.58231 
L 397.505948 263.914447 
L 397.023825 256.399195 
L 412.253129 252.131175 
L 411.588894 247.674356 
L 407.354401 243.378038 
L 394.450547 246.394621 
L 396.288318 243.759791 
L 400.65948 242.714335 
L 407.468348 234.678143 
L 409.755534 238.117248 
L 424.66519 239.193192 
L 430.858329 227.73566 
L 429.285574 221.896254 
L 432.308266 222.151597 
" style="fill:#808080;stroke:#999999;stroke-width:0.2;"/>
    <path clip-path="url(#paa073d8a8e)" d="M 340.449998 272.838893 
L 336.283164 277.325118 
L 336.799667 281.564314 
L 342.289186 285.087121 
L 344.50206 290.709431 
L 342.107578 294.162395 
L 344.95424 296.611198 
L 342.096766 301.042795 
L 345.167986 300.71869 
L 348.147408 303.935739 
L 346.823898 311.279376 
L 349.905359 313.042608 
L 350.53302 319.166154 
L 349.88346 322.487967 
L 347.536112 320.728643 
L 344.916524 325.581072 
L 347.534718 328.964996 
L 345.305478 336.972087 
L 344.962537 352.559866 
L 343.636536 350.06281 
L 337.305609 351.160372 
L 333.838509 345.797007 
L 330.536102 347.921178 
L 323.740812 344.491219 
L 313.665012 347.58959 
L 313.918669 343.973355 
L 310.123052 341.09704 
L 302.815716 340.896879 
L 298.89646 333.326169 
L 285.002574 341.350998 
L 281.248559 344.778989 
L 265.425674 347.10637 
L 266.739218 341.583586 
L 264.657184 337.86921 
L 266.56705 333.669675 
L 271.686748 332.394651 
L 270.4026 330.90813 
L 273.158583 328.524736 
L 270.605535 325.630434 
L 271.186612 320.072423 
L 266.89447 318.175325 
L 278.055368 308.808955 
L 277.612903 307.159412 
L 274.696684 307.742712 
L 273.588842 304.092913 
L 278.034293 304.328855 
L 276.603213 300.294809 
L 279.437097 298.246329 
L 278.632285 293.795608 
L 282.113236 291.546134 
L 281.989323 288.412537 
L 288.473011 282.309778 
L 297.572379 280.921121 
L 297.676635 282.704003 
L 300.650525 282.323913 
L 304.044981 278.997111 
L 305.677601 268.255387 
L 311.640924 264.236058 
L 314.812765 258.60765 
L 321.395955 266.948241 
L 317.802176 269.979513 
L 318.562346 271.575815 
L 326.692529 269.594157 
L 340.449998 272.838893 
" style="fill:#808080;stroke:#999999;stroke-width:0.2;"/>
    <path clip-path="url(#paa073d8a8e)" d="M 263.213898 411.780709 
L 264.393264 416.887096 
L 267.338604 418.079195 
L 263.111882 420.095525 
L 259.25528 419.087485 
L 262.076683 424.270394 
L 259.346758 428.755206 
L 271.502648 439.682678 
L 268.415108 442.140932 
L 266.189182 441.340814 
L 265.652176 443.733354 
L 264.456192 446.476302 
L 260.883465 447.524529 
L 259.634816 444.238469 
L 252.976469 442.052769 
L 253.00031 430.065428 
L 250.844261 428.108159 
L 251.686218 423.75447 
L 247.918328 413.306891 
L 243.273554 404.872039 
L 242.489543 398.149091 
L 248.532961 401.509733 
L 251.989249 399.519178 
L 257.850533 402.060884 
L 262.436813 407.270927 
L 263.213898 411.780709 
" style="fill:#808080;stroke:#999999;stroke-width:0.2;"/>
    <path clip-path="url(#paa073d8a8e)" d="M 303.873637 418.263004 
L 302.133721 419.895087 
L 298.209184 418.917838 
L 297.616472 428.883029 
L 291.660921 427.5462 
L 289.309985 429.834475 
L 282.905591 423.975141 
L 282.347784 419.157356 
L 278.670275 418.33149 
L 279.426559 415.683606 
L 276.552194 414.995513 
L 278.405235 412.100075 
L 271.064343 408.463331 
L 271.08791 399.26026 
L 264.512743 399.141056 
L 261.893155 395.148583 
L 262.835207 389.144242 
L 274.199589 382.301562 
L 278.846603 383.364479 
L 278.713797 385.615615 
L 282.356104 387.299526 
L 280.595387 391.374314 
L 288.342148 390.054696 
L 287.484396 393.218476 
L 289.914903 397.778146 
L 299.497515 406.354957 
L 295.329013 410.649584 
L 298.767814 412.341837 
L 298.056172 415.204266 
L 303.873637 418.263004 
" style="fill:#808080;stroke:#999999;stroke-width:0.2;"/>
    <path clip-path="url(#paa073d8a8e)" d="M 365.787011 338.828998 
L 364.193182 345.66364 
L 360.1536 344.937854 
L 357.051636 348.890112 
L 354.106022 347.971343 
L 348.063129 356.770765 
L 356.588096 358.25202 
L 357.327465 370.703457 
L 354.218301 373.560343 
L 357.185813 377.091214 
L 354.899176 382.772033 
L 361.477955 392.405913 
L 358.073509 392.542578 
L 357.603591 394.706687 
L 351.429036 396.032125 
L 349.47094 403.99598 
L 344.360385 405.180596 
L 343.061266 409.908555 
L 341.514867 409.346041 
L 346.501759 420.238288 
L 343.176059 420.35364 
L 340.165551 426.347144 
L 338.814886 425.443924 
L 335.788857 423.193065 
L 339.592246 417.65864 
L 338.070785 412.956456 
L 330.274125 409.886632 
L 327.466003 411.47049 
L 321.683465 402.436263 
L 309.662301 417.913678 
L 303.873637 418.263004 
L 298.056172 415.204266 
L 298.767814 412.341837 
L 295.329013 410.649584 
L 299.497515 406.354957 
L 289.914903 397.778146 
L 287.484396 393.218476 
L 288.342148 390.054696 
L 280.595387 391.374314 
L 282.356104 387.299526 
L 278.713797 385.615615 
L 278.846603 383.364479 
L 274.199589 382.301562 
L 271.627134 378.771522 
L 277.31017 376.501263 
L 282.312857 377.327406 
L 280.387195 370.399335 
L 283.881176 366.713783 
L 276.022137 360.112561 
L 283.675453 352.682119 
L 286.60861 343.487918 
L 285.002574 341.350998 
L 298.89646 333.326169 
L 302.815716 340.896879 
L 310.123052 341.09704 
L 313.918669 343.973355 
L 313.665012 347.58959 
L 323.740812 344.491219 
L 330.536102 347.921178 
L 333.838509 345.797007 
L 337.305609 351.160372 
L 343.636536 350.06281 
L 344.962537 352.559866 
L 345.305478 336.972087 
L 353.08968 337.772733 
L 353.206942 334.645537 
L 361.712776 333.138757 
L 365.787011 338.828998 
" style="fill:#808080;stroke:#999999;stroke-width:0.2;"/>
    <path clip-path="url(#paa073d8a8e)" d="M 338.814886 425.443924 
L 336.302022 429.98364 
L 338.101278 431.216231 
L 331.062845 440.175044 
L 332.080032 442.463624 
L 321.14895 450.872146 
L 316.746198 451.577977 
L 319.119033 454.8657 
L 313.361708 461.829275 
L 310.094228 462.815115 
L 309.129455 469.017123 
L 301.795786 468.694155 
L 299.139328 470.634517 
L 292.523405 471.297111 
L 291.976958 467.999133 
L 284.05611 469.686924 
L 281.500844 473.959102 
L 275.446591 473.816339 
L 269.06661 479.1664 
L 263.794998 478.525147 
L 256.997764 472.805527 
L 254.593865 464.910739 
L 255.686164 453.414101 
L 260.857978 451.281615 
L 260.883465 447.524529 
L 264.456192 446.476302 
L 265.652176 443.733354 
L 272.697809 448.388117 
L 275.982478 444.959017 
L 277.025723 433.545552 
L 278.982997 435.075891 
L 280.829089 431.714417 
L 286.809327 431.900166 
L 289.309985 429.834475 
L 291.660921 427.5462 
L 297.616472 428.883029 
L 298.209184 418.917838 
L 302.133721 419.895087 
L 303.873637 418.263004 
L 309.662301 417.913678 
L 321.683465 402.436263 
L 327.466003 411.47049 
L 330.274125 409.886632 
L 338.070785 412.956456 
L 339.592246 417.65864 
L 335.788857 423.193065 
L 338.814886 425.443924 
" style="fill:#808080;stroke:#999999;stroke-width:0.2;"/>
    <path clip-path="url(#paa073d8a8e)" d="M 166.475211 455.467293 
L 170.345391 458.237984 
L 174.25219 456.058353 
L 174.957181 457.935802 
L 176.88147 456.729263 
L 188.752365 459.766937 
L 196.52187 466.732146 
L 191.851289 471.480061 
L 195.351373 473.592869 
L 195.920815 476.557901 
L 191.178162 480.15917 
L 191.790852 482.274749 
L 181.425074 481.303044 
L 174.457068 497.568938 
L 165.754677 495.421762 
L 162.64661 491.836569 
L 159.4659 493.389357 
L 158.26795 490.931103 
L 153.215913 490.511657 
L 151.167435 486.245022 
L 154.694126 481.887453 
L 153.126652 478.812917 
L 148.542589 477.958199 
L 146.423959 482.159979 
L 139.656944 476.60474 
L 137.404138 478.165843 
L 128.169746 474.441767 
L 125.075532 469.221442 
L 130.876653 461.898591 
L 131.019996 454.954417 
L 126.438128 455.075839 
L 122.867641 447.967839 
L 119.129124 448.279999 
L 116.696675 443.865585 
L 111.333012 440.503307 
L 124.455641 433.314322 
L 130.160279 436.183708 
L 132.694766 433.152713 
L 135.808091 433.607912 
L 137.042065 431.693076 
L 132.953406 426.400109 
L 145.152567 421.885891 
L 141.293176 416.701347 
L 140.613946 408.852567 
L 142.95382 408.855616 
L 145.839271 404.512458 
L 150.590244 404.849008 
L 153.817516 405.946597 
L 157.018181 410.927654 
L 159.078866 407.41344 
L 157.244409 402.869013 
L 160.153701 401.161516 
L 163.888058 403.471437 
L 163.280626 415.026028 
L 151.319922 422.083281 
L 150.780972 431.762365 
L 145.806561 438.655265 
L 151.122244 450.660039 
L 160.634979 450.823062 
L 166.475211 455.467293 
" style="fill:#808080;stroke:#999999;stroke-width:0.2;"/>
    <path clip-path="url(#paa073d8a8e)" d="M 174.457068 497.568938 
L 183.374028 500.715257 
L 183.701151 507.791384 
L 194.471152 507.234995 
L 195.973503 511.285366 
L 185.655659 520.51313 
L 178.287338 523.714631 
L 171.130523 522.467905 
L 168.882425 524.570735 
L 169.483754 528.209697 
L 174.970507 533.411453 
L 176.975738 532.891648 
L 175.34282 541.100259 
L 169.915132 542.040368 
L 167.44803 540.078111 
L 158.87648 542.098876 
L 157.280182 538.630946 
L 151.339328 535.686147 
L 146.495208 537.792857 
L 143.010096 543.035909 
L 139.302917 538.660602 
L 140.455105 533.644595 
L 134.836117 527.523267 
L 136.878217 525.07779 
L 134.450203 523.018501 
L 135.786193 520.979721 
L 131.52955 519.408612 
L 129.311945 521.048455 
L 127.591435 519.093681 
L 126.710094 512.461418 
L 134.897948 504.285207 
L 130.740258 502.551935 
L 135.763746 491.778061 
L 135.60543 489.286271 
L 129.557578 484.824187 
L 126.899725 477.19885 
L 128.169746 474.441767 
L 137.404138 478.165843 
L 139.656944 476.60474 
L 146.423959 482.159979 
L 148.542589 477.958199 
L 153.126652 478.812917 
L 154.694126 481.887453 
L 151.167435 486.245022 
L 153.215913 490.511657 
L 158.26795 490.931103 
L 159.4659 493.389357 
L 162.64661 491.836569 
L 165.754677 495.421762 
L 174.457068 497.568938 
" style="fill:#808080;stroke:#999999;stroke-width:0.2;"/>
    <path clip-path="url(#paa073d8a8e)" d="M 85.429642 387.317818 
L 82.199856 386.407946 
L 74.726456 392.362122 
L 81.411959 408.845915 
L 78.995579 410.274483 
L 81.0388 420.73761 
L 79.516768 420.98572 
L 68.768962 426.223506 
L 67.288257 429.990014 
L 69.847409 438.4964 
L 59.459162 435.759827 
L 54.315074 441.386572 
L 52.355857 439.993175 
L 48.384461 441.733653 
L 48.393628 448.261706 
L 36.907527 451.432415 
L 35.824645 453.652233 
L 31.280219 443.79685 
L 37.638324 432.200685 
L 39.858398 430.240368 
L 43.517072 431.095613 
L 42.183574 426.632697 
L 47.139698 429.288895 
L 48.385856 422.249075 
L 50.436551 421.243834 
L 48.222283 415.35648 
L 47.818905 412.462705 
L 50.169316 410.381243 
L 47.629297 406.792723 
L 48.226443 398.658668 
L 54.487516 397.574382 
L 60.01002 389.831503 
L 64.588551 390.786302 
L 72.058065 385.987945 
L 73.138181 387.264604 
L 79.863046 379.275251 
L 85.429642 387.317818 
" style="fill:#808080;stroke:#999999;stroke-width:0.2;"/>
    <path clip-path="url(#paa073d8a8e)" d="M 102.667514 423.109337 
L 111.058829 430.055728 
L 107.323375 438.969919 
L 111.333012 440.503307 
L 116.696675 443.865585 
L 119.129124 448.279999 
L 122.867641 447.967839 
L 126.438128 455.075839 
L 131.019996 454.954417 
L 130.876653 461.898591 
L 125.075532 469.221442 
L 128.169746 474.441767 
L 126.899725 477.19885 
L 129.557578 484.824187 
L 124.10022 488.590141 
L 115.783743 489.297912 
L 114.056285 496.374039 
L 110.953773 488.652806 
L 104.826328 486.9151 
L 106.736194 484.88796 
L 101.280231 480.90771 
L 100.56468 484.977509 
L 97.640964 486.338451 
L 91.577865 482.078191 
L 88.990163 494.359122 
L 85.778389 493.96074 
L 83.93008 497.355196 
L 78.487397 497.361293 
L 73.125152 502.81975 
L 67.612614 494.280383 
L 60.637956 494.844559 
L 47.088131 479.763836 
L 49.643122 478.009777 
L 48.503118 472.958849 
L 41.300312 468.180974 
L 45.536451 465.239805 
L 48.393628 448.261706 
L 48.384461 441.733653 
L 52.355857 439.993175 
L 54.315074 441.386572 
L 59.459162 435.759827 
L 69.847409 438.4964 
L 67.288257 429.990014 
L 68.768962 426.223506 
L 79.516768 420.98572 
L 85.242503 431.602141 
L 86.125764 429.291113 
L 88.789721 429.402834 
L 91.948807 422.394914 
L 94.795719 423.922177 
L 96.416156 428.57888 
L 103.951387 425.253186 
L 102.667514 423.109337 
" style="fill:#808080;stroke:#999999;stroke-width:0.2;"/>
   </g>
   <g id="PatchCollection_2">
    <path clip-path="url(#paa073d8a8e)" d="M 506.933066 231.927014 
L 506.661464 232.270921 
L 506.676711 232.206633 
L 506.933064 231.865275 
L 512.145512 224.924417 
L 510.187702 227.805935 
L 506.933066 231.927014 
" style="fill:#ff0000;stroke:#000000;stroke-width:0.2;"/>
    <path clip-path="url(#paa073d8a8e)" d="M 413.300809 55.699819 
L 418.518088 57.813182 
L 422.577076 56.660993 
L 426.23047 60.905178 
L 433.228123 59.409511 
L 439.750899 61.753245 
L 442.647607 53.874365 
L 442.676102 53.886559 
L 451.486194 57.313778 
L 463.816899 62.110552 
L 467.042882 65.277286 
L 467.677793 65.986682 
L 462.673273 69.891693 
L 451.486169 71.806837 
L 451.417814 71.818539 
L 443.5054 85.073112 
L 443.668312 95.515173 
L 443.741778 100.224006 
L 451.486205 122.577159 
L 454.959422 132.60209 
L 467.10543 150.961958 
L 477.574105 166.786374 
L 506.790239 204.769007 
L 506.933026 205.181969 
L 507.357217 206.408795 
L 512.635606 221.674715 
L 512.884589 223.83664 
L 512.152757 224.913755 
L 512.489566 222.654376 
L 512.019062 221.17786 
L 506.933146 217.079267 
L 500.564748 211.947158 
L 491.513602 209.461753 
L 475.860675 216.154467 
L 466.729131 214.485516 
L 459.136774 206.408798 
L 451.486199 198.270148 
L 445.890036 192.316972 
L 443.491072 192.491685 
L 442.735331 184.777917 
L 440.416682 186.097137 
L 440.127765 183.724472 
L 440.178449 183.613449 
L 439.553933 182.505783 
L 439.986094 183.918484 
L 439.092093 184.943195 
L 438.874045 184.856309 
L 440.527984 178.242402 
L 438.123811 175.650255 
L 438.331454 170.143546 
L 433.590471 170.033487 
L 426.442547 160.573689 
L 418.068674 163.343825 
L 418.686095 166.885755 
L 412.709743 167.72329 
L 413.612708 174.425978 
L 408.173911 177.236856 
L 407.495801 180.230158 
L 411.220169 180.453351 
L 407.624447 186.236439 
L 408.289841 189.894094 
L 408.271933 189.900988 
L 396.039435 192.031433 
L 385.776706 193.818818 
L 378.20433 188.369757 
L 369.585942 186.257808 
L 368.330345 187.855495 
L 371.743385 187.290764 
L 362.08621 190.149064 
L 357.727528 195.623041 
L 349.181784 194.968761 
L 354.717042 196.303374 
L 357.298915 197.675956 
L 355.213293 198.290603 
L 357.090998 198.309172 
L 357.228892 199.943527 
L 356.693723 203.932314 
L 353.14678 203.419716 
L 343.61409 210.730095 
L 344.005261 208.296535 
L 340.988673 209.849324 
L 330.21506 218.102861 
L 327.062077 216.712263 
L 312.024346 210.331158 
L 293.383374 211.54518 
L 283.270704 207.511965 
L 287.336344 202.815047 
L 288.377624 196.822651 
L 290.795947 195.936587 
L 295.009639 199.854755 
L 305.722792 198.761627 
L 305.657921 196.264572 
L 308.941218 197.526265 
L 309.780957 193.18283 
L 319.639696 191.947467 
L 318.252687 187.553868 
L 309.132495 186.65813 
L 306.71751 182.417271 
L 314.935308 177.445914 
L 313.626748 166.304395 
L 316.187568 161.849239 
L 312.410809 159.615286 
L 310.846924 147.887168 
L 315.262431 141.910847 
L 315.703524 138.864304 
L 310.463776 137.926412 
L 315.421295 129.367367 
L 315.309015 117.335126 
L 312.926466 114.892421 
L 314.421023 107.754737 
L 320.088241 105.194213 
L 322.81124 99.706073 
L 336.896128 97.335982 
L 337.19749 98.893205 
L 348.930047 95.232071 
L 349.711293 100.635346 
L 358.269518 101.682188 
L 357.501301 94.919052 
L 362.467392 92.850617 
L 365.053996 87.264891 
L 362.164933 84.855471 
L 370.247708 82.418558 
L 379.603796 74.978998 
L 386.643349 77.464662 
L 397.134435 70.404055 
L 399.17377 67.542458 
L 398.352888 64.717999 
L 403.971031 61.055174 
L 402.688826 52.865937 
L 405.320072 49.72433 
L 410.279511 48.854091 
L 413.300809 55.699819 
" style="fill:#ff0000;stroke:#000000;stroke-width:0.2;"/>
   </g>
   <g id="PatchCollection_3">
    <defs>
     <path d="M 102.667514 -151.835663 
L 111.058829 -144.889272 
L 107.323375 -135.975081 
L 111.333012 -134.441693 
L 116.696675 -131.079415 
L 119.129124 -126.665001 
L 122.867641 -126.977161 
L 126.438128 -119.869161 
L 131.019996 -119.990583 
L 130.876653 -113.046409 
L 125.075532 -105.723558 
L 128.169746 -100.503233 
L 126.899725 -97.74615 
L 129.557578 -90.120813 
L 124.10022 -86.354859 
L 115.783743 -85.647088 
L 114.056285 -78.570961 
L 110.953773 -86.292194 
L 104.826328 -88.0299 
L 106.736194 -90.05704 
L 101.280231 -94.03729 
L 100.56468 -89.967491 
L 97.640964 -88.606549 
L 91.577865 -92.866809 
L 88.990163 -80.585878 
L 85.778389 -80.98426 
L 83.93008 -77.589804 
L 78.487397 -77.583707 
L 73.125152 -72.12525 
L 67.612614 -80.664617 
L 60.637956 -80.100441 
L 47.088131 -95.181164 
L 49.643122 -96.935223 
L 48.503118 -101.986151 
L 41.300312 -106.764026 
L 45.536451 -109.705195 
L 48.393628 -126.683294 
L 48.384461 -133.211347 
L 52.355857 -134.951825 
L 54.315074 -133.558428 
L 59.459162 -139.185173 
L 69.847409 -136.4486 
L 67.288257 -144.954986 
L 68.768962 -148.721494 
L 79.516768 -153.95928 
L 85.242503 -143.342859 
L 86.125764 -145.653887 
L 88.789721 -145.542166 
L 91.948807 -152.550086 
L 94.795719 -151.022823 
L 96.416156 -146.36612 
L 103.951387 -149.691814 
L 102.667514 -151.835663 
" id="mc071e71d7d" style="stroke:#000000;stroke-width:0.2;"/>
    </defs>
    <g clip-path="url(#paa073d8a8e)">
     <use style="fill:#008000;stroke:#000000;stroke-width:0.2;" x="0" xlink:href="#mc071e71d7d" y="574.945"/>
    </g>
   </g>
   <g id="matplotlib.axis_1"/>
   <g id="matplotlib.axis_2"/>
   <g id="LineCollection_1">
    <path clip-path="url(#paa073d8a8e)" d="M 88.579685 402.638136 
L 82.932231 415.587522 
L 82.522656 421.384065 
L 85.046484 429.673002 
L 88.056037 435.867001 
L 91.547933 441.29583 
L 99.568006 450.194667 
L 109.627773 457.571929 
L 112.496906 460.886595 
L 119.318689 472.320283 
L 122.467115 475.344157 
L 137.630958 486.02342 
L 141.453833 487.360346 
L 150.069886 487.192731 
L 157.606229 487.487033 
L 169.509358 491.099488 
L 172.775813 489.204552 
L 178.893214 481.574204 
L 183.861953 476.883045 
L 196.315772 460.126971 
L 201.283559 456.332682 
L 206.643858 454.943459 
L 229.493912 457.761817 
L 234.634054 456.639333 
L 250.443669 446.981205 
L 256.556002 446.480734 
L 264.078742 440.2896 
L 278.373906 425.192327 
L 286.526568 422.080511 
L 293.357595 423.612216 
L 295.614275 423.507246 
L 298.104294 421.591406 
L 299.797485 415.707248 
L 308.078974 411.199803 
L 321.240829 395.506 
L 336.164707 383.221186 
L 341.156094 374.465275 
L 343.269168 364.563748 
L 346.744982 327.148207 
L 350.267164 316.894157 
L 350.838547 313.469752 
L 350.390353 311.054912 
L 347.289801 301.242389 
L 346.411306 299.939531 
L 345.181127 299.132211 
L 344.187401 298.094787 
L 344.016962 296.026475 
L 344.785388 292.686806 
L 344.995983 290.96344 
L 344.78825 289.347672 
L 342.233284 283.780086 
L 340.368614 280.811453 
L 339.788736 277.532339 
L 341.056681 270.958324 
L 343.45974 264.289446 
L 349.021388 252.66922 
L 350.69068 245.534611 
L 352.738304 207.887546 
L 356.044767 199.479483 
" style="fill:none;stroke:#add8e6;stroke-width:2;"/>
   </g>
   <g id="text_1">
    <!-- East Riding of Yorkshire -->
    <g transform="translate(304.150658 135.264251)scale(0.15 -0.15)">
     <defs>
      <path d="M 4102 1331 
L 3846 0 
L 102 0 
L 102 160 
Q 448 198 557 294 
Q 666 390 666 646 
L 666 3712 
Q 666 3955 550 4051 
Q 435 4147 102 4166 
L 102 4326 
L 3795 4326 
L 3795 3040 
L 3635 3040 
Q 3526 3680 3216 3894 
Q 2906 4109 2118 4109 
Q 1875 4109 1788 4032 
Q 1702 3955 1702 3763 
L 1702 2323 
Q 2221 2330 2451 2531 
Q 2682 2733 2739 3277 
L 2906 3277 
L 2906 1114 
L 2739 1114 
Q 2694 1677 2464 1891 
Q 2234 2106 1702 2106 
L 1702 557 
Q 1702 352 1814 275 
Q 1926 198 2234 198 
Q 2982 198 3398 544 
Q 3558 672 3667 838 
Q 3776 1005 3923 1331 
L 4102 1331 
z
" id="STIXGeneral-Bold-45" transform="scale(0.015625)"/>
      <path d="M 3027 410 
L 3123 275 
Q 2784 -90 2406 -90 
Q 2170 -90 2051 9 
Q 1933 109 1882 352 
Q 1395 -90 864 -90 
Q 544 -90 352 80 
Q 160 250 160 589 
Q 160 1018 589 1306 
Q 909 1517 1875 1792 
L 1875 2227 
Q 1875 2541 1756 2681 
Q 1638 2822 1357 2822 
Q 1178 2822 1059 2758 
Q 941 2694 941 2586 
Q 941 2515 1011 2438 
Q 1133 2291 1133 2170 
Q 1133 2003 1011 1894 
Q 890 1786 698 1786 
Q 499 1786 390 1901 
Q 282 2016 282 2221 
Q 282 2598 618 2812 
Q 954 3027 1504 3027 
Q 2093 3027 2425 2803 
Q 2758 2579 2758 2170 
L 2758 499 
Q 2758 320 2893 320 
Q 2938 320 2963 346 
L 3027 410 
z
M 1875 621 
L 1875 1568 
Q 1094 1350 1094 794 
Q 1094 589 1187 477 
Q 1280 365 1427 365 
Q 1696 365 1875 621 
z
" id="STIXGeneral-Bold-61" transform="scale(0.015625)"/>
      <path d="M 2176 2086 
L 2016 2086 
Q 1894 2445 1715 2611 
Q 1498 2816 1235 2816 
Q 1056 2816 934 2710 
Q 813 2605 813 2445 
Q 813 2278 957 2147 
Q 1101 2016 1427 1882 
Q 1907 1683 2108 1452 
Q 2310 1222 2310 883 
Q 2310 454 2035 182 
Q 1760 -90 1325 -90 
Q 992 -90 634 58 
Q 538 96 486 96 
Q 416 96 320 -83 
L 160 -83 
L 160 973 
L 339 973 
Q 544 128 1216 128 
Q 1434 128 1565 243 
Q 1696 358 1696 544 
Q 1696 698 1555 829 
Q 1414 960 1082 1101 
Q 602 1306 387 1539 
Q 173 1773 173 2093 
Q 173 2496 457 2761 
Q 742 3027 1178 3027 
Q 1395 3027 1677 2931 
Q 1818 2886 1875 2886 
Q 1984 2886 2035 3014 
L 2176 3014 
L 2176 2086 
z
" id="STIXGeneral-Bold-73" transform="scale(0.015625)"/>
      <path d="M 1965 717 
L 2125 646 
Q 1926 250 1712 86 
Q 1498 -77 1178 -77 
Q 845 -77 653 105 
Q 461 288 461 608 
L 461 2669 
L 122 2669 
L 122 2842 
Q 435 3053 646 3299 
Q 858 3546 1190 4032 
L 1350 4032 
L 1350 2950 
L 1958 2950 
L 1958 2669 
L 1350 2669 
L 1350 762 
Q 1350 378 1600 378 
Q 1786 378 1965 717 
z
" id="STIXGeneral-Bold-74" transform="scale(0.015625)"/>
      <path id="STIXGeneral-Bold-20" transform="scale(0.015625)"/>
      <path d="M 4582 0 
L 3270 0 
L 1946 2003 
L 1766 2003 
L 1766 749 
Q 1766 403 1859 307 
Q 1952 211 2330 160 
L 2330 0 
L 166 0 
L 166 160 
Q 544 205 637 301 
Q 730 397 730 768 
L 730 3526 
Q 730 3904 624 4022 
Q 518 4141 166 4166 
L 166 4326 
L 2138 4326 
Q 4032 4326 4032 3226 
Q 4032 2739 3744 2470 
Q 3475 2227 3027 2106 
L 4301 301 
Q 4397 160 4582 160 
L 4582 0 
z
M 1766 3821 
L 1766 2208 
Q 2426 2214 2682 2406 
Q 2938 2598 2938 3162 
Q 2938 3667 2746 3888 
Q 2554 4109 2106 4109 
Q 1920 4109 1843 4045 
Q 1766 3981 1766 3821 
z
" id="STIXGeneral-Bold-52" transform="scale(0.015625)"/>
      <path d="M 1376 3923 
Q 1376 3712 1232 3571 
Q 1088 3430 877 3430 
Q 666 3430 525 3571 
Q 384 3712 384 3923 
Q 384 4134 528 4278 
Q 672 4422 890 4422 
Q 1088 4422 1232 4275 
Q 1376 4128 1376 3923 
z
M 1638 0 
L 102 0 
L 102 154 
Q 326 205 384 275 
Q 442 346 442 563 
L 442 2387 
Q 442 2598 374 2675 
Q 307 2752 96 2797 
L 96 2950 
L 1331 2950 
L 1331 544 
Q 1331 339 1398 259 
Q 1466 179 1638 154 
L 1638 0 
z
" id="STIXGeneral-Bold-69" transform="scale(0.015625)"/>
      <path d="M 3418 128 
L 3021 77 
Q 2496 6 2170 -83 
L 2170 333 
Q 1946 96 1760 3 
Q 1574 -90 1318 -90 
Q 813 -90 486 332 
Q 160 755 160 1414 
Q 160 2112 509 2569 
Q 858 3027 1389 3027 
Q 1606 3027 1776 2940 
Q 1946 2854 2150 2630 
L 2150 3802 
Q 2150 4026 2067 4086 
Q 1984 4147 1664 4173 
L 1664 4326 
L 3040 4326 
L 3040 646 
Q 3040 442 3120 365 
Q 3200 288 3418 275 
L 3418 128 
z
M 2150 717 
L 2150 2272 
Q 2080 2458 1945 2563 
Q 1811 2669 1651 2669 
Q 1107 2669 1107 1466 
Q 1107 269 1606 269 
Q 1837 269 2029 506 
Q 2150 666 2150 717 
z
" id="STIXGeneral-Bold-64" transform="scale(0.015625)"/>
      <path d="M 3450 0 
L 1952 0 
L 1952 154 
Q 2112 173 2179 259 
Q 2246 346 2246 538 
L 2246 2054 
Q 2246 2598 1920 2598 
Q 1690 2598 1472 2381 
Q 1363 2272 1363 2227 
L 1363 538 
Q 1363 352 1430 265 
Q 1498 179 1670 154 
L 1670 0 
L 134 0 
L 134 154 
Q 346 198 410 275 
Q 474 352 474 557 
L 474 2406 
Q 474 2611 410 2688 
Q 346 2765 134 2797 
L 134 2950 
L 1357 2950 
L 1357 2470 
L 1363 2470 
Q 1677 3027 2272 3027 
Q 2669 3027 2902 2780 
Q 3136 2534 3136 2118 
L 3136 538 
Q 3136 320 3200 243 
Q 3264 166 3450 154 
L 3450 0 
z
" id="STIXGeneral-Bold-6e" transform="scale(0.015625)"/>
      <path d="M 1626 435 
L 1958 435 
Q 2477 435 2784 227 
Q 3091 19 3091 -333 
Q 3091 -787 2652 -1052 
Q 2214 -1318 1421 -1318 
Q 179 -1318 179 -730 
Q 179 -339 794 -250 
Q 493 -141 381 -25 
Q 269 90 269 275 
Q 269 557 454 733 
Q 640 909 1030 1024 
Q 678 1120 457 1382 
Q 237 1645 237 1997 
Q 237 2464 598 2745 
Q 960 3027 1536 3027 
Q 1869 3027 2253 2886 
L 3078 2886 
L 3078 2547 
L 2566 2547 
Q 2822 2317 2822 1920 
Q 2822 1318 2234 1075 
Q 2080 1011 1971 998 
Q 1862 986 1421 986 
Q 1229 986 1104 899 
Q 979 813 979 672 
Q 979 538 1113 486 
Q 1248 435 1626 435 
z
M 1958 1997 
Q 1958 2445 1859 2637 
Q 1760 2829 1529 2829 
Q 1299 2829 1206 2643 
Q 1114 2458 1114 1990 
Q 1114 1542 1210 1353 
Q 1306 1165 1536 1165 
Q 1766 1165 1862 1353 
Q 1958 1542 1958 1997 
z
M 2016 -333 
L 966 -333 
Q 832 -442 787 -512 
Q 742 -582 742 -685 
Q 742 -1114 1600 -1114 
Q 2061 -1114 2323 -995 
Q 2586 -877 2586 -691 
Q 2586 -333 2016 -333 
z
" id="STIXGeneral-Bold-67" transform="scale(0.015625)"/>
      <path d="M 3046 1466 
Q 3046 794 2633 352 
Q 2221 -90 1600 -90 
Q 992 -90 576 348 
Q 160 787 160 1459 
Q 160 2157 573 2592 
Q 986 3027 1626 3027 
Q 2234 3027 2640 2585 
Q 3046 2144 3046 1466 
z
M 2106 1395 
Q 2106 2214 1997 2521 
Q 1888 2829 1606 2829 
Q 1312 2829 1206 2525 
Q 1101 2221 1101 1395 
Q 1101 698 1216 403 
Q 1331 109 1606 109 
Q 1882 109 1994 393 
Q 2106 678 2106 1395 
z
" id="STIXGeneral-Bold-6f" transform="scale(0.015625)"/>
      <path d="M 90 2950 
L 454 2950 
Q 454 3789 710 4096 
Q 979 4422 1574 4422 
Q 1984 4422 2237 4243 
Q 2490 4064 2490 3782 
Q 2490 3603 2381 3488 
Q 2272 3373 2093 3373 
Q 1933 3373 1821 3481 
Q 1709 3590 1709 3738 
Q 1709 3866 1779 3971 
Q 1850 4077 1850 4102 
Q 1850 4224 1664 4224 
Q 1491 4224 1417 4112 
Q 1344 4000 1344 3718 
L 1344 2950 
L 1894 2950 
L 1894 2669 
L 1344 2669 
L 1344 685 
Q 1344 365 1440 262 
Q 1536 160 1869 154 
L 1869 0 
L 90 0 
L 90 154 
Q 307 179 380 259 
Q 454 339 454 557 
L 454 2669 
L 90 2669 
L 90 2950 
z
" id="STIXGeneral-Bold-66" transform="scale(0.015625)"/>
      <path d="M 4474 4326 
L 4474 4166 
Q 4160 4122 4038 3917 
L 2816 1926 
L 2816 787 
Q 2816 416 2921 304 
Q 3027 192 3405 160 
L 3405 0 
L 1184 0 
L 1184 160 
Q 1568 192 1673 320 
Q 1779 448 1779 819 
L 1779 1690 
L 627 3789 
Q 429 4147 96 4166 
L 96 4326 
L 2240 4326 
L 2240 4166 
L 2067 4154 
Q 1862 4141 1792 4105 
Q 1722 4070 1722 3968 
Q 1722 3885 1875 3590 
L 2643 2106 
L 3341 3245 
Q 3603 3680 3603 3898 
Q 3603 4038 3497 4089 
Q 3392 4141 3066 4166 
L 3066 4326 
L 4474 4326 
z
" id="STIXGeneral-Bold-59" transform="scale(0.015625)"/>
      <path d="M 1395 2950 
L 1395 2426 
Q 1619 2752 1817 2889 
Q 2016 3027 2259 3027 
Q 2483 3027 2630 2883 
Q 2778 2739 2778 2522 
Q 2778 2330 2666 2208 
Q 2554 2086 2374 2086 
Q 2138 2086 1990 2330 
Q 1901 2477 1811 2477 
Q 1645 2477 1533 2285 
Q 1421 2093 1421 1811 
L 1421 678 
Q 1421 371 1507 272 
Q 1594 173 1882 154 
L 1882 0 
L 186 0 
L 186 154 
Q 397 192 464 265 
Q 531 339 531 538 
L 531 2387 
Q 531 2611 460 2688 
Q 390 2765 179 2797 
L 179 2950 
L 1395 2950 
z
" id="STIXGeneral-Bold-72" transform="scale(0.015625)"/>
      <path d="M 3475 0 
L 1978 0 
L 1978 154 
Q 2246 166 2246 275 
Q 2246 352 2093 563 
L 1485 1421 
L 1338 1267 
L 1338 538 
Q 1338 314 1392 250 
Q 1446 186 1670 154 
L 1670 0 
L 141 0 
L 141 154 
Q 448 179 448 538 
L 448 3802 
Q 448 4147 141 4173 
L 141 4326 
L 1338 4326 
L 1338 1568 
L 2157 2387 
Q 2291 2522 2291 2630 
Q 2291 2746 2067 2778 
L 1914 2803 
L 1914 2950 
L 3283 2950 
L 3283 2803 
Q 2982 2765 2768 2617 
Q 2554 2470 2074 1965 
L 3315 250 
Q 3386 154 3475 154 
L 3475 0 
z
" id="STIXGeneral-Bold-6b" transform="scale(0.015625)"/>
      <path d="M 3418 0 
L 1920 0 
L 1920 154 
Q 2080 173 2147 259 
Q 2214 346 2214 544 
L 2214 1978 
Q 2214 2323 2144 2460 
Q 2074 2598 1888 2598 
Q 1658 2598 1440 2381 
Q 1331 2272 1331 2227 
L 1331 544 
Q 1331 346 1395 262 
Q 1459 179 1638 154 
L 1638 0 
L 102 0 
L 102 154 
Q 333 198 387 256 
Q 442 314 442 570 
L 442 3782 
Q 442 4006 384 4067 
Q 326 4128 96 4173 
L 96 4326 
L 1331 4326 
L 1331 2534 
Q 1747 3027 2272 3027 
Q 2656 3027 2880 2784 
Q 3104 2541 3104 2157 
L 3104 557 
Q 3104 339 3177 246 
Q 3251 154 3418 154 
L 3418 0 
z
" id="STIXGeneral-Bold-68" transform="scale(0.015625)"/>
      <path d="M 2579 806 
L 2733 717 
Q 2451 269 2166 89 
Q 1882 -90 1466 -90 
Q 890 -90 525 342 
Q 160 774 160 1434 
Q 160 2150 528 2588 
Q 896 3027 1498 3027 
Q 2029 3027 2317 2707 
Q 2656 2336 2694 1568 
L 1082 1568 
Q 1101 1299 1133 1116 
Q 1165 934 1241 748 
Q 1318 563 1468 467 
Q 1619 371 1843 371 
Q 2048 371 2214 470 
Q 2381 570 2579 806 
z
M 1907 1805 
L 1907 1939 
Q 1907 2406 1850 2528 
Q 1773 2688 1699 2758 
Q 1626 2829 1498 2829 
Q 1267 2829 1158 2595 
Q 1050 2362 1050 1805 
L 1907 1805 
z
" id="STIXGeneral-Bold-65" transform="scale(0.015625)"/>
     </defs>
     <use xlink:href="#STIXGeneral-Bold-45"/>
     <use x="66.699997" xlink:href="#STIXGeneral-Bold-61"/>
     <use x="116.699982" xlink:href="#STIXGeneral-Bold-73"/>
     <use x="155.599976" xlink:href="#STIXGeneral-Bold-74"/>
     <use x="188.899963" xlink:href="#STIXGeneral-Bold-20"/>
     <use x="213.899948" xlink:href="#STIXGeneral-Bold-52"/>
     <use x="286.09993" xlink:href="#STIXGeneral-Bold-69"/>
     <use x="313.899918" xlink:href="#STIXGeneral-Bold-64"/>
     <use x="369.499908" xlink:href="#STIXGeneral-Bold-69"/>
     <use x="397.299896" xlink:href="#STIXGeneral-Bold-6e"/>
     <use x="452.899887" xlink:href="#STIXGeneral-Bold-67"/>
     <use x="502.899872" xlink:href="#STIXGeneral-Bold-20"/>
     <use x="527.899857" xlink:href="#STIXGeneral-Bold-6f"/>
     <use x="577.899841" xlink:href="#STIXGeneral-Bold-66"/>
     <use x="611.199829" xlink:href="#STIXGeneral-Bold-20"/>
     <use x="636.199814" xlink:href="#STIXGeneral-Bold-59"/>
     <use x="708.399796" xlink:href="#STIXGeneral-Bold-6f"/>
     <use x="758.39978" xlink:href="#STIXGeneral-Bold-72"/>
     <use x="802.799774" xlink:href="#STIXGeneral-Bold-6b"/>
     <use x="858.399765" xlink:href="#STIXGeneral-Bold-73"/>
     <use x="897.299759" xlink:href="#STIXGeneral-Bold-68"/>
     <use x="952.89975" xlink:href="#STIXGeneral-Bold-69"/>
     <use x="980.699738" xlink:href="#STIXGeneral-Bold-72"/>
     <use x="1025.099731" xlink:href="#STIXGeneral-Bold-65"/>
    </g>
   </g>
   <g id="text_2">
    <!-- Stafford -->
    <g transform="translate(61.024071 463.569198)scale(0.15 -0.15)">
     <defs>
      <path d="M 3098 3034 
L 2918 3034 
Q 2752 3578 2470 3866 
Q 2125 4224 1683 4224 
Q 1357 4224 1168 4048 
Q 979 3872 979 3590 
Q 979 3360 1113 3213 
Q 1248 3066 1638 2861 
Q 1754 2797 2077 2633 
Q 2400 2470 2586 2368 
Q 2899 2195 3091 1897 
Q 3283 1600 3283 1242 
Q 3283 634 2844 256 
Q 2406 -122 1696 -122 
Q 1306 -122 864 32 
Q 666 96 602 96 
Q 525 96 480 48 
Q 435 0 410 -122 
L 224 -122 
L 224 1466 
L 410 1466 
Q 557 851 794 550 
Q 1158 90 1715 90 
Q 2086 90 2304 285 
Q 2522 480 2522 813 
Q 2522 1120 2157 1376 
Q 1997 1491 1376 1792 
Q 806 2067 544 2368 
Q 282 2669 282 3136 
Q 282 3744 656 4083 
Q 1030 4422 1683 4422 
Q 2035 4422 2432 4275 
Q 2624 4211 2701 4211 
Q 2790 4211 2832 4256 
Q 2874 4301 2906 4429 
L 3098 4429 
L 3098 3034 
z
" id="STIXGeneral-Bold-53" transform="scale(0.015625)"/>
     </defs>
     <use xlink:href="#STIXGeneral-Bold-53"/>
     <use x="55.599991" xlink:href="#STIXGeneral-Bold-74"/>
     <use x="88.899979" xlink:href="#STIXGeneral-Bold-61"/>
     <use x="138.899963" xlink:href="#STIXGeneral-Bold-66"/>
     <use x="172.199951" xlink:href="#STIXGeneral-Bold-66"/>
     <use x="205.499939" xlink:href="#STIXGeneral-Bold-6f"/>
     <use x="255.499924" xlink:href="#STIXGeneral-Bold-72"/>
     <use x="299.899918" xlink:href="#STIXGeneral-Bold-64"/>
    </g>
   </g>
   <g id="text_3">
    <!-- Distance between East Riding of Yorkshire and Stafford is 160 km. -->
    <g style="fill:#323034;" transform="translate(7.2 18.145)scale(0.16 -0.16)">
     <defs>
      <path d="M 102 4237 
L 1830 4237 
Q 3078 4237 3750 3654 
Q 4384 3110 4384 2138 
Q 4384 966 3514 410 
Q 2880 0 1901 0 
L 102 0 
L 102 122 
Q 474 147 570 252 
Q 666 358 666 736 
L 666 3520 
Q 666 3891 570 3990 
Q 474 4090 102 4115 
L 102 4237 
z
M 1318 3731 
L 1318 538 
Q 1318 365 1379 301 
Q 1440 237 1626 237 
Q 2125 237 2432 307 
Q 2739 378 3021 570 
Q 3686 1018 3686 2099 
Q 3686 3027 3078 3558 
Q 2803 3802 2476 3901 
Q 2150 4000 1658 4000 
Q 1472 4000 1395 3942 
Q 1318 3885 1318 3731 
z
" id="STIXGeneral-Regular-44" transform="scale(0.015625)"/>
      <path d="M 1152 4045 
Q 1152 3904 1056 3811 
Q 960 3718 819 3718 
Q 685 3718 592 3811 
Q 499 3904 499 4045 
Q 499 4179 595 4275 
Q 691 4371 826 4371 
Q 966 4371 1059 4275 
Q 1152 4179 1152 4045 
z
M 1619 0 
L 102 0 
L 102 96 
Q 435 115 521 211 
Q 608 307 608 666 
L 608 2118 
Q 608 2342 563 2432 
Q 518 2522 397 2522 
Q 243 2522 128 2490 
L 128 2592 
L 1120 2944 
L 1146 2918 
L 1146 672 
Q 1146 314 1226 218 
Q 1306 122 1619 96 
L 1619 0 
z
" id="STIXGeneral-Regular-69" transform="scale(0.015625)"/>
      <path d="M 998 1926 
L 1664 1523 
Q 1984 1331 2105 1164 
Q 2227 998 2227 736 
Q 2227 416 1961 176 
Q 1696 -64 1331 -64 
Q 1030 -64 864 -6 
Q 691 51 570 51 
Q 461 51 416 -26 
L 333 -26 
L 333 979 
L 435 979 
Q 538 512 730 294 
Q 922 77 1248 77 
Q 1485 77 1632 211 
Q 1779 346 1779 550 
Q 1779 845 1440 1030 
L 1094 1222 
Q 326 1651 326 2150 
Q 326 2522 566 2730 
Q 806 2938 1210 2938 
Q 1491 2938 1638 2867 
Q 1754 2816 1818 2816 
Q 1862 2816 1920 2880 
L 1990 2880 
L 2022 2010 
L 1926 2010 
Q 1818 2445 1654 2621 
Q 1491 2797 1203 2797 
Q 986 2797 854 2688 
Q 723 2579 723 2362 
Q 723 2253 796 2128 
Q 870 2003 998 1926 
z
" id="STIXGeneral-Regular-73" transform="scale(0.015625)"/>
      <path d="M 1702 493 
L 1786 422 
Q 1478 -64 1011 -64 
Q 448 -64 448 749 
L 448 2675 
L 109 2675 
Q 83 2694 83 2720 
Q 83 2771 192 2842 
Q 435 2982 813 3526 
Q 826 3546 874 3606 
Q 922 3667 941 3706 
Q 986 3706 986 3622 
L 986 2880 
L 1632 2880 
L 1632 2675 
L 986 2675 
L 986 845 
Q 986 538 1062 403 
Q 1139 269 1318 269 
Q 1510 269 1702 493 
z
" id="STIXGeneral-Regular-74" transform="scale(0.015625)"/>
      <path d="M 2829 422 
L 2829 243 
Q 2586 -64 2253 -64 
Q 1888 -64 1843 403 
L 1837 403 
Q 1427 -64 909 -64 
Q 608 -64 422 112 
Q 237 288 237 602 
Q 237 1050 685 1350 
Q 992 1555 1837 1869 
L 1837 2214 
Q 1837 2502 1699 2646 
Q 1562 2790 1338 2790 
Q 1146 2790 1018 2697 
Q 890 2605 890 2477 
Q 890 2419 909 2348 
Q 928 2278 928 2208 
Q 928 2112 841 2029 
Q 755 1946 634 1946 
Q 525 1946 441 2029 
Q 358 2112 358 2240 
Q 358 2547 685 2752 
Q 986 2944 1421 2944 
Q 1939 2944 2176 2656 
Q 2291 2522 2323 2384 
Q 2355 2246 2355 1946 
L 2355 723 
Q 2355 301 2554 301 
Q 2682 301 2829 422 
z
M 1837 813 
L 1837 1715 
Q 1248 1510 1018 1293 
Q 800 1094 800 800 
Q 800 557 921 432 
Q 1043 307 1242 307 
Q 1453 307 1613 410 
Q 1747 506 1792 589 
Q 1837 672 1837 813 
z
" id="STIXGeneral-Regular-61" transform="scale(0.015625)"/>
      <path d="M 3104 0 
L 1773 0 
L 1779 96 
Q 2016 115 2096 233 
Q 2176 352 2176 672 
L 2176 1946 
Q 2176 2592 1709 2592 
Q 1549 2592 1408 2515 
Q 1267 2438 1050 2227 
L 1050 461 
Q 1050 269 1136 192 
Q 1222 115 1466 96 
L 1466 0 
L 115 0 
L 115 96 
Q 358 115 435 214 
Q 512 314 512 602 
L 512 2157 
Q 512 2394 467 2483 
Q 422 2573 288 2573 
Q 160 2573 102 2547 
L 102 2656 
Q 550 2784 979 2944 
L 1030 2925 
L 1030 2426 
L 1037 2426 
Q 1491 2944 1958 2944 
Q 2323 2944 2518 2688 
Q 2714 2432 2714 1958 
L 2714 544 
Q 2714 288 2790 205 
Q 2867 122 3104 96 
L 3104 0 
z
" id="STIXGeneral-Regular-6e" transform="scale(0.015625)"/>
      <path d="M 2547 998 
L 2637 941 
Q 2362 403 2112 205 
Q 1786 -64 1376 -64 
Q 845 -64 502 336 
Q 160 736 160 1357 
Q 160 2170 698 2618 
Q 1094 2944 1562 2944 
Q 1965 2944 2256 2749 
Q 2547 2554 2547 2285 
Q 2547 2176 2457 2096 
Q 2368 2016 2246 2016 
Q 2022 2016 1939 2310 
L 1901 2451 
Q 1850 2630 1773 2694 
Q 1696 2758 1523 2758 
Q 1133 2758 893 2451 
Q 653 2144 653 1645 
Q 653 1094 928 745 
Q 1203 397 1645 397 
Q 1920 397 2118 528 
Q 2317 659 2547 998 
z
" id="STIXGeneral-Regular-63" transform="scale(0.015625)"/>
      <path d="M 2611 1050 
L 2714 1005 
Q 2330 -64 1376 -64 
Q 813 -64 486 329 
Q 160 723 160 1389 
Q 160 2074 525 2509 
Q 890 2944 1485 2944 
Q 2061 2944 2374 2502 
Q 2560 2246 2592 1773 
L 621 1773 
Q 646 1370 700 1158 
Q 755 947 915 730 
Q 1184 378 1626 378 
Q 1939 378 2153 531 
Q 2368 685 2611 1050 
z
M 634 1978 
L 1939 1978 
Q 1882 2381 1750 2547 
Q 1619 2714 1312 2714 
Q 1043 2714 864 2525 
Q 685 2336 634 1978 
z
" id="STIXGeneral-Regular-65" transform="scale(0.015625)"/>
      <path id="STIXGeneral-Regular-20" transform="scale(0.015625)"/>
      <path d="M 979 4358 
L 979 2406 
Q 1082 2650 1315 2797 
Q 1549 2944 1843 2944 
Q 2349 2944 2672 2541 
Q 2995 2138 2995 1536 
Q 2995 832 2566 384 
Q 2138 -64 1498 -64 
Q 1107 -64 774 67 
Q 442 198 442 358 
L 442 3622 
Q 442 3859 384 3926 
Q 326 3994 128 3994 
Q 83 3994 19 3981 
L 19 4090 
L 211 4147 
Q 864 4346 947 4371 
L 979 4358 
z
M 979 2035 
L 979 474 
Q 979 326 1161 233 
Q 1344 141 1600 141 
Q 1978 141 2195 416 
Q 2432 710 2432 1261 
Q 2432 1888 2182 2240 
Q 1971 2541 1613 2541 
Q 1357 2541 1168 2390 
Q 979 2240 979 2035 
z
" id="STIXGeneral-Regular-62" transform="scale(0.015625)"/>
      <path d="M 4442 2880 
L 4442 2784 
Q 4346 2752 4301 2691 
Q 4256 2630 4179 2438 
L 3296 224 
Q 3168 -90 3117 -90 
Q 3085 -90 3062 -48 
Q 3040 -6 2963 186 
L 2381 1696 
L 1664 160 
Q 1549 -90 1504 -90 
Q 1446 -90 1338 192 
L 474 2381 
Q 378 2630 314 2700 
Q 250 2771 134 2784 
L 134 2880 
L 1286 2880 
L 1286 2784 
Q 1120 2765 1056 2720 
Q 992 2675 992 2573 
Q 992 2477 1030 2381 
L 1664 710 
L 2246 1984 
L 2118 2342 
Q 2029 2598 1942 2681 
Q 1856 2765 1677 2784 
L 1677 2880 
L 2976 2880 
L 2976 2784 
Q 2752 2752 2678 2707 
Q 2605 2662 2605 2560 
Q 2605 2458 2714 2176 
L 3251 742 
L 3827 2163 
Q 3936 2432 3936 2592 
Q 3936 2669 3875 2710 
Q 3814 2752 3654 2784 
L 3654 2880 
L 4442 2880 
z
" id="STIXGeneral-Regular-77" transform="scale(0.015625)"/>
      <path d="M 3821 1082 
L 3526 0 
L 77 0 
L 77 122 
Q 442 147 538 252 
Q 634 358 634 730 
L 634 3520 
Q 634 3878 534 3987 
Q 435 4096 77 4115 
L 77 4237 
L 3469 4237 
L 3494 3322 
L 3334 3322 
Q 3264 3750 3085 3872 
Q 2906 3994 2349 3994 
L 1510 3994 
Q 1370 3994 1328 3952 
Q 1286 3910 1286 3763 
L 1286 2355 
L 2253 2355 
Q 2656 2355 2787 2470 
Q 2918 2586 2976 2970 
L 3123 2970 
L 3123 1472 
L 2976 1472 
Q 2918 1875 2790 1984 
Q 2662 2093 2253 2093 
L 1286 2093 
L 1286 538 
Q 1286 346 1420 291 
Q 1555 237 1933 237 
L 2163 237 
Q 2848 237 3136 403 
Q 3424 570 3642 1082 
L 3821 1082 
z
" id="STIXGeneral-Regular-45" transform="scale(0.015625)"/>
      <path d="M 4224 0 
L 3187 0 
L 1664 1971 
L 1306 1958 
L 1306 717 
Q 1306 352 1405 249 
Q 1504 147 1875 122 
L 1875 0 
L 109 0 
L 109 122 
Q 474 154 563 262 
Q 653 371 653 794 
L 653 3526 
Q 653 3885 563 3987 
Q 474 4090 109 4115 
L 109 4237 
L 1850 4237 
Q 2726 4237 3187 3859 
Q 3501 3603 3501 3091 
Q 3501 2221 2342 2042 
L 3622 422 
Q 3757 256 3878 198 
Q 4000 141 4224 122 
L 4224 0 
z
M 1306 3731 
L 1306 2195 
Q 1766 2202 1990 2246 
Q 2214 2291 2438 2413 
Q 2803 2618 2803 3142 
Q 2803 4000 1632 4000 
Q 1459 4000 1382 3945 
Q 1306 3891 1306 3731 
z
" id="STIXGeneral-Regular-52" transform="scale(0.015625)"/>
      <path d="M 3142 269 
L 2202 -64 
L 2176 -45 
L 2176 365 
Q 1869 -64 1357 -64 
Q 826 -64 499 317 
Q 173 698 173 1312 
Q 173 1990 563 2467 
Q 954 2944 1504 2944 
Q 1850 2944 2176 2669 
L 2176 3667 
Q 2176 3866 2118 3930 
Q 2061 3994 1882 3994 
Q 1792 3994 1741 3987 
L 1741 4090 
Q 2323 4243 2682 4371 
L 2714 4358 
L 2714 730 
Q 2714 506 2768 435 
Q 2822 365 2995 365 
Q 3034 365 3142 371 
L 3142 269 
z
M 2176 653 
L 2176 2125 
Q 2176 2381 1981 2573 
Q 1786 2765 1523 2765 
Q 1158 2765 940 2438 
Q 723 2112 723 1568 
Q 723 979 963 624 
Q 1203 269 1606 269 
Q 1907 269 2080 474 
Q 2176 582 2176 653 
z
" id="STIXGeneral-Regular-64" transform="scale(0.015625)"/>
      <path d="M 3008 2483 
L 2477 2483 
Q 2598 2208 2598 1946 
Q 2598 1453 2265 1203 
Q 1933 954 1600 954 
Q 1530 954 1357 973 
L 1235 986 
Q 1107 947 979 812 
Q 851 678 851 582 
Q 851 435 1350 410 
L 2176 371 
Q 2528 358 2739 172 
Q 2950 -13 2950 -314 
Q 2950 -685 2566 -986 
Q 2035 -1395 1286 -1395 
Q 826 -1395 502 -1212 
Q 179 -1030 179 -774 
Q 179 -595 320 -419 
Q 461 -243 806 6 
Q 602 102 534 172 
Q 467 243 467 346 
Q 467 531 762 787 
Q 909 915 1037 1043 
Q 717 1203 579 1401 
Q 442 1600 442 1901 
Q 442 2336 752 2640 
Q 1062 2944 1510 2944 
Q 1766 2944 2022 2848 
L 2163 2797 
Q 2349 2733 2515 2733 
L 3008 2733 
L 3008 2483 
z
M 973 2163 
L 973 2144 
Q 973 1683 1155 1398 
Q 1338 1114 1632 1114 
Q 1850 1114 1978 1270 
Q 2106 1427 2106 1690 
Q 2106 2112 1914 2464 
Q 1754 2765 1446 2765 
Q 1222 2765 1097 2605 
Q 973 2445 973 2163 
z
M 2771 -410 
Q 2771 -230 2595 -163 
Q 2419 -96 1978 -96 
Q 1344 -96 941 -13 
Q 749 -243 688 -348 
Q 627 -454 627 -563 
Q 627 -774 880 -902 
Q 1133 -1030 1555 -1030 
Q 2099 -1030 2435 -860 
Q 2771 -691 2771 -410 
z
" id="STIXGeneral-Regular-67" transform="scale(0.015625)"/>
      <path d="M 3008 1478 
Q 3008 806 2608 371 
Q 2208 -64 1568 -64 
Q 979 -64 582 368 
Q 186 800 186 1459 
Q 186 2125 582 2534 
Q 979 2944 1626 2944 
Q 2221 2944 2614 2537 
Q 3008 2131 3008 1478 
z
M 2432 1306 
Q 2432 2035 2112 2445 
Q 1856 2765 1504 2765 
Q 1171 2765 966 2493 
Q 762 2221 762 1747 
Q 762 928 1101 435 
Q 1318 115 1677 115 
Q 2029 115 2230 432 
Q 2432 749 2432 1306 
z
" id="STIXGeneral-Regular-6f" transform="scale(0.015625)"/>
      <path d="M 134 2880 
L 659 2880 
Q 666 3264 710 3478 
Q 755 3693 883 3910 
Q 1152 4371 1786 4371 
Q 2074 4371 2262 4259 
Q 2451 4147 2451 3974 
Q 2451 3866 2374 3789 
Q 2298 3712 2182 3712 
Q 2029 3712 1894 3942 
Q 1741 4192 1555 4192 
Q 1197 4192 1197 3622 
L 1197 2880 
L 1978 2880 
L 1978 2675 
L 1197 2675 
L 1197 666 
Q 1197 307 1299 208 
Q 1402 109 1792 96 
L 1792 0 
L 128 0 
L 128 96 
Q 474 115 566 214 
Q 659 314 659 666 
L 659 2675 
L 134 2675 
L 134 2880 
z
" id="STIXGeneral-Regular-66" transform="scale(0.015625)"/>
      <path d="M 4499 4237 
L 4499 4115 
Q 4218 4090 4054 3955 
Q 3891 3821 3616 3398 
L 2669 1939 
L 2669 710 
Q 2669 346 2790 243 
Q 2912 141 3328 122 
L 3328 0 
L 1370 0 
L 1370 122 
Q 1805 154 1910 259 
Q 2016 365 2016 787 
L 2016 1882 
L 1178 3110 
Q 742 3750 556 3926 
Q 371 4102 141 4115 
L 141 4237 
L 1926 4237 
L 1926 4115 
L 1773 4109 
Q 1472 4102 1472 3942 
Q 1472 3808 1587 3642 
L 2522 2227 
L 3450 3648 
Q 3539 3782 3539 3917 
Q 3533 4026 3440 4067 
Q 3347 4109 3104 4115 
L 3104 4237 
L 4499 4237 
z
" id="STIXGeneral-Regular-59" transform="scale(0.015625)"/>
      <path d="M 1024 2931 
L 1024 2342 
Q 1267 2688 1430 2816 
Q 1594 2944 1792 2944 
Q 1958 2944 2051 2854 
Q 2144 2765 2144 2605 
Q 2144 2470 2077 2393 
Q 2010 2317 1894 2317 
Q 1773 2317 1638 2445 
Q 1536 2541 1472 2541 
Q 1338 2541 1181 2355 
Q 1024 2170 1024 2016 
L 1024 576 
Q 1024 301 1133 205 
Q 1242 109 1568 96 
L 1568 0 
L 32 0 
L 32 96 
Q 339 154 412 224 
Q 486 294 486 538 
L 486 2138 
Q 486 2349 438 2435 
Q 390 2522 269 2522 
Q 166 2522 45 2496 
L 45 2598 
Q 448 2726 992 2944 
L 1024 2931 
z
" id="STIXGeneral-Regular-72" transform="scale(0.015625)"/>
      <path d="M 3232 0 
L 1837 0 
L 1837 96 
L 1958 96 
Q 2093 96 2093 192 
Q 2093 250 2022 339 
L 1062 1606 
L 1062 429 
Q 1062 262 1142 185 
Q 1222 109 1414 102 
L 1542 96 
L 1542 0 
L 45 0 
L 45 96 
Q 390 154 457 214 
Q 525 275 525 525 
L 525 3610 
Q 525 3840 467 3920 
Q 410 4000 250 4000 
Q 211 4000 45 3987 
L 45 4090 
L 237 4141 
Q 621 4243 1037 4371 
L 1062 4358 
L 1062 1670 
L 1939 2451 
Q 2086 2586 2086 2675 
Q 2086 2739 2019 2761 
Q 1952 2784 1766 2790 
L 1766 2880 
L 3072 2880 
L 3072 2784 
Q 2752 2784 2505 2646 
Q 2259 2509 1690 1978 
L 1504 1805 
L 2483 563 
Q 2829 122 3232 96 
L 3232 0 
z
" id="STIXGeneral-Regular-6b" transform="scale(0.015625)"/>
      <path d="M 3117 0 
L 1760 0 
L 1760 96 
Q 2042 128 2118 224 
Q 2195 320 2195 653 
L 2195 1920 
Q 2195 2598 1722 2598 
Q 1530 2598 1370 2508 
Q 1210 2419 1005 2195 
L 1005 653 
Q 1005 320 1081 224 
Q 1158 128 1440 96 
L 1440 0 
L 58 0 
L 58 96 
Q 333 134 400 224 
Q 467 314 467 653 
L 467 3667 
Q 467 3872 406 3933 
Q 346 3994 141 3994 
Q 83 3994 64 3987 
L 64 4090 
L 237 4141 
Q 730 4288 973 4371 
L 1005 4352 
L 1005 2406 
Q 1229 2694 1446 2819 
Q 1664 2944 1946 2944 
Q 2733 2944 2733 1926 
L 2733 653 
Q 2733 320 2793 233 
Q 2854 147 3117 96 
L 3117 0 
z
" id="STIXGeneral-Regular-68" transform="scale(0.015625)"/>
      <path d="M 3002 2963 
L 2842 2963 
Q 2733 3360 2579 3565 
Q 2189 4064 1651 4064 
Q 1357 4064 1181 3894 
Q 1005 3725 1005 3456 
Q 1005 3328 1069 3206 
Q 1133 3085 1206 2998 
Q 1280 2912 1465 2784 
Q 1651 2656 1766 2589 
Q 1882 2522 2150 2362 
Q 2669 2061 2905 1763 
Q 3142 1466 3142 1107 
Q 3142 576 2771 243 
Q 2400 -90 1837 -90 
Q 1421 -90 1082 58 
Q 915 128 781 128 
Q 704 128 653 70 
Q 602 13 602 -83 
L 461 -83 
L 275 1274 
L 416 1274 
Q 845 141 1734 141 
Q 2074 141 2285 342 
Q 2496 544 2496 858 
Q 2496 1158 2310 1363 
Q 2003 1696 1235 2106 
Q 454 2522 454 3206 
Q 454 3718 768 4022 
Q 1082 4326 1568 4326 
Q 1907 4326 2240 4186 
Q 2413 4109 2522 4109 
Q 2688 4109 2726 4326 
L 2861 4326 
L 3002 2963 
z
" id="STIXGeneral-Regular-53" transform="scale(0.015625)"/>
      <path d="M 2522 0 
L 755 0 
L 755 96 
Q 1107 115 1235 227 
Q 1363 339 1363 608 
L 1363 3482 
Q 1363 3795 1171 3795 
Q 1082 3795 883 3718 
L 710 3654 
L 710 3744 
L 1856 4326 
L 1914 4307 
L 1914 486 
Q 1914 275 2042 185 
Q 2170 96 2522 96 
L 2522 0 
z
" id="STIXGeneral-Regular-31" transform="scale(0.015625)"/>
      <path d="M 2854 4378 
L 2867 4275 
Q 2112 4154 1606 3664 
Q 1101 3174 973 2451 
Q 1344 2739 1786 2739 
Q 2349 2739 2672 2380 
Q 2995 2022 2995 1402 
Q 2995 774 2669 378 
Q 2291 -90 1651 -90 
Q 870 -90 518 557 
Q 218 1107 218 1786 
Q 218 2835 915 3552 
Q 1312 3962 1731 4131 
Q 2150 4301 2854 4378 
z
M 2419 1203 
Q 2419 2445 1555 2445 
Q 1235 2445 1024 2275 
Q 813 2106 813 1702 
Q 813 954 1046 522 
Q 1280 90 1722 90 
Q 2061 90 2240 394 
Q 2419 698 2419 1203 
z
" id="STIXGeneral-Regular-36" transform="scale(0.015625)"/>
      <path d="M 3046 2112 
Q 3046 1683 2963 1302 
Q 2880 922 2717 602 
Q 2554 282 2266 96 
Q 1978 -90 1600 -90 
Q 1210 -90 915 108 
Q 621 307 461 640 
Q 301 973 227 1350 
Q 154 1728 154 2150 
Q 154 2746 301 3222 
Q 448 3699 790 4012 
Q 1133 4326 1626 4326 
Q 2253 4326 2649 3712 
Q 3046 3098 3046 2112 
z
M 2432 2080 
Q 2432 3091 2217 3625 
Q 2003 4160 1587 4160 
Q 1190 4160 979 3622 
Q 768 3085 768 2106 
Q 768 1120 979 598 
Q 1190 77 1600 77 
Q 2003 77 2217 598 
Q 2432 1120 2432 2080 
z
" id="STIXGeneral-Regular-30" transform="scale(0.015625)"/>
      <path d="M 4960 0 
L 3565 0 
L 3565 96 
Q 3834 122 3907 208 
Q 3981 294 3981 576 
L 3981 1894 
Q 3981 2278 3869 2444 
Q 3757 2611 3488 2611 
Q 3264 2611 3107 2521 
Q 2950 2432 2803 2221 
L 2803 608 
Q 2803 301 2896 201 
Q 2989 102 3264 96 
L 3264 0 
L 1830 0 
L 1830 96 
Q 2112 115 2189 188 
Q 2266 262 2266 550 
L 2266 1901 
Q 2266 2611 1850 2611 
Q 1670 2611 1468 2531 
Q 1267 2451 1171 2336 
Q 1088 2240 1088 2227 
L 1088 448 
Q 1088 243 1177 176 
Q 1267 109 1523 96 
L 1523 0 
L 102 0 
L 102 96 
Q 371 102 460 195 
Q 550 288 550 563 
L 550 2150 
Q 550 2387 499 2480 
Q 448 2573 326 2573 
Q 230 2573 122 2547 
L 122 2656 
Q 557 2778 1011 2944 
L 1062 2925 
L 1062 2451 
L 1075 2451 
Q 1363 2752 1584 2848 
Q 1805 2944 2054 2944 
Q 2560 2944 2733 2406 
Q 3232 2944 3776 2944 
Q 4518 2944 4518 1792 
L 4518 493 
Q 4518 282 4582 202 
Q 4646 122 4794 109 
L 4960 96 
L 4960 0 
z
" id="STIXGeneral-Regular-6d" transform="scale(0.015625)"/>
      <path d="M 1158 275 
Q 1158 134 1052 32 
Q 947 -70 800 -70 
Q 653 -70 550 32 
Q 448 134 448 281 
Q 448 429 553 534 
Q 659 640 806 640 
Q 947 640 1052 531 
Q 1158 422 1158 275 
z
" id="STIXGeneral-Regular-2e" transform="scale(0.015625)"/>
     </defs>
     <use xlink:href="#STIXGeneral-Regular-44"/>
     <use x="72.199982" xlink:href="#STIXGeneral-Regular-69"/>
     <use x="99.999969" xlink:href="#STIXGeneral-Regular-73"/>
     <use x="138.899963" xlink:href="#STIXGeneral-Regular-74"/>
     <use x="166.699951" xlink:href="#STIXGeneral-Regular-61"/>
     <use x="211.099945" xlink:href="#STIXGeneral-Regular-6e"/>
     <use x="261.09993" xlink:href="#STIXGeneral-Regular-63"/>
     <use x="305.499924" xlink:href="#STIXGeneral-Regular-65"/>
     <use x="349.899918" xlink:href="#STIXGeneral-Regular-20"/>
     <use x="374.899902" xlink:href="#STIXGeneral-Regular-62"/>
     <use x="424.899887" xlink:href="#STIXGeneral-Regular-65"/>
     <use x="469.299881" xlink:href="#STIXGeneral-Regular-74"/>
     <use x="497.099869" xlink:href="#STIXGeneral-Regular-77"/>
     <use x="569.29985" xlink:href="#STIXGeneral-Regular-65"/>
     <use x="613.699844" xlink:href="#STIXGeneral-Regular-65"/>
     <use x="658.099838" xlink:href="#STIXGeneral-Regular-6e"/>
     <use x="708.099823" xlink:href="#STIXGeneral-Regular-20"/>
     <use x="733.099808" xlink:href="#STIXGeneral-Regular-45"/>
     <use x="794.199799" xlink:href="#STIXGeneral-Regular-61"/>
     <use x="838.599792" xlink:href="#STIXGeneral-Regular-73"/>
     <use x="877.499786" xlink:href="#STIXGeneral-Regular-74"/>
     <use x="905.299774" xlink:href="#STIXGeneral-Regular-20"/>
     <use x="930.299759" xlink:href="#STIXGeneral-Regular-52"/>
     <use x="996.999756" xlink:href="#STIXGeneral-Regular-69"/>
     <use x="1024.799744" xlink:href="#STIXGeneral-Regular-64"/>
     <use x="1074.799728" xlink:href="#STIXGeneral-Regular-69"/>
     <use x="1102.599716" xlink:href="#STIXGeneral-Regular-6e"/>
     <use x="1152.599701" xlink:href="#STIXGeneral-Regular-67"/>
     <use x="1202.599686" xlink:href="#STIXGeneral-Regular-20"/>
     <use x="1227.59967" xlink:href="#STIXGeneral-Regular-6f"/>
     <use x="1277.599655" xlink:href="#STIXGeneral-Regular-66"/>
     <use x="1310.899643" xlink:href="#STIXGeneral-Regular-20"/>
     <use x="1335.899628" xlink:href="#STIXGeneral-Regular-59"/>
     <use x="1408.099609" xlink:href="#STIXGeneral-Regular-6f"/>
     <use x="1458.099594" xlink:href="#STIXGeneral-Regular-72"/>
     <use x="1491.399582" xlink:href="#STIXGeneral-Regular-6b"/>
     <use x="1541.399567" xlink:href="#STIXGeneral-Regular-73"/>
     <use x="1580.299561" xlink:href="#STIXGeneral-Regular-68"/>
     <use x="1630.299545" xlink:href="#STIXGeneral-Regular-69"/>
     <use x="1658.099533" xlink:href="#STIXGeneral-Regular-72"/>
     <use x="1691.399521" xlink:href="#STIXGeneral-Regular-65"/>
     <use x="1735.799515" xlink:href="#STIXGeneral-Regular-20"/>
     <use x="1760.7995" xlink:href="#STIXGeneral-Regular-61"/>
     <use x="1805.199493" xlink:href="#STIXGeneral-Regular-6e"/>
     <use x="1855.199478" xlink:href="#STIXGeneral-Regular-64"/>
     <use x="1905.199463" xlink:href="#STIXGeneral-Regular-20"/>
     <use x="1930.199448" xlink:href="#STIXGeneral-Regular-53"/>
     <use x="1985.799438" xlink:href="#STIXGeneral-Regular-74"/>
     <use x="2013.599426" xlink:href="#STIXGeneral-Regular-61"/>
     <use x="2057.99942" xlink:href="#STIXGeneral-Regular-66"/>
     <use x="2091.299408" xlink:href="#STIXGeneral-Regular-66"/>
     <use x="2124.599396" xlink:href="#STIXGeneral-Regular-6f"/>
     <use x="2174.59938" xlink:href="#STIXGeneral-Regular-72"/>
     <use x="2207.899368" xlink:href="#STIXGeneral-Regular-64"/>
     <use x="2257.899353" xlink:href="#STIXGeneral-Regular-20"/>
     <use x="2282.899338" xlink:href="#STIXGeneral-Regular-69"/>
     <use x="2310.699326" xlink:href="#STIXGeneral-Regular-73"/>
     <use x="2349.599319" xlink:href="#STIXGeneral-Regular-20"/>
     <use x="2374.599304" xlink:href="#STIXGeneral-Regular-31"/>
     <use x="2424.599289" xlink:href="#STIXGeneral-Regular-36"/>
     <use x="2474.599274" xlink:href="#STIXGeneral-Regular-30"/>
     <use x="2524.599258" xlink:href="#STIXGeneral-Regular-20"/>
     <use x="2549.599243" xlink:href="#STIXGeneral-Regular-6b"/>
     <use x="2599.599228" xlink:href="#STIXGeneral-Regular-6d"/>
     <use x="2677.399216" xlink:href="#STIXGeneral-Regular-2e"/>
    </g>
   </g>
  </g>
 </g>
 <defs>
  <clipPath id="paa073d8a8e">
   <rect height="543.6" width="529.764807" x="7.2" y="24.145"/>
  </clipPath>
 </defs>
</svg>
