<?xml version="1.0" encoding="utf-8" standalone="no"?>
<!DOCTYPE svg PUBLIC "-//W3C//DTD SVG 1.1//EN"
  "http://www.w3.org/Graphics/SVG/1.1/DTD/svg11.dtd">
<svg height="340.56pt" version="1.1" viewBox="0 0 451.39198 340.56" width="451.39198pt" xmlns="http://www.w3.org/2000/svg" xmlns:xlink="http://www.w3.org/1999/xlink">
 <metadata>
  <rdf:RDF xmlns:cc="http://creativecommons.org/ns#" xmlns:dc="http://purl.org/dc/elements/1.1/" xmlns:rdf="http://www.w3.org/1999/02/22-rdf-syntax-ns#">
   <cc:Work>
    <dc:type rdf:resource="http://purl.org/dc/dcmitype/StillImage"/>
    <dc:date>2022-08-20T18:03:06.261000</dc:date>
    <dc:format>image/svg+xml</dc:format>
    <dc:creator>
     <cc:Agent>
      <dc:title>Matplotlib v3.4.3, https://matplotlib.org/</dc:title>
     </cc:Agent>
    </dc:creator>
   </cc:Work>
  </rdf:RDF>
 </metadata>
 <defs>
  <style type="text/css">*{stroke-linecap:butt;stroke-linejoin:round;}</style>
 </defs>
 <g id="figure_1">
  <g id="patch_1">
   <path d="M 0 340.56 
L 451.39198 340.56 
L 451.39198 0 
L 0 0 
z
" style="fill:none;"/>
  </g>
  <g id="axes_1">
   <g id="patch_2">
    <path clip-path="url(#p3d08c25ec5)" d="M 43.615998 102.33 
L 43.615998 34.38 
L 134.655994 34.38 
L 134.655994 102.33 
L 43.615998 102.33 
" style="fill:none;stroke:#000000;stroke-linejoin:miter;stroke-width:0.2;"/>
   </g>
   <g id="patch_3">
    <path clip-path="url(#p3d08c25ec5)" d="M 43.615998 170.28 
L 43.615998 102.33 
L 134.655994 102.33 
L 134.655994 170.28 
L 43.615998 170.28 
" style="fill:none;stroke:#000000;stroke-linejoin:miter;stroke-width:0.2;"/>
   </g>
   <g id="patch_4">
    <path clip-path="url(#p3d08c25ec5)" d="M 134.655994 102.33 
L 134.655994 34.38 
L 225.69599 34.38 
L 225.69599 102.33 
L 134.655994 102.33 
" style="fill:none;stroke:#000000;stroke-linejoin:miter;stroke-width:0.2;"/>
   </g>
   <g id="patch_5">
    <path clip-path="url(#p3d08c25ec5)" d="M 134.655994 136.305 
L 134.655994 102.33 
L 180.175992 102.33 
L 180.175992 136.305 
L 134.655994 136.305 
" style="fill:none;stroke:#000000;stroke-linejoin:miter;stroke-width:0.2;"/>
   </g>
   <g id="patch_6">
    <path clip-path="url(#p3d08c25ec5)" d="M 134.655994 170.28 
L 134.655994 136.305 
L 180.175992 136.305 
L 180.175992 170.28 
L 134.655994 170.28 
" style="fill:none;stroke:#000000;stroke-linejoin:miter;stroke-width:0.2;"/>
   </g>
   <g id="patch_7">
    <path clip-path="url(#p3d08c25ec5)" d="M 180.175992 119.3175 
L 180.175992 102.33 
L 202.935991 102.33 
L 202.935991 119.3175 
L 180.175992 119.3175 
" style="fill:none;stroke:#000000;stroke-linejoin:miter;stroke-width:0.2;"/>
   </g>
   <g id="patch_8">
    <path clip-path="url(#p3d08c25ec5)" d="M 180.175992 136.305 
L 180.175992 119.3175 
L 202.935991 119.3175 
L 202.935991 136.305 
L 180.175992 136.305 
" style="fill:none;stroke:#000000;stroke-linejoin:miter;stroke-width:0.2;"/>
   </g>
   <g id="patch_9">
    <path clip-path="url(#p3d08c25ec5)" d="M 202.935991 119.3175 
L 202.935991 102.33 
L 225.69599 102.33 
L 225.69599 119.3175 
L 202.935991 119.3175 
" style="fill:none;stroke:#000000;stroke-linejoin:miter;stroke-width:0.2;"/>
   </g>
   <g id="patch_10">
    <path clip-path="url(#p3d08c25ec5)" d="M 202.935991 127.81125 
L 202.935991 119.3175 
L 214.31599 119.3175 
L 214.31599 127.81125 
L 202.935991 127.81125 
" style="fill:none;stroke:#000000;stroke-linejoin:miter;stroke-width:0.2;"/>
   </g>
   <g id="patch_11">
    <path clip-path="url(#p3d08c25ec5)" d="M 202.935991 132.058125 
L 202.935991 127.81125 
L 208.625991 127.81125 
L 208.625991 132.058125 
L 202.935991 132.058125 
" style="fill:none;stroke:#000000;stroke-linejoin:miter;stroke-width:0.2;"/>
   </g>
   <g id="patch_12">
    <path clip-path="url(#p3d08c25ec5)" d="M 202.935991 136.305 
L 202.935991 132.058125 
L 208.625991 132.058125 
L 208.625991 136.305 
L 202.935991 136.305 
" style="fill:none;stroke:#000000;stroke-linejoin:miter;stroke-width:0.2;"/>
   </g>
   <g id="patch_13">
    <path clip-path="url(#p3d08c25ec5)" d="M 208.625991 132.058125 
L 208.625991 127.81125 
L 214.31599 127.81125 
L 214.31599 132.058125 
L 208.625991 132.058125 
" style="fill:none;stroke:#000000;stroke-linejoin:miter;stroke-width:0.2;"/>
   </g>
   <g id="patch_14">
    <path clip-path="url(#p3d08c25ec5)" d="M 208.625991 136.305 
L 208.625991 132.058125 
L 214.31599 132.058125 
L 214.31599 136.305 
L 208.625991 136.305 
" style="fill:none;stroke:#000000;stroke-linejoin:miter;stroke-width:0.2;"/>
   </g>
   <g id="patch_15">
    <path clip-path="url(#p3d08c25ec5)" d="M 214.31599 127.81125 
L 214.31599 119.3175 
L 225.69599 119.3175 
L 225.69599 127.81125 
L 214.31599 127.81125 
" style="fill:none;stroke:#000000;stroke-linejoin:miter;stroke-width:0.2;"/>
   </g>
   <g id="patch_16">
    <path clip-path="url(#p3d08c25ec5)" d="M 214.31599 132.058125 
L 214.31599 127.81125 
L 220.00599 127.81125 
L 220.00599 132.058125 
L 214.31599 132.058125 
" style="fill:none;stroke:#000000;stroke-linejoin:miter;stroke-width:0.2;"/>
   </g>
   <g id="patch_17">
    <path clip-path="url(#p3d08c25ec5)" d="M 214.31599 136.305 
L 214.31599 132.058125 
L 220.00599 132.058125 
L 220.00599 136.305 
L 214.31599 136.305 
" style="fill:none;stroke:#000000;stroke-linejoin:miter;stroke-width:0.2;"/>
   </g>
   <g id="patch_18">
    <path clip-path="url(#p3d08c25ec5)" d="M 220.00599 132.058125 
L 220.00599 127.81125 
L 225.69599 127.81125 
L 225.69599 132.058125 
L 220.00599 132.058125 
" style="fill:none;stroke:#000000;stroke-linejoin:miter;stroke-width:0.2;"/>
   </g>
   <g id="patch_19">
    <path clip-path="url(#p3d08c25ec5)" d="M 220.00599 136.305 
L 220.00599 132.058125 
L 225.69599 132.058125 
L 225.69599 136.305 
L 220.00599 136.305 
" style="fill:none;stroke:#000000;stroke-linejoin:miter;stroke-width:0.2;"/>
   </g>
   <g id="patch_20">
    <path clip-path="url(#p3d08c25ec5)" d="M 180.175992 153.2925 
L 180.175992 136.305 
L 202.935991 136.305 
L 202.935991 153.2925 
L 180.175992 153.2925 
" style="fill:none;stroke:#000000;stroke-linejoin:miter;stroke-width:0.2;"/>
   </g>
   <g id="patch_21">
    <path clip-path="url(#p3d08c25ec5)" d="M 180.175992 170.28 
L 180.175992 153.2925 
L 202.935991 153.2925 
L 202.935991 170.28 
L 180.175992 170.28 
" style="fill:none;stroke:#000000;stroke-linejoin:miter;stroke-width:0.2;"/>
   </g>
   <g id="patch_22">
    <path clip-path="url(#p3d08c25ec5)" d="M 202.935991 140.551875 
L 202.935991 136.305 
L 208.625991 136.305 
L 208.625991 140.551875 
L 202.935991 140.551875 
" style="fill:none;stroke:#000000;stroke-linejoin:miter;stroke-width:0.2;"/>
   </g>
   <g id="patch_23">
    <path clip-path="url(#p3d08c25ec5)" d="M 202.935991 144.79875 
L 202.935991 140.551875 
L 208.625991 140.551875 
L 208.625991 144.79875 
L 202.935991 144.79875 
" style="fill:none;stroke:#000000;stroke-linejoin:miter;stroke-width:0.2;"/>
   </g>
   <g id="patch_24">
    <path clip-path="url(#p3d08c25ec5)" d="M 208.625991 140.551875 
L 208.625991 136.305 
L 214.31599 136.305 
L 214.31599 140.551875 
L 208.625991 140.551875 
" style="fill:none;stroke:#000000;stroke-linejoin:miter;stroke-width:0.2;"/>
   </g>
   <g id="patch_25">
    <path clip-path="url(#p3d08c25ec5)" d="M 208.625991 144.79875 
L 208.625991 140.551875 
L 214.31599 140.551875 
L 214.31599 144.79875 
L 208.625991 144.79875 
" style="fill:none;stroke:#000000;stroke-linejoin:miter;stroke-width:0.2;"/>
   </g>
   <g id="patch_26">
    <path clip-path="url(#p3d08c25ec5)" d="M 202.935991 149.045625 
L 202.935991 144.79875 
L 208.625991 144.79875 
L 208.625991 149.045625 
L 202.935991 149.045625 
" style="fill:none;stroke:#000000;stroke-linejoin:miter;stroke-width:0.2;"/>
   </g>
   <g id="patch_27">
    <path clip-path="url(#p3d08c25ec5)" d="M 202.935991 153.2925 
L 202.935991 149.045625 
L 208.625991 149.045625 
L 208.625991 153.2925 
L 202.935991 153.2925 
" style="fill:none;stroke:#000000;stroke-linejoin:miter;stroke-width:0.2;"/>
   </g>
   <g id="patch_28">
    <path clip-path="url(#p3d08c25ec5)" d="M 208.625991 149.045625 
L 208.625991 144.79875 
L 214.31599 144.79875 
L 214.31599 149.045625 
L 208.625991 149.045625 
" style="fill:none;stroke:#000000;stroke-linejoin:miter;stroke-width:0.2;"/>
   </g>
   <g id="patch_29">
    <path clip-path="url(#p3d08c25ec5)" d="M 208.625991 153.2925 
L 208.625991 149.045625 
L 214.31599 149.045625 
L 214.31599 153.2925 
L 208.625991 153.2925 
" style="fill:none;stroke:#000000;stroke-linejoin:miter;stroke-width:0.2;"/>
   </g>
   <g id="patch_30">
    <path clip-path="url(#p3d08c25ec5)" d="M 214.31599 140.551875 
L 214.31599 136.305 
L 220.00599 136.305 
L 220.00599 140.551875 
L 214.31599 140.551875 
" style="fill:none;stroke:#000000;stroke-linejoin:miter;stroke-width:0.2;"/>
   </g>
   <g id="patch_31">
    <path clip-path="url(#p3d08c25ec5)" d="M 214.31599 144.79875 
L 214.31599 140.551875 
L 220.00599 140.551875 
L 220.00599 144.79875 
L 214.31599 144.79875 
" style="fill:none;stroke:#000000;stroke-linejoin:miter;stroke-width:0.2;"/>
   </g>
   <g id="patch_32">
    <path clip-path="url(#p3d08c25ec5)" d="M 220.00599 140.551875 
L 220.00599 136.305 
L 225.69599 136.305 
L 225.69599 140.551875 
L 220.00599 140.551875 
" style="fill:none;stroke:#000000;stroke-linejoin:miter;stroke-width:0.2;"/>
   </g>
   <g id="patch_33">
    <path clip-path="url(#p3d08c25ec5)" d="M 220.00599 144.79875 
L 220.00599 140.551875 
L 225.69599 140.551875 
L 225.69599 144.79875 
L 220.00599 144.79875 
" style="fill:none;stroke:#000000;stroke-linejoin:miter;stroke-width:0.2;"/>
   </g>
   <g id="patch_34">
    <path clip-path="url(#p3d08c25ec5)" d="M 214.31599 149.045625 
L 214.31599 144.79875 
L 220.00599 144.79875 
L 220.00599 149.045625 
L 214.31599 149.045625 
" style="fill:none;stroke:#000000;stroke-linejoin:miter;stroke-width:0.2;"/>
   </g>
   <g id="patch_35">
    <path clip-path="url(#p3d08c25ec5)" d="M 214.31599 153.2925 
L 214.31599 149.045625 
L 220.00599 149.045625 
L 220.00599 153.2925 
L 214.31599 153.2925 
" style="fill:none;stroke:#000000;stroke-linejoin:miter;stroke-width:0.2;"/>
   </g>
   <g id="patch_36">
    <path clip-path="url(#p3d08c25ec5)" d="M 220.00599 149.045625 
L 220.00599 144.79875 
L 225.69599 144.79875 
L 225.69599 149.045625 
L 220.00599 149.045625 
" style="fill:none;stroke:#000000;stroke-linejoin:miter;stroke-width:0.2;"/>
   </g>
   <g id="patch_37">
    <path clip-path="url(#p3d08c25ec5)" d="M 220.00599 153.2925 
L 220.00599 149.045625 
L 225.69599 149.045625 
L 225.69599 153.2925 
L 220.00599 153.2925 
" style="fill:none;stroke:#000000;stroke-linejoin:miter;stroke-width:0.2;"/>
   </g>
   <g id="patch_38">
    <path clip-path="url(#p3d08c25ec5)" d="M 202.935991 157.539375 
L 202.935991 153.2925 
L 208.625991 153.2925 
L 208.625991 157.539375 
L 202.935991 157.539375 
" style="fill:none;stroke:#000000;stroke-linejoin:miter;stroke-width:0.2;"/>
   </g>
   <g id="patch_39">
    <path clip-path="url(#p3d08c25ec5)" d="M 202.935991 161.78625 
L 202.935991 157.539375 
L 208.625991 157.539375 
L 208.625991 161.78625 
L 202.935991 161.78625 
" style="fill:none;stroke:#000000;stroke-linejoin:miter;stroke-width:0.2;"/>
   </g>
   <g id="patch_40">
    <path clip-path="url(#p3d08c25ec5)" d="M 208.625991 157.539375 
L 208.625991 153.2925 
L 214.31599 153.2925 
L 214.31599 157.539375 
L 208.625991 157.539375 
" style="fill:none;stroke:#000000;stroke-linejoin:miter;stroke-width:0.2;"/>
   </g>
   <g id="patch_41">
    <path clip-path="url(#p3d08c25ec5)" d="M 208.625991 161.78625 
L 208.625991 157.539375 
L 214.31599 157.539375 
L 214.31599 161.78625 
L 208.625991 161.78625 
" style="fill:none;stroke:#000000;stroke-linejoin:miter;stroke-width:0.2;"/>
   </g>
   <g id="patch_42">
    <path clip-path="url(#p3d08c25ec5)" d="M 202.935991 170.28 
L 202.935991 161.78625 
L 214.31599 161.78625 
L 214.31599 170.28 
L 202.935991 170.28 
" style="fill:none;stroke:#000000;stroke-linejoin:miter;stroke-width:0.2;"/>
   </g>
   <g id="patch_43">
    <path clip-path="url(#p3d08c25ec5)" d="M 214.31599 161.78625 
L 214.31599 153.2925 
L 225.69599 153.2925 
L 225.69599 161.78625 
L 214.31599 161.78625 
" style="fill:none;stroke:#000000;stroke-linejoin:miter;stroke-width:0.2;"/>
   </g>
   <g id="patch_44">
    <path clip-path="url(#p3d08c25ec5)" d="M 214.31599 170.28 
L 214.31599 161.78625 
L 225.69599 161.78625 
L 225.69599 170.28 
L 214.31599 170.28 
" style="fill:none;stroke:#000000;stroke-linejoin:miter;stroke-width:0.2;"/>
   </g>
   <g id="patch_45">
    <path clip-path="url(#p3d08c25ec5)" d="M 43.615998 238.23 
L 43.615998 170.28 
L 134.655994 170.28 
L 134.655994 238.23 
L 43.615998 238.23 
" style="fill:none;stroke:#000000;stroke-linejoin:miter;stroke-width:0.2;"/>
   </g>
   <g id="patch_46">
    <path clip-path="url(#p3d08c25ec5)" d="M 43.615998 272.205 
L 43.615998 238.23 
L 89.135996 238.23 
L 89.135996 272.205 
L 43.615998 272.205 
" style="fill:none;stroke:#000000;stroke-linejoin:miter;stroke-width:0.2;"/>
   </g>
   <g id="patch_47">
    <path clip-path="url(#p3d08c25ec5)" d="M 43.615998 306.18 
L 43.615998 272.205 
L 89.135996 272.205 
L 89.135996 306.18 
L 43.615998 306.18 
" style="fill:none;stroke:#000000;stroke-linejoin:miter;stroke-width:0.2;"/>
   </g>
   <g id="patch_48">
    <path clip-path="url(#p3d08c25ec5)" d="M 89.135996 272.205 
L 89.135996 238.23 
L 134.655994 238.23 
L 134.655994 272.205 
L 89.135996 272.205 
" style="fill:none;stroke:#000000;stroke-linejoin:miter;stroke-width:0.2;"/>
   </g>
   <g id="patch_49">
    <path clip-path="url(#p3d08c25ec5)" d="M 89.135996 306.18 
L 89.135996 272.205 
L 134.655994 272.205 
L 134.655994 306.18 
L 89.135996 306.18 
" style="fill:none;stroke:#000000;stroke-linejoin:miter;stroke-width:0.2;"/>
   </g>
   <g id="patch_50">
    <path clip-path="url(#p3d08c25ec5)" d="M 134.655994 204.255 
L 134.655994 170.28 
L 180.175992 170.28 
L 180.175992 204.255 
L 134.655994 204.255 
" style="fill:none;stroke:#000000;stroke-linejoin:miter;stroke-width:0.2;"/>
   </g>
   <g id="patch_51">
    <path clip-path="url(#p3d08c25ec5)" d="M 134.655994 238.23 
L 134.655994 204.255 
L 180.175992 204.255 
L 180.175992 238.23 
L 134.655994 238.23 
" style="fill:none;stroke:#000000;stroke-linejoin:miter;stroke-width:0.2;"/>
   </g>
   <g id="patch_52">
    <path clip-path="url(#p3d08c25ec5)" d="M 180.175992 187.2675 
L 180.175992 170.28 
L 202.935991 170.28 
L 202.935991 187.2675 
L 180.175992 187.2675 
" style="fill:none;stroke:#000000;stroke-linejoin:miter;stroke-width:0.2;"/>
   </g>
   <g id="patch_53">
    <path clip-path="url(#p3d08c25ec5)" d="M 180.175992 204.255 
L 180.175992 187.2675 
L 202.935991 187.2675 
L 202.935991 204.255 
L 180.175992 204.255 
" style="fill:none;stroke:#000000;stroke-linejoin:miter;stroke-width:0.2;"/>
   </g>
   <g id="patch_54">
    <path clip-path="url(#p3d08c25ec5)" d="M 202.935991 178.77375 
L 202.935991 170.28 
L 214.31599 170.28 
L 214.31599 178.77375 
L 202.935991 178.77375 
" style="fill:none;stroke:#000000;stroke-linejoin:miter;stroke-width:0.2;"/>
   </g>
   <g id="patch_55">
    <path clip-path="url(#p3d08c25ec5)" d="M 202.935991 187.2675 
L 202.935991 178.77375 
L 214.31599 178.77375 
L 214.31599 187.2675 
L 202.935991 187.2675 
" style="fill:none;stroke:#000000;stroke-linejoin:miter;stroke-width:0.2;"/>
   </g>
   <g id="patch_56">
    <path clip-path="url(#p3d08c25ec5)" d="M 214.31599 178.77375 
L 214.31599 170.28 
L 225.69599 170.28 
L 225.69599 178.77375 
L 214.31599 178.77375 
" style="fill:none;stroke:#000000;stroke-linejoin:miter;stroke-width:0.2;"/>
   </g>
   <g id="patch_57">
    <path clip-path="url(#p3d08c25ec5)" d="M 214.31599 187.2675 
L 214.31599 178.77375 
L 225.69599 178.77375 
L 225.69599 187.2675 
L 214.31599 187.2675 
" style="fill:none;stroke:#000000;stroke-linejoin:miter;stroke-width:0.2;"/>
   </g>
   <g id="patch_58">
    <path clip-path="url(#p3d08c25ec5)" d="M 202.935991 204.255 
L 202.935991 187.2675 
L 225.69599 187.2675 
L 225.69599 204.255 
L 202.935991 204.255 
" style="fill:none;stroke:#000000;stroke-linejoin:miter;stroke-width:0.2;"/>
   </g>
   <g id="patch_59">
    <path clip-path="url(#p3d08c25ec5)" d="M 180.175992 212.74875 
L 180.175992 204.255 
L 191.555992 204.255 
L 191.555992 212.74875 
L 180.175992 212.74875 
" style="fill:none;stroke:#000000;stroke-linejoin:miter;stroke-width:0.2;"/>
   </g>
   <g id="patch_60">
    <path clip-path="url(#p3d08c25ec5)" d="M 180.175992 221.2425 
L 180.175992 212.74875 
L 191.555992 212.74875 
L 191.555992 221.2425 
L 180.175992 221.2425 
" style="fill:none;stroke:#000000;stroke-linejoin:miter;stroke-width:0.2;"/>
   </g>
   <g id="patch_61">
    <path clip-path="url(#p3d08c25ec5)" d="M 191.555992 212.74875 
L 191.555992 204.255 
L 202.935991 204.255 
L 202.935991 212.74875 
L 191.555992 212.74875 
" style="fill:none;stroke:#000000;stroke-linejoin:miter;stroke-width:0.2;"/>
   </g>
   <g id="patch_62">
    <path clip-path="url(#p3d08c25ec5)" d="M 191.555992 221.2425 
L 191.555992 212.74875 
L 202.935991 212.74875 
L 202.935991 221.2425 
L 191.555992 221.2425 
" style="fill:none;stroke:#000000;stroke-linejoin:miter;stroke-width:0.2;"/>
   </g>
   <g id="patch_63">
    <path clip-path="url(#p3d08c25ec5)" d="M 180.175992 229.73625 
L 180.175992 221.2425 
L 191.555992 221.2425 
L 191.555992 229.73625 
L 180.175992 229.73625 
" style="fill:none;stroke:#000000;stroke-linejoin:miter;stroke-width:0.2;"/>
   </g>
   <g id="patch_64">
    <path clip-path="url(#p3d08c25ec5)" d="M 180.175992 238.23 
L 180.175992 229.73625 
L 191.555992 229.73625 
L 191.555992 238.23 
L 180.175992 238.23 
" style="fill:none;stroke:#000000;stroke-linejoin:miter;stroke-width:0.2;"/>
   </g>
   <g id="patch_65">
    <path clip-path="url(#p3d08c25ec5)" d="M 191.555992 229.73625 
L 191.555992 221.2425 
L 202.935991 221.2425 
L 202.935991 229.73625 
L 191.555992 229.73625 
" style="fill:none;stroke:#000000;stroke-linejoin:miter;stroke-width:0.2;"/>
   </g>
   <g id="patch_66">
    <path clip-path="url(#p3d08c25ec5)" d="M 191.555992 238.23 
L 191.555992 229.73625 
L 202.935991 229.73625 
L 202.935991 238.23 
L 191.555992 238.23 
" style="fill:none;stroke:#000000;stroke-linejoin:miter;stroke-width:0.2;"/>
   </g>
   <g id="patch_67">
    <path clip-path="url(#p3d08c25ec5)" d="M 202.935991 212.74875 
L 202.935991 204.255 
L 214.31599 204.255 
L 214.31599 212.74875 
L 202.935991 212.74875 
" style="fill:none;stroke:#000000;stroke-linejoin:miter;stroke-width:0.2;"/>
   </g>
   <g id="patch_68">
    <path clip-path="url(#p3d08c25ec5)" d="M 202.935991 221.2425 
L 202.935991 212.74875 
L 214.31599 212.74875 
L 214.31599 221.2425 
L 202.935991 221.2425 
" style="fill:none;stroke:#000000;stroke-linejoin:miter;stroke-width:0.2;"/>
   </g>
   <g id="patch_69">
    <path clip-path="url(#p3d08c25ec5)" d="M 214.31599 212.74875 
L 214.31599 204.255 
L 225.69599 204.255 
L 225.69599 212.74875 
L 214.31599 212.74875 
" style="fill:none;stroke:#000000;stroke-linejoin:miter;stroke-width:0.2;"/>
   </g>
   <g id="patch_70">
    <path clip-path="url(#p3d08c25ec5)" d="M 214.31599 221.2425 
L 214.31599 212.74875 
L 225.69599 212.74875 
L 225.69599 221.2425 
L 214.31599 221.2425 
" style="fill:none;stroke:#000000;stroke-linejoin:miter;stroke-width:0.2;"/>
   </g>
   <g id="patch_71">
    <path clip-path="url(#p3d08c25ec5)" d="M 202.935991 229.73625 
L 202.935991 221.2425 
L 214.31599 221.2425 
L 214.31599 229.73625 
L 202.935991 229.73625 
" style="fill:none;stroke:#000000;stroke-linejoin:miter;stroke-width:0.2;"/>
   </g>
   <g id="patch_72">
    <path clip-path="url(#p3d08c25ec5)" d="M 202.935991 238.23 
L 202.935991 229.73625 
L 214.31599 229.73625 
L 214.31599 238.23 
L 202.935991 238.23 
" style="fill:none;stroke:#000000;stroke-linejoin:miter;stroke-width:0.2;"/>
   </g>
   <g id="patch_73">
    <path clip-path="url(#p3d08c25ec5)" d="M 214.31599 229.73625 
L 214.31599 221.2425 
L 225.69599 221.2425 
L 225.69599 229.73625 
L 214.31599 229.73625 
" style="fill:none;stroke:#000000;stroke-linejoin:miter;stroke-width:0.2;"/>
   </g>
   <g id="patch_74">
    <path clip-path="url(#p3d08c25ec5)" d="M 214.31599 238.23 
L 214.31599 229.73625 
L 225.69599 229.73625 
L 225.69599 238.23 
L 214.31599 238.23 
" style="fill:none;stroke:#000000;stroke-linejoin:miter;stroke-width:0.2;"/>
   </g>
   <g id="patch_75">
    <path clip-path="url(#p3d08c25ec5)" d="M 134.655994 272.205 
L 134.655994 238.23 
L 180.175992 238.23 
L 180.175992 272.205 
L 134.655994 272.205 
" style="fill:none;stroke:#000000;stroke-linejoin:miter;stroke-width:0.2;"/>
   </g>
   <g id="patch_76">
    <path clip-path="url(#p3d08c25ec5)" d="M 134.655994 306.18 
L 134.655994 272.205 
L 180.175992 272.205 
L 180.175992 306.18 
L 134.655994 306.18 
" style="fill:none;stroke:#000000;stroke-linejoin:miter;stroke-width:0.2;"/>
   </g>
   <g id="patch_77">
    <path clip-path="url(#p3d08c25ec5)" d="M 180.175992 272.205 
L 180.175992 238.23 
L 225.69599 238.23 
L 225.69599 272.205 
L 180.175992 272.205 
" style="fill:none;stroke:#000000;stroke-linejoin:miter;stroke-width:0.2;"/>
   </g>
   <g id="patch_78">
    <path clip-path="url(#p3d08c25ec5)" d="M 180.175992 306.18 
L 180.175992 272.205 
L 225.69599 272.205 
L 225.69599 306.18 
L 180.175992 306.18 
" style="fill:none;stroke:#000000;stroke-linejoin:miter;stroke-width:0.2;"/>
   </g>
   <g id="patch_79">
    <path clip-path="url(#p3d08c25ec5)" d="M 225.69599 68.355 
L 225.69599 34.38 
L 271.215988 34.38 
L 271.215988 68.355 
L 225.69599 68.355 
" style="fill:none;stroke:#000000;stroke-linejoin:miter;stroke-width:0.2;"/>
   </g>
   <g id="patch_80">
    <path clip-path="url(#p3d08c25ec5)" d="M 225.69599 85.3425 
L 225.69599 68.355 
L 248.455989 68.355 
L 248.455989 85.3425 
L 225.69599 85.3425 
" style="fill:none;stroke:#000000;stroke-linejoin:miter;stroke-width:0.2;"/>
   </g>
   <g id="patch_81">
    <path clip-path="url(#p3d08c25ec5)" d="M 225.69599 102.33 
L 225.69599 85.3425 
L 248.455989 85.3425 
L 248.455989 102.33 
L 225.69599 102.33 
" style="fill:none;stroke:#000000;stroke-linejoin:miter;stroke-width:0.2;"/>
   </g>
   <g id="patch_82">
    <path clip-path="url(#p3d08c25ec5)" d="M 248.455989 76.84875 
L 248.455989 68.355 
L 259.835988 68.355 
L 259.835988 76.84875 
L 248.455989 76.84875 
" style="fill:none;stroke:#000000;stroke-linejoin:miter;stroke-width:0.2;"/>
   </g>
   <g id="patch_83">
    <path clip-path="url(#p3d08c25ec5)" d="M 248.455989 85.3425 
L 248.455989 76.84875 
L 259.835988 76.84875 
L 259.835988 85.3425 
L 248.455989 85.3425 
" style="fill:none;stroke:#000000;stroke-linejoin:miter;stroke-width:0.2;"/>
   </g>
   <g id="patch_84">
    <path clip-path="url(#p3d08c25ec5)" d="M 259.835988 76.84875 
L 259.835988 68.355 
L 271.215988 68.355 
L 271.215988 76.84875 
L 259.835988 76.84875 
" style="fill:none;stroke:#000000;stroke-linejoin:miter;stroke-width:0.2;"/>
   </g>
   <g id="patch_85">
    <path clip-path="url(#p3d08c25ec5)" d="M 259.835988 85.3425 
L 259.835988 76.84875 
L 271.215988 76.84875 
L 271.215988 85.3425 
L 259.835988 85.3425 
" style="fill:none;stroke:#000000;stroke-linejoin:miter;stroke-width:0.2;"/>
   </g>
   <g id="patch_86">
    <path clip-path="url(#p3d08c25ec5)" d="M 248.455989 93.83625 
L 248.455989 85.3425 
L 259.835988 85.3425 
L 259.835988 93.83625 
L 248.455989 93.83625 
" style="fill:none;stroke:#000000;stroke-linejoin:miter;stroke-width:0.2;"/>
   </g>
   <g id="patch_87">
    <path clip-path="url(#p3d08c25ec5)" d="M 248.455989 102.33 
L 248.455989 93.83625 
L 259.835988 93.83625 
L 259.835988 102.33 
L 248.455989 102.33 
" style="fill:none;stroke:#000000;stroke-linejoin:miter;stroke-width:0.2;"/>
   </g>
   <g id="patch_88">
    <path clip-path="url(#p3d08c25ec5)" d="M 259.835988 93.83625 
L 259.835988 85.3425 
L 271.215988 85.3425 
L 271.215988 93.83625 
L 259.835988 93.83625 
" style="fill:none;stroke:#000000;stroke-linejoin:miter;stroke-width:0.2;"/>
   </g>
   <g id="patch_89">
    <path clip-path="url(#p3d08c25ec5)" d="M 259.835988 102.33 
L 259.835988 93.83625 
L 271.215988 93.83625 
L 271.215988 102.33 
L 259.835988 102.33 
" style="fill:none;stroke:#000000;stroke-linejoin:miter;stroke-width:0.2;"/>
   </g>
   <g id="patch_90">
    <path clip-path="url(#p3d08c25ec5)" d="M 271.215988 51.3675 
L 271.215988 34.38 
L 293.975987 34.38 
L 293.975987 51.3675 
L 271.215988 51.3675 
" style="fill:none;stroke:#000000;stroke-linejoin:miter;stroke-width:0.2;"/>
   </g>
   <g id="patch_91">
    <path clip-path="url(#p3d08c25ec5)" d="M 271.215988 68.355 
L 271.215988 51.3675 
L 293.975987 51.3675 
L 293.975987 68.355 
L 271.215988 68.355 
" style="fill:none;stroke:#000000;stroke-linejoin:miter;stroke-width:0.2;"/>
   </g>
   <g id="patch_92">
    <path clip-path="url(#p3d08c25ec5)" d="M 293.975987 51.3675 
L 293.975987 34.38 
L 316.735986 34.38 
L 316.735986 51.3675 
L 293.975987 51.3675 
" style="fill:none;stroke:#000000;stroke-linejoin:miter;stroke-width:0.2;"/>
   </g>
   <g id="patch_93">
    <path clip-path="url(#p3d08c25ec5)" d="M 293.975987 68.355 
L 293.975987 51.3675 
L 316.735986 51.3675 
L 316.735986 68.355 
L 293.975987 68.355 
" style="fill:none;stroke:#000000;stroke-linejoin:miter;stroke-width:0.2;"/>
   </g>
   <g id="patch_94">
    <path clip-path="url(#p3d08c25ec5)" d="M 271.215988 76.84875 
L 271.215988 68.355 
L 282.595987 68.355 
L 282.595987 76.84875 
L 271.215988 76.84875 
" style="fill:none;stroke:#000000;stroke-linejoin:miter;stroke-width:0.2;"/>
   </g>
   <g id="patch_95">
    <path clip-path="url(#p3d08c25ec5)" d="M 271.215988 85.3425 
L 271.215988 76.84875 
L 282.595987 76.84875 
L 282.595987 85.3425 
L 271.215988 85.3425 
" style="fill:none;stroke:#000000;stroke-linejoin:miter;stroke-width:0.2;"/>
   </g>
   <g id="patch_96">
    <path clip-path="url(#p3d08c25ec5)" d="M 282.595987 76.84875 
L 282.595987 68.355 
L 293.975987 68.355 
L 293.975987 76.84875 
L 282.595987 76.84875 
" style="fill:none;stroke:#000000;stroke-linejoin:miter;stroke-width:0.2;"/>
   </g>
   <g id="patch_97">
    <path clip-path="url(#p3d08c25ec5)" d="M 282.595987 85.3425 
L 282.595987 76.84875 
L 293.975987 76.84875 
L 293.975987 85.3425 
L 282.595987 85.3425 
" style="fill:none;stroke:#000000;stroke-linejoin:miter;stroke-width:0.2;"/>
   </g>
   <g id="patch_98">
    <path clip-path="url(#p3d08c25ec5)" d="M 271.215988 102.33 
L 271.215988 85.3425 
L 293.975987 85.3425 
L 293.975987 102.33 
L 271.215988 102.33 
" style="fill:none;stroke:#000000;stroke-linejoin:miter;stroke-width:0.2;"/>
   </g>
   <g id="patch_99">
    <path clip-path="url(#p3d08c25ec5)" d="M 293.975987 85.3425 
L 293.975987 68.355 
L 316.735986 68.355 
L 316.735986 85.3425 
L 293.975987 85.3425 
" style="fill:none;stroke:#000000;stroke-linejoin:miter;stroke-width:0.2;"/>
   </g>
   <g id="patch_100">
    <path clip-path="url(#p3d08c25ec5)" d="M 293.975987 102.33 
L 293.975987 85.3425 
L 316.735986 85.3425 
L 316.735986 102.33 
L 293.975987 102.33 
" style="fill:none;stroke:#000000;stroke-linejoin:miter;stroke-width:0.2;"/>
   </g>
   <g id="patch_101">
    <path clip-path="url(#p3d08c25ec5)" d="M 225.69599 110.82375 
L 225.69599 102.33 
L 237.075989 102.33 
L 237.075989 110.82375 
L 225.69599 110.82375 
" style="fill:none;stroke:#000000;stroke-linejoin:miter;stroke-width:0.2;"/>
   </g>
   <g id="patch_102">
    <path clip-path="url(#p3d08c25ec5)" d="M 225.69599 119.3175 
L 225.69599 110.82375 
L 237.075989 110.82375 
L 237.075989 119.3175 
L 225.69599 119.3175 
" style="fill:none;stroke:#000000;stroke-linejoin:miter;stroke-width:0.2;"/>
   </g>
   <g id="patch_103">
    <path clip-path="url(#p3d08c25ec5)" d="M 237.075989 110.82375 
L 237.075989 102.33 
L 248.455989 102.33 
L 248.455989 110.82375 
L 237.075989 110.82375 
" style="fill:none;stroke:#000000;stroke-linejoin:miter;stroke-width:0.2;"/>
   </g>
   <g id="patch_104">
    <path clip-path="url(#p3d08c25ec5)" d="M 237.075989 119.3175 
L 237.075989 110.82375 
L 248.455989 110.82375 
L 248.455989 119.3175 
L 237.075989 119.3175 
" style="fill:none;stroke:#000000;stroke-linejoin:miter;stroke-width:0.2;"/>
   </g>
   <g id="patch_105">
    <path clip-path="url(#p3d08c25ec5)" d="M 225.69599 127.81125 
L 225.69599 119.3175 
L 237.075989 119.3175 
L 237.075989 127.81125 
L 225.69599 127.81125 
" style="fill:none;stroke:#000000;stroke-linejoin:miter;stroke-width:0.2;"/>
   </g>
   <g id="patch_106">
    <path clip-path="url(#p3d08c25ec5)" d="M 225.69599 132.058125 
L 225.69599 127.81125 
L 231.38599 127.81125 
L 231.38599 132.058125 
L 225.69599 132.058125 
" style="fill:none;stroke:#000000;stroke-linejoin:miter;stroke-width:0.2;"/>
   </g>
   <g id="patch_107">
    <path clip-path="url(#p3d08c25ec5)" d="M 225.69599 136.305 
L 225.69599 132.058125 
L 231.38599 132.058125 
L 231.38599 136.305 
L 225.69599 136.305 
" style="fill:none;stroke:#000000;stroke-linejoin:miter;stroke-width:0.2;"/>
   </g>
   <g id="patch_108">
    <path clip-path="url(#p3d08c25ec5)" d="M 231.38599 132.058125 
L 231.38599 127.81125 
L 237.075989 127.81125 
L 237.075989 132.058125 
L 231.38599 132.058125 
" style="fill:none;stroke:#000000;stroke-linejoin:miter;stroke-width:0.2;"/>
   </g>
   <g id="patch_109">
    <path clip-path="url(#p3d08c25ec5)" d="M 231.38599 136.305 
L 231.38599 132.058125 
L 237.075989 132.058125 
L 237.075989 136.305 
L 231.38599 136.305 
" style="fill:none;stroke:#000000;stroke-linejoin:miter;stroke-width:0.2;"/>
   </g>
   <g id="patch_110">
    <path clip-path="url(#p3d08c25ec5)" d="M 237.075989 127.81125 
L 237.075989 119.3175 
L 248.455989 119.3175 
L 248.455989 127.81125 
L 237.075989 127.81125 
" style="fill:none;stroke:#000000;stroke-linejoin:miter;stroke-width:0.2;"/>
   </g>
   <g id="patch_111">
    <path clip-path="url(#p3d08c25ec5)" d="M 237.075989 136.305 
L 237.075989 127.81125 
L 248.455989 127.81125 
L 248.455989 136.305 
L 237.075989 136.305 
" style="fill:none;stroke:#000000;stroke-linejoin:miter;stroke-width:0.2;"/>
   </g>
   <g id="patch_112">
    <path clip-path="url(#p3d08c25ec5)" d="M 248.455989 119.3175 
L 248.455989 102.33 
L 271.215988 102.33 
L 271.215988 119.3175 
L 248.455989 119.3175 
" style="fill:none;stroke:#000000;stroke-linejoin:miter;stroke-width:0.2;"/>
   </g>
   <g id="patch_113">
    <path clip-path="url(#p3d08c25ec5)" d="M 248.455989 127.81125 
L 248.455989 119.3175 
L 259.835988 119.3175 
L 259.835988 127.81125 
L 248.455989 127.81125 
" style="fill:none;stroke:#000000;stroke-linejoin:miter;stroke-width:0.2;"/>
   </g>
   <g id="patch_114">
    <path clip-path="url(#p3d08c25ec5)" d="M 248.455989 136.305 
L 248.455989 127.81125 
L 259.835988 127.81125 
L 259.835988 136.305 
L 248.455989 136.305 
" style="fill:none;stroke:#000000;stroke-linejoin:miter;stroke-width:0.2;"/>
   </g>
   <g id="patch_115">
    <path clip-path="url(#p3d08c25ec5)" d="M 259.835988 127.81125 
L 259.835988 119.3175 
L 271.215988 119.3175 
L 271.215988 127.81125 
L 259.835988 127.81125 
" style="fill:none;stroke:#000000;stroke-linejoin:miter;stroke-width:0.2;"/>
   </g>
   <g id="patch_116">
    <path clip-path="url(#p3d08c25ec5)" d="M 259.835988 136.305 
L 259.835988 127.81125 
L 271.215988 127.81125 
L 271.215988 136.305 
L 259.835988 136.305 
" style="fill:none;stroke:#000000;stroke-linejoin:miter;stroke-width:0.2;"/>
   </g>
   <g id="patch_117">
    <path clip-path="url(#p3d08c25ec5)" d="M 225.69599 144.79875 
L 225.69599 136.305 
L 237.075989 136.305 
L 237.075989 144.79875 
L 225.69599 144.79875 
" style="fill:none;stroke:#000000;stroke-linejoin:miter;stroke-width:0.2;"/>
   </g>
   <g id="patch_118">
    <path clip-path="url(#p3d08c25ec5)" d="M 225.69599 153.2925 
L 225.69599 144.79875 
L 237.075989 144.79875 
L 237.075989 153.2925 
L 225.69599 153.2925 
" style="fill:none;stroke:#000000;stroke-linejoin:miter;stroke-width:0.2;"/>
   </g>
   <g id="patch_119">
    <path clip-path="url(#p3d08c25ec5)" d="M 237.075989 144.79875 
L 237.075989 136.305 
L 248.455989 136.305 
L 248.455989 144.79875 
L 237.075989 144.79875 
" style="fill:none;stroke:#000000;stroke-linejoin:miter;stroke-width:0.2;"/>
   </g>
   <g id="patch_120">
    <path clip-path="url(#p3d08c25ec5)" d="M 237.075989 153.2925 
L 237.075989 144.79875 
L 248.455989 144.79875 
L 248.455989 153.2925 
L 237.075989 153.2925 
" style="fill:none;stroke:#000000;stroke-linejoin:miter;stroke-width:0.2;"/>
   </g>
   <g id="patch_121">
    <path clip-path="url(#p3d08c25ec5)" d="M 225.69599 161.78625 
L 225.69599 153.2925 
L 237.075989 153.2925 
L 237.075989 161.78625 
L 225.69599 161.78625 
" style="fill:none;stroke:#000000;stroke-linejoin:miter;stroke-width:0.2;"/>
   </g>
   <g id="patch_122">
    <path clip-path="url(#p3d08c25ec5)" d="M 225.69599 170.28 
L 225.69599 161.78625 
L 237.075989 161.78625 
L 237.075989 170.28 
L 225.69599 170.28 
" style="fill:none;stroke:#000000;stroke-linejoin:miter;stroke-width:0.2;"/>
   </g>
   <g id="patch_123">
    <path clip-path="url(#p3d08c25ec5)" d="M 237.075989 157.539375 
L 237.075989 153.2925 
L 242.765989 153.2925 
L 242.765989 157.539375 
L 237.075989 157.539375 
" style="fill:none;stroke:#000000;stroke-linejoin:miter;stroke-width:0.2;"/>
   </g>
   <g id="patch_124">
    <path clip-path="url(#p3d08c25ec5)" d="M 237.075989 161.78625 
L 237.075989 157.539375 
L 242.765989 157.539375 
L 242.765989 161.78625 
L 237.075989 161.78625 
" style="fill:none;stroke:#000000;stroke-linejoin:miter;stroke-width:0.2;"/>
   </g>
   <g id="patch_125">
    <path clip-path="url(#p3d08c25ec5)" d="M 242.765989 157.539375 
L 242.765989 153.2925 
L 248.455989 153.2925 
L 248.455989 157.539375 
L 242.765989 157.539375 
" style="fill:none;stroke:#000000;stroke-linejoin:miter;stroke-width:0.2;"/>
   </g>
   <g id="patch_126">
    <path clip-path="url(#p3d08c25ec5)" d="M 242.765989 161.78625 
L 242.765989 157.539375 
L 248.455989 157.539375 
L 248.455989 161.78625 
L 242.765989 161.78625 
" style="fill:none;stroke:#000000;stroke-linejoin:miter;stroke-width:0.2;"/>
   </g>
   <g id="patch_127">
    <path clip-path="url(#p3d08c25ec5)" d="M 237.075989 166.033125 
L 237.075989 161.78625 
L 242.765989 161.78625 
L 242.765989 166.033125 
L 237.075989 166.033125 
" style="fill:none;stroke:#000000;stroke-linejoin:miter;stroke-width:0.2;"/>
   </g>
   <g id="patch_128">
    <path clip-path="url(#p3d08c25ec5)" d="M 237.075989 170.28 
L 237.075989 166.033125 
L 242.765989 166.033125 
L 242.765989 170.28 
L 237.075989 170.28 
" style="fill:none;stroke:#000000;stroke-linejoin:miter;stroke-width:0.2;"/>
   </g>
   <g id="patch_129">
    <path clip-path="url(#p3d08c25ec5)" d="M 242.765989 166.033125 
L 242.765989 161.78625 
L 248.455989 161.78625 
L 248.455989 166.033125 
L 242.765989 166.033125 
" style="fill:none;stroke:#000000;stroke-linejoin:miter;stroke-width:0.2;"/>
   </g>
   <g id="patch_130">
    <path clip-path="url(#p3d08c25ec5)" d="M 242.765989 170.28 
L 242.765989 166.033125 
L 248.455989 166.033125 
L 248.455989 170.28 
L 242.765989 170.28 
" style="fill:none;stroke:#000000;stroke-linejoin:miter;stroke-width:0.2;"/>
   </g>
   <g id="patch_131">
    <path clip-path="url(#p3d08c25ec5)" d="M 248.455989 140.551875 
L 248.455989 136.305 
L 254.145989 136.305 
L 254.145989 140.551875 
L 248.455989 140.551875 
" style="fill:none;stroke:#000000;stroke-linejoin:miter;stroke-width:0.2;"/>
   </g>
   <g id="patch_132">
    <path clip-path="url(#p3d08c25ec5)" d="M 248.455989 144.79875 
L 248.455989 140.551875 
L 254.145989 140.551875 
L 254.145989 144.79875 
L 248.455989 144.79875 
" style="fill:none;stroke:#000000;stroke-linejoin:miter;stroke-width:0.2;"/>
   </g>
   <g id="patch_133">
    <path clip-path="url(#p3d08c25ec5)" d="M 254.145989 140.551875 
L 254.145989 136.305 
L 259.835988 136.305 
L 259.835988 140.551875 
L 254.145989 140.551875 
" style="fill:none;stroke:#000000;stroke-linejoin:miter;stroke-width:0.2;"/>
   </g>
   <g id="patch_134">
    <path clip-path="url(#p3d08c25ec5)" d="M 254.145989 144.79875 
L 254.145989 140.551875 
L 259.835988 140.551875 
L 259.835988 144.79875 
L 254.145989 144.79875 
" style="fill:none;stroke:#000000;stroke-linejoin:miter;stroke-width:0.2;"/>
   </g>
   <g id="patch_135">
    <path clip-path="url(#p3d08c25ec5)" d="M 248.455989 153.2925 
L 248.455989 144.79875 
L 259.835988 144.79875 
L 259.835988 153.2925 
L 248.455989 153.2925 
" style="fill:none;stroke:#000000;stroke-linejoin:miter;stroke-width:0.2;"/>
   </g>
   <g id="patch_136">
    <path clip-path="url(#p3d08c25ec5)" d="M 259.835988 144.79875 
L 259.835988 136.305 
L 271.215988 136.305 
L 271.215988 144.79875 
L 259.835988 144.79875 
" style="fill:none;stroke:#000000;stroke-linejoin:miter;stroke-width:0.2;"/>
   </g>
   <g id="patch_137">
    <path clip-path="url(#p3d08c25ec5)" d="M 259.835988 153.2925 
L 259.835988 144.79875 
L 271.215988 144.79875 
L 271.215988 153.2925 
L 259.835988 153.2925 
" style="fill:none;stroke:#000000;stroke-linejoin:miter;stroke-width:0.2;"/>
   </g>
   <g id="patch_138">
    <path clip-path="url(#p3d08c25ec5)" d="M 248.455989 161.78625 
L 248.455989 153.2925 
L 259.835988 153.2925 
L 259.835988 161.78625 
L 248.455989 161.78625 
" style="fill:none;stroke:#000000;stroke-linejoin:miter;stroke-width:0.2;"/>
   </g>
   <g id="patch_139">
    <path clip-path="url(#p3d08c25ec5)" d="M 248.455989 170.28 
L 248.455989 161.78625 
L 259.835988 161.78625 
L 259.835988 170.28 
L 248.455989 170.28 
" style="fill:none;stroke:#000000;stroke-linejoin:miter;stroke-width:0.2;"/>
   </g>
   <g id="patch_140">
    <path clip-path="url(#p3d08c25ec5)" d="M 259.835988 161.78625 
L 259.835988 153.2925 
L 271.215988 153.2925 
L 271.215988 161.78625 
L 259.835988 161.78625 
" style="fill:none;stroke:#000000;stroke-linejoin:miter;stroke-width:0.2;"/>
   </g>
   <g id="patch_141">
    <path clip-path="url(#p3d08c25ec5)" d="M 259.835988 170.28 
L 259.835988 161.78625 
L 271.215988 161.78625 
L 271.215988 170.28 
L 259.835988 170.28 
" style="fill:none;stroke:#000000;stroke-linejoin:miter;stroke-width:0.2;"/>
   </g>
   <g id="patch_142">
    <path clip-path="url(#p3d08c25ec5)" d="M 271.215988 119.3175 
L 271.215988 102.33 
L 293.975987 102.33 
L 293.975987 119.3175 
L 271.215988 119.3175 
" style="fill:none;stroke:#000000;stroke-linejoin:miter;stroke-width:0.2;"/>
   </g>
   <g id="patch_143">
    <path clip-path="url(#p3d08c25ec5)" d="M 271.215988 136.305 
L 271.215988 119.3175 
L 293.975987 119.3175 
L 293.975987 136.305 
L 271.215988 136.305 
" style="fill:none;stroke:#000000;stroke-linejoin:miter;stroke-width:0.2;"/>
   </g>
   <g id="patch_144">
    <path clip-path="url(#p3d08c25ec5)" d="M 293.975987 119.3175 
L 293.975987 102.33 
L 316.735986 102.33 
L 316.735986 119.3175 
L 293.975987 119.3175 
" style="fill:none;stroke:#000000;stroke-linejoin:miter;stroke-width:0.2;"/>
   </g>
   <g id="patch_145">
    <path clip-path="url(#p3d08c25ec5)" d="M 293.975987 136.305 
L 293.975987 119.3175 
L 316.735986 119.3175 
L 316.735986 136.305 
L 293.975987 136.305 
" style="fill:none;stroke:#000000;stroke-linejoin:miter;stroke-width:0.2;"/>
   </g>
   <g id="patch_146">
    <path clip-path="url(#p3d08c25ec5)" d="M 271.215988 144.79875 
L 271.215988 136.305 
L 282.595987 136.305 
L 282.595987 144.79875 
L 271.215988 144.79875 
" style="fill:none;stroke:#000000;stroke-linejoin:miter;stroke-width:0.2;"/>
   </g>
   <g id="patch_147">
    <path clip-path="url(#p3d08c25ec5)" d="M 271.215988 153.2925 
L 271.215988 144.79875 
L 282.595987 144.79875 
L 282.595987 153.2925 
L 271.215988 153.2925 
" style="fill:none;stroke:#000000;stroke-linejoin:miter;stroke-width:0.2;"/>
   </g>
   <g id="patch_148">
    <path clip-path="url(#p3d08c25ec5)" d="M 282.595987 144.79875 
L 282.595987 136.305 
L 293.975987 136.305 
L 293.975987 144.79875 
L 282.595987 144.79875 
" style="fill:none;stroke:#000000;stroke-linejoin:miter;stroke-width:0.2;"/>
   </g>
   <g id="patch_149">
    <path clip-path="url(#p3d08c25ec5)" d="M 282.595987 153.2925 
L 282.595987 144.79875 
L 293.975987 144.79875 
L 293.975987 153.2925 
L 282.595987 153.2925 
" style="fill:none;stroke:#000000;stroke-linejoin:miter;stroke-width:0.2;"/>
   </g>
   <g id="patch_150">
    <path clip-path="url(#p3d08c25ec5)" d="M 271.215988 170.28 
L 271.215988 153.2925 
L 293.975987 153.2925 
L 293.975987 170.28 
L 271.215988 170.28 
" style="fill:none;stroke:#000000;stroke-linejoin:miter;stroke-width:0.2;"/>
   </g>
   <g id="patch_151">
    <path clip-path="url(#p3d08c25ec5)" d="M 293.975987 144.79875 
L 293.975987 136.305 
L 305.355986 136.305 
L 305.355986 144.79875 
L 293.975987 144.79875 
" style="fill:none;stroke:#000000;stroke-linejoin:miter;stroke-width:0.2;"/>
   </g>
   <g id="patch_152">
    <path clip-path="url(#p3d08c25ec5)" d="M 293.975987 153.2925 
L 293.975987 144.79875 
L 305.355986 144.79875 
L 305.355986 153.2925 
L 293.975987 153.2925 
" style="fill:none;stroke:#000000;stroke-linejoin:miter;stroke-width:0.2;"/>
   </g>
   <g id="patch_153">
    <path clip-path="url(#p3d08c25ec5)" d="M 305.355986 144.79875 
L 305.355986 136.305 
L 316.735986 136.305 
L 316.735986 144.79875 
L 305.355986 144.79875 
" style="fill:none;stroke:#000000;stroke-linejoin:miter;stroke-width:0.2;"/>
   </g>
   <g id="patch_154">
    <path clip-path="url(#p3d08c25ec5)" d="M 305.355986 153.2925 
L 305.355986 144.79875 
L 316.735986 144.79875 
L 316.735986 153.2925 
L 305.355986 153.2925 
" style="fill:none;stroke:#000000;stroke-linejoin:miter;stroke-width:0.2;"/>
   </g>
   <g id="patch_155">
    <path clip-path="url(#p3d08c25ec5)" d="M 293.975987 161.78625 
L 293.975987 153.2925 
L 305.355986 153.2925 
L 305.355986 161.78625 
L 293.975987 161.78625 
" style="fill:none;stroke:#000000;stroke-linejoin:miter;stroke-width:0.2;"/>
   </g>
   <g id="patch_156">
    <path clip-path="url(#p3d08c25ec5)" d="M 293.975987 170.28 
L 293.975987 161.78625 
L 305.355986 161.78625 
L 305.355986 170.28 
L 293.975987 170.28 
" style="fill:none;stroke:#000000;stroke-linejoin:miter;stroke-width:0.2;"/>
   </g>
   <g id="patch_157">
    <path clip-path="url(#p3d08c25ec5)" d="M 305.355986 161.78625 
L 305.355986 153.2925 
L 316.735986 153.2925 
L 316.735986 161.78625 
L 305.355986 161.78625 
" style="fill:none;stroke:#000000;stroke-linejoin:miter;stroke-width:0.2;"/>
   </g>
   <g id="patch_158">
    <path clip-path="url(#p3d08c25ec5)" d="M 305.355986 170.28 
L 305.355986 161.78625 
L 316.735986 161.78625 
L 316.735986 170.28 
L 305.355986 170.28 
" style="fill:none;stroke:#000000;stroke-linejoin:miter;stroke-width:0.2;"/>
   </g>
   <g id="patch_159">
    <path clip-path="url(#p3d08c25ec5)" d="M 316.735986 102.33 
L 316.735986 34.38 
L 407.775982 34.38 
L 407.775982 102.33 
L 316.735986 102.33 
" style="fill:none;stroke:#000000;stroke-linejoin:miter;stroke-width:0.2;"/>
   </g>
   <g id="patch_160">
    <path clip-path="url(#p3d08c25ec5)" d="M 316.735986 119.3175 
L 316.735986 102.33 
L 339.495985 102.33 
L 339.495985 119.3175 
L 316.735986 119.3175 
" style="fill:none;stroke:#000000;stroke-linejoin:miter;stroke-width:0.2;"/>
   </g>
   <g id="patch_161">
    <path clip-path="url(#p3d08c25ec5)" d="M 316.735986 127.81125 
L 316.735986 119.3175 
L 328.115985 119.3175 
L 328.115985 127.81125 
L 316.735986 127.81125 
" style="fill:none;stroke:#000000;stroke-linejoin:miter;stroke-width:0.2;"/>
   </g>
   <g id="patch_162">
    <path clip-path="url(#p3d08c25ec5)" d="M 316.735986 132.058125 
L 316.735986 127.81125 
L 322.425986 127.81125 
L 322.425986 132.058125 
L 316.735986 132.058125 
" style="fill:none;stroke:#000000;stroke-linejoin:miter;stroke-width:0.2;"/>
   </g>
   <g id="patch_163">
    <path clip-path="url(#p3d08c25ec5)" d="M 316.735986 136.305 
L 316.735986 132.058125 
L 322.425986 132.058125 
L 322.425986 136.305 
L 316.735986 136.305 
" style="fill:none;stroke:#000000;stroke-linejoin:miter;stroke-width:0.2;"/>
   </g>
   <g id="patch_164">
    <path clip-path="url(#p3d08c25ec5)" d="M 322.425986 132.058125 
L 322.425986 127.81125 
L 328.115985 127.81125 
L 328.115985 132.058125 
L 322.425986 132.058125 
" style="fill:none;stroke:#000000;stroke-linejoin:miter;stroke-width:0.2;"/>
   </g>
   <g id="patch_165">
    <path clip-path="url(#p3d08c25ec5)" d="M 322.425986 136.305 
L 322.425986 132.058125 
L 328.115985 132.058125 
L 328.115985 136.305 
L 322.425986 136.305 
" style="fill:none;stroke:#000000;stroke-linejoin:miter;stroke-width:0.2;"/>
   </g>
   <g id="patch_166">
    <path clip-path="url(#p3d08c25ec5)" d="M 328.115985 127.81125 
L 328.115985 119.3175 
L 339.495985 119.3175 
L 339.495985 127.81125 
L 328.115985 127.81125 
" style="fill:none;stroke:#000000;stroke-linejoin:miter;stroke-width:0.2;"/>
   </g>
   <g id="patch_167">
    <path clip-path="url(#p3d08c25ec5)" d="M 328.115985 132.058125 
L 328.115985 127.81125 
L 333.805985 127.81125 
L 333.805985 132.058125 
L 328.115985 132.058125 
" style="fill:none;stroke:#000000;stroke-linejoin:miter;stroke-width:0.2;"/>
   </g>
   <g id="patch_168">
    <path clip-path="url(#p3d08c25ec5)" d="M 328.115985 136.305 
L 328.115985 132.058125 
L 333.805985 132.058125 
L 333.805985 136.305 
L 328.115985 136.305 
" style="fill:none;stroke:#000000;stroke-linejoin:miter;stroke-width:0.2;"/>
   </g>
   <g id="patch_169">
    <path clip-path="url(#p3d08c25ec5)" d="M 333.805985 132.058125 
L 333.805985 127.81125 
L 339.495985 127.81125 
L 339.495985 132.058125 
L 333.805985 132.058125 
" style="fill:none;stroke:#000000;stroke-linejoin:miter;stroke-width:0.2;"/>
   </g>
   <g id="patch_170">
    <path clip-path="url(#p3d08c25ec5)" d="M 333.805985 136.305 
L 333.805985 132.058125 
L 339.495985 132.058125 
L 339.495985 136.305 
L 333.805985 136.305 
" style="fill:none;stroke:#000000;stroke-linejoin:miter;stroke-width:0.2;"/>
   </g>
   <g id="patch_171">
    <path clip-path="url(#p3d08c25ec5)" d="M 339.495985 119.3175 
L 339.495985 102.33 
L 362.255984 102.33 
L 362.255984 119.3175 
L 339.495985 119.3175 
" style="fill:none;stroke:#000000;stroke-linejoin:miter;stroke-width:0.2;"/>
   </g>
   <g id="patch_172">
    <path clip-path="url(#p3d08c25ec5)" d="M 339.495985 127.81125 
L 339.495985 119.3175 
L 350.875984 119.3175 
L 350.875984 127.81125 
L 339.495985 127.81125 
" style="fill:none;stroke:#000000;stroke-linejoin:miter;stroke-width:0.2;"/>
   </g>
   <g id="patch_173">
    <path clip-path="url(#p3d08c25ec5)" d="M 339.495985 136.305 
L 339.495985 127.81125 
L 350.875984 127.81125 
L 350.875984 136.305 
L 339.495985 136.305 
" style="fill:none;stroke:#000000;stroke-linejoin:miter;stroke-width:0.2;"/>
   </g>
   <g id="patch_174">
    <path clip-path="url(#p3d08c25ec5)" d="M 350.875984 127.81125 
L 350.875984 119.3175 
L 362.255984 119.3175 
L 362.255984 127.81125 
L 350.875984 127.81125 
" style="fill:none;stroke:#000000;stroke-linejoin:miter;stroke-width:0.2;"/>
   </g>
   <g id="patch_175">
    <path clip-path="url(#p3d08c25ec5)" d="M 350.875984 136.305 
L 350.875984 127.81125 
L 362.255984 127.81125 
L 362.255984 136.305 
L 350.875984 136.305 
" style="fill:none;stroke:#000000;stroke-linejoin:miter;stroke-width:0.2;"/>
   </g>
   <g id="patch_176">
    <path clip-path="url(#p3d08c25ec5)" d="M 316.735986 140.551875 
L 316.735986 136.305 
L 322.425986 136.305 
L 322.425986 140.551875 
L 316.735986 140.551875 
" style="fill:none;stroke:#000000;stroke-linejoin:miter;stroke-width:0.2;"/>
   </g>
   <g id="patch_177">
    <path clip-path="url(#p3d08c25ec5)" d="M 316.735986 144.79875 
L 316.735986 140.551875 
L 322.425986 140.551875 
L 322.425986 144.79875 
L 316.735986 144.79875 
" style="fill:none;stroke:#000000;stroke-linejoin:miter;stroke-width:0.2;"/>
   </g>
   <g id="patch_178">
    <path clip-path="url(#p3d08c25ec5)" d="M 322.425986 140.551875 
L 322.425986 136.305 
L 328.115985 136.305 
L 328.115985 140.551875 
L 322.425986 140.551875 
" style="fill:none;stroke:#000000;stroke-linejoin:miter;stroke-width:0.2;"/>
   </g>
   <g id="patch_179">
    <path clip-path="url(#p3d08c25ec5)" d="M 322.425986 144.79875 
L 322.425986 140.551875 
L 328.115985 140.551875 
L 328.115985 144.79875 
L 322.425986 144.79875 
" style="fill:none;stroke:#000000;stroke-linejoin:miter;stroke-width:0.2;"/>
   </g>
   <g id="patch_180">
    <path clip-path="url(#p3d08c25ec5)" d="M 316.735986 153.2925 
L 316.735986 144.79875 
L 328.115985 144.79875 
L 328.115985 153.2925 
L 316.735986 153.2925 
" style="fill:none;stroke:#000000;stroke-linejoin:miter;stroke-width:0.2;"/>
   </g>
   <g id="patch_181">
    <path clip-path="url(#p3d08c25ec5)" d="M 328.115985 144.79875 
L 328.115985 136.305 
L 339.495985 136.305 
L 339.495985 144.79875 
L 328.115985 144.79875 
" style="fill:none;stroke:#000000;stroke-linejoin:miter;stroke-width:0.2;"/>
   </g>
   <g id="patch_182">
    <path clip-path="url(#p3d08c25ec5)" d="M 328.115985 153.2925 
L 328.115985 144.79875 
L 339.495985 144.79875 
L 339.495985 153.2925 
L 328.115985 153.2925 
" style="fill:none;stroke:#000000;stroke-linejoin:miter;stroke-width:0.2;"/>
   </g>
   <g id="patch_183">
    <path clip-path="url(#p3d08c25ec5)" d="M 316.735986 170.28 
L 316.735986 153.2925 
L 339.495985 153.2925 
L 339.495985 170.28 
L 316.735986 170.28 
" style="fill:none;stroke:#000000;stroke-linejoin:miter;stroke-width:0.2;"/>
   </g>
   <g id="patch_184">
    <path clip-path="url(#p3d08c25ec5)" d="M 339.495985 153.2925 
L 339.495985 136.305 
L 362.255984 136.305 
L 362.255984 153.2925 
L 339.495985 153.2925 
" style="fill:none;stroke:#000000;stroke-linejoin:miter;stroke-width:0.2;"/>
   </g>
   <g id="patch_185">
    <path clip-path="url(#p3d08c25ec5)" d="M 339.495985 170.28 
L 339.495985 153.2925 
L 362.255984 153.2925 
L 362.255984 170.28 
L 339.495985 170.28 
" style="fill:none;stroke:#000000;stroke-linejoin:miter;stroke-width:0.2;"/>
   </g>
   <g id="patch_186">
    <path clip-path="url(#p3d08c25ec5)" d="M 362.255984 136.305 
L 362.255984 102.33 
L 407.775982 102.33 
L 407.775982 136.305 
L 362.255984 136.305 
" style="fill:none;stroke:#000000;stroke-linejoin:miter;stroke-width:0.2;"/>
   </g>
   <g id="patch_187">
    <path clip-path="url(#p3d08c25ec5)" d="M 362.255984 153.2925 
L 362.255984 136.305 
L 385.015983 136.305 
L 385.015983 153.2925 
L 362.255984 153.2925 
" style="fill:none;stroke:#000000;stroke-linejoin:miter;stroke-width:0.2;"/>
   </g>
   <g id="patch_188">
    <path clip-path="url(#p3d08c25ec5)" d="M 362.255984 170.28 
L 362.255984 153.2925 
L 385.015983 153.2925 
L 385.015983 170.28 
L 362.255984 170.28 
" style="fill:none;stroke:#000000;stroke-linejoin:miter;stroke-width:0.2;"/>
   </g>
   <g id="patch_189">
    <path clip-path="url(#p3d08c25ec5)" d="M 385.015983 153.2925 
L 385.015983 136.305 
L 407.775982 136.305 
L 407.775982 153.2925 
L 385.015983 153.2925 
" style="fill:none;stroke:#000000;stroke-linejoin:miter;stroke-width:0.2;"/>
   </g>
   <g id="patch_190">
    <path clip-path="url(#p3d08c25ec5)" d="M 385.015983 170.28 
L 385.015983 153.2925 
L 407.775982 153.2925 
L 407.775982 170.28 
L 385.015983 170.28 
" style="fill:none;stroke:#000000;stroke-linejoin:miter;stroke-width:0.2;"/>
   </g>
   <g id="patch_191">
    <path clip-path="url(#p3d08c25ec5)" d="M 225.69599 178.77375 
L 225.69599 170.28 
L 237.075989 170.28 
L 237.075989 178.77375 
L 225.69599 178.77375 
" style="fill:none;stroke:#000000;stroke-linejoin:miter;stroke-width:0.2;"/>
   </g>
   <g id="patch_192">
    <path clip-path="url(#p3d08c25ec5)" d="M 225.69599 187.2675 
L 225.69599 178.77375 
L 237.075989 178.77375 
L 237.075989 187.2675 
L 225.69599 187.2675 
" style="fill:none;stroke:#000000;stroke-linejoin:miter;stroke-width:0.2;"/>
   </g>
   <g id="patch_193">
    <path clip-path="url(#p3d08c25ec5)" d="M 237.075989 178.77375 
L 237.075989 170.28 
L 248.455989 170.28 
L 248.455989 178.77375 
L 237.075989 178.77375 
" style="fill:none;stroke:#000000;stroke-linejoin:miter;stroke-width:0.2;"/>
   </g>
   <g id="patch_194">
    <path clip-path="url(#p3d08c25ec5)" d="M 237.075989 187.2675 
L 237.075989 178.77375 
L 248.455989 178.77375 
L 248.455989 187.2675 
L 237.075989 187.2675 
" style="fill:none;stroke:#000000;stroke-linejoin:miter;stroke-width:0.2;"/>
   </g>
   <g id="patch_195">
    <path clip-path="url(#p3d08c25ec5)" d="M 225.69599 195.76125 
L 225.69599 187.2675 
L 237.075989 187.2675 
L 237.075989 195.76125 
L 225.69599 195.76125 
" style="fill:none;stroke:#000000;stroke-linejoin:miter;stroke-width:0.2;"/>
   </g>
   <g id="patch_196">
    <path clip-path="url(#p3d08c25ec5)" d="M 225.69599 204.255 
L 225.69599 195.76125 
L 237.075989 195.76125 
L 237.075989 204.255 
L 225.69599 204.255 
" style="fill:none;stroke:#000000;stroke-linejoin:miter;stroke-width:0.2;"/>
   </g>
   <g id="patch_197">
    <path clip-path="url(#p3d08c25ec5)" d="M 237.075989 195.76125 
L 237.075989 187.2675 
L 248.455989 187.2675 
L 248.455989 195.76125 
L 237.075989 195.76125 
" style="fill:none;stroke:#000000;stroke-linejoin:miter;stroke-width:0.2;"/>
   </g>
   <g id="patch_198">
    <path clip-path="url(#p3d08c25ec5)" d="M 237.075989 204.255 
L 237.075989 195.76125 
L 248.455989 195.76125 
L 248.455989 204.255 
L 237.075989 204.255 
" style="fill:none;stroke:#000000;stroke-linejoin:miter;stroke-width:0.2;"/>
   </g>
   <g id="patch_199">
    <path clip-path="url(#p3d08c25ec5)" d="M 248.455989 178.77375 
L 248.455989 170.28 
L 259.835988 170.28 
L 259.835988 178.77375 
L 248.455989 178.77375 
" style="fill:none;stroke:#000000;stroke-linejoin:miter;stroke-width:0.2;"/>
   </g>
   <g id="patch_200">
    <path clip-path="url(#p3d08c25ec5)" d="M 248.455989 187.2675 
L 248.455989 178.77375 
L 259.835988 178.77375 
L 259.835988 187.2675 
L 248.455989 187.2675 
" style="fill:none;stroke:#000000;stroke-linejoin:miter;stroke-width:0.2;"/>
   </g>
   <g id="patch_201">
    <path clip-path="url(#p3d08c25ec5)" d="M 259.835988 178.77375 
L 259.835988 170.28 
L 271.215988 170.28 
L 271.215988 178.77375 
L 259.835988 178.77375 
" style="fill:none;stroke:#000000;stroke-linejoin:miter;stroke-width:0.2;"/>
   </g>
   <g id="patch_202">
    <path clip-path="url(#p3d08c25ec5)" d="M 259.835988 187.2675 
L 259.835988 178.77375 
L 271.215988 178.77375 
L 271.215988 187.2675 
L 259.835988 187.2675 
" style="fill:none;stroke:#000000;stroke-linejoin:miter;stroke-width:0.2;"/>
   </g>
   <g id="patch_203">
    <path clip-path="url(#p3d08c25ec5)" d="M 248.455989 195.76125 
L 248.455989 187.2675 
L 259.835988 187.2675 
L 259.835988 195.76125 
L 248.455989 195.76125 
" style="fill:none;stroke:#000000;stroke-linejoin:miter;stroke-width:0.2;"/>
   </g>
   <g id="patch_204">
    <path clip-path="url(#p3d08c25ec5)" d="M 248.455989 204.255 
L 248.455989 195.76125 
L 259.835988 195.76125 
L 259.835988 204.255 
L 248.455989 204.255 
" style="fill:none;stroke:#000000;stroke-linejoin:miter;stroke-width:0.2;"/>
   </g>
   <g id="patch_205">
    <path clip-path="url(#p3d08c25ec5)" d="M 259.835988 195.76125 
L 259.835988 187.2675 
L 271.215988 187.2675 
L 271.215988 195.76125 
L 259.835988 195.76125 
" style="fill:none;stroke:#000000;stroke-linejoin:miter;stroke-width:0.2;"/>
   </g>
   <g id="patch_206">
    <path clip-path="url(#p3d08c25ec5)" d="M 259.835988 204.255 
L 259.835988 195.76125 
L 271.215988 195.76125 
L 271.215988 204.255 
L 259.835988 204.255 
" style="fill:none;stroke:#000000;stroke-linejoin:miter;stroke-width:0.2;"/>
   </g>
   <g id="patch_207">
    <path clip-path="url(#p3d08c25ec5)" d="M 225.69599 212.74875 
L 225.69599 204.255 
L 237.075989 204.255 
L 237.075989 212.74875 
L 225.69599 212.74875 
" style="fill:none;stroke:#000000;stroke-linejoin:miter;stroke-width:0.2;"/>
   </g>
   <g id="patch_208">
    <path clip-path="url(#p3d08c25ec5)" d="M 225.69599 221.2425 
L 225.69599 212.74875 
L 237.075989 212.74875 
L 237.075989 221.2425 
L 225.69599 221.2425 
" style="fill:none;stroke:#000000;stroke-linejoin:miter;stroke-width:0.2;"/>
   </g>
   <g id="patch_209">
    <path clip-path="url(#p3d08c25ec5)" d="M 237.075989 212.74875 
L 237.075989 204.255 
L 248.455989 204.255 
L 248.455989 212.74875 
L 237.075989 212.74875 
" style="fill:none;stroke:#000000;stroke-linejoin:miter;stroke-width:0.2;"/>
   </g>
   <g id="patch_210">
    <path clip-path="url(#p3d08c25ec5)" d="M 237.075989 221.2425 
L 237.075989 212.74875 
L 248.455989 212.74875 
L 248.455989 221.2425 
L 237.075989 221.2425 
" style="fill:none;stroke:#000000;stroke-linejoin:miter;stroke-width:0.2;"/>
   </g>
   <g id="patch_211">
    <path clip-path="url(#p3d08c25ec5)" d="M 225.69599 229.73625 
L 225.69599 221.2425 
L 237.075989 221.2425 
L 237.075989 229.73625 
L 225.69599 229.73625 
" style="fill:none;stroke:#000000;stroke-linejoin:miter;stroke-width:0.2;"/>
   </g>
   <g id="patch_212">
    <path clip-path="url(#p3d08c25ec5)" d="M 225.69599 238.23 
L 225.69599 229.73625 
L 237.075989 229.73625 
L 237.075989 238.23 
L 225.69599 238.23 
" style="fill:none;stroke:#000000;stroke-linejoin:miter;stroke-width:0.2;"/>
   </g>
   <g id="patch_213">
    <path clip-path="url(#p3d08c25ec5)" d="M 237.075989 229.73625 
L 237.075989 221.2425 
L 248.455989 221.2425 
L 248.455989 229.73625 
L 237.075989 229.73625 
" style="fill:none;stroke:#000000;stroke-linejoin:miter;stroke-width:0.2;"/>
   </g>
   <g id="patch_214">
    <path clip-path="url(#p3d08c25ec5)" d="M 237.075989 238.23 
L 237.075989 229.73625 
L 248.455989 229.73625 
L 248.455989 238.23 
L 237.075989 238.23 
" style="fill:none;stroke:#000000;stroke-linejoin:miter;stroke-width:0.2;"/>
   </g>
   <g id="patch_215">
    <path clip-path="url(#p3d08c25ec5)" d="M 248.455989 212.74875 
L 248.455989 204.255 
L 259.835988 204.255 
L 259.835988 212.74875 
L 248.455989 212.74875 
" style="fill:none;stroke:#000000;stroke-linejoin:miter;stroke-width:0.2;"/>
   </g>
   <g id="patch_216">
    <path clip-path="url(#p3d08c25ec5)" d="M 248.455989 221.2425 
L 248.455989 212.74875 
L 259.835988 212.74875 
L 259.835988 221.2425 
L 248.455989 221.2425 
" style="fill:none;stroke:#000000;stroke-linejoin:miter;stroke-width:0.2;"/>
   </g>
   <g id="patch_217">
    <path clip-path="url(#p3d08c25ec5)" d="M 259.835988 212.74875 
L 259.835988 204.255 
L 271.215988 204.255 
L 271.215988 212.74875 
L 259.835988 212.74875 
" style="fill:none;stroke:#000000;stroke-linejoin:miter;stroke-width:0.2;"/>
   </g>
   <g id="patch_218">
    <path clip-path="url(#p3d08c25ec5)" d="M 259.835988 221.2425 
L 259.835988 212.74875 
L 271.215988 212.74875 
L 271.215988 221.2425 
L 259.835988 221.2425 
" style="fill:none;stroke:#000000;stroke-linejoin:miter;stroke-width:0.2;"/>
   </g>
   <g id="patch_219">
    <path clip-path="url(#p3d08c25ec5)" d="M 248.455989 229.73625 
L 248.455989 221.2425 
L 259.835988 221.2425 
L 259.835988 229.73625 
L 248.455989 229.73625 
" style="fill:none;stroke:#000000;stroke-linejoin:miter;stroke-width:0.2;"/>
   </g>
   <g id="patch_220">
    <path clip-path="url(#p3d08c25ec5)" d="M 248.455989 238.23 
L 248.455989 229.73625 
L 259.835988 229.73625 
L 259.835988 238.23 
L 248.455989 238.23 
" style="fill:none;stroke:#000000;stroke-linejoin:miter;stroke-width:0.2;"/>
   </g>
   <g id="patch_221">
    <path clip-path="url(#p3d08c25ec5)" d="M 259.835988 229.73625 
L 259.835988 221.2425 
L 271.215988 221.2425 
L 271.215988 229.73625 
L 259.835988 229.73625 
" style="fill:none;stroke:#000000;stroke-linejoin:miter;stroke-width:0.2;"/>
   </g>
   <g id="patch_222">
    <path clip-path="url(#p3d08c25ec5)" d="M 259.835988 238.23 
L 259.835988 229.73625 
L 271.215988 229.73625 
L 271.215988 238.23 
L 259.835988 238.23 
" style="fill:none;stroke:#000000;stroke-linejoin:miter;stroke-width:0.2;"/>
   </g>
   <g id="patch_223">
    <path clip-path="url(#p3d08c25ec5)" d="M 271.215988 187.2675 
L 271.215988 170.28 
L 293.975987 170.28 
L 293.975987 187.2675 
L 271.215988 187.2675 
" style="fill:none;stroke:#000000;stroke-linejoin:miter;stroke-width:0.2;"/>
   </g>
   <g id="patch_224">
    <path clip-path="url(#p3d08c25ec5)" d="M 271.215988 195.76125 
L 271.215988 187.2675 
L 282.595987 187.2675 
L 282.595987 195.76125 
L 271.215988 195.76125 
" style="fill:none;stroke:#000000;stroke-linejoin:miter;stroke-width:0.2;"/>
   </g>
   <g id="patch_225">
    <path clip-path="url(#p3d08c25ec5)" d="M 271.215988 204.255 
L 271.215988 195.76125 
L 282.595987 195.76125 
L 282.595987 204.255 
L 271.215988 204.255 
" style="fill:none;stroke:#000000;stroke-linejoin:miter;stroke-width:0.2;"/>
   </g>
   <g id="patch_226">
    <path clip-path="url(#p3d08c25ec5)" d="M 282.595987 195.76125 
L 282.595987 187.2675 
L 293.975987 187.2675 
L 293.975987 195.76125 
L 282.595987 195.76125 
" style="fill:none;stroke:#000000;stroke-linejoin:miter;stroke-width:0.2;"/>
   </g>
   <g id="patch_227">
    <path clip-path="url(#p3d08c25ec5)" d="M 282.595987 204.255 
L 282.595987 195.76125 
L 293.975987 195.76125 
L 293.975987 204.255 
L 282.595987 204.255 
" style="fill:none;stroke:#000000;stroke-linejoin:miter;stroke-width:0.2;"/>
   </g>
   <g id="patch_228">
    <path clip-path="url(#p3d08c25ec5)" d="M 293.975987 178.77375 
L 293.975987 170.28 
L 305.355986 170.28 
L 305.355986 178.77375 
L 293.975987 178.77375 
" style="fill:none;stroke:#000000;stroke-linejoin:miter;stroke-width:0.2;"/>
   </g>
   <g id="patch_229">
    <path clip-path="url(#p3d08c25ec5)" d="M 293.975987 187.2675 
L 293.975987 178.77375 
L 305.355986 178.77375 
L 305.355986 187.2675 
L 293.975987 187.2675 
" style="fill:none;stroke:#000000;stroke-linejoin:miter;stroke-width:0.2;"/>
   </g>
   <g id="patch_230">
    <path clip-path="url(#p3d08c25ec5)" d="M 305.355986 178.77375 
L 305.355986 170.28 
L 316.735986 170.28 
L 316.735986 178.77375 
L 305.355986 178.77375 
" style="fill:none;stroke:#000000;stroke-linejoin:miter;stroke-width:0.2;"/>
   </g>
   <g id="patch_231">
    <path clip-path="url(#p3d08c25ec5)" d="M 305.355986 187.2675 
L 305.355986 178.77375 
L 316.735986 178.77375 
L 316.735986 187.2675 
L 305.355986 187.2675 
" style="fill:none;stroke:#000000;stroke-linejoin:miter;stroke-width:0.2;"/>
   </g>
   <g id="patch_232">
    <path clip-path="url(#p3d08c25ec5)" d="M 293.975987 204.255 
L 293.975987 187.2675 
L 316.735986 187.2675 
L 316.735986 204.255 
L 293.975987 204.255 
" style="fill:none;stroke:#000000;stroke-linejoin:miter;stroke-width:0.2;"/>
   </g>
   <g id="patch_233">
    <path clip-path="url(#p3d08c25ec5)" d="M 271.215988 238.23 
L 271.215988 204.255 
L 316.735986 204.255 
L 316.735986 238.23 
L 271.215988 238.23 
" style="fill:none;stroke:#000000;stroke-linejoin:miter;stroke-width:0.2;"/>
   </g>
   <g id="patch_234">
    <path clip-path="url(#p3d08c25ec5)" d="M 225.69599 246.72375 
L 225.69599 238.23 
L 237.075989 238.23 
L 237.075989 246.72375 
L 225.69599 246.72375 
" style="fill:none;stroke:#000000;stroke-linejoin:miter;stroke-width:0.2;"/>
   </g>
   <g id="patch_235">
    <path clip-path="url(#p3d08c25ec5)" d="M 225.69599 255.2175 
L 225.69599 246.72375 
L 237.075989 246.72375 
L 237.075989 255.2175 
L 225.69599 255.2175 
" style="fill:none;stroke:#000000;stroke-linejoin:miter;stroke-width:0.2;"/>
   </g>
   <g id="patch_236">
    <path clip-path="url(#p3d08c25ec5)" d="M 237.075989 246.72375 
L 237.075989 238.23 
L 248.455989 238.23 
L 248.455989 246.72375 
L 237.075989 246.72375 
" style="fill:none;stroke:#000000;stroke-linejoin:miter;stroke-width:0.2;"/>
   </g>
   <g id="patch_237">
    <path clip-path="url(#p3d08c25ec5)" d="M 237.075989 255.2175 
L 237.075989 246.72375 
L 248.455989 246.72375 
L 248.455989 255.2175 
L 237.075989 255.2175 
" style="fill:none;stroke:#000000;stroke-linejoin:miter;stroke-width:0.2;"/>
   </g>
   <g id="patch_238">
    <path clip-path="url(#p3d08c25ec5)" d="M 225.69599 272.205 
L 225.69599 255.2175 
L 248.455989 255.2175 
L 248.455989 272.205 
L 225.69599 272.205 
" style="fill:none;stroke:#000000;stroke-linejoin:miter;stroke-width:0.2;"/>
   </g>
   <g id="patch_239">
    <path clip-path="url(#p3d08c25ec5)" d="M 248.455989 255.2175 
L 248.455989 238.23 
L 271.215988 238.23 
L 271.215988 255.2175 
L 248.455989 255.2175 
" style="fill:none;stroke:#000000;stroke-linejoin:miter;stroke-width:0.2;"/>
   </g>
   <g id="patch_240">
    <path clip-path="url(#p3d08c25ec5)" d="M 248.455989 272.205 
L 248.455989 255.2175 
L 271.215988 255.2175 
L 271.215988 272.205 
L 248.455989 272.205 
" style="fill:none;stroke:#000000;stroke-linejoin:miter;stroke-width:0.2;"/>
   </g>
   <g id="patch_241">
    <path clip-path="url(#p3d08c25ec5)" d="M 225.69599 306.18 
L 225.69599 272.205 
L 271.215988 272.205 
L 271.215988 306.18 
L 225.69599 306.18 
" style="fill:none;stroke:#000000;stroke-linejoin:miter;stroke-width:0.2;"/>
   </g>
   <g id="patch_242">
    <path clip-path="url(#p3d08c25ec5)" d="M 271.215988 272.205 
L 271.215988 238.23 
L 316.735986 238.23 
L 316.735986 272.205 
L 271.215988 272.205 
" style="fill:none;stroke:#000000;stroke-linejoin:miter;stroke-width:0.2;"/>
   </g>
   <g id="patch_243">
    <path clip-path="url(#p3d08c25ec5)" d="M 271.215988 306.18 
L 271.215988 272.205 
L 316.735986 272.205 
L 316.735986 306.18 
L 271.215988 306.18 
" style="fill:none;stroke:#000000;stroke-linejoin:miter;stroke-width:0.2;"/>
   </g>
   <g id="patch_244">
    <path clip-path="url(#p3d08c25ec5)" d="M 316.735986 178.77375 
L 316.735986 170.28 
L 328.115985 170.28 
L 328.115985 178.77375 
L 316.735986 178.77375 
" style="fill:none;stroke:#000000;stroke-linejoin:miter;stroke-width:0.2;"/>
   </g>
   <g id="patch_245">
    <path clip-path="url(#p3d08c25ec5)" d="M 316.735986 187.2675 
L 316.735986 178.77375 
L 328.115985 178.77375 
L 328.115985 187.2675 
L 316.735986 187.2675 
" style="fill:none;stroke:#000000;stroke-linejoin:miter;stroke-width:0.2;"/>
   </g>
   <g id="patch_246">
    <path clip-path="url(#p3d08c25ec5)" d="M 328.115985 178.77375 
L 328.115985 170.28 
L 339.495985 170.28 
L 339.495985 178.77375 
L 328.115985 178.77375 
" style="fill:none;stroke:#000000;stroke-linejoin:miter;stroke-width:0.2;"/>
   </g>
   <g id="patch_247">
    <path clip-path="url(#p3d08c25ec5)" d="M 328.115985 187.2675 
L 328.115985 178.77375 
L 339.495985 178.77375 
L 339.495985 187.2675 
L 328.115985 187.2675 
" style="fill:none;stroke:#000000;stroke-linejoin:miter;stroke-width:0.2;"/>
   </g>
   <g id="patch_248">
    <path clip-path="url(#p3d08c25ec5)" d="M 316.735986 204.255 
L 316.735986 187.2675 
L 339.495985 187.2675 
L 339.495985 204.255 
L 316.735986 204.255 
" style="fill:none;stroke:#000000;stroke-linejoin:miter;stroke-width:0.2;"/>
   </g>
   <g id="patch_249">
    <path clip-path="url(#p3d08c25ec5)" d="M 339.495985 187.2675 
L 339.495985 170.28 
L 362.255984 170.28 
L 362.255984 187.2675 
L 339.495985 187.2675 
" style="fill:none;stroke:#000000;stroke-linejoin:miter;stroke-width:0.2;"/>
   </g>
   <g id="patch_250">
    <path clip-path="url(#p3d08c25ec5)" d="M 339.495985 204.255 
L 339.495985 187.2675 
L 362.255984 187.2675 
L 362.255984 204.255 
L 339.495985 204.255 
" style="fill:none;stroke:#000000;stroke-linejoin:miter;stroke-width:0.2;"/>
   </g>
   <g id="patch_251">
    <path clip-path="url(#p3d08c25ec5)" d="M 316.735986 238.23 
L 316.735986 204.255 
L 362.255984 204.255 
L 362.255984 238.23 
L 316.735986 238.23 
" style="fill:none;stroke:#000000;stroke-linejoin:miter;stroke-width:0.2;"/>
   </g>
   <g id="patch_252">
    <path clip-path="url(#p3d08c25ec5)" d="M 362.255984 187.2675 
L 362.255984 170.28 
L 385.015983 170.28 
L 385.015983 187.2675 
L 362.255984 187.2675 
" style="fill:none;stroke:#000000;stroke-linejoin:miter;stroke-width:0.2;"/>
   </g>
   <g id="patch_253">
    <path clip-path="url(#p3d08c25ec5)" d="M 362.255984 204.255 
L 362.255984 187.2675 
L 385.015983 187.2675 
L 385.015983 204.255 
L 362.255984 204.255 
" style="fill:none;stroke:#000000;stroke-linejoin:miter;stroke-width:0.2;"/>
   </g>
   <g id="patch_254">
    <path clip-path="url(#p3d08c25ec5)" d="M 385.015983 187.2675 
L 385.015983 170.28 
L 407.775982 170.28 
L 407.775982 187.2675 
L 385.015983 187.2675 
" style="fill:none;stroke:#000000;stroke-linejoin:miter;stroke-width:0.2;"/>
   </g>
   <g id="patch_255">
    <path clip-path="url(#p3d08c25ec5)" d="M 385.015983 204.255 
L 385.015983 187.2675 
L 407.775982 187.2675 
L 407.775982 204.255 
L 385.015983 204.255 
" style="fill:none;stroke:#000000;stroke-linejoin:miter;stroke-width:0.2;"/>
   </g>
   <g id="patch_256">
    <path clip-path="url(#p3d08c25ec5)" d="M 362.255984 238.23 
L 362.255984 204.255 
L 407.775982 204.255 
L 407.775982 238.23 
L 362.255984 238.23 
" style="fill:none;stroke:#000000;stroke-linejoin:miter;stroke-width:0.2;"/>
   </g>
   <g id="patch_257">
    <path clip-path="url(#p3d08c25ec5)" d="M 316.735986 306.18 
L 316.735986 238.23 
L 407.775982 238.23 
L 407.775982 306.18 
L 316.735986 306.18 
" style="fill:none;stroke:#000000;stroke-linejoin:miter;stroke-width:0.2;"/>
   </g>
  </g>
 </g>
 <defs>
  <clipPath id="p3d08c25ec5">
   <rect height="326.16" width="436.99198" x="7.2" y="7.2"/>
  </clipPath>
 </defs>
</svg>
