<?xml version="1.0" encoding="utf-8" standalone="no"?>
<!DOCTYPE svg PUBLIC "-//W3C//DTD SVG 1.1//EN"
  "http://www.w3.org/Graphics/SVG/1.1/DTD/svg11.dtd">
<svg xmlns:xlink="http://www.w3.org/1999/xlink" width="410.095691pt" height="475.72pt" viewBox="0 0 410.095691 475.72" xmlns="http://www.w3.org/2000/svg" version="1.1">
 <metadata>
  <rdf:RDF xmlns:dc="http://purl.org/dc/elements/1.1/" xmlns:cc="http://creativecommons.org/ns#" xmlns:rdf="http://www.w3.org/1999/02/22-rdf-syntax-ns#">
   <cc:Work>
    <dc:type rdf:resource="http://purl.org/dc/dcmitype/StillImage"/>
    <dc:date>2022-10-24T21:30:40.153123</dc:date>
    <dc:format>image/svg+xml</dc:format>
    <dc:creator>
     <cc:Agent>
      <dc:title>Matplotlib v3.5.3, https://matplotlib.org/</dc:title>
     </cc:Agent>
    </dc:creator>
   </cc:Work>
  </rdf:RDF>
 </metadata>
 <defs>
  <style type="text/css">*{stroke-linejoin: round; stroke-linecap: butt}</style>
 </defs>
 <g id="figure_1">
  <g id="patch_1">
   <path d="M 0 475.72 
L 410.095691 475.72 
L 410.095691 0 
L 0 0 
z
" style="fill: #ffffff"/>
  </g>
  <g id="axes_1">
   <g id="patch_2">
    <path d="M 26.2 450.72 
L 402.895691 450.72 
L 402.895691 7.2 
L 26.2 7.2 
z
" style="fill: #ffffff"/>
   </g>
   <g id="PatchCollection_1">
    <path d="M 54.68237 72.215349 
L 55.683548 73.06768 
L 57.798711 73.974939 
L 63.543496 72.736218 
L 67.113892 71.491814 
L 69.626706 70.183013 
L 71.186287 70.414089 
L 76.826723 72.368769 
L 78.688067 71.374382 
L 82.754822 68.718897 
L 83.363989 67.322968 
L 86.567756 63.093511 
L 86.626981 62.059349 
L 85.307119 59.405758 
L 85.716051 58.822385 
L 89.650255 56.100607 
L 91.573644 53.687563 
L 93.657785 52.070028 
L 95.155321 52.034041 
L 95.567073 52.583321 
L 95.744746 53.712186 
L 95.615016 58.36402 
L 96.190341 59.797831 
L 99.2813 63.137075 
L 101.48389 65.03872 
L 106.591305 66.343734 
L 106.828204 66.968777 
L 105.420915 69.484101 
L 108.514694 72.489989 
L 109.067457 74.690897 
L 110.494487 75.929619 
L 112.516584 75.321623 
L 113.179335 74.162452 
L 112.384033 72.124434 
L 111.800248 69.991712 
L 111.918697 68.758672 
L 112.477101 67.340015 
L 113.881569 65.362606 
L 117.705785 60.831992 
L 119.082051 58.212495 
L 119.333051 54.159186 
L 119.344332 50.903281 
L 120.621891 50.113454 
L 123.363143 50.691146 
L 124.181006 50.626747 
L 124.556095 52.62499 
L 125.723665 55.807027 
L 127.099932 57.458655 
L 128.569265 57.850727 
L 130.298059 57.858304 
L 134.58197 55.913095 
L 137.373986 55.070234 
L 138.956129 55.30131 
L 139.892441 56.625265 
L 141.894796 60.100882 
L 143.036984 60.492954 
L 144.416071 60.0952 
L 144.903969 59.502356 
L 144.461195 58.165143 
L 143.877409 55.261535 
L 143.076467 53.015169 
L 142.027346 51.962066 
L 141.81583 50.592654 
L 142.478581 48.126576 
L 143.223119 46.065828 
L 144.681172 45.505184 
L 146.356381 45.243802 
L 148.573073 47.42577 
L 151.195875 48.115211 
L 153.147466 47.999673 
L 153.488713 46.726858 
L 153.367443 45.330929 
L 152.202693 43.53914 
L 152.436771 40.830621 
L 153.787656 35.78482 
L 154.554755 36.165528 
L 157.45394 36.220456 
L 160.615404 36.504567 
L 162.651602 38.56342 
L 164.648316 39.264225 
L 167.491096 39.487726 
L 169.394743 39.196039 
L 170.314134 38.421365 
L 171.42248 36.010214 
L 173.455857 33.021373 
L 176.648344 31.489071 
L 182.099826 31.203067 
L 184.824157 30.64621 
L 187.652835 30.678409 
L 189.787741 31.140562 
L 191.990331 31.085634 
L 197.588464 29.005946 
L 203.36145 27.36 
L 204.162392 27.636534 
L 204.280842 28.18392 
L 203.248642 29.452947 
L 202.244644 31.136774 
L 202.918676 33.05736 
L 206.207051 36.911791 
L 208.000709 39.862751 
L 209.681559 42.080707 
L 212.307182 43.249347 
L 215.756309 43.963411 
L 218.678055 44.221005 
L 221.732351 45.058183 
L 232.220743 47.122719 
L 237.500191 47.694728 
L 241.49926 47.785643 
L 247.562729 49.155055 
L 246.976124 51.380587 
L 245.746509 51.937443 
L 243.614424 53.234881 
L 241.166475 55.015306 
L 238.884918 57.019231 
L 238.270111 59.18794 
L 238.887738 60.610386 
L 239.505366 61.10095 
L 240.337331 60.665314 
L 241.550024 60.934272 
L 243.078583 61.710841 
L 245.613959 62.468468 
L 245.684464 63.216626 
L 245.154263 64.173131 
L 243.17447 65.879687 
L 241.394912 67.802167 
L 241.217239 68.978384 
L 241.431575 69.836398 
L 242.052023 70.353479 
L 244.691747 70.120508 
L 245.078117 70.823208 
L 243.797738 75.770517 
L 244.195389 76.615272 
L 246.507968 77.405099 
L 248.188818 78.596468 
L 251.350282 81.733047 
L 252.6081 84.276782 
L 251.742293 85.129113 
L 249.756859 85.551491 
L 248.135234 85.333673 
L 249.968376 83.795689 
L 245.492689 78.221443 
L 243.467773 78.230913 
L 240.780105 80.587135 
L 233.306527 78.204396 
L 231.873856 79.166583 
L 230.816274 81.05497 
L 228.221673 83.397934 
L 224.546929 84.43399 
L 220.451972 87.013712 
L 216.134218 88.839595 
L 212.837383 90.218478 
L 210.947837 89.976037 
L 213.95137 86.989089 
L 212.670991 86.936055 
L 208.686022 89.04226 
L 206.390365 90.82458 
L 205.654288 93.819103 
L 204.985896 98.758836 
L 206.737252 100.069532 
L 209.802829 106.583236 
L 213.584741 109.369412 
L 212.848664 112.028685 
L 211.855948 114.131102 
L 209.571571 115.949409 
L 207.682025 114.600831 
L 206.522915 114.634925 
L 205.640187 118.890898 
L 207.275913 130.259102 
L 209.912817 138.233134 
L 212.527159 141.710645 
L 218.427056 147.122001 
L 224.662558 149.97447 
L 235.875745 159.094413 
L 242.023821 161.980975 
L 243.639806 163.54737 
L 247.368134 170.583837 
L 250.586003 178.711289 
L 254.057692 191.465951 
L 256.528203 197.750473 
L 261.503068 204.853233 
L 271.841987 215.022491 
L 281.238954 222.460501 
L 289.97881 227.057407 
L 296.800918 227.864281 
L 312.946667 226.847166 
L 315.761245 227.28659 
L 318.739395 228.525311 
L 319.44727 231.71303 
L 318.353025 233.866586 
L 314.957482 236.105376 
L 311.494255 239.205968 
L 311.110705 243.425954 
L 314.348315 246.399643 
L 329.92156 254.288442 
L 345.850152 260.877909 
L 350.810916 264.241776 
L 356.55852 269.473195 
L 370.442454 276.664976 
L 372.786055 280.165216 
L 381.221328 287.694142 
L 385.045544 293.505146 
L 385.77316 298.013031 
L 383.945659 302.589103 
L 383.105234 305.818491 
L 381.669743 309.008103 
L 378.076785 307.799687 
L 373.993109 304.524841 
L 367.845033 291.211428 
L 356.614925 289.862851 
L 354.293885 288.881723 
L 350.306097 286.59937 
L 350.066378 285.093584 
L 349.082122 283.21088 
L 348.061203 282.576366 
L 343.766011 282.161565 
L 340.790681 284.311334 
L 337.29079 289.415851 
L 333.322743 296.757263 
L 329.289831 307.523153 
L 329.055753 311.871936 
L 331.247062 316.08624 
L 337.789969 318.43678 
L 342.840979 322.188932 
L 346.171657 326.105867 
L 346.414196 335.572425 
L 347.906091 340.944006 
L 345.709141 343.999139 
L 341.461893 343.205524 
L 335.801715 345.148839 
L 331.794185 348.622563 
L 330.127436 351.933396 
L 330.56739 360.515424 
L 329.741066 363.792163 
L 322.140578 369.980088 
L 318.147149 376.310067 
L 317.154432 378.937142 
L 315.625874 381.916513 
L 306.028672 382.02258 
L 303.755576 378.332933 
L 303.67661 372.857179 
L 305.326437 369.485736 
L 308.85453 367.907976 
L 311.234794 360.905602 
L 310.487437 355.846543 
L 311.874984 353.603965 
L 313.186385 352.018629 
L 315.876874 351.094323 
L 319.667247 350.209793 
L 320.047976 343.154384 
L 317.086747 339.945831 
L 316.048907 335.460675 
L 314.667 327.153287 
L 309.779562 316.567334 
L 307.159579 307.119716 
L 305.112101 302.460306 
L 302.00422 300.030215 
L 296.394807 300.056732 
L 293.611251 299.363503 
L 283.686904 292.808129 
L 282.99595 291.809954 
L 283.057995 290.071199 
L 284.705002 287.436548 
L 283.593836 283.873804 
L 282.417805 280.509937 
L 280.471855 277.642316 
L 278.33977 276.151683 
L 273.878185 277.068413 
L 272.310144 277.780583 
L 269.492746 277.536248 
L 267.278874 278.810957 
L 266.043619 278.850732 
L 269.526588 273.812508 
L 268.590276 272.624926 
L 265.14679 270.556603 
L 260.476508 270.244081 
L 259.182028 269.994064 
L 258.417749 271.282031 
L 257.506819 270.571755 
L 257.602706 268.319707 
L 252.176606 258.247046 
L 248.527244 254.14828 
L 246.688462 253.41717 
L 243.369065 254.282759 
L 237.799134 252.485288 
L 234.476917 252.083745 
L 232.643775 252.517487 
L 229.908164 253.830077 
L 228.531897 252.962593 
L 228.04682 251.61591 
L 222.992989 247.433805 
L 216.686981 245.070006 
L 204.407751 231.766064 
L 200.64276 226.792238 
L 192.895621 221.316483 
L 187.994082 213.344346 
L 183.983732 210.419903 
L 178.14588 208.078833 
L 176.800636 208.372414 
L 175.04364 209.249368 
L 173.667374 209.374377 
L 172.570309 208.338321 
L 173.684295 207.27196 
L 174.925191 206.787078 
L 174.434473 203.73952 
L 167.792859 195.843146 
L 163.903778 193.29941 
L 162.806714 191.733015 
L 161.997311 189.588929 
L 161.168167 188.177847 
L 159.326564 187.36908 
L 157.755703 187.507347 
L 155.578494 186.967537 
L 155.649 183.181292 
L 156.083313 180.272002 
L 155.750528 177.802136 
L 153.635364 171.309266 
L 149.96626 165.805101 
L 147.808793 152.654578 
L 146.142045 148.953566 
L 142.086571 146.142767 
L 132.937783 142.99293 
L 120.187577 134.534017 
L 117.491448 134.388173 
L 109.820455 131.100069 
L 105.068387 130.535636 
L 98.89211 133.490384 
L 91.39597 141.621624 
L 85.309939 150.061597 
L 83.096068 151.698073 
L 75.250221 154.575164 
L 68.315305 155.950258 
L 68.239159 153.785337 
L 67.9938 152.158331 
L 69.167011 150.366542 
L 71.10168 148.258443 
L 72.886878 145.612428 
L 73.628596 143.691842 
L 73.278889 142.417133 
L 72.475126 140.523064 
L 71.383702 140.386691 
L 64.784392 141.975815 
L 63.272755 141.564802 
L 58.388137 139.093041 
L 53.12843 136.054954 
L 51.19094 133.893821 
L 50.457683 131.709959 
L 51.007626 130.308348 
L 50.567672 128.946512 
L 49.538292 127.107371 
L 50.468964 125.018213 
L 52.107511 122.415761 
L 52.928194 120.650489 
L 54.301641 120.192124 
L 54.958751 119.116293 
L 53.861687 114.826226 
L 53.289182 114.138679 
L 52.335949 113.606445 
L 50.877896 113.545835 
L 48.328419 112.65941 
L 46.512198 111.176354 
L 46.123008 109.174323 
L 45.161314 107.249949 
L 43.525587 105.482782 
L 43.322531 103.550831 
L 45.186696 102.529928 
L 47.730532 102.490152 
L 49.518551 102.865178 
L 53.531721 99.764587 
L 55.009515 99.491841 
L 56.335018 98.819446 
L 57.446184 94.588095 
L 58.30071 93.319069 
L 58.503766 92.5747 
L 57.714105 91.692063 
L 54.468034 88.712692 
L 52.987419 85.606419 
L 50.649458 82.123225 
L 48.47789 80.585241 
L 48.035116 79.388189 
L 47.984352 77.867252 
L 48.427126 76.530039 
L 52.364151 74.442774 
L 54.68237 72.215349 
M 211.150893 228.440078 
L 211.128331 228.137027 
L 210.902714 228.165438 
L 210.815287 228.349163 
L 210.902714 228.472277 
L 211.150893 228.440078 
M 212.482036 150.741568 
L 213.330922 148.74143 
L 213.015057 147.315196 
L 211.207297 147.599307 
L 209.929739 149.455495 
L 210.781444 151.025678 
L 212.482036 150.741568 
" clip-path="url(#p9777552e8e)" style="fill: #bc80bd; stroke: #000000; stroke-width: 0.2"/>
    <path d="M 152.120907 191.210252 
L 153.079781 192.721719 
L 153.19259 193.598673 
L 152.54958 194.591166 
L 152.820321 196.833744 
L 150.403394 194.973768 
L 146.745571 195.913226 
L 144.500678 195.714349 
L 143.88023 194.045674 
L 144.393509 193.06644 
L 147.879299 192.854304 
L 148.962263 192.376999 
L 151.077426 192.600499 
L 152.120907 191.210252 
" clip-path="url(#p9777552e8e)" style="fill: #bc80bd; stroke: #000000; stroke-width: 0.2"/>
    <path d="M 254.444062 274.708403 
L 253.155222 275.043653 
L 252.405044 274.587182 
L 251.996112 273.992444 
L 252.506572 272.528329 
L 255.132195 273.397707 
L 255.095532 274.221627 
L 254.444062 274.708403 
" clip-path="url(#p9777552e8e)" style="fill: #bc80bd; stroke: #000000; stroke-width: 0.2"/>
    <path d="M 199.948987 427.876104 
L 198.564259 428.304163 
L 196.753679 426.970739 
L 196.63241 425.099398 
L 196.968016 424.538754 
L 199.167786 425.396767 
L 199.855919 427.126052 
L 199.948987 427.876104 
" clip-path="url(#p9777552e8e)" style="fill: #bc80bd; stroke: #000000; stroke-width: 0.2"/>
    <path d="M 301.756041 371.114635 
L 299.80163 375.524029 
L 298.842756 377.219221 
L 291.876817 388.007839 
L 291.078695 390.500435 
L 290.587977 393.208954 
L 289.866002 395.582222 
L 288.890206 397.819118 
L 287.979276 400.662116 
L 288.156949 403.885822 
L 288.484095 405.46737 
L 289.321699 406.503426 
L 290.697966 407.478872 
L 291.755548 408.973292 
L 290.133922 410.337022 
L 291.921941 413.070164 
L 293.442038 414.691487 
L 293.645094 416.310917 
L 293.611251 417.936028 
L 290.452607 420.979798 
L 289.217351 422.656049 
L 288.450252 424.686491 
L 288.117466 426.781332 
L 288.464353 428.673507 
L 288.357185 430.56 
L 285.175979 430.325135 
L 281.918627 429.175435 
L 278.635893 429.68494 
L 273.968432 427.504866 
L 272.26784 427.1109 
L 270.719541 426.260463 
L 266.83328 419.504318 
L 263.708478 416.649955 
L 260.355239 414.430106 
L 256.928674 414.295627 
L 253.496468 414.547538 
L 250.467554 413.18002 
L 244.302557 408.592584 
L 237.770932 404.923772 
L 234.998658 402.533457 
L 233.73238 400.925392 
L 232.254585 399.859031 
L 228.512156 398.80214 
L 225.156096 396.320909 
L 223.627538 396.139079 
L 220.339164 396.44213 
L 218.655493 396.26977 
L 216.957722 395.396604 
L 213.680629 392.479737 
L 211.590847 388.435899 
L 211.046545 386.651686 
L 212.527159 382.037733 
L 214.284155 377.607505 
L 215.843736 376.364995 
L 217.654316 375.474783 
L 218.751381 374.164087 
L 219.676412 372.55981 
L 223.035292 377.188916 
L 224.538469 378.308311 
L 226.061386 378.058293 
L 228.763155 376.399089 
L 228.988773 374.582676 
L 231.966923 372.277594 
L 235.754476 372.23403 
L 237.503011 372.658302 
L 238.422402 374.741778 
L 239.866354 375.383868 
L 241.535923 375.660402 
L 247.029708 379.632265 
L 248.569547 380.280037 
L 250.129128 380.389893 
L 254.396118 378.723112 
L 257.670391 378.088598 
L 264.534802 379.007222 
L 268.246209 378.009048 
L 270.83799 377.895403 
L 274.614262 376.361207 
L 277.516266 373.81179 
L 279.030723 373.182959 
L 280.655169 373.001128 
L 284.583733 373.16023 
L 288.534859 373.736027 
L 290.190327 373.141289 
L 291.575054 371.474509 
L 293.179758 370.724457 
L 294.945214 371.230174 
L 299.508327 368.377705 
L 301.519143 368.182616 
L 303.434071 369.281176 
L 301.756041 371.114635 
" clip-path="url(#p9777552e8e)" style="fill: #bc80bd; stroke: #000000; stroke-width: 0.2"/>
    <path d="M 130.083722 267.86513 
L 131.527674 270.344467 
L 134.770925 280.504255 
L 135.086789 282.701375 
L 134.438139 284.953423 
L 133.611815 286.552018 
L 130.399587 291.667899 
L 130.876204 295.903038 
L 132.069156 298.518748 
L 132.241189 301.418568 
L 131.643303 305.013511 
L 129.649409 327.122982 
L 128.684894 331.034235 
L 128.075727 334.430301 
L 125.875957 335.456887 
L 123.038817 334.371585 
L 119.459961 332.460469 
L 117.807313 332.576008 
L 116.143384 333.229461 
L 114.769938 332.674499 
L 113.458536 331.592986 
L 112.485561 339.191992 
L 110.866756 342.27743 
L 108.404706 344.249157 
L 106.089306 344.374165 
L 103.703402 343.713135 
L 101.681305 343.718817 
L 100.147107 342.254702 
L 98.931593 339.69392 
L 96.994103 336.583858 
L 95.028411 332.890423 
L 94.814074 329.551179 
L 94.478468 322.188932 
L 95.042512 320.580867 
L 95.863195 319.039094 
L 96.266487 315.745308 
L 95.981645 312.875793 
L 96.556969 311.851101 
L 97.701978 312.875793 
L 98.562144 312.491297 
L 98.50856 311.013923 
L 98.77084 308.316768 
L 97.273305 306.057143 
L 94.729468 305.290045 
L 94.484109 302.926247 
L 94.75203 300.61927 
L 96.094453 299.069922 
L 96.548508 297.009174 
L 96.56261 290.726547 
L 94.768951 288.411994 
L 94.080818 284.907966 
L 93.152966 282.663494 
L 91.486217 280.409551 
L 89.602311 278.574198 
L 88.437561 276.803243 
L 88.175281 272.17035 
L 88.838032 268.304554 
L 89.427458 266.651032 
L 90.033805 266.895367 
L 91.90925 268.815953 
L 93.443448 269.249695 
L 96.480823 269.715636 
L 99.467434 269.100063 
L 103.136538 267.351837 
L 106.667451 265.232374 
L 111.777686 259.008462 
L 114.92787 257.745118 
L 116.541035 256.106748 
L 117.090977 253.894475 
L 118.427761 253.316784 
L 120.004263 255.466553 
L 121.961494 255.690053 
L 124.976307 257.464796 
L 126.276428 259.163776 
L 127.390414 261.207477 
L 128.456457 262.105266 
L 129.601465 262.618558 
L 129.770678 263.099652 
L 128.862568 263.580746 
L 127.821907 265.921815 
L 128.408513 266.596104 
L 130.083722 267.86513 
" clip-path="url(#p9777552e8e)" style="fill: #bc80bd; stroke: #000000; stroke-width: 0.2"/>
    <path d="M 96.782587 338.250639 
L 95.124298 342.086129 
L 93.375763 339.370034 
L 93.308078 337.038435 
L 93.544976 336.373616 
L 95.677061 337.354744 
L 96.782587 338.250639 
" clip-path="url(#p9777552e8e)" style="fill: #bc80bd; stroke: #000000; stroke-width: 0.2"/>
    <path d="M 91.212656 261.743498 
L 90.250961 263.516347 
L 88.891616 263.38755 
L 89.421817 262.07496 
L 90.673994 259.444098 
L 92.199732 258.561462 
L 92.879405 259.347501 
L 92.163069 260.85518 
L 91.212656 261.743498 
" clip-path="url(#p9777552e8e)" style="fill: #bc80bd; stroke: #000000; stroke-width: 0.2"/>
   </g>
   <g id="matplotlib.axis_1">
    <g id="xtick_1">
     <g id="line2d_1">
      <defs>
       <path id="md55b86c368" d="M 0 0 
L 0 3.5 
" style="stroke: #323034; stroke-width: 0.8"/>
      </defs>
      <g>
       <use xlink:href="#md55b86c368" x="82.952237" y="450.72" style="fill: #323034; stroke: #323034; stroke-width: 0.8"/>
      </g>
     </g>
     <g id="text_1">
      <!-- $\mathdefault{8}$ -->
      <g style="fill: #323034" transform="translate(79.952237 465.915625)scale(0.12 -0.12)">
       <defs>
        <path id="STIXGeneral-Regular-38" d="M 2848 992 
Q 2848 499 2505 204 
Q 2163 -90 1587 -90 
Q 1050 -90 704 204 
Q 358 499 358 954 
Q 358 1293 524 1533 
Q 691 1773 1190 2125 
Q 710 2522 553 2765 
Q 397 3008 397 3328 
Q 397 3782 745 4054 
Q 1094 4326 1638 4326 
Q 2106 4326 2410 4060 
Q 2714 3795 2714 3411 
Q 2714 3059 2531 2848 
Q 2349 2637 1856 2374 
Q 2432 1990 2640 1689 
Q 2848 1389 2848 992 
z
M 2272 3411 
Q 2272 3744 2086 3945 
Q 1901 4147 1574 4147 
Q 1248 4147 1059 3977 
Q 870 3808 870 3513 
Q 870 3219 1059 2979 
Q 1248 2739 1670 2490 
Q 1997 2682 2134 2896 
Q 2272 3110 2272 3411 
z
M 1734 1741 
L 1357 1997 
Q 1075 1766 960 1545 
Q 845 1325 845 1011 
Q 845 576 1065 333 
Q 1286 90 1658 90 
Q 1971 90 2166 285 
Q 2362 480 2362 794 
Q 2362 1082 2214 1299 
Q 2067 1517 1734 1741 
z
" transform="scale(0.015625)"/>
       </defs>
       <use xlink:href="#STIXGeneral-Regular-38" transform="translate(0 0.40625)"/>
      </g>
     </g>
    </g>
    <g id="xtick_2">
     <g id="line2d_2">
      <g>
       <use xlink:href="#md55b86c368" x="140.710304" y="450.72" style="fill: #323034; stroke: #323034; stroke-width: 0.8"/>
      </g>
     </g>
     <g id="text_2">
      <!-- $\mathdefault{10}$ -->
      <g style="fill: #323034" transform="translate(134.710304 465.915625)scale(0.12 -0.12)">
       <defs>
        <path id="STIXGeneral-Regular-31" d="M 2522 0 
L 755 0 
L 755 96 
Q 1107 115 1235 227 
Q 1363 339 1363 608 
L 1363 3482 
Q 1363 3795 1171 3795 
Q 1082 3795 883 3718 
L 710 3654 
L 710 3744 
L 1856 4326 
L 1914 4307 
L 1914 486 
Q 1914 275 2042 185 
Q 2170 96 2522 96 
L 2522 0 
z
" transform="scale(0.015625)"/>
        <path id="STIXGeneral-Regular-30" d="M 3046 2112 
Q 3046 1683 2963 1302 
Q 2880 922 2717 602 
Q 2554 282 2266 96 
Q 1978 -90 1600 -90 
Q 1210 -90 915 108 
Q 621 307 461 640 
Q 301 973 227 1350 
Q 154 1728 154 2150 
Q 154 2746 301 3222 
Q 448 3699 790 4012 
Q 1133 4326 1626 4326 
Q 2253 4326 2649 3712 
Q 3046 3098 3046 2112 
z
M 2432 2080 
Q 2432 3091 2217 3625 
Q 2003 4160 1587 4160 
Q 1190 4160 979 3622 
Q 768 3085 768 2106 
Q 768 1120 979 598 
Q 1190 77 1600 77 
Q 2003 77 2217 598 
Q 2432 1120 2432 2080 
z
" transform="scale(0.015625)"/>
       </defs>
       <use xlink:href="#STIXGeneral-Regular-31" transform="translate(0 0.40625)"/>
       <use xlink:href="#STIXGeneral-Regular-30" transform="translate(49.999985 0.40625)"/>
      </g>
     </g>
    </g>
    <g id="xtick_3">
     <g id="line2d_3">
      <g>
       <use xlink:href="#md55b86c368" x="198.468372" y="450.72" style="fill: #323034; stroke: #323034; stroke-width: 0.8"/>
      </g>
     </g>
     <g id="text_3">
      <!-- $\mathdefault{12}$ -->
      <g style="fill: #323034" transform="translate(192.468372 465.915625)scale(0.12 -0.12)">
       <defs>
        <path id="STIXGeneral-Regular-32" d="M 3034 877 
L 2688 0 
L 186 0 
L 186 77 
L 1325 1286 
Q 1773 1754 1965 2144 
Q 2157 2534 2157 2950 
Q 2157 3379 1920 3616 
Q 1683 3853 1267 3853 
Q 922 3853 720 3673 
Q 518 3494 326 3021 
L 192 3053 
Q 301 3648 630 3987 
Q 960 4326 1523 4326 
Q 2054 4326 2380 4006 
Q 2707 3686 2707 3200 
Q 2707 2477 1888 1613 
L 832 486 
L 2330 486 
Q 2541 486 2665 569 
Q 2790 653 2944 915 
L 3034 877 
z
" transform="scale(0.015625)"/>
       </defs>
       <use xlink:href="#STIXGeneral-Regular-31" transform="translate(0 0.40625)"/>
       <use xlink:href="#STIXGeneral-Regular-32" transform="translate(49.999985 0.40625)"/>
      </g>
     </g>
    </g>
    <g id="xtick_4">
     <g id="line2d_4">
      <g>
       <use xlink:href="#md55b86c368" x="256.22644" y="450.72" style="fill: #323034; stroke: #323034; stroke-width: 0.8"/>
      </g>
     </g>
     <g id="text_4">
      <!-- $\mathdefault{14}$ -->
      <g style="fill: #323034" transform="translate(250.22644 465.915625)scale(0.12 -0.12)">
       <defs>
        <path id="STIXGeneral-Regular-34" d="M 3027 1069 
L 2368 1069 
L 2368 0 
L 1869 0 
L 1869 1069 
L 77 1069 
L 77 1478 
L 2086 4326 
L 2368 4326 
L 2368 1478 
L 3027 1478 
L 3027 1069 
z
M 1869 1478 
L 1869 3674 
L 333 1478 
L 1869 1478 
z
" transform="scale(0.015625)"/>
       </defs>
       <use xlink:href="#STIXGeneral-Regular-31" transform="translate(0 0.40625)"/>
       <use xlink:href="#STIXGeneral-Regular-34" transform="translate(49.999985 0.40625)"/>
      </g>
     </g>
    </g>
    <g id="xtick_5">
     <g id="line2d_5">
      <g>
       <use xlink:href="#md55b86c368" x="313.984507" y="450.72" style="fill: #323034; stroke: #323034; stroke-width: 0.8"/>
      </g>
     </g>
     <g id="text_5">
      <!-- $\mathdefault{16}$ -->
      <g style="fill: #323034" transform="translate(307.984507 465.915625)scale(0.12 -0.12)">
       <defs>
        <path id="STIXGeneral-Regular-36" d="M 2854 4378 
L 2867 4275 
Q 2112 4154 1606 3664 
Q 1101 3174 973 2451 
Q 1344 2739 1786 2739 
Q 2349 2739 2672 2380 
Q 2995 2022 2995 1402 
Q 2995 774 2669 378 
Q 2291 -90 1651 -90 
Q 870 -90 518 557 
Q 218 1107 218 1786 
Q 218 2835 915 3552 
Q 1312 3962 1731 4131 
Q 2150 4301 2854 4378 
z
M 2419 1203 
Q 2419 2445 1555 2445 
Q 1235 2445 1024 2275 
Q 813 2106 813 1702 
Q 813 954 1046 522 
Q 1280 90 1722 90 
Q 2061 90 2240 394 
Q 2419 698 2419 1203 
z
" transform="scale(0.015625)"/>
       </defs>
       <use xlink:href="#STIXGeneral-Regular-31" transform="translate(0 0.59375)"/>
       <use xlink:href="#STIXGeneral-Regular-36" transform="translate(49.999985 0.59375)"/>
      </g>
     </g>
    </g>
    <g id="xtick_6">
     <g id="line2d_6">
      <g>
       <use xlink:href="#md55b86c368" x="371.742575" y="450.72" style="fill: #323034; stroke: #323034; stroke-width: 0.8"/>
      </g>
     </g>
     <g id="text_6">
      <!-- $\mathdefault{18}$ -->
      <g style="fill: #323034" transform="translate(365.742575 465.915625)scale(0.12 -0.12)">
       <use xlink:href="#STIXGeneral-Regular-31" transform="translate(0 0.40625)"/>
       <use xlink:href="#STIXGeneral-Regular-38" transform="translate(49.999985 0.40625)"/>
      </g>
     </g>
    </g>
   </g>
   <g id="matplotlib.axis_2">
    <g id="ytick_1">
     <g id="line2d_7">
      <defs>
       <path id="mf1a69d6a18" d="M 0 0 
L -3.5 0 
" style="stroke: #323034; stroke-width: 0.8"/>
      </defs>
      <g>
       <use xlink:href="#mf1a69d6a18" x="26.2" y="379.660676" style="fill: #323034; stroke: #323034; stroke-width: 0.8"/>
      </g>
     </g>
     <g id="text_7">
      <!-- $\mathdefault{38}$ -->
      <g style="fill: #323034" transform="translate(7.2 383.758488)scale(0.12 -0.12)">
       <defs>
        <path id="STIXGeneral-Regular-33" d="M 390 3264 
L 288 3290 
Q 435 3770 748 4048 
Q 1062 4326 1542 4326 
Q 1990 4326 2265 4083 
Q 2541 3840 2541 3450 
Q 2541 2925 1946 2566 
Q 2298 2413 2477 2227 
Q 2758 1914 2758 1402 
Q 2758 890 2464 506 
Q 2246 211 1840 60 
Q 1434 -90 979 -90 
Q 262 -90 262 275 
Q 262 378 339 442 
Q 416 506 525 506 
Q 685 506 915 339 
Q 1197 141 1466 141 
Q 1818 141 2058 425 
Q 2298 710 2298 1120 
Q 2298 1856 1632 2048 
Q 1434 2112 979 2112 
L 979 2202 
Q 1338 2323 1517 2432 
Q 2035 2726 2035 3290 
Q 2035 3610 1852 3776 
Q 1670 3942 1344 3942 
Q 768 3942 390 3264 
z
" transform="scale(0.015625)"/>
       </defs>
       <use xlink:href="#STIXGeneral-Regular-33" transform="translate(0 0.40625)"/>
       <use xlink:href="#STIXGeneral-Regular-38" transform="translate(49.999985 0.40625)"/>
      </g>
     </g>
    </g>
    <g id="ytick_2">
     <g id="line2d_8">
      <g>
       <use xlink:href="#mf1a69d6a18" x="26.2" y="302.079598" style="fill: #323034; stroke: #323034; stroke-width: 0.8"/>
      </g>
     </g>
     <g id="text_8">
      <!-- $\mathdefault{40}$ -->
      <g style="fill: #323034" transform="translate(7.2 306.17741)scale(0.12 -0.12)">
       <use xlink:href="#STIXGeneral-Regular-34" transform="translate(0 0.40625)"/>
       <use xlink:href="#STIXGeneral-Regular-30" transform="translate(49.999985 0.40625)"/>
      </g>
     </g>
    </g>
    <g id="ytick_3">
     <g id="line2d_9">
      <g>
       <use xlink:href="#mf1a69d6a18" x="26.2" y="224.49852" style="fill: #323034; stroke: #323034; stroke-width: 0.8"/>
      </g>
     </g>
     <g id="text_9">
      <!-- $\mathdefault{42}$ -->
      <g style="fill: #323034" transform="translate(7.2 228.596332)scale(0.12 -0.12)">
       <use xlink:href="#STIXGeneral-Regular-34" transform="translate(0 0.40625)"/>
       <use xlink:href="#STIXGeneral-Regular-32" transform="translate(49.999985 0.40625)"/>
      </g>
     </g>
    </g>
    <g id="ytick_4">
     <g id="line2d_10">
      <g>
       <use xlink:href="#mf1a69d6a18" x="26.2" y="146.917442" style="fill: #323034; stroke: #323034; stroke-width: 0.8"/>
      </g>
     </g>
     <g id="text_10">
      <!-- $\mathdefault{44}$ -->
      <g style="fill: #323034" transform="translate(7.2 151.015254)scale(0.12 -0.12)">
       <use xlink:href="#STIXGeneral-Regular-34" transform="translate(0 0.40625)"/>
       <use xlink:href="#STIXGeneral-Regular-34" transform="translate(49.999985 0.40625)"/>
      </g>
     </g>
    </g>
    <g id="ytick_5">
     <g id="line2d_11">
      <g>
       <use xlink:href="#mf1a69d6a18" x="26.2" y="69.336364" style="fill: #323034; stroke: #323034; stroke-width: 0.8"/>
      </g>
     </g>
     <g id="text_11">
      <!-- $\mathdefault{46}$ -->
      <g style="fill: #323034" transform="translate(7.2 73.434176)scale(0.12 -0.12)">
       <use xlink:href="#STIXGeneral-Regular-34" transform="translate(0 0.59375)"/>
       <use xlink:href="#STIXGeneral-Regular-36" transform="translate(49.999985 0.59375)"/>
      </g>
     </g>
    </g>
   </g>
   <g id="patch_3">
    <path d="M 26.2 450.72 
L 26.2 7.2 
" style="fill: none; stroke: #000000; stroke-width: 0.6; stroke-linejoin: miter; stroke-linecap: square"/>
   </g>
   <g id="patch_4">
    <path d="M 26.2 450.72 
L 402.895691 450.72 
" style="fill: none; stroke: #000000; stroke-width: 0.6; stroke-linejoin: miter; stroke-linecap: square"/>
   </g>
  </g>
 </g>
 <defs>
  <clipPath id="p9777552e8e">
   <rect x="26.2" y="7.2" width="376.695691" height="443.52"/>
  </clipPath>
 </defs>
</svg>
