<?xml version="1.0" encoding="utf-8" standalone="no"?>
<!DOCTYPE svg PUBLIC "-//W3C//DTD SVG 1.1//EN"
  "http://www.w3.org/Graphics/SVG/1.1/DTD/svg11.dtd">
<svg height="253.737813pt" version="1.1" viewBox="0 0 377.2 253.737813" width="377.2pt" xmlns="http://www.w3.org/2000/svg" xmlns:xlink="http://www.w3.org/1999/xlink">
 <metadata>
  <rdf:RDF xmlns:cc="http://creativecommons.org/ns#" xmlns:dc="http://purl.org/dc/elements/1.1/" xmlns:rdf="http://www.w3.org/1999/02/22-rdf-syntax-ns#">
   <cc:Work>
    <dc:type rdf:resource="http://purl.org/dc/dcmitype/StillImage"/>
    <dc:date>2022-08-20T18:07:15.356880</dc:date>
    <dc:format>image/svg+xml</dc:format>
    <dc:creator>
     <cc:Agent>
      <dc:title>Matplotlib v3.4.3, https://matplotlib.org/</dc:title>
     </cc:Agent>
    </dc:creator>
   </cc:Work>
  </rdf:RDF>
 </metadata>
 <defs>
  <style type="text/css">*{stroke-linecap:butt;stroke-linejoin:round;}</style>
 </defs>
 <g id="figure_1">
  <g id="patch_1">
   <path d="M 0 253.737813 
L 377.2 253.737813 
L 377.2 0 
L 0 0 
z
" style="fill:none;"/>
  </g>
  <g id="axes_1">
   <g id="patch_2">
    <path d="M 29.2 228.737813 
L 364 228.737813 
L 364 11.297813 
L 29.2 11.297813 
z
" style="fill:#ffffff;"/>
   </g>
   <g id="matplotlib.axis_1">
    <g id="xtick_1">
     <g id="line2d_1">
      <defs>
       <path d="M 0 0 
L 0 3.5 
" id="m6f7829fb75" style="stroke:#323034;stroke-width:0.8;"/>
      </defs>
      <g>
       <use style="fill:#323034;stroke:#323034;stroke-width:0.8;" x="29.2" xlink:href="#m6f7829fb75" y="228.737813"/>
      </g>
     </g>
     <g id="text_1">
      <!-- $\mathdefault{−2}$ -->
      <g style="fill:#323034;" transform="translate(22.06 243.933438)scale(0.12 -0.12)">
       <defs>
        <path d="M 3974 1408 
L 410 1408 
L 410 1830 
L 3974 1830 
L 3974 1408 
z
" id="STIXGeneral-Regular-2212" transform="scale(0.015625)"/>
        <path d="M 3034 877 
L 2688 0 
L 186 0 
L 186 77 
L 1325 1286 
Q 1773 1754 1965 2144 
Q 2157 2534 2157 2950 
Q 2157 3379 1920 3616 
Q 1683 3853 1267 3853 
Q 922 3853 720 3673 
Q 518 3494 326 3021 
L 192 3053 
Q 301 3648 630 3987 
Q 960 4326 1523 4326 
Q 2054 4326 2380 4006 
Q 2707 3686 2707 3200 
Q 2707 2477 1888 1613 
L 832 486 
L 2330 486 
Q 2541 486 2665 569 
Q 2790 653 2944 915 
L 3034 877 
z
" id="STIXGeneral-Regular-32" transform="scale(0.015625)"/>
       </defs>
       <use transform="translate(0 0.40625)" xlink:href="#STIXGeneral-Regular-2212"/>
       <use transform="translate(68.499985 0.40625)" xlink:href="#STIXGeneral-Regular-32"/>
      </g>
     </g>
    </g>
    <g id="xtick_2">
     <g id="line2d_2">
      <g>
       <use style="fill:#323034;stroke:#323034;stroke-width:0.8;" x="85" xlink:href="#m6f7829fb75" y="228.737813"/>
      </g>
     </g>
     <g id="text_2">
      <!-- $\mathdefault{0}$ -->
      <g style="fill:#323034;" transform="translate(82 243.933438)scale(0.12 -0.12)">
       <defs>
        <path d="M 3046 2112 
Q 3046 1683 2963 1302 
Q 2880 922 2717 602 
Q 2554 282 2266 96 
Q 1978 -90 1600 -90 
Q 1210 -90 915 108 
Q 621 307 461 640 
Q 301 973 227 1350 
Q 154 1728 154 2150 
Q 154 2746 301 3222 
Q 448 3699 790 4012 
Q 1133 4326 1626 4326 
Q 2253 4326 2649 3712 
Q 3046 3098 3046 2112 
z
M 2432 2080 
Q 2432 3091 2217 3625 
Q 2003 4160 1587 4160 
Q 1190 4160 979 3622 
Q 768 3085 768 2106 
Q 768 1120 979 598 
Q 1190 77 1600 77 
Q 2003 77 2217 598 
Q 2432 1120 2432 2080 
z
" id="STIXGeneral-Regular-30" transform="scale(0.015625)"/>
       </defs>
       <use transform="translate(0 0.40625)" xlink:href="#STIXGeneral-Regular-30"/>
      </g>
     </g>
    </g>
    <g id="xtick_3">
     <g id="line2d_3">
      <g>
       <use style="fill:#323034;stroke:#323034;stroke-width:0.8;" x="140.8" xlink:href="#m6f7829fb75" y="228.737813"/>
      </g>
     </g>
     <g id="text_3">
      <!-- $\mathdefault{2}$ -->
      <g style="fill:#323034;" transform="translate(137.8 243.933438)scale(0.12 -0.12)">
       <use transform="translate(0 0.40625)" xlink:href="#STIXGeneral-Regular-32"/>
      </g>
     </g>
    </g>
    <g id="xtick_4">
     <g id="line2d_4">
      <g>
       <use style="fill:#323034;stroke:#323034;stroke-width:0.8;" x="196.6" xlink:href="#m6f7829fb75" y="228.737813"/>
      </g>
     </g>
     <g id="text_4">
      <!-- $\mathdefault{4}$ -->
      <g style="fill:#323034;" transform="translate(193.6 243.933438)scale(0.12 -0.12)">
       <defs>
        <path d="M 3027 1069 
L 2368 1069 
L 2368 0 
L 1869 0 
L 1869 1069 
L 77 1069 
L 77 1478 
L 2086 4326 
L 2368 4326 
L 2368 1478 
L 3027 1478 
L 3027 1069 
z
M 1869 1478 
L 1869 3674 
L 333 1478 
L 1869 1478 
z
" id="STIXGeneral-Regular-34" transform="scale(0.015625)"/>
       </defs>
       <use transform="translate(0 0.40625)" xlink:href="#STIXGeneral-Regular-34"/>
      </g>
     </g>
    </g>
    <g id="xtick_5">
     <g id="line2d_5">
      <g>
       <use style="fill:#323034;stroke:#323034;stroke-width:0.8;" x="252.4" xlink:href="#m6f7829fb75" y="228.737813"/>
      </g>
     </g>
     <g id="text_5">
      <!-- $\mathdefault{6}$ -->
      <g style="fill:#323034;" transform="translate(249.4 243.933438)scale(0.12 -0.12)">
       <defs>
        <path d="M 2854 4378 
L 2867 4275 
Q 2112 4154 1606 3664 
Q 1101 3174 973 2451 
Q 1344 2739 1786 2739 
Q 2349 2739 2672 2380 
Q 2995 2022 2995 1402 
Q 2995 774 2669 378 
Q 2291 -90 1651 -90 
Q 870 -90 518 557 
Q 218 1107 218 1786 
Q 218 2835 915 3552 
Q 1312 3962 1731 4131 
Q 2150 4301 2854 4378 
z
M 2419 1203 
Q 2419 2445 1555 2445 
Q 1235 2445 1024 2275 
Q 813 2106 813 1702 
Q 813 954 1046 522 
Q 1280 90 1722 90 
Q 2061 90 2240 394 
Q 2419 698 2419 1203 
z
" id="STIXGeneral-Regular-36" transform="scale(0.015625)"/>
       </defs>
       <use transform="translate(0 0.59375)" xlink:href="#STIXGeneral-Regular-36"/>
      </g>
     </g>
    </g>
    <g id="xtick_6">
     <g id="line2d_6">
      <g>
       <use style="fill:#323034;stroke:#323034;stroke-width:0.8;" x="308.2" xlink:href="#m6f7829fb75" y="228.737813"/>
      </g>
     </g>
     <g id="text_6">
      <!-- $\mathdefault{8}$ -->
      <g style="fill:#323034;" transform="translate(305.2 243.933438)scale(0.12 -0.12)">
       <defs>
        <path d="M 2848 992 
Q 2848 499 2505 204 
Q 2163 -90 1587 -90 
Q 1050 -90 704 204 
Q 358 499 358 954 
Q 358 1293 524 1533 
Q 691 1773 1190 2125 
Q 710 2522 553 2765 
Q 397 3008 397 3328 
Q 397 3782 745 4054 
Q 1094 4326 1638 4326 
Q 2106 4326 2410 4060 
Q 2714 3795 2714 3411 
Q 2714 3059 2531 2848 
Q 2349 2637 1856 2374 
Q 2432 1990 2640 1689 
Q 2848 1389 2848 992 
z
M 2272 3411 
Q 2272 3744 2086 3945 
Q 1901 4147 1574 4147 
Q 1248 4147 1059 3977 
Q 870 3808 870 3513 
Q 870 3219 1059 2979 
Q 1248 2739 1670 2490 
Q 1997 2682 2134 2896 
Q 2272 3110 2272 3411 
z
M 1734 1741 
L 1357 1997 
Q 1075 1766 960 1545 
Q 845 1325 845 1011 
Q 845 576 1065 333 
Q 1286 90 1658 90 
Q 1971 90 2166 285 
Q 2362 480 2362 794 
Q 2362 1082 2214 1299 
Q 2067 1517 1734 1741 
z
" id="STIXGeneral-Regular-38" transform="scale(0.015625)"/>
       </defs>
       <use transform="translate(0 0.40625)" xlink:href="#STIXGeneral-Regular-38"/>
      </g>
     </g>
    </g>
    <g id="xtick_7">
     <g id="line2d_7">
      <g>
       <use style="fill:#323034;stroke:#323034;stroke-width:0.8;" x="364" xlink:href="#m6f7829fb75" y="228.737813"/>
      </g>
     </g>
     <g id="text_7">
      <!-- $\mathdefault{10}$ -->
      <g style="fill:#323034;" transform="translate(358 243.933438)scale(0.12 -0.12)">
       <defs>
        <path d="M 2522 0 
L 755 0 
L 755 96 
Q 1107 115 1235 227 
Q 1363 339 1363 608 
L 1363 3482 
Q 1363 3795 1171 3795 
Q 1082 3795 883 3718 
L 710 3654 
L 710 3744 
L 1856 4326 
L 1914 4307 
L 1914 486 
Q 1914 275 2042 185 
Q 2170 96 2522 96 
L 2522 0 
z
" id="STIXGeneral-Regular-31" transform="scale(0.015625)"/>
       </defs>
       <use transform="translate(0 0.40625)" xlink:href="#STIXGeneral-Regular-31"/>
       <use transform="translate(49.999985 0.40625)" xlink:href="#STIXGeneral-Regular-30"/>
      </g>
     </g>
    </g>
   </g>
   <g id="matplotlib.axis_2">
    <g id="ytick_1">
     <g id="line2d_8">
      <defs>
       <path d="M 0 0 
L -3.5 0 
" id="m9d4aad49d5" style="stroke:#323034;stroke-width:0.8;"/>
      </defs>
      <g>
       <use style="fill:#323034;stroke:#323034;stroke-width:0.8;" x="29.2" xlink:href="#m9d4aad49d5" y="228.737813"/>
      </g>
     </g>
     <g id="text_8">
      <!-- $\mathdefault{0.0}$ -->
      <g style="fill:#323034;" transform="translate(7.2 232.835625)scale(0.12 -0.12)">
       <defs>
        <path d="M 1158 275 
Q 1158 134 1052 32 
Q 947 -70 800 -70 
Q 653 -70 550 32 
Q 448 134 448 281 
Q 448 429 553 534 
Q 659 640 806 640 
Q 947 640 1052 531 
Q 1158 422 1158 275 
z
" id="STIXGeneral-Regular-2e" transform="scale(0.015625)"/>
       </defs>
       <use transform="translate(0 0.40625)" xlink:href="#STIXGeneral-Regular-30"/>
       <use transform="translate(49.999985 0.40625)" xlink:href="#STIXGeneral-Regular-2e"/>
       <use transform="translate(74.999969 0.40625)" xlink:href="#STIXGeneral-Regular-30"/>
      </g>
     </g>
    </g>
    <g id="ytick_2">
     <g id="line2d_9">
      <g>
       <use style="fill:#323034;stroke:#323034;stroke-width:0.8;" x="29.2" xlink:href="#m9d4aad49d5" y="192.497813"/>
      </g>
     </g>
     <g id="text_9">
      <!-- $\mathdefault{0.2}$ -->
      <g style="fill:#323034;" transform="translate(7.2 196.595625)scale(0.12 -0.12)">
       <use transform="translate(0 0.40625)" xlink:href="#STIXGeneral-Regular-30"/>
       <use transform="translate(49.999985 0.40625)" xlink:href="#STIXGeneral-Regular-2e"/>
       <use transform="translate(74.999969 0.40625)" xlink:href="#STIXGeneral-Regular-32"/>
      </g>
     </g>
    </g>
    <g id="ytick_3">
     <g id="line2d_10">
      <g>
       <use style="fill:#323034;stroke:#323034;stroke-width:0.8;" x="29.2" xlink:href="#m9d4aad49d5" y="156.257812"/>
      </g>
     </g>
     <g id="text_10">
      <!-- $\mathdefault{0.4}$ -->
      <g style="fill:#323034;" transform="translate(7.2 160.355625)scale(0.12 -0.12)">
       <use transform="translate(0 0.40625)" xlink:href="#STIXGeneral-Regular-30"/>
       <use transform="translate(49.999985 0.40625)" xlink:href="#STIXGeneral-Regular-2e"/>
       <use transform="translate(74.999969 0.40625)" xlink:href="#STIXGeneral-Regular-34"/>
      </g>
     </g>
    </g>
    <g id="ytick_4">
     <g id="line2d_11">
      <g>
       <use style="fill:#323034;stroke:#323034;stroke-width:0.8;" x="29.2" xlink:href="#m9d4aad49d5" y="120.017813"/>
      </g>
     </g>
     <g id="text_11">
      <!-- $\mathdefault{0.6}$ -->
      <g style="fill:#323034;" transform="translate(7.2 124.115625)scale(0.12 -0.12)">
       <use transform="translate(0 0.59375)" xlink:href="#STIXGeneral-Regular-30"/>
       <use transform="translate(49.999985 0.59375)" xlink:href="#STIXGeneral-Regular-2e"/>
       <use transform="translate(74.999969 0.59375)" xlink:href="#STIXGeneral-Regular-36"/>
      </g>
     </g>
    </g>
    <g id="ytick_5">
     <g id="line2d_12">
      <g>
       <use style="fill:#323034;stroke:#323034;stroke-width:0.8;" x="29.2" xlink:href="#m9d4aad49d5" y="83.777813"/>
      </g>
     </g>
     <g id="text_12">
      <!-- $\mathdefault{0.8}$ -->
      <g style="fill:#323034;" transform="translate(7.2 87.875625)scale(0.12 -0.12)">
       <use transform="translate(0 0.40625)" xlink:href="#STIXGeneral-Regular-30"/>
       <use transform="translate(49.999985 0.40625)" xlink:href="#STIXGeneral-Regular-2e"/>
       <use transform="translate(74.999969 0.40625)" xlink:href="#STIXGeneral-Regular-38"/>
      </g>
     </g>
    </g>
    <g id="ytick_6">
     <g id="line2d_13">
      <g>
       <use style="fill:#323034;stroke:#323034;stroke-width:0.8;" x="29.2" xlink:href="#m9d4aad49d5" y="47.537813"/>
      </g>
     </g>
     <g id="text_13">
      <!-- $\mathdefault{1.0}$ -->
      <g style="fill:#323034;" transform="translate(7.2 51.635625)scale(0.12 -0.12)">
       <use transform="translate(0 0.40625)" xlink:href="#STIXGeneral-Regular-31"/>
       <use transform="translate(49.999985 0.40625)" xlink:href="#STIXGeneral-Regular-2e"/>
       <use transform="translate(74.999969 0.40625)" xlink:href="#STIXGeneral-Regular-30"/>
      </g>
     </g>
    </g>
    <g id="ytick_7">
     <g id="line2d_14">
      <g>
       <use style="fill:#323034;stroke:#323034;stroke-width:0.8;" x="29.2" xlink:href="#m9d4aad49d5" y="11.297812"/>
      </g>
     </g>
     <g id="text_14">
      <!-- $\mathdefault{1.2}$ -->
      <g style="fill:#323034;" transform="translate(7.2 15.395625)scale(0.12 -0.12)">
       <use transform="translate(0 0.40625)" xlink:href="#STIXGeneral-Regular-31"/>
       <use transform="translate(49.999985 0.40625)" xlink:href="#STIXGeneral-Regular-2e"/>
       <use transform="translate(74.999969 0.40625)" xlink:href="#STIXGeneral-Regular-32"/>
      </g>
     </g>
    </g>
   </g>
   <g id="line2d_15">
    <defs>
     <path d="M 0 3 
C 0.795609 3 1.55874 2.683901 2.12132 2.12132 
C 2.683901 1.55874 3 0.795609 3 0 
C 3 -0.795609 2.683901 -1.55874 2.12132 -2.12132 
C 1.55874 -2.683901 0.795609 -3 0 -3 
C -0.795609 -3 -1.55874 -2.683901 -2.12132 -2.12132 
C -2.683901 -1.55874 -3 -0.795609 -3 0 
C -3 0.795609 -2.683901 1.55874 -2.12132 2.12132 
C -1.55874 2.683901 -0.795609 3 0 3 
z
" id="md826510a8a" style="stroke:#000000;"/>
    </defs>
    <g clip-path="url(#pfb3261ea2a)">
     <use style="fill:#bc80bd;stroke:#000000;" x="85" xlink:href="#md826510a8a" y="47.537813"/>
     <use style="fill:#bc80bd;stroke:#000000;" x="112.9" xlink:href="#md826510a8a" y="98.902339"/>
     <use style="fill:#bc80bd;stroke:#000000;" x="140.8" xlink:href="#md826510a8a" y="135.706631"/>
     <use style="fill:#bc80bd;stroke:#000000;" x="168.7" xlink:href="#md826510a8a" y="162.078058"/>
     <use style="fill:#bc80bd;stroke:#000000;" x="196.6" xlink:href="#md826510a8a" y="180.974011"/>
     <use style="fill:#bc80bd;stroke:#000000;" x="224.5" xlink:href="#md826510a8a" y="194.513553"/>
     <use style="fill:#bc80bd;stroke:#000000;" x="252.4" xlink:href="#md826510a8a" y="204.215059"/>
     <use style="fill:#bc80bd;stroke:#000000;" x="280.3" xlink:href="#md826510a8a" y="211.166492"/>
     <use style="fill:#bc80bd;stroke:#000000;" x="308.2" xlink:href="#md826510a8a" y="216.147411"/>
     <use style="fill:#bc80bd;stroke:#000000;" x="336.1" xlink:href="#md826510a8a" y="219.716396"/>
    </g>
   </g>
   <g id="line2d_16">
    <path clip-path="url(#pfb3261ea2a)" d="M 85 47.537813 
L 87.79 53.454601 
L 90.58 59.186274 
L 93.37 64.737222 
L 96.16 70.111835 
L 98.95 75.314503 
L 101.74 80.349617 
L 104.53 85.221567 
L 107.32 89.934744 
L 110.11 94.493538 
L 112.9 98.902339 
L 115.69 103.165538 
L 118.48 107.287525 
L 121.27 111.27269 
L 124.06 115.125424 
L 126.85 118.850116 
L 129.64 122.451159 
L 132.43 125.932941 
L 135.22 129.299854 
L 138.01 132.556287 
L 140.8 135.706631 
L 143.59 138.755013 
L 146.38 141.704509 
L 149.17 144.557931 
L 151.96 147.318091 
L 154.75 149.987802 
L 157.54 152.569877 
L 160.33 155.067128 
L 163.12 157.482366 
L 165.91 159.818406 
L 168.7 162.078058 
L 171.49 164.264017 
L 174.28 166.378507 
L 177.07 168.42363 
L 179.86 170.401492 
L 182.65 172.314196 
L 185.44 174.163848 
L 188.23 175.952551 
L 191.02 177.682409 
L 193.81 179.355528 
L 196.6 180.974011 
L 199.39 182.53986 
L 202.18 184.054661 
L 204.97 185.519901 
L 207.76 186.937064 
L 210.55 188.307634 
L 213.34 189.633095 
L 216.13 190.914933 
L 218.92 192.154633 
L 221.71 193.353678 
L 224.5 194.513553 
L 227.29 195.635674 
L 230.08 196.721178 
L 232.87 197.771131 
L 235.66 198.786601 
L 238.45 199.768656 
L 241.24 200.718364 
L 244.03 201.63679 
L 246.82 202.525003 
L 249.61 203.38407 
L 252.4 204.215059 
L 255.19 205.018988 
L 257.98 205.796679 
L 260.77 206.548907 
L 263.56 207.276444 
L 266.35 207.980064 
L 269.14 208.660542 
L 271.93 209.318649 
L 274.72 209.955161 
L 277.51 210.570851 
L 280.3 211.166492 
L 283.09 211.742815 
L 285.88 212.300378 
L 288.67 212.839698 
L 291.46 213.361289 
L 294.25 213.865667 
L 297.04 214.353348 
L 299.83 214.824847 
L 302.62 215.28068 
L 305.41 215.721363 
L 308.2 216.147411 
L 310.99 216.55934 
L 313.78 216.957664 
L 316.57 217.342901 
L 319.36 217.715565 
L 322.15 218.076172 
L 324.94 218.425237 
L 327.73 218.763277 
L 330.52 219.090806 
L 333.31 219.40834 
" style="fill:none;stroke:#fb8072;stroke-linecap:square;stroke-width:2;"/>
   </g>
   <g id="patch_3">
    <path d="M 29.2 228.737813 
L 29.2 11.297812 
" style="fill:none;stroke:#000000;stroke-linecap:square;stroke-linejoin:miter;stroke-width:0.6;"/>
   </g>
   <g id="patch_4">
    <path d="M 29.2 228.737813 
L 364 228.737813 
" style="fill:none;stroke:#000000;stroke-linecap:square;stroke-linejoin:miter;stroke-width:0.6;"/>
   </g>
  </g>
 </g>
 <defs>
  <clipPath id="pfb3261ea2a">
   <rect height="217.44" width="334.8" x="29.2" y="11.297813"/>
  </clipPath>
 </defs>
</svg>
