<?xml version="1.0" encoding="utf-8" standalone="no"?>
<!DOCTYPE svg PUBLIC "-//W3C//DTD SVG 1.1//EN"
  "http://www.w3.org/Graphics/SVG/1.1/DTD/svg11.dtd">
<svg xmlns:xlink="http://www.w3.org/1999/xlink" width="410.611827pt" height="303.656699pt" viewBox="0 0 410.611827 303.656699" xmlns="http://www.w3.org/2000/svg" version="1.1">
 <metadata>
  <rdf:RDF xmlns:dc="http://purl.org/dc/elements/1.1/" xmlns:cc="http://creativecommons.org/ns#" xmlns:rdf="http://www.w3.org/1999/02/22-rdf-syntax-ns#">
   <cc:Work>
    <dc:type rdf:resource="http://purl.org/dc/dcmitype/StillImage"/>
    <dc:date>2022-10-24T21:59:58.671980</dc:date>
    <dc:format>image/svg+xml</dc:format>
    <dc:creator>
     <cc:Agent>
      <dc:title>Matplotlib v3.5.3, https://matplotlib.org/</dc:title>
     </cc:Agent>
    </dc:creator>
   </cc:Work>
  </rdf:RDF>
 </metadata>
 <defs>
  <style type="text/css">*{stroke-linejoin: round; stroke-linecap: butt}</style>
 </defs>
 <g id="figure_1">
  <g id="patch_1">
   <path d="M 0 303.656699 
L 410.611827 303.656699 
L 410.611827 0 
L 0 0 
z
" style="fill: #ffffff"/>
  </g>
  <g id="axes_1">
   <g id="patch_2">
    <path d="M 46.291827 246.305812 
L 403.411827 246.305812 
L 403.411827 11.297812 
L 46.291827 11.297812 
z
" style="fill: #ffffff"/>
   </g>
   <g id="PolyCollection_1">
    <defs>
     <path id="m8575251711" d="M 62.524554 -107.319007 
L 62.524554 -79.471323 
L 62.926852 -80.364065 
L 63.32915 -81.319966 
L 64.536044 -82.261106 
L 64.938343 -83.151854 
L 65.340641 -83.987775 
L 65.742939 -84.857409 
L 66.145237 -85.715222 
L 67.754429 -86.654469 
L 68.156727 -87.642061 
L 68.559025 -88.593606 
L 68.961323 -89.601508 
L 70.168217 -90.68811 
L 70.570516 -91.814774 
L 70.972814 -92.989158 
L 71.375112 -94.258862 
L 71.77741 -95.397693 
L 72.984304 -96.603615 
L 73.386602 -97.892037 
L 73.7889 -99.32174 
L 74.191198 -100.934633 
L 74.593496 -101.701792 
L 75.800391 -102.546853 
L 76.202689 -103.381611 
L 76.604987 -104.113792 
L 77.007285 -104.774797 
L 77.409583 -105.420807 
L 78.616477 -105.993507 
L 79.018775 -106.632133 
L 79.421073 -107.184851 
L 79.823371 -107.58498 
L 80.225669 -107.958081 
L 81.432564 -108.307568 
L 81.834862 -108.612587 
L 82.23716 -108.875739 
L 82.639458 -109.145785 
L 83.041756 -109.402246 
L 84.24865 -109.423633 
L 84.650948 -109.447144 
L 85.053246 -109.609198 
L 85.455544 -109.559044 
L 85.857842 -109.506436 
L 87.064737 -109.517252 
L 87.467035 -109.635589 
L 87.869333 -109.931666 
L 88.271631 -110.24532 
L 89.880823 -110.598404 
L 90.283121 -110.926831 
L 90.685419 -111.285994 
L 91.087717 -111.699764 
L 91.490015 -112.026833 
L 92.69691 -112.367842 
L 93.099208 -112.77926 
L 93.501506 -113.121095 
L 93.903804 -113.591065 
L 94.306102 -113.944568 
L 95.512996 -114.376727 
L 95.915294 -114.846721 
L 96.317592 -115.314944 
L 96.71989 -115.612706 
L 97.122188 -115.846145 
L 98.329083 -115.958679 
L 98.731381 -116.143436 
L 99.133679 -116.259132 
L 99.535977 -116.266242 
L 99.938275 -116.191243 
L 101.145169 -116.367155 
L 101.547467 -116.501024 
L 101.949765 -116.690893 
L 102.352063 -116.983714 
L 102.754361 -117.29931 
L 103.961256 -117.660154 
L 104.363554 -117.840912 
L 104.765852 -118.20207 
L 105.16815 -118.487513 
L 105.570448 -118.647251 
L 107.17964 -118.785213 
L 107.581938 -118.859703 
L 107.984236 -118.771279 
L 108.386534 -118.849054 
L 109.593429 -118.974392 
L 109.995727 -119.13977 
L 110.398025 -119.126314 
L 110.800323 -119.164814 
L 111.202621 -119.273965 
L 112.409515 -119.431266 
L 112.811813 -119.488347 
L 113.214111 -119.46815 
L 113.616409 -119.427462 
L 114.018708 -119.38989 
L 115.225602 -119.382774 
L 115.6279 -119.407707 
L 116.030198 -119.429373 
L 116.432496 -119.423951 
L 116.834794 -119.405624 
L 118.041688 -119.334284 
L 118.443986 -119.302363 
L 118.846284 -119.236785 
L 119.248582 -119.214453 
L 119.650881 -119.174404 
L 120.857775 -119.064916 
L 121.662371 -118.920562 
L 122.064669 -118.75436 
L 122.466967 -118.75348 
L 123.673861 -118.716368 
L 124.076159 -118.614871 
L 124.478457 -118.464746 
L 124.880756 -118.359125 
L 125.283054 -118.337241 
L 126.489948 -118.324321 
L 126.892246 -118.450593 
L 127.294544 -118.727672 
L 127.696842 -118.959636 
L 128.09914 -119.312582 
L 129.306034 -119.73696 
L 129.708332 -120.315371 
L 130.11063 -120.611156 
L 130.512929 -121.019145 
L 130.915227 -121.392741 
L 132.122121 -121.818543 
L 132.524419 -122.264862 
L 132.926717 -122.769707 
L 133.329015 -123.46295 
L 133.731313 -124.013444 
L 134.938207 -124.76862 
L 135.340505 -125.52867 
L 135.742803 -126.364992 
L 136.145102 -127.165143 
L 136.5474 -128.161352 
L 137.754294 -129.041051 
L 138.156592 -129.875798 
L 138.55889 -130.632888 
L 138.961188 -131.282207 
L 139.363486 -131.659285 
L 140.57038 -131.831804 
L 140.972678 -132.133938 
L 141.374977 -132.456659 
L 141.777275 -132.654808 
L 142.179573 -132.961339 
L 143.386467 -133.263902 
L 143.788765 -133.45682 
L 144.191063 -133.545687 
L 144.593361 -133.689941 
L 144.995659 -134.065929 
L 146.604851 -134.586797 
L 147.00715 -135.227682 
L 147.409448 -135.778207 
L 147.811746 -135.753736 
L 149.01864 -135.856664 
L 149.420938 -135.993415 
L 149.823236 -136.037473 
L 150.225534 -136.043085 
L 150.627832 -135.908942 
L 151.834726 -135.957615 
L 152.237025 -135.899989 
L 152.639323 -135.825497 
L 153.041621 -135.716288 
L 153.443919 -135.652066 
L 154.650813 -135.681675 
L 155.053111 -135.615529 
L 155.455409 -135.480831 
L 155.857707 -135.419497 
L 156.260005 -135.328544 
L 157.466899 -135.067286 
L 157.869198 -134.765569 
L 158.271496 -134.482402 
L 158.673794 -134.16652 
L 159.076092 -133.931279 
L 160.282986 -133.76278 
L 160.685284 -133.653348 
L 161.087582 -133.676533 
L 161.48988 -133.74751 
L 161.892178 -133.823409 
L 163.099073 -134.020712 
L 163.501371 -134.128627 
L 163.903669 -134.230456 
L 164.305967 -134.366229 
L 164.708265 -134.590962 
L 165.915159 -134.788603 
L 166.317457 -135.071371 
L 166.719755 -135.373078 
L 167.122053 -135.834674 
L 167.524351 -136.491594 
L 168.731246 -137.277649 
L 169.133544 -138.201993 
L 169.535842 -138.939841 
L 169.93814 -139.624214 
L 170.340438 -140.406361 
L 171.547332 -141.176221 
L 171.94963 -141.999791 
L 172.351928 -142.804268 
L 172.754226 -143.73095 
L 173.156524 -144.532423 
L 174.363419 -145.368876 
L 174.765717 -146.207204 
L 175.168015 -147.078691 
L 175.570313 -147.934967 
L 175.972611 -148.884029 
L 177.179505 -149.727911 
L 177.581803 -150.340225 
L 177.984101 -150.933494 
L 178.788697 -151.556082 
L 179.995592 -152.682624 
L 180.39789 -153.858788 
L 180.800188 -155.154101 
L 181.202486 -156.459008 
L 181.604784 -158.028458 
L 182.811678 -159.671217 
L 183.213976 -160.556398 
L 183.616274 -161.02648 
L 184.018572 -161.255405 
L 184.42087 -161.747879 
L 185.627765 -162.030052 
L 186.030063 -162.011713 
L 186.432361 -161.986693 
L 186.834659 -161.993728 
L 187.236957 -161.986183 
L 188.443851 -161.971903 
L 188.846149 -161.848469 
L 189.248447 -161.759292 
L 189.650745 -161.519022 
L 190.053043 -161.334265 
L 191.662236 -161.0694 
L 192.064534 -160.894239 
L 192.466832 -159.888466 
L 192.86913 -158.273795 
L 194.478322 -157.602752 
L 194.88062 -156.587446 
L 195.282918 -155.119407 
L 195.685216 -154.014756 
L 196.892111 -153.657318 
L 197.294409 -153.344801 
L 197.696707 -153.228126 
L 198.099005 -153.331177 
L 198.501303 -153.431823 
L 200.110495 -153.546405 
L 200.512793 -153.630392 
L 200.915091 -153.747626 
L 201.31739 -153.794952 
L 202.524284 -153.853657 
L 202.926582 -153.912306 
L 203.32888 -153.982007 
L 203.731178 -154.007697 
L 204.133476 -154.010336 
L 205.34037 -154.037451 
L 205.742668 -154.068639 
L 206.144966 -154.078438 
L 206.547264 -154.100781 
L 206.949563 -154.232022 
L 208.156457 -154.350755 
L 208.558755 -154.490873 
L 208.961053 -154.729219 
L 209.363351 -154.850742 
L 209.765649 -154.9774 
L 210.972543 -155.050264 
L 211.374841 -155.069975 
L 211.777139 -154.994369 
L 212.179437 -154.819819 
L 212.581736 -154.428836 
L 214.190928 -154.385582 
L 214.593226 -154.146179 
L 214.995524 -153.827076 
L 215.397822 -153.566888 
L 216.604716 -153.261645 
L 217.007014 -153.051168 
L 217.409312 -152.969521 
L 217.811611 -152.920352 
L 218.213909 -152.760188 
L 219.420803 -152.746985 
L 219.823101 -152.810061 
L 220.225399 -152.999305 
L 220.627697 -153.278302 
L 221.029995 -153.547814 
L 222.236889 -153.819396 
L 222.639187 -154.63572 
L 223.041485 -155.918428 
L 223.443784 -156.514612 
L 223.846082 -157.121698 
L 225.052976 -158.273228 
L 225.455274 -159.0271 
L 225.857572 -159.118645 
L 226.25987 -159.10747 
L 226.662168 -158.681909 
L 227.869062 -158.258658 
L 228.27136 -158.114467 
L 228.673659 -158.217598 
L 229.075957 -158.357756 
L 230.685149 -158.354243 
L 231.087447 -158.254808 
L 231.489745 -158.114361 
L 231.892043 -157.946939 
L 232.294341 -157.695906 
L 233.501235 -157.5854 
L 233.903533 -157.504646 
L 234.305832 -157.48902 
L 234.70813 -157.453326 
L 235.110428 -157.516683 
L 236.317322 -157.558504 
L 236.71962 -157.531752 
L 237.121918 -157.504494 
L 237.524216 -157.485543 
L 237.926514 -157.513009 
L 239.133408 -157.543428 
L 239.535707 -157.612601 
L 239.938005 -157.784173 
L 240.340303 -157.9768 
L 240.742601 -158.331782 
L 241.949495 -158.830615 
L 242.351793 -159.614029 
L 242.754091 -159.940556 
L 243.156389 -160.57791 
L 243.558687 -161.409775 
L 244.765581 -162.190838 
L 245.16788 -163.087052 
L 245.570178 -163.903287 
L 245.972476 -164.530504 
L 246.374774 -165.098649 
L 247.581668 -165.99376 
L 247.983966 -166.747236 
L 248.386264 -167.313078 
L 248.788562 -167.926601 
L 249.19086 -168.429705 
L 250.397754 -168.820917 
L 250.800053 -169.222538 
L 251.202351 -169.486833 
L 251.604649 -169.812705 
L 252.006947 -170.453424 
L 253.616139 -171.783193 
L 254.018437 -173.136277 
L 254.420735 -174.89452 
L 254.823033 -176.758259 
L 256.029928 -178.747731 
L 256.432226 -181.282162 
L 256.834524 -183.645604 
L 257.236822 -185.743741 
L 257.63912 -186.834173 
L 258.846014 -188.001251 
L 259.248312 -188.352528 
L 259.65061 -188.605966 
L 260.052908 -188.801248 
L 260.455206 -188.92733 
L 261.662101 -188.95129 
L 262.064399 -188.984909 
L 262.466697 -188.998151 
L 262.868995 -189.131147 
L 263.271293 -189.205217 
L 264.478187 -189.319221 
L 264.880485 -189.484314 
L 265.282783 -189.200884 
L 265.685081 -188.556195 
L 266.087379 -188.064535 
L 267.294274 -187.688394 
L 267.696572 -187.563289 
L 268.501168 -187.549318 
L 268.903466 -187.554029 
L 270.11036 -187.700214 
L 270.512658 -187.690909 
L 270.914956 -187.644641 
L 271.317254 -187.587055 
L 271.719552 -187.443312 
L 272.926447 -187.19981 
L 273.328745 -187.218274 
L 273.731043 -187.344334 
L 274.133341 -187.486286 
L 274.535639 -187.741914 
L 275.742533 -188.030528 
L 276.144831 -188.434136 
L 276.547129 -188.861338 
L 276.949427 -189.454858 
L 277.351725 -190.022817 
L 278.55862 -190.671523 
L 278.960918 -191.444879 
L 279.363216 -192.577493 
L 279.765514 -193.710001 
L 280.167812 -194.957866 
L 281.374706 -196.181796 
L 281.777004 -197.45319 
L 282.179302 -198.656838 
L 282.5816 -200.13467 
L 282.983898 -201.599282 
L 284.190793 -202.923507 
L 284.593091 -204.092331 
L 284.995389 -205.323597 
L 285.397687 -206.822301 
L 285.799985 -208.08863 
L 287.006879 -209.40623 
L 287.409177 -210.819809 
L 287.811475 -212.237846 
L 288.213773 -213.830346 
L 288.616071 -215.359086 
L 289.822966 -217.00254 
L 290.225264 -218.701467 
L 290.627562 -220.318107 
L 291.02986 -221.89874 
L 291.432158 -223.627214 
L 293.04135 -225.840591 
L 293.443648 -228.399658 
L 293.845946 -230.964249 
L 294.248245 -232.096394 
L 295.455139 -232.936998 
L 295.857437 -233.609951 
L 296.259735 -234.355059 
L 296.662033 -235.304318 
L 297.064331 -236.072907 
L 298.271225 -236.855236 
L 298.673523 -237.791014 
L 299.075821 -238.685212 
L 299.478119 -239.165489 
L 299.880418 -239.886725 
L 301.087312 -240.124933 
L 301.48961 -239.708527 
L 301.891908 -239.535202 
L 302.294206 -239.77354 
L 302.696504 -240.141846 
L 303.903398 -239.332203 
L 304.305696 -237.736353 
L 304.707994 -236.478444 
L 305.110293 -235.864821 
L 305.512591 -235.1202 
L 306.719485 -233.997762 
L 307.121783 -231.691799 
L 307.524081 -229.339409 
L 307.926379 -226.450222 
L 308.328677 -224.406209 
L 309.535571 -222.738869 
L 309.937869 -220.375298 
L 310.340167 -216.985144 
L 310.742466 -213.873483 
L 311.144764 -210.393146 
L 312.351658 -207.431466 
L 312.753956 -204.675055 
L 313.156254 -202.693454 
L 313.558552 -200.661582 
L 313.96085 -198.601278 
L 315.167744 -197.148802 
L 315.570042 -195.059441 
L 315.972341 -192.872455 
L 316.374639 -190.227981 
L 316.776937 -187.794239 
L 317.983831 -185.39166 
L 318.386129 -183.153667 
L 318.788427 -181.201715 
L 319.190725 -178.95789 
L 319.593023 -176.645733 
L 320.799917 -174.588398 
L 321.202215 -172.200211 
L 321.604514 -169.631739 
L 322.006812 -166.532802 
L 322.40911 -163.211499 
L 323.616004 -161.018817 
L 324.018302 -158.808379 
L 324.4206 -156.779003 
L 325.225196 -154.971556 
L 326.43209 -153.2091 
L 326.834388 -150.311983 
L 327.236687 -148.140242 
L 327.638985 -146.1509 
L 328.041283 -144.348425 
L 329.248177 -142.979867 
L 329.650475 -141.688601 
L 330.455071 -140.317519 
L 330.857369 -138.940052 
L 332.064263 -138.128209 
L 332.466562 -137.817797 
L 332.86886 -137.118784 
L 333.271158 -136.412932 
L 333.673456 -135.66421 
L 334.88035 -135.367549 
L 335.282648 -135.179418 
L 335.684946 -135.280924 
L 336.087244 -134.97752 
L 336.489542 -134.619057 
L 337.696436 -134.608617 
L 338.501033 -134.860589 
L 338.903331 -135.335106 
L 339.305629 -135.588344 
L 340.512523 -135.615642 
L 341.317119 -135.641119 
L 341.719417 -135.638258 
L 342.121715 -135.645838 
L 343.32861 -135.647967 
L 343.730908 -135.787152 
L 344.133206 -135.901408 
L 344.535504 -136.001708 
L 344.937802 -136.373878 
L 346.144696 -136.454817 
L 346.546994 -136.484046 
L 346.949292 -136.478704 
L 347.35159 -136.451397 
L 347.753888 -136.411719 
L 349.363081 -136.374527 
L 349.765379 -136.329938 
L 350.167677 -136.364279 
L 350.569975 -136.420918 
L 351.776869 -136.431651 
L 352.179167 -136.610505 
L 352.581465 -137.003307 
L 352.983763 -137.809283 
L 353.386061 -138.965355 
L 354.592956 -139.371144 
L 354.995254 -139.837769 
L 355.397552 -140.331794 
L 355.79985 -140.742036 
L 356.202148 -141.137336 
L 357.409042 -142.834092 
L 357.81134 -144.091652 
L 358.213638 -145.431068 
L 358.615936 -146.375757 
L 359.018234 -147.364922 
L 360.627427 -148.451291 
L 361.029725 -149.768106 
L 361.432023 -151.352909 
L 361.834321 -152.731941 
L 363.041215 -154.001871 
L 363.443513 -155.245034 
L 363.845811 -156.424587 
L 364.248109 -157.996103 
L 364.650407 -159.608676 
L 365.857302 -161.433001 
L 366.2596 -162.755584 
L 366.661898 -164.364018 
L 367.064196 -166.243637 
L 367.466494 -167.239429 
L 368.673388 -168.21102 
L 369.075686 -169.238684 
L 369.477984 -169.965665 
L 369.880282 -170.46695 
L 370.28258 -171.010138 
L 371.489475 -171.829621 
L 371.891773 -172.62912 
L 372.294071 -173.599303 
L 372.696369 -174.574949 
L 373.098667 -175.68783 
L 374.305561 -176.811019 
L 374.707859 -178.052093 
L 375.110157 -179.181302 
L 375.512455 -180.333243 
L 375.914753 -181.593295 
L 377.121648 -182.835073 
L 377.523946 -184.063936 
L 377.926244 -185.335838 
L 378.328542 -186.595396 
L 378.73084 -188.018489 
L 379.937734 -188.870434 
L 380.340032 -189.820254 
L 380.74233 -190.935612 
L 381.144628 -192.1572 
L 381.546927 -193.602778 
L 382.753821 -194.673286 
L 383.156119 -195.371969 
L 383.558417 -195.597092 
L 383.960715 -195.47065 
L 385.569907 -195.105378 
L 385.972205 -194.495506 
L 386.374503 -193.693939 
L 386.776801 -193.094234 
L 387.1791 -192.098277 
L 387.1791 -223.049166 
L 387.1791 -223.049166 
L 386.776801 -222.862683 
L 386.374503 -222.754588 
L 385.972205 -222.602342 
L 385.569907 -222.462083 
L 383.960715 -222.362625 
L 383.558417 -222.32468 
L 383.156119 -222.383525 
L 382.753821 -222.534008 
L 381.546927 -222.895115 
L 381.144628 -223.217971 
L 380.74233 -223.377726 
L 380.340032 -223.442236 
L 379.937734 -223.509393 
L 378.73084 -223.613583 
L 378.328542 -223.420976 
L 377.926244 -222.99511 
L 377.523946 -222.404567 
L 377.121648 -221.766177 
L 375.914753 -220.693597 
L 375.512455 -219.300798 
L 375.110157 -218.033231 
L 374.707859 -216.580413 
L 374.305561 -215.850159 
L 373.098667 -214.769215 
L 372.696369 -213.657577 
L 372.294071 -212.390737 
L 371.891773 -210.901447 
L 371.489475 -209.285198 
L 370.28258 -207.867566 
L 369.880282 -206.431638 
L 369.477984 -204.996994 
L 369.075686 -203.851082 
L 368.673388 -202.699296 
L 367.466494 -201.511015 
L 367.064196 -200.263246 
L 366.661898 -199.105676 
L 366.2596 -197.853672 
L 365.857302 -196.371334 
L 364.650407 -195.264935 
L 364.248109 -194.111208 
L 363.845811 -192.898726 
L 363.443513 -191.608358 
L 363.041215 -190.501495 
L 361.834321 -189.447129 
L 361.432023 -188.459214 
L 361.029725 -187.494409 
L 360.627427 -186.519667 
L 359.018234 -185.283889 
L 358.615936 -183.769856 
L 358.213638 -181.781699 
L 357.81134 -180.455909 
L 357.409042 -179.177021 
L 356.202148 -177.846257 
L 355.79985 -176.359021 
L 355.397552 -175.031251 
L 354.995254 -173.820301 
L 354.592956 -172.628064 
L 353.386061 -171.573178 
L 352.983763 -170.988579 
L 352.581465 -170.332295 
L 352.179167 -169.528087 
L 351.776869 -168.706532 
L 350.569975 -168.033325 
L 350.167677 -167.325315 
L 349.765379 -166.813041 
L 349.363081 -166.465654 
L 347.753888 -166.040901 
L 347.35159 -165.590052 
L 346.949292 -165.295883 
L 346.546994 -165.076509 
L 346.144696 -165.230709 
L 344.937802 -165.639666 
L 344.535504 -166.898555 
L 344.133206 -167.45614 
L 343.730908 -168.130681 
L 343.32861 -168.874952 
L 342.121715 -169.142331 
L 341.719417 -169.37388 
L 341.317119 -169.457932 
L 340.512523 -169.64915 
L 339.305629 -169.858572 
L 338.903331 -171.059927 
L 338.501033 -173.287711 
L 337.696436 -175.159116 
L 336.489542 -176.547927 
L 336.087244 -178.626941 
L 335.684946 -180.782473 
L 335.282648 -183.916361 
L 334.88035 -187.349582 
L 333.673456 -190.64344 
L 333.271158 -193.124748 
L 332.86886 -195.280945 
L 332.466562 -197.886789 
L 332.064263 -201.892655 
L 330.857369 -205.301609 
L 330.455071 -207.984275 
L 329.650475 -210.457413 
L 329.248177 -213.175304 
L 328.041283 -216.073148 
L 327.638985 -218.399723 
L 327.236687 -221.215879 
L 326.834388 -223.693535 
L 326.43209 -225.753422 
L 325.225196 -227.714218 
L 324.4206 -229.976304 
L 324.018302 -232.175756 
L 323.616004 -233.890274 
L 322.40911 -235.862605 
L 322.006812 -236.881188 
L 321.604514 -237.994454 
L 321.202215 -239.92194 
L 320.799917 -241.566248 
L 319.593023 -243.238907 
L 319.190725 -245.033804 
L 318.788427 -247.060678 
L 318.386129 -248.84299 
L 317.983831 -250.328276 
L 316.776937 -251.581911 
L 316.374639 -252.690639 
L 315.972341 -253.367137 
L 315.570042 -254.212265 
L 315.167744 -254.934512 
L 313.96085 -255.564126 
L 313.558552 -256.144077 
L 313.156254 -256.583468 
L 312.753956 -256.973891 
L 312.351658 -257.000673 
L 311.144764 -257.185602 
L 310.742466 -257.167564 
L 310.340167 -256.880941 
L 309.937869 -256.483446 
L 309.535571 -256.178115 
L 308.328677 -256.264338 
L 307.926379 -256.227615 
L 307.524081 -255.888547 
L 307.121783 -255.830668 
L 306.719485 -255.64488 
L 305.512591 -255.805263 
L 305.110293 -255.950288 
L 304.707994 -255.967481 
L 304.305696 -255.626049 
L 303.903398 -254.972138 
L 302.696504 -254.679325 
L 302.294206 -254.583899 
L 301.891908 -254.574687 
L 301.48961 -254.540567 
L 301.087312 -254.467998 
L 299.880418 -254.512559 
L 299.478119 -254.615845 
L 299.075821 -254.751211 
L 298.673523 -254.748242 
L 298.271225 -254.836219 
L 297.064331 -254.896549 
L 296.662033 -255.050143 
L 296.259735 -255.040301 
L 295.857437 -254.893077 
L 295.455139 -254.912949 
L 294.248245 -254.755292 
L 293.845946 -255.005822 
L 293.443648 -255.840486 
L 293.04135 -255.965568 
L 291.432158 -256.015314 
L 291.02986 -255.752854 
L 290.627562 -255.142513 
L 290.225264 -254.187307 
L 289.822966 -253.40745 
L 288.616071 -252.691746 
L 288.213773 -251.986836 
L 287.811475 -251.301181 
L 287.409177 -250.802869 
L 287.006879 -250.151494 
L 285.799985 -249.520568 
L 285.397687 -249.023156 
L 284.995389 -248.399804 
L 284.593091 -247.775339 
L 284.190793 -247.11231 
L 282.983898 -246.459299 
L 282.5816 -245.39552 
L 282.179302 -244.082908 
L 281.777004 -243.051858 
L 281.374706 -241.774744 
L 280.167812 -240.833431 
L 279.765514 -239.635762 
L 279.363216 -238.225377 
L 278.960918 -236.425144 
L 278.55862 -234.345826 
L 277.351725 -232.225574 
L 276.949427 -230.258696 
L 276.547129 -228.398651 
L 276.144831 -226.781311 
L 275.742533 -225.260781 
L 274.535639 -223.866388 
L 274.133341 -222.476557 
L 273.731043 -221.100707 
L 273.328745 -219.643243 
L 272.926447 -218.082507 
L 271.719552 -216.23566 
L 271.317254 -214.797546 
L 270.914956 -213.600883 
L 270.512658 -212.351965 
L 270.11036 -211.096043 
L 268.903466 -209.862556 
L 268.501168 -208.488939 
L 267.696572 -207.227277 
L 267.294274 -205.908358 
L 266.087379 -204.182868 
L 265.685081 -202.425791 
L 265.282783 -200.477331 
L 264.880485 -199.299152 
L 264.478187 -199.207832 
L 263.271293 -199.133829 
L 262.868995 -199.02607 
L 262.466697 -198.656712 
L 262.064399 -198.240279 
L 261.662101 -197.990116 
L 260.455206 -197.863886 
L 260.052908 -197.679381 
L 259.65061 -197.453045 
L 259.248312 -197.322682 
L 258.846014 -197.137255 
L 257.63912 -197.354632 
L 257.236822 -197.448146 
L 256.834524 -198.089906 
L 256.432226 -198.955661 
L 256.029928 -199.643493 
L 254.823033 -199.892832 
L 254.420735 -200.148418 
L 254.018437 -200.415958 
L 253.616139 -200.525353 
L 252.006947 -200.429872 
L 251.604649 -200.234312 
L 251.202351 -200.022405 
L 250.800053 -199.862665 
L 250.397754 -199.666184 
L 249.19086 -199.535463 
L 248.788562 -199.299406 
L 248.386264 -199.030508 
L 247.983966 -198.700822 
L 247.581668 -198.403986 
L 246.374774 -197.94384 
L 245.972476 -197.435139 
L 245.570178 -196.781925 
L 245.16788 -196.117125 
L 244.765581 -195.32335 
L 243.558687 -194.552313 
L 243.156389 -193.716723 
L 242.754091 -192.69253 
L 242.351793 -191.609089 
L 241.949495 -190.524418 
L 240.742601 -189.500371 
L 240.340303 -188.589131 
L 239.938005 -187.990009 
L 239.535707 -187.332016 
L 239.133408 -186.722083 
L 237.926514 -186.06832 
L 237.524216 -185.426322 
L 237.121918 -184.821597 
L 236.71962 -184.397672 
L 236.317322 -183.832631 
L 235.110428 -183.22591 
L 234.70813 -182.475523 
L 234.305832 -181.652618 
L 233.903533 -180.972658 
L 233.501235 -180.078697 
L 232.294341 -179.049322 
L 231.892043 -178.034957 
L 231.489745 -177.292772 
L 231.087447 -176.697189 
L 230.685149 -175.97846 
L 229.075957 -175.246771 
L 228.673659 -175.013307 
L 228.27136 -174.814419 
L 227.869062 -174.883454 
L 226.662168 -174.956648 
L 226.25987 -174.855075 
L 225.857572 -174.851931 
L 225.455274 -174.882589 
L 225.052976 -175.219677 
L 223.846082 -175.682728 
L 223.443784 -175.848859 
L 223.041485 -175.775068 
L 222.639187 -175.644318 
L 222.236889 -175.278646 
L 221.029995 -174.989404 
L 220.627697 -174.746088 
L 220.225399 -174.521926 
L 219.823101 -174.379662 
L 219.420803 -174.285027 
L 218.213909 -174.296507 
L 217.811611 -174.465971 
L 217.409312 -174.642356 
L 217.007014 -174.86058 
L 216.604716 -175.25116 
L 215.397822 -175.707369 
L 214.995524 -176.126555 
L 214.593226 -176.385169 
L 214.190928 -176.660448 
L 212.581736 -176.73279 
L 212.179437 -176.895137 
L 211.777139 -177.026071 
L 211.374841 -177.106295 
L 210.972543 -177.063508 
L 209.765649 -176.945948 
L 209.363351 -176.654722 
L 208.961053 -176.320543 
L 208.558755 -175.922702 
L 208.156457 -175.448362 
L 206.949563 -174.808597 
L 206.547264 -174.291054 
L 206.144966 -174.144434 
L 205.742668 -174.106479 
L 205.34037 -173.944826 
L 204.133476 -173.779906 
L 203.731178 -173.750611 
L 203.32888 -173.665001 
L 202.926582 -173.309324 
L 202.524284 -172.929434 
L 201.31739 -172.475311 
L 200.915091 -172.294935 
L 200.512793 -172.167036 
L 200.110495 -172.095193 
L 198.501303 -171.985563 
L 198.099005 -171.863609 
L 197.696707 -171.717499 
L 197.294409 -171.793127 
L 196.892111 -171.916731 
L 195.685216 -171.951125 
L 195.282918 -171.871029 
L 194.88062 -171.613133 
L 194.478322 -171.586983 
L 192.86913 -171.678172 
L 192.466832 -171.1299 
L 192.064534 -170.729749 
L 191.662236 -170.706659 
L 190.053043 -170.677285 
L 189.650745 -170.626898 
L 189.248447 -170.602541 
L 188.846149 -170.671879 
L 188.443851 -170.774537 
L 187.236957 -170.827026 
L 186.834659 -170.728566 
L 186.432361 -170.555088 
L 186.030063 -170.220825 
L 185.627765 -169.729649 
L 184.42087 -169.270755 
L 184.018572 -169.128654 
L 183.616274 -168.806693 
L 183.213976 -168.690491 
L 182.811678 -168.822008 
L 181.604784 -169.347149 
L 181.202486 -169.729796 
L 180.800188 -169.853512 
L 180.39789 -170.033597 
L 179.995592 -170.150614 
L 178.788697 -170.201652 
L 177.984101 -170.181366 
L 177.581803 -170.059055 
L 177.179505 -169.949076 
L 175.972611 -169.887761 
L 175.570313 -169.586177 
L 175.168015 -169.225595 
L 174.765717 -168.882642 
L 174.363419 -168.491757 
L 173.156524 -167.941313 
L 172.754226 -167.518408 
L 172.351928 -167.210264 
L 171.94963 -166.840534 
L 171.547332 -166.485062 
L 170.340438 -166.032693 
L 169.93814 -165.750857 
L 169.535842 -165.434553 
L 169.133544 -165.121821 
L 168.731246 -164.790686 
L 167.524351 -164.396356 
L 167.122053 -163.887126 
L 166.719755 -163.304857 
L 166.317457 -162.882954 
L 165.915159 -162.209548 
L 164.708265 -161.461758 
L 164.305967 -160.584425 
L 163.903669 -159.703701 
L 163.501371 -158.982679 
L 163.099073 -158.510998 
L 161.892178 -157.936937 
L 161.48988 -157.345817 
L 161.087582 -156.921128 
L 160.685284 -156.314303 
L 160.282986 -155.530842 
L 159.076092 -154.642224 
L 158.673794 -153.609353 
L 158.271496 -152.445401 
L 157.869198 -151.311478 
L 157.466899 -150.091672 
L 156.260005 -148.987689 
L 155.857707 -148.378026 
L 155.455409 -147.863946 
L 155.053111 -146.973972 
L 154.650813 -146.320978 
L 153.443919 -146.018272 
L 153.041621 -146.179362 
L 152.639323 -146.40083 
L 152.237025 -146.501748 
L 151.834726 -146.528617 
L 150.627832 -146.519626 
L 150.225534 -146.668164 
L 149.823236 -146.653122 
L 149.420938 -146.552362 
L 149.01864 -146.429234 
L 147.811746 -146.403942 
L 147.409448 -146.411915 
L 147.00715 -146.511574 
L 146.604851 -146.656284 
L 144.995659 -146.735685 
L 144.593361 -146.772134 
L 144.191063 -146.755991 
L 143.788765 -146.760658 
L 143.386467 -146.764764 
L 142.179573 -146.804495 
L 141.777275 -146.833151 
L 141.374977 -146.849713 
L 140.972678 -146.871222 
L 140.57038 -146.90703 
L 139.363486 -146.945179 
L 138.961188 -147.022145 
L 138.55889 -147.148457 
L 138.156592 -147.197192 
L 137.754294 -147.124057 
L 136.5474 -147.043312 
L 136.145102 -146.910891 
L 135.742803 -146.769909 
L 135.340505 -146.542249 
L 134.938207 -146.193786 
L 133.731313 -145.77822 
L 133.329015 -145.475004 
L 132.926717 -145.014935 
L 132.524419 -144.458753 
L 132.122121 -143.862818 
L 130.915227 -143.080088 
L 130.512929 -142.262825 
L 130.11063 -141.464403 
L 129.708332 -140.666716 
L 129.306034 -139.98723 
L 128.09914 -139.384905 
L 127.696842 -138.801821 
L 127.294544 -138.14575 
L 126.892246 -137.471785 
L 126.489948 -137.03616 
L 125.283054 -136.823953 
L 124.880756 -136.604662 
L 124.478457 -136.046026 
L 124.076159 -135.369698 
L 123.673861 -134.950658 
L 122.466967 -134.600812 
L 122.064669 -134.397717 
L 121.662371 -133.763218 
L 120.857775 -133.211186 
L 119.650881 -132.788157 
L 119.248582 -132.554192 
L 118.846284 -132.421098 
L 118.443986 -132.155454 
L 118.041688 -132.314521 
L 116.834794 -132.486434 
L 116.432496 -132.514787 
L 116.030198 -132.821562 
L 115.6279 -132.984045 
L 115.225602 -133.222741 
L 114.018708 -133.332566 
L 113.616409 -133.444647 
L 113.214111 -133.596531 
L 112.811813 -133.662173 
L 112.409515 -133.609297 
L 111.202621 -133.535403 
L 110.800323 -133.48201 
L 110.398025 -133.466605 
L 109.995727 -133.468431 
L 109.593429 -133.476636 
L 108.386534 -133.483691 
L 107.984236 -133.491179 
L 107.581938 -133.480267 
L 107.17964 -133.487961 
L 105.570448 -133.512206 
L 105.16815 -133.534618 
L 104.765852 -133.593165 
L 104.363554 -133.62362 
L 103.961256 -133.646936 
L 102.754361 -133.66824 
L 102.352063 -133.662238 
L 101.949765 -133.663246 
L 101.547467 -133.64338 
L 101.145169 -133.63321 
L 99.938275 -133.600434 
L 99.535977 -133.599456 
L 99.133679 -133.598535 
L 98.731381 -133.584669 
L 98.329083 -133.543845 
L 97.122188 -133.524667 
L 96.71989 -133.41212 
L 96.317592 -132.962396 
L 95.915294 -132.473102 
L 95.512996 -132.030648 
L 94.306102 -131.599965 
L 93.903804 -131.0252 
L 93.501506 -130.612237 
L 93.099208 -130.200946 
L 92.69691 -129.706092 
L 91.490015 -129.189362 
L 91.087717 -128.628127 
L 90.685419 -128.093244 
L 90.283121 -127.487935 
L 89.880823 -126.837654 
L 88.271631 -126.241011 
L 87.869333 -125.657793 
L 87.467035 -125.23668 
L 87.064737 -124.29423 
L 85.857842 -123.259301 
L 85.455544 -122.081556 
L 85.053246 -121.097762 
L 84.650948 -120.232039 
L 84.24865 -119.176285 
L 83.041756 -118.165061 
L 82.639458 -117.633802 
L 82.23716 -117.308969 
L 81.834862 -116.916623 
L 81.432564 -116.476277 
L 80.225669 -116.116067 
L 79.823371 -115.975293 
L 79.421073 -115.820775 
L 79.018775 -115.718265 
L 78.616477 -115.572663 
L 77.409583 -115.43784 
L 77.007285 -115.398299 
L 76.604987 -115.332471 
L 76.202689 -115.374023 
L 75.800391 -115.406048 
L 74.593496 -115.376235 
L 74.191198 -115.330186 
L 73.7889 -115.617606 
L 73.386602 -115.749447 
L 72.984304 -115.664107 
L 71.77741 -115.484744 
L 71.375112 -115.214144 
L 70.972814 -114.93011 
L 70.570516 -114.511597 
L 70.168217 -114.107592 
L 68.961323 -113.652811 
L 68.559025 -113.114763 
L 68.156727 -112.509347 
L 67.754429 -111.899206 
L 66.145237 -111.440035 
L 65.742939 -110.944202 
L 65.340641 -110.403063 
L 64.938343 -109.788246 
L 64.536044 -109.259895 
L 63.32915 -108.599274 
L 62.926852 -108.008957 
L 62.524554 -107.319007 
z
" style="stroke: #000000; stroke-opacity: 0.2; stroke-width: 0.8"/>
    </defs>
    <g clip-path="url(#pe8c55e173e)">
     <use xlink:href="#m8575251711" x="0" y="303.656699" style="fill: #bc80bd; fill-opacity: 0.2; stroke: #000000; stroke-opacity: 0.2; stroke-width: 0.8"/>
    </g>
   </g>
   <g id="matplotlib.axis_1">
    <g id="xtick_1">
     <g id="line2d_1">
      <defs>
       <path id="me9007f7ee6" d="M 0 0 
L 0 3.5 
" style="stroke: #323034; stroke-width: 0.8"/>
      </defs>
      <g>
       <use xlink:href="#me9007f7ee6" x="47.237227" y="246.305812" style="fill: #323034; stroke: #323034; stroke-width: 0.8"/>
      </g>
     </g>
     <g id="text_1">
      <!-- 2017-01 -->
      <g style="fill: #323034" transform="translate(11.297812 280.401244)rotate(-30)scale(0.12 -0.12)">
       <defs>
        <path id="STIXGeneral-Regular-32" d="M 3034 877 
L 2688 0 
L 186 0 
L 186 77 
L 1325 1286 
Q 1773 1754 1965 2144 
Q 2157 2534 2157 2950 
Q 2157 3379 1920 3616 
Q 1683 3853 1267 3853 
Q 922 3853 720 3673 
Q 518 3494 326 3021 
L 192 3053 
Q 301 3648 630 3987 
Q 960 4326 1523 4326 
Q 2054 4326 2380 4006 
Q 2707 3686 2707 3200 
Q 2707 2477 1888 1613 
L 832 486 
L 2330 486 
Q 2541 486 2665 569 
Q 2790 653 2944 915 
L 3034 877 
z
" transform="scale(0.015625)"/>
        <path id="STIXGeneral-Regular-30" d="M 3046 2112 
Q 3046 1683 2963 1302 
Q 2880 922 2717 602 
Q 2554 282 2266 96 
Q 1978 -90 1600 -90 
Q 1210 -90 915 108 
Q 621 307 461 640 
Q 301 973 227 1350 
Q 154 1728 154 2150 
Q 154 2746 301 3222 
Q 448 3699 790 4012 
Q 1133 4326 1626 4326 
Q 2253 4326 2649 3712 
Q 3046 3098 3046 2112 
z
M 2432 2080 
Q 2432 3091 2217 3625 
Q 2003 4160 1587 4160 
Q 1190 4160 979 3622 
Q 768 3085 768 2106 
Q 768 1120 979 598 
Q 1190 77 1600 77 
Q 2003 77 2217 598 
Q 2432 1120 2432 2080 
z
" transform="scale(0.015625)"/>
        <path id="STIXGeneral-Regular-31" d="M 2522 0 
L 755 0 
L 755 96 
Q 1107 115 1235 227 
Q 1363 339 1363 608 
L 1363 3482 
Q 1363 3795 1171 3795 
Q 1082 3795 883 3718 
L 710 3654 
L 710 3744 
L 1856 4326 
L 1914 4307 
L 1914 486 
Q 1914 275 2042 185 
Q 2170 96 2522 96 
L 2522 0 
z
" transform="scale(0.015625)"/>
        <path id="STIXGeneral-Regular-37" d="M 2874 4134 
L 1517 -51 
L 1101 -51 
L 2368 3763 
L 992 3763 
Q 717 3763 582 3667 
Q 448 3571 243 3238 
L 128 3296 
L 512 4237 
L 2874 4237 
L 2874 4134 
z
" transform="scale(0.015625)"/>
        <path id="STIXGeneral-Regular-2d" d="M 1824 1242 
L 250 1242 
L 250 1645 
L 1824 1645 
L 1824 1242 
z
" transform="scale(0.015625)"/>
       </defs>
       <use xlink:href="#STIXGeneral-Regular-32"/>
       <use xlink:href="#STIXGeneral-Regular-30" x="49.999985"/>
       <use xlink:href="#STIXGeneral-Regular-31" x="99.999969"/>
       <use xlink:href="#STIXGeneral-Regular-37" x="149.999954"/>
       <use xlink:href="#STIXGeneral-Regular-2d" x="199.999939"/>
       <use xlink:href="#STIXGeneral-Regular-30" x="233.299927"/>
       <use xlink:href="#STIXGeneral-Regular-31" x="283.299911"/>
      </g>
     </g>
    </g>
    <g id="xtick_2">
     <g id="line2d_2">
      <g>
       <use xlink:href="#me9007f7ee6" x="83.444054" y="246.305812" style="fill: #323034; stroke: #323034; stroke-width: 0.8"/>
      </g>
     </g>
     <g id="text_2">
      <!-- 2017-04 -->
      <g style="fill: #323034" transform="translate(47.504639 280.401244)rotate(-30)scale(0.12 -0.12)">
       <defs>
        <path id="STIXGeneral-Regular-34" d="M 3027 1069 
L 2368 1069 
L 2368 0 
L 1869 0 
L 1869 1069 
L 77 1069 
L 77 1478 
L 2086 4326 
L 2368 4326 
L 2368 1478 
L 3027 1478 
L 3027 1069 
z
M 1869 1478 
L 1869 3674 
L 333 1478 
L 1869 1478 
z
" transform="scale(0.015625)"/>
       </defs>
       <use xlink:href="#STIXGeneral-Regular-32"/>
       <use xlink:href="#STIXGeneral-Regular-30" x="49.999985"/>
       <use xlink:href="#STIXGeneral-Regular-31" x="99.999969"/>
       <use xlink:href="#STIXGeneral-Regular-37" x="149.999954"/>
       <use xlink:href="#STIXGeneral-Regular-2d" x="199.999939"/>
       <use xlink:href="#STIXGeneral-Regular-30" x="233.299927"/>
       <use xlink:href="#STIXGeneral-Regular-34" x="283.299911"/>
      </g>
     </g>
    </g>
    <g id="xtick_3">
     <g id="line2d_3">
      <g>
       <use xlink:href="#me9007f7ee6" x="120.053179" y="246.305812" style="fill: #323034; stroke: #323034; stroke-width: 0.8"/>
      </g>
     </g>
     <g id="text_3">
      <!-- 2017-07 -->
      <g style="fill: #323034" transform="translate(84.113764 280.401244)rotate(-30)scale(0.12 -0.12)">
       <use xlink:href="#STIXGeneral-Regular-32"/>
       <use xlink:href="#STIXGeneral-Regular-30" x="49.999985"/>
       <use xlink:href="#STIXGeneral-Regular-31" x="99.999969"/>
       <use xlink:href="#STIXGeneral-Regular-37" x="149.999954"/>
       <use xlink:href="#STIXGeneral-Regular-2d" x="199.999939"/>
       <use xlink:href="#STIXGeneral-Regular-30" x="233.299927"/>
       <use xlink:href="#STIXGeneral-Regular-37" x="283.299911"/>
      </g>
     </g>
    </g>
    <g id="xtick_4">
     <g id="line2d_4">
      <g>
       <use xlink:href="#me9007f7ee6" x="157.064601" y="246.305812" style="fill: #323034; stroke: #323034; stroke-width: 0.8"/>
      </g>
     </g>
     <g id="text_4">
      <!-- 2017-10 -->
      <g style="fill: #323034" transform="translate(121.125187 280.401244)rotate(-30)scale(0.12 -0.12)">
       <use xlink:href="#STIXGeneral-Regular-32"/>
       <use xlink:href="#STIXGeneral-Regular-30" x="49.999985"/>
       <use xlink:href="#STIXGeneral-Regular-31" x="99.999969"/>
       <use xlink:href="#STIXGeneral-Regular-37" x="149.999954"/>
       <use xlink:href="#STIXGeneral-Regular-2d" x="199.999939"/>
       <use xlink:href="#STIXGeneral-Regular-31" x="233.299927"/>
       <use xlink:href="#STIXGeneral-Regular-30" x="283.299911"/>
      </g>
     </g>
    </g>
    <g id="xtick_5">
     <g id="line2d_5">
      <g>
       <use xlink:href="#me9007f7ee6" x="194.076024" y="246.305812" style="fill: #323034; stroke: #323034; stroke-width: 0.8"/>
      </g>
     </g>
     <g id="text_5">
      <!-- 2018-01 -->
      <g style="fill: #323034" transform="translate(158.136609 280.401244)rotate(-30)scale(0.12 -0.12)">
       <defs>
        <path id="STIXGeneral-Regular-38" d="M 2848 992 
Q 2848 499 2505 204 
Q 2163 -90 1587 -90 
Q 1050 -90 704 204 
Q 358 499 358 954 
Q 358 1293 524 1533 
Q 691 1773 1190 2125 
Q 710 2522 553 2765 
Q 397 3008 397 3328 
Q 397 3782 745 4054 
Q 1094 4326 1638 4326 
Q 2106 4326 2410 4060 
Q 2714 3795 2714 3411 
Q 2714 3059 2531 2848 
Q 2349 2637 1856 2374 
Q 2432 1990 2640 1689 
Q 2848 1389 2848 992 
z
M 2272 3411 
Q 2272 3744 2086 3945 
Q 1901 4147 1574 4147 
Q 1248 4147 1059 3977 
Q 870 3808 870 3513 
Q 870 3219 1059 2979 
Q 1248 2739 1670 2490 
Q 1997 2682 2134 2896 
Q 2272 3110 2272 3411 
z
M 1734 1741 
L 1357 1997 
Q 1075 1766 960 1545 
Q 845 1325 845 1011 
Q 845 576 1065 333 
Q 1286 90 1658 90 
Q 1971 90 2166 285 
Q 2362 480 2362 794 
Q 2362 1082 2214 1299 
Q 2067 1517 1734 1741 
z
" transform="scale(0.015625)"/>
       </defs>
       <use xlink:href="#STIXGeneral-Regular-32"/>
       <use xlink:href="#STIXGeneral-Regular-30" x="49.999985"/>
       <use xlink:href="#STIXGeneral-Regular-31" x="99.999969"/>
       <use xlink:href="#STIXGeneral-Regular-38" x="149.999954"/>
       <use xlink:href="#STIXGeneral-Regular-2d" x="199.999939"/>
       <use xlink:href="#STIXGeneral-Regular-30" x="233.299927"/>
       <use xlink:href="#STIXGeneral-Regular-31" x="283.299911"/>
      </g>
     </g>
    </g>
    <g id="xtick_6">
     <g id="line2d_6">
      <g>
       <use xlink:href="#me9007f7ee6" x="230.282851" y="246.305812" style="fill: #323034; stroke: #323034; stroke-width: 0.8"/>
      </g>
     </g>
     <g id="text_6">
      <!-- 2018-04 -->
      <g style="fill: #323034" transform="translate(194.343436 280.401244)rotate(-30)scale(0.12 -0.12)">
       <use xlink:href="#STIXGeneral-Regular-32"/>
       <use xlink:href="#STIXGeneral-Regular-30" x="49.999985"/>
       <use xlink:href="#STIXGeneral-Regular-31" x="99.999969"/>
       <use xlink:href="#STIXGeneral-Regular-38" x="149.999954"/>
       <use xlink:href="#STIXGeneral-Regular-2d" x="199.999939"/>
       <use xlink:href="#STIXGeneral-Regular-30" x="233.299927"/>
       <use xlink:href="#STIXGeneral-Regular-34" x="283.299911"/>
      </g>
     </g>
    </g>
    <g id="xtick_7">
     <g id="line2d_7">
      <g>
       <use xlink:href="#me9007f7ee6" x="266.891976" y="246.305812" style="fill: #323034; stroke: #323034; stroke-width: 0.8"/>
      </g>
     </g>
     <g id="text_7">
      <!-- 2018-07 -->
      <g style="fill: #323034" transform="translate(230.952561 280.401244)rotate(-30)scale(0.12 -0.12)">
       <use xlink:href="#STIXGeneral-Regular-32"/>
       <use xlink:href="#STIXGeneral-Regular-30" x="49.999985"/>
       <use xlink:href="#STIXGeneral-Regular-31" x="99.999969"/>
       <use xlink:href="#STIXGeneral-Regular-38" x="149.999954"/>
       <use xlink:href="#STIXGeneral-Regular-2d" x="199.999939"/>
       <use xlink:href="#STIXGeneral-Regular-30" x="233.299927"/>
       <use xlink:href="#STIXGeneral-Regular-37" x="283.299911"/>
      </g>
     </g>
    </g>
    <g id="xtick_8">
     <g id="line2d_8">
      <g>
       <use xlink:href="#me9007f7ee6" x="303.903398" y="246.305812" style="fill: #323034; stroke: #323034; stroke-width: 0.8"/>
      </g>
     </g>
     <g id="text_8">
      <!-- 2018-10 -->
      <g style="fill: #323034" transform="translate(267.963984 280.401244)rotate(-30)scale(0.12 -0.12)">
       <use xlink:href="#STIXGeneral-Regular-32"/>
       <use xlink:href="#STIXGeneral-Regular-30" x="49.999985"/>
       <use xlink:href="#STIXGeneral-Regular-31" x="99.999969"/>
       <use xlink:href="#STIXGeneral-Regular-38" x="149.999954"/>
       <use xlink:href="#STIXGeneral-Regular-2d" x="199.999939"/>
       <use xlink:href="#STIXGeneral-Regular-31" x="233.299927"/>
       <use xlink:href="#STIXGeneral-Regular-30" x="283.299911"/>
      </g>
     </g>
    </g>
    <g id="xtick_9">
     <g id="line2d_9">
      <g>
       <use xlink:href="#me9007f7ee6" x="340.914821" y="246.305812" style="fill: #323034; stroke: #323034; stroke-width: 0.8"/>
      </g>
     </g>
     <g id="text_9">
      <!-- 2019-01 -->
      <g style="fill: #323034" transform="translate(304.975406 280.401244)rotate(-30)scale(0.12 -0.12)">
       <defs>
        <path id="STIXGeneral-Regular-39" d="M 378 -141 
L 358 -13 
Q 1094 115 1603 608 
Q 2112 1101 2304 1882 
Q 1933 1517 1344 1517 
Q 826 1517 509 1875 
Q 192 2234 192 2816 
Q 192 3462 573 3894 
Q 954 4326 1523 4326 
Q 2131 4326 2528 3840 
Q 2938 3328 2938 2522 
Q 2938 1958 2742 1462 
Q 2547 966 2170 621 
Q 1773 262 1395 105 
Q 1018 -51 378 -141 
z
M 2317 2272 
L 2317 2522 
Q 2317 4147 1472 4147 
Q 1171 4147 1005 3930 
Q 909 3802 845 3546 
Q 781 3290 781 3034 
Q 781 2464 995 2128 
Q 1210 1792 1568 1792 
Q 1824 1792 2070 1917 
Q 2317 2042 2317 2272 
z
" transform="scale(0.015625)"/>
       </defs>
       <use xlink:href="#STIXGeneral-Regular-32"/>
       <use xlink:href="#STIXGeneral-Regular-30" x="49.999985"/>
       <use xlink:href="#STIXGeneral-Regular-31" x="99.999969"/>
       <use xlink:href="#STIXGeneral-Regular-39" x="149.999954"/>
       <use xlink:href="#STIXGeneral-Regular-2d" x="199.999939"/>
       <use xlink:href="#STIXGeneral-Regular-30" x="233.299927"/>
       <use xlink:href="#STIXGeneral-Regular-31" x="283.299911"/>
      </g>
     </g>
    </g>
    <g id="xtick_10">
     <g id="line2d_10">
      <g>
       <use xlink:href="#me9007f7ee6" x="377.121648" y="246.305812" style="fill: #323034; stroke: #323034; stroke-width: 0.8"/>
      </g>
     </g>
     <g id="text_10">
      <!-- 2019-04 -->
      <g style="fill: #323034" transform="translate(341.182233 280.401244)rotate(-30)scale(0.12 -0.12)">
       <use xlink:href="#STIXGeneral-Regular-32"/>
       <use xlink:href="#STIXGeneral-Regular-30" x="49.999985"/>
       <use xlink:href="#STIXGeneral-Regular-31" x="99.999969"/>
       <use xlink:href="#STIXGeneral-Regular-39" x="149.999954"/>
       <use xlink:href="#STIXGeneral-Regular-2d" x="199.999939"/>
       <use xlink:href="#STIXGeneral-Regular-30" x="233.299927"/>
       <use xlink:href="#STIXGeneral-Regular-34" x="283.299911"/>
      </g>
     </g>
    </g>
    <g id="text_11">
     <!-- Date -->
     <g transform="translate(213.523077 293.852324)scale(0.12 -0.12)">
      <defs>
       <path id="STIXGeneral-Regular-44" d="M 102 4237 
L 1830 4237 
Q 3078 4237 3750 3654 
Q 4384 3110 4384 2138 
Q 4384 966 3514 410 
Q 2880 0 1901 0 
L 102 0 
L 102 122 
Q 474 147 570 252 
Q 666 358 666 736 
L 666 3520 
Q 666 3891 570 3990 
Q 474 4090 102 4115 
L 102 4237 
z
M 1318 3731 
L 1318 538 
Q 1318 365 1379 301 
Q 1440 237 1626 237 
Q 2125 237 2432 307 
Q 2739 378 3021 570 
Q 3686 1018 3686 2099 
Q 3686 3027 3078 3558 
Q 2803 3802 2476 3901 
Q 2150 4000 1658 4000 
Q 1472 4000 1395 3942 
Q 1318 3885 1318 3731 
z
" transform="scale(0.015625)"/>
       <path id="STIXGeneral-Regular-61" d="M 2829 422 
L 2829 243 
Q 2586 -64 2253 -64 
Q 1888 -64 1843 403 
L 1837 403 
Q 1427 -64 909 -64 
Q 608 -64 422 112 
Q 237 288 237 602 
Q 237 1050 685 1350 
Q 992 1555 1837 1869 
L 1837 2214 
Q 1837 2502 1699 2646 
Q 1562 2790 1338 2790 
Q 1146 2790 1018 2697 
Q 890 2605 890 2477 
Q 890 2419 909 2348 
Q 928 2278 928 2208 
Q 928 2112 841 2029 
Q 755 1946 634 1946 
Q 525 1946 441 2029 
Q 358 2112 358 2240 
Q 358 2547 685 2752 
Q 986 2944 1421 2944 
Q 1939 2944 2176 2656 
Q 2291 2522 2323 2384 
Q 2355 2246 2355 1946 
L 2355 723 
Q 2355 301 2554 301 
Q 2682 301 2829 422 
z
M 1837 813 
L 1837 1715 
Q 1248 1510 1018 1293 
Q 800 1094 800 800 
Q 800 557 921 432 
Q 1043 307 1242 307 
Q 1453 307 1613 410 
Q 1747 506 1792 589 
Q 1837 672 1837 813 
z
" transform="scale(0.015625)"/>
       <path id="STIXGeneral-Regular-74" d="M 1702 493 
L 1786 422 
Q 1478 -64 1011 -64 
Q 448 -64 448 749 
L 448 2675 
L 109 2675 
Q 83 2694 83 2720 
Q 83 2771 192 2842 
Q 435 2982 813 3526 
Q 826 3546 874 3606 
Q 922 3667 941 3706 
Q 986 3706 986 3622 
L 986 2880 
L 1632 2880 
L 1632 2675 
L 986 2675 
L 986 845 
Q 986 538 1062 403 
Q 1139 269 1318 269 
Q 1510 269 1702 493 
z
" transform="scale(0.015625)"/>
       <path id="STIXGeneral-Regular-65" d="M 2611 1050 
L 2714 1005 
Q 2330 -64 1376 -64 
Q 813 -64 486 329 
Q 160 723 160 1389 
Q 160 2074 525 2509 
Q 890 2944 1485 2944 
Q 2061 2944 2374 2502 
Q 2560 2246 2592 1773 
L 621 1773 
Q 646 1370 700 1158 
Q 755 947 915 730 
Q 1184 378 1626 378 
Q 1939 378 2153 531 
Q 2368 685 2611 1050 
z
M 634 1978 
L 1939 1978 
Q 1882 2381 1750 2547 
Q 1619 2714 1312 2714 
Q 1043 2714 864 2525 
Q 685 2336 634 1978 
z
" transform="scale(0.015625)"/>
      </defs>
      <use xlink:href="#STIXGeneral-Regular-44"/>
      <use xlink:href="#STIXGeneral-Regular-61" x="72.199982"/>
      <use xlink:href="#STIXGeneral-Regular-74" x="116.599976"/>
      <use xlink:href="#STIXGeneral-Regular-65" x="144.399963"/>
     </g>
    </g>
   </g>
   <g id="matplotlib.axis_2">
    <g id="ytick_1">
     <g id="line2d_11">
      <defs>
       <path id="mcb2de61f18" d="M 0 0 
L -3.5 0 
" style="stroke: #323034; stroke-width: 0.8"/>
      </defs>
      <g>
       <use xlink:href="#mcb2de61f18" x="46.291827" y="246.305812" style="fill: #323034; stroke: #323034; stroke-width: 0.8"/>
      </g>
     </g>
     <g id="text_12">
      <!-- $\mathdefault{25}$ -->
      <g style="fill: #323034" transform="translate(27.291827 250.403625)scale(0.12 -0.12)">
       <defs>
        <path id="STIXGeneral-Regular-35" d="M 2803 4358 
L 2573 3814 
Q 2534 3731 2400 3731 
L 1158 3731 
L 902 3187 
Q 1606 3053 1920 2896 
Q 2234 2739 2502 2368 
Q 2726 2061 2726 1555 
Q 2726 1094 2576 780 
Q 2426 467 2099 224 
Q 1664 -90 1011 -90 
Q 646 -90 422 19 
Q 198 128 198 307 
Q 198 550 486 550 
Q 717 550 960 352 
Q 1210 147 1414 147 
Q 1747 147 2012 480 
Q 2278 813 2278 1229 
Q 2278 1843 1850 2189 
Q 1293 2637 486 2637 
Q 410 2637 410 2688 
L 416 2720 
L 1114 4237 
L 2438 4237 
Q 2547 4237 2608 4269 
Q 2669 4301 2746 4403 
L 2803 4358 
z
" transform="scale(0.015625)"/>
       </defs>
       <use xlink:href="#STIXGeneral-Regular-32" transform="translate(0 0.203125)"/>
       <use xlink:href="#STIXGeneral-Regular-35" transform="translate(49.999985 0.203125)"/>
      </g>
     </g>
    </g>
    <g id="ytick_2">
     <g id="line2d_12">
      <g>
       <use xlink:href="#mcb2de61f18" x="46.291827" y="212.733241" style="fill: #323034; stroke: #323034; stroke-width: 0.8"/>
      </g>
     </g>
     <g id="text_13">
      <!-- $\mathdefault{30}$ -->
      <g style="fill: #323034" transform="translate(27.291827 216.831054)scale(0.12 -0.12)">
       <defs>
        <path id="STIXGeneral-Regular-33" d="M 390 3264 
L 288 3290 
Q 435 3770 748 4048 
Q 1062 4326 1542 4326 
Q 1990 4326 2265 4083 
Q 2541 3840 2541 3450 
Q 2541 2925 1946 2566 
Q 2298 2413 2477 2227 
Q 2758 1914 2758 1402 
Q 2758 890 2464 506 
Q 2246 211 1840 60 
Q 1434 -90 979 -90 
Q 262 -90 262 275 
Q 262 378 339 442 
Q 416 506 525 506 
Q 685 506 915 339 
Q 1197 141 1466 141 
Q 1818 141 2058 425 
Q 2298 710 2298 1120 
Q 2298 1856 1632 2048 
Q 1434 2112 979 2112 
L 979 2202 
Q 1338 2323 1517 2432 
Q 2035 2726 2035 3290 
Q 2035 3610 1852 3776 
Q 1670 3942 1344 3942 
Q 768 3942 390 3264 
z
" transform="scale(0.015625)"/>
       </defs>
       <use xlink:href="#STIXGeneral-Regular-33" transform="translate(0 0.40625)"/>
       <use xlink:href="#STIXGeneral-Regular-30" transform="translate(49.999985 0.40625)"/>
      </g>
     </g>
    </g>
    <g id="ytick_3">
     <g id="line2d_13">
      <g>
       <use xlink:href="#mcb2de61f18" x="46.291827" y="179.16067" style="fill: #323034; stroke: #323034; stroke-width: 0.8"/>
      </g>
     </g>
     <g id="text_14">
      <!-- $\mathdefault{35}$ -->
      <g style="fill: #323034" transform="translate(27.291827 183.258482)scale(0.12 -0.12)">
       <use xlink:href="#STIXGeneral-Regular-33" transform="translate(0 0.203125)"/>
       <use xlink:href="#STIXGeneral-Regular-35" transform="translate(49.999985 0.203125)"/>
      </g>
     </g>
    </g>
    <g id="ytick_4">
     <g id="line2d_14">
      <g>
       <use xlink:href="#mcb2de61f18" x="46.291827" y="145.588098" style="fill: #323034; stroke: #323034; stroke-width: 0.8"/>
      </g>
     </g>
     <g id="text_15">
      <!-- $\mathdefault{40}$ -->
      <g style="fill: #323034" transform="translate(27.291827 149.685911)scale(0.12 -0.12)">
       <use xlink:href="#STIXGeneral-Regular-34" transform="translate(0 0.40625)"/>
       <use xlink:href="#STIXGeneral-Regular-30" transform="translate(49.999985 0.40625)"/>
      </g>
     </g>
    </g>
    <g id="ytick_5">
     <g id="line2d_15">
      <g>
       <use xlink:href="#mcb2de61f18" x="46.291827" y="112.015527" style="fill: #323034; stroke: #323034; stroke-width: 0.8"/>
      </g>
     </g>
     <g id="text_16">
      <!-- $\mathdefault{45}$ -->
      <g style="fill: #323034" transform="translate(27.291827 116.113339)scale(0.12 -0.12)">
       <use xlink:href="#STIXGeneral-Regular-34" transform="translate(0 0.203125)"/>
       <use xlink:href="#STIXGeneral-Regular-35" transform="translate(49.999985 0.203125)"/>
      </g>
     </g>
    </g>
    <g id="ytick_6">
     <g id="line2d_16">
      <g>
       <use xlink:href="#mcb2de61f18" x="46.291827" y="78.442955" style="fill: #323034; stroke: #323034; stroke-width: 0.8"/>
      </g>
     </g>
     <g id="text_17">
      <!-- $\mathdefault{50}$ -->
      <g style="fill: #323034" transform="translate(27.291827 82.540768)scale(0.12 -0.12)">
       <use xlink:href="#STIXGeneral-Regular-35" transform="translate(0 0.203125)"/>
       <use xlink:href="#STIXGeneral-Regular-30" transform="translate(49.999985 0.203125)"/>
      </g>
     </g>
    </g>
    <g id="ytick_7">
     <g id="line2d_17">
      <g>
       <use xlink:href="#mcb2de61f18" x="46.291827" y="44.870384" style="fill: #323034; stroke: #323034; stroke-width: 0.8"/>
      </g>
     </g>
     <g id="text_18">
      <!-- $\mathdefault{55}$ -->
      <g style="fill: #323034" transform="translate(27.291827 48.968196)scale(0.12 -0.12)">
       <use xlink:href="#STIXGeneral-Regular-35" transform="translate(0 0.203125)"/>
       <use xlink:href="#STIXGeneral-Regular-35" transform="translate(49.999985 0.203125)"/>
      </g>
     </g>
    </g>
    <g id="ytick_8">
     <g id="line2d_18">
      <g>
       <use xlink:href="#mcb2de61f18" x="46.291827" y="11.297812" style="fill: #323034; stroke: #323034; stroke-width: 0.8"/>
      </g>
     </g>
     <g id="text_19">
      <!-- $\mathdefault{60}$ -->
      <g style="fill: #323034" transform="translate(27.291827 15.395625)scale(0.12 -0.12)">
       <defs>
        <path id="STIXGeneral-Regular-36" d="M 2854 4378 
L 2867 4275 
Q 2112 4154 1606 3664 
Q 1101 3174 973 2451 
Q 1344 2739 1786 2739 
Q 2349 2739 2672 2380 
Q 2995 2022 2995 1402 
Q 2995 774 2669 378 
Q 2291 -90 1651 -90 
Q 870 -90 518 557 
Q 218 1107 218 1786 
Q 218 2835 915 3552 
Q 1312 3962 1731 4131 
Q 2150 4301 2854 4378 
z
M 2419 1203 
Q 2419 2445 1555 2445 
Q 1235 2445 1024 2275 
Q 813 2106 813 1702 
Q 813 954 1046 522 
Q 1280 90 1722 90 
Q 2061 90 2240 394 
Q 2419 698 2419 1203 
z
" transform="scale(0.015625)"/>
       </defs>
       <use xlink:href="#STIXGeneral-Regular-36" transform="translate(0 0.59375)"/>
       <use xlink:href="#STIXGeneral-Regular-30" transform="translate(49.999985 0.59375)"/>
      </g>
     </g>
    </g>
    <g id="text_20">
     <!-- Close ($) -->
     <g transform="translate(21.687452 150.966187)rotate(-90)scale(0.12 -0.12)">
      <defs>
       <path id="STIXGeneral-Regular-43" d="M 3930 838 
L 4051 723 
Q 3482 -90 2304 -90 
Q 1376 -90 794 480 
Q 179 1082 179 2080 
Q 179 3014 755 3661 
Q 1357 4326 2310 4326 
Q 2720 4326 3072 4230 
Q 3475 4115 3514 4115 
Q 3725 4115 3782 4326 
L 3910 4326 
L 3968 2874 
L 3821 2874 
Q 3718 3334 3488 3584 
Q 3034 4070 2458 4070 
Q 1747 4070 1334 3548 
Q 922 3027 922 2182 
Q 922 1152 1382 653 
Q 1811 192 2522 192 
Q 2944 192 3251 339 
Q 3558 486 3930 838 
z
" transform="scale(0.015625)"/>
       <path id="STIXGeneral-Regular-6c" d="M 1645 0 
L 134 0 
L 134 96 
Q 435 122 531 221 
Q 627 320 627 589 
L 627 3590 
Q 627 3821 569 3910 
Q 512 4000 358 4000 
Q 224 4000 122 3987 
L 122 4090 
Q 730 4237 1133 4371 
L 1165 4346 
L 1165 557 
Q 1165 288 1254 201 
Q 1344 115 1645 96 
L 1645 0 
z
" transform="scale(0.015625)"/>
       <path id="STIXGeneral-Regular-6f" d="M 3008 1478 
Q 3008 806 2608 371 
Q 2208 -64 1568 -64 
Q 979 -64 582 368 
Q 186 800 186 1459 
Q 186 2125 582 2534 
Q 979 2944 1626 2944 
Q 2221 2944 2614 2537 
Q 3008 2131 3008 1478 
z
M 2432 1306 
Q 2432 2035 2112 2445 
Q 1856 2765 1504 2765 
Q 1171 2765 966 2493 
Q 762 2221 762 1747 
Q 762 928 1101 435 
Q 1318 115 1677 115 
Q 2029 115 2230 432 
Q 2432 749 2432 1306 
z
" transform="scale(0.015625)"/>
       <path id="STIXGeneral-Regular-73" d="M 998 1926 
L 1664 1523 
Q 1984 1331 2105 1164 
Q 2227 998 2227 736 
Q 2227 416 1961 176 
Q 1696 -64 1331 -64 
Q 1030 -64 864 -6 
Q 691 51 570 51 
Q 461 51 416 -26 
L 333 -26 
L 333 979 
L 435 979 
Q 538 512 730 294 
Q 922 77 1248 77 
Q 1485 77 1632 211 
Q 1779 346 1779 550 
Q 1779 845 1440 1030 
L 1094 1222 
Q 326 1651 326 2150 
Q 326 2522 566 2730 
Q 806 2938 1210 2938 
Q 1491 2938 1638 2867 
Q 1754 2816 1818 2816 
Q 1862 2816 1920 2880 
L 1990 2880 
L 2022 2010 
L 1926 2010 
Q 1818 2445 1654 2621 
Q 1491 2797 1203 2797 
Q 986 2797 854 2688 
Q 723 2579 723 2362 
Q 723 2253 796 2128 
Q 870 2003 998 1926 
z
" transform="scale(0.015625)"/>
       <path id="STIXGeneral-Regular-20" transform="scale(0.015625)"/>
       <path id="STIXGeneral-Regular-28" d="M 1946 -1030 
L 1869 -1133 
Q 1126 -710 716 32 
Q 307 774 307 1613 
Q 307 3386 1888 4326 
L 1946 4224 
Q 1293 3667 1075 3126 
Q 858 2586 858 1632 
Q 858 685 1082 96 
Q 1306 -493 1946 -1030 
z
" transform="scale(0.015625)"/>
       <path id="STIXGeneral-Regular-24" d="M 1690 4077 
L 1690 2502 
Q 2234 2208 2445 2045 
Q 2656 1882 2797 1664 
Q 2931 1466 2931 1088 
Q 2931 570 2614 326 
Q 2298 83 1690 0 
L 1690 -557 
L 1472 -557 
L 1472 0 
Q 1062 0 806 73 
Q 550 147 282 326 
L 282 1158 
L 378 1158 
Q 480 685 761 432 
Q 1043 179 1472 179 
L 1472 1984 
Q 800 2362 566 2624 
Q 333 2886 333 3283 
Q 333 3731 659 3974 
Q 986 4218 1472 4250 
L 1472 4653 
L 1690 4653 
L 1690 4250 
Q 2426 4205 2720 3910 
L 2720 3200 
L 2624 3200 
Q 2528 3597 2301 3814 
Q 2074 4032 1690 4077 
z
M 1472 2605 
L 1472 4077 
Q 806 3942 806 3405 
Q 806 3194 937 3037 
Q 1069 2880 1472 2605 
z
M 1690 1875 
L 1690 179 
Q 2086 262 2252 432 
Q 2419 602 2419 941 
Q 2419 1235 2272 1427 
Q 2125 1619 1690 1875 
z
" transform="scale(0.015625)"/>
       <path id="STIXGeneral-Regular-29" d="M 186 4224 
L 262 4326 
Q 992 3891 1408 3148 
Q 1824 2406 1824 1581 
Q 1824 -166 243 -1133 
L 186 -1030 
Q 845 -486 1059 54 
Q 1274 595 1274 1562 
Q 1274 2534 1059 3120 
Q 845 3706 186 4224 
z
" transform="scale(0.015625)"/>
      </defs>
      <use xlink:href="#STIXGeneral-Regular-43"/>
      <use xlink:href="#STIXGeneral-Regular-6c" x="66.699997"/>
      <use xlink:href="#STIXGeneral-Regular-6f" x="94.499985"/>
      <use xlink:href="#STIXGeneral-Regular-73" x="144.499969"/>
      <use xlink:href="#STIXGeneral-Regular-65" x="183.399963"/>
      <use xlink:href="#STIXGeneral-Regular-20" x="227.799957"/>
      <use xlink:href="#STIXGeneral-Regular-28" x="252.799942"/>
      <use xlink:href="#STIXGeneral-Regular-24" x="286.09993"/>
      <use xlink:href="#STIXGeneral-Regular-29" x="336.099915"/>
     </g>
    </g>
   </g>
   <g id="line2d_19">
    <path d="M 62.524554 210.261534 
L 63.32915 208.697079 
L 64.536044 207.896199 
L 66.145237 205.079071 
L 67.754429 204.379862 
L 68.961323 202.02954 
L 70.168217 201.258848 
L 71.77741 198.215481 
L 72.984304 197.522838 
L 74.191198 195.52429 
L 74.593496 195.117686 
L 75.800391 194.680249 
L 77.409583 193.227376 
L 78.616477 192.873615 
L 79.421073 192.153886 
L 80.225669 191.619625 
L 81.432564 191.264777 
L 83.041756 189.873046 
L 84.24865 189.35674 
L 85.857842 187.273831 
L 87.064737 186.750958 
L 87.869333 185.86197 
L 88.271631 185.413534 
L 89.880823 184.93867 
L 91.490015 183.048602 
L 92.69691 182.619732 
L 94.306102 180.884433 
L 95.512996 180.453012 
L 96.71989 179.144286 
L 97.122188 178.971293 
L 98.731381 178.792647 
L 99.535977 178.72385 
L 99.938275 178.760861 
L 101.949765 178.47963 
L 102.754361 178.172924 
L 104.363554 177.924434 
L 105.16815 177.645633 
L 105.570448 177.576971 
L 110.800323 177.333288 
L 111.202621 177.252015 
L 113.214111 177.124359 
L 114.018708 177.295472 
L 115.6279 177.460823 
L 118.443986 177.927791 
L 119.650881 177.675419 
L 121.662371 177.314809 
L 122.064669 177.080661 
L 122.466967 176.979554 
L 124.076159 176.664415 
L 124.880756 176.174806 
L 125.283054 176.076102 
L 126.489948 175.976459 
L 126.892246 175.69551 
L 128.09914 174.307956 
L 129.306034 173.794604 
L 130.915227 171.420285 
L 132.122121 170.816019 
L 133.731313 168.760867 
L 134.938207 168.175496 
L 136.5474 166.054367 
L 137.754294 165.574145 
L 138.55889 164.766027 
L 139.363486 164.354467 
L 140.972678 164.15412 
L 142.179573 163.773783 
L 144.593361 163.425662 
L 144.995659 163.255892 
L 146.604851 163.035159 
L 147.409448 162.561638 
L 147.811746 162.577861 
L 149.420938 162.383811 
L 150.225534 162.301075 
L 150.627832 162.442415 
L 152.237025 162.455831 
L 153.443919 162.82153 
L 154.650813 162.655373 
L 156.260005 161.498583 
L 157.466899 161.07722 
L 159.076092 159.369948 
L 160.282986 159.009889 
L 161.892178 157.776526 
L 163.099073 157.390845 
L 163.903669 156.689621 
L 164.708265 155.630339 
L 165.915159 155.157624 
L 167.524351 153.212725 
L 168.731246 152.622532 
L 169.535842 151.469502 
L 170.340438 150.437173 
L 171.547332 149.826058 
L 173.156524 147.419831 
L 174.363419 146.726383 
L 175.972611 144.270805 
L 177.179505 143.818206 
L 177.984101 143.099269 
L 179.995592 142.24008 
L 181.604784 139.968896 
L 182.811678 139.410087 
L 183.616274 138.740113 
L 184.42087 138.147382 
L 186.030063 137.540431 
L 186.834659 137.295552 
L 187.236957 137.250095 
L 188.846149 137.396525 
L 190.053043 137.650925 
L 192.064534 137.844705 
L 192.466832 138.147517 
L 192.86913 138.680716 
L 194.478322 139.061832 
L 195.685216 140.673759 
L 196.892111 140.869675 
L 197.696707 141.183887 
L 198.501303 140.948006 
L 200.512793 140.757986 
L 201.31739 140.521567 
L 202.524284 140.265154 
L 203.32888 139.833195 
L 206.547264 139.460782 
L 206.949563 139.13639 
L 208.156457 138.757141 
L 209.363351 137.903968 
L 209.765649 137.695026 
L 211.777139 137.64648 
L 212.179437 137.799221 
L 212.581736 138.075886 
L 214.190928 138.133685 
L 215.397822 139.019571 
L 216.604716 139.400297 
L 217.007014 139.700826 
L 218.213909 140.128352 
L 219.823101 140.061838 
L 220.627697 139.644504 
L 221.029995 139.38809 
L 222.236889 139.107679 
L 223.443784 137.474964 
L 223.846082 137.254486 
L 226.25987 136.675427 
L 226.662168 136.837421 
L 228.27136 137.192256 
L 229.075957 136.854435 
L 230.685149 136.490348 
L 232.294341 135.284085 
L 233.501235 134.824651 
L 235.110428 133.285403 
L 236.317322 132.961132 
L 237.926514 131.866035 
L 239.133408 131.523944 
L 240.340303 130.373734 
L 240.742601 129.740622 
L 241.949495 128.979183 
L 242.754091 127.340157 
L 243.558687 125.675656 
L 244.765581 124.899605 
L 245.570178 123.314094 
L 246.374774 122.135455 
L 247.581668 121.457826 
L 248.788562 120.043696 
L 249.19086 119.674115 
L 250.397754 119.413149 
L 252.006947 118.215051 
L 253.616139 117.502426 
L 254.420735 116.13523 
L 254.823033 115.331154 
L 256.029928 114.461087 
L 256.834524 112.788945 
L 257.63912 111.562297 
L 259.248312 110.819094 
L 260.455206 110.261091 
L 261.662101 110.185996 
L 262.466697 109.829268 
L 262.868995 109.578091 
L 263.271293 109.487176 
L 264.880485 109.264966 
L 265.282783 108.817592 
L 266.087379 107.532998 
L 267.294274 106.858323 
L 267.696572 106.261416 
L 268.501168 105.637571 
L 268.903466 104.948406 
L 270.11036 104.258571 
L 271.719552 101.817214 
L 272.926447 101.015541 
L 274.535639 97.852548 
L 275.742533 97.011045 
L 276.547129 95.026704 
L 277.351725 92.532504 
L 278.55862 91.148025 
L 280.167812 85.761051 
L 281.374706 84.678429 
L 282.983898 79.627409 
L 284.190793 78.638791 
L 285.799985 74.8521 
L 287.006879 73.877838 
L 288.616071 69.631283 
L 289.822966 68.451704 
L 291.432158 63.835436 
L 293.04135 62.75362 
L 293.845946 60.671664 
L 294.248245 60.230856 
L 295.455139 59.731726 
L 296.259735 58.95902 
L 297.064331 58.171971 
L 298.271225 57.810972 
L 299.075821 56.938488 
L 299.478119 56.766032 
L 299.880418 56.457057 
L 301.087312 56.360234 
L 301.891908 56.601755 
L 302.696504 56.246114 
L 303.903398 56.504529 
L 305.110293 57.749145 
L 305.512591 58.193968 
L 306.719485 58.835378 
L 308.328677 63.321426 
L 309.535571 64.198207 
L 309.937869 65.227327 
L 311.144764 69.867325 
L 312.351658 71.44063 
L 313.558552 75.25387 
L 313.96085 76.573997 
L 315.167744 77.615042 
L 316.374639 82.197389 
L 316.776937 83.968625 
L 317.983831 85.796732 
L 319.593023 93.71438 
L 320.799917 95.579376 
L 322.40911 104.119647 
L 323.616004 106.202154 
L 324.4206 110.279046 
L 325.225196 112.313812 
L 326.43209 114.175438 
L 328.041283 123.445913 
L 329.248177 125.579114 
L 329.650475 127.583692 
L 330.455071 129.505802 
L 330.857369 131.535869 
L 332.064263 133.646267 
L 332.86886 137.456835 
L 333.673456 140.502874 
L 334.88035 142.298134 
L 335.684946 145.625001 
L 336.489542 148.073207 
L 337.696436 148.772833 
L 338.501033 149.582549 
L 338.903331 150.459183 
L 339.305629 150.933241 
L 341.719417 151.15063 
L 342.121715 151.262615 
L 343.32861 151.39524 
L 344.937802 152.649927 
L 346.546994 152.876421 
L 347.35159 152.635975 
L 347.753888 152.43039 
L 349.765379 152.08521 
L 350.569975 151.429578 
L 351.776869 151.087608 
L 352.581465 149.988898 
L 353.386061 148.387433 
L 354.592956 147.657095 
L 356.202148 144.164903 
L 357.409042 142.651143 
L 359.018234 137.332294 
L 360.627427 136.17122 
L 361.834321 132.567164 
L 363.041215 131.405016 
L 364.248109 127.603043 
L 364.650407 126.219894 
L 365.857302 124.754532 
L 367.466494 119.281477 
L 368.673388 118.201542 
L 369.880282 115.207405 
L 370.28258 114.217847 
L 371.489475 113.09929 
L 373.098667 108.428177 
L 374.305561 107.32611 
L 374.707859 106.340446 
L 375.914753 102.513254 
L 377.121648 101.356074 
L 378.73084 97.840663 
L 379.937734 97.466786 
L 380.74233 96.50003 
L 381.546927 95.407753 
L 382.753821 95.053052 
L 383.156119 94.778952 
L 383.558417 94.695813 
L 385.569907 94.872969 
L 386.776801 95.678241 
L 387.1791 96.082978 
L 387.1791 96.082978 
" clip-path="url(#pe8c55e173e)" style="fill: none; stroke: #bc80bd; stroke-width: 2; stroke-linecap: square"/>
   </g>
   <g id="patch_3">
    <path d="M 46.291827 246.305812 
L 46.291827 11.297812 
" style="fill: none; stroke: #000000; stroke-width: 0.6; stroke-linejoin: miter; stroke-linecap: square"/>
   </g>
   <g id="patch_4">
    <path d="M 46.291827 246.305812 
L 403.411827 246.305812 
" style="fill: none; stroke: #000000; stroke-width: 0.6; stroke-linejoin: miter; stroke-linecap: square"/>
   </g>
  </g>
 </g>
 <defs>
  <clipPath id="pe8c55e173e">
   <rect x="46.291827" y="11.297812" width="357.12" height="235.008"/>
  </clipPath>
 </defs>
</svg>
