<?xml version="1.0" encoding="utf-8" standalone="no"?>
<!DOCTYPE svg PUBLIC "-//W3C//DTD SVG 1.1//EN"
  "http://www.w3.org/Graphics/SVG/1.1/DTD/svg11.dtd">
<svg xmlns:xlink="http://www.w3.org/1999/xlink" width="486.154313pt" height="144.978058pt" viewBox="0 0 486.154313 144.978058" xmlns="http://www.w3.org/2000/svg" version="1.1">
 <metadata>
  <rdf:RDF xmlns:dc="http://purl.org/dc/elements/1.1/" xmlns:cc="http://creativecommons.org/ns#" xmlns:rdf="http://www.w3.org/1999/02/22-rdf-syntax-ns#">
   <cc:Work>
    <dc:type rdf:resource="http://purl.org/dc/dcmitype/StillImage"/>
    <dc:date>2022-09-16T15:08:13.849192</dc:date>
    <dc:format>image/svg+xml</dc:format>
    <dc:creator>
     <cc:Agent>
      <dc:title>Matplotlib v3.5.3, https://matplotlib.org/</dc:title>
     </cc:Agent>
    </dc:creator>
   </cc:Work>
  </rdf:RDF>
 </metadata>
 <defs>
  <style type="text/css">*{stroke-linejoin: round; stroke-linecap: butt}</style>
 </defs>
 <g id="figure_1">
  <g id="patch_1">
   <path d="M 0 144.978058 
L 486.154313 144.978058 
L 486.154313 0 
L 0 0 
z
" style="fill: #ffffff; stroke: #ffffff; stroke-linejoin: miter"/>
  </g>
  <g id="axes_1">
   <g id="patch_2">
    <path d="M 32.794938 109.265371 
L 367.594938 109.265371 
L 367.594938 26.105371 
L 32.794938 26.105371 
z
" style="fill: #ebebeb"/>
   </g>
   <g id="matplotlib.axis_1">
    <g id="xtick_1">
     <g id="line2d_1">
      <path d="M 62.543042 109.265371 
L 62.543042 26.105371 
" clip-path="url(#pdc407e908a)" style="fill: none; stroke: #ffffff"/>
     </g>
     <g id="line2d_2">
      <path d="M 62.543042 109.265371 
" style="fill: none; stroke: #000000; stroke-width: 2"/>
      <defs>
       <path id="mcb05335d3f" d="M 0 0 
L 0 2.75 
" style="stroke: #333333"/>
      </defs>
      <g>
       <use xlink:href="#mcb05335d3f" x="62.543042" y="109.265371" style="stroke: #333333"/>
      </g>
     </g>
     <g id="text_1">
      <!-- 0 -->
      <g style="fill: #4d4d4d" transform="translate(59.743542 120.901996)scale(0.088 -0.088)">
       <defs>
        <path id="DejaVuSans-30" d="M 2034 4250 
Q 1547 4250 1301 3770 
Q 1056 3291 1056 2328 
Q 1056 1369 1301 889 
Q 1547 409 2034 409 
Q 2525 409 2770 889 
Q 3016 1369 3016 2328 
Q 3016 3291 2770 3770 
Q 2525 4250 2034 4250 
z
M 2034 4750 
Q 2819 4750 3233 4129 
Q 3647 3509 3647 2328 
Q 3647 1150 3233 529 
Q 2819 -91 2034 -91 
Q 1250 -91 836 529 
Q 422 1150 422 2328 
Q 422 3509 836 4129 
Q 1250 4750 2034 4750 
z
" transform="scale(0.015625)"/>
       </defs>
       <use xlink:href="#DejaVuSans-30"/>
      </g>
     </g>
    </g>
    <g id="xtick_2">
     <g id="line2d_3">
      <path d="M 93.132352 109.265371 
L 93.132352 26.105371 
" clip-path="url(#pdc407e908a)" style="fill: none; stroke: #ffffff"/>
     </g>
     <g id="line2d_4">
      <path d="M 93.132352 109.265371 
" style="fill: none; stroke: #000000; stroke-width: 2"/>
      <g>
       <use xlink:href="#mcb05335d3f" x="93.132352" y="109.265371" style="stroke: #333333"/>
      </g>
     </g>
     <g id="text_2">
      <!-- 1 -->
      <g style="fill: #4d4d4d" transform="translate(90.332852 120.901996)scale(0.088 -0.088)">
       <defs>
        <path id="DejaVuSans-31" d="M 794 531 
L 1825 531 
L 1825 4091 
L 703 3866 
L 703 4441 
L 1819 4666 
L 2450 4666 
L 2450 531 
L 3481 531 
L 3481 0 
L 794 0 
L 794 531 
z
" transform="scale(0.015625)"/>
       </defs>
       <use xlink:href="#DejaVuSans-31"/>
      </g>
     </g>
    </g>
    <g id="xtick_3">
     <g id="line2d_5">
      <path d="M 123.721662 109.265371 
L 123.721662 26.105371 
" clip-path="url(#pdc407e908a)" style="fill: none; stroke: #ffffff"/>
     </g>
     <g id="line2d_6">
      <path d="M 123.721662 109.265371 
" style="fill: none; stroke: #000000; stroke-width: 2"/>
      <g>
       <use xlink:href="#mcb05335d3f" x="123.721662" y="109.265371" style="stroke: #333333"/>
      </g>
     </g>
     <g id="text_3">
      <!-- 2 -->
      <g style="fill: #4d4d4d" transform="translate(120.922162 120.901996)scale(0.088 -0.088)">
       <defs>
        <path id="DejaVuSans-32" d="M 1228 531 
L 3431 531 
L 3431 0 
L 469 0 
L 469 531 
Q 828 903 1448 1529 
Q 2069 2156 2228 2338 
Q 2531 2678 2651 2914 
Q 2772 3150 2772 3378 
Q 2772 3750 2511 3984 
Q 2250 4219 1831 4219 
Q 1534 4219 1204 4116 
Q 875 4013 500 3803 
L 500 4441 
Q 881 4594 1212 4672 
Q 1544 4750 1819 4750 
Q 2544 4750 2975 4387 
Q 3406 4025 3406 3419 
Q 3406 3131 3298 2873 
Q 3191 2616 2906 2266 
Q 2828 2175 2409 1742 
Q 1991 1309 1228 531 
z
" transform="scale(0.015625)"/>
       </defs>
       <use xlink:href="#DejaVuSans-32"/>
      </g>
     </g>
    </g>
    <g id="xtick_4">
     <g id="line2d_7">
      <path d="M 154.310972 109.265371 
L 154.310972 26.105371 
" clip-path="url(#pdc407e908a)" style="fill: none; stroke: #ffffff"/>
     </g>
     <g id="line2d_8">
      <path d="M 154.310972 109.265371 
" style="fill: none; stroke: #000000; stroke-width: 2"/>
      <g>
       <use xlink:href="#mcb05335d3f" x="154.310972" y="109.265371" style="stroke: #333333"/>
      </g>
     </g>
     <g id="text_4">
      <!-- 3 -->
      <g style="fill: #4d4d4d" transform="translate(151.511472 120.901996)scale(0.088 -0.088)">
       <defs>
        <path id="DejaVuSans-33" d="M 2597 2516 
Q 3050 2419 3304 2112 
Q 3559 1806 3559 1356 
Q 3559 666 3084 287 
Q 2609 -91 1734 -91 
Q 1441 -91 1130 -33 
Q 819 25 488 141 
L 488 750 
Q 750 597 1062 519 
Q 1375 441 1716 441 
Q 2309 441 2620 675 
Q 2931 909 2931 1356 
Q 2931 1769 2642 2001 
Q 2353 2234 1838 2234 
L 1294 2234 
L 1294 2753 
L 1863 2753 
Q 2328 2753 2575 2939 
Q 2822 3125 2822 3475 
Q 2822 3834 2567 4026 
Q 2313 4219 1838 4219 
Q 1578 4219 1281 4162 
Q 984 4106 628 3988 
L 628 4550 
Q 988 4650 1302 4700 
Q 1616 4750 1894 4750 
Q 2613 4750 3031 4423 
Q 3450 4097 3450 3541 
Q 3450 3153 3228 2886 
Q 3006 2619 2597 2516 
z
" transform="scale(0.015625)"/>
       </defs>
       <use xlink:href="#DejaVuSans-33"/>
      </g>
     </g>
    </g>
    <g id="xtick_5">
     <g id="line2d_9">
      <path d="M 184.900282 109.265371 
L 184.900282 26.105371 
" clip-path="url(#pdc407e908a)" style="fill: none; stroke: #ffffff"/>
     </g>
     <g id="line2d_10">
      <path d="M 184.900282 109.265371 
" style="fill: none; stroke: #000000; stroke-width: 2"/>
      <g>
       <use xlink:href="#mcb05335d3f" x="184.900282" y="109.265371" style="stroke: #333333"/>
      </g>
     </g>
     <g id="text_5">
      <!-- 4 -->
      <g style="fill: #4d4d4d" transform="translate(182.100782 120.901996)scale(0.088 -0.088)">
       <defs>
        <path id="DejaVuSans-34" d="M 2419 4116 
L 825 1625 
L 2419 1625 
L 2419 4116 
z
M 2253 4666 
L 3047 4666 
L 3047 1625 
L 3713 1625 
L 3713 1100 
L 3047 1100 
L 3047 0 
L 2419 0 
L 2419 1100 
L 313 1100 
L 313 1709 
L 2253 4666 
z
" transform="scale(0.015625)"/>
       </defs>
       <use xlink:href="#DejaVuSans-34"/>
      </g>
     </g>
    </g>
    <g id="xtick_6">
     <g id="line2d_11">
      <path d="M 215.489593 109.265371 
L 215.489593 26.105371 
" clip-path="url(#pdc407e908a)" style="fill: none; stroke: #ffffff"/>
     </g>
     <g id="line2d_12">
      <path d="M 215.489593 109.265371 
" style="fill: none; stroke: #000000; stroke-width: 2"/>
      <g>
       <use xlink:href="#mcb05335d3f" x="215.489593" y="109.265371" style="stroke: #333333"/>
      </g>
     </g>
     <g id="text_6">
      <!-- 5 -->
      <g style="fill: #4d4d4d" transform="translate(212.690093 120.901996)scale(0.088 -0.088)">
       <defs>
        <path id="DejaVuSans-35" d="M 691 4666 
L 3169 4666 
L 3169 4134 
L 1269 4134 
L 1269 2991 
Q 1406 3038 1543 3061 
Q 1681 3084 1819 3084 
Q 2600 3084 3056 2656 
Q 3513 2228 3513 1497 
Q 3513 744 3044 326 
Q 2575 -91 1722 -91 
Q 1428 -91 1123 -41 
Q 819 9 494 109 
L 494 744 
Q 775 591 1075 516 
Q 1375 441 1709 441 
Q 2250 441 2565 725 
Q 2881 1009 2881 1497 
Q 2881 1984 2565 2268 
Q 2250 2553 1709 2553 
Q 1456 2553 1204 2497 
Q 953 2441 691 2322 
L 691 4666 
z
" transform="scale(0.015625)"/>
       </defs>
       <use xlink:href="#DejaVuSans-35"/>
      </g>
     </g>
    </g>
    <g id="xtick_7">
     <g id="line2d_13">
      <path d="M 246.078903 109.265371 
L 246.078903 26.105371 
" clip-path="url(#pdc407e908a)" style="fill: none; stroke: #ffffff"/>
     </g>
     <g id="line2d_14">
      <path d="M 246.078903 109.265371 
" style="fill: none; stroke: #000000; stroke-width: 2"/>
      <g>
       <use xlink:href="#mcb05335d3f" x="246.078903" y="109.265371" style="stroke: #333333"/>
      </g>
     </g>
     <g id="text_7">
      <!-- 6 -->
      <g style="fill: #4d4d4d" transform="translate(243.279403 120.901996)scale(0.088 -0.088)">
       <defs>
        <path id="DejaVuSans-36" d="M 2113 2584 
Q 1688 2584 1439 2293 
Q 1191 2003 1191 1497 
Q 1191 994 1439 701 
Q 1688 409 2113 409 
Q 2538 409 2786 701 
Q 3034 994 3034 1497 
Q 3034 2003 2786 2293 
Q 2538 2584 2113 2584 
z
M 3366 4563 
L 3366 3988 
Q 3128 4100 2886 4159 
Q 2644 4219 2406 4219 
Q 1781 4219 1451 3797 
Q 1122 3375 1075 2522 
Q 1259 2794 1537 2939 
Q 1816 3084 2150 3084 
Q 2853 3084 3261 2657 
Q 3669 2231 3669 1497 
Q 3669 778 3244 343 
Q 2819 -91 2113 -91 
Q 1303 -91 875 529 
Q 447 1150 447 2328 
Q 447 3434 972 4092 
Q 1497 4750 2381 4750 
Q 2619 4750 2861 4703 
Q 3103 4656 3366 4563 
z
" transform="scale(0.015625)"/>
       </defs>
       <use xlink:href="#DejaVuSans-36"/>
      </g>
     </g>
    </g>
    <g id="xtick_8">
     <g id="line2d_15">
      <path d="M 276.668213 109.265371 
L 276.668213 26.105371 
" clip-path="url(#pdc407e908a)" style="fill: none; stroke: #ffffff"/>
     </g>
     <g id="line2d_16">
      <path d="M 276.668213 109.265371 
" style="fill: none; stroke: #000000; stroke-width: 2"/>
      <g>
       <use xlink:href="#mcb05335d3f" x="276.668213" y="109.265371" style="stroke: #333333"/>
      </g>
     </g>
     <g id="text_8">
      <!-- 7 -->
      <g style="fill: #4d4d4d" transform="translate(273.868713 120.901996)scale(0.088 -0.088)">
       <defs>
        <path id="DejaVuSans-37" d="M 525 4666 
L 3525 4666 
L 3525 4397 
L 1831 0 
L 1172 0 
L 2766 4134 
L 525 4134 
L 525 4666 
z
" transform="scale(0.015625)"/>
       </defs>
       <use xlink:href="#DejaVuSans-37"/>
      </g>
     </g>
    </g>
    <g id="xtick_9">
     <g id="line2d_17">
      <path d="M 307.257523 109.265371 
L 307.257523 26.105371 
" clip-path="url(#pdc407e908a)" style="fill: none; stroke: #ffffff"/>
     </g>
     <g id="line2d_18">
      <path d="M 307.257523 109.265371 
" style="fill: none; stroke: #000000; stroke-width: 2"/>
      <g>
       <use xlink:href="#mcb05335d3f" x="307.257523" y="109.265371" style="stroke: #333333"/>
      </g>
     </g>
     <g id="text_9">
      <!-- 8 -->
      <g style="fill: #4d4d4d" transform="translate(304.458023 120.901996)scale(0.088 -0.088)">
       <defs>
        <path id="DejaVuSans-38" d="M 2034 2216 
Q 1584 2216 1326 1975 
Q 1069 1734 1069 1313 
Q 1069 891 1326 650 
Q 1584 409 2034 409 
Q 2484 409 2743 651 
Q 3003 894 3003 1313 
Q 3003 1734 2745 1975 
Q 2488 2216 2034 2216 
z
M 1403 2484 
Q 997 2584 770 2862 
Q 544 3141 544 3541 
Q 544 4100 942 4425 
Q 1341 4750 2034 4750 
Q 2731 4750 3128 4425 
Q 3525 4100 3525 3541 
Q 3525 3141 3298 2862 
Q 3072 2584 2669 2484 
Q 3125 2378 3379 2068 
Q 3634 1759 3634 1313 
Q 3634 634 3220 271 
Q 2806 -91 2034 -91 
Q 1263 -91 848 271 
Q 434 634 434 1313 
Q 434 1759 690 2068 
Q 947 2378 1403 2484 
z
M 1172 3481 
Q 1172 3119 1398 2916 
Q 1625 2713 2034 2713 
Q 2441 2713 2670 2916 
Q 2900 3119 2900 3481 
Q 2900 3844 2670 4047 
Q 2441 4250 2034 4250 
Q 1625 4250 1398 4047 
Q 1172 3844 1172 3481 
z
" transform="scale(0.015625)"/>
       </defs>
       <use xlink:href="#DejaVuSans-38"/>
      </g>
     </g>
    </g>
    <g id="xtick_10">
     <g id="line2d_19">
      <path d="M 337.846833 109.265371 
L 337.846833 26.105371 
" clip-path="url(#pdc407e908a)" style="fill: none; stroke: #ffffff"/>
     </g>
     <g id="line2d_20">
      <path d="M 337.846833 109.265371 
" style="fill: none; stroke: #000000; stroke-width: 2"/>
      <g>
       <use xlink:href="#mcb05335d3f" x="337.846833" y="109.265371" style="stroke: #333333"/>
      </g>
     </g>
     <g id="text_10">
      <!-- 9 -->
      <g style="fill: #4d4d4d" transform="translate(335.047333 120.901996)scale(0.088 -0.088)">
       <defs>
        <path id="DejaVuSans-39" d="M 703 97 
L 703 672 
Q 941 559 1184 500 
Q 1428 441 1663 441 
Q 2288 441 2617 861 
Q 2947 1281 2994 2138 
Q 2813 1869 2534 1725 
Q 2256 1581 1919 1581 
Q 1219 1581 811 2004 
Q 403 2428 403 3163 
Q 403 3881 828 4315 
Q 1253 4750 1959 4750 
Q 2769 4750 3195 4129 
Q 3622 3509 3622 2328 
Q 3622 1225 3098 567 
Q 2575 -91 1691 -91 
Q 1453 -91 1209 -44 
Q 966 3 703 97 
z
M 1959 2075 
Q 2384 2075 2632 2365 
Q 2881 2656 2881 3163 
Q 2881 3666 2632 3958 
Q 2384 4250 1959 4250 
Q 1534 4250 1286 3958 
Q 1038 3666 1038 3163 
Q 1038 2656 1286 2365 
Q 1534 2075 1959 2075 
z
" transform="scale(0.015625)"/>
       </defs>
       <use xlink:href="#DejaVuSans-39"/>
      </g>
     </g>
    </g>
    <g id="xtick_11">
     <g id="line2d_21">
      <path d="M 47.248387 109.265371 
L 47.248387 26.105371 
" clip-path="url(#pdc407e908a)" style="fill: none; stroke: #ffffff; stroke-width: 0.5"/>
     </g>
    </g>
    <g id="xtick_12">
     <g id="line2d_22">
      <path d="M 77.837697 109.265371 
L 77.837697 26.105371 
" clip-path="url(#pdc407e908a)" style="fill: none; stroke: #ffffff; stroke-width: 0.5"/>
     </g>
    </g>
    <g id="xtick_13">
     <g id="line2d_23">
      <path d="M 108.427007 109.265371 
L 108.427007 26.105371 
" clip-path="url(#pdc407e908a)" style="fill: none; stroke: #ffffff; stroke-width: 0.5"/>
     </g>
    </g>
    <g id="xtick_14">
     <g id="line2d_24">
      <path d="M 139.016317 109.265371 
L 139.016317 26.105371 
" clip-path="url(#pdc407e908a)" style="fill: none; stroke: #ffffff; stroke-width: 0.5"/>
     </g>
    </g>
    <g id="xtick_15">
     <g id="line2d_25">
      <path d="M 169.605627 109.265371 
L 169.605627 26.105371 
" clip-path="url(#pdc407e908a)" style="fill: none; stroke: #ffffff; stroke-width: 0.5"/>
     </g>
    </g>
    <g id="xtick_16">
     <g id="line2d_26">
      <path d="M 200.194938 109.265371 
L 200.194938 26.105371 
" clip-path="url(#pdc407e908a)" style="fill: none; stroke: #ffffff; stroke-width: 0.5"/>
     </g>
    </g>
    <g id="xtick_17">
     <g id="line2d_27">
      <path d="M 230.784248 109.265371 
L 230.784248 26.105371 
" clip-path="url(#pdc407e908a)" style="fill: none; stroke: #ffffff; stroke-width: 0.5"/>
     </g>
    </g>
    <g id="xtick_18">
     <g id="line2d_28">
      <path d="M 261.373558 109.265371 
L 261.373558 26.105371 
" clip-path="url(#pdc407e908a)" style="fill: none; stroke: #ffffff; stroke-width: 0.5"/>
     </g>
    </g>
    <g id="xtick_19">
     <g id="line2d_29">
      <path d="M 291.962868 109.265371 
L 291.962868 26.105371 
" clip-path="url(#pdc407e908a)" style="fill: none; stroke: #ffffff; stroke-width: 0.5"/>
     </g>
    </g>
    <g id="xtick_20">
     <g id="line2d_30">
      <path d="M 322.552178 109.265371 
L 322.552178 26.105371 
" clip-path="url(#pdc407e908a)" style="fill: none; stroke: #ffffff; stroke-width: 0.5"/>
     </g>
    </g>
    <g id="xtick_21">
     <g id="line2d_31">
      <path d="M 353.141488 109.265371 
L 353.141488 26.105371 
" clip-path="url(#pdc407e908a)" style="fill: none; stroke: #ffffff; stroke-width: 0.5"/>
     </g>
    </g>
    <g id="text_11">
     <!-- t -->
     <g transform="translate(192.638766 135.490402)scale(0.11 -0.11)">
      <defs>
       <path id="DejaVuSans-74" d="M 1172 4494 
L 1172 3500 
L 2356 3500 
L 2356 3053 
L 1172 3053 
L 1172 1153 
Q 1172 725 1289 603 
Q 1406 481 1766 481 
L 2356 481 
L 2356 0 
L 1766 0 
Q 1100 0 847 248 
Q 594 497 594 1153 
L 594 3053 
L 172 3053 
L 172 3500 
L 594 3500 
L 594 4494 
L 1172 4494 
z
" transform="scale(0.015625)"/>
      </defs>
      <use xlink:href="#DejaVuSans-74"/>
     </g>
    </g>
   </g>
   <g id="matplotlib.axis_2">
    <g id="ytick_1">
     <g id="line2d_32">
      <path d="M 32.794938 100.318464 
L 367.594938 100.318464 
" clip-path="url(#pdc407e908a)" style="fill: none; stroke: #ffffff"/>
     </g>
     <g id="line2d_33">
      <path d="M 32.794938 100.318464 
" style="fill: none; stroke: #000000; stroke-width: 2"/>
      <defs>
       <path id="md0a345c926" d="M 0 0 
L -2.75 0 
" style="stroke: #333333"/>
      </defs>
      <g>
       <use xlink:href="#md0a345c926" x="32.794938" y="100.318464" style="stroke: #333333"/>
      </g>
     </g>
     <g id="text_12">
      <!-- 1 -->
      <g style="fill: #4d4d4d" transform="translate(22.245938 102.746714)scale(0.088 -0.088)">
       <use xlink:href="#DejaVuSans-31"/>
      </g>
     </g>
    </g>
    <g id="ytick_2">
     <g id="line2d_34">
      <path d="M 32.794938 89.440766 
L 367.594938 89.440766 
" clip-path="url(#pdc407e908a)" style="fill: none; stroke: #ffffff"/>
     </g>
     <g id="line2d_35">
      <path d="M 32.794938 89.440766 
" style="fill: none; stroke: #000000; stroke-width: 2"/>
      <g>
       <use xlink:href="#md0a345c926" x="32.794938" y="89.440766" style="stroke: #333333"/>
      </g>
     </g>
     <g id="text_13">
      <!-- 2 -->
      <g style="fill: #4d4d4d" transform="translate(22.245938 91.869016)scale(0.088 -0.088)">
       <use xlink:href="#DejaVuSans-32"/>
      </g>
     </g>
    </g>
    <g id="ytick_3">
     <g id="line2d_36">
      <path d="M 32.794938 78.563069 
L 367.594938 78.563069 
" clip-path="url(#pdc407e908a)" style="fill: none; stroke: #ffffff"/>
     </g>
     <g id="line2d_37">
      <path d="M 32.794938 78.563069 
" style="fill: none; stroke: #000000; stroke-width: 2"/>
      <g>
       <use xlink:href="#md0a345c926" x="32.794938" y="78.563069" style="stroke: #333333"/>
      </g>
     </g>
     <g id="text_14">
      <!-- 3 -->
      <g style="fill: #4d4d4d" transform="translate(22.245938 80.991319)scale(0.088 -0.088)">
       <use xlink:href="#DejaVuSans-33"/>
      </g>
     </g>
    </g>
    <g id="ytick_4">
     <g id="line2d_38">
      <path d="M 32.794938 67.685371 
L 367.594938 67.685371 
" clip-path="url(#pdc407e908a)" style="fill: none; stroke: #ffffff"/>
     </g>
     <g id="line2d_39">
      <path d="M 32.794938 67.685371 
" style="fill: none; stroke: #000000; stroke-width: 2"/>
      <g>
       <use xlink:href="#md0a345c926" x="32.794938" y="67.685371" style="stroke: #333333"/>
      </g>
     </g>
     <g id="text_15">
      <!-- 4 -->
      <g style="fill: #4d4d4d" transform="translate(22.245938 70.113621)scale(0.088 -0.088)">
       <use xlink:href="#DejaVuSans-34"/>
      </g>
     </g>
    </g>
    <g id="ytick_5">
     <g id="line2d_40">
      <path d="M 32.794938 56.807673 
L 367.594938 56.807673 
" clip-path="url(#pdc407e908a)" style="fill: none; stroke: #ffffff"/>
     </g>
     <g id="line2d_41">
      <path d="M 32.794938 56.807673 
" style="fill: none; stroke: #000000; stroke-width: 2"/>
      <g>
       <use xlink:href="#md0a345c926" x="32.794938" y="56.807673" style="stroke: #333333"/>
      </g>
     </g>
     <g id="text_16">
      <!-- 5 -->
      <g style="fill: #4d4d4d" transform="translate(22.245938 59.235923)scale(0.088 -0.088)">
       <use xlink:href="#DejaVuSans-35"/>
      </g>
     </g>
    </g>
    <g id="ytick_6">
     <g id="line2d_42">
      <path d="M 32.794938 45.929975 
L 367.594938 45.929975 
" clip-path="url(#pdc407e908a)" style="fill: none; stroke: #ffffff"/>
     </g>
     <g id="line2d_43">
      <path d="M 32.794938 45.929975 
" style="fill: none; stroke: #000000; stroke-width: 2"/>
      <g>
       <use xlink:href="#md0a345c926" x="32.794938" y="45.929975" style="stroke: #333333"/>
      </g>
     </g>
     <g id="text_17">
      <!-- 6 -->
      <g style="fill: #4d4d4d" transform="translate(22.245938 48.358225)scale(0.088 -0.088)">
       <use xlink:href="#DejaVuSans-36"/>
      </g>
     </g>
    </g>
    <g id="ytick_7">
     <g id="line2d_44">
      <path d="M 32.794938 35.052277 
L 367.594938 35.052277 
" clip-path="url(#pdc407e908a)" style="fill: none; stroke: #ffffff"/>
     </g>
     <g id="line2d_45">
      <path d="M 32.794938 35.052277 
" style="fill: none; stroke: #000000; stroke-width: 2"/>
      <g>
       <use xlink:href="#md0a345c926" x="32.794938" y="35.052277" style="stroke: #333333"/>
      </g>
     </g>
     <g id="text_18">
      <!-- 7 -->
      <g style="fill: #4d4d4d" transform="translate(22.245938 37.480527)scale(0.088 -0.088)">
       <use xlink:href="#DejaVuSans-37"/>
      </g>
     </g>
    </g>
    <g id="ytick_8">
     <g id="line2d_46">
      <path d="M 32.794938 105.757313 
L 367.594938 105.757313 
" clip-path="url(#pdc407e908a)" style="fill: none; stroke: #ffffff; stroke-width: 0.5"/>
     </g>
    </g>
    <g id="ytick_9">
     <g id="line2d_47">
      <path d="M 32.794938 94.879615 
L 367.594938 94.879615 
" clip-path="url(#pdc407e908a)" style="fill: none; stroke: #ffffff; stroke-width: 0.5"/>
     </g>
    </g>
    <g id="ytick_10">
     <g id="line2d_48">
      <path d="M 32.794938 84.001917 
L 367.594938 84.001917 
" clip-path="url(#pdc407e908a)" style="fill: none; stroke: #ffffff; stroke-width: 0.5"/>
     </g>
    </g>
    <g id="ytick_11">
     <g id="line2d_49">
      <path d="M 32.794938 73.12422 
L 367.594938 73.12422 
" clip-path="url(#pdc407e908a)" style="fill: none; stroke: #ffffff; stroke-width: 0.5"/>
     </g>
    </g>
    <g id="ytick_12">
     <g id="line2d_50">
      <path d="M 32.794938 62.246522 
L 367.594938 62.246522 
" clip-path="url(#pdc407e908a)" style="fill: none; stroke: #ffffff; stroke-width: 0.5"/>
     </g>
    </g>
    <g id="ytick_13">
     <g id="line2d_51">
      <path d="M 32.794938 51.368824 
L 367.594938 51.368824 
" clip-path="url(#pdc407e908a)" style="fill: none; stroke: #ffffff; stroke-width: 0.5"/>
     </g>
    </g>
    <g id="ytick_14">
     <g id="line2d_52">
      <path d="M 32.794938 40.491126 
L 367.594938 40.491126 
" clip-path="url(#pdc407e908a)" style="fill: none; stroke: #ffffff; stroke-width: 0.5"/>
     </g>
    </g>
    <g id="ytick_15">
     <g id="line2d_53">
      <path d="M 32.794938 29.613428 
L 367.594938 29.613428 
" clip-path="url(#pdc407e908a)" style="fill: none; stroke: #ffffff; stroke-width: 0.5"/>
     </g>
    </g>
    <g id="text_19">
     <!-- $\mu$ -->
     <g transform="translate(15.535938 70.060371)rotate(-90)scale(0.11 -0.11)">
      <defs>
       <path id="STIXGeneral-Italic-3bc" d="M 3002 749 
L 3091 691 
Q 2797 237 2614 83 
Q 2432 -70 2214 -70 
Q 2080 -70 1990 6 
Q 1901 83 1901 218 
Q 1901 416 1997 704 
L 2208 1370 
L 2202 1370 
Q 1766 595 1475 268 
Q 1184 -58 902 -58 
Q 723 -58 672 122 
Q 614 -109 547 -374 
Q 480 -640 451 -758 
Q 422 -877 384 -1005 
Q 346 -1133 314 -1197 
Q 282 -1261 243 -1312 
L -211 -1312 
Q -58 -1088 70 -595 
L 909 2739 
L 1389 2739 
L 909 832 
Q 883 717 883 659 
Q 883 352 1139 352 
Q 1395 352 1811 969 
Q 2227 1587 2323 1958 
L 2534 2739 
L 3027 2739 
L 2522 819 
Q 2400 333 2400 326 
Q 2400 230 2470 230 
Q 2547 230 2652 329 
Q 2758 429 3002 749 
z
" transform="scale(0.015625)"/>
      </defs>
      <use xlink:href="#STIXGeneral-Italic-3bc" transform="translate(0 0.203125)"/>
     </g>
    </g>
   </g>
   <g id="PolyCollection_1">
    <path d="M 139.78105 105.485371 
L 139.78105 95.151558 
L 168.840895 95.151558 
L 168.840895 105.485371 
z
" clip-path="url(#pdc407e908a)" style="fill: #7fc97f"/>
    <path d="M 170.37036 105.485371 
L 170.37036 95.151558 
L 199.430205 95.151558 
L 199.430205 105.485371 
z
" clip-path="url(#pdc407e908a)" style="fill: #7fc97f"/>
    <path d="M 200.95967 105.485371 
L 200.95967 95.151558 
L 230.019515 95.151558 
L 230.019515 105.485371 
z
" clip-path="url(#pdc407e908a)" style="fill: #7fc97f"/>
    <path d="M 231.54898 105.485371 
L 231.54898 95.151558 
L 260.608825 95.151558 
L 260.608825 105.485371 
z
" clip-path="url(#pdc407e908a)" style="fill: #7fc97f"/>
    <path d="M 262.138291 105.485371 
L 262.138291 95.151558 
L 291.198135 95.151558 
L 291.198135 105.485371 
z
" clip-path="url(#pdc407e908a)" style="fill: #7fc97f"/>
    <path d="M 292.727601 105.485371 
L 292.727601 95.151558 
L 321.787445 95.151558 
L 321.787445 105.485371 
z
" clip-path="url(#pdc407e908a)" style="fill: #7fc97f"/>
    <path d="M 323.316911 105.485371 
L 323.316911 95.151558 
L 352.376756 95.151558 
L 352.376756 105.485371 
z
" clip-path="url(#pdc407e908a)" style="fill: #7fc97f"/>
   </g>
   <g id="PolyCollection_2">
    <path d="M 170.37036 94.607673 
L 170.37036 84.27386 
L 199.430205 84.27386 
L 199.430205 94.607673 
z
" clip-path="url(#pdc407e908a)" style="fill: #7fc97f"/>
    <path d="M 200.95967 94.607673 
L 200.95967 84.27386 
L 230.019515 84.27386 
L 230.019515 94.607673 
z
" clip-path="url(#pdc407e908a)" style="fill: #7fc97f"/>
    <path d="M 231.54898 94.607673 
L 231.54898 84.27386 
L 260.608825 84.27386 
L 260.608825 94.607673 
z
" clip-path="url(#pdc407e908a)" style="fill: #7fc97f"/>
    <path d="M 262.138291 94.607673 
L 262.138291 84.27386 
L 291.198135 84.27386 
L 291.198135 94.607673 
z
" clip-path="url(#pdc407e908a)" style="fill: #7fc97f"/>
    <path d="M 292.727601 94.607673 
L 292.727601 84.27386 
L 321.787445 84.27386 
L 321.787445 94.607673 
z
" clip-path="url(#pdc407e908a)" style="fill: #7fc97f"/>
    <path d="M 323.316911 94.607673 
L 323.316911 84.27386 
L 352.376756 84.27386 
L 352.376756 94.607673 
z
" clip-path="url(#pdc407e908a)" style="fill: #7fc97f"/>
   </g>
   <g id="PolyCollection_3">
    <path d="M 200.95967 83.729975 
L 200.95967 73.396162 
L 230.019515 73.396162 
L 230.019515 83.729975 
z
" clip-path="url(#pdc407e908a)" style="fill: #7fc97f"/>
    <path d="M 231.54898 83.729975 
L 231.54898 73.396162 
L 260.608825 73.396162 
L 260.608825 83.729975 
z
" clip-path="url(#pdc407e908a)" style="fill: #7fc97f"/>
    <path d="M 262.138291 83.729975 
L 262.138291 73.396162 
L 291.198135 73.396162 
L 291.198135 83.729975 
z
" clip-path="url(#pdc407e908a)" style="fill: #7fc97f"/>
    <path d="M 292.727601 83.729975 
L 292.727601 73.396162 
L 321.787445 73.396162 
L 321.787445 83.729975 
z
" clip-path="url(#pdc407e908a)" style="fill: #7fc97f"/>
    <path d="M 323.316911 83.729975 
L 323.316911 73.396162 
L 352.376756 73.396162 
L 352.376756 83.729975 
z
" clip-path="url(#pdc407e908a)" style="fill: #7fc97f"/>
   </g>
   <g id="PolyCollection_4">
    <path d="M 231.54898 72.852277 
L 231.54898 62.518464 
L 260.608825 62.518464 
L 260.608825 72.852277 
z
" clip-path="url(#pdc407e908a)" style="fill: #7fc97f"/>
    <path d="M 262.138291 72.852277 
L 262.138291 62.518464 
L 291.198135 62.518464 
L 291.198135 72.852277 
z
" clip-path="url(#pdc407e908a)" style="fill: #7fc97f"/>
    <path d="M 292.727601 72.852277 
L 292.727601 62.518464 
L 321.787445 62.518464 
L 321.787445 72.852277 
z
" clip-path="url(#pdc407e908a)" style="fill: #7fc97f"/>
    <path d="M 323.316911 72.852277 
L 323.316911 62.518464 
L 352.376756 62.518464 
L 352.376756 72.852277 
z
" clip-path="url(#pdc407e908a)" style="fill: #7fc97f"/>
   </g>
   <g id="PolyCollection_5">
    <path d="M 262.138291 61.974579 
L 262.138291 51.640766 
L 291.198135 51.640766 
L 291.198135 61.974579 
z
" clip-path="url(#pdc407e908a)" style="fill: #7fc97f"/>
    <path d="M 292.727601 61.974579 
L 292.727601 51.640766 
L 321.787445 51.640766 
L 321.787445 61.974579 
z
" clip-path="url(#pdc407e908a)" style="fill: #7fc97f"/>
    <path d="M 323.316911 61.974579 
L 323.316911 51.640766 
L 352.376756 51.640766 
L 352.376756 61.974579 
z
" clip-path="url(#pdc407e908a)" style="fill: #7fc97f"/>
   </g>
   <g id="PolyCollection_6">
    <path d="M 292.727601 51.096882 
L 292.727601 40.763069 
L 321.787445 40.763069 
L 321.787445 51.096882 
z
" clip-path="url(#pdc407e908a)" style="fill: #7fc97f"/>
    <path d="M 323.316911 51.096882 
L 323.316911 40.763069 
L 352.376756 40.763069 
L 352.376756 51.096882 
z
" clip-path="url(#pdc407e908a)" style="fill: #7fc97f"/>
   </g>
   <g id="PolyCollection_7">
    <path d="M 323.316911 40.219184 
L 323.316911 29.885371 
L 352.376756 29.885371 
L 352.376756 40.219184 
z
" clip-path="url(#pdc407e908a)" style="fill: #7fc97f"/>
   </g>
   <g id="PolyCollection_8">
    <path d="M 48.013119 105.485371 
L 48.013119 95.151558 
L 77.072964 95.151558 
L 77.072964 105.485371 
z
" clip-path="url(#pdc407e908a)" style="fill: #beaed4"/>
    <path d="M 78.60243 105.485371 
L 78.60243 95.151558 
L 107.662274 95.151558 
L 107.662274 105.485371 
z
" clip-path="url(#pdc407e908a)" style="fill: #beaed4"/>
    <path d="M 109.19174 105.485371 
L 109.19174 95.151558 
L 138.251584 95.151558 
L 138.251584 105.485371 
z
" clip-path="url(#pdc407e908a)" style="fill: #beaed4"/>
   </g>
   <g id="PolyCollection_9">
    <path d="M 48.013119 94.607673 
L 48.013119 84.27386 
L 77.072964 84.27386 
L 77.072964 94.607673 
z
" clip-path="url(#pdc407e908a)" style="fill: #beaed4"/>
    <path d="M 78.60243 94.607673 
L 78.60243 84.27386 
L 107.662274 84.27386 
L 107.662274 94.607673 
z
" clip-path="url(#pdc407e908a)" style="fill: #beaed4"/>
    <path d="M 109.19174 94.607673 
L 109.19174 84.27386 
L 138.251584 84.27386 
L 138.251584 94.607673 
z
" clip-path="url(#pdc407e908a)" style="fill: #beaed4"/>
    <path d="M 139.78105 94.607673 
L 139.78105 84.27386 
L 168.840895 84.27386 
L 168.840895 94.607673 
z
" clip-path="url(#pdc407e908a)" style="fill: #beaed4"/>
   </g>
   <g id="PolyCollection_10">
    <path d="M 48.013119 83.729975 
L 48.013119 73.396162 
L 77.072964 73.396162 
L 77.072964 83.729975 
z
" clip-path="url(#pdc407e908a)" style="fill: #beaed4"/>
    <path d="M 78.60243 83.729975 
L 78.60243 73.396162 
L 107.662274 73.396162 
L 107.662274 83.729975 
z
" clip-path="url(#pdc407e908a)" style="fill: #beaed4"/>
    <path d="M 109.19174 83.729975 
L 109.19174 73.396162 
L 138.251584 73.396162 
L 138.251584 83.729975 
z
" clip-path="url(#pdc407e908a)" style="fill: #beaed4"/>
    <path d="M 139.78105 83.729975 
L 139.78105 73.396162 
L 168.840895 73.396162 
L 168.840895 83.729975 
z
" clip-path="url(#pdc407e908a)" style="fill: #beaed4"/>
    <path d="M 170.37036 83.729975 
L 170.37036 73.396162 
L 199.430205 73.396162 
L 199.430205 83.729975 
z
" clip-path="url(#pdc407e908a)" style="fill: #beaed4"/>
   </g>
   <g id="PolyCollection_11">
    <path d="M 48.013119 72.852277 
L 48.013119 62.518464 
L 77.072964 62.518464 
L 77.072964 72.852277 
z
" clip-path="url(#pdc407e908a)" style="fill: #beaed4"/>
    <path d="M 78.60243 72.852277 
L 78.60243 62.518464 
L 107.662274 62.518464 
L 107.662274 72.852277 
z
" clip-path="url(#pdc407e908a)" style="fill: #beaed4"/>
    <path d="M 109.19174 72.852277 
L 109.19174 62.518464 
L 138.251584 62.518464 
L 138.251584 72.852277 
z
" clip-path="url(#pdc407e908a)" style="fill: #beaed4"/>
    <path d="M 139.78105 72.852277 
L 139.78105 62.518464 
L 168.840895 62.518464 
L 168.840895 72.852277 
z
" clip-path="url(#pdc407e908a)" style="fill: #beaed4"/>
    <path d="M 170.37036 72.852277 
L 170.37036 62.518464 
L 199.430205 62.518464 
L 199.430205 72.852277 
z
" clip-path="url(#pdc407e908a)" style="fill: #beaed4"/>
    <path d="M 200.95967 72.852277 
L 200.95967 62.518464 
L 230.019515 62.518464 
L 230.019515 72.852277 
z
" clip-path="url(#pdc407e908a)" style="fill: #beaed4"/>
   </g>
   <g id="PolyCollection_12">
    <path d="M 48.013119 61.974579 
L 48.013119 51.640766 
L 77.072964 51.640766 
L 77.072964 61.974579 
z
" clip-path="url(#pdc407e908a)" style="fill: #beaed4"/>
    <path d="M 78.60243 61.974579 
L 78.60243 51.640766 
L 107.662274 51.640766 
L 107.662274 61.974579 
z
" clip-path="url(#pdc407e908a)" style="fill: #beaed4"/>
    <path d="M 109.19174 61.974579 
L 109.19174 51.640766 
L 138.251584 51.640766 
L 138.251584 61.974579 
z
" clip-path="url(#pdc407e908a)" style="fill: #beaed4"/>
    <path d="M 139.78105 61.974579 
L 139.78105 51.640766 
L 168.840895 51.640766 
L 168.840895 61.974579 
z
" clip-path="url(#pdc407e908a)" style="fill: #beaed4"/>
    <path d="M 170.37036 61.974579 
L 170.37036 51.640766 
L 199.430205 51.640766 
L 199.430205 61.974579 
z
" clip-path="url(#pdc407e908a)" style="fill: #beaed4"/>
    <path d="M 200.95967 61.974579 
L 200.95967 51.640766 
L 230.019515 51.640766 
L 230.019515 61.974579 
z
" clip-path="url(#pdc407e908a)" style="fill: #beaed4"/>
    <path d="M 231.54898 61.974579 
L 231.54898 51.640766 
L 260.608825 51.640766 
L 260.608825 61.974579 
z
" clip-path="url(#pdc407e908a)" style="fill: #beaed4"/>
   </g>
   <g id="PolyCollection_13">
    <path d="M 48.013119 51.096882 
L 48.013119 40.763069 
L 77.072964 40.763069 
L 77.072964 51.096882 
z
" clip-path="url(#pdc407e908a)" style="fill: #beaed4"/>
    <path d="M 78.60243 51.096882 
L 78.60243 40.763069 
L 107.662274 40.763069 
L 107.662274 51.096882 
z
" clip-path="url(#pdc407e908a)" style="fill: #beaed4"/>
    <path d="M 109.19174 51.096882 
L 109.19174 40.763069 
L 138.251584 40.763069 
L 138.251584 51.096882 
z
" clip-path="url(#pdc407e908a)" style="fill: #beaed4"/>
    <path d="M 139.78105 51.096882 
L 139.78105 40.763069 
L 168.840895 40.763069 
L 168.840895 51.096882 
z
" clip-path="url(#pdc407e908a)" style="fill: #beaed4"/>
    <path d="M 170.37036 51.096882 
L 170.37036 40.763069 
L 199.430205 40.763069 
L 199.430205 51.096882 
z
" clip-path="url(#pdc407e908a)" style="fill: #beaed4"/>
    <path d="M 200.95967 51.096882 
L 200.95967 40.763069 
L 230.019515 40.763069 
L 230.019515 51.096882 
z
" clip-path="url(#pdc407e908a)" style="fill: #beaed4"/>
    <path d="M 231.54898 51.096882 
L 231.54898 40.763069 
L 260.608825 40.763069 
L 260.608825 51.096882 
z
" clip-path="url(#pdc407e908a)" style="fill: #beaed4"/>
    <path d="M 262.138291 51.096882 
L 262.138291 40.763069 
L 291.198135 40.763069 
L 291.198135 51.096882 
z
" clip-path="url(#pdc407e908a)" style="fill: #beaed4"/>
   </g>
   <g id="PolyCollection_14">
    <path d="M 48.013119 40.219184 
L 48.013119 29.885371 
L 77.072964 29.885371 
L 77.072964 40.219184 
z
" clip-path="url(#pdc407e908a)" style="fill: #beaed4"/>
    <path d="M 78.60243 40.219184 
L 78.60243 29.885371 
L 107.662274 29.885371 
L 107.662274 40.219184 
z
" clip-path="url(#pdc407e908a)" style="fill: #beaed4"/>
    <path d="M 109.19174 40.219184 
L 109.19174 29.885371 
L 138.251584 29.885371 
L 138.251584 40.219184 
z
" clip-path="url(#pdc407e908a)" style="fill: #beaed4"/>
    <path d="M 139.78105 40.219184 
L 139.78105 29.885371 
L 168.840895 29.885371 
L 168.840895 40.219184 
z
" clip-path="url(#pdc407e908a)" style="fill: #beaed4"/>
    <path d="M 170.37036 40.219184 
L 170.37036 29.885371 
L 199.430205 29.885371 
L 199.430205 40.219184 
z
" clip-path="url(#pdc407e908a)" style="fill: #beaed4"/>
    <path d="M 200.95967 40.219184 
L 200.95967 29.885371 
L 230.019515 29.885371 
L 230.019515 40.219184 
z
" clip-path="url(#pdc407e908a)" style="fill: #beaed4"/>
    <path d="M 231.54898 40.219184 
L 231.54898 29.885371 
L 260.608825 29.885371 
L 260.608825 40.219184 
z
" clip-path="url(#pdc407e908a)" style="fill: #beaed4"/>
    <path d="M 262.138291 40.219184 
L 262.138291 29.885371 
L 291.198135 29.885371 
L 291.198135 40.219184 
z
" clip-path="url(#pdc407e908a)" style="fill: #beaed4"/>
    <path d="M 292.727601 40.219184 
L 292.727601 29.885371 
L 321.787445 29.885371 
L 321.787445 40.219184 
z
" clip-path="url(#pdc407e908a)" style="fill: #beaed4"/>
   </g>
   <g id="patch_3">
    <path d="M 374.794938 103.708339 
L 478.954313 103.708339 
L 478.954313 30.582402 
L 374.794938 30.582402 
z
" style="fill: #ffffff"/>
   </g>
   <g id="text_20">
    <!-- sample -->
    <g transform="translate(386.994938 54.175996)scale(0.11 -0.11)">
     <defs>
      <path id="DejaVuSans-73" d="M 2834 3397 
L 2834 2853 
Q 2591 2978 2328 3040 
Q 2066 3103 1784 3103 
Q 1356 3103 1142 2972 
Q 928 2841 928 2578 
Q 928 2378 1081 2264 
Q 1234 2150 1697 2047 
L 1894 2003 
Q 2506 1872 2764 1633 
Q 3022 1394 3022 966 
Q 3022 478 2636 193 
Q 2250 -91 1575 -91 
Q 1294 -91 989 -36 
Q 684 19 347 128 
L 347 722 
Q 666 556 975 473 
Q 1284 391 1588 391 
Q 1994 391 2212 530 
Q 2431 669 2431 922 
Q 2431 1156 2273 1281 
Q 2116 1406 1581 1522 
L 1381 1569 
Q 847 1681 609 1914 
Q 372 2147 372 2553 
Q 372 3047 722 3315 
Q 1072 3584 1716 3584 
Q 2034 3584 2315 3537 
Q 2597 3491 2834 3397 
z
" transform="scale(0.015625)"/>
      <path id="DejaVuSans-61" d="M 2194 1759 
Q 1497 1759 1228 1600 
Q 959 1441 959 1056 
Q 959 750 1161 570 
Q 1363 391 1709 391 
Q 2188 391 2477 730 
Q 2766 1069 2766 1631 
L 2766 1759 
L 2194 1759 
z
M 3341 1997 
L 3341 0 
L 2766 0 
L 2766 531 
Q 2569 213 2275 61 
Q 1981 -91 1556 -91 
Q 1019 -91 701 211 
Q 384 513 384 1019 
Q 384 1609 779 1909 
Q 1175 2209 1959 2209 
L 2766 2209 
L 2766 2266 
Q 2766 2663 2505 2880 
Q 2244 3097 1772 3097 
Q 1472 3097 1187 3025 
Q 903 2953 641 2809 
L 641 3341 
Q 956 3463 1253 3523 
Q 1550 3584 1831 3584 
Q 2591 3584 2966 3190 
Q 3341 2797 3341 1997 
z
" transform="scale(0.015625)"/>
      <path id="DejaVuSans-6d" d="M 3328 2828 
Q 3544 3216 3844 3400 
Q 4144 3584 4550 3584 
Q 5097 3584 5394 3201 
Q 5691 2819 5691 2113 
L 5691 0 
L 5113 0 
L 5113 2094 
Q 5113 2597 4934 2840 
Q 4756 3084 4391 3084 
Q 3944 3084 3684 2787 
Q 3425 2491 3425 1978 
L 3425 0 
L 2847 0 
L 2847 2094 
Q 2847 2600 2669 2842 
Q 2491 3084 2119 3084 
Q 1678 3084 1418 2786 
Q 1159 2488 1159 1978 
L 1159 0 
L 581 0 
L 581 3500 
L 1159 3500 
L 1159 2956 
Q 1356 3278 1631 3431 
Q 1906 3584 2284 3584 
Q 2666 3584 2933 3390 
Q 3200 3197 3328 2828 
z
" transform="scale(0.015625)"/>
      <path id="DejaVuSans-70" d="M 1159 525 
L 1159 -1331 
L 581 -1331 
L 581 3500 
L 1159 3500 
L 1159 2969 
Q 1341 3281 1617 3432 
Q 1894 3584 2278 3584 
Q 2916 3584 3314 3078 
Q 3713 2572 3713 1747 
Q 3713 922 3314 415 
Q 2916 -91 2278 -91 
Q 1894 -91 1617 61 
Q 1341 213 1159 525 
z
M 3116 1747 
Q 3116 2381 2855 2742 
Q 2594 3103 2138 3103 
Q 1681 3103 1420 2742 
Q 1159 2381 1159 1747 
Q 1159 1113 1420 752 
Q 1681 391 2138 391 
Q 2594 391 2855 752 
Q 3116 1113 3116 1747 
z
" transform="scale(0.015625)"/>
      <path id="DejaVuSans-6c" d="M 603 4863 
L 1178 4863 
L 1178 0 
L 603 0 
L 603 4863 
z
" transform="scale(0.015625)"/>
      <path id="DejaVuSans-65" d="M 3597 1894 
L 3597 1613 
L 953 1613 
Q 991 1019 1311 708 
Q 1631 397 2203 397 
Q 2534 397 2845 478 
Q 3156 559 3463 722 
L 3463 178 
Q 3153 47 2828 -22 
Q 2503 -91 2169 -91 
Q 1331 -91 842 396 
Q 353 884 353 1716 
Q 353 2575 817 3079 
Q 1281 3584 2069 3584 
Q 2775 3584 3186 3129 
Q 3597 2675 3597 1894 
z
M 3022 2063 
Q 3016 2534 2758 2815 
Q 2500 3097 2075 3097 
Q 1594 3097 1305 2825 
Q 1016 2553 972 2059 
L 3022 2063 
z
" transform="scale(0.015625)"/>
     </defs>
     <use xlink:href="#DejaVuSans-73"/>
     <use xlink:href="#DejaVuSans-61" x="52.099609"/>
     <use xlink:href="#DejaVuSans-6d" x="113.378906"/>
     <use xlink:href="#DejaVuSans-70" x="210.791016"/>
     <use xlink:href="#DejaVuSans-6c" x="274.267578"/>
     <use xlink:href="#DejaVuSans-65" x="302.050781"/>
    </g>
   </g>
   <g id="patch_4">
    <path d="M 386.994938 73.668339 
L 402.834938 73.668339 
L 402.834938 57.828339 
L 386.994938 57.828339 
z
" clip-path="url(#pd2e501787c)" style="fill: #f2f2f2"/>
   </g>
   <g id="patch_5">
    <path d="M 386.994938 73.668339 
L 402.834938 73.668339 
L 402.834938 57.828339 
L 386.994938 57.828339 
z
" clip-path="url(#pd2e501787c)" style="fill: #7fc97f"/>
   </g>
   <g id="patch_6">
    <path d="M 386.994938 73.668339 
L 402.834938 73.668339 
L 402.834938 57.828339 
L 386.994938 57.828339 
z
" clip-path="url(#pd2e501787c)" style="fill: #7fc97f"/>
   </g>
   <g id="patch_7">
    <path d="M 386.994938 73.668339 
L 402.834938 73.668339 
L 402.834938 57.828339 
L 386.994938 57.828339 
z
" clip-path="url(#pd2e501787c)" style="fill: #7fc97f"/>
   </g>
   <g id="patch_8">
    <path d="M 386.994938 73.668339 
L 402.834938 73.668339 
L 402.834938 57.828339 
L 386.994938 57.828339 
z
" clip-path="url(#pd2e501787c)" style="fill: #7fc97f"/>
   </g>
   <g id="patch_9">
    <path d="M 386.994938 73.668339 
L 402.834938 73.668339 
L 402.834938 57.828339 
L 386.994938 57.828339 
z
" clip-path="url(#pd2e501787c)" style="fill: #7fc97f"/>
   </g>
   <g id="patch_10">
    <path d="M 386.994938 73.668339 
L 402.834938 73.668339 
L 402.834938 57.828339 
L 386.994938 57.828339 
z
" clip-path="url(#pd2e501787c)" style="fill: #7fc97f"/>
   </g>
   <g id="patch_11">
    <path d="M 386.994938 73.668339 
L 402.834938 73.668339 
L 402.834938 57.828339 
L 386.994938 57.828339 
z
" clip-path="url(#pd2e501787c)" style="fill: #7fc97f"/>
   </g>
   <g id="patch_12">
    <path d="M 386.994938 73.668339 
L 402.834938 73.668339 
L 402.834938 57.828339 
L 386.994938 57.828339 
z
" clip-path="url(#pd2e501787c)" style="fill: #7fc97f"/>
   </g>
   <g id="patch_13">
    <path d="M 386.994938 73.668339 
L 402.834938 73.668339 
L 402.834938 57.828339 
L 386.994938 57.828339 
z
" clip-path="url(#pd2e501787c)" style="fill: #7fc97f"/>
   </g>
   <g id="patch_14">
    <path d="M 386.994938 73.668339 
L 402.834938 73.668339 
L 402.834938 57.828339 
L 386.994938 57.828339 
z
" clip-path="url(#pd2e501787c)" style="fill: #7fc97f"/>
   </g>
   <g id="patch_15">
    <path d="M 386.994938 73.668339 
L 402.834938 73.668339 
L 402.834938 57.828339 
L 386.994938 57.828339 
z
" clip-path="url(#pd2e501787c)" style="fill: #7fc97f"/>
   </g>
   <g id="patch_16">
    <path d="M 386.994938 73.668339 
L 402.834938 73.668339 
L 402.834938 57.828339 
L 386.994938 57.828339 
z
" clip-path="url(#pd2e501787c)" style="fill: #7fc97f"/>
   </g>
   <g id="patch_17">
    <path d="M 386.994938 73.668339 
L 402.834938 73.668339 
L 402.834938 57.828339 
L 386.994938 57.828339 
z
" clip-path="url(#pd2e501787c)" style="fill: #7fc97f"/>
   </g>
   <g id="patch_18">
    <path d="M 386.994938 73.668339 
L 402.834938 73.668339 
L 402.834938 57.828339 
L 386.994938 57.828339 
z
" clip-path="url(#pd2e501787c)" style="fill: #7fc97f"/>
   </g>
   <g id="text_21">
    <!-- out-of-sample -->
    <g transform="translate(405.834938 68.176589)scale(0.088 -0.088)">
     <defs>
      <path id="DejaVuSans-6f" d="M 1959 3097 
Q 1497 3097 1228 2736 
Q 959 2375 959 1747 
Q 959 1119 1226 758 
Q 1494 397 1959 397 
Q 2419 397 2687 759 
Q 2956 1122 2956 1747 
Q 2956 2369 2687 2733 
Q 2419 3097 1959 3097 
z
M 1959 3584 
Q 2709 3584 3137 3096 
Q 3566 2609 3566 1747 
Q 3566 888 3137 398 
Q 2709 -91 1959 -91 
Q 1206 -91 779 398 
Q 353 888 353 1747 
Q 353 2609 779 3096 
Q 1206 3584 1959 3584 
z
" transform="scale(0.015625)"/>
      <path id="DejaVuSans-75" d="M 544 1381 
L 544 3500 
L 1119 3500 
L 1119 1403 
Q 1119 906 1312 657 
Q 1506 409 1894 409 
Q 2359 409 2629 706 
Q 2900 1003 2900 1516 
L 2900 3500 
L 3475 3500 
L 3475 0 
L 2900 0 
L 2900 538 
Q 2691 219 2414 64 
Q 2138 -91 1772 -91 
Q 1169 -91 856 284 
Q 544 659 544 1381 
z
M 1991 3584 
L 1991 3584 
z
" transform="scale(0.015625)"/>
      <path id="DejaVuSans-2d" d="M 313 2009 
L 1997 2009 
L 1997 1497 
L 313 1497 
L 313 2009 
z
" transform="scale(0.015625)"/>
      <path id="DejaVuSans-66" d="M 2375 4863 
L 2375 4384 
L 1825 4384 
Q 1516 4384 1395 4259 
Q 1275 4134 1275 3809 
L 1275 3500 
L 2222 3500 
L 2222 3053 
L 1275 3053 
L 1275 0 
L 697 0 
L 697 3053 
L 147 3053 
L 147 3500 
L 697 3500 
L 697 3744 
Q 697 4328 969 4595 
Q 1241 4863 1831 4863 
L 2375 4863 
z
" transform="scale(0.015625)"/>
     </defs>
     <use xlink:href="#DejaVuSans-6f"/>
     <use xlink:href="#DejaVuSans-75" x="61.181641"/>
     <use xlink:href="#DejaVuSans-74" x="124.560547"/>
     <use xlink:href="#DejaVuSans-2d" x="163.769531"/>
     <use xlink:href="#DejaVuSans-6f" x="201.728516"/>
     <use xlink:href="#DejaVuSans-66" x="262.910156"/>
     <use xlink:href="#DejaVuSans-2d" x="292.615234"/>
     <use xlink:href="#DejaVuSans-73" x="328.699219"/>
     <use xlink:href="#DejaVuSans-61" x="380.798828"/>
     <use xlink:href="#DejaVuSans-6d" x="442.078125"/>
     <use xlink:href="#DejaVuSans-70" x="539.490234"/>
     <use xlink:href="#DejaVuSans-6c" x="602.966797"/>
     <use xlink:href="#DejaVuSans-65" x="630.75"/>
    </g>
   </g>
   <g id="patch_19">
    <path d="M 386.994938 91.508339 
L 402.834938 91.508339 
L 402.834938 75.668339 
L 386.994938 75.668339 
z
" clip-path="url(#p6534d7331f)" style="fill: #f2f2f2"/>
   </g>
   <g id="patch_20">
    <path d="M 386.994938 91.508339 
L 402.834938 91.508339 
L 402.834938 75.668339 
L 386.994938 75.668339 
z
" clip-path="url(#p6534d7331f)" style="fill: #beaed4"/>
   </g>
   <g id="patch_21">
    <path d="M 386.994938 91.508339 
L 402.834938 91.508339 
L 402.834938 75.668339 
L 386.994938 75.668339 
z
" clip-path="url(#p6534d7331f)" style="fill: #beaed4"/>
   </g>
   <g id="patch_22">
    <path d="M 386.994938 91.508339 
L 402.834938 91.508339 
L 402.834938 75.668339 
L 386.994938 75.668339 
z
" clip-path="url(#p6534d7331f)" style="fill: #beaed4"/>
   </g>
   <g id="patch_23">
    <path d="M 386.994938 91.508339 
L 402.834938 91.508339 
L 402.834938 75.668339 
L 386.994938 75.668339 
z
" clip-path="url(#p6534d7331f)" style="fill: #beaed4"/>
   </g>
   <g id="patch_24">
    <path d="M 386.994938 91.508339 
L 402.834938 91.508339 
L 402.834938 75.668339 
L 386.994938 75.668339 
z
" clip-path="url(#p6534d7331f)" style="fill: #beaed4"/>
   </g>
   <g id="patch_25">
    <path d="M 386.994938 91.508339 
L 402.834938 91.508339 
L 402.834938 75.668339 
L 386.994938 75.668339 
z
" clip-path="url(#p6534d7331f)" style="fill: #beaed4"/>
   </g>
   <g id="patch_26">
    <path d="M 386.994938 91.508339 
L 402.834938 91.508339 
L 402.834938 75.668339 
L 386.994938 75.668339 
z
" clip-path="url(#p6534d7331f)" style="fill: #beaed4"/>
   </g>
   <g id="patch_27">
    <path d="M 386.994938 91.508339 
L 402.834938 91.508339 
L 402.834938 75.668339 
L 386.994938 75.668339 
z
" clip-path="url(#p6534d7331f)" style="fill: #beaed4"/>
   </g>
   <g id="patch_28">
    <path d="M 386.994938 91.508339 
L 402.834938 91.508339 
L 402.834938 75.668339 
L 386.994938 75.668339 
z
" clip-path="url(#p6534d7331f)" style="fill: #beaed4"/>
   </g>
   <g id="patch_29">
    <path d="M 386.994938 91.508339 
L 402.834938 91.508339 
L 402.834938 75.668339 
L 386.994938 75.668339 
z
" clip-path="url(#p6534d7331f)" style="fill: #beaed4"/>
   </g>
   <g id="patch_30">
    <path d="M 386.994938 91.508339 
L 402.834938 91.508339 
L 402.834938 75.668339 
L 386.994938 75.668339 
z
" clip-path="url(#p6534d7331f)" style="fill: #beaed4"/>
   </g>
   <g id="patch_31">
    <path d="M 386.994938 91.508339 
L 402.834938 91.508339 
L 402.834938 75.668339 
L 386.994938 75.668339 
z
" clip-path="url(#p6534d7331f)" style="fill: #beaed4"/>
   </g>
   <g id="patch_32">
    <path d="M 386.994938 91.508339 
L 402.834938 91.508339 
L 402.834938 75.668339 
L 386.994938 75.668339 
z
" clip-path="url(#p6534d7331f)" style="fill: #beaed4"/>
   </g>
   <g id="patch_33">
    <path d="M 386.994938 91.508339 
L 402.834938 91.508339 
L 402.834938 75.668339 
L 386.994938 75.668339 
z
" clip-path="url(#p6534d7331f)" style="fill: #beaed4"/>
   </g>
   <g id="text_22">
    <!-- in-sample -->
    <g transform="translate(405.834938 86.016589)scale(0.088 -0.088)">
     <defs>
      <path id="DejaVuSans-69" d="M 603 3500 
L 1178 3500 
L 1178 0 
L 603 0 
L 603 3500 
z
M 603 4863 
L 1178 4863 
L 1178 4134 
L 603 4134 
L 603 4863 
z
" transform="scale(0.015625)"/>
      <path id="DejaVuSans-6e" d="M 3513 2113 
L 3513 0 
L 2938 0 
L 2938 2094 
Q 2938 2591 2744 2837 
Q 2550 3084 2163 3084 
Q 1697 3084 1428 2787 
Q 1159 2491 1159 1978 
L 1159 0 
L 581 0 
L 581 3500 
L 1159 3500 
L 1159 2956 
Q 1366 3272 1645 3428 
Q 1925 3584 2291 3584 
Q 2894 3584 3203 3211 
Q 3513 2838 3513 2113 
z
" transform="scale(0.015625)"/>
     </defs>
     <use xlink:href="#DejaVuSans-69"/>
     <use xlink:href="#DejaVuSans-6e" x="27.783203"/>
     <use xlink:href="#DejaVuSans-2d" x="91.162109"/>
     <use xlink:href="#DejaVuSans-73" x="127.246094"/>
     <use xlink:href="#DejaVuSans-61" x="179.345703"/>
     <use xlink:href="#DejaVuSans-6d" x="240.625"/>
     <use xlink:href="#DejaVuSans-70" x="338.037109"/>
     <use xlink:href="#DejaVuSans-6c" x="401.513672"/>
     <use xlink:href="#DejaVuSans-65" x="429.296875"/>
    </g>
   </g>
  </g>
  <g id="text_23">
   <!-- Expanding Window -->
   <g transform="translate(131.787625 17.229938)scale(0.132 -0.132)">
    <defs>
     <path id="DejaVuSans-45" d="M 628 4666 
L 3578 4666 
L 3578 4134 
L 1259 4134 
L 1259 2753 
L 3481 2753 
L 3481 2222 
L 1259 2222 
L 1259 531 
L 3634 531 
L 3634 0 
L 628 0 
L 628 4666 
z
" transform="scale(0.015625)"/>
     <path id="DejaVuSans-78" d="M 3513 3500 
L 2247 1797 
L 3578 0 
L 2900 0 
L 1881 1375 
L 863 0 
L 184 0 
L 1544 1831 
L 300 3500 
L 978 3500 
L 1906 2253 
L 2834 3500 
L 3513 3500 
z
" transform="scale(0.015625)"/>
     <path id="DejaVuSans-64" d="M 2906 2969 
L 2906 4863 
L 3481 4863 
L 3481 0 
L 2906 0 
L 2906 525 
Q 2725 213 2448 61 
Q 2172 -91 1784 -91 
Q 1150 -91 751 415 
Q 353 922 353 1747 
Q 353 2572 751 3078 
Q 1150 3584 1784 3584 
Q 2172 3584 2448 3432 
Q 2725 3281 2906 2969 
z
M 947 1747 
Q 947 1113 1208 752 
Q 1469 391 1925 391 
Q 2381 391 2643 752 
Q 2906 1113 2906 1747 
Q 2906 2381 2643 2742 
Q 2381 3103 1925 3103 
Q 1469 3103 1208 2742 
Q 947 2381 947 1747 
z
" transform="scale(0.015625)"/>
     <path id="DejaVuSans-67" d="M 2906 1791 
Q 2906 2416 2648 2759 
Q 2391 3103 1925 3103 
Q 1463 3103 1205 2759 
Q 947 2416 947 1791 
Q 947 1169 1205 825 
Q 1463 481 1925 481 
Q 2391 481 2648 825 
Q 2906 1169 2906 1791 
z
M 3481 434 
Q 3481 -459 3084 -895 
Q 2688 -1331 1869 -1331 
Q 1566 -1331 1297 -1286 
Q 1028 -1241 775 -1147 
L 775 -588 
Q 1028 -725 1275 -790 
Q 1522 -856 1778 -856 
Q 2344 -856 2625 -561 
Q 2906 -266 2906 331 
L 2906 616 
Q 2728 306 2450 153 
Q 2172 0 1784 0 
Q 1141 0 747 490 
Q 353 981 353 1791 
Q 353 2603 747 3093 
Q 1141 3584 1784 3584 
Q 2172 3584 2450 3431 
Q 2728 3278 2906 2969 
L 2906 3500 
L 3481 3500 
L 3481 434 
z
" transform="scale(0.015625)"/>
     <path id="DejaVuSans-20" transform="scale(0.015625)"/>
     <path id="DejaVuSans-57" d="M 213 4666 
L 850 4666 
L 1831 722 
L 2809 4666 
L 3519 4666 
L 4500 722 
L 5478 4666 
L 6119 4666 
L 4947 0 
L 4153 0 
L 3169 4050 
L 2175 0 
L 1381 0 
L 213 4666 
z
" transform="scale(0.015625)"/>
     <path id="DejaVuSans-77" d="M 269 3500 
L 844 3500 
L 1563 769 
L 2278 3500 
L 2956 3500 
L 3675 769 
L 4391 3500 
L 4966 3500 
L 4050 0 
L 3372 0 
L 2619 2869 
L 1863 0 
L 1184 0 
L 269 3500 
z
" transform="scale(0.015625)"/>
    </defs>
    <use xlink:href="#DejaVuSans-45"/>
    <use xlink:href="#DejaVuSans-78" x="63.183594"/>
    <use xlink:href="#DejaVuSans-70" x="122.363281"/>
    <use xlink:href="#DejaVuSans-61" x="185.839844"/>
    <use xlink:href="#DejaVuSans-6e" x="247.119141"/>
    <use xlink:href="#DejaVuSans-64" x="310.498047"/>
    <use xlink:href="#DejaVuSans-69" x="373.974609"/>
    <use xlink:href="#DejaVuSans-6e" x="401.757812"/>
    <use xlink:href="#DejaVuSans-67" x="465.136719"/>
    <use xlink:href="#DejaVuSans-20" x="528.613281"/>
    <use xlink:href="#DejaVuSans-57" x="560.400391"/>
    <use xlink:href="#DejaVuSans-69" x="657.027344"/>
    <use xlink:href="#DejaVuSans-6e" x="684.810547"/>
    <use xlink:href="#DejaVuSans-64" x="748.189453"/>
    <use xlink:href="#DejaVuSans-6f" x="811.666016"/>
    <use xlink:href="#DejaVuSans-77" x="872.847656"/>
   </g>
  </g>
 </g>
 <defs>
  <clipPath id="pdc407e908a">
   <rect x="32.794938" y="26.105371" width="334.8" height="83.16"/>
  </clipPath>
  <clipPath id="pd2e501787c">
   <path d="M 386.994938 73.668339 
L 386.994938 57.828339 
L 402.834938 57.828339 
L 402.834938 73.668339 
"/>
  </clipPath>
  <clipPath id="p6534d7331f">
   <path d="M 386.994938 91.508339 
L 386.994938 75.668339 
L 402.834938 75.668339 
L 402.834938 91.508339 
"/>
  </clipPath>
 </defs>
</svg>
