<?xml version="1.0" encoding="utf-8" standalone="no"?>
<!DOCTYPE svg PUBLIC "-//W3C//DTD SVG 1.1//EN"
  "http://www.w3.org/Graphics/SVG/1.1/DTD/svg11.dtd">
<svg height="264.488699pt" version="1.1" viewBox="0 0 388.350914 264.488699" width="388.350914pt" xmlns="http://www.w3.org/2000/svg" xmlns:xlink="http://www.w3.org/1999/xlink">
 <metadata>
  <rdf:RDF xmlns:cc="http://creativecommons.org/ns#" xmlns:dc="http://purl.org/dc/elements/1.1/" xmlns:rdf="http://www.w3.org/1999/02/22-rdf-syntax-ns#">
   <cc:Work>
    <dc:type rdf:resource="http://purl.org/dc/dcmitype/StillImage"/>
    <dc:date>2022-08-20T18:04:23.423710</dc:date>
    <dc:format>image/svg+xml</dc:format>
    <dc:creator>
     <cc:Agent>
      <dc:title>Matplotlib v3.4.3, https://matplotlib.org/</dc:title>
     </cc:Agent>
    </dc:creator>
   </cc:Work>
  </rdf:RDF>
 </metadata>
 <defs>
  <style type="text/css">*{stroke-linecap:butt;stroke-linejoin:round;}</style>
 </defs>
 <g id="figure_1">
  <g id="patch_1">
   <path d="M -0 264.488699 
L 388.350914 264.488699 
L 388.350914 0 
L -0 0 
z
" style="fill:none;"/>
  </g>
  <g id="axes_1">
   <g id="patch_2">
    <path d="M 46.350914 207.137812 
L 381.150914 207.137812 
L 381.150914 11.297812 
L 46.350914 11.297812 
z
" style="fill:#ffffff;"/>
   </g>
   <g id="PolyCollection_1">
    <defs>
     <path d="M 61.569096 -99.243097 
L 61.569096 -76.004571 
L 61.946251 -76.749561 
L 62.323405 -77.547243 
L 63.454868 -78.332609 
L 63.832023 -79.075926 
L 64.209177 -79.773505 
L 64.586332 -80.4992 
L 64.963486 -81.215034 
L 66.472104 -81.998835 
L 66.849258 -82.822957 
L 67.226413 -83.617003 
L 67.603567 -84.458074 
L 68.735031 -85.364832 
L 69.112185 -86.305009 
L 69.489339 -87.285021 
L 69.866494 -88.344559 
L 70.243648 -89.294892 
L 71.375112 -90.301219 
L 71.752266 -91.376394 
L 72.129421 -92.56946 
L 72.506575 -93.915405 
L 72.883729 -94.555594 
L 74.015193 -95.260808 
L 74.392347 -95.957412 
L 74.769502 -96.568419 
L 75.146656 -97.120027 
L 75.523811 -97.659106 
L 76.655274 -98.137018 
L 77.032428 -98.669943 
L 77.409583 -99.131175 
L 77.786737 -99.465094 
L 78.163892 -99.776446 
L 79.295355 -100.068079 
L 79.672509 -100.322615 
L 80.049664 -100.542211 
L 80.426818 -100.767574 
L 80.803973 -100.981601 
L 81.935436 -100.999454 
L 82.312591 -101.019052 
L 82.689745 -101.154286 
L 83.066899 -101.112445 
L 83.444054 -101.068564 
L 84.575517 -101.077593 
L 84.952672 -101.17634 
L 85.329826 -101.423419 
L 85.706981 -101.685168 
L 87.215598 -101.979827 
L 87.592753 -102.253898 
L 87.969907 -102.553618 
L 88.347062 -102.898918 
L 88.724216 -103.17186 
L 89.855679 -103.45643 
L 90.232834 -103.799743 
L 90.609988 -104.085014 
L 90.987143 -104.477205 
L 91.364297 -104.77221 
L 92.495761 -105.132837 
L 92.872915 -105.525038 
L 93.250069 -105.915755 
L 93.627224 -106.164237 
L 94.004378 -106.359042 
L 95.135842 -106.452936 
L 95.512996 -106.607102 
L 95.890151 -106.703636 
L 96.267305 -106.709581 
L 96.644459 -106.646991 
L 97.775923 -106.793774 
L 98.153077 -106.905476 
L 98.530232 -107.063922 
L 98.907386 -107.308278 
L 99.284541 -107.571626 
L 100.416004 -107.872757 
L 100.793158 -108.023593 
L 101.170313 -108.324971 
L 101.547467 -108.563177 
L 101.924622 -108.696474 
L 103.433239 -108.811605 
L 103.810394 -108.873756 
L 104.187548 -108.799967 
L 104.564703 -108.864855 
L 105.696166 -108.969446 
L 106.073321 -109.107448 
L 106.450475 -109.096215 
L 106.827629 -109.128346 
L 107.204784 -109.219425 
L 108.336247 -109.350691 
L 108.713402 -109.398328 
L 109.090556 -109.381476 
L 109.467711 -109.347527 
L 109.844865 -109.316172 
L 110.976328 -109.310233 
L 111.353483 -109.331037 
L 111.730637 -109.349117 
L 112.107792 -109.34459 
L 112.484946 -109.3293 
L 113.616409 -109.269765 
L 113.993564 -109.243132 
L 114.370718 -109.188403 
L 114.747873 -109.169765 
L 115.125027 -109.136347 
L 116.256491 -109.044985 
L 117.010799 -108.924528 
L 117.387954 -108.785827 
L 117.765108 -108.785093 
L 118.896572 -108.754123 
L 119.273726 -108.669421 
L 119.650881 -108.544136 
L 120.028035 -108.456002 
L 120.405189 -108.437741 
L 121.536653 -108.426959 
L 121.913807 -108.532333 
L 122.290962 -108.763555 
L 122.668116 -108.957135 
L 123.045271 -109.251675 
L 124.176734 -109.605807 
L 124.553888 -110.088487 
L 124.931043 -110.335326 
L 125.308197 -110.675792 
L 125.685352 -110.987555 
L 126.816815 -111.342882 
L 127.193969 -111.715336 
L 127.571124 -112.136616 
L 127.948278 -112.715118 
L 128.325433 -113.174493 
L 129.456896 -113.80467 
L 129.834051 -114.438918 
L 130.211205 -115.136822 
L 130.588359 -115.804543 
L 130.965514 -116.635852 
L 132.096977 -117.369964 
L 132.474132 -118.066559 
L 132.851286 -118.698329 
L 133.228441 -119.240186 
L 133.605595 -119.554866 
L 134.737058 -119.698835 
L 135.114213 -119.950967 
L 135.491367 -120.220261 
L 135.868522 -120.385605 
L 136.245676 -120.641389 
L 137.377139 -120.893886 
L 137.754294 -121.054881 
L 138.131448 -121.129055 
L 138.508603 -121.249427 
L 138.885757 -121.563197 
L 140.394375 -121.997856 
L 140.771529 -122.532681 
L 141.148684 -122.992075 
L 141.525838 -122.971648 
L 142.657302 -123.057529 
L 143.034456 -123.171655 
L 143.411611 -123.208425 
L 143.788765 -123.213109 
L 144.165919 -123.101165 
L 145.297383 -123.141783 
L 145.674537 -123.0937 
L 146.051692 -123.031541 
L 146.428846 -122.940401 
L 146.806001 -122.886812 
L 147.937464 -122.911526 
L 148.314618 -122.856334 
L 148.691773 -122.74393 
L 149.068927 -122.692742 
L 149.446082 -122.616843 
L 150.577545 -122.39883 
L 150.954699 -122.14705 
L 151.331854 -121.910747 
L 151.709008 -121.647138 
L 152.086163 -121.450826 
L 153.217626 -121.310211 
L 153.594781 -121.218893 
L 153.971935 -121.238239 
L 154.349089 -121.297464 
L 154.726244 -121.360806 
L 155.857707 -121.52545 
L 156.234862 -121.615506 
L 156.612016 -121.70048 
L 156.989171 -121.813779 
L 157.366325 -122.00131 
L 158.497788 -122.166236 
L 158.874943 -122.402205 
L 159.252097 -122.65398 
L 159.629252 -123.039185 
L 160.006406 -123.587392 
L 161.137869 -124.243337 
L 161.515024 -125.0147 
L 161.892178 -125.630421 
L 162.269333 -126.201531 
L 162.646487 -126.854229 
L 163.777951 -127.496668 
L 164.155105 -128.183926 
L 164.532259 -128.855257 
L 164.909414 -129.628558 
L 165.286568 -130.297384 
L 166.418032 -130.995388 
L 166.795186 -131.694954 
L 167.172341 -132.422198 
L 167.549495 -133.136748 
L 167.926649 -133.928736 
L 169.058113 -134.632958 
L 169.435267 -135.143922 
L 169.812422 -135.638997 
L 170.566731 -136.158559 
L 171.698194 -137.098654 
L 172.075348 -138.080149 
L 172.452503 -139.161056 
L 172.829657 -140.249972 
L 173.206812 -141.559684 
L 174.338275 -142.93053 
L 174.715429 -143.669224 
L 175.092584 -144.06152 
L 175.469738 -144.252559 
L 175.846893 -144.663522 
L 176.978356 -144.899007 
L 177.35551 -144.883712 
L 177.732665 -144.862842 
L 178.109819 -144.868716 
L 178.486974 -144.862417 
L 179.618437 -144.850498 
L 179.995592 -144.747492 
L 180.372746 -144.673072 
L 180.7499 -144.472578 
L 181.127055 -144.318396 
L 182.635673 -144.097373 
L 183.012827 -143.951201 
L 183.389982 -143.111902 
L 183.767136 -141.764492 
L 185.275754 -141.204501 
L 185.652908 -140.357252 
L 186.030063 -139.132171 
L 186.407217 -138.210332 
L 187.53868 -137.912038 
L 187.915835 -137.651253 
L 188.292989 -137.553888 
L 188.670144 -137.639882 
L 189.047298 -137.723875 
L 190.555916 -137.819496 
L 190.93307 -137.889583 
L 191.310225 -137.987418 
L 191.687379 -138.026913 
L 192.818843 -138.075903 
L 193.195997 -138.124845 
L 193.573152 -138.183005 
L 193.950306 -138.204446 
L 194.32746 -138.206647 
L 195.458924 -138.229275 
L 195.836078 -138.2553 
L 196.213233 -138.263475 
L 196.590387 -138.28212 
L 196.967542 -138.391641 
L 198.099005 -138.490729 
L 198.476159 -138.607655 
L 198.853314 -138.806548 
L 199.230468 -138.907955 
L 199.607623 -139.013646 
L 200.739086 -139.074453 
L 201.11624 -139.0909 
L 201.493395 -139.027809 
L 201.870549 -138.882149 
L 202.247704 -138.555884 
L 203.756322 -138.519789 
L 204.133476 -138.320008 
L 204.51063 -138.053719 
L 204.887785 -137.83659 
L 206.019248 -137.581876 
L 206.396403 -137.406231 
L 206.773557 -137.338099 
L 207.150712 -137.297068 
L 207.527866 -137.163411 
L 208.659329 -137.152396 
L 209.036484 -137.205033 
L 209.413638 -137.362951 
L 209.790793 -137.595775 
L 210.167947 -137.820676 
L 211.29941 -138.047306 
L 211.676565 -138.728518 
L 212.053719 -139.798909 
L 212.430874 -140.296427 
L 212.808028 -140.80301 
L 213.939492 -141.763965 
L 214.316646 -142.393086 
L 214.6938 -142.469476 
L 215.070955 -142.460132 
L 215.448109 -142.104998 
L 216.579573 -141.751799 
L 216.956727 -141.631476 
L 217.333882 -141.717533 
L 217.711036 -141.834494 
L 219.219654 -141.831555 
L 219.596808 -141.748576 
L 219.973963 -141.631373 
L 220.351117 -141.491665 
L 220.728272 -141.282182 
L 221.859735 -141.189964 
L 222.236889 -141.122581 
L 222.614044 -141.109539 
L 222.991198 -141.079753 
L 223.368353 -141.132631 
L 224.499816 -141.167527 
L 224.87697 -141.145198 
L 225.254125 -141.122453 
L 225.631279 -141.106636 
L 226.008434 -141.129555 
L 227.139897 -141.15494 
L 227.517052 -141.212668 
L 227.894206 -141.355846 
L 228.27136 -141.516592 
L 228.648515 -141.812818 
L 229.779978 -142.229082 
L 230.157133 -142.882832 
L 230.534287 -143.15531 
L 230.911442 -143.687176 
L 231.288596 -144.381357 
L 232.420059 -145.033152 
L 232.797214 -145.781022 
L 233.174368 -146.462167 
L 233.551523 -146.985572 
L 233.928677 -147.459682 
L 235.06014 -148.206647 
L 235.437295 -148.835408 
L 235.814449 -149.307609 
L 236.191604 -149.819578 
L 236.568758 -150.239423 
L 237.700222 -150.565889 
L 238.077376 -150.901038 
L 238.45453 -151.12159 
L 238.831685 -151.393516 
L 239.208839 -151.928186 
L 240.717457 -153.037876 
L 241.094612 -154.167002 
L 241.471766 -155.634237 
L 241.84892 -157.189531 
L 242.980384 -158.849744 
L 243.357538 -160.96471 
L 243.734693 -162.936968 
L 244.111847 -164.687816 
L 244.489002 -165.597784 
L 245.620465 -166.57172 
L 245.997619 -166.864844 
L 246.374774 -167.076334 
L 246.751928 -167.239292 
L 247.129083 -167.344511 
L 248.260546 -167.364506 
L 248.6377 -167.392561 
L 249.014855 -167.403621 
L 249.392009 -167.514591 
L 249.769164 -167.576407 
L 250.900627 -167.671549 
L 251.277782 -167.809318 
L 251.654936 -167.572787 
L 252.03209 -167.034819 
L 252.409245 -166.624545 
L 253.540708 -166.310661 
L 253.917863 -166.206263 
L 254.672172 -166.194608 
L 255.049326 -166.198545 
L 256.180789 -166.320537 
L 256.557944 -166.312768 
L 256.935098 -166.274147 
L 257.312253 -166.2261 
L 257.689407 -166.106137 
L 258.82087 -165.902933 
L 259.198025 -165.918339 
L 259.575179 -166.023532 
L 259.952334 -166.141993 
L 260.329488 -166.355306 
L 261.460952 -166.596154 
L 261.838106 -166.932952 
L 262.21526 -167.289451 
L 262.592415 -167.784736 
L 262.969569 -168.258683 
L 264.101033 -168.800022 
L 264.478187 -169.445368 
L 264.855342 -170.390531 
L 265.232496 -171.335596 
L 265.60965 -172.376926 
L 266.741114 -173.398294 
L 267.118268 -174.459262 
L 267.495423 -175.463695 
L 267.872577 -176.696938 
L 268.249732 -177.919145 
L 269.381195 -179.024188 
L 269.758349 -179.99957 
L 270.135504 -181.027039 
L 270.512658 -182.277702 
L 270.889813 -183.334439 
L 272.021276 -184.43396 
L 272.39843 -185.613563 
L 272.775585 -186.796909 
L 273.152739 -188.125825 
L 273.529894 -189.401533 
L 274.661357 -190.772988 
L 275.038512 -192.190719 
L 275.415666 -193.539805 
L 275.79282 -194.858841 
L 276.169975 -196.301215 
L 277.678593 -198.148245 
L 278.055747 -200.283763 
L 278.432902 -202.423907 
L 278.810056 -203.368655 
L 279.941519 -204.070142 
L 280.318674 -204.631723 
L 280.695828 -205.253507 
L 281.072983 -206.045668 
L 281.450137 -206.68705 
L 282.5816 -207.339912 
L 282.958755 -208.120821 
L 283.335909 -208.867008 
L 283.713064 -209.267796 
L 284.090218 -209.869669 
L 285.221681 -210.068448 
L 285.598836 -209.720956 
L 285.97599 -209.576325 
L 286.353145 -209.775223 
L 286.730299 -210.082579 
L 287.861763 -209.406928 
L 288.238917 -208.075185 
L 288.616071 -207.025488 
L 288.993226 -206.513415 
L 289.37038 -205.892038 
L 290.501844 -204.955358 
L 290.878998 -203.031062 
L 291.256153 -201.067999 
L 291.633307 -198.656998 
L 292.010461 -196.95131 
L 293.141925 -195.559944 
L 293.519079 -193.58757 
L 293.896234 -190.75851 
L 294.273388 -188.161875 
L 294.650543 -185.257549 
L 295.782006 -182.786049 
L 296.15916 -180.485851 
L 296.536315 -178.83221 
L 296.913469 -177.136638 
L 297.290624 -175.417349 
L 298.422087 -174.20526 
L 298.799241 -172.4617 
L 299.176396 -170.636697 
L 299.55355 -168.42992 
L 299.930705 -166.398974 
L 301.062168 -164.39404 
L 301.439323 -162.526464 
L 301.816477 -160.897581 
L 302.193631 -159.02514 
L 302.570786 -157.095657 
L 303.702249 -155.378841 
L 304.079404 -153.385919 
L 304.456558 -151.242537 
L 304.833713 -148.656504 
L 305.210867 -145.884908 
L 306.34233 -144.055145 
L 306.719485 -142.210549 
L 307.096639 -140.51704 
L 307.850948 -139.008752 
L 308.982411 -137.537996 
L 309.359566 -135.12037 
L 309.73672 -133.308079 
L 310.113875 -131.648003 
L 310.491029 -130.143856 
L 311.622493 -129.001812 
L 311.999647 -127.92426 
L 312.753956 -126.780097 
L 313.13111 -125.630628 
L 314.262574 -124.953153 
L 314.639728 -124.694107 
L 315.016883 -124.11078 
L 315.394037 -123.521741 
L 315.771191 -122.896951 
L 316.902655 -122.649391 
L 317.279809 -122.492407 
L 317.656964 -122.57711 
L 318.034118 -122.323928 
L 318.411273 -122.024782 
L 319.542736 -122.016071 
L 320.297045 -122.226346 
L 320.674199 -122.622331 
L 321.051354 -122.833656 
L 322.182817 -122.856435 
L 322.937126 -122.877697 
L 323.31428 -122.87531 
L 323.691435 -122.881635 
L 324.822898 -122.883411 
L 325.200053 -122.999555 
L 325.577207 -123.094902 
L 325.954361 -123.178605 
L 326.331516 -123.489167 
L 327.462979 -123.556708 
L 327.840134 -123.581102 
L 328.217288 -123.576644 
L 328.594443 -123.553857 
L 328.971597 -123.520749 
L 330.480215 -123.489712 
L 330.857369 -123.4525 
L 331.234524 -123.481155 
L 331.611678 -123.528424 
L 332.743141 -123.537378 
L 333.120296 -123.686632 
L 333.49745 -124.014432 
L 333.874605 -124.687013 
L 334.251759 -125.651745 
L 335.383223 -125.990368 
L 335.760377 -126.379768 
L 336.137531 -126.792037 
L 336.514686 -127.134377 
L 336.89184 -127.464251 
L 338.023304 -128.880194 
L 338.400458 -129.92961 
L 338.777613 -131.047334 
L 339.154767 -131.835667 
L 339.531921 -132.66111 
L 341.040539 -133.567689 
L 341.417694 -134.666569 
L 341.794848 -135.989065 
L 342.172003 -137.139856 
L 343.303466 -138.199611 
L 343.68062 -139.237027 
L 344.057775 -140.22137 
L 344.434929 -141.532772 
L 344.812084 -142.878438 
L 345.943547 -144.400812 
L 346.320701 -145.504481 
L 346.697856 -146.846692 
L 347.07501 -148.415236 
L 347.452165 -149.246206 
L 348.583628 -150.056981 
L 348.960783 -150.914558 
L 349.337937 -151.521216 
L 349.715091 -151.939528 
L 350.092246 -152.392817 
L 351.223709 -153.076663 
L 351.600864 -153.743823 
L 351.978018 -154.553444 
L 352.355173 -155.367618 
L 352.732327 -156.296301 
L 353.86379 -157.23359 
L 354.240945 -158.269244 
L 354.618099 -159.211567 
L 354.995254 -160.172855 
L 355.372408 -161.22435 
L 356.503871 -162.260608 
L 356.881026 -163.286096 
L 357.25818 -164.347481 
L 357.635335 -165.39856 
L 358.012489 -166.58611 
L 359.143953 -167.297056 
L 359.521107 -168.089677 
L 359.898261 -169.020425 
L 360.275416 -170.039838 
L 360.65257 -171.24615 
L 361.784034 -172.139487 
L 362.161188 -172.722548 
L 362.538343 -172.910423 
L 362.915497 -172.804896 
L 364.424115 -172.500101 
L 364.801269 -171.991148 
L 365.178424 -171.322234 
L 365.555578 -170.821769 
L 365.932733 -169.990675 
L 365.932733 -195.818937 
L 365.932733 -195.818937 
L 365.555578 -195.663324 
L 365.178424 -195.573115 
L 364.801269 -195.446062 
L 364.424115 -195.329014 
L 362.915497 -195.246022 
L 362.538343 -195.214354 
L 362.161188 -195.263462 
L 361.784034 -195.389041 
L 360.65257 -195.690382 
L 360.275416 -195.959795 
L 359.898261 -196.093116 
L 359.521107 -196.146948 
L 359.143953 -196.202988 
L 358.012489 -196.289931 
L 357.635335 -196.129206 
L 357.25818 -195.773818 
L 356.881026 -195.281017 
L 356.503871 -194.74829 
L 355.372408 -193.85323 
L 354.995254 -192.69095 
L 354.618099 -191.633184 
L 354.240945 -190.420819 
L 353.86379 -189.811417 
L 352.732327 -188.909376 
L 352.355173 -187.98172 
L 351.978018 -186.924559 
L 351.600864 -185.681777 
L 351.223709 -184.333016 
L 350.092246 -183.150003 
L 349.715091 -181.951745 
L 349.337937 -180.754545 
L 348.960783 -179.798288 
L 348.583628 -178.837127 
L 347.452165 -177.845502 
L 347.07501 -176.804242 
L 346.697856 -175.838281 
L 346.320701 -174.793482 
L 345.943547 -173.556472 
L 344.812084 -172.633195 
L 344.434929 -171.670411 
L 344.057775 -170.658592 
L 343.68062 -169.581802 
L 343.303466 -168.658133 
L 342.172003 -167.778288 
L 341.794848 -166.953893 
L 341.417694 -166.148784 
L 341.040539 -165.33537 
L 339.531921 -164.304139 
L 339.154767 -163.040697 
L 338.777613 -161.38159 
L 338.400458 -160.275243 
L 338.023304 -159.20802 
L 336.89184 -158.097515 
L 336.514686 -156.856416 
L 336.137531 -155.748422 
L 335.760377 -154.737886 
L 335.383223 -153.742976 
L 334.251759 -152.862691 
L 333.874605 -152.37485 
L 333.49745 -151.827179 
L 333.120296 -151.156084 
L 332.743141 -150.4705 
L 331.611678 -149.90872 
L 331.234524 -149.317886 
L 330.857369 -148.890402 
L 330.480215 -148.6005 
L 328.971597 -148.246047 
L 328.594443 -147.869828 
L 328.217288 -147.624343 
L 327.840134 -147.441278 
L 327.462979 -147.569972 
L 326.331516 -147.911241 
L 325.954361 -148.961743 
L 325.577207 -149.427054 
L 325.200053 -149.989955 
L 324.822898 -150.61103 
L 323.691435 -150.834161 
L 323.31428 -151.027374 
L 322.937126 -151.097503 
L 322.182817 -151.257084 
L 321.051354 -151.431835 
L 320.674199 -152.434353 
L 320.297045 -154.293431 
L 319.542736 -155.855115 
L 318.411273 -157.014057 
L 318.034118 -158.748962 
L 317.656964 -160.547736 
L 317.279809 -163.162915 
L 316.902655 -166.02791 
L 315.771191 -168.77659 
L 315.394037 -170.847229 
L 315.016883 -172.646543 
L 314.639728 -174.821092 
L 314.262574 -178.163935 
L 313.13111 -181.00867 
L 312.753956 -183.247345 
L 311.999647 -185.311153 
L 311.622493 -187.579219 
L 310.491029 -189.997435 
L 310.113875 -191.938953 
L 309.73672 -194.289009 
L 309.359566 -196.356588 
L 308.982411 -198.07555 
L 307.850948 -199.711823 
L 307.096639 -201.599513 
L 306.719485 -203.434929 
L 306.34233 -204.865673 
L 305.210867 -206.511567 
L 304.833713 -207.361556 
L 304.456558 -208.290571 
L 304.079404 -209.899036 
L 303.702249 -211.271204 
L 302.570786 -212.667014 
L 302.193631 -214.164842 
L 301.816477 -215.856242 
L 301.439323 -217.343565 
L 301.062168 -218.583019 
L 299.930705 -219.62916 
L 299.55355 -220.55439 
L 299.176396 -221.118917 
L 298.799241 -221.824168 
L 298.422087 -222.426882 
L 297.290624 -222.952286 
L 296.913469 -223.436253 
L 296.536315 -223.802932 
L 296.15916 -224.12873 
L 295.782006 -224.151083 
L 294.650543 -224.305405 
L 294.273388 -224.290334 
L 293.896234 -224.051166 
L 293.519079 -223.719457 
L 293.141925 -223.464656 
L 292.010461 -223.536607 
L 291.633307 -223.505966 
L 291.256153 -223.223018 
L 290.878998 -223.174711 
L 290.501844 -223.01969 
L 289.37038 -223.153527 
L 288.993226 -223.274552 
L 288.616071 -223.288896 
L 288.238917 -223.003982 
L 287.861763 -222.458285 
L 286.730299 -222.21393 
L 286.353145 -222.134306 
L 285.97599 -222.126621 
L 285.598836 -222.098151 
L 285.221681 -222.037592 
L 284.090218 -222.074775 
L 283.713064 -222.160974 
L 283.335909 -222.273933 
L 282.958755 -222.271452 
L 282.5816 -222.344874 
L 281.450137 -222.395221 
L 281.072983 -222.52339 
L 280.695828 -222.515181 
L 280.318674 -222.392325 
L 279.941519 -222.408912 
L 278.810056 -222.277351 
L 278.432902 -222.486412 
L 278.055747 -223.182936 
L 277.678593 -223.287313 
L 276.169975 -223.32881 
L 275.79282 -223.10979 
L 275.415666 -222.600464 
L 275.038512 -221.803367 
L 274.661357 -221.15258 
L 273.529894 -220.555339 
L 273.152739 -219.967098 
L 272.775585 -219.394912 
L 272.39843 -218.979083 
L 272.021276 -218.435518 
L 270.889813 -217.909008 
L 270.512658 -217.493924 
L 270.135504 -216.973745 
L 269.758349 -216.452624 
L 269.381195 -215.899335 
L 268.249732 -215.354398 
L 267.872577 -214.46668 
L 267.495423 -213.371329 
L 267.118268 -212.510918 
L 266.741114 -211.445175 
L 265.60965 -210.659668 
L 265.232496 -209.660233 
L 264.855342 -208.483288 
L 264.478187 -206.98101 
L 264.101033 -205.245837 
L 262.969569 -203.476489 
L 262.592415 -201.835139 
L 262.21526 -200.282945 
L 261.838106 -198.933286 
L 261.460952 -197.66442 
L 260.329488 -196.500815 
L 259.952334 -195.341011 
L 259.575179 -194.19289 
L 259.198025 -192.976666 
L 258.82087 -191.674237 
L 257.689407 -190.133054 
L 257.312253 -188.932949 
L 256.935098 -187.934352 
L 256.557944 -186.892134 
L 256.180789 -185.844063 
L 255.049326 -184.814739 
L 254.672172 -183.668481 
L 253.917863 -182.615628 
L 253.540708 -181.51502 
L 252.409245 -180.075112 
L 252.03209 -178.608869 
L 251.654936 -176.982925 
L 251.277782 -175.999741 
L 250.900627 -175.92354 
L 249.769164 -175.861786 
L 249.392009 -175.771855 
L 249.014855 -175.463615 
L 248.6377 -175.11612 
L 248.260546 -174.907376 
L 247.129083 -174.802034 
L 246.751928 -174.648072 
L 246.374774 -174.45919 
L 245.997619 -174.350398 
L 245.620465 -174.195663 
L 244.489002 -174.377063 
L 244.111847 -174.455103 
L 243.734693 -174.990623 
L 243.357538 -175.713086 
L 242.980384 -176.287072 
L 241.84892 -176.495159 
L 241.471766 -176.708446 
L 241.094612 -176.931705 
L 240.717457 -177.022991 
L 239.208839 -176.943316 
L 238.831685 -176.780124 
L 238.45453 -176.603297 
L 238.077376 -176.469994 
L 237.700222 -176.306031 
L 236.568758 -176.196949 
L 236.191604 -175.999954 
L 235.814449 -175.775565 
L 235.437295 -175.50044 
L 235.06014 -175.252733 
L 233.928677 -174.86875 
L 233.551523 -174.444235 
L 233.174368 -173.899137 
L 232.797214 -173.344363 
L 232.420059 -172.681961 
L 231.288596 -172.038526 
L 230.911442 -171.341237 
L 230.534287 -170.486555 
L 230.157133 -169.582426 
L 229.779978 -168.67729 
L 228.648515 -167.82272 
L 228.27136 -167.062305 
L 227.894206 -166.562343 
L 227.517052 -166.013254 
L 227.139897 -165.504278 
L 226.008434 -164.958705 
L 225.631279 -164.422976 
L 225.254125 -163.918343 
L 224.87697 -163.564572 
L 224.499816 -163.093042 
L 223.368353 -162.586749 
L 222.991198 -161.960565 
L 222.614044 -161.273876 
L 222.236889 -160.706439 
L 221.859735 -159.960443 
L 220.728272 -159.101427 
L 220.351117 -158.25496 
L 219.973963 -157.635612 
L 219.596808 -157.138592 
L 219.219654 -156.538818 
L 217.711036 -155.928216 
L 217.333882 -155.7334 
L 216.956727 -155.567439 
L 216.579573 -155.62505 
L 215.448109 -155.686137 
L 215.070955 -155.601374 
L 214.6938 -155.598744 
L 214.316646 -155.624328 
L 213.939492 -155.905637 
L 212.808028 -156.292054 
L 212.430874 -156.430681 
L 212.053719 -156.369104 
L 211.676565 -156.259979 
L 211.29941 -155.954828 
L 210.167947 -155.713457 
L 209.790793 -155.51042 
L 209.413638 -155.323363 
L 209.036484 -155.204643 
L 208.659329 -155.125675 
L 207.527866 -155.135251 
L 207.150712 -155.276666 
L 206.773557 -155.423865 
L 206.396403 -155.60596 
L 206.019248 -155.93189 
L 204.887785 -156.312592 
L 204.51063 -156.662392 
L 204.133476 -156.878206 
L 203.756322 -157.10793 
L 202.247704 -157.1683 
L 201.870549 -157.30377 
L 201.493395 -157.413037 
L 201.11624 -157.479983 
L 200.739086 -157.444282 
L 199.607623 -157.346178 
L 199.230468 -157.103162 
L 198.853314 -156.824304 
L 198.476159 -156.492303 
L 198.099005 -156.096463 
L 196.967542 -155.562597 
L 196.590387 -155.130704 
L 196.213233 -155.008344 
L 195.836078 -154.976679 
L 195.458924 -154.84178 
L 194.32746 -154.704155 
L 193.950306 -154.679722 
L 193.573152 -154.608278 
L 193.195997 -154.311464 
L 192.818843 -153.994466 
L 191.687379 -153.615518 
L 191.310225 -153.464992 
L 190.93307 -153.358258 
L 190.555916 -153.298307 
L 189.047298 -153.206817 
L 188.670144 -153.105042 
L 188.292989 -152.983109 
L 187.915835 -153.046222 
L 187.53868 -153.149363 
L 186.407217 -153.178066 
L 186.030063 -153.111208 
L 185.652908 -152.89599 
L 185.275754 -152.874179 
L 183.767136 -152.950276 
L 183.389982 -152.492764 
L 183.012827 -152.158843 
L 182.635673 -152.139575 
L 181.127055 -152.115065 
L 180.7499 -152.073014 
L 180.372746 -152.052693 
L 179.995592 -152.11055 
L 179.618437 -152.196221 
L 178.486974 -152.240032 
L 178.109819 -152.15786 
L 177.732665 -152.013105 
L 177.35551 -151.734173 
L 176.978356 -151.324289 
L 175.846893 -150.941367 
L 175.469738 -150.822779 
L 175.092584 -150.554097 
L 174.715429 -150.457129 
L 174.338275 -150.566897 
L 173.206812 -151.005097 
L 172.829657 -151.324418 
L 172.452503 -151.427643 
L 172.075348 -151.577919 
L 171.698194 -151.67556 
L 170.566731 -151.718148 
L 169.812422 -151.701221 
L 169.435267 -151.599151 
L 169.058113 -151.507376 
L 167.926649 -151.456215 
L 167.549495 -151.204543 
L 167.172341 -150.903635 
L 166.795186 -150.617435 
L 166.418032 -150.291247 
L 165.286568 -149.831893 
L 164.909414 -149.478994 
L 164.532259 -149.221841 
L 164.155105 -148.9133 
L 163.777951 -148.616658 
L 162.646487 -148.239162 
L 162.269333 -148.003977 
L 161.892178 -147.740026 
L 161.515024 -147.479055 
L 161.137869 -147.202729 
L 160.006406 -146.873656 
L 159.629252 -146.448705 
L 159.252097 -145.962814 
L 158.874943 -145.61073 
L 158.497788 -145.048791 
L 157.366325 -144.424762 
L 156.989171 -143.692628 
L 156.612016 -142.95766 
L 156.234862 -142.355963 
L 155.857707 -141.962351 
L 154.726244 -141.483297 
L 154.349089 -140.990005 
L 153.971935 -140.635616 
L 153.594781 -140.129215 
L 153.217626 -139.475446 
L 152.086163 -138.733882 
L 151.709008 -137.871937 
L 151.331854 -136.900618 
L 150.954699 -135.954367 
L 150.577545 -134.936461 
L 149.446082 -134.015215 
L 149.068927 -133.506453 
L 148.691773 -133.077461 
L 148.314618 -132.334789 
L 147.937464 -131.789885 
L 146.806001 -131.53729 
L 146.428846 -131.671707 
L 146.051692 -131.856534 
L 145.674537 -131.94075 
L 145.297383 -131.963171 
L 144.165919 -131.955667 
L 143.788765 -132.079627 
L 143.411611 -132.067076 
L 143.034456 -131.982986 
L 142.657302 -131.880233 
L 141.525838 -131.859129 
L 141.148684 -131.865784 
L 140.771529 -131.948942 
L 140.394375 -132.069705 
L 138.885757 -132.135961 
L 138.508603 -132.166378 
L 138.131448 -132.152908 
L 137.754294 -132.156803 
L 137.377139 -132.160231 
L 136.245676 -132.193387 
L 135.868522 -132.217297 
L 135.491367 -132.231116 
L 135.114213 -132.249063 
L 134.737058 -132.278945 
L 133.605595 -132.310782 
L 133.228441 -132.37501 
L 132.851286 -132.480424 
L 132.474132 -132.521093 
L 132.096977 -132.460067 
L 130.965514 -132.392689 
L 130.588359 -132.282176 
L 130.211205 -132.164522 
L 129.834051 -131.974544 
L 129.456896 -131.683756 
L 128.325433 -131.336971 
L 127.948278 -131.083936 
L 127.571124 -130.700024 
L 127.193969 -130.235884 
L 126.816815 -129.738584 
L 125.685352 -129.085391 
L 125.308197 -128.403406 
L 124.931043 -127.737143 
L 124.553888 -127.07148 
L 124.176734 -126.504457 
L 123.045271 -126.001817 
L 122.668116 -125.515235 
L 122.290962 -124.967756 
L 121.913807 -124.405323 
L 121.536653 -124.041799 
L 120.405189 -123.864722 
L 120.028035 -123.681731 
L 119.650881 -123.21557 
L 119.273726 -122.651156 
L 118.896572 -122.301454 
L 117.765108 -122.009513 
L 117.387954 -121.840021 
L 117.010799 -121.310536 
L 116.256491 -120.849877 
L 115.125027 -120.496872 
L 114.747873 -120.301635 
L 114.370718 -120.190561 
L 113.993564 -119.968864 
L 113.616409 -120.101588 
L 112.484946 -120.245056 
L 112.107792 -120.26871 
L 111.730637 -120.524706 
L 111.353483 -120.66029 
L 110.976328 -120.859476 
L 109.844865 -120.951121 
L 109.467711 -121.044657 
L 109.090556 -121.171408 
L 108.713402 -121.226178 
L 108.336247 -121.182049 
L 107.204784 -121.120385 
L 106.827629 -121.075831 
L 106.450475 -121.062975 
L 106.073321 -121.0645 
L 105.696166 -121.071345 
L 104.564703 -121.077233 
L 104.187548 -121.08348 
L 103.810394 -121.074375 
L 103.433239 -121.080794 
L 101.924622 -121.101028 
L 101.547467 -121.119729 
L 101.170313 -121.168587 
L 100.793158 -121.193998 
L 100.416004 -121.213453 
L 99.284541 -121.231232 
L 98.907386 -121.226223 
L 98.530232 -121.227066 
L 98.153077 -121.210487 
L 97.775923 -121.202 
L 96.644459 -121.174653 
L 96.267305 -121.173836 
L 95.890151 -121.173066 
L 95.512996 -121.161497 
L 95.135842 -121.127433 
L 94.004378 -121.111432 
L 93.627224 -121.017514 
L 93.250069 -120.642217 
L 92.872915 -120.233906 
L 92.495761 -119.864682 
L 91.364297 -119.505289 
L 90.987143 -119.025663 
L 90.609988 -118.681048 
L 90.232834 -118.33784 
L 89.855679 -117.924875 
L 88.724216 -117.493678 
L 88.347062 -117.025338 
L 87.969907 -116.578996 
L 87.592753 -116.07387 
L 87.215598 -115.531232 
L 85.706981 -115.033354 
L 85.329826 -114.546659 
L 84.952672 -114.195251 
L 84.575517 -113.408801 
L 83.444054 -112.545168 
L 83.066899 -111.562373 
L 82.689745 -110.741425 
L 82.312591 -110.018991 
L 81.935436 -109.13795 
L 80.803973 -108.294107 
L 80.426818 -107.850783 
L 80.049664 -107.579719 
L 79.672509 -107.252306 
L 79.295355 -106.884854 
L 78.163892 -106.584267 
L 77.786737 -106.466785 
L 77.409583 -106.337851 
L 77.032428 -106.252297 
L 76.655274 -106.130781 
L 75.523811 -106.018263 
L 75.146656 -105.985265 
L 74.769502 -105.930329 
L 74.392347 -105.965007 
L 74.015193 -105.991727 
L 72.883729 -105.966849 
L 72.506575 -105.928424 
L 72.129421 -106.168264 
L 71.752266 -106.27828 
L 71.375112 -106.207063 
L 70.243648 -106.057375 
L 69.866494 -105.831549 
L 69.489339 -105.594514 
L 69.112185 -105.245276 
L 68.735031 -104.908129 
L 67.603567 -104.528609 
L 67.226413 -104.079598 
L 66.849258 -103.574385 
L 66.472104 -103.065229 
L 64.963486 -102.682048 
L 64.586332 -102.268276 
L 64.209177 -101.816693 
L 63.832023 -101.303646 
L 63.454868 -100.862746 
L 62.323405 -100.311475 
L 61.946251 -99.818853 
L 61.569096 -99.243097 
z
" id="m9cf9db6546" style="stroke:#000000;stroke-opacity:0.2;stroke-width:0.8;"/>
    </defs>
    <g clip-path="url(#pf614f28303)">
     <use style="fill:#bc80bd;fill-opacity:0.2;stroke:#000000;stroke-opacity:0.2;stroke-width:0.8;" x="0" xlink:href="#m9cf9db6546" y="264.488699"/>
    </g>
   </g>
   <g id="matplotlib.axis_1">
    <g id="xtick_1">
     <g id="line2d_1">
      <defs>
       <path d="M 0 0 
L 0 3.5 
" id="m3640c43385" style="stroke:#323034;stroke-width:0.8;"/>
      </defs>
      <g>
       <use style="fill:#323034;stroke:#323034;stroke-width:0.8;" x="47.237227" xlink:href="#m3640c43385" y="207.137812"/>
      </g>
     </g>
     <g id="text_1">
      <!-- 2017-01 -->
      <g style="fill:#323034;" transform="translate(11.297812 241.233244)rotate(-30)scale(0.12 -0.12)">
       <defs>
        <path d="M 3034 877 
L 2688 0 
L 186 0 
L 186 77 
L 1325 1286 
Q 1773 1754 1965 2144 
Q 2157 2534 2157 2950 
Q 2157 3379 1920 3616 
Q 1683 3853 1267 3853 
Q 922 3853 720 3673 
Q 518 3494 326 3021 
L 192 3053 
Q 301 3648 630 3987 
Q 960 4326 1523 4326 
Q 2054 4326 2380 4006 
Q 2707 3686 2707 3200 
Q 2707 2477 1888 1613 
L 832 486 
L 2330 486 
Q 2541 486 2665 569 
Q 2790 653 2944 915 
L 3034 877 
z
" id="STIXGeneral-Regular-32" transform="scale(0.015625)"/>
        <path d="M 3046 2112 
Q 3046 1683 2963 1302 
Q 2880 922 2717 602 
Q 2554 282 2266 96 
Q 1978 -90 1600 -90 
Q 1210 -90 915 108 
Q 621 307 461 640 
Q 301 973 227 1350 
Q 154 1728 154 2150 
Q 154 2746 301 3222 
Q 448 3699 790 4012 
Q 1133 4326 1626 4326 
Q 2253 4326 2649 3712 
Q 3046 3098 3046 2112 
z
M 2432 2080 
Q 2432 3091 2217 3625 
Q 2003 4160 1587 4160 
Q 1190 4160 979 3622 
Q 768 3085 768 2106 
Q 768 1120 979 598 
Q 1190 77 1600 77 
Q 2003 77 2217 598 
Q 2432 1120 2432 2080 
z
" id="STIXGeneral-Regular-30" transform="scale(0.015625)"/>
        <path d="M 2522 0 
L 755 0 
L 755 96 
Q 1107 115 1235 227 
Q 1363 339 1363 608 
L 1363 3482 
Q 1363 3795 1171 3795 
Q 1082 3795 883 3718 
L 710 3654 
L 710 3744 
L 1856 4326 
L 1914 4307 
L 1914 486 
Q 1914 275 2042 185 
Q 2170 96 2522 96 
L 2522 0 
z
" id="STIXGeneral-Regular-31" transform="scale(0.015625)"/>
        <path d="M 2874 4134 
L 1517 -51 
L 1101 -51 
L 2368 3763 
L 992 3763 
Q 717 3763 582 3667 
Q 448 3571 243 3238 
L 128 3296 
L 512 4237 
L 2874 4237 
L 2874 4134 
z
" id="STIXGeneral-Regular-37" transform="scale(0.015625)"/>
        <path d="M 1824 1242 
L 250 1242 
L 250 1645 
L 1824 1645 
L 1824 1242 
z
" id="STIXGeneral-Regular-2d" transform="scale(0.015625)"/>
       </defs>
       <use xlink:href="#STIXGeneral-Regular-32"/>
       <use x="49.999985" xlink:href="#STIXGeneral-Regular-30"/>
       <use x="99.999969" xlink:href="#STIXGeneral-Regular-31"/>
       <use x="149.999954" xlink:href="#STIXGeneral-Regular-37"/>
       <use x="199.999939" xlink:href="#STIXGeneral-Regular-2d"/>
       <use x="233.299927" xlink:href="#STIXGeneral-Regular-30"/>
       <use x="283.299911" xlink:href="#STIXGeneral-Regular-31"/>
      </g>
     </g>
    </g>
    <g id="xtick_2">
     <g id="line2d_2">
      <g>
       <use style="fill:#323034;stroke:#323034;stroke-width:0.8;" x="81.181127" xlink:href="#m3640c43385" y="207.137812"/>
      </g>
     </g>
     <g id="text_2">
      <!-- 2017-04 -->
      <g style="fill:#323034;" transform="translate(45.241712 241.233244)rotate(-30)scale(0.12 -0.12)">
       <defs>
        <path d="M 3027 1069 
L 2368 1069 
L 2368 0 
L 1869 0 
L 1869 1069 
L 77 1069 
L 77 1478 
L 2086 4326 
L 2368 4326 
L 2368 1478 
L 3027 1478 
L 3027 1069 
z
M 1869 1478 
L 1869 3674 
L 333 1478 
L 1869 1478 
z
" id="STIXGeneral-Regular-34" transform="scale(0.015625)"/>
       </defs>
       <use xlink:href="#STIXGeneral-Regular-32"/>
       <use x="49.999985" xlink:href="#STIXGeneral-Regular-30"/>
       <use x="99.999969" xlink:href="#STIXGeneral-Regular-31"/>
       <use x="149.999954" xlink:href="#STIXGeneral-Regular-37"/>
       <use x="199.999939" xlink:href="#STIXGeneral-Regular-2d"/>
       <use x="233.299927" xlink:href="#STIXGeneral-Regular-30"/>
       <use x="283.299911" xlink:href="#STIXGeneral-Regular-34"/>
      </g>
     </g>
    </g>
    <g id="xtick_3">
     <g id="line2d_3">
      <g>
       <use style="fill:#323034;stroke:#323034;stroke-width:0.8;" x="115.502182" xlink:href="#m3640c43385" y="207.137812"/>
      </g>
     </g>
     <g id="text_3">
      <!-- 2017-07 -->
      <g style="fill:#323034;" transform="translate(79.562767 241.233244)rotate(-30)scale(0.12 -0.12)">
       <use xlink:href="#STIXGeneral-Regular-32"/>
       <use x="49.999985" xlink:href="#STIXGeneral-Regular-30"/>
       <use x="99.999969" xlink:href="#STIXGeneral-Regular-31"/>
       <use x="149.999954" xlink:href="#STIXGeneral-Regular-37"/>
       <use x="199.999939" xlink:href="#STIXGeneral-Regular-2d"/>
       <use x="233.299927" xlink:href="#STIXGeneral-Regular-30"/>
       <use x="283.299911" xlink:href="#STIXGeneral-Regular-37"/>
      </g>
     </g>
    </g>
    <g id="xtick_4">
     <g id="line2d_4">
      <g>
       <use style="fill:#323034;stroke:#323034;stroke-width:0.8;" x="150.200391" xlink:href="#m3640c43385" y="207.137812"/>
      </g>
     </g>
     <g id="text_4">
      <!-- 2017-10 -->
      <g style="fill:#323034;" transform="translate(114.260976 241.233244)rotate(-30)scale(0.12 -0.12)">
       <use xlink:href="#STIXGeneral-Regular-32"/>
       <use x="49.999985" xlink:href="#STIXGeneral-Regular-30"/>
       <use x="99.999969" xlink:href="#STIXGeneral-Regular-31"/>
       <use x="149.999954" xlink:href="#STIXGeneral-Regular-37"/>
       <use x="199.999939" xlink:href="#STIXGeneral-Regular-2d"/>
       <use x="233.299927" xlink:href="#STIXGeneral-Regular-31"/>
       <use x="283.299911" xlink:href="#STIXGeneral-Regular-30"/>
      </g>
     </g>
    </g>
    <g id="xtick_5">
     <g id="line2d_5">
      <g>
       <use style="fill:#323034;stroke:#323034;stroke-width:0.8;" x="184.898599" xlink:href="#m3640c43385" y="207.137812"/>
      </g>
     </g>
     <g id="text_5">
      <!-- 2018-01 -->
      <g style="fill:#323034;" transform="translate(148.959185 241.233244)rotate(-30)scale(0.12 -0.12)">
       <defs>
        <path d="M 2848 992 
Q 2848 499 2505 204 
Q 2163 -90 1587 -90 
Q 1050 -90 704 204 
Q 358 499 358 954 
Q 358 1293 524 1533 
Q 691 1773 1190 2125 
Q 710 2522 553 2765 
Q 397 3008 397 3328 
Q 397 3782 745 4054 
Q 1094 4326 1638 4326 
Q 2106 4326 2410 4060 
Q 2714 3795 2714 3411 
Q 2714 3059 2531 2848 
Q 2349 2637 1856 2374 
Q 2432 1990 2640 1689 
Q 2848 1389 2848 992 
z
M 2272 3411 
Q 2272 3744 2086 3945 
Q 1901 4147 1574 4147 
Q 1248 4147 1059 3977 
Q 870 3808 870 3513 
Q 870 3219 1059 2979 
Q 1248 2739 1670 2490 
Q 1997 2682 2134 2896 
Q 2272 3110 2272 3411 
z
M 1734 1741 
L 1357 1997 
Q 1075 1766 960 1545 
Q 845 1325 845 1011 
Q 845 576 1065 333 
Q 1286 90 1658 90 
Q 1971 90 2166 285 
Q 2362 480 2362 794 
Q 2362 1082 2214 1299 
Q 2067 1517 1734 1741 
z
" id="STIXGeneral-Regular-38" transform="scale(0.015625)"/>
       </defs>
       <use xlink:href="#STIXGeneral-Regular-32"/>
       <use x="49.999985" xlink:href="#STIXGeneral-Regular-30"/>
       <use x="99.999969" xlink:href="#STIXGeneral-Regular-31"/>
       <use x="149.999954" xlink:href="#STIXGeneral-Regular-38"/>
       <use x="199.999939" xlink:href="#STIXGeneral-Regular-2d"/>
       <use x="233.299927" xlink:href="#STIXGeneral-Regular-30"/>
       <use x="283.299911" xlink:href="#STIXGeneral-Regular-31"/>
      </g>
     </g>
    </g>
    <g id="xtick_6">
     <g id="line2d_6">
      <g>
       <use style="fill:#323034;stroke:#323034;stroke-width:0.8;" x="218.842499" xlink:href="#m3640c43385" y="207.137812"/>
      </g>
     </g>
     <g id="text_6">
      <!-- 2018-04 -->
      <g style="fill:#323034;" transform="translate(182.903085 241.233244)rotate(-30)scale(0.12 -0.12)">
       <use xlink:href="#STIXGeneral-Regular-32"/>
       <use x="49.999985" xlink:href="#STIXGeneral-Regular-30"/>
       <use x="99.999969" xlink:href="#STIXGeneral-Regular-31"/>
       <use x="149.999954" xlink:href="#STIXGeneral-Regular-38"/>
       <use x="199.999939" xlink:href="#STIXGeneral-Regular-2d"/>
       <use x="233.299927" xlink:href="#STIXGeneral-Regular-30"/>
       <use x="283.299911" xlink:href="#STIXGeneral-Regular-34"/>
      </g>
     </g>
    </g>
    <g id="xtick_7">
     <g id="line2d_7">
      <g>
       <use style="fill:#323034;stroke:#323034;stroke-width:0.8;" x="253.163554" xlink:href="#m3640c43385" y="207.137812"/>
      </g>
     </g>
     <g id="text_7">
      <!-- 2018-07 -->
      <g style="fill:#323034;" transform="translate(217.224139 241.233244)rotate(-30)scale(0.12 -0.12)">
       <use xlink:href="#STIXGeneral-Regular-32"/>
       <use x="49.999985" xlink:href="#STIXGeneral-Regular-30"/>
       <use x="99.999969" xlink:href="#STIXGeneral-Regular-31"/>
       <use x="149.999954" xlink:href="#STIXGeneral-Regular-38"/>
       <use x="199.999939" xlink:href="#STIXGeneral-Regular-2d"/>
       <use x="233.299927" xlink:href="#STIXGeneral-Regular-30"/>
       <use x="283.299911" xlink:href="#STIXGeneral-Regular-37"/>
      </g>
     </g>
    </g>
    <g id="xtick_8">
     <g id="line2d_8">
      <g>
       <use style="fill:#323034;stroke:#323034;stroke-width:0.8;" x="287.861763" xlink:href="#m3640c43385" y="207.137812"/>
      </g>
     </g>
     <g id="text_8">
      <!-- 2018-10 -->
      <g style="fill:#323034;" transform="translate(251.922348 241.233244)rotate(-30)scale(0.12 -0.12)">
       <use xlink:href="#STIXGeneral-Regular-32"/>
       <use x="49.999985" xlink:href="#STIXGeneral-Regular-30"/>
       <use x="99.999969" xlink:href="#STIXGeneral-Regular-31"/>
       <use x="149.999954" xlink:href="#STIXGeneral-Regular-38"/>
       <use x="199.999939" xlink:href="#STIXGeneral-Regular-2d"/>
       <use x="233.299927" xlink:href="#STIXGeneral-Regular-31"/>
       <use x="283.299911" xlink:href="#STIXGeneral-Regular-30"/>
      </g>
     </g>
    </g>
    <g id="xtick_9">
     <g id="line2d_9">
      <g>
       <use style="fill:#323034;stroke:#323034;stroke-width:0.8;" x="322.559971" xlink:href="#m3640c43385" y="207.137812"/>
      </g>
     </g>
     <g id="text_9">
      <!-- 2019-01 -->
      <g style="fill:#323034;" transform="translate(286.620557 241.233244)rotate(-30)scale(0.12 -0.12)">
       <defs>
        <path d="M 378 -141 
L 358 -13 
Q 1094 115 1603 608 
Q 2112 1101 2304 1882 
Q 1933 1517 1344 1517 
Q 826 1517 509 1875 
Q 192 2234 192 2816 
Q 192 3462 573 3894 
Q 954 4326 1523 4326 
Q 2131 4326 2528 3840 
Q 2938 3328 2938 2522 
Q 2938 1958 2742 1462 
Q 2547 966 2170 621 
Q 1773 262 1395 105 
Q 1018 -51 378 -141 
z
M 2317 2272 
L 2317 2522 
Q 2317 4147 1472 4147 
Q 1171 4147 1005 3930 
Q 909 3802 845 3546 
Q 781 3290 781 3034 
Q 781 2464 995 2128 
Q 1210 1792 1568 1792 
Q 1824 1792 2070 1917 
Q 2317 2042 2317 2272 
z
" id="STIXGeneral-Regular-39" transform="scale(0.015625)"/>
       </defs>
       <use xlink:href="#STIXGeneral-Regular-32"/>
       <use x="49.999985" xlink:href="#STIXGeneral-Regular-30"/>
       <use x="99.999969" xlink:href="#STIXGeneral-Regular-31"/>
       <use x="149.999954" xlink:href="#STIXGeneral-Regular-39"/>
       <use x="199.999939" xlink:href="#STIXGeneral-Regular-2d"/>
       <use x="233.299927" xlink:href="#STIXGeneral-Regular-30"/>
       <use x="283.299911" xlink:href="#STIXGeneral-Regular-31"/>
      </g>
     </g>
    </g>
    <g id="xtick_10">
     <g id="line2d_10">
      <g>
       <use style="fill:#323034;stroke:#323034;stroke-width:0.8;" x="356.503871" xlink:href="#m3640c43385" y="207.137812"/>
      </g>
     </g>
     <g id="text_10">
      <!-- 2019-04 -->
      <g style="fill:#323034;" transform="translate(320.564457 241.233244)rotate(-30)scale(0.12 -0.12)">
       <use xlink:href="#STIXGeneral-Regular-32"/>
       <use x="49.999985" xlink:href="#STIXGeneral-Regular-30"/>
       <use x="99.999969" xlink:href="#STIXGeneral-Regular-31"/>
       <use x="149.999954" xlink:href="#STIXGeneral-Regular-39"/>
       <use x="199.999939" xlink:href="#STIXGeneral-Regular-2d"/>
       <use x="233.299927" xlink:href="#STIXGeneral-Regular-30"/>
       <use x="283.299911" xlink:href="#STIXGeneral-Regular-34"/>
      </g>
     </g>
    </g>
    <g id="text_11">
     <!-- Date -->
     <g transform="translate(202.422164 254.684324)scale(0.12 -0.12)">
      <defs>
       <path d="M 102 4237 
L 1830 4237 
Q 3078 4237 3750 3654 
Q 4384 3110 4384 2138 
Q 4384 966 3514 410 
Q 2880 0 1901 0 
L 102 0 
L 102 122 
Q 474 147 570 252 
Q 666 358 666 736 
L 666 3520 
Q 666 3891 570 3990 
Q 474 4090 102 4115 
L 102 4237 
z
M 1318 3731 
L 1318 538 
Q 1318 365 1379 301 
Q 1440 237 1626 237 
Q 2125 237 2432 307 
Q 2739 378 3021 570 
Q 3686 1018 3686 2099 
Q 3686 3027 3078 3558 
Q 2803 3802 2476 3901 
Q 2150 4000 1658 4000 
Q 1472 4000 1395 3942 
Q 1318 3885 1318 3731 
z
" id="STIXGeneral-Regular-44" transform="scale(0.015625)"/>
       <path d="M 2829 422 
L 2829 243 
Q 2586 -64 2253 -64 
Q 1888 -64 1843 403 
L 1837 403 
Q 1427 -64 909 -64 
Q 608 -64 422 112 
Q 237 288 237 602 
Q 237 1050 685 1350 
Q 992 1555 1837 1869 
L 1837 2214 
Q 1837 2502 1699 2646 
Q 1562 2790 1338 2790 
Q 1146 2790 1018 2697 
Q 890 2605 890 2477 
Q 890 2419 909 2348 
Q 928 2278 928 2208 
Q 928 2112 841 2029 
Q 755 1946 634 1946 
Q 525 1946 441 2029 
Q 358 2112 358 2240 
Q 358 2547 685 2752 
Q 986 2944 1421 2944 
Q 1939 2944 2176 2656 
Q 2291 2522 2323 2384 
Q 2355 2246 2355 1946 
L 2355 723 
Q 2355 301 2554 301 
Q 2682 301 2829 422 
z
M 1837 813 
L 1837 1715 
Q 1248 1510 1018 1293 
Q 800 1094 800 800 
Q 800 557 921 432 
Q 1043 307 1242 307 
Q 1453 307 1613 410 
Q 1747 506 1792 589 
Q 1837 672 1837 813 
z
" id="STIXGeneral-Regular-61" transform="scale(0.015625)"/>
       <path d="M 1702 493 
L 1786 422 
Q 1478 -64 1011 -64 
Q 448 -64 448 749 
L 448 2675 
L 109 2675 
Q 83 2694 83 2720 
Q 83 2771 192 2842 
Q 435 2982 813 3526 
Q 826 3546 874 3606 
Q 922 3667 941 3706 
Q 986 3706 986 3622 
L 986 2880 
L 1632 2880 
L 1632 2675 
L 986 2675 
L 986 845 
Q 986 538 1062 403 
Q 1139 269 1318 269 
Q 1510 269 1702 493 
z
" id="STIXGeneral-Regular-74" transform="scale(0.015625)"/>
       <path d="M 2611 1050 
L 2714 1005 
Q 2330 -64 1376 -64 
Q 813 -64 486 329 
Q 160 723 160 1389 
Q 160 2074 525 2509 
Q 890 2944 1485 2944 
Q 2061 2944 2374 2502 
Q 2560 2246 2592 1773 
L 621 1773 
Q 646 1370 700 1158 
Q 755 947 915 730 
Q 1184 378 1626 378 
Q 1939 378 2153 531 
Q 2368 685 2611 1050 
z
M 634 1978 
L 1939 1978 
Q 1882 2381 1750 2547 
Q 1619 2714 1312 2714 
Q 1043 2714 864 2525 
Q 685 2336 634 1978 
z
" id="STIXGeneral-Regular-65" transform="scale(0.015625)"/>
      </defs>
      <use xlink:href="#STIXGeneral-Regular-44"/>
      <use x="72.199982" xlink:href="#STIXGeneral-Regular-61"/>
      <use x="116.599976" xlink:href="#STIXGeneral-Regular-74"/>
      <use x="144.399963" xlink:href="#STIXGeneral-Regular-65"/>
     </g>
    </g>
   </g>
   <g id="matplotlib.axis_2">
    <g id="ytick_1">
     <g id="line2d_11">
      <defs>
       <path d="M 0 0 
L -3.5 0 
" id="mac1a2d1fe9" style="stroke:#323034;stroke-width:0.8;"/>
      </defs>
      <g>
       <use style="fill:#323034;stroke:#323034;stroke-width:0.8;" x="46.350914" xlink:href="#mac1a2d1fe9" y="207.137812"/>
      </g>
     </g>
     <g id="text_12">
      <!-- $\mathdefault{25}$ -->
      <g style="fill:#323034;" transform="translate(27.350914 211.235625)scale(0.12 -0.12)">
       <defs>
        <path d="M 2803 4358 
L 2573 3814 
Q 2534 3731 2400 3731 
L 1158 3731 
L 902 3187 
Q 1606 3053 1920 2896 
Q 2234 2739 2502 2368 
Q 2726 2061 2726 1555 
Q 2726 1094 2576 780 
Q 2426 467 2099 224 
Q 1664 -90 1011 -90 
Q 646 -90 422 19 
Q 198 128 198 307 
Q 198 550 486 550 
Q 717 550 960 352 
Q 1210 147 1414 147 
Q 1747 147 2012 480 
Q 2278 813 2278 1229 
Q 2278 1843 1850 2189 
Q 1293 2637 486 2637 
Q 410 2637 410 2688 
L 416 2720 
L 1114 4237 
L 2438 4237 
Q 2547 4237 2608 4269 
Q 2669 4301 2746 4403 
L 2803 4358 
z
" id="STIXGeneral-Regular-35" transform="scale(0.015625)"/>
       </defs>
       <use transform="translate(0 0.203125)" xlink:href="#STIXGeneral-Regular-32"/>
       <use transform="translate(49.999985 0.203125)" xlink:href="#STIXGeneral-Regular-35"/>
      </g>
     </g>
    </g>
    <g id="ytick_2">
     <g id="line2d_12">
      <g>
       <use style="fill:#323034;stroke:#323034;stroke-width:0.8;" x="46.350914" xlink:href="#mac1a2d1fe9" y="179.16067"/>
      </g>
     </g>
     <g id="text_13">
      <!-- $\mathdefault{30}$ -->
      <g style="fill:#323034;" transform="translate(27.350914 183.258482)scale(0.12 -0.12)">
       <defs>
        <path d="M 390 3264 
L 288 3290 
Q 435 3770 748 4048 
Q 1062 4326 1542 4326 
Q 1990 4326 2265 4083 
Q 2541 3840 2541 3450 
Q 2541 2925 1946 2566 
Q 2298 2413 2477 2227 
Q 2758 1914 2758 1402 
Q 2758 890 2464 506 
Q 2246 211 1840 60 
Q 1434 -90 979 -90 
Q 262 -90 262 275 
Q 262 378 339 442 
Q 416 506 525 506 
Q 685 506 915 339 
Q 1197 141 1466 141 
Q 1818 141 2058 425 
Q 2298 710 2298 1120 
Q 2298 1856 1632 2048 
Q 1434 2112 979 2112 
L 979 2202 
Q 1338 2323 1517 2432 
Q 2035 2726 2035 3290 
Q 2035 3610 1852 3776 
Q 1670 3942 1344 3942 
Q 768 3942 390 3264 
z
" id="STIXGeneral-Regular-33" transform="scale(0.015625)"/>
       </defs>
       <use transform="translate(0 0.40625)" xlink:href="#STIXGeneral-Regular-33"/>
       <use transform="translate(49.999985 0.40625)" xlink:href="#STIXGeneral-Regular-30"/>
      </g>
     </g>
    </g>
    <g id="ytick_3">
     <g id="line2d_13">
      <g>
       <use style="fill:#323034;stroke:#323034;stroke-width:0.8;" x="46.350914" xlink:href="#mac1a2d1fe9" y="151.183527"/>
      </g>
     </g>
     <g id="text_14">
      <!-- $\mathdefault{35}$ -->
      <g style="fill:#323034;" transform="translate(27.350914 155.281339)scale(0.12 -0.12)">
       <use transform="translate(0 0.203125)" xlink:href="#STIXGeneral-Regular-33"/>
       <use transform="translate(49.999985 0.203125)" xlink:href="#STIXGeneral-Regular-35"/>
      </g>
     </g>
    </g>
    <g id="ytick_4">
     <g id="line2d_14">
      <g>
       <use style="fill:#323034;stroke:#323034;stroke-width:0.8;" x="46.350914" xlink:href="#mac1a2d1fe9" y="123.206384"/>
      </g>
     </g>
     <g id="text_15">
      <!-- $\mathdefault{40}$ -->
      <g style="fill:#323034;" transform="translate(27.350914 127.304196)scale(0.12 -0.12)">
       <use transform="translate(0 0.40625)" xlink:href="#STIXGeneral-Regular-34"/>
       <use transform="translate(49.999985 0.40625)" xlink:href="#STIXGeneral-Regular-30"/>
      </g>
     </g>
    </g>
    <g id="ytick_5">
     <g id="line2d_15">
      <g>
       <use style="fill:#323034;stroke:#323034;stroke-width:0.8;" x="46.350914" xlink:href="#mac1a2d1fe9" y="95.229241"/>
      </g>
     </g>
     <g id="text_16">
      <!-- $\mathdefault{45}$ -->
      <g style="fill:#323034;" transform="translate(27.350914 99.327054)scale(0.12 -0.12)">
       <use transform="translate(0 0.203125)" xlink:href="#STIXGeneral-Regular-34"/>
       <use transform="translate(49.999985 0.203125)" xlink:href="#STIXGeneral-Regular-35"/>
      </g>
     </g>
    </g>
    <g id="ytick_6">
     <g id="line2d_16">
      <g>
       <use style="fill:#323034;stroke:#323034;stroke-width:0.8;" x="46.350914" xlink:href="#mac1a2d1fe9" y="67.252098"/>
      </g>
     </g>
     <g id="text_17">
      <!-- $\mathdefault{50}$ -->
      <g style="fill:#323034;" transform="translate(27.350914 71.349911)scale(0.12 -0.12)">
       <use transform="translate(0 0.203125)" xlink:href="#STIXGeneral-Regular-35"/>
       <use transform="translate(49.999985 0.203125)" xlink:href="#STIXGeneral-Regular-30"/>
      </g>
     </g>
    </g>
    <g id="ytick_7">
     <g id="line2d_17">
      <g>
       <use style="fill:#323034;stroke:#323034;stroke-width:0.8;" x="46.350914" xlink:href="#mac1a2d1fe9" y="39.274955"/>
      </g>
     </g>
     <g id="text_18">
      <!-- $\mathdefault{55}$ -->
      <g style="fill:#323034;" transform="translate(27.350914 43.372768)scale(0.12 -0.12)">
       <use transform="translate(0 0.203125)" xlink:href="#STIXGeneral-Regular-35"/>
       <use transform="translate(49.999985 0.203125)" xlink:href="#STIXGeneral-Regular-35"/>
      </g>
     </g>
    </g>
    <g id="ytick_8">
     <g id="line2d_18">
      <g>
       <use style="fill:#323034;stroke:#323034;stroke-width:0.8;" x="46.350914" xlink:href="#mac1a2d1fe9" y="11.297813"/>
      </g>
     </g>
     <g id="text_19">
      <!-- $\mathdefault{60}$ -->
      <g style="fill:#323034;" transform="translate(27.350914 15.395625)scale(0.12 -0.12)">
       <defs>
        <path d="M 2854 4378 
L 2867 4275 
Q 2112 4154 1606 3664 
Q 1101 3174 973 2451 
Q 1344 2739 1786 2739 
Q 2349 2739 2672 2380 
Q 2995 2022 2995 1402 
Q 2995 774 2669 378 
Q 2291 -90 1651 -90 
Q 870 -90 518 557 
Q 218 1107 218 1786 
Q 218 2835 915 3552 
Q 1312 3962 1731 4131 
Q 2150 4301 2854 4378 
z
M 2419 1203 
Q 2419 2445 1555 2445 
Q 1235 2445 1024 2275 
Q 813 2106 813 1702 
Q 813 954 1046 522 
Q 1280 90 1722 90 
Q 2061 90 2240 394 
Q 2419 698 2419 1203 
z
" id="STIXGeneral-Regular-36" transform="scale(0.015625)"/>
       </defs>
       <use transform="translate(0 0.59375)" xlink:href="#STIXGeneral-Regular-36"/>
       <use transform="translate(49.999985 0.59375)" xlink:href="#STIXGeneral-Regular-30"/>
      </g>
     </g>
    </g>
    <g id="text_20">
     <!-- Close ($) -->
     <g transform="translate(21.746539 131.382187)rotate(-90)scale(0.12 -0.12)">
      <defs>
       <path d="M 3930 838 
L 4051 723 
Q 3482 -90 2304 -90 
Q 1376 -90 794 480 
Q 179 1082 179 2080 
Q 179 3014 755 3661 
Q 1357 4326 2310 4326 
Q 2720 4326 3072 4230 
Q 3475 4115 3514 4115 
Q 3725 4115 3782 4326 
L 3910 4326 
L 3968 2874 
L 3821 2874 
Q 3718 3334 3488 3584 
Q 3034 4070 2458 4070 
Q 1747 4070 1334 3548 
Q 922 3027 922 2182 
Q 922 1152 1382 653 
Q 1811 192 2522 192 
Q 2944 192 3251 339 
Q 3558 486 3930 838 
z
" id="STIXGeneral-Regular-43" transform="scale(0.015625)"/>
       <path d="M 1645 0 
L 134 0 
L 134 96 
Q 435 122 531 221 
Q 627 320 627 589 
L 627 3590 
Q 627 3821 569 3910 
Q 512 4000 358 4000 
Q 224 4000 122 3987 
L 122 4090 
Q 730 4237 1133 4371 
L 1165 4346 
L 1165 557 
Q 1165 288 1254 201 
Q 1344 115 1645 96 
L 1645 0 
z
" id="STIXGeneral-Regular-6c" transform="scale(0.015625)"/>
       <path d="M 3008 1478 
Q 3008 806 2608 371 
Q 2208 -64 1568 -64 
Q 979 -64 582 368 
Q 186 800 186 1459 
Q 186 2125 582 2534 
Q 979 2944 1626 2944 
Q 2221 2944 2614 2537 
Q 3008 2131 3008 1478 
z
M 2432 1306 
Q 2432 2035 2112 2445 
Q 1856 2765 1504 2765 
Q 1171 2765 966 2493 
Q 762 2221 762 1747 
Q 762 928 1101 435 
Q 1318 115 1677 115 
Q 2029 115 2230 432 
Q 2432 749 2432 1306 
z
" id="STIXGeneral-Regular-6f" transform="scale(0.015625)"/>
       <path d="M 998 1926 
L 1664 1523 
Q 1984 1331 2105 1164 
Q 2227 998 2227 736 
Q 2227 416 1961 176 
Q 1696 -64 1331 -64 
Q 1030 -64 864 -6 
Q 691 51 570 51 
Q 461 51 416 -26 
L 333 -26 
L 333 979 
L 435 979 
Q 538 512 730 294 
Q 922 77 1248 77 
Q 1485 77 1632 211 
Q 1779 346 1779 550 
Q 1779 845 1440 1030 
L 1094 1222 
Q 326 1651 326 2150 
Q 326 2522 566 2730 
Q 806 2938 1210 2938 
Q 1491 2938 1638 2867 
Q 1754 2816 1818 2816 
Q 1862 2816 1920 2880 
L 1990 2880 
L 2022 2010 
L 1926 2010 
Q 1818 2445 1654 2621 
Q 1491 2797 1203 2797 
Q 986 2797 854 2688 
Q 723 2579 723 2362 
Q 723 2253 796 2128 
Q 870 2003 998 1926 
z
" id="STIXGeneral-Regular-73" transform="scale(0.015625)"/>
       <path id="STIXGeneral-Regular-20" transform="scale(0.015625)"/>
       <path d="M 1946 -1030 
L 1869 -1133 
Q 1126 -710 716 32 
Q 307 774 307 1613 
Q 307 3386 1888 4326 
L 1946 4224 
Q 1293 3667 1075 3126 
Q 858 2586 858 1632 
Q 858 685 1082 96 
Q 1306 -493 1946 -1030 
z
" id="STIXGeneral-Regular-28" transform="scale(0.015625)"/>
       <path d="M 1690 4077 
L 1690 2502 
Q 2234 2208 2445 2045 
Q 2656 1882 2797 1664 
Q 2931 1466 2931 1088 
Q 2931 570 2614 326 
Q 2298 83 1690 0 
L 1690 -557 
L 1472 -557 
L 1472 0 
Q 1062 0 806 73 
Q 550 147 282 326 
L 282 1158 
L 378 1158 
Q 480 685 761 432 
Q 1043 179 1472 179 
L 1472 1984 
Q 800 2362 566 2624 
Q 333 2886 333 3283 
Q 333 3731 659 3974 
Q 986 4218 1472 4250 
L 1472 4653 
L 1690 4653 
L 1690 4250 
Q 2426 4205 2720 3910 
L 2720 3200 
L 2624 3200 
Q 2528 3597 2301 3814 
Q 2074 4032 1690 4077 
z
M 1472 2605 
L 1472 4077 
Q 806 3942 806 3405 
Q 806 3194 937 3037 
Q 1069 2880 1472 2605 
z
M 1690 1875 
L 1690 179 
Q 2086 262 2252 432 
Q 2419 602 2419 941 
Q 2419 1235 2272 1427 
Q 2125 1619 1690 1875 
z
" id="STIXGeneral-Regular-24" transform="scale(0.015625)"/>
       <path d="M 186 4224 
L 262 4326 
Q 992 3891 1408 3148 
Q 1824 2406 1824 1581 
Q 1824 -166 243 -1133 
L 186 -1030 
Q 845 -486 1059 54 
Q 1274 595 1274 1562 
Q 1274 2534 1059 3120 
Q 845 3706 186 4224 
z
" id="STIXGeneral-Regular-29" transform="scale(0.015625)"/>
      </defs>
      <use xlink:href="#STIXGeneral-Regular-43"/>
      <use x="66.699997" xlink:href="#STIXGeneral-Regular-6c"/>
      <use x="94.499985" xlink:href="#STIXGeneral-Regular-6f"/>
      <use x="144.499969" xlink:href="#STIXGeneral-Regular-73"/>
      <use x="183.399963" xlink:href="#STIXGeneral-Regular-65"/>
      <use x="227.799957" xlink:href="#STIXGeneral-Regular-20"/>
      <use x="252.799942" xlink:href="#STIXGeneral-Regular-28"/>
      <use x="286.09993" xlink:href="#STIXGeneral-Regular-24"/>
      <use x="336.099915" xlink:href="#STIXGeneral-Regular-29"/>
     </g>
    </g>
   </g>
   <g id="line2d_19">
    <path clip-path="url(#pf614f28303)" d="M 61.569096 176.864865 
L 62.323405 175.55934 
L 63.454868 174.891022 
L 64.963486 172.540159 
L 66.472104 171.956667 
L 67.603567 169.995358 
L 68.735031 169.352219 
L 70.243648 166.812566 
L 71.375112 166.234558 
L 72.506575 164.566785 
L 72.883729 164.227478 
L 74.015193 163.862432 
L 75.523811 162.650015 
L 76.655274 162.3548 
L 77.409583 161.754187 
L 78.163892 161.308343 
L 79.295355 161.012233 
L 80.803973 159.850846 
L 81.935436 159.419998 
L 83.444054 157.681834 
L 84.575517 157.245502 
L 85.329826 156.50366 
L 85.706981 156.129438 
L 87.215598 155.73317 
L 88.724216 154.15593 
L 89.855679 153.798047 
L 91.364297 152.34995 
L 92.495761 151.98994 
L 93.627224 150.897824 
L 94.004378 150.753462 
L 95.512996 150.6044 
L 96.267305 150.546991 
L 96.644459 150.577878 
L 98.530232 150.343205 
L 99.284541 150.08727 
L 101.170313 149.741921 
L 101.924622 149.589949 
L 107.204784 149.318794 
L 109.090556 149.212257 
L 109.844865 149.355053 
L 111.353483 149.493036 
L 113.993564 149.882702 
L 115.125027 149.67209 
L 117.010799 149.371167 
L 117.765108 149.091396 
L 119.273726 148.828411 
L 120.028035 148.419833 
L 120.405189 148.337468 
L 121.536653 148.25432 
L 121.913807 148.019871 
L 123.045271 146.861953 
L 124.176734 146.433567 
L 125.685352 144.452226 
L 126.816815 143.947966 
L 128.325433 142.232967 
L 129.456896 141.744486 
L 130.965514 139.974429 
L 132.096977 139.573684 
L 132.851286 138.899323 
L 133.605595 138.555875 
L 135.114213 138.388684 
L 136.245676 138.071311 
L 138.508603 137.780797 
L 138.885757 137.63912 
L 140.394375 137.454919 
L 141.148684 137.05977 
L 142.657302 137.019818 
L 143.411611 136.850948 
L 143.788765 136.842331 
L 144.165919 136.960283 
L 145.674537 136.971474 
L 146.806001 137.276649 
L 147.937464 137.137994 
L 149.446082 136.172671 
L 150.577545 135.821054 
L 152.086163 134.396346 
L 153.217626 134.095871 
L 154.726244 133.066648 
L 155.857707 132.744799 
L 156.612016 132.159629 
L 157.366325 131.275663 
L 158.497788 130.881186 
L 160.006406 129.258176 
L 161.137869 128.765666 
L 161.892178 127.803476 
L 162.646487 126.942004 
L 163.777951 126.432037 
L 165.286568 124.424061 
L 166.418032 123.845382 
L 167.926649 121.796224 
L 169.058113 121.418533 
L 169.812422 120.818591 
L 171.698194 120.101593 
L 173.206812 118.206309 
L 174.338275 117.739986 
L 175.092584 117.180891 
L 175.846893 116.686255 
L 177.35551 116.179757 
L 178.109819 115.975412 
L 178.486974 115.937475 
L 179.995592 116.059679 
L 181.127055 116.271969 
L 183.012827 116.433677 
L 183.389982 116.686367 
L 183.767136 117.131315 
L 185.275754 117.449359 
L 186.407217 118.7945 
L 187.53868 118.957999 
L 188.292989 119.220201 
L 189.047298 119.023353 
L 190.93307 118.864779 
L 194.32746 118.033298 
L 196.590387 117.782287 
L 196.967542 117.511581 
L 198.099005 117.195103 
L 199.230468 116.483141 
L 199.607623 116.308787 
L 201.493395 116.268276 
L 202.247704 116.626608 
L 203.756322 116.67484 
L 204.887785 117.414108 
L 206.019248 117.731817 
L 206.773557 118.107718 
L 207.527866 118.339368 
L 209.036484 118.283862 
L 209.790793 117.935602 
L 210.167947 117.721633 
L 211.29941 117.487632 
L 212.430874 116.125145 
L 212.808028 115.941168 
L 215.070955 115.457946 
L 215.448109 115.593132 
L 216.956727 115.889242 
L 217.711036 115.607344 
L 219.219654 115.303513 
L 220.728272 114.296895 
L 221.859735 113.913496 
L 223.368353 112.62901 
L 224.499816 112.358415 
L 226.008434 111.444569 
L 227.139897 111.15909 
L 228.27136 110.199251 
L 228.648515 109.67093 
L 229.779978 109.035513 
L 230.534287 107.667767 
L 231.288596 106.278758 
L 232.420059 105.631143 
L 233.174368 104.308048 
L 233.928677 103.324483 
L 235.06014 102.759009 
L 236.191604 101.578933 
L 236.568758 101.270513 
L 237.700222 101.052739 
L 239.208839 100.052948 
L 240.717457 99.458266 
L 241.471766 98.317358 
L 241.84892 97.646354 
L 242.980384 96.920291 
L 243.734693 95.524904 
L 244.489002 94.501276 
L 245.997619 93.881079 
L 247.129083 93.415427 
L 248.6377 93.234359 
L 249.769164 92.769603 
L 251.277782 92.58417 
L 251.654936 92.210843 
L 252.409245 91.138871 
L 253.540708 90.575859 
L 253.917863 90.077754 
L 254.672172 89.557155 
L 255.049326 88.982057 
L 256.180789 88.406399 
L 257.689407 86.369104 
L 258.82087 85.700114 
L 260.329488 83.060639 
L 261.460952 82.358412 
L 262.21526 80.702501 
L 262.969569 78.621114 
L 264.101033 77.46577 
L 265.60965 72.970402 
L 266.741114 72.066965 
L 268.249732 67.851928 
L 269.381195 67.026938 
L 270.889813 63.866976 
L 272.021276 63.05396 
L 273.529894 59.510263 
L 274.661357 58.525915 
L 276.169975 54.673687 
L 277.678593 53.77092 
L 278.432902 52.03354 
L 278.810056 51.665696 
L 279.941519 51.249173 
L 280.695828 50.604355 
L 281.450137 49.947564 
L 282.5816 49.646306 
L 283.335909 48.918229 
L 284.090218 48.516477 
L 285.221681 48.435679 
L 285.97599 48.637226 
L 286.730299 48.340445 
L 287.861763 48.556093 
L 288.993226 49.594716 
L 289.37038 49.965917 
L 290.501844 50.501176 
L 292.010461 54.244741 
L 293.141925 54.976399 
L 293.519079 55.835186 
L 294.650543 59.707222 
L 295.782006 61.020134 
L 296.913469 64.202254 
L 297.290624 65.303882 
L 298.422087 66.172628 
L 299.55355 69.996544 
L 299.930705 71.474632 
L 301.062168 73.00017 
L 302.570786 79.607364 
L 303.702249 81.163677 
L 305.210867 88.290462 
L 306.34233 90.02829 
L 307.096639 93.430423 
L 307.850948 95.128411 
L 308.982411 96.681926 
L 310.491029 104.418054 
L 311.622493 106.198184 
L 311.999647 107.870993 
L 312.753956 109.474978 
L 313.13111 111.16905 
L 314.262574 112.930156 
L 315.016883 116.110038 
L 315.771191 118.651929 
L 316.902655 120.150049 
L 317.656964 122.926277 
L 318.411273 124.96928 
L 319.542736 125.553107 
L 320.297045 126.228811 
L 320.674199 126.960357 
L 321.051354 127.355954 
L 323.691435 127.630801 
L 324.822898 127.741479 
L 326.331516 128.788495 
L 327.840134 128.977509 
L 331.234524 128.089179 
L 331.611678 127.770127 
L 332.743141 127.484761 
L 333.49745 126.567894 
L 334.251759 125.231481 
L 335.383223 124.622027 
L 336.89184 121.707816 
L 338.023304 120.444592 
L 339.531921 116.006075 
L 341.040539 115.03717 
L 342.172003 112.029627 
L 343.303466 111.059828 
L 344.434929 107.887108 
L 344.812084 106.732883 
L 345.943547 105.510058 
L 347.452165 100.942845 
L 348.583628 100.041645 
L 349.715091 97.543063 
L 350.092246 96.717289 
L 351.223709 95.78386 
L 352.732327 91.885861 
L 353.86379 90.966196 
L 354.618099 89.066324 
L 355.372408 86.949909 
L 356.503871 85.98425 
L 358.012489 83.050679 
L 359.143953 82.738678 
L 360.275416 81.488883 
L 360.65257 81.020434 
L 361.784034 80.724435 
L 362.161188 80.495694 
L 362.915497 80.463241 
L 364.424115 80.574142 
L 365.555578 81.246153 
L 365.932733 81.583893 
L 365.932733 81.583893 
" style="fill:none;stroke:#bc80bd;stroke-linecap:square;stroke-width:2;"/>
   </g>
   <g id="patch_3">
    <path d="M 46.350914 207.137812 
L 46.350914 11.297813 
" style="fill:none;stroke:#000000;stroke-linecap:square;stroke-linejoin:miter;stroke-width:0.6;"/>
   </g>
   <g id="patch_4">
    <path d="M 46.350914 207.137812 
L 381.150914 207.137812 
" style="fill:none;stroke:#000000;stroke-linecap:square;stroke-linejoin:miter;stroke-width:0.6;"/>
   </g>
  </g>
 </g>
 <defs>
  <clipPath id="pf614f28303">
   <rect height="195.84" width="334.8" x="46.350914" y="11.297812"/>
  </clipPath>
 </defs>
</svg>
