<?xml version="1.0" encoding="utf-8" standalone="no"?>
<!DOCTYPE svg PUBLIC "-//W3C//DTD SVG 1.1//EN"
  "http://www.w3.org/Graphics/SVG/1.1/DTD/svg11.dtd">
<svg height="398.054625pt" version="1.1" viewBox="0 0 280.6275 398.054625" width="280.6275pt" xmlns="http://www.w3.org/2000/svg" xmlns:xlink="http://www.w3.org/1999/xlink">
 <metadata>
  <rdf:RDF xmlns:cc="http://creativecommons.org/ns#" xmlns:dc="http://purl.org/dc/elements/1.1/" xmlns:rdf="http://www.w3.org/1999/02/22-rdf-syntax-ns#">
   <cc:Work>
    <dc:type rdf:resource="http://purl.org/dc/dcmitype/StillImage"/>
    <dc:date>2022-08-20T18:04:31.180186</dc:date>
    <dc:format>image/svg+xml</dc:format>
    <dc:creator>
     <cc:Agent>
      <dc:title>Matplotlib v3.4.3, https://matplotlib.org/</dc:title>
     </cc:Agent>
    </dc:creator>
   </cc:Work>
  </rdf:RDF>
 </metadata>
 <defs>
  <style type="text/css">*{stroke-linecap:butt;stroke-linejoin:round;}</style>
 </defs>
 <g id="figure_1">
  <g id="patch_1">
   <path d="M 0 398.054625 
L 280.6275 398.054625 
L 280.6275 0 
L 0 0 
z
" style="fill:none;"/>
  </g>
  <g id="axes_1">
   <g id="patch_2">
    <path d="M 16.53 146.290167 
L 243.1475 146.290167 
L 243.1475 61.455 
L 16.53 61.455 
z
" style="fill:#ffffff;"/>
   </g>
   <g id="matplotlib.axis_1">
    <g id="xtick_1">
     <g id="line2d_1">
      <defs>
       <path d="M 0 0 
L 0 3.5 
" id="mfcbb0ffd8d" style="stroke:#323034;stroke-width:0.8;"/>
      </defs>
      <g>
       <use style="fill:#323034;stroke:#323034;stroke-width:0.8;" x="16.53" xlink:href="#mfcbb0ffd8d" y="146.290167"/>
      </g>
     </g>
    </g>
    <g id="xtick_2">
     <g id="line2d_2">
      <g>
       <use style="fill:#323034;stroke:#323034;stroke-width:0.8;" x="38.747402" xlink:href="#mfcbb0ffd8d" y="146.290167"/>
      </g>
     </g>
    </g>
    <g id="xtick_3">
     <g id="line2d_3">
      <g>
       <use style="fill:#323034;stroke:#323034;stroke-width:0.8;" x="61.705384" xlink:href="#mfcbb0ffd8d" y="146.290167"/>
      </g>
     </g>
    </g>
    <g id="xtick_4">
     <g id="line2d_4">
      <g>
       <use style="fill:#323034;stroke:#323034;stroke-width:0.8;" x="83.922786" xlink:href="#mfcbb0ffd8d" y="146.290167"/>
      </g>
     </g>
    </g>
    <g id="xtick_5">
     <g id="line2d_5">
      <g>
       <use style="fill:#323034;stroke:#323034;stroke-width:0.8;" x="106.880768" xlink:href="#mfcbb0ffd8d" y="146.290167"/>
      </g>
     </g>
    </g>
    <g id="xtick_6">
     <g id="line2d_6">
      <g>
       <use style="fill:#323034;stroke:#323034;stroke-width:0.8;" x="129.83875" xlink:href="#mfcbb0ffd8d" y="146.290167"/>
      </g>
     </g>
    </g>
    <g id="xtick_7">
     <g id="line2d_7">
      <g>
       <use style="fill:#323034;stroke:#323034;stroke-width:0.8;" x="152.056152" xlink:href="#mfcbb0ffd8d" y="146.290167"/>
      </g>
     </g>
    </g>
    <g id="xtick_8">
     <g id="line2d_8">
      <g>
       <use style="fill:#323034;stroke:#323034;stroke-width:0.8;" x="175.014134" xlink:href="#mfcbb0ffd8d" y="146.290167"/>
      </g>
     </g>
    </g>
    <g id="xtick_9">
     <g id="line2d_9">
      <g>
       <use style="fill:#323034;stroke:#323034;stroke-width:0.8;" x="197.231536" xlink:href="#mfcbb0ffd8d" y="146.290167"/>
      </g>
     </g>
    </g>
    <g id="xtick_10">
     <g id="line2d_10">
      <g>
       <use style="fill:#323034;stroke:#323034;stroke-width:0.8;" x="220.189518" xlink:href="#mfcbb0ffd8d" y="146.290167"/>
      </g>
     </g>
    </g>
    <g id="xtick_11">
     <g id="line2d_11">
      <g>
       <use style="fill:#323034;stroke:#323034;stroke-width:0.8;" x="243.1475" xlink:href="#mfcbb0ffd8d" y="146.290167"/>
      </g>
     </g>
    </g>
   </g>
   <g id="matplotlib.axis_2">
    <g id="ytick_1">
     <g id="line2d_12">
      <defs>
       <path d="M 0 0 
L 3.5 0 
" id="mc624f414ae" style="stroke:#323034;stroke-width:0.8;"/>
      </defs>
      <g>
       <use style="fill:#323034;stroke:#323034;stroke-width:0.8;" x="243.1475" xlink:href="#mc624f414ae" y="125.081375"/>
      </g>
     </g>
     <g id="text_1">
      <!-- $\mathdefault{10}$ -->
      <g style="fill:#323034;" transform="translate(250.1475 129.179187)scale(0.12 -0.12)">
       <defs>
        <path d="M 2522 0 
L 755 0 
L 755 96 
Q 1107 115 1235 227 
Q 1363 339 1363 608 
L 1363 3482 
Q 1363 3795 1171 3795 
Q 1082 3795 883 3718 
L 710 3654 
L 710 3744 
L 1856 4326 
L 1914 4307 
L 1914 486 
Q 1914 275 2042 185 
Q 2170 96 2522 96 
L 2522 0 
z
" id="STIXGeneral-Regular-31" transform="scale(0.015625)"/>
        <path d="M 3046 2112 
Q 3046 1683 2963 1302 
Q 2880 922 2717 602 
Q 2554 282 2266 96 
Q 1978 -90 1600 -90 
Q 1210 -90 915 108 
Q 621 307 461 640 
Q 301 973 227 1350 
Q 154 1728 154 2150 
Q 154 2746 301 3222 
Q 448 3699 790 4012 
Q 1133 4326 1626 4326 
Q 2253 4326 2649 3712 
Q 3046 3098 3046 2112 
z
M 2432 2080 
Q 2432 3091 2217 3625 
Q 2003 4160 1587 4160 
Q 1190 4160 979 3622 
Q 768 3085 768 2106 
Q 768 1120 979 598 
Q 1190 77 1600 77 
Q 2003 77 2217 598 
Q 2432 1120 2432 2080 
z
" id="STIXGeneral-Regular-30" transform="scale(0.015625)"/>
       </defs>
       <use transform="translate(0 0.40625)" xlink:href="#STIXGeneral-Regular-31"/>
       <use transform="translate(49.999985 0.40625)" xlink:href="#STIXGeneral-Regular-30"/>
      </g>
     </g>
    </g>
    <g id="ytick_2">
     <g id="line2d_13">
      <g>
       <use style="fill:#323034;stroke:#323034;stroke-width:0.8;" x="243.1475" xlink:href="#mc624f414ae" y="82.663792"/>
      </g>
     </g>
     <g id="text_2">
      <!-- $\mathdefault{12}$ -->
      <g style="fill:#323034;" transform="translate(250.1475 86.761604)scale(0.12 -0.12)">
       <defs>
        <path d="M 3034 877 
L 2688 0 
L 186 0 
L 186 77 
L 1325 1286 
Q 1773 1754 1965 2144 
Q 2157 2534 2157 2950 
Q 2157 3379 1920 3616 
Q 1683 3853 1267 3853 
Q 922 3853 720 3673 
Q 518 3494 326 3021 
L 192 3053 
Q 301 3648 630 3987 
Q 960 4326 1523 4326 
Q 2054 4326 2380 4006 
Q 2707 3686 2707 3200 
Q 2707 2477 1888 1613 
L 832 486 
L 2330 486 
Q 2541 486 2665 569 
Q 2790 653 2944 915 
L 3034 877 
z
" id="STIXGeneral-Regular-32" transform="scale(0.015625)"/>
       </defs>
       <use transform="translate(0 0.40625)" xlink:href="#STIXGeneral-Regular-31"/>
       <use transform="translate(49.999985 0.40625)" xlink:href="#STIXGeneral-Regular-32"/>
      </g>
     </g>
    </g>
    <g id="ytick_3">
     <g id="line2d_14">
      <defs>
       <path d="M 0 0 
L 2 0 
" id="m104a71c464" style="stroke:#323034;stroke-width:0.6;"/>
      </defs>
      <g>
       <use style="fill:#323034;stroke:#323034;stroke-width:0.6;" x="243.1475" xlink:href="#m104a71c464" y="103.872583"/>
      </g>
     </g>
    </g>
    <g id="ytick_4">
     <g id="line2d_15">
      <g>
       <use style="fill:#323034;stroke:#323034;stroke-width:0.6;" x="243.1475" xlink:href="#m104a71c464" y="61.455"/>
      </g>
     </g>
    </g>
   </g>
   <g id="line2d_16">
    <path clip-path="url(#p19ed661496)" d="M 16.53 119.274544 
L 19.49232 118.347855 
L 21.71406 117.848887 
L 23.195221 118.106305 
L 24.676381 118.540328 
L 26.898121 119.321095 
L 28.379281 119.528835 
L 29.860441 119.514568 
L 32.082181 119.324957 
L 33.563342 119.518258 
L 37.266242 120.350502 
L 40.228562 121.205272 
L 41.709722 121.858279 
L 43.931462 123.097138 
L 46.153203 123.836273 
L 47.634363 124.191125 
L 51.337263 124.774525 
L 55.040163 125.747327 
L 56.521324 126.109049 
L 58.002484 126.107534 
L 60.964804 125.921776 
L 63.186544 126.016916 
L 64.667704 126.177986 
L 66.148864 125.952912 
L 67.630025 125.53026 
L 69.111185 124.921997 
L 70.592345 124.150627 
L 72.073505 123.139292 
L 73.554665 121.726452 
L 75.035825 119.850475 
L 80.219886 112.513751 
L 81.701046 110.74302 
L 83.182206 109.282709 
L 84.663366 108.167777 
L 89.106846 105.174397 
L 91.328587 103.360486 
L 92.809747 102.498174 
L 94.290907 101.996516 
L 95.772067 101.808489 
L 99.474967 101.891474 
L 101.696708 102.11561 
L 103.177868 102.435964 
L 104.659028 103.039315 
L 106.140188 103.911864 
L 108.361928 105.317833 
L 109.843088 105.920378 
L 111.324248 106.151215 
L 113.545989 106.458975 
L 115.027149 106.957275 
L 116.508309 107.891925 
L 120.211209 110.71757 
L 121.692369 111.644232 
L 123.173529 112.095697 
L 125.39527 112.330968 
L 126.87643 112.24866 
L 129.09817 111.828762 
L 130.57933 111.843469 
L 132.06049 112.162906 
L 134.28223 112.81713 
L 136.503971 113.258791 
L 137.244551 113.269749 
L 141.688031 112.115126 
L 149.093832 111.04529 
L 152.056152 110.555159 
L 153.537312 109.954757 
L 156.499632 108.35612 
L 157.980792 107.438274 
L 160.202533 105.873952 
L 166.867753 101.619848 
L 173.532974 96.083076 
L 175.754714 93.714112 
L 177.976454 90.880772 
L 180.938775 87.044231 
L 182.419935 85.353806 
L 183.901095 83.963533 
L 185.382255 82.925355 
L 186.863415 82.178007 
L 188.344575 81.633235 
L 190.566315 81.083508 
L 192.047475 80.921401 
L 193.528636 80.857455 
L 195.750376 80.364229 
L 197.231536 79.803979 
L 198.712696 78.770266 
L 200.193856 77.79091 
L 201.675016 77.172187 
L 203.156176 76.730791 
L 205.377917 76.408162 
L 206.859077 76.211835 
L 209.821397 76.258515 
L 217.227198 76.611101 
L 217.967778 76.538885 
L 218.708358 76.311826 
L 220.930098 75.170178 
L 223.151838 74.020598 
L 223.892418 73.743276 
L 224.632998 73.682321 
L 225.373578 73.760697 
L 226.114158 73.954049 
L 227.595319 74.711212 
L 229.076479 75.781329 
L 231.298219 77.662479 
L 235.001119 80.909973 
L 237.222859 82.702475 
L 239.4446 84.128489 
L 243.1475 86.333389 
L 243.1475 86.333389 
" style="fill:none;stroke:#000000;stroke-dasharray:3.7,1.6;stroke-dashoffset:0;"/>
   </g>
   <g id="line2d_17">
    <path clip-path="url(#p19ed661496)" d="M 16.53 120.818489 
L 18.01116 116.950356 
L 18.75174 115.199607 
L 19.49232 121.879432 
L 20.2329 117.890977 
L 20.97348 118.291945 
L 21.71406 117.279715 
L 22.454641 115.442697 
L 23.195221 116.205614 
L 23.935801 117.346472 
L 24.676381 120.6514 
L 25.416961 121.753132 
L 26.157541 121.007554 
L 26.898121 118.505546 
L 27.638701 117.418136 
L 28.379281 117.488023 
L 29.860441 122.114209 
L 30.601021 120.455403 
L 31.341601 121.964052 
L 32.082181 119.371831 
L 32.822761 116.014494 
L 33.563342 114.229927 
L 34.303922 115.621313 
L 35.044502 120.97262 
L 35.785082 123.983221 
L 36.525662 122.693843 
L 37.266242 121.115897 
L 38.006822 118.277968 
L 38.747402 115.893025 
L 40.969142 125.143539 
L 41.709722 123.520196 
L 42.450302 122.818964 
L 43.190882 119.633109 
L 43.931462 120.260433 
L 44.672042 122.507961 
L 45.412623 126.794764 
L 46.153203 129.814188 
L 46.893783 124.819617 
L 47.634363 125.947569 
L 48.374943 120.793302 
L 49.115523 121.371408 
L 49.856103 123.56497 
L 50.596683 128.200534 
L 51.337263 125.274311 
L 52.077843 126.116748 
L 53.559003 121.782782 
L 55.040163 124.850073 
L 55.780743 127.095439 
L 56.521324 128.104824 
L 58.002484 128.503859 
L 58.743064 124.618943 
L 59.483644 122.782646 
L 60.224224 123.801147 
L 60.964804 126.466405 
L 61.705384 125.206403 
L 62.445964 126.305642 
L 63.186544 127.142078 
L 63.927124 125.480332 
L 64.667704 119.461768 
L 65.408284 124.615175 
L 66.148864 128.649188 
L 66.889444 129.120347 
L 67.630025 128.43495 
L 68.370605 124.30102 
L 69.111185 123.97865 
L 69.851765 121.981515 
L 70.592345 122.114209 
L 71.332925 128.071538 
L 72.073505 127.004577 
L 72.814085 122.493468 
L 73.554665 121.847167 
L 75.035825 117.945929 
L 75.776405 117.143515 
L 76.516985 121.256931 
L 77.998145 115.223186 
L 78.738725 114.08725 
L 80.219886 109.682036 
L 81.701046 112.689959 
L 82.441626 112.696402 
L 83.182206 108.389466 
L 83.922786 107.705475 
L 84.663366 105.458984 
L 85.403946 104.858693 
L 86.144526 107.692323 
L 86.885106 110.039537 
L 87.625686 108.865053 
L 88.366266 106.029652 
L 89.106846 104.021575 
L 89.847426 103.867321 
L 90.588007 101.102807 
L 91.328587 103.574708 
L 92.069167 104.618485 
L 93.550327 101.934917 
L 94.290907 101.067089 
L 95.031487 98.902055 
L 95.772067 100.280873 
L 96.512647 102.978897 
L 97.253227 103.038752 
L 97.993807 103.867675 
L 98.734387 102.040249 
L 99.474967 100.637925 
L 100.215547 100.556881 
L 100.956127 99.516706 
L 101.696708 101.558725 
L 102.437288 105.97756 
L 103.177868 104.119542 
L 104.659028 101.55682 
L 105.399608 100.879856 
L 106.140188 100.836835 
L 106.880768 104.980012 
L 107.621348 107.360719 
L 108.361928 108.789882 
L 109.102508 106.240494 
L 109.843088 106.171691 
L 111.324248 103.422965 
L 112.064828 105.581108 
L 112.805408 108.349619 
L 113.545989 108.929248 
L 114.286569 106.316675 
L 115.027149 105.953712 
L 115.767729 106.038673 
L 116.508309 104.013729 
L 117.248889 107.382024 
L 117.989469 111.323624 
L 118.730049 113.783253 
L 119.470629 110.779028 
L 120.211209 110.887228 
L 121.692369 108.110795 
L 122.432949 109.917187 
L 123.173529 116.940515 
L 123.914109 112.214339 
L 124.65469 112.865148 
L 125.39527 109.779621 
L 126.13585 109.642942 
L 126.87643 109.204834 
L 127.61701 110.114523 
L 128.35759 116.233511 
L 129.09817 114.377058 
L 129.83875 110.382454 
L 130.57933 116.867829 
L 131.31991 109.281036 
L 132.06049 106.82189 
L 132.80107 111.265318 
L 133.54165 118.530276 
L 134.28223 122.255321 
L 136.503971 113.481324 
L 137.244551 108.752842 
L 137.985131 112.907952 
L 138.725711 116.288144 
L 139.466291 114.145815 
L 140.206871 112.846753 
L 140.947451 112.819189 
L 141.688031 109.783833 
L 142.428611 108.17231 
L 143.909771 114.453341 
L 144.650351 105.691972 
L 145.390931 113.857994 
L 146.131511 111.621666 
L 146.872092 109.833508 
L 147.612672 105.835645 
L 148.353252 111.04461 
L 149.093832 113.910811 
L 149.834412 113.875585 
L 150.574992 110.552616 
L 151.315572 111.363425 
L 152.056152 109.271438 
L 152.796732 106.22822 
L 153.537312 108.658528 
L 154.277892 115.221371 
L 155.018472 102.991806 
L 155.759052 110.961814 
L 156.499632 106.452253 
L 157.240212 105.147121 
L 157.980792 104.198171 
L 159.461953 110.031958 
L 160.202533 108.553585 
L 160.943113 105.908824 
L 162.424273 102.015571 
L 163.164853 100.418578 
L 163.905433 106.554911 
L 164.646013 108.612856 
L 165.386593 101.987356 
L 166.127173 103.619114 
L 166.867753 102.38087 
L 167.608333 99.058713 
L 168.348913 96.366907 
L 169.089493 98.106766 
L 169.830074 103.92903 
L 170.570654 99.198059 
L 171.311234 99.269502 
L 173.532974 93.022068 
L 174.273554 96.639678 
L 175.014134 99.324315 
L 175.754714 94.305003 
L 176.495294 94.666793 
L 177.235874 91.346491 
L 177.976454 88.890142 
L 178.717034 86.973997 
L 179.457614 88.104071 
L 180.198194 92.282276 
L 180.938775 87.356499 
L 181.679355 85.895791 
L 182.419935 85.426313 
L 183.160515 82.547326 
L 183.901095 80.352269 
L 184.641675 83.154414 
L 185.382255 86.599997 
L 186.122835 82.173256 
L 186.863415 82.810742 
L 187.603995 81.457513 
L 188.344575 79.661119 
L 189.085155 78.414582 
L 189.825735 81.500274 
L 190.566315 85.73794 
L 191.306895 80.572276 
L 192.047475 80.781707 
L 192.788056 80.458405 
L 193.528636 92.368383 
L 194.269216 77.682916 
L 195.009796 84.196478 
L 195.750376 86.453658 
L 196.490956 82.034284 
L 197.972116 78.169319 
L 198.712696 76.49102 
L 199.453276 75.203285 
L 200.193856 77.696418 
L 200.934436 81.501755 
L 201.675016 77.818946 
L 202.415596 76.299415 
L 203.156176 76.299222 
L 203.896757 75.774006 
L 204.637337 71.118248 
L 205.377917 77.509189 
L 206.118497 80.036435 
L 206.859077 78.199598 
L 207.599657 77.961491 
L 208.340237 74.004091 
L 209.080817 74.629848 
L 209.821397 73.45992 
L 210.561977 78.949631 
L 211.302557 80.538298 
L 212.043137 78.132873 
L 212.783717 78.120352 
L 213.524297 75.536346 
L 214.264877 78.99277 
L 215.005458 92.797514 
L 215.746038 76.576617 
L 216.486618 84.101299 
L 217.227198 79.491907 
L 217.967778 78.184295 
L 218.708358 75.426195 
L 219.448938 75.234842 
L 220.189518 84.787353 
L 220.930098 70.295406 
L 221.670678 78.105317 
L 222.411258 73.405952 
L 223.151838 74.871493 
L 225.373578 69.638955 
L 226.854739 77.431357 
L 227.595319 75.671517 
L 228.335899 75.331179 
L 229.076479 75.391393 
L 229.817059 74.468703 
L 230.557639 74.439414 
L 232.779379 85.686936 
L 233.519959 79.725008 
L 234.260539 79.890838 
L 235.001119 79.327373 
L 235.741699 79.207131 
L 236.482279 82.001545 
L 237.222859 87.48255 
L 237.96344 83.48464 
L 238.70402 84.304612 
L 239.4446 83.594098 
L 240.18518 82.222718 
L 240.92576 82.42276 
L 241.66634 86.818564 
L 242.40692 90.253276 
L 243.1475 85.578863 
L 243.1475 85.578863 
" style="fill:none;stroke:#bc80bd;stroke-linecap:square;stroke-opacity:0.7;stroke-width:2;"/>
   </g>
   <g id="patch_3">
    <path d="M 243.1475 146.290167 
L 243.1475 61.455 
" style="fill:none;stroke:#000000;stroke-linecap:square;stroke-linejoin:miter;stroke-width:0.6;"/>
   </g>
   <g id="patch_4">
    <path d="M 16.53 146.290167 
L 243.1475 146.290167 
" style="fill:none;stroke:#000000;stroke-linecap:square;stroke-linejoin:miter;stroke-width:0.6;"/>
   </g>
   <g id="text_3">
    <!-- log new cases -->
    <g style="fill:#323034;" transform="translate(154.2775 55.455)scale(0.16 -0.16)">
     <defs>
      <path d="M 1645 0 
L 134 0 
L 134 96 
Q 435 122 531 221 
Q 627 320 627 589 
L 627 3590 
Q 627 3821 569 3910 
Q 512 4000 358 4000 
Q 224 4000 122 3987 
L 122 4090 
Q 730 4237 1133 4371 
L 1165 4346 
L 1165 557 
Q 1165 288 1254 201 
Q 1344 115 1645 96 
L 1645 0 
z
" id="STIXGeneral-Regular-6c" transform="scale(0.015625)"/>
      <path d="M 3008 1478 
Q 3008 806 2608 371 
Q 2208 -64 1568 -64 
Q 979 -64 582 368 
Q 186 800 186 1459 
Q 186 2125 582 2534 
Q 979 2944 1626 2944 
Q 2221 2944 2614 2537 
Q 3008 2131 3008 1478 
z
M 2432 1306 
Q 2432 2035 2112 2445 
Q 1856 2765 1504 2765 
Q 1171 2765 966 2493 
Q 762 2221 762 1747 
Q 762 928 1101 435 
Q 1318 115 1677 115 
Q 2029 115 2230 432 
Q 2432 749 2432 1306 
z
" id="STIXGeneral-Regular-6f" transform="scale(0.015625)"/>
      <path d="M 3008 2483 
L 2477 2483 
Q 2598 2208 2598 1946 
Q 2598 1453 2265 1203 
Q 1933 954 1600 954 
Q 1530 954 1357 973 
L 1235 986 
Q 1107 947 979 812 
Q 851 678 851 582 
Q 851 435 1350 410 
L 2176 371 
Q 2528 358 2739 172 
Q 2950 -13 2950 -314 
Q 2950 -685 2566 -986 
Q 2035 -1395 1286 -1395 
Q 826 -1395 502 -1212 
Q 179 -1030 179 -774 
Q 179 -595 320 -419 
Q 461 -243 806 6 
Q 602 102 534 172 
Q 467 243 467 346 
Q 467 531 762 787 
Q 909 915 1037 1043 
Q 717 1203 579 1401 
Q 442 1600 442 1901 
Q 442 2336 752 2640 
Q 1062 2944 1510 2944 
Q 1766 2944 2022 2848 
L 2163 2797 
Q 2349 2733 2515 2733 
L 3008 2733 
L 3008 2483 
z
M 973 2163 
L 973 2144 
Q 973 1683 1155 1398 
Q 1338 1114 1632 1114 
Q 1850 1114 1978 1270 
Q 2106 1427 2106 1690 
Q 2106 2112 1914 2464 
Q 1754 2765 1446 2765 
Q 1222 2765 1097 2605 
Q 973 2445 973 2163 
z
M 2771 -410 
Q 2771 -230 2595 -163 
Q 2419 -96 1978 -96 
Q 1344 -96 941 -13 
Q 749 -243 688 -348 
Q 627 -454 627 -563 
Q 627 -774 880 -902 
Q 1133 -1030 1555 -1030 
Q 2099 -1030 2435 -860 
Q 2771 -691 2771 -410 
z
" id="STIXGeneral-Regular-67" transform="scale(0.015625)"/>
      <path id="STIXGeneral-Regular-20" transform="scale(0.015625)"/>
      <path d="M 3104 0 
L 1773 0 
L 1779 96 
Q 2016 115 2096 233 
Q 2176 352 2176 672 
L 2176 1946 
Q 2176 2592 1709 2592 
Q 1549 2592 1408 2515 
Q 1267 2438 1050 2227 
L 1050 461 
Q 1050 269 1136 192 
Q 1222 115 1466 96 
L 1466 0 
L 115 0 
L 115 96 
Q 358 115 435 214 
Q 512 314 512 602 
L 512 2157 
Q 512 2394 467 2483 
Q 422 2573 288 2573 
Q 160 2573 102 2547 
L 102 2656 
Q 550 2784 979 2944 
L 1030 2925 
L 1030 2426 
L 1037 2426 
Q 1491 2944 1958 2944 
Q 2323 2944 2518 2688 
Q 2714 2432 2714 1958 
L 2714 544 
Q 2714 288 2790 205 
Q 2867 122 3104 96 
L 3104 0 
z
" id="STIXGeneral-Regular-6e" transform="scale(0.015625)"/>
      <path d="M 2611 1050 
L 2714 1005 
Q 2330 -64 1376 -64 
Q 813 -64 486 329 
Q 160 723 160 1389 
Q 160 2074 525 2509 
Q 890 2944 1485 2944 
Q 2061 2944 2374 2502 
Q 2560 2246 2592 1773 
L 621 1773 
Q 646 1370 700 1158 
Q 755 947 915 730 
Q 1184 378 1626 378 
Q 1939 378 2153 531 
Q 2368 685 2611 1050 
z
M 634 1978 
L 1939 1978 
Q 1882 2381 1750 2547 
Q 1619 2714 1312 2714 
Q 1043 2714 864 2525 
Q 685 2336 634 1978 
z
" id="STIXGeneral-Regular-65" transform="scale(0.015625)"/>
      <path d="M 4442 2880 
L 4442 2784 
Q 4346 2752 4301 2691 
Q 4256 2630 4179 2438 
L 3296 224 
Q 3168 -90 3117 -90 
Q 3085 -90 3062 -48 
Q 3040 -6 2963 186 
L 2381 1696 
L 1664 160 
Q 1549 -90 1504 -90 
Q 1446 -90 1338 192 
L 474 2381 
Q 378 2630 314 2700 
Q 250 2771 134 2784 
L 134 2880 
L 1286 2880 
L 1286 2784 
Q 1120 2765 1056 2720 
Q 992 2675 992 2573 
Q 992 2477 1030 2381 
L 1664 710 
L 2246 1984 
L 2118 2342 
Q 2029 2598 1942 2681 
Q 1856 2765 1677 2784 
L 1677 2880 
L 2976 2880 
L 2976 2784 
Q 2752 2752 2678 2707 
Q 2605 2662 2605 2560 
Q 2605 2458 2714 2176 
L 3251 742 
L 3827 2163 
Q 3936 2432 3936 2592 
Q 3936 2669 3875 2710 
Q 3814 2752 3654 2784 
L 3654 2880 
L 4442 2880 
z
" id="STIXGeneral-Regular-77" transform="scale(0.015625)"/>
      <path d="M 2547 998 
L 2637 941 
Q 2362 403 2112 205 
Q 1786 -64 1376 -64 
Q 845 -64 502 336 
Q 160 736 160 1357 
Q 160 2170 698 2618 
Q 1094 2944 1562 2944 
Q 1965 2944 2256 2749 
Q 2547 2554 2547 2285 
Q 2547 2176 2457 2096 
Q 2368 2016 2246 2016 
Q 2022 2016 1939 2310 
L 1901 2451 
Q 1850 2630 1773 2694 
Q 1696 2758 1523 2758 
Q 1133 2758 893 2451 
Q 653 2144 653 1645 
Q 653 1094 928 745 
Q 1203 397 1645 397 
Q 1920 397 2118 528 
Q 2317 659 2547 998 
z
" id="STIXGeneral-Regular-63" transform="scale(0.015625)"/>
      <path d="M 2829 422 
L 2829 243 
Q 2586 -64 2253 -64 
Q 1888 -64 1843 403 
L 1837 403 
Q 1427 -64 909 -64 
Q 608 -64 422 112 
Q 237 288 237 602 
Q 237 1050 685 1350 
Q 992 1555 1837 1869 
L 1837 2214 
Q 1837 2502 1699 2646 
Q 1562 2790 1338 2790 
Q 1146 2790 1018 2697 
Q 890 2605 890 2477 
Q 890 2419 909 2348 
Q 928 2278 928 2208 
Q 928 2112 841 2029 
Q 755 1946 634 1946 
Q 525 1946 441 2029 
Q 358 2112 358 2240 
Q 358 2547 685 2752 
Q 986 2944 1421 2944 
Q 1939 2944 2176 2656 
Q 2291 2522 2323 2384 
Q 2355 2246 2355 1946 
L 2355 723 
Q 2355 301 2554 301 
Q 2682 301 2829 422 
z
M 1837 813 
L 1837 1715 
Q 1248 1510 1018 1293 
Q 800 1094 800 800 
Q 800 557 921 432 
Q 1043 307 1242 307 
Q 1453 307 1613 410 
Q 1747 506 1792 589 
Q 1837 672 1837 813 
z
" id="STIXGeneral-Regular-61" transform="scale(0.015625)"/>
      <path d="M 998 1926 
L 1664 1523 
Q 1984 1331 2105 1164 
Q 2227 998 2227 736 
Q 2227 416 1961 176 
Q 1696 -64 1331 -64 
Q 1030 -64 864 -6 
Q 691 51 570 51 
Q 461 51 416 -26 
L 333 -26 
L 333 979 
L 435 979 
Q 538 512 730 294 
Q 922 77 1248 77 
Q 1485 77 1632 211 
Q 1779 346 1779 550 
Q 1779 845 1440 1030 
L 1094 1222 
Q 326 1651 326 2150 
Q 326 2522 566 2730 
Q 806 2938 1210 2938 
Q 1491 2938 1638 2867 
Q 1754 2816 1818 2816 
Q 1862 2816 1920 2880 
L 1990 2880 
L 2022 2010 
L 1926 2010 
Q 1818 2445 1654 2621 
Q 1491 2797 1203 2797 
Q 986 2797 854 2688 
Q 723 2579 723 2362 
Q 723 2253 796 2128 
Q 870 2003 998 1926 
z
" id="STIXGeneral-Regular-73" transform="scale(0.015625)"/>
     </defs>
     <use xlink:href="#STIXGeneral-Regular-6c"/>
     <use x="27.799988" xlink:href="#STIXGeneral-Regular-6f"/>
     <use x="77.799973" xlink:href="#STIXGeneral-Regular-67"/>
     <use x="127.799957" xlink:href="#STIXGeneral-Regular-20"/>
     <use x="152.799942" xlink:href="#STIXGeneral-Regular-6e"/>
     <use x="202.799927" xlink:href="#STIXGeneral-Regular-65"/>
     <use x="247.199921" xlink:href="#STIXGeneral-Regular-77"/>
     <use x="319.399902" xlink:href="#STIXGeneral-Regular-20"/>
     <use x="344.399887" xlink:href="#STIXGeneral-Regular-63"/>
     <use x="388.799881" xlink:href="#STIXGeneral-Regular-61"/>
     <use x="433.199875" xlink:href="#STIXGeneral-Regular-73"/>
     <use x="472.099869" xlink:href="#STIXGeneral-Regular-65"/>
     <use x="516.499863" xlink:href="#STIXGeneral-Regular-73"/>
    </g>
   </g>
   <g id="legend_1">
    <g id="patch_5">
     <path d="M 23.53 92.805 
L 84.859688 92.805 
Q 86.859688 92.805 86.859688 90.805 
L 86.859688 68.455 
Q 86.859688 66.455 84.859688 66.455 
L 23.53 66.455 
Q 21.53 66.455 21.53 68.455 
L 21.53 90.805 
Q 21.53 92.805 23.53 92.805 
z
" style="fill:#ffffff;opacity:0.8;stroke:#e6e6e6;stroke-linejoin:miter;stroke-width:0.8;"/>
    </g>
    <g id="line2d_18">
     <path d="M 23.53 71.955 
L 43.53 71.955 
" style="fill:none;stroke:#000000;stroke-dasharray:3.7,1.6;stroke-dashoffset:0;"/>
    </g>
    <g id="line2d_19"/>
    <g id="text_4">
     <!-- Trend -->
     <g style="fill:#323034;" transform="translate(51.53 75.455)scale(0.1 -0.1)">
      <defs>
       <path d="M 3795 3149 
L 3642 3149 
Q 3539 3674 3353 3821 
Q 3168 3968 2656 3968 
L 2278 3968 
L 2278 710 
Q 2278 346 2387 243 
Q 2496 141 2893 122 
L 2893 0 
L 1024 0 
L 1024 122 
Q 1427 147 1526 256 
Q 1626 365 1626 787 
L 1626 3968 
L 1242 3968 
Q 723 3968 540 3817 
Q 358 3667 262 3149 
L 109 3149 
L 154 4237 
L 3750 4237 
L 3795 3149 
z
" id="STIXGeneral-Regular-54" transform="scale(0.015625)"/>
       <path d="M 1024 2931 
L 1024 2342 
Q 1267 2688 1430 2816 
Q 1594 2944 1792 2944 
Q 1958 2944 2051 2854 
Q 2144 2765 2144 2605 
Q 2144 2470 2077 2393 
Q 2010 2317 1894 2317 
Q 1773 2317 1638 2445 
Q 1536 2541 1472 2541 
Q 1338 2541 1181 2355 
Q 1024 2170 1024 2016 
L 1024 576 
Q 1024 301 1133 205 
Q 1242 109 1568 96 
L 1568 0 
L 32 0 
L 32 96 
Q 339 154 412 224 
Q 486 294 486 538 
L 486 2138 
Q 486 2349 438 2435 
Q 390 2522 269 2522 
Q 166 2522 45 2496 
L 45 2598 
Q 448 2726 992 2944 
L 1024 2931 
z
" id="STIXGeneral-Regular-72" transform="scale(0.015625)"/>
       <path d="M 3142 269 
L 2202 -64 
L 2176 -45 
L 2176 365 
Q 1869 -64 1357 -64 
Q 826 -64 499 317 
Q 173 698 173 1312 
Q 173 1990 563 2467 
Q 954 2944 1504 2944 
Q 1850 2944 2176 2669 
L 2176 3667 
Q 2176 3866 2118 3930 
Q 2061 3994 1882 3994 
Q 1792 3994 1741 3987 
L 1741 4090 
Q 2323 4243 2682 4371 
L 2714 4358 
L 2714 730 
Q 2714 506 2768 435 
Q 2822 365 2995 365 
Q 3034 365 3142 371 
L 3142 269 
z
M 2176 653 
L 2176 2125 
Q 2176 2381 1981 2573 
Q 1786 2765 1523 2765 
Q 1158 2765 940 2438 
Q 723 2112 723 1568 
Q 723 979 963 624 
Q 1203 269 1606 269 
Q 1907 269 2080 474 
Q 2176 582 2176 653 
z
" id="STIXGeneral-Regular-64" transform="scale(0.015625)"/>
      </defs>
      <use xlink:href="#STIXGeneral-Regular-54"/>
      <use x="61.099991" xlink:href="#STIXGeneral-Regular-72"/>
      <use x="94.399979" xlink:href="#STIXGeneral-Regular-65"/>
      <use x="138.799973" xlink:href="#STIXGeneral-Regular-6e"/>
      <use x="188.799957" xlink:href="#STIXGeneral-Regular-64"/>
     </g>
    </g>
    <g id="line2d_20">
     <path d="M 23.53 85.125313 
L 43.53 85.125313 
" style="fill:none;stroke:#bc80bd;stroke-linecap:square;stroke-opacity:0.7;stroke-width:2;"/>
    </g>
    <g id="line2d_21"/>
    <g id="text_5">
     <!-- Original -->
     <g style="fill:#323034;" transform="translate(51.53 88.625313)scale(0.1 -0.1)">
      <defs>
       <path d="M 4403 2118 
Q 4403 1133 3820 521 
Q 3238 -90 2310 -90 
Q 1376 -90 797 524 
Q 218 1139 218 2138 
Q 218 3110 797 3718 
Q 1376 4326 2310 4326 
Q 3245 4326 3824 3702 
Q 4403 3078 4403 2118 
z
M 3674 2157 
Q 3674 2701 3520 3133 
Q 3366 3565 3091 3795 
Q 2733 4096 2304 4096 
Q 1760 4096 1389 3667 
Q 1184 3437 1065 3011 
Q 947 2586 947 2125 
Q 947 960 1523 429 
Q 1837 141 2317 141 
Q 2816 141 3142 448 
Q 3674 960 3674 2157 
z
" id="STIXGeneral-Regular-4f" transform="scale(0.015625)"/>
       <path d="M 1152 4045 
Q 1152 3904 1056 3811 
Q 960 3718 819 3718 
Q 685 3718 592 3811 
Q 499 3904 499 4045 
Q 499 4179 595 4275 
Q 691 4371 826 4371 
Q 966 4371 1059 4275 
Q 1152 4179 1152 4045 
z
M 1619 0 
L 102 0 
L 102 96 
Q 435 115 521 211 
Q 608 307 608 666 
L 608 2118 
Q 608 2342 563 2432 
Q 518 2522 397 2522 
Q 243 2522 128 2490 
L 128 2592 
L 1120 2944 
L 1146 2918 
L 1146 672 
Q 1146 314 1226 218 
Q 1306 122 1619 96 
L 1619 0 
z
" id="STIXGeneral-Regular-69" transform="scale(0.015625)"/>
      </defs>
      <use xlink:href="#STIXGeneral-Regular-4f"/>
      <use x="72.199982" xlink:href="#STIXGeneral-Regular-72"/>
      <use x="105.499969" xlink:href="#STIXGeneral-Regular-69"/>
      <use x="133.299957" xlink:href="#STIXGeneral-Regular-67"/>
      <use x="183.299942" xlink:href="#STIXGeneral-Regular-69"/>
      <use x="211.09993" xlink:href="#STIXGeneral-Regular-6e"/>
      <use x="261.099915" xlink:href="#STIXGeneral-Regular-61"/>
      <use x="305.499908" xlink:href="#STIXGeneral-Regular-6c"/>
     </g>
    </g>
   </g>
  </g>
  <g id="axes_2">
   <g id="patch_6">
    <path d="M 16.53 253.452833 
L 243.1475 253.452833 
L 243.1475 168.617667 
L 16.53 168.617667 
z
" style="fill:#ffffff;"/>
   </g>
   <g id="matplotlib.axis_3">
    <g id="xtick_12">
     <g id="line2d_22">
      <g>
       <use style="fill:#323034;stroke:#323034;stroke-width:0.8;" x="16.53" xlink:href="#mfcbb0ffd8d" y="253.452833"/>
      </g>
     </g>
    </g>
    <g id="xtick_13">
     <g id="line2d_23">
      <g>
       <use style="fill:#323034;stroke:#323034;stroke-width:0.8;" x="38.747402" xlink:href="#mfcbb0ffd8d" y="253.452833"/>
      </g>
     </g>
    </g>
    <g id="xtick_14">
     <g id="line2d_24">
      <g>
       <use style="fill:#323034;stroke:#323034;stroke-width:0.8;" x="61.705384" xlink:href="#mfcbb0ffd8d" y="253.452833"/>
      </g>
     </g>
    </g>
    <g id="xtick_15">
     <g id="line2d_25">
      <g>
       <use style="fill:#323034;stroke:#323034;stroke-width:0.8;" x="83.922786" xlink:href="#mfcbb0ffd8d" y="253.452833"/>
      </g>
     </g>
    </g>
    <g id="xtick_16">
     <g id="line2d_26">
      <g>
       <use style="fill:#323034;stroke:#323034;stroke-width:0.8;" x="106.880768" xlink:href="#mfcbb0ffd8d" y="253.452833"/>
      </g>
     </g>
    </g>
    <g id="xtick_17">
     <g id="line2d_27">
      <g>
       <use style="fill:#323034;stroke:#323034;stroke-width:0.8;" x="129.83875" xlink:href="#mfcbb0ffd8d" y="253.452833"/>
      </g>
     </g>
    </g>
    <g id="xtick_18">
     <g id="line2d_28">
      <g>
       <use style="fill:#323034;stroke:#323034;stroke-width:0.8;" x="152.056152" xlink:href="#mfcbb0ffd8d" y="253.452833"/>
      </g>
     </g>
    </g>
    <g id="xtick_19">
     <g id="line2d_29">
      <g>
       <use style="fill:#323034;stroke:#323034;stroke-width:0.8;" x="175.014134" xlink:href="#mfcbb0ffd8d" y="253.452833"/>
      </g>
     </g>
    </g>
    <g id="xtick_20">
     <g id="line2d_30">
      <g>
       <use style="fill:#323034;stroke:#323034;stroke-width:0.8;" x="197.231536" xlink:href="#mfcbb0ffd8d" y="253.452833"/>
      </g>
     </g>
    </g>
    <g id="xtick_21">
     <g id="line2d_31">
      <g>
       <use style="fill:#323034;stroke:#323034;stroke-width:0.8;" x="220.189518" xlink:href="#mfcbb0ffd8d" y="253.452833"/>
      </g>
     </g>
    </g>
    <g id="xtick_22">
     <g id="line2d_32">
      <g>
       <use style="fill:#323034;stroke:#323034;stroke-width:0.8;" x="243.1475" xlink:href="#mfcbb0ffd8d" y="253.452833"/>
      </g>
     </g>
    </g>
   </g>
   <g id="matplotlib.axis_4">
    <g id="ytick_5">
     <g id="line2d_33">
      <g>
       <use style="fill:#323034;stroke:#323034;stroke-width:0.8;" x="243.1475" xlink:href="#mc624f414ae" y="253.452833"/>
      </g>
     </g>
     <g id="text_6">
      <!-- $\mathdefault{−0.5}$ -->
      <g style="fill:#323034;" transform="translate(250.1475 257.550646)scale(0.12 -0.12)">
       <defs>
        <path d="M 3974 1408 
L 410 1408 
L 410 1830 
L 3974 1830 
L 3974 1408 
z
" id="STIXGeneral-Regular-2212" transform="scale(0.015625)"/>
        <path d="M 1158 275 
Q 1158 134 1052 32 
Q 947 -70 800 -70 
Q 653 -70 550 32 
Q 448 134 448 281 
Q 448 429 553 534 
Q 659 640 806 640 
Q 947 640 1052 531 
Q 1158 422 1158 275 
z
" id="STIXGeneral-Regular-2e" transform="scale(0.015625)"/>
        <path d="M 2803 4358 
L 2573 3814 
Q 2534 3731 2400 3731 
L 1158 3731 
L 902 3187 
Q 1606 3053 1920 2896 
Q 2234 2739 2502 2368 
Q 2726 2061 2726 1555 
Q 2726 1094 2576 780 
Q 2426 467 2099 224 
Q 1664 -90 1011 -90 
Q 646 -90 422 19 
Q 198 128 198 307 
Q 198 550 486 550 
Q 717 550 960 352 
Q 1210 147 1414 147 
Q 1747 147 2012 480 
Q 2278 813 2278 1229 
Q 2278 1843 1850 2189 
Q 1293 2637 486 2637 
Q 410 2637 410 2688 
L 416 2720 
L 1114 4237 
L 2438 4237 
Q 2547 4237 2608 4269 
Q 2669 4301 2746 4403 
L 2803 4358 
z
" id="STIXGeneral-Regular-35" transform="scale(0.015625)"/>
       </defs>
       <use transform="translate(0 0.203125)" xlink:href="#STIXGeneral-Regular-2212"/>
       <use transform="translate(68.499985 0.203125)" xlink:href="#STIXGeneral-Regular-30"/>
       <use transform="translate(118.499969 0.203125)" xlink:href="#STIXGeneral-Regular-2e"/>
       <use transform="translate(143.499954 0.203125)" xlink:href="#STIXGeneral-Regular-35"/>
      </g>
     </g>
    </g>
    <g id="ytick_6">
     <g id="line2d_34">
      <g>
       <use style="fill:#323034;stroke:#323034;stroke-width:0.8;" x="243.1475" xlink:href="#mc624f414ae" y="211.03525"/>
      </g>
     </g>
     <g id="text_7">
      <!-- $\mathdefault{0.0}$ -->
      <g style="fill:#323034;" transform="translate(250.1475 215.133062)scale(0.12 -0.12)">
       <use transform="translate(0 0.40625)" xlink:href="#STIXGeneral-Regular-30"/>
       <use transform="translate(49.999985 0.40625)" xlink:href="#STIXGeneral-Regular-2e"/>
       <use transform="translate(74.999969 0.40625)" xlink:href="#STIXGeneral-Regular-30"/>
      </g>
     </g>
    </g>
    <g id="ytick_7">
     <g id="line2d_35">
      <g>
       <use style="fill:#323034;stroke:#323034;stroke-width:0.8;" x="243.1475" xlink:href="#mc624f414ae" y="168.617667"/>
      </g>
     </g>
     <g id="text_8">
      <!-- $\mathdefault{0.5}$ -->
      <g style="fill:#323034;" transform="translate(250.1475 172.715479)scale(0.12 -0.12)">
       <use transform="translate(0 0.203125)" xlink:href="#STIXGeneral-Regular-30"/>
       <use transform="translate(49.999985 0.203125)" xlink:href="#STIXGeneral-Regular-2e"/>
       <use transform="translate(74.999969 0.203125)" xlink:href="#STIXGeneral-Regular-35"/>
      </g>
     </g>
    </g>
    <g id="ytick_8">
     <g id="line2d_36">
      <g>
       <use style="fill:#323034;stroke:#323034;stroke-width:0.6;" x="243.1475" xlink:href="#m104a71c464" y="232.244042"/>
      </g>
     </g>
    </g>
    <g id="ytick_9">
     <g id="line2d_37">
      <g>
       <use style="fill:#323034;stroke:#323034;stroke-width:0.6;" x="243.1475" xlink:href="#m104a71c464" y="189.826458"/>
      </g>
     </g>
    </g>
   </g>
   <g id="line2d_38">
    <path clip-path="url(#pe413018762)" d="M 16.53 212.961176 
L 17.27058 207.360138 
L 18.01116 205.226994 
L 18.75174 203.599838 
L 19.49232 224.145908 
L 20.2329 211.544478 
L 20.97348 215.669916 
L 21.71406 212.160903 
L 22.454641 204.947964 
L 23.195221 202.763767 
L 23.935801 205.139939 
L 24.676381 221.960824 
L 25.416961 215.763899 
L 26.157541 217.404871 
L 26.898121 211.606132 
L 27.638701 202.729169 
L 28.379281 200.349073 
L 29.119861 206.279368 
L 29.860441 219.938671 
L 30.601021 219.965631 
L 31.341601 218.743319 
L 32.082181 211.300527 
L 32.822761 200.794308 
L 33.563342 197.914412 
L 34.303922 207.10028 
L 35.044502 218.371189 
L 35.785082 223.395064 
L 36.525662 219.391739 
L 37.266242 212.887858 
L 38.006822 199.605713 
L 38.747402 196.551259 
L 39.487982 206.24981 
L 40.228562 219.590592 
L 40.969142 223.092502 
L 41.709722 217.940841 
L 42.450302 215.02581 
L 43.190882 198.871727 
L 43.931462 196.988789 
L 44.672042 205.931549 
L 45.412623 220.439616 
L 46.153203 220.903648 
L 46.893783 216.627402 
L 47.634363 216.666936 
L 48.374943 198.70658 
L 49.115523 199.308888 
L 49.856103 206.477833 
L 50.596683 220.359631 
L 52.077843 215.917311 
L 52.818423 217.561324 
L 53.559003 200.498578 
L 54.299583 199.862171 
L 55.040163 205.865484 
L 55.780743 218.914834 
L 56.521324 217.843968 
L 57.261904 215.31499 
L 58.002484 217.07935 
L 58.743064 203.150731 
L 59.483644 199.767752 
L 60.224224 204.597544 
L 60.964804 218.324883 
L 61.705384 220.843192 
L 62.445964 213.853203 
L 63.186544 214.664831 
L 63.927124 205.521892 
L 64.667704 199.813239 
L 65.408284 203.369182 
L 66.148864 220.270466 
L 66.889444 222.701715 
L 67.630025 211.918154 
L 68.370605 211.660583 
L 69.111185 206.480811 
L 69.851765 200.218796 
L 70.592345 203.863466 
L 71.332925 222.607061 
L 72.073505 222.909864 
L 72.814085 210.381328 
L 73.554665 209.650421 
L 74.295245 205.662143 
L 75.035825 200.932067 
L 75.776405 205.98346 
L 76.516985 223.503728 
L 77.257565 222.088695 
L 77.998145 209.815804 
L 78.738725 208.883602 
L 80.219886 200.796014 
L 80.960466 208.804521 
L 81.701046 222.919766 
L 82.441626 220.910986 
L 83.182206 210.160104 
L 83.922786 208.300859 
L 85.403946 200.962409 
L 86.885106 221.083419 
L 87.625686 220.044352 
L 88.366266 210.652461 
L 89.106846 207.622668 
L 89.847426 203.91944 
L 90.588007 201.65464 
L 91.328587 213.141814 
L 92.069167 220.38599 
L 92.809747 219.397062 
L 93.550327 211.374434 
L 94.290907 207.022626 
L 95.031487 204.122699 
L 95.772067 201.838554 
L 96.512647 212.970691 
L 97.253227 220.690878 
L 97.993807 219.069957 
L 98.734387 211.806823 
L 99.474967 207.161337 
L 100.215547 203.638199 
L 100.956127 201.53671 
L 101.696708 212.422597 
L 102.437288 220.649093 
L 103.177868 220.288404 
L 103.918448 211.92194 
L 105.399608 203.990296 
L 106.140188 200.185319 
L 107.621348 221.187519 
L 108.361928 221.928705 
L 109.102508 211.889554 
L 110.583668 204.420421 
L 111.324248 198.447887 
L 112.064828 208.821054 
L 112.805408 221.389688 
L 113.545989 224.06622 
L 114.286569 212.088815 
L 115.027149 209.701096 
L 115.767729 204.221701 
L 116.508309 197.666116 
L 117.248889 206.512228 
L 117.989469 223.347843 
L 118.730049 224.003178 
L 119.470629 211.831453 
L 120.211209 210.726655 
L 121.692369 196.644042 
L 122.432949 204.904915 
L 123.173529 226.223541 
L 123.914109 223.238068 
L 124.65469 210.336046 
L 125.39527 215.493517 
L 126.13585 201.392318 
L 126.87643 194.924757 
L 127.61701 204.869171 
L 128.35759 228.030082 
L 129.09817 221.43208 
L 129.83875 210.156763 
L 130.57933 217.688163 
L 131.31991 200.682662 
L 132.06049 193.949627 
L 132.80107 206.135197 
L 133.54165 226.914782 
L 135.02281 210.615506 
L 135.763391 222.167415 
L 136.503971 200.94168 
L 137.244551 192.626486 
L 138.725711 225.087544 
L 140.206871 212.554417 
L 140.947451 216.596886 
L 141.688031 202.569035 
L 142.428611 192.745043 
L 143.909771 223.628553 
L 144.650351 219.850215 
L 145.390931 214.482495 
L 146.131511 212.820798 
L 147.612672 193.619209 
L 149.093832 224.056439 
L 149.834412 221.27364 
L 152.056152 202.940152 
L 152.796732 194.362862 
L 154.277892 225.633519 
L 155.018472 221.471338 
L 157.980792 195.471511 
L 158.721373 208.008541 
L 159.461953 228.148295 
L 160.202533 218.9782 
L 160.943113 215.452105 
L 162.424273 201.998164 
L 163.164853 196.396602 
L 163.905433 207.31911 
L 164.646013 229.460055 
L 165.386593 216.746373 
L 166.127173 215.871541 
L 168.348913 196.937426 
L 169.089493 207.221082 
L 169.830074 229.990499 
L 170.570654 214.167077 
L 171.311234 216.00004 
L 172.051814 210.413085 
L 172.792394 203.203939 
L 173.532974 197.563715 
L 174.273554 207.014673 
L 175.014134 229.603504 
L 175.754714 212.869995 
L 176.495294 215.298253 
L 177.235874 210.58597 
L 177.976454 203.517126 
L 178.717034 198.296335 
L 179.457614 208.981326 
L 180.198194 228.801705 
L 180.938775 212.057921 
L 181.679355 214.241521 
L 182.419935 210.248224 
L 183.160515 203.437139 
L 183.901095 198.790075 
L 184.641675 210.56456 
L 185.382255 229.125238 
L 186.122835 211.888457 
L 186.863415 212.751863 
L 187.603995 209.9076 
L 188.344575 203.188408 
L 189.085155 198.823415 
L 189.825735 211.291622 
L 190.566315 229.69115 
L 191.306895 212.770964 
L 192.047475 211.873784 
L 192.788056 209.055403 
L 194.269216 197.979284 
L 195.009796 212.068141 
L 195.750376 229.495559 
L 196.490956 214.143509 
L 197.231536 211.971362 
L 198.712696 204.22082 
L 199.453276 195.453185 
L 200.934436 228.921464 
L 201.675016 216.308499 
L 202.415596 213.579686 
L 203.156176 207.072011 
L 203.896757 205.130536 
L 204.637337 190.895499 
L 205.377917 214.700068 
L 206.118497 227.958799 
L 206.859077 218.262851 
L 207.599657 215.998312 
L 208.340237 207.615966 
L 209.080817 207.020859 
L 209.821397 181.026768 
L 210.561977 215.307799 
L 211.302557 227.160626 
L 212.043137 219.995508 
L 212.783717 216.984479 
L 213.524297 206.715235 
L 214.264877 205.818769 
L 215.005458 191.904909 
L 215.746038 212.97043 
L 216.486618 225.7028 
L 217.227198 219.163605 
L 217.967778 216.534164 
L 218.708358 207.825923 
L 219.448938 205.623694 
L 220.189518 188.953489 
L 220.930098 212.1322 
L 221.670678 225.599647 
L 222.411258 218.368833 
L 223.151838 215.12777 
L 223.892418 208.957029 
L 224.632998 205.081505 
L 225.373578 195.654585 
L 226.854739 224.97891 
L 227.595319 216.197447 
L 228.335899 213.832487 
L 229.817059 204.012313 
L 230.557639 198.768794 
L 232.038799 226.364432 
L 232.779379 213.573296 
L 233.519959 212.700188 
L 234.260539 209.25966 
L 235.001119 203.023733 
L 235.741699 200.445815 
L 237.222859 227.685469 
L 237.96344 210.953276 
L 238.70402 211.704135 
L 239.4446 209.344519 
L 240.18518 202.162273 
L 240.92576 201.902205 
L 242.40692 229.071226 
L 243.1475 208.361086 
L 243.1475 208.361086 
" style="fill:none;stroke:#0000ff;stroke-linecap:square;stroke-opacity:0.3;stroke-width:2;"/>
   </g>
   <g id="patch_7">
    <path d="M 243.1475 253.452833 
L 243.1475 168.617667 
" style="fill:none;stroke:#000000;stroke-linecap:square;stroke-linejoin:miter;stroke-width:0.6;"/>
   </g>
   <g id="patch_8">
    <path d="M 16.53 253.452833 
L 243.1475 253.452833 
" style="fill:none;stroke:#000000;stroke-linecap:square;stroke-linejoin:miter;stroke-width:0.6;"/>
   </g>
   <g id="legend_2">
    <g id="patch_9">
     <path d="M 23.53 186.787979 
L 87.081563 186.787979 
Q 89.081563 186.787979 89.081563 184.787979 
L 89.081563 175.617667 
Q 89.081563 173.617667 87.081563 173.617667 
L 23.53 173.617667 
Q 21.53 173.617667 21.53 175.617667 
L 21.53 184.787979 
Q 21.53 186.787979 23.53 186.787979 
z
" style="fill:#ffffff;opacity:0.8;stroke:#e6e6e6;stroke-linejoin:miter;stroke-width:0.8;"/>
    </g>
    <g id="line2d_39">
     <path d="M 23.53 179.117667 
L 43.53 179.117667 
" style="fill:none;stroke:#0000ff;stroke-linecap:square;stroke-opacity:0.3;stroke-width:2;"/>
    </g>
    <g id="line2d_40"/>
    <g id="text_9">
     <!-- Seasonal -->
     <g style="fill:#323034;" transform="translate(51.53 182.617667)scale(0.1 -0.1)">
      <defs>
       <path d="M 3002 2963 
L 2842 2963 
Q 2733 3360 2579 3565 
Q 2189 4064 1651 4064 
Q 1357 4064 1181 3894 
Q 1005 3725 1005 3456 
Q 1005 3328 1069 3206 
Q 1133 3085 1206 2998 
Q 1280 2912 1465 2784 
Q 1651 2656 1766 2589 
Q 1882 2522 2150 2362 
Q 2669 2061 2905 1763 
Q 3142 1466 3142 1107 
Q 3142 576 2771 243 
Q 2400 -90 1837 -90 
Q 1421 -90 1082 58 
Q 915 128 781 128 
Q 704 128 653 70 
Q 602 13 602 -83 
L 461 -83 
L 275 1274 
L 416 1274 
Q 845 141 1734 141 
Q 2074 141 2285 342 
Q 2496 544 2496 858 
Q 2496 1158 2310 1363 
Q 2003 1696 1235 2106 
Q 454 2522 454 3206 
Q 454 3718 768 4022 
Q 1082 4326 1568 4326 
Q 1907 4326 2240 4186 
Q 2413 4109 2522 4109 
Q 2688 4109 2726 4326 
L 2861 4326 
L 3002 2963 
z
" id="STIXGeneral-Regular-53" transform="scale(0.015625)"/>
      </defs>
      <use xlink:href="#STIXGeneral-Regular-53"/>
      <use x="55.599991" xlink:href="#STIXGeneral-Regular-65"/>
      <use x="99.999985" xlink:href="#STIXGeneral-Regular-61"/>
      <use x="144.399979" xlink:href="#STIXGeneral-Regular-73"/>
      <use x="183.299973" xlink:href="#STIXGeneral-Regular-6f"/>
      <use x="233.299957" xlink:href="#STIXGeneral-Regular-6e"/>
      <use x="283.299942" xlink:href="#STIXGeneral-Regular-61"/>
      <use x="327.699936" xlink:href="#STIXGeneral-Regular-6c"/>
     </g>
    </g>
   </g>
  </g>
  <g id="axes_3">
   <g id="patch_10">
    <path d="M 16.53 360.6155 
L 243.1475 360.6155 
L 243.1475 275.780333 
L 16.53 275.780333 
z
" style="fill:#ffffff;"/>
   </g>
   <g id="matplotlib.axis_5">
    <g id="xtick_23">
     <g id="line2d_41">
      <g>
       <use style="fill:#323034;stroke:#323034;stroke-width:0.8;" x="16.53" xlink:href="#mfcbb0ffd8d" y="360.6155"/>
      </g>
     </g>
     <g id="text_10">
      <!-- Apr -->
      <g style="fill:#323034;" transform="translate(7.2 375.811125)scale(0.12 -0.12)">
       <defs>
        <path d="M 4525 0 
L 2893 0 
L 2893 122 
Q 3149 122 3245 179 
Q 3334 224 3334 333 
Q 3334 499 3213 781 
L 2950 1382 
L 1274 1382 
L 979 653 
Q 922 506 922 384 
Q 922 237 1027 179 
Q 1133 122 1370 122 
L 1370 0 
L 96 0 
L 96 122 
Q 365 147 486 316 
Q 608 486 902 1190 
L 2221 4314 
L 2349 4314 
L 3923 710 
Q 4064 378 4176 262 
Q 4288 147 4525 122 
L 4525 0 
z
M 2861 1645 
L 2118 3405 
L 1382 1645 
L 2861 1645 
z
" id="STIXGeneral-Regular-41" transform="scale(0.015625)"/>
        <path d="M 1018 2931 
L 1018 2438 
Q 1421 2944 1939 2944 
Q 2406 2944 2707 2560 
Q 3008 2176 3008 1581 
Q 3008 883 2621 409 
Q 2234 -64 1664 -64 
Q 1466 -64 1328 -6 
Q 1190 51 1018 211 
L 1018 -794 
Q 1018 -1094 1120 -1180 
Q 1222 -1267 1581 -1274 
L 1581 -1389 
L 32 -1389 
L 32 -1280 
Q 314 -1254 397 -1171 
Q 480 -1088 480 -838 
L 480 2157 
Q 480 2381 429 2451 
Q 378 2522 218 2522 
Q 115 2522 58 2515 
L 58 2618 
Q 506 2752 979 2944 
L 1018 2931 
z
M 1018 2138 
L 1018 563 
Q 1018 422 1238 281 
Q 1459 141 1683 141 
Q 2029 141 2243 467 
Q 2458 794 2458 1325 
Q 2458 1888 2243 2224 
Q 2029 2560 1670 2560 
Q 1446 2560 1232 2419 
Q 1018 2278 1018 2138 
z
" id="STIXGeneral-Regular-70" transform="scale(0.015625)"/>
       </defs>
       <use xlink:href="#STIXGeneral-Regular-41"/>
       <use x="72.199982" xlink:href="#STIXGeneral-Regular-70"/>
       <use x="122.199966" xlink:href="#STIXGeneral-Regular-72"/>
      </g>
     </g>
    </g>
    <g id="xtick_24">
     <g id="line2d_42">
      <g>
       <use style="fill:#323034;stroke:#323034;stroke-width:0.8;" x="38.747402" xlink:href="#mfcbb0ffd8d" y="360.6155"/>
      </g>
     </g>
     <g id="text_11">
      <!-- May -->
      <g style="fill:#323034;" transform="translate(27.748652 375.799875)scale(0.12 -0.12)">
       <defs>
        <path d="M 5530 0 
L 3738 0 
L 3738 122 
Q 4115 147 4214 265 
Q 4314 384 4314 787 
L 4314 3661 
L 2682 0 
L 2592 0 
L 979 3514 
L 979 966 
Q 979 448 1088 294 
Q 1197 141 1574 122 
L 1574 0 
L 77 0 
L 77 122 
Q 358 141 480 205 
Q 602 269 650 432 
Q 698 595 698 966 
L 698 3514 
Q 698 3878 589 3984 
Q 480 4090 90 4115 
L 90 4237 
L 1357 4237 
L 2835 1024 
L 4250 4237 
L 5523 4237 
L 5523 4115 
Q 5178 4109 5072 3993 
Q 4966 3878 4966 3520 
L 4966 717 
Q 4966 378 5072 262 
Q 5178 147 5530 122 
L 5530 0 
z
" id="STIXGeneral-Regular-4d" transform="scale(0.015625)"/>
        <path d="M 3040 2880 
L 3040 2784 
Q 2925 2771 2854 2700 
Q 2784 2630 2720 2458 
L 1760 -160 
Q 1510 -838 1257 -1116 
Q 1005 -1395 640 -1395 
Q 435 -1395 313 -1289 
Q 192 -1184 192 -1024 
Q 192 -902 272 -816 
Q 352 -730 467 -730 
Q 653 -730 800 -813 
Q 883 -858 966 -858 
Q 1101 -858 1286 -576 
Q 1376 -448 1459 -211 
Q 1542 26 1542 115 
Q 1542 198 1274 762 
L 429 2566 
Q 346 2752 90 2790 
L 90 2880 
L 1402 2880 
L 1402 2784 
Q 1197 2778 1117 2739 
Q 1037 2701 1037 2611 
Q 1037 2541 1120 2349 
L 1837 749 
L 2458 2515 
Q 2483 2573 2483 2630 
Q 2483 2784 2189 2784 
L 2189 2880 
L 3040 2880 
z
" id="STIXGeneral-Regular-79" transform="scale(0.015625)"/>
       </defs>
       <use xlink:href="#STIXGeneral-Regular-4d"/>
       <use x="88.899994" xlink:href="#STIXGeneral-Regular-61"/>
       <use x="133.299988" xlink:href="#STIXGeneral-Regular-79"/>
      </g>
     </g>
    </g>
    <g id="xtick_25">
     <g id="line2d_43">
      <g>
       <use style="fill:#323034;stroke:#323034;stroke-width:0.8;" x="61.705384" xlink:href="#mfcbb0ffd8d" y="360.6155"/>
      </g>
     </g>
     <g id="text_12">
      <!-- Jun -->
      <g style="fill:#323034;" transform="translate(53.467571 375.811125)scale(0.12 -0.12)">
       <defs>
        <path d="M 2266 4237 
L 2266 4115 
Q 1875 4083 1776 3984 
Q 1677 3885 1677 3514 
L 1677 1184 
Q 1677 -90 608 -90 
Q 314 -90 138 32 
Q -38 154 -38 371 
Q -38 499 54 601 
Q 147 704 275 704 
Q 486 704 589 435 
Q 602 403 621 348 
Q 640 294 649 265 
Q 659 237 678 208 
Q 698 179 723 166 
Q 749 154 787 154 
Q 928 154 976 253 
Q 1024 352 1024 602 
L 1024 3520 
Q 1024 3898 928 3990 
Q 832 4083 429 4115 
L 429 4237 
L 2266 4237 
z
" id="STIXGeneral-Regular-4a" transform="scale(0.015625)"/>
        <path d="M 3072 320 
L 3072 230 
Q 2573 96 2195 -58 
L 2163 -38 
L 2163 486 
L 2150 486 
Q 1747 -64 1235 -64 
Q 870 -64 662 160 
Q 454 384 454 755 
L 454 2362 
Q 454 2598 371 2688 
Q 288 2778 58 2790 
L 58 2880 
L 992 2880 
L 992 813 
Q 992 595 1123 451 
Q 1254 307 1446 307 
Q 1760 307 1984 506 
Q 2067 582 2099 649 
Q 2131 717 2131 877 
L 2131 2355 
Q 2131 2605 2041 2678 
Q 1952 2752 1658 2771 
L 1658 2880 
L 2669 2880 
L 2669 685 
Q 2669 461 2742 390 
Q 2816 320 3034 320 
L 3072 320 
z
" id="STIXGeneral-Regular-75" transform="scale(0.015625)"/>
       </defs>
       <use xlink:href="#STIXGeneral-Regular-4a"/>
       <use x="37.299988" xlink:href="#STIXGeneral-Regular-75"/>
       <use x="87.299973" xlink:href="#STIXGeneral-Regular-6e"/>
      </g>
     </g>
    </g>
    <g id="xtick_26">
     <g id="line2d_44">
      <g>
       <use style="fill:#323034;stroke:#323034;stroke-width:0.8;" x="83.922786" xlink:href="#mfcbb0ffd8d" y="360.6155"/>
      </g>
     </g>
     <g id="text_13">
      <!-- Jul -->
      <g style="fill:#323034;" transform="translate(77.017161 375.811125)scale(0.12 -0.12)">
       <use xlink:href="#STIXGeneral-Regular-4a"/>
       <use x="37.299988" xlink:href="#STIXGeneral-Regular-75"/>
       <use x="87.299973" xlink:href="#STIXGeneral-Regular-6c"/>
      </g>
     </g>
    </g>
    <g id="xtick_27">
     <g id="line2d_45">
      <g>
       <use style="fill:#323034;stroke:#323034;stroke-width:0.8;" x="106.880768" xlink:href="#mfcbb0ffd8d" y="360.6155"/>
      </g>
     </g>
     <g id="text_14">
      <!-- Aug -->
      <g style="fill:#323034;" transform="translate(96.54858 375.799875)scale(0.12 -0.12)">
       <use xlink:href="#STIXGeneral-Regular-41"/>
       <use x="72.199982" xlink:href="#STIXGeneral-Regular-75"/>
       <use x="122.199966" xlink:href="#STIXGeneral-Regular-67"/>
      </g>
     </g>
    </g>
    <g id="xtick_28">
     <g id="line2d_46">
      <g>
       <use style="fill:#323034;stroke:#323034;stroke-width:0.8;" x="129.83875" xlink:href="#mfcbb0ffd8d" y="360.6155"/>
      </g>
     </g>
     <g id="text_15">
      <!-- Sep -->
      <g style="fill:#323034;" transform="translate(120.83875 375.811125)scale(0.12 -0.12)">
       <use xlink:href="#STIXGeneral-Regular-53"/>
       <use x="55.599991" xlink:href="#STIXGeneral-Regular-65"/>
       <use x="99.999985" xlink:href="#STIXGeneral-Regular-70"/>
      </g>
     </g>
    </g>
    <g id="xtick_29">
     <g id="line2d_47">
      <g>
       <use style="fill:#323034;stroke:#323034;stroke-width:0.8;" x="152.056152" xlink:href="#mfcbb0ffd8d" y="360.6155"/>
      </g>
     </g>
     <g id="text_16">
      <!-- Oct -->
      <g style="fill:#323034;" transform="translate(143.391777 375.811125)scale(0.12 -0.12)">
       <defs>
        <path d="M 1702 493 
L 1786 422 
Q 1478 -64 1011 -64 
Q 448 -64 448 749 
L 448 2675 
L 109 2675 
Q 83 2694 83 2720 
Q 83 2771 192 2842 
Q 435 2982 813 3526 
Q 826 3546 874 3606 
Q 922 3667 941 3706 
Q 986 3706 986 3622 
L 986 2880 
L 1632 2880 
L 1632 2675 
L 986 2675 
L 986 845 
Q 986 538 1062 403 
Q 1139 269 1318 269 
Q 1510 269 1702 493 
z
" id="STIXGeneral-Regular-74" transform="scale(0.015625)"/>
       </defs>
       <use xlink:href="#STIXGeneral-Regular-4f"/>
       <use x="72.199982" xlink:href="#STIXGeneral-Regular-63"/>
       <use x="116.599976" xlink:href="#STIXGeneral-Regular-74"/>
      </g>
     </g>
    </g>
    <g id="xtick_30">
     <g id="line2d_48">
      <g>
       <use style="fill:#323034;stroke:#323034;stroke-width:0.8;" x="175.014134" xlink:href="#mfcbb0ffd8d" y="360.6155"/>
      </g>
     </g>
     <g id="text_17">
      <!-- Nov -->
      <g style="fill:#323034;" transform="translate(164.681946 375.811125)scale(0.12 -0.12)">
       <defs>
        <path d="M 4525 4237 
L 4525 4115 
Q 4198 4083 4102 4000 
Q 4000 3910 3958 3756 
Q 3917 3603 3917 3245 
L 3917 -70 
L 3802 -70 
L 979 3443 
L 979 960 
Q 979 474 1088 323 
Q 1197 173 1574 122 
L 1574 0 
L 77 0 
L 77 122 
Q 474 166 586 310 
Q 698 454 698 960 
L 698 3776 
Q 531 3981 416 4048 
Q 301 4115 77 4115 
L 77 4237 
L 1165 4237 
L 3635 1146 
L 3635 3322 
Q 3635 3808 3514 3949 
Q 3437 4032 3344 4061 
Q 3251 4090 3008 4115 
L 3008 4237 
L 4525 4237 
z
" id="STIXGeneral-Regular-4e" transform="scale(0.015625)"/>
        <path d="M 3053 2880 
L 3053 2784 
Q 2906 2771 2835 2688 
Q 2765 2605 2637 2285 
L 1818 230 
Q 1690 -90 1638 -90 
Q 1587 -90 1523 77 
Q 1510 96 1497 141 
Q 1485 186 1472 211 
L 704 2048 
Q 499 2534 403 2652 
Q 307 2771 122 2784 
L 122 2880 
L 1376 2880 
L 1376 2784 
Q 1210 2771 1146 2732 
Q 1082 2694 1082 2611 
Q 1082 2509 1139 2368 
L 1792 730 
L 2426 2387 
Q 2464 2483 2464 2579 
Q 2464 2758 2163 2784 
L 2163 2880 
L 3053 2880 
z
" id="STIXGeneral-Regular-76" transform="scale(0.015625)"/>
       </defs>
       <use xlink:href="#STIXGeneral-Regular-4e"/>
       <use x="72.199982" xlink:href="#STIXGeneral-Regular-6f"/>
       <use x="122.199966" xlink:href="#STIXGeneral-Regular-76"/>
      </g>
     </g>
    </g>
    <g id="xtick_31">
     <g id="line2d_49">
      <g>
       <use style="fill:#323034;stroke:#323034;stroke-width:0.8;" x="197.231536" xlink:href="#mfcbb0ffd8d" y="360.6155"/>
      </g>
     </g>
     <g id="text_18">
      <!-- Dec -->
      <g style="fill:#323034;" transform="translate(187.570598 375.811125)scale(0.12 -0.12)">
       <defs>
        <path d="M 102 4237 
L 1830 4237 
Q 3078 4237 3750 3654 
Q 4384 3110 4384 2138 
Q 4384 966 3514 410 
Q 2880 0 1901 0 
L 102 0 
L 102 122 
Q 474 147 570 252 
Q 666 358 666 736 
L 666 3520 
Q 666 3891 570 3990 
Q 474 4090 102 4115 
L 102 4237 
z
M 1318 3731 
L 1318 538 
Q 1318 365 1379 301 
Q 1440 237 1626 237 
Q 2125 237 2432 307 
Q 2739 378 3021 570 
Q 3686 1018 3686 2099 
Q 3686 3027 3078 3558 
Q 2803 3802 2476 3901 
Q 2150 4000 1658 4000 
Q 1472 4000 1395 3942 
Q 1318 3885 1318 3731 
z
" id="STIXGeneral-Regular-44" transform="scale(0.015625)"/>
       </defs>
       <use xlink:href="#STIXGeneral-Regular-44"/>
       <use x="72.199982" xlink:href="#STIXGeneral-Regular-65"/>
       <use x="116.599976" xlink:href="#STIXGeneral-Regular-63"/>
      </g>
     </g>
    </g>
    <g id="xtick_32">
     <g id="line2d_50">
      <g>
       <use style="fill:#323034;stroke:#323034;stroke-width:0.8;" x="220.189518" xlink:href="#mfcbb0ffd8d" y="360.6155"/>
      </g>
     </g>
     <g id="text_19">
      <!-- Jan -->
      <g style="fill:#323034;" transform="translate(212.28733 375.811125)scale(0.12 -0.12)">
       <use xlink:href="#STIXGeneral-Regular-4a"/>
       <use x="37.299988" xlink:href="#STIXGeneral-Regular-61"/>
       <use x="81.699982" xlink:href="#STIXGeneral-Regular-6e"/>
      </g>
      <!-- 2021 -->
      <g style="fill:#323034;" transform="translate(208.189518 388.25025)scale(0.12 -0.12)">
       <use xlink:href="#STIXGeneral-Regular-32"/>
       <use x="49.999985" xlink:href="#STIXGeneral-Regular-30"/>
       <use x="99.999969" xlink:href="#STIXGeneral-Regular-32"/>
       <use x="149.999954" xlink:href="#STIXGeneral-Regular-31"/>
      </g>
     </g>
    </g>
    <g id="xtick_33">
     <g id="line2d_51">
      <g>
       <use style="fill:#323034;stroke:#323034;stroke-width:0.8;" x="243.1475" xlink:href="#mfcbb0ffd8d" y="360.6155"/>
      </g>
     </g>
     <g id="text_20">
      <!-- Feb -->
      <g style="fill:#323034;" transform="translate(234.1475 375.811125)scale(0.12 -0.12)">
       <defs>
        <path d="M 3494 3322 
L 3334 3322 
Q 3264 3757 3094 3875 
Q 2925 3994 2349 3994 
L 1504 3994 
Q 1370 3994 1328 3946 
Q 1286 3898 1286 3744 
L 1286 2355 
L 2195 2355 
Q 2598 2355 2736 2470 
Q 2874 2586 2918 2963 
L 3066 2963 
L 3066 1472 
L 2918 1472 
Q 2880 1862 2745 1977 
Q 2611 2093 2195 2093 
L 1286 2093 
L 1286 717 
Q 1286 352 1392 246 
Q 1498 141 1869 122 
L 1869 0 
L 70 0 
L 70 122 
Q 435 147 534 259 
Q 634 371 634 787 
L 634 3526 
Q 634 3878 538 3984 
Q 442 4090 77 4115 
L 77 4237 
L 3462 4237 
L 3494 3322 
z
" id="STIXGeneral-Regular-46" transform="scale(0.015625)"/>
        <path d="M 979 4358 
L 979 2406 
Q 1082 2650 1315 2797 
Q 1549 2944 1843 2944 
Q 2349 2944 2672 2541 
Q 2995 2138 2995 1536 
Q 2995 832 2566 384 
Q 2138 -64 1498 -64 
Q 1107 -64 774 67 
Q 442 198 442 358 
L 442 3622 
Q 442 3859 384 3926 
Q 326 3994 128 3994 
Q 83 3994 19 3981 
L 19 4090 
L 211 4147 
Q 864 4346 947 4371 
L 979 4358 
z
M 979 2035 
L 979 474 
Q 979 326 1161 233 
Q 1344 141 1600 141 
Q 1978 141 2195 416 
Q 2432 710 2432 1261 
Q 2432 1888 2182 2240 
Q 1971 2541 1613 2541 
Q 1357 2541 1168 2390 
Q 979 2240 979 2035 
z
" id="STIXGeneral-Regular-62" transform="scale(0.015625)"/>
       </defs>
       <use xlink:href="#STIXGeneral-Regular-46"/>
       <use x="55.599991" xlink:href="#STIXGeneral-Regular-65"/>
       <use x="99.999985" xlink:href="#STIXGeneral-Regular-62"/>
      </g>
     </g>
    </g>
   </g>
   <g id="matplotlib.axis_6">
    <g id="ytick_10">
     <g id="line2d_52">
      <g>
       <use style="fill:#323034;stroke:#323034;stroke-width:0.8;" x="243.1475" xlink:href="#mc624f414ae" y="360.6155"/>
      </g>
     </g>
     <g id="text_21">
      <!-- $\mathdefault{−2}$ -->
      <g style="fill:#323034;" transform="translate(250.1475 364.713312)scale(0.12 -0.12)">
       <use transform="translate(0 0.40625)" xlink:href="#STIXGeneral-Regular-2212"/>
       <use transform="translate(68.499985 0.40625)" xlink:href="#STIXGeneral-Regular-32"/>
      </g>
     </g>
    </g>
    <g id="ytick_11">
     <g id="line2d_53">
      <g>
       <use style="fill:#323034;stroke:#323034;stroke-width:0.8;" x="243.1475" xlink:href="#mc624f414ae" y="332.337111"/>
      </g>
     </g>
     <g id="text_22">
      <!-- $\mathdefault{−1}$ -->
      <g style="fill:#323034;" transform="translate(250.1475 336.434924)scale(0.12 -0.12)">
       <use transform="translate(0 0.40625)" xlink:href="#STIXGeneral-Regular-2212"/>
       <use transform="translate(68.499985 0.40625)" xlink:href="#STIXGeneral-Regular-31"/>
      </g>
     </g>
    </g>
    <g id="ytick_12">
     <g id="line2d_54">
      <g>
       <use style="fill:#323034;stroke:#323034;stroke-width:0.8;" x="243.1475" xlink:href="#mc624f414ae" y="304.058722"/>
      </g>
     </g>
     <g id="text_23">
      <!-- $\mathdefault{0}$ -->
      <g style="fill:#323034;" transform="translate(250.1475 308.156535)scale(0.12 -0.12)">
       <use transform="translate(0 0.40625)" xlink:href="#STIXGeneral-Regular-30"/>
      </g>
     </g>
    </g>
    <g id="ytick_13">
     <g id="line2d_55">
      <g>
       <use style="fill:#323034;stroke:#323034;stroke-width:0.8;" x="243.1475" xlink:href="#mc624f414ae" y="275.780333"/>
      </g>
     </g>
     <g id="text_24">
      <!-- $\mathdefault{1}$ -->
      <g style="fill:#323034;" transform="translate(250.1475 279.878146)scale(0.12 -0.12)">
       <use transform="translate(0 0.40625)" xlink:href="#STIXGeneral-Regular-31"/>
      </g>
     </g>
    </g>
    <g id="ytick_14">
     <g id="line2d_56">
      <g>
       <use style="fill:#323034;stroke:#323034;stroke-width:0.6;" x="243.1475" xlink:href="#m104a71c464" y="346.476306"/>
      </g>
     </g>
    </g>
    <g id="ytick_15">
     <g id="line2d_57">
      <g>
       <use style="fill:#323034;stroke:#323034;stroke-width:0.6;" x="243.1475" xlink:href="#m104a71c464" y="318.197917"/>
      </g>
     </g>
    </g>
    <g id="ytick_16">
     <g id="line2d_58">
      <g>
       <use style="fill:#323034;stroke:#323034;stroke-width:0.6;" x="243.1475" xlink:href="#m104a71c464" y="289.919528"/>
      </g>
     </g>
    </g>
   </g>
   <g id="line2d_59">
    <path clip-path="url(#p000e8c4077)" d="M 16.53 305.47534 
L 17.27058 304.901443 
L 18.75174 302.062387 
L 19.49232 304.397273 
L 20.2329 303.538413 
L 20.97348 302.93735 
L 21.71406 302.924608 
L 22.454641 302.741524 
L 23.195221 304.281628 
L 23.935801 304.762688 
L 24.676381 303.231627 
L 25.416961 306.373231 
L 26.898121 302.781028 
L 27.638701 304.113951 
L 29.119861 305.835064 
L 29.860441 304.557103 
L 30.601021 302.43924 
L 31.341601 304.987604 
L 32.822761 302.961369 
L 34.303922 299.974053 
L 35.044502 303.150916 
L 35.785082 305.300278 
L 36.525662 304.669334 
L 37.266242 304.461712 
L 38.006822 304.845038 
L 38.747402 302.409399 
L 39.487982 302.901309 
L 40.228562 301.533197 
L 40.969142 304.906664 
L 41.709722 303.972748 
L 42.450302 303.415259 
L 43.190882 303.961444 
L 43.931462 304.958602 
L 44.672042 304.615703 
L 45.412623 305.180914 
L 46.153203 308.739809 
L 46.893783 303.225759 
L 47.634363 304.523419 
L 48.374943 303.50879 
L 49.856103 304.38481 
L 50.596683 305.757112 
L 51.337263 302.35104 
L 52.077843 303.991041 
L 52.818423 300.522327 
L 54.299583 305.027046 
L 55.040163 304.585638 
L 55.780743 302.92678 
L 56.521324 304.450182 
L 57.261904 305.55189 
L 58.002484 305.239122 
L 58.743064 304.801185 
L 59.483644 303.545062 
L 60.224224 303.328669 
L 60.964804 302.355017 
L 61.705384 299.840285 
L 62.445964 303.591599 
L 63.927124 305.042693 
L 64.667704 298.844434 
L 65.408284 304.618664 
L 66.148864 304.575351 
L 66.889444 304.647975 
L 67.630025 307.637341 
L 68.370605 302.588909 
L 69.111185 304.319072 
L 69.851765 304.231811 
L 70.592345 303.734093 
L 71.332925 306.042338 
L 72.073505 305.254232 
L 72.814085 304.280472 
L 73.554665 304.681285 
L 74.295245 304.657694 
L 75.035825 304.887055 
L 75.776405 303.544587 
L 76.516985 304.622096 
L 77.257565 302.459586 
L 77.998145 304.030808 
L 78.738725 304.243365 
L 80.219886 303.696182 
L 80.960466 304.328091 
L 81.701046 302.693136 
L 82.441626 304.410092 
L 83.182206 303.159448 
L 83.922786 303.653009 
L 84.663366 302.660059 
L 86.144526 304.463187 
L 86.885106 305.069023 
L 87.625686 304.485331 
L 88.366266 304.537797 
L 89.106846 303.659154 
L 89.847426 305.525436 
L 90.588007 303.412245 
L 91.328587 303.642164 
L 92.069167 303.263138 
L 92.809747 302.31556 
L 93.550327 303.58651 
L 94.290907 304.157027 
L 95.031487 302.404575 
L 95.772067 305.087466 
L 96.512647 304.977453 
L 97.253227 302.45416 
L 97.993807 304.082776 
L 98.734387 304.04104 
L 99.474967 303.678628 
L 100.215547 304.682788 
L 100.956127 303.893056 
L 101.696708 302.85376 
L 102.437288 305.834066 
L 103.177868 303.219109 
L 103.918448 303.833343 
L 104.659028 303.185138 
L 105.399608 302.981802 
L 106.140188 303.575327 
L 106.880768 304.925379 
L 107.621348 303.98075 
L 108.361928 305.05697 
L 109.102508 304.531083 
L 109.843088 305.275721 
L 110.583668 304.474896 
L 111.324248 304.616844 
L 112.805408 303.312041 
L 113.545989 303.008763 
L 114.286569 303.252064 
L 115.027149 303.165356 
L 115.767729 304.550773 
L 116.508309 303.344171 
L 117.248889 304.114598 
L 117.989469 302.973188 
L 118.730049 305.280545 
L 119.470629 304.595834 
L 120.951789 304.272231 
L 121.692369 304.144541 
L 122.432949 303.431393 
L 123.173529 305.455715 
L 123.914109 299.999637 
L 124.65469 305.067299 
L 125.39527 299.170837 
L 126.13585 303.685525 
L 126.87643 305.370453 
L 127.61701 303.501773 
L 128.35759 304.153403 
L 129.09817 303.99084 
L 129.83875 302.444161 
L 130.57933 308.540231 
L 131.31991 303.94571 
L 132.06049 302.632575 
L 132.80107 304.179128 
L 133.54165 306.651634 
L 134.28223 314.11699 
L 135.02281 312.616914 
L 135.763391 304.583121 
L 136.503971 307.719956 
L 137.244551 304.172435 
L 137.985131 304.889769 
L 138.725711 303.977708 
L 139.466291 303.472588 
L 140.206871 304.090213 
L 140.947451 302.952813 
L 141.688031 303.772404 
L 142.428611 305.028047 
L 143.169191 304.077873 
L 143.909771 303.338106 
L 144.650351 293.055156 
L 145.390931 305.881842 
L 146.131511 303.617358 
L 146.872092 304.526502 
L 147.612672 302.63302 
L 148.353252 304.61178 
L 149.093832 303.53902 
L 149.834412 304.579873 
L 150.574992 302.334481 
L 151.315572 305.380589 
L 152.056152 305.04546 
L 152.796732 304.177451 
L 153.537312 303.007353 
L 154.277892 306.714419 
L 155.018472 292.307252 
L 155.759052 305.684924 
L 156.499632 302.285351 
L 157.240212 303.237377 
L 157.980792 304.926499 
L 158.721373 305.220199 
L 159.461953 303.23845 
L 160.202533 304.983916 
L 160.943113 303.261028 
L 161.683693 303.462133 
L 163.164853 304.115989 
L 163.905433 309.218573 
L 165.386593 301.239407 
L 166.127173 304.383102 
L 166.867753 305.657124 
L 167.608333 304.305785 
L 168.348913 303.402024 
L 169.089493 303.129789 
L 169.830074 304.123681 
L 170.570654 303.894416 
L 171.311234 304.157717 
L 172.051814 304.086144 
L 172.792394 304.422698 
L 173.532974 304.46789 
L 174.273554 307.125927 
L 175.014134 304.227667 
L 175.754714 304.234995 
L 176.495294 305.099333 
L 177.235874 303.504421 
L 178.717034 304.430128 
L 179.457614 303.67667 
L 180.938775 304.13419 
L 181.679355 302.61646 
L 182.419935 304.41774 
L 183.901095 303.325428 
L 184.641675 303.885548 
L 185.382255 302.92825 
L 186.122835 303.305919 
L 186.863415 304.330165 
L 187.603995 303.867176 
L 189.825735 304.324022 
L 190.566315 304.045999 
L 191.306895 302.953447 
L 192.788056 304.104777 
L 193.528636 321.884829 
L 194.269216 304.369388 
L 195.009796 308.58879 
L 195.750376 306.024524 
L 196.490956 305.548814 
L 197.231536 304.055244 
L 197.972116 303.514638 
L 198.712696 303.291204 
L 199.453276 305.219685 
L 200.193856 303.209637 
L 200.934436 303.499568 
L 201.675016 303.163318 
L 202.415596 302.368829 
L 203.156176 304.804378 
L 203.896757 304.937229 
L 204.637337 303.597127 
L 205.377917 304.305153 
L 206.118497 303.401965 
L 206.859077 304.299873 
L 207.599657 304.755253 
L 208.340237 302.249777 
L 209.080817 303.255022 
L 209.821397 310.33009 
L 210.561977 306.171845 
L 211.302557 304.258354 
L 212.043137 303.351686 
L 212.783717 304.292113 
L 213.524297 304.222737 
L 214.264877 309.063607 
L 215.005458 332.072668 
L 215.746038 303.392199 
L 216.486618 309.150682 
L 217.227198 305.190344 
L 217.967778 304.41963 
L 218.708358 303.947657 
L 219.448938 304.888324 
L 220.189518 323.690959 
L 220.930098 297.193377 
L 221.670678 303.650074 
L 222.411258 300.29766 
L 223.151838 303.829076 
L 223.892418 303.841032 
L 224.632998 302.642591 
L 225.373578 303.689955 
L 226.114158 303.336086 
L 226.854739 303.60788 
L 227.595319 303.618397 
L 228.335899 303.279284 
L 229.076479 304.173674 
L 229.817059 303.856494 
L 230.557639 304.731147 
L 231.298219 304.370007 
L 232.038799 303.470016 
L 232.779379 312.13577 
L 233.519959 303.623242 
L 235.001119 304.619096 
L 235.741699 304.463689 
L 236.482279 303.147965 
L 237.222859 304.882082 
L 237.96344 304.445974 
L 238.70402 304.676492 
L 239.4446 303.909777 
L 240.18518 303.875985 
L 240.92576 303.637075 
L 241.66634 304.646574 
L 242.40692 303.85225 
L 243.1475 303.944075 
L 243.1475 303.944075 
" style="fill:none;stroke:#ff0000;stroke-linecap:square;stroke-opacity:0.4;stroke-width:2;"/>
   </g>
   <g id="patch_11">
    <path d="M 243.1475 360.6155 
L 243.1475 275.780333 
" style="fill:none;stroke:#000000;stroke-linecap:square;stroke-linejoin:miter;stroke-width:0.6;"/>
   </g>
   <g id="patch_12">
    <path d="M 16.53 360.6155 
L 243.1475 360.6155 
" style="fill:none;stroke:#000000;stroke-linecap:square;stroke-linejoin:miter;stroke-width:0.6;"/>
   </g>
   <g id="legend_3">
    <g id="patch_13">
     <path d="M 187.049063 293.950646 
L 236.1475 293.950646 
Q 238.1475 293.950646 238.1475 291.950646 
L 238.1475 282.780333 
Q 238.1475 280.780333 236.1475 280.780333 
L 187.049063 280.780333 
Q 185.049063 280.780333 185.049063 282.780333 
L 185.049063 291.950646 
Q 185.049063 293.950646 187.049063 293.950646 
z
" style="fill:#ffffff;opacity:0.8;stroke:#e6e6e6;stroke-linejoin:miter;stroke-width:0.8;"/>
    </g>
    <g id="line2d_60">
     <path d="M 187.049063 286.280333 
L 207.049063 286.280333 
" style="fill:none;stroke:#ff0000;stroke-linecap:square;stroke-opacity:0.4;stroke-width:2;"/>
    </g>
    <g id="line2d_61"/>
    <g id="text_25">
     <!-- Error -->
     <g style="fill:#323034;" transform="translate(215.049063 289.780333)scale(0.1 -0.1)">
      <defs>
       <path d="M 3821 1082 
L 3526 0 
L 77 0 
L 77 122 
Q 442 147 538 252 
Q 634 358 634 730 
L 634 3520 
Q 634 3878 534 3987 
Q 435 4096 77 4115 
L 77 4237 
L 3469 4237 
L 3494 3322 
L 3334 3322 
Q 3264 3750 3085 3872 
Q 2906 3994 2349 3994 
L 1510 3994 
Q 1370 3994 1328 3952 
Q 1286 3910 1286 3763 
L 1286 2355 
L 2253 2355 
Q 2656 2355 2787 2470 
Q 2918 2586 2976 2970 
L 3123 2970 
L 3123 1472 
L 2976 1472 
Q 2918 1875 2790 1984 
Q 2662 2093 2253 2093 
L 1286 2093 
L 1286 538 
Q 1286 346 1420 291 
Q 1555 237 1933 237 
L 2163 237 
Q 2848 237 3136 403 
Q 3424 570 3642 1082 
L 3821 1082 
z
" id="STIXGeneral-Regular-45" transform="scale(0.015625)"/>
      </defs>
      <use xlink:href="#STIXGeneral-Regular-45"/>
      <use x="61.099991" xlink:href="#STIXGeneral-Regular-72"/>
      <use x="94.399979" xlink:href="#STIXGeneral-Regular-72"/>
      <use x="127.699966" xlink:href="#STIXGeneral-Regular-6f"/>
      <use x="177.699951" xlink:href="#STIXGeneral-Regular-72"/>
     </g>
    </g>
   </g>
  </g>
  <g id="text_26">
   <!-- STL -->
   <g style="fill:#323034;" transform="translate(124.369688 19.493437)scale(0.18 -0.18)">
    <defs>
     <path d="M 3827 1114 
L 3520 0 
L 77 0 
L 77 122 
Q 429 141 531 256 
Q 634 371 634 736 
L 634 3494 
Q 634 3872 541 3981 
Q 448 4090 77 4115 
L 77 4237 
L 1888 4237 
L 1888 4115 
Q 1498 4090 1392 3984 
Q 1286 3878 1286 3507 
L 1286 538 
Q 1286 358 1398 304 
Q 1510 250 1862 250 
L 2310 250 
Q 3085 250 3392 640 
Q 3520 813 3661 1114 
L 3827 1114 
z
" id="STIXGeneral-Regular-4c" transform="scale(0.015625)"/>
    </defs>
    <use xlink:href="#STIXGeneral-Regular-53"/>
    <use x="55.599991" xlink:href="#STIXGeneral-Regular-54"/>
    <use x="116.699982" xlink:href="#STIXGeneral-Regular-4c"/>
   </g>
  </g>
 </g>
 <defs>
  <clipPath id="p19ed661496">
   <rect height="84.835167" width="226.6175" x="16.53" y="61.455"/>
  </clipPath>
  <clipPath id="pe413018762">
   <rect height="84.835167" width="226.6175" x="16.53" y="168.617667"/>
  </clipPath>
  <clipPath id="p000e8c4077">
   <rect height="84.835167" width="226.6175" x="16.53" y="275.780333"/>
  </clipPath>
 </defs>
</svg>
