<?xml version="1.0" encoding="utf-8" standalone="no"?>
<!DOCTYPE svg PUBLIC "-//W3C//DTD SVG 1.1//EN"
  "http://www.w3.org/Graphics/SVG/1.1/DTD/svg11.dtd">
<svg height="398.054625pt" version="1.1" viewBox="0 0 307.875937 398.054625" width="307.875937pt" xmlns="http://www.w3.org/2000/svg" xmlns:xlink="http://www.w3.org/1999/xlink">
 <metadata>
  <rdf:RDF xmlns:cc="http://creativecommons.org/ns#" xmlns:dc="http://purl.org/dc/elements/1.1/" xmlns:rdf="http://www.w3.org/1999/02/22-rdf-syntax-ns#">
   <cc:Work>
    <dc:type rdf:resource="http://purl.org/dc/dcmitype/StillImage"/>
    <dc:date>2022-08-20T18:04:31.847393</dc:date>
    <dc:format>image/svg+xml</dc:format>
    <dc:creator>
     <cc:Agent>
      <dc:title>Matplotlib v3.4.3, https://matplotlib.org/</dc:title>
     </cc:Agent>
    </dc:creator>
   </cc:Work>
  </rdf:RDF>
 </metadata>
 <defs>
  <style type="text/css">*{stroke-linecap:butt;stroke-linejoin:round;}</style>
 </defs>
 <g id="figure_1">
  <g id="patch_1">
   <path d="M 0 398.054625 
L 307.875937 398.054625 
L 307.875937 0 
L 0 0 
z
" style="fill:none;"/>
  </g>
  <g id="axes_1">
   <g id="patch_2">
    <path d="M 30.097969 148.929333 
L 250.715469 148.929333 
L 250.715469 61.71 
L 30.097969 61.71 
z
" style="fill:#ffffff;"/>
   </g>
   <g id="matplotlib.axis_1">
    <g id="xtick_1">
     <g id="line2d_1">
      <defs>
       <path d="M 0 0 
L 0 3.5 
" id="mf541c3db70" style="stroke:#323034;stroke-width:0.8;"/>
      </defs>
      <g>
       <use style="fill:#323034;stroke:#323034;stroke-width:0.8;" x="30.097969" xlink:href="#mf541c3db70" y="148.929333"/>
      </g>
     </g>
    </g>
    <g id="xtick_2">
     <g id="line2d_2">
      <g>
       <use style="fill:#323034;stroke:#323034;stroke-width:0.8;" x="51.727135" xlink:href="#mf541c3db70" y="148.929333"/>
      </g>
     </g>
    </g>
    <g id="xtick_3">
     <g id="line2d_3">
      <g>
       <use style="fill:#323034;stroke:#323034;stroke-width:0.8;" x="74.077274" xlink:href="#mf541c3db70" y="148.929333"/>
      </g>
     </g>
    </g>
    <g id="xtick_4">
     <g id="line2d_4">
      <g>
       <use style="fill:#323034;stroke:#323034;stroke-width:0.8;" x="95.706441" xlink:href="#mf541c3db70" y="148.929333"/>
      </g>
     </g>
    </g>
    <g id="xtick_5">
     <g id="line2d_5">
      <g>
       <use style="fill:#323034;stroke:#323034;stroke-width:0.8;" x="118.05658" xlink:href="#mf541c3db70" y="148.929333"/>
      </g>
     </g>
    </g>
    <g id="xtick_6">
     <g id="line2d_6">
      <g>
       <use style="fill:#323034;stroke:#323034;stroke-width:0.8;" x="140.406719" xlink:href="#mf541c3db70" y="148.929333"/>
      </g>
     </g>
    </g>
    <g id="xtick_7">
     <g id="line2d_7">
      <g>
       <use style="fill:#323034;stroke:#323034;stroke-width:0.8;" x="162.035885" xlink:href="#mf541c3db70" y="148.929333"/>
      </g>
     </g>
    </g>
    <g id="xtick_8">
     <g id="line2d_8">
      <g>
       <use style="fill:#323034;stroke:#323034;stroke-width:0.8;" x="184.386024" xlink:href="#mf541c3db70" y="148.929333"/>
      </g>
     </g>
    </g>
    <g id="xtick_9">
     <g id="line2d_9">
      <g>
       <use style="fill:#323034;stroke:#323034;stroke-width:0.8;" x="206.015191" xlink:href="#mf541c3db70" y="148.929333"/>
      </g>
     </g>
    </g>
    <g id="xtick_10">
     <g id="line2d_10">
      <g>
       <use style="fill:#323034;stroke:#323034;stroke-width:0.8;" x="228.36533" xlink:href="#mf541c3db70" y="148.929333"/>
      </g>
     </g>
    </g>
    <g id="xtick_11">
     <g id="line2d_11">
      <g>
       <use style="fill:#323034;stroke:#323034;stroke-width:0.8;" x="250.715469" xlink:href="#mf541c3db70" y="148.929333"/>
      </g>
     </g>
    </g>
   </g>
   <g id="matplotlib.axis_2">
    <g id="ytick_1">
     <g id="line2d_12">
      <defs>
       <path d="M 0 0 
L 3.5 0 
" id="ma7f8d83011" style="stroke:#323034;stroke-width:0.8;"/>
      </defs>
      <g>
       <use style="fill:#323034;stroke:#323034;stroke-width:0.8;" x="250.715469" xlink:href="#ma7f8d83011" y="127.1245"/>
      </g>
     </g>
     <g id="text_1">
      <!-- $\mathdefault{10}$ -->
      <g style="fill:#323034;" transform="translate(257.715469 131.222312)scale(0.12 -0.12)">
       <defs>
        <path d="M 2522 0 
L 755 0 
L 755 96 
Q 1107 115 1235 227 
Q 1363 339 1363 608 
L 1363 3482 
Q 1363 3795 1171 3795 
Q 1082 3795 883 3718 
L 710 3654 
L 710 3744 
L 1856 4326 
L 1914 4307 
L 1914 486 
Q 1914 275 2042 185 
Q 2170 96 2522 96 
L 2522 0 
z
" id="STIXGeneral-Regular-31" transform="scale(0.015625)"/>
        <path d="M 3046 2112 
Q 3046 1683 2963 1302 
Q 2880 922 2717 602 
Q 2554 282 2266 96 
Q 1978 -90 1600 -90 
Q 1210 -90 915 108 
Q 621 307 461 640 
Q 301 973 227 1350 
Q 154 1728 154 2150 
Q 154 2746 301 3222 
Q 448 3699 790 4012 
Q 1133 4326 1626 4326 
Q 2253 4326 2649 3712 
Q 3046 3098 3046 2112 
z
M 2432 2080 
Q 2432 3091 2217 3625 
Q 2003 4160 1587 4160 
Q 1190 4160 979 3622 
Q 768 3085 768 2106 
Q 768 1120 979 598 
Q 1190 77 1600 77 
Q 2003 77 2217 598 
Q 2432 1120 2432 2080 
z
" id="STIXGeneral-Regular-30" transform="scale(0.015625)"/>
       </defs>
       <use transform="translate(0 0.40625)" xlink:href="#STIXGeneral-Regular-31"/>
       <use transform="translate(49.999985 0.40625)" xlink:href="#STIXGeneral-Regular-30"/>
      </g>
     </g>
    </g>
    <g id="ytick_2">
     <g id="line2d_13">
      <g>
       <use style="fill:#323034;stroke:#323034;stroke-width:0.8;" x="250.715469" xlink:href="#ma7f8d83011" y="83.514833"/>
      </g>
     </g>
     <g id="text_2">
      <!-- $\mathdefault{12}$ -->
      <g style="fill:#323034;" transform="translate(257.715469 87.612646)scale(0.12 -0.12)">
       <defs>
        <path d="M 3034 877 
L 2688 0 
L 186 0 
L 186 77 
L 1325 1286 
Q 1773 1754 1965 2144 
Q 2157 2534 2157 2950 
Q 2157 3379 1920 3616 
Q 1683 3853 1267 3853 
Q 922 3853 720 3673 
Q 518 3494 326 3021 
L 192 3053 
Q 301 3648 630 3987 
Q 960 4326 1523 4326 
Q 2054 4326 2380 4006 
Q 2707 3686 2707 3200 
Q 2707 2477 1888 1613 
L 832 486 
L 2330 486 
Q 2541 486 2665 569 
Q 2790 653 2944 915 
L 3034 877 
z
" id="STIXGeneral-Regular-32" transform="scale(0.015625)"/>
       </defs>
       <use transform="translate(0 0.40625)" xlink:href="#STIXGeneral-Regular-31"/>
       <use transform="translate(49.999985 0.40625)" xlink:href="#STIXGeneral-Regular-32"/>
      </g>
     </g>
    </g>
    <g id="ytick_3">
     <g id="line2d_14">
      <defs>
       <path d="M 0 0 
L 2 0 
" id="ma69c10c090" style="stroke:#323034;stroke-width:0.6;"/>
      </defs>
      <g>
       <use style="fill:#323034;stroke:#323034;stroke-width:0.6;" x="250.715469" xlink:href="#ma69c10c090" y="105.319667"/>
      </g>
     </g>
    </g>
    <g id="ytick_4">
     <g id="line2d_15">
      <g>
       <use style="fill:#323034;stroke:#323034;stroke-width:0.6;" x="250.715469" xlink:href="#ma69c10c090" y="61.71"/>
      </g>
     </g>
    </g>
   </g>
   <g id="line2d_16">
    <path clip-path="url(#p874e02b476)" d="M 30.097969 121.474736 
L 32.260885 120.469299 
L 33.70283 120.029269 
L 35.144774 119.914207 
L 36.586719 120.090104 
L 41.633524 121.090503 
L 43.075469 121.110524 
L 46.68033 120.982077 
L 48.122274 121.227889 
L 51.006163 122.128415 
L 52.448108 122.724613 
L 54.611024 123.908903 
L 57.494913 125.509556 
L 58.936858 126.101481 
L 60.378802 126.441006 
L 68.309497 127.659677 
L 69.751441 127.856089 
L 71.193385 127.862368 
L 74.077274 127.676947 
L 79.12408 127.817092 
L 80.566024 127.509016 
L 82.007969 126.867221 
L 83.449913 125.868157 
L 84.891858 124.474699 
L 86.333802 122.72123 
L 88.496719 119.596715 
L 91.380608 115.314841 
L 93.543524 112.507553 
L 94.985469 110.931604 
L 96.427413 109.619969 
L 100.032274 106.842932 
L 102.916163 104.757249 
L 104.358108 103.909149 
L 105.800052 103.342573 
L 107.241997 103.051566 
L 109.404913 102.933332 
L 110.846858 103.056849 
L 113.009774 103.520429 
L 115.172691 104.265451 
L 117.335608 105.350879 
L 119.498524 106.488455 
L 121.661441 107.33344 
L 125.266302 108.546618 
L 126.708247 109.274324 
L 131.755052 112.228088 
L 133.196997 112.726973 
L 135.359913 113.173906 
L 137.52283 113.591087 
L 139.685747 114.258091 
L 141.848663 115.196842 
L 144.01158 116.237817 
L 144.732552 116.470932 
L 145.453524 116.553238 
L 146.174497 116.477577 
L 147.616441 115.959587 
L 150.50033 114.376465 
L 152.663247 113.271361 
L 154.105191 112.74384 
L 155.547135 112.481678 
L 159.872969 112.151154 
L 161.314913 111.769713 
L 162.756858 111.158434 
L 172.129497 106.272902 
L 174.292413 104.874575 
L 176.45533 103.170055 
L 181.502135 98.82573 
L 183.665052 96.612731 
L 185.827969 93.913238 
L 190.874774 87.048553 
L 192.316719 85.464734 
L 193.758663 84.220857 
L 195.200608 83.360439 
L 196.642552 82.889653 
L 198.084497 82.767075 
L 199.526441 82.910224 
L 201.689358 83.247509 
L 202.41033 83.241951 
L 203.131302 83.076725 
L 203.852274 82.774002 
L 205.294219 81.806455 
L 208.89908 78.845093 
L 210.341024 77.952853 
L 211.782969 77.340893 
L 213.224913 77.028776 
L 214.666858 77.025081 
L 216.108802 77.268545 
L 217.550747 77.763465 
L 218.992691 78.525361 
L 221.87658 80.265818 
L 222.597552 80.573674 
L 223.318524 80.718548 
L 224.039497 80.636714 
L 224.760469 80.377456 
L 226.202413 79.456194 
L 227.644358 78.216544 
L 230.528247 75.537439 
L 231.249219 75.066518 
L 231.970191 74.729111 
L 232.691163 74.539244 
L 233.412135 74.510605 
L 234.133108 74.64823 
L 234.85408 74.934048 
L 236.296024 75.881342 
L 237.737969 77.189541 
L 242.063802 81.505827 
L 244.226719 83.20881 
L 247.110608 85.134098 
L 250.715469 87.204532 
L 250.715469 87.204532 
" style="fill:none;stroke:#000000;stroke-dasharray:3.7,1.6;stroke-dashoffset:0;"/>
   </g>
   <g id="line2d_17">
    <path clip-path="url(#p874e02b476)" d="M 30.097969 122.741812 
L 31.539913 118.764971 
L 32.260885 116.965019 
L 32.981858 123.832571 
L 33.70283 119.732026 
L 34.423802 120.144263 
L 35.144774 119.103585 
L 35.865747 117.214941 
L 36.586719 117.999299 
L 37.307691 119.172219 
L 38.028663 122.570027 
L 38.749635 123.702722 
L 39.470608 122.93619 
L 40.19158 120.363867 
L 40.912552 119.245897 
L 41.633524 119.317748 
L 43.075469 124.073946 
L 43.796441 122.368521 
L 44.517413 123.919569 
L 45.238385 121.254498 
L 45.959358 117.802808 
L 46.68033 115.968088 
L 47.401302 117.398577 
L 48.122274 122.900275 
L 48.843247 125.995484 
L 49.564219 124.66987 
L 50.285191 123.047578 
L 51.006163 120.129893 
L 51.727135 117.677925 
L 53.890052 127.188411 
L 54.611024 125.519446 
L 55.331997 124.798507 
L 56.052969 121.523119 
L 56.773941 122.168072 
L 57.494913 124.478764 
L 58.215885 128.886042 
L 58.936858 131.990322 
L 59.65783 126.855386 
L 60.378802 128.015037 
L 61.099774 122.715917 
L 61.820747 123.31027 
L 62.541719 125.565479 
L 63.262691 130.331319 
L 63.983663 127.322858 
L 64.704635 128.188971 
L 66.14658 123.733205 
L 67.588524 126.886698 
L 68.309497 129.195167 
L 69.030469 130.232918 
L 70.472413 130.643168 
L 71.193385 126.649072 
L 71.914358 124.761169 
L 72.63533 125.808293 
L 73.356302 128.548454 
L 74.077274 127.253041 
L 74.798247 128.383174 
L 75.519219 129.243116 
L 76.240191 127.534669 
L 76.961163 121.346962 
L 77.682135 126.645198 
L 78.403108 130.792581 
L 79.12408 131.276982 
L 79.845052 130.572322 
L 80.566024 126.322215 
L 81.286997 125.990785 
L 82.007969 123.937523 
L 82.728941 124.073946 
L 83.449913 130.198697 
L 84.170885 129.101751 
L 84.891858 124.463864 
L 85.61283 123.799399 
L 87.054774 119.788523 
L 87.775747 118.963559 
L 88.496719 123.192576 
L 89.938663 116.989261 
L 90.659635 115.821401 
L 92.10158 111.292386 
L 93.543524 114.384842 
L 94.264497 114.391466 
L 94.985469 109.96349 
L 95.706441 109.260276 
L 96.427413 106.950651 
L 97.148385 106.33349 
L 97.869358 109.246755 
L 98.59033 111.659934 
L 99.311302 110.452442 
L 100.032274 107.537356 
L 100.753247 105.472846 
L 101.474219 105.314256 
L 102.195191 102.47205 
L 102.916163 105.01342 
L 103.637135 106.086531 
L 105.07908 103.327545 
L 105.800052 102.435328 
L 106.521024 100.209449 
L 107.241997 101.627017 
L 107.962969 104.400865 
L 108.683941 104.462402 
L 109.404913 105.31462 
L 110.125885 103.435837 
L 110.846858 101.994103 
L 111.56783 101.910781 
L 112.288802 100.841373 
L 113.009774 102.940781 
L 113.730747 107.483801 
L 114.451719 105.573566 
L 115.893663 102.938822 
L 116.614635 102.242833 
L 117.335608 102.198603 
L 118.05658 106.458218 
L 118.777552 108.905831 
L 119.498524 110.375159 
L 120.219497 107.754124 
L 120.940469 107.683387 
L 122.382413 104.857413 
L 123.103385 107.076207 
L 123.824358 109.922523 
L 124.54533 110.518441 
L 125.266302 107.832446 
L 125.987274 107.459282 
L 126.708247 107.546631 
L 127.429219 105.464779 
L 128.150191 108.927735 
L 128.871163 112.980108 
L 129.592135 115.508861 
L 130.313108 112.420206 
L 131.03408 112.531448 
L 132.476024 109.676987 
L 133.196997 111.534145 
L 133.917969 118.754853 
L 134.638941 113.895855 
L 135.359913 114.564954 
L 136.080885 111.392713 
L 136.801858 111.252192 
L 137.52283 110.801773 
L 138.243802 111.737027 
L 138.964774 118.02798 
L 139.685747 116.119354 
L 140.406719 112.012487 
L 141.127691 118.680125 
L 141.848663 110.880115 
L 142.569635 108.351859 
L 143.290608 112.920164 
L 144.01158 120.389292 
L 144.732552 124.219024 
L 146.895469 115.198446 
L 147.616441 110.337078 
L 148.337413 114.608961 
L 149.058385 118.084148 
L 149.779358 115.881613 
L 150.50033 114.546042 
L 151.221302 114.517704 
L 151.942274 111.397044 
L 152.663247 109.74023 
L 154.105191 116.197781 
L 154.826163 107.190187 
L 155.547135 115.585702 
L 156.268108 113.286526 
L 156.98908 111.448114 
L 157.710052 107.337898 
L 158.431024 112.693252 
L 159.151997 115.640004 
L 159.872969 115.603788 
L 160.593941 112.187432 
L 161.314913 113.021027 
L 162.035885 110.870248 
L 162.756858 107.741505 
L 163.47783 110.240113 
L 164.198802 116.987395 
L 164.919774 104.414137 
L 165.640747 112.60813 
L 166.361719 107.971834 
L 167.082691 106.630023 
L 167.803663 105.654405 
L 169.245608 111.652142 
L 169.96658 110.132221 
L 170.687552 107.413132 
L 172.129497 103.410465 
L 172.850469 101.768592 
L 173.571441 108.077377 
L 174.292413 110.193157 
L 175.013385 103.381457 
L 175.734358 105.059074 
L 176.45533 103.786031 
L 177.176302 100.37051 
L 177.897274 97.603055 
L 178.618247 99.39181 
L 179.339219 105.3777 
L 180.060191 100.513772 
L 180.781163 100.587223 
L 182.94408 94.164214 
L 183.665052 97.883492 
L 184.386024 100.643576 
L 185.106997 95.483204 
L 185.827969 95.855161 
L 186.548941 92.441547 
L 187.269913 89.916166 
L 187.990885 87.946171 
L 188.711858 89.108004 
L 189.43283 93.403631 
L 190.153802 88.339423 
L 190.874774 86.837663 
L 191.595747 86.354991 
L 192.316719 83.395094 
L 193.037691 81.138349 
L 193.758663 84.019244 
L 194.479635 87.56166 
L 195.200608 83.010512 
L 195.92158 83.665914 
L 196.642552 82.274654 
L 197.363524 80.427775 
L 198.084497 79.146206 
L 198.805469 82.318617 
L 199.526441 86.675376 
L 200.247413 81.364539 
L 200.968385 81.579856 
L 201.689358 81.247468 
L 202.41033 93.492158 
L 203.131302 78.393977 
L 203.852274 85.090593 
L 204.573247 87.411208 
L 205.294219 82.867634 
L 206.736163 78.89405 
L 207.457135 77.168585 
L 208.178108 75.844661 
L 208.89908 78.407859 
L 209.620052 82.320139 
L 210.341024 78.533831 
L 211.061997 76.971596 
L 211.782969 76.971397 
L 212.503941 76.43142 
L 213.224913 71.64482 
L 213.945885 78.215369 
L 214.666858 80.813639 
L 215.38783 78.92518 
L 216.108802 78.680382 
L 216.829774 74.611765 
L 217.550747 75.255108 
L 218.271719 74.052301 
L 218.992691 79.696292 
L 219.713663 81.329606 
L 220.434635 78.85658 
L 221.155608 78.843708 
L 221.87658 76.187082 
L 222.597552 79.740643 
L 223.318524 93.933349 
L 224.039497 77.256587 
L 224.760469 84.99274 
L 225.481441 80.253807 
L 226.202413 78.909447 
L 226.923385 76.073835 
L 227.644358 75.877104 
L 228.36533 85.698075 
L 229.086302 70.798853 
L 229.807274 78.828249 
L 230.528247 73.996816 
L 231.249219 75.503544 
L 233.412135 70.123953 
L 234.85408 78.135349 
L 235.575052 76.326052 
L 236.296024 75.976148 
L 237.016997 76.038054 
L 237.737969 75.089434 
L 238.458941 75.059322 
L 240.621858 86.622938 
L 241.34283 80.49346 
L 242.063802 80.66395 
L 242.784774 80.08465 
L 243.505747 79.961028 
L 244.226719 82.833975 
L 244.947691 88.469016 
L 245.668663 84.35875 
L 246.389635 85.201767 
L 247.110608 84.471284 
L 247.83158 83.061364 
L 248.552552 83.267028 
L 249.273524 87.786369 
L 249.994497 91.317609 
L 250.715469 86.511828 
L 250.715469 86.511828 
" style="fill:none;stroke:#bc80bd;stroke-linecap:square;stroke-opacity:0.7;stroke-width:2;"/>
   </g>
   <g id="patch_3">
    <path d="M 250.715469 148.929333 
L 250.715469 61.71 
" style="fill:none;stroke:#000000;stroke-linecap:square;stroke-linejoin:miter;stroke-width:0.6;"/>
   </g>
   <g id="patch_4">
    <path d="M 30.097969 148.929333 
L 250.715469 148.929333 
" style="fill:none;stroke:#000000;stroke-linecap:square;stroke-linejoin:miter;stroke-width:0.6;"/>
   </g>
   <g id="text_3">
    <!-- log new cases -->
    <g style="fill:#323034;" transform="translate(161.845469 55.71)scale(0.16 -0.16)">
     <defs>
      <path d="M 1645 0 
L 134 0 
L 134 96 
Q 435 122 531 221 
Q 627 320 627 589 
L 627 3590 
Q 627 3821 569 3910 
Q 512 4000 358 4000 
Q 224 4000 122 3987 
L 122 4090 
Q 730 4237 1133 4371 
L 1165 4346 
L 1165 557 
Q 1165 288 1254 201 
Q 1344 115 1645 96 
L 1645 0 
z
" id="STIXGeneral-Regular-6c" transform="scale(0.015625)"/>
      <path d="M 3008 1478 
Q 3008 806 2608 371 
Q 2208 -64 1568 -64 
Q 979 -64 582 368 
Q 186 800 186 1459 
Q 186 2125 582 2534 
Q 979 2944 1626 2944 
Q 2221 2944 2614 2537 
Q 3008 2131 3008 1478 
z
M 2432 1306 
Q 2432 2035 2112 2445 
Q 1856 2765 1504 2765 
Q 1171 2765 966 2493 
Q 762 2221 762 1747 
Q 762 928 1101 435 
Q 1318 115 1677 115 
Q 2029 115 2230 432 
Q 2432 749 2432 1306 
z
" id="STIXGeneral-Regular-6f" transform="scale(0.015625)"/>
      <path d="M 3008 2483 
L 2477 2483 
Q 2598 2208 2598 1946 
Q 2598 1453 2265 1203 
Q 1933 954 1600 954 
Q 1530 954 1357 973 
L 1235 986 
Q 1107 947 979 812 
Q 851 678 851 582 
Q 851 435 1350 410 
L 2176 371 
Q 2528 358 2739 172 
Q 2950 -13 2950 -314 
Q 2950 -685 2566 -986 
Q 2035 -1395 1286 -1395 
Q 826 -1395 502 -1212 
Q 179 -1030 179 -774 
Q 179 -595 320 -419 
Q 461 -243 806 6 
Q 602 102 534 172 
Q 467 243 467 346 
Q 467 531 762 787 
Q 909 915 1037 1043 
Q 717 1203 579 1401 
Q 442 1600 442 1901 
Q 442 2336 752 2640 
Q 1062 2944 1510 2944 
Q 1766 2944 2022 2848 
L 2163 2797 
Q 2349 2733 2515 2733 
L 3008 2733 
L 3008 2483 
z
M 973 2163 
L 973 2144 
Q 973 1683 1155 1398 
Q 1338 1114 1632 1114 
Q 1850 1114 1978 1270 
Q 2106 1427 2106 1690 
Q 2106 2112 1914 2464 
Q 1754 2765 1446 2765 
Q 1222 2765 1097 2605 
Q 973 2445 973 2163 
z
M 2771 -410 
Q 2771 -230 2595 -163 
Q 2419 -96 1978 -96 
Q 1344 -96 941 -13 
Q 749 -243 688 -348 
Q 627 -454 627 -563 
Q 627 -774 880 -902 
Q 1133 -1030 1555 -1030 
Q 2099 -1030 2435 -860 
Q 2771 -691 2771 -410 
z
" id="STIXGeneral-Regular-67" transform="scale(0.015625)"/>
      <path id="STIXGeneral-Regular-20" transform="scale(0.015625)"/>
      <path d="M 3104 0 
L 1773 0 
L 1779 96 
Q 2016 115 2096 233 
Q 2176 352 2176 672 
L 2176 1946 
Q 2176 2592 1709 2592 
Q 1549 2592 1408 2515 
Q 1267 2438 1050 2227 
L 1050 461 
Q 1050 269 1136 192 
Q 1222 115 1466 96 
L 1466 0 
L 115 0 
L 115 96 
Q 358 115 435 214 
Q 512 314 512 602 
L 512 2157 
Q 512 2394 467 2483 
Q 422 2573 288 2573 
Q 160 2573 102 2547 
L 102 2656 
Q 550 2784 979 2944 
L 1030 2925 
L 1030 2426 
L 1037 2426 
Q 1491 2944 1958 2944 
Q 2323 2944 2518 2688 
Q 2714 2432 2714 1958 
L 2714 544 
Q 2714 288 2790 205 
Q 2867 122 3104 96 
L 3104 0 
z
" id="STIXGeneral-Regular-6e" transform="scale(0.015625)"/>
      <path d="M 2611 1050 
L 2714 1005 
Q 2330 -64 1376 -64 
Q 813 -64 486 329 
Q 160 723 160 1389 
Q 160 2074 525 2509 
Q 890 2944 1485 2944 
Q 2061 2944 2374 2502 
Q 2560 2246 2592 1773 
L 621 1773 
Q 646 1370 700 1158 
Q 755 947 915 730 
Q 1184 378 1626 378 
Q 1939 378 2153 531 
Q 2368 685 2611 1050 
z
M 634 1978 
L 1939 1978 
Q 1882 2381 1750 2547 
Q 1619 2714 1312 2714 
Q 1043 2714 864 2525 
Q 685 2336 634 1978 
z
" id="STIXGeneral-Regular-65" transform="scale(0.015625)"/>
      <path d="M 4442 2880 
L 4442 2784 
Q 4346 2752 4301 2691 
Q 4256 2630 4179 2438 
L 3296 224 
Q 3168 -90 3117 -90 
Q 3085 -90 3062 -48 
Q 3040 -6 2963 186 
L 2381 1696 
L 1664 160 
Q 1549 -90 1504 -90 
Q 1446 -90 1338 192 
L 474 2381 
Q 378 2630 314 2700 
Q 250 2771 134 2784 
L 134 2880 
L 1286 2880 
L 1286 2784 
Q 1120 2765 1056 2720 
Q 992 2675 992 2573 
Q 992 2477 1030 2381 
L 1664 710 
L 2246 1984 
L 2118 2342 
Q 2029 2598 1942 2681 
Q 1856 2765 1677 2784 
L 1677 2880 
L 2976 2880 
L 2976 2784 
Q 2752 2752 2678 2707 
Q 2605 2662 2605 2560 
Q 2605 2458 2714 2176 
L 3251 742 
L 3827 2163 
Q 3936 2432 3936 2592 
Q 3936 2669 3875 2710 
Q 3814 2752 3654 2784 
L 3654 2880 
L 4442 2880 
z
" id="STIXGeneral-Regular-77" transform="scale(0.015625)"/>
      <path d="M 2547 998 
L 2637 941 
Q 2362 403 2112 205 
Q 1786 -64 1376 -64 
Q 845 -64 502 336 
Q 160 736 160 1357 
Q 160 2170 698 2618 
Q 1094 2944 1562 2944 
Q 1965 2944 2256 2749 
Q 2547 2554 2547 2285 
Q 2547 2176 2457 2096 
Q 2368 2016 2246 2016 
Q 2022 2016 1939 2310 
L 1901 2451 
Q 1850 2630 1773 2694 
Q 1696 2758 1523 2758 
Q 1133 2758 893 2451 
Q 653 2144 653 1645 
Q 653 1094 928 745 
Q 1203 397 1645 397 
Q 1920 397 2118 528 
Q 2317 659 2547 998 
z
" id="STIXGeneral-Regular-63" transform="scale(0.015625)"/>
      <path d="M 2829 422 
L 2829 243 
Q 2586 -64 2253 -64 
Q 1888 -64 1843 403 
L 1837 403 
Q 1427 -64 909 -64 
Q 608 -64 422 112 
Q 237 288 237 602 
Q 237 1050 685 1350 
Q 992 1555 1837 1869 
L 1837 2214 
Q 1837 2502 1699 2646 
Q 1562 2790 1338 2790 
Q 1146 2790 1018 2697 
Q 890 2605 890 2477 
Q 890 2419 909 2348 
Q 928 2278 928 2208 
Q 928 2112 841 2029 
Q 755 1946 634 1946 
Q 525 1946 441 2029 
Q 358 2112 358 2240 
Q 358 2547 685 2752 
Q 986 2944 1421 2944 
Q 1939 2944 2176 2656 
Q 2291 2522 2323 2384 
Q 2355 2246 2355 1946 
L 2355 723 
Q 2355 301 2554 301 
Q 2682 301 2829 422 
z
M 1837 813 
L 1837 1715 
Q 1248 1510 1018 1293 
Q 800 1094 800 800 
Q 800 557 921 432 
Q 1043 307 1242 307 
Q 1453 307 1613 410 
Q 1747 506 1792 589 
Q 1837 672 1837 813 
z
" id="STIXGeneral-Regular-61" transform="scale(0.015625)"/>
      <path d="M 998 1926 
L 1664 1523 
Q 1984 1331 2105 1164 
Q 2227 998 2227 736 
Q 2227 416 1961 176 
Q 1696 -64 1331 -64 
Q 1030 -64 864 -6 
Q 691 51 570 51 
Q 461 51 416 -26 
L 333 -26 
L 333 979 
L 435 979 
Q 538 512 730 294 
Q 922 77 1248 77 
Q 1485 77 1632 211 
Q 1779 346 1779 550 
Q 1779 845 1440 1030 
L 1094 1222 
Q 326 1651 326 2150 
Q 326 2522 566 2730 
Q 806 2938 1210 2938 
Q 1491 2938 1638 2867 
Q 1754 2816 1818 2816 
Q 1862 2816 1920 2880 
L 1990 2880 
L 2022 2010 
L 1926 2010 
Q 1818 2445 1654 2621 
Q 1491 2797 1203 2797 
Q 986 2797 854 2688 
Q 723 2579 723 2362 
Q 723 2253 796 2128 
Q 870 2003 998 1926 
z
" id="STIXGeneral-Regular-73" transform="scale(0.015625)"/>
     </defs>
     <use xlink:href="#STIXGeneral-Regular-6c"/>
     <use x="27.799988" xlink:href="#STIXGeneral-Regular-6f"/>
     <use x="77.799973" xlink:href="#STIXGeneral-Regular-67"/>
     <use x="127.799957" xlink:href="#STIXGeneral-Regular-20"/>
     <use x="152.799942" xlink:href="#STIXGeneral-Regular-6e"/>
     <use x="202.799927" xlink:href="#STIXGeneral-Regular-65"/>
     <use x="247.199921" xlink:href="#STIXGeneral-Regular-77"/>
     <use x="319.399902" xlink:href="#STIXGeneral-Regular-20"/>
     <use x="344.399887" xlink:href="#STIXGeneral-Regular-63"/>
     <use x="388.799881" xlink:href="#STIXGeneral-Regular-61"/>
     <use x="433.199875" xlink:href="#STIXGeneral-Regular-73"/>
     <use x="472.099869" xlink:href="#STIXGeneral-Regular-65"/>
     <use x="516.499863" xlink:href="#STIXGeneral-Regular-73"/>
    </g>
   </g>
   <g id="legend_1">
    <g id="patch_5">
     <path d="M 37.097969 93.06 
L 98.427656 93.06 
Q 100.427656 93.06 100.427656 91.06 
L 100.427656 68.71 
Q 100.427656 66.71 98.427656 66.71 
L 37.097969 66.71 
Q 35.097969 66.71 35.097969 68.71 
L 35.097969 91.06 
Q 35.097969 93.06 37.097969 93.06 
z
" style="fill:#ffffff;opacity:0.8;stroke:#e6e6e6;stroke-linejoin:miter;stroke-width:0.8;"/>
    </g>
    <g id="line2d_18">
     <path d="M 37.097969 72.21 
L 57.097969 72.21 
" style="fill:none;stroke:#000000;stroke-dasharray:3.7,1.6;stroke-dashoffset:0;"/>
    </g>
    <g id="line2d_19"/>
    <g id="text_4">
     <!-- Trend -->
     <g style="fill:#323034;" transform="translate(65.097969 75.71)scale(0.1 -0.1)">
      <defs>
       <path d="M 3795 3149 
L 3642 3149 
Q 3539 3674 3353 3821 
Q 3168 3968 2656 3968 
L 2278 3968 
L 2278 710 
Q 2278 346 2387 243 
Q 2496 141 2893 122 
L 2893 0 
L 1024 0 
L 1024 122 
Q 1427 147 1526 256 
Q 1626 365 1626 787 
L 1626 3968 
L 1242 3968 
Q 723 3968 540 3817 
Q 358 3667 262 3149 
L 109 3149 
L 154 4237 
L 3750 4237 
L 3795 3149 
z
" id="STIXGeneral-Regular-54" transform="scale(0.015625)"/>
       <path d="M 1024 2931 
L 1024 2342 
Q 1267 2688 1430 2816 
Q 1594 2944 1792 2944 
Q 1958 2944 2051 2854 
Q 2144 2765 2144 2605 
Q 2144 2470 2077 2393 
Q 2010 2317 1894 2317 
Q 1773 2317 1638 2445 
Q 1536 2541 1472 2541 
Q 1338 2541 1181 2355 
Q 1024 2170 1024 2016 
L 1024 576 
Q 1024 301 1133 205 
Q 1242 109 1568 96 
L 1568 0 
L 32 0 
L 32 96 
Q 339 154 412 224 
Q 486 294 486 538 
L 486 2138 
Q 486 2349 438 2435 
Q 390 2522 269 2522 
Q 166 2522 45 2496 
L 45 2598 
Q 448 2726 992 2944 
L 1024 2931 
z
" id="STIXGeneral-Regular-72" transform="scale(0.015625)"/>
       <path d="M 3142 269 
L 2202 -64 
L 2176 -45 
L 2176 365 
Q 1869 -64 1357 -64 
Q 826 -64 499 317 
Q 173 698 173 1312 
Q 173 1990 563 2467 
Q 954 2944 1504 2944 
Q 1850 2944 2176 2669 
L 2176 3667 
Q 2176 3866 2118 3930 
Q 2061 3994 1882 3994 
Q 1792 3994 1741 3987 
L 1741 4090 
Q 2323 4243 2682 4371 
L 2714 4358 
L 2714 730 
Q 2714 506 2768 435 
Q 2822 365 2995 365 
Q 3034 365 3142 371 
L 3142 269 
z
M 2176 653 
L 2176 2125 
Q 2176 2381 1981 2573 
Q 1786 2765 1523 2765 
Q 1158 2765 940 2438 
Q 723 2112 723 1568 
Q 723 979 963 624 
Q 1203 269 1606 269 
Q 1907 269 2080 474 
Q 2176 582 2176 653 
z
" id="STIXGeneral-Regular-64" transform="scale(0.015625)"/>
      </defs>
      <use xlink:href="#STIXGeneral-Regular-54"/>
      <use x="61.099991" xlink:href="#STIXGeneral-Regular-72"/>
      <use x="94.399979" xlink:href="#STIXGeneral-Regular-65"/>
      <use x="138.799973" xlink:href="#STIXGeneral-Regular-6e"/>
      <use x="188.799957" xlink:href="#STIXGeneral-Regular-64"/>
     </g>
    </g>
    <g id="line2d_20">
     <path d="M 37.097969 85.380313 
L 57.097969 85.380313 
" style="fill:none;stroke:#bc80bd;stroke-linecap:square;stroke-opacity:0.7;stroke-width:2;"/>
    </g>
    <g id="line2d_21"/>
    <g id="text_5">
     <!-- Original -->
     <g style="fill:#323034;" transform="translate(65.097969 88.880313)scale(0.1 -0.1)">
      <defs>
       <path d="M 4403 2118 
Q 4403 1133 3820 521 
Q 3238 -90 2310 -90 
Q 1376 -90 797 524 
Q 218 1139 218 2138 
Q 218 3110 797 3718 
Q 1376 4326 2310 4326 
Q 3245 4326 3824 3702 
Q 4403 3078 4403 2118 
z
M 3674 2157 
Q 3674 2701 3520 3133 
Q 3366 3565 3091 3795 
Q 2733 4096 2304 4096 
Q 1760 4096 1389 3667 
Q 1184 3437 1065 3011 
Q 947 2586 947 2125 
Q 947 960 1523 429 
Q 1837 141 2317 141 
Q 2816 141 3142 448 
Q 3674 960 3674 2157 
z
" id="STIXGeneral-Regular-4f" transform="scale(0.015625)"/>
       <path d="M 1152 4045 
Q 1152 3904 1056 3811 
Q 960 3718 819 3718 
Q 685 3718 592 3811 
Q 499 3904 499 4045 
Q 499 4179 595 4275 
Q 691 4371 826 4371 
Q 966 4371 1059 4275 
Q 1152 4179 1152 4045 
z
M 1619 0 
L 102 0 
L 102 96 
Q 435 115 521 211 
Q 608 307 608 666 
L 608 2118 
Q 608 2342 563 2432 
Q 518 2522 397 2522 
Q 243 2522 128 2490 
L 128 2592 
L 1120 2944 
L 1146 2918 
L 1146 672 
Q 1146 314 1226 218 
Q 1306 122 1619 96 
L 1619 0 
z
" id="STIXGeneral-Regular-69" transform="scale(0.015625)"/>
      </defs>
      <use xlink:href="#STIXGeneral-Regular-4f"/>
      <use x="72.199982" xlink:href="#STIXGeneral-Regular-72"/>
      <use x="105.499969" xlink:href="#STIXGeneral-Regular-69"/>
      <use x="133.299957" xlink:href="#STIXGeneral-Regular-67"/>
      <use x="183.299942" xlink:href="#STIXGeneral-Regular-69"/>
      <use x="211.09993" xlink:href="#STIXGeneral-Regular-6e"/>
      <use x="261.099915" xlink:href="#STIXGeneral-Regular-61"/>
      <use x="305.499908" xlink:href="#STIXGeneral-Regular-6c"/>
     </g>
    </g>
   </g>
  </g>
  <g id="axes_2">
   <g id="patch_6">
    <path d="M 30.097969 254.772417 
L 250.715469 254.772417 
L 250.715469 167.553083 
L 30.097969 167.553083 
z
" style="fill:#ffffff;"/>
   </g>
   <g id="matplotlib.axis_3">
    <g id="xtick_12">
     <g id="line2d_22">
      <g>
       <use style="fill:#323034;stroke:#323034;stroke-width:0.8;" x="30.097969" xlink:href="#mf541c3db70" y="254.772417"/>
      </g>
     </g>
    </g>
    <g id="xtick_13">
     <g id="line2d_23">
      <g>
       <use style="fill:#323034;stroke:#323034;stroke-width:0.8;" x="51.727135" xlink:href="#mf541c3db70" y="254.772417"/>
      </g>
     </g>
    </g>
    <g id="xtick_14">
     <g id="line2d_24">
      <g>
       <use style="fill:#323034;stroke:#323034;stroke-width:0.8;" x="74.077274" xlink:href="#mf541c3db70" y="254.772417"/>
      </g>
     </g>
    </g>
    <g id="xtick_15">
     <g id="line2d_25">
      <g>
       <use style="fill:#323034;stroke:#323034;stroke-width:0.8;" x="95.706441" xlink:href="#mf541c3db70" y="254.772417"/>
      </g>
     </g>
    </g>
    <g id="xtick_16">
     <g id="line2d_26">
      <g>
       <use style="fill:#323034;stroke:#323034;stroke-width:0.8;" x="118.05658" xlink:href="#mf541c3db70" y="254.772417"/>
      </g>
     </g>
    </g>
    <g id="xtick_17">
     <g id="line2d_27">
      <g>
       <use style="fill:#323034;stroke:#323034;stroke-width:0.8;" x="140.406719" xlink:href="#mf541c3db70" y="254.772417"/>
      </g>
     </g>
    </g>
    <g id="xtick_18">
     <g id="line2d_28">
      <g>
       <use style="fill:#323034;stroke:#323034;stroke-width:0.8;" x="162.035885" xlink:href="#mf541c3db70" y="254.772417"/>
      </g>
     </g>
    </g>
    <g id="xtick_19">
     <g id="line2d_29">
      <g>
       <use style="fill:#323034;stroke:#323034;stroke-width:0.8;" x="184.386024" xlink:href="#mf541c3db70" y="254.772417"/>
      </g>
     </g>
    </g>
    <g id="xtick_20">
     <g id="line2d_30">
      <g>
       <use style="fill:#323034;stroke:#323034;stroke-width:0.8;" x="206.015191" xlink:href="#mf541c3db70" y="254.772417"/>
      </g>
     </g>
    </g>
    <g id="xtick_21">
     <g id="line2d_31">
      <g>
       <use style="fill:#323034;stroke:#323034;stroke-width:0.8;" x="228.36533" xlink:href="#mf541c3db70" y="254.772417"/>
      </g>
     </g>
    </g>
    <g id="xtick_22">
     <g id="line2d_32">
      <g>
       <use style="fill:#323034;stroke:#323034;stroke-width:0.8;" x="250.715469" xlink:href="#mf541c3db70" y="254.772417"/>
      </g>
     </g>
    </g>
   </g>
   <g id="matplotlib.axis_4">
    <g id="ytick_5">
     <g id="line2d_33">
      <g>
       <use style="fill:#323034;stroke:#323034;stroke-width:0.8;" x="250.715469" xlink:href="#ma7f8d83011" y="232.967583"/>
      </g>
     </g>
     <g id="text_6">
      <!-- $\mathdefault{−0.25}$ -->
      <g style="fill:#323034;" transform="translate(257.715469 237.065396)scale(0.12 -0.12)">
       <defs>
        <path d="M 3974 1408 
L 410 1408 
L 410 1830 
L 3974 1830 
L 3974 1408 
z
" id="STIXGeneral-Regular-2212" transform="scale(0.015625)"/>
        <path d="M 1158 275 
Q 1158 134 1052 32 
Q 947 -70 800 -70 
Q 653 -70 550 32 
Q 448 134 448 281 
Q 448 429 553 534 
Q 659 640 806 640 
Q 947 640 1052 531 
Q 1158 422 1158 275 
z
" id="STIXGeneral-Regular-2e" transform="scale(0.015625)"/>
        <path d="M 2803 4358 
L 2573 3814 
Q 2534 3731 2400 3731 
L 1158 3731 
L 902 3187 
Q 1606 3053 1920 2896 
Q 2234 2739 2502 2368 
Q 2726 2061 2726 1555 
Q 2726 1094 2576 780 
Q 2426 467 2099 224 
Q 1664 -90 1011 -90 
Q 646 -90 422 19 
Q 198 128 198 307 
Q 198 550 486 550 
Q 717 550 960 352 
Q 1210 147 1414 147 
Q 1747 147 2012 480 
Q 2278 813 2278 1229 
Q 2278 1843 1850 2189 
Q 1293 2637 486 2637 
Q 410 2637 410 2688 
L 416 2720 
L 1114 4237 
L 2438 4237 
Q 2547 4237 2608 4269 
Q 2669 4301 2746 4403 
L 2803 4358 
z
" id="STIXGeneral-Regular-35" transform="scale(0.015625)"/>
       </defs>
       <use transform="translate(0 0.203125)" xlink:href="#STIXGeneral-Regular-2212"/>
       <use transform="translate(68.499985 0.203125)" xlink:href="#STIXGeneral-Regular-30"/>
       <use transform="translate(118.499969 0.203125)" xlink:href="#STIXGeneral-Regular-2e"/>
       <use transform="translate(143.499954 0.203125)" xlink:href="#STIXGeneral-Regular-32"/>
       <use transform="translate(193.499939 0.203125)" xlink:href="#STIXGeneral-Regular-35"/>
      </g>
     </g>
    </g>
    <g id="ytick_6">
     <g id="line2d_34">
      <g>
       <use style="fill:#323034;stroke:#323034;stroke-width:0.8;" x="250.715469" xlink:href="#ma7f8d83011" y="196.626194"/>
      </g>
     </g>
     <g id="text_7">
      <!-- $\mathdefault{0.00}$ -->
      <g style="fill:#323034;" transform="translate(257.715469 200.724007)scale(0.12 -0.12)">
       <use transform="translate(0 0.40625)" xlink:href="#STIXGeneral-Regular-30"/>
       <use transform="translate(49.999985 0.40625)" xlink:href="#STIXGeneral-Regular-2e"/>
       <use transform="translate(74.999969 0.40625)" xlink:href="#STIXGeneral-Regular-30"/>
       <use transform="translate(124.999954 0.40625)" xlink:href="#STIXGeneral-Regular-30"/>
      </g>
     </g>
    </g>
    <g id="ytick_7">
     <g id="line2d_35">
      <g>
       <use style="fill:#323034;stroke:#323034;stroke-width:0.6;" x="250.715469" xlink:href="#ma69c10c090" y="251.138278"/>
      </g>
     </g>
    </g>
    <g id="ytick_8">
     <g id="line2d_36">
      <g>
       <use style="fill:#323034;stroke:#323034;stroke-width:0.6;" x="250.715469" xlink:href="#ma69c10c090" y="214.796889"/>
      </g>
     </g>
    </g>
    <g id="ytick_9">
     <g id="line2d_37">
      <g>
       <use style="fill:#323034;stroke:#323034;stroke-width:0.6;" x="250.715469" xlink:href="#ma69c10c090" y="178.4555"/>
      </g>
     </g>
    </g>
   </g>
   <g id="line2d_38">
    <path clip-path="url(#p696158ee25)" d="M 30.097969 197.366197 
L 30.818941 182.485408 
L 31.539913 177.938368 
L 32.260885 187.508016 
L 32.981858 214.989299 
L 33.70283 211.259511 
L 34.423802 204.92201 
L 35.144774 197.312978 
L 35.865747 182.393664 
L 36.586719 177.781807 
L 37.307691 187.945803 
L 38.028663 214.519589 
L 38.749635 211.61561 
L 40.19158 197.272623 
L 40.912552 182.380949 
L 41.633524 177.487491 
L 42.354497 188.364627 
L 43.075469 214.208847 
L 43.796441 211.874429 
L 45.238385 197.422322 
L 45.959358 182.348125 
L 46.68033 177.18383 
L 47.401302 188.637103 
L 48.122274 213.902457 
L 48.843247 212.427478 
L 49.564219 204.328055 
L 50.285191 197.597744 
L 51.006163 182.321379 
L 51.727135 176.932491 
L 52.448108 189.052565 
L 53.16908 213.711277 
L 53.890052 212.725766 
L 54.611024 203.845759 
L 55.331997 197.770996 
L 56.052969 182.217283 
L 56.773941 176.893852 
L 57.494913 189.29041 
L 58.215885 213.888774 
L 58.936858 212.70642 
L 59.65783 203.402283 
L 60.378802 197.861064 
L 61.099774 182.290561 
L 61.820747 176.78402 
L 62.541719 189.551207 
L 63.262691 214.260136 
L 63.983663 212.173302 
L 64.704635 203.386319 
L 65.425608 197.588012 
L 66.14658 182.68922 
L 66.867552 176.594957 
L 67.588524 189.865226 
L 68.309497 214.353503 
L 69.030469 211.999348 
L 69.751441 203.118459 
L 70.472413 197.391513 
L 71.193385 183.291216 
L 71.914358 176.172756 
L 72.63533 190.119367 
L 73.356302 214.652081 
L 74.077274 211.841044 
L 74.798247 202.815091 
L 75.519219 196.983491 
L 76.240191 183.97396 
L 76.961163 175.734584 
L 77.682135 190.380061 
L 78.403108 214.953014 
L 79.12408 211.928149 
L 79.845052 202.454868 
L 80.566024 196.465188 
L 81.286997 184.273334 
L 82.007969 175.891901 
L 82.728941 190.44747 
L 83.449913 215.29276 
L 84.170885 212.004072 
L 84.891858 201.800148 
L 85.61283 196.311286 
L 86.333802 184.409686 
L 87.054774 175.96339 
L 87.775747 190.850071 
L 88.496719 215.418158 
L 89.217691 211.902419 
L 89.938663 201.393377 
L 90.659635 196.139292 
L 91.380608 184.505445 
L 92.10158 175.871614 
L 92.822552 191.521374 
L 93.543524 215.311353 
L 94.264497 211.883477 
L 94.985469 201.066415 
L 95.706441 195.948975 
L 96.427413 184.575496 
L 97.148385 175.787663 
L 97.869358 192.08985 
L 98.59033 215.39212 
L 99.311302 211.613913 
L 100.032274 200.94645 
L 100.753247 195.704758 
L 101.474219 184.738546 
L 102.195191 175.684649 
L 102.916163 192.543272 
L 103.637135 215.505555 
L 104.358108 211.294568 
L 105.07908 200.828793 
L 105.800052 195.663989 
L 106.521024 184.681064 
L 107.241997 175.690429 
L 107.962969 192.817612 
L 108.683941 215.734878 
L 109.404913 211.038476 
L 110.125885 200.683169 
L 110.846858 195.58395 
L 112.288802 175.503945 
L 113.009774 192.824816 
L 113.730747 216.325655 
L 114.451719 210.640233 
L 115.172691 200.508515 
L 115.893663 195.663602 
L 117.335608 175.253712 
L 118.05658 192.941897 
L 118.777552 216.760735 
L 119.498524 210.32588 
L 120.219497 200.284905 
L 120.940469 195.844785 
L 122.382413 175.017458 
L 123.103385 192.85821 
L 123.824358 217.460859 
L 124.54533 209.75206 
L 125.266302 200.190472 
L 125.987274 195.993736 
L 127.429219 174.735306 
L 128.150191 192.745156 
L 128.871163 218.350785 
L 130.313108 200.203981 
L 131.03408 196.245961 
L 132.476024 174.54476 
L 133.196997 192.59046 
L 133.917969 219.516784 
L 134.638941 207.735272 
L 135.359913 200.404292 
L 136.080885 196.46324 
L 137.52283 174.278764 
L 138.243802 192.736888 
L 138.964774 220.222052 
L 139.685747 206.877702 
L 140.406719 200.283379 
L 141.127691 196.984802 
L 142.569635 173.787746 
L 143.290608 193.176495 
L 144.01158 220.771629 
L 144.732552 205.780504 
L 146.174497 196.531095 
L 147.616441 173.480076 
L 148.337413 193.742004 
L 149.058385 221.531319 
L 149.779358 204.073767 
L 150.50033 201.560355 
L 151.221302 196.175323 
L 151.942274 185.648005 
L 152.663247 173.49436 
L 153.384219 194.167591 
L 154.105191 222.37394 
L 154.826163 202.265372 
L 155.547135 202.328338 
L 156.268108 195.646313 
L 156.98908 185.972091 
L 157.710052 173.515772 
L 158.431024 194.478973 
L 159.151997 222.85618 
L 159.872969 201.513962 
L 160.593941 202.377809 
L 161.314913 195.183274 
L 162.035885 186.158837 
L 162.756858 173.86663 
L 163.47783 194.531975 
L 164.198802 223.672118 
L 164.919774 200.270884 
L 165.640747 202.834964 
L 167.082691 186.313382 
L 167.803663 174.270731 
L 168.524635 194.806608 
L 169.245608 223.6431 
L 169.96658 200.272976 
L 170.687552 202.463516 
L 172.129497 186.536956 
L 172.850469 174.599558 
L 173.571441 195.006622 
L 174.292413 223.852 
L 175.013385 199.904835 
L 175.734358 202.256884 
L 176.45533 193.693952 
L 177.176302 186.830145 
L 177.897274 175.159261 
L 178.618247 194.806385 
L 179.339219 223.989277 
L 180.060191 199.874506 
L 180.781163 201.954925 
L 181.502135 193.105077 
L 182.223108 187.224811 
L 182.94408 175.708161 
L 183.665052 194.810319 
L 184.386024 223.916171 
L 185.106997 199.920002 
L 185.827969 201.616034 
L 186.548941 192.47628 
L 187.269913 187.693513 
L 187.990885 176.351924 
L 188.711858 194.636879 
L 189.43283 223.85067 
L 190.153802 200.093259 
L 190.874774 201.120517 
L 191.595747 191.866524 
L 192.316719 188.276248 
L 193.037691 176.897914 
L 193.758663 194.571993 
L 194.479635 223.677891 
L 195.200608 200.25119 
L 195.92158 200.809434 
L 196.642552 191.005483 
L 197.363524 188.990902 
L 198.084497 177.494605 
L 198.805469 194.422188 
L 199.526441 223.482051 
L 200.247413 200.520704 
L 200.968385 200.455084 
L 201.689358 190.018006 
L 202.41033 189.846403 
L 203.131302 178.10035 
L 203.852274 194.221865 
L 204.573247 223.146426 
L 205.294219 200.944561 
L 206.015191 200.177981 
L 206.736163 189.853299 
L 207.457135 188.821059 
L 208.178108 180.018196 
L 208.89908 193.565773 
L 209.620052 222.877817 
L 210.341024 201.319525 
L 211.061997 200.018818 
L 211.782969 189.599304 
L 212.503941 187.908982 
L 213.224913 181.971892 
L 213.945885 192.830454 
L 214.666858 222.599504 
L 215.38783 201.629087 
L 216.108802 200.07056 
L 216.829774 189.203192 
L 218.271719 184.572653 
L 218.992691 191.587023 
L 219.713663 222.547525 
L 220.434635 201.840672 
L 221.155608 199.938362 
L 221.87658 189.057045 
L 222.597552 185.394826 
L 224.039497 189.779497 
L 224.760469 222.76369 
L 225.481441 202.026305 
L 226.202413 199.713645 
L 226.923385 189.296718 
L 227.644358 184.798821 
L 228.36533 188.309333 
L 229.086302 189.448263 
L 229.807274 222.664217 
L 230.528247 202.266695 
L 231.249219 199.474295 
L 231.970191 189.669741 
L 232.691163 184.857543 
L 233.412135 187.246824 
L 234.133108 190.452753 
L 234.85408 222.202137 
L 235.575052 202.77153 
L 236.296024 199.053834 
L 237.016997 189.967572 
L 237.737969 184.857626 
L 238.458941 186.562094 
L 239.179913 191.150608 
L 239.900885 221.857523 
L 240.621858 203.201801 
L 241.34283 198.716623 
L 242.063802 190.141591 
L 242.784774 184.846376 
L 243.505747 186.120772 
L 244.226719 191.562445 
L 244.947691 222.084419 
L 245.668663 202.725351 
L 246.389635 198.893727 
L 247.110608 190.226639 
L 247.83158 184.798189 
L 248.552552 185.856504 
L 249.273524 191.902345 
L 249.994497 222.145994 
L 250.715469 202.444261 
L 250.715469 202.444261 
" style="fill:none;stroke:#0000ff;stroke-linecap:square;stroke-opacity:0.3;stroke-width:2;"/>
   </g>
   <g id="patch_7">
    <path d="M 250.715469 254.772417 
L 250.715469 167.553083 
" style="fill:none;stroke:#000000;stroke-linecap:square;stroke-linejoin:miter;stroke-width:0.6;"/>
   </g>
   <g id="patch_8">
    <path d="M 30.097969 254.772417 
L 250.715469 254.772417 
" style="fill:none;stroke:#000000;stroke-linecap:square;stroke-linejoin:miter;stroke-width:0.6;"/>
   </g>
   <g id="legend_2">
    <g id="patch_9">
     <path d="M 37.097969 249.772417 
L 100.649531 249.772417 
Q 102.649531 249.772417 102.649531 247.772417 
L 102.649531 238.602104 
Q 102.649531 236.602104 100.649531 236.602104 
L 37.097969 236.602104 
Q 35.097969 236.602104 35.097969 238.602104 
L 35.097969 247.772417 
Q 35.097969 249.772417 37.097969 249.772417 
z
" style="fill:#ffffff;opacity:0.8;stroke:#e6e6e6;stroke-linejoin:miter;stroke-width:0.8;"/>
    </g>
    <g id="line2d_39">
     <path d="M 37.097969 242.102104 
L 57.097969 242.102104 
" style="fill:none;stroke:#0000ff;stroke-linecap:square;stroke-opacity:0.3;stroke-width:2;"/>
    </g>
    <g id="line2d_40"/>
    <g id="text_8">
     <!-- Seasonal -->
     <g style="fill:#323034;" transform="translate(65.097969 245.602104)scale(0.1 -0.1)">
      <defs>
       <path d="M 3002 2963 
L 2842 2963 
Q 2733 3360 2579 3565 
Q 2189 4064 1651 4064 
Q 1357 4064 1181 3894 
Q 1005 3725 1005 3456 
Q 1005 3328 1069 3206 
Q 1133 3085 1206 2998 
Q 1280 2912 1465 2784 
Q 1651 2656 1766 2589 
Q 1882 2522 2150 2362 
Q 2669 2061 2905 1763 
Q 3142 1466 3142 1107 
Q 3142 576 2771 243 
Q 2400 -90 1837 -90 
Q 1421 -90 1082 58 
Q 915 128 781 128 
Q 704 128 653 70 
Q 602 13 602 -83 
L 461 -83 
L 275 1274 
L 416 1274 
Q 845 141 1734 141 
Q 2074 141 2285 342 
Q 2496 544 2496 858 
Q 2496 1158 2310 1363 
Q 2003 1696 1235 2106 
Q 454 2522 454 3206 
Q 454 3718 768 4022 
Q 1082 4326 1568 4326 
Q 1907 4326 2240 4186 
Q 2413 4109 2522 4109 
Q 2688 4109 2726 4326 
L 2861 4326 
L 3002 2963 
z
" id="STIXGeneral-Regular-53" transform="scale(0.015625)"/>
      </defs>
      <use xlink:href="#STIXGeneral-Regular-53"/>
      <use x="55.599991" xlink:href="#STIXGeneral-Regular-65"/>
      <use x="99.999985" xlink:href="#STIXGeneral-Regular-61"/>
      <use x="144.399979" xlink:href="#STIXGeneral-Regular-73"/>
      <use x="183.299973" xlink:href="#STIXGeneral-Regular-6f"/>
      <use x="233.299957" xlink:href="#STIXGeneral-Regular-6e"/>
      <use x="283.299942" xlink:href="#STIXGeneral-Regular-61"/>
      <use x="327.699936" xlink:href="#STIXGeneral-Regular-6c"/>
     </g>
    </g>
   </g>
  </g>
  <g id="axes_3">
   <g id="patch_10">
    <path d="M 30.097969 360.6155 
L 250.715469 360.6155 
L 250.715469 273.396167 
L 30.097969 273.396167 
z
" style="fill:#ffffff;"/>
   </g>
   <g id="matplotlib.axis_5">
    <g id="xtick_23">
     <g id="line2d_41">
      <g>
       <use style="fill:#323034;stroke:#323034;stroke-width:0.8;" x="30.097969" xlink:href="#mf541c3db70" y="360.6155"/>
      </g>
     </g>
     <g id="text_9">
      <!-- Apr -->
      <g style="fill:#323034;" transform="translate(20.767969 375.811125)scale(0.12 -0.12)">
       <defs>
        <path d="M 4525 0 
L 2893 0 
L 2893 122 
Q 3149 122 3245 179 
Q 3334 224 3334 333 
Q 3334 499 3213 781 
L 2950 1382 
L 1274 1382 
L 979 653 
Q 922 506 922 384 
Q 922 237 1027 179 
Q 1133 122 1370 122 
L 1370 0 
L 96 0 
L 96 122 
Q 365 147 486 316 
Q 608 486 902 1190 
L 2221 4314 
L 2349 4314 
L 3923 710 
Q 4064 378 4176 262 
Q 4288 147 4525 122 
L 4525 0 
z
M 2861 1645 
L 2118 3405 
L 1382 1645 
L 2861 1645 
z
" id="STIXGeneral-Regular-41" transform="scale(0.015625)"/>
        <path d="M 1018 2931 
L 1018 2438 
Q 1421 2944 1939 2944 
Q 2406 2944 2707 2560 
Q 3008 2176 3008 1581 
Q 3008 883 2621 409 
Q 2234 -64 1664 -64 
Q 1466 -64 1328 -6 
Q 1190 51 1018 211 
L 1018 -794 
Q 1018 -1094 1120 -1180 
Q 1222 -1267 1581 -1274 
L 1581 -1389 
L 32 -1389 
L 32 -1280 
Q 314 -1254 397 -1171 
Q 480 -1088 480 -838 
L 480 2157 
Q 480 2381 429 2451 
Q 378 2522 218 2522 
Q 115 2522 58 2515 
L 58 2618 
Q 506 2752 979 2944 
L 1018 2931 
z
M 1018 2138 
L 1018 563 
Q 1018 422 1238 281 
Q 1459 141 1683 141 
Q 2029 141 2243 467 
Q 2458 794 2458 1325 
Q 2458 1888 2243 2224 
Q 2029 2560 1670 2560 
Q 1446 2560 1232 2419 
Q 1018 2278 1018 2138 
z
" id="STIXGeneral-Regular-70" transform="scale(0.015625)"/>
       </defs>
       <use xlink:href="#STIXGeneral-Regular-41"/>
       <use x="72.199982" xlink:href="#STIXGeneral-Regular-70"/>
       <use x="122.199966" xlink:href="#STIXGeneral-Regular-72"/>
      </g>
     </g>
    </g>
    <g id="xtick_24">
     <g id="line2d_42">
      <g>
       <use style="fill:#323034;stroke:#323034;stroke-width:0.8;" x="51.727135" xlink:href="#mf541c3db70" y="360.6155"/>
      </g>
     </g>
     <g id="text_10">
      <!-- May -->
      <g style="fill:#323034;" transform="translate(40.728385 375.799875)scale(0.12 -0.12)">
       <defs>
        <path d="M 5530 0 
L 3738 0 
L 3738 122 
Q 4115 147 4214 265 
Q 4314 384 4314 787 
L 4314 3661 
L 2682 0 
L 2592 0 
L 979 3514 
L 979 966 
Q 979 448 1088 294 
Q 1197 141 1574 122 
L 1574 0 
L 77 0 
L 77 122 
Q 358 141 480 205 
Q 602 269 650 432 
Q 698 595 698 966 
L 698 3514 
Q 698 3878 589 3984 
Q 480 4090 90 4115 
L 90 4237 
L 1357 4237 
L 2835 1024 
L 4250 4237 
L 5523 4237 
L 5523 4115 
Q 5178 4109 5072 3993 
Q 4966 3878 4966 3520 
L 4966 717 
Q 4966 378 5072 262 
Q 5178 147 5530 122 
L 5530 0 
z
" id="STIXGeneral-Regular-4d" transform="scale(0.015625)"/>
        <path d="M 3040 2880 
L 3040 2784 
Q 2925 2771 2854 2700 
Q 2784 2630 2720 2458 
L 1760 -160 
Q 1510 -838 1257 -1116 
Q 1005 -1395 640 -1395 
Q 435 -1395 313 -1289 
Q 192 -1184 192 -1024 
Q 192 -902 272 -816 
Q 352 -730 467 -730 
Q 653 -730 800 -813 
Q 883 -858 966 -858 
Q 1101 -858 1286 -576 
Q 1376 -448 1459 -211 
Q 1542 26 1542 115 
Q 1542 198 1274 762 
L 429 2566 
Q 346 2752 90 2790 
L 90 2880 
L 1402 2880 
L 1402 2784 
Q 1197 2778 1117 2739 
Q 1037 2701 1037 2611 
Q 1037 2541 1120 2349 
L 1837 749 
L 2458 2515 
Q 2483 2573 2483 2630 
Q 2483 2784 2189 2784 
L 2189 2880 
L 3040 2880 
z
" id="STIXGeneral-Regular-79" transform="scale(0.015625)"/>
       </defs>
       <use xlink:href="#STIXGeneral-Regular-4d"/>
       <use x="88.899994" xlink:href="#STIXGeneral-Regular-61"/>
       <use x="133.299988" xlink:href="#STIXGeneral-Regular-79"/>
      </g>
     </g>
    </g>
    <g id="xtick_25">
     <g id="line2d_43">
      <g>
       <use style="fill:#323034;stroke:#323034;stroke-width:0.8;" x="74.077274" xlink:href="#mf541c3db70" y="360.6155"/>
      </g>
     </g>
     <g id="text_11">
      <!-- Jun -->
      <g style="fill:#323034;" transform="translate(65.839462 375.811125)scale(0.12 -0.12)">
       <defs>
        <path d="M 2266 4237 
L 2266 4115 
Q 1875 4083 1776 3984 
Q 1677 3885 1677 3514 
L 1677 1184 
Q 1677 -90 608 -90 
Q 314 -90 138 32 
Q -38 154 -38 371 
Q -38 499 54 601 
Q 147 704 275 704 
Q 486 704 589 435 
Q 602 403 621 348 
Q 640 294 649 265 
Q 659 237 678 208 
Q 698 179 723 166 
Q 749 154 787 154 
Q 928 154 976 253 
Q 1024 352 1024 602 
L 1024 3520 
Q 1024 3898 928 3990 
Q 832 4083 429 4115 
L 429 4237 
L 2266 4237 
z
" id="STIXGeneral-Regular-4a" transform="scale(0.015625)"/>
        <path d="M 3072 320 
L 3072 230 
Q 2573 96 2195 -58 
L 2163 -38 
L 2163 486 
L 2150 486 
Q 1747 -64 1235 -64 
Q 870 -64 662 160 
Q 454 384 454 755 
L 454 2362 
Q 454 2598 371 2688 
Q 288 2778 58 2790 
L 58 2880 
L 992 2880 
L 992 813 
Q 992 595 1123 451 
Q 1254 307 1446 307 
Q 1760 307 1984 506 
Q 2067 582 2099 649 
Q 2131 717 2131 877 
L 2131 2355 
Q 2131 2605 2041 2678 
Q 1952 2752 1658 2771 
L 1658 2880 
L 2669 2880 
L 2669 685 
Q 2669 461 2742 390 
Q 2816 320 3034 320 
L 3072 320 
z
" id="STIXGeneral-Regular-75" transform="scale(0.015625)"/>
       </defs>
       <use xlink:href="#STIXGeneral-Regular-4a"/>
       <use x="37.299988" xlink:href="#STIXGeneral-Regular-75"/>
       <use x="87.299973" xlink:href="#STIXGeneral-Regular-6e"/>
      </g>
     </g>
    </g>
    <g id="xtick_26">
     <g id="line2d_44">
      <g>
       <use style="fill:#323034;stroke:#323034;stroke-width:0.8;" x="95.706441" xlink:href="#mf541c3db70" y="360.6155"/>
      </g>
     </g>
     <g id="text_12">
      <!-- Jul -->
      <g style="fill:#323034;" transform="translate(88.800816 375.811125)scale(0.12 -0.12)">
       <use xlink:href="#STIXGeneral-Regular-4a"/>
       <use x="37.299988" xlink:href="#STIXGeneral-Regular-75"/>
       <use x="87.299973" xlink:href="#STIXGeneral-Regular-6c"/>
      </g>
     </g>
    </g>
    <g id="xtick_27">
     <g id="line2d_45">
      <g>
       <use style="fill:#323034;stroke:#323034;stroke-width:0.8;" x="118.05658" xlink:href="#mf541c3db70" y="360.6155"/>
      </g>
     </g>
     <g id="text_13">
      <!-- Aug -->
      <g style="fill:#323034;" transform="translate(107.724392 375.799875)scale(0.12 -0.12)">
       <use xlink:href="#STIXGeneral-Regular-41"/>
       <use x="72.199982" xlink:href="#STIXGeneral-Regular-75"/>
       <use x="122.199966" xlink:href="#STIXGeneral-Regular-67"/>
      </g>
     </g>
    </g>
    <g id="xtick_28">
     <g id="line2d_46">
      <g>
       <use style="fill:#323034;stroke:#323034;stroke-width:0.8;" x="140.406719" xlink:href="#mf541c3db70" y="360.6155"/>
      </g>
     </g>
     <g id="text_14">
      <!-- Sep -->
      <g style="fill:#323034;" transform="translate(131.406719 375.811125)scale(0.12 -0.12)">
       <use xlink:href="#STIXGeneral-Regular-53"/>
       <use x="55.599991" xlink:href="#STIXGeneral-Regular-65"/>
       <use x="99.999985" xlink:href="#STIXGeneral-Regular-70"/>
      </g>
     </g>
    </g>
    <g id="xtick_29">
     <g id="line2d_47">
      <g>
       <use style="fill:#323034;stroke:#323034;stroke-width:0.8;" x="162.035885" xlink:href="#mf541c3db70" y="360.6155"/>
      </g>
     </g>
     <g id="text_15">
      <!-- Oct -->
      <g style="fill:#323034;" transform="translate(153.37151 375.811125)scale(0.12 -0.12)">
       <defs>
        <path d="M 1702 493 
L 1786 422 
Q 1478 -64 1011 -64 
Q 448 -64 448 749 
L 448 2675 
L 109 2675 
Q 83 2694 83 2720 
Q 83 2771 192 2842 
Q 435 2982 813 3526 
Q 826 3546 874 3606 
Q 922 3667 941 3706 
Q 986 3706 986 3622 
L 986 2880 
L 1632 2880 
L 1632 2675 
L 986 2675 
L 986 845 
Q 986 538 1062 403 
Q 1139 269 1318 269 
Q 1510 269 1702 493 
z
" id="STIXGeneral-Regular-74" transform="scale(0.015625)"/>
       </defs>
       <use xlink:href="#STIXGeneral-Regular-4f"/>
       <use x="72.199982" xlink:href="#STIXGeneral-Regular-63"/>
       <use x="116.599976" xlink:href="#STIXGeneral-Regular-74"/>
      </g>
     </g>
    </g>
    <g id="xtick_30">
     <g id="line2d_48">
      <g>
       <use style="fill:#323034;stroke:#323034;stroke-width:0.8;" x="184.386024" xlink:href="#mf541c3db70" y="360.6155"/>
      </g>
     </g>
     <g id="text_16">
      <!-- Nov -->
      <g style="fill:#323034;" transform="translate(174.053837 375.811125)scale(0.12 -0.12)">
       <defs>
        <path d="M 4525 4237 
L 4525 4115 
Q 4198 4083 4102 4000 
Q 4000 3910 3958 3756 
Q 3917 3603 3917 3245 
L 3917 -70 
L 3802 -70 
L 979 3443 
L 979 960 
Q 979 474 1088 323 
Q 1197 173 1574 122 
L 1574 0 
L 77 0 
L 77 122 
Q 474 166 586 310 
Q 698 454 698 960 
L 698 3776 
Q 531 3981 416 4048 
Q 301 4115 77 4115 
L 77 4237 
L 1165 4237 
L 3635 1146 
L 3635 3322 
Q 3635 3808 3514 3949 
Q 3437 4032 3344 4061 
Q 3251 4090 3008 4115 
L 3008 4237 
L 4525 4237 
z
" id="STIXGeneral-Regular-4e" transform="scale(0.015625)"/>
        <path d="M 3053 2880 
L 3053 2784 
Q 2906 2771 2835 2688 
Q 2765 2605 2637 2285 
L 1818 230 
Q 1690 -90 1638 -90 
Q 1587 -90 1523 77 
Q 1510 96 1497 141 
Q 1485 186 1472 211 
L 704 2048 
Q 499 2534 403 2652 
Q 307 2771 122 2784 
L 122 2880 
L 1376 2880 
L 1376 2784 
Q 1210 2771 1146 2732 
Q 1082 2694 1082 2611 
Q 1082 2509 1139 2368 
L 1792 730 
L 2426 2387 
Q 2464 2483 2464 2579 
Q 2464 2758 2163 2784 
L 2163 2880 
L 3053 2880 
z
" id="STIXGeneral-Regular-76" transform="scale(0.015625)"/>
       </defs>
       <use xlink:href="#STIXGeneral-Regular-4e"/>
       <use x="72.199982" xlink:href="#STIXGeneral-Regular-6f"/>
       <use x="122.199966" xlink:href="#STIXGeneral-Regular-76"/>
      </g>
     </g>
    </g>
    <g id="xtick_31">
     <g id="line2d_49">
      <g>
       <use style="fill:#323034;stroke:#323034;stroke-width:0.8;" x="206.015191" xlink:href="#mf541c3db70" y="360.6155"/>
      </g>
     </g>
     <g id="text_17">
      <!-- Dec -->
      <g style="fill:#323034;" transform="translate(196.354253 375.811125)scale(0.12 -0.12)">
       <defs>
        <path d="M 102 4237 
L 1830 4237 
Q 3078 4237 3750 3654 
Q 4384 3110 4384 2138 
Q 4384 966 3514 410 
Q 2880 0 1901 0 
L 102 0 
L 102 122 
Q 474 147 570 252 
Q 666 358 666 736 
L 666 3520 
Q 666 3891 570 3990 
Q 474 4090 102 4115 
L 102 4237 
z
M 1318 3731 
L 1318 538 
Q 1318 365 1379 301 
Q 1440 237 1626 237 
Q 2125 237 2432 307 
Q 2739 378 3021 570 
Q 3686 1018 3686 2099 
Q 3686 3027 3078 3558 
Q 2803 3802 2476 3901 
Q 2150 4000 1658 4000 
Q 1472 4000 1395 3942 
Q 1318 3885 1318 3731 
z
" id="STIXGeneral-Regular-44" transform="scale(0.015625)"/>
       </defs>
       <use xlink:href="#STIXGeneral-Regular-44"/>
       <use x="72.199982" xlink:href="#STIXGeneral-Regular-65"/>
       <use x="116.599976" xlink:href="#STIXGeneral-Regular-63"/>
      </g>
     </g>
    </g>
    <g id="xtick_32">
     <g id="line2d_50">
      <g>
       <use style="fill:#323034;stroke:#323034;stroke-width:0.8;" x="228.36533" xlink:href="#mf541c3db70" y="360.6155"/>
      </g>
     </g>
     <g id="text_18">
      <!-- Jan -->
      <g style="fill:#323034;" transform="translate(220.463142 375.811125)scale(0.12 -0.12)">
       <use xlink:href="#STIXGeneral-Regular-4a"/>
       <use x="37.299988" xlink:href="#STIXGeneral-Regular-61"/>
       <use x="81.699982" xlink:href="#STIXGeneral-Regular-6e"/>
      </g>
      <!-- 2021 -->
      <g style="fill:#323034;" transform="translate(216.36533 388.25025)scale(0.12 -0.12)">
       <use xlink:href="#STIXGeneral-Regular-32"/>
       <use x="49.999985" xlink:href="#STIXGeneral-Regular-30"/>
       <use x="99.999969" xlink:href="#STIXGeneral-Regular-32"/>
       <use x="149.999954" xlink:href="#STIXGeneral-Regular-31"/>
      </g>
     </g>
    </g>
    <g id="xtick_33">
     <g id="line2d_51">
      <g>
       <use style="fill:#323034;stroke:#323034;stroke-width:0.8;" x="250.715469" xlink:href="#mf541c3db70" y="360.6155"/>
      </g>
     </g>
     <g id="text_19">
      <!-- Feb -->
      <g style="fill:#323034;" transform="translate(241.715469 375.811125)scale(0.12 -0.12)">
       <defs>
        <path d="M 3494 3322 
L 3334 3322 
Q 3264 3757 3094 3875 
Q 2925 3994 2349 3994 
L 1504 3994 
Q 1370 3994 1328 3946 
Q 1286 3898 1286 3744 
L 1286 2355 
L 2195 2355 
Q 2598 2355 2736 2470 
Q 2874 2586 2918 2963 
L 3066 2963 
L 3066 1472 
L 2918 1472 
Q 2880 1862 2745 1977 
Q 2611 2093 2195 2093 
L 1286 2093 
L 1286 717 
Q 1286 352 1392 246 
Q 1498 141 1869 122 
L 1869 0 
L 70 0 
L 70 122 
Q 435 147 534 259 
Q 634 371 634 787 
L 634 3526 
Q 634 3878 538 3984 
Q 442 4090 77 4115 
L 77 4237 
L 3462 4237 
L 3494 3322 
z
" id="STIXGeneral-Regular-46" transform="scale(0.015625)"/>
        <path d="M 979 4358 
L 979 2406 
Q 1082 2650 1315 2797 
Q 1549 2944 1843 2944 
Q 2349 2944 2672 2541 
Q 2995 2138 2995 1536 
Q 2995 832 2566 384 
Q 2138 -64 1498 -64 
Q 1107 -64 774 67 
Q 442 198 442 358 
L 442 3622 
Q 442 3859 384 3926 
Q 326 3994 128 3994 
Q 83 3994 19 3981 
L 19 4090 
L 211 4147 
Q 864 4346 947 4371 
L 979 4358 
z
M 979 2035 
L 979 474 
Q 979 326 1161 233 
Q 1344 141 1600 141 
Q 1978 141 2195 416 
Q 2432 710 2432 1261 
Q 2432 1888 2182 2240 
Q 1971 2541 1613 2541 
Q 1357 2541 1168 2390 
Q 979 2240 979 2035 
z
" id="STIXGeneral-Regular-62" transform="scale(0.015625)"/>
       </defs>
       <use xlink:href="#STIXGeneral-Regular-46"/>
       <use x="55.599991" xlink:href="#STIXGeneral-Regular-65"/>
       <use x="99.999985" xlink:href="#STIXGeneral-Regular-62"/>
      </g>
     </g>
    </g>
   </g>
   <g id="matplotlib.axis_6">
    <g id="ytick_10">
     <g id="line2d_52">
      <g>
       <use style="fill:#323034;stroke:#323034;stroke-width:0.8;" x="250.715469" xlink:href="#ma7f8d83011" y="360.6155"/>
      </g>
     </g>
     <g id="text_20">
      <!-- $\mathdefault{−1.0}$ -->
      <g style="fill:#323034;" transform="translate(257.715469 364.713313)scale(0.12 -0.12)">
       <use transform="translate(0 0.40625)" xlink:href="#STIXGeneral-Regular-2212"/>
       <use transform="translate(68.499985 0.40625)" xlink:href="#STIXGeneral-Regular-31"/>
       <use transform="translate(118.499969 0.40625)" xlink:href="#STIXGeneral-Regular-2e"/>
       <use transform="translate(143.499954 0.40625)" xlink:href="#STIXGeneral-Regular-30"/>
      </g>
     </g>
    </g>
    <g id="ytick_11">
     <g id="line2d_53">
      <g>
       <use style="fill:#323034;stroke:#323034;stroke-width:0.8;" x="250.715469" xlink:href="#ma7f8d83011" y="331.542389"/>
      </g>
     </g>
     <g id="text_21">
      <!-- $\mathdefault{−0.5}$ -->
      <g style="fill:#323034;" transform="translate(257.715469 335.640201)scale(0.12 -0.12)">
       <use transform="translate(0 0.203125)" xlink:href="#STIXGeneral-Regular-2212"/>
       <use transform="translate(68.499985 0.203125)" xlink:href="#STIXGeneral-Regular-30"/>
       <use transform="translate(118.499969 0.203125)" xlink:href="#STIXGeneral-Regular-2e"/>
       <use transform="translate(143.499954 0.203125)" xlink:href="#STIXGeneral-Regular-35"/>
      </g>
     </g>
    </g>
    <g id="ytick_12">
     <g id="line2d_54">
      <g>
       <use style="fill:#323034;stroke:#323034;stroke-width:0.8;" x="250.715469" xlink:href="#ma7f8d83011" y="302.469278"/>
      </g>
     </g>
     <g id="text_22">
      <!-- $\mathdefault{0.0}$ -->
      <g style="fill:#323034;" transform="translate(257.715469 306.56709)scale(0.12 -0.12)">
       <use transform="translate(0 0.40625)" xlink:href="#STIXGeneral-Regular-30"/>
       <use transform="translate(49.999985 0.40625)" xlink:href="#STIXGeneral-Regular-2e"/>
       <use transform="translate(74.999969 0.40625)" xlink:href="#STIXGeneral-Regular-30"/>
      </g>
     </g>
    </g>
    <g id="ytick_13">
     <g id="line2d_55">
      <g>
       <use style="fill:#323034;stroke:#323034;stroke-width:0.8;" x="250.715469" xlink:href="#ma7f8d83011" y="273.396167"/>
      </g>
     </g>
     <g id="text_23">
      <!-- $\mathdefault{0.5}$ -->
      <g style="fill:#323034;" transform="translate(257.715469 277.493979)scale(0.12 -0.12)">
       <use transform="translate(0 0.203125)" xlink:href="#STIXGeneral-Regular-30"/>
       <use transform="translate(49.999985 0.203125)" xlink:href="#STIXGeneral-Regular-2e"/>
       <use transform="translate(74.999969 0.203125)" xlink:href="#STIXGeneral-Regular-35"/>
      </g>
     </g>
    </g>
    <g id="ytick_14">
     <g id="line2d_56">
      <g>
       <use style="fill:#323034;stroke:#323034;stroke-width:0.6;" x="250.715469" xlink:href="#ma69c10c090" y="346.078944"/>
      </g>
     </g>
    </g>
    <g id="ytick_15">
     <g id="line2d_57">
      <g>
       <use style="fill:#323034;stroke:#323034;stroke-width:0.6;" x="250.715469" xlink:href="#ma69c10c090" y="317.005833"/>
      </g>
     </g>
    </g>
    <g id="ytick_16">
     <g id="line2d_58">
      <g>
       <use style="fill:#323034;stroke:#323034;stroke-width:0.6;" x="250.715469" xlink:href="#ma69c10c090" y="287.932722"/>
      </g>
     </g>
    </g>
   </g>
   <g id="line2d_59">
    <path clip-path="url(#p2c12b2b87f)" d="M 30.097969 305.552146 
L 30.818941 306.714889 
L 31.539913 304.567607 
L 32.260885 296.771804 
L 32.981858 304.770849 
L 33.70283 295.823304 
L 34.423802 299.723399 
L 35.144774 300.032908 
L 35.865747 300.80659 
L 36.586719 304.431554 
L 37.307691 303.086454 
L 38.028663 301.057218 
L 38.749635 304.763379 
L 39.470608 304.959803 
L 40.19158 300.776236 
L 40.912552 303.449582 
L 41.633524 305.397413 
L 42.354497 307.0081 
L 43.796441 299.82624 
L 44.517413 306.929291 
L 45.238385 302.886242 
L 46.68033 296.875587 
L 47.401302 295.867629 
L 48.122274 300.018468 
L 48.843247 308.325954 
L 49.564219 307.441925 
L 51.006163 302.861812 
L 51.727135 297.741875 
L 52.448108 300.295872 
L 53.16908 296.441657 
L 53.890052 305.888873 
L 54.611024 303.876233 
L 55.331997 303.264181 
L 56.052969 299.650912 
L 56.773941 302.437128 
L 57.494913 302.654814 
L 58.215885 303.700555 
L 58.936858 311.740763 
L 59.65783 301.244682 
L 60.378802 306.172745 
L 61.099774 297.999882 
L 61.820747 301.56639 
L 62.541719 302.27433 
L 63.262691 304.902501 
L 63.983663 297.50088 
L 64.704635 303.057469 
L 65.425608 299.525941 
L 66.14658 298.756352 
L 66.867552 305.322915 
L 67.588524 303.478146 
L 68.309497 299.472994 
L 69.030469 302.871668 
L 69.751441 306.834961 
L 70.472413 309.517141 
L 71.193385 304.567814 
L 71.914358 302.531787 
L 73.356302 297.543761 
L 74.077274 295.252923 
L 74.798247 301.816181 
L 75.519219 306.328195 
L 76.240191 306.861411 
L 76.961163 293.563067 
L 77.682135 301.749241 
L 78.403108 302.961897 
L 79.845052 307.784425 
L 80.566024 299.368877 
L 81.286997 304.100475 
L 82.007969 302.950469 
L 82.728941 298.703932 
L 83.449913 306.550759 
L 84.170885 306.664162 
L 84.891858 300.370803 
L 85.61283 303.023152 
L 86.333802 305.022785 
L 87.054774 305.557809 
L 87.775747 300.202409 
L 88.496719 304.541456 
L 89.217691 300.502905 
L 89.938663 299.448453 
L 90.659635 301.273434 
L 91.380608 302.437331 
L 92.10158 302.673749 
L 92.822552 303.192476 
L 93.543524 300.001318 
L 94.264497 303.577509 
L 94.985469 298.111553 
L 95.706441 300.113789 
L 96.427413 300.171377 
L 97.148385 303.584269 
L 97.869358 306.309391 
L 98.59033 304.883484 
L 99.311302 304.636229 
L 100.753247 300.632983 
L 101.474219 306.013163 
L 102.195191 303.436784 
L 102.916163 304.785571 
L 103.637135 299.673292 
L 104.358108 298.742116 
L 105.07908 300.092977 
L 105.800052 300.434839 
L 106.521024 299.359862 
L 107.241997 307.044785 
L 107.962969 307.793016 
L 108.683941 298.903318 
L 109.404913 303.054466 
L 110.125885 302.077018 
L 110.846858 300.052186 
L 111.56783 303.788836 
L 112.288802 304.266441 
L 113.009774 302.4441 
L 113.730747 304.585967 
L 114.451719 301.110443 
L 115.172691 300.661565 
L 115.893663 298.446434 
L 116.614635 299.894457 
L 117.335608 302.612199 
L 118.05658 305.83425 
L 118.777552 301.81284 
L 119.498524 307.353947 
L 120.219497 303.533748 
L 120.940469 304.374084 
L 121.661441 304.051503 
L 122.382413 303.912189 
L 123.103385 302.11694 
L 123.824358 299.262149 
L 124.54533 303.255157 
L 125.266302 299.139106 
L 125.987274 298.917487 
L 126.708247 302.421853 
L 127.429219 299.925972 
L 128.150191 300.735135 
L 128.871163 300.041874 
L 129.592135 309.309041 
L 130.313108 303.436528 
L 131.03408 304.303593 
L 131.755052 303.90989 
L 132.476024 303.767369 
L 133.196997 300.902698 
L 133.917969 308.902261 
L 134.638941 300.279192 
L 135.359913 304.6675 
L 136.080885 297.466457 
L 136.801858 301.243557 
L 137.52283 303.970079 
L 138.243802 298.578065 
L 138.964774 303.76365 
L 139.685747 303.332041 
L 140.406719 294.25494 
L 141.127691 312.501305 
L 141.848663 295.561102 
L 142.569635 292.410531 
L 143.290608 295.874951 
L 144.01158 303.881705 
L 144.732552 319.469135 
L 146.174497 306.810693 
L 146.895469 304.089696 
L 147.616441 296.734368 
L 148.337413 300.994778 
L 149.058385 300.207 
L 149.779358 302.411267 
L 150.50033 300.947817 
L 151.221302 304.081595 
L 151.942274 300.965114 
L 152.663247 302.305664 
L 153.384219 303.903372 
L 154.105191 301.380689 
L 154.826163 285.85585 
L 155.547135 308.465818 
L 156.268108 305.152705 
L 156.98908 304.219753 
L 157.710052 298.331734 
L 158.431024 304.329763 
L 159.151997 301.005754 
L 159.872969 309.721194 
L 160.593941 300.697854 
L 161.314913 306.383284 
L 162.035885 305.003158 
L 162.756858 302.46129 
L 163.47783 301.840328 
L 164.198802 309.215556 
L 164.919774 286.105738 
L 165.640747 307.920199 
L 166.361719 299.839595 
L 167.082691 300.469487 
L 167.803663 303.589809 
L 168.524635 303.994359 
L 169.245608 301.706722 
L 169.96658 308.002918 
L 170.687552 300.941499 
L 172.129497 298.871808 
L 172.850469 300.428851 
L 173.571441 310.315645 
L 174.292413 305.761842 
L 175.013385 298.623961 
L 175.734358 303.674003 
L 176.45533 305.284779 
L 177.176302 300.55018 
L 177.897274 299.476701 
L 178.618247 298.01346 
L 179.339219 303.916466 
L 180.060191 302.229083 
L 180.781163 303.277337 
L 181.502135 302.993118 
L 182.223108 301.268555 
L 182.94408 302.215161 
L 183.665052 306.584322 
L 185.106997 302.798183 
L 185.827969 305.651804 
L 186.548941 302.85455 
L 187.269913 300.74427 
L 187.990885 302.748194 
L 188.711858 301.224561 
L 189.43283 303.61741 
L 190.153802 302.139768 
L 190.874774 300.109175 
L 191.595747 304.732715 
L 192.316719 300.290217 
L 193.037691 300.60716 
L 193.758663 302.753324 
L 194.479635 301.835725 
L 195.200608 300.08614 
L 195.92158 302.362337 
L 196.642552 303.077565 
L 197.363524 299.231101 
L 198.084497 300.466265 
L 198.805469 302.02812 
L 199.526441 301.76734 
L 200.247413 296.463274 
L 200.968385 296.727728 
L 201.689358 299.779108 
L 202.41033 332.515079 
L 203.131302 297.392288 
L 203.852274 309.608586 
L 204.573247 305.381237 
L 205.294219 303.571743 
L 206.015191 299.998266 
L 206.736163 300.679976 
L 207.457135 298.140294 
L 208.178108 299.687191 
L 208.89908 302.527488 
L 209.620052 302.509403 
L 210.341024 302.141219 
L 211.061997 299.413375 
L 211.782969 304.294712 
L 212.503941 304.048606 
L 213.224913 293.973781 
L 213.945885 307.244343 
L 214.666858 302.182774 
L 215.38783 305.287054 
L 216.108802 304.856429 
L 216.829774 297.789482 
L 217.550747 299.74101 
L 218.271719 296.455448 
L 218.992691 307.607428 
L 219.713663 298.40752 
L 220.434635 298.881976 
L 221.155608 298.420146 
L 221.87658 294.620308 
L 222.597552 304.740407 
L 223.318524 341.329791 
L 224.039497 296.194285 
L 224.760469 304.321703 
L 225.481441 301.06123 
L 226.202413 299.776305 
L 226.923385 297.963453 
L 227.644358 300.96172 
L 228.36533 327.581824 
L 229.086302 289.32269 
L 229.807274 299.254935 
L 230.528247 296.104748 
L 231.249219 302.495441 
L 231.970191 302.351849 
L 232.691163 299.495388 
L 233.412135 294.523287 
L 234.133108 303.181004 
L 234.85408 300.775703 
L 235.575052 302.608452 
L 236.296024 301.751038 
L 237.016997 303.897213 
L 237.737969 301.57642 
L 238.458941 298.846733 
L 239.179913 304.898961 
L 239.900885 300.631959 
L 240.621858 316.984376 
L 241.34283 300.623316 
L 242.063802 302.818113 
L 242.784774 301.802936 
L 243.505747 299.455138 
L 244.226719 303.495219 
L 244.947691 304.939927 
L 245.668663 300.420013 
L 246.389635 302.94843 
L 247.110608 303.261596 
L 247.83158 300.506326 
L 248.552552 299.489574 
L 249.273524 308.007317 
L 249.994497 304.261843 
L 250.715469 298.294841 
L 250.715469 298.294841 
" style="fill:none;stroke:#ff0000;stroke-linecap:square;stroke-opacity:0.4;stroke-width:2;"/>
   </g>
   <g id="patch_11">
    <path d="M 250.715469 360.6155 
L 250.715469 273.396167 
" style="fill:none;stroke:#000000;stroke-linecap:square;stroke-linejoin:miter;stroke-width:0.6;"/>
   </g>
   <g id="patch_12">
    <path d="M 30.097969 360.6155 
L 250.715469 360.6155 
" style="fill:none;stroke:#000000;stroke-linecap:square;stroke-linejoin:miter;stroke-width:0.6;"/>
   </g>
   <g id="legend_3">
    <g id="patch_13">
     <path d="M 37.097969 291.566479 
L 86.196406 291.566479 
Q 88.196406 291.566479 88.196406 289.566479 
L 88.196406 280.396167 
Q 88.196406 278.396167 86.196406 278.396167 
L 37.097969 278.396167 
Q 35.097969 278.396167 35.097969 280.396167 
L 35.097969 289.566479 
Q 35.097969 291.566479 37.097969 291.566479 
z
" style="fill:#ffffff;opacity:0.8;stroke:#e6e6e6;stroke-linejoin:miter;stroke-width:0.8;"/>
    </g>
    <g id="line2d_60">
     <path d="M 37.097969 283.896167 
L 57.097969 283.896167 
" style="fill:none;stroke:#ff0000;stroke-linecap:square;stroke-opacity:0.4;stroke-width:2;"/>
    </g>
    <g id="line2d_61"/>
    <g id="text_24">
     <!-- Error -->
     <g style="fill:#323034;" transform="translate(65.097969 287.396167)scale(0.1 -0.1)">
      <defs>
       <path d="M 3821 1082 
L 3526 0 
L 77 0 
L 77 122 
Q 442 147 538 252 
Q 634 358 634 730 
L 634 3520 
Q 634 3878 534 3987 
Q 435 4096 77 4115 
L 77 4237 
L 3469 4237 
L 3494 3322 
L 3334 3322 
Q 3264 3750 3085 3872 
Q 2906 3994 2349 3994 
L 1510 3994 
Q 1370 3994 1328 3952 
Q 1286 3910 1286 3763 
L 1286 2355 
L 2253 2355 
Q 2656 2355 2787 2470 
Q 2918 2586 2976 2970 
L 3123 2970 
L 3123 1472 
L 2976 1472 
Q 2918 1875 2790 1984 
Q 2662 2093 2253 2093 
L 1286 2093 
L 1286 538 
Q 1286 346 1420 291 
Q 1555 237 1933 237 
L 2163 237 
Q 2848 237 3136 403 
Q 3424 570 3642 1082 
L 3821 1082 
z
" id="STIXGeneral-Regular-45" transform="scale(0.015625)"/>
      </defs>
      <use xlink:href="#STIXGeneral-Regular-45"/>
      <use x="61.099991" xlink:href="#STIXGeneral-Regular-72"/>
      <use x="94.399979" xlink:href="#STIXGeneral-Regular-72"/>
      <use x="127.699966" xlink:href="#STIXGeneral-Regular-6f"/>
      <use x="177.699951" xlink:href="#STIXGeneral-Regular-72"/>
     </g>
    </g>
   </g>
  </g>
  <g id="text_25">
   <!-- Unobserved Components (smooth trend) -->
   <g style="fill:#323034;" transform="translate(7.2 19.493437)scale(0.18 -0.18)">
    <defs>
     <path d="M 4512 4237 
L 4512 4115 
Q 4122 4077 4016 3926 
Q 3910 3776 3910 3302 
L 3910 1670 
Q 3910 1178 3840 896 
Q 3770 614 3565 378 
Q 3155 -90 2272 -90 
Q 1574 -90 1184 205 
Q 666 589 666 1594 
L 666 3578 
Q 666 3898 566 3994 
Q 467 4090 90 4115 
L 90 4237 
L 1901 4237 
L 1901 4115 
Q 1517 4083 1417 3977 
Q 1318 3872 1318 3514 
L 1318 1517 
Q 1318 1101 1369 877 
Q 1421 653 1600 480 
Q 1901 192 2419 192 
Q 3066 192 3392 570 
Q 3539 749 3584 963 
Q 3629 1178 3629 1600 
L 3629 3283 
Q 3629 3782 3520 3936 
Q 3411 4090 3027 4115 
L 3027 4237 
L 4512 4237 
z
" id="STIXGeneral-Regular-55" transform="scale(0.015625)"/>
     <path d="M 3930 838 
L 4051 723 
Q 3482 -90 2304 -90 
Q 1376 -90 794 480 
Q 179 1082 179 2080 
Q 179 3014 755 3661 
Q 1357 4326 2310 4326 
Q 2720 4326 3072 4230 
Q 3475 4115 3514 4115 
Q 3725 4115 3782 4326 
L 3910 4326 
L 3968 2874 
L 3821 2874 
Q 3718 3334 3488 3584 
Q 3034 4070 2458 4070 
Q 1747 4070 1334 3548 
Q 922 3027 922 2182 
Q 922 1152 1382 653 
Q 1811 192 2522 192 
Q 2944 192 3251 339 
Q 3558 486 3930 838 
z
" id="STIXGeneral-Regular-43" transform="scale(0.015625)"/>
     <path d="M 4960 0 
L 3565 0 
L 3565 96 
Q 3834 122 3907 208 
Q 3981 294 3981 576 
L 3981 1894 
Q 3981 2278 3869 2444 
Q 3757 2611 3488 2611 
Q 3264 2611 3107 2521 
Q 2950 2432 2803 2221 
L 2803 608 
Q 2803 301 2896 201 
Q 2989 102 3264 96 
L 3264 0 
L 1830 0 
L 1830 96 
Q 2112 115 2189 188 
Q 2266 262 2266 550 
L 2266 1901 
Q 2266 2611 1850 2611 
Q 1670 2611 1468 2531 
Q 1267 2451 1171 2336 
Q 1088 2240 1088 2227 
L 1088 448 
Q 1088 243 1177 176 
Q 1267 109 1523 96 
L 1523 0 
L 102 0 
L 102 96 
Q 371 102 460 195 
Q 550 288 550 563 
L 550 2150 
Q 550 2387 499 2480 
Q 448 2573 326 2573 
Q 230 2573 122 2547 
L 122 2656 
Q 557 2778 1011 2944 
L 1062 2925 
L 1062 2451 
L 1075 2451 
Q 1363 2752 1584 2848 
Q 1805 2944 2054 2944 
Q 2560 2944 2733 2406 
Q 3232 2944 3776 2944 
Q 4518 2944 4518 1792 
L 4518 493 
Q 4518 282 4582 202 
Q 4646 122 4794 109 
L 4960 96 
L 4960 0 
z
" id="STIXGeneral-Regular-6d" transform="scale(0.015625)"/>
     <path d="M 1946 -1030 
L 1869 -1133 
Q 1126 -710 716 32 
Q 307 774 307 1613 
Q 307 3386 1888 4326 
L 1946 4224 
Q 1293 3667 1075 3126 
Q 858 2586 858 1632 
Q 858 685 1082 96 
Q 1306 -493 1946 -1030 
z
" id="STIXGeneral-Regular-28" transform="scale(0.015625)"/>
     <path d="M 3117 0 
L 1760 0 
L 1760 96 
Q 2042 128 2118 224 
Q 2195 320 2195 653 
L 2195 1920 
Q 2195 2598 1722 2598 
Q 1530 2598 1370 2508 
Q 1210 2419 1005 2195 
L 1005 653 
Q 1005 320 1081 224 
Q 1158 128 1440 96 
L 1440 0 
L 58 0 
L 58 96 
Q 333 134 400 224 
Q 467 314 467 653 
L 467 3667 
Q 467 3872 406 3933 
Q 346 3994 141 3994 
Q 83 3994 64 3987 
L 64 4090 
L 237 4141 
Q 730 4288 973 4371 
L 1005 4352 
L 1005 2406 
Q 1229 2694 1446 2819 
Q 1664 2944 1946 2944 
Q 2733 2944 2733 1926 
L 2733 653 
Q 2733 320 2793 233 
Q 2854 147 3117 96 
L 3117 0 
z
" id="STIXGeneral-Regular-68" transform="scale(0.015625)"/>
     <path d="M 186 4224 
L 262 4326 
Q 992 3891 1408 3148 
Q 1824 2406 1824 1581 
Q 1824 -166 243 -1133 
L 186 -1030 
Q 845 -486 1059 54 
Q 1274 595 1274 1562 
Q 1274 2534 1059 3120 
Q 845 3706 186 4224 
z
" id="STIXGeneral-Regular-29" transform="scale(0.015625)"/>
    </defs>
    <use xlink:href="#STIXGeneral-Regular-55"/>
    <use x="72.199982" xlink:href="#STIXGeneral-Regular-6e"/>
    <use x="122.199966" xlink:href="#STIXGeneral-Regular-6f"/>
    <use x="172.199951" xlink:href="#STIXGeneral-Regular-62"/>
    <use x="222.199936" xlink:href="#STIXGeneral-Regular-73"/>
    <use x="261.09993" xlink:href="#STIXGeneral-Regular-65"/>
    <use x="305.499924" xlink:href="#STIXGeneral-Regular-72"/>
    <use x="338.799911" xlink:href="#STIXGeneral-Regular-76"/>
    <use x="388.799896" xlink:href="#STIXGeneral-Regular-65"/>
    <use x="433.19989" xlink:href="#STIXGeneral-Regular-64"/>
    <use x="483.199875" xlink:href="#STIXGeneral-Regular-20"/>
    <use x="508.19986" xlink:href="#STIXGeneral-Regular-43"/>
    <use x="574.899857" xlink:href="#STIXGeneral-Regular-6f"/>
    <use x="624.899841" xlink:href="#STIXGeneral-Regular-6d"/>
    <use x="702.699829" xlink:href="#STIXGeneral-Regular-70"/>
    <use x="752.699814" xlink:href="#STIXGeneral-Regular-6f"/>
    <use x="802.699799" xlink:href="#STIXGeneral-Regular-6e"/>
    <use x="852.699783" xlink:href="#STIXGeneral-Regular-65"/>
    <use x="897.099777" xlink:href="#STIXGeneral-Regular-6e"/>
    <use x="947.099762" xlink:href="#STIXGeneral-Regular-74"/>
    <use x="974.89975" xlink:href="#STIXGeneral-Regular-73"/>
    <use x="1013.799744" xlink:href="#STIXGeneral-Regular-20"/>
    <use x="1038.799728" xlink:href="#STIXGeneral-Regular-28"/>
    <use x="1072.099716" xlink:href="#STIXGeneral-Regular-73"/>
    <use x="1110.99971" xlink:href="#STIXGeneral-Regular-6d"/>
    <use x="1188.799698" xlink:href="#STIXGeneral-Regular-6f"/>
    <use x="1238.799683" xlink:href="#STIXGeneral-Regular-6f"/>
    <use x="1288.799667" xlink:href="#STIXGeneral-Regular-74"/>
    <use x="1316.599655" xlink:href="#STIXGeneral-Regular-68"/>
    <use x="1366.59964" xlink:href="#STIXGeneral-Regular-20"/>
    <use x="1391.599625" xlink:href="#STIXGeneral-Regular-74"/>
    <use x="1419.399612" xlink:href="#STIXGeneral-Regular-72"/>
    <use x="1452.6996" xlink:href="#STIXGeneral-Regular-65"/>
    <use x="1497.099594" xlink:href="#STIXGeneral-Regular-6e"/>
    <use x="1547.099579" xlink:href="#STIXGeneral-Regular-64"/>
    <use x="1597.099564" xlink:href="#STIXGeneral-Regular-29"/>
   </g>
  </g>
 </g>
 <defs>
  <clipPath id="p874e02b476">
   <rect height="87.219333" width="220.6175" x="30.097969" y="61.71"/>
  </clipPath>
  <clipPath id="p696158ee25">
   <rect height="87.219333" width="220.6175" x="30.097969" y="167.553083"/>
  </clipPath>
  <clipPath id="p2c12b2b87f">
   <rect height="87.219333" width="220.6175" x="30.097969" y="273.396167"/>
  </clipPath>
 </defs>
</svg>
