<?xml version="1.0" encoding="utf-8" standalone="no"?>
<!DOCTYPE svg PUBLIC "-//W3C//DTD SVG 1.1//EN"
  "http://www.w3.org/Graphics/SVG/1.1/DTD/svg11.dtd">
<svg xmlns:xlink="http://www.w3.org/1999/xlink" width="404.36875pt" height="303.656699pt" viewBox="0 0 404.36875 303.656699" xmlns="http://www.w3.org/2000/svg" version="1.1">
 <metadata>
  <rdf:RDF xmlns:dc="http://purl.org/dc/elements/1.1/" xmlns:cc="http://creativecommons.org/ns#" xmlns:rdf="http://www.w3.org/1999/02/22-rdf-syntax-ns#">
   <cc:Work>
    <dc:type rdf:resource="http://purl.org/dc/dcmitype/StillImage"/>
    <dc:date>2022-10-24T21:59:58.444528</dc:date>
    <dc:format>image/svg+xml</dc:format>
    <dc:creator>
     <cc:Agent>
      <dc:title>Matplotlib v3.5.3, https://matplotlib.org/</dc:title>
     </cc:Agent>
    </dc:creator>
   </cc:Work>
  </rdf:RDF>
 </metadata>
 <defs>
  <style type="text/css">*{stroke-linejoin: round; stroke-linecap: butt}</style>
 </defs>
 <g id="figure_1">
  <g id="patch_1">
   <path d="M 0 303.656699 
L 404.36875 303.656699 
L 404.36875 0 
L 0 0 
z
" style="fill: #ffffff"/>
  </g>
  <g id="axes_1">
   <g id="patch_2">
    <path d="M 40.04875 246.305812 
L 397.16875 246.305812 
L 397.16875 11.297812 
L 40.04875 11.297812 
z
" style="fill: #ffffff"/>
   </g>
   <g id="matplotlib.axis_1">
    <g id="xtick_1">
     <g id="line2d_1">
      <defs>
       <path id="m3ed9a0f079" d="M 0 0 
L 0 3.5 
" style="stroke: #323034; stroke-width: 0.8"/>
      </defs>
      <g>
       <use xlink:href="#m3ed9a0f079" x="55.541945" y="246.305812" style="fill: #323034; stroke: #323034; stroke-width: 0.8"/>
      </g>
     </g>
     <g id="text_1">
      <!-- 2017-01 -->
      <g style="fill: #323034" transform="translate(19.60253 280.401244)rotate(-30)scale(0.12 -0.12)">
       <defs>
        <path id="STIXGeneral-Regular-32" d="M 3034 877 
L 2688 0 
L 186 0 
L 186 77 
L 1325 1286 
Q 1773 1754 1965 2144 
Q 2157 2534 2157 2950 
Q 2157 3379 1920 3616 
Q 1683 3853 1267 3853 
Q 922 3853 720 3673 
Q 518 3494 326 3021 
L 192 3053 
Q 301 3648 630 3987 
Q 960 4326 1523 4326 
Q 2054 4326 2380 4006 
Q 2707 3686 2707 3200 
Q 2707 2477 1888 1613 
L 832 486 
L 2330 486 
Q 2541 486 2665 569 
Q 2790 653 2944 915 
L 3034 877 
z
" transform="scale(0.015625)"/>
        <path id="STIXGeneral-Regular-30" d="M 3046 2112 
Q 3046 1683 2963 1302 
Q 2880 922 2717 602 
Q 2554 282 2266 96 
Q 1978 -90 1600 -90 
Q 1210 -90 915 108 
Q 621 307 461 640 
Q 301 973 227 1350 
Q 154 1728 154 2150 
Q 154 2746 301 3222 
Q 448 3699 790 4012 
Q 1133 4326 1626 4326 
Q 2253 4326 2649 3712 
Q 3046 3098 3046 2112 
z
M 2432 2080 
Q 2432 3091 2217 3625 
Q 2003 4160 1587 4160 
Q 1190 4160 979 3622 
Q 768 3085 768 2106 
Q 768 1120 979 598 
Q 1190 77 1600 77 
Q 2003 77 2217 598 
Q 2432 1120 2432 2080 
z
" transform="scale(0.015625)"/>
        <path id="STIXGeneral-Regular-31" d="M 2522 0 
L 755 0 
L 755 96 
Q 1107 115 1235 227 
Q 1363 339 1363 608 
L 1363 3482 
Q 1363 3795 1171 3795 
Q 1082 3795 883 3718 
L 710 3654 
L 710 3744 
L 1856 4326 
L 1914 4307 
L 1914 486 
Q 1914 275 2042 185 
Q 2170 96 2522 96 
L 2522 0 
z
" transform="scale(0.015625)"/>
        <path id="STIXGeneral-Regular-37" d="M 2874 4134 
L 1517 -51 
L 1101 -51 
L 2368 3763 
L 992 3763 
Q 717 3763 582 3667 
Q 448 3571 243 3238 
L 128 3296 
L 512 4237 
L 2874 4237 
L 2874 4134 
z
" transform="scale(0.015625)"/>
        <path id="STIXGeneral-Regular-2d" d="M 1824 1242 
L 250 1242 
L 250 1645 
L 1824 1645 
L 1824 1242 
z
" transform="scale(0.015625)"/>
       </defs>
       <use xlink:href="#STIXGeneral-Regular-32"/>
       <use xlink:href="#STIXGeneral-Regular-30" x="49.999985"/>
       <use xlink:href="#STIXGeneral-Regular-31" x="99.999969"/>
       <use xlink:href="#STIXGeneral-Regular-37" x="149.999954"/>
       <use xlink:href="#STIXGeneral-Regular-2d" x="199.999939"/>
       <use xlink:href="#STIXGeneral-Regular-30" x="233.299927"/>
       <use xlink:href="#STIXGeneral-Regular-31" x="283.299911"/>
      </g>
     </g>
    </g>
    <g id="xtick_2">
     <g id="line2d_2">
      <g>
       <use xlink:href="#m3ed9a0f079" x="88.820885" y="246.305812" style="fill: #323034; stroke: #323034; stroke-width: 0.8"/>
      </g>
     </g>
     <g id="text_2">
      <!-- 2017-04 -->
      <g style="fill: #323034" transform="translate(52.88147 280.401244)rotate(-30)scale(0.12 -0.12)">
       <defs>
        <path id="STIXGeneral-Regular-34" d="M 3027 1069 
L 2368 1069 
L 2368 0 
L 1869 0 
L 1869 1069 
L 77 1069 
L 77 1478 
L 2086 4326 
L 2368 4326 
L 2368 1478 
L 3027 1478 
L 3027 1069 
z
M 1869 1478 
L 1869 3674 
L 333 1478 
L 1869 1478 
z
" transform="scale(0.015625)"/>
       </defs>
       <use xlink:href="#STIXGeneral-Regular-32"/>
       <use xlink:href="#STIXGeneral-Regular-30" x="49.999985"/>
       <use xlink:href="#STIXGeneral-Regular-31" x="99.999969"/>
       <use xlink:href="#STIXGeneral-Regular-37" x="149.999954"/>
       <use xlink:href="#STIXGeneral-Regular-2d" x="199.999939"/>
       <use xlink:href="#STIXGeneral-Regular-30" x="233.299927"/>
       <use xlink:href="#STIXGeneral-Regular-34" x="283.299911"/>
      </g>
     </g>
    </g>
    <g id="xtick_3">
     <g id="line2d_3">
      <g>
       <use xlink:href="#m3ed9a0f079" x="122.469591" y="246.305812" style="fill: #323034; stroke: #323034; stroke-width: 0.8"/>
      </g>
     </g>
     <g id="text_3">
      <!-- 2017-07 -->
      <g style="fill: #323034" transform="translate(86.530176 280.401244)rotate(-30)scale(0.12 -0.12)">
       <use xlink:href="#STIXGeneral-Regular-32"/>
       <use xlink:href="#STIXGeneral-Regular-30" x="49.999985"/>
       <use xlink:href="#STIXGeneral-Regular-31" x="99.999969"/>
       <use xlink:href="#STIXGeneral-Regular-37" x="149.999954"/>
       <use xlink:href="#STIXGeneral-Regular-2d" x="199.999939"/>
       <use xlink:href="#STIXGeneral-Regular-30" x="233.299927"/>
       <use xlink:href="#STIXGeneral-Regular-37" x="283.299911"/>
      </g>
     </g>
    </g>
    <g id="xtick_4">
     <g id="line2d_4">
      <g>
       <use xlink:href="#m3ed9a0f079" x="156.488062" y="246.305812" style="fill: #323034; stroke: #323034; stroke-width: 0.8"/>
      </g>
     </g>
     <g id="text_4">
      <!-- 2017-10 -->
      <g style="fill: #323034" transform="translate(120.548648 280.401244)rotate(-30)scale(0.12 -0.12)">
       <use xlink:href="#STIXGeneral-Regular-32"/>
       <use xlink:href="#STIXGeneral-Regular-30" x="49.999985"/>
       <use xlink:href="#STIXGeneral-Regular-31" x="99.999969"/>
       <use xlink:href="#STIXGeneral-Regular-37" x="149.999954"/>
       <use xlink:href="#STIXGeneral-Regular-2d" x="199.999939"/>
       <use xlink:href="#STIXGeneral-Regular-31" x="233.299927"/>
       <use xlink:href="#STIXGeneral-Regular-30" x="283.299911"/>
      </g>
     </g>
    </g>
    <g id="xtick_5">
     <g id="line2d_5">
      <g>
       <use xlink:href="#m3ed9a0f079" x="190.506534" y="246.305812" style="fill: #323034; stroke: #323034; stroke-width: 0.8"/>
      </g>
     </g>
     <g id="text_5">
      <!-- 2018-01 -->
      <g style="fill: #323034" transform="translate(154.567119 280.401244)rotate(-30)scale(0.12 -0.12)">
       <defs>
        <path id="STIXGeneral-Regular-38" d="M 2848 992 
Q 2848 499 2505 204 
Q 2163 -90 1587 -90 
Q 1050 -90 704 204 
Q 358 499 358 954 
Q 358 1293 524 1533 
Q 691 1773 1190 2125 
Q 710 2522 553 2765 
Q 397 3008 397 3328 
Q 397 3782 745 4054 
Q 1094 4326 1638 4326 
Q 2106 4326 2410 4060 
Q 2714 3795 2714 3411 
Q 2714 3059 2531 2848 
Q 2349 2637 1856 2374 
Q 2432 1990 2640 1689 
Q 2848 1389 2848 992 
z
M 2272 3411 
Q 2272 3744 2086 3945 
Q 1901 4147 1574 4147 
Q 1248 4147 1059 3977 
Q 870 3808 870 3513 
Q 870 3219 1059 2979 
Q 1248 2739 1670 2490 
Q 1997 2682 2134 2896 
Q 2272 3110 2272 3411 
z
M 1734 1741 
L 1357 1997 
Q 1075 1766 960 1545 
Q 845 1325 845 1011 
Q 845 576 1065 333 
Q 1286 90 1658 90 
Q 1971 90 2166 285 
Q 2362 480 2362 794 
Q 2362 1082 2214 1299 
Q 2067 1517 1734 1741 
z
" transform="scale(0.015625)"/>
       </defs>
       <use xlink:href="#STIXGeneral-Regular-32"/>
       <use xlink:href="#STIXGeneral-Regular-30" x="49.999985"/>
       <use xlink:href="#STIXGeneral-Regular-31" x="99.999969"/>
       <use xlink:href="#STIXGeneral-Regular-38" x="149.999954"/>
       <use xlink:href="#STIXGeneral-Regular-2d" x="199.999939"/>
       <use xlink:href="#STIXGeneral-Regular-30" x="233.299927"/>
       <use xlink:href="#STIXGeneral-Regular-31" x="283.299911"/>
      </g>
     </g>
    </g>
    <g id="xtick_6">
     <g id="line2d_6">
      <g>
       <use xlink:href="#m3ed9a0f079" x="223.785474" y="246.305812" style="fill: #323034; stroke: #323034; stroke-width: 0.8"/>
      </g>
     </g>
     <g id="text_6">
      <!-- 2018-04 -->
      <g style="fill: #323034" transform="translate(187.846059 280.401244)rotate(-30)scale(0.12 -0.12)">
       <use xlink:href="#STIXGeneral-Regular-32"/>
       <use xlink:href="#STIXGeneral-Regular-30" x="49.999985"/>
       <use xlink:href="#STIXGeneral-Regular-31" x="99.999969"/>
       <use xlink:href="#STIXGeneral-Regular-38" x="149.999954"/>
       <use xlink:href="#STIXGeneral-Regular-2d" x="199.999939"/>
       <use xlink:href="#STIXGeneral-Regular-30" x="233.299927"/>
       <use xlink:href="#STIXGeneral-Regular-34" x="283.299911"/>
      </g>
     </g>
    </g>
    <g id="xtick_7">
     <g id="line2d_7">
      <g>
       <use xlink:href="#m3ed9a0f079" x="257.43418" y="246.305812" style="fill: #323034; stroke: #323034; stroke-width: 0.8"/>
      </g>
     </g>
     <g id="text_7">
      <!-- 2018-07 -->
      <g style="fill: #323034" transform="translate(221.494765 280.401244)rotate(-30)scale(0.12 -0.12)">
       <use xlink:href="#STIXGeneral-Regular-32"/>
       <use xlink:href="#STIXGeneral-Regular-30" x="49.999985"/>
       <use xlink:href="#STIXGeneral-Regular-31" x="99.999969"/>
       <use xlink:href="#STIXGeneral-Regular-38" x="149.999954"/>
       <use xlink:href="#STIXGeneral-Regular-2d" x="199.999939"/>
       <use xlink:href="#STIXGeneral-Regular-30" x="233.299927"/>
       <use xlink:href="#STIXGeneral-Regular-37" x="283.299911"/>
      </g>
     </g>
    </g>
    <g id="xtick_8">
     <g id="line2d_8">
      <g>
       <use xlink:href="#m3ed9a0f079" x="291.452651" y="246.305812" style="fill: #323034; stroke: #323034; stroke-width: 0.8"/>
      </g>
     </g>
     <g id="text_8">
      <!-- 2018-10 -->
      <g style="fill: #323034" transform="translate(255.513237 280.401244)rotate(-30)scale(0.12 -0.12)">
       <use xlink:href="#STIXGeneral-Regular-32"/>
       <use xlink:href="#STIXGeneral-Regular-30" x="49.999985"/>
       <use xlink:href="#STIXGeneral-Regular-31" x="99.999969"/>
       <use xlink:href="#STIXGeneral-Regular-38" x="149.999954"/>
       <use xlink:href="#STIXGeneral-Regular-2d" x="199.999939"/>
       <use xlink:href="#STIXGeneral-Regular-31" x="233.299927"/>
       <use xlink:href="#STIXGeneral-Regular-30" x="283.299911"/>
      </g>
     </g>
    </g>
    <g id="xtick_9">
     <g id="line2d_9">
      <g>
       <use xlink:href="#m3ed9a0f079" x="325.471123" y="246.305812" style="fill: #323034; stroke: #323034; stroke-width: 0.8"/>
      </g>
     </g>
     <g id="text_9">
      <!-- 2019-01 -->
      <g style="fill: #323034" transform="translate(289.531708 280.401244)rotate(-30)scale(0.12 -0.12)">
       <defs>
        <path id="STIXGeneral-Regular-39" d="M 378 -141 
L 358 -13 
Q 1094 115 1603 608 
Q 2112 1101 2304 1882 
Q 1933 1517 1344 1517 
Q 826 1517 509 1875 
Q 192 2234 192 2816 
Q 192 3462 573 3894 
Q 954 4326 1523 4326 
Q 2131 4326 2528 3840 
Q 2938 3328 2938 2522 
Q 2938 1958 2742 1462 
Q 2547 966 2170 621 
Q 1773 262 1395 105 
Q 1018 -51 378 -141 
z
M 2317 2272 
L 2317 2522 
Q 2317 4147 1472 4147 
Q 1171 4147 1005 3930 
Q 909 3802 845 3546 
Q 781 3290 781 3034 
Q 781 2464 995 2128 
Q 1210 1792 1568 1792 
Q 1824 1792 2070 1917 
Q 2317 2042 2317 2272 
z
" transform="scale(0.015625)"/>
       </defs>
       <use xlink:href="#STIXGeneral-Regular-32"/>
       <use xlink:href="#STIXGeneral-Regular-30" x="49.999985"/>
       <use xlink:href="#STIXGeneral-Regular-31" x="99.999969"/>
       <use xlink:href="#STIXGeneral-Regular-39" x="149.999954"/>
       <use xlink:href="#STIXGeneral-Regular-2d" x="199.999939"/>
       <use xlink:href="#STIXGeneral-Regular-30" x="233.299927"/>
       <use xlink:href="#STIXGeneral-Regular-31" x="283.299911"/>
      </g>
     </g>
    </g>
    <g id="xtick_10">
     <g id="line2d_10">
      <g>
       <use xlink:href="#m3ed9a0f079" x="358.750063" y="246.305812" style="fill: #323034; stroke: #323034; stroke-width: 0.8"/>
      </g>
     </g>
     <g id="text_10">
      <!-- 2019-04 -->
      <g style="fill: #323034" transform="translate(322.810648 280.401244)rotate(-30)scale(0.12 -0.12)">
       <use xlink:href="#STIXGeneral-Regular-32"/>
       <use xlink:href="#STIXGeneral-Regular-30" x="49.999985"/>
       <use xlink:href="#STIXGeneral-Regular-31" x="99.999969"/>
       <use xlink:href="#STIXGeneral-Regular-39" x="149.999954"/>
       <use xlink:href="#STIXGeneral-Regular-2d" x="199.999939"/>
       <use xlink:href="#STIXGeneral-Regular-30" x="233.299927"/>
       <use xlink:href="#STIXGeneral-Regular-34" x="283.299911"/>
      </g>
     </g>
    </g>
    <g id="xtick_11">
     <g id="line2d_11">
      <g>
       <use xlink:href="#m3ed9a0f079" x="392.398769" y="246.305812" style="fill: #323034; stroke: #323034; stroke-width: 0.8"/>
      </g>
     </g>
     <g id="text_11">
      <!-- 2019-07 -->
      <g style="fill: #323034" transform="translate(356.459354 280.401244)rotate(-30)scale(0.12 -0.12)">
       <use xlink:href="#STIXGeneral-Regular-32"/>
       <use xlink:href="#STIXGeneral-Regular-30" x="49.999985"/>
       <use xlink:href="#STIXGeneral-Regular-31" x="99.999969"/>
       <use xlink:href="#STIXGeneral-Regular-39" x="149.999954"/>
       <use xlink:href="#STIXGeneral-Regular-2d" x="199.999939"/>
       <use xlink:href="#STIXGeneral-Regular-30" x="233.299927"/>
       <use xlink:href="#STIXGeneral-Regular-37" x="283.299911"/>
      </g>
     </g>
    </g>
    <g id="text_12">
     <!-- Date -->
     <g transform="translate(207.28 293.852324)scale(0.12 -0.12)">
      <defs>
       <path id="STIXGeneral-Regular-44" d="M 102 4237 
L 1830 4237 
Q 3078 4237 3750 3654 
Q 4384 3110 4384 2138 
Q 4384 966 3514 410 
Q 2880 0 1901 0 
L 102 0 
L 102 122 
Q 474 147 570 252 
Q 666 358 666 736 
L 666 3520 
Q 666 3891 570 3990 
Q 474 4090 102 4115 
L 102 4237 
z
M 1318 3731 
L 1318 538 
Q 1318 365 1379 301 
Q 1440 237 1626 237 
Q 2125 237 2432 307 
Q 2739 378 3021 570 
Q 3686 1018 3686 2099 
Q 3686 3027 3078 3558 
Q 2803 3802 2476 3901 
Q 2150 4000 1658 4000 
Q 1472 4000 1395 3942 
Q 1318 3885 1318 3731 
z
" transform="scale(0.015625)"/>
       <path id="STIXGeneral-Regular-61" d="M 2829 422 
L 2829 243 
Q 2586 -64 2253 -64 
Q 1888 -64 1843 403 
L 1837 403 
Q 1427 -64 909 -64 
Q 608 -64 422 112 
Q 237 288 237 602 
Q 237 1050 685 1350 
Q 992 1555 1837 1869 
L 1837 2214 
Q 1837 2502 1699 2646 
Q 1562 2790 1338 2790 
Q 1146 2790 1018 2697 
Q 890 2605 890 2477 
Q 890 2419 909 2348 
Q 928 2278 928 2208 
Q 928 2112 841 2029 
Q 755 1946 634 1946 
Q 525 1946 441 2029 
Q 358 2112 358 2240 
Q 358 2547 685 2752 
Q 986 2944 1421 2944 
Q 1939 2944 2176 2656 
Q 2291 2522 2323 2384 
Q 2355 2246 2355 1946 
L 2355 723 
Q 2355 301 2554 301 
Q 2682 301 2829 422 
z
M 1837 813 
L 1837 1715 
Q 1248 1510 1018 1293 
Q 800 1094 800 800 
Q 800 557 921 432 
Q 1043 307 1242 307 
Q 1453 307 1613 410 
Q 1747 506 1792 589 
Q 1837 672 1837 813 
z
" transform="scale(0.015625)"/>
       <path id="STIXGeneral-Regular-74" d="M 1702 493 
L 1786 422 
Q 1478 -64 1011 -64 
Q 448 -64 448 749 
L 448 2675 
L 109 2675 
Q 83 2694 83 2720 
Q 83 2771 192 2842 
Q 435 2982 813 3526 
Q 826 3546 874 3606 
Q 922 3667 941 3706 
Q 986 3706 986 3622 
L 986 2880 
L 1632 2880 
L 1632 2675 
L 986 2675 
L 986 845 
Q 986 538 1062 403 
Q 1139 269 1318 269 
Q 1510 269 1702 493 
z
" transform="scale(0.015625)"/>
       <path id="STIXGeneral-Regular-65" d="M 2611 1050 
L 2714 1005 
Q 2330 -64 1376 -64 
Q 813 -64 486 329 
Q 160 723 160 1389 
Q 160 2074 525 2509 
Q 890 2944 1485 2944 
Q 2061 2944 2374 2502 
Q 2560 2246 2592 1773 
L 621 1773 
Q 646 1370 700 1158 
Q 755 947 915 730 
Q 1184 378 1626 378 
Q 1939 378 2153 531 
Q 2368 685 2611 1050 
z
M 634 1978 
L 1939 1978 
Q 1882 2381 1750 2547 
Q 1619 2714 1312 2714 
Q 1043 2714 864 2525 
Q 685 2336 634 1978 
z
" transform="scale(0.015625)"/>
      </defs>
      <use xlink:href="#STIXGeneral-Regular-44"/>
      <use xlink:href="#STIXGeneral-Regular-61" x="72.199982"/>
      <use xlink:href="#STIXGeneral-Regular-74" x="116.599976"/>
      <use xlink:href="#STIXGeneral-Regular-65" x="144.399963"/>
     </g>
    </g>
   </g>
   <g id="matplotlib.axis_2">
    <g id="ytick_1">
     <g id="line2d_12">
      <defs>
       <path id="m334569cebd" d="M 0 0 
L -3.5 0 
" style="stroke: #323034; stroke-width: 0.8"/>
      </defs>
      <g>
       <use xlink:href="#m334569cebd" x="40.04875" y="246.305812" style="fill: #323034; stroke: #323034; stroke-width: 0.8"/>
      </g>
     </g>
     <g id="text_13">
      <!-- $\mathdefault{25}$ -->
      <g style="fill: #323034" transform="translate(21.04875 250.403625)scale(0.12 -0.12)">
       <defs>
        <path id="STIXGeneral-Regular-35" d="M 2803 4358 
L 2573 3814 
Q 2534 3731 2400 3731 
L 1158 3731 
L 902 3187 
Q 1606 3053 1920 2896 
Q 2234 2739 2502 2368 
Q 2726 2061 2726 1555 
Q 2726 1094 2576 780 
Q 2426 467 2099 224 
Q 1664 -90 1011 -90 
Q 646 -90 422 19 
Q 198 128 198 307 
Q 198 550 486 550 
Q 717 550 960 352 
Q 1210 147 1414 147 
Q 1747 147 2012 480 
Q 2278 813 2278 1229 
Q 2278 1843 1850 2189 
Q 1293 2637 486 2637 
Q 410 2637 410 2688 
L 416 2720 
L 1114 4237 
L 2438 4237 
Q 2547 4237 2608 4269 
Q 2669 4301 2746 4403 
L 2803 4358 
z
" transform="scale(0.015625)"/>
       </defs>
       <use xlink:href="#STIXGeneral-Regular-32" transform="translate(0 0.203125)"/>
       <use xlink:href="#STIXGeneral-Regular-35" transform="translate(49.999985 0.203125)"/>
      </g>
     </g>
    </g>
    <g id="ytick_2">
     <g id="line2d_13">
      <g>
       <use xlink:href="#m334569cebd" x="40.04875" y="212.733241" style="fill: #323034; stroke: #323034; stroke-width: 0.8"/>
      </g>
     </g>
     <g id="text_14">
      <!-- $\mathdefault{30}$ -->
      <g style="fill: #323034" transform="translate(21.04875 216.831054)scale(0.12 -0.12)">
       <defs>
        <path id="STIXGeneral-Regular-33" d="M 390 3264 
L 288 3290 
Q 435 3770 748 4048 
Q 1062 4326 1542 4326 
Q 1990 4326 2265 4083 
Q 2541 3840 2541 3450 
Q 2541 2925 1946 2566 
Q 2298 2413 2477 2227 
Q 2758 1914 2758 1402 
Q 2758 890 2464 506 
Q 2246 211 1840 60 
Q 1434 -90 979 -90 
Q 262 -90 262 275 
Q 262 378 339 442 
Q 416 506 525 506 
Q 685 506 915 339 
Q 1197 141 1466 141 
Q 1818 141 2058 425 
Q 2298 710 2298 1120 
Q 2298 1856 1632 2048 
Q 1434 2112 979 2112 
L 979 2202 
Q 1338 2323 1517 2432 
Q 2035 2726 2035 3290 
Q 2035 3610 1852 3776 
Q 1670 3942 1344 3942 
Q 768 3942 390 3264 
z
" transform="scale(0.015625)"/>
       </defs>
       <use xlink:href="#STIXGeneral-Regular-33" transform="translate(0 0.40625)"/>
       <use xlink:href="#STIXGeneral-Regular-30" transform="translate(49.999985 0.40625)"/>
      </g>
     </g>
    </g>
    <g id="ytick_3">
     <g id="line2d_14">
      <g>
       <use xlink:href="#m334569cebd" x="40.04875" y="179.16067" style="fill: #323034; stroke: #323034; stroke-width: 0.8"/>
      </g>
     </g>
     <g id="text_15">
      <!-- $\mathdefault{35}$ -->
      <g style="fill: #323034" transform="translate(21.04875 183.258482)scale(0.12 -0.12)">
       <use xlink:href="#STIXGeneral-Regular-33" transform="translate(0 0.203125)"/>
       <use xlink:href="#STIXGeneral-Regular-35" transform="translate(49.999985 0.203125)"/>
      </g>
     </g>
    </g>
    <g id="ytick_4">
     <g id="line2d_15">
      <g>
       <use xlink:href="#m334569cebd" x="40.04875" y="145.588098" style="fill: #323034; stroke: #323034; stroke-width: 0.8"/>
      </g>
     </g>
     <g id="text_16">
      <!-- $\mathdefault{40}$ -->
      <g style="fill: #323034" transform="translate(21.04875 149.685911)scale(0.12 -0.12)">
       <use xlink:href="#STIXGeneral-Regular-34" transform="translate(0 0.40625)"/>
       <use xlink:href="#STIXGeneral-Regular-30" transform="translate(49.999985 0.40625)"/>
      </g>
     </g>
    </g>
    <g id="ytick_5">
     <g id="line2d_16">
      <g>
       <use xlink:href="#m334569cebd" x="40.04875" y="112.015527" style="fill: #323034; stroke: #323034; stroke-width: 0.8"/>
      </g>
     </g>
     <g id="text_17">
      <!-- $\mathdefault{45}$ -->
      <g style="fill: #323034" transform="translate(21.04875 116.113339)scale(0.12 -0.12)">
       <use xlink:href="#STIXGeneral-Regular-34" transform="translate(0 0.203125)"/>
       <use xlink:href="#STIXGeneral-Regular-35" transform="translate(49.999985 0.203125)"/>
      </g>
     </g>
    </g>
    <g id="ytick_6">
     <g id="line2d_17">
      <g>
       <use xlink:href="#m334569cebd" x="40.04875" y="78.442955" style="fill: #323034; stroke: #323034; stroke-width: 0.8"/>
      </g>
     </g>
     <g id="text_18">
      <!-- $\mathdefault{50}$ -->
      <g style="fill: #323034" transform="translate(21.04875 82.540768)scale(0.12 -0.12)">
       <use xlink:href="#STIXGeneral-Regular-35" transform="translate(0 0.203125)"/>
       <use xlink:href="#STIXGeneral-Regular-30" transform="translate(49.999985 0.203125)"/>
      </g>
     </g>
    </g>
    <g id="ytick_7">
     <g id="line2d_18">
      <g>
       <use xlink:href="#m334569cebd" x="40.04875" y="44.870384" style="fill: #323034; stroke: #323034; stroke-width: 0.8"/>
      </g>
     </g>
     <g id="text_19">
      <!-- $\mathdefault{55}$ -->
      <g style="fill: #323034" transform="translate(21.04875 48.968196)scale(0.12 -0.12)">
       <use xlink:href="#STIXGeneral-Regular-35" transform="translate(0 0.203125)"/>
       <use xlink:href="#STIXGeneral-Regular-35" transform="translate(49.999985 0.203125)"/>
      </g>
     </g>
    </g>
    <g id="ytick_8">
     <g id="line2d_19">
      <g>
       <use xlink:href="#m334569cebd" x="40.04875" y="11.297812" style="fill: #323034; stroke: #323034; stroke-width: 0.8"/>
      </g>
     </g>
     <g id="text_20">
      <!-- $\mathdefault{60}$ -->
      <g style="fill: #323034" transform="translate(21.04875 15.395625)scale(0.12 -0.12)">
       <defs>
        <path id="STIXGeneral-Regular-36" d="M 2854 4378 
L 2867 4275 
Q 2112 4154 1606 3664 
Q 1101 3174 973 2451 
Q 1344 2739 1786 2739 
Q 2349 2739 2672 2380 
Q 2995 2022 2995 1402 
Q 2995 774 2669 378 
Q 2291 -90 1651 -90 
Q 870 -90 518 557 
Q 218 1107 218 1786 
Q 218 2835 915 3552 
Q 1312 3962 1731 4131 
Q 2150 4301 2854 4378 
z
M 2419 1203 
Q 2419 2445 1555 2445 
Q 1235 2445 1024 2275 
Q 813 2106 813 1702 
Q 813 954 1046 522 
Q 1280 90 1722 90 
Q 2061 90 2240 394 
Q 2419 698 2419 1203 
z
" transform="scale(0.015625)"/>
       </defs>
       <use xlink:href="#STIXGeneral-Regular-36" transform="translate(0 0.59375)"/>
       <use xlink:href="#STIXGeneral-Regular-30" transform="translate(49.999985 0.59375)"/>
      </g>
     </g>
    </g>
    <g id="text_21">
     <!-- Close ($) -->
     <g transform="translate(15.444375 150.966187)rotate(-90)scale(0.12 -0.12)">
      <defs>
       <path id="STIXGeneral-Regular-43" d="M 3930 838 
L 4051 723 
Q 3482 -90 2304 -90 
Q 1376 -90 794 480 
Q 179 1082 179 2080 
Q 179 3014 755 3661 
Q 1357 4326 2310 4326 
Q 2720 4326 3072 4230 
Q 3475 4115 3514 4115 
Q 3725 4115 3782 4326 
L 3910 4326 
L 3968 2874 
L 3821 2874 
Q 3718 3334 3488 3584 
Q 3034 4070 2458 4070 
Q 1747 4070 1334 3548 
Q 922 3027 922 2182 
Q 922 1152 1382 653 
Q 1811 192 2522 192 
Q 2944 192 3251 339 
Q 3558 486 3930 838 
z
" transform="scale(0.015625)"/>
       <path id="STIXGeneral-Regular-6c" d="M 1645 0 
L 134 0 
L 134 96 
Q 435 122 531 221 
Q 627 320 627 589 
L 627 3590 
Q 627 3821 569 3910 
Q 512 4000 358 4000 
Q 224 4000 122 3987 
L 122 4090 
Q 730 4237 1133 4371 
L 1165 4346 
L 1165 557 
Q 1165 288 1254 201 
Q 1344 115 1645 96 
L 1645 0 
z
" transform="scale(0.015625)"/>
       <path id="STIXGeneral-Regular-6f" d="M 3008 1478 
Q 3008 806 2608 371 
Q 2208 -64 1568 -64 
Q 979 -64 582 368 
Q 186 800 186 1459 
Q 186 2125 582 2534 
Q 979 2944 1626 2944 
Q 2221 2944 2614 2537 
Q 3008 2131 3008 1478 
z
M 2432 1306 
Q 2432 2035 2112 2445 
Q 1856 2765 1504 2765 
Q 1171 2765 966 2493 
Q 762 2221 762 1747 
Q 762 928 1101 435 
Q 1318 115 1677 115 
Q 2029 115 2230 432 
Q 2432 749 2432 1306 
z
" transform="scale(0.015625)"/>
       <path id="STIXGeneral-Regular-73" d="M 998 1926 
L 1664 1523 
Q 1984 1331 2105 1164 
Q 2227 998 2227 736 
Q 2227 416 1961 176 
Q 1696 -64 1331 -64 
Q 1030 -64 864 -6 
Q 691 51 570 51 
Q 461 51 416 -26 
L 333 -26 
L 333 979 
L 435 979 
Q 538 512 730 294 
Q 922 77 1248 77 
Q 1485 77 1632 211 
Q 1779 346 1779 550 
Q 1779 845 1440 1030 
L 1094 1222 
Q 326 1651 326 2150 
Q 326 2522 566 2730 
Q 806 2938 1210 2938 
Q 1491 2938 1638 2867 
Q 1754 2816 1818 2816 
Q 1862 2816 1920 2880 
L 1990 2880 
L 2022 2010 
L 1926 2010 
Q 1818 2445 1654 2621 
Q 1491 2797 1203 2797 
Q 986 2797 854 2688 
Q 723 2579 723 2362 
Q 723 2253 796 2128 
Q 870 2003 998 1926 
z
" transform="scale(0.015625)"/>
       <path id="STIXGeneral-Regular-20" transform="scale(0.015625)"/>
       <path id="STIXGeneral-Regular-28" d="M 1946 -1030 
L 1869 -1133 
Q 1126 -710 716 32 
Q 307 774 307 1613 
Q 307 3386 1888 4326 
L 1946 4224 
Q 1293 3667 1075 3126 
Q 858 2586 858 1632 
Q 858 685 1082 96 
Q 1306 -493 1946 -1030 
z
" transform="scale(0.015625)"/>
       <path id="STIXGeneral-Regular-24" d="M 1690 4077 
L 1690 2502 
Q 2234 2208 2445 2045 
Q 2656 1882 2797 1664 
Q 2931 1466 2931 1088 
Q 2931 570 2614 326 
Q 2298 83 1690 0 
L 1690 -557 
L 1472 -557 
L 1472 0 
Q 1062 0 806 73 
Q 550 147 282 326 
L 282 1158 
L 378 1158 
Q 480 685 761 432 
Q 1043 179 1472 179 
L 1472 1984 
Q 800 2362 566 2624 
Q 333 2886 333 3283 
Q 333 3731 659 3974 
Q 986 4218 1472 4250 
L 1472 4653 
L 1690 4653 
L 1690 4250 
Q 2426 4205 2720 3910 
L 2720 3200 
L 2624 3200 
Q 2528 3597 2301 3814 
Q 2074 4032 1690 4077 
z
M 1472 2605 
L 1472 4077 
Q 806 3942 806 3405 
Q 806 3194 937 3037 
Q 1069 2880 1472 2605 
z
M 1690 1875 
L 1690 179 
Q 2086 262 2252 432 
Q 2419 602 2419 941 
Q 2419 1235 2272 1427 
Q 2125 1619 1690 1875 
z
" transform="scale(0.015625)"/>
       <path id="STIXGeneral-Regular-29" d="M 186 4224 
L 262 4326 
Q 992 3891 1408 3148 
Q 1824 2406 1824 1581 
Q 1824 -166 243 -1133 
L 186 -1030 
Q 845 -486 1059 54 
Q 1274 595 1274 1562 
Q 1274 2534 1059 3120 
Q 845 3706 186 4224 
z
" transform="scale(0.015625)"/>
      </defs>
      <use xlink:href="#STIXGeneral-Regular-43"/>
      <use xlink:href="#STIXGeneral-Regular-6c" x="66.699997"/>
      <use xlink:href="#STIXGeneral-Regular-6f" x="94.499985"/>
      <use xlink:href="#STIXGeneral-Regular-73" x="144.499969"/>
      <use xlink:href="#STIXGeneral-Regular-65" x="183.399963"/>
      <use xlink:href="#STIXGeneral-Regular-20" x="227.799957"/>
      <use xlink:href="#STIXGeneral-Regular-28" x="252.799942"/>
      <use xlink:href="#STIXGeneral-Regular-24" x="286.09993"/>
      <use xlink:href="#STIXGeneral-Regular-29" x="336.099915"/>
     </g>
    </g>
   </g>
   <g id="line2d_20">
    <path d="M 56.281477 231.391533 
L 56.651243 231.592969 
L 57.021009 230.647565 
L 57.390775 228.635897 
L 58.500073 226.939139 
L 58.869839 226.738375 
L 59.239605 225.732541 
L 59.609371 226.496652 
L 59.979137 226.852522 
L 61.458201 225.34377 
L 61.827967 225.357199 
L 62.197733 225.678825 
L 62.567499 225.34377 
L 63.676797 225.196051 
L 64.046563 225.397486 
L 64.416329 222.379984 
L 65.155861 222.272552 
L 66.265159 222.802327 
L 66.634925 223.204526 
L 67.004691 211.584388 
L 67.374457 211.892584 
L 67.744223 211.088185 
L 68.853521 209.110089 
L 69.223287 207.219282 
L 69.593053 206.441741 
L 69.962819 204.865845 
L 70.332585 205.355333 
L 71.441883 203.491384 
L 71.811649 200.795506 
L 72.181415 200.004536 
L 72.551181 200.252973 
L 72.920947 199.662768 
L 74.400011 198.113729 
L 74.769777 197.469807 
L 75.139543 198.442069 
L 75.509309 198.17416 
L 76.988373 197.671243 
L 77.358139 193.225563 
L 77.727905 194.57988 
L 78.097671 193.238992 
L 79.206969 193.963488 
L 79.576735 193.668049 
L 79.946501 194.512735 
L 80.316267 195.022367 
L 80.686033 194.285113 
L 81.795331 194.177681 
L 82.165097 194.532879 
L 82.534863 192.172727 
L 82.904629 191.824244 
L 83.274395 192.93751 
L 84.383693 190.603545 
L 84.753459 193.158418 
L 85.123225 190.67069 
L 85.492991 191.469046 
L 85.862757 191.891389 
L 86.972055 191.536191 
L 87.341821 186.909219 
L 87.711587 186.419731 
L 88.081353 186.708455 
L 88.451119 187.144227 
L 89.560417 187.077082 
L 89.930183 185.37361 
L 90.299949 186.554021 
L 91.039481 187.660573 
L 92.148779 187.928482 
L 92.518545 190.355779 
L 92.888311 190.067727 
L 93.258077 191.254181 
L 94.737141 190.020725 
L 95.476673 191.844387 
L 95.846439 189.048463 
L 96.216205 189.302943 
L 97.325503 187.1778 
L 97.695269 185.749623 
L 98.065035 187.110655 
L 98.434801 186.929363 
L 98.804567 187.157656 
L 100.283631 181.028648 
L 101.023163 182.59783 
L 101.392929 178.74907 
L 102.871993 170.783642 
L 103.241759 171.976811 
L 103.611525 169.884568 
L 103.981291 166.451437 
L 105.090589 167.095359 
L 105.460355 167.443842 
L 105.830121 175.738282 
L 106.199887 172.090958 
L 106.569653 171.279173 
L 107.678951 169.817423 
L 108.048717 170.06586 
L 108.418483 170.816543 
L 108.788249 169.965142 
L 109.158015 170.380771 
L 110.637079 170.280724 
L 111.006845 171.775375 
L 111.376611 171.085123 
L 111.746377 167.463986 
L 112.855675 169.897997 
L 113.225441 169.080169 
L 113.595207 167.598276 
L 113.964973 168.222054 
L 114.334739 177.770094 
L 115.444037 183.415657 
L 115.813803 181.504707 
L 116.183569 183.838 
L 116.553335 185.172846 
L 116.923101 188.404541 
L 118.032399 181.92705 
L 118.402165 184.059579 
L 118.771931 182.685118 
L 119.141697 183.06046 
L 119.511463 182.027767 
L 120.620761 182.765692 
L 120.990527 186.084677 
L 121.360293 182.752263 
L 121.730059 186.171965 
L 122.099825 185.615332 
L 123.209123 186.460018 
L 123.948655 185.5079 
L 124.318421 187.687431 
L 124.688187 185.353466 
L 125.797485 183.972291 
L 126.167251 183.228322 
L 126.537017 182.892597 
L 126.906783 179.681044 
L 127.276549 177.662662 
L 128.385847 176.817976 
L 128.755613 176.000148 
L 129.125379 174.504825 
L 129.495145 175.597948 
L 129.864911 175.718138 
L 131.713741 170.615779 
L 132.083507 175.248794 
L 132.453273 176.905264 
L 133.562571 178.172293 
L 133.932337 176.053864 
L 134.302103 164.815781 
L 134.671869 167.296794 
L 136.150933 162.126618 
L 136.890465 158.573297 
L 137.260231 166.720018 
L 137.629997 163.266743 
L 138.739295 159.525416 
L 139.109061 156.742921 
L 139.478827 157.754798 
L 139.848593 162.663108 
L 140.218359 163.239885 
L 141.327657 163.722658 
L 141.697423 159.639562 
L 142.067189 159.303837 
L 142.436955 160.437247 
L 143.916019 156.957114 
L 144.285785 154.590248 
L 144.655551 153.899324 
L 145.025317 152.913633 
L 145.395083 152.84716 
L 146.874147 155.971423 
L 147.243913 156.240004 
L 147.613679 157.251881 
L 147.983445 161.409508 
L 149.092743 156.903398 
L 149.462509 157.902517 
L 150.202041 161.97957 
L 150.571807 159.471699 
L 151.681105 161.342363 
L 152.050871 161.275218 
L 152.790403 169.817423 
L 153.160169 172.178246 
L 154.269467 174.30339 
L 154.639233 170.159863 
L 155.008998 168.46982 
L 155.378764 169.965142 
L 155.74853 168.651112 
L 156.857828 169.147314 
L 157.227594 168.087764 
L 157.59736 169.690519 
L 157.967126 166.605871 
L 158.336892 166.760305 
L 159.44619 165.868617 
L 159.815956 165.767899 
L 160.185722 164.782209 
L 160.555488 165.626895 
L 162.034552 159.471699 
L 162.404318 158.506152 
L 162.774084 159.672463 
L 163.14385 165.640324 
L 163.513616 165.278411 
L 164.622914 165.379129 
L 164.99268 163.910665 
L 165.362446 165.009831 
L 165.732212 163.387604 
L 166.101978 154.35524 
L 167.211276 148.568671 
L 167.581042 144.840773 
L 167.950808 148.320906 
L 168.320574 146.336095 
L 168.69034 139.369115 
L 170.169404 135.688218 
L 170.53917 133.388497 
L 170.908936 133.958559 
L 171.278702 134.910678 
L 172.388 135.996415 
L 173.127532 143.848368 
L 173.497298 140.576385 
L 173.867064 142.125423 
L 174.976362 142.413476 
L 175.346128 137.33126 
L 175.715894 134.448048 
L 176.455426 134.427904 
L 177.564724 135.835938 
L 177.93449 137.438021 
L 178.304256 143.184974 
L 178.674022 139.422831 
L 179.043788 140.663673 
L 180.153086 142.668627 
L 180.522852 142.916393 
L 180.892618 143.895369 
L 181.262384 143.452883 
L 181.63215 143.365594 
L 182.741448 138.095372 
L 183.111214 139.671268 
L 183.48098 138.732579 
L 183.850746 138.819868 
L 184.220512 135.996415 
L 185.32981 132.087896 
L 185.699576 135.1383 
L 186.069342 135.40688 
L 186.439108 134.360759 
L 186.808874 134.360759 
L 188.287938 141.461358 
L 188.657704 141.414356 
L 189.02747 140.616672 
L 189.397236 143.600602 
L 190.8763 138.752723 
L 191.246066 138.799724 
L 191.615832 137.498451 
L 191.985598 134.380902 
L 193.094896 135.339735 
L 193.834428 135.513641 
L 194.204194 133.911558 
L 194.57396 131.068633 
L 196.053024 132.456523 
L 196.42279 127.809407 
L 196.792556 127.548213 
L 197.162322 128.821956 
L 198.27162 131.175393 
L 198.641386 131.115634 
L 199.380918 140.562956 
L 199.750684 139.959321 
L 201.229748 147.207639 
L 201.96928 145.927181 
L 202.339046 157.554034 
L 203.448344 163.991239 
L 203.81811 153.503839 
L 204.557642 166.089525 
L 204.927408 163.051878 
L 206.776238 145.471266 
L 207.146004 136.439572 
L 207.51577 137.351404 
L 208.994834 138.290093 
L 209.3646 139.557121 
L 209.734366 137.237257 
L 210.104132 132.402807 
L 211.21343 126.850575 
L 211.583196 127.76912 
L 211.952962 128.18542 
L 212.322728 133.21392 
L 212.692494 131.28954 
L 213.801792 130.337422 
L 214.171558 130.585859 
L 214.541324 133.166918 
L 214.91109 130.136658 
L 215.280856 125.241777 
L 216.390154 122.451896 
L 217.129686 127.695932 
L 217.499452 127.360206 
L 217.869218 128.352611 
L 218.978516 132.737861 
L 219.348282 132.818435 
L 219.718048 139.235496 
L 220.087814 143.084256 
L 220.45758 149.346883 
L 221.566878 136.801485 
L 221.936644 143.935656 
L 222.30641 146.899443 
L 222.676176 144.793771 
L 224.15524 146.584532 
L 224.525006 143.848368 
L 224.894772 138.672148 
L 225.264538 136.754483 
L 225.634304 143.868511 
L 226.743602 141.18002 
L 227.113368 136.016558 
L 227.483134 137.33126 
L 227.8529 134.628668 
L 228.222666 133.642977 
L 229.331964 131.906604 
L 229.70173 128.004128 
L 230.071496 128.654765 
L 230.441262 136.754483 
L 230.811028 148.132899 
L 231.920326 148.877539 
L 232.290092 152.632295 
L 233.029624 150.526623 
L 233.39939 153.570984 
L 234.508688 148.850681 
L 234.878454 142.682056 
L 235.24822 130.739621 
L 235.617986 130.216561 
L 235.987752 119.032866 
L 237.09705 116.920479 
L 237.466816 115.472159 
L 237.836582 113.40006 
L 238.206348 109.102099 
L 238.576114 110.242224 
L 239.685412 110.959334 
L 240.055178 113.729071 
L 240.424944 110.905618 
L 240.79471 112.823283 
L 241.164476 113.92312 
L 242.273774 111.784547 
L 242.64354 112.53523 
L 243.013306 110.61085 
L 243.383072 110.959334 
L 243.752838 110.255653 
L 245.231902 111.374962 
L 245.601668 111.99874 
L 245.971434 113.024718 
L 246.3412 107.579919 
L 247.450498 105.012288 
L 247.820264 102.644751 
L 248.19003 101.552299 
L 248.559796 102.396985 
L 248.929562 105.213052 
L 250.03886 105.991265 
L 250.408626 104.334794 
L 250.778392 106.822521 
L 251.148158 106.661373 
L 251.517924 109.83331 
L 252.627222 109.987072 
L 252.996988 114.92224 
L 253.366754 113.628353 
L 253.73652 115.270723 
L 254.106286 116.149653 
L 255.215584 120.594662 
L 255.58535 116.954052 
L 255.955116 117.403253 
L 256.324882 115.210293 
L 256.694648 115.8475 
L 257.803946 112.501658 
L 258.173712 117.785309 
L 258.913244 115.364727 
L 259.28301 111.254772 
L 260.392308 107.023285 
L 260.762074 107.406013 
L 261.13184 111.408535 
L 261.501606 106.272603 
L 261.871372 105.816687 
L 262.98067 106.474038 
L 263.350436 105.615252 
L 263.720202 107.325439 
L 264.089968 104.931714 
L 264.459734 105.635395 
L 265.569032 105.347343 
L 265.938798 103.147668 
L 266.308564 100.217454 
L 266.67833 101.170243 
L 267.048096 106.359891 
L 268.157394 108.123123 
L 268.52716 107.512774 
L 268.896926 89.415815 
L 269.266692 79.940963 
L 269.636458 78.975416 
L 270.745756 77.225614 
L 271.115522 80.410308 
L 271.485288 80.182686 
L 271.855054 77.540525 
L 272.22482 78.53293 
L 273.334118 76.414501 
L 273.703884 74.946036 
L 274.07365 74.167824 
L 274.443416 69.19304 
L 274.813182 62.313349 
L 275.92248 65.733051 
L 276.292246 66.40316 
L 276.662012 66.389731 
L 277.031778 65.68605 
L 277.401544 64.586212 
L 278.510842 61.729858 
L 278.880608 58.873503 
L 279.250374 53.583138 
L 279.989906 46.046767 
L 281.46897 44.832783 
L 281.838736 47.273509 
L 282.208502 53.381702 
L 282.578267 56.264915 
L 283.687565 61.079221 
L 284.057331 52.134817 
L 284.427097 56.634213 
L 284.796863 48.024191 
L 285.166629 52.15496 
L 286.275927 61.823861 
L 286.645693 61.226941 
L 287.015459 61.012748 
L 287.385225 58.357157 
L 287.754991 62.179059 
L 288.864289 57.103558 
L 289.234055 54.850167 
L 289.603821 57.706521 
L 289.973587 50.371585 
L 290.343353 49.090456 
L 291.452651 46.656445 
L 291.822417 43.377747 
L 292.192183 38.851493 
L 292.931715 51.396892 
L 294.041013 52.269107 
L 294.410779 47.273509 
L 294.780545 64.264587 
L 295.150311 67.375421 
L 295.520077 54.984457 
L 296.629375 62.648403 
L 296.999141 54.917312 
L 297.368907 56.432778 
L 297.738673 64.807791 
L 298.108439 59.490567 
L 299.217737 57.337894 
L 299.587503 53.985337 
L 299.957269 66.323257 
L 300.327035 58.71907 
L 300.696801 64.351876 
L 301.806099 70.90927 
L 302.175865 69.213184 
L 302.545631 60.214392 
L 302.915397 54.79645 
L 303.285163 78.60679 
L 304.394461 88.134685 
L 304.764227 84.641795 
L 305.133993 74.643883 
L 305.503759 75.824295 
L 305.873525 82.327973 
L 306.982823 99.051143 
L 307.352589 102.19555 
L 307.722355 111.026479 
L 308.092121 103.563968 
L 308.461887 100.103978 
L 309.571185 112.53523 
L 309.940951 126.951292 
L 310.310717 127.26016 
L 311.050249 134.581666 
L 312.159547 130.820195 
L 312.529313 131.403687 
L 312.899079 120.527517 
L 313.268845 122.794337 
L 313.638611 124.363519 
L 314.747909 114.231316 
L 315.117675 127.393779 
L 315.857207 130.653004 
L 316.226973 140.730819 
L 317.336271 138.933343 
L 317.706037 140.495811 
L 318.075803 139.738413 
L 318.445569 136.73434 
L 318.815335 145.618985 
L 319.924633 148.11947 
L 320.294399 144.646723 
L 321.403697 169.569657 
L 322.512995 175.872572 
L 323.252527 159.109787 
L 323.622293 160.772301 
L 323.992059 160.638011 
L 325.101357 158.171098 
L 325.840889 157.889088 
L 326.210655 183.415657 
L 326.580421 173.572851 
L 327.689719 174.12277 
L 328.429251 165.379129 
L 328.799017 164.580773 
L 329.168783 167.014785 
L 330.278081 170.716496 
L 330.647847 165.734327 
L 331.017613 162.703395 
L 331.757145 159.685892 
L 333.236209 165.392558 
L 333.605975 164.406867 
L 333.975741 166.358105 
L 334.345507 158.137525 
L 335.454805 160.524535 
L 335.824571 163.132453 
L 336.194337 146.007755 
L 336.564103 144.049803 
L 336.933869 143.935656 
L 338.043167 136.238137 
L 338.412933 131.504404 
L 338.782699 131.403687 
L 339.152465 136.754483 
L 339.522231 136.419429 
L 340.631529 138.034941 
L 341.001295 135.654646 
L 341.371061 136.801485 
L 341.740827 135.795651 
L 342.110593 136.399285 
L 343.589657 135.594215 
L 343.959423 133.777268 
L 344.329189 135.380022 
L 344.698955 132.261802 
L 345.808253 130.216561 
L 346.178019 130.049369 
L 346.547785 129.164396 
L 346.917551 131.953606 
L 347.287317 129.003248 
L 348.396615 127.548213 
L 348.766381 128.071273 
L 349.136147 129.747216 
L 349.505913 133.013156 
L 349.875679 132.355805 
L 351.354743 119.300775 
L 351.724509 118.013602 
L 352.464041 110.825715 
L 353.573339 107.727638 
L 353.943105 110.161649 
L 354.312871 107.49263 
L 354.682637 96.228361 
L 355.052403 102.799184 
L 356.161701 106.527083 
L 356.531467 109.725877 
L 356.901233 106.976284 
L 357.270999 106.560655 
L 357.640765 104.595988 
L 358.750063 102.477559 
L 359.119829 97.937876 
L 359.489595 95.792589 
L 359.859361 95.249385 
L 360.229127 93.089997 
L 361.338425 88.014495 
L 361.708191 89.013615 
L 362.077957 87.202711 
L 362.447723 89.918732 
L 362.817489 90.053022 
L 363.926787 89.449387 
L 364.296553 89.415815 
L 364.666319 83.106186 
L 365.036085 81.925774 
L 366.515149 80.826608 
L 366.884915 76.02573 
L 367.254681 76.548119 
L 367.624447 79.59248 
L 367.994213 81.18852 
L 369.103511 80.692318 
L 369.473277 87.116093 
L 369.843043 71.043561 
L 370.212809 73.289566 
L 370.582575 69.05875 
L 371.691873 74.402832 
L 372.061639 83.535243 
L 372.431405 83.488241 
L 373.170937 91.561102 
L 374.280235 110.309369 
L 375.019767 101.800065 
L 375.759299 104.945143 
L 376.868597 114.620758 
L 377.238363 108.887906 
L 377.977895 120.226035 
L 378.347661 121.366159 
L 379.826725 122.566043 
L 380.196491 123.960648 
L 380.566257 122.451896 
L 380.936023 127.729505 
L 380.936023 127.729505 
" clip-path="url(#p361147a358)" style="fill: none; stroke: #bc80bd; stroke-opacity: 0.5; stroke-width: 2; stroke-linecap: square"/>
   </g>
   <g id="line2d_21">
    <path d="M 56.281477 231.391533 
L 56.651243 231.492251 
L 57.021009 231.210689 
L 57.390775 230.566991 
L 58.500073 229.841421 
L 59.239605 228.811146 
L 59.979137 228.336355 
L 61.458201 228.037096 
L 62.197733 227.617249 
L 62.567499 227.442366 
L 64.046563 227.156286 
L 65.155861 226.349418 
L 66.634925 226.014819 
L 67.744223 224.124415 
L 68.853521 223.498818 
L 70.332585 220.994779 
L 71.441883 220.391214 
L 72.920947 217.941242 
L 74.400011 217.35808 
L 75.509309 215.790831 
L 76.618607 215.316474 
L 78.097671 213.350992 
L 79.206969 212.90012 
L 80.686033 211.323265 
L 81.795331 210.966065 
L 83.274395 209.573817 
L 84.383693 209.215887 
L 85.862757 207.993536 
L 86.972055 207.709789 
L 88.451119 206.360474 
L 89.560417 206.054388 
L 91.039481 204.897894 
L 92.148779 204.648344 
L 93.258077 204.053029 
L 94.737141 203.858136 
L 96.216205 203.144756 
L 97.325503 202.937393 
L 98.804567 202.137364 
L 99.913865 201.898013 
L 101.392929 200.927196 
L 102.502227 200.598825 
L 103.981291 199.243893 
L 105.090589 198.894452 
L 105.830121 198.313529 
L 106.569653 197.758769 
L 107.678951 197.470714 
L 109.158015 196.394926 
L 110.637079 196.138905 
L 111.746377 195.395169 
L 112.855675 195.15463 
L 114.334739 194.264194 
L 115.813803 194.053408 
L 116.923101 193.838236 
L 118.771931 193.559906 
L 119.511463 193.376309 
L 121.360293 193.144388 
L 122.099825 193.028376 
L 125.797485 192.750216 
L 129.495145 191.912418 
L 129.864911 191.795912 
L 131.343975 191.5194 
L 132.453273 191.159758 
L 133.932337 190.967338 
L 135.041635 190.465185 
L 136.150933 190.276262 
L 137.629997 189.546676 
L 138.739295 189.35299 
L 140.218359 188.617071 
L 141.327657 188.461481 
L 142.806721 187.760505 
L 143.916019 187.573818 
L 145.395083 186.768818 
L 146.874147 186.587657 
L 147.983445 186.097128 
L 149.462509 185.769194 
L 150.571807 185.342251 
L 152.050871 185.075213 
L 153.160169 184.8145 
L 154.639233 184.678469 
L 155.74853 184.428738 
L 157.59736 184.186013 
L 158.336892 184.004635 
L 159.815956 183.818108 
L 160.925254 183.530462 
L 162.404318 183.285047 
L 163.513616 182.993106 
L 164.99268 182.814099 
L 167.581042 182.157393 
L 168.69034 181.629477 
L 169.799638 181.418839 
L 171.278702 180.557695 
L 172.388 180.354219 
L 173.867064 179.660741 
L 174.976362 179.494459 
L 175.715894 179.108576 
L 178.674022 178.22012 
L 179.043788 178.058239 
L 180.522852 177.756823 
L 181.63215 177.324094 
L 183.111214 177.002414 
L 184.220512 176.517049 
L 185.699576 176.165377 
L 186.808874 175.661864 
L 188.657704 175.386972 
L 189.397236 175.121806 
L 191.246066 174.83449 
L 191.985598 174.529432 
L 193.464662 174.224872 
L 194.57396 173.754946 
L 196.053024 173.596714 
L 197.162322 173.07925 
L 198.641386 172.763959 
L 199.750684 172.38425 
L 201.229748 172.192582 
L 202.339046 171.949396 
L 204.557642 171.787324 
L 206.776238 171.520233 
L 207.51577 171.276397 
L 209.3646 171.050154 
L 210.104132 170.798556 
L 211.583196 170.498634 
L 212.692494 170.093149 
L 214.171558 169.824461 
L 215.280856 169.418662 
L 216.75992 169.114895 
L 217.869218 168.705865 
L 219.348282 168.470274 
L 220.45758 168.230844 
L 222.30641 167.983076 
L 222.676176 167.908751 
L 224.525006 167.764214 
L 225.634304 167.499238 
L 227.113368 167.318041 
L 228.222666 167.018813 
L 229.70173 166.790027 
L 230.811028 166.524498 
L 234.508688 166.244527 
L 235.617986 165.961505 
L 235.987752 165.822251 
L 237.466816 165.529473 
L 238.576114 165.050397 
L 240.055178 164.743965 
L 241.164476 164.292726 
L 242.64354 163.993971 
L 243.752838 163.538982 
L 245.601668 163.246032 
L 246.3412 162.948596 
L 247.450498 162.786309 
L 248.929562 162.123322 
L 250.408626 161.809492 
L 251.517924 161.366565 
L 252.996988 161.100739 
L 254.106286 160.728088 
L 255.58535 160.503135 
L 256.694648 160.149283 
L 258.913244 159.793621 
L 259.28301 159.665887 
L 260.762074 159.391273 
L 261.871372 158.989517 
L 263.350436 158.7159 
L 264.459734 158.310118 
L 265.938798 158.034288 
L 267.048096 157.613135 
L 268.52716 157.362278 
L 269.636458 156.802891 
L 270.745756 156.604444 
L 272.22482 155.839626 
L 273.334118 155.643998 
L 274.813182 154.80996 
L 275.92248 154.593227 
L 277.401544 153.737064 
L 278.510842 153.515893 
L 279.989906 152.550886 
L 281.46897 152.295024 
L 282.578267 151.587559 
L 283.687565 151.374599 
L 285.166629 150.450239 
L 286.275927 150.244131 
L 287.754991 149.418784 
L 288.864289 149.206565 
L 290.343353 148.330011 
L 291.452651 148.098934 
L 292.931715 147.168019 
L 294.041013 146.954763 
L 295.520077 146.16652 
L 296.629375 145.980924 
L 298.108439 145.213798 
L 299.217737 145.020664 
L 300.696801 144.287106 
L 302.175865 143.965085 
L 303.285163 143.451556 
L 304.764227 143.206649 
L 305.873525 142.786982 
L 307.722355 142.541033 
L 308.461887 142.369273 
L 318.075803 141.93153 
L 320.294399 141.946496 
L 326.210655 142.380479 
L 326.580421 142.442246 
L 330.278081 142.748919 
L 331.757145 142.901067 
L 335.454805 143.093979 
L 336.933869 143.141211 
L 344.329189 142.952984 
L 353.943105 142.346811 
L 357.640765 141.817737 
L 359.119829 141.670445 
L 360.229127 141.422418 
L 361.708191 141.236775 
L 362.817489 140.963588 
L 364.296553 140.78435 
L 365.036085 140.58238 
L 366.884915 140.367678 
L 367.994213 140.051915 
L 369.473277 139.859629 
L 370.582575 139.508373 
L 372.061639 139.302807 
L 373.170937 139.03958 
L 375.019767 138.872306 
L 375.759299 138.755727 
L 380.936023 138.472148 
L 380.936023 138.472148 
" clip-path="url(#p361147a358)" style="fill: none; stroke-dasharray: 2,3.3; stroke-dashoffset: 0; stroke: #fb8072; stroke-width: 2"/>
   </g>
   <g id="line2d_22">
    <path d="M 56.281477 231.391533 
L 56.651243 231.493785 
L 57.021009 231.203078 
L 57.390775 230.531669 
L 58.500073 229.76874 
L 59.239605 228.678891 
L 59.979137 228.185524 
L 61.458201 227.860846 
L 62.197733 227.409063 
L 62.567499 227.219571 
L 64.046563 226.909967 
L 65.155861 225.959003 
L 66.634925 225.576514 
L 67.744223 223.138905 
L 68.853521 222.327339 
L 70.332585 219.052089 
L 71.441883 218.256268 
L 72.920947 214.983503 
L 74.400011 214.198852 
L 75.509309 212.110851 
L 76.618607 211.48323 
L 77.358139 210.134834 
L 78.097671 208.805419 
L 79.206969 208.19557 
L 80.316267 206.598824 
L 80.686033 206.11344 
L 81.795331 205.647343 
L 83.274395 203.800124 
L 84.383693 203.305856 
L 85.862757 201.701868 
L 86.972055 201.334031 
L 88.451119 199.369563 
L 89.560417 198.937356 
L 90.669715 197.670675 
L 91.039481 197.325527 
L 92.148779 197.002962 
L 93.258077 196.368019 
L 94.737141 196.153686 
L 96.216205 195.405272 
L 97.325503 195.132293 
L 98.434801 194.316602 
L 98.804567 194.081928 
L 99.913865 193.703664 
L 101.392929 192.132255 
L 102.502227 191.493955 
L 103.981291 188.829203 
L 105.090589 188.135072 
L 105.460355 187.475518 
L 106.199887 186.62535 
L 106.569653 186.138832 
L 107.678951 185.622276 
L 109.158015 183.7806 
L 110.637079 183.356634 
L 111.746377 182.146431 
L 112.855675 181.763823 
L 113.964973 180.543205 
L 114.334739 180.456988 
L 116.183569 180.679544 
L 116.923101 181.053304 
L 118.402165 181.172289 
L 121.730059 181.671134 
L 122.099825 181.792147 
L 123.948655 182.044732 
L 124.688187 182.31348 
L 126.906783 182.322763 
L 127.276549 182.180559 
L 128.385847 182.017003 
L 129.864911 181.253384 
L 130.974209 180.996411 
L 132.083507 180.252647 
L 132.453273 180.15096 
L 133.932337 179.968328 
L 135.041635 178.738741 
L 136.150933 178.235156 
L 136.890465 177.109165 
L 137.629997 176.38492 
L 138.739295 175.87459 
L 139.478827 174.764968 
L 140.218359 174.061506 
L 141.327657 173.74895 
L 142.806721 172.129245 
L 143.916019 171.671072 
L 145.395083 169.579032 
L 146.874147 169.168489 
L 147.613679 168.430858 
L 147.983445 168.219128 
L 149.092743 167.877953 
L 149.832275 167.344638 
L 150.571807 166.950585 
L 152.790403 166.680134 
L 153.160169 166.845705 
L 155.74853 167.326865 
L 158.336892 167.425063 
L 160.185722 167.253181 
L 160.925254 167.110657 
L 162.034552 166.880953 
L 162.774084 166.41998 
L 165.732212 166.137724 
L 166.101978 165.783622 
L 167.211276 165.266284 
L 168.69034 162.897324 
L 169.799638 162.105827 
L 171.278702 158.932817 
L 172.388 158.243852 
L 173.497298 156.784505 
L 173.867064 156.344239 
L 174.976362 155.92586 
L 175.715894 154.739207 
L 176.455426 154.129262 
L 177.564724 153.579933 
L 177.93449 153.095223 
L 178.674022 152.396048 
L 179.043788 152.043776 
L 180.153086 151.762289 
L 181.63215 150.80362 
L 182.741448 150.422101 
L 184.220512 149.026508 
L 185.32981 148.518039 
L 186.808874 146.944065 
L 188.287938 146.779497 
L 189.397236 146.353147 
L 190.8763 146.125028 
L 191.615832 145.652858 
L 191.985598 145.314556 
L 193.094896 145.015189 
L 194.57396 143.743039 
L 196.053024 143.404324 
L 197.162322 142.064812 
L 198.27162 141.738027 
L 199.011152 141.245463 
L 199.750684 141.187002 
L 200.859982 141.319997 
L 201.96928 141.774195 
L 202.339046 142.247703 
L 203.81811 143.218341 
L 204.187876 143.696598 
L 204.927408 144.929141 
L 206.776238 145.329798 
L 207.51577 144.831653 
L 209.3646 144.483 
L 209.734366 144.265593 
L 210.104132 143.909655 
L 211.21343 143.397805 
L 211.952962 142.48651 
L 212.692494 141.880688 
L 213.801792 141.534345 
L 215.280856 140.177782 
L 216.390154 139.645946 
L 217.129686 138.868594 
L 217.869218 138.218157 
L 219.718048 137.936827 
L 220.087814 138.091264 
L 220.45758 138.428961 
L 221.566878 138.380132 
L 222.676176 138.977314 
L 224.894772 139.324659 
L 225.264538 139.247549 
L 225.634304 139.386187 
L 226.743602 139.440005 
L 229.331964 138.760803 
L 230.071496 138.144572 
L 230.441262 138.102867 
L 230.811028 138.403782 
L 231.920326 138.718009 
L 233.39939 140.247896 
L 234.878454 140.571274 
L 235.617986 139.97451 
L 235.987752 139.346239 
L 237.09705 138.673443 
L 238.206348 136.395875 
L 238.576114 135.611242 
L 239.685412 134.871663 
L 241.164476 132.346156 
L 242.273774 131.729292 
L 243.752838 129.358978 
L 245.231902 128.819446 
L 246.3412 127.247805 
L 247.450498 126.580727 
L 248.929562 123.874055 
L 250.03886 123.337563 
L 251.148158 121.820276 
L 251.517924 121.460661 
L 252.996988 120.93062 
L 253.73652 120.548322 
L 254.106286 120.416361 
L 255.58535 120.317679 
L 258.913244 119.541646 
L 259.28301 119.293038 
L 260.392308 118.924942 
L 261.871372 117.635944 
L 262.98067 117.301085 
L 264.459734 115.989613 
L 265.569032 115.670343 
L 267.048096 114.190006 
L 268.157394 114.007998 
L 268.52716 113.81314 
L 268.896926 113.081217 
L 269.636458 111.093651 
L 270.745756 110.077605 
L 272.22482 106.52828 
L 273.334118 105.624863 
L 274.443416 102.750526 
L 274.813182 101.537406 
L 275.92248 100.463271 
L 277.401544 96.480563 
L 278.510842 95.438039 
L 279.62014 91.832526 
L 279.989906 90.458949 
L 281.46897 89.090161 
L 282.208502 86.802036 
L 282.578267 85.885921 
L 283.687565 85.141718 
L 285.166629 81.363571 
L 286.275927 80.777378 
L 287.754991 78.473805 
L 288.864289 77.832696 
L 290.343353 74.973939 
L 291.452651 74.124413 
L 292.561949 71.369642 
L 292.931715 70.770459 
L 294.041013 70.215418 
L 294.410779 69.52716 
L 295.150311 69.309466 
L 295.520077 68.879716 
L 296.629375 68.692776 
L 297.368907 67.924109 
L 297.738673 67.83062 
L 298.108439 67.580418 
L 299.217737 67.273142 
L 299.587503 66.874507 
L 299.957269 66.85797 
L 300.327035 66.613803 
L 300.696801 66.545945 
L 302.175865 66.752935 
L 302.545631 66.556778 
L 302.915397 66.203968 
L 303.285163 66.576053 
L 304.394461 67.222813 
L 304.764227 67.745382 
L 305.503759 68.188496 
L 305.873525 68.612681 
L 306.982823 69.525835 
L 308.461887 73.499633 
L 309.571185 74.670702 
L 310.310717 77.769752 
L 311.050249 79.47411 
L 312.159547 81.014494 
L 312.899079 83.666211 
L 313.638611 86.02576 
L 314.747909 86.871927 
L 315.117675 88.087583 
L 315.857207 89.364546 
L 316.226973 90.905535 
L 317.336271 92.346369 
L 318.815335 97.892316 
L 319.924633 99.399131 
L 320.664165 102.326307 
L 321.403697 106.012382 
L 323.252527 109.638237 
L 323.992059 112.656232 
L 325.101357 114.021678 
L 325.840889 115.337701 
L 326.580421 119.065824 
L 327.689719 120.717533 
L 328.799017 124.711464 
L 329.168783 125.980564 
L 330.278081 127.322642 
L 331.387379 130.453636 
L 331.757145 131.330604 
L 333.236209 132.352463 
L 334.345507 135.020379 
L 335.454805 135.785504 
L 335.824571 136.605912 
L 336.564103 137.102823 
L 336.933869 137.307808 
L 338.043167 137.275718 
L 338.782699 136.931611 
L 343.589657 136.817788 
L 346.178019 136.173919 
L 347.287317 135.63813 
L 348.396615 135.395432 
L 349.136147 135.012853 
L 349.875679 134.87495 
L 350.984977 134.506489 
L 352.094275 133.003763 
L 352.464041 132.338422 
L 353.573339 131.600098 
L 354.312871 130.253015 
L 355.052403 128.439283 
L 356.161701 127.781917 
L 357.270999 126.030167 
L 357.640765 125.387142 
L 358.750063 124.699854 
L 360.229127 121.345836 
L 361.338425 120.345896 
L 362.817489 116.758263 
L 363.926787 115.938997 
L 364.666319 114.182188 
L 365.036085 113.214495 
L 366.515149 112.242859 
L 367.624447 109.202329 
L 367.994213 108.361915 
L 369.103511 107.531827 
L 369.473277 106.919355 
L 370.582575 103.792244 
L 371.691873 102.910562 
L 372.801171 101.322012 
L 373.170937 101.029185 
L 376.868597 101.990636 
L 377.238363 102.197554 
L 377.977895 103.115145 
L 378.347661 103.662675 
L 379.826725 104.229776 
L 380.936023 106.021975 
L 380.936023 106.021975 
" clip-path="url(#p361147a358)" style="fill: none; stroke-dasharray: 7.4,3.2; stroke-dashoffset: 0; stroke: #b3de69; stroke-width: 2"/>
   </g>
   <g id="line2d_23">
    <path d="M 70.332585 220.994779 
L 71.441883 219.998346 
L 72.920947 215.81621 
L 74.400011 214.793902 
L 75.509309 211.758342 
L 76.618607 210.773394 
L 77.727905 207.526855 
L 78.097671 206.385531 
L 79.206969 205.262888 
L 80.686033 201.253628 
L 81.795331 200.216955 
L 83.274395 197.638102 
L 84.383693 197.044683 
L 85.862757 195.153084 
L 86.972055 194.822394 
L 88.451119 193.006238 
L 89.560417 192.635069 
L 90.669715 191.374011 
L 91.039481 191.016488 
L 92.518545 190.676445 
L 93.258077 190.466425 
L 95.106907 190.211417 
L 95.846439 189.910895 
L 96.216205 189.736797 
L 97.325503 189.474116 
L 98.434801 188.8618 
L 99.913865 188.358451 
L 101.392929 186.877541 
L 102.502227 186.357886 
L 103.611525 184.656907 
L 103.981291 183.920277 
L 105.090589 183.267482 
L 105.460355 182.584976 
L 106.199887 181.621563 
L 106.569653 181.026945 
L 107.678951 180.293432 
L 109.158015 177.395784 
L 110.637079 176.625653 
L 111.746377 174.654056 
L 112.855675 174.087926 
L 113.964973 172.077313 
L 114.334739 171.908011 
L 116.183569 172.02964 
L 116.553335 172.25906 
L 116.923101 172.83212 
L 118.032399 173.230099 
L 118.771931 174.118789 
L 119.511463 175.245268 
L 120.620761 175.792477 
L 121.360293 176.542752 
L 122.099825 177.638849 
L 123.209123 178.224355 
L 123.948655 178.749046 
L 124.688187 179.916724 
L 125.797485 180.405708 
L 127.276549 181.950071 
L 128.385847 182.226421 
L 129.125379 182.750872 
L 129.495145 182.673296 
L 129.864911 182.398384 
L 130.974209 182.08779 
L 132.453273 180.488609 
L 133.562571 180.278349 
L 133.932337 180.041518 
L 135.041635 178.263922 
L 136.150933 177.408277 
L 137.629997 174.113609 
L 138.739295 173.185663 
L 139.478827 171.094835 
L 140.218359 169.61992 
L 141.327657 168.93528 
L 142.436955 166.978814 
L 142.806721 166.389711 
L 143.916019 165.763007 
L 145.395083 162.846246 
L 146.874147 162.323234 
L 147.983445 160.343771 
L 150.202041 159.004873 
L 150.571807 158.910054 
L 152.420637 159.004873 
L 152.790403 159.238826 
L 153.160169 159.690712 
L 154.269467 160.317872 
L 154.639233 160.76091 
L 155.74853 161.384497 
L 156.857828 161.724059 
L 158.336892 162.971952 
L 159.44619 163.374751 
L 160.925254 164.96892 
L 162.774084 165.067096 
L 163.513616 165.642554 
L 164.99268 165.908616 
L 165.732212 166.179451 
L 166.101978 165.932309 
L 167.211276 165.326924 
L 168.69034 161.484351 
L 169.799638 160.344466 
L 171.278702 155.419274 
L 172.388 154.215913 
L 173.867064 150.707652 
L 174.976362 149.908768 
L 175.715894 147.839523 
L 176.455426 146.945102 
L 177.564724 146.135451 
L 179.043788 142.733279 
L 180.153086 141.974634 
L 180.892618 140.489432 
L 181.262384 140.100062 
L 181.63215 139.914238 
L 182.741448 139.673331 
L 183.48098 139.092861 
L 186.808874 138.960945 
L 189.397236 138.972431 
L 191.246066 138.894135 
L 191.985598 139.0014 
L 193.464662 138.912576 
L 194.57396 138.099089 
L 196.053024 137.734371 
L 197.162322 136.088475 
L 199.380918 135.324795 
L 199.750684 135.36549 
L 200.859982 135.709153 
L 201.599514 136.653622 
L 201.96928 137.029347 
L 202.339046 137.857678 
L 203.81811 139.345998 
L 204.187876 139.979656 
L 204.927408 141.584089 
L 206.036706 142.092234 
L 206.776238 142.788625 
L 207.51577 142.933995 
L 208.994834 143.035528 
L 209.734366 143.298713 
L 210.104132 143.346362 
L 211.583196 143.14471 
L 211.952962 143.167468 
L 212.322728 143.324324 
L 213.801792 143.300607 
L 214.541324 142.856394 
L 214.91109 142.505585 
L 215.280856 141.777827 
L 216.390154 140.893694 
L 217.499452 138.406781 
L 217.869218 137.133973 
L 218.978516 136.392331 
L 220.087814 133.779474 
L 221.936644 133.111835 
L 222.676176 133.751201 
L 224.894772 134.251936 
L 225.264538 134.407353 
L 225.634304 135.015136 
L 228.222666 136.158138 
L 229.331964 136.205308 
L 229.70173 136.020923 
L 230.071496 135.967998 
L 230.441262 136.379166 
L 230.811028 137.296345 
L 231.920326 138.139999 
L 233.39939 141.42721 
L 234.878454 142.122881 
L 235.24822 141.682001 
L 235.987752 140.364182 
L 237.09705 139.399354 
L 238.576114 134.61687 
L 239.685412 133.627126 
L 240.055178 132.80479 
L 240.79471 130.614803 
L 241.164476 129.825752 
L 242.273774 128.913369 
L 243.752838 125.919751 
L 245.231902 125.302615 
L 245.601668 124.418482 
L 246.3412 121.689703 
L 247.450498 119.988989 
L 248.929562 113.110424 
L 250.03886 111.800039 
L 250.778392 110.021508 
L 251.148158 109.579669 
L 251.517924 109.326556 
L 252.627222 109.13066 
L 253.366754 109.346675 
L 254.106286 109.711633 
L 255.215584 109.956833 
L 255.955116 110.336419 
L 257.803946 110.526295 
L 258.173712 110.782526 
L 259.28301 110.975544 
L 260.392308 110.820127 
L 261.13184 110.598381 
L 261.871372 110.580419 
L 263.350436 110.862285 
L 263.720202 111.038301 
L 265.938798 110.920461 
L 267.048096 110.251384 
L 268.157394 110.008558 
L 268.52716 109.790145 
L 268.896926 108.866755 
L 269.636458 106.087186 
L 270.745756 104.668313 
L 272.22482 99.514876 
L 273.334118 98.037347 
L 274.813182 92.307756 
L 275.92248 90.676489 
L 277.401544 84.922438 
L 278.510842 83.294024 
L 279.250374 79.790079 
L 279.989906 75.783264 
L 281.46897 73.80524 
L 282.578267 68.1362 
L 283.687565 66.477859 
L 284.057331 65.146395 
L 284.796863 63.20861 
L 285.166629 62.313229 
L 286.275927 61.649428 
L 287.754991 59.153187 
L 288.864289 58.515956 
L 289.234055 57.826039 
L 289.973587 56.989315 
L 290.343353 56.394936 
L 291.452651 55.689697 
L 292.561949 53.225782 
L 292.931715 52.856747 
L 294.041013 52.620876 
L 294.410779 52.395532 
L 294.780545 52.895787 
L 295.150311 53.657525 
L 295.520077 54.020085 
L 296.629375 54.569188 
L 297.738673 54.76319 
L 298.108439 55.025895 
L 299.217737 55.051026 
L 299.587503 55.263924 
L 299.957269 55.769935 
L 300.327035 55.65905 
L 301.806099 56.124102 
L 302.175865 56.511817 
L 302.915397 56.359254 
L 303.285163 57.207704 
L 304.394461 58.294425 
L 305.133993 60.430983 
L 305.503759 61.472692 
L 305.873525 62.863771 
L 306.982823 65.013759 
L 308.461887 72.889021 
L 309.571185 74.612972 
L 310.310717 79.321957 
L 311.050249 81.891002 
L 312.159547 84.60182 
L 312.899079 89.269342 
L 313.638611 93.923963 
L 314.747909 96.075606 
L 315.117675 98.256696 
L 315.857207 100.825765 
L 316.226973 103.553584 
L 317.336271 105.983015 
L 318.815335 116.688613 
L 319.924633 118.830927 
L 320.294399 120.97396 
L 321.403697 129.885655 
L 323.252527 134.661929 
L 323.992059 138.476924 
L 325.101357 140.55075 
L 325.840889 142.17053 
L 326.580421 145.841139 
L 327.689719 147.253322 
L 329.168783 153.002553 
L 330.278081 154.658016 
L 330.647847 156.497409 
L 331.387379 158.850439 
L 331.757145 159.527406 
L 333.236209 160.472378 
L 334.345507 163.041447 
L 335.454805 163.573788 
L 335.824571 164.109966 
L 336.194337 164.158574 
L 336.564103 163.836014 
L 336.933869 163.273985 
L 338.043167 162.083574 
L 338.412933 160.498996 
L 339.522231 157.786764 
L 340.631529 157.067616 
L 341.001295 156.273528 
L 341.740827 153.259551 
L 342.110593 151.912283 
L 343.589657 150.699594 
L 344.698955 147.286894 
L 345.808253 145.840468 
L 346.917551 142.322662 
L 347.287317 141.226853 
L 348.396615 139.87527 
L 349.505913 136.372739 
L 349.875679 135.366713 
L 350.984977 133.918872 
L 352.464041 130.084213 
L 353.573339 129.235043 
L 353.943105 128.476398 
L 354.312871 127.431332 
L 355.052403 124.737517 
L 356.161701 123.697247 
L 357.640765 119.528253 
L 358.750063 118.410406 
L 360.229127 113.20191 
L 361.338425 111.73227 
L 362.817489 106.004118 
L 363.926787 104.56491 
L 365.036085 99.79655 
L 366.515149 98.422472 
L 367.254681 95.559595 
L 367.994213 93.496297 
L 369.103511 92.443821 
L 369.843043 90.81663 
L 370.582575 88.42456 
L 371.691873 87.163023 
L 372.801171 84.874429 
L 373.170937 84.484555 
L 374.280235 84.926394 
L 375.389533 85.867506 
L 375.759299 86.472172 
L 376.868597 87.386712 
L 377.608129 89.06208 
L 378.347661 91.279572 
L 379.826725 92.463509 
L 380.936023 97.045062 
L 380.936023 97.045062 
" clip-path="url(#p361147a358)" style="fill: none; stroke-dasharray: 12.8,3.2,2,3.2; stroke-dashoffset: 0; stroke: #fdb462; stroke-width: 2"/>
   </g>
   <g id="patch_3">
    <path d="M 40.04875 246.305812 
L 40.04875 11.297812 
" style="fill: none; stroke: #000000; stroke-width: 0.6; stroke-linejoin: miter; stroke-linecap: square"/>
   </g>
   <g id="patch_4">
    <path d="M 40.04875 246.305812 
L 397.16875 246.305812 
" style="fill: none; stroke: #000000; stroke-width: 0.6; stroke-linejoin: miter; stroke-linecap: square"/>
   </g>
   <g id="legend_1">
    <g id="patch_5">
     <path d="M 47.04875 68.988437 
L 154.750313 68.988437 
Q 156.750313 68.988437 156.750313 66.988437 
L 156.750313 18.297812 
Q 156.750313 16.297812 154.750313 16.297812 
L 47.04875 16.297812 
Q 45.04875 16.297812 45.04875 18.297812 
L 45.04875 66.988437 
Q 45.04875 68.988437 47.04875 68.988437 
z
" style="fill: #ffffff; opacity: 0.8; stroke: #e6e6e6; stroke-width: 0.8; stroke-linejoin: miter"/>
    </g>
    <g id="line2d_24">
     <path d="M 47.04875 21.797812 
L 57.04875 21.797812 
L 67.04875 21.797812 
" style="fill: none; stroke: #bc80bd; stroke-opacity: 0.5; stroke-width: 2; stroke-linecap: square"/>
    </g>
    <g id="text_22">
     <!-- Raw -->
     <g style="fill: #323034" transform="translate(75.04875 25.297812)scale(0.1 -0.1)">
      <defs>
       <path id="STIXGeneral-Regular-52" d="M 4224 0 
L 3187 0 
L 1664 1971 
L 1306 1958 
L 1306 717 
Q 1306 352 1405 249 
Q 1504 147 1875 122 
L 1875 0 
L 109 0 
L 109 122 
Q 474 154 563 262 
Q 653 371 653 794 
L 653 3526 
Q 653 3885 563 3987 
Q 474 4090 109 4115 
L 109 4237 
L 1850 4237 
Q 2726 4237 3187 3859 
Q 3501 3603 3501 3091 
Q 3501 2221 2342 2042 
L 3622 422 
Q 3757 256 3878 198 
Q 4000 141 4224 122 
L 4224 0 
z
M 1306 3731 
L 1306 2195 
Q 1766 2202 1990 2246 
Q 2214 2291 2438 2413 
Q 2803 2618 2803 3142 
Q 2803 4000 1632 4000 
Q 1459 4000 1382 3945 
Q 1306 3891 1306 3731 
z
" transform="scale(0.015625)"/>
       <path id="STIXGeneral-Regular-77" d="M 4442 2880 
L 4442 2784 
Q 4346 2752 4301 2691 
Q 4256 2630 4179 2438 
L 3296 224 
Q 3168 -90 3117 -90 
Q 3085 -90 3062 -48 
Q 3040 -6 2963 186 
L 2381 1696 
L 1664 160 
Q 1549 -90 1504 -90 
Q 1446 -90 1338 192 
L 474 2381 
Q 378 2630 314 2700 
Q 250 2771 134 2784 
L 134 2880 
L 1286 2880 
L 1286 2784 
Q 1120 2765 1056 2720 
Q 992 2675 992 2573 
Q 992 2477 1030 2381 
L 1664 710 
L 2246 1984 
L 2118 2342 
Q 2029 2598 1942 2681 
Q 1856 2765 1677 2784 
L 1677 2880 
L 2976 2880 
L 2976 2784 
Q 2752 2752 2678 2707 
Q 2605 2662 2605 2560 
Q 2605 2458 2714 2176 
L 3251 742 
L 3827 2163 
Q 3936 2432 3936 2592 
Q 3936 2669 3875 2710 
Q 3814 2752 3654 2784 
L 3654 2880 
L 4442 2880 
z
" transform="scale(0.015625)"/>
      </defs>
      <use xlink:href="#STIXGeneral-Regular-52"/>
      <use xlink:href="#STIXGeneral-Regular-61" x="66.699997"/>
      <use xlink:href="#STIXGeneral-Regular-77" x="111.099991"/>
     </g>
    </g>
    <g id="line2d_25">
     <path d="M 47.04875 34.968125 
L 57.04875 34.968125 
L 67.04875 34.968125 
" style="fill: none; stroke-dasharray: 2,3.3; stroke-dashoffset: 0; stroke: #fb8072; stroke-width: 2"/>
    </g>
    <g id="text_23">
     <!-- Expanding Average -->
     <g style="fill: #323034" transform="translate(75.04875 38.468125)scale(0.1 -0.1)">
      <defs>
       <path id="STIXGeneral-Regular-45" d="M 3821 1082 
L 3526 0 
L 77 0 
L 77 122 
Q 442 147 538 252 
Q 634 358 634 730 
L 634 3520 
Q 634 3878 534 3987 
Q 435 4096 77 4115 
L 77 4237 
L 3469 4237 
L 3494 3322 
L 3334 3322 
Q 3264 3750 3085 3872 
Q 2906 3994 2349 3994 
L 1510 3994 
Q 1370 3994 1328 3952 
Q 1286 3910 1286 3763 
L 1286 2355 
L 2253 2355 
Q 2656 2355 2787 2470 
Q 2918 2586 2976 2970 
L 3123 2970 
L 3123 1472 
L 2976 1472 
Q 2918 1875 2790 1984 
Q 2662 2093 2253 2093 
L 1286 2093 
L 1286 538 
Q 1286 346 1420 291 
Q 1555 237 1933 237 
L 2163 237 
Q 2848 237 3136 403 
Q 3424 570 3642 1082 
L 3821 1082 
z
" transform="scale(0.015625)"/>
       <path id="STIXGeneral-Regular-78" d="M 3066 0 
L 1779 0 
L 1779 96 
Q 1939 109 1987 137 
Q 2035 166 2035 250 
Q 2035 307 1997 365 
L 1414 1261 
L 909 474 
Q 781 275 781 211 
Q 781 96 1037 96 
L 1037 0 
L 109 0 
L 109 96 
Q 269 109 355 169 
Q 442 230 576 422 
L 1306 1478 
L 704 2400 
Q 557 2624 454 2704 
Q 352 2784 211 2784 
L 154 2784 
L 154 2880 
L 1478 2880 
L 1478 2784 
Q 1203 2778 1203 2643 
Q 1203 2509 1498 2074 
Q 1581 1958 1587 1946 
Q 1619 1990 1779 2227 
Q 1811 2285 1856 2349 
Q 1901 2413 1923 2451 
Q 1946 2490 1971 2528 
Q 1997 2566 2006 2595 
Q 2016 2624 2016 2643 
Q 2016 2765 1760 2784 
L 1760 2880 
L 2771 2880 
L 2771 2784 
Q 2445 2771 2253 2502 
L 1722 1734 
L 2541 480 
Q 2790 96 3066 96 
L 3066 0 
z
" transform="scale(0.015625)"/>
       <path id="STIXGeneral-Regular-70" d="M 1018 2931 
L 1018 2438 
Q 1421 2944 1939 2944 
Q 2406 2944 2707 2560 
Q 3008 2176 3008 1581 
Q 3008 883 2621 409 
Q 2234 -64 1664 -64 
Q 1466 -64 1328 -6 
Q 1190 51 1018 211 
L 1018 -794 
Q 1018 -1094 1120 -1180 
Q 1222 -1267 1581 -1274 
L 1581 -1389 
L 32 -1389 
L 32 -1280 
Q 314 -1254 397 -1171 
Q 480 -1088 480 -838 
L 480 2157 
Q 480 2381 429 2451 
Q 378 2522 218 2522 
Q 115 2522 58 2515 
L 58 2618 
Q 506 2752 979 2944 
L 1018 2931 
z
M 1018 2138 
L 1018 563 
Q 1018 422 1238 281 
Q 1459 141 1683 141 
Q 2029 141 2243 467 
Q 2458 794 2458 1325 
Q 2458 1888 2243 2224 
Q 2029 2560 1670 2560 
Q 1446 2560 1232 2419 
Q 1018 2278 1018 2138 
z
" transform="scale(0.015625)"/>
       <path id="STIXGeneral-Regular-6e" d="M 3104 0 
L 1773 0 
L 1779 96 
Q 2016 115 2096 233 
Q 2176 352 2176 672 
L 2176 1946 
Q 2176 2592 1709 2592 
Q 1549 2592 1408 2515 
Q 1267 2438 1050 2227 
L 1050 461 
Q 1050 269 1136 192 
Q 1222 115 1466 96 
L 1466 0 
L 115 0 
L 115 96 
Q 358 115 435 214 
Q 512 314 512 602 
L 512 2157 
Q 512 2394 467 2483 
Q 422 2573 288 2573 
Q 160 2573 102 2547 
L 102 2656 
Q 550 2784 979 2944 
L 1030 2925 
L 1030 2426 
L 1037 2426 
Q 1491 2944 1958 2944 
Q 2323 2944 2518 2688 
Q 2714 2432 2714 1958 
L 2714 544 
Q 2714 288 2790 205 
Q 2867 122 3104 96 
L 3104 0 
z
" transform="scale(0.015625)"/>
       <path id="STIXGeneral-Regular-64" d="M 3142 269 
L 2202 -64 
L 2176 -45 
L 2176 365 
Q 1869 -64 1357 -64 
Q 826 -64 499 317 
Q 173 698 173 1312 
Q 173 1990 563 2467 
Q 954 2944 1504 2944 
Q 1850 2944 2176 2669 
L 2176 3667 
Q 2176 3866 2118 3930 
Q 2061 3994 1882 3994 
Q 1792 3994 1741 3987 
L 1741 4090 
Q 2323 4243 2682 4371 
L 2714 4358 
L 2714 730 
Q 2714 506 2768 435 
Q 2822 365 2995 365 
Q 3034 365 3142 371 
L 3142 269 
z
M 2176 653 
L 2176 2125 
Q 2176 2381 1981 2573 
Q 1786 2765 1523 2765 
Q 1158 2765 940 2438 
Q 723 2112 723 1568 
Q 723 979 963 624 
Q 1203 269 1606 269 
Q 1907 269 2080 474 
Q 2176 582 2176 653 
z
" transform="scale(0.015625)"/>
       <path id="STIXGeneral-Regular-69" d="M 1152 4045 
Q 1152 3904 1056 3811 
Q 960 3718 819 3718 
Q 685 3718 592 3811 
Q 499 3904 499 4045 
Q 499 4179 595 4275 
Q 691 4371 826 4371 
Q 966 4371 1059 4275 
Q 1152 4179 1152 4045 
z
M 1619 0 
L 102 0 
L 102 96 
Q 435 115 521 211 
Q 608 307 608 666 
L 608 2118 
Q 608 2342 563 2432 
Q 518 2522 397 2522 
Q 243 2522 128 2490 
L 128 2592 
L 1120 2944 
L 1146 2918 
L 1146 672 
Q 1146 314 1226 218 
Q 1306 122 1619 96 
L 1619 0 
z
" transform="scale(0.015625)"/>
       <path id="STIXGeneral-Regular-67" d="M 3008 2483 
L 2477 2483 
Q 2598 2208 2598 1946 
Q 2598 1453 2265 1203 
Q 1933 954 1600 954 
Q 1530 954 1357 973 
L 1235 986 
Q 1107 947 979 812 
Q 851 678 851 582 
Q 851 435 1350 410 
L 2176 371 
Q 2528 358 2739 172 
Q 2950 -13 2950 -314 
Q 2950 -685 2566 -986 
Q 2035 -1395 1286 -1395 
Q 826 -1395 502 -1212 
Q 179 -1030 179 -774 
Q 179 -595 320 -419 
Q 461 -243 806 6 
Q 602 102 534 172 
Q 467 243 467 346 
Q 467 531 762 787 
Q 909 915 1037 1043 
Q 717 1203 579 1401 
Q 442 1600 442 1901 
Q 442 2336 752 2640 
Q 1062 2944 1510 2944 
Q 1766 2944 2022 2848 
L 2163 2797 
Q 2349 2733 2515 2733 
L 3008 2733 
L 3008 2483 
z
M 973 2163 
L 973 2144 
Q 973 1683 1155 1398 
Q 1338 1114 1632 1114 
Q 1850 1114 1978 1270 
Q 2106 1427 2106 1690 
Q 2106 2112 1914 2464 
Q 1754 2765 1446 2765 
Q 1222 2765 1097 2605 
Q 973 2445 973 2163 
z
M 2771 -410 
Q 2771 -230 2595 -163 
Q 2419 -96 1978 -96 
Q 1344 -96 941 -13 
Q 749 -243 688 -348 
Q 627 -454 627 -563 
Q 627 -774 880 -902 
Q 1133 -1030 1555 -1030 
Q 2099 -1030 2435 -860 
Q 2771 -691 2771 -410 
z
" transform="scale(0.015625)"/>
       <path id="STIXGeneral-Regular-41" d="M 4525 0 
L 2893 0 
L 2893 122 
Q 3149 122 3245 179 
Q 3334 224 3334 333 
Q 3334 499 3213 781 
L 2950 1382 
L 1274 1382 
L 979 653 
Q 922 506 922 384 
Q 922 237 1027 179 
Q 1133 122 1370 122 
L 1370 0 
L 96 0 
L 96 122 
Q 365 147 486 316 
Q 608 486 902 1190 
L 2221 4314 
L 2349 4314 
L 3923 710 
Q 4064 378 4176 262 
Q 4288 147 4525 122 
L 4525 0 
z
M 2861 1645 
L 2118 3405 
L 1382 1645 
L 2861 1645 
z
" transform="scale(0.015625)"/>
       <path id="STIXGeneral-Regular-76" d="M 3053 2880 
L 3053 2784 
Q 2906 2771 2835 2688 
Q 2765 2605 2637 2285 
L 1818 230 
Q 1690 -90 1638 -90 
Q 1587 -90 1523 77 
Q 1510 96 1497 141 
Q 1485 186 1472 211 
L 704 2048 
Q 499 2534 403 2652 
Q 307 2771 122 2784 
L 122 2880 
L 1376 2880 
L 1376 2784 
Q 1210 2771 1146 2732 
Q 1082 2694 1082 2611 
Q 1082 2509 1139 2368 
L 1792 730 
L 2426 2387 
Q 2464 2483 2464 2579 
Q 2464 2758 2163 2784 
L 2163 2880 
L 3053 2880 
z
" transform="scale(0.015625)"/>
       <path id="STIXGeneral-Regular-72" d="M 1024 2931 
L 1024 2342 
Q 1267 2688 1430 2816 
Q 1594 2944 1792 2944 
Q 1958 2944 2051 2854 
Q 2144 2765 2144 2605 
Q 2144 2470 2077 2393 
Q 2010 2317 1894 2317 
Q 1773 2317 1638 2445 
Q 1536 2541 1472 2541 
Q 1338 2541 1181 2355 
Q 1024 2170 1024 2016 
L 1024 576 
Q 1024 301 1133 205 
Q 1242 109 1568 96 
L 1568 0 
L 32 0 
L 32 96 
Q 339 154 412 224 
Q 486 294 486 538 
L 486 2138 
Q 486 2349 438 2435 
Q 390 2522 269 2522 
Q 166 2522 45 2496 
L 45 2598 
Q 448 2726 992 2944 
L 1024 2931 
z
" transform="scale(0.015625)"/>
      </defs>
      <use xlink:href="#STIXGeneral-Regular-45"/>
      <use xlink:href="#STIXGeneral-Regular-78" x="61.099991"/>
      <use xlink:href="#STIXGeneral-Regular-70" x="111.099976"/>
      <use xlink:href="#STIXGeneral-Regular-61" x="161.09996"/>
      <use xlink:href="#STIXGeneral-Regular-6e" x="205.499954"/>
      <use xlink:href="#STIXGeneral-Regular-64" x="255.499939"/>
      <use xlink:href="#STIXGeneral-Regular-69" x="305.499924"/>
      <use xlink:href="#STIXGeneral-Regular-6e" x="333.299911"/>
      <use xlink:href="#STIXGeneral-Regular-67" x="383.299896"/>
      <use xlink:href="#STIXGeneral-Regular-20" x="433.299881"/>
      <use xlink:href="#STIXGeneral-Regular-41" x="458.299866"/>
      <use xlink:href="#STIXGeneral-Regular-76" x="530.499847"/>
      <use xlink:href="#STIXGeneral-Regular-65" x="580.499832"/>
      <use xlink:href="#STIXGeneral-Regular-72" x="624.899826"/>
      <use xlink:href="#STIXGeneral-Regular-61" x="658.199814"/>
      <use xlink:href="#STIXGeneral-Regular-67" x="702.599808"/>
      <use xlink:href="#STIXGeneral-Regular-65" x="752.599792"/>
     </g>
    </g>
    <g id="line2d_26">
     <path d="M 47.04875 48.147812 
L 57.04875 48.147812 
L 67.04875 48.147812 
" style="fill: none; stroke-dasharray: 7.4,3.2; stroke-dashoffset: 0; stroke: #b3de69; stroke-width: 2"/>
    </g>
    <g id="text_24">
     <!-- EWMA ($\alpha=$0.03) -->
     <g style="fill: #323034" transform="translate(75.04875 51.647812)scale(0.1 -0.1)">
      <defs>
       <path id="STIXGeneral-Regular-57" d="M 5965 4237 
L 5965 4115 
Q 5709 4064 5616 3990 
Q 5523 3917 5434 3667 
Q 4704 1709 4128 -70 
L 4032 -70 
Q 3642 1011 3008 2637 
L 2022 -70 
L 1926 -70 
Q 1709 576 1277 1753 
Q 845 2931 698 3347 
Q 538 3808 406 3958 
Q 275 4109 32 4115 
L 32 4237 
L 1594 4237 
L 1594 4115 
Q 1357 4109 1270 4064 
Q 1184 4019 1184 3917 
Q 1184 3808 1254 3616 
L 2176 1210 
L 2842 3021 
L 2662 3501 
Q 2509 3917 2400 4013 
Q 2291 4109 2010 4115 
L 2010 4237 
L 3706 4237 
L 3706 4115 
Q 3213 4102 3213 3891 
Q 3213 3808 3322 3520 
L 4237 1190 
L 5043 3360 
Q 5152 3667 5152 3853 
Q 5152 4109 4704 4115 
L 4704 4237 
L 5965 4237 
z
" transform="scale(0.015625)"/>
       <path id="STIXGeneral-Regular-4d" d="M 5530 0 
L 3738 0 
L 3738 122 
Q 4115 147 4214 265 
Q 4314 384 4314 787 
L 4314 3661 
L 2682 0 
L 2592 0 
L 979 3514 
L 979 966 
Q 979 448 1088 294 
Q 1197 141 1574 122 
L 1574 0 
L 77 0 
L 77 122 
Q 358 141 480 205 
Q 602 269 650 432 
Q 698 595 698 966 
L 698 3514 
Q 698 3878 589 3984 
Q 480 4090 90 4115 
L 90 4237 
L 1357 4237 
L 2835 1024 
L 4250 4237 
L 5523 4237 
L 5523 4115 
Q 5178 4109 5072 3993 
Q 4966 3878 4966 3520 
L 4966 717 
Q 4966 378 5072 262 
Q 5178 147 5530 122 
L 5530 0 
z
" transform="scale(0.015625)"/>
       <path id="STIXGeneral-Italic-3b1" d="M 3514 2739 
L 2605 1069 
L 2605 954 
Q 2605 704 2662 512 
Q 2720 320 2822 320 
Q 2970 320 3149 794 
L 3251 749 
Q 3014 -58 2605 -58 
Q 2291 -58 2272 614 
Q 1709 -70 1030 -70 
Q 589 -70 381 198 
Q 173 467 173 902 
Q 173 1293 329 1673 
Q 486 2054 755 2330 
Q 973 2547 1270 2684 
Q 1568 2822 1862 2822 
Q 2246 2822 2457 2595 
Q 2669 2368 2669 2061 
L 2963 2739 
L 3514 2739 
z
M 2298 1741 
Q 2298 2688 1805 2688 
Q 1472 2688 1085 2099 
Q 698 1510 698 800 
Q 698 493 806 278 
Q 915 64 1139 64 
Q 1606 64 2195 1286 
Q 2202 1325 2230 1411 
Q 2259 1498 2278 1581 
Q 2298 1664 2298 1741 
z
" transform="scale(0.015625)"/>
       <path id="STIXGeneral-Regular-3d" d="M 4077 2048 
L 307 2048 
L 307 2470 
L 4077 2470 
L 4077 2048 
z
M 4077 768 
L 307 768 
L 307 1190 
L 4077 1190 
L 4077 768 
z
" transform="scale(0.015625)"/>
       <path id="STIXGeneral-Regular-2e" d="M 1158 275 
Q 1158 134 1052 32 
Q 947 -70 800 -70 
Q 653 -70 550 32 
Q 448 134 448 281 
Q 448 429 553 534 
Q 659 640 806 640 
Q 947 640 1052 531 
Q 1158 422 1158 275 
z
" transform="scale(0.015625)"/>
      </defs>
      <use xlink:href="#STIXGeneral-Regular-45" transform="translate(0 0.40625)"/>
      <use xlink:href="#STIXGeneral-Regular-57" transform="translate(61.099991 0.40625)"/>
      <use xlink:href="#STIXGeneral-Regular-4d" transform="translate(155.499985 0.40625)"/>
      <use xlink:href="#STIXGeneral-Regular-41" transform="translate(244.399979 0.40625)"/>
      <use xlink:href="#STIXGeneral-Regular-20" transform="translate(316.59996 0.40625)"/>
      <use xlink:href="#STIXGeneral-Regular-28" transform="translate(341.599945 0.40625)"/>
      <use xlink:href="#STIXGeneral-Italic-3b1" transform="translate(374.899933 0.40625)"/>
      <use xlink:href="#STIXGeneral-Regular-3d" transform="translate(444.539926 0.40625)"/>
      <use xlink:href="#STIXGeneral-Regular-30" transform="translate(527.479907 0.40625)"/>
      <use xlink:href="#STIXGeneral-Regular-2e" transform="translate(577.479892 0.40625)"/>
      <use xlink:href="#STIXGeneral-Regular-30" transform="translate(602.479877 0.40625)"/>
      <use xlink:href="#STIXGeneral-Regular-33" transform="translate(652.479861 0.40625)"/>
      <use xlink:href="#STIXGeneral-Regular-29" transform="translate(702.479846 0.40625)"/>
     </g>
    </g>
    <g id="line2d_27">
     <path d="M 47.04875 61.318125 
L 57.04875 61.318125 
L 67.04875 61.318125 
" style="fill: none; stroke-dasharray: 12.8,3.2,2,3.2; stroke-dashoffset: 0; stroke: #fdb462; stroke-width: 2"/>
    </g>
    <g id="text_25">
     <!-- 28D MA -->
     <g style="fill: #323034" transform="translate(75.04875 64.818125)scale(0.1 -0.1)">
      <use xlink:href="#STIXGeneral-Regular-32"/>
      <use xlink:href="#STIXGeneral-Regular-38" x="49.999985"/>
      <use xlink:href="#STIXGeneral-Regular-44" x="99.999969"/>
      <use xlink:href="#STIXGeneral-Regular-20" x="172.199951"/>
      <use xlink:href="#STIXGeneral-Regular-4d" x="197.199936"/>
      <use xlink:href="#STIXGeneral-Regular-41" x="286.09993"/>
     </g>
    </g>
   </g>
  </g>
 </g>
 <defs>
  <clipPath id="p361147a358">
   <rect x="40.04875" y="11.297812" width="357.12" height="235.008"/>
  </clipPath>
 </defs>
</svg>
