<?xml version="1.0" encoding="utf-8" standalone="no"?>
<!DOCTYPE svg PUBLIC "-//W3C//DTD SVG 1.1//EN"
  "http://www.w3.org/Graphics/SVG/1.1/DTD/svg11.dtd">
<svg height="264.488699pt" version="1.1" viewBox="0 0 382.04875 264.488699" width="382.04875pt" xmlns="http://www.w3.org/2000/svg" xmlns:xlink="http://www.w3.org/1999/xlink">
 <metadata>
  <rdf:RDF xmlns:cc="http://creativecommons.org/ns#" xmlns:dc="http://purl.org/dc/elements/1.1/" xmlns:rdf="http://www.w3.org/1999/02/22-rdf-syntax-ns#">
   <cc:Work>
    <dc:type rdf:resource="http://purl.org/dc/dcmitype/StillImage"/>
    <dc:date>2022-08-20T18:04:23.174203</dc:date>
    <dc:format>image/svg+xml</dc:format>
    <dc:creator>
     <cc:Agent>
      <dc:title>Matplotlib v3.4.3, https://matplotlib.org/</dc:title>
     </cc:Agent>
    </dc:creator>
   </cc:Work>
  </rdf:RDF>
 </metadata>
 <defs>
  <style type="text/css">*{stroke-linecap:butt;stroke-linejoin:round;}</style>
 </defs>
 <g id="figure_1">
  <g id="patch_1">
   <path d="M 0 264.488699 
L 382.04875 264.488699 
L 382.04875 0 
L 0 0 
z
" style="fill:none;"/>
  </g>
  <g id="axes_1">
   <g id="patch_2">
    <path d="M 40.04875 207.137812 
L 374.84875 207.137812 
L 374.84875 11.297812 
L 40.04875 11.297812 
z
" style="fill:#ffffff;"/>
   </g>
   <g id="matplotlib.axis_1">
    <g id="xtick_1">
     <g id="line2d_1">
      <defs>
       <path d="M 0 0 
L 0 3.5 
" id="m80b8f5ec0e" style="stroke:#323034;stroke-width:0.8;"/>
      </defs>
      <g>
       <use style="fill:#323034;stroke:#323034;stroke-width:0.8;" x="54.573621" xlink:href="#m80b8f5ec0e" y="207.137812"/>
      </g>
     </g>
     <g id="text_1">
      <!-- 2017-01 -->
      <g style="fill:#323034;" transform="translate(18.634206 241.233244)rotate(-30)scale(0.12 -0.12)">
       <defs>
        <path d="M 3034 877 
L 2688 0 
L 186 0 
L 186 77 
L 1325 1286 
Q 1773 1754 1965 2144 
Q 2157 2534 2157 2950 
Q 2157 3379 1920 3616 
Q 1683 3853 1267 3853 
Q 922 3853 720 3673 
Q 518 3494 326 3021 
L 192 3053 
Q 301 3648 630 3987 
Q 960 4326 1523 4326 
Q 2054 4326 2380 4006 
Q 2707 3686 2707 3200 
Q 2707 2477 1888 1613 
L 832 486 
L 2330 486 
Q 2541 486 2665 569 
Q 2790 653 2944 915 
L 3034 877 
z
" id="STIXGeneral-Regular-32" transform="scale(0.015625)"/>
        <path d="M 3046 2112 
Q 3046 1683 2963 1302 
Q 2880 922 2717 602 
Q 2554 282 2266 96 
Q 1978 -90 1600 -90 
Q 1210 -90 915 108 
Q 621 307 461 640 
Q 301 973 227 1350 
Q 154 1728 154 2150 
Q 154 2746 301 3222 
Q 448 3699 790 4012 
Q 1133 4326 1626 4326 
Q 2253 4326 2649 3712 
Q 3046 3098 3046 2112 
z
M 2432 2080 
Q 2432 3091 2217 3625 
Q 2003 4160 1587 4160 
Q 1190 4160 979 3622 
Q 768 3085 768 2106 
Q 768 1120 979 598 
Q 1190 77 1600 77 
Q 2003 77 2217 598 
Q 2432 1120 2432 2080 
z
" id="STIXGeneral-Regular-30" transform="scale(0.015625)"/>
        <path d="M 2522 0 
L 755 0 
L 755 96 
Q 1107 115 1235 227 
Q 1363 339 1363 608 
L 1363 3482 
Q 1363 3795 1171 3795 
Q 1082 3795 883 3718 
L 710 3654 
L 710 3744 
L 1856 4326 
L 1914 4307 
L 1914 486 
Q 1914 275 2042 185 
Q 2170 96 2522 96 
L 2522 0 
z
" id="STIXGeneral-Regular-31" transform="scale(0.015625)"/>
        <path d="M 2874 4134 
L 1517 -51 
L 1101 -51 
L 2368 3763 
L 992 3763 
Q 717 3763 582 3667 
Q 448 3571 243 3238 
L 128 3296 
L 512 4237 
L 2874 4237 
L 2874 4134 
z
" id="STIXGeneral-Regular-37" transform="scale(0.015625)"/>
        <path d="M 1824 1242 
L 250 1242 
L 250 1645 
L 1824 1645 
L 1824 1242 
z
" id="STIXGeneral-Regular-2d" transform="scale(0.015625)"/>
       </defs>
       <use xlink:href="#STIXGeneral-Regular-32"/>
       <use x="49.999985" xlink:href="#STIXGeneral-Regular-30"/>
       <use x="99.999969" xlink:href="#STIXGeneral-Regular-31"/>
       <use x="149.999954" xlink:href="#STIXGeneral-Regular-37"/>
       <use x="199.999939" xlink:href="#STIXGeneral-Regular-2d"/>
       <use x="233.299927" xlink:href="#STIXGeneral-Regular-30"/>
       <use x="283.299911" xlink:href="#STIXGeneral-Regular-31"/>
      </g>
     </g>
    </g>
    <g id="xtick_2">
     <g id="line2d_2">
      <g>
       <use style="fill:#323034;stroke:#323034;stroke-width:0.8;" x="85.772627" xlink:href="#m80b8f5ec0e" y="207.137812"/>
      </g>
     </g>
     <g id="text_2">
      <!-- 2017-04 -->
      <g style="fill:#323034;" transform="translate(49.833212 241.233244)rotate(-30)scale(0.12 -0.12)">
       <defs>
        <path d="M 3027 1069 
L 2368 1069 
L 2368 0 
L 1869 0 
L 1869 1069 
L 77 1069 
L 77 1478 
L 2086 4326 
L 2368 4326 
L 2368 1478 
L 3027 1478 
L 3027 1069 
z
M 1869 1478 
L 1869 3674 
L 333 1478 
L 1869 1478 
z
" id="STIXGeneral-Regular-34" transform="scale(0.015625)"/>
       </defs>
       <use xlink:href="#STIXGeneral-Regular-32"/>
       <use x="49.999985" xlink:href="#STIXGeneral-Regular-30"/>
       <use x="99.999969" xlink:href="#STIXGeneral-Regular-31"/>
       <use x="149.999954" xlink:href="#STIXGeneral-Regular-37"/>
       <use x="199.999939" xlink:href="#STIXGeneral-Regular-2d"/>
       <use x="233.299927" xlink:href="#STIXGeneral-Regular-30"/>
       <use x="283.299911" xlink:href="#STIXGeneral-Regular-34"/>
      </g>
     </g>
    </g>
    <g id="xtick_3">
     <g id="line2d_3">
      <g>
       <use style="fill:#323034;stroke:#323034;stroke-width:0.8;" x="117.318288" xlink:href="#m80b8f5ec0e" y="207.137812"/>
      </g>
     </g>
     <g id="text_3">
      <!-- 2017-07 -->
      <g style="fill:#323034;" transform="translate(81.378873 241.233244)rotate(-30)scale(0.12 -0.12)">
       <use xlink:href="#STIXGeneral-Regular-32"/>
       <use x="49.999985" xlink:href="#STIXGeneral-Regular-30"/>
       <use x="99.999969" xlink:href="#STIXGeneral-Regular-31"/>
       <use x="149.999954" xlink:href="#STIXGeneral-Regular-37"/>
       <use x="199.999939" xlink:href="#STIXGeneral-Regular-2d"/>
       <use x="233.299927" xlink:href="#STIXGeneral-Regular-30"/>
       <use x="283.299911" xlink:href="#STIXGeneral-Regular-37"/>
      </g>
     </g>
    </g>
    <g id="xtick_4">
     <g id="line2d_4">
      <g>
       <use style="fill:#323034;stroke:#323034;stroke-width:0.8;" x="149.210605" xlink:href="#m80b8f5ec0e" y="207.137812"/>
      </g>
     </g>
     <g id="text_4">
      <!-- 2017-10 -->
      <g style="fill:#323034;" transform="translate(113.271191 241.233244)rotate(-30)scale(0.12 -0.12)">
       <use xlink:href="#STIXGeneral-Regular-32"/>
       <use x="49.999985" xlink:href="#STIXGeneral-Regular-30"/>
       <use x="99.999969" xlink:href="#STIXGeneral-Regular-31"/>
       <use x="149.999954" xlink:href="#STIXGeneral-Regular-37"/>
       <use x="199.999939" xlink:href="#STIXGeneral-Regular-2d"/>
       <use x="233.299927" xlink:href="#STIXGeneral-Regular-31"/>
       <use x="283.299911" xlink:href="#STIXGeneral-Regular-30"/>
      </g>
     </g>
    </g>
    <g id="xtick_5">
     <g id="line2d_5">
      <g>
       <use style="fill:#323034;stroke:#323034;stroke-width:0.8;" x="181.102923" xlink:href="#m80b8f5ec0e" y="207.137812"/>
      </g>
     </g>
     <g id="text_5">
      <!-- 2018-01 -->
      <g style="fill:#323034;" transform="translate(145.163508 241.233244)rotate(-30)scale(0.12 -0.12)">
       <defs>
        <path d="M 2848 992 
Q 2848 499 2505 204 
Q 2163 -90 1587 -90 
Q 1050 -90 704 204 
Q 358 499 358 954 
Q 358 1293 524 1533 
Q 691 1773 1190 2125 
Q 710 2522 553 2765 
Q 397 3008 397 3328 
Q 397 3782 745 4054 
Q 1094 4326 1638 4326 
Q 2106 4326 2410 4060 
Q 2714 3795 2714 3411 
Q 2714 3059 2531 2848 
Q 2349 2637 1856 2374 
Q 2432 1990 2640 1689 
Q 2848 1389 2848 992 
z
M 2272 3411 
Q 2272 3744 2086 3945 
Q 1901 4147 1574 4147 
Q 1248 4147 1059 3977 
Q 870 3808 870 3513 
Q 870 3219 1059 2979 
Q 1248 2739 1670 2490 
Q 1997 2682 2134 2896 
Q 2272 3110 2272 3411 
z
M 1734 1741 
L 1357 1997 
Q 1075 1766 960 1545 
Q 845 1325 845 1011 
Q 845 576 1065 333 
Q 1286 90 1658 90 
Q 1971 90 2166 285 
Q 2362 480 2362 794 
Q 2362 1082 2214 1299 
Q 2067 1517 1734 1741 
z
" id="STIXGeneral-Regular-38" transform="scale(0.015625)"/>
       </defs>
       <use xlink:href="#STIXGeneral-Regular-32"/>
       <use x="49.999985" xlink:href="#STIXGeneral-Regular-30"/>
       <use x="99.999969" xlink:href="#STIXGeneral-Regular-31"/>
       <use x="149.999954" xlink:href="#STIXGeneral-Regular-38"/>
       <use x="199.999939" xlink:href="#STIXGeneral-Regular-2d"/>
       <use x="233.299927" xlink:href="#STIXGeneral-Regular-30"/>
       <use x="283.299911" xlink:href="#STIXGeneral-Regular-31"/>
      </g>
     </g>
    </g>
    <g id="xtick_6">
     <g id="line2d_6">
      <g>
       <use style="fill:#323034;stroke:#323034;stroke-width:0.8;" x="212.301929" xlink:href="#m80b8f5ec0e" y="207.137812"/>
      </g>
     </g>
     <g id="text_6">
      <!-- 2018-04 -->
      <g style="fill:#323034;" transform="translate(176.362514 241.233244)rotate(-30)scale(0.12 -0.12)">
       <use xlink:href="#STIXGeneral-Regular-32"/>
       <use x="49.999985" xlink:href="#STIXGeneral-Regular-30"/>
       <use x="99.999969" xlink:href="#STIXGeneral-Regular-31"/>
       <use x="149.999954" xlink:href="#STIXGeneral-Regular-38"/>
       <use x="199.999939" xlink:href="#STIXGeneral-Regular-2d"/>
       <use x="233.299927" xlink:href="#STIXGeneral-Regular-30"/>
       <use x="283.299911" xlink:href="#STIXGeneral-Regular-34"/>
      </g>
     </g>
    </g>
    <g id="xtick_7">
     <g id="line2d_7">
      <g>
       <use style="fill:#323034;stroke:#323034;stroke-width:0.8;" x="243.84759" xlink:href="#m80b8f5ec0e" y="207.137812"/>
      </g>
     </g>
     <g id="text_7">
      <!-- 2018-07 -->
      <g style="fill:#323034;" transform="translate(207.908176 241.233244)rotate(-30)scale(0.12 -0.12)">
       <use xlink:href="#STIXGeneral-Regular-32"/>
       <use x="49.999985" xlink:href="#STIXGeneral-Regular-30"/>
       <use x="99.999969" xlink:href="#STIXGeneral-Regular-31"/>
       <use x="149.999954" xlink:href="#STIXGeneral-Regular-38"/>
       <use x="199.999939" xlink:href="#STIXGeneral-Regular-2d"/>
       <use x="233.299927" xlink:href="#STIXGeneral-Regular-30"/>
       <use x="283.299911" xlink:href="#STIXGeneral-Regular-37"/>
      </g>
     </g>
    </g>
    <g id="xtick_8">
     <g id="line2d_8">
      <g>
       <use style="fill:#323034;stroke:#323034;stroke-width:0.8;" x="275.739908" xlink:href="#m80b8f5ec0e" y="207.137812"/>
      </g>
     </g>
     <g id="text_8">
      <!-- 2018-10 -->
      <g style="fill:#323034;" transform="translate(239.800493 241.233244)rotate(-30)scale(0.12 -0.12)">
       <use xlink:href="#STIXGeneral-Regular-32"/>
       <use x="49.999985" xlink:href="#STIXGeneral-Regular-30"/>
       <use x="99.999969" xlink:href="#STIXGeneral-Regular-31"/>
       <use x="149.999954" xlink:href="#STIXGeneral-Regular-38"/>
       <use x="199.999939" xlink:href="#STIXGeneral-Regular-2d"/>
       <use x="233.299927" xlink:href="#STIXGeneral-Regular-31"/>
       <use x="283.299911" xlink:href="#STIXGeneral-Regular-30"/>
      </g>
     </g>
    </g>
    <g id="xtick_9">
     <g id="line2d_9">
      <g>
       <use style="fill:#323034;stroke:#323034;stroke-width:0.8;" x="307.632225" xlink:href="#m80b8f5ec0e" y="207.137812"/>
      </g>
     </g>
     <g id="text_9">
      <!-- 2019-01 -->
      <g style="fill:#323034;" transform="translate(271.69281 241.233244)rotate(-30)scale(0.12 -0.12)">
       <defs>
        <path d="M 378 -141 
L 358 -13 
Q 1094 115 1603 608 
Q 2112 1101 2304 1882 
Q 1933 1517 1344 1517 
Q 826 1517 509 1875 
Q 192 2234 192 2816 
Q 192 3462 573 3894 
Q 954 4326 1523 4326 
Q 2131 4326 2528 3840 
Q 2938 3328 2938 2522 
Q 2938 1958 2742 1462 
Q 2547 966 2170 621 
Q 1773 262 1395 105 
Q 1018 -51 378 -141 
z
M 2317 2272 
L 2317 2522 
Q 2317 4147 1472 4147 
Q 1171 4147 1005 3930 
Q 909 3802 845 3546 
Q 781 3290 781 3034 
Q 781 2464 995 2128 
Q 1210 1792 1568 1792 
Q 1824 1792 2070 1917 
Q 2317 2042 2317 2272 
z
" id="STIXGeneral-Regular-39" transform="scale(0.015625)"/>
       </defs>
       <use xlink:href="#STIXGeneral-Regular-32"/>
       <use x="49.999985" xlink:href="#STIXGeneral-Regular-30"/>
       <use x="99.999969" xlink:href="#STIXGeneral-Regular-31"/>
       <use x="149.999954" xlink:href="#STIXGeneral-Regular-39"/>
       <use x="199.999939" xlink:href="#STIXGeneral-Regular-2d"/>
       <use x="233.299927" xlink:href="#STIXGeneral-Regular-30"/>
       <use x="283.299911" xlink:href="#STIXGeneral-Regular-31"/>
      </g>
     </g>
    </g>
    <g id="xtick_10">
     <g id="line2d_10">
      <g>
       <use style="fill:#323034;stroke:#323034;stroke-width:0.8;" x="338.831231" xlink:href="#m80b8f5ec0e" y="207.137812"/>
      </g>
     </g>
     <g id="text_10">
      <!-- 2019-04 -->
      <g style="fill:#323034;" transform="translate(302.891816 241.233244)rotate(-30)scale(0.12 -0.12)">
       <use xlink:href="#STIXGeneral-Regular-32"/>
       <use x="49.999985" xlink:href="#STIXGeneral-Regular-30"/>
       <use x="99.999969" xlink:href="#STIXGeneral-Regular-31"/>
       <use x="149.999954" xlink:href="#STIXGeneral-Regular-39"/>
       <use x="199.999939" xlink:href="#STIXGeneral-Regular-2d"/>
       <use x="233.299927" xlink:href="#STIXGeneral-Regular-30"/>
       <use x="283.299911" xlink:href="#STIXGeneral-Regular-34"/>
      </g>
     </g>
    </g>
    <g id="xtick_11">
     <g id="line2d_11">
      <g>
       <use style="fill:#323034;stroke:#323034;stroke-width:0.8;" x="370.376892" xlink:href="#m80b8f5ec0e" y="207.137812"/>
      </g>
     </g>
     <g id="text_11">
      <!-- 2019-07 -->
      <g style="fill:#323034;" transform="translate(334.437478 241.233244)rotate(-30)scale(0.12 -0.12)">
       <use xlink:href="#STIXGeneral-Regular-32"/>
       <use x="49.999985" xlink:href="#STIXGeneral-Regular-30"/>
       <use x="99.999969" xlink:href="#STIXGeneral-Regular-31"/>
       <use x="149.999954" xlink:href="#STIXGeneral-Regular-39"/>
       <use x="199.999939" xlink:href="#STIXGeneral-Regular-2d"/>
       <use x="233.299927" xlink:href="#STIXGeneral-Regular-30"/>
       <use x="283.299911" xlink:href="#STIXGeneral-Regular-37"/>
      </g>
     </g>
    </g>
    <g id="text_12">
     <!-- Date -->
     <g transform="translate(196.12 254.684324)scale(0.12 -0.12)">
      <defs>
       <path d="M 102 4237 
L 1830 4237 
Q 3078 4237 3750 3654 
Q 4384 3110 4384 2138 
Q 4384 966 3514 410 
Q 2880 0 1901 0 
L 102 0 
L 102 122 
Q 474 147 570 252 
Q 666 358 666 736 
L 666 3520 
Q 666 3891 570 3990 
Q 474 4090 102 4115 
L 102 4237 
z
M 1318 3731 
L 1318 538 
Q 1318 365 1379 301 
Q 1440 237 1626 237 
Q 2125 237 2432 307 
Q 2739 378 3021 570 
Q 3686 1018 3686 2099 
Q 3686 3027 3078 3558 
Q 2803 3802 2476 3901 
Q 2150 4000 1658 4000 
Q 1472 4000 1395 3942 
Q 1318 3885 1318 3731 
z
" id="STIXGeneral-Regular-44" transform="scale(0.015625)"/>
       <path d="M 2829 422 
L 2829 243 
Q 2586 -64 2253 -64 
Q 1888 -64 1843 403 
L 1837 403 
Q 1427 -64 909 -64 
Q 608 -64 422 112 
Q 237 288 237 602 
Q 237 1050 685 1350 
Q 992 1555 1837 1869 
L 1837 2214 
Q 1837 2502 1699 2646 
Q 1562 2790 1338 2790 
Q 1146 2790 1018 2697 
Q 890 2605 890 2477 
Q 890 2419 909 2348 
Q 928 2278 928 2208 
Q 928 2112 841 2029 
Q 755 1946 634 1946 
Q 525 1946 441 2029 
Q 358 2112 358 2240 
Q 358 2547 685 2752 
Q 986 2944 1421 2944 
Q 1939 2944 2176 2656 
Q 2291 2522 2323 2384 
Q 2355 2246 2355 1946 
L 2355 723 
Q 2355 301 2554 301 
Q 2682 301 2829 422 
z
M 1837 813 
L 1837 1715 
Q 1248 1510 1018 1293 
Q 800 1094 800 800 
Q 800 557 921 432 
Q 1043 307 1242 307 
Q 1453 307 1613 410 
Q 1747 506 1792 589 
Q 1837 672 1837 813 
z
" id="STIXGeneral-Regular-61" transform="scale(0.015625)"/>
       <path d="M 1702 493 
L 1786 422 
Q 1478 -64 1011 -64 
Q 448 -64 448 749 
L 448 2675 
L 109 2675 
Q 83 2694 83 2720 
Q 83 2771 192 2842 
Q 435 2982 813 3526 
Q 826 3546 874 3606 
Q 922 3667 941 3706 
Q 986 3706 986 3622 
L 986 2880 
L 1632 2880 
L 1632 2675 
L 986 2675 
L 986 845 
Q 986 538 1062 403 
Q 1139 269 1318 269 
Q 1510 269 1702 493 
z
" id="STIXGeneral-Regular-74" transform="scale(0.015625)"/>
       <path d="M 2611 1050 
L 2714 1005 
Q 2330 -64 1376 -64 
Q 813 -64 486 329 
Q 160 723 160 1389 
Q 160 2074 525 2509 
Q 890 2944 1485 2944 
Q 2061 2944 2374 2502 
Q 2560 2246 2592 1773 
L 621 1773 
Q 646 1370 700 1158 
Q 755 947 915 730 
Q 1184 378 1626 378 
Q 1939 378 2153 531 
Q 2368 685 2611 1050 
z
M 634 1978 
L 1939 1978 
Q 1882 2381 1750 2547 
Q 1619 2714 1312 2714 
Q 1043 2714 864 2525 
Q 685 2336 634 1978 
z
" id="STIXGeneral-Regular-65" transform="scale(0.015625)"/>
      </defs>
      <use xlink:href="#STIXGeneral-Regular-44"/>
      <use x="72.199982" xlink:href="#STIXGeneral-Regular-61"/>
      <use x="116.599976" xlink:href="#STIXGeneral-Regular-74"/>
      <use x="144.399963" xlink:href="#STIXGeneral-Regular-65"/>
     </g>
    </g>
   </g>
   <g id="matplotlib.axis_2">
    <g id="ytick_1">
     <g id="line2d_12">
      <defs>
       <path d="M 0 0 
L -3.5 0 
" id="madb356e4ac" style="stroke:#323034;stroke-width:0.8;"/>
      </defs>
      <g>
       <use style="fill:#323034;stroke:#323034;stroke-width:0.8;" x="40.04875" xlink:href="#madb356e4ac" y="207.137812"/>
      </g>
     </g>
     <g id="text_13">
      <!-- $\mathdefault{25}$ -->
      <g style="fill:#323034;" transform="translate(21.04875 211.235625)scale(0.12 -0.12)">
       <defs>
        <path d="M 2803 4358 
L 2573 3814 
Q 2534 3731 2400 3731 
L 1158 3731 
L 902 3187 
Q 1606 3053 1920 2896 
Q 2234 2739 2502 2368 
Q 2726 2061 2726 1555 
Q 2726 1094 2576 780 
Q 2426 467 2099 224 
Q 1664 -90 1011 -90 
Q 646 -90 422 19 
Q 198 128 198 307 
Q 198 550 486 550 
Q 717 550 960 352 
Q 1210 147 1414 147 
Q 1747 147 2012 480 
Q 2278 813 2278 1229 
Q 2278 1843 1850 2189 
Q 1293 2637 486 2637 
Q 410 2637 410 2688 
L 416 2720 
L 1114 4237 
L 2438 4237 
Q 2547 4237 2608 4269 
Q 2669 4301 2746 4403 
L 2803 4358 
z
" id="STIXGeneral-Regular-35" transform="scale(0.015625)"/>
       </defs>
       <use transform="translate(0 0.203125)" xlink:href="#STIXGeneral-Regular-32"/>
       <use transform="translate(49.999985 0.203125)" xlink:href="#STIXGeneral-Regular-35"/>
      </g>
     </g>
    </g>
    <g id="ytick_2">
     <g id="line2d_13">
      <g>
       <use style="fill:#323034;stroke:#323034;stroke-width:0.8;" x="40.04875" xlink:href="#madb356e4ac" y="179.16067"/>
      </g>
     </g>
     <g id="text_14">
      <!-- $\mathdefault{30}$ -->
      <g style="fill:#323034;" transform="translate(21.04875 183.258482)scale(0.12 -0.12)">
       <defs>
        <path d="M 390 3264 
L 288 3290 
Q 435 3770 748 4048 
Q 1062 4326 1542 4326 
Q 1990 4326 2265 4083 
Q 2541 3840 2541 3450 
Q 2541 2925 1946 2566 
Q 2298 2413 2477 2227 
Q 2758 1914 2758 1402 
Q 2758 890 2464 506 
Q 2246 211 1840 60 
Q 1434 -90 979 -90 
Q 262 -90 262 275 
Q 262 378 339 442 
Q 416 506 525 506 
Q 685 506 915 339 
Q 1197 141 1466 141 
Q 1818 141 2058 425 
Q 2298 710 2298 1120 
Q 2298 1856 1632 2048 
Q 1434 2112 979 2112 
L 979 2202 
Q 1338 2323 1517 2432 
Q 2035 2726 2035 3290 
Q 2035 3610 1852 3776 
Q 1670 3942 1344 3942 
Q 768 3942 390 3264 
z
" id="STIXGeneral-Regular-33" transform="scale(0.015625)"/>
       </defs>
       <use transform="translate(0 0.40625)" xlink:href="#STIXGeneral-Regular-33"/>
       <use transform="translate(49.999985 0.40625)" xlink:href="#STIXGeneral-Regular-30"/>
      </g>
     </g>
    </g>
    <g id="ytick_3">
     <g id="line2d_14">
      <g>
       <use style="fill:#323034;stroke:#323034;stroke-width:0.8;" x="40.04875" xlink:href="#madb356e4ac" y="151.183527"/>
      </g>
     </g>
     <g id="text_15">
      <!-- $\mathdefault{35}$ -->
      <g style="fill:#323034;" transform="translate(21.04875 155.281339)scale(0.12 -0.12)">
       <use transform="translate(0 0.203125)" xlink:href="#STIXGeneral-Regular-33"/>
       <use transform="translate(49.999985 0.203125)" xlink:href="#STIXGeneral-Regular-35"/>
      </g>
     </g>
    </g>
    <g id="ytick_4">
     <g id="line2d_15">
      <g>
       <use style="fill:#323034;stroke:#323034;stroke-width:0.8;" x="40.04875" xlink:href="#madb356e4ac" y="123.206384"/>
      </g>
     </g>
     <g id="text_16">
      <!-- $\mathdefault{40}$ -->
      <g style="fill:#323034;" transform="translate(21.04875 127.304196)scale(0.12 -0.12)">
       <use transform="translate(0 0.40625)" xlink:href="#STIXGeneral-Regular-34"/>
       <use transform="translate(49.999985 0.40625)" xlink:href="#STIXGeneral-Regular-30"/>
      </g>
     </g>
    </g>
    <g id="ytick_5">
     <g id="line2d_16">
      <g>
       <use style="fill:#323034;stroke:#323034;stroke-width:0.8;" x="40.04875" xlink:href="#madb356e4ac" y="95.229241"/>
      </g>
     </g>
     <g id="text_17">
      <!-- $\mathdefault{45}$ -->
      <g style="fill:#323034;" transform="translate(21.04875 99.327054)scale(0.12 -0.12)">
       <use transform="translate(0 0.203125)" xlink:href="#STIXGeneral-Regular-34"/>
       <use transform="translate(49.999985 0.203125)" xlink:href="#STIXGeneral-Regular-35"/>
      </g>
     </g>
    </g>
    <g id="ytick_6">
     <g id="line2d_17">
      <g>
       <use style="fill:#323034;stroke:#323034;stroke-width:0.8;" x="40.04875" xlink:href="#madb356e4ac" y="67.252098"/>
      </g>
     </g>
     <g id="text_18">
      <!-- $\mathdefault{50}$ -->
      <g style="fill:#323034;" transform="translate(21.04875 71.349911)scale(0.12 -0.12)">
       <use transform="translate(0 0.203125)" xlink:href="#STIXGeneral-Regular-35"/>
       <use transform="translate(49.999985 0.203125)" xlink:href="#STIXGeneral-Regular-30"/>
      </g>
     </g>
    </g>
    <g id="ytick_7">
     <g id="line2d_18">
      <g>
       <use style="fill:#323034;stroke:#323034;stroke-width:0.8;" x="40.04875" xlink:href="#madb356e4ac" y="39.274955"/>
      </g>
     </g>
     <g id="text_19">
      <!-- $\mathdefault{55}$ -->
      <g style="fill:#323034;" transform="translate(21.04875 43.372768)scale(0.12 -0.12)">
       <use transform="translate(0 0.203125)" xlink:href="#STIXGeneral-Regular-35"/>
       <use transform="translate(49.999985 0.203125)" xlink:href="#STIXGeneral-Regular-35"/>
      </g>
     </g>
    </g>
    <g id="ytick_8">
     <g id="line2d_19">
      <g>
       <use style="fill:#323034;stroke:#323034;stroke-width:0.8;" x="40.04875" xlink:href="#madb356e4ac" y="11.297813"/>
      </g>
     </g>
     <g id="text_20">
      <!-- $\mathdefault{60}$ -->
      <g style="fill:#323034;" transform="translate(21.04875 15.395625)scale(0.12 -0.12)">
       <defs>
        <path d="M 2854 4378 
L 2867 4275 
Q 2112 4154 1606 3664 
Q 1101 3174 973 2451 
Q 1344 2739 1786 2739 
Q 2349 2739 2672 2380 
Q 2995 2022 2995 1402 
Q 2995 774 2669 378 
Q 2291 -90 1651 -90 
Q 870 -90 518 557 
Q 218 1107 218 1786 
Q 218 2835 915 3552 
Q 1312 3962 1731 4131 
Q 2150 4301 2854 4378 
z
M 2419 1203 
Q 2419 2445 1555 2445 
Q 1235 2445 1024 2275 
Q 813 2106 813 1702 
Q 813 954 1046 522 
Q 1280 90 1722 90 
Q 2061 90 2240 394 
Q 2419 698 2419 1203 
z
" id="STIXGeneral-Regular-36" transform="scale(0.015625)"/>
       </defs>
       <use transform="translate(0 0.59375)" xlink:href="#STIXGeneral-Regular-36"/>
       <use transform="translate(49.999985 0.59375)" xlink:href="#STIXGeneral-Regular-30"/>
      </g>
     </g>
    </g>
    <g id="text_21">
     <!-- Close ($) -->
     <g transform="translate(15.444375 131.382187)rotate(-90)scale(0.12 -0.12)">
      <defs>
       <path d="M 3930 838 
L 4051 723 
Q 3482 -90 2304 -90 
Q 1376 -90 794 480 
Q 179 1082 179 2080 
Q 179 3014 755 3661 
Q 1357 4326 2310 4326 
Q 2720 4326 3072 4230 
Q 3475 4115 3514 4115 
Q 3725 4115 3782 4326 
L 3910 4326 
L 3968 2874 
L 3821 2874 
Q 3718 3334 3488 3584 
Q 3034 4070 2458 4070 
Q 1747 4070 1334 3548 
Q 922 3027 922 2182 
Q 922 1152 1382 653 
Q 1811 192 2522 192 
Q 2944 192 3251 339 
Q 3558 486 3930 838 
z
" id="STIXGeneral-Regular-43" transform="scale(0.015625)"/>
       <path d="M 1645 0 
L 134 0 
L 134 96 
Q 435 122 531 221 
Q 627 320 627 589 
L 627 3590 
Q 627 3821 569 3910 
Q 512 4000 358 4000 
Q 224 4000 122 3987 
L 122 4090 
Q 730 4237 1133 4371 
L 1165 4346 
L 1165 557 
Q 1165 288 1254 201 
Q 1344 115 1645 96 
L 1645 0 
z
" id="STIXGeneral-Regular-6c" transform="scale(0.015625)"/>
       <path d="M 3008 1478 
Q 3008 806 2608 371 
Q 2208 -64 1568 -64 
Q 979 -64 582 368 
Q 186 800 186 1459 
Q 186 2125 582 2534 
Q 979 2944 1626 2944 
Q 2221 2944 2614 2537 
Q 3008 2131 3008 1478 
z
M 2432 1306 
Q 2432 2035 2112 2445 
Q 1856 2765 1504 2765 
Q 1171 2765 966 2493 
Q 762 2221 762 1747 
Q 762 928 1101 435 
Q 1318 115 1677 115 
Q 2029 115 2230 432 
Q 2432 749 2432 1306 
z
" id="STIXGeneral-Regular-6f" transform="scale(0.015625)"/>
       <path d="M 998 1926 
L 1664 1523 
Q 1984 1331 2105 1164 
Q 2227 998 2227 736 
Q 2227 416 1961 176 
Q 1696 -64 1331 -64 
Q 1030 -64 864 -6 
Q 691 51 570 51 
Q 461 51 416 -26 
L 333 -26 
L 333 979 
L 435 979 
Q 538 512 730 294 
Q 922 77 1248 77 
Q 1485 77 1632 211 
Q 1779 346 1779 550 
Q 1779 845 1440 1030 
L 1094 1222 
Q 326 1651 326 2150 
Q 326 2522 566 2730 
Q 806 2938 1210 2938 
Q 1491 2938 1638 2867 
Q 1754 2816 1818 2816 
Q 1862 2816 1920 2880 
L 1990 2880 
L 2022 2010 
L 1926 2010 
Q 1818 2445 1654 2621 
Q 1491 2797 1203 2797 
Q 986 2797 854 2688 
Q 723 2579 723 2362 
Q 723 2253 796 2128 
Q 870 2003 998 1926 
z
" id="STIXGeneral-Regular-73" transform="scale(0.015625)"/>
       <path id="STIXGeneral-Regular-20" transform="scale(0.015625)"/>
       <path d="M 1946 -1030 
L 1869 -1133 
Q 1126 -710 716 32 
Q 307 774 307 1613 
Q 307 3386 1888 4326 
L 1946 4224 
Q 1293 3667 1075 3126 
Q 858 2586 858 1632 
Q 858 685 1082 96 
Q 1306 -493 1946 -1030 
z
" id="STIXGeneral-Regular-28" transform="scale(0.015625)"/>
       <path d="M 1690 4077 
L 1690 2502 
Q 2234 2208 2445 2045 
Q 2656 1882 2797 1664 
Q 2931 1466 2931 1088 
Q 2931 570 2614 326 
Q 2298 83 1690 0 
L 1690 -557 
L 1472 -557 
L 1472 0 
Q 1062 0 806 73 
Q 550 147 282 326 
L 282 1158 
L 378 1158 
Q 480 685 761 432 
Q 1043 179 1472 179 
L 1472 1984 
Q 800 2362 566 2624 
Q 333 2886 333 3283 
Q 333 3731 659 3974 
Q 986 4218 1472 4250 
L 1472 4653 
L 1690 4653 
L 1690 4250 
Q 2426 4205 2720 3910 
L 2720 3200 
L 2624 3200 
Q 2528 3597 2301 3814 
Q 2074 4032 1690 4077 
z
M 1472 2605 
L 1472 4077 
Q 806 3942 806 3405 
Q 806 3194 937 3037 
Q 1069 2880 1472 2605 
z
M 1690 1875 
L 1690 179 
Q 2086 262 2252 432 
Q 2419 602 2419 941 
Q 2419 1235 2272 1427 
Q 2125 1619 1690 1875 
z
" id="STIXGeneral-Regular-24" transform="scale(0.015625)"/>
       <path d="M 186 4224 
L 262 4326 
Q 992 3891 1408 3148 
Q 1824 2406 1824 1581 
Q 1824 -166 243 -1133 
L 186 -1030 
Q 845 -486 1059 54 
Q 1274 595 1274 1562 
Q 1274 2534 1059 3120 
Q 845 3706 186 4224 
z
" id="STIXGeneral-Regular-29" transform="scale(0.015625)"/>
      </defs>
      <use xlink:href="#STIXGeneral-Regular-43"/>
      <use x="66.699997" xlink:href="#STIXGeneral-Regular-6c"/>
      <use x="94.499985" xlink:href="#STIXGeneral-Regular-6f"/>
      <use x="144.499969" xlink:href="#STIXGeneral-Regular-73"/>
      <use x="183.399963" xlink:href="#STIXGeneral-Regular-65"/>
      <use x="227.799957" xlink:href="#STIXGeneral-Regular-20"/>
      <use x="252.799942" xlink:href="#STIXGeneral-Regular-28"/>
      <use x="286.09993" xlink:href="#STIXGeneral-Regular-24"/>
      <use x="336.099915" xlink:href="#STIXGeneral-Regular-29"/>
     </g>
    </g>
   </g>
   <g id="line2d_20">
    <path clip-path="url(#pb0e7906f45)" d="M 55.266932 194.497739 
L 55.613587 194.665602 
L 55.960243 193.876647 
L 56.306899 192.198018 
L 57.346866 190.782375 
L 57.693521 190.614512 
L 58.040177 189.775198 
L 58.386832 190.413076 
L 58.733488 190.709634 
L 60.120111 189.450663 
L 60.466766 189.461854 
L 60.813422 189.730434 
L 61.160077 189.450663 
L 62.200044 189.327563 
L 62.5467 189.495426 
L 62.893356 186.977483 
L 63.586667 186.887956 
L 64.626634 187.329995 
L 64.973289 187.665721 
L 65.319945 177.968843 
L 65.6666 178.226233 
L 66.013256 177.554782 
L 67.053223 175.90413 
L 67.399879 174.326219 
L 67.746534 173.67715 
L 68.09319 172.362224 
L 68.439845 172.77069 
L 69.479812 171.215161 
L 69.826468 168.965799 
L 70.173124 168.305538 
L 70.519779 168.512569 
L 70.866435 168.020171 
L 72.253057 166.727627 
L 72.599713 166.190466 
L 72.946369 167.001803 
L 73.293024 166.777986 
L 74.679647 166.358329 
L 75.026302 162.64856 
L 75.372958 163.778836 
L 75.719614 162.659751 
L 76.75958 163.264057 
L 77.106236 163.017858 
L 77.452892 163.722882 
L 77.799547 164.148135 
L 78.146203 163.532638 
L 79.18617 163.443111 
L 79.532825 163.739668 
L 79.879481 161.770078 
L 80.226137 161.479115 
L 80.572792 162.407956 
L 81.612759 160.460747 
L 81.959415 162.592606 
L 82.30607 160.516702 
L 82.652726 161.182558 
L 82.999382 161.53507 
L 84.039348 161.238512 
L 84.386004 157.377666 
L 84.73266 156.9692 
L 85.425971 157.573506 
L 86.465938 157.517552 
L 86.812593 156.096313 
L 87.159249 157.081108 
L 87.85256 158.004354 
L 88.892527 158.228171 
L 89.239183 160.253716 
L 89.585838 160.013113 
L 89.932494 161.003504 
L 91.319117 159.973945 
L 92.012428 161.495902 
L 92.359083 159.162608 
L 92.705739 159.375234 
L 93.745706 157.601483 
L 94.092362 156.409657 
L 94.439017 157.545529 
L 94.785673 157.394452 
L 95.132328 157.584697 
L 96.518951 152.470475 
L 97.212262 153.779806 
L 97.558918 150.56803 
L 98.94554 143.92066 
L 99.292196 144.916647 
L 99.638851 143.170873 
L 99.985507 140.306014 
L 101.37213 141.134137 
L 101.718785 148.055682 
L 102.065441 145.011769 
L 102.412096 144.334722 
L 103.452063 143.114919 
L 103.798719 143.32195 
L 104.145375 143.948638 
L 104.49203 143.238018 
L 104.838686 143.584935 
L 106.225308 143.501003 
L 106.571964 144.748784 
L 106.91862 144.172455 
L 107.265275 141.150923 
L 108.305242 143.182064 
L 108.651898 142.499422 
L 108.998553 141.262832 
L 109.345209 141.783207 
L 109.691865 149.751097 
L 110.731831 154.462448 
L 111.078487 152.867751 
L 111.425143 154.81496 
L 111.771798 155.92845 
L 112.118454 158.625447 
L 113.158421 153.220263 
L 113.505076 154.999609 
L 113.851732 153.852546 
L 114.198388 154.16589 
L 114.545043 153.304194 
L 115.58501 153.919691 
L 115.931666 156.689428 
L 116.278321 153.908501 
L 116.624977 156.762169 
L 116.971633 156.297749 
L 118.011599 157.002772 
L 118.704911 156.208222 
L 119.051566 158.026736 
L 119.398222 156.079527 
L 120.438189 154.926868 
L 120.784844 154.305776 
L 121.1315 154.026004 
L 121.478156 151.345794 
L 121.824811 149.66157 
L 122.864778 148.956546 
L 123.211434 148.273904 
L 123.558089 147.026123 
L 123.904745 147.938178 
L 124.251401 148.038896 
L 125.984679 143.780775 
L 126.331334 147.647216 
L 126.67799 149.029287 
L 127.717957 150.086823 
L 128.064612 148.318667 
L 128.411268 138.940729 
L 128.757924 141.011038 
L 130.144546 136.696962 
L 130.837857 133.731385 
L 131.184513 140.529831 
L 131.531169 137.648185 
L 132.571136 134.525936 
L 132.917791 132.203833 
L 133.264447 133.048743 
L 133.611102 137.144597 
L 133.957758 137.625803 
L 134.997725 138.028674 
L 135.344381 134.621058 
L 135.691036 134.341287 
L 136.037692 135.286914 
L 137.424314 132.382887 
L 137.77097 130.407701 
L 138.117626 129.831371 
L 138.464281 129.008843 
L 138.810937 128.952889 
L 140.197559 131.560359 
L 140.544215 131.784176 
L 140.890871 132.629086 
L 141.237526 136.098251 
L 142.277493 132.338123 
L 142.624149 133.171842 
L 143.31746 136.573863 
L 143.664116 134.481172 
L 144.704082 136.042297 
L 145.050738 135.986343 
L 145.744049 143.114919 
L 146.090705 145.08451 
L 147.130672 146.85826 
L 147.477327 143.400286 
L 147.823983 141.990238 
L 148.170639 143.238018 
L 148.517294 142.141314 
L 149.557261 142.555376 
L 149.903917 141.671298 
L 150.250572 143.008606 
L 150.597228 140.434708 
L 150.943884 140.563403 
L 151.98385 139.819211 
L 152.330506 139.73528 
L 152.677162 138.912752 
L 153.023817 139.617776 
L 154.41044 134.481172 
L 154.757095 133.675431 
L 155.103751 134.649035 
L 155.450407 139.628967 
L 155.797062 139.326814 
L 156.837029 139.410745 
L 157.183685 138.185346 
L 157.53034 139.102996 
L 157.876996 137.748903 
L 158.223652 130.211861 
L 159.263619 125.383006 
L 159.610274 122.271947 
L 159.95693 125.175975 
L 160.303585 123.519728 
L 160.650241 117.706078 
L 162.036863 114.634187 
L 162.383519 112.714955 
L 162.730175 113.190567 
L 163.07683 113.985118 
L 164.116797 114.891577 
L 164.810108 121.443824 
L 165.156764 118.713255 
L 165.50342 120.005799 
L 166.543387 120.246402 
L 166.890042 116.005067 
L 167.236698 113.599033 
L 167.930009 113.582247 
L 168.969976 114.757287 
L 169.316632 116.094594 
L 169.663287 120.889876 
L 170.009943 117.750841 
L 170.356598 118.785995 
L 171.396565 120.459028 
L 171.743221 120.666059 
L 172.089877 121.482992 
L 172.436532 121.113694 
L 172.783188 121.040953 
L 173.823155 116.642946 
L 174.16981 117.957872 
L 174.516466 117.174512 
L 174.863122 117.247253 
L 175.209777 114.891577 
L 176.249744 111.629442 
L 176.5964 114.175362 
L 176.943055 114.399179 
L 177.289711 113.526293 
L 177.636366 113.526293 
L 179.022989 119.451851 
L 179.369645 119.412683 
L 179.7163 118.746827 
L 180.062956 121.236793 
L 181.449578 117.191298 
L 181.796234 117.230466 
L 182.14289 116.144953 
L 182.489545 113.543079 
L 183.529512 114.343225 
L 184.222823 114.488706 
L 184.569479 113.151399 
L 184.916135 110.778937 
L 186.302757 111.937191 
L 186.649413 108.059559 
L 186.996068 107.841337 
L 187.342724 108.904469 
L 188.382691 110.868464 
L 188.729346 110.818105 
L 189.422658 118.702064 
L 189.769313 118.198475 
L 191.155936 124.247134 
L 191.849247 123.178407 
L 192.195903 132.88088 
L 193.235869 138.252491 
L 193.582525 129.501241 
L 194.275836 140.003861 
L 196.009114 126.849008 
L 196.35577 122.797918 
L 196.702426 115.260875 
L 197.049081 116.021854 
L 198.435704 116.805214 
L 198.782359 117.86275 
L 199.129015 115.926731 
L 199.475671 111.892427 
L 200.515638 107.259412 
L 200.862293 108.025986 
L 201.208949 108.372903 
L 201.555604 112.569474 
L 201.90226 110.963586 
L 202.942227 110.169035 
L 203.288883 110.376066 
L 203.635538 112.530306 
L 203.982194 110.001172 
L 204.328849 105.91651 
L 205.368816 103.588811 
L 206.062128 107.964437 
L 206.408783 107.684665 
L 206.755439 108.512789 
L 207.795406 112.172199 
L 208.142061 112.239344 
L 208.488717 117.594169 
L 208.835372 120.805945 
L 209.182028 126.032075 
L 210.221995 115.563029 
L 210.568651 121.516564 
L 210.915306 123.989744 
L 211.261962 122.232779 
L 212.648584 123.726759 
L 212.99524 121.443824 
L 213.341896 117.124153 
L 213.688551 115.523861 
L 214.035207 121.46061 
L 215.075174 119.216843 
L 215.421829 114.908363 
L 215.768485 116.005067 
L 216.115141 113.75011 
L 216.461796 112.927582 
L 217.501763 111.478366 
L 217.848419 108.221826 
L 218.195074 108.764583 
L 218.54173 115.523861 
L 218.888386 125.019303 
L 219.928352 125.640395 
L 220.275008 128.773835 
L 220.968319 127.016871 
L 221.314975 129.557195 
L 222.354942 125.618014 
L 222.701597 120.470219 
L 223.048253 110.504761 
L 223.394909 110.068318 
L 223.741564 100.735143 
L 224.781531 98.972583 
L 225.128187 97.76397 
L 225.474842 96.034983 
L 225.821498 92.448313 
L 226.168154 93.399536 
L 227.20812 93.998247 
L 227.554776 96.309159 
L 227.901432 93.953483 
L 228.248087 95.553776 
L 228.594743 96.471426 
L 229.63471 94.686485 
L 229.981365 95.313173 
L 230.328021 93.707285 
L 230.674677 93.998247 
L 231.021332 93.410727 
L 232.407955 94.345163 
L 232.75461 94.865538 
L 233.101266 95.721639 
L 233.447922 91.178151 
L 234.487889 89.035102 
L 234.834544 87.059915 
L 235.1812 86.147861 
L 235.527855 86.852885 
L 235.874511 89.202965 
L 236.914478 89.852034 
L 237.261134 88.469963 
L 237.607789 90.545867 
L 237.954445 90.411577 
L 238.3011 93.058215 
L 239.341067 93.18691 
L 239.687723 97.305145 
L 240.034378 96.225227 
L 240.381034 97.596107 
L 240.72769 98.329109 
L 241.767657 102.038878 
L 242.114312 99.00056 
L 242.460968 99.375454 
L 242.807623 97.545749 
L 243.154279 98.077314 
L 244.194246 95.285195 
L 244.540902 99.694393 
L 245.234213 97.674443 
L 245.580868 94.244446 
L 246.620835 90.71373 
L 246.967491 91.03267 
L 247.314147 94.373141 
L 247.660802 90.087042 
L 248.007458 89.706553 
L 249.047425 90.254905 
L 249.39408 89.53869 
L 249.740736 90.965525 
L 250.087392 88.967957 
L 250.434047 89.555476 
L 251.474014 89.314873 
L 251.82067 87.479573 
L 252.167325 85.03437 
L 252.513981 85.828921 
L 252.860637 90.159783 
L 253.900603 91.631381 
L 254.247259 91.122197 
L 254.593915 76.020135 
L 254.94057 68.113794 
L 255.287226 67.308052 
L 256.327193 65.847646 
L 256.673848 68.505474 
L 257.020504 68.31523 
L 257.36716 66.110631 
L 257.713815 66.938754 
L 258.753782 65.170599 
L 259.100438 63.9452 
L 259.447093 63.29613 
L 259.793749 59.144322 
L 260.140405 53.403413 
L 261.180371 56.257081 
L 261.527027 56.816624 
L 261.873683 56.805433 
L 262.220338 56.217913 
L 262.566994 55.300263 
L 263.606961 52.91661 
L 263.953616 50.532958 
L 264.300272 46.118165 
L 264.993583 39.828903 
L 266.380206 38.81613 
L 266.726861 40.852866 
L 267.073517 45.950302 
L 267.420173 48.356336 
L 268.46014 52.373854 
L 268.806795 44.909552 
L 269.153451 48.664085 
L 269.500106 41.479554 
L 269.846762 44.926338 
L 270.886729 52.994946 
L 271.233384 52.496953 
L 271.58004 52.317899 
L 271.926696 50.10211 
L 272.273351 53.291504 
L 273.313318 49.055765 
L 273.659974 47.175701 
L 274.006629 49.559353 
L 274.353285 43.437954 
L 274.699941 42.369227 
L 275.739908 40.338087 
L 276.086563 37.601922 
L 276.433219 33.825008 
L 277.12653 44.294055 
L 278.166497 45.021461 
L 278.513153 40.852866 
L 278.859808 55.031682 
L 279.206464 57.627961 
L 279.553119 47.287609 
L 280.593086 53.683184 
L 280.939742 47.231655 
L 281.286398 48.496222 
L 281.633053 55.484912 
L 281.979709 51.047737 
L 283.019676 49.251605 
L 283.366331 46.45389 
L 283.712987 56.749479 
L 284.059643 50.404263 
L 284.406298 55.104423 
L 285.446265 60.576752 
L 285.792921 59.161109 
L 286.139576 51.652043 
L 286.486232 47.130937 
L 286.832888 67.000304 
L 287.872854 74.951408 
L 288.21951 72.03619 
L 288.566166 63.693406 
L 288.912821 64.678201 
L 289.259477 70.105767 
L 290.299444 84.060766 
L 290.646099 86.685022 
L 290.992755 94.054201 
L 291.339411 87.826489 
L 291.686066 84.939248 
L 292.726033 95.313173 
L 293.072689 107.343344 
L 293.419344 107.600734 
L 294.112656 113.710942 
L 295.152622 110.571906 
L 295.499278 111.058708 
L 295.845934 101.982923 
L 296.539245 105.183509 
L 297.579212 96.728816 
L 297.925867 107.712642 
L 298.619179 110.43202 
L 298.965834 118.84195 
L 300.005801 117.342375 
L 300.352457 118.64611 
L 300.699112 118.013826 
L 301.045768 115.507074 
L 301.392424 122.921017 
L 302.432391 125.008112 
L 302.779046 122.10968 
L 303.819013 142.907888 
L 304.85898 148.167591 
L 305.552291 134.179019 
L 305.898947 135.566686 
L 306.245602 135.454777 
L 307.285569 133.395659 
L 307.97888 133.160651 
L 308.325536 154.462448 
L 308.672192 146.248359 
L 309.712159 146.707184 
L 310.40547 139.410745 
L 310.752125 138.744889 
L 311.098781 140.77603 
L 312.138748 143.864706 
L 312.485404 139.707303 
L 312.832059 137.178169 
L 313.52537 134.660226 
L 314.911993 139.421936 
L 315.258649 138.599408 
L 315.605304 140.227678 
L 315.95196 133.367682 
L 316.991927 135.359655 
L 317.338582 137.536276 
L 317.685238 123.245552 
L 318.031894 121.611687 
L 318.378549 121.516564 
L 319.418516 115.093012 
L 319.765172 111.14264 
L 320.111827 111.058708 
L 320.458483 115.523861 
L 320.805138 115.244089 
L 321.845105 116.592587 
L 322.191761 114.60621 
L 322.538417 115.563029 
L 322.885072 114.723714 
L 323.231728 115.227303 
L 324.61835 114.555851 
L 324.965006 113.03949 
L 325.311662 114.376798 
L 325.658317 111.774923 
L 326.698284 110.068318 
L 327.04494 109.928432 
L 327.391595 109.189835 
L 327.738251 111.517534 
L 328.084907 109.055545 
L 329.124873 107.841337 
L 329.471529 108.277781 
L 329.818185 109.676638 
L 330.16484 112.401611 
L 330.511496 111.853259 
L 331.898118 100.95896 
L 332.244774 99.884638 
L 332.938085 93.886338 
L 333.978052 91.30125 
L 334.324708 93.332391 
L 334.671363 91.10541 
L 335.018019 81.70509 
L 335.364675 87.18861 
L 336.404641 90.299668 
L 336.751297 92.968688 
L 337.097953 90.674562 
L 337.444608 90.327646 
L 337.791264 88.688185 
L 338.831231 86.92003 
L 339.177886 83.131925 
L 339.524542 81.341387 
L 339.871198 80.888158 
L 340.217853 79.08643 
L 341.25782 74.85069 
L 341.604476 75.684409 
L 341.951131 74.173643 
L 342.297787 76.439792 
L 342.644443 76.5517 
L 343.68441 76.048112 
L 344.031065 76.020135 
L 344.377721 70.754837 
L 344.724376 69.770041 
L 346.110999 68.852391 
L 346.457655 64.846064 
L 346.80431 65.282507 
L 347.150966 67.822832 
L 347.497621 69.154544 
L 348.537588 68.740482 
L 348.884244 74.100903 
L 349.2309 60.688661 
L 349.577555 62.563129 
L 349.924211 59.032414 
L 350.964178 63.49197 
L 351.310833 71.112944 
L 351.657489 71.073776 
L 352.3508 77.810672 
L 353.390767 93.45549 
L 354.084078 86.354891 
L 354.777389 88.979147 
L 355.817356 97.053351 
L 356.164012 92.269259 
L 356.857323 101.731129 
L 357.203979 102.682352 
L 358.590601 103.683934 
L 358.937257 104.847783 
L 359.283913 103.588811 
L 359.630568 107.992414 
L 359.630568 107.992414 
" style="fill:none;stroke:#bc80bd;stroke-linecap:square;stroke-opacity:0.5;stroke-width:2;"/>
   </g>
   <g id="line2d_21">
    <path clip-path="url(#pb0e7906f45)" d="M 55.266932 194.497739 
L 55.613587 194.581671 
L 55.960243 194.346663 
L 56.306899 193.809502 
L 57.346866 193.204076 
L 58.040177 192.344299 
L 58.733488 191.948089 
L 60.120111 191.698346 
L 61.160077 191.202032 
L 62.5467 190.963294 
L 63.586667 190.289977 
L 64.973289 190.010765 
L 66.013256 188.433268 
L 67.053223 187.91122 
L 68.439845 185.821628 
L 69.479812 185.317956 
L 70.866435 183.273479 
L 72.253057 182.786836 
L 73.293024 181.478992 
L 74.332991 181.083141 
L 75.719614 179.442972 
L 76.75958 179.066718 
L 78.146203 177.75086 
L 79.18617 177.452782 
L 80.572792 176.290968 
L 81.612759 175.992285 
L 82.999382 174.972246 
L 84.039348 174.735457 
L 85.425971 173.609463 
L 86.465938 173.354036 
L 87.85256 172.388948 
L 89.239183 172.007847 
L 89.932494 171.683916 
L 91.665772 171.374516 
L 92.705739 170.925966 
L 93.745706 170.752921 
L 95.132328 170.085299 
L 96.172295 169.885564 
L 97.558918 169.07543 
L 98.598885 168.801409 
L 99.985507 167.670734 
L 101.025474 167.37913 
L 102.065441 166.664016 
L 102.412096 166.431419 
L 103.452063 166.191043 
L 104.838686 165.293314 
L 106.225308 165.079664 
L 107.265275 164.459027 
L 108.305242 164.258301 
L 109.691865 163.515241 
L 111.078487 163.339346 
L 112.118454 163.159787 
L 113.851732 162.927525 
L 114.545043 162.774317 
L 116.624977 162.533854 
L 118.011599 162.440463 
L 121.1315 162.12933 
L 121.824811 161.955812 
L 123.211434 161.759627 
L 124.251401 161.455486 
L 125.638023 161.224742 
L 126.67799 160.924624 
L 128.064612 160.76405 
L 129.104579 160.345008 
L 130.144546 160.187355 
L 131.531169 159.578523 
L 132.571136 159.416893 
L 133.957758 158.802776 
L 135.344381 158.523547 
L 136.384347 158.087979 
L 137.424314 157.93219 
L 138.810937 157.260427 
L 140.544215 156.96115 
L 141.237526 156.699908 
L 142.624149 156.426252 
L 143.664116 156.069971 
L 145.050738 155.84713 
L 146.090705 155.629569 
L 147.823983 155.443333 
L 148.517294 155.307655 
L 150.250572 155.105102 
L 150.943884 154.953744 
L 152.677162 154.71704 
L 153.370473 154.558051 
L 154.757095 154.353253 
L 155.797062 154.109633 
L 157.53034 153.888129 
L 159.95693 153.278418 
L 160.650241 152.9717 
L 161.690208 152.795925 
L 163.07683 152.077307 
L 164.463453 151.755278 
L 165.50342 151.328807 
L 166.890042 151.033669 
L 167.236698 150.868029 
L 170.009943 150.126621 
L 170.356598 149.991532 
L 171.743221 149.740002 
L 172.783188 149.378895 
L 174.16981 149.110456 
L 175.209777 148.705422 
L 176.5964 148.411955 
L 177.636366 147.991777 
L 179.369645 147.762383 
L 180.062956 147.541103 
L 181.796234 147.301339 
L 182.489545 147.046772 
L 183.876168 146.792618 
L 184.916135 146.400468 
L 186.302757 146.268425 
L 187.342724 145.836607 
L 188.729346 145.5735 
L 189.769313 145.256637 
L 191.502591 145.017755 
L 192.195903 144.893755 
L 194.622492 144.732379 
L 196.35577 144.535622 
L 197.049081 144.332141 
L 198.782359 144.143343 
L 199.475671 143.933386 
L 200.862293 143.683106 
L 201.90226 143.344732 
L 203.288883 143.120514 
L 204.328849 142.781878 
L 205.715472 142.528387 
L 206.755439 142.187056 
L 208.142061 141.990458 
L 209.182028 141.790655 
L 212.99524 141.401256 
L 214.035207 141.180136 
L 215.421829 141.028929 
L 216.461796 140.779227 
L 217.848419 140.588306 
L 218.888386 140.366725 
L 222.354942 140.133093 
L 223.394909 139.896915 
L 223.741564 139.780708 
L 225.128187 139.536386 
L 226.168154 139.136602 
L 227.554776 138.880887 
L 228.594743 138.504334 
L 229.981365 138.255025 
L 231.021332 137.87534 
L 232.75461 137.630877 
L 233.447922 137.382669 
L 234.834544 137.107054 
L 235.874511 136.693986 
L 237.261134 136.432097 
L 238.3011 136.062477 
L 239.687723 135.840649 
L 240.72769 135.529674 
L 242.114312 135.341953 
L 243.154279 135.046668 
L 245.234213 134.749871 
L 245.580868 134.643278 
L 246.967491 134.414115 
L 248.007458 134.078854 
L 249.39408 133.850523 
L 250.434047 133.511901 
L 251.82067 133.281724 
L 252.860637 132.930276 
L 254.247259 132.720938 
L 255.287226 132.254136 
L 256.673848 131.930367 
L 257.713815 131.450302 
L 259.100438 131.121592 
L 260.140405 130.591053 
L 261.180371 130.410192 
L 262.566994 129.695733 
L 263.606961 129.511168 
L 264.993583 128.705878 
L 266.380206 128.492363 
L 267.420173 127.901991 
L 268.46014 127.724278 
L 269.846762 126.952908 
L 270.886729 126.780913 
L 272.273351 126.092168 
L 273.313318 125.915073 
L 274.699941 125.183597 
L 275.739908 124.990766 
L 277.12653 124.213927 
L 278.166497 124.035966 
L 279.553119 123.378185 
L 280.593086 123.223307 
L 281.979709 122.583147 
L 283.019676 122.421979 
L 284.406298 121.809831 
L 285.792921 121.541107 
L 286.832888 121.112572 
L 288.21951 120.9082 
L 289.259477 120.557992 
L 290.992755 120.352751 
L 291.686066 120.209418 
L 301.045768 119.835292 
L 304.85898 120.008113 
L 308.672192 120.270313 
L 312.485404 120.563691 
L 315.95196 120.786151 
L 320.111827 120.805648 
L 332.59143 120.339315 
L 335.364675 120.010432 
L 337.444608 119.804433 
L 340.217853 119.419274 
L 341.951131 119.185387 
L 342.644443 119.036383 
L 344.377721 118.803248 
L 344.724376 118.718268 
L 346.457655 118.539101 
L 347.497621 118.2756 
L 348.884244 118.115138 
L 349.924211 117.822018 
L 351.657489 117.571531 
L 352.3508 117.430815 
L 354.430734 117.241282 
L 355.817356 117.160261 
L 357.203979 117.03656 
L 359.630568 116.957297 
L 359.630568 116.957297 
" style="fill:none;stroke:#fb8072;stroke-dasharray:2,3.3;stroke-dashoffset:0;stroke-width:2;"/>
   </g>
   <g id="line2d_22">
    <path clip-path="url(#pb0e7906f45)" d="M 55.266932 194.497739 
L 55.613587 194.582949 
L 55.960243 194.340308 
L 56.306899 193.780024 
L 57.346866 193.143427 
L 58.040177 192.233934 
L 58.733488 191.822221 
L 60.120111 191.551264 
L 61.160077 191.016107 
L 62.5467 190.757736 
L 63.586667 189.964177 
L 64.973289 189.645004 
L 66.013256 187.610879 
L 67.053223 186.933644 
L 68.439845 184.200481 
L 69.479812 183.536373 
L 70.866435 180.805281 
L 72.253057 180.150497 
L 73.293024 178.408095 
L 74.332991 177.884344 
L 75.372958 176.213088 
L 75.719614 175.649746 
L 76.75958 175.140823 
L 77.799547 173.808377 
L 78.146203 173.403326 
L 79.18617 173.014375 
L 80.572792 171.472893 
L 81.612759 171.060441 
L 82.999382 169.721928 
L 84.039348 169.414963 
L 85.425971 167.775622 
L 86.465938 167.414945 
L 87.505905 166.357909 
L 87.85256 166.069879 
L 89.239183 165.611117 
L 89.932494 165.270847 
L 91.665772 164.947855 
L 92.359083 164.64278 
L 92.705739 164.467433 
L 93.745706 164.239628 
L 94.785673 163.558934 
L 95.132328 163.363095 
L 96.172295 163.047443 
L 97.558918 161.736127 
L 98.598885 161.203477 
L 99.985507 158.979776 
L 101.025474 158.400534 
L 101.37213 157.85015 
L 102.065441 157.140693 
L 102.412096 156.734707 
L 103.452063 156.303654 
L 104.838686 154.766808 
L 106.225308 154.413003 
L 107.265275 153.40311 
L 108.305242 153.083832 
L 109.345209 152.065233 
L 109.691865 151.993286 
L 111.425143 152.179025 
L 112.118454 152.490917 
L 113.851732 152.629156 
L 114.545043 152.69585 
L 115.931666 152.855147 
L 116.624977 153.006475 
L 116.971633 153.107455 
L 118.704911 153.318236 
L 119.398222 153.542501 
L 121.478156 153.550254 
L 121.824811 153.43159 
L 123.211434 153.142036 
L 124.251401 152.657857 
L 125.291368 152.44342 
L 126.331334 151.822763 
L 126.67799 151.737902 
L 128.064612 151.585494 
L 129.104579 150.559414 
L 130.144546 150.139183 
L 131.184513 148.936979 
L 131.531169 148.595177 
L 132.571136 148.169308 
L 133.264447 147.243337 
L 133.957758 146.65631 
L 134.997725 146.395487 
L 136.384347 145.043847 
L 137.424314 144.661507 
L 138.810937 142.915725 
L 140.197559 142.573133 
L 140.890871 141.957587 
L 141.237526 141.780897 
L 142.277493 141.496193 
L 142.970804 141.051149 
L 143.664116 140.722308 
L 145.744049 140.496634 
L 146.090705 140.634795 
L 148.517294 141.03632 
L 151.98385 141.079179 
L 153.370473 140.855885 
L 154.41044 140.664197 
L 155.103751 140.279525 
L 157.876996 140.043977 
L 158.223652 139.74849 
L 159.263619 139.316783 
L 160.650241 137.339916 
L 161.690208 136.679423 
L 163.07683 134.03156 
L 164.116797 133.456632 
L 165.156764 132.238816 
L 165.50342 131.871414 
L 166.543387 131.522283 
L 167.236698 130.53202 
L 167.930009 130.023022 
L 168.969976 129.564608 
L 169.663287 128.911796 
L 170.356598 128.282702 
L 171.396565 128.047797 
L 172.783188 127.247805 
L 173.823155 126.929433 
L 175.209777 125.764818 
L 176.249744 125.340498 
L 177.636366 124.027025 
L 179.369645 123.755319 
L 180.062956 123.53391 
L 181.449578 123.343543 
L 182.14289 122.949523 
L 182.489545 122.66721 
L 183.529512 122.417388 
L 184.916135 121.355784 
L 186.302757 121.073127 
L 187.342724 119.955328 
L 188.382691 119.682637 
L 189.076002 119.271594 
L 189.769313 119.222814 
L 191.155936 119.481228 
L 191.849247 119.712814 
L 192.195903 120.10795 
L 193.582525 120.917936 
L 194.275836 121.877753 
L 194.622492 122.345589 
L 196.35577 122.679934 
L 197.049081 122.264224 
L 198.782359 121.973275 
L 200.515638 121.067694 
L 201.208949 120.307229 
L 201.90226 119.801684 
L 202.942227 119.512667 
L 204.328849 118.380616 
L 205.368816 117.936813 
L 206.408783 116.999976 
L 206.755439 116.745335 
L 208.488717 116.510569 
L 208.835372 116.639442 
L 209.182028 116.921244 
L 210.221995 116.880494 
L 211.261962 117.378842 
L 214.035207 117.720041 
L 215.421829 117.679245 
L 216.115141 117.512643 
L 216.461796 117.375083 
L 217.501763 117.198172 
L 218.195074 116.683927 
L 218.54173 116.649123 
L 218.888386 116.900241 
L 219.928352 117.162457 
L 221.314975 118.439151 
L 222.701597 118.708998 
L 223.394909 118.211017 
L 223.741564 117.686722 
L 224.781531 117.125279 
L 225.821498 115.224672 
L 226.168154 114.569898 
L 227.20812 113.952731 
L 228.594743 111.845225 
L 229.63471 111.33045 
L 231.021332 109.352442 
L 232.407955 108.902214 
L 233.447922 107.590699 
L 234.487889 107.03402 
L 235.874511 104.775331 
L 236.914478 104.327625 
L 237.954445 103.061461 
L 238.3011 102.76136 
L 239.687723 102.319051 
L 240.72769 101.889899 
L 242.114312 101.807553 
L 245.234213 101.159975 
L 245.580868 100.952508 
L 246.620835 100.645341 
L 248.007458 99.56968 
L 249.047425 99.290235 
L 250.434047 98.195826 
L 251.474014 97.929395 
L 252.860637 96.69407 
L 254.247259 96.379587 
L 254.94057 94.939146 
L 255.287226 94.110209 
L 256.327193 93.262328 
L 257.713815 90.300464 
L 258.753782 89.546565 
L 259.793749 87.147951 
L 260.140405 86.135611 
L 261.180371 85.239252 
L 262.566994 81.915732 
L 263.606961 81.045756 
L 264.646928 78.036982 
L 264.993583 76.890736 
L 266.380206 75.748495 
L 267.073517 73.839081 
L 267.420173 73.074597 
L 268.46014 72.453573 
L 269.846762 69.300739 
L 270.886729 68.811564 
L 272.273351 66.88925 
L 273.313318 66.354245 
L 274.699941 63.968645 
L 275.739908 63.259727 
L 276.779874 60.960898 
L 277.12653 60.460892 
L 278.166497 59.997709 
L 278.513153 59.423363 
L 279.206464 59.241703 
L 279.553119 58.883079 
L 280.593086 58.727082 
L 281.286398 58.085639 
L 281.633053 58.007617 
L 281.979709 57.79882 
L 283.019676 57.542404 
L 283.366331 57.209748 
L 283.712987 57.19594 
L 284.059643 56.992189 
L 284.406298 56.935556 
L 285.792921 57.108282 
L 286.139576 56.944595 
L 286.486232 56.650185 
L 286.832888 56.960688 
L 287.872854 57.50041 
L 288.21951 57.936484 
L 288.912821 58.306262 
L 289.259477 58.660248 
L 290.299444 59.422264 
L 291.686066 62.738353 
L 292.726033 63.715598 
L 293.419344 66.301721 
L 294.112656 67.723998 
L 295.152622 69.009436 
L 295.845934 71.222275 
L 296.539245 73.191284 
L 297.579212 73.89741 
L 297.925867 74.911867 
L 298.619179 75.977472 
L 298.965834 77.263407 
L 300.005801 78.465776 
L 301.392424 83.093805 
L 302.432391 84.351234 
L 303.125702 86.793931 
L 303.819013 89.869934 
L 305.552291 92.895669 
L 306.245602 95.414169 
L 307.285569 96.553614 
L 307.97888 97.651826 
L 308.672192 100.762911 
L 309.712159 102.14124 
L 310.752125 105.474139 
L 311.098781 106.533196 
L 312.138748 107.653141 
L 313.178715 110.265934 
L 313.52537 110.997763 
L 314.911993 111.850488 
L 315.95196 114.076822 
L 316.991927 114.715307 
L 317.338582 115.399936 
L 318.378549 115.985655 
L 319.418516 115.958876 
L 320.111827 115.671719 
L 324.965006 115.500612 
L 325.658317 115.356139 
L 327.04494 115.039432 
L 328.084907 114.592311 
L 329.124873 114.389782 
L 329.818185 114.070529 
L 330.511496 113.955445 
L 331.551463 113.647971 
L 332.59143 112.393965 
L 332.938085 111.838736 
L 333.978052 111.222611 
L 334.671363 110.09849 
L 335.364675 108.584945 
L 336.404641 108.036387 
L 337.444608 106.57458 
L 337.791264 106.037988 
L 338.831231 105.464449 
L 340.217853 102.665548 
L 341.25782 101.831102 
L 342.644443 98.837244 
L 343.68441 98.15357 
L 344.377721 96.687525 
L 344.724376 95.880001 
L 346.110999 95.069172 
L 347.150966 92.531883 
L 347.497621 91.830562 
L 348.537588 91.13786 
L 348.884244 90.626751 
L 349.924211 88.017207 
L 350.964178 87.28145 
L 352.004144 85.95582 
L 352.3508 85.711465 
L 355.817356 86.513776 
L 356.164012 86.686441 
L 356.857323 87.452159 
L 357.203979 87.909065 
L 358.590601 88.382311 
L 359.630568 89.877894 
L 359.630568 89.877894 
" style="fill:none;stroke:#b3de69;stroke-dasharray:7.4,3.2;stroke-dashoffset:0;stroke-width:2;"/>
   </g>
   <g id="line2d_23">
    <path clip-path="url(#pb0e7906f45)" d="M 68.439845 185.821628 
L 69.479812 184.990107 
L 70.866435 181.500158 
L 72.253057 180.647055 
L 73.293024 178.113925 
L 74.332991 177.291996 
L 75.372958 174.58281 
L 75.719614 173.630388 
L 76.75958 172.693553 
L 78.146203 169.347887 
L 79.18617 168.482793 
L 80.572792 166.330752 
L 81.612759 165.835556 
L 82.999382 164.257046 
L 84.039348 163.981071 
L 85.425971 162.465509 
L 86.465938 162.155763 
L 87.505905 161.103422 
L 87.85256 160.805066 
L 89.239183 160.521298 
L 89.932494 160.346041 
L 91.665772 160.133215 
L 93.745706 159.517918 
L 94.785673 159.006935 
L 96.172295 158.586878 
L 97.558918 157.351088 
L 98.598885 156.917442 
L 99.985507 154.883304 
L 101.025474 154.338549 
L 101.37213 153.769014 
L 102.065441 152.965071 
L 102.412096 152.468877 
L 103.452063 151.856777 
L 104.838686 149.438752 
L 106.225308 148.796077 
L 107.265275 147.150821 
L 108.305242 146.678407 
L 109.345209 145.000578 
L 109.691865 144.859294 
L 111.425143 144.960811 
L 111.771798 145.152254 
L 112.118454 145.630464 
L 113.158421 145.962592 
L 114.198388 147.199182 
L 114.545043 147.644218 
L 115.58501 148.100845 
L 116.624977 149.170771 
L 116.971633 149.641587 
L 118.704911 150.56803 
L 119.398222 151.542434 
L 120.438189 151.9505 
L 121.824811 153.239247 
L 122.864778 153.469859 
L 123.558089 153.907501 
L 123.904745 153.842754 
L 124.251401 153.613342 
L 125.291368 153.354153 
L 126.67799 152.019644 
L 127.717957 151.844187 
L 128.064612 151.646548 
L 129.104579 150.16316 
L 130.144546 149.449144 
L 131.531169 146.69979 
L 132.571136 145.925423 
L 133.264447 144.180648 
L 133.957758 142.949854 
L 134.997725 142.37852 
L 136.037692 140.745854 
L 136.384347 140.254256 
L 137.424314 139.731283 
L 138.810937 137.297272 
L 140.197559 136.860828 
L 141.237526 135.208978 
L 143.31746 134.091691 
L 143.664116 134.012555 
L 145.397394 134.091691 
L 145.744049 134.286931 
L 146.090705 134.664023 
L 147.130672 135.187396 
L 147.477327 135.557093 
L 148.517294 136.077468 
L 149.557261 136.360837 
L 150.943884 137.402186 
L 151.98385 137.738311 
L 153.370473 139.068625 
L 155.103751 139.150558 
L 155.797062 139.630765 
L 157.183685 139.852784 
L 157.876996 140.078799 
L 159.263619 139.367381 
L 160.650241 136.1608 
L 161.690208 135.209577 
L 163.07683 131.099535 
L 164.116797 130.095356 
L 165.50342 127.167748 
L 166.543387 126.501092 
L 167.236698 124.774303 
L 167.930009 124.027913 
L 168.969976 123.352265 
L 170.356598 120.513184 
L 171.396565 119.880101 
L 172.089877 118.640714 
L 172.436532 118.31578 
L 172.783188 118.160706 
L 173.823155 117.95967 
L 174.516466 117.475266 
L 177.636366 117.365156 
L 180.062956 117.374748 
L 181.796234 117.309402 
L 182.489545 117.398929 
L 183.876168 117.324789 
L 184.916135 116.645944 
L 186.302757 116.341592 
L 187.342724 114.968115 
L 189.422658 114.330835 
L 189.769313 114.364807 
L 190.80928 114.651573 
L 191.502591 115.439729 
L 191.849247 115.753273 
L 192.195903 116.444508 
L 193.582525 117.686494 
L 193.929181 118.215262 
L 194.622492 119.554168 
L 195.662459 119.978221 
L 196.35577 120.559347 
L 197.049081 120.680647 
L 198.782359 120.88588 
L 199.475671 121.024766 
L 200.862293 120.856504 
L 201.208949 120.875488 
L 201.555604 121.006381 
L 202.942227 120.986597 
L 203.635538 120.6159 
L 203.982194 120.32314 
L 204.328849 119.715836 
L 205.368816 118.978038 
L 206.408783 116.902734 
L 206.755439 115.840602 
L 207.795406 115.221707 
L 208.835372 113.041289 
L 210.568651 112.484144 
L 211.261962 113.017708 
L 213.341896 113.435567 
L 213.688551 113.565261 
L 214.035207 114.072446 
L 216.461796 115.026267 
L 217.501763 115.065635 
L 218.195074 114.867597 
L 218.54173 115.210716 
L 218.888386 115.976091 
L 219.928352 116.680116 
L 221.314975 119.423275 
L 222.701597 120.0038 
L 223.048253 119.635901 
L 223.741564 118.536199 
L 224.781531 117.731057 
L 226.168154 113.740118 
L 227.20812 112.914193 
L 227.554776 112.227953 
L 228.248087 110.400446 
L 228.594743 109.741984 
L 229.63471 108.980606 
L 231.021332 106.482447 
L 232.407955 105.967468 
L 232.75461 105.229671 
L 233.447922 102.952531 
L 234.487889 101.533291 
L 235.874511 95.79318 
L 236.914478 94.699674 
L 237.607789 93.215486 
L 238.3011 92.63556 
L 239.687723 92.517457 
L 240.72769 92.956898 
L 242.114312 93.341783 
L 243.154279 93.637741 
L 244.194246 93.636742 
L 244.540902 93.850567 
L 245.580868 94.011636 
L 248.007458 93.681905 
L 249.39408 93.917113 
L 249.740736 94.063993 
L 251.82067 93.965673 
L 252.860637 93.40733 
L 253.900603 93.204695 
L 254.247259 93.022444 
L 254.593915 92.251874 
L 255.287226 89.932369 
L 256.327193 88.748336 
L 257.713815 84.447849 
L 258.753782 83.214857 
L 260.140405 78.433563 
L 261.180371 77.072275 
L 262.566994 72.270598 
L 263.606961 70.911708 
L 264.646928 66.345839 
L 264.993583 64.644029 
L 266.380206 62.993378 
L 267.420173 58.262643 
L 268.46014 56.878773 
L 268.806795 55.767681 
L 269.500106 54.150602 
L 269.846762 53.403413 
L 270.886729 52.849465 
L 272.273351 50.766367 
L 273.313318 50.234601 
L 273.659974 49.658872 
L 274.353285 48.960642 
L 274.699941 48.464647 
L 275.739908 47.876128 
L 276.779874 45.820008 
L 277.12653 45.51206 
L 278.166497 45.315221 
L 278.513153 45.127174 
L 278.859808 45.544633 
L 279.206464 46.180314 
L 279.553119 46.482867 
L 280.939742 46.986855 
L 281.633053 47.10296 
L 281.979709 47.322181 
L 283.019676 47.343164 
L 283.366331 47.520819 
L 283.712987 47.943074 
L 284.059643 47.850549 
L 285.446265 48.238632 
L 285.792921 48.562168 
L 286.486232 48.434872 
L 286.832888 49.142893 
L 287.872854 50.049752 
L 288.566166 51.832696 
L 289.259477 53.862837 
L 290.299444 55.656971 
L 291.686066 62.228802 
L 292.726033 63.667427 
L 293.419344 67.597016 
L 294.112656 69.740865 
L 295.152622 72.003017 
L 295.845934 75.898035 
L 296.539245 79.782261 
L 297.579212 81.577794 
L 297.925867 83.397907 
L 298.619179 85.541756 
L 298.965834 87.818096 
L 300.005801 89.84544 
L 301.392424 98.779141 
L 302.432391 100.56688 
L 303.125702 104.692909 
L 303.819013 109.791943 
L 305.552291 113.777687 
L 306.245602 116.961286 
L 307.97888 120.043568 
L 308.672192 123.106665 
L 309.712159 124.285103 
L 311.098781 129.082783 
L 312.138748 130.464254 
L 312.832059 133.051541 
L 313.178715 133.962796 
L 313.52537 134.527734 
L 314.911993 135.31629 
L 315.95196 137.460139 
L 316.991927 137.904376 
L 317.338582 138.35181 
L 317.685238 138.392377 
L 318.031894 138.123197 
L 318.378549 137.65418 
L 319.418516 136.660792 
L 319.765172 135.338472 
L 320.805138 133.075121 
L 321.845105 132.475012 
L 322.191761 131.812353 
L 322.885072 129.297208 
L 323.231728 128.172926 
L 324.61835 127.160953 
L 325.658317 124.31308 
L 326.698284 123.106066 
L 327.738251 120.170464 
L 328.084907 119.256011 
L 329.124873 118.128133 
L 330.16484 115.205321 
L 330.511496 114.365807 
L 331.551463 113.157594 
L 332.938085 109.957608 
L 333.978052 109.248987 
L 334.324708 108.615904 
L 334.671363 107.743817 
L 335.364675 105.495853 
L 336.404641 104.627763 
L 337.791264 101.148805 
L 338.831231 100.215967 
L 340.217853 95.869518 
L 341.25782 94.64312 
L 342.644443 89.863025 
L 343.68441 88.662006 
L 344.724376 84.682857 
L 346.110999 83.536194 
L 346.80431 81.147146 
L 347.497621 79.425353 
L 348.537588 78.54707 
L 349.2309 77.18918 
L 349.924211 75.193011 
L 350.964178 74.140271 
L 352.004144 72.230431 
L 352.3508 71.905097 
L 353.390767 72.273796 
L 355.817356 74.326918 
L 356.510668 75.724976 
L 357.203979 77.575464 
L 358.590601 78.563457 
L 359.630568 82.386733 
L 359.630568 82.386733 
" style="fill:none;stroke:#fdb462;stroke-dasharray:12.8,3.2,2,3.2;stroke-dashoffset:0;stroke-width:2;"/>
   </g>
   <g id="patch_3">
    <path d="M 40.04875 207.137812 
L 40.04875 11.297813 
" style="fill:none;stroke:#000000;stroke-linecap:square;stroke-linejoin:miter;stroke-width:0.6;"/>
   </g>
   <g id="patch_4">
    <path d="M 40.04875 207.137812 
L 374.84875 207.137812 
" style="fill:none;stroke:#000000;stroke-linecap:square;stroke-linejoin:miter;stroke-width:0.6;"/>
   </g>
   <g id="legend_1">
    <g id="patch_5">
     <path d="M 47.04875 68.988437 
L 154.750313 68.988437 
Q 156.750313 68.988437 156.750313 66.988437 
L 156.750313 18.297812 
Q 156.750313 16.297812 154.750313 16.297812 
L 47.04875 16.297812 
Q 45.04875 16.297812 45.04875 18.297812 
L 45.04875 66.988437 
Q 45.04875 68.988437 47.04875 68.988437 
z
" style="fill:#ffffff;opacity:0.8;stroke:#e6e6e6;stroke-linejoin:miter;stroke-width:0.8;"/>
    </g>
    <g id="line2d_24">
     <path d="M 47.04875 21.797812 
L 67.04875 21.797812 
" style="fill:none;stroke:#bc80bd;stroke-linecap:square;stroke-opacity:0.5;stroke-width:2;"/>
    </g>
    <g id="line2d_25"/>
    <g id="text_22">
     <!-- Raw -->
     <g style="fill:#323034;" transform="translate(75.04875 25.297812)scale(0.1 -0.1)">
      <defs>
       <path d="M 4224 0 
L 3187 0 
L 1664 1971 
L 1306 1958 
L 1306 717 
Q 1306 352 1405 249 
Q 1504 147 1875 122 
L 1875 0 
L 109 0 
L 109 122 
Q 474 154 563 262 
Q 653 371 653 794 
L 653 3526 
Q 653 3885 563 3987 
Q 474 4090 109 4115 
L 109 4237 
L 1850 4237 
Q 2726 4237 3187 3859 
Q 3501 3603 3501 3091 
Q 3501 2221 2342 2042 
L 3622 422 
Q 3757 256 3878 198 
Q 4000 141 4224 122 
L 4224 0 
z
M 1306 3731 
L 1306 2195 
Q 1766 2202 1990 2246 
Q 2214 2291 2438 2413 
Q 2803 2618 2803 3142 
Q 2803 4000 1632 4000 
Q 1459 4000 1382 3945 
Q 1306 3891 1306 3731 
z
" id="STIXGeneral-Regular-52" transform="scale(0.015625)"/>
       <path d="M 4442 2880 
L 4442 2784 
Q 4346 2752 4301 2691 
Q 4256 2630 4179 2438 
L 3296 224 
Q 3168 -90 3117 -90 
Q 3085 -90 3062 -48 
Q 3040 -6 2963 186 
L 2381 1696 
L 1664 160 
Q 1549 -90 1504 -90 
Q 1446 -90 1338 192 
L 474 2381 
Q 378 2630 314 2700 
Q 250 2771 134 2784 
L 134 2880 
L 1286 2880 
L 1286 2784 
Q 1120 2765 1056 2720 
Q 992 2675 992 2573 
Q 992 2477 1030 2381 
L 1664 710 
L 2246 1984 
L 2118 2342 
Q 2029 2598 1942 2681 
Q 1856 2765 1677 2784 
L 1677 2880 
L 2976 2880 
L 2976 2784 
Q 2752 2752 2678 2707 
Q 2605 2662 2605 2560 
Q 2605 2458 2714 2176 
L 3251 742 
L 3827 2163 
Q 3936 2432 3936 2592 
Q 3936 2669 3875 2710 
Q 3814 2752 3654 2784 
L 3654 2880 
L 4442 2880 
z
" id="STIXGeneral-Regular-77" transform="scale(0.015625)"/>
      </defs>
      <use xlink:href="#STIXGeneral-Regular-52"/>
      <use x="66.699997" xlink:href="#STIXGeneral-Regular-61"/>
      <use x="111.099991" xlink:href="#STIXGeneral-Regular-77"/>
     </g>
    </g>
    <g id="line2d_26">
     <path d="M 47.04875 34.968125 
L 67.04875 34.968125 
" style="fill:none;stroke:#fb8072;stroke-dasharray:2,3.3;stroke-dashoffset:0;stroke-width:2;"/>
    </g>
    <g id="line2d_27"/>
    <g id="text_23">
     <!-- Expanding Average -->
     <g style="fill:#323034;" transform="translate(75.04875 38.468125)scale(0.1 -0.1)">
      <defs>
       <path d="M 3821 1082 
L 3526 0 
L 77 0 
L 77 122 
Q 442 147 538 252 
Q 634 358 634 730 
L 634 3520 
Q 634 3878 534 3987 
Q 435 4096 77 4115 
L 77 4237 
L 3469 4237 
L 3494 3322 
L 3334 3322 
Q 3264 3750 3085 3872 
Q 2906 3994 2349 3994 
L 1510 3994 
Q 1370 3994 1328 3952 
Q 1286 3910 1286 3763 
L 1286 2355 
L 2253 2355 
Q 2656 2355 2787 2470 
Q 2918 2586 2976 2970 
L 3123 2970 
L 3123 1472 
L 2976 1472 
Q 2918 1875 2790 1984 
Q 2662 2093 2253 2093 
L 1286 2093 
L 1286 538 
Q 1286 346 1420 291 
Q 1555 237 1933 237 
L 2163 237 
Q 2848 237 3136 403 
Q 3424 570 3642 1082 
L 3821 1082 
z
" id="STIXGeneral-Regular-45" transform="scale(0.015625)"/>
       <path d="M 3066 0 
L 1779 0 
L 1779 96 
Q 1939 109 1987 137 
Q 2035 166 2035 250 
Q 2035 307 1997 365 
L 1414 1261 
L 909 474 
Q 781 275 781 211 
Q 781 96 1037 96 
L 1037 0 
L 109 0 
L 109 96 
Q 269 109 355 169 
Q 442 230 576 422 
L 1306 1478 
L 704 2400 
Q 557 2624 454 2704 
Q 352 2784 211 2784 
L 154 2784 
L 154 2880 
L 1478 2880 
L 1478 2784 
Q 1203 2778 1203 2643 
Q 1203 2509 1498 2074 
Q 1581 1958 1587 1946 
Q 1619 1990 1779 2227 
Q 1811 2285 1856 2349 
Q 1901 2413 1923 2451 
Q 1946 2490 1971 2528 
Q 1997 2566 2006 2595 
Q 2016 2624 2016 2643 
Q 2016 2765 1760 2784 
L 1760 2880 
L 2771 2880 
L 2771 2784 
Q 2445 2771 2253 2502 
L 1722 1734 
L 2541 480 
Q 2790 96 3066 96 
L 3066 0 
z
" id="STIXGeneral-Regular-78" transform="scale(0.015625)"/>
       <path d="M 1018 2931 
L 1018 2438 
Q 1421 2944 1939 2944 
Q 2406 2944 2707 2560 
Q 3008 2176 3008 1581 
Q 3008 883 2621 409 
Q 2234 -64 1664 -64 
Q 1466 -64 1328 -6 
Q 1190 51 1018 211 
L 1018 -794 
Q 1018 -1094 1120 -1180 
Q 1222 -1267 1581 -1274 
L 1581 -1389 
L 32 -1389 
L 32 -1280 
Q 314 -1254 397 -1171 
Q 480 -1088 480 -838 
L 480 2157 
Q 480 2381 429 2451 
Q 378 2522 218 2522 
Q 115 2522 58 2515 
L 58 2618 
Q 506 2752 979 2944 
L 1018 2931 
z
M 1018 2138 
L 1018 563 
Q 1018 422 1238 281 
Q 1459 141 1683 141 
Q 2029 141 2243 467 
Q 2458 794 2458 1325 
Q 2458 1888 2243 2224 
Q 2029 2560 1670 2560 
Q 1446 2560 1232 2419 
Q 1018 2278 1018 2138 
z
" id="STIXGeneral-Regular-70" transform="scale(0.015625)"/>
       <path d="M 3104 0 
L 1773 0 
L 1779 96 
Q 2016 115 2096 233 
Q 2176 352 2176 672 
L 2176 1946 
Q 2176 2592 1709 2592 
Q 1549 2592 1408 2515 
Q 1267 2438 1050 2227 
L 1050 461 
Q 1050 269 1136 192 
Q 1222 115 1466 96 
L 1466 0 
L 115 0 
L 115 96 
Q 358 115 435 214 
Q 512 314 512 602 
L 512 2157 
Q 512 2394 467 2483 
Q 422 2573 288 2573 
Q 160 2573 102 2547 
L 102 2656 
Q 550 2784 979 2944 
L 1030 2925 
L 1030 2426 
L 1037 2426 
Q 1491 2944 1958 2944 
Q 2323 2944 2518 2688 
Q 2714 2432 2714 1958 
L 2714 544 
Q 2714 288 2790 205 
Q 2867 122 3104 96 
L 3104 0 
z
" id="STIXGeneral-Regular-6e" transform="scale(0.015625)"/>
       <path d="M 3142 269 
L 2202 -64 
L 2176 -45 
L 2176 365 
Q 1869 -64 1357 -64 
Q 826 -64 499 317 
Q 173 698 173 1312 
Q 173 1990 563 2467 
Q 954 2944 1504 2944 
Q 1850 2944 2176 2669 
L 2176 3667 
Q 2176 3866 2118 3930 
Q 2061 3994 1882 3994 
Q 1792 3994 1741 3987 
L 1741 4090 
Q 2323 4243 2682 4371 
L 2714 4358 
L 2714 730 
Q 2714 506 2768 435 
Q 2822 365 2995 365 
Q 3034 365 3142 371 
L 3142 269 
z
M 2176 653 
L 2176 2125 
Q 2176 2381 1981 2573 
Q 1786 2765 1523 2765 
Q 1158 2765 940 2438 
Q 723 2112 723 1568 
Q 723 979 963 624 
Q 1203 269 1606 269 
Q 1907 269 2080 474 
Q 2176 582 2176 653 
z
" id="STIXGeneral-Regular-64" transform="scale(0.015625)"/>
       <path d="M 1152 4045 
Q 1152 3904 1056 3811 
Q 960 3718 819 3718 
Q 685 3718 592 3811 
Q 499 3904 499 4045 
Q 499 4179 595 4275 
Q 691 4371 826 4371 
Q 966 4371 1059 4275 
Q 1152 4179 1152 4045 
z
M 1619 0 
L 102 0 
L 102 96 
Q 435 115 521 211 
Q 608 307 608 666 
L 608 2118 
Q 608 2342 563 2432 
Q 518 2522 397 2522 
Q 243 2522 128 2490 
L 128 2592 
L 1120 2944 
L 1146 2918 
L 1146 672 
Q 1146 314 1226 218 
Q 1306 122 1619 96 
L 1619 0 
z
" id="STIXGeneral-Regular-69" transform="scale(0.015625)"/>
       <path d="M 3008 2483 
L 2477 2483 
Q 2598 2208 2598 1946 
Q 2598 1453 2265 1203 
Q 1933 954 1600 954 
Q 1530 954 1357 973 
L 1235 986 
Q 1107 947 979 812 
Q 851 678 851 582 
Q 851 435 1350 410 
L 2176 371 
Q 2528 358 2739 172 
Q 2950 -13 2950 -314 
Q 2950 -685 2566 -986 
Q 2035 -1395 1286 -1395 
Q 826 -1395 502 -1212 
Q 179 -1030 179 -774 
Q 179 -595 320 -419 
Q 461 -243 806 6 
Q 602 102 534 172 
Q 467 243 467 346 
Q 467 531 762 787 
Q 909 915 1037 1043 
Q 717 1203 579 1401 
Q 442 1600 442 1901 
Q 442 2336 752 2640 
Q 1062 2944 1510 2944 
Q 1766 2944 2022 2848 
L 2163 2797 
Q 2349 2733 2515 2733 
L 3008 2733 
L 3008 2483 
z
M 973 2163 
L 973 2144 
Q 973 1683 1155 1398 
Q 1338 1114 1632 1114 
Q 1850 1114 1978 1270 
Q 2106 1427 2106 1690 
Q 2106 2112 1914 2464 
Q 1754 2765 1446 2765 
Q 1222 2765 1097 2605 
Q 973 2445 973 2163 
z
M 2771 -410 
Q 2771 -230 2595 -163 
Q 2419 -96 1978 -96 
Q 1344 -96 941 -13 
Q 749 -243 688 -348 
Q 627 -454 627 -563 
Q 627 -774 880 -902 
Q 1133 -1030 1555 -1030 
Q 2099 -1030 2435 -860 
Q 2771 -691 2771 -410 
z
" id="STIXGeneral-Regular-67" transform="scale(0.015625)"/>
       <path d="M 4525 0 
L 2893 0 
L 2893 122 
Q 3149 122 3245 179 
Q 3334 224 3334 333 
Q 3334 499 3213 781 
L 2950 1382 
L 1274 1382 
L 979 653 
Q 922 506 922 384 
Q 922 237 1027 179 
Q 1133 122 1370 122 
L 1370 0 
L 96 0 
L 96 122 
Q 365 147 486 316 
Q 608 486 902 1190 
L 2221 4314 
L 2349 4314 
L 3923 710 
Q 4064 378 4176 262 
Q 4288 147 4525 122 
L 4525 0 
z
M 2861 1645 
L 2118 3405 
L 1382 1645 
L 2861 1645 
z
" id="STIXGeneral-Regular-41" transform="scale(0.015625)"/>
       <path d="M 3053 2880 
L 3053 2784 
Q 2906 2771 2835 2688 
Q 2765 2605 2637 2285 
L 1818 230 
Q 1690 -90 1638 -90 
Q 1587 -90 1523 77 
Q 1510 96 1497 141 
Q 1485 186 1472 211 
L 704 2048 
Q 499 2534 403 2652 
Q 307 2771 122 2784 
L 122 2880 
L 1376 2880 
L 1376 2784 
Q 1210 2771 1146 2732 
Q 1082 2694 1082 2611 
Q 1082 2509 1139 2368 
L 1792 730 
L 2426 2387 
Q 2464 2483 2464 2579 
Q 2464 2758 2163 2784 
L 2163 2880 
L 3053 2880 
z
" id="STIXGeneral-Regular-76" transform="scale(0.015625)"/>
       <path d="M 1024 2931 
L 1024 2342 
Q 1267 2688 1430 2816 
Q 1594 2944 1792 2944 
Q 1958 2944 2051 2854 
Q 2144 2765 2144 2605 
Q 2144 2470 2077 2393 
Q 2010 2317 1894 2317 
Q 1773 2317 1638 2445 
Q 1536 2541 1472 2541 
Q 1338 2541 1181 2355 
Q 1024 2170 1024 2016 
L 1024 576 
Q 1024 301 1133 205 
Q 1242 109 1568 96 
L 1568 0 
L 32 0 
L 32 96 
Q 339 154 412 224 
Q 486 294 486 538 
L 486 2138 
Q 486 2349 438 2435 
Q 390 2522 269 2522 
Q 166 2522 45 2496 
L 45 2598 
Q 448 2726 992 2944 
L 1024 2931 
z
" id="STIXGeneral-Regular-72" transform="scale(0.015625)"/>
      </defs>
      <use xlink:href="#STIXGeneral-Regular-45"/>
      <use x="61.099991" xlink:href="#STIXGeneral-Regular-78"/>
      <use x="111.099976" xlink:href="#STIXGeneral-Regular-70"/>
      <use x="161.09996" xlink:href="#STIXGeneral-Regular-61"/>
      <use x="205.499954" xlink:href="#STIXGeneral-Regular-6e"/>
      <use x="255.499939" xlink:href="#STIXGeneral-Regular-64"/>
      <use x="305.499924" xlink:href="#STIXGeneral-Regular-69"/>
      <use x="333.299911" xlink:href="#STIXGeneral-Regular-6e"/>
      <use x="383.299896" xlink:href="#STIXGeneral-Regular-67"/>
      <use x="433.299881" xlink:href="#STIXGeneral-Regular-20"/>
      <use x="458.299866" xlink:href="#STIXGeneral-Regular-41"/>
      <use x="530.499847" xlink:href="#STIXGeneral-Regular-76"/>
      <use x="580.499832" xlink:href="#STIXGeneral-Regular-65"/>
      <use x="624.899826" xlink:href="#STIXGeneral-Regular-72"/>
      <use x="658.199814" xlink:href="#STIXGeneral-Regular-61"/>
      <use x="702.599808" xlink:href="#STIXGeneral-Regular-67"/>
      <use x="752.599792" xlink:href="#STIXGeneral-Regular-65"/>
     </g>
    </g>
    <g id="line2d_28">
     <path d="M 47.04875 48.147812 
L 67.04875 48.147812 
" style="fill:none;stroke:#b3de69;stroke-dasharray:7.4,3.2;stroke-dashoffset:0;stroke-width:2;"/>
    </g>
    <g id="line2d_29"/>
    <g id="text_24">
     <!-- EWMA ($\alpha=$0.03) -->
     <g style="fill:#323034;" transform="translate(75.04875 51.647812)scale(0.1 -0.1)">
      <defs>
       <path d="M 5965 4237 
L 5965 4115 
Q 5709 4064 5616 3990 
Q 5523 3917 5434 3667 
Q 4704 1709 4128 -70 
L 4032 -70 
Q 3642 1011 3008 2637 
L 2022 -70 
L 1926 -70 
Q 1709 576 1277 1753 
Q 845 2931 698 3347 
Q 538 3808 406 3958 
Q 275 4109 32 4115 
L 32 4237 
L 1594 4237 
L 1594 4115 
Q 1357 4109 1270 4064 
Q 1184 4019 1184 3917 
Q 1184 3808 1254 3616 
L 2176 1210 
L 2842 3021 
L 2662 3501 
Q 2509 3917 2400 4013 
Q 2291 4109 2010 4115 
L 2010 4237 
L 3706 4237 
L 3706 4115 
Q 3213 4102 3213 3891 
Q 3213 3808 3322 3520 
L 4237 1190 
L 5043 3360 
Q 5152 3667 5152 3853 
Q 5152 4109 4704 4115 
L 4704 4237 
L 5965 4237 
z
" id="STIXGeneral-Regular-57" transform="scale(0.015625)"/>
       <path d="M 5530 0 
L 3738 0 
L 3738 122 
Q 4115 147 4214 265 
Q 4314 384 4314 787 
L 4314 3661 
L 2682 0 
L 2592 0 
L 979 3514 
L 979 966 
Q 979 448 1088 294 
Q 1197 141 1574 122 
L 1574 0 
L 77 0 
L 77 122 
Q 358 141 480 205 
Q 602 269 650 432 
Q 698 595 698 966 
L 698 3514 
Q 698 3878 589 3984 
Q 480 4090 90 4115 
L 90 4237 
L 1357 4237 
L 2835 1024 
L 4250 4237 
L 5523 4237 
L 5523 4115 
Q 5178 4109 5072 3993 
Q 4966 3878 4966 3520 
L 4966 717 
Q 4966 378 5072 262 
Q 5178 147 5530 122 
L 5530 0 
z
" id="STIXGeneral-Regular-4d" transform="scale(0.015625)"/>
       <path d="M 3514 2739 
L 2605 1069 
L 2605 954 
Q 2605 704 2662 512 
Q 2720 320 2822 320 
Q 2970 320 3149 794 
L 3251 749 
Q 3014 -58 2605 -58 
Q 2291 -58 2272 614 
Q 1709 -70 1030 -70 
Q 589 -70 381 198 
Q 173 467 173 902 
Q 173 1293 329 1673 
Q 486 2054 755 2330 
Q 973 2547 1270 2684 
Q 1568 2822 1862 2822 
Q 2246 2822 2457 2595 
Q 2669 2368 2669 2061 
L 2963 2739 
L 3514 2739 
z
M 2298 1741 
Q 2298 2688 1805 2688 
Q 1472 2688 1085 2099 
Q 698 1510 698 800 
Q 698 493 806 278 
Q 915 64 1139 64 
Q 1606 64 2195 1286 
Q 2202 1325 2230 1411 
Q 2259 1498 2278 1581 
Q 2298 1664 2298 1741 
z
" id="STIXGeneral-Italic-3b1" transform="scale(0.015625)"/>
       <path d="M 4077 2048 
L 307 2048 
L 307 2470 
L 4077 2470 
L 4077 2048 
z
M 4077 768 
L 307 768 
L 307 1190 
L 4077 1190 
L 4077 768 
z
" id="STIXGeneral-Regular-3d" transform="scale(0.015625)"/>
       <path d="M 1158 275 
Q 1158 134 1052 32 
Q 947 -70 800 -70 
Q 653 -70 550 32 
Q 448 134 448 281 
Q 448 429 553 534 
Q 659 640 806 640 
Q 947 640 1052 531 
Q 1158 422 1158 275 
z
" id="STIXGeneral-Regular-2e" transform="scale(0.015625)"/>
      </defs>
      <use transform="translate(0 0.40625)" xlink:href="#STIXGeneral-Regular-45"/>
      <use transform="translate(61.099991 0.40625)" xlink:href="#STIXGeneral-Regular-57"/>
      <use transform="translate(155.499985 0.40625)" xlink:href="#STIXGeneral-Regular-4d"/>
      <use transform="translate(244.399979 0.40625)" xlink:href="#STIXGeneral-Regular-41"/>
      <use transform="translate(316.59996 0.40625)" xlink:href="#STIXGeneral-Regular-20"/>
      <use transform="translate(341.599945 0.40625)" xlink:href="#STIXGeneral-Regular-28"/>
      <use transform="translate(374.899933 0.40625)" xlink:href="#STIXGeneral-Italic-3b1"/>
      <use transform="translate(444.539926 0.40625)" xlink:href="#STIXGeneral-Regular-3d"/>
      <use transform="translate(527.479907 0.40625)" xlink:href="#STIXGeneral-Regular-30"/>
      <use transform="translate(577.479892 0.40625)" xlink:href="#STIXGeneral-Regular-2e"/>
      <use transform="translate(602.479877 0.40625)" xlink:href="#STIXGeneral-Regular-30"/>
      <use transform="translate(652.479861 0.40625)" xlink:href="#STIXGeneral-Regular-33"/>
      <use transform="translate(702.479846 0.40625)" xlink:href="#STIXGeneral-Regular-29"/>
     </g>
    </g>
    <g id="line2d_30">
     <path d="M 47.04875 61.318125 
L 67.04875 61.318125 
" style="fill:none;stroke:#fdb462;stroke-dasharray:12.8,3.2,2,3.2;stroke-dashoffset:0;stroke-width:2;"/>
    </g>
    <g id="line2d_31"/>
    <g id="text_25">
     <!-- 28D MA -->
     <g style="fill:#323034;" transform="translate(75.04875 64.818125)scale(0.1 -0.1)">
      <use xlink:href="#STIXGeneral-Regular-32"/>
      <use x="49.999985" xlink:href="#STIXGeneral-Regular-38"/>
      <use x="99.999969" xlink:href="#STIXGeneral-Regular-44"/>
      <use x="172.199951" xlink:href="#STIXGeneral-Regular-20"/>
      <use x="197.199936" xlink:href="#STIXGeneral-Regular-4d"/>
      <use x="286.09993" xlink:href="#STIXGeneral-Regular-41"/>
     </g>
    </g>
   </g>
  </g>
 </g>
 <defs>
  <clipPath id="pb0e7906f45">
   <rect height="195.84" width="334.8" x="40.04875" y="11.297812"/>
  </clipPath>
 </defs>
</svg>
