<?xml version="1.0" encoding="utf-8" standalone="no"?>
<!DOCTYPE svg PUBLIC "-//W3C//DTD SVG 1.1//EN"
  "http://www.w3.org/Graphics/SVG/1.1/DTD/svg11.dtd">
<svg height="266.5675pt" version="1.1" viewBox="0 0 385.48 266.5675" width="385.48pt" xmlns="http://www.w3.org/2000/svg" xmlns:xlink="http://www.w3.org/1999/xlink">
 <metadata>
  <rdf:RDF xmlns:cc="http://creativecommons.org/ns#" xmlns:dc="http://purl.org/dc/elements/1.1/" xmlns:rdf="http://www.w3.org/1999/02/22-rdf-syntax-ns#">
   <cc:Work>
    <dc:type rdf:resource="http://purl.org/dc/dcmitype/StillImage"/>
    <dc:date>2022-08-20T18:04:33.545844</dc:date>
    <dc:format>image/svg+xml</dc:format>
    <dc:creator>
     <cc:Agent>
      <dc:title>Matplotlib v3.4.3, https://matplotlib.org/</dc:title>
     </cc:Agent>
    </dc:creator>
   </cc:Work>
  </rdf:RDF>
 </metadata>
 <defs>
  <style type="text/css">*{stroke-linecap:butt;stroke-linejoin:round;}</style>
 </defs>
 <g id="figure_1">
  <g id="patch_1">
   <path d="M 0 266.5675 
L 385.48 266.5675 
L 385.48 0 
L 0 0 
z
" style="fill:none;"/>
  </g>
  <g id="axes_1">
   <g id="patch_2">
    <path d="M 34.48 241.5675 
L 369.28 241.5675 
L 369.28 24.1275 
L 34.48 24.1275 
z
" style="fill:#ffffff;"/>
   </g>
   <g id="patch_3">
    <path clip-path="url(#p87a8c01675)" d="M 90.28 241.5675 
L 90.28 24.1275 
L 132.13 24.1275 
L 132.13 241.5675 
z
" style="fill:#ff0000;opacity:0.2;stroke:#000000;stroke-linejoin:miter;stroke-width:0.8;"/>
   </g>
   <g id="patch_4">
    <path clip-path="url(#p87a8c01675)" d="M 132.13 241.5675 
L 132.13 24.1275 
L 179.56 24.1275 
L 179.56 241.5675 
z
" style="fill:#0000ff;opacity:0.2;stroke:#000000;stroke-linejoin:miter;stroke-width:0.8;"/>
   </g>
   <g id="patch_5">
    <path clip-path="url(#p87a8c01675)" d="M 179.56 241.5675 
L 179.56 24.1275 
L 221.41 24.1275 
L 221.41 241.5675 
z
" style="fill:#ff0000;opacity:0.2;stroke:#000000;stroke-linejoin:miter;stroke-width:0.8;"/>
   </g>
   <g id="patch_6">
    <path clip-path="url(#p87a8c01675)" d="M 221.41 241.5675 
L 221.41 24.1275 
L 312.922 24.1275 
L 312.922 241.5675 
z
" style="fill:#0000ff;opacity:0.2;stroke:#000000;stroke-linejoin:miter;stroke-width:0.8;"/>
   </g>
   <g id="matplotlib.axis_1">
    <g id="xtick_1">
     <g id="line2d_1">
      <defs>
       <path d="M 0 0 
L 0 3.5 
" id="mfa1b2ef29d" style="stroke:#323034;stroke-width:0.8;"/>
      </defs>
      <g>
       <use style="fill:#323034;stroke:#323034;stroke-width:0.8;" x="34.48" xlink:href="#mfa1b2ef29d" y="241.5675"/>
      </g>
     </g>
     <g id="text_1">
      <!-- $\mathdefault{−100}$ -->
      <g style="fill:#323034;" transform="translate(21.34 256.763125)scale(0.12 -0.12)">
       <defs>
        <path d="M 3974 1408 
L 410 1408 
L 410 1830 
L 3974 1830 
L 3974 1408 
z
" id="STIXGeneral-Regular-2212" transform="scale(0.015625)"/>
        <path d="M 2522 0 
L 755 0 
L 755 96 
Q 1107 115 1235 227 
Q 1363 339 1363 608 
L 1363 3482 
Q 1363 3795 1171 3795 
Q 1082 3795 883 3718 
L 710 3654 
L 710 3744 
L 1856 4326 
L 1914 4307 
L 1914 486 
Q 1914 275 2042 185 
Q 2170 96 2522 96 
L 2522 0 
z
" id="STIXGeneral-Regular-31" transform="scale(0.015625)"/>
        <path d="M 3046 2112 
Q 3046 1683 2963 1302 
Q 2880 922 2717 602 
Q 2554 282 2266 96 
Q 1978 -90 1600 -90 
Q 1210 -90 915 108 
Q 621 307 461 640 
Q 301 973 227 1350 
Q 154 1728 154 2150 
Q 154 2746 301 3222 
Q 448 3699 790 4012 
Q 1133 4326 1626 4326 
Q 2253 4326 2649 3712 
Q 3046 3098 3046 2112 
z
M 2432 2080 
Q 2432 3091 2217 3625 
Q 2003 4160 1587 4160 
Q 1190 4160 979 3622 
Q 768 3085 768 2106 
Q 768 1120 979 598 
Q 1190 77 1600 77 
Q 2003 77 2217 598 
Q 2432 1120 2432 2080 
z
" id="STIXGeneral-Regular-30" transform="scale(0.015625)"/>
       </defs>
       <use transform="translate(0 0.40625)" xlink:href="#STIXGeneral-Regular-2212"/>
       <use transform="translate(68.499985 0.40625)" xlink:href="#STIXGeneral-Regular-31"/>
       <use transform="translate(118.499969 0.40625)" xlink:href="#STIXGeneral-Regular-30"/>
       <use transform="translate(168.499954 0.40625)" xlink:href="#STIXGeneral-Regular-30"/>
      </g>
     </g>
    </g>
    <g id="xtick_2">
     <g id="line2d_2">
      <g>
       <use style="fill:#323034;stroke:#323034;stroke-width:0.8;" x="90.28" xlink:href="#mfa1b2ef29d" y="241.5675"/>
      </g>
     </g>
     <g id="text_2">
      <!-- $\mathdefault{0}$ -->
      <g style="fill:#323034;" transform="translate(87.28 256.763125)scale(0.12 -0.12)">
       <use transform="translate(0 0.40625)" xlink:href="#STIXGeneral-Regular-30"/>
      </g>
     </g>
    </g>
    <g id="xtick_3">
     <g id="line2d_3">
      <g>
       <use style="fill:#323034;stroke:#323034;stroke-width:0.8;" x="146.08" xlink:href="#mfa1b2ef29d" y="241.5675"/>
      </g>
     </g>
     <g id="text_3">
      <!-- $\mathdefault{100}$ -->
      <g style="fill:#323034;" transform="translate(137.08 256.763125)scale(0.12 -0.12)">
       <use transform="translate(0 0.40625)" xlink:href="#STIXGeneral-Regular-31"/>
       <use transform="translate(49.999985 0.40625)" xlink:href="#STIXGeneral-Regular-30"/>
       <use transform="translate(99.999969 0.40625)" xlink:href="#STIXGeneral-Regular-30"/>
      </g>
     </g>
    </g>
    <g id="xtick_4">
     <g id="line2d_4">
      <g>
       <use style="fill:#323034;stroke:#323034;stroke-width:0.8;" x="201.88" xlink:href="#mfa1b2ef29d" y="241.5675"/>
      </g>
     </g>
     <g id="text_4">
      <!-- $\mathdefault{200}$ -->
      <g style="fill:#323034;" transform="translate(192.88 256.763125)scale(0.12 -0.12)">
       <defs>
        <path d="M 3034 877 
L 2688 0 
L 186 0 
L 186 77 
L 1325 1286 
Q 1773 1754 1965 2144 
Q 2157 2534 2157 2950 
Q 2157 3379 1920 3616 
Q 1683 3853 1267 3853 
Q 922 3853 720 3673 
Q 518 3494 326 3021 
L 192 3053 
Q 301 3648 630 3987 
Q 960 4326 1523 4326 
Q 2054 4326 2380 4006 
Q 2707 3686 2707 3200 
Q 2707 2477 1888 1613 
L 832 486 
L 2330 486 
Q 2541 486 2665 569 
Q 2790 653 2944 915 
L 3034 877 
z
" id="STIXGeneral-Regular-32" transform="scale(0.015625)"/>
       </defs>
       <use transform="translate(0 0.40625)" xlink:href="#STIXGeneral-Regular-32"/>
       <use transform="translate(49.999985 0.40625)" xlink:href="#STIXGeneral-Regular-30"/>
       <use transform="translate(99.999969 0.40625)" xlink:href="#STIXGeneral-Regular-30"/>
      </g>
     </g>
    </g>
    <g id="xtick_5">
     <g id="line2d_5">
      <g>
       <use style="fill:#323034;stroke:#323034;stroke-width:0.8;" x="257.68" xlink:href="#mfa1b2ef29d" y="241.5675"/>
      </g>
     </g>
     <g id="text_5">
      <!-- $\mathdefault{300}$ -->
      <g style="fill:#323034;" transform="translate(248.68 256.763125)scale(0.12 -0.12)">
       <defs>
        <path d="M 390 3264 
L 288 3290 
Q 435 3770 748 4048 
Q 1062 4326 1542 4326 
Q 1990 4326 2265 4083 
Q 2541 3840 2541 3450 
Q 2541 2925 1946 2566 
Q 2298 2413 2477 2227 
Q 2758 1914 2758 1402 
Q 2758 890 2464 506 
Q 2246 211 1840 60 
Q 1434 -90 979 -90 
Q 262 -90 262 275 
Q 262 378 339 442 
Q 416 506 525 506 
Q 685 506 915 339 
Q 1197 141 1466 141 
Q 1818 141 2058 425 
Q 2298 710 2298 1120 
Q 2298 1856 1632 2048 
Q 1434 2112 979 2112 
L 979 2202 
Q 1338 2323 1517 2432 
Q 2035 2726 2035 3290 
Q 2035 3610 1852 3776 
Q 1670 3942 1344 3942 
Q 768 3942 390 3264 
z
" id="STIXGeneral-Regular-33" transform="scale(0.015625)"/>
       </defs>
       <use transform="translate(0 0.40625)" xlink:href="#STIXGeneral-Regular-33"/>
       <use transform="translate(49.999985 0.40625)" xlink:href="#STIXGeneral-Regular-30"/>
       <use transform="translate(99.999969 0.40625)" xlink:href="#STIXGeneral-Regular-30"/>
      </g>
     </g>
    </g>
    <g id="xtick_6">
     <g id="line2d_6">
      <g>
       <use style="fill:#323034;stroke:#323034;stroke-width:0.8;" x="313.48" xlink:href="#mfa1b2ef29d" y="241.5675"/>
      </g>
     </g>
     <g id="text_6">
      <!-- $\mathdefault{400}$ -->
      <g style="fill:#323034;" transform="translate(304.48 256.763125)scale(0.12 -0.12)">
       <defs>
        <path d="M 3027 1069 
L 2368 1069 
L 2368 0 
L 1869 0 
L 1869 1069 
L 77 1069 
L 77 1478 
L 2086 4326 
L 2368 4326 
L 2368 1478 
L 3027 1478 
L 3027 1069 
z
M 1869 1478 
L 1869 3674 
L 333 1478 
L 1869 1478 
z
" id="STIXGeneral-Regular-34" transform="scale(0.015625)"/>
       </defs>
       <use transform="translate(0 0.40625)" xlink:href="#STIXGeneral-Regular-34"/>
       <use transform="translate(49.999985 0.40625)" xlink:href="#STIXGeneral-Regular-30"/>
       <use transform="translate(99.999969 0.40625)" xlink:href="#STIXGeneral-Regular-30"/>
      </g>
     </g>
    </g>
    <g id="xtick_7">
     <g id="line2d_7">
      <g>
       <use style="fill:#323034;stroke:#323034;stroke-width:0.8;" x="369.28" xlink:href="#mfa1b2ef29d" y="241.5675"/>
      </g>
     </g>
     <g id="text_7">
      <!-- $\mathdefault{500}$ -->
      <g style="fill:#323034;" transform="translate(360.28 256.763125)scale(0.12 -0.12)">
       <defs>
        <path d="M 2803 4358 
L 2573 3814 
Q 2534 3731 2400 3731 
L 1158 3731 
L 902 3187 
Q 1606 3053 1920 2896 
Q 2234 2739 2502 2368 
Q 2726 2061 2726 1555 
Q 2726 1094 2576 780 
Q 2426 467 2099 224 
Q 1664 -90 1011 -90 
Q 646 -90 422 19 
Q 198 128 198 307 
Q 198 550 486 550 
Q 717 550 960 352 
Q 1210 147 1414 147 
Q 1747 147 2012 480 
Q 2278 813 2278 1229 
Q 2278 1843 1850 2189 
Q 1293 2637 486 2637 
Q 410 2637 410 2688 
L 416 2720 
L 1114 4237 
L 2438 4237 
Q 2547 4237 2608 4269 
Q 2669 4301 2746 4403 
L 2803 4358 
z
" id="STIXGeneral-Regular-35" transform="scale(0.015625)"/>
       </defs>
       <use transform="translate(0 0.203125)" xlink:href="#STIXGeneral-Regular-35"/>
       <use transform="translate(49.999985 0.203125)" xlink:href="#STIXGeneral-Regular-30"/>
       <use transform="translate(99.999969 0.203125)" xlink:href="#STIXGeneral-Regular-30"/>
      </g>
     </g>
    </g>
   </g>
   <g id="matplotlib.axis_2">
    <g id="ytick_1">
     <g id="line2d_8">
      <defs>
       <path d="M 0 0 
L -3.5 0 
" id="mcf570018a0" style="stroke:#323034;stroke-width:0.8;"/>
      </defs>
      <g>
       <use style="fill:#323034;stroke:#323034;stroke-width:0.8;" x="34.48" xlink:href="#mcf570018a0" y="241.5675"/>
      </g>
     </g>
     <g id="text_8">
      <!-- $\mathdefault{−25}$ -->
      <g style="fill:#323034;" transform="translate(7.2 245.665312)scale(0.12 -0.12)">
       <use transform="translate(0 0.203125)" xlink:href="#STIXGeneral-Regular-2212"/>
       <use transform="translate(68.499985 0.203125)" xlink:href="#STIXGeneral-Regular-32"/>
       <use transform="translate(118.499969 0.203125)" xlink:href="#STIXGeneral-Regular-35"/>
      </g>
     </g>
    </g>
    <g id="ytick_2">
     <g id="line2d_9">
      <g>
       <use style="fill:#323034;stroke:#323034;stroke-width:0.8;" x="34.48" xlink:href="#mcf570018a0" y="210.504643"/>
      </g>
     </g>
     <g id="text_9">
      <!-- $\mathdefault{−20}$ -->
      <g style="fill:#323034;" transform="translate(7.2 214.602455)scale(0.12 -0.12)">
       <use transform="translate(0 0.40625)" xlink:href="#STIXGeneral-Regular-2212"/>
       <use transform="translate(68.499985 0.40625)" xlink:href="#STIXGeneral-Regular-32"/>
       <use transform="translate(118.499969 0.40625)" xlink:href="#STIXGeneral-Regular-30"/>
      </g>
     </g>
    </g>
    <g id="ytick_3">
     <g id="line2d_10">
      <g>
       <use style="fill:#323034;stroke:#323034;stroke-width:0.8;" x="34.48" xlink:href="#mcf570018a0" y="179.441786"/>
      </g>
     </g>
     <g id="text_10">
      <!-- $\mathdefault{−15}$ -->
      <g style="fill:#323034;" transform="translate(7.2 183.539598)scale(0.12 -0.12)">
       <use transform="translate(0 0.203125)" xlink:href="#STIXGeneral-Regular-2212"/>
       <use transform="translate(68.499985 0.203125)" xlink:href="#STIXGeneral-Regular-31"/>
       <use transform="translate(118.499969 0.203125)" xlink:href="#STIXGeneral-Regular-35"/>
      </g>
     </g>
    </g>
    <g id="ytick_4">
     <g id="line2d_11">
      <g>
       <use style="fill:#323034;stroke:#323034;stroke-width:0.8;" x="34.48" xlink:href="#mcf570018a0" y="148.378929"/>
      </g>
     </g>
     <g id="text_11">
      <!-- $\mathdefault{−10}$ -->
      <g style="fill:#323034;" transform="translate(7.2 152.476741)scale(0.12 -0.12)">
       <use transform="translate(0 0.40625)" xlink:href="#STIXGeneral-Regular-2212"/>
       <use transform="translate(68.499985 0.40625)" xlink:href="#STIXGeneral-Regular-31"/>
       <use transform="translate(118.499969 0.40625)" xlink:href="#STIXGeneral-Regular-30"/>
      </g>
     </g>
    </g>
    <g id="ytick_5">
     <g id="line2d_12">
      <g>
       <use style="fill:#323034;stroke:#323034;stroke-width:0.8;" x="34.48" xlink:href="#mcf570018a0" y="117.316071"/>
      </g>
     </g>
     <g id="text_12">
      <!-- $\mathdefault{−5}$ -->
      <g style="fill:#323034;" transform="translate(13.2 121.413884)scale(0.12 -0.12)">
       <use transform="translate(0 0.203125)" xlink:href="#STIXGeneral-Regular-2212"/>
       <use transform="translate(68.499985 0.203125)" xlink:href="#STIXGeneral-Regular-35"/>
      </g>
     </g>
    </g>
    <g id="ytick_6">
     <g id="line2d_13">
      <g>
       <use style="fill:#323034;stroke:#323034;stroke-width:0.8;" x="34.48" xlink:href="#mcf570018a0" y="86.253214"/>
      </g>
     </g>
     <g id="text_13">
      <!-- $\mathdefault{0}$ -->
      <g style="fill:#323034;" transform="translate(21.48 90.351027)scale(0.12 -0.12)">
       <use transform="translate(0 0.40625)" xlink:href="#STIXGeneral-Regular-30"/>
      </g>
     </g>
    </g>
    <g id="ytick_7">
     <g id="line2d_14">
      <g>
       <use style="fill:#323034;stroke:#323034;stroke-width:0.8;" x="34.48" xlink:href="#mcf570018a0" y="55.190357"/>
      </g>
     </g>
     <g id="text_14">
      <!-- $\mathdefault{5}$ -->
      <g style="fill:#323034;" transform="translate(21.48 59.28817)scale(0.12 -0.12)">
       <use transform="translate(0 0.203125)" xlink:href="#STIXGeneral-Regular-35"/>
      </g>
     </g>
    </g>
    <g id="ytick_8">
     <g id="line2d_15">
      <g>
       <use style="fill:#323034;stroke:#323034;stroke-width:0.8;" x="34.48" xlink:href="#mcf570018a0" y="24.1275"/>
      </g>
     </g>
     <g id="text_15">
      <!-- $\mathdefault{10}$ -->
      <g style="fill:#323034;" transform="translate(15.48 28.225313)scale(0.12 -0.12)">
       <use transform="translate(0 0.40625)" xlink:href="#STIXGeneral-Regular-31"/>
       <use transform="translate(49.999985 0.40625)" xlink:href="#STIXGeneral-Regular-30"/>
      </g>
     </g>
    </g>
   </g>
   <g id="line2d_16">
    <path clip-path="url(#p87a8c01675)" d="M 90.28 241.5675 
L 90.28 24.1275 
" style="fill:none;stroke:#bc80bd;stroke-dasharray:2,3.3;stroke-dashoffset:0;stroke-width:2;"/>
   </g>
   <g id="line2d_17">
    <path clip-path="url(#p87a8c01675)" d="M 132.13 241.5675 
L 132.13 24.1275 
" style="fill:none;stroke:#bc80bd;stroke-dasharray:2,3.3;stroke-dashoffset:0;stroke-width:2;"/>
   </g>
   <g id="line2d_18">
    <path clip-path="url(#p87a8c01675)" d="M 179.56 241.5675 
L 179.56 24.1275 
" style="fill:none;stroke:#bc80bd;stroke-dasharray:2,3.3;stroke-dashoffset:0;stroke-width:2;"/>
   </g>
   <g id="line2d_19">
    <path clip-path="url(#p87a8c01675)" d="M 221.41 241.5675 
L 221.41 24.1275 
" style="fill:none;stroke:#bc80bd;stroke-dasharray:2,3.3;stroke-dashoffset:0;stroke-width:2;"/>
   </g>
   <g id="line2d_20">
    <path clip-path="url(#p87a8c01675)" d="M 90.28 147.717375 
L 90.838 132.935746 
L 91.396 106.734729 
L 91.954 124.988862 
L 92.512 99.788156 
L 93.07 126.420323 
L 93.628 122.19017 
L 94.186 116.45961 
L 94.744 74.192203 
L 95.302 80.185254 
L 95.86 103.754265 
L 96.418 108.324684 
L 96.976 129.031961 
L 97.534 83.92821 
L 98.092 135.718479 
L 98.65 101.296411 
L 99.208 41.509033 
L 99.766 89.158736 
L 100.324 85.826926 
L 100.882 60.531899 
L 101.44 77.676516 
L 101.998 119.795773 
L 102.556 76.789092 
L 103.114 140.968211 
L 103.672 104.165973 
L 104.23 129.24048 
L 104.788 89.74956 
L 105.346 118.269782 
L 105.904 72.429506 
L 106.462 82.521843 
L 107.02 61.853238 
L 107.578 86.386247 
L 108.136 137.818993 
L 108.694 76.487946 
L 109.252 105.88849 
L 109.81 83.182052 
L 110.368 98.800037 
L 110.926 92.443165 
L 111.484 68.346754 
L 112.042 68.140742 
L 112.6 111.869594 
L 113.158 85.605029 
L 113.716 126.591243 
L 114.274 121.065433 
L 114.832 141.186171 
L 115.39 91.246514 
L 115.948 86.875861 
L 116.506 65.810828 
L 117.622 124.437418 
L 118.18 96.804009 
L 118.738 102.772475 
L 119.296 111.503384 
L 119.854 105.503745 
L 120.412 73.247362 
L 120.97 87.432405 
L 121.528 112.916925 
L 122.086 130.65116 
L 122.644 58.274761 
L 123.202 95.475512 
L 123.76 80.624309 
L 124.318 99.820911 
L 124.876 115.032829 
L 125.434 68.647098 
L 125.992 128.433026 
L 126.55 75.168913 
L 127.108 60.148039 
L 127.666 123.274063 
L 128.782 170.926622 
L 129.898 61.068334 
L 130.456 82.096889 
L 131.014 118.024943 
L 131.572 130.504473 
L 132.13 148.450098 
L 132.688 130.781969 
L 133.246 142.561287 
L 133.804 174.434434 
L 134.362 131.213411 
L 134.92 204.13941 
L 136.036 135.086773 
L 136.594 128.809093 
L 137.152 167.855902 
L 137.71 105.570606 
L 138.268 164.858874 
L 138.826 177.829076 
L 139.384 140.692603 
L 139.942 121.373332 
L 140.5 181.575054 
L 141.058 134.120339 
L 141.616 171.323535 
L 142.174 146.857776 
L 142.732 157.048783 
L 143.29 172.308897 
L 143.848 175.852845 
L 144.406 135.879305 
L 145.522 163.995285 
L 146.08 161.846755 
L 146.638 127.140999 
L 147.196 169.961243 
L 147.754 154.779324 
L 148.312 148.479139 
L 148.87 100.189365 
L 149.986 168.98828 
L 150.544 151.784249 
L 151.102 186.248288 
L 151.66 151.009999 
L 152.218 164.976118 
L 152.776 132.845126 
L 153.334 159.123694 
L 153.892 177.692288 
L 154.45 163.058108 
L 155.008 188.200655 
L 155.566 208.310627 
L 156.124 190.216355 
L 156.682 152.574911 
L 157.24 154.914052 
L 157.798 145.635802 
L 158.356 158.200432 
L 158.914 194.463414 
L 159.472 186.24992 
L 160.03 187.722366 
L 160.588 164.507538 
L 161.146 172.683718 
L 161.704 153.47851 
L 162.262 185.023704 
L 162.82 125.192269 
L 163.378 156.05193 
L 163.936 90.887157 
L 164.494 136.744748 
L 165.052 206.126341 
L 165.61 182.161297 
L 166.168 144.066013 
L 166.726 139.549653 
L 167.284 142.397861 
L 167.842 121.95357 
L 168.4 177.40311 
L 168.958 177.785363 
L 169.516 165.739945 
L 170.074 146.488332 
L 170.632 163.168203 
L 171.19 173.37065 
L 171.748 122.590502 
L 172.306 111.983654 
L 172.864 174.336146 
L 173.422 95.399746 
L 173.98 160.899235 
L 174.538 148.271231 
L 175.096 176.104625 
L 175.654 160.759165 
L 176.212 187.841248 
L 176.77 146.506365 
L 177.328 159.232598 
L 177.886 134.471344 
L 179.002 156.909182 
L 179.56 72.79177 
L 180.676 148.11769 
L 181.234 118.552198 
L 181.792 97.917621 
L 182.35 132.663878 
L 182.908 119.660724 
L 183.466 59.671901 
L 184.024 104.473733 
L 184.582 95.576515 
L 185.14 126.528235 
L 185.698 80.210749 
L 186.256 146.18611 
L 186.814 111.520308 
L 187.372 110.858992 
L 187.93 102.36598 
L 188.488 72.592791 
L 189.046 74.984246 
L 189.604 135.001137 
L 190.162 100.327126 
L 190.72 90.959869 
L 191.278 92.150974 
L 191.836 70.813134 
L 192.394 156.175821 
L 192.952 88.576999 
L 193.51 122.069953 
L 194.068 115.328993 
L 194.626 94.148077 
L 195.184 151.024387 
L 195.742 131.366846 
L 196.3 78.248078 
L 196.858 78.772758 
L 197.416 121.793208 
L 197.974 129.748854 
L 198.532 89.088576 
L 199.09 97.709497 
L 199.648 87.554467 
L 200.206 128.323149 
L 200.764 65.70185 
L 201.322 113.63258 
L 201.88 131.915514 
L 202.438 118.805228 
L 202.996 129.862657 
L 203.554 138.370963 
L 204.112 91.551012 
L 204.67 91.184754 
L 205.228 136.123492 
L 205.786 97.366508 
L 206.902 139.778415 
L 207.46 140.939246 
L 208.018 101.462023 
L 208.576 159.462125 
L 209.134 135.151893 
L 209.692 127.404403 
L 210.25 89.896948 
L 210.808 139.674054 
L 211.366 129.296914 
L 211.924 128.005085 
L 212.482 143.428545 
L 213.04 110.871959 
L 213.598 100.698322 
L 214.156 64.552885 
L 214.714 107.532404 
L 215.272 133.487964 
L 215.83 132.033624 
L 216.388 93.730001 
L 216.946 124.236277 
L 217.504 94.130625 
L 218.062 113.716215 
L 218.62 73.26281 
L 219.178 88.232421 
L 219.736 86.262542 
L 220.294 76.682287 
L 220.852 119.99127 
L 221.41 143.802794 
L 221.968 138.995836 
L 222.526 136.774195 
L 223.084 141.69223 
L 223.642 154.140618 
L 224.2 204.170832 
L 224.758 124.436245 
L 225.316 182.671121 
L 225.874 182.059587 
L 226.432 144.343873 
L 226.99 137.208038 
L 228.106 180.220929 
L 228.664 176.278169 
L 229.222 188.328459 
L 229.78 146.479756 
L 230.338 200.884325 
L 230.896 156.298092 
L 231.454 157.902121 
L 232.012 117.143894 
L 232.57 201.148616 
L 233.128 217.917444 
L 233.686 141.833348 
L 234.244 117.337788 
L 234.802 159.342159 
L 235.36 161.963014 
L 236.476 204.188498 
L 237.034 213.089031 
L 237.592 156.822521 
L 238.15 184.574818 
L 238.708 168.888723 
L 239.266 123.006061 
L 239.824 120.721245 
L 240.382 154.228079 
L 240.94 140.027883 
L 241.498 131.590058 
L 242.056 152.038622 
L 242.614 143.003845 
L 243.172 146.61729 
L 243.73 196.791858 
L 244.288 167.520606 
L 244.846 167.47577 
L 245.404 156.753585 
L 245.962 167.17915 
L 246.52 152.548319 
L 247.078 200.475837 
L 247.636 187.831499 
L 248.194 150.547323 
L 248.752 152.638264 
L 249.31 165.313555 
L 249.868 160.894299 
L 250.426 172.940914 
L 250.984 193.102625 
L 251.542 217.322112 
L 252.1 163.652682 
L 252.658 146.863546 
L 253.216 166.272206 
L 253.774 160.706347 
L 254.332 158.582163 
L 254.89 131.293701 
L 255.448 191.624106 
L 256.006 143.939002 
L 256.564 176.371627 
L 257.122 123.711578 
L 257.68 154.409832 
L 258.238 128.850452 
L 259.354 163.064033 
L 259.912 132.372736 
L 260.47 223.884656 
L 261.028 198.244797 
L 261.586 181.355232 
L 262.144 127.604844 
L 262.702 211.42416 
L 263.26 144.610786 
L 263.818 171.85683 
L 264.376 154.894311 
L 264.934 194.407356 
L 265.492 146.697142 
L 266.05 88.473714 
L 266.608 188.146445 
L 267.166 220.975352 
L 267.724 140.354993 
L 268.282 177.237303 
L 268.84 155.403289 
L 269.398 81.040098 
L 269.956 140.383502 
L 270.514 156.764636 
L 271.072 149.772429 
L 271.63 182.50538 
L 272.188 106.713286 
L 272.746 159.120818 
L 273.304 168.451849 
L 273.862 161.160505 
L 274.42 120.020269 
L 274.978 126.068993 
L 275.536 133.444162 
L 276.094 190.811904 
L 276.652 183.776883 
L 277.21 182.39404 
L 277.768 139.528581 
L 278.326 121.595634 
L 278.884 131.56827 
L 279.442 134.214214 
L 280 137.876859 
L 280.558 149.037784 
L 281.116 171.002433 
L 281.674 150.215912 
L 282.232 189.653862 
L 282.79 148.287129 
L 283.348 117.309342 
L 283.906 181.644359 
L 285.022 132.726808 
L 285.58 153.62893 
L 286.138 135.415125 
L 286.696 216.574065 
L 287.254 109.236454 
L 287.812 158.948212 
L 288.37 123.414404 
L 288.928 186.216201 
L 289.486 119.044912 
L 290.044 185.895102 
L 290.602 158.621862 
L 291.16 82.418444 
L 291.718 141.008988 
L 292.276 166.697829 
L 292.834 163.033474 
L 293.392 120.013184 
L 293.95 221.907754 
L 294.508 148.700911 
L 295.066 148.615214 
L 295.624 163.386468 
L 296.182 157.606257 
L 296.74 158.569045 
L 297.298 132.25371 
L 297.856 140.577108 
L 298.414 89.323935 
L 298.972 92.685961 
L 299.53 150.191011 
L 300.088 160.738756 
L 300.646 119.862871 
L 301.204 151.348282 
L 301.762 173.839069 
L 302.878 137.303617 
L 303.436 147.224167 
L 303.994 118.990798 
L 304.552 97.465438 
L 305.11 122.846592 
L 305.668 134.796934 
L 306.226 173.706324 
L 306.784 112.236457 
L 307.342 152.13123 
L 307.9 164.766926 
L 308.458 149.682074 
L 309.016 129.079203 
L 309.574 139.460093 
L 310.132 135.458613 
L 310.69 125.899988 
L 311.248 123.976175 
L 311.806 118.953533 
L 312.364 140.664497 
L 312.922 135.809977 
L 312.922 135.809977 
" style="fill:none;stroke:#000000;stroke-linecap:square;stroke-width:0.5;"/>
   </g>
   <g id="patch_7">
    <path d="M 34.48 241.5675 
L 34.48 24.1275 
" style="fill:none;stroke:#000000;stroke-linecap:square;stroke-linejoin:miter;stroke-width:0.6;"/>
   </g>
   <g id="patch_8">
    <path d="M 34.48 241.5675 
L 369.28 241.5675 
" style="fill:none;stroke:#000000;stroke-linecap:square;stroke-linejoin:miter;stroke-width:0.6;"/>
   </g>
   <g id="text_16">
    <!-- synthetic data (changepoint detection) -->
    <g style="fill:#323034;" transform="translate(34.48 18.1275)scale(0.16 -0.16)">
     <defs>
      <path d="M 998 1926 
L 1664 1523 
Q 1984 1331 2105 1164 
Q 2227 998 2227 736 
Q 2227 416 1961 176 
Q 1696 -64 1331 -64 
Q 1030 -64 864 -6 
Q 691 51 570 51 
Q 461 51 416 -26 
L 333 -26 
L 333 979 
L 435 979 
Q 538 512 730 294 
Q 922 77 1248 77 
Q 1485 77 1632 211 
Q 1779 346 1779 550 
Q 1779 845 1440 1030 
L 1094 1222 
Q 326 1651 326 2150 
Q 326 2522 566 2730 
Q 806 2938 1210 2938 
Q 1491 2938 1638 2867 
Q 1754 2816 1818 2816 
Q 1862 2816 1920 2880 
L 1990 2880 
L 2022 2010 
L 1926 2010 
Q 1818 2445 1654 2621 
Q 1491 2797 1203 2797 
Q 986 2797 854 2688 
Q 723 2579 723 2362 
Q 723 2253 796 2128 
Q 870 2003 998 1926 
z
" id="STIXGeneral-Regular-73" transform="scale(0.015625)"/>
      <path d="M 3040 2880 
L 3040 2784 
Q 2925 2771 2854 2700 
Q 2784 2630 2720 2458 
L 1760 -160 
Q 1510 -838 1257 -1116 
Q 1005 -1395 640 -1395 
Q 435 -1395 313 -1289 
Q 192 -1184 192 -1024 
Q 192 -902 272 -816 
Q 352 -730 467 -730 
Q 653 -730 800 -813 
Q 883 -858 966 -858 
Q 1101 -858 1286 -576 
Q 1376 -448 1459 -211 
Q 1542 26 1542 115 
Q 1542 198 1274 762 
L 429 2566 
Q 346 2752 90 2790 
L 90 2880 
L 1402 2880 
L 1402 2784 
Q 1197 2778 1117 2739 
Q 1037 2701 1037 2611 
Q 1037 2541 1120 2349 
L 1837 749 
L 2458 2515 
Q 2483 2573 2483 2630 
Q 2483 2784 2189 2784 
L 2189 2880 
L 3040 2880 
z
" id="STIXGeneral-Regular-79" transform="scale(0.015625)"/>
      <path d="M 3104 0 
L 1773 0 
L 1779 96 
Q 2016 115 2096 233 
Q 2176 352 2176 672 
L 2176 1946 
Q 2176 2592 1709 2592 
Q 1549 2592 1408 2515 
Q 1267 2438 1050 2227 
L 1050 461 
Q 1050 269 1136 192 
Q 1222 115 1466 96 
L 1466 0 
L 115 0 
L 115 96 
Q 358 115 435 214 
Q 512 314 512 602 
L 512 2157 
Q 512 2394 467 2483 
Q 422 2573 288 2573 
Q 160 2573 102 2547 
L 102 2656 
Q 550 2784 979 2944 
L 1030 2925 
L 1030 2426 
L 1037 2426 
Q 1491 2944 1958 2944 
Q 2323 2944 2518 2688 
Q 2714 2432 2714 1958 
L 2714 544 
Q 2714 288 2790 205 
Q 2867 122 3104 96 
L 3104 0 
z
" id="STIXGeneral-Regular-6e" transform="scale(0.015625)"/>
      <path d="M 1702 493 
L 1786 422 
Q 1478 -64 1011 -64 
Q 448 -64 448 749 
L 448 2675 
L 109 2675 
Q 83 2694 83 2720 
Q 83 2771 192 2842 
Q 435 2982 813 3526 
Q 826 3546 874 3606 
Q 922 3667 941 3706 
Q 986 3706 986 3622 
L 986 2880 
L 1632 2880 
L 1632 2675 
L 986 2675 
L 986 845 
Q 986 538 1062 403 
Q 1139 269 1318 269 
Q 1510 269 1702 493 
z
" id="STIXGeneral-Regular-74" transform="scale(0.015625)"/>
      <path d="M 3117 0 
L 1760 0 
L 1760 96 
Q 2042 128 2118 224 
Q 2195 320 2195 653 
L 2195 1920 
Q 2195 2598 1722 2598 
Q 1530 2598 1370 2508 
Q 1210 2419 1005 2195 
L 1005 653 
Q 1005 320 1081 224 
Q 1158 128 1440 96 
L 1440 0 
L 58 0 
L 58 96 
Q 333 134 400 224 
Q 467 314 467 653 
L 467 3667 
Q 467 3872 406 3933 
Q 346 3994 141 3994 
Q 83 3994 64 3987 
L 64 4090 
L 237 4141 
Q 730 4288 973 4371 
L 1005 4352 
L 1005 2406 
Q 1229 2694 1446 2819 
Q 1664 2944 1946 2944 
Q 2733 2944 2733 1926 
L 2733 653 
Q 2733 320 2793 233 
Q 2854 147 3117 96 
L 3117 0 
z
" id="STIXGeneral-Regular-68" transform="scale(0.015625)"/>
      <path d="M 2611 1050 
L 2714 1005 
Q 2330 -64 1376 -64 
Q 813 -64 486 329 
Q 160 723 160 1389 
Q 160 2074 525 2509 
Q 890 2944 1485 2944 
Q 2061 2944 2374 2502 
Q 2560 2246 2592 1773 
L 621 1773 
Q 646 1370 700 1158 
Q 755 947 915 730 
Q 1184 378 1626 378 
Q 1939 378 2153 531 
Q 2368 685 2611 1050 
z
M 634 1978 
L 1939 1978 
Q 1882 2381 1750 2547 
Q 1619 2714 1312 2714 
Q 1043 2714 864 2525 
Q 685 2336 634 1978 
z
" id="STIXGeneral-Regular-65" transform="scale(0.015625)"/>
      <path d="M 1152 4045 
Q 1152 3904 1056 3811 
Q 960 3718 819 3718 
Q 685 3718 592 3811 
Q 499 3904 499 4045 
Q 499 4179 595 4275 
Q 691 4371 826 4371 
Q 966 4371 1059 4275 
Q 1152 4179 1152 4045 
z
M 1619 0 
L 102 0 
L 102 96 
Q 435 115 521 211 
Q 608 307 608 666 
L 608 2118 
Q 608 2342 563 2432 
Q 518 2522 397 2522 
Q 243 2522 128 2490 
L 128 2592 
L 1120 2944 
L 1146 2918 
L 1146 672 
Q 1146 314 1226 218 
Q 1306 122 1619 96 
L 1619 0 
z
" id="STIXGeneral-Regular-69" transform="scale(0.015625)"/>
      <path d="M 2547 998 
L 2637 941 
Q 2362 403 2112 205 
Q 1786 -64 1376 -64 
Q 845 -64 502 336 
Q 160 736 160 1357 
Q 160 2170 698 2618 
Q 1094 2944 1562 2944 
Q 1965 2944 2256 2749 
Q 2547 2554 2547 2285 
Q 2547 2176 2457 2096 
Q 2368 2016 2246 2016 
Q 2022 2016 1939 2310 
L 1901 2451 
Q 1850 2630 1773 2694 
Q 1696 2758 1523 2758 
Q 1133 2758 893 2451 
Q 653 2144 653 1645 
Q 653 1094 928 745 
Q 1203 397 1645 397 
Q 1920 397 2118 528 
Q 2317 659 2547 998 
z
" id="STIXGeneral-Regular-63" transform="scale(0.015625)"/>
      <path id="STIXGeneral-Regular-20" transform="scale(0.015625)"/>
      <path d="M 3142 269 
L 2202 -64 
L 2176 -45 
L 2176 365 
Q 1869 -64 1357 -64 
Q 826 -64 499 317 
Q 173 698 173 1312 
Q 173 1990 563 2467 
Q 954 2944 1504 2944 
Q 1850 2944 2176 2669 
L 2176 3667 
Q 2176 3866 2118 3930 
Q 2061 3994 1882 3994 
Q 1792 3994 1741 3987 
L 1741 4090 
Q 2323 4243 2682 4371 
L 2714 4358 
L 2714 730 
Q 2714 506 2768 435 
Q 2822 365 2995 365 
Q 3034 365 3142 371 
L 3142 269 
z
M 2176 653 
L 2176 2125 
Q 2176 2381 1981 2573 
Q 1786 2765 1523 2765 
Q 1158 2765 940 2438 
Q 723 2112 723 1568 
Q 723 979 963 624 
Q 1203 269 1606 269 
Q 1907 269 2080 474 
Q 2176 582 2176 653 
z
" id="STIXGeneral-Regular-64" transform="scale(0.015625)"/>
      <path d="M 2829 422 
L 2829 243 
Q 2586 -64 2253 -64 
Q 1888 -64 1843 403 
L 1837 403 
Q 1427 -64 909 -64 
Q 608 -64 422 112 
Q 237 288 237 602 
Q 237 1050 685 1350 
Q 992 1555 1837 1869 
L 1837 2214 
Q 1837 2502 1699 2646 
Q 1562 2790 1338 2790 
Q 1146 2790 1018 2697 
Q 890 2605 890 2477 
Q 890 2419 909 2348 
Q 928 2278 928 2208 
Q 928 2112 841 2029 
Q 755 1946 634 1946 
Q 525 1946 441 2029 
Q 358 2112 358 2240 
Q 358 2547 685 2752 
Q 986 2944 1421 2944 
Q 1939 2944 2176 2656 
Q 2291 2522 2323 2384 
Q 2355 2246 2355 1946 
L 2355 723 
Q 2355 301 2554 301 
Q 2682 301 2829 422 
z
M 1837 813 
L 1837 1715 
Q 1248 1510 1018 1293 
Q 800 1094 800 800 
Q 800 557 921 432 
Q 1043 307 1242 307 
Q 1453 307 1613 410 
Q 1747 506 1792 589 
Q 1837 672 1837 813 
z
" id="STIXGeneral-Regular-61" transform="scale(0.015625)"/>
      <path d="M 1946 -1030 
L 1869 -1133 
Q 1126 -710 716 32 
Q 307 774 307 1613 
Q 307 3386 1888 4326 
L 1946 4224 
Q 1293 3667 1075 3126 
Q 858 2586 858 1632 
Q 858 685 1082 96 
Q 1306 -493 1946 -1030 
z
" id="STIXGeneral-Regular-28" transform="scale(0.015625)"/>
      <path d="M 3008 2483 
L 2477 2483 
Q 2598 2208 2598 1946 
Q 2598 1453 2265 1203 
Q 1933 954 1600 954 
Q 1530 954 1357 973 
L 1235 986 
Q 1107 947 979 812 
Q 851 678 851 582 
Q 851 435 1350 410 
L 2176 371 
Q 2528 358 2739 172 
Q 2950 -13 2950 -314 
Q 2950 -685 2566 -986 
Q 2035 -1395 1286 -1395 
Q 826 -1395 502 -1212 
Q 179 -1030 179 -774 
Q 179 -595 320 -419 
Q 461 -243 806 6 
Q 602 102 534 172 
Q 467 243 467 346 
Q 467 531 762 787 
Q 909 915 1037 1043 
Q 717 1203 579 1401 
Q 442 1600 442 1901 
Q 442 2336 752 2640 
Q 1062 2944 1510 2944 
Q 1766 2944 2022 2848 
L 2163 2797 
Q 2349 2733 2515 2733 
L 3008 2733 
L 3008 2483 
z
M 973 2163 
L 973 2144 
Q 973 1683 1155 1398 
Q 1338 1114 1632 1114 
Q 1850 1114 1978 1270 
Q 2106 1427 2106 1690 
Q 2106 2112 1914 2464 
Q 1754 2765 1446 2765 
Q 1222 2765 1097 2605 
Q 973 2445 973 2163 
z
M 2771 -410 
Q 2771 -230 2595 -163 
Q 2419 -96 1978 -96 
Q 1344 -96 941 -13 
Q 749 -243 688 -348 
Q 627 -454 627 -563 
Q 627 -774 880 -902 
Q 1133 -1030 1555 -1030 
Q 2099 -1030 2435 -860 
Q 2771 -691 2771 -410 
z
" id="STIXGeneral-Regular-67" transform="scale(0.015625)"/>
      <path d="M 1018 2931 
L 1018 2438 
Q 1421 2944 1939 2944 
Q 2406 2944 2707 2560 
Q 3008 2176 3008 1581 
Q 3008 883 2621 409 
Q 2234 -64 1664 -64 
Q 1466 -64 1328 -6 
Q 1190 51 1018 211 
L 1018 -794 
Q 1018 -1094 1120 -1180 
Q 1222 -1267 1581 -1274 
L 1581 -1389 
L 32 -1389 
L 32 -1280 
Q 314 -1254 397 -1171 
Q 480 -1088 480 -838 
L 480 2157 
Q 480 2381 429 2451 
Q 378 2522 218 2522 
Q 115 2522 58 2515 
L 58 2618 
Q 506 2752 979 2944 
L 1018 2931 
z
M 1018 2138 
L 1018 563 
Q 1018 422 1238 281 
Q 1459 141 1683 141 
Q 2029 141 2243 467 
Q 2458 794 2458 1325 
Q 2458 1888 2243 2224 
Q 2029 2560 1670 2560 
Q 1446 2560 1232 2419 
Q 1018 2278 1018 2138 
z
" id="STIXGeneral-Regular-70" transform="scale(0.015625)"/>
      <path d="M 3008 1478 
Q 3008 806 2608 371 
Q 2208 -64 1568 -64 
Q 979 -64 582 368 
Q 186 800 186 1459 
Q 186 2125 582 2534 
Q 979 2944 1626 2944 
Q 2221 2944 2614 2537 
Q 3008 2131 3008 1478 
z
M 2432 1306 
Q 2432 2035 2112 2445 
Q 1856 2765 1504 2765 
Q 1171 2765 966 2493 
Q 762 2221 762 1747 
Q 762 928 1101 435 
Q 1318 115 1677 115 
Q 2029 115 2230 432 
Q 2432 749 2432 1306 
z
" id="STIXGeneral-Regular-6f" transform="scale(0.015625)"/>
      <path d="M 186 4224 
L 262 4326 
Q 992 3891 1408 3148 
Q 1824 2406 1824 1581 
Q 1824 -166 243 -1133 
L 186 -1030 
Q 845 -486 1059 54 
Q 1274 595 1274 1562 
Q 1274 2534 1059 3120 
Q 845 3706 186 4224 
z
" id="STIXGeneral-Regular-29" transform="scale(0.015625)"/>
     </defs>
     <use xlink:href="#STIXGeneral-Regular-73"/>
     <use x="38.899994" xlink:href="#STIXGeneral-Regular-79"/>
     <use x="88.899979" xlink:href="#STIXGeneral-Regular-6e"/>
     <use x="138.899963" xlink:href="#STIXGeneral-Regular-74"/>
     <use x="166.699951" xlink:href="#STIXGeneral-Regular-68"/>
     <use x="216.699936" xlink:href="#STIXGeneral-Regular-65"/>
     <use x="261.09993" xlink:href="#STIXGeneral-Regular-74"/>
     <use x="288.899918" xlink:href="#STIXGeneral-Regular-69"/>
     <use x="316.699905" xlink:href="#STIXGeneral-Regular-63"/>
     <use x="361.099899" xlink:href="#STIXGeneral-Regular-20"/>
     <use x="386.099884" xlink:href="#STIXGeneral-Regular-64"/>
     <use x="436.099869" xlink:href="#STIXGeneral-Regular-61"/>
     <use x="480.499863" xlink:href="#STIXGeneral-Regular-74"/>
     <use x="508.29985" xlink:href="#STIXGeneral-Regular-61"/>
     <use x="552.699844" xlink:href="#STIXGeneral-Regular-20"/>
     <use x="577.699829" xlink:href="#STIXGeneral-Regular-28"/>
     <use x="610.999817" xlink:href="#STIXGeneral-Regular-63"/>
     <use x="655.399811" xlink:href="#STIXGeneral-Regular-68"/>
     <use x="705.399796" xlink:href="#STIXGeneral-Regular-61"/>
     <use x="749.799789" xlink:href="#STIXGeneral-Regular-6e"/>
     <use x="799.799774" xlink:href="#STIXGeneral-Regular-67"/>
     <use x="849.799759" xlink:href="#STIXGeneral-Regular-65"/>
     <use x="894.199753" xlink:href="#STIXGeneral-Regular-70"/>
     <use x="944.199738" xlink:href="#STIXGeneral-Regular-6f"/>
     <use x="994.199722" xlink:href="#STIXGeneral-Regular-69"/>
     <use x="1021.99971" xlink:href="#STIXGeneral-Regular-6e"/>
     <use x="1071.999695" xlink:href="#STIXGeneral-Regular-74"/>
     <use x="1099.799683" xlink:href="#STIXGeneral-Regular-20"/>
     <use x="1124.799667" xlink:href="#STIXGeneral-Regular-64"/>
     <use x="1174.799652" xlink:href="#STIXGeneral-Regular-65"/>
     <use x="1219.199646" xlink:href="#STIXGeneral-Regular-74"/>
     <use x="1246.999634" xlink:href="#STIXGeneral-Regular-65"/>
     <use x="1291.399628" xlink:href="#STIXGeneral-Regular-63"/>
     <use x="1335.799622" xlink:href="#STIXGeneral-Regular-74"/>
     <use x="1363.599609" xlink:href="#STIXGeneral-Regular-69"/>
     <use x="1391.399597" xlink:href="#STIXGeneral-Regular-6f"/>
     <use x="1441.399582" xlink:href="#STIXGeneral-Regular-6e"/>
     <use x="1491.399567" xlink:href="#STIXGeneral-Regular-29"/>
    </g>
   </g>
  </g>
 </g>
 <defs>
  <clipPath id="p87a8c01675">
   <rect height="217.44" width="334.8" x="34.48" y="24.1275"/>
  </clipPath>
 </defs>
</svg>
