<?xml version="1.0" encoding="utf-8" standalone="no"?>
<!DOCTYPE svg PUBLIC "-//W3C//DTD SVG 1.1//EN"
  "http://www.w3.org/Graphics/SVG/1.1/DTD/svg11.dtd">
<svg xmlns:xlink="http://www.w3.org/1999/xlink" width="280.17pt" height="398.054625pt" viewBox="0 0 280.17 398.054625" xmlns="http://www.w3.org/2000/svg" version="1.1">
 <metadata>
  <rdf:RDF xmlns:dc="http://purl.org/dc/elements/1.1/" xmlns:cc="http://creativecommons.org/ns#" xmlns:rdf="http://www.w3.org/1999/02/22-rdf-syntax-ns#">
   <cc:Work>
    <dc:type rdf:resource="http://purl.org/dc/dcmitype/StillImage"/>
    <dc:date>2022-10-24T22:00:04.062330</dc:date>
    <dc:format>image/svg+xml</dc:format>
    <dc:creator>
     <cc:Agent>
      <dc:title>Matplotlib v3.5.3, https://matplotlib.org/</dc:title>
     </cc:Agent>
    </dc:creator>
   </cc:Work>
  </rdf:RDF>
 </metadata>
 <defs>
  <style type="text/css">*{stroke-linejoin: round; stroke-linecap: butt}</style>
 </defs>
 <g id="figure_1">
  <g id="patch_1">
   <path d="M 0 398.054625 
L 280.17 398.054625 
L 280.17 0 
L 0 0 
z
" style="fill: #ffffff"/>
  </g>
  <g id="axes_1">
   <g id="patch_2">
    <path d="M 16.53 146.290167 
L 242.69 146.290167 
L 242.69 61.455 
L 16.53 61.455 
z
" style="fill: #ffffff"/>
   </g>
   <g id="matplotlib.axis_1">
    <g id="xtick_1">
     <g id="line2d_1">
      <defs>
       <path id="m2473ee9359" d="M 0 0 
L 0 3.5 
" style="stroke: #323034; stroke-width: 0.8"/>
      </defs>
      <g>
       <use xlink:href="#m2473ee9359" x="16.53" y="146.290167" style="fill: #323034; stroke: #323034; stroke-width: 0.8"/>
      </g>
     </g>
    </g>
    <g id="xtick_2">
     <g id="line2d_2">
      <g>
       <use xlink:href="#m2473ee9359" x="38.702549" y="146.290167" style="fill: #323034; stroke: #323034; stroke-width: 0.8"/>
      </g>
     </g>
    </g>
    <g id="xtick_3">
     <g id="line2d_3">
      <g>
       <use xlink:href="#m2473ee9359" x="61.614183" y="146.290167" style="fill: #323034; stroke: #323034; stroke-width: 0.8"/>
      </g>
     </g>
    </g>
    <g id="xtick_4">
     <g id="line2d_4">
      <g>
       <use xlink:href="#m2473ee9359" x="83.786732" y="146.290167" style="fill: #323034; stroke: #323034; stroke-width: 0.8"/>
      </g>
     </g>
    </g>
    <g id="xtick_5">
     <g id="line2d_5">
      <g>
       <use xlink:href="#m2473ee9359" x="106.698366" y="146.290167" style="fill: #323034; stroke: #323034; stroke-width: 0.8"/>
      </g>
     </g>
    </g>
    <g id="xtick_6">
     <g id="line2d_6">
      <g>
       <use xlink:href="#m2473ee9359" x="129.61" y="146.290167" style="fill: #323034; stroke: #323034; stroke-width: 0.8"/>
      </g>
     </g>
    </g>
    <g id="xtick_7">
     <g id="line2d_7">
      <g>
       <use xlink:href="#m2473ee9359" x="151.782549" y="146.290167" style="fill: #323034; stroke: #323034; stroke-width: 0.8"/>
      </g>
     </g>
    </g>
    <g id="xtick_8">
     <g id="line2d_8">
      <g>
       <use xlink:href="#m2473ee9359" x="174.694183" y="146.290167" style="fill: #323034; stroke: #323034; stroke-width: 0.8"/>
      </g>
     </g>
    </g>
    <g id="xtick_9">
     <g id="line2d_9">
      <g>
       <use xlink:href="#m2473ee9359" x="196.866732" y="146.290167" style="fill: #323034; stroke: #323034; stroke-width: 0.8"/>
      </g>
     </g>
    </g>
    <g id="xtick_10">
     <g id="line2d_10">
      <g>
       <use xlink:href="#m2473ee9359" x="219.778366" y="146.290167" style="fill: #323034; stroke: #323034; stroke-width: 0.8"/>
      </g>
     </g>
    </g>
    <g id="xtick_11">
     <g id="line2d_11">
      <g>
       <use xlink:href="#m2473ee9359" x="242.69" y="146.290167" style="fill: #323034; stroke: #323034; stroke-width: 0.8"/>
      </g>
     </g>
    </g>
   </g>
   <g id="matplotlib.axis_2">
    <g id="ytick_1">
     <g id="line2d_12">
      <defs>
       <path id="ma8d67275f5" d="M 0 0 
L 3.5 0 
" style="stroke: #323034; stroke-width: 0.8"/>
      </defs>
      <g>
       <use xlink:href="#ma8d67275f5" x="242.69" y="125.081375" style="fill: #323034; stroke: #323034; stroke-width: 0.8"/>
      </g>
     </g>
     <g id="text_1">
      <!-- $\mathdefault{10}$ -->
      <g style="fill: #323034" transform="translate(249.69 129.179187)scale(0.12 -0.12)">
       <defs>
        <path id="STIXGeneral-Regular-31" d="M 2522 0 
L 755 0 
L 755 96 
Q 1107 115 1235 227 
Q 1363 339 1363 608 
L 1363 3482 
Q 1363 3795 1171 3795 
Q 1082 3795 883 3718 
L 710 3654 
L 710 3744 
L 1856 4326 
L 1914 4307 
L 1914 486 
Q 1914 275 2042 185 
Q 2170 96 2522 96 
L 2522 0 
z
" transform="scale(0.015625)"/>
        <path id="STIXGeneral-Regular-30" d="M 3046 2112 
Q 3046 1683 2963 1302 
Q 2880 922 2717 602 
Q 2554 282 2266 96 
Q 1978 -90 1600 -90 
Q 1210 -90 915 108 
Q 621 307 461 640 
Q 301 973 227 1350 
Q 154 1728 154 2150 
Q 154 2746 301 3222 
Q 448 3699 790 4012 
Q 1133 4326 1626 4326 
Q 2253 4326 2649 3712 
Q 3046 3098 3046 2112 
z
M 2432 2080 
Q 2432 3091 2217 3625 
Q 2003 4160 1587 4160 
Q 1190 4160 979 3622 
Q 768 3085 768 2106 
Q 768 1120 979 598 
Q 1190 77 1600 77 
Q 2003 77 2217 598 
Q 2432 1120 2432 2080 
z
" transform="scale(0.015625)"/>
       </defs>
       <use xlink:href="#STIXGeneral-Regular-31" transform="translate(0 0.40625)"/>
       <use xlink:href="#STIXGeneral-Regular-30" transform="translate(49.999985 0.40625)"/>
      </g>
     </g>
    </g>
    <g id="ytick_2">
     <g id="line2d_13">
      <g>
       <use xlink:href="#ma8d67275f5" x="242.69" y="82.663792" style="fill: #323034; stroke: #323034; stroke-width: 0.8"/>
      </g>
     </g>
     <g id="text_2">
      <!-- $\mathdefault{12}$ -->
      <g style="fill: #323034" transform="translate(249.69 86.761604)scale(0.12 -0.12)">
       <defs>
        <path id="STIXGeneral-Regular-32" d="M 3034 877 
L 2688 0 
L 186 0 
L 186 77 
L 1325 1286 
Q 1773 1754 1965 2144 
Q 2157 2534 2157 2950 
Q 2157 3379 1920 3616 
Q 1683 3853 1267 3853 
Q 922 3853 720 3673 
Q 518 3494 326 3021 
L 192 3053 
Q 301 3648 630 3987 
Q 960 4326 1523 4326 
Q 2054 4326 2380 4006 
Q 2707 3686 2707 3200 
Q 2707 2477 1888 1613 
L 832 486 
L 2330 486 
Q 2541 486 2665 569 
Q 2790 653 2944 915 
L 3034 877 
z
" transform="scale(0.015625)"/>
       </defs>
       <use xlink:href="#STIXGeneral-Regular-31" transform="translate(0 0.40625)"/>
       <use xlink:href="#STIXGeneral-Regular-32" transform="translate(49.999985 0.40625)"/>
      </g>
     </g>
    </g>
    <g id="ytick_3">
     <g id="line2d_14">
      <defs>
       <path id="m70b5522e2f" d="M 0 0 
L 2 0 
" style="stroke: #323034; stroke-width: 0.6"/>
      </defs>
      <g>
       <use xlink:href="#m70b5522e2f" x="242.69" y="103.872583" style="fill: #323034; stroke: #323034; stroke-width: 0.6"/>
      </g>
     </g>
    </g>
    <g id="ytick_4">
     <g id="line2d_15">
      <g>
       <use xlink:href="#m70b5522e2f" x="242.69" y="61.455" style="fill: #323034; stroke: #323034; stroke-width: 0.6"/>
      </g>
     </g>
    </g>
   </g>
   <g id="line2d_16">
    <path d="M 18.747255 118.537241 
L 20.225425 117.562104 
L 20.96451 117.455712 
L 21.703595 117.762407 
L 22.44268 117.586974 
L 23.181765 118.138711 
L 23.92085 118.526655 
L 25.39902 118.983979 
L 26.138105 119.16718 
L 26.87719 119.502366 
L 27.616275 119.711339 
L 28.355359 119.525949 
L 29.833529 119.786347 
L 30.572614 119.585826 
L 32.050784 118.538747 
L 32.789869 118.375663 
L 33.528954 118.879637 
L 34.268039 118.983647 
L 36.485294 119.793738 
L 37.224379 120.262696 
L 38.702549 120.496648 
L 39.441634 120.6152 
L 40.919804 121.052052 
L 43.876144 123.621595 
L 44.615229 123.806971 
L 45.354314 124.254162 
L 48.310654 124.930227 
L 49.049739 124.281673 
L 49.788824 124.466978 
L 50.527908 124.20299 
L 51.266993 124.344344 
L 52.745163 124.82342 
L 53.484248 124.66555 
L 54.962418 125.386454 
L 55.701503 126.015626 
L 56.440588 126.420792 
L 58.657843 126.087198 
L 60.136013 125.383578 
L 60.875098 125.189038 
L 61.614183 125.312093 
L 62.353268 124.837682 
L 63.092353 124.953972 
L 63.831438 125.265798 
L 64.570523 125.824933 
L 65.309608 126.12912 
L 66.048693 125.723254 
L 66.787778 125.508728 
L 67.526863 125.868692 
L 68.265948 125.511411 
L 69.005033 125.42889 
L 69.744118 125.126637 
L 70.483203 124.277854 
L 71.222288 123.927303 
L 73.439542 122.06481 
L 74.178627 121.091295 
L 75.656797 118.795165 
L 79.352222 113.277299 
L 80.091307 112.490792 
L 82.308562 109.694938 
L 83.047647 109.005889 
L 85.264902 107.57279 
L 86.003987 107.235674 
L 86.743072 106.709402 
L 87.482157 106.482022 
L 88.960327 105.357236 
L 90.438497 103.785115 
L 91.177582 103.200153 
L 91.916667 102.778083 
L 92.655752 102.068759 
L 94.873007 101.640548 
L 96.351176 101.73937 
L 97.090261 101.678061 
L 97.829346 101.914465 
L 99.307516 101.602416 
L 100.046601 102.022246 
L 101.524771 102.160227 
L 103.742026 102.526227 
L 104.481111 103.014982 
L 105.220196 103.212577 
L 105.959281 103.879768 
L 106.698366 104.377802 
L 108.176536 105.586451 
L 108.915621 105.955898 
L 111.871961 106.213833 
L 112.611046 106.182693 
L 114.828301 106.711954 
L 115.567386 107.136812 
L 117.784641 109.172508 
L 120.001895 110.607239 
L 120.74098 111.409652 
L 121.480065 111.185522 
L 122.21915 111.487562 
L 122.958235 111.340854 
L 123.69732 111.35444 
L 124.436405 111.509928 
L 125.17549 111.538119 
L 125.914575 111.437118 
L 126.65366 111.746078 
L 127.392745 111.387384 
L 128.13183 112.388464 
L 128.870915 112.351606 
L 129.61 112.011186 
L 130.349085 112.175585 
L 131.08817 112.503694 
L 132.56634 114.901715 
L 133.305425 114.819902 
L 134.04451 115.419944 
L 135.52268 115.930456 
L 136.261765 115.610151 
L 137.00085 114.45165 
L 137.739935 113.531139 
L 139.218105 112.506361 
L 139.95719 112.423428 
L 141.435359 111.958513 
L 142.174444 110.750821 
L 142.913529 110.895284 
L 143.652614 110.724209 
L 144.391699 110.731306 
L 145.130784 110.397496 
L 146.608954 110.256601 
L 147.348039 111.425689 
L 148.087124 110.953492 
L 150.304379 110.892386 
L 151.043464 110.551517 
L 151.782549 110.73874 
L 152.521634 109.183915 
L 153.260719 109.242372 
L 154.738889 107.951588 
L 156.217059 107.425662 
L 156.956144 106.684318 
L 157.695229 107.478857 
L 158.434314 106.757002 
L 159.912484 105.942183 
L 160.651569 105.402241 
L 161.390654 105.337643 
L 162.129739 105.134914 
L 162.868824 104.196881 
L 165.086078 103.2332 
L 165.825163 102.65439 
L 166.564248 101.447512 
L 167.303333 100.778394 
L 168.042418 100.379923 
L 170.998758 97.975783 
L 171.737843 97.766199 
L 173.955098 95.751845 
L 176.172353 93.163774 
L 176.911438 91.944402 
L 178.389608 89.948507 
L 179.128693 88.696938 
L 183.563203 83.733643 
L 186.519542 82.038804 
L 187.997712 81.679347 
L 190.214967 81.018044 
L 190.954052 82.833367 
L 191.693137 82.728843 
L 192.432222 83.114015 
L 194.649477 83.318503 
L 195.388562 82.991491 
L 196.127647 80.723296 
L 196.866732 80.369063 
L 197.605817 79.440483 
L 199.083987 78.130877 
L 199.823072 77.597165 
L 200.562157 77.330009 
L 201.301242 77.2209 
L 202.040327 76.642696 
L 202.779412 76.615949 
L 203.518497 76.406618 
L 204.257582 76.460996 
L 204.996667 76.698436 
L 205.735752 76.37056 
L 206.474837 76.213787 
L 207.213922 76.542939 
L 207.953007 76.748716 
L 209.431176 76.810879 
L 210.170261 76.833573 
L 210.909346 77.052467 
L 211.648431 77.675742 
L 212.387516 80.438255 
L 213.126601 80.099253 
L 213.865686 80.608253 
L 214.604771 80.802401 
L 216.082941 80.795799 
L 216.822026 80.258953 
L 217.561111 79.114644 
L 219.778366 76.491337 
L 220.517451 76.01808 
L 221.256536 75.680117 
L 221.995621 75.093966 
L 222.734706 72.929909 
L 223.473791 73.373202 
L 224.212876 73.276922 
L 224.951961 73.600574 
L 225.691046 73.666244 
L 226.430131 73.999235 
L 227.169216 74.475937 
L 229.386471 76.441786 
L 230.125556 77.87256 
L 233.82098 81.081025 
L 234.560065 81.903054 
L 235.29915 81.588441 
L 236.77732 82.771707 
L 238.25549 83.644703 
L 238.994575 84.332849 
L 240.472745 85.026563 
L 240.472745 85.026563 
" clip-path="url(#p4ee666a1cb)" style="fill: none; stroke-dasharray: 3.7,1.6; stroke-dashoffset: 0; stroke: #000000"/>
   </g>
   <g id="line2d_17">
    <path d="M 16.53 120.818489 
L 18.00817 116.950356 
L 18.747255 115.199607 
L 19.48634 121.879432 
L 20.225425 117.890977 
L 20.96451 118.291945 
L 21.703595 117.279715 
L 22.44268 115.442697 
L 23.181765 116.205614 
L 23.92085 117.346472 
L 24.659935 120.6514 
L 25.39902 121.753132 
L 26.138105 121.007554 
L 26.87719 118.505546 
L 27.616275 117.418136 
L 28.355359 117.488023 
L 29.833529 122.114209 
L 30.572614 120.455403 
L 31.311699 121.964052 
L 32.050784 119.371831 
L 32.789869 116.014494 
L 33.528954 114.229927 
L 34.268039 115.621313 
L 35.007124 120.97262 
L 35.746209 123.983221 
L 36.485294 122.692122 
L 37.224379 121.115897 
L 37.963464 118.277968 
L 38.702549 115.893025 
L 40.919804 125.143539 
L 41.658889 123.521985 
L 42.397974 122.817233 
L 43.137059 119.634599 
L 43.876144 120.260433 
L 44.615229 122.507961 
L 45.354314 126.794764 
L 46.093399 129.814188 
L 46.832484 124.819617 
L 47.571569 125.947569 
L 48.310654 120.793302 
L 49.049739 121.371408 
L 49.788824 123.56497 
L 50.527908 128.200534 
L 51.266993 125.274311 
L 52.006078 126.116748 
L 53.484248 121.782782 
L 54.962418 124.850073 
L 55.701503 127.095439 
L 56.440588 128.104824 
L 57.918758 128.503859 
L 58.657843 124.618943 
L 59.396928 122.782646 
L 60.136013 123.801147 
L 60.875098 126.466405 
L 61.614183 125.206403 
L 62.353268 126.305642 
L 63.092353 127.142078 
L 63.831438 125.480332 
L 64.570523 119.461768 
L 65.309608 124.615175 
L 66.048693 128.649188 
L 66.787778 129.120347 
L 67.526863 128.43495 
L 68.265948 124.30102 
L 69.005033 123.97865 
L 69.744118 121.981515 
L 70.483203 122.114209 
L 71.222288 128.071538 
L 71.961373 127.004577 
L 72.700458 122.493468 
L 73.439542 121.847167 
L 74.917712 117.945929 
L 75.656797 117.143515 
L 76.395882 121.256931 
L 77.874052 115.223186 
L 78.613137 114.08725 
L 80.091307 109.682036 
L 81.569477 112.689959 
L 82.308562 112.696402 
L 83.047647 108.389466 
L 83.786732 107.705475 
L 84.525817 105.458984 
L 85.264902 104.858693 
L 86.003987 107.692323 
L 86.743072 110.039537 
L 87.482157 108.865053 
L 88.221242 106.029652 
L 88.960327 104.021575 
L 89.699412 103.867321 
L 90.438497 101.102807 
L 91.177582 103.574708 
L 91.916667 104.618485 
L 93.394837 101.934917 
L 94.133922 101.067089 
L 94.873007 98.902055 
L 95.612092 100.280873 
L 96.351176 102.978897 
L 97.090261 103.038752 
L 97.829346 103.867675 
L 98.568431 102.040249 
L 99.307516 100.637925 
L 100.046601 100.556881 
L 100.785686 99.516706 
L 101.524771 101.558725 
L 102.263856 105.97756 
L 103.002941 104.119542 
L 104.481111 101.55682 
L 105.220196 100.879856 
L 105.959281 100.836835 
L 106.698366 104.980012 
L 107.437451 107.360719 
L 108.176536 108.789882 
L 108.915621 106.240494 
L 109.654706 106.171691 
L 111.132876 103.422965 
L 111.871961 105.581108 
L 112.611046 108.349619 
L 113.350131 108.929248 
L 114.089216 106.316675 
L 114.828301 105.953712 
L 115.567386 106.038673 
L 116.306471 104.013729 
L 117.045556 107.382024 
L 117.784641 111.323624 
L 118.523725 113.783253 
L 119.26281 110.779028 
L 120.001895 110.887228 
L 121.480065 108.116419 
L 122.21915 109.917187 
L 122.958235 116.940515 
L 123.69732 112.214339 
L 124.436405 112.893313 
L 125.17549 109.860268 
L 126.65366 109.204834 
L 127.392745 110.114523 
L 128.13183 116.233511 
L 128.870915 114.377058 
L 129.61 110.382454 
L 130.349085 116.867829 
L 131.08817 109.281036 
L 131.827255 106.82189 
L 132.56634 111.265318 
L 133.305425 118.530276 
L 134.04451 122.255321 
L 136.261765 113.481324 
L 137.00085 108.752842 
L 137.739935 112.907952 
L 138.47902 116.288144 
L 139.218105 114.145815 
L 139.95719 112.846753 
L 140.696275 112.819189 
L 141.435359 109.783833 
L 142.174444 108.17231 
L 143.652614 114.453341 
L 144.391699 105.691972 
L 145.130784 113.857994 
L 145.869869 111.621666 
L 146.608954 109.833508 
L 147.348039 105.835645 
L 148.087124 111.04461 
L 148.826209 113.910811 
L 149.565294 113.875585 
L 150.304379 110.552616 
L 151.043464 111.363425 
L 151.782549 109.271438 
L 152.521634 106.22822 
L 153.260719 108.658528 
L 153.999804 115.221371 
L 154.738889 102.991806 
L 155.477974 110.961814 
L 156.217059 106.452253 
L 156.956144 105.147121 
L 157.695229 104.198171 
L 159.173399 110.031958 
L 159.912484 108.553585 
L 160.651569 105.908824 
L 162.129739 102.015571 
L 162.868824 100.418578 
L 163.607908 106.554911 
L 164.346993 108.612856 
L 165.086078 101.987356 
L 165.825163 103.619114 
L 166.564248 102.38087 
L 167.303333 99.058713 
L 168.042418 96.366907 
L 168.781503 98.106766 
L 169.520588 103.92903 
L 170.259673 99.198059 
L 170.998758 99.269502 
L 173.216013 93.022068 
L 173.955098 96.639678 
L 174.694183 99.324315 
L 175.433268 94.305003 
L 176.172353 94.666793 
L 176.911438 91.346491 
L 177.650523 88.890142 
L 178.389608 86.973997 
L 179.128693 88.104071 
L 179.867778 92.300742 
L 180.606863 87.357312 
L 181.345948 85.90581 
L 182.085033 85.402428 
L 182.824118 82.547326 
L 183.563203 80.352269 
L 184.302288 83.154414 
L 185.041373 86.599997 
L 185.780458 82.173256 
L 186.519542 82.810742 
L 187.258627 81.457513 
L 187.997712 79.661119 
L 188.736797 78.414582 
L 189.475882 81.500274 
L 190.214967 85.73794 
L 190.954052 80.572276 
L 191.693137 80.781707 
L 192.432222 80.458405 
L 193.171307 92.368383 
L 193.910392 77.682916 
L 194.649477 84.196478 
L 195.388562 86.453658 
L 196.127647 82.034284 
L 197.605817 78.169319 
L 198.344902 76.49102 
L 199.083987 75.203285 
L 199.823072 77.696418 
L 200.562157 81.501755 
L 201.301242 77.818946 
L 202.040327 76.299415 
L 202.779412 76.299222 
L 203.518497 75.727256 
L 204.257582 71.155858 
L 204.996667 77.509189 
L 205.735752 80.036435 
L 206.474837 78.199598 
L 207.213922 77.961491 
L 207.953007 74.004091 
L 208.692092 74.629848 
L 209.431176 73.45992 
L 210.170261 78.949631 
L 210.909346 80.538298 
L 211.648431 78.132873 
L 212.387516 78.120352 
L 213.126601 75.536346 
L 213.865686 78.99277 
L 214.604771 92.797514 
L 215.343856 76.576617 
L 216.082941 84.101299 
L 216.822026 79.491907 
L 217.561111 78.184295 
L 218.300196 75.426195 
L 219.039281 75.234842 
L 219.778366 84.787353 
L 220.517451 70.295406 
L 221.256536 78.105317 
L 221.995621 73.405952 
L 222.734706 74.871493 
L 224.951961 69.638955 
L 226.430131 77.431357 
L 227.169216 75.671517 
L 227.908301 75.331179 
L 228.647386 75.391393 
L 229.386471 74.468703 
L 230.125556 74.439414 
L 232.34281 85.686936 
L 233.081895 79.725008 
L 233.82098 79.890838 
L 234.560065 79.327373 
L 235.29915 79.207131 
L 236.038235 82.001545 
L 236.77732 87.48255 
L 237.516405 83.48464 
L 238.25549 84.304612 
L 238.994575 83.594098 
L 239.73366 82.222718 
L 240.472745 82.42276 
L 241.21183 86.818564 
L 241.950915 90.207663 
L 242.69 85.615525 
L 242.69 85.615525 
" clip-path="url(#p4ee666a1cb)" style="fill: none; stroke: #bc80bd; stroke-opacity: 0.7; stroke-width: 2; stroke-linecap: square"/>
   </g>
   <g id="patch_3">
    <path d="M 242.69 146.290167 
L 242.69 61.455 
" style="fill: none; stroke: #000000; stroke-width: 0.6; stroke-linejoin: miter; stroke-linecap: square"/>
   </g>
   <g id="patch_4">
    <path d="M 16.53 146.290167 
L 242.69 146.290167 
" style="fill: none; stroke: #000000; stroke-width: 0.6; stroke-linejoin: miter; stroke-linecap: square"/>
   </g>
   <g id="text_3">
    <!-- log new cases -->
    <g style="fill: #323034" transform="translate(153.82 55.455)scale(0.16 -0.16)">
     <defs>
      <path id="STIXGeneral-Regular-6c" d="M 1645 0 
L 134 0 
L 134 96 
Q 435 122 531 221 
Q 627 320 627 589 
L 627 3590 
Q 627 3821 569 3910 
Q 512 4000 358 4000 
Q 224 4000 122 3987 
L 122 4090 
Q 730 4237 1133 4371 
L 1165 4346 
L 1165 557 
Q 1165 288 1254 201 
Q 1344 115 1645 96 
L 1645 0 
z
" transform="scale(0.015625)"/>
      <path id="STIXGeneral-Regular-6f" d="M 3008 1478 
Q 3008 806 2608 371 
Q 2208 -64 1568 -64 
Q 979 -64 582 368 
Q 186 800 186 1459 
Q 186 2125 582 2534 
Q 979 2944 1626 2944 
Q 2221 2944 2614 2537 
Q 3008 2131 3008 1478 
z
M 2432 1306 
Q 2432 2035 2112 2445 
Q 1856 2765 1504 2765 
Q 1171 2765 966 2493 
Q 762 2221 762 1747 
Q 762 928 1101 435 
Q 1318 115 1677 115 
Q 2029 115 2230 432 
Q 2432 749 2432 1306 
z
" transform="scale(0.015625)"/>
      <path id="STIXGeneral-Regular-67" d="M 3008 2483 
L 2477 2483 
Q 2598 2208 2598 1946 
Q 2598 1453 2265 1203 
Q 1933 954 1600 954 
Q 1530 954 1357 973 
L 1235 986 
Q 1107 947 979 812 
Q 851 678 851 582 
Q 851 435 1350 410 
L 2176 371 
Q 2528 358 2739 172 
Q 2950 -13 2950 -314 
Q 2950 -685 2566 -986 
Q 2035 -1395 1286 -1395 
Q 826 -1395 502 -1212 
Q 179 -1030 179 -774 
Q 179 -595 320 -419 
Q 461 -243 806 6 
Q 602 102 534 172 
Q 467 243 467 346 
Q 467 531 762 787 
Q 909 915 1037 1043 
Q 717 1203 579 1401 
Q 442 1600 442 1901 
Q 442 2336 752 2640 
Q 1062 2944 1510 2944 
Q 1766 2944 2022 2848 
L 2163 2797 
Q 2349 2733 2515 2733 
L 3008 2733 
L 3008 2483 
z
M 973 2163 
L 973 2144 
Q 973 1683 1155 1398 
Q 1338 1114 1632 1114 
Q 1850 1114 1978 1270 
Q 2106 1427 2106 1690 
Q 2106 2112 1914 2464 
Q 1754 2765 1446 2765 
Q 1222 2765 1097 2605 
Q 973 2445 973 2163 
z
M 2771 -410 
Q 2771 -230 2595 -163 
Q 2419 -96 1978 -96 
Q 1344 -96 941 -13 
Q 749 -243 688 -348 
Q 627 -454 627 -563 
Q 627 -774 880 -902 
Q 1133 -1030 1555 -1030 
Q 2099 -1030 2435 -860 
Q 2771 -691 2771 -410 
z
" transform="scale(0.015625)"/>
      <path id="STIXGeneral-Regular-20" transform="scale(0.015625)"/>
      <path id="STIXGeneral-Regular-6e" d="M 3104 0 
L 1773 0 
L 1779 96 
Q 2016 115 2096 233 
Q 2176 352 2176 672 
L 2176 1946 
Q 2176 2592 1709 2592 
Q 1549 2592 1408 2515 
Q 1267 2438 1050 2227 
L 1050 461 
Q 1050 269 1136 192 
Q 1222 115 1466 96 
L 1466 0 
L 115 0 
L 115 96 
Q 358 115 435 214 
Q 512 314 512 602 
L 512 2157 
Q 512 2394 467 2483 
Q 422 2573 288 2573 
Q 160 2573 102 2547 
L 102 2656 
Q 550 2784 979 2944 
L 1030 2925 
L 1030 2426 
L 1037 2426 
Q 1491 2944 1958 2944 
Q 2323 2944 2518 2688 
Q 2714 2432 2714 1958 
L 2714 544 
Q 2714 288 2790 205 
Q 2867 122 3104 96 
L 3104 0 
z
" transform="scale(0.015625)"/>
      <path id="STIXGeneral-Regular-65" d="M 2611 1050 
L 2714 1005 
Q 2330 -64 1376 -64 
Q 813 -64 486 329 
Q 160 723 160 1389 
Q 160 2074 525 2509 
Q 890 2944 1485 2944 
Q 2061 2944 2374 2502 
Q 2560 2246 2592 1773 
L 621 1773 
Q 646 1370 700 1158 
Q 755 947 915 730 
Q 1184 378 1626 378 
Q 1939 378 2153 531 
Q 2368 685 2611 1050 
z
M 634 1978 
L 1939 1978 
Q 1882 2381 1750 2547 
Q 1619 2714 1312 2714 
Q 1043 2714 864 2525 
Q 685 2336 634 1978 
z
" transform="scale(0.015625)"/>
      <path id="STIXGeneral-Regular-77" d="M 4442 2880 
L 4442 2784 
Q 4346 2752 4301 2691 
Q 4256 2630 4179 2438 
L 3296 224 
Q 3168 -90 3117 -90 
Q 3085 -90 3062 -48 
Q 3040 -6 2963 186 
L 2381 1696 
L 1664 160 
Q 1549 -90 1504 -90 
Q 1446 -90 1338 192 
L 474 2381 
Q 378 2630 314 2700 
Q 250 2771 134 2784 
L 134 2880 
L 1286 2880 
L 1286 2784 
Q 1120 2765 1056 2720 
Q 992 2675 992 2573 
Q 992 2477 1030 2381 
L 1664 710 
L 2246 1984 
L 2118 2342 
Q 2029 2598 1942 2681 
Q 1856 2765 1677 2784 
L 1677 2880 
L 2976 2880 
L 2976 2784 
Q 2752 2752 2678 2707 
Q 2605 2662 2605 2560 
Q 2605 2458 2714 2176 
L 3251 742 
L 3827 2163 
Q 3936 2432 3936 2592 
Q 3936 2669 3875 2710 
Q 3814 2752 3654 2784 
L 3654 2880 
L 4442 2880 
z
" transform="scale(0.015625)"/>
      <path id="STIXGeneral-Regular-63" d="M 2547 998 
L 2637 941 
Q 2362 403 2112 205 
Q 1786 -64 1376 -64 
Q 845 -64 502 336 
Q 160 736 160 1357 
Q 160 2170 698 2618 
Q 1094 2944 1562 2944 
Q 1965 2944 2256 2749 
Q 2547 2554 2547 2285 
Q 2547 2176 2457 2096 
Q 2368 2016 2246 2016 
Q 2022 2016 1939 2310 
L 1901 2451 
Q 1850 2630 1773 2694 
Q 1696 2758 1523 2758 
Q 1133 2758 893 2451 
Q 653 2144 653 1645 
Q 653 1094 928 745 
Q 1203 397 1645 397 
Q 1920 397 2118 528 
Q 2317 659 2547 998 
z
" transform="scale(0.015625)"/>
      <path id="STIXGeneral-Regular-61" d="M 2829 422 
L 2829 243 
Q 2586 -64 2253 -64 
Q 1888 -64 1843 403 
L 1837 403 
Q 1427 -64 909 -64 
Q 608 -64 422 112 
Q 237 288 237 602 
Q 237 1050 685 1350 
Q 992 1555 1837 1869 
L 1837 2214 
Q 1837 2502 1699 2646 
Q 1562 2790 1338 2790 
Q 1146 2790 1018 2697 
Q 890 2605 890 2477 
Q 890 2419 909 2348 
Q 928 2278 928 2208 
Q 928 2112 841 2029 
Q 755 1946 634 1946 
Q 525 1946 441 2029 
Q 358 2112 358 2240 
Q 358 2547 685 2752 
Q 986 2944 1421 2944 
Q 1939 2944 2176 2656 
Q 2291 2522 2323 2384 
Q 2355 2246 2355 1946 
L 2355 723 
Q 2355 301 2554 301 
Q 2682 301 2829 422 
z
M 1837 813 
L 1837 1715 
Q 1248 1510 1018 1293 
Q 800 1094 800 800 
Q 800 557 921 432 
Q 1043 307 1242 307 
Q 1453 307 1613 410 
Q 1747 506 1792 589 
Q 1837 672 1837 813 
z
" transform="scale(0.015625)"/>
      <path id="STIXGeneral-Regular-73" d="M 998 1926 
L 1664 1523 
Q 1984 1331 2105 1164 
Q 2227 998 2227 736 
Q 2227 416 1961 176 
Q 1696 -64 1331 -64 
Q 1030 -64 864 -6 
Q 691 51 570 51 
Q 461 51 416 -26 
L 333 -26 
L 333 979 
L 435 979 
Q 538 512 730 294 
Q 922 77 1248 77 
Q 1485 77 1632 211 
Q 1779 346 1779 550 
Q 1779 845 1440 1030 
L 1094 1222 
Q 326 1651 326 2150 
Q 326 2522 566 2730 
Q 806 2938 1210 2938 
Q 1491 2938 1638 2867 
Q 1754 2816 1818 2816 
Q 1862 2816 1920 2880 
L 1990 2880 
L 2022 2010 
L 1926 2010 
Q 1818 2445 1654 2621 
Q 1491 2797 1203 2797 
Q 986 2797 854 2688 
Q 723 2579 723 2362 
Q 723 2253 796 2128 
Q 870 2003 998 1926 
z
" transform="scale(0.015625)"/>
     </defs>
     <use xlink:href="#STIXGeneral-Regular-6c"/>
     <use xlink:href="#STIXGeneral-Regular-6f" x="27.799988"/>
     <use xlink:href="#STIXGeneral-Regular-67" x="77.799973"/>
     <use xlink:href="#STIXGeneral-Regular-20" x="127.799957"/>
     <use xlink:href="#STIXGeneral-Regular-6e" x="152.799942"/>
     <use xlink:href="#STIXGeneral-Regular-65" x="202.799927"/>
     <use xlink:href="#STIXGeneral-Regular-77" x="247.199921"/>
     <use xlink:href="#STIXGeneral-Regular-20" x="319.399902"/>
     <use xlink:href="#STIXGeneral-Regular-63" x="344.399887"/>
     <use xlink:href="#STIXGeneral-Regular-61" x="388.799881"/>
     <use xlink:href="#STIXGeneral-Regular-73" x="433.199875"/>
     <use xlink:href="#STIXGeneral-Regular-65" x="472.099869"/>
     <use xlink:href="#STIXGeneral-Regular-73" x="516.499863"/>
    </g>
   </g>
   <g id="legend_1">
    <g id="patch_5">
     <path d="M 23.53 92.805 
L 84.859688 92.805 
Q 86.859688 92.805 86.859688 90.805 
L 86.859688 68.455 
Q 86.859688 66.455 84.859688 66.455 
L 23.53 66.455 
Q 21.53 66.455 21.53 68.455 
L 21.53 90.805 
Q 21.53 92.805 23.53 92.805 
z
" style="fill: #ffffff; opacity: 0.8; stroke: #e6e6e6; stroke-width: 0.8; stroke-linejoin: miter"/>
    </g>
    <g id="line2d_18">
     <path d="M 23.53 71.955 
L 33.53 71.955 
L 43.53 71.955 
" style="fill: none; stroke-dasharray: 3.7,1.6; stroke-dashoffset: 0; stroke: #000000"/>
    </g>
    <g id="text_4">
     <!-- Trend -->
     <g style="fill: #323034" transform="translate(51.53 75.455)scale(0.1 -0.1)">
      <defs>
       <path id="STIXGeneral-Regular-54" d="M 3795 3149 
L 3642 3149 
Q 3539 3674 3353 3821 
Q 3168 3968 2656 3968 
L 2278 3968 
L 2278 710 
Q 2278 346 2387 243 
Q 2496 141 2893 122 
L 2893 0 
L 1024 0 
L 1024 122 
Q 1427 147 1526 256 
Q 1626 365 1626 787 
L 1626 3968 
L 1242 3968 
Q 723 3968 540 3817 
Q 358 3667 262 3149 
L 109 3149 
L 154 4237 
L 3750 4237 
L 3795 3149 
z
" transform="scale(0.015625)"/>
       <path id="STIXGeneral-Regular-72" d="M 1024 2931 
L 1024 2342 
Q 1267 2688 1430 2816 
Q 1594 2944 1792 2944 
Q 1958 2944 2051 2854 
Q 2144 2765 2144 2605 
Q 2144 2470 2077 2393 
Q 2010 2317 1894 2317 
Q 1773 2317 1638 2445 
Q 1536 2541 1472 2541 
Q 1338 2541 1181 2355 
Q 1024 2170 1024 2016 
L 1024 576 
Q 1024 301 1133 205 
Q 1242 109 1568 96 
L 1568 0 
L 32 0 
L 32 96 
Q 339 154 412 224 
Q 486 294 486 538 
L 486 2138 
Q 486 2349 438 2435 
Q 390 2522 269 2522 
Q 166 2522 45 2496 
L 45 2598 
Q 448 2726 992 2944 
L 1024 2931 
z
" transform="scale(0.015625)"/>
       <path id="STIXGeneral-Regular-64" d="M 3142 269 
L 2202 -64 
L 2176 -45 
L 2176 365 
Q 1869 -64 1357 -64 
Q 826 -64 499 317 
Q 173 698 173 1312 
Q 173 1990 563 2467 
Q 954 2944 1504 2944 
Q 1850 2944 2176 2669 
L 2176 3667 
Q 2176 3866 2118 3930 
Q 2061 3994 1882 3994 
Q 1792 3994 1741 3987 
L 1741 4090 
Q 2323 4243 2682 4371 
L 2714 4358 
L 2714 730 
Q 2714 506 2768 435 
Q 2822 365 2995 365 
Q 3034 365 3142 371 
L 3142 269 
z
M 2176 653 
L 2176 2125 
Q 2176 2381 1981 2573 
Q 1786 2765 1523 2765 
Q 1158 2765 940 2438 
Q 723 2112 723 1568 
Q 723 979 963 624 
Q 1203 269 1606 269 
Q 1907 269 2080 474 
Q 2176 582 2176 653 
z
" transform="scale(0.015625)"/>
      </defs>
      <use xlink:href="#STIXGeneral-Regular-54"/>
      <use xlink:href="#STIXGeneral-Regular-72" x="61.099991"/>
      <use xlink:href="#STIXGeneral-Regular-65" x="94.399979"/>
      <use xlink:href="#STIXGeneral-Regular-6e" x="138.799973"/>
      <use xlink:href="#STIXGeneral-Regular-64" x="188.799957"/>
     </g>
    </g>
    <g id="line2d_19">
     <path d="M 23.53 85.125313 
L 33.53 85.125313 
L 43.53 85.125313 
" style="fill: none; stroke: #bc80bd; stroke-opacity: 0.7; stroke-width: 2; stroke-linecap: square"/>
    </g>
    <g id="text_5">
     <!-- Original -->
     <g style="fill: #323034" transform="translate(51.53 88.625313)scale(0.1 -0.1)">
      <defs>
       <path id="STIXGeneral-Regular-4f" d="M 4403 2118 
Q 4403 1133 3820 521 
Q 3238 -90 2310 -90 
Q 1376 -90 797 524 
Q 218 1139 218 2138 
Q 218 3110 797 3718 
Q 1376 4326 2310 4326 
Q 3245 4326 3824 3702 
Q 4403 3078 4403 2118 
z
M 3674 2157 
Q 3674 2701 3520 3133 
Q 3366 3565 3091 3795 
Q 2733 4096 2304 4096 
Q 1760 4096 1389 3667 
Q 1184 3437 1065 3011 
Q 947 2586 947 2125 
Q 947 960 1523 429 
Q 1837 141 2317 141 
Q 2816 141 3142 448 
Q 3674 960 3674 2157 
z
" transform="scale(0.015625)"/>
       <path id="STIXGeneral-Regular-69" d="M 1152 4045 
Q 1152 3904 1056 3811 
Q 960 3718 819 3718 
Q 685 3718 592 3811 
Q 499 3904 499 4045 
Q 499 4179 595 4275 
Q 691 4371 826 4371 
Q 966 4371 1059 4275 
Q 1152 4179 1152 4045 
z
M 1619 0 
L 102 0 
L 102 96 
Q 435 115 521 211 
Q 608 307 608 666 
L 608 2118 
Q 608 2342 563 2432 
Q 518 2522 397 2522 
Q 243 2522 128 2490 
L 128 2592 
L 1120 2944 
L 1146 2918 
L 1146 672 
Q 1146 314 1226 218 
Q 1306 122 1619 96 
L 1619 0 
z
" transform="scale(0.015625)"/>
      </defs>
      <use xlink:href="#STIXGeneral-Regular-4f"/>
      <use xlink:href="#STIXGeneral-Regular-72" x="72.199982"/>
      <use xlink:href="#STIXGeneral-Regular-69" x="105.499969"/>
      <use xlink:href="#STIXGeneral-Regular-67" x="133.299957"/>
      <use xlink:href="#STIXGeneral-Regular-69" x="183.299942"/>
      <use xlink:href="#STIXGeneral-Regular-6e" x="211.09993"/>
      <use xlink:href="#STIXGeneral-Regular-61" x="261.099915"/>
      <use xlink:href="#STIXGeneral-Regular-6c" x="305.499908"/>
     </g>
    </g>
   </g>
  </g>
  <g id="axes_2">
   <g id="patch_6">
    <path d="M 16.53 253.452833 
L 242.69 253.452833 
L 242.69 168.617667 
L 16.53 168.617667 
z
" style="fill: #ffffff"/>
   </g>
   <g id="matplotlib.axis_3">
    <g id="xtick_12">
     <g id="line2d_20">
      <g>
       <use xlink:href="#m2473ee9359" x="16.53" y="253.452833" style="fill: #323034; stroke: #323034; stroke-width: 0.8"/>
      </g>
     </g>
    </g>
    <g id="xtick_13">
     <g id="line2d_21">
      <g>
       <use xlink:href="#m2473ee9359" x="38.702549" y="253.452833" style="fill: #323034; stroke: #323034; stroke-width: 0.8"/>
      </g>
     </g>
    </g>
    <g id="xtick_14">
     <g id="line2d_22">
      <g>
       <use xlink:href="#m2473ee9359" x="61.614183" y="253.452833" style="fill: #323034; stroke: #323034; stroke-width: 0.8"/>
      </g>
     </g>
    </g>
    <g id="xtick_15">
     <g id="line2d_23">
      <g>
       <use xlink:href="#m2473ee9359" x="83.786732" y="253.452833" style="fill: #323034; stroke: #323034; stroke-width: 0.8"/>
      </g>
     </g>
    </g>
    <g id="xtick_16">
     <g id="line2d_24">
      <g>
       <use xlink:href="#m2473ee9359" x="106.698366" y="253.452833" style="fill: #323034; stroke: #323034; stroke-width: 0.8"/>
      </g>
     </g>
    </g>
    <g id="xtick_17">
     <g id="line2d_25">
      <g>
       <use xlink:href="#m2473ee9359" x="129.61" y="253.452833" style="fill: #323034; stroke: #323034; stroke-width: 0.8"/>
      </g>
     </g>
    </g>
    <g id="xtick_18">
     <g id="line2d_26">
      <g>
       <use xlink:href="#m2473ee9359" x="151.782549" y="253.452833" style="fill: #323034; stroke: #323034; stroke-width: 0.8"/>
      </g>
     </g>
    </g>
    <g id="xtick_19">
     <g id="line2d_27">
      <g>
       <use xlink:href="#m2473ee9359" x="174.694183" y="253.452833" style="fill: #323034; stroke: #323034; stroke-width: 0.8"/>
      </g>
     </g>
    </g>
    <g id="xtick_20">
     <g id="line2d_28">
      <g>
       <use xlink:href="#m2473ee9359" x="196.866732" y="253.452833" style="fill: #323034; stroke: #323034; stroke-width: 0.8"/>
      </g>
     </g>
    </g>
    <g id="xtick_21">
     <g id="line2d_29">
      <g>
       <use xlink:href="#m2473ee9359" x="219.778366" y="253.452833" style="fill: #323034; stroke: #323034; stroke-width: 0.8"/>
      </g>
     </g>
    </g>
    <g id="xtick_22">
     <g id="line2d_30">
      <g>
       <use xlink:href="#m2473ee9359" x="242.69" y="253.452833" style="fill: #323034; stroke: #323034; stroke-width: 0.8"/>
      </g>
     </g>
    </g>
   </g>
   <g id="matplotlib.axis_4">
    <g id="ytick_5">
     <g id="line2d_31">
      <g>
       <use xlink:href="#ma8d67275f5" x="242.69" y="253.452833" style="fill: #323034; stroke: #323034; stroke-width: 0.8"/>
      </g>
     </g>
     <g id="text_6">
      <!-- $\mathdefault{−0.2}$ -->
      <g style="fill: #323034" transform="translate(249.69 257.550646)scale(0.12 -0.12)">
       <defs>
        <path id="STIXGeneral-Regular-2212" d="M 3974 1408 
L 410 1408 
L 410 1830 
L 3974 1830 
L 3974 1408 
z
" transform="scale(0.015625)"/>
        <path id="STIXGeneral-Regular-2e" d="M 1158 275 
Q 1158 134 1052 32 
Q 947 -70 800 -70 
Q 653 -70 550 32 
Q 448 134 448 281 
Q 448 429 553 534 
Q 659 640 806 640 
Q 947 640 1052 531 
Q 1158 422 1158 275 
z
" transform="scale(0.015625)"/>
       </defs>
       <use xlink:href="#STIXGeneral-Regular-2212" transform="translate(0 0.40625)"/>
       <use xlink:href="#STIXGeneral-Regular-30" transform="translate(68.499985 0.40625)"/>
       <use xlink:href="#STIXGeneral-Regular-2e" transform="translate(118.499969 0.40625)"/>
       <use xlink:href="#STIXGeneral-Regular-32" transform="translate(143.499954 0.40625)"/>
      </g>
     </g>
    </g>
    <g id="ytick_6">
     <g id="line2d_32">
      <g>
       <use xlink:href="#ma8d67275f5" x="242.69" y="211.03525" style="fill: #323034; stroke: #323034; stroke-width: 0.8"/>
      </g>
     </g>
     <g id="text_7">
      <!-- $\mathdefault{0.0}$ -->
      <g style="fill: #323034" transform="translate(249.69 215.133062)scale(0.12 -0.12)">
       <use xlink:href="#STIXGeneral-Regular-30" transform="translate(0 0.40625)"/>
       <use xlink:href="#STIXGeneral-Regular-2e" transform="translate(49.999985 0.40625)"/>
       <use xlink:href="#STIXGeneral-Regular-30" transform="translate(74.999969 0.40625)"/>
      </g>
     </g>
    </g>
    <g id="ytick_7">
     <g id="line2d_33">
      <g>
       <use xlink:href="#ma8d67275f5" x="242.69" y="168.617667" style="fill: #323034; stroke: #323034; stroke-width: 0.8"/>
      </g>
     </g>
     <g id="text_8">
      <!-- $\mathdefault{0.2}$ -->
      <g style="fill: #323034" transform="translate(249.69 172.715479)scale(0.12 -0.12)">
       <use xlink:href="#STIXGeneral-Regular-30" transform="translate(0 0.40625)"/>
       <use xlink:href="#STIXGeneral-Regular-2e" transform="translate(49.999985 0.40625)"/>
       <use xlink:href="#STIXGeneral-Regular-32" transform="translate(74.999969 0.40625)"/>
      </g>
     </g>
    </g>
    <g id="ytick_8">
     <g id="line2d_34">
      <g>
       <use xlink:href="#m70b5522e2f" x="242.69" y="232.244042" style="fill: #323034; stroke: #323034; stroke-width: 0.6"/>
      </g>
     </g>
    </g>
    <g id="ytick_9">
     <g id="line2d_35">
      <g>
       <use xlink:href="#m70b5522e2f" x="242.69" y="189.826458" style="fill: #323034; stroke: #323034; stroke-width: 0.6"/>
      </g>
     </g>
    </g>
   </g>
   <g id="line2d_36">
    <path d="M 16.53 207.587225 
L 17.269085 194.086457 
L 18.00817 183.34364 
L 18.747255 203.901011 
L 19.48634 243.973481 
L 20.225425 225.98078 
L 20.96451 218.374156 
L 21.703595 207.587225 
L 22.44268 194.086457 
L 23.181765 183.34364 
L 23.92085 203.901011 
L 24.659935 243.973481 
L 25.39902 225.98078 
L 26.138105 218.374156 
L 26.87719 207.587225 
L 27.616275 194.086457 
L 28.355359 183.34364 
L 29.094444 203.901011 
L 29.833529 243.973481 
L 30.572614 225.98078 
L 31.311699 218.374156 
L 32.050784 207.587225 
L 32.789869 194.086457 
L 33.528954 183.34364 
L 34.268039 203.901011 
L 35.007124 243.973481 
L 35.746209 225.98078 
L 36.485294 218.374156 
L 37.224379 207.587225 
L 37.963464 194.086457 
L 38.702549 183.34364 
L 39.441634 203.901011 
L 40.180719 243.973481 
L 40.919804 225.98078 
L 41.658889 218.374156 
L 42.397974 207.587225 
L 43.137059 194.086457 
L 43.876144 183.34364 
L 44.615229 203.901011 
L 45.354314 243.973481 
L 46.093399 225.98078 
L 46.832484 218.374156 
L 47.571569 207.587225 
L 48.310654 194.086457 
L 49.049739 183.34364 
L 49.788824 203.901011 
L 50.527908 243.973481 
L 51.266993 225.98078 
L 52.006078 218.374156 
L 52.745163 207.587225 
L 53.484248 194.086457 
L 54.223333 183.34364 
L 54.962418 203.901011 
L 55.701503 243.973481 
L 56.440588 225.98078 
L 57.179673 218.374156 
L 57.918758 207.587225 
L 58.657843 194.086457 
L 59.396928 183.34364 
L 60.136013 203.901011 
L 60.875098 243.973481 
L 61.614183 225.98078 
L 62.353268 218.374156 
L 63.092353 207.587225 
L 63.831438 194.086457 
L 64.570523 183.34364 
L 65.309608 203.901011 
L 66.048693 243.973481 
L 66.787778 225.98078 
L 67.526863 218.374156 
L 68.265948 207.587225 
L 69.005033 194.086457 
L 69.744118 183.34364 
L 70.483203 203.901011 
L 71.222288 243.973481 
L 71.961373 225.98078 
L 72.700458 218.374156 
L 73.439542 207.587225 
L 74.178627 194.086457 
L 74.917712 183.34364 
L 75.656797 203.901011 
L 76.395882 243.973481 
L 77.134967 225.98078 
L 77.874052 218.374156 
L 78.613137 207.587225 
L 79.352222 194.086457 
L 80.091307 183.34364 
L 80.830392 203.901011 
L 81.569477 243.973481 
L 82.308562 225.98078 
L 83.047647 218.374156 
L 83.786732 207.587225 
L 84.525817 194.086457 
L 85.264902 183.34364 
L 86.003987 203.901011 
L 86.743072 243.973481 
L 87.482157 225.98078 
L 88.221242 218.374156 
L 88.960327 207.587225 
L 89.699412 194.086457 
L 90.438497 183.34364 
L 91.177582 203.901011 
L 91.916667 243.973481 
L 92.655752 225.98078 
L 93.394837 218.374156 
L 94.133922 207.587225 
L 94.873007 194.086457 
L 95.612092 183.34364 
L 96.351176 203.901011 
L 97.090261 243.973481 
L 97.829346 225.98078 
L 98.568431 218.374156 
L 99.307516 207.587225 
L 100.046601 194.086457 
L 100.785686 183.34364 
L 101.524771 203.901011 
L 102.263856 243.973481 
L 103.002941 225.98078 
L 103.742026 218.374156 
L 104.481111 207.587225 
L 105.220196 194.086457 
L 105.959281 183.34364 
L 106.698366 203.901011 
L 107.437451 243.973481 
L 108.176536 225.98078 
L 108.915621 218.374156 
L 109.654706 207.587225 
L 110.393791 194.086457 
L 111.132876 183.34364 
L 111.871961 203.901011 
L 112.611046 243.973481 
L 113.350131 225.98078 
L 114.089216 218.374156 
L 114.828301 207.587225 
L 115.567386 194.086457 
L 116.306471 183.34364 
L 117.045556 203.901011 
L 117.784641 243.973481 
L 118.523725 225.98078 
L 119.26281 218.374156 
L 120.001895 207.587225 
L 120.74098 194.086457 
L 121.480065 183.34364 
L 122.21915 203.901011 
L 122.958235 243.973481 
L 123.69732 225.98078 
L 124.436405 218.374156 
L 125.17549 207.587225 
L 125.914575 194.086457 
L 126.65366 183.34364 
L 127.392745 203.901011 
L 128.13183 243.973481 
L 128.870915 225.98078 
L 129.61 218.374156 
L 130.349085 207.587225 
L 131.08817 194.086457 
L 131.827255 183.34364 
L 132.56634 203.901011 
L 133.305425 243.973481 
L 134.04451 225.98078 
L 134.783595 218.374156 
L 135.52268 207.587225 
L 136.261765 194.086457 
L 137.00085 183.34364 
L 137.739935 203.901011 
L 138.47902 243.973481 
L 139.218105 225.98078 
L 139.95719 218.374156 
L 140.696275 207.587225 
L 141.435359 194.086457 
L 142.174444 183.34364 
L 142.913529 203.901011 
L 143.652614 243.973481 
L 144.391699 225.98078 
L 145.130784 218.374156 
L 145.869869 207.587225 
L 146.608954 194.086457 
L 147.348039 183.34364 
L 148.087124 203.901011 
L 148.826209 243.973481 
L 149.565294 225.98078 
L 150.304379 218.374156 
L 151.043464 207.587225 
L 151.782549 194.086457 
L 152.521634 183.34364 
L 153.260719 203.901011 
L 153.999804 243.973481 
L 154.738889 225.98078 
L 155.477974 218.374156 
L 156.217059 207.587225 
L 156.956144 194.086457 
L 157.695229 183.34364 
L 158.434314 203.901011 
L 159.173399 243.973481 
L 159.912484 225.98078 
L 160.651569 218.374156 
L 161.390654 207.587225 
L 162.129739 194.086457 
L 162.868824 183.34364 
L 163.607908 203.901011 
L 164.346993 243.973481 
L 165.086078 225.98078 
L 165.825163 218.374156 
L 166.564248 207.587225 
L 167.303333 194.086457 
L 168.042418 183.34364 
L 168.781503 203.901011 
L 169.520588 243.973481 
L 170.259673 225.98078 
L 170.998758 218.374156 
L 171.737843 207.587225 
L 172.476928 194.086457 
L 173.216013 183.34364 
L 173.955098 203.901011 
L 174.694183 243.973481 
L 175.433268 225.98078 
L 176.172353 218.374156 
L 176.911438 207.587225 
L 177.650523 194.086457 
L 178.389608 183.34364 
L 179.128693 203.901011 
L 179.867778 243.973481 
L 180.606863 225.98078 
L 181.345948 218.374156 
L 182.085033 207.587225 
L 182.824118 194.086457 
L 183.563203 183.34364 
L 184.302288 203.901011 
L 185.041373 243.973481 
L 185.780458 225.98078 
L 186.519542 218.374156 
L 187.258627 207.587225 
L 187.997712 194.086457 
L 188.736797 183.34364 
L 189.475882 203.901011 
L 190.214967 243.973481 
L 190.954052 225.98078 
L 191.693137 218.374156 
L 192.432222 207.587225 
L 193.171307 194.086457 
L 193.910392 183.34364 
L 194.649477 203.901011 
L 195.388562 243.973481 
L 196.127647 225.98078 
L 196.866732 218.374156 
L 197.605817 207.587225 
L 198.344902 194.086457 
L 199.083987 183.34364 
L 199.823072 203.901011 
L 200.562157 243.973481 
L 201.301242 225.98078 
L 202.040327 218.374156 
L 202.779412 207.587225 
L 203.518497 194.086457 
L 204.257582 183.34364 
L 204.996667 203.901011 
L 205.735752 243.973481 
L 206.474837 225.98078 
L 207.213922 218.374156 
L 207.953007 207.587225 
L 208.692092 194.086457 
L 209.431176 183.34364 
L 210.170261 203.901011 
L 210.909346 243.973481 
L 211.648431 225.98078 
L 212.387516 218.374156 
L 213.126601 207.587225 
L 213.865686 194.086457 
L 214.604771 183.34364 
L 215.343856 203.901011 
L 216.082941 243.973481 
L 216.822026 225.98078 
L 217.561111 218.374156 
L 218.300196 207.587225 
L 219.039281 194.086457 
L 219.778366 183.34364 
L 220.517451 203.901011 
L 221.256536 243.973481 
L 221.995621 225.98078 
L 222.734706 218.374156 
L 223.473791 207.587225 
L 224.212876 194.086457 
L 224.951961 183.34364 
L 225.691046 203.901011 
L 226.430131 243.973481 
L 227.169216 225.98078 
L 227.908301 218.374156 
L 228.647386 207.587225 
L 229.386471 194.086457 
L 230.125556 183.34364 
L 230.864641 203.901011 
L 231.603725 243.973481 
L 232.34281 225.98078 
L 233.081895 218.374156 
L 233.82098 207.587225 
L 234.560065 194.086457 
L 235.29915 183.34364 
L 236.038235 203.901011 
L 236.77732 243.973481 
L 237.516405 225.98078 
L 238.25549 218.374156 
L 238.994575 207.587225 
L 239.73366 194.086457 
L 240.472745 183.34364 
L 241.21183 203.901011 
L 241.950915 243.973481 
L 242.69 225.98078 
L 242.69 225.98078 
" clip-path="url(#p7ad4f4ad23)" style="fill: none; stroke: #0000ff; stroke-opacity: 0.3; stroke-width: 2; stroke-linecap: square"/>
   </g>
   <g id="patch_7">
    <path d="M 242.69 253.452833 
L 242.69 168.617667 
" style="fill: none; stroke: #000000; stroke-width: 0.6; stroke-linejoin: miter; stroke-linecap: square"/>
   </g>
   <g id="patch_8">
    <path d="M 16.53 253.452833 
L 242.69 253.452833 
" style="fill: none; stroke: #000000; stroke-width: 0.6; stroke-linejoin: miter; stroke-linecap: square"/>
   </g>
   <g id="legend_2">
    <g id="patch_9">
     <path d="M 172.138438 186.787979 
L 235.69 186.787979 
Q 237.69 186.787979 237.69 184.787979 
L 237.69 175.617667 
Q 237.69 173.617667 235.69 173.617667 
L 172.138438 173.617667 
Q 170.138438 173.617667 170.138438 175.617667 
L 170.138438 184.787979 
Q 170.138438 186.787979 172.138438 186.787979 
z
" style="fill: #ffffff; opacity: 0.8; stroke: #e6e6e6; stroke-width: 0.8; stroke-linejoin: miter"/>
    </g>
    <g id="line2d_37">
     <path d="M 172.138438 179.117667 
L 182.138438 179.117667 
L 192.138438 179.117667 
" style="fill: none; stroke: #0000ff; stroke-opacity: 0.3; stroke-width: 2; stroke-linecap: square"/>
    </g>
    <g id="text_9">
     <!-- Seasonal -->
     <g style="fill: #323034" transform="translate(200.138438 182.617667)scale(0.1 -0.1)">
      <defs>
       <path id="STIXGeneral-Regular-53" d="M 3002 2963 
L 2842 2963 
Q 2733 3360 2579 3565 
Q 2189 4064 1651 4064 
Q 1357 4064 1181 3894 
Q 1005 3725 1005 3456 
Q 1005 3328 1069 3206 
Q 1133 3085 1206 2998 
Q 1280 2912 1465 2784 
Q 1651 2656 1766 2589 
Q 1882 2522 2150 2362 
Q 2669 2061 2905 1763 
Q 3142 1466 3142 1107 
Q 3142 576 2771 243 
Q 2400 -90 1837 -90 
Q 1421 -90 1082 58 
Q 915 128 781 128 
Q 704 128 653 70 
Q 602 13 602 -83 
L 461 -83 
L 275 1274 
L 416 1274 
Q 845 141 1734 141 
Q 2074 141 2285 342 
Q 2496 544 2496 858 
Q 2496 1158 2310 1363 
Q 2003 1696 1235 2106 
Q 454 2522 454 3206 
Q 454 3718 768 4022 
Q 1082 4326 1568 4326 
Q 1907 4326 2240 4186 
Q 2413 4109 2522 4109 
Q 2688 4109 2726 4326 
L 2861 4326 
L 3002 2963 
z
" transform="scale(0.015625)"/>
      </defs>
      <use xlink:href="#STIXGeneral-Regular-53"/>
      <use xlink:href="#STIXGeneral-Regular-65" x="55.599991"/>
      <use xlink:href="#STIXGeneral-Regular-61" x="99.999985"/>
      <use xlink:href="#STIXGeneral-Regular-73" x="144.399979"/>
      <use xlink:href="#STIXGeneral-Regular-6f" x="183.299973"/>
      <use xlink:href="#STIXGeneral-Regular-6e" x="233.299957"/>
      <use xlink:href="#STIXGeneral-Regular-61" x="283.299942"/>
      <use xlink:href="#STIXGeneral-Regular-6c" x="327.699936"/>
     </g>
    </g>
   </g>
  </g>
  <g id="axes_3">
   <g id="patch_10">
    <path d="M 16.53 360.6155 
L 242.69 360.6155 
L 242.69 275.780333 
L 16.53 275.780333 
z
" style="fill: #ffffff"/>
   </g>
   <g id="matplotlib.axis_5">
    <g id="xtick_23">
     <g id="line2d_38">
      <g>
       <use xlink:href="#m2473ee9359" x="16.53" y="360.6155" style="fill: #323034; stroke: #323034; stroke-width: 0.8"/>
      </g>
     </g>
     <g id="text_10">
      <!-- Apr -->
      <g style="fill: #323034" transform="translate(7.2 375.811125)scale(0.12 -0.12)">
       <defs>
        <path id="STIXGeneral-Regular-41" d="M 4525 0 
L 2893 0 
L 2893 122 
Q 3149 122 3245 179 
Q 3334 224 3334 333 
Q 3334 499 3213 781 
L 2950 1382 
L 1274 1382 
L 979 653 
Q 922 506 922 384 
Q 922 237 1027 179 
Q 1133 122 1370 122 
L 1370 0 
L 96 0 
L 96 122 
Q 365 147 486 316 
Q 608 486 902 1190 
L 2221 4314 
L 2349 4314 
L 3923 710 
Q 4064 378 4176 262 
Q 4288 147 4525 122 
L 4525 0 
z
M 2861 1645 
L 2118 3405 
L 1382 1645 
L 2861 1645 
z
" transform="scale(0.015625)"/>
        <path id="STIXGeneral-Regular-70" d="M 1018 2931 
L 1018 2438 
Q 1421 2944 1939 2944 
Q 2406 2944 2707 2560 
Q 3008 2176 3008 1581 
Q 3008 883 2621 409 
Q 2234 -64 1664 -64 
Q 1466 -64 1328 -6 
Q 1190 51 1018 211 
L 1018 -794 
Q 1018 -1094 1120 -1180 
Q 1222 -1267 1581 -1274 
L 1581 -1389 
L 32 -1389 
L 32 -1280 
Q 314 -1254 397 -1171 
Q 480 -1088 480 -838 
L 480 2157 
Q 480 2381 429 2451 
Q 378 2522 218 2522 
Q 115 2522 58 2515 
L 58 2618 
Q 506 2752 979 2944 
L 1018 2931 
z
M 1018 2138 
L 1018 563 
Q 1018 422 1238 281 
Q 1459 141 1683 141 
Q 2029 141 2243 467 
Q 2458 794 2458 1325 
Q 2458 1888 2243 2224 
Q 2029 2560 1670 2560 
Q 1446 2560 1232 2419 
Q 1018 2278 1018 2138 
z
" transform="scale(0.015625)"/>
       </defs>
       <use xlink:href="#STIXGeneral-Regular-41"/>
       <use xlink:href="#STIXGeneral-Regular-70" x="72.199982"/>
       <use xlink:href="#STIXGeneral-Regular-72" x="122.199966"/>
      </g>
     </g>
    </g>
    <g id="xtick_24">
     <g id="line2d_39">
      <g>
       <use xlink:href="#m2473ee9359" x="38.702549" y="360.6155" style="fill: #323034; stroke: #323034; stroke-width: 0.8"/>
      </g>
     </g>
     <g id="text_11">
      <!-- May -->
      <g style="fill: #323034" transform="translate(27.703799 375.799875)scale(0.12 -0.12)">
       <defs>
        <path id="STIXGeneral-Regular-4d" d="M 5530 0 
L 3738 0 
L 3738 122 
Q 4115 147 4214 265 
Q 4314 384 4314 787 
L 4314 3661 
L 2682 0 
L 2592 0 
L 979 3514 
L 979 966 
Q 979 448 1088 294 
Q 1197 141 1574 122 
L 1574 0 
L 77 0 
L 77 122 
Q 358 141 480 205 
Q 602 269 650 432 
Q 698 595 698 966 
L 698 3514 
Q 698 3878 589 3984 
Q 480 4090 90 4115 
L 90 4237 
L 1357 4237 
L 2835 1024 
L 4250 4237 
L 5523 4237 
L 5523 4115 
Q 5178 4109 5072 3993 
Q 4966 3878 4966 3520 
L 4966 717 
Q 4966 378 5072 262 
Q 5178 147 5530 122 
L 5530 0 
z
" transform="scale(0.015625)"/>
        <path id="STIXGeneral-Regular-79" d="M 3040 2880 
L 3040 2784 
Q 2925 2771 2854 2700 
Q 2784 2630 2720 2458 
L 1760 -160 
Q 1510 -838 1257 -1116 
Q 1005 -1395 640 -1395 
Q 435 -1395 313 -1289 
Q 192 -1184 192 -1024 
Q 192 -902 272 -816 
Q 352 -730 467 -730 
Q 653 -730 800 -813 
Q 883 -858 966 -858 
Q 1101 -858 1286 -576 
Q 1376 -448 1459 -211 
Q 1542 26 1542 115 
Q 1542 198 1274 762 
L 429 2566 
Q 346 2752 90 2790 
L 90 2880 
L 1402 2880 
L 1402 2784 
Q 1197 2778 1117 2739 
Q 1037 2701 1037 2611 
Q 1037 2541 1120 2349 
L 1837 749 
L 2458 2515 
Q 2483 2573 2483 2630 
Q 2483 2784 2189 2784 
L 2189 2880 
L 3040 2880 
z
" transform="scale(0.015625)"/>
       </defs>
       <use xlink:href="#STIXGeneral-Regular-4d"/>
       <use xlink:href="#STIXGeneral-Regular-61" x="88.899994"/>
       <use xlink:href="#STIXGeneral-Regular-79" x="133.299988"/>
      </g>
     </g>
    </g>
    <g id="xtick_25">
     <g id="line2d_40">
      <g>
       <use xlink:href="#m2473ee9359" x="61.614183" y="360.6155" style="fill: #323034; stroke: #323034; stroke-width: 0.8"/>
      </g>
     </g>
     <g id="text_12">
      <!-- Jun -->
      <g style="fill: #323034" transform="translate(53.376371 375.811125)scale(0.12 -0.12)">
       <defs>
        <path id="STIXGeneral-Regular-4a" d="M 2266 4237 
L 2266 4115 
Q 1875 4083 1776 3984 
Q 1677 3885 1677 3514 
L 1677 1184 
Q 1677 -90 608 -90 
Q 314 -90 138 32 
Q -38 154 -38 371 
Q -38 499 54 601 
Q 147 704 275 704 
Q 486 704 589 435 
Q 602 403 621 348 
Q 640 294 649 265 
Q 659 237 678 208 
Q 698 179 723 166 
Q 749 154 787 154 
Q 928 154 976 253 
Q 1024 352 1024 602 
L 1024 3520 
Q 1024 3898 928 3990 
Q 832 4083 429 4115 
L 429 4237 
L 2266 4237 
z
" transform="scale(0.015625)"/>
        <path id="STIXGeneral-Regular-75" d="M 3072 320 
L 3072 230 
Q 2573 96 2195 -58 
L 2163 -38 
L 2163 486 
L 2150 486 
Q 1747 -64 1235 -64 
Q 870 -64 662 160 
Q 454 384 454 755 
L 454 2362 
Q 454 2598 371 2688 
Q 288 2778 58 2790 
L 58 2880 
L 992 2880 
L 992 813 
Q 992 595 1123 451 
Q 1254 307 1446 307 
Q 1760 307 1984 506 
Q 2067 582 2099 649 
Q 2131 717 2131 877 
L 2131 2355 
Q 2131 2605 2041 2678 
Q 1952 2752 1658 2771 
L 1658 2880 
L 2669 2880 
L 2669 685 
Q 2669 461 2742 390 
Q 2816 320 3034 320 
L 3072 320 
z
" transform="scale(0.015625)"/>
       </defs>
       <use xlink:href="#STIXGeneral-Regular-4a"/>
       <use xlink:href="#STIXGeneral-Regular-75" x="37.299988"/>
       <use xlink:href="#STIXGeneral-Regular-6e" x="87.299973"/>
      </g>
     </g>
    </g>
    <g id="xtick_26">
     <g id="line2d_41">
      <g>
       <use xlink:href="#m2473ee9359" x="83.786732" y="360.6155" style="fill: #323034; stroke: #323034; stroke-width: 0.8"/>
      </g>
     </g>
     <g id="text_13">
      <!-- Jul -->
      <g style="fill: #323034" transform="translate(76.881107 375.811125)scale(0.12 -0.12)">
       <use xlink:href="#STIXGeneral-Regular-4a"/>
       <use xlink:href="#STIXGeneral-Regular-75" x="37.299988"/>
       <use xlink:href="#STIXGeneral-Regular-6c" x="87.299973"/>
      </g>
     </g>
    </g>
    <g id="xtick_27">
     <g id="line2d_42">
      <g>
       <use xlink:href="#m2473ee9359" x="106.698366" y="360.6155" style="fill: #323034; stroke: #323034; stroke-width: 0.8"/>
      </g>
     </g>
     <g id="text_14">
      <!-- Aug -->
      <g style="fill: #323034" transform="translate(96.366179 375.799875)scale(0.12 -0.12)">
       <use xlink:href="#STIXGeneral-Regular-41"/>
       <use xlink:href="#STIXGeneral-Regular-75" x="72.199982"/>
       <use xlink:href="#STIXGeneral-Regular-67" x="122.199966"/>
      </g>
     </g>
    </g>
    <g id="xtick_28">
     <g id="line2d_43">
      <g>
       <use xlink:href="#m2473ee9359" x="129.61" y="360.6155" style="fill: #323034; stroke: #323034; stroke-width: 0.8"/>
      </g>
     </g>
     <g id="text_15">
      <!-- Sep -->
      <g style="fill: #323034" transform="translate(120.61 375.811125)scale(0.12 -0.12)">
       <use xlink:href="#STIXGeneral-Regular-53"/>
       <use xlink:href="#STIXGeneral-Regular-65" x="55.599991"/>
       <use xlink:href="#STIXGeneral-Regular-70" x="99.999985"/>
      </g>
     </g>
    </g>
    <g id="xtick_29">
     <g id="line2d_44">
      <g>
       <use xlink:href="#m2473ee9359" x="151.782549" y="360.6155" style="fill: #323034; stroke: #323034; stroke-width: 0.8"/>
      </g>
     </g>
     <g id="text_16">
      <!-- Oct -->
      <g style="fill: #323034" transform="translate(143.118174 375.811125)scale(0.12 -0.12)">
       <defs>
        <path id="STIXGeneral-Regular-74" d="M 1702 493 
L 1786 422 
Q 1478 -64 1011 -64 
Q 448 -64 448 749 
L 448 2675 
L 109 2675 
Q 83 2694 83 2720 
Q 83 2771 192 2842 
Q 435 2982 813 3526 
Q 826 3546 874 3606 
Q 922 3667 941 3706 
Q 986 3706 986 3622 
L 986 2880 
L 1632 2880 
L 1632 2675 
L 986 2675 
L 986 845 
Q 986 538 1062 403 
Q 1139 269 1318 269 
Q 1510 269 1702 493 
z
" transform="scale(0.015625)"/>
       </defs>
       <use xlink:href="#STIXGeneral-Regular-4f"/>
       <use xlink:href="#STIXGeneral-Regular-63" x="72.199982"/>
       <use xlink:href="#STIXGeneral-Regular-74" x="116.599976"/>
      </g>
     </g>
    </g>
    <g id="xtick_30">
     <g id="line2d_45">
      <g>
       <use xlink:href="#m2473ee9359" x="174.694183" y="360.6155" style="fill: #323034; stroke: #323034; stroke-width: 0.8"/>
      </g>
     </g>
     <g id="text_17">
      <!-- Nov -->
      <g style="fill: #323034" transform="translate(164.361996 375.811125)scale(0.12 -0.12)">
       <defs>
        <path id="STIXGeneral-Regular-4e" d="M 4525 4237 
L 4525 4115 
Q 4198 4083 4102 4000 
Q 4000 3910 3958 3756 
Q 3917 3603 3917 3245 
L 3917 -70 
L 3802 -70 
L 979 3443 
L 979 960 
Q 979 474 1088 323 
Q 1197 173 1574 122 
L 1574 0 
L 77 0 
L 77 122 
Q 474 166 586 310 
Q 698 454 698 960 
L 698 3776 
Q 531 3981 416 4048 
Q 301 4115 77 4115 
L 77 4237 
L 1165 4237 
L 3635 1146 
L 3635 3322 
Q 3635 3808 3514 3949 
Q 3437 4032 3344 4061 
Q 3251 4090 3008 4115 
L 3008 4237 
L 4525 4237 
z
" transform="scale(0.015625)"/>
        <path id="STIXGeneral-Regular-76" d="M 3053 2880 
L 3053 2784 
Q 2906 2771 2835 2688 
Q 2765 2605 2637 2285 
L 1818 230 
Q 1690 -90 1638 -90 
Q 1587 -90 1523 77 
Q 1510 96 1497 141 
Q 1485 186 1472 211 
L 704 2048 
Q 499 2534 403 2652 
Q 307 2771 122 2784 
L 122 2880 
L 1376 2880 
L 1376 2784 
Q 1210 2771 1146 2732 
Q 1082 2694 1082 2611 
Q 1082 2509 1139 2368 
L 1792 730 
L 2426 2387 
Q 2464 2483 2464 2579 
Q 2464 2758 2163 2784 
L 2163 2880 
L 3053 2880 
z
" transform="scale(0.015625)"/>
       </defs>
       <use xlink:href="#STIXGeneral-Regular-4e"/>
       <use xlink:href="#STIXGeneral-Regular-6f" x="72.199982"/>
       <use xlink:href="#STIXGeneral-Regular-76" x="122.199966"/>
      </g>
     </g>
    </g>
    <g id="xtick_31">
     <g id="line2d_46">
      <g>
       <use xlink:href="#m2473ee9359" x="196.866732" y="360.6155" style="fill: #323034; stroke: #323034; stroke-width: 0.8"/>
      </g>
     </g>
     <g id="text_18">
      <!-- Dec -->
      <g style="fill: #323034" transform="translate(187.205795 375.811125)scale(0.12 -0.12)">
       <defs>
        <path id="STIXGeneral-Regular-44" d="M 102 4237 
L 1830 4237 
Q 3078 4237 3750 3654 
Q 4384 3110 4384 2138 
Q 4384 966 3514 410 
Q 2880 0 1901 0 
L 102 0 
L 102 122 
Q 474 147 570 252 
Q 666 358 666 736 
L 666 3520 
Q 666 3891 570 3990 
Q 474 4090 102 4115 
L 102 4237 
z
M 1318 3731 
L 1318 538 
Q 1318 365 1379 301 
Q 1440 237 1626 237 
Q 2125 237 2432 307 
Q 2739 378 3021 570 
Q 3686 1018 3686 2099 
Q 3686 3027 3078 3558 
Q 2803 3802 2476 3901 
Q 2150 4000 1658 4000 
Q 1472 4000 1395 3942 
Q 1318 3885 1318 3731 
z
" transform="scale(0.015625)"/>
       </defs>
       <use xlink:href="#STIXGeneral-Regular-44"/>
       <use xlink:href="#STIXGeneral-Regular-65" x="72.199982"/>
       <use xlink:href="#STIXGeneral-Regular-63" x="116.599976"/>
      </g>
     </g>
    </g>
    <g id="xtick_32">
     <g id="line2d_47">
      <g>
       <use xlink:href="#m2473ee9359" x="219.778366" y="360.6155" style="fill: #323034; stroke: #323034; stroke-width: 0.8"/>
      </g>
     </g>
     <g id="text_19">
      <!-- Jan -->
      <g style="fill: #323034" transform="translate(211.876179 375.811125)scale(0.12 -0.12)">
       <use xlink:href="#STIXGeneral-Regular-4a"/>
       <use xlink:href="#STIXGeneral-Regular-61" x="37.299988"/>
       <use xlink:href="#STIXGeneral-Regular-6e" x="81.699982"/>
      </g>
      <!-- 2021 -->
      <g style="fill: #323034" transform="translate(207.778366 388.25025)scale(0.12 -0.12)">
       <use xlink:href="#STIXGeneral-Regular-32"/>
       <use xlink:href="#STIXGeneral-Regular-30" x="49.999985"/>
       <use xlink:href="#STIXGeneral-Regular-32" x="99.999969"/>
       <use xlink:href="#STIXGeneral-Regular-31" x="149.999954"/>
      </g>
     </g>
    </g>
    <g id="xtick_33">
     <g id="line2d_48">
      <g>
       <use xlink:href="#m2473ee9359" x="242.69" y="360.6155" style="fill: #323034; stroke: #323034; stroke-width: 0.8"/>
      </g>
     </g>
     <g id="text_20">
      <!-- Feb -->
      <g style="fill: #323034" transform="translate(233.69 375.811125)scale(0.12 -0.12)">
       <defs>
        <path id="STIXGeneral-Regular-46" d="M 3494 3322 
L 3334 3322 
Q 3264 3757 3094 3875 
Q 2925 3994 2349 3994 
L 1504 3994 
Q 1370 3994 1328 3946 
Q 1286 3898 1286 3744 
L 1286 2355 
L 2195 2355 
Q 2598 2355 2736 2470 
Q 2874 2586 2918 2963 
L 3066 2963 
L 3066 1472 
L 2918 1472 
Q 2880 1862 2745 1977 
Q 2611 2093 2195 2093 
L 1286 2093 
L 1286 717 
Q 1286 352 1392 246 
Q 1498 141 1869 122 
L 1869 0 
L 70 0 
L 70 122 
Q 435 147 534 259 
Q 634 371 634 787 
L 634 3526 
Q 634 3878 538 3984 
Q 442 4090 77 4115 
L 77 4237 
L 3462 4237 
L 3494 3322 
z
" transform="scale(0.015625)"/>
        <path id="STIXGeneral-Regular-62" d="M 979 4358 
L 979 2406 
Q 1082 2650 1315 2797 
Q 1549 2944 1843 2944 
Q 2349 2944 2672 2541 
Q 2995 2138 2995 1536 
Q 2995 832 2566 384 
Q 2138 -64 1498 -64 
Q 1107 -64 774 67 
Q 442 198 442 358 
L 442 3622 
Q 442 3859 384 3926 
Q 326 3994 128 3994 
Q 83 3994 19 3981 
L 19 4090 
L 211 4147 
Q 864 4346 947 4371 
L 979 4358 
z
M 979 2035 
L 979 474 
Q 979 326 1161 233 
Q 1344 141 1600 141 
Q 1978 141 2195 416 
Q 2432 710 2432 1261 
Q 2432 1888 2182 2240 
Q 1971 2541 1613 2541 
Q 1357 2541 1168 2390 
Q 979 2240 979 2035 
z
" transform="scale(0.015625)"/>
       </defs>
       <use xlink:href="#STIXGeneral-Regular-46"/>
       <use xlink:href="#STIXGeneral-Regular-65" x="55.599991"/>
       <use xlink:href="#STIXGeneral-Regular-62" x="99.999985"/>
      </g>
     </g>
    </g>
   </g>
   <g id="matplotlib.axis_6">
    <g id="ytick_10">
     <g id="line2d_49">
      <g>
       <use xlink:href="#ma8d67275f5" x="242.69" y="360.6155" style="fill: #323034; stroke: #323034; stroke-width: 0.8"/>
      </g>
     </g>
     <g id="text_21">
      <!-- $\mathdefault{−1.0}$ -->
      <g style="fill: #323034" transform="translate(249.69 364.713312)scale(0.12 -0.12)">
       <use xlink:href="#STIXGeneral-Regular-2212" transform="translate(0 0.40625)"/>
       <use xlink:href="#STIXGeneral-Regular-31" transform="translate(68.499985 0.40625)"/>
       <use xlink:href="#STIXGeneral-Regular-2e" transform="translate(118.499969 0.40625)"/>
       <use xlink:href="#STIXGeneral-Regular-30" transform="translate(143.499954 0.40625)"/>
      </g>
     </g>
    </g>
    <g id="ytick_11">
     <g id="line2d_50">
      <g>
       <use xlink:href="#ma8d67275f5" x="242.69" y="332.337111" style="fill: #323034; stroke: #323034; stroke-width: 0.8"/>
      </g>
     </g>
     <g id="text_22">
      <!-- $\mathdefault{−0.5}$ -->
      <g style="fill: #323034" transform="translate(249.69 336.434924)scale(0.12 -0.12)">
       <defs>
        <path id="STIXGeneral-Regular-35" d="M 2803 4358 
L 2573 3814 
Q 2534 3731 2400 3731 
L 1158 3731 
L 902 3187 
Q 1606 3053 1920 2896 
Q 2234 2739 2502 2368 
Q 2726 2061 2726 1555 
Q 2726 1094 2576 780 
Q 2426 467 2099 224 
Q 1664 -90 1011 -90 
Q 646 -90 422 19 
Q 198 128 198 307 
Q 198 550 486 550 
Q 717 550 960 352 
Q 1210 147 1414 147 
Q 1747 147 2012 480 
Q 2278 813 2278 1229 
Q 2278 1843 1850 2189 
Q 1293 2637 486 2637 
Q 410 2637 410 2688 
L 416 2720 
L 1114 4237 
L 2438 4237 
Q 2547 4237 2608 4269 
Q 2669 4301 2746 4403 
L 2803 4358 
z
" transform="scale(0.015625)"/>
       </defs>
       <use xlink:href="#STIXGeneral-Regular-2212" transform="translate(0 0.203125)"/>
       <use xlink:href="#STIXGeneral-Regular-30" transform="translate(68.499985 0.203125)"/>
       <use xlink:href="#STIXGeneral-Regular-2e" transform="translate(118.499969 0.203125)"/>
       <use xlink:href="#STIXGeneral-Regular-35" transform="translate(143.499954 0.203125)"/>
      </g>
     </g>
    </g>
    <g id="ytick_12">
     <g id="line2d_51">
      <g>
       <use xlink:href="#ma8d67275f5" x="242.69" y="304.058722" style="fill: #323034; stroke: #323034; stroke-width: 0.8"/>
      </g>
     </g>
     <g id="text_23">
      <!-- $\mathdefault{0.0}$ -->
      <g style="fill: #323034" transform="translate(249.69 308.156535)scale(0.12 -0.12)">
       <use xlink:href="#STIXGeneral-Regular-30" transform="translate(0 0.40625)"/>
       <use xlink:href="#STIXGeneral-Regular-2e" transform="translate(49.999985 0.40625)"/>
       <use xlink:href="#STIXGeneral-Regular-30" transform="translate(74.999969 0.40625)"/>
      </g>
     </g>
    </g>
    <g id="ytick_13">
     <g id="line2d_52">
      <g>
       <use xlink:href="#ma8d67275f5" x="242.69" y="275.780333" style="fill: #323034; stroke: #323034; stroke-width: 0.8"/>
      </g>
     </g>
     <g id="text_24">
      <!-- $\mathdefault{0.5}$ -->
      <g style="fill: #323034" transform="translate(249.69 279.878146)scale(0.12 -0.12)">
       <use xlink:href="#STIXGeneral-Regular-30" transform="translate(0 0.203125)"/>
       <use xlink:href="#STIXGeneral-Regular-2e" transform="translate(49.999985 0.203125)"/>
       <use xlink:href="#STIXGeneral-Regular-35" transform="translate(74.999969 0.203125)"/>
      </g>
     </g>
    </g>
    <g id="ytick_14">
     <g id="line2d_53">
      <g>
       <use xlink:href="#m70b5522e2f" x="242.69" y="346.476306" style="fill: #323034; stroke: #323034; stroke-width: 0.6"/>
      </g>
     </g>
    </g>
    <g id="ytick_15">
     <g id="line2d_54">
      <g>
       <use xlink:href="#m70b5522e2f" x="242.69" y="318.197917" style="fill: #323034; stroke: #323034; stroke-width: 0.6"/>
      </g>
     </g>
    </g>
    <g id="ytick_16">
     <g id="line2d_55">
      <g>
       <use xlink:href="#m70b5522e2f" x="242.69" y="289.919528" style="fill: #323034; stroke: #323034; stroke-width: 0.6"/>
      </g>
     </g>
    </g>
   </g>
   <g id="line2d_56">
    <path d="M 18.747255 297.060828 
L 19.48634 305.535808 
L 20.225425 300.950241 
L 20.96451 304.331635 
L 21.703595 303.691015 
L 22.44268 302.860328 
L 23.181765 306.288227 
L 23.92085 302.814031 
L 24.659935 300.474198 
L 25.39902 307.457656 
L 26.138105 307.009344 
L 26.87719 302.320007 
L 27.616275 302.463192 
L 28.355359 306.008683 
L 29.094444 306.041669 
L 29.833529 301.482827 
L 30.572614 302.392118 
L 31.311699 309.684794 
L 32.050784 307.199753 
L 32.789869 302.281951 
L 33.528954 299.043925 
L 34.268039 296.994962 
L 35.007124 299.914717 
L 35.746209 311.878764 
L 36.485294 309.830706 
L 37.224379 307.253396 
L 38.702549 299.166824 
L 39.441634 301.398045 
L 40.180719 296.853102 
L 40.919804 310.983878 
L 41.658889 307.024393 
L 42.397974 306.648641 
L 43.137059 299.725706 
L 43.876144 302.480053 
L 44.615229 302.497161 
L 45.354314 302.050135 
L 46.093399 314.458574 
L 46.832484 302.744922 
L 47.571569 308.226638 
L 48.310654 297.546601 
L 49.049739 303.682444 
L 49.788824 303.555833 
L 50.527908 305.935313 
L 51.266993 302.553159 
L 52.006078 306.040118 
L 52.745163 303.048154 
L 53.484248 300.891021 
L 54.223333 307.096299 
L 54.962418 304.530837 
L 55.701503 298.154696 
L 56.440588 304.563999 
L 57.179673 307.450102 
L 57.918758 311.182993 
L 58.657843 304.663053 
L 59.396928 303.735172 
L 60.136013 301.74137 
L 60.875098 298.681507 
L 61.614183 299.791406 
L 62.353268 306.016241 
L 63.092353 310.813145 
L 63.831438 309.150492 
L 64.570523 294.474711 
L 65.309608 301.924 
L 66.048693 303.077683 
L 66.787778 309.704231 
L 67.526863 308.945035 
L 68.265948 301.750486 
L 69.005033 304.711094 
L 69.744118 303.05616 
L 70.483203 300.191466 
L 71.222288 306.326485 
L 71.961373 309.814998 
L 72.700458 301.351171 
L 73.439542 304.397814 
L 74.178627 305.528214 
L 74.917712 306.408891 
L 75.656797 301.556787 
L 76.395882 304.796062 
L 77.134967 304.545792 
L 77.874052 301.778999 
L 78.613137 303.874455 
L 79.352222 304.677523 
L 80.091307 303.953136 
L 80.830392 305.235039 
L 81.569477 300.84078 
L 82.308562 308.077152 
L 83.047647 300.457888 
L 83.786732 302.862776 
L 84.525817 301.482022 
L 86.003987 307.178918 
L 86.743072 304.155553 
L 87.482157 306.427996 
L 88.221242 302.326173 
L 88.960327 301.416433 
L 89.699412 306.670456 
L 90.438497 304.290331 
L 91.177582 306.960001 
L 91.916667 300.182932 
L 92.655752 303.306569 
L 93.394837 302.057885 
L 94.133922 302.847167 
L 94.873007 301.275751 
L 95.612092 307.593953 
L 96.351176 309.266592 
L 97.090261 298.903705 
L 97.829346 305.281808 
L 98.568431 302.728217 
L 99.307516 302.406219 
L 100.046601 304.67076 
L 100.785686 304.665761 
L 101.524771 304.35718 
L 102.263856 305.104693 
L 103.002941 304.824994 
L 103.742026 302.709748 
L 104.481111 301.089761 
L 105.220196 302.357812 
L 105.959281 303.328663 
L 106.698366 307.567079 
L 107.437451 301.471591 
L 108.176536 308.615731 
L 108.915621 302.860603 
L 109.654706 305.324654 
L 111.132876 304.02986 
L 111.871961 304.273921 
L 112.611046 301.053663 
L 113.350131 306.897146 
L 114.089216 301.733666 
L 114.828301 302.956216 
L 115.567386 305.650029 
L 116.306471 301.265784 
L 117.045556 303.065996 
L 117.784641 301.011503 
L 118.523725 311.071324 
L 119.26281 303.525559 
L 120.001895 305.724833 
L 120.74098 303.336489 
L 121.480065 303.258878 
L 122.21915 301.773518 
L 122.958235 310.207623 
L 123.69732 302.366311 
L 124.436405 305.790707 
L 125.17549 300.503927 
L 125.914575 303.516859 
L 126.65366 304.666501 
L 127.392745 302.566891 
L 128.13183 305.528652 
L 128.870915 305.474451 
L 129.61 297.758395 
L 130.349085 317.490846 
L 131.08817 299.984643 
L 131.827255 293.29043 
L 132.56634 296.264128 
L 133.305425 305.169524 
L 134.04451 318.300922 
L 135.52268 305.950691 
L 136.261765 302.901527 
L 137.00085 296.246331 
L 137.739935 304.299354 
L 138.47902 303.951379 
L 139.218105 304.445125 
L 139.95719 303.230546 
L 140.696275 306.574361 
L 141.435359 302.779255 
L 142.174444 304.567122 
L 142.913529 307.54269 
L 143.652614 305.219546 
L 144.391699 286.635025 
L 145.130784 311.329674 
L 145.869869 308.411692 
L 146.608954 307.450153 
L 147.348039 296.53637 
L 148.087124 306.204168 
L 148.826209 303.259756 
L 149.565294 308.177996 
L 150.304379 301.195627 
L 151.043464 307.143282 
L 151.782549 304.665595 
L 152.521634 303.561297 
L 153.260719 304.404268 
L 153.999804 313.090115 
L 154.738889 286.847164 
L 155.477974 310.902304 
L 156.217059 302.382438 
L 156.956144 304.479208 
L 157.695229 302.694655 
L 158.434314 306.628114 
L 159.173399 304.98829 
L 159.912484 307.036986 
L 160.651569 303.452567 
L 161.390654 301.091344 
L 162.129739 300.260152 
L 162.868824 301.367677 
L 163.607908 313.121536 
L 164.346993 308.494521 
L 165.086078 296.750997 
L 165.825163 304.674278 
L 166.564248 307.467152 
L 168.042418 300.741777 
L 168.781503 301.55643 
L 169.520588 308.357378 
L 170.259673 302.058426 
L 170.998758 305.551598 
L 171.737843 303.557667 
L 172.476928 303.146859 
L 173.216013 302.410335 
L 173.955098 308.328743 
L 174.694183 307.044451 
L 175.433268 300.812497 
L 176.172353 306.10973 
L 176.911438 303.383768 
L 177.650523 303.109355 
L 178.389608 303.511125 
L 179.128693 304.380208 
L 179.867778 307.149744 
L 180.606863 301.181628 
L 181.345948 301.861951 
L 182.085033 305.281698 
L 182.824118 303.44001 
L 183.563203 302.426154 
L 184.302288 305.59565 
L 185.041373 305.600704 
L 185.780458 299.693621 
L 186.519542 304.160184 
L 187.258627 304.058237 
L 187.997712 303.19646 
L 188.736797 303.34701 
L 189.475882 306.866522 
L 190.214967 307.861585 
L 190.954052 294.043673 
L 191.693137 296.909319 
L 192.432222 297.896569 
L 193.171307 332.984061 
L 193.910392 296.13061 
L 194.649477 308.302451 
L 195.388562 304.50764 
L 196.127647 303.569214 
L 196.866732 301.211909 
L 197.605817 301.588425 
L 199.083987 303.63624 
L 199.823072 306.225859 
L 200.562157 306.399849 
L 201.301242 301.668038 
L 202.040327 301.186266 
L 203.518497 306.76677 
L 204.257582 297.296117 
L 204.996667 308.123196 
L 205.735752 305.050861 
L 206.474837 305.368743 
L 207.213922 305.884487 
L 207.953007 297.659195 
L 208.692092 302.736899 
L 209.431176 302.507262 
L 210.170261 311.604006 
L 210.909346 304.570744 
L 211.648431 301.292265 
L 212.387516 295.920607 
L 213.126601 292.810445 
L 213.865686 304.270445 
L 214.604771 343.43012 
L 215.343856 294.66807 
L 216.082941 304.08986 
L 216.822026 298.027791 
L 217.561111 299.62075 
L 218.300196 297.535174 
L 219.039281 302.909289 
L 219.778366 333.565861 
L 220.517451 290.700723 
L 221.256536 301.742394 
L 221.995621 295.571877 
L 222.734706 307.279239 
L 223.473791 304.144198 
L 224.212876 302.858038 
L 224.951961 300.878833 
L 225.691046 305.24709 
L 226.430131 304.42752 
L 227.169216 303.261461 
L 227.908301 302.553578 
L 228.647386 303.814094 
L 229.386471 303.316845 
L 230.125556 302.288096 
L 230.864641 304.792389 
L 231.603725 302.169375 
L 232.34281 315.672745 
L 233.081895 299.986433 
L 233.82098 301.804363 
L 234.560065 301.709918 
L 235.29915 305.092991 
L 236.038235 305.318187 
L 236.77732 307.837441 
L 237.516405 300.871414 
L 238.25549 303.861438 
L 238.994575 303.008192 
L 239.73366 301.913247 
L 240.472745 304.499678 
L 240.472745 304.499678 
" clip-path="url(#pc4545c9dbd)" style="fill: none; stroke: #ff0000; stroke-opacity: 0.4; stroke-width: 2; stroke-linecap: square"/>
   </g>
   <g id="patch_11">
    <path d="M 242.69 360.6155 
L 242.69 275.780333 
" style="fill: none; stroke: #000000; stroke-width: 0.6; stroke-linejoin: miter; stroke-linecap: square"/>
   </g>
   <g id="patch_12">
    <path d="M 16.53 360.6155 
L 242.69 360.6155 
" style="fill: none; stroke: #000000; stroke-width: 0.6; stroke-linejoin: miter; stroke-linecap: square"/>
   </g>
   <g id="legend_3">
    <g id="patch_13">
     <path d="M 23.53 293.950646 
L 72.628438 293.950646 
Q 74.628438 293.950646 74.628438 291.950646 
L 74.628438 282.780333 
Q 74.628438 280.780333 72.628438 280.780333 
L 23.53 280.780333 
Q 21.53 280.780333 21.53 282.780333 
L 21.53 291.950646 
Q 21.53 293.950646 23.53 293.950646 
z
" style="fill: #ffffff; opacity: 0.8; stroke: #e6e6e6; stroke-width: 0.8; stroke-linejoin: miter"/>
    </g>
    <g id="line2d_57">
     <path d="M 23.53 286.280333 
L 33.53 286.280333 
L 43.53 286.280333 
" style="fill: none; stroke: #ff0000; stroke-opacity: 0.4; stroke-width: 2; stroke-linecap: square"/>
    </g>
    <g id="text_25">
     <!-- Error -->
     <g style="fill: #323034" transform="translate(51.53 289.780333)scale(0.1 -0.1)">
      <defs>
       <path id="STIXGeneral-Regular-45" d="M 3821 1082 
L 3526 0 
L 77 0 
L 77 122 
Q 442 147 538 252 
Q 634 358 634 730 
L 634 3520 
Q 634 3878 534 3987 
Q 435 4096 77 4115 
L 77 4237 
L 3469 4237 
L 3494 3322 
L 3334 3322 
Q 3264 3750 3085 3872 
Q 2906 3994 2349 3994 
L 1510 3994 
Q 1370 3994 1328 3952 
Q 1286 3910 1286 3763 
L 1286 2355 
L 2253 2355 
Q 2656 2355 2787 2470 
Q 2918 2586 2976 2970 
L 3123 2970 
L 3123 1472 
L 2976 1472 
Q 2918 1875 2790 1984 
Q 2662 2093 2253 2093 
L 1286 2093 
L 1286 538 
Q 1286 346 1420 291 
Q 1555 237 1933 237 
L 2163 237 
Q 2848 237 3136 403 
Q 3424 570 3642 1082 
L 3821 1082 
z
" transform="scale(0.015625)"/>
      </defs>
      <use xlink:href="#STIXGeneral-Regular-45"/>
      <use xlink:href="#STIXGeneral-Regular-72" x="61.099991"/>
      <use xlink:href="#STIXGeneral-Regular-72" x="94.399979"/>
      <use xlink:href="#STIXGeneral-Regular-6f" x="127.699966"/>
      <use xlink:href="#STIXGeneral-Regular-72" x="177.699951"/>
     </g>
    </g>
   </g>
  </g>
  <g id="text_26">
   <!-- Classical Decomposition -->
   <g style="fill: #323034" transform="translate(50.618906 19.493437)scale(0.18 -0.18)">
    <defs>
     <path id="STIXGeneral-Regular-43" d="M 3930 838 
L 4051 723 
Q 3482 -90 2304 -90 
Q 1376 -90 794 480 
Q 179 1082 179 2080 
Q 179 3014 755 3661 
Q 1357 4326 2310 4326 
Q 2720 4326 3072 4230 
Q 3475 4115 3514 4115 
Q 3725 4115 3782 4326 
L 3910 4326 
L 3968 2874 
L 3821 2874 
Q 3718 3334 3488 3584 
Q 3034 4070 2458 4070 
Q 1747 4070 1334 3548 
Q 922 3027 922 2182 
Q 922 1152 1382 653 
Q 1811 192 2522 192 
Q 2944 192 3251 339 
Q 3558 486 3930 838 
z
" transform="scale(0.015625)"/>
     <path id="STIXGeneral-Regular-6d" d="M 4960 0 
L 3565 0 
L 3565 96 
Q 3834 122 3907 208 
Q 3981 294 3981 576 
L 3981 1894 
Q 3981 2278 3869 2444 
Q 3757 2611 3488 2611 
Q 3264 2611 3107 2521 
Q 2950 2432 2803 2221 
L 2803 608 
Q 2803 301 2896 201 
Q 2989 102 3264 96 
L 3264 0 
L 1830 0 
L 1830 96 
Q 2112 115 2189 188 
Q 2266 262 2266 550 
L 2266 1901 
Q 2266 2611 1850 2611 
Q 1670 2611 1468 2531 
Q 1267 2451 1171 2336 
Q 1088 2240 1088 2227 
L 1088 448 
Q 1088 243 1177 176 
Q 1267 109 1523 96 
L 1523 0 
L 102 0 
L 102 96 
Q 371 102 460 195 
Q 550 288 550 563 
L 550 2150 
Q 550 2387 499 2480 
Q 448 2573 326 2573 
Q 230 2573 122 2547 
L 122 2656 
Q 557 2778 1011 2944 
L 1062 2925 
L 1062 2451 
L 1075 2451 
Q 1363 2752 1584 2848 
Q 1805 2944 2054 2944 
Q 2560 2944 2733 2406 
Q 3232 2944 3776 2944 
Q 4518 2944 4518 1792 
L 4518 493 
Q 4518 282 4582 202 
Q 4646 122 4794 109 
L 4960 96 
L 4960 0 
z
" transform="scale(0.015625)"/>
    </defs>
    <use xlink:href="#STIXGeneral-Regular-43"/>
    <use xlink:href="#STIXGeneral-Regular-6c" x="66.699997"/>
    <use xlink:href="#STIXGeneral-Regular-61" x="94.499985"/>
    <use xlink:href="#STIXGeneral-Regular-73" x="138.899979"/>
    <use xlink:href="#STIXGeneral-Regular-73" x="177.799973"/>
    <use xlink:href="#STIXGeneral-Regular-69" x="216.699966"/>
    <use xlink:href="#STIXGeneral-Regular-63" x="244.499954"/>
    <use xlink:href="#STIXGeneral-Regular-61" x="288.899948"/>
    <use xlink:href="#STIXGeneral-Regular-6c" x="333.299942"/>
    <use xlink:href="#STIXGeneral-Regular-20" x="361.09993"/>
    <use xlink:href="#STIXGeneral-Regular-44" x="386.099915"/>
    <use xlink:href="#STIXGeneral-Regular-65" x="458.299896"/>
    <use xlink:href="#STIXGeneral-Regular-63" x="502.69989"/>
    <use xlink:href="#STIXGeneral-Regular-6f" x="547.099884"/>
    <use xlink:href="#STIXGeneral-Regular-6d" x="597.099869"/>
    <use xlink:href="#STIXGeneral-Regular-70" x="674.899857"/>
    <use xlink:href="#STIXGeneral-Regular-6f" x="724.899841"/>
    <use xlink:href="#STIXGeneral-Regular-73" x="774.899826"/>
    <use xlink:href="#STIXGeneral-Regular-69" x="813.79982"/>
    <use xlink:href="#STIXGeneral-Regular-74" x="841.599808"/>
    <use xlink:href="#STIXGeneral-Regular-69" x="869.399796"/>
    <use xlink:href="#STIXGeneral-Regular-6f" x="897.199783"/>
    <use xlink:href="#STIXGeneral-Regular-6e" x="947.199768"/>
   </g>
  </g>
 </g>
 <defs>
  <clipPath id="p4ee666a1cb">
   <rect x="16.53" y="61.455" width="226.16" height="84.835167"/>
  </clipPath>
  <clipPath id="p7ad4f4ad23">
   <rect x="16.53" y="168.617667" width="226.16" height="84.835167"/>
  </clipPath>
  <clipPath id="pc4545c9dbd">
   <rect x="16.53" y="275.780333" width="226.16" height="84.835167"/>
  </clipPath>
 </defs>
</svg>
