<?xml version="1.0" encoding="utf-8" standalone="no"?>
<!DOCTYPE svg PUBLIC "-//W3C//DTD SVG 1.1//EN"
  "http://www.w3.org/Graphics/SVG/1.1/DTD/svg11.dtd">
<svg height="280.3675pt" version="1.1" viewBox="0 0 362.2 280.3675" width="362.2pt" xmlns="http://www.w3.org/2000/svg" xmlns:xlink="http://www.w3.org/1999/xlink">
 <metadata>
  <rdf:RDF xmlns:cc="http://creativecommons.org/ns#" xmlns:dc="http://purl.org/dc/elements/1.1/" xmlns:rdf="http://www.w3.org/1999/02/22-rdf-syntax-ns#">
   <cc:Work>
    <dc:type rdf:resource="http://purl.org/dc/dcmitype/StillImage"/>
    <dc:date>2022-08-20T18:04:27.940150</dc:date>
    <dc:format>image/svg+xml</dc:format>
    <dc:creator>
     <cc:Agent>
      <dc:title>Matplotlib v3.4.3, https://matplotlib.org/</dc:title>
     </cc:Agent>
    </dc:creator>
   </cc:Work>
  </rdf:RDF>
 </metadata>
 <defs>
  <style type="text/css">*{stroke-linecap:butt;stroke-linejoin:round;}</style>
 </defs>
 <g id="figure_1">
  <g id="patch_1">
   <path d="M 0 280.3675 
L 362.2 280.3675 
L 362.2 0 
L 0 0 
z
" style="fill:none;"/>
  </g>
  <g id="axes_1">
   <g id="patch_2">
    <path d="M 20.2 241.5675 
L 355 241.5675 
L 355 24.1275 
L 20.2 24.1275 
z
" style="fill:#ffffff;"/>
   </g>
   <g id="matplotlib.axis_1">
    <g id="xtick_1">
     <g id="line2d_1">
      <defs>
       <path d="M 0 0 
L 0 3.5 
" id="mfe3a291003" style="stroke:#323034;stroke-width:0.8;"/>
      </defs>
      <g>
       <use style="fill:#323034;stroke:#323034;stroke-width:0.8;" x="20.2" xlink:href="#mfe3a291003" y="241.5675"/>
      </g>
     </g>
     <g id="text_1">
      <!-- 1919 -->
      <g style="fill:#323034;" transform="translate(8.2 256.763125)scale(0.12 -0.12)">
       <defs>
        <path d="M 2522 0 
L 755 0 
L 755 96 
Q 1107 115 1235 227 
Q 1363 339 1363 608 
L 1363 3482 
Q 1363 3795 1171 3795 
Q 1082 3795 883 3718 
L 710 3654 
L 710 3744 
L 1856 4326 
L 1914 4307 
L 1914 486 
Q 1914 275 2042 185 
Q 2170 96 2522 96 
L 2522 0 
z
" id="STIXGeneral-Regular-31" transform="scale(0.015625)"/>
        <path d="M 378 -141 
L 358 -13 
Q 1094 115 1603 608 
Q 2112 1101 2304 1882 
Q 1933 1517 1344 1517 
Q 826 1517 509 1875 
Q 192 2234 192 2816 
Q 192 3462 573 3894 
Q 954 4326 1523 4326 
Q 2131 4326 2528 3840 
Q 2938 3328 2938 2522 
Q 2938 1958 2742 1462 
Q 2547 966 2170 621 
Q 1773 262 1395 105 
Q 1018 -51 378 -141 
z
M 2317 2272 
L 2317 2522 
Q 2317 4147 1472 4147 
Q 1171 4147 1005 3930 
Q 909 3802 845 3546 
Q 781 3290 781 3034 
Q 781 2464 995 2128 
Q 1210 1792 1568 1792 
Q 1824 1792 2070 1917 
Q 2317 2042 2317 2272 
z
" id="STIXGeneral-Regular-39" transform="scale(0.015625)"/>
       </defs>
       <use xlink:href="#STIXGeneral-Regular-31"/>
       <use x="49.999985" xlink:href="#STIXGeneral-Regular-39"/>
       <use x="99.999969" xlink:href="#STIXGeneral-Regular-31"/>
       <use x="149.999954" xlink:href="#STIXGeneral-Regular-39"/>
      </g>
     </g>
    </g>
    <g id="xtick_2">
     <g id="line2d_2">
      <g>
       <use style="fill:#323034;stroke:#323034;stroke-width:0.8;" x="103.969808" xlink:href="#mfe3a291003" y="241.5675"/>
      </g>
     </g>
     <g id="text_2">
      <!-- 1944 -->
      <g style="fill:#323034;" transform="translate(91.969808 256.763125)scale(0.12 -0.12)">
       <defs>
        <path d="M 3027 1069 
L 2368 1069 
L 2368 0 
L 1869 0 
L 1869 1069 
L 77 1069 
L 77 1478 
L 2086 4326 
L 2368 4326 
L 2368 1478 
L 3027 1478 
L 3027 1069 
z
M 1869 1478 
L 1869 3674 
L 333 1478 
L 1869 1478 
z
" id="STIXGeneral-Regular-34" transform="scale(0.015625)"/>
       </defs>
       <use xlink:href="#STIXGeneral-Regular-31"/>
       <use x="49.999985" xlink:href="#STIXGeneral-Regular-39"/>
       <use x="99.999969" xlink:href="#STIXGeneral-Regular-34"/>
       <use x="149.999954" xlink:href="#STIXGeneral-Regular-34"/>
      </g>
     </g>
    </g>
    <g id="xtick_3">
     <g id="line2d_3">
      <g>
       <use style="fill:#323034;stroke:#323034;stroke-width:0.8;" x="187.739616" xlink:href="#mfe3a291003" y="241.5675"/>
      </g>
     </g>
     <g id="text_3">
      <!-- 1969 -->
      <g style="fill:#323034;" transform="translate(175.739616 256.763125)scale(0.12 -0.12)">
       <defs>
        <path d="M 2854 4378 
L 2867 4275 
Q 2112 4154 1606 3664 
Q 1101 3174 973 2451 
Q 1344 2739 1786 2739 
Q 2349 2739 2672 2380 
Q 2995 2022 2995 1402 
Q 2995 774 2669 378 
Q 2291 -90 1651 -90 
Q 870 -90 518 557 
Q 218 1107 218 1786 
Q 218 2835 915 3552 
Q 1312 3962 1731 4131 
Q 2150 4301 2854 4378 
z
M 2419 1203 
Q 2419 2445 1555 2445 
Q 1235 2445 1024 2275 
Q 813 2106 813 1702 
Q 813 954 1046 522 
Q 1280 90 1722 90 
Q 2061 90 2240 394 
Q 2419 698 2419 1203 
z
" id="STIXGeneral-Regular-36" transform="scale(0.015625)"/>
       </defs>
       <use xlink:href="#STIXGeneral-Regular-31"/>
       <use x="49.999985" xlink:href="#STIXGeneral-Regular-39"/>
       <use x="99.999969" xlink:href="#STIXGeneral-Regular-36"/>
       <use x="149.999954" xlink:href="#STIXGeneral-Regular-39"/>
      </g>
     </g>
    </g>
    <g id="xtick_4">
     <g id="line2d_4">
      <g>
       <use style="fill:#323034;stroke:#323034;stroke-width:0.8;" x="271.509425" xlink:href="#mfe3a291003" y="241.5675"/>
      </g>
     </g>
     <g id="text_4">
      <!-- 1994 -->
      <g style="fill:#323034;" transform="translate(259.509425 256.763125)scale(0.12 -0.12)">
       <use xlink:href="#STIXGeneral-Regular-31"/>
       <use x="49.999985" xlink:href="#STIXGeneral-Regular-39"/>
       <use x="99.999969" xlink:href="#STIXGeneral-Regular-39"/>
       <use x="149.999954" xlink:href="#STIXGeneral-Regular-34"/>
      </g>
     </g>
    </g>
    <g id="xtick_5">
     <g id="line2d_5">
      <defs>
       <path d="M 0 0 
L 0 2 
" id="m5816e7db1e" style="stroke:#323034;stroke-width:0.6;"/>
      </defs>
      <g>
       <use style="fill:#323034;stroke:#323034;stroke-width:0.6;" x="36.953962" xlink:href="#m5816e7db1e" y="241.5675"/>
      </g>
     </g>
    </g>
    <g id="xtick_6">
     <g id="line2d_6">
      <g>
       <use style="fill:#323034;stroke:#323034;stroke-width:0.6;" x="53.707923" xlink:href="#m5816e7db1e" y="241.5675"/>
      </g>
     </g>
    </g>
    <g id="xtick_7">
     <g id="line2d_7">
      <g>
       <use style="fill:#323034;stroke:#323034;stroke-width:0.6;" x="70.461885" xlink:href="#m5816e7db1e" y="241.5675"/>
      </g>
     </g>
    </g>
    <g id="xtick_8">
     <g id="line2d_8">
      <g>
       <use style="fill:#323034;stroke:#323034;stroke-width:0.6;" x="87.215847" xlink:href="#m5816e7db1e" y="241.5675"/>
      </g>
     </g>
    </g>
    <g id="xtick_9">
     <g id="line2d_9">
      <g>
       <use style="fill:#323034;stroke:#323034;stroke-width:0.6;" x="120.72377" xlink:href="#m5816e7db1e" y="241.5675"/>
      </g>
     </g>
    </g>
    <g id="xtick_10">
     <g id="line2d_10">
      <g>
       <use style="fill:#323034;stroke:#323034;stroke-width:0.6;" x="137.477731" xlink:href="#m5816e7db1e" y="241.5675"/>
      </g>
     </g>
    </g>
    <g id="xtick_11">
     <g id="line2d_11">
      <g>
       <use style="fill:#323034;stroke:#323034;stroke-width:0.6;" x="154.231693" xlink:href="#m5816e7db1e" y="241.5675"/>
      </g>
     </g>
    </g>
    <g id="xtick_12">
     <g id="line2d_12">
      <g>
       <use style="fill:#323034;stroke:#323034;stroke-width:0.6;" x="170.985655" xlink:href="#m5816e7db1e" y="241.5675"/>
      </g>
     </g>
    </g>
    <g id="xtick_13">
     <g id="line2d_13">
      <g>
       <use style="fill:#323034;stroke:#323034;stroke-width:0.6;" x="204.493578" xlink:href="#m5816e7db1e" y="241.5675"/>
      </g>
     </g>
    </g>
    <g id="xtick_14">
     <g id="line2d_14">
      <g>
       <use style="fill:#323034;stroke:#323034;stroke-width:0.6;" x="221.24754" xlink:href="#m5816e7db1e" y="241.5675"/>
      </g>
     </g>
    </g>
    <g id="xtick_15">
     <g id="line2d_15">
      <g>
       <use style="fill:#323034;stroke:#323034;stroke-width:0.6;" x="238.001501" xlink:href="#m5816e7db1e" y="241.5675"/>
      </g>
     </g>
    </g>
    <g id="xtick_16">
     <g id="line2d_16">
      <g>
       <use style="fill:#323034;stroke:#323034;stroke-width:0.6;" x="254.755463" xlink:href="#m5816e7db1e" y="241.5675"/>
      </g>
     </g>
    </g>
    <g id="xtick_17">
     <g id="line2d_17">
      <g>
       <use style="fill:#323034;stroke:#323034;stroke-width:0.6;" x="288.263386" xlink:href="#m5816e7db1e" y="241.5675"/>
      </g>
     </g>
    </g>
    <g id="xtick_18">
     <g id="line2d_18">
      <g>
       <use style="fill:#323034;stroke:#323034;stroke-width:0.6;" x="305.017348" xlink:href="#m5816e7db1e" y="241.5675"/>
      </g>
     </g>
    </g>
    <g id="xtick_19">
     <g id="line2d_19">
      <g>
       <use style="fill:#323034;stroke:#323034;stroke-width:0.6;" x="321.771309" xlink:href="#m5816e7db1e" y="241.5675"/>
      </g>
     </g>
    </g>
    <g id="xtick_20">
     <g id="line2d_20">
      <g>
       <use style="fill:#323034;stroke:#323034;stroke-width:0.6;" x="338.525271" xlink:href="#m5816e7db1e" y="241.5675"/>
      </g>
     </g>
    </g>
    <g id="text_5">
     <!-- Date -->
     <g transform="translate(176.27125 270.563125)scale(0.12 -0.12)">
      <defs>
       <path d="M 102 4237 
L 1830 4237 
Q 3078 4237 3750 3654 
Q 4384 3110 4384 2138 
Q 4384 966 3514 410 
Q 2880 0 1901 0 
L 102 0 
L 102 122 
Q 474 147 570 252 
Q 666 358 666 736 
L 666 3520 
Q 666 3891 570 3990 
Q 474 4090 102 4115 
L 102 4237 
z
M 1318 3731 
L 1318 538 
Q 1318 365 1379 301 
Q 1440 237 1626 237 
Q 2125 237 2432 307 
Q 2739 378 3021 570 
Q 3686 1018 3686 2099 
Q 3686 3027 3078 3558 
Q 2803 3802 2476 3901 
Q 2150 4000 1658 4000 
Q 1472 4000 1395 3942 
Q 1318 3885 1318 3731 
z
" id="STIXGeneral-Regular-44" transform="scale(0.015625)"/>
       <path d="M 2829 422 
L 2829 243 
Q 2586 -64 2253 -64 
Q 1888 -64 1843 403 
L 1837 403 
Q 1427 -64 909 -64 
Q 608 -64 422 112 
Q 237 288 237 602 
Q 237 1050 685 1350 
Q 992 1555 1837 1869 
L 1837 2214 
Q 1837 2502 1699 2646 
Q 1562 2790 1338 2790 
Q 1146 2790 1018 2697 
Q 890 2605 890 2477 
Q 890 2419 909 2348 
Q 928 2278 928 2208 
Q 928 2112 841 2029 
Q 755 1946 634 1946 
Q 525 1946 441 2029 
Q 358 2112 358 2240 
Q 358 2547 685 2752 
Q 986 2944 1421 2944 
Q 1939 2944 2176 2656 
Q 2291 2522 2323 2384 
Q 2355 2246 2355 1946 
L 2355 723 
Q 2355 301 2554 301 
Q 2682 301 2829 422 
z
M 1837 813 
L 1837 1715 
Q 1248 1510 1018 1293 
Q 800 1094 800 800 
Q 800 557 921 432 
Q 1043 307 1242 307 
Q 1453 307 1613 410 
Q 1747 506 1792 589 
Q 1837 672 1837 813 
z
" id="STIXGeneral-Regular-61" transform="scale(0.015625)"/>
       <path d="M 1702 493 
L 1786 422 
Q 1478 -64 1011 -64 
Q 448 -64 448 749 
L 448 2675 
L 109 2675 
Q 83 2694 83 2720 
Q 83 2771 192 2842 
Q 435 2982 813 3526 
Q 826 3546 874 3606 
Q 922 3667 941 3706 
Q 986 3706 986 3622 
L 986 2880 
L 1632 2880 
L 1632 2675 
L 986 2675 
L 986 845 
Q 986 538 1062 403 
Q 1139 269 1318 269 
Q 1510 269 1702 493 
z
" id="STIXGeneral-Regular-74" transform="scale(0.015625)"/>
       <path d="M 2611 1050 
L 2714 1005 
Q 2330 -64 1376 -64 
Q 813 -64 486 329 
Q 160 723 160 1389 
Q 160 2074 525 2509 
Q 890 2944 1485 2944 
Q 2061 2944 2374 2502 
Q 2560 2246 2592 1773 
L 621 1773 
Q 646 1370 700 1158 
Q 755 947 915 730 
Q 1184 378 1626 378 
Q 1939 378 2153 531 
Q 2368 685 2611 1050 
z
M 634 1978 
L 1939 1978 
Q 1882 2381 1750 2547 
Q 1619 2714 1312 2714 
Q 1043 2714 864 2525 
Q 685 2336 634 1978 
z
" id="STIXGeneral-Regular-65" transform="scale(0.015625)"/>
      </defs>
      <use xlink:href="#STIXGeneral-Regular-44"/>
      <use x="72.199982" xlink:href="#STIXGeneral-Regular-61"/>
      <use x="116.599976" xlink:href="#STIXGeneral-Regular-74"/>
      <use x="144.399963" xlink:href="#STIXGeneral-Regular-65"/>
     </g>
    </g>
   </g>
   <g id="matplotlib.axis_2">
    <g id="ytick_1">
     <g id="line2d_21">
      <defs>
       <path d="M 0 0 
L -3.5 0 
" id="m8ddb65d53b" style="stroke:#323034;stroke-width:0.8;"/>
      </defs>
      <g>
       <use style="fill:#323034;stroke:#323034;stroke-width:0.8;" x="20.2" xlink:href="#m8ddb65d53b" y="241.5675"/>
      </g>
     </g>
     <g id="text_6">
      <!-- $\mathdefault{0}$ -->
      <g style="fill:#323034;" transform="translate(7.2 245.665312)scale(0.12 -0.12)">
       <defs>
        <path d="M 3046 2112 
Q 3046 1683 2963 1302 
Q 2880 922 2717 602 
Q 2554 282 2266 96 
Q 1978 -90 1600 -90 
Q 1210 -90 915 108 
Q 621 307 461 640 
Q 301 973 227 1350 
Q 154 1728 154 2150 
Q 154 2746 301 3222 
Q 448 3699 790 4012 
Q 1133 4326 1626 4326 
Q 2253 4326 2649 3712 
Q 3046 3098 3046 2112 
z
M 2432 2080 
Q 2432 3091 2217 3625 
Q 2003 4160 1587 4160 
Q 1190 4160 979 3622 
Q 768 3085 768 2106 
Q 768 1120 979 598 
Q 1190 77 1600 77 
Q 2003 77 2217 598 
Q 2432 1120 2432 2080 
z
" id="STIXGeneral-Regular-30" transform="scale(0.015625)"/>
       </defs>
       <use transform="translate(0 0.40625)" xlink:href="#STIXGeneral-Regular-30"/>
      </g>
     </g>
    </g>
    <g id="ytick_2">
     <g id="line2d_22">
      <g>
       <use style="fill:#323034;stroke:#323034;stroke-width:0.8;" x="20.2" xlink:href="#m8ddb65d53b" y="205.3275"/>
      </g>
     </g>
     <g id="text_7">
      <!-- $\mathdefault{1}$ -->
      <g style="fill:#323034;" transform="translate(7.2 209.425313)scale(0.12 -0.12)">
       <use transform="translate(0 0.40625)" xlink:href="#STIXGeneral-Regular-31"/>
      </g>
     </g>
    </g>
    <g id="ytick_3">
     <g id="line2d_23">
      <g>
       <use style="fill:#323034;stroke:#323034;stroke-width:0.8;" x="20.2" xlink:href="#m8ddb65d53b" y="169.0875"/>
      </g>
     </g>
     <g id="text_8">
      <!-- $\mathdefault{2}$ -->
      <g style="fill:#323034;" transform="translate(7.2 173.185313)scale(0.12 -0.12)">
       <defs>
        <path d="M 3034 877 
L 2688 0 
L 186 0 
L 186 77 
L 1325 1286 
Q 1773 1754 1965 2144 
Q 2157 2534 2157 2950 
Q 2157 3379 1920 3616 
Q 1683 3853 1267 3853 
Q 922 3853 720 3673 
Q 518 3494 326 3021 
L 192 3053 
Q 301 3648 630 3987 
Q 960 4326 1523 4326 
Q 2054 4326 2380 4006 
Q 2707 3686 2707 3200 
Q 2707 2477 1888 1613 
L 832 486 
L 2330 486 
Q 2541 486 2665 569 
Q 2790 653 2944 915 
L 3034 877 
z
" id="STIXGeneral-Regular-32" transform="scale(0.015625)"/>
       </defs>
       <use transform="translate(0 0.40625)" xlink:href="#STIXGeneral-Regular-32"/>
      </g>
     </g>
    </g>
    <g id="ytick_4">
     <g id="line2d_24">
      <g>
       <use style="fill:#323034;stroke:#323034;stroke-width:0.8;" x="20.2" xlink:href="#m8ddb65d53b" y="132.8475"/>
      </g>
     </g>
     <g id="text_9">
      <!-- $\mathdefault{3}$ -->
      <g style="fill:#323034;" transform="translate(7.2 136.945313)scale(0.12 -0.12)">
       <defs>
        <path d="M 390 3264 
L 288 3290 
Q 435 3770 748 4048 
Q 1062 4326 1542 4326 
Q 1990 4326 2265 4083 
Q 2541 3840 2541 3450 
Q 2541 2925 1946 2566 
Q 2298 2413 2477 2227 
Q 2758 1914 2758 1402 
Q 2758 890 2464 506 
Q 2246 211 1840 60 
Q 1434 -90 979 -90 
Q 262 -90 262 275 
Q 262 378 339 442 
Q 416 506 525 506 
Q 685 506 915 339 
Q 1197 141 1466 141 
Q 1818 141 2058 425 
Q 2298 710 2298 1120 
Q 2298 1856 1632 2048 
Q 1434 2112 979 2112 
L 979 2202 
Q 1338 2323 1517 2432 
Q 2035 2726 2035 3290 
Q 2035 3610 1852 3776 
Q 1670 3942 1344 3942 
Q 768 3942 390 3264 
z
" id="STIXGeneral-Regular-33" transform="scale(0.015625)"/>
       </defs>
       <use transform="translate(0 0.40625)" xlink:href="#STIXGeneral-Regular-33"/>
      </g>
     </g>
    </g>
    <g id="ytick_5">
     <g id="line2d_25">
      <g>
       <use style="fill:#323034;stroke:#323034;stroke-width:0.8;" x="20.2" xlink:href="#m8ddb65d53b" y="96.6075"/>
      </g>
     </g>
     <g id="text_10">
      <!-- $\mathdefault{4}$ -->
      <g style="fill:#323034;" transform="translate(7.2 100.705313)scale(0.12 -0.12)">
       <use transform="translate(0 0.40625)" xlink:href="#STIXGeneral-Regular-34"/>
      </g>
     </g>
    </g>
    <g id="ytick_6">
     <g id="line2d_26">
      <g>
       <use style="fill:#323034;stroke:#323034;stroke-width:0.8;" x="20.2" xlink:href="#m8ddb65d53b" y="60.3675"/>
      </g>
     </g>
     <g id="text_11">
      <!-- $\mathdefault{5}$ -->
      <g style="fill:#323034;" transform="translate(7.2 64.465313)scale(0.12 -0.12)">
       <defs>
        <path d="M 2803 4358 
L 2573 3814 
Q 2534 3731 2400 3731 
L 1158 3731 
L 902 3187 
Q 1606 3053 1920 2896 
Q 2234 2739 2502 2368 
Q 2726 2061 2726 1555 
Q 2726 1094 2576 780 
Q 2426 467 2099 224 
Q 1664 -90 1011 -90 
Q 646 -90 422 19 
Q 198 128 198 307 
Q 198 550 486 550 
Q 717 550 960 352 
Q 1210 147 1414 147 
Q 1747 147 2012 480 
Q 2278 813 2278 1229 
Q 2278 1843 1850 2189 
Q 1293 2637 486 2637 
Q 410 2637 410 2688 
L 416 2720 
L 1114 4237 
L 2438 4237 
Q 2547 4237 2608 4269 
Q 2669 4301 2746 4403 
L 2803 4358 
z
" id="STIXGeneral-Regular-35" transform="scale(0.015625)"/>
       </defs>
       <use transform="translate(0 0.203125)" xlink:href="#STIXGeneral-Regular-35"/>
      </g>
     </g>
    </g>
    <g id="ytick_7">
     <g id="line2d_27">
      <g>
       <use style="fill:#323034;stroke:#323034;stroke-width:0.8;" x="20.2" xlink:href="#m8ddb65d53b" y="24.1275"/>
      </g>
     </g>
     <g id="text_12">
      <!-- $\mathdefault{6}$ -->
      <g style="fill:#323034;" transform="translate(7.2 28.225313)scale(0.12 -0.12)">
       <use transform="translate(0 0.59375)" xlink:href="#STIXGeneral-Regular-36"/>
      </g>
     </g>
    </g>
   </g>
   <g id="line2d_28">
    <path clip-path="url(#pa81bfa434c)" d="M 20.2 177.4227 
L 20.479233 174.5235 
L 20.758465 177.7851 
L 21.037698 176.6979 
L 21.596163 182.1339 
L 21.875396 182.8587 
L 22.154629 184.6707 
L 22.992327 173.4363 
L 23.27156 167.6379 
L 23.550792 168.0003 
L 23.830025 166.1883 
L 24.109258 167.2755 
L 24.38849 164.3763 
L 24.667723 164.0139 
L 24.946956 168.7251 
L 25.226188 162.5643 
L 25.505421 165.8259 
L 25.784654 171.9867 
L 26.063887 171.2619 
L 26.622352 158.2155 
L 26.901585 156.0411 
L 27.180817 156.7659 
L 27.46005 152.0547 
L 27.739283 152.0547 
L 28.018515 154.2291 
L 28.576981 156.0411 
L 28.856214 150.2427 
L 29.135446 154.2291 
L 29.414679 150.9675 
L 29.973144 165.1011 
L 30.252377 156.0411 
L 30.53161 159.6651 
L 30.810842 161.1147 
L 31.369308 177.7851 
L 31.64854 173.0739 
L 32.207006 173.0739 
L 32.486239 175.6107 
L 32.765471 175.9731 
L 33.323937 171.2619 
L 33.603169 171.2619 
L 33.882402 172.7115 
L 34.161635 170.5371 
L 34.440867 170.8995 
L 34.999333 166.9131 
L 35.557798 158.2155 
L 35.837031 159.6651 
L 36.116264 156.4035 
L 36.395496 157.8531 
L 36.674729 158.5779 
L 37.233194 167.2755 
L 37.512427 169.8123 
L 38.070892 171.6243 
L 38.629358 179.2347 
L 38.90859 178.5099 
L 39.187823 177.0603 
L 40.583987 190.4691 
L 40.863219 189.0195 
L 41.142452 185.7579 
L 41.421685 188.2947 
L 41.700917 192.6435 
L 41.98015 193.3683 
L 42.259383 193.0059 
L 42.817848 193.7307 
L 43.097081 193.3683 
L 43.934779 196.2675 
L 44.214012 195.9051 
L 44.493244 196.6299 
L 45.05171 202.4283 
L 45.330942 202.4283 
L 45.610175 202.0659 
L 45.889408 202.7907 
L 46.168641 201.7035 
L 46.447873 202.0659 
L 46.727106 205.3275 
L 47.285571 208.2267 
L 47.564804 208.2267 
L 47.844037 208.9515 
L 48.402502 206.4147 
L 48.681735 207.1395 
L 49.519433 210.0387 
L 49.798666 210.4011 
L 50.077898 210.4011 
L 50.357131 209.3139 
L 50.636364 210.0387 
L 50.915596 210.4011 
L 51.194829 210.0387 
L 51.753294 206.0523 
L 52.032527 206.4147 
L 52.31176 206.4147 
L 52.590992 206.0523 
L 52.870225 206.4147 
L 53.149458 206.4147 
L 53.707923 204.9651 
L 53.987156 205.3275 
L 54.266389 202.0659 
L 54.545621 201.3411 
L 54.824854 201.7035 
L 55.104087 199.1667 
L 55.383319 198.8043 
L 55.941785 193.7307 
L 56.221018 193.0059 
L 56.50025 195.5427 
L 56.779483 195.1803 
L 57.058716 195.9051 
L 57.337948 198.0795 
L 57.617181 201.3411 
L 57.896414 201.7035 
L 58.175646 200.9787 
L 58.454879 197.7171 
L 58.734112 196.2675 
L 59.013344 195.9051 
L 59.292577 196.9923 
L 60.130275 162.2019 
L 60.409508 169.4499 
L 60.688741 170.8995 
L 60.967973 167.2755 
L 61.247206 157.4907 
L 61.526439 140.8203 
L 61.805671 132.8475 
L 62.084904 142.9947 
L 62.643369 114.0027 
L 62.922602 94.7955 
L 63.201835 96.9699 
L 63.481068 56.7435 
L 63.7603 99.1443 
L 64.039533 109.6539 
L 64.318766 102.0435 
L 64.597998 49.8579 
L 64.877231 37.1739 
L 65.435696 41.1603 
L 65.714929 121.6131 
L 65.994162 136.1091 
L 66.83186 102.7683 
L 67.111093 112.1907 
L 67.669558 88.2723 
L 67.948791 84.2859 
L 68.228023 128.8611 
L 68.786489 159.6651 
L 69.065721 152.0547 
L 69.344954 136.1091 
L 69.90342 116.9019 
L 70.182652 123.7875 
L 70.741118 166.5507 
L 71.02035 164.3763 
L 71.299583 171.2619 
L 72.137281 160.3899 
L 72.416514 148.7931 
L 72.695746 146.9811 
L 72.974979 150.9675 
L 73.254212 150.6051 
L 73.533445 153.8667 
L 73.812677 161.4771 
L 74.09191 159.6651 
L 74.371143 149.8803 
L 74.650375 152.0547 
L 75.208841 163.2891 
L 75.488073 165.1011 
L 75.767306 169.8123 
L 76.046539 171.2619 
L 76.325771 168.3627 
L 76.605004 170.5371 
L 76.884237 174.1611 
L 77.442702 187.9323 
L 77.721935 184.6707 
L 78.2804 181.0467 
L 78.559633 181.4091 
L 78.838866 183.2211 
L 79.676564 192.2811 
L 79.955796 191.9187 
L 80.235029 189.7443 
L 80.514262 191.1939 
L 80.793495 194.0931 
L 81.35196 190.1067 
L 81.631193 186.8451 
L 81.910425 181.7715 
L 82.189658 181.4091 
L 82.468891 180.6843 
L 82.748123 173.4363 
L 83.306589 148.0683 
L 83.585822 150.2427 
L 83.865054 142.9947 
L 84.144287 141.1827 
L 84.42352 129.9483 
L 84.702752 126.6867 
L 84.981985 138.6459 
L 85.261218 133.2099 
L 85.54045 154.2291 
L 85.819683 157.8531 
L 86.098916 153.1419 
L 86.378148 161.4771 
L 86.657381 164.3763 
L 86.936614 162.2019 
L 87.495079 167.2755 
L 87.774312 172.7115 
L 88.053545 164.3763 
L 88.332777 165.4635 
L 88.61201 169.4499 
L 89.170475 171.9867 
L 89.449708 178.1475 
L 89.728941 178.8723 
L 90.287406 169.8123 
L 90.566639 169.8123 
L 91.125104 170.5371 
L 91.404337 171.9867 
L 91.68357 168.7251 
L 91.962802 163.6515 
L 92.242035 171.9867 
L 92.521268 172.3491 
L 93.079733 177.4227 
L 93.358966 178.8723 
L 93.638198 178.5099 
L 93.917431 182.4963 
L 94.196664 182.1339 
L 94.755129 186.8451 
L 95.034362 186.8451 
L 95.313595 185.7579 
L 95.592827 185.7579 
L 95.87206 186.1203 
L 96.151293 185.3955 
L 96.430525 185.3955 
L 96.709758 185.0331 
L 96.988991 184.3083 
L 97.268224 188.6571 
L 97.547456 189.3819 
L 97.826689 189.3819 
L 98.385154 190.1067 
L 98.664387 187.9323 
L 98.94362 188.2947 
L 99.222852 188.2947 
L 99.502085 188.6571 
L 99.781318 189.3819 
L 100.06055 188.6571 
L 100.339783 188.2947 
L 100.619016 191.9187 
L 101.456714 198.0795 
L 101.735947 199.1667 
L 102.015179 199.5291 
L 102.294412 200.9787 
L 102.573645 200.9787 
L 102.852877 200.2539 
L 103.13211 200.9787 
L 103.411343 200.9787 
L 103.969808 203.8779 
L 104.249041 206.0523 
L 104.807506 207.5019 
L 105.365972 210.4011 
L 105.924437 211.1259 
L 106.20367 211.1259 
L 106.482902 211.4883 
L 107.320601 213.6627 
L 107.599833 214.0251 
L 107.879066 214.0251 
L 108.158299 214.3875 
L 108.437531 216.1995 
L 108.995997 217.6491 
L 109.275229 218.0115 
L 109.833695 220.5483 
L 110.39216 223.8099 
L 110.671393 224.5347 
L 111.229858 224.5347 
L 111.509091 223.4475 
L 111.788324 223.0851 
L 112.067556 221.9979 
L 112.346789 221.6355 
L 112.626022 222.7227 
L 112.905254 222.7227 
L 113.46372 220.5483 
L 113.742952 221.2731 
L 114.022185 221.2731 
L 114.301418 220.9107 
L 114.859883 218.7363 
L 115.139116 218.3739 
L 115.418349 217.6491 
L 115.976814 219.4611 
L 116.256047 219.0987 
L 116.814512 217.2867 
L 117.093745 217.6491 
L 117.372977 217.6491 
L 117.931443 216.1995 
L 118.210676 216.5619 
L 118.489908 219.0987 
L 118.769141 220.5483 
L 119.048374 221.2731 
L 119.327606 219.8235 
L 119.606839 219.4611 
L 120.444537 214.7499 
L 120.72377 214.3875 
L 121.003003 214.7499 
L 121.282235 213.6627 
L 121.561468 214.3875 
L 121.840701 214.7499 
L 122.119933 214.0251 
L 122.399166 212.9379 
L 122.957631 213.6627 
L 123.236864 214.3875 
L 123.516097 214.3875 
L 123.795329 215.1123 
L 124.074562 217.2867 
L 124.353795 217.6491 
L 124.633028 217.6491 
L 124.91226 218.7363 
L 125.191493 218.3739 
L 125.470726 217.6491 
L 125.749958 217.2867 
L 126.308424 220.9107 
L 126.587656 221.6355 
L 126.866889 221.6355 
L 127.425354 223.0851 
L 127.704587 223.4475 
L 127.98382 225.2595 
L 128.821518 221.6355 
L 129.379983 219.0987 
L 129.659216 219.0987 
L 130.217681 219.8235 
L 130.496914 219.8235 
L 130.776147 219.4611 
L 131.055379 219.8235 
L 131.334612 221.6355 
L 131.613845 220.9107 
L 131.893078 221.2731 
L 132.17231 221.2731 
L 132.451543 221.6355 
L 132.730776 220.9107 
L 133.010008 220.9107 
L 133.289241 222.3603 
L 133.568474 221.6355 
L 133.847706 221.9979 
L 134.406172 224.8971 
L 134.685405 225.2595 
L 134.964637 226.3467 
L 135.523103 224.8971 
L 135.802335 220.5483 
L 136.081568 219.4611 
L 136.360801 220.1859 
L 136.640033 217.6491 
L 136.919266 218.3739 
L 137.198499 219.4611 
L 137.477731 218.0115 
L 137.756964 217.6491 
L 138.036197 218.0115 
L 138.594662 220.1859 
L 138.873895 220.1859 
L 139.153128 219.4611 
L 139.43236 219.0987 
L 139.711593 220.5483 
L 139.990826 220.1859 
L 140.270058 221.2731 
L 140.549291 221.6355 
L 140.828524 222.7227 
L 141.107756 221.9979 
L 141.386989 224.8971 
L 141.666222 224.1723 
L 141.945455 224.8971 
L 142.50392 224.8971 
L 142.783153 225.2595 
L 143.062385 224.8971 
L 143.341618 223.8099 
L 143.900083 224.5347 
L 144.179316 223.8099 
L 144.458549 223.4475 
L 144.737781 223.4475 
L 145.017014 225.6219 
L 145.296247 225.2595 
L 145.57548 223.4475 
L 145.854712 222.7227 
L 146.133945 223.4475 
L 146.413178 223.0851 
L 146.69241 220.5483 
L 146.971643 221.6355 
L 147.250876 219.0987 
L 147.809341 212.5755 
L 148.088574 213.6627 
L 148.367807 213.6627 
L 148.647039 213.3003 
L 148.926272 215.4747 
L 149.205505 214.7499 
L 149.484737 215.4747 
L 150.322435 204.9651 
L 150.601668 197.3547 
L 150.880901 196.9923 
L 151.160133 202.7907 
L 151.439366 203.5155 
L 151.718599 202.7907 
L 151.997832 203.5155 
L 152.277064 206.0523 
L 152.556297 210.4011 
L 153.114762 213.3003 
L 153.393995 212.2131 
L 153.673228 213.3003 
L 153.95246 213.6627 
L 154.231693 214.3875 
L 154.510926 214.3875 
L 154.790158 215.4747 
L 155.069391 218.7363 
L 155.348624 220.1859 
L 155.627857 220.5483 
L 155.907089 219.4611 
L 156.186322 217.6491 
L 156.465555 217.6491 
L 156.744787 215.8371 
L 157.02402 216.1995 
L 157.303253 216.1995 
L 157.582485 215.1123 
L 157.861718 213.3003 
L 158.140951 214.0251 
L 158.420183 214.3875 
L 158.699416 211.8507 
L 158.978649 212.2131 
L 159.257882 212.2131 
L 159.537114 212.5755 
L 159.816347 214.0251 
L 160.09558 212.2131 
L 160.374812 213.6627 
L 160.654045 214.3875 
L 161.21251 212.5755 
L 161.491743 212.5755 
L 161.770976 214.0251 
L 162.050209 214.7499 
L 162.329441 216.1995 
L 162.887907 217.6491 
L 163.167139 217.2867 
L 163.446372 215.8371 
L 163.725605 215.4747 
L 164.004837 216.9243 
L 164.28407 217.6491 
L 164.563303 218.0115 
L 164.842535 218.0115 
L 165.401001 215.4747 
L 165.680234 214.7499 
L 165.959466 215.8371 
L 167.076397 215.8371 
L 167.35563 216.9243 
L 167.634862 216.1995 
L 167.914095 216.1995 
L 168.193328 216.5619 
L 169.589491 221.9979 
L 169.868724 222.3603 
L 170.147957 223.0851 
L 170.427189 223.0851 
L 170.706422 223.4475 
L 170.985655 225.6219 
L 171.264887 224.5347 
L 171.54412 225.2595 
L 171.823353 225.2595 
L 172.102585 225.6219 
L 172.381818 225.6219 
L 172.661051 225.9843 
L 172.940284 226.7091 
L 174.057214 228.1587 
L 174.61568 228.1587 
L 174.894912 228.5211 
L 175.174145 228.1587 
L 175.453378 228.1587 
L 175.732611 227.4339 
L 176.011843 227.0715 
L 176.291076 227.4339 
L 176.570309 227.4339 
L 177.128774 228.8835 
L 177.408007 229.2459 
L 177.687239 229.9707 
L 177.966472 229.2459 
L 178.80417 223.4475 
L 179.362636 222.7227 
L 179.641868 222.7227 
L 180.479566 213.3003 
L 180.758799 212.9379 
L 181.038032 213.6627 
L 181.317264 212.9379 
L 181.596497 215.4747 
L 182.154962 215.4747 
L 182.434195 215.8371 
L 182.713428 216.9243 
L 183.271893 214.3875 
L 183.830359 218.0115 
L 184.109591 214.7499 
L 184.388824 217.2867 
L 185.226522 214.0251 
L 185.505755 214.0251 
L 185.784987 212.9379 
L 186.06422 214.7499 
L 186.343453 212.5755 
L 186.622686 211.8507 
L 186.901918 214.3875 
L 187.181151 211.8507 
L 187.739616 215.1123 
L 188.018849 218.3739 
L 188.298082 217.6491 
L 188.577314 218.0115 
L 188.856547 215.1123 
L 189.13578 215.4747 
L 189.415013 214.0251 
L 189.694245 209.3139 
L 189.973478 208.5891 
L 190.252711 209.3139 
L 190.531943 208.9515 
L 191.090409 207.1395 
L 191.369641 210.7635 
L 191.648874 212.9379 
L 191.928107 210.0387 
L 192.207339 210.0387 
L 192.486572 213.6627 
L 192.765805 206.7771 
L 193.045038 194.0931 
L 193.32427 194.4555 
L 193.603503 194.4555 
L 193.882736 193.3683 
L 194.161968 187.9323 
L 194.720434 194.0931 
L 195.278899 198.0795 
L 195.558132 202.0659 
L 195.837364 201.3411 
L 196.116597 200.9787 
L 196.39583 199.1667 
L 196.675063 199.8915 
L 196.954295 202.0659 
L 197.233528 200.9787 
L 197.512761 200.6163 
L 198.071226 206.7771 
L 198.350459 205.3275 
L 198.629691 207.5019 
L 198.908924 207.8643 
L 199.467389 204.6027 
L 199.746622 205.3275 
L 200.025855 210.0387 
L 200.305088 210.7635 
L 200.58432 210.0387 
L 200.863553 210.7635 
L 201.142786 214.3875 
L 201.422018 214.3875 
L 201.701251 214.7499 
L 201.980484 211.4883 
L 202.259716 213.6627 
L 202.538949 214.0251 
L 202.818182 212.9379 
L 203.097415 210.7635 
L 203.376647 205.3275 
L 203.65588 212.2131 
L 203.935113 214.3875 
L 204.214345 212.5755 
L 204.493578 218.0115 
L 204.772811 216.9243 
L 205.052043 219.4611 
L 205.331276 219.0987 
L 205.610509 216.9243 
L 205.889741 212.5755 
L 206.168974 214.0251 
L 206.448207 213.6627 
L 206.72744 207.5019 
L 207.006672 197.7171 
L 207.285905 179.5971 
L 207.565138 178.5099 
L 207.84437 169.8123 
L 208.123603 168.0003 
L 208.682068 182.4963 
L 208.961301 176.6979 
L 209.240534 174.5235 
L 209.519766 179.5971 
L 209.798999 182.1339 
L 210.078232 181.4091 
L 210.357465 177.7851 
L 210.636697 177.0603 
L 210.91593 177.4227 
L 211.195163 175.9731 
L 211.753628 183.5835 
L 212.032861 185.7579 
L 212.312093 195.1803 
L 212.870559 195.9051 
L 213.149791 198.4419 
L 213.429024 204.6027 
L 213.708257 206.4147 
L 213.98749 206.0523 
L 214.266722 200.2539 
L 214.545955 200.9787 
L 214.825188 202.4283 
L 215.10442 204.6027 
L 215.383653 204.2403 
L 215.662886 206.7771 
L 215.942118 206.7771 
L 216.221351 207.8643 
L 216.500584 211.1259 
L 216.779817 209.6763 
L 217.059049 210.7635 
L 217.338282 210.0387 
L 217.617515 212.5755 
L 218.17598 215.1123 
L 218.455213 214.3875 
L 218.734445 214.0251 
L 219.292911 211.1259 
L 219.572143 215.4747 
L 219.851376 212.9379 
L 220.130609 215.1123 
L 220.409842 216.1995 
L 220.689074 212.5755 
L 220.968307 213.3003 
L 221.24754 209.6763 
L 221.526772 211.8507 
L 222.085238 207.1395 
L 222.36447 206.4147 
L 222.643703 202.0659 
L 222.922936 202.0659 
L 223.202168 200.9787 
L 223.481401 201.7035 
L 223.760634 195.5427 
L 224.039867 196.9923 
L 224.319099 193.7307 
L 224.598332 193.3683 
L 224.877565 198.4419 
L 225.156797 187.5699 
L 225.43603 163.6515 
L 225.715263 162.5643 
L 225.994495 164.3763 
L 226.273728 184.3083 
L 226.552961 186.8451 
L 226.832193 180.6843 
L 227.111426 171.9867 
L 227.390659 181.0467 
L 227.949124 161.1147 
L 228.228357 168.3627 
L 228.50759 168.7251 
L 228.786822 180.6843 
L 229.066055 182.4963 
L 229.345288 167.2755 
L 229.903753 189.0195 
L 230.182986 189.7443 
L 230.462219 179.5971 
L 230.741451 162.9267 
L 231.020684 157.4907 
L 231.299917 171.9867 
L 231.579149 172.3491 
L 231.858382 160.3899 
L 232.416847 155.3163 
L 232.69608 165.1011 
L 232.975313 162.2019 
L 233.254545 146.9811 
L 233.533778 144.0819 
L 233.813011 146.9811 
L 234.092244 146.6187 
L 234.371476 157.8531 
L 235.209174 173.4363 
L 235.488407 177.0603 
L 235.76764 182.4963 
L 236.046872 182.4963 
L 236.326105 196.6299 
L 236.605338 200.6163 
L 237.163803 197.7171 
L 237.443036 198.0795 
L 237.722269 198.8043 
L 238.001501 189.0195 
L 238.280734 186.8451 
L 238.559967 190.1067 
L 238.839199 187.2075 
L 239.118432 188.6571 
L 239.397665 187.2075 
L 239.676897 179.5971 
L 239.95613 177.7851 
L 240.235363 180.3219 
L 240.514595 194.0931 
L 240.793828 198.4419 
L 241.073061 195.5427 
L 241.631526 201.7035 
L 241.910759 200.6163 
L 242.469224 189.7443 
L 242.748457 188.6571 
L 243.02769 188.6571 
L 243.306922 189.0195 
L 243.586155 190.4691 
L 243.865388 193.0059 
L 244.144621 189.3819 
L 244.423853 190.1067 
L 244.703086 191.1939 
L 245.261551 187.2075 
L 245.540784 190.8315 
L 245.820017 198.0795 
L 246.099249 197.7171 
L 246.378482 195.1803 
L 246.657715 188.6571 
L 246.936947 194.0931 
L 247.21618 191.5563 
L 247.495413 191.1939 
L 247.774646 187.9323 
L 248.333111 195.5427 
L 248.612344 196.2675 
L 248.891576 198.4419 
L 249.170809 198.8043 
L 249.450042 198.0795 
L 249.729274 198.4419 
L 250.008507 200.6163 
L 250.28774 200.6163 
L 250.566972 201.7035 
L 250.846205 197.3547 
L 251.125438 198.8043 
L 251.404671 198.4419 
L 251.683903 197.3547 
L 251.963136 198.8043 
L 252.242369 196.9923 
L 252.521601 200.2539 
L 252.800834 200.2539 
L 253.080067 199.8915 
L 253.359299 201.7035 
L 253.638532 202.4283 
L 253.917765 208.9515 
L 254.196997 204.2403 
L 254.47623 202.4283 
L 255.034696 206.4147 
L 255.313928 210.0387 
L 255.593161 211.8507 
L 255.872394 209.3139 
L 256.151626 207.8643 
L 256.430859 207.5019 
L 256.989324 208.9515 
L 257.268557 209.3139 
L 257.827023 206.7771 
L 258.106255 207.1395 
L 258.385488 208.2267 
L 258.664721 211.1259 
L 258.943953 211.1259 
L 259.223186 207.5019 
L 259.502419 206.7771 
L 259.781651 206.7771 
L 260.060884 205.3275 
L 260.340117 202.4283 
L 260.898582 193.7307 
L 261.177815 191.5563 
L 261.457048 190.4691 
L 261.73628 196.6299 
L 262.853211 207.1395 
L 263.132444 209.3139 
L 263.411676 208.9515 
L 263.690909 208.9515 
L 264.249374 206.4147 
L 264.80784 207.8643 
L 265.087073 207.5019 
L 265.366305 208.9515 
L 265.645538 209.6763 
L 266.204003 211.4883 
L 266.762469 216.1995 
L 267.041701 216.1995 
L 267.320934 210.7635 
L 267.600167 210.4011 
L 267.879399 211.4883 
L 268.437865 216.9243 
L 268.717098 220.9107 
L 269.275563 213.3003 
L 269.554796 214.7499 
L 269.834028 214.0251 
L 270.113261 214.3875 
L 270.392494 216.9243 
L 270.671726 218.3739 
L 270.950959 215.1123 
L 271.230192 214.0251 
L 271.509425 215.1123 
L 272.06789 218.0115 
L 272.626355 218.7363 
L 272.905588 216.9243 
L 273.184821 216.5619 
L 273.464053 217.2867 
L 273.743286 218.3739 
L 274.022519 218.7363 
L 274.301751 218.3739 
L 274.580984 218.3739 
L 274.860217 219.0987 
L 275.13945 220.1859 
L 275.697915 220.9107 
L 275.977148 221.6355 
L 276.535613 218.7363 
L 277.094078 219.4611 
L 277.373311 218.7363 
L 277.652544 217.6491 
L 277.931776 217.2867 
L 278.211009 217.6491 
L 278.490242 218.3739 
L 278.769475 216.9243 
L 279.048707 216.5619 
L 279.32794 216.9243 
L 279.886405 216.1995 
L 280.165638 215.4747 
L 280.444871 216.5619 
L 280.724103 216.9243 
L 281.003336 216.5619 
L 281.282569 216.5619 
L 281.561802 217.2867 
L 281.841034 218.7363 
L 282.120267 218.7363 
L 282.3995 219.4611 
L 282.678732 219.0987 
L 282.957965 219.4611 
L 283.237198 219.4611 
L 283.51643 219.8235 
L 283.795663 221.6355 
L 284.074896 220.9107 
L 284.354128 221.6355 
L 284.633361 221.2731 
L 284.912594 220.5483 
L 285.191827 220.5483 
L 285.471059 219.8235 
L 285.750292 218.3739 
L 286.029525 219.4611 
L 286.308757 219.8235 
L 286.58799 219.8235 
L 286.867223 219.0987 
L 287.146455 216.5619 
L 287.984153 204.9651 
L 288.263386 203.5155 
L 288.821852 208.5891 
L 289.380317 212.9379 
L 289.65955 212.9379 
L 289.938782 214.0251 
L 290.218015 214.3875 
L 290.497248 212.2131 
L 290.77648 211.4883 
L 291.055713 212.9379 
L 291.334946 218.3739 
L 291.614178 221.6355 
L 292.172644 216.5619 
L 292.451877 214.0251 
L 292.731109 208.5891 
L 293.289575 216.1995 
L 293.568807 215.8371 
L 293.84804 215.1123 
L 294.406505 211.4883 
L 294.685738 212.2131 
L 294.964971 213.3003 
L 295.244204 213.6627 
L 295.523436 210.4011 
L 295.802669 210.0387 
L 296.081902 213.3003 
L 296.361134 212.9379 
L 296.640367 211.1259 
L 296.9196 211.4883 
L 297.478065 209.6763 
L 297.757298 211.1259 
L 298.03653 195.1803 
L 298.315763 193.7307 
L 298.594996 191.5563 
L 298.874229 194.4555 
L 299.153461 195.5427 
L 299.432694 193.0059 
L 299.711927 193.7307 
L 299.991159 191.9187 
L 300.270392 197.7171 
L 300.549625 196.2675 
L 300.828857 190.4691 
L 301.387323 196.6299 
L 302.225021 203.1531 
L 303.062719 197.3547 
L 303.341952 200.6163 
L 303.621184 200.6163 
L 304.17965 204.2403 
L 304.458882 204.9651 
L 304.738115 206.0523 
L 305.017348 208.9515 
L 305.29658 213.6627 
L 305.575813 213.3003 
L 305.855046 215.1123 
L 306.134279 215.8371 
L 306.413511 213.6627 
L 306.692744 212.5755 
L 306.971977 212.2131 
L 307.251209 212.2131 
L 307.809675 216.9243 
L 308.088907 216.9243 
L 308.36814 217.6491 
L 308.647373 219.0987 
L 308.926606 217.6491 
L 309.205838 215.4747 
L 309.485071 210.4011 
L 309.764304 208.9515 
L 310.043536 209.3139 
L 310.322769 210.0387 
L 310.602002 208.9515 
L 310.881234 207.1395 
L 311.160467 206.4147 
L 311.4397 207.1395 
L 311.718932 207.1395 
L 312.277398 209.6763 
L 312.835863 212.5755 
L 313.115096 209.3139 
L 313.394329 208.5891 
L 313.673561 208.5891 
L 313.952794 208.2267 
L 314.232027 208.5891 
L 314.511259 210.0387 
L 315.069725 207.5019 
L 315.348957 209.3139 
L 315.62819 206.4147 
L 315.907423 208.2267 
L 316.186656 208.2267 
L 316.465888 208.5891 
L 316.745121 208.2267 
L 317.024354 210.4011 
L 317.303586 210.7635 
L 317.582819 211.8507 
L 317.862052 206.7771 
L 318.141284 199.5291 
L 318.420517 197.7171 
L 319.258215 190.1067 
L 319.537448 192.2811 
L 319.816681 191.1939 
L 320.095913 187.5699 
L 320.375146 186.8451 
L 320.654379 181.4091 
L 320.933611 147.3435 
L 321.212844 129.5859 
L 321.492077 119.0763 
L 322.050542 139.7331 
L 322.609008 132.8475 
L 323.446706 180.6843 
L 323.725938 193.7307 
L 324.005171 198.8043 
L 324.284404 200.2539 
L 324.563636 200.6163 
L 324.842869 201.3411 
L 325.122102 205.6899 
L 325.401334 205.6899 
L 325.680567 205.3275 
L 325.9598 206.7771 
L 326.239033 202.0659 
L 326.518265 192.6435 
L 326.797498 194.8179 
L 327.076731 199.1667 
L 327.355963 200.6163 
L 327.635196 203.8779 
L 327.914429 203.5155 
L 328.193661 202.4283 
L 328.472894 203.5155 
L 328.752127 207.8643 
L 329.310592 210.4011 
L 329.589825 211.8507 
L 329.869058 214.0251 
L 330.14829 211.4883 
L 330.706756 198.8043 
L 330.985988 191.1939 
L 331.265221 195.5427 
L 331.823686 191.5563 
L 332.102919 194.8179 
L 332.382152 196.6299 
L 332.661384 196.9923 
L 332.940617 195.5427 
L 333.499083 188.2947 
L 333.778315 189.7443 
L 334.057548 192.6435 
L 334.336781 201.3411 
L 334.616013 204.9651 
L 334.895246 206.0523 
L 335.174479 207.8643 
L 335.453711 207.1395 
L 335.732944 208.2267 
L 336.012177 210.4011 
L 336.29141 211.1259 
L 336.849875 206.0523 
L 337.129108 209.6763 
L 337.966806 214.3875 
L 338.246038 214.0251 
L 338.804504 218.0115 
L 339.083736 216.9243 
L 339.362969 217.6491 
L 339.921435 221.6355 
L 340.200667 220.9107 
L 340.4799 219.4611 
L 341.876063 205.6899 
L 342.155296 208.9515 
L 342.434529 208.9515 
L 342.713761 206.7771 
L 342.992994 208.5891 
L 343.272227 207.5019 
L 344.389158 191.1939 
L 344.66839 190.8315 
L 344.947623 187.5699 
L 345.226856 189.0195 
L 345.785321 194.0931 
L 346.343786 204.2403 
L 346.623019 204.2403 
L 346.902252 207.5019 
L 347.460717 208.9515 
L 348.019183 210.7635 
L 348.298415 213.6627 
L 348.577648 214.7499 
L 348.856881 216.5619 
L 349.136113 217.2867 
L 349.415346 216.1995 
L 349.694579 216.1995 
L 349.973812 216.5619 
L 350.253044 216.5619 
L 350.81151 217.2867 
L 351.090742 215.4747 
L 351.369975 216.1995 
L 351.649208 215.8371 
L 351.92844 215.8371 
L 352.207673 216.5619 
L 352.766138 211.8507 
L 353.045371 211.4883 
L 353.603837 208.2267 
L 353.883069 209.3139 
L 354.162302 208.9515 
L 354.441535 207.8643 
L 354.720767 205.3275 
L 355 201.3411 
L 355 201.3411 
" style="fill:none;stroke:#bc80bd;stroke-linecap:square;stroke-width:2;"/>
   </g>
   <g id="patch_3">
    <path d="M 20.2 241.5675 
L 20.2 24.1275 
" style="fill:none;stroke:#000000;stroke-linecap:square;stroke-linejoin:miter;stroke-width:0.6;"/>
   </g>
   <g id="patch_4">
    <path d="M 20.2 241.5675 
L 355 241.5675 
" style="fill:none;stroke:#000000;stroke-linecap:square;stroke-linejoin:miter;stroke-width:0.6;"/>
   </g>
   <g id="text_13">
    <!-- Default premium (difference in yields, BAA-AAA) -->
    <g style="fill:#323034;" transform="translate(20.2 18.1275)scale(0.16 -0.16)">
     <defs>
      <path d="M 134 2880 
L 659 2880 
Q 666 3264 710 3478 
Q 755 3693 883 3910 
Q 1152 4371 1786 4371 
Q 2074 4371 2262 4259 
Q 2451 4147 2451 3974 
Q 2451 3866 2374 3789 
Q 2298 3712 2182 3712 
Q 2029 3712 1894 3942 
Q 1741 4192 1555 4192 
Q 1197 4192 1197 3622 
L 1197 2880 
L 1978 2880 
L 1978 2675 
L 1197 2675 
L 1197 666 
Q 1197 307 1299 208 
Q 1402 109 1792 96 
L 1792 0 
L 128 0 
L 128 96 
Q 474 115 566 214 
Q 659 314 659 666 
L 659 2675 
L 134 2675 
L 134 2880 
z
" id="STIXGeneral-Regular-66" transform="scale(0.015625)"/>
      <path d="M 3072 320 
L 3072 230 
Q 2573 96 2195 -58 
L 2163 -38 
L 2163 486 
L 2150 486 
Q 1747 -64 1235 -64 
Q 870 -64 662 160 
Q 454 384 454 755 
L 454 2362 
Q 454 2598 371 2688 
Q 288 2778 58 2790 
L 58 2880 
L 992 2880 
L 992 813 
Q 992 595 1123 451 
Q 1254 307 1446 307 
Q 1760 307 1984 506 
Q 2067 582 2099 649 
Q 2131 717 2131 877 
L 2131 2355 
Q 2131 2605 2041 2678 
Q 1952 2752 1658 2771 
L 1658 2880 
L 2669 2880 
L 2669 685 
Q 2669 461 2742 390 
Q 2816 320 3034 320 
L 3072 320 
z
" id="STIXGeneral-Regular-75" transform="scale(0.015625)"/>
      <path d="M 1645 0 
L 134 0 
L 134 96 
Q 435 122 531 221 
Q 627 320 627 589 
L 627 3590 
Q 627 3821 569 3910 
Q 512 4000 358 4000 
Q 224 4000 122 3987 
L 122 4090 
Q 730 4237 1133 4371 
L 1165 4346 
L 1165 557 
Q 1165 288 1254 201 
Q 1344 115 1645 96 
L 1645 0 
z
" id="STIXGeneral-Regular-6c" transform="scale(0.015625)"/>
      <path id="STIXGeneral-Regular-20" transform="scale(0.015625)"/>
      <path d="M 1018 2931 
L 1018 2438 
Q 1421 2944 1939 2944 
Q 2406 2944 2707 2560 
Q 3008 2176 3008 1581 
Q 3008 883 2621 409 
Q 2234 -64 1664 -64 
Q 1466 -64 1328 -6 
Q 1190 51 1018 211 
L 1018 -794 
Q 1018 -1094 1120 -1180 
Q 1222 -1267 1581 -1274 
L 1581 -1389 
L 32 -1389 
L 32 -1280 
Q 314 -1254 397 -1171 
Q 480 -1088 480 -838 
L 480 2157 
Q 480 2381 429 2451 
Q 378 2522 218 2522 
Q 115 2522 58 2515 
L 58 2618 
Q 506 2752 979 2944 
L 1018 2931 
z
M 1018 2138 
L 1018 563 
Q 1018 422 1238 281 
Q 1459 141 1683 141 
Q 2029 141 2243 467 
Q 2458 794 2458 1325 
Q 2458 1888 2243 2224 
Q 2029 2560 1670 2560 
Q 1446 2560 1232 2419 
Q 1018 2278 1018 2138 
z
" id="STIXGeneral-Regular-70" transform="scale(0.015625)"/>
      <path d="M 1024 2931 
L 1024 2342 
Q 1267 2688 1430 2816 
Q 1594 2944 1792 2944 
Q 1958 2944 2051 2854 
Q 2144 2765 2144 2605 
Q 2144 2470 2077 2393 
Q 2010 2317 1894 2317 
Q 1773 2317 1638 2445 
Q 1536 2541 1472 2541 
Q 1338 2541 1181 2355 
Q 1024 2170 1024 2016 
L 1024 576 
Q 1024 301 1133 205 
Q 1242 109 1568 96 
L 1568 0 
L 32 0 
L 32 96 
Q 339 154 412 224 
Q 486 294 486 538 
L 486 2138 
Q 486 2349 438 2435 
Q 390 2522 269 2522 
Q 166 2522 45 2496 
L 45 2598 
Q 448 2726 992 2944 
L 1024 2931 
z
" id="STIXGeneral-Regular-72" transform="scale(0.015625)"/>
      <path d="M 4960 0 
L 3565 0 
L 3565 96 
Q 3834 122 3907 208 
Q 3981 294 3981 576 
L 3981 1894 
Q 3981 2278 3869 2444 
Q 3757 2611 3488 2611 
Q 3264 2611 3107 2521 
Q 2950 2432 2803 2221 
L 2803 608 
Q 2803 301 2896 201 
Q 2989 102 3264 96 
L 3264 0 
L 1830 0 
L 1830 96 
Q 2112 115 2189 188 
Q 2266 262 2266 550 
L 2266 1901 
Q 2266 2611 1850 2611 
Q 1670 2611 1468 2531 
Q 1267 2451 1171 2336 
Q 1088 2240 1088 2227 
L 1088 448 
Q 1088 243 1177 176 
Q 1267 109 1523 96 
L 1523 0 
L 102 0 
L 102 96 
Q 371 102 460 195 
Q 550 288 550 563 
L 550 2150 
Q 550 2387 499 2480 
Q 448 2573 326 2573 
Q 230 2573 122 2547 
L 122 2656 
Q 557 2778 1011 2944 
L 1062 2925 
L 1062 2451 
L 1075 2451 
Q 1363 2752 1584 2848 
Q 1805 2944 2054 2944 
Q 2560 2944 2733 2406 
Q 3232 2944 3776 2944 
Q 4518 2944 4518 1792 
L 4518 493 
Q 4518 282 4582 202 
Q 4646 122 4794 109 
L 4960 96 
L 4960 0 
z
" id="STIXGeneral-Regular-6d" transform="scale(0.015625)"/>
      <path d="M 1152 4045 
Q 1152 3904 1056 3811 
Q 960 3718 819 3718 
Q 685 3718 592 3811 
Q 499 3904 499 4045 
Q 499 4179 595 4275 
Q 691 4371 826 4371 
Q 966 4371 1059 4275 
Q 1152 4179 1152 4045 
z
M 1619 0 
L 102 0 
L 102 96 
Q 435 115 521 211 
Q 608 307 608 666 
L 608 2118 
Q 608 2342 563 2432 
Q 518 2522 397 2522 
Q 243 2522 128 2490 
L 128 2592 
L 1120 2944 
L 1146 2918 
L 1146 672 
Q 1146 314 1226 218 
Q 1306 122 1619 96 
L 1619 0 
z
" id="STIXGeneral-Regular-69" transform="scale(0.015625)"/>
      <path d="M 1946 -1030 
L 1869 -1133 
Q 1126 -710 716 32 
Q 307 774 307 1613 
Q 307 3386 1888 4326 
L 1946 4224 
Q 1293 3667 1075 3126 
Q 858 2586 858 1632 
Q 858 685 1082 96 
Q 1306 -493 1946 -1030 
z
" id="STIXGeneral-Regular-28" transform="scale(0.015625)"/>
      <path d="M 3142 269 
L 2202 -64 
L 2176 -45 
L 2176 365 
Q 1869 -64 1357 -64 
Q 826 -64 499 317 
Q 173 698 173 1312 
Q 173 1990 563 2467 
Q 954 2944 1504 2944 
Q 1850 2944 2176 2669 
L 2176 3667 
Q 2176 3866 2118 3930 
Q 2061 3994 1882 3994 
Q 1792 3994 1741 3987 
L 1741 4090 
Q 2323 4243 2682 4371 
L 2714 4358 
L 2714 730 
Q 2714 506 2768 435 
Q 2822 365 2995 365 
Q 3034 365 3142 371 
L 3142 269 
z
M 2176 653 
L 2176 2125 
Q 2176 2381 1981 2573 
Q 1786 2765 1523 2765 
Q 1158 2765 940 2438 
Q 723 2112 723 1568 
Q 723 979 963 624 
Q 1203 269 1606 269 
Q 1907 269 2080 474 
Q 2176 582 2176 653 
z
" id="STIXGeneral-Regular-64" transform="scale(0.015625)"/>
      <path d="M 3104 0 
L 1773 0 
L 1779 96 
Q 2016 115 2096 233 
Q 2176 352 2176 672 
L 2176 1946 
Q 2176 2592 1709 2592 
Q 1549 2592 1408 2515 
Q 1267 2438 1050 2227 
L 1050 461 
Q 1050 269 1136 192 
Q 1222 115 1466 96 
L 1466 0 
L 115 0 
L 115 96 
Q 358 115 435 214 
Q 512 314 512 602 
L 512 2157 
Q 512 2394 467 2483 
Q 422 2573 288 2573 
Q 160 2573 102 2547 
L 102 2656 
Q 550 2784 979 2944 
L 1030 2925 
L 1030 2426 
L 1037 2426 
Q 1491 2944 1958 2944 
Q 2323 2944 2518 2688 
Q 2714 2432 2714 1958 
L 2714 544 
Q 2714 288 2790 205 
Q 2867 122 3104 96 
L 3104 0 
z
" id="STIXGeneral-Regular-6e" transform="scale(0.015625)"/>
      <path d="M 2547 998 
L 2637 941 
Q 2362 403 2112 205 
Q 1786 -64 1376 -64 
Q 845 -64 502 336 
Q 160 736 160 1357 
Q 160 2170 698 2618 
Q 1094 2944 1562 2944 
Q 1965 2944 2256 2749 
Q 2547 2554 2547 2285 
Q 2547 2176 2457 2096 
Q 2368 2016 2246 2016 
Q 2022 2016 1939 2310 
L 1901 2451 
Q 1850 2630 1773 2694 
Q 1696 2758 1523 2758 
Q 1133 2758 893 2451 
Q 653 2144 653 1645 
Q 653 1094 928 745 
Q 1203 397 1645 397 
Q 1920 397 2118 528 
Q 2317 659 2547 998 
z
" id="STIXGeneral-Regular-63" transform="scale(0.015625)"/>
      <path d="M 3040 2880 
L 3040 2784 
Q 2925 2771 2854 2700 
Q 2784 2630 2720 2458 
L 1760 -160 
Q 1510 -838 1257 -1116 
Q 1005 -1395 640 -1395 
Q 435 -1395 313 -1289 
Q 192 -1184 192 -1024 
Q 192 -902 272 -816 
Q 352 -730 467 -730 
Q 653 -730 800 -813 
Q 883 -858 966 -858 
Q 1101 -858 1286 -576 
Q 1376 -448 1459 -211 
Q 1542 26 1542 115 
Q 1542 198 1274 762 
L 429 2566 
Q 346 2752 90 2790 
L 90 2880 
L 1402 2880 
L 1402 2784 
Q 1197 2778 1117 2739 
Q 1037 2701 1037 2611 
Q 1037 2541 1120 2349 
L 1837 749 
L 2458 2515 
Q 2483 2573 2483 2630 
Q 2483 2784 2189 2784 
L 2189 2880 
L 3040 2880 
z
" id="STIXGeneral-Regular-79" transform="scale(0.015625)"/>
      <path d="M 998 1926 
L 1664 1523 
Q 1984 1331 2105 1164 
Q 2227 998 2227 736 
Q 2227 416 1961 176 
Q 1696 -64 1331 -64 
Q 1030 -64 864 -6 
Q 691 51 570 51 
Q 461 51 416 -26 
L 333 -26 
L 333 979 
L 435 979 
Q 538 512 730 294 
Q 922 77 1248 77 
Q 1485 77 1632 211 
Q 1779 346 1779 550 
Q 1779 845 1440 1030 
L 1094 1222 
Q 326 1651 326 2150 
Q 326 2522 566 2730 
Q 806 2938 1210 2938 
Q 1491 2938 1638 2867 
Q 1754 2816 1818 2816 
Q 1862 2816 1920 2880 
L 1990 2880 
L 2022 2010 
L 1926 2010 
Q 1818 2445 1654 2621 
Q 1491 2797 1203 2797 
Q 986 2797 854 2688 
Q 723 2579 723 2362 
Q 723 2253 796 2128 
Q 870 2003 998 1926 
z
" id="STIXGeneral-Regular-73" transform="scale(0.015625)"/>
      <path d="M 531 -902 
L 467 -781 
Q 998 -422 998 -96 
Q 998 -13 909 -13 
Q 883 -13 822 -25 
Q 762 -38 723 -38 
Q 352 -38 352 288 
Q 352 454 457 553 
Q 563 653 736 653 
Q 954 653 1101 496 
Q 1248 339 1248 96 
Q 1248 -198 1053 -473 
Q 858 -749 531 -902 
z
" id="STIXGeneral-Regular-2c" transform="scale(0.015625)"/>
      <path d="M 2701 2234 
L 2701 2227 
Q 3181 2150 3482 1875 
Q 3795 1594 3795 1139 
Q 3795 608 3379 304 
Q 2963 0 2266 0 
L 109 0 
L 109 122 
Q 486 134 604 246 
Q 723 358 723 723 
L 723 3520 
Q 723 3891 614 3990 
Q 506 4090 109 4115 
L 109 4237 
L 1901 4237 
Q 2726 4237 3152 3958 
Q 3578 3680 3578 3168 
Q 3578 2733 3315 2502 
Q 3130 2342 2701 2234 
z
M 1376 2342 
L 1965 2342 
Q 2925 2342 2925 3136 
Q 2925 3546 2640 3773 
Q 2355 4000 1792 4000 
L 1530 4000 
Q 1376 4000 1376 3795 
L 1376 2342 
z
M 1376 2086 
L 1376 525 
Q 1376 365 1462 301 
Q 1549 237 1773 237 
Q 2208 237 2413 285 
Q 2618 333 2816 512 
Q 3059 723 3059 1146 
Q 3059 1632 2758 1830 
Q 2688 1882 2617 1917 
Q 2547 1952 2492 1974 
Q 2438 1997 2348 2016 
Q 2259 2035 2211 2044 
Q 2163 2054 2041 2060 
Q 1920 2067 1862 2070 
Q 1805 2074 1635 2080 
Q 1466 2086 1376 2086 
z
" id="STIXGeneral-Regular-42" transform="scale(0.015625)"/>
      <path d="M 4525 0 
L 2893 0 
L 2893 122 
Q 3149 122 3245 179 
Q 3334 224 3334 333 
Q 3334 499 3213 781 
L 2950 1382 
L 1274 1382 
L 979 653 
Q 922 506 922 384 
Q 922 237 1027 179 
Q 1133 122 1370 122 
L 1370 0 
L 96 0 
L 96 122 
Q 365 147 486 316 
Q 608 486 902 1190 
L 2221 4314 
L 2349 4314 
L 3923 710 
Q 4064 378 4176 262 
Q 4288 147 4525 122 
L 4525 0 
z
M 2861 1645 
L 2118 3405 
L 1382 1645 
L 2861 1645 
z
" id="STIXGeneral-Regular-41" transform="scale(0.015625)"/>
      <path d="M 1824 1242 
L 250 1242 
L 250 1645 
L 1824 1645 
L 1824 1242 
z
" id="STIXGeneral-Regular-2d" transform="scale(0.015625)"/>
      <path d="M 186 4224 
L 262 4326 
Q 992 3891 1408 3148 
Q 1824 2406 1824 1581 
Q 1824 -166 243 -1133 
L 186 -1030 
Q 845 -486 1059 54 
Q 1274 595 1274 1562 
Q 1274 2534 1059 3120 
Q 845 3706 186 4224 
z
" id="STIXGeneral-Regular-29" transform="scale(0.015625)"/>
     </defs>
     <use xlink:href="#STIXGeneral-Regular-44"/>
     <use x="72.199982" xlink:href="#STIXGeneral-Regular-65"/>
     <use x="116.599976" xlink:href="#STIXGeneral-Regular-66"/>
     <use x="149.899963" xlink:href="#STIXGeneral-Regular-61"/>
     <use x="194.299957" xlink:href="#STIXGeneral-Regular-75"/>
     <use x="244.299942" xlink:href="#STIXGeneral-Regular-6c"/>
     <use x="272.09993" xlink:href="#STIXGeneral-Regular-74"/>
     <use x="299.899918" xlink:href="#STIXGeneral-Regular-20"/>
     <use x="324.899902" xlink:href="#STIXGeneral-Regular-70"/>
     <use x="374.899887" xlink:href="#STIXGeneral-Regular-72"/>
     <use x="408.199875" xlink:href="#STIXGeneral-Regular-65"/>
     <use x="452.599869" xlink:href="#STIXGeneral-Regular-6d"/>
     <use x="530.399857" xlink:href="#STIXGeneral-Regular-69"/>
     <use x="558.199844" xlink:href="#STIXGeneral-Regular-75"/>
     <use x="608.199829" xlink:href="#STIXGeneral-Regular-6d"/>
     <use x="685.999817" xlink:href="#STIXGeneral-Regular-20"/>
     <use x="710.999802" xlink:href="#STIXGeneral-Regular-28"/>
     <use x="744.299789" xlink:href="#STIXGeneral-Regular-64"/>
     <use x="794.299774" xlink:href="#STIXGeneral-Regular-69"/>
     <use x="822.099762" xlink:href="#STIXGeneral-Regular-66"/>
     <use x="855.39975" xlink:href="#STIXGeneral-Regular-66"/>
     <use x="888.699738" xlink:href="#STIXGeneral-Regular-65"/>
     <use x="933.099731" xlink:href="#STIXGeneral-Regular-72"/>
     <use x="966.399719" xlink:href="#STIXGeneral-Regular-65"/>
     <use x="1010.799713" xlink:href="#STIXGeneral-Regular-6e"/>
     <use x="1060.799698" xlink:href="#STIXGeneral-Regular-63"/>
     <use x="1105.199692" xlink:href="#STIXGeneral-Regular-65"/>
     <use x="1149.599686" xlink:href="#STIXGeneral-Regular-20"/>
     <use x="1174.59967" xlink:href="#STIXGeneral-Regular-69"/>
     <use x="1202.399658" xlink:href="#STIXGeneral-Regular-6e"/>
     <use x="1252.399643" xlink:href="#STIXGeneral-Regular-20"/>
     <use x="1277.399628" xlink:href="#STIXGeneral-Regular-79"/>
     <use x="1327.399612" xlink:href="#STIXGeneral-Regular-69"/>
     <use x="1355.1996" xlink:href="#STIXGeneral-Regular-65"/>
     <use x="1399.599594" xlink:href="#STIXGeneral-Regular-6c"/>
     <use x="1427.399582" xlink:href="#STIXGeneral-Regular-64"/>
     <use x="1477.399567" xlink:href="#STIXGeneral-Regular-73"/>
     <use x="1516.299561" xlink:href="#STIXGeneral-Regular-2c"/>
     <use x="1541.299545" xlink:href="#STIXGeneral-Regular-20"/>
     <use x="1566.29953" xlink:href="#STIXGeneral-Regular-42"/>
     <use x="1632.999527" xlink:href="#STIXGeneral-Regular-41"/>
     <use x="1705.199509" xlink:href="#STIXGeneral-Regular-41"/>
     <use x="1777.39949" xlink:href="#STIXGeneral-Regular-2d"/>
     <use x="1810.699478" xlink:href="#STIXGeneral-Regular-41"/>
     <use x="1882.89946" xlink:href="#STIXGeneral-Regular-41"/>
     <use x="1955.099442" xlink:href="#STIXGeneral-Regular-41"/>
     <use x="2027.299423" xlink:href="#STIXGeneral-Regular-29"/>
    </g>
   </g>
  </g>
 </g>
 <defs>
  <clipPath id="pa81bfa434c">
   <rect height="217.44" width="334.8" x="20.2" y="24.1275"/>
  </clipPath>
 </defs>
</svg>
