<?xml version="1.0" encoding="utf-8" standalone="no"?>
<!DOCTYPE svg PUBLIC "-//W3C//DTD SVG 1.1//EN"
  "http://www.w3.org/Graphics/SVG/1.1/DTD/svg11.dtd">
<svg height="285.1125pt" version="1.1" viewBox="0 0 423.84 285.1125" width="423.84pt" xmlns="http://www.w3.org/2000/svg" xmlns:xlink="http://www.w3.org/1999/xlink">
 <metadata>
  <rdf:RDF xmlns:cc="http://creativecommons.org/ns#" xmlns:dc="http://purl.org/dc/elements/1.1/" xmlns:rdf="http://www.w3.org/1999/02/22-rdf-syntax-ns#">
   <cc:Work>
    <dc:type rdf:resource="http://purl.org/dc/dcmitype/StillImage"/>
    <dc:date>2022-08-20T18:04:26.090850</dc:date>
    <dc:format>image/svg+xml</dc:format>
    <dc:creator>
     <cc:Agent>
      <dc:title>Matplotlib v3.4.3, https://matplotlib.org/</dc:title>
     </cc:Agent>
    </dc:creator>
   </cc:Work>
  </rdf:RDF>
 </metadata>
 <defs>
  <style type="text/css">*{stroke-linecap:butt;stroke-linejoin:round;}</style>
 </defs>
 <g id="figure_1">
  <g id="patch_1">
   <path d="M 0 285.1125 
L 423.84 285.1125 
L 423.84 0 
L 0 0 
z
" style="fill:none;"/>
  </g>
  <g id="axes_1">
   <g id="patch_2">
    <path d="M 35.2 134.654 
L 206.04 134.654 
L 206.04 53.595 
L 35.2 53.595 
z
" style="fill:#ffffff;"/>
   </g>
   <g id="patch_3">
    <path clip-path="url(#pdae7afbb24)" d="M 120.636409 134.654 
L 125.987394 134.654 
L 125.987394 68.337598 
L 120.636409 68.337598 
z
" style="fill:#bc80bd;stroke:#000000;stroke-linejoin:miter;stroke-width:0.8;"/>
   </g>
   <g id="patch_4">
    <path clip-path="url(#pdae7afbb24)" d="M 125.987394 134.654 
L 131.338379 134.654 
L 131.338379 75.130985 
L 125.987394 75.130985 
z
" style="fill:#bc80bd;stroke:#000000;stroke-linejoin:miter;stroke-width:0.8;"/>
   </g>
   <g id="patch_5">
    <path clip-path="url(#pdae7afbb24)" d="M 131.338379 134.654 
L 136.689364 134.654 
L 136.689364 88.394266 
L 131.338379 88.394266 
z
" style="fill:#bc80bd;stroke:#000000;stroke-linejoin:miter;stroke-width:0.8;"/>
   </g>
   <g id="patch_6">
    <path clip-path="url(#pdae7afbb24)" d="M 136.689364 134.654 
L 142.040349 134.654 
L 142.040349 97.452116 
L 136.689364 97.452116 
z
" style="fill:#bc80bd;stroke:#000000;stroke-linejoin:miter;stroke-width:0.8;"/>
   </g>
   <g id="patch_7">
    <path clip-path="url(#pdae7afbb24)" d="M 142.040349 134.654 
L 147.391334 134.654 
L 147.391334 109.744912 
L 142.040349 109.744912 
z
" style="fill:#bc80bd;stroke:#000000;stroke-linejoin:miter;stroke-width:0.8;"/>
   </g>
   <g id="patch_8">
    <path clip-path="url(#pdae7afbb24)" d="M 147.391334 134.654 
L 152.742318 134.654 
L 152.742318 114.920827 
L 147.391334 114.920827 
z
" style="fill:#bc80bd;stroke:#000000;stroke-linejoin:miter;stroke-width:0.8;"/>
   </g>
   <g id="patch_9">
    <path clip-path="url(#pdae7afbb24)" d="M 152.742318 134.654 
L 158.093303 134.654 
L 158.093303 122.037709 
L 152.742318 122.037709 
z
" style="fill:#bc80bd;stroke:#000000;stroke-linejoin:miter;stroke-width:0.8;"/>
   </g>
   <g id="patch_10">
    <path clip-path="url(#pdae7afbb24)" d="M 158.093303 134.654 
L 163.444288 134.654 
L 163.444288 121.39072 
L 158.093303 121.39072 
z
" style="fill:#bc80bd;stroke:#000000;stroke-linejoin:miter;stroke-width:0.8;"/>
   </g>
   <g id="patch_11">
    <path clip-path="url(#pdae7afbb24)" d="M 163.444288 134.654 
L 168.795273 134.654 
L 168.795273 120.420236 
L 163.444288 120.420236 
z
" style="fill:#bc80bd;stroke:#000000;stroke-linejoin:miter;stroke-width:0.8;"/>
   </g>
   <g id="patch_12">
    <path clip-path="url(#pdae7afbb24)" d="M 168.795273 134.654 
L 174.146258 134.654 
L 174.146258 128.184107 
L 168.795273 128.184107 
z
" style="fill:#bc80bd;stroke:#000000;stroke-linejoin:miter;stroke-width:0.8;"/>
   </g>
   <g id="patch_13">
    <path clip-path="url(#pdae7afbb24)" d="M 174.146258 134.654 
L 179.497243 134.654 
L 179.497243 129.80158 
L 174.146258 129.80158 
z
" style="fill:#bc80bd;stroke:#000000;stroke-linejoin:miter;stroke-width:0.8;"/>
   </g>
   <g id="patch_14">
    <path clip-path="url(#pdae7afbb24)" d="M 179.497243 134.654 
L 184.848227 134.654 
L 184.848227 130.772064 
L 179.497243 130.772064 
z
" style="fill:#bc80bd;stroke:#000000;stroke-linejoin:miter;stroke-width:0.8;"/>
   </g>
   <g id="patch_15">
    <path clip-path="url(#pdae7afbb24)" d="M 184.848227 134.654 
L 190.199212 134.654 
L 190.199212 132.066043 
L 184.848227 132.066043 
z
" style="fill:#bc80bd;stroke:#000000;stroke-linejoin:miter;stroke-width:0.8;"/>
   </g>
   <g id="patch_16">
    <path clip-path="url(#pdae7afbb24)" d="M 190.199212 134.654 
L 195.550197 134.654 
L 195.550197 132.389537 
L 190.199212 132.389537 
z
" style="fill:#bc80bd;stroke:#000000;stroke-linejoin:miter;stroke-width:0.8;"/>
   </g>
   <g id="patch_17">
    <path clip-path="url(#pdae7afbb24)" d="M 195.550197 134.654 
L 200.901182 134.654 
L 200.901182 133.683516 
L 195.550197 133.683516 
z
" style="fill:#bc80bd;stroke:#000000;stroke-linejoin:miter;stroke-width:0.8;"/>
   </g>
   <g id="patch_18">
    <path clip-path="url(#pdae7afbb24)" d="M 200.901182 134.654 
L 206.252167 134.654 
L 206.252167 132.713032 
L 200.901182 132.713032 
z
" style="fill:#bc80bd;stroke:#000000;stroke-linejoin:miter;stroke-width:0.8;"/>
   </g>
   <g id="patch_19">
    <path clip-path="url(#pdae7afbb24)" d="M 206.252167 134.654 
L 211.603152 134.654 
L 211.603152 133.360021 
L 206.252167 133.360021 
z
" style="fill:#bc80bd;stroke:#000000;stroke-linejoin:miter;stroke-width:0.8;"/>
   </g>
   <g id="patch_20">
    <path clip-path="url(#pdae7afbb24)" d="M 211.603152 134.654 
L 216.954136 134.654 
L 216.954136 133.360021 
L 211.603152 133.360021 
z
" style="fill:#bc80bd;stroke:#000000;stroke-linejoin:miter;stroke-width:0.8;"/>
   </g>
   <g id="patch_21">
    <path clip-path="url(#pdae7afbb24)" d="M 216.954136 134.654 
L 222.305121 134.654 
L 222.305121 134.007011 
L 216.954136 134.007011 
z
" style="fill:#bc80bd;stroke:#000000;stroke-linejoin:miter;stroke-width:0.8;"/>
   </g>
   <g id="patch_22">
    <path clip-path="url(#pdae7afbb24)" d="M 222.305121 134.654 
L 227.656106 134.654 
L 227.656106 134.654 
L 222.305121 134.654 
z
" style="fill:#bc80bd;stroke:#000000;stroke-linejoin:miter;stroke-width:0.8;"/>
   </g>
   <g id="patch_23">
    <path clip-path="url(#pdae7afbb24)" d="M 227.656106 134.654 
L 233.007091 134.654 
L 233.007091 134.007011 
L 227.656106 134.007011 
z
" style="fill:#bc80bd;stroke:#000000;stroke-linejoin:miter;stroke-width:0.8;"/>
   </g>
   <g id="patch_24">
    <path clip-path="url(#pdae7afbb24)" d="M 233.007091 134.654 
L 238.358076 134.654 
L 238.358076 133.683516 
L 233.007091 133.683516 
z
" style="fill:#bc80bd;stroke:#000000;stroke-linejoin:miter;stroke-width:0.8;"/>
   </g>
   <g id="patch_25">
    <path clip-path="url(#pdae7afbb24)" d="M 238.358076 134.654 
L 243.709061 134.654 
L 243.709061 134.330505 
L 238.358076 134.330505 
z
" style="fill:#bc80bd;stroke:#000000;stroke-linejoin:miter;stroke-width:0.8;"/>
   </g>
   <g id="patch_26">
    <path clip-path="url(#pdae7afbb24)" d="M 243.709061 134.654 
L 249.060045 134.654 
L 249.060045 134.007011 
L 243.709061 134.007011 
z
" style="fill:#bc80bd;stroke:#000000;stroke-linejoin:miter;stroke-width:0.8;"/>
   </g>
   <g id="patch_27">
    <path clip-path="url(#pdae7afbb24)" d="M 249.060045 134.654 
L 254.41103 134.654 
L 254.41103 134.330505 
L 249.060045 134.330505 
z
" style="fill:#bc80bd;stroke:#000000;stroke-linejoin:miter;stroke-width:0.8;"/>
   </g>
   <g id="patch_28">
    <path clip-path="url(#pdae7afbb24)" d="M 254.41103 134.654 
L 259.762015 134.654 
L 259.762015 134.654 
L 254.41103 134.654 
z
" style="fill:#bc80bd;stroke:#000000;stroke-linejoin:miter;stroke-width:0.8;"/>
   </g>
   <g id="patch_29">
    <path clip-path="url(#pdae7afbb24)" d="M 259.762015 134.654 
L 265.113 134.654 
L 265.113 134.654 
L 259.762015 134.654 
z
" style="fill:#bc80bd;stroke:#000000;stroke-linejoin:miter;stroke-width:0.8;"/>
   </g>
   <g id="patch_30">
    <path clip-path="url(#pdae7afbb24)" d="M 265.113 134.654 
L 270.463985 134.654 
L 270.463985 134.654 
L 265.113 134.654 
z
" style="fill:#bc80bd;stroke:#000000;stroke-linejoin:miter;stroke-width:0.8;"/>
   </g>
   <g id="patch_31">
    <path clip-path="url(#pdae7afbb24)" d="M 270.463985 134.654 
L 275.81497 134.654 
L 275.81497 134.654 
L 270.463985 134.654 
z
" style="fill:#bc80bd;stroke:#000000;stroke-linejoin:miter;stroke-width:0.8;"/>
   </g>
   <g id="patch_32">
    <path clip-path="url(#pdae7afbb24)" d="M 275.81497 134.654 
L 281.165954 134.654 
L 281.165954 134.330505 
L 275.81497 134.330505 
z
" style="fill:#bc80bd;stroke:#000000;stroke-linejoin:miter;stroke-width:0.8;"/>
   </g>
   <g id="matplotlib.axis_1">
    <g id="xtick_1">
     <g id="line2d_1">
      <defs>
       <path d="M 0 0 
L 0 3.5 
" id="m2b1a8c911b" style="stroke:#323034;stroke-width:0.8;"/>
      </defs>
      <g>
       <use style="fill:#323034;stroke:#323034;stroke-width:0.8;" x="35.2" xlink:href="#m2b1a8c911b" y="134.654"/>
      </g>
     </g>
     <g id="text_1">
      <!-- $\mathdefault{−4}$ -->
      <g style="fill:#323034;" transform="translate(28.06 149.849625)scale(0.12 -0.12)">
       <defs>
        <path d="M 3974 1408 
L 410 1408 
L 410 1830 
L 3974 1830 
L 3974 1408 
z
" id="STIXGeneral-Regular-2212" transform="scale(0.015625)"/>
        <path d="M 3027 1069 
L 2368 1069 
L 2368 0 
L 1869 0 
L 1869 1069 
L 77 1069 
L 77 1478 
L 2086 4326 
L 2368 4326 
L 2368 1478 
L 3027 1478 
L 3027 1069 
z
M 1869 1478 
L 1869 3674 
L 333 1478 
L 1869 1478 
z
" id="STIXGeneral-Regular-34" transform="scale(0.015625)"/>
       </defs>
       <use transform="translate(0 0.40625)" xlink:href="#STIXGeneral-Regular-2212"/>
       <use transform="translate(68.499985 0.40625)" xlink:href="#STIXGeneral-Regular-34"/>
      </g>
     </g>
    </g>
    <g id="xtick_2">
     <g id="line2d_2">
      <g>
       <use style="fill:#323034;stroke:#323034;stroke-width:0.8;" x="77.91" xlink:href="#m2b1a8c911b" y="134.654"/>
      </g>
     </g>
     <g id="text_2">
      <!-- $\mathdefault{−2}$ -->
      <g style="fill:#323034;" transform="translate(70.77 149.849625)scale(0.12 -0.12)">
       <defs>
        <path d="M 3034 877 
L 2688 0 
L 186 0 
L 186 77 
L 1325 1286 
Q 1773 1754 1965 2144 
Q 2157 2534 2157 2950 
Q 2157 3379 1920 3616 
Q 1683 3853 1267 3853 
Q 922 3853 720 3673 
Q 518 3494 326 3021 
L 192 3053 
Q 301 3648 630 3987 
Q 960 4326 1523 4326 
Q 2054 4326 2380 4006 
Q 2707 3686 2707 3200 
Q 2707 2477 1888 1613 
L 832 486 
L 2330 486 
Q 2541 486 2665 569 
Q 2790 653 2944 915 
L 3034 877 
z
" id="STIXGeneral-Regular-32" transform="scale(0.015625)"/>
       </defs>
       <use transform="translate(0 0.40625)" xlink:href="#STIXGeneral-Regular-2212"/>
       <use transform="translate(68.499985 0.40625)" xlink:href="#STIXGeneral-Regular-32"/>
      </g>
     </g>
    </g>
    <g id="xtick_3">
     <g id="line2d_3">
      <g>
       <use style="fill:#323034;stroke:#323034;stroke-width:0.8;" x="120.62" xlink:href="#m2b1a8c911b" y="134.654"/>
      </g>
     </g>
     <g id="text_3">
      <!-- $\mathdefault{0}$ -->
      <g style="fill:#323034;" transform="translate(117.62 149.849625)scale(0.12 -0.12)">
       <defs>
        <path d="M 3046 2112 
Q 3046 1683 2963 1302 
Q 2880 922 2717 602 
Q 2554 282 2266 96 
Q 1978 -90 1600 -90 
Q 1210 -90 915 108 
Q 621 307 461 640 
Q 301 973 227 1350 
Q 154 1728 154 2150 
Q 154 2746 301 3222 
Q 448 3699 790 4012 
Q 1133 4326 1626 4326 
Q 2253 4326 2649 3712 
Q 3046 3098 3046 2112 
z
M 2432 2080 
Q 2432 3091 2217 3625 
Q 2003 4160 1587 4160 
Q 1190 4160 979 3622 
Q 768 3085 768 2106 
Q 768 1120 979 598 
Q 1190 77 1600 77 
Q 2003 77 2217 598 
Q 2432 1120 2432 2080 
z
" id="STIXGeneral-Regular-30" transform="scale(0.015625)"/>
       </defs>
       <use transform="translate(0 0.40625)" xlink:href="#STIXGeneral-Regular-30"/>
      </g>
     </g>
    </g>
    <g id="xtick_4">
     <g id="line2d_4">
      <g>
       <use style="fill:#323034;stroke:#323034;stroke-width:0.8;" x="163.33" xlink:href="#m2b1a8c911b" y="134.654"/>
      </g>
     </g>
     <g id="text_4">
      <!-- $\mathdefault{2}$ -->
      <g style="fill:#323034;" transform="translate(160.33 149.849625)scale(0.12 -0.12)">
       <use transform="translate(0 0.40625)" xlink:href="#STIXGeneral-Regular-32"/>
      </g>
     </g>
    </g>
    <g id="xtick_5">
     <g id="line2d_5">
      <g>
       <use style="fill:#323034;stroke:#323034;stroke-width:0.8;" x="206.04" xlink:href="#m2b1a8c911b" y="134.654"/>
      </g>
     </g>
     <g id="text_5">
      <!-- $\mathdefault{4}$ -->
      <g style="fill:#323034;" transform="translate(203.04 149.849625)scale(0.12 -0.12)">
       <use transform="translate(0 0.40625)" xlink:href="#STIXGeneral-Regular-34"/>
      </g>
     </g>
    </g>
   </g>
   <g id="matplotlib.axis_2">
    <g id="ytick_1">
     <g id="line2d_6">
      <defs>
       <path d="M 0 0 
L -3.5 0 
" id="mbf28781720" style="stroke:#323034;stroke-width:0.8;"/>
      </defs>
      <g>
       <use style="fill:#323034;stroke:#323034;stroke-width:0.8;" x="35.2" xlink:href="#mbf28781720" y="134.654"/>
      </g>
     </g>
     <g id="text_6">
      <!-- $\mathdefault{0.0}$ -->
      <g style="fill:#323034;" transform="translate(13.2 138.751812)scale(0.12 -0.12)">
       <defs>
        <path d="M 1158 275 
Q 1158 134 1052 32 
Q 947 -70 800 -70 
Q 653 -70 550 32 
Q 448 134 448 281 
Q 448 429 553 534 
Q 659 640 806 640 
Q 947 640 1052 531 
Q 1158 422 1158 275 
z
" id="STIXGeneral-Regular-2e" transform="scale(0.015625)"/>
       </defs>
       <use transform="translate(0 0.40625)" xlink:href="#STIXGeneral-Regular-30"/>
       <use transform="translate(49.999985 0.40625)" xlink:href="#STIXGeneral-Regular-2e"/>
       <use transform="translate(74.999969 0.40625)" xlink:href="#STIXGeneral-Regular-30"/>
      </g>
     </g>
    </g>
    <g id="ytick_2">
     <g id="line2d_7">
      <g>
       <use style="fill:#323034;stroke:#323034;stroke-width:0.8;" x="35.2" xlink:href="#mbf28781720" y="94.1245"/>
      </g>
     </g>
     <g id="text_7">
      <!-- $\mathdefault{0.5}$ -->
      <g style="fill:#323034;" transform="translate(13.2 98.222313)scale(0.12 -0.12)">
       <defs>
        <path d="M 2803 4358 
L 2573 3814 
Q 2534 3731 2400 3731 
L 1158 3731 
L 902 3187 
Q 1606 3053 1920 2896 
Q 2234 2739 2502 2368 
Q 2726 2061 2726 1555 
Q 2726 1094 2576 780 
Q 2426 467 2099 224 
Q 1664 -90 1011 -90 
Q 646 -90 422 19 
Q 198 128 198 307 
Q 198 550 486 550 
Q 717 550 960 352 
Q 1210 147 1414 147 
Q 1747 147 2012 480 
Q 2278 813 2278 1229 
Q 2278 1843 1850 2189 
Q 1293 2637 486 2637 
Q 410 2637 410 2688 
L 416 2720 
L 1114 4237 
L 2438 4237 
Q 2547 4237 2608 4269 
Q 2669 4301 2746 4403 
L 2803 4358 
z
" id="STIXGeneral-Regular-35" transform="scale(0.015625)"/>
       </defs>
       <use transform="translate(0 0.203125)" xlink:href="#STIXGeneral-Regular-30"/>
       <use transform="translate(49.999985 0.203125)" xlink:href="#STIXGeneral-Regular-2e"/>
       <use transform="translate(74.999969 0.203125)" xlink:href="#STIXGeneral-Regular-35"/>
      </g>
     </g>
    </g>
    <g id="ytick_3">
     <g id="line2d_8">
      <g>
       <use style="fill:#323034;stroke:#323034;stroke-width:0.8;" x="35.2" xlink:href="#mbf28781720" y="53.595"/>
      </g>
     </g>
     <g id="text_8">
      <!-- $\mathdefault{1.0}$ -->
      <g style="fill:#323034;" transform="translate(13.2 57.692813)scale(0.12 -0.12)">
       <defs>
        <path d="M 2522 0 
L 755 0 
L 755 96 
Q 1107 115 1235 227 
Q 1363 339 1363 608 
L 1363 3482 
Q 1363 3795 1171 3795 
Q 1082 3795 883 3718 
L 710 3654 
L 710 3744 
L 1856 4326 
L 1914 4307 
L 1914 486 
Q 1914 275 2042 185 
Q 2170 96 2522 96 
L 2522 0 
z
" id="STIXGeneral-Regular-31" transform="scale(0.015625)"/>
       </defs>
       <use transform="translate(0 0.40625)" xlink:href="#STIXGeneral-Regular-31"/>
       <use transform="translate(49.999985 0.40625)" xlink:href="#STIXGeneral-Regular-2e"/>
       <use transform="translate(74.999969 0.40625)" xlink:href="#STIXGeneral-Regular-30"/>
      </g>
     </g>
    </g>
   </g>
   <g id="patch_33">
    <path d="M 35.2 134.654 
L 35.2 53.595 
" style="fill:none;stroke:#000000;stroke-linecap:square;stroke-linejoin:miter;stroke-width:0.6;"/>
   </g>
   <g id="patch_34">
    <path d="M 35.2 134.654 
L 206.04 134.654 
" style="fill:none;stroke:#000000;stroke-linecap:square;stroke-linejoin:miter;stroke-width:0.6;"/>
   </g>
   <g id="text_9">
    <!-- Original -->
    <g style="fill:#323034;" transform="translate(35.2 47.595)scale(0.12 -0.12)">
     <defs>
      <path d="M 4403 2118 
Q 4403 1133 3820 521 
Q 3238 -90 2310 -90 
Q 1376 -90 797 524 
Q 218 1139 218 2138 
Q 218 3110 797 3718 
Q 1376 4326 2310 4326 
Q 3245 4326 3824 3702 
Q 4403 3078 4403 2118 
z
M 3674 2157 
Q 3674 2701 3520 3133 
Q 3366 3565 3091 3795 
Q 2733 4096 2304 4096 
Q 1760 4096 1389 3667 
Q 1184 3437 1065 3011 
Q 947 2586 947 2125 
Q 947 960 1523 429 
Q 1837 141 2317 141 
Q 2816 141 3142 448 
Q 3674 960 3674 2157 
z
" id="STIXGeneral-Regular-4f" transform="scale(0.015625)"/>
      <path d="M 1024 2931 
L 1024 2342 
Q 1267 2688 1430 2816 
Q 1594 2944 1792 2944 
Q 1958 2944 2051 2854 
Q 2144 2765 2144 2605 
Q 2144 2470 2077 2393 
Q 2010 2317 1894 2317 
Q 1773 2317 1638 2445 
Q 1536 2541 1472 2541 
Q 1338 2541 1181 2355 
Q 1024 2170 1024 2016 
L 1024 576 
Q 1024 301 1133 205 
Q 1242 109 1568 96 
L 1568 0 
L 32 0 
L 32 96 
Q 339 154 412 224 
Q 486 294 486 538 
L 486 2138 
Q 486 2349 438 2435 
Q 390 2522 269 2522 
Q 166 2522 45 2496 
L 45 2598 
Q 448 2726 992 2944 
L 1024 2931 
z
" id="STIXGeneral-Regular-72" transform="scale(0.015625)"/>
      <path d="M 1152 4045 
Q 1152 3904 1056 3811 
Q 960 3718 819 3718 
Q 685 3718 592 3811 
Q 499 3904 499 4045 
Q 499 4179 595 4275 
Q 691 4371 826 4371 
Q 966 4371 1059 4275 
Q 1152 4179 1152 4045 
z
M 1619 0 
L 102 0 
L 102 96 
Q 435 115 521 211 
Q 608 307 608 666 
L 608 2118 
Q 608 2342 563 2432 
Q 518 2522 397 2522 
Q 243 2522 128 2490 
L 128 2592 
L 1120 2944 
L 1146 2918 
L 1146 672 
Q 1146 314 1226 218 
Q 1306 122 1619 96 
L 1619 0 
z
" id="STIXGeneral-Regular-69" transform="scale(0.015625)"/>
      <path d="M 3008 2483 
L 2477 2483 
Q 2598 2208 2598 1946 
Q 2598 1453 2265 1203 
Q 1933 954 1600 954 
Q 1530 954 1357 973 
L 1235 986 
Q 1107 947 979 812 
Q 851 678 851 582 
Q 851 435 1350 410 
L 2176 371 
Q 2528 358 2739 172 
Q 2950 -13 2950 -314 
Q 2950 -685 2566 -986 
Q 2035 -1395 1286 -1395 
Q 826 -1395 502 -1212 
Q 179 -1030 179 -774 
Q 179 -595 320 -419 
Q 461 -243 806 6 
Q 602 102 534 172 
Q 467 243 467 346 
Q 467 531 762 787 
Q 909 915 1037 1043 
Q 717 1203 579 1401 
Q 442 1600 442 1901 
Q 442 2336 752 2640 
Q 1062 2944 1510 2944 
Q 1766 2944 2022 2848 
L 2163 2797 
Q 2349 2733 2515 2733 
L 3008 2733 
L 3008 2483 
z
M 973 2163 
L 973 2144 
Q 973 1683 1155 1398 
Q 1338 1114 1632 1114 
Q 1850 1114 1978 1270 
Q 2106 1427 2106 1690 
Q 2106 2112 1914 2464 
Q 1754 2765 1446 2765 
Q 1222 2765 1097 2605 
Q 973 2445 973 2163 
z
M 2771 -410 
Q 2771 -230 2595 -163 
Q 2419 -96 1978 -96 
Q 1344 -96 941 -13 
Q 749 -243 688 -348 
Q 627 -454 627 -563 
Q 627 -774 880 -902 
Q 1133 -1030 1555 -1030 
Q 2099 -1030 2435 -860 
Q 2771 -691 2771 -410 
z
" id="STIXGeneral-Regular-67" transform="scale(0.015625)"/>
      <path d="M 3104 0 
L 1773 0 
L 1779 96 
Q 2016 115 2096 233 
Q 2176 352 2176 672 
L 2176 1946 
Q 2176 2592 1709 2592 
Q 1549 2592 1408 2515 
Q 1267 2438 1050 2227 
L 1050 461 
Q 1050 269 1136 192 
Q 1222 115 1466 96 
L 1466 0 
L 115 0 
L 115 96 
Q 358 115 435 214 
Q 512 314 512 602 
L 512 2157 
Q 512 2394 467 2483 
Q 422 2573 288 2573 
Q 160 2573 102 2547 
L 102 2656 
Q 550 2784 979 2944 
L 1030 2925 
L 1030 2426 
L 1037 2426 
Q 1491 2944 1958 2944 
Q 2323 2944 2518 2688 
Q 2714 2432 2714 1958 
L 2714 544 
Q 2714 288 2790 205 
Q 2867 122 3104 96 
L 3104 0 
z
" id="STIXGeneral-Regular-6e" transform="scale(0.015625)"/>
      <path d="M 2829 422 
L 2829 243 
Q 2586 -64 2253 -64 
Q 1888 -64 1843 403 
L 1837 403 
Q 1427 -64 909 -64 
Q 608 -64 422 112 
Q 237 288 237 602 
Q 237 1050 685 1350 
Q 992 1555 1837 1869 
L 1837 2214 
Q 1837 2502 1699 2646 
Q 1562 2790 1338 2790 
Q 1146 2790 1018 2697 
Q 890 2605 890 2477 
Q 890 2419 909 2348 
Q 928 2278 928 2208 
Q 928 2112 841 2029 
Q 755 1946 634 1946 
Q 525 1946 441 2029 
Q 358 2112 358 2240 
Q 358 2547 685 2752 
Q 986 2944 1421 2944 
Q 1939 2944 2176 2656 
Q 2291 2522 2323 2384 
Q 2355 2246 2355 1946 
L 2355 723 
Q 2355 301 2554 301 
Q 2682 301 2829 422 
z
M 1837 813 
L 1837 1715 
Q 1248 1510 1018 1293 
Q 800 1094 800 800 
Q 800 557 921 432 
Q 1043 307 1242 307 
Q 1453 307 1613 410 
Q 1747 506 1792 589 
Q 1837 672 1837 813 
z
" id="STIXGeneral-Regular-61" transform="scale(0.015625)"/>
      <path d="M 1645 0 
L 134 0 
L 134 96 
Q 435 122 531 221 
Q 627 320 627 589 
L 627 3590 
Q 627 3821 569 3910 
Q 512 4000 358 4000 
Q 224 4000 122 3987 
L 122 4090 
Q 730 4237 1133 4371 
L 1165 4346 
L 1165 557 
Q 1165 288 1254 201 
Q 1344 115 1645 96 
L 1645 0 
z
" id="STIXGeneral-Regular-6c" transform="scale(0.015625)"/>
     </defs>
     <use xlink:href="#STIXGeneral-Regular-4f"/>
     <use x="72.199982" xlink:href="#STIXGeneral-Regular-72"/>
     <use x="105.499969" xlink:href="#STIXGeneral-Regular-69"/>
     <use x="133.299957" xlink:href="#STIXGeneral-Regular-67"/>
     <use x="183.299942" xlink:href="#STIXGeneral-Regular-69"/>
     <use x="211.09993" xlink:href="#STIXGeneral-Regular-6e"/>
     <use x="261.099915" xlink:href="#STIXGeneral-Regular-61"/>
     <use x="305.499908" xlink:href="#STIXGeneral-Regular-6c"/>
    </g>
   </g>
  </g>
  <g id="axes_2">
   <g id="patch_35">
    <path d="M 242.8 134.654 
L 413.64 134.654 
L 413.64 53.595 
L 242.8 53.595 
z
" style="fill:#ffffff;"/>
   </g>
   <g id="patch_36">
    <path clip-path="url(#pd7e54ecd2c)" d="M 175.079405 134.654 
L 181.620068 134.654 
L 181.620068 133.992364 
L 175.079405 133.992364 
z
" style="fill:#bc80bd;stroke:#000000;stroke-linejoin:miter;stroke-width:0.8;"/>
   </g>
   <g id="patch_37">
    <path clip-path="url(#pd7e54ecd2c)" d="M 181.620068 134.654 
L 188.160732 134.654 
L 188.160732 134.654 
L 181.620068 134.654 
z
" style="fill:#bc80bd;stroke:#000000;stroke-linejoin:miter;stroke-width:0.8;"/>
   </g>
   <g id="patch_38">
    <path clip-path="url(#pd7e54ecd2c)" d="M 188.160732 134.654 
L 194.701396 134.654 
L 194.701396 133.992364 
L 188.160732 133.992364 
z
" style="fill:#bc80bd;stroke:#000000;stroke-linejoin:miter;stroke-width:0.8;"/>
   </g>
   <g id="patch_39">
    <path clip-path="url(#pd7e54ecd2c)" d="M 194.701396 134.654 
L 201.24206 134.654 
L 201.24206 133.992364 
L 194.701396 133.992364 
z
" style="fill:#bc80bd;stroke:#000000;stroke-linejoin:miter;stroke-width:0.8;"/>
   </g>
   <g id="patch_40">
    <path clip-path="url(#pd7e54ecd2c)" d="M 201.24206 134.654 
L 207.782724 134.654 
L 207.782724 133.992364 
L 201.24206 133.992364 
z
" style="fill:#bc80bd;stroke:#000000;stroke-linejoin:miter;stroke-width:0.8;"/>
   </g>
   <g id="patch_41">
    <path clip-path="url(#pd7e54ecd2c)" d="M 207.782724 134.654 
L 214.323388 134.654 
L 214.323388 133.992364 
L 207.782724 133.992364 
z
" style="fill:#bc80bd;stroke:#000000;stroke-linejoin:miter;stroke-width:0.8;"/>
   </g>
   <g id="patch_42">
    <path clip-path="url(#pd7e54ecd2c)" d="M 214.323388 134.654 
L 220.864052 134.654 
L 220.864052 132.007457 
L 214.323388 132.007457 
z
" style="fill:#bc80bd;stroke:#000000;stroke-linejoin:miter;stroke-width:0.8;"/>
   </g>
   <g id="patch_43">
    <path clip-path="url(#pd7e54ecd2c)" d="M 220.864052 134.654 
L 227.404715 134.654 
L 227.404715 133.330728 
L 220.864052 133.330728 
z
" style="fill:#bc80bd;stroke:#000000;stroke-linejoin:miter;stroke-width:0.8;"/>
   </g>
   <g id="patch_44">
    <path clip-path="url(#pd7e54ecd2c)" d="M 227.404715 134.654 
L 233.945379 134.654 
L 233.945379 130.684185 
L 227.404715 130.684185 
z
" style="fill:#bc80bd;stroke:#000000;stroke-linejoin:miter;stroke-width:0.8;"/>
   </g>
   <g id="patch_45">
    <path clip-path="url(#pd7e54ecd2c)" d="M 233.945379 134.654 
L 240.486043 134.654 
L 240.486043 131.345821 
L 233.945379 131.345821 
z
" style="fill:#bc80bd;stroke:#000000;stroke-linejoin:miter;stroke-width:0.8;"/>
   </g>
   <g id="patch_46">
    <path clip-path="url(#pd7e54ecd2c)" d="M 240.486043 134.654 
L 247.026707 134.654 
L 247.026707 128.699278 
L 240.486043 128.699278 
z
" style="fill:#bc80bd;stroke:#000000;stroke-linejoin:miter;stroke-width:0.8;"/>
   </g>
   <g id="patch_47">
    <path clip-path="url(#pd7e54ecd2c)" d="M 247.026707 134.654 
L 253.567371 134.654 
L 253.567371 130.022549 
L 247.026707 130.022549 
z
" style="fill:#bc80bd;stroke:#000000;stroke-linejoin:miter;stroke-width:0.8;"/>
   </g>
   <g id="patch_48">
    <path clip-path="url(#pd7e54ecd2c)" d="M 253.567371 134.654 
L 260.108035 134.654 
L 260.108035 128.037642 
L 253.567371 128.037642 
z
" style="fill:#bc80bd;stroke:#000000;stroke-linejoin:miter;stroke-width:0.8;"/>
   </g>
   <g id="patch_49">
    <path clip-path="url(#pd7e54ecd2c)" d="M 260.108035 134.654 
L 266.648699 134.654 
L 266.648699 126.052735 
L 260.108035 126.052735 
z
" style="fill:#bc80bd;stroke:#000000;stroke-linejoin:miter;stroke-width:0.8;"/>
   </g>
   <g id="patch_50">
    <path clip-path="url(#pd7e54ecd2c)" d="M 266.648699 134.654 
L 273.189362 134.654 
L 273.189362 120.759648 
L 266.648699 120.759648 
z
" style="fill:#bc80bd;stroke:#000000;stroke-linejoin:miter;stroke-width:0.8;"/>
   </g>
   <g id="patch_51">
    <path clip-path="url(#pd7e54ecd2c)" d="M 273.189362 134.654 
L 279.730026 134.654 
L 279.730026 121.421284 
L 273.189362 121.421284 
z
" style="fill:#bc80bd;stroke:#000000;stroke-linejoin:miter;stroke-width:0.8;"/>
   </g>
   <g id="patch_52">
    <path clip-path="url(#pd7e54ecd2c)" d="M 279.730026 134.654 
L 286.27069 134.654 
L 286.27069 112.158383 
L 279.730026 112.158383 
z
" style="fill:#bc80bd;stroke:#000000;stroke-linejoin:miter;stroke-width:0.8;"/>
   </g>
   <g id="patch_53">
    <path clip-path="url(#pd7e54ecd2c)" d="M 286.27069 134.654 
L 292.811354 134.654 
L 292.811354 113.481654 
L 286.27069 113.481654 
z
" style="fill:#bc80bd;stroke:#000000;stroke-linejoin:miter;stroke-width:0.8;"/>
   </g>
   <g id="patch_54">
    <path clip-path="url(#pd7e54ecd2c)" d="M 292.811354 134.654 
L 299.352018 134.654 
L 299.352018 107.526932 
L 292.811354 107.526932 
z
" style="fill:#bc80bd;stroke:#000000;stroke-linejoin:miter;stroke-width:0.8;"/>
   </g>
   <g id="patch_55">
    <path clip-path="url(#pd7e54ecd2c)" d="M 299.352018 134.654 
L 305.892682 134.654 
L 305.892682 86.354587 
L 299.352018 86.354587 
z
" style="fill:#bc80bd;stroke:#000000;stroke-linejoin:miter;stroke-width:0.8;"/>
   </g>
   <g id="patch_56">
    <path clip-path="url(#pd7e54ecd2c)" d="M 305.892682 134.654 
L 312.433345 134.654 
L 312.433345 75.768414 
L 305.892682 75.768414 
z
" style="fill:#bc80bd;stroke:#000000;stroke-linejoin:miter;stroke-width:0.8;"/>
   </g>
   <g id="patch_57">
    <path clip-path="url(#pd7e54ecd2c)" d="M 312.433345 134.654 
L 318.974009 134.654 
L 318.974009 60.55079 
L 312.433345 60.55079 
z
" style="fill:#bc80bd;stroke:#000000;stroke-linejoin:miter;stroke-width:0.8;"/>
   </g>
   <g id="patch_58">
    <path clip-path="url(#pd7e54ecd2c)" d="M 318.974009 134.654 
L 325.514673 134.654 
L 325.514673 59.889155 
L 318.974009 59.889155 
z
" style="fill:#bc80bd;stroke:#000000;stroke-linejoin:miter;stroke-width:0.8;"/>
   </g>
   <g id="patch_59">
    <path clip-path="url(#pd7e54ecd2c)" d="M 325.514673 134.654 
L 332.055337 134.654 
L 332.055337 62.535698 
L 325.514673 62.535698 
z
" style="fill:#bc80bd;stroke:#000000;stroke-linejoin:miter;stroke-width:0.8;"/>
   </g>
   <g id="patch_60">
    <path clip-path="url(#pd7e54ecd2c)" d="M 332.055337 134.654 
L 338.596001 134.654 
L 338.596001 65.843877 
L 332.055337 65.843877 
z
" style="fill:#bc80bd;stroke:#000000;stroke-linejoin:miter;stroke-width:0.8;"/>
   </g>
   <g id="patch_61">
    <path clip-path="url(#pd7e54ecd2c)" d="M 338.596001 134.654 
L 345.136665 134.654 
L 345.136665 74.445142 
L 338.596001 74.445142 
z
" style="fill:#bc80bd;stroke:#000000;stroke-linejoin:miter;stroke-width:0.8;"/>
   </g>
   <g id="patch_62">
    <path clip-path="url(#pd7e54ecd2c)" d="M 345.136665 134.654 
L 351.677329 134.654 
L 351.677329 97.602395 
L 345.136665 97.602395 
z
" style="fill:#bc80bd;stroke:#000000;stroke-linejoin:miter;stroke-width:0.8;"/>
   </g>
   <g id="patch_63">
    <path clip-path="url(#pd7e54ecd2c)" d="M 351.677329 134.654 
L 358.217992 134.654 
L 358.217992 118.774741 
L 351.677329 118.774741 
z
" style="fill:#bc80bd;stroke:#000000;stroke-linejoin:miter;stroke-width:0.8;"/>
   </g>
   <g id="patch_64">
    <path clip-path="url(#pd7e54ecd2c)" d="M 358.217992 134.654 
L 364.758656 134.654 
L 364.758656 124.729463 
L 358.217992 124.729463 
z
" style="fill:#bc80bd;stroke:#000000;stroke-linejoin:miter;stroke-width:0.8;"/>
   </g>
   <g id="patch_65">
    <path clip-path="url(#pd7e54ecd2c)" d="M 364.758656 134.654 
L 371.29932 134.654 
L 371.29932 131.345821 
L 364.758656 131.345821 
z
" style="fill:#bc80bd;stroke:#000000;stroke-linejoin:miter;stroke-width:0.8;"/>
   </g>
   <g id="matplotlib.axis_3">
    <g id="xtick_6">
     <g id="line2d_9">
      <g>
       <use style="fill:#323034;stroke:#323034;stroke-width:0.8;" x="242.8" xlink:href="#m2b1a8c911b" y="134.654"/>
      </g>
     </g>
     <g id="text_10">
      <!-- $\mathdefault{−4}$ -->
      <g style="fill:#323034;" transform="translate(235.66 149.849625)scale(0.12 -0.12)">
       <use transform="translate(0 0.40625)" xlink:href="#STIXGeneral-Regular-2212"/>
       <use transform="translate(68.499985 0.40625)" xlink:href="#STIXGeneral-Regular-34"/>
      </g>
     </g>
    </g>
    <g id="xtick_7">
     <g id="line2d_10">
      <g>
       <use style="fill:#323034;stroke:#323034;stroke-width:0.8;" x="285.51" xlink:href="#m2b1a8c911b" y="134.654"/>
      </g>
     </g>
     <g id="text_11">
      <!-- $\mathdefault{−2}$ -->
      <g style="fill:#323034;" transform="translate(278.37 149.849625)scale(0.12 -0.12)">
       <use transform="translate(0 0.40625)" xlink:href="#STIXGeneral-Regular-2212"/>
       <use transform="translate(68.499985 0.40625)" xlink:href="#STIXGeneral-Regular-32"/>
      </g>
     </g>
    </g>
    <g id="xtick_8">
     <g id="line2d_11">
      <g>
       <use style="fill:#323034;stroke:#323034;stroke-width:0.8;" x="328.22" xlink:href="#m2b1a8c911b" y="134.654"/>
      </g>
     </g>
     <g id="text_12">
      <!-- $\mathdefault{0}$ -->
      <g style="fill:#323034;" transform="translate(325.22 149.849625)scale(0.12 -0.12)">
       <use transform="translate(0 0.40625)" xlink:href="#STIXGeneral-Regular-30"/>
      </g>
     </g>
    </g>
    <g id="xtick_9">
     <g id="line2d_12">
      <g>
       <use style="fill:#323034;stroke:#323034;stroke-width:0.8;" x="370.93" xlink:href="#m2b1a8c911b" y="134.654"/>
      </g>
     </g>
     <g id="text_13">
      <!-- $\mathdefault{2}$ -->
      <g style="fill:#323034;" transform="translate(367.93 149.849625)scale(0.12 -0.12)">
       <use transform="translate(0 0.40625)" xlink:href="#STIXGeneral-Regular-32"/>
      </g>
     </g>
    </g>
    <g id="xtick_10">
     <g id="line2d_13">
      <g>
       <use style="fill:#323034;stroke:#323034;stroke-width:0.8;" x="413.64" xlink:href="#m2b1a8c911b" y="134.654"/>
      </g>
     </g>
     <g id="text_14">
      <!-- $\mathdefault{4}$ -->
      <g style="fill:#323034;" transform="translate(410.64 149.849625)scale(0.12 -0.12)">
       <use transform="translate(0 0.40625)" xlink:href="#STIXGeneral-Regular-34"/>
      </g>
     </g>
    </g>
   </g>
   <g id="matplotlib.axis_4">
    <g id="ytick_4">
     <g id="line2d_14">
      <g>
       <use style="fill:#323034;stroke:#323034;stroke-width:0.8;" x="242.8" xlink:href="#mbf28781720" y="134.654"/>
      </g>
     </g>
     <g id="text_15">
      <!-- $\mathdefault{0.0}$ -->
      <g style="fill:#323034;" transform="translate(220.8 138.751812)scale(0.12 -0.12)">
       <use transform="translate(0 0.40625)" xlink:href="#STIXGeneral-Regular-30"/>
       <use transform="translate(49.999985 0.40625)" xlink:href="#STIXGeneral-Regular-2e"/>
       <use transform="translate(74.999969 0.40625)" xlink:href="#STIXGeneral-Regular-30"/>
      </g>
     </g>
    </g>
    <g id="ytick_5">
     <g id="line2d_15">
      <g>
       <use style="fill:#323034;stroke:#323034;stroke-width:0.8;" x="242.8" xlink:href="#mbf28781720" y="94.1245"/>
      </g>
     </g>
     <g id="text_16">
      <!-- $\mathdefault{0.2}$ -->
      <g style="fill:#323034;" transform="translate(220.8 98.222313)scale(0.12 -0.12)">
       <use transform="translate(0 0.40625)" xlink:href="#STIXGeneral-Regular-30"/>
       <use transform="translate(49.999985 0.40625)" xlink:href="#STIXGeneral-Regular-2e"/>
       <use transform="translate(74.999969 0.40625)" xlink:href="#STIXGeneral-Regular-32"/>
      </g>
     </g>
    </g>
    <g id="ytick_6">
     <g id="line2d_16">
      <g>
       <use style="fill:#323034;stroke:#323034;stroke-width:0.8;" x="242.8" xlink:href="#mbf28781720" y="53.595"/>
      </g>
     </g>
     <g id="text_17">
      <!-- $\mathdefault{0.4}$ -->
      <g style="fill:#323034;" transform="translate(220.8 57.692813)scale(0.12 -0.12)">
       <use transform="translate(0 0.40625)" xlink:href="#STIXGeneral-Regular-30"/>
       <use transform="translate(49.999985 0.40625)" xlink:href="#STIXGeneral-Regular-2e"/>
       <use transform="translate(74.999969 0.40625)" xlink:href="#STIXGeneral-Regular-34"/>
      </g>
     </g>
    </g>
   </g>
   <g id="line2d_17">
    <path clip-path="url(#pd7e54ecd2c)" d="M 221.445 134.44404 
L 223.602071 134.382345 
L 225.759141 134.304615 
L 227.916212 134.207318 
L 230.073283 134.086327 
L 232.230354 133.936859 
L 234.387424 133.753431 
L 236.544495 133.529821 
L 238.701566 133.259045 
L 240.858636 132.933355 
L 243.015707 132.544262 
L 245.172778 132.082586 
L 247.329848 131.538544 
L 249.486919 130.901873 
L 251.64399 130.162001 
L 253.801061 129.308259 
L 255.958131 128.330138 
L 258.115202 127.217595 
L 260.272273 125.961395 
L 262.429343 124.553495 
L 264.586414 122.987451 
L 266.743485 121.25884 
L 268.900556 119.365684 
L 271.057626 117.308868 
L 273.214697 115.092518 
L 275.371768 112.724329 
L 277.528838 110.21583 
L 279.685909 107.582554 
L 281.84298 104.844106 
L 284.000051 102.024109 
L 286.157121 99.150021 
L 288.314192 96.252814 
L 290.471263 93.366513 
L 292.628333 90.527603 
L 294.785404 87.774313 
L 296.942475 85.145799 
L 299.099545 82.681239 
L 301.256616 80.418875 
L 303.413687 78.395038 
L 305.570758 76.643183 
L 307.727828 75.192965 
L 309.884899 74.069413 
L 312.04197 73.292206 
L 314.19904 72.875102 
L 316.356111 72.825535 
L 318.513182 73.144388 
L 320.670253 73.825975 
L 322.827323 74.858204 
L 324.984394 76.222936 
L 327.141465 77.896514 
L 329.298535 79.850447 
L 331.455606 82.052215 
L 333.612677 84.466165 
L 335.769747 87.054472 
L 337.926818 89.778114 
L 340.083889 92.597838 
L 342.24096 95.475081 
L 344.39803 98.372815 
L 346.555101 101.25629 
L 348.712172 104.093664 
L 350.869242 106.856498 
L 353.026313 109.520115 
L 355.183384 112.063821 
L 357.340455 114.47099 
L 359.497525 116.729031 
L 361.654596 118.829241 
L 363.811667 120.766567 
L 365.968737 122.539288 
L 368.125808 124.148653 
L 370.282879 125.598469 
L 372.439949 126.89468 
L 374.59702 128.044942 
L 376.754091 129.058206 
L 378.911162 129.944335 
L 381.068232 130.713742 
L 383.225303 131.377084 
L 385.382374 131.944979 
L 387.539444 132.427793 
L 389.696515 132.835451 
L 391.853586 133.177306 
L 394.010657 133.462038 
L 396.167727 133.697598 
L 398.324798 133.891176 
L 400.481869 134.049196 
L 402.638939 134.177337 
L 404.79601 134.280565 
L 406.953081 134.363181 
L 409.110152 134.428867 
L 411.267222 134.480755 
L 413.424293 134.521478 
L 415.581364 134.553232 
L 417.738434 134.577834 
L 419.895505 134.596772 
L 422.052576 134.611257 
L 424.209646 134.622266 
L 424.84 134.624696 
" style="fill:none;stroke:#fb8072;stroke-linecap:square;stroke-opacity:0.9;stroke-width:2;"/>
   </g>
   <g id="patch_66">
    <path d="M 242.8 134.654 
L 242.8 53.595 
" style="fill:none;stroke:#000000;stroke-linecap:square;stroke-linejoin:miter;stroke-width:0.6;"/>
   </g>
   <g id="patch_67">
    <path d="M 242.8 134.654 
L 413.64 134.654 
" style="fill:none;stroke:#000000;stroke-linecap:square;stroke-linejoin:miter;stroke-width:0.6;"/>
   </g>
   <g id="text_18">
    <!-- $\lambda =$0 -->
    <g style="fill:#323034;" transform="translate(242.8 47.595)scale(0.12 -0.12)">
     <defs>
      <path d="M 2656 787 
L 2758 787 
Q 2560 -102 2112 -102 
Q 1965 -102 1869 48 
Q 1773 198 1773 499 
Q 1773 672 1789 889 
Q 1805 1107 1833 1446 
Q 1862 1786 1875 2016 
L 538 0 
L -77 0 
L 1907 2739 
Q 1933 2970 1933 3245 
Q 1933 3936 1619 3936 
Q 1530 3936 1408 3821 
Q 1286 3706 1203 3462 
L 1101 3462 
Q 1312 4339 1747 4339 
Q 1926 4339 2041 4115 
Q 2157 3891 2157 3475 
Q 2157 3040 2093 2192 
Q 2029 1344 2029 941 
Q 2029 602 2089 451 
Q 2150 301 2291 301 
Q 2483 301 2656 787 
z
" id="STIXGeneral-Italic-3bb" transform="scale(0.015625)"/>
      <path d="M 4077 2048 
L 307 2048 
L 307 2470 
L 4077 2470 
L 4077 2048 
z
M 4077 768 
L 307 768 
L 307 1190 
L 4077 1190 
L 4077 768 
z
" id="STIXGeneral-Regular-3d" transform="scale(0.015625)"/>
     </defs>
     <use transform="translate(0 0.203125)" xlink:href="#STIXGeneral-Italic-3bb"/>
     <use transform="translate(60.239984 0.203125)" xlink:href="#STIXGeneral-Regular-3d"/>
     <use transform="translate(143.179965 0.203125)" xlink:href="#STIXGeneral-Regular-30"/>
    </g>
   </g>
  </g>
  <g id="axes_3">
   <g id="patch_68">
    <path d="M 35.2 260.1125 
L 206.04 260.1125 
L 206.04 179.0535 
L 35.2 179.0535 
z
" style="fill:#ffffff;"/>
   </g>
   <g id="patch_69">
    <path clip-path="url(#p7ef1ee6717)" d="M 85.509954 260.1125 
L 89.473936 260.1125 
L 89.473936 232.455724 
L 85.509954 232.455724 
z
" style="fill:#bc80bd;stroke:#000000;stroke-linejoin:miter;stroke-width:0.8;"/>
   </g>
   <g id="patch_70">
    <path clip-path="url(#p7ef1ee6717)" d="M 89.473936 260.1125 
L 93.437917 260.1125 
L 93.437917 218.627336 
L 89.473936 218.627336 
z
" style="fill:#bc80bd;stroke:#000000;stroke-linejoin:miter;stroke-width:0.8;"/>
   </g>
   <g id="patch_71">
    <path clip-path="url(#p7ef1ee6717)" d="M 93.437917 260.1125 
L 97.401899 260.1125 
L 97.401899 219.355146 
L 93.437917 219.355146 
z
" style="fill:#bc80bd;stroke:#000000;stroke-linejoin:miter;stroke-width:0.8;"/>
   </g>
   <g id="patch_72">
    <path clip-path="url(#p7ef1ee6717)" d="M 97.401899 260.1125 
L 101.36588 260.1125 
L 101.36588 205.526758 
L 97.401899 205.526758 
z
" style="fill:#bc80bd;stroke:#000000;stroke-linejoin:miter;stroke-width:0.8;"/>
   </g>
   <g id="patch_73">
    <path clip-path="url(#p7ef1ee6717)" d="M 101.36588 260.1125 
L 105.329862 260.1125 
L 105.329862 198.976469 
L 101.36588 198.976469 
z
" style="fill:#bc80bd;stroke:#000000;stroke-linejoin:miter;stroke-width:0.8;"/>
   </g>
   <g id="patch_74">
    <path clip-path="url(#p7ef1ee6717)" d="M 105.329862 260.1125 
L 109.293843 260.1125 
L 109.293843 187.331511 
L 105.329862 187.331511 
z
" style="fill:#bc80bd;stroke:#000000;stroke-linejoin:miter;stroke-width:0.8;"/>
   </g>
   <g id="patch_75">
    <path clip-path="url(#p7ef1ee6717)" d="M 109.293843 260.1125 
L 113.257825 260.1125 
L 113.257825 194.60961 
L 109.293843 194.60961 
z
" style="fill:#bc80bd;stroke:#000000;stroke-linejoin:miter;stroke-width:0.8;"/>
   </g>
   <g id="patch_76">
    <path clip-path="url(#p7ef1ee6717)" d="M 113.257825 260.1125 
L 117.221806 260.1125 
L 117.221806 204.071139 
L 113.257825 204.071139 
z
" style="fill:#bc80bd;stroke:#000000;stroke-linejoin:miter;stroke-width:0.8;"/>
   </g>
   <g id="patch_77">
    <path clip-path="url(#p7ef1ee6717)" d="M 117.221806 260.1125 
L 121.185787 260.1125 
L 121.185787 202.615519 
L 117.221806 202.615519 
z
" style="fill:#bc80bd;stroke:#000000;stroke-linejoin:miter;stroke-width:0.8;"/>
   </g>
   <g id="patch_78">
    <path clip-path="url(#p7ef1ee6717)" d="M 121.185787 260.1125 
L 125.149769 260.1125 
L 125.149769 219.355146 
L 121.185787 219.355146 
z
" style="fill:#bc80bd;stroke:#000000;stroke-linejoin:miter;stroke-width:0.8;"/>
   </g>
   <g id="patch_79">
    <path clip-path="url(#p7ef1ee6717)" d="M 125.149769 260.1125 
L 129.11375 260.1125 
L 129.11375 214.988287 
L 125.149769 214.988287 
z
" style="fill:#bc80bd;stroke:#000000;stroke-linejoin:miter;stroke-width:0.8;"/>
   </g>
   <g id="patch_80">
    <path clip-path="url(#p7ef1ee6717)" d="M 129.11375 260.1125 
L 133.077732 260.1125 
L 133.077732 231.727914 
L 129.11375 231.727914 
z
" style="fill:#bc80bd;stroke:#000000;stroke-linejoin:miter;stroke-width:0.8;"/>
   </g>
   <g id="patch_81">
    <path clip-path="url(#p7ef1ee6717)" d="M 133.077732 260.1125 
L 137.041713 260.1125 
L 137.041713 237.550393 
L 133.077732 237.550393 
z
" style="fill:#bc80bd;stroke:#000000;stroke-linejoin:miter;stroke-width:0.8;"/>
   </g>
   <g id="patch_82">
    <path clip-path="url(#p7ef1ee6717)" d="M 137.041713 260.1125 
L 141.005695 260.1125 
L 141.005695 230.272295 
L 137.041713 230.272295 
z
" style="fill:#bc80bd;stroke:#000000;stroke-linejoin:miter;stroke-width:0.8;"/>
   </g>
   <g id="patch_83">
    <path clip-path="url(#p7ef1ee6717)" d="M 141.005695 260.1125 
L 144.969676 260.1125 
L 144.969676 236.094774 
L 141.005695 236.094774 
z
" style="fill:#bc80bd;stroke:#000000;stroke-linejoin:miter;stroke-width:0.8;"/>
   </g>
   <g id="patch_84">
    <path clip-path="url(#p7ef1ee6717)" d="M 144.969676 260.1125 
L 148.933658 260.1125 
L 148.933658 244.100682 
L 144.969676 244.100682 
z
" style="fill:#bc80bd;stroke:#000000;stroke-linejoin:miter;stroke-width:0.8;"/>
   </g>
   <g id="patch_85">
    <path clip-path="url(#p7ef1ee6717)" d="M 148.933658 260.1125 
L 152.897639 260.1125 
L 152.897639 249.195352 
L 148.933658 249.195352 
z
" style="fill:#bc80bd;stroke:#000000;stroke-linejoin:miter;stroke-width:0.8;"/>
   </g>
   <g id="patch_86">
    <path clip-path="url(#p7ef1ee6717)" d="M 152.897639 260.1125 
L 156.861621 260.1125 
L 156.861621 254.290021 
L 152.897639 254.290021 
z
" style="fill:#bc80bd;stroke:#000000;stroke-linejoin:miter;stroke-width:0.8;"/>
   </g>
   <g id="patch_87">
    <path clip-path="url(#p7ef1ee6717)" d="M 156.861621 260.1125 
L 160.825602 260.1125 
L 160.825602 254.290021 
L 156.861621 254.290021 
z
" style="fill:#bc80bd;stroke:#000000;stroke-linejoin:miter;stroke-width:0.8;"/>
   </g>
   <g id="patch_88">
    <path clip-path="url(#p7ef1ee6717)" d="M 160.825602 260.1125 
L 164.789584 260.1125 
L 164.789584 256.473451 
L 160.825602 256.473451 
z
" style="fill:#bc80bd;stroke:#000000;stroke-linejoin:miter;stroke-width:0.8;"/>
   </g>
   <g id="patch_89">
    <path clip-path="url(#p7ef1ee6717)" d="M 164.789584 260.1125 
L 168.753565 260.1125 
L 168.753565 255.017831 
L 164.789584 255.017831 
z
" style="fill:#bc80bd;stroke:#000000;stroke-linejoin:miter;stroke-width:0.8;"/>
   </g>
   <g id="patch_90">
    <path clip-path="url(#p7ef1ee6717)" d="M 168.753565 260.1125 
L 172.717546 260.1125 
L 172.717546 257.20126 
L 168.753565 257.20126 
z
" style="fill:#bc80bd;stroke:#000000;stroke-linejoin:miter;stroke-width:0.8;"/>
   </g>
   <g id="patch_91">
    <path clip-path="url(#p7ef1ee6717)" d="M 172.717546 260.1125 
L 176.681528 260.1125 
L 176.681528 257.92907 
L 172.717546 257.92907 
z
" style="fill:#bc80bd;stroke:#000000;stroke-linejoin:miter;stroke-width:0.8;"/>
   </g>
   <g id="patch_92">
    <path clip-path="url(#p7ef1ee6717)" d="M 176.681528 260.1125 
L 180.645509 260.1125 
L 180.645509 258.65688 
L 176.681528 258.65688 
z
" style="fill:#bc80bd;stroke:#000000;stroke-linejoin:miter;stroke-width:0.8;"/>
   </g>
   <g id="patch_93">
    <path clip-path="url(#p7ef1ee6717)" d="M 180.645509 260.1125 
L 184.609491 260.1125 
L 184.609491 257.92907 
L 180.645509 257.92907 
z
" style="fill:#bc80bd;stroke:#000000;stroke-linejoin:miter;stroke-width:0.8;"/>
   </g>
   <g id="patch_94">
    <path clip-path="url(#p7ef1ee6717)" d="M 184.609491 260.1125 
L 188.573472 260.1125 
L 188.573472 257.92907 
L 184.609491 257.92907 
z
" style="fill:#bc80bd;stroke:#000000;stroke-linejoin:miter;stroke-width:0.8;"/>
   </g>
   <g id="patch_95">
    <path clip-path="url(#p7ef1ee6717)" d="M 188.573472 260.1125 
L 192.537454 260.1125 
L 192.537454 259.38469 
L 188.573472 259.38469 
z
" style="fill:#bc80bd;stroke:#000000;stroke-linejoin:miter;stroke-width:0.8;"/>
   </g>
   <g id="patch_96">
    <path clip-path="url(#p7ef1ee6717)" d="M 192.537454 260.1125 
L 196.501435 260.1125 
L 196.501435 260.1125 
L 192.537454 260.1125 
z
" style="fill:#bc80bd;stroke:#000000;stroke-linejoin:miter;stroke-width:0.8;"/>
   </g>
   <g id="patch_97">
    <path clip-path="url(#p7ef1ee6717)" d="M 196.501435 260.1125 
L 200.465417 260.1125 
L 200.465417 260.1125 
L 196.501435 260.1125 
z
" style="fill:#bc80bd;stroke:#000000;stroke-linejoin:miter;stroke-width:0.8;"/>
   </g>
   <g id="patch_98">
    <path clip-path="url(#p7ef1ee6717)" d="M 200.465417 260.1125 
L 204.429398 260.1125 
L 204.429398 259.38469 
L 200.465417 259.38469 
z
" style="fill:#bc80bd;stroke:#000000;stroke-linejoin:miter;stroke-width:0.8;"/>
   </g>
   <g id="matplotlib.axis_5">
    <g id="xtick_11">
     <g id="line2d_18">
      <g>
       <use style="fill:#323034;stroke:#323034;stroke-width:0.8;" x="35.2" xlink:href="#m2b1a8c911b" y="260.1125"/>
      </g>
     </g>
     <g id="text_19">
      <!-- $\mathdefault{−4}$ -->
      <g style="fill:#323034;" transform="translate(28.06 275.308125)scale(0.12 -0.12)">
       <use transform="translate(0 0.40625)" xlink:href="#STIXGeneral-Regular-2212"/>
       <use transform="translate(68.499985 0.40625)" xlink:href="#STIXGeneral-Regular-34"/>
      </g>
     </g>
    </g>
    <g id="xtick_12">
     <g id="line2d_19">
      <g>
       <use style="fill:#323034;stroke:#323034;stroke-width:0.8;" x="77.91" xlink:href="#m2b1a8c911b" y="260.1125"/>
      </g>
     </g>
     <g id="text_20">
      <!-- $\mathdefault{−2}$ -->
      <g style="fill:#323034;" transform="translate(70.77 275.308125)scale(0.12 -0.12)">
       <use transform="translate(0 0.40625)" xlink:href="#STIXGeneral-Regular-2212"/>
       <use transform="translate(68.499985 0.40625)" xlink:href="#STIXGeneral-Regular-32"/>
      </g>
     </g>
    </g>
    <g id="xtick_13">
     <g id="line2d_20">
      <g>
       <use style="fill:#323034;stroke:#323034;stroke-width:0.8;" x="120.62" xlink:href="#m2b1a8c911b" y="260.1125"/>
      </g>
     </g>
     <g id="text_21">
      <!-- $\mathdefault{0}$ -->
      <g style="fill:#323034;" transform="translate(117.62 275.308125)scale(0.12 -0.12)">
       <use transform="translate(0 0.40625)" xlink:href="#STIXGeneral-Regular-30"/>
      </g>
     </g>
    </g>
    <g id="xtick_14">
     <g id="line2d_21">
      <g>
       <use style="fill:#323034;stroke:#323034;stroke-width:0.8;" x="163.33" xlink:href="#m2b1a8c911b" y="260.1125"/>
      </g>
     </g>
     <g id="text_22">
      <!-- $\mathdefault{2}$ -->
      <g style="fill:#323034;" transform="translate(160.33 275.308125)scale(0.12 -0.12)">
       <use transform="translate(0 0.40625)" xlink:href="#STIXGeneral-Regular-32"/>
      </g>
     </g>
    </g>
    <g id="xtick_15">
     <g id="line2d_22">
      <g>
       <use style="fill:#323034;stroke:#323034;stroke-width:0.8;" x="206.04" xlink:href="#m2b1a8c911b" y="260.1125"/>
      </g>
     </g>
     <g id="text_23">
      <!-- $\mathdefault{4}$ -->
      <g style="fill:#323034;" transform="translate(203.04 275.308125)scale(0.12 -0.12)">
       <use transform="translate(0 0.40625)" xlink:href="#STIXGeneral-Regular-34"/>
      </g>
     </g>
    </g>
   </g>
   <g id="matplotlib.axis_6">
    <g id="ytick_7">
     <g id="line2d_23">
      <g>
       <use style="fill:#323034;stroke:#323034;stroke-width:0.8;" x="35.2" xlink:href="#mbf28781720" y="260.1125"/>
      </g>
     </g>
     <g id="text_24">
      <!-- $\mathdefault{0.00}$ -->
      <g style="fill:#323034;" transform="translate(7.2 264.210312)scale(0.12 -0.12)">
       <use transform="translate(0 0.40625)" xlink:href="#STIXGeneral-Regular-30"/>
       <use transform="translate(49.999985 0.40625)" xlink:href="#STIXGeneral-Regular-2e"/>
       <use transform="translate(74.999969 0.40625)" xlink:href="#STIXGeneral-Regular-30"/>
       <use transform="translate(124.999954 0.40625)" xlink:href="#STIXGeneral-Regular-30"/>
      </g>
     </g>
    </g>
    <g id="ytick_8">
     <g id="line2d_24">
      <g>
       <use style="fill:#323034;stroke:#323034;stroke-width:0.8;" x="35.2" xlink:href="#mbf28781720" y="226.337917"/>
      </g>
     </g>
     <g id="text_25">
      <!-- $\mathdefault{0.25}$ -->
      <g style="fill:#323034;" transform="translate(7.2 230.435729)scale(0.12 -0.12)">
       <use transform="translate(0 0.203125)" xlink:href="#STIXGeneral-Regular-30"/>
       <use transform="translate(49.999985 0.203125)" xlink:href="#STIXGeneral-Regular-2e"/>
       <use transform="translate(74.999969 0.203125)" xlink:href="#STIXGeneral-Regular-32"/>
       <use transform="translate(124.999954 0.203125)" xlink:href="#STIXGeneral-Regular-35"/>
      </g>
     </g>
    </g>
    <g id="ytick_9">
     <g id="line2d_25">
      <g>
       <use style="fill:#323034;stroke:#323034;stroke-width:0.8;" x="35.2" xlink:href="#mbf28781720" y="192.563333"/>
      </g>
     </g>
     <g id="text_26">
      <!-- $\mathdefault{0.50}$ -->
      <g style="fill:#323034;" transform="translate(7.2 196.661146)scale(0.12 -0.12)">
       <use transform="translate(0 0.203125)" xlink:href="#STIXGeneral-Regular-30"/>
       <use transform="translate(49.999985 0.203125)" xlink:href="#STIXGeneral-Regular-2e"/>
       <use transform="translate(74.999969 0.203125)" xlink:href="#STIXGeneral-Regular-35"/>
       <use transform="translate(124.999954 0.203125)" xlink:href="#STIXGeneral-Regular-30"/>
      </g>
     </g>
    </g>
   </g>
   <g id="line2d_26">
    <path clip-path="url(#p7ef1ee6717)" d="M 13.845 260.112451 
L 16.002071 260.112412 
L 18.159141 260.112344 
L 20.316212 260.112228 
L 22.473283 260.112032 
L 24.630354 260.111703 
L 26.787424 260.11116 
L 28.944495 260.110274 
L 31.101566 260.108848 
L 33.258636 260.106583 
L 35.415707 260.103029 
L 37.572778 260.097526 
L 39.729848 260.089116 
L 41.886919 260.076431 
L 44.04399 260.057546 
L 46.201061 260.029799 
L 48.358131 259.989567 
L 50.515202 259.932001 
L 52.672273 259.850725 
L 54.829343 259.737503 
L 56.986414 259.58189 
L 59.143485 259.370901 
L 61.300556 259.088713 
L 63.457626 258.716463 
L 65.614697 258.232183 
L 67.771768 257.610933 
L 69.928838 256.825195 
L 72.085909 255.845577 
L 74.24298 254.641883 
L 76.400051 253.184552 
L 78.557121 251.446478 
L 80.714192 249.405155 
L 82.871263 247.045057 
L 85.028333 244.360117 
L 87.185404 241.356133 
L 89.342475 238.052881 
L 91.499545 234.485714 
L 93.656616 230.706424 
L 95.813687 226.78315 
L 97.970758 222.799219 
L 100.127828 218.850824 
L 102.284899 215.043585 
L 104.44197 211.488109 
L 106.59904 208.294807 
L 108.756111 205.568273 
L 110.913182 203.401627 
L 113.070253 201.871248 
L 115.227323 201.032308 
L 117.384394 200.91547 
L 119.541465 201.525028 
L 121.698535 202.838643 
L 123.855606 204.808706 
L 126.012677 207.365199 
L 128.169747 210.419824 
L 130.326818 213.871059 
L 132.483889 217.609738 
L 134.64096 221.524722 
L 136.79803 225.508268 
L 138.955101 229.460735 
L 141.112172 233.294365 
L 143.269242 236.935965 
L 145.426313 240.328448 
L 147.583384 243.431242 
L 149.740455 246.219718 
L 151.897525 248.683811 
L 154.054596 250.826034 
L 156.211667 252.659153 
L 158.368737 254.203703 
L 160.525808 255.485563 
L 162.682879 256.533721 
L 164.839949 257.378345 
L 166.99702 258.049221 
L 169.154091 258.574558 
L 171.311162 258.980182 
L 173.468232 259.289037 
L 175.625303 259.520984 
L 177.782374 259.692803 
L 179.939444 259.818362 
L 182.096515 259.908883 
L 184.253586 259.973273 
L 186.410657 260.018467 
L 188.567727 260.049769 
L 190.724798 260.071164 
L 192.881869 260.085595 
L 195.038939 260.095203 
L 197.19601 260.101516 
L 199.353081 260.10561 
L 201.510152 260.108231 
L 203.667222 260.109888 
L 205.824293 260.110921 
L 207.981364 260.111557 
L 210.138434 260.111944 
L 212.295505 260.112176 
L 214.452576 260.112314 
L 216.609646 260.112394 
L 218.766717 260.112441 
L 220.923788 260.112467 
L 223.080859 260.112482 
L 225.237929 260.11249 
L 227.395 260.112495 
" style="fill:none;stroke:#fb8072;stroke-linecap:square;stroke-opacity:0.9;stroke-width:2;"/>
   </g>
   <g id="patch_99">
    <path d="M 35.2 260.1125 
L 35.2 179.0535 
" style="fill:none;stroke:#000000;stroke-linecap:square;stroke-linejoin:miter;stroke-width:0.6;"/>
   </g>
   <g id="patch_100">
    <path d="M 35.2 260.1125 
L 206.04 260.1125 
" style="fill:none;stroke:#000000;stroke-linecap:square;stroke-linejoin:miter;stroke-width:0.6;"/>
   </g>
   <g id="text_27">
    <!-- $\lambda =$0.6 -->
    <g style="fill:#323034;" transform="translate(35.2 173.0535)scale(0.12 -0.12)">
     <defs>
      <path d="M 2854 4378 
L 2867 4275 
Q 2112 4154 1606 3664 
Q 1101 3174 973 2451 
Q 1344 2739 1786 2739 
Q 2349 2739 2672 2380 
Q 2995 2022 2995 1402 
Q 2995 774 2669 378 
Q 2291 -90 1651 -90 
Q 870 -90 518 557 
Q 218 1107 218 1786 
Q 218 2835 915 3552 
Q 1312 3962 1731 4131 
Q 2150 4301 2854 4378 
z
M 2419 1203 
Q 2419 2445 1555 2445 
Q 1235 2445 1024 2275 
Q 813 2106 813 1702 
Q 813 954 1046 522 
Q 1280 90 1722 90 
Q 2061 90 2240 394 
Q 2419 698 2419 1203 
z
" id="STIXGeneral-Regular-36" transform="scale(0.015625)"/>
     </defs>
     <use transform="translate(0 0.59375)" xlink:href="#STIXGeneral-Italic-3bb"/>
     <use transform="translate(60.239984 0.59375)" xlink:href="#STIXGeneral-Regular-3d"/>
     <use transform="translate(143.179965 0.59375)" xlink:href="#STIXGeneral-Regular-30"/>
     <use transform="translate(193.17995 0.59375)" xlink:href="#STIXGeneral-Regular-2e"/>
     <use transform="translate(218.179935 0.59375)" xlink:href="#STIXGeneral-Regular-36"/>
    </g>
   </g>
  </g>
  <g id="axes_4">
   <g id="patch_101">
    <path d="M 242.8 260.1125 
L 413.64 260.1125 
L 413.64 179.0535 
L 242.8 179.0535 
z
" style="fill:#ffffff;"/>
   </g>
   <g id="patch_102">
    <path clip-path="url(#p60247acdcd)" d="M 262.489022 260.1125 
L 266.613974 260.1125 
L 266.613974 258.014276 
L 262.489022 258.014276 
z
" style="fill:#bc80bd;stroke:#000000;stroke-linejoin:miter;stroke-width:0.8;"/>
   </g>
   <g id="patch_103">
    <path clip-path="url(#p60247acdcd)" d="M 266.613974 260.1125 
L 270.738925 260.1125 
L 270.738925 255.916051 
L 266.613974 255.916051 
z
" style="fill:#bc80bd;stroke:#000000;stroke-linejoin:miter;stroke-width:0.8;"/>
   </g>
   <g id="patch_104">
    <path clip-path="url(#p60247acdcd)" d="M 270.738925 260.1125 
L 274.863877 260.1125 
L 274.863877 252.41901 
L 270.738925 252.41901 
z
" style="fill:#bc80bd;stroke:#000000;stroke-linejoin:miter;stroke-width:0.8;"/>
   </g>
   <g id="patch_105">
    <path clip-path="url(#p60247acdcd)" d="M 274.863877 260.1125 
L 278.988829 260.1125 
L 278.988829 251.719602 
L 274.863877 251.719602 
z
" style="fill:#bc80bd;stroke:#000000;stroke-linejoin:miter;stroke-width:0.8;"/>
   </g>
   <g id="patch_106">
    <path clip-path="url(#p60247acdcd)" d="M 278.988829 260.1125 
L 283.113781 260.1125 
L 283.113781 250.320786 
L 278.988829 250.320786 
z
" style="fill:#bc80bd;stroke:#000000;stroke-linejoin:miter;stroke-width:0.8;"/>
   </g>
   <g id="patch_107">
    <path clip-path="url(#p60247acdcd)" d="M 283.113781 260.1125 
L 287.238733 260.1125 
L 287.238733 244.725521 
L 283.113781 244.725521 
z
" style="fill:#bc80bd;stroke:#000000;stroke-linejoin:miter;stroke-width:0.8;"/>
   </g>
   <g id="patch_108">
    <path clip-path="url(#p60247acdcd)" d="M 287.238733 260.1125 
L 291.363684 260.1125 
L 291.363684 239.130256 
L 287.238733 239.130256 
z
" style="fill:#bc80bd;stroke:#000000;stroke-linejoin:miter;stroke-width:0.8;"/>
   </g>
   <g id="patch_109">
    <path clip-path="url(#p60247acdcd)" d="M 291.363684 260.1125 
L 295.488636 260.1125 
L 295.488636 239.130256 
L 291.363684 239.130256 
z
" style="fill:#bc80bd;stroke:#000000;stroke-linejoin:miter;stroke-width:0.8;"/>
   </g>
   <g id="patch_110">
    <path clip-path="url(#p60247acdcd)" d="M 295.488636 260.1125 
L 299.613588 260.1125 
L 299.613588 232.835582 
L 295.488636 232.835582 
z
" style="fill:#bc80bd;stroke:#000000;stroke-linejoin:miter;stroke-width:0.8;"/>
   </g>
   <g id="patch_111">
    <path clip-path="url(#p60247acdcd)" d="M 299.613588 260.1125 
L 303.73854 260.1125 
L 303.73854 234.933807 
L 299.613588 234.933807 
z
" style="fill:#bc80bd;stroke:#000000;stroke-linejoin:miter;stroke-width:0.8;"/>
   </g>
   <g id="patch_112">
    <path clip-path="url(#p60247acdcd)" d="M 303.73854 260.1125 
L 307.863492 260.1125 
L 307.863492 216.049787 
L 303.73854 216.049787 
z
" style="fill:#bc80bd;stroke:#000000;stroke-linejoin:miter;stroke-width:0.8;"/>
   </g>
   <g id="patch_113">
    <path clip-path="url(#p60247acdcd)" d="M 307.863492 260.1125 
L 311.988443 260.1125 
L 311.988443 213.951562 
L 307.863492 213.951562 
z
" style="fill:#bc80bd;stroke:#000000;stroke-linejoin:miter;stroke-width:0.8;"/>
   </g>
   <g id="patch_114">
    <path clip-path="url(#p60247acdcd)" d="M 311.988443 260.1125 
L 316.113395 260.1125 
L 316.113395 200.662807 
L 311.988443 200.662807 
z
" style="fill:#bc80bd;stroke:#000000;stroke-linejoin:miter;stroke-width:0.8;"/>
   </g>
   <g id="patch_115">
    <path clip-path="url(#p60247acdcd)" d="M 316.113395 260.1125 
L 320.238347 260.1125 
L 320.238347 205.558664 
L 316.113395 205.558664 
z
" style="fill:#bc80bd;stroke:#000000;stroke-linejoin:miter;stroke-width:0.8;"/>
   </g>
   <g id="patch_116">
    <path clip-path="url(#p60247acdcd)" d="M 320.238347 260.1125 
L 324.363299 260.1125 
L 324.363299 209.055705 
L 320.238347 209.055705 
z
" style="fill:#bc80bd;stroke:#000000;stroke-linejoin:miter;stroke-width:0.8;"/>
   </g>
   <g id="patch_117">
    <path clip-path="url(#p60247acdcd)" d="M 324.363299 260.1125 
L 328.488251 260.1125 
L 328.488251 203.46044 
L 324.363299 203.46044 
z
" style="fill:#bc80bd;stroke:#000000;stroke-linejoin:miter;stroke-width:0.8;"/>
   </g>
   <g id="patch_118">
    <path clip-path="url(#p60247acdcd)" d="M 328.488251 260.1125 
L 332.613202 260.1125 
L 332.613202 216.049787 
L 328.488251 216.049787 
z
" style="fill:#bc80bd;stroke:#000000;stroke-linejoin:miter;stroke-width:0.8;"/>
   </g>
   <g id="patch_119">
    <path clip-path="url(#p60247acdcd)" d="M 332.613202 260.1125 
L 336.738154 260.1125 
L 336.738154 213.951562 
L 332.613202 213.951562 
z
" style="fill:#bc80bd;stroke:#000000;stroke-linejoin:miter;stroke-width:0.8;"/>
   </g>
   <g id="patch_120">
    <path clip-path="url(#p60247acdcd)" d="M 336.738154 260.1125 
L 340.863106 260.1125 
L 340.863106 229.338541 
L 336.738154 229.338541 
z
" style="fill:#bc80bd;stroke:#000000;stroke-linejoin:miter;stroke-width:0.8;"/>
   </g>
   <g id="patch_121">
    <path clip-path="url(#p60247acdcd)" d="M 340.863106 260.1125 
L 344.988058 260.1125 
L 344.988058 227.939725 
L 340.863106 227.939725 
z
" style="fill:#bc80bd;stroke:#000000;stroke-linejoin:miter;stroke-width:0.8;"/>
   </g>
   <g id="patch_122">
    <path clip-path="url(#p60247acdcd)" d="M 344.988058 260.1125 
L 349.11301 260.1125 
L 349.11301 225.841501 
L 344.988058 225.841501 
z
" style="fill:#bc80bd;stroke:#000000;stroke-linejoin:miter;stroke-width:0.8;"/>
   </g>
   <g id="patch_123">
    <path clip-path="url(#p60247acdcd)" d="M 349.11301 260.1125 
L 353.237961 260.1125 
L 353.237961 241.22848 
L 349.11301 241.22848 
z
" style="fill:#bc80bd;stroke:#000000;stroke-linejoin:miter;stroke-width:0.8;"/>
   </g>
   <g id="patch_124">
    <path clip-path="url(#p60247acdcd)" d="M 353.237961 260.1125 
L 357.362913 260.1125 
L 357.362913 249.621378 
L 353.237961 249.621378 
z
" style="fill:#bc80bd;stroke:#000000;stroke-linejoin:miter;stroke-width:0.8;"/>
   </g>
   <g id="patch_125">
    <path clip-path="url(#p60247acdcd)" d="M 357.362913 260.1125 
L 361.487865 260.1125 
L 361.487865 250.320786 
L 357.362913 250.320786 
z
" style="fill:#bc80bd;stroke:#000000;stroke-linejoin:miter;stroke-width:0.8;"/>
   </g>
   <g id="patch_126">
    <path clip-path="url(#p60247acdcd)" d="M 361.487865 260.1125 
L 365.612817 260.1125 
L 365.612817 253.817827 
L 361.487865 253.817827 
z
" style="fill:#bc80bd;stroke:#000000;stroke-linejoin:miter;stroke-width:0.8;"/>
   </g>
   <g id="patch_127">
    <path clip-path="url(#p60247acdcd)" d="M 365.612817 260.1125 
L 369.737769 260.1125 
L 369.737769 255.216643 
L 365.612817 255.216643 
z
" style="fill:#bc80bd;stroke:#000000;stroke-linejoin:miter;stroke-width:0.8;"/>
   </g>
   <g id="patch_128">
    <path clip-path="url(#p60247acdcd)" d="M 369.737769 260.1125 
L 373.86272 260.1125 
L 373.86272 258.014276 
L 369.737769 258.014276 
z
" style="fill:#bc80bd;stroke:#000000;stroke-linejoin:miter;stroke-width:0.8;"/>
   </g>
   <g id="patch_129">
    <path clip-path="url(#p60247acdcd)" d="M 373.86272 260.1125 
L 377.987672 260.1125 
L 377.987672 255.916051 
L 373.86272 255.916051 
z
" style="fill:#bc80bd;stroke:#000000;stroke-linejoin:miter;stroke-width:0.8;"/>
   </g>
   <g id="patch_130">
    <path clip-path="url(#p60247acdcd)" d="M 377.987672 260.1125 
L 382.112624 260.1125 
L 382.112624 259.413092 
L 377.987672 259.413092 
z
" style="fill:#bc80bd;stroke:#000000;stroke-linejoin:miter;stroke-width:0.8;"/>
   </g>
   <g id="patch_131">
    <path clip-path="url(#p60247acdcd)" d="M 382.112624 260.1125 
L 386.237576 260.1125 
L 386.237576 259.413092 
L 382.112624 259.413092 
z
" style="fill:#bc80bd;stroke:#000000;stroke-linejoin:miter;stroke-width:0.8;"/>
   </g>
   <g id="matplotlib.axis_7">
    <g id="xtick_16">
     <g id="line2d_27">
      <g>
       <use style="fill:#323034;stroke:#323034;stroke-width:0.8;" x="242.8" xlink:href="#m2b1a8c911b" y="260.1125"/>
      </g>
     </g>
     <g id="text_28">
      <!-- $\mathdefault{−4}$ -->
      <g style="fill:#323034;" transform="translate(235.66 275.308125)scale(0.12 -0.12)">
       <use transform="translate(0 0.40625)" xlink:href="#STIXGeneral-Regular-2212"/>
       <use transform="translate(68.499985 0.40625)" xlink:href="#STIXGeneral-Regular-34"/>
      </g>
     </g>
    </g>
    <g id="xtick_17">
     <g id="line2d_28">
      <g>
       <use style="fill:#323034;stroke:#323034;stroke-width:0.8;" x="285.51" xlink:href="#m2b1a8c911b" y="260.1125"/>
      </g>
     </g>
     <g id="text_29">
      <!-- $\mathdefault{−2}$ -->
      <g style="fill:#323034;" transform="translate(278.37 275.308125)scale(0.12 -0.12)">
       <use transform="translate(0 0.40625)" xlink:href="#STIXGeneral-Regular-2212"/>
       <use transform="translate(68.499985 0.40625)" xlink:href="#STIXGeneral-Regular-32"/>
      </g>
     </g>
    </g>
    <g id="xtick_18">
     <g id="line2d_29">
      <g>
       <use style="fill:#323034;stroke:#323034;stroke-width:0.8;" x="328.22" xlink:href="#m2b1a8c911b" y="260.1125"/>
      </g>
     </g>
     <g id="text_30">
      <!-- $\mathdefault{0}$ -->
      <g style="fill:#323034;" transform="translate(325.22 275.308125)scale(0.12 -0.12)">
       <use transform="translate(0 0.40625)" xlink:href="#STIXGeneral-Regular-30"/>
      </g>
     </g>
    </g>
    <g id="xtick_19">
     <g id="line2d_30">
      <g>
       <use style="fill:#323034;stroke:#323034;stroke-width:0.8;" x="370.93" xlink:href="#m2b1a8c911b" y="260.1125"/>
      </g>
     </g>
     <g id="text_31">
      <!-- $\mathdefault{2}$ -->
      <g style="fill:#323034;" transform="translate(367.93 275.308125)scale(0.12 -0.12)">
       <use transform="translate(0 0.40625)" xlink:href="#STIXGeneral-Regular-32"/>
      </g>
     </g>
    </g>
    <g id="xtick_20">
     <g id="line2d_31">
      <g>
       <use style="fill:#323034;stroke:#323034;stroke-width:0.8;" x="413.64" xlink:href="#m2b1a8c911b" y="260.1125"/>
      </g>
     </g>
     <g id="text_32">
      <!-- $\mathdefault{4}$ -->
      <g style="fill:#323034;" transform="translate(410.64 275.308125)scale(0.12 -0.12)">
       <use transform="translate(0 0.40625)" xlink:href="#STIXGeneral-Regular-34"/>
      </g>
     </g>
    </g>
   </g>
   <g id="matplotlib.axis_8">
    <g id="ytick_10">
     <g id="line2d_32">
      <g>
       <use style="fill:#323034;stroke:#323034;stroke-width:0.8;" x="242.8" xlink:href="#mbf28781720" y="260.1125"/>
      </g>
     </g>
     <g id="text_33">
      <!-- $\mathdefault{0.00}$ -->
      <g style="fill:#323034;" transform="translate(214.8 264.210312)scale(0.12 -0.12)">
       <use transform="translate(0 0.40625)" xlink:href="#STIXGeneral-Regular-30"/>
       <use transform="translate(49.999985 0.40625)" xlink:href="#STIXGeneral-Regular-2e"/>
       <use transform="translate(74.999969 0.40625)" xlink:href="#STIXGeneral-Regular-30"/>
       <use transform="translate(124.999954 0.40625)" xlink:href="#STIXGeneral-Regular-30"/>
      </g>
     </g>
    </g>
    <g id="ytick_11">
     <g id="line2d_33">
      <g>
       <use style="fill:#323034;stroke:#323034;stroke-width:0.8;" x="242.8" xlink:href="#mbf28781720" y="226.337917"/>
      </g>
     </g>
     <g id="text_34">
      <!-- $\mathdefault{0.25}$ -->
      <g style="fill:#323034;" transform="translate(214.8 230.435729)scale(0.12 -0.12)">
       <use transform="translate(0 0.203125)" xlink:href="#STIXGeneral-Regular-30"/>
       <use transform="translate(49.999985 0.203125)" xlink:href="#STIXGeneral-Regular-2e"/>
       <use transform="translate(74.999969 0.203125)" xlink:href="#STIXGeneral-Regular-32"/>
       <use transform="translate(124.999954 0.203125)" xlink:href="#STIXGeneral-Regular-35"/>
      </g>
     </g>
    </g>
    <g id="ytick_12">
     <g id="line2d_34">
      <g>
       <use style="fill:#323034;stroke:#323034;stroke-width:0.8;" x="242.8" xlink:href="#mbf28781720" y="192.563333"/>
      </g>
     </g>
     <g id="text_35">
      <!-- $\mathdefault{0.50}$ -->
      <g style="fill:#323034;" transform="translate(214.8 196.661146)scale(0.12 -0.12)">
       <use transform="translate(0 0.203125)" xlink:href="#STIXGeneral-Regular-30"/>
       <use transform="translate(49.999985 0.203125)" xlink:href="#STIXGeneral-Regular-2e"/>
       <use transform="translate(74.999969 0.203125)" xlink:href="#STIXGeneral-Regular-35"/>
       <use transform="translate(124.999954 0.203125)" xlink:href="#STIXGeneral-Regular-30"/>
      </g>
     </g>
    </g>
   </g>
   <g id="line2d_35">
    <path clip-path="url(#p60247acdcd)" d="M 221.445 260.111398 
L 223.602071 260.110744 
L 225.759141 260.109733 
L 227.916212 260.108182 
L 230.073283 260.105832 
L 232.230354 260.102308 
L 234.387424 260.09708 
L 236.544495 260.089408 
L 238.701566 260.078271 
L 240.858636 260.06228 
L 243.015707 260.03957 
L 245.172778 260.007669 
L 247.329848 259.96335 
L 249.486919 259.902458 
L 251.64399 259.819722 
L 253.801061 259.708556 
L 255.958131 259.560862 
L 258.115202 259.366845 
L 260.272273 259.114867 
L 262.429343 258.791343 
L 264.586414 258.380739 
L 266.743485 257.865662 
L 268.900556 257.227103 
L 271.057626 256.444836 
L 273.214697 255.498011 
L 275.371768 254.365941 
L 277.528838 253.029091 
L 279.685909 251.47025 
L 281.84298 249.675841 
L 284.000051 247.637334 
L 286.157121 245.352673 
L 288.314192 242.82762 
L 290.471263 240.076935 
L 292.628333 237.125252 
L 294.785404 234.007573 
L 296.942475 230.769256 
L 299.099545 227.465452 
L 301.256616 224.159938 
L 303.413687 220.923344 
L 305.570758 217.830832 
L 307.727828 214.959308 
L 309.884899 212.384313 
L 312.04197 210.176752 
L 314.19904 208.399669 
L 316.356111 207.105257 
L 318.513182 206.33232 
L 320.670253 206.104334 
L 322.827323 206.428268 
L 324.984394 207.294227 
L 327.141465 208.675955 
L 329.298535 210.532157 
L 331.455606 212.808551 
L 333.612677 215.440499 
L 335.769747 218.356052 
L 337.926818 221.479197 
L 340.083889 224.733116 
L 342.24096 228.043248 
L 344.39803 231.340004 
L 346.555101 234.561001 
L 348.712172 237.652727 
L 350.869242 240.571604 
L 353.026313 243.284452 
L 355.183384 245.768405 
L 357.340455 248.010346 
L 359.497525 250.005963 
L 361.654596 251.758544 
L 363.811667 253.277601 
L 365.968737 254.577441 
L 368.125808 255.675776 
L 370.282879 256.592418 
L 372.439949 257.348148 
L 374.59702 257.963759 
L 376.754091 258.459302 
L 378.911162 258.853529 
L 381.068232 259.163521 
L 383.225303 259.404476 
L 385.382374 259.589635 
L 387.539444 259.730309 
L 389.696515 259.835983 
L 391.853586 259.914478 
L 394.010657 259.972136 
L 396.167727 260.01402 
L 398.324798 260.04411 
L 400.481869 260.065491 
L 402.638939 260.080517 
L 404.79601 260.090961 
L 406.953081 260.098143 
L 409.110152 260.103028 
L 411.267222 260.106314 
L 413.424293 260.108502 
L 415.581364 260.109942 
L 417.738434 260.11088 
L 419.895505 260.111485 
L 422.052576 260.11187 
L 424.209646 260.112113 
L 424.84 260.112157 
" style="fill:none;stroke:#fb8072;stroke-linecap:square;stroke-opacity:0.9;stroke-width:2;"/>
   </g>
   <g id="patch_132">
    <path d="M 242.8 260.1125 
L 242.8 179.0535 
" style="fill:none;stroke:#000000;stroke-linecap:square;stroke-linejoin:miter;stroke-width:0.6;"/>
   </g>
   <g id="patch_133">
    <path d="M 242.8 260.1125 
L 413.64 260.1125 
" style="fill:none;stroke:#000000;stroke-linecap:square;stroke-linejoin:miter;stroke-width:0.6;"/>
   </g>
   <g id="text_36">
    <!-- $\lambda^*=$0.28 -->
    <g style="fill:#323034;" transform="translate(242.8 173.0535)scale(0.12 -0.12)">
     <defs>
      <path d="M 1715 3014 
L 1773 2976 
Q 2010 2822 2387 2758 
Q 2605 2726 2688 2665 
Q 2771 2605 2771 2483 
Q 2771 2374 2707 2304 
Q 2643 2234 2541 2234 
Q 2381 2234 2157 2515 
Q 2010 2694 1715 2886 
L 1664 2918 
L 1664 2861 
Q 1664 2502 1792 2157 
Q 1850 1997 1850 1946 
Q 1850 1850 1770 1773 
Q 1690 1696 1594 1696 
Q 1504 1696 1433 1766 
Q 1363 1837 1363 1926 
Q 1363 2016 1440 2227 
Q 1542 2502 1542 2861 
L 1542 2918 
Q 1286 2758 1210 2688 
Q 1133 2611 947 2400 
Q 806 2240 672 2240 
Q 563 2240 499 2304 
Q 435 2368 435 2470 
Q 435 2592 528 2656 
Q 621 2720 838 2758 
Q 1062 2803 1180 2848 
Q 1299 2893 1498 3014 
Q 1222 3181 877 3251 
Q 640 3302 544 3366 
Q 448 3430 448 3546 
Q 448 3648 505 3715 
Q 563 3782 659 3782 
Q 787 3782 973 3578 
Q 1242 3277 1542 3110 
L 1542 3194 
Q 1542 3456 1446 3776 
Q 1376 3987 1376 4109 
Q 1376 4198 1443 4262 
Q 1510 4326 1606 4326 
Q 1702 4326 1772 4259 
Q 1843 4192 1843 4096 
Q 1843 3994 1773 3795 
Q 1664 3507 1664 3264 
L 1664 3110 
Q 1882 3238 2035 3379 
Q 2067 3411 2153 3504 
Q 2240 3597 2291 3648 
Q 2342 3699 2409 3747 
Q 2477 3795 2528 3795 
Q 2637 3795 2701 3728 
Q 2765 3661 2765 3552 
Q 2765 3424 2691 3363 
Q 2618 3302 2432 3277 
Q 2074 3219 1715 3014 
z
" id="STIXGeneral-Regular-2a" transform="scale(0.015625)"/>
      <path d="M 2848 992 
Q 2848 499 2505 204 
Q 2163 -90 1587 -90 
Q 1050 -90 704 204 
Q 358 499 358 954 
Q 358 1293 524 1533 
Q 691 1773 1190 2125 
Q 710 2522 553 2765 
Q 397 3008 397 3328 
Q 397 3782 745 4054 
Q 1094 4326 1638 4326 
Q 2106 4326 2410 4060 
Q 2714 3795 2714 3411 
Q 2714 3059 2531 2848 
Q 2349 2637 1856 2374 
Q 2432 1990 2640 1689 
Q 2848 1389 2848 992 
z
M 2272 3411 
Q 2272 3744 2086 3945 
Q 1901 4147 1574 4147 
Q 1248 4147 1059 3977 
Q 870 3808 870 3513 
Q 870 3219 1059 2979 
Q 1248 2739 1670 2490 
Q 1997 2682 2134 2896 
Q 2272 3110 2272 3411 
z
M 1734 1741 
L 1357 1997 
Q 1075 1766 960 1545 
Q 845 1325 845 1011 
Q 845 576 1065 333 
Q 1286 90 1658 90 
Q 1971 90 2166 285 
Q 2362 480 2362 794 
Q 2362 1082 2214 1299 
Q 2067 1517 1734 1741 
z
" id="STIXGeneral-Regular-38" transform="scale(0.015625)"/>
     </defs>
     <use transform="translate(0 0.409375)" xlink:href="#STIXGeneral-Italic-3bb"/>
     <use transform="translate(67.058766 35.684375)scale(0.7)" xlink:href="#STIXGeneral-Regular-2a"/>
     <use transform="translate(131.016125 0.409375)" xlink:href="#STIXGeneral-Regular-3d"/>
     <use transform="translate(213.956106 0.409375)" xlink:href="#STIXGeneral-Regular-30"/>
     <use transform="translate(263.95609 0.409375)" xlink:href="#STIXGeneral-Regular-2e"/>
     <use transform="translate(288.956075 0.409375)" xlink:href="#STIXGeneral-Regular-32"/>
     <use transform="translate(338.95606 0.409375)" xlink:href="#STIXGeneral-Regular-38"/>
    </g>
   </g>
  </g>
  <g id="text_37">
   <!-- Box Cox Transformed Distributions -->
   <g style="fill:#323034;" transform="translate(81.491719 19.493437)scale(0.18 -0.18)">
    <defs>
     <path d="M 2701 2234 
L 2701 2227 
Q 3181 2150 3482 1875 
Q 3795 1594 3795 1139 
Q 3795 608 3379 304 
Q 2963 0 2266 0 
L 109 0 
L 109 122 
Q 486 134 604 246 
Q 723 358 723 723 
L 723 3520 
Q 723 3891 614 3990 
Q 506 4090 109 4115 
L 109 4237 
L 1901 4237 
Q 2726 4237 3152 3958 
Q 3578 3680 3578 3168 
Q 3578 2733 3315 2502 
Q 3130 2342 2701 2234 
z
M 1376 2342 
L 1965 2342 
Q 2925 2342 2925 3136 
Q 2925 3546 2640 3773 
Q 2355 4000 1792 4000 
L 1530 4000 
Q 1376 4000 1376 3795 
L 1376 2342 
z
M 1376 2086 
L 1376 525 
Q 1376 365 1462 301 
Q 1549 237 1773 237 
Q 2208 237 2413 285 
Q 2618 333 2816 512 
Q 3059 723 3059 1146 
Q 3059 1632 2758 1830 
Q 2688 1882 2617 1917 
Q 2547 1952 2492 1974 
Q 2438 1997 2348 2016 
Q 2259 2035 2211 2044 
Q 2163 2054 2041 2060 
Q 1920 2067 1862 2070 
Q 1805 2074 1635 2080 
Q 1466 2086 1376 2086 
z
" id="STIXGeneral-Regular-42" transform="scale(0.015625)"/>
     <path d="M 3008 1478 
Q 3008 806 2608 371 
Q 2208 -64 1568 -64 
Q 979 -64 582 368 
Q 186 800 186 1459 
Q 186 2125 582 2534 
Q 979 2944 1626 2944 
Q 2221 2944 2614 2537 
Q 3008 2131 3008 1478 
z
M 2432 1306 
Q 2432 2035 2112 2445 
Q 1856 2765 1504 2765 
Q 1171 2765 966 2493 
Q 762 2221 762 1747 
Q 762 928 1101 435 
Q 1318 115 1677 115 
Q 2029 115 2230 432 
Q 2432 749 2432 1306 
z
" id="STIXGeneral-Regular-6f" transform="scale(0.015625)"/>
     <path d="M 3066 0 
L 1779 0 
L 1779 96 
Q 1939 109 1987 137 
Q 2035 166 2035 250 
Q 2035 307 1997 365 
L 1414 1261 
L 909 474 
Q 781 275 781 211 
Q 781 96 1037 96 
L 1037 0 
L 109 0 
L 109 96 
Q 269 109 355 169 
Q 442 230 576 422 
L 1306 1478 
L 704 2400 
Q 557 2624 454 2704 
Q 352 2784 211 2784 
L 154 2784 
L 154 2880 
L 1478 2880 
L 1478 2784 
Q 1203 2778 1203 2643 
Q 1203 2509 1498 2074 
Q 1581 1958 1587 1946 
Q 1619 1990 1779 2227 
Q 1811 2285 1856 2349 
Q 1901 2413 1923 2451 
Q 1946 2490 1971 2528 
Q 1997 2566 2006 2595 
Q 2016 2624 2016 2643 
Q 2016 2765 1760 2784 
L 1760 2880 
L 2771 2880 
L 2771 2784 
Q 2445 2771 2253 2502 
L 1722 1734 
L 2541 480 
Q 2790 96 3066 96 
L 3066 0 
z
" id="STIXGeneral-Regular-78" transform="scale(0.015625)"/>
     <path id="STIXGeneral-Regular-20" transform="scale(0.015625)"/>
     <path d="M 3930 838 
L 4051 723 
Q 3482 -90 2304 -90 
Q 1376 -90 794 480 
Q 179 1082 179 2080 
Q 179 3014 755 3661 
Q 1357 4326 2310 4326 
Q 2720 4326 3072 4230 
Q 3475 4115 3514 4115 
Q 3725 4115 3782 4326 
L 3910 4326 
L 3968 2874 
L 3821 2874 
Q 3718 3334 3488 3584 
Q 3034 4070 2458 4070 
Q 1747 4070 1334 3548 
Q 922 3027 922 2182 
Q 922 1152 1382 653 
Q 1811 192 2522 192 
Q 2944 192 3251 339 
Q 3558 486 3930 838 
z
" id="STIXGeneral-Regular-43" transform="scale(0.015625)"/>
     <path d="M 3795 3149 
L 3642 3149 
Q 3539 3674 3353 3821 
Q 3168 3968 2656 3968 
L 2278 3968 
L 2278 710 
Q 2278 346 2387 243 
Q 2496 141 2893 122 
L 2893 0 
L 1024 0 
L 1024 122 
Q 1427 147 1526 256 
Q 1626 365 1626 787 
L 1626 3968 
L 1242 3968 
Q 723 3968 540 3817 
Q 358 3667 262 3149 
L 109 3149 
L 154 4237 
L 3750 4237 
L 3795 3149 
z
" id="STIXGeneral-Regular-54" transform="scale(0.015625)"/>
     <path d="M 998 1926 
L 1664 1523 
Q 1984 1331 2105 1164 
Q 2227 998 2227 736 
Q 2227 416 1961 176 
Q 1696 -64 1331 -64 
Q 1030 -64 864 -6 
Q 691 51 570 51 
Q 461 51 416 -26 
L 333 -26 
L 333 979 
L 435 979 
Q 538 512 730 294 
Q 922 77 1248 77 
Q 1485 77 1632 211 
Q 1779 346 1779 550 
Q 1779 845 1440 1030 
L 1094 1222 
Q 326 1651 326 2150 
Q 326 2522 566 2730 
Q 806 2938 1210 2938 
Q 1491 2938 1638 2867 
Q 1754 2816 1818 2816 
Q 1862 2816 1920 2880 
L 1990 2880 
L 2022 2010 
L 1926 2010 
Q 1818 2445 1654 2621 
Q 1491 2797 1203 2797 
Q 986 2797 854 2688 
Q 723 2579 723 2362 
Q 723 2253 796 2128 
Q 870 2003 998 1926 
z
" id="STIXGeneral-Regular-73" transform="scale(0.015625)"/>
     <path d="M 134 2880 
L 659 2880 
Q 666 3264 710 3478 
Q 755 3693 883 3910 
Q 1152 4371 1786 4371 
Q 2074 4371 2262 4259 
Q 2451 4147 2451 3974 
Q 2451 3866 2374 3789 
Q 2298 3712 2182 3712 
Q 2029 3712 1894 3942 
Q 1741 4192 1555 4192 
Q 1197 4192 1197 3622 
L 1197 2880 
L 1978 2880 
L 1978 2675 
L 1197 2675 
L 1197 666 
Q 1197 307 1299 208 
Q 1402 109 1792 96 
L 1792 0 
L 128 0 
L 128 96 
Q 474 115 566 214 
Q 659 314 659 666 
L 659 2675 
L 134 2675 
L 134 2880 
z
" id="STIXGeneral-Regular-66" transform="scale(0.015625)"/>
     <path d="M 4960 0 
L 3565 0 
L 3565 96 
Q 3834 122 3907 208 
Q 3981 294 3981 576 
L 3981 1894 
Q 3981 2278 3869 2444 
Q 3757 2611 3488 2611 
Q 3264 2611 3107 2521 
Q 2950 2432 2803 2221 
L 2803 608 
Q 2803 301 2896 201 
Q 2989 102 3264 96 
L 3264 0 
L 1830 0 
L 1830 96 
Q 2112 115 2189 188 
Q 2266 262 2266 550 
L 2266 1901 
Q 2266 2611 1850 2611 
Q 1670 2611 1468 2531 
Q 1267 2451 1171 2336 
Q 1088 2240 1088 2227 
L 1088 448 
Q 1088 243 1177 176 
Q 1267 109 1523 96 
L 1523 0 
L 102 0 
L 102 96 
Q 371 102 460 195 
Q 550 288 550 563 
L 550 2150 
Q 550 2387 499 2480 
Q 448 2573 326 2573 
Q 230 2573 122 2547 
L 122 2656 
Q 557 2778 1011 2944 
L 1062 2925 
L 1062 2451 
L 1075 2451 
Q 1363 2752 1584 2848 
Q 1805 2944 2054 2944 
Q 2560 2944 2733 2406 
Q 3232 2944 3776 2944 
Q 4518 2944 4518 1792 
L 4518 493 
Q 4518 282 4582 202 
Q 4646 122 4794 109 
L 4960 96 
L 4960 0 
z
" id="STIXGeneral-Regular-6d" transform="scale(0.015625)"/>
     <path d="M 2611 1050 
L 2714 1005 
Q 2330 -64 1376 -64 
Q 813 -64 486 329 
Q 160 723 160 1389 
Q 160 2074 525 2509 
Q 890 2944 1485 2944 
Q 2061 2944 2374 2502 
Q 2560 2246 2592 1773 
L 621 1773 
Q 646 1370 700 1158 
Q 755 947 915 730 
Q 1184 378 1626 378 
Q 1939 378 2153 531 
Q 2368 685 2611 1050 
z
M 634 1978 
L 1939 1978 
Q 1882 2381 1750 2547 
Q 1619 2714 1312 2714 
Q 1043 2714 864 2525 
Q 685 2336 634 1978 
z
" id="STIXGeneral-Regular-65" transform="scale(0.015625)"/>
     <path d="M 3142 269 
L 2202 -64 
L 2176 -45 
L 2176 365 
Q 1869 -64 1357 -64 
Q 826 -64 499 317 
Q 173 698 173 1312 
Q 173 1990 563 2467 
Q 954 2944 1504 2944 
Q 1850 2944 2176 2669 
L 2176 3667 
Q 2176 3866 2118 3930 
Q 2061 3994 1882 3994 
Q 1792 3994 1741 3987 
L 1741 4090 
Q 2323 4243 2682 4371 
L 2714 4358 
L 2714 730 
Q 2714 506 2768 435 
Q 2822 365 2995 365 
Q 3034 365 3142 371 
L 3142 269 
z
M 2176 653 
L 2176 2125 
Q 2176 2381 1981 2573 
Q 1786 2765 1523 2765 
Q 1158 2765 940 2438 
Q 723 2112 723 1568 
Q 723 979 963 624 
Q 1203 269 1606 269 
Q 1907 269 2080 474 
Q 2176 582 2176 653 
z
" id="STIXGeneral-Regular-64" transform="scale(0.015625)"/>
     <path d="M 102 4237 
L 1830 4237 
Q 3078 4237 3750 3654 
Q 4384 3110 4384 2138 
Q 4384 966 3514 410 
Q 2880 0 1901 0 
L 102 0 
L 102 122 
Q 474 147 570 252 
Q 666 358 666 736 
L 666 3520 
Q 666 3891 570 3990 
Q 474 4090 102 4115 
L 102 4237 
z
M 1318 3731 
L 1318 538 
Q 1318 365 1379 301 
Q 1440 237 1626 237 
Q 2125 237 2432 307 
Q 2739 378 3021 570 
Q 3686 1018 3686 2099 
Q 3686 3027 3078 3558 
Q 2803 3802 2476 3901 
Q 2150 4000 1658 4000 
Q 1472 4000 1395 3942 
Q 1318 3885 1318 3731 
z
" id="STIXGeneral-Regular-44" transform="scale(0.015625)"/>
     <path d="M 1702 493 
L 1786 422 
Q 1478 -64 1011 -64 
Q 448 -64 448 749 
L 448 2675 
L 109 2675 
Q 83 2694 83 2720 
Q 83 2771 192 2842 
Q 435 2982 813 3526 
Q 826 3546 874 3606 
Q 922 3667 941 3706 
Q 986 3706 986 3622 
L 986 2880 
L 1632 2880 
L 1632 2675 
L 986 2675 
L 986 845 
Q 986 538 1062 403 
Q 1139 269 1318 269 
Q 1510 269 1702 493 
z
" id="STIXGeneral-Regular-74" transform="scale(0.015625)"/>
     <path d="M 979 4358 
L 979 2406 
Q 1082 2650 1315 2797 
Q 1549 2944 1843 2944 
Q 2349 2944 2672 2541 
Q 2995 2138 2995 1536 
Q 2995 832 2566 384 
Q 2138 -64 1498 -64 
Q 1107 -64 774 67 
Q 442 198 442 358 
L 442 3622 
Q 442 3859 384 3926 
Q 326 3994 128 3994 
Q 83 3994 19 3981 
L 19 4090 
L 211 4147 
Q 864 4346 947 4371 
L 979 4358 
z
M 979 2035 
L 979 474 
Q 979 326 1161 233 
Q 1344 141 1600 141 
Q 1978 141 2195 416 
Q 2432 710 2432 1261 
Q 2432 1888 2182 2240 
Q 1971 2541 1613 2541 
Q 1357 2541 1168 2390 
Q 979 2240 979 2035 
z
" id="STIXGeneral-Regular-62" transform="scale(0.015625)"/>
     <path d="M 3072 320 
L 3072 230 
Q 2573 96 2195 -58 
L 2163 -38 
L 2163 486 
L 2150 486 
Q 1747 -64 1235 -64 
Q 870 -64 662 160 
Q 454 384 454 755 
L 454 2362 
Q 454 2598 371 2688 
Q 288 2778 58 2790 
L 58 2880 
L 992 2880 
L 992 813 
Q 992 595 1123 451 
Q 1254 307 1446 307 
Q 1760 307 1984 506 
Q 2067 582 2099 649 
Q 2131 717 2131 877 
L 2131 2355 
Q 2131 2605 2041 2678 
Q 1952 2752 1658 2771 
L 1658 2880 
L 2669 2880 
L 2669 685 
Q 2669 461 2742 390 
Q 2816 320 3034 320 
L 3072 320 
z
" id="STIXGeneral-Regular-75" transform="scale(0.015625)"/>
    </defs>
    <use xlink:href="#STIXGeneral-Regular-42"/>
    <use x="66.699997" xlink:href="#STIXGeneral-Regular-6f"/>
    <use x="116.699982" xlink:href="#STIXGeneral-Regular-78"/>
    <use x="166.699966" xlink:href="#STIXGeneral-Regular-20"/>
    <use x="191.699951" xlink:href="#STIXGeneral-Regular-43"/>
    <use x="258.399948" xlink:href="#STIXGeneral-Regular-6f"/>
    <use x="308.399933" xlink:href="#STIXGeneral-Regular-78"/>
    <use x="358.399918" xlink:href="#STIXGeneral-Regular-20"/>
    <use x="383.399902" xlink:href="#STIXGeneral-Regular-54"/>
    <use x="444.499893" xlink:href="#STIXGeneral-Regular-72"/>
    <use x="477.799881" xlink:href="#STIXGeneral-Regular-61"/>
    <use x="522.199875" xlink:href="#STIXGeneral-Regular-6e"/>
    <use x="572.19986" xlink:href="#STIXGeneral-Regular-73"/>
    <use x="611.099854" xlink:href="#STIXGeneral-Regular-66"/>
    <use x="644.399841" xlink:href="#STIXGeneral-Regular-6f"/>
    <use x="694.399826" xlink:href="#STIXGeneral-Regular-72"/>
    <use x="727.699814" xlink:href="#STIXGeneral-Regular-6d"/>
    <use x="805.499802" xlink:href="#STIXGeneral-Regular-65"/>
    <use x="849.899796" xlink:href="#STIXGeneral-Regular-64"/>
    <use x="899.89978" xlink:href="#STIXGeneral-Regular-20"/>
    <use x="924.899765" xlink:href="#STIXGeneral-Regular-44"/>
    <use x="997.099747" xlink:href="#STIXGeneral-Regular-69"/>
    <use x="1024.899734" xlink:href="#STIXGeneral-Regular-73"/>
    <use x="1063.799728" xlink:href="#STIXGeneral-Regular-74"/>
    <use x="1091.599716" xlink:href="#STIXGeneral-Regular-72"/>
    <use x="1124.899704" xlink:href="#STIXGeneral-Regular-69"/>
    <use x="1152.699692" xlink:href="#STIXGeneral-Regular-62"/>
    <use x="1202.699677" xlink:href="#STIXGeneral-Regular-75"/>
    <use x="1252.699661" xlink:href="#STIXGeneral-Regular-74"/>
    <use x="1280.499649" xlink:href="#STIXGeneral-Regular-69"/>
    <use x="1308.299637" xlink:href="#STIXGeneral-Regular-6f"/>
    <use x="1358.299622" xlink:href="#STIXGeneral-Regular-6e"/>
    <use x="1408.299606" xlink:href="#STIXGeneral-Regular-73"/>
   </g>
  </g>
 </g>
 <defs>
  <clipPath id="pdae7afbb24">
   <rect height="81.059" width="170.84" x="35.2" y="53.595"/>
  </clipPath>
  <clipPath id="pd7e54ecd2c">
   <rect height="81.059" width="170.84" x="242.8" y="53.595"/>
  </clipPath>
  <clipPath id="p7ef1ee6717">
   <rect height="81.059" width="170.84" x="35.2" y="179.0535"/>
  </clipPath>
  <clipPath id="p60247acdcd">
   <rect height="81.059" width="170.84" x="242.8" y="179.0535"/>
  </clipPath>
 </defs>
</svg>
