<?xml version="1.0" encoding="utf-8" standalone="no"?>
<!DOCTYPE svg PUBLIC "-//W3C//DTD SVG 1.1//EN"
  "http://www.w3.org/Graphics/SVG/1.1/DTD/svg11.dtd">
<svg xmlns:xlink="http://www.w3.org/1999/xlink" width="564.101688pt" height="144.978058pt" viewBox="0 0 564.101688 144.978058" xmlns="http://www.w3.org/2000/svg" version="1.1">
 <metadata>
  <rdf:RDF xmlns:dc="http://purl.org/dc/elements/1.1/" xmlns:cc="http://creativecommons.org/ns#" xmlns:rdf="http://www.w3.org/1999/02/22-rdf-syntax-ns#">
   <cc:Work>
    <dc:type rdf:resource="http://purl.org/dc/dcmitype/StillImage"/>
    <dc:date>2022-10-24T21:25:16.813548</dc:date>
    <dc:format>image/svg+xml</dc:format>
    <dc:creator>
     <cc:Agent>
      <dc:title>Matplotlib v3.5.3, https://matplotlib.org/</dc:title>
     </cc:Agent>
    </dc:creator>
   </cc:Work>
  </rdf:RDF>
 </metadata>
 <defs>
  <style type="text/css">*{stroke-linejoin: round; stroke-linecap: butt}</style>
 </defs>
 <g id="figure_1">
  <g id="patch_1">
   <path d="M 0 144.978058 
L 564.101687 144.978058 
L 564.101687 0 
L 0 0 
z
" style="fill: #ffffff; stroke: #ffffff; stroke-linejoin: miter"/>
  </g>
  <g id="axes_1">
   <g id="patch_2">
    <path d="M 81.885281 109.265371 
L 416.685281 109.265371 
L 416.685281 26.105371 
L 81.885281 26.105371 
z
" style="fill: #ebebeb"/>
   </g>
   <g id="matplotlib.axis_1">
    <g id="xtick_1">
     <g id="line2d_1">
      <path d="M 124.772885 109.265371 
L 124.772885 26.105371 
" clip-path="url(#pa6d40b9fd1)" style="fill: none; stroke: #ffffff"/>
     </g>
     <g id="line2d_2">
      <path d="M 124.772885 109.265371 
" style="fill: none; stroke: #000000; stroke-width: 2"/>
      <defs>
       <path id="m1b4ec61571" d="M 0 0 
L 0 2.75 
" style="stroke: #333333"/>
      </defs>
      <g>
       <use xlink:href="#m1b4ec61571" x="124.772885" y="109.265371" style="stroke: #333333"/>
      </g>
     </g>
     <g id="text_1">
      <!-- 0 -->
      <g style="fill: #4d4d4d" transform="translate(121.973385 120.901996)scale(0.088 -0.088)">
       <defs>
        <path id="DejaVuSans-30" d="M 2034 4250 
Q 1547 4250 1301 3770 
Q 1056 3291 1056 2328 
Q 1056 1369 1301 889 
Q 1547 409 2034 409 
Q 2525 409 2770 889 
Q 3016 1369 3016 2328 
Q 3016 3291 2770 3770 
Q 2525 4250 2034 4250 
z
M 2034 4750 
Q 2819 4750 3233 4129 
Q 3647 3509 3647 2328 
Q 3647 1150 3233 529 
Q 2819 -91 2034 -91 
Q 1250 -91 836 529 
Q 422 1150 422 2328 
Q 422 3509 836 4129 
Q 1250 4750 2034 4750 
z
" transform="scale(0.015625)"/>
       </defs>
       <use xlink:href="#DejaVuSans-30"/>
      </g>
     </g>
    </g>
    <g id="xtick_2">
     <g id="line2d_3">
      <path d="M 152.442306 109.265371 
L 152.442306 26.105371 
" clip-path="url(#pa6d40b9fd1)" style="fill: none; stroke: #ffffff"/>
     </g>
     <g id="line2d_4">
      <path d="M 152.442306 109.265371 
" style="fill: none; stroke: #000000; stroke-width: 2"/>
      <g>
       <use xlink:href="#m1b4ec61571" x="152.442306" y="109.265371" style="stroke: #333333"/>
      </g>
     </g>
     <g id="text_2">
      <!-- 1 -->
      <g style="fill: #4d4d4d" transform="translate(149.642806 120.901996)scale(0.088 -0.088)">
       <defs>
        <path id="DejaVuSans-31" d="M 794 531 
L 1825 531 
L 1825 4091 
L 703 3866 
L 703 4441 
L 1819 4666 
L 2450 4666 
L 2450 531 
L 3481 531 
L 3481 0 
L 794 0 
L 794 531 
z
" transform="scale(0.015625)"/>
       </defs>
       <use xlink:href="#DejaVuSans-31"/>
      </g>
     </g>
    </g>
    <g id="xtick_3">
     <g id="line2d_5">
      <path d="M 180.111728 109.265371 
L 180.111728 26.105371 
" clip-path="url(#pa6d40b9fd1)" style="fill: none; stroke: #ffffff"/>
     </g>
     <g id="line2d_6">
      <path d="M 180.111728 109.265371 
" style="fill: none; stroke: #000000; stroke-width: 2"/>
      <g>
       <use xlink:href="#m1b4ec61571" x="180.111728" y="109.265371" style="stroke: #333333"/>
      </g>
     </g>
     <g id="text_3">
      <!-- 2 -->
      <g style="fill: #4d4d4d" transform="translate(177.312228 120.901996)scale(0.088 -0.088)">
       <defs>
        <path id="DejaVuSans-32" d="M 1228 531 
L 3431 531 
L 3431 0 
L 469 0 
L 469 531 
Q 828 903 1448 1529 
Q 2069 2156 2228 2338 
Q 2531 2678 2651 2914 
Q 2772 3150 2772 3378 
Q 2772 3750 2511 3984 
Q 2250 4219 1831 4219 
Q 1534 4219 1204 4116 
Q 875 4013 500 3803 
L 500 4441 
Q 881 4594 1212 4672 
Q 1544 4750 1819 4750 
Q 2544 4750 2975 4387 
Q 3406 4025 3406 3419 
Q 3406 3131 3298 2873 
Q 3191 2616 2906 2266 
Q 2828 2175 2409 1742 
Q 1991 1309 1228 531 
z
" transform="scale(0.015625)"/>
       </defs>
       <use xlink:href="#DejaVuSans-32"/>
      </g>
     </g>
    </g>
    <g id="xtick_4">
     <g id="line2d_7">
      <path d="M 207.781149 109.265371 
L 207.781149 26.105371 
" clip-path="url(#pa6d40b9fd1)" style="fill: none; stroke: #ffffff"/>
     </g>
     <g id="line2d_8">
      <path d="M 207.781149 109.265371 
" style="fill: none; stroke: #000000; stroke-width: 2"/>
      <g>
       <use xlink:href="#m1b4ec61571" x="207.781149" y="109.265371" style="stroke: #333333"/>
      </g>
     </g>
     <g id="text_4">
      <!-- 3 -->
      <g style="fill: #4d4d4d" transform="translate(204.981649 120.901996)scale(0.088 -0.088)">
       <defs>
        <path id="DejaVuSans-33" d="M 2597 2516 
Q 3050 2419 3304 2112 
Q 3559 1806 3559 1356 
Q 3559 666 3084 287 
Q 2609 -91 1734 -91 
Q 1441 -91 1130 -33 
Q 819 25 488 141 
L 488 750 
Q 750 597 1062 519 
Q 1375 441 1716 441 
Q 2309 441 2620 675 
Q 2931 909 2931 1356 
Q 2931 1769 2642 2001 
Q 2353 2234 1838 2234 
L 1294 2234 
L 1294 2753 
L 1863 2753 
Q 2328 2753 2575 2939 
Q 2822 3125 2822 3475 
Q 2822 3834 2567 4026 
Q 2313 4219 1838 4219 
Q 1578 4219 1281 4162 
Q 984 4106 628 3988 
L 628 4550 
Q 988 4650 1302 4700 
Q 1616 4750 1894 4750 
Q 2613 4750 3031 4423 
Q 3450 4097 3450 3541 
Q 3450 3153 3228 2886 
Q 3006 2619 2597 2516 
z
" transform="scale(0.015625)"/>
       </defs>
       <use xlink:href="#DejaVuSans-33"/>
      </g>
     </g>
    </g>
    <g id="xtick_5">
     <g id="line2d_9">
      <path d="M 235.450571 109.265371 
L 235.450571 26.105371 
" clip-path="url(#pa6d40b9fd1)" style="fill: none; stroke: #ffffff"/>
     </g>
     <g id="line2d_10">
      <path d="M 235.450571 109.265371 
" style="fill: none; stroke: #000000; stroke-width: 2"/>
      <g>
       <use xlink:href="#m1b4ec61571" x="235.450571" y="109.265371" style="stroke: #333333"/>
      </g>
     </g>
     <g id="text_5">
      <!-- 4 -->
      <g style="fill: #4d4d4d" transform="translate(232.651071 120.901996)scale(0.088 -0.088)">
       <defs>
        <path id="DejaVuSans-34" d="M 2419 4116 
L 825 1625 
L 2419 1625 
L 2419 4116 
z
M 2253 4666 
L 3047 4666 
L 3047 1625 
L 3713 1625 
L 3713 1100 
L 3047 1100 
L 3047 0 
L 2419 0 
L 2419 1100 
L 313 1100 
L 313 1709 
L 2253 4666 
z
" transform="scale(0.015625)"/>
       </defs>
       <use xlink:href="#DejaVuSans-34"/>
      </g>
     </g>
    </g>
    <g id="xtick_6">
     <g id="line2d_11">
      <path d="M 263.119992 109.265371 
L 263.119992 26.105371 
" clip-path="url(#pa6d40b9fd1)" style="fill: none; stroke: #ffffff"/>
     </g>
     <g id="line2d_12">
      <path d="M 263.119992 109.265371 
" style="fill: none; stroke: #000000; stroke-width: 2"/>
      <g>
       <use xlink:href="#m1b4ec61571" x="263.119992" y="109.265371" style="stroke: #333333"/>
      </g>
     </g>
     <g id="text_6">
      <!-- 5 -->
      <g style="fill: #4d4d4d" transform="translate(260.320492 120.901996)scale(0.088 -0.088)">
       <defs>
        <path id="DejaVuSans-35" d="M 691 4666 
L 3169 4666 
L 3169 4134 
L 1269 4134 
L 1269 2991 
Q 1406 3038 1543 3061 
Q 1681 3084 1819 3084 
Q 2600 3084 3056 2656 
Q 3513 2228 3513 1497 
Q 3513 744 3044 326 
Q 2575 -91 1722 -91 
Q 1428 -91 1123 -41 
Q 819 9 494 109 
L 494 744 
Q 775 591 1075 516 
Q 1375 441 1709 441 
Q 2250 441 2565 725 
Q 2881 1009 2881 1497 
Q 2881 1984 2565 2268 
Q 2250 2553 1709 2553 
Q 1456 2553 1204 2497 
Q 953 2441 691 2322 
L 691 4666 
z
" transform="scale(0.015625)"/>
       </defs>
       <use xlink:href="#DejaVuSans-35"/>
      </g>
     </g>
    </g>
    <g id="xtick_7">
     <g id="line2d_13">
      <path d="M 290.789413 109.265371 
L 290.789413 26.105371 
" clip-path="url(#pa6d40b9fd1)" style="fill: none; stroke: #ffffff"/>
     </g>
     <g id="line2d_14">
      <path d="M 290.789413 109.265371 
" style="fill: none; stroke: #000000; stroke-width: 2"/>
      <g>
       <use xlink:href="#m1b4ec61571" x="290.789413" y="109.265371" style="stroke: #333333"/>
      </g>
     </g>
     <g id="text_7">
      <!-- 6 -->
      <g style="fill: #4d4d4d" transform="translate(287.989913 120.901996)scale(0.088 -0.088)">
       <defs>
        <path id="DejaVuSans-36" d="M 2113 2584 
Q 1688 2584 1439 2293 
Q 1191 2003 1191 1497 
Q 1191 994 1439 701 
Q 1688 409 2113 409 
Q 2538 409 2786 701 
Q 3034 994 3034 1497 
Q 3034 2003 2786 2293 
Q 2538 2584 2113 2584 
z
M 3366 4563 
L 3366 3988 
Q 3128 4100 2886 4159 
Q 2644 4219 2406 4219 
Q 1781 4219 1451 3797 
Q 1122 3375 1075 2522 
Q 1259 2794 1537 2939 
Q 1816 3084 2150 3084 
Q 2853 3084 3261 2657 
Q 3669 2231 3669 1497 
Q 3669 778 3244 343 
Q 2819 -91 2113 -91 
Q 1303 -91 875 529 
Q 447 1150 447 2328 
Q 447 3434 972 4092 
Q 1497 4750 2381 4750 
Q 2619 4750 2861 4703 
Q 3103 4656 3366 4563 
z
" transform="scale(0.015625)"/>
       </defs>
       <use xlink:href="#DejaVuSans-36"/>
      </g>
     </g>
    </g>
    <g id="xtick_8">
     <g id="line2d_15">
      <path d="M 318.458835 109.265371 
L 318.458835 26.105371 
" clip-path="url(#pa6d40b9fd1)" style="fill: none; stroke: #ffffff"/>
     </g>
     <g id="line2d_16">
      <path d="M 318.458835 109.265371 
" style="fill: none; stroke: #000000; stroke-width: 2"/>
      <g>
       <use xlink:href="#m1b4ec61571" x="318.458835" y="109.265371" style="stroke: #333333"/>
      </g>
     </g>
     <g id="text_8">
      <!-- 7 -->
      <g style="fill: #4d4d4d" transform="translate(315.659335 120.901996)scale(0.088 -0.088)">
       <defs>
        <path id="DejaVuSans-37" d="M 525 4666 
L 3525 4666 
L 3525 4397 
L 1831 0 
L 1172 0 
L 2766 4134 
L 525 4134 
L 525 4666 
z
" transform="scale(0.015625)"/>
       </defs>
       <use xlink:href="#DejaVuSans-37"/>
      </g>
     </g>
    </g>
    <g id="xtick_9">
     <g id="line2d_17">
      <path d="M 346.128256 109.265371 
L 346.128256 26.105371 
" clip-path="url(#pa6d40b9fd1)" style="fill: none; stroke: #ffffff"/>
     </g>
     <g id="line2d_18">
      <path d="M 346.128256 109.265371 
" style="fill: none; stroke: #000000; stroke-width: 2"/>
      <g>
       <use xlink:href="#m1b4ec61571" x="346.128256" y="109.265371" style="stroke: #333333"/>
      </g>
     </g>
     <g id="text_9">
      <!-- 8 -->
      <g style="fill: #4d4d4d" transform="translate(343.328756 120.901996)scale(0.088 -0.088)">
       <defs>
        <path id="DejaVuSans-38" d="M 2034 2216 
Q 1584 2216 1326 1975 
Q 1069 1734 1069 1313 
Q 1069 891 1326 650 
Q 1584 409 2034 409 
Q 2484 409 2743 651 
Q 3003 894 3003 1313 
Q 3003 1734 2745 1975 
Q 2488 2216 2034 2216 
z
M 1403 2484 
Q 997 2584 770 2862 
Q 544 3141 544 3541 
Q 544 4100 942 4425 
Q 1341 4750 2034 4750 
Q 2731 4750 3128 4425 
Q 3525 4100 3525 3541 
Q 3525 3141 3298 2862 
Q 3072 2584 2669 2484 
Q 3125 2378 3379 2068 
Q 3634 1759 3634 1313 
Q 3634 634 3220 271 
Q 2806 -91 2034 -91 
Q 1263 -91 848 271 
Q 434 634 434 1313 
Q 434 1759 690 2068 
Q 947 2378 1403 2484 
z
M 1172 3481 
Q 1172 3119 1398 2916 
Q 1625 2713 2034 2713 
Q 2441 2713 2670 2916 
Q 2900 3119 2900 3481 
Q 2900 3844 2670 4047 
Q 2441 4250 2034 4250 
Q 1625 4250 1398 4047 
Q 1172 3844 1172 3481 
z
" transform="scale(0.015625)"/>
       </defs>
       <use xlink:href="#DejaVuSans-38"/>
      </g>
     </g>
    </g>
    <g id="xtick_10">
     <g id="line2d_19">
      <path d="M 373.797678 109.265371 
L 373.797678 26.105371 
" clip-path="url(#pa6d40b9fd1)" style="fill: none; stroke: #ffffff"/>
     </g>
     <g id="line2d_20">
      <path d="M 373.797678 109.265371 
" style="fill: none; stroke: #000000; stroke-width: 2"/>
      <g>
       <use xlink:href="#m1b4ec61571" x="373.797678" y="109.265371" style="stroke: #333333"/>
      </g>
     </g>
     <g id="text_10">
      <!-- 9 -->
      <g style="fill: #4d4d4d" transform="translate(370.998178 120.901996)scale(0.088 -0.088)">
       <defs>
        <path id="DejaVuSans-39" d="M 703 97 
L 703 672 
Q 941 559 1184 500 
Q 1428 441 1663 441 
Q 2288 441 2617 861 
Q 2947 1281 2994 2138 
Q 2813 1869 2534 1725 
Q 2256 1581 1919 1581 
Q 1219 1581 811 2004 
Q 403 2428 403 3163 
Q 403 3881 828 4315 
Q 1253 4750 1959 4750 
Q 2769 4750 3195 4129 
Q 3622 3509 3622 2328 
Q 3622 1225 3098 567 
Q 2575 -91 1691 -91 
Q 1453 -91 1209 -44 
Q 966 3 703 97 
z
M 1959 2075 
Q 2384 2075 2632 2365 
Q 2881 2656 2881 3163 
Q 2881 3666 2632 3958 
Q 2384 4250 1959 4250 
Q 1534 4250 1286 3958 
Q 1038 3666 1038 3163 
Q 1038 2656 1286 2365 
Q 1534 2075 1959 2075 
z
" transform="scale(0.015625)"/>
       </defs>
       <use xlink:href="#DejaVuSans-39"/>
      </g>
     </g>
    </g>
    <g id="xtick_11">
     <g id="line2d_21">
      <path d="M 110.938174 109.265371 
L 110.938174 26.105371 
" clip-path="url(#pa6d40b9fd1)" style="fill: none; stroke: #ffffff; stroke-width: 0.5"/>
     </g>
    </g>
    <g id="xtick_12">
     <g id="line2d_22">
      <path d="M 138.607595 109.265371 
L 138.607595 26.105371 
" clip-path="url(#pa6d40b9fd1)" style="fill: none; stroke: #ffffff; stroke-width: 0.5"/>
     </g>
    </g>
    <g id="xtick_13">
     <g id="line2d_23">
      <path d="M 166.277017 109.265371 
L 166.277017 26.105371 
" clip-path="url(#pa6d40b9fd1)" style="fill: none; stroke: #ffffff; stroke-width: 0.5"/>
     </g>
    </g>
    <g id="xtick_14">
     <g id="line2d_24">
      <path d="M 193.946438 109.265371 
L 193.946438 26.105371 
" clip-path="url(#pa6d40b9fd1)" style="fill: none; stroke: #ffffff; stroke-width: 0.5"/>
     </g>
    </g>
    <g id="xtick_15">
     <g id="line2d_25">
      <path d="M 221.61586 109.265371 
L 221.61586 26.105371 
" clip-path="url(#pa6d40b9fd1)" style="fill: none; stroke: #ffffff; stroke-width: 0.5"/>
     </g>
    </g>
    <g id="xtick_16">
     <g id="line2d_26">
      <path d="M 249.285281 109.265371 
L 249.285281 26.105371 
" clip-path="url(#pa6d40b9fd1)" style="fill: none; stroke: #ffffff; stroke-width: 0.5"/>
     </g>
    </g>
    <g id="xtick_17">
     <g id="line2d_27">
      <path d="M 276.954703 109.265371 
L 276.954703 26.105371 
" clip-path="url(#pa6d40b9fd1)" style="fill: none; stroke: #ffffff; stroke-width: 0.5"/>
     </g>
    </g>
    <g id="xtick_18">
     <g id="line2d_28">
      <path d="M 304.624124 109.265371 
L 304.624124 26.105371 
" clip-path="url(#pa6d40b9fd1)" style="fill: none; stroke: #ffffff; stroke-width: 0.5"/>
     </g>
    </g>
    <g id="xtick_19">
     <g id="line2d_29">
      <path d="M 332.293546 109.265371 
L 332.293546 26.105371 
" clip-path="url(#pa6d40b9fd1)" style="fill: none; stroke: #ffffff; stroke-width: 0.5"/>
     </g>
    </g>
    <g id="xtick_20">
     <g id="line2d_30">
      <path d="M 359.962967 109.265371 
L 359.962967 26.105371 
" clip-path="url(#pa6d40b9fd1)" style="fill: none; stroke: #ffffff; stroke-width: 0.5"/>
     </g>
    </g>
    <g id="xtick_21">
     <g id="line2d_31">
      <path d="M 387.632389 109.265371 
L 387.632389 26.105371 
" clip-path="url(#pa6d40b9fd1)" style="fill: none; stroke: #ffffff; stroke-width: 0.5"/>
     </g>
    </g>
    <g id="text_11">
     <!-- t -->
     <g transform="translate(241.729109 135.490402)scale(0.11 -0.11)">
      <defs>
       <path id="DejaVuSans-74" d="M 1172 4494 
L 1172 3500 
L 2356 3500 
L 2356 3053 
L 1172 3053 
L 1172 1153 
Q 1172 725 1289 603 
Q 1406 481 1766 481 
L 2356 481 
L 2356 0 
L 1766 0 
Q 1100 0 847 248 
Q 594 497 594 1153 
L 594 3053 
L 172 3053 
L 172 3500 
L 594 3500 
L 594 4494 
L 1172 4494 
z
" transform="scale(0.015625)"/>
      </defs>
      <use xlink:href="#DejaVuSans-74"/>
     </g>
    </g>
   </g>
   <g id="matplotlib.axis_2">
    <g id="ytick_1">
     <g id="line2d_32">
      <path d="M 81.885281 100.318464 
L 416.685281 100.318464 
" clip-path="url(#pa6d40b9fd1)" style="fill: none; stroke: #ffffff"/>
     </g>
     <g id="line2d_33">
      <path d="M 81.885281 100.318464 
" style="fill: none; stroke: #000000; stroke-width: 2"/>
      <defs>
       <path id="mdac700cb74" d="M 0 0 
L -2.75 0 
" style="stroke: #333333"/>
      </defs>
      <g>
       <use xlink:href="#mdac700cb74" x="81.885281" y="100.318464" style="stroke: #333333"/>
      </g>
     </g>
     <g id="text_12">
      <!-- 1 -->
      <g style="fill: #4d4d4d" transform="translate(71.336281 102.746714)scale(0.088 -0.088)">
       <use xlink:href="#DejaVuSans-31"/>
      </g>
     </g>
    </g>
    <g id="ytick_2">
     <g id="line2d_34">
      <path d="M 81.885281 89.440766 
L 416.685281 89.440766 
" clip-path="url(#pa6d40b9fd1)" style="fill: none; stroke: #ffffff"/>
     </g>
     <g id="line2d_35">
      <path d="M 81.885281 89.440766 
" style="fill: none; stroke: #000000; stroke-width: 2"/>
      <g>
       <use xlink:href="#mdac700cb74" x="81.885281" y="89.440766" style="stroke: #333333"/>
      </g>
     </g>
     <g id="text_13">
      <!-- 2 -->
      <g style="fill: #4d4d4d" transform="translate(71.336281 91.869016)scale(0.088 -0.088)">
       <use xlink:href="#DejaVuSans-32"/>
      </g>
     </g>
    </g>
    <g id="ytick_3">
     <g id="line2d_36">
      <path d="M 81.885281 78.563069 
L 416.685281 78.563069 
" clip-path="url(#pa6d40b9fd1)" style="fill: none; stroke: #ffffff"/>
     </g>
     <g id="line2d_37">
      <path d="M 81.885281 78.563069 
" style="fill: none; stroke: #000000; stroke-width: 2"/>
      <g>
       <use xlink:href="#mdac700cb74" x="81.885281" y="78.563069" style="stroke: #333333"/>
      </g>
     </g>
     <g id="text_14">
      <!-- 3 -->
      <g style="fill: #4d4d4d" transform="translate(71.336281 80.991319)scale(0.088 -0.088)">
       <use xlink:href="#DejaVuSans-33"/>
      </g>
     </g>
    </g>
    <g id="ytick_4">
     <g id="line2d_38">
      <path d="M 81.885281 67.685371 
L 416.685281 67.685371 
" clip-path="url(#pa6d40b9fd1)" style="fill: none; stroke: #ffffff"/>
     </g>
     <g id="line2d_39">
      <path d="M 81.885281 67.685371 
" style="fill: none; stroke: #000000; stroke-width: 2"/>
      <g>
       <use xlink:href="#mdac700cb74" x="81.885281" y="67.685371" style="stroke: #333333"/>
      </g>
     </g>
     <g id="text_15">
      <!-- 4 -->
      <g style="fill: #4d4d4d" transform="translate(71.336281 70.113621)scale(0.088 -0.088)">
       <use xlink:href="#DejaVuSans-34"/>
      </g>
     </g>
    </g>
    <g id="ytick_5">
     <g id="line2d_40">
      <path d="M 81.885281 56.807673 
L 416.685281 56.807673 
" clip-path="url(#pa6d40b9fd1)" style="fill: none; stroke: #ffffff"/>
     </g>
     <g id="line2d_41">
      <path d="M 81.885281 56.807673 
" style="fill: none; stroke: #000000; stroke-width: 2"/>
      <g>
       <use xlink:href="#mdac700cb74" x="81.885281" y="56.807673" style="stroke: #333333"/>
      </g>
     </g>
     <g id="text_16">
      <!-- 5 -->
      <g style="fill: #4d4d4d" transform="translate(71.336281 59.235923)scale(0.088 -0.088)">
       <use xlink:href="#DejaVuSans-35"/>
      </g>
     </g>
    </g>
    <g id="ytick_6">
     <g id="line2d_42">
      <path d="M 81.885281 45.929975 
L 416.685281 45.929975 
" clip-path="url(#pa6d40b9fd1)" style="fill: none; stroke: #ffffff"/>
     </g>
     <g id="line2d_43">
      <path d="M 81.885281 45.929975 
" style="fill: none; stroke: #000000; stroke-width: 2"/>
      <g>
       <use xlink:href="#mdac700cb74" x="81.885281" y="45.929975" style="stroke: #333333"/>
      </g>
     </g>
     <g id="text_17">
      <!-- 6 -->
      <g style="fill: #4d4d4d" transform="translate(71.336281 48.358225)scale(0.088 -0.088)">
       <use xlink:href="#DejaVuSans-36"/>
      </g>
     </g>
    </g>
    <g id="ytick_7">
     <g id="line2d_44">
      <path d="M 81.885281 35.052277 
L 416.685281 35.052277 
" clip-path="url(#pa6d40b9fd1)" style="fill: none; stroke: #ffffff"/>
     </g>
     <g id="line2d_45">
      <path d="M 81.885281 35.052277 
" style="fill: none; stroke: #000000; stroke-width: 2"/>
      <g>
       <use xlink:href="#mdac700cb74" x="81.885281" y="35.052277" style="stroke: #333333"/>
      </g>
     </g>
     <g id="text_18">
      <!-- 7 -->
      <g style="fill: #4d4d4d" transform="translate(71.336281 37.480527)scale(0.088 -0.088)">
       <use xlink:href="#DejaVuSans-37"/>
      </g>
     </g>
    </g>
    <g id="ytick_8">
     <g id="line2d_46">
      <path d="M 81.885281 105.757313 
L 416.685281 105.757313 
" clip-path="url(#pa6d40b9fd1)" style="fill: none; stroke: #ffffff; stroke-width: 0.5"/>
     </g>
    </g>
    <g id="ytick_9">
     <g id="line2d_47">
      <path d="M 81.885281 94.879615 
L 416.685281 94.879615 
" clip-path="url(#pa6d40b9fd1)" style="fill: none; stroke: #ffffff; stroke-width: 0.5"/>
     </g>
    </g>
    <g id="ytick_10">
     <g id="line2d_48">
      <path d="M 81.885281 84.001917 
L 416.685281 84.001917 
" clip-path="url(#pa6d40b9fd1)" style="fill: none; stroke: #ffffff; stroke-width: 0.5"/>
     </g>
    </g>
    <g id="ytick_11">
     <g id="line2d_49">
      <path d="M 81.885281 73.12422 
L 416.685281 73.12422 
" clip-path="url(#pa6d40b9fd1)" style="fill: none; stroke: #ffffff; stroke-width: 0.5"/>
     </g>
    </g>
    <g id="ytick_12">
     <g id="line2d_50">
      <path d="M 81.885281 62.246522 
L 416.685281 62.246522 
" clip-path="url(#pa6d40b9fd1)" style="fill: none; stroke: #ffffff; stroke-width: 0.5"/>
     </g>
    </g>
    <g id="ytick_13">
     <g id="line2d_51">
      <path d="M 81.885281 51.368824 
L 416.685281 51.368824 
" clip-path="url(#pa6d40b9fd1)" style="fill: none; stroke: #ffffff; stroke-width: 0.5"/>
     </g>
    </g>
    <g id="ytick_14">
     <g id="line2d_52">
      <path d="M 81.885281 40.491126 
L 416.685281 40.491126 
" clip-path="url(#pa6d40b9fd1)" style="fill: none; stroke: #ffffff; stroke-width: 0.5"/>
     </g>
    </g>
    <g id="ytick_15">
     <g id="line2d_53">
      <path d="M 81.885281 29.613428 
L 416.685281 29.613428 
" clip-path="url(#pa6d40b9fd1)" style="fill: none; stroke: #ffffff; stroke-width: 0.5"/>
     </g>
    </g>
    <g id="text_19">
     <!-- $\mu$ -->
     <g transform="translate(64.626281 70.060371)rotate(-90)scale(0.11 -0.11)">
      <defs>
       <path id="STIXGeneral-Italic-3bc" d="M 3002 749 
L 3091 691 
Q 2797 237 2614 83 
Q 2432 -70 2214 -70 
Q 2080 -70 1990 6 
Q 1901 83 1901 218 
Q 1901 416 1997 704 
L 2208 1370 
L 2202 1370 
Q 1766 595 1475 268 
Q 1184 -58 902 -58 
Q 723 -58 672 122 
Q 614 -109 547 -374 
Q 480 -640 451 -758 
Q 422 -877 384 -1005 
Q 346 -1133 314 -1197 
Q 282 -1261 243 -1312 
L -211 -1312 
Q -58 -1088 70 -595 
L 909 2739 
L 1389 2739 
L 909 832 
Q 883 717 883 659 
Q 883 352 1139 352 
Q 1395 352 1811 969 
Q 2227 1587 2323 1958 
L 2534 2739 
L 3027 2739 
L 2522 819 
Q 2400 333 2400 326 
Q 2400 230 2470 230 
Q 2547 230 2652 329 
Q 2758 429 3002 749 
z
" transform="scale(0.015625)"/>
      </defs>
      <use xlink:href="#STIXGeneral-Italic-3bc" transform="translate(0 0.203125)"/>
     </g>
    </g>
   </g>
   <g id="PolyCollection_1">
    <path d="M 194.638174 105.485371 
L 194.638174 95.151558 
L 220.924124 95.151558 
L 220.924124 105.485371 
z
" clip-path="url(#pa6d40b9fd1)" style="fill: #b3cde3"/>
    <path d="M 222.307595 105.485371 
L 222.307595 95.151558 
L 248.593546 95.151558 
L 248.593546 105.485371 
z
" clip-path="url(#pa6d40b9fd1)" style="fill: #fbb4ae"/>
    <path d="M 249.977017 105.485371 
L 249.977017 95.151558 
L 276.262967 95.151558 
L 276.262967 105.485371 
z
" clip-path="url(#pa6d40b9fd1)" style="fill: #fbb4ae"/>
    <path d="M 277.646438 105.485371 
L 277.646438 95.151558 
L 303.932389 95.151558 
L 303.932389 105.485371 
z
" clip-path="url(#pa6d40b9fd1)" style="fill: #fbb4ae"/>
    <path d="M 305.31586 105.485371 
L 305.31586 95.151558 
L 331.60181 95.151558 
L 331.60181 105.485371 
z
" clip-path="url(#pa6d40b9fd1)" style="fill: #fbb4ae"/>
    <path d="M 332.985281 105.485371 
L 332.985281 95.151558 
L 359.271232 95.151558 
L 359.271232 105.485371 
z
" clip-path="url(#pa6d40b9fd1)" style="fill: #fbb4ae"/>
    <path d="M 360.654703 105.485371 
L 360.654703 95.151558 
L 386.940653 95.151558 
L 386.940653 105.485371 
z
" clip-path="url(#pa6d40b9fd1)" style="fill: #fbb4ae"/>
    <path d="M 222.307595 94.607673 
L 222.307595 84.27386 
L 248.593546 84.27386 
L 248.593546 94.607673 
z
" clip-path="url(#pa6d40b9fd1)" style="fill: #b3cde3"/>
    <path d="M 249.977017 94.607673 
L 249.977017 84.27386 
L 276.262967 84.27386 
L 276.262967 94.607673 
z
" clip-path="url(#pa6d40b9fd1)" style="fill: #fbb4ae"/>
    <path d="M 277.646438 94.607673 
L 277.646438 84.27386 
L 303.932389 84.27386 
L 303.932389 94.607673 
z
" clip-path="url(#pa6d40b9fd1)" style="fill: #fbb4ae"/>
    <path d="M 305.31586 94.607673 
L 305.31586 84.27386 
L 331.60181 84.27386 
L 331.60181 94.607673 
z
" clip-path="url(#pa6d40b9fd1)" style="fill: #fbb4ae"/>
    <path d="M 332.985281 94.607673 
L 332.985281 84.27386 
L 359.271232 84.27386 
L 359.271232 94.607673 
z
" clip-path="url(#pa6d40b9fd1)" style="fill: #fbb4ae"/>
    <path d="M 360.654703 94.607673 
L 360.654703 84.27386 
L 386.940653 84.27386 
L 386.940653 94.607673 
z
" clip-path="url(#pa6d40b9fd1)" style="fill: #fbb4ae"/>
    <path d="M 249.977017 83.729975 
L 249.977017 73.396162 
L 276.262967 73.396162 
L 276.262967 83.729975 
z
" clip-path="url(#pa6d40b9fd1)" style="fill: #b3cde3"/>
    <path d="M 277.646438 83.729975 
L 277.646438 73.396162 
L 303.932389 73.396162 
L 303.932389 83.729975 
z
" clip-path="url(#pa6d40b9fd1)" style="fill: #fbb4ae"/>
    <path d="M 305.31586 83.729975 
L 305.31586 73.396162 
L 331.60181 73.396162 
L 331.60181 83.729975 
z
" clip-path="url(#pa6d40b9fd1)" style="fill: #fbb4ae"/>
    <path d="M 332.985281 83.729975 
L 332.985281 73.396162 
L 359.271232 73.396162 
L 359.271232 83.729975 
z
" clip-path="url(#pa6d40b9fd1)" style="fill: #fbb4ae"/>
    <path d="M 360.654703 83.729975 
L 360.654703 73.396162 
L 386.940653 73.396162 
L 386.940653 83.729975 
z
" clip-path="url(#pa6d40b9fd1)" style="fill: #fbb4ae"/>
    <path d="M 277.646438 72.852277 
L 277.646438 62.518464 
L 303.932389 62.518464 
L 303.932389 72.852277 
z
" clip-path="url(#pa6d40b9fd1)" style="fill: #b3cde3"/>
    <path d="M 305.31586 72.852277 
L 305.31586 62.518464 
L 331.60181 62.518464 
L 331.60181 72.852277 
z
" clip-path="url(#pa6d40b9fd1)" style="fill: #fbb4ae"/>
    <path d="M 332.985281 72.852277 
L 332.985281 62.518464 
L 359.271232 62.518464 
L 359.271232 72.852277 
z
" clip-path="url(#pa6d40b9fd1)" style="fill: #fbb4ae"/>
    <path d="M 360.654703 72.852277 
L 360.654703 62.518464 
L 386.940653 62.518464 
L 386.940653 72.852277 
z
" clip-path="url(#pa6d40b9fd1)" style="fill: #fbb4ae"/>
    <path d="M 305.31586 61.974579 
L 305.31586 51.640766 
L 331.60181 51.640766 
L 331.60181 61.974579 
z
" clip-path="url(#pa6d40b9fd1)" style="fill: #b3cde3"/>
    <path d="M 332.985281 61.974579 
L 332.985281 51.640766 
L 359.271232 51.640766 
L 359.271232 61.974579 
z
" clip-path="url(#pa6d40b9fd1)" style="fill: #fbb4ae"/>
    <path d="M 360.654703 61.974579 
L 360.654703 51.640766 
L 386.940653 51.640766 
L 386.940653 61.974579 
z
" clip-path="url(#pa6d40b9fd1)" style="fill: #fbb4ae"/>
    <path d="M 332.985281 51.096882 
L 332.985281 40.763069 
L 359.271232 40.763069 
L 359.271232 51.096882 
z
" clip-path="url(#pa6d40b9fd1)" style="fill: #b3cde3"/>
    <path d="M 360.654703 51.096882 
L 360.654703 40.763069 
L 386.940653 40.763069 
L 386.940653 51.096882 
z
" clip-path="url(#pa6d40b9fd1)" style="fill: #fbb4ae"/>
    <path d="M 360.654703 40.219184 
L 360.654703 29.885371 
L 386.940653 29.885371 
L 386.940653 40.219184 
z
" clip-path="url(#pa6d40b9fd1)" style="fill: #b3cde3"/>
   </g>
   <g id="patch_3">
    <path d="M 423.885281 103.708339 
L 556.901688 103.708339 
L 556.901688 30.582402 
L 423.885281 30.582402 
z
" style="fill: #ffffff"/>
   </g>
   <g id="text_20">
    <!-- Preferred Prediction -->
    <g transform="translate(436.085281 54.175996)scale(0.11 -0.11)">
     <defs>
      <path id="DejaVuSans-50" d="M 1259 4147 
L 1259 2394 
L 2053 2394 
Q 2494 2394 2734 2622 
Q 2975 2850 2975 3272 
Q 2975 3691 2734 3919 
Q 2494 4147 2053 4147 
L 1259 4147 
z
M 628 4666 
L 2053 4666 
Q 2838 4666 3239 4311 
Q 3641 3956 3641 3272 
Q 3641 2581 3239 2228 
Q 2838 1875 2053 1875 
L 1259 1875 
L 1259 0 
L 628 0 
L 628 4666 
z
" transform="scale(0.015625)"/>
      <path id="DejaVuSans-72" d="M 2631 2963 
Q 2534 3019 2420 3045 
Q 2306 3072 2169 3072 
Q 1681 3072 1420 2755 
Q 1159 2438 1159 1844 
L 1159 0 
L 581 0 
L 581 3500 
L 1159 3500 
L 1159 2956 
Q 1341 3275 1631 3429 
Q 1922 3584 2338 3584 
Q 2397 3584 2469 3576 
Q 2541 3569 2628 3553 
L 2631 2963 
z
" transform="scale(0.015625)"/>
      <path id="DejaVuSans-65" d="M 3597 1894 
L 3597 1613 
L 953 1613 
Q 991 1019 1311 708 
Q 1631 397 2203 397 
Q 2534 397 2845 478 
Q 3156 559 3463 722 
L 3463 178 
Q 3153 47 2828 -22 
Q 2503 -91 2169 -91 
Q 1331 -91 842 396 
Q 353 884 353 1716 
Q 353 2575 817 3079 
Q 1281 3584 2069 3584 
Q 2775 3584 3186 3129 
Q 3597 2675 3597 1894 
z
M 3022 2063 
Q 3016 2534 2758 2815 
Q 2500 3097 2075 3097 
Q 1594 3097 1305 2825 
Q 1016 2553 972 2059 
L 3022 2063 
z
" transform="scale(0.015625)"/>
      <path id="DejaVuSans-66" d="M 2375 4863 
L 2375 4384 
L 1825 4384 
Q 1516 4384 1395 4259 
Q 1275 4134 1275 3809 
L 1275 3500 
L 2222 3500 
L 2222 3053 
L 1275 3053 
L 1275 0 
L 697 0 
L 697 3053 
L 147 3053 
L 147 3500 
L 697 3500 
L 697 3744 
Q 697 4328 969 4595 
Q 1241 4863 1831 4863 
L 2375 4863 
z
" transform="scale(0.015625)"/>
      <path id="DejaVuSans-64" d="M 2906 2969 
L 2906 4863 
L 3481 4863 
L 3481 0 
L 2906 0 
L 2906 525 
Q 2725 213 2448 61 
Q 2172 -91 1784 -91 
Q 1150 -91 751 415 
Q 353 922 353 1747 
Q 353 2572 751 3078 
Q 1150 3584 1784 3584 
Q 2172 3584 2448 3432 
Q 2725 3281 2906 2969 
z
M 947 1747 
Q 947 1113 1208 752 
Q 1469 391 1925 391 
Q 2381 391 2643 752 
Q 2906 1113 2906 1747 
Q 2906 2381 2643 2742 
Q 2381 3103 1925 3103 
Q 1469 3103 1208 2742 
Q 947 2381 947 1747 
z
" transform="scale(0.015625)"/>
      <path id="DejaVuSans-20" transform="scale(0.015625)"/>
      <path id="DejaVuSans-69" d="M 603 3500 
L 1178 3500 
L 1178 0 
L 603 0 
L 603 3500 
z
M 603 4863 
L 1178 4863 
L 1178 4134 
L 603 4134 
L 603 4863 
z
" transform="scale(0.015625)"/>
      <path id="DejaVuSans-63" d="M 3122 3366 
L 3122 2828 
Q 2878 2963 2633 3030 
Q 2388 3097 2138 3097 
Q 1578 3097 1268 2742 
Q 959 2388 959 1747 
Q 959 1106 1268 751 
Q 1578 397 2138 397 
Q 2388 397 2633 464 
Q 2878 531 3122 666 
L 3122 134 
Q 2881 22 2623 -34 
Q 2366 -91 2075 -91 
Q 1284 -91 818 406 
Q 353 903 353 1747 
Q 353 2603 823 3093 
Q 1294 3584 2113 3584 
Q 2378 3584 2631 3529 
Q 2884 3475 3122 3366 
z
" transform="scale(0.015625)"/>
      <path id="DejaVuSans-6f" d="M 1959 3097 
Q 1497 3097 1228 2736 
Q 959 2375 959 1747 
Q 959 1119 1226 758 
Q 1494 397 1959 397 
Q 2419 397 2687 759 
Q 2956 1122 2956 1747 
Q 2956 2369 2687 2733 
Q 2419 3097 1959 3097 
z
M 1959 3584 
Q 2709 3584 3137 3096 
Q 3566 2609 3566 1747 
Q 3566 888 3137 398 
Q 2709 -91 1959 -91 
Q 1206 -91 779 398 
Q 353 888 353 1747 
Q 353 2609 779 3096 
Q 1206 3584 1959 3584 
z
" transform="scale(0.015625)"/>
      <path id="DejaVuSans-6e" d="M 3513 2113 
L 3513 0 
L 2938 0 
L 2938 2094 
Q 2938 2591 2744 2837 
Q 2550 3084 2163 3084 
Q 1697 3084 1428 2787 
Q 1159 2491 1159 1978 
L 1159 0 
L 581 0 
L 581 3500 
L 1159 3500 
L 1159 2956 
Q 1366 3272 1645 3428 
Q 1925 3584 2291 3584 
Q 2894 3584 3203 3211 
Q 3513 2838 3513 2113 
z
" transform="scale(0.015625)"/>
     </defs>
     <use xlink:href="#DejaVuSans-50"/>
     <use xlink:href="#DejaVuSans-72" x="58.552734"/>
     <use xlink:href="#DejaVuSans-65" x="97.416016"/>
     <use xlink:href="#DejaVuSans-66" x="158.939453"/>
     <use xlink:href="#DejaVuSans-65" x="194.144531"/>
     <use xlink:href="#DejaVuSans-72" x="255.667969"/>
     <use xlink:href="#DejaVuSans-72" x="295.03125"/>
     <use xlink:href="#DejaVuSans-65" x="333.894531"/>
     <use xlink:href="#DejaVuSans-64" x="395.417969"/>
     <use xlink:href="#DejaVuSans-20" x="458.894531"/>
     <use xlink:href="#DejaVuSans-50" x="490.681641"/>
     <use xlink:href="#DejaVuSans-72" x="549.234375"/>
     <use xlink:href="#DejaVuSans-65" x="588.097656"/>
     <use xlink:href="#DejaVuSans-64" x="649.621094"/>
     <use xlink:href="#DejaVuSans-69" x="713.097656"/>
     <use xlink:href="#DejaVuSans-63" x="740.880859"/>
     <use xlink:href="#DejaVuSans-74" x="795.861328"/>
     <use xlink:href="#DejaVuSans-69" x="835.070312"/>
     <use xlink:href="#DejaVuSans-6f" x="862.853516"/>
     <use xlink:href="#DejaVuSans-6e" x="924.035156"/>
    </g>
   </g>
   <g id="patch_4">
    <path d="M 436.085281 73.668339 
L 451.925281 73.668339 
L 451.925281 57.828339 
L 436.085281 57.828339 
z
" clip-path="url(#p78e8fd0a1b)" style="fill: #f2f2f2"/>
   </g>
   <g id="patch_5">
    <path d="M 436.085281 73.668339 
L 451.925281 73.668339 
L 451.925281 57.828339 
L 436.085281 57.828339 
z
" clip-path="url(#p78e8fd0a1b)" style="fill: #fbb4ae"/>
   </g>
   <g id="text_21">
    <!-- False -->
    <g transform="translate(454.925281 68.176589)scale(0.088 -0.088)">
     <defs>
      <path id="DejaVuSans-46" d="M 628 4666 
L 3309 4666 
L 3309 4134 
L 1259 4134 
L 1259 2759 
L 3109 2759 
L 3109 2228 
L 1259 2228 
L 1259 0 
L 628 0 
L 628 4666 
z
" transform="scale(0.015625)"/>
      <path id="DejaVuSans-61" d="M 2194 1759 
Q 1497 1759 1228 1600 
Q 959 1441 959 1056 
Q 959 750 1161 570 
Q 1363 391 1709 391 
Q 2188 391 2477 730 
Q 2766 1069 2766 1631 
L 2766 1759 
L 2194 1759 
z
M 3341 1997 
L 3341 0 
L 2766 0 
L 2766 531 
Q 2569 213 2275 61 
Q 1981 -91 1556 -91 
Q 1019 -91 701 211 
Q 384 513 384 1019 
Q 384 1609 779 1909 
Q 1175 2209 1959 2209 
L 2766 2209 
L 2766 2266 
Q 2766 2663 2505 2880 
Q 2244 3097 1772 3097 
Q 1472 3097 1187 3025 
Q 903 2953 641 2809 
L 641 3341 
Q 956 3463 1253 3523 
Q 1550 3584 1831 3584 
Q 2591 3584 2966 3190 
Q 3341 2797 3341 1997 
z
" transform="scale(0.015625)"/>
      <path id="DejaVuSans-6c" d="M 603 4863 
L 1178 4863 
L 1178 0 
L 603 0 
L 603 4863 
z
" transform="scale(0.015625)"/>
      <path id="DejaVuSans-73" d="M 2834 3397 
L 2834 2853 
Q 2591 2978 2328 3040 
Q 2066 3103 1784 3103 
Q 1356 3103 1142 2972 
Q 928 2841 928 2578 
Q 928 2378 1081 2264 
Q 1234 2150 1697 2047 
L 1894 2003 
Q 2506 1872 2764 1633 
Q 3022 1394 3022 966 
Q 3022 478 2636 193 
Q 2250 -91 1575 -91 
Q 1294 -91 989 -36 
Q 684 19 347 128 
L 347 722 
Q 666 556 975 473 
Q 1284 391 1588 391 
Q 1994 391 2212 530 
Q 2431 669 2431 922 
Q 2431 1156 2273 1281 
Q 2116 1406 1581 1522 
L 1381 1569 
Q 847 1681 609 1914 
Q 372 2147 372 2553 
Q 372 3047 722 3315 
Q 1072 3584 1716 3584 
Q 2034 3584 2315 3537 
Q 2597 3491 2834 3397 
z
" transform="scale(0.015625)"/>
     </defs>
     <use xlink:href="#DejaVuSans-46"/>
     <use xlink:href="#DejaVuSans-61" x="48.394531"/>
     <use xlink:href="#DejaVuSans-6c" x="109.673828"/>
     <use xlink:href="#DejaVuSans-73" x="137.457031"/>
     <use xlink:href="#DejaVuSans-65" x="189.556641"/>
    </g>
   </g>
   <g id="patch_6">
    <path d="M 436.085281 91.508339 
L 451.925281 91.508339 
L 451.925281 75.668339 
L 436.085281 75.668339 
z
" clip-path="url(#p77a902378a)" style="fill: #f2f2f2"/>
   </g>
   <g id="patch_7">
    <path d="M 436.085281 91.508339 
L 451.925281 91.508339 
L 451.925281 75.668339 
L 436.085281 75.668339 
z
" clip-path="url(#p77a902378a)" style="fill: #b3cde3"/>
   </g>
   <g id="text_22">
    <!-- True -->
    <g transform="translate(454.925281 86.016589)scale(0.088 -0.088)">
     <defs>
      <path id="DejaVuSans-54" d="M -19 4666 
L 3928 4666 
L 3928 4134 
L 2272 4134 
L 2272 0 
L 1638 0 
L 1638 4134 
L -19 4134 
L -19 4666 
z
" transform="scale(0.015625)"/>
      <path id="DejaVuSans-75" d="M 544 1381 
L 544 3500 
L 1119 3500 
L 1119 1403 
Q 1119 906 1312 657 
Q 1506 409 1894 409 
Q 2359 409 2629 706 
Q 2900 1003 2900 1516 
L 2900 3500 
L 3475 3500 
L 3475 0 
L 2900 0 
L 2900 538 
Q 2691 219 2414 64 
Q 2138 -91 1772 -91 
Q 1169 -91 856 284 
Q 544 659 544 1381 
z
M 1991 3584 
L 1991 3584 
z
" transform="scale(0.015625)"/>
     </defs>
     <use xlink:href="#DejaVuSans-54"/>
     <use xlink:href="#DejaVuSans-72" x="46.333984"/>
     <use xlink:href="#DejaVuSans-75" x="87.447266"/>
     <use xlink:href="#DejaVuSans-65" x="150.826172"/>
    </g>
   </g>
  </g>
  <g id="text_23">
   <!-- Union of Expanding Window One-Step Ahead Out-of-Sample Predictions -->
   <g transform="translate(7.2 17.229938)scale(0.132 -0.132)">
    <defs>
     <path id="DejaVuSans-55" d="M 556 4666 
L 1191 4666 
L 1191 1831 
Q 1191 1081 1462 751 
Q 1734 422 2344 422 
Q 2950 422 3222 751 
Q 3494 1081 3494 1831 
L 3494 4666 
L 4128 4666 
L 4128 1753 
Q 4128 841 3676 375 
Q 3225 -91 2344 -91 
Q 1459 -91 1007 375 
Q 556 841 556 1753 
L 556 4666 
z
" transform="scale(0.015625)"/>
     <path id="DejaVuSans-45" d="M 628 4666 
L 3578 4666 
L 3578 4134 
L 1259 4134 
L 1259 2753 
L 3481 2753 
L 3481 2222 
L 1259 2222 
L 1259 531 
L 3634 531 
L 3634 0 
L 628 0 
L 628 4666 
z
" transform="scale(0.015625)"/>
     <path id="DejaVuSans-78" d="M 3513 3500 
L 2247 1797 
L 3578 0 
L 2900 0 
L 1881 1375 
L 863 0 
L 184 0 
L 1544 1831 
L 300 3500 
L 978 3500 
L 1906 2253 
L 2834 3500 
L 3513 3500 
z
" transform="scale(0.015625)"/>
     <path id="DejaVuSans-70" d="M 1159 525 
L 1159 -1331 
L 581 -1331 
L 581 3500 
L 1159 3500 
L 1159 2969 
Q 1341 3281 1617 3432 
Q 1894 3584 2278 3584 
Q 2916 3584 3314 3078 
Q 3713 2572 3713 1747 
Q 3713 922 3314 415 
Q 2916 -91 2278 -91 
Q 1894 -91 1617 61 
Q 1341 213 1159 525 
z
M 3116 1747 
Q 3116 2381 2855 2742 
Q 2594 3103 2138 3103 
Q 1681 3103 1420 2742 
Q 1159 2381 1159 1747 
Q 1159 1113 1420 752 
Q 1681 391 2138 391 
Q 2594 391 2855 752 
Q 3116 1113 3116 1747 
z
" transform="scale(0.015625)"/>
     <path id="DejaVuSans-67" d="M 2906 1791 
Q 2906 2416 2648 2759 
Q 2391 3103 1925 3103 
Q 1463 3103 1205 2759 
Q 947 2416 947 1791 
Q 947 1169 1205 825 
Q 1463 481 1925 481 
Q 2391 481 2648 825 
Q 2906 1169 2906 1791 
z
M 3481 434 
Q 3481 -459 3084 -895 
Q 2688 -1331 1869 -1331 
Q 1566 -1331 1297 -1286 
Q 1028 -1241 775 -1147 
L 775 -588 
Q 1028 -725 1275 -790 
Q 1522 -856 1778 -856 
Q 2344 -856 2625 -561 
Q 2906 -266 2906 331 
L 2906 616 
Q 2728 306 2450 153 
Q 2172 0 1784 0 
Q 1141 0 747 490 
Q 353 981 353 1791 
Q 353 2603 747 3093 
Q 1141 3584 1784 3584 
Q 2172 3584 2450 3431 
Q 2728 3278 2906 2969 
L 2906 3500 
L 3481 3500 
L 3481 434 
z
" transform="scale(0.015625)"/>
     <path id="DejaVuSans-57" d="M 213 4666 
L 850 4666 
L 1831 722 
L 2809 4666 
L 3519 4666 
L 4500 722 
L 5478 4666 
L 6119 4666 
L 4947 0 
L 4153 0 
L 3169 4050 
L 2175 0 
L 1381 0 
L 213 4666 
z
" transform="scale(0.015625)"/>
     <path id="DejaVuSans-77" d="M 269 3500 
L 844 3500 
L 1563 769 
L 2278 3500 
L 2956 3500 
L 3675 769 
L 4391 3500 
L 4966 3500 
L 4050 0 
L 3372 0 
L 2619 2869 
L 1863 0 
L 1184 0 
L 269 3500 
z
" transform="scale(0.015625)"/>
     <path id="DejaVuSans-4f" d="M 2522 4238 
Q 1834 4238 1429 3725 
Q 1025 3213 1025 2328 
Q 1025 1447 1429 934 
Q 1834 422 2522 422 
Q 3209 422 3611 934 
Q 4013 1447 4013 2328 
Q 4013 3213 3611 3725 
Q 3209 4238 2522 4238 
z
M 2522 4750 
Q 3503 4750 4090 4092 
Q 4678 3434 4678 2328 
Q 4678 1225 4090 567 
Q 3503 -91 2522 -91 
Q 1538 -91 948 565 
Q 359 1222 359 2328 
Q 359 3434 948 4092 
Q 1538 4750 2522 4750 
z
" transform="scale(0.015625)"/>
     <path id="DejaVuSans-2d" d="M 313 2009 
L 1997 2009 
L 1997 1497 
L 313 1497 
L 313 2009 
z
" transform="scale(0.015625)"/>
     <path id="DejaVuSans-53" d="M 3425 4513 
L 3425 3897 
Q 3066 4069 2747 4153 
Q 2428 4238 2131 4238 
Q 1616 4238 1336 4038 
Q 1056 3838 1056 3469 
Q 1056 3159 1242 3001 
Q 1428 2844 1947 2747 
L 2328 2669 
Q 3034 2534 3370 2195 
Q 3706 1856 3706 1288 
Q 3706 609 3251 259 
Q 2797 -91 1919 -91 
Q 1588 -91 1214 -16 
Q 841 59 441 206 
L 441 856 
Q 825 641 1194 531 
Q 1563 422 1919 422 
Q 2459 422 2753 634 
Q 3047 847 3047 1241 
Q 3047 1584 2836 1778 
Q 2625 1972 2144 2069 
L 1759 2144 
Q 1053 2284 737 2584 
Q 422 2884 422 3419 
Q 422 4038 858 4394 
Q 1294 4750 2059 4750 
Q 2388 4750 2728 4690 
Q 3069 4631 3425 4513 
z
" transform="scale(0.015625)"/>
     <path id="DejaVuSans-41" d="M 2188 4044 
L 1331 1722 
L 3047 1722 
L 2188 4044 
z
M 1831 4666 
L 2547 4666 
L 4325 0 
L 3669 0 
L 3244 1197 
L 1141 1197 
L 716 0 
L 50 0 
L 1831 4666 
z
" transform="scale(0.015625)"/>
     <path id="DejaVuSans-68" d="M 3513 2113 
L 3513 0 
L 2938 0 
L 2938 2094 
Q 2938 2591 2744 2837 
Q 2550 3084 2163 3084 
Q 1697 3084 1428 2787 
Q 1159 2491 1159 1978 
L 1159 0 
L 581 0 
L 581 4863 
L 1159 4863 
L 1159 2956 
Q 1366 3272 1645 3428 
Q 1925 3584 2291 3584 
Q 2894 3584 3203 3211 
Q 3513 2838 3513 2113 
z
" transform="scale(0.015625)"/>
     <path id="DejaVuSans-6d" d="M 3328 2828 
Q 3544 3216 3844 3400 
Q 4144 3584 4550 3584 
Q 5097 3584 5394 3201 
Q 5691 2819 5691 2113 
L 5691 0 
L 5113 0 
L 5113 2094 
Q 5113 2597 4934 2840 
Q 4756 3084 4391 3084 
Q 3944 3084 3684 2787 
Q 3425 2491 3425 1978 
L 3425 0 
L 2847 0 
L 2847 2094 
Q 2847 2600 2669 2842 
Q 2491 3084 2119 3084 
Q 1678 3084 1418 2786 
Q 1159 2488 1159 1978 
L 1159 0 
L 581 0 
L 581 3500 
L 1159 3500 
L 1159 2956 
Q 1356 3278 1631 3431 
Q 1906 3584 2284 3584 
Q 2666 3584 2933 3390 
Q 3200 3197 3328 2828 
z
" transform="scale(0.015625)"/>
    </defs>
    <use xlink:href="#DejaVuSans-55"/>
    <use xlink:href="#DejaVuSans-6e" x="73.193359"/>
    <use xlink:href="#DejaVuSans-69" x="136.572266"/>
    <use xlink:href="#DejaVuSans-6f" x="164.355469"/>
    <use xlink:href="#DejaVuSans-6e" x="225.537109"/>
    <use xlink:href="#DejaVuSans-20" x="288.916016"/>
    <use xlink:href="#DejaVuSans-6f" x="320.703125"/>
    <use xlink:href="#DejaVuSans-66" x="381.884766"/>
    <use xlink:href="#DejaVuSans-20" x="417.089844"/>
    <use xlink:href="#DejaVuSans-45" x="448.876953"/>
    <use xlink:href="#DejaVuSans-78" x="512.060547"/>
    <use xlink:href="#DejaVuSans-70" x="571.240234"/>
    <use xlink:href="#DejaVuSans-61" x="634.716797"/>
    <use xlink:href="#DejaVuSans-6e" x="695.996094"/>
    <use xlink:href="#DejaVuSans-64" x="759.375"/>
    <use xlink:href="#DejaVuSans-69" x="822.851562"/>
    <use xlink:href="#DejaVuSans-6e" x="850.634766"/>
    <use xlink:href="#DejaVuSans-67" x="914.013672"/>
    <use xlink:href="#DejaVuSans-20" x="977.490234"/>
    <use xlink:href="#DejaVuSans-57" x="1009.277344"/>
    <use xlink:href="#DejaVuSans-69" x="1105.904297"/>
    <use xlink:href="#DejaVuSans-6e" x="1133.6875"/>
    <use xlink:href="#DejaVuSans-64" x="1197.066406"/>
    <use xlink:href="#DejaVuSans-6f" x="1260.542969"/>
    <use xlink:href="#DejaVuSans-77" x="1321.724609"/>
    <use xlink:href="#DejaVuSans-20" x="1403.511719"/>
    <use xlink:href="#DejaVuSans-4f" x="1435.298828"/>
    <use xlink:href="#DejaVuSans-6e" x="1514.009766"/>
    <use xlink:href="#DejaVuSans-65" x="1577.388672"/>
    <use xlink:href="#DejaVuSans-2d" x="1638.912109"/>
    <use xlink:href="#DejaVuSans-53" x="1674.996094"/>
    <use xlink:href="#DejaVuSans-74" x="1738.472656"/>
    <use xlink:href="#DejaVuSans-65" x="1777.681641"/>
    <use xlink:href="#DejaVuSans-70" x="1839.205078"/>
    <use xlink:href="#DejaVuSans-20" x="1902.681641"/>
    <use xlink:href="#DejaVuSans-41" x="1934.46875"/>
    <use xlink:href="#DejaVuSans-68" x="2002.876953"/>
    <use xlink:href="#DejaVuSans-65" x="2066.255859"/>
    <use xlink:href="#DejaVuSans-61" x="2127.779297"/>
    <use xlink:href="#DejaVuSans-64" x="2189.058594"/>
    <use xlink:href="#DejaVuSans-20" x="2252.535156"/>
    <use xlink:href="#DejaVuSans-4f" x="2284.322266"/>
    <use xlink:href="#DejaVuSans-75" x="2363.033203"/>
    <use xlink:href="#DejaVuSans-74" x="2426.412109"/>
    <use xlink:href="#DejaVuSans-2d" x="2465.621094"/>
    <use xlink:href="#DejaVuSans-6f" x="2503.580078"/>
    <use xlink:href="#DejaVuSans-66" x="2564.761719"/>
    <use xlink:href="#DejaVuSans-2d" x="2594.466797"/>
    <use xlink:href="#DejaVuSans-53" x="2630.550781"/>
    <use xlink:href="#DejaVuSans-61" x="2694.027344"/>
    <use xlink:href="#DejaVuSans-6d" x="2755.306641"/>
    <use xlink:href="#DejaVuSans-70" x="2852.71875"/>
    <use xlink:href="#DejaVuSans-6c" x="2916.195312"/>
    <use xlink:href="#DejaVuSans-65" x="2943.978516"/>
    <use xlink:href="#DejaVuSans-20" x="3005.501953"/>
    <use xlink:href="#DejaVuSans-50" x="3037.289062"/>
    <use xlink:href="#DejaVuSans-72" x="3095.841797"/>
    <use xlink:href="#DejaVuSans-65" x="3134.705078"/>
    <use xlink:href="#DejaVuSans-64" x="3196.228516"/>
    <use xlink:href="#DejaVuSans-69" x="3259.705078"/>
    <use xlink:href="#DejaVuSans-63" x="3287.488281"/>
    <use xlink:href="#DejaVuSans-74" x="3342.46875"/>
    <use xlink:href="#DejaVuSans-69" x="3381.677734"/>
    <use xlink:href="#DejaVuSans-6f" x="3409.460938"/>
    <use xlink:href="#DejaVuSans-6e" x="3470.642578"/>
    <use xlink:href="#DejaVuSans-73" x="3534.021484"/>
   </g>
  </g>
 </g>
 <defs>
  <clipPath id="pa6d40b9fd1">
   <rect x="81.885281" y="26.105371" width="334.8" height="83.16"/>
  </clipPath>
  <clipPath id="p78e8fd0a1b">
   <path d="M 436.085281 73.668339 
L 436.085281 57.828339 
L 451.925281 57.828339 
L 451.925281 73.668339 
"/>
  </clipPath>
  <clipPath id="p77a902378a">
   <path d="M 436.085281 91.508339 
L 436.085281 75.668339 
L 451.925281 75.668339 
L 451.925281 91.508339 
"/>
  </clipPath>
 </defs>
</svg>
