<?xml version="1.0" encoding="utf-8" standalone="no"?>
<!DOCTYPE svg PUBLIC "-//W3C//DTD SVG 1.1//EN"
  "http://www.w3.org/Graphics/SVG/1.1/DTD/svg11.dtd">
<svg xmlns:xlink="http://www.w3.org/1999/xlink" width="280.17pt" height="398.054625pt" viewBox="0 0 280.17 398.054625" xmlns="http://www.w3.org/2000/svg" version="1.1">
 <metadata>
  <rdf:RDF xmlns:dc="http://purl.org/dc/elements/1.1/" xmlns:cc="http://creativecommons.org/ns#" xmlns:rdf="http://www.w3.org/1999/02/22-rdf-syntax-ns#">
   <cc:Work>
    <dc:type rdf:resource="http://purl.org/dc/dcmitype/StillImage"/>
    <dc:date>2022-09-16T16:55:10.196978</dc:date>
    <dc:format>image/svg+xml</dc:format>
    <dc:creator>
     <cc:Agent>
      <dc:title>Matplotlib v3.5.3, https://matplotlib.org/</dc:title>
     </cc:Agent>
    </dc:creator>
   </cc:Work>
  </rdf:RDF>
 </metadata>
 <defs>
  <style type="text/css">*{stroke-linejoin: round; stroke-linecap: butt}</style>
 </defs>
 <g id="figure_1">
  <g id="patch_1">
   <path d="M 0 398.054625 
L 280.17 398.054625 
L 280.17 0 
L 0 0 
z
" style="fill: #ffffff"/>
  </g>
  <g id="axes_1">
   <g id="patch_2">
    <path d="M 16.53 146.300167 
L 242.69 146.300167 
L 242.69 61.47 
L 16.53 61.47 
z
" style="fill: #ffffff"/>
   </g>
   <g id="matplotlib.axis_1">
    <g id="xtick_1">
     <g id="line2d_1">
      <defs>
       <path id="m5ffe0a5c05" d="M 0 0 
L 0 3.5 
" style="stroke: #323034; stroke-width: 0.8"/>
      </defs>
      <g>
       <use xlink:href="#m5ffe0a5c05" x="16.53" y="146.300167" style="fill: #323034; stroke: #323034; stroke-width: 0.8"/>
      </g>
     </g>
    </g>
    <g id="xtick_2">
     <g id="line2d_2">
      <g>
       <use xlink:href="#m5ffe0a5c05" x="38.702549" y="146.300167" style="fill: #323034; stroke: #323034; stroke-width: 0.8"/>
      </g>
     </g>
    </g>
    <g id="xtick_3">
     <g id="line2d_3">
      <g>
       <use xlink:href="#m5ffe0a5c05" x="61.614183" y="146.300167" style="fill: #323034; stroke: #323034; stroke-width: 0.8"/>
      </g>
     </g>
    </g>
    <g id="xtick_4">
     <g id="line2d_4">
      <g>
       <use xlink:href="#m5ffe0a5c05" x="83.786732" y="146.300167" style="fill: #323034; stroke: #323034; stroke-width: 0.8"/>
      </g>
     </g>
    </g>
    <g id="xtick_5">
     <g id="line2d_5">
      <g>
       <use xlink:href="#m5ffe0a5c05" x="106.698366" y="146.300167" style="fill: #323034; stroke: #323034; stroke-width: 0.8"/>
      </g>
     </g>
    </g>
    <g id="xtick_6">
     <g id="line2d_6">
      <g>
       <use xlink:href="#m5ffe0a5c05" x="129.61" y="146.300167" style="fill: #323034; stroke: #323034; stroke-width: 0.8"/>
      </g>
     </g>
    </g>
    <g id="xtick_7">
     <g id="line2d_7">
      <g>
       <use xlink:href="#m5ffe0a5c05" x="151.782549" y="146.300167" style="fill: #323034; stroke: #323034; stroke-width: 0.8"/>
      </g>
     </g>
    </g>
    <g id="xtick_8">
     <g id="line2d_8">
      <g>
       <use xlink:href="#m5ffe0a5c05" x="174.694183" y="146.300167" style="fill: #323034; stroke: #323034; stroke-width: 0.8"/>
      </g>
     </g>
    </g>
    <g id="xtick_9">
     <g id="line2d_9">
      <g>
       <use xlink:href="#m5ffe0a5c05" x="196.866732" y="146.300167" style="fill: #323034; stroke: #323034; stroke-width: 0.8"/>
      </g>
     </g>
    </g>
    <g id="xtick_10">
     <g id="line2d_10">
      <g>
       <use xlink:href="#m5ffe0a5c05" x="219.778366" y="146.300167" style="fill: #323034; stroke: #323034; stroke-width: 0.8"/>
      </g>
     </g>
    </g>
    <g id="xtick_11">
     <g id="line2d_11">
      <g>
       <use xlink:href="#m5ffe0a5c05" x="242.69" y="146.300167" style="fill: #323034; stroke: #323034; stroke-width: 0.8"/>
      </g>
     </g>
    </g>
   </g>
   <g id="matplotlib.axis_2">
    <g id="ytick_1">
     <g id="line2d_12">
      <defs>
       <path id="m7566a9a10c" d="M 0 0 
L 3.5 0 
" style="stroke: #323034; stroke-width: 0.8"/>
      </defs>
      <g>
       <use xlink:href="#m7566a9a10c" x="242.69" y="125.092625" style="fill: #323034; stroke: #323034; stroke-width: 0.8"/>
      </g>
     </g>
     <g id="text_1">
      <!-- $\mathdefault{10}$ -->
      <g style="fill: #323034" transform="translate(249.69 129.190437)scale(0.12 -0.12)">
       <defs>
        <path id="STIXGeneral-Regular-31" d="M 2522 0 
L 755 0 
L 755 96 
Q 1107 115 1235 227 
Q 1363 339 1363 608 
L 1363 3482 
Q 1363 3795 1171 3795 
Q 1082 3795 883 3718 
L 710 3654 
L 710 3744 
L 1856 4326 
L 1914 4307 
L 1914 486 
Q 1914 275 2042 185 
Q 2170 96 2522 96 
L 2522 0 
z
" transform="scale(0.015625)"/>
        <path id="STIXGeneral-Regular-30" d="M 3046 2112 
Q 3046 1683 2963 1302 
Q 2880 922 2717 602 
Q 2554 282 2266 96 
Q 1978 -90 1600 -90 
Q 1210 -90 915 108 
Q 621 307 461 640 
Q 301 973 227 1350 
Q 154 1728 154 2150 
Q 154 2746 301 3222 
Q 448 3699 790 4012 
Q 1133 4326 1626 4326 
Q 2253 4326 2649 3712 
Q 3046 3098 3046 2112 
z
M 2432 2080 
Q 2432 3091 2217 3625 
Q 2003 4160 1587 4160 
Q 1190 4160 979 3622 
Q 768 3085 768 2106 
Q 768 1120 979 598 
Q 1190 77 1600 77 
Q 2003 77 2217 598 
Q 2432 1120 2432 2080 
z
" transform="scale(0.015625)"/>
       </defs>
       <use xlink:href="#STIXGeneral-Regular-31" transform="translate(0 0.40625)"/>
       <use xlink:href="#STIXGeneral-Regular-30" transform="translate(49.999985 0.40625)"/>
      </g>
     </g>
    </g>
    <g id="ytick_2">
     <g id="line2d_13">
      <g>
       <use xlink:href="#m7566a9a10c" x="242.69" y="82.677542" style="fill: #323034; stroke: #323034; stroke-width: 0.8"/>
      </g>
     </g>
     <g id="text_2">
      <!-- $\mathdefault{12}$ -->
      <g style="fill: #323034" transform="translate(249.69 86.775354)scale(0.12 -0.12)">
       <defs>
        <path id="STIXGeneral-Regular-32" d="M 3034 877 
L 2688 0 
L 186 0 
L 186 77 
L 1325 1286 
Q 1773 1754 1965 2144 
Q 2157 2534 2157 2950 
Q 2157 3379 1920 3616 
Q 1683 3853 1267 3853 
Q 922 3853 720 3673 
Q 518 3494 326 3021 
L 192 3053 
Q 301 3648 630 3987 
Q 960 4326 1523 4326 
Q 2054 4326 2380 4006 
Q 2707 3686 2707 3200 
Q 2707 2477 1888 1613 
L 832 486 
L 2330 486 
Q 2541 486 2665 569 
Q 2790 653 2944 915 
L 3034 877 
z
" transform="scale(0.015625)"/>
       </defs>
       <use xlink:href="#STIXGeneral-Regular-31" transform="translate(0 0.40625)"/>
       <use xlink:href="#STIXGeneral-Regular-32" transform="translate(49.999985 0.40625)"/>
      </g>
     </g>
    </g>
    <g id="ytick_3">
     <g id="line2d_14">
      <defs>
       <path id="m10da4fdc93" d="M 0 0 
L 2 0 
" style="stroke: #323034; stroke-width: 0.6"/>
      </defs>
      <g>
       <use xlink:href="#m10da4fdc93" x="242.69" y="103.885083" style="fill: #323034; stroke: #323034; stroke-width: 0.6"/>
      </g>
     </g>
    </g>
    <g id="ytick_4">
     <g id="line2d_15">
      <g>
       <use xlink:href="#m10da4fdc93" x="242.69" y="61.47" style="fill: #323034; stroke: #323034; stroke-width: 0.6"/>
      </g>
     </g>
    </g>
   </g>
   <g id="line2d_16">
    <path d="M 16.53 120.27361 
L 17.269085 120.302336 
L 18.00817 120.055476 
L 18.747255 118.401678 
L 19.48634 118.357642 
L 20.225425 117.517307 
L 22.44268 117.131591 
L 23.181765 117.721292 
L 23.92085 117.756978 
L 24.659935 117.525754 
L 25.39902 118.538035 
L 26.138105 119.205646 
L 26.87719 119.076303 
L 27.616275 119.092668 
L 29.094444 119.907098 
L 29.833529 119.532562 
L 30.572614 119.364992 
L 31.311699 120.117441 
L 32.050784 120.006415 
L 34.268039 117.477952 
L 35.007124 117.466746 
L 35.746209 119.368651 
L 36.485294 120.415139 
L 37.224379 120.892917 
L 37.963464 120.625911 
L 38.702549 119.936727 
L 39.441634 119.833818 
L 40.180719 119.205246 
L 40.919804 120.953142 
L 42.397974 122.417401 
L 43.137059 122.129955 
L 44.615229 122.957816 
L 45.354314 123.307066 
L 46.093399 125.431574 
L 46.832484 125.165047 
L 47.571569 125.805286 
L 48.310654 124.733883 
L 49.788824 124.628386 
L 50.527908 124.856453 
L 51.266993 124.588939 
L 52.006078 125.007882 
L 52.745163 124.892137 
L 53.484248 124.431471 
L 54.223333 125.186161 
L 54.962418 125.419696 
L 55.701503 124.89185 
L 57.179673 126.524148 
L 57.918758 127.558118 
L 58.657843 127.248236 
L 59.396928 126.736583 
L 60.136013 125.970012 
L 60.875098 124.9409 
L 61.614183 124.492393 
L 62.353268 124.90154 
L 63.092353 125.899838 
L 63.831438 126.443111 
L 64.570523 124.881654 
L 66.048693 125.156117 
L 66.787778 126.150938 
L 67.526863 126.823231 
L 68.265948 126.055626 
L 69.005033 125.940533 
L 69.744118 125.507948 
L 70.483203 124.45929 
L 71.222288 124.532638 
L 71.961373 124.900204 
L 72.700458 123.671995 
L 74.917712 121.586185 
L 75.656797 119.961421 
L 77.134967 117.839292 
L 77.874052 116.246067 
L 80.091307 113.072556 
L 80.830392 112.199853 
L 81.569477 110.672779 
L 82.308562 110.429075 
L 83.047647 108.912541 
L 84.525817 107.220133 
L 85.264902 106.883853 
L 86.003987 106.995298 
L 86.743072 106.475021 
L 87.482157 106.438825 
L 88.960327 104.739095 
L 89.699412 104.650683 
L 90.438497 103.975459 
L 91.177582 103.710625 
L 91.916667 102.425511 
L 93.394837 101.19574 
L 94.133922 100.881813 
L 94.873007 100.392062 
L 96.351176 101.773704 
L 97.090261 100.74888 
L 97.829346 101.140917 
L 99.307516 100.768014 
L 100.785686 101.412084 
L 101.524771 101.59597 
L 103.002941 102.120948 
L 104.481111 101.897562 
L 105.220196 102.084189 
L 105.959281 102.621549 
L 106.698366 103.784188 
L 107.437451 103.936247 
L 108.176536 105.318749 
L 108.915621 105.520177 
L 109.654706 106.016399 
L 110.393791 106.300177 
L 111.871961 106.474242 
L 112.611046 106.045597 
L 113.350131 106.7051 
L 114.089216 106.398497 
L 114.828301 106.442949 
L 115.567386 107.02475 
L 116.306471 107.039832 
L 117.045556 107.540207 
L 117.784641 107.84958 
L 118.523725 109.73049 
L 119.26281 110.079208 
L 120.001895 110.733513 
L 120.74098 111.117227 
L 121.480065 111.255271 
L 122.21915 111.219129 
L 122.958235 112.3612 
L 123.69732 111.992345 
L 124.436405 112.260037 
L 125.17549 111.619199 
L 125.914575 111.650742 
L 126.65366 111.912739 
L 127.392745 111.618157 
L 128.13183 112.243637 
L 128.870915 112.655923 
L 129.61 111.643937 
L 130.349085 113.882008 
L 131.08817 112.936045 
L 131.827255 111.7593 
L 132.56634 111.885646 
L 133.305425 113.243652 
L 134.04451 116.318335 
L 134.783595 117.475111 
L 135.52268 117.452969 
L 136.261765 116.844163 
L 137.00085 115.000407 
L 139.218105 113.565714 
L 139.95719 113.028587 
L 140.696275 113.059125 
L 142.174444 111.806146 
L 142.913529 111.876895 
L 143.652614 111.535819 
L 144.391699 108.63528 
L 145.130784 110.173867 
L 145.869869 110.743002 
L 146.608954 110.962923 
L 147.348039 109.984793 
L 148.087124 110.556408 
L 148.826209 110.512374 
L 149.565294 111.204367 
L 150.304379 110.656333 
L 151.043464 111.009018 
L 151.782549 110.960945 
L 152.521634 110.171783 
L 153.260719 109.784636 
L 153.999804 110.538803 
L 154.738889 107.017624 
L 155.477974 108.064129 
L 156.217059 107.421906 
L 156.956144 107.027705 
L 157.695229 106.83546 
L 158.434314 107.004096 
L 159.173399 106.759253 
L 159.912484 106.763289 
L 161.390654 105.162611 
L 162.868824 103.718997 
L 163.607908 104.8591 
L 164.346993 104.888483 
L 165.086078 103.072853 
L 166.564248 102.545223 
L 167.303333 101.633762 
L 168.042418 100.424162 
L 168.781503 99.507492 
L 169.520588 99.640885 
L 170.259673 98.644928 
L 170.998758 98.314661 
L 172.476928 97.051304 
L 173.216013 96.254687 
L 173.955098 96.348467 
L 174.694183 95.935277 
L 175.433268 94.463159 
L 176.172353 93.931002 
L 178.389608 90.419203 
L 179.128693 89.359266 
L 179.867778 88.770405 
L 180.606863 87.23159 
L 181.345948 85.959112 
L 182.085033 85.372724 
L 183.563203 83.425406 
L 185.041373 82.682921 
L 185.780458 81.470799 
L 188.736797 80.480135 
L 190.214967 81.079275 
L 190.954052 80.040838 
L 191.693137 79.737321 
L 192.432222 79.836907 
L 193.171307 85.090406 
L 193.910392 83.312249 
L 194.649477 83.852326 
L 195.388562 83.547319 
L 197.605817 79.906884 
L 198.344902 79.019505 
L 199.083987 78.373176 
L 200.562157 77.911727 
L 202.040327 76.25312 
L 202.779412 76.118897 
L 203.518497 76.376652 
L 204.257582 75.184326 
L 204.996667 76.086821 
L 206.474837 76.215719 
L 207.213922 76.46469 
L 207.953007 75.503146 
L 209.431176 75.727073 
L 210.170261 77.116628 
L 210.909346 77.120691 
L 211.648431 76.921919 
L 212.387516 77.067784 
L 213.126601 76.56274 
L 213.865686 78.102236 
L 214.604771 84.92478 
L 215.343856 82.327805 
L 216.082941 81.951128 
L 218.300196 78.061002 
L 219.039281 77.561887 
L 219.778366 81.376215 
L 220.517451 77.465183 
L 221.256536 76.348816 
L 221.995621 74.517494 
L 222.734706 74.162952 
L 224.951961 72.588404 
L 226.430131 73.194897 
L 227.908301 73.756804 
L 230.125556 75.835418 
L 230.864641 76.982806 
L 231.603725 77.621541 
L 232.34281 80.30958 
L 233.081895 80.044313 
L 233.82098 80.311866 
L 234.560065 80.779578 
L 236.038235 82.154777 
L 236.77732 83.187348 
L 237.516405 83.026862 
L 238.994575 83.907182 
L 239.73366 84.152693 
L 240.472745 84.796478 
L 241.21183 86.102639 
L 241.950915 86.736058 
L 242.69 86.04254 
L 242.69 86.04254 
" clip-path="url(#p93db7da619)" style="fill: none; stroke-dasharray: 3.7,1.6; stroke-dashoffset: 0; stroke: #000000"/>
   </g>
   <g id="line2d_17">
    <path d="M 16.53 120.82999 
L 18.00817 116.962086 
L 18.747255 115.211439 
L 19.48634 121.890871 
L 20.225425 117.902651 
L 20.96451 118.303595 
L 21.703595 117.291424 
L 22.44268 115.454515 
L 23.181765 116.217387 
L 23.92085 117.358178 
L 24.659935 120.662911 
L 25.39902 121.764579 
L 26.138105 121.019044 
L 26.87719 118.517183 
L 27.616275 117.429837 
L 28.355359 117.499721 
L 29.833529 122.125634 
L 30.572614 120.466925 
L 31.311699 121.975485 
L 32.050784 119.383417 
L 32.789869 116.026279 
L 33.528954 114.241816 
L 34.268039 115.63312 
L 35.007124 120.984112 
L 35.746209 123.994536 
L 36.485294 122.705234 
L 37.224379 121.12738 
L 37.963464 118.289619 
L 38.702549 115.904817 
L 40.919804 125.154785 
L 41.658889 123.531538 
L 42.397974 122.830347 
L 43.137059 119.64468 
L 43.876144 120.271967 
L 44.615229 122.519363 
L 45.354314 126.805913 
L 46.093399 129.825159 
L 46.832484 124.830882 
L 47.571569 125.958768 
L 48.310654 120.804805 
L 49.049739 121.382877 
L 49.788824 123.57631 
L 50.527908 128.211601 
L 51.266993 125.28555 
L 52.006078 126.127937 
L 53.484248 121.794227 
L 54.962418 124.861337 
L 55.701503 127.106571 
L 56.440588 128.115895 
L 57.918758 128.514908 
L 58.657843 124.63022 
L 59.396928 122.794032 
L 60.136013 123.812472 
L 60.875098 126.477573 
L 61.614183 125.217645 
L 62.353268 126.31682 
L 63.092353 127.153206 
L 63.831438 125.491559 
L 64.570523 119.473349 
L 65.309608 124.626453 
L 66.048693 128.660228 
L 66.787778 129.131359 
L 67.526863 128.446002 
L 68.265948 124.312316 
L 69.005033 123.989965 
L 69.744118 121.992948 
L 70.483203 122.125634 
L 71.222288 128.082611 
L 71.961373 127.015714 
L 72.700458 122.50487 
L 73.439542 121.858607 
L 74.917712 117.9576 
L 75.656797 117.155233 
L 76.395882 121.268406 
L 77.874052 115.235017 
L 78.613137 114.099148 
L 80.091307 109.694194 
L 81.569477 112.701939 
L 82.308562 112.708382 
L 83.047647 108.4017 
L 83.786732 107.717749 
L 84.525817 105.471391 
L 85.264902 104.871135 
L 86.003987 107.704598 
L 86.743072 110.051674 
L 87.482157 108.877258 
L 88.221242 106.042025 
L 88.960327 104.034066 
L 89.699412 103.879821 
L 90.438497 101.11547 
L 91.177582 103.587226 
L 91.916667 104.630941 
L 93.394837 101.947531 
L 94.133922 101.079754 
L 94.873007 98.914848 
L 95.612092 100.293585 
L 96.351176 102.99145 
L 97.090261 103.051302 
L 97.829346 103.880175 
L 98.568431 102.052857 
L 99.307516 100.650616 
L 100.046601 100.569576 
L 100.785686 99.529462 
L 101.524771 101.571361 
L 102.263856 105.989936 
L 103.002941 104.132028 
L 104.481111 101.569456 
L 105.220196 100.892532 
L 105.959281 100.849514 
L 106.698366 104.992447 
L 107.437451 107.373013 
L 108.176536 108.802092 
L 108.915621 106.252854 
L 109.654706 106.184055 
L 111.132876 103.435492 
L 111.871961 105.593508 
L 112.611046 108.361855 
L 113.350131 108.94145 
L 114.089216 106.329031 
L 114.828301 105.966089 
L 115.567386 106.051045 
L 116.306471 104.02622 
L 117.045556 107.394317 
L 117.784641 111.335685 
L 118.523725 113.795169 
L 119.26281 110.791121 
L 120.001895 110.899315 
L 121.480065 108.123045 
L 122.21915 109.929331 
L 122.958235 116.952245 
L 123.69732 112.226347 
L 124.436405 112.877118 
L 125.17549 109.791773 
L 125.914575 109.655102 
L 126.65366 109.21702 
L 127.392745 110.126656 
L 128.13183 116.245283 
L 128.870915 114.388939 
L 129.61 110.39457 
L 130.349085 116.879563 
L 131.08817 109.293217 
L 131.827255 106.834216 
L 132.56634 111.277383 
L 133.305425 118.541912 
L 134.04451 122.266738 
L 136.261765 113.493257 
L 137.00085 108.765055 
L 137.739935 112.919919 
L 138.47902 116.299912 
L 139.218105 114.15771 
L 139.95719 112.858724 
L 140.696275 112.831162 
L 141.435359 109.795985 
L 142.174444 108.184556 
L 143.652614 114.465218 
L 144.391699 105.704365 
L 145.130784 113.869905 
L 145.869869 111.63371 
L 146.608954 109.845657 
L 147.348039 105.84803 
L 148.087124 111.056687 
L 148.826209 113.922719 
L 149.565294 113.887495 
L 150.304379 110.564722 
L 151.043464 111.375483 
L 151.782549 109.28362 
L 152.521634 106.240581 
L 153.260719 108.670746 
L 153.999804 115.233202 
L 154.738889 103.004358 
L 155.477974 110.973896 
L 156.217059 106.464601 
L 156.956144 105.159546 
L 157.695229 104.210652 
L 159.173399 110.044095 
L 159.912484 108.565809 
L 160.651569 105.921204 
L 162.129739 102.02818 
L 162.868824 100.431282 
L 163.607908 106.567253 
L 164.346993 108.625076 
L 165.086078 101.999967 
L 165.825163 103.631629 
L 166.564248 102.393458 
L 167.303333 99.071497 
L 168.042418 96.37985 
L 168.781503 98.119606 
L 169.520588 103.941527 
L 170.259673 99.210834 
L 170.998758 99.282273 
L 173.216013 93.035208 
L 173.955098 96.652605 
L 174.694183 99.337083 
L 175.433268 94.318067 
L 176.172353 94.679835 
L 176.911438 91.35973 
L 177.650523 88.903525 
L 178.389608 86.987493 
L 179.128693 88.117501 
L 179.867778 92.29546 
L 180.606863 87.369973 
L 181.345948 85.909351 
L 182.085033 85.4399 
L 182.824118 82.561083 
L 183.563203 80.366155 
L 184.302288 83.168136 
L 185.041373 86.613515 
L 185.780458 82.187035 
L 186.519542 82.824484 
L 187.258627 81.471334 
L 187.997712 79.675046 
L 188.736797 78.428583 
L 189.475882 81.514093 
L 190.214967 85.751509 
L 190.954052 80.58615 
L 191.693137 80.795568 
L 192.432222 80.472285 
L 193.171307 92.381561 
L 193.910392 77.696959 
L 194.649477 84.210137 
L 195.388562 86.467185 
L 196.127647 82.048071 
L 197.605817 78.183334 
L 198.344902 76.505134 
L 199.083987 75.217475 
L 199.823072 77.71046 
L 200.562157 81.515573 
L 201.301242 77.832982 
L 202.040327 76.313541 
L 202.779412 76.313348 
L 203.518497 75.788162 
L 204.257582 71.132679 
L 204.996667 77.523243 
L 205.735752 80.05034 
L 206.474837 78.213611 
L 207.213922 77.975519 
L 207.953007 74.018351 
L 208.692092 74.644072 
L 209.431176 73.474213 
L 210.170261 78.9636 
L 210.909346 80.552174 
L 211.648431 78.14689 
L 212.387516 78.13437 
L 213.126601 75.550516 
L 213.865686 79.006736 
L 214.604771 92.810666 
L 215.343856 76.590725 
L 216.082941 84.114964 
L 216.822026 79.505843 
L 217.561111 78.198309 
L 218.300196 75.440372 
L 219.039281 75.24903 
L 219.778366 84.800978 
L 220.517451 70.309885 
L 221.256536 78.119335 
L 221.995621 73.420248 
L 222.734706 74.885703 
L 224.951961 69.653473 
L 226.430131 77.445416 
L 227.169216 75.68568 
L 227.908301 75.345361 
L 228.647386 75.405571 
L 229.386471 74.482936 
L 230.125556 74.453649 
L 232.34281 85.700507 
L 233.081895 79.738932 
L 233.82098 79.904752 
L 234.560065 79.34132 
L 235.29915 79.221084 
L 236.038235 82.015334 
L 236.77732 87.496016 
L 237.516405 83.498342 
L 238.25549 84.318266 
L 238.994575 83.607793 
L 239.73366 82.236494 
L 240.472745 82.436524 
L 241.21183 86.832069 
L 241.950915 90.266579 
L 242.69 85.592441 
L 242.69 85.592441 
" clip-path="url(#p93db7da619)" style="fill: none; stroke: #bc80bd; stroke-opacity: 0.7; stroke-width: 2; stroke-linecap: square"/>
   </g>
   <g id="patch_3">
    <path d="M 242.69 146.300167 
L 242.69 61.47 
" style="fill: none; stroke: #000000; stroke-width: 0.6; stroke-linejoin: miter; stroke-linecap: square"/>
   </g>
   <g id="patch_4">
    <path d="M 16.53 146.300167 
L 242.69 146.300167 
" style="fill: none; stroke: #000000; stroke-width: 0.6; stroke-linejoin: miter; stroke-linecap: square"/>
   </g>
   <g id="text_3">
    <!-- log new cases -->
    <g style="fill: #323034" transform="translate(153.82 55.47)scale(0.16 -0.16)">
     <defs>
      <path id="STIXGeneral-Regular-6c" d="M 1645 0 
L 134 0 
L 134 96 
Q 435 122 531 221 
Q 627 320 627 589 
L 627 3590 
Q 627 3821 569 3910 
Q 512 4000 358 4000 
Q 224 4000 122 3987 
L 122 4090 
Q 730 4237 1133 4371 
L 1165 4346 
L 1165 557 
Q 1165 288 1254 201 
Q 1344 115 1645 96 
L 1645 0 
z
" transform="scale(0.015625)"/>
      <path id="STIXGeneral-Regular-6f" d="M 3008 1478 
Q 3008 806 2608 371 
Q 2208 -64 1568 -64 
Q 979 -64 582 368 
Q 186 800 186 1459 
Q 186 2125 582 2534 
Q 979 2944 1626 2944 
Q 2221 2944 2614 2537 
Q 3008 2131 3008 1478 
z
M 2432 1306 
Q 2432 2035 2112 2445 
Q 1856 2765 1504 2765 
Q 1171 2765 966 2493 
Q 762 2221 762 1747 
Q 762 928 1101 435 
Q 1318 115 1677 115 
Q 2029 115 2230 432 
Q 2432 749 2432 1306 
z
" transform="scale(0.015625)"/>
      <path id="STIXGeneral-Regular-67" d="M 3008 2483 
L 2477 2483 
Q 2598 2208 2598 1946 
Q 2598 1453 2265 1203 
Q 1933 954 1600 954 
Q 1530 954 1357 973 
L 1235 986 
Q 1107 947 979 812 
Q 851 678 851 582 
Q 851 435 1350 410 
L 2176 371 
Q 2528 358 2739 172 
Q 2950 -13 2950 -314 
Q 2950 -685 2566 -986 
Q 2035 -1395 1286 -1395 
Q 826 -1395 502 -1212 
Q 179 -1030 179 -774 
Q 179 -595 320 -419 
Q 461 -243 806 6 
Q 602 102 534 172 
Q 467 243 467 346 
Q 467 531 762 787 
Q 909 915 1037 1043 
Q 717 1203 579 1401 
Q 442 1600 442 1901 
Q 442 2336 752 2640 
Q 1062 2944 1510 2944 
Q 1766 2944 2022 2848 
L 2163 2797 
Q 2349 2733 2515 2733 
L 3008 2733 
L 3008 2483 
z
M 973 2163 
L 973 2144 
Q 973 1683 1155 1398 
Q 1338 1114 1632 1114 
Q 1850 1114 1978 1270 
Q 2106 1427 2106 1690 
Q 2106 2112 1914 2464 
Q 1754 2765 1446 2765 
Q 1222 2765 1097 2605 
Q 973 2445 973 2163 
z
M 2771 -410 
Q 2771 -230 2595 -163 
Q 2419 -96 1978 -96 
Q 1344 -96 941 -13 
Q 749 -243 688 -348 
Q 627 -454 627 -563 
Q 627 -774 880 -902 
Q 1133 -1030 1555 -1030 
Q 2099 -1030 2435 -860 
Q 2771 -691 2771 -410 
z
" transform="scale(0.015625)"/>
      <path id="STIXGeneral-Regular-20" transform="scale(0.015625)"/>
      <path id="STIXGeneral-Regular-6e" d="M 3104 0 
L 1773 0 
L 1779 96 
Q 2016 115 2096 233 
Q 2176 352 2176 672 
L 2176 1946 
Q 2176 2592 1709 2592 
Q 1549 2592 1408 2515 
Q 1267 2438 1050 2227 
L 1050 461 
Q 1050 269 1136 192 
Q 1222 115 1466 96 
L 1466 0 
L 115 0 
L 115 96 
Q 358 115 435 214 
Q 512 314 512 602 
L 512 2157 
Q 512 2394 467 2483 
Q 422 2573 288 2573 
Q 160 2573 102 2547 
L 102 2656 
Q 550 2784 979 2944 
L 1030 2925 
L 1030 2426 
L 1037 2426 
Q 1491 2944 1958 2944 
Q 2323 2944 2518 2688 
Q 2714 2432 2714 1958 
L 2714 544 
Q 2714 288 2790 205 
Q 2867 122 3104 96 
L 3104 0 
z
" transform="scale(0.015625)"/>
      <path id="STIXGeneral-Regular-65" d="M 2611 1050 
L 2714 1005 
Q 2330 -64 1376 -64 
Q 813 -64 486 329 
Q 160 723 160 1389 
Q 160 2074 525 2509 
Q 890 2944 1485 2944 
Q 2061 2944 2374 2502 
Q 2560 2246 2592 1773 
L 621 1773 
Q 646 1370 700 1158 
Q 755 947 915 730 
Q 1184 378 1626 378 
Q 1939 378 2153 531 
Q 2368 685 2611 1050 
z
M 634 1978 
L 1939 1978 
Q 1882 2381 1750 2547 
Q 1619 2714 1312 2714 
Q 1043 2714 864 2525 
Q 685 2336 634 1978 
z
" transform="scale(0.015625)"/>
      <path id="STIXGeneral-Regular-77" d="M 4442 2880 
L 4442 2784 
Q 4346 2752 4301 2691 
Q 4256 2630 4179 2438 
L 3296 224 
Q 3168 -90 3117 -90 
Q 3085 -90 3062 -48 
Q 3040 -6 2963 186 
L 2381 1696 
L 1664 160 
Q 1549 -90 1504 -90 
Q 1446 -90 1338 192 
L 474 2381 
Q 378 2630 314 2700 
Q 250 2771 134 2784 
L 134 2880 
L 1286 2880 
L 1286 2784 
Q 1120 2765 1056 2720 
Q 992 2675 992 2573 
Q 992 2477 1030 2381 
L 1664 710 
L 2246 1984 
L 2118 2342 
Q 2029 2598 1942 2681 
Q 1856 2765 1677 2784 
L 1677 2880 
L 2976 2880 
L 2976 2784 
Q 2752 2752 2678 2707 
Q 2605 2662 2605 2560 
Q 2605 2458 2714 2176 
L 3251 742 
L 3827 2163 
Q 3936 2432 3936 2592 
Q 3936 2669 3875 2710 
Q 3814 2752 3654 2784 
L 3654 2880 
L 4442 2880 
z
" transform="scale(0.015625)"/>
      <path id="STIXGeneral-Regular-63" d="M 2547 998 
L 2637 941 
Q 2362 403 2112 205 
Q 1786 -64 1376 -64 
Q 845 -64 502 336 
Q 160 736 160 1357 
Q 160 2170 698 2618 
Q 1094 2944 1562 2944 
Q 1965 2944 2256 2749 
Q 2547 2554 2547 2285 
Q 2547 2176 2457 2096 
Q 2368 2016 2246 2016 
Q 2022 2016 1939 2310 
L 1901 2451 
Q 1850 2630 1773 2694 
Q 1696 2758 1523 2758 
Q 1133 2758 893 2451 
Q 653 2144 653 1645 
Q 653 1094 928 745 
Q 1203 397 1645 397 
Q 1920 397 2118 528 
Q 2317 659 2547 998 
z
" transform="scale(0.015625)"/>
      <path id="STIXGeneral-Regular-61" d="M 2829 422 
L 2829 243 
Q 2586 -64 2253 -64 
Q 1888 -64 1843 403 
L 1837 403 
Q 1427 -64 909 -64 
Q 608 -64 422 112 
Q 237 288 237 602 
Q 237 1050 685 1350 
Q 992 1555 1837 1869 
L 1837 2214 
Q 1837 2502 1699 2646 
Q 1562 2790 1338 2790 
Q 1146 2790 1018 2697 
Q 890 2605 890 2477 
Q 890 2419 909 2348 
Q 928 2278 928 2208 
Q 928 2112 841 2029 
Q 755 1946 634 1946 
Q 525 1946 441 2029 
Q 358 2112 358 2240 
Q 358 2547 685 2752 
Q 986 2944 1421 2944 
Q 1939 2944 2176 2656 
Q 2291 2522 2323 2384 
Q 2355 2246 2355 1946 
L 2355 723 
Q 2355 301 2554 301 
Q 2682 301 2829 422 
z
M 1837 813 
L 1837 1715 
Q 1248 1510 1018 1293 
Q 800 1094 800 800 
Q 800 557 921 432 
Q 1043 307 1242 307 
Q 1453 307 1613 410 
Q 1747 506 1792 589 
Q 1837 672 1837 813 
z
" transform="scale(0.015625)"/>
      <path id="STIXGeneral-Regular-73" d="M 998 1926 
L 1664 1523 
Q 1984 1331 2105 1164 
Q 2227 998 2227 736 
Q 2227 416 1961 176 
Q 1696 -64 1331 -64 
Q 1030 -64 864 -6 
Q 691 51 570 51 
Q 461 51 416 -26 
L 333 -26 
L 333 979 
L 435 979 
Q 538 512 730 294 
Q 922 77 1248 77 
Q 1485 77 1632 211 
Q 1779 346 1779 550 
Q 1779 845 1440 1030 
L 1094 1222 
Q 326 1651 326 2150 
Q 326 2522 566 2730 
Q 806 2938 1210 2938 
Q 1491 2938 1638 2867 
Q 1754 2816 1818 2816 
Q 1862 2816 1920 2880 
L 1990 2880 
L 2022 2010 
L 1926 2010 
Q 1818 2445 1654 2621 
Q 1491 2797 1203 2797 
Q 986 2797 854 2688 
Q 723 2579 723 2362 
Q 723 2253 796 2128 
Q 870 2003 998 1926 
z
" transform="scale(0.015625)"/>
     </defs>
     <use xlink:href="#STIXGeneral-Regular-6c"/>
     <use xlink:href="#STIXGeneral-Regular-6f" x="27.799988"/>
     <use xlink:href="#STIXGeneral-Regular-67" x="77.799973"/>
     <use xlink:href="#STIXGeneral-Regular-20" x="127.799957"/>
     <use xlink:href="#STIXGeneral-Regular-6e" x="152.799942"/>
     <use xlink:href="#STIXGeneral-Regular-65" x="202.799927"/>
     <use xlink:href="#STIXGeneral-Regular-77" x="247.199921"/>
     <use xlink:href="#STIXGeneral-Regular-20" x="319.399902"/>
     <use xlink:href="#STIXGeneral-Regular-63" x="344.399887"/>
     <use xlink:href="#STIXGeneral-Regular-61" x="388.799881"/>
     <use xlink:href="#STIXGeneral-Regular-73" x="433.199875"/>
     <use xlink:href="#STIXGeneral-Regular-65" x="472.099869"/>
     <use xlink:href="#STIXGeneral-Regular-73" x="516.499863"/>
    </g>
   </g>
   <g id="legend_1">
    <g id="patch_5">
     <path d="M 23.53 92.82 
L 84.859688 92.82 
Q 86.859688 92.82 86.859688 90.82 
L 86.859688 68.47 
Q 86.859688 66.47 84.859688 66.47 
L 23.53 66.47 
Q 21.53 66.47 21.53 68.47 
L 21.53 90.82 
Q 21.53 92.82 23.53 92.82 
z
" style="fill: #ffffff; opacity: 0.8; stroke: #e6e6e6; stroke-width: 0.8; stroke-linejoin: miter"/>
    </g>
    <g id="line2d_18">
     <path d="M 23.53 71.97 
L 33.53 71.97 
L 43.53 71.97 
" style="fill: none; stroke-dasharray: 3.7,1.6; stroke-dashoffset: 0; stroke: #000000"/>
    </g>
    <g id="text_4">
     <!-- Trend -->
     <g style="fill: #323034" transform="translate(51.53 75.47)scale(0.1 -0.1)">
      <defs>
       <path id="STIXGeneral-Regular-54" d="M 3795 3149 
L 3642 3149 
Q 3539 3674 3353 3821 
Q 3168 3968 2656 3968 
L 2278 3968 
L 2278 710 
Q 2278 346 2387 243 
Q 2496 141 2893 122 
L 2893 0 
L 1024 0 
L 1024 122 
Q 1427 147 1526 256 
Q 1626 365 1626 787 
L 1626 3968 
L 1242 3968 
Q 723 3968 540 3817 
Q 358 3667 262 3149 
L 109 3149 
L 154 4237 
L 3750 4237 
L 3795 3149 
z
" transform="scale(0.015625)"/>
       <path id="STIXGeneral-Regular-72" d="M 1024 2931 
L 1024 2342 
Q 1267 2688 1430 2816 
Q 1594 2944 1792 2944 
Q 1958 2944 2051 2854 
Q 2144 2765 2144 2605 
Q 2144 2470 2077 2393 
Q 2010 2317 1894 2317 
Q 1773 2317 1638 2445 
Q 1536 2541 1472 2541 
Q 1338 2541 1181 2355 
Q 1024 2170 1024 2016 
L 1024 576 
Q 1024 301 1133 205 
Q 1242 109 1568 96 
L 1568 0 
L 32 0 
L 32 96 
Q 339 154 412 224 
Q 486 294 486 538 
L 486 2138 
Q 486 2349 438 2435 
Q 390 2522 269 2522 
Q 166 2522 45 2496 
L 45 2598 
Q 448 2726 992 2944 
L 1024 2931 
z
" transform="scale(0.015625)"/>
       <path id="STIXGeneral-Regular-64" d="M 3142 269 
L 2202 -64 
L 2176 -45 
L 2176 365 
Q 1869 -64 1357 -64 
Q 826 -64 499 317 
Q 173 698 173 1312 
Q 173 1990 563 2467 
Q 954 2944 1504 2944 
Q 1850 2944 2176 2669 
L 2176 3667 
Q 2176 3866 2118 3930 
Q 2061 3994 1882 3994 
Q 1792 3994 1741 3987 
L 1741 4090 
Q 2323 4243 2682 4371 
L 2714 4358 
L 2714 730 
Q 2714 506 2768 435 
Q 2822 365 2995 365 
Q 3034 365 3142 371 
L 3142 269 
z
M 2176 653 
L 2176 2125 
Q 2176 2381 1981 2573 
Q 1786 2765 1523 2765 
Q 1158 2765 940 2438 
Q 723 2112 723 1568 
Q 723 979 963 624 
Q 1203 269 1606 269 
Q 1907 269 2080 474 
Q 2176 582 2176 653 
z
" transform="scale(0.015625)"/>
      </defs>
      <use xlink:href="#STIXGeneral-Regular-54"/>
      <use xlink:href="#STIXGeneral-Regular-72" x="61.099991"/>
      <use xlink:href="#STIXGeneral-Regular-65" x="94.399979"/>
      <use xlink:href="#STIXGeneral-Regular-6e" x="138.799973"/>
      <use xlink:href="#STIXGeneral-Regular-64" x="188.799957"/>
     </g>
    </g>
    <g id="line2d_19">
     <path d="M 23.53 85.140312 
L 33.53 85.140312 
L 43.53 85.140312 
" style="fill: none; stroke: #bc80bd; stroke-opacity: 0.7; stroke-width: 2; stroke-linecap: square"/>
    </g>
    <g id="text_5">
     <!-- Original -->
     <g style="fill: #323034" transform="translate(51.53 88.640312)scale(0.1 -0.1)">
      <defs>
       <path id="STIXGeneral-Regular-4f" d="M 4403 2118 
Q 4403 1133 3820 521 
Q 3238 -90 2310 -90 
Q 1376 -90 797 524 
Q 218 1139 218 2138 
Q 218 3110 797 3718 
Q 1376 4326 2310 4326 
Q 3245 4326 3824 3702 
Q 4403 3078 4403 2118 
z
M 3674 2157 
Q 3674 2701 3520 3133 
Q 3366 3565 3091 3795 
Q 2733 4096 2304 4096 
Q 1760 4096 1389 3667 
Q 1184 3437 1065 3011 
Q 947 2586 947 2125 
Q 947 960 1523 429 
Q 1837 141 2317 141 
Q 2816 141 3142 448 
Q 3674 960 3674 2157 
z
" transform="scale(0.015625)"/>
       <path id="STIXGeneral-Regular-69" d="M 1152 4045 
Q 1152 3904 1056 3811 
Q 960 3718 819 3718 
Q 685 3718 592 3811 
Q 499 3904 499 4045 
Q 499 4179 595 4275 
Q 691 4371 826 4371 
Q 966 4371 1059 4275 
Q 1152 4179 1152 4045 
z
M 1619 0 
L 102 0 
L 102 96 
Q 435 115 521 211 
Q 608 307 608 666 
L 608 2118 
Q 608 2342 563 2432 
Q 518 2522 397 2522 
Q 243 2522 128 2490 
L 128 2592 
L 1120 2944 
L 1146 2918 
L 1146 672 
Q 1146 314 1226 218 
Q 1306 122 1619 96 
L 1619 0 
z
" transform="scale(0.015625)"/>
      </defs>
      <use xlink:href="#STIXGeneral-Regular-4f"/>
      <use xlink:href="#STIXGeneral-Regular-72" x="72.199982"/>
      <use xlink:href="#STIXGeneral-Regular-69" x="105.499969"/>
      <use xlink:href="#STIXGeneral-Regular-67" x="133.299957"/>
      <use xlink:href="#STIXGeneral-Regular-69" x="183.299942"/>
      <use xlink:href="#STIXGeneral-Regular-6e" x="211.09993"/>
      <use xlink:href="#STIXGeneral-Regular-61" x="261.099915"/>
      <use xlink:href="#STIXGeneral-Regular-6c" x="305.499908"/>
     </g>
    </g>
   </g>
  </g>
  <g id="axes_2">
   <g id="patch_6">
    <path d="M 16.53 253.457833 
L 242.69 253.457833 
L 242.69 168.627667 
L 16.53 168.627667 
z
" style="fill: #ffffff"/>
   </g>
   <g id="matplotlib.axis_3">
    <g id="xtick_12">
     <g id="line2d_20">
      <g>
       <use xlink:href="#m5ffe0a5c05" x="16.53" y="253.457833" style="fill: #323034; stroke: #323034; stroke-width: 0.8"/>
      </g>
     </g>
    </g>
    <g id="xtick_13">
     <g id="line2d_21">
      <g>
       <use xlink:href="#m5ffe0a5c05" x="38.702549" y="253.457833" style="fill: #323034; stroke: #323034; stroke-width: 0.8"/>
      </g>
     </g>
    </g>
    <g id="xtick_14">
     <g id="line2d_22">
      <g>
       <use xlink:href="#m5ffe0a5c05" x="61.614183" y="253.457833" style="fill: #323034; stroke: #323034; stroke-width: 0.8"/>
      </g>
     </g>
    </g>
    <g id="xtick_15">
     <g id="line2d_23">
      <g>
       <use xlink:href="#m5ffe0a5c05" x="83.786732" y="253.457833" style="fill: #323034; stroke: #323034; stroke-width: 0.8"/>
      </g>
     </g>
    </g>
    <g id="xtick_16">
     <g id="line2d_24">
      <g>
       <use xlink:href="#m5ffe0a5c05" x="106.698366" y="253.457833" style="fill: #323034; stroke: #323034; stroke-width: 0.8"/>
      </g>
     </g>
    </g>
    <g id="xtick_17">
     <g id="line2d_25">
      <g>
       <use xlink:href="#m5ffe0a5c05" x="129.61" y="253.457833" style="fill: #323034; stroke: #323034; stroke-width: 0.8"/>
      </g>
     </g>
    </g>
    <g id="xtick_18">
     <g id="line2d_26">
      <g>
       <use xlink:href="#m5ffe0a5c05" x="151.782549" y="253.457833" style="fill: #323034; stroke: #323034; stroke-width: 0.8"/>
      </g>
     </g>
    </g>
    <g id="xtick_19">
     <g id="line2d_27">
      <g>
       <use xlink:href="#m5ffe0a5c05" x="174.694183" y="253.457833" style="fill: #323034; stroke: #323034; stroke-width: 0.8"/>
      </g>
     </g>
    </g>
    <g id="xtick_20">
     <g id="line2d_28">
      <g>
       <use xlink:href="#m5ffe0a5c05" x="196.866732" y="253.457833" style="fill: #323034; stroke: #323034; stroke-width: 0.8"/>
      </g>
     </g>
    </g>
    <g id="xtick_21">
     <g id="line2d_29">
      <g>
       <use xlink:href="#m5ffe0a5c05" x="219.778366" y="253.457833" style="fill: #323034; stroke: #323034; stroke-width: 0.8"/>
      </g>
     </g>
    </g>
    <g id="xtick_22">
     <g id="line2d_30">
      <g>
       <use xlink:href="#m5ffe0a5c05" x="242.69" y="253.457833" style="fill: #323034; stroke: #323034; stroke-width: 0.8"/>
      </g>
     </g>
    </g>
   </g>
   <g id="matplotlib.axis_4">
    <g id="ytick_5">
     <g id="line2d_31">
      <g>
       <use xlink:href="#m7566a9a10c" x="242.69" y="253.457833" style="fill: #323034; stroke: #323034; stroke-width: 0.8"/>
      </g>
     </g>
     <g id="text_6">
      <!-- $\mathdefault{−0.2}$ -->
      <g style="fill: #323034" transform="translate(249.69 257.555646)scale(0.12 -0.12)">
       <defs>
        <path id="STIXGeneral-Regular-2212" d="M 3974 1408 
L 410 1408 
L 410 1830 
L 3974 1830 
L 3974 1408 
z
" transform="scale(0.015625)"/>
        <path id="STIXGeneral-Regular-2e" d="M 1158 275 
Q 1158 134 1052 32 
Q 947 -70 800 -70 
Q 653 -70 550 32 
Q 448 134 448 281 
Q 448 429 553 534 
Q 659 640 806 640 
Q 947 640 1052 531 
Q 1158 422 1158 275 
z
" transform="scale(0.015625)"/>
       </defs>
       <use xlink:href="#STIXGeneral-Regular-2212" transform="translate(0 0.40625)"/>
       <use xlink:href="#STIXGeneral-Regular-30" transform="translate(68.499985 0.40625)"/>
       <use xlink:href="#STIXGeneral-Regular-2e" transform="translate(118.499969 0.40625)"/>
       <use xlink:href="#STIXGeneral-Regular-32" transform="translate(143.499954 0.40625)"/>
      </g>
     </g>
    </g>
    <g id="ytick_6">
     <g id="line2d_32">
      <g>
       <use xlink:href="#m7566a9a10c" x="242.69" y="211.04275" style="fill: #323034; stroke: #323034; stroke-width: 0.8"/>
      </g>
     </g>
     <g id="text_7">
      <!-- $\mathdefault{0.0}$ -->
      <g style="fill: #323034" transform="translate(249.69 215.140562)scale(0.12 -0.12)">
       <use xlink:href="#STIXGeneral-Regular-30" transform="translate(0 0.40625)"/>
       <use xlink:href="#STIXGeneral-Regular-2e" transform="translate(49.999985 0.40625)"/>
       <use xlink:href="#STIXGeneral-Regular-30" transform="translate(74.999969 0.40625)"/>
      </g>
     </g>
    </g>
    <g id="ytick_7">
     <g id="line2d_33">
      <g>
       <use xlink:href="#m7566a9a10c" x="242.69" y="168.627667" style="fill: #323034; stroke: #323034; stroke-width: 0.8"/>
      </g>
     </g>
     <g id="text_8">
      <!-- $\mathdefault{0.2}$ -->
      <g style="fill: #323034" transform="translate(249.69 172.725479)scale(0.12 -0.12)">
       <use xlink:href="#STIXGeneral-Regular-30" transform="translate(0 0.40625)"/>
       <use xlink:href="#STIXGeneral-Regular-2e" transform="translate(49.999985 0.40625)"/>
       <use xlink:href="#STIXGeneral-Regular-32" transform="translate(74.999969 0.40625)"/>
      </g>
     </g>
    </g>
    <g id="ytick_8">
     <g id="line2d_34">
      <g>
       <use xlink:href="#m10da4fdc93" x="242.69" y="232.250292" style="fill: #323034; stroke: #323034; stroke-width: 0.6"/>
      </g>
     </g>
    </g>
    <g id="ytick_9">
     <g id="line2d_35">
      <g>
       <use xlink:href="#m10da4fdc93" x="242.69" y="189.835208" style="fill: #323034; stroke: #323034; stroke-width: 0.6"/>
      </g>
     </g>
    </g>
   </g>
   <g id="line2d_36">
    <path d="M 16.53 207.855989 
L 17.269085 194.323683 
L 18.00817 183.421005 
L 18.747255 204.257749 
L 19.48634 244.050138 
L 20.225425 225.274887 
L 20.96451 218.111736 
L 21.703595 207.856423 
L 22.44268 194.323675 
L 23.181765 183.423075 
L 23.92085 204.258209 
L 24.659935 244.049869 
L 25.39902 225.277853 
L 26.138105 218.113556 
L 26.87719 207.856027 
L 27.616275 194.32369 
L 28.355359 183.424239 
L 29.094444 204.258992 
L 29.833529 244.048705 
L 30.572614 225.277324 
L 31.311699 218.115449 
L 32.050784 207.855527 
L 32.789869 194.321304 
L 33.528954 183.422097 
L 34.268039 204.257073 
L 35.007124 244.049062 
L 35.746209 225.282591 
L 36.485294 218.118052 
L 37.224379 207.856437 
L 37.963464 194.320212 
L 38.702549 183.420008 
L 39.441634 204.256679 
L 40.180719 244.047344 
L 40.919804 225.287159 
L 41.658889 218.1198 
L 42.397974 207.85764 
L 43.137059 194.318874 
L 43.876144 183.42073 
L 44.615229 204.257074 
L 45.354314 244.04767 
L 46.093399 225.292043 
L 46.832484 218.118086 
L 47.571569 207.858416 
L 48.310654 194.315163 
L 49.049739 183.419896 
L 49.788824 204.25646 
L 50.527908 244.04776 
L 51.266993 225.290845 
L 52.006078 218.118765 
L 52.745163 207.857655 
L 53.484248 194.313577 
L 54.223333 183.421585 
L 54.962418 204.256658 
L 55.701503 244.045974 
L 56.440588 225.292548 
L 57.179673 218.120594 
L 57.918758 207.859753 
L 58.657843 194.312022 
L 59.396928 183.419644 
L 60.136013 204.254225 
L 60.875098 244.043074 
L 61.614183 225.291398 
L 62.353268 218.121757 
L 63.092353 207.862337 
L 63.831438 194.313209 
L 64.570523 183.415292 
L 65.309608 204.254673 
L 66.048693 244.043409 
L 66.787778 225.293956 
L 67.526863 218.123262 
L 68.265948 207.859993 
L 69.005033 194.312752 
L 69.744118 183.414055 
L 70.483203 204.251951 
L 71.222288 244.04382 
L 71.961373 225.295091 
L 72.700458 218.120178 
L 73.439542 207.858629 
L 74.178627 194.311555 
L 74.917712 183.412631 
L 75.656797 204.248453 
L 76.395882 244.042207 
L 77.134967 225.293363 
L 77.874052 218.117351 
L 78.613137 207.857387 
L 79.352222 194.310512 
L 80.091307 183.411619 
L 80.830392 204.248015 
L 81.569477 244.040117 
L 82.308562 225.294768 
L 83.047647 218.115347 
L 83.786732 207.857319 
L 84.525817 194.310387 
L 85.264902 183.412853 
L 86.003987 204.250299 
L 86.743072 244.040572 
L 87.482157 225.296434 
L 88.221242 218.114866 
L 88.960327 207.856683 
L 89.699412 194.311871 
L 90.438497 183.412694 
L 91.177582 204.251213 
L 91.916667 244.038772 
L 92.655752 225.296526 
L 93.394837 218.11494 
L 94.133922 207.857532 
L 94.873007 194.312194 
L 95.612092 183.415978 
L 96.351176 204.254333 
L 97.090261 244.037132 
L 97.829346 225.298687 
L 98.568431 218.11552 
L 99.307516 207.857863 
L 100.046601 194.314019 
L 100.785686 183.417425 
L 101.524771 204.255409 
L 102.263856 244.03843 
L 103.002941 225.29965 
L 103.742026 218.11558 
L 104.481111 207.857847 
L 105.220196 194.314811 
L 105.959281 183.419054 
L 106.698366 204.258513 
L 107.437451 244.038655 
L 108.176536 225.303034 
L 108.915621 218.115622 
L 109.654706 207.858647 
L 110.393791 194.314992 
L 111.132876 183.418731 
L 111.871961 204.25818 
L 112.611046 244.037038 
L 113.350131 225.304367 
L 114.089216 218.114344 
L 114.828301 207.858386 
L 115.567386 194.316142 
L 116.306471 183.418318 
L 117.045556 204.259056 
L 117.784641 244.037345 
L 118.523725 225.308707 
L 119.26281 218.114352 
L 120.001895 207.859183 
L 120.74098 194.316171 
L 121.480065 183.41771 
L 122.21915 204.25805 
L 122.958235 244.039469 
L 123.69732 225.306745 
L 124.436405 218.114204 
L 125.17549 207.856701 
L 125.914575 194.31564 
L 126.65366 183.417819 
L 127.392745 204.256713 
L 128.13183 244.040624 
L 128.870915 225.307249 
L 129.61 218.110986 
L 130.349085 207.862155 
L 131.08817 194.3124 
L 131.827255 183.414263 
L 132.56634 204.256829 
L 133.305425 244.043911 
L 134.04451 225.314687 
L 134.783595 218.112828 
L 135.52268 207.860793 
L 136.261765 194.30964 
L 137.00085 183.408551 
L 137.739935 204.255243 
L 138.47902 244.042216 
L 139.218105 225.313313 
L 139.95719 218.111386 
L 140.696275 207.860942 
L 141.435359 194.308064 
L 142.174444 183.40714 
L 142.913529 204.25574 
L 143.652614 244.041606 
L 144.391699 225.306146 
L 145.130784 218.116302 
L 145.869869 207.86293 
L 146.608954 194.308979 
L 147.348039 183.404881 
L 148.087124 204.257679 
L 148.826209 244.041788 
L 149.565294 225.308213 
L 150.304379 218.114988 
L 151.043464 207.864056 
L 151.782549 194.308973 
L 152.521634 183.402961 
L 153.260719 204.256963 
L 153.999804 244.044081 
L 154.738889 225.299266 
L 155.477974 218.118611 
L 156.217059 207.863004 
L 156.956144 194.308652 
L 157.695229 183.40319 
L 158.434314 204.258104 
L 159.173399 244.044056 
L 159.912484 225.299885 
L 160.651569 218.11727 
L 161.390654 207.861438 
L 162.129739 194.307498 
L 162.868824 183.402329 
L 163.607908 204.262029 
L 164.346993 244.044774 
L 165.086078 225.295776 
L 165.825163 218.117484 
L 166.564248 207.861712 
L 167.303333 194.306036 
L 168.042418 183.400223 
L 168.781503 204.260862 
L 169.520588 244.04642 
L 170.259673 225.294363 
L 170.998758 218.117912 
L 171.737843 207.861442 
L 172.476928 194.305554 
L 173.216013 183.399474 
L 173.955098 204.262478 
L 174.694183 244.046586 
L 175.433268 225.29178 
L 176.172353 218.11798 
L 176.911438 207.859737 
L 177.650523 194.304023 
L 178.389608 183.398377 
L 179.128693 204.26155 
L 179.867778 244.046956 
L 180.606863 225.289664 
L 181.345948 218.116734 
L 182.085033 207.860371 
L 182.824118 194.303694 
L 183.563203 183.397892 
L 184.302288 204.262815 
L 185.041373 244.047992 
L 185.780458 225.288499 
L 186.519542 218.118187 
L 187.258627 207.861684 
L 187.997712 194.304765 
L 188.736797 183.399064 
L 189.475882 204.265171 
L 190.214967 244.050248 
L 190.954052 225.287053 
L 191.693137 218.118764 
L 192.432222 207.863253 
L 193.171307 194.31951 
L 193.910392 183.394375 
L 194.649477 204.266874 
L 195.388562 244.049622 
L 196.127647 225.284199 
L 196.866732 218.115912 
L 197.605817 207.860941 
L 198.344902 194.318125 
L 199.083987 183.393733 
L 199.823072 204.26731 
L 200.562157 244.050121 
L 201.301242 225.283078 
L 202.040327 218.114848 
L 202.779412 207.861784 
L 203.518497 194.319908 
L 204.257582 183.391616 
L 204.996667 204.270787 
L 205.735752 244.051116 
L 206.474837 225.284022 
L 207.213922 218.11617 
L 207.953007 207.859865 
L 208.692092 194.321009 
L 209.431176 183.392459 
L 210.170261 204.274939 
L 210.909346 244.051331 
L 211.648431 225.283694 
L 212.387516 218.11676 
L 213.126601 207.858724 
L 213.865686 194.325247 
L 214.604771 183.409976 
L 215.343856 204.266616 
L 216.082941 244.04946 
L 216.822026 225.27952 
L 217.561111 218.11347 
L 218.300196 207.854937 
L 219.039281 194.324192 
L 219.778366 183.420154 
L 220.517451 204.255962 
L 221.256536 244.046944 
L 221.995621 225.275374 
L 222.734706 218.113496 
L 223.473791 207.854529 
L 224.212876 194.323744 
L 224.951961 183.41987 
L 225.691046 204.257876 
L 226.430131 244.048506 
L 227.169216 225.276733 
L 227.908301 218.114946 
L 228.647386 207.856699 
L 229.386471 194.325622 
L 230.125556 183.422141 
L 230.864641 204.26079 
L 231.603725 244.049855 
L 232.34281 225.283259 
L 233.081895 218.11328 
L 233.82098 207.856554 
L 234.560065 194.326006 
L 235.29915 183.423016 
L 236.038235 204.261676 
L 236.77732 244.051513 
L 237.516405 225.281692 
L 238.25549 218.113472 
L 238.994575 207.856585 
L 239.73366 194.325604 
L 240.472745 183.423678 
L 241.21183 204.263991 
L 241.950915 244.051891 
L 242.69 225.27861 
L 242.69 225.27861 
" clip-path="url(#pf121085877)" style="fill: none; stroke: #0000ff; stroke-opacity: 0.3; stroke-width: 2; stroke-linecap: square"/>
   </g>
   <g id="patch_7">
    <path d="M 242.69 253.457833 
L 242.69 168.627667 
" style="fill: none; stroke: #000000; stroke-width: 0.6; stroke-linejoin: miter; stroke-linecap: square"/>
   </g>
   <g id="patch_8">
    <path d="M 16.53 253.457833 
L 242.69 253.457833 
" style="fill: none; stroke: #000000; stroke-width: 0.6; stroke-linejoin: miter; stroke-linecap: square"/>
   </g>
   <g id="legend_2">
    <g id="patch_9">
     <path d="M 172.138438 186.797979 
L 235.69 186.797979 
Q 237.69 186.797979 237.69 184.797979 
L 237.69 175.627667 
Q 237.69 173.627667 235.69 173.627667 
L 172.138438 173.627667 
Q 170.138438 173.627667 170.138438 175.627667 
L 170.138438 184.797979 
Q 170.138438 186.797979 172.138438 186.797979 
z
" style="fill: #ffffff; opacity: 0.8; stroke: #e6e6e6; stroke-width: 0.8; stroke-linejoin: miter"/>
    </g>
    <g id="line2d_37">
     <path d="M 172.138438 179.127667 
L 182.138438 179.127667 
L 192.138438 179.127667 
" style="fill: none; stroke: #0000ff; stroke-opacity: 0.3; stroke-width: 2; stroke-linecap: square"/>
    </g>
    <g id="text_9">
     <!-- Seasonal -->
     <g style="fill: #323034" transform="translate(200.138438 182.627667)scale(0.1 -0.1)">
      <defs>
       <path id="STIXGeneral-Regular-53" d="M 3002 2963 
L 2842 2963 
Q 2733 3360 2579 3565 
Q 2189 4064 1651 4064 
Q 1357 4064 1181 3894 
Q 1005 3725 1005 3456 
Q 1005 3328 1069 3206 
Q 1133 3085 1206 2998 
Q 1280 2912 1465 2784 
Q 1651 2656 1766 2589 
Q 1882 2522 2150 2362 
Q 2669 2061 2905 1763 
Q 3142 1466 3142 1107 
Q 3142 576 2771 243 
Q 2400 -90 1837 -90 
Q 1421 -90 1082 58 
Q 915 128 781 128 
Q 704 128 653 70 
Q 602 13 602 -83 
L 461 -83 
L 275 1274 
L 416 1274 
Q 845 141 1734 141 
Q 2074 141 2285 342 
Q 2496 544 2496 858 
Q 2496 1158 2310 1363 
Q 2003 1696 1235 2106 
Q 454 2522 454 3206 
Q 454 3718 768 4022 
Q 1082 4326 1568 4326 
Q 1907 4326 2240 4186 
Q 2413 4109 2522 4109 
Q 2688 4109 2726 4326 
L 2861 4326 
L 3002 2963 
z
" transform="scale(0.015625)"/>
      </defs>
      <use xlink:href="#STIXGeneral-Regular-53"/>
      <use xlink:href="#STIXGeneral-Regular-65" x="55.599991"/>
      <use xlink:href="#STIXGeneral-Regular-61" x="99.999985"/>
      <use xlink:href="#STIXGeneral-Regular-73" x="144.399979"/>
      <use xlink:href="#STIXGeneral-Regular-6f" x="183.299973"/>
      <use xlink:href="#STIXGeneral-Regular-6e" x="233.299957"/>
      <use xlink:href="#STIXGeneral-Regular-61" x="283.299942"/>
      <use xlink:href="#STIXGeneral-Regular-6c" x="327.699936"/>
     </g>
    </g>
   </g>
  </g>
  <g id="axes_3">
   <g id="patch_10">
    <path d="M 16.53 360.6155 
L 242.69 360.6155 
L 242.69 275.785333 
L 16.53 275.785333 
z
" style="fill: #ffffff"/>
   </g>
   <g id="matplotlib.axis_5">
    <g id="xtick_23">
     <g id="line2d_38">
      <g>
       <use xlink:href="#m5ffe0a5c05" x="16.53" y="360.6155" style="fill: #323034; stroke: #323034; stroke-width: 0.8"/>
      </g>
     </g>
     <g id="text_10">
      <!-- Apr -->
      <g style="fill: #323034" transform="translate(7.2 375.811125)scale(0.12 -0.12)">
       <defs>
        <path id="STIXGeneral-Regular-41" d="M 4525 0 
L 2893 0 
L 2893 122 
Q 3149 122 3245 179 
Q 3334 224 3334 333 
Q 3334 499 3213 781 
L 2950 1382 
L 1274 1382 
L 979 653 
Q 922 506 922 384 
Q 922 237 1027 179 
Q 1133 122 1370 122 
L 1370 0 
L 96 0 
L 96 122 
Q 365 147 486 316 
Q 608 486 902 1190 
L 2221 4314 
L 2349 4314 
L 3923 710 
Q 4064 378 4176 262 
Q 4288 147 4525 122 
L 4525 0 
z
M 2861 1645 
L 2118 3405 
L 1382 1645 
L 2861 1645 
z
" transform="scale(0.015625)"/>
        <path id="STIXGeneral-Regular-70" d="M 1018 2931 
L 1018 2438 
Q 1421 2944 1939 2944 
Q 2406 2944 2707 2560 
Q 3008 2176 3008 1581 
Q 3008 883 2621 409 
Q 2234 -64 1664 -64 
Q 1466 -64 1328 -6 
Q 1190 51 1018 211 
L 1018 -794 
Q 1018 -1094 1120 -1180 
Q 1222 -1267 1581 -1274 
L 1581 -1389 
L 32 -1389 
L 32 -1280 
Q 314 -1254 397 -1171 
Q 480 -1088 480 -838 
L 480 2157 
Q 480 2381 429 2451 
Q 378 2522 218 2522 
Q 115 2522 58 2515 
L 58 2618 
Q 506 2752 979 2944 
L 1018 2931 
z
M 1018 2138 
L 1018 563 
Q 1018 422 1238 281 
Q 1459 141 1683 141 
Q 2029 141 2243 467 
Q 2458 794 2458 1325 
Q 2458 1888 2243 2224 
Q 2029 2560 1670 2560 
Q 1446 2560 1232 2419 
Q 1018 2278 1018 2138 
z
" transform="scale(0.015625)"/>
       </defs>
       <use xlink:href="#STIXGeneral-Regular-41"/>
       <use xlink:href="#STIXGeneral-Regular-70" x="72.199982"/>
       <use xlink:href="#STIXGeneral-Regular-72" x="122.199966"/>
      </g>
     </g>
    </g>
    <g id="xtick_24">
     <g id="line2d_39">
      <g>
       <use xlink:href="#m5ffe0a5c05" x="38.702549" y="360.6155" style="fill: #323034; stroke: #323034; stroke-width: 0.8"/>
      </g>
     </g>
     <g id="text_11">
      <!-- May -->
      <g style="fill: #323034" transform="translate(27.703799 375.799875)scale(0.12 -0.12)">
       <defs>
        <path id="STIXGeneral-Regular-4d" d="M 5530 0 
L 3738 0 
L 3738 122 
Q 4115 147 4214 265 
Q 4314 384 4314 787 
L 4314 3661 
L 2682 0 
L 2592 0 
L 979 3514 
L 979 966 
Q 979 448 1088 294 
Q 1197 141 1574 122 
L 1574 0 
L 77 0 
L 77 122 
Q 358 141 480 205 
Q 602 269 650 432 
Q 698 595 698 966 
L 698 3514 
Q 698 3878 589 3984 
Q 480 4090 90 4115 
L 90 4237 
L 1357 4237 
L 2835 1024 
L 4250 4237 
L 5523 4237 
L 5523 4115 
Q 5178 4109 5072 3993 
Q 4966 3878 4966 3520 
L 4966 717 
Q 4966 378 5072 262 
Q 5178 147 5530 122 
L 5530 0 
z
" transform="scale(0.015625)"/>
        <path id="STIXGeneral-Regular-79" d="M 3040 2880 
L 3040 2784 
Q 2925 2771 2854 2700 
Q 2784 2630 2720 2458 
L 1760 -160 
Q 1510 -838 1257 -1116 
Q 1005 -1395 640 -1395 
Q 435 -1395 313 -1289 
Q 192 -1184 192 -1024 
Q 192 -902 272 -816 
Q 352 -730 467 -730 
Q 653 -730 800 -813 
Q 883 -858 966 -858 
Q 1101 -858 1286 -576 
Q 1376 -448 1459 -211 
Q 1542 26 1542 115 
Q 1542 198 1274 762 
L 429 2566 
Q 346 2752 90 2790 
L 90 2880 
L 1402 2880 
L 1402 2784 
Q 1197 2778 1117 2739 
Q 1037 2701 1037 2611 
Q 1037 2541 1120 2349 
L 1837 749 
L 2458 2515 
Q 2483 2573 2483 2630 
Q 2483 2784 2189 2784 
L 2189 2880 
L 3040 2880 
z
" transform="scale(0.015625)"/>
       </defs>
       <use xlink:href="#STIXGeneral-Regular-4d"/>
       <use xlink:href="#STIXGeneral-Regular-61" x="88.899994"/>
       <use xlink:href="#STIXGeneral-Regular-79" x="133.299988"/>
      </g>
     </g>
    </g>
    <g id="xtick_25">
     <g id="line2d_40">
      <g>
       <use xlink:href="#m5ffe0a5c05" x="61.614183" y="360.6155" style="fill: #323034; stroke: #323034; stroke-width: 0.8"/>
      </g>
     </g>
     <g id="text_12">
      <!-- Jun -->
      <g style="fill: #323034" transform="translate(53.376371 375.811125)scale(0.12 -0.12)">
       <defs>
        <path id="STIXGeneral-Regular-4a" d="M 2266 4237 
L 2266 4115 
Q 1875 4083 1776 3984 
Q 1677 3885 1677 3514 
L 1677 1184 
Q 1677 -90 608 -90 
Q 314 -90 138 32 
Q -38 154 -38 371 
Q -38 499 54 601 
Q 147 704 275 704 
Q 486 704 589 435 
Q 602 403 621 348 
Q 640 294 649 265 
Q 659 237 678 208 
Q 698 179 723 166 
Q 749 154 787 154 
Q 928 154 976 253 
Q 1024 352 1024 602 
L 1024 3520 
Q 1024 3898 928 3990 
Q 832 4083 429 4115 
L 429 4237 
L 2266 4237 
z
" transform="scale(0.015625)"/>
        <path id="STIXGeneral-Regular-75" d="M 3072 320 
L 3072 230 
Q 2573 96 2195 -58 
L 2163 -38 
L 2163 486 
L 2150 486 
Q 1747 -64 1235 -64 
Q 870 -64 662 160 
Q 454 384 454 755 
L 454 2362 
Q 454 2598 371 2688 
Q 288 2778 58 2790 
L 58 2880 
L 992 2880 
L 992 813 
Q 992 595 1123 451 
Q 1254 307 1446 307 
Q 1760 307 1984 506 
Q 2067 582 2099 649 
Q 2131 717 2131 877 
L 2131 2355 
Q 2131 2605 2041 2678 
Q 1952 2752 1658 2771 
L 1658 2880 
L 2669 2880 
L 2669 685 
Q 2669 461 2742 390 
Q 2816 320 3034 320 
L 3072 320 
z
" transform="scale(0.015625)"/>
       </defs>
       <use xlink:href="#STIXGeneral-Regular-4a"/>
       <use xlink:href="#STIXGeneral-Regular-75" x="37.299988"/>
       <use xlink:href="#STIXGeneral-Regular-6e" x="87.299973"/>
      </g>
     </g>
    </g>
    <g id="xtick_26">
     <g id="line2d_41">
      <g>
       <use xlink:href="#m5ffe0a5c05" x="83.786732" y="360.6155" style="fill: #323034; stroke: #323034; stroke-width: 0.8"/>
      </g>
     </g>
     <g id="text_13">
      <!-- Jul -->
      <g style="fill: #323034" transform="translate(76.881107 375.811125)scale(0.12 -0.12)">
       <use xlink:href="#STIXGeneral-Regular-4a"/>
       <use xlink:href="#STIXGeneral-Regular-75" x="37.299988"/>
       <use xlink:href="#STIXGeneral-Regular-6c" x="87.299973"/>
      </g>
     </g>
    </g>
    <g id="xtick_27">
     <g id="line2d_42">
      <g>
       <use xlink:href="#m5ffe0a5c05" x="106.698366" y="360.6155" style="fill: #323034; stroke: #323034; stroke-width: 0.8"/>
      </g>
     </g>
     <g id="text_14">
      <!-- Aug -->
      <g style="fill: #323034" transform="translate(96.366179 375.799875)scale(0.12 -0.12)">
       <use xlink:href="#STIXGeneral-Regular-41"/>
       <use xlink:href="#STIXGeneral-Regular-75" x="72.199982"/>
       <use xlink:href="#STIXGeneral-Regular-67" x="122.199966"/>
      </g>
     </g>
    </g>
    <g id="xtick_28">
     <g id="line2d_43">
      <g>
       <use xlink:href="#m5ffe0a5c05" x="129.61" y="360.6155" style="fill: #323034; stroke: #323034; stroke-width: 0.8"/>
      </g>
     </g>
     <g id="text_15">
      <!-- Sep -->
      <g style="fill: #323034" transform="translate(120.61 375.811125)scale(0.12 -0.12)">
       <use xlink:href="#STIXGeneral-Regular-53"/>
       <use xlink:href="#STIXGeneral-Regular-65" x="55.599991"/>
       <use xlink:href="#STIXGeneral-Regular-70" x="99.999985"/>
      </g>
     </g>
    </g>
    <g id="xtick_29">
     <g id="line2d_44">
      <g>
       <use xlink:href="#m5ffe0a5c05" x="151.782549" y="360.6155" style="fill: #323034; stroke: #323034; stroke-width: 0.8"/>
      </g>
     </g>
     <g id="text_16">
      <!-- Oct -->
      <g style="fill: #323034" transform="translate(143.118174 375.811125)scale(0.12 -0.12)">
       <defs>
        <path id="STIXGeneral-Regular-74" d="M 1702 493 
L 1786 422 
Q 1478 -64 1011 -64 
Q 448 -64 448 749 
L 448 2675 
L 109 2675 
Q 83 2694 83 2720 
Q 83 2771 192 2842 
Q 435 2982 813 3526 
Q 826 3546 874 3606 
Q 922 3667 941 3706 
Q 986 3706 986 3622 
L 986 2880 
L 1632 2880 
L 1632 2675 
L 986 2675 
L 986 845 
Q 986 538 1062 403 
Q 1139 269 1318 269 
Q 1510 269 1702 493 
z
" transform="scale(0.015625)"/>
       </defs>
       <use xlink:href="#STIXGeneral-Regular-4f"/>
       <use xlink:href="#STIXGeneral-Regular-63" x="72.199982"/>
       <use xlink:href="#STIXGeneral-Regular-74" x="116.599976"/>
      </g>
     </g>
    </g>
    <g id="xtick_30">
     <g id="line2d_45">
      <g>
       <use xlink:href="#m5ffe0a5c05" x="174.694183" y="360.6155" style="fill: #323034; stroke: #323034; stroke-width: 0.8"/>
      </g>
     </g>
     <g id="text_17">
      <!-- Nov -->
      <g style="fill: #323034" transform="translate(164.361996 375.811125)scale(0.12 -0.12)">
       <defs>
        <path id="STIXGeneral-Regular-4e" d="M 4525 4237 
L 4525 4115 
Q 4198 4083 4102 4000 
Q 4000 3910 3958 3756 
Q 3917 3603 3917 3245 
L 3917 -70 
L 3802 -70 
L 979 3443 
L 979 960 
Q 979 474 1088 323 
Q 1197 173 1574 122 
L 1574 0 
L 77 0 
L 77 122 
Q 474 166 586 310 
Q 698 454 698 960 
L 698 3776 
Q 531 3981 416 4048 
Q 301 4115 77 4115 
L 77 4237 
L 1165 4237 
L 3635 1146 
L 3635 3322 
Q 3635 3808 3514 3949 
Q 3437 4032 3344 4061 
Q 3251 4090 3008 4115 
L 3008 4237 
L 4525 4237 
z
" transform="scale(0.015625)"/>
        <path id="STIXGeneral-Regular-76" d="M 3053 2880 
L 3053 2784 
Q 2906 2771 2835 2688 
Q 2765 2605 2637 2285 
L 1818 230 
Q 1690 -90 1638 -90 
Q 1587 -90 1523 77 
Q 1510 96 1497 141 
Q 1485 186 1472 211 
L 704 2048 
Q 499 2534 403 2652 
Q 307 2771 122 2784 
L 122 2880 
L 1376 2880 
L 1376 2784 
Q 1210 2771 1146 2732 
Q 1082 2694 1082 2611 
Q 1082 2509 1139 2368 
L 1792 730 
L 2426 2387 
Q 2464 2483 2464 2579 
Q 2464 2758 2163 2784 
L 2163 2880 
L 3053 2880 
z
" transform="scale(0.015625)"/>
       </defs>
       <use xlink:href="#STIXGeneral-Regular-4e"/>
       <use xlink:href="#STIXGeneral-Regular-6f" x="72.199982"/>
       <use xlink:href="#STIXGeneral-Regular-76" x="122.199966"/>
      </g>
     </g>
    </g>
    <g id="xtick_31">
     <g id="line2d_46">
      <g>
       <use xlink:href="#m5ffe0a5c05" x="196.866732" y="360.6155" style="fill: #323034; stroke: #323034; stroke-width: 0.8"/>
      </g>
     </g>
     <g id="text_18">
      <!-- Dec -->
      <g style="fill: #323034" transform="translate(187.205795 375.811125)scale(0.12 -0.12)">
       <defs>
        <path id="STIXGeneral-Regular-44" d="M 102 4237 
L 1830 4237 
Q 3078 4237 3750 3654 
Q 4384 3110 4384 2138 
Q 4384 966 3514 410 
Q 2880 0 1901 0 
L 102 0 
L 102 122 
Q 474 147 570 252 
Q 666 358 666 736 
L 666 3520 
Q 666 3891 570 3990 
Q 474 4090 102 4115 
L 102 4237 
z
M 1318 3731 
L 1318 538 
Q 1318 365 1379 301 
Q 1440 237 1626 237 
Q 2125 237 2432 307 
Q 2739 378 3021 570 
Q 3686 1018 3686 2099 
Q 3686 3027 3078 3558 
Q 2803 3802 2476 3901 
Q 2150 4000 1658 4000 
Q 1472 4000 1395 3942 
Q 1318 3885 1318 3731 
z
" transform="scale(0.015625)"/>
       </defs>
       <use xlink:href="#STIXGeneral-Regular-44"/>
       <use xlink:href="#STIXGeneral-Regular-65" x="72.199982"/>
       <use xlink:href="#STIXGeneral-Regular-63" x="116.599976"/>
      </g>
     </g>
    </g>
    <g id="xtick_32">
     <g id="line2d_47">
      <g>
       <use xlink:href="#m5ffe0a5c05" x="219.778366" y="360.6155" style="fill: #323034; stroke: #323034; stroke-width: 0.8"/>
      </g>
     </g>
     <g id="text_19">
      <!-- Jan -->
      <g style="fill: #323034" transform="translate(211.876179 375.811125)scale(0.12 -0.12)">
       <use xlink:href="#STIXGeneral-Regular-4a"/>
       <use xlink:href="#STIXGeneral-Regular-61" x="37.299988"/>
       <use xlink:href="#STIXGeneral-Regular-6e" x="81.699982"/>
      </g>
      <!-- 2021 -->
      <g style="fill: #323034" transform="translate(207.778366 388.25025)scale(0.12 -0.12)">
       <use xlink:href="#STIXGeneral-Regular-32"/>
       <use xlink:href="#STIXGeneral-Regular-30" x="49.999985"/>
       <use xlink:href="#STIXGeneral-Regular-32" x="99.999969"/>
       <use xlink:href="#STIXGeneral-Regular-31" x="149.999954"/>
      </g>
     </g>
    </g>
    <g id="xtick_33">
     <g id="line2d_48">
      <g>
       <use xlink:href="#m5ffe0a5c05" x="242.69" y="360.6155" style="fill: #323034; stroke: #323034; stroke-width: 0.8"/>
      </g>
     </g>
     <g id="text_20">
      <!-- Feb -->
      <g style="fill: #323034" transform="translate(233.69 375.811125)scale(0.12 -0.12)">
       <defs>
        <path id="STIXGeneral-Regular-46" d="M 3494 3322 
L 3334 3322 
Q 3264 3757 3094 3875 
Q 2925 3994 2349 3994 
L 1504 3994 
Q 1370 3994 1328 3946 
Q 1286 3898 1286 3744 
L 1286 2355 
L 2195 2355 
Q 2598 2355 2736 2470 
Q 2874 2586 2918 2963 
L 3066 2963 
L 3066 1472 
L 2918 1472 
Q 2880 1862 2745 1977 
Q 2611 2093 2195 2093 
L 1286 2093 
L 1286 717 
Q 1286 352 1392 246 
Q 1498 141 1869 122 
L 1869 0 
L 70 0 
L 70 122 
Q 435 147 534 259 
Q 634 371 634 787 
L 634 3526 
Q 634 3878 538 3984 
Q 442 4090 77 4115 
L 77 4237 
L 3462 4237 
L 3494 3322 
z
" transform="scale(0.015625)"/>
        <path id="STIXGeneral-Regular-62" d="M 979 4358 
L 979 2406 
Q 1082 2650 1315 2797 
Q 1549 2944 1843 2944 
Q 2349 2944 2672 2541 
Q 2995 2138 2995 1536 
Q 2995 832 2566 384 
Q 2138 -64 1498 -64 
Q 1107 -64 774 67 
Q 442 198 442 358 
L 442 3622 
Q 442 3859 384 3926 
Q 326 3994 128 3994 
Q 83 3994 19 3981 
L 19 4090 
L 211 4147 
Q 864 4346 947 4371 
L 979 4358 
z
M 979 2035 
L 979 474 
Q 979 326 1161 233 
Q 1344 141 1600 141 
Q 1978 141 2195 416 
Q 2432 710 2432 1261 
Q 2432 1888 2182 2240 
Q 1971 2541 1613 2541 
Q 1357 2541 1168 2390 
Q 979 2240 979 2035 
z
" transform="scale(0.015625)"/>
       </defs>
       <use xlink:href="#STIXGeneral-Regular-46"/>
       <use xlink:href="#STIXGeneral-Regular-65" x="55.599991"/>
       <use xlink:href="#STIXGeneral-Regular-62" x="99.999985"/>
      </g>
     </g>
    </g>
   </g>
   <g id="matplotlib.axis_6">
    <g id="ytick_10">
     <g id="line2d_49">
      <g>
       <use xlink:href="#m7566a9a10c" x="242.69" y="360.6155" style="fill: #323034; stroke: #323034; stroke-width: 0.8"/>
      </g>
     </g>
     <g id="text_21">
      <!-- $\mathdefault{−1.0}$ -->
      <g style="fill: #323034" transform="translate(249.69 364.713312)scale(0.12 -0.12)">
       <use xlink:href="#STIXGeneral-Regular-2212" transform="translate(0 0.40625)"/>
       <use xlink:href="#STIXGeneral-Regular-31" transform="translate(68.499985 0.40625)"/>
       <use xlink:href="#STIXGeneral-Regular-2e" transform="translate(118.499969 0.40625)"/>
       <use xlink:href="#STIXGeneral-Regular-30" transform="translate(143.499954 0.40625)"/>
      </g>
     </g>
    </g>
    <g id="ytick_11">
     <g id="line2d_50">
      <g>
       <use xlink:href="#m7566a9a10c" x="242.69" y="332.338778" style="fill: #323034; stroke: #323034; stroke-width: 0.8"/>
      </g>
     </g>
     <g id="text_22">
      <!-- $\mathdefault{−0.5}$ -->
      <g style="fill: #323034" transform="translate(249.69 336.43659)scale(0.12 -0.12)">
       <defs>
        <path id="STIXGeneral-Regular-35" d="M 2803 4358 
L 2573 3814 
Q 2534 3731 2400 3731 
L 1158 3731 
L 902 3187 
Q 1606 3053 1920 2896 
Q 2234 2739 2502 2368 
Q 2726 2061 2726 1555 
Q 2726 1094 2576 780 
Q 2426 467 2099 224 
Q 1664 -90 1011 -90 
Q 646 -90 422 19 
Q 198 128 198 307 
Q 198 550 486 550 
Q 717 550 960 352 
Q 1210 147 1414 147 
Q 1747 147 2012 480 
Q 2278 813 2278 1229 
Q 2278 1843 1850 2189 
Q 1293 2637 486 2637 
Q 410 2637 410 2688 
L 416 2720 
L 1114 4237 
L 2438 4237 
Q 2547 4237 2608 4269 
Q 2669 4301 2746 4403 
L 2803 4358 
z
" transform="scale(0.015625)"/>
       </defs>
       <use xlink:href="#STIXGeneral-Regular-2212" transform="translate(0 0.203125)"/>
       <use xlink:href="#STIXGeneral-Regular-30" transform="translate(68.499985 0.203125)"/>
       <use xlink:href="#STIXGeneral-Regular-2e" transform="translate(118.499969 0.203125)"/>
       <use xlink:href="#STIXGeneral-Regular-35" transform="translate(143.499954 0.203125)"/>
      </g>
     </g>
    </g>
    <g id="ytick_12">
     <g id="line2d_51">
      <g>
       <use xlink:href="#m7566a9a10c" x="242.69" y="304.062056" style="fill: #323034; stroke: #323034; stroke-width: 0.8"/>
      </g>
     </g>
     <g id="text_23">
      <!-- $\mathdefault{0.0}$ -->
      <g style="fill: #323034" transform="translate(249.69 308.159868)scale(0.12 -0.12)">
       <use xlink:href="#STIXGeneral-Regular-30" transform="translate(0 0.40625)"/>
       <use xlink:href="#STIXGeneral-Regular-2e" transform="translate(49.999985 0.40625)"/>
       <use xlink:href="#STIXGeneral-Regular-30" transform="translate(74.999969 0.40625)"/>
      </g>
     </g>
    </g>
    <g id="ytick_13">
     <g id="line2d_52">
      <g>
       <use xlink:href="#m7566a9a10c" x="242.69" y="275.785333" style="fill: #323034; stroke: #323034; stroke-width: 0.8"/>
      </g>
     </g>
     <g id="text_24">
      <!-- $\mathdefault{0.5}$ -->
      <g style="fill: #323034" transform="translate(249.69 279.883146)scale(0.12 -0.12)">
       <use xlink:href="#STIXGeneral-Regular-30" transform="translate(0 0.203125)"/>
       <use xlink:href="#STIXGeneral-Regular-2e" transform="translate(49.999985 0.203125)"/>
       <use xlink:href="#STIXGeneral-Regular-35" transform="translate(74.999969 0.203125)"/>
      </g>
     </g>
    </g>
    <g id="ytick_14">
     <g id="line2d_53">
      <g>
       <use xlink:href="#m10da4fdc93" x="242.69" y="346.477139" style="fill: #323034; stroke: #323034; stroke-width: 0.6"/>
      </g>
     </g>
    </g>
    <g id="ytick_15">
     <g id="line2d_54">
      <g>
       <use xlink:href="#m10da4fdc93" x="242.69" y="318.200417" style="fill: #323034; stroke: #323034; stroke-width: 0.6"/>
      </g>
     </g>
    </g>
    <g id="ytick_16">
     <g id="line2d_55">
      <g>
       <use xlink:href="#m10da4fdc93" x="242.69" y="289.923694" style="fill: #323034; stroke: #323034; stroke-width: 0.6"/>
      </g>
     </g>
    </g>
   </g>
   <g id="line2d_56">
    <path d="M 16.53 306.395539 
L 17.269085 304.35826 
L 18.00817 303.178814 
L 18.747255 297.364086 
L 19.48634 304.682028 
L 20.225425 301.294402 
L 20.96451 304.576434 
L 21.703595 304.765843 
L 22.44268 304.048275 
L 23.181765 307.41689 
L 23.92085 304.8078 
L 24.659935 303.625908 
L 25.39902 308.870145 
L 26.138105 307.012236 
L 26.87719 303.420861 
L 27.616275 304.086256 
L 28.355359 305.948273 
L 29.094444 305.33037 
L 29.833529 302.175326 
L 30.572614 303.204659 
L 31.311699 307.130788 
L 32.050784 303.250655 
L 32.789869 300.194485 
L 34.268039 300.952018 
L 35.007124 304.640016 
L 35.746209 312.600457 
L 36.485294 308.282229 
L 37.224379 305.536973 
L 37.963464 302.291287 
L 38.702549 300.676361 
L 39.441634 303.423188 
L 40.180719 301.277315 
L 40.919804 311.467929 
L 41.658889 306.895038 
L 42.397974 306.012607 
L 43.137059 301.894355 
L 43.876144 305.232741 
L 44.615229 304.702362 
L 45.354314 304.591004 
L 46.093399 311.978472 
L 46.832484 301.284194 
L 47.571569 305.320495 
L 48.310654 298.045204 
L 49.049739 302.709289 
L 49.788824 303.066196 
L 50.527908 304.207781 
L 51.266993 302.120192 
L 52.006078 305.161932 
L 52.745163 302.828284 
L 53.484248 301.490516 
L 54.223333 306.801099 
L 54.962418 304.382721 
L 55.701503 301.167116 
L 56.440588 306.823645 
L 57.179673 307.026566 
L 57.918758 307.462295 
L 58.657843 301.542207 
L 59.396928 300.914746 
L 60.875098 299.359765 
L 61.614183 302.196422 
L 62.353268 305.9484 
L 63.092353 308.252481 
L 63.831438 305.985793 
L 64.570523 297.00723 
L 65.309608 304.787815 
L 66.048693 304.606174 
L 66.787778 308.209524 
L 67.526863 306.50131 
L 68.265948 300.261966 
L 69.005033 303.321875 
L 69.744118 302.056373 
L 70.483203 299.649853 
L 71.222288 304.728365 
L 71.961373 305.902791 
L 72.700458 299.06241 
L 73.439542 301.849991 
L 74.178627 302.120673 
L 74.917712 301.753861 
L 75.656797 298.390701 
L 76.395882 301.445944 
L 77.134967 301.260065 
L 77.874052 299.479363 
L 78.613137 302.04972 
L 79.352222 302.371076 
L 80.091307 302.421391 
L 80.830392 303.35253 
L 81.569477 300.673853 
L 82.308562 306.339668 
L 83.047647 300.813787 
L 83.786732 303.950328 
L 84.525817 303.860706 
L 85.264902 306.062782 
L 86.003987 307.764843 
L 86.743072 304.800377 
L 87.482157 306.763561 
L 88.221242 303.282901 
L 88.960327 303.031598 
L 89.699412 306.467992 
L 90.438497 303.803435 
L 91.177582 305.544068 
L 91.916667 301.144262 
L 92.655752 304.210739 
L 93.394837 304.180915 
L 94.133922 305.439289 
L 94.873007 304.5843 
L 95.612092 309.385862 
L 96.351176 309.119623 
L 97.090261 301.403345 
L 97.829346 307.565162 
L 98.568431 305.002227 
L 99.307516 304.598297 
L 100.046601 307.021274 
L 101.524771 305.806391 
L 102.263856 306.165529 
L 103.002941 305.623095 
L 103.742026 304.159591 
L 104.481111 304.036412 
L 105.959281 306.702945 
L 106.698366 309.093209 
L 107.437451 304.427857 
L 108.176536 309.548229 
L 108.915621 304.129762 
L 109.654706 305.358233 
L 111.132876 303.537945 
L 111.871961 303.522649 
L 112.611046 301.440266 
L 113.350131 306.222558 
L 114.089216 301.991054 
L 114.828301 303.639592 
L 115.567386 305.925939 
L 116.306471 303.392274 
L 117.045556 305.482001 
L 117.784641 304.559776 
L 118.523725 311.096944 
L 119.26281 304.074729 
L 120.001895 305.353145 
L 121.480065 303.076129 
L 122.21915 302.431848 
L 122.958235 307.505717 
L 123.69732 300.882331 
L 124.436405 303.821882 
L 125.17549 300.038533 
L 125.914575 303.20091 
L 126.65366 304.240119 
L 127.392745 301.894329 
L 128.13183 305.933676 
L 128.870915 304.879565 
L 129.61 298.845548 
L 130.349085 312.903695 
L 131.08817 298.809274 
L 131.827255 298.296097 
L 134.04451 316.118614 
L 134.783595 307.048205 
L 135.52268 301.854419 
L 136.261765 299.588469 
L 137.00085 294.80357 
L 137.739935 301.49058 
L 138.47902 301.314159 
L 139.218105 301.835227 
L 139.95719 301.724116 
L 140.696275 304.302636 
L 141.435359 301.508084 
L 142.174444 301.773979 
L 142.913529 304.867936 
L 143.652614 303.07409 
L 144.391699 292.442709 
L 145.130784 312.031877 
L 145.869869 307.285229 
L 146.608954 305.545017 
L 147.348039 300.400786 
L 148.087124 307.205485 
L 148.826209 304.356566 
L 149.565294 307.412942 
L 150.304379 301.931831 
L 151.043464 305.886948 
L 151.782549 304.05153 
L 152.521634 300.949461 
L 153.260719 302.901224 
L 153.999804 307.780098 
L 154.738889 289.558275 
L 155.477974 309.93454 
L 156.217059 302.357175 
L 156.956144 303.542722 
L 157.695229 304.433118 
L 158.434314 305.912143 
L 159.173399 304.021286 
L 159.912484 305.066873 
L 160.651569 301.888344 
L 161.390654 301.523638 
L 162.129739 302.190891 
L 162.868824 302.665594 
L 163.607908 310.425322 
L 164.346993 305.225766 
L 165.086078 297.400219 
L 165.825163 304.40926 
L 166.564248 304.505626 
L 167.303333 301.692473 
L 168.042418 300.648562 
L 168.781503 302.169529 
L 169.520588 306.729454 
L 170.259673 301.770708 
L 170.998758 304.755645 
L 171.737843 303.624623 
L 173.216013 302.848318 
L 173.955098 306.681161 
L 174.694183 304.332515 
L 175.433268 299.875402 
L 176.172353 304.172217 
L 176.911438 301.297824 
L 177.650523 301.579172 
L 178.389608 302.282662 
L 179.128693 302.559001 
L 179.867778 304.661079 
L 180.606863 300.631899 
L 181.345948 302.042962 
L 182.085033 305.089827 
L 182.824118 303.529243 
L 183.563203 303.276014 
L 184.302288 306.11241 
L 185.041373 305.742244 
L 185.780458 302.173151 
L 186.519542 306.41783 
L 187.258627 306.191776 
L 187.997712 305.797947 
L 188.736797 305.962901 
L 189.475882 307.88116 
L 190.214967 307.719347 
L 190.954052 301.717739 
L 191.693137 304.997111 
L 192.432222 306.604264 
L 193.171307 327.964666 
L 193.910392 296.460849 
L 194.649477 306.823119 
L 196.127647 299.435373 
L 196.866732 299.438256 
L 197.605817 300.314404 
L 198.344902 301.816966 
L 199.083987 303.019925 
L 199.823072 304.768657 
L 200.562157 304.870347 
L 201.301242 302.245462 
L 202.040327 302.337284 
L 202.779412 305.428847 
L 203.518497 306.952173 
L 204.257582 300.631299 
L 204.996667 309.698372 
L 205.735752 305.675195 
L 206.474837 305.592096 
L 207.213922 306.204687 
L 207.953007 300.951372 
L 208.692092 305.847236 
L 209.431176 305.42784 
L 210.170261 310.792065 
L 210.909346 304.410389 
L 211.648431 303.531061 
L 212.387516 305.019882 
L 213.126601 302.211865 
L 213.865686 310.932057 
L 214.604771 332.459827 
L 215.343856 290.570145 
L 216.082941 301.030496 
L 216.822026 297.294956 
L 217.561111 298.728227 
L 218.300196 297.923791 
L 219.039281 302.35272 
L 219.778366 320.560782 
L 220.517451 286.791071 
L 221.256536 299.982323 
L 221.995621 297.3407 
L 222.734706 304.103859 
L 223.473791 303.401131 
L 224.212876 303.335407 
L 224.951961 303.601673 
L 225.691046 307.164818 
L 226.430131 306.595238 
L 227.169216 306.266256 
L 227.908301 306.412288 
L 228.647386 307.579573 
L 229.386471 307.106643 
L 230.125556 307.742834 
L 230.864641 308.785688 
L 231.603725 306.248455 
L 232.34281 314.640392 
L 233.081895 301.36223 
L 233.82098 303.826069 
L 235.29915 305.481995 
L 236.038235 305.498494 
L 236.77732 306.7495 
L 237.516405 301.522284 
L 238.25549 304.372507 
L 238.994575 304.113328 
L 239.73366 303.410098 
L 240.472745 305.133933 
L 241.21183 307.814871 
L 241.950915 304.674339 
L 242.69 299.065564 
L 242.69 299.065564 
" clip-path="url(#p9ae2af743a)" style="fill: none; stroke: #ff0000; stroke-opacity: 0.4; stroke-width: 2; stroke-linecap: square"/>
   </g>
   <g id="patch_11">
    <path d="M 242.69 360.6155 
L 242.69 275.785333 
" style="fill: none; stroke: #000000; stroke-width: 0.6; stroke-linejoin: miter; stroke-linecap: square"/>
   </g>
   <g id="patch_12">
    <path d="M 16.53 360.6155 
L 242.69 360.6155 
" style="fill: none; stroke: #000000; stroke-width: 0.6; stroke-linejoin: miter; stroke-linecap: square"/>
   </g>
   <g id="legend_3">
    <g id="patch_13">
     <path d="M 23.53 293.955646 
L 72.628438 293.955646 
Q 74.628438 293.955646 74.628438 291.955646 
L 74.628438 282.785333 
Q 74.628438 280.785333 72.628438 280.785333 
L 23.53 280.785333 
Q 21.53 280.785333 21.53 282.785333 
L 21.53 291.955646 
Q 21.53 293.955646 23.53 293.955646 
z
" style="fill: #ffffff; opacity: 0.8; stroke: #e6e6e6; stroke-width: 0.8; stroke-linejoin: miter"/>
    </g>
    <g id="line2d_57">
     <path d="M 23.53 286.285333 
L 33.53 286.285333 
L 43.53 286.285333 
" style="fill: none; stroke: #ff0000; stroke-opacity: 0.4; stroke-width: 2; stroke-linecap: square"/>
    </g>
    <g id="text_25">
     <!-- Error -->
     <g style="fill: #323034" transform="translate(51.53 289.785333)scale(0.1 -0.1)">
      <defs>
       <path id="STIXGeneral-Regular-45" d="M 3821 1082 
L 3526 0 
L 77 0 
L 77 122 
Q 442 147 538 252 
Q 634 358 634 730 
L 634 3520 
Q 634 3878 534 3987 
Q 435 4096 77 4115 
L 77 4237 
L 3469 4237 
L 3494 3322 
L 3334 3322 
Q 3264 3750 3085 3872 
Q 2906 3994 2349 3994 
L 1510 3994 
Q 1370 3994 1328 3952 
Q 1286 3910 1286 3763 
L 1286 2355 
L 2253 2355 
Q 2656 2355 2787 2470 
Q 2918 2586 2976 2970 
L 3123 2970 
L 3123 1472 
L 2976 1472 
Q 2918 1875 2790 1984 
Q 2662 2093 2253 2093 
L 1286 2093 
L 1286 538 
Q 1286 346 1420 291 
Q 1555 237 1933 237 
L 2163 237 
Q 2848 237 3136 403 
Q 3424 570 3642 1082 
L 3821 1082 
z
" transform="scale(0.015625)"/>
      </defs>
      <use xlink:href="#STIXGeneral-Regular-45"/>
      <use xlink:href="#STIXGeneral-Regular-72" x="61.099991"/>
      <use xlink:href="#STIXGeneral-Regular-72" x="94.399979"/>
      <use xlink:href="#STIXGeneral-Regular-6f" x="127.699966"/>
      <use xlink:href="#STIXGeneral-Regular-72" x="177.699951"/>
     </g>
    </g>
   </g>
  </g>
  <g id="text_26">
   <!-- Exponential smoothing -->
   <g style="fill: #323034" transform="translate(56.616563 19.493437)scale(0.18 -0.18)">
    <defs>
     <path id="STIXGeneral-Regular-78" d="M 3066 0 
L 1779 0 
L 1779 96 
Q 1939 109 1987 137 
Q 2035 166 2035 250 
Q 2035 307 1997 365 
L 1414 1261 
L 909 474 
Q 781 275 781 211 
Q 781 96 1037 96 
L 1037 0 
L 109 0 
L 109 96 
Q 269 109 355 169 
Q 442 230 576 422 
L 1306 1478 
L 704 2400 
Q 557 2624 454 2704 
Q 352 2784 211 2784 
L 154 2784 
L 154 2880 
L 1478 2880 
L 1478 2784 
Q 1203 2778 1203 2643 
Q 1203 2509 1498 2074 
Q 1581 1958 1587 1946 
Q 1619 1990 1779 2227 
Q 1811 2285 1856 2349 
Q 1901 2413 1923 2451 
Q 1946 2490 1971 2528 
Q 1997 2566 2006 2595 
Q 2016 2624 2016 2643 
Q 2016 2765 1760 2784 
L 1760 2880 
L 2771 2880 
L 2771 2784 
Q 2445 2771 2253 2502 
L 1722 1734 
L 2541 480 
Q 2790 96 3066 96 
L 3066 0 
z
" transform="scale(0.015625)"/>
     <path id="STIXGeneral-Regular-6d" d="M 4960 0 
L 3565 0 
L 3565 96 
Q 3834 122 3907 208 
Q 3981 294 3981 576 
L 3981 1894 
Q 3981 2278 3869 2444 
Q 3757 2611 3488 2611 
Q 3264 2611 3107 2521 
Q 2950 2432 2803 2221 
L 2803 608 
Q 2803 301 2896 201 
Q 2989 102 3264 96 
L 3264 0 
L 1830 0 
L 1830 96 
Q 2112 115 2189 188 
Q 2266 262 2266 550 
L 2266 1901 
Q 2266 2611 1850 2611 
Q 1670 2611 1468 2531 
Q 1267 2451 1171 2336 
Q 1088 2240 1088 2227 
L 1088 448 
Q 1088 243 1177 176 
Q 1267 109 1523 96 
L 1523 0 
L 102 0 
L 102 96 
Q 371 102 460 195 
Q 550 288 550 563 
L 550 2150 
Q 550 2387 499 2480 
Q 448 2573 326 2573 
Q 230 2573 122 2547 
L 122 2656 
Q 557 2778 1011 2944 
L 1062 2925 
L 1062 2451 
L 1075 2451 
Q 1363 2752 1584 2848 
Q 1805 2944 2054 2944 
Q 2560 2944 2733 2406 
Q 3232 2944 3776 2944 
Q 4518 2944 4518 1792 
L 4518 493 
Q 4518 282 4582 202 
Q 4646 122 4794 109 
L 4960 96 
L 4960 0 
z
" transform="scale(0.015625)"/>
     <path id="STIXGeneral-Regular-68" d="M 3117 0 
L 1760 0 
L 1760 96 
Q 2042 128 2118 224 
Q 2195 320 2195 653 
L 2195 1920 
Q 2195 2598 1722 2598 
Q 1530 2598 1370 2508 
Q 1210 2419 1005 2195 
L 1005 653 
Q 1005 320 1081 224 
Q 1158 128 1440 96 
L 1440 0 
L 58 0 
L 58 96 
Q 333 134 400 224 
Q 467 314 467 653 
L 467 3667 
Q 467 3872 406 3933 
Q 346 3994 141 3994 
Q 83 3994 64 3987 
L 64 4090 
L 237 4141 
Q 730 4288 973 4371 
L 1005 4352 
L 1005 2406 
Q 1229 2694 1446 2819 
Q 1664 2944 1946 2944 
Q 2733 2944 2733 1926 
L 2733 653 
Q 2733 320 2793 233 
Q 2854 147 3117 96 
L 3117 0 
z
" transform="scale(0.015625)"/>
    </defs>
    <use xlink:href="#STIXGeneral-Regular-45"/>
    <use xlink:href="#STIXGeneral-Regular-78" x="61.099991"/>
    <use xlink:href="#STIXGeneral-Regular-70" x="111.099976"/>
    <use xlink:href="#STIXGeneral-Regular-6f" x="161.09996"/>
    <use xlink:href="#STIXGeneral-Regular-6e" x="211.099945"/>
    <use xlink:href="#STIXGeneral-Regular-65" x="261.09993"/>
    <use xlink:href="#STIXGeneral-Regular-6e" x="305.499924"/>
    <use xlink:href="#STIXGeneral-Regular-74" x="355.499908"/>
    <use xlink:href="#STIXGeneral-Regular-69" x="383.299896"/>
    <use xlink:href="#STIXGeneral-Regular-61" x="411.099884"/>
    <use xlink:href="#STIXGeneral-Regular-6c" x="455.499878"/>
    <use xlink:href="#STIXGeneral-Regular-20" x="483.299866"/>
    <use xlink:href="#STIXGeneral-Regular-73" x="508.29985"/>
    <use xlink:href="#STIXGeneral-Regular-6d" x="547.199844"/>
    <use xlink:href="#STIXGeneral-Regular-6f" x="624.999832"/>
    <use xlink:href="#STIXGeneral-Regular-6f" x="674.999817"/>
    <use xlink:href="#STIXGeneral-Regular-74" x="724.999802"/>
    <use xlink:href="#STIXGeneral-Regular-68" x="752.799789"/>
    <use xlink:href="#STIXGeneral-Regular-69" x="802.799774"/>
    <use xlink:href="#STIXGeneral-Regular-6e" x="830.599762"/>
    <use xlink:href="#STIXGeneral-Regular-67" x="880.599747"/>
   </g>
  </g>
 </g>
 <defs>
  <clipPath id="p93db7da619">
   <rect x="16.53" y="61.47" width="226.16" height="84.830167"/>
  </clipPath>
  <clipPath id="pf121085877">
   <rect x="16.53" y="168.627667" width="226.16" height="84.830167"/>
  </clipPath>
  <clipPath id="p9ae2af743a">
   <rect x="16.53" y="275.785333" width="226.16" height="84.830167"/>
  </clipPath>
 </defs>
</svg>
