<?xml version="1.0" encoding="utf-8" standalone="no"?>
<!DOCTYPE svg PUBLIC "-//W3C//DTD SVG 1.1//EN"
  "http://www.w3.org/Graphics/SVG/1.1/DTD/svg11.dtd">
<svg xmlns:xlink="http://www.w3.org/1999/xlink" width="356.788594pt" height="398.061pt" viewBox="0 0 356.788594 398.061" xmlns="http://www.w3.org/2000/svg" version="1.1">
 <metadata>
  <rdf:RDF xmlns:dc="http://purl.org/dc/elements/1.1/" xmlns:cc="http://creativecommons.org/ns#" xmlns:rdf="http://www.w3.org/1999/02/22-rdf-syntax-ns#">
   <cc:Work>
    <dc:type rdf:resource="http://purl.org/dc/dcmitype/StillImage"/>
    <dc:date>2022-10-28T18:27:40.451429</dc:date>
    <dc:format>image/svg+xml</dc:format>
    <dc:creator>
     <cc:Agent>
      <dc:title>Matplotlib v3.5.3, https://matplotlib.org/</dc:title>
     </cc:Agent>
    </dc:creator>
   </cc:Work>
  </rdf:RDF>
 </metadata>
 <defs>
  <style type="text/css">*{stroke-linejoin: round; stroke-linecap: butt}</style>
 </defs>
 <g id="figure_1">
  <g id="patch_1">
   <path d="M 0 398.061 
L 356.788594 398.061 
L 356.788594 0 
L 0 0 
z
" style="fill: #ffffff"/>
  </g>
  <g id="axes_1">
   <g id="patch_2">
    <path d="M 59.774297 153.806833 
L 263.478696 153.806833 
L 263.478696 70.7325 
L 59.774297 70.7325 
z
" style="fill: #ffffff"/>
   </g>
   <g id="matplotlib.axis_1">
    <g id="xtick_1">
     <g id="line2d_1">
      <defs>
       <path id="m0bf81b6c23" d="M 0 0 
L 0 3.5 
" style="stroke: #323034; stroke-width: 0.8"/>
      </defs>
      <g>
       <use xlink:href="#m0bf81b6c23" x="59.774297" y="153.806833" style="fill: #323034; stroke: #323034; stroke-width: 0.8"/>
      </g>
     </g>
    </g>
    <g id="xtick_2">
     <g id="line2d_2">
      <g>
       <use xlink:href="#m0bf81b6c23" x="79.745316" y="153.806833" style="fill: #323034; stroke: #323034; stroke-width: 0.8"/>
      </g>
     </g>
    </g>
    <g id="xtick_3">
     <g id="line2d_3">
      <g>
       <use xlink:href="#m0bf81b6c23" x="100.382037" y="153.806833" style="fill: #323034; stroke: #323034; stroke-width: 0.8"/>
      </g>
     </g>
    </g>
    <g id="xtick_4">
     <g id="line2d_4">
      <g>
       <use xlink:href="#m0bf81b6c23" x="120.353056" y="153.806833" style="fill: #323034; stroke: #323034; stroke-width: 0.8"/>
      </g>
     </g>
    </g>
    <g id="xtick_5">
     <g id="line2d_5">
      <g>
       <use xlink:href="#m0bf81b6c23" x="140.989776" y="153.806833" style="fill: #323034; stroke: #323034; stroke-width: 0.8"/>
      </g>
     </g>
    </g>
    <g id="xtick_6">
     <g id="line2d_6">
      <g>
       <use xlink:href="#m0bf81b6c23" x="161.626497" y="153.806833" style="fill: #323034; stroke: #323034; stroke-width: 0.8"/>
      </g>
     </g>
    </g>
    <g id="xtick_7">
     <g id="line2d_7">
      <g>
       <use xlink:href="#m0bf81b6c23" x="181.597516" y="153.806833" style="fill: #323034; stroke: #323034; stroke-width: 0.8"/>
      </g>
     </g>
    </g>
    <g id="xtick_8">
     <g id="line2d_8">
      <g>
       <use xlink:href="#m0bf81b6c23" x="202.234236" y="153.806833" style="fill: #323034; stroke: #323034; stroke-width: 0.8"/>
      </g>
     </g>
    </g>
    <g id="xtick_9">
     <g id="line2d_9">
      <g>
       <use xlink:href="#m0bf81b6c23" x="222.205256" y="153.806833" style="fill: #323034; stroke: #323034; stroke-width: 0.8"/>
      </g>
     </g>
    </g>
    <g id="xtick_10">
     <g id="line2d_10">
      <g>
       <use xlink:href="#m0bf81b6c23" x="242.841976" y="153.806833" style="fill: #323034; stroke: #323034; stroke-width: 0.8"/>
      </g>
     </g>
    </g>
    <g id="xtick_11">
     <g id="line2d_11">
      <g>
       <use xlink:href="#m0bf81b6c23" x="263.478696" y="153.806833" style="fill: #323034; stroke: #323034; stroke-width: 0.8"/>
      </g>
     </g>
    </g>
   </g>
   <g id="matplotlib.axis_2">
    <g id="ytick_1">
     <g id="line2d_12">
      <defs>
       <path id="ma8c5f72067" d="M 0 0 
L 3.5 0 
" style="stroke: #323034; stroke-width: 0.8"/>
      </defs>
      <g>
       <use xlink:href="#ma8c5f72067" x="263.478696" y="133.03825" style="fill: #323034; stroke: #323034; stroke-width: 0.8"/>
      </g>
     </g>
     <g id="text_1">
      <!-- $\mathdefault{10.0}$ -->
      <g style="fill: #323034" transform="translate(270.478696 138.502)scale(0.16 -0.16)">
       <defs>
        <path id="STIXGeneral-Regular-31" d="M 2522 0 
L 755 0 
L 755 96 
Q 1107 115 1235 227 
Q 1363 339 1363 608 
L 1363 3482 
Q 1363 3795 1171 3795 
Q 1082 3795 883 3718 
L 710 3654 
L 710 3744 
L 1856 4326 
L 1914 4307 
L 1914 486 
Q 1914 275 2042 185 
Q 2170 96 2522 96 
L 2522 0 
z
" transform="scale(0.015625)"/>
        <path id="STIXGeneral-Regular-30" d="M 3046 2112 
Q 3046 1683 2963 1302 
Q 2880 922 2717 602 
Q 2554 282 2266 96 
Q 1978 -90 1600 -90 
Q 1210 -90 915 108 
Q 621 307 461 640 
Q 301 973 227 1350 
Q 154 1728 154 2150 
Q 154 2746 301 3222 
Q 448 3699 790 4012 
Q 1133 4326 1626 4326 
Q 2253 4326 2649 3712 
Q 3046 3098 3046 2112 
z
M 2432 2080 
Q 2432 3091 2217 3625 
Q 2003 4160 1587 4160 
Q 1190 4160 979 3622 
Q 768 3085 768 2106 
Q 768 1120 979 598 
Q 1190 77 1600 77 
Q 2003 77 2217 598 
Q 2432 1120 2432 2080 
z
" transform="scale(0.015625)"/>
        <path id="STIXGeneral-Regular-2e" d="M 1158 275 
Q 1158 134 1052 32 
Q 947 -70 800 -70 
Q 653 -70 550 32 
Q 448 134 448 281 
Q 448 429 553 534 
Q 659 640 806 640 
Q 947 640 1052 531 
Q 1158 422 1158 275 
z
" transform="scale(0.015625)"/>
       </defs>
       <use xlink:href="#STIXGeneral-Regular-31" transform="translate(0 0.40625)"/>
       <use xlink:href="#STIXGeneral-Regular-30" transform="translate(49.999985 0.40625)"/>
       <use xlink:href="#STIXGeneral-Regular-2e" transform="translate(99.999969 0.40625)"/>
       <use xlink:href="#STIXGeneral-Regular-30" transform="translate(124.999954 0.40625)"/>
      </g>
     </g>
    </g>
    <g id="ytick_2">
     <g id="line2d_13">
      <g>
       <use xlink:href="#ma8c5f72067" x="263.478696" y="81.116792" style="fill: #323034; stroke: #323034; stroke-width: 0.8"/>
      </g>
     </g>
     <g id="text_2">
      <!-- $\mathdefault{12.5}$ -->
      <g style="fill: #323034" transform="translate(270.478696 86.580542)scale(0.16 -0.16)">
       <defs>
        <path id="STIXGeneral-Regular-32" d="M 3034 877 
L 2688 0 
L 186 0 
L 186 77 
L 1325 1286 
Q 1773 1754 1965 2144 
Q 2157 2534 2157 2950 
Q 2157 3379 1920 3616 
Q 1683 3853 1267 3853 
Q 922 3853 720 3673 
Q 518 3494 326 3021 
L 192 3053 
Q 301 3648 630 3987 
Q 960 4326 1523 4326 
Q 2054 4326 2380 4006 
Q 2707 3686 2707 3200 
Q 2707 2477 1888 1613 
L 832 486 
L 2330 486 
Q 2541 486 2665 569 
Q 2790 653 2944 915 
L 3034 877 
z
" transform="scale(0.015625)"/>
        <path id="STIXGeneral-Regular-35" d="M 2803 4358 
L 2573 3814 
Q 2534 3731 2400 3731 
L 1158 3731 
L 902 3187 
Q 1606 3053 1920 2896 
Q 2234 2739 2502 2368 
Q 2726 2061 2726 1555 
Q 2726 1094 2576 780 
Q 2426 467 2099 224 
Q 1664 -90 1011 -90 
Q 646 -90 422 19 
Q 198 128 198 307 
Q 198 550 486 550 
Q 717 550 960 352 
Q 1210 147 1414 147 
Q 1747 147 2012 480 
Q 2278 813 2278 1229 
Q 2278 1843 1850 2189 
Q 1293 2637 486 2637 
Q 410 2637 410 2688 
L 416 2720 
L 1114 4237 
L 2438 4237 
Q 2547 4237 2608 4269 
Q 2669 4301 2746 4403 
L 2803 4358 
z
" transform="scale(0.015625)"/>
       </defs>
       <use xlink:href="#STIXGeneral-Regular-31" transform="translate(0 0.203125)"/>
       <use xlink:href="#STIXGeneral-Regular-32" transform="translate(49.999985 0.203125)"/>
       <use xlink:href="#STIXGeneral-Regular-2e" transform="translate(99.999969 0.203125)"/>
       <use xlink:href="#STIXGeneral-Regular-35" transform="translate(124.999954 0.203125)"/>
      </g>
     </g>
    </g>
    <g id="ytick_3">
     <g id="line2d_14">
      <defs>
       <path id="m2a8ab1800c" d="M 0 0 
L 2 0 
" style="stroke: #323034; stroke-width: 0.6"/>
      </defs>
      <g>
       <use xlink:href="#m2a8ab1800c" x="263.478696" y="107.077521" style="fill: #323034; stroke: #323034; stroke-width: 0.6"/>
      </g>
     </g>
    </g>
   </g>
   <g id="line2d_15">
    <path d="M 59.774297 127.820765 
L 61.771399 126.670982 
L 63.1028 126.169044 
L 64.434201 126.051415 
L 65.765603 126.276857 
L 69.759807 127.320342 
L 71.091208 127.418816 
L 73.08831 127.238576 
L 74.419711 127.109675 
L 75.751113 127.202526 
L 77.748214 127.784331 
L 79.745316 128.492529 
L 81.076718 129.154434 
L 85.736622 131.930273 
L 87.068024 132.355718 
L 88.399425 132.519897 
L 95.722132 132.992936 
L 97.719234 133.265677 
L 101.047737 133.413906 
L 104.376241 133.771212 
L 105.707642 133.670792 
L 107.039043 133.244112 
L 108.370444 132.484723 
L 109.701846 131.362528 
L 111.033247 129.847729 
L 112.364648 128.00717 
L 115.027451 123.730429 
L 118.355954 118.525022 
L 120.353056 115.810626 
L 121.684457 114.432229 
L 123.015859 113.54797 
L 129.007165 110.573517 
L 130.338566 110.234715 
L 132.335668 110.041981 
L 133.667069 110.063922 
L 134.998471 110.243196 
L 136.995572 110.742515 
L 138.326974 111.233478 
L 139.658375 111.918426 
L 142.321178 113.462861 
L 143.652579 114.019493 
L 148.312484 115.570015 
L 149.643885 116.384088 
L 152.972388 118.641039 
L 154.303789 119.227273 
L 155.635191 119.586721 
L 160.960796 120.531185 
L 162.957898 121.225318 
L 165.6207 122.358253 
L 166.286401 122.494754 
L 166.952102 122.490076 
L 168.283503 122.116572 
L 170.280605 121.124946 
L 172.943408 119.733806 
L 174.274809 119.240258 
L 175.60621 119.037415 
L 179.600414 118.908846 
L 180.931815 118.532763 
L 182.263217 117.872752 
L 185.59172 115.68686 
L 188.920223 113.638985 
L 191.583026 112.388691 
L 192.914427 111.66246 
L 194.911529 110.175793 
L 200.237134 105.523183 
L 201.568536 104.08668 
L 202.899937 102.376968 
L 204.897039 99.336291 
L 207.559842 95.09984 
L 208.891243 93.314419 
L 210.222644 92.043157 
L 211.554045 91.208062 
L 212.885447 90.712886 
L 214.216848 90.484252 
L 215.548249 90.476223 
L 218.876753 90.786019 
L 219.542453 90.672732 
L 220.208154 90.442863 
L 221.539555 89.625551 
L 225.533759 86.505387 
L 226.86516 85.820148 
L 228.196562 85.404895 
L 229.527963 85.264873 
L 230.859364 85.36053 
L 232.190766 85.637041 
L 233.522167 86.151524 
L 237.516371 88.178622 
L 238.182072 88.272884 
L 238.847772 88.159391 
L 239.513473 87.880793 
L 240.844874 86.921247 
L 242.841976 84.987007 
L 244.173377 83.742345 
L 245.504779 82.905462 
L 246.170479 82.669595 
L 246.83618 82.56312 
L 247.501881 82.5974 
L 248.167581 82.77521 
L 249.498983 83.484261 
L 250.830384 84.524715 
L 252.827486 86.414224 
L 257.48739 90.953696 
L 259.484492 92.541657 
L 262.147295 94.33562 
L 263.478696 95.138515 
L 263.478696 95.138515 
" clip-path="url(#pdde0f6c513)" style="fill: none; stroke-dasharray: 3.7,1.6; stroke-dashoffset: 0; stroke: #000000"/>
   </g>
   <g id="line2d_16">
    <path d="M 59.774297 128.863844 
L 61.105698 125.075998 
L 61.771399 123.361587 
L 62.437099 129.902766 
L 63.1028 125.997095 
L 63.768501 126.389741 
L 64.434201 125.39852 
L 65.099902 123.599632 
L 65.765603 124.346714 
L 66.431303 125.463892 
L 67.097004 128.700223 
L 67.762705 129.779088 
L 68.428405 129.048985 
L 69.094106 126.598908 
L 69.759807 125.534068 
L 70.425507 125.602505 
L 71.756909 130.13267 
L 72.422609 128.508294 
L 73.08831 129.98563 
L 73.754011 127.447213 
L 74.419711 124.159561 
L 75.085412 122.412034 
L 75.751113 123.77454 
L 76.416813 129.014776 
L 77.082514 131.962889 
L 77.748214 130.698589 
L 78.413915 129.155079 
L 79.745316 124.040613 
L 81.742418 133.099123 
L 82.408119 131.511227 
L 83.07382 130.821103 
L 83.73952 127.704527 
L 84.405221 128.317371 
L 85.070922 130.51825 
L 85.736622 134.716076 
L 86.402323 137.672829 
L 87.068024 132.781925 
L 87.733724 133.886465 
L 88.399425 128.83918 
L 89.065126 129.405287 
L 89.730826 131.55332 
L 90.396527 136.092668 
L 91.062228 133.227182 
L 91.727928 134.052133 
L 93.059329 129.808123 
L 94.390731 132.811749 
L 95.056431 135.01051 
L 95.722132 135.998944 
L 97.053533 136.389697 
L 97.719234 132.585416 
L 98.384935 130.787233 
L 99.050635 131.784594 
L 99.716336 134.394532 
L 100.382037 133.160682 
L 101.047737 134.237107 
L 101.713438 135.056181 
L 102.379139 133.428927 
L 103.044839 127.535283 
L 103.71054 132.581726 
L 104.376241 136.53201 
L 105.041941 136.99339 
L 105.707642 136.322218 
L 106.373342 132.274092 
L 107.039043 131.958413 
L 107.704744 130.002731 
L 108.370444 130.13267 
L 109.036145 135.966349 
L 109.701846 134.921535 
L 110.367546 130.504057 
L 111.033247 129.871171 
L 112.364648 126.050907 
L 113.030349 125.265148 
L 113.69605 129.293186 
L 115.027451 123.384677 
L 115.693152 122.272318 
L 117.024553 117.958539 
L 118.355954 120.904029 
L 119.021655 120.910339 
L 119.687356 116.692798 
L 120.353056 116.023003 
L 121.018757 113.82314 
L 121.684457 113.235309 
L 122.350158 116.010124 
L 123.015859 118.30862 
L 123.681559 117.158513 
L 124.34726 114.381963 
L 125.012961 112.415566 
L 125.678661 112.264513 
L 126.344362 109.55738 
L 127.010063 111.977974 
L 127.675763 113.000086 
L 129.007165 110.372219 
L 129.672865 109.522403 
L 130.338566 107.402306 
L 131.004267 108.752506 
L 131.669967 111.39453 
L 132.335668 111.453143 
L 133.001369 112.26486 
L 133.667069 110.475364 
L 134.33277 109.102147 
L 134.998471 109.022785 
L 135.664171 108.004199 
L 136.329872 110.003835 
L 136.995572 114.330953 
L 137.661273 112.5115 
L 138.992674 110.001969 
L 139.658375 109.339056 
L 140.324076 109.296928 
L 140.989776 113.35411 
L 141.655477 115.685403 
L 142.321178 117.084902 
L 142.986878 114.588429 
L 143.652579 114.521054 
L 144.98398 111.829381 
L 145.649681 113.94273 
L 146.315382 116.653777 
L 146.981082 117.221375 
L 147.646783 114.663029 
L 148.312484 114.307599 
L 148.978184 114.390797 
L 149.643885 112.407882 
L 151.640987 121.974631 
L 152.306687 119.032761 
L 152.972388 119.138716 
L 154.303789 116.425418 
L 154.96949 118.188809 
L 155.635191 125.066361 
L 156.300891 120.438281 
L 156.966592 121.103163 
L 157.632293 118.133072 
L 158.963694 117.491242 
L 159.629395 118.382049 
L 160.295095 124.374032 
L 160.960796 122.556111 
L 161.626497 118.644419 
L 162.292197 124.995184 
L 162.957898 117.565861 
L 163.623599 115.157758 
L 164.289299 119.508959 
L 164.955 126.623126 
L 165.6207 130.270854 
L 167.617802 121.678969 
L 168.283503 117.048631 
L 168.949204 121.117498 
L 169.614904 124.42753 
L 170.280605 122.329668 
L 170.946306 121.057569 
L 171.612006 121.030578 
L 172.277707 118.058223 
L 172.943408 116.480148 
L 174.274809 122.630811 
L 174.94051 114.051292 
L 175.60621 122.047821 
L 176.271911 119.85791 
L 176.937612 118.106867 
L 177.603312 114.191984 
L 178.269013 119.292831 
L 178.934714 122.099541 
L 179.600414 122.065047 
L 180.266115 118.811049 
L 180.931815 119.605029 
L 181.597516 117.556463 
L 182.263217 114.576409 
L 182.928917 116.956274 
L 183.594618 123.3829 
L 184.260319 111.407171 
L 184.926019 119.211754 
L 185.59172 114.795793 
L 186.257421 113.51775 
L 186.923121 112.588497 
L 188.254523 118.301198 
L 188.920223 116.85351 
L 189.585924 114.263643 
L 190.917325 110.451198 
L 191.583026 108.887353 
L 192.248727 114.89632 
L 192.914427 116.91155 
L 193.580128 110.423569 
L 194.245829 112.021458 
L 194.911529 110.808916 
L 195.57723 107.555713 
L 196.24293 104.919778 
L 196.908631 106.623524 
L 197.574332 112.324942 
L 198.240032 107.692166 
L 198.905733 107.762127 
L 200.902835 101.644364 
L 201.568536 105.186887 
L 202.234236 107.815802 
L 202.899937 102.90067 
L 203.565638 103.254951 
L 204.231338 100.003565 
L 204.897039 97.5982 
L 205.56274 95.721827 
L 206.22844 96.828445 
L 206.894141 100.93801 
L 207.559842 96.097185 
L 208.225542 94.67581 
L 208.891243 94.182877 
L 209.556944 91.387035 
L 210.222644 89.237538 
L 210.888345 91.981523 
L 211.554045 95.355589 
L 212.219746 91.020729 
L 212.885447 91.644984 
L 213.551147 90.319842 
L 214.216848 88.560734 
L 214.882549 87.34007 
L 215.548249 90.361716 
L 216.21395 94.511425 
L 216.879651 89.452979 
L 217.545351 89.658064 
L 218.211052 89.341472 
L 218.876753 101.004247 
L 219.542453 86.62359 
L 220.208154 93.001957 
L 220.873855 95.212288 
L 221.539555 90.884641 
L 222.870957 87.099898 
L 223.536657 85.456433 
L 224.202358 84.195427 
L 224.868058 86.636812 
L 225.533759 90.363165 
L 226.19946 86.756797 
L 226.86516 85.268806 
L 227.530861 85.268617 
L 228.196562 84.708522 
L 228.862262 80.232008 
L 229.527963 86.45347 
L 230.193664 88.92826 
L 230.859364 87.129548 
L 231.525065 86.896384 
L 232.190766 83.021123 
L 232.856466 83.633892 
L 233.522167 82.488247 
L 234.187868 87.864014 
L 234.853568 89.419707 
L 235.519269 87.064208 
L 236.18497 87.051947 
L 236.85067 84.521575 
L 237.516371 87.906257 
L 238.182072 101.42447 
L 238.847772 85.540253 
L 239.513473 92.908754 
L 240.179173 88.395034 
L 240.844874 87.114563 
L 241.510575 84.41371 
L 242.176275 84.226329 
L 242.841976 93.580568 
L 243.507677 79.389415 
L 244.173377 87.037224 
L 244.839078 82.435399 
L 245.504779 83.870521 
L 247.501881 78.746589 
L 248.833282 86.377253 
L 249.498983 84.65394 
L 250.164683 84.320666 
L 250.830384 84.37963 
L 251.496085 83.476091 
L 252.161785 83.447411 
L 254.158887 94.461479 
L 254.824588 88.623297 
L 255.490288 88.785685 
L 256.155989 88.233916 
L 256.82169 88.116169 
L 257.48739 90.852582 
L 258.153091 96.219824 
L 258.818792 92.304894 
L 259.484492 93.107847 
L 260.150193 92.41208 
L 260.815894 91.069165 
L 261.481594 91.265055 
L 262.147295 95.569619 
L 262.812996 98.888374 
L 263.478696 94.391551 
L 263.478696 94.391551 
" clip-path="url(#pdde0f6c513)" style="fill: none; stroke: #bc80bd; stroke-opacity: 0.7; stroke-width: 3; stroke-linecap: square"/>
   </g>
   <g id="patch_3">
    <path d="M 263.478696 153.806833 
L 263.478696 70.7325 
" style="fill: none; stroke: #000000; stroke-width: 0.6; stroke-linejoin: miter; stroke-linecap: square"/>
   </g>
   <g id="patch_4">
    <path d="M 59.774297 153.806833 
L 263.478696 153.806833 
" style="fill: none; stroke: #000000; stroke-width: 0.6; stroke-linejoin: miter; stroke-linecap: square"/>
   </g>
   <g id="text_3">
    <!-- log new cases -->
    <g style="fill: #323034" transform="translate(157.945571 64.7325)scale(0.19 -0.19)">
     <defs>
      <path id="STIXGeneral-Regular-6c" d="M 1645 0 
L 134 0 
L 134 96 
Q 435 122 531 221 
Q 627 320 627 589 
L 627 3590 
Q 627 3821 569 3910 
Q 512 4000 358 4000 
Q 224 4000 122 3987 
L 122 4090 
Q 730 4237 1133 4371 
L 1165 4346 
L 1165 557 
Q 1165 288 1254 201 
Q 1344 115 1645 96 
L 1645 0 
z
" transform="scale(0.015625)"/>
      <path id="STIXGeneral-Regular-6f" d="M 3008 1478 
Q 3008 806 2608 371 
Q 2208 -64 1568 -64 
Q 979 -64 582 368 
Q 186 800 186 1459 
Q 186 2125 582 2534 
Q 979 2944 1626 2944 
Q 2221 2944 2614 2537 
Q 3008 2131 3008 1478 
z
M 2432 1306 
Q 2432 2035 2112 2445 
Q 1856 2765 1504 2765 
Q 1171 2765 966 2493 
Q 762 2221 762 1747 
Q 762 928 1101 435 
Q 1318 115 1677 115 
Q 2029 115 2230 432 
Q 2432 749 2432 1306 
z
" transform="scale(0.015625)"/>
      <path id="STIXGeneral-Regular-67" d="M 3008 2483 
L 2477 2483 
Q 2598 2208 2598 1946 
Q 2598 1453 2265 1203 
Q 1933 954 1600 954 
Q 1530 954 1357 973 
L 1235 986 
Q 1107 947 979 812 
Q 851 678 851 582 
Q 851 435 1350 410 
L 2176 371 
Q 2528 358 2739 172 
Q 2950 -13 2950 -314 
Q 2950 -685 2566 -986 
Q 2035 -1395 1286 -1395 
Q 826 -1395 502 -1212 
Q 179 -1030 179 -774 
Q 179 -595 320 -419 
Q 461 -243 806 6 
Q 602 102 534 172 
Q 467 243 467 346 
Q 467 531 762 787 
Q 909 915 1037 1043 
Q 717 1203 579 1401 
Q 442 1600 442 1901 
Q 442 2336 752 2640 
Q 1062 2944 1510 2944 
Q 1766 2944 2022 2848 
L 2163 2797 
Q 2349 2733 2515 2733 
L 3008 2733 
L 3008 2483 
z
M 973 2163 
L 973 2144 
Q 973 1683 1155 1398 
Q 1338 1114 1632 1114 
Q 1850 1114 1978 1270 
Q 2106 1427 2106 1690 
Q 2106 2112 1914 2464 
Q 1754 2765 1446 2765 
Q 1222 2765 1097 2605 
Q 973 2445 973 2163 
z
M 2771 -410 
Q 2771 -230 2595 -163 
Q 2419 -96 1978 -96 
Q 1344 -96 941 -13 
Q 749 -243 688 -348 
Q 627 -454 627 -563 
Q 627 -774 880 -902 
Q 1133 -1030 1555 -1030 
Q 2099 -1030 2435 -860 
Q 2771 -691 2771 -410 
z
" transform="scale(0.015625)"/>
      <path id="STIXGeneral-Regular-20" transform="scale(0.015625)"/>
      <path id="STIXGeneral-Regular-6e" d="M 3104 0 
L 1773 0 
L 1779 96 
Q 2016 115 2096 233 
Q 2176 352 2176 672 
L 2176 1946 
Q 2176 2592 1709 2592 
Q 1549 2592 1408 2515 
Q 1267 2438 1050 2227 
L 1050 461 
Q 1050 269 1136 192 
Q 1222 115 1466 96 
L 1466 0 
L 115 0 
L 115 96 
Q 358 115 435 214 
Q 512 314 512 602 
L 512 2157 
Q 512 2394 467 2483 
Q 422 2573 288 2573 
Q 160 2573 102 2547 
L 102 2656 
Q 550 2784 979 2944 
L 1030 2925 
L 1030 2426 
L 1037 2426 
Q 1491 2944 1958 2944 
Q 2323 2944 2518 2688 
Q 2714 2432 2714 1958 
L 2714 544 
Q 2714 288 2790 205 
Q 2867 122 3104 96 
L 3104 0 
z
" transform="scale(0.015625)"/>
      <path id="STIXGeneral-Regular-65" d="M 2611 1050 
L 2714 1005 
Q 2330 -64 1376 -64 
Q 813 -64 486 329 
Q 160 723 160 1389 
Q 160 2074 525 2509 
Q 890 2944 1485 2944 
Q 2061 2944 2374 2502 
Q 2560 2246 2592 1773 
L 621 1773 
Q 646 1370 700 1158 
Q 755 947 915 730 
Q 1184 378 1626 378 
Q 1939 378 2153 531 
Q 2368 685 2611 1050 
z
M 634 1978 
L 1939 1978 
Q 1882 2381 1750 2547 
Q 1619 2714 1312 2714 
Q 1043 2714 864 2525 
Q 685 2336 634 1978 
z
" transform="scale(0.015625)"/>
      <path id="STIXGeneral-Regular-77" d="M 4442 2880 
L 4442 2784 
Q 4346 2752 4301 2691 
Q 4256 2630 4179 2438 
L 3296 224 
Q 3168 -90 3117 -90 
Q 3085 -90 3062 -48 
Q 3040 -6 2963 186 
L 2381 1696 
L 1664 160 
Q 1549 -90 1504 -90 
Q 1446 -90 1338 192 
L 474 2381 
Q 378 2630 314 2700 
Q 250 2771 134 2784 
L 134 2880 
L 1286 2880 
L 1286 2784 
Q 1120 2765 1056 2720 
Q 992 2675 992 2573 
Q 992 2477 1030 2381 
L 1664 710 
L 2246 1984 
L 2118 2342 
Q 2029 2598 1942 2681 
Q 1856 2765 1677 2784 
L 1677 2880 
L 2976 2880 
L 2976 2784 
Q 2752 2752 2678 2707 
Q 2605 2662 2605 2560 
Q 2605 2458 2714 2176 
L 3251 742 
L 3827 2163 
Q 3936 2432 3936 2592 
Q 3936 2669 3875 2710 
Q 3814 2752 3654 2784 
L 3654 2880 
L 4442 2880 
z
" transform="scale(0.015625)"/>
      <path id="STIXGeneral-Regular-63" d="M 2547 998 
L 2637 941 
Q 2362 403 2112 205 
Q 1786 -64 1376 -64 
Q 845 -64 502 336 
Q 160 736 160 1357 
Q 160 2170 698 2618 
Q 1094 2944 1562 2944 
Q 1965 2944 2256 2749 
Q 2547 2554 2547 2285 
Q 2547 2176 2457 2096 
Q 2368 2016 2246 2016 
Q 2022 2016 1939 2310 
L 1901 2451 
Q 1850 2630 1773 2694 
Q 1696 2758 1523 2758 
Q 1133 2758 893 2451 
Q 653 2144 653 1645 
Q 653 1094 928 745 
Q 1203 397 1645 397 
Q 1920 397 2118 528 
Q 2317 659 2547 998 
z
" transform="scale(0.015625)"/>
      <path id="STIXGeneral-Regular-61" d="M 2829 422 
L 2829 243 
Q 2586 -64 2253 -64 
Q 1888 -64 1843 403 
L 1837 403 
Q 1427 -64 909 -64 
Q 608 -64 422 112 
Q 237 288 237 602 
Q 237 1050 685 1350 
Q 992 1555 1837 1869 
L 1837 2214 
Q 1837 2502 1699 2646 
Q 1562 2790 1338 2790 
Q 1146 2790 1018 2697 
Q 890 2605 890 2477 
Q 890 2419 909 2348 
Q 928 2278 928 2208 
Q 928 2112 841 2029 
Q 755 1946 634 1946 
Q 525 1946 441 2029 
Q 358 2112 358 2240 
Q 358 2547 685 2752 
Q 986 2944 1421 2944 
Q 1939 2944 2176 2656 
Q 2291 2522 2323 2384 
Q 2355 2246 2355 1946 
L 2355 723 
Q 2355 301 2554 301 
Q 2682 301 2829 422 
z
M 1837 813 
L 1837 1715 
Q 1248 1510 1018 1293 
Q 800 1094 800 800 
Q 800 557 921 432 
Q 1043 307 1242 307 
Q 1453 307 1613 410 
Q 1747 506 1792 589 
Q 1837 672 1837 813 
z
" transform="scale(0.015625)"/>
      <path id="STIXGeneral-Regular-73" d="M 998 1926 
L 1664 1523 
Q 1984 1331 2105 1164 
Q 2227 998 2227 736 
Q 2227 416 1961 176 
Q 1696 -64 1331 -64 
Q 1030 -64 864 -6 
Q 691 51 570 51 
Q 461 51 416 -26 
L 333 -26 
L 333 979 
L 435 979 
Q 538 512 730 294 
Q 922 77 1248 77 
Q 1485 77 1632 211 
Q 1779 346 1779 550 
Q 1779 845 1440 1030 
L 1094 1222 
Q 326 1651 326 2150 
Q 326 2522 566 2730 
Q 806 2938 1210 2938 
Q 1491 2938 1638 2867 
Q 1754 2816 1818 2816 
Q 1862 2816 1920 2880 
L 1990 2880 
L 2022 2010 
L 1926 2010 
Q 1818 2445 1654 2621 
Q 1491 2797 1203 2797 
Q 986 2797 854 2688 
Q 723 2579 723 2362 
Q 723 2253 796 2128 
Q 870 2003 998 1926 
z
" transform="scale(0.015625)"/>
     </defs>
     <use xlink:href="#STIXGeneral-Regular-6c"/>
     <use xlink:href="#STIXGeneral-Regular-6f" x="27.799988"/>
     <use xlink:href="#STIXGeneral-Regular-67" x="77.799973"/>
     <use xlink:href="#STIXGeneral-Regular-20" x="127.799957"/>
     <use xlink:href="#STIXGeneral-Regular-6e" x="152.799942"/>
     <use xlink:href="#STIXGeneral-Regular-65" x="202.799927"/>
     <use xlink:href="#STIXGeneral-Regular-77" x="247.199921"/>
     <use xlink:href="#STIXGeneral-Regular-20" x="319.399902"/>
     <use xlink:href="#STIXGeneral-Regular-63" x="344.399887"/>
     <use xlink:href="#STIXGeneral-Regular-61" x="388.799881"/>
     <use xlink:href="#STIXGeneral-Regular-73" x="433.199875"/>
     <use xlink:href="#STIXGeneral-Regular-65" x="472.099869"/>
     <use xlink:href="#STIXGeneral-Regular-73" x="516.499863"/>
    </g>
   </g>
   <g id="legend_1">
    <g id="patch_5">
     <path d="M 68.174297 108.3525 
L 141.769922 108.3525 
Q 144.169922 108.3525 144.169922 105.9525 
L 144.169922 79.1325 
Q 144.169922 76.7325 141.769922 76.7325 
L 68.174297 76.7325 
Q 65.774297 76.7325 65.774297 79.1325 
L 65.774297 105.9525 
Q 65.774297 108.3525 68.174297 108.3525 
z
" style="fill: #ffffff; opacity: 0.8; stroke: #e6e6e6; stroke-width: 0.8; stroke-linejoin: miter"/>
    </g>
    <g id="line2d_17">
     <path d="M 68.174297 83.3325 
L 80.174297 83.3325 
L 92.174297 83.3325 
" style="fill: none; stroke-dasharray: 3.7,1.6; stroke-dashoffset: 0; stroke: #000000"/>
    </g>
    <g id="text_4">
     <!-- Trend -->
     <g style="fill: #323034" transform="translate(101.774297 87.5325)scale(0.12 -0.12)">
      <defs>
       <path id="STIXGeneral-Regular-54" d="M 3795 3149 
L 3642 3149 
Q 3539 3674 3353 3821 
Q 3168 3968 2656 3968 
L 2278 3968 
L 2278 710 
Q 2278 346 2387 243 
Q 2496 141 2893 122 
L 2893 0 
L 1024 0 
L 1024 122 
Q 1427 147 1526 256 
Q 1626 365 1626 787 
L 1626 3968 
L 1242 3968 
Q 723 3968 540 3817 
Q 358 3667 262 3149 
L 109 3149 
L 154 4237 
L 3750 4237 
L 3795 3149 
z
" transform="scale(0.015625)"/>
       <path id="STIXGeneral-Regular-72" d="M 1024 2931 
L 1024 2342 
Q 1267 2688 1430 2816 
Q 1594 2944 1792 2944 
Q 1958 2944 2051 2854 
Q 2144 2765 2144 2605 
Q 2144 2470 2077 2393 
Q 2010 2317 1894 2317 
Q 1773 2317 1638 2445 
Q 1536 2541 1472 2541 
Q 1338 2541 1181 2355 
Q 1024 2170 1024 2016 
L 1024 576 
Q 1024 301 1133 205 
Q 1242 109 1568 96 
L 1568 0 
L 32 0 
L 32 96 
Q 339 154 412 224 
Q 486 294 486 538 
L 486 2138 
Q 486 2349 438 2435 
Q 390 2522 269 2522 
Q 166 2522 45 2496 
L 45 2598 
Q 448 2726 992 2944 
L 1024 2931 
z
" transform="scale(0.015625)"/>
       <path id="STIXGeneral-Regular-64" d="M 3142 269 
L 2202 -64 
L 2176 -45 
L 2176 365 
Q 1869 -64 1357 -64 
Q 826 -64 499 317 
Q 173 698 173 1312 
Q 173 1990 563 2467 
Q 954 2944 1504 2944 
Q 1850 2944 2176 2669 
L 2176 3667 
Q 2176 3866 2118 3930 
Q 2061 3994 1882 3994 
Q 1792 3994 1741 3987 
L 1741 4090 
Q 2323 4243 2682 4371 
L 2714 4358 
L 2714 730 
Q 2714 506 2768 435 
Q 2822 365 2995 365 
Q 3034 365 3142 371 
L 3142 269 
z
M 2176 653 
L 2176 2125 
Q 2176 2381 1981 2573 
Q 1786 2765 1523 2765 
Q 1158 2765 940 2438 
Q 723 2112 723 1568 
Q 723 979 963 624 
Q 1203 269 1606 269 
Q 1907 269 2080 474 
Q 2176 582 2176 653 
z
" transform="scale(0.015625)"/>
      </defs>
      <use xlink:href="#STIXGeneral-Regular-54"/>
      <use xlink:href="#STIXGeneral-Regular-72" x="61.099991"/>
      <use xlink:href="#STIXGeneral-Regular-65" x="94.399979"/>
      <use xlink:href="#STIXGeneral-Regular-6e" x="138.799973"/>
      <use xlink:href="#STIXGeneral-Regular-64" x="188.799957"/>
     </g>
    </g>
    <g id="line2d_18">
     <path d="M 68.174297 99.136875 
L 80.174297 99.136875 
L 92.174297 99.136875 
" style="fill: none; stroke: #bc80bd; stroke-opacity: 0.7; stroke-width: 3; stroke-linecap: square"/>
    </g>
    <g id="text_5">
     <!-- Original -->
     <g style="fill: #323034" transform="translate(101.774297 103.336875)scale(0.12 -0.12)">
      <defs>
       <path id="STIXGeneral-Regular-4f" d="M 4403 2118 
Q 4403 1133 3820 521 
Q 3238 -90 2310 -90 
Q 1376 -90 797 524 
Q 218 1139 218 2138 
Q 218 3110 797 3718 
Q 1376 4326 2310 4326 
Q 3245 4326 3824 3702 
Q 4403 3078 4403 2118 
z
M 3674 2157 
Q 3674 2701 3520 3133 
Q 3366 3565 3091 3795 
Q 2733 4096 2304 4096 
Q 1760 4096 1389 3667 
Q 1184 3437 1065 3011 
Q 947 2586 947 2125 
Q 947 960 1523 429 
Q 1837 141 2317 141 
Q 2816 141 3142 448 
Q 3674 960 3674 2157 
z
" transform="scale(0.015625)"/>
       <path id="STIXGeneral-Regular-69" d="M 1152 4045 
Q 1152 3904 1056 3811 
Q 960 3718 819 3718 
Q 685 3718 592 3811 
Q 499 3904 499 4045 
Q 499 4179 595 4275 
Q 691 4371 826 4371 
Q 966 4371 1059 4275 
Q 1152 4179 1152 4045 
z
M 1619 0 
L 102 0 
L 102 96 
Q 435 115 521 211 
Q 608 307 608 666 
L 608 2118 
Q 608 2342 563 2432 
Q 518 2522 397 2522 
Q 243 2522 128 2490 
L 128 2592 
L 1120 2944 
L 1146 2918 
L 1146 672 
Q 1146 314 1226 218 
Q 1306 122 1619 96 
L 1619 0 
z
" transform="scale(0.015625)"/>
      </defs>
      <use xlink:href="#STIXGeneral-Regular-4f"/>
      <use xlink:href="#STIXGeneral-Regular-72" x="72.199982"/>
      <use xlink:href="#STIXGeneral-Regular-69" x="105.499969"/>
      <use xlink:href="#STIXGeneral-Regular-67" x="133.299957"/>
      <use xlink:href="#STIXGeneral-Regular-69" x="183.299942"/>
      <use xlink:href="#STIXGeneral-Regular-6e" x="211.09993"/>
      <use xlink:href="#STIXGeneral-Regular-61" x="261.099915"/>
      <use xlink:href="#STIXGeneral-Regular-6c" x="305.499908"/>
     </g>
    </g>
   </g>
  </g>
  <g id="axes_2">
   <g id="patch_6">
    <path d="M 59.774297 253.341167 
L 263.478696 253.341167 
L 263.478696 170.266833 
L 59.774297 170.266833 
z
" style="fill: #ffffff"/>
   </g>
   <g id="matplotlib.axis_3">
    <g id="xtick_12">
     <g id="line2d_19">
      <g>
       <use xlink:href="#m0bf81b6c23" x="59.774297" y="253.341167" style="fill: #323034; stroke: #323034; stroke-width: 0.8"/>
      </g>
     </g>
    </g>
    <g id="xtick_13">
     <g id="line2d_20">
      <g>
       <use xlink:href="#m0bf81b6c23" x="79.745316" y="253.341167" style="fill: #323034; stroke: #323034; stroke-width: 0.8"/>
      </g>
     </g>
    </g>
    <g id="xtick_14">
     <g id="line2d_21">
      <g>
       <use xlink:href="#m0bf81b6c23" x="100.382037" y="253.341167" style="fill: #323034; stroke: #323034; stroke-width: 0.8"/>
      </g>
     </g>
    </g>
    <g id="xtick_15">
     <g id="line2d_22">
      <g>
       <use xlink:href="#m0bf81b6c23" x="120.353056" y="253.341167" style="fill: #323034; stroke: #323034; stroke-width: 0.8"/>
      </g>
     </g>
    </g>
    <g id="xtick_16">
     <g id="line2d_23">
      <g>
       <use xlink:href="#m0bf81b6c23" x="140.989776" y="253.341167" style="fill: #323034; stroke: #323034; stroke-width: 0.8"/>
      </g>
     </g>
    </g>
    <g id="xtick_17">
     <g id="line2d_24">
      <g>
       <use xlink:href="#m0bf81b6c23" x="161.626497" y="253.341167" style="fill: #323034; stroke: #323034; stroke-width: 0.8"/>
      </g>
     </g>
    </g>
    <g id="xtick_18">
     <g id="line2d_25">
      <g>
       <use xlink:href="#m0bf81b6c23" x="181.597516" y="253.341167" style="fill: #323034; stroke: #323034; stroke-width: 0.8"/>
      </g>
     </g>
    </g>
    <g id="xtick_19">
     <g id="line2d_26">
      <g>
       <use xlink:href="#m0bf81b6c23" x="202.234236" y="253.341167" style="fill: #323034; stroke: #323034; stroke-width: 0.8"/>
      </g>
     </g>
    </g>
    <g id="xtick_20">
     <g id="line2d_27">
      <g>
       <use xlink:href="#m0bf81b6c23" x="222.205256" y="253.341167" style="fill: #323034; stroke: #323034; stroke-width: 0.8"/>
      </g>
     </g>
    </g>
    <g id="xtick_21">
     <g id="line2d_28">
      <g>
       <use xlink:href="#m0bf81b6c23" x="242.841976" y="253.341167" style="fill: #323034; stroke: #323034; stroke-width: 0.8"/>
      </g>
     </g>
    </g>
    <g id="xtick_22">
     <g id="line2d_29">
      <g>
       <use xlink:href="#m0bf81b6c23" x="263.478696" y="253.341167" style="fill: #323034; stroke: #323034; stroke-width: 0.8"/>
      </g>
     </g>
    </g>
   </g>
   <g id="matplotlib.axis_4">
    <g id="ytick_4">
     <g id="line2d_30">
      <g>
       <use xlink:href="#ma8c5f72067" x="263.478696" y="232.572583" style="fill: #323034; stroke: #323034; stroke-width: 0.8"/>
      </g>
     </g>
     <g id="text_6">
      <!-- $\mathdefault{−0.25}$ -->
      <g style="fill: #323034" transform="translate(270.478696 238.036333)scale(0.16 -0.16)">
       <defs>
        <path id="STIXGeneral-Regular-2212" d="M 3974 1408 
L 410 1408 
L 410 1830 
L 3974 1830 
L 3974 1408 
z
" transform="scale(0.015625)"/>
       </defs>
       <use xlink:href="#STIXGeneral-Regular-2212" transform="translate(0 0.203125)"/>
       <use xlink:href="#STIXGeneral-Regular-30" transform="translate(68.499985 0.203125)"/>
       <use xlink:href="#STIXGeneral-Regular-2e" transform="translate(118.499969 0.203125)"/>
       <use xlink:href="#STIXGeneral-Regular-32" transform="translate(143.499954 0.203125)"/>
       <use xlink:href="#STIXGeneral-Regular-35" transform="translate(193.499939 0.203125)"/>
      </g>
     </g>
    </g>
    <g id="ytick_5">
     <g id="line2d_31">
      <g>
       <use xlink:href="#ma8c5f72067" x="263.478696" y="197.958278" style="fill: #323034; stroke: #323034; stroke-width: 0.8"/>
      </g>
     </g>
     <g id="text_7">
      <!-- $\mathdefault{0.00}$ -->
      <g style="fill: #323034" transform="translate(270.478696 203.422028)scale(0.16 -0.16)">
       <use xlink:href="#STIXGeneral-Regular-30" transform="translate(0 0.40625)"/>
       <use xlink:href="#STIXGeneral-Regular-2e" transform="translate(49.999985 0.40625)"/>
       <use xlink:href="#STIXGeneral-Regular-30" transform="translate(74.999969 0.40625)"/>
       <use xlink:href="#STIXGeneral-Regular-30" transform="translate(124.999954 0.40625)"/>
      </g>
     </g>
    </g>
    <g id="ytick_6">
     <g id="line2d_32">
      <g>
       <use xlink:href="#m2a8ab1800c" x="263.478696" y="249.879736" style="fill: #323034; stroke: #323034; stroke-width: 0.6"/>
      </g>
     </g>
    </g>
    <g id="ytick_7">
     <g id="line2d_33">
      <g>
       <use xlink:href="#m2a8ab1800c" x="263.478696" y="215.265431" style="fill: #323034; stroke: #323034; stroke-width: 0.6"/>
      </g>
     </g>
    </g>
    <g id="ytick_8">
     <g id="line2d_34">
      <g>
       <use xlink:href="#m2a8ab1800c" x="263.478696" y="180.651125" style="fill: #323034; stroke: #323034; stroke-width: 0.6"/>
      </g>
     </g>
    </g>
   </g>
   <g id="line2d_35">
    <path d="M 59.774297 199.416299 
L 60.439998 184.756337 
L 61.105698 180.030712 
L 61.771399 187.970329 
L 62.437099 215.667498 
L 63.1028 210.53765 
L 63.768501 207.425171 
L 64.434201 199.38485 
L 65.099902 184.616901 
L 65.765603 179.808691 
L 66.431303 188.579132 
L 67.097004 215.014747 
L 68.428405 207.434324 
L 69.094106 199.3666 
L 69.759807 184.592402 
L 70.425507 179.388166 
L 71.091208 189.124097 
L 71.756909 214.642707 
L 73.08831 207.32527 
L 73.754011 199.630737 
L 74.419711 184.53794 
L 75.085412 178.956546 
L 75.751113 189.424282 
L 76.416813 214.314846 
L 77.082514 211.836638 
L 77.748214 206.814481 
L 78.413915 199.933467 
L 79.079616 184.489927 
L 79.745316 178.5979 
L 80.411017 189.915603 
L 81.076718 214.192737 
L 81.742418 211.997256 
L 83.07382 200.240682 
L 83.73952 184.323386 
L 84.405221 178.548576 
L 85.070922 190.12155 
L 85.736622 214.658946 
L 86.402323 211.610567 
L 87.733724 200.437829 
L 88.399425 184.415459 
L 89.065126 178.384754 
L 89.730826 190.339569 
L 90.396527 215.470857 
L 91.062228 210.366004 
L 91.727928 206.203768 
L 92.393629 200.108417 
L 93.059329 184.989626 
L 93.72503 178.092711 
L 94.390731 190.607125 
L 95.056431 215.948881 
L 95.722132 209.533491 
L 96.387833 206.210532 
L 97.053533 199.900133 
L 97.719234 185.871699 
L 98.384935 177.433231 
L 99.050635 190.745396 
L 99.716336 216.120499 
L 100.382037 209.991065 
L 101.047737 205.547023 
L 101.713438 199.369074 
L 102.379139 186.894114 
L 103.044839 176.721316 
L 103.71054 190.859639 
L 104.376241 216.391252 
L 106.373342 198.663788 
L 107.704744 176.859682 
L 108.370444 190.650259 
L 109.036145 216.807523 
L 109.701846 211.256237 
L 110.367546 203.840792 
L 111.033247 198.490948 
L 112.364648 176.826296 
L 113.030349 190.899474 
L 113.69605 216.988336 
L 114.36175 211.479695 
L 115.027451 203.214491 
L 115.693152 198.280141 
L 117.024553 176.501913 
L 117.690254 191.504436 
L 118.355954 216.906381 
L 119.021655 211.760239 
L 119.687356 202.738499 
L 120.353056 198.031497 
L 121.018757 188.28658 
L 121.684457 176.134369 
L 122.350158 191.91217 
L 123.015859 217.189358 
L 123.681559 211.610583 
L 124.34726 202.591726 
L 125.012961 197.681824 
L 125.678661 188.108903 
L 126.344362 176.373003 
L 127.010063 192.803638 
L 127.675763 216.885449 
L 128.341464 211.329883 
L 129.007165 202.467838 
L 129.672865 197.626397 
L 131.004267 176.718253 
L 131.669967 193.397804 
L 132.335668 216.823544 
L 133.001369 211.099252 
L 133.667069 202.320735 
L 134.33277 197.505038 
L 135.664171 176.728121 
L 136.329872 193.570815 
L 136.995572 217.354677 
L 137.661273 210.614673 
L 138.326974 202.148213 
L 138.992674 197.617675 
L 140.324076 176.601474 
L 140.989776 193.890521 
L 141.655477 217.699475 
L 142.986878 201.92018 
L 143.652579 197.880775 
L 144.98398 176.458506 
L 145.649681 193.897638 
L 146.315382 218.486582 
L 146.981082 209.374261 
L 147.646783 201.906315 
L 148.312484 198.102146 
L 149.643885 176.213945 
L 150.309586 193.848173 
L 150.975286 219.60898 
L 151.640987 208.138953 
L 152.306687 202.078156 
L 152.972388 198.486013 
L 154.303789 176.074647 
L 154.96949 193.719974 
L 155.635191 221.213879 
L 156.300891 206.190947 
L 157.632293 198.832838 
L 158.963694 175.794828 
L 159.629395 194.02136 
L 160.295095 222.226977 
L 160.960796 204.663374 
L 161.626497 202.63743 
L 162.292197 199.627373 
L 163.623599 175.138912 
L 164.289299 194.739336 
L 164.955 223.127347 
L 165.6207 202.61779 
L 166.286401 203.916002 
L 166.952102 198.986029 
L 168.283503 174.720081 
L 168.949204 195.626266 
L 169.614904 223.767155 
L 170.280605 200.876653 
L 170.946306 204.598181 
L 171.612006 198.500882 
L 172.943408 174.738822 
L 173.609108 196.302801 
L 174.274809 224.671025 
L 174.94051 198.767918 
L 175.60621 205.596351 
L 176.271911 197.759626 
L 176.937612 187.646289 
L 177.603312 174.718166 
L 178.269013 196.813947 
L 178.934714 225.176801 
L 179.600414 198.008366 
L 180.266115 205.659133 
L 181.597516 187.768637 
L 182.263217 175.136527 
L 182.928917 196.951592 
L 183.594618 226.327478 
L 184.260319 196.273906 
L 184.926019 206.484733 
L 185.59172 196.146255 
L 186.257421 187.847778 
L 186.923121 175.583121 
L 187.588822 197.432195 
L 188.254523 226.374553 
L 188.920223 196.137856 
L 189.585924 206.244948 
L 190.251625 195.514043 
L 190.917325 188.036149 
L 191.583026 175.862202 
L 192.248727 197.812641 
L 192.914427 226.220989 
L 193.580128 196.595174 
L 194.245829 205.717867 
L 194.911529 194.841977 
L 195.57723 188.337605 
L 196.24293 176.430927 
L 196.908631 197.622042 
L 197.574332 226.09782 
L 198.240032 197.322668 
L 198.905733 205.217275 
L 199.571434 193.859136 
L 200.237134 188.806326 
L 200.902835 176.926088 
L 201.568536 197.768662 
L 202.234236 225.771734 
L 202.899937 197.959388 
L 203.565638 204.815914 
L 204.231338 192.756079 
L 204.897039 189.412431 
L 205.56274 177.502696 
L 206.22844 197.692015 
L 206.894141 225.550579 
L 207.559842 198.61219 
L 208.225542 204.332001 
L 208.891243 191.604086 
L 209.556944 190.232072 
L 210.222644 177.866011 
L 210.888345 197.828628 
L 211.554045 225.239343 
L 212.219746 199.084478 
L 212.885447 203.547876 
L 213.551147 191.405401 
L 214.216848 190.586359 
L 214.882549 178.221837 
L 215.548249 197.897498 
L 216.21395 224.956196 
L 216.879651 199.5906 
L 217.545351 202.819109 
L 218.211052 190.951515 
L 218.876753 191.198473 
L 219.542453 178.506398 
L 220.208154 197.964498 
L 220.873855 224.513572 
L 221.539555 200.208977 
L 222.205256 202.295496 
L 222.870957 190.971224 
L 223.536657 190.452769 
L 224.202358 179.943135 
L 224.868058 197.436576 
L 225.533759 224.210329 
L 226.19946 200.650884 
L 226.86516 202.025054 
L 227.530861 190.823228 
L 228.196562 189.922553 
L 228.862262 181.316527 
L 229.527963 196.889933 
L 230.193664 223.925516 
L 230.859364 200.896423 
L 231.525065 202.139513 
L 232.190766 190.422408 
L 232.856466 189.062834 
L 233.522167 183.504988 
L 234.187868 195.699995 
L 234.853568 224.011972 
L 235.519269 200.895328 
L 236.18497 202.050515 
L 236.85067 190.356072 
L 238.182072 186.13703 
L 238.847772 193.780541 
L 239.513473 224.539821 
L 240.179173 200.744094 
L 240.844874 201.897304 
L 241.510575 190.824289 
L 242.176275 187.539637 
L 242.841976 186.63668 
L 243.507677 193.467366 
L 244.173377 224.653555 
L 244.839078 200.546685 
L 245.504779 201.801015 
L 246.170479 191.454093 
L 246.83618 187.368865 
L 247.501881 185.693335 
L 248.167581 194.545537 
L 248.833282 224.294284 
L 249.498983 200.595439 
L 250.164683 201.519358 
L 250.830384 191.945964 
L 251.496085 187.189306 
L 252.161785 185.148543 
L 252.827486 195.275265 
L 253.493187 224.195861 
L 254.158887 200.366415 
L 254.824588 201.459391 
L 255.490288 192.236196 
L 256.155989 187.060084 
L 256.82169 184.804848 
L 257.48739 195.680348 
L 258.153091 224.333713 
L 258.818792 200.006677 
L 259.484492 201.561669 
L 260.150193 192.374734 
L 260.815894 186.933121 
L 261.481594 184.567273 
L 262.147295 196.084982 
L 262.812996 224.320091 
L 263.478696 199.747767 
L 263.478696 199.747767 
" clip-path="url(#p0b06c8aa31)" style="fill: none; stroke: #0000ff; stroke-opacity: 0.3; stroke-width: 3; stroke-linecap: square"/>
   </g>
   <g id="patch_7">
    <path d="M 263.478696 253.341167 
L 263.478696 170.266833 
" style="fill: none; stroke: #000000; stroke-width: 0.6; stroke-linejoin: miter; stroke-linecap: square"/>
   </g>
   <g id="patch_8">
    <path d="M 59.774297 253.341167 
L 263.478696 253.341167 
" style="fill: none; stroke: #000000; stroke-width: 0.6; stroke-linejoin: miter; stroke-linecap: square"/>
   </g>
   <g id="legend_2">
    <g id="patch_9">
     <path d="M 68.174297 247.341167 
L 144.436172 247.341167 
Q 146.836172 247.341167 146.836172 244.941167 
L 146.836172 233.936792 
Q 146.836172 231.536792 144.436172 231.536792 
L 68.174297 231.536792 
Q 65.774297 231.536792 65.774297 233.936792 
L 65.774297 244.941167 
Q 65.774297 247.341167 68.174297 247.341167 
z
" style="fill: #ffffff; opacity: 0.8; stroke: #e6e6e6; stroke-width: 0.8; stroke-linejoin: miter"/>
    </g>
    <g id="line2d_36">
     <path d="M 68.174297 238.136792 
L 80.174297 238.136792 
L 92.174297 238.136792 
" style="fill: none; stroke: #0000ff; stroke-opacity: 0.3; stroke-width: 3; stroke-linecap: square"/>
    </g>
    <g id="text_8">
     <!-- Seasonal -->
     <g style="fill: #323034" transform="translate(101.774297 242.336792)scale(0.12 -0.12)">
      <defs>
       <path id="STIXGeneral-Regular-53" d="M 3002 2963 
L 2842 2963 
Q 2733 3360 2579 3565 
Q 2189 4064 1651 4064 
Q 1357 4064 1181 3894 
Q 1005 3725 1005 3456 
Q 1005 3328 1069 3206 
Q 1133 3085 1206 2998 
Q 1280 2912 1465 2784 
Q 1651 2656 1766 2589 
Q 1882 2522 2150 2362 
Q 2669 2061 2905 1763 
Q 3142 1466 3142 1107 
Q 3142 576 2771 243 
Q 2400 -90 1837 -90 
Q 1421 -90 1082 58 
Q 915 128 781 128 
Q 704 128 653 70 
Q 602 13 602 -83 
L 461 -83 
L 275 1274 
L 416 1274 
Q 845 141 1734 141 
Q 2074 141 2285 342 
Q 2496 544 2496 858 
Q 2496 1158 2310 1363 
Q 2003 1696 1235 2106 
Q 454 2522 454 3206 
Q 454 3718 768 4022 
Q 1082 4326 1568 4326 
Q 1907 4326 2240 4186 
Q 2413 4109 2522 4109 
Q 2688 4109 2726 4326 
L 2861 4326 
L 3002 2963 
z
" transform="scale(0.015625)"/>
      </defs>
      <use xlink:href="#STIXGeneral-Regular-53"/>
      <use xlink:href="#STIXGeneral-Regular-65" x="55.599991"/>
      <use xlink:href="#STIXGeneral-Regular-61" x="99.999985"/>
      <use xlink:href="#STIXGeneral-Regular-73" x="144.399979"/>
      <use xlink:href="#STIXGeneral-Regular-6f" x="183.299973"/>
      <use xlink:href="#STIXGeneral-Regular-6e" x="233.299957"/>
      <use xlink:href="#STIXGeneral-Regular-61" x="283.299942"/>
      <use xlink:href="#STIXGeneral-Regular-6c" x="327.699936"/>
     </g>
    </g>
   </g>
  </g>
  <g id="axes_3">
   <g id="patch_10">
    <path d="M 59.774297 352.8755 
L 263.478696 352.8755 
L 263.478696 269.801167 
L 59.774297 269.801167 
z
" style="fill: #ffffff"/>
   </g>
   <g id="matplotlib.axis_5">
    <g id="xtick_23">
     <g id="line2d_37">
      <g>
       <use xlink:href="#m0bf81b6c23" x="59.774297" y="352.8755" style="fill: #323034; stroke: #323034; stroke-width: 0.8"/>
      </g>
     </g>
     <g id="text_9">
      <!-- Apr -->
      <g style="fill: #323034" transform="translate(47.334297 370.803)scale(0.16 -0.16)">
       <defs>
        <path id="STIXGeneral-Regular-41" d="M 4525 0 
L 2893 0 
L 2893 122 
Q 3149 122 3245 179 
Q 3334 224 3334 333 
Q 3334 499 3213 781 
L 2950 1382 
L 1274 1382 
L 979 653 
Q 922 506 922 384 
Q 922 237 1027 179 
Q 1133 122 1370 122 
L 1370 0 
L 96 0 
L 96 122 
Q 365 147 486 316 
Q 608 486 902 1190 
L 2221 4314 
L 2349 4314 
L 3923 710 
Q 4064 378 4176 262 
Q 4288 147 4525 122 
L 4525 0 
z
M 2861 1645 
L 2118 3405 
L 1382 1645 
L 2861 1645 
z
" transform="scale(0.015625)"/>
        <path id="STIXGeneral-Regular-70" d="M 1018 2931 
L 1018 2438 
Q 1421 2944 1939 2944 
Q 2406 2944 2707 2560 
Q 3008 2176 3008 1581 
Q 3008 883 2621 409 
Q 2234 -64 1664 -64 
Q 1466 -64 1328 -6 
Q 1190 51 1018 211 
L 1018 -794 
Q 1018 -1094 1120 -1180 
Q 1222 -1267 1581 -1274 
L 1581 -1389 
L 32 -1389 
L 32 -1280 
Q 314 -1254 397 -1171 
Q 480 -1088 480 -838 
L 480 2157 
Q 480 2381 429 2451 
Q 378 2522 218 2522 
Q 115 2522 58 2515 
L 58 2618 
Q 506 2752 979 2944 
L 1018 2931 
z
M 1018 2138 
L 1018 563 
Q 1018 422 1238 281 
Q 1459 141 1683 141 
Q 2029 141 2243 467 
Q 2458 794 2458 1325 
Q 2458 1888 2243 2224 
Q 2029 2560 1670 2560 
Q 1446 2560 1232 2419 
Q 1018 2278 1018 2138 
z
" transform="scale(0.015625)"/>
       </defs>
       <use xlink:href="#STIXGeneral-Regular-41"/>
       <use xlink:href="#STIXGeneral-Regular-70" x="72.199982"/>
       <use xlink:href="#STIXGeneral-Regular-72" x="122.199966"/>
      </g>
     </g>
    </g>
    <g id="xtick_24">
     <g id="line2d_38">
      <g>
       <use xlink:href="#m0bf81b6c23" x="79.745316" y="352.8755" style="fill: #323034; stroke: #323034; stroke-width: 0.8"/>
      </g>
     </g>
     <g id="text_10">
      <!-- May -->
      <g style="fill: #323034" transform="translate(65.080316 370.788)scale(0.16 -0.16)">
       <defs>
        <path id="STIXGeneral-Regular-4d" d="M 5530 0 
L 3738 0 
L 3738 122 
Q 4115 147 4214 265 
Q 4314 384 4314 787 
L 4314 3661 
L 2682 0 
L 2592 0 
L 979 3514 
L 979 966 
Q 979 448 1088 294 
Q 1197 141 1574 122 
L 1574 0 
L 77 0 
L 77 122 
Q 358 141 480 205 
Q 602 269 650 432 
Q 698 595 698 966 
L 698 3514 
Q 698 3878 589 3984 
Q 480 4090 90 4115 
L 90 4237 
L 1357 4237 
L 2835 1024 
L 4250 4237 
L 5523 4237 
L 5523 4115 
Q 5178 4109 5072 3993 
Q 4966 3878 4966 3520 
L 4966 717 
Q 4966 378 5072 262 
Q 5178 147 5530 122 
L 5530 0 
z
" transform="scale(0.015625)"/>
        <path id="STIXGeneral-Regular-79" d="M 3040 2880 
L 3040 2784 
Q 2925 2771 2854 2700 
Q 2784 2630 2720 2458 
L 1760 -160 
Q 1510 -838 1257 -1116 
Q 1005 -1395 640 -1395 
Q 435 -1395 313 -1289 
Q 192 -1184 192 -1024 
Q 192 -902 272 -816 
Q 352 -730 467 -730 
Q 653 -730 800 -813 
Q 883 -858 966 -858 
Q 1101 -858 1286 -576 
Q 1376 -448 1459 -211 
Q 1542 26 1542 115 
Q 1542 198 1274 762 
L 429 2566 
Q 346 2752 90 2790 
L 90 2880 
L 1402 2880 
L 1402 2784 
Q 1197 2778 1117 2739 
Q 1037 2701 1037 2611 
Q 1037 2541 1120 2349 
L 1837 749 
L 2458 2515 
Q 2483 2573 2483 2630 
Q 2483 2784 2189 2784 
L 2189 2880 
L 3040 2880 
z
" transform="scale(0.015625)"/>
       </defs>
       <use xlink:href="#STIXGeneral-Regular-4d"/>
       <use xlink:href="#STIXGeneral-Regular-61" x="88.899994"/>
       <use xlink:href="#STIXGeneral-Regular-79" x="133.299988"/>
      </g>
     </g>
    </g>
    <g id="xtick_25">
     <g id="line2d_39">
      <g>
       <use xlink:href="#m0bf81b6c23" x="100.382037" y="352.8755" style="fill: #323034; stroke: #323034; stroke-width: 0.8"/>
      </g>
     </g>
     <g id="text_11">
      <!-- Jun -->
      <g style="fill: #323034" transform="translate(89.398287 370.803)scale(0.16 -0.16)">
       <defs>
        <path id="STIXGeneral-Regular-4a" d="M 2266 4237 
L 2266 4115 
Q 1875 4083 1776 3984 
Q 1677 3885 1677 3514 
L 1677 1184 
Q 1677 -90 608 -90 
Q 314 -90 138 32 
Q -38 154 -38 371 
Q -38 499 54 601 
Q 147 704 275 704 
Q 486 704 589 435 
Q 602 403 621 348 
Q 640 294 649 265 
Q 659 237 678 208 
Q 698 179 723 166 
Q 749 154 787 154 
Q 928 154 976 253 
Q 1024 352 1024 602 
L 1024 3520 
Q 1024 3898 928 3990 
Q 832 4083 429 4115 
L 429 4237 
L 2266 4237 
z
" transform="scale(0.015625)"/>
        <path id="STIXGeneral-Regular-75" d="M 3072 320 
L 3072 230 
Q 2573 96 2195 -58 
L 2163 -38 
L 2163 486 
L 2150 486 
Q 1747 -64 1235 -64 
Q 870 -64 662 160 
Q 454 384 454 755 
L 454 2362 
Q 454 2598 371 2688 
Q 288 2778 58 2790 
L 58 2880 
L 992 2880 
L 992 813 
Q 992 595 1123 451 
Q 1254 307 1446 307 
Q 1760 307 1984 506 
Q 2067 582 2099 649 
Q 2131 717 2131 877 
L 2131 2355 
Q 2131 2605 2041 2678 
Q 1952 2752 1658 2771 
L 1658 2880 
L 2669 2880 
L 2669 685 
Q 2669 461 2742 390 
Q 2816 320 3034 320 
L 3072 320 
z
" transform="scale(0.015625)"/>
       </defs>
       <use xlink:href="#STIXGeneral-Regular-4a"/>
       <use xlink:href="#STIXGeneral-Regular-75" x="37.299988"/>
       <use xlink:href="#STIXGeneral-Regular-6e" x="87.299973"/>
      </g>
     </g>
    </g>
    <g id="xtick_26">
     <g id="line2d_40">
      <g>
       <use xlink:href="#m0bf81b6c23" x="120.353056" y="352.8755" style="fill: #323034; stroke: #323034; stroke-width: 0.8"/>
      </g>
     </g>
     <g id="text_12">
      <!-- Jul -->
      <g style="fill: #323034" transform="translate(111.145556 370.803)scale(0.16 -0.16)">
       <use xlink:href="#STIXGeneral-Regular-4a"/>
       <use xlink:href="#STIXGeneral-Regular-75" x="37.299988"/>
       <use xlink:href="#STIXGeneral-Regular-6c" x="87.299973"/>
      </g>
     </g>
    </g>
    <g id="xtick_27">
     <g id="line2d_41">
      <g>
       <use xlink:href="#m0bf81b6c23" x="140.989776" y="352.8755" style="fill: #323034; stroke: #323034; stroke-width: 0.8"/>
      </g>
     </g>
     <g id="text_13">
      <!-- Aug -->
      <g style="fill: #323034" transform="translate(127.213526 370.788)scale(0.16 -0.16)">
       <use xlink:href="#STIXGeneral-Regular-41"/>
       <use xlink:href="#STIXGeneral-Regular-75" x="72.199982"/>
       <use xlink:href="#STIXGeneral-Regular-67" x="122.199966"/>
      </g>
     </g>
    </g>
    <g id="xtick_28">
     <g id="line2d_42">
      <g>
       <use xlink:href="#m0bf81b6c23" x="161.626497" y="352.8755" style="fill: #323034; stroke: #323034; stroke-width: 0.8"/>
      </g>
     </g>
     <g id="text_14">
      <!-- Sep -->
      <g style="fill: #323034" transform="translate(149.626497 370.803)scale(0.16 -0.16)">
       <use xlink:href="#STIXGeneral-Regular-53"/>
       <use xlink:href="#STIXGeneral-Regular-65" x="55.599991"/>
       <use xlink:href="#STIXGeneral-Regular-70" x="99.999985"/>
      </g>
     </g>
    </g>
    <g id="xtick_29">
     <g id="line2d_43">
      <g>
       <use xlink:href="#m0bf81b6c23" x="181.597516" y="352.8755" style="fill: #323034; stroke: #323034; stroke-width: 0.8"/>
      </g>
     </g>
     <g id="text_15">
      <!-- Oct -->
      <g style="fill: #323034" transform="translate(170.045016 370.803)scale(0.16 -0.16)">
       <defs>
        <path id="STIXGeneral-Regular-74" d="M 1702 493 
L 1786 422 
Q 1478 -64 1011 -64 
Q 448 -64 448 749 
L 448 2675 
L 109 2675 
Q 83 2694 83 2720 
Q 83 2771 192 2842 
Q 435 2982 813 3526 
Q 826 3546 874 3606 
Q 922 3667 941 3706 
Q 986 3706 986 3622 
L 986 2880 
L 1632 2880 
L 1632 2675 
L 986 2675 
L 986 845 
Q 986 538 1062 403 
Q 1139 269 1318 269 
Q 1510 269 1702 493 
z
" transform="scale(0.015625)"/>
       </defs>
       <use xlink:href="#STIXGeneral-Regular-4f"/>
       <use xlink:href="#STIXGeneral-Regular-63" x="72.199982"/>
       <use xlink:href="#STIXGeneral-Regular-74" x="116.599976"/>
      </g>
     </g>
    </g>
    <g id="xtick_30">
     <g id="line2d_44">
      <g>
       <use xlink:href="#m0bf81b6c23" x="202.234236" y="352.8755" style="fill: #323034; stroke: #323034; stroke-width: 0.8"/>
      </g>
     </g>
     <g id="text_16">
      <!-- Nov -->
      <g style="fill: #323034" transform="translate(188.457986 370.803)scale(0.16 -0.16)">
       <defs>
        <path id="STIXGeneral-Regular-4e" d="M 4525 4237 
L 4525 4115 
Q 4198 4083 4102 4000 
Q 4000 3910 3958 3756 
Q 3917 3603 3917 3245 
L 3917 -70 
L 3802 -70 
L 979 3443 
L 979 960 
Q 979 474 1088 323 
Q 1197 173 1574 122 
L 1574 0 
L 77 0 
L 77 122 
Q 474 166 586 310 
Q 698 454 698 960 
L 698 3776 
Q 531 3981 416 4048 
Q 301 4115 77 4115 
L 77 4237 
L 1165 4237 
L 3635 1146 
L 3635 3322 
Q 3635 3808 3514 3949 
Q 3437 4032 3344 4061 
Q 3251 4090 3008 4115 
L 3008 4237 
L 4525 4237 
z
" transform="scale(0.015625)"/>
        <path id="STIXGeneral-Regular-76" d="M 3053 2880 
L 3053 2784 
Q 2906 2771 2835 2688 
Q 2765 2605 2637 2285 
L 1818 230 
Q 1690 -90 1638 -90 
Q 1587 -90 1523 77 
Q 1510 96 1497 141 
Q 1485 186 1472 211 
L 704 2048 
Q 499 2534 403 2652 
Q 307 2771 122 2784 
L 122 2880 
L 1376 2880 
L 1376 2784 
Q 1210 2771 1146 2732 
Q 1082 2694 1082 2611 
Q 1082 2509 1139 2368 
L 1792 730 
L 2426 2387 
Q 2464 2483 2464 2579 
Q 2464 2758 2163 2784 
L 2163 2880 
L 3053 2880 
z
" transform="scale(0.015625)"/>
       </defs>
       <use xlink:href="#STIXGeneral-Regular-4e"/>
       <use xlink:href="#STIXGeneral-Regular-6f" x="72.199982"/>
       <use xlink:href="#STIXGeneral-Regular-76" x="122.199966"/>
      </g>
     </g>
    </g>
    <g id="xtick_31">
     <g id="line2d_45">
      <g>
       <use xlink:href="#m0bf81b6c23" x="222.205256" y="352.8755" style="fill: #323034; stroke: #323034; stroke-width: 0.8"/>
      </g>
     </g>
     <g id="text_17">
      <!-- Dec -->
      <g style="fill: #323034" transform="translate(209.324006 370.803)scale(0.16 -0.16)">
       <defs>
        <path id="STIXGeneral-Regular-44" d="M 102 4237 
L 1830 4237 
Q 3078 4237 3750 3654 
Q 4384 3110 4384 2138 
Q 4384 966 3514 410 
Q 2880 0 1901 0 
L 102 0 
L 102 122 
Q 474 147 570 252 
Q 666 358 666 736 
L 666 3520 
Q 666 3891 570 3990 
Q 474 4090 102 4115 
L 102 4237 
z
M 1318 3731 
L 1318 538 
Q 1318 365 1379 301 
Q 1440 237 1626 237 
Q 2125 237 2432 307 
Q 2739 378 3021 570 
Q 3686 1018 3686 2099 
Q 3686 3027 3078 3558 
Q 2803 3802 2476 3901 
Q 2150 4000 1658 4000 
Q 1472 4000 1395 3942 
Q 1318 3885 1318 3731 
z
" transform="scale(0.015625)"/>
       </defs>
       <use xlink:href="#STIXGeneral-Regular-44"/>
       <use xlink:href="#STIXGeneral-Regular-65" x="72.199982"/>
       <use xlink:href="#STIXGeneral-Regular-63" x="116.599976"/>
      </g>
     </g>
    </g>
    <g id="xtick_32">
     <g id="line2d_46">
      <g>
       <use xlink:href="#m0bf81b6c23" x="242.841976" y="352.8755" style="fill: #323034; stroke: #323034; stroke-width: 0.8"/>
      </g>
     </g>
     <g id="text_18">
      <!-- Jan -->
      <g style="fill: #323034" transform="translate(232.305726 370.803)scale(0.16 -0.16)">
       <use xlink:href="#STIXGeneral-Regular-4a"/>
       <use xlink:href="#STIXGeneral-Regular-61" x="37.299988"/>
       <use xlink:href="#STIXGeneral-Regular-6e" x="81.699982"/>
      </g>
      <!-- 2021 -->
      <g style="fill: #323034" transform="translate(226.841976 387.3885)scale(0.16 -0.16)">
       <use xlink:href="#STIXGeneral-Regular-32"/>
       <use xlink:href="#STIXGeneral-Regular-30" x="49.999985"/>
       <use xlink:href="#STIXGeneral-Regular-32" x="99.999969"/>
       <use xlink:href="#STIXGeneral-Regular-31" x="149.999954"/>
      </g>
     </g>
    </g>
    <g id="xtick_33">
     <g id="line2d_47">
      <g>
       <use xlink:href="#m0bf81b6c23" x="263.478696" y="352.8755" style="fill: #323034; stroke: #323034; stroke-width: 0.8"/>
      </g>
     </g>
     <g id="text_19">
      <!-- Feb -->
      <g style="fill: #323034" transform="translate(251.478696 370.803)scale(0.16 -0.16)">
       <defs>
        <path id="STIXGeneral-Regular-46" d="M 3494 3322 
L 3334 3322 
Q 3264 3757 3094 3875 
Q 2925 3994 2349 3994 
L 1504 3994 
Q 1370 3994 1328 3946 
Q 1286 3898 1286 3744 
L 1286 2355 
L 2195 2355 
Q 2598 2355 2736 2470 
Q 2874 2586 2918 2963 
L 3066 2963 
L 3066 1472 
L 2918 1472 
Q 2880 1862 2745 1977 
Q 2611 2093 2195 2093 
L 1286 2093 
L 1286 717 
Q 1286 352 1392 246 
Q 1498 141 1869 122 
L 1869 0 
L 70 0 
L 70 122 
Q 435 147 534 259 
Q 634 371 634 787 
L 634 3526 
Q 634 3878 538 3984 
Q 442 4090 77 4115 
L 77 4237 
L 3462 4237 
L 3494 3322 
z
" transform="scale(0.015625)"/>
        <path id="STIXGeneral-Regular-62" d="M 979 4358 
L 979 2406 
Q 1082 2650 1315 2797 
Q 1549 2944 1843 2944 
Q 2349 2944 2672 2541 
Q 2995 2138 2995 1536 
Q 2995 832 2566 384 
Q 2138 -64 1498 -64 
Q 1107 -64 774 67 
Q 442 198 442 358 
L 442 3622 
Q 442 3859 384 3926 
Q 326 3994 128 3994 
Q 83 3994 19 3981 
L 19 4090 
L 211 4147 
Q 864 4346 947 4371 
L 979 4358 
z
M 979 2035 
L 979 474 
Q 979 326 1161 233 
Q 1344 141 1600 141 
Q 1978 141 2195 416 
Q 2432 710 2432 1261 
Q 2432 1888 2182 2240 
Q 1971 2541 1613 2541 
Q 1357 2541 1168 2390 
Q 979 2240 979 2035 
z
" transform="scale(0.015625)"/>
       </defs>
       <use xlink:href="#STIXGeneral-Regular-46"/>
       <use xlink:href="#STIXGeneral-Regular-65" x="55.599991"/>
       <use xlink:href="#STIXGeneral-Regular-62" x="99.999985"/>
      </g>
     </g>
    </g>
   </g>
   <g id="matplotlib.axis_6">
    <g id="ytick_9">
     <g id="line2d_48">
      <g>
       <use xlink:href="#ma8c5f72067" x="263.478696" y="352.8755" style="fill: #323034; stroke: #323034; stroke-width: 0.8"/>
      </g>
     </g>
     <g id="text_20">
      <!-- $\mathdefault{−1}$ -->
      <g style="fill: #323034" transform="translate(270.478696 358.33925)scale(0.16 -0.16)">
       <use xlink:href="#STIXGeneral-Regular-2212" transform="translate(0 0.40625)"/>
       <use xlink:href="#STIXGeneral-Regular-31" transform="translate(68.499985 0.40625)"/>
      </g>
     </g>
    </g>
    <g id="ytick_10">
     <g id="line2d_49">
      <g>
       <use xlink:href="#ma8c5f72067" x="263.478696" y="297.492611" style="fill: #323034; stroke: #323034; stroke-width: 0.8"/>
      </g>
     </g>
     <g id="text_21">
      <!-- $\mathdefault{0}$ -->
      <g style="fill: #323034" transform="translate(270.478696 302.956361)scale(0.16 -0.16)">
       <use xlink:href="#STIXGeneral-Regular-30" transform="translate(0 0.40625)"/>
      </g>
     </g>
    </g>
    <g id="ytick_11">
     <g id="line2d_50">
      <g>
       <use xlink:href="#m2a8ab1800c" x="263.478696" y="325.184056" style="fill: #323034; stroke: #323034; stroke-width: 0.6"/>
      </g>
     </g>
    </g>
    <g id="ytick_12">
     <g id="line2d_51">
      <g>
       <use xlink:href="#m2a8ab1800c" x="263.478696" y="269.801167" style="fill: #323034; stroke: #323034; stroke-width: 0.6"/>
      </g>
     </g>
    </g>
   </g>
   <g id="line2d_52">
    <path d="M 59.774297 299.690946 
L 60.439998 301.169512 
L 61.105698 299.456827 
L 61.771399 292.662738 
L 62.437099 299.802261 
L 63.1028 292.002332 
L 63.768501 294.586051 
L 64.434201 295.180929 
L 65.099902 296.07789 
L 65.765603 299.605397 
L 66.431303 298.589783 
L 67.097004 296.113143 
L 67.762705 300.061102 
L 68.428405 299.048547 
L 69.094106 295.330573 
L 69.759807 298.075565 
L 71.091208 301.940088 
L 71.756909 298.143108 
L 72.422609 295.357251 
L 73.08831 301.07129 
L 73.754011 297.590886 
L 75.085412 292.544269 
L 75.751113 291.764915 
L 76.416813 295.360073 
L 77.082514 303.664262 
L 79.079616 297.924772 
L 79.745316 293.364987 
L 80.411017 295.884609 
L 81.076718 291.872901 
L 81.742418 301.325993 
L 82.408119 298.252901 
L 83.07382 297.707442 
L 83.73952 294.64288 
L 84.405221 297.497207 
L 85.070922 297.731027 
L 85.736622 298.241153 
L 86.402323 306.663306 
L 87.068024 295.451376 
L 87.733724 300.298593 
L 88.399425 293.094493 
L 89.065126 296.924009 
L 89.730826 297.818966 
L 90.396527 299.847667 
L 91.062228 294.234745 
L 91.727928 298.052368 
L 92.393629 295.135285 
L 93.059329 294.990451 
L 93.72503 301.892658 
L 94.390731 300.385341 
L 95.056431 295.919072 
L 95.722132 300.878548 
L 96.387833 302.487228 
L 97.053533 305.193874 
L 97.719234 300.513213 
L 98.384935 299.044556 
L 99.050635 296.375849 
L 99.716336 293.157228 
L 100.382037 292.207523 
L 101.713438 301.062249 
L 102.379139 301.484634 
L 103.044839 289.645653 
L 103.71054 297.266955 
L 104.376241 297.481548 
L 105.041941 301.026575 
L 105.707642 301.793597 
L 106.373342 293.951299 
L 107.039043 298.295076 
L 107.704744 298.18481 
L 108.370444 294.143677 
L 109.036145 300.598333 
L 109.701846 301.664111 
L 110.367546 294.755205 
L 111.033247 297.342053 
L 112.364648 300.728704 
L 113.030349 295.737444 
L 113.69605 298.888143 
L 114.36175 296.024868 
L 115.027451 294.468119 
L 115.693152 296.351469 
L 116.358852 297.368825 
L 117.024553 299.161543 
L 117.690254 299.966432 
L 118.355954 296.25739 
L 119.021655 300.900523 
L 119.687356 295.69769 
L 120.353056 298.029664 
L 121.018757 298.049421 
L 121.684457 303.030389 
L 122.350158 305.446454 
L 123.015859 302.495245 
L 123.681559 302.550494 
L 124.34726 299.606573 
L 125.012961 297.186424 
L 125.678661 301.500633 
L 126.344362 299.916767 
L 127.010063 300.77299 
L 127.675763 294.824875 
L 128.341464 294.415471 
L 129.007165 295.151991 
L 129.672865 295.357193 
L 130.338566 294.053425 
L 131.004267 302.269017 
L 131.669967 302.80877 
L 132.335668 293.709604 
L 133.001369 298.183255 
L 133.667069 296.844808 
L 134.33277 294.924605 
L 134.998471 298.359866 
L 135.664171 299.638136 
L 136.329872 297.791983 
L 136.995572 299.303218 
L 137.661273 296.549815 
L 138.326974 295.659491 
L 138.992674 293.498666 
L 139.658375 294.781454 
L 140.989776 300.795207 
L 141.655477 296.461113 
L 142.321178 302.250099 
L 142.986878 298.104772 
L 143.652579 298.861107 
L 144.31828 298.662389 
L 144.98398 299.189331 
L 145.649681 297.391107 
L 146.315382 294.297901 
L 146.981082 298.878472 
L 147.646783 294.348427 
L 148.312484 294.068621 
L 148.978184 297.507868 
L 149.643885 295.58713 
L 150.309586 296.075569 
L 150.975286 294.76203 
L 151.640987 304.491458 
L 152.306687 297.909413 
L 152.972388 298.608657 
L 153.638089 298.460107 
L 154.303789 298.774448 
L 154.96949 295.872657 
L 155.635191 302.802745 
L 156.300891 296.188347 
L 156.966592 299.196351 
L 157.632293 292.576021 
L 158.963694 299.537929 
L 159.629395 294.265778 
L 160.295095 298.528092 
L 160.960796 300.210375 
L 161.626497 290.037013 
L 162.292197 307.540337 
L 162.957898 292.180844 
L 163.623599 289.696128 
L 164.289299 292.637553 
L 164.955 299.445804 
L 165.6207 316.729074 
L 166.286401 308.103262 
L 166.952102 302.266328 
L 167.617802 300.004226 
L 168.283503 293.273383 
L 168.949204 296.557217 
L 169.614904 295.025757 
L 170.280605 299.537853 
L 170.946306 295.636769 
L 171.612006 298.967733 
L 172.277707 296.437166 
L 172.943408 298.103974 
L 173.609108 298.869103 
L 174.274809 295.848988 
L 174.94051 283.717742 
L 175.60621 302.465131 
L 176.271911 299.804391 
L 176.937612 299.179729 
L 177.603312 293.905444 
L 178.269013 298.678926 
L 178.934714 294.904123 
L 179.600414 305.88911 
L 180.266115 294.56147 
L 180.931815 300.692363 
L 181.597516 299.756143 
L 182.263217 297.831063 
L 182.928917 296.552116 
L 183.594618 303.122436 
L 184.260319 284.434712 
L 184.926019 302.329658 
L 185.59172 295.841242 
L 186.257421 296.87955 
L 186.923121 300.417795 
L 187.588822 300.122197 
L 188.254523 297.534297 
L 188.920223 306.792847 
L 189.585924 296.754853 
L 190.251625 296.579992 
L 190.917325 295.492981 
L 191.583026 296.994141 
L 192.248727 305.124351 
L 193.580128 295.941479 
L 194.245829 297.881342 
L 194.911529 300.427459 
L 195.57723 295.860903 
L 196.24293 295.12252 
L 196.908631 292.700496 
L 197.574332 297.996396 
L 198.240032 298.648181 
L 198.905733 297.222438 
L 199.571434 298.067769 
L 200.237134 296.161734 
L 200.902835 297.400007 
L 201.568536 300.502345 
L 202.234236 298.494759 
L 202.899937 298.888705 
L 203.565638 299.650709 
L 204.231338 298.523371 
L 204.897039 296.276042 
L 205.56274 298.915879 
L 206.22844 296.674113 
L 206.894141 299.313223 
L 207.559842 299.890635 
L 208.225542 296.336641 
L 208.891243 302.350173 
L 209.556944 297.30505 
L 210.222644 298.047867 
L 210.888345 298.619273 
L 211.554045 297.640259 
L 212.219746 297.304138 
L 212.885447 297.742367 
L 213.551147 299.447558 
L 214.216848 295.311997 
L 214.882549 297.077302 
L 216.21395 297.303044 
L 216.879651 293.744597 
L 217.545351 292.755342 
L 218.211052 296.461447 
L 218.876753 327.44514 
L 219.542453 294.475652 
L 220.208154 304.314373 
L 220.873855 300.537151 
L 221.539555 299.949905 
L 222.205256 295.323785 
L 222.870957 296.491949 
L 223.536657 293.821871 
L 224.202358 296.083659 
L 224.868058 296.89566 
L 225.533759 297.279201 
L 226.19946 298.084544 
L 226.86516 294.395655 
L 227.530861 299.515973 
L 228.196562 298.849908 
L 228.862262 290.642512 
L 229.527963 301.089541 
L 230.193664 296.813531 
L 230.859364 301.034734 
L 231.525065 299.61121 
L 232.190766 293.531178 
L 232.856466 295.106469 
L 233.522167 293.505188 
L 234.187868 302.056116 
L 234.853568 293.91068 
L 235.519269 295.867381 
L 236.18497 294.387887 
L 236.85067 291.438763 
L 237.516371 300.723888 
L 238.182072 337.292007 
L 238.847772 292.179338 
L 239.513473 300.267889 
L 240.179173 298.878598 
L 240.844874 296.43251 
L 241.510575 295.28918 
L 242.176275 297.844104 
L 242.841976 324.937414 
L 243.507677 286.128095 
L 244.173377 295.600844 
L 244.839078 294.247975 
L 245.504779 298.529007 
L 246.170479 298.567554 
L 247.501881 292.129761 
L 248.167581 297.931973 
L 248.833282 295.759418 
L 249.498983 299.556892 
L 250.164683 296.996876 
L 250.830384 299.510642 
L 251.496085 297.409526 
L 252.161785 296.46048 
L 252.827486 300.113908 
L 253.493187 296.33719 
L 254.158887 314.406494 
L 254.824588 296.607262 
L 255.490288 298.959802 
L 256.82169 296.772951 
L 258.153091 299.485088 
L 258.818792 297.369279 
L 259.484492 297.561096 
L 260.150193 298.119764 
L 260.815894 295.507731 
L 261.481594 295.801487 
L 262.147295 301.532595 
L 263.478696 294.784911 
L 263.478696 294.784911 
" clip-path="url(#p2ed000d8cf)" style="fill: none; stroke: #ff0000; stroke-opacity: 0.4; stroke-width: 3; stroke-linecap: square"/>
   </g>
   <g id="patch_11">
    <path d="M 263.478696 352.8755 
L 263.478696 269.801167 
" style="fill: none; stroke: #000000; stroke-width: 0.6; stroke-linejoin: miter; stroke-linecap: square"/>
   </g>
   <g id="patch_12">
    <path d="M 59.774297 352.8755 
L 263.478696 352.8755 
" style="fill: none; stroke: #000000; stroke-width: 0.6; stroke-linejoin: miter; stroke-linecap: square"/>
   </g>
   <g id="legend_3">
    <g id="patch_13">
     <path d="M 68.174297 346.8755 
L 127.092422 346.8755 
Q 129.492422 346.8755 129.492422 344.4755 
L 129.492422 333.471125 
Q 129.492422 331.071125 127.092422 331.071125 
L 68.174297 331.071125 
Q 65.774297 331.071125 65.774297 333.471125 
L 65.774297 344.4755 
Q 65.774297 346.8755 68.174297 346.8755 
z
" style="fill: #ffffff; opacity: 0.8; stroke: #e6e6e6; stroke-width: 0.8; stroke-linejoin: miter"/>
    </g>
    <g id="line2d_53">
     <path d="M 68.174297 337.671125 
L 80.174297 337.671125 
L 92.174297 337.671125 
" style="fill: none; stroke: #ff0000; stroke-opacity: 0.4; stroke-width: 3; stroke-linecap: square"/>
    </g>
    <g id="text_22">
     <!-- Error -->
     <g style="fill: #323034" transform="translate(101.774297 341.871125)scale(0.12 -0.12)">
      <defs>
       <path id="STIXGeneral-Regular-45" d="M 3821 1082 
L 3526 0 
L 77 0 
L 77 122 
Q 442 147 538 252 
Q 634 358 634 730 
L 634 3520 
Q 634 3878 534 3987 
Q 435 4096 77 4115 
L 77 4237 
L 3469 4237 
L 3494 3322 
L 3334 3322 
Q 3264 3750 3085 3872 
Q 2906 3994 2349 3994 
L 1510 3994 
Q 1370 3994 1328 3952 
Q 1286 3910 1286 3763 
L 1286 2355 
L 2253 2355 
Q 2656 2355 2787 2470 
Q 2918 2586 2976 2970 
L 3123 2970 
L 3123 1472 
L 2976 1472 
Q 2918 1875 2790 1984 
Q 2662 2093 2253 2093 
L 1286 2093 
L 1286 538 
Q 1286 346 1420 291 
Q 1555 237 1933 237 
L 2163 237 
Q 2848 237 3136 403 
Q 3424 570 3642 1082 
L 3821 1082 
z
" transform="scale(0.015625)"/>
      </defs>
      <use xlink:href="#STIXGeneral-Regular-45"/>
      <use xlink:href="#STIXGeneral-Regular-72" x="61.099991"/>
      <use xlink:href="#STIXGeneral-Regular-72" x="94.399979"/>
      <use xlink:href="#STIXGeneral-Regular-6f" x="127.699966"/>
      <use xlink:href="#STIXGeneral-Regular-72" x="177.699951"/>
     </g>
    </g>
   </g>
  </g>
  <g id="text_23">
   <!-- Unobserved Components (smooth trend) -->
   <g style="fill: #323034" transform="translate(7.2 21.542344)scale(0.21 -0.21)">
    <defs>
     <path id="STIXGeneral-Regular-55" d="M 4512 4237 
L 4512 4115 
Q 4122 4077 4016 3926 
Q 3910 3776 3910 3302 
L 3910 1670 
Q 3910 1178 3840 896 
Q 3770 614 3565 378 
Q 3155 -90 2272 -90 
Q 1574 -90 1184 205 
Q 666 589 666 1594 
L 666 3578 
Q 666 3898 566 3994 
Q 467 4090 90 4115 
L 90 4237 
L 1901 4237 
L 1901 4115 
Q 1517 4083 1417 3977 
Q 1318 3872 1318 3514 
L 1318 1517 
Q 1318 1101 1369 877 
Q 1421 653 1600 480 
Q 1901 192 2419 192 
Q 3066 192 3392 570 
Q 3539 749 3584 963 
Q 3629 1178 3629 1600 
L 3629 3283 
Q 3629 3782 3520 3936 
Q 3411 4090 3027 4115 
L 3027 4237 
L 4512 4237 
z
" transform="scale(0.015625)"/>
     <path id="STIXGeneral-Regular-43" d="M 3930 838 
L 4051 723 
Q 3482 -90 2304 -90 
Q 1376 -90 794 480 
Q 179 1082 179 2080 
Q 179 3014 755 3661 
Q 1357 4326 2310 4326 
Q 2720 4326 3072 4230 
Q 3475 4115 3514 4115 
Q 3725 4115 3782 4326 
L 3910 4326 
L 3968 2874 
L 3821 2874 
Q 3718 3334 3488 3584 
Q 3034 4070 2458 4070 
Q 1747 4070 1334 3548 
Q 922 3027 922 2182 
Q 922 1152 1382 653 
Q 1811 192 2522 192 
Q 2944 192 3251 339 
Q 3558 486 3930 838 
z
" transform="scale(0.015625)"/>
     <path id="STIXGeneral-Regular-6d" d="M 4960 0 
L 3565 0 
L 3565 96 
Q 3834 122 3907 208 
Q 3981 294 3981 576 
L 3981 1894 
Q 3981 2278 3869 2444 
Q 3757 2611 3488 2611 
Q 3264 2611 3107 2521 
Q 2950 2432 2803 2221 
L 2803 608 
Q 2803 301 2896 201 
Q 2989 102 3264 96 
L 3264 0 
L 1830 0 
L 1830 96 
Q 2112 115 2189 188 
Q 2266 262 2266 550 
L 2266 1901 
Q 2266 2611 1850 2611 
Q 1670 2611 1468 2531 
Q 1267 2451 1171 2336 
Q 1088 2240 1088 2227 
L 1088 448 
Q 1088 243 1177 176 
Q 1267 109 1523 96 
L 1523 0 
L 102 0 
L 102 96 
Q 371 102 460 195 
Q 550 288 550 563 
L 550 2150 
Q 550 2387 499 2480 
Q 448 2573 326 2573 
Q 230 2573 122 2547 
L 122 2656 
Q 557 2778 1011 2944 
L 1062 2925 
L 1062 2451 
L 1075 2451 
Q 1363 2752 1584 2848 
Q 1805 2944 2054 2944 
Q 2560 2944 2733 2406 
Q 3232 2944 3776 2944 
Q 4518 2944 4518 1792 
L 4518 493 
Q 4518 282 4582 202 
Q 4646 122 4794 109 
L 4960 96 
L 4960 0 
z
" transform="scale(0.015625)"/>
     <path id="STIXGeneral-Regular-28" d="M 1946 -1030 
L 1869 -1133 
Q 1126 -710 716 32 
Q 307 774 307 1613 
Q 307 3386 1888 4326 
L 1946 4224 
Q 1293 3667 1075 3126 
Q 858 2586 858 1632 
Q 858 685 1082 96 
Q 1306 -493 1946 -1030 
z
" transform="scale(0.015625)"/>
     <path id="STIXGeneral-Regular-68" d="M 3117 0 
L 1760 0 
L 1760 96 
Q 2042 128 2118 224 
Q 2195 320 2195 653 
L 2195 1920 
Q 2195 2598 1722 2598 
Q 1530 2598 1370 2508 
Q 1210 2419 1005 2195 
L 1005 653 
Q 1005 320 1081 224 
Q 1158 128 1440 96 
L 1440 0 
L 58 0 
L 58 96 
Q 333 134 400 224 
Q 467 314 467 653 
L 467 3667 
Q 467 3872 406 3933 
Q 346 3994 141 3994 
Q 83 3994 64 3987 
L 64 4090 
L 237 4141 
Q 730 4288 973 4371 
L 1005 4352 
L 1005 2406 
Q 1229 2694 1446 2819 
Q 1664 2944 1946 2944 
Q 2733 2944 2733 1926 
L 2733 653 
Q 2733 320 2793 233 
Q 2854 147 3117 96 
L 3117 0 
z
" transform="scale(0.015625)"/>
     <path id="STIXGeneral-Regular-29" d="M 186 4224 
L 262 4326 
Q 992 3891 1408 3148 
Q 1824 2406 1824 1581 
Q 1824 -166 243 -1133 
L 186 -1030 
Q 845 -486 1059 54 
Q 1274 595 1274 1562 
Q 1274 2534 1059 3120 
Q 845 3706 186 4224 
z
" transform="scale(0.015625)"/>
    </defs>
    <use xlink:href="#STIXGeneral-Regular-55"/>
    <use xlink:href="#STIXGeneral-Regular-6e" x="72.199982"/>
    <use xlink:href="#STIXGeneral-Regular-6f" x="122.199966"/>
    <use xlink:href="#STIXGeneral-Regular-62" x="172.199951"/>
    <use xlink:href="#STIXGeneral-Regular-73" x="222.199936"/>
    <use xlink:href="#STIXGeneral-Regular-65" x="261.09993"/>
    <use xlink:href="#STIXGeneral-Regular-72" x="305.499924"/>
    <use xlink:href="#STIXGeneral-Regular-76" x="338.799911"/>
    <use xlink:href="#STIXGeneral-Regular-65" x="388.799896"/>
    <use xlink:href="#STIXGeneral-Regular-64" x="433.19989"/>
    <use xlink:href="#STIXGeneral-Regular-20" x="483.199875"/>
    <use xlink:href="#STIXGeneral-Regular-43" x="508.19986"/>
    <use xlink:href="#STIXGeneral-Regular-6f" x="574.899857"/>
    <use xlink:href="#STIXGeneral-Regular-6d" x="624.899841"/>
    <use xlink:href="#STIXGeneral-Regular-70" x="702.699829"/>
    <use xlink:href="#STIXGeneral-Regular-6f" x="752.699814"/>
    <use xlink:href="#STIXGeneral-Regular-6e" x="802.699799"/>
    <use xlink:href="#STIXGeneral-Regular-65" x="852.699783"/>
    <use xlink:href="#STIXGeneral-Regular-6e" x="897.099777"/>
    <use xlink:href="#STIXGeneral-Regular-74" x="947.099762"/>
    <use xlink:href="#STIXGeneral-Regular-73" x="974.89975"/>
    <use xlink:href="#STIXGeneral-Regular-20" x="1013.799744"/>
    <use xlink:href="#STIXGeneral-Regular-28" x="1038.799728"/>
    <use xlink:href="#STIXGeneral-Regular-73" x="1072.099716"/>
    <use xlink:href="#STIXGeneral-Regular-6d" x="1110.99971"/>
    <use xlink:href="#STIXGeneral-Regular-6f" x="1188.799698"/>
    <use xlink:href="#STIXGeneral-Regular-6f" x="1238.799683"/>
    <use xlink:href="#STIXGeneral-Regular-74" x="1288.799667"/>
    <use xlink:href="#STIXGeneral-Regular-68" x="1316.599655"/>
    <use xlink:href="#STIXGeneral-Regular-20" x="1366.59964"/>
    <use xlink:href="#STIXGeneral-Regular-74" x="1391.599625"/>
    <use xlink:href="#STIXGeneral-Regular-72" x="1419.399612"/>
    <use xlink:href="#STIXGeneral-Regular-65" x="1452.6996"/>
    <use xlink:href="#STIXGeneral-Regular-6e" x="1497.099594"/>
    <use xlink:href="#STIXGeneral-Regular-64" x="1547.099579"/>
    <use xlink:href="#STIXGeneral-Regular-29" x="1597.099564"/>
   </g>
  </g>
 </g>
 <defs>
  <clipPath id="pdde0f6c513">
   <rect x="59.774297" y="70.7325" width="203.704399" height="83.074333"/>
  </clipPath>
  <clipPath id="p0b06c8aa31">
   <rect x="59.774297" y="170.266833" width="203.704399" height="83.074333"/>
  </clipPath>
  <clipPath id="p2ed000d8cf">
   <rect x="59.774297" y="269.801167" width="203.704399" height="83.074333"/>
  </clipPath>
 </defs>
</svg>
