<?xml version="1.0" encoding="utf-8" standalone="no"?>
<!DOCTYPE svg PUBLIC "-//W3C//DTD SVG 1.1//EN"
  "http://www.w3.org/Graphics/SVG/1.1/DTD/svg11.dtd">
<svg xmlns:xlink="http://www.w3.org/1999/xlink" width="307.875937pt" height="398.054625pt" viewBox="0 0 307.875937 398.054625" xmlns="http://www.w3.org/2000/svg" version="1.1">
 <metadata>
  <rdf:RDF xmlns:dc="http://purl.org/dc/elements/1.1/" xmlns:cc="http://creativecommons.org/ns#" xmlns:rdf="http://www.w3.org/1999/02/22-rdf-syntax-ns#">
   <cc:Work>
    <dc:type rdf:resource="http://purl.org/dc/dcmitype/StillImage"/>
    <dc:date>2022-09-16T16:55:12.554740</dc:date>
    <dc:format>image/svg+xml</dc:format>
    <dc:creator>
     <cc:Agent>
      <dc:title>Matplotlib v3.5.3, https://matplotlib.org/</dc:title>
     </cc:Agent>
    </dc:creator>
   </cc:Work>
  </rdf:RDF>
 </metadata>
 <defs>
  <style type="text/css">*{stroke-linejoin: round; stroke-linecap: butt}</style>
 </defs>
 <g id="figure_1">
  <g id="patch_1">
   <path d="M 0 398.054625 
L 307.875937 398.054625 
L 307.875937 0 
L 0 0 
z
" style="fill: #ffffff"/>
  </g>
  <g id="axes_1">
   <g id="patch_2">
    <path d="M 30.097969 148.929333 
L 250.715469 148.929333 
L 250.715469 61.71 
L 30.097969 61.71 
z
" style="fill: #ffffff"/>
   </g>
   <g id="matplotlib.axis_1">
    <g id="xtick_1">
     <g id="line2d_1">
      <defs>
       <path id="m8de5b9246c" d="M 0 0 
L 0 3.5 
" style="stroke: #323034; stroke-width: 0.8"/>
      </defs>
      <g>
       <use xlink:href="#m8de5b9246c" x="30.097969" y="148.929333" style="fill: #323034; stroke: #323034; stroke-width: 0.8"/>
      </g>
     </g>
    </g>
    <g id="xtick_2">
     <g id="line2d_2">
      <g>
       <use xlink:href="#m8de5b9246c" x="51.727135" y="148.929333" style="fill: #323034; stroke: #323034; stroke-width: 0.8"/>
      </g>
     </g>
    </g>
    <g id="xtick_3">
     <g id="line2d_3">
      <g>
       <use xlink:href="#m8de5b9246c" x="74.077274" y="148.929333" style="fill: #323034; stroke: #323034; stroke-width: 0.8"/>
      </g>
     </g>
    </g>
    <g id="xtick_4">
     <g id="line2d_4">
      <g>
       <use xlink:href="#m8de5b9246c" x="95.706441" y="148.929333" style="fill: #323034; stroke: #323034; stroke-width: 0.8"/>
      </g>
     </g>
    </g>
    <g id="xtick_5">
     <g id="line2d_5">
      <g>
       <use xlink:href="#m8de5b9246c" x="118.05658" y="148.929333" style="fill: #323034; stroke: #323034; stroke-width: 0.8"/>
      </g>
     </g>
    </g>
    <g id="xtick_6">
     <g id="line2d_6">
      <g>
       <use xlink:href="#m8de5b9246c" x="140.406719" y="148.929333" style="fill: #323034; stroke: #323034; stroke-width: 0.8"/>
      </g>
     </g>
    </g>
    <g id="xtick_7">
     <g id="line2d_7">
      <g>
       <use xlink:href="#m8de5b9246c" x="162.035885" y="148.929333" style="fill: #323034; stroke: #323034; stroke-width: 0.8"/>
      </g>
     </g>
    </g>
    <g id="xtick_8">
     <g id="line2d_8">
      <g>
       <use xlink:href="#m8de5b9246c" x="184.386024" y="148.929333" style="fill: #323034; stroke: #323034; stroke-width: 0.8"/>
      </g>
     </g>
    </g>
    <g id="xtick_9">
     <g id="line2d_9">
      <g>
       <use xlink:href="#m8de5b9246c" x="206.015191" y="148.929333" style="fill: #323034; stroke: #323034; stroke-width: 0.8"/>
      </g>
     </g>
    </g>
    <g id="xtick_10">
     <g id="line2d_10">
      <g>
       <use xlink:href="#m8de5b9246c" x="228.36533" y="148.929333" style="fill: #323034; stroke: #323034; stroke-width: 0.8"/>
      </g>
     </g>
    </g>
    <g id="xtick_11">
     <g id="line2d_11">
      <g>
       <use xlink:href="#m8de5b9246c" x="250.715469" y="148.929333" style="fill: #323034; stroke: #323034; stroke-width: 0.8"/>
      </g>
     </g>
    </g>
   </g>
   <g id="matplotlib.axis_2">
    <g id="ytick_1">
     <g id="line2d_12">
      <defs>
       <path id="m86694ad8c7" d="M 0 0 
L 3.5 0 
" style="stroke: #323034; stroke-width: 0.8"/>
      </defs>
      <g>
       <use xlink:href="#m86694ad8c7" x="250.715469" y="127.1245" style="fill: #323034; stroke: #323034; stroke-width: 0.8"/>
      </g>
     </g>
     <g id="text_1">
      <!-- $\mathdefault{10}$ -->
      <g style="fill: #323034" transform="translate(257.715469 131.222312)scale(0.12 -0.12)">
       <defs>
        <path id="STIXGeneral-Regular-31" d="M 2522 0 
L 755 0 
L 755 96 
Q 1107 115 1235 227 
Q 1363 339 1363 608 
L 1363 3482 
Q 1363 3795 1171 3795 
Q 1082 3795 883 3718 
L 710 3654 
L 710 3744 
L 1856 4326 
L 1914 4307 
L 1914 486 
Q 1914 275 2042 185 
Q 2170 96 2522 96 
L 2522 0 
z
" transform="scale(0.015625)"/>
        <path id="STIXGeneral-Regular-30" d="M 3046 2112 
Q 3046 1683 2963 1302 
Q 2880 922 2717 602 
Q 2554 282 2266 96 
Q 1978 -90 1600 -90 
Q 1210 -90 915 108 
Q 621 307 461 640 
Q 301 973 227 1350 
Q 154 1728 154 2150 
Q 154 2746 301 3222 
Q 448 3699 790 4012 
Q 1133 4326 1626 4326 
Q 2253 4326 2649 3712 
Q 3046 3098 3046 2112 
z
M 2432 2080 
Q 2432 3091 2217 3625 
Q 2003 4160 1587 4160 
Q 1190 4160 979 3622 
Q 768 3085 768 2106 
Q 768 1120 979 598 
Q 1190 77 1600 77 
Q 2003 77 2217 598 
Q 2432 1120 2432 2080 
z
" transform="scale(0.015625)"/>
       </defs>
       <use xlink:href="#STIXGeneral-Regular-31" transform="translate(0 0.40625)"/>
       <use xlink:href="#STIXGeneral-Regular-30" transform="translate(49.999985 0.40625)"/>
      </g>
     </g>
    </g>
    <g id="ytick_2">
     <g id="line2d_13">
      <g>
       <use xlink:href="#m86694ad8c7" x="250.715469" y="83.514833" style="fill: #323034; stroke: #323034; stroke-width: 0.8"/>
      </g>
     </g>
     <g id="text_2">
      <!-- $\mathdefault{12}$ -->
      <g style="fill: #323034" transform="translate(257.715469 87.612646)scale(0.12 -0.12)">
       <defs>
        <path id="STIXGeneral-Regular-32" d="M 3034 877 
L 2688 0 
L 186 0 
L 186 77 
L 1325 1286 
Q 1773 1754 1965 2144 
Q 2157 2534 2157 2950 
Q 2157 3379 1920 3616 
Q 1683 3853 1267 3853 
Q 922 3853 720 3673 
Q 518 3494 326 3021 
L 192 3053 
Q 301 3648 630 3987 
Q 960 4326 1523 4326 
Q 2054 4326 2380 4006 
Q 2707 3686 2707 3200 
Q 2707 2477 1888 1613 
L 832 486 
L 2330 486 
Q 2541 486 2665 569 
Q 2790 653 2944 915 
L 3034 877 
z
" transform="scale(0.015625)"/>
       </defs>
       <use xlink:href="#STIXGeneral-Regular-31" transform="translate(0 0.40625)"/>
       <use xlink:href="#STIXGeneral-Regular-32" transform="translate(49.999985 0.40625)"/>
      </g>
     </g>
    </g>
    <g id="ytick_3">
     <g id="line2d_14">
      <defs>
       <path id="m3f3335ed0c" d="M 0 0 
L 2 0 
" style="stroke: #323034; stroke-width: 0.6"/>
      </defs>
      <g>
       <use xlink:href="#m3f3335ed0c" x="250.715469" y="105.319667" style="fill: #323034; stroke: #323034; stroke-width: 0.6"/>
      </g>
     </g>
    </g>
    <g id="ytick_4">
     <g id="line2d_15">
      <g>
       <use xlink:href="#m3f3335ed0c" x="250.715469" y="61.71" style="fill: #323034; stroke: #323034; stroke-width: 0.6"/>
      </g>
     </g>
    </g>
   </g>
   <g id="line2d_16">
    <path d="M 30.097969 121.647024 
L 32.260885 120.43938 
L 33.70283 119.912226 
L 35.144774 119.788733 
L 36.586719 120.025575 
L 40.912552 121.121559 
L 42.354497 121.224937 
L 44.517413 121.03553 
L 45.959358 120.900056 
L 47.401302 120.997548 
L 49.564219 121.608559 
L 51.727135 122.351891 
L 53.16908 123.046728 
L 58.215885 125.961386 
L 59.65783 126.408094 
L 61.099774 126.58035 
L 69.030469 127.076477 
L 71.193385 127.363009 
L 74.798247 127.5187 
L 78.403108 127.894075 
L 79.845052 127.78875 
L 81.286997 127.340796 
L 82.728941 126.54355 
L 84.170885 125.365405 
L 85.61283 123.774994 
L 87.054774 121.84253 
L 89.938663 117.352236 
L 93.543524 111.886718 
L 95.706441 109.036362 
L 97.148385 107.588974 
L 98.59033 106.660893 
L 105.07908 103.538855 
L 106.521024 103.183141 
L 108.683941 102.980851 
L 110.125885 103.003876 
L 111.56783 103.192038 
L 113.730747 103.716245 
L 115.172691 104.231687 
L 116.614635 104.950842 
L 119.498524 106.572664 
L 120.940469 107.157053 
L 125.987274 108.784536 
L 127.429219 109.639141 
L 131.03408 112.007867 
L 132.476024 112.622423 
L 133.917969 112.999206 
L 139.685747 113.994989 
L 141.848663 114.722837 
L 144.732552 115.911755 
L 145.453524 116.055059 
L 146.174497 116.050103 
L 147.616441 115.657817 
L 149.779358 114.616638 
L 152.663247 113.155908 
L 154.105191 112.63774 
L 155.547135 112.424895 
L 159.872969 112.290405 
L 161.314913 111.895548 
L 162.756858 111.202466 
L 166.361719 108.907069 
L 169.96658 106.756716 
L 172.850469 105.444445 
L 174.292413 104.682205 
L 175.734358 103.684081 
L 179.339219 100.747825 
L 181.502135 98.913158 
L 182.94408 97.512924 
L 184.386024 95.868668 
L 185.827969 93.924902 
L 188.711858 89.470507 
L 190.874774 86.298211 
L 192.316719 84.685359 
L 193.758663 83.596176 
L 195.200608 82.907551 
L 196.642552 82.537015 
L 198.084497 82.41781 
L 200.247413 82.582887 
L 202.41033 82.763985 
L 203.131302 82.645146 
L 203.852274 82.403898 
L 205.294219 81.545912 
L 209.620052 78.270912 
L 211.061997 77.551815 
L 212.503941 77.115629 
L 213.945885 76.967761 
L 215.38783 77.067706 
L 216.829774 77.357726 
L 218.271719 77.897838 
L 222.597552 80.026573 
L 223.318524 80.125629 
L 224.039497 80.00648 
L 224.760469 79.71394 
L 226.202413 78.706306 
L 228.36533 76.67517 
L 229.807274 75.368288 
L 231.249219 74.4897 
L 231.970191 74.242102 
L 232.691163 74.130366 
L 233.412135 74.166433 
L 234.133108 74.353192 
L 235.575052 75.097761 
L 237.016997 76.190143 
L 239.179913 78.17384 
L 244.226719 82.940552 
L 246.389635 84.608533 
L 249.273524 86.492472 
L 250.715469 87.334397 
L 250.715469 87.334397 
" clip-path="url(#p6035e948c4)" style="fill: none; stroke-dasharray: 3.7,1.6; stroke-dashoffset: 0; stroke: #000000"/>
   </g>
   <g id="line2d_17">
    <path d="M 30.097969 122.741812 
L 31.539913 118.764971 
L 32.260885 116.965019 
L 32.981858 123.832571 
L 33.70283 119.732026 
L 34.423802 120.144263 
L 35.144774 119.103585 
L 35.865747 117.214941 
L 36.586719 117.999299 
L 37.307691 119.172219 
L 38.028663 122.570027 
L 38.749635 123.702722 
L 39.470608 122.93619 
L 40.19158 120.363867 
L 40.912552 119.245897 
L 41.633524 119.317748 
L 43.075469 124.073946 
L 43.796441 122.368521 
L 44.517413 123.919569 
L 45.238385 121.254498 
L 45.959358 117.802808 
L 46.68033 115.968088 
L 47.401302 117.398577 
L 48.122274 122.900275 
L 48.843247 125.995484 
L 49.564219 124.66987 
L 50.285191 123.047578 
L 51.006163 120.129893 
L 51.727135 117.677925 
L 53.890052 127.188411 
L 54.611024 125.519446 
L 55.331997 124.798507 
L 56.052969 121.523119 
L 56.773941 122.168072 
L 57.494913 124.478764 
L 58.215885 128.886042 
L 58.936858 131.990322 
L 59.65783 126.855386 
L 60.378802 128.015037 
L 61.099774 122.715917 
L 61.820747 123.31027 
L 62.541719 125.565479 
L 63.262691 130.331319 
L 63.983663 127.322858 
L 64.704635 128.188971 
L 66.14658 123.733205 
L 67.588524 126.886698 
L 68.309497 129.195167 
L 69.030469 130.232918 
L 70.472413 130.643168 
L 71.193385 126.649072 
L 71.914358 124.761169 
L 72.63533 125.808293 
L 73.356302 128.548454 
L 74.077274 127.253041 
L 74.798247 128.383174 
L 75.519219 129.243116 
L 76.240191 127.534669 
L 76.961163 121.346962 
L 77.682135 126.645198 
L 78.403108 130.792581 
L 79.12408 131.276982 
L 79.845052 130.572322 
L 80.566024 126.322215 
L 81.286997 125.990785 
L 82.007969 123.937523 
L 82.728941 124.073946 
L 83.449913 130.198697 
L 84.170885 129.101751 
L 84.891858 124.463864 
L 85.61283 123.799399 
L 87.054774 119.788523 
L 87.775747 118.963559 
L 88.496719 123.192576 
L 89.938663 116.989261 
L 90.659635 115.821401 
L 92.10158 111.292386 
L 93.543524 114.384842 
L 94.264497 114.391466 
L 94.985469 109.96349 
L 95.706441 109.260276 
L 96.427413 106.950651 
L 97.148385 106.33349 
L 97.869358 109.246755 
L 98.59033 111.659934 
L 99.311302 110.452442 
L 100.032274 107.537356 
L 100.753247 105.472846 
L 101.474219 105.314256 
L 102.195191 102.47205 
L 102.916163 105.01342 
L 103.637135 106.086531 
L 105.07908 103.327545 
L 105.800052 102.435328 
L 106.521024 100.209449 
L 107.241997 101.627017 
L 107.962969 104.400865 
L 108.683941 104.462402 
L 109.404913 105.31462 
L 110.125885 103.435837 
L 110.846858 101.994103 
L 111.56783 101.910781 
L 112.288802 100.841373 
L 113.009774 102.940781 
L 113.730747 107.483801 
L 114.451719 105.573566 
L 115.893663 102.938822 
L 116.614635 102.242833 
L 117.335608 102.198603 
L 118.05658 106.458218 
L 118.777552 108.905831 
L 119.498524 110.375159 
L 120.219497 107.754124 
L 120.940469 107.683387 
L 122.382413 104.857413 
L 123.103385 107.076207 
L 123.824358 109.922523 
L 124.54533 110.518441 
L 125.266302 107.832446 
L 125.987274 107.459282 
L 126.708247 107.546631 
L 127.429219 105.464779 
L 128.150191 108.927735 
L 128.871163 112.980108 
L 129.592135 115.508861 
L 130.313108 112.420206 
L 131.03408 112.531448 
L 132.476024 109.676987 
L 133.196997 111.534145 
L 133.917969 118.754853 
L 134.638941 113.895855 
L 135.359913 114.564954 
L 136.080885 111.392713 
L 136.801858 111.252192 
L 137.52283 110.801773 
L 138.243802 111.737027 
L 138.964774 118.02798 
L 139.685747 116.119354 
L 140.406719 112.012487 
L 141.127691 118.680125 
L 141.848663 110.880115 
L 142.569635 108.351859 
L 143.290608 112.920164 
L 144.01158 120.389292 
L 144.732552 124.219024 
L 146.895469 115.198446 
L 147.616441 110.337078 
L 148.337413 114.608961 
L 149.058385 118.084148 
L 149.779358 115.881613 
L 150.50033 114.546042 
L 151.221302 114.517704 
L 151.942274 111.397044 
L 152.663247 109.74023 
L 154.105191 116.197781 
L 154.826163 107.190187 
L 155.547135 115.585702 
L 156.268108 113.286526 
L 156.98908 111.448114 
L 157.710052 107.337898 
L 158.431024 112.693252 
L 159.151997 115.640004 
L 159.872969 115.603788 
L 160.593941 112.187432 
L 161.314913 113.021027 
L 162.035885 110.870248 
L 162.756858 107.741505 
L 163.47783 110.240113 
L 164.198802 116.987395 
L 164.919774 104.414137 
L 165.640747 112.60813 
L 166.361719 107.971834 
L 167.082691 106.630023 
L 167.803663 105.654405 
L 169.245608 111.652142 
L 169.96658 110.132221 
L 170.687552 107.413132 
L 172.129497 103.410465 
L 172.850469 101.768592 
L 173.571441 108.077377 
L 174.292413 110.193157 
L 175.013385 103.381457 
L 175.734358 105.059074 
L 176.45533 103.786031 
L 177.176302 100.37051 
L 177.897274 97.603055 
L 178.618247 99.39181 
L 179.339219 105.3777 
L 180.060191 100.513772 
L 180.781163 100.587223 
L 182.94408 94.164214 
L 183.665052 97.883492 
L 184.386024 100.643576 
L 185.106997 95.483204 
L 185.827969 95.855161 
L 186.548941 92.441547 
L 187.269913 89.916166 
L 187.990885 87.946171 
L 188.711858 89.108004 
L 189.43283 93.403631 
L 190.153802 88.339423 
L 190.874774 86.837663 
L 191.595747 86.354991 
L 192.316719 83.395094 
L 193.037691 81.138349 
L 193.758663 84.019244 
L 194.479635 87.56166 
L 195.200608 83.010512 
L 195.92158 83.665914 
L 196.642552 82.274654 
L 197.363524 80.427775 
L 198.084497 79.146206 
L 198.805469 82.318617 
L 199.526441 86.675376 
L 200.247413 81.364539 
L 200.968385 81.579856 
L 201.689358 81.247468 
L 202.41033 93.492158 
L 203.131302 78.393977 
L 203.852274 85.090593 
L 204.573247 87.411208 
L 205.294219 82.867634 
L 206.736163 78.89405 
L 207.457135 77.168585 
L 208.178108 75.844661 
L 208.89908 78.407859 
L 209.620052 82.320139 
L 210.341024 78.533831 
L 211.061997 76.971596 
L 211.782969 76.971397 
L 212.503941 76.43142 
L 213.224913 71.64482 
L 213.945885 78.215369 
L 214.666858 80.813639 
L 215.38783 78.92518 
L 216.108802 78.680382 
L 216.829774 74.611765 
L 217.550747 75.255108 
L 218.271719 74.052301 
L 218.992691 79.696292 
L 219.713663 81.329606 
L 220.434635 78.85658 
L 221.155608 78.843708 
L 221.87658 76.187082 
L 222.597552 79.740643 
L 223.318524 93.933349 
L 224.039497 77.256587 
L 224.760469 84.99274 
L 225.481441 80.253807 
L 226.202413 78.909447 
L 226.923385 76.073835 
L 227.644358 75.877104 
L 228.36533 85.698075 
L 229.086302 70.798853 
L 229.807274 78.828249 
L 230.528247 73.996816 
L 231.249219 75.503544 
L 233.412135 70.123953 
L 234.85408 78.135349 
L 235.575052 76.326052 
L 236.296024 75.976148 
L 237.016997 76.038054 
L 237.737969 75.089434 
L 238.458941 75.059322 
L 240.621858 86.622938 
L 241.34283 80.49346 
L 242.063802 80.66395 
L 242.784774 80.08465 
L 243.505747 79.961028 
L 244.226719 82.833975 
L 244.947691 88.469016 
L 245.668663 84.35875 
L 246.389635 85.201767 
L 247.110608 84.471284 
L 247.83158 83.061364 
L 248.552552 83.267028 
L 249.273524 87.786369 
L 249.994497 91.317609 
L 250.715469 86.511828 
L 250.715469 86.511828 
" clip-path="url(#p6035e948c4)" style="fill: none; stroke: #bc80bd; stroke-opacity: 0.7; stroke-width: 2; stroke-linecap: square"/>
   </g>
   <g id="patch_3">
    <path d="M 250.715469 148.929333 
L 250.715469 61.71 
" style="fill: none; stroke: #000000; stroke-width: 0.6; stroke-linejoin: miter; stroke-linecap: square"/>
   </g>
   <g id="patch_4">
    <path d="M 30.097969 148.929333 
L 250.715469 148.929333 
" style="fill: none; stroke: #000000; stroke-width: 0.6; stroke-linejoin: miter; stroke-linecap: square"/>
   </g>
   <g id="text_3">
    <!-- log new cases -->
    <g style="fill: #323034" transform="translate(161.845469 55.71)scale(0.16 -0.16)">
     <defs>
      <path id="STIXGeneral-Regular-6c" d="M 1645 0 
L 134 0 
L 134 96 
Q 435 122 531 221 
Q 627 320 627 589 
L 627 3590 
Q 627 3821 569 3910 
Q 512 4000 358 4000 
Q 224 4000 122 3987 
L 122 4090 
Q 730 4237 1133 4371 
L 1165 4346 
L 1165 557 
Q 1165 288 1254 201 
Q 1344 115 1645 96 
L 1645 0 
z
" transform="scale(0.015625)"/>
      <path id="STIXGeneral-Regular-6f" d="M 3008 1478 
Q 3008 806 2608 371 
Q 2208 -64 1568 -64 
Q 979 -64 582 368 
Q 186 800 186 1459 
Q 186 2125 582 2534 
Q 979 2944 1626 2944 
Q 2221 2944 2614 2537 
Q 3008 2131 3008 1478 
z
M 2432 1306 
Q 2432 2035 2112 2445 
Q 1856 2765 1504 2765 
Q 1171 2765 966 2493 
Q 762 2221 762 1747 
Q 762 928 1101 435 
Q 1318 115 1677 115 
Q 2029 115 2230 432 
Q 2432 749 2432 1306 
z
" transform="scale(0.015625)"/>
      <path id="STIXGeneral-Regular-67" d="M 3008 2483 
L 2477 2483 
Q 2598 2208 2598 1946 
Q 2598 1453 2265 1203 
Q 1933 954 1600 954 
Q 1530 954 1357 973 
L 1235 986 
Q 1107 947 979 812 
Q 851 678 851 582 
Q 851 435 1350 410 
L 2176 371 
Q 2528 358 2739 172 
Q 2950 -13 2950 -314 
Q 2950 -685 2566 -986 
Q 2035 -1395 1286 -1395 
Q 826 -1395 502 -1212 
Q 179 -1030 179 -774 
Q 179 -595 320 -419 
Q 461 -243 806 6 
Q 602 102 534 172 
Q 467 243 467 346 
Q 467 531 762 787 
Q 909 915 1037 1043 
Q 717 1203 579 1401 
Q 442 1600 442 1901 
Q 442 2336 752 2640 
Q 1062 2944 1510 2944 
Q 1766 2944 2022 2848 
L 2163 2797 
Q 2349 2733 2515 2733 
L 3008 2733 
L 3008 2483 
z
M 973 2163 
L 973 2144 
Q 973 1683 1155 1398 
Q 1338 1114 1632 1114 
Q 1850 1114 1978 1270 
Q 2106 1427 2106 1690 
Q 2106 2112 1914 2464 
Q 1754 2765 1446 2765 
Q 1222 2765 1097 2605 
Q 973 2445 973 2163 
z
M 2771 -410 
Q 2771 -230 2595 -163 
Q 2419 -96 1978 -96 
Q 1344 -96 941 -13 
Q 749 -243 688 -348 
Q 627 -454 627 -563 
Q 627 -774 880 -902 
Q 1133 -1030 1555 -1030 
Q 2099 -1030 2435 -860 
Q 2771 -691 2771 -410 
z
" transform="scale(0.015625)"/>
      <path id="STIXGeneral-Regular-20" transform="scale(0.015625)"/>
      <path id="STIXGeneral-Regular-6e" d="M 3104 0 
L 1773 0 
L 1779 96 
Q 2016 115 2096 233 
Q 2176 352 2176 672 
L 2176 1946 
Q 2176 2592 1709 2592 
Q 1549 2592 1408 2515 
Q 1267 2438 1050 2227 
L 1050 461 
Q 1050 269 1136 192 
Q 1222 115 1466 96 
L 1466 0 
L 115 0 
L 115 96 
Q 358 115 435 214 
Q 512 314 512 602 
L 512 2157 
Q 512 2394 467 2483 
Q 422 2573 288 2573 
Q 160 2573 102 2547 
L 102 2656 
Q 550 2784 979 2944 
L 1030 2925 
L 1030 2426 
L 1037 2426 
Q 1491 2944 1958 2944 
Q 2323 2944 2518 2688 
Q 2714 2432 2714 1958 
L 2714 544 
Q 2714 288 2790 205 
Q 2867 122 3104 96 
L 3104 0 
z
" transform="scale(0.015625)"/>
      <path id="STIXGeneral-Regular-65" d="M 2611 1050 
L 2714 1005 
Q 2330 -64 1376 -64 
Q 813 -64 486 329 
Q 160 723 160 1389 
Q 160 2074 525 2509 
Q 890 2944 1485 2944 
Q 2061 2944 2374 2502 
Q 2560 2246 2592 1773 
L 621 1773 
Q 646 1370 700 1158 
Q 755 947 915 730 
Q 1184 378 1626 378 
Q 1939 378 2153 531 
Q 2368 685 2611 1050 
z
M 634 1978 
L 1939 1978 
Q 1882 2381 1750 2547 
Q 1619 2714 1312 2714 
Q 1043 2714 864 2525 
Q 685 2336 634 1978 
z
" transform="scale(0.015625)"/>
      <path id="STIXGeneral-Regular-77" d="M 4442 2880 
L 4442 2784 
Q 4346 2752 4301 2691 
Q 4256 2630 4179 2438 
L 3296 224 
Q 3168 -90 3117 -90 
Q 3085 -90 3062 -48 
Q 3040 -6 2963 186 
L 2381 1696 
L 1664 160 
Q 1549 -90 1504 -90 
Q 1446 -90 1338 192 
L 474 2381 
Q 378 2630 314 2700 
Q 250 2771 134 2784 
L 134 2880 
L 1286 2880 
L 1286 2784 
Q 1120 2765 1056 2720 
Q 992 2675 992 2573 
Q 992 2477 1030 2381 
L 1664 710 
L 2246 1984 
L 2118 2342 
Q 2029 2598 1942 2681 
Q 1856 2765 1677 2784 
L 1677 2880 
L 2976 2880 
L 2976 2784 
Q 2752 2752 2678 2707 
Q 2605 2662 2605 2560 
Q 2605 2458 2714 2176 
L 3251 742 
L 3827 2163 
Q 3936 2432 3936 2592 
Q 3936 2669 3875 2710 
Q 3814 2752 3654 2784 
L 3654 2880 
L 4442 2880 
z
" transform="scale(0.015625)"/>
      <path id="STIXGeneral-Regular-63" d="M 2547 998 
L 2637 941 
Q 2362 403 2112 205 
Q 1786 -64 1376 -64 
Q 845 -64 502 336 
Q 160 736 160 1357 
Q 160 2170 698 2618 
Q 1094 2944 1562 2944 
Q 1965 2944 2256 2749 
Q 2547 2554 2547 2285 
Q 2547 2176 2457 2096 
Q 2368 2016 2246 2016 
Q 2022 2016 1939 2310 
L 1901 2451 
Q 1850 2630 1773 2694 
Q 1696 2758 1523 2758 
Q 1133 2758 893 2451 
Q 653 2144 653 1645 
Q 653 1094 928 745 
Q 1203 397 1645 397 
Q 1920 397 2118 528 
Q 2317 659 2547 998 
z
" transform="scale(0.015625)"/>
      <path id="STIXGeneral-Regular-61" d="M 2829 422 
L 2829 243 
Q 2586 -64 2253 -64 
Q 1888 -64 1843 403 
L 1837 403 
Q 1427 -64 909 -64 
Q 608 -64 422 112 
Q 237 288 237 602 
Q 237 1050 685 1350 
Q 992 1555 1837 1869 
L 1837 2214 
Q 1837 2502 1699 2646 
Q 1562 2790 1338 2790 
Q 1146 2790 1018 2697 
Q 890 2605 890 2477 
Q 890 2419 909 2348 
Q 928 2278 928 2208 
Q 928 2112 841 2029 
Q 755 1946 634 1946 
Q 525 1946 441 2029 
Q 358 2112 358 2240 
Q 358 2547 685 2752 
Q 986 2944 1421 2944 
Q 1939 2944 2176 2656 
Q 2291 2522 2323 2384 
Q 2355 2246 2355 1946 
L 2355 723 
Q 2355 301 2554 301 
Q 2682 301 2829 422 
z
M 1837 813 
L 1837 1715 
Q 1248 1510 1018 1293 
Q 800 1094 800 800 
Q 800 557 921 432 
Q 1043 307 1242 307 
Q 1453 307 1613 410 
Q 1747 506 1792 589 
Q 1837 672 1837 813 
z
" transform="scale(0.015625)"/>
      <path id="STIXGeneral-Regular-73" d="M 998 1926 
L 1664 1523 
Q 1984 1331 2105 1164 
Q 2227 998 2227 736 
Q 2227 416 1961 176 
Q 1696 -64 1331 -64 
Q 1030 -64 864 -6 
Q 691 51 570 51 
Q 461 51 416 -26 
L 333 -26 
L 333 979 
L 435 979 
Q 538 512 730 294 
Q 922 77 1248 77 
Q 1485 77 1632 211 
Q 1779 346 1779 550 
Q 1779 845 1440 1030 
L 1094 1222 
Q 326 1651 326 2150 
Q 326 2522 566 2730 
Q 806 2938 1210 2938 
Q 1491 2938 1638 2867 
Q 1754 2816 1818 2816 
Q 1862 2816 1920 2880 
L 1990 2880 
L 2022 2010 
L 1926 2010 
Q 1818 2445 1654 2621 
Q 1491 2797 1203 2797 
Q 986 2797 854 2688 
Q 723 2579 723 2362 
Q 723 2253 796 2128 
Q 870 2003 998 1926 
z
" transform="scale(0.015625)"/>
     </defs>
     <use xlink:href="#STIXGeneral-Regular-6c"/>
     <use xlink:href="#STIXGeneral-Regular-6f" x="27.799988"/>
     <use xlink:href="#STIXGeneral-Regular-67" x="77.799973"/>
     <use xlink:href="#STIXGeneral-Regular-20" x="127.799957"/>
     <use xlink:href="#STIXGeneral-Regular-6e" x="152.799942"/>
     <use xlink:href="#STIXGeneral-Regular-65" x="202.799927"/>
     <use xlink:href="#STIXGeneral-Regular-77" x="247.199921"/>
     <use xlink:href="#STIXGeneral-Regular-20" x="319.399902"/>
     <use xlink:href="#STIXGeneral-Regular-63" x="344.399887"/>
     <use xlink:href="#STIXGeneral-Regular-61" x="388.799881"/>
     <use xlink:href="#STIXGeneral-Regular-73" x="433.199875"/>
     <use xlink:href="#STIXGeneral-Regular-65" x="472.099869"/>
     <use xlink:href="#STIXGeneral-Regular-73" x="516.499863"/>
    </g>
   </g>
   <g id="legend_1">
    <g id="patch_5">
     <path d="M 37.097969 93.06 
L 98.427656 93.06 
Q 100.427656 93.06 100.427656 91.06 
L 100.427656 68.71 
Q 100.427656 66.71 98.427656 66.71 
L 37.097969 66.71 
Q 35.097969 66.71 35.097969 68.71 
L 35.097969 91.06 
Q 35.097969 93.06 37.097969 93.06 
z
" style="fill: #ffffff; opacity: 0.8; stroke: #e6e6e6; stroke-width: 0.8; stroke-linejoin: miter"/>
    </g>
    <g id="line2d_18">
     <path d="M 37.097969 72.21 
L 47.097969 72.21 
L 57.097969 72.21 
" style="fill: none; stroke-dasharray: 3.7,1.6; stroke-dashoffset: 0; stroke: #000000"/>
    </g>
    <g id="text_4">
     <!-- Trend -->
     <g style="fill: #323034" transform="translate(65.097969 75.71)scale(0.1 -0.1)">
      <defs>
       <path id="STIXGeneral-Regular-54" d="M 3795 3149 
L 3642 3149 
Q 3539 3674 3353 3821 
Q 3168 3968 2656 3968 
L 2278 3968 
L 2278 710 
Q 2278 346 2387 243 
Q 2496 141 2893 122 
L 2893 0 
L 1024 0 
L 1024 122 
Q 1427 147 1526 256 
Q 1626 365 1626 787 
L 1626 3968 
L 1242 3968 
Q 723 3968 540 3817 
Q 358 3667 262 3149 
L 109 3149 
L 154 4237 
L 3750 4237 
L 3795 3149 
z
" transform="scale(0.015625)"/>
       <path id="STIXGeneral-Regular-72" d="M 1024 2931 
L 1024 2342 
Q 1267 2688 1430 2816 
Q 1594 2944 1792 2944 
Q 1958 2944 2051 2854 
Q 2144 2765 2144 2605 
Q 2144 2470 2077 2393 
Q 2010 2317 1894 2317 
Q 1773 2317 1638 2445 
Q 1536 2541 1472 2541 
Q 1338 2541 1181 2355 
Q 1024 2170 1024 2016 
L 1024 576 
Q 1024 301 1133 205 
Q 1242 109 1568 96 
L 1568 0 
L 32 0 
L 32 96 
Q 339 154 412 224 
Q 486 294 486 538 
L 486 2138 
Q 486 2349 438 2435 
Q 390 2522 269 2522 
Q 166 2522 45 2496 
L 45 2598 
Q 448 2726 992 2944 
L 1024 2931 
z
" transform="scale(0.015625)"/>
       <path id="STIXGeneral-Regular-64" d="M 3142 269 
L 2202 -64 
L 2176 -45 
L 2176 365 
Q 1869 -64 1357 -64 
Q 826 -64 499 317 
Q 173 698 173 1312 
Q 173 1990 563 2467 
Q 954 2944 1504 2944 
Q 1850 2944 2176 2669 
L 2176 3667 
Q 2176 3866 2118 3930 
Q 2061 3994 1882 3994 
Q 1792 3994 1741 3987 
L 1741 4090 
Q 2323 4243 2682 4371 
L 2714 4358 
L 2714 730 
Q 2714 506 2768 435 
Q 2822 365 2995 365 
Q 3034 365 3142 371 
L 3142 269 
z
M 2176 653 
L 2176 2125 
Q 2176 2381 1981 2573 
Q 1786 2765 1523 2765 
Q 1158 2765 940 2438 
Q 723 2112 723 1568 
Q 723 979 963 624 
Q 1203 269 1606 269 
Q 1907 269 2080 474 
Q 2176 582 2176 653 
z
" transform="scale(0.015625)"/>
      </defs>
      <use xlink:href="#STIXGeneral-Regular-54"/>
      <use xlink:href="#STIXGeneral-Regular-72" x="61.099991"/>
      <use xlink:href="#STIXGeneral-Regular-65" x="94.399979"/>
      <use xlink:href="#STIXGeneral-Regular-6e" x="138.799973"/>
      <use xlink:href="#STIXGeneral-Regular-64" x="188.799957"/>
     </g>
    </g>
    <g id="line2d_19">
     <path d="M 37.097969 85.380313 
L 47.097969 85.380313 
L 57.097969 85.380313 
" style="fill: none; stroke: #bc80bd; stroke-opacity: 0.7; stroke-width: 2; stroke-linecap: square"/>
    </g>
    <g id="text_5">
     <!-- Original -->
     <g style="fill: #323034" transform="translate(65.097969 88.880313)scale(0.1 -0.1)">
      <defs>
       <path id="STIXGeneral-Regular-4f" d="M 4403 2118 
Q 4403 1133 3820 521 
Q 3238 -90 2310 -90 
Q 1376 -90 797 524 
Q 218 1139 218 2138 
Q 218 3110 797 3718 
Q 1376 4326 2310 4326 
Q 3245 4326 3824 3702 
Q 4403 3078 4403 2118 
z
M 3674 2157 
Q 3674 2701 3520 3133 
Q 3366 3565 3091 3795 
Q 2733 4096 2304 4096 
Q 1760 4096 1389 3667 
Q 1184 3437 1065 3011 
Q 947 2586 947 2125 
Q 947 960 1523 429 
Q 1837 141 2317 141 
Q 2816 141 3142 448 
Q 3674 960 3674 2157 
z
" transform="scale(0.015625)"/>
       <path id="STIXGeneral-Regular-69" d="M 1152 4045 
Q 1152 3904 1056 3811 
Q 960 3718 819 3718 
Q 685 3718 592 3811 
Q 499 3904 499 4045 
Q 499 4179 595 4275 
Q 691 4371 826 4371 
Q 966 4371 1059 4275 
Q 1152 4179 1152 4045 
z
M 1619 0 
L 102 0 
L 102 96 
Q 435 115 521 211 
Q 608 307 608 666 
L 608 2118 
Q 608 2342 563 2432 
Q 518 2522 397 2522 
Q 243 2522 128 2490 
L 128 2592 
L 1120 2944 
L 1146 2918 
L 1146 672 
Q 1146 314 1226 218 
Q 1306 122 1619 96 
L 1619 0 
z
" transform="scale(0.015625)"/>
      </defs>
      <use xlink:href="#STIXGeneral-Regular-4f"/>
      <use xlink:href="#STIXGeneral-Regular-72" x="72.199982"/>
      <use xlink:href="#STIXGeneral-Regular-69" x="105.499969"/>
      <use xlink:href="#STIXGeneral-Regular-67" x="133.299957"/>
      <use xlink:href="#STIXGeneral-Regular-69" x="183.299942"/>
      <use xlink:href="#STIXGeneral-Regular-6e" x="211.09993"/>
      <use xlink:href="#STIXGeneral-Regular-61" x="261.099915"/>
      <use xlink:href="#STIXGeneral-Regular-6c" x="305.499908"/>
     </g>
    </g>
   </g>
  </g>
  <g id="axes_2">
   <g id="patch_6">
    <path d="M 30.097969 254.772417 
L 250.715469 254.772417 
L 250.715469 167.553083 
L 30.097969 167.553083 
z
" style="fill: #ffffff"/>
   </g>
   <g id="matplotlib.axis_3">
    <g id="xtick_12">
     <g id="line2d_20">
      <g>
       <use xlink:href="#m8de5b9246c" x="30.097969" y="254.772417" style="fill: #323034; stroke: #323034; stroke-width: 0.8"/>
      </g>
     </g>
    </g>
    <g id="xtick_13">
     <g id="line2d_21">
      <g>
       <use xlink:href="#m8de5b9246c" x="51.727135" y="254.772417" style="fill: #323034; stroke: #323034; stroke-width: 0.8"/>
      </g>
     </g>
    </g>
    <g id="xtick_14">
     <g id="line2d_22">
      <g>
       <use xlink:href="#m8de5b9246c" x="74.077274" y="254.772417" style="fill: #323034; stroke: #323034; stroke-width: 0.8"/>
      </g>
     </g>
    </g>
    <g id="xtick_15">
     <g id="line2d_23">
      <g>
       <use xlink:href="#m8de5b9246c" x="95.706441" y="254.772417" style="fill: #323034; stroke: #323034; stroke-width: 0.8"/>
      </g>
     </g>
    </g>
    <g id="xtick_16">
     <g id="line2d_24">
      <g>
       <use xlink:href="#m8de5b9246c" x="118.05658" y="254.772417" style="fill: #323034; stroke: #323034; stroke-width: 0.8"/>
      </g>
     </g>
    </g>
    <g id="xtick_17">
     <g id="line2d_25">
      <g>
       <use xlink:href="#m8de5b9246c" x="140.406719" y="254.772417" style="fill: #323034; stroke: #323034; stroke-width: 0.8"/>
      </g>
     </g>
    </g>
    <g id="xtick_18">
     <g id="line2d_26">
      <g>
       <use xlink:href="#m8de5b9246c" x="162.035885" y="254.772417" style="fill: #323034; stroke: #323034; stroke-width: 0.8"/>
      </g>
     </g>
    </g>
    <g id="xtick_19">
     <g id="line2d_27">
      <g>
       <use xlink:href="#m8de5b9246c" x="184.386024" y="254.772417" style="fill: #323034; stroke: #323034; stroke-width: 0.8"/>
      </g>
     </g>
    </g>
    <g id="xtick_20">
     <g id="line2d_28">
      <g>
       <use xlink:href="#m8de5b9246c" x="206.015191" y="254.772417" style="fill: #323034; stroke: #323034; stroke-width: 0.8"/>
      </g>
     </g>
    </g>
    <g id="xtick_21">
     <g id="line2d_29">
      <g>
       <use xlink:href="#m8de5b9246c" x="228.36533" y="254.772417" style="fill: #323034; stroke: #323034; stroke-width: 0.8"/>
      </g>
     </g>
    </g>
    <g id="xtick_22">
     <g id="line2d_30">
      <g>
       <use xlink:href="#m8de5b9246c" x="250.715469" y="254.772417" style="fill: #323034; stroke: #323034; stroke-width: 0.8"/>
      </g>
     </g>
    </g>
   </g>
   <g id="matplotlib.axis_4">
    <g id="ytick_5">
     <g id="line2d_31">
      <g>
       <use xlink:href="#m86694ad8c7" x="250.715469" y="232.967583" style="fill: #323034; stroke: #323034; stroke-width: 0.8"/>
      </g>
     </g>
     <g id="text_6">
      <!-- $\mathdefault{−0.25}$ -->
      <g style="fill: #323034" transform="translate(257.715469 237.065396)scale(0.12 -0.12)">
       <defs>
        <path id="STIXGeneral-Regular-2212" d="M 3974 1408 
L 410 1408 
L 410 1830 
L 3974 1830 
L 3974 1408 
z
" transform="scale(0.015625)"/>
        <path id="STIXGeneral-Regular-2e" d="M 1158 275 
Q 1158 134 1052 32 
Q 947 -70 800 -70 
Q 653 -70 550 32 
Q 448 134 448 281 
Q 448 429 553 534 
Q 659 640 806 640 
Q 947 640 1052 531 
Q 1158 422 1158 275 
z
" transform="scale(0.015625)"/>
        <path id="STIXGeneral-Regular-35" d="M 2803 4358 
L 2573 3814 
Q 2534 3731 2400 3731 
L 1158 3731 
L 902 3187 
Q 1606 3053 1920 2896 
Q 2234 2739 2502 2368 
Q 2726 2061 2726 1555 
Q 2726 1094 2576 780 
Q 2426 467 2099 224 
Q 1664 -90 1011 -90 
Q 646 -90 422 19 
Q 198 128 198 307 
Q 198 550 486 550 
Q 717 550 960 352 
Q 1210 147 1414 147 
Q 1747 147 2012 480 
Q 2278 813 2278 1229 
Q 2278 1843 1850 2189 
Q 1293 2637 486 2637 
Q 410 2637 410 2688 
L 416 2720 
L 1114 4237 
L 2438 4237 
Q 2547 4237 2608 4269 
Q 2669 4301 2746 4403 
L 2803 4358 
z
" transform="scale(0.015625)"/>
       </defs>
       <use xlink:href="#STIXGeneral-Regular-2212" transform="translate(0 0.203125)"/>
       <use xlink:href="#STIXGeneral-Regular-30" transform="translate(68.499985 0.203125)"/>
       <use xlink:href="#STIXGeneral-Regular-2e" transform="translate(118.499969 0.203125)"/>
       <use xlink:href="#STIXGeneral-Regular-32" transform="translate(143.499954 0.203125)"/>
       <use xlink:href="#STIXGeneral-Regular-35" transform="translate(193.499939 0.203125)"/>
      </g>
     </g>
    </g>
    <g id="ytick_6">
     <g id="line2d_32">
      <g>
       <use xlink:href="#m86694ad8c7" x="250.715469" y="196.626194" style="fill: #323034; stroke: #323034; stroke-width: 0.8"/>
      </g>
     </g>
     <g id="text_7">
      <!-- $\mathdefault{0.00}$ -->
      <g style="fill: #323034" transform="translate(257.715469 200.724007)scale(0.12 -0.12)">
       <use xlink:href="#STIXGeneral-Regular-30" transform="translate(0 0.40625)"/>
       <use xlink:href="#STIXGeneral-Regular-2e" transform="translate(49.999985 0.40625)"/>
       <use xlink:href="#STIXGeneral-Regular-30" transform="translate(74.999969 0.40625)"/>
       <use xlink:href="#STIXGeneral-Regular-30" transform="translate(124.999954 0.40625)"/>
      </g>
     </g>
    </g>
    <g id="ytick_7">
     <g id="line2d_33">
      <g>
       <use xlink:href="#m3f3335ed0c" x="250.715469" y="251.138278" style="fill: #323034; stroke: #323034; stroke-width: 0.6"/>
      </g>
     </g>
    </g>
    <g id="ytick_8">
     <g id="line2d_34">
      <g>
       <use xlink:href="#m3f3335ed0c" x="250.715469" y="214.796889" style="fill: #323034; stroke: #323034; stroke-width: 0.6"/>
      </g>
     </g>
    </g>
    <g id="ytick_9">
     <g id="line2d_35">
      <g>
       <use xlink:href="#m3f3335ed0c" x="250.715469" y="178.4555" style="fill: #323034; stroke: #323034; stroke-width: 0.6"/>
      </g>
     </g>
    </g>
   </g>
   <g id="line2d_36">
    <path d="M 30.097969 198.156305 
L 30.818941 182.76803 
L 31.539913 177.805198 
L 32.260885 186.143769 
L 32.981858 215.219082 
L 33.70283 209.83083 
L 34.423802 206.560826 
L 35.144774 198.123325 
L 35.865747 182.621918 
L 36.586719 177.572341 
L 37.307691 186.782181 
L 38.028663 214.534674 
L 39.470608 206.570282 
L 40.19158 198.10419 
L 40.912552 182.596392 
L 41.633524 177.131306 
L 42.354497 187.353731 
L 43.075469 214.144613 
L 44.517413 206.455703 
L 45.238385 198.381137 
L 45.959358 182.539536 
L 46.68033 176.678608 
L 47.401302 187.668673 
L 48.122274 213.800943 
L 48.843247 211.192593 
L 49.564219 205.919833 
L 50.285191 198.69854 
L 51.006163 182.48953 
L 51.727135 176.302395 
L 52.448108 188.184011 
L 53.16908 213.673104 
L 53.890052 211.360985 
L 55.331997 199.020819 
L 56.052969 182.315362 
L 56.773941 176.250482 
L 57.494913 188.400119 
L 58.215885 214.16222 
L 58.936858 210.955208 
L 60.378802 199.226834 
L 61.099774 182.413038 
L 61.820747 176.078323 
L 62.541719 188.628865 
L 63.262691 215.013913 
L 63.983663 209.649877 
L 64.704635 205.278315 
L 65.425608 198.880666 
L 66.14658 183.01636 
L 66.867552 175.77169 
L 67.588524 188.909538 
L 68.309497 215.515617 
L 69.030469 208.776511 
L 69.751441 205.285128 
L 70.472413 198.661371 
L 71.193385 183.942724 
L 71.914358 175.079768 
L 72.63533 189.054643 
L 73.356302 215.695681 
L 74.077274 209.256604 
L 74.798247 204.588675 
L 75.519219 198.103523 
L 76.240191 185.016464 
L 76.961163 174.332838 
L 77.682135 189.174533 
L 78.403108 215.979746 
L 80.566024 197.362844 
L 82.007969 174.477365 
L 82.728941 188.955088 
L 83.449913 216.41645 
L 84.170885 210.583666 
L 84.891858 202.798036 
L 85.61283 197.180217 
L 87.054774 174.44174 
L 87.775747 189.216457 
L 88.496719 216.60635 
L 89.217691 210.818148 
L 89.938663 202.140521 
L 90.659635 196.957506 
L 92.10158 174.100894 
L 92.822552 189.850812 
L 93.543524 216.52082 
L 94.264497 211.112401 
L 94.985469 201.640641 
L 95.706441 196.694756 
L 96.427413 186.48668 
L 97.148385 173.714637 
L 97.869358 190.278355 
L 98.59033 216.818016 
L 99.311302 210.955513 
L 100.032274 201.486005 
L 100.753247 196.325608 
L 101.474219 186.3038 
L 102.195191 173.964145 
L 102.916163 191.213456 
L 103.637135 216.499557 
L 104.358108 210.661154 
L 105.07908 201.355453 
L 105.800052 196.264369 
L 107.241997 174.32514 
L 107.962969 191.836784 
L 108.683941 216.434975 
L 109.404913 210.419217 
L 110.125885 201.200676 
L 110.846858 196.133223 
L 112.288802 174.334079 
L 113.009774 192.018489 
L 113.730747 216.992333 
L 114.451719 209.910961 
L 115.172691 201.019415 
L 115.893663 196.246414 
L 117.335608 174.199317 
L 118.05658 192.353962 
L 118.777552 217.354472 
L 120.219497 200.780192 
L 120.940469 196.516063 
L 122.382413 174.046695 
L 123.103385 192.36169 
L 123.824358 218.180503 
L 124.54533 208.609938 
L 125.266302 200.765875 
L 125.987274 196.740296 
L 127.429219 173.78657 
L 128.150191 192.310142 
L 128.871163 219.358184 
L 129.592135 207.314504 
L 130.313108 200.946754 
L 131.03408 197.132757 
L 132.476024 173.635518 
L 133.196997 192.176181 
L 133.917969 221.041811 
L 134.638941 205.271907 
L 136.080885 197.484352 
L 137.52283 173.337478 
L 138.243802 192.492192 
L 138.964774 222.104886 
L 139.685747 203.666857 
L 140.406719 201.533795 
L 141.127691 198.330192 
L 142.569635 172.655489 
L 143.290608 193.245346 
L 144.01158 223.049758 
L 144.732552 201.518854 
L 145.453524 202.874256 
L 146.174497 197.667808 
L 147.616441 172.220464 
L 148.337413 194.175831 
L 149.058385 223.72096 
L 149.779358 199.6911 
L 150.50033 203.589387 
L 151.221302 197.167054 
L 152.663247 172.243009 
L 153.384219 194.885829 
L 154.105191 224.668973 
L 154.826163 197.478142 
L 155.547135 204.63603 
L 156.268108 196.396134 
L 156.98908 185.836779 
L 157.710052 172.223321 
L 158.431024 195.422481 
L 159.151997 225.199508 
L 159.872969 196.680013 
L 160.593941 204.701979 
L 162.035885 185.959416 
L 162.756858 172.663202 
L 163.47783 195.567569 
L 164.198802 226.406099 
L 164.919774 194.860008 
L 165.640747 205.567637 
L 166.361719 194.713707 
L 167.082691 186.038161 
L 167.803663 173.132078 
L 168.524635 196.072303 
L 169.245608 226.455439 
L 169.96658 194.716203 
L 170.687552 205.316062 
L 171.408524 194.054322 
L 172.129497 186.232585 
L 172.850469 173.424793 
L 173.571441 196.4721 
L 174.292413 226.293808 
L 175.013385 195.195704 
L 175.734358 204.762541 
L 176.45533 193.352717 
L 177.176302 186.546542 
L 177.897274 174.020697 
L 178.618247 196.273288 
L 179.339219 226.163875 
L 180.060191 195.958771 
L 180.781163 204.236452 
L 181.502135 192.325036 
L 182.223108 187.0367 
L 182.94408 174.53896 
L 183.665052 196.42821 
L 184.386024 225.82099 
L 185.106997 196.626958 
L 185.827969 203.813981 
L 186.548941 191.17126 
L 187.269913 187.671621 
L 187.990885 175.142071 
L 188.711858 196.3493 
L 189.43283 225.587892 
L 190.153802 197.312322 
L 190.874774 203.304433 
L 191.595747 189.966317 
L 192.316719 188.531053 
L 193.037691 175.520914 
L 193.758663 196.492116 
L 194.479635 225.264345 
L 195.200608 197.805544 
L 195.92158 202.484169 
L 196.642552 189.755201 
L 197.363524 188.90557 
L 198.084497 175.891223 
L 198.805469 196.564243 
L 199.526441 224.970132 
L 200.247413 198.334395 
L 200.968385 201.721482 
L 201.689358 189.276677 
L 202.41033 189.551157 
L 203.131302 176.185967 
L 203.852274 196.634731 
L 204.573247 224.508741 
L 205.294219 198.980902 
L 206.015191 201.173582 
L 206.736163 189.294243 
L 207.457135 188.77498 
L 208.178108 177.68723 
L 208.89908 196.081815 
L 209.620052 224.193675 
L 210.341024 199.442169 
L 211.061997 200.890978 
L 211.782969 189.135709 
L 212.503941 188.226099 
L 213.224913 179.120643 
L 213.945885 195.509725 
L 214.666858 223.898263 
L 215.38783 199.697169 
L 216.108802 201.011952 
L 216.829774 188.717182 
L 217.550747 187.317947 
L 218.271719 181.4213 
L 218.992691 194.259264 
L 219.713663 223.992571 
L 220.434635 199.693009 
L 221.155608 200.919652 
L 221.87658 188.648969 
L 223.318524 184.185353 
L 224.039497 192.244387 
L 224.760469 224.550325 
L 225.481441 199.530679 
L 226.202413 200.760141 
L 226.923385 189.140935 
L 227.644358 185.711463 
L 228.36533 184.712997 
L 229.086302 191.913569 
L 229.807274 224.674748 
L 230.528247 199.318977 
L 231.249219 200.660529 
L 231.970191 189.802093 
L 232.691163 185.528919 
L 233.412135 183.727224 
L 234.133108 193.04124 
L 234.85408 224.304377 
L 235.575052 199.364129 
L 236.296024 200.366915 
L 237.016997 190.318438 
L 237.737969 185.338179 
L 238.458941 183.158221 
L 239.179913 193.803412 
L 239.900885 224.209048 
L 240.621858 199.116448 
L 241.34283 200.306261 
L 242.063802 190.623181 
L 242.784774 185.201107 
L 243.505747 182.799178 
L 244.226719 194.224704 
L 244.947691 224.36302 
L 245.668663 198.73057 
L 246.389635 200.416 
L 247.110608 190.768665 
L 247.83158 185.06721 
L 248.552552 182.55067 
L 249.273524 194.644687 
L 249.994497 224.360739 
L 250.715469 198.447886 
L 250.715469 198.447886 
" clip-path="url(#pf952f441c9)" style="fill: none; stroke: #0000ff; stroke-opacity: 0.3; stroke-width: 2; stroke-linecap: square"/>
   </g>
   <g id="patch_7">
    <path d="M 250.715469 254.772417 
L 250.715469 167.553083 
" style="fill: none; stroke: #000000; stroke-width: 0.6; stroke-linejoin: miter; stroke-linecap: square"/>
   </g>
   <g id="patch_8">
    <path d="M 30.097969 254.772417 
L 250.715469 254.772417 
" style="fill: none; stroke: #000000; stroke-width: 0.6; stroke-linejoin: miter; stroke-linecap: square"/>
   </g>
   <g id="legend_2">
    <g id="patch_9">
     <path d="M 37.097969 249.772417 
L 100.649531 249.772417 
Q 102.649531 249.772417 102.649531 247.772417 
L 102.649531 238.602104 
Q 102.649531 236.602104 100.649531 236.602104 
L 37.097969 236.602104 
Q 35.097969 236.602104 35.097969 238.602104 
L 35.097969 247.772417 
Q 35.097969 249.772417 37.097969 249.772417 
z
" style="fill: #ffffff; opacity: 0.8; stroke: #e6e6e6; stroke-width: 0.8; stroke-linejoin: miter"/>
    </g>
    <g id="line2d_37">
     <path d="M 37.097969 242.102104 
L 47.097969 242.102104 
L 57.097969 242.102104 
" style="fill: none; stroke: #0000ff; stroke-opacity: 0.3; stroke-width: 2; stroke-linecap: square"/>
    </g>
    <g id="text_8">
     <!-- Seasonal -->
     <g style="fill: #323034" transform="translate(65.097969 245.602104)scale(0.1 -0.1)">
      <defs>
       <path id="STIXGeneral-Regular-53" d="M 3002 2963 
L 2842 2963 
Q 2733 3360 2579 3565 
Q 2189 4064 1651 4064 
Q 1357 4064 1181 3894 
Q 1005 3725 1005 3456 
Q 1005 3328 1069 3206 
Q 1133 3085 1206 2998 
Q 1280 2912 1465 2784 
Q 1651 2656 1766 2589 
Q 1882 2522 2150 2362 
Q 2669 2061 2905 1763 
Q 3142 1466 3142 1107 
Q 3142 576 2771 243 
Q 2400 -90 1837 -90 
Q 1421 -90 1082 58 
Q 915 128 781 128 
Q 704 128 653 70 
Q 602 13 602 -83 
L 461 -83 
L 275 1274 
L 416 1274 
Q 845 141 1734 141 
Q 2074 141 2285 342 
Q 2496 544 2496 858 
Q 2496 1158 2310 1363 
Q 2003 1696 1235 2106 
Q 454 2522 454 3206 
Q 454 3718 768 4022 
Q 1082 4326 1568 4326 
Q 1907 4326 2240 4186 
Q 2413 4109 2522 4109 
Q 2688 4109 2726 4326 
L 2861 4326 
L 3002 2963 
z
" transform="scale(0.015625)"/>
      </defs>
      <use xlink:href="#STIXGeneral-Regular-53"/>
      <use xlink:href="#STIXGeneral-Regular-65" x="55.599991"/>
      <use xlink:href="#STIXGeneral-Regular-61" x="99.999985"/>
      <use xlink:href="#STIXGeneral-Regular-73" x="144.399979"/>
      <use xlink:href="#STIXGeneral-Regular-6f" x="183.299973"/>
      <use xlink:href="#STIXGeneral-Regular-6e" x="233.299957"/>
      <use xlink:href="#STIXGeneral-Regular-61" x="283.299942"/>
      <use xlink:href="#STIXGeneral-Regular-6c" x="327.699936"/>
     </g>
    </g>
   </g>
  </g>
  <g id="axes_3">
   <g id="patch_10">
    <path d="M 30.097969 360.6155 
L 250.715469 360.6155 
L 250.715469 273.396167 
L 30.097969 273.396167 
z
" style="fill: #ffffff"/>
   </g>
   <g id="matplotlib.axis_5">
    <g id="xtick_23">
     <g id="line2d_38">
      <g>
       <use xlink:href="#m8de5b9246c" x="30.097969" y="360.6155" style="fill: #323034; stroke: #323034; stroke-width: 0.8"/>
      </g>
     </g>
     <g id="text_9">
      <!-- Apr -->
      <g style="fill: #323034" transform="translate(20.767969 375.811125)scale(0.12 -0.12)">
       <defs>
        <path id="STIXGeneral-Regular-41" d="M 4525 0 
L 2893 0 
L 2893 122 
Q 3149 122 3245 179 
Q 3334 224 3334 333 
Q 3334 499 3213 781 
L 2950 1382 
L 1274 1382 
L 979 653 
Q 922 506 922 384 
Q 922 237 1027 179 
Q 1133 122 1370 122 
L 1370 0 
L 96 0 
L 96 122 
Q 365 147 486 316 
Q 608 486 902 1190 
L 2221 4314 
L 2349 4314 
L 3923 710 
Q 4064 378 4176 262 
Q 4288 147 4525 122 
L 4525 0 
z
M 2861 1645 
L 2118 3405 
L 1382 1645 
L 2861 1645 
z
" transform="scale(0.015625)"/>
        <path id="STIXGeneral-Regular-70" d="M 1018 2931 
L 1018 2438 
Q 1421 2944 1939 2944 
Q 2406 2944 2707 2560 
Q 3008 2176 3008 1581 
Q 3008 883 2621 409 
Q 2234 -64 1664 -64 
Q 1466 -64 1328 -6 
Q 1190 51 1018 211 
L 1018 -794 
Q 1018 -1094 1120 -1180 
Q 1222 -1267 1581 -1274 
L 1581 -1389 
L 32 -1389 
L 32 -1280 
Q 314 -1254 397 -1171 
Q 480 -1088 480 -838 
L 480 2157 
Q 480 2381 429 2451 
Q 378 2522 218 2522 
Q 115 2522 58 2515 
L 58 2618 
Q 506 2752 979 2944 
L 1018 2931 
z
M 1018 2138 
L 1018 563 
Q 1018 422 1238 281 
Q 1459 141 1683 141 
Q 2029 141 2243 467 
Q 2458 794 2458 1325 
Q 2458 1888 2243 2224 
Q 2029 2560 1670 2560 
Q 1446 2560 1232 2419 
Q 1018 2278 1018 2138 
z
" transform="scale(0.015625)"/>
       </defs>
       <use xlink:href="#STIXGeneral-Regular-41"/>
       <use xlink:href="#STIXGeneral-Regular-70" x="72.199982"/>
       <use xlink:href="#STIXGeneral-Regular-72" x="122.199966"/>
      </g>
     </g>
    </g>
    <g id="xtick_24">
     <g id="line2d_39">
      <g>
       <use xlink:href="#m8de5b9246c" x="51.727135" y="360.6155" style="fill: #323034; stroke: #323034; stroke-width: 0.8"/>
      </g>
     </g>
     <g id="text_10">
      <!-- May -->
      <g style="fill: #323034" transform="translate(40.728385 375.799875)scale(0.12 -0.12)">
       <defs>
        <path id="STIXGeneral-Regular-4d" d="M 5530 0 
L 3738 0 
L 3738 122 
Q 4115 147 4214 265 
Q 4314 384 4314 787 
L 4314 3661 
L 2682 0 
L 2592 0 
L 979 3514 
L 979 966 
Q 979 448 1088 294 
Q 1197 141 1574 122 
L 1574 0 
L 77 0 
L 77 122 
Q 358 141 480 205 
Q 602 269 650 432 
Q 698 595 698 966 
L 698 3514 
Q 698 3878 589 3984 
Q 480 4090 90 4115 
L 90 4237 
L 1357 4237 
L 2835 1024 
L 4250 4237 
L 5523 4237 
L 5523 4115 
Q 5178 4109 5072 3993 
Q 4966 3878 4966 3520 
L 4966 717 
Q 4966 378 5072 262 
Q 5178 147 5530 122 
L 5530 0 
z
" transform="scale(0.015625)"/>
        <path id="STIXGeneral-Regular-79" d="M 3040 2880 
L 3040 2784 
Q 2925 2771 2854 2700 
Q 2784 2630 2720 2458 
L 1760 -160 
Q 1510 -838 1257 -1116 
Q 1005 -1395 640 -1395 
Q 435 -1395 313 -1289 
Q 192 -1184 192 -1024 
Q 192 -902 272 -816 
Q 352 -730 467 -730 
Q 653 -730 800 -813 
Q 883 -858 966 -858 
Q 1101 -858 1286 -576 
Q 1376 -448 1459 -211 
Q 1542 26 1542 115 
Q 1542 198 1274 762 
L 429 2566 
Q 346 2752 90 2790 
L 90 2880 
L 1402 2880 
L 1402 2784 
Q 1197 2778 1117 2739 
Q 1037 2701 1037 2611 
Q 1037 2541 1120 2349 
L 1837 749 
L 2458 2515 
Q 2483 2573 2483 2630 
Q 2483 2784 2189 2784 
L 2189 2880 
L 3040 2880 
z
" transform="scale(0.015625)"/>
       </defs>
       <use xlink:href="#STIXGeneral-Regular-4d"/>
       <use xlink:href="#STIXGeneral-Regular-61" x="88.899994"/>
       <use xlink:href="#STIXGeneral-Regular-79" x="133.299988"/>
      </g>
     </g>
    </g>
    <g id="xtick_25">
     <g id="line2d_40">
      <g>
       <use xlink:href="#m8de5b9246c" x="74.077274" y="360.6155" style="fill: #323034; stroke: #323034; stroke-width: 0.8"/>
      </g>
     </g>
     <g id="text_11">
      <!-- Jun -->
      <g style="fill: #323034" transform="translate(65.839462 375.811125)scale(0.12 -0.12)">
       <defs>
        <path id="STIXGeneral-Regular-4a" d="M 2266 4237 
L 2266 4115 
Q 1875 4083 1776 3984 
Q 1677 3885 1677 3514 
L 1677 1184 
Q 1677 -90 608 -90 
Q 314 -90 138 32 
Q -38 154 -38 371 
Q -38 499 54 601 
Q 147 704 275 704 
Q 486 704 589 435 
Q 602 403 621 348 
Q 640 294 649 265 
Q 659 237 678 208 
Q 698 179 723 166 
Q 749 154 787 154 
Q 928 154 976 253 
Q 1024 352 1024 602 
L 1024 3520 
Q 1024 3898 928 3990 
Q 832 4083 429 4115 
L 429 4237 
L 2266 4237 
z
" transform="scale(0.015625)"/>
        <path id="STIXGeneral-Regular-75" d="M 3072 320 
L 3072 230 
Q 2573 96 2195 -58 
L 2163 -38 
L 2163 486 
L 2150 486 
Q 1747 -64 1235 -64 
Q 870 -64 662 160 
Q 454 384 454 755 
L 454 2362 
Q 454 2598 371 2688 
Q 288 2778 58 2790 
L 58 2880 
L 992 2880 
L 992 813 
Q 992 595 1123 451 
Q 1254 307 1446 307 
Q 1760 307 1984 506 
Q 2067 582 2099 649 
Q 2131 717 2131 877 
L 2131 2355 
Q 2131 2605 2041 2678 
Q 1952 2752 1658 2771 
L 1658 2880 
L 2669 2880 
L 2669 685 
Q 2669 461 2742 390 
Q 2816 320 3034 320 
L 3072 320 
z
" transform="scale(0.015625)"/>
       </defs>
       <use xlink:href="#STIXGeneral-Regular-4a"/>
       <use xlink:href="#STIXGeneral-Regular-75" x="37.299988"/>
       <use xlink:href="#STIXGeneral-Regular-6e" x="87.299973"/>
      </g>
     </g>
    </g>
    <g id="xtick_26">
     <g id="line2d_41">
      <g>
       <use xlink:href="#m8de5b9246c" x="95.706441" y="360.6155" style="fill: #323034; stroke: #323034; stroke-width: 0.8"/>
      </g>
     </g>
     <g id="text_12">
      <!-- Jul -->
      <g style="fill: #323034" transform="translate(88.800816 375.811125)scale(0.12 -0.12)">
       <use xlink:href="#STIXGeneral-Regular-4a"/>
       <use xlink:href="#STIXGeneral-Regular-75" x="37.299988"/>
       <use xlink:href="#STIXGeneral-Regular-6c" x="87.299973"/>
      </g>
     </g>
    </g>
    <g id="xtick_27">
     <g id="line2d_42">
      <g>
       <use xlink:href="#m8de5b9246c" x="118.05658" y="360.6155" style="fill: #323034; stroke: #323034; stroke-width: 0.8"/>
      </g>
     </g>
     <g id="text_13">
      <!-- Aug -->
      <g style="fill: #323034" transform="translate(107.724392 375.799875)scale(0.12 -0.12)">
       <use xlink:href="#STIXGeneral-Regular-41"/>
       <use xlink:href="#STIXGeneral-Regular-75" x="72.199982"/>
       <use xlink:href="#STIXGeneral-Regular-67" x="122.199966"/>
      </g>
     </g>
    </g>
    <g id="xtick_28">
     <g id="line2d_43">
      <g>
       <use xlink:href="#m8de5b9246c" x="140.406719" y="360.6155" style="fill: #323034; stroke: #323034; stroke-width: 0.8"/>
      </g>
     </g>
     <g id="text_14">
      <!-- Sep -->
      <g style="fill: #323034" transform="translate(131.406719 375.811125)scale(0.12 -0.12)">
       <use xlink:href="#STIXGeneral-Regular-53"/>
       <use xlink:href="#STIXGeneral-Regular-65" x="55.599991"/>
       <use xlink:href="#STIXGeneral-Regular-70" x="99.999985"/>
      </g>
     </g>
    </g>
    <g id="xtick_29">
     <g id="line2d_44">
      <g>
       <use xlink:href="#m8de5b9246c" x="162.035885" y="360.6155" style="fill: #323034; stroke: #323034; stroke-width: 0.8"/>
      </g>
     </g>
     <g id="text_15">
      <!-- Oct -->
      <g style="fill: #323034" transform="translate(153.37151 375.811125)scale(0.12 -0.12)">
       <defs>
        <path id="STIXGeneral-Regular-74" d="M 1702 493 
L 1786 422 
Q 1478 -64 1011 -64 
Q 448 -64 448 749 
L 448 2675 
L 109 2675 
Q 83 2694 83 2720 
Q 83 2771 192 2842 
Q 435 2982 813 3526 
Q 826 3546 874 3606 
Q 922 3667 941 3706 
Q 986 3706 986 3622 
L 986 2880 
L 1632 2880 
L 1632 2675 
L 986 2675 
L 986 845 
Q 986 538 1062 403 
Q 1139 269 1318 269 
Q 1510 269 1702 493 
z
" transform="scale(0.015625)"/>
       </defs>
       <use xlink:href="#STIXGeneral-Regular-4f"/>
       <use xlink:href="#STIXGeneral-Regular-63" x="72.199982"/>
       <use xlink:href="#STIXGeneral-Regular-74" x="116.599976"/>
      </g>
     </g>
    </g>
    <g id="xtick_30">
     <g id="line2d_45">
      <g>
       <use xlink:href="#m8de5b9246c" x="184.386024" y="360.6155" style="fill: #323034; stroke: #323034; stroke-width: 0.8"/>
      </g>
     </g>
     <g id="text_16">
      <!-- Nov -->
      <g style="fill: #323034" transform="translate(174.053837 375.811125)scale(0.12 -0.12)">
       <defs>
        <path id="STIXGeneral-Regular-4e" d="M 4525 4237 
L 4525 4115 
Q 4198 4083 4102 4000 
Q 4000 3910 3958 3756 
Q 3917 3603 3917 3245 
L 3917 -70 
L 3802 -70 
L 979 3443 
L 979 960 
Q 979 474 1088 323 
Q 1197 173 1574 122 
L 1574 0 
L 77 0 
L 77 122 
Q 474 166 586 310 
Q 698 454 698 960 
L 698 3776 
Q 531 3981 416 4048 
Q 301 4115 77 4115 
L 77 4237 
L 1165 4237 
L 3635 1146 
L 3635 3322 
Q 3635 3808 3514 3949 
Q 3437 4032 3344 4061 
Q 3251 4090 3008 4115 
L 3008 4237 
L 4525 4237 
z
" transform="scale(0.015625)"/>
        <path id="STIXGeneral-Regular-76" d="M 3053 2880 
L 3053 2784 
Q 2906 2771 2835 2688 
Q 2765 2605 2637 2285 
L 1818 230 
Q 1690 -90 1638 -90 
Q 1587 -90 1523 77 
Q 1510 96 1497 141 
Q 1485 186 1472 211 
L 704 2048 
Q 499 2534 403 2652 
Q 307 2771 122 2784 
L 122 2880 
L 1376 2880 
L 1376 2784 
Q 1210 2771 1146 2732 
Q 1082 2694 1082 2611 
Q 1082 2509 1139 2368 
L 1792 730 
L 2426 2387 
Q 2464 2483 2464 2579 
Q 2464 2758 2163 2784 
L 2163 2880 
L 3053 2880 
z
" transform="scale(0.015625)"/>
       </defs>
       <use xlink:href="#STIXGeneral-Regular-4e"/>
       <use xlink:href="#STIXGeneral-Regular-6f" x="72.199982"/>
       <use xlink:href="#STIXGeneral-Regular-76" x="122.199966"/>
      </g>
     </g>
    </g>
    <g id="xtick_31">
     <g id="line2d_46">
      <g>
       <use xlink:href="#m8de5b9246c" x="206.015191" y="360.6155" style="fill: #323034; stroke: #323034; stroke-width: 0.8"/>
      </g>
     </g>
     <g id="text_17">
      <!-- Dec -->
      <g style="fill: #323034" transform="translate(196.354253 375.811125)scale(0.12 -0.12)">
       <defs>
        <path id="STIXGeneral-Regular-44" d="M 102 4237 
L 1830 4237 
Q 3078 4237 3750 3654 
Q 4384 3110 4384 2138 
Q 4384 966 3514 410 
Q 2880 0 1901 0 
L 102 0 
L 102 122 
Q 474 147 570 252 
Q 666 358 666 736 
L 666 3520 
Q 666 3891 570 3990 
Q 474 4090 102 4115 
L 102 4237 
z
M 1318 3731 
L 1318 538 
Q 1318 365 1379 301 
Q 1440 237 1626 237 
Q 2125 237 2432 307 
Q 2739 378 3021 570 
Q 3686 1018 3686 2099 
Q 3686 3027 3078 3558 
Q 2803 3802 2476 3901 
Q 2150 4000 1658 4000 
Q 1472 4000 1395 3942 
Q 1318 3885 1318 3731 
z
" transform="scale(0.015625)"/>
       </defs>
       <use xlink:href="#STIXGeneral-Regular-44"/>
       <use xlink:href="#STIXGeneral-Regular-65" x="72.199982"/>
       <use xlink:href="#STIXGeneral-Regular-63" x="116.599976"/>
      </g>
     </g>
    </g>
    <g id="xtick_32">
     <g id="line2d_47">
      <g>
       <use xlink:href="#m8de5b9246c" x="228.36533" y="360.6155" style="fill: #323034; stroke: #323034; stroke-width: 0.8"/>
      </g>
     </g>
     <g id="text_18">
      <!-- Jan -->
      <g style="fill: #323034" transform="translate(220.463142 375.811125)scale(0.12 -0.12)">
       <use xlink:href="#STIXGeneral-Regular-4a"/>
       <use xlink:href="#STIXGeneral-Regular-61" x="37.299988"/>
       <use xlink:href="#STIXGeneral-Regular-6e" x="81.699982"/>
      </g>
      <!-- 2021 -->
      <g style="fill: #323034" transform="translate(216.36533 388.25025)scale(0.12 -0.12)">
       <use xlink:href="#STIXGeneral-Regular-32"/>
       <use xlink:href="#STIXGeneral-Regular-30" x="49.999985"/>
       <use xlink:href="#STIXGeneral-Regular-32" x="99.999969"/>
       <use xlink:href="#STIXGeneral-Regular-31" x="149.999954"/>
      </g>
     </g>
    </g>
    <g id="xtick_33">
     <g id="line2d_48">
      <g>
       <use xlink:href="#m8de5b9246c" x="250.715469" y="360.6155" style="fill: #323034; stroke: #323034; stroke-width: 0.8"/>
      </g>
     </g>
     <g id="text_19">
      <!-- Feb -->
      <g style="fill: #323034" transform="translate(241.715469 375.811125)scale(0.12 -0.12)">
       <defs>
        <path id="STIXGeneral-Regular-46" d="M 3494 3322 
L 3334 3322 
Q 3264 3757 3094 3875 
Q 2925 3994 2349 3994 
L 1504 3994 
Q 1370 3994 1328 3946 
Q 1286 3898 1286 3744 
L 1286 2355 
L 2195 2355 
Q 2598 2355 2736 2470 
Q 2874 2586 2918 2963 
L 3066 2963 
L 3066 1472 
L 2918 1472 
Q 2880 1862 2745 1977 
Q 2611 2093 2195 2093 
L 1286 2093 
L 1286 717 
Q 1286 352 1392 246 
Q 1498 141 1869 122 
L 1869 0 
L 70 0 
L 70 122 
Q 435 147 534 259 
Q 634 371 634 787 
L 634 3526 
Q 634 3878 538 3984 
Q 442 4090 77 4115 
L 77 4237 
L 3462 4237 
L 3494 3322 
z
" transform="scale(0.015625)"/>
        <path id="STIXGeneral-Regular-62" d="M 979 4358 
L 979 2406 
Q 1082 2650 1315 2797 
Q 1549 2944 1843 2944 
Q 2349 2944 2672 2541 
Q 2995 2138 2995 1536 
Q 2995 832 2566 384 
Q 2138 -64 1498 -64 
Q 1107 -64 774 67 
Q 442 198 442 358 
L 442 3622 
Q 442 3859 384 3926 
Q 326 3994 128 3994 
Q 83 3994 19 3981 
L 19 4090 
L 211 4147 
Q 864 4346 947 4371 
L 979 4358 
z
M 979 2035 
L 979 474 
Q 979 326 1161 233 
Q 1344 141 1600 141 
Q 1978 141 2195 416 
Q 2432 710 2432 1261 
Q 2432 1888 2182 2240 
Q 1971 2541 1613 2541 
Q 1357 2541 1168 2390 
Q 979 2240 979 2035 
z
" transform="scale(0.015625)"/>
       </defs>
       <use xlink:href="#STIXGeneral-Regular-46"/>
       <use xlink:href="#STIXGeneral-Regular-65" x="55.599991"/>
       <use xlink:href="#STIXGeneral-Regular-62" x="99.999985"/>
      </g>
     </g>
    </g>
   </g>
   <g id="matplotlib.axis_6">
    <g id="ytick_10">
     <g id="line2d_49">
      <g>
       <use xlink:href="#m86694ad8c7" x="250.715469" y="360.6155" style="fill: #323034; stroke: #323034; stroke-width: 0.8"/>
      </g>
     </g>
     <g id="text_20">
      <!-- $\mathdefault{−1.0}$ -->
      <g style="fill: #323034" transform="translate(257.715469 364.713313)scale(0.12 -0.12)">
       <use xlink:href="#STIXGeneral-Regular-2212" transform="translate(0 0.40625)"/>
       <use xlink:href="#STIXGeneral-Regular-31" transform="translate(68.499985 0.40625)"/>
       <use xlink:href="#STIXGeneral-Regular-2e" transform="translate(118.499969 0.40625)"/>
       <use xlink:href="#STIXGeneral-Regular-30" transform="translate(143.499954 0.40625)"/>
      </g>
     </g>
    </g>
    <g id="ytick_11">
     <g id="line2d_50">
      <g>
       <use xlink:href="#m86694ad8c7" x="250.715469" y="331.542389" style="fill: #323034; stroke: #323034; stroke-width: 0.8"/>
      </g>
     </g>
     <g id="text_21">
      <!-- $\mathdefault{−0.5}$ -->
      <g style="fill: #323034" transform="translate(257.715469 335.640201)scale(0.12 -0.12)">
       <use xlink:href="#STIXGeneral-Regular-2212" transform="translate(0 0.203125)"/>
       <use xlink:href="#STIXGeneral-Regular-30" transform="translate(68.499985 0.203125)"/>
       <use xlink:href="#STIXGeneral-Regular-2e" transform="translate(118.499969 0.203125)"/>
       <use xlink:href="#STIXGeneral-Regular-35" transform="translate(143.499954 0.203125)"/>
      </g>
     </g>
    </g>
    <g id="ytick_12">
     <g id="line2d_51">
      <g>
       <use xlink:href="#m86694ad8c7" x="250.715469" y="302.469278" style="fill: #323034; stroke: #323034; stroke-width: 0.8"/>
      </g>
     </g>
     <g id="text_22">
      <!-- $\mathdefault{0.0}$ -->
      <g style="fill: #323034" transform="translate(257.715469 306.56709)scale(0.12 -0.12)">
       <use xlink:href="#STIXGeneral-Regular-30" transform="translate(0 0.40625)"/>
       <use xlink:href="#STIXGeneral-Regular-2e" transform="translate(49.999985 0.40625)"/>
       <use xlink:href="#STIXGeneral-Regular-30" transform="translate(74.999969 0.40625)"/>
      </g>
     </g>
    </g>
    <g id="ytick_13">
     <g id="line2d_52">
      <g>
       <use xlink:href="#m86694ad8c7" x="250.715469" y="273.396167" style="fill: #323034; stroke: #323034; stroke-width: 0.8"/>
      </g>
     </g>
     <g id="text_23">
      <!-- $\mathdefault{0.5}$ -->
      <g style="fill: #323034" transform="translate(257.715469 277.493979)scale(0.12 -0.12)">
       <use xlink:href="#STIXGeneral-Regular-30" transform="translate(0 0.203125)"/>
       <use xlink:href="#STIXGeneral-Regular-2e" transform="translate(49.999985 0.203125)"/>
       <use xlink:href="#STIXGeneral-Regular-35" transform="translate(74.999969 0.203125)"/>
      </g>
     </g>
    </g>
    <g id="ytick_14">
     <g id="line2d_53">
      <g>
       <use xlink:href="#m3f3335ed0c" x="250.715469" y="346.078944" style="fill: #323034; stroke: #323034; stroke-width: 0.6"/>
      </g>
     </g>
    </g>
    <g id="ytick_15">
     <g id="line2d_54">
      <g>
       <use xlink:href="#m3f3335ed0c" x="250.715469" y="317.005833" style="fill: #323034; stroke: #323034; stroke-width: 0.6"/>
      </g>
     </g>
    </g>
    <g id="ytick_16">
     <g id="line2d_55">
      <g>
       <use xlink:href="#m3f3335ed0c" x="250.715469" y="287.932722" style="fill: #323034; stroke: #323034; stroke-width: 0.6"/>
      </g>
     </g>
    </g>
   </g>
   <g id="line2d_56">
    <path d="M 30.097969 304.776666 
L 30.818941 306.328215 
L 31.539913 304.531094 
L 32.260885 297.397285 
L 32.981858 304.894841 
L 33.70283 296.706892 
L 34.423802 299.420467 
L 35.144774 300.043365 
L 35.865747 300.983559 
L 36.586719 304.687416 
L 37.307691 303.620142 
L 38.028663 301.020511 
L 38.749635 305.166814 
L 39.470608 304.104238 
L 40.19158 300.198973 
L 40.912552 303.079434 
L 42.354497 307.136989 
L 43.075469 303.151065 
L 43.796441 300.228351 
L 44.517413 306.228245 
L 45.238385 302.572841 
L 46.68033 297.273368 
L 47.401302 296.455029 
L 48.122274 300.22946 
L 48.843247 308.950381 
L 51.006163 302.921507 
L 51.727135 298.13489 
L 52.448108 300.780712 
L 53.16908 296.568661 
L 53.890052 306.496242 
L 54.611024 303.264802 
L 55.331997 302.700558 
L 56.052969 299.471739 
L 56.773941 302.473156 
L 57.494913 302.718733 
L 58.215885 303.25395 
L 58.936858 312.09882 
L 59.65783 300.327363 
L 60.378802 305.415957 
L 61.099774 297.849386 
L 61.820747 301.871386 
L 62.541719 302.811449 
L 63.262691 304.941583 
L 63.983663 299.050549 
L 64.704635 303.059469 
L 65.425608 299.996277 
L 66.14658 299.840839 
L 66.867552 307.08901 
L 67.588524 305.506987 
L 68.309497 300.817986 
L 69.030469 306.026328 
L 69.751441 307.716125 
L 70.472413 310.55703 
L 71.193385 305.638836 
L 71.914358 304.098254 
L 72.63533 301.296999 
L 73.356302 297.917844 
L 74.077274 296.922225 
L 75.519219 306.218997 
L 76.240191 306.658239 
L 76.961163 294.229756 
L 77.682135 302.231981 
L 78.403108 302.457205 
L 79.12408 306.180655 
L 79.845052 306.986387 
L 80.566024 298.752476 
L 81.286997 303.308229 
L 82.007969 303.194556 
L 82.728941 298.95211 
L 83.449913 305.729155 
L 84.170885 306.849878 
L 84.891858 299.596352 
L 85.61283 302.312749 
L 87.054774 305.865708 
L 87.775747 300.625771 
L 88.496719 303.934047 
L 89.217691 300.929902 
L 89.938663 299.295614 
L 90.659635 301.274055 
L 91.380608 302.334886 
L 92.10158 304.221374 
L 92.822552 305.067122 
L 93.543524 301.17309 
L 94.264497 306.050505 
L 94.985469 300.588519 
L 95.706441 303.038957 
L 96.427413 303.050888 
L 97.148385 308.285942 
L 97.869358 310.822852 
L 98.59033 307.723324 
L 99.311302 307.782822 
L 100.032274 304.691684 
L 100.753247 302.152531 
L 101.474219 306.670189 
L 102.195191 305.014379 
L 102.916163 305.913697 
L 103.637135 299.667721 
L 104.358108 299.240184 
L 105.07908 300.014083 
L 105.800052 300.232777 
L 106.521024 298.849291 
L 107.241997 307.484534 
L 107.962969 308.051206 
L 108.683941 298.496569 
L 109.404913 303.195771 
L 110.125885 301.791383 
L 110.846858 299.78003 
L 111.56783 303.36849 
L 112.288802 304.723077 
L 113.009774 302.784291 
L 113.730747 304.369638 
L 114.451719 301.480911 
L 115.172691 300.547242 
L 115.893663 298.285156 
L 116.614635 299.608846 
L 118.05658 305.936948 
L 118.777552 301.384929 
L 119.498524 307.464537 
L 120.219497 303.113456 
L 120.940469 303.916886 
L 121.661441 303.67944 
L 122.382413 304.253144 
L 123.103385 302.363064 
L 123.824358 299.114471 
L 124.54533 303.92515 
L 125.266302 299.17061 
L 125.987274 298.889626 
L 126.708247 302.464159 
L 127.429219 300.473495 
L 128.150191 300.982592 
L 128.871163 299.602932 
L 129.592135 309.818712 
L 130.313108 302.910725 
L 131.03408 303.662868 
L 131.755052 303.478451 
L 132.476024 303.811051 
L 133.196997 300.774934 
L 133.917969 308.051422 
L 134.638941 301.105884 
L 135.359913 304.188222 
L 136.080885 297.113418 
L 136.801858 301.365869 
L 137.52283 304.621444 
L 138.243802 299.077545 
L 138.964774 303.552278 
L 139.685747 305.317985 
L 140.406719 294.640077 
L 141.127691 313.034919 
L 141.848663 296.863739 
L 142.569635 294.287796 
L 143.290608 297.37184 
L 144.01158 304.520016 
L 144.732552 322.664931 
L 145.453524 313.61179 
L 146.174497 307.495938 
L 146.895469 305.084378 
L 147.616441 298.042934 
L 148.337413 301.48828 
L 149.058385 299.880408 
L 149.779358 304.616581 
L 150.50033 300.524506 
L 151.221302 304.030128 
L 151.942274 301.343985 
L 152.663247 303.114079 
L 153.384219 303.916239 
L 154.105191 300.745609 
L 154.826163 288.007082 
L 155.547135 307.694164 
L 156.268108 304.905333 
L 156.98908 304.225905 
L 157.710052 298.704332 
L 158.431024 303.715345 
L 159.151997 299.752343 
L 159.872969 311.283438 
L 160.593941 299.39477 
L 161.314913 305.834132 
L 162.035885 304.832658 
L 162.756858 302.825245 
L 163.47783 301.482356 
L 164.198802 308.38196 
L 164.919774 288.759269 
L 165.640747 307.552372 
L 166.361719 300.740314 
L 167.082691 301.815888 
L 167.803663 305.542651 
L 168.524635 305.232075 
L 169.245608 302.51651 
L 169.96658 312.234619 
L 170.687552 301.700257 
L 171.408524 301.514602 
L 172.129497 300.361331 
L 172.850469 301.947564 
L 173.571441 310.482405 
L 175.013385 300.840304 
L 175.734358 302.881386 
L 176.45533 305.551159 
L 177.176302 300.747789 
L 177.897274 299.982644 
L 178.618247 297.438089 
L 179.339219 303.000537 
L 180.060191 303.682446 
L 180.781163 302.189848 
L 181.502135 303.071992 
L 182.223108 301.064265 
L 182.94408 302.374278 
L 183.665052 305.628875 
L 184.386024 303.524446 
L 185.106997 303.936157 
L 185.827969 304.74152 
L 186.548941 303.55123 
L 187.269913 301.188268 
L 187.990885 303.970744 
L 188.711858 301.613359 
L 189.43283 304.337555 
L 190.153802 304.988819 
L 190.874774 301.236521 
L 191.595747 307.631952 
L 192.316719 302.266629 
L 193.037691 303.056646 
L 193.758663 303.651093 
L 194.479635 302.625457 
L 195.200608 302.272101 
L 195.92158 302.735298 
L 196.642552 304.518047 
L 197.363524 300.172265 
L 198.084497 302.038989 
L 199.526441 302.271187 
L 200.247413 298.53707 
L 200.968385 297.499451 
L 201.689358 301.384405 
L 202.41033 333.907754 
L 203.131302 299.30892 
L 203.852274 309.630382 
L 204.573247 305.664419 
L 205.294219 305.051985 
L 206.015191 300.194137 
L 206.736163 301.416451 
L 207.457135 298.602822 
L 208.178108 300.998447 
L 208.89908 301.839053 
L 209.620052 302.240224 
L 210.341024 303.091823 
L 211.061997 299.216113 
L 211.782969 304.589737 
L 212.503941 304.00476 
L 213.224913 295.185883 
L 213.945885 306.24282 
L 214.666858 301.7526 
L 215.38783 306.194152 
L 216.108802 304.696174 
L 216.829774 298.31032 
L 217.550747 299.953093 
L 218.271719 298.296469 
L 218.992691 307.260142 
L 219.713663 298.70465 
L 220.434635 300.770555 
L 221.155608 299.211467 
L 221.87658 296.11202 
L 222.597552 305.850942 
L 223.318524 344.266199 
L 224.039497 296.888952 
L 224.760469 305.376424 
L 225.481441 303.932682 
L 226.202413 301.357408 
L 226.923385 300.15491 
L 227.644358 302.830045 
L 228.36533 331.295636 
L 229.086302 290.538525 
L 229.807274 300.476419 
L 230.528247 299.07443 
L 231.249219 303.559127 
L 231.970191 303.597599 
L 233.412135 296.848919 
L 234.133108 302.932376 
L 234.85408 300.639202 
L 235.575052 304.649545 
L 236.296024 301.948631 
L 237.016997 304.586812 
L 237.737969 302.375436 
L 238.458941 301.394054 
L 239.179913 305.224591 
L 239.900885 301.24269 
L 240.621858 320.243169 
L 241.34283 301.53876 
L 242.063802 304.008276 
L 243.505747 301.720114 
L 244.947691 304.54124 
L 245.668663 302.355753 
L 246.389635 302.535313 
L 247.110608 303.122037 
L 247.83158 300.374495 
L 248.552552 300.695676 
L 249.273524 306.712273 
L 250.715469 299.547085 
L 250.715469 299.547085 
" clip-path="url(#p7644256e30)" style="fill: none; stroke: #ff0000; stroke-opacity: 0.4; stroke-width: 2; stroke-linecap: square"/>
   </g>
   <g id="patch_11">
    <path d="M 250.715469 360.6155 
L 250.715469 273.396167 
" style="fill: none; stroke: #000000; stroke-width: 0.6; stroke-linejoin: miter; stroke-linecap: square"/>
   </g>
   <g id="patch_12">
    <path d="M 30.097969 360.6155 
L 250.715469 360.6155 
" style="fill: none; stroke: #000000; stroke-width: 0.6; stroke-linejoin: miter; stroke-linecap: square"/>
   </g>
   <g id="legend_3">
    <g id="patch_13">
     <path d="M 37.097969 291.566479 
L 86.196406 291.566479 
Q 88.196406 291.566479 88.196406 289.566479 
L 88.196406 280.396167 
Q 88.196406 278.396167 86.196406 278.396167 
L 37.097969 278.396167 
Q 35.097969 278.396167 35.097969 280.396167 
L 35.097969 289.566479 
Q 35.097969 291.566479 37.097969 291.566479 
z
" style="fill: #ffffff; opacity: 0.8; stroke: #e6e6e6; stroke-width: 0.8; stroke-linejoin: miter"/>
    </g>
    <g id="line2d_57">
     <path d="M 37.097969 283.896167 
L 47.097969 283.896167 
L 57.097969 283.896167 
" style="fill: none; stroke: #ff0000; stroke-opacity: 0.4; stroke-width: 2; stroke-linecap: square"/>
    </g>
    <g id="text_24">
     <!-- Error -->
     <g style="fill: #323034" transform="translate(65.097969 287.396167)scale(0.1 -0.1)">
      <defs>
       <path id="STIXGeneral-Regular-45" d="M 3821 1082 
L 3526 0 
L 77 0 
L 77 122 
Q 442 147 538 252 
Q 634 358 634 730 
L 634 3520 
Q 634 3878 534 3987 
Q 435 4096 77 4115 
L 77 4237 
L 3469 4237 
L 3494 3322 
L 3334 3322 
Q 3264 3750 3085 3872 
Q 2906 3994 2349 3994 
L 1510 3994 
Q 1370 3994 1328 3952 
Q 1286 3910 1286 3763 
L 1286 2355 
L 2253 2355 
Q 2656 2355 2787 2470 
Q 2918 2586 2976 2970 
L 3123 2970 
L 3123 1472 
L 2976 1472 
Q 2918 1875 2790 1984 
Q 2662 2093 2253 2093 
L 1286 2093 
L 1286 538 
Q 1286 346 1420 291 
Q 1555 237 1933 237 
L 2163 237 
Q 2848 237 3136 403 
Q 3424 570 3642 1082 
L 3821 1082 
z
" transform="scale(0.015625)"/>
      </defs>
      <use xlink:href="#STIXGeneral-Regular-45"/>
      <use xlink:href="#STIXGeneral-Regular-72" x="61.099991"/>
      <use xlink:href="#STIXGeneral-Regular-72" x="94.399979"/>
      <use xlink:href="#STIXGeneral-Regular-6f" x="127.699966"/>
      <use xlink:href="#STIXGeneral-Regular-72" x="177.699951"/>
     </g>
    </g>
   </g>
  </g>
  <g id="text_25">
   <!-- Unobserved Components (smooth trend) -->
   <g style="fill: #323034" transform="translate(7.2 19.493437)scale(0.18 -0.18)">
    <defs>
     <path id="STIXGeneral-Regular-55" d="M 4512 4237 
L 4512 4115 
Q 4122 4077 4016 3926 
Q 3910 3776 3910 3302 
L 3910 1670 
Q 3910 1178 3840 896 
Q 3770 614 3565 378 
Q 3155 -90 2272 -90 
Q 1574 -90 1184 205 
Q 666 589 666 1594 
L 666 3578 
Q 666 3898 566 3994 
Q 467 4090 90 4115 
L 90 4237 
L 1901 4237 
L 1901 4115 
Q 1517 4083 1417 3977 
Q 1318 3872 1318 3514 
L 1318 1517 
Q 1318 1101 1369 877 
Q 1421 653 1600 480 
Q 1901 192 2419 192 
Q 3066 192 3392 570 
Q 3539 749 3584 963 
Q 3629 1178 3629 1600 
L 3629 3283 
Q 3629 3782 3520 3936 
Q 3411 4090 3027 4115 
L 3027 4237 
L 4512 4237 
z
" transform="scale(0.015625)"/>
     <path id="STIXGeneral-Regular-43" d="M 3930 838 
L 4051 723 
Q 3482 -90 2304 -90 
Q 1376 -90 794 480 
Q 179 1082 179 2080 
Q 179 3014 755 3661 
Q 1357 4326 2310 4326 
Q 2720 4326 3072 4230 
Q 3475 4115 3514 4115 
Q 3725 4115 3782 4326 
L 3910 4326 
L 3968 2874 
L 3821 2874 
Q 3718 3334 3488 3584 
Q 3034 4070 2458 4070 
Q 1747 4070 1334 3548 
Q 922 3027 922 2182 
Q 922 1152 1382 653 
Q 1811 192 2522 192 
Q 2944 192 3251 339 
Q 3558 486 3930 838 
z
" transform="scale(0.015625)"/>
     <path id="STIXGeneral-Regular-6d" d="M 4960 0 
L 3565 0 
L 3565 96 
Q 3834 122 3907 208 
Q 3981 294 3981 576 
L 3981 1894 
Q 3981 2278 3869 2444 
Q 3757 2611 3488 2611 
Q 3264 2611 3107 2521 
Q 2950 2432 2803 2221 
L 2803 608 
Q 2803 301 2896 201 
Q 2989 102 3264 96 
L 3264 0 
L 1830 0 
L 1830 96 
Q 2112 115 2189 188 
Q 2266 262 2266 550 
L 2266 1901 
Q 2266 2611 1850 2611 
Q 1670 2611 1468 2531 
Q 1267 2451 1171 2336 
Q 1088 2240 1088 2227 
L 1088 448 
Q 1088 243 1177 176 
Q 1267 109 1523 96 
L 1523 0 
L 102 0 
L 102 96 
Q 371 102 460 195 
Q 550 288 550 563 
L 550 2150 
Q 550 2387 499 2480 
Q 448 2573 326 2573 
Q 230 2573 122 2547 
L 122 2656 
Q 557 2778 1011 2944 
L 1062 2925 
L 1062 2451 
L 1075 2451 
Q 1363 2752 1584 2848 
Q 1805 2944 2054 2944 
Q 2560 2944 2733 2406 
Q 3232 2944 3776 2944 
Q 4518 2944 4518 1792 
L 4518 493 
Q 4518 282 4582 202 
Q 4646 122 4794 109 
L 4960 96 
L 4960 0 
z
" transform="scale(0.015625)"/>
     <path id="STIXGeneral-Regular-28" d="M 1946 -1030 
L 1869 -1133 
Q 1126 -710 716 32 
Q 307 774 307 1613 
Q 307 3386 1888 4326 
L 1946 4224 
Q 1293 3667 1075 3126 
Q 858 2586 858 1632 
Q 858 685 1082 96 
Q 1306 -493 1946 -1030 
z
" transform="scale(0.015625)"/>
     <path id="STIXGeneral-Regular-68" d="M 3117 0 
L 1760 0 
L 1760 96 
Q 2042 128 2118 224 
Q 2195 320 2195 653 
L 2195 1920 
Q 2195 2598 1722 2598 
Q 1530 2598 1370 2508 
Q 1210 2419 1005 2195 
L 1005 653 
Q 1005 320 1081 224 
Q 1158 128 1440 96 
L 1440 0 
L 58 0 
L 58 96 
Q 333 134 400 224 
Q 467 314 467 653 
L 467 3667 
Q 467 3872 406 3933 
Q 346 3994 141 3994 
Q 83 3994 64 3987 
L 64 4090 
L 237 4141 
Q 730 4288 973 4371 
L 1005 4352 
L 1005 2406 
Q 1229 2694 1446 2819 
Q 1664 2944 1946 2944 
Q 2733 2944 2733 1926 
L 2733 653 
Q 2733 320 2793 233 
Q 2854 147 3117 96 
L 3117 0 
z
" transform="scale(0.015625)"/>
     <path id="STIXGeneral-Regular-29" d="M 186 4224 
L 262 4326 
Q 992 3891 1408 3148 
Q 1824 2406 1824 1581 
Q 1824 -166 243 -1133 
L 186 -1030 
Q 845 -486 1059 54 
Q 1274 595 1274 1562 
Q 1274 2534 1059 3120 
Q 845 3706 186 4224 
z
" transform="scale(0.015625)"/>
    </defs>
    <use xlink:href="#STIXGeneral-Regular-55"/>
    <use xlink:href="#STIXGeneral-Regular-6e" x="72.199982"/>
    <use xlink:href="#STIXGeneral-Regular-6f" x="122.199966"/>
    <use xlink:href="#STIXGeneral-Regular-62" x="172.199951"/>
    <use xlink:href="#STIXGeneral-Regular-73" x="222.199936"/>
    <use xlink:href="#STIXGeneral-Regular-65" x="261.09993"/>
    <use xlink:href="#STIXGeneral-Regular-72" x="305.499924"/>
    <use xlink:href="#STIXGeneral-Regular-76" x="338.799911"/>
    <use xlink:href="#STIXGeneral-Regular-65" x="388.799896"/>
    <use xlink:href="#STIXGeneral-Regular-64" x="433.19989"/>
    <use xlink:href="#STIXGeneral-Regular-20" x="483.199875"/>
    <use xlink:href="#STIXGeneral-Regular-43" x="508.19986"/>
    <use xlink:href="#STIXGeneral-Regular-6f" x="574.899857"/>
    <use xlink:href="#STIXGeneral-Regular-6d" x="624.899841"/>
    <use xlink:href="#STIXGeneral-Regular-70" x="702.699829"/>
    <use xlink:href="#STIXGeneral-Regular-6f" x="752.699814"/>
    <use xlink:href="#STIXGeneral-Regular-6e" x="802.699799"/>
    <use xlink:href="#STIXGeneral-Regular-65" x="852.699783"/>
    <use xlink:href="#STIXGeneral-Regular-6e" x="897.099777"/>
    <use xlink:href="#STIXGeneral-Regular-74" x="947.099762"/>
    <use xlink:href="#STIXGeneral-Regular-73" x="974.89975"/>
    <use xlink:href="#STIXGeneral-Regular-20" x="1013.799744"/>
    <use xlink:href="#STIXGeneral-Regular-28" x="1038.799728"/>
    <use xlink:href="#STIXGeneral-Regular-73" x="1072.099716"/>
    <use xlink:href="#STIXGeneral-Regular-6d" x="1110.99971"/>
    <use xlink:href="#STIXGeneral-Regular-6f" x="1188.799698"/>
    <use xlink:href="#STIXGeneral-Regular-6f" x="1238.799683"/>
    <use xlink:href="#STIXGeneral-Regular-74" x="1288.799667"/>
    <use xlink:href="#STIXGeneral-Regular-68" x="1316.599655"/>
    <use xlink:href="#STIXGeneral-Regular-20" x="1366.59964"/>
    <use xlink:href="#STIXGeneral-Regular-74" x="1391.599625"/>
    <use xlink:href="#STIXGeneral-Regular-72" x="1419.399612"/>
    <use xlink:href="#STIXGeneral-Regular-65" x="1452.6996"/>
    <use xlink:href="#STIXGeneral-Regular-6e" x="1497.099594"/>
    <use xlink:href="#STIXGeneral-Regular-64" x="1547.099579"/>
    <use xlink:href="#STIXGeneral-Regular-29" x="1597.099564"/>
   </g>
  </g>
 </g>
 <defs>
  <clipPath id="p6035e948c4">
   <rect x="30.097969" y="61.71" width="220.6175" height="87.219333"/>
  </clipPath>
  <clipPath id="pf952f441c9">
   <rect x="30.097969" y="167.553083" width="220.6175" height="87.219333"/>
  </clipPath>
  <clipPath id="p7644256e30">
   <rect x="30.097969" y="273.396167" width="220.6175" height="87.219333"/>
  </clipPath>
 </defs>
</svg>
