<?xml version="1.0" encoding="utf-8" standalone="no"?>
<!DOCTYPE svg PUBLIC "-//W3C//DTD SVG 1.1//EN"
  "http://www.w3.org/Graphics/SVG/1.1/DTD/svg11.dtd">
<svg height="350.881875pt" version="1.1" viewBox="0 0 711.759375 350.881875" width="711.759375pt" xmlns="http://www.w3.org/2000/svg" xmlns:xlink="http://www.w3.org/1999/xlink">
 <metadata>
  <rdf:RDF xmlns:cc="http://creativecommons.org/ns#" xmlns:dc="http://purl.org/dc/elements/1.1/" xmlns:rdf="http://www.w3.org/1999/02/22-rdf-syntax-ns#">
   <cc:Work>
    <dc:type rdf:resource="http://purl.org/dc/dcmitype/StillImage"/>
    <dc:date>2022-08-20T18:05:19.339107</dc:date>
    <dc:format>image/svg+xml</dc:format>
    <dc:creator>
     <cc:Agent>
      <dc:title>Matplotlib v3.4.3, https://matplotlib.org/</dc:title>
     </cc:Agent>
    </dc:creator>
   </cc:Work>
  </rdf:RDF>
 </metadata>
 <defs>
  <style type="text/css">*{stroke-linecap:butt;stroke-linejoin:round;}</style>
 </defs>
 <g id="figure_1">
  <g id="patch_1">
   <path d="M 0 350.881875 
L 711.759375 350.881875 
L 711.759375 0 
L 0 0 
z
" style="fill:none;"/>
  </g>
  <g id="axes_1">
   <g id="patch_2">
    <path d="M 48.566875 312.081875 
L 369.413125 312.081875 
L 369.413125 21.384375 
L 48.566875 21.384375 
z
" style="fill:#ffffff;"/>
   </g>
   <g id="matplotlib.axis_1">
    <g id="xtick_1">
     <g id="line2d_1">
      <defs>
       <path d="M 0 0 
L 0 3.5 
" id="medf921764c" style="stroke:#323034;stroke-width:0.8;"/>
      </defs>
      <g>
       <use style="fill:#323034;stroke:#323034;stroke-width:0.8;" x="63.150795" xlink:href="#medf921764c" y="312.081875"/>
      </g>
     </g>
     <g id="text_1">
      <!-- 2000 -->
      <g style="fill:#323034;" transform="translate(51.150795 327.2775)scale(0.12 -0.12)">
       <defs>
        <path d="M 3034 877 
L 2688 0 
L 186 0 
L 186 77 
L 1325 1286 
Q 1773 1754 1965 2144 
Q 2157 2534 2157 2950 
Q 2157 3379 1920 3616 
Q 1683 3853 1267 3853 
Q 922 3853 720 3673 
Q 518 3494 326 3021 
L 192 3053 
Q 301 3648 630 3987 
Q 960 4326 1523 4326 
Q 2054 4326 2380 4006 
Q 2707 3686 2707 3200 
Q 2707 2477 1888 1613 
L 832 486 
L 2330 486 
Q 2541 486 2665 569 
Q 2790 653 2944 915 
L 3034 877 
z
" id="STIXGeneral-Regular-32" transform="scale(0.015625)"/>
        <path d="M 3046 2112 
Q 3046 1683 2963 1302 
Q 2880 922 2717 602 
Q 2554 282 2266 96 
Q 1978 -90 1600 -90 
Q 1210 -90 915 108 
Q 621 307 461 640 
Q 301 973 227 1350 
Q 154 1728 154 2150 
Q 154 2746 301 3222 
Q 448 3699 790 4012 
Q 1133 4326 1626 4326 
Q 2253 4326 2649 3712 
Q 3046 3098 3046 2112 
z
M 2432 2080 
Q 2432 3091 2217 3625 
Q 2003 4160 1587 4160 
Q 1190 4160 979 3622 
Q 768 3085 768 2106 
Q 768 1120 979 598 
Q 1190 77 1600 77 
Q 2003 77 2217 598 
Q 2432 1120 2432 2080 
z
" id="STIXGeneral-Regular-30" transform="scale(0.015625)"/>
       </defs>
       <use xlink:href="#STIXGeneral-Regular-32"/>
       <use x="49.999985" xlink:href="#STIXGeneral-Regular-30"/>
       <use x="99.999969" xlink:href="#STIXGeneral-Regular-30"/>
       <use x="149.999954" xlink:href="#STIXGeneral-Regular-30"/>
      </g>
     </g>
    </g>
    <g id="xtick_2">
     <g id="line2d_2">
      <g>
       <use style="fill:#323034;stroke:#323034;stroke-width:0.8;" x="115.592606" xlink:href="#medf921764c" y="312.081875"/>
      </g>
     </g>
     <g id="text_2">
      <!-- 2004 -->
      <g style="fill:#323034;" transform="translate(103.592606 327.2775)scale(0.12 -0.12)">
       <defs>
        <path d="M 3027 1069 
L 2368 1069 
L 2368 0 
L 1869 0 
L 1869 1069 
L 77 1069 
L 77 1478 
L 2086 4326 
L 2368 4326 
L 2368 1478 
L 3027 1478 
L 3027 1069 
z
M 1869 1478 
L 1869 3674 
L 333 1478 
L 1869 1478 
z
" id="STIXGeneral-Regular-34" transform="scale(0.015625)"/>
       </defs>
       <use xlink:href="#STIXGeneral-Regular-32"/>
       <use x="49.999985" xlink:href="#STIXGeneral-Regular-30"/>
       <use x="99.999969" xlink:href="#STIXGeneral-Regular-30"/>
       <use x="149.999954" xlink:href="#STIXGeneral-Regular-34"/>
      </g>
     </g>
    </g>
    <g id="xtick_3">
     <g id="line2d_3">
      <g>
       <use style="fill:#323034;stroke:#323034;stroke-width:0.8;" x="168.034417" xlink:href="#medf921764c" y="312.081875"/>
      </g>
     </g>
     <g id="text_3">
      <!-- 2008 -->
      <g style="fill:#323034;" transform="translate(156.034417 327.2775)scale(0.12 -0.12)">
       <defs>
        <path d="M 2848 992 
Q 2848 499 2505 204 
Q 2163 -90 1587 -90 
Q 1050 -90 704 204 
Q 358 499 358 954 
Q 358 1293 524 1533 
Q 691 1773 1190 2125 
Q 710 2522 553 2765 
Q 397 3008 397 3328 
Q 397 3782 745 4054 
Q 1094 4326 1638 4326 
Q 2106 4326 2410 4060 
Q 2714 3795 2714 3411 
Q 2714 3059 2531 2848 
Q 2349 2637 1856 2374 
Q 2432 1990 2640 1689 
Q 2848 1389 2848 992 
z
M 2272 3411 
Q 2272 3744 2086 3945 
Q 1901 4147 1574 4147 
Q 1248 4147 1059 3977 
Q 870 3808 870 3513 
Q 870 3219 1059 2979 
Q 1248 2739 1670 2490 
Q 1997 2682 2134 2896 
Q 2272 3110 2272 3411 
z
M 1734 1741 
L 1357 1997 
Q 1075 1766 960 1545 
Q 845 1325 845 1011 
Q 845 576 1065 333 
Q 1286 90 1658 90 
Q 1971 90 2166 285 
Q 2362 480 2362 794 
Q 2362 1082 2214 1299 
Q 2067 1517 1734 1741 
z
" id="STIXGeneral-Regular-38" transform="scale(0.015625)"/>
       </defs>
       <use xlink:href="#STIXGeneral-Regular-32"/>
       <use x="49.999985" xlink:href="#STIXGeneral-Regular-30"/>
       <use x="99.999969" xlink:href="#STIXGeneral-Regular-30"/>
       <use x="149.999954" xlink:href="#STIXGeneral-Regular-38"/>
      </g>
     </g>
    </g>
    <g id="xtick_4">
     <g id="line2d_4">
      <g>
       <use style="fill:#323034;stroke:#323034;stroke-width:0.8;" x="220.476228" xlink:href="#medf921764c" y="312.081875"/>
      </g>
     </g>
     <g id="text_4">
      <!-- 2012 -->
      <g style="fill:#323034;" transform="translate(208.476228 327.2775)scale(0.12 -0.12)">
       <defs>
        <path d="M 2522 0 
L 755 0 
L 755 96 
Q 1107 115 1235 227 
Q 1363 339 1363 608 
L 1363 3482 
Q 1363 3795 1171 3795 
Q 1082 3795 883 3718 
L 710 3654 
L 710 3744 
L 1856 4326 
L 1914 4307 
L 1914 486 
Q 1914 275 2042 185 
Q 2170 96 2522 96 
L 2522 0 
z
" id="STIXGeneral-Regular-31" transform="scale(0.015625)"/>
       </defs>
       <use xlink:href="#STIXGeneral-Regular-32"/>
       <use x="49.999985" xlink:href="#STIXGeneral-Regular-30"/>
       <use x="99.999969" xlink:href="#STIXGeneral-Regular-31"/>
       <use x="149.999954" xlink:href="#STIXGeneral-Regular-32"/>
      </g>
     </g>
    </g>
    <g id="xtick_5">
     <g id="line2d_5">
      <g>
       <use style="fill:#323034;stroke:#323034;stroke-width:0.8;" x="272.918039" xlink:href="#medf921764c" y="312.081875"/>
      </g>
     </g>
     <g id="text_5">
      <!-- 2016 -->
      <g style="fill:#323034;" transform="translate(260.918039 327.2775)scale(0.12 -0.12)">
       <defs>
        <path d="M 2854 4378 
L 2867 4275 
Q 2112 4154 1606 3664 
Q 1101 3174 973 2451 
Q 1344 2739 1786 2739 
Q 2349 2739 2672 2380 
Q 2995 2022 2995 1402 
Q 2995 774 2669 378 
Q 2291 -90 1651 -90 
Q 870 -90 518 557 
Q 218 1107 218 1786 
Q 218 2835 915 3552 
Q 1312 3962 1731 4131 
Q 2150 4301 2854 4378 
z
M 2419 1203 
Q 2419 2445 1555 2445 
Q 1235 2445 1024 2275 
Q 813 2106 813 1702 
Q 813 954 1046 522 
Q 1280 90 1722 90 
Q 2061 90 2240 394 
Q 2419 698 2419 1203 
z
" id="STIXGeneral-Regular-36" transform="scale(0.015625)"/>
       </defs>
       <use xlink:href="#STIXGeneral-Regular-32"/>
       <use x="49.999985" xlink:href="#STIXGeneral-Regular-30"/>
       <use x="99.999969" xlink:href="#STIXGeneral-Regular-31"/>
       <use x="149.999954" xlink:href="#STIXGeneral-Regular-36"/>
      </g>
     </g>
    </g>
    <g id="xtick_6">
     <g id="line2d_6">
      <g>
       <use style="fill:#323034;stroke:#323034;stroke-width:0.8;" x="325.35985" xlink:href="#medf921764c" y="312.081875"/>
      </g>
     </g>
     <g id="text_6">
      <!-- 2020 -->
      <g style="fill:#323034;" transform="translate(313.35985 327.2775)scale(0.12 -0.12)">
       <use xlink:href="#STIXGeneral-Regular-32"/>
       <use x="49.999985" xlink:href="#STIXGeneral-Regular-30"/>
       <use x="99.999969" xlink:href="#STIXGeneral-Regular-32"/>
       <use x="149.999954" xlink:href="#STIXGeneral-Regular-30"/>
      </g>
     </g>
    </g>
    <g id="text_7">
     <!-- Date -->
     <g transform="translate(197.66125 341.0775)scale(0.12 -0.12)">
      <defs>
       <path d="M 102 4237 
L 1830 4237 
Q 3078 4237 3750 3654 
Q 4384 3110 4384 2138 
Q 4384 966 3514 410 
Q 2880 0 1901 0 
L 102 0 
L 102 122 
Q 474 147 570 252 
Q 666 358 666 736 
L 666 3520 
Q 666 3891 570 3990 
Q 474 4090 102 4115 
L 102 4237 
z
M 1318 3731 
L 1318 538 
Q 1318 365 1379 301 
Q 1440 237 1626 237 
Q 2125 237 2432 307 
Q 2739 378 3021 570 
Q 3686 1018 3686 2099 
Q 3686 3027 3078 3558 
Q 2803 3802 2476 3901 
Q 2150 4000 1658 4000 
Q 1472 4000 1395 3942 
Q 1318 3885 1318 3731 
z
" id="STIXGeneral-Regular-44" transform="scale(0.015625)"/>
       <path d="M 2829 422 
L 2829 243 
Q 2586 -64 2253 -64 
Q 1888 -64 1843 403 
L 1837 403 
Q 1427 -64 909 -64 
Q 608 -64 422 112 
Q 237 288 237 602 
Q 237 1050 685 1350 
Q 992 1555 1837 1869 
L 1837 2214 
Q 1837 2502 1699 2646 
Q 1562 2790 1338 2790 
Q 1146 2790 1018 2697 
Q 890 2605 890 2477 
Q 890 2419 909 2348 
Q 928 2278 928 2208 
Q 928 2112 841 2029 
Q 755 1946 634 1946 
Q 525 1946 441 2029 
Q 358 2112 358 2240 
Q 358 2547 685 2752 
Q 986 2944 1421 2944 
Q 1939 2944 2176 2656 
Q 2291 2522 2323 2384 
Q 2355 2246 2355 1946 
L 2355 723 
Q 2355 301 2554 301 
Q 2682 301 2829 422 
z
M 1837 813 
L 1837 1715 
Q 1248 1510 1018 1293 
Q 800 1094 800 800 
Q 800 557 921 432 
Q 1043 307 1242 307 
Q 1453 307 1613 410 
Q 1747 506 1792 589 
Q 1837 672 1837 813 
z
" id="STIXGeneral-Regular-61" transform="scale(0.015625)"/>
       <path d="M 1702 493 
L 1786 422 
Q 1478 -64 1011 -64 
Q 448 -64 448 749 
L 448 2675 
L 109 2675 
Q 83 2694 83 2720 
Q 83 2771 192 2842 
Q 435 2982 813 3526 
Q 826 3546 874 3606 
Q 922 3667 941 3706 
Q 986 3706 986 3622 
L 986 2880 
L 1632 2880 
L 1632 2675 
L 986 2675 
L 986 845 
Q 986 538 1062 403 
Q 1139 269 1318 269 
Q 1510 269 1702 493 
z
" id="STIXGeneral-Regular-74" transform="scale(0.015625)"/>
       <path d="M 2611 1050 
L 2714 1005 
Q 2330 -64 1376 -64 
Q 813 -64 486 329 
Q 160 723 160 1389 
Q 160 2074 525 2509 
Q 890 2944 1485 2944 
Q 2061 2944 2374 2502 
Q 2560 2246 2592 1773 
L 621 1773 
Q 646 1370 700 1158 
Q 755 947 915 730 
Q 1184 378 1626 378 
Q 1939 378 2153 531 
Q 2368 685 2611 1050 
z
M 634 1978 
L 1939 1978 
Q 1882 2381 1750 2547 
Q 1619 2714 1312 2714 
Q 1043 2714 864 2525 
Q 685 2336 634 1978 
z
" id="STIXGeneral-Regular-65" transform="scale(0.015625)"/>
      </defs>
      <use xlink:href="#STIXGeneral-Regular-44"/>
      <use x="72.199982" xlink:href="#STIXGeneral-Regular-61"/>
      <use x="116.599976" xlink:href="#STIXGeneral-Regular-74"/>
      <use x="144.399963" xlink:href="#STIXGeneral-Regular-65"/>
     </g>
    </g>
   </g>
   <g id="matplotlib.axis_2">
    <g id="ytick_1">
     <g id="line2d_7">
      <defs>
       <path d="M 0 0 
L -3.5 0 
" id="m18282e624f" style="stroke:#323034;stroke-width:0.8;"/>
      </defs>
      <g>
       <use style="fill:#323034;stroke:#323034;stroke-width:0.8;" x="48.566875" xlink:href="#m18282e624f" y="312.081875"/>
      </g>
     </g>
     <g id="text_8">
      <!-- $\mathdefault{−30}$ -->
      <g style="fill:#323034;" transform="translate(21.286875 316.179687)scale(0.12 -0.12)">
       <defs>
        <path d="M 3974 1408 
L 410 1408 
L 410 1830 
L 3974 1830 
L 3974 1408 
z
" id="STIXGeneral-Regular-2212" transform="scale(0.015625)"/>
        <path d="M 390 3264 
L 288 3290 
Q 435 3770 748 4048 
Q 1062 4326 1542 4326 
Q 1990 4326 2265 4083 
Q 2541 3840 2541 3450 
Q 2541 2925 1946 2566 
Q 2298 2413 2477 2227 
Q 2758 1914 2758 1402 
Q 2758 890 2464 506 
Q 2246 211 1840 60 
Q 1434 -90 979 -90 
Q 262 -90 262 275 
Q 262 378 339 442 
Q 416 506 525 506 
Q 685 506 915 339 
Q 1197 141 1466 141 
Q 1818 141 2058 425 
Q 2298 710 2298 1120 
Q 2298 1856 1632 2048 
Q 1434 2112 979 2112 
L 979 2202 
Q 1338 2323 1517 2432 
Q 2035 2726 2035 3290 
Q 2035 3610 1852 3776 
Q 1670 3942 1344 3942 
Q 768 3942 390 3264 
z
" id="STIXGeneral-Regular-33" transform="scale(0.015625)"/>
       </defs>
       <use transform="translate(0 0.40625)" xlink:href="#STIXGeneral-Regular-2212"/>
       <use transform="translate(68.499985 0.40625)" xlink:href="#STIXGeneral-Regular-33"/>
       <use transform="translate(118.499969 0.40625)" xlink:href="#STIXGeneral-Regular-30"/>
      </g>
     </g>
    </g>
    <g id="ytick_2">
     <g id="line2d_8">
      <g>
       <use style="fill:#323034;stroke:#323034;stroke-width:0.8;" x="48.566875" xlink:href="#m18282e624f" y="263.632292"/>
      </g>
     </g>
     <g id="text_9">
      <!-- $\mathdefault{−20}$ -->
      <g style="fill:#323034;" transform="translate(21.286875 267.730104)scale(0.12 -0.12)">
       <use transform="translate(0 0.40625)" xlink:href="#STIXGeneral-Regular-2212"/>
       <use transform="translate(68.499985 0.40625)" xlink:href="#STIXGeneral-Regular-32"/>
       <use transform="translate(118.499969 0.40625)" xlink:href="#STIXGeneral-Regular-30"/>
      </g>
     </g>
    </g>
    <g id="ytick_3">
     <g id="line2d_9">
      <g>
       <use style="fill:#323034;stroke:#323034;stroke-width:0.8;" x="48.566875" xlink:href="#m18282e624f" y="215.182708"/>
      </g>
     </g>
     <g id="text_10">
      <!-- $\mathdefault{−10}$ -->
      <g style="fill:#323034;" transform="translate(21.286875 219.280521)scale(0.12 -0.12)">
       <use transform="translate(0 0.40625)" xlink:href="#STIXGeneral-Regular-2212"/>
       <use transform="translate(68.499985 0.40625)" xlink:href="#STIXGeneral-Regular-31"/>
       <use transform="translate(118.499969 0.40625)" xlink:href="#STIXGeneral-Regular-30"/>
      </g>
     </g>
    </g>
    <g id="ytick_4">
     <g id="line2d_10">
      <g>
       <use style="fill:#323034;stroke:#323034;stroke-width:0.8;" x="48.566875" xlink:href="#m18282e624f" y="166.733125"/>
      </g>
     </g>
     <g id="text_11">
      <!-- $\mathdefault{0}$ -->
      <g style="fill:#323034;" transform="translate(35.566875 170.830937)scale(0.12 -0.12)">
       <use transform="translate(0 0.40625)" xlink:href="#STIXGeneral-Regular-30"/>
      </g>
     </g>
    </g>
    <g id="ytick_5">
     <g id="line2d_11">
      <g>
       <use style="fill:#323034;stroke:#323034;stroke-width:0.8;" x="48.566875" xlink:href="#m18282e624f" y="118.283542"/>
      </g>
     </g>
     <g id="text_12">
      <!-- $\mathdefault{10}$ -->
      <g style="fill:#323034;" transform="translate(29.566875 122.381354)scale(0.12 -0.12)">
       <use transform="translate(0 0.40625)" xlink:href="#STIXGeneral-Regular-31"/>
       <use transform="translate(49.999985 0.40625)" xlink:href="#STIXGeneral-Regular-30"/>
      </g>
     </g>
    </g>
    <g id="ytick_6">
     <g id="line2d_12">
      <g>
       <use style="fill:#323034;stroke:#323034;stroke-width:0.8;" x="48.566875" xlink:href="#m18282e624f" y="69.833958"/>
      </g>
     </g>
     <g id="text_13">
      <!-- $\mathdefault{20}$ -->
      <g style="fill:#323034;" transform="translate(29.566875 73.931771)scale(0.12 -0.12)">
       <use transform="translate(0 0.40625)" xlink:href="#STIXGeneral-Regular-32"/>
       <use transform="translate(49.999985 0.40625)" xlink:href="#STIXGeneral-Regular-30"/>
      </g>
     </g>
    </g>
    <g id="ytick_7">
     <g id="line2d_13">
      <g>
       <use style="fill:#323034;stroke:#323034;stroke-width:0.8;" x="48.566875" xlink:href="#m18282e624f" y="21.384375"/>
      </g>
     </g>
     <g id="text_14">
      <!-- $\mathdefault{30}$ -->
      <g style="fill:#323034;" transform="translate(29.566875 25.482187)scale(0.12 -0.12)">
       <use transform="translate(0 0.40625)" xlink:href="#STIXGeneral-Regular-33"/>
       <use transform="translate(49.999985 0.40625)" xlink:href="#STIXGeneral-Regular-30"/>
      </g>
     </g>
    </g>
    <g id="text_15">
     <!-- Real GDP growth, % -->
     <g transform="translate(15.67125 217.218437)rotate(-90)scale(0.12 -0.12)">
      <defs>
       <path d="M 4224 0 
L 3187 0 
L 1664 1971 
L 1306 1958 
L 1306 717 
Q 1306 352 1405 249 
Q 1504 147 1875 122 
L 1875 0 
L 109 0 
L 109 122 
Q 474 154 563 262 
Q 653 371 653 794 
L 653 3526 
Q 653 3885 563 3987 
Q 474 4090 109 4115 
L 109 4237 
L 1850 4237 
Q 2726 4237 3187 3859 
Q 3501 3603 3501 3091 
Q 3501 2221 2342 2042 
L 3622 422 
Q 3757 256 3878 198 
Q 4000 141 4224 122 
L 4224 0 
z
M 1306 3731 
L 1306 2195 
Q 1766 2202 1990 2246 
Q 2214 2291 2438 2413 
Q 2803 2618 2803 3142 
Q 2803 4000 1632 4000 
Q 1459 4000 1382 3945 
Q 1306 3891 1306 3731 
z
" id="STIXGeneral-Regular-52" transform="scale(0.015625)"/>
       <path d="M 1645 0 
L 134 0 
L 134 96 
Q 435 122 531 221 
Q 627 320 627 589 
L 627 3590 
Q 627 3821 569 3910 
Q 512 4000 358 4000 
Q 224 4000 122 3987 
L 122 4090 
Q 730 4237 1133 4371 
L 1165 4346 
L 1165 557 
Q 1165 288 1254 201 
Q 1344 115 1645 96 
L 1645 0 
z
" id="STIXGeneral-Regular-6c" transform="scale(0.015625)"/>
       <path id="STIXGeneral-Regular-20" transform="scale(0.015625)"/>
       <path d="M 4538 2266 
L 4538 2150 
Q 4256 2125 4173 2035 
Q 4090 1946 4090 1638 
L 4090 358 
Q 3539 -90 2464 -90 
Q 1965 -90 1507 89 
Q 1050 269 736 595 
Q 205 1152 205 2093 
Q 205 3155 890 3776 
Q 1491 4326 2419 4326 
Q 2829 4326 3270 4179 
Q 3443 4115 3552 4115 
Q 3654 4115 3731 4176 
Q 3808 4237 3840 4326 
L 3981 4326 
L 4032 2976 
L 3885 2976 
Q 3680 3475 3430 3718 
Q 3059 4070 2496 4070 
Q 1856 4070 1427 3629 
Q 934 3136 934 2074 
Q 934 1190 1395 678 
Q 1856 166 2618 166 
Q 2982 166 3225 281 
Q 3469 397 3469 557 
L 3469 1562 
Q 3469 1933 3376 2025 
Q 3283 2118 2899 2150 
L 2899 2266 
L 4538 2266 
z
" id="STIXGeneral-Regular-47" transform="scale(0.015625)"/>
       <path d="M 102 4237 
L 1760 4237 
Q 2669 4237 3149 3834 
Q 3469 3565 3469 3072 
Q 3469 2560 3104 2234 
Q 2835 1990 2553 1916 
Q 2272 1843 1734 1843 
Q 1549 1843 1293 1862 
L 1293 717 
Q 1293 352 1398 246 
Q 1504 141 1894 122 
L 1894 0 
L 102 0 
L 102 122 
Q 474 147 557 256 
Q 640 365 640 781 
L 640 3526 
Q 640 3885 547 3987 
Q 454 4090 102 4115 
L 102 4237 
z
M 1293 3770 
L 1293 2118 
Q 1510 2099 1683 2099 
Q 2202 2099 2486 2352 
Q 2771 2605 2771 3040 
Q 2771 3558 2476 3779 
Q 2182 4000 1517 4000 
Q 1382 4000 1337 3952 
Q 1293 3904 1293 3770 
z
" id="STIXGeneral-Regular-50" transform="scale(0.015625)"/>
       <path d="M 3008 2483 
L 2477 2483 
Q 2598 2208 2598 1946 
Q 2598 1453 2265 1203 
Q 1933 954 1600 954 
Q 1530 954 1357 973 
L 1235 986 
Q 1107 947 979 812 
Q 851 678 851 582 
Q 851 435 1350 410 
L 2176 371 
Q 2528 358 2739 172 
Q 2950 -13 2950 -314 
Q 2950 -685 2566 -986 
Q 2035 -1395 1286 -1395 
Q 826 -1395 502 -1212 
Q 179 -1030 179 -774 
Q 179 -595 320 -419 
Q 461 -243 806 6 
Q 602 102 534 172 
Q 467 243 467 346 
Q 467 531 762 787 
Q 909 915 1037 1043 
Q 717 1203 579 1401 
Q 442 1600 442 1901 
Q 442 2336 752 2640 
Q 1062 2944 1510 2944 
Q 1766 2944 2022 2848 
L 2163 2797 
Q 2349 2733 2515 2733 
L 3008 2733 
L 3008 2483 
z
M 973 2163 
L 973 2144 
Q 973 1683 1155 1398 
Q 1338 1114 1632 1114 
Q 1850 1114 1978 1270 
Q 2106 1427 2106 1690 
Q 2106 2112 1914 2464 
Q 1754 2765 1446 2765 
Q 1222 2765 1097 2605 
Q 973 2445 973 2163 
z
M 2771 -410 
Q 2771 -230 2595 -163 
Q 2419 -96 1978 -96 
Q 1344 -96 941 -13 
Q 749 -243 688 -348 
Q 627 -454 627 -563 
Q 627 -774 880 -902 
Q 1133 -1030 1555 -1030 
Q 2099 -1030 2435 -860 
Q 2771 -691 2771 -410 
z
" id="STIXGeneral-Regular-67" transform="scale(0.015625)"/>
       <path d="M 1024 2931 
L 1024 2342 
Q 1267 2688 1430 2816 
Q 1594 2944 1792 2944 
Q 1958 2944 2051 2854 
Q 2144 2765 2144 2605 
Q 2144 2470 2077 2393 
Q 2010 2317 1894 2317 
Q 1773 2317 1638 2445 
Q 1536 2541 1472 2541 
Q 1338 2541 1181 2355 
Q 1024 2170 1024 2016 
L 1024 576 
Q 1024 301 1133 205 
Q 1242 109 1568 96 
L 1568 0 
L 32 0 
L 32 96 
Q 339 154 412 224 
Q 486 294 486 538 
L 486 2138 
Q 486 2349 438 2435 
Q 390 2522 269 2522 
Q 166 2522 45 2496 
L 45 2598 
Q 448 2726 992 2944 
L 1024 2931 
z
" id="STIXGeneral-Regular-72" transform="scale(0.015625)"/>
       <path d="M 3008 1478 
Q 3008 806 2608 371 
Q 2208 -64 1568 -64 
Q 979 -64 582 368 
Q 186 800 186 1459 
Q 186 2125 582 2534 
Q 979 2944 1626 2944 
Q 2221 2944 2614 2537 
Q 3008 2131 3008 1478 
z
M 2432 1306 
Q 2432 2035 2112 2445 
Q 1856 2765 1504 2765 
Q 1171 2765 966 2493 
Q 762 2221 762 1747 
Q 762 928 1101 435 
Q 1318 115 1677 115 
Q 2029 115 2230 432 
Q 2432 749 2432 1306 
z
" id="STIXGeneral-Regular-6f" transform="scale(0.015625)"/>
       <path d="M 4442 2880 
L 4442 2784 
Q 4346 2752 4301 2691 
Q 4256 2630 4179 2438 
L 3296 224 
Q 3168 -90 3117 -90 
Q 3085 -90 3062 -48 
Q 3040 -6 2963 186 
L 2381 1696 
L 1664 160 
Q 1549 -90 1504 -90 
Q 1446 -90 1338 192 
L 474 2381 
Q 378 2630 314 2700 
Q 250 2771 134 2784 
L 134 2880 
L 1286 2880 
L 1286 2784 
Q 1120 2765 1056 2720 
Q 992 2675 992 2573 
Q 992 2477 1030 2381 
L 1664 710 
L 2246 1984 
L 2118 2342 
Q 2029 2598 1942 2681 
Q 1856 2765 1677 2784 
L 1677 2880 
L 2976 2880 
L 2976 2784 
Q 2752 2752 2678 2707 
Q 2605 2662 2605 2560 
Q 2605 2458 2714 2176 
L 3251 742 
L 3827 2163 
Q 3936 2432 3936 2592 
Q 3936 2669 3875 2710 
Q 3814 2752 3654 2784 
L 3654 2880 
L 4442 2880 
z
" id="STIXGeneral-Regular-77" transform="scale(0.015625)"/>
       <path d="M 3117 0 
L 1760 0 
L 1760 96 
Q 2042 128 2118 224 
Q 2195 320 2195 653 
L 2195 1920 
Q 2195 2598 1722 2598 
Q 1530 2598 1370 2508 
Q 1210 2419 1005 2195 
L 1005 653 
Q 1005 320 1081 224 
Q 1158 128 1440 96 
L 1440 0 
L 58 0 
L 58 96 
Q 333 134 400 224 
Q 467 314 467 653 
L 467 3667 
Q 467 3872 406 3933 
Q 346 3994 141 3994 
Q 83 3994 64 3987 
L 64 4090 
L 237 4141 
Q 730 4288 973 4371 
L 1005 4352 
L 1005 2406 
Q 1229 2694 1446 2819 
Q 1664 2944 1946 2944 
Q 2733 2944 2733 1926 
L 2733 653 
Q 2733 320 2793 233 
Q 2854 147 3117 96 
L 3117 0 
z
" id="STIXGeneral-Regular-68" transform="scale(0.015625)"/>
       <path d="M 531 -902 
L 467 -781 
Q 998 -422 998 -96 
Q 998 -13 909 -13 
Q 883 -13 822 -25 
Q 762 -38 723 -38 
Q 352 -38 352 288 
Q 352 454 457 553 
Q 563 653 736 653 
Q 954 653 1101 496 
Q 1248 339 1248 96 
Q 1248 -198 1053 -473 
Q 858 -749 531 -902 
z
" id="STIXGeneral-Regular-2c" transform="scale(0.015625)"/>
       <path d="M 4390 1363 
Q 4390 781 4070 329 
Q 3750 -122 3341 -122 
Q 3014 -122 2790 134 
Q 2566 390 2566 762 
Q 2566 1274 2940 1693 
Q 3315 2112 3776 2112 
Q 4070 2112 4230 1917 
Q 4390 1722 4390 1363 
z
M 4243 1376 
Q 4243 1626 4131 1779 
Q 4019 1933 3840 1933 
Q 3654 1933 3526 1786 
Q 3315 1562 3171 1187 
Q 3027 813 3027 486 
Q 3027 301 3129 176 
Q 3232 51 3386 51 
Q 3718 51 3980 457 
Q 4243 864 4243 1376 
z
M 3974 4518 
L 1222 -115 
L 922 -115 
L 3443 4096 
Q 3264 3891 3094 3811 
Q 2925 3731 2669 3731 
Q 2445 3731 2182 3821 
Q 2208 3674 2208 3539 
Q 2208 3206 2067 2873 
Q 1926 2541 1696 2323 
Q 1453 2086 1146 2086 
Q 826 2086 608 2339 
Q 390 2592 390 2963 
Q 390 3507 761 3916 
Q 1133 4326 1626 4326 
Q 1792 4326 2010 4147 
Q 2310 3898 2624 3898 
Q 2918 3898 3084 3994 
Q 3251 4090 3693 4518 
L 3974 4518 
z
M 2054 3642 
Q 2054 3782 2025 3833 
Q 1997 3885 1894 3936 
Q 1747 4006 1613 4154 
Q 1414 4058 1331 3984 
Q 1248 3910 1152 3750 
Q 845 3264 845 2707 
Q 845 2509 944 2384 
Q 1043 2259 1210 2259 
Q 1549 2259 1801 2675 
Q 2054 3091 2054 3642 
z
" id="STIXGeneral-Regular-25" transform="scale(0.015625)"/>
      </defs>
      <use xlink:href="#STIXGeneral-Regular-52"/>
      <use x="66.699997" xlink:href="#STIXGeneral-Regular-65"/>
      <use x="111.099991" xlink:href="#STIXGeneral-Regular-61"/>
      <use x="155.499985" xlink:href="#STIXGeneral-Regular-6c"/>
      <use x="183.299973" xlink:href="#STIXGeneral-Regular-20"/>
      <use x="208.299957" xlink:href="#STIXGeneral-Regular-47"/>
      <use x="280.499939" xlink:href="#STIXGeneral-Regular-44"/>
      <use x="352.699921" xlink:href="#STIXGeneral-Regular-50"/>
      <use x="408.399918" xlink:href="#STIXGeneral-Regular-20"/>
      <use x="433.399902" xlink:href="#STIXGeneral-Regular-67"/>
      <use x="483.399887" xlink:href="#STIXGeneral-Regular-72"/>
      <use x="516.699875" xlink:href="#STIXGeneral-Regular-6f"/>
      <use x="566.69986" xlink:href="#STIXGeneral-Regular-77"/>
      <use x="638.899841" xlink:href="#STIXGeneral-Regular-74"/>
      <use x="666.699829" xlink:href="#STIXGeneral-Regular-68"/>
      <use x="716.699814" xlink:href="#STIXGeneral-Regular-2c"/>
      <use x="741.699799" xlink:href="#STIXGeneral-Regular-20"/>
      <use x="766.699783" xlink:href="#STIXGeneral-Regular-25"/>
     </g>
    </g>
   </g>
   <g id="line2d_14">
    <path clip-path="url(#p9a39bd9c4f)" d="M 63.150795 146.258545 
L 66.417192 141.322856 
L 69.683588 147.478851 
L 72.985878 152.674895 
L 76.288169 156.095811 
L 79.518671 161.927251 
L 82.785067 164.371923 
L 86.087358 165.90637 
L 89.389648 160.295086 
L 92.62015 160.323808 
L 95.886546 156.361668 
L 99.188837 157.085426 
L 102.491127 158.612059 
L 105.721629 157.251572 
L 108.988025 151.035904 
L 112.290316 145.923658 
L 115.592606 145.64117 
L 118.859003 146.215639 
L 122.125399 149.820179 
L 125.427689 150.474579 
L 128.72998 147.796036 
L 131.960482 149.255372 
L 135.226878 150.029285 
L 138.529168 152.282203 
L 141.831459 151.108824 
L 145.061961 152.308381 
L 148.328357 155.452651 
L 151.630648 154.093104 
L 154.932938 159.268423 
L 158.16344 157.340487 
L 161.429836 155.112202 
L 164.732127 156.263736 
L 168.034417 159.723425 
L 171.300813 160.04644 
L 174.56721 165.559665 
L 177.8695 179.040963 
L 181.171791 182.63618 
L 184.402293 186.091179 
L 187.668689 181.93503 
L 190.970979 166.337497 
L 194.27327 158.165023 
L 197.503772 152.549665 
L 200.770168 150.506421 
L 204.072459 153.223202 
L 207.374749 156.894913 
L 210.605251 158.313047 
L 213.871647 162.284383 
L 217.173938 159.355748 
L 220.476228 154.135025 
L 223.742624 155.232084 
L 227.009021 154.171975 
L 230.311311 159.145608 
L 233.613602 158.902214 
L 236.844104 160.453233 
L 240.1105 157.431558 
L 243.41279 154.465449 
L 246.715081 160.463478 
L 249.945583 154.853321 
L 253.211979 153.014834 
L 256.514269 154.311787 
L 259.81656 148.510225 
L 263.047062 152.005097 
L 266.313458 156.158187 
L 269.615749 157.650359 
L 272.918039 158.747767 
L 276.184435 160.107072 
L 279.450832 158.747386 
L 282.753122 157.022999 
L 286.055413 157.598972 
L 289.285914 156.332345 
L 292.552311 155.751686 
L 295.854601 153.56511 
L 299.156892 152.124092 
L 302.387394 150.763405 
L 305.65379 151.941993 
L 308.95608 155.489831 
L 312.258371 156.301896 
L 315.488873 156.503098 
L 318.755269 155.500985 
L 322.05756 154.284348 
L 325.35985 163.677023 
L 328.626246 210.74348 
L 331.892642 180.722947 
L 335.194933 177.696855 
L 338.497224 164.08302 
L 341.727725 107.495352 
L 344.994122 142.767295 
L 348.296412 139.923625 
L 351.598703 149.64066 
L 354.829205 158.894164 
" style="fill:none;stroke:#bc80bd;stroke-linecap:square;stroke-width:2;"/>
   </g>
   <g id="patch_3">
    <path d="M 48.566875 312.081875 
L 48.566875 21.384375 
" style="fill:none;stroke:#000000;stroke-linecap:square;stroke-linejoin:miter;stroke-width:0.6;"/>
   </g>
   <g id="patch_4">
    <path d="M 48.566875 312.081875 
L 369.413125 312.081875 
" style="fill:none;stroke:#000000;stroke-linecap:square;stroke-linejoin:miter;stroke-width:0.6;"/>
   </g>
   <g id="text_16">
    <!-- Country = US -->
    <g style="fill:#323034;" transform="translate(48.566875 15.384375)scale(0.12 -0.12)">
     <defs>
      <path d="M 3930 838 
L 4051 723 
Q 3482 -90 2304 -90 
Q 1376 -90 794 480 
Q 179 1082 179 2080 
Q 179 3014 755 3661 
Q 1357 4326 2310 4326 
Q 2720 4326 3072 4230 
Q 3475 4115 3514 4115 
Q 3725 4115 3782 4326 
L 3910 4326 
L 3968 2874 
L 3821 2874 
Q 3718 3334 3488 3584 
Q 3034 4070 2458 4070 
Q 1747 4070 1334 3548 
Q 922 3027 922 2182 
Q 922 1152 1382 653 
Q 1811 192 2522 192 
Q 2944 192 3251 339 
Q 3558 486 3930 838 
z
" id="STIXGeneral-Regular-43" transform="scale(0.015625)"/>
      <path d="M 3072 320 
L 3072 230 
Q 2573 96 2195 -58 
L 2163 -38 
L 2163 486 
L 2150 486 
Q 1747 -64 1235 -64 
Q 870 -64 662 160 
Q 454 384 454 755 
L 454 2362 
Q 454 2598 371 2688 
Q 288 2778 58 2790 
L 58 2880 
L 992 2880 
L 992 813 
Q 992 595 1123 451 
Q 1254 307 1446 307 
Q 1760 307 1984 506 
Q 2067 582 2099 649 
Q 2131 717 2131 877 
L 2131 2355 
Q 2131 2605 2041 2678 
Q 1952 2752 1658 2771 
L 1658 2880 
L 2669 2880 
L 2669 685 
Q 2669 461 2742 390 
Q 2816 320 3034 320 
L 3072 320 
z
" id="STIXGeneral-Regular-75" transform="scale(0.015625)"/>
      <path d="M 3104 0 
L 1773 0 
L 1779 96 
Q 2016 115 2096 233 
Q 2176 352 2176 672 
L 2176 1946 
Q 2176 2592 1709 2592 
Q 1549 2592 1408 2515 
Q 1267 2438 1050 2227 
L 1050 461 
Q 1050 269 1136 192 
Q 1222 115 1466 96 
L 1466 0 
L 115 0 
L 115 96 
Q 358 115 435 214 
Q 512 314 512 602 
L 512 2157 
Q 512 2394 467 2483 
Q 422 2573 288 2573 
Q 160 2573 102 2547 
L 102 2656 
Q 550 2784 979 2944 
L 1030 2925 
L 1030 2426 
L 1037 2426 
Q 1491 2944 1958 2944 
Q 2323 2944 2518 2688 
Q 2714 2432 2714 1958 
L 2714 544 
Q 2714 288 2790 205 
Q 2867 122 3104 96 
L 3104 0 
z
" id="STIXGeneral-Regular-6e" transform="scale(0.015625)"/>
      <path d="M 3040 2880 
L 3040 2784 
Q 2925 2771 2854 2700 
Q 2784 2630 2720 2458 
L 1760 -160 
Q 1510 -838 1257 -1116 
Q 1005 -1395 640 -1395 
Q 435 -1395 313 -1289 
Q 192 -1184 192 -1024 
Q 192 -902 272 -816 
Q 352 -730 467 -730 
Q 653 -730 800 -813 
Q 883 -858 966 -858 
Q 1101 -858 1286 -576 
Q 1376 -448 1459 -211 
Q 1542 26 1542 115 
Q 1542 198 1274 762 
L 429 2566 
Q 346 2752 90 2790 
L 90 2880 
L 1402 2880 
L 1402 2784 
Q 1197 2778 1117 2739 
Q 1037 2701 1037 2611 
Q 1037 2541 1120 2349 
L 1837 749 
L 2458 2515 
Q 2483 2573 2483 2630 
Q 2483 2784 2189 2784 
L 2189 2880 
L 3040 2880 
z
" id="STIXGeneral-Regular-79" transform="scale(0.015625)"/>
      <path d="M 4077 2048 
L 307 2048 
L 307 2470 
L 4077 2470 
L 4077 2048 
z
M 4077 768 
L 307 768 
L 307 1190 
L 4077 1190 
L 4077 768 
z
" id="STIXGeneral-Regular-3d" transform="scale(0.015625)"/>
      <path d="M 4512 4237 
L 4512 4115 
Q 4122 4077 4016 3926 
Q 3910 3776 3910 3302 
L 3910 1670 
Q 3910 1178 3840 896 
Q 3770 614 3565 378 
Q 3155 -90 2272 -90 
Q 1574 -90 1184 205 
Q 666 589 666 1594 
L 666 3578 
Q 666 3898 566 3994 
Q 467 4090 90 4115 
L 90 4237 
L 1901 4237 
L 1901 4115 
Q 1517 4083 1417 3977 
Q 1318 3872 1318 3514 
L 1318 1517 
Q 1318 1101 1369 877 
Q 1421 653 1600 480 
Q 1901 192 2419 192 
Q 3066 192 3392 570 
Q 3539 749 3584 963 
Q 3629 1178 3629 1600 
L 3629 3283 
Q 3629 3782 3520 3936 
Q 3411 4090 3027 4115 
L 3027 4237 
L 4512 4237 
z
" id="STIXGeneral-Regular-55" transform="scale(0.015625)"/>
      <path d="M 3002 2963 
L 2842 2963 
Q 2733 3360 2579 3565 
Q 2189 4064 1651 4064 
Q 1357 4064 1181 3894 
Q 1005 3725 1005 3456 
Q 1005 3328 1069 3206 
Q 1133 3085 1206 2998 
Q 1280 2912 1465 2784 
Q 1651 2656 1766 2589 
Q 1882 2522 2150 2362 
Q 2669 2061 2905 1763 
Q 3142 1466 3142 1107 
Q 3142 576 2771 243 
Q 2400 -90 1837 -90 
Q 1421 -90 1082 58 
Q 915 128 781 128 
Q 704 128 653 70 
Q 602 13 602 -83 
L 461 -83 
L 275 1274 
L 416 1274 
Q 845 141 1734 141 
Q 2074 141 2285 342 
Q 2496 544 2496 858 
Q 2496 1158 2310 1363 
Q 2003 1696 1235 2106 
Q 454 2522 454 3206 
Q 454 3718 768 4022 
Q 1082 4326 1568 4326 
Q 1907 4326 2240 4186 
Q 2413 4109 2522 4109 
Q 2688 4109 2726 4326 
L 2861 4326 
L 3002 2963 
z
" id="STIXGeneral-Regular-53" transform="scale(0.015625)"/>
     </defs>
     <use xlink:href="#STIXGeneral-Regular-43"/>
     <use x="66.699997" xlink:href="#STIXGeneral-Regular-6f"/>
     <use x="116.699982" xlink:href="#STIXGeneral-Regular-75"/>
     <use x="166.699966" xlink:href="#STIXGeneral-Regular-6e"/>
     <use x="216.699951" xlink:href="#STIXGeneral-Regular-74"/>
     <use x="244.499939" xlink:href="#STIXGeneral-Regular-72"/>
     <use x="277.799927" xlink:href="#STIXGeneral-Regular-79"/>
     <use x="327.799911" xlink:href="#STIXGeneral-Regular-20"/>
     <use x="352.799896" xlink:href="#STIXGeneral-Regular-3d"/>
     <use x="421.299881" xlink:href="#STIXGeneral-Regular-20"/>
     <use x="446.299866" xlink:href="#STIXGeneral-Regular-55"/>
     <use x="518.499847" xlink:href="#STIXGeneral-Regular-53"/>
    </g>
   </g>
  </g>
  <g id="axes_2">
   <g id="patch_5">
    <path d="M 383.713125 312.081875 
L 704.559375 312.081875 
L 704.559375 21.384375 
L 383.713125 21.384375 
z
" style="fill:#ffffff;"/>
   </g>
   <g id="matplotlib.axis_3">
    <g id="xtick_7">
     <g id="line2d_15">
      <g>
       <use style="fill:#323034;stroke:#323034;stroke-width:0.8;" x="398.297045" xlink:href="#medf921764c" y="312.081875"/>
      </g>
     </g>
     <g id="text_17">
      <!-- 2000 -->
      <g style="fill:#323034;" transform="translate(386.297045 327.2775)scale(0.12 -0.12)">
       <use xlink:href="#STIXGeneral-Regular-32"/>
       <use x="49.999985" xlink:href="#STIXGeneral-Regular-30"/>
       <use x="99.999969" xlink:href="#STIXGeneral-Regular-30"/>
       <use x="149.999954" xlink:href="#STIXGeneral-Regular-30"/>
      </g>
     </g>
    </g>
    <g id="xtick_8">
     <g id="line2d_16">
      <g>
       <use style="fill:#323034;stroke:#323034;stroke-width:0.8;" x="450.738856" xlink:href="#medf921764c" y="312.081875"/>
      </g>
     </g>
     <g id="text_18">
      <!-- 2004 -->
      <g style="fill:#323034;" transform="translate(438.738856 327.2775)scale(0.12 -0.12)">
       <use xlink:href="#STIXGeneral-Regular-32"/>
       <use x="49.999985" xlink:href="#STIXGeneral-Regular-30"/>
       <use x="99.999969" xlink:href="#STIXGeneral-Regular-30"/>
       <use x="149.999954" xlink:href="#STIXGeneral-Regular-34"/>
      </g>
     </g>
    </g>
    <g id="xtick_9">
     <g id="line2d_17">
      <g>
       <use style="fill:#323034;stroke:#323034;stroke-width:0.8;" x="503.180667" xlink:href="#medf921764c" y="312.081875"/>
      </g>
     </g>
     <g id="text_19">
      <!-- 2008 -->
      <g style="fill:#323034;" transform="translate(491.180667 327.2775)scale(0.12 -0.12)">
       <use xlink:href="#STIXGeneral-Regular-32"/>
       <use x="49.999985" xlink:href="#STIXGeneral-Regular-30"/>
       <use x="99.999969" xlink:href="#STIXGeneral-Regular-30"/>
       <use x="149.999954" xlink:href="#STIXGeneral-Regular-38"/>
      </g>
     </g>
    </g>
    <g id="xtick_10">
     <g id="line2d_18">
      <g>
       <use style="fill:#323034;stroke:#323034;stroke-width:0.8;" x="555.622478" xlink:href="#medf921764c" y="312.081875"/>
      </g>
     </g>
     <g id="text_20">
      <!-- 2012 -->
      <g style="fill:#323034;" transform="translate(543.622478 327.2775)scale(0.12 -0.12)">
       <use xlink:href="#STIXGeneral-Regular-32"/>
       <use x="49.999985" xlink:href="#STIXGeneral-Regular-30"/>
       <use x="99.999969" xlink:href="#STIXGeneral-Regular-31"/>
       <use x="149.999954" xlink:href="#STIXGeneral-Regular-32"/>
      </g>
     </g>
    </g>
    <g id="xtick_11">
     <g id="line2d_19">
      <g>
       <use style="fill:#323034;stroke:#323034;stroke-width:0.8;" x="608.064289" xlink:href="#medf921764c" y="312.081875"/>
      </g>
     </g>
     <g id="text_21">
      <!-- 2016 -->
      <g style="fill:#323034;" transform="translate(596.064289 327.2775)scale(0.12 -0.12)">
       <use xlink:href="#STIXGeneral-Regular-32"/>
       <use x="49.999985" xlink:href="#STIXGeneral-Regular-30"/>
       <use x="99.999969" xlink:href="#STIXGeneral-Regular-31"/>
       <use x="149.999954" xlink:href="#STIXGeneral-Regular-36"/>
      </g>
     </g>
    </g>
    <g id="xtick_12">
     <g id="line2d_20">
      <g>
       <use style="fill:#323034;stroke:#323034;stroke-width:0.8;" x="660.5061" xlink:href="#medf921764c" y="312.081875"/>
      </g>
     </g>
     <g id="text_22">
      <!-- 2020 -->
      <g style="fill:#323034;" transform="translate(648.5061 327.2775)scale(0.12 -0.12)">
       <use xlink:href="#STIXGeneral-Regular-32"/>
       <use x="49.999985" xlink:href="#STIXGeneral-Regular-30"/>
       <use x="99.999969" xlink:href="#STIXGeneral-Regular-32"/>
       <use x="149.999954" xlink:href="#STIXGeneral-Regular-30"/>
      </g>
     </g>
    </g>
    <g id="text_23">
     <!-- Date -->
     <g transform="translate(532.8075 341.0775)scale(0.12 -0.12)">
      <use xlink:href="#STIXGeneral-Regular-44"/>
      <use x="72.199982" xlink:href="#STIXGeneral-Regular-61"/>
      <use x="116.599976" xlink:href="#STIXGeneral-Regular-74"/>
      <use x="144.399963" xlink:href="#STIXGeneral-Regular-65"/>
     </g>
    </g>
   </g>
   <g id="matplotlib.axis_4">
    <g id="ytick_8">
     <g id="line2d_21">
      <g>
       <use style="fill:#323034;stroke:#323034;stroke-width:0.8;" x="383.713125" xlink:href="#m18282e624f" y="312.081875"/>
      </g>
     </g>
    </g>
    <g id="ytick_9">
     <g id="line2d_22">
      <g>
       <use style="fill:#323034;stroke:#323034;stroke-width:0.8;" x="383.713125" xlink:href="#m18282e624f" y="263.632292"/>
      </g>
     </g>
    </g>
    <g id="ytick_10">
     <g id="line2d_23">
      <g>
       <use style="fill:#323034;stroke:#323034;stroke-width:0.8;" x="383.713125" xlink:href="#m18282e624f" y="215.182708"/>
      </g>
     </g>
    </g>
    <g id="ytick_11">
     <g id="line2d_24">
      <g>
       <use style="fill:#323034;stroke:#323034;stroke-width:0.8;" x="383.713125" xlink:href="#m18282e624f" y="166.733125"/>
      </g>
     </g>
    </g>
    <g id="ytick_12">
     <g id="line2d_25">
      <g>
       <use style="fill:#323034;stroke:#323034;stroke-width:0.8;" x="383.713125" xlink:href="#m18282e624f" y="118.283542"/>
      </g>
     </g>
    </g>
    <g id="ytick_13">
     <g id="line2d_26">
      <g>
       <use style="fill:#323034;stroke:#323034;stroke-width:0.8;" x="383.713125" xlink:href="#m18282e624f" y="69.833958"/>
      </g>
     </g>
    </g>
    <g id="ytick_14">
     <g id="line2d_27">
      <g>
       <use style="fill:#323034;stroke:#323034;stroke-width:0.8;" x="383.713125" xlink:href="#m18282e624f" y="21.384375"/>
      </g>
     </g>
    </g>
   </g>
   <g id="line2d_28">
    <path clip-path="url(#p88b7e339af)" d="M 398.297045 145.825066 
L 401.563442 144.079172 
L 404.829838 150.141624 
L 408.132128 155.492519 
L 411.434419 156.136909 
L 414.664921 157.057016 
L 417.931317 156.634579 
L 421.233608 156.931309 
L 424.535898 158.53004 
L 427.7664 157.602971 
L 431.032796 156.456949 
L 434.335087 153.2267 
L 437.637377 153.067589 
L 440.867879 152.501644 
L 444.134275 151.112139 
L 447.436566 151.553446 
L 450.738856 152.120559 
L 454.005253 153.211004 
L 457.271649 156.837283 
L 460.573939 159.007149 
L 463.87623 158.219016 
L 467.106732 156.15879 
L 470.373128 153.020857 
L 473.675418 149.330064 
L 476.977709 149.718154 
L 480.208211 152.784628 
L 483.474607 155.993948 
L 486.776898 158.218207 
L 490.079188 156.973661 
L 493.30969 156.393601 
L 496.576086 154.17254 
L 499.878377 155.421082 
L 503.180667 156.308891 
L 506.447063 160.812831 
L 509.71346 171.39567 
L 513.01575 182.822106 
L 516.318041 194.02214 
L 519.548543 193.394894 
L 522.814939 186.175218 
L 526.117229 175.185778 
L 529.41952 163.062805 
L 532.650022 155.974759 
L 535.916418 152.818337 
L 539.218709 153.760875 
L 542.520999 154.927326 
L 545.751501 159.993593 
L 549.017897 161.854985 
L 552.320188 161.823087 
L 555.622478 160.774493 
L 558.888874 161.558219 
L 562.155271 157.13988 
L 565.457561 158.985599 
L 568.759852 160.053754 
L 571.990354 156.534883 
L 575.25675 158.770088 
L 578.55904 154.955001 
L 581.861331 152.61525 
L 585.091833 151.877054 
L 588.358229 152.323097 
L 591.660519 152.151795 
L 594.96281 153.575991 
L 598.193312 153.91031 
L 601.459708 154.601482 
L 604.761999 154.011918 
L 608.064289 155.015252 
L 611.330685 155.80885 
L 614.597082 156.262199 
L 617.899372 155.970001 
L 621.201663 154.943461 
L 624.432164 156.258911 
L 627.698561 156.342463 
L 631.000851 157.995179 
L 634.303142 160.019718 
L 637.533644 158.864545 
L 640.80004 157.867202 
L 644.10233 158.198534 
L 647.404621 156.205241 
L 650.635123 158.24308 
L 653.901519 159.08939 
L 657.20381 160.954204 
L 660.5061 176.386267 
L 663.772496 269.147382 
L 667.038892 203.969998 
L 670.341183 197.136448 
L 673.643474 190.82884 
L 676.873975 48.065667 
L 680.140372 133.508803 
L 683.442662 134.565859 
L 686.744953 124.39435 
L 689.975455 152.529387 
" style="fill:none;stroke:#fb8072;stroke-linecap:square;stroke-width:2;"/>
   </g>
   <g id="patch_6">
    <path d="M 383.713125 312.081875 
L 383.713125 21.384375 
" style="fill:none;stroke:#000000;stroke-linecap:square;stroke-linejoin:miter;stroke-width:0.6;"/>
   </g>
   <g id="patch_7">
    <path d="M 383.713125 312.081875 
L 704.559375 312.081875 
" style="fill:none;stroke:#000000;stroke-linecap:square;stroke-linejoin:miter;stroke-width:0.6;"/>
   </g>
   <g id="text_24">
    <!-- Country = UK -->
    <g style="fill:#323034;" transform="translate(383.713125 15.384375)scale(0.12 -0.12)">
     <defs>
      <path d="M 4627 0 
L 2688 0 
L 2688 122 
L 2861 128 
Q 3130 134 3130 282 
Q 3130 397 2922 643 
Q 2714 890 2253 1370 
L 1613 2029 
L 1446 1894 
L 1446 710 
Q 1446 352 1548 253 
Q 1651 154 2016 122 
L 2016 0 
L 211 0 
L 211 122 
Q 589 141 691 262 
Q 794 384 794 800 
L 794 3514 
Q 794 3872 691 3981 
Q 589 4090 218 4115 
L 218 4237 
L 2022 4237 
L 2022 4115 
Q 1632 4090 1539 3987 
Q 1446 3885 1446 3507 
L 1446 2227 
L 2586 3277 
Q 2861 3533 2973 3667 
Q 3085 3802 3085 3910 
Q 3085 4013 3030 4057 
Q 2976 4102 2822 4109 
L 2662 4115 
L 2662 4237 
L 4320 4237 
L 4320 4115 
Q 3994 4090 3824 4003 
Q 3654 3917 3322 3597 
L 2131 2458 
L 3629 819 
Q 4026 384 4214 253 
Q 4403 122 4627 122 
L 4627 0 
z
" id="STIXGeneral-Regular-4b" transform="scale(0.015625)"/>
     </defs>
     <use xlink:href="#STIXGeneral-Regular-43"/>
     <use x="66.699997" xlink:href="#STIXGeneral-Regular-6f"/>
     <use x="116.699982" xlink:href="#STIXGeneral-Regular-75"/>
     <use x="166.699966" xlink:href="#STIXGeneral-Regular-6e"/>
     <use x="216.699951" xlink:href="#STIXGeneral-Regular-74"/>
     <use x="244.499939" xlink:href="#STIXGeneral-Regular-72"/>
     <use x="277.799927" xlink:href="#STIXGeneral-Regular-79"/>
     <use x="327.799911" xlink:href="#STIXGeneral-Regular-20"/>
     <use x="352.799896" xlink:href="#STIXGeneral-Regular-3d"/>
     <use x="421.299881" xlink:href="#STIXGeneral-Regular-20"/>
     <use x="446.299866" xlink:href="#STIXGeneral-Regular-55"/>
     <use x="518.499847" xlink:href="#STIXGeneral-Regular-4b"/>
    </g>
   </g>
  </g>
 </g>
 <defs>
  <clipPath id="p9a39bd9c4f">
   <rect height="290.6975" width="320.84625" x="48.566875" y="21.384375"/>
  </clipPath>
  <clipPath id="p88b7e339af">
   <rect height="290.6975" width="320.84625" x="383.713125" y="21.384375"/>
  </clipPath>
 </defs>
</svg>
