<?xml version="1.0" encoding="utf-8" standalone="no"?>
<!DOCTYPE svg PUBLIC "-//W3C//DTD SVG 1.1//EN"
  "http://www.w3.org/Graphics/SVG/1.1/DTD/svg11.dtd">
<svg xmlns:xlink="http://www.w3.org/1999/xlink" width="305.174187pt" height="304.917134pt" viewBox="0 0 305.174187 304.917134" xmlns="http://www.w3.org/2000/svg" version="1.1">
 <metadata>
  <rdf:RDF xmlns:dc="http://purl.org/dc/elements/1.1/" xmlns:cc="http://creativecommons.org/ns#" xmlns:rdf="http://www.w3.org/1999/02/22-rdf-syntax-ns#">
   <cc:Work>
    <dc:type rdf:resource="http://purl.org/dc/dcmitype/StillImage"/>
    <dc:date>2022-10-24T21:32:20.868553</dc:date>
    <dc:format>image/svg+xml</dc:format>
    <dc:creator>
     <cc:Agent>
      <dc:title>Matplotlib v3.5.3, https://matplotlib.org/</dc:title>
     </cc:Agent>
    </dc:creator>
   </cc:Work>
  </rdf:RDF>
 </metadata>
 <defs>
  <style type="text/css">*{stroke-linejoin: round; stroke-linecap: butt}</style>
 </defs>
 <g id="figure_1">
  <g id="patch_1">
   <path d="M 0 304.917134 
L 305.174187 304.917134 
L 305.174187 0 
L 0 0 
z
" style="fill: #ffffff"/>
  </g>
  <g id="axes_1">
   <g id="patch_2">
    <path d="M 273.312 152.458567 
C 273.312 134.985813 269.870248 117.68296 263.183715 101.54024 
C 256.497182 85.397521 246.695903 70.72887 234.3408 58.373767 
C 221.985697 46.018664 207.317046 36.217385 191.174327 29.530852 
C 175.031607 22.844319 157.728754 19.402567 140.256 19.402567 
C 122.783246 19.402567 105.480393 22.844319 89.337673 29.530852 
C 73.194954 36.217385 58.526303 46.018664 46.1712 58.373767 
C 33.816097 70.72887 24.014818 85.397521 17.328285 101.54024 
C 10.641752 117.68296 7.2 134.985813 7.2 152.458567 
C 7.2 169.931321 10.641752 187.234174 17.328285 203.376894 
C 24.014818 219.519613 33.816097 234.188264 46.1712 246.543367 
C 58.526303 258.89847 73.194954 268.699749 89.337673 275.386282 
C 105.480393 282.072816 122.783246 285.514567 140.256 285.514567 
C 157.728754 285.514567 175.031607 282.072816 191.174327 275.386282 
C 207.317046 268.699749 221.985697 258.89847 234.3408 246.543367 
C 246.695903 234.188264 256.497182 219.519613 263.183715 203.376894 
C 269.870248 187.234174 273.312 169.931321 273.312 152.458567 
M 140.256 152.458567 
C 140.256 152.458567 140.256 152.458567 140.256 152.458567 
C 140.256 152.458567 140.256 152.458567 140.256 152.458567 
C 140.256 152.458567 140.256 152.458567 140.256 152.458567 
C 140.256 152.458567 140.256 152.458567 140.256 152.458567 
C 140.256 152.458567 140.256 152.458567 140.256 152.458567 
C 140.256 152.458567 140.256 152.458567 140.256 152.458567 
C 140.256 152.458567 140.256 152.458567 140.256 152.458567 
C 140.256 152.458567 140.256 152.458567 140.256 152.458567 
C 140.256 152.458567 140.256 152.458567 140.256 152.458567 
C 140.256 152.458567 140.256 152.458567 140.256 152.458567 
C 140.256 152.458567 140.256 152.458567 140.256 152.458567 
C 140.256 152.458567 140.256 152.458567 140.256 152.458567 
C 140.256 152.458567 140.256 152.458567 140.256 152.458567 
C 140.256 152.458567 140.256 152.458567 140.256 152.458567 
C 140.256 152.458567 140.256 152.458567 140.256 152.458567 
C 140.256 152.458567 140.256 152.458567 140.256 152.458567 
M 273.312 152.458567 
z
" style="fill: #ffffff"/>
   </g>
   <g id="patch_3">
    <path d="M 224.5248 152.458567 
L 151.220417 118.71356 
L 72.081109 102.926609 
L 136.667848 155.065512 
L 175.890357 262.129839 
z
" clip-path="url(#p81f5a00109)" style="fill: #0000ff; opacity: 0.1; stroke: #000000; stroke-width: 0.8; stroke-linejoin: miter"/>
   </g>
   <g id="matplotlib.axis_1">
    <g id="xtick_1">
     <g id="line2d_1">
      <path d="M 140.256 152.458567 
L 273.312 152.458567 
" clip-path="url(#p81f5a00109)" style="fill: none; stroke: #b1afb5; stroke-width: 0.8; stroke-linecap: square"/>
     </g>
     <g id="text_1">
      <!-- var1 -->
      <g style="fill: #323034" transform="translate(276.649812 155.254192)scale(0.12 -0.12)">
       <defs>
        <path id="STIXGeneral-Regular-76" d="M 3053 2880 
L 3053 2784 
Q 2906 2771 2835 2688 
Q 2765 2605 2637 2285 
L 1818 230 
Q 1690 -90 1638 -90 
Q 1587 -90 1523 77 
Q 1510 96 1497 141 
Q 1485 186 1472 211 
L 704 2048 
Q 499 2534 403 2652 
Q 307 2771 122 2784 
L 122 2880 
L 1376 2880 
L 1376 2784 
Q 1210 2771 1146 2732 
Q 1082 2694 1082 2611 
Q 1082 2509 1139 2368 
L 1792 730 
L 2426 2387 
Q 2464 2483 2464 2579 
Q 2464 2758 2163 2784 
L 2163 2880 
L 3053 2880 
z
" transform="scale(0.015625)"/>
        <path id="STIXGeneral-Regular-61" d="M 2829 422 
L 2829 243 
Q 2586 -64 2253 -64 
Q 1888 -64 1843 403 
L 1837 403 
Q 1427 -64 909 -64 
Q 608 -64 422 112 
Q 237 288 237 602 
Q 237 1050 685 1350 
Q 992 1555 1837 1869 
L 1837 2214 
Q 1837 2502 1699 2646 
Q 1562 2790 1338 2790 
Q 1146 2790 1018 2697 
Q 890 2605 890 2477 
Q 890 2419 909 2348 
Q 928 2278 928 2208 
Q 928 2112 841 2029 
Q 755 1946 634 1946 
Q 525 1946 441 2029 
Q 358 2112 358 2240 
Q 358 2547 685 2752 
Q 986 2944 1421 2944 
Q 1939 2944 2176 2656 
Q 2291 2522 2323 2384 
Q 2355 2246 2355 1946 
L 2355 723 
Q 2355 301 2554 301 
Q 2682 301 2829 422 
z
M 1837 813 
L 1837 1715 
Q 1248 1510 1018 1293 
Q 800 1094 800 800 
Q 800 557 921 432 
Q 1043 307 1242 307 
Q 1453 307 1613 410 
Q 1747 506 1792 589 
Q 1837 672 1837 813 
z
" transform="scale(0.015625)"/>
        <path id="STIXGeneral-Regular-72" d="M 1024 2931 
L 1024 2342 
Q 1267 2688 1430 2816 
Q 1594 2944 1792 2944 
Q 1958 2944 2051 2854 
Q 2144 2765 2144 2605 
Q 2144 2470 2077 2393 
Q 2010 2317 1894 2317 
Q 1773 2317 1638 2445 
Q 1536 2541 1472 2541 
Q 1338 2541 1181 2355 
Q 1024 2170 1024 2016 
L 1024 576 
Q 1024 301 1133 205 
Q 1242 109 1568 96 
L 1568 0 
L 32 0 
L 32 96 
Q 339 154 412 224 
Q 486 294 486 538 
L 486 2138 
Q 486 2349 438 2435 
Q 390 2522 269 2522 
Q 166 2522 45 2496 
L 45 2598 
Q 448 2726 992 2944 
L 1024 2931 
z
" transform="scale(0.015625)"/>
        <path id="STIXGeneral-Regular-31" d="M 2522 0 
L 755 0 
L 755 96 
Q 1107 115 1235 227 
Q 1363 339 1363 608 
L 1363 3482 
Q 1363 3795 1171 3795 
Q 1082 3795 883 3718 
L 710 3654 
L 710 3744 
L 1856 4326 
L 1914 4307 
L 1914 486 
Q 1914 275 2042 185 
Q 2170 96 2522 96 
L 2522 0 
z
" transform="scale(0.015625)"/>
       </defs>
       <use xlink:href="#STIXGeneral-Regular-76"/>
       <use xlink:href="#STIXGeneral-Regular-61" x="49.999985"/>
       <use xlink:href="#STIXGeneral-Regular-72" x="94.399979"/>
       <use xlink:href="#STIXGeneral-Regular-31" x="127.699966"/>
      </g>
     </g>
    </g>
    <g id="xtick_2">
     <g id="line2d_2">
      <path d="M 140.256 152.458567 
L 181.372565 25.914791 
" clip-path="url(#p81f5a00109)" style="fill: none; stroke: #b1afb5; stroke-width: 0.8; stroke-linecap: square"/>
     </g>
     <g id="text_2">
      <!-- var2 -->
      <g style="fill: #323034" transform="translate(175.036616 15.395625)scale(0.12 -0.12)">
       <defs>
        <path id="STIXGeneral-Regular-32" d="M 3034 877 
L 2688 0 
L 186 0 
L 186 77 
L 1325 1286 
Q 1773 1754 1965 2144 
Q 2157 2534 2157 2950 
Q 2157 3379 1920 3616 
Q 1683 3853 1267 3853 
Q 922 3853 720 3673 
Q 518 3494 326 3021 
L 192 3053 
Q 301 3648 630 3987 
Q 960 4326 1523 4326 
Q 2054 4326 2380 4006 
Q 2707 3686 2707 3200 
Q 2707 2477 1888 1613 
L 832 486 
L 2330 486 
Q 2541 486 2665 569 
Q 2790 653 2944 915 
L 3034 877 
z
" transform="scale(0.015625)"/>
       </defs>
       <use xlink:href="#STIXGeneral-Regular-76"/>
       <use xlink:href="#STIXGeneral-Regular-61" x="49.999985"/>
       <use xlink:href="#STIXGeneral-Regular-72" x="94.399979"/>
       <use xlink:href="#STIXGeneral-Regular-32" x="127.699966"/>
      </g>
     </g>
    </g>
    <g id="xtick_3">
     <g id="line2d_3">
      <path d="M 140.256 152.458567 
L 32.611435 74.250213 
" clip-path="url(#p81f5a00109)" style="fill: none; stroke: #b1afb5; stroke-width: 0.8; stroke-linecap: square"/>
     </g>
     <g id="text_3">
      <!-- var3 -->
      <g style="fill: #323034" transform="translate(10.623009 68.816844)scale(0.12 -0.12)">
       <defs>
        <path id="STIXGeneral-Regular-33" d="M 390 3264 
L 288 3290 
Q 435 3770 748 4048 
Q 1062 4326 1542 4326 
Q 1990 4326 2265 4083 
Q 2541 3840 2541 3450 
Q 2541 2925 1946 2566 
Q 2298 2413 2477 2227 
Q 2758 1914 2758 1402 
Q 2758 890 2464 506 
Q 2246 211 1840 60 
Q 1434 -90 979 -90 
Q 262 -90 262 275 
Q 262 378 339 442 
Q 416 506 525 506 
Q 685 506 915 339 
Q 1197 141 1466 141 
Q 1818 141 2058 425 
Q 2298 710 2298 1120 
Q 2298 1856 1632 2048 
Q 1434 2112 979 2112 
L 979 2202 
Q 1338 2323 1517 2432 
Q 2035 2726 2035 3290 
Q 2035 3610 1852 3776 
Q 1670 3942 1344 3942 
Q 768 3942 390 3264 
z
" transform="scale(0.015625)"/>
       </defs>
       <use xlink:href="#STIXGeneral-Regular-76"/>
       <use xlink:href="#STIXGeneral-Regular-61" x="49.999985"/>
       <use xlink:href="#STIXGeneral-Regular-72" x="94.399979"/>
       <use xlink:href="#STIXGeneral-Regular-33" x="127.699966"/>
      </g>
     </g>
    </g>
    <g id="xtick_4">
     <g id="line2d_4">
      <path d="M 140.256 152.458567 
L 32.611435 230.666922 
" clip-path="url(#p81f5a00109)" style="fill: none; stroke: #b1afb5; stroke-width: 0.8; stroke-linecap: square"/>
     </g>
     <g id="text_4">
      <!-- var4 -->
      <g style="fill: #323034" transform="translate(10.623009 241.69154)scale(0.12 -0.12)">
       <defs>
        <path id="STIXGeneral-Regular-34" d="M 3027 1069 
L 2368 1069 
L 2368 0 
L 1869 0 
L 1869 1069 
L 77 1069 
L 77 1478 
L 2086 4326 
L 2368 4326 
L 2368 1478 
L 3027 1478 
L 3027 1069 
z
M 1869 1478 
L 1869 3674 
L 333 1478 
L 1869 1478 
z
" transform="scale(0.015625)"/>
       </defs>
       <use xlink:href="#STIXGeneral-Regular-76"/>
       <use xlink:href="#STIXGeneral-Regular-61" x="49.999985"/>
       <use xlink:href="#STIXGeneral-Regular-72" x="94.399979"/>
       <use xlink:href="#STIXGeneral-Regular-34" x="127.699966"/>
      </g>
     </g>
    </g>
    <g id="xtick_5">
     <g id="line2d_5">
      <path d="M 140.256 152.458567 
L 181.372565 279.002343 
" clip-path="url(#p81f5a00109)" style="fill: none; stroke: #b1afb5; stroke-width: 0.8; stroke-linecap: square"/>
     </g>
     <g id="text_5">
      <!-- var5 -->
      <g style="fill: #323034" transform="translate(175.036616 295.112759)scale(0.12 -0.12)">
       <defs>
        <path id="STIXGeneral-Regular-35" d="M 2803 4358 
L 2573 3814 
Q 2534 3731 2400 3731 
L 1158 3731 
L 902 3187 
Q 1606 3053 1920 2896 
Q 2234 2739 2502 2368 
Q 2726 2061 2726 1555 
Q 2726 1094 2576 780 
Q 2426 467 2099 224 
Q 1664 -90 1011 -90 
Q 646 -90 422 19 
Q 198 128 198 307 
Q 198 550 486 550 
Q 717 550 960 352 
Q 1210 147 1414 147 
Q 1747 147 2012 480 
Q 2278 813 2278 1229 
Q 2278 1843 1850 2189 
Q 1293 2637 486 2637 
Q 410 2637 410 2688 
L 416 2720 
L 1114 4237 
L 2438 4237 
Q 2547 4237 2608 4269 
Q 2669 4301 2746 4403 
L 2803 4358 
z
" transform="scale(0.015625)"/>
       </defs>
       <use xlink:href="#STIXGeneral-Regular-76"/>
       <use xlink:href="#STIXGeneral-Regular-61" x="49.999985"/>
       <use xlink:href="#STIXGeneral-Regular-72" x="94.399979"/>
       <use xlink:href="#STIXGeneral-Regular-35" x="127.699966"/>
      </g>
     </g>
    </g>
   </g>
   <g id="matplotlib.axis_2">
    <g id="ytick_1">
     <g id="line2d_6">
      <path d="M 162.432 152.458567 
C 162.432 149.546441 161.858375 146.662633 160.743953 143.972179 
C 159.62953 141.281726 157.995984 138.836951 155.9368 136.777767 
C 153.877616 134.718583 151.432841 133.085037 148.742388 131.970615 
C 146.051935 130.856192 143.168126 130.282567 140.256 130.282567 
C 137.343874 130.282567 134.460065 130.856192 131.769612 131.970615 
C 129.079159 133.085037 126.634384 134.718583 124.5752 136.777767 
C 122.516016 138.836951 120.88247 141.281726 119.768047 143.972179 
C 118.653625 146.662633 118.08 149.546441 118.08 152.458567 
C 118.08 155.370693 118.653625 158.254502 119.768047 160.944955 
C 120.88247 163.635408 122.516016 166.080183 124.5752 168.139367 
C 126.634384 170.198551 129.079159 171.832097 131.769612 172.94652 
C 134.460065 174.060942 137.343874 174.634567 140.256 174.634567 
C 143.168126 174.634567 146.051935 174.060942 148.742388 172.94652 
C 151.432841 171.832097 153.877616 170.198551 155.9368 168.139367 
C 157.995984 166.080183 159.62953 163.635408 160.743953 160.944955 
C 161.858375 158.254502 162.432 155.370693 162.432 152.458567 
" clip-path="url(#p81f5a00109)" style="fill: none; stroke: #b1afb5; stroke-width: 0.8; stroke-linecap: square"/>
     </g>
     <g id="text_6">
      <!-- $\mathdefault{5}$ -->
      <g style="fill: #323034" transform="translate(162.432 149.854192)scale(0.12 -0.12)">
       <use xlink:href="#STIXGeneral-Regular-35" transform="translate(0 0.203125)"/>
      </g>
     </g>
    </g>
    <g id="ytick_2">
     <g id="line2d_7">
      <path d="M 184.608 152.458567 
C 184.608 146.634316 183.460749 140.866698 181.231905 135.485791 
C 179.003061 130.104885 175.735968 125.215335 171.6176 121.096967 
C 167.499232 116.9786 162.609682 113.711507 157.228776 111.482662 
C 151.847869 109.253818 146.080251 108.106567 140.256 108.106567 
C 134.431749 108.106567 128.664131 109.253818 123.283224 111.482662 
C 117.902318 113.711507 113.012768 116.9786 108.8944 121.096967 
C 104.776032 125.215335 101.508939 130.104885 99.280095 135.485791 
C 97.051251 140.866698 95.904 146.634316 95.904 152.458567 
C 95.904 158.282818 97.051251 164.050436 99.280095 169.431343 
C 101.508939 174.812249 104.776032 179.701799 108.8944 183.820167 
C 113.012768 187.938535 117.902318 191.205628 123.283224 193.434472 
C 128.664131 195.663317 134.431749 196.810567 140.256 196.810567 
C 146.080251 196.810567 151.847869 195.663317 157.228776 193.434472 
C 162.609682 191.205628 167.499232 187.938535 171.6176 183.820167 
C 175.735968 179.701799 179.003061 174.812249 181.231905 169.431343 
C 183.460749 164.050436 184.608 158.282818 184.608 152.458567 
" clip-path="url(#p81f5a00109)" style="fill: none; stroke: #b1afb5; stroke-width: 0.8; stroke-linecap: square"/>
     </g>
     <g id="text_7">
      <!-- $\mathdefault{10}$ -->
      <g style="fill: #323034" transform="translate(184.608 149.854192)scale(0.12 -0.12)">
       <defs>
        <path id="STIXGeneral-Regular-30" d="M 3046 2112 
Q 3046 1683 2963 1302 
Q 2880 922 2717 602 
Q 2554 282 2266 96 
Q 1978 -90 1600 -90 
Q 1210 -90 915 108 
Q 621 307 461 640 
Q 301 973 227 1350 
Q 154 1728 154 2150 
Q 154 2746 301 3222 
Q 448 3699 790 4012 
Q 1133 4326 1626 4326 
Q 2253 4326 2649 3712 
Q 3046 3098 3046 2112 
z
M 2432 2080 
Q 2432 3091 2217 3625 
Q 2003 4160 1587 4160 
Q 1190 4160 979 3622 
Q 768 3085 768 2106 
Q 768 1120 979 598 
Q 1190 77 1600 77 
Q 2003 77 2217 598 
Q 2432 1120 2432 2080 
z
" transform="scale(0.015625)"/>
       </defs>
       <use xlink:href="#STIXGeneral-Regular-31" transform="translate(0 0.40625)"/>
       <use xlink:href="#STIXGeneral-Regular-30" transform="translate(49.999985 0.40625)"/>
      </g>
     </g>
    </g>
    <g id="ytick_3">
     <g id="line2d_8">
      <path d="M 206.784 152.458567 
C 206.784 143.72219 205.063124 135.070763 201.719858 126.999404 
C 198.376591 118.928044 193.475951 111.593718 187.2984 105.416167 
C 181.120849 99.238616 173.786523 94.337976 165.715163 90.99471 
C 157.643804 87.651443 148.992377 85.930567 140.256 85.930567 
C 131.519623 85.930567 122.868196 87.651443 114.796837 90.99471 
C 106.725477 94.337976 99.391151 99.238616 93.2136 105.416167 
C 87.036049 111.593718 82.135409 118.928044 78.792142 126.999404 
C 75.448876 135.070763 73.728 143.72219 73.728 152.458567 
C 73.728 161.194944 75.448876 169.846371 78.792142 177.91773 
C 82.135409 185.98909 87.036049 193.323416 93.2136 199.500967 
C 99.391151 205.678518 106.725477 210.579158 114.796837 213.922425 
C 122.868196 217.265691 131.519623 218.986567 140.256 218.986567 
C 148.992377 218.986567 157.643804 217.265691 165.715163 213.922425 
C 173.786523 210.579158 181.120849 205.678518 187.2984 199.500967 
C 193.475951 193.323416 198.376591 185.98909 201.719858 177.91773 
C 205.063124 169.846371 206.784 161.194944 206.784 152.458567 
" clip-path="url(#p81f5a00109)" style="fill: none; stroke: #b1afb5; stroke-width: 0.8; stroke-linecap: square"/>
     </g>
     <g id="text_8">
      <!-- $\mathdefault{15}$ -->
      <g style="fill: #323034" transform="translate(206.784 149.854192)scale(0.12 -0.12)">
       <use xlink:href="#STIXGeneral-Regular-31" transform="translate(0 0.203125)"/>
       <use xlink:href="#STIXGeneral-Regular-35" transform="translate(49.999985 0.203125)"/>
      </g>
     </g>
    </g>
    <g id="ytick_4">
     <g id="line2d_9">
      <path d="M 228.96 152.458567 
C 228.96 140.810065 226.665499 129.274829 222.20781 118.513016 
C 217.750121 107.751203 211.215935 97.972102 202.9792 89.735367 
C 194.742465 81.498632 184.963364 74.964446 174.201551 70.506757 
C 163.439738 66.049068 151.904503 63.754567 140.256 63.754567 
C 128.607497 63.754567 117.072262 66.049068 106.310449 70.506757 
C 95.548636 74.964446 85.769535 81.498632 77.5328 89.735367 
C 69.296065 97.972102 62.761879 107.751203 58.30419 118.513016 
C 53.846501 129.274829 51.552 140.810065 51.552 152.458567 
C 51.552 164.10707 53.846501 175.642305 58.30419 186.404118 
C 62.761879 197.165931 69.296065 206.945032 77.5328 215.181767 
C 85.769535 223.418502 95.548636 229.952688 106.310449 234.410377 
C 117.072262 238.868066 128.607497 241.162567 140.256 241.162567 
C 151.904503 241.162567 163.439738 238.868066 174.201551 234.410377 
C 184.963364 229.952688 194.742465 223.418502 202.9792 215.181767 
C 211.215935 206.945032 217.750121 197.165931 222.20781 186.404118 
C 226.665499 175.642305 228.96 164.10707 228.96 152.458567 
" clip-path="url(#p81f5a00109)" style="fill: none; stroke: #b1afb5; stroke-width: 0.8; stroke-linecap: square"/>
     </g>
     <g id="text_9">
      <!-- $\mathdefault{20}$ -->
      <g style="fill: #323034" transform="translate(228.96 149.854192)scale(0.12 -0.12)">
       <use xlink:href="#STIXGeneral-Regular-32" transform="translate(0 0.40625)"/>
       <use xlink:href="#STIXGeneral-Regular-30" transform="translate(49.999985 0.40625)"/>
      </g>
     </g>
    </g>
    <g id="ytick_5">
     <g id="line2d_10">
      <path d="M 251.136 152.458567 
C 251.136 137.897939 248.267874 123.478894 242.695763 110.026628 
C 237.123651 96.574362 228.955919 84.350486 218.66 74.054567 
C 208.364081 63.758648 196.140205 55.590916 182.687939 50.018804 
C 169.235673 44.446693 154.816628 41.578567 140.256 41.578567 
C 125.695372 41.578567 111.276327 44.446693 97.824061 50.018804 
C 84.371795 55.590916 72.147919 63.758648 61.852 74.054567 
C 51.556081 84.350486 43.388349 96.574362 37.816237 110.026628 
C 32.244126 123.478894 29.376 137.897939 29.376 152.458567 
C 29.376 167.019195 32.244126 181.43824 37.816237 194.890506 
C 43.388349 208.342772 51.556081 220.566648 61.852 230.862567 
C 72.147919 241.158486 84.371795 249.326218 97.824061 254.89833 
C 111.276327 260.470441 125.695372 263.338567 140.256 263.338567 
C 154.816628 263.338567 169.235673 260.470441 182.687939 254.89833 
C 196.140205 249.326218 208.364081 241.158486 218.66 230.862567 
C 228.955919 220.566648 237.123651 208.342772 242.695763 194.890506 
C 248.267874 181.43824 251.136 167.019195 251.136 152.458567 
" clip-path="url(#p81f5a00109)" style="fill: none; stroke: #b1afb5; stroke-width: 0.8; stroke-linecap: square"/>
     </g>
     <g id="text_10">
      <!-- $\mathdefault{25}$ -->
      <g style="fill: #323034" transform="translate(251.136 149.854192)scale(0.12 -0.12)">
       <use xlink:href="#STIXGeneral-Regular-32" transform="translate(0 0.203125)"/>
       <use xlink:href="#STIXGeneral-Regular-35" transform="translate(49.999985 0.203125)"/>
      </g>
     </g>
    </g>
    <g id="ytick_6">
     <g id="line2d_11">
      <path d="M 273.312 152.458567 
C 273.312 134.985813 269.870248 117.68296 263.183715 101.54024 
C 256.497182 85.397521 246.695903 70.72887 234.3408 58.373767 
C 221.985697 46.018664 207.317046 36.217385 191.174327 29.530852 
C 175.031607 22.844319 157.728754 19.402567 140.256 19.402567 
C 122.783246 19.402567 105.480393 22.844319 89.337673 29.530852 
C 73.194954 36.217385 58.526303 46.018664 46.1712 58.373767 
C 33.816097 70.72887 24.014818 85.397521 17.328285 101.54024 
C 10.641752 117.68296 7.2 134.985813 7.2 152.458567 
C 7.2 169.931321 10.641752 187.234174 17.328285 203.376894 
C 24.014818 219.519613 33.816097 234.188264 46.1712 246.543367 
C 58.526303 258.89847 73.194954 268.699749 89.337673 275.386282 
C 105.480393 282.072816 122.783246 285.514567 140.256 285.514567 
C 157.728754 285.514567 175.031607 282.072816 191.174327 275.386282 
C 207.317046 268.699749 221.985697 258.89847 234.3408 246.543367 
C 246.695903 234.188264 256.497182 219.519613 263.183715 203.376894 
C 269.870248 187.234174 273.312 169.931321 273.312 152.458567 
" clip-path="url(#p81f5a00109)" style="fill: none; stroke: #b1afb5; stroke-width: 0.8; stroke-linecap: square"/>
     </g>
     <g id="text_11">
      <!-- $\mathdefault{30}$ -->
      <g style="fill: #323034" transform="translate(273.312 149.854192)scale(0.12 -0.12)">
       <use xlink:href="#STIXGeneral-Regular-33" transform="translate(0 0.40625)"/>
       <use xlink:href="#STIXGeneral-Regular-30" transform="translate(49.999985 0.40625)"/>
      </g>
     </g>
    </g>
   </g>
   <g id="line2d_12">
    <path d="M 224.5248 152.458567 
L 151.220417 118.71356 
L 72.081109 102.926609 
L 136.667848 155.065512 
L 175.890357 262.129839 
L 224.5248 152.458567 
" clip-path="url(#p81f5a00109)" style="fill: none; stroke: #bc80bd; stroke-linecap: square"/>
   </g>
   <g id="patch_4">
    <path d="M 273.312 152.458567 
C 273.312 134.985813 269.870248 117.68296 263.183715 101.54024 
C 256.497182 85.397521 246.695903 70.72887 234.3408 58.373767 
C 221.985697 46.018664 207.317046 36.217385 191.174327 29.530852 
C 175.031607 22.844319 157.728754 19.402567 140.256 19.402567 
C 122.783246 19.402567 105.480393 22.844319 89.337673 29.530852 
C 73.194954 36.217385 58.526303 46.018664 46.1712 58.373767 
C 33.816097 70.72887 24.014818 85.397521 17.328285 101.54024 
C 10.641752 117.68296 7.2 134.985813 7.2 152.458567 
C 7.2 169.931321 10.641752 187.234174 17.328285 203.376894 
C 24.014818 219.519613 33.816097 234.188264 46.1712 246.543367 
C 58.526303 258.89847 73.194954 268.699749 89.337673 275.386282 
C 105.480393 282.072816 122.783246 285.514567 140.256 285.514567 
C 157.728754 285.514567 175.031607 282.072816 191.174327 275.386282 
C 207.317046 268.699749 221.985697 258.89847 234.3408 246.543367 
C 246.695903 234.188264 256.497182 219.519613 263.183715 203.376894 
C 269.870248 187.234174 273.312 169.931321 273.312 152.458567 
" style="fill: none; stroke: #000000; stroke-width: 0.6; stroke-linejoin: miter; stroke-linecap: square"/>
   </g>
  </g>
 </g>
 <defs>
  <clipPath id="p81f5a00109">
   <path d="M 273.312 152.458567 
C 273.312 134.985813 269.870248 117.68296 263.183715 101.54024 
C 256.497182 85.397521 246.695903 70.72887 234.3408 58.373767 
C 221.985697 46.018664 207.317046 36.217385 191.174327 29.530852 
C 175.031607 22.844319 157.728754 19.402567 140.256 19.402567 
C 122.783246 19.402567 105.480393 22.844319 89.337673 29.530852 
C 73.194954 36.217385 58.526303 46.018664 46.1712 58.373767 
C 33.816097 70.72887 24.014818 85.397521 17.328285 101.54024 
C 10.641752 117.68296 7.2 134.985813 7.2 152.458567 
C 7.2 169.931321 10.641752 187.234174 17.328285 203.376894 
C 24.014818 219.519613 33.816097 234.188264 46.1712 246.543367 
C 58.526303 258.89847 73.194954 268.699749 89.337673 275.386282 
C 105.480393 282.072816 122.783246 285.514567 140.256 285.514567 
C 157.728754 285.514567 175.031607 282.072816 191.174327 275.386282 
C 207.317046 268.699749 221.985697 258.89847 234.3408 246.543367 
C 246.695903 234.188264 256.497182 219.519613 263.183715 203.376894 
C 269.870248 187.234174 273.312 169.931321 273.312 152.458567 
M 140.256 152.458567 
C 140.256 152.458567 140.256 152.458567 140.256 152.458567 
C 140.256 152.458567 140.256 152.458567 140.256 152.458567 
C 140.256 152.458567 140.256 152.458567 140.256 152.458567 
C 140.256 152.458567 140.256 152.458567 140.256 152.458567 
C 140.256 152.458567 140.256 152.458567 140.256 152.458567 
C 140.256 152.458567 140.256 152.458567 140.256 152.458567 
C 140.256 152.458567 140.256 152.458567 140.256 152.458567 
C 140.256 152.458567 140.256 152.458567 140.256 152.458567 
C 140.256 152.458567 140.256 152.458567 140.256 152.458567 
C 140.256 152.458567 140.256 152.458567 140.256 152.458567 
C 140.256 152.458567 140.256 152.458567 140.256 152.458567 
C 140.256 152.458567 140.256 152.458567 140.256 152.458567 
C 140.256 152.458567 140.256 152.458567 140.256 152.458567 
C 140.256 152.458567 140.256 152.458567 140.256 152.458567 
C 140.256 152.458567 140.256 152.458567 140.256 152.458567 
C 140.256 152.458567 140.256 152.458567 140.256 152.458567 
M 273.312 152.458567 
z
"/>
  </clipPath>
 </defs>
</svg>
