<?xml version="1.0" encoding="utf-8" standalone="no"?>
<!DOCTYPE svg PUBLIC "-//W3C//DTD SVG 1.1//EN"
  "http://www.w3.org/Graphics/SVG/1.1/DTD/svg11.dtd">
<svg xmlns:xlink="http://www.w3.org/1999/xlink" width="411.109687pt" height="309.330625pt" viewBox="0 0 411.109687 309.330625" xmlns="http://www.w3.org/2000/svg" version="1.1">
 <metadata>
  <rdf:RDF xmlns:dc="http://purl.org/dc/elements/1.1/" xmlns:cc="http://creativecommons.org/ns#" xmlns:rdf="http://www.w3.org/1999/02/22-rdf-syntax-ns#">
   <cc:Work>
    <dc:type rdf:resource="http://purl.org/dc/dcmitype/StillImage"/>
    <dc:date>2022-10-24T21:32:12.679260</dc:date>
    <dc:format>image/svg+xml</dc:format>
    <dc:creator>
     <cc:Agent>
      <dc:title>Matplotlib v3.5.3, https://matplotlib.org/</dc:title>
     </cc:Agent>
    </dc:creator>
   </cc:Work>
  </rdf:RDF>
 </metadata>
 <defs>
  <style type="text/css">*{stroke-linejoin: round; stroke-linecap: butt}</style>
 </defs>
 <g id="figure_1">
  <g id="patch_1">
   <path d="M 0 309.330625 
L 411.109687 309.330625 
L 411.109687 0 
L 0 0 
z
" style="fill: #ffffff; stroke: #ffffff; stroke-linejoin: miter"/>
  </g>
  <g id="axes_1">
   <g id="patch_2">
    <path d="M 46.789688 273.312 
L 403.909688 273.312 
L 403.909688 7.2 
L 46.789688 7.2 
z
" style="fill: #ebebeb"/>
   </g>
   <g id="matplotlib.axis_1">
    <g id="xtick_1">
     <g id="line2d_1">
      <path d="M 106.034557 273.312 
L 106.034557 7.2 
" clip-path="url(#paf4ed21cb9)" style="fill: none; stroke: #ffffff"/>
     </g>
     <g id="line2d_2">
      <path d="M 106.034557 273.312 
" style="fill: none; stroke: #000000; stroke-width: 2"/>
      <defs>
       <path id="m92456749eb" d="M 0 0 
L 0 2.75 
" style="stroke: #333333"/>
      </defs>
      <g>
       <use xlink:href="#m92456749eb" x="106.034557" y="273.312" style="stroke: #333333"/>
      </g>
     </g>
     <g id="text_1">
      <!-- 180 -->
      <g style="fill: #4d4d4d" transform="translate(97.636057 284.948625)scale(0.088 -0.088)">
       <defs>
        <path id="DejaVuSans-31" d="M 794 531 
L 1825 531 
L 1825 4091 
L 703 3866 
L 703 4441 
L 1819 4666 
L 2450 4666 
L 2450 531 
L 3481 531 
L 3481 0 
L 794 0 
L 794 531 
z
" transform="scale(0.015625)"/>
        <path id="DejaVuSans-38" d="M 2034 2216 
Q 1584 2216 1326 1975 
Q 1069 1734 1069 1313 
Q 1069 891 1326 650 
Q 1584 409 2034 409 
Q 2484 409 2743 651 
Q 3003 894 3003 1313 
Q 3003 1734 2745 1975 
Q 2488 2216 2034 2216 
z
M 1403 2484 
Q 997 2584 770 2862 
Q 544 3141 544 3541 
Q 544 4100 942 4425 
Q 1341 4750 2034 4750 
Q 2731 4750 3128 4425 
Q 3525 4100 3525 3541 
Q 3525 3141 3298 2862 
Q 3072 2584 2669 2484 
Q 3125 2378 3379 2068 
Q 3634 1759 3634 1313 
Q 3634 634 3220 271 
Q 2806 -91 2034 -91 
Q 1263 -91 848 271 
Q 434 634 434 1313 
Q 434 1759 690 2068 
Q 947 2378 1403 2484 
z
M 1172 3481 
Q 1172 3119 1398 2916 
Q 1625 2713 2034 2713 
Q 2441 2713 2670 2916 
Q 2900 3119 2900 3481 
Q 2900 3844 2670 4047 
Q 2441 4250 2034 4250 
Q 1625 4250 1398 4047 
Q 1172 3844 1172 3481 
z
" transform="scale(0.015625)"/>
        <path id="DejaVuSans-30" d="M 2034 4250 
Q 1547 4250 1301 3770 
Q 1056 3291 1056 2328 
Q 1056 1369 1301 889 
Q 1547 409 2034 409 
Q 2525 409 2770 889 
Q 3016 1369 3016 2328 
Q 3016 3291 2770 3770 
Q 2525 4250 2034 4250 
z
M 2034 4750 
Q 2819 4750 3233 4129 
Q 3647 3509 3647 2328 
Q 3647 1150 3233 529 
Q 2819 -91 2034 -91 
Q 1250 -91 836 529 
Q 422 1150 422 2328 
Q 422 3509 836 4129 
Q 1250 4750 2034 4750 
z
" transform="scale(0.015625)"/>
       </defs>
       <use xlink:href="#DejaVuSans-31"/>
       <use xlink:href="#DejaVuSans-38" x="63.623047"/>
       <use xlink:href="#DejaVuSans-30" x="127.246094"/>
      </g>
     </g>
    </g>
    <g id="xtick_2">
     <g id="line2d_3">
      <path d="M 212.418532 273.312 
L 212.418532 7.2 
" clip-path="url(#paf4ed21cb9)" style="fill: none; stroke: #ffffff"/>
     </g>
     <g id="line2d_4">
      <path d="M 212.418532 273.312 
" style="fill: none; stroke: #000000; stroke-width: 2"/>
      <g>
       <use xlink:href="#m92456749eb" x="212.418532" y="273.312" style="stroke: #333333"/>
      </g>
     </g>
     <g id="text_2">
      <!-- 200 -->
      <g style="fill: #4d4d4d" transform="translate(204.020032 284.948625)scale(0.088 -0.088)">
       <defs>
        <path id="DejaVuSans-32" d="M 1228 531 
L 3431 531 
L 3431 0 
L 469 0 
L 469 531 
Q 828 903 1448 1529 
Q 2069 2156 2228 2338 
Q 2531 2678 2651 2914 
Q 2772 3150 2772 3378 
Q 2772 3750 2511 3984 
Q 2250 4219 1831 4219 
Q 1534 4219 1204 4116 
Q 875 4013 500 3803 
L 500 4441 
Q 881 4594 1212 4672 
Q 1544 4750 1819 4750 
Q 2544 4750 2975 4387 
Q 3406 4025 3406 3419 
Q 3406 3131 3298 2873 
Q 3191 2616 2906 2266 
Q 2828 2175 2409 1742 
Q 1991 1309 1228 531 
z
" transform="scale(0.015625)"/>
       </defs>
       <use xlink:href="#DejaVuSans-32"/>
       <use xlink:href="#DejaVuSans-30" x="63.623047"/>
       <use xlink:href="#DejaVuSans-30" x="127.246094"/>
      </g>
     </g>
    </g>
    <g id="xtick_3">
     <g id="line2d_5">
      <path d="M 318.802507 273.312 
L 318.802507 7.2 
" clip-path="url(#paf4ed21cb9)" style="fill: none; stroke: #ffffff"/>
     </g>
     <g id="line2d_6">
      <path d="M 318.802507 273.312 
" style="fill: none; stroke: #000000; stroke-width: 2"/>
      <g>
       <use xlink:href="#m92456749eb" x="318.802507" y="273.312" style="stroke: #333333"/>
      </g>
     </g>
     <g id="text_3">
      <!-- 220 -->
      <g style="fill: #4d4d4d" transform="translate(310.404007 284.948625)scale(0.088 -0.088)">
       <use xlink:href="#DejaVuSans-32"/>
       <use xlink:href="#DejaVuSans-32" x="63.623047"/>
       <use xlink:href="#DejaVuSans-30" x="127.246094"/>
      </g>
     </g>
    </g>
    <g id="xtick_4">
     <g id="line2d_7">
      <path d="M 52.842569 273.312 
L 52.842569 7.2 
" clip-path="url(#paf4ed21cb9)" style="fill: none; stroke: #ffffff; stroke-width: 0.5"/>
     </g>
    </g>
    <g id="xtick_5">
     <g id="line2d_8">
      <path d="M 159.226544 273.312 
L 159.226544 7.2 
" clip-path="url(#paf4ed21cb9)" style="fill: none; stroke: #ffffff; stroke-width: 0.5"/>
     </g>
    </g>
    <g id="xtick_6">
     <g id="line2d_9">
      <path d="M 265.61052 273.312 
L 265.61052 7.2 
" clip-path="url(#paf4ed21cb9)" style="fill: none; stroke: #ffffff; stroke-width: 0.5"/>
     </g>
    </g>
    <g id="xtick_7">
     <g id="line2d_10">
      <path d="M 371.994495 273.312 
L 371.994495 7.2 
" clip-path="url(#paf4ed21cb9)" style="fill: none; stroke: #ffffff; stroke-width: 0.5"/>
     </g>
    </g>
    <g id="text_4">
     <!-- flipper_length_mm -->
     <g transform="translate(168.223125 299.537031)scale(0.11 -0.11)">
      <defs>
       <path id="DejaVuSans-66" d="M 2375 4863 
L 2375 4384 
L 1825 4384 
Q 1516 4384 1395 4259 
Q 1275 4134 1275 3809 
L 1275 3500 
L 2222 3500 
L 2222 3053 
L 1275 3053 
L 1275 0 
L 697 0 
L 697 3053 
L 147 3053 
L 147 3500 
L 697 3500 
L 697 3744 
Q 697 4328 969 4595 
Q 1241 4863 1831 4863 
L 2375 4863 
z
" transform="scale(0.015625)"/>
       <path id="DejaVuSans-6c" d="M 603 4863 
L 1178 4863 
L 1178 0 
L 603 0 
L 603 4863 
z
" transform="scale(0.015625)"/>
       <path id="DejaVuSans-69" d="M 603 3500 
L 1178 3500 
L 1178 0 
L 603 0 
L 603 3500 
z
M 603 4863 
L 1178 4863 
L 1178 4134 
L 603 4134 
L 603 4863 
z
" transform="scale(0.015625)"/>
       <path id="DejaVuSans-70" d="M 1159 525 
L 1159 -1331 
L 581 -1331 
L 581 3500 
L 1159 3500 
L 1159 2969 
Q 1341 3281 1617 3432 
Q 1894 3584 2278 3584 
Q 2916 3584 3314 3078 
Q 3713 2572 3713 1747 
Q 3713 922 3314 415 
Q 2916 -91 2278 -91 
Q 1894 -91 1617 61 
Q 1341 213 1159 525 
z
M 3116 1747 
Q 3116 2381 2855 2742 
Q 2594 3103 2138 3103 
Q 1681 3103 1420 2742 
Q 1159 2381 1159 1747 
Q 1159 1113 1420 752 
Q 1681 391 2138 391 
Q 2594 391 2855 752 
Q 3116 1113 3116 1747 
z
" transform="scale(0.015625)"/>
       <path id="DejaVuSans-65" d="M 3597 1894 
L 3597 1613 
L 953 1613 
Q 991 1019 1311 708 
Q 1631 397 2203 397 
Q 2534 397 2845 478 
Q 3156 559 3463 722 
L 3463 178 
Q 3153 47 2828 -22 
Q 2503 -91 2169 -91 
Q 1331 -91 842 396 
Q 353 884 353 1716 
Q 353 2575 817 3079 
Q 1281 3584 2069 3584 
Q 2775 3584 3186 3129 
Q 3597 2675 3597 1894 
z
M 3022 2063 
Q 3016 2534 2758 2815 
Q 2500 3097 2075 3097 
Q 1594 3097 1305 2825 
Q 1016 2553 972 2059 
L 3022 2063 
z
" transform="scale(0.015625)"/>
       <path id="DejaVuSans-72" d="M 2631 2963 
Q 2534 3019 2420 3045 
Q 2306 3072 2169 3072 
Q 1681 3072 1420 2755 
Q 1159 2438 1159 1844 
L 1159 0 
L 581 0 
L 581 3500 
L 1159 3500 
L 1159 2956 
Q 1341 3275 1631 3429 
Q 1922 3584 2338 3584 
Q 2397 3584 2469 3576 
Q 2541 3569 2628 3553 
L 2631 2963 
z
" transform="scale(0.015625)"/>
       <path id="DejaVuSans-5f" d="M 3263 -1063 
L 3263 -1509 
L -63 -1509 
L -63 -1063 
L 3263 -1063 
z
" transform="scale(0.015625)"/>
       <path id="DejaVuSans-6e" d="M 3513 2113 
L 3513 0 
L 2938 0 
L 2938 2094 
Q 2938 2591 2744 2837 
Q 2550 3084 2163 3084 
Q 1697 3084 1428 2787 
Q 1159 2491 1159 1978 
L 1159 0 
L 581 0 
L 581 3500 
L 1159 3500 
L 1159 2956 
Q 1366 3272 1645 3428 
Q 1925 3584 2291 3584 
Q 2894 3584 3203 3211 
Q 3513 2838 3513 2113 
z
" transform="scale(0.015625)"/>
       <path id="DejaVuSans-67" d="M 2906 1791 
Q 2906 2416 2648 2759 
Q 2391 3103 1925 3103 
Q 1463 3103 1205 2759 
Q 947 2416 947 1791 
Q 947 1169 1205 825 
Q 1463 481 1925 481 
Q 2391 481 2648 825 
Q 2906 1169 2906 1791 
z
M 3481 434 
Q 3481 -459 3084 -895 
Q 2688 -1331 1869 -1331 
Q 1566 -1331 1297 -1286 
Q 1028 -1241 775 -1147 
L 775 -588 
Q 1028 -725 1275 -790 
Q 1522 -856 1778 -856 
Q 2344 -856 2625 -561 
Q 2906 -266 2906 331 
L 2906 616 
Q 2728 306 2450 153 
Q 2172 0 1784 0 
Q 1141 0 747 490 
Q 353 981 353 1791 
Q 353 2603 747 3093 
Q 1141 3584 1784 3584 
Q 2172 3584 2450 3431 
Q 2728 3278 2906 2969 
L 2906 3500 
L 3481 3500 
L 3481 434 
z
" transform="scale(0.015625)"/>
       <path id="DejaVuSans-74" d="M 1172 4494 
L 1172 3500 
L 2356 3500 
L 2356 3053 
L 1172 3053 
L 1172 1153 
Q 1172 725 1289 603 
Q 1406 481 1766 481 
L 2356 481 
L 2356 0 
L 1766 0 
Q 1100 0 847 248 
Q 594 497 594 1153 
L 594 3053 
L 172 3053 
L 172 3500 
L 594 3500 
L 594 4494 
L 1172 4494 
z
" transform="scale(0.015625)"/>
       <path id="DejaVuSans-68" d="M 3513 2113 
L 3513 0 
L 2938 0 
L 2938 2094 
Q 2938 2591 2744 2837 
Q 2550 3084 2163 3084 
Q 1697 3084 1428 2787 
Q 1159 2491 1159 1978 
L 1159 0 
L 581 0 
L 581 4863 
L 1159 4863 
L 1159 2956 
Q 1366 3272 1645 3428 
Q 1925 3584 2291 3584 
Q 2894 3584 3203 3211 
Q 3513 2838 3513 2113 
z
" transform="scale(0.015625)"/>
       <path id="DejaVuSans-6d" d="M 3328 2828 
Q 3544 3216 3844 3400 
Q 4144 3584 4550 3584 
Q 5097 3584 5394 3201 
Q 5691 2819 5691 2113 
L 5691 0 
L 5113 0 
L 5113 2094 
Q 5113 2597 4934 2840 
Q 4756 3084 4391 3084 
Q 3944 3084 3684 2787 
Q 3425 2491 3425 1978 
L 3425 0 
L 2847 0 
L 2847 2094 
Q 2847 2600 2669 2842 
Q 2491 3084 2119 3084 
Q 1678 3084 1418 2786 
Q 1159 2488 1159 1978 
L 1159 0 
L 581 0 
L 581 3500 
L 1159 3500 
L 1159 2956 
Q 1356 3278 1631 3431 
Q 1906 3584 2284 3584 
Q 2666 3584 2933 3390 
Q 3200 3197 3328 2828 
z
" transform="scale(0.015625)"/>
      </defs>
      <use xlink:href="#DejaVuSans-66"/>
      <use xlink:href="#DejaVuSans-6c" x="35.205078"/>
      <use xlink:href="#DejaVuSans-69" x="62.988281"/>
      <use xlink:href="#DejaVuSans-70" x="90.771484"/>
      <use xlink:href="#DejaVuSans-70" x="154.248047"/>
      <use xlink:href="#DejaVuSans-65" x="217.724609"/>
      <use xlink:href="#DejaVuSans-72" x="279.248047"/>
      <use xlink:href="#DejaVuSans-5f" x="320.361328"/>
      <use xlink:href="#DejaVuSans-6c" x="370.361328"/>
      <use xlink:href="#DejaVuSans-65" x="398.144531"/>
      <use xlink:href="#DejaVuSans-6e" x="459.667969"/>
      <use xlink:href="#DejaVuSans-67" x="523.046875"/>
      <use xlink:href="#DejaVuSans-74" x="586.523438"/>
      <use xlink:href="#DejaVuSans-68" x="625.732422"/>
      <use xlink:href="#DejaVuSans-5f" x="689.111328"/>
      <use xlink:href="#DejaVuSans-6d" x="739.111328"/>
      <use xlink:href="#DejaVuSans-6d" x="836.523438"/>
     </g>
    </g>
   </g>
   <g id="matplotlib.axis_2">
    <g id="ytick_1">
     <g id="line2d_11">
      <path d="M 46.789688 261.216 
L 403.909688 261.216 
" clip-path="url(#paf4ed21cb9)" style="fill: none; stroke: #ffffff"/>
     </g>
     <g id="line2d_12">
      <path d="M 46.789688 261.216 
" style="fill: none; stroke: #000000; stroke-width: 2"/>
      <defs>
       <path id="me2aff38ec0" d="M 0 0 
L -2.75 0 
" style="stroke: #333333"/>
      </defs>
      <g>
       <use xlink:href="#me2aff38ec0" x="46.789688" y="261.216" style="stroke: #333333"/>
      </g>
     </g>
     <g id="text_5">
      <!-- 0 -->
      <g style="fill: #4d4d4d" transform="translate(36.240688 263.64425)scale(0.088 -0.088)">
       <use xlink:href="#DejaVuSans-30"/>
      </g>
     </g>
    </g>
    <g id="ytick_2">
     <g id="line2d_13">
      <path d="M 46.789688 203.172459 
L 403.909688 203.172459 
" clip-path="url(#paf4ed21cb9)" style="fill: none; stroke: #ffffff"/>
     </g>
     <g id="line2d_14">
      <path d="M 46.789688 203.172459 
" style="fill: none; stroke: #000000; stroke-width: 2"/>
      <g>
       <use xlink:href="#me2aff38ec0" x="46.789688" y="203.172459" style="stroke: #333333"/>
      </g>
     </g>
     <g id="text_6">
      <!-- 0.01 -->
      <g style="fill: #4d4d4d" transform="translate(22.245938 205.600709)scale(0.088 -0.088)">
       <defs>
        <path id="DejaVuSans-2e" d="M 684 794 
L 1344 794 
L 1344 0 
L 684 0 
L 684 794 
z
" transform="scale(0.015625)"/>
       </defs>
       <use xlink:href="#DejaVuSans-30"/>
       <use xlink:href="#DejaVuSans-2e" x="63.623047"/>
       <use xlink:href="#DejaVuSans-30" x="95.410156"/>
       <use xlink:href="#DejaVuSans-31" x="159.033203"/>
      </g>
     </g>
    </g>
    <g id="ytick_3">
     <g id="line2d_15">
      <path d="M 46.789688 145.128919 
L 403.909688 145.128919 
" clip-path="url(#paf4ed21cb9)" style="fill: none; stroke: #ffffff"/>
     </g>
     <g id="line2d_16">
      <path d="M 46.789688 145.128919 
" style="fill: none; stroke: #000000; stroke-width: 2"/>
      <g>
       <use xlink:href="#me2aff38ec0" x="46.789688" y="145.128919" style="stroke: #333333"/>
      </g>
     </g>
     <g id="text_7">
      <!-- 0.02 -->
      <g style="fill: #4d4d4d" transform="translate(22.245938 147.557169)scale(0.088 -0.088)">
       <use xlink:href="#DejaVuSans-30"/>
       <use xlink:href="#DejaVuSans-2e" x="63.623047"/>
       <use xlink:href="#DejaVuSans-30" x="95.410156"/>
       <use xlink:href="#DejaVuSans-32" x="159.033203"/>
      </g>
     </g>
    </g>
    <g id="ytick_4">
     <g id="line2d_17">
      <path d="M 46.789688 87.085378 
L 403.909688 87.085378 
" clip-path="url(#paf4ed21cb9)" style="fill: none; stroke: #ffffff"/>
     </g>
     <g id="line2d_18">
      <path d="M 46.789688 87.085378 
" style="fill: none; stroke: #000000; stroke-width: 2"/>
      <g>
       <use xlink:href="#me2aff38ec0" x="46.789688" y="87.085378" style="stroke: #333333"/>
      </g>
     </g>
     <g id="text_8">
      <!-- 0.03 -->
      <g style="fill: #4d4d4d" transform="translate(22.245938 89.513628)scale(0.088 -0.088)">
       <defs>
        <path id="DejaVuSans-33" d="M 2597 2516 
Q 3050 2419 3304 2112 
Q 3559 1806 3559 1356 
Q 3559 666 3084 287 
Q 2609 -91 1734 -91 
Q 1441 -91 1130 -33 
Q 819 25 488 141 
L 488 750 
Q 750 597 1062 519 
Q 1375 441 1716 441 
Q 2309 441 2620 675 
Q 2931 909 2931 1356 
Q 2931 1769 2642 2001 
Q 2353 2234 1838 2234 
L 1294 2234 
L 1294 2753 
L 1863 2753 
Q 2328 2753 2575 2939 
Q 2822 3125 2822 3475 
Q 2822 3834 2567 4026 
Q 2313 4219 1838 4219 
Q 1578 4219 1281 4162 
Q 984 4106 628 3988 
L 628 4550 
Q 988 4650 1302 4700 
Q 1616 4750 1894 4750 
Q 2613 4750 3031 4423 
Q 3450 4097 3450 3541 
Q 3450 3153 3228 2886 
Q 3006 2619 2597 2516 
z
" transform="scale(0.015625)"/>
       </defs>
       <use xlink:href="#DejaVuSans-30"/>
       <use xlink:href="#DejaVuSans-2e" x="63.623047"/>
       <use xlink:href="#DejaVuSans-30" x="95.410156"/>
       <use xlink:href="#DejaVuSans-33" x="159.033203"/>
      </g>
     </g>
    </g>
    <g id="ytick_5">
     <g id="line2d_19">
      <path d="M 46.789688 29.041838 
L 403.909688 29.041838 
" clip-path="url(#paf4ed21cb9)" style="fill: none; stroke: #ffffff"/>
     </g>
     <g id="line2d_20">
      <path d="M 46.789688 29.041838 
" style="fill: none; stroke: #000000; stroke-width: 2"/>
      <g>
       <use xlink:href="#me2aff38ec0" x="46.789688" y="29.041838" style="stroke: #333333"/>
      </g>
     </g>
     <g id="text_9">
      <!-- 0.04 -->
      <g style="fill: #4d4d4d" transform="translate(22.245938 31.470088)scale(0.088 -0.088)">
       <defs>
        <path id="DejaVuSans-34" d="M 2419 4116 
L 825 1625 
L 2419 1625 
L 2419 4116 
z
M 2253 4666 
L 3047 4666 
L 3047 1625 
L 3713 1625 
L 3713 1100 
L 3047 1100 
L 3047 0 
L 2419 0 
L 2419 1100 
L 313 1100 
L 313 1709 
L 2253 4666 
z
" transform="scale(0.015625)"/>
       </defs>
       <use xlink:href="#DejaVuSans-30"/>
       <use xlink:href="#DejaVuSans-2e" x="63.623047"/>
       <use xlink:href="#DejaVuSans-30" x="95.410156"/>
       <use xlink:href="#DejaVuSans-34" x="159.033203"/>
      </g>
     </g>
    </g>
    <g id="ytick_6">
     <g id="line2d_21">
      <path d="M 46.789688 232.19423 
L 403.909688 232.19423 
" clip-path="url(#paf4ed21cb9)" style="fill: none; stroke: #ffffff; stroke-width: 0.5"/>
     </g>
    </g>
    <g id="ytick_7">
     <g id="line2d_22">
      <path d="M 46.789688 174.150689 
L 403.909688 174.150689 
" clip-path="url(#paf4ed21cb9)" style="fill: none; stroke: #ffffff; stroke-width: 0.5"/>
     </g>
    </g>
    <g id="ytick_8">
     <g id="line2d_23">
      <path d="M 46.789688 116.107149 
L 403.909688 116.107149 
" clip-path="url(#paf4ed21cb9)" style="fill: none; stroke: #ffffff; stroke-width: 0.5"/>
     </g>
    </g>
    <g id="ytick_9">
     <g id="line2d_24">
      <path d="M 46.789688 58.063608 
L 403.909688 58.063608 
" clip-path="url(#paf4ed21cb9)" style="fill: none; stroke: #ffffff; stroke-width: 0.5"/>
     </g>
    </g>
    <g id="text_10">
     <!-- density -->
     <g transform="translate(15.558281 158.694094)rotate(-90)scale(0.11 -0.11)">
      <defs>
       <path id="DejaVuSans-64" d="M 2906 2969 
L 2906 4863 
L 3481 4863 
L 3481 0 
L 2906 0 
L 2906 525 
Q 2725 213 2448 61 
Q 2172 -91 1784 -91 
Q 1150 -91 751 415 
Q 353 922 353 1747 
Q 353 2572 751 3078 
Q 1150 3584 1784 3584 
Q 2172 3584 2448 3432 
Q 2725 3281 2906 2969 
z
M 947 1747 
Q 947 1113 1208 752 
Q 1469 391 1925 391 
Q 2381 391 2643 752 
Q 2906 1113 2906 1747 
Q 2906 2381 2643 2742 
Q 2381 3103 1925 3103 
Q 1469 3103 1208 2742 
Q 947 2381 947 1747 
z
" transform="scale(0.015625)"/>
       <path id="DejaVuSans-73" d="M 2834 3397 
L 2834 2853 
Q 2591 2978 2328 3040 
Q 2066 3103 1784 3103 
Q 1356 3103 1142 2972 
Q 928 2841 928 2578 
Q 928 2378 1081 2264 
Q 1234 2150 1697 2047 
L 1894 2003 
Q 2506 1872 2764 1633 
Q 3022 1394 3022 966 
Q 3022 478 2636 193 
Q 2250 -91 1575 -91 
Q 1294 -91 989 -36 
Q 684 19 347 128 
L 347 722 
Q 666 556 975 473 
Q 1284 391 1588 391 
Q 1994 391 2212 530 
Q 2431 669 2431 922 
Q 2431 1156 2273 1281 
Q 2116 1406 1581 1522 
L 1381 1569 
Q 847 1681 609 1914 
Q 372 2147 372 2553 
Q 372 3047 722 3315 
Q 1072 3584 1716 3584 
Q 2034 3584 2315 3537 
Q 2597 3491 2834 3397 
z
" transform="scale(0.015625)"/>
       <path id="DejaVuSans-79" d="M 2059 -325 
Q 1816 -950 1584 -1140 
Q 1353 -1331 966 -1331 
L 506 -1331 
L 506 -850 
L 844 -850 
Q 1081 -850 1212 -737 
Q 1344 -625 1503 -206 
L 1606 56 
L 191 3500 
L 800 3500 
L 1894 763 
L 2988 3500 
L 3597 3500 
L 2059 -325 
z
" transform="scale(0.015625)"/>
      </defs>
      <use xlink:href="#DejaVuSans-64"/>
      <use xlink:href="#DejaVuSans-65" x="63.476562"/>
      <use xlink:href="#DejaVuSans-6e" x="125"/>
      <use xlink:href="#DejaVuSans-73" x="188.378906"/>
      <use xlink:href="#DejaVuSans-69" x="240.478516"/>
      <use xlink:href="#DejaVuSans-74" x="268.261719"/>
      <use xlink:href="#DejaVuSans-79" x="307.470703"/>
     </g>
    </g>
   </g>
   <g id="PolyCollection_1">
    <path d="M 63.022415 261.216 
L 63.022415 252.873931 
L 73.844233 252.873931 
L 73.844233 261.216 
z
" clip-path="url(#paf4ed21cb9)" style="fill: #595959"/>
    <path d="M 73.844233 261.216 
L 73.844233 252.873931 
L 84.666051 252.873931 
L 84.666051 261.216 
z
" clip-path="url(#paf4ed21cb9)" style="fill: #595959"/>
    <path d="M 84.666051 261.216 
L 84.666051 219.505655 
L 95.487869 219.505655 
L 95.487869 261.216 
z
" clip-path="url(#paf4ed21cb9)" style="fill: #595959"/>
    <path d="M 95.487869 261.216 
L 95.487869 211.163586 
L 106.309687 211.163586 
L 106.309687 261.216 
z
" clip-path="url(#paf4ed21cb9)" style="fill: #595959"/>
    <path d="M 106.309687 261.216 
L 106.309687 177.79531 
L 117.131506 177.79531 
L 117.131506 261.216 
z
" clip-path="url(#paf4ed21cb9)" style="fill: #595959"/>
    <path d="M 117.131506 261.216 
L 117.131506 186.137379 
L 127.953324 186.137379 
L 127.953324 261.216 
z
" clip-path="url(#paf4ed21cb9)" style="fill: #595959"/>
    <path d="M 127.953324 261.216 
L 127.953324 127.742897 
L 138.775142 127.742897 
L 138.775142 261.216 
z
" clip-path="url(#paf4ed21cb9)" style="fill: #595959"/>
    <path d="M 138.775142 261.216 
L 138.775142 77.690483 
L 149.59696 77.690483 
L 149.59696 261.216 
z
" clip-path="url(#paf4ed21cb9)" style="fill: #595959"/>
    <path d="M 149.59696 261.216 
L 149.59696 19.296 
L 160.418778 19.296 
L 160.418778 261.216 
z
" clip-path="url(#paf4ed21cb9)" style="fill: #595959"/>
    <path d="M 160.418778 261.216 
L 160.418778 94.374621 
L 171.240597 94.374621 
L 171.240597 261.216 
z
" clip-path="url(#paf4ed21cb9)" style="fill: #595959"/>
    <path d="M 171.240597 261.216 
L 171.240597 94.374621 
L 182.062415 94.374621 
L 182.062415 261.216 
z
" clip-path="url(#paf4ed21cb9)" style="fill: #595959"/>
    <path d="M 182.062415 261.216 
L 182.062415 35.980138 
L 192.884233 35.980138 
L 192.884233 261.216 
z
" clip-path="url(#paf4ed21cb9)" style="fill: #595959"/>
    <path d="M 192.884233 261.216 
L 192.884233 111.058759 
L 203.706051 111.058759 
L 203.706051 261.216 
z
" clip-path="url(#paf4ed21cb9)" style="fill: #595959"/>
    <path d="M 203.706051 261.216 
L 203.706051 177.79531 
L 214.527869 177.79531 
L 214.527869 261.216 
z
" clip-path="url(#paf4ed21cb9)" style="fill: #595959"/>
    <path d="M 214.527869 261.216 
L 214.527869 177.79531 
L 225.349687 177.79531 
L 225.349687 261.216 
z
" clip-path="url(#paf4ed21cb9)" style="fill: #595959"/>
    <path d="M 225.349687 261.216 
L 225.349687 219.505655 
L 236.171506 219.505655 
L 236.171506 261.216 
z
" clip-path="url(#paf4ed21cb9)" style="fill: #595959"/>
    <path d="M 236.171506 261.216 
L 236.171506 227.847724 
L 246.993324 227.847724 
L 246.993324 261.216 
z
" clip-path="url(#paf4ed21cb9)" style="fill: #595959"/>
    <path d="M 246.993324 261.216 
L 246.993324 177.79531 
L 257.815142 177.79531 
L 257.815142 261.216 
z
" clip-path="url(#paf4ed21cb9)" style="fill: #595959"/>
    <path d="M 257.815142 261.216 
L 257.815142 102.71669 
L 268.63696 102.71669 
L 268.63696 261.216 
z
" clip-path="url(#paf4ed21cb9)" style="fill: #595959"/>
    <path d="M 268.63696 261.216 
L 268.63696 186.137379 
L 279.458778 186.137379 
L 279.458778 261.216 
z
" clip-path="url(#paf4ed21cb9)" style="fill: #595959"/>
    <path d="M 279.458778 261.216 
L 279.458778 161.111172 
L 290.280597 161.111172 
L 290.280597 261.216 
z
" clip-path="url(#paf4ed21cb9)" style="fill: #595959"/>
    <path d="M 290.280597 261.216 
L 290.280597 94.374621 
L 301.102415 94.374621 
L 301.102415 261.216 
z
" clip-path="url(#paf4ed21cb9)" style="fill: #595959"/>
    <path d="M 301.102415 261.216 
L 301.102415 169.453241 
L 311.924233 169.453241 
L 311.924233 261.216 
z
" clip-path="url(#paf4ed21cb9)" style="fill: #595959"/>
    <path d="M 311.924233 261.216 
L 311.924233 152.769103 
L 322.746051 152.769103 
L 322.746051 261.216 
z
" clip-path="url(#paf4ed21cb9)" style="fill: #595959"/>
    <path d="M 322.746051 261.216 
L 322.746051 169.453241 
L 333.567869 169.453241 
L 333.567869 261.216 
z
" clip-path="url(#paf4ed21cb9)" style="fill: #595959"/>
    <path d="M 333.567869 261.216 
L 333.567869 219.505655 
L 344.389687 219.505655 
L 344.389687 261.216 
z
" clip-path="url(#paf4ed21cb9)" style="fill: #595959"/>
    <path d="M 344.389687 261.216 
L 344.389687 219.505655 
L 355.211506 219.505655 
L 355.211506 261.216 
z
" clip-path="url(#paf4ed21cb9)" style="fill: #595959"/>
    <path d="M 355.211506 261.216 
L 355.211506 227.847724 
L 366.033324 227.847724 
L 366.033324 261.216 
z
" clip-path="url(#paf4ed21cb9)" style="fill: #595959"/>
    <path d="M 366.033324 261.216 
L 366.033324 186.137379 
L 376.855142 186.137379 
L 376.855142 261.216 
z
" clip-path="url(#paf4ed21cb9)" style="fill: #595959"/>
    <path d="M 376.855142 261.216 
L 376.855142 252.873931 
L 387.67696 252.873931 
L 387.67696 261.216 
z
" clip-path="url(#paf4ed21cb9)" style="fill: #595959"/>
   </g>
  </g>
 </g>
 <defs>
  <clipPath id="paf4ed21cb9">
   <rect x="46.789688" y="7.2" width="357.12" height="266.112"/>
  </clipPath>
 </defs>
</svg>
