<?xml version="1.0" encoding="utf-8" standalone="no"?>
<!DOCTYPE svg PUBLIC "-//W3C//DTD SVG 1.1//EN"
  "http://www.w3.org/Graphics/SVG/1.1/DTD/svg11.dtd">
<svg xmlns:xlink="http://www.w3.org/1999/xlink" width="397.114937pt" height="309.024687pt" viewBox="0 0 397.114937 309.024687" xmlns="http://www.w3.org/2000/svg" version="1.1">
 <metadata>
  <rdf:RDF xmlns:dc="http://purl.org/dc/elements/1.1/" xmlns:cc="http://creativecommons.org/ns#" xmlns:rdf="http://www.w3.org/1999/02/22-rdf-syntax-ns#">
   <cc:Work>
    <dc:type rdf:resource="http://purl.org/dc/dcmitype/StillImage"/>
    <dc:date>2022-10-28T18:13:49.239693</dc:date>
    <dc:format>image/svg+xml</dc:format>
    <dc:creator>
     <cc:Agent>
      <dc:title>Matplotlib v3.5.3, https://matplotlib.org/</dc:title>
     </cc:Agent>
    </dc:creator>
   </cc:Work>
  </rdf:RDF>
 </metadata>
 <defs>
  <style type="text/css">*{stroke-linejoin: round; stroke-linecap: butt}</style>
 </defs>
 <g id="figure_1">
  <g id="patch_1">
   <path d="M 0 309.024687 
L 397.114937 309.024687 
L 397.114937 0 
L 0 0 
z
" style="fill: #ffffff; stroke: #ffffff; stroke-linejoin: miter"/>
  </g>
  <g id="axes_1">
   <g id="patch_2">
    <path d="M 32.794938 273.312 
L 389.914938 273.312 
L 389.914938 7.2 
L 32.794938 7.2 
z
" style="fill: #ebebeb"/>
   </g>
   <g id="matplotlib.axis_1">
    <g id="xtick_1">
     <g id="line2d_1">
      <path d="M 66.810709 273.312 
L 66.810709 7.2 
" clip-path="url(#pc20dcba661)" style="fill: none; stroke: #ffffff"/>
     </g>
     <g id="line2d_2">
      <path d="M 66.810709 273.312 
" style="fill: none; stroke: #000000; stroke-width: 3"/>
      <defs>
       <path id="mbba025da81" d="M 0 0 
L 0 2.75 
" style="stroke: #333333"/>
      </defs>
      <g>
       <use xlink:href="#mbba025da81" x="66.810709" y="273.312" style="stroke: #333333"/>
      </g>
     </g>
     <g id="text_1">
      <!-- 4 -->
      <g style="fill: #4d4d4d" transform="translate(64.011209 284.948625)scale(0.088 -0.088)">
       <defs>
        <path id="DejaVuSans-34" d="M 2419 4116 
L 825 1625 
L 2419 1625 
L 2419 4116 
z
M 2253 4666 
L 3047 4666 
L 3047 1625 
L 3713 1625 
L 3713 1100 
L 3047 1100 
L 3047 0 
L 2419 0 
L 2419 1100 
L 313 1100 
L 313 1709 
L 2253 4666 
z
" transform="scale(0.015625)"/>
       </defs>
       <use xlink:href="#DejaVuSans-34"/>
      </g>
     </g>
    </g>
    <g id="xtick_2">
     <g id="line2d_3">
      <path d="M 176.244825 273.312 
L 176.244825 7.2 
" clip-path="url(#pc20dcba661)" style="fill: none; stroke: #ffffff"/>
     </g>
     <g id="line2d_4">
      <path d="M 176.244825 273.312 
" style="fill: none; stroke: #000000; stroke-width: 3"/>
      <g>
       <use xlink:href="#mbba025da81" x="176.244825" y="273.312" style="stroke: #333333"/>
      </g>
     </g>
     <g id="text_2">
      <!-- 6 -->
      <g style="fill: #4d4d4d" transform="translate(173.445325 284.948625)scale(0.088 -0.088)">
       <defs>
        <path id="DejaVuSans-36" d="M 2113 2584 
Q 1688 2584 1439 2293 
Q 1191 2003 1191 1497 
Q 1191 994 1439 701 
Q 1688 409 2113 409 
Q 2538 409 2786 701 
Q 3034 994 3034 1497 
Q 3034 2003 2786 2293 
Q 2538 2584 2113 2584 
z
M 3366 4563 
L 3366 3988 
Q 3128 4100 2886 4159 
Q 2644 4219 2406 4219 
Q 1781 4219 1451 3797 
Q 1122 3375 1075 2522 
Q 1259 2794 1537 2939 
Q 1816 3084 2150 3084 
Q 2853 3084 3261 2657 
Q 3669 2231 3669 1497 
Q 3669 778 3244 343 
Q 2819 -91 2113 -91 
Q 1303 -91 875 529 
Q 447 1150 447 2328 
Q 447 3434 972 4092 
Q 1497 4750 2381 4750 
Q 2619 4750 2861 4703 
Q 3103 4656 3366 4563 
z
" transform="scale(0.015625)"/>
       </defs>
       <use xlink:href="#DejaVuSans-36"/>
      </g>
     </g>
    </g>
    <g id="xtick_3">
     <g id="line2d_5">
      <path d="M 285.678942 273.312 
L 285.678942 7.2 
" clip-path="url(#pc20dcba661)" style="fill: none; stroke: #ffffff"/>
     </g>
     <g id="line2d_6">
      <path d="M 285.678942 273.312 
" style="fill: none; stroke: #000000; stroke-width: 3"/>
      <g>
       <use xlink:href="#mbba025da81" x="285.678942" y="273.312" style="stroke: #333333"/>
      </g>
     </g>
     <g id="text_3">
      <!-- 8 -->
      <g style="fill: #4d4d4d" transform="translate(282.879442 284.948625)scale(0.088 -0.088)">
       <defs>
        <path id="DejaVuSans-38" d="M 2034 2216 
Q 1584 2216 1326 1975 
Q 1069 1734 1069 1313 
Q 1069 891 1326 650 
Q 1584 409 2034 409 
Q 2484 409 2743 651 
Q 3003 894 3003 1313 
Q 3003 1734 2745 1975 
Q 2488 2216 2034 2216 
z
M 1403 2484 
Q 997 2584 770 2862 
Q 544 3141 544 3541 
Q 544 4100 942 4425 
Q 1341 4750 2034 4750 
Q 2731 4750 3128 4425 
Q 3525 4100 3525 3541 
Q 3525 3141 3298 2862 
Q 3072 2584 2669 2484 
Q 3125 2378 3379 2068 
Q 3634 1759 3634 1313 
Q 3634 634 3220 271 
Q 2806 -91 2034 -91 
Q 1263 -91 848 271 
Q 434 634 434 1313 
Q 434 1759 690 2068 
Q 947 2378 1403 2484 
z
M 1172 3481 
Q 1172 3119 1398 2916 
Q 1625 2713 2034 2713 
Q 2441 2713 2670 2916 
Q 2900 3119 2900 3481 
Q 2900 3844 2670 4047 
Q 2441 4250 2034 4250 
Q 1625 4250 1398 4047 
Q 1172 3844 1172 3481 
z
" transform="scale(0.015625)"/>
       </defs>
       <use xlink:href="#DejaVuSans-38"/>
      </g>
     </g>
    </g>
    <g id="xtick_4">
     <g id="line2d_7">
      <path d="M 121.527767 273.312 
L 121.527767 7.2 
" clip-path="url(#pc20dcba661)" style="fill: none; stroke: #ffffff; stroke-width: 0.5"/>
     </g>
    </g>
    <g id="xtick_5">
     <g id="line2d_8">
      <path d="M 230.961883 273.312 
L 230.961883 7.2 
" clip-path="url(#pc20dcba661)" style="fill: none; stroke: #ffffff; stroke-width: 0.5"/>
     </g>
    </g>
    <g id="xtick_6">
     <g id="line2d_9">
      <path d="M 340.396 273.312 
L 340.396 7.2 
" clip-path="url(#pc20dcba661)" style="fill: none; stroke: #ffffff; stroke-width: 0.5"/>
     </g>
    </g>
    <g id="text_4">
     <!-- Unemployment -->
     <g transform="translate(163.318844 299.537031)scale(0.11 -0.11)">
      <defs>
       <path id="DejaVuSans-55" d="M 556 4666 
L 1191 4666 
L 1191 1831 
Q 1191 1081 1462 751 
Q 1734 422 2344 422 
Q 2950 422 3222 751 
Q 3494 1081 3494 1831 
L 3494 4666 
L 4128 4666 
L 4128 1753 
Q 4128 841 3676 375 
Q 3225 -91 2344 -91 
Q 1459 -91 1007 375 
Q 556 841 556 1753 
L 556 4666 
z
" transform="scale(0.015625)"/>
       <path id="DejaVuSans-6e" d="M 3513 2113 
L 3513 0 
L 2938 0 
L 2938 2094 
Q 2938 2591 2744 2837 
Q 2550 3084 2163 3084 
Q 1697 3084 1428 2787 
Q 1159 2491 1159 1978 
L 1159 0 
L 581 0 
L 581 3500 
L 1159 3500 
L 1159 2956 
Q 1366 3272 1645 3428 
Q 1925 3584 2291 3584 
Q 2894 3584 3203 3211 
Q 3513 2838 3513 2113 
z
" transform="scale(0.015625)"/>
       <path id="DejaVuSans-65" d="M 3597 1894 
L 3597 1613 
L 953 1613 
Q 991 1019 1311 708 
Q 1631 397 2203 397 
Q 2534 397 2845 478 
Q 3156 559 3463 722 
L 3463 178 
Q 3153 47 2828 -22 
Q 2503 -91 2169 -91 
Q 1331 -91 842 396 
Q 353 884 353 1716 
Q 353 2575 817 3079 
Q 1281 3584 2069 3584 
Q 2775 3584 3186 3129 
Q 3597 2675 3597 1894 
z
M 3022 2063 
Q 3016 2534 2758 2815 
Q 2500 3097 2075 3097 
Q 1594 3097 1305 2825 
Q 1016 2553 972 2059 
L 3022 2063 
z
" transform="scale(0.015625)"/>
       <path id="DejaVuSans-6d" d="M 3328 2828 
Q 3544 3216 3844 3400 
Q 4144 3584 4550 3584 
Q 5097 3584 5394 3201 
Q 5691 2819 5691 2113 
L 5691 0 
L 5113 0 
L 5113 2094 
Q 5113 2597 4934 2840 
Q 4756 3084 4391 3084 
Q 3944 3084 3684 2787 
Q 3425 2491 3425 1978 
L 3425 0 
L 2847 0 
L 2847 2094 
Q 2847 2600 2669 2842 
Q 2491 3084 2119 3084 
Q 1678 3084 1418 2786 
Q 1159 2488 1159 1978 
L 1159 0 
L 581 0 
L 581 3500 
L 1159 3500 
L 1159 2956 
Q 1356 3278 1631 3431 
Q 1906 3584 2284 3584 
Q 2666 3584 2933 3390 
Q 3200 3197 3328 2828 
z
" transform="scale(0.015625)"/>
       <path id="DejaVuSans-70" d="M 1159 525 
L 1159 -1331 
L 581 -1331 
L 581 3500 
L 1159 3500 
L 1159 2969 
Q 1341 3281 1617 3432 
Q 1894 3584 2278 3584 
Q 2916 3584 3314 3078 
Q 3713 2572 3713 1747 
Q 3713 922 3314 415 
Q 2916 -91 2278 -91 
Q 1894 -91 1617 61 
Q 1341 213 1159 525 
z
M 3116 1747 
Q 3116 2381 2855 2742 
Q 2594 3103 2138 3103 
Q 1681 3103 1420 2742 
Q 1159 2381 1159 1747 
Q 1159 1113 1420 752 
Q 1681 391 2138 391 
Q 2594 391 2855 752 
Q 3116 1113 3116 1747 
z
" transform="scale(0.015625)"/>
       <path id="DejaVuSans-6c" d="M 603 4863 
L 1178 4863 
L 1178 0 
L 603 0 
L 603 4863 
z
" transform="scale(0.015625)"/>
       <path id="DejaVuSans-6f" d="M 1959 3097 
Q 1497 3097 1228 2736 
Q 959 2375 959 1747 
Q 959 1119 1226 758 
Q 1494 397 1959 397 
Q 2419 397 2687 759 
Q 2956 1122 2956 1747 
Q 2956 2369 2687 2733 
Q 2419 3097 1959 3097 
z
M 1959 3584 
Q 2709 3584 3137 3096 
Q 3566 2609 3566 1747 
Q 3566 888 3137 398 
Q 2709 -91 1959 -91 
Q 1206 -91 779 398 
Q 353 888 353 1747 
Q 353 2609 779 3096 
Q 1206 3584 1959 3584 
z
" transform="scale(0.015625)"/>
       <path id="DejaVuSans-79" d="M 2059 -325 
Q 1816 -950 1584 -1140 
Q 1353 -1331 966 -1331 
L 506 -1331 
L 506 -850 
L 844 -850 
Q 1081 -850 1212 -737 
Q 1344 -625 1503 -206 
L 1606 56 
L 191 3500 
L 800 3500 
L 1894 763 
L 2988 3500 
L 3597 3500 
L 2059 -325 
z
" transform="scale(0.015625)"/>
       <path id="DejaVuSans-74" d="M 1172 4494 
L 1172 3500 
L 2356 3500 
L 2356 3053 
L 1172 3053 
L 1172 1153 
Q 1172 725 1289 603 
Q 1406 481 1766 481 
L 2356 481 
L 2356 0 
L 1766 0 
Q 1100 0 847 248 
Q 594 497 594 1153 
L 594 3053 
L 172 3053 
L 172 3500 
L 594 3500 
L 594 4494 
L 1172 4494 
z
" transform="scale(0.015625)"/>
      </defs>
      <use xlink:href="#DejaVuSans-55"/>
      <use xlink:href="#DejaVuSans-6e" x="73.193359"/>
      <use xlink:href="#DejaVuSans-65" x="136.572266"/>
      <use xlink:href="#DejaVuSans-6d" x="198.095703"/>
      <use xlink:href="#DejaVuSans-70" x="295.507812"/>
      <use xlink:href="#DejaVuSans-6c" x="358.984375"/>
      <use xlink:href="#DejaVuSans-6f" x="386.767578"/>
      <use xlink:href="#DejaVuSans-79" x="447.949219"/>
      <use xlink:href="#DejaVuSans-6d" x="507.128906"/>
      <use xlink:href="#DejaVuSans-65" x="604.541016"/>
      <use xlink:href="#DejaVuSans-6e" x="666.064453"/>
      <use xlink:href="#DejaVuSans-74" x="729.443359"/>
     </g>
    </g>
   </g>
   <g id="matplotlib.axis_2">
    <g id="ytick_1">
     <g id="line2d_10">
      <path d="M 32.794938 240.909837 
L 389.914938 240.909837 
" clip-path="url(#pc20dcba661)" style="fill: none; stroke: #ffffff"/>
     </g>
     <g id="line2d_11">
      <path d="M 32.794938 240.909837 
" style="fill: none; stroke: #000000; stroke-width: 3"/>
      <defs>
       <path id="mb9aefe4ee8" d="M 0 0 
L -2.75 0 
" style="stroke: #333333"/>
      </defs>
      <g>
       <use xlink:href="#mb9aefe4ee8" x="32.794938" y="240.909837" style="stroke: #333333"/>
      </g>
     </g>
     <g id="text_5">
      <!-- 2 -->
      <g style="fill: #4d4d4d" transform="translate(22.245938 243.338087)scale(0.088 -0.088)">
       <defs>
        <path id="DejaVuSans-32" d="M 1228 531 
L 3431 531 
L 3431 0 
L 469 0 
L 469 531 
Q 828 903 1448 1529 
Q 2069 2156 2228 2338 
Q 2531 2678 2651 2914 
Q 2772 3150 2772 3378 
Q 2772 3750 2511 3984 
Q 2250 4219 1831 4219 
Q 1534 4219 1204 4116 
Q 875 4013 500 3803 
L 500 4441 
Q 881 4594 1212 4672 
Q 1544 4750 1819 4750 
Q 2544 4750 2975 4387 
Q 3406 4025 3406 3419 
Q 3406 3131 3298 2873 
Q 3191 2616 2906 2266 
Q 2828 2175 2409 1742 
Q 1991 1309 1228 531 
z
" transform="scale(0.015625)"/>
       </defs>
       <use xlink:href="#DejaVuSans-32"/>
      </g>
     </g>
    </g>
    <g id="ytick_2">
     <g id="line2d_12">
      <path d="M 32.794938 187.337277 
L 389.914938 187.337277 
" clip-path="url(#pc20dcba661)" style="fill: none; stroke: #ffffff"/>
     </g>
     <g id="line2d_13">
      <path d="M 32.794938 187.337277 
" style="fill: none; stroke: #000000; stroke-width: 3"/>
      <g>
       <use xlink:href="#mb9aefe4ee8" x="32.794938" y="187.337277" style="stroke: #333333"/>
      </g>
     </g>
     <g id="text_6">
      <!-- 3 -->
      <g style="fill: #4d4d4d" transform="translate(22.245938 189.765527)scale(0.088 -0.088)">
       <defs>
        <path id="DejaVuSans-33" d="M 2597 2516 
Q 3050 2419 3304 2112 
Q 3559 1806 3559 1356 
Q 3559 666 3084 287 
Q 2609 -91 1734 -91 
Q 1441 -91 1130 -33 
Q 819 25 488 141 
L 488 750 
Q 750 597 1062 519 
Q 1375 441 1716 441 
Q 2309 441 2620 675 
Q 2931 909 2931 1356 
Q 2931 1769 2642 2001 
Q 2353 2234 1838 2234 
L 1294 2234 
L 1294 2753 
L 1863 2753 
Q 2328 2753 2575 2939 
Q 2822 3125 2822 3475 
Q 2822 3834 2567 4026 
Q 2313 4219 1838 4219 
Q 1578 4219 1281 4162 
Q 984 4106 628 3988 
L 628 4550 
Q 988 4650 1302 4700 
Q 1616 4750 1894 4750 
Q 2613 4750 3031 4423 
Q 3450 4097 3450 3541 
Q 3450 3153 3228 2886 
Q 3006 2619 2597 2516 
z
" transform="scale(0.015625)"/>
       </defs>
       <use xlink:href="#DejaVuSans-33"/>
      </g>
     </g>
    </g>
    <g id="ytick_3">
     <g id="line2d_14">
      <path d="M 32.794938 133.764718 
L 389.914938 133.764718 
" clip-path="url(#pc20dcba661)" style="fill: none; stroke: #ffffff"/>
     </g>
     <g id="line2d_15">
      <path d="M 32.794938 133.764718 
" style="fill: none; stroke: #000000; stroke-width: 3"/>
      <g>
       <use xlink:href="#mb9aefe4ee8" x="32.794938" y="133.764718" style="stroke: #333333"/>
      </g>
     </g>
     <g id="text_7">
      <!-- 4 -->
      <g style="fill: #4d4d4d" transform="translate(22.245938 136.192968)scale(0.088 -0.088)">
       <use xlink:href="#DejaVuSans-34"/>
      </g>
     </g>
    </g>
    <g id="ytick_4">
     <g id="line2d_16">
      <path d="M 32.794938 80.192158 
L 389.914938 80.192158 
" clip-path="url(#pc20dcba661)" style="fill: none; stroke: #ffffff"/>
     </g>
     <g id="line2d_17">
      <path d="M 32.794938 80.192158 
" style="fill: none; stroke: #000000; stroke-width: 3"/>
      <g>
       <use xlink:href="#mb9aefe4ee8" x="32.794938" y="80.192158" style="stroke: #333333"/>
      </g>
     </g>
     <g id="text_8">
      <!-- 5 -->
      <g style="fill: #4d4d4d" transform="translate(22.245938 82.620408)scale(0.088 -0.088)">
       <defs>
        <path id="DejaVuSans-35" d="M 691 4666 
L 3169 4666 
L 3169 4134 
L 1269 4134 
L 1269 2991 
Q 1406 3038 1543 3061 
Q 1681 3084 1819 3084 
Q 2600 3084 3056 2656 
Q 3513 2228 3513 1497 
Q 3513 744 3044 326 
Q 2575 -91 1722 -91 
Q 1428 -91 1123 -41 
Q 819 9 494 109 
L 494 744 
Q 775 591 1075 516 
Q 1375 441 1709 441 
Q 2250 441 2565 725 
Q 2881 1009 2881 1497 
Q 2881 1984 2565 2268 
Q 2250 2553 1709 2553 
Q 1456 2553 1204 2497 
Q 953 2441 691 2322 
L 691 4666 
z
" transform="scale(0.015625)"/>
       </defs>
       <use xlink:href="#DejaVuSans-35"/>
      </g>
     </g>
    </g>
    <g id="ytick_5">
     <g id="line2d_18">
      <path d="M 32.794938 26.619599 
L 389.914938 26.619599 
" clip-path="url(#pc20dcba661)" style="fill: none; stroke: #ffffff"/>
     </g>
     <g id="line2d_19">
      <path d="M 32.794938 26.619599 
" style="fill: none; stroke: #000000; stroke-width: 3"/>
      <g>
       <use xlink:href="#mb9aefe4ee8" x="32.794938" y="26.619599" style="stroke: #333333"/>
      </g>
     </g>
     <g id="text_9">
      <!-- 6 -->
      <g style="fill: #4d4d4d" transform="translate(22.245938 29.047849)scale(0.088 -0.088)">
       <use xlink:href="#DejaVuSans-36"/>
      </g>
     </g>
    </g>
    <g id="ytick_6">
     <g id="line2d_20">
      <path d="M 32.794938 267.696117 
L 389.914938 267.696117 
" clip-path="url(#pc20dcba661)" style="fill: none; stroke: #ffffff; stroke-width: 0.5"/>
     </g>
    </g>
    <g id="ytick_7">
     <g id="line2d_21">
      <path d="M 32.794938 214.123557 
L 389.914938 214.123557 
" clip-path="url(#pc20dcba661)" style="fill: none; stroke: #ffffff; stroke-width: 0.5"/>
     </g>
    </g>
    <g id="ytick_8">
     <g id="line2d_22">
      <path d="M 32.794938 160.550998 
L 389.914938 160.550998 
" clip-path="url(#pc20dcba661)" style="fill: none; stroke: #ffffff; stroke-width: 0.5"/>
     </g>
    </g>
    <g id="ytick_9">
     <g id="line2d_23">
      <path d="M 32.794938 106.978438 
L 389.914938 106.978438 
" clip-path="url(#pc20dcba661)" style="fill: none; stroke: #ffffff; stroke-width: 0.5"/>
     </g>
    </g>
    <g id="ytick_10">
     <g id="line2d_24">
      <path d="M 32.794938 53.405879 
L 389.914938 53.405879 
" clip-path="url(#pc20dcba661)" style="fill: none; stroke: #ffffff; stroke-width: 0.5"/>
     </g>
    </g>
    <g id="text_10">
     <!-- Vacancies -->
     <g transform="translate(15.558281 165.916281)rotate(-90)scale(0.11 -0.11)">
      <defs>
       <path id="DejaVuSans-56" d="M 1831 0 
L 50 4666 
L 709 4666 
L 2188 738 
L 3669 4666 
L 4325 4666 
L 2547 0 
L 1831 0 
z
" transform="scale(0.015625)"/>
       <path id="DejaVuSans-61" d="M 2194 1759 
Q 1497 1759 1228 1600 
Q 959 1441 959 1056 
Q 959 750 1161 570 
Q 1363 391 1709 391 
Q 2188 391 2477 730 
Q 2766 1069 2766 1631 
L 2766 1759 
L 2194 1759 
z
M 3341 1997 
L 3341 0 
L 2766 0 
L 2766 531 
Q 2569 213 2275 61 
Q 1981 -91 1556 -91 
Q 1019 -91 701 211 
Q 384 513 384 1019 
Q 384 1609 779 1909 
Q 1175 2209 1959 2209 
L 2766 2209 
L 2766 2266 
Q 2766 2663 2505 2880 
Q 2244 3097 1772 3097 
Q 1472 3097 1187 3025 
Q 903 2953 641 2809 
L 641 3341 
Q 956 3463 1253 3523 
Q 1550 3584 1831 3584 
Q 2591 3584 2966 3190 
Q 3341 2797 3341 1997 
z
" transform="scale(0.015625)"/>
       <path id="DejaVuSans-63" d="M 3122 3366 
L 3122 2828 
Q 2878 2963 2633 3030 
Q 2388 3097 2138 3097 
Q 1578 3097 1268 2742 
Q 959 2388 959 1747 
Q 959 1106 1268 751 
Q 1578 397 2138 397 
Q 2388 397 2633 464 
Q 2878 531 3122 666 
L 3122 134 
Q 2881 22 2623 -34 
Q 2366 -91 2075 -91 
Q 1284 -91 818 406 
Q 353 903 353 1747 
Q 353 2603 823 3093 
Q 1294 3584 2113 3584 
Q 2378 3584 2631 3529 
Q 2884 3475 3122 3366 
z
" transform="scale(0.015625)"/>
       <path id="DejaVuSans-69" d="M 603 3500 
L 1178 3500 
L 1178 0 
L 603 0 
L 603 3500 
z
M 603 4863 
L 1178 4863 
L 1178 4134 
L 603 4134 
L 603 4863 
z
" transform="scale(0.015625)"/>
       <path id="DejaVuSans-73" d="M 2834 3397 
L 2834 2853 
Q 2591 2978 2328 3040 
Q 2066 3103 1784 3103 
Q 1356 3103 1142 2972 
Q 928 2841 928 2578 
Q 928 2378 1081 2264 
Q 1234 2150 1697 2047 
L 1894 2003 
Q 2506 1872 2764 1633 
Q 3022 1394 3022 966 
Q 3022 478 2636 193 
Q 2250 -91 1575 -91 
Q 1294 -91 989 -36 
Q 684 19 347 128 
L 347 722 
Q 666 556 975 473 
Q 1284 391 1588 391 
Q 1994 391 2212 530 
Q 2431 669 2431 922 
Q 2431 1156 2273 1281 
Q 2116 1406 1581 1522 
L 1381 1569 
Q 847 1681 609 1914 
Q 372 2147 372 2553 
Q 372 3047 722 3315 
Q 1072 3584 1716 3584 
Q 2034 3584 2315 3537 
Q 2597 3491 2834 3397 
z
" transform="scale(0.015625)"/>
      </defs>
      <use xlink:href="#DejaVuSans-56"/>
      <use xlink:href="#DejaVuSans-61" x="60.658203"/>
      <use xlink:href="#DejaVuSans-63" x="121.9375"/>
      <use xlink:href="#DejaVuSans-61" x="176.917969"/>
      <use xlink:href="#DejaVuSans-6e" x="238.197266"/>
      <use xlink:href="#DejaVuSans-63" x="301.576172"/>
      <use xlink:href="#DejaVuSans-69" x="356.556641"/>
      <use xlink:href="#DejaVuSans-65" x="384.339844"/>
      <use xlink:href="#DejaVuSans-73" x="445.863281"/>
     </g>
    </g>
   </g>
   <g id="PathCollection_1">
    <path d="M 107.392527 187.596886 
C 107.862587 187.596886 108.313458 187.410129 108.645841 187.077746 
C 108.978224 186.745363 109.164981 186.294492 109.164981 185.824432 
C 109.164981 185.354372 108.978224 184.903501 108.645841 184.571118 
C 108.313458 184.238735 107.862587 184.051978 107.392527 184.051978 
C 106.922467 184.051978 106.471596 184.238735 106.139213 184.571118 
C 105.80683 184.903501 105.620073 185.354372 105.620073 185.824432 
C 105.620073 186.294492 105.80683 186.745363 106.139213 187.077746 
C 106.471596 187.410129 106.922467 187.596886 107.392527 187.596886 
z
" clip-path="url(#pc20dcba661)" style="fill: #a52a2a; stroke: #a52a2a; stroke-width: 0.886227"/>
    <path d="M 164.389463 221.936077 
C 164.859523 221.936077 165.310394 221.74932 165.642777 221.416938 
C 165.975159 221.084555 166.161916 220.633684 166.161916 220.163624 
C 166.161916 219.693563 165.975159 219.242692 165.642777 218.910309 
C 165.310394 218.577927 164.859523 218.39117 164.389463 218.39117 
C 163.919402 218.39117 163.468531 218.577927 163.136148 218.910309 
C 162.803766 219.242692 162.617009 219.693563 162.617009 220.163624 
C 162.617009 220.633684 162.803766 221.084555 163.136148 221.416938 
C 163.468531 221.74932 163.919402 221.936077 164.389463 221.936077 
z
" clip-path="url(#pc20dcba661)" style="fill: #a52a2a; stroke: #a52a2a; stroke-width: 0.886227"/>
    <path d="M 175.78885 231.312192 
C 176.25891 231.312192 176.709781 231.125435 177.042164 230.793053 
C 177.374547 230.46067 177.561304 230.009799 177.561304 229.539739 
C 177.561304 229.069678 177.374547 228.618807 177.042164 228.286424 
C 176.709781 227.954042 176.25891 227.767285 175.78885 227.767285 
C 175.318789 227.767285 174.867918 227.954042 174.535536 228.286424 
C 174.203153 228.618807 174.016396 229.069678 174.016396 229.539739 
C 174.016396 230.009799 174.203153 230.46067 174.535536 230.793053 
C 174.867918 231.125435 175.318789 231.312192 175.78885 231.312192 
z
" clip-path="url(#pc20dcba661)" style="fill: #a52a2a; stroke: #a52a2a; stroke-width: 0.886227"/>
    <path d="M 151.166173 217.492006 
C 151.636234 217.492006 152.087105 217.305249 152.419488 216.972866 
C 152.75187 216.640483 152.938627 216.189612 152.938627 215.719552 
C 152.938627 215.249492 152.75187 214.79862 152.419488 214.466238 
C 152.087105 214.133855 151.636234 213.947098 151.166173 213.947098 
C 150.696113 213.947098 150.245242 214.133855 149.912859 214.466238 
C 149.580477 214.79862 149.39372 215.249492 149.39372 215.719552 
C 149.39372 216.189612 149.580477 216.640483 149.912859 216.972866 
C 150.245242 217.305249 150.696113 217.492006 151.166173 217.492006 
z
" clip-path="url(#pc20dcba661)" style="fill: #a52a2a; stroke: #a52a2a; stroke-width: 0.886227"/>
    <path d="M 126.087522 202.324717 
C 126.557582 202.324717 127.008453 202.13796 127.340836 201.805577 
C 127.673219 201.473194 127.859976 201.022323 127.859976 200.552263 
C 127.859976 200.082203 127.673219 199.631331 127.340836 199.298949 
C 127.008453 198.966566 126.557582 198.779809 126.087522 198.779809 
C 125.617462 198.779809 125.16659 198.966566 124.834208 199.298949 
C 124.501825 199.631331 124.315068 200.082203 124.315068 200.552263 
C 124.315068 201.022323 124.501825 201.473194 124.834208 201.805577 
C 125.16659 202.13796 125.617462 202.324717 126.087522 202.324717 
z
" clip-path="url(#pc20dcba661)" style="fill: #a52a2a; stroke: #a52a2a; stroke-width: 0.886227"/>
    <path d="M 100.096919 187.550474 
C 100.566979 187.550474 101.01785 187.363717 101.350233 187.031334 
C 101.682616 186.698951 101.869373 186.24808 101.869373 185.77802 
C 101.869373 185.30796 101.682616 184.857089 101.350233 184.524706 
C 101.01785 184.192323 100.566979 184.005566 100.096919 184.005566 
C 99.626859 184.005566 99.175988 184.192323 98.843605 184.524706 
C 98.511222 184.857089 98.324465 185.30796 98.324465 185.77802 
C 98.324465 186.24808 98.511222 186.698951 98.843605 187.031334 
C 99.175988 187.363717 99.626859 187.550474 100.096919 187.550474 
z
" clip-path="url(#pc20dcba661)" style="fill: #a52a2a; stroke: #a52a2a; stroke-width: 0.886227"/>
    <path d="M 100.552895 185.842304 
C 101.022955 185.842304 101.473826 185.655547 101.806209 185.323164 
C 102.138592 184.990781 102.325348 184.53991 102.325348 184.06985 
C 102.325348 183.59979 102.138592 183.148918 101.806209 182.816536 
C 101.473826 182.484153 101.022955 182.297396 100.552895 182.297396 
C 100.082834 182.297396 99.631963 182.484153 99.29958 182.816536 
C 98.967198 183.148918 98.780441 183.59979 98.780441 184.06985 
C 98.780441 184.53991 98.967198 184.990781 99.29958 185.323164 
C 99.631963 185.655547 100.082834 185.842304 100.552895 185.842304 
z
" clip-path="url(#pc20dcba661)" style="fill: #a52a2a; stroke: #a52a2a; stroke-width: 0.886227"/>
    <path d="M 165.301413 217.737274 
C 165.771474 217.737274 166.222345 217.550517 166.554728 217.218134 
C 166.88711 216.885752 167.073867 216.43488 167.073867 215.96482 
C 167.073867 215.49476 166.88711 215.043889 166.554728 214.711506 
C 166.222345 214.379123 165.771474 214.192366 165.301413 214.192366 
C 164.831353 214.192366 164.380482 214.379123 164.048099 214.711506 
C 163.715717 215.043889 163.52896 215.49476 163.52896 215.96482 
C 163.52896 216.43488 163.715717 216.885752 164.048099 217.218134 
C 164.380482 217.550517 164.831353 217.737274 165.301413 217.737274 
z
" clip-path="url(#pc20dcba661)" style="fill: #a52a2a; stroke: #a52a2a; stroke-width: 0.886227"/>
    <path d="M 355.899166 262.988454 
C 356.369227 262.988454 356.820098 262.801697 357.15248 262.469314 
C 357.484863 262.136931 357.67162 261.68606 357.67162 261.216 
C 357.67162 260.74594 357.484863 260.295069 357.15248 259.962686 
C 356.820098 259.630303 356.369227 259.443546 355.899166 259.443546 
C 355.429106 259.443546 354.978235 259.630303 354.645852 259.962686 
C 354.313469 260.295069 354.126712 260.74594 354.126712 261.216 
C 354.126712 261.68606 354.313469 262.136931 354.645852 262.469314 
C 354.978235 262.801697 355.429106 262.988454 355.899166 262.988454 
z
" clip-path="url(#pc20dcba661)" style="fill: #a52a2a; stroke: #a52a2a; stroke-width: 0.886227"/>
    <path d="M 373.68221 246.327419 
C 374.15227 246.327419 374.603142 246.140662 374.935524 245.808279 
C 375.267907 245.475897 375.454664 245.025026 375.454664 244.554965 
C 375.454664 244.084905 375.267907 243.634034 374.935524 243.301651 
C 374.603142 242.969268 374.15227 242.782511 373.68221 242.782511 
C 373.21215 242.782511 372.761279 242.969268 372.428896 243.301651 
C 372.096513 243.634034 371.909756 244.084905 371.909756 244.554965 
C 371.909756 245.025026 372.096513 245.475897 372.428896 245.808279 
C 372.761279 246.140662 373.21215 246.327419 373.68221 246.327419 
z
" clip-path="url(#pc20dcba661)" style="fill: #a52a2a; stroke: #a52a2a; stroke-width: 0.886227"/>
    <path d="M 336.748196 230.226032 
C 337.218256 230.226032 337.669127 230.039275 338.00151 229.706893 
C 338.333893 229.37451 338.52065 228.923639 338.52065 228.453578 
C 338.52065 227.983518 338.333893 227.532647 338.00151 227.200264 
C 337.669127 226.867882 337.218256 226.681125 336.748196 226.681125 
C 336.278136 226.681125 335.827265 226.867882 335.494882 227.200264 
C 335.162499 227.532647 334.975742 227.983518 334.975742 228.453578 
C 334.975742 228.923639 335.162499 229.37451 335.494882 229.706893 
C 335.827265 230.039275 336.278136 230.226032 336.748196 230.226032 
z
" clip-path="url(#pc20dcba661)" style="fill: #a52a2a; stroke: #a52a2a; stroke-width: 0.886227"/>
    <path d="M 289.782721 217.109231 
C 290.252781 217.109231 290.703652 216.922474 291.036035 216.590091 
C 291.368418 216.257709 291.555175 215.806838 291.555175 215.336777 
C 291.555175 214.866717 291.368418 214.415846 291.036035 214.083463 
C 290.703652 213.75108 290.252781 213.564323 289.782721 213.564323 
C 289.312661 213.564323 288.86179 213.75108 288.529407 214.083463 
C 288.197024 214.415846 288.010267 214.866717 288.010267 215.336777 
C 288.010267 215.806838 288.197024 216.257709 288.529407 216.590091 
C 288.86179 216.922474 289.312661 217.109231 289.782721 217.109231 
z
" clip-path="url(#pc20dcba661)" style="fill: #a52a2a; stroke: #a52a2a; stroke-width: 0.886227"/>
    <path d="M 250.568829 209.671204 
C 251.038889 209.671204 251.489761 209.484447 251.822143 209.152064 
C 252.154526 208.819681 252.341283 208.36881 252.341283 207.89875 
C 252.341283 207.428689 252.154526 206.977818 251.822143 206.645436 
C 251.489761 206.313053 251.038889 206.126296 250.568829 206.126296 
C 250.098769 206.126296 249.647898 206.313053 249.315515 206.645436 
C 248.983132 206.977818 248.796375 207.428689 248.796375 207.89875 
C 248.796375 208.36881 248.983132 208.819681 249.315515 209.152064 
C 249.647898 209.484447 250.098769 209.671204 250.568829 209.671204 
z
" clip-path="url(#pc20dcba661)" style="fill: #a52a2a; stroke: #a52a2a; stroke-width: 0.886227"/>
    <path d="M 184.908359 185.915179 
C 185.37842 185.915179 185.829291 185.728422 186.161673 185.39604 
C 186.494056 185.063657 186.680813 184.612786 186.680813 184.142725 
C 186.680813 183.672665 186.494056 183.221794 186.161673 182.889411 
C 185.829291 182.557029 185.37842 182.370272 184.908359 182.370272 
C 184.438299 182.370272 183.987428 182.557029 183.655045 182.889411 
C 183.322662 183.221794 183.135906 183.672665 183.135906 184.142725 
C 183.135906 184.612786 183.322662 185.063657 183.655045 185.39604 
C 183.987428 185.728422 184.438299 185.915179 184.908359 185.915179 
z
" clip-path="url(#pc20dcba661)" style="fill: #a52a2a; stroke: #a52a2a; stroke-width: 0.886227"/>
    <path d="M 136.574958 160.044911 
C 137.045018 160.044911 137.495889 159.858154 137.828272 159.525771 
C 138.160655 159.193388 138.347412 158.742517 138.347412 158.272457 
C 138.347412 157.802397 138.160655 157.351526 137.828272 157.019143 
C 137.495889 156.68676 137.045018 156.500003 136.574958 156.500003 
C 136.104898 156.500003 135.654027 156.68676 135.321644 157.019143 
C 134.989261 157.351526 134.802504 157.802397 134.802504 158.272457 
C 134.802504 158.742517 134.989261 159.193388 135.321644 159.525771 
C 135.654027 159.858154 136.104898 160.044911 136.574958 160.044911 
z
" clip-path="url(#pc20dcba661)" style="fill: #a52a2a; stroke: #a52a2a; stroke-width: 0.886227"/>
    <path d="M 114.688135 152.734237 
C 115.158195 152.734237 115.609066 152.54748 115.941449 152.215097 
C 116.273832 151.882714 116.460588 151.431843 116.460588 150.961783 
C 116.460588 150.491723 116.273832 150.040852 115.941449 149.708469 
C 115.609066 149.376086 115.158195 149.189329 114.688135 149.189329 
C 114.218074 149.189329 113.767203 149.376086 113.434821 149.708469 
C 113.102438 150.040852 112.915681 150.491723 112.915681 150.961783 
C 112.915681 151.431843 113.102438 151.882714 113.434821 152.215097 
C 113.767203 152.54748 114.218074 152.734237 114.688135 152.734237 
z
" clip-path="url(#pc20dcba661)" style="fill: #a52a2a; stroke: #a52a2a; stroke-width: 0.886227"/>
    <path d="M 86.417655 145.409641 
C 86.887715 145.409641 87.338586 145.222884 87.670969 144.890501 
C 88.003351 144.558119 88.190108 144.107247 88.190108 143.637187 
C 88.190108 143.167127 88.003351 142.716256 87.670969 142.383873 
C 87.338586 142.05149 86.887715 141.864733 86.417655 141.864733 
C 85.947594 141.864733 85.496723 142.05149 85.16434 142.383873 
C 84.831958 142.716256 84.645201 143.167127 84.645201 143.637187 
C 84.645201 144.107247 84.831958 144.558119 85.16434 144.890501 
C 85.496723 145.222884 85.947594 145.409641 86.417655 145.409641 
z
" clip-path="url(#pc20dcba661)" style="fill: #a52a2a; stroke: #a52a2a; stroke-width: 0.886227"/>
    <path d="M 60.883027 115.171354 
C 61.353088 115.171354 61.803959 114.984597 62.136342 114.652214 
C 62.468724 114.319832 62.655481 113.868961 62.655481 113.3989 
C 62.655481 112.92884 62.468724 112.477969 62.136342 112.145586 
C 61.803959 111.813203 61.353088 111.626447 60.883027 111.626447 
C 60.412967 111.626447 59.962096 111.813203 59.629713 112.145586 
C 59.29733 112.477969 59.110574 112.92884 59.110574 113.3989 
C 59.110574 113.868961 59.29733 114.319832 59.629713 114.652214 
C 59.962096 114.984597 60.412967 115.171354 60.883027 115.171354 
z
" clip-path="url(#pc20dcba661)" style="fill: #a52a2a; stroke: #a52a2a; stroke-width: 0.886227"/>
    <path d="M 49.027665 115.453485 
C 49.497725 115.453485 49.948596 115.266728 50.280979 114.934345 
C 50.613362 114.601962 50.800119 114.151091 50.800119 113.681031 
C 50.800119 113.210971 50.613362 112.7601 50.280979 112.427717 
C 49.948596 112.095334 49.497725 111.908577 49.027665 111.908577 
C 48.557605 111.908577 48.106733 112.095334 47.774351 112.427717 
C 47.441968 112.7601 47.255211 113.210971 47.255211 113.681031 
C 47.255211 114.151091 47.441968 114.601962 47.774351 114.934345 
C 48.106733 115.266728 48.557605 115.453485 49.027665 115.453485 
z
" clip-path="url(#pc20dcba661)" style="fill: #a52a2a; stroke: #a52a2a; stroke-width: 0.886227"/>
    <path d="M 290.694672 137.50716 
C 291.164732 137.50716 291.615603 137.320403 291.947986 136.98802 
C 292.280369 136.655637 292.467126 136.204766 292.467126 135.734706 
C 292.467126 135.264646 292.280369 134.813775 291.947986 134.481392 
C 291.615603 134.149009 291.164732 133.962252 290.694672 133.962252 
C 290.224612 133.962252 289.773741 134.149009 289.441358 134.481392 
C 289.108975 134.813775 288.922218 135.264646 288.922218 135.734706 
C 288.922218 136.204766 289.108975 136.655637 289.441358 136.98802 
C 289.773741 137.320403 290.224612 137.50716 290.694672 137.50716 
z
" clip-path="url(#pc20dcba661)" style="fill: #a52a2a; stroke: #a52a2a; stroke-width: 0.886227"/>
    <path d="M 198.131648 21.604179 
C 198.601709 21.604179 199.05258 21.417423 199.384963 21.08504 
C 199.717345 20.752657 199.904102 20.301786 199.904102 19.831726 
C 199.904102 19.361665 199.717345 18.910794 199.384963 18.578411 
C 199.05258 18.246029 198.601709 18.059272 198.131648 18.059272 
C 197.661588 18.059272 197.210717 18.246029 196.878334 18.578411 
C 196.545951 18.910794 196.359195 19.361665 196.359195 19.831726 
C 196.359195 20.301786 196.545951 20.752657 196.878334 21.08504 
C 197.210717 21.417423 197.661588 21.604179 198.131648 21.604179 
z
" clip-path="url(#pc20dcba661)" style="fill: #a52a2a; stroke: #a52a2a; stroke-width: 0.886227"/>
   </g>
   <g id="line2d_25">
    <path d="M 107.392527 185.824432 
L 164.389463 220.163624 
L 175.78885 229.539739 
L 151.166173 215.719552 
L 126.087522 200.552263 
L 100.096919 185.77802 
L 100.552895 184.06985 
L 165.301413 215.96482 
L 355.899166 261.216 
L 373.68221 244.554965 
L 336.748196 228.453578 
L 289.782721 215.336777 
L 250.568829 207.89875 
L 184.908359 184.142725 
L 136.574958 158.272457 
L 114.688135 150.961783 
L 86.417655 143.637187 
L 60.883027 113.3989 
L 49.027665 113.681031 
L 290.694672 135.734706 
L 198.131648 19.831726 
" clip-path="url(#pc20dcba661)" style="fill: none; stroke: #000000; stroke-width: 0.886227"/>
   </g>
   <g id="text_11">
    <g id="patch_3">
     <path d="M 93.395027 193.361675 
L 121.390027 193.361675 
Q 124.140027 193.361675 124.140027 190.611675 
L 124.140027 179.965738 
Q 124.140027 177.215738 121.390027 177.215738 
L 93.395027 177.215738 
Q 90.645027 177.215738 90.645027 179.965738 
L 90.645027 190.611675 
Q 90.645027 193.361675 93.395027 193.361675 
z
" clip-path="url(#pc20dcba661)" style="fill: #ffffff; stroke: #000000; stroke-width: 0.7; stroke-linejoin: miter"/>
    </g>
    <g clip-path="url(#pc20dcba661)">
     <!-- 2001 -->
     <g transform="translate(93.395027 188.324019)scale(0.11 -0.11)">
      <defs>
       <path id="DejaVuSans-30" d="M 2034 4250 
Q 1547 4250 1301 3770 
Q 1056 3291 1056 2328 
Q 1056 1369 1301 889 
Q 1547 409 2034 409 
Q 2525 409 2770 889 
Q 3016 1369 3016 2328 
Q 3016 3291 2770 3770 
Q 2525 4250 2034 4250 
z
M 2034 4750 
Q 2819 4750 3233 4129 
Q 3647 3509 3647 2328 
Q 3647 1150 3233 529 
Q 2819 -91 2034 -91 
Q 1250 -91 836 529 
Q 422 1150 422 2328 
Q 422 3509 836 4129 
Q 1250 4750 2034 4750 
z
" transform="scale(0.015625)"/>
       <path id="DejaVuSans-31" d="M 794 531 
L 1825 531 
L 1825 4091 
L 703 3866 
L 703 4441 
L 1819 4666 
L 2450 4666 
L 2450 531 
L 3481 531 
L 3481 0 
L 794 0 
L 794 531 
z
" transform="scale(0.015625)"/>
      </defs>
      <use xlink:href="#DejaVuSans-32"/>
      <use xlink:href="#DejaVuSans-30" x="63.623047"/>
      <use xlink:href="#DejaVuSans-30" x="127.246094"/>
      <use xlink:href="#DejaVuSans-31" x="190.869141"/>
     </g>
    </g>
   </g>
   <g id="text_12">
    <g id="patch_4">
     <path d="M 93.395027 193.361675 
L 121.390027 193.361675 
Q 124.140027 193.361675 124.140027 190.611675 
L 124.140027 179.965738 
Q 124.140027 177.215738 121.390027 177.215738 
L 93.395027 177.215738 
Q 90.645027 177.215738 90.645027 179.965738 
L 90.645027 190.611675 
Q 90.645027 193.361675 93.395027 193.361675 
z
" clip-path="url(#pc20dcba661)" style="fill: #ffffff; stroke: #000000; stroke-width: 0.7; stroke-linejoin: miter"/>
    </g>
    <g clip-path="url(#pc20dcba661)">
     <!-- 2001 -->
     <g transform="translate(93.395027 188.324019)scale(0.11 -0.11)">
      <use xlink:href="#DejaVuSans-32"/>
      <use xlink:href="#DejaVuSans-30" x="63.623047"/>
      <use xlink:href="#DejaVuSans-30" x="127.246094"/>
      <use xlink:href="#DejaVuSans-31" x="190.869141"/>
     </g>
    </g>
   </g>
   <g id="text_13">
    <g id="patch_5">
     <path d="M 93.395027 193.361675 
L 121.390027 193.361675 
Q 124.140027 193.361675 124.140027 190.611675 
L 124.140027 179.965738 
Q 124.140027 177.215738 121.390027 177.215738 
L 93.395027 177.215738 
Q 90.645027 177.215738 90.645027 179.965738 
L 90.645027 190.611675 
Q 90.645027 193.361675 93.395027 193.361675 
z
" clip-path="url(#pc20dcba661)" style="fill: #ffffff; stroke: #000000; stroke-width: 0.7; stroke-linejoin: miter"/>
    </g>
    <g clip-path="url(#pc20dcba661)">
     <!-- 2001 -->
     <g transform="translate(93.395027 188.324019)scale(0.11 -0.11)">
      <use xlink:href="#DejaVuSans-32"/>
      <use xlink:href="#DejaVuSans-30" x="63.623047"/>
      <use xlink:href="#DejaVuSans-30" x="127.246094"/>
      <use xlink:href="#DejaVuSans-31" x="190.869141"/>
     </g>
    </g>
   </g>
   <g id="text_14">
    <g id="patch_6">
     <path d="M 93.395027 193.361675 
L 121.390027 193.361675 
Q 124.140027 193.361675 124.140027 190.611675 
L 124.140027 179.965738 
Q 124.140027 177.215738 121.390027 177.215738 
L 93.395027 177.215738 
Q 90.645027 177.215738 90.645027 179.965738 
L 90.645027 190.611675 
Q 90.645027 193.361675 93.395027 193.361675 
z
" clip-path="url(#pc20dcba661)" style="fill: #ffffff; stroke: #000000; stroke-width: 0.7; stroke-linejoin: miter"/>
    </g>
    <g clip-path="url(#pc20dcba661)">
     <!-- 2001 -->
     <g transform="translate(93.395027 188.324019)scale(0.11 -0.11)">
      <use xlink:href="#DejaVuSans-32"/>
      <use xlink:href="#DejaVuSans-30" x="63.623047"/>
      <use xlink:href="#DejaVuSans-30" x="127.246094"/>
      <use xlink:href="#DejaVuSans-31" x="190.869141"/>
     </g>
    </g>
   </g>
   <g id="text_15">
    <g id="patch_7">
     <path d="M 93.395027 193.361675 
L 121.390027 193.361675 
Q 124.140027 193.361675 124.140027 190.611675 
L 124.140027 179.965738 
Q 124.140027 177.215738 121.390027 177.215738 
L 93.395027 177.215738 
Q 90.645027 177.215738 90.645027 179.965738 
L 90.645027 190.611675 
Q 90.645027 193.361675 93.395027 193.361675 
z
" clip-path="url(#pc20dcba661)" style="fill: #ffffff; stroke: #000000; stroke-width: 0.7; stroke-linejoin: miter"/>
    </g>
    <g clip-path="url(#pc20dcba661)">
     <!-- 2001 -->
     <g transform="translate(93.395027 188.324019)scale(0.11 -0.11)">
      <use xlink:href="#DejaVuSans-32"/>
      <use xlink:href="#DejaVuSans-30" x="63.623047"/>
      <use xlink:href="#DejaVuSans-30" x="127.246094"/>
      <use xlink:href="#DejaVuSans-31" x="190.869141"/>
     </g>
    </g>
   </g>
   <g id="text_16">
    <g id="patch_8">
     <path d="M 93.395027 193.361675 
L 121.390027 193.361675 
Q 124.140027 193.361675 124.140027 190.611675 
L 124.140027 179.965738 
Q 124.140027 177.215738 121.390027 177.215738 
L 93.395027 177.215738 
Q 90.645027 177.215738 90.645027 179.965738 
L 90.645027 190.611675 
Q 90.645027 193.361675 93.395027 193.361675 
z
" clip-path="url(#pc20dcba661)" style="fill: #ffffff; stroke: #000000; stroke-width: 0.7; stroke-linejoin: miter"/>
    </g>
    <g clip-path="url(#pc20dcba661)">
     <!-- 2001 -->
     <g transform="translate(93.395027 188.324019)scale(0.11 -0.11)">
      <use xlink:href="#DejaVuSans-32"/>
      <use xlink:href="#DejaVuSans-30" x="63.623047"/>
      <use xlink:href="#DejaVuSans-30" x="127.246094"/>
      <use xlink:href="#DejaVuSans-31" x="190.869141"/>
     </g>
    </g>
   </g>
   <g id="text_17">
    <g id="patch_9">
     <path d="M 93.395027 193.361675 
L 121.390027 193.361675 
Q 124.140027 193.361675 124.140027 190.611675 
L 124.140027 179.965738 
Q 124.140027 177.215738 121.390027 177.215738 
L 93.395027 177.215738 
Q 90.645027 177.215738 90.645027 179.965738 
L 90.645027 190.611675 
Q 90.645027 193.361675 93.395027 193.361675 
z
" clip-path="url(#pc20dcba661)" style="fill: #ffffff; stroke: #000000; stroke-width: 0.7; stroke-linejoin: miter"/>
    </g>
    <g clip-path="url(#pc20dcba661)">
     <!-- 2001 -->
     <g transform="translate(93.395027 188.324019)scale(0.11 -0.11)">
      <use xlink:href="#DejaVuSans-32"/>
      <use xlink:href="#DejaVuSans-30" x="63.623047"/>
      <use xlink:href="#DejaVuSans-30" x="127.246094"/>
      <use xlink:href="#DejaVuSans-31" x="190.869141"/>
     </g>
    </g>
   </g>
   <g id="text_18">
    <g id="patch_10">
     <path d="M 93.395027 193.361675 
L 121.390027 193.361675 
Q 124.140027 193.361675 124.140027 190.611675 
L 124.140027 179.965738 
Q 124.140027 177.215738 121.390027 177.215738 
L 93.395027 177.215738 
Q 90.645027 177.215738 90.645027 179.965738 
L 90.645027 190.611675 
Q 90.645027 193.361675 93.395027 193.361675 
z
" clip-path="url(#pc20dcba661)" style="fill: #ffffff; stroke: #000000; stroke-width: 0.7; stroke-linejoin: miter"/>
    </g>
    <g clip-path="url(#pc20dcba661)">
     <!-- 2001 -->
     <g transform="translate(93.395027 188.324019)scale(0.11 -0.11)">
      <use xlink:href="#DejaVuSans-32"/>
      <use xlink:href="#DejaVuSans-30" x="63.623047"/>
      <use xlink:href="#DejaVuSans-30" x="127.246094"/>
      <use xlink:href="#DejaVuSans-31" x="190.869141"/>
     </g>
    </g>
   </g>
   <g id="text_19">
    <g id="patch_11">
     <path d="M 93.395027 193.361675 
L 121.390027 193.361675 
Q 124.140027 193.361675 124.140027 190.611675 
L 124.140027 179.965738 
Q 124.140027 177.215738 121.390027 177.215738 
L 93.395027 177.215738 
Q 90.645027 177.215738 90.645027 179.965738 
L 90.645027 190.611675 
Q 90.645027 193.361675 93.395027 193.361675 
z
" clip-path="url(#pc20dcba661)" style="fill: #ffffff; stroke: #000000; stroke-width: 0.7; stroke-linejoin: miter"/>
    </g>
    <g clip-path="url(#pc20dcba661)">
     <!-- 2001 -->
     <g transform="translate(93.395027 188.324019)scale(0.11 -0.11)">
      <use xlink:href="#DejaVuSans-32"/>
      <use xlink:href="#DejaVuSans-30" x="63.623047"/>
      <use xlink:href="#DejaVuSans-30" x="127.246094"/>
      <use xlink:href="#DejaVuSans-31" x="190.869141"/>
     </g>
    </g>
   </g>
   <g id="text_20">
    <g id="patch_12">
     <path d="M 93.395027 193.361675 
L 121.390027 193.361675 
Q 124.140027 193.361675 124.140027 190.611675 
L 124.140027 179.965738 
Q 124.140027 177.215738 121.390027 177.215738 
L 93.395027 177.215738 
Q 90.645027 177.215738 90.645027 179.965738 
L 90.645027 190.611675 
Q 90.645027 193.361675 93.395027 193.361675 
z
" clip-path="url(#pc20dcba661)" style="fill: #ffffff; stroke: #000000; stroke-width: 0.7; stroke-linejoin: miter"/>
    </g>
    <g clip-path="url(#pc20dcba661)">
     <!-- 2001 -->
     <g transform="translate(93.395027 188.324019)scale(0.11 -0.11)">
      <use xlink:href="#DejaVuSans-32"/>
      <use xlink:href="#DejaVuSans-30" x="63.623047"/>
      <use xlink:href="#DejaVuSans-30" x="127.246094"/>
      <use xlink:href="#DejaVuSans-31" x="190.869141"/>
     </g>
    </g>
   </g>
   <g id="text_21">
    <g id="patch_13">
     <path d="M 93.395027 193.361675 
L 121.390027 193.361675 
Q 124.140027 193.361675 124.140027 190.611675 
L 124.140027 179.965738 
Q 124.140027 177.215738 121.390027 177.215738 
L 93.395027 177.215738 
Q 90.645027 177.215738 90.645027 179.965738 
L 90.645027 190.611675 
Q 90.645027 193.361675 93.395027 193.361675 
z
" clip-path="url(#pc20dcba661)" style="fill: #ffffff; stroke: #000000; stroke-width: 0.7; stroke-linejoin: miter"/>
    </g>
    <g clip-path="url(#pc20dcba661)">
     <!-- 2001 -->
     <g transform="translate(93.395027 188.324019)scale(0.11 -0.11)">
      <use xlink:href="#DejaVuSans-32"/>
      <use xlink:href="#DejaVuSans-30" x="63.623047"/>
      <use xlink:href="#DejaVuSans-30" x="127.246094"/>
      <use xlink:href="#DejaVuSans-31" x="190.869141"/>
     </g>
    </g>
   </g>
   <g id="text_22">
    <g id="patch_14">
     <path d="M 93.395027 193.361675 
L 121.390027 193.361675 
Q 124.140027 193.361675 124.140027 190.611675 
L 124.140027 179.965738 
Q 124.140027 177.215738 121.390027 177.215738 
L 93.395027 177.215738 
Q 90.645027 177.215738 90.645027 179.965738 
L 90.645027 190.611675 
Q 90.645027 193.361675 93.395027 193.361675 
z
" clip-path="url(#pc20dcba661)" style="fill: #ffffff; stroke: #000000; stroke-width: 0.7; stroke-linejoin: miter"/>
    </g>
    <g clip-path="url(#pc20dcba661)">
     <!-- 2001 -->
     <g transform="translate(93.395027 188.324019)scale(0.11 -0.11)">
      <use xlink:href="#DejaVuSans-32"/>
      <use xlink:href="#DejaVuSans-30" x="63.623047"/>
      <use xlink:href="#DejaVuSans-30" x="127.246094"/>
      <use xlink:href="#DejaVuSans-31" x="190.869141"/>
     </g>
    </g>
   </g>
   <g id="text_23">
    <g id="patch_15">
     <path d="M 93.395027 193.361675 
L 121.390027 193.361675 
Q 124.140027 193.361675 124.140027 190.611675 
L 124.140027 179.965738 
Q 124.140027 177.215738 121.390027 177.215738 
L 93.395027 177.215738 
Q 90.645027 177.215738 90.645027 179.965738 
L 90.645027 190.611675 
Q 90.645027 193.361675 93.395027 193.361675 
z
" clip-path="url(#pc20dcba661)" style="fill: #ffffff; stroke: #000000; stroke-width: 0.7; stroke-linejoin: miter"/>
    </g>
    <g clip-path="url(#pc20dcba661)">
     <!-- 2001 -->
     <g transform="translate(93.395027 188.324019)scale(0.11 -0.11)">
      <use xlink:href="#DejaVuSans-32"/>
      <use xlink:href="#DejaVuSans-30" x="63.623047"/>
      <use xlink:href="#DejaVuSans-30" x="127.246094"/>
      <use xlink:href="#DejaVuSans-31" x="190.869141"/>
     </g>
    </g>
   </g>
   <g id="text_24">
    <g id="patch_16">
     <path d="M 93.395027 193.361675 
L 121.390027 193.361675 
Q 124.140027 193.361675 124.140027 190.611675 
L 124.140027 179.965738 
Q 124.140027 177.215738 121.390027 177.215738 
L 93.395027 177.215738 
Q 90.645027 177.215738 90.645027 179.965738 
L 90.645027 190.611675 
Q 90.645027 193.361675 93.395027 193.361675 
z
" clip-path="url(#pc20dcba661)" style="fill: #ffffff; stroke: #000000; stroke-width: 0.7; stroke-linejoin: miter"/>
    </g>
    <g clip-path="url(#pc20dcba661)">
     <!-- 2001 -->
     <g transform="translate(93.395027 188.324019)scale(0.11 -0.11)">
      <use xlink:href="#DejaVuSans-32"/>
      <use xlink:href="#DejaVuSans-30" x="63.623047"/>
      <use xlink:href="#DejaVuSans-30" x="127.246094"/>
      <use xlink:href="#DejaVuSans-31" x="190.869141"/>
     </g>
    </g>
   </g>
   <g id="text_25">
    <g id="patch_17">
     <path d="M 93.395027 193.361675 
L 121.390027 193.361675 
Q 124.140027 193.361675 124.140027 190.611675 
L 124.140027 179.965738 
Q 124.140027 177.215738 121.390027 177.215738 
L 93.395027 177.215738 
Q 90.645027 177.215738 90.645027 179.965738 
L 90.645027 190.611675 
Q 90.645027 193.361675 93.395027 193.361675 
z
" clip-path="url(#pc20dcba661)" style="fill: #ffffff; stroke: #000000; stroke-width: 0.7; stroke-linejoin: miter"/>
    </g>
    <g clip-path="url(#pc20dcba661)">
     <!-- 2001 -->
     <g transform="translate(93.395027 188.324019)scale(0.11 -0.11)">
      <use xlink:href="#DejaVuSans-32"/>
      <use xlink:href="#DejaVuSans-30" x="63.623047"/>
      <use xlink:href="#DejaVuSans-30" x="127.246094"/>
      <use xlink:href="#DejaVuSans-31" x="190.869141"/>
     </g>
    </g>
   </g>
   <g id="text_26">
    <g id="patch_18">
     <path d="M 93.395027 193.361675 
L 121.390027 193.361675 
Q 124.140027 193.361675 124.140027 190.611675 
L 124.140027 179.965738 
Q 124.140027 177.215738 121.390027 177.215738 
L 93.395027 177.215738 
Q 90.645027 177.215738 90.645027 179.965738 
L 90.645027 190.611675 
Q 90.645027 193.361675 93.395027 193.361675 
z
" clip-path="url(#pc20dcba661)" style="fill: #ffffff; stroke: #000000; stroke-width: 0.7; stroke-linejoin: miter"/>
    </g>
    <g clip-path="url(#pc20dcba661)">
     <!-- 2001 -->
     <g transform="translate(93.395027 188.324019)scale(0.11 -0.11)">
      <use xlink:href="#DejaVuSans-32"/>
      <use xlink:href="#DejaVuSans-30" x="63.623047"/>
      <use xlink:href="#DejaVuSans-30" x="127.246094"/>
      <use xlink:href="#DejaVuSans-31" x="190.869141"/>
     </g>
    </g>
   </g>
   <g id="text_27">
    <g id="patch_19">
     <path d="M 93.395027 193.361675 
L 121.390027 193.361675 
Q 124.140027 193.361675 124.140027 190.611675 
L 124.140027 179.965738 
Q 124.140027 177.215738 121.390027 177.215738 
L 93.395027 177.215738 
Q 90.645027 177.215738 90.645027 179.965738 
L 90.645027 190.611675 
Q 90.645027 193.361675 93.395027 193.361675 
z
" clip-path="url(#pc20dcba661)" style="fill: #ffffff; stroke: #000000; stroke-width: 0.7; stroke-linejoin: miter"/>
    </g>
    <g clip-path="url(#pc20dcba661)">
     <!-- 2001 -->
     <g transform="translate(93.395027 188.324019)scale(0.11 -0.11)">
      <use xlink:href="#DejaVuSans-32"/>
      <use xlink:href="#DejaVuSans-30" x="63.623047"/>
      <use xlink:href="#DejaVuSans-30" x="127.246094"/>
      <use xlink:href="#DejaVuSans-31" x="190.869141"/>
     </g>
    </g>
   </g>
   <g id="text_28">
    <g id="patch_20">
     <path d="M 93.395027 193.361675 
L 121.390027 193.361675 
Q 124.140027 193.361675 124.140027 190.611675 
L 124.140027 179.965738 
Q 124.140027 177.215738 121.390027 177.215738 
L 93.395027 177.215738 
Q 90.645027 177.215738 90.645027 179.965738 
L 90.645027 190.611675 
Q 90.645027 193.361675 93.395027 193.361675 
z
" clip-path="url(#pc20dcba661)" style="fill: #ffffff; stroke: #000000; stroke-width: 0.7; stroke-linejoin: miter"/>
    </g>
    <g clip-path="url(#pc20dcba661)">
     <!-- 2001 -->
     <g transform="translate(93.395027 188.324019)scale(0.11 -0.11)">
      <use xlink:href="#DejaVuSans-32"/>
      <use xlink:href="#DejaVuSans-30" x="63.623047"/>
      <use xlink:href="#DejaVuSans-30" x="127.246094"/>
      <use xlink:href="#DejaVuSans-31" x="190.869141"/>
     </g>
    </g>
   </g>
   <g id="text_29">
    <g id="patch_21">
     <path d="M 93.395027 193.361675 
L 121.390027 193.361675 
Q 124.140027 193.361675 124.140027 190.611675 
L 124.140027 179.965738 
Q 124.140027 177.215738 121.390027 177.215738 
L 93.395027 177.215738 
Q 90.645027 177.215738 90.645027 179.965738 
L 90.645027 190.611675 
Q 90.645027 193.361675 93.395027 193.361675 
z
" clip-path="url(#pc20dcba661)" style="fill: #ffffff; stroke: #000000; stroke-width: 0.7; stroke-linejoin: miter"/>
    </g>
    <g clip-path="url(#pc20dcba661)">
     <!-- 2001 -->
     <g transform="translate(93.395027 188.324019)scale(0.11 -0.11)">
      <use xlink:href="#DejaVuSans-32"/>
      <use xlink:href="#DejaVuSans-30" x="63.623047"/>
      <use xlink:href="#DejaVuSans-30" x="127.246094"/>
      <use xlink:href="#DejaVuSans-31" x="190.869141"/>
     </g>
    </g>
   </g>
   <g id="text_30">
    <g id="patch_22">
     <path d="M 93.395027 193.361675 
L 121.390027 193.361675 
Q 124.140027 193.361675 124.140027 190.611675 
L 124.140027 179.965738 
Q 124.140027 177.215738 121.390027 177.215738 
L 93.395027 177.215738 
Q 90.645027 177.215738 90.645027 179.965738 
L 90.645027 190.611675 
Q 90.645027 193.361675 93.395027 193.361675 
z
" clip-path="url(#pc20dcba661)" style="fill: #ffffff; stroke: #000000; stroke-width: 0.7; stroke-linejoin: miter"/>
    </g>
    <g clip-path="url(#pc20dcba661)">
     <!-- 2001 -->
     <g transform="translate(93.395027 188.324019)scale(0.11 -0.11)">
      <use xlink:href="#DejaVuSans-32"/>
      <use xlink:href="#DejaVuSans-30" x="63.623047"/>
      <use xlink:href="#DejaVuSans-30" x="127.246094"/>
      <use xlink:href="#DejaVuSans-31" x="190.869141"/>
     </g>
    </g>
   </g>
   <g id="text_31">
    <g id="patch_23">
     <path d="M 93.395027 193.361675 
L 121.390027 193.361675 
Q 124.140027 193.361675 124.140027 190.611675 
L 124.140027 179.965738 
Q 124.140027 177.215738 121.390027 177.215738 
L 93.395027 177.215738 
Q 90.645027 177.215738 90.645027 179.965738 
L 90.645027 190.611675 
Q 90.645027 193.361675 93.395027 193.361675 
z
" clip-path="url(#pc20dcba661)" style="fill: #ffffff; stroke: #000000; stroke-width: 0.7; stroke-linejoin: miter"/>
    </g>
    <g clip-path="url(#pc20dcba661)">
     <!-- 2001 -->
     <g transform="translate(93.395027 188.324019)scale(0.11 -0.11)">
      <use xlink:href="#DejaVuSans-32"/>
      <use xlink:href="#DejaVuSans-30" x="63.623047"/>
      <use xlink:href="#DejaVuSans-30" x="127.246094"/>
      <use xlink:href="#DejaVuSans-31" x="190.869141"/>
     </g>
    </g>
   </g>
   <g id="text_32">
    <g id="patch_24">
     <path d="M 184.134148 27.368969 
L 212.129148 27.368969 
Q 214.879148 27.368969 214.879148 24.618969 
L 214.879148 13.973031 
Q 214.879148 11.223031 212.129148 11.223031 
L 184.134148 11.223031 
Q 181.384148 11.223031 181.384148 13.973031 
L 181.384148 24.618969 
Q 181.384148 27.368969 184.134148 27.368969 
z
" clip-path="url(#pc20dcba661)" style="fill: #ffffff; stroke: #000000; stroke-width: 0.7; stroke-linejoin: miter"/>
    </g>
    <g clip-path="url(#pc20dcba661)">
     <!-- 2021 -->
     <g transform="translate(184.134148 22.331312)scale(0.11 -0.11)">
      <use xlink:href="#DejaVuSans-32"/>
      <use xlink:href="#DejaVuSans-30" x="63.623047"/>
      <use xlink:href="#DejaVuSans-32" x="127.246094"/>
      <use xlink:href="#DejaVuSans-31" x="190.869141"/>
     </g>
    </g>
   </g>
   <g id="text_33">
    <g id="patch_25">
     <path d="M 184.134148 27.368969 
L 212.129148 27.368969 
Q 214.879148 27.368969 214.879148 24.618969 
L 214.879148 13.973031 
Q 214.879148 11.223031 212.129148 11.223031 
L 184.134148 11.223031 
Q 181.384148 11.223031 181.384148 13.973031 
L 181.384148 24.618969 
Q 181.384148 27.368969 184.134148 27.368969 
z
" clip-path="url(#pc20dcba661)" style="fill: #ffffff; stroke: #000000; stroke-width: 0.7; stroke-linejoin: miter"/>
    </g>
    <g clip-path="url(#pc20dcba661)">
     <!-- 2021 -->
     <g transform="translate(184.134148 22.331312)scale(0.11 -0.11)">
      <use xlink:href="#DejaVuSans-32"/>
      <use xlink:href="#DejaVuSans-30" x="63.623047"/>
      <use xlink:href="#DejaVuSans-32" x="127.246094"/>
      <use xlink:href="#DejaVuSans-31" x="190.869141"/>
     </g>
    </g>
   </g>
   <g id="text_34">
    <g id="patch_26">
     <path d="M 184.134148 27.368969 
L 212.129148 27.368969 
Q 214.879148 27.368969 214.879148 24.618969 
L 214.879148 13.973031 
Q 214.879148 11.223031 212.129148 11.223031 
L 184.134148 11.223031 
Q 181.384148 11.223031 181.384148 13.973031 
L 181.384148 24.618969 
Q 181.384148 27.368969 184.134148 27.368969 
z
" clip-path="url(#pc20dcba661)" style="fill: #ffffff; stroke: #000000; stroke-width: 0.7; stroke-linejoin: miter"/>
    </g>
    <g clip-path="url(#pc20dcba661)">
     <!-- 2021 -->
     <g transform="translate(184.134148 22.331312)scale(0.11 -0.11)">
      <use xlink:href="#DejaVuSans-32"/>
      <use xlink:href="#DejaVuSans-30" x="63.623047"/>
      <use xlink:href="#DejaVuSans-32" x="127.246094"/>
      <use xlink:href="#DejaVuSans-31" x="190.869141"/>
     </g>
    </g>
   </g>
   <g id="text_35">
    <g id="patch_27">
     <path d="M 184.134148 27.368969 
L 212.129148 27.368969 
Q 214.879148 27.368969 214.879148 24.618969 
L 214.879148 13.973031 
Q 214.879148 11.223031 212.129148 11.223031 
L 184.134148 11.223031 
Q 181.384148 11.223031 181.384148 13.973031 
L 181.384148 24.618969 
Q 181.384148 27.368969 184.134148 27.368969 
z
" clip-path="url(#pc20dcba661)" style="fill: #ffffff; stroke: #000000; stroke-width: 0.7; stroke-linejoin: miter"/>
    </g>
    <g clip-path="url(#pc20dcba661)">
     <!-- 2021 -->
     <g transform="translate(184.134148 22.331312)scale(0.11 -0.11)">
      <use xlink:href="#DejaVuSans-32"/>
      <use xlink:href="#DejaVuSans-30" x="63.623047"/>
      <use xlink:href="#DejaVuSans-32" x="127.246094"/>
      <use xlink:href="#DejaVuSans-31" x="190.869141"/>
     </g>
    </g>
   </g>
   <g id="text_36">
    <g id="patch_28">
     <path d="M 184.134148 27.368969 
L 212.129148 27.368969 
Q 214.879148 27.368969 214.879148 24.618969 
L 214.879148 13.973031 
Q 214.879148 11.223031 212.129148 11.223031 
L 184.134148 11.223031 
Q 181.384148 11.223031 181.384148 13.973031 
L 181.384148 24.618969 
Q 181.384148 27.368969 184.134148 27.368969 
z
" clip-path="url(#pc20dcba661)" style="fill: #ffffff; stroke: #000000; stroke-width: 0.7; stroke-linejoin: miter"/>
    </g>
    <g clip-path="url(#pc20dcba661)">
     <!-- 2021 -->
     <g transform="translate(184.134148 22.331312)scale(0.11 -0.11)">
      <use xlink:href="#DejaVuSans-32"/>
      <use xlink:href="#DejaVuSans-30" x="63.623047"/>
      <use xlink:href="#DejaVuSans-32" x="127.246094"/>
      <use xlink:href="#DejaVuSans-31" x="190.869141"/>
     </g>
    </g>
   </g>
   <g id="text_37">
    <g id="patch_29">
     <path d="M 184.134148 27.368969 
L 212.129148 27.368969 
Q 214.879148 27.368969 214.879148 24.618969 
L 214.879148 13.973031 
Q 214.879148 11.223031 212.129148 11.223031 
L 184.134148 11.223031 
Q 181.384148 11.223031 181.384148 13.973031 
L 181.384148 24.618969 
Q 181.384148 27.368969 184.134148 27.368969 
z
" clip-path="url(#pc20dcba661)" style="fill: #ffffff; stroke: #000000; stroke-width: 0.7; stroke-linejoin: miter"/>
    </g>
    <g clip-path="url(#pc20dcba661)">
     <!-- 2021 -->
     <g transform="translate(184.134148 22.331312)scale(0.11 -0.11)">
      <use xlink:href="#DejaVuSans-32"/>
      <use xlink:href="#DejaVuSans-30" x="63.623047"/>
      <use xlink:href="#DejaVuSans-32" x="127.246094"/>
      <use xlink:href="#DejaVuSans-31" x="190.869141"/>
     </g>
    </g>
   </g>
   <g id="text_38">
    <g id="patch_30">
     <path d="M 184.134148 27.368969 
L 212.129148 27.368969 
Q 214.879148 27.368969 214.879148 24.618969 
L 214.879148 13.973031 
Q 214.879148 11.223031 212.129148 11.223031 
L 184.134148 11.223031 
Q 181.384148 11.223031 181.384148 13.973031 
L 181.384148 24.618969 
Q 181.384148 27.368969 184.134148 27.368969 
z
" clip-path="url(#pc20dcba661)" style="fill: #ffffff; stroke: #000000; stroke-width: 0.7; stroke-linejoin: miter"/>
    </g>
    <g clip-path="url(#pc20dcba661)">
     <!-- 2021 -->
     <g transform="translate(184.134148 22.331312)scale(0.11 -0.11)">
      <use xlink:href="#DejaVuSans-32"/>
      <use xlink:href="#DejaVuSans-30" x="63.623047"/>
      <use xlink:href="#DejaVuSans-32" x="127.246094"/>
      <use xlink:href="#DejaVuSans-31" x="190.869141"/>
     </g>
    </g>
   </g>
   <g id="text_39">
    <g id="patch_31">
     <path d="M 184.134148 27.368969 
L 212.129148 27.368969 
Q 214.879148 27.368969 214.879148 24.618969 
L 214.879148 13.973031 
Q 214.879148 11.223031 212.129148 11.223031 
L 184.134148 11.223031 
Q 181.384148 11.223031 181.384148 13.973031 
L 181.384148 24.618969 
Q 181.384148 27.368969 184.134148 27.368969 
z
" clip-path="url(#pc20dcba661)" style="fill: #ffffff; stroke: #000000; stroke-width: 0.7; stroke-linejoin: miter"/>
    </g>
    <g clip-path="url(#pc20dcba661)">
     <!-- 2021 -->
     <g transform="translate(184.134148 22.331312)scale(0.11 -0.11)">
      <use xlink:href="#DejaVuSans-32"/>
      <use xlink:href="#DejaVuSans-30" x="63.623047"/>
      <use xlink:href="#DejaVuSans-32" x="127.246094"/>
      <use xlink:href="#DejaVuSans-31" x="190.869141"/>
     </g>
    </g>
   </g>
   <g id="text_40">
    <g id="patch_32">
     <path d="M 184.134148 27.368969 
L 212.129148 27.368969 
Q 214.879148 27.368969 214.879148 24.618969 
L 214.879148 13.973031 
Q 214.879148 11.223031 212.129148 11.223031 
L 184.134148 11.223031 
Q 181.384148 11.223031 181.384148 13.973031 
L 181.384148 24.618969 
Q 181.384148 27.368969 184.134148 27.368969 
z
" clip-path="url(#pc20dcba661)" style="fill: #ffffff; stroke: #000000; stroke-width: 0.7; stroke-linejoin: miter"/>
    </g>
    <g clip-path="url(#pc20dcba661)">
     <!-- 2021 -->
     <g transform="translate(184.134148 22.331312)scale(0.11 -0.11)">
      <use xlink:href="#DejaVuSans-32"/>
      <use xlink:href="#DejaVuSans-30" x="63.623047"/>
      <use xlink:href="#DejaVuSans-32" x="127.246094"/>
      <use xlink:href="#DejaVuSans-31" x="190.869141"/>
     </g>
    </g>
   </g>
   <g id="text_41">
    <g id="patch_33">
     <path d="M 184.134148 27.368969 
L 212.129148 27.368969 
Q 214.879148 27.368969 214.879148 24.618969 
L 214.879148 13.973031 
Q 214.879148 11.223031 212.129148 11.223031 
L 184.134148 11.223031 
Q 181.384148 11.223031 181.384148 13.973031 
L 181.384148 24.618969 
Q 181.384148 27.368969 184.134148 27.368969 
z
" clip-path="url(#pc20dcba661)" style="fill: #ffffff; stroke: #000000; stroke-width: 0.7; stroke-linejoin: miter"/>
    </g>
    <g clip-path="url(#pc20dcba661)">
     <!-- 2021 -->
     <g transform="translate(184.134148 22.331312)scale(0.11 -0.11)">
      <use xlink:href="#DejaVuSans-32"/>
      <use xlink:href="#DejaVuSans-30" x="63.623047"/>
      <use xlink:href="#DejaVuSans-32" x="127.246094"/>
      <use xlink:href="#DejaVuSans-31" x="190.869141"/>
     </g>
    </g>
   </g>
   <g id="text_42">
    <g id="patch_34">
     <path d="M 184.134148 27.368969 
L 212.129148 27.368969 
Q 214.879148 27.368969 214.879148 24.618969 
L 214.879148 13.973031 
Q 214.879148 11.223031 212.129148 11.223031 
L 184.134148 11.223031 
Q 181.384148 11.223031 181.384148 13.973031 
L 181.384148 24.618969 
Q 181.384148 27.368969 184.134148 27.368969 
z
" clip-path="url(#pc20dcba661)" style="fill: #ffffff; stroke: #000000; stroke-width: 0.7; stroke-linejoin: miter"/>
    </g>
    <g clip-path="url(#pc20dcba661)">
     <!-- 2021 -->
     <g transform="translate(184.134148 22.331312)scale(0.11 -0.11)">
      <use xlink:href="#DejaVuSans-32"/>
      <use xlink:href="#DejaVuSans-30" x="63.623047"/>
      <use xlink:href="#DejaVuSans-32" x="127.246094"/>
      <use xlink:href="#DejaVuSans-31" x="190.869141"/>
     </g>
    </g>
   </g>
   <g id="text_43">
    <g id="patch_35">
     <path d="M 184.134148 27.368969 
L 212.129148 27.368969 
Q 214.879148 27.368969 214.879148 24.618969 
L 214.879148 13.973031 
Q 214.879148 11.223031 212.129148 11.223031 
L 184.134148 11.223031 
Q 181.384148 11.223031 181.384148 13.973031 
L 181.384148 24.618969 
Q 181.384148 27.368969 184.134148 27.368969 
z
" clip-path="url(#pc20dcba661)" style="fill: #ffffff; stroke: #000000; stroke-width: 0.7; stroke-linejoin: miter"/>
    </g>
    <g clip-path="url(#pc20dcba661)">
     <!-- 2021 -->
     <g transform="translate(184.134148 22.331312)scale(0.11 -0.11)">
      <use xlink:href="#DejaVuSans-32"/>
      <use xlink:href="#DejaVuSans-30" x="63.623047"/>
      <use xlink:href="#DejaVuSans-32" x="127.246094"/>
      <use xlink:href="#DejaVuSans-31" x="190.869141"/>
     </g>
    </g>
   </g>
   <g id="text_44">
    <g id="patch_36">
     <path d="M 184.134148 27.368969 
L 212.129148 27.368969 
Q 214.879148 27.368969 214.879148 24.618969 
L 214.879148 13.973031 
Q 214.879148 11.223031 212.129148 11.223031 
L 184.134148 11.223031 
Q 181.384148 11.223031 181.384148 13.973031 
L 181.384148 24.618969 
Q 181.384148 27.368969 184.134148 27.368969 
z
" clip-path="url(#pc20dcba661)" style="fill: #ffffff; stroke: #000000; stroke-width: 0.7; stroke-linejoin: miter"/>
    </g>
    <g clip-path="url(#pc20dcba661)">
     <!-- 2021 -->
     <g transform="translate(184.134148 22.331312)scale(0.11 -0.11)">
      <use xlink:href="#DejaVuSans-32"/>
      <use xlink:href="#DejaVuSans-30" x="63.623047"/>
      <use xlink:href="#DejaVuSans-32" x="127.246094"/>
      <use xlink:href="#DejaVuSans-31" x="190.869141"/>
     </g>
    </g>
   </g>
   <g id="text_45">
    <g id="patch_37">
     <path d="M 184.134148 27.368969 
L 212.129148 27.368969 
Q 214.879148 27.368969 214.879148 24.618969 
L 214.879148 13.973031 
Q 214.879148 11.223031 212.129148 11.223031 
L 184.134148 11.223031 
Q 181.384148 11.223031 181.384148 13.973031 
L 181.384148 24.618969 
Q 181.384148 27.368969 184.134148 27.368969 
z
" clip-path="url(#pc20dcba661)" style="fill: #ffffff; stroke: #000000; stroke-width: 0.7; stroke-linejoin: miter"/>
    </g>
    <g clip-path="url(#pc20dcba661)">
     <!-- 2021 -->
     <g transform="translate(184.134148 22.331312)scale(0.11 -0.11)">
      <use xlink:href="#DejaVuSans-32"/>
      <use xlink:href="#DejaVuSans-30" x="63.623047"/>
      <use xlink:href="#DejaVuSans-32" x="127.246094"/>
      <use xlink:href="#DejaVuSans-31" x="190.869141"/>
     </g>
    </g>
   </g>
   <g id="text_46">
    <g id="patch_38">
     <path d="M 184.134148 27.368969 
L 212.129148 27.368969 
Q 214.879148 27.368969 214.879148 24.618969 
L 214.879148 13.973031 
Q 214.879148 11.223031 212.129148 11.223031 
L 184.134148 11.223031 
Q 181.384148 11.223031 181.384148 13.973031 
L 181.384148 24.618969 
Q 181.384148 27.368969 184.134148 27.368969 
z
" clip-path="url(#pc20dcba661)" style="fill: #ffffff; stroke: #000000; stroke-width: 0.7; stroke-linejoin: miter"/>
    </g>
    <g clip-path="url(#pc20dcba661)">
     <!-- 2021 -->
     <g transform="translate(184.134148 22.331312)scale(0.11 -0.11)">
      <use xlink:href="#DejaVuSans-32"/>
      <use xlink:href="#DejaVuSans-30" x="63.623047"/>
      <use xlink:href="#DejaVuSans-32" x="127.246094"/>
      <use xlink:href="#DejaVuSans-31" x="190.869141"/>
     </g>
    </g>
   </g>
   <g id="text_47">
    <g id="patch_39">
     <path d="M 184.134148 27.368969 
L 212.129148 27.368969 
Q 214.879148 27.368969 214.879148 24.618969 
L 214.879148 13.973031 
Q 214.879148 11.223031 212.129148 11.223031 
L 184.134148 11.223031 
Q 181.384148 11.223031 181.384148 13.973031 
L 181.384148 24.618969 
Q 181.384148 27.368969 184.134148 27.368969 
z
" clip-path="url(#pc20dcba661)" style="fill: #ffffff; stroke: #000000; stroke-width: 0.7; stroke-linejoin: miter"/>
    </g>
    <g clip-path="url(#pc20dcba661)">
     <!-- 2021 -->
     <g transform="translate(184.134148 22.331312)scale(0.11 -0.11)">
      <use xlink:href="#DejaVuSans-32"/>
      <use xlink:href="#DejaVuSans-30" x="63.623047"/>
      <use xlink:href="#DejaVuSans-32" x="127.246094"/>
      <use xlink:href="#DejaVuSans-31" x="190.869141"/>
     </g>
    </g>
   </g>
   <g id="text_48">
    <g id="patch_40">
     <path d="M 184.134148 27.368969 
L 212.129148 27.368969 
Q 214.879148 27.368969 214.879148 24.618969 
L 214.879148 13.973031 
Q 214.879148 11.223031 212.129148 11.223031 
L 184.134148 11.223031 
Q 181.384148 11.223031 181.384148 13.973031 
L 181.384148 24.618969 
Q 181.384148 27.368969 184.134148 27.368969 
z
" clip-path="url(#pc20dcba661)" style="fill: #ffffff; stroke: #000000; stroke-width: 0.7; stroke-linejoin: miter"/>
    </g>
    <g clip-path="url(#pc20dcba661)">
     <!-- 2021 -->
     <g transform="translate(184.134148 22.331312)scale(0.11 -0.11)">
      <use xlink:href="#DejaVuSans-32"/>
      <use xlink:href="#DejaVuSans-30" x="63.623047"/>
      <use xlink:href="#DejaVuSans-32" x="127.246094"/>
      <use xlink:href="#DejaVuSans-31" x="190.869141"/>
     </g>
    </g>
   </g>
   <g id="text_49">
    <g id="patch_41">
     <path d="M 184.134148 27.368969 
L 212.129148 27.368969 
Q 214.879148 27.368969 214.879148 24.618969 
L 214.879148 13.973031 
Q 214.879148 11.223031 212.129148 11.223031 
L 184.134148 11.223031 
Q 181.384148 11.223031 181.384148 13.973031 
L 181.384148 24.618969 
Q 181.384148 27.368969 184.134148 27.368969 
z
" clip-path="url(#pc20dcba661)" style="fill: #ffffff; stroke: #000000; stroke-width: 0.7; stroke-linejoin: miter"/>
    </g>
    <g clip-path="url(#pc20dcba661)">
     <!-- 2021 -->
     <g transform="translate(184.134148 22.331312)scale(0.11 -0.11)">
      <use xlink:href="#DejaVuSans-32"/>
      <use xlink:href="#DejaVuSans-30" x="63.623047"/>
      <use xlink:href="#DejaVuSans-32" x="127.246094"/>
      <use xlink:href="#DejaVuSans-31" x="190.869141"/>
     </g>
    </g>
   </g>
   <g id="text_50">
    <g id="patch_42">
     <path d="M 184.134148 27.368969 
L 212.129148 27.368969 
Q 214.879148 27.368969 214.879148 24.618969 
L 214.879148 13.973031 
Q 214.879148 11.223031 212.129148 11.223031 
L 184.134148 11.223031 
Q 181.384148 11.223031 181.384148 13.973031 
L 181.384148 24.618969 
Q 181.384148 27.368969 184.134148 27.368969 
z
" clip-path="url(#pc20dcba661)" style="fill: #ffffff; stroke: #000000; stroke-width: 0.7; stroke-linejoin: miter"/>
    </g>
    <g clip-path="url(#pc20dcba661)">
     <!-- 2021 -->
     <g transform="translate(184.134148 22.331312)scale(0.11 -0.11)">
      <use xlink:href="#DejaVuSans-32"/>
      <use xlink:href="#DejaVuSans-30" x="63.623047"/>
      <use xlink:href="#DejaVuSans-32" x="127.246094"/>
      <use xlink:href="#DejaVuSans-31" x="190.869141"/>
     </g>
    </g>
   </g>
   <g id="text_51">
    <g id="patch_43">
     <path d="M 184.134148 27.368969 
L 212.129148 27.368969 
Q 214.879148 27.368969 214.879148 24.618969 
L 214.879148 13.973031 
Q 214.879148 11.223031 212.129148 11.223031 
L 184.134148 11.223031 
Q 181.384148 11.223031 181.384148 13.973031 
L 181.384148 24.618969 
Q 181.384148 27.368969 184.134148 27.368969 
z
" clip-path="url(#pc20dcba661)" style="fill: #ffffff; stroke: #000000; stroke-width: 0.7; stroke-linejoin: miter"/>
    </g>
    <g clip-path="url(#pc20dcba661)">
     <!-- 2021 -->
     <g transform="translate(184.134148 22.331312)scale(0.11 -0.11)">
      <use xlink:href="#DejaVuSans-32"/>
      <use xlink:href="#DejaVuSans-30" x="63.623047"/>
      <use xlink:href="#DejaVuSans-32" x="127.246094"/>
      <use xlink:href="#DejaVuSans-31" x="190.869141"/>
     </g>
    </g>
   </g>
   <g id="text_52">
    <g id="patch_44">
     <path d="M 184.134148 27.368969 
L 212.129148 27.368969 
Q 214.879148 27.368969 214.879148 24.618969 
L 214.879148 13.973031 
Q 214.879148 11.223031 212.129148 11.223031 
L 184.134148 11.223031 
Q 181.384148 11.223031 181.384148 13.973031 
L 181.384148 24.618969 
Q 181.384148 27.368969 184.134148 27.368969 
z
" clip-path="url(#pc20dcba661)" style="fill: #ffffff; stroke: #000000; stroke-width: 0.7; stroke-linejoin: miter"/>
    </g>
    <g clip-path="url(#pc20dcba661)">
     <!-- 2021 -->
     <g transform="translate(184.134148 22.331312)scale(0.11 -0.11)">
      <use xlink:href="#DejaVuSans-32"/>
      <use xlink:href="#DejaVuSans-30" x="63.623047"/>
      <use xlink:href="#DejaVuSans-32" x="127.246094"/>
      <use xlink:href="#DejaVuSans-31" x="190.869141"/>
     </g>
    </g>
   </g>
  </g>
 </g>
 <defs>
  <clipPath id="pc20dcba661">
   <rect x="32.794938" y="7.2" width="357.12" height="266.112"/>
  </clipPath>
 </defs>
</svg>
