<?xml version="1.0" encoding="utf-8" standalone="no"?>
<!DOCTYPE svg PUBLIC "-//W3C//DTD SVG 1.1//EN"
  "http://www.w3.org/Graphics/SVG/1.1/DTD/svg11.dtd">
<svg xmlns:xlink="http://www.w3.org/1999/xlink" width="325.312pt" height="319.312pt" viewBox="0 0 325.312 319.312" xmlns="http://www.w3.org/2000/svg" version="1.1">
 <metadata>
  <rdf:RDF xmlns:dc="http://purl.org/dc/elements/1.1/" xmlns:cc="http://creativecommons.org/ns#" xmlns:rdf="http://www.w3.org/1999/02/22-rdf-syntax-ns#">
   <cc:Work>
    <dc:type rdf:resource="http://purl.org/dc/dcmitype/StillImage"/>
    <dc:date>2022-09-16T17:00:37.340679</dc:date>
    <dc:format>image/svg+xml</dc:format>
    <dc:creator>
     <cc:Agent>
      <dc:title>Matplotlib v3.5.3, https://matplotlib.org/</dc:title>
     </cc:Agent>
    </dc:creator>
   </cc:Work>
  </rdf:RDF>
 </metadata>
 <defs>
  <style type="text/css">*{stroke-linejoin: round; stroke-linecap: butt}</style>
 </defs>
 <g id="figure_1">
  <g id="patch_1">
   <path d="M 0 319.312 
L 325.312 319.312 
L 325.312 0 
L 0 0 
z
" style="fill: #ffffff"/>
  </g>
  <g id="axes_1">
   <g id="patch_2">
    <path d="M 298.712 159.656 
C 298.712 142.183246 295.270248 124.880393 288.583715 108.737673 
C 281.897182 92.594954 272.095903 77.926303 259.7408 65.5712 
C 247.385697 53.216097 232.717046 43.414818 216.574327 36.728285 
C 200.431607 30.041752 183.128754 26.6 165.656 26.6 
C 148.183246 26.6 130.880393 30.041752 114.737673 36.728285 
C 98.594954 43.414818 83.926303 53.216097 71.5712 65.5712 
C 59.216097 77.926303 49.414818 92.594954 42.728285 108.737673 
C 36.041752 124.880393 32.6 142.183246 32.6 159.656 
C 32.6 177.128754 36.041752 194.431607 42.728285 210.574327 
C 49.414818 226.717046 59.216097 241.385697 71.5712 253.7408 
C 83.926303 266.095903 98.594954 275.897182 114.737673 282.583715 
C 130.880393 289.270248 148.183246 292.712 165.656 292.712 
C 183.128754 292.712 200.431607 289.270248 216.574327 282.583715 
C 232.717046 275.897182 247.385697 266.095903 259.7408 253.7408 
C 272.095903 241.385697 281.897182 226.717046 288.583715 210.574327 
C 295.270248 194.431607 298.712 177.128754 298.712 159.656 
M 165.656 159.656 
C 165.656 159.656 165.656 159.656 165.656 159.656 
C 165.656 159.656 165.656 159.656 165.656 159.656 
C 165.656 159.656 165.656 159.656 165.656 159.656 
C 165.656 159.656 165.656 159.656 165.656 159.656 
C 165.656 159.656 165.656 159.656 165.656 159.656 
C 165.656 159.656 165.656 159.656 165.656 159.656 
C 165.656 159.656 165.656 159.656 165.656 159.656 
C 165.656 159.656 165.656 159.656 165.656 159.656 
C 165.656 159.656 165.656 159.656 165.656 159.656 
C 165.656 159.656 165.656 159.656 165.656 159.656 
C 165.656 159.656 165.656 159.656 165.656 159.656 
C 165.656 159.656 165.656 159.656 165.656 159.656 
C 165.656 159.656 165.656 159.656 165.656 159.656 
C 165.656 159.656 165.656 159.656 165.656 159.656 
C 165.656 159.656 165.656 159.656 165.656 159.656 
C 165.656 159.656 165.656 159.656 165.656 159.656 
M 298.712 159.656 
z
" style="fill: #ffffff"/>
   </g>
   <g id="matplotlib.axis_1">
    <g id="xtick_1">
     <g id="line2d_1">
      <path d="M 165.656 159.656 
L 298.712 159.656 
" clip-path="url(#pb9dbba376b)" style="fill: none; stroke: #b1afb5; stroke-width: 0.8; stroke-linecap: square"/>
     </g>
     <g id="text_1">
      <!-- 0° -->
      <g style="fill: #323034" transform="translate(307.312 162.451625)scale(0.12 -0.12)">
       <defs>
        <path id="STIXGeneral-Regular-30" d="M 3046 2112 
Q 3046 1683 2963 1302 
Q 2880 922 2717 602 
Q 2554 282 2266 96 
Q 1978 -90 1600 -90 
Q 1210 -90 915 108 
Q 621 307 461 640 
Q 301 973 227 1350 
Q 154 1728 154 2150 
Q 154 2746 301 3222 
Q 448 3699 790 4012 
Q 1133 4326 1626 4326 
Q 2253 4326 2649 3712 
Q 3046 3098 3046 2112 
z
M 2432 2080 
Q 2432 3091 2217 3625 
Q 2003 4160 1587 4160 
Q 1190 4160 979 3622 
Q 768 3085 768 2106 
Q 768 1120 979 598 
Q 1190 77 1600 77 
Q 2003 77 2217 598 
Q 2432 1120 2432 2080 
z
" transform="scale(0.015625)"/>
        <path id="STIXGeneral-Regular-b0" d="M 2195 3411 
Q 2195 3027 1929 2761 
Q 1664 2496 1280 2496 
Q 890 2496 627 2761 
Q 365 3027 365 3418 
Q 365 3802 633 4064 
Q 902 4326 1293 4326 
Q 1664 4326 1929 4057 
Q 2195 3789 2195 3411 
z
M 1946 3418 
Q 1946 3699 1744 3904 
Q 1542 4109 1267 4109 
Q 1005 4109 809 3901 
Q 614 3693 614 3411 
Q 614 3123 809 2918 
Q 1005 2714 1280 2714 
Q 1555 2714 1750 2922 
Q 1946 3130 1946 3418 
z
" transform="scale(0.015625)"/>
       </defs>
       <use xlink:href="#STIXGeneral-Regular-30"/>
       <use xlink:href="#STIXGeneral-Regular-b0" x="49.999985"/>
      </g>
     </g>
    </g>
    <g id="xtick_2">
     <g id="line2d_2">
      <path d="M 165.656 159.656 
L 259.7408 65.5712 
" clip-path="url(#pb9dbba376b)" style="fill: none; stroke: #b1afb5; stroke-width: 0.8; stroke-linecap: square"/>
     </g>
     <g id="text_2">
      <!-- 45° -->
      <g style="fill: #323034" transform="translate(261.240295 58.46733)scale(0.12 -0.12)">
       <defs>
        <path id="STIXGeneral-Regular-34" d="M 3027 1069 
L 2368 1069 
L 2368 0 
L 1869 0 
L 1869 1069 
L 77 1069 
L 77 1478 
L 2086 4326 
L 2368 4326 
L 2368 1478 
L 3027 1478 
L 3027 1069 
z
M 1869 1478 
L 1869 3674 
L 333 1478 
L 1869 1478 
z
" transform="scale(0.015625)"/>
        <path id="STIXGeneral-Regular-35" d="M 2803 4358 
L 2573 3814 
Q 2534 3731 2400 3731 
L 1158 3731 
L 902 3187 
Q 1606 3053 1920 2896 
Q 2234 2739 2502 2368 
Q 2726 2061 2726 1555 
Q 2726 1094 2576 780 
Q 2426 467 2099 224 
Q 1664 -90 1011 -90 
Q 646 -90 422 19 
Q 198 128 198 307 
Q 198 550 486 550 
Q 717 550 960 352 
Q 1210 147 1414 147 
Q 1747 147 2012 480 
Q 2278 813 2278 1229 
Q 2278 1843 1850 2189 
Q 1293 2637 486 2637 
Q 410 2637 410 2688 
L 416 2720 
L 1114 4237 
L 2438 4237 
Q 2547 4237 2608 4269 
Q 2669 4301 2746 4403 
L 2803 4358 
z
" transform="scale(0.015625)"/>
       </defs>
       <use xlink:href="#STIXGeneral-Regular-34"/>
       <use xlink:href="#STIXGeneral-Regular-35" x="49.999985"/>
       <use xlink:href="#STIXGeneral-Regular-b0" x="99.999969"/>
      </g>
     </g>
    </g>
    <g id="xtick_3">
     <g id="line2d_3">
      <path d="M 165.656 159.656 
L 165.656 26.6 
" clip-path="url(#pb9dbba376b)" style="fill: none; stroke: #b1afb5; stroke-width: 0.8; stroke-linecap: square"/>
     </g>
     <g id="text_3">
      <!-- 90° -->
      <g style="fill: #323034" transform="translate(157.256 15.395625)scale(0.12 -0.12)">
       <defs>
        <path id="STIXGeneral-Regular-39" d="M 378 -141 
L 358 -13 
Q 1094 115 1603 608 
Q 2112 1101 2304 1882 
Q 1933 1517 1344 1517 
Q 826 1517 509 1875 
Q 192 2234 192 2816 
Q 192 3462 573 3894 
Q 954 4326 1523 4326 
Q 2131 4326 2528 3840 
Q 2938 3328 2938 2522 
Q 2938 1958 2742 1462 
Q 2547 966 2170 621 
Q 1773 262 1395 105 
Q 1018 -51 378 -141 
z
M 2317 2272 
L 2317 2522 
Q 2317 4147 1472 4147 
Q 1171 4147 1005 3930 
Q 909 3802 845 3546 
Q 781 3290 781 3034 
Q 781 2464 995 2128 
Q 1210 1792 1568 1792 
Q 1824 1792 2070 1917 
Q 2317 2042 2317 2272 
z
" transform="scale(0.015625)"/>
       </defs>
       <use xlink:href="#STIXGeneral-Regular-39"/>
       <use xlink:href="#STIXGeneral-Regular-30" x="49.999985"/>
       <use xlink:href="#STIXGeneral-Regular-b0" x="99.999969"/>
      </g>
     </g>
    </g>
    <g id="xtick_4">
     <g id="line2d_4">
      <path d="M 165.656 159.656 
L 71.5712 65.5712 
" clip-path="url(#pb9dbba376b)" style="fill: none; stroke: #b1afb5; stroke-width: 0.8; stroke-linecap: square"/>
     </g>
     <g id="text_4">
      <!-- 135° -->
      <g style="fill: #323034" transform="translate(50.271705 58.46733)scale(0.12 -0.12)">
       <defs>
        <path id="STIXGeneral-Regular-31" d="M 2522 0 
L 755 0 
L 755 96 
Q 1107 115 1235 227 
Q 1363 339 1363 608 
L 1363 3482 
Q 1363 3795 1171 3795 
Q 1082 3795 883 3718 
L 710 3654 
L 710 3744 
L 1856 4326 
L 1914 4307 
L 1914 486 
Q 1914 275 2042 185 
Q 2170 96 2522 96 
L 2522 0 
z
" transform="scale(0.015625)"/>
        <path id="STIXGeneral-Regular-33" d="M 390 3264 
L 288 3290 
Q 435 3770 748 4048 
Q 1062 4326 1542 4326 
Q 1990 4326 2265 4083 
Q 2541 3840 2541 3450 
Q 2541 2925 1946 2566 
Q 2298 2413 2477 2227 
Q 2758 1914 2758 1402 
Q 2758 890 2464 506 
Q 2246 211 1840 60 
Q 1434 -90 979 -90 
Q 262 -90 262 275 
Q 262 378 339 442 
Q 416 506 525 506 
Q 685 506 915 339 
Q 1197 141 1466 141 
Q 1818 141 2058 425 
Q 2298 710 2298 1120 
Q 2298 1856 1632 2048 
Q 1434 2112 979 2112 
L 979 2202 
Q 1338 2323 1517 2432 
Q 2035 2726 2035 3290 
Q 2035 3610 1852 3776 
Q 1670 3942 1344 3942 
Q 768 3942 390 3264 
z
" transform="scale(0.015625)"/>
       </defs>
       <use xlink:href="#STIXGeneral-Regular-31"/>
       <use xlink:href="#STIXGeneral-Regular-33" x="49.999985"/>
       <use xlink:href="#STIXGeneral-Regular-35" x="99.999969"/>
       <use xlink:href="#STIXGeneral-Regular-b0" x="149.999954"/>
      </g>
     </g>
    </g>
    <g id="xtick_5">
     <g id="line2d_5">
      <path d="M 165.656 159.656 
L 32.6 159.656 
" clip-path="url(#pb9dbba376b)" style="fill: none; stroke: #b1afb5; stroke-width: 0.8; stroke-linecap: square"/>
     </g>
     <g id="text_5">
      <!-- 180° -->
      <g style="fill: #323034" transform="translate(7.2 162.451625)scale(0.12 -0.12)">
       <defs>
        <path id="STIXGeneral-Regular-38" d="M 2848 992 
Q 2848 499 2505 204 
Q 2163 -90 1587 -90 
Q 1050 -90 704 204 
Q 358 499 358 954 
Q 358 1293 524 1533 
Q 691 1773 1190 2125 
Q 710 2522 553 2765 
Q 397 3008 397 3328 
Q 397 3782 745 4054 
Q 1094 4326 1638 4326 
Q 2106 4326 2410 4060 
Q 2714 3795 2714 3411 
Q 2714 3059 2531 2848 
Q 2349 2637 1856 2374 
Q 2432 1990 2640 1689 
Q 2848 1389 2848 992 
z
M 2272 3411 
Q 2272 3744 2086 3945 
Q 1901 4147 1574 4147 
Q 1248 4147 1059 3977 
Q 870 3808 870 3513 
Q 870 3219 1059 2979 
Q 1248 2739 1670 2490 
Q 1997 2682 2134 2896 
Q 2272 3110 2272 3411 
z
M 1734 1741 
L 1357 1997 
Q 1075 1766 960 1545 
Q 845 1325 845 1011 
Q 845 576 1065 333 
Q 1286 90 1658 90 
Q 1971 90 2166 285 
Q 2362 480 2362 794 
Q 2362 1082 2214 1299 
Q 2067 1517 1734 1741 
z
" transform="scale(0.015625)"/>
       </defs>
       <use xlink:href="#STIXGeneral-Regular-31"/>
       <use xlink:href="#STIXGeneral-Regular-38" x="49.999985"/>
       <use xlink:href="#STIXGeneral-Regular-30" x="99.999969"/>
       <use xlink:href="#STIXGeneral-Regular-b0" x="149.999954"/>
      </g>
     </g>
    </g>
    <g id="xtick_6">
     <g id="line2d_6">
      <path d="M 165.656 159.656 
L 71.5712 253.7408 
" clip-path="url(#pb9dbba376b)" style="fill: none; stroke: #b1afb5; stroke-width: 0.8; stroke-linecap: square"/>
     </g>
     <g id="text_6">
      <!-- 225° -->
      <g style="fill: #323034" transform="translate(50.271705 266.43592)scale(0.12 -0.12)">
       <defs>
        <path id="STIXGeneral-Regular-32" d="M 3034 877 
L 2688 0 
L 186 0 
L 186 77 
L 1325 1286 
Q 1773 1754 1965 2144 
Q 2157 2534 2157 2950 
Q 2157 3379 1920 3616 
Q 1683 3853 1267 3853 
Q 922 3853 720 3673 
Q 518 3494 326 3021 
L 192 3053 
Q 301 3648 630 3987 
Q 960 4326 1523 4326 
Q 2054 4326 2380 4006 
Q 2707 3686 2707 3200 
Q 2707 2477 1888 1613 
L 832 486 
L 2330 486 
Q 2541 486 2665 569 
Q 2790 653 2944 915 
L 3034 877 
z
" transform="scale(0.015625)"/>
       </defs>
       <use xlink:href="#STIXGeneral-Regular-32"/>
       <use xlink:href="#STIXGeneral-Regular-32" x="49.999985"/>
       <use xlink:href="#STIXGeneral-Regular-35" x="99.999969"/>
       <use xlink:href="#STIXGeneral-Regular-b0" x="149.999954"/>
      </g>
     </g>
    </g>
    <g id="xtick_7">
     <g id="line2d_7">
      <path d="M 165.656 159.656 
L 165.656 292.712 
" clip-path="url(#pb9dbba376b)" style="fill: none; stroke: #b1afb5; stroke-width: 0.8; stroke-linecap: square"/>
     </g>
     <g id="text_7">
      <!-- 270° -->
      <g style="fill: #323034" transform="translate(154.256 309.507625)scale(0.12 -0.12)">
       <defs>
        <path id="STIXGeneral-Regular-37" d="M 2874 4134 
L 1517 -51 
L 1101 -51 
L 2368 3763 
L 992 3763 
Q 717 3763 582 3667 
Q 448 3571 243 3238 
L 128 3296 
L 512 4237 
L 2874 4237 
L 2874 4134 
z
" transform="scale(0.015625)"/>
       </defs>
       <use xlink:href="#STIXGeneral-Regular-32"/>
       <use xlink:href="#STIXGeneral-Regular-37" x="49.999985"/>
       <use xlink:href="#STIXGeneral-Regular-30" x="99.999969"/>
       <use xlink:href="#STIXGeneral-Regular-b0" x="149.999954"/>
      </g>
     </g>
    </g>
    <g id="xtick_8">
     <g id="line2d_8">
      <path d="M 165.656 159.656 
L 259.7408 253.7408 
" clip-path="url(#pb9dbba376b)" style="fill: none; stroke: #b1afb5; stroke-width: 0.8; stroke-linecap: square"/>
     </g>
     <g id="text_8">
      <!-- 315° -->
      <g style="fill: #323034" transform="translate(258.240295 266.43592)scale(0.12 -0.12)">
       <use xlink:href="#STIXGeneral-Regular-33"/>
       <use xlink:href="#STIXGeneral-Regular-31" x="49.999985"/>
       <use xlink:href="#STIXGeneral-Regular-35" x="99.999969"/>
       <use xlink:href="#STIXGeneral-Regular-b0" x="149.999954"/>
      </g>
     </g>
    </g>
   </g>
   <g id="matplotlib.axis_2">
    <g id="ytick_1">
     <g id="line2d_9">
      <path d="M 198.92 159.656 
C 198.92 155.287812 198.059562 150.962098 196.387929 146.926418 
C 194.716295 142.890738 192.265976 139.223576 189.1772 136.1348 
C 186.088424 133.046024 182.421262 130.595705 178.385582 128.924071 
C 174.349902 127.252438 170.024188 126.392 165.656 126.392 
C 161.287812 126.392 156.962098 127.252438 152.926418 128.924071 
C 148.890738 130.595705 145.223576 133.046024 142.1348 136.1348 
C 139.046024 139.223576 136.595705 142.890738 134.924071 146.926418 
C 133.252438 150.962098 132.392 155.287812 132.392 159.656 
C 132.392 164.024188 133.252438 168.349902 134.924071 172.385582 
C 136.595705 176.421262 139.046024 180.088424 142.1348 183.1772 
C 145.223576 186.265976 148.890738 188.716295 152.926418 190.387929 
C 156.962098 192.059562 161.287812 192.92 165.656 192.92 
C 170.024188 192.92 174.349902 192.059562 178.385582 190.387929 
C 182.421262 188.716295 186.088424 186.265976 189.1772 183.1772 
C 192.265976 180.088424 194.716295 176.421262 196.387929 172.385582 
C 198.059562 168.349902 198.92 164.024188 198.92 159.656 
" clip-path="url(#pb9dbba376b)" style="fill: none; stroke: #b1afb5; stroke-width: 0.8; stroke-linecap: square"/>
     </g>
     <g id="text_9">
      <!-- $\mathdefault{0.5}$ -->
      <g style="fill: #323034" transform="translate(196.387929 169.781207)scale(0.12 -0.12)">
       <defs>
        <path id="STIXGeneral-Regular-2e" d="M 1158 275 
Q 1158 134 1052 32 
Q 947 -70 800 -70 
Q 653 -70 550 32 
Q 448 134 448 281 
Q 448 429 553 534 
Q 659 640 806 640 
Q 947 640 1052 531 
Q 1158 422 1158 275 
z
" transform="scale(0.015625)"/>
       </defs>
       <use xlink:href="#STIXGeneral-Regular-30" transform="translate(0 0.203125)"/>
       <use xlink:href="#STIXGeneral-Regular-2e" transform="translate(49.999985 0.203125)"/>
       <use xlink:href="#STIXGeneral-Regular-35" transform="translate(74.999969 0.203125)"/>
      </g>
     </g>
    </g>
    <g id="ytick_2">
     <g id="line2d_10">
      <path d="M 232.184 159.656 
C 232.184 150.919623 230.463124 142.268196 227.119858 134.196837 
C 223.776591 126.125477 218.875951 118.791151 212.6984 112.6136 
C 206.520849 106.436049 199.186523 101.535409 191.115163 98.192142 
C 183.043804 94.848876 174.392377 93.128 165.656 93.128 
C 156.919623 93.128 148.268196 94.848876 140.196837 98.192142 
C 132.125477 101.535409 124.791151 106.436049 118.6136 112.6136 
C 112.436049 118.791151 107.535409 126.125477 104.192142 134.196837 
C 100.848876 142.268196 99.128 150.919623 99.128 159.656 
C 99.128 168.392377 100.848876 177.043804 104.192142 185.115163 
C 107.535409 193.186523 112.436049 200.520849 118.6136 206.6984 
C 124.791151 212.875951 132.125477 217.776591 140.196837 221.119858 
C 148.268196 224.463124 156.919623 226.184 165.656 226.184 
C 174.392377 226.184 183.043804 224.463124 191.115163 221.119858 
C 199.186523 217.776591 206.520849 212.875951 212.6984 206.6984 
C 218.875951 200.520849 223.776591 193.186523 227.119858 185.115163 
C 230.463124 177.043804 232.184 168.392377 232.184 159.656 
" clip-path="url(#pb9dbba376b)" style="fill: none; stroke: #b1afb5; stroke-width: 0.8; stroke-linecap: square"/>
     </g>
     <g id="text_10">
      <!-- $\mathdefault{1.0}$ -->
      <g style="fill: #323034" transform="translate(227.119858 182.510788)scale(0.12 -0.12)">
       <use xlink:href="#STIXGeneral-Regular-31" transform="translate(0 0.40625)"/>
       <use xlink:href="#STIXGeneral-Regular-2e" transform="translate(49.999985 0.40625)"/>
       <use xlink:href="#STIXGeneral-Regular-30" transform="translate(74.999969 0.40625)"/>
      </g>
     </g>
    </g>
    <g id="ytick_3">
     <g id="line2d_11">
      <path d="M 265.448 159.656 
C 265.448 146.551435 262.866686 133.574295 257.851786 121.467255 
C 252.836886 109.360215 245.485927 98.358727 236.2196 89.0924 
C 226.953273 79.826073 215.951785 72.475114 203.844745 67.460214 
C 191.737705 62.445314 178.760565 59.864 165.656 59.864 
C 152.551435 59.864 139.574295 62.445314 127.467255 67.460214 
C 115.360215 72.475114 104.358727 79.826073 95.0924 89.0924 
C 85.826073 98.358727 78.475114 109.360215 73.460214 121.467255 
C 68.445314 133.574295 65.864 146.551435 65.864 159.656 
C 65.864 172.760565 68.445314 185.737705 73.460214 197.844745 
C 78.475114 209.951785 85.826073 220.953273 95.0924 230.2196 
C 104.358727 239.485927 115.360215 246.836886 127.467255 251.851786 
C 139.574295 256.866686 152.551435 259.448 165.656 259.448 
C 178.760565 259.448 191.737705 256.866686 203.844745 251.851786 
C 215.951785 246.836886 226.953273 239.485927 236.2196 230.2196 
C 245.485927 220.953273 252.836886 209.951785 257.851786 197.844745 
C 262.866686 185.737705 265.448 172.760565 265.448 159.656 
" clip-path="url(#pb9dbba376b)" style="fill: none; stroke: #b1afb5; stroke-width: 0.8; stroke-linecap: square"/>
     </g>
     <g id="text_11">
      <!-- $\mathdefault{1.5}$ -->
      <g style="fill: #323034" transform="translate(257.851786 195.24037)scale(0.12 -0.12)">
       <use xlink:href="#STIXGeneral-Regular-31" transform="translate(0 0.203125)"/>
       <use xlink:href="#STIXGeneral-Regular-2e" transform="translate(49.999985 0.203125)"/>
       <use xlink:href="#STIXGeneral-Regular-35" transform="translate(74.999969 0.203125)"/>
      </g>
     </g>
    </g>
    <g id="ytick_4">
     <g id="line2d_12">
      <path d="M 298.712 159.656 
C 298.712 142.183246 295.270248 124.880393 288.583715 108.737673 
C 281.897182 92.594954 272.095903 77.926303 259.7408 65.5712 
C 247.385697 53.216097 232.717046 43.414818 216.574327 36.728285 
C 200.431607 30.041752 183.128754 26.6 165.656 26.6 
C 148.183246 26.6 130.880393 30.041752 114.737673 36.728285 
C 98.594954 43.414818 83.926303 53.216097 71.5712 65.5712 
C 59.216097 77.926303 49.414818 92.594954 42.728285 108.737673 
C 36.041752 124.880393 32.6 142.183246 32.6 159.656 
C 32.6 177.128754 36.041752 194.431607 42.728285 210.574327 
C 49.414818 226.717046 59.216097 241.385697 71.5712 253.7408 
C 83.926303 266.095903 98.594954 275.897182 114.737673 282.583715 
C 130.880393 289.270248 148.183246 292.712 165.656 292.712 
C 183.128754 292.712 200.431607 289.270248 216.574327 282.583715 
C 232.717046 275.897182 247.385697 266.095903 259.7408 253.7408 
C 272.095903 241.385697 281.897182 226.717046 288.583715 210.574327 
C 295.270248 194.431607 298.712 177.128754 298.712 159.656 
" clip-path="url(#pb9dbba376b)" style="fill: none; stroke: #b1afb5; stroke-width: 0.8; stroke-linecap: square"/>
     </g>
     <g id="text_12">
      <!-- $\mathdefault{2.0}$ -->
      <g style="fill: #323034" transform="translate(288.583715 207.969952)scale(0.12 -0.12)">
       <use xlink:href="#STIXGeneral-Regular-32" transform="translate(0 0.40625)"/>
       <use xlink:href="#STIXGeneral-Regular-2e" transform="translate(49.999985 0.40625)"/>
       <use xlink:href="#STIXGeneral-Regular-30" transform="translate(74.999969 0.40625)"/>
      </g>
     </g>
    </g>
   </g>
   <g id="line2d_13">
    <path d="M 165.656 159.656 
L 166.976068 159.489237 
L 168.233516 158.994206 
L 169.36737 158.186565 
L 170.319914 157.091991 
L 171.038228 155.745582 
L 171.475619 154.191014 
L 171.592916 152.479501 
L 171.359598 150.668568 
L 170.754724 148.82066 
L 169.767657 147.001622 
L 168.398543 145.279087 
L 166.658559 143.720787 
L 164.569895 142.392852 
L 162.165491 141.35811 
L 159.488515 140.674434 
L 158.063917 140.480587 
L 156.591602 140.393173 
L 155.079464 140.417353 
L 153.535855 140.557708 
L 151.969538 140.818201 
L 150.389644 141.202146 
L 148.805627 141.712175 
L 147.227207 142.350211 
L 145.664325 143.117448 
L 144.127087 144.014329 
L 142.625706 145.040531 
L 141.170449 146.194954 
L 139.771576 147.475715 
L 138.439285 148.88014 
L 137.18365 150.404773 
L 136.014566 152.045373 
L 134.941685 153.796931 
L 133.974365 155.653679 
L 133.121606 157.609109 
L 132.392 159.656 
L 131.793672 161.786437 
L 131.334228 163.991848 
L 131.020709 166.263035 
L 130.859534 168.590214 
L 130.856462 170.963055 
L 131.016545 173.370731 
L 131.34409 175.801959 
L 131.84262 178.245063 
L 132.514846 180.688016 
L 133.36263 183.118506 
L 134.38697 185.523991 
L 135.587969 187.891761 
L 136.964824 190.209 
L 138.515812 192.462851 
L 140.238285 194.640484 
L 142.12866 196.729156 
L 144.182427 198.716284 
L 146.394154 200.589507 
L 148.757493 202.336757 
L 151.265202 203.946322 
L 153.909163 205.406909 
L 156.680405 206.707716 
L 159.569136 207.838487 
L 162.564778 208.789574 
L 165.656 209.552 
L 168.830769 210.117509 
L 172.07639 210.478623 
L 175.379561 210.628693 
L 178.726424 210.561941 
L 182.102626 210.27351 
L 185.493378 209.759498 
L 188.883521 209.016994 
L 192.25759 208.044113 
L 195.599887 206.840017 
L 198.894551 205.40494 
L 202.125627 203.740206 
L 205.277148 201.848238 
L 208.333206 199.732564 
L 211.278027 197.397823 
L 214.096054 194.84976 
L 216.772018 192.095211 
L 219.291016 189.1421 
L 221.638591 185.999408 
L 223.8008 182.677155 
L 225.764294 179.186368 
L 227.516385 175.539047 
L 229.045118 171.748121 
L 230.339339 167.827406 
L 231.388755 163.791554 
L 232.184 159.656 
L 232.716689 155.436899 
L 232.979475 151.151067 
L 232.966094 146.815913 
L 232.671417 142.449366 
L 232.091482 138.069803 
L 231.22354 133.695974 
L 230.066078 129.346918 
L 228.618845 125.041883 
L 226.882879 120.800241 
L 224.860511 116.641405 
L 222.555383 112.584737 
L 219.972444 108.649464 
L 217.117951 104.854588 
L 213.999459 101.218796 
L 210.625804 97.760375 
L 207.007083 94.49712 
L 203.154627 91.446251 
L 199.080969 88.624326 
L 194.799802 86.047158 
L 190.325939 83.729735 
L 185.675257 81.68614 
L 180.864647 79.92948 
L 175.911948 78.47181 
L 170.835886 77.324064 
L 165.656 76.496 
L 160.392567 75.99613 
L 155.066525 75.831673 
L 149.699387 76.008504 
L 144.313155 76.531108 
L 138.930233 77.402546 
L 133.573327 78.624417 
L 128.265357 80.196839 
L 123.029356 82.118422 
L 117.88837 84.386259 
L 112.865361 86.995918 
L 107.983101 89.941441 
L 103.264077 93.21535 
L 98.730382 96.808661 
L 94.40362 100.710905 
L 90.304804 104.910152 
L 86.454258 109.393046 
L 82.871518 114.144846 
L 79.575242 119.14947 
L 76.583115 124.38955 
L 73.911763 129.84649 
L 71.576665 135.500532 
L 69.592079 141.330827 
L 67.970958 147.315509 
L 66.724884 153.431782 
L 65.864 159.656 
L 65.396949 165.963765 
L 65.330822 172.330017 
L 65.671102 178.729139 
L 66.421633 185.135055 
L 67.584574 191.521338 
L 69.160375 197.861321 
L 71.147755 204.128204 
L 73.543689 210.295171 
L 76.343397 216.335501 
L 79.540348 222.222684 
L 83.126265 227.930535 
L 87.091144 233.433311 
L 91.423274 238.705824 
L 96.109269 243.723556 
L 101.134108 248.462766 
L 106.481175 252.900604 
L 112.132319 257.015214 
L 118.067909 260.785841 
L 124.266902 264.192927 
L 130.70692 267.218209 
L 137.364322 269.84481 
L 144.214301 272.057323 
L 151.230967 273.841894 
L 158.38745 275.186297 
L 165.656 276.08 
L 173.008097 276.514231 
L 180.41456 276.48203 
L 187.845665 275.978299 
L 195.271265 274.999842 
L 202.660909 273.545398 
L 209.983968 271.615668 
L 217.209765 269.213328 
L 224.307698 266.343043 
L 231.247372 263.011465 
L 237.998728 259.227223 
L 244.53217 255.000911 
L 250.818698 250.345062 
L 256.830031 245.274114 
L 262.538732 239.804367 
L 267.918337 233.953937 
L 272.943466 227.742696 
L 277.589947 221.192208 
L 281.834925 214.325652 
L 285.65697 207.167745 
L 289.036181 199.744651 
L 291.954285 192.083888 
L 294.394724 184.214225 
L 296.342746 176.165575 
L 297.785477 167.968882 
L 297.785477 167.968882 
" clip-path="url(#pb9dbba376b)" style="fill: none; stroke: #bc80bd; stroke-width: 2; stroke-linecap: square"/>
   </g>
   <g id="patch_3">
    <path d="M 298.712 159.656 
C 298.712 142.183246 295.270248 124.880393 288.583715 108.737673 
C 281.897182 92.594954 272.095903 77.926303 259.7408 65.5712 
C 247.385697 53.216097 232.717046 43.414818 216.574327 36.728285 
C 200.431607 30.041752 183.128754 26.6 165.656 26.6 
C 148.183246 26.6 130.880393 30.041752 114.737673 36.728285 
C 98.594954 43.414818 83.926303 53.216097 71.5712 65.5712 
C 59.216097 77.926303 49.414818 92.594954 42.728285 108.737673 
C 36.041752 124.880393 32.6 142.183246 32.6 159.656 
C 32.6 177.128754 36.041752 194.431607 42.728285 210.574327 
C 49.414818 226.717046 59.216097 241.385697 71.5712 253.7408 
C 83.926303 266.095903 98.594954 275.897182 114.737673 282.583715 
C 130.880393 289.270248 148.183246 292.712 165.656 292.712 
C 183.128754 292.712 200.431607 289.270248 216.574327 282.583715 
C 232.717046 275.897182 247.385697 266.095903 259.7408 253.7408 
C 272.095903 241.385697 281.897182 226.717046 288.583715 210.574327 
C 295.270248 194.431607 298.712 177.128754 298.712 159.656 
" style="fill: none; stroke: #000000; stroke-width: 0.6; stroke-linejoin: miter; stroke-linecap: square"/>
   </g>
  </g>
 </g>
 <defs>
  <clipPath id="pb9dbba376b">
   <path d="M 298.712 159.656 
C 298.712 142.183246 295.270248 124.880393 288.583715 108.737673 
C 281.897182 92.594954 272.095903 77.926303 259.7408 65.5712 
C 247.385697 53.216097 232.717046 43.414818 216.574327 36.728285 
C 200.431607 30.041752 183.128754 26.6 165.656 26.6 
C 148.183246 26.6 130.880393 30.041752 114.737673 36.728285 
C 98.594954 43.414818 83.926303 53.216097 71.5712 65.5712 
C 59.216097 77.926303 49.414818 92.594954 42.728285 108.737673 
C 36.041752 124.880393 32.6 142.183246 32.6 159.656 
C 32.6 177.128754 36.041752 194.431607 42.728285 210.574327 
C 49.414818 226.717046 59.216097 241.385697 71.5712 253.7408 
C 83.926303 266.095903 98.594954 275.897182 114.737673 282.583715 
C 130.880393 289.270248 148.183246 292.712 165.656 292.712 
C 183.128754 292.712 200.431607 289.270248 216.574327 282.583715 
C 232.717046 275.897182 247.385697 266.095903 259.7408 253.7408 
C 272.095903 241.385697 281.897182 226.717046 288.583715 210.574327 
C 295.270248 194.431607 298.712 177.128754 298.712 159.656 
M 165.656 159.656 
C 165.656 159.656 165.656 159.656 165.656 159.656 
C 165.656 159.656 165.656 159.656 165.656 159.656 
C 165.656 159.656 165.656 159.656 165.656 159.656 
C 165.656 159.656 165.656 159.656 165.656 159.656 
C 165.656 159.656 165.656 159.656 165.656 159.656 
C 165.656 159.656 165.656 159.656 165.656 159.656 
C 165.656 159.656 165.656 159.656 165.656 159.656 
C 165.656 159.656 165.656 159.656 165.656 159.656 
C 165.656 159.656 165.656 159.656 165.656 159.656 
C 165.656 159.656 165.656 159.656 165.656 159.656 
C 165.656 159.656 165.656 159.656 165.656 159.656 
C 165.656 159.656 165.656 159.656 165.656 159.656 
C 165.656 159.656 165.656 159.656 165.656 159.656 
C 165.656 159.656 165.656 159.656 165.656 159.656 
C 165.656 159.656 165.656 159.656 165.656 159.656 
C 165.656 159.656 165.656 159.656 165.656 159.656 
M 298.712 159.656 
z
"/>
  </clipPath>
 </defs>
</svg>
