<?xml version="1.0" encoding="utf-8" standalone="no"?>
<!DOCTYPE svg PUBLIC "-//W3C//DTD SVG 1.1//EN"
  "http://www.w3.org/Graphics/SVG/1.1/DTD/svg11.dtd">
<svg height="258.627311pt" version="1.1" viewBox="0 0 257.726941 258.627311" width="257.726941pt" xmlns="http://www.w3.org/2000/svg" xmlns:xlink="http://www.w3.org/1999/xlink">
 <metadata>
  <rdf:RDF xmlns:cc="http://creativecommons.org/ns#" xmlns:dc="http://purl.org/dc/elements/1.1/" xmlns:rdf="http://www.w3.org/1999/02/22-rdf-syntax-ns#">
   <cc:Work>
    <dc:type rdf:resource="http://purl.org/dc/dcmitype/StillImage"/>
    <dc:date>2022-08-20T18:02:05.354015</dc:date>
    <dc:format>image/svg+xml</dc:format>
    <dc:creator>
     <cc:Agent>
      <dc:title>Matplotlib v3.4.3, https://matplotlib.org/</dc:title>
     </cc:Agent>
    </dc:creator>
   </cc:Work>
  </rdf:RDF>
 </metadata>
 <defs>
  <style type="text/css">*{stroke-linecap:butt;stroke-linejoin:round;}</style>
 </defs>
 <g id="figure_1">
  <g id="patch_1">
   <path d="M 0 258.627311 
L 257.726941 258.627311 
L 257.726941 0 
L 0 0 
z
" style="fill:none;"/>
  </g>
  <g id="axes_1">
   <g id="patch_2">
    <path d="M 225.864753 129.313656 
C 225.864753 115.036676 223.052499 100.898522 217.588936 87.708313 
C 212.125372 74.518104 204.116751 62.532356 194.021402 52.437006 
C 183.926053 42.341657 171.940305 34.333036 158.750096 28.869473 
C 145.559887 23.405909 131.421733 20.593656 117.144753 20.593656 
C 102.867773 20.593656 88.72962 23.405909 75.53941 28.869473 
C 62.349201 34.333036 50.363453 42.341657 40.268104 52.437006 
C 30.172755 62.532356 22.164134 74.518104 16.70057 87.708313 
C 11.237007 100.898522 8.424753 115.036676 8.424753 129.313656 
C 8.424753 143.590635 11.237007 157.728789 16.70057 170.918998 
C 22.164134 184.109208 30.172755 196.094956 40.268104 206.190305 
C 50.363453 216.285654 62.349201 224.294275 75.53941 229.757838 
C 88.72962 235.221402 102.867773 238.033656 117.144753 238.033656 
C 131.421733 238.033656 145.559887 235.221402 158.750096 229.757838 
C 171.940305 224.294275 183.926053 216.285654 194.021402 206.190305 
C 204.116751 196.094956 212.125372 184.109208 217.588936 170.918998 
C 223.052499 157.728789 225.864753 143.590635 225.864753 129.313656 
M 117.144753 129.313656 
C 117.144753 129.313656 117.144753 129.313656 117.144753 129.313656 
C 117.144753 129.313656 117.144753 129.313656 117.144753 129.313656 
C 117.144753 129.313656 117.144753 129.313656 117.144753 129.313656 
C 117.144753 129.313656 117.144753 129.313656 117.144753 129.313656 
C 117.144753 129.313656 117.144753 129.313656 117.144753 129.313656 
C 117.144753 129.313656 117.144753 129.313656 117.144753 129.313656 
C 117.144753 129.313656 117.144753 129.313656 117.144753 129.313656 
C 117.144753 129.313656 117.144753 129.313656 117.144753 129.313656 
C 117.144753 129.313656 117.144753 129.313656 117.144753 129.313656 
C 117.144753 129.313656 117.144753 129.313656 117.144753 129.313656 
C 117.144753 129.313656 117.144753 129.313656 117.144753 129.313656 
C 117.144753 129.313656 117.144753 129.313656 117.144753 129.313656 
C 117.144753 129.313656 117.144753 129.313656 117.144753 129.313656 
C 117.144753 129.313656 117.144753 129.313656 117.144753 129.313656 
C 117.144753 129.313656 117.144753 129.313656 117.144753 129.313656 
C 117.144753 129.313656 117.144753 129.313656 117.144753 129.313656 
M 225.864753 129.313656 
z
" style="fill:#ffffff;"/>
   </g>
   <g id="patch_3">
    <path clip-path="url(#p80d13c192f)" d="M 186.000753 129.313656 
L 126.103774 101.740625 
L 61.439079 88.841114 
L 114.212875 131.443789 
L 146.26157 218.926005 
z
" style="fill:#0000ff;opacity:0.1;stroke:#000000;stroke-linejoin:miter;stroke-width:0.8;"/>
   </g>
   <g id="matplotlib.axis_1">
    <g id="xtick_1">
     <g id="line2d_1">
      <path clip-path="url(#p80d13c192f)" d="M 117.144753 129.313656 
L 225.864753 129.313656 
" style="fill:none;stroke:#b1afb5;stroke-linecap:square;stroke-width:0.8;"/>
     </g>
     <g id="text_1">
      <!-- var1 -->
      <g style="fill:#323034;" transform="translate(229.202566 132.109281)scale(0.12 -0.12)">
       <defs>
        <path d="M 3053 2880 
L 3053 2784 
Q 2906 2771 2835 2688 
Q 2765 2605 2637 2285 
L 1818 230 
Q 1690 -90 1638 -90 
Q 1587 -90 1523 77 
Q 1510 96 1497 141 
Q 1485 186 1472 211 
L 704 2048 
Q 499 2534 403 2652 
Q 307 2771 122 2784 
L 122 2880 
L 1376 2880 
L 1376 2784 
Q 1210 2771 1146 2732 
Q 1082 2694 1082 2611 
Q 1082 2509 1139 2368 
L 1792 730 
L 2426 2387 
Q 2464 2483 2464 2579 
Q 2464 2758 2163 2784 
L 2163 2880 
L 3053 2880 
z
" id="STIXGeneral-Regular-76" transform="scale(0.015625)"/>
        <path d="M 2829 422 
L 2829 243 
Q 2586 -64 2253 -64 
Q 1888 -64 1843 403 
L 1837 403 
Q 1427 -64 909 -64 
Q 608 -64 422 112 
Q 237 288 237 602 
Q 237 1050 685 1350 
Q 992 1555 1837 1869 
L 1837 2214 
Q 1837 2502 1699 2646 
Q 1562 2790 1338 2790 
Q 1146 2790 1018 2697 
Q 890 2605 890 2477 
Q 890 2419 909 2348 
Q 928 2278 928 2208 
Q 928 2112 841 2029 
Q 755 1946 634 1946 
Q 525 1946 441 2029 
Q 358 2112 358 2240 
Q 358 2547 685 2752 
Q 986 2944 1421 2944 
Q 1939 2944 2176 2656 
Q 2291 2522 2323 2384 
Q 2355 2246 2355 1946 
L 2355 723 
Q 2355 301 2554 301 
Q 2682 301 2829 422 
z
M 1837 813 
L 1837 1715 
Q 1248 1510 1018 1293 
Q 800 1094 800 800 
Q 800 557 921 432 
Q 1043 307 1242 307 
Q 1453 307 1613 410 
Q 1747 506 1792 589 
Q 1837 672 1837 813 
z
" id="STIXGeneral-Regular-61" transform="scale(0.015625)"/>
        <path d="M 1024 2931 
L 1024 2342 
Q 1267 2688 1430 2816 
Q 1594 2944 1792 2944 
Q 1958 2944 2051 2854 
Q 2144 2765 2144 2605 
Q 2144 2470 2077 2393 
Q 2010 2317 1894 2317 
Q 1773 2317 1638 2445 
Q 1536 2541 1472 2541 
Q 1338 2541 1181 2355 
Q 1024 2170 1024 2016 
L 1024 576 
Q 1024 301 1133 205 
Q 1242 109 1568 96 
L 1568 0 
L 32 0 
L 32 96 
Q 339 154 412 224 
Q 486 294 486 538 
L 486 2138 
Q 486 2349 438 2435 
Q 390 2522 269 2522 
Q 166 2522 45 2496 
L 45 2598 
Q 448 2726 992 2944 
L 1024 2931 
z
" id="STIXGeneral-Regular-72" transform="scale(0.015625)"/>
        <path d="M 2522 0 
L 755 0 
L 755 96 
Q 1107 115 1235 227 
Q 1363 339 1363 608 
L 1363 3482 
Q 1363 3795 1171 3795 
Q 1082 3795 883 3718 
L 710 3654 
L 710 3744 
L 1856 4326 
L 1914 4307 
L 1914 486 
Q 1914 275 2042 185 
Q 2170 96 2522 96 
L 2522 0 
z
" id="STIXGeneral-Regular-31" transform="scale(0.015625)"/>
       </defs>
       <use xlink:href="#STIXGeneral-Regular-76"/>
       <use x="49.999985" xlink:href="#STIXGeneral-Regular-61"/>
       <use x="94.399979" xlink:href="#STIXGeneral-Regular-72"/>
       <use x="127.699966" xlink:href="#STIXGeneral-Regular-31"/>
      </g>
     </g>
    </g>
    <g id="xtick_2">
     <g id="line2d_2">
      <path clip-path="url(#p80d13c192f)" d="M 117.144753 129.313656 
L 150.741081 25.914791 
" style="fill:none;stroke:#b1afb5;stroke-linecap:square;stroke-width:0.8;"/>
     </g>
     <g id="text_2">
      <!-- var2 -->
      <g style="fill:#323034;" transform="translate(144.405131 15.395625)scale(0.12 -0.12)">
       <defs>
        <path d="M 3034 877 
L 2688 0 
L 186 0 
L 186 77 
L 1325 1286 
Q 1773 1754 1965 2144 
Q 2157 2534 2157 2950 
Q 2157 3379 1920 3616 
Q 1683 3853 1267 3853 
Q 922 3853 720 3673 
Q 518 3494 326 3021 
L 192 3053 
Q 301 3648 630 3987 
Q 960 4326 1523 4326 
Q 2054 4326 2380 4006 
Q 2707 3686 2707 3200 
Q 2707 2477 1888 1613 
L 832 486 
L 2330 486 
Q 2541 486 2665 569 
Q 2790 653 2944 915 
L 3034 877 
z
" id="STIXGeneral-Regular-32" transform="scale(0.015625)"/>
       </defs>
       <use xlink:href="#STIXGeneral-Regular-76"/>
       <use x="49.999985" xlink:href="#STIXGeneral-Regular-61"/>
       <use x="94.399979" xlink:href="#STIXGeneral-Regular-72"/>
       <use x="127.699966" xlink:href="#STIXGeneral-Regular-32"/>
      </g>
     </g>
    </g>
    <g id="xtick_3">
     <g id="line2d_3">
      <path clip-path="url(#p80d13c192f)" d="M 117.144753 129.313656 
L 29.188425 65.409643 
" style="fill:none;stroke:#b1afb5;stroke-linecap:square;stroke-width:0.8;"/>
     </g>
     <g id="text_3">
      <!-- var3 -->
      <g style="fill:#323034;" transform="translate(7.2 59.976275)scale(0.12 -0.12)">
       <defs>
        <path d="M 390 3264 
L 288 3290 
Q 435 3770 748 4048 
Q 1062 4326 1542 4326 
Q 1990 4326 2265 4083 
Q 2541 3840 2541 3450 
Q 2541 2925 1946 2566 
Q 2298 2413 2477 2227 
Q 2758 1914 2758 1402 
Q 2758 890 2464 506 
Q 2246 211 1840 60 
Q 1434 -90 979 -90 
Q 262 -90 262 275 
Q 262 378 339 442 
Q 416 506 525 506 
Q 685 506 915 339 
Q 1197 141 1466 141 
Q 1818 141 2058 425 
Q 2298 710 2298 1120 
Q 2298 1856 1632 2048 
Q 1434 2112 979 2112 
L 979 2202 
Q 1338 2323 1517 2432 
Q 2035 2726 2035 3290 
Q 2035 3610 1852 3776 
Q 1670 3942 1344 3942 
Q 768 3942 390 3264 
z
" id="STIXGeneral-Regular-33" transform="scale(0.015625)"/>
       </defs>
       <use xlink:href="#STIXGeneral-Regular-76"/>
       <use x="49.999985" xlink:href="#STIXGeneral-Regular-61"/>
       <use x="94.399979" xlink:href="#STIXGeneral-Regular-72"/>
       <use x="127.699966" xlink:href="#STIXGeneral-Regular-33"/>
      </g>
     </g>
    </g>
    <g id="xtick_4">
     <g id="line2d_4">
      <path clip-path="url(#p80d13c192f)" d="M 117.144753 129.313656 
L 29.188425 193.217668 
" style="fill:none;stroke:#b1afb5;stroke-linecap:square;stroke-width:0.8;"/>
     </g>
     <g id="text_4">
      <!-- var4 -->
      <g style="fill:#323034;" transform="translate(7.2 204.242287)scale(0.12 -0.12)">
       <defs>
        <path d="M 3027 1069 
L 2368 1069 
L 2368 0 
L 1869 0 
L 1869 1069 
L 77 1069 
L 77 1478 
L 2086 4326 
L 2368 4326 
L 2368 1478 
L 3027 1478 
L 3027 1069 
z
M 1869 1478 
L 1869 3674 
L 333 1478 
L 1869 1478 
z
" id="STIXGeneral-Regular-34" transform="scale(0.015625)"/>
       </defs>
       <use xlink:href="#STIXGeneral-Regular-76"/>
       <use x="49.999985" xlink:href="#STIXGeneral-Regular-61"/>
       <use x="94.399979" xlink:href="#STIXGeneral-Regular-72"/>
       <use x="127.699966" xlink:href="#STIXGeneral-Regular-34"/>
      </g>
     </g>
    </g>
    <g id="xtick_5">
     <g id="line2d_5">
      <path clip-path="url(#p80d13c192f)" d="M 117.144753 129.313656 
L 150.741081 232.71252 
" style="fill:none;stroke:#b1afb5;stroke-linecap:square;stroke-width:0.8;"/>
     </g>
     <g id="text_5">
      <!-- var5 -->
      <g style="fill:#323034;" transform="translate(144.405131 248.822936)scale(0.12 -0.12)">
       <defs>
        <path d="M 2803 4358 
L 2573 3814 
Q 2534 3731 2400 3731 
L 1158 3731 
L 902 3187 
Q 1606 3053 1920 2896 
Q 2234 2739 2502 2368 
Q 2726 2061 2726 1555 
Q 2726 1094 2576 780 
Q 2426 467 2099 224 
Q 1664 -90 1011 -90 
Q 646 -90 422 19 
Q 198 128 198 307 
Q 198 550 486 550 
Q 717 550 960 352 
Q 1210 147 1414 147 
Q 1747 147 2012 480 
Q 2278 813 2278 1229 
Q 2278 1843 1850 2189 
Q 1293 2637 486 2637 
Q 410 2637 410 2688 
L 416 2720 
L 1114 4237 
L 2438 4237 
Q 2547 4237 2608 4269 
Q 2669 4301 2746 4403 
L 2803 4358 
z
" id="STIXGeneral-Regular-35" transform="scale(0.015625)"/>
       </defs>
       <use xlink:href="#STIXGeneral-Regular-76"/>
       <use x="49.999985" xlink:href="#STIXGeneral-Regular-61"/>
       <use x="94.399979" xlink:href="#STIXGeneral-Regular-72"/>
       <use x="127.699966" xlink:href="#STIXGeneral-Regular-35"/>
      </g>
     </g>
    </g>
   </g>
   <g id="matplotlib.axis_2">
    <g id="ytick_1">
     <g id="line2d_6">
      <path clip-path="url(#p80d13c192f)" d="M 135.264753 129.313656 
C 135.264753 126.934159 134.796044 124.5778 133.88545 122.379432 
C 132.974856 120.181064 131.640086 118.183439 129.957528 116.500881 
C 128.27497 114.818323 126.277345 113.483552 124.078977 112.572959 
C 121.880609 111.662365 119.52425 111.193656 117.144753 111.193656 
C 114.765256 111.193656 112.408897 111.662365 110.210529 112.572959 
C 108.012161 113.483552 106.014536 114.818323 104.331978 116.500881 
C 102.64942 118.183439 101.31465 120.181064 100.404056 122.379432 
C 99.493462 124.5778 99.024753 126.934159 99.024753 129.313656 
C 99.024753 131.693152 99.493462 134.049511 100.404056 136.247879 
C 101.31465 138.446248 102.64942 140.443872 104.331978 142.126431 
C 106.014536 143.808989 108.012161 145.143759 110.210529 146.054353 
C 112.408897 146.964947 114.765256 147.433656 117.144753 147.433656 
C 119.52425 147.433656 121.880609 146.964947 124.078977 146.054353 
C 126.277345 145.143759 128.27497 143.808989 129.957528 142.126431 
C 131.640086 140.443872 132.974856 138.446248 133.88545 136.247879 
C 134.796044 134.049511 135.264753 131.693152 135.264753 129.313656 
" style="fill:none;stroke:#b1afb5;stroke-linecap:square;stroke-width:0.8;"/>
     </g>
     <g id="text_6">
      <!-- $\mathdefault{5}$ -->
      <g style="fill:#323034;" transform="translate(135.264753 126.709281)scale(0.12 -0.12)">
       <use transform="translate(0 0.203125)" xlink:href="#STIXGeneral-Regular-35"/>
      </g>
     </g>
    </g>
    <g id="ytick_2">
     <g id="line2d_7">
      <path clip-path="url(#p80d13c192f)" d="M 153.384753 129.313656 
C 153.384753 124.554662 152.447335 119.841945 150.626147 115.445208 
C 148.804959 111.048472 146.135419 107.053222 142.770303 103.688106 
C 139.405186 100.32299 135.409937 97.653449 131.013201 95.832261 
C 126.616464 94.011074 121.903746 93.073656 117.144753 93.073656 
C 112.38576 93.073656 107.673042 94.011074 103.276305 95.832261 
C 98.879569 97.653449 94.88432 100.32299 91.519203 103.688106 
C 88.154087 107.053222 85.484547 111.048472 83.663359 115.445208 
C 81.842171 119.841945 80.904753 124.554662 80.904753 129.313656 
C 80.904753 134.072649 81.842171 138.785367 83.663359 143.182103 
C 85.484547 147.57884 88.154087 151.574089 91.519203 154.939205 
C 94.88432 158.304322 98.879569 160.973862 103.276305 162.79505 
C 107.673042 164.616238 112.38576 165.553656 117.144753 165.553656 
C 121.903746 165.553656 126.616464 164.616238 131.013201 162.79505 
C 135.409937 160.973862 139.405186 158.304322 142.770303 154.939205 
C 146.135419 151.574089 148.804959 147.57884 150.626147 143.182103 
C 152.447335 138.785367 153.384753 134.072649 153.384753 129.313656 
" style="fill:none;stroke:#b1afb5;stroke-linecap:square;stroke-width:0.8;"/>
     </g>
     <g id="text_7">
      <!-- $\mathdefault{10}$ -->
      <g style="fill:#323034;" transform="translate(153.384753 126.709281)scale(0.12 -0.12)">
       <defs>
        <path d="M 3046 2112 
Q 3046 1683 2963 1302 
Q 2880 922 2717 602 
Q 2554 282 2266 96 
Q 1978 -90 1600 -90 
Q 1210 -90 915 108 
Q 621 307 461 640 
Q 301 973 227 1350 
Q 154 1728 154 2150 
Q 154 2746 301 3222 
Q 448 3699 790 4012 
Q 1133 4326 1626 4326 
Q 2253 4326 2649 3712 
Q 3046 3098 3046 2112 
z
M 2432 2080 
Q 2432 3091 2217 3625 
Q 2003 4160 1587 4160 
Q 1190 4160 979 3622 
Q 768 3085 768 2106 
Q 768 1120 979 598 
Q 1190 77 1600 77 
Q 2003 77 2217 598 
Q 2432 1120 2432 2080 
z
" id="STIXGeneral-Regular-30" transform="scale(0.015625)"/>
       </defs>
       <use transform="translate(0 0.40625)" xlink:href="#STIXGeneral-Regular-31"/>
       <use transform="translate(49.999985 0.40625)" xlink:href="#STIXGeneral-Regular-30"/>
      </g>
     </g>
    </g>
    <g id="ytick_3">
     <g id="line2d_8">
      <path clip-path="url(#p80d13c192f)" d="M 171.504753 129.313656 
C 171.504753 122.175166 170.098626 115.106089 167.366844 108.510984 
C 164.635063 101.91588 160.630752 95.923006 155.583078 90.875331 
C 150.535403 85.827657 144.542529 81.823346 137.947424 79.091564 
C 131.35232 76.359783 124.283243 74.953656 117.144753 74.953656 
C 110.006263 74.953656 102.937186 76.359783 96.342082 79.091564 
C 89.746977 81.823346 83.754103 85.827657 78.706428 90.875331 
C 73.658754 95.923006 69.654443 101.91588 66.922662 108.510984 
C 64.19088 115.106089 62.784753 122.175166 62.784753 129.313656 
C 62.784753 136.452145 64.19088 143.521222 66.922662 150.116327 
C 69.654443 156.711432 73.658754 162.704306 78.706428 167.75198 
C 83.754103 172.799655 89.746977 176.803965 96.342082 179.535747 
C 102.937186 182.267529 110.006263 183.673656 117.144753 183.673656 
C 124.283243 183.673656 131.35232 182.267529 137.947424 179.535747 
C 144.542529 176.803965 150.535403 172.799655 155.583078 167.75198 
C 160.630752 162.704306 164.635063 156.711432 167.366844 150.116327 
C 170.098626 143.521222 171.504753 136.452145 171.504753 129.313656 
" style="fill:none;stroke:#b1afb5;stroke-linecap:square;stroke-width:0.8;"/>
     </g>
     <g id="text_8">
      <!-- $\mathdefault{15}$ -->
      <g style="fill:#323034;" transform="translate(171.504753 126.709281)scale(0.12 -0.12)">
       <use transform="translate(0 0.203125)" xlink:href="#STIXGeneral-Regular-31"/>
       <use transform="translate(49.999985 0.203125)" xlink:href="#STIXGeneral-Regular-35"/>
      </g>
     </g>
    </g>
    <g id="ytick_4">
     <g id="line2d_9">
      <path clip-path="url(#p80d13c192f)" d="M 189.624753 129.313656 
C 189.624753 119.795669 187.749917 110.370233 184.107542 101.576761 
C 180.465166 92.783288 175.126085 84.792789 168.395853 78.062556 
C 161.66562 71.332323 153.675121 65.993243 144.881648 62.350867 
C 136.088175 58.708491 126.662739 56.833656 117.144753 56.833656 
C 107.626767 56.833656 98.201331 58.708491 89.407858 62.350867 
C 80.614385 65.993243 72.623886 71.332323 65.893654 78.062556 
C 59.163421 84.792789 53.82434 92.783288 50.181965 101.576761 
C 46.539589 110.370233 44.664753 119.795669 44.664753 129.313656 
C 44.664753 138.831642 46.539589 148.257078 50.181965 157.050551 
C 53.82434 165.844024 59.163421 173.834522 65.893654 180.564755 
C 72.623886 187.294988 80.614385 192.634068 89.407858 196.276444 
C 98.201331 199.91882 107.626767 201.793656 117.144753 201.793656 
C 126.662739 201.793656 136.088175 199.91882 144.881648 196.276444 
C 153.675121 192.634068 161.66562 187.294988 168.395853 180.564755 
C 175.126085 173.834522 180.465166 165.844024 184.107542 157.050551 
C 187.749917 148.257078 189.624753 138.831642 189.624753 129.313656 
" style="fill:none;stroke:#b1afb5;stroke-linecap:square;stroke-width:0.8;"/>
     </g>
     <g id="text_9">
      <!-- $\mathdefault{20}$ -->
      <g style="fill:#323034;" transform="translate(189.624753 126.709281)scale(0.12 -0.12)">
       <use transform="translate(0 0.40625)" xlink:href="#STIXGeneral-Regular-32"/>
       <use transform="translate(49.999985 0.40625)" xlink:href="#STIXGeneral-Regular-30"/>
      </g>
     </g>
    </g>
    <g id="ytick_5">
     <g id="line2d_10">
      <path clip-path="url(#p80d13c192f)" d="M 207.744753 129.313656 
C 207.744753 117.416173 205.401208 105.634378 200.848239 94.642537 
C 196.295269 83.650696 189.621418 73.662572 181.208627 65.249781 
C 172.795837 56.83699 162.807713 50.16314 151.815872 45.61017 
C 140.824031 41.0572 129.042236 38.713656 117.144753 38.713656 
C 105.24727 38.713656 93.465475 41.0572 82.473634 45.61017 
C 71.481793 50.16314 61.49367 56.83699 53.080879 65.249781 
C 44.668088 73.662572 37.994237 83.650696 33.441267 94.642537 
C 28.888298 105.634378 26.544753 117.416173 26.544753 129.313656 
C 26.544753 141.211139 28.888298 152.992934 33.441267 163.984775 
C 37.994237 174.976616 44.668088 184.964739 53.080879 193.37753 
C 61.49367 201.790321 71.481793 208.464172 82.473634 213.017141 
C 93.465475 217.570111 105.24727 219.913656 117.144753 219.913656 
C 129.042236 219.913656 140.824031 217.570111 151.815872 213.017141 
C 162.807713 208.464172 172.795837 201.790321 181.208627 193.37753 
C 189.621418 184.964739 196.295269 174.976616 200.848239 163.984775 
C 205.401208 152.992934 207.744753 141.211139 207.744753 129.313656 
" style="fill:none;stroke:#b1afb5;stroke-linecap:square;stroke-width:0.8;"/>
     </g>
     <g id="text_10">
      <!-- $\mathdefault{25}$ -->
      <g style="fill:#323034;" transform="translate(207.744753 126.709281)scale(0.12 -0.12)">
       <use transform="translate(0 0.203125)" xlink:href="#STIXGeneral-Regular-32"/>
       <use transform="translate(49.999985 0.203125)" xlink:href="#STIXGeneral-Regular-35"/>
      </g>
     </g>
    </g>
    <g id="ytick_6">
     <g id="line2d_11">
      <path clip-path="url(#p80d13c192f)" d="M 225.864753 129.313656 
C 225.864753 115.036676 223.052499 100.898522 217.588936 87.708313 
C 212.125372 74.518104 204.116751 62.532356 194.021402 52.437006 
C 183.926053 42.341657 171.940305 34.333036 158.750096 28.869473 
C 145.559887 23.405909 131.421733 20.593656 117.144753 20.593656 
C 102.867773 20.593656 88.72962 23.405909 75.53941 28.869473 
C 62.349201 34.333036 50.363453 42.341657 40.268104 52.437006 
C 30.172755 62.532356 22.164134 74.518104 16.70057 87.708313 
C 11.237007 100.898522 8.424753 115.036676 8.424753 129.313656 
C 8.424753 143.590635 11.237007 157.728789 16.70057 170.918998 
C 22.164134 184.109208 30.172755 196.094956 40.268104 206.190305 
C 50.363453 216.285654 62.349201 224.294275 75.53941 229.757838 
C 88.72962 235.221402 102.867773 238.033656 117.144753 238.033656 
C 131.421733 238.033656 145.559887 235.221402 158.750096 229.757838 
C 171.940305 224.294275 183.926053 216.285654 194.021402 206.190305 
C 204.116751 196.094956 212.125372 184.109208 217.588936 170.918998 
C 223.052499 157.728789 225.864753 143.590635 225.864753 129.313656 
" style="fill:none;stroke:#b1afb5;stroke-linecap:square;stroke-width:0.8;"/>
     </g>
     <g id="text_11">
      <!-- $\mathdefault{30}$ -->
      <g style="fill:#323034;" transform="translate(225.864753 126.709281)scale(0.12 -0.12)">
       <use transform="translate(0 0.40625)" xlink:href="#STIXGeneral-Regular-33"/>
       <use transform="translate(49.999985 0.40625)" xlink:href="#STIXGeneral-Regular-30"/>
      </g>
     </g>
    </g>
   </g>
   <g id="line2d_12">
    <path clip-path="url(#p80d13c192f)" d="M 186.000753 129.313656 
L 126.103774 101.740625 
L 61.439079 88.841114 
L 114.212875 131.443789 
L 146.26157 218.926005 
L 186.000753 129.313656 
" style="fill:none;stroke:#bc80bd;stroke-linecap:square;"/>
   </g>
   <g id="patch_4">
    <path d="M 225.864753 129.313656 
C 225.864753 115.036676 223.052499 100.898522 217.588936 87.708313 
C 212.125372 74.518104 204.116751 62.532356 194.021402 52.437006 
C 183.926053 42.341657 171.940305 34.333036 158.750096 28.869473 
C 145.559887 23.405909 131.421733 20.593656 117.144753 20.593656 
C 102.867773 20.593656 88.72962 23.405909 75.53941 28.869473 
C 62.349201 34.333036 50.363453 42.341657 40.268104 52.437006 
C 30.172755 62.532356 22.164134 74.518104 16.70057 87.708313 
C 11.237007 100.898522 8.424753 115.036676 8.424753 129.313656 
C 8.424753 143.590635 11.237007 157.728789 16.70057 170.918998 
C 22.164134 184.109208 30.172755 196.094956 40.268104 206.190305 
C 50.363453 216.285654 62.349201 224.294275 75.53941 229.757838 
C 88.72962 235.221402 102.867773 238.033656 117.144753 238.033656 
C 131.421733 238.033656 145.559887 235.221402 158.750096 229.757838 
C 171.940305 224.294275 183.926053 216.285654 194.021402 206.190305 
C 204.116751 196.094956 212.125372 184.109208 217.588936 170.918998 
C 223.052499 157.728789 225.864753 143.590635 225.864753 129.313656 
" style="fill:none;stroke:#000000;stroke-linecap:square;stroke-linejoin:miter;stroke-width:0.6;"/>
   </g>
  </g>
 </g>
 <defs>
  <clipPath id="p80d13c192f">
   <path d="M 225.864753 129.313656 
C 225.864753 115.036676 223.052499 100.898522 217.588936 87.708313 
C 212.125372 74.518104 204.116751 62.532356 194.021402 52.437006 
C 183.926053 42.341657 171.940305 34.333036 158.750096 28.869473 
C 145.559887 23.405909 131.421733 20.593656 117.144753 20.593656 
C 102.867773 20.593656 88.72962 23.405909 75.53941 28.869473 
C 62.349201 34.333036 50.363453 42.341657 40.268104 52.437006 
C 30.172755 62.532356 22.164134 74.518104 16.70057 87.708313 
C 11.237007 100.898522 8.424753 115.036676 8.424753 129.313656 
C 8.424753 143.590635 11.237007 157.728789 16.70057 170.918998 
C 22.164134 184.109208 30.172755 196.094956 40.268104 206.190305 
C 50.363453 216.285654 62.349201 224.294275 75.53941 229.757838 
C 88.72962 235.221402 102.867773 238.033656 117.144753 238.033656 
C 131.421733 238.033656 145.559887 235.221402 158.750096 229.757838 
C 171.940305 224.294275 183.926053 216.285654 194.021402 206.190305 
C 204.116751 196.094956 212.125372 184.109208 217.588936 170.918998 
C 223.052499 157.728789 225.864753 143.590635 225.864753 129.313656 
M 117.144753 129.313656 
C 117.144753 129.313656 117.144753 129.313656 117.144753 129.313656 
C 117.144753 129.313656 117.144753 129.313656 117.144753 129.313656 
C 117.144753 129.313656 117.144753 129.313656 117.144753 129.313656 
C 117.144753 129.313656 117.144753 129.313656 117.144753 129.313656 
C 117.144753 129.313656 117.144753 129.313656 117.144753 129.313656 
C 117.144753 129.313656 117.144753 129.313656 117.144753 129.313656 
C 117.144753 129.313656 117.144753 129.313656 117.144753 129.313656 
C 117.144753 129.313656 117.144753 129.313656 117.144753 129.313656 
C 117.144753 129.313656 117.144753 129.313656 117.144753 129.313656 
C 117.144753 129.313656 117.144753 129.313656 117.144753 129.313656 
C 117.144753 129.313656 117.144753 129.313656 117.144753 129.313656 
C 117.144753 129.313656 117.144753 129.313656 117.144753 129.313656 
C 117.144753 129.313656 117.144753 129.313656 117.144753 129.313656 
C 117.144753 129.313656 117.144753 129.313656 117.144753 129.313656 
C 117.144753 129.313656 117.144753 129.313656 117.144753 129.313656 
C 117.144753 129.313656 117.144753 129.313656 117.144753 129.313656 
M 225.864753 129.313656 
z
"/>
  </clipPath>
 </defs>
</svg>
