<?xml version="1.0" encoding="utf-8" standalone="no"?>
<!DOCTYPE svg PUBLIC "-//W3C//DTD SVG 1.1//EN"
  "http://www.w3.org/Graphics/SVG/1.1/DTD/svg11.dtd">
<svg xmlns:xlink="http://www.w3.org/1999/xlink" width="285.3pt" height="354.69pt" viewBox="0 0 285.3 354.69" xmlns="http://www.w3.org/2000/svg" version="1.1">
 <metadata>
  <rdf:RDF xmlns:dc="http://purl.org/dc/elements/1.1/" xmlns:cc="http://creativecommons.org/ns#" xmlns:rdf="http://www.w3.org/1999/02/22-rdf-syntax-ns#">
   <cc:Work>
    <dc:type rdf:resource="http://purl.org/dc/dcmitype/StillImage"/>
    <dc:date>2022-10-25T00:00:34.352957</dc:date>
    <dc:format>image/svg+xml</dc:format>
    <dc:creator>
     <cc:Agent>
      <dc:title>Matplotlib v3.5.3, https://matplotlib.org/</dc:title>
     </cc:Agent>
    </dc:creator>
   </cc:Work>
  </rdf:RDF>
 </metadata>
 <defs>
  <style type="text/css">*{stroke-linejoin: round; stroke-linecap: butt}</style>
 </defs>
 <g id="figure_1">
  <g id="patch_1">
   <path d="M 0 354.69 
L 285.3 354.69 
L 285.3 0 
L 0 0 
z
" style="fill: #ffffff"/>
  </g>
  <g id="axes_1">
   <g id="patch_2">
    <path d="M 110.7 334.8 
L 278.1 334.8 
L 278.1 57.6 
L 110.7 57.6 
z
" style="fill: #ffffff"/>
   </g>
   <g id="patch_3">
    <path d="M 8.1 7.2 
L 34.02 7.2 
L 34.02 14.4 
L 8.1 14.4 
z
" style="fill: #e3120b"/>
   </g>
   <g id="matplotlib.axis_1">
    <g id="xtick_1">
     <g id="line2d_1">
      <path d="M 110.7 334.8 
L 110.7 57.6 
" clip-path="url(#p29f402fb35)" style="fill: none; stroke: #758d99; stroke-opacity: 0.6; stroke-width: 0.8; stroke-linecap: square"/>
     </g>
     <g id="text_1">
      <!-- 0 -->
      <g style="fill: #323034" transform="translate(108.006719 52.79)scale(0.11 -0.11)">
       <defs>
        <path id="Varta-Light-30" d="M 1566 -78 
Q 950 -78 620 515 
Q 291 1109 291 2144 
Q 291 3181 620 3731 
Q 950 4281 1566 4281 
Q 2181 4281 2511 3731 
Q 2841 3181 2841 2144 
Q 2841 1109 2511 515 
Q 2181 -78 1566 -78 
z
M 1566 272 
Q 1963 272 2191 747 
Q 2419 1222 2419 2144 
Q 2419 3069 2191 3501 
Q 1963 3934 1566 3934 
Q 1172 3934 942 3501 
Q 713 3069 713 2144 
Q 713 1222 942 747 
Q 1172 272 1566 272 
z
" transform="scale(0.015625)"/>
       </defs>
       <use xlink:href="#Varta-Light-30"/>
      </g>
     </g>
    </g>
    <g id="xtick_2">
     <g id="line2d_2">
      <path d="M 145.364263 334.8 
L 145.364263 57.6 
" clip-path="url(#p29f402fb35)" style="fill: none; stroke: #758d99; stroke-opacity: 0.6; stroke-width: 0.8; stroke-linecap: square"/>
     </g>
     <g id="text_2">
      <!-- 5 -->
      <g style="fill: #323034" transform="translate(142.670982 52.79)scale(0.11 -0.11)">
       <defs>
        <path id="Varta-Light-35" d="M 1478 -78 
Q 988 -78 684 92 
Q 381 263 178 469 
L 394 753 
Q 578 569 820 425 
Q 1063 281 1447 281 
Q 1706 281 1922 411 
Q 2138 541 2266 775 
Q 2394 1009 2394 1322 
Q 2394 1775 2148 2058 
Q 1903 2341 1469 2341 
Q 1250 2341 1090 2272 
Q 931 2203 747 2081 
L 500 2234 
L 638 4219 
L 2616 4219 
L 2616 3847 
L 1016 3847 
L 897 2491 
Q 1047 2575 1206 2625 
Q 1366 2675 1566 2675 
Q 1919 2675 2205 2525 
Q 2491 2375 2659 2076 
Q 2828 1778 2828 1334 
Q 2828 888 2634 570 
Q 2441 253 2133 87 
Q 1825 -78 1478 -78 
z
" transform="scale(0.015625)"/>
       </defs>
       <use xlink:href="#Varta-Light-35"/>
      </g>
     </g>
    </g>
    <g id="xtick_3">
     <g id="line2d_3">
      <path d="M 180.028526 334.8 
L 180.028526 57.6 
" clip-path="url(#p29f402fb35)" style="fill: none; stroke: #758d99; stroke-opacity: 0.6; stroke-width: 0.8; stroke-linecap: square"/>
     </g>
     <g id="text_3">
      <!-- 10 -->
      <g style="fill: #323034" transform="translate(174.641963 52.79)scale(0.11 -0.11)">
       <defs>
        <path id="Varta-Light-31" d="M 519 0 
L 519 359 
L 1463 359 
L 1463 3684 
L 725 3641 
L 725 3931 
Q 994 3978 1197 4050 
Q 1400 4122 1559 4216 
L 1891 4216 
L 1891 359 
L 2753 359 
L 2753 0 
L 519 0 
z
" transform="scale(0.015625)"/>
       </defs>
       <use xlink:href="#Varta-Light-31"/>
       <use xlink:href="#Varta-Light-30" x="48.974609"/>
      </g>
     </g>
    </g>
    <g id="xtick_4">
     <g id="line2d_4">
      <path d="M 214.692789 334.8 
L 214.692789 57.6 
" clip-path="url(#p29f402fb35)" style="fill: none; stroke: #758d99; stroke-opacity: 0.6; stroke-width: 0.8; stroke-linecap: square"/>
     </g>
     <g id="text_4">
      <!-- 15 -->
      <g style="fill: #323034" transform="translate(209.306226 52.79)scale(0.11 -0.11)">
       <use xlink:href="#Varta-Light-31"/>
       <use xlink:href="#Varta-Light-35" x="48.974609"/>
      </g>
     </g>
    </g>
    <g id="xtick_5">
     <g id="line2d_5">
      <path d="M 249.357052 334.8 
L 249.357052 57.6 
" clip-path="url(#p29f402fb35)" style="fill: none; stroke: #758d99; stroke-opacity: 0.6; stroke-width: 0.8; stroke-linecap: square"/>
     </g>
     <g id="text_5">
      <!-- 20 -->
      <g style="fill: #323034" transform="translate(243.970489 52.79)scale(0.11 -0.11)">
       <defs>
        <path id="Varta-Light-32" d="M 259 0 
L 259 256 
Q 1216 1219 1717 1898 
Q 2219 2578 2219 3088 
Q 2219 3450 2017 3690 
Q 1816 3931 1391 3931 
Q 1125 3931 897 3790 
Q 669 3650 488 3431 
L 234 3684 
Q 478 3953 765 4117 
Q 1053 4281 1441 4281 
Q 2003 4281 2320 3964 
Q 2638 3647 2638 3109 
Q 2638 2709 2416 2276 
Q 2194 1844 1800 1364 
Q 1406 884 888 338 
Q 1056 350 1232 361 
Q 1409 372 1572 372 
L 2844 372 
L 2844 0 
L 259 0 
z
" transform="scale(0.015625)"/>
       </defs>
       <use xlink:href="#Varta-Light-32"/>
       <use xlink:href="#Varta-Light-30" x="48.974609"/>
      </g>
     </g>
    </g>
   </g>
   <g id="matplotlib.axis_2">
    <g id="ytick_1">
     <g id="text_6">
      <!-- Italy -->
      <g style="fill: #323034" transform="translate(7.2 311.308111)scale(0.11 -0.11)">
       <defs>
        <path id="Varta-Light-49" d="M 575 0 
L 575 4206 
L 1013 4206 
L 1013 0 
L 575 0 
z
" transform="scale(0.015625)"/>
        <path id="Varta-Light-74" d="M 1472 -78 
Q 994 -78 814 198 
Q 634 475 634 916 
L 634 2741 
L 163 2741 
L 163 3066 
L 650 3094 
L 703 3975 
L 1066 3975 
L 1066 3094 
L 1925 3094 
L 1925 2741 
L 1066 2741 
L 1066 900 
Q 1066 609 1169 443 
Q 1272 278 1559 278 
Q 1644 278 1745 306 
Q 1847 334 1925 366 
L 2016 38 
Q 1884 -6 1742 -42 
Q 1600 -78 1472 -78 
z
" transform="scale(0.015625)"/>
        <path id="Varta-Light-61" d="M 1316 -78 
Q 919 -78 655 145 
Q 391 369 391 794 
Q 391 1303 855 1590 
Q 1319 1878 2331 1953 
Q 2334 2188 2278 2383 
Q 2222 2578 2073 2695 
Q 1925 2813 1653 2813 
Q 1363 2813 1113 2719 
Q 863 2625 691 2503 
L 513 2806 
Q 706 2934 1023 3053 
Q 1341 3172 1716 3172 
Q 2275 3172 2515 2834 
Q 2756 2497 2756 1931 
L 2756 0 
L 2403 0 
L 2363 381 
L 2350 381 
Q 2122 197 1880 59 
Q 1638 -78 1316 -78 
z
M 1422 272 
Q 1663 272 1873 387 
Q 2084 503 2331 722 
L 2331 1659 
Q 1763 1619 1431 1501 
Q 1100 1384 958 1211 
Q 816 1038 816 819 
Q 816 528 989 400 
Q 1163 272 1422 272 
z
" transform="scale(0.015625)"/>
        <path id="Varta-Light-6c" d="M 1034 -78 
Q 781 -78 665 78 
Q 550 234 550 538 
L 550 4575 
L 978 4575 
L 978 500 
Q 978 384 1018 332 
Q 1059 281 1119 281 
Q 1141 281 1164 282 
Q 1188 284 1234 294 
L 1297 -31 
Q 1247 -53 1186 -65 
Q 1125 -78 1034 -78 
z
" transform="scale(0.015625)"/>
        <path id="Varta-Light-79" d="M 531 -1366 
Q 434 -1366 346 -1347 
Q 259 -1328 188 -1300 
L 275 -950 
Q 322 -969 389 -984 
Q 456 -1000 516 -1000 
Q 788 -1000 969 -794 
Q 1150 -588 1253 -272 
L 1331 -28 
L 78 3094 
L 525 3094 
L 1200 1288 
Q 1272 1088 1355 858 
Q 1438 628 1516 419 
L 1541 419 
Q 1613 625 1680 856 
Q 1747 1088 1809 1288 
L 2403 3094 
L 2831 3094 
L 1641 -309 
Q 1541 -594 1395 -834 
Q 1250 -1075 1040 -1220 
Q 831 -1366 531 -1366 
z
" transform="scale(0.015625)"/>
       </defs>
       <use xlink:href="#Varta-Light-49"/>
       <use xlink:href="#Varta-Light-74" x="24.755859"/>
       <use xlink:href="#Varta-Light-61" x="57.470703"/>
       <use xlink:href="#Varta-Light-6c" x="108.154297"/>
       <use xlink:href="#Varta-Light-79" x="132.910156"/>
      </g>
     </g>
    </g>
    <g id="ytick_2">
     <g id="text_7">
      <!-- France -->
      <g style="fill: #323034" transform="translate(7.2 274.249288)scale(0.11 -0.11)">
       <defs>
        <path id="Varta-Light-46" d="M 575 0 
L 575 4206 
L 2947 4206 
L 2947 3838 
L 1013 3838 
L 1013 2309 
L 2650 2309 
L 2650 1941 
L 1013 1941 
L 1013 0 
L 575 0 
z
" transform="scale(0.015625)"/>
        <path id="Varta-Light-72" d="M 550 0 
L 550 3094 
L 906 3094 
L 944 2528 
L 966 2528 
Q 1122 2819 1348 2995 
Q 1575 3172 1841 3172 
Q 1938 3172 2013 3158 
Q 2088 3144 2163 3106 
L 2078 2731 
Q 2000 2756 1939 2768 
Q 1878 2781 1784 2781 
Q 1584 2781 1364 2614 
Q 1144 2447 978 2038 
L 978 0 
L 550 0 
z
" transform="scale(0.015625)"/>
        <path id="Varta-Light-6e" d="M 550 0 
L 550 3094 
L 906 3094 
L 944 2634 
L 966 2634 
Q 1191 2863 1441 3017 
Q 1691 3172 2013 3172 
Q 2509 3172 2729 2875 
Q 2950 2578 2950 1981 
L 2950 0 
L 2525 0 
L 2525 1922 
Q 2525 2381 2383 2589 
Q 2241 2797 1891 2797 
Q 1638 2797 1434 2667 
Q 1231 2538 978 2278 
L 978 0 
L 550 0 
z
" transform="scale(0.015625)"/>
        <path id="Varta-Light-63" d="M 1738 -78 
Q 1331 -78 1007 109 
Q 684 297 496 659 
Q 309 1022 309 1547 
Q 309 2081 509 2442 
Q 709 2803 1040 2987 
Q 1372 3172 1763 3172 
Q 2075 3172 2297 3061 
Q 2519 2950 2675 2803 
L 2453 2522 
Q 2309 2650 2145 2731 
Q 1981 2813 1778 2813 
Q 1484 2813 1251 2658 
Q 1019 2503 884 2220 
Q 750 1938 750 1547 
Q 750 972 1029 626 
Q 1309 281 1769 281 
Q 2000 281 2189 370 
Q 2378 459 2522 594 
L 2722 309 
Q 2519 128 2270 25 
Q 2022 -78 1738 -78 
z
" transform="scale(0.015625)"/>
        <path id="Varta-Light-65" d="M 1772 -78 
Q 1366 -78 1033 112 
Q 700 303 503 665 
Q 306 1028 306 1544 
Q 306 2059 497 2423 
Q 688 2788 1000 2981 
Q 1313 3175 1678 3175 
Q 2278 3175 2587 2795 
Q 2897 2416 2897 1728 
Q 2897 1656 2894 1589 
Q 2891 1522 2881 1463 
L 734 1463 
Q 756 916 1050 594 
Q 1344 272 1822 272 
Q 2053 272 2247 333 
Q 2441 394 2613 509 
L 2769 219 
Q 2578 100 2337 11 
Q 2097 -78 1772 -78 
z
M 731 1756 
L 2516 1756 
Q 2516 2294 2302 2561 
Q 2088 2828 1691 2828 
Q 1322 2828 1048 2547 
Q 775 2266 731 1756 
z
" transform="scale(0.015625)"/>
       </defs>
       <use xlink:href="#Varta-Light-46"/>
       <use xlink:href="#Varta-Light-72" x="48.095703"/>
       <use xlink:href="#Varta-Light-61" x="81.591797"/>
       <use xlink:href="#Varta-Light-6e" x="132.275391"/>
       <use xlink:href="#Varta-Light-63" x="186.376953"/>
       <use xlink:href="#Varta-Light-65" x="231.689453"/>
      </g>
     </g>
    </g>
    <g id="ytick_3">
     <g id="text_8">
      <!-- India -->
      <g style="fill: #323034" transform="translate(7.2 237.190464)scale(0.11 -0.11)">
       <defs>
        <path id="Varta-Light-64" d="M 1594 -78 
Q 1016 -78 664 334 
Q 313 747 313 1544 
Q 313 2059 498 2423 
Q 684 2788 992 2980 
Q 1300 3172 1669 3172 
Q 1944 3172 2145 3075 
Q 2347 2978 2566 2806 
L 2544 3350 
L 2544 4575 
L 2972 4575 
L 2972 0 
L 2616 0 
L 2578 378 
L 2559 378 
Q 2375 197 2128 59 
Q 1881 -78 1594 -78 
z
M 1678 288 
Q 1909 288 2120 403 
Q 2331 519 2544 747 
L 2544 2453 
Q 2328 2647 2131 2728 
Q 1934 2809 1731 2809 
Q 1450 2809 1228 2651 
Q 1006 2494 879 2209 
Q 753 1925 753 1547 
Q 753 956 989 622 
Q 1225 288 1678 288 
z
" transform="scale(0.015625)"/>
        <path id="Varta-Light-69" d="M 550 0 
L 550 3094 
L 978 3094 
L 978 0 
L 550 0 
z
M 772 3778 
Q 638 3778 544 3861 
Q 450 3944 450 4078 
Q 450 4219 544 4301 
Q 638 4384 772 4384 
Q 903 4384 997 4301 
Q 1091 4219 1091 4078 
Q 1091 3944 997 3861 
Q 903 3778 772 3778 
z
" transform="scale(0.015625)"/>
       </defs>
       <use xlink:href="#Varta-Light-49"/>
       <use xlink:href="#Varta-Light-6e" x="24.755859"/>
       <use xlink:href="#Varta-Light-64" x="78.857422"/>
       <use xlink:href="#Varta-Light-69" x="133.935547"/>
       <use xlink:href="#Varta-Light-61" x="157.861328"/>
      </g>
     </g>
    </g>
    <g id="ytick_4">
     <g id="text_9">
      <!-- United Kingdom -->
      <g style="fill: #323034" transform="translate(7.2 200.131641)scale(0.11 -0.11)">
       <defs>
        <path id="Varta-Light-55" d="M 2028 -78 
Q 1628 -78 1292 83 
Q 956 244 756 625 
Q 556 1006 556 1669 
L 556 4206 
L 994 4206 
L 994 1675 
Q 994 1150 1136 853 
Q 1278 556 1512 432 
Q 1747 309 2028 309 
Q 2319 309 2559 431 
Q 2800 553 2945 851 
Q 3091 1150 3091 1675 
L 3091 4206 
L 3506 4206 
L 3506 1669 
Q 3506 1003 3304 622 
Q 3103 241 2767 81 
Q 2431 -78 2028 -78 
z
" transform="scale(0.015625)"/>
        <path id="Varta-Light-20" transform="scale(0.015625)"/>
        <path id="Varta-Light-4b" d="M 575 0 
L 575 4206 
L 1013 4206 
L 1013 2003 
L 1025 2003 
L 2894 4206 
L 3394 4206 
L 2066 2622 
L 3588 0 
L 3097 0 
L 1788 2284 
L 1013 1381 
L 1013 0 
L 575 0 
z
" transform="scale(0.015625)"/>
        <path id="Varta-Light-67" d="M 1578 -1453 
Q 947 -1453 626 -1229 
Q 306 -1006 306 -609 
Q 306 -403 428 -204 
Q 550 -6 763 138 
L 763 163 
Q 647 234 569 357 
Q 491 481 491 663 
Q 491 863 602 997 
Q 713 1131 825 1209 
L 825 1234 
Q 675 1359 551 1571 
Q 428 1784 428 2075 
Q 428 2434 579 2678 
Q 731 2922 989 3047 
Q 1247 3172 1566 3172 
Q 1706 3172 1807 3150 
Q 1909 3128 1991 3094 
L 3053 3094 
L 3053 2759 
L 2384 2759 
Q 2513 2659 2595 2490 
Q 2678 2322 2678 2063 
Q 2678 1559 2361 1270 
Q 2044 981 1566 981 
Q 1300 981 1078 1100 
Q 991 1022 925 942 
Q 859 863 859 722 
Q 859 569 978 464 
Q 1097 359 1425 359 
L 2091 359 
Q 2638 359 2872 173 
Q 3106 -13 3106 -394 
Q 3106 -672 2925 -914 
Q 2744 -1156 2401 -1304 
Q 2059 -1453 1578 -1453 
z
M 1641 -1138 
Q 1966 -1138 2200 -1039 
Q 2434 -941 2561 -783 
Q 2688 -625 2688 -450 
Q 2688 -219 2523 -109 
Q 2359 0 2025 0 
L 1438 0 
Q 1366 0 1259 11 
Q 1153 22 1044 50 
Q 856 -78 775 -242 
Q 694 -406 694 -556 
Q 694 -822 928 -980 
Q 1163 -1138 1641 -1138 
z
M 1566 1281 
Q 1853 1281 2065 1489 
Q 2278 1697 2278 2075 
Q 2278 2475 2076 2662 
Q 1875 2850 1566 2850 
Q 1253 2850 1050 2658 
Q 847 2466 847 2075 
Q 847 1700 1059 1490 
Q 1272 1281 1566 1281 
z
" transform="scale(0.015625)"/>
        <path id="Varta-Light-6f" d="M 1722 -78 
Q 1341 -78 1019 111 
Q 697 300 505 662 
Q 313 1025 313 1544 
Q 313 2072 505 2434 
Q 697 2797 1019 2984 
Q 1341 3172 1722 3172 
Q 2106 3172 2428 2984 
Q 2750 2797 2945 2434 
Q 3141 2072 3141 1544 
Q 3141 1025 2945 662 
Q 2750 300 2428 111 
Q 2106 -78 1722 -78 
z
M 1722 281 
Q 2159 281 2429 628 
Q 2700 975 2700 1544 
Q 2700 2119 2429 2466 
Q 2159 2813 1722 2813 
Q 1288 2813 1020 2466 
Q 753 2119 753 1544 
Q 753 975 1020 628 
Q 1288 281 1722 281 
z
" transform="scale(0.015625)"/>
        <path id="Varta-Light-6d" d="M 550 0 
L 550 3094 
L 906 3094 
L 944 2634 
L 966 2634 
Q 1169 2863 1416 3017 
Q 1663 3172 1931 3172 
Q 2303 3172 2498 3012 
Q 2694 2853 2784 2572 
Q 3038 2847 3289 3009 
Q 3541 3172 3816 3172 
Q 4303 3172 4528 2875 
Q 4753 2578 4753 1981 
L 4753 0 
L 4325 0 
L 4325 1922 
Q 4325 2381 4181 2589 
Q 4038 2797 3706 2797 
Q 3319 2797 2866 2288 
L 2866 0 
L 2441 0 
L 2441 1922 
Q 2441 2381 2295 2589 
Q 2150 2797 1816 2797 
Q 1438 2797 978 2278 
L 978 0 
L 550 0 
z
" transform="scale(0.015625)"/>
       </defs>
       <use xlink:href="#Varta-Light-55"/>
       <use xlink:href="#Varta-Light-6e" x="63.476562"/>
       <use xlink:href="#Varta-Light-69" x="117.578125"/>
       <use xlink:href="#Varta-Light-74" x="141.503906"/>
       <use xlink:href="#Varta-Light-65" x="174.21875"/>
       <use xlink:href="#Varta-Light-64" x="223.291016"/>
       <use xlink:href="#Varta-Light-20" x="278.369141"/>
       <use xlink:href="#Varta-Light-4b" x="298.486328"/>
       <use xlink:href="#Varta-Light-69" x="354.931641"/>
       <use xlink:href="#Varta-Light-6e" x="378.857422"/>
       <use xlink:href="#Varta-Light-67" x="432.958984"/>
       <use xlink:href="#Varta-Light-64" x="482.666016"/>
       <use xlink:href="#Varta-Light-6f" x="537.744141"/>
       <use xlink:href="#Varta-Light-6d" x="591.650391"/>
      </g>
     </g>
    </g>
    <g id="ytick_5">
     <g id="text_10">
      <!-- Germany -->
      <g style="fill: #323034" transform="translate(7.2 163.053911)scale(0.11 -0.11)">
       <defs>
        <path id="Varta-Light-47" d="M 2175 -78 
Q 1628 -78 1209 176 
Q 791 431 555 918 
Q 319 1406 319 2103 
Q 319 2809 562 3293 
Q 806 3778 1237 4029 
Q 1669 4281 2228 4281 
Q 2656 4281 2942 4128 
Q 3228 3975 3409 3788 
L 3156 3509 
Q 2997 3681 2778 3789 
Q 2559 3897 2231 3897 
Q 1559 3897 1165 3433 
Q 772 2969 772 2109 
Q 772 1266 1150 787 
Q 1528 309 2219 309 
Q 2469 309 2694 382 
Q 2919 456 3056 588 
L 3056 1772 
L 2134 1772 
L 2134 2134 
L 3456 2134 
L 3456 406 
Q 3256 203 2925 62 
Q 2594 -78 2175 -78 
z
" transform="scale(0.015625)"/>
       </defs>
       <use xlink:href="#Varta-Light-47"/>
       <use xlink:href="#Varta-Light-65" x="60.595703"/>
       <use xlink:href="#Varta-Light-72" x="109.667969"/>
       <use xlink:href="#Varta-Light-6d" x="143.164062"/>
       <use xlink:href="#Varta-Light-61" x="225.390625"/>
       <use xlink:href="#Varta-Light-6e" x="276.074219"/>
       <use xlink:href="#Varta-Light-79" x="330.175781"/>
      </g>
     </g>
    </g>
    <g id="ytick_6">
     <g id="text_11">
      <!-- China -->
      <g style="fill: #323034" transform="translate(7.2 126.013994)scale(0.11 -0.11)">
       <defs>
        <path id="Varta-Light-43" d="M 2122 -78 
Q 1597 -78 1190 180 
Q 784 438 551 927 
Q 319 1416 319 2106 
Q 319 2794 555 3280 
Q 791 3766 1205 4023 
Q 1619 4281 2156 4281 
Q 2528 4281 2818 4129 
Q 3109 3978 3291 3775 
L 3041 3497 
Q 2872 3681 2651 3789 
Q 2431 3897 2159 3897 
Q 1522 3897 1145 3426 
Q 769 2956 769 2119 
Q 769 1275 1136 792 
Q 1503 309 2134 309 
Q 2444 309 2686 431 
Q 2928 553 3141 791 
L 3391 522 
Q 3147 238 2836 80 
Q 2525 -78 2122 -78 
z
" transform="scale(0.015625)"/>
        <path id="Varta-Light-68" d="M 550 0 
L 550 4575 
L 978 4575 
L 978 3297 
L 966 2641 
Q 1194 2863 1442 3017 
Q 1691 3172 2013 3172 
Q 2506 3172 2728 2873 
Q 2950 2575 2950 1978 
L 2950 0 
L 2525 0 
L 2525 1919 
Q 2525 2378 2379 2587 
Q 2234 2797 1891 2797 
Q 1638 2797 1434 2667 
Q 1231 2538 978 2278 
L 978 0 
L 550 0 
z
" transform="scale(0.015625)"/>
       </defs>
       <use xlink:href="#Varta-Light-43"/>
       <use xlink:href="#Varta-Light-68" x="56.25"/>
       <use xlink:href="#Varta-Light-69" x="109.960938"/>
       <use xlink:href="#Varta-Light-6e" x="133.886719"/>
       <use xlink:href="#Varta-Light-61" x="187.988281"/>
      </g>
     </g>
    </g>
    <g id="ytick_7">
     <g id="text_12">
      <!-- United States -->
      <g style="fill: #323034" transform="translate(7.2 88.95517)scale(0.11 -0.11)">
       <defs>
        <path id="Varta-Light-53" d="M 1713 -78 
Q 1259 -78 898 86 
Q 538 250 272 531 
L 534 834 
Q 766 588 1070 448 
Q 1375 309 1722 309 
Q 2163 309 2416 514 
Q 2669 719 2669 1053 
Q 2669 1288 2567 1431 
Q 2466 1575 2297 1672 
Q 2128 1769 1925 1859 
L 1309 2134 
Q 1119 2216 923 2352 
Q 728 2488 597 2698 
Q 466 2909 466 3219 
Q 466 3534 636 3773 
Q 806 4013 1098 4147 
Q 1391 4281 1756 4281 
Q 2134 4281 2442 4145 
Q 2750 4009 2959 3788 
L 2722 3503 
Q 2534 3691 2295 3794 
Q 2056 3897 1756 3897 
Q 1378 3897 1140 3725 
Q 903 3553 903 3244 
Q 903 3025 1012 2881 
Q 1122 2738 1284 2645 
Q 1447 2553 1606 2481 
L 2222 2213 
Q 2463 2109 2666 1967 
Q 2869 1825 2991 1614 
Q 3113 1403 3113 1088 
Q 3113 759 2941 495 
Q 2769 231 2455 76 
Q 2141 -78 1713 -78 
z
" transform="scale(0.015625)"/>
        <path id="Varta-Light-73" d="M 1334 -78 
Q 1003 -78 709 47 
Q 416 172 200 350 
L 422 644 
Q 622 481 837 372 
Q 1053 263 1353 263 
Q 1684 263 1850 419 
Q 2016 575 2016 794 
Q 2016 969 1906 1084 
Q 1797 1200 1630 1279 
Q 1463 1359 1288 1422 
Q 1063 1503 845 1611 
Q 628 1719 484 1887 
Q 341 2056 341 2319 
Q 341 2678 612 2925 
Q 884 3172 1378 3172 
Q 1650 3172 1892 3078 
Q 2134 2984 2309 2841 
L 2097 2563 
Q 1941 2681 1769 2756 
Q 1597 2831 1378 2831 
Q 1059 2831 907 2689 
Q 756 2547 756 2353 
Q 756 2200 857 2094 
Q 959 1988 1120 1911 
Q 1281 1834 1459 1766 
Q 1691 1681 1916 1575 
Q 2141 1469 2287 1292 
Q 2434 1116 2434 816 
Q 2434 453 2150 187 
Q 1866 -78 1334 -78 
z
" transform="scale(0.015625)"/>
       </defs>
       <use xlink:href="#Varta-Light-55"/>
       <use xlink:href="#Varta-Light-6e" x="63.476562"/>
       <use xlink:href="#Varta-Light-69" x="117.578125"/>
       <use xlink:href="#Varta-Light-74" x="141.503906"/>
       <use xlink:href="#Varta-Light-65" x="174.21875"/>
       <use xlink:href="#Varta-Light-64" x="223.291016"/>
       <use xlink:href="#Varta-Light-20" x="278.369141"/>
       <use xlink:href="#Varta-Light-53" x="298.486328"/>
       <use xlink:href="#Varta-Light-74" x="350.78125"/>
       <use xlink:href="#Varta-Light-61" x="383.496094"/>
       <use xlink:href="#Varta-Light-74" x="434.179688"/>
       <use xlink:href="#Varta-Light-65" x="466.894531"/>
       <use xlink:href="#Varta-Light-73" x="515.966797"/>
      </g>
     </g>
    </g>
   </g>
   <g id="patch_4">
    <path d="M 110.7 322.2 
L 125.25816 322.2 
L 125.25816 292.552941 
L 110.7 292.552941 
z
" clip-path="url(#p29f402fb35)" style="fill: #006ba2"/>
   </g>
   <g id="patch_5">
    <path d="M 110.7 285.141176 
L 131.065066 285.141176 
L 131.065066 255.494118 
L 110.7 255.494118 
z
" clip-path="url(#p29f402fb35)" style="fill: #006ba2"/>
   </g>
   <g id="patch_6">
    <path d="M 110.7 248.082353 
L 132.700698 248.082353 
L 132.700698 218.435294 
L 110.7 218.435294 
z
" clip-path="url(#p29f402fb35)" style="fill: #006ba2"/>
   </g>
   <g id="patch_7">
    <path d="M 110.7 211.023529 
L 132.794029 211.023529 
L 132.794029 181.376471 
L 110.7 181.376471 
z
" clip-path="url(#p29f402fb35)" style="fill: #006ba2"/>
   </g>
   <g id="patch_8">
    <path d="M 110.7 173.964706 
L 139.978242 173.964706 
L 139.978242 144.317647 
L 110.7 144.317647 
z
" clip-path="url(#p29f402fb35)" style="fill: #006ba2"/>
   </g>
   <g id="patch_9">
    <path d="M 110.7 136.905882 
L 233.647642 136.905882 
L 233.647642 107.258824 
L 110.7 107.258824 
z
" clip-path="url(#p29f402fb35)" style="fill: #006ba2"/>
   </g>
   <g id="patch_10">
    <path d="M 110.7 99.847059 
L 270.128571 99.847059 
L 270.128571 70.2 
L 110.7 70.2 
z
" clip-path="url(#p29f402fb35)" style="fill: #006ba2"/>
   </g>
   <g id="line2d_6">
    <path d="M 8.1 7.2 
L 271.62 7.2 
" style="fill: none; stroke: #e3120b; stroke-width: 0.6; stroke-linecap: square"/>
   </g>
   <g id="patch_11">
    <path d="M 110.7 334.8 
L 110.7 57.6 
" style="fill: none; stroke: #000000; stroke-width: 1.1; stroke-linejoin: miter; stroke-linecap: square"/>
   </g>
   <g id="text_13">
    <!-- The big leagues -->
    <g style="fill: #323034" transform="translate(8.1 28.8)scale(0.13 -0.13)">
     <defs>
      <path id="Varta-Light-54" d="M 1466 0 
L 1466 3838 
L 163 3838 
L 163 4206 
L 3200 4206 
L 3200 3838 
L 1900 3838 
L 1900 0 
L 1466 0 
z
" transform="scale(0.015625)"/>
      <path id="Varta-Light-62" d="M 1863 -78 
Q 1641 -78 1403 22 
Q 1166 122 956 300 
L 934 300 
L 897 0 
L 550 0 
L 550 4575 
L 978 4575 
L 978 3297 
L 963 2719 
Q 1184 2913 1445 3042 
Q 1706 3172 1981 3172 
Q 2606 3172 2906 2745 
Q 3206 2319 3206 1591 
Q 3206 1056 3023 682 
Q 2841 309 2536 115 
Q 2231 -78 1863 -78 
z
M 1803 288 
Q 2231 288 2495 636 
Q 2759 984 2759 1588 
Q 2759 2131 2565 2470 
Q 2372 2809 1888 2809 
Q 1669 2809 1444 2690 
Q 1219 2572 978 2350 
L 978 641 
Q 1203 447 1420 367 
Q 1638 288 1803 288 
z
" transform="scale(0.015625)"/>
      <path id="Varta-Light-75" d="M 1450 -78 
Q 950 -78 728 222 
Q 506 522 506 1116 
L 506 3094 
L 934 3094 
L 934 1175 
Q 934 716 1076 506 
Q 1219 297 1566 297 
Q 1834 297 2029 433 
Q 2225 569 2466 863 
L 2466 3094 
L 2891 3094 
L 2891 0 
L 2538 0 
L 2500 497 
L 2481 497 
Q 2263 241 2023 81 
Q 1784 -78 1450 -78 
z
" transform="scale(0.015625)"/>
     </defs>
     <use xlink:href="#Varta-Light-54"/>
     <use xlink:href="#Varta-Light-68" x="52.539062"/>
     <use xlink:href="#Varta-Light-65" x="106.25"/>
     <use xlink:href="#Varta-Light-20" x="155.322266"/>
     <use xlink:href="#Varta-Light-62" x="175.439453"/>
     <use xlink:href="#Varta-Light-69" x="230.517578"/>
     <use xlink:href="#Varta-Light-67" x="254.443359"/>
     <use xlink:href="#Varta-Light-20" x="304.150391"/>
     <use xlink:href="#Varta-Light-6c" x="324.267578"/>
     <use xlink:href="#Varta-Light-65" x="349.023438"/>
     <use xlink:href="#Varta-Light-61" x="398.095703"/>
     <use xlink:href="#Varta-Light-67" x="448.779297"/>
     <use xlink:href="#Varta-Light-75" x="498.486328"/>
     <use xlink:href="#Varta-Light-65" x="552.246094"/>
     <use xlink:href="#Varta-Light-73" x="601.318359"/>
    </g>
   </g>
   <g id="text_14">
    <!-- 2021 GDP, trillions of USD -->
    <g style="fill: #323034" transform="translate(8.1 41.4)scale(0.11 -0.11)">
     <defs>
      <path id="Varta-Light-44" d="M 575 0 
L 575 4206 
L 1622 4206 
Q 2594 4206 3072 3662 
Q 3550 3119 3550 2122 
Q 3550 1122 3065 561 
Q 2581 0 1619 0 
L 575 0 
z
M 1013 359 
L 1569 359 
Q 2356 359 2728 831 
Q 3100 1303 3100 2122 
Q 3100 2941 2736 3394 
Q 2372 3847 1588 3847 
L 1013 3847 
L 1013 359 
z
" transform="scale(0.015625)"/>
      <path id="Varta-Light-50" d="M 575 0 
L 575 4206 
L 1828 4206 
Q 2306 4206 2643 4087 
Q 2981 3969 3159 3700 
Q 3338 3431 3338 2981 
Q 3338 2338 2939 2013 
Q 2541 1688 1834 1688 
L 1013 1688 
L 1013 0 
L 575 0 
z
M 1013 2047 
L 1763 2047 
Q 2369 2047 2636 2276 
Q 2903 2506 2903 2981 
Q 2903 3469 2628 3659 
Q 2353 3850 1756 3850 
L 1013 3850 
L 1013 2047 
z
" transform="scale(0.015625)"/>
      <path id="Varta-Light-2c" d="M 416 -1103 
L 300 -856 
Q 547 -738 695 -505 
Q 844 -272 847 -9 
Q 828 -13 809 -14 
Q 791 -16 775 -16 
Q 641 -16 541 67 
Q 441 150 441 309 
Q 441 466 545 552 
Q 650 638 784 638 
Q 969 638 1075 491 
Q 1181 344 1181 84 
Q 1181 -303 972 -623 
Q 763 -944 416 -1103 
z
" transform="scale(0.015625)"/>
      <path id="Varta-Light-66" d="M 622 0 
L 622 2741 
L 200 2741 
L 200 3066 
L 622 3094 
L 622 3672 
Q 622 4141 834 4397 
Q 1047 4653 1469 4653 
Q 1600 4653 1726 4623 
Q 1853 4594 1959 4550 
L 1859 4219 
Q 1772 4259 1680 4279 
Q 1588 4300 1500 4300 
Q 1047 4300 1047 3666 
L 1047 3094 
L 1725 3094 
L 1725 2741 
L 1047 2741 
L 1047 0 
L 622 0 
z
" transform="scale(0.015625)"/>
     </defs>
     <use xlink:href="#Varta-Light-32"/>
     <use xlink:href="#Varta-Light-30" x="48.974609"/>
     <use xlink:href="#Varta-Light-32" x="97.949219"/>
     <use xlink:href="#Varta-Light-31" x="146.923828"/>
     <use xlink:href="#Varta-Light-20" x="195.898438"/>
     <use xlink:href="#Varta-Light-47" x="216.015625"/>
     <use xlink:href="#Varta-Light-44" x="276.611328"/>
     <use xlink:href="#Varta-Light-50" x="337.255859"/>
     <use xlink:href="#Varta-Light-2c" x="393.505859"/>
     <use xlink:href="#Varta-Light-20" x="417.1875"/>
     <use xlink:href="#Varta-Light-74" x="437.304688"/>
     <use xlink:href="#Varta-Light-72" x="470.019531"/>
     <use xlink:href="#Varta-Light-69" x="503.515625"/>
     <use xlink:href="#Varta-Light-6c" x="527.441406"/>
     <use xlink:href="#Varta-Light-6c" x="552.197266"/>
     <use xlink:href="#Varta-Light-69" x="576.953125"/>
     <use xlink:href="#Varta-Light-6f" x="600.878906"/>
     <use xlink:href="#Varta-Light-6e" x="654.785156"/>
     <use xlink:href="#Varta-Light-73" x="708.886719"/>
     <use xlink:href="#Varta-Light-20" x="750.195312"/>
     <use xlink:href="#Varta-Light-6f" x="770.3125"/>
     <use xlink:href="#Varta-Light-66" x="824.21875"/>
     <use xlink:href="#Varta-Light-20" x="852.246094"/>
     <use xlink:href="#Varta-Light-55" x="872.363281"/>
     <use xlink:href="#Varta-Light-53" x="935.839844"/>
     <use xlink:href="#Varta-Light-44" x="988.134766"/>
    </g>
   </g>
   <g id="text_15">
    <!-- Source: World Bank -->
    <g style="fill: #323034; opacity: 0.7" transform="translate(8.1 345.6)scale(0.09 -0.09)">
     <defs>
      <path id="Varta-Light-3a" d="M 759 2288 
Q 625 2288 523 2386 
Q 422 2485 422 2641 
Q 422 2807 523 2905 
Q 625 3004 759 3004 
Q 897 3004 995 2905 
Q 1094 2807 1094 2641 
Q 1094 2485 995 2386 
Q 897 2288 759 2288 
z
M 759 -78 
Q 625 -78 523 20 
Q 422 119 422 275 
Q 422 441 523 539 
Q 625 638 759 638 
Q 897 638 995 539 
Q 1094 441 1094 275 
Q 1094 119 995 20 
Q 897 -78 759 -78 
z
" transform="scale(0.015625)"/>
      <path id="Varta-Light-57" d="M 1056 0 
L 138 4206 
L 594 4206 
L 1066 1841 
Q 1138 1500 1203 1159 
Q 1269 819 1334 475 
L 1359 475 
Q 1431 819 1509 1159 
Q 1588 1500 1666 1841 
L 2281 4206 
L 2691 4206 
L 3306 1841 
Q 3384 1503 3462 1161 
Q 3541 819 3619 475 
L 3647 475 
Q 3713 819 3777 1159 
Q 3841 1500 3900 1841 
L 4378 4206 
L 4803 4206 
L 3900 0 
L 3388 0 
L 2697 2678 
Q 2644 2925 2591 3154 
Q 2538 3384 2488 3631 
L 2463 3631 
Q 2413 3384 2356 3154 
Q 2300 2925 2244 2678 
L 1566 0 
L 1056 0 
z
" transform="scale(0.015625)"/>
      <path id="Varta-Light-42" d="M 575 0 
L 575 4206 
L 1797 4206 
Q 2222 4206 2536 4104 
Q 2850 4003 3025 3779 
Q 3200 3556 3200 3191 
Q 3200 2869 3028 2611 
Q 2856 2353 2459 2266 
L 2459 2241 
Q 2925 2191 3186 1933 
Q 3447 1675 3447 1234 
Q 3447 822 3251 548 
Q 3056 275 2704 137 
Q 2353 0 1881 0 
L 575 0 
z
M 1013 350 
L 1803 350 
Q 2378 350 2698 569 
Q 3019 788 3019 1250 
Q 3019 1669 2706 1862 
Q 2394 2056 1803 2056 
L 1013 2056 
L 1013 350 
z
M 1013 2388 
L 1688 2388 
Q 2269 2388 2519 2586 
Q 2769 2784 2769 3166 
Q 2769 3538 2508 3697 
Q 2247 3856 1722 3856 
L 1013 3856 
L 1013 2388 
z
" transform="scale(0.015625)"/>
      <path id="Varta-Light-6b" d="M 550 0 
L 550 4575 
L 972 4575 
L 972 1366 
L 991 1366 
L 2394 3094 
L 2869 3094 
L 1844 1859 
L 3022 0 
L 2553 0 
L 1600 1556 
L 972 825 
L 972 0 
L 550 0 
z
" transform="scale(0.015625)"/>
     </defs>
     <use xlink:href="#Varta-Light-53"/>
     <use xlink:href="#Varta-Light-6f" x="52.294922"/>
     <use xlink:href="#Varta-Light-75" x="106.201172"/>
     <use xlink:href="#Varta-Light-72" x="159.960938"/>
     <use xlink:href="#Varta-Light-63" x="193.457031"/>
     <use xlink:href="#Varta-Light-65" x="238.769531"/>
     <use xlink:href="#Varta-Light-3a" x="287.841797"/>
     <use xlink:href="#Varta-Light-20" x="311.523438"/>
     <use xlink:href="#Varta-Light-57" x="331.640625"/>
     <use xlink:href="#Varta-Light-6f" x="408.984375"/>
     <use xlink:href="#Varta-Light-72" x="462.890625"/>
     <use xlink:href="#Varta-Light-6c" x="496.386719"/>
     <use xlink:href="#Varta-Light-64" x="521.142578"/>
     <use xlink:href="#Varta-Light-20" x="576.220703"/>
     <use xlink:href="#Varta-Light-42" x="596.337891"/>
     <use xlink:href="#Varta-Light-61" x="654.150391"/>
     <use xlink:href="#Varta-Light-6e" x="704.833984"/>
     <use xlink:href="#Varta-Light-6b" x="758.935547"/>
    </g>
   </g>
  </g>
 </g>
 <defs>
  <clipPath id="p29f402fb35">
   <rect x="110.7" y="57.6" width="167.4" height="277.2"/>
  </clipPath>
 </defs>
</svg>
