<?xml version="1.0" encoding="utf-8" standalone="no"?>
<!DOCTYPE svg PUBLIC "-//W3C//DTD SVG 1.1//EN"
  "http://www.w3.org/Graphics/SVG/1.1/DTD/svg11.dtd">
<svg xmlns:xlink="http://www.w3.org/1999/xlink" width="526.197281pt" height="366.236491pt" viewBox="0 0 526.197281 366.236491" xmlns="http://www.w3.org/2000/svg" version="1.1">
 <metadata>
  <rdf:RDF xmlns:dc="http://purl.org/dc/elements/1.1/" xmlns:cc="http://creativecommons.org/ns#" xmlns:rdf="http://www.w3.org/1999/02/22-rdf-syntax-ns#">
   <cc:Work>
    <dc:type rdf:resource="http://purl.org/dc/dcmitype/StillImage"/>
    <dc:date>2022-10-28T18:06:55.901982</dc:date>
    <dc:format>image/svg+xml</dc:format>
    <dc:creator>
     <cc:Agent>
      <dc:title>Matplotlib v3.5.3, https://matplotlib.org/</dc:title>
     </cc:Agent>
    </dc:creator>
   </cc:Work>
  </rdf:RDF>
 </metadata>
 <defs>
  <style type="text/css">*{stroke-linejoin: round; stroke-linecap: butt}</style>
 </defs>
 <g id="figure_1">
  <g id="patch_1">
   <path d="M 0 366.236491 
L 526.197281 366.236491 
L 526.197281 0 
L 0 0 
z
" style="fill: #ffffff; stroke: #ffffff; stroke-linejoin: miter"/>
  </g>
  <g id="axes_1">
   <g id="patch_2">
    <path d="M 45.768063 145.172804 
L 402.888063 145.172804 
L 402.888063 21.786804 
L 45.768063 21.786804 
z
" style="fill: #ebebeb"/>
   </g>
   <g id="matplotlib.axis_1">
    <g id="xtick_1">
     <g id="line2d_1">
      <path d="M 62.00079 145.172804 
L 62.00079 21.786804 
" clip-path="url(#pfb720ea2fc)" style="fill: none; stroke: #ffffff"/>
     </g>
    </g>
    <g id="xtick_2">
     <g id="line2d_2">
      <path d="M 134.185754 145.172804 
L 134.185754 21.786804 
" clip-path="url(#pfb720ea2fc)" style="fill: none; stroke: #ffffff"/>
     </g>
    </g>
    <g id="xtick_3">
     <g id="line2d_3">
      <path d="M 206.331209 145.172804 
L 206.331209 21.786804 
" clip-path="url(#pfb720ea2fc)" style="fill: none; stroke: #ffffff"/>
     </g>
    </g>
    <g id="xtick_4">
     <g id="line2d_4">
      <path d="M 278.476664 145.172804 
L 278.476664 21.786804 
" clip-path="url(#pfb720ea2fc)" style="fill: none; stroke: #ffffff"/>
     </g>
    </g>
    <g id="xtick_5">
     <g id="line2d_5">
      <path d="M 350.622118 145.172804 
L 350.622118 21.786804 
" clip-path="url(#pfb720ea2fc)" style="fill: none; stroke: #ffffff"/>
     </g>
    </g>
    <g id="xtick_6">
     <g id="line2d_6">
      <path d="M 98.093272 145.172804 
L 98.093272 21.786804 
" clip-path="url(#pfb720ea2fc)" style="fill: none; stroke: #ffffff; stroke-width: 0.5"/>
     </g>
    </g>
    <g id="xtick_7">
     <g id="line2d_7">
      <path d="M 170.258482 145.172804 
L 170.258482 21.786804 
" clip-path="url(#pfb720ea2fc)" style="fill: none; stroke: #ffffff; stroke-width: 0.5"/>
     </g>
    </g>
    <g id="xtick_8">
     <g id="line2d_8">
      <path d="M 242.403936 145.172804 
L 242.403936 21.786804 
" clip-path="url(#pfb720ea2fc)" style="fill: none; stroke: #ffffff; stroke-width: 0.5"/>
     </g>
    </g>
    <g id="xtick_9">
     <g id="line2d_9">
      <path d="M 314.549391 145.172804 
L 314.549391 21.786804 
" clip-path="url(#pfb720ea2fc)" style="fill: none; stroke: #ffffff; stroke-width: 0.5"/>
     </g>
    </g>
    <g id="xtick_10">
     <g id="line2d_10">
      <path d="M 386.7146 145.172804 
L 386.7146 21.786804 
" clip-path="url(#pfb720ea2fc)" style="fill: none; stroke: #ffffff; stroke-width: 0.5"/>
     </g>
    </g>
   </g>
   <g id="matplotlib.axis_2">
    <g id="ytick_1">
     <g id="line2d_11">
      <path d="M 45.768063 133.280669 
L 402.888063 133.280669 
" clip-path="url(#pfb720ea2fc)" style="fill: none; stroke: #ffffff"/>
     </g>
     <g id="line2d_12">
      <path d="M 45.768063 133.280669 
" style="fill: none; stroke: #000000; stroke-width: 1.5"/>
      <defs>
       <path id="m035b51885f" d="M 0 0 
L -2.75 0 
" style="stroke: #333333"/>
      </defs>
      <g>
       <use xlink:href="#m035b51885f" x="45.768063" y="133.280669" style="stroke: #333333"/>
      </g>
     </g>
     <g id="text_1">
      <!-- −20 -->
      <g style="fill: #4d4d4d" transform="translate(22.245938 135.708919)scale(0.088 -0.088)">
       <defs>
        <path id="DejaVuSans-2212" d="M 678 2272 
L 4684 2272 
L 4684 1741 
L 678 1741 
L 678 2272 
z
" transform="scale(0.015625)"/>
        <path id="DejaVuSans-32" d="M 1228 531 
L 3431 531 
L 3431 0 
L 469 0 
L 469 531 
Q 828 903 1448 1529 
Q 2069 2156 2228 2338 
Q 2531 2678 2651 2914 
Q 2772 3150 2772 3378 
Q 2772 3750 2511 3984 
Q 2250 4219 1831 4219 
Q 1534 4219 1204 4116 
Q 875 4013 500 3803 
L 500 4441 
Q 881 4594 1212 4672 
Q 1544 4750 1819 4750 
Q 2544 4750 2975 4387 
Q 3406 4025 3406 3419 
Q 3406 3131 3298 2873 
Q 3191 2616 2906 2266 
Q 2828 2175 2409 1742 
Q 1991 1309 1228 531 
z
" transform="scale(0.015625)"/>
        <path id="DejaVuSans-30" d="M 2034 4250 
Q 1547 4250 1301 3770 
Q 1056 3291 1056 2328 
Q 1056 1369 1301 889 
Q 1547 409 2034 409 
Q 2525 409 2770 889 
Q 3016 1369 3016 2328 
Q 3016 3291 2770 3770 
Q 2525 4250 2034 4250 
z
M 2034 4750 
Q 2819 4750 3233 4129 
Q 3647 3509 3647 2328 
Q 3647 1150 3233 529 
Q 2819 -91 2034 -91 
Q 1250 -91 836 529 
Q 422 1150 422 2328 
Q 422 3509 836 4129 
Q 1250 4750 2034 4750 
z
" transform="scale(0.015625)"/>
       </defs>
       <use xlink:href="#DejaVuSans-2212"/>
       <use xlink:href="#DejaVuSans-32" x="83.789062"/>
       <use xlink:href="#DejaVuSans-30" x="147.412109"/>
      </g>
     </g>
    </g>
    <g id="ytick_2">
     <g id="line2d_13">
      <path d="M 45.768063 109.364775 
L 402.888063 109.364775 
" clip-path="url(#pfb720ea2fc)" style="fill: none; stroke: #ffffff"/>
     </g>
     <g id="line2d_14">
      <path d="M 45.768063 109.364775 
" style="fill: none; stroke: #000000; stroke-width: 1.5"/>
      <g>
       <use xlink:href="#m035b51885f" x="45.768063" y="109.364775" style="stroke: #333333"/>
      </g>
     </g>
     <g id="text_2">
      <!-- −10 -->
      <g style="fill: #4d4d4d" transform="translate(22.245938 111.793025)scale(0.088 -0.088)">
       <defs>
        <path id="DejaVuSans-31" d="M 794 531 
L 1825 531 
L 1825 4091 
L 703 3866 
L 703 4441 
L 1819 4666 
L 2450 4666 
L 2450 531 
L 3481 531 
L 3481 0 
L 794 0 
L 794 531 
z
" transform="scale(0.015625)"/>
       </defs>
       <use xlink:href="#DejaVuSans-2212"/>
       <use xlink:href="#DejaVuSans-31" x="83.789062"/>
       <use xlink:href="#DejaVuSans-30" x="147.412109"/>
      </g>
     </g>
    </g>
    <g id="ytick_3">
     <g id="line2d_15">
      <path d="M 45.768063 85.44888 
L 402.888063 85.44888 
" clip-path="url(#pfb720ea2fc)" style="fill: none; stroke: #ffffff"/>
     </g>
     <g id="line2d_16">
      <path d="M 45.768063 85.44888 
" style="fill: none; stroke: #000000; stroke-width: 1.5"/>
      <g>
       <use xlink:href="#m035b51885f" x="45.768063" y="85.44888" style="stroke: #333333"/>
      </g>
     </g>
     <g id="text_3">
      <!-- 0 -->
      <g style="fill: #4d4d4d" transform="translate(35.219063 87.87713)scale(0.088 -0.088)">
       <use xlink:href="#DejaVuSans-30"/>
      </g>
     </g>
    </g>
    <g id="ytick_4">
     <g id="line2d_17">
      <path d="M 45.768063 61.532986 
L 402.888063 61.532986 
" clip-path="url(#pfb720ea2fc)" style="fill: none; stroke: #ffffff"/>
     </g>
     <g id="line2d_18">
      <path d="M 45.768063 61.532986 
" style="fill: none; stroke: #000000; stroke-width: 1.5"/>
      <g>
       <use xlink:href="#m035b51885f" x="45.768063" y="61.532986" style="stroke: #333333"/>
      </g>
     </g>
     <g id="text_4">
      <!-- 10 -->
      <g style="fill: #4d4d4d" transform="translate(29.620063 63.961236)scale(0.088 -0.088)">
       <use xlink:href="#DejaVuSans-31"/>
       <use xlink:href="#DejaVuSans-30" x="63.623047"/>
      </g>
     </g>
    </g>
    <g id="ytick_5">
     <g id="line2d_19">
      <path d="M 45.768063 37.617091 
L 402.888063 37.617091 
" clip-path="url(#pfb720ea2fc)" style="fill: none; stroke: #ffffff"/>
     </g>
     <g id="line2d_20">
      <path d="M 45.768063 37.617091 
" style="fill: none; stroke: #000000; stroke-width: 1.5"/>
      <g>
       <use xlink:href="#m035b51885f" x="45.768063" y="37.617091" style="stroke: #333333"/>
      </g>
     </g>
     <g id="text_5">
      <!-- 20 -->
      <g style="fill: #4d4d4d" transform="translate(29.620063 40.045341)scale(0.088 -0.088)">
       <use xlink:href="#DejaVuSans-32"/>
       <use xlink:href="#DejaVuSans-30" x="63.623047"/>
      </g>
     </g>
    </g>
    <g id="ytick_6">
     <g id="line2d_21">
      <path d="M 45.768063 121.322722 
L 402.888063 121.322722 
" clip-path="url(#pfb720ea2fc)" style="fill: none; stroke: #ffffff; stroke-width: 0.5"/>
     </g>
    </g>
    <g id="ytick_7">
     <g id="line2d_22">
      <path d="M 45.768063 97.406827 
L 402.888063 97.406827 
" clip-path="url(#pfb720ea2fc)" style="fill: none; stroke: #ffffff; stroke-width: 0.5"/>
     </g>
    </g>
    <g id="ytick_8">
     <g id="line2d_23">
      <path d="M 45.768063 73.490933 
L 402.888063 73.490933 
" clip-path="url(#pfb720ea2fc)" style="fill: none; stroke: #ffffff; stroke-width: 0.5"/>
     </g>
    </g>
    <g id="ytick_9">
     <g id="line2d_24">
      <path d="M 45.768063 49.575039 
L 402.888063 49.575039 
" clip-path="url(#pfb720ea2fc)" style="fill: none; stroke: #ffffff; stroke-width: 0.5"/>
     </g>
    </g>
    <g id="ytick_10">
     <g id="line2d_25">
      <path d="M 45.768063 25.659144 
L 402.888063 25.659144 
" clip-path="url(#pfb720ea2fc)" style="fill: none; stroke: #ffffff; stroke-width: 0.5"/>
     </g>
    </g>
    <g id="text_6">
     <!-- Real GDP growth, % -->
     <g transform="translate(15.558281 208.136288)rotate(-90)scale(0.11 -0.11)">
      <defs>
       <path id="DejaVuSans-52" d="M 2841 2188 
Q 3044 2119 3236 1894 
Q 3428 1669 3622 1275 
L 4263 0 
L 3584 0 
L 2988 1197 
Q 2756 1666 2539 1819 
Q 2322 1972 1947 1972 
L 1259 1972 
L 1259 0 
L 628 0 
L 628 4666 
L 2053 4666 
Q 2853 4666 3247 4331 
Q 3641 3997 3641 3322 
Q 3641 2881 3436 2590 
Q 3231 2300 2841 2188 
z
M 1259 4147 
L 1259 2491 
L 2053 2491 
Q 2509 2491 2742 2702 
Q 2975 2913 2975 3322 
Q 2975 3731 2742 3939 
Q 2509 4147 2053 4147 
L 1259 4147 
z
" transform="scale(0.015625)"/>
       <path id="DejaVuSans-65" d="M 3597 1894 
L 3597 1613 
L 953 1613 
Q 991 1019 1311 708 
Q 1631 397 2203 397 
Q 2534 397 2845 478 
Q 3156 559 3463 722 
L 3463 178 
Q 3153 47 2828 -22 
Q 2503 -91 2169 -91 
Q 1331 -91 842 396 
Q 353 884 353 1716 
Q 353 2575 817 3079 
Q 1281 3584 2069 3584 
Q 2775 3584 3186 3129 
Q 3597 2675 3597 1894 
z
M 3022 2063 
Q 3016 2534 2758 2815 
Q 2500 3097 2075 3097 
Q 1594 3097 1305 2825 
Q 1016 2553 972 2059 
L 3022 2063 
z
" transform="scale(0.015625)"/>
       <path id="DejaVuSans-61" d="M 2194 1759 
Q 1497 1759 1228 1600 
Q 959 1441 959 1056 
Q 959 750 1161 570 
Q 1363 391 1709 391 
Q 2188 391 2477 730 
Q 2766 1069 2766 1631 
L 2766 1759 
L 2194 1759 
z
M 3341 1997 
L 3341 0 
L 2766 0 
L 2766 531 
Q 2569 213 2275 61 
Q 1981 -91 1556 -91 
Q 1019 -91 701 211 
Q 384 513 384 1019 
Q 384 1609 779 1909 
Q 1175 2209 1959 2209 
L 2766 2209 
L 2766 2266 
Q 2766 2663 2505 2880 
Q 2244 3097 1772 3097 
Q 1472 3097 1187 3025 
Q 903 2953 641 2809 
L 641 3341 
Q 956 3463 1253 3523 
Q 1550 3584 1831 3584 
Q 2591 3584 2966 3190 
Q 3341 2797 3341 1997 
z
" transform="scale(0.015625)"/>
       <path id="DejaVuSans-6c" d="M 603 4863 
L 1178 4863 
L 1178 0 
L 603 0 
L 603 4863 
z
" transform="scale(0.015625)"/>
       <path id="DejaVuSans-20" transform="scale(0.015625)"/>
       <path id="DejaVuSans-47" d="M 3809 666 
L 3809 1919 
L 2778 1919 
L 2778 2438 
L 4434 2438 
L 4434 434 
Q 4069 175 3628 42 
Q 3188 -91 2688 -91 
Q 1594 -91 976 548 
Q 359 1188 359 2328 
Q 359 3472 976 4111 
Q 1594 4750 2688 4750 
Q 3144 4750 3555 4637 
Q 3966 4525 4313 4306 
L 4313 3634 
Q 3963 3931 3569 4081 
Q 3175 4231 2741 4231 
Q 1884 4231 1454 3753 
Q 1025 3275 1025 2328 
Q 1025 1384 1454 906 
Q 1884 428 2741 428 
Q 3075 428 3337 486 
Q 3600 544 3809 666 
z
" transform="scale(0.015625)"/>
       <path id="DejaVuSans-44" d="M 1259 4147 
L 1259 519 
L 2022 519 
Q 2988 519 3436 956 
Q 3884 1394 3884 2338 
Q 3884 3275 3436 3711 
Q 2988 4147 2022 4147 
L 1259 4147 
z
M 628 4666 
L 1925 4666 
Q 3281 4666 3915 4102 
Q 4550 3538 4550 2338 
Q 4550 1131 3912 565 
Q 3275 0 1925 0 
L 628 0 
L 628 4666 
z
" transform="scale(0.015625)"/>
       <path id="DejaVuSans-50" d="M 1259 4147 
L 1259 2394 
L 2053 2394 
Q 2494 2394 2734 2622 
Q 2975 2850 2975 3272 
Q 2975 3691 2734 3919 
Q 2494 4147 2053 4147 
L 1259 4147 
z
M 628 4666 
L 2053 4666 
Q 2838 4666 3239 4311 
Q 3641 3956 3641 3272 
Q 3641 2581 3239 2228 
Q 2838 1875 2053 1875 
L 1259 1875 
L 1259 0 
L 628 0 
L 628 4666 
z
" transform="scale(0.015625)"/>
       <path id="DejaVuSans-67" d="M 2906 1791 
Q 2906 2416 2648 2759 
Q 2391 3103 1925 3103 
Q 1463 3103 1205 2759 
Q 947 2416 947 1791 
Q 947 1169 1205 825 
Q 1463 481 1925 481 
Q 2391 481 2648 825 
Q 2906 1169 2906 1791 
z
M 3481 434 
Q 3481 -459 3084 -895 
Q 2688 -1331 1869 -1331 
Q 1566 -1331 1297 -1286 
Q 1028 -1241 775 -1147 
L 775 -588 
Q 1028 -725 1275 -790 
Q 1522 -856 1778 -856 
Q 2344 -856 2625 -561 
Q 2906 -266 2906 331 
L 2906 616 
Q 2728 306 2450 153 
Q 2172 0 1784 0 
Q 1141 0 747 490 
Q 353 981 353 1791 
Q 353 2603 747 3093 
Q 1141 3584 1784 3584 
Q 2172 3584 2450 3431 
Q 2728 3278 2906 2969 
L 2906 3500 
L 3481 3500 
L 3481 434 
z
" transform="scale(0.015625)"/>
       <path id="DejaVuSans-72" d="M 2631 2963 
Q 2534 3019 2420 3045 
Q 2306 3072 2169 3072 
Q 1681 3072 1420 2755 
Q 1159 2438 1159 1844 
L 1159 0 
L 581 0 
L 581 3500 
L 1159 3500 
L 1159 2956 
Q 1341 3275 1631 3429 
Q 1922 3584 2338 3584 
Q 2397 3584 2469 3576 
Q 2541 3569 2628 3553 
L 2631 2963 
z
" transform="scale(0.015625)"/>
       <path id="DejaVuSans-6f" d="M 1959 3097 
Q 1497 3097 1228 2736 
Q 959 2375 959 1747 
Q 959 1119 1226 758 
Q 1494 397 1959 397 
Q 2419 397 2687 759 
Q 2956 1122 2956 1747 
Q 2956 2369 2687 2733 
Q 2419 3097 1959 3097 
z
M 1959 3584 
Q 2709 3584 3137 3096 
Q 3566 2609 3566 1747 
Q 3566 888 3137 398 
Q 2709 -91 1959 -91 
Q 1206 -91 779 398 
Q 353 888 353 1747 
Q 353 2609 779 3096 
Q 1206 3584 1959 3584 
z
" transform="scale(0.015625)"/>
       <path id="DejaVuSans-77" d="M 269 3500 
L 844 3500 
L 1563 769 
L 2278 3500 
L 2956 3500 
L 3675 769 
L 4391 3500 
L 4966 3500 
L 4050 0 
L 3372 0 
L 2619 2869 
L 1863 0 
L 1184 0 
L 269 3500 
z
" transform="scale(0.015625)"/>
       <path id="DejaVuSans-74" d="M 1172 4494 
L 1172 3500 
L 2356 3500 
L 2356 3053 
L 1172 3053 
L 1172 1153 
Q 1172 725 1289 603 
Q 1406 481 1766 481 
L 2356 481 
L 2356 0 
L 1766 0 
Q 1100 0 847 248 
Q 594 497 594 1153 
L 594 3053 
L 172 3053 
L 172 3500 
L 594 3500 
L 594 4494 
L 1172 4494 
z
" transform="scale(0.015625)"/>
       <path id="DejaVuSans-68" d="M 3513 2113 
L 3513 0 
L 2938 0 
L 2938 2094 
Q 2938 2591 2744 2837 
Q 2550 3084 2163 3084 
Q 1697 3084 1428 2787 
Q 1159 2491 1159 1978 
L 1159 0 
L 581 0 
L 581 4863 
L 1159 4863 
L 1159 2956 
Q 1366 3272 1645 3428 
Q 1925 3584 2291 3584 
Q 2894 3584 3203 3211 
Q 3513 2838 3513 2113 
z
" transform="scale(0.015625)"/>
       <path id="DejaVuSans-2c" d="M 750 794 
L 1409 794 
L 1409 256 
L 897 -744 
L 494 -744 
L 750 256 
L 750 794 
z
" transform="scale(0.015625)"/>
       <path id="DejaVuSans-25" d="M 4653 2053 
Q 4381 2053 4226 1822 
Q 4072 1591 4072 1178 
Q 4072 772 4226 539 
Q 4381 306 4653 306 
Q 4919 306 5073 539 
Q 5228 772 5228 1178 
Q 5228 1588 5073 1820 
Q 4919 2053 4653 2053 
z
M 4653 2450 
Q 5147 2450 5437 2106 
Q 5728 1763 5728 1178 
Q 5728 594 5436 251 
Q 5144 -91 4653 -91 
Q 4153 -91 3862 251 
Q 3572 594 3572 1178 
Q 3572 1766 3864 2108 
Q 4156 2450 4653 2450 
z
M 1428 4353 
Q 1159 4353 1004 4120 
Q 850 3888 850 3481 
Q 850 3069 1003 2837 
Q 1156 2606 1428 2606 
Q 1700 2606 1854 2837 
Q 2009 3069 2009 3481 
Q 2009 3884 1853 4118 
Q 1697 4353 1428 4353 
z
M 4250 4750 
L 4750 4750 
L 1831 -91 
L 1331 -91 
L 4250 4750 
z
M 1428 4750 
Q 1922 4750 2215 4408 
Q 2509 4066 2509 3481 
Q 2509 2891 2217 2550 
Q 1925 2209 1428 2209 
Q 931 2209 642 2551 
Q 353 2894 353 3481 
Q 353 4063 643 4406 
Q 934 4750 1428 4750 
z
" transform="scale(0.015625)"/>
      </defs>
      <use xlink:href="#DejaVuSans-52"/>
      <use xlink:href="#DejaVuSans-65" x="64.982422"/>
      <use xlink:href="#DejaVuSans-61" x="126.505859"/>
      <use xlink:href="#DejaVuSans-6c" x="187.785156"/>
      <use xlink:href="#DejaVuSans-20" x="215.568359"/>
      <use xlink:href="#DejaVuSans-47" x="247.355469"/>
      <use xlink:href="#DejaVuSans-44" x="324.845703"/>
      <use xlink:href="#DejaVuSans-50" x="401.847656"/>
      <use xlink:href="#DejaVuSans-20" x="462.150391"/>
      <use xlink:href="#DejaVuSans-67" x="493.9375"/>
      <use xlink:href="#DejaVuSans-72" x="557.414062"/>
      <use xlink:href="#DejaVuSans-6f" x="596.277344"/>
      <use xlink:href="#DejaVuSans-77" x="657.458984"/>
      <use xlink:href="#DejaVuSans-74" x="739.246094"/>
      <use xlink:href="#DejaVuSans-68" x="778.455078"/>
      <use xlink:href="#DejaVuSans-2c" x="841.833984"/>
      <use xlink:href="#DejaVuSans-20" x="873.621094"/>
      <use xlink:href="#DejaVuSans-25" x="905.408203"/>
     </g>
    </g>
   </g>
   <g id="line2d_26">
    <path d="M 62.00079 74.030869 
L 65.596209 73.404971 
L 69.191629 76.296934 
L 72.826559 78.794848 
L 76.461489 79.535816 
L 80.017398 80.239261 
L 83.612818 80.360629 
L 87.247748 81.009043 
L 90.882678 82.238542 
L 94.438587 81.852509 
L 98.034007 81.210266 
L 101.668937 79.568439 
L 105.303867 78.870054 
L 108.859776 78.062282 
L 112.455196 77.426549 
L 116.090126 77.575413 
L 119.725055 78.038328 
L 123.320475 78.838323 
L 126.915895 80.65609 
L 130.550825 81.772402 
L 134.185754 81.033683 
L 137.741664 80.022319 
L 141.337084 78.511637 
L 144.972014 76.726292 
L 148.606943 77.724107 
L 152.162853 79.462345 
L 155.758273 81.200764 
L 159.393202 82.663722 
L 163.028132 80.985384 
L 166.584042 79.956781 
L 170.179461 78.446468 
L 173.814391 77.897311 
L 177.449321 79.255198 
L 181.044741 82.02264 
L 184.64016 87.497337 
L 188.27509 94.319835 
L 191.91002 99.878826 
L 195.46593 99.450637 
L 199.061349 95.689077 
L 202.696279 89.655723 
L 206.331209 82.729391 
L 209.887119 79.259299 
L 213.482538 78.028994 
L 217.117468 78.529369 
L 220.752398 80.226402 
L 224.308307 82.855688 
L 227.903727 84.010369 
L 231.538657 84.440722 
L 235.173587 83.058857 
L 238.769006 83.32823 
L 242.364426 80.705025 
L 245.999356 80.850785 
L 249.634286 82.291879 
L 253.190195 80.509829 
L 256.785615 81.699736 
L 260.420545 79.890197 
L 264.055475 78.174239 
L 267.611384 77.696296 
L 271.206804 77.670238 
L 274.841734 77.650776 
L 278.476664 78.93408 
L 282.032573 79.52189 
L 285.627993 80.321538 
L 289.262923 80.107934 
L 292.897852 80.223143 
L 296.493272 80.23145 
L 300.088692 80.205391 
L 303.723622 80.420622 
L 307.358551 79.511227 
L 310.914461 79.73837 
L 314.509881 79.557154 
L 318.14481 79.612245 
L 321.77974 81.045638 
L 325.33565 81.242736 
L 328.93107 81.14624 
L 332.565999 82.041801 
L 336.200929 80.877778 
L 339.756839 81.714545 
L 343.352258 81.58153 
L 346.987188 82.265799 
L 350.622118 90.143613 
L 354.217538 139.564349 
L 357.812957 110.14127 
L 361.447887 107.483377 
L 365.082817 104.201227 
L 368.638727 27.395258 
L 372.234146 65.226417 
L 375.869076 64.182163 
L 379.504006 59.279067 
L 383.059916 74.983715 
L 386.655335 79.315353 
" clip-path="url(#pfb720ea2fc)" style="fill: none; stroke: #db5f57; stroke-width: 0.886227"/>
   </g>
   <g id="patch_3">
    <path d="M 45.768063 21.786804 
L 402.888063 21.786804 
L 402.888063 7.2 
L 45.768063 7.2 
z
" style="fill: #d9d9d9"/>
   </g>
   <g id="text_7">
    <!-- UK -->
    <g style="fill: #1a1a1a" transform="translate(218.222375 16.921652)scale(0.088 -0.088)">
     <defs>
      <path id="DejaVuSans-55" d="M 556 4666 
L 1191 4666 
L 1191 1831 
Q 1191 1081 1462 751 
Q 1734 422 2344 422 
Q 2950 422 3222 751 
Q 3494 1081 3494 1831 
L 3494 4666 
L 4128 4666 
L 4128 1753 
Q 4128 841 3676 375 
Q 3225 -91 2344 -91 
Q 1459 -91 1007 375 
Q 556 841 556 1753 
L 556 4666 
z
" transform="scale(0.015625)"/>
      <path id="DejaVuSans-4b" d="M 628 4666 
L 1259 4666 
L 1259 2694 
L 3353 4666 
L 4166 4666 
L 1850 2491 
L 4331 0 
L 3500 0 
L 1259 2247 
L 1259 0 
L 628 0 
L 628 4666 
z
" transform="scale(0.015625)"/>
     </defs>
     <use xlink:href="#DejaVuSans-55"/>
     <use xlink:href="#DejaVuSans-4b" x="73.193359"/>
    </g>
   </g>
   <g id="patch_4">
    <path d="M 410.088063 189.677773 
L 518.997281 189.677773 
L 518.997281 116.551835 
L 410.088063 116.551835 
z
" style="fill: #ffffff"/>
   </g>
   <g id="text_8">
    <!-- factor(Country) -->
    <g transform="translate(422.288063 140.145429)scale(0.11 -0.11)">
     <defs>
      <path id="DejaVuSans-66" d="M 2375 4863 
L 2375 4384 
L 1825 4384 
Q 1516 4384 1395 4259 
Q 1275 4134 1275 3809 
L 1275 3500 
L 2222 3500 
L 2222 3053 
L 1275 3053 
L 1275 0 
L 697 0 
L 697 3053 
L 147 3053 
L 147 3500 
L 697 3500 
L 697 3744 
Q 697 4328 969 4595 
Q 1241 4863 1831 4863 
L 2375 4863 
z
" transform="scale(0.015625)"/>
      <path id="DejaVuSans-63" d="M 3122 3366 
L 3122 2828 
Q 2878 2963 2633 3030 
Q 2388 3097 2138 3097 
Q 1578 3097 1268 2742 
Q 959 2388 959 1747 
Q 959 1106 1268 751 
Q 1578 397 2138 397 
Q 2388 397 2633 464 
Q 2878 531 3122 666 
L 3122 134 
Q 2881 22 2623 -34 
Q 2366 -91 2075 -91 
Q 1284 -91 818 406 
Q 353 903 353 1747 
Q 353 2603 823 3093 
Q 1294 3584 2113 3584 
Q 2378 3584 2631 3529 
Q 2884 3475 3122 3366 
z
" transform="scale(0.015625)"/>
      <path id="DejaVuSans-28" d="M 1984 4856 
Q 1566 4138 1362 3434 
Q 1159 2731 1159 2009 
Q 1159 1288 1364 580 
Q 1569 -128 1984 -844 
L 1484 -844 
Q 1016 -109 783 600 
Q 550 1309 550 2009 
Q 550 2706 781 3412 
Q 1013 4119 1484 4856 
L 1984 4856 
z
" transform="scale(0.015625)"/>
      <path id="DejaVuSans-43" d="M 4122 4306 
L 4122 3641 
Q 3803 3938 3442 4084 
Q 3081 4231 2675 4231 
Q 1875 4231 1450 3742 
Q 1025 3253 1025 2328 
Q 1025 1406 1450 917 
Q 1875 428 2675 428 
Q 3081 428 3442 575 
Q 3803 722 4122 1019 
L 4122 359 
Q 3791 134 3420 21 
Q 3050 -91 2638 -91 
Q 1578 -91 968 557 
Q 359 1206 359 2328 
Q 359 3453 968 4101 
Q 1578 4750 2638 4750 
Q 3056 4750 3426 4639 
Q 3797 4528 4122 4306 
z
" transform="scale(0.015625)"/>
      <path id="DejaVuSans-75" d="M 544 1381 
L 544 3500 
L 1119 3500 
L 1119 1403 
Q 1119 906 1312 657 
Q 1506 409 1894 409 
Q 2359 409 2629 706 
Q 2900 1003 2900 1516 
L 2900 3500 
L 3475 3500 
L 3475 0 
L 2900 0 
L 2900 538 
Q 2691 219 2414 64 
Q 2138 -91 1772 -91 
Q 1169 -91 856 284 
Q 544 659 544 1381 
z
M 1991 3584 
L 1991 3584 
z
" transform="scale(0.015625)"/>
      <path id="DejaVuSans-6e" d="M 3513 2113 
L 3513 0 
L 2938 0 
L 2938 2094 
Q 2938 2591 2744 2837 
Q 2550 3084 2163 3084 
Q 1697 3084 1428 2787 
Q 1159 2491 1159 1978 
L 1159 0 
L 581 0 
L 581 3500 
L 1159 3500 
L 1159 2956 
Q 1366 3272 1645 3428 
Q 1925 3584 2291 3584 
Q 2894 3584 3203 3211 
Q 3513 2838 3513 2113 
z
" transform="scale(0.015625)"/>
      <path id="DejaVuSans-79" d="M 2059 -325 
Q 1816 -950 1584 -1140 
Q 1353 -1331 966 -1331 
L 506 -1331 
L 506 -850 
L 844 -850 
Q 1081 -850 1212 -737 
Q 1344 -625 1503 -206 
L 1606 56 
L 191 3500 
L 800 3500 
L 1894 763 
L 2988 3500 
L 3597 3500 
L 2059 -325 
z
" transform="scale(0.015625)"/>
      <path id="DejaVuSans-29" d="M 513 4856 
L 1013 4856 
Q 1481 4119 1714 3412 
Q 1947 2706 1947 2009 
Q 1947 1309 1714 600 
Q 1481 -109 1013 -844 
L 513 -844 
Q 928 -128 1133 580 
Q 1338 1288 1338 2009 
Q 1338 2731 1133 3434 
Q 928 4138 513 4856 
z
" transform="scale(0.015625)"/>
     </defs>
     <use xlink:href="#DejaVuSans-66"/>
     <use xlink:href="#DejaVuSans-61" x="35.205078"/>
     <use xlink:href="#DejaVuSans-63" x="96.484375"/>
     <use xlink:href="#DejaVuSans-74" x="151.464844"/>
     <use xlink:href="#DejaVuSans-6f" x="190.673828"/>
     <use xlink:href="#DejaVuSans-72" x="251.855469"/>
     <use xlink:href="#DejaVuSans-28" x="292.96875"/>
     <use xlink:href="#DejaVuSans-43" x="331.982422"/>
     <use xlink:href="#DejaVuSans-6f" x="401.806641"/>
     <use xlink:href="#DejaVuSans-75" x="462.988281"/>
     <use xlink:href="#DejaVuSans-6e" x="526.367188"/>
     <use xlink:href="#DejaVuSans-74" x="589.746094"/>
     <use xlink:href="#DejaVuSans-72" x="628.955078"/>
     <use xlink:href="#DejaVuSans-79" x="670.068359"/>
     <use xlink:href="#DejaVuSans-29" x="729.248047"/>
    </g>
   </g>
   <g id="patch_5">
    <path d="M 422.288063 159.637773 
L 438.128062 159.637773 
L 438.128062 143.797773 
L 422.288063 143.797773 
z
" clip-path="url(#p5b4941531e)" style="fill: #f2f2f2"/>
   </g>
   <g id="line2d_27">
    <path d="M 422.288063 151.717773 
L 438.128062 151.717773 
" clip-path="url(#p5b4941531e)" style="fill: none; stroke: #db5f57; stroke-width: 0.886227"/>
   </g>
   <g id="text_9">
    <!-- UK -->
    <g transform="translate(441.128063 154.146023)scale(0.088 -0.088)">
     <use xlink:href="#DejaVuSans-55"/>
     <use xlink:href="#DejaVuSans-4b" x="73.193359"/>
    </g>
   </g>
   <g id="patch_6">
    <path d="M 422.288063 177.477773 
L 438.128062 177.477773 
L 438.128062 161.637773 
L 422.288063 161.637773 
z
" clip-path="url(#p71af25a966)" style="fill: #f2f2f2"/>
   </g>
   <g id="line2d_28">
    <path d="M 422.288063 169.557773 
L 438.128062 169.557773 
" clip-path="url(#p71af25a966)" style="fill: none; stroke: #57d3db; stroke-width: 0.886227"/>
   </g>
   <g id="text_10">
    <!-- US -->
    <g transform="translate(441.128063 171.986023)scale(0.088 -0.088)">
     <defs>
      <path id="DejaVuSans-53" d="M 3425 4513 
L 3425 3897 
Q 3066 4069 2747 4153 
Q 2428 4238 2131 4238 
Q 1616 4238 1336 4038 
Q 1056 3838 1056 3469 
Q 1056 3159 1242 3001 
Q 1428 2844 1947 2747 
L 2328 2669 
Q 3034 2534 3370 2195 
Q 3706 1856 3706 1288 
Q 3706 609 3251 259 
Q 2797 -91 1919 -91 
Q 1588 -91 1214 -16 
Q 841 59 441 206 
L 441 856 
Q 825 641 1194 531 
Q 1563 422 1919 422 
Q 2459 422 2753 634 
Q 3047 847 3047 1241 
Q 3047 1584 2836 1778 
Q 2625 1972 2144 2069 
L 1759 2144 
Q 1053 2284 737 2584 
Q 422 2884 422 3419 
Q 422 4038 858 4394 
Q 1294 4750 2059 4750 
Q 2388 4750 2728 4690 
Q 3069 4631 3425 4513 
z
" transform="scale(0.015625)"/>
     </defs>
     <use xlink:href="#DejaVuSans-55"/>
     <use xlink:href="#DejaVuSans-53" x="73.193359"/>
    </g>
   </g>
  </g>
  <g id="axes_2">
   <g id="patch_7">
    <path d="M 45.768063 287.898804 
L 402.888063 287.898804 
L 402.888063 164.512804 
L 45.768063 164.512804 
z
" style="fill: #ebebeb"/>
   </g>
   <g id="matplotlib.axis_3">
    <g id="xtick_11">
     <g id="line2d_29">
      <path d="M 62.00079 287.898804 
L 62.00079 164.512804 
" clip-path="url(#p7cf18a0abb)" style="fill: none; stroke: #ffffff; stroke-linecap: square"/>
     </g>
     <g id="line2d_30">
      <path d="M 62.00079 287.898804 
" style="fill: none; stroke: #000000; stroke-width: 1.5; stroke-linecap: square"/>
      <defs>
       <path id="m4f5b1fe810" d="M 0 0 
L 0 2.75 
" style="stroke: #333333"/>
      </defs>
      <g>
       <use xlink:href="#m4f5b1fe810" x="62.00079" y="287.898804" style="stroke: #333333"/>
      </g>
     </g>
     <g id="text_11">
      <!-- 2000-01-01 -->
      <g style="fill: #4d4d4d" transform="translate(64.42904 343.990554)rotate(-90)scale(0.088 -0.088)">
       <defs>
        <path id="DejaVuSans-2d" d="M 313 2009 
L 1997 2009 
L 1997 1497 
L 313 1497 
L 313 2009 
z
" transform="scale(0.015625)"/>
       </defs>
       <use xlink:href="#DejaVuSans-32"/>
       <use xlink:href="#DejaVuSans-30" x="63.623047"/>
       <use xlink:href="#DejaVuSans-30" x="127.246094"/>
       <use xlink:href="#DejaVuSans-30" x="190.869141"/>
       <use xlink:href="#DejaVuSans-2d" x="254.492188"/>
       <use xlink:href="#DejaVuSans-30" x="290.576172"/>
       <use xlink:href="#DejaVuSans-31" x="354.199219"/>
       <use xlink:href="#DejaVuSans-2d" x="417.822266"/>
       <use xlink:href="#DejaVuSans-30" x="453.90625"/>
       <use xlink:href="#DejaVuSans-31" x="517.529297"/>
      </g>
     </g>
    </g>
    <g id="xtick_12">
     <g id="line2d_31">
      <path d="M 134.185754 287.898804 
L 134.185754 164.512804 
" clip-path="url(#p7cf18a0abb)" style="fill: none; stroke: #ffffff; stroke-linecap: square"/>
     </g>
     <g id="line2d_32">
      <path d="M 134.185754 287.898804 
" style="fill: none; stroke: #000000; stroke-width: 1.5; stroke-linecap: square"/>
      <g>
       <use xlink:href="#m4f5b1fe810" x="134.185754" y="287.898804" style="stroke: #333333"/>
      </g>
     </g>
     <g id="text_12">
      <!-- 2005-01-01 -->
      <g style="fill: #4d4d4d" transform="translate(136.614004 343.990554)rotate(-90)scale(0.088 -0.088)">
       <defs>
        <path id="DejaVuSans-35" d="M 691 4666 
L 3169 4666 
L 3169 4134 
L 1269 4134 
L 1269 2991 
Q 1406 3038 1543 3061 
Q 1681 3084 1819 3084 
Q 2600 3084 3056 2656 
Q 3513 2228 3513 1497 
Q 3513 744 3044 326 
Q 2575 -91 1722 -91 
Q 1428 -91 1123 -41 
Q 819 9 494 109 
L 494 744 
Q 775 591 1075 516 
Q 1375 441 1709 441 
Q 2250 441 2565 725 
Q 2881 1009 2881 1497 
Q 2881 1984 2565 2268 
Q 2250 2553 1709 2553 
Q 1456 2553 1204 2497 
Q 953 2441 691 2322 
L 691 4666 
z
" transform="scale(0.015625)"/>
       </defs>
       <use xlink:href="#DejaVuSans-32"/>
       <use xlink:href="#DejaVuSans-30" x="63.623047"/>
       <use xlink:href="#DejaVuSans-30" x="127.246094"/>
       <use xlink:href="#DejaVuSans-35" x="190.869141"/>
       <use xlink:href="#DejaVuSans-2d" x="254.492188"/>
       <use xlink:href="#DejaVuSans-30" x="290.576172"/>
       <use xlink:href="#DejaVuSans-31" x="354.199219"/>
       <use xlink:href="#DejaVuSans-2d" x="417.822266"/>
       <use xlink:href="#DejaVuSans-30" x="453.90625"/>
       <use xlink:href="#DejaVuSans-31" x="517.529297"/>
      </g>
     </g>
    </g>
    <g id="xtick_13">
     <g id="line2d_33">
      <path d="M 206.331209 287.898804 
L 206.331209 164.512804 
" clip-path="url(#p7cf18a0abb)" style="fill: none; stroke: #ffffff; stroke-linecap: square"/>
     </g>
     <g id="line2d_34">
      <path d="M 206.331209 287.898804 
" style="fill: none; stroke: #000000; stroke-width: 1.5; stroke-linecap: square"/>
      <g>
       <use xlink:href="#m4f5b1fe810" x="206.331209" y="287.898804" style="stroke: #333333"/>
      </g>
     </g>
     <g id="text_13">
      <!-- 2010-01-01 -->
      <g style="fill: #4d4d4d" transform="translate(208.759459 343.990554)rotate(-90)scale(0.088 -0.088)">
       <use xlink:href="#DejaVuSans-32"/>
       <use xlink:href="#DejaVuSans-30" x="63.623047"/>
       <use xlink:href="#DejaVuSans-31" x="127.246094"/>
       <use xlink:href="#DejaVuSans-30" x="190.869141"/>
       <use xlink:href="#DejaVuSans-2d" x="254.492188"/>
       <use xlink:href="#DejaVuSans-30" x="290.576172"/>
       <use xlink:href="#DejaVuSans-31" x="354.199219"/>
       <use xlink:href="#DejaVuSans-2d" x="417.822266"/>
       <use xlink:href="#DejaVuSans-30" x="453.90625"/>
       <use xlink:href="#DejaVuSans-31" x="517.529297"/>
      </g>
     </g>
    </g>
    <g id="xtick_14">
     <g id="line2d_35">
      <path d="M 278.476664 287.898804 
L 278.476664 164.512804 
" clip-path="url(#p7cf18a0abb)" style="fill: none; stroke: #ffffff; stroke-linecap: square"/>
     </g>
     <g id="line2d_36">
      <path d="M 278.476664 287.898804 
" style="fill: none; stroke: #000000; stroke-width: 1.5; stroke-linecap: square"/>
      <g>
       <use xlink:href="#m4f5b1fe810" x="278.476664" y="287.898804" style="stroke: #333333"/>
      </g>
     </g>
     <g id="text_14">
      <!-- 2015-01-01 -->
      <g style="fill: #4d4d4d" transform="translate(280.904914 343.990554)rotate(-90)scale(0.088 -0.088)">
       <use xlink:href="#DejaVuSans-32"/>
       <use xlink:href="#DejaVuSans-30" x="63.623047"/>
       <use xlink:href="#DejaVuSans-31" x="127.246094"/>
       <use xlink:href="#DejaVuSans-35" x="190.869141"/>
       <use xlink:href="#DejaVuSans-2d" x="254.492188"/>
       <use xlink:href="#DejaVuSans-30" x="290.576172"/>
       <use xlink:href="#DejaVuSans-31" x="354.199219"/>
       <use xlink:href="#DejaVuSans-2d" x="417.822266"/>
       <use xlink:href="#DejaVuSans-30" x="453.90625"/>
       <use xlink:href="#DejaVuSans-31" x="517.529297"/>
      </g>
     </g>
    </g>
    <g id="xtick_15">
     <g id="line2d_37">
      <path d="M 350.622118 287.898804 
L 350.622118 164.512804 
" clip-path="url(#p7cf18a0abb)" style="fill: none; stroke: #ffffff; stroke-linecap: square"/>
     </g>
     <g id="line2d_38">
      <path d="M 350.622118 287.898804 
" style="fill: none; stroke: #000000; stroke-width: 1.5; stroke-linecap: square"/>
      <g>
       <use xlink:href="#m4f5b1fe810" x="350.622118" y="287.898804" style="stroke: #333333"/>
      </g>
     </g>
     <g id="text_15">
      <!-- 2020-01-01 -->
      <g style="fill: #4d4d4d" transform="translate(353.050368 343.990554)rotate(-90)scale(0.088 -0.088)">
       <use xlink:href="#DejaVuSans-32"/>
       <use xlink:href="#DejaVuSans-30" x="63.623047"/>
       <use xlink:href="#DejaVuSans-32" x="127.246094"/>
       <use xlink:href="#DejaVuSans-30" x="190.869141"/>
       <use xlink:href="#DejaVuSans-2d" x="254.492188"/>
       <use xlink:href="#DejaVuSans-30" x="290.576172"/>
       <use xlink:href="#DejaVuSans-31" x="354.199219"/>
       <use xlink:href="#DejaVuSans-2d" x="417.822266"/>
       <use xlink:href="#DejaVuSans-30" x="453.90625"/>
       <use xlink:href="#DejaVuSans-31" x="517.529297"/>
      </g>
     </g>
    </g>
    <g id="xtick_16">
     <g id="line2d_39">
      <path d="M 98.093272 287.898804 
L 98.093272 164.512804 
" clip-path="url(#p7cf18a0abb)" style="fill: none; stroke: #ffffff; stroke-width: 0.5; stroke-linecap: square"/>
     </g>
    </g>
    <g id="xtick_17">
     <g id="line2d_40">
      <path d="M 170.258482 287.898804 
L 170.258482 164.512804 
" clip-path="url(#p7cf18a0abb)" style="fill: none; stroke: #ffffff; stroke-width: 0.5; stroke-linecap: square"/>
     </g>
    </g>
    <g id="xtick_18">
     <g id="line2d_41">
      <path d="M 242.403936 287.898804 
L 242.403936 164.512804 
" clip-path="url(#p7cf18a0abb)" style="fill: none; stroke: #ffffff; stroke-width: 0.5; stroke-linecap: square"/>
     </g>
    </g>
    <g id="xtick_19">
     <g id="line2d_42">
      <path d="M 314.549391 287.898804 
L 314.549391 164.512804 
" clip-path="url(#p7cf18a0abb)" style="fill: none; stroke: #ffffff; stroke-width: 0.5; stroke-linecap: square"/>
     </g>
    </g>
    <g id="xtick_20">
     <g id="line2d_43">
      <path d="M 386.7146 287.898804 
L 386.7146 164.512804 
" clip-path="url(#p7cf18a0abb)" style="fill: none; stroke: #ffffff; stroke-width: 0.5; stroke-linecap: square"/>
     </g>
    </g>
    <g id="text_16">
     <!-- Date -->
     <g transform="translate(205.422203 356.748835)scale(0.11 -0.11)">
      <use xlink:href="#DejaVuSans-44"/>
      <use xlink:href="#DejaVuSans-61" x="77.001953"/>
      <use xlink:href="#DejaVuSans-74" x="138.28125"/>
      <use xlink:href="#DejaVuSans-65" x="177.490234"/>
     </g>
    </g>
   </g>
   <g id="matplotlib.axis_4">
    <g id="ytick_11">
     <g id="line2d_44">
      <path d="M 45.768063 276.006669 
L 402.888063 276.006669 
" clip-path="url(#p7cf18a0abb)" style="fill: none; stroke: #ffffff; stroke-linecap: square"/>
     </g>
     <g id="line2d_45">
      <path d="M 45.768063 276.006669 
" style="fill: none; stroke: #000000; stroke-width: 1.5; stroke-linecap: square"/>
      <g>
       <use xlink:href="#m035b51885f" x="45.768063" y="276.006669" style="stroke: #333333"/>
      </g>
     </g>
     <g id="text_17">
      <!-- −20 -->
      <g style="fill: #4d4d4d" transform="translate(22.245938 278.434919)scale(0.088 -0.088)">
       <use xlink:href="#DejaVuSans-2212"/>
       <use xlink:href="#DejaVuSans-32" x="83.789062"/>
       <use xlink:href="#DejaVuSans-30" x="147.412109"/>
      </g>
     </g>
    </g>
    <g id="ytick_12">
     <g id="line2d_46">
      <path d="M 45.768063 252.090775 
L 402.888063 252.090775 
" clip-path="url(#p7cf18a0abb)" style="fill: none; stroke: #ffffff; stroke-linecap: square"/>
     </g>
     <g id="line2d_47">
      <path d="M 45.768063 252.090775 
" style="fill: none; stroke: #000000; stroke-width: 1.5; stroke-linecap: square"/>
      <g>
       <use xlink:href="#m035b51885f" x="45.768063" y="252.090775" style="stroke: #333333"/>
      </g>
     </g>
     <g id="text_18">
      <!-- −10 -->
      <g style="fill: #4d4d4d" transform="translate(22.245938 254.519025)scale(0.088 -0.088)">
       <use xlink:href="#DejaVuSans-2212"/>
       <use xlink:href="#DejaVuSans-31" x="83.789062"/>
       <use xlink:href="#DejaVuSans-30" x="147.412109"/>
      </g>
     </g>
    </g>
    <g id="ytick_13">
     <g id="line2d_48">
      <path d="M 45.768063 228.17488 
L 402.888063 228.17488 
" clip-path="url(#p7cf18a0abb)" style="fill: none; stroke: #ffffff; stroke-linecap: square"/>
     </g>
     <g id="line2d_49">
      <path d="M 45.768063 228.17488 
" style="fill: none; stroke: #000000; stroke-width: 1.5; stroke-linecap: square"/>
      <g>
       <use xlink:href="#m035b51885f" x="45.768063" y="228.17488" style="stroke: #333333"/>
      </g>
     </g>
     <g id="text_19">
      <!-- 0 -->
      <g style="fill: #4d4d4d" transform="translate(35.219063 230.60313)scale(0.088 -0.088)">
       <use xlink:href="#DejaVuSans-30"/>
      </g>
     </g>
    </g>
    <g id="ytick_14">
     <g id="line2d_50">
      <path d="M 45.768063 204.258986 
L 402.888063 204.258986 
" clip-path="url(#p7cf18a0abb)" style="fill: none; stroke: #ffffff; stroke-linecap: square"/>
     </g>
     <g id="line2d_51">
      <path d="M 45.768063 204.258986 
" style="fill: none; stroke: #000000; stroke-width: 1.5; stroke-linecap: square"/>
      <g>
       <use xlink:href="#m035b51885f" x="45.768063" y="204.258986" style="stroke: #333333"/>
      </g>
     </g>
     <g id="text_20">
      <!-- 10 -->
      <g style="fill: #4d4d4d" transform="translate(29.620063 206.687236)scale(0.088 -0.088)">
       <use xlink:href="#DejaVuSans-31"/>
       <use xlink:href="#DejaVuSans-30" x="63.623047"/>
      </g>
     </g>
    </g>
    <g id="ytick_15">
     <g id="line2d_52">
      <path d="M 45.768063 180.343091 
L 402.888063 180.343091 
" clip-path="url(#p7cf18a0abb)" style="fill: none; stroke: #ffffff; stroke-linecap: square"/>
     </g>
     <g id="line2d_53">
      <path d="M 45.768063 180.343091 
" style="fill: none; stroke: #000000; stroke-width: 1.5; stroke-linecap: square"/>
      <g>
       <use xlink:href="#m035b51885f" x="45.768063" y="180.343091" style="stroke: #333333"/>
      </g>
     </g>
     <g id="text_21">
      <!-- 20 -->
      <g style="fill: #4d4d4d" transform="translate(29.620063 182.771341)scale(0.088 -0.088)">
       <use xlink:href="#DejaVuSans-32"/>
       <use xlink:href="#DejaVuSans-30" x="63.623047"/>
      </g>
     </g>
    </g>
    <g id="ytick_16">
     <g id="line2d_54">
      <path d="M 45.768063 264.048722 
L 402.888063 264.048722 
" clip-path="url(#p7cf18a0abb)" style="fill: none; stroke: #ffffff; stroke-width: 0.5; stroke-linecap: square"/>
     </g>
    </g>
    <g id="ytick_17">
     <g id="line2d_55">
      <path d="M 45.768063 240.132827 
L 402.888063 240.132827 
" clip-path="url(#p7cf18a0abb)" style="fill: none; stroke: #ffffff; stroke-width: 0.5; stroke-linecap: square"/>
     </g>
    </g>
    <g id="ytick_18">
     <g id="line2d_56">
      <path d="M 45.768063 216.216933 
L 402.888063 216.216933 
" clip-path="url(#p7cf18a0abb)" style="fill: none; stroke: #ffffff; stroke-width: 0.5; stroke-linecap: square"/>
     </g>
    </g>
    <g id="ytick_19">
     <g id="line2d_57">
      <path d="M 45.768063 192.301039 
L 402.888063 192.301039 
" clip-path="url(#p7cf18a0abb)" style="fill: none; stroke: #ffffff; stroke-width: 0.5; stroke-linecap: square"/>
     </g>
    </g>
    <g id="ytick_20">
     <g id="line2d_58">
      <path d="M 45.768063 168.385144 
L 402.888063 168.385144 
" clip-path="url(#p7cf18a0abb)" style="fill: none; stroke: #ffffff; stroke-width: 0.5; stroke-linecap: square"/>
     </g>
    </g>
   </g>
   <g id="line2d_59">
    <path d="M 62.00079 218.068129 
L 65.596209 215.631752 
L 69.191629 218.670502 
L 72.826559 221.235395 
L 76.461489 222.924043 
L 80.017398 225.802584 
L 83.612818 227.009333 
L 87.247748 227.766774 
L 90.882678 224.996907 
L 94.438587 225.011085 
L 98.034007 223.055276 
L 101.668937 223.412541 
L 105.303867 224.166124 
L 108.859776 223.494555 
L 112.455196 220.42635 
L 116.090126 217.902821 
L 119.725055 217.763378 
L 123.320475 218.046949 
L 126.915895 219.826238 
L 130.550825 220.149266 
L 134.185754 218.827072 
L 137.741664 219.547436 
L 141.337084 219.929458 
L 144.972014 221.041553 
L 148.606943 220.462345 
L 152.162853 221.054475 
L 155.758273 222.606564 
L 159.393202 221.935458 
L 163.028132 224.490122 
L 166.584042 223.538445 
L 170.179461 222.43851 
L 173.814391 223.006935 
L 177.449321 224.714721 
L 181.044741 224.87417 
L 184.64016 227.595632 
L 188.27509 234.250329 
L 191.91002 236.025015 
L 195.46593 237.730487 
L 199.061349 235.678911 
L 202.696279 227.979589 
L 206.331209 223.945457 
L 209.887119 221.173579 
L 213.482538 220.164984 
L 217.117468 221.506053 
L 220.752398 223.318499 
L 224.308307 224.018525 
L 227.903727 225.978873 
L 231.538657 224.533227 
L 235.173587 221.956151 
L 238.769006 222.497686 
L 242.364426 221.97439 
L 245.999356 224.429497 
L 249.634286 224.309352 
L 253.190195 225.074973 
L 256.785615 223.5834 
L 260.420545 222.119257 
L 264.055475 225.08003 
L 267.611384 222.310719 
L 271.206804 221.403198 
L 274.841734 222.043405 
L 278.476664 219.179613 
L 282.032573 220.904767 
L 285.627993 222.954833 
L 289.262923 223.691406 
L 292.897852 224.233113 
L 296.493272 224.904099 
L 300.088692 224.232925 
L 303.723622 223.381726 
L 307.358551 223.768563 
L 310.914461 223.279491 
L 314.509881 222.730319 
L 318.14481 221.492013 
L 321.77974 220.848225 
L 325.33565 220.37357 
L 328.93107 220.631846 
L 332.565999 222.644143 
L 336.200929 223.008502 
L 339.756839 223.067518 
L 343.352258 222.660287 
L 346.987188 222.022178 
L 350.622118 226.213604 
L 354.217538 248.146195 
L 357.812957 233.015481 
L 361.447887 231.802025 
L 365.082817 225.324248 
L 368.638727 198.373632 
L 372.234146 216.322989 
L 375.869076 214.501937 
L 379.504006 219.365033 
L 383.059916 223.879472 
L 386.655335 223.930569 
" clip-path="url(#p7cf18a0abb)" style="fill: none; stroke: #57d3db; stroke-width: 0.886227"/>
   </g>
   <g id="patch_8">
    <path d="M 45.768063 164.512804 
L 402.888063 164.512804 
L 402.888063 149.926 
L 45.768063 149.926 
z
" style="fill: #d9d9d9"/>
   </g>
   <g id="text_22">
    <!-- US -->
    <g style="fill: #1a1a1a" transform="translate(218.3145 159.647652)scale(0.088 -0.088)">
     <use xlink:href="#DejaVuSans-55"/>
     <use xlink:href="#DejaVuSans-53" x="73.193359"/>
    </g>
   </g>
  </g>
 </g>
 <defs>
  <clipPath id="pfb720ea2fc">
   <rect x="45.768063" y="21.786804" width="357.12" height="123.386"/>
  </clipPath>
  <clipPath id="p5b4941531e">
   <path d="M 422.288063 159.637773 
L 422.288063 143.797773 
L 438.128062 143.797773 
L 438.128062 159.637773 
"/>
  </clipPath>
  <clipPath id="p71af25a966">
   <path d="M 422.288063 177.477773 
L 422.288063 161.637773 
L 438.128062 161.637773 
L 438.128062 177.477773 
"/>
  </clipPath>
  <clipPath id="p7cf18a0abb">
   <rect x="45.768063" y="164.512804" width="357.12" height="123.386"/>
  </clipPath>
 </defs>
</svg>
