<?xml version="1.0" encoding="utf-8" standalone="no"?>
<!DOCTYPE svg PUBLIC "-//W3C//DTD SVG 1.1//EN"
  "http://www.w3.org/Graphics/SVG/1.1/DTD/svg11.dtd">
<svg height="366.236491pt" version="1.1" viewBox="0 0 524.237312 366.236491" width="524.237312pt" xmlns="http://www.w3.org/2000/svg" xmlns:xlink="http://www.w3.org/1999/xlink">
 <metadata>
  <rdf:RDF xmlns:cc="http://creativecommons.org/ns#" xmlns:dc="http://purl.org/dc/elements/1.1/" xmlns:rdf="http://www.w3.org/1999/02/22-rdf-syntax-ns#">
   <cc:Work>
    <dc:type rdf:resource="http://purl.org/dc/dcmitype/StillImage"/>
    <dc:date>2022-08-20T18:05:24.717613</dc:date>
    <dc:format>image/svg+xml</dc:format>
    <dc:creator>
     <cc:Agent>
      <dc:title>Matplotlib v3.4.3, https://matplotlib.org/</dc:title>
     </cc:Agent>
    </dc:creator>
   </cc:Work>
  </rdf:RDF>
 </metadata>
 <defs>
  <style type="text/css">*{stroke-linecap:butt;stroke-linejoin:round;}</style>
 </defs>
 <g id="figure_1">
  <g id="patch_1">
   <path d="M 0 366.236491 
L 524.237312 366.236491 
L 524.237312 0 
L 0 0 
z
" style="fill:#ffffff;stroke:#ffffff;stroke-linejoin:miter;"/>
  </g>
  <g id="axes_1">
   <g id="patch_2">
    <path d="M 45.768063 145.172804 
L 221.808063 145.172804 
L 221.808063 21.786804 
L 45.768063 21.786804 
z
" style="fill:#ebebeb;"/>
   </g>
   <g id="matplotlib.axis_1">
    <g id="xtick_1">
     <g id="line2d_1">
      <path clip-path="url(#p227085c922)" d="M 53.769881 145.172804 
L 53.769881 21.786804 
" style="fill:none;stroke:#ffffff;"/>
     </g>
    </g>
    <g id="xtick_2">
     <g id="line2d_2">
      <path clip-path="url(#p227085c922)" d="M 89.751475 145.172804 
L 89.751475 21.786804 
" style="fill:none;stroke:#ffffff;"/>
     </g>
    </g>
    <g id="xtick_3">
     <g id="line2d_3">
      <path clip-path="url(#p227085c922)" d="M 125.713375 145.172804 
L 125.713375 21.786804 
" style="fill:none;stroke:#ffffff;"/>
     </g>
    </g>
    <g id="xtick_4">
     <g id="line2d_4">
      <path clip-path="url(#p227085c922)" d="M 161.675275 145.172804 
L 161.675275 21.786804 
" style="fill:none;stroke:#ffffff;"/>
     </g>
    </g>
    <g id="xtick_5">
     <g id="line2d_5">
      <path clip-path="url(#p227085c922)" d="M 197.637175 145.172804 
L 197.637175 21.786804 
" style="fill:none;stroke:#ffffff;"/>
     </g>
    </g>
    <g id="xtick_6">
     <g id="line2d_6">
      <path clip-path="url(#p227085c922)" d="M 71.760678 145.172804 
L 71.760678 21.786804 
" style="fill:none;stroke:#ffffff;stroke-width:0.5;"/>
     </g>
    </g>
    <g id="xtick_7">
     <g id="line2d_7">
      <path clip-path="url(#p227085c922)" d="M 107.732425 145.172804 
L 107.732425 21.786804 
" style="fill:none;stroke:#ffffff;stroke-width:0.5;"/>
     </g>
    </g>
    <g id="xtick_8">
     <g id="line2d_8">
      <path clip-path="url(#p227085c922)" d="M 143.694325 145.172804 
L 143.694325 21.786804 
" style="fill:none;stroke:#ffffff;stroke-width:0.5;"/>
     </g>
    </g>
    <g id="xtick_9">
     <g id="line2d_9">
      <path clip-path="url(#p227085c922)" d="M 179.656225 145.172804 
L 179.656225 21.786804 
" style="fill:none;stroke:#ffffff;stroke-width:0.5;"/>
     </g>
    </g>
    <g id="xtick_10">
     <g id="line2d_10">
      <path clip-path="url(#p227085c922)" d="M 215.627973 145.172804 
L 215.627973 21.786804 
" style="fill:none;stroke:#ffffff;stroke-width:0.5;"/>
     </g>
    </g>
   </g>
   <g id="matplotlib.axis_2">
    <g id="ytick_1">
     <g id="line2d_11">
      <path clip-path="url(#p227085c922)" d="M 45.768063 136.766186 
L 221.808063 136.766186 
" style="fill:none;stroke:#ffffff;"/>
     </g>
     <g id="line2d_12">
      <path d="M 45.768063 136.766186 
" style="fill:none;stroke:#333333;stroke-width:1.5;"/>
      <defs>
       <path d="M 0 0 
L -2.75 0 
" id="m7c30922b79" style="stroke:#000000;"/>
      </defs>
      <g>
       <use style="fill:#333333;stroke:#000000;" x="45.768063" xlink:href="#m7c30922b79" y="136.766186"/>
      </g>
     </g>
     <g id="text_1">
      <!-- −20 -->
      <g style="fill:#4d4d4d;" transform="translate(22.245938 139.194436)scale(0.088 -0.088)">
       <defs>
        <path d="M 678 2272 
L 4684 2272 
L 4684 1741 
L 678 1741 
L 678 2272 
z
" id="DejaVuSans-2212" transform="scale(0.015625)"/>
        <path d="M 1228 531 
L 3431 531 
L 3431 0 
L 469 0 
L 469 531 
Q 828 903 1448 1529 
Q 2069 2156 2228 2338 
Q 2531 2678 2651 2914 
Q 2772 3150 2772 3378 
Q 2772 3750 2511 3984 
Q 2250 4219 1831 4219 
Q 1534 4219 1204 4116 
Q 875 4013 500 3803 
L 500 4441 
Q 881 4594 1212 4672 
Q 1544 4750 1819 4750 
Q 2544 4750 2975 4387 
Q 3406 4025 3406 3419 
Q 3406 3131 3298 2873 
Q 3191 2616 2906 2266 
Q 2828 2175 2409 1742 
Q 1991 1309 1228 531 
z
" id="DejaVuSans-32" transform="scale(0.015625)"/>
        <path d="M 2034 4250 
Q 1547 4250 1301 3770 
Q 1056 3291 1056 2328 
Q 1056 1369 1301 889 
Q 1547 409 2034 409 
Q 2525 409 2770 889 
Q 3016 1369 3016 2328 
Q 3016 3291 2770 3770 
Q 2525 4250 2034 4250 
z
M 2034 4750 
Q 2819 4750 3233 4129 
Q 3647 3509 3647 2328 
Q 3647 1150 3233 529 
Q 2819 -91 2034 -91 
Q 1250 -91 836 529 
Q 422 1150 422 2328 
Q 422 3509 836 4129 
Q 1250 4750 2034 4750 
z
" id="DejaVuSans-30" transform="scale(0.015625)"/>
       </defs>
       <use xlink:href="#DejaVuSans-2212"/>
       <use x="83.789062" xlink:href="#DejaVuSans-32"/>
       <use x="147.412109" xlink:href="#DejaVuSans-30"/>
      </g>
     </g>
    </g>
    <g id="ytick_2">
     <g id="line2d_13">
      <path clip-path="url(#p227085c922)" d="M 45.768063 112.184571 
L 221.808063 112.184571 
" style="fill:none;stroke:#ffffff;"/>
     </g>
     <g id="line2d_14">
      <path d="M 45.768063 112.184571 
" style="fill:none;stroke:#333333;stroke-width:1.5;"/>
      <g>
       <use style="fill:#333333;stroke:#000000;" x="45.768063" xlink:href="#m7c30922b79" y="112.184571"/>
      </g>
     </g>
     <g id="text_2">
      <!-- −10 -->
      <g style="fill:#4d4d4d;" transform="translate(22.245938 114.612821)scale(0.088 -0.088)">
       <defs>
        <path d="M 794 531 
L 1825 531 
L 1825 4091 
L 703 3866 
L 703 4441 
L 1819 4666 
L 2450 4666 
L 2450 531 
L 3481 531 
L 3481 0 
L 794 0 
L 794 531 
z
" id="DejaVuSans-31" transform="scale(0.015625)"/>
       </defs>
       <use xlink:href="#DejaVuSans-2212"/>
       <use x="83.789062" xlink:href="#DejaVuSans-31"/>
       <use x="147.412109" xlink:href="#DejaVuSans-30"/>
      </g>
     </g>
    </g>
    <g id="ytick_3">
     <g id="line2d_15">
      <path clip-path="url(#p227085c922)" d="M 45.768063 87.602955 
L 221.808063 87.602955 
" style="fill:none;stroke:#ffffff;"/>
     </g>
     <g id="line2d_16">
      <path d="M 45.768063 87.602955 
" style="fill:none;stroke:#333333;stroke-width:1.5;"/>
      <g>
       <use style="fill:#333333;stroke:#000000;" x="45.768063" xlink:href="#m7c30922b79" y="87.602955"/>
      </g>
     </g>
     <g id="text_3">
      <!-- 0 -->
      <g style="fill:#4d4d4d;" transform="translate(35.219063 90.031205)scale(0.088 -0.088)">
       <use xlink:href="#DejaVuSans-30"/>
      </g>
     </g>
    </g>
    <g id="ytick_4">
     <g id="line2d_17">
      <path clip-path="url(#p227085c922)" d="M 45.768063 63.02134 
L 221.808063 63.02134 
" style="fill:none;stroke:#ffffff;"/>
     </g>
     <g id="line2d_18">
      <path d="M 45.768063 63.02134 
" style="fill:none;stroke:#333333;stroke-width:1.5;"/>
      <g>
       <use style="fill:#333333;stroke:#000000;" x="45.768063" xlink:href="#m7c30922b79" y="63.02134"/>
      </g>
     </g>
     <g id="text_4">
      <!-- 10 -->
      <g style="fill:#4d4d4d;" transform="translate(29.620063 65.44959)scale(0.088 -0.088)">
       <use xlink:href="#DejaVuSans-31"/>
       <use x="63.623047" xlink:href="#DejaVuSans-30"/>
      </g>
     </g>
    </g>
    <g id="ytick_5">
     <g id="line2d_19">
      <path clip-path="url(#p227085c922)" d="M 45.768063 38.439724 
L 221.808063 38.439724 
" style="fill:none;stroke:#ffffff;"/>
     </g>
     <g id="line2d_20">
      <path d="M 45.768063 38.439724 
" style="fill:none;stroke:#333333;stroke-width:1.5;"/>
      <g>
       <use style="fill:#333333;stroke:#000000;" x="45.768063" xlink:href="#m7c30922b79" y="38.439724"/>
      </g>
     </g>
     <g id="text_5">
      <!-- 20 -->
      <g style="fill:#4d4d4d;" transform="translate(29.620063 40.867974)scale(0.088 -0.088)">
       <use xlink:href="#DejaVuSans-32"/>
       <use x="63.623047" xlink:href="#DejaVuSans-30"/>
      </g>
     </g>
    </g>
    <g id="ytick_6">
     <g id="line2d_21">
      <path clip-path="url(#p227085c922)" d="M 45.768063 124.475378 
L 221.808063 124.475378 
" style="fill:none;stroke:#ffffff;stroke-width:0.5;"/>
     </g>
    </g>
    <g id="ytick_7">
     <g id="line2d_22">
      <path clip-path="url(#p227085c922)" d="M 45.768063 99.893763 
L 221.808063 99.893763 
" style="fill:none;stroke:#ffffff;stroke-width:0.5;"/>
     </g>
    </g>
    <g id="ytick_8">
     <g id="line2d_23">
      <path clip-path="url(#p227085c922)" d="M 45.768063 75.312147 
L 221.808063 75.312147 
" style="fill:none;stroke:#ffffff;stroke-width:0.5;"/>
     </g>
    </g>
    <g id="ytick_9">
     <g id="line2d_24">
      <path clip-path="url(#p227085c922)" d="M 45.768063 50.730532 
L 221.808063 50.730532 
" style="fill:none;stroke:#ffffff;stroke-width:0.5;"/>
     </g>
    </g>
    <g id="ytick_10">
     <g id="line2d_25">
      <path clip-path="url(#p227085c922)" d="M 45.768063 26.148916 
L 221.808063 26.148916 
" style="fill:none;stroke:#ffffff;stroke-width:0.5;"/>
     </g>
    </g>
    <g id="text_6">
     <!-- Real GDP growth, % -->
     <g transform="translate(15.558281 208.136288)rotate(-90)scale(0.11 -0.11)">
      <defs>
       <path d="M 2841 2188 
Q 3044 2119 3236 1894 
Q 3428 1669 3622 1275 
L 4263 0 
L 3584 0 
L 2988 1197 
Q 2756 1666 2539 1819 
Q 2322 1972 1947 1972 
L 1259 1972 
L 1259 0 
L 628 0 
L 628 4666 
L 2053 4666 
Q 2853 4666 3247 4331 
Q 3641 3997 3641 3322 
Q 3641 2881 3436 2590 
Q 3231 2300 2841 2188 
z
M 1259 4147 
L 1259 2491 
L 2053 2491 
Q 2509 2491 2742 2702 
Q 2975 2913 2975 3322 
Q 2975 3731 2742 3939 
Q 2509 4147 2053 4147 
L 1259 4147 
z
" id="DejaVuSans-52" transform="scale(0.015625)"/>
       <path d="M 3597 1894 
L 3597 1613 
L 953 1613 
Q 991 1019 1311 708 
Q 1631 397 2203 397 
Q 2534 397 2845 478 
Q 3156 559 3463 722 
L 3463 178 
Q 3153 47 2828 -22 
Q 2503 -91 2169 -91 
Q 1331 -91 842 396 
Q 353 884 353 1716 
Q 353 2575 817 3079 
Q 1281 3584 2069 3584 
Q 2775 3584 3186 3129 
Q 3597 2675 3597 1894 
z
M 3022 2063 
Q 3016 2534 2758 2815 
Q 2500 3097 2075 3097 
Q 1594 3097 1305 2825 
Q 1016 2553 972 2059 
L 3022 2063 
z
" id="DejaVuSans-65" transform="scale(0.015625)"/>
       <path d="M 2194 1759 
Q 1497 1759 1228 1600 
Q 959 1441 959 1056 
Q 959 750 1161 570 
Q 1363 391 1709 391 
Q 2188 391 2477 730 
Q 2766 1069 2766 1631 
L 2766 1759 
L 2194 1759 
z
M 3341 1997 
L 3341 0 
L 2766 0 
L 2766 531 
Q 2569 213 2275 61 
Q 1981 -91 1556 -91 
Q 1019 -91 701 211 
Q 384 513 384 1019 
Q 384 1609 779 1909 
Q 1175 2209 1959 2209 
L 2766 2209 
L 2766 2266 
Q 2766 2663 2505 2880 
Q 2244 3097 1772 3097 
Q 1472 3097 1187 3025 
Q 903 2953 641 2809 
L 641 3341 
Q 956 3463 1253 3523 
Q 1550 3584 1831 3584 
Q 2591 3584 2966 3190 
Q 3341 2797 3341 1997 
z
" id="DejaVuSans-61" transform="scale(0.015625)"/>
       <path d="M 603 4863 
L 1178 4863 
L 1178 0 
L 603 0 
L 603 4863 
z
" id="DejaVuSans-6c" transform="scale(0.015625)"/>
       <path id="DejaVuSans-20" transform="scale(0.015625)"/>
       <path d="M 3809 666 
L 3809 1919 
L 2778 1919 
L 2778 2438 
L 4434 2438 
L 4434 434 
Q 4069 175 3628 42 
Q 3188 -91 2688 -91 
Q 1594 -91 976 548 
Q 359 1188 359 2328 
Q 359 3472 976 4111 
Q 1594 4750 2688 4750 
Q 3144 4750 3555 4637 
Q 3966 4525 4313 4306 
L 4313 3634 
Q 3963 3931 3569 4081 
Q 3175 4231 2741 4231 
Q 1884 4231 1454 3753 
Q 1025 3275 1025 2328 
Q 1025 1384 1454 906 
Q 1884 428 2741 428 
Q 3075 428 3337 486 
Q 3600 544 3809 666 
z
" id="DejaVuSans-47" transform="scale(0.015625)"/>
       <path d="M 1259 4147 
L 1259 519 
L 2022 519 
Q 2988 519 3436 956 
Q 3884 1394 3884 2338 
Q 3884 3275 3436 3711 
Q 2988 4147 2022 4147 
L 1259 4147 
z
M 628 4666 
L 1925 4666 
Q 3281 4666 3915 4102 
Q 4550 3538 4550 2338 
Q 4550 1131 3912 565 
Q 3275 0 1925 0 
L 628 0 
L 628 4666 
z
" id="DejaVuSans-44" transform="scale(0.015625)"/>
       <path d="M 1259 4147 
L 1259 2394 
L 2053 2394 
Q 2494 2394 2734 2622 
Q 2975 2850 2975 3272 
Q 2975 3691 2734 3919 
Q 2494 4147 2053 4147 
L 1259 4147 
z
M 628 4666 
L 2053 4666 
Q 2838 4666 3239 4311 
Q 3641 3956 3641 3272 
Q 3641 2581 3239 2228 
Q 2838 1875 2053 1875 
L 1259 1875 
L 1259 0 
L 628 0 
L 628 4666 
z
" id="DejaVuSans-50" transform="scale(0.015625)"/>
       <path d="M 2906 1791 
Q 2906 2416 2648 2759 
Q 2391 3103 1925 3103 
Q 1463 3103 1205 2759 
Q 947 2416 947 1791 
Q 947 1169 1205 825 
Q 1463 481 1925 481 
Q 2391 481 2648 825 
Q 2906 1169 2906 1791 
z
M 3481 434 
Q 3481 -459 3084 -895 
Q 2688 -1331 1869 -1331 
Q 1566 -1331 1297 -1286 
Q 1028 -1241 775 -1147 
L 775 -588 
Q 1028 -725 1275 -790 
Q 1522 -856 1778 -856 
Q 2344 -856 2625 -561 
Q 2906 -266 2906 331 
L 2906 616 
Q 2728 306 2450 153 
Q 2172 0 1784 0 
Q 1141 0 747 490 
Q 353 981 353 1791 
Q 353 2603 747 3093 
Q 1141 3584 1784 3584 
Q 2172 3584 2450 3431 
Q 2728 3278 2906 2969 
L 2906 3500 
L 3481 3500 
L 3481 434 
z
" id="DejaVuSans-67" transform="scale(0.015625)"/>
       <path d="M 2631 2963 
Q 2534 3019 2420 3045 
Q 2306 3072 2169 3072 
Q 1681 3072 1420 2755 
Q 1159 2438 1159 1844 
L 1159 0 
L 581 0 
L 581 3500 
L 1159 3500 
L 1159 2956 
Q 1341 3275 1631 3429 
Q 1922 3584 2338 3584 
Q 2397 3584 2469 3576 
Q 2541 3569 2628 3553 
L 2631 2963 
z
" id="DejaVuSans-72" transform="scale(0.015625)"/>
       <path d="M 1959 3097 
Q 1497 3097 1228 2736 
Q 959 2375 959 1747 
Q 959 1119 1226 758 
Q 1494 397 1959 397 
Q 2419 397 2687 759 
Q 2956 1122 2956 1747 
Q 2956 2369 2687 2733 
Q 2419 3097 1959 3097 
z
M 1959 3584 
Q 2709 3584 3137 3096 
Q 3566 2609 3566 1747 
Q 3566 888 3137 398 
Q 2709 -91 1959 -91 
Q 1206 -91 779 398 
Q 353 888 353 1747 
Q 353 2609 779 3096 
Q 1206 3584 1959 3584 
z
" id="DejaVuSans-6f" transform="scale(0.015625)"/>
       <path d="M 269 3500 
L 844 3500 
L 1563 769 
L 2278 3500 
L 2956 3500 
L 3675 769 
L 4391 3500 
L 4966 3500 
L 4050 0 
L 3372 0 
L 2619 2869 
L 1863 0 
L 1184 0 
L 269 3500 
z
" id="DejaVuSans-77" transform="scale(0.015625)"/>
       <path d="M 1172 4494 
L 1172 3500 
L 2356 3500 
L 2356 3053 
L 1172 3053 
L 1172 1153 
Q 1172 725 1289 603 
Q 1406 481 1766 481 
L 2356 481 
L 2356 0 
L 1766 0 
Q 1100 0 847 248 
Q 594 497 594 1153 
L 594 3053 
L 172 3053 
L 172 3500 
L 594 3500 
L 594 4494 
L 1172 4494 
z
" id="DejaVuSans-74" transform="scale(0.015625)"/>
       <path d="M 3513 2113 
L 3513 0 
L 2938 0 
L 2938 2094 
Q 2938 2591 2744 2837 
Q 2550 3084 2163 3084 
Q 1697 3084 1428 2787 
Q 1159 2491 1159 1978 
L 1159 0 
L 581 0 
L 581 4863 
L 1159 4863 
L 1159 2956 
Q 1366 3272 1645 3428 
Q 1925 3584 2291 3584 
Q 2894 3584 3203 3211 
Q 3513 2838 3513 2113 
z
" id="DejaVuSans-68" transform="scale(0.015625)"/>
       <path d="M 750 794 
L 1409 794 
L 1409 256 
L 897 -744 
L 494 -744 
L 750 256 
L 750 794 
z
" id="DejaVuSans-2c" transform="scale(0.015625)"/>
       <path d="M 4653 2053 
Q 4381 2053 4226 1822 
Q 4072 1591 4072 1178 
Q 4072 772 4226 539 
Q 4381 306 4653 306 
Q 4919 306 5073 539 
Q 5228 772 5228 1178 
Q 5228 1588 5073 1820 
Q 4919 2053 4653 2053 
z
M 4653 2450 
Q 5147 2450 5437 2106 
Q 5728 1763 5728 1178 
Q 5728 594 5436 251 
Q 5144 -91 4653 -91 
Q 4153 -91 3862 251 
Q 3572 594 3572 1178 
Q 3572 1766 3864 2108 
Q 4156 2450 4653 2450 
z
M 1428 4353 
Q 1159 4353 1004 4120 
Q 850 3888 850 3481 
Q 850 3069 1003 2837 
Q 1156 2606 1428 2606 
Q 1700 2606 1854 2837 
Q 2009 3069 2009 3481 
Q 2009 3884 1853 4118 
Q 1697 4353 1428 4353 
z
M 4250 4750 
L 4750 4750 
L 1831 -91 
L 1331 -91 
L 4250 4750 
z
M 1428 4750 
Q 1922 4750 2215 4408 
Q 2509 4066 2509 3481 
Q 2509 2891 2217 2550 
Q 1925 2209 1428 2209 
Q 931 2209 642 2551 
Q 353 2894 353 3481 
Q 353 4063 643 4406 
Q 934 4750 1428 4750 
z
" id="DejaVuSans-25" transform="scale(0.015625)"/>
      </defs>
      <use xlink:href="#DejaVuSans-52"/>
      <use x="64.982422" xlink:href="#DejaVuSans-65"/>
      <use x="126.505859" xlink:href="#DejaVuSans-61"/>
      <use x="187.785156" xlink:href="#DejaVuSans-6c"/>
      <use x="215.568359" xlink:href="#DejaVuSans-20"/>
      <use x="247.355469" xlink:href="#DejaVuSans-47"/>
      <use x="324.845703" xlink:href="#DejaVuSans-44"/>
      <use x="401.847656" xlink:href="#DejaVuSans-50"/>
      <use x="462.150391" xlink:href="#DejaVuSans-20"/>
      <use x="493.9375" xlink:href="#DejaVuSans-67"/>
      <use x="557.414062" xlink:href="#DejaVuSans-72"/>
      <use x="596.277344" xlink:href="#DejaVuSans-6f"/>
      <use x="657.458984" xlink:href="#DejaVuSans-77"/>
      <use x="739.246094" xlink:href="#DejaVuSans-74"/>
      <use x="778.455078" xlink:href="#DejaVuSans-68"/>
      <use x="841.833984" xlink:href="#DejaVuSans-2c"/>
      <use x="873.621094" xlink:href="#DejaVuSans-20"/>
      <use x="905.408203" xlink:href="#DejaVuSans-25"/>
     </g>
    </g>
   </g>
   <g id="line2d_26">
    <path clip-path="url(#p227085c922)" d="M 53.769881 74.042818 
L 55.562067 73.137285 
L 57.354254 74.540872 
L 59.166135 77.694916 
L 60.978016 80.388295 
L 62.750509 82.686571 
L 64.542695 85.376146 
L 66.354576 84.292511 
L 68.166457 81.92694 
L 69.93895 81.124621 
L 71.731136 78.771508 
L 73.543017 78.923899 
L 75.354898 81.258349 
L 77.127391 83.105476 
L 78.919578 84.325944 
L 80.731459 83.975801 
L 82.54334 83.561666 
L 84.335526 80.220435 
L 86.127713 78.18528 
L 87.939594 78.11312 
L 89.751475 79.061646 
L 91.523967 80.223727 
L 93.316154 80.146305 
L 95.128035 79.466572 
L 96.939916 78.289945 
L 98.712409 79.996816 
L 100.504595 82.330767 
L 102.316476 83.798023 
L 104.128357 84.222354 
L 105.90085 81.93775 
L 107.693036 81.585129 
L 109.504917 82.299959 
L 111.316799 83.704739 
L 113.108985 85.206542 
L 114.901172 84.217375 
L 116.713053 87.38645 
L 118.524934 93.130175 
L 120.297426 96.608825 
L 122.089613 97.478144 
L 123.901494 91.926551 
L 125.713375 83.362839 
L 127.485868 79.281089 
L 129.278054 78.626436 
L 131.089935 78.748969 
L 132.901816 79.883827 
L 134.674309 80.71224 
L 136.466495 79.028648 
L 138.278376 79.858839 
L 140.090257 81.598458 
L 141.882444 81.268317 
L 143.674631 84.360949 
L 145.486512 85.796008 
L 147.298393 83.734833 
L 149.070885 83.102215 
L 150.863072 81.405485 
L 152.674953 79.283437 
L 154.486834 81.131094 
L 156.259326 80.295892 
L 158.051513 79.934146 
L 159.863394 80.833652 
L 161.675275 82.631565 
L 163.447768 85.577746 
L 165.239954 87.0638 
L 167.051835 88.573607 
L 168.863716 85.870299 
L 170.655903 86.41525 
L 172.44809 84.747668 
L 174.259971 83.538524 
L 176.071852 82.200459 
L 177.844344 78.376306 
L 179.636531 79.914523 
L 181.448412 80.024163 
L 183.260293 80.554782 
L 185.032785 81.150352 
L 186.824972 80.476485 
L 188.636853 80.922191 
L 190.448734 82.886089 
L 192.221227 82.374925 
L 194.013413 83.281166 
L 195.825294 83.381344 
L 197.637175 88.996962 
L 199.429362 118.120414 
L 201.221549 99.542012 
L 203.03343 95.130934 
L 204.845311 87.215192 
L 206.617803 58.845336 
L 208.40999 78.184573 
L 210.221871 79.657764 
L 212.033752 80.506034 
L 213.806244 78.486846 
" style="fill:none;stroke:#57d3db;stroke-width:0.886227;"/>
   </g>
   <g id="patch_3">
    <path d="M 45.768063 21.786804 
L 221.808063 21.786804 
L 221.808063 7.2 
L 45.768063 7.2 
z
" style="fill:#d9d9d9;"/>
   </g>
   <g id="text_7">
    <!-- CA -->
    <g style="fill:#1a1a1a;" transform="translate(127.70575 16.921652)scale(0.088 -0.088)">
     <defs>
      <path d="M 4122 4306 
L 4122 3641 
Q 3803 3938 3442 4084 
Q 3081 4231 2675 4231 
Q 1875 4231 1450 3742 
Q 1025 3253 1025 2328 
Q 1025 1406 1450 917 
Q 1875 428 2675 428 
Q 3081 428 3442 575 
Q 3803 722 4122 1019 
L 4122 359 
Q 3791 134 3420 21 
Q 3050 -91 2638 -91 
Q 1578 -91 968 557 
Q 359 1206 359 2328 
Q 359 3453 968 4101 
Q 1578 4750 2638 4750 
Q 3056 4750 3426 4639 
Q 3797 4528 4122 4306 
z
" id="DejaVuSans-43" transform="scale(0.015625)"/>
      <path d="M 2188 4044 
L 1331 1722 
L 3047 1722 
L 2188 4044 
z
M 1831 4666 
L 2547 4666 
L 4325 0 
L 3669 0 
L 3244 1197 
L 1141 1197 
L 716 0 
L 50 0 
L 1831 4666 
z
" id="DejaVuSans-41" transform="scale(0.015625)"/>
     </defs>
     <use xlink:href="#DejaVuSans-43"/>
     <use x="69.824219" xlink:href="#DejaVuSans-41"/>
    </g>
   </g>
   <g id="patch_4">
    <path d="M 410.088063 189.677773 
L 517.037313 189.677773 
L 517.037313 116.551835 
L 410.088063 116.551835 
z
" style="fill:#ffffff;"/>
   </g>
   <g id="text_8">
    <!-- factor(Region) -->
    <g transform="translate(422.288063 140.145429)scale(0.11 -0.11)">
     <defs>
      <path d="M 2375 4863 
L 2375 4384 
L 1825 4384 
Q 1516 4384 1395 4259 
Q 1275 4134 1275 3809 
L 1275 3500 
L 2222 3500 
L 2222 3053 
L 1275 3053 
L 1275 0 
L 697 0 
L 697 3053 
L 147 3053 
L 147 3500 
L 697 3500 
L 697 3744 
Q 697 4328 969 4595 
Q 1241 4863 1831 4863 
L 2375 4863 
z
" id="DejaVuSans-66" transform="scale(0.015625)"/>
      <path d="M 3122 3366 
L 3122 2828 
Q 2878 2963 2633 3030 
Q 2388 3097 2138 3097 
Q 1578 3097 1268 2742 
Q 959 2388 959 1747 
Q 959 1106 1268 751 
Q 1578 397 2138 397 
Q 2388 397 2633 464 
Q 2878 531 3122 666 
L 3122 134 
Q 2881 22 2623 -34 
Q 2366 -91 2075 -91 
Q 1284 -91 818 406 
Q 353 903 353 1747 
Q 353 2603 823 3093 
Q 1294 3584 2113 3584 
Q 2378 3584 2631 3529 
Q 2884 3475 3122 3366 
z
" id="DejaVuSans-63" transform="scale(0.015625)"/>
      <path d="M 1984 4856 
Q 1566 4138 1362 3434 
Q 1159 2731 1159 2009 
Q 1159 1288 1364 580 
Q 1569 -128 1984 -844 
L 1484 -844 
Q 1016 -109 783 600 
Q 550 1309 550 2009 
Q 550 2706 781 3412 
Q 1013 4119 1484 4856 
L 1984 4856 
z
" id="DejaVuSans-28" transform="scale(0.015625)"/>
      <path d="M 603 3500 
L 1178 3500 
L 1178 0 
L 603 0 
L 603 3500 
z
M 603 4863 
L 1178 4863 
L 1178 4134 
L 603 4134 
L 603 4863 
z
" id="DejaVuSans-69" transform="scale(0.015625)"/>
      <path d="M 3513 2113 
L 3513 0 
L 2938 0 
L 2938 2094 
Q 2938 2591 2744 2837 
Q 2550 3084 2163 3084 
Q 1697 3084 1428 2787 
Q 1159 2491 1159 1978 
L 1159 0 
L 581 0 
L 581 3500 
L 1159 3500 
L 1159 2956 
Q 1366 3272 1645 3428 
Q 1925 3584 2291 3584 
Q 2894 3584 3203 3211 
Q 3513 2838 3513 2113 
z
" id="DejaVuSans-6e" transform="scale(0.015625)"/>
      <path d="M 513 4856 
L 1013 4856 
Q 1481 4119 1714 3412 
Q 1947 2706 1947 2009 
Q 1947 1309 1714 600 
Q 1481 -109 1013 -844 
L 513 -844 
Q 928 -128 1133 580 
Q 1338 1288 1338 2009 
Q 1338 2731 1133 3434 
Q 928 4138 513 4856 
z
" id="DejaVuSans-29" transform="scale(0.015625)"/>
     </defs>
     <use xlink:href="#DejaVuSans-66"/>
     <use x="35.205078" xlink:href="#DejaVuSans-61"/>
     <use x="96.484375" xlink:href="#DejaVuSans-63"/>
     <use x="151.464844" xlink:href="#DejaVuSans-74"/>
     <use x="190.673828" xlink:href="#DejaVuSans-6f"/>
     <use x="251.855469" xlink:href="#DejaVuSans-72"/>
     <use x="292.96875" xlink:href="#DejaVuSans-28"/>
     <use x="331.982422" xlink:href="#DejaVuSans-52"/>
     <use x="396.964844" xlink:href="#DejaVuSans-65"/>
     <use x="458.488281" xlink:href="#DejaVuSans-67"/>
     <use x="521.964844" xlink:href="#DejaVuSans-69"/>
     <use x="549.748047" xlink:href="#DejaVuSans-6f"/>
     <use x="610.929688" xlink:href="#DejaVuSans-6e"/>
     <use x="674.308594" xlink:href="#DejaVuSans-29"/>
    </g>
   </g>
   <g id="patch_5">
    <path clip-path="url(#pb7b96dd7f8)" d="M 422.288063 159.637773 
L 438.128062 159.637773 
L 438.128062 143.797773 
L 422.288063 143.797773 
z
" style="fill:#f2f2f2;"/>
   </g>
   <g id="line2d_27">
    <path clip-path="url(#pb7b96dd7f8)" d="M 422.288063 151.717773 
L 438.128062 151.717773 
" style="fill:none;stroke:#db5f57;stroke-width:0.886227;"/>
   </g>
   <g id="text_9">
    <!-- Europe -->
    <g transform="translate(441.128063 154.146023)scale(0.088 -0.088)">
     <defs>
      <path d="M 628 4666 
L 3578 4666 
L 3578 4134 
L 1259 4134 
L 1259 2753 
L 3481 2753 
L 3481 2222 
L 1259 2222 
L 1259 531 
L 3634 531 
L 3634 0 
L 628 0 
L 628 4666 
z
" id="DejaVuSans-45" transform="scale(0.015625)"/>
      <path d="M 544 1381 
L 544 3500 
L 1119 3500 
L 1119 1403 
Q 1119 906 1312 657 
Q 1506 409 1894 409 
Q 2359 409 2629 706 
Q 2900 1003 2900 1516 
L 2900 3500 
L 3475 3500 
L 3475 0 
L 2900 0 
L 2900 538 
Q 2691 219 2414 64 
Q 2138 -91 1772 -91 
Q 1169 -91 856 284 
Q 544 659 544 1381 
z
M 1991 3584 
L 1991 3584 
z
" id="DejaVuSans-75" transform="scale(0.015625)"/>
      <path d="M 1159 525 
L 1159 -1331 
L 581 -1331 
L 581 3500 
L 1159 3500 
L 1159 2969 
Q 1341 3281 1617 3432 
Q 1894 3584 2278 3584 
Q 2916 3584 3314 3078 
Q 3713 2572 3713 1747 
Q 3713 922 3314 415 
Q 2916 -91 2278 -91 
Q 1894 -91 1617 61 
Q 1341 213 1159 525 
z
M 3116 1747 
Q 3116 2381 2855 2742 
Q 2594 3103 2138 3103 
Q 1681 3103 1420 2742 
Q 1159 2381 1159 1747 
Q 1159 1113 1420 752 
Q 1681 391 2138 391 
Q 2594 391 2855 752 
Q 3116 1113 3116 1747 
z
" id="DejaVuSans-70" transform="scale(0.015625)"/>
     </defs>
     <use xlink:href="#DejaVuSans-45"/>
     <use x="63.183594" xlink:href="#DejaVuSans-75"/>
     <use x="126.5625" xlink:href="#DejaVuSans-72"/>
     <use x="165.425781" xlink:href="#DejaVuSans-6f"/>
     <use x="226.607422" xlink:href="#DejaVuSans-70"/>
     <use x="290.083984" xlink:href="#DejaVuSans-65"/>
    </g>
   </g>
   <g id="patch_6">
    <path clip-path="url(#pf3b7397acf)" d="M 422.288063 177.477773 
L 438.128062 177.477773 
L 438.128062 161.637773 
L 422.288063 161.637773 
z
" style="fill:#f2f2f2;"/>
   </g>
   <g id="line2d_28">
    <path clip-path="url(#pf3b7397acf)" d="M 422.288063 169.557773 
L 438.128062 169.557773 
" style="fill:none;stroke:#57d3db;stroke-width:0.886227;"/>
   </g>
   <g id="text_10">
    <!-- North America -->
    <g transform="translate(441.128063 171.986023)scale(0.088 -0.088)">
     <defs>
      <path d="M 628 4666 
L 1478 4666 
L 3547 763 
L 3547 4666 
L 4159 4666 
L 4159 0 
L 3309 0 
L 1241 3903 
L 1241 0 
L 628 0 
L 628 4666 
z
" id="DejaVuSans-4e" transform="scale(0.015625)"/>
      <path d="M 3328 2828 
Q 3544 3216 3844 3400 
Q 4144 3584 4550 3584 
Q 5097 3584 5394 3201 
Q 5691 2819 5691 2113 
L 5691 0 
L 5113 0 
L 5113 2094 
Q 5113 2597 4934 2840 
Q 4756 3084 4391 3084 
Q 3944 3084 3684 2787 
Q 3425 2491 3425 1978 
L 3425 0 
L 2847 0 
L 2847 2094 
Q 2847 2600 2669 2842 
Q 2491 3084 2119 3084 
Q 1678 3084 1418 2786 
Q 1159 2488 1159 1978 
L 1159 0 
L 581 0 
L 581 3500 
L 1159 3500 
L 1159 2956 
Q 1356 3278 1631 3431 
Q 1906 3584 2284 3584 
Q 2666 3584 2933 3390 
Q 3200 3197 3328 2828 
z
" id="DejaVuSans-6d" transform="scale(0.015625)"/>
     </defs>
     <use xlink:href="#DejaVuSans-4e"/>
     <use x="74.804688" xlink:href="#DejaVuSans-6f"/>
     <use x="135.986328" xlink:href="#DejaVuSans-72"/>
     <use x="177.099609" xlink:href="#DejaVuSans-74"/>
     <use x="216.308594" xlink:href="#DejaVuSans-68"/>
     <use x="279.6875" xlink:href="#DejaVuSans-20"/>
     <use x="311.474609" xlink:href="#DejaVuSans-41"/>
     <use x="379.882812" xlink:href="#DejaVuSans-6d"/>
     <use x="477.294922" xlink:href="#DejaVuSans-65"/>
     <use x="538.818359" xlink:href="#DejaVuSans-72"/>
     <use x="579.931641" xlink:href="#DejaVuSans-69"/>
     <use x="607.714844" xlink:href="#DejaVuSans-63"/>
     <use x="662.695312" xlink:href="#DejaVuSans-61"/>
    </g>
   </g>
  </g>
  <g id="axes_2">
   <g id="patch_7">
    <path d="M 226.848063 145.172804 
L 402.888062 145.172804 
L 402.888062 21.786804 
L 226.848063 21.786804 
z
" style="fill:#ebebeb;"/>
   </g>
   <g id="matplotlib.axis_3">
    <g id="xtick_11">
     <g id="line2d_29">
      <path clip-path="url(#p368cd92319)" d="M 234.849881 145.172804 
L 234.849881 21.786804 
" style="fill:none;stroke:#ffffff;stroke-linecap:square;"/>
     </g>
    </g>
    <g id="xtick_12">
     <g id="line2d_30">
      <path clip-path="url(#p368cd92319)" d="M 270.831475 145.172804 
L 270.831475 21.786804 
" style="fill:none;stroke:#ffffff;stroke-linecap:square;"/>
     </g>
    </g>
    <g id="xtick_13">
     <g id="line2d_31">
      <path clip-path="url(#p368cd92319)" d="M 306.793375 145.172804 
L 306.793375 21.786804 
" style="fill:none;stroke:#ffffff;stroke-linecap:square;"/>
     </g>
    </g>
    <g id="xtick_14">
     <g id="line2d_32">
      <path clip-path="url(#p368cd92319)" d="M 342.755275 145.172804 
L 342.755275 21.786804 
" style="fill:none;stroke:#ffffff;stroke-linecap:square;"/>
     </g>
    </g>
    <g id="xtick_15">
     <g id="line2d_33">
      <path clip-path="url(#p368cd92319)" d="M 378.717175 145.172804 
L 378.717175 21.786804 
" style="fill:none;stroke:#ffffff;stroke-linecap:square;"/>
     </g>
    </g>
    <g id="xtick_16">
     <g id="line2d_34">
      <path clip-path="url(#p368cd92319)" d="M 252.840678 145.172804 
L 252.840678 21.786804 
" style="fill:none;stroke:#ffffff;stroke-linecap:square;stroke-width:0.5;"/>
     </g>
    </g>
    <g id="xtick_17">
     <g id="line2d_35">
      <path clip-path="url(#p368cd92319)" d="M 288.812425 145.172804 
L 288.812425 21.786804 
" style="fill:none;stroke:#ffffff;stroke-linecap:square;stroke-width:0.5;"/>
     </g>
    </g>
    <g id="xtick_18">
     <g id="line2d_36">
      <path clip-path="url(#p368cd92319)" d="M 324.774325 145.172804 
L 324.774325 21.786804 
" style="fill:none;stroke:#ffffff;stroke-linecap:square;stroke-width:0.5;"/>
     </g>
    </g>
    <g id="xtick_19">
     <g id="line2d_37">
      <path clip-path="url(#p368cd92319)" d="M 360.736225 145.172804 
L 360.736225 21.786804 
" style="fill:none;stroke:#ffffff;stroke-linecap:square;stroke-width:0.5;"/>
     </g>
    </g>
    <g id="xtick_20">
     <g id="line2d_38">
      <path clip-path="url(#p368cd92319)" d="M 396.707973 145.172804 
L 396.707973 21.786804 
" style="fill:none;stroke:#ffffff;stroke-linecap:square;stroke-width:0.5;"/>
     </g>
    </g>
   </g>
   <g id="matplotlib.axis_4">
    <g id="ytick_11">
     <g id="line2d_39">
      <path clip-path="url(#p368cd92319)" d="M 226.848063 136.766186 
L 402.888062 136.766186 
" style="fill:none;stroke:#ffffff;stroke-linecap:square;"/>
     </g>
    </g>
    <g id="ytick_12">
     <g id="line2d_40">
      <path clip-path="url(#p368cd92319)" d="M 226.848063 112.184571 
L 402.888062 112.184571 
" style="fill:none;stroke:#ffffff;stroke-linecap:square;"/>
     </g>
    </g>
    <g id="ytick_13">
     <g id="line2d_41">
      <path clip-path="url(#p368cd92319)" d="M 226.848063 87.602955 
L 402.888062 87.602955 
" style="fill:none;stroke:#ffffff;stroke-linecap:square;"/>
     </g>
    </g>
    <g id="ytick_14">
     <g id="line2d_42">
      <path clip-path="url(#p368cd92319)" d="M 226.848063 63.02134 
L 402.888062 63.02134 
" style="fill:none;stroke:#ffffff;stroke-linecap:square;"/>
     </g>
    </g>
    <g id="ytick_15">
     <g id="line2d_43">
      <path clip-path="url(#p368cd92319)" d="M 226.848063 38.439724 
L 402.888062 38.439724 
" style="fill:none;stroke:#ffffff;stroke-linecap:square;"/>
     </g>
    </g>
    <g id="ytick_16">
     <g id="line2d_44">
      <path clip-path="url(#p368cd92319)" d="M 226.848063 124.475378 
L 402.888062 124.475378 
" style="fill:none;stroke:#ffffff;stroke-linecap:square;stroke-width:0.5;"/>
     </g>
    </g>
    <g id="ytick_17">
     <g id="line2d_45">
      <path clip-path="url(#p368cd92319)" d="M 226.848063 99.893763 
L 402.888062 99.893763 
" style="fill:none;stroke:#ffffff;stroke-linecap:square;stroke-width:0.5;"/>
     </g>
    </g>
    <g id="ytick_18">
     <g id="line2d_46">
      <path clip-path="url(#p368cd92319)" d="M 226.848063 75.312147 
L 402.888062 75.312147 
" style="fill:none;stroke:#ffffff;stroke-linecap:square;stroke-width:0.5;"/>
     </g>
    </g>
    <g id="ytick_19">
     <g id="line2d_47">
      <path clip-path="url(#p368cd92319)" d="M 226.848063 50.730532 
L 402.888062 50.730532 
" style="fill:none;stroke:#ffffff;stroke-linecap:square;stroke-width:0.5;"/>
     </g>
    </g>
    <g id="ytick_20">
     <g id="line2d_48">
      <path clip-path="url(#p368cd92319)" d="M 226.848063 26.148916 
L 402.888062 26.148916 
" style="fill:none;stroke:#ffffff;stroke-linecap:square;stroke-width:0.5;"/>
     </g>
    </g>
   </g>
   <g id="line2d_49">
    <path clip-path="url(#p368cd92319)" d="M 234.849881 78.011694 
L 236.642067 76.084158 
L 238.434254 77.141634 
L 240.246135 78.676736 
L 242.058016 80.026755 
L 243.830509 82.322725 
L 245.622695 83.371962 
L 247.434576 85.589539 
L 249.246457 85.430662 
L 251.01895 84.690284 
L 252.811136 84.748842 
L 254.623017 83.997604 
L 256.434898 85.155498 
L 258.207391 86.729724 
L 259.999578 85.670845 
L 261.811459 84.571724 
L 263.62334 82.393079 
L 265.415526 80.371524 
L 267.207713 81.361827 
L 269.019594 81.184043 
L 270.831475 83.050068 
L 272.603967 83.82273 
L 274.396154 83.140019 
L 276.208035 83.344617 
L 278.019916 81.966191 
L 279.792409 80.06933 
L 281.584595 81.28146 
L 283.396476 81.121033 
L 285.208357 81.245129 
L 286.98085 82.145844 
L 288.773036 81.130916 
L 290.584917 82.483405 
L 292.396799 83.08954 
L 294.188985 86.119389 
L 295.981172 87.735125 
L 297.793053 91.87255 
L 299.604934 97.143232 
L 301.377426 95.872799 
L 303.169613 95.014989 
L 304.981494 89.680947 
L 306.793375 84.599966 
L 308.565868 83.360152 
L 310.358054 82.243908 
L 312.169935 82.310768 
L 313.981816 80.613406 
L 315.754309 82.054003 
L 317.546495 82.371405 
L 319.358376 83.593678 
L 321.170257 86.097542 
L 322.962444 86.245532 
L 324.754631 86.878789 
L 326.566512 87.616731 
L 328.378393 87.500114 
L 330.150885 85.483284 
L 331.943072 86.312093 
L 333.754953 84.402653 
L 335.566834 84.555259 
L 337.339326 85.994198 
L 339.131513 84.325577 
L 340.943394 86.056235 
L 342.755275 84.761663 
L 344.527768 84.698937 
L 346.319954 85.558015 
L 348.131835 84.97889 
L 349.943716 84.735426 
L 351.735903 85.751617 
L 353.52809 85.616421 
L 355.339971 84.643339 
L 357.151852 84.33351 
L 358.924344 81.643967 
L 360.716531 80.218046 
L 362.528412 80.143077 
L 364.340293 81.845382 
L 366.112785 82.76659 
L 367.904972 83.914324 
L 369.716853 83.943978 
L 371.528734 82.40087 
L 373.301227 81.786236 
L 375.093413 82.739127 
L 376.905294 84.939826 
L 378.717175 100.401183 
L 380.509362 133.258843 
L 382.301549 96.477854 
L 384.11343 97.915469 
L 385.925311 83.873006 
L 387.697803 41.808773 
L 389.48999 78.841389 
L 391.301871 75.173149 
L 393.113752 75.871427 
L 394.886244 77.209007 
" style="fill:none;stroke:#db5f57;stroke-width:0.886227;"/>
   </g>
   <g id="patch_8">
    <path d="M 226.848063 21.786804 
L 402.888062 21.786804 
L 402.888062 7.2 
L 226.848063 7.2 
z
" style="fill:#d9d9d9;"/>
   </g>
   <g id="text_11">
    <!-- FR -->
    <g style="fill:#1a1a1a;" transform="translate(309.280062 16.921652)scale(0.088 -0.088)">
     <defs>
      <path d="M 628 4666 
L 3309 4666 
L 3309 4134 
L 1259 4134 
L 1259 2759 
L 3109 2759 
L 3109 2228 
L 1259 2228 
L 1259 0 
L 628 0 
L 628 4666 
z
" id="DejaVuSans-46" transform="scale(0.015625)"/>
     </defs>
     <use xlink:href="#DejaVuSans-46"/>
     <use x="57.519531" xlink:href="#DejaVuSans-52"/>
    </g>
   </g>
  </g>
  <g id="axes_3">
   <g id="patch_9">
    <path d="M 45.768063 287.898804 
L 221.808063 287.898804 
L 221.808063 164.512804 
L 45.768063 164.512804 
z
" style="fill:#ebebeb;"/>
   </g>
   <g id="matplotlib.axis_5">
    <g id="xtick_21">
     <g id="line2d_50">
      <path clip-path="url(#p1f7a87535d)" d="M 53.769881 287.898804 
L 53.769881 164.512804 
" style="fill:none;stroke:#ffffff;stroke-linecap:square;"/>
     </g>
     <g id="line2d_51">
      <path d="M 53.769881 287.898804 
" style="fill:none;stroke:#333333;stroke-linecap:square;stroke-width:1.5;"/>
      <defs>
       <path d="M 0 0 
L 0 2.75 
" id="m0e3ff7a93d" style="stroke:#000000;"/>
      </defs>
      <g>
       <use style="fill:#333333;stroke:#000000;" x="53.769881" xlink:href="#m0e3ff7a93d" y="287.898804"/>
      </g>
     </g>
     <g id="text_12">
      <!-- 2000-01-01 -->
      <g style="fill:#4d4d4d;" transform="translate(56.198131 343.990554)rotate(-90)scale(0.088 -0.088)">
       <defs>
        <path d="M 313 2009 
L 1997 2009 
L 1997 1497 
L 313 1497 
L 313 2009 
z
" id="DejaVuSans-2d" transform="scale(0.015625)"/>
       </defs>
       <use xlink:href="#DejaVuSans-32"/>
       <use x="63.623047" xlink:href="#DejaVuSans-30"/>
       <use x="127.246094" xlink:href="#DejaVuSans-30"/>
       <use x="190.869141" xlink:href="#DejaVuSans-30"/>
       <use x="254.492188" xlink:href="#DejaVuSans-2d"/>
       <use x="290.576172" xlink:href="#DejaVuSans-30"/>
       <use x="354.199219" xlink:href="#DejaVuSans-31"/>
       <use x="417.822266" xlink:href="#DejaVuSans-2d"/>
       <use x="453.90625" xlink:href="#DejaVuSans-30"/>
       <use x="517.529297" xlink:href="#DejaVuSans-31"/>
      </g>
     </g>
    </g>
    <g id="xtick_22">
     <g id="line2d_52">
      <path clip-path="url(#p1f7a87535d)" d="M 89.751475 287.898804 
L 89.751475 164.512804 
" style="fill:none;stroke:#ffffff;stroke-linecap:square;"/>
     </g>
     <g id="line2d_53">
      <path d="M 89.751475 287.898804 
" style="fill:none;stroke:#333333;stroke-linecap:square;stroke-width:1.5;"/>
      <g>
       <use style="fill:#333333;stroke:#000000;" x="89.751475" xlink:href="#m0e3ff7a93d" y="287.898804"/>
      </g>
     </g>
     <g id="text_13">
      <!-- 2005-01-01 -->
      <g style="fill:#4d4d4d;" transform="translate(92.179725 343.990554)rotate(-90)scale(0.088 -0.088)">
       <defs>
        <path d="M 691 4666 
L 3169 4666 
L 3169 4134 
L 1269 4134 
L 1269 2991 
Q 1406 3038 1543 3061 
Q 1681 3084 1819 3084 
Q 2600 3084 3056 2656 
Q 3513 2228 3513 1497 
Q 3513 744 3044 326 
Q 2575 -91 1722 -91 
Q 1428 -91 1123 -41 
Q 819 9 494 109 
L 494 744 
Q 775 591 1075 516 
Q 1375 441 1709 441 
Q 2250 441 2565 725 
Q 2881 1009 2881 1497 
Q 2881 1984 2565 2268 
Q 2250 2553 1709 2553 
Q 1456 2553 1204 2497 
Q 953 2441 691 2322 
L 691 4666 
z
" id="DejaVuSans-35" transform="scale(0.015625)"/>
       </defs>
       <use xlink:href="#DejaVuSans-32"/>
       <use x="63.623047" xlink:href="#DejaVuSans-30"/>
       <use x="127.246094" xlink:href="#DejaVuSans-30"/>
       <use x="190.869141" xlink:href="#DejaVuSans-35"/>
       <use x="254.492188" xlink:href="#DejaVuSans-2d"/>
       <use x="290.576172" xlink:href="#DejaVuSans-30"/>
       <use x="354.199219" xlink:href="#DejaVuSans-31"/>
       <use x="417.822266" xlink:href="#DejaVuSans-2d"/>
       <use x="453.90625" xlink:href="#DejaVuSans-30"/>
       <use x="517.529297" xlink:href="#DejaVuSans-31"/>
      </g>
     </g>
    </g>
    <g id="xtick_23">
     <g id="line2d_54">
      <path clip-path="url(#p1f7a87535d)" d="M 125.713375 287.898804 
L 125.713375 164.512804 
" style="fill:none;stroke:#ffffff;stroke-linecap:square;"/>
     </g>
     <g id="line2d_55">
      <path d="M 125.713375 287.898804 
" style="fill:none;stroke:#333333;stroke-linecap:square;stroke-width:1.5;"/>
      <g>
       <use style="fill:#333333;stroke:#000000;" x="125.713375" xlink:href="#m0e3ff7a93d" y="287.898804"/>
      </g>
     </g>
     <g id="text_14">
      <!-- 2010-01-01 -->
      <g style="fill:#4d4d4d;" transform="translate(128.141625 343.990554)rotate(-90)scale(0.088 -0.088)">
       <use xlink:href="#DejaVuSans-32"/>
       <use x="63.623047" xlink:href="#DejaVuSans-30"/>
       <use x="127.246094" xlink:href="#DejaVuSans-31"/>
       <use x="190.869141" xlink:href="#DejaVuSans-30"/>
       <use x="254.492188" xlink:href="#DejaVuSans-2d"/>
       <use x="290.576172" xlink:href="#DejaVuSans-30"/>
       <use x="354.199219" xlink:href="#DejaVuSans-31"/>
       <use x="417.822266" xlink:href="#DejaVuSans-2d"/>
       <use x="453.90625" xlink:href="#DejaVuSans-30"/>
       <use x="517.529297" xlink:href="#DejaVuSans-31"/>
      </g>
     </g>
    </g>
    <g id="xtick_24">
     <g id="line2d_56">
      <path clip-path="url(#p1f7a87535d)" d="M 161.675275 287.898804 
L 161.675275 164.512804 
" style="fill:none;stroke:#ffffff;stroke-linecap:square;"/>
     </g>
     <g id="line2d_57">
      <path d="M 161.675275 287.898804 
" style="fill:none;stroke:#333333;stroke-linecap:square;stroke-width:1.5;"/>
      <g>
       <use style="fill:#333333;stroke:#000000;" x="161.675275" xlink:href="#m0e3ff7a93d" y="287.898804"/>
      </g>
     </g>
     <g id="text_15">
      <!-- 2015-01-01 -->
      <g style="fill:#4d4d4d;" transform="translate(164.103525 343.990554)rotate(-90)scale(0.088 -0.088)">
       <use xlink:href="#DejaVuSans-32"/>
       <use x="63.623047" xlink:href="#DejaVuSans-30"/>
       <use x="127.246094" xlink:href="#DejaVuSans-31"/>
       <use x="190.869141" xlink:href="#DejaVuSans-35"/>
       <use x="254.492188" xlink:href="#DejaVuSans-2d"/>
       <use x="290.576172" xlink:href="#DejaVuSans-30"/>
       <use x="354.199219" xlink:href="#DejaVuSans-31"/>
       <use x="417.822266" xlink:href="#DejaVuSans-2d"/>
       <use x="453.90625" xlink:href="#DejaVuSans-30"/>
       <use x="517.529297" xlink:href="#DejaVuSans-31"/>
      </g>
     </g>
    </g>
    <g id="xtick_25">
     <g id="line2d_58">
      <path clip-path="url(#p1f7a87535d)" d="M 197.637175 287.898804 
L 197.637175 164.512804 
" style="fill:none;stroke:#ffffff;stroke-linecap:square;"/>
     </g>
     <g id="line2d_59">
      <path d="M 197.637175 287.898804 
" style="fill:none;stroke:#333333;stroke-linecap:square;stroke-width:1.5;"/>
      <g>
       <use style="fill:#333333;stroke:#000000;" x="197.637175" xlink:href="#m0e3ff7a93d" y="287.898804"/>
      </g>
     </g>
     <g id="text_16">
      <!-- 2020-01-01 -->
      <g style="fill:#4d4d4d;" transform="translate(200.065425 343.990554)rotate(-90)scale(0.088 -0.088)">
       <use xlink:href="#DejaVuSans-32"/>
       <use x="63.623047" xlink:href="#DejaVuSans-30"/>
       <use x="127.246094" xlink:href="#DejaVuSans-32"/>
       <use x="190.869141" xlink:href="#DejaVuSans-30"/>
       <use x="254.492188" xlink:href="#DejaVuSans-2d"/>
       <use x="290.576172" xlink:href="#DejaVuSans-30"/>
       <use x="354.199219" xlink:href="#DejaVuSans-31"/>
       <use x="417.822266" xlink:href="#DejaVuSans-2d"/>
       <use x="453.90625" xlink:href="#DejaVuSans-30"/>
       <use x="517.529297" xlink:href="#DejaVuSans-31"/>
      </g>
     </g>
    </g>
    <g id="xtick_26">
     <g id="line2d_60">
      <path clip-path="url(#p1f7a87535d)" d="M 71.760678 287.898804 
L 71.760678 164.512804 
" style="fill:none;stroke:#ffffff;stroke-linecap:square;stroke-width:0.5;"/>
     </g>
    </g>
    <g id="xtick_27">
     <g id="line2d_61">
      <path clip-path="url(#p1f7a87535d)" d="M 107.732425 287.898804 
L 107.732425 164.512804 
" style="fill:none;stroke:#ffffff;stroke-linecap:square;stroke-width:0.5;"/>
     </g>
    </g>
    <g id="xtick_28">
     <g id="line2d_62">
      <path clip-path="url(#p1f7a87535d)" d="M 143.694325 287.898804 
L 143.694325 164.512804 
" style="fill:none;stroke:#ffffff;stroke-linecap:square;stroke-width:0.5;"/>
     </g>
    </g>
    <g id="xtick_29">
     <g id="line2d_63">
      <path clip-path="url(#p1f7a87535d)" d="M 179.656225 287.898804 
L 179.656225 164.512804 
" style="fill:none;stroke:#ffffff;stroke-linecap:square;stroke-width:0.5;"/>
     </g>
    </g>
    <g id="xtick_30">
     <g id="line2d_64">
      <path clip-path="url(#p1f7a87535d)" d="M 215.627973 287.898804 
L 215.627973 164.512804 
" style="fill:none;stroke:#ffffff;stroke-linecap:square;stroke-width:0.5;"/>
     </g>
    </g>
   </g>
   <g id="matplotlib.axis_6">
    <g id="ytick_21">
     <g id="line2d_65">
      <path clip-path="url(#p1f7a87535d)" d="M 45.768063 279.492186 
L 221.808063 279.492186 
" style="fill:none;stroke:#ffffff;stroke-linecap:square;"/>
     </g>
     <g id="line2d_66">
      <path d="M 45.768063 279.492186 
" style="fill:none;stroke:#333333;stroke-linecap:square;stroke-width:1.5;"/>
      <g>
       <use style="fill:#333333;stroke:#000000;" x="45.768063" xlink:href="#m7c30922b79" y="279.492186"/>
      </g>
     </g>
     <g id="text_17">
      <!-- −20 -->
      <g style="fill:#4d4d4d;" transform="translate(22.245938 281.920436)scale(0.088 -0.088)">
       <use xlink:href="#DejaVuSans-2212"/>
       <use x="83.789062" xlink:href="#DejaVuSans-32"/>
       <use x="147.412109" xlink:href="#DejaVuSans-30"/>
      </g>
     </g>
    </g>
    <g id="ytick_22">
     <g id="line2d_67">
      <path clip-path="url(#p1f7a87535d)" d="M 45.768063 254.910571 
L 221.808063 254.910571 
" style="fill:none;stroke:#ffffff;stroke-linecap:square;"/>
     </g>
     <g id="line2d_68">
      <path d="M 45.768063 254.910571 
" style="fill:none;stroke:#333333;stroke-linecap:square;stroke-width:1.5;"/>
      <g>
       <use style="fill:#333333;stroke:#000000;" x="45.768063" xlink:href="#m7c30922b79" y="254.910571"/>
      </g>
     </g>
     <g id="text_18">
      <!-- −10 -->
      <g style="fill:#4d4d4d;" transform="translate(22.245938 257.338821)scale(0.088 -0.088)">
       <use xlink:href="#DejaVuSans-2212"/>
       <use x="83.789062" xlink:href="#DejaVuSans-31"/>
       <use x="147.412109" xlink:href="#DejaVuSans-30"/>
      </g>
     </g>
    </g>
    <g id="ytick_23">
     <g id="line2d_69">
      <path clip-path="url(#p1f7a87535d)" d="M 45.768063 230.328955 
L 221.808063 230.328955 
" style="fill:none;stroke:#ffffff;stroke-linecap:square;"/>
     </g>
     <g id="line2d_70">
      <path d="M 45.768063 230.328955 
" style="fill:none;stroke:#333333;stroke-linecap:square;stroke-width:1.5;"/>
      <g>
       <use style="fill:#333333;stroke:#000000;" x="45.768063" xlink:href="#m7c30922b79" y="230.328955"/>
      </g>
     </g>
     <g id="text_19">
      <!-- 0 -->
      <g style="fill:#4d4d4d;" transform="translate(35.219063 232.757205)scale(0.088 -0.088)">
       <use xlink:href="#DejaVuSans-30"/>
      </g>
     </g>
    </g>
    <g id="ytick_24">
     <g id="line2d_71">
      <path clip-path="url(#p1f7a87535d)" d="M 45.768063 205.74734 
L 221.808063 205.74734 
" style="fill:none;stroke:#ffffff;stroke-linecap:square;"/>
     </g>
     <g id="line2d_72">
      <path d="M 45.768063 205.74734 
" style="fill:none;stroke:#333333;stroke-linecap:square;stroke-width:1.5;"/>
      <g>
       <use style="fill:#333333;stroke:#000000;" x="45.768063" xlink:href="#m7c30922b79" y="205.74734"/>
      </g>
     </g>
     <g id="text_20">
      <!-- 10 -->
      <g style="fill:#4d4d4d;" transform="translate(29.620063 208.17559)scale(0.088 -0.088)">
       <use xlink:href="#DejaVuSans-31"/>
       <use x="63.623047" xlink:href="#DejaVuSans-30"/>
      </g>
     </g>
    </g>
    <g id="ytick_25">
     <g id="line2d_73">
      <path clip-path="url(#p1f7a87535d)" d="M 45.768063 181.165724 
L 221.808063 181.165724 
" style="fill:none;stroke:#ffffff;stroke-linecap:square;"/>
     </g>
     <g id="line2d_74">
      <path d="M 45.768063 181.165724 
" style="fill:none;stroke:#333333;stroke-linecap:square;stroke-width:1.5;"/>
      <g>
       <use style="fill:#333333;stroke:#000000;" x="45.768063" xlink:href="#m7c30922b79" y="181.165724"/>
      </g>
     </g>
     <g id="text_21">
      <!-- 20 -->
      <g style="fill:#4d4d4d;" transform="translate(29.620063 183.593974)scale(0.088 -0.088)">
       <use xlink:href="#DejaVuSans-32"/>
       <use x="63.623047" xlink:href="#DejaVuSans-30"/>
      </g>
     </g>
    </g>
    <g id="ytick_26">
     <g id="line2d_75">
      <path clip-path="url(#p1f7a87535d)" d="M 45.768063 267.201378 
L 221.808063 267.201378 
" style="fill:none;stroke:#ffffff;stroke-linecap:square;stroke-width:0.5;"/>
     </g>
    </g>
    <g id="ytick_27">
     <g id="line2d_76">
      <path clip-path="url(#p1f7a87535d)" d="M 45.768063 242.619763 
L 221.808063 242.619763 
" style="fill:none;stroke:#ffffff;stroke-linecap:square;stroke-width:0.5;"/>
     </g>
    </g>
    <g id="ytick_28">
     <g id="line2d_77">
      <path clip-path="url(#p1f7a87535d)" d="M 45.768063 218.038147 
L 221.808063 218.038147 
" style="fill:none;stroke:#ffffff;stroke-linecap:square;stroke-width:0.5;"/>
     </g>
    </g>
    <g id="ytick_29">
     <g id="line2d_78">
      <path clip-path="url(#p1f7a87535d)" d="M 45.768063 193.456532 
L 221.808063 193.456532 
" style="fill:none;stroke:#ffffff;stroke-linecap:square;stroke-width:0.5;"/>
     </g>
    </g>
    <g id="ytick_30">
     <g id="line2d_79">
      <path clip-path="url(#p1f7a87535d)" d="M 45.768063 168.874916 
L 221.808063 168.874916 
" style="fill:none;stroke:#ffffff;stroke-linecap:square;stroke-width:0.5;"/>
     </g>
    </g>
   </g>
   <g id="line2d_80">
    <path clip-path="url(#p1f7a87535d)" d="M 53.769881 219.720941 
L 55.562067 218.835136 
L 57.354254 221.911011 
L 59.166135 224.625867 
L 60.978016 224.952808 
L 62.750509 225.419638 
L 64.542695 225.205308 
L 66.354576 225.355858 
L 68.166457 226.166998 
L 69.93895 225.696636 
L 71.731136 225.115185 
L 73.543017 223.47627 
L 75.354898 223.395543 
L 77.127391 223.108402 
L 78.919578 222.403416 
L 80.731459 222.627319 
L 82.54334 222.915053 
L 84.335526 223.468306 
L 86.127713 225.308153 
L 87.939594 226.409067 
L 89.751475 226.009196 
L 91.523967 224.963909 
L 93.316154 223.371832 
L 95.128035 221.499254 
L 96.939916 221.696157 
L 98.712409 223.251978 
L 100.504595 224.880274 
L 102.316476 226.008785 
L 104.128357 225.377346 
L 105.90085 225.083044 
L 107.693036 223.956156 
L 109.504917 224.589622 
L 111.316799 225.040065 
L 113.108985 227.325206 
L 114.901172 232.694567 
L 116.713053 238.491939 
L 118.524934 244.174442 
L 120.297426 243.856199 
L 122.089613 240.19319 
L 123.901494 234.617534 
L 125.713375 228.466764 
L 127.485868 224.870538 
L 129.278054 223.269081 
L 131.089935 223.747291 
L 132.901816 224.339108 
L 134.674309 226.909554 
L 136.466495 227.853958 
L 138.278376 227.837775 
L 140.090257 227.305755 
L 141.882444 227.70339 
L 143.674631 225.46168 
L 145.486512 226.398133 
L 147.298393 226.940077 
L 149.070885 225.154726 
L 150.863072 226.28879 
L 152.674953 224.353149 
L 154.486834 223.166042 
L 156.259326 222.791507 
L 158.051513 223.017813 
L 159.863394 222.930901 
L 161.675275 223.653488 
L 163.447768 223.82311 
L 165.239954 224.173786 
L 167.051835 223.874662 
L 168.863716 224.383718 
L 170.655903 224.786362 
L 172.44809 225.016376 
L 174.259971 224.868125 
L 176.071852 224.347294 
L 177.844344 225.014707 
L 179.636531 225.057099 
L 181.448412 225.895628 
L 183.260293 226.922808 
L 185.032785 226.336715 
L 186.824972 225.830697 
L 188.636853 225.998804 
L 190.448734 224.987477 
L 192.221227 226.021405 
L 194.013413 226.450792 
L 195.825294 227.396934 
L 197.637175 235.22662 
L 199.429362 282.290349 
L 201.221549 249.221636 
L 203.03343 245.754532 
L 204.845311 242.554274 
L 206.617803 170.121258 
L 208.40999 213.472102 
L 210.221871 214.008415 
L 212.033752 208.847749 
L 213.806244 223.122478 
" style="fill:none;stroke:#db5f57;stroke-width:0.886227;"/>
   </g>
   <g id="patch_10">
    <path d="M 45.768063 164.512804 
L 221.808063 164.512804 
L 221.808063 149.926 
L 45.768063 149.926 
z
" style="fill:#d9d9d9;"/>
   </g>
   <g id="text_22">
    <!-- UK -->
    <g style="fill:#1a1a1a;" transform="translate(127.682375 159.647652)scale(0.088 -0.088)">
     <defs>
      <path d="M 556 4666 
L 1191 4666 
L 1191 1831 
Q 1191 1081 1462 751 
Q 1734 422 2344 422 
Q 2950 422 3222 751 
Q 3494 1081 3494 1831 
L 3494 4666 
L 4128 4666 
L 4128 1753 
Q 4128 841 3676 375 
Q 3225 -91 2344 -91 
Q 1459 -91 1007 375 
Q 556 841 556 1753 
L 556 4666 
z
" id="DejaVuSans-55" transform="scale(0.015625)"/>
      <path d="M 628 4666 
L 1259 4666 
L 1259 2694 
L 3353 4666 
L 4166 4666 
L 1850 2491 
L 4331 0 
L 3500 0 
L 1259 2247 
L 1259 0 
L 628 0 
L 628 4666 
z
" id="DejaVuSans-4b" transform="scale(0.015625)"/>
     </defs>
     <use xlink:href="#DejaVuSans-55"/>
     <use x="73.193359" xlink:href="#DejaVuSans-4b"/>
    </g>
   </g>
  </g>
  <g id="axes_4">
   <g id="patch_11">
    <path d="M 226.848063 287.898804 
L 402.888062 287.898804 
L 402.888062 164.512804 
L 226.848063 164.512804 
z
" style="fill:#ebebeb;"/>
   </g>
   <g id="matplotlib.axis_7">
    <g id="xtick_31">
     <g id="line2d_81">
      <path clip-path="url(#pdd9b0f2663)" d="M 234.849881 287.898804 
L 234.849881 164.512804 
" style="fill:none;stroke:#ffffff;stroke-linecap:square;"/>
     </g>
     <g id="line2d_82">
      <path d="M 234.849881 287.898804 
" style="fill:none;stroke:#333333;stroke-linecap:square;stroke-width:1.5;"/>
      <g>
       <use style="fill:#333333;stroke:#000000;" x="234.849881" xlink:href="#m0e3ff7a93d" y="287.898804"/>
      </g>
     </g>
     <g id="text_23">
      <!-- 2000-01-01 -->
      <g style="fill:#4d4d4d;" transform="translate(237.278131 343.990554)rotate(-90)scale(0.088 -0.088)">
       <use xlink:href="#DejaVuSans-32"/>
       <use x="63.623047" xlink:href="#DejaVuSans-30"/>
       <use x="127.246094" xlink:href="#DejaVuSans-30"/>
       <use x="190.869141" xlink:href="#DejaVuSans-30"/>
       <use x="254.492188" xlink:href="#DejaVuSans-2d"/>
       <use x="290.576172" xlink:href="#DejaVuSans-30"/>
       <use x="354.199219" xlink:href="#DejaVuSans-31"/>
       <use x="417.822266" xlink:href="#DejaVuSans-2d"/>
       <use x="453.90625" xlink:href="#DejaVuSans-30"/>
       <use x="517.529297" xlink:href="#DejaVuSans-31"/>
      </g>
     </g>
    </g>
    <g id="xtick_32">
     <g id="line2d_83">
      <path clip-path="url(#pdd9b0f2663)" d="M 270.831475 287.898804 
L 270.831475 164.512804 
" style="fill:none;stroke:#ffffff;stroke-linecap:square;"/>
     </g>
     <g id="line2d_84">
      <path d="M 270.831475 287.898804 
" style="fill:none;stroke:#333333;stroke-linecap:square;stroke-width:1.5;"/>
      <g>
       <use style="fill:#333333;stroke:#000000;" x="270.831475" xlink:href="#m0e3ff7a93d" y="287.898804"/>
      </g>
     </g>
     <g id="text_24">
      <!-- 2005-01-01 -->
      <g style="fill:#4d4d4d;" transform="translate(273.259725 343.990554)rotate(-90)scale(0.088 -0.088)">
       <use xlink:href="#DejaVuSans-32"/>
       <use x="63.623047" xlink:href="#DejaVuSans-30"/>
       <use x="127.246094" xlink:href="#DejaVuSans-30"/>
       <use x="190.869141" xlink:href="#DejaVuSans-35"/>
       <use x="254.492188" xlink:href="#DejaVuSans-2d"/>
       <use x="290.576172" xlink:href="#DejaVuSans-30"/>
       <use x="354.199219" xlink:href="#DejaVuSans-31"/>
       <use x="417.822266" xlink:href="#DejaVuSans-2d"/>
       <use x="453.90625" xlink:href="#DejaVuSans-30"/>
       <use x="517.529297" xlink:href="#DejaVuSans-31"/>
      </g>
     </g>
    </g>
    <g id="xtick_33">
     <g id="line2d_85">
      <path clip-path="url(#pdd9b0f2663)" d="M 306.793375 287.898804 
L 306.793375 164.512804 
" style="fill:none;stroke:#ffffff;stroke-linecap:square;"/>
     </g>
     <g id="line2d_86">
      <path d="M 306.793375 287.898804 
" style="fill:none;stroke:#333333;stroke-linecap:square;stroke-width:1.5;"/>
      <g>
       <use style="fill:#333333;stroke:#000000;" x="306.793375" xlink:href="#m0e3ff7a93d" y="287.898804"/>
      </g>
     </g>
     <g id="text_25">
      <!-- 2010-01-01 -->
      <g style="fill:#4d4d4d;" transform="translate(309.221625 343.990554)rotate(-90)scale(0.088 -0.088)">
       <use xlink:href="#DejaVuSans-32"/>
       <use x="63.623047" xlink:href="#DejaVuSans-30"/>
       <use x="127.246094" xlink:href="#DejaVuSans-31"/>
       <use x="190.869141" xlink:href="#DejaVuSans-30"/>
       <use x="254.492188" xlink:href="#DejaVuSans-2d"/>
       <use x="290.576172" xlink:href="#DejaVuSans-30"/>
       <use x="354.199219" xlink:href="#DejaVuSans-31"/>
       <use x="417.822266" xlink:href="#DejaVuSans-2d"/>
       <use x="453.90625" xlink:href="#DejaVuSans-30"/>
       <use x="517.529297" xlink:href="#DejaVuSans-31"/>
      </g>
     </g>
    </g>
    <g id="xtick_34">
     <g id="line2d_87">
      <path clip-path="url(#pdd9b0f2663)" d="M 342.755275 287.898804 
L 342.755275 164.512804 
" style="fill:none;stroke:#ffffff;stroke-linecap:square;"/>
     </g>
     <g id="line2d_88">
      <path d="M 342.755275 287.898804 
" style="fill:none;stroke:#333333;stroke-linecap:square;stroke-width:1.5;"/>
      <g>
       <use style="fill:#333333;stroke:#000000;" x="342.755275" xlink:href="#m0e3ff7a93d" y="287.898804"/>
      </g>
     </g>
     <g id="text_26">
      <!-- 2015-01-01 -->
      <g style="fill:#4d4d4d;" transform="translate(345.183525 343.990554)rotate(-90)scale(0.088 -0.088)">
       <use xlink:href="#DejaVuSans-32"/>
       <use x="63.623047" xlink:href="#DejaVuSans-30"/>
       <use x="127.246094" xlink:href="#DejaVuSans-31"/>
       <use x="190.869141" xlink:href="#DejaVuSans-35"/>
       <use x="254.492188" xlink:href="#DejaVuSans-2d"/>
       <use x="290.576172" xlink:href="#DejaVuSans-30"/>
       <use x="354.199219" xlink:href="#DejaVuSans-31"/>
       <use x="417.822266" xlink:href="#DejaVuSans-2d"/>
       <use x="453.90625" xlink:href="#DejaVuSans-30"/>
       <use x="517.529297" xlink:href="#DejaVuSans-31"/>
      </g>
     </g>
    </g>
    <g id="xtick_35">
     <g id="line2d_89">
      <path clip-path="url(#pdd9b0f2663)" d="M 378.717175 287.898804 
L 378.717175 164.512804 
" style="fill:none;stroke:#ffffff;stroke-linecap:square;"/>
     </g>
     <g id="line2d_90">
      <path d="M 378.717175 287.898804 
" style="fill:none;stroke:#333333;stroke-linecap:square;stroke-width:1.5;"/>
      <g>
       <use style="fill:#333333;stroke:#000000;" x="378.717175" xlink:href="#m0e3ff7a93d" y="287.898804"/>
      </g>
     </g>
     <g id="text_27">
      <!-- 2020-01-01 -->
      <g style="fill:#4d4d4d;" transform="translate(381.145425 343.990554)rotate(-90)scale(0.088 -0.088)">
       <use xlink:href="#DejaVuSans-32"/>
       <use x="63.623047" xlink:href="#DejaVuSans-30"/>
       <use x="127.246094" xlink:href="#DejaVuSans-32"/>
       <use x="190.869141" xlink:href="#DejaVuSans-30"/>
       <use x="254.492188" xlink:href="#DejaVuSans-2d"/>
       <use x="290.576172" xlink:href="#DejaVuSans-30"/>
       <use x="354.199219" xlink:href="#DejaVuSans-31"/>
       <use x="417.822266" xlink:href="#DejaVuSans-2d"/>
       <use x="453.90625" xlink:href="#DejaVuSans-30"/>
       <use x="517.529297" xlink:href="#DejaVuSans-31"/>
      </g>
     </g>
    </g>
    <g id="xtick_36">
     <g id="line2d_91">
      <path clip-path="url(#pdd9b0f2663)" d="M 252.840678 287.898804 
L 252.840678 164.512804 
" style="fill:none;stroke:#ffffff;stroke-linecap:square;stroke-width:0.5;"/>
     </g>
    </g>
    <g id="xtick_37">
     <g id="line2d_92">
      <path clip-path="url(#pdd9b0f2663)" d="M 288.812425 287.898804 
L 288.812425 164.512804 
" style="fill:none;stroke:#ffffff;stroke-linecap:square;stroke-width:0.5;"/>
     </g>
    </g>
    <g id="xtick_38">
     <g id="line2d_93">
      <path clip-path="url(#pdd9b0f2663)" d="M 324.774325 287.898804 
L 324.774325 164.512804 
" style="fill:none;stroke:#ffffff;stroke-linecap:square;stroke-width:0.5;"/>
     </g>
    </g>
    <g id="xtick_39">
     <g id="line2d_94">
      <path clip-path="url(#pdd9b0f2663)" d="M 360.736225 287.898804 
L 360.736225 164.512804 
" style="fill:none;stroke:#ffffff;stroke-linecap:square;stroke-width:0.5;"/>
     </g>
    </g>
    <g id="xtick_40">
     <g id="line2d_95">
      <path clip-path="url(#pdd9b0f2663)" d="M 396.707973 287.898804 
L 396.707973 164.512804 
" style="fill:none;stroke:#ffffff;stroke-linecap:square;stroke-width:0.5;"/>
     </g>
    </g>
    <g id="text_28">
     <!-- Date -->
     <g transform="translate(205.422203 356.748835)scale(0.11 -0.11)">
      <use xlink:href="#DejaVuSans-44"/>
      <use x="77.001953" xlink:href="#DejaVuSans-61"/>
      <use x="138.28125" xlink:href="#DejaVuSans-74"/>
      <use x="177.490234" xlink:href="#DejaVuSans-65"/>
     </g>
    </g>
   </g>
   <g id="matplotlib.axis_8">
    <g id="ytick_31">
     <g id="line2d_96">
      <path clip-path="url(#pdd9b0f2663)" d="M 226.848063 279.492186 
L 402.888062 279.492186 
" style="fill:none;stroke:#ffffff;stroke-linecap:square;"/>
     </g>
    </g>
    <g id="ytick_32">
     <g id="line2d_97">
      <path clip-path="url(#pdd9b0f2663)" d="M 226.848063 254.910571 
L 402.888062 254.910571 
" style="fill:none;stroke:#ffffff;stroke-linecap:square;"/>
     </g>
    </g>
    <g id="ytick_33">
     <g id="line2d_98">
      <path clip-path="url(#pdd9b0f2663)" d="M 226.848063 230.328955 
L 402.888062 230.328955 
" style="fill:none;stroke:#ffffff;stroke-linecap:square;"/>
     </g>
    </g>
    <g id="ytick_34">
     <g id="line2d_99">
      <path clip-path="url(#pdd9b0f2663)" d="M 226.848063 205.74734 
L 402.888062 205.74734 
" style="fill:none;stroke:#ffffff;stroke-linecap:square;"/>
     </g>
    </g>
    <g id="ytick_35">
     <g id="line2d_100">
      <path clip-path="url(#pdd9b0f2663)" d="M 226.848063 181.165724 
L 402.888062 181.165724 
" style="fill:none;stroke:#ffffff;stroke-linecap:square;"/>
     </g>
    </g>
    <g id="ytick_36">
     <g id="line2d_101">
      <path clip-path="url(#pdd9b0f2663)" d="M 226.848063 267.201378 
L 402.888062 267.201378 
" style="fill:none;stroke:#ffffff;stroke-linecap:square;stroke-width:0.5;"/>
     </g>
    </g>
    <g id="ytick_37">
     <g id="line2d_102">
      <path clip-path="url(#pdd9b0f2663)" d="M 226.848063 242.619763 
L 402.888062 242.619763 
" style="fill:none;stroke:#ffffff;stroke-linecap:square;stroke-width:0.5;"/>
     </g>
    </g>
    <g id="ytick_38">
     <g id="line2d_103">
      <path clip-path="url(#pdd9b0f2663)" d="M 226.848063 218.038147 
L 402.888062 218.038147 
" style="fill:none;stroke:#ffffff;stroke-linecap:square;stroke-width:0.5;"/>
     </g>
    </g>
    <g id="ytick_39">
     <g id="line2d_104">
      <path clip-path="url(#pdd9b0f2663)" d="M 226.848063 193.456532 
L 402.888062 193.456532 
" style="fill:none;stroke:#ffffff;stroke-linecap:square;stroke-width:0.5;"/>
     </g>
    </g>
    <g id="ytick_40">
     <g id="line2d_105">
      <path clip-path="url(#pdd9b0f2663)" d="M 226.848063 168.874916 
L 402.888062 168.874916 
" style="fill:none;stroke:#ffffff;stroke-linecap:square;stroke-width:0.5;"/>
     </g>
    </g>
   </g>
   <g id="line2d_106">
    <path clip-path="url(#pdd9b0f2663)" d="M 234.849881 219.940873 
L 236.642067 217.436678 
L 238.434254 220.560013 
L 240.246135 223.196303 
L 242.058016 224.931956 
L 243.830509 227.890624 
L 245.622695 229.130964 
L 247.434576 229.909489 
L 249.246457 227.06252 
L 251.01895 227.077093 
L 252.811136 225.066843 
L 254.623017 225.434052 
L 256.434898 226.208612 
L 258.207391 225.518349 
L 259.999578 222.364737 
L 261.811459 219.770963 
L 263.62334 219.627639 
L 265.415526 219.919104 
L 267.207713 221.747921 
L 269.019594 222.07994 
L 270.831475 220.720942 
L 272.603967 221.461358 
L 274.396154 221.854014 
L 276.208035 222.997065 
L 278.019916 222.401734 
L 279.792409 223.010347 
L 281.584595 224.605639 
L 283.396476 223.915853 
L 285.208357 226.541628 
L 286.98085 225.563461 
L 288.773036 224.432908 
L 290.584917 225.017155 
L 292.396799 226.77248 
L 294.188985 226.936366 
L 295.981172 229.733583 
L 297.793053 236.573519 
L 299.604934 238.397606 
L 301.377426 240.150551 
L 303.169613 238.041867 
L 304.981494 230.128228 
L 306.793375 225.981802 
L 308.565868 223.132766 
L 310.358054 222.096096 
L 312.169935 223.474495 
L 313.981816 225.337392 
L 315.754309 226.056904 
L 317.546495 228.07182 
L 319.358376 226.585933 
L 321.170257 223.937122 
L 322.962444 224.493731 
L 324.754631 223.955869 
L 326.566512 226.479316 
L 328.378393 226.355826 
L 330.150885 227.142759 
L 331.943072 225.609667 
L 333.754953 224.104768 
L 335.566834 227.147957 
L 337.339326 224.30156 
L 339.131513 223.368777 
L 340.943394 224.026805 
L 342.755275 221.083296 
L 344.527768 222.856472 
L 346.319954 224.963603 
L 348.131835 225.720679 
L 349.943716 226.277465 
L 351.735903 226.967129 
L 353.52809 226.277272 
L 355.339971 225.402379 
L 357.151852 225.694607 
L 358.924344 225.051965 
L 360.716531 224.757359 
L 362.528412 223.647967 
L 364.340293 222.916846 
L 366.112785 222.22648 
L 367.904972 222.824455 
L 369.716853 224.624503 
L 371.528734 225.036516 
L 373.301227 225.138599 
L 375.093413 224.630162 
L 376.905294 224.012884 
L 378.717175 228.778396 
L 380.509362 252.658262 
L 382.301549 237.426899 
L 384.11343 235.891566 
L 385.925311 228.984385 
L 387.697803 200.273792 
L 389.48999 218.169536 
L 391.301871 216.726757 
L 393.113752 221.656839 
L 394.886244 226.351742 
" style="fill:none;stroke:#57d3db;stroke-width:0.886227;"/>
   </g>
   <g id="patch_12">
    <path d="M 226.848063 164.512804 
L 402.888062 164.512804 
L 402.888062 149.926 
L 226.848063 149.926 
z
" style="fill:#d9d9d9;"/>
   </g>
   <g id="text_29">
    <!-- US -->
    <g style="fill:#1a1a1a;" transform="translate(308.8545 159.647652)scale(0.088 -0.088)">
     <defs>
      <path d="M 3425 4513 
L 3425 3897 
Q 3066 4069 2747 4153 
Q 2428 4238 2131 4238 
Q 1616 4238 1336 4038 
Q 1056 3838 1056 3469 
Q 1056 3159 1242 3001 
Q 1428 2844 1947 2747 
L 2328 2669 
Q 3034 2534 3370 2195 
Q 3706 1856 3706 1288 
Q 3706 609 3251 259 
Q 2797 -91 1919 -91 
Q 1588 -91 1214 -16 
Q 841 59 441 206 
L 441 856 
Q 825 641 1194 531 
Q 1563 422 1919 422 
Q 2459 422 2753 634 
Q 3047 847 3047 1241 
Q 3047 1584 2836 1778 
Q 2625 1972 2144 2069 
L 1759 2144 
Q 1053 2284 737 2584 
Q 422 2884 422 3419 
Q 422 4038 858 4394 
Q 1294 4750 2059 4750 
Q 2388 4750 2728 4690 
Q 3069 4631 3425 4513 
z
" id="DejaVuSans-53" transform="scale(0.015625)"/>
     </defs>
     <use xlink:href="#DejaVuSans-55"/>
     <use x="73.193359" xlink:href="#DejaVuSans-53"/>
    </g>
   </g>
  </g>
 </g>
 <defs>
  <clipPath id="p227085c922">
   <rect height="123.386" width="176.04" x="45.768063" y="21.786804"/>
  </clipPath>
  <clipPath id="pb7b96dd7f8">
   <path d="M 422.288063 159.637773 
L 422.288063 143.797773 
L 438.128062 143.797773 
L 438.128062 159.637773 
"/>
  </clipPath>
  <clipPath id="pf3b7397acf">
   <path d="M 422.288063 177.477773 
L 422.288063 161.637773 
L 438.128062 161.637773 
L 438.128062 177.477773 
"/>
  </clipPath>
  <clipPath id="p368cd92319">
   <rect height="123.386" width="176.04" x="226.848063" y="21.786804"/>
  </clipPath>
  <clipPath id="p1f7a87535d">
   <rect height="123.386" width="176.04" x="45.768063" y="164.512804"/>
  </clipPath>
  <clipPath id="pdd9b0f2663">
   <rect height="123.386" width="176.04" x="226.848063" y="164.512804"/>
  </clipPath>
 </defs>
</svg>
