<?xml version="1.0" encoding="utf-8" standalone="no"?>
<!DOCTYPE svg PUBLIC "-//W3C//DTD SVG 1.1//EN"
  "http://www.w3.org/Graphics/SVG/1.1/DTD/svg11.dtd">
<svg height="284.44pt" version="1.1" viewBox="0 0 276.64 284.44" width="276.64pt" xmlns="http://www.w3.org/2000/svg" xmlns:xlink="http://www.w3.org/1999/xlink">
 <metadata>
  <rdf:RDF xmlns:cc="http://creativecommons.org/ns#" xmlns:dc="http://purl.org/dc/elements/1.1/" xmlns:rdf="http://www.w3.org/1999/02/22-rdf-syntax-ns#">
   <cc:Work>
    <dc:type rdf:resource="http://purl.org/dc/dcmitype/StillImage"/>
    <dc:date>2022-08-20T18:02:04.968358</dc:date>
    <dc:format>image/svg+xml</dc:format>
    <dc:creator>
     <cc:Agent>
      <dc:title>Matplotlib v3.4.3, https://matplotlib.org/</dc:title>
     </cc:Agent>
    </dc:creator>
   </cc:Work>
  </rdf:RDF>
 </metadata>
 <defs>
  <style type="text/css">*{stroke-linecap:butt;stroke-linejoin:round;}</style>
 </defs>
 <g id="figure_1">
  <g id="patch_1">
   <path d="M 0 284.44 
L 276.64 284.44 
L 276.64 0 
L 0 0 
z
" style="fill:none;"/>
  </g>
  <g id="axes_1">
   <g id="patch_2">
    <path d="M 250.04 135.32 
C 250.04 121.04302 247.227746 106.904866 241.764183 93.714657 
C 236.300619 80.524448 228.291998 68.5387 218.196649 58.443351 
C 208.1013 48.348002 196.115552 40.339381 182.925343 34.875817 
C 169.735134 29.412254 155.59698 26.6 141.32 26.6 
C 127.04302 26.6 112.904866 29.412254 99.714657 34.875817 
C 86.524448 40.339381 74.5387 48.348002 64.443351 58.443351 
C 54.348002 68.5387 46.339381 80.524448 40.875817 93.714657 
C 35.412254 106.904866 32.6 121.04302 32.6 135.32 
C 32.6 149.59698 35.412254 163.735134 40.875817 176.925343 
C 46.339381 190.115552 54.348002 202.1013 64.443351 212.196649 
C 74.5387 222.291998 86.524448 230.300619 99.714657 235.764183 
C 112.904866 241.227746 127.04302 244.04 141.32 244.04 
C 155.59698 244.04 169.735134 241.227746 182.925343 235.764183 
C 196.115552 230.300619 208.1013 222.291998 218.196649 212.196649 
C 228.291998 202.1013 236.300619 190.115552 241.764183 176.925343 
C 247.227746 163.735134 250.04 149.59698 250.04 135.32 
M 141.32 135.32 
C 141.32 135.32 141.32 135.32 141.32 135.32 
C 141.32 135.32 141.32 135.32 141.32 135.32 
C 141.32 135.32 141.32 135.32 141.32 135.32 
C 141.32 135.32 141.32 135.32 141.32 135.32 
C 141.32 135.32 141.32 135.32 141.32 135.32 
C 141.32 135.32 141.32 135.32 141.32 135.32 
C 141.32 135.32 141.32 135.32 141.32 135.32 
C 141.32 135.32 141.32 135.32 141.32 135.32 
C 141.32 135.32 141.32 135.32 141.32 135.32 
C 141.32 135.32 141.32 135.32 141.32 135.32 
C 141.32 135.32 141.32 135.32 141.32 135.32 
C 141.32 135.32 141.32 135.32 141.32 135.32 
C 141.32 135.32 141.32 135.32 141.32 135.32 
C 141.32 135.32 141.32 135.32 141.32 135.32 
C 141.32 135.32 141.32 135.32 141.32 135.32 
C 141.32 135.32 141.32 135.32 141.32 135.32 
M 250.04 135.32 
z
" style="fill:#ffffff;"/>
   </g>
   <g id="matplotlib.axis_1">
    <g id="xtick_1">
     <g id="line2d_1">
      <path clip-path="url(#p8f4ae78c00)" d="M 141.32 135.32 
L 250.04 135.32 
" style="fill:none;stroke:#b1afb5;stroke-linecap:square;stroke-width:0.8;"/>
     </g>
     <g id="text_1">
      <!-- 0° -->
      <g style="fill:#323034;" transform="translate(258.64 138.115625)scale(0.12 -0.12)">
       <defs>
        <path d="M 3046 2112 
Q 3046 1683 2963 1302 
Q 2880 922 2717 602 
Q 2554 282 2266 96 
Q 1978 -90 1600 -90 
Q 1210 -90 915 108 
Q 621 307 461 640 
Q 301 973 227 1350 
Q 154 1728 154 2150 
Q 154 2746 301 3222 
Q 448 3699 790 4012 
Q 1133 4326 1626 4326 
Q 2253 4326 2649 3712 
Q 3046 3098 3046 2112 
z
M 2432 2080 
Q 2432 3091 2217 3625 
Q 2003 4160 1587 4160 
Q 1190 4160 979 3622 
Q 768 3085 768 2106 
Q 768 1120 979 598 
Q 1190 77 1600 77 
Q 2003 77 2217 598 
Q 2432 1120 2432 2080 
z
" id="STIXGeneral-Regular-30" transform="scale(0.015625)"/>
        <path d="M 2195 3411 
Q 2195 3027 1929 2761 
Q 1664 2496 1280 2496 
Q 890 2496 627 2761 
Q 365 3027 365 3418 
Q 365 3802 633 4064 
Q 902 4326 1293 4326 
Q 1664 4326 1929 4057 
Q 2195 3789 2195 3411 
z
M 1946 3418 
Q 1946 3699 1744 3904 
Q 1542 4109 1267 4109 
Q 1005 4109 809 3901 
Q 614 3693 614 3411 
Q 614 3123 809 2918 
Q 1005 2714 1280 2714 
Q 1555 2714 1750 2922 
Q 1946 3130 1946 3418 
z
" id="STIXGeneral-Regular-b0" transform="scale(0.015625)"/>
       </defs>
       <use xlink:href="#STIXGeneral-Regular-30"/>
       <use x="49.999985" xlink:href="#STIXGeneral-Regular-b0"/>
      </g>
     </g>
    </g>
    <g id="xtick_2">
     <g id="line2d_2">
      <path clip-path="url(#p8f4ae78c00)" d="M 141.32 135.32 
L 218.196649 58.443351 
" style="fill:none;stroke:#b1afb5;stroke-linecap:square;stroke-width:0.8;"/>
     </g>
     <g id="text_2">
      <!-- 45° -->
      <g style="fill:#323034;" transform="translate(219.696144 51.339481)scale(0.12 -0.12)">
       <defs>
        <path d="M 3027 1069 
L 2368 1069 
L 2368 0 
L 1869 0 
L 1869 1069 
L 77 1069 
L 77 1478 
L 2086 4326 
L 2368 4326 
L 2368 1478 
L 3027 1478 
L 3027 1069 
z
M 1869 1478 
L 1869 3674 
L 333 1478 
L 1869 1478 
z
" id="STIXGeneral-Regular-34" transform="scale(0.015625)"/>
        <path d="M 2803 4358 
L 2573 3814 
Q 2534 3731 2400 3731 
L 1158 3731 
L 902 3187 
Q 1606 3053 1920 2896 
Q 2234 2739 2502 2368 
Q 2726 2061 2726 1555 
Q 2726 1094 2576 780 
Q 2426 467 2099 224 
Q 1664 -90 1011 -90 
Q 646 -90 422 19 
Q 198 128 198 307 
Q 198 550 486 550 
Q 717 550 960 352 
Q 1210 147 1414 147 
Q 1747 147 2012 480 
Q 2278 813 2278 1229 
Q 2278 1843 1850 2189 
Q 1293 2637 486 2637 
Q 410 2637 410 2688 
L 416 2720 
L 1114 4237 
L 2438 4237 
Q 2547 4237 2608 4269 
Q 2669 4301 2746 4403 
L 2803 4358 
z
" id="STIXGeneral-Regular-35" transform="scale(0.015625)"/>
       </defs>
       <use xlink:href="#STIXGeneral-Regular-34"/>
       <use x="49.999985" xlink:href="#STIXGeneral-Regular-35"/>
       <use x="99.999969" xlink:href="#STIXGeneral-Regular-b0"/>
      </g>
     </g>
    </g>
    <g id="xtick_3">
     <g id="line2d_3">
      <path clip-path="url(#p8f4ae78c00)" d="M 141.32 135.32 
L 141.32 26.6 
" style="fill:none;stroke:#b1afb5;stroke-linecap:square;stroke-width:0.8;"/>
     </g>
     <g id="text_3">
      <!-- 90° -->
      <g style="fill:#323034;" transform="translate(132.92 15.395625)scale(0.12 -0.12)">
       <defs>
        <path d="M 378 -141 
L 358 -13 
Q 1094 115 1603 608 
Q 2112 1101 2304 1882 
Q 1933 1517 1344 1517 
Q 826 1517 509 1875 
Q 192 2234 192 2816 
Q 192 3462 573 3894 
Q 954 4326 1523 4326 
Q 2131 4326 2528 3840 
Q 2938 3328 2938 2522 
Q 2938 1958 2742 1462 
Q 2547 966 2170 621 
Q 1773 262 1395 105 
Q 1018 -51 378 -141 
z
M 2317 2272 
L 2317 2522 
Q 2317 4147 1472 4147 
Q 1171 4147 1005 3930 
Q 909 3802 845 3546 
Q 781 3290 781 3034 
Q 781 2464 995 2128 
Q 1210 1792 1568 1792 
Q 1824 1792 2070 1917 
Q 2317 2042 2317 2272 
z
" id="STIXGeneral-Regular-39" transform="scale(0.015625)"/>
       </defs>
       <use xlink:href="#STIXGeneral-Regular-39"/>
       <use x="49.999985" xlink:href="#STIXGeneral-Regular-30"/>
       <use x="99.999969" xlink:href="#STIXGeneral-Regular-b0"/>
      </g>
     </g>
    </g>
    <g id="xtick_4">
     <g id="line2d_4">
      <path clip-path="url(#p8f4ae78c00)" d="M 141.32 135.32 
L 64.443351 58.443351 
" style="fill:none;stroke:#b1afb5;stroke-linecap:square;stroke-width:0.8;"/>
     </g>
     <g id="text_4">
      <!-- 135° -->
      <g style="fill:#323034;" transform="translate(43.143856 51.339481)scale(0.12 -0.12)">
       <defs>
        <path d="M 2522 0 
L 755 0 
L 755 96 
Q 1107 115 1235 227 
Q 1363 339 1363 608 
L 1363 3482 
Q 1363 3795 1171 3795 
Q 1082 3795 883 3718 
L 710 3654 
L 710 3744 
L 1856 4326 
L 1914 4307 
L 1914 486 
Q 1914 275 2042 185 
Q 2170 96 2522 96 
L 2522 0 
z
" id="STIXGeneral-Regular-31" transform="scale(0.015625)"/>
        <path d="M 390 3264 
L 288 3290 
Q 435 3770 748 4048 
Q 1062 4326 1542 4326 
Q 1990 4326 2265 4083 
Q 2541 3840 2541 3450 
Q 2541 2925 1946 2566 
Q 2298 2413 2477 2227 
Q 2758 1914 2758 1402 
Q 2758 890 2464 506 
Q 2246 211 1840 60 
Q 1434 -90 979 -90 
Q 262 -90 262 275 
Q 262 378 339 442 
Q 416 506 525 506 
Q 685 506 915 339 
Q 1197 141 1466 141 
Q 1818 141 2058 425 
Q 2298 710 2298 1120 
Q 2298 1856 1632 2048 
Q 1434 2112 979 2112 
L 979 2202 
Q 1338 2323 1517 2432 
Q 2035 2726 2035 3290 
Q 2035 3610 1852 3776 
Q 1670 3942 1344 3942 
Q 768 3942 390 3264 
z
" id="STIXGeneral-Regular-33" transform="scale(0.015625)"/>
       </defs>
       <use xlink:href="#STIXGeneral-Regular-31"/>
       <use x="49.999985" xlink:href="#STIXGeneral-Regular-33"/>
       <use x="99.999969" xlink:href="#STIXGeneral-Regular-35"/>
       <use x="149.999954" xlink:href="#STIXGeneral-Regular-b0"/>
      </g>
     </g>
    </g>
    <g id="xtick_5">
     <g id="line2d_5">
      <path clip-path="url(#p8f4ae78c00)" d="M 141.32 135.32 
L 32.6 135.32 
" style="fill:none;stroke:#b1afb5;stroke-linecap:square;stroke-width:0.8;"/>
     </g>
     <g id="text_5">
      <!-- 180° -->
      <g style="fill:#323034;" transform="translate(7.2 138.115625)scale(0.12 -0.12)">
       <defs>
        <path d="M 2848 992 
Q 2848 499 2505 204 
Q 2163 -90 1587 -90 
Q 1050 -90 704 204 
Q 358 499 358 954 
Q 358 1293 524 1533 
Q 691 1773 1190 2125 
Q 710 2522 553 2765 
Q 397 3008 397 3328 
Q 397 3782 745 4054 
Q 1094 4326 1638 4326 
Q 2106 4326 2410 4060 
Q 2714 3795 2714 3411 
Q 2714 3059 2531 2848 
Q 2349 2637 1856 2374 
Q 2432 1990 2640 1689 
Q 2848 1389 2848 992 
z
M 2272 3411 
Q 2272 3744 2086 3945 
Q 1901 4147 1574 4147 
Q 1248 4147 1059 3977 
Q 870 3808 870 3513 
Q 870 3219 1059 2979 
Q 1248 2739 1670 2490 
Q 1997 2682 2134 2896 
Q 2272 3110 2272 3411 
z
M 1734 1741 
L 1357 1997 
Q 1075 1766 960 1545 
Q 845 1325 845 1011 
Q 845 576 1065 333 
Q 1286 90 1658 90 
Q 1971 90 2166 285 
Q 2362 480 2362 794 
Q 2362 1082 2214 1299 
Q 2067 1517 1734 1741 
z
" id="STIXGeneral-Regular-38" transform="scale(0.015625)"/>
       </defs>
       <use xlink:href="#STIXGeneral-Regular-31"/>
       <use x="49.999985" xlink:href="#STIXGeneral-Regular-38"/>
       <use x="99.999969" xlink:href="#STIXGeneral-Regular-30"/>
       <use x="149.999954" xlink:href="#STIXGeneral-Regular-b0"/>
      </g>
     </g>
    </g>
    <g id="xtick_6">
     <g id="line2d_6">
      <path clip-path="url(#p8f4ae78c00)" d="M 141.32 135.32 
L 64.443351 212.196649 
" style="fill:none;stroke:#b1afb5;stroke-linecap:square;stroke-width:0.8;"/>
     </g>
     <g id="text_6">
      <!-- 225° -->
      <g style="fill:#323034;" transform="translate(43.143856 224.891769)scale(0.12 -0.12)">
       <defs>
        <path d="M 3034 877 
L 2688 0 
L 186 0 
L 186 77 
L 1325 1286 
Q 1773 1754 1965 2144 
Q 2157 2534 2157 2950 
Q 2157 3379 1920 3616 
Q 1683 3853 1267 3853 
Q 922 3853 720 3673 
Q 518 3494 326 3021 
L 192 3053 
Q 301 3648 630 3987 
Q 960 4326 1523 4326 
Q 2054 4326 2380 4006 
Q 2707 3686 2707 3200 
Q 2707 2477 1888 1613 
L 832 486 
L 2330 486 
Q 2541 486 2665 569 
Q 2790 653 2944 915 
L 3034 877 
z
" id="STIXGeneral-Regular-32" transform="scale(0.015625)"/>
       </defs>
       <use xlink:href="#STIXGeneral-Regular-32"/>
       <use x="49.999985" xlink:href="#STIXGeneral-Regular-32"/>
       <use x="99.999969" xlink:href="#STIXGeneral-Regular-35"/>
       <use x="149.999954" xlink:href="#STIXGeneral-Regular-b0"/>
      </g>
     </g>
    </g>
    <g id="xtick_7">
     <g id="line2d_7">
      <path clip-path="url(#p8f4ae78c00)" d="M 141.32 135.32 
L 141.32 244.04 
" style="fill:none;stroke:#b1afb5;stroke-linecap:square;stroke-width:0.8;"/>
     </g>
     <g id="text_7">
      <!-- 270° -->
      <g style="fill:#323034;" transform="translate(129.92 260.835625)scale(0.12 -0.12)">
       <defs>
        <path d="M 2874 4134 
L 1517 -51 
L 1101 -51 
L 2368 3763 
L 992 3763 
Q 717 3763 582 3667 
Q 448 3571 243 3238 
L 128 3296 
L 512 4237 
L 2874 4237 
L 2874 4134 
z
" id="STIXGeneral-Regular-37" transform="scale(0.015625)"/>
       </defs>
       <use xlink:href="#STIXGeneral-Regular-32"/>
       <use x="49.999985" xlink:href="#STIXGeneral-Regular-37"/>
       <use x="99.999969" xlink:href="#STIXGeneral-Regular-30"/>
       <use x="149.999954" xlink:href="#STIXGeneral-Regular-b0"/>
      </g>
     </g>
    </g>
    <g id="xtick_8">
     <g id="line2d_8">
      <path clip-path="url(#p8f4ae78c00)" d="M 141.32 135.32 
L 218.196649 212.196649 
" style="fill:none;stroke:#b1afb5;stroke-linecap:square;stroke-width:0.8;"/>
     </g>
     <g id="text_8">
      <!-- 315° -->
      <g style="fill:#323034;" transform="translate(216.696144 224.891769)scale(0.12 -0.12)">
       <use xlink:href="#STIXGeneral-Regular-33"/>
       <use x="49.999985" xlink:href="#STIXGeneral-Regular-31"/>
       <use x="99.999969" xlink:href="#STIXGeneral-Regular-35"/>
       <use x="149.999954" xlink:href="#STIXGeneral-Regular-b0"/>
      </g>
     </g>
    </g>
    <g id="text_9">
     <!-- theta -->
     <g transform="translate(129.655625 274.635625)scale(0.12 -0.12)">
      <defs>
       <path d="M 1702 493 
L 1786 422 
Q 1478 -64 1011 -64 
Q 448 -64 448 749 
L 448 2675 
L 109 2675 
Q 83 2694 83 2720 
Q 83 2771 192 2842 
Q 435 2982 813 3526 
Q 826 3546 874 3606 
Q 922 3667 941 3706 
Q 986 3706 986 3622 
L 986 2880 
L 1632 2880 
L 1632 2675 
L 986 2675 
L 986 845 
Q 986 538 1062 403 
Q 1139 269 1318 269 
Q 1510 269 1702 493 
z
" id="STIXGeneral-Regular-74" transform="scale(0.015625)"/>
       <path d="M 3117 0 
L 1760 0 
L 1760 96 
Q 2042 128 2118 224 
Q 2195 320 2195 653 
L 2195 1920 
Q 2195 2598 1722 2598 
Q 1530 2598 1370 2508 
Q 1210 2419 1005 2195 
L 1005 653 
Q 1005 320 1081 224 
Q 1158 128 1440 96 
L 1440 0 
L 58 0 
L 58 96 
Q 333 134 400 224 
Q 467 314 467 653 
L 467 3667 
Q 467 3872 406 3933 
Q 346 3994 141 3994 
Q 83 3994 64 3987 
L 64 4090 
L 237 4141 
Q 730 4288 973 4371 
L 1005 4352 
L 1005 2406 
Q 1229 2694 1446 2819 
Q 1664 2944 1946 2944 
Q 2733 2944 2733 1926 
L 2733 653 
Q 2733 320 2793 233 
Q 2854 147 3117 96 
L 3117 0 
z
" id="STIXGeneral-Regular-68" transform="scale(0.015625)"/>
       <path d="M 2611 1050 
L 2714 1005 
Q 2330 -64 1376 -64 
Q 813 -64 486 329 
Q 160 723 160 1389 
Q 160 2074 525 2509 
Q 890 2944 1485 2944 
Q 2061 2944 2374 2502 
Q 2560 2246 2592 1773 
L 621 1773 
Q 646 1370 700 1158 
Q 755 947 915 730 
Q 1184 378 1626 378 
Q 1939 378 2153 531 
Q 2368 685 2611 1050 
z
M 634 1978 
L 1939 1978 
Q 1882 2381 1750 2547 
Q 1619 2714 1312 2714 
Q 1043 2714 864 2525 
Q 685 2336 634 1978 
z
" id="STIXGeneral-Regular-65" transform="scale(0.015625)"/>
       <path d="M 2829 422 
L 2829 243 
Q 2586 -64 2253 -64 
Q 1888 -64 1843 403 
L 1837 403 
Q 1427 -64 909 -64 
Q 608 -64 422 112 
Q 237 288 237 602 
Q 237 1050 685 1350 
Q 992 1555 1837 1869 
L 1837 2214 
Q 1837 2502 1699 2646 
Q 1562 2790 1338 2790 
Q 1146 2790 1018 2697 
Q 890 2605 890 2477 
Q 890 2419 909 2348 
Q 928 2278 928 2208 
Q 928 2112 841 2029 
Q 755 1946 634 1946 
Q 525 1946 441 2029 
Q 358 2112 358 2240 
Q 358 2547 685 2752 
Q 986 2944 1421 2944 
Q 1939 2944 2176 2656 
Q 2291 2522 2323 2384 
Q 2355 2246 2355 1946 
L 2355 723 
Q 2355 301 2554 301 
Q 2682 301 2829 422 
z
M 1837 813 
L 1837 1715 
Q 1248 1510 1018 1293 
Q 800 1094 800 800 
Q 800 557 921 432 
Q 1043 307 1242 307 
Q 1453 307 1613 410 
Q 1747 506 1792 589 
Q 1837 672 1837 813 
z
" id="STIXGeneral-Regular-61" transform="scale(0.015625)"/>
      </defs>
      <use xlink:href="#STIXGeneral-Regular-74"/>
      <use x="27.799988" xlink:href="#STIXGeneral-Regular-68"/>
      <use x="77.799973" xlink:href="#STIXGeneral-Regular-65"/>
      <use x="122.199966" xlink:href="#STIXGeneral-Regular-74"/>
      <use x="149.999954" xlink:href="#STIXGeneral-Regular-61"/>
     </g>
    </g>
   </g>
   <g id="matplotlib.axis_2">
    <g id="ytick_1">
     <g id="line2d_9">
      <path clip-path="url(#p8f4ae78c00)" d="M 153.4 135.32 
C 153.4 133.733669 153.087527 132.162763 152.480465 130.697184 
C 151.873402 129.231605 150.983555 127.899856 149.86185 126.77815 
C 148.740144 125.656445 147.408395 124.766598 145.942816 124.159535 
C 144.477237 123.552473 142.906331 123.24 141.32 123.24 
C 139.733669 123.24 138.162763 123.552473 136.697184 124.159535 
C 135.231605 124.766598 133.899856 125.656445 132.77815 126.77815 
C 131.656445 127.899856 130.766598 129.231605 130.159535 130.697184 
C 129.552473 132.162763 129.24 133.733669 129.24 135.32 
C 129.24 136.906331 129.552473 138.477237 130.159535 139.942816 
C 130.766598 141.408395 131.656445 142.740144 132.77815 143.86185 
C 133.899856 144.983555 135.231605 145.873402 136.697184 146.480465 
C 138.162763 147.087527 139.733669 147.4 141.32 147.4 
C 142.906331 147.4 144.477237 147.087527 145.942816 146.480465 
C 147.408395 145.873402 148.740144 144.983555 149.86185 143.86185 
C 150.983555 142.740144 151.873402 141.408395 152.480465 139.942816 
C 153.087527 138.477237 153.4 136.906331 153.4 135.32 
" style="fill:none;stroke:#b1afb5;stroke-linecap:square;stroke-width:0.8;"/>
     </g>
     <g id="text_10">
      <!-- $\mathdefault{0.25}$ -->
      <g style="fill:#323034;" transform="translate(152.480465 128.092809)scale(0.12 -0.12)">
       <defs>
        <path d="M 1158 275 
Q 1158 134 1052 32 
Q 947 -70 800 -70 
Q 653 -70 550 32 
Q 448 134 448 281 
Q 448 429 553 534 
Q 659 640 806 640 
Q 947 640 1052 531 
Q 1158 422 1158 275 
z
" id="STIXGeneral-Regular-2e" transform="scale(0.015625)"/>
       </defs>
       <use transform="translate(0 0.203125)" xlink:href="#STIXGeneral-Regular-30"/>
       <use transform="translate(49.999985 0.203125)" xlink:href="#STIXGeneral-Regular-2e"/>
       <use transform="translate(74.999969 0.203125)" xlink:href="#STIXGeneral-Regular-32"/>
       <use transform="translate(124.999954 0.203125)" xlink:href="#STIXGeneral-Regular-35"/>
      </g>
     </g>
    </g>
    <g id="ytick_2">
     <g id="line2d_10">
      <path clip-path="url(#p8f4ae78c00)" d="M 165.48 135.32 
C 165.48 132.147338 164.855055 129.005526 163.64093 126.074368 
C 162.426804 123.143211 160.647111 120.479711 158.4037 118.2363 
C 156.160289 115.992889 153.496789 114.213196 150.565632 112.99907 
C 147.634474 111.784945 144.492662 111.16 141.32 111.16 
C 138.147338 111.16 135.005526 111.784945 132.074368 112.99907 
C 129.143211 114.213196 126.479711 115.992889 124.2363 118.2363 
C 121.992889 120.479711 120.213196 123.143211 118.99907 126.074368 
C 117.784945 129.005526 117.16 132.147338 117.16 135.32 
C 117.16 138.492662 117.784945 141.634474 118.99907 144.565632 
C 120.213196 147.496789 121.992889 150.160289 124.2363 152.4037 
C 126.479711 154.647111 129.143211 156.426804 132.074368 157.64093 
C 135.005526 158.855055 138.147338 159.48 141.32 159.48 
C 144.492662 159.48 147.634474 158.855055 150.565632 157.64093 
C 153.496789 156.426804 156.160289 154.647111 158.4037 152.4037 
C 160.647111 150.160289 162.426804 147.496789 163.64093 144.565632 
C 164.855055 141.634474 165.48 138.492662 165.48 135.32 
" style="fill:none;stroke:#b1afb5;stroke-linecap:square;stroke-width:0.8;"/>
     </g>
     <g id="text_11">
      <!-- $\mathdefault{0.50}$ -->
      <g style="fill:#323034;" transform="translate(163.64093 123.469993)scale(0.12 -0.12)">
       <use transform="translate(0 0.203125)" xlink:href="#STIXGeneral-Regular-30"/>
       <use transform="translate(49.999985 0.203125)" xlink:href="#STIXGeneral-Regular-2e"/>
       <use transform="translate(74.999969 0.203125)" xlink:href="#STIXGeneral-Regular-35"/>
       <use transform="translate(124.999954 0.203125)" xlink:href="#STIXGeneral-Regular-30"/>
      </g>
     </g>
    </g>
    <g id="ytick_3">
     <g id="line2d_11">
      <path clip-path="url(#p8f4ae78c00)" d="M 177.56 135.32 
C 177.56 130.561007 176.622582 125.848289 174.801394 121.451552 
C 172.980206 117.054816 170.310666 113.059567 166.94555 109.69445 
C 163.580433 106.329334 159.585184 103.659794 155.188448 101.838606 
C 150.791711 100.017418 146.078993 99.08 141.32 99.08 
C 136.561007 99.08 131.848289 100.017418 127.451552 101.838606 
C 123.054816 103.659794 119.059567 106.329334 115.69445 109.69445 
C 112.329334 113.059567 109.659794 117.054816 107.838606 121.451552 
C 106.017418 125.848289 105.08 130.561007 105.08 135.32 
C 105.08 140.078993 106.017418 144.791711 107.838606 149.188448 
C 109.659794 153.585184 112.329334 157.580433 115.69445 160.94555 
C 119.059567 164.310666 123.054816 166.980206 127.451552 168.801394 
C 131.848289 170.622582 136.561007 171.56 141.32 171.56 
C 146.078993 171.56 150.791711 170.622582 155.188448 168.801394 
C 159.585184 166.980206 163.580433 164.310666 166.94555 160.94555 
C 170.310666 157.580433 172.980206 153.585184 174.801394 149.188448 
C 176.622582 144.791711 177.56 140.078993 177.56 135.32 
" style="fill:none;stroke:#b1afb5;stroke-linecap:square;stroke-width:0.8;"/>
     </g>
     <g id="text_12">
      <!-- $\mathdefault{0.75}$ -->
      <g style="fill:#323034;" transform="translate(174.801394 118.847177)scale(0.12 -0.12)">
       <use transform="translate(0 0.203125)" xlink:href="#STIXGeneral-Regular-30"/>
       <use transform="translate(49.999985 0.203125)" xlink:href="#STIXGeneral-Regular-2e"/>
       <use transform="translate(74.999969 0.203125)" xlink:href="#STIXGeneral-Regular-37"/>
       <use transform="translate(124.999954 0.203125)" xlink:href="#STIXGeneral-Regular-35"/>
      </g>
     </g>
    </g>
    <g id="ytick_4">
     <g id="line2d_12">
      <path clip-path="url(#p8f4ae78c00)" d="M 189.64 135.32 
C 189.64 128.974676 188.390109 122.691052 185.961859 116.828737 
C 183.533609 110.966421 179.974221 105.639422 175.4874 101.1526 
C 171.000578 96.665779 165.673579 93.106391 159.811263 90.678141 
C 153.948948 88.249891 147.665324 87 141.32 87 
C 134.974676 87 128.691052 88.249891 122.828737 90.678141 
C 116.966421 93.106391 111.639422 96.665779 107.1526 101.1526 
C 102.665779 105.639422 99.106391 110.966421 96.678141 116.828737 
C 94.249891 122.691052 93 128.974676 93 135.32 
C 93 141.665324 94.249891 147.948948 96.678141 153.811263 
C 99.106391 159.673579 102.665779 165.000578 107.1526 169.4874 
C 111.639422 173.974221 116.966421 177.533609 122.828737 179.961859 
C 128.691052 182.390109 134.974676 183.64 141.32 183.64 
C 147.665324 183.64 153.948948 182.390109 159.811263 179.961859 
C 165.673579 177.533609 171.000578 173.974221 175.4874 169.4874 
C 179.974221 165.000578 183.533609 159.673579 185.961859 153.811263 
C 188.390109 147.948948 189.64 141.665324 189.64 135.32 
" style="fill:none;stroke:#b1afb5;stroke-linecap:square;stroke-width:0.8;"/>
     </g>
     <g id="text_13">
      <!-- $\mathdefault{1.00}$ -->
      <g style="fill:#323034;" transform="translate(185.961859 114.224362)scale(0.12 -0.12)">
       <use transform="translate(0 0.40625)" xlink:href="#STIXGeneral-Regular-31"/>
       <use transform="translate(49.999985 0.40625)" xlink:href="#STIXGeneral-Regular-2e"/>
       <use transform="translate(74.999969 0.40625)" xlink:href="#STIXGeneral-Regular-30"/>
       <use transform="translate(124.999954 0.40625)" xlink:href="#STIXGeneral-Regular-30"/>
      </g>
     </g>
    </g>
    <g id="ytick_5">
     <g id="line2d_13">
      <path clip-path="url(#p8f4ae78c00)" d="M 201.72 135.32 
C 201.72 127.388345 200.157637 119.533815 197.122324 112.205921 
C 194.087011 104.878027 189.637777 98.219278 184.02925 92.61075 
C 178.420722 87.002223 171.761973 82.552989 164.434079 79.517676 
C 157.106185 76.482363 149.251655 74.92 141.32 74.92 
C 133.388345 74.92 125.533815 76.482363 118.205921 79.517676 
C 110.878027 82.552989 104.219278 87.002223 98.61075 92.61075 
C 93.002223 98.219278 88.552989 104.878027 85.517676 112.205921 
C 82.482363 119.533815 80.92 127.388345 80.92 135.32 
C 80.92 143.251655 82.482363 151.106185 85.517676 158.434079 
C 88.552989 165.761973 93.002223 172.420722 98.61075 178.02925 
C 104.219278 183.637777 110.878027 188.087011 118.205921 191.122324 
C 125.533815 194.157637 133.388345 195.72 141.32 195.72 
C 149.251655 195.72 157.106185 194.157637 164.434079 191.122324 
C 171.761973 188.087011 178.420722 183.637777 184.02925 178.02925 
C 189.637777 172.420722 194.087011 165.761973 197.122324 158.434079 
C 200.157637 151.106185 201.72 143.251655 201.72 135.32 
" style="fill:none;stroke:#b1afb5;stroke-linecap:square;stroke-width:0.8;"/>
     </g>
     <g id="text_14">
      <!-- $\mathdefault{1.25}$ -->
      <g style="fill:#323034;" transform="translate(197.122324 109.601546)scale(0.12 -0.12)">
       <use transform="translate(0 0.203125)" xlink:href="#STIXGeneral-Regular-31"/>
       <use transform="translate(49.999985 0.203125)" xlink:href="#STIXGeneral-Regular-2e"/>
       <use transform="translate(74.999969 0.203125)" xlink:href="#STIXGeneral-Regular-32"/>
       <use transform="translate(124.999954 0.203125)" xlink:href="#STIXGeneral-Regular-35"/>
      </g>
     </g>
    </g>
    <g id="ytick_6">
     <g id="line2d_14">
      <path clip-path="url(#p8f4ae78c00)" d="M 213.8 135.32 
C 213.8 125.802014 211.925164 116.376578 208.282789 107.583105 
C 204.640413 98.789632 199.301332 90.799133 192.5711 84.0689 
C 185.840867 77.338668 177.850368 71.999587 169.056895 68.357211 
C 160.263422 64.714836 150.837986 62.84 141.32 62.84 
C 131.802014 62.84 122.376578 64.714836 113.583105 68.357211 
C 104.789632 71.999587 96.799133 77.338668 90.0689 84.0689 
C 83.338668 90.799133 77.999587 98.789632 74.357211 107.583105 
C 70.714836 116.376578 68.84 125.802014 68.84 135.32 
C 68.84 144.837986 70.714836 154.263422 74.357211 163.056895 
C 77.999587 171.850368 83.338668 179.840867 90.0689 186.5711 
C 96.799133 193.301332 104.789632 198.640413 113.583105 202.282789 
C 122.376578 205.925164 131.802014 207.8 141.32 207.8 
C 150.837986 207.8 160.263422 205.925164 169.056895 202.282789 
C 177.850368 198.640413 185.840867 193.301332 192.5711 186.5711 
C 199.301332 179.840867 204.640413 171.850368 208.282789 163.056895 
C 211.925164 154.263422 213.8 144.837986 213.8 135.32 
" style="fill:none;stroke:#b1afb5;stroke-linecap:square;stroke-width:0.8;"/>
     </g>
     <g id="text_15">
      <!-- $\mathdefault{1.50}$ -->
      <g style="fill:#323034;" transform="translate(208.282789 104.97873)scale(0.12 -0.12)">
       <use transform="translate(0 0.203125)" xlink:href="#STIXGeneral-Regular-31"/>
       <use transform="translate(49.999985 0.203125)" xlink:href="#STIXGeneral-Regular-2e"/>
       <use transform="translate(74.999969 0.203125)" xlink:href="#STIXGeneral-Regular-35"/>
       <use transform="translate(124.999954 0.203125)" xlink:href="#STIXGeneral-Regular-30"/>
      </g>
     </g>
    </g>
    <g id="ytick_7">
     <g id="line2d_15">
      <path clip-path="url(#p8f4ae78c00)" d="M 225.88 135.32 
C 225.88 124.215683 223.692692 113.219341 219.443253 102.960289 
C 215.193815 92.701237 208.964888 83.378989 201.112949 75.527051 
C 193.261011 67.675112 183.938763 61.446185 173.679711 57.196747 
C 163.420659 52.947308 152.424317 50.76 141.32 50.76 
C 130.215683 50.76 119.219341 52.947308 108.960289 57.196747 
C 98.701237 61.446185 89.378989 67.675112 81.527051 75.527051 
C 73.675112 83.378989 67.446185 92.701237 63.196747 102.960289 
C 58.947308 113.219341 56.76 124.215683 56.76 135.32 
C 56.76 146.424317 58.947308 157.420659 63.196747 167.679711 
C 67.446185 177.938763 73.675112 187.261011 81.527051 195.112949 
C 89.378989 202.964888 98.701237 209.193815 108.960289 213.443253 
C 119.219341 217.692692 130.215683 219.88 141.32 219.88 
C 152.424317 219.88 163.420659 217.692692 173.679711 213.443253 
C 183.938763 209.193815 193.261011 202.964888 201.112949 195.112949 
C 208.964888 187.261011 215.193815 177.938763 219.443253 167.679711 
C 223.692692 157.420659 225.88 146.424317 225.88 135.32 
" style="fill:none;stroke:#b1afb5;stroke-linecap:square;stroke-width:0.8;"/>
     </g>
     <g id="text_16">
      <!-- $\mathdefault{1.75}$ -->
      <g style="fill:#323034;" transform="translate(219.443253 100.355914)scale(0.12 -0.12)">
       <use transform="translate(0 0.203125)" xlink:href="#STIXGeneral-Regular-31"/>
       <use transform="translate(49.999985 0.203125)" xlink:href="#STIXGeneral-Regular-2e"/>
       <use transform="translate(74.999969 0.203125)" xlink:href="#STIXGeneral-Regular-37"/>
       <use transform="translate(124.999954 0.203125)" xlink:href="#STIXGeneral-Regular-35"/>
      </g>
     </g>
    </g>
    <g id="ytick_8">
     <g id="line2d_16">
      <path clip-path="url(#p8f4ae78c00)" d="M 237.96 135.32 
C 237.96 122.629351 235.460219 110.062104 230.603718 98.337473 
C 225.747217 86.612843 218.628443 75.958844 209.654799 66.985201 
C 200.681156 58.011557 190.027157 50.892783 178.302527 46.036282 
C 166.577896 41.179781 154.010649 38.68 141.32 38.68 
C 128.629351 38.68 116.062104 41.179781 104.337473 46.036282 
C 92.612843 50.892783 81.958844 58.011557 72.985201 66.985201 
C 64.011557 75.958844 56.892783 86.612843 52.036282 98.337473 
C 47.179781 110.062104 44.68 122.629351 44.68 135.32 
C 44.68 148.010649 47.179781 160.577896 52.036282 172.302527 
C 56.892783 184.027157 64.011557 194.681156 72.985201 203.654799 
C 81.958844 212.628443 92.612843 219.747217 104.337473 224.603718 
C 116.062104 229.460219 128.629351 231.96 141.32 231.96 
C 154.010649 231.96 166.577896 229.460219 178.302527 224.603718 
C 190.027157 219.747217 200.681156 212.628443 209.654799 203.654799 
C 218.628443 194.681156 225.747217 184.027157 230.603718 172.302527 
C 235.460219 160.577896 237.96 148.010649 237.96 135.32 
" style="fill:none;stroke:#b1afb5;stroke-linecap:square;stroke-width:0.8;"/>
     </g>
     <g id="text_17">
      <!-- $\mathdefault{2.00}$ -->
      <g style="fill:#323034;" transform="translate(230.603718 95.733098)scale(0.12 -0.12)">
       <use transform="translate(0 0.40625)" xlink:href="#STIXGeneral-Regular-32"/>
       <use transform="translate(49.999985 0.40625)" xlink:href="#STIXGeneral-Regular-2e"/>
       <use transform="translate(74.999969 0.40625)" xlink:href="#STIXGeneral-Regular-30"/>
       <use transform="translate(124.999954 0.40625)" xlink:href="#STIXGeneral-Regular-30"/>
      </g>
     </g>
    </g>
    <g id="ytick_9">
     <g id="line2d_17">
      <path clip-path="url(#p8f4ae78c00)" d="M 250.04 135.32 
C 250.04 121.04302 247.227746 106.904866 241.764183 93.714657 
C 236.300619 80.524448 228.291998 68.5387 218.196649 58.443351 
C 208.1013 48.348002 196.115552 40.339381 182.925343 34.875817 
C 169.735134 29.412254 155.59698 26.6 141.32 26.6 
C 127.04302 26.6 112.904866 29.412254 99.714657 34.875817 
C 86.524448 40.339381 74.5387 48.348002 64.443351 58.443351 
C 54.348002 68.5387 46.339381 80.524448 40.875817 93.714657 
C 35.412254 106.904866 32.6 121.04302 32.6 135.32 
C 32.6 149.59698 35.412254 163.735134 40.875817 176.925343 
C 46.339381 190.115552 54.348002 202.1013 64.443351 212.196649 
C 74.5387 222.291998 86.524448 230.300619 99.714657 235.764183 
C 112.904866 241.227746 127.04302 244.04 141.32 244.04 
C 155.59698 244.04 169.735134 241.227746 182.925343 235.764183 
C 196.115552 230.300619 208.1013 222.291998 218.196649 212.196649 
C 228.291998 202.1013 236.300619 190.115552 241.764183 176.925343 
C 247.227746 163.735134 250.04 149.59698 250.04 135.32 
" style="fill:none;stroke:#b1afb5;stroke-linecap:square;stroke-width:0.8;"/>
     </g>
     <g id="text_18">
      <!-- $\mathdefault{2.25}$ -->
      <g style="fill:#323034;" transform="translate(241.764183 91.110282)scale(0.12 -0.12)">
       <use transform="translate(0 0.203125)" xlink:href="#STIXGeneral-Regular-32"/>
       <use transform="translate(49.999985 0.203125)" xlink:href="#STIXGeneral-Regular-2e"/>
       <use transform="translate(74.999969 0.203125)" xlink:href="#STIXGeneral-Regular-32"/>
       <use transform="translate(124.999954 0.203125)" xlink:href="#STIXGeneral-Regular-35"/>
      </g>
     </g>
    </g>
    <g id="text_19">
     <!-- r -->
     <g transform="translate(26.995625 137.317812)rotate(-90)scale(0.12 -0.12)">
      <defs>
       <path d="M 1024 2931 
L 1024 2342 
Q 1267 2688 1430 2816 
Q 1594 2944 1792 2944 
Q 1958 2944 2051 2854 
Q 2144 2765 2144 2605 
Q 2144 2470 2077 2393 
Q 2010 2317 1894 2317 
Q 1773 2317 1638 2445 
Q 1536 2541 1472 2541 
Q 1338 2541 1181 2355 
Q 1024 2170 1024 2016 
L 1024 576 
Q 1024 301 1133 205 
Q 1242 109 1568 96 
L 1568 0 
L 32 0 
L 32 96 
Q 339 154 412 224 
Q 486 294 486 538 
L 486 2138 
Q 486 2349 438 2435 
Q 390 2522 269 2522 
Q 166 2522 45 2496 
L 45 2598 
Q 448 2726 992 2944 
L 1024 2931 
z
" id="STIXGeneral-Regular-72" transform="scale(0.015625)"/>
      </defs>
      <use xlink:href="#STIXGeneral-Regular-72"/>
     </g>
    </g>
   </g>
   <g id="line2d_18">
    <path clip-path="url(#p8f4ae78c00)" d="M 141.32 135.32 
L 142.27878 135.198878 
L 143.192078 134.839332 
L 144.015608 134.252733 
L 144.707451 133.457733 
L 145.22917 132.479822 
L 145.546852 131.350722 
L 145.632046 130.107632 
L 145.462584 128.792332 
L 145.023258 127.450176 
L 144.30634 126.12899 
L 143.311938 124.877894 
L 142.048169 123.746084 
L 140.53115 122.781591 
L 138.784806 122.030046 
L 136.84049 121.533485 
L 134.73643 121.329202 
L 132.517009 121.448705 
L 130.231882 121.916768 
L 127.93497 122.75062 
L 125.68332 123.959287 
L 123.535882 125.543098 
L 121.552208 127.493378 
L 119.791108 129.79232 
L 118.309288 132.413071 
L 117.16 135.32 
L 116.725428 136.867359 
L 116.391729 138.469173 
L 116.164016 140.118761 
L 116.046953 141.809015 
L 116.044722 143.532436 
L 116.160992 145.281156 
L 116.398891 147.046984 
L 116.76098 148.821436 
L 117.249224 150.595779 
L 117.864979 152.36107 
L 118.608968 154.1082 
L 119.481266 155.827936 
L 120.481291 157.510971 
L 121.607791 159.147968 
L 122.858841 160.729606 
L 124.231841 162.246631 
L 125.723514 163.689903 
L 127.329914 165.050445 
L 129.046433 166.319492 
L 130.867809 167.488536 
L 132.788146 168.549376 
L 134.800929 169.494166 
L 136.899046 170.315457 
L 139.074812 171.006242 
L 141.32 171.56 
L 143.625869 171.970735 
L 145.983198 172.233016 
L 148.382327 172.342014 
L 150.813189 172.293531 
L 153.265361 172.084041 
L 155.7281 171.710708 
L 158.190397 171.171419 
L 160.64102 170.464805 
L 163.068567 169.590257 
L 165.461516 168.547946 
L 167.808281 167.338832 
L 170.097265 165.964675 
L 172.316912 164.428038 
L 174.455768 162.732291 
L 176.502531 160.881605 
L 178.446112 158.880947 
L 180.275688 156.736071 
L 181.980756 154.453499 
L 183.551192 152.040512 
L 184.977298 149.505116 
L 186.249861 146.856028 
L 187.360196 144.102637 
L 188.300203 141.25498 
L 189.062405 138.323698 
L 189.64 135.32 
L 190.026898 132.255622 
L 190.217762 129.142776 
L 190.208044 125.994107 
L 189.994016 122.822637 
L 189.572803 119.641714 
L 188.942408 116.464955 
L 188.10173 113.306189 
L 187.05059 110.179395 
L 185.789739 107.098646 
L 184.320871 104.078038 
L 182.646632 101.131637 
L 180.770616 98.273406 
L 178.697367 95.517147 
L 176.432373 92.876432 
L 173.982051 90.364544 
L 171.353735 87.994407 
L 168.555655 85.778528 
L 165.596913 83.728933 
L 162.487456 81.857108 
L 159.238041 80.173939 
L 155.860201 78.689655 
L 152.366203 77.413774 
L 148.769005 76.355052 
L 145.082207 75.521432 
L 141.32 74.92 
L 137.497112 74.556939 
L 133.628751 74.437492 
L 129.730541 74.565926 
L 125.818463 74.9455 
L 121.908788 75.578434 
L 118.01801 76.465892 
L 114.162775 77.607959 
L 110.359811 79.003625 
L 106.625858 80.65078 
L 102.977592 82.546203 
L 99.431555 84.685568 
L 96.004077 87.063443 
L 92.711206 89.673304 
L 89.568632 92.507545 
L 86.591618 95.557503 
L 83.794925 98.813477 
L 81.192743 102.264761 
L 78.798622 105.899673 
L 76.625408 109.705599 
L 74.685176 113.669033 
L 72.98917 117.775625 
L 71.547744 122.01023 
L 70.370306 126.356969 
L 69.465269 130.799284 
L 68.84 135.32 
L 68.500776 139.901397 
L 68.452747 144.525275 
L 68.699896 149.173026 
L 69.245015 153.825711 
L 70.089671 158.464137 
L 71.234192 163.068934 
L 72.677648 167.620639 
L 74.417841 172.099773 
L 76.451299 176.48693 
L 78.773278 180.762853 
L 81.377768 184.908527 
L 84.257502 188.905252 
L 87.403975 192.734735 
L 90.807463 196.379168 
L 94.457057 199.821307 
L 98.34069 203.044556 
L 102.445176 206.033042 
L 106.756259 208.771689 
L 111.258655 211.246292 
L 115.936108 213.443586 
L 120.771451 215.351315 
L 125.746664 216.958286 
L 130.842944 218.254439 
L 136.040774 219.230894 
L 141.32 219.88 
L 146.659907 220.195387 
L 152.0393 220.171999 
L 157.436592 219.806134 
L 162.829885 219.09547 
L 168.197062 218.039092 
L 173.515879 216.637508 
L 178.764053 214.892663 
L 183.919358 212.807944 
L 188.959717 210.388183 
L 193.863299 207.639647 
L 198.608609 204.570032 
L 203.174581 201.188439 
L 207.540676 197.505354 
L 211.686968 193.532618 
L 215.594232 189.283388 
L 219.244037 184.772098 
L 222.618826 180.014408 
L 225.701999 175.027155 
L 228.477992 169.82829 
L 230.932349 164.436817 
L 233.051799 158.872723 
L 234.824316 153.156902 
L 236.239185 147.311082 
L 237.287057 141.357735 
L 237.287057 141.357735 
" style="fill:none;stroke:#bc80bd;stroke-linecap:square;stroke-width:2;"/>
   </g>
   <g id="patch_3">
    <path d="M 250.04 135.32 
C 250.04 121.04302 247.227746 106.904866 241.764183 93.714657 
C 236.300619 80.524448 228.291998 68.5387 218.196649 58.443351 
C 208.1013 48.348002 196.115552 40.339381 182.925343 34.875817 
C 169.735134 29.412254 155.59698 26.6 141.32 26.6 
C 127.04302 26.6 112.904866 29.412254 99.714657 34.875817 
C 86.524448 40.339381 74.5387 48.348002 64.443351 58.443351 
C 54.348002 68.5387 46.339381 80.524448 40.875817 93.714657 
C 35.412254 106.904866 32.6 121.04302 32.6 135.32 
C 32.6 149.59698 35.412254 163.735134 40.875817 176.925343 
C 46.339381 190.115552 54.348002 202.1013 64.443351 212.196649 
C 74.5387 222.291998 86.524448 230.300619 99.714657 235.764183 
C 112.904866 241.227746 127.04302 244.04 141.32 244.04 
C 155.59698 244.04 169.735134 241.227746 182.925343 235.764183 
C 196.115552 230.300619 208.1013 222.291998 218.196649 212.196649 
C 228.291998 202.1013 236.300619 190.115552 241.764183 176.925343 
C 247.227746 163.735134 250.04 149.59698 250.04 135.32 
" style="fill:none;stroke:#000000;stroke-linecap:square;stroke-linejoin:miter;stroke-width:0.6;"/>
   </g>
  </g>
 </g>
 <defs>
  <clipPath id="p8f4ae78c00">
   <path d="M 250.04 135.32 
C 250.04 121.04302 247.227746 106.904866 241.764183 93.714657 
C 236.300619 80.524448 228.291998 68.5387 218.196649 58.443351 
C 208.1013 48.348002 196.115552 40.339381 182.925343 34.875817 
C 169.735134 29.412254 155.59698 26.6 141.32 26.6 
C 127.04302 26.6 112.904866 29.412254 99.714657 34.875817 
C 86.524448 40.339381 74.5387 48.348002 64.443351 58.443351 
C 54.348002 68.5387 46.339381 80.524448 40.875817 93.714657 
C 35.412254 106.904866 32.6 121.04302 32.6 135.32 
C 32.6 149.59698 35.412254 163.735134 40.875817 176.925343 
C 46.339381 190.115552 54.348002 202.1013 64.443351 212.196649 
C 74.5387 222.291998 86.524448 230.300619 99.714657 235.764183 
C 112.904866 241.227746 127.04302 244.04 141.32 244.04 
C 155.59698 244.04 169.735134 241.227746 182.925343 235.764183 
C 196.115552 230.300619 208.1013 222.291998 218.196649 212.196649 
C 228.291998 202.1013 236.300619 190.115552 241.764183 176.925343 
C 247.227746 163.735134 250.04 149.59698 250.04 135.32 
M 141.32 135.32 
C 141.32 135.32 141.32 135.32 141.32 135.32 
C 141.32 135.32 141.32 135.32 141.32 135.32 
C 141.32 135.32 141.32 135.32 141.32 135.32 
C 141.32 135.32 141.32 135.32 141.32 135.32 
C 141.32 135.32 141.32 135.32 141.32 135.32 
C 141.32 135.32 141.32 135.32 141.32 135.32 
C 141.32 135.32 141.32 135.32 141.32 135.32 
C 141.32 135.32 141.32 135.32 141.32 135.32 
C 141.32 135.32 141.32 135.32 141.32 135.32 
C 141.32 135.32 141.32 135.32 141.32 135.32 
C 141.32 135.32 141.32 135.32 141.32 135.32 
C 141.32 135.32 141.32 135.32 141.32 135.32 
C 141.32 135.32 141.32 135.32 141.32 135.32 
C 141.32 135.32 141.32 135.32 141.32 135.32 
C 141.32 135.32 141.32 135.32 141.32 135.32 
C 141.32 135.32 141.32 135.32 141.32 135.32 
M 250.04 135.32 
z
"/>
  </clipPath>
 </defs>
</svg>
