<?xml version="1.0" encoding="utf-8" standalone="no"?>
<!DOCTYPE svg PUBLIC "-//W3C//DTD SVG 1.1//EN"
  "http://www.w3.org/Graphics/SVG/1.1/DTD/svg11.dtd">
<svg xmlns:xlink="http://www.w3.org/1999/xlink" width="416.264392pt" height="327.930058pt" viewBox="0 0 416.264392 327.930058" xmlns="http://www.w3.org/2000/svg" version="1.1">
 <metadata>
  <rdf:RDF xmlns:dc="http://purl.org/dc/elements/1.1/" xmlns:cc="http://creativecommons.org/ns#" xmlns:rdf="http://www.w3.org/1999/02/22-rdf-syntax-ns#">
   <cc:Work>
    <dc:type rdf:resource="http://purl.org/dc/dcmitype/StillImage"/>
    <dc:date>2022-09-16T17:00:34.304682</dc:date>
    <dc:format>image/svg+xml</dc:format>
    <dc:creator>
     <cc:Agent>
      <dc:title>Matplotlib v3.5.3, https://matplotlib.org/</dc:title>
     </cc:Agent>
    </dc:creator>
   </cc:Work>
  </rdf:RDF>
 </metadata>
 <defs>
  <style type="text/css">*{stroke-linejoin: round; stroke-linecap: butt}</style>
 </defs>
 <g id="figure_1">
  <g id="patch_1">
   <path d="M 0 327.930058 
L 416.264392 327.930058 
L 416.264392 0 
L 0 0 
z
" style="fill: #ffffff; stroke: #ffffff; stroke-linejoin: miter"/>
  </g>
  <g id="axes_1">
   <g id="patch_2">
    <path d="M 43.992938 292.217371 
L 401.112938 292.217371 
L 401.112938 26.105371 
L 43.992938 26.105371 
z
" style="fill: #ebebeb"/>
   </g>
   <g id="matplotlib.axis_1">
    <g id="xtick_1">
     <g id="line2d_1">
      <path d="M 73.211847 292.217371 
L 73.211847 26.105371 
" clip-path="url(#p850ffdb818)" style="fill: none; stroke: #ffffff"/>
     </g>
     <g id="line2d_2">
      <path d="M 73.211847 292.217371 
" style="fill: none; stroke: #000000; stroke-width: 2"/>
      <defs>
       <path id="m2e3b890563" d="M 0 0 
L 0 2.75 
" style="stroke: #333333"/>
      </defs>
      <g>
       <use xlink:href="#m2e3b890563" x="73.211847" y="292.217371" style="stroke: #333333"/>
      </g>
     </g>
     <g id="text_1">
      <!-- 1990 -->
      <g style="fill: #4d4d4d" transform="translate(62.013847 303.853996)scale(0.088 -0.088)">
       <defs>
        <path id="DejaVuSans-31" d="M 794 531 
L 1825 531 
L 1825 4091 
L 703 3866 
L 703 4441 
L 1819 4666 
L 2450 4666 
L 2450 531 
L 3481 531 
L 3481 0 
L 794 0 
L 794 531 
z
" transform="scale(0.015625)"/>
        <path id="DejaVuSans-39" d="M 703 97 
L 703 672 
Q 941 559 1184 500 
Q 1428 441 1663 441 
Q 2288 441 2617 861 
Q 2947 1281 2994 2138 
Q 2813 1869 2534 1725 
Q 2256 1581 1919 1581 
Q 1219 1581 811 2004 
Q 403 2428 403 3163 
Q 403 3881 828 4315 
Q 1253 4750 1959 4750 
Q 2769 4750 3195 4129 
Q 3622 3509 3622 2328 
Q 3622 1225 3098 567 
Q 2575 -91 1691 -91 
Q 1453 -91 1209 -44 
Q 966 3 703 97 
z
M 1959 2075 
Q 2384 2075 2632 2365 
Q 2881 2656 2881 3163 
Q 2881 3666 2632 3958 
Q 2384 4250 1959 4250 
Q 1534 4250 1286 3958 
Q 1038 3666 1038 3163 
Q 1038 2656 1286 2365 
Q 1534 2075 1959 2075 
z
" transform="scale(0.015625)"/>
        <path id="DejaVuSans-30" d="M 2034 4250 
Q 1547 4250 1301 3770 
Q 1056 3291 1056 2328 
Q 1056 1369 1301 889 
Q 1547 409 2034 409 
Q 2525 409 2770 889 
Q 3016 1369 3016 2328 
Q 3016 3291 2770 3770 
Q 2525 4250 2034 4250 
z
M 2034 4750 
Q 2819 4750 3233 4129 
Q 3647 3509 3647 2328 
Q 3647 1150 3233 529 
Q 2819 -91 2034 -91 
Q 1250 -91 836 529 
Q 422 1150 422 2328 
Q 422 3509 836 4129 
Q 1250 4750 2034 4750 
z
" transform="scale(0.015625)"/>
       </defs>
       <use xlink:href="#DejaVuSans-31"/>
       <use xlink:href="#DejaVuSans-39" x="63.623047"/>
       <use xlink:href="#DejaVuSans-39" x="127.246094"/>
       <use xlink:href="#DejaVuSans-30" x="190.869141"/>
      </g>
     </g>
    </g>
    <g id="xtick_2">
     <g id="line2d_3">
      <path d="M 138.142756 292.217371 
L 138.142756 26.105371 
" clip-path="url(#p850ffdb818)" style="fill: none; stroke: #ffffff"/>
     </g>
     <g id="line2d_4">
      <path d="M 138.142756 292.217371 
" style="fill: none; stroke: #000000; stroke-width: 2"/>
      <g>
       <use xlink:href="#m2e3b890563" x="138.142756" y="292.217371" style="stroke: #333333"/>
      </g>
     </g>
     <g id="text_2">
      <!-- 1995 -->
      <g style="fill: #4d4d4d" transform="translate(126.944756 303.853996)scale(0.088 -0.088)">
       <defs>
        <path id="DejaVuSans-35" d="M 691 4666 
L 3169 4666 
L 3169 4134 
L 1269 4134 
L 1269 2991 
Q 1406 3038 1543 3061 
Q 1681 3084 1819 3084 
Q 2600 3084 3056 2656 
Q 3513 2228 3513 1497 
Q 3513 744 3044 326 
Q 2575 -91 1722 -91 
Q 1428 -91 1123 -41 
Q 819 9 494 109 
L 494 744 
Q 775 591 1075 516 
Q 1375 441 1709 441 
Q 2250 441 2565 725 
Q 2881 1009 2881 1497 
Q 2881 1984 2565 2268 
Q 2250 2553 1709 2553 
Q 1456 2553 1204 2497 
Q 953 2441 691 2322 
L 691 4666 
z
" transform="scale(0.015625)"/>
       </defs>
       <use xlink:href="#DejaVuSans-31"/>
       <use xlink:href="#DejaVuSans-39" x="63.623047"/>
       <use xlink:href="#DejaVuSans-39" x="127.246094"/>
       <use xlink:href="#DejaVuSans-35" x="190.869141"/>
      </g>
     </g>
    </g>
    <g id="xtick_3">
     <g id="line2d_5">
      <path d="M 203.073665 292.217371 
L 203.073665 26.105371 
" clip-path="url(#p850ffdb818)" style="fill: none; stroke: #ffffff"/>
     </g>
     <g id="line2d_6">
      <path d="M 203.073665 292.217371 
" style="fill: none; stroke: #000000; stroke-width: 2"/>
      <g>
       <use xlink:href="#m2e3b890563" x="203.073665" y="292.217371" style="stroke: #333333"/>
      </g>
     </g>
     <g id="text_3">
      <!-- 2000 -->
      <g style="fill: #4d4d4d" transform="translate(191.875665 303.853996)scale(0.088 -0.088)">
       <defs>
        <path id="DejaVuSans-32" d="M 1228 531 
L 3431 531 
L 3431 0 
L 469 0 
L 469 531 
Q 828 903 1448 1529 
Q 2069 2156 2228 2338 
Q 2531 2678 2651 2914 
Q 2772 3150 2772 3378 
Q 2772 3750 2511 3984 
Q 2250 4219 1831 4219 
Q 1534 4219 1204 4116 
Q 875 4013 500 3803 
L 500 4441 
Q 881 4594 1212 4672 
Q 1544 4750 1819 4750 
Q 2544 4750 2975 4387 
Q 3406 4025 3406 3419 
Q 3406 3131 3298 2873 
Q 3191 2616 2906 2266 
Q 2828 2175 2409 1742 
Q 1991 1309 1228 531 
z
" transform="scale(0.015625)"/>
       </defs>
       <use xlink:href="#DejaVuSans-32"/>
       <use xlink:href="#DejaVuSans-30" x="63.623047"/>
       <use xlink:href="#DejaVuSans-30" x="127.246094"/>
       <use xlink:href="#DejaVuSans-30" x="190.869141"/>
      </g>
     </g>
    </g>
    <g id="xtick_4">
     <g id="line2d_7">
      <path d="M 268.004574 292.217371 
L 268.004574 26.105371 
" clip-path="url(#p850ffdb818)" style="fill: none; stroke: #ffffff"/>
     </g>
     <g id="line2d_8">
      <path d="M 268.004574 292.217371 
" style="fill: none; stroke: #000000; stroke-width: 2"/>
      <g>
       <use xlink:href="#m2e3b890563" x="268.004574" y="292.217371" style="stroke: #333333"/>
      </g>
     </g>
     <g id="text_4">
      <!-- 2005 -->
      <g style="fill: #4d4d4d" transform="translate(256.806574 303.853996)scale(0.088 -0.088)">
       <use xlink:href="#DejaVuSans-32"/>
       <use xlink:href="#DejaVuSans-30" x="63.623047"/>
       <use xlink:href="#DejaVuSans-30" x="127.246094"/>
       <use xlink:href="#DejaVuSans-35" x="190.869141"/>
      </g>
     </g>
    </g>
    <g id="xtick_5">
     <g id="line2d_9">
      <path d="M 332.935483 292.217371 
L 332.935483 26.105371 
" clip-path="url(#p850ffdb818)" style="fill: none; stroke: #ffffff"/>
     </g>
     <g id="line2d_10">
      <path d="M 332.935483 292.217371 
" style="fill: none; stroke: #000000; stroke-width: 2"/>
      <g>
       <use xlink:href="#m2e3b890563" x="332.935483" y="292.217371" style="stroke: #333333"/>
      </g>
     </g>
     <g id="text_5">
      <!-- 2010 -->
      <g style="fill: #4d4d4d" transform="translate(321.737483 303.853996)scale(0.088 -0.088)">
       <use xlink:href="#DejaVuSans-32"/>
       <use xlink:href="#DejaVuSans-30" x="63.623047"/>
       <use xlink:href="#DejaVuSans-31" x="127.246094"/>
       <use xlink:href="#DejaVuSans-30" x="190.869141"/>
      </g>
     </g>
    </g>
    <g id="xtick_6">
     <g id="line2d_11">
      <path d="M 397.866392 292.217371 
L 397.866392 26.105371 
" clip-path="url(#p850ffdb818)" style="fill: none; stroke: #ffffff"/>
     </g>
     <g id="line2d_12">
      <path d="M 397.866392 292.217371 
" style="fill: none; stroke: #000000; stroke-width: 2"/>
      <g>
       <use xlink:href="#m2e3b890563" x="397.866392" y="292.217371" style="stroke: #333333"/>
      </g>
     </g>
     <g id="text_6">
      <!-- 2015 -->
      <g style="fill: #4d4d4d" transform="translate(386.668392 303.853996)scale(0.088 -0.088)">
       <use xlink:href="#DejaVuSans-32"/>
       <use xlink:href="#DejaVuSans-30" x="63.623047"/>
       <use xlink:href="#DejaVuSans-31" x="127.246094"/>
       <use xlink:href="#DejaVuSans-35" x="190.869141"/>
      </g>
     </g>
    </g>
    <g id="xtick_7">
     <g id="line2d_13">
      <path d="M 105.677301 292.217371 
L 105.677301 26.105371 
" clip-path="url(#p850ffdb818)" style="fill: none; stroke: #ffffff; stroke-width: 0.5"/>
     </g>
    </g>
    <g id="xtick_8">
     <g id="line2d_14">
      <path d="M 170.60821 292.217371 
L 170.60821 26.105371 
" clip-path="url(#p850ffdb818)" style="fill: none; stroke: #ffffff; stroke-width: 0.5"/>
     </g>
    </g>
    <g id="xtick_9">
     <g id="line2d_15">
      <path d="M 235.539119 292.217371 
L 235.539119 26.105371 
" clip-path="url(#p850ffdb818)" style="fill: none; stroke: #ffffff; stroke-width: 0.5"/>
     </g>
    </g>
    <g id="xtick_10">
     <g id="line2d_16">
      <path d="M 300.470028 292.217371 
L 300.470028 26.105371 
" clip-path="url(#p850ffdb818)" style="fill: none; stroke: #ffffff; stroke-width: 0.5"/>
     </g>
    </g>
    <g id="xtick_11">
     <g id="line2d_17">
      <path d="M 365.400937 292.217371 
L 365.400937 26.105371 
" clip-path="url(#p850ffdb818)" style="fill: none; stroke: #ffffff; stroke-width: 0.5"/>
     </g>
    </g>
    <g id="text_7">
     <!-- year -->
     <g transform="translate(204.521922 318.442402)scale(0.11 -0.11)">
      <defs>
       <path id="DejaVuSans-79" d="M 2059 -325 
Q 1816 -950 1584 -1140 
Q 1353 -1331 966 -1331 
L 506 -1331 
L 506 -850 
L 844 -850 
Q 1081 -850 1212 -737 
Q 1344 -625 1503 -206 
L 1606 56 
L 191 3500 
L 800 3500 
L 1894 763 
L 2988 3500 
L 3597 3500 
L 2059 -325 
z
" transform="scale(0.015625)"/>
       <path id="DejaVuSans-65" d="M 3597 1894 
L 3597 1613 
L 953 1613 
Q 991 1019 1311 708 
Q 1631 397 2203 397 
Q 2534 397 2845 478 
Q 3156 559 3463 722 
L 3463 178 
Q 3153 47 2828 -22 
Q 2503 -91 2169 -91 
Q 1331 -91 842 396 
Q 353 884 353 1716 
Q 353 2575 817 3079 
Q 1281 3584 2069 3584 
Q 2775 3584 3186 3129 
Q 3597 2675 3597 1894 
z
M 3022 2063 
Q 3016 2534 2758 2815 
Q 2500 3097 2075 3097 
Q 1594 3097 1305 2825 
Q 1016 2553 972 2059 
L 3022 2063 
z
" transform="scale(0.015625)"/>
       <path id="DejaVuSans-61" d="M 2194 1759 
Q 1497 1759 1228 1600 
Q 959 1441 959 1056 
Q 959 750 1161 570 
Q 1363 391 1709 391 
Q 2188 391 2477 730 
Q 2766 1069 2766 1631 
L 2766 1759 
L 2194 1759 
z
M 3341 1997 
L 3341 0 
L 2766 0 
L 2766 531 
Q 2569 213 2275 61 
Q 1981 -91 1556 -91 
Q 1019 -91 701 211 
Q 384 513 384 1019 
Q 384 1609 779 1909 
Q 1175 2209 1959 2209 
L 2766 2209 
L 2766 2266 
Q 2766 2663 2505 2880 
Q 2244 3097 1772 3097 
Q 1472 3097 1187 3025 
Q 903 2953 641 2809 
L 641 3341 
Q 956 3463 1253 3523 
Q 1550 3584 1831 3584 
Q 2591 3584 2966 3190 
Q 3341 2797 3341 1997 
z
" transform="scale(0.015625)"/>
       <path id="DejaVuSans-72" d="M 2631 2963 
Q 2534 3019 2420 3045 
Q 2306 3072 2169 3072 
Q 1681 3072 1420 2755 
Q 1159 2438 1159 1844 
L 1159 0 
L 581 0 
L 581 3500 
L 1159 3500 
L 1159 2956 
Q 1341 3275 1631 3429 
Q 1922 3584 2338 3584 
Q 2397 3584 2469 3576 
Q 2541 3569 2628 3553 
L 2631 2963 
z
" transform="scale(0.015625)"/>
      </defs>
      <use xlink:href="#DejaVuSans-79"/>
      <use xlink:href="#DejaVuSans-65" x="59.179688"/>
      <use xlink:href="#DejaVuSans-61" x="120.703125"/>
      <use xlink:href="#DejaVuSans-72" x="181.982422"/>
     </g>
    </g>
   </g>
   <g id="matplotlib.axis_2">
    <g id="ytick_1">
     <g id="line2d_18">
      <path d="M 43.992938 280.121371 
L 401.112938 280.121371 
" clip-path="url(#p850ffdb818)" style="fill: none; stroke: #ffffff"/>
     </g>
     <g id="line2d_19">
      <path d="M 43.992938 280.121371 
" style="fill: none; stroke: #000000; stroke-width: 2"/>
      <defs>
       <path id="mc147c1070c" d="M 0 0 
L -2.75 0 
" style="stroke: #333333"/>
      </defs>
      <g>
       <use xlink:href="#mc147c1070c" x="43.992938" y="280.121371" style="stroke: #333333"/>
      </g>
     </g>
     <g id="text_8">
      <!-- 0 -->
      <g style="fill: #4d4d4d" transform="translate(33.443938 282.549621)scale(0.088 -0.088)">
       <use xlink:href="#DejaVuSans-30"/>
      </g>
     </g>
    </g>
    <g id="ytick_2">
     <g id="line2d_20">
      <path d="M 43.992938 214.737587 
L 401.112938 214.737587 
" clip-path="url(#p850ffdb818)" style="fill: none; stroke: #ffffff"/>
     </g>
     <g id="line2d_21">
      <path d="M 43.992938 214.737587 
" style="fill: none; stroke: #000000; stroke-width: 2"/>
      <g>
       <use xlink:href="#mc147c1070c" x="43.992938" y="214.737587" style="stroke: #333333"/>
      </g>
     </g>
     <g id="text_9">
      <!-- 50 -->
      <g style="fill: #4d4d4d" transform="translate(27.844938 217.165837)scale(0.088 -0.088)">
       <use xlink:href="#DejaVuSans-35"/>
       <use xlink:href="#DejaVuSans-30" x="63.623047"/>
      </g>
     </g>
    </g>
    <g id="ytick_3">
     <g id="line2d_22">
      <path d="M 43.992938 149.353803 
L 401.112938 149.353803 
" clip-path="url(#p850ffdb818)" style="fill: none; stroke: #ffffff"/>
     </g>
     <g id="line2d_23">
      <path d="M 43.992938 149.353803 
" style="fill: none; stroke: #000000; stroke-width: 2"/>
      <g>
       <use xlink:href="#mc147c1070c" x="43.992938" y="149.353803" style="stroke: #333333"/>
      </g>
     </g>
     <g id="text_10">
      <!-- 100 -->
      <g style="fill: #4d4d4d" transform="translate(22.245938 151.782053)scale(0.088 -0.088)">
       <use xlink:href="#DejaVuSans-31"/>
       <use xlink:href="#DejaVuSans-30" x="63.623047"/>
       <use xlink:href="#DejaVuSans-30" x="127.246094"/>
      </g>
     </g>
    </g>
    <g id="ytick_4">
     <g id="line2d_24">
      <path d="M 43.992938 83.970019 
L 401.112938 83.970019 
" clip-path="url(#p850ffdb818)" style="fill: none; stroke: #ffffff"/>
     </g>
     <g id="line2d_25">
      <path d="M 43.992938 83.970019 
" style="fill: none; stroke: #000000; stroke-width: 2"/>
      <g>
       <use xlink:href="#mc147c1070c" x="43.992938" y="83.970019" style="stroke: #333333"/>
      </g>
     </g>
     <g id="text_11">
      <!-- 150 -->
      <g style="fill: #4d4d4d" transform="translate(22.245938 86.398269)scale(0.088 -0.088)">
       <use xlink:href="#DejaVuSans-31"/>
       <use xlink:href="#DejaVuSans-35" x="63.623047"/>
       <use xlink:href="#DejaVuSans-30" x="127.246094"/>
      </g>
     </g>
    </g>
    <g id="ytick_5">
     <g id="line2d_26">
      <path d="M 43.992938 247.429479 
L 401.112938 247.429479 
" clip-path="url(#p850ffdb818)" style="fill: none; stroke: #ffffff; stroke-width: 0.5"/>
     </g>
    </g>
    <g id="ytick_6">
     <g id="line2d_27">
      <path d="M 43.992938 182.045695 
L 401.112938 182.045695 
" clip-path="url(#p850ffdb818)" style="fill: none; stroke: #ffffff; stroke-width: 0.5"/>
     </g>
    </g>
    <g id="ytick_7">
     <g id="line2d_28">
      <path d="M 43.992938 116.661911 
L 401.112938 116.661911 
" clip-path="url(#p850ffdb818)" style="fill: none; stroke: #ffffff; stroke-width: 0.5"/>
     </g>
    </g>
    <g id="ytick_8">
     <g id="line2d_29">
      <path d="M 43.992938 51.278127 
L 401.112938 51.278127 
" clip-path="url(#p850ffdb818)" style="fill: none; stroke: #ffffff; stroke-width: 0.5"/>
     </g>
    </g>
    <g id="text_12">
     <!-- number -->
     <g transform="translate(15.558281 178.898839)rotate(-90)scale(0.11 -0.11)">
      <defs>
       <path id="DejaVuSans-6e" d="M 3513 2113 
L 3513 0 
L 2938 0 
L 2938 2094 
Q 2938 2591 2744 2837 
Q 2550 3084 2163 3084 
Q 1697 3084 1428 2787 
Q 1159 2491 1159 1978 
L 1159 0 
L 581 0 
L 581 3500 
L 1159 3500 
L 1159 2956 
Q 1366 3272 1645 3428 
Q 1925 3584 2291 3584 
Q 2894 3584 3203 3211 
Q 3513 2838 3513 2113 
z
" transform="scale(0.015625)"/>
       <path id="DejaVuSans-75" d="M 544 1381 
L 544 3500 
L 1119 3500 
L 1119 1403 
Q 1119 906 1312 657 
Q 1506 409 1894 409 
Q 2359 409 2629 706 
Q 2900 1003 2900 1516 
L 2900 3500 
L 3475 3500 
L 3475 0 
L 2900 0 
L 2900 538 
Q 2691 219 2414 64 
Q 2138 -91 1772 -91 
Q 1169 -91 856 284 
Q 544 659 544 1381 
z
M 1991 3584 
L 1991 3584 
z
" transform="scale(0.015625)"/>
       <path id="DejaVuSans-6d" d="M 3328 2828 
Q 3544 3216 3844 3400 
Q 4144 3584 4550 3584 
Q 5097 3584 5394 3201 
Q 5691 2819 5691 2113 
L 5691 0 
L 5113 0 
L 5113 2094 
Q 5113 2597 4934 2840 
Q 4756 3084 4391 3084 
Q 3944 3084 3684 2787 
Q 3425 2491 3425 1978 
L 3425 0 
L 2847 0 
L 2847 2094 
Q 2847 2600 2669 2842 
Q 2491 3084 2119 3084 
Q 1678 3084 1418 2786 
Q 1159 2488 1159 1978 
L 1159 0 
L 581 0 
L 581 3500 
L 1159 3500 
L 1159 2956 
Q 1356 3278 1631 3431 
Q 1906 3584 2284 3584 
Q 2666 3584 2933 3390 
Q 3200 3197 3328 2828 
z
" transform="scale(0.015625)"/>
       <path id="DejaVuSans-62" d="M 3116 1747 
Q 3116 2381 2855 2742 
Q 2594 3103 2138 3103 
Q 1681 3103 1420 2742 
Q 1159 2381 1159 1747 
Q 1159 1113 1420 752 
Q 1681 391 2138 391 
Q 2594 391 2855 752 
Q 3116 1113 3116 1747 
z
M 1159 2969 
Q 1341 3281 1617 3432 
Q 1894 3584 2278 3584 
Q 2916 3584 3314 3078 
Q 3713 2572 3713 1747 
Q 3713 922 3314 415 
Q 2916 -91 2278 -91 
Q 1894 -91 1617 61 
Q 1341 213 1159 525 
L 1159 0 
L 581 0 
L 581 4863 
L 1159 4863 
L 1159 2969 
z
" transform="scale(0.015625)"/>
      </defs>
      <use xlink:href="#DejaVuSans-6e"/>
      <use xlink:href="#DejaVuSans-75" x="63.378906"/>
      <use xlink:href="#DejaVuSans-6d" x="126.757812"/>
      <use xlink:href="#DejaVuSans-62" x="224.169922"/>
      <use xlink:href="#DejaVuSans-65" x="287.646484"/>
      <use xlink:href="#DejaVuSans-72" x="349.169922"/>
     </g>
    </g>
   </g>
   <g id="PathCollection_1">
    <path d="M 60.225665 280.586149 
C 60.695725 280.586149 61.146596 280.399392 61.478979 280.067009 
C 61.811362 279.734626 61.998119 279.283755 61.998119 278.813695 
C 61.998119 278.343635 61.811362 277.892764 61.478979 277.560381 
C 61.146596 277.227998 60.695725 277.041241 60.225665 277.041241 
C 59.755605 277.041241 59.304733 277.227998 58.972351 277.560381 
C 58.639968 277.892764 58.453211 278.343635 58.453211 278.813695 
C 58.453211 279.283755 58.639968 279.734626 58.972351 280.067009 
C 59.304733 280.399392 59.755605 280.586149 60.225665 280.586149 
z
" clip-path="url(#p850ffdb818)" style="stroke: #000000; stroke-width: 0.886227"/>
    <path d="M 99.18421 279.278473 
C 99.65427 279.278473 100.105142 279.091716 100.437524 278.759334 
C 100.769907 278.426951 100.956664 277.97608 100.956664 277.506019 
C 100.956664 277.035959 100.769907 276.585088 100.437524 276.252705 
C 100.105142 275.920322 99.65427 275.733566 99.18421 275.733566 
C 98.71415 275.733566 98.263279 275.920322 97.930896 276.252705 
C 97.598513 276.585088 97.411756 277.035959 97.411756 277.506019 
C 97.411756 277.97608 97.598513 278.426951 97.930896 278.759334 
C 98.263279 279.091716 98.71415 279.278473 99.18421 279.278473 
z
" clip-path="url(#p850ffdb818)" style="stroke: #000000; stroke-width: 0.886227"/>
    <path d="M 125.156574 280.586149 
C 125.626634 280.586149 126.077505 280.399392 126.409888 280.067009 
C 126.742271 279.734626 126.929028 279.283755 126.929028 278.813695 
C 126.929028 278.343635 126.742271 277.892764 126.409888 277.560381 
C 126.077505 277.227998 125.626634 277.041241 125.156574 277.041241 
C 124.686514 277.041241 124.235643 277.227998 123.90326 277.560381 
C 123.570877 277.892764 123.38412 278.343635 123.38412 278.813695 
C 123.38412 279.283755 123.570877 279.734626 123.90326 280.067009 
C 124.235643 280.399392 124.686514 280.586149 125.156574 280.586149 
z
" clip-path="url(#p850ffdb818)" style="stroke: #000000; stroke-width: 0.886227"/>
    <path d="M 138.142756 280.586149 
C 138.612816 280.586149 139.063687 280.399392 139.39607 280.067009 
C 139.728453 279.734626 139.91521 279.283755 139.91521 278.813695 
C 139.91521 278.343635 139.728453 277.892764 139.39607 277.560381 
C 139.063687 277.227998 138.612816 277.041241 138.142756 277.041241 
C 137.672695 277.041241 137.221824 277.227998 136.889442 277.560381 
C 136.557059 277.892764 136.370302 278.343635 136.370302 278.813695 
C 136.370302 279.283755 136.557059 279.734626 136.889442 280.067009 
C 137.221824 280.399392 137.672695 280.586149 138.142756 280.586149 
z
" clip-path="url(#p850ffdb818)" style="stroke: #000000; stroke-width: 0.886227"/>
    <path d="M 151.128937 274.047771 
C 151.598998 274.047771 152.049869 273.861014 152.382252 273.528631 
C 152.714634 273.196248 152.901391 272.745377 152.901391 272.275317 
C 152.901391 271.805256 152.714634 271.354385 152.382252 271.022003 
C 152.049869 270.68962 151.598998 270.502863 151.128937 270.502863 
C 150.658877 270.502863 150.208006 270.68962 149.875623 271.022003 
C 149.543241 271.354385 149.356484 271.805256 149.356484 272.275317 
C 149.356484 272.745377 149.543241 273.196248 149.875623 273.528631 
C 150.208006 273.861014 150.658877 274.047771 151.128937 274.047771 
z
" clip-path="url(#p850ffdb818)" style="stroke: #000000; stroke-width: 0.886227"/>
    <path d="M 164.115119 280.586149 
C 164.58518 280.586149 165.036051 280.399392 165.368433 280.067009 
C 165.700816 279.734626 165.887573 279.283755 165.887573 278.813695 
C 165.887573 278.343635 165.700816 277.892764 165.368433 277.560381 
C 165.036051 277.227998 164.58518 277.041241 164.115119 277.041241 
C 163.645059 277.041241 163.194188 277.227998 162.861805 277.560381 
C 162.529422 277.892764 162.342665 278.343635 162.342665 278.813695 
C 162.342665 279.283755 162.529422 279.734626 162.861805 280.067009 
C 163.194188 280.399392 163.645059 280.586149 164.115119 280.586149 
z
" clip-path="url(#p850ffdb818)" style="stroke: #000000; stroke-width: 0.886227"/>
    <path d="M 177.101301 275.355446 
C 177.571361 275.355446 178.022232 275.168689 178.354615 274.836306 
C 178.686998 274.503924 178.873755 274.053053 178.873755 273.582992 
C 178.873755 273.112932 178.686998 272.662061 178.354615 272.329678 
C 178.022232 271.997295 177.571361 271.810538 177.101301 271.810538 
C 176.631241 271.810538 176.18037 271.997295 175.847987 272.329678 
C 175.515604 272.662061 175.328847 273.112932 175.328847 273.582992 
C 175.328847 274.053053 175.515604 274.503924 175.847987 274.836306 
C 176.18037 275.168689 176.631241 275.355446 177.101301 275.355446 
z
" clip-path="url(#p850ffdb818)" style="stroke: #000000; stroke-width: 0.886227"/>
    <path d="M 190.087483 262.278689 
C 190.557543 262.278689 191.008414 262.091933 191.340797 261.75955 
C 191.67318 261.427167 191.859937 260.976296 191.859937 260.506236 
C 191.859937 260.036175 191.67318 259.585304 191.340797 259.252921 
C 191.008414 258.920539 190.557543 258.733782 190.087483 258.733782 
C 189.617423 258.733782 189.166552 258.920539 188.834169 259.252921 
C 188.501786 259.585304 188.315029 260.036175 188.315029 260.506236 
C 188.315029 260.976296 188.501786 261.427167 188.834169 261.75955 
C 189.166552 262.091933 189.617423 262.278689 190.087483 262.278689 
z
" clip-path="url(#p850ffdb818)" style="stroke: #000000; stroke-width: 0.886227"/>
    <path d="M 203.073665 260.971014 
C 203.543725 260.971014 203.994596 260.784257 204.326979 260.451874 
C 204.659362 260.119491 204.846119 259.66862 204.846119 259.19856 
C 204.846119 258.7285 204.659362 258.277629 204.326979 257.945246 
C 203.994596 257.612863 203.543725 257.426106 203.073665 257.426106 
C 202.603605 257.426106 202.152733 257.612863 201.820351 257.945246 
C 201.487968 258.277629 201.301211 258.7285 201.301211 259.19856 
C 201.301211 259.66862 201.487968 260.119491 201.820351 260.451874 
C 202.152733 260.784257 202.603605 260.971014 203.073665 260.971014 
z
" clip-path="url(#p850ffdb818)" style="stroke: #000000; stroke-width: 0.886227"/>
    <path d="M 216.059847 266.201716 
C 216.529907 266.201716 216.980778 266.01496 217.313161 265.682577 
C 217.645544 265.350194 217.8323 264.899323 217.8323 264.429263 
C 217.8323 263.959202 217.645544 263.508331 217.313161 263.175948 
C 216.980778 262.843566 216.529907 262.656809 216.059847 262.656809 
C 215.589786 262.656809 215.138915 262.843566 214.806532 263.175948 
C 214.47415 263.508331 214.287393 263.959202 214.287393 264.429263 
C 214.287393 264.899323 214.47415 265.350194 214.806532 265.682577 
C 215.138915 266.01496 215.589786 266.201716 216.059847 266.201716 
z
" clip-path="url(#p850ffdb818)" style="stroke: #000000; stroke-width: 0.886227"/>
    <path d="M 229.046028 240.048203 
C 229.516089 240.048203 229.96696 239.861446 230.299343 239.529063 
C 230.631725 239.19668 230.818482 238.745809 230.818482 238.275749 
C 230.818482 237.805689 230.631725 237.354818 230.299343 237.022435 
C 229.96696 236.690052 229.516089 236.503295 229.046028 236.503295 
C 228.575968 236.503295 228.125097 236.690052 227.792714 237.022435 
C 227.460331 237.354818 227.273575 237.805689 227.273575 238.275749 
C 227.273575 238.745809 227.460331 239.19668 227.792714 239.529063 
C 228.125097 239.861446 228.575968 240.048203 229.046028 240.048203 
z
" clip-path="url(#p850ffdb818)" style="stroke: #000000; stroke-width: 0.886227"/>
    <path d="M 242.03221 249.201933 
C 242.50227 249.201933 242.953142 249.015176 243.285524 248.682793 
C 243.617907 248.35041 243.804664 247.899539 243.804664 247.429479 
C 243.804664 246.959419 243.617907 246.508547 243.285524 246.176165 
C 242.953142 245.843782 242.50227 245.657025 242.03221 245.657025 
C 241.56215 245.657025 241.111279 245.843782 240.778896 246.176165 
C 240.446513 246.508547 240.259756 246.959419 240.259756 247.429479 
C 240.259756 247.899539 240.446513 248.35041 240.778896 248.682793 
C 241.111279 249.015176 241.56215 249.201933 242.03221 249.201933 
z
" clip-path="url(#p850ffdb818)" style="stroke: #000000; stroke-width: 0.886227"/>
    <path d="M 255.018392 247.894257 
C 255.488452 247.894257 255.939323 247.7075 256.271706 247.375117 
C 256.604089 247.042734 256.790846 246.591863 256.790846 246.121803 
C 256.790846 245.651743 256.604089 245.200872 256.271706 244.868489 
C 255.939323 244.536106 255.488452 244.349349 255.018392 244.349349 
C 254.548332 244.349349 254.097461 244.536106 253.765078 244.868489 
C 253.432695 245.200872 253.245938 245.651743 253.245938 246.121803 
C 253.245938 246.591863 253.432695 247.042734 253.765078 247.375117 
C 254.097461 247.7075 254.548332 247.894257 255.018392 247.894257 
z
" clip-path="url(#p850ffdb818)" style="stroke: #000000; stroke-width: 0.886227"/>
    <path d="M 268.004574 230.894473 
C 268.474634 230.894473 268.925505 230.707716 269.257888 230.375334 
C 269.590271 230.042951 269.777028 229.59208 269.777028 229.122019 
C 269.777028 228.651959 269.590271 228.201088 269.257888 227.868705 
C 268.925505 227.536322 268.474634 227.349566 268.004574 227.349566 
C 267.534514 227.349566 267.083643 227.536322 266.75126 227.868705 
C 266.418877 228.201088 266.23212 228.651959 266.23212 229.122019 
C 266.23212 229.59208 266.418877 230.042951 266.75126 230.375334 
C 267.083643 230.707716 267.534514 230.894473 268.004574 230.894473 
z
" clip-path="url(#p850ffdb818)" style="stroke: #000000; stroke-width: 0.886227"/>
    <path d="M 280.990756 241.355879 
C 281.460816 241.355879 281.911687 241.169122 282.24407 240.836739 
C 282.576453 240.504356 282.76321 240.053485 282.76321 239.583425 
C 282.76321 239.113365 282.576453 238.662493 282.24407 238.330111 
C 281.911687 237.997728 281.460816 237.810971 280.990756 237.810971 
C 280.520695 237.810971 280.069824 237.997728 279.737442 238.330111 
C 279.405059 238.662493 279.218302 239.113365 279.218302 239.583425 
C 279.218302 240.053485 279.405059 240.504356 279.737442 240.836739 
C 280.069824 241.169122 280.520695 241.355879 280.990756 241.355879 
z
" clip-path="url(#p850ffdb818)" style="stroke: #000000; stroke-width: 0.886227"/>
    <path d="M 293.976937 212.587014 
C 294.446998 212.587014 294.897869 212.400257 295.230252 212.067874 
C 295.562634 211.735491 295.749391 211.28462 295.749391 210.81456 
C 295.749391 210.3445 295.562634 209.893629 295.230252 209.561246 
C 294.897869 209.228863 294.446998 209.042106 293.976937 209.042106 
C 293.506877 209.042106 293.056006 209.228863 292.723623 209.561246 
C 292.391241 209.893629 292.204484 210.3445 292.204484 210.81456 
C 292.204484 211.28462 292.391241 211.735491 292.723623 212.067874 
C 293.056006 212.400257 293.506877 212.587014 293.976937 212.587014 
z
" clip-path="url(#p850ffdb818)" style="stroke: #000000; stroke-width: 0.886227"/>
    <path d="M 306.963119 185.125825 
C 307.43318 185.125825 307.884051 184.939068 308.216433 184.606685 
C 308.548816 184.274302 308.735573 183.823431 308.735573 183.353371 
C 308.735573 182.88331 308.548816 182.432439 308.216433 182.100057 
C 307.884051 181.767674 307.43318 181.580917 306.963119 181.580917 
C 306.493059 181.580917 306.042188 181.767674 305.709805 182.100057 
C 305.377422 182.432439 305.190665 182.88331 305.190665 183.353371 
C 305.190665 183.823431 305.377422 184.274302 305.709805 184.606685 
C 306.042188 184.939068 306.493059 185.125825 306.963119 185.125825 
z
" clip-path="url(#p850ffdb818)" style="stroke: #000000; stroke-width: 0.886227"/>
    <path d="M 319.949301 153.741608 
C 320.419361 153.741608 320.870232 153.554851 321.202615 153.222469 
C 321.534998 152.890086 321.721755 152.439215 321.721755 151.969155 
C 321.721755 151.499094 321.534998 151.048223 321.202615 150.71584 
C 320.870232 150.383458 320.419361 150.196701 319.949301 150.196701 
C 319.479241 150.196701 319.02837 150.383458 318.695987 150.71584 
C 318.363604 151.048223 318.176847 151.499094 318.176847 151.969155 
C 318.176847 152.439215 318.363604 152.890086 318.695987 153.222469 
C 319.02837 153.554851 319.479241 153.741608 319.949301 153.741608 
z
" clip-path="url(#p850ffdb818)" style="stroke: #000000; stroke-width: 0.886227"/>
    <path d="M 332.935483 148.510906 
C 333.405543 148.510906 333.856414 148.324149 334.188797 147.991766 
C 334.52118 147.659383 334.707937 147.208512 334.707937 146.738452 
C 334.707937 146.268392 334.52118 145.81752 334.188797 145.485138 
C 333.856414 145.152755 333.405543 144.965998 332.935483 144.965998 
C 332.465423 144.965998 332.014552 145.152755 331.682169 145.485138 
C 331.349786 145.81752 331.163029 146.268392 331.163029 146.738452 
C 331.163029 147.208512 331.349786 147.659383 331.682169 147.991766 
C 332.014552 148.324149 332.465423 148.510906 332.935483 148.510906 
z
" clip-path="url(#p850ffdb818)" style="stroke: #000000; stroke-width: 0.886227"/>
    <path d="M 345.921665 39.973825 
C 346.391725 39.973825 346.842596 39.787068 347.174979 39.454685 
C 347.507362 39.122302 347.694119 38.671431 347.694119 38.201371 
C 347.694119 37.73131 347.507362 37.280439 347.174979 36.948057 
C 346.842596 36.615674 346.391725 36.428917 345.921665 36.428917 
C 345.451605 36.428917 345.000733 36.615674 344.668351 36.948057 
C 344.335968 37.280439 344.149211 37.73131 344.149211 38.201371 
C 344.149211 38.671431 344.335968 39.122302 344.668351 39.454685 
C 345.000733 39.787068 345.451605 39.973825 345.921665 39.973825 
z
" clip-path="url(#p850ffdb818)" style="stroke: #000000; stroke-width: 0.886227"/>
    <path d="M 358.907847 98.81923 
C 359.377907 98.81923 359.828778 98.632473 360.161161 98.30009 
C 360.493544 97.967707 360.6803 97.516836 360.6803 97.046776 
C 360.6803 96.576716 360.493544 96.125845 360.161161 95.793462 
C 359.828778 95.461079 359.377907 95.274322 358.907847 95.274322 
C 358.437786 95.274322 357.986915 95.461079 357.654532 95.793462 
C 357.32215 96.125845 357.135393 96.576716 357.135393 97.046776 
C 357.135393 97.516836 357.32215 97.967707 357.654532 98.30009 
C 357.986915 98.632473 358.437786 98.81923 358.907847 98.81923 
z
" clip-path="url(#p850ffdb818)" style="stroke: #000000; stroke-width: 0.886227"/>
    <path d="M 371.894028 127.588095 
C 372.364089 127.588095 372.81496 127.401338 373.147343 127.068955 
C 373.479725 126.736572 373.666482 126.285701 373.666482 125.815641 
C 373.666482 125.345581 373.479725 124.89471 373.147343 124.562327 
C 372.81496 124.229944 372.364089 124.043187 371.894028 124.043187 
C 371.423968 124.043187 370.973097 124.229944 370.640714 124.562327 
C 370.308331 124.89471 370.121575 125.345581 370.121575 125.815641 
C 370.121575 126.285701 370.308331 126.736572 370.640714 127.068955 
C 370.973097 127.401338 371.423968 127.588095 371.894028 127.588095 
z
" clip-path="url(#p850ffdb818)" style="stroke: #000000; stroke-width: 0.886227"/>
    <path d="M 384.88021 213.894689 
C 385.35027 213.894689 385.801142 213.707933 386.133524 213.37555 
C 386.465907 213.043167 386.652664 212.592296 386.652664 212.122236 
C 386.652664 211.652175 386.465907 211.201304 386.133524 210.868921 
C 385.801142 210.536539 385.35027 210.349782 384.88021 210.349782 
C 384.41015 210.349782 383.959279 210.536539 383.626896 210.868921 
C 383.294513 211.201304 383.107756 211.652175 383.107756 212.122236 
C 383.107756 212.592296 383.294513 213.043167 383.626896 213.37555 
C 383.959279 213.707933 384.41015 213.894689 384.88021 213.894689 
z
" clip-path="url(#p850ffdb818)" style="stroke: #000000; stroke-width: 0.886227"/>
   </g>
   <g id="LineCollection_1">
    <path d="M 60.225665 280.121371 
L 60.225665 278.813695 
" clip-path="url(#p850ffdb818)" style="fill: none; stroke: #000000; stroke-width: 0.886227"/>
    <path d="M 99.18421 280.121371 
L 99.18421 277.506019 
" clip-path="url(#p850ffdb818)" style="fill: none; stroke: #000000; stroke-width: 0.886227"/>
    <path d="M 125.156574 280.121371 
L 125.156574 278.813695 
" clip-path="url(#p850ffdb818)" style="fill: none; stroke: #000000; stroke-width: 0.886227"/>
    <path d="M 138.142756 280.121371 
L 138.142756 278.813695 
" clip-path="url(#p850ffdb818)" style="fill: none; stroke: #000000; stroke-width: 0.886227"/>
    <path d="M 151.128937 280.121371 
L 151.128937 272.275317 
" clip-path="url(#p850ffdb818)" style="fill: none; stroke: #000000; stroke-width: 0.886227"/>
    <path d="M 164.115119 280.121371 
L 164.115119 278.813695 
" clip-path="url(#p850ffdb818)" style="fill: none; stroke: #000000; stroke-width: 0.886227"/>
    <path d="M 177.101301 280.121371 
L 177.101301 273.582992 
" clip-path="url(#p850ffdb818)" style="fill: none; stroke: #000000; stroke-width: 0.886227"/>
    <path d="M 190.087483 280.121371 
L 190.087483 260.506236 
" clip-path="url(#p850ffdb818)" style="fill: none; stroke: #000000; stroke-width: 0.886227"/>
    <path d="M 203.073665 280.121371 
L 203.073665 259.19856 
" clip-path="url(#p850ffdb818)" style="fill: none; stroke: #000000; stroke-width: 0.886227"/>
    <path d="M 216.059847 280.121371 
L 216.059847 264.429263 
" clip-path="url(#p850ffdb818)" style="fill: none; stroke: #000000; stroke-width: 0.886227"/>
    <path d="M 229.046028 280.121371 
L 229.046028 238.275749 
" clip-path="url(#p850ffdb818)" style="fill: none; stroke: #000000; stroke-width: 0.886227"/>
    <path d="M 242.03221 280.121371 
L 242.03221 247.429479 
" clip-path="url(#p850ffdb818)" style="fill: none; stroke: #000000; stroke-width: 0.886227"/>
    <path d="M 255.018392 280.121371 
L 255.018392 246.121803 
" clip-path="url(#p850ffdb818)" style="fill: none; stroke: #000000; stroke-width: 0.886227"/>
    <path d="M 268.004574 280.121371 
L 268.004574 229.122019 
" clip-path="url(#p850ffdb818)" style="fill: none; stroke: #000000; stroke-width: 0.886227"/>
    <path d="M 280.990756 280.121371 
L 280.990756 239.583425 
" clip-path="url(#p850ffdb818)" style="fill: none; stroke: #000000; stroke-width: 0.886227"/>
    <path d="M 293.976937 280.121371 
L 293.976937 210.81456 
" clip-path="url(#p850ffdb818)" style="fill: none; stroke: #000000; stroke-width: 0.886227"/>
    <path d="M 306.963119 280.121371 
L 306.963119 183.353371 
" clip-path="url(#p850ffdb818)" style="fill: none; stroke: #000000; stroke-width: 0.886227"/>
    <path d="M 319.949301 280.121371 
L 319.949301 151.969155 
" clip-path="url(#p850ffdb818)" style="fill: none; stroke: #000000; stroke-width: 0.886227"/>
    <path d="M 332.935483 280.121371 
L 332.935483 146.738452 
" clip-path="url(#p850ffdb818)" style="fill: none; stroke: #000000; stroke-width: 0.886227"/>
    <path d="M 345.921665 280.121371 
L 345.921665 38.201371 
" clip-path="url(#p850ffdb818)" style="fill: none; stroke: #000000; stroke-width: 0.886227"/>
    <path d="M 358.907847 280.121371 
L 358.907847 97.046776 
" clip-path="url(#p850ffdb818)" style="fill: none; stroke: #000000; stroke-width: 0.886227"/>
    <path d="M 371.894028 280.121371 
L 371.894028 125.815641 
" clip-path="url(#p850ffdb818)" style="fill: none; stroke: #000000; stroke-width: 0.886227"/>
    <path d="M 384.88021 280.121371 
L 384.88021 212.122236 
" clip-path="url(#p850ffdb818)" style="fill: none; stroke: #000000; stroke-width: 0.886227"/>
   </g>
  </g>
  <g id="text_13">
   <!-- Number of exoplanets discovered per year -->
   <g transform="translate(75.806625 17.229938)scale(0.132 -0.132)">
    <defs>
     <path id="DejaVuSans-4e" d="M 628 4666 
L 1478 4666 
L 3547 763 
L 3547 4666 
L 4159 4666 
L 4159 0 
L 3309 0 
L 1241 3903 
L 1241 0 
L 628 0 
L 628 4666 
z
" transform="scale(0.015625)"/>
     <path id="DejaVuSans-20" transform="scale(0.015625)"/>
     <path id="DejaVuSans-6f" d="M 1959 3097 
Q 1497 3097 1228 2736 
Q 959 2375 959 1747 
Q 959 1119 1226 758 
Q 1494 397 1959 397 
Q 2419 397 2687 759 
Q 2956 1122 2956 1747 
Q 2956 2369 2687 2733 
Q 2419 3097 1959 3097 
z
M 1959 3584 
Q 2709 3584 3137 3096 
Q 3566 2609 3566 1747 
Q 3566 888 3137 398 
Q 2709 -91 1959 -91 
Q 1206 -91 779 398 
Q 353 888 353 1747 
Q 353 2609 779 3096 
Q 1206 3584 1959 3584 
z
" transform="scale(0.015625)"/>
     <path id="DejaVuSans-66" d="M 2375 4863 
L 2375 4384 
L 1825 4384 
Q 1516 4384 1395 4259 
Q 1275 4134 1275 3809 
L 1275 3500 
L 2222 3500 
L 2222 3053 
L 1275 3053 
L 1275 0 
L 697 0 
L 697 3053 
L 147 3053 
L 147 3500 
L 697 3500 
L 697 3744 
Q 697 4328 969 4595 
Q 1241 4863 1831 4863 
L 2375 4863 
z
" transform="scale(0.015625)"/>
     <path id="DejaVuSans-78" d="M 3513 3500 
L 2247 1797 
L 3578 0 
L 2900 0 
L 1881 1375 
L 863 0 
L 184 0 
L 1544 1831 
L 300 3500 
L 978 3500 
L 1906 2253 
L 2834 3500 
L 3513 3500 
z
" transform="scale(0.015625)"/>
     <path id="DejaVuSans-70" d="M 1159 525 
L 1159 -1331 
L 581 -1331 
L 581 3500 
L 1159 3500 
L 1159 2969 
Q 1341 3281 1617 3432 
Q 1894 3584 2278 3584 
Q 2916 3584 3314 3078 
Q 3713 2572 3713 1747 
Q 3713 922 3314 415 
Q 2916 -91 2278 -91 
Q 1894 -91 1617 61 
Q 1341 213 1159 525 
z
M 3116 1747 
Q 3116 2381 2855 2742 
Q 2594 3103 2138 3103 
Q 1681 3103 1420 2742 
Q 1159 2381 1159 1747 
Q 1159 1113 1420 752 
Q 1681 391 2138 391 
Q 2594 391 2855 752 
Q 3116 1113 3116 1747 
z
" transform="scale(0.015625)"/>
     <path id="DejaVuSans-6c" d="M 603 4863 
L 1178 4863 
L 1178 0 
L 603 0 
L 603 4863 
z
" transform="scale(0.015625)"/>
     <path id="DejaVuSans-74" d="M 1172 4494 
L 1172 3500 
L 2356 3500 
L 2356 3053 
L 1172 3053 
L 1172 1153 
Q 1172 725 1289 603 
Q 1406 481 1766 481 
L 2356 481 
L 2356 0 
L 1766 0 
Q 1100 0 847 248 
Q 594 497 594 1153 
L 594 3053 
L 172 3053 
L 172 3500 
L 594 3500 
L 594 4494 
L 1172 4494 
z
" transform="scale(0.015625)"/>
     <path id="DejaVuSans-73" d="M 2834 3397 
L 2834 2853 
Q 2591 2978 2328 3040 
Q 2066 3103 1784 3103 
Q 1356 3103 1142 2972 
Q 928 2841 928 2578 
Q 928 2378 1081 2264 
Q 1234 2150 1697 2047 
L 1894 2003 
Q 2506 1872 2764 1633 
Q 3022 1394 3022 966 
Q 3022 478 2636 193 
Q 2250 -91 1575 -91 
Q 1294 -91 989 -36 
Q 684 19 347 128 
L 347 722 
Q 666 556 975 473 
Q 1284 391 1588 391 
Q 1994 391 2212 530 
Q 2431 669 2431 922 
Q 2431 1156 2273 1281 
Q 2116 1406 1581 1522 
L 1381 1569 
Q 847 1681 609 1914 
Q 372 2147 372 2553 
Q 372 3047 722 3315 
Q 1072 3584 1716 3584 
Q 2034 3584 2315 3537 
Q 2597 3491 2834 3397 
z
" transform="scale(0.015625)"/>
     <path id="DejaVuSans-64" d="M 2906 2969 
L 2906 4863 
L 3481 4863 
L 3481 0 
L 2906 0 
L 2906 525 
Q 2725 213 2448 61 
Q 2172 -91 1784 -91 
Q 1150 -91 751 415 
Q 353 922 353 1747 
Q 353 2572 751 3078 
Q 1150 3584 1784 3584 
Q 2172 3584 2448 3432 
Q 2725 3281 2906 2969 
z
M 947 1747 
Q 947 1113 1208 752 
Q 1469 391 1925 391 
Q 2381 391 2643 752 
Q 2906 1113 2906 1747 
Q 2906 2381 2643 2742 
Q 2381 3103 1925 3103 
Q 1469 3103 1208 2742 
Q 947 2381 947 1747 
z
" transform="scale(0.015625)"/>
     <path id="DejaVuSans-69" d="M 603 3500 
L 1178 3500 
L 1178 0 
L 603 0 
L 603 3500 
z
M 603 4863 
L 1178 4863 
L 1178 4134 
L 603 4134 
L 603 4863 
z
" transform="scale(0.015625)"/>
     <path id="DejaVuSans-63" d="M 3122 3366 
L 3122 2828 
Q 2878 2963 2633 3030 
Q 2388 3097 2138 3097 
Q 1578 3097 1268 2742 
Q 959 2388 959 1747 
Q 959 1106 1268 751 
Q 1578 397 2138 397 
Q 2388 397 2633 464 
Q 2878 531 3122 666 
L 3122 134 
Q 2881 22 2623 -34 
Q 2366 -91 2075 -91 
Q 1284 -91 818 406 
Q 353 903 353 1747 
Q 353 2603 823 3093 
Q 1294 3584 2113 3584 
Q 2378 3584 2631 3529 
Q 2884 3475 3122 3366 
z
" transform="scale(0.015625)"/>
     <path id="DejaVuSans-76" d="M 191 3500 
L 800 3500 
L 1894 563 
L 2988 3500 
L 3597 3500 
L 2284 0 
L 1503 0 
L 191 3500 
z
" transform="scale(0.015625)"/>
    </defs>
    <use xlink:href="#DejaVuSans-4e"/>
    <use xlink:href="#DejaVuSans-75" x="74.804688"/>
    <use xlink:href="#DejaVuSans-6d" x="138.183594"/>
    <use xlink:href="#DejaVuSans-62" x="235.595703"/>
    <use xlink:href="#DejaVuSans-65" x="299.072266"/>
    <use xlink:href="#DejaVuSans-72" x="360.595703"/>
    <use xlink:href="#DejaVuSans-20" x="401.708984"/>
    <use xlink:href="#DejaVuSans-6f" x="433.496094"/>
    <use xlink:href="#DejaVuSans-66" x="494.677734"/>
    <use xlink:href="#DejaVuSans-20" x="529.882812"/>
    <use xlink:href="#DejaVuSans-65" x="561.669922"/>
    <use xlink:href="#DejaVuSans-78" x="621.443359"/>
    <use xlink:href="#DejaVuSans-6f" x="677.498047"/>
    <use xlink:href="#DejaVuSans-70" x="738.679688"/>
    <use xlink:href="#DejaVuSans-6c" x="802.15625"/>
    <use xlink:href="#DejaVuSans-61" x="829.939453"/>
    <use xlink:href="#DejaVuSans-6e" x="891.21875"/>
    <use xlink:href="#DejaVuSans-65" x="954.597656"/>
    <use xlink:href="#DejaVuSans-74" x="1016.121094"/>
    <use xlink:href="#DejaVuSans-73" x="1055.330078"/>
    <use xlink:href="#DejaVuSans-20" x="1107.429688"/>
    <use xlink:href="#DejaVuSans-64" x="1139.216797"/>
    <use xlink:href="#DejaVuSans-69" x="1202.693359"/>
    <use xlink:href="#DejaVuSans-73" x="1230.476562"/>
    <use xlink:href="#DejaVuSans-63" x="1282.576172"/>
    <use xlink:href="#DejaVuSans-6f" x="1337.556641"/>
    <use xlink:href="#DejaVuSans-76" x="1398.738281"/>
    <use xlink:href="#DejaVuSans-65" x="1457.917969"/>
    <use xlink:href="#DejaVuSans-72" x="1519.441406"/>
    <use xlink:href="#DejaVuSans-65" x="1558.304688"/>
    <use xlink:href="#DejaVuSans-64" x="1619.828125"/>
    <use xlink:href="#DejaVuSans-20" x="1683.304688"/>
    <use xlink:href="#DejaVuSans-70" x="1715.091797"/>
    <use xlink:href="#DejaVuSans-65" x="1778.568359"/>
    <use xlink:href="#DejaVuSans-72" x="1840.091797"/>
    <use xlink:href="#DejaVuSans-20" x="1881.205078"/>
    <use xlink:href="#DejaVuSans-79" x="1912.992188"/>
    <use xlink:href="#DejaVuSans-65" x="1972.171875"/>
    <use xlink:href="#DejaVuSans-61" x="2033.695312"/>
    <use xlink:href="#DejaVuSans-72" x="2094.974609"/>
   </g>
  </g>
 </g>
 <defs>
  <clipPath id="p850ffdb818">
   <rect x="43.992938" y="26.105371" width="357.12" height="266.112"/>
  </clipPath>
 </defs>
</svg>
