<?xml version="1.0" encoding="utf-8" standalone="no"?>
<!DOCTYPE svg PUBLIC "-//W3C//DTD SVG 1.1//EN"
  "http://www.w3.org/Graphics/SVG/1.1/DTD/svg11.dtd">
<svg xmlns:xlink="http://www.w3.org/1999/xlink" width="402.52pt" height="302.409812pt" viewBox="0 0 402.52 302.409812" xmlns="http://www.w3.org/2000/svg" version="1.1">
 <metadata>
  <rdf:RDF xmlns:dc="http://purl.org/dc/elements/1.1/" xmlns:cc="http://creativecommons.org/ns#" xmlns:rdf="http://www.w3.org/1999/02/22-rdf-syntax-ns#">
   <cc:Work>
    <dc:type rdf:resource="http://purl.org/dc/dcmitype/StillImage"/>
    <dc:date>2022-09-16T15:04:53.127622</dc:date>
    <dc:format>image/svg+xml</dc:format>
    <dc:creator>
     <cc:Agent>
      <dc:title>Matplotlib v3.5.3, https://matplotlib.org/</dc:title>
     </cc:Agent>
    </dc:creator>
   </cc:Work>
  </rdf:RDF>
 </metadata>
 <defs>
  <style type="text/css">*{stroke-linejoin: round; stroke-linecap: butt}</style>
 </defs>
 <g id="figure_1">
  <g id="patch_1">
   <path d="M 0 302.409812 
L 402.52 302.409812 
L 402.52 0 
L 0 0 
z
" style="fill: #ffffff"/>
  </g>
  <g id="axes_1">
   <g id="patch_2">
    <path d="M 35.2 277.409812 
L 392.32 277.409812 
L 392.32 11.297812 
L 35.2 11.297812 
z
" style="fill: #ffffff"/>
   </g>
   <g id="patch_3">
    <path d="M 113.398953 277.409812 
L 117.554346 277.409812 
L 117.554346 275.715737 
L 113.398953 275.715737 
z
" clip-path="url(#p8213f54abc)" style="fill: #bc80bd; stroke: #000000; stroke-width: 0.8; stroke-linejoin: miter"/>
   </g>
   <g id="patch_4">
    <path d="M 117.554346 277.409812 
L 121.70974 277.409812 
L 121.70974 275.715737 
L 117.554346 275.715737 
z
" clip-path="url(#p8213f54abc)" style="fill: #bc80bd; stroke: #000000; stroke-width: 0.8; stroke-linejoin: miter"/>
   </g>
   <g id="patch_5">
    <path d="M 121.70974 277.409812 
L 125.865133 277.409812 
L 125.865133 276.562775 
L 121.70974 276.562775 
z
" clip-path="url(#p8213f54abc)" style="fill: #bc80bd; stroke: #000000; stroke-width: 0.8; stroke-linejoin: miter"/>
   </g>
   <g id="patch_6">
    <path d="M 125.865133 277.409812 
L 130.020527 277.409812 
L 130.020527 272.327587 
L 125.865133 272.327587 
z
" clip-path="url(#p8213f54abc)" style="fill: #bc80bd; stroke: #000000; stroke-width: 0.8; stroke-linejoin: miter"/>
   </g>
   <g id="patch_7">
    <path d="M 130.020527 277.409812 
L 134.17592 277.409812 
L 134.17592 268.092398 
L 130.020527 268.092398 
z
" clip-path="url(#p8213f54abc)" style="fill: #bc80bd; stroke: #000000; stroke-width: 0.8; stroke-linejoin: miter"/>
   </g>
   <g id="patch_8">
    <path d="M 134.17592 277.409812 
L 138.331313 277.409812 
L 138.331313 273.174624 
L 134.17592 273.174624 
z
" clip-path="url(#p8213f54abc)" style="fill: #bc80bd; stroke: #000000; stroke-width: 0.8; stroke-linejoin: miter"/>
   </g>
   <g id="patch_9">
    <path d="M 138.331313 277.409812 
L 142.486707 277.409812 
L 142.486707 263.85721 
L 138.331313 263.85721 
z
" clip-path="url(#p8213f54abc)" style="fill: #bc80bd; stroke: #000000; stroke-width: 0.8; stroke-linejoin: miter"/>
   </g>
   <g id="patch_10">
    <path d="M 142.486707 277.409812 
L 146.6421 277.409812 
L 146.6421 260.469059 
L 142.486707 260.469059 
z
" clip-path="url(#p8213f54abc)" style="fill: #bc80bd; stroke: #000000; stroke-width: 0.8; stroke-linejoin: miter"/>
   </g>
   <g id="patch_11">
    <path d="M 146.6421 277.409812 
L 150.797493 277.409812 
L 150.797493 253.692758 
L 146.6421 253.692758 
z
" clip-path="url(#p8213f54abc)" style="fill: #bc80bd; stroke: #000000; stroke-width: 0.8; stroke-linejoin: miter"/>
   </g>
   <g id="patch_12">
    <path d="M 150.797493 277.409812 
L 154.952887 277.409812 
L 154.952887 246.916457 
L 150.797493 246.916457 
z
" clip-path="url(#p8213f54abc)" style="fill: #bc80bd; stroke: #000000; stroke-width: 0.8; stroke-linejoin: miter"/>
   </g>
   <g id="patch_13">
    <path d="M 154.952887 277.409812 
L 159.10828 277.409812 
L 159.10828 235.057929 
L 154.952887 235.057929 
z
" clip-path="url(#p8213f54abc)" style="fill: #bc80bd; stroke: #000000; stroke-width: 0.8; stroke-linejoin: miter"/>
   </g>
   <g id="patch_14">
    <path d="M 159.10828 277.409812 
L 163.263674 277.409812 
L 163.263674 211.340875 
L 159.10828 211.340875 
z
" clip-path="url(#p8213f54abc)" style="fill: #bc80bd; stroke: #000000; stroke-width: 0.8; stroke-linejoin: miter"/>
   </g>
   <g id="patch_15">
    <path d="M 163.263674 277.409812 
L 167.419067 277.409812 
L 167.419067 220.658289 
L 163.263674 220.658289 
z
" clip-path="url(#p8213f54abc)" style="fill: #bc80bd; stroke: #000000; stroke-width: 0.8; stroke-linejoin: miter"/>
   </g>
   <g id="patch_16">
    <path d="M 167.419067 277.409812 
L 171.57446 277.409812 
L 171.57446 205.411611 
L 167.419067 205.411611 
z
" clip-path="url(#p8213f54abc)" style="fill: #bc80bd; stroke: #000000; stroke-width: 0.8; stroke-linejoin: miter"/>
   </g>
   <g id="patch_17">
    <path d="M 171.57446 277.409812 
L 175.729854 277.409812 
L 175.729854 176.61233 
L 171.57446 176.61233 
z
" clip-path="url(#p8213f54abc)" style="fill: #bc80bd; stroke: #000000; stroke-width: 0.8; stroke-linejoin: miter"/>
   </g>
   <g id="patch_18">
    <path d="M 175.729854 277.409812 
L 179.885247 277.409812 
L 179.885247 158.824539 
L 175.729854 158.824539 
z
" clip-path="url(#p8213f54abc)" style="fill: #bc80bd; stroke: #000000; stroke-width: 0.8; stroke-linejoin: miter"/>
   </g>
   <g id="patch_19">
    <path d="M 179.885247 277.409812 
L 184.040641 277.409812 
L 184.040641 135.954522 
L 179.885247 135.954522 
z
" clip-path="url(#p8213f54abc)" style="fill: #bc80bd; stroke: #000000; stroke-width: 0.8; stroke-linejoin: miter"/>
   </g>
   <g id="patch_20">
    <path d="M 184.040641 277.409812 
L 188.196034 277.409812 
L 188.196034 124.095995 
L 184.040641 124.095995 
z
" clip-path="url(#p8213f54abc)" style="fill: #bc80bd; stroke: #000000; stroke-width: 0.8; stroke-linejoin: miter"/>
   </g>
   <g id="patch_21">
    <path d="M 188.196034 277.409812 
L 192.351427 277.409812 
L 192.351427 114.778581 
L 188.196034 114.778581 
z
" clip-path="url(#p8213f54abc)" style="fill: #bc80bd; stroke: #000000; stroke-width: 0.8; stroke-linejoin: miter"/>
   </g>
   <g id="patch_22">
    <path d="M 192.351427 277.409812 
L 196.506821 277.409812 
L 196.506821 91.908564 
L 192.351427 91.908564 
z
" clip-path="url(#p8213f54abc)" style="fill: #bc80bd; stroke: #000000; stroke-width: 0.8; stroke-linejoin: miter"/>
   </g>
   <g id="patch_23">
    <path d="M 196.506821 277.409812 
L 200.662214 277.409812 
L 200.662214 47.862605 
L 196.506821 47.862605 
z
" clip-path="url(#p8213f54abc)" style="fill: #bc80bd; stroke: #000000; stroke-width: 0.8; stroke-linejoin: miter"/>
   </g>
   <g id="patch_24">
    <path d="M 200.662214 277.409812 
L 204.817608 277.409812 
L 204.817608 58.874095 
L 200.662214 58.874095 
z
" clip-path="url(#p8213f54abc)" style="fill: #bc80bd; stroke: #000000; stroke-width: 0.8; stroke-linejoin: miter"/>
   </g>
   <g id="patch_25">
    <path d="M 204.817608 277.409812 
L 208.973001 277.409812 
L 208.973001 61.415208 
L 204.817608 61.415208 
z
" clip-path="url(#p8213f54abc)" style="fill: #bc80bd; stroke: #000000; stroke-width: 0.8; stroke-linejoin: miter"/>
   </g>
   <g id="patch_26">
    <path d="M 208.973001 277.409812 
L 213.128394 277.409812 
L 213.128394 27.533701 
L 208.973001 27.533701 
z
" clip-path="url(#p8213f54abc)" style="fill: #bc80bd; stroke: #000000; stroke-width: 0.8; stroke-linejoin: miter"/>
   </g>
   <g id="patch_27">
    <path d="M 213.128394 277.409812 
L 217.283788 277.409812 
L 217.283788 60.56817 
L 213.128394 60.56817 
z
" clip-path="url(#p8213f54abc)" style="fill: #bc80bd; stroke: #000000; stroke-width: 0.8; stroke-linejoin: miter"/>
   </g>
   <g id="patch_28">
    <path d="M 217.283788 277.409812 
L 221.439181 277.409812 
L 221.439181 26.686664 
L 217.283788 26.686664 
z
" clip-path="url(#p8213f54abc)" style="fill: #bc80bd; stroke: #000000; stroke-width: 0.8; stroke-linejoin: miter"/>
   </g>
   <g id="patch_29">
    <path d="M 221.439181 277.409812 
L 225.594575 277.409812 
L 225.594575 48.709643 
L 221.439181 48.709643 
z
" clip-path="url(#p8213f54abc)" style="fill: #bc80bd; stroke: #000000; stroke-width: 0.8; stroke-linejoin: miter"/>
   </g>
   <g id="patch_30">
    <path d="M 225.594575 277.409812 
L 229.749968 277.409812 
L 229.749968 58.027057 
L 225.594575 58.027057 
z
" clip-path="url(#p8213f54abc)" style="fill: #bc80bd; stroke: #000000; stroke-width: 0.8; stroke-linejoin: miter"/>
   </g>
   <g id="patch_31">
    <path d="M 229.749968 277.409812 
L 233.905361 277.409812 
L 233.905361 85.132262 
L 229.749968 85.132262 
z
" clip-path="url(#p8213f54abc)" style="fill: #bc80bd; stroke: #000000; stroke-width: 0.8; stroke-linejoin: miter"/>
   </g>
   <g id="patch_32">
    <path d="M 233.905361 277.409812 
L 238.060755 277.409812 
L 238.060755 108.849317 
L 233.905361 108.849317 
z
" clip-path="url(#p8213f54abc)" style="fill: #bc80bd; stroke: #000000; stroke-width: 0.8; stroke-linejoin: miter"/>
   </g>
   <g id="patch_33">
    <path d="M 238.060755 277.409812 
L 242.216148 277.409812 
L 242.216148 129.178221 
L 238.060755 129.178221 
z
" clip-path="url(#p8213f54abc)" style="fill: #bc80bd; stroke: #000000; stroke-width: 0.8; stroke-linejoin: miter"/>
   </g>
   <g id="patch_34">
    <path d="M 242.216148 277.409812 
L 246.371542 277.409812 
L 246.371542 136.80156 
L 242.216148 136.80156 
z
" clip-path="url(#p8213f54abc)" style="fill: #bc80bd; stroke: #000000; stroke-width: 0.8; stroke-linejoin: miter"/>
   </g>
   <g id="patch_35">
    <path d="M 246.371542 277.409812 
L 250.526935 277.409812 
L 250.526935 145.271937 
L 246.371542 145.271937 
z
" clip-path="url(#p8213f54abc)" style="fill: #bc80bd; stroke: #000000; stroke-width: 0.8; stroke-linejoin: miter"/>
   </g>
   <g id="patch_36">
    <path d="M 250.526935 277.409812 
L 254.682328 277.409812 
L 254.682328 180.847519 
L 250.526935 180.847519 
z
" clip-path="url(#p8213f54abc)" style="fill: #bc80bd; stroke: #000000; stroke-width: 0.8; stroke-linejoin: miter"/>
   </g>
   <g id="patch_37">
    <path d="M 254.682328 277.409812 
L 258.837722 277.409812 
L 258.837722 192.706046 
L 254.682328 192.706046 
z
" clip-path="url(#p8213f54abc)" style="fill: #bc80bd; stroke: #000000; stroke-width: 0.8; stroke-linejoin: miter"/>
   </g>
   <g id="patch_38">
    <path d="M 258.837722 277.409812 
L 262.993115 277.409812 
L 262.993115 224.893477 
L 258.837722 224.893477 
z
" clip-path="url(#p8213f54abc)" style="fill: #bc80bd; stroke: #000000; stroke-width: 0.8; stroke-linejoin: miter"/>
   </g>
   <g id="patch_39">
    <path d="M 262.993115 277.409812 
L 267.148509 277.409812 
L 267.148509 235.904967 
L 262.993115 235.904967 
z
" clip-path="url(#p8213f54abc)" style="fill: #bc80bd; stroke: #000000; stroke-width: 0.8; stroke-linejoin: miter"/>
   </g>
   <g id="patch_40">
    <path d="M 267.148509 277.409812 
L 271.303902 277.409812 
L 271.303902 242.681268 
L 267.148509 242.681268 
z
" clip-path="url(#p8213f54abc)" style="fill: #bc80bd; stroke: #000000; stroke-width: 0.8; stroke-linejoin: miter"/>
   </g>
   <g id="patch_41">
    <path d="M 271.303902 277.409812 
L 275.459295 277.409812 
L 275.459295 250.304607 
L 271.303902 250.304607 
z
" clip-path="url(#p8213f54abc)" style="fill: #bc80bd; stroke: #000000; stroke-width: 0.8; stroke-linejoin: miter"/>
   </g>
   <g id="patch_42">
    <path d="M 275.459295 277.409812 
L 279.614689 277.409812 
L 279.614689 250.304607 
L 275.459295 250.304607 
z
" clip-path="url(#p8213f54abc)" style="fill: #bc80bd; stroke: #000000; stroke-width: 0.8; stroke-linejoin: miter"/>
   </g>
   <g id="patch_43">
    <path d="M 279.614689 277.409812 
L 283.770082 277.409812 
L 283.770082 256.233871 
L 279.614689 256.233871 
z
" clip-path="url(#p8213f54abc)" style="fill: #bc80bd; stroke: #000000; stroke-width: 0.8; stroke-linejoin: miter"/>
   </g>
   <g id="patch_44">
    <path d="M 283.770082 277.409812 
L 287.925475 277.409812 
L 287.925475 260.469059 
L 283.770082 260.469059 
z
" clip-path="url(#p8213f54abc)" style="fill: #bc80bd; stroke: #000000; stroke-width: 0.8; stroke-linejoin: miter"/>
   </g>
   <g id="patch_45">
    <path d="M 287.925475 277.409812 
L 292.080869 277.409812 
L 292.080869 274.021662 
L 287.925475 274.021662 
z
" clip-path="url(#p8213f54abc)" style="fill: #bc80bd; stroke: #000000; stroke-width: 0.8; stroke-linejoin: miter"/>
   </g>
   <g id="patch_46">
    <path d="M 292.080869 277.409812 
L 296.236262 277.409812 
L 296.236262 272.327587 
L 292.080869 272.327587 
z
" clip-path="url(#p8213f54abc)" style="fill: #bc80bd; stroke: #000000; stroke-width: 0.8; stroke-linejoin: miter"/>
   </g>
   <g id="patch_47">
    <path d="M 296.236262 277.409812 
L 300.391656 277.409812 
L 300.391656 275.715737 
L 296.236262 275.715737 
z
" clip-path="url(#p8213f54abc)" style="fill: #bc80bd; stroke: #000000; stroke-width: 0.8; stroke-linejoin: miter"/>
   </g>
   <g id="patch_48">
    <path d="M 300.391656 277.409812 
L 304.547049 277.409812 
L 304.547049 274.8687 
L 300.391656 274.8687 
z
" clip-path="url(#p8213f54abc)" style="fill: #bc80bd; stroke: #000000; stroke-width: 0.8; stroke-linejoin: miter"/>
   </g>
   <g id="patch_49">
    <path d="M 304.547049 277.409812 
L 308.702442 277.409812 
L 308.702442 277.409812 
L 304.547049 277.409812 
z
" clip-path="url(#p8213f54abc)" style="fill: #bc80bd; stroke: #000000; stroke-width: 0.8; stroke-linejoin: miter"/>
   </g>
   <g id="patch_50">
    <path d="M 308.702442 277.409812 
L 312.857836 277.409812 
L 312.857836 277.409812 
L 308.702442 277.409812 
z
" clip-path="url(#p8213f54abc)" style="fill: #bc80bd; stroke: #000000; stroke-width: 0.8; stroke-linejoin: miter"/>
   </g>
   <g id="patch_51">
    <path d="M 312.857836 277.409812 
L 317.013229 277.409812 
L 317.013229 276.562775 
L 312.857836 276.562775 
z
" clip-path="url(#p8213f54abc)" style="fill: #bc80bd; stroke: #000000; stroke-width: 0.8; stroke-linejoin: miter"/>
   </g>
   <g id="patch_52">
    <path d="M 317.013229 277.409812 
L 321.168623 277.409812 
L 321.168623 276.562775 
L 317.013229 276.562775 
z
" clip-path="url(#p8213f54abc)" style="fill: #bc80bd; stroke: #000000; stroke-width: 0.8; stroke-linejoin: miter"/>
   </g>
   <g id="matplotlib.axis_1">
    <g id="xtick_1">
     <g id="line2d_1">
      <defs>
       <path id="m701c3703e8" d="M 0 0 
L 0 3.5 
" style="stroke: #323034; stroke-width: 0.8"/>
      </defs>
      <g>
       <use xlink:href="#m701c3703e8" x="35.2" y="277.409812" style="fill: #323034; stroke: #323034; stroke-width: 0.8"/>
      </g>
     </g>
     <g id="text_1">
      <!-- $\mathdefault{−6}$ -->
      <g style="fill: #323034" transform="translate(28.06 292.605437)scale(0.12 -0.12)">
       <defs>
        <path id="STIXGeneral-Regular-2212" d="M 3974 1408 
L 410 1408 
L 410 1830 
L 3974 1830 
L 3974 1408 
z
" transform="scale(0.015625)"/>
        <path id="STIXGeneral-Regular-36" d="M 2854 4378 
L 2867 4275 
Q 2112 4154 1606 3664 
Q 1101 3174 973 2451 
Q 1344 2739 1786 2739 
Q 2349 2739 2672 2380 
Q 2995 2022 2995 1402 
Q 2995 774 2669 378 
Q 2291 -90 1651 -90 
Q 870 -90 518 557 
Q 218 1107 218 1786 
Q 218 2835 915 3552 
Q 1312 3962 1731 4131 
Q 2150 4301 2854 4378 
z
M 2419 1203 
Q 2419 2445 1555 2445 
Q 1235 2445 1024 2275 
Q 813 2106 813 1702 
Q 813 954 1046 522 
Q 1280 90 1722 90 
Q 2061 90 2240 394 
Q 2419 698 2419 1203 
z
" transform="scale(0.015625)"/>
       </defs>
       <use xlink:href="#STIXGeneral-Regular-2212" transform="translate(0 0.59375)"/>
       <use xlink:href="#STIXGeneral-Regular-36" transform="translate(68.499985 0.59375)"/>
      </g>
     </g>
    </g>
    <g id="xtick_2">
     <g id="line2d_2">
      <g>
       <use xlink:href="#m701c3703e8" x="94.72" y="277.409812" style="fill: #323034; stroke: #323034; stroke-width: 0.8"/>
      </g>
     </g>
     <g id="text_2">
      <!-- $\mathdefault{−4}$ -->
      <g style="fill: #323034" transform="translate(87.58 292.605437)scale(0.12 -0.12)">
       <defs>
        <path id="STIXGeneral-Regular-34" d="M 3027 1069 
L 2368 1069 
L 2368 0 
L 1869 0 
L 1869 1069 
L 77 1069 
L 77 1478 
L 2086 4326 
L 2368 4326 
L 2368 1478 
L 3027 1478 
L 3027 1069 
z
M 1869 1478 
L 1869 3674 
L 333 1478 
L 1869 1478 
z
" transform="scale(0.015625)"/>
       </defs>
       <use xlink:href="#STIXGeneral-Regular-2212" transform="translate(0 0.40625)"/>
       <use xlink:href="#STIXGeneral-Regular-34" transform="translate(68.499985 0.40625)"/>
      </g>
     </g>
    </g>
    <g id="xtick_3">
     <g id="line2d_3">
      <g>
       <use xlink:href="#m701c3703e8" x="154.24" y="277.409812" style="fill: #323034; stroke: #323034; stroke-width: 0.8"/>
      </g>
     </g>
     <g id="text_3">
      <!-- $\mathdefault{−2}$ -->
      <g style="fill: #323034" transform="translate(147.1 292.605437)scale(0.12 -0.12)">
       <defs>
        <path id="STIXGeneral-Regular-32" d="M 3034 877 
L 2688 0 
L 186 0 
L 186 77 
L 1325 1286 
Q 1773 1754 1965 2144 
Q 2157 2534 2157 2950 
Q 2157 3379 1920 3616 
Q 1683 3853 1267 3853 
Q 922 3853 720 3673 
Q 518 3494 326 3021 
L 192 3053 
Q 301 3648 630 3987 
Q 960 4326 1523 4326 
Q 2054 4326 2380 4006 
Q 2707 3686 2707 3200 
Q 2707 2477 1888 1613 
L 832 486 
L 2330 486 
Q 2541 486 2665 569 
Q 2790 653 2944 915 
L 3034 877 
z
" transform="scale(0.015625)"/>
       </defs>
       <use xlink:href="#STIXGeneral-Regular-2212" transform="translate(0 0.40625)"/>
       <use xlink:href="#STIXGeneral-Regular-32" transform="translate(68.499985 0.40625)"/>
      </g>
     </g>
    </g>
    <g id="xtick_4">
     <g id="line2d_4">
      <g>
       <use xlink:href="#m701c3703e8" x="213.76" y="277.409812" style="fill: #323034; stroke: #323034; stroke-width: 0.8"/>
      </g>
     </g>
     <g id="text_4">
      <!-- $\mathdefault{0}$ -->
      <g style="fill: #323034" transform="translate(210.76 292.605437)scale(0.12 -0.12)">
       <defs>
        <path id="STIXGeneral-Regular-30" d="M 3046 2112 
Q 3046 1683 2963 1302 
Q 2880 922 2717 602 
Q 2554 282 2266 96 
Q 1978 -90 1600 -90 
Q 1210 -90 915 108 
Q 621 307 461 640 
Q 301 973 227 1350 
Q 154 1728 154 2150 
Q 154 2746 301 3222 
Q 448 3699 790 4012 
Q 1133 4326 1626 4326 
Q 2253 4326 2649 3712 
Q 3046 3098 3046 2112 
z
M 2432 2080 
Q 2432 3091 2217 3625 
Q 2003 4160 1587 4160 
Q 1190 4160 979 3622 
Q 768 3085 768 2106 
Q 768 1120 979 598 
Q 1190 77 1600 77 
Q 2003 77 2217 598 
Q 2432 1120 2432 2080 
z
" transform="scale(0.015625)"/>
       </defs>
       <use xlink:href="#STIXGeneral-Regular-30" transform="translate(0 0.40625)"/>
      </g>
     </g>
    </g>
    <g id="xtick_5">
     <g id="line2d_5">
      <g>
       <use xlink:href="#m701c3703e8" x="273.28" y="277.409812" style="fill: #323034; stroke: #323034; stroke-width: 0.8"/>
      </g>
     </g>
     <g id="text_5">
      <!-- $\mathdefault{2}$ -->
      <g style="fill: #323034" transform="translate(270.28 292.605437)scale(0.12 -0.12)">
       <use xlink:href="#STIXGeneral-Regular-32" transform="translate(0 0.40625)"/>
      </g>
     </g>
    </g>
    <g id="xtick_6">
     <g id="line2d_6">
      <g>
       <use xlink:href="#m701c3703e8" x="332.8" y="277.409812" style="fill: #323034; stroke: #323034; stroke-width: 0.8"/>
      </g>
     </g>
     <g id="text_6">
      <!-- $\mathdefault{4}$ -->
      <g style="fill: #323034" transform="translate(329.8 292.605437)scale(0.12 -0.12)">
       <use xlink:href="#STIXGeneral-Regular-34" transform="translate(0 0.40625)"/>
      </g>
     </g>
    </g>
    <g id="xtick_7">
     <g id="line2d_7">
      <g>
       <use xlink:href="#m701c3703e8" x="392.32" y="277.409812" style="fill: #323034; stroke: #323034; stroke-width: 0.8"/>
      </g>
     </g>
     <g id="text_7">
      <!-- $\mathdefault{6}$ -->
      <g style="fill: #323034" transform="translate(389.32 292.605437)scale(0.12 -0.12)">
       <use xlink:href="#STIXGeneral-Regular-36" transform="translate(0 0.59375)"/>
      </g>
     </g>
    </g>
   </g>
   <g id="matplotlib.axis_2">
    <g id="ytick_1">
     <g id="line2d_8">
      <defs>
       <path id="me89aa26aa2" d="M 0 0 
L -3.5 0 
" style="stroke: #323034; stroke-width: 0.8"/>
      </defs>
      <g>
       <use xlink:href="#me89aa26aa2" x="35.2" y="277.409812" style="fill: #323034; stroke: #323034; stroke-width: 0.8"/>
      </g>
     </g>
     <g id="text_8">
      <!-- $\mathdefault{0.00}$ -->
      <g style="fill: #323034" transform="translate(7.2 281.507625)scale(0.12 -0.12)">
       <defs>
        <path id="STIXGeneral-Regular-2e" d="M 1158 275 
Q 1158 134 1052 32 
Q 947 -70 800 -70 
Q 653 -70 550 32 
Q 448 134 448 281 
Q 448 429 553 534 
Q 659 640 806 640 
Q 947 640 1052 531 
Q 1158 422 1158 275 
z
" transform="scale(0.015625)"/>
       </defs>
       <use xlink:href="#STIXGeneral-Regular-30" transform="translate(0 0.40625)"/>
       <use xlink:href="#STIXGeneral-Regular-2e" transform="translate(49.999985 0.40625)"/>
       <use xlink:href="#STIXGeneral-Regular-30" transform="translate(74.999969 0.40625)"/>
       <use xlink:href="#STIXGeneral-Regular-30" transform="translate(124.999954 0.40625)"/>
      </g>
     </g>
    </g>
    <g id="ytick_2">
     <g id="line2d_9">
      <g>
       <use xlink:href="#me89aa26aa2" x="35.2" y="247.841812" style="fill: #323034; stroke: #323034; stroke-width: 0.8"/>
      </g>
     </g>
     <g id="text_9">
      <!-- $\mathdefault{0.05}$ -->
      <g style="fill: #323034" transform="translate(7.2 251.939625)scale(0.12 -0.12)">
       <defs>
        <path id="STIXGeneral-Regular-35" d="M 2803 4358 
L 2573 3814 
Q 2534 3731 2400 3731 
L 1158 3731 
L 902 3187 
Q 1606 3053 1920 2896 
Q 2234 2739 2502 2368 
Q 2726 2061 2726 1555 
Q 2726 1094 2576 780 
Q 2426 467 2099 224 
Q 1664 -90 1011 -90 
Q 646 -90 422 19 
Q 198 128 198 307 
Q 198 550 486 550 
Q 717 550 960 352 
Q 1210 147 1414 147 
Q 1747 147 2012 480 
Q 2278 813 2278 1229 
Q 2278 1843 1850 2189 
Q 1293 2637 486 2637 
Q 410 2637 410 2688 
L 416 2720 
L 1114 4237 
L 2438 4237 
Q 2547 4237 2608 4269 
Q 2669 4301 2746 4403 
L 2803 4358 
z
" transform="scale(0.015625)"/>
       </defs>
       <use xlink:href="#STIXGeneral-Regular-30" transform="translate(0 0.203125)"/>
       <use xlink:href="#STIXGeneral-Regular-2e" transform="translate(49.999985 0.203125)"/>
       <use xlink:href="#STIXGeneral-Regular-30" transform="translate(74.999969 0.203125)"/>
       <use xlink:href="#STIXGeneral-Regular-35" transform="translate(124.999954 0.203125)"/>
      </g>
     </g>
    </g>
    <g id="ytick_3">
     <g id="line2d_10">
      <g>
       <use xlink:href="#me89aa26aa2" x="35.2" y="218.273812" style="fill: #323034; stroke: #323034; stroke-width: 0.8"/>
      </g>
     </g>
     <g id="text_10">
      <!-- $\mathdefault{0.10}$ -->
      <g style="fill: #323034" transform="translate(7.2 222.371625)scale(0.12 -0.12)">
       <defs>
        <path id="STIXGeneral-Regular-31" d="M 2522 0 
L 755 0 
L 755 96 
Q 1107 115 1235 227 
Q 1363 339 1363 608 
L 1363 3482 
Q 1363 3795 1171 3795 
Q 1082 3795 883 3718 
L 710 3654 
L 710 3744 
L 1856 4326 
L 1914 4307 
L 1914 486 
Q 1914 275 2042 185 
Q 2170 96 2522 96 
L 2522 0 
z
" transform="scale(0.015625)"/>
       </defs>
       <use xlink:href="#STIXGeneral-Regular-30" transform="translate(0 0.40625)"/>
       <use xlink:href="#STIXGeneral-Regular-2e" transform="translate(49.999985 0.40625)"/>
       <use xlink:href="#STIXGeneral-Regular-31" transform="translate(74.999969 0.40625)"/>
       <use xlink:href="#STIXGeneral-Regular-30" transform="translate(124.999954 0.40625)"/>
      </g>
     </g>
    </g>
    <g id="ytick_4">
     <g id="line2d_11">
      <g>
       <use xlink:href="#me89aa26aa2" x="35.2" y="188.705812" style="fill: #323034; stroke: #323034; stroke-width: 0.8"/>
      </g>
     </g>
     <g id="text_11">
      <!-- $\mathdefault{0.15}$ -->
      <g style="fill: #323034" transform="translate(7.2 192.803625)scale(0.12 -0.12)">
       <use xlink:href="#STIXGeneral-Regular-30" transform="translate(0 0.203125)"/>
       <use xlink:href="#STIXGeneral-Regular-2e" transform="translate(49.999985 0.203125)"/>
       <use xlink:href="#STIXGeneral-Regular-31" transform="translate(74.999969 0.203125)"/>
       <use xlink:href="#STIXGeneral-Regular-35" transform="translate(124.999954 0.203125)"/>
      </g>
     </g>
    </g>
    <g id="ytick_5">
     <g id="line2d_12">
      <g>
       <use xlink:href="#me89aa26aa2" x="35.2" y="159.137812" style="fill: #323034; stroke: #323034; stroke-width: 0.8"/>
      </g>
     </g>
     <g id="text_12">
      <!-- $\mathdefault{0.20}$ -->
      <g style="fill: #323034" transform="translate(7.2 163.235625)scale(0.12 -0.12)">
       <use xlink:href="#STIXGeneral-Regular-30" transform="translate(0 0.40625)"/>
       <use xlink:href="#STIXGeneral-Regular-2e" transform="translate(49.999985 0.40625)"/>
       <use xlink:href="#STIXGeneral-Regular-32" transform="translate(74.999969 0.40625)"/>
       <use xlink:href="#STIXGeneral-Regular-30" transform="translate(124.999954 0.40625)"/>
      </g>
     </g>
    </g>
    <g id="ytick_6">
     <g id="line2d_13">
      <g>
       <use xlink:href="#me89aa26aa2" x="35.2" y="129.569812" style="fill: #323034; stroke: #323034; stroke-width: 0.8"/>
      </g>
     </g>
     <g id="text_13">
      <!-- $\mathdefault{0.25}$ -->
      <g style="fill: #323034" transform="translate(7.2 133.667625)scale(0.12 -0.12)">
       <use xlink:href="#STIXGeneral-Regular-30" transform="translate(0 0.203125)"/>
       <use xlink:href="#STIXGeneral-Regular-2e" transform="translate(49.999985 0.203125)"/>
       <use xlink:href="#STIXGeneral-Regular-32" transform="translate(74.999969 0.203125)"/>
       <use xlink:href="#STIXGeneral-Regular-35" transform="translate(124.999954 0.203125)"/>
      </g>
     </g>
    </g>
    <g id="ytick_7">
     <g id="line2d_14">
      <g>
       <use xlink:href="#me89aa26aa2" x="35.2" y="100.001812" style="fill: #323034; stroke: #323034; stroke-width: 0.8"/>
      </g>
     </g>
     <g id="text_14">
      <!-- $\mathdefault{0.30}$ -->
      <g style="fill: #323034" transform="translate(7.2 104.099625)scale(0.12 -0.12)">
       <defs>
        <path id="STIXGeneral-Regular-33" d="M 390 3264 
L 288 3290 
Q 435 3770 748 4048 
Q 1062 4326 1542 4326 
Q 1990 4326 2265 4083 
Q 2541 3840 2541 3450 
Q 2541 2925 1946 2566 
Q 2298 2413 2477 2227 
Q 2758 1914 2758 1402 
Q 2758 890 2464 506 
Q 2246 211 1840 60 
Q 1434 -90 979 -90 
Q 262 -90 262 275 
Q 262 378 339 442 
Q 416 506 525 506 
Q 685 506 915 339 
Q 1197 141 1466 141 
Q 1818 141 2058 425 
Q 2298 710 2298 1120 
Q 2298 1856 1632 2048 
Q 1434 2112 979 2112 
L 979 2202 
Q 1338 2323 1517 2432 
Q 2035 2726 2035 3290 
Q 2035 3610 1852 3776 
Q 1670 3942 1344 3942 
Q 768 3942 390 3264 
z
" transform="scale(0.015625)"/>
       </defs>
       <use xlink:href="#STIXGeneral-Regular-30" transform="translate(0 0.40625)"/>
       <use xlink:href="#STIXGeneral-Regular-2e" transform="translate(49.999985 0.40625)"/>
       <use xlink:href="#STIXGeneral-Regular-33" transform="translate(74.999969 0.40625)"/>
       <use xlink:href="#STIXGeneral-Regular-30" transform="translate(124.999954 0.40625)"/>
      </g>
     </g>
    </g>
    <g id="ytick_8">
     <g id="line2d_15">
      <g>
       <use xlink:href="#me89aa26aa2" x="35.2" y="70.433812" style="fill: #323034; stroke: #323034; stroke-width: 0.8"/>
      </g>
     </g>
     <g id="text_15">
      <!-- $\mathdefault{0.35}$ -->
      <g style="fill: #323034" transform="translate(7.2 74.531625)scale(0.12 -0.12)">
       <use xlink:href="#STIXGeneral-Regular-30" transform="translate(0 0.203125)"/>
       <use xlink:href="#STIXGeneral-Regular-2e" transform="translate(49.999985 0.203125)"/>
       <use xlink:href="#STIXGeneral-Regular-33" transform="translate(74.999969 0.203125)"/>
       <use xlink:href="#STIXGeneral-Regular-35" transform="translate(124.999954 0.203125)"/>
      </g>
     </g>
    </g>
    <g id="ytick_9">
     <g id="line2d_16">
      <g>
       <use xlink:href="#me89aa26aa2" x="35.2" y="40.865812" style="fill: #323034; stroke: #323034; stroke-width: 0.8"/>
      </g>
     </g>
     <g id="text_16">
      <!-- $\mathdefault{0.40}$ -->
      <g style="fill: #323034" transform="translate(7.2 44.963625)scale(0.12 -0.12)">
       <use xlink:href="#STIXGeneral-Regular-30" transform="translate(0 0.40625)"/>
       <use xlink:href="#STIXGeneral-Regular-2e" transform="translate(49.999985 0.40625)"/>
       <use xlink:href="#STIXGeneral-Regular-34" transform="translate(74.999969 0.40625)"/>
       <use xlink:href="#STIXGeneral-Regular-30" transform="translate(124.999954 0.40625)"/>
      </g>
     </g>
    </g>
    <g id="ytick_10">
     <g id="line2d_17">
      <g>
       <use xlink:href="#me89aa26aa2" x="35.2" y="11.297812" style="fill: #323034; stroke: #323034; stroke-width: 0.8"/>
      </g>
     </g>
     <g id="text_17">
      <!-- $\mathdefault{0.45}$ -->
      <g style="fill: #323034" transform="translate(7.2 15.395625)scale(0.12 -0.12)">
       <use xlink:href="#STIXGeneral-Regular-30" transform="translate(0 0.203125)"/>
       <use xlink:href="#STIXGeneral-Regular-2e" transform="translate(49.999985 0.203125)"/>
       <use xlink:href="#STIXGeneral-Regular-34" transform="translate(74.999969 0.203125)"/>
       <use xlink:href="#STIXGeneral-Regular-35" transform="translate(124.999954 0.203125)"/>
      </g>
     </g>
    </g>
   </g>
   <g id="line2d_18">
    <path d="M 64.96 277.408933 
L 97.430871 277.296352 
L 106.665706 277.046128 
L 112.623664 276.677149 
L 117.39003 276.163246 
L 121.262703 275.525961 
L 124.53958 274.773212 
L 127.518559 273.868206 
L 130.19964 272.830293 
L 132.582823 271.693996 
L 134.966006 270.321358 
L 137.349189 268.675276 
L 139.434474 266.979257 
L 141.51976 265.01492 
L 143.605045 262.75279 
L 145.69033 260.162698 
L 147.775616 257.214302 
L 149.860901 253.877699 
L 151.946186 250.124137 
L 154.031471 245.926808 
L 156.116757 241.261723 
L 158.49994 235.331699 
L 160.883123 228.741966 
L 163.266306 221.480054 
L 165.649489 213.545431 
L 168.330571 203.831904 
L 171.30955 192.112729 
L 174.586426 178.209406 
L 178.161201 162.051417 
L 183.225465 138.041281 
L 190.375015 104.156149 
L 193.651892 89.639847 
L 196.332973 78.663103 
L 198.716156 69.787935 
L 200.801441 62.829427 
L 202.588829 57.540552 
L 204.376216 52.932518 
L 205.865706 49.64727 
L 207.355195 46.892114 
L 208.546787 45.083416 
L 209.738378 43.635615 
L 210.92997 42.555612 
L 211.823664 41.990154 
L 212.717357 41.636051 
L 213.611051 41.49426 
L 214.504745 41.565166 
L 215.398438 41.848576 
L 216.292132 42.343725 
L 217.185826 43.049274 
L 218.377417 44.313932 
L 219.569009 45.943151 
L 220.760601 47.929182 
L 222.25009 50.899021 
L 223.73958 54.389793 
L 225.526967 59.230409 
L 227.314354 64.73451 
L 229.39964 71.919704 
L 231.782823 81.018854 
L 234.463904 92.199837 
L 237.740781 106.894528 
L 242.507147 129.449909 
L 250.252492 166.171923 
L 254.125165 183.377812 
L 257.402042 196.912445 
L 260.381021 208.249925 
L 263.062102 217.596348 
L 265.743183 226.097828 
L 268.126366 232.938767 
L 270.50955 239.114042 
L 272.892733 244.64262 
L 275.275916 249.552283 
L 277.361201 253.367655 
L 279.446486 256.762099 
L 281.531772 259.764141 
L 283.617057 262.403564 
L 285.702342 264.710689 
L 287.787628 266.715742 
L 289.872913 268.448326 
L 292.256096 270.131345 
L 294.639279 271.536072 
L 297.022462 272.69999 
L 299.703544 273.76415 
L 302.682523 274.693024 
L 305.959399 275.466526 
L 309.534174 276.080021 
L 313.704745 276.571026 
L 318.769009 276.942973 
L 325.620661 277.208047 
L 336.047087 277.358964 
L 359.283123 277.408297 
L 362.56 277.408933 
L 362.56 277.408933 
" clip-path="url(#p8213f54abc)" style="fill: none; stroke: #fb8072; stroke-width: 4; stroke-linecap: square"/>
   </g>
   <g id="patch_53">
    <path d="M 35.2 277.409812 
L 35.2 11.297812 
" style="fill: none; stroke: #000000; stroke-width: 0.6; stroke-linejoin: miter; stroke-linecap: square"/>
   </g>
   <g id="patch_54">
    <path d="M 35.2 277.409812 
L 392.32 277.409812 
" style="fill: none; stroke: #000000; stroke-width: 0.6; stroke-linejoin: miter; stroke-linecap: square"/>
   </g>
  </g>
 </g>
 <defs>
  <clipPath id="p8213f54abc">
   <rect x="35.2" y="11.297812" width="357.12" height="266.112"/>
  </clipPath>
 </defs>
</svg>
