<?xml version="1.0" encoding="utf-8" standalone="no"?>
<!DOCTYPE svg PUBLIC "-//W3C//DTD SVG 1.1//EN"
  "http://www.w3.org/Graphics/SVG/1.1/DTD/svg11.dtd">
<svg xmlns:xlink="http://www.w3.org/1999/xlink" width="485.357812pt" height="309.024687pt" viewBox="0 0 485.357812 309.024687" xmlns="http://www.w3.org/2000/svg" version="1.1">
 <metadata>
  <rdf:RDF xmlns:dc="http://purl.org/dc/elements/1.1/" xmlns:cc="http://creativecommons.org/ns#" xmlns:rdf="http://www.w3.org/1999/02/22-rdf-syntax-ns#">
   <cc:Work>
    <dc:type rdf:resource="http://purl.org/dc/dcmitype/StillImage"/>
    <dc:date>2022-09-16T17:00:32.857396</dc:date>
    <dc:format>image/svg+xml</dc:format>
    <dc:creator>
     <cc:Agent>
      <dc:title>Matplotlib v3.5.3, https://matplotlib.org/</dc:title>
     </cc:Agent>
    </dc:creator>
   </cc:Work>
  </rdf:RDF>
 </metadata>
 <defs>
  <style type="text/css">*{stroke-linejoin: round; stroke-linecap: butt}</style>
 </defs>
 <g id="figure_1">
  <g id="patch_1">
   <path d="M 0 309.024687 
L 485.357812 309.024687 
L 485.357812 0 
L 0 0 
z
" style="fill: #ffffff; stroke: #ffffff; stroke-linejoin: miter"/>
  </g>
  <g id="axes_1">
   <g id="patch_2">
    <path d="M 41.190688 273.312 
L 398.310688 273.312 
L 398.310688 7.2 
L 41.190688 7.2 
z
" style="fill: #ebebeb"/>
   </g>
   <g id="matplotlib.axis_1">
    <g id="xtick_1">
     <g id="line2d_1">
      <path d="M 138.587051 273.312 
L 138.587051 7.2 
" clip-path="url(#p486bd072ec)" style="fill: none; stroke: #ffffff"/>
     </g>
     <g id="line2d_2">
      <path d="M 138.587051 273.312 
" style="fill: none; stroke: #000000; stroke-width: 2"/>
      <defs>
       <path id="m49a5ac736d" d="M 0 0 
L 0 2.75 
" style="stroke: #333333"/>
      </defs>
      <g>
       <use xlink:href="#m49a5ac736d" x="138.587051" y="273.312" style="stroke: #333333"/>
      </g>
     </g>
     <g id="text_1">
      <!-- Lunch -->
      <g style="fill: #4d4d4d" transform="translate(125.427614 284.948625)scale(0.088 -0.088)">
       <defs>
        <path id="DejaVuSans-4c" d="M 628 4666 
L 1259 4666 
L 1259 531 
L 3531 531 
L 3531 0 
L 628 0 
L 628 4666 
z
" transform="scale(0.015625)"/>
        <path id="DejaVuSans-75" d="M 544 1381 
L 544 3500 
L 1119 3500 
L 1119 1403 
Q 1119 906 1312 657 
Q 1506 409 1894 409 
Q 2359 409 2629 706 
Q 2900 1003 2900 1516 
L 2900 3500 
L 3475 3500 
L 3475 0 
L 2900 0 
L 2900 538 
Q 2691 219 2414 64 
Q 2138 -91 1772 -91 
Q 1169 -91 856 284 
Q 544 659 544 1381 
z
M 1991 3584 
L 1991 3584 
z
" transform="scale(0.015625)"/>
        <path id="DejaVuSans-6e" d="M 3513 2113 
L 3513 0 
L 2938 0 
L 2938 2094 
Q 2938 2591 2744 2837 
Q 2550 3084 2163 3084 
Q 1697 3084 1428 2787 
Q 1159 2491 1159 1978 
L 1159 0 
L 581 0 
L 581 3500 
L 1159 3500 
L 1159 2956 
Q 1366 3272 1645 3428 
Q 1925 3584 2291 3584 
Q 2894 3584 3203 3211 
Q 3513 2838 3513 2113 
z
" transform="scale(0.015625)"/>
        <path id="DejaVuSans-63" d="M 3122 3366 
L 3122 2828 
Q 2878 2963 2633 3030 
Q 2388 3097 2138 3097 
Q 1578 3097 1268 2742 
Q 959 2388 959 1747 
Q 959 1106 1268 751 
Q 1578 397 2138 397 
Q 2388 397 2633 464 
Q 2878 531 3122 666 
L 3122 134 
Q 2881 22 2623 -34 
Q 2366 -91 2075 -91 
Q 1284 -91 818 406 
Q 353 903 353 1747 
Q 353 2603 823 3093 
Q 1294 3584 2113 3584 
Q 2378 3584 2631 3529 
Q 2884 3475 3122 3366 
z
" transform="scale(0.015625)"/>
        <path id="DejaVuSans-68" d="M 3513 2113 
L 3513 0 
L 2938 0 
L 2938 2094 
Q 2938 2591 2744 2837 
Q 2550 3084 2163 3084 
Q 1697 3084 1428 2787 
Q 1159 2491 1159 1978 
L 1159 0 
L 581 0 
L 581 4863 
L 1159 4863 
L 1159 2956 
Q 1366 3272 1645 3428 
Q 1925 3584 2291 3584 
Q 2894 3584 3203 3211 
Q 3513 2838 3513 2113 
z
" transform="scale(0.015625)"/>
       </defs>
       <use xlink:href="#DejaVuSans-4c"/>
       <use xlink:href="#DejaVuSans-75" x="53.962891"/>
       <use xlink:href="#DejaVuSans-6e" x="117.341797"/>
       <use xlink:href="#DejaVuSans-63" x="180.720703"/>
       <use xlink:href="#DejaVuSans-68" x="235.701172"/>
      </g>
     </g>
    </g>
    <g id="xtick_2">
     <g id="line2d_3">
      <path d="M 300.914324 273.312 
L 300.914324 7.2 
" clip-path="url(#p486bd072ec)" style="fill: none; stroke: #ffffff"/>
     </g>
     <g id="line2d_4">
      <path d="M 300.914324 273.312 
" style="fill: none; stroke: #000000; stroke-width: 2"/>
      <g>
       <use xlink:href="#m49a5ac736d" x="300.914324" y="273.312" style="stroke: #333333"/>
      </g>
     </g>
     <g id="text_2">
      <!-- Dinner -->
      <g style="fill: #4d4d4d" transform="translate(286.210761 284.948625)scale(0.088 -0.088)">
       <defs>
        <path id="DejaVuSans-44" d="M 1259 4147 
L 1259 519 
L 2022 519 
Q 2988 519 3436 956 
Q 3884 1394 3884 2338 
Q 3884 3275 3436 3711 
Q 2988 4147 2022 4147 
L 1259 4147 
z
M 628 4666 
L 1925 4666 
Q 3281 4666 3915 4102 
Q 4550 3538 4550 2338 
Q 4550 1131 3912 565 
Q 3275 0 1925 0 
L 628 0 
L 628 4666 
z
" transform="scale(0.015625)"/>
        <path id="DejaVuSans-69" d="M 603 3500 
L 1178 3500 
L 1178 0 
L 603 0 
L 603 3500 
z
M 603 4863 
L 1178 4863 
L 1178 4134 
L 603 4134 
L 603 4863 
z
" transform="scale(0.015625)"/>
        <path id="DejaVuSans-65" d="M 3597 1894 
L 3597 1613 
L 953 1613 
Q 991 1019 1311 708 
Q 1631 397 2203 397 
Q 2534 397 2845 478 
Q 3156 559 3463 722 
L 3463 178 
Q 3153 47 2828 -22 
Q 2503 -91 2169 -91 
Q 1331 -91 842 396 
Q 353 884 353 1716 
Q 353 2575 817 3079 
Q 1281 3584 2069 3584 
Q 2775 3584 3186 3129 
Q 3597 2675 3597 1894 
z
M 3022 2063 
Q 3016 2534 2758 2815 
Q 2500 3097 2075 3097 
Q 1594 3097 1305 2825 
Q 1016 2553 972 2059 
L 3022 2063 
z
" transform="scale(0.015625)"/>
        <path id="DejaVuSans-72" d="M 2631 2963 
Q 2534 3019 2420 3045 
Q 2306 3072 2169 3072 
Q 1681 3072 1420 2755 
Q 1159 2438 1159 1844 
L 1159 0 
L 581 0 
L 581 3500 
L 1159 3500 
L 1159 2956 
Q 1341 3275 1631 3429 
Q 1922 3584 2338 3584 
Q 2397 3584 2469 3576 
Q 2541 3569 2628 3553 
L 2631 2963 
z
" transform="scale(0.015625)"/>
       </defs>
       <use xlink:href="#DejaVuSans-44"/>
       <use xlink:href="#DejaVuSans-69" x="77.001953"/>
       <use xlink:href="#DejaVuSans-6e" x="104.785156"/>
       <use xlink:href="#DejaVuSans-6e" x="168.164062"/>
       <use xlink:href="#DejaVuSans-65" x="231.542969"/>
       <use xlink:href="#DejaVuSans-72" x="293.066406"/>
      </g>
     </g>
    </g>
    <g id="text_3">
     <!-- time -->
     <g transform="translate(201.564984 299.537031)scale(0.11 -0.11)">
      <defs>
       <path id="DejaVuSans-74" d="M 1172 4494 
L 1172 3500 
L 2356 3500 
L 2356 3053 
L 1172 3053 
L 1172 1153 
Q 1172 725 1289 603 
Q 1406 481 1766 481 
L 2356 481 
L 2356 0 
L 1766 0 
Q 1100 0 847 248 
Q 594 497 594 1153 
L 594 3053 
L 172 3053 
L 172 3500 
L 594 3500 
L 594 4494 
L 1172 4494 
z
" transform="scale(0.015625)"/>
       <path id="DejaVuSans-6d" d="M 3328 2828 
Q 3544 3216 3844 3400 
Q 4144 3584 4550 3584 
Q 5097 3584 5394 3201 
Q 5691 2819 5691 2113 
L 5691 0 
L 5113 0 
L 5113 2094 
Q 5113 2597 4934 2840 
Q 4756 3084 4391 3084 
Q 3944 3084 3684 2787 
Q 3425 2491 3425 1978 
L 3425 0 
L 2847 0 
L 2847 2094 
Q 2847 2600 2669 2842 
Q 2491 3084 2119 3084 
Q 1678 3084 1418 2786 
Q 1159 2488 1159 1978 
L 1159 0 
L 581 0 
L 581 3500 
L 1159 3500 
L 1159 2956 
Q 1356 3278 1631 3431 
Q 1906 3584 2284 3584 
Q 2666 3584 2933 3390 
Q 3200 3197 3328 2828 
z
" transform="scale(0.015625)"/>
      </defs>
      <use xlink:href="#DejaVuSans-74"/>
      <use xlink:href="#DejaVuSans-69" x="39.208984"/>
      <use xlink:href="#DejaVuSans-6d" x="66.992188"/>
      <use xlink:href="#DejaVuSans-65" x="164.404297"/>
     </g>
    </g>
   </g>
   <g id="matplotlib.axis_2">
    <g id="ytick_1">
     <g id="line2d_5">
      <path d="M 41.190688 220.896 
L 398.310688 220.896 
" clip-path="url(#p486bd072ec)" style="fill: none; stroke: #ffffff"/>
     </g>
     <g id="line2d_6">
      <path d="M 41.190688 220.896 
" style="fill: none; stroke: #000000; stroke-width: 2"/>
      <defs>
       <path id="m37b93ad89b" d="M 0 0 
L -2.75 0 
" style="stroke: #333333"/>
      </defs>
      <g>
       <use xlink:href="#m37b93ad89b" x="41.190688" y="220.896" style="stroke: #333333"/>
      </g>
     </g>
     <g id="text_4">
      <!-- 2.5 -->
      <g style="fill: #4d4d4d" transform="translate(22.245938 223.32425)scale(0.088 -0.088)">
       <defs>
        <path id="DejaVuSans-32" d="M 1228 531 
L 3431 531 
L 3431 0 
L 469 0 
L 469 531 
Q 828 903 1448 1529 
Q 2069 2156 2228 2338 
Q 2531 2678 2651 2914 
Q 2772 3150 2772 3378 
Q 2772 3750 2511 3984 
Q 2250 4219 1831 4219 
Q 1534 4219 1204 4116 
Q 875 4013 500 3803 
L 500 4441 
Q 881 4594 1212 4672 
Q 1544 4750 1819 4750 
Q 2544 4750 2975 4387 
Q 3406 4025 3406 3419 
Q 3406 3131 3298 2873 
Q 3191 2616 2906 2266 
Q 2828 2175 2409 1742 
Q 1991 1309 1228 531 
z
" transform="scale(0.015625)"/>
        <path id="DejaVuSans-2e" d="M 684 794 
L 1344 794 
L 1344 0 
L 684 0 
L 684 794 
z
" transform="scale(0.015625)"/>
        <path id="DejaVuSans-35" d="M 691 4666 
L 3169 4666 
L 3169 4134 
L 1269 4134 
L 1269 2991 
Q 1406 3038 1543 3061 
Q 1681 3084 1819 3084 
Q 2600 3084 3056 2656 
Q 3513 2228 3513 1497 
Q 3513 744 3044 326 
Q 2575 -91 1722 -91 
Q 1428 -91 1123 -41 
Q 819 9 494 109 
L 494 744 
Q 775 591 1075 516 
Q 1375 441 1709 441 
Q 2250 441 2565 725 
Q 2881 1009 2881 1497 
Q 2881 1984 2565 2268 
Q 2250 2553 1709 2553 
Q 1456 2553 1204 2497 
Q 953 2441 691 2322 
L 691 4666 
z
" transform="scale(0.015625)"/>
       </defs>
       <use xlink:href="#DejaVuSans-32"/>
       <use xlink:href="#DejaVuSans-2e" x="63.623047"/>
       <use xlink:href="#DejaVuSans-35" x="95.410156"/>
      </g>
     </g>
    </g>
    <g id="ytick_2">
     <g id="line2d_7">
      <path d="M 41.190688 153.696 
L 398.310688 153.696 
" clip-path="url(#p486bd072ec)" style="fill: none; stroke: #ffffff"/>
     </g>
     <g id="line2d_8">
      <path d="M 41.190688 153.696 
" style="fill: none; stroke: #000000; stroke-width: 2"/>
      <g>
       <use xlink:href="#m37b93ad89b" x="41.190688" y="153.696" style="stroke: #333333"/>
      </g>
     </g>
     <g id="text_5">
      <!-- 5 -->
      <g style="fill: #4d4d4d" transform="translate(30.641688 156.12425)scale(0.088 -0.088)">
       <use xlink:href="#DejaVuSans-35"/>
      </g>
     </g>
    </g>
    <g id="ytick_3">
     <g id="line2d_9">
      <path d="M 41.190688 86.496 
L 398.310688 86.496 
" clip-path="url(#p486bd072ec)" style="fill: none; stroke: #ffffff"/>
     </g>
     <g id="line2d_10">
      <path d="M 41.190688 86.496 
" style="fill: none; stroke: #000000; stroke-width: 2"/>
      <g>
       <use xlink:href="#m37b93ad89b" x="41.190688" y="86.496" style="stroke: #333333"/>
      </g>
     </g>
     <g id="text_6">
      <!-- 7.5 -->
      <g style="fill: #4d4d4d" transform="translate(22.245938 88.92425)scale(0.088 -0.088)">
       <defs>
        <path id="DejaVuSans-37" d="M 525 4666 
L 3525 4666 
L 3525 4397 
L 1831 0 
L 1172 0 
L 2766 4134 
L 525 4134 
L 525 4666 
z
" transform="scale(0.015625)"/>
       </defs>
       <use xlink:href="#DejaVuSans-37"/>
       <use xlink:href="#DejaVuSans-2e" x="63.623047"/>
       <use xlink:href="#DejaVuSans-35" x="95.410156"/>
      </g>
     </g>
    </g>
    <g id="ytick_4">
     <g id="line2d_11">
      <path d="M 41.190688 19.296 
L 398.310688 19.296 
" clip-path="url(#p486bd072ec)" style="fill: none; stroke: #ffffff"/>
     </g>
     <g id="line2d_12">
      <path d="M 41.190688 19.296 
" style="fill: none; stroke: #000000; stroke-width: 2"/>
      <g>
       <use xlink:href="#m37b93ad89b" x="41.190688" y="19.296" style="stroke: #333333"/>
      </g>
     </g>
     <g id="text_7">
      <!-- 10 -->
      <g style="fill: #4d4d4d" transform="translate(25.042688 21.72425)scale(0.088 -0.088)">
       <defs>
        <path id="DejaVuSans-31" d="M 794 531 
L 1825 531 
L 1825 4091 
L 703 3866 
L 703 4441 
L 1819 4666 
L 2450 4666 
L 2450 531 
L 3481 531 
L 3481 0 
L 794 0 
L 794 531 
z
" transform="scale(0.015625)"/>
        <path id="DejaVuSans-30" d="M 2034 4250 
Q 1547 4250 1301 3770 
Q 1056 3291 1056 2328 
Q 1056 1369 1301 889 
Q 1547 409 2034 409 
Q 2525 409 2770 889 
Q 3016 1369 3016 2328 
Q 3016 3291 2770 3770 
Q 2525 4250 2034 4250 
z
M 2034 4750 
Q 2819 4750 3233 4129 
Q 3647 3509 3647 2328 
Q 3647 1150 3233 529 
Q 2819 -91 2034 -91 
Q 1250 -91 836 529 
Q 422 1150 422 2328 
Q 422 3509 836 4129 
Q 1250 4750 2034 4750 
z
" transform="scale(0.015625)"/>
       </defs>
       <use xlink:href="#DejaVuSans-31"/>
       <use xlink:href="#DejaVuSans-30" x="63.623047"/>
      </g>
     </g>
    </g>
    <g id="ytick_5">
     <g id="line2d_13">
      <path d="M 41.190688 254.496 
L 398.310688 254.496 
" clip-path="url(#p486bd072ec)" style="fill: none; stroke: #ffffff; stroke-width: 0.5"/>
     </g>
    </g>
    <g id="ytick_6">
     <g id="line2d_14">
      <path d="M 41.190688 187.296 
L 398.310688 187.296 
" clip-path="url(#p486bd072ec)" style="fill: none; stroke: #ffffff; stroke-width: 0.5"/>
     </g>
    </g>
    <g id="ytick_7">
     <g id="line2d_15">
      <path d="M 41.190688 120.096 
L 398.310688 120.096 
" clip-path="url(#p486bd072ec)" style="fill: none; stroke: #ffffff; stroke-width: 0.5"/>
     </g>
    </g>
    <g id="ytick_8">
     <g id="line2d_16">
      <path d="M 41.190688 52.896 
L 398.310688 52.896 
" clip-path="url(#p486bd072ec)" style="fill: none; stroke: #ffffff; stroke-width: 0.5"/>
     </g>
    </g>
    <g id="text_8">
     <!-- tip -->
     <g transform="translate(15.558281 145.703781)rotate(-90)scale(0.11 -0.11)">
      <defs>
       <path id="DejaVuSans-70" d="M 1159 525 
L 1159 -1331 
L 581 -1331 
L 581 3500 
L 1159 3500 
L 1159 2969 
Q 1341 3281 1617 3432 
Q 1894 3584 2278 3584 
Q 2916 3584 3314 3078 
Q 3713 2572 3713 1747 
Q 3713 922 3314 415 
Q 2916 -91 2278 -91 
Q 1894 -91 1617 61 
Q 1341 213 1159 525 
z
M 3116 1747 
Q 3116 2381 2855 2742 
Q 2594 3103 2138 3103 
Q 1681 3103 1420 2742 
Q 1159 2381 1159 1747 
Q 1159 1113 1420 752 
Q 1681 391 2138 391 
Q 2594 391 2855 752 
Q 3116 1113 3116 1747 
z
" transform="scale(0.015625)"/>
      </defs>
      <use xlink:href="#DejaVuSans-74"/>
      <use xlink:href="#DejaVuSans-69" x="39.208984"/>
      <use xlink:href="#DejaVuSans-70" x="66.992188"/>
     </g>
    </g>
   </g>
   <g id="PathCollection_1">
    <path d="M 138.587051 132.620454 
C 139.057111 132.620454 139.507982 132.433697 139.840365 132.101314 
C 140.172748 131.768931 140.359505 131.31806 140.359505 130.848 
C 140.359505 130.37794 140.172748 129.927069 139.840365 129.594686 
C 139.507982 129.262303 139.057111 129.075546 138.587051 129.075546 
C 138.116991 129.075546 137.66612 129.262303 137.333737 129.594686 
C 137.001354 129.927069 136.814597 130.37794 136.814597 130.848 
C 136.814597 131.31806 137.001354 131.768931 137.333737 132.101314 
C 137.66612 132.433697 138.116991 132.620454 138.587051 132.620454 
z
" clip-path="url(#p486bd072ec)" style="fill: #333333; stroke: #333333; stroke-width: 0.886227"/>
    <path d="M 138.587051 109.772454 
C 139.057111 109.772454 139.507982 109.585697 139.840365 109.253314 
C 140.172748 108.920931 140.359505 108.47006 140.359505 108 
C 140.359505 107.52994 140.172748 107.079069 139.840365 106.746686 
C 139.507982 106.414303 139.057111 106.227546 138.587051 106.227546 
C 138.116991 106.227546 137.66612 106.414303 137.333737 106.746686 
C 137.001354 107.079069 136.814597 107.52994 136.814597 108 
C 136.814597 108.47006 137.001354 108.920931 137.333737 109.253314 
C 137.66612 109.585697 138.116991 109.772454 138.587051 109.772454 
z
" clip-path="url(#p486bd072ec)" style="fill: #333333; stroke: #333333; stroke-width: 0.886227"/>
   </g>
   <g id="LineCollection_1">
    <path d="M 138.587051 199.728 
L 138.587051 149.1264 
" clip-path="url(#p486bd072ec)" style="fill: none; stroke: #333333; stroke-width: 0.886227"/>
    <path d="M 138.587051 234.336 
L 138.587051 254.496 
" clip-path="url(#p486bd072ec)" style="fill: none; stroke: #333333; stroke-width: 0.886227"/>
   </g>
   <g id="PolyCollection_1">
    <defs>
     <path id="m76db6ba5d8" d="M 77.714324 -109.296687 
L 77.714324 -109.296687 
L 199.459778 -109.296687 
L 199.459778 -74.688688 
L 77.714324 -74.688688 
z
" style="stroke: #333333; stroke-width: 0.886227"/>
    </defs>
    <g clip-path="url(#p486bd072ec)">
     <use xlink:href="#m76db6ba5d8" x="0" y="309.024687" style="fill: #db5f57; stroke: #333333; stroke-width: 0.886227"/>
    </g>
   </g>
   <g id="LineCollection_2">
    <path d="M 77.714324 227.616 
L 199.459778 227.616 
" clip-path="url(#p486bd072ec)" style="fill: none; stroke: #333333; stroke-width: 1.772454"/>
   </g>
   <g id="PathCollection_2">
    <path d="M 300.914324 86.118054 
C 301.384384 86.118054 301.835255 85.931297 302.167638 85.598914 
C 302.500021 85.266531 302.686778 84.81566 302.686778 84.3456 
C 302.686778 83.87554 302.500021 83.424669 302.167638 83.092286 
C 301.835255 82.759903 301.384384 82.573146 300.914324 82.573146 
C 300.444264 82.573146 299.993393 82.759903 299.66101 83.092286 
C 299.328627 83.424669 299.14187 83.87554 299.14187 84.3456 
C 299.14187 84.81566 299.328627 85.266531 299.66101 85.598914 
C 299.993393 85.931297 300.444264 86.118054 300.914324 86.118054 
z
" clip-path="url(#p486bd072ec)" style="fill: #333333; stroke: #333333; stroke-width: 0.886227"/>
    <path d="M 300.914324 108.966054 
C 301.384384 108.966054 301.835255 108.779297 302.167638 108.446914 
C 302.500021 108.114531 302.686778 107.66366 302.686778 107.1936 
C 302.686778 106.72354 302.500021 106.272669 302.167638 105.940286 
C 301.835255 105.607903 301.384384 105.421146 300.914324 105.421146 
C 300.444264 105.421146 299.993393 105.607903 299.66101 105.940286 
C 299.328627 106.272669 299.14187 106.72354 299.14187 107.1936 
C 299.14187 107.66366 299.328627 108.114531 299.66101 108.446914 
C 299.993393 108.779297 300.444264 108.966054 300.914324 108.966054 
z
" clip-path="url(#p486bd072ec)" style="fill: #333333; stroke: #333333; stroke-width: 0.886227"/>
    <path d="M 300.914324 21.068454 
C 301.384384 21.068454 301.835255 20.881697 302.167638 20.549314 
C 302.500021 20.216931 302.686778 19.76606 302.686778 19.296 
C 302.686778 18.82594 302.500021 18.375069 302.167638 18.042686 
C 301.835255 17.710303 301.384384 17.523546 300.914324 17.523546 
C 300.444264 17.523546 299.993393 17.710303 299.66101 18.042686 
C 299.328627 18.375069 299.14187 18.82594 299.14187 19.296 
C 299.14187 19.76606 299.328627 20.216931 299.66101 20.549314 
C 299.993393 20.881697 300.444264 21.068454 300.914324 21.068454 
z
" clip-path="url(#p486bd072ec)" style="fill: #333333; stroke: #333333; stroke-width: 0.886227"/>
    <path d="M 300.914324 115.148454 
C 301.384384 115.148454 301.835255 114.961697 302.167638 114.629314 
C 302.500021 114.296931 302.686778 113.84606 302.686778 113.376 
C 302.686778 112.90594 302.500021 112.455069 302.167638 112.122686 
C 301.835255 111.790303 301.384384 111.603546 300.914324 111.603546 
C 300.444264 111.603546 299.993393 111.790303 299.66101 112.122686 
C 299.328627 112.455069 299.14187 112.90594 299.14187 113.376 
C 299.14187 113.84606 299.328627 114.296931 299.66101 114.629314 
C 299.993393 114.961697 300.444264 115.148454 300.914324 115.148454 
z
" clip-path="url(#p486bd072ec)" style="fill: #333333; stroke: #333333; stroke-width: 0.886227"/>
    <path d="M 300.914324 47.948454 
C 301.384384 47.948454 301.835255 47.761697 302.167638 47.429314 
C 302.500021 47.096931 302.686778 46.64606 302.686778 46.176 
C 302.686778 45.70594 302.500021 45.255069 302.167638 44.922686 
C 301.835255 44.590303 301.384384 44.403546 300.914324 44.403546 
C 300.444264 44.403546 299.993393 44.590303 299.66101 44.922686 
C 299.328627 45.255069 299.14187 45.70594 299.14187 46.176 
C 299.14187 46.64606 299.328627 47.096931 299.66101 47.429314 
C 299.993393 47.761697 300.444264 47.948454 300.914324 47.948454 
z
" clip-path="url(#p486bd072ec)" style="fill: #333333; stroke: #333333; stroke-width: 0.886227"/>
    <path d="M 300.914324 115.148454 
C 301.384384 115.148454 301.835255 114.961697 302.167638 114.629314 
C 302.500021 114.296931 302.686778 113.84606 302.686778 113.376 
C 302.686778 112.90594 302.500021 112.455069 302.167638 112.122686 
C 301.835255 111.790303 301.384384 111.603546 300.914324 111.603546 
C 300.444264 111.603546 299.993393 111.790303 299.66101 112.122686 
C 299.328627 112.455069 299.14187 112.90594 299.14187 113.376 
C 299.14187 113.84606 299.328627 114.296931 299.66101 114.629314 
C 299.993393 114.961697 300.444264 115.148454 300.914324 115.148454 
z
" clip-path="url(#p486bd072ec)" style="fill: #333333; stroke: #333333; stroke-width: 0.886227"/>
   </g>
   <g id="LineCollection_3">
    <path d="M 300.914324 188.976 
L 300.914324 126.816 
" clip-path="url(#p486bd072ec)" style="fill: none; stroke: #333333; stroke-width: 0.886227"/>
    <path d="M 300.914324 234.336 
L 300.914324 261.216 
" clip-path="url(#p486bd072ec)" style="fill: none; stroke: #333333; stroke-width: 0.886227"/>
   </g>
   <g id="PolyCollection_2">
    <defs>
     <path id="m71677f201d" d="M 240.041597 -120.048687 
L 240.041597 -120.048687 
L 361.787051 -120.048687 
L 361.787051 -74.688688 
L 240.041597 -74.688688 
z
" style="stroke: #333333; stroke-width: 0.886227"/>
    </defs>
    <g clip-path="url(#p486bd072ec)">
     <use xlink:href="#m71677f201d" x="0" y="309.024687" style="fill: #57d3db; stroke: #333333; stroke-width: 0.886227"/>
    </g>
   </g>
   <g id="LineCollection_4">
    <path d="M 240.041597 207.456 
L 361.787051 207.456 
" clip-path="url(#p486bd072ec)" style="fill: none; stroke: #333333; stroke-width: 1.772454"/>
   </g>
   <g id="patch_3">
    <path d="M 405.510688 175.090969 
L 478.157813 175.090969 
L 478.157813 101.965031 
L 405.510688 101.965031 
z
" style="fill: #ffffff"/>
   </g>
   <g id="text_9">
    <!-- time -->
    <g transform="translate(417.710688 125.558625)scale(0.11 -0.11)">
     <use xlink:href="#DejaVuSans-74"/>
     <use xlink:href="#DejaVuSans-69" x="39.208984"/>
     <use xlink:href="#DejaVuSans-6d" x="66.992188"/>
     <use xlink:href="#DejaVuSans-65" x="164.404297"/>
    </g>
   </g>
   <g id="patch_4">
    <path d="M 417.710688 145.050969 
L 433.550687 145.050969 
L 433.550687 129.210969 
L 417.710688 129.210969 
z
" clip-path="url(#pb368add789)" style="fill: #f2f2f2"/>
   </g>
   <g id="patch_5">
    <path d="M 419.690688 141.090969 
L 431.570688 141.090969 
L 431.570688 133.170969 
L 419.690688 133.170969 
z
" clip-path="url(#pb368add789)" style="fill: #db5f57; stroke: #333333; stroke-width: 0.5; stroke-linejoin: miter; stroke-linecap: square"/>
   </g>
   <g id="line2d_17">
    <path d="M 419.690688 137.130969 
L 431.570688 137.130969 
" clip-path="url(#pb368add789)" style="fill: none; stroke: #333333; stroke-width: 0.886227"/>
   </g>
   <g id="line2d_18">
    <path d="M 425.630688 133.170969 
L 425.630688 130.794969 
" clip-path="url(#pb368add789)" style="fill: none; stroke: #333333; stroke-width: 0.886227"/>
   </g>
   <g id="line2d_19">
    <path d="M 425.630688 141.090969 
L 425.630688 143.466969 
" clip-path="url(#pb368add789)" style="fill: none; stroke: #333333; stroke-width: 0.886227"/>
   </g>
   <g id="text_10">
    <!-- Lunch -->
    <g transform="translate(436.550687 139.559219)scale(0.088 -0.088)">
     <use xlink:href="#DejaVuSans-4c"/>
     <use xlink:href="#DejaVuSans-75" x="53.962891"/>
     <use xlink:href="#DejaVuSans-6e" x="117.341797"/>
     <use xlink:href="#DejaVuSans-63" x="180.720703"/>
     <use xlink:href="#DejaVuSans-68" x="235.701172"/>
    </g>
   </g>
   <g id="patch_6">
    <path d="M 417.710688 162.890969 
L 433.550687 162.890969 
L 433.550687 147.050969 
L 417.710688 147.050969 
z
" clip-path="url(#p4c40aac1ab)" style="fill: #f2f2f2"/>
   </g>
   <g id="patch_7">
    <path d="M 419.690688 158.930969 
L 431.570688 158.930969 
L 431.570688 151.010969 
L 419.690688 151.010969 
z
" clip-path="url(#p4c40aac1ab)" style="fill: #57d3db; stroke: #333333; stroke-width: 0.5; stroke-linejoin: miter; stroke-linecap: square"/>
   </g>
   <g id="line2d_20">
    <path d="M 419.690688 154.970969 
L 431.570688 154.970969 
" clip-path="url(#p4c40aac1ab)" style="fill: none; stroke: #333333; stroke-width: 0.886227"/>
   </g>
   <g id="line2d_21">
    <path d="M 425.630688 151.010969 
L 425.630688 148.634969 
" clip-path="url(#p4c40aac1ab)" style="fill: none; stroke: #333333; stroke-width: 0.886227"/>
   </g>
   <g id="line2d_22">
    <path d="M 425.630688 158.930969 
L 425.630688 161.306969 
" clip-path="url(#p4c40aac1ab)" style="fill: none; stroke: #333333; stroke-width: 0.886227"/>
   </g>
   <g id="text_11">
    <!-- Dinner -->
    <g transform="translate(436.550687 157.399219)scale(0.088 -0.088)">
     <use xlink:href="#DejaVuSans-44"/>
     <use xlink:href="#DejaVuSans-69" x="77.001953"/>
     <use xlink:href="#DejaVuSans-6e" x="104.785156"/>
     <use xlink:href="#DejaVuSans-6e" x="168.164062"/>
     <use xlink:href="#DejaVuSans-65" x="231.542969"/>
     <use xlink:href="#DejaVuSans-72" x="293.066406"/>
    </g>
   </g>
  </g>
 </g>
 <defs>
  <clipPath id="p486bd072ec">
   <rect x="41.190688" y="7.2" width="357.12" height="266.112"/>
  </clipPath>
  <clipPath id="pb368add789">
   <path d="M 417.710688 145.050969 
L 417.710688 129.210969 
L 433.550687 129.210969 
L 433.550687 145.050969 
"/>
  </clipPath>
  <clipPath id="p4c40aac1ab">
   <path d="M 417.710688 162.890969 
L 417.710688 147.050969 
L 433.550687 147.050969 
L 433.550687 162.890969 
"/>
  </clipPath>
 </defs>
</svg>
