<?xml version="1.0" encoding="utf-8" standalone="no"?>
<!DOCTYPE svg PUBLIC "-//W3C//DTD SVG 1.1//EN"
  "http://www.w3.org/Graphics/SVG/1.1/DTD/svg11.dtd">
<svg height="253.737812pt" version="1.1" viewBox="0 0 382 253.737812" width="382pt" xmlns="http://www.w3.org/2000/svg" xmlns:xlink="http://www.w3.org/1999/xlink">
 <metadata>
  <rdf:RDF xmlns:cc="http://creativecommons.org/ns#" xmlns:dc="http://purl.org/dc/elements/1.1/" xmlns:rdf="http://www.w3.org/1999/02/22-rdf-syntax-ns#">
   <cc:Work>
    <dc:type rdf:resource="http://purl.org/dc/dcmitype/StillImage"/>
    <dc:date>2022-08-20T18:02:01.026902</dc:date>
    <dc:format>image/svg+xml</dc:format>
    <dc:creator>
     <cc:Agent>
      <dc:title>Matplotlib v3.4.3, https://matplotlib.org/</dc:title>
     </cc:Agent>
    </dc:creator>
   </cc:Work>
  </rdf:RDF>
 </metadata>
 <defs>
  <style type="text/css">*{stroke-linecap:butt;stroke-linejoin:round;}</style>
 </defs>
 <g id="figure_1">
  <g id="patch_1">
   <path d="M 0 253.737812 
L 382 253.737812 
L 382 0 
L 0 0 
z
" style="fill:none;"/>
  </g>
  <g id="axes_1">
   <g id="patch_2">
    <path d="M 40 228.737812 
L 374.8 228.737812 
L 374.8 11.297812 
L 40 11.297812 
z
" style="fill:#ffffff;"/>
   </g>
   <g id="PolyCollection_1">
    <defs>
     <path d="M 129.905945 -43.12 
L 98.894055 -43.12 
L 96.341474 -44.767273 
L 93.67197 -46.414545 
L 90.933663 -48.061818 
L 88.182088 -49.709091 
L 85.478922 -51.356364 
L 82.889354 -53.003636 
L 80.477728 -54.650909 
L 78.301586 -56.298182 
L 76.404799 -57.945455 
L 74.811031 -59.592727 
L 73.519146 -61.24 
L 72.502098 -62.887273 
L 71.7103 -64.534545 
L 71.079571 -66.181818 
L 70.54263 -67.829091 
L 70.042117 -69.476364 
L 69.542519 -71.123636 
L 69.038422 -72.770909 
L 68.55716 -74.418182 
L 68.155142 -76.065455 
L 67.908503 -77.712727 
L 67.9 -79.36 
L 68.204816 -81.007273 
L 68.878057 -82.654545 
L 69.946185 -84.301818 
L 71.403611 -85.949091 
L 73.214432 -87.596364 
L 75.318286 -89.243636 
L 77.638604 -90.890909 
L 80.0914 -92.538182 
L 82.593069 -94.185455 
L 85.066318 -95.832727 
L 87.444016 -97.48 
L 89.671365 -99.127273 
L 91.707028 -100.774545 
L 93.523812 -102.421818 
L 95.109222 -104.069091 
L 96.465781 -105.716364 
L 97.610715 -107.363636 
L 98.574496 -109.010909 
L 99.397856 -110.658182 
L 100.127283 -112.305455 
L 100.809468 -113.952727 
L 101.485529 -115.6 
L 102.186075 -117.247273 
L 102.928016 -118.894545 
L 103.713716 -120.541818 
L 104.532529 -122.189091 
L 105.364276 -123.836364 
L 106.183831 -125.483636 
L 106.965861 -127.130909 
L 107.688852 -128.778182 
L 108.337869 -130.425455 
L 108.905816 -132.072727 
L 109.393312 -133.72 
L 109.807491 -135.367273 
L 110.160124 -137.014545 
L 110.465457 -138.661818 
L 110.738065 -140.309091 
L 110.990991 -141.956364 
L 111.234332 -143.603636 
L 111.474395 -145.250909 
L 111.713519 -146.898182 
L 111.95052 -148.545455 
L 112.18168 -150.192727 
L 112.402062 -151.84 
L 112.606881 -153.487273 
L 112.792653 -155.134545 
L 112.957887 -156.781818 
L 113.103217 -158.429091 
L 113.230988 -160.076364 
L 113.344445 -161.723636 
L 113.446781 -163.370909 
L 113.540273 -165.018182 
L 113.625725 -166.665455 
L 113.702331 -168.312727 
L 113.767965 -169.96 
L 113.819796 -171.607273 
L 113.855083 -173.254545 
L 113.871969 -174.901818 
L 113.870088 -176.549091 
L 113.850889 -178.196364 
L 113.817592 -179.843636 
L 113.774799 -181.490909 
L 113.727828 -183.138182 
L 113.681906 -184.785455 
L 113.641378 -186.432727 
L 113.6091 -188.08 
L 113.586143 -189.727273 
L 113.571886 -191.374545 
L 113.564464 -193.021818 
L 113.561477 -194.669091 
L 113.560781 -196.316364 
L 113.561173 -197.963636 
L 113.562793 -199.610909 
L 113.567153 -201.258182 
L 113.576792 -202.905455 
L 113.594647 -204.552727 
L 113.623311 -206.2 
L 115.176689 -206.2 
L 115.176689 -206.2 
L 115.205353 -204.552727 
L 115.223208 -202.905455 
L 115.232847 -201.258182 
L 115.237207 -199.610909 
L 115.238827 -197.963636 
L 115.239219 -196.316364 
L 115.238523 -194.669091 
L 115.235536 -193.021818 
L 115.228114 -191.374545 
L 115.213857 -189.727273 
L 115.1909 -188.08 
L 115.158622 -186.432727 
L 115.118094 -184.785455 
L 115.072172 -183.138182 
L 115.025201 -181.490909 
L 114.982408 -179.843636 
L 114.949111 -178.196364 
L 114.929912 -176.549091 
L 114.928031 -174.901818 
L 114.944917 -173.254545 
L 114.980204 -171.607273 
L 115.032035 -169.96 
L 115.097669 -168.312727 
L 115.174275 -166.665455 
L 115.259727 -165.018182 
L 115.353219 -163.370909 
L 115.455555 -161.723636 
L 115.569012 -160.076364 
L 115.696783 -158.429091 
L 115.842113 -156.781818 
L 116.007347 -155.134545 
L 116.193119 -153.487273 
L 116.397938 -151.84 
L 116.61832 -150.192727 
L 116.84948 -148.545455 
L 117.086481 -146.898182 
L 117.325605 -145.250909 
L 117.565668 -143.603636 
L 117.809009 -141.956364 
L 118.061935 -140.309091 
L 118.334543 -138.661818 
L 118.639876 -137.014545 
L 118.992509 -135.367273 
L 119.406688 -133.72 
L 119.894184 -132.072727 
L 120.462131 -130.425455 
L 121.111148 -128.778182 
L 121.834139 -127.130909 
L 122.616169 -125.483636 
L 123.435724 -123.836364 
L 124.267471 -122.189091 
L 125.086284 -120.541818 
L 125.871984 -118.894545 
L 126.613925 -117.247273 
L 127.314471 -115.6 
L 127.990532 -113.952727 
L 128.672717 -112.305455 
L 129.402144 -110.658182 
L 130.225504 -109.010909 
L 131.189285 -107.363636 
L 132.334219 -105.716364 
L 133.690778 -104.069091 
L 135.276188 -102.421818 
L 137.092972 -100.774545 
L 139.128635 -99.127273 
L 141.355984 -97.48 
L 143.733682 -95.832727 
L 146.206931 -94.185455 
L 148.7086 -92.538182 
L 151.161396 -90.890909 
L 153.481714 -89.243636 
L 155.585568 -87.596364 
L 157.396389 -85.949091 
L 158.853815 -84.301818 
L 159.921943 -82.654545 
L 160.595184 -81.007273 
L 160.9 -79.36 
L 160.891497 -77.712727 
L 160.644858 -76.065455 
L 160.24284 -74.418182 
L 159.761578 -72.770909 
L 159.257481 -71.123636 
L 158.757883 -69.476364 
L 158.25737 -67.829091 
L 157.720429 -66.181818 
L 157.0897 -64.534545 
L 156.297902 -62.887273 
L 155.280854 -61.24 
L 153.988969 -59.592727 
L 152.395201 -57.945455 
L 150.498414 -56.298182 
L 148.322272 -54.650909 
L 145.910646 -53.003636 
L 143.321078 -51.356364 
L 140.617912 -49.709091 
L 137.866337 -48.061818 
L 135.12803 -46.414545 
L 132.458526 -44.767273 
L 129.905945 -43.12 
z
" id="mee91c5be87" style="stroke:#000000;stroke-opacity:0.3;stroke-width:0.8;"/>
    </defs>
    <g clip-path="url(#p6d74c79efc)">
     <use style="fill:#bc80bd;fill-opacity:0.3;stroke:#000000;stroke-opacity:0.3;stroke-width:0.8;" x="0" xlink:href="#mee91c5be87" y="253.737812"/>
    </g>
   </g>
   <g id="PolyCollection_2">
    <defs>
     <path d="M 324.46551 -47.65 
L 276.33449 -47.65 
L 273.95198 -48.647515 
L 271.555154 -49.64503 
L 269.178408 -50.642545 
L 266.85805 -51.640061 
L 264.631289 -52.637576 
L 262.535106 -53.635091 
L 260.60504 -54.632606 
L 258.873967 -55.630121 
L 257.370901 -56.627636 
L 256.119913 -57.625152 
L 255.139203 -58.622667 
L 254.440406 -59.620182 
L 254.028161 -60.617697 
L 253.9 -61.615212 
L 254.046543 -62.612727 
L 254.452018 -63.610242 
L 255.095065 -64.607758 
L 255.949771 -65.605273 
L 256.986885 -66.602788 
L 258.175122 -67.600303 
L 259.482478 -68.597818 
L 260.877475 -69.595333 
L 262.330266 -70.592848 
L 263.813539 -71.590364 
L 265.303174 -72.587879 
L 266.778653 -73.585394 
L 268.223211 -74.582909 
L 269.623752 -75.580424 
L 270.970586 -76.577939 
L 272.257016 -77.575455 
L 273.478851 -78.57297 
L 274.63389 -79.570485 
L 275.721432 -80.568 
L 276.741856 -81.565515 
L 277.69629 -82.56303 
L 278.586393 -83.560545 
L 279.414234 -84.558061 
L 280.18227 -85.555576 
L 280.893384 -86.553091 
L 281.550952 -87.550606 
L 282.158915 -88.548121 
L 282.721815 -89.545636 
L 283.244772 -90.543152 
L 283.733386 -91.540667 
L 284.193566 -92.538182 
L 284.631283 -93.535697 
L 285.052272 -94.533212 
L 285.461715 -95.530727 
L 285.863933 -96.528242 
L 286.262127 -97.525758 
L 286.658195 -98.523273 
L 287.052662 -99.520788 
L 287.444728 -100.518303 
L 287.832438 -101.515818 
L 288.212968 -102.513333 
L 288.582998 -103.510848 
L 288.939135 -104.508364 
L 289.278354 -105.505879 
L 289.5984 -106.503394 
L 289.89812 -107.500909 
L 290.177681 -108.498424 
L 290.438664 -109.495939 
L 290.684011 -110.493455 
L 290.917843 -111.49097 
L 291.14515 -112.488485 
L 291.371411 -113.486 
L 291.602152 -114.483515 
L 291.842512 -115.48103 
L 292.096833 -116.478545 
L 292.368334 -117.476061 
L 292.658875 -118.473576 
L 292.968845 -119.471091 
L 293.297159 -120.468606 
L 293.64138 -121.466121 
L 293.997923 -122.463636 
L 294.36233 -123.461152 
L 294.729594 -124.458667 
L 295.094481 -125.456182 
L 295.451846 -126.453697 
L 295.796908 -127.451212 
L 296.12547 -128.448727 
L 296.43408 -129.446242 
L 296.720127 -130.443758 
L 296.981883 -131.441273 
L 297.218485 -132.438788 
L 297.429888 -133.436303 
L 297.616781 -134.433818 
L 297.780488 -135.431333 
L 297.922862 -136.428848 
L 298.046166 -137.426364 
L 298.152969 -138.423879 
L 298.246033 -139.421394 
L 298.32821 -140.418909 
L 298.402342 -141.416424 
L 298.471165 -142.413939 
L 298.537222 -143.411455 
L 298.602778 -144.40897 
L 298.669754 -145.406485 
L 298.739671 -146.404 
L 302.060329 -146.404 
L 302.060329 -146.404 
L 302.130246 -145.406485 
L 302.197222 -144.40897 
L 302.262778 -143.411455 
L 302.328835 -142.413939 
L 302.397658 -141.416424 
L 302.47179 -140.418909 
L 302.553967 -139.421394 
L 302.647031 -138.423879 
L 302.753834 -137.426364 
L 302.877138 -136.428848 
L 303.019512 -135.431333 
L 303.183219 -134.433818 
L 303.370112 -133.436303 
L 303.581515 -132.438788 
L 303.818117 -131.441273 
L 304.079873 -130.443758 
L 304.36592 -129.446242 
L 304.67453 -128.448727 
L 305.003092 -127.451212 
L 305.348154 -126.453697 
L 305.705519 -125.456182 
L 306.070406 -124.458667 
L 306.43767 -123.461152 
L 306.802077 -122.463636 
L 307.15862 -121.466121 
L 307.502841 -120.468606 
L 307.831155 -119.471091 
L 308.141125 -118.473576 
L 308.431666 -117.476061 
L 308.703167 -116.478545 
L 308.957488 -115.48103 
L 309.197848 -114.483515 
L 309.428589 -113.486 
L 309.65485 -112.488485 
L 309.882157 -111.49097 
L 310.115989 -110.493455 
L 310.361336 -109.495939 
L 310.622319 -108.498424 
L 310.90188 -107.500909 
L 311.2016 -106.503394 
L 311.521646 -105.505879 
L 311.860865 -104.508364 
L 312.217002 -103.510848 
L 312.587032 -102.513333 
L 312.967562 -101.515818 
L 313.355272 -100.518303 
L 313.747338 -99.520788 
L 314.141805 -98.523273 
L 314.537873 -97.525758 
L 314.936067 -96.528242 
L 315.338285 -95.530727 
L 315.747728 -94.533212 
L 316.168717 -93.535697 
L 316.606434 -92.538182 
L 317.066614 -91.540667 
L 317.555228 -90.543152 
L 318.078185 -89.545636 
L 318.641085 -88.548121 
L 319.249048 -87.550606 
L 319.906616 -86.553091 
L 320.61773 -85.555576 
L 321.385766 -84.558061 
L 322.213607 -83.560545 
L 323.10371 -82.56303 
L 324.058144 -81.565515 
L 325.078568 -80.568 
L 326.16611 -79.570485 
L 327.321149 -78.57297 
L 328.542984 -77.575455 
L 329.829414 -76.577939 
L 331.176248 -75.580424 
L 332.576789 -74.582909 
L 334.021347 -73.585394 
L 335.496826 -72.587879 
L 336.986461 -71.590364 
L 338.469734 -70.592848 
L 339.922525 -69.595333 
L 341.317522 -68.597818 
L 342.624878 -67.600303 
L 343.813115 -66.602788 
L 344.850229 -65.605273 
L 345.704935 -64.607758 
L 346.347982 -63.610242 
L 346.753457 -62.612727 
L 346.9 -61.615212 
L 346.771839 -60.617697 
L 346.359594 -59.620182 
L 345.660797 -58.622667 
L 344.680087 -57.625152 
L 343.429099 -56.627636 
L 341.926033 -55.630121 
L 340.19496 -54.632606 
L 338.264894 -53.635091 
L 336.168711 -52.637576 
L 333.94195 -51.640061 
L 331.621592 -50.642545 
L 329.244846 -49.64503 
L 326.84802 -48.647515 
L 324.46551 -47.65 
z
" id="m7a18a05266" style="stroke:#000000;stroke-opacity:0.3;stroke-width:0.8;"/>
    </defs>
    <g clip-path="url(#p6d74c79efc)">
     <use style="fill:#fb8072;fill-opacity:0.3;stroke:#000000;stroke-opacity:0.3;stroke-width:0.8;" x="0" xlink:href="#m7a18a05266" y="253.737812"/>
    </g>
   </g>
   <g id="matplotlib.axis_1">
    <g id="xtick_1">
     <g id="line2d_1">
      <defs>
       <path d="M 0 0 
L 0 3.5 
" id="mcf422619d0" style="stroke:#323034;stroke-width:0.8;"/>
      </defs>
      <g>
       <use style="fill:#323034;stroke:#323034;stroke-width:0.8;" x="114.4" xlink:href="#mcf422619d0" y="228.737812"/>
      </g>
     </g>
     <g id="text_1">
      <!-- Dinner -->
      <g style="fill:#323034;" transform="translate(97.737813 243.933437)scale(0.12 -0.12)">
       <defs>
        <path d="M 102 4237 
L 1830 4237 
Q 3078 4237 3750 3654 
Q 4384 3110 4384 2138 
Q 4384 966 3514 410 
Q 2880 0 1901 0 
L 102 0 
L 102 122 
Q 474 147 570 252 
Q 666 358 666 736 
L 666 3520 
Q 666 3891 570 3990 
Q 474 4090 102 4115 
L 102 4237 
z
M 1318 3731 
L 1318 538 
Q 1318 365 1379 301 
Q 1440 237 1626 237 
Q 2125 237 2432 307 
Q 2739 378 3021 570 
Q 3686 1018 3686 2099 
Q 3686 3027 3078 3558 
Q 2803 3802 2476 3901 
Q 2150 4000 1658 4000 
Q 1472 4000 1395 3942 
Q 1318 3885 1318 3731 
z
" id="STIXGeneral-Regular-44" transform="scale(0.015625)"/>
        <path d="M 1152 4045 
Q 1152 3904 1056 3811 
Q 960 3718 819 3718 
Q 685 3718 592 3811 
Q 499 3904 499 4045 
Q 499 4179 595 4275 
Q 691 4371 826 4371 
Q 966 4371 1059 4275 
Q 1152 4179 1152 4045 
z
M 1619 0 
L 102 0 
L 102 96 
Q 435 115 521 211 
Q 608 307 608 666 
L 608 2118 
Q 608 2342 563 2432 
Q 518 2522 397 2522 
Q 243 2522 128 2490 
L 128 2592 
L 1120 2944 
L 1146 2918 
L 1146 672 
Q 1146 314 1226 218 
Q 1306 122 1619 96 
L 1619 0 
z
" id="STIXGeneral-Regular-69" transform="scale(0.015625)"/>
        <path d="M 3104 0 
L 1773 0 
L 1779 96 
Q 2016 115 2096 233 
Q 2176 352 2176 672 
L 2176 1946 
Q 2176 2592 1709 2592 
Q 1549 2592 1408 2515 
Q 1267 2438 1050 2227 
L 1050 461 
Q 1050 269 1136 192 
Q 1222 115 1466 96 
L 1466 0 
L 115 0 
L 115 96 
Q 358 115 435 214 
Q 512 314 512 602 
L 512 2157 
Q 512 2394 467 2483 
Q 422 2573 288 2573 
Q 160 2573 102 2547 
L 102 2656 
Q 550 2784 979 2944 
L 1030 2925 
L 1030 2426 
L 1037 2426 
Q 1491 2944 1958 2944 
Q 2323 2944 2518 2688 
Q 2714 2432 2714 1958 
L 2714 544 
Q 2714 288 2790 205 
Q 2867 122 3104 96 
L 3104 0 
z
" id="STIXGeneral-Regular-6e" transform="scale(0.015625)"/>
        <path d="M 2611 1050 
L 2714 1005 
Q 2330 -64 1376 -64 
Q 813 -64 486 329 
Q 160 723 160 1389 
Q 160 2074 525 2509 
Q 890 2944 1485 2944 
Q 2061 2944 2374 2502 
Q 2560 2246 2592 1773 
L 621 1773 
Q 646 1370 700 1158 
Q 755 947 915 730 
Q 1184 378 1626 378 
Q 1939 378 2153 531 
Q 2368 685 2611 1050 
z
M 634 1978 
L 1939 1978 
Q 1882 2381 1750 2547 
Q 1619 2714 1312 2714 
Q 1043 2714 864 2525 
Q 685 2336 634 1978 
z
" id="STIXGeneral-Regular-65" transform="scale(0.015625)"/>
        <path d="M 1024 2931 
L 1024 2342 
Q 1267 2688 1430 2816 
Q 1594 2944 1792 2944 
Q 1958 2944 2051 2854 
Q 2144 2765 2144 2605 
Q 2144 2470 2077 2393 
Q 2010 2317 1894 2317 
Q 1773 2317 1638 2445 
Q 1536 2541 1472 2541 
Q 1338 2541 1181 2355 
Q 1024 2170 1024 2016 
L 1024 576 
Q 1024 301 1133 205 
Q 1242 109 1568 96 
L 1568 0 
L 32 0 
L 32 96 
Q 339 154 412 224 
Q 486 294 486 538 
L 486 2138 
Q 486 2349 438 2435 
Q 390 2522 269 2522 
Q 166 2522 45 2496 
L 45 2598 
Q 448 2726 992 2944 
L 1024 2931 
z
" id="STIXGeneral-Regular-72" transform="scale(0.015625)"/>
       </defs>
       <use xlink:href="#STIXGeneral-Regular-44"/>
       <use x="72.199982" xlink:href="#STIXGeneral-Regular-69"/>
       <use x="99.999969" xlink:href="#STIXGeneral-Regular-6e"/>
       <use x="149.999954" xlink:href="#STIXGeneral-Regular-6e"/>
       <use x="199.999939" xlink:href="#STIXGeneral-Regular-65"/>
       <use x="244.399933" xlink:href="#STIXGeneral-Regular-72"/>
      </g>
     </g>
    </g>
    <g id="xtick_2">
     <g id="line2d_2">
      <g>
       <use style="fill:#323034;stroke:#323034;stroke-width:0.8;" x="300.4" xlink:href="#mcf422619d0" y="228.737812"/>
      </g>
     </g>
     <g id="text_2">
      <!-- Lunch -->
      <g style="fill:#323034;" transform="translate(285.07 243.933437)scale(0.12 -0.12)">
       <defs>
        <path d="M 3827 1114 
L 3520 0 
L 77 0 
L 77 122 
Q 429 141 531 256 
Q 634 371 634 736 
L 634 3494 
Q 634 3872 541 3981 
Q 448 4090 77 4115 
L 77 4237 
L 1888 4237 
L 1888 4115 
Q 1498 4090 1392 3984 
Q 1286 3878 1286 3507 
L 1286 538 
Q 1286 358 1398 304 
Q 1510 250 1862 250 
L 2310 250 
Q 3085 250 3392 640 
Q 3520 813 3661 1114 
L 3827 1114 
z
" id="STIXGeneral-Regular-4c" transform="scale(0.015625)"/>
        <path d="M 3072 320 
L 3072 230 
Q 2573 96 2195 -58 
L 2163 -38 
L 2163 486 
L 2150 486 
Q 1747 -64 1235 -64 
Q 870 -64 662 160 
Q 454 384 454 755 
L 454 2362 
Q 454 2598 371 2688 
Q 288 2778 58 2790 
L 58 2880 
L 992 2880 
L 992 813 
Q 992 595 1123 451 
Q 1254 307 1446 307 
Q 1760 307 1984 506 
Q 2067 582 2099 649 
Q 2131 717 2131 877 
L 2131 2355 
Q 2131 2605 2041 2678 
Q 1952 2752 1658 2771 
L 1658 2880 
L 2669 2880 
L 2669 685 
Q 2669 461 2742 390 
Q 2816 320 3034 320 
L 3072 320 
z
" id="STIXGeneral-Regular-75" transform="scale(0.015625)"/>
        <path d="M 2547 998 
L 2637 941 
Q 2362 403 2112 205 
Q 1786 -64 1376 -64 
Q 845 -64 502 336 
Q 160 736 160 1357 
Q 160 2170 698 2618 
Q 1094 2944 1562 2944 
Q 1965 2944 2256 2749 
Q 2547 2554 2547 2285 
Q 2547 2176 2457 2096 
Q 2368 2016 2246 2016 
Q 2022 2016 1939 2310 
L 1901 2451 
Q 1850 2630 1773 2694 
Q 1696 2758 1523 2758 
Q 1133 2758 893 2451 
Q 653 2144 653 1645 
Q 653 1094 928 745 
Q 1203 397 1645 397 
Q 1920 397 2118 528 
Q 2317 659 2547 998 
z
" id="STIXGeneral-Regular-63" transform="scale(0.015625)"/>
        <path d="M 3117 0 
L 1760 0 
L 1760 96 
Q 2042 128 2118 224 
Q 2195 320 2195 653 
L 2195 1920 
Q 2195 2598 1722 2598 
Q 1530 2598 1370 2508 
Q 1210 2419 1005 2195 
L 1005 653 
Q 1005 320 1081 224 
Q 1158 128 1440 96 
L 1440 0 
L 58 0 
L 58 96 
Q 333 134 400 224 
Q 467 314 467 653 
L 467 3667 
Q 467 3872 406 3933 
Q 346 3994 141 3994 
Q 83 3994 64 3987 
L 64 4090 
L 237 4141 
Q 730 4288 973 4371 
L 1005 4352 
L 1005 2406 
Q 1229 2694 1446 2819 
Q 1664 2944 1946 2944 
Q 2733 2944 2733 1926 
L 2733 653 
Q 2733 320 2793 233 
Q 2854 147 3117 96 
L 3117 0 
z
" id="STIXGeneral-Regular-68" transform="scale(0.015625)"/>
       </defs>
       <use xlink:href="#STIXGeneral-Regular-4c"/>
       <use x="61.099991" xlink:href="#STIXGeneral-Regular-75"/>
       <use x="111.099976" xlink:href="#STIXGeneral-Regular-6e"/>
       <use x="161.09996" xlink:href="#STIXGeneral-Regular-63"/>
       <use x="205.499954" xlink:href="#STIXGeneral-Regular-68"/>
      </g>
     </g>
    </g>
   </g>
   <g id="matplotlib.axis_2">
    <g id="ytick_1">
     <g id="line2d_3">
      <defs>
       <path d="M 0 0 
L -3.5 0 
" id="m469f4ff0ba" style="stroke:#323034;stroke-width:0.8;"/>
      </defs>
      <g>
       <use style="fill:#323034;stroke:#323034;stroke-width:0.8;" x="40" xlink:href="#m469f4ff0ba" y="228.737812"/>
      </g>
     </g>
     <g id="text_3">
      <!-- $\mathdefault{0}$ -->
      <g style="fill:#323034;" transform="translate(27 232.835625)scale(0.12 -0.12)">
       <defs>
        <path d="M 3046 2112 
Q 3046 1683 2963 1302 
Q 2880 922 2717 602 
Q 2554 282 2266 96 
Q 1978 -90 1600 -90 
Q 1210 -90 915 108 
Q 621 307 461 640 
Q 301 973 227 1350 
Q 154 1728 154 2150 
Q 154 2746 301 3222 
Q 448 3699 790 4012 
Q 1133 4326 1626 4326 
Q 2253 4326 2649 3712 
Q 3046 3098 3046 2112 
z
M 2432 2080 
Q 2432 3091 2217 3625 
Q 2003 4160 1587 4160 
Q 1190 4160 979 3622 
Q 768 3085 768 2106 
Q 768 1120 979 598 
Q 1190 77 1600 77 
Q 2003 77 2217 598 
Q 2432 1120 2432 2080 
z
" id="STIXGeneral-Regular-30" transform="scale(0.015625)"/>
       </defs>
       <use transform="translate(0 0.40625)" xlink:href="#STIXGeneral-Regular-30"/>
      </g>
     </g>
    </g>
    <g id="ytick_2">
     <g id="line2d_4">
      <g>
       <use style="fill:#323034;stroke:#323034;stroke-width:0.8;" x="40" xlink:href="#m469f4ff0ba" y="192.497812"/>
      </g>
     </g>
     <g id="text_4">
      <!-- $\mathdefault{2}$ -->
      <g style="fill:#323034;" transform="translate(27 196.595625)scale(0.12 -0.12)">
       <defs>
        <path d="M 3034 877 
L 2688 0 
L 186 0 
L 186 77 
L 1325 1286 
Q 1773 1754 1965 2144 
Q 2157 2534 2157 2950 
Q 2157 3379 1920 3616 
Q 1683 3853 1267 3853 
Q 922 3853 720 3673 
Q 518 3494 326 3021 
L 192 3053 
Q 301 3648 630 3987 
Q 960 4326 1523 4326 
Q 2054 4326 2380 4006 
Q 2707 3686 2707 3200 
Q 2707 2477 1888 1613 
L 832 486 
L 2330 486 
Q 2541 486 2665 569 
Q 2790 653 2944 915 
L 3034 877 
z
" id="STIXGeneral-Regular-32" transform="scale(0.015625)"/>
       </defs>
       <use transform="translate(0 0.40625)" xlink:href="#STIXGeneral-Regular-32"/>
      </g>
     </g>
    </g>
    <g id="ytick_3">
     <g id="line2d_5">
      <g>
       <use style="fill:#323034;stroke:#323034;stroke-width:0.8;" x="40" xlink:href="#m469f4ff0ba" y="156.257812"/>
      </g>
     </g>
     <g id="text_5">
      <!-- $\mathdefault{4}$ -->
      <g style="fill:#323034;" transform="translate(27 160.355625)scale(0.12 -0.12)">
       <defs>
        <path d="M 3027 1069 
L 2368 1069 
L 2368 0 
L 1869 0 
L 1869 1069 
L 77 1069 
L 77 1478 
L 2086 4326 
L 2368 4326 
L 2368 1478 
L 3027 1478 
L 3027 1069 
z
M 1869 1478 
L 1869 3674 
L 333 1478 
L 1869 1478 
z
" id="STIXGeneral-Regular-34" transform="scale(0.015625)"/>
       </defs>
       <use transform="translate(0 0.40625)" xlink:href="#STIXGeneral-Regular-34"/>
      </g>
     </g>
    </g>
    <g id="ytick_4">
     <g id="line2d_6">
      <g>
       <use style="fill:#323034;stroke:#323034;stroke-width:0.8;" x="40" xlink:href="#m469f4ff0ba" y="120.017812"/>
      </g>
     </g>
     <g id="text_6">
      <!-- $\mathdefault{6}$ -->
      <g style="fill:#323034;" transform="translate(27 124.115625)scale(0.12 -0.12)">
       <defs>
        <path d="M 2854 4378 
L 2867 4275 
Q 2112 4154 1606 3664 
Q 1101 3174 973 2451 
Q 1344 2739 1786 2739 
Q 2349 2739 2672 2380 
Q 2995 2022 2995 1402 
Q 2995 774 2669 378 
Q 2291 -90 1651 -90 
Q 870 -90 518 557 
Q 218 1107 218 1786 
Q 218 2835 915 3552 
Q 1312 3962 1731 4131 
Q 2150 4301 2854 4378 
z
M 2419 1203 
Q 2419 2445 1555 2445 
Q 1235 2445 1024 2275 
Q 813 2106 813 1702 
Q 813 954 1046 522 
Q 1280 90 1722 90 
Q 2061 90 2240 394 
Q 2419 698 2419 1203 
z
" id="STIXGeneral-Regular-36" transform="scale(0.015625)"/>
       </defs>
       <use transform="translate(0 0.59375)" xlink:href="#STIXGeneral-Regular-36"/>
      </g>
     </g>
    </g>
    <g id="ytick_5">
     <g id="line2d_7">
      <g>
       <use style="fill:#323034;stroke:#323034;stroke-width:0.8;" x="40" xlink:href="#m469f4ff0ba" y="83.777812"/>
      </g>
     </g>
     <g id="text_7">
      <!-- $\mathdefault{8}$ -->
      <g style="fill:#323034;" transform="translate(27 87.875625)scale(0.12 -0.12)">
       <defs>
        <path d="M 2848 992 
Q 2848 499 2505 204 
Q 2163 -90 1587 -90 
Q 1050 -90 704 204 
Q 358 499 358 954 
Q 358 1293 524 1533 
Q 691 1773 1190 2125 
Q 710 2522 553 2765 
Q 397 3008 397 3328 
Q 397 3782 745 4054 
Q 1094 4326 1638 4326 
Q 2106 4326 2410 4060 
Q 2714 3795 2714 3411 
Q 2714 3059 2531 2848 
Q 2349 2637 1856 2374 
Q 2432 1990 2640 1689 
Q 2848 1389 2848 992 
z
M 2272 3411 
Q 2272 3744 2086 3945 
Q 1901 4147 1574 4147 
Q 1248 4147 1059 3977 
Q 870 3808 870 3513 
Q 870 3219 1059 2979 
Q 1248 2739 1670 2490 
Q 1997 2682 2134 2896 
Q 2272 3110 2272 3411 
z
M 1734 1741 
L 1357 1997 
Q 1075 1766 960 1545 
Q 845 1325 845 1011 
Q 845 576 1065 333 
Q 1286 90 1658 90 
Q 1971 90 2166 285 
Q 2362 480 2362 794 
Q 2362 1082 2214 1299 
Q 2067 1517 1734 1741 
z
" id="STIXGeneral-Regular-38" transform="scale(0.015625)"/>
       </defs>
       <use transform="translate(0 0.40625)" xlink:href="#STIXGeneral-Regular-38"/>
      </g>
     </g>
    </g>
    <g id="ytick_6">
     <g id="line2d_8">
      <g>
       <use style="fill:#323034;stroke:#323034;stroke-width:0.8;" x="40" xlink:href="#m469f4ff0ba" y="47.537812"/>
      </g>
     </g>
     <g id="text_8">
      <!-- $\mathdefault{10}$ -->
      <g style="fill:#323034;" transform="translate(21 51.635625)scale(0.12 -0.12)">
       <defs>
        <path d="M 2522 0 
L 755 0 
L 755 96 
Q 1107 115 1235 227 
Q 1363 339 1363 608 
L 1363 3482 
Q 1363 3795 1171 3795 
Q 1082 3795 883 3718 
L 710 3654 
L 710 3744 
L 1856 4326 
L 1914 4307 
L 1914 486 
Q 1914 275 2042 185 
Q 2170 96 2522 96 
L 2522 0 
z
" id="STIXGeneral-Regular-31" transform="scale(0.015625)"/>
       </defs>
       <use transform="translate(0 0.40625)" xlink:href="#STIXGeneral-Regular-31"/>
       <use transform="translate(49.999985 0.40625)" xlink:href="#STIXGeneral-Regular-30"/>
      </g>
     </g>
    </g>
    <g id="ytick_7">
     <g id="line2d_9">
      <g>
       <use style="fill:#323034;stroke:#323034;stroke-width:0.8;" x="40" xlink:href="#m469f4ff0ba" y="11.297812"/>
      </g>
     </g>
     <g id="text_9">
      <!-- $\mathdefault{12}$ -->
      <g style="fill:#323034;" transform="translate(21 15.395625)scale(0.12 -0.12)">
       <use transform="translate(0 0.40625)" xlink:href="#STIXGeneral-Regular-31"/>
       <use transform="translate(49.999985 0.40625)" xlink:href="#STIXGeneral-Regular-32"/>
      </g>
     </g>
    </g>
    <g id="text_10">
     <!-- Tip -->
     <g transform="translate(15.395625 128.35125)rotate(-90)scale(0.12 -0.12)">
      <defs>
       <path d="M 3795 3149 
L 3642 3149 
Q 3539 3674 3353 3821 
Q 3168 3968 2656 3968 
L 2278 3968 
L 2278 710 
Q 2278 346 2387 243 
Q 2496 141 2893 122 
L 2893 0 
L 1024 0 
L 1024 122 
Q 1427 147 1526 256 
Q 1626 365 1626 787 
L 1626 3968 
L 1242 3968 
Q 723 3968 540 3817 
Q 358 3667 262 3149 
L 109 3149 
L 154 4237 
L 3750 4237 
L 3795 3149 
z
" id="STIXGeneral-Regular-54" transform="scale(0.015625)"/>
       <path d="M 1018 2931 
L 1018 2438 
Q 1421 2944 1939 2944 
Q 2406 2944 2707 2560 
Q 3008 2176 3008 1581 
Q 3008 883 2621 409 
Q 2234 -64 1664 -64 
Q 1466 -64 1328 -6 
Q 1190 51 1018 211 
L 1018 -794 
Q 1018 -1094 1120 -1180 
Q 1222 -1267 1581 -1274 
L 1581 -1389 
L 32 -1389 
L 32 -1280 
Q 314 -1254 397 -1171 
Q 480 -1088 480 -838 
L 480 2157 
Q 480 2381 429 2451 
Q 378 2522 218 2522 
Q 115 2522 58 2515 
L 58 2618 
Q 506 2752 979 2944 
L 1018 2931 
z
M 1018 2138 
L 1018 563 
Q 1018 422 1238 281 
Q 1459 141 1683 141 
Q 2029 141 2243 467 
Q 2458 794 2458 1325 
Q 2458 1888 2243 2224 
Q 2029 2560 1670 2560 
Q 1446 2560 1232 2419 
Q 1018 2278 1018 2138 
z
" id="STIXGeneral-Regular-70" transform="scale(0.015625)"/>
      </defs>
      <use xlink:href="#STIXGeneral-Regular-54"/>
      <use x="61.099991" xlink:href="#STIXGeneral-Regular-69"/>
      <use x="88.899979" xlink:href="#STIXGeneral-Regular-70"/>
     </g>
    </g>
   </g>
   <g id="LineCollection_1">
    <path clip-path="url(#p6d74c79efc)" d="M 91.15 47.537812 
L 137.65 47.537812 
" style="fill:none;stroke:#bc80bd;stroke-width:2;"/>
   </g>
   <g id="LineCollection_2">
    <path clip-path="url(#p6d74c79efc)" d="M 91.15 210.617812 
L 137.65 210.617812 
" style="fill:none;stroke:#bc80bd;stroke-width:2;"/>
   </g>
   <g id="LineCollection_3">
    <path clip-path="url(#p6d74c79efc)" d="M 114.4 210.617812 
L 114.4 47.537812 
" style="fill:none;stroke:#bc80bd;stroke-width:2;"/>
   </g>
   <g id="LineCollection_4">
    <path clip-path="url(#p6d74c79efc)" d="M 277.15 107.333812 
L 323.65 107.333812 
" style="fill:none;stroke:#fb8072;stroke-width:2;"/>
   </g>
   <g id="LineCollection_5">
    <path clip-path="url(#p6d74c79efc)" d="M 277.15 206.087812 
L 323.65 206.087812 
" style="fill:none;stroke:#fb8072;stroke-width:2;"/>
   </g>
   <g id="LineCollection_6">
    <path clip-path="url(#p6d74c79efc)" d="M 300.4 206.087812 
L 300.4 107.333812 
" style="fill:none;stroke:#fb8072;stroke-width:2;"/>
   </g>
   <g id="patch_3">
    <path d="M 40 228.737812 
L 40 11.297812 
" style="fill:none;stroke:#000000;stroke-linecap:square;stroke-linejoin:miter;stroke-width:0.6;"/>
   </g>
   <g id="patch_4">
    <path d="M 40 228.737812 
L 374.8 228.737812 
" style="fill:none;stroke:#000000;stroke-linecap:square;stroke-linejoin:miter;stroke-width:0.6;"/>
   </g>
  </g>
 </g>
 <defs>
  <clipPath id="p6d74c79efc">
   <rect height="217.44" width="334.8" x="40" y="11.297812"/>
  </clipPath>
 </defs>
</svg>
