<?xml version="1.0" encoding="utf-8" standalone="no"?>
<!DOCTYPE svg PUBLIC "-//W3C//DTD SVG 1.1//EN"
  "http://www.w3.org/Graphics/SVG/1.1/DTD/svg11.dtd">
<svg height="267.537812pt" version="1.1" viewBox="0 0 384.28 267.537812" width="384.28pt" xmlns="http://www.w3.org/2000/svg" xmlns:xlink="http://www.w3.org/1999/xlink">
 <metadata>
  <rdf:RDF xmlns:cc="http://creativecommons.org/ns#" xmlns:dc="http://purl.org/dc/elements/1.1/" xmlns:rdf="http://www.w3.org/1999/02/22-rdf-syntax-ns#">
   <cc:Work>
    <dc:type rdf:resource="http://purl.org/dc/dcmitype/StillImage"/>
    <dc:date>2022-08-20T18:02:01.155923</dc:date>
    <dc:format>image/svg+xml</dc:format>
    <dc:creator>
     <cc:Agent>
      <dc:title>Matplotlib v3.4.3, https://matplotlib.org/</dc:title>
     </cc:Agent>
    </dc:creator>
   </cc:Work>
  </rdf:RDF>
 </metadata>
 <defs>
  <style type="text/css">*{stroke-linecap:butt;stroke-linejoin:round;}</style>
 </defs>
 <g id="figure_1">
  <g id="patch_1">
   <path d="M 0 267.537812 
L 384.28 267.537812 
L 384.28 0 
L 0 0 
z
" style="fill:none;"/>
  </g>
  <g id="axes_1">
   <g id="patch_2">
    <path d="M 42.28 228.737812 
L 377.08 228.737812 
L 377.08 11.297812 
L 42.28 11.297812 
z
" style="fill:#ffffff;"/>
   </g>
   <g id="PolyCollection_1">
    <defs>
     <path d="M 127.222354 -73.176207 
L 124.737646 -73.176207 
L 124.214176 -74.356491 
L 123.51501 -75.536776 
L 122.599722 -76.71706 
L 121.425206 -77.897345 
L 119.947757 -79.077629 
L 118.12581 -80.257913 
L 115.923239 -81.438198 
L 113.313053 -82.618482 
L 110.281236 -83.798767 
L 106.830415 -84.979051 
L 102.983018 -86.159335 
L 98.783545 -87.33962 
L 94.299614 -88.519904 
L 89.621472 -89.700189 
L 84.859764 -90.880473 
L 80.141474 -92.060758 
L 75.604091 -93.241042 
L 71.388271 -94.421326 
L 67.629439 -95.601611 
L 64.448994 -96.781895 
L 61.945917 -97.96218 
L 60.189637 -99.142464 
L 59.215004 -100.322749 
L 59.02 -101.503033 
L 59.56657 -102.683317 
L 60.784547 -103.863602 
L 62.578255 -105.043886 
L 64.835023 -106.224171 
L 67.434566 -107.404455 
L 70.258129 -108.584739 
L 73.196365 -109.765024 
L 76.155148 -110.945308 
L 79.058931 -112.125593 
L 81.851601 -113.305877 
L 84.495198 -114.486162 
L 86.96712 -115.666446 
L 89.256561 -116.84673 
L 91.360951 -118.027015 
L 93.282966 -119.207299 
L 95.028504 -120.387584 
L 96.605693 -121.567868 
L 98.024768 -122.748153 
L 99.298467 -123.928437 
L 100.442495 -125.108721 
L 101.475623 -126.289006 
L 102.419147 -127.46929 
L 103.295579 -128.649575 
L 104.126714 -129.829859 
L 104.931379 -131.010144 
L 105.723324 -132.190428 
L 106.509713 -133.370712 
L 107.290619 -134.550997 
L 108.059708 -135.731281 
L 108.806087 -136.911566 
L 109.517014 -138.09185 
L 110.180994 -139.272134 
L 110.790681 -140.452419 
L 111.345017 -141.632703 
L 111.850201 -142.812988 
L 112.319282 -143.993272 
L 112.770477 -145.173557 
L 113.224513 -146.353841 
L 113.701517 -147.534125 
L 114.218 -148.71441 
L 114.784471 -149.894694 
L 115.404043 -151.074979 
L 116.072199 -152.255263 
L 116.777656 -153.435548 
L 117.50409 -154.615832 
L 118.23236 -155.796116 
L 118.942833 -156.976401 
L 119.617466 -158.156685 
L 120.241398 -159.33697 
L 120.803942 -160.517254 
L 121.298971 -161.697538 
L 121.724802 -162.877823 
L 122.083719 -164.058107 
L 122.381277 -165.238392 
L 122.625512 -166.418676 
L 122.82614 -167.598961 
L 122.993771 -168.779245 
L 123.13917 -169.959529 
L 123.272563 -171.139814 
L 123.403006 -172.320098 
L 123.537848 -173.500383 
L 123.682323 -174.680667 
L 123.839331 -175.860952 
L 124.009411 -177.041236 
L 124.190953 -178.22152 
L 124.380582 -179.401805 
L 124.573712 -180.582089 
L 124.765151 -181.762374 
L 124.949717 -182.942658 
L 125.122767 -184.122942 
L 125.280596 -185.303227 
L 125.420668 -186.483511 
L 125.541685 -187.663796 
L 125.643513 -188.84408 
L 125.726993 -190.024365 
L 126.233007 -190.024365 
L 126.233007 -190.024365 
L 126.316487 -188.84408 
L 126.418315 -187.663796 
L 126.539332 -186.483511 
L 126.679404 -185.303227 
L 126.837233 -184.122942 
L 127.010283 -182.942658 
L 127.194849 -181.762374 
L 127.386288 -180.582089 
L 127.579418 -179.401805 
L 127.769047 -178.22152 
L 127.950589 -177.041236 
L 128.120669 -175.860952 
L 128.277677 -174.680667 
L 128.422152 -173.500383 
L 128.556994 -172.320098 
L 128.687437 -171.139814 
L 128.82083 -169.959529 
L 128.966229 -168.779245 
L 129.13386 -167.598961 
L 129.334488 -166.418676 
L 129.578723 -165.238392 
L 129.876281 -164.058107 
L 130.235198 -162.877823 
L 130.661029 -161.697538 
L 131.156058 -160.517254 
L 131.718602 -159.33697 
L 132.342534 -158.156685 
L 133.017167 -156.976401 
L 133.72764 -155.796116 
L 134.45591 -154.615832 
L 135.182344 -153.435548 
L 135.887801 -152.255263 
L 136.555957 -151.074979 
L 137.175529 -149.894694 
L 137.742 -148.71441 
L 138.258483 -147.534125 
L 138.735487 -146.353841 
L 139.189523 -145.173557 
L 139.640718 -143.993272 
L 140.109799 -142.812988 
L 140.614983 -141.632703 
L 141.169319 -140.452419 
L 141.779006 -139.272134 
L 142.442986 -138.09185 
L 143.153913 -136.911566 
L 143.900292 -135.731281 
L 144.669381 -134.550997 
L 145.450287 -133.370712 
L 146.236676 -132.190428 
L 147.028621 -131.010144 
L 147.833286 -129.829859 
L 148.664421 -128.649575 
L 149.540853 -127.46929 
L 150.484377 -126.289006 
L 151.517505 -125.108721 
L 152.661533 -123.928437 
L 153.935232 -122.748153 
L 155.354307 -121.567868 
L 156.931496 -120.387584 
L 158.677034 -119.207299 
L 160.599049 -118.027015 
L 162.703439 -116.84673 
L 164.99288 -115.666446 
L 167.464802 -114.486162 
L 170.108399 -113.305877 
L 172.901069 -112.125593 
L 175.804852 -110.945308 
L 178.763635 -109.765024 
L 181.701871 -108.584739 
L 184.525434 -107.404455 
L 187.124977 -106.224171 
L 189.381745 -105.043886 
L 191.175453 -103.863602 
L 192.39343 -102.683317 
L 192.94 -101.503033 
L 192.744996 -100.322749 
L 191.770363 -99.142464 
L 190.014083 -97.96218 
L 187.511006 -96.781895 
L 184.330561 -95.601611 
L 180.571729 -94.421326 
L 176.355909 -93.241042 
L 171.818526 -92.060758 
L 167.100236 -90.880473 
L 162.338528 -89.700189 
L 157.660386 -88.519904 
L 153.176455 -87.33962 
L 148.976982 -86.159335 
L 145.129585 -84.979051 
L 141.678764 -83.798767 
L 138.646947 -82.618482 
L 136.036761 -81.438198 
L 133.83419 -80.257913 
L 132.012243 -79.077629 
L 130.534794 -77.897345 
L 129.360278 -76.71706 
L 128.44499 -75.536776 
L 127.745824 -74.356491 
L 127.222354 -73.176207 
z
" id="mbe960e7951" style="stroke:#5f5f5f;stroke-width:2;"/>
    </defs>
    <g clip-path="url(#pae94ae1547)">
     <use style="fill:#b588b5;stroke:#5f5f5f;stroke-width:2;" x="0" xlink:href="#mbe960e7951" y="267.537812"/>
    </g>
   </g>
   <g id="PolyCollection_2">
    <defs>
     <path d="M 294.184974 -69.531965 
L 292.575026 -69.531965 
L 292.089254 -71.264364 
L 291.389169 -72.996763 
L 290.421993 -74.729162 
L 289.139102 -76.461561 
L 287.502188 -78.19396 
L 285.488687 -79.926359 
L 283.095455 -81.658758 
L 280.340353 -83.391157 
L 277.262167 -85.123556 
L 273.91984 -86.855955 
L 270.391853 -88.588354 
L 266.775704 -90.320753 
L 263.18615 -92.053152 
L 259.7499 -93.785551 
L 256.594699 -95.517949 
L 253.832468 -97.250348 
L 251.539162 -98.982747 
L 249.736958 -100.715146 
L 248.38577 -102.447545 
L 247.389753 -104.179944 
L 246.620233 -105.912343 
L 245.950691 -107.644742 
L 245.294355 -109.377141 
L 244.63277 -111.10954 
L 244.02576 -112.841939 
L 243.598884 -114.574338 
L 243.511863 -116.306737 
L 243.917542 -118.039136 
L 244.923622 -119.771535 
L 246.567608 -121.503934 
L 248.810264 -123.236333 
L 251.546552 -124.968732 
L 254.628005 -126.701131 
L 257.888497 -128.43353 
L 261.166572 -130.165929 
L 264.320815 -131.898328 
L 267.238323 -133.630727 
L 269.838675 -135.363126 
L 272.076036 -137.095525 
L 273.940622 -138.827924 
L 275.458739 -140.560323 
L 276.689346 -142.292722 
L 277.715356 -144.025121 
L 278.62967 -145.75752 
L 279.518286 -147.489919 
L 280.444645 -149.222318 
L 281.439499 -150.954717 
L 282.499049 -152.687116 
L 283.5914 -154.419515 
L 284.668786 -156.151914 
L 285.681543 -157.884313 
L 286.589956 -159.616712 
L 287.371434 -161.349111 
L 288.022383 -163.08151 
L 288.55565 -164.813909 
L 288.995185 -166.546308 
L 289.369644 -168.278707 
L 289.7063 -170.011106 
L 290.026261 -171.743505 
L 290.341665 -173.475904 
L 290.655202 -175.208303 
L 290.961891 -176.940702 
L 291.252519 -178.673101 
L 291.517685 -180.405499 
L 291.751194 -182.137898 
L 291.951818 -183.870297 
L 292.123015 -185.602696 
L 292.270953 -187.335095 
L 292.401753 -189.067494 
L 292.51904 -190.799893 
L 292.62268 -192.532292 
L 292.709051 -194.264691 
L 292.772654 -195.99709 
L 292.808418 -197.729489 
L 292.813927 -199.461888 
L 292.790862 -201.194287 
L 292.74523 -202.926686 
L 292.686321 -204.659085 
L 292.624686 -206.391484 
L 292.569745 -208.123883 
L 292.527739 -209.856282 
L 292.500676 -211.588681 
L 292.486634 -213.32108 
L 292.481305 -215.053479 
L 292.48024 -216.785878 
L 292.480976 -218.518277 
L 292.484267 -220.250676 
L 292.493975 -221.983075 
L 292.515693 -223.715474 
L 292.554665 -225.447873 
L 292.613758 -227.180272 
L 292.692249 -228.912671 
L 292.785757 -230.64507 
L 292.887258 -232.377469 
L 292.988746 -234.109868 
L 293.082942 -235.842267 
L 293.164556 -237.574666 
L 293.230839 -239.307065 
L 293.281459 -241.039464 
L 293.478541 -241.039464 
L 293.478541 -241.039464 
L 293.529161 -239.307065 
L 293.595444 -237.574666 
L 293.677058 -235.842267 
L 293.771254 -234.109868 
L 293.872742 -232.377469 
L 293.974243 -230.64507 
L 294.067751 -228.912671 
L 294.146242 -227.180272 
L 294.205335 -225.447873 
L 294.244307 -223.715474 
L 294.266025 -221.983075 
L 294.275733 -220.250676 
L 294.279024 -218.518277 
L 294.27976 -216.785878 
L 294.278695 -215.053479 
L 294.273366 -213.32108 
L 294.259324 -211.588681 
L 294.232261 -209.856282 
L 294.190255 -208.123883 
L 294.135314 -206.391484 
L 294.073679 -204.659085 
L 294.01477 -202.926686 
L 293.969138 -201.194287 
L 293.946073 -199.461888 
L 293.951582 -197.729489 
L 293.987346 -195.99709 
L 294.050949 -194.264691 
L 294.13732 -192.532292 
L 294.24096 -190.799893 
L 294.358247 -189.067494 
L 294.489047 -187.335095 
L 294.636985 -185.602696 
L 294.808182 -183.870297 
L 295.008806 -182.137898 
L 295.242315 -180.405499 
L 295.507481 -178.673101 
L 295.798109 -176.940702 
L 296.104798 -175.208303 
L 296.418335 -173.475904 
L 296.733739 -171.743505 
L 297.0537 -170.011106 
L 297.390356 -168.278707 
L 297.764815 -166.546308 
L 298.20435 -164.813909 
L 298.737617 -163.08151 
L 299.388566 -161.349111 
L 300.170044 -159.616712 
L 301.078457 -157.884313 
L 302.091214 -156.151914 
L 303.1686 -154.419515 
L 304.260951 -152.687116 
L 305.320501 -150.954717 
L 306.315355 -149.222318 
L 307.241714 -147.489919 
L 308.13033 -145.75752 
L 309.044644 -144.025121 
L 310.070654 -142.292722 
L 311.301261 -140.560323 
L 312.819378 -138.827924 
L 314.683964 -137.095525 
L 316.921325 -135.363126 
L 319.521677 -133.630727 
L 322.439185 -131.898328 
L 325.593428 -130.165929 
L 328.871503 -128.43353 
L 332.131995 -126.701131 
L 335.213448 -124.968732 
L 337.949736 -123.236333 
L 340.192392 -121.503934 
L 341.836378 -119.771535 
L 342.842458 -118.039136 
L 343.248137 -116.306737 
L 343.161116 -114.574338 
L 342.73424 -112.841939 
L 342.12723 -111.10954 
L 341.465645 -109.377141 
L 340.809309 -107.644742 
L 340.139767 -105.912343 
L 339.370247 -104.179944 
L 338.37423 -102.447545 
L 337.023042 -100.715146 
L 335.220838 -98.982747 
L 332.927532 -97.250348 
L 330.165301 -95.517949 
L 327.0101 -93.785551 
L 323.57385 -92.053152 
L 319.984296 -90.320753 
L 316.368147 -88.588354 
L 312.84016 -86.855955 
L 309.497833 -85.123556 
L 306.419647 -83.391157 
L 303.664545 -81.658758 
L 301.271313 -79.926359 
L 299.257812 -78.19396 
L 297.620898 -76.461561 
L 296.338007 -74.729162 
L 295.370831 -72.996763 
L 294.670746 -71.264364 
L 294.184974 -69.531965 
z
" id="m0908482cc1" style="stroke:#5f5f5f;stroke-width:2;"/>
    </defs>
    <g clip-path="url(#pae94ae1547)">
     <use style="fill:#ea8e83;stroke:#5f5f5f;stroke-width:2;" x="0" xlink:href="#m0908482cc1" y="267.537812"/>
    </g>
   </g>
   <g id="matplotlib.axis_1">
    <g id="xtick_1">
     <g id="line2d_1">
      <defs>
       <path d="M 0 0 
L 0 3.5 
" id="me4a1728f54" style="stroke:#323034;stroke-width:0.8;"/>
      </defs>
      <g>
       <use style="fill:#323034;stroke:#323034;stroke-width:0.8;" x="125.98" xlink:href="#me4a1728f54" y="228.737812"/>
      </g>
     </g>
     <g id="text_1">
      <!-- Lunch -->
      <g style="fill:#323034;" transform="translate(110.65 243.933437)scale(0.12 -0.12)">
       <defs>
        <path d="M 3827 1114 
L 3520 0 
L 77 0 
L 77 122 
Q 429 141 531 256 
Q 634 371 634 736 
L 634 3494 
Q 634 3872 541 3981 
Q 448 4090 77 4115 
L 77 4237 
L 1888 4237 
L 1888 4115 
Q 1498 4090 1392 3984 
Q 1286 3878 1286 3507 
L 1286 538 
Q 1286 358 1398 304 
Q 1510 250 1862 250 
L 2310 250 
Q 3085 250 3392 640 
Q 3520 813 3661 1114 
L 3827 1114 
z
" id="STIXGeneral-Regular-4c" transform="scale(0.015625)"/>
        <path d="M 3072 320 
L 3072 230 
Q 2573 96 2195 -58 
L 2163 -38 
L 2163 486 
L 2150 486 
Q 1747 -64 1235 -64 
Q 870 -64 662 160 
Q 454 384 454 755 
L 454 2362 
Q 454 2598 371 2688 
Q 288 2778 58 2790 
L 58 2880 
L 992 2880 
L 992 813 
Q 992 595 1123 451 
Q 1254 307 1446 307 
Q 1760 307 1984 506 
Q 2067 582 2099 649 
Q 2131 717 2131 877 
L 2131 2355 
Q 2131 2605 2041 2678 
Q 1952 2752 1658 2771 
L 1658 2880 
L 2669 2880 
L 2669 685 
Q 2669 461 2742 390 
Q 2816 320 3034 320 
L 3072 320 
z
" id="STIXGeneral-Regular-75" transform="scale(0.015625)"/>
        <path d="M 3104 0 
L 1773 0 
L 1779 96 
Q 2016 115 2096 233 
Q 2176 352 2176 672 
L 2176 1946 
Q 2176 2592 1709 2592 
Q 1549 2592 1408 2515 
Q 1267 2438 1050 2227 
L 1050 461 
Q 1050 269 1136 192 
Q 1222 115 1466 96 
L 1466 0 
L 115 0 
L 115 96 
Q 358 115 435 214 
Q 512 314 512 602 
L 512 2157 
Q 512 2394 467 2483 
Q 422 2573 288 2573 
Q 160 2573 102 2547 
L 102 2656 
Q 550 2784 979 2944 
L 1030 2925 
L 1030 2426 
L 1037 2426 
Q 1491 2944 1958 2944 
Q 2323 2944 2518 2688 
Q 2714 2432 2714 1958 
L 2714 544 
Q 2714 288 2790 205 
Q 2867 122 3104 96 
L 3104 0 
z
" id="STIXGeneral-Regular-6e" transform="scale(0.015625)"/>
        <path d="M 2547 998 
L 2637 941 
Q 2362 403 2112 205 
Q 1786 -64 1376 -64 
Q 845 -64 502 336 
Q 160 736 160 1357 
Q 160 2170 698 2618 
Q 1094 2944 1562 2944 
Q 1965 2944 2256 2749 
Q 2547 2554 2547 2285 
Q 2547 2176 2457 2096 
Q 2368 2016 2246 2016 
Q 2022 2016 1939 2310 
L 1901 2451 
Q 1850 2630 1773 2694 
Q 1696 2758 1523 2758 
Q 1133 2758 893 2451 
Q 653 2144 653 1645 
Q 653 1094 928 745 
Q 1203 397 1645 397 
Q 1920 397 2118 528 
Q 2317 659 2547 998 
z
" id="STIXGeneral-Regular-63" transform="scale(0.015625)"/>
        <path d="M 3117 0 
L 1760 0 
L 1760 96 
Q 2042 128 2118 224 
Q 2195 320 2195 653 
L 2195 1920 
Q 2195 2598 1722 2598 
Q 1530 2598 1370 2508 
Q 1210 2419 1005 2195 
L 1005 653 
Q 1005 320 1081 224 
Q 1158 128 1440 96 
L 1440 0 
L 58 0 
L 58 96 
Q 333 134 400 224 
Q 467 314 467 653 
L 467 3667 
Q 467 3872 406 3933 
Q 346 3994 141 3994 
Q 83 3994 64 3987 
L 64 4090 
L 237 4141 
Q 730 4288 973 4371 
L 1005 4352 
L 1005 2406 
Q 1229 2694 1446 2819 
Q 1664 2944 1946 2944 
Q 2733 2944 2733 1926 
L 2733 653 
Q 2733 320 2793 233 
Q 2854 147 3117 96 
L 3117 0 
z
" id="STIXGeneral-Regular-68" transform="scale(0.015625)"/>
       </defs>
       <use xlink:href="#STIXGeneral-Regular-4c"/>
       <use x="61.099991" xlink:href="#STIXGeneral-Regular-75"/>
       <use x="111.099976" xlink:href="#STIXGeneral-Regular-6e"/>
       <use x="161.09996" xlink:href="#STIXGeneral-Regular-63"/>
       <use x="205.499954" xlink:href="#STIXGeneral-Regular-68"/>
      </g>
     </g>
    </g>
    <g id="xtick_2">
     <g id="line2d_2">
      <g>
       <use style="fill:#323034;stroke:#323034;stroke-width:0.8;" x="293.38" xlink:href="#me4a1728f54" y="228.737812"/>
      </g>
     </g>
     <g id="text_2">
      <!-- Dinner -->
      <g style="fill:#323034;" transform="translate(276.717813 243.933437)scale(0.12 -0.12)">
       <defs>
        <path d="M 102 4237 
L 1830 4237 
Q 3078 4237 3750 3654 
Q 4384 3110 4384 2138 
Q 4384 966 3514 410 
Q 2880 0 1901 0 
L 102 0 
L 102 122 
Q 474 147 570 252 
Q 666 358 666 736 
L 666 3520 
Q 666 3891 570 3990 
Q 474 4090 102 4115 
L 102 4237 
z
M 1318 3731 
L 1318 538 
Q 1318 365 1379 301 
Q 1440 237 1626 237 
Q 2125 237 2432 307 
Q 2739 378 3021 570 
Q 3686 1018 3686 2099 
Q 3686 3027 3078 3558 
Q 2803 3802 2476 3901 
Q 2150 4000 1658 4000 
Q 1472 4000 1395 3942 
Q 1318 3885 1318 3731 
z
" id="STIXGeneral-Regular-44" transform="scale(0.015625)"/>
        <path d="M 1152 4045 
Q 1152 3904 1056 3811 
Q 960 3718 819 3718 
Q 685 3718 592 3811 
Q 499 3904 499 4045 
Q 499 4179 595 4275 
Q 691 4371 826 4371 
Q 966 4371 1059 4275 
Q 1152 4179 1152 4045 
z
M 1619 0 
L 102 0 
L 102 96 
Q 435 115 521 211 
Q 608 307 608 666 
L 608 2118 
Q 608 2342 563 2432 
Q 518 2522 397 2522 
Q 243 2522 128 2490 
L 128 2592 
L 1120 2944 
L 1146 2918 
L 1146 672 
Q 1146 314 1226 218 
Q 1306 122 1619 96 
L 1619 0 
z
" id="STIXGeneral-Regular-69" transform="scale(0.015625)"/>
        <path d="M 2611 1050 
L 2714 1005 
Q 2330 -64 1376 -64 
Q 813 -64 486 329 
Q 160 723 160 1389 
Q 160 2074 525 2509 
Q 890 2944 1485 2944 
Q 2061 2944 2374 2502 
Q 2560 2246 2592 1773 
L 621 1773 
Q 646 1370 700 1158 
Q 755 947 915 730 
Q 1184 378 1626 378 
Q 1939 378 2153 531 
Q 2368 685 2611 1050 
z
M 634 1978 
L 1939 1978 
Q 1882 2381 1750 2547 
Q 1619 2714 1312 2714 
Q 1043 2714 864 2525 
Q 685 2336 634 1978 
z
" id="STIXGeneral-Regular-65" transform="scale(0.015625)"/>
        <path d="M 1024 2931 
L 1024 2342 
Q 1267 2688 1430 2816 
Q 1594 2944 1792 2944 
Q 1958 2944 2051 2854 
Q 2144 2765 2144 2605 
Q 2144 2470 2077 2393 
Q 2010 2317 1894 2317 
Q 1773 2317 1638 2445 
Q 1536 2541 1472 2541 
Q 1338 2541 1181 2355 
Q 1024 2170 1024 2016 
L 1024 576 
Q 1024 301 1133 205 
Q 1242 109 1568 96 
L 1568 0 
L 32 0 
L 32 96 
Q 339 154 412 224 
Q 486 294 486 538 
L 486 2138 
Q 486 2349 438 2435 
Q 390 2522 269 2522 
Q 166 2522 45 2496 
L 45 2598 
Q 448 2726 992 2944 
L 1024 2931 
z
" id="STIXGeneral-Regular-72" transform="scale(0.015625)"/>
       </defs>
       <use xlink:href="#STIXGeneral-Regular-44"/>
       <use x="72.199982" xlink:href="#STIXGeneral-Regular-69"/>
       <use x="99.999969" xlink:href="#STIXGeneral-Regular-6e"/>
       <use x="149.999954" xlink:href="#STIXGeneral-Regular-6e"/>
       <use x="199.999939" xlink:href="#STIXGeneral-Regular-65"/>
       <use x="244.399933" xlink:href="#STIXGeneral-Regular-72"/>
      </g>
     </g>
    </g>
    <g id="text_3">
     <!-- time -->
     <g transform="translate(199.012188 257.733437)scale(0.12 -0.12)">
      <defs>
       <path d="M 1702 493 
L 1786 422 
Q 1478 -64 1011 -64 
Q 448 -64 448 749 
L 448 2675 
L 109 2675 
Q 83 2694 83 2720 
Q 83 2771 192 2842 
Q 435 2982 813 3526 
Q 826 3546 874 3606 
Q 922 3667 941 3706 
Q 986 3706 986 3622 
L 986 2880 
L 1632 2880 
L 1632 2675 
L 986 2675 
L 986 845 
Q 986 538 1062 403 
Q 1139 269 1318 269 
Q 1510 269 1702 493 
z
" id="STIXGeneral-Regular-74" transform="scale(0.015625)"/>
       <path d="M 4960 0 
L 3565 0 
L 3565 96 
Q 3834 122 3907 208 
Q 3981 294 3981 576 
L 3981 1894 
Q 3981 2278 3869 2444 
Q 3757 2611 3488 2611 
Q 3264 2611 3107 2521 
Q 2950 2432 2803 2221 
L 2803 608 
Q 2803 301 2896 201 
Q 2989 102 3264 96 
L 3264 0 
L 1830 0 
L 1830 96 
Q 2112 115 2189 188 
Q 2266 262 2266 550 
L 2266 1901 
Q 2266 2611 1850 2611 
Q 1670 2611 1468 2531 
Q 1267 2451 1171 2336 
Q 1088 2240 1088 2227 
L 1088 448 
Q 1088 243 1177 176 
Q 1267 109 1523 96 
L 1523 0 
L 102 0 
L 102 96 
Q 371 102 460 195 
Q 550 288 550 563 
L 550 2150 
Q 550 2387 499 2480 
Q 448 2573 326 2573 
Q 230 2573 122 2547 
L 122 2656 
Q 557 2778 1011 2944 
L 1062 2925 
L 1062 2451 
L 1075 2451 
Q 1363 2752 1584 2848 
Q 1805 2944 2054 2944 
Q 2560 2944 2733 2406 
Q 3232 2944 3776 2944 
Q 4518 2944 4518 1792 
L 4518 493 
Q 4518 282 4582 202 
Q 4646 122 4794 109 
L 4960 96 
L 4960 0 
z
" id="STIXGeneral-Regular-6d" transform="scale(0.015625)"/>
      </defs>
      <use xlink:href="#STIXGeneral-Regular-74"/>
      <use x="27.799988" xlink:href="#STIXGeneral-Regular-69"/>
      <use x="55.599976" xlink:href="#STIXGeneral-Regular-6d"/>
      <use x="133.399963" xlink:href="#STIXGeneral-Regular-65"/>
     </g>
    </g>
   </g>
   <g id="matplotlib.axis_2">
    <g id="ytick_1">
     <g id="line2d_3">
      <defs>
       <path d="M 0 0 
L -3.5 0 
" id="mdade67ba2c" style="stroke:#323034;stroke-width:0.8;"/>
      </defs>
      <g>
       <use style="fill:#323034;stroke:#323034;stroke-width:0.8;" x="42.28" xlink:href="#mdade67ba2c" y="228.737812"/>
      </g>
     </g>
     <g id="text_4">
      <!-- $\mathdefault{−2}$ -->
      <g style="fill:#323034;" transform="translate(21 232.835625)scale(0.12 -0.12)">
       <defs>
        <path d="M 3974 1408 
L 410 1408 
L 410 1830 
L 3974 1830 
L 3974 1408 
z
" id="STIXGeneral-Regular-2212" transform="scale(0.015625)"/>
        <path d="M 3034 877 
L 2688 0 
L 186 0 
L 186 77 
L 1325 1286 
Q 1773 1754 1965 2144 
Q 2157 2534 2157 2950 
Q 2157 3379 1920 3616 
Q 1683 3853 1267 3853 
Q 922 3853 720 3673 
Q 518 3494 326 3021 
L 192 3053 
Q 301 3648 630 3987 
Q 960 4326 1523 4326 
Q 2054 4326 2380 4006 
Q 2707 3686 2707 3200 
Q 2707 2477 1888 1613 
L 832 486 
L 2330 486 
Q 2541 486 2665 569 
Q 2790 653 2944 915 
L 3034 877 
z
" id="STIXGeneral-Regular-32" transform="scale(0.015625)"/>
       </defs>
       <use transform="translate(0 0.40625)" xlink:href="#STIXGeneral-Regular-2212"/>
       <use transform="translate(68.499985 0.40625)" xlink:href="#STIXGeneral-Regular-32"/>
      </g>
     </g>
    </g>
    <g id="ytick_2">
     <g id="line2d_4">
      <g>
       <use style="fill:#323034;stroke:#323034;stroke-width:0.8;" x="42.28" xlink:href="#mdade67ba2c" y="197.674955"/>
      </g>
     </g>
     <g id="text_5">
      <!-- $\mathdefault{0}$ -->
      <g style="fill:#323034;" transform="translate(29.28 201.772768)scale(0.12 -0.12)">
       <defs>
        <path d="M 3046 2112 
Q 3046 1683 2963 1302 
Q 2880 922 2717 602 
Q 2554 282 2266 96 
Q 1978 -90 1600 -90 
Q 1210 -90 915 108 
Q 621 307 461 640 
Q 301 973 227 1350 
Q 154 1728 154 2150 
Q 154 2746 301 3222 
Q 448 3699 790 4012 
Q 1133 4326 1626 4326 
Q 2253 4326 2649 3712 
Q 3046 3098 3046 2112 
z
M 2432 2080 
Q 2432 3091 2217 3625 
Q 2003 4160 1587 4160 
Q 1190 4160 979 3622 
Q 768 3085 768 2106 
Q 768 1120 979 598 
Q 1190 77 1600 77 
Q 2003 77 2217 598 
Q 2432 1120 2432 2080 
z
" id="STIXGeneral-Regular-30" transform="scale(0.015625)"/>
       </defs>
       <use transform="translate(0 0.40625)" xlink:href="#STIXGeneral-Regular-30"/>
      </g>
     </g>
    </g>
    <g id="ytick_3">
     <g id="line2d_5">
      <g>
       <use style="fill:#323034;stroke:#323034;stroke-width:0.8;" x="42.28" xlink:href="#mdade67ba2c" y="166.612098"/>
      </g>
     </g>
     <g id="text_6">
      <!-- $\mathdefault{2}$ -->
      <g style="fill:#323034;" transform="translate(29.28 170.709911)scale(0.12 -0.12)">
       <use transform="translate(0 0.40625)" xlink:href="#STIXGeneral-Regular-32"/>
      </g>
     </g>
    </g>
    <g id="ytick_4">
     <g id="line2d_6">
      <g>
       <use style="fill:#323034;stroke:#323034;stroke-width:0.8;" x="42.28" xlink:href="#mdade67ba2c" y="135.549241"/>
      </g>
     </g>
     <g id="text_7">
      <!-- $\mathdefault{4}$ -->
      <g style="fill:#323034;" transform="translate(29.28 139.647054)scale(0.12 -0.12)">
       <defs>
        <path d="M 3027 1069 
L 2368 1069 
L 2368 0 
L 1869 0 
L 1869 1069 
L 77 1069 
L 77 1478 
L 2086 4326 
L 2368 4326 
L 2368 1478 
L 3027 1478 
L 3027 1069 
z
M 1869 1478 
L 1869 3674 
L 333 1478 
L 1869 1478 
z
" id="STIXGeneral-Regular-34" transform="scale(0.015625)"/>
       </defs>
       <use transform="translate(0 0.40625)" xlink:href="#STIXGeneral-Regular-34"/>
      </g>
     </g>
    </g>
    <g id="ytick_5">
     <g id="line2d_7">
      <g>
       <use style="fill:#323034;stroke:#323034;stroke-width:0.8;" x="42.28" xlink:href="#mdade67ba2c" y="104.486384"/>
      </g>
     </g>
     <g id="text_8">
      <!-- $\mathdefault{6}$ -->
      <g style="fill:#323034;" transform="translate(29.28 108.584196)scale(0.12 -0.12)">
       <defs>
        <path d="M 2854 4378 
L 2867 4275 
Q 2112 4154 1606 3664 
Q 1101 3174 973 2451 
Q 1344 2739 1786 2739 
Q 2349 2739 2672 2380 
Q 2995 2022 2995 1402 
Q 2995 774 2669 378 
Q 2291 -90 1651 -90 
Q 870 -90 518 557 
Q 218 1107 218 1786 
Q 218 2835 915 3552 
Q 1312 3962 1731 4131 
Q 2150 4301 2854 4378 
z
M 2419 1203 
Q 2419 2445 1555 2445 
Q 1235 2445 1024 2275 
Q 813 2106 813 1702 
Q 813 954 1046 522 
Q 1280 90 1722 90 
Q 2061 90 2240 394 
Q 2419 698 2419 1203 
z
" id="STIXGeneral-Regular-36" transform="scale(0.015625)"/>
       </defs>
       <use transform="translate(0 0.59375)" xlink:href="#STIXGeneral-Regular-36"/>
      </g>
     </g>
    </g>
    <g id="ytick_6">
     <g id="line2d_8">
      <g>
       <use style="fill:#323034;stroke:#323034;stroke-width:0.8;" x="42.28" xlink:href="#mdade67ba2c" y="73.423527"/>
      </g>
     </g>
     <g id="text_9">
      <!-- $\mathdefault{8}$ -->
      <g style="fill:#323034;" transform="translate(29.28 77.521339)scale(0.12 -0.12)">
       <defs>
        <path d="M 2848 992 
Q 2848 499 2505 204 
Q 2163 -90 1587 -90 
Q 1050 -90 704 204 
Q 358 499 358 954 
Q 358 1293 524 1533 
Q 691 1773 1190 2125 
Q 710 2522 553 2765 
Q 397 3008 397 3328 
Q 397 3782 745 4054 
Q 1094 4326 1638 4326 
Q 2106 4326 2410 4060 
Q 2714 3795 2714 3411 
Q 2714 3059 2531 2848 
Q 2349 2637 1856 2374 
Q 2432 1990 2640 1689 
Q 2848 1389 2848 992 
z
M 2272 3411 
Q 2272 3744 2086 3945 
Q 1901 4147 1574 4147 
Q 1248 4147 1059 3977 
Q 870 3808 870 3513 
Q 870 3219 1059 2979 
Q 1248 2739 1670 2490 
Q 1997 2682 2134 2896 
Q 2272 3110 2272 3411 
z
M 1734 1741 
L 1357 1997 
Q 1075 1766 960 1545 
Q 845 1325 845 1011 
Q 845 576 1065 333 
Q 1286 90 1658 90 
Q 1971 90 2166 285 
Q 2362 480 2362 794 
Q 2362 1082 2214 1299 
Q 2067 1517 1734 1741 
z
" id="STIXGeneral-Regular-38" transform="scale(0.015625)"/>
       </defs>
       <use transform="translate(0 0.40625)" xlink:href="#STIXGeneral-Regular-38"/>
      </g>
     </g>
    </g>
    <g id="ytick_7">
     <g id="line2d_9">
      <g>
       <use style="fill:#323034;stroke:#323034;stroke-width:0.8;" x="42.28" xlink:href="#mdade67ba2c" y="42.36067"/>
      </g>
     </g>
     <g id="text_10">
      <!-- $\mathdefault{10}$ -->
      <g style="fill:#323034;" transform="translate(23.28 46.458482)scale(0.12 -0.12)">
       <defs>
        <path d="M 2522 0 
L 755 0 
L 755 96 
Q 1107 115 1235 227 
Q 1363 339 1363 608 
L 1363 3482 
Q 1363 3795 1171 3795 
Q 1082 3795 883 3718 
L 710 3654 
L 710 3744 
L 1856 4326 
L 1914 4307 
L 1914 486 
Q 1914 275 2042 185 
Q 2170 96 2522 96 
L 2522 0 
z
" id="STIXGeneral-Regular-31" transform="scale(0.015625)"/>
       </defs>
       <use transform="translate(0 0.40625)" xlink:href="#STIXGeneral-Regular-31"/>
       <use transform="translate(49.999985 0.40625)" xlink:href="#STIXGeneral-Regular-30"/>
      </g>
     </g>
    </g>
    <g id="ytick_8">
     <g id="line2d_10">
      <g>
       <use style="fill:#323034;stroke:#323034;stroke-width:0.8;" x="42.28" xlink:href="#mdade67ba2c" y="11.297812"/>
      </g>
     </g>
     <g id="text_11">
      <!-- $\mathdefault{12}$ -->
      <g style="fill:#323034;" transform="translate(23.28 15.395625)scale(0.12 -0.12)">
       <use transform="translate(0 0.40625)" xlink:href="#STIXGeneral-Regular-31"/>
       <use transform="translate(49.999985 0.40625)" xlink:href="#STIXGeneral-Regular-32"/>
      </g>
     </g>
    </g>
    <g id="text_12">
     <!-- tip -->
     <g transform="translate(15.395625 126.353437)rotate(-90)scale(0.12 -0.12)">
      <defs>
       <path d="M 1018 2931 
L 1018 2438 
Q 1421 2944 1939 2944 
Q 2406 2944 2707 2560 
Q 3008 2176 3008 1581 
Q 3008 883 2621 409 
Q 2234 -64 1664 -64 
Q 1466 -64 1328 -6 
Q 1190 51 1018 211 
L 1018 -794 
Q 1018 -1094 1120 -1180 
Q 1222 -1267 1581 -1274 
L 1581 -1389 
L 32 -1389 
L 32 -1280 
Q 314 -1254 397 -1171 
Q 480 -1088 480 -838 
L 480 2157 
Q 480 2381 429 2451 
Q 378 2522 218 2522 
Q 115 2522 58 2515 
L 58 2618 
Q 506 2752 979 2944 
L 1018 2931 
z
M 1018 2138 
L 1018 563 
Q 1018 422 1238 281 
Q 1459 141 1683 141 
Q 2029 141 2243 467 
Q 2458 794 2458 1325 
Q 2458 1888 2243 2224 
Q 2029 2560 1670 2560 
Q 1446 2560 1232 2419 
Q 1018 2278 1018 2138 
z
" id="STIXGeneral-Regular-70" transform="scale(0.015625)"/>
      </defs>
      <use xlink:href="#STIXGeneral-Regular-74"/>
      <use x="27.799988" xlink:href="#STIXGeneral-Regular-69"/>
      <use x="55.599976" xlink:href="#STIXGeneral-Regular-70"/>
     </g>
    </g>
   </g>
   <g id="line2d_11">
    <path clip-path="url(#pae94ae1547)" d="M 125.98 178.26067 
L 125.98 117.37747 
" style="fill:none;stroke:#5f5f5f;stroke-linecap:square;stroke-width:2;"/>
   </g>
   <g id="line2d_12">
    <path clip-path="url(#pae94ae1547)" d="M 125.98 166.612098 
L 125.98 146.615384 
" style="fill:none;stroke:#5f5f5f;stroke-linecap:square;stroke-width:6;"/>
   </g>
   <g id="line2d_13">
    <path clip-path="url(#pae94ae1547)" d="M 293.38 182.143527 
L 293.38 104.486384 
" style="fill:none;stroke:#5f5f5f;stroke-linecap:square;stroke-width:2;"/>
   </g>
   <g id="line2d_14">
    <path clip-path="url(#pae94ae1547)" d="M 293.38 166.612098 
L 293.38 140.402812 
" style="fill:none;stroke:#5f5f5f;stroke-linecap:square;stroke-width:6;"/>
   </g>
   <g id="patch_3">
    <path d="M 42.28 228.737812 
L 42.28 11.297812 
" style="fill:none;stroke:#000000;stroke-linecap:square;stroke-linejoin:miter;stroke-width:0.6;"/>
   </g>
   <g id="patch_4">
    <path d="M 42.28 228.737812 
L 377.08 228.737812 
" style="fill:none;stroke:#000000;stroke-linecap:square;stroke-linejoin:miter;stroke-width:0.6;"/>
   </g>
   <g id="PathCollection_1">
    <defs>
     <path d="M 0 2 
C 0.530406 2 1.03916 1.789267 1.414214 1.414214 
C 1.789267 1.03916 2 0.530406 2 0 
C 2 -0.530406 1.789267 -1.03916 1.414214 -1.414214 
C 1.03916 -1.789267 0.530406 -2 0 -2 
C -0.530406 -2 -1.03916 -1.789267 -1.414214 -1.414214 
C -1.789267 -1.03916 -2 -0.530406 -2 0 
C -2 0.530406 -1.789267 1.03916 -1.414214 1.414214 
C -1.03916 1.789267 -0.530406 2 0 2 
z
" id="mac7729ed30" style="stroke:#5f5f5f;stroke-width:0.8;"/>
    </defs>
    <g clip-path="url(#pae94ae1547)">
     <use style="fill:#ffffff;stroke:#5f5f5f;stroke-width:0.8;" x="125.98" xlink:href="#mac7729ed30" y="162.729241"/>
    </g>
   </g>
   <g id="PathCollection_2">
    <g clip-path="url(#pae94ae1547)">
     <use style="fill:#ffffff;stroke:#5f5f5f;stroke-width:0.8;" x="293.38" xlink:href="#mac7729ed30" y="151.08067"/>
    </g>
   </g>
  </g>
 </g>
 <defs>
  <clipPath id="pae94ae1547">
   <rect height="217.44" width="334.8" x="42.28" y="11.297812"/>
  </clipPath>
 </defs>
</svg>
