<?xml version="1.0" encoding="utf-8" standalone="no"?>
<!DOCTYPE svg PUBLIC "-//W3C//DTD SVG 1.1//EN"
  "http://www.w3.org/Graphics/SVG/1.1/DTD/svg11.dtd">
<svg xmlns:xlink="http://www.w3.org/1999/xlink" width="392.324pt" height="345.697187pt" viewBox="0 0 392.324 345.697187" xmlns="http://www.w3.org/2000/svg" version="1.1">
 <metadata>
  <rdf:RDF xmlns:dc="http://purl.org/dc/elements/1.1/" xmlns:cc="http://creativecommons.org/ns#" xmlns:rdf="http://www.w3.org/1999/02/22-rdf-syntax-ns#">
   <cc:Work>
    <dc:type rdf:resource="http://purl.org/dc/dcmitype/StillImage"/>
    <dc:date>2022-10-25T00:00:33.188161</dc:date>
    <dc:format>image/svg+xml</dc:format>
    <dc:creator>
     <cc:Agent>
      <dc:title>Matplotlib v3.5.3, https://matplotlib.org/</dc:title>
     </cc:Agent>
    </dc:creator>
   </cc:Work>
  </rdf:RDF>
 </metadata>
 <defs>
  <style type="text/css">*{stroke-linejoin: round; stroke-linecap: butt}</style>
 </defs>
 <g id="figure_1">
  <g id="patch_1">
   <path d="M 0 345.697187 
L 392.324 345.697187 
L 392.324 0 
L 0 0 
z
" style="fill: #fff1e4"/>
  </g>
  <g id="axes_1">
   <g id="patch_2">
    <path d="M 9.504 307.872 
L 366.624 307.872 
L 366.624 41.76 
L 9.504 41.76 
z
" style="fill: #fff1e4"/>
   </g>
   <g id="PolyCollection_1">
    <path d="M 26.509714 294.5664 
L 26.509714 307.872 
L 27.436456 307.872 
L 28.363198 307.872 
L 29.28994 307.872 
L 30.216682 307.872 
L 31.143424 307.872 
L 32.070166 307.872 
L 32.996908 307.872 
L 33.92365 307.872 
L 34.850392 307.872 
L 35.777134 307.872 
L 36.703875 307.872 
L 37.630617 307.872 
L 38.557359 307.872 
L 39.484101 307.872 
L 40.410843 307.872 
L 41.337585 307.872 
L 42.264327 307.872 
L 43.191069 307.872 
L 44.117811 307.872 
L 45.044553 307.872 
L 45.971295 307.872 
L 46.898037 307.872 
L 47.824779 307.872 
L 48.75152 307.872 
L 49.678262 307.872 
L 50.605004 307.872 
L 51.531746 307.872 
L 52.458488 307.872 
L 53.38523 307.872 
L 54.311972 307.872 
L 55.238714 307.872 
L 56.165456 307.872 
L 57.092198 307.872 
L 58.01894 307.872 
L 58.945682 307.872 
L 59.872424 307.872 
L 60.799165 307.872 
L 61.725907 307.872 
L 62.652649 307.872 
L 63.579391 307.872 
L 64.506133 307.872 
L 65.432875 307.872 
L 66.359617 307.872 
L 67.286359 307.872 
L 68.213101 307.872 
L 69.139843 307.872 
L 70.066585 307.872 
L 70.993327 307.872 
L 71.920069 307.872 
L 72.84681 307.872 
L 73.773552 307.872 
L 74.700294 307.872 
L 75.627036 307.872 
L 76.553778 307.872 
L 77.48052 307.872 
L 78.407262 307.872 
L 79.334004 307.872 
L 80.260746 307.872 
L 81.187488 307.872 
L 82.11423 307.872 
L 83.040972 307.872 
L 83.967714 307.872 
L 84.894455 307.872 
L 85.821197 307.872 
L 86.747939 307.872 
L 87.674681 307.872 
L 88.601423 307.872 
L 89.528165 307.872 
L 90.454907 307.872 
L 91.381649 307.872 
L 92.308391 307.872 
L 93.235133 307.872 
L 94.161875 307.872 
L 95.088617 307.872 
L 96.015359 307.872 
L 96.9421 307.872 
L 97.868842 307.872 
L 98.795584 307.872 
L 99.722326 307.872 
L 100.649068 307.872 
L 101.57581 307.872 
L 102.502552 307.872 
L 103.429294 307.872 
L 104.356036 307.872 
L 105.282778 307.872 
L 106.20952 307.872 
L 107.136262 307.872 
L 108.063004 307.872 
L 108.989745 307.872 
L 109.916487 307.872 
L 110.843229 307.872 
L 111.769971 307.872 
L 112.696713 307.872 
L 113.623455 307.872 
L 114.550197 307.872 
L 115.476939 307.872 
L 116.403681 307.872 
L 117.330423 307.872 
L 118.257165 307.872 
L 119.183907 307.872 
L 120.110649 307.872 
L 121.03739 307.872 
L 121.964132 307.872 
L 122.890874 307.872 
L 123.817616 307.872 
L 124.744358 307.872 
L 125.6711 307.872 
L 126.597842 307.872 
L 127.524584 307.872 
L 128.451326 307.872 
L 129.378068 307.872 
L 130.30481 307.872 
L 131.231552 307.872 
L 132.158293 307.872 
L 133.085035 307.872 
L 134.011777 307.872 
L 134.938519 307.872 
L 135.865261 307.872 
L 136.792003 307.872 
L 137.718745 307.872 
L 138.645487 307.872 
L 139.572229 307.872 
L 140.498971 307.872 
L 141.425713 307.872 
L 142.352455 307.872 
L 143.279197 307.872 
L 144.205938 307.872 
L 145.13268 307.872 
L 146.059422 307.872 
L 146.986164 307.872 
L 147.912906 307.872 
L 148.839648 307.872 
L 149.76639 307.872 
L 150.693132 307.872 
L 151.619874 307.872 
L 152.546616 307.872 
L 153.473358 307.872 
L 154.4001 307.872 
L 155.326842 307.872 
L 156.253583 307.872 
L 157.180325 307.872 
L 158.107067 307.872 
L 159.033809 307.872 
L 159.960551 307.872 
L 160.887293 307.872 
L 161.814035 307.872 
L 162.740777 307.872 
L 163.667519 307.872 
L 164.594261 307.872 
L 165.521003 307.872 
L 166.447745 307.872 
L 167.374487 307.872 
L 168.301228 307.872 
L 169.22797 307.872 
L 170.154712 307.872 
L 171.081454 307.872 
L 172.008196 307.872 
L 172.934938 307.872 
L 173.86168 307.872 
L 174.788422 307.872 
L 175.715164 307.872 
L 176.641906 307.872 
L 177.568648 307.872 
L 178.49539 307.872 
L 179.422132 307.872 
L 180.348873 307.872 
L 181.275615 307.872 
L 182.202357 307.872 
L 183.129099 307.872 
L 184.055841 307.872 
L 184.982583 307.872 
L 185.909325 307.872 
L 186.836067 307.872 
L 187.762809 307.872 
L 188.689551 307.872 
L 189.616293 307.872 
L 190.543035 307.872 
L 191.469777 307.872 
L 192.396518 307.872 
L 193.32326 307.872 
L 194.250002 307.872 
L 195.176744 307.872 
L 196.103486 307.872 
L 197.030228 307.872 
L 197.95697 307.872 
L 198.883712 307.872 
L 199.810454 307.872 
L 200.737196 307.872 
L 201.663938 307.872 
L 202.59068 307.872 
L 203.517422 307.872 
L 204.444163 307.872 
L 205.370905 307.872 
L 206.297647 307.872 
L 207.224389 307.872 
L 208.151131 307.872 
L 209.077873 307.872 
L 210.004615 307.872 
L 210.931357 307.872 
L 211.858099 307.872 
L 212.784841 307.872 
L 213.711583 307.872 
L 214.638325 307.872 
L 215.565067 307.872 
L 216.491808 307.872 
L 217.41855 307.872 
L 218.345292 307.872 
L 219.272034 307.872 
L 220.198776 307.872 
L 221.125518 307.872 
L 222.05226 307.872 
L 222.979002 307.872 
L 223.905744 307.872 
L 224.832486 307.872 
L 225.759228 307.872 
L 226.68597 307.872 
L 227.612712 307.872 
L 228.539453 307.872 
L 229.466195 307.872 
L 230.392937 307.872 
L 231.319679 307.872 
L 232.246421 307.872 
L 233.173163 307.872 
L 234.099905 307.872 
L 235.026647 307.872 
L 235.953389 307.872 
L 236.880131 307.872 
L 237.806873 307.872 
L 238.733615 307.872 
L 239.660357 307.872 
L 240.587098 307.872 
L 241.51384 307.872 
L 242.440582 307.872 
L 243.367324 307.872 
L 244.294066 307.872 
L 245.220808 307.872 
L 246.14755 307.872 
L 247.074292 307.872 
L 248.001034 307.872 
L 249.854518 307.872 
L 250.78126 307.872 
L 251.708002 307.872 
L 252.634743 307.872 
L 253.561485 307.872 
L 254.488227 307.872 
L 255.414969 307.872 
L 256.341711 307.872 
L 257.268453 307.872 
L 258.195195 307.872 
L 259.121937 307.872 
L 260.048679 307.872 
L 260.975421 307.872 
L 261.902163 307.872 
L 262.828905 307.872 
L 263.755647 307.872 
L 264.682388 307.872 
L 265.60913 307.872 
L 266.535872 307.872 
L 267.462614 307.872 
L 268.389356 307.872 
L 269.316098 307.872 
L 270.24284 307.872 
L 271.169582 307.872 
L 272.096324 307.872 
L 273.023066 307.872 
L 273.949808 307.872 
L 274.87655 307.872 
L 275.803292 307.872 
L 276.730033 307.872 
L 277.656775 307.872 
L 278.583517 307.872 
L 279.510259 307.872 
L 280.437001 307.872 
L 281.363743 307.872 
L 282.290485 307.872 
L 283.217227 307.872 
L 284.143969 307.872 
L 285.070711 307.872 
L 285.997453 307.872 
L 286.924195 307.872 
L 287.850937 307.872 
L 288.777678 307.872 
L 289.70442 307.872 
L 290.631162 307.872 
L 291.557904 307.872 
L 292.484646 307.872 
L 293.411388 307.872 
L 294.33813 307.872 
L 295.264872 307.872 
L 296.191614 307.872 
L 297.118356 307.872 
L 298.045098 307.872 
L 298.97184 307.872 
L 299.898582 307.872 
L 300.825323 307.872 
L 301.752065 307.872 
L 302.678807 307.872 
L 303.605549 307.872 
L 304.532291 307.872 
L 305.459033 307.872 
L 306.385775 307.872 
L 307.312517 307.872 
L 308.239259 307.872 
L 309.166001 307.872 
L 310.092743 307.872 
L 311.019485 307.872 
L 311.946227 307.872 
L 312.872968 307.872 
L 313.79971 307.872 
L 314.726452 307.872 
L 315.653194 307.872 
L 316.579936 307.872 
L 317.506678 307.872 
L 318.43342 307.872 
L 319.360162 307.872 
L 320.286904 307.872 
L 321.213646 307.872 
L 322.140388 307.872 
L 323.06713 307.872 
L 323.993872 307.872 
L 324.920613 307.872 
L 325.847355 307.872 
L 326.774097 307.872 
L 327.700839 307.872 
L 328.627581 307.872 
L 329.554323 307.872 
L 330.481065 307.872 
L 331.407807 307.872 
L 332.334549 307.872 
L 333.261291 307.872 
L 334.188033 307.872 
L 335.114775 307.872 
L 336.041517 307.872 
L 336.968258 307.872 
L 337.895 307.872 
L 338.821742 307.872 
L 339.748484 307.872 
L 340.675226 307.872 
L 341.601968 307.872 
L 342.52871 307.872 
L 343.455452 307.872 
L 344.382194 307.872 
L 345.308936 307.872 
L 346.235678 307.872 
L 347.16242 307.872 
L 348.089162 307.872 
L 349.015903 307.872 
L 349.942645 307.872 
L 350.869387 307.872 
L 351.796129 307.872 
L 352.722871 307.872 
L 353.649613 307.872 
L 354.576355 307.872 
L 355.503097 307.872 
L 356.429839 307.872 
L 357.356581 307.872 
L 358.283323 307.872 
L 359.210065 307.872 
L 360.136807 307.872 
L 361.063548 307.872 
L 361.99029 307.872 
L 362.917032 307.872 
L 363.843774 307.872 
L 364.770516 307.872 
L 365.697258 307.872 
L 366.624 307.872 
L 366.624 294.5664 
L 366.624 294.5664 
L 365.697258 294.5664 
L 364.770516 294.5664 
L 363.843774 294.5664 
L 362.917032 294.5664 
L 361.99029 294.5664 
L 361.063548 294.5664 
L 360.136807 294.5664 
L 359.210065 294.5664 
L 358.283323 294.5664 
L 357.356581 294.5664 
L 356.429839 294.5664 
L 355.503097 294.5664 
L 354.576355 294.5664 
L 353.649613 294.5664 
L 352.722871 294.5664 
L 351.796129 294.5664 
L 350.869387 294.5664 
L 349.942645 294.5664 
L 349.015903 294.5664 
L 348.089162 294.5664 
L 347.16242 294.5664 
L 346.235678 294.5664 
L 345.308936 294.5664 
L 344.382194 294.5664 
L 343.455452 294.5664 
L 342.52871 294.5664 
L 341.601968 294.5664 
L 340.675226 294.5664 
L 339.748484 294.5664 
L 338.821742 294.5664 
L 337.895 294.5664 
L 336.968258 294.5664 
L 336.041517 294.5664 
L 335.114775 294.5664 
L 334.188033 294.5664 
L 333.261291 294.5664 
L 332.334549 294.5664 
L 331.407807 294.5664 
L 330.481065 294.5664 
L 329.554323 294.5664 
L 328.627581 294.5664 
L 327.700839 294.5664 
L 326.774097 294.5664 
L 325.847355 294.5664 
L 324.920613 294.5664 
L 323.993872 294.5664 
L 323.06713 294.5664 
L 322.140388 294.5664 
L 321.213646 294.5664 
L 320.286904 294.5664 
L 319.360162 294.5664 
L 318.43342 294.5664 
L 317.506678 294.5664 
L 316.579936 294.5664 
L 315.653194 294.5664 
L 314.726452 294.5664 
L 313.79971 294.5664 
L 312.872968 294.5664 
L 311.946227 294.5664 
L 311.019485 294.5664 
L 310.092743 294.5664 
L 309.166001 294.5664 
L 308.239259 294.5664 
L 307.312517 294.5664 
L 306.385775 294.5664 
L 305.459033 294.5664 
L 304.532291 294.5664 
L 303.605549 294.5664 
L 302.678807 294.5664 
L 301.752065 294.5664 
L 300.825323 294.5664 
L 299.898582 294.5664 
L 298.97184 294.5664 
L 298.045098 294.5664 
L 297.118356 294.5664 
L 296.191614 294.5664 
L 295.264872 294.5664 
L 294.33813 294.5664 
L 293.411388 294.5664 
L 292.484646 294.5664 
L 291.557904 294.5664 
L 290.631162 294.5664 
L 289.70442 294.5664 
L 288.777678 294.5664 
L 287.850937 294.5664 
L 286.924195 294.5664 
L 285.997453 294.5664 
L 285.070711 294.5664 
L 284.143969 294.5664 
L 283.217227 294.5664 
L 282.290485 294.5664 
L 281.363743 294.5664 
L 280.437001 294.5664 
L 279.510259 294.5664 
L 278.583517 294.5664 
L 277.656775 294.5664 
L 276.730033 294.5664 
L 275.803292 294.5664 
L 274.87655 294.5664 
L 273.949808 294.5664 
L 273.023066 294.5664 
L 272.096324 294.5664 
L 271.169582 294.5664 
L 270.24284 294.5664 
L 269.316098 294.5664 
L 268.389356 294.5664 
L 267.462614 294.5664 
L 266.535872 294.5664 
L 265.60913 294.5664 
L 264.682388 294.5664 
L 263.755647 294.5664 
L 262.828905 294.5664 
L 261.902163 294.5664 
L 260.975421 294.5664 
L 260.048679 294.5664 
L 259.121937 294.5664 
L 258.195195 294.5664 
L 257.268453 294.5664 
L 256.341711 294.5664 
L 255.414969 294.5664 
L 254.488227 294.5664 
L 253.561485 294.5664 
L 252.634743 294.5664 
L 251.708002 294.5664 
L 250.78126 294.5664 
L 249.854518 294.5664 
L 248.001034 294.5664 
L 247.074292 294.5664 
L 246.14755 294.5664 
L 245.220808 294.5664 
L 244.294066 294.5664 
L 243.367324 294.5664 
L 242.440582 294.5664 
L 241.51384 294.5664 
L 240.587098 294.5664 
L 239.660357 294.5664 
L 238.733615 294.5664 
L 237.806873 294.5664 
L 236.880131 294.5664 
L 235.953389 294.5664 
L 235.026647 294.5664 
L 234.099905 294.5664 
L 233.173163 294.5664 
L 232.246421 294.5664 
L 231.319679 294.5664 
L 230.392937 294.5664 
L 229.466195 294.5664 
L 228.539453 294.5664 
L 227.612712 294.5664 
L 226.68597 294.5664 
L 225.759228 294.5664 
L 224.832486 294.5664 
L 223.905744 294.5664 
L 222.979002 294.5664 
L 222.05226 294.5664 
L 221.125518 294.5664 
L 220.198776 294.5664 
L 219.272034 294.5664 
L 218.345292 294.5664 
L 217.41855 294.5664 
L 216.491808 294.5664 
L 215.565067 294.5664 
L 214.638325 294.5664 
L 213.711583 294.5664 
L 212.784841 294.5664 
L 211.858099 294.5664 
L 210.931357 294.5664 
L 210.004615 294.5664 
L 209.077873 294.5664 
L 208.151131 294.5664 
L 207.224389 294.5664 
L 206.297647 294.5664 
L 205.370905 294.5664 
L 204.444163 294.5664 
L 203.517422 294.5664 
L 202.59068 294.5664 
L 201.663938 294.5664 
L 200.737196 294.5664 
L 199.810454 294.5664 
L 198.883712 294.5664 
L 197.95697 294.5664 
L 197.030228 294.5664 
L 196.103486 294.5664 
L 195.176744 294.5664 
L 194.250002 294.5664 
L 193.32326 294.5664 
L 192.396518 294.5664 
L 191.469777 294.5664 
L 190.543035 294.5664 
L 189.616293 294.5664 
L 188.689551 294.5664 
L 187.762809 294.5664 
L 186.836067 294.5664 
L 185.909325 294.5664 
L 184.982583 294.5664 
L 184.055841 294.5664 
L 183.129099 294.5664 
L 182.202357 294.5664 
L 181.275615 294.5664 
L 180.348873 294.5664 
L 179.422132 294.5664 
L 178.49539 294.5664 
L 177.568648 294.5664 
L 176.641906 294.5664 
L 175.715164 294.5664 
L 174.788422 294.5664 
L 173.86168 294.5664 
L 172.934938 294.5664 
L 172.008196 294.5664 
L 171.081454 294.5664 
L 170.154712 294.5664 
L 169.22797 294.5664 
L 168.301228 294.5664 
L 167.374487 294.5664 
L 166.447745 294.5664 
L 165.521003 294.5664 
L 164.594261 294.5664 
L 163.667519 294.5664 
L 162.740777 294.5664 
L 161.814035 294.5664 
L 160.887293 294.5664 
L 159.960551 294.5664 
L 159.033809 294.5664 
L 158.107067 294.5664 
L 157.180325 294.5664 
L 156.253583 294.5664 
L 155.326842 294.5664 
L 154.4001 294.5664 
L 153.473358 294.5664 
L 152.546616 294.5664 
L 151.619874 294.5664 
L 150.693132 294.5664 
L 149.76639 294.5664 
L 148.839648 294.5664 
L 147.912906 294.5664 
L 146.986164 294.5664 
L 146.059422 294.5664 
L 145.13268 294.5664 
L 144.205938 294.5664 
L 143.279197 294.5664 
L 142.352455 294.5664 
L 141.425713 294.5664 
L 140.498971 294.5664 
L 139.572229 294.5664 
L 138.645487 294.5664 
L 137.718745 294.5664 
L 136.792003 294.5664 
L 135.865261 294.5664 
L 134.938519 294.5664 
L 134.011777 294.5664 
L 133.085035 294.5664 
L 132.158293 294.5664 
L 131.231552 294.5664 
L 130.30481 294.5664 
L 129.378068 294.5664 
L 128.451326 294.5664 
L 127.524584 294.5664 
L 126.597842 294.5664 
L 125.6711 294.5664 
L 124.744358 294.5664 
L 123.817616 294.5664 
L 122.890874 294.5664 
L 121.964132 294.5664 
L 121.03739 294.5664 
L 120.110649 294.5664 
L 119.183907 294.5664 
L 118.257165 294.5664 
L 117.330423 294.5664 
L 116.403681 294.5664 
L 115.476939 294.5664 
L 114.550197 294.5664 
L 113.623455 294.5664 
L 112.696713 294.5664 
L 111.769971 294.5664 
L 110.843229 294.5664 
L 109.916487 294.5664 
L 108.989745 294.5664 
L 108.063004 294.5664 
L 107.136262 294.5664 
L 106.20952 294.5664 
L 105.282778 294.5664 
L 104.356036 294.5664 
L 103.429294 294.5664 
L 102.502552 294.5664 
L 101.57581 294.5664 
L 100.649068 294.5664 
L 99.722326 294.5664 
L 98.795584 294.5664 
L 97.868842 294.5664 
L 96.9421 294.5664 
L 96.015359 294.5664 
L 95.088617 294.5664 
L 94.161875 294.5664 
L 93.235133 294.5664 
L 92.308391 294.5664 
L 91.381649 294.5664 
L 90.454907 294.5664 
L 89.528165 294.5664 
L 88.601423 294.5664 
L 87.674681 294.5664 
L 86.747939 294.5664 
L 85.821197 294.5664 
L 84.894455 294.5664 
L 83.967714 294.5664 
L 83.040972 294.5664 
L 82.11423 294.5664 
L 81.187488 294.5664 
L 80.260746 294.5664 
L 79.334004 294.5664 
L 78.407262 294.5664 
L 77.48052 294.5664 
L 76.553778 294.5664 
L 75.627036 294.5664 
L 74.700294 294.5664 
L 73.773552 294.5664 
L 72.84681 294.5664 
L 71.920069 294.5664 
L 70.993327 294.5664 
L 70.066585 294.5664 
L 69.139843 294.5664 
L 68.213101 294.5664 
L 67.286359 294.5664 
L 66.359617 294.5664 
L 65.432875 294.5664 
L 64.506133 294.5664 
L 63.579391 294.5664 
L 62.652649 294.5664 
L 61.725907 294.5664 
L 60.799165 294.5664 
L 59.872424 294.5664 
L 58.945682 294.5664 
L 58.01894 294.5664 
L 57.092198 294.5664 
L 56.165456 294.5664 
L 55.238714 294.5664 
L 54.311972 294.5664 
L 53.38523 294.5664 
L 52.458488 294.5664 
L 51.531746 294.5664 
L 50.605004 294.5664 
L 49.678262 294.5664 
L 48.75152 294.5664 
L 47.824779 294.5664 
L 46.898037 294.5664 
L 45.971295 294.5664 
L 45.044553 294.5664 
L 44.117811 294.5664 
L 43.191069 294.5664 
L 42.264327 294.5664 
L 41.337585 294.5664 
L 40.410843 294.5664 
L 39.484101 294.5664 
L 38.557359 294.5664 
L 37.630617 294.5664 
L 36.703875 294.5664 
L 35.777134 294.5664 
L 34.850392 294.5664 
L 33.92365 294.5664 
L 32.996908 294.5664 
L 32.070166 294.5664 
L 31.143424 294.5664 
L 30.216682 294.5664 
L 29.28994 294.5664 
L 28.363198 294.5664 
L 27.436456 294.5664 
L 26.509714 294.5664 
z
" clip-path="url(#p43e196d2c3)" style="fill: url(#h5bbe497dfa); stroke: #000000; stroke-opacity: 0.2; stroke-width: 0.1"/>
   </g>
   <g id="matplotlib.axis_1">
    <g id="xtick_1">
     <g id="line2d_1">
      <defs>
       <path id="m186d97c360" d="M 0 0 
L 0 3.5 
" style="stroke: #ff0000; stroke-opacity: 0.6; stroke-width: 0.8"/>
      </defs>
      <g>
       <use xlink:href="#m186d97c360" x="57.092198" y="307.872" style="fill: #ff0000; fill-opacity: 0.6; stroke: #ff0000; stroke-opacity: 0.6; stroke-width: 0.8"/>
      </g>
     </g>
     <g id="text_1">
      <!-- Apr 20 -->
      <g style="fill: #323034; opacity: 0.6" transform="translate(43.067198 321.701687)scale(0.1 -0.1)">
       <defs>
        <path id="STIXGeneral-Regular-41" d="M 4525 0 
L 2893 0 
L 2893 122 
Q 3149 122 3245 179 
Q 3334 224 3334 333 
Q 3334 499 3213 781 
L 2950 1382 
L 1274 1382 
L 979 653 
Q 922 506 922 384 
Q 922 237 1027 179 
Q 1133 122 1370 122 
L 1370 0 
L 96 0 
L 96 122 
Q 365 147 486 316 
Q 608 486 902 1190 
L 2221 4314 
L 2349 4314 
L 3923 710 
Q 4064 378 4176 262 
Q 4288 147 4525 122 
L 4525 0 
z
M 2861 1645 
L 2118 3405 
L 1382 1645 
L 2861 1645 
z
" transform="scale(0.015625)"/>
        <path id="STIXGeneral-Regular-70" d="M 1018 2931 
L 1018 2438 
Q 1421 2944 1939 2944 
Q 2406 2944 2707 2560 
Q 3008 2176 3008 1581 
Q 3008 883 2621 409 
Q 2234 -64 1664 -64 
Q 1466 -64 1328 -6 
Q 1190 51 1018 211 
L 1018 -794 
Q 1018 -1094 1120 -1180 
Q 1222 -1267 1581 -1274 
L 1581 -1389 
L 32 -1389 
L 32 -1280 
Q 314 -1254 397 -1171 
Q 480 -1088 480 -838 
L 480 2157 
Q 480 2381 429 2451 
Q 378 2522 218 2522 
Q 115 2522 58 2515 
L 58 2618 
Q 506 2752 979 2944 
L 1018 2931 
z
M 1018 2138 
L 1018 563 
Q 1018 422 1238 281 
Q 1459 141 1683 141 
Q 2029 141 2243 467 
Q 2458 794 2458 1325 
Q 2458 1888 2243 2224 
Q 2029 2560 1670 2560 
Q 1446 2560 1232 2419 
Q 1018 2278 1018 2138 
z
" transform="scale(0.015625)"/>
        <path id="STIXGeneral-Regular-72" d="M 1024 2931 
L 1024 2342 
Q 1267 2688 1430 2816 
Q 1594 2944 1792 2944 
Q 1958 2944 2051 2854 
Q 2144 2765 2144 2605 
Q 2144 2470 2077 2393 
Q 2010 2317 1894 2317 
Q 1773 2317 1638 2445 
Q 1536 2541 1472 2541 
Q 1338 2541 1181 2355 
Q 1024 2170 1024 2016 
L 1024 576 
Q 1024 301 1133 205 
Q 1242 109 1568 96 
L 1568 0 
L 32 0 
L 32 96 
Q 339 154 412 224 
Q 486 294 486 538 
L 486 2138 
Q 486 2349 438 2435 
Q 390 2522 269 2522 
Q 166 2522 45 2496 
L 45 2598 
Q 448 2726 992 2944 
L 1024 2931 
z
" transform="scale(0.015625)"/>
        <path id="STIXGeneral-Regular-20" transform="scale(0.015625)"/>
        <path id="STIXGeneral-Regular-32" d="M 3034 877 
L 2688 0 
L 186 0 
L 186 77 
L 1325 1286 
Q 1773 1754 1965 2144 
Q 2157 2534 2157 2950 
Q 2157 3379 1920 3616 
Q 1683 3853 1267 3853 
Q 922 3853 720 3673 
Q 518 3494 326 3021 
L 192 3053 
Q 301 3648 630 3987 
Q 960 4326 1523 4326 
Q 2054 4326 2380 4006 
Q 2707 3686 2707 3200 
Q 2707 2477 1888 1613 
L 832 486 
L 2330 486 
Q 2541 486 2665 569 
Q 2790 653 2944 915 
L 3034 877 
z
" transform="scale(0.015625)"/>
        <path id="STIXGeneral-Regular-30" d="M 3046 2112 
Q 3046 1683 2963 1302 
Q 2880 922 2717 602 
Q 2554 282 2266 96 
Q 1978 -90 1600 -90 
Q 1210 -90 915 108 
Q 621 307 461 640 
Q 301 973 227 1350 
Q 154 1728 154 2150 
Q 154 2746 301 3222 
Q 448 3699 790 4012 
Q 1133 4326 1626 4326 
Q 2253 4326 2649 3712 
Q 3046 3098 3046 2112 
z
M 2432 2080 
Q 2432 3091 2217 3625 
Q 2003 4160 1587 4160 
Q 1190 4160 979 3622 
Q 768 3085 768 2106 
Q 768 1120 979 598 
Q 1190 77 1600 77 
Q 2003 77 2217 598 
Q 2432 1120 2432 2080 
z
" transform="scale(0.015625)"/>
       </defs>
       <use xlink:href="#STIXGeneral-Regular-41"/>
       <use xlink:href="#STIXGeneral-Regular-70" x="72.199982"/>
       <use xlink:href="#STIXGeneral-Regular-72" x="122.199966"/>
       <use xlink:href="#STIXGeneral-Regular-20" x="155.499954"/>
       <use xlink:href="#STIXGeneral-Regular-32" x="180.499939"/>
       <use xlink:href="#STIXGeneral-Regular-30" x="230.499924"/>
      </g>
     </g>
    </g>
    <g id="xtick_2">
     <g id="line2d_2">
      <g>
       <use xlink:href="#m186d97c360" x="141.425713" y="307.872" style="fill: #ff0000; fill-opacity: 0.6; stroke: #ff0000; stroke-opacity: 0.6; stroke-width: 0.8"/>
      </g>
     </g>
     <g id="text_2">
      <!-- Jul 20 -->
      <g style="fill: #323034; opacity: 0.6" transform="translate(129.421025 321.701687)scale(0.1 -0.1)">
       <defs>
        <path id="STIXGeneral-Regular-4a" d="M 2266 4237 
L 2266 4115 
Q 1875 4083 1776 3984 
Q 1677 3885 1677 3514 
L 1677 1184 
Q 1677 -90 608 -90 
Q 314 -90 138 32 
Q -38 154 -38 371 
Q -38 499 54 601 
Q 147 704 275 704 
Q 486 704 589 435 
Q 602 403 621 348 
Q 640 294 649 265 
Q 659 237 678 208 
Q 698 179 723 166 
Q 749 154 787 154 
Q 928 154 976 253 
Q 1024 352 1024 602 
L 1024 3520 
Q 1024 3898 928 3990 
Q 832 4083 429 4115 
L 429 4237 
L 2266 4237 
z
" transform="scale(0.015625)"/>
        <path id="STIXGeneral-Regular-75" d="M 3072 320 
L 3072 230 
Q 2573 96 2195 -58 
L 2163 -38 
L 2163 486 
L 2150 486 
Q 1747 -64 1235 -64 
Q 870 -64 662 160 
Q 454 384 454 755 
L 454 2362 
Q 454 2598 371 2688 
Q 288 2778 58 2790 
L 58 2880 
L 992 2880 
L 992 813 
Q 992 595 1123 451 
Q 1254 307 1446 307 
Q 1760 307 1984 506 
Q 2067 582 2099 649 
Q 2131 717 2131 877 
L 2131 2355 
Q 2131 2605 2041 2678 
Q 1952 2752 1658 2771 
L 1658 2880 
L 2669 2880 
L 2669 685 
Q 2669 461 2742 390 
Q 2816 320 3034 320 
L 3072 320 
z
" transform="scale(0.015625)"/>
        <path id="STIXGeneral-Regular-6c" d="M 1645 0 
L 134 0 
L 134 96 
Q 435 122 531 221 
Q 627 320 627 589 
L 627 3590 
Q 627 3821 569 3910 
Q 512 4000 358 4000 
Q 224 4000 122 3987 
L 122 4090 
Q 730 4237 1133 4371 
L 1165 4346 
L 1165 557 
Q 1165 288 1254 201 
Q 1344 115 1645 96 
L 1645 0 
z
" transform="scale(0.015625)"/>
       </defs>
       <use xlink:href="#STIXGeneral-Regular-4a"/>
       <use xlink:href="#STIXGeneral-Regular-75" x="37.299988"/>
       <use xlink:href="#STIXGeneral-Regular-6c" x="87.299973"/>
       <use xlink:href="#STIXGeneral-Regular-20" x="115.09996"/>
       <use xlink:href="#STIXGeneral-Regular-32" x="140.099945"/>
       <use xlink:href="#STIXGeneral-Regular-30" x="190.09993"/>
      </g>
     </g>
    </g>
    <g id="xtick_3">
     <g id="line2d_3">
      <g>
       <use xlink:href="#m186d97c360" x="226.68597" y="307.872" style="fill: #ff0000; fill-opacity: 0.6; stroke: #ff0000; stroke-opacity: 0.6; stroke-width: 0.8"/>
      </g>
     </g>
     <g id="text_3">
      <!-- Oct 20 -->
      <g style="fill: #323034; opacity: 0.6" transform="translate(213.215657 321.701687)scale(0.1 -0.1)">
       <defs>
        <path id="STIXGeneral-Regular-4f" d="M 4403 2118 
Q 4403 1133 3820 521 
Q 3238 -90 2310 -90 
Q 1376 -90 797 524 
Q 218 1139 218 2138 
Q 218 3110 797 3718 
Q 1376 4326 2310 4326 
Q 3245 4326 3824 3702 
Q 4403 3078 4403 2118 
z
M 3674 2157 
Q 3674 2701 3520 3133 
Q 3366 3565 3091 3795 
Q 2733 4096 2304 4096 
Q 1760 4096 1389 3667 
Q 1184 3437 1065 3011 
Q 947 2586 947 2125 
Q 947 960 1523 429 
Q 1837 141 2317 141 
Q 2816 141 3142 448 
Q 3674 960 3674 2157 
z
" transform="scale(0.015625)"/>
        <path id="STIXGeneral-Regular-63" d="M 2547 998 
L 2637 941 
Q 2362 403 2112 205 
Q 1786 -64 1376 -64 
Q 845 -64 502 336 
Q 160 736 160 1357 
Q 160 2170 698 2618 
Q 1094 2944 1562 2944 
Q 1965 2944 2256 2749 
Q 2547 2554 2547 2285 
Q 2547 2176 2457 2096 
Q 2368 2016 2246 2016 
Q 2022 2016 1939 2310 
L 1901 2451 
Q 1850 2630 1773 2694 
Q 1696 2758 1523 2758 
Q 1133 2758 893 2451 
Q 653 2144 653 1645 
Q 653 1094 928 745 
Q 1203 397 1645 397 
Q 1920 397 2118 528 
Q 2317 659 2547 998 
z
" transform="scale(0.015625)"/>
        <path id="STIXGeneral-Regular-74" d="M 1702 493 
L 1786 422 
Q 1478 -64 1011 -64 
Q 448 -64 448 749 
L 448 2675 
L 109 2675 
Q 83 2694 83 2720 
Q 83 2771 192 2842 
Q 435 2982 813 3526 
Q 826 3546 874 3606 
Q 922 3667 941 3706 
Q 986 3706 986 3622 
L 986 2880 
L 1632 2880 
L 1632 2675 
L 986 2675 
L 986 845 
Q 986 538 1062 403 
Q 1139 269 1318 269 
Q 1510 269 1702 493 
z
" transform="scale(0.015625)"/>
       </defs>
       <use xlink:href="#STIXGeneral-Regular-4f"/>
       <use xlink:href="#STIXGeneral-Regular-63" x="72.199982"/>
       <use xlink:href="#STIXGeneral-Regular-74" x="116.599976"/>
       <use xlink:href="#STIXGeneral-Regular-20" x="144.399963"/>
       <use xlink:href="#STIXGeneral-Regular-32" x="169.399948"/>
       <use xlink:href="#STIXGeneral-Regular-30" x="219.399933"/>
      </g>
     </g>
    </g>
    <g id="xtick_4">
     <g id="line2d_4">
      <g>
       <use xlink:href="#m186d97c360" x="311.946227" y="307.872" style="fill: #ff0000; fill-opacity: 0.6; stroke: #ff0000; stroke-opacity: 0.6; stroke-width: 0.8"/>
      </g>
     </g>
     <g id="text_4">
      <!-- Jan 21 -->
      <g style="fill: #323034; opacity: 0.6" transform="translate(299.11107 321.701687)scale(0.1 -0.1)">
       <defs>
        <path id="STIXGeneral-Regular-61" d="M 2829 422 
L 2829 243 
Q 2586 -64 2253 -64 
Q 1888 -64 1843 403 
L 1837 403 
Q 1427 -64 909 -64 
Q 608 -64 422 112 
Q 237 288 237 602 
Q 237 1050 685 1350 
Q 992 1555 1837 1869 
L 1837 2214 
Q 1837 2502 1699 2646 
Q 1562 2790 1338 2790 
Q 1146 2790 1018 2697 
Q 890 2605 890 2477 
Q 890 2419 909 2348 
Q 928 2278 928 2208 
Q 928 2112 841 2029 
Q 755 1946 634 1946 
Q 525 1946 441 2029 
Q 358 2112 358 2240 
Q 358 2547 685 2752 
Q 986 2944 1421 2944 
Q 1939 2944 2176 2656 
Q 2291 2522 2323 2384 
Q 2355 2246 2355 1946 
L 2355 723 
Q 2355 301 2554 301 
Q 2682 301 2829 422 
z
M 1837 813 
L 1837 1715 
Q 1248 1510 1018 1293 
Q 800 1094 800 800 
Q 800 557 921 432 
Q 1043 307 1242 307 
Q 1453 307 1613 410 
Q 1747 506 1792 589 
Q 1837 672 1837 813 
z
" transform="scale(0.015625)"/>
        <path id="STIXGeneral-Regular-6e" d="M 3104 0 
L 1773 0 
L 1779 96 
Q 2016 115 2096 233 
Q 2176 352 2176 672 
L 2176 1946 
Q 2176 2592 1709 2592 
Q 1549 2592 1408 2515 
Q 1267 2438 1050 2227 
L 1050 461 
Q 1050 269 1136 192 
Q 1222 115 1466 96 
L 1466 0 
L 115 0 
L 115 96 
Q 358 115 435 214 
Q 512 314 512 602 
L 512 2157 
Q 512 2394 467 2483 
Q 422 2573 288 2573 
Q 160 2573 102 2547 
L 102 2656 
Q 550 2784 979 2944 
L 1030 2925 
L 1030 2426 
L 1037 2426 
Q 1491 2944 1958 2944 
Q 2323 2944 2518 2688 
Q 2714 2432 2714 1958 
L 2714 544 
Q 2714 288 2790 205 
Q 2867 122 3104 96 
L 3104 0 
z
" transform="scale(0.015625)"/>
        <path id="STIXGeneral-Regular-31" d="M 2522 0 
L 755 0 
L 755 96 
Q 1107 115 1235 227 
Q 1363 339 1363 608 
L 1363 3482 
Q 1363 3795 1171 3795 
Q 1082 3795 883 3718 
L 710 3654 
L 710 3744 
L 1856 4326 
L 1914 4307 
L 1914 486 
Q 1914 275 2042 185 
Q 2170 96 2522 96 
L 2522 0 
z
" transform="scale(0.015625)"/>
       </defs>
       <use xlink:href="#STIXGeneral-Regular-4a"/>
       <use xlink:href="#STIXGeneral-Regular-61" x="37.299988"/>
       <use xlink:href="#STIXGeneral-Regular-6e" x="81.699982"/>
       <use xlink:href="#STIXGeneral-Regular-20" x="131.699966"/>
       <use xlink:href="#STIXGeneral-Regular-32" x="156.699951"/>
       <use xlink:href="#STIXGeneral-Regular-31" x="206.699936"/>
      </g>
     </g>
    </g>
    <g id="xtick_5">
     <g id="line2d_5">
      <defs>
       <path id="m3fb967a74a" d="M 0 0 
L 0 2 
" style="stroke: #ff0000; stroke-opacity: 0.6; stroke-width: 0.6"/>
      </defs>
      <g>
       <use xlink:href="#m3fb967a74a" x="28.363198" y="307.872" style="fill: #ff0000; fill-opacity: 0.6; stroke: #ff0000; stroke-opacity: 0.6; stroke-width: 0.6"/>
      </g>
     </g>
    </g>
    <g id="xtick_6">
     <g id="line2d_6">
      <g>
       <use xlink:href="#m3fb967a74a" x="84.894455" y="307.872" style="fill: #ff0000; fill-opacity: 0.6; stroke: #ff0000; stroke-opacity: 0.6; stroke-width: 0.6"/>
      </g>
     </g>
    </g>
    <g id="xtick_7">
     <g id="line2d_7">
      <g>
       <use xlink:href="#m3fb967a74a" x="113.623455" y="307.872" style="fill: #ff0000; fill-opacity: 0.6; stroke: #ff0000; stroke-opacity: 0.6; stroke-width: 0.6"/>
      </g>
     </g>
    </g>
    <g id="xtick_8">
     <g id="line2d_8">
      <g>
       <use xlink:href="#m3fb967a74a" x="170.154712" y="307.872" style="fill: #ff0000; fill-opacity: 0.6; stroke: #ff0000; stroke-opacity: 0.6; stroke-width: 0.6"/>
      </g>
     </g>
    </g>
    <g id="xtick_9">
     <g id="line2d_9">
      <g>
       <use xlink:href="#m3fb967a74a" x="198.883712" y="307.872" style="fill: #ff0000; fill-opacity: 0.6; stroke: #ff0000; stroke-opacity: 0.6; stroke-width: 0.6"/>
      </g>
     </g>
    </g>
    <g id="xtick_10">
     <g id="line2d_10">
      <g>
       <use xlink:href="#m3fb967a74a" x="255.414969" y="307.872" style="fill: #ff0000; fill-opacity: 0.6; stroke: #ff0000; stroke-opacity: 0.6; stroke-width: 0.6"/>
      </g>
     </g>
    </g>
    <g id="xtick_11">
     <g id="line2d_11">
      <g>
       <use xlink:href="#m3fb967a74a" x="283.217227" y="307.872" style="fill: #ff0000; fill-opacity: 0.6; stroke: #ff0000; stroke-opacity: 0.6; stroke-width: 0.6"/>
      </g>
     </g>
    </g>
    <g id="xtick_12">
     <g id="line2d_12">
      <g>
       <use xlink:href="#m3fb967a74a" x="340.675226" y="307.872" style="fill: #ff0000; fill-opacity: 0.6; stroke: #ff0000; stroke-opacity: 0.6; stroke-width: 0.6"/>
      </g>
     </g>
    </g>
    <g id="xtick_13">
     <g id="line2d_13">
      <g>
       <use xlink:href="#m3fb967a74a" x="366.624" y="307.872" style="fill: #ff0000; fill-opacity: 0.6; stroke: #ff0000; stroke-opacity: 0.6; stroke-width: 0.6"/>
      </g>
     </g>
    </g>
    <g id="text_5">
     <!-- * Based on annual mean exposure of 10 micrograms per cubic metre  -->
     <g style="opacity: 0.6" transform="translate(9.504 330.969812)scale(0.06 -0.06)">
      <defs>
       <path id="STIXGeneral-Regular-2a" d="M 1715 3014 
L 1773 2976 
Q 2010 2822 2387 2758 
Q 2605 2726 2688 2665 
Q 2771 2605 2771 2483 
Q 2771 2374 2707 2304 
Q 2643 2234 2541 2234 
Q 2381 2234 2157 2515 
Q 2010 2694 1715 2886 
L 1664 2918 
L 1664 2861 
Q 1664 2502 1792 2157 
Q 1850 1997 1850 1946 
Q 1850 1850 1770 1773 
Q 1690 1696 1594 1696 
Q 1504 1696 1433 1766 
Q 1363 1837 1363 1926 
Q 1363 2016 1440 2227 
Q 1542 2502 1542 2861 
L 1542 2918 
Q 1286 2758 1210 2688 
Q 1133 2611 947 2400 
Q 806 2240 672 2240 
Q 563 2240 499 2304 
Q 435 2368 435 2470 
Q 435 2592 528 2656 
Q 621 2720 838 2758 
Q 1062 2803 1180 2848 
Q 1299 2893 1498 3014 
Q 1222 3181 877 3251 
Q 640 3302 544 3366 
Q 448 3430 448 3546 
Q 448 3648 505 3715 
Q 563 3782 659 3782 
Q 787 3782 973 3578 
Q 1242 3277 1542 3110 
L 1542 3194 
Q 1542 3456 1446 3776 
Q 1376 3987 1376 4109 
Q 1376 4198 1443 4262 
Q 1510 4326 1606 4326 
Q 1702 4326 1772 4259 
Q 1843 4192 1843 4096 
Q 1843 3994 1773 3795 
Q 1664 3507 1664 3264 
L 1664 3110 
Q 1882 3238 2035 3379 
Q 2067 3411 2153 3504 
Q 2240 3597 2291 3648 
Q 2342 3699 2409 3747 
Q 2477 3795 2528 3795 
Q 2637 3795 2701 3728 
Q 2765 3661 2765 3552 
Q 2765 3424 2691 3363 
Q 2618 3302 2432 3277 
Q 2074 3219 1715 3014 
z
" transform="scale(0.015625)"/>
       <path id="STIXGeneral-Regular-42" d="M 2701 2234 
L 2701 2227 
Q 3181 2150 3482 1875 
Q 3795 1594 3795 1139 
Q 3795 608 3379 304 
Q 2963 0 2266 0 
L 109 0 
L 109 122 
Q 486 134 604 246 
Q 723 358 723 723 
L 723 3520 
Q 723 3891 614 3990 
Q 506 4090 109 4115 
L 109 4237 
L 1901 4237 
Q 2726 4237 3152 3958 
Q 3578 3680 3578 3168 
Q 3578 2733 3315 2502 
Q 3130 2342 2701 2234 
z
M 1376 2342 
L 1965 2342 
Q 2925 2342 2925 3136 
Q 2925 3546 2640 3773 
Q 2355 4000 1792 4000 
L 1530 4000 
Q 1376 4000 1376 3795 
L 1376 2342 
z
M 1376 2086 
L 1376 525 
Q 1376 365 1462 301 
Q 1549 237 1773 237 
Q 2208 237 2413 285 
Q 2618 333 2816 512 
Q 3059 723 3059 1146 
Q 3059 1632 2758 1830 
Q 2688 1882 2617 1917 
Q 2547 1952 2492 1974 
Q 2438 1997 2348 2016 
Q 2259 2035 2211 2044 
Q 2163 2054 2041 2060 
Q 1920 2067 1862 2070 
Q 1805 2074 1635 2080 
Q 1466 2086 1376 2086 
z
" transform="scale(0.015625)"/>
       <path id="STIXGeneral-Regular-73" d="M 998 1926 
L 1664 1523 
Q 1984 1331 2105 1164 
Q 2227 998 2227 736 
Q 2227 416 1961 176 
Q 1696 -64 1331 -64 
Q 1030 -64 864 -6 
Q 691 51 570 51 
Q 461 51 416 -26 
L 333 -26 
L 333 979 
L 435 979 
Q 538 512 730 294 
Q 922 77 1248 77 
Q 1485 77 1632 211 
Q 1779 346 1779 550 
Q 1779 845 1440 1030 
L 1094 1222 
Q 326 1651 326 2150 
Q 326 2522 566 2730 
Q 806 2938 1210 2938 
Q 1491 2938 1638 2867 
Q 1754 2816 1818 2816 
Q 1862 2816 1920 2880 
L 1990 2880 
L 2022 2010 
L 1926 2010 
Q 1818 2445 1654 2621 
Q 1491 2797 1203 2797 
Q 986 2797 854 2688 
Q 723 2579 723 2362 
Q 723 2253 796 2128 
Q 870 2003 998 1926 
z
" transform="scale(0.015625)"/>
       <path id="STIXGeneral-Regular-65" d="M 2611 1050 
L 2714 1005 
Q 2330 -64 1376 -64 
Q 813 -64 486 329 
Q 160 723 160 1389 
Q 160 2074 525 2509 
Q 890 2944 1485 2944 
Q 2061 2944 2374 2502 
Q 2560 2246 2592 1773 
L 621 1773 
Q 646 1370 700 1158 
Q 755 947 915 730 
Q 1184 378 1626 378 
Q 1939 378 2153 531 
Q 2368 685 2611 1050 
z
M 634 1978 
L 1939 1978 
Q 1882 2381 1750 2547 
Q 1619 2714 1312 2714 
Q 1043 2714 864 2525 
Q 685 2336 634 1978 
z
" transform="scale(0.015625)"/>
       <path id="STIXGeneral-Regular-64" d="M 3142 269 
L 2202 -64 
L 2176 -45 
L 2176 365 
Q 1869 -64 1357 -64 
Q 826 -64 499 317 
Q 173 698 173 1312 
Q 173 1990 563 2467 
Q 954 2944 1504 2944 
Q 1850 2944 2176 2669 
L 2176 3667 
Q 2176 3866 2118 3930 
Q 2061 3994 1882 3994 
Q 1792 3994 1741 3987 
L 1741 4090 
Q 2323 4243 2682 4371 
L 2714 4358 
L 2714 730 
Q 2714 506 2768 435 
Q 2822 365 2995 365 
Q 3034 365 3142 371 
L 3142 269 
z
M 2176 653 
L 2176 2125 
Q 2176 2381 1981 2573 
Q 1786 2765 1523 2765 
Q 1158 2765 940 2438 
Q 723 2112 723 1568 
Q 723 979 963 624 
Q 1203 269 1606 269 
Q 1907 269 2080 474 
Q 2176 582 2176 653 
z
" transform="scale(0.015625)"/>
       <path id="STIXGeneral-Regular-6f" d="M 3008 1478 
Q 3008 806 2608 371 
Q 2208 -64 1568 -64 
Q 979 -64 582 368 
Q 186 800 186 1459 
Q 186 2125 582 2534 
Q 979 2944 1626 2944 
Q 2221 2944 2614 2537 
Q 3008 2131 3008 1478 
z
M 2432 1306 
Q 2432 2035 2112 2445 
Q 1856 2765 1504 2765 
Q 1171 2765 966 2493 
Q 762 2221 762 1747 
Q 762 928 1101 435 
Q 1318 115 1677 115 
Q 2029 115 2230 432 
Q 2432 749 2432 1306 
z
" transform="scale(0.015625)"/>
       <path id="STIXGeneral-Regular-6d" d="M 4960 0 
L 3565 0 
L 3565 96 
Q 3834 122 3907 208 
Q 3981 294 3981 576 
L 3981 1894 
Q 3981 2278 3869 2444 
Q 3757 2611 3488 2611 
Q 3264 2611 3107 2521 
Q 2950 2432 2803 2221 
L 2803 608 
Q 2803 301 2896 201 
Q 2989 102 3264 96 
L 3264 0 
L 1830 0 
L 1830 96 
Q 2112 115 2189 188 
Q 2266 262 2266 550 
L 2266 1901 
Q 2266 2611 1850 2611 
Q 1670 2611 1468 2531 
Q 1267 2451 1171 2336 
Q 1088 2240 1088 2227 
L 1088 448 
Q 1088 243 1177 176 
Q 1267 109 1523 96 
L 1523 0 
L 102 0 
L 102 96 
Q 371 102 460 195 
Q 550 288 550 563 
L 550 2150 
Q 550 2387 499 2480 
Q 448 2573 326 2573 
Q 230 2573 122 2547 
L 122 2656 
Q 557 2778 1011 2944 
L 1062 2925 
L 1062 2451 
L 1075 2451 
Q 1363 2752 1584 2848 
Q 1805 2944 2054 2944 
Q 2560 2944 2733 2406 
Q 3232 2944 3776 2944 
Q 4518 2944 4518 1792 
L 4518 493 
Q 4518 282 4582 202 
Q 4646 122 4794 109 
L 4960 96 
L 4960 0 
z
" transform="scale(0.015625)"/>
       <path id="STIXGeneral-Regular-78" d="M 3066 0 
L 1779 0 
L 1779 96 
Q 1939 109 1987 137 
Q 2035 166 2035 250 
Q 2035 307 1997 365 
L 1414 1261 
L 909 474 
Q 781 275 781 211 
Q 781 96 1037 96 
L 1037 0 
L 109 0 
L 109 96 
Q 269 109 355 169 
Q 442 230 576 422 
L 1306 1478 
L 704 2400 
Q 557 2624 454 2704 
Q 352 2784 211 2784 
L 154 2784 
L 154 2880 
L 1478 2880 
L 1478 2784 
Q 1203 2778 1203 2643 
Q 1203 2509 1498 2074 
Q 1581 1958 1587 1946 
Q 1619 1990 1779 2227 
Q 1811 2285 1856 2349 
Q 1901 2413 1923 2451 
Q 1946 2490 1971 2528 
Q 1997 2566 2006 2595 
Q 2016 2624 2016 2643 
Q 2016 2765 1760 2784 
L 1760 2880 
L 2771 2880 
L 2771 2784 
Q 2445 2771 2253 2502 
L 1722 1734 
L 2541 480 
Q 2790 96 3066 96 
L 3066 0 
z
" transform="scale(0.015625)"/>
       <path id="STIXGeneral-Regular-66" d="M 134 2880 
L 659 2880 
Q 666 3264 710 3478 
Q 755 3693 883 3910 
Q 1152 4371 1786 4371 
Q 2074 4371 2262 4259 
Q 2451 4147 2451 3974 
Q 2451 3866 2374 3789 
Q 2298 3712 2182 3712 
Q 2029 3712 1894 3942 
Q 1741 4192 1555 4192 
Q 1197 4192 1197 3622 
L 1197 2880 
L 1978 2880 
L 1978 2675 
L 1197 2675 
L 1197 666 
Q 1197 307 1299 208 
Q 1402 109 1792 96 
L 1792 0 
L 128 0 
L 128 96 
Q 474 115 566 214 
Q 659 314 659 666 
L 659 2675 
L 134 2675 
L 134 2880 
z
" transform="scale(0.015625)"/>
       <path id="STIXGeneral-Regular-69" d="M 1152 4045 
Q 1152 3904 1056 3811 
Q 960 3718 819 3718 
Q 685 3718 592 3811 
Q 499 3904 499 4045 
Q 499 4179 595 4275 
Q 691 4371 826 4371 
Q 966 4371 1059 4275 
Q 1152 4179 1152 4045 
z
M 1619 0 
L 102 0 
L 102 96 
Q 435 115 521 211 
Q 608 307 608 666 
L 608 2118 
Q 608 2342 563 2432 
Q 518 2522 397 2522 
Q 243 2522 128 2490 
L 128 2592 
L 1120 2944 
L 1146 2918 
L 1146 672 
Q 1146 314 1226 218 
Q 1306 122 1619 96 
L 1619 0 
z
" transform="scale(0.015625)"/>
       <path id="STIXGeneral-Regular-67" d="M 3008 2483 
L 2477 2483 
Q 2598 2208 2598 1946 
Q 2598 1453 2265 1203 
Q 1933 954 1600 954 
Q 1530 954 1357 973 
L 1235 986 
Q 1107 947 979 812 
Q 851 678 851 582 
Q 851 435 1350 410 
L 2176 371 
Q 2528 358 2739 172 
Q 2950 -13 2950 -314 
Q 2950 -685 2566 -986 
Q 2035 -1395 1286 -1395 
Q 826 -1395 502 -1212 
Q 179 -1030 179 -774 
Q 179 -595 320 -419 
Q 461 -243 806 6 
Q 602 102 534 172 
Q 467 243 467 346 
Q 467 531 762 787 
Q 909 915 1037 1043 
Q 717 1203 579 1401 
Q 442 1600 442 1901 
Q 442 2336 752 2640 
Q 1062 2944 1510 2944 
Q 1766 2944 2022 2848 
L 2163 2797 
Q 2349 2733 2515 2733 
L 3008 2733 
L 3008 2483 
z
M 973 2163 
L 973 2144 
Q 973 1683 1155 1398 
Q 1338 1114 1632 1114 
Q 1850 1114 1978 1270 
Q 2106 1427 2106 1690 
Q 2106 2112 1914 2464 
Q 1754 2765 1446 2765 
Q 1222 2765 1097 2605 
Q 973 2445 973 2163 
z
M 2771 -410 
Q 2771 -230 2595 -163 
Q 2419 -96 1978 -96 
Q 1344 -96 941 -13 
Q 749 -243 688 -348 
Q 627 -454 627 -563 
Q 627 -774 880 -902 
Q 1133 -1030 1555 -1030 
Q 2099 -1030 2435 -860 
Q 2771 -691 2771 -410 
z
" transform="scale(0.015625)"/>
       <path id="STIXGeneral-Regular-62" d="M 979 4358 
L 979 2406 
Q 1082 2650 1315 2797 
Q 1549 2944 1843 2944 
Q 2349 2944 2672 2541 
Q 2995 2138 2995 1536 
Q 2995 832 2566 384 
Q 2138 -64 1498 -64 
Q 1107 -64 774 67 
Q 442 198 442 358 
L 442 3622 
Q 442 3859 384 3926 
Q 326 3994 128 3994 
Q 83 3994 19 3981 
L 19 4090 
L 211 4147 
Q 864 4346 947 4371 
L 979 4358 
z
M 979 2035 
L 979 474 
Q 979 326 1161 233 
Q 1344 141 1600 141 
Q 1978 141 2195 416 
Q 2432 710 2432 1261 
Q 2432 1888 2182 2240 
Q 1971 2541 1613 2541 
Q 1357 2541 1168 2390 
Q 979 2240 979 2035 
z
" transform="scale(0.015625)"/>
      </defs>
      <use xlink:href="#STIXGeneral-Regular-2a"/>
      <use xlink:href="#STIXGeneral-Regular-20" x="49.999985"/>
      <use xlink:href="#STIXGeneral-Regular-42" x="74.999969"/>
      <use xlink:href="#STIXGeneral-Regular-61" x="141.699966"/>
      <use xlink:href="#STIXGeneral-Regular-73" x="186.09996"/>
      <use xlink:href="#STIXGeneral-Regular-65" x="224.999954"/>
      <use xlink:href="#STIXGeneral-Regular-64" x="269.399948"/>
      <use xlink:href="#STIXGeneral-Regular-20" x="319.399933"/>
      <use xlink:href="#STIXGeneral-Regular-6f" x="344.399918"/>
      <use xlink:href="#STIXGeneral-Regular-6e" x="394.399902"/>
      <use xlink:href="#STIXGeneral-Regular-20" x="444.399887"/>
      <use xlink:href="#STIXGeneral-Regular-61" x="469.399872"/>
      <use xlink:href="#STIXGeneral-Regular-6e" x="513.799866"/>
      <use xlink:href="#STIXGeneral-Regular-6e" x="563.79985"/>
      <use xlink:href="#STIXGeneral-Regular-75" x="613.799835"/>
      <use xlink:href="#STIXGeneral-Regular-61" x="663.79982"/>
      <use xlink:href="#STIXGeneral-Regular-6c" x="708.199814"/>
      <use xlink:href="#STIXGeneral-Regular-20" x="735.999802"/>
      <use xlink:href="#STIXGeneral-Regular-6d" x="760.999786"/>
      <use xlink:href="#STIXGeneral-Regular-65" x="838.799774"/>
      <use xlink:href="#STIXGeneral-Regular-61" x="883.199768"/>
      <use xlink:href="#STIXGeneral-Regular-6e" x="927.599762"/>
      <use xlink:href="#STIXGeneral-Regular-20" x="977.599747"/>
      <use xlink:href="#STIXGeneral-Regular-65" x="1002.599731"/>
      <use xlink:href="#STIXGeneral-Regular-78" x="1046.999725"/>
      <use xlink:href="#STIXGeneral-Regular-70" x="1096.99971"/>
      <use xlink:href="#STIXGeneral-Regular-6f" x="1146.999695"/>
      <use xlink:href="#STIXGeneral-Regular-73" x="1196.99968"/>
      <use xlink:href="#STIXGeneral-Regular-75" x="1235.899673"/>
      <use xlink:href="#STIXGeneral-Regular-72" x="1285.899658"/>
      <use xlink:href="#STIXGeneral-Regular-65" x="1319.199646"/>
      <use xlink:href="#STIXGeneral-Regular-20" x="1363.59964"/>
      <use xlink:href="#STIXGeneral-Regular-6f" x="1388.599625"/>
      <use xlink:href="#STIXGeneral-Regular-66" x="1438.599609"/>
      <use xlink:href="#STIXGeneral-Regular-20" x="1471.899597"/>
      <use xlink:href="#STIXGeneral-Regular-31" x="1496.899582"/>
      <use xlink:href="#STIXGeneral-Regular-30" x="1546.899567"/>
      <use xlink:href="#STIXGeneral-Regular-20" x="1596.899551"/>
      <use xlink:href="#STIXGeneral-Regular-6d" x="1621.899536"/>
      <use xlink:href="#STIXGeneral-Regular-69" x="1699.699524"/>
      <use xlink:href="#STIXGeneral-Regular-63" x="1727.499512"/>
      <use xlink:href="#STIXGeneral-Regular-72" x="1771.899506"/>
      <use xlink:href="#STIXGeneral-Regular-6f" x="1805.199493"/>
      <use xlink:href="#STIXGeneral-Regular-67" x="1855.199478"/>
      <use xlink:href="#STIXGeneral-Regular-72" x="1905.199463"/>
      <use xlink:href="#STIXGeneral-Regular-61" x="1938.499451"/>
      <use xlink:href="#STIXGeneral-Regular-6d" x="1982.899445"/>
      <use xlink:href="#STIXGeneral-Regular-73" x="2060.699432"/>
      <use xlink:href="#STIXGeneral-Regular-20" x="2099.599426"/>
      <use xlink:href="#STIXGeneral-Regular-70" x="2124.599411"/>
      <use xlink:href="#STIXGeneral-Regular-65" x="2174.599396"/>
      <use xlink:href="#STIXGeneral-Regular-72" x="2218.99939"/>
      <use xlink:href="#STIXGeneral-Regular-20" x="2252.299377"/>
      <use xlink:href="#STIXGeneral-Regular-63" x="2277.299362"/>
      <use xlink:href="#STIXGeneral-Regular-75" x="2321.699356"/>
      <use xlink:href="#STIXGeneral-Regular-62" x="2371.699341"/>
      <use xlink:href="#STIXGeneral-Regular-69" x="2421.699326"/>
      <use xlink:href="#STIXGeneral-Regular-63" x="2449.499313"/>
      <use xlink:href="#STIXGeneral-Regular-20" x="2493.899307"/>
      <use xlink:href="#STIXGeneral-Regular-6d" x="2518.899292"/>
      <use xlink:href="#STIXGeneral-Regular-65" x="2596.69928"/>
      <use xlink:href="#STIXGeneral-Regular-74" x="2641.099274"/>
      <use xlink:href="#STIXGeneral-Regular-72" x="2668.899261"/>
      <use xlink:href="#STIXGeneral-Regular-65" x="2702.199249"/>
      <use xlink:href="#STIXGeneral-Regular-20" x="2746.599243"/>
     </g>
     <!--  Source: AQICN -->
     <g style="opacity: 0.6" transform="translate(9.504 337.195)scale(0.06 -0.06)">
      <defs>
       <path id="STIXGeneral-Regular-53" d="M 3002 2963 
L 2842 2963 
Q 2733 3360 2579 3565 
Q 2189 4064 1651 4064 
Q 1357 4064 1181 3894 
Q 1005 3725 1005 3456 
Q 1005 3328 1069 3206 
Q 1133 3085 1206 2998 
Q 1280 2912 1465 2784 
Q 1651 2656 1766 2589 
Q 1882 2522 2150 2362 
Q 2669 2061 2905 1763 
Q 3142 1466 3142 1107 
Q 3142 576 2771 243 
Q 2400 -90 1837 -90 
Q 1421 -90 1082 58 
Q 915 128 781 128 
Q 704 128 653 70 
Q 602 13 602 -83 
L 461 -83 
L 275 1274 
L 416 1274 
Q 845 141 1734 141 
Q 2074 141 2285 342 
Q 2496 544 2496 858 
Q 2496 1158 2310 1363 
Q 2003 1696 1235 2106 
Q 454 2522 454 3206 
Q 454 3718 768 4022 
Q 1082 4326 1568 4326 
Q 1907 4326 2240 4186 
Q 2413 4109 2522 4109 
Q 2688 4109 2726 4326 
L 2861 4326 
L 3002 2963 
z
" transform="scale(0.015625)"/>
       <path id="STIXGeneral-Regular-3a" d="M 1123 2832 
Q 1229 2726 1229 2579 
Q 1229 2432 1126 2329 
Q 1024 2227 877 2227 
Q 730 2227 624 2332 
Q 518 2438 518 2579 
Q 518 2733 620 2835 
Q 723 2938 877 2938 
Q 1018 2938 1123 2832 
z
M 1229 282 
Q 1229 141 1126 35 
Q 1024 -70 877 -70 
Q 730 -70 624 35 
Q 518 141 518 282 
Q 518 435 620 537 
Q 723 640 877 640 
Q 1018 640 1123 534 
Q 1229 429 1229 282 
z
" transform="scale(0.015625)"/>
       <path id="STIXGeneral-Regular-51" d="M 4486 -1133 
L 4179 -1133 
Q 2586 -1133 1958 -339 
L 1696 -6 
Q 1312 128 1097 265 
Q 883 403 704 640 
Q 218 1286 218 2125 
Q 218 3123 806 3724 
Q 1395 4326 2310 4326 
Q 3232 4326 3817 3721 
Q 4403 3117 4403 2131 
Q 4403 1568 4236 1158 
Q 4070 749 3712 410 
Q 3514 211 3293 115 
Q 3072 19 2726 -45 
Q 3066 -531 3491 -758 
Q 3917 -986 4486 -1018 
L 4486 -1133 
z
M 3674 2163 
Q 3674 2714 3520 3146 
Q 3366 3578 3091 3808 
Q 2746 4096 2291 4096 
Q 1741 4096 1370 3642 
Q 1178 3418 1062 3008 
Q 947 2598 947 2144 
Q 947 1158 1318 640 
Q 1472 416 1750 278 
Q 2029 141 2310 141 
Q 2867 141 3264 602 
Q 3456 819 3565 1248 
Q 3674 1677 3674 2163 
z
" transform="scale(0.015625)"/>
       <path id="STIXGeneral-Regular-49" d="M 2016 0 
L 115 0 
L 115 122 
Q 518 134 627 240 
Q 736 346 736 717 
L 736 3526 
Q 736 3898 633 3994 
Q 531 4090 115 4115 
L 115 4237 
L 2016 4237 
L 2016 4115 
Q 1613 4096 1501 3993 
Q 1389 3891 1389 3526 
L 1389 717 
Q 1389 358 1504 246 
Q 1619 134 2016 122 
L 2016 0 
z
" transform="scale(0.015625)"/>
       <path id="STIXGeneral-Regular-43" d="M 3930 838 
L 4051 723 
Q 3482 -90 2304 -90 
Q 1376 -90 794 480 
Q 179 1082 179 2080 
Q 179 3014 755 3661 
Q 1357 4326 2310 4326 
Q 2720 4326 3072 4230 
Q 3475 4115 3514 4115 
Q 3725 4115 3782 4326 
L 3910 4326 
L 3968 2874 
L 3821 2874 
Q 3718 3334 3488 3584 
Q 3034 4070 2458 4070 
Q 1747 4070 1334 3548 
Q 922 3027 922 2182 
Q 922 1152 1382 653 
Q 1811 192 2522 192 
Q 2944 192 3251 339 
Q 3558 486 3930 838 
z
" transform="scale(0.015625)"/>
       <path id="STIXGeneral-Regular-4e" d="M 4525 4237 
L 4525 4115 
Q 4198 4083 4102 4000 
Q 4000 3910 3958 3756 
Q 3917 3603 3917 3245 
L 3917 -70 
L 3802 -70 
L 979 3443 
L 979 960 
Q 979 474 1088 323 
Q 1197 173 1574 122 
L 1574 0 
L 77 0 
L 77 122 
Q 474 166 586 310 
Q 698 454 698 960 
L 698 3776 
Q 531 3981 416 4048 
Q 301 4115 77 4115 
L 77 4237 
L 1165 4237 
L 3635 1146 
L 3635 3322 
Q 3635 3808 3514 3949 
Q 3437 4032 3344 4061 
Q 3251 4090 3008 4115 
L 3008 4237 
L 4525 4237 
z
" transform="scale(0.015625)"/>
      </defs>
      <use xlink:href="#STIXGeneral-Regular-20"/>
      <use xlink:href="#STIXGeneral-Regular-53" x="24.999985"/>
      <use xlink:href="#STIXGeneral-Regular-6f" x="80.599976"/>
      <use xlink:href="#STIXGeneral-Regular-75" x="130.59996"/>
      <use xlink:href="#STIXGeneral-Regular-72" x="180.599945"/>
      <use xlink:href="#STIXGeneral-Regular-63" x="213.899933"/>
      <use xlink:href="#STIXGeneral-Regular-65" x="258.299927"/>
      <use xlink:href="#STIXGeneral-Regular-3a" x="302.699921"/>
      <use xlink:href="#STIXGeneral-Regular-20" x="330.499908"/>
      <use xlink:href="#STIXGeneral-Regular-41" x="355.499893"/>
      <use xlink:href="#STIXGeneral-Regular-51" x="427.699875"/>
      <use xlink:href="#STIXGeneral-Regular-49" x="499.899857"/>
      <use xlink:href="#STIXGeneral-Regular-43" x="533.199844"/>
      <use xlink:href="#STIXGeneral-Regular-4e" x="599.899841"/>
     </g>
    </g>
   </g>
   <g id="matplotlib.axis_2">
    <g id="ytick_1">
     <g id="line2d_14">
      <path d="M 9.504 307.872 
L 366.624 307.872 
" clip-path="url(#p43e196d2c3)" style="fill: none; stroke: #b1afb5; stroke-width: 0.2; stroke-linecap: square"/>
     </g>
     <g id="line2d_15"/>
     <g id="text_6">
      <!-- $\mathdefault{0}$ -->
      <g style="fill: #323034; opacity: 0.6" transform="translate(370.124 311.286844)scale(0.1 -0.1)">
       <use xlink:href="#STIXGeneral-Regular-30" transform="translate(0 0.40625)"/>
      </g>
     </g>
    </g>
    <g id="ytick_2">
     <g id="line2d_16">
      <path d="M 9.504 241.344 
L 366.624 241.344 
" clip-path="url(#p43e196d2c3)" style="fill: none; stroke: #b1afb5; stroke-width: 0.2; stroke-linecap: square"/>
     </g>
     <g id="line2d_17"/>
     <g id="text_7">
      <!-- $\mathdefault{50}$ -->
      <g style="fill: #323034; opacity: 0.6" transform="translate(370.124 244.758844)scale(0.1 -0.1)">
       <defs>
        <path id="STIXGeneral-Regular-35" d="M 2803 4358 
L 2573 3814 
Q 2534 3731 2400 3731 
L 1158 3731 
L 902 3187 
Q 1606 3053 1920 2896 
Q 2234 2739 2502 2368 
Q 2726 2061 2726 1555 
Q 2726 1094 2576 780 
Q 2426 467 2099 224 
Q 1664 -90 1011 -90 
Q 646 -90 422 19 
Q 198 128 198 307 
Q 198 550 486 550 
Q 717 550 960 352 
Q 1210 147 1414 147 
Q 1747 147 2012 480 
Q 2278 813 2278 1229 
Q 2278 1843 1850 2189 
Q 1293 2637 486 2637 
Q 410 2637 410 2688 
L 416 2720 
L 1114 4237 
L 2438 4237 
Q 2547 4237 2608 4269 
Q 2669 4301 2746 4403 
L 2803 4358 
z
" transform="scale(0.015625)"/>
       </defs>
       <use xlink:href="#STIXGeneral-Regular-35" transform="translate(0 0.203125)"/>
       <use xlink:href="#STIXGeneral-Regular-30" transform="translate(49.999985 0.203125)"/>
      </g>
     </g>
    </g>
    <g id="ytick_3">
     <g id="line2d_18">
      <path d="M 9.504 174.816 
L 366.624 174.816 
" clip-path="url(#p43e196d2c3)" style="fill: none; stroke: #b1afb5; stroke-width: 0.2; stroke-linecap: square"/>
     </g>
     <g id="line2d_19"/>
     <g id="text_8">
      <!-- $\mathdefault{100}$ -->
      <g style="fill: #323034; opacity: 0.6" transform="translate(370.124 178.230844)scale(0.1 -0.1)">
       <use xlink:href="#STIXGeneral-Regular-31" transform="translate(0 0.40625)"/>
       <use xlink:href="#STIXGeneral-Regular-30" transform="translate(49.999985 0.40625)"/>
       <use xlink:href="#STIXGeneral-Regular-30" transform="translate(99.999969 0.40625)"/>
      </g>
     </g>
    </g>
    <g id="ytick_4">
     <g id="line2d_20">
      <path d="M 9.504 108.288 
L 366.624 108.288 
" clip-path="url(#p43e196d2c3)" style="fill: none; stroke: #b1afb5; stroke-width: 0.2; stroke-linecap: square"/>
     </g>
     <g id="line2d_21"/>
     <g id="text_9">
      <!-- $\mathdefault{150}$ -->
      <g style="fill: #323034; opacity: 0.6" transform="translate(370.124 111.702844)scale(0.1 -0.1)">
       <use xlink:href="#STIXGeneral-Regular-31" transform="translate(0 0.203125)"/>
       <use xlink:href="#STIXGeneral-Regular-35" transform="translate(49.999985 0.203125)"/>
       <use xlink:href="#STIXGeneral-Regular-30" transform="translate(99.999969 0.203125)"/>
      </g>
     </g>
    </g>
    <g id="ytick_5">
     <g id="line2d_22">
      <path d="M 9.504 41.76 
L 366.624 41.76 
" clip-path="url(#p43e196d2c3)" style="fill: none; stroke: #b1afb5; stroke-width: 0.2; stroke-linecap: square"/>
     </g>
     <g id="line2d_23"/>
     <g id="text_10">
      <!-- $\mathdefault{200}$ -->
      <g style="fill: #323034; opacity: 0.6" transform="translate(370.124 45.174844)scale(0.1 -0.1)">
       <use xlink:href="#STIXGeneral-Regular-32" transform="translate(0 0.40625)"/>
       <use xlink:href="#STIXGeneral-Regular-30" transform="translate(49.999985 0.40625)"/>
       <use xlink:href="#STIXGeneral-Regular-30" transform="translate(99.999969 0.40625)"/>
      </g>
     </g>
    </g>
   </g>
   <g id="line2d_24">
    <path d="M 26.509714 171.0144 
L 27.436456 170.44416 
L 28.363198 143.4528 
L 29.28994 150.67584 
L 30.216682 163.98144 
L 31.143424 169.30368 
L 32.070166 178.23744 
L 33.92365 166.64256 
L 34.850392 172.72512 
L 35.777134 153.9072 
L 36.703875 144.59328 
L 37.630617 153.52704 
L 38.557359 144.97344 
L 39.484101 151.81632 
L 40.410843 175.7664 
L 41.337585 194.58432 
L 42.264327 220.62528 
L 43.191069 228.60864 
L 44.117811 219.4848 
L 45.044553 214.35264 
L 45.971295 221.00544 
L 47.824779 201.61728 
L 48.75152 189.45216 
L 49.678262 186.60096 
L 50.605004 182.60928 
L 51.531746 168.73344 
L 52.458488 168.73344 
L 53.38523 183.3696 
L 54.311972 176.52672 
L 55.238714 165.50208 
L 56.165456 156.18816 
L 57.092198 172.53504 
L 58.01894 197.6256 
L 58.945682 193.06368 
L 59.872424 180.5184 
L 60.799165 187.36128 
L 61.725907 188.1216 
L 62.652649 192.8736 
L 64.506133 176.90688 
L 65.432875 166.64256 
L 66.359617 167.40288 
L 67.286359 170.63424 
L 68.213101 182.79936 
L 69.139843 177.6672 
L 70.066585 163.4112 
L 70.993327 167.2128 
L 71.920069 174.24576 
L 72.84681 170.25408 
L 73.773552 160.17984 
L 74.700294 169.49376 
L 76.553778 212.832 
L 77.48052 221.95584 
L 78.407262 224.80704 
L 79.334004 233.36064 
L 80.260746 238.68288 
L 81.187488 219.29472 
L 83.040972 175.38624 
L 83.967714 146.87424 
L 84.894455 123.30432 
L 85.821197 105.4368 
L 86.747939 96.12288 
L 87.674681 102.20544 
L 88.601423 103.536 
L 89.528165 101.6352 
L 90.454907 106.3872 
L 91.381649 121.97376 
L 92.308391 131.28768 
L 93.235133 144.78336 
L 94.161875 155.23776 
L 95.088617 171.77472 
L 96.015359 181.65888 
L 96.9421 194.01408 
L 97.868842 192.49344 
L 98.795584 187.93152 
L 99.722326 189.072 
L 100.649068 191.54304 
L 101.57581 190.59264 
L 102.502552 198.00576 
L 103.429294 185.08032 
L 104.356036 183.3696 
L 105.282778 201.99744 
L 106.20952 207.1296 
L 107.136262 206.74944 
L 108.063004 211.8816 
L 108.989745 218.5344 
L 109.916487 228.22848 
L 110.843229 223.2864 
L 111.769971 203.70816 
L 112.696713 200.4768 
L 114.550197 186.41088 
L 115.476939 168.73344 
L 116.403681 182.03904 
L 117.330423 200.28672 
L 118.257165 209.60064 
L 119.183907 201.99744 
L 120.110649 191.35296 
L 121.03739 184.12992 
L 121.964132 181.84896 
L 122.890874 163.79136 
L 124.744358 146.87424 
L 125.6711 159.22944 
L 126.597842 173.67552 
L 127.524584 175.19616 
L 128.451326 189.45216 
L 129.378068 200.09664 
L 131.231552 207.31968 
L 132.158293 195.7248 
L 133.085035 182.22912 
L 134.011777 178.80768 
L 134.938519 177.6672 
L 135.865261 173.8656 
L 136.792003 171.39456 
L 137.718745 160.94016 
L 138.645487 153.14688 
L 139.572229 159.98976 
L 140.498971 172.34496 
L 141.425713 169.30368 
L 142.352455 170.82432 
L 143.279197 163.03104 
L 144.205938 171.58464 
L 145.13268 182.22912 
L 146.059422 187.55136 
L 146.986164 188.69184 
L 147.912906 185.08032 
L 148.839648 184.12992 
L 149.76639 182.98944 
L 150.693132 173.29536 
L 151.619874 155.23776 
L 152.546616 142.5024 
L 153.473358 133.9488 
L 154.4001 132.9984 
L 155.326842 127.10592 
L 156.253583 128.62656 
L 157.180325 137.94048 
L 158.107067 153.14688 
L 159.033809 156.18816 
L 159.960551 156.56832 
L 160.887293 155.04768 
L 161.814035 160.36992 
L 162.740777 169.49376 
L 163.667519 175.95648 
L 164.594261 178.23744 
L 165.521003 171.77472 
L 166.447745 162.08064 
L 167.374487 155.808 
L 169.22797 140.22144 
L 170.154712 135.46944 
L 171.081454 138.51072 
L 172.934938 169.1136 
L 176.641906 200.09664 
L 177.568648 198.95616 
L 178.49539 200.66688 
L 179.422132 194.96448 
L 180.348873 196.6752 
L 181.275615 206.74944 
L 182.202357 202.56768 
L 183.129099 195.91488 
L 184.055841 187.36128 
L 184.982583 174.816 
L 185.909325 177.09696 
L 186.836067 188.31168 
L 187.762809 184.70016 
L 188.689551 188.31168 
L 189.616293 187.74144 
L 190.543035 182.79936 
L 191.469777 198.576 
L 192.396518 202.18752 
L 193.32326 183.93984 
L 194.250002 176.33664 
L 195.176744 179.18784 
L 196.103486 173.48544 
L 197.030228 174.62592 
L 197.95697 171.77472 
L 198.883712 175.38624 
L 200.737196 206.36928 
L 201.663938 207.1296 
L 202.59068 218.15424 
L 203.517422 214.54272 
L 204.444163 213.21216 
L 206.297647 220.05504 
L 207.224389 220.4352 
L 208.151131 226.32768 
L 209.077873 233.55072 
L 210.004615 247.9968 
L 211.858099 222.52608 
L 212.784841 224.04672 
L 213.711583 224.04672 
L 214.638325 220.4352 
L 215.565067 218.34432 
L 216.491808 224.61696 
L 218.345292 231.26976 
L 219.272034 215.11296 
L 220.198776 202.3776 
L 221.125518 187.93152 
L 222.05226 170.064 
L 222.979002 149.1552 
L 223.905744 138.7008 
L 224.832486 142.88256 
L 225.759228 151.81632 
L 226.68597 144.78336 
L 227.612712 162.4608 
L 228.539453 176.7168 
L 230.392937 227.088 
L 231.319679 222.52608 
L 232.246421 206.74944 
L 233.173163 201.04704 
L 234.099905 172.53504 
L 235.026647 149.53536 
L 235.953389 138.32064 
L 236.880131 136.41984 
L 237.806873 142.31232 
L 238.733615 163.03104 
L 239.660357 172.9152 
L 241.51384 221.3856 
L 242.440582 219.29472 
L 243.367324 201.23712 
L 244.294066 175.38624 
L 245.220808 162.84096 
L 246.14755 175.00608 
L 247.074292 178.6176 
L 248.001034 173.10528 
L 249.854518 159.41952 
L 250.78126 154.8576 
L 251.708002 184.32 
L 252.634743 192.49344 
L 253.561485 179.94816 
L 254.488227 160.36992 
L 255.414969 146.87424 
L 256.341711 167.78304 
L 257.268453 191.54304 
L 258.195195 189.072 
L 260.048679 166.45248 
L 260.975421 164.55168 
L 261.902163 178.42752 
L 262.828905 179.94816 
L 263.755647 171.9648 
L 265.60913 145.73376 
L 266.535872 151.81632 
L 267.462614 167.97312 
L 268.389356 159.79968 
L 269.316098 136.99008 
L 270.24284 117.60192 
L 271.169582 104.86656 
L 272.096324 120.45312 
L 273.023066 140.03136 
L 273.949808 144.97344 
L 274.87655 152.57664 
L 276.730033 200.28672 
L 277.656775 217.01376 
L 278.583517 222.71616 
L 279.510259 218.15424 
L 280.437001 214.35264 
L 281.363743 222.336 
L 282.290485 218.34432 
L 283.217227 216.06336 
L 284.143969 217.77408 
L 285.070711 219.86496 
L 286.924195 228.22848 
L 287.850937 222.90624 
L 288.777678 214.16256 
L 289.70442 219.29472 
L 290.631162 221.19552 
L 291.557904 208.46016 
L 292.484646 187.1712 
L 293.411388 175.95648 
L 294.33813 161.13024 
L 295.264872 173.8656 
L 296.191614 172.53504 
L 297.118356 175.38624 
L 298.045098 187.55136 
L 298.97184 194.58432 
L 299.898582 204.46848 
L 300.825323 218.5344 
L 301.752065 210.36096 
L 302.678807 200.28672 
L 303.605549 186.03072 
L 304.532291 178.80768 
L 305.459033 187.74144 
L 306.385775 175.19616 
L 307.312517 164.55168 
L 308.239259 151.24608 
L 309.166001 144.4032 
L 310.092743 162.65088 
L 311.019485 178.04736 
L 312.872968 186.98112 
L 313.79971 186.79104 
L 314.726452 205.41888 
L 315.653194 220.81536 
L 316.579936 218.34432 
L 317.506678 213.7824 
L 318.43342 214.35264 
L 319.360162 223.66656 
L 320.286904 242.10432 
L 321.213646 245.90592 
L 322.140388 242.48448 
L 323.06713 228.79872 
L 325.847355 181.65888 
L 326.774097 181.27872 
L 327.700839 176.33664 
L 328.627581 177.28704 
L 329.554323 182.22912 
L 330.481065 182.4192 
L 331.407807 176.33664 
L 332.334549 168.54336 
L 334.188033 128.05632 
L 335.114775 104.67648 
L 336.041517 92.70144 
L 336.968258 99.35424 
L 337.895 122.92416 
L 338.821742 136.99008 
L 339.748484 142.88256 
L 340.675226 146.87424 
L 341.601968 171.39456 
L 342.52871 190.78272 
L 343.455452 197.24544 
L 344.382194 183.17952 
L 345.308936 171.39456 
L 346.235678 173.67552 
L 347.16242 187.36128 
L 348.089162 178.42752 
L 349.942645 140.22144 
L 351.796129 91.75104 
L 352.722871 62.6688 
L 353.649613 46.512 
L 354.576355 58.48704 
L 356.429839 106.95744 
L 358.283323 162.84096 
L 359.210065 186.98112 
L 360.136807 190.59264 
L 361.063548 183.17952 
L 361.99029 174.24576 
L 363.843774 143.64288 
L 364.770516 131.47776 
L 365.697258 122.35392 
L 366.624 117.98208 
L 366.624 117.98208 
" clip-path="url(#p43e196d2c3)" style="fill: none; stroke: #12549a; stroke-width: 1.5; stroke-linecap: square"/>
   </g>
   <g id="patch_3">
    <path d="M 259.221748 76.04459 
Q 269.021228 46.863042 350.756649 46.519927 
" style="fill: none; stroke: #000000; stroke-width: 0.8; stroke-linecap: round"/>
    <path d="M 347.149124 44.735055 
L 350.756649 46.519927 
L 347.164236 48.335024 
" style="fill: none; stroke: #000000; stroke-width: 0.8; stroke-linecap: round"/>
   </g>
   <g id="text_11">
    <!-- Worst storm in a decade hits Beijing -->
    <g style="fill: #323034" transform="translate(192.156801 86.512)scale(0.09 -0.09)">
     <defs>
      <path id="STIXGeneral-Regular-57" d="M 5965 4237 
L 5965 4115 
Q 5709 4064 5616 3990 
Q 5523 3917 5434 3667 
Q 4704 1709 4128 -70 
L 4032 -70 
Q 3642 1011 3008 2637 
L 2022 -70 
L 1926 -70 
Q 1709 576 1277 1753 
Q 845 2931 698 3347 
Q 538 3808 406 3958 
Q 275 4109 32 4115 
L 32 4237 
L 1594 4237 
L 1594 4115 
Q 1357 4109 1270 4064 
Q 1184 4019 1184 3917 
Q 1184 3808 1254 3616 
L 2176 1210 
L 2842 3021 
L 2662 3501 
Q 2509 3917 2400 4013 
Q 2291 4109 2010 4115 
L 2010 4237 
L 3706 4237 
L 3706 4115 
Q 3213 4102 3213 3891 
Q 3213 3808 3322 3520 
L 4237 1190 
L 5043 3360 
Q 5152 3667 5152 3853 
Q 5152 4109 4704 4115 
L 4704 4237 
L 5965 4237 
z
" transform="scale(0.015625)"/>
      <path id="STIXGeneral-Regular-68" d="M 3117 0 
L 1760 0 
L 1760 96 
Q 2042 128 2118 224 
Q 2195 320 2195 653 
L 2195 1920 
Q 2195 2598 1722 2598 
Q 1530 2598 1370 2508 
Q 1210 2419 1005 2195 
L 1005 653 
Q 1005 320 1081 224 
Q 1158 128 1440 96 
L 1440 0 
L 58 0 
L 58 96 
Q 333 134 400 224 
Q 467 314 467 653 
L 467 3667 
Q 467 3872 406 3933 
Q 346 3994 141 3994 
Q 83 3994 64 3987 
L 64 4090 
L 237 4141 
Q 730 4288 973 4371 
L 1005 4352 
L 1005 2406 
Q 1229 2694 1446 2819 
Q 1664 2944 1946 2944 
Q 2733 2944 2733 1926 
L 2733 653 
Q 2733 320 2793 233 
Q 2854 147 3117 96 
L 3117 0 
z
" transform="scale(0.015625)"/>
      <path id="STIXGeneral-Regular-6a" d="M 1242 4045 
Q 1242 3904 1146 3811 
Q 1050 3718 909 3718 
Q 774 3718 681 3811 
Q 589 3904 589 4045 
Q 589 4179 685 4275 
Q 781 4371 915 4371 
Q 1050 4371 1146 4275 
Q 1242 4179 1242 4045 
z
M 1235 2925 
L 1235 0 
Q 1235 -685 956 -1040 
Q 678 -1395 147 -1395 
Q -115 -1395 -281 -1296 
Q -448 -1197 -448 -1043 
Q -448 -941 -371 -867 
Q -294 -794 -186 -794 
Q -38 -794 122 -998 
Q 269 -1178 390 -1178 
Q 538 -1178 608 -1062 
Q 698 -902 698 -288 
L 698 2138 
Q 698 2522 493 2522 
Q 339 2522 237 2502 
L 205 2496 
L 205 2598 
Q 717 2758 1203 2944 
L 1235 2925 
z
" transform="scale(0.015625)"/>
     </defs>
     <use xlink:href="#STIXGeneral-Regular-57"/>
     <use xlink:href="#STIXGeneral-Regular-6f" x="94.399994"/>
     <use xlink:href="#STIXGeneral-Regular-72" x="144.399979"/>
     <use xlink:href="#STIXGeneral-Regular-73" x="177.699966"/>
     <use xlink:href="#STIXGeneral-Regular-74" x="216.59996"/>
     <use xlink:href="#STIXGeneral-Regular-20" x="244.399948"/>
     <use xlink:href="#STIXGeneral-Regular-73" x="269.399933"/>
     <use xlink:href="#STIXGeneral-Regular-74" x="308.299927"/>
     <use xlink:href="#STIXGeneral-Regular-6f" x="336.099915"/>
     <use xlink:href="#STIXGeneral-Regular-72" x="386.099899"/>
     <use xlink:href="#STIXGeneral-Regular-6d" x="419.399887"/>
     <use xlink:href="#STIXGeneral-Regular-20" x="497.199875"/>
     <use xlink:href="#STIXGeneral-Regular-69" x="522.19986"/>
     <use xlink:href="#STIXGeneral-Regular-6e" x="549.999847"/>
     <use xlink:href="#STIXGeneral-Regular-20" x="599.999832"/>
     <use xlink:href="#STIXGeneral-Regular-61" x="624.999817"/>
     <use xlink:href="#STIXGeneral-Regular-20" x="669.399811"/>
     <use xlink:href="#STIXGeneral-Regular-64" x="694.399796"/>
     <use xlink:href="#STIXGeneral-Regular-65" x="744.39978"/>
     <use xlink:href="#STIXGeneral-Regular-63" x="788.799774"/>
     <use xlink:href="#STIXGeneral-Regular-61" x="833.199768"/>
     <use xlink:href="#STIXGeneral-Regular-64" x="877.599762"/>
     <use xlink:href="#STIXGeneral-Regular-65" x="927.599747"/>
     <use xlink:href="#STIXGeneral-Regular-20" x="971.999741"/>
     <use xlink:href="#STIXGeneral-Regular-68" x="996.999725"/>
     <use xlink:href="#STIXGeneral-Regular-69" x="1046.99971"/>
     <use xlink:href="#STIXGeneral-Regular-74" x="1074.799698"/>
     <use xlink:href="#STIXGeneral-Regular-73" x="1102.599686"/>
     <use xlink:href="#STIXGeneral-Regular-20" x="1141.49968"/>
     <use xlink:href="#STIXGeneral-Regular-42" x="1166.499664"/>
     <use xlink:href="#STIXGeneral-Regular-65" x="1233.199661"/>
     <use xlink:href="#STIXGeneral-Regular-69" x="1277.599655"/>
     <use xlink:href="#STIXGeneral-Regular-6a" x="1305.399643"/>
     <use xlink:href="#STIXGeneral-Regular-69" x="1333.199631"/>
     <use xlink:href="#STIXGeneral-Regular-6e" x="1360.999619"/>
     <use xlink:href="#STIXGeneral-Regular-67" x="1410.999603"/>
    </g>
   </g>
   <g id="text_12">
    <!-- WHO safe level* -->
    <g style="fill: #323034" transform="translate(159.281156 305.21088)scale(0.09 -0.09)">
     <defs>
      <path id="STIXGeneral-Bold-57" d="M 6278 4326 
L 6278 4166 
Q 5958 4134 5837 3757 
L 4557 -96 
L 4384 -96 
L 3290 2957 
L 2099 -96 
L 1920 -96 
L 563 3757 
Q 480 3994 403 4064 
Q 326 4134 122 4166 
L 122 4326 
L 2003 4326 
L 2003 4166 
Q 1754 4147 1674 4092 
Q 1594 4038 1594 3898 
Q 1594 3814 1638 3686 
L 2406 1357 
L 3162 3328 
L 2938 3942 
Q 2861 4147 2477 4166 
L 2477 4326 
L 4474 4326 
L 4474 4166 
L 4390 4160 
Q 4179 4147 4096 4096 
Q 4013 4045 4013 3930 
Q 4013 3846 4102 3571 
L 4794 1421 
L 5510 3616 
Q 5555 3744 5555 3885 
Q 5555 4032 5462 4093 
Q 5370 4154 5114 4166 
L 5114 4326 
L 6278 4326 
z
" transform="scale(0.015625)"/>
      <path id="STIXGeneral-Bold-48" d="M 4858 0 
L 2688 0 
L 2688 160 
Q 3034 198 3146 291 
Q 3258 384 3258 627 
L 3258 2086 
L 1715 2086 
L 1715 627 
Q 1715 371 1824 284 
Q 1933 198 2285 160 
L 2285 0 
L 134 0 
L 134 160 
Q 474 205 576 291 
Q 678 378 678 627 
L 678 3693 
Q 678 3955 569 4044 
Q 461 4134 134 4166 
L 134 4326 
L 2285 4326 
L 2285 4166 
Q 1946 4141 1830 4048 
Q 1715 3955 1715 3693 
L 1715 2387 
L 3258 2387 
L 3258 3693 
Q 3258 3955 3142 4048 
Q 3027 4141 2688 4166 
L 2688 4326 
L 4858 4326 
L 4858 4166 
Q 4531 4141 4412 4045 
Q 4294 3949 4294 3693 
L 4294 627 
Q 4294 378 4400 291 
Q 4506 205 4858 160 
L 4858 0 
z
" transform="scale(0.015625)"/>
      <path id="STIXGeneral-Bold-4f" d="M 4755 2144 
Q 4755 1146 4118 512 
Q 3482 -122 2483 -122 
Q 1491 -122 857 512 
Q 224 1146 224 2138 
Q 224 3155 870 3788 
Q 1517 4422 2522 4422 
Q 3488 4422 4121 3779 
Q 4755 3136 4755 2144 
z
M 3622 2099 
Q 3622 3123 3324 3667 
Q 3027 4211 2464 4211 
Q 1933 4211 1645 3664 
Q 1357 3117 1357 2112 
Q 1357 1107 1651 598 
Q 1946 90 2496 90 
Q 3046 90 3334 602 
Q 3622 1114 3622 2099 
z
" transform="scale(0.015625)"/>
      <path id="STIXGeneral-Bold-20" transform="scale(0.015625)"/>
      <path id="STIXGeneral-Bold-73" d="M 2176 2086 
L 2016 2086 
Q 1894 2445 1715 2611 
Q 1498 2816 1235 2816 
Q 1056 2816 934 2710 
Q 813 2605 813 2445 
Q 813 2278 957 2147 
Q 1101 2016 1427 1882 
Q 1907 1683 2108 1452 
Q 2310 1222 2310 883 
Q 2310 454 2035 182 
Q 1760 -90 1325 -90 
Q 992 -90 634 58 
Q 538 96 486 96 
Q 416 96 320 -83 
L 160 -83 
L 160 973 
L 339 973 
Q 544 128 1216 128 
Q 1434 128 1565 243 
Q 1696 358 1696 544 
Q 1696 698 1555 829 
Q 1414 960 1082 1101 
Q 602 1306 387 1539 
Q 173 1773 173 2093 
Q 173 2496 457 2761 
Q 742 3027 1178 3027 
Q 1395 3027 1677 2931 
Q 1818 2886 1875 2886 
Q 1984 2886 2035 3014 
L 2176 3014 
L 2176 2086 
z
" transform="scale(0.015625)"/>
      <path id="STIXGeneral-Bold-61" d="M 3027 410 
L 3123 275 
Q 2784 -90 2406 -90 
Q 2170 -90 2051 9 
Q 1933 109 1882 352 
Q 1395 -90 864 -90 
Q 544 -90 352 80 
Q 160 250 160 589 
Q 160 1018 589 1306 
Q 909 1517 1875 1792 
L 1875 2227 
Q 1875 2541 1756 2681 
Q 1638 2822 1357 2822 
Q 1178 2822 1059 2758 
Q 941 2694 941 2586 
Q 941 2515 1011 2438 
Q 1133 2291 1133 2170 
Q 1133 2003 1011 1894 
Q 890 1786 698 1786 
Q 499 1786 390 1901 
Q 282 2016 282 2221 
Q 282 2598 618 2812 
Q 954 3027 1504 3027 
Q 2093 3027 2425 2803 
Q 2758 2579 2758 2170 
L 2758 499 
Q 2758 320 2893 320 
Q 2938 320 2963 346 
L 3027 410 
z
M 1875 621 
L 1875 1568 
Q 1094 1350 1094 794 
Q 1094 589 1187 477 
Q 1280 365 1427 365 
Q 1696 365 1875 621 
z
" transform="scale(0.015625)"/>
      <path id="STIXGeneral-Bold-66" d="M 90 2950 
L 454 2950 
Q 454 3789 710 4096 
Q 979 4422 1574 4422 
Q 1984 4422 2237 4243 
Q 2490 4064 2490 3782 
Q 2490 3603 2381 3488 
Q 2272 3373 2093 3373 
Q 1933 3373 1821 3481 
Q 1709 3590 1709 3738 
Q 1709 3866 1779 3971 
Q 1850 4077 1850 4102 
Q 1850 4224 1664 4224 
Q 1491 4224 1417 4112 
Q 1344 4000 1344 3718 
L 1344 2950 
L 1894 2950 
L 1894 2669 
L 1344 2669 
L 1344 685 
Q 1344 365 1440 262 
Q 1536 160 1869 154 
L 1869 0 
L 90 0 
L 90 154 
Q 307 179 380 259 
Q 454 339 454 557 
L 454 2669 
L 90 2669 
L 90 2950 
z
" transform="scale(0.015625)"/>
      <path id="STIXGeneral-Bold-65" d="M 2579 806 
L 2733 717 
Q 2451 269 2166 89 
Q 1882 -90 1466 -90 
Q 890 -90 525 342 
Q 160 774 160 1434 
Q 160 2150 528 2588 
Q 896 3027 1498 3027 
Q 2029 3027 2317 2707 
Q 2656 2336 2694 1568 
L 1082 1568 
Q 1101 1299 1133 1116 
Q 1165 934 1241 748 
Q 1318 563 1468 467 
Q 1619 371 1843 371 
Q 2048 371 2214 470 
Q 2381 570 2579 806 
z
M 1907 1805 
L 1907 1939 
Q 1907 2406 1850 2528 
Q 1773 2688 1699 2758 
Q 1626 2829 1498 2829 
Q 1267 2829 1158 2595 
Q 1050 2362 1050 1805 
L 1907 1805 
z
" transform="scale(0.015625)"/>
      <path id="STIXGeneral-Bold-6c" d="M 1638 0 
L 102 0 
L 102 154 
Q 429 179 429 557 
L 429 3757 
Q 429 4147 96 4173 
L 96 4326 
L 1318 4326 
L 1318 557 
Q 1318 346 1395 253 
Q 1472 160 1638 154 
L 1638 0 
z
" transform="scale(0.015625)"/>
      <path id="STIXGeneral-Bold-76" d="M 3104 2950 
L 3104 2797 
Q 2950 2784 2886 2723 
Q 2822 2662 2733 2445 
L 1709 -90 
L 1542 -90 
L 774 1805 
Q 474 2547 352 2707 
Q 301 2771 134 2797 
L 134 2950 
L 1734 2950 
L 1734 2797 
L 1619 2784 
Q 1395 2758 1395 2630 
Q 1395 2573 1453 2432 
L 1958 1133 
L 2419 2298 
Q 2490 2464 2490 2586 
Q 2490 2701 2416 2742 
Q 2342 2784 2138 2797 
L 2138 2950 
L 3104 2950 
z
" transform="scale(0.015625)"/>
      <path id="STIXGeneral-Bold-2a" d="M 1664 3181 
L 1709 3162 
Q 1901 3315 1977 3388 
Q 2054 3462 2170 3635 
Q 2259 3776 2339 3827 
Q 2419 3878 2528 3878 
Q 2662 3878 2764 3785 
Q 2867 3693 2867 3571 
Q 2867 3424 2704 3328 
Q 2541 3232 2342 3232 
Q 2131 3232 2032 3203 
Q 1933 3174 1773 3066 
L 1773 3014 
Q 2099 2861 2394 2835 
Q 2650 2816 2755 2742 
Q 2861 2669 2861 2509 
Q 2861 2368 2777 2278 
Q 2694 2189 2547 2189 
Q 2426 2189 2339 2262 
Q 2253 2336 2067 2586 
Q 1971 2720 1904 2777 
Q 1837 2835 1702 2906 
L 1664 2880 
Q 1670 2675 1702 2566 
Q 1734 2458 1837 2253 
Q 1933 2067 1933 1965 
Q 1933 1824 1840 1728 
Q 1747 1632 1606 1632 
Q 1472 1632 1382 1725 
Q 1293 1818 1293 1965 
Q 1293 2074 1395 2259 
Q 1485 2413 1510 2528 
Q 1536 2643 1542 2880 
L 1504 2906 
Q 1318 2765 1238 2685 
Q 1158 2605 1030 2426 
Q 934 2285 860 2237 
Q 787 2189 678 2189 
Q 544 2189 451 2275 
Q 358 2362 358 2496 
Q 358 2797 896 2835 
Q 1101 2848 1197 2883 
Q 1293 2918 1446 3021 
L 1446 3066 
Q 1146 3200 794 3232 
Q 358 3264 358 3571 
Q 358 3712 441 3795 
Q 525 3878 659 3878 
Q 794 3878 877 3820 
Q 960 3763 1056 3603 
Q 1165 3418 1245 3341 
Q 1325 3264 1510 3162 
L 1542 3181 
Q 1536 3392 1513 3488 
Q 1491 3584 1395 3763 
Q 1280 3968 1280 4102 
Q 1280 4243 1373 4332 
Q 1466 4422 1613 4422 
Q 1747 4422 1833 4326 
Q 1920 4230 1920 4070 
Q 1920 3974 1805 3770 
Q 1664 3533 1664 3277 
L 1664 3181 
z
" transform="scale(0.015625)"/>
     </defs>
     <use xlink:href="#STIXGeneral-Bold-57"/>
     <use xlink:href="#STIXGeneral-Bold-48" x="99.999985"/>
     <use xlink:href="#STIXGeneral-Bold-4f" x="177.799973"/>
     <use xlink:href="#STIXGeneral-Bold-20" x="255.59996"/>
     <use xlink:href="#STIXGeneral-Bold-73" x="280.599945"/>
     <use xlink:href="#STIXGeneral-Bold-61" x="319.499939"/>
     <use xlink:href="#STIXGeneral-Bold-66" x="369.499924"/>
     <use xlink:href="#STIXGeneral-Bold-65" x="402.799911"/>
     <use xlink:href="#STIXGeneral-Bold-20" x="447.199905"/>
     <use xlink:href="#STIXGeneral-Bold-6c" x="472.19989"/>
     <use xlink:href="#STIXGeneral-Bold-65" x="499.999878"/>
     <use xlink:href="#STIXGeneral-Bold-76" x="544.399872"/>
     <use xlink:href="#STIXGeneral-Bold-65" x="594.399857"/>
     <use xlink:href="#STIXGeneral-Bold-6c" x="638.79985"/>
     <use xlink:href="#STIXGeneral-Bold-2a" x="666.599838"/>
    </g>
   </g>
   <g id="text_13">
    <!-- PM2.5 rolling 7-day average (micrograms per cubic metre) -->
    <g style="fill: #323034; opacity: 0.6" transform="translate(9.504 35.76)scale(0.1 -0.1)">
     <defs>
      <path id="STIXGeneral-Regular-50" d="M 102 4237 
L 1760 4237 
Q 2669 4237 3149 3834 
Q 3469 3565 3469 3072 
Q 3469 2560 3104 2234 
Q 2835 1990 2553 1916 
Q 2272 1843 1734 1843 
Q 1549 1843 1293 1862 
L 1293 717 
Q 1293 352 1398 246 
Q 1504 141 1894 122 
L 1894 0 
L 102 0 
L 102 122 
Q 474 147 557 256 
Q 640 365 640 781 
L 640 3526 
Q 640 3885 547 3987 
Q 454 4090 102 4115 
L 102 4237 
z
M 1293 3770 
L 1293 2118 
Q 1510 2099 1683 2099 
Q 2202 2099 2486 2352 
Q 2771 2605 2771 3040 
Q 2771 3558 2476 3779 
Q 2182 4000 1517 4000 
Q 1382 4000 1337 3952 
Q 1293 3904 1293 3770 
z
" transform="scale(0.015625)"/>
      <path id="STIXGeneral-Regular-4d" d="M 5530 0 
L 3738 0 
L 3738 122 
Q 4115 147 4214 265 
Q 4314 384 4314 787 
L 4314 3661 
L 2682 0 
L 2592 0 
L 979 3514 
L 979 966 
Q 979 448 1088 294 
Q 1197 141 1574 122 
L 1574 0 
L 77 0 
L 77 122 
Q 358 141 480 205 
Q 602 269 650 432 
Q 698 595 698 966 
L 698 3514 
Q 698 3878 589 3984 
Q 480 4090 90 4115 
L 90 4237 
L 1357 4237 
L 2835 1024 
L 4250 4237 
L 5523 4237 
L 5523 4115 
Q 5178 4109 5072 3993 
Q 4966 3878 4966 3520 
L 4966 717 
Q 4966 378 5072 262 
Q 5178 147 5530 122 
L 5530 0 
z
" transform="scale(0.015625)"/>
      <path id="STIXGeneral-Regular-2e" d="M 1158 275 
Q 1158 134 1052 32 
Q 947 -70 800 -70 
Q 653 -70 550 32 
Q 448 134 448 281 
Q 448 429 553 534 
Q 659 640 806 640 
Q 947 640 1052 531 
Q 1158 422 1158 275 
z
" transform="scale(0.015625)"/>
      <path id="STIXGeneral-Regular-37" d="M 2874 4134 
L 1517 -51 
L 1101 -51 
L 2368 3763 
L 992 3763 
Q 717 3763 582 3667 
Q 448 3571 243 3238 
L 128 3296 
L 512 4237 
L 2874 4237 
L 2874 4134 
z
" transform="scale(0.015625)"/>
      <path id="STIXGeneral-Regular-2d" d="M 1824 1242 
L 250 1242 
L 250 1645 
L 1824 1645 
L 1824 1242 
z
" transform="scale(0.015625)"/>
      <path id="STIXGeneral-Regular-79" d="M 3040 2880 
L 3040 2784 
Q 2925 2771 2854 2700 
Q 2784 2630 2720 2458 
L 1760 -160 
Q 1510 -838 1257 -1116 
Q 1005 -1395 640 -1395 
Q 435 -1395 313 -1289 
Q 192 -1184 192 -1024 
Q 192 -902 272 -816 
Q 352 -730 467 -730 
Q 653 -730 800 -813 
Q 883 -858 966 -858 
Q 1101 -858 1286 -576 
Q 1376 -448 1459 -211 
Q 1542 26 1542 115 
Q 1542 198 1274 762 
L 429 2566 
Q 346 2752 90 2790 
L 90 2880 
L 1402 2880 
L 1402 2784 
Q 1197 2778 1117 2739 
Q 1037 2701 1037 2611 
Q 1037 2541 1120 2349 
L 1837 749 
L 2458 2515 
Q 2483 2573 2483 2630 
Q 2483 2784 2189 2784 
L 2189 2880 
L 3040 2880 
z
" transform="scale(0.015625)"/>
      <path id="STIXGeneral-Regular-76" d="M 3053 2880 
L 3053 2784 
Q 2906 2771 2835 2688 
Q 2765 2605 2637 2285 
L 1818 230 
Q 1690 -90 1638 -90 
Q 1587 -90 1523 77 
Q 1510 96 1497 141 
Q 1485 186 1472 211 
L 704 2048 
Q 499 2534 403 2652 
Q 307 2771 122 2784 
L 122 2880 
L 1376 2880 
L 1376 2784 
Q 1210 2771 1146 2732 
Q 1082 2694 1082 2611 
Q 1082 2509 1139 2368 
L 1792 730 
L 2426 2387 
Q 2464 2483 2464 2579 
Q 2464 2758 2163 2784 
L 2163 2880 
L 3053 2880 
z
" transform="scale(0.015625)"/>
      <path id="STIXGeneral-Regular-28" d="M 1946 -1030 
L 1869 -1133 
Q 1126 -710 716 32 
Q 307 774 307 1613 
Q 307 3386 1888 4326 
L 1946 4224 
Q 1293 3667 1075 3126 
Q 858 2586 858 1632 
Q 858 685 1082 96 
Q 1306 -493 1946 -1030 
z
" transform="scale(0.015625)"/>
      <path id="STIXGeneral-Regular-29" d="M 186 4224 
L 262 4326 
Q 992 3891 1408 3148 
Q 1824 2406 1824 1581 
Q 1824 -166 243 -1133 
L 186 -1030 
Q 845 -486 1059 54 
Q 1274 595 1274 1562 
Q 1274 2534 1059 3120 
Q 845 3706 186 4224 
z
" transform="scale(0.015625)"/>
     </defs>
     <use xlink:href="#STIXGeneral-Regular-50"/>
     <use xlink:href="#STIXGeneral-Regular-4d" x="55.699997"/>
     <use xlink:href="#STIXGeneral-Regular-32" x="144.599991"/>
     <use xlink:href="#STIXGeneral-Regular-2e" x="194.599976"/>
     <use xlink:href="#STIXGeneral-Regular-35" x="219.59996"/>
     <use xlink:href="#STIXGeneral-Regular-20" x="269.599945"/>
     <use xlink:href="#STIXGeneral-Regular-72" x="294.59993"/>
     <use xlink:href="#STIXGeneral-Regular-6f" x="327.899918"/>
     <use xlink:href="#STIXGeneral-Regular-6c" x="377.899902"/>
     <use xlink:href="#STIXGeneral-Regular-6c" x="405.69989"/>
     <use xlink:href="#STIXGeneral-Regular-69" x="433.499878"/>
     <use xlink:href="#STIXGeneral-Regular-6e" x="461.299866"/>
     <use xlink:href="#STIXGeneral-Regular-67" x="511.29985"/>
     <use xlink:href="#STIXGeneral-Regular-20" x="561.299835"/>
     <use xlink:href="#STIXGeneral-Regular-37" x="586.29982"/>
     <use xlink:href="#STIXGeneral-Regular-2d" x="636.299805"/>
     <use xlink:href="#STIXGeneral-Regular-64" x="669.599792"/>
     <use xlink:href="#STIXGeneral-Regular-61" x="719.599777"/>
     <use xlink:href="#STIXGeneral-Regular-79" x="763.999771"/>
     <use xlink:href="#STIXGeneral-Regular-20" x="813.999756"/>
     <use xlink:href="#STIXGeneral-Regular-61" x="838.999741"/>
     <use xlink:href="#STIXGeneral-Regular-76" x="883.399734"/>
     <use xlink:href="#STIXGeneral-Regular-65" x="933.399719"/>
     <use xlink:href="#STIXGeneral-Regular-72" x="977.799713"/>
     <use xlink:href="#STIXGeneral-Regular-61" x="1011.099701"/>
     <use xlink:href="#STIXGeneral-Regular-67" x="1055.499695"/>
     <use xlink:href="#STIXGeneral-Regular-65" x="1105.49968"/>
     <use xlink:href="#STIXGeneral-Regular-20" x="1149.899673"/>
     <use xlink:href="#STIXGeneral-Regular-28" x="1174.899658"/>
     <use xlink:href="#STIXGeneral-Regular-6d" x="1208.199646"/>
     <use xlink:href="#STIXGeneral-Regular-69" x="1285.999634"/>
     <use xlink:href="#STIXGeneral-Regular-63" x="1313.799622"/>
     <use xlink:href="#STIXGeneral-Regular-72" x="1358.199615"/>
     <use xlink:href="#STIXGeneral-Regular-6f" x="1391.499603"/>
     <use xlink:href="#STIXGeneral-Regular-67" x="1441.499588"/>
     <use xlink:href="#STIXGeneral-Regular-72" x="1491.499573"/>
     <use xlink:href="#STIXGeneral-Regular-61" x="1524.799561"/>
     <use xlink:href="#STIXGeneral-Regular-6d" x="1569.199554"/>
     <use xlink:href="#STIXGeneral-Regular-73" x="1646.999542"/>
     <use xlink:href="#STIXGeneral-Regular-20" x="1685.899536"/>
     <use xlink:href="#STIXGeneral-Regular-70" x="1710.899521"/>
     <use xlink:href="#STIXGeneral-Regular-65" x="1760.899506"/>
     <use xlink:href="#STIXGeneral-Regular-72" x="1805.2995"/>
     <use xlink:href="#STIXGeneral-Regular-20" x="1838.599487"/>
     <use xlink:href="#STIXGeneral-Regular-63" x="1863.599472"/>
     <use xlink:href="#STIXGeneral-Regular-75" x="1907.999466"/>
     <use xlink:href="#STIXGeneral-Regular-62" x="1957.999451"/>
     <use xlink:href="#STIXGeneral-Regular-69" x="2007.999435"/>
     <use xlink:href="#STIXGeneral-Regular-63" x="2035.799423"/>
     <use xlink:href="#STIXGeneral-Regular-20" x="2080.199417"/>
     <use xlink:href="#STIXGeneral-Regular-6d" x="2105.199402"/>
     <use xlink:href="#STIXGeneral-Regular-65" x="2182.99939"/>
     <use xlink:href="#STIXGeneral-Regular-74" x="2227.399384"/>
     <use xlink:href="#STIXGeneral-Regular-72" x="2255.199371"/>
     <use xlink:href="#STIXGeneral-Regular-65" x="2288.499359"/>
     <use xlink:href="#STIXGeneral-Regular-29" x="2332.899353"/>
    </g>
   </g>
  </g>
  <g id="text_14">
   <!-- Severe dust storm causes sharp rise in Beijing's air pollution -->
   <g style="fill: #323034" transform="translate(7.2 15.395625)scale(0.12 -0.12)">
    <defs>
     <path id="STIXGeneral-Regular-27" d="M 646 2758 
L 512 2758 
Q 307 3872 307 4058 
Q 307 4173 387 4249 
Q 467 4326 582 4326 
Q 710 4326 780 4256 
Q 851 4186 851 4070 
Q 851 3782 646 2758 
z
" transform="scale(0.015625)"/>
    </defs>
    <use xlink:href="#STIXGeneral-Regular-53"/>
    <use xlink:href="#STIXGeneral-Regular-65" x="55.599991"/>
    <use xlink:href="#STIXGeneral-Regular-76" x="99.999985"/>
    <use xlink:href="#STIXGeneral-Regular-65" x="149.999969"/>
    <use xlink:href="#STIXGeneral-Regular-72" x="194.399963"/>
    <use xlink:href="#STIXGeneral-Regular-65" x="227.699951"/>
    <use xlink:href="#STIXGeneral-Regular-20" x="272.099945"/>
    <use xlink:href="#STIXGeneral-Regular-64" x="297.09993"/>
    <use xlink:href="#STIXGeneral-Regular-75" x="347.099915"/>
    <use xlink:href="#STIXGeneral-Regular-73" x="397.099899"/>
    <use xlink:href="#STIXGeneral-Regular-74" x="435.999893"/>
    <use xlink:href="#STIXGeneral-Regular-20" x="463.799881"/>
    <use xlink:href="#STIXGeneral-Regular-73" x="488.799866"/>
    <use xlink:href="#STIXGeneral-Regular-74" x="527.69986"/>
    <use xlink:href="#STIXGeneral-Regular-6f" x="555.499847"/>
    <use xlink:href="#STIXGeneral-Regular-72" x="605.499832"/>
    <use xlink:href="#STIXGeneral-Regular-6d" x="638.79982"/>
    <use xlink:href="#STIXGeneral-Regular-20" x="716.599808"/>
    <use xlink:href="#STIXGeneral-Regular-63" x="741.599792"/>
    <use xlink:href="#STIXGeneral-Regular-61" x="785.999786"/>
    <use xlink:href="#STIXGeneral-Regular-75" x="830.39978"/>
    <use xlink:href="#STIXGeneral-Regular-73" x="880.399765"/>
    <use xlink:href="#STIXGeneral-Regular-65" x="919.299759"/>
    <use xlink:href="#STIXGeneral-Regular-73" x="963.699753"/>
    <use xlink:href="#STIXGeneral-Regular-20" x="1002.599747"/>
    <use xlink:href="#STIXGeneral-Regular-73" x="1027.599731"/>
    <use xlink:href="#STIXGeneral-Regular-68" x="1066.499725"/>
    <use xlink:href="#STIXGeneral-Regular-61" x="1116.49971"/>
    <use xlink:href="#STIXGeneral-Regular-72" x="1160.899704"/>
    <use xlink:href="#STIXGeneral-Regular-70" x="1194.199692"/>
    <use xlink:href="#STIXGeneral-Regular-20" x="1244.199677"/>
    <use xlink:href="#STIXGeneral-Regular-72" x="1269.199661"/>
    <use xlink:href="#STIXGeneral-Regular-69" x="1302.499649"/>
    <use xlink:href="#STIXGeneral-Regular-73" x="1330.299637"/>
    <use xlink:href="#STIXGeneral-Regular-65" x="1369.199631"/>
    <use xlink:href="#STIXGeneral-Regular-20" x="1413.599625"/>
    <use xlink:href="#STIXGeneral-Regular-69" x="1438.599609"/>
    <use xlink:href="#STIXGeneral-Regular-6e" x="1466.399597"/>
    <use xlink:href="#STIXGeneral-Regular-20" x="1516.399582"/>
    <use xlink:href="#STIXGeneral-Regular-42" x="1541.399567"/>
    <use xlink:href="#STIXGeneral-Regular-65" x="1608.099564"/>
    <use xlink:href="#STIXGeneral-Regular-69" x="1652.499557"/>
    <use xlink:href="#STIXGeneral-Regular-6a" x="1680.299545"/>
    <use xlink:href="#STIXGeneral-Regular-69" x="1708.099533"/>
    <use xlink:href="#STIXGeneral-Regular-6e" x="1735.899521"/>
    <use xlink:href="#STIXGeneral-Regular-67" x="1785.899506"/>
    <use xlink:href="#STIXGeneral-Regular-27" x="1835.89949"/>
    <use xlink:href="#STIXGeneral-Regular-73" x="1853.899475"/>
    <use xlink:href="#STIXGeneral-Regular-20" x="1892.799469"/>
    <use xlink:href="#STIXGeneral-Regular-61" x="1917.799454"/>
    <use xlink:href="#STIXGeneral-Regular-69" x="1962.199448"/>
    <use xlink:href="#STIXGeneral-Regular-72" x="1989.999435"/>
    <use xlink:href="#STIXGeneral-Regular-20" x="2023.299423"/>
    <use xlink:href="#STIXGeneral-Regular-70" x="2048.299408"/>
    <use xlink:href="#STIXGeneral-Regular-6f" x="2098.299393"/>
    <use xlink:href="#STIXGeneral-Regular-6c" x="2148.299377"/>
    <use xlink:href="#STIXGeneral-Regular-6c" x="2176.099365"/>
    <use xlink:href="#STIXGeneral-Regular-75" x="2203.899353"/>
    <use xlink:href="#STIXGeneral-Regular-74" x="2253.899338"/>
    <use xlink:href="#STIXGeneral-Regular-69" x="2281.699326"/>
    <use xlink:href="#STIXGeneral-Regular-6f" x="2309.499313"/>
    <use xlink:href="#STIXGeneral-Regular-6e" x="2359.499298"/>
   </g>
  </g>
 </g>
 <defs>
  <clipPath id="p43e196d2c3">
   <rect x="9.504" y="41.76" width="357.12" height="266.112"/>
  </clipPath>
 </defs>
 <defs>
  <pattern id="h5bbe497dfa" patternUnits="userSpaceOnUse" x="0" y="0" width="72" height="72">
   <rect x="0" y="0" width="73" height="73" fill="none"/>
   <path d="M -36 36 
L 36 -36 
M -32 40 
L 40 -32 
M -28 44 
L 44 -28 
M -24 48 
L 48 -24 
M -20 52 
L 52 -20 
M -16 56 
L 56 -16 
M -12 60 
L 60 -12 
M -8 64 
L 64 -8 
M -4 68 
L 68 -4 
M 0 72 
L 72 0 
M 4 76 
L 76 4 
M 8 80 
L 80 8 
M 12 84 
L 84 12 
M 16 88 
L 88 16 
M 20 92 
L 92 20 
M 24 96 
L 96 24 
M 28 100 
L 100 28 
M 32 104 
L 104 32 
M 36 108 
L 108 36 
" style="fill: #000000; stroke: #000000; stroke-width: 1.0; stroke-linecap: butt; stroke-linejoin: miter; stroke-opacity: 0.2"/>
  </pattern>
 </defs>
</svg>
