<?xml version="1.0" encoding="utf-8" standalone="no"?>
<!DOCTYPE svg PUBLIC "-//W3C//DTD SVG 1.1//EN"
  "http://www.w3.org/Graphics/SVG/1.1/DTD/svg11.dtd">
<svg xmlns:xlink="http://www.w3.org/1999/xlink" width="397.114937pt" height="309.024687pt" viewBox="0 0 397.114937 309.024687" xmlns="http://www.w3.org/2000/svg" version="1.1">
 <metadata>
  <rdf:RDF xmlns:dc="http://purl.org/dc/elements/1.1/" xmlns:cc="http://creativecommons.org/ns#" xmlns:rdf="http://www.w3.org/1999/02/22-rdf-syntax-ns#">
   <cc:Work>
    <dc:type rdf:resource="http://purl.org/dc/dcmitype/StillImage"/>
    <dc:date>2023-02-01T00:43:12.959141</dc:date>
    <dc:format>image/svg+xml</dc:format>
    <dc:creator>
     <cc:Agent>
      <dc:title>Matplotlib v3.6.0, https://matplotlib.org/</dc:title>
     </cc:Agent>
    </dc:creator>
   </cc:Work>
  </rdf:RDF>
 </metadata>
 <defs>
  <style type="text/css">*{stroke-linejoin: round; stroke-linecap: butt}</style>
 </defs>
 <g id="figure_1">
  <g id="patch_1">
   <path d="M 0 309.024687 
L 397.114937 309.024687 
L 397.114937 0 
L 0 0 
z
" style="fill: #ffffff; stroke: #ffffff; stroke-linejoin: miter"/>
  </g>
  <g id="axes_1">
   <g id="patch_2">
    <path d="M 32.794938 273.312 
L 389.914938 273.312 
L 389.914938 7.2 
L 32.794938 7.2 
z
" style="fill: #ebebeb"/>
   </g>
   <g id="matplotlib.axis_1">
    <g id="xtick_1">
     <g id="line2d_1">
      <path d="M 66.379103 273.312 
L 66.379103 7.2 
" clip-path="url(#pdbff6b7269)" style="fill: none; stroke: #ffffff"/>
     </g>
     <g id="line2d_2">
      <path d="M 66.379103 273.312 
" style="fill: none; stroke: #000000; stroke-width: 3"/>
      <defs>
       <path id="mc472faac3a" d="M 0 0 
L 0 2.75 
" style="stroke: #333333"/>
      </defs>
      <g>
       <use xlink:href="#mc472faac3a" x="66.379103" y="273.312" style="stroke: #333333"/>
      </g>
     </g>
     <g id="text_1">
      <!-- 4 -->
      <g style="fill: #4d4d4d" transform="translate(63.579603 284.948625) scale(0.088 -0.088)">
       <defs>
        <path id="DejaVuSans-34" d="M 2419 4116 
L 825 1625 
L 2419 1625 
L 2419 4116 
z
M 2253 4666 
L 3047 4666 
L 3047 1625 
L 3713 1625 
L 3713 1100 
L 3047 1100 
L 3047 0 
L 2419 0 
L 2419 1100 
L 313 1100 
L 313 1709 
L 2253 4666 
z
" transform="scale(0.015625)"/>
       </defs>
       <use xlink:href="#DejaVuSans-34"/>
      </g>
     </g>
    </g>
    <g id="xtick_2">
     <g id="line2d_3">
      <path d="M 175.967135 273.312 
L 175.967135 7.2 
" clip-path="url(#pdbff6b7269)" style="fill: none; stroke: #ffffff"/>
     </g>
     <g id="line2d_4">
      <path d="M 175.967135 273.312 
" style="fill: none; stroke: #000000; stroke-width: 3"/>
      <g>
       <use xlink:href="#mc472faac3a" x="175.967135" y="273.312" style="stroke: #333333"/>
      </g>
     </g>
     <g id="text_2">
      <!-- 6 -->
      <g style="fill: #4d4d4d" transform="translate(173.167635 284.948625) scale(0.088 -0.088)">
       <defs>
        <path id="DejaVuSans-36" d="M 2113 2584 
Q 1688 2584 1439 2293 
Q 1191 2003 1191 1497 
Q 1191 994 1439 701 
Q 1688 409 2113 409 
Q 2538 409 2786 701 
Q 3034 994 3034 1497 
Q 3034 2003 2786 2293 
Q 2538 2584 2113 2584 
z
M 3366 4563 
L 3366 3988 
Q 3128 4100 2886 4159 
Q 2644 4219 2406 4219 
Q 1781 4219 1451 3797 
Q 1122 3375 1075 2522 
Q 1259 2794 1537 2939 
Q 1816 3084 2150 3084 
Q 2853 3084 3261 2657 
Q 3669 2231 3669 1497 
Q 3669 778 3244 343 
Q 2819 -91 2113 -91 
Q 1303 -91 875 529 
Q 447 1150 447 2328 
Q 447 3434 972 4092 
Q 1497 4750 2381 4750 
Q 2619 4750 2861 4703 
Q 3103 4656 3366 4563 
z
" transform="scale(0.015625)"/>
       </defs>
       <use xlink:href="#DejaVuSans-36"/>
      </g>
     </g>
    </g>
    <g id="xtick_3">
     <g id="line2d_5">
      <path d="M 285.555168 273.312 
L 285.555168 7.2 
" clip-path="url(#pdbff6b7269)" style="fill: none; stroke: #ffffff"/>
     </g>
     <g id="line2d_6">
      <path d="M 285.555168 273.312 
" style="fill: none; stroke: #000000; stroke-width: 3"/>
      <g>
       <use xlink:href="#mc472faac3a" x="285.555168" y="273.312" style="stroke: #333333"/>
      </g>
     </g>
     <g id="text_3">
      <!-- 8 -->
      <g style="fill: #4d4d4d" transform="translate(282.755668 284.948625) scale(0.088 -0.088)">
       <defs>
        <path id="DejaVuSans-38" d="M 2034 2216 
Q 1584 2216 1326 1975 
Q 1069 1734 1069 1313 
Q 1069 891 1326 650 
Q 1584 409 2034 409 
Q 2484 409 2743 651 
Q 3003 894 3003 1313 
Q 3003 1734 2745 1975 
Q 2488 2216 2034 2216 
z
M 1403 2484 
Q 997 2584 770 2862 
Q 544 3141 544 3541 
Q 544 4100 942 4425 
Q 1341 4750 2034 4750 
Q 2731 4750 3128 4425 
Q 3525 4100 3525 3541 
Q 3525 3141 3298 2862 
Q 3072 2584 2669 2484 
Q 3125 2378 3379 2068 
Q 3634 1759 3634 1313 
Q 3634 634 3220 271 
Q 2806 -91 2034 -91 
Q 1263 -91 848 271 
Q 434 634 434 1313 
Q 434 1759 690 2068 
Q 947 2378 1403 2484 
z
M 1172 3481 
Q 1172 3119 1398 2916 
Q 1625 2713 2034 2713 
Q 2441 2713 2670 2916 
Q 2900 3119 2900 3481 
Q 2900 3844 2670 4047 
Q 2441 4250 2034 4250 
Q 1625 4250 1398 4047 
Q 1172 3844 1172 3481 
z
" transform="scale(0.015625)"/>
       </defs>
       <use xlink:href="#DejaVuSans-38"/>
      </g>
     </g>
    </g>
    <g id="xtick_4">
     <g id="line2d_7">
      <path d="M 121.173119 273.312 
L 121.173119 7.2 
" clip-path="url(#pdbff6b7269)" style="fill: none; stroke: #ffffff; stroke-width: 0.5"/>
     </g>
    </g>
    <g id="xtick_5">
     <g id="line2d_8">
      <path d="M 230.761152 273.312 
L 230.761152 7.2 
" clip-path="url(#pdbff6b7269)" style="fill: none; stroke: #ffffff; stroke-width: 0.5"/>
     </g>
    </g>
    <g id="xtick_6">
     <g id="line2d_9">
      <path d="M 340.349184 273.312 
L 340.349184 7.2 
" clip-path="url(#pdbff6b7269)" style="fill: none; stroke: #ffffff; stroke-width: 0.5"/>
     </g>
    </g>
    <g id="text_4">
     <!-- Unemployment -->
     <g transform="translate(163.318844 299.537031) scale(0.11 -0.11)">
      <defs>
       <path id="DejaVuSans-55" d="M 556 4666 
L 1191 4666 
L 1191 1831 
Q 1191 1081 1462 751 
Q 1734 422 2344 422 
Q 2950 422 3222 751 
Q 3494 1081 3494 1831 
L 3494 4666 
L 4128 4666 
L 4128 1753 
Q 4128 841 3676 375 
Q 3225 -91 2344 -91 
Q 1459 -91 1007 375 
Q 556 841 556 1753 
L 556 4666 
z
" transform="scale(0.015625)"/>
       <path id="DejaVuSans-6e" d="M 3513 2113 
L 3513 0 
L 2938 0 
L 2938 2094 
Q 2938 2591 2744 2837 
Q 2550 3084 2163 3084 
Q 1697 3084 1428 2787 
Q 1159 2491 1159 1978 
L 1159 0 
L 581 0 
L 581 3500 
L 1159 3500 
L 1159 2956 
Q 1366 3272 1645 3428 
Q 1925 3584 2291 3584 
Q 2894 3584 3203 3211 
Q 3513 2838 3513 2113 
z
" transform="scale(0.015625)"/>
       <path id="DejaVuSans-65" d="M 3597 1894 
L 3597 1613 
L 953 1613 
Q 991 1019 1311 708 
Q 1631 397 2203 397 
Q 2534 397 2845 478 
Q 3156 559 3463 722 
L 3463 178 
Q 3153 47 2828 -22 
Q 2503 -91 2169 -91 
Q 1331 -91 842 396 
Q 353 884 353 1716 
Q 353 2575 817 3079 
Q 1281 3584 2069 3584 
Q 2775 3584 3186 3129 
Q 3597 2675 3597 1894 
z
M 3022 2063 
Q 3016 2534 2758 2815 
Q 2500 3097 2075 3097 
Q 1594 3097 1305 2825 
Q 1016 2553 972 2059 
L 3022 2063 
z
" transform="scale(0.015625)"/>
       <path id="DejaVuSans-6d" d="M 3328 2828 
Q 3544 3216 3844 3400 
Q 4144 3584 4550 3584 
Q 5097 3584 5394 3201 
Q 5691 2819 5691 2113 
L 5691 0 
L 5113 0 
L 5113 2094 
Q 5113 2597 4934 2840 
Q 4756 3084 4391 3084 
Q 3944 3084 3684 2787 
Q 3425 2491 3425 1978 
L 3425 0 
L 2847 0 
L 2847 2094 
Q 2847 2600 2669 2842 
Q 2491 3084 2119 3084 
Q 1678 3084 1418 2786 
Q 1159 2488 1159 1978 
L 1159 0 
L 581 0 
L 581 3500 
L 1159 3500 
L 1159 2956 
Q 1356 3278 1631 3431 
Q 1906 3584 2284 3584 
Q 2666 3584 2933 3390 
Q 3200 3197 3328 2828 
z
" transform="scale(0.015625)"/>
       <path id="DejaVuSans-70" d="M 1159 525 
L 1159 -1331 
L 581 -1331 
L 581 3500 
L 1159 3500 
L 1159 2969 
Q 1341 3281 1617 3432 
Q 1894 3584 2278 3584 
Q 2916 3584 3314 3078 
Q 3713 2572 3713 1747 
Q 3713 922 3314 415 
Q 2916 -91 2278 -91 
Q 1894 -91 1617 61 
Q 1341 213 1159 525 
z
M 3116 1747 
Q 3116 2381 2855 2742 
Q 2594 3103 2138 3103 
Q 1681 3103 1420 2742 
Q 1159 2381 1159 1747 
Q 1159 1113 1420 752 
Q 1681 391 2138 391 
Q 2594 391 2855 752 
Q 3116 1113 3116 1747 
z
" transform="scale(0.015625)"/>
       <path id="DejaVuSans-6c" d="M 603 4863 
L 1178 4863 
L 1178 0 
L 603 0 
L 603 4863 
z
" transform="scale(0.015625)"/>
       <path id="DejaVuSans-6f" d="M 1959 3097 
Q 1497 3097 1228 2736 
Q 959 2375 959 1747 
Q 959 1119 1226 758 
Q 1494 397 1959 397 
Q 2419 397 2687 759 
Q 2956 1122 2956 1747 
Q 2956 2369 2687 2733 
Q 2419 3097 1959 3097 
z
M 1959 3584 
Q 2709 3584 3137 3096 
Q 3566 2609 3566 1747 
Q 3566 888 3137 398 
Q 2709 -91 1959 -91 
Q 1206 -91 779 398 
Q 353 888 353 1747 
Q 353 2609 779 3096 
Q 1206 3584 1959 3584 
z
" transform="scale(0.015625)"/>
       <path id="DejaVuSans-79" d="M 2059 -325 
Q 1816 -950 1584 -1140 
Q 1353 -1331 966 -1331 
L 506 -1331 
L 506 -850 
L 844 -850 
Q 1081 -850 1212 -737 
Q 1344 -625 1503 -206 
L 1606 56 
L 191 3500 
L 800 3500 
L 1894 763 
L 2988 3500 
L 3597 3500 
L 2059 -325 
z
" transform="scale(0.015625)"/>
       <path id="DejaVuSans-74" d="M 1172 4494 
L 1172 3500 
L 2356 3500 
L 2356 3053 
L 1172 3053 
L 1172 1153 
Q 1172 725 1289 603 
Q 1406 481 1766 481 
L 2356 481 
L 2356 0 
L 1766 0 
Q 1100 0 847 248 
Q 594 497 594 1153 
L 594 3053 
L 172 3053 
L 172 3500 
L 594 3500 
L 594 4494 
L 1172 4494 
z
" transform="scale(0.015625)"/>
      </defs>
      <use xlink:href="#DejaVuSans-55"/>
      <use xlink:href="#DejaVuSans-6e" x="73.193359"/>
      <use xlink:href="#DejaVuSans-65" x="136.572266"/>
      <use xlink:href="#DejaVuSans-6d" x="198.095703"/>
      <use xlink:href="#DejaVuSans-70" x="295.507812"/>
      <use xlink:href="#DejaVuSans-6c" x="358.984375"/>
      <use xlink:href="#DejaVuSans-6f" x="386.767578"/>
      <use xlink:href="#DejaVuSans-79" x="447.949219"/>
      <use xlink:href="#DejaVuSans-6d" x="507.128906"/>
      <use xlink:href="#DejaVuSans-65" x="604.541016"/>
      <use xlink:href="#DejaVuSans-6e" x="666.064453"/>
      <use xlink:href="#DejaVuSans-74" x="729.443359"/>
     </g>
    </g>
   </g>
   <g id="matplotlib.axis_2">
    <g id="ytick_1">
     <g id="line2d_10">
      <path d="M 32.794938 240.937174 
L 389.914938 240.937174 
" clip-path="url(#pdbff6b7269)" style="fill: none; stroke: #ffffff"/>
     </g>
     <g id="line2d_11">
      <path d="M 32.794938 240.937174 
" style="fill: none; stroke: #000000; stroke-width: 3"/>
      <defs>
       <path id="m6ef76e6c52" d="M 0 0 
L -2.75 0 
" style="stroke: #333333"/>
      </defs>
      <g>
       <use xlink:href="#m6ef76e6c52" x="32.794938" y="240.937174" style="stroke: #333333"/>
      </g>
     </g>
     <g id="text_5">
      <!-- 2 -->
      <g style="fill: #4d4d4d" transform="translate(22.245938 243.365424) scale(0.088 -0.088)">
       <defs>
        <path id="DejaVuSans-32" d="M 1228 531 
L 3431 531 
L 3431 0 
L 469 0 
L 469 531 
Q 828 903 1448 1529 
Q 2069 2156 2228 2338 
Q 2531 2678 2651 2914 
Q 2772 3150 2772 3378 
Q 2772 3750 2511 3984 
Q 2250 4219 1831 4219 
Q 1534 4219 1204 4116 
Q 875 4013 500 3803 
L 500 4441 
Q 881 4594 1212 4672 
Q 1544 4750 1819 4750 
Q 2544 4750 2975 4387 
Q 3406 4025 3406 3419 
Q 3406 3131 3298 2873 
Q 3191 2616 2906 2266 
Q 2828 2175 2409 1742 
Q 1991 1309 1228 531 
z
" transform="scale(0.015625)"/>
       </defs>
       <use xlink:href="#DejaVuSans-32"/>
      </g>
     </g>
    </g>
    <g id="ytick_2">
     <g id="line2d_12">
      <path d="M 32.794938 187.436736 
L 389.914938 187.436736 
" clip-path="url(#pdbff6b7269)" style="fill: none; stroke: #ffffff"/>
     </g>
     <g id="line2d_13">
      <path d="M 32.794938 187.436736 
" style="fill: none; stroke: #000000; stroke-width: 3"/>
      <g>
       <use xlink:href="#m6ef76e6c52" x="32.794938" y="187.436736" style="stroke: #333333"/>
      </g>
     </g>
     <g id="text_6">
      <!-- 3 -->
      <g style="fill: #4d4d4d" transform="translate(22.245938 189.864986) scale(0.088 -0.088)">
       <defs>
        <path id="DejaVuSans-33" d="M 2597 2516 
Q 3050 2419 3304 2112 
Q 3559 1806 3559 1356 
Q 3559 666 3084 287 
Q 2609 -91 1734 -91 
Q 1441 -91 1130 -33 
Q 819 25 488 141 
L 488 750 
Q 750 597 1062 519 
Q 1375 441 1716 441 
Q 2309 441 2620 675 
Q 2931 909 2931 1356 
Q 2931 1769 2642 2001 
Q 2353 2234 1838 2234 
L 1294 2234 
L 1294 2753 
L 1863 2753 
Q 2328 2753 2575 2939 
Q 2822 3125 2822 3475 
Q 2822 3834 2567 4026 
Q 2313 4219 1838 4219 
Q 1578 4219 1281 4162 
Q 984 4106 628 3988 
L 628 4550 
Q 988 4650 1302 4700 
Q 1616 4750 1894 4750 
Q 2613 4750 3031 4423 
Q 3450 4097 3450 3541 
Q 3450 3153 3228 2886 
Q 3006 2619 2597 2516 
z
" transform="scale(0.015625)"/>
       </defs>
       <use xlink:href="#DejaVuSans-33"/>
      </g>
     </g>
    </g>
    <g id="ytick_3">
     <g id="line2d_14">
      <path d="M 32.794938 133.936298 
L 389.914938 133.936298 
" clip-path="url(#pdbff6b7269)" style="fill: none; stroke: #ffffff"/>
     </g>
     <g id="line2d_15">
      <path d="M 32.794938 133.936298 
" style="fill: none; stroke: #000000; stroke-width: 3"/>
      <g>
       <use xlink:href="#m6ef76e6c52" x="32.794938" y="133.936298" style="stroke: #333333"/>
      </g>
     </g>
     <g id="text_7">
      <!-- 4 -->
      <g style="fill: #4d4d4d" transform="translate(22.245938 136.364548) scale(0.088 -0.088)">
       <use xlink:href="#DejaVuSans-34"/>
      </g>
     </g>
    </g>
    <g id="ytick_4">
     <g id="line2d_16">
      <path d="M 32.794938 80.435859 
L 389.914938 80.435859 
" clip-path="url(#pdbff6b7269)" style="fill: none; stroke: #ffffff"/>
     </g>
     <g id="line2d_17">
      <path d="M 32.794938 80.435859 
" style="fill: none; stroke: #000000; stroke-width: 3"/>
      <g>
       <use xlink:href="#m6ef76e6c52" x="32.794938" y="80.435859" style="stroke: #333333"/>
      </g>
     </g>
     <g id="text_8">
      <!-- 5 -->
      <g style="fill: #4d4d4d" transform="translate(22.245938 82.864109) scale(0.088 -0.088)">
       <defs>
        <path id="DejaVuSans-35" d="M 691 4666 
L 3169 4666 
L 3169 4134 
L 1269 4134 
L 1269 2991 
Q 1406 3038 1543 3061 
Q 1681 3084 1819 3084 
Q 2600 3084 3056 2656 
Q 3513 2228 3513 1497 
Q 3513 744 3044 326 
Q 2575 -91 1722 -91 
Q 1428 -91 1123 -41 
Q 819 9 494 109 
L 494 744 
Q 775 591 1075 516 
Q 1375 441 1709 441 
Q 2250 441 2565 725 
Q 2881 1009 2881 1497 
Q 2881 1984 2565 2268 
Q 2250 2553 1709 2553 
Q 1456 2553 1204 2497 
Q 953 2441 691 2322 
L 691 4666 
z
" transform="scale(0.015625)"/>
       </defs>
       <use xlink:href="#DejaVuSans-35"/>
      </g>
     </g>
    </g>
    <g id="ytick_5">
     <g id="line2d_18">
      <path d="M 32.794938 26.935421 
L 389.914938 26.935421 
" clip-path="url(#pdbff6b7269)" style="fill: none; stroke: #ffffff"/>
     </g>
     <g id="line2d_19">
      <path d="M 32.794938 26.935421 
" style="fill: none; stroke: #000000; stroke-width: 3"/>
      <g>
       <use xlink:href="#m6ef76e6c52" x="32.794938" y="26.935421" style="stroke: #333333"/>
      </g>
     </g>
     <g id="text_9">
      <!-- 6 -->
      <g style="fill: #4d4d4d" transform="translate(22.245938 29.363671) scale(0.088 -0.088)">
       <use xlink:href="#DejaVuSans-36"/>
      </g>
     </g>
    </g>
    <g id="ytick_6">
     <g id="line2d_20">
      <path d="M 32.794938 267.687393 
L 389.914938 267.687393 
" clip-path="url(#pdbff6b7269)" style="fill: none; stroke: #ffffff; stroke-width: 0.5"/>
     </g>
    </g>
    <g id="ytick_7">
     <g id="line2d_21">
      <path d="M 32.794938 214.186955 
L 389.914938 214.186955 
" clip-path="url(#pdbff6b7269)" style="fill: none; stroke: #ffffff; stroke-width: 0.5"/>
     </g>
    </g>
    <g id="ytick_8">
     <g id="line2d_22">
      <path d="M 32.794938 160.686517 
L 389.914938 160.686517 
" clip-path="url(#pdbff6b7269)" style="fill: none; stroke: #ffffff; stroke-width: 0.5"/>
     </g>
    </g>
    <g id="ytick_9">
     <g id="line2d_23">
      <path d="M 32.794938 107.186079 
L 389.914938 107.186079 
" clip-path="url(#pdbff6b7269)" style="fill: none; stroke: #ffffff; stroke-width: 0.5"/>
     </g>
    </g>
    <g id="ytick_10">
     <g id="line2d_24">
      <path d="M 32.794938 53.68564 
L 389.914938 53.68564 
" clip-path="url(#pdbff6b7269)" style="fill: none; stroke: #ffffff; stroke-width: 0.5"/>
     </g>
    </g>
    <g id="text_10">
     <!-- Vacancies -->
     <g transform="translate(15.558281 165.916281) rotate(-90) scale(0.11 -0.11)">
      <defs>
       <path id="DejaVuSans-56" d="M 1831 0 
L 50 4666 
L 709 4666 
L 2188 738 
L 3669 4666 
L 4325 4666 
L 2547 0 
L 1831 0 
z
" transform="scale(0.015625)"/>
       <path id="DejaVuSans-61" d="M 2194 1759 
Q 1497 1759 1228 1600 
Q 959 1441 959 1056 
Q 959 750 1161 570 
Q 1363 391 1709 391 
Q 2188 391 2477 730 
Q 2766 1069 2766 1631 
L 2766 1759 
L 2194 1759 
z
M 3341 1997 
L 3341 0 
L 2766 0 
L 2766 531 
Q 2569 213 2275 61 
Q 1981 -91 1556 -91 
Q 1019 -91 701 211 
Q 384 513 384 1019 
Q 384 1609 779 1909 
Q 1175 2209 1959 2209 
L 2766 2209 
L 2766 2266 
Q 2766 2663 2505 2880 
Q 2244 3097 1772 3097 
Q 1472 3097 1187 3025 
Q 903 2953 641 2809 
L 641 3341 
Q 956 3463 1253 3523 
Q 1550 3584 1831 3584 
Q 2591 3584 2966 3190 
Q 3341 2797 3341 1997 
z
" transform="scale(0.015625)"/>
       <path id="DejaVuSans-63" d="M 3122 3366 
L 3122 2828 
Q 2878 2963 2633 3030 
Q 2388 3097 2138 3097 
Q 1578 3097 1268 2742 
Q 959 2388 959 1747 
Q 959 1106 1268 751 
Q 1578 397 2138 397 
Q 2388 397 2633 464 
Q 2878 531 3122 666 
L 3122 134 
Q 2881 22 2623 -34 
Q 2366 -91 2075 -91 
Q 1284 -91 818 406 
Q 353 903 353 1747 
Q 353 2603 823 3093 
Q 1294 3584 2113 3584 
Q 2378 3584 2631 3529 
Q 2884 3475 3122 3366 
z
" transform="scale(0.015625)"/>
       <path id="DejaVuSans-69" d="M 603 3500 
L 1178 3500 
L 1178 0 
L 603 0 
L 603 3500 
z
M 603 4863 
L 1178 4863 
L 1178 4134 
L 603 4134 
L 603 4863 
z
" transform="scale(0.015625)"/>
       <path id="DejaVuSans-73" d="M 2834 3397 
L 2834 2853 
Q 2591 2978 2328 3040 
Q 2066 3103 1784 3103 
Q 1356 3103 1142 2972 
Q 928 2841 928 2578 
Q 928 2378 1081 2264 
Q 1234 2150 1697 2047 
L 1894 2003 
Q 2506 1872 2764 1633 
Q 3022 1394 3022 966 
Q 3022 478 2636 193 
Q 2250 -91 1575 -91 
Q 1294 -91 989 -36 
Q 684 19 347 128 
L 347 722 
Q 666 556 975 473 
Q 1284 391 1588 391 
Q 1994 391 2212 530 
Q 2431 669 2431 922 
Q 2431 1156 2273 1281 
Q 2116 1406 1581 1522 
L 1381 1569 
Q 847 1681 609 1914 
Q 372 2147 372 2553 
Q 372 3047 722 3315 
Q 1072 3584 1716 3584 
Q 2034 3584 2315 3537 
Q 2597 3491 2834 3397 
z
" transform="scale(0.015625)"/>
      </defs>
      <use xlink:href="#DejaVuSans-56"/>
      <use xlink:href="#DejaVuSans-61" x="60.658203"/>
      <use xlink:href="#DejaVuSans-63" x="121.9375"/>
      <use xlink:href="#DejaVuSans-61" x="176.917969"/>
      <use xlink:href="#DejaVuSans-6e" x="238.197266"/>
      <use xlink:href="#DejaVuSans-63" x="301.576172"/>
      <use xlink:href="#DejaVuSans-69" x="356.556641"/>
      <use xlink:href="#DejaVuSans-65" x="384.339844"/>
      <use xlink:href="#DejaVuSans-73" x="445.863281"/>
     </g>
    </g>
   </g>
   <g id="PathCollection_1">
    <path d="M 107.017998 187.698381 
C 107.488059 187.698381 107.93893 187.511624 108.271313 187.179241 
C 108.603695 186.846858 108.790452 186.395987 108.790452 185.925927 
C 108.790452 185.455867 108.603695 185.004996 108.271313 184.672613 
C 107.93893 184.34023 107.488059 184.153473 107.017998 184.153473 
C 106.547938 184.153473 106.097067 184.34023 105.764684 184.672613 
C 105.432302 185.004996 105.245545 185.455867 105.245545 185.925927 
C 105.245545 186.395987 105.432302 186.846858 105.764684 187.179241 
C 106.097067 187.511624 106.547938 187.698381 107.017998 187.698381 
z
" clip-path="url(#pdbff6b7269)" style="fill: #a52a2a; stroke: #a52a2a; stroke-width: 0.886227"/>
    <path d="M 164.095099 221.991344 
C 164.565159 221.991344 165.01603 221.804587 165.348413 221.472204 
C 165.680796 221.139821 165.867552 220.68895 165.867552 220.21889 
C 165.867552 219.74883 165.680796 219.297958 165.348413 218.965576 
C 165.01603 218.633193 164.565159 218.446436 164.095099 218.446436 
C 163.625038 218.446436 163.174167 218.633193 162.841784 218.965576 
C 162.509402 219.297958 162.322645 219.74883 162.322645 220.21889 
C 162.322645 220.68895 162.509402 221.139821 162.841784 221.472204 
C 163.174167 221.804587 163.625038 221.991344 164.095099 221.991344 
z
" clip-path="url(#pdbff6b7269)" style="fill: #a52a2a; stroke: #a52a2a; stroke-width: 0.886227"/>
    <path d="M 175.510519 231.354836 
C 175.980579 231.354836 176.43145 231.168079 176.763833 230.835696 
C 177.096216 230.503314 177.282972 230.052443 177.282972 229.582382 
C 177.282972 229.112322 177.096216 228.661451 176.763833 228.329068 
C 176.43145 227.996685 175.980579 227.809928 175.510519 227.809928 
C 175.040458 227.809928 174.589587 227.996685 174.257204 228.329068 
C 173.924822 228.661451 173.738065 229.112322 173.738065 229.582382 
C 173.738065 230.052443 173.924822 230.503314 174.257204 230.835696 
C 174.589587 231.168079 175.040458 231.354836 175.510519 231.354836 
z
" clip-path="url(#pdbff6b7269)" style="fill: #a52a2a; stroke: #a52a2a; stroke-width: 0.886227"/>
    <path d="M 150.853211 217.553255 
C 151.323272 217.553255 151.774143 217.366498 152.106526 217.034115 
C 152.438908 216.701732 152.625665 216.250861 152.625665 215.780801 
C 152.625665 215.310741 152.438908 214.85987 152.106526 214.527487 
C 151.774143 214.195104 151.323272 214.008347 150.853211 214.008347 
C 150.383151 214.008347 149.93228 214.195104 149.599897 214.527487 
C 149.267514 214.85987 149.080758 215.310741 149.080758 215.780801 
C 149.080758 216.250861 149.267514 216.701732 149.599897 217.034115 
C 149.93228 217.366498 150.383151 217.553255 150.853211 217.553255 
z
" clip-path="url(#pdbff6b7269)" style="fill: #a52a2a; stroke: #a52a2a; stroke-width: 0.886227"/>
    <path d="M 125.739287 202.406384 
C 126.209348 202.406384 126.660219 202.219628 126.992601 201.887245 
C 127.324984 201.554862 127.511741 201.103991 127.511741 200.633931 
C 127.511741 200.16387 127.324984 199.712999 126.992601 199.380616 
C 126.660219 199.048234 126.209348 198.861477 125.739287 198.861477 
C 125.269227 198.861477 124.818356 199.048234 124.485973 199.380616 
C 124.15359 199.712999 123.966833 200.16387 123.966833 200.633931 
C 123.966833 201.103991 124.15359 201.554862 124.485973 201.887245 
C 124.818356 202.219628 125.269227 202.406384 125.739287 202.406384 
z
" clip-path="url(#pdbff6b7269)" style="fill: #a52a2a; stroke: #a52a2a; stroke-width: 0.886227"/>
    <path d="M 99.71213 187.652031 
C 100.18219 187.652031 100.633061 187.465274 100.965444 187.132892 
C 101.297827 186.800509 101.484584 186.349638 101.484584 185.879578 
C 101.484584 185.409517 101.297827 184.958646 100.965444 184.626263 
C 100.633061 184.293881 100.18219 184.107124 99.71213 184.107124 
C 99.242069 184.107124 98.791198 184.293881 98.458816 184.626263 
C 98.126433 184.958646 97.939676 185.409517 97.939676 185.879578 
C 97.939676 186.349638 98.126433 186.800509 98.458816 187.132892 
C 98.791198 187.465274 99.242069 187.652031 99.71213 187.652031 
z
" clip-path="url(#pdbff6b7269)" style="fill: #a52a2a; stroke: #a52a2a; stroke-width: 0.886227"/>
    <path d="M 100.168746 185.946161 
C 100.638807 185.946161 101.089678 185.759404 101.422061 185.427021 
C 101.754443 185.094638 101.9412 184.643767 101.9412 184.173707 
C 101.9412 183.703647 101.754443 183.252775 101.422061 182.920393 
C 101.089678 182.58801 100.638807 182.401253 100.168746 182.401253 
C 99.698686 182.401253 99.247815 182.58801 98.915432 182.920393 
C 98.58305 183.252775 98.396293 183.703647 98.396293 184.173707 
C 98.396293 184.643767 98.58305 185.094638 98.915432 185.427021 
C 99.247815 185.759404 99.698686 185.946161 100.168746 185.946161 
z
" clip-path="url(#pdbff6b7269)" style="fill: #a52a2a; stroke: #a52a2a; stroke-width: 0.886227"/>
    <path d="M 165.008332 217.798193 
C 165.478392 217.798193 165.929264 217.611436 166.261646 217.279053 
C 166.594029 216.94667 166.780786 216.495799 166.780786 216.025739 
C 166.780786 215.555679 166.594029 215.104808 166.261646 214.772425 
C 165.929264 214.440042 165.478392 214.253285 165.008332 214.253285 
C 164.538272 214.253285 164.087401 214.440042 163.755018 214.772425 
C 163.422635 215.104808 163.235878 215.555679 163.235878 216.025739 
C 163.235878 216.495799 163.422635 216.94667 163.755018 217.279053 
C 164.087401 217.611436 164.538272 217.798193 165.008332 217.798193 
z
" clip-path="url(#pdbff6b7269)" style="fill: #a52a2a; stroke: #a52a2a; stroke-width: 0.886227"/>
    <path d="M 355.874155 262.988454 
C 356.344215 262.988454 356.795086 262.801697 357.127469 262.469314 
C 357.459852 262.136931 357.646609 261.68606 357.646609 261.216 
C 357.646609 260.74594 357.459852 260.295069 357.127469 259.962686 
C 356.795086 259.630303 356.344215 259.443546 355.874155 259.443546 
C 355.404095 259.443546 354.953224 259.630303 354.620841 259.962686 
C 354.288458 260.295069 354.101701 260.74594 354.101701 261.216 
C 354.101701 261.68606 354.288458 262.136931 354.620841 262.469314 
C 354.953224 262.801697 355.404095 262.988454 355.874155 262.988454 
z
" clip-path="url(#pdbff6b7269)" style="fill: #a52a2a; stroke: #a52a2a; stroke-width: 0.886227"/>
    <path d="M 373.68221 246.349849 
C 374.15227 246.349849 374.603142 246.163092 374.935524 245.830709 
C 375.267907 245.498326 375.454664 245.047455 375.454664 244.577395 
C 375.454664 244.107335 375.267907 243.656464 374.935524 243.324081 
C 374.603142 242.991698 374.15227 242.804941 373.68221 242.804941 
C 373.21215 242.804941 372.761279 242.991698 372.428896 243.324081 
C 372.096513 243.656464 371.909756 244.107335 371.909756 244.577395 
C 371.909756 245.047455 372.096513 245.498326 372.428896 245.830709 
C 372.761279 246.163092 373.21215 246.349849 373.68221 246.349849 
z
" clip-path="url(#pdbff6b7269)" style="fill: #a52a2a; stroke: #a52a2a; stroke-width: 0.886227"/>
    <path d="M 336.696249 230.270138 
C 337.16631 230.270138 337.617181 230.083381 337.949563 229.750999 
C 338.281946 229.418616 338.468703 228.967745 338.468703 228.497684 
C 338.468703 228.027624 338.281946 227.576753 337.949563 227.24437 
C 337.617181 226.911988 337.16631 226.725231 336.696249 226.725231 
C 336.226189 226.725231 335.775318 226.911988 335.442935 227.24437 
C 335.110552 227.576753 334.923796 228.027624 334.923796 228.497684 
C 334.923796 228.967745 335.110552 229.418616 335.442935 229.750999 
C 335.775318 230.083381 336.226189 230.270138 336.696249 230.270138 
z
" clip-path="url(#pdbff6b7269)" style="fill: #a52a2a; stroke: #a52a2a; stroke-width: 0.886227"/>
    <path d="M 289.664719 217.170995 
C 290.134779 217.170995 290.58565 216.984239 290.918033 216.651856 
C 291.250416 216.319473 291.437173 215.868602 291.437173 215.398542 
C 291.437173 214.928481 291.250416 214.47761 290.918033 214.145227 
C 290.58565 213.812845 290.134779 213.626088 289.664719 213.626088 
C 289.194659 213.626088 288.743788 213.812845 288.411405 214.145227 
C 288.079022 214.47761 287.892265 214.928481 287.892265 215.398542 
C 287.892265 215.868602 288.079022 216.319473 288.411405 216.651856 
C 288.743788 216.984239 289.194659 217.170995 289.664719 217.170995 
z
" clip-path="url(#pdbff6b7269)" style="fill: #a52a2a; stroke: #a52a2a; stroke-width: 0.886227"/>
    <path d="M 250.395674 209.742981 
C 250.865734 209.742981 251.316605 209.556224 251.648988 209.223842 
C 251.981371 208.891459 252.168128 208.440588 252.168128 207.970527 
C 252.168128 207.500467 251.981371 207.049596 251.648988 206.717213 
C 251.316605 206.38483 250.865734 206.198074 250.395674 206.198074 
C 249.925614 206.198074 249.474743 206.38483 249.14236 206.717213 
C 248.809977 207.049596 248.62322 207.500467 248.62322 207.970527 
C 248.62322 208.440588 248.809977 208.891459 249.14236 209.223842 
C 249.474743 209.556224 249.925614 209.742981 250.395674 209.742981 
z
" clip-path="url(#pdbff6b7269)" style="fill: #a52a2a; stroke: #a52a2a; stroke-width: 0.886227"/>
    <path d="M 184.642855 186.018938 
C 185.112915 186.018938 185.563786 185.832181 185.896169 185.499799 
C 186.228552 185.167416 186.415308 184.716545 186.415308 184.246484 
C 186.415308 183.776424 186.228552 183.325553 185.896169 182.99317 
C 185.563786 182.660788 185.112915 182.474031 184.642855 182.474031 
C 184.172794 182.474031 183.721923 182.660788 183.389541 182.99317 
C 183.057158 183.325553 182.870401 183.776424 182.870401 184.246484 
C 182.870401 184.716545 183.057158 185.167416 183.389541 185.499799 
C 183.721923 185.832181 184.172794 186.018938 184.642855 186.018938 
z
" clip-path="url(#pdbff6b7269)" style="fill: #a52a2a; stroke: #a52a2a; stroke-width: 0.886227"/>
    <path d="M 136.241474 160.183497 
C 136.711534 160.183497 137.162405 159.99674 137.494788 159.664358 
C 137.827171 159.331975 138.013928 158.881104 138.013928 158.411044 
C 138.013928 157.940983 137.827171 157.490112 137.494788 157.157729 
C 137.162405 156.825347 136.711534 156.63859 136.241474 156.63859 
C 135.771413 156.63859 135.320542 156.825347 134.98816 157.157729 
C 134.655777 157.490112 134.46902 157.940983 134.46902 158.411044 
C 134.46902 158.881104 134.655777 159.331975 134.98816 159.664358 
C 135.320542 159.99674 135.771413 160.183497 136.241474 160.183497 
z
" clip-path="url(#pdbff6b7269)" style="fill: #a52a2a; stroke: #a52a2a; stroke-width: 0.886227"/>
    <path d="M 114.323867 152.882665 
C 114.793928 152.882665 115.244799 152.695908 115.577181 152.363525 
C 115.909564 152.031143 116.096321 151.580272 116.096321 151.110211 
C 116.096321 150.640151 115.909564 150.18928 115.577181 149.856897 
C 115.244799 149.524514 114.793928 149.337757 114.323867 149.337757 
C 113.853807 149.337757 113.402936 149.524514 113.070553 149.856897 
C 112.73817 150.18928 112.551413 150.640151 112.551413 151.110211 
C 112.551413 151.580272 112.73817 152.031143 113.070553 152.363525 
C 113.402936 152.695908 113.853807 152.882665 114.323867 152.882665 
z
" clip-path="url(#pdbff6b7269)" style="fill: #a52a2a; stroke: #a52a2a; stroke-width: 0.886227"/>
    <path d="M 86.013626 145.56793 
C 86.483686 145.56793 86.934557 145.381173 87.26694 145.04879 
C 87.599323 144.716408 87.786079 144.265536 87.786079 143.795476 
C 87.786079 143.325416 87.599323 142.874545 87.26694 142.542162 
C 86.934557 142.209779 86.483686 142.023022 86.013626 142.023022 
C 85.543565 142.023022 85.092694 142.209779 84.760312 142.542162 
C 84.427929 142.874545 84.241172 143.325416 84.241172 143.795476 
C 84.241172 144.265536 84.427929 144.716408 84.760312 145.04879 
C 85.092694 145.381173 85.543565 145.56793 86.013626 145.56793 
z
" clip-path="url(#pdbff6b7269)" style="fill: #a52a2a; stroke: #a52a2a; stroke-width: 0.886227"/>
    <path d="M 60.443085 115.376737 
C 60.913145 115.376737 61.364016 115.18998 61.696399 114.857597 
C 62.028782 114.525214 62.215539 114.074343 62.215539 113.604283 
C 62.215539 113.134223 62.028782 112.683352 61.696399 112.350969 
C 61.364016 112.018586 60.913145 111.831829 60.443085 111.831829 
C 59.973025 111.831829 59.522153 112.018586 59.189771 112.350969 
C 58.857388 112.683352 58.670631 113.134223 58.670631 113.604283 
C 58.670631 114.074343 58.857388 114.525214 59.189771 114.857597 
C 59.522153 115.18998 59.973025 115.376737 60.443085 115.376737 
z
" clip-path="url(#pdbff6b7269)" style="fill: #a52a2a; stroke: #a52a2a; stroke-width: 0.886227"/>
    <path d="M 49.027665 115.658543 
C 49.497725 115.658543 49.948596 115.471786 50.280979 115.139403 
C 50.613362 114.80702 50.800119 114.356149 50.800119 113.886089 
C 50.800119 113.416029 50.613362 112.965158 50.280979 112.632775 
C 49.948596 112.300392 49.497725 112.113635 49.027665 112.113635 
C 48.557605 112.113635 48.106733 112.300392 47.774351 112.632775 
C 47.441968 112.965158 47.255211 113.416029 47.255211 113.886089 
C 47.255211 114.356149 47.441968 114.80702 47.774351 115.139403 
C 48.106733 115.471786 48.557605 115.658543 49.027665 115.658543 
z
" clip-path="url(#pdbff6b7269)" style="fill: #a52a2a; stroke: #a52a2a; stroke-width: 0.886227"/>
    <path d="M 290.577952 137.686309 
C 291.048013 137.686309 291.498884 137.499552 291.831267 137.167169 
C 292.163649 136.834787 292.350406 136.383915 292.350406 135.913855 
C 292.350406 135.443795 292.163649 134.992924 291.831267 134.660541 
C 291.498884 134.328158 291.048013 134.141401 290.577952 134.141401 
C 290.107892 134.141401 289.657021 134.328158 289.324638 134.660541 
C 288.992256 134.992924 288.805499 135.443795 288.805499 135.913855 
C 288.805499 136.383915 288.992256 136.834787 289.324638 137.167169 
C 289.657021 137.499552 290.107892 137.686309 290.577952 137.686309 
z
" clip-path="url(#pdbff6b7269)" style="fill: #a52a2a; stroke: #a52a2a; stroke-width: 0.886227"/>
    <path d="M 192.40534 21.603458 
C 192.875401 21.603458 193.326272 21.416701 193.658654 21.084319 
C 193.991037 20.751936 194.177794 20.301065 194.177794 19.831004 
C 194.177794 19.360944 193.991037 18.910073 193.658654 18.57769 
C 193.326272 18.245307 192.875401 18.058551 192.40534 18.058551 
C 191.93528 18.058551 191.484409 18.245307 191.152026 18.57769 
C 190.819643 18.910073 190.632886 19.360944 190.632886 19.831004 
C 190.632886 20.301065 190.819643 20.751936 191.152026 21.084319 
C 191.484409 21.416701 191.93528 21.603458 192.40534 21.603458 
z
" clip-path="url(#pdbff6b7269)" style="fill: #a52a2a; stroke: #a52a2a; stroke-width: 0.886227"/>
   </g>
   <g id="line2d_25">
    <path d="M 107.017998 185.925927 
L 164.095099 220.21889 
L 175.510519 229.582382 
L 150.853211 215.780801 
L 125.739287 200.633931 
L 99.71213 185.879578 
L 100.168746 184.173707 
L 165.008332 216.025739 
L 355.874155 261.216 
L 373.68221 244.577395 
L 336.696249 228.497684 
L 289.664719 215.398542 
L 250.395674 207.970527 
L 184.642855 184.246484 
L 136.241474 158.411044 
L 114.323867 151.110211 
L 86.013626 143.795476 
L 60.443085 113.604283 
L 49.027665 113.886089 
L 290.577952 135.913855 
L 192.40534 19.831004 
" clip-path="url(#pdbff6b7269)" style="fill: none; stroke: #000000; stroke-width: 0.886227"/>
   </g>
   <g id="text_11">
    <g id="patch_3">
     <path d="M 93.020498 193.463891 
L 121.015498 193.463891 
Q 123.765498 193.463891 123.765498 190.713891 
L 123.765498 180.067954 
Q 123.765498 177.317954 121.015498 177.317954 
L 93.020498 177.317954 
Q 90.270498 177.317954 90.270498 180.067954 
L 90.270498 190.713891 
Q 90.270498 193.463891 93.020498 193.463891 
z
" clip-path="url(#pdbff6b7269)" style="fill: #ffffff; stroke: #000000; stroke-width: 0.7; stroke-linejoin: miter"/>
    </g>
    <g clip-path="url(#pdbff6b7269)">
     <!-- 2001 -->
     <g transform="translate(93.020498 188.426235) scale(0.11 -0.11)">
      <defs>
       <path id="DejaVuSans-30" d="M 2034 4250 
Q 1547 4250 1301 3770 
Q 1056 3291 1056 2328 
Q 1056 1369 1301 889 
Q 1547 409 2034 409 
Q 2525 409 2770 889 
Q 3016 1369 3016 2328 
Q 3016 3291 2770 3770 
Q 2525 4250 2034 4250 
z
M 2034 4750 
Q 2819 4750 3233 4129 
Q 3647 3509 3647 2328 
Q 3647 1150 3233 529 
Q 2819 -91 2034 -91 
Q 1250 -91 836 529 
Q 422 1150 422 2328 
Q 422 3509 836 4129 
Q 1250 4750 2034 4750 
z
" transform="scale(0.015625)"/>
       <path id="DejaVuSans-31" d="M 794 531 
L 1825 531 
L 1825 4091 
L 703 3866 
L 703 4441 
L 1819 4666 
L 2450 4666 
L 2450 531 
L 3481 531 
L 3481 0 
L 794 0 
L 794 531 
z
" transform="scale(0.015625)"/>
      </defs>
      <use xlink:href="#DejaVuSans-32"/>
      <use xlink:href="#DejaVuSans-30" x="63.623047"/>
      <use xlink:href="#DejaVuSans-30" x="127.246094"/>
      <use xlink:href="#DejaVuSans-31" x="190.869141"/>
     </g>
    </g>
   </g>
   <g id="text_12">
    <g id="patch_4">
     <path d="M 93.020498 193.463891 
L 121.015498 193.463891 
Q 123.765498 193.463891 123.765498 190.713891 
L 123.765498 180.067954 
Q 123.765498 177.317954 121.015498 177.317954 
L 93.020498 177.317954 
Q 90.270498 177.317954 90.270498 180.067954 
L 90.270498 190.713891 
Q 90.270498 193.463891 93.020498 193.463891 
z
" clip-path="url(#pdbff6b7269)" style="fill: #ffffff; stroke: #000000; stroke-width: 0.7; stroke-linejoin: miter"/>
    </g>
    <g clip-path="url(#pdbff6b7269)">
     <!-- 2001 -->
     <g transform="translate(93.020498 188.426235) scale(0.11 -0.11)">
      <use xlink:href="#DejaVuSans-32"/>
      <use xlink:href="#DejaVuSans-30" x="63.623047"/>
      <use xlink:href="#DejaVuSans-30" x="127.246094"/>
      <use xlink:href="#DejaVuSans-31" x="190.869141"/>
     </g>
    </g>
   </g>
   <g id="text_13">
    <g id="patch_5">
     <path d="M 93.020498 193.463891 
L 121.015498 193.463891 
Q 123.765498 193.463891 123.765498 190.713891 
L 123.765498 180.067954 
Q 123.765498 177.317954 121.015498 177.317954 
L 93.020498 177.317954 
Q 90.270498 177.317954 90.270498 180.067954 
L 90.270498 190.713891 
Q 90.270498 193.463891 93.020498 193.463891 
z
" clip-path="url(#pdbff6b7269)" style="fill: #ffffff; stroke: #000000; stroke-width: 0.7; stroke-linejoin: miter"/>
    </g>
    <g clip-path="url(#pdbff6b7269)">
     <!-- 2001 -->
     <g transform="translate(93.020498 188.426235) scale(0.11 -0.11)">
      <use xlink:href="#DejaVuSans-32"/>
      <use xlink:href="#DejaVuSans-30" x="63.623047"/>
      <use xlink:href="#DejaVuSans-30" x="127.246094"/>
      <use xlink:href="#DejaVuSans-31" x="190.869141"/>
     </g>
    </g>
   </g>
   <g id="text_14">
    <g id="patch_6">
     <path d="M 93.020498 193.463891 
L 121.015498 193.463891 
Q 123.765498 193.463891 123.765498 190.713891 
L 123.765498 180.067954 
Q 123.765498 177.317954 121.015498 177.317954 
L 93.020498 177.317954 
Q 90.270498 177.317954 90.270498 180.067954 
L 90.270498 190.713891 
Q 90.270498 193.463891 93.020498 193.463891 
z
" clip-path="url(#pdbff6b7269)" style="fill: #ffffff; stroke: #000000; stroke-width: 0.7; stroke-linejoin: miter"/>
    </g>
    <g clip-path="url(#pdbff6b7269)">
     <!-- 2001 -->
     <g transform="translate(93.020498 188.426235) scale(0.11 -0.11)">
      <use xlink:href="#DejaVuSans-32"/>
      <use xlink:href="#DejaVuSans-30" x="63.623047"/>
      <use xlink:href="#DejaVuSans-30" x="127.246094"/>
      <use xlink:href="#DejaVuSans-31" x="190.869141"/>
     </g>
    </g>
   </g>
   <g id="text_15">
    <g id="patch_7">
     <path d="M 93.020498 193.463891 
L 121.015498 193.463891 
Q 123.765498 193.463891 123.765498 190.713891 
L 123.765498 180.067954 
Q 123.765498 177.317954 121.015498 177.317954 
L 93.020498 177.317954 
Q 90.270498 177.317954 90.270498 180.067954 
L 90.270498 190.713891 
Q 90.270498 193.463891 93.020498 193.463891 
z
" clip-path="url(#pdbff6b7269)" style="fill: #ffffff; stroke: #000000; stroke-width: 0.7; stroke-linejoin: miter"/>
    </g>
    <g clip-path="url(#pdbff6b7269)">
     <!-- 2001 -->
     <g transform="translate(93.020498 188.426235) scale(0.11 -0.11)">
      <use xlink:href="#DejaVuSans-32"/>
      <use xlink:href="#DejaVuSans-30" x="63.623047"/>
      <use xlink:href="#DejaVuSans-30" x="127.246094"/>
      <use xlink:href="#DejaVuSans-31" x="190.869141"/>
     </g>
    </g>
   </g>
   <g id="text_16">
    <g id="patch_8">
     <path d="M 93.020498 193.463891 
L 121.015498 193.463891 
Q 123.765498 193.463891 123.765498 190.713891 
L 123.765498 180.067954 
Q 123.765498 177.317954 121.015498 177.317954 
L 93.020498 177.317954 
Q 90.270498 177.317954 90.270498 180.067954 
L 90.270498 190.713891 
Q 90.270498 193.463891 93.020498 193.463891 
z
" clip-path="url(#pdbff6b7269)" style="fill: #ffffff; stroke: #000000; stroke-width: 0.7; stroke-linejoin: miter"/>
    </g>
    <g clip-path="url(#pdbff6b7269)">
     <!-- 2001 -->
     <g transform="translate(93.020498 188.426235) scale(0.11 -0.11)">
      <use xlink:href="#DejaVuSans-32"/>
      <use xlink:href="#DejaVuSans-30" x="63.623047"/>
      <use xlink:href="#DejaVuSans-30" x="127.246094"/>
      <use xlink:href="#DejaVuSans-31" x="190.869141"/>
     </g>
    </g>
   </g>
   <g id="text_17">
    <g id="patch_9">
     <path d="M 93.020498 193.463891 
L 121.015498 193.463891 
Q 123.765498 193.463891 123.765498 190.713891 
L 123.765498 180.067954 
Q 123.765498 177.317954 121.015498 177.317954 
L 93.020498 177.317954 
Q 90.270498 177.317954 90.270498 180.067954 
L 90.270498 190.713891 
Q 90.270498 193.463891 93.020498 193.463891 
z
" clip-path="url(#pdbff6b7269)" style="fill: #ffffff; stroke: #000000; stroke-width: 0.7; stroke-linejoin: miter"/>
    </g>
    <g clip-path="url(#pdbff6b7269)">
     <!-- 2001 -->
     <g transform="translate(93.020498 188.426235) scale(0.11 -0.11)">
      <use xlink:href="#DejaVuSans-32"/>
      <use xlink:href="#DejaVuSans-30" x="63.623047"/>
      <use xlink:href="#DejaVuSans-30" x="127.246094"/>
      <use xlink:href="#DejaVuSans-31" x="190.869141"/>
     </g>
    </g>
   </g>
   <g id="text_18">
    <g id="patch_10">
     <path d="M 93.020498 193.463891 
L 121.015498 193.463891 
Q 123.765498 193.463891 123.765498 190.713891 
L 123.765498 180.067954 
Q 123.765498 177.317954 121.015498 177.317954 
L 93.020498 177.317954 
Q 90.270498 177.317954 90.270498 180.067954 
L 90.270498 190.713891 
Q 90.270498 193.463891 93.020498 193.463891 
z
" clip-path="url(#pdbff6b7269)" style="fill: #ffffff; stroke: #000000; stroke-width: 0.7; stroke-linejoin: miter"/>
    </g>
    <g clip-path="url(#pdbff6b7269)">
     <!-- 2001 -->
     <g transform="translate(93.020498 188.426235) scale(0.11 -0.11)">
      <use xlink:href="#DejaVuSans-32"/>
      <use xlink:href="#DejaVuSans-30" x="63.623047"/>
      <use xlink:href="#DejaVuSans-30" x="127.246094"/>
      <use xlink:href="#DejaVuSans-31" x="190.869141"/>
     </g>
    </g>
   </g>
   <g id="text_19">
    <g id="patch_11">
     <path d="M 93.020498 193.463891 
L 121.015498 193.463891 
Q 123.765498 193.463891 123.765498 190.713891 
L 123.765498 180.067954 
Q 123.765498 177.317954 121.015498 177.317954 
L 93.020498 177.317954 
Q 90.270498 177.317954 90.270498 180.067954 
L 90.270498 190.713891 
Q 90.270498 193.463891 93.020498 193.463891 
z
" clip-path="url(#pdbff6b7269)" style="fill: #ffffff; stroke: #000000; stroke-width: 0.7; stroke-linejoin: miter"/>
    </g>
    <g clip-path="url(#pdbff6b7269)">
     <!-- 2001 -->
     <g transform="translate(93.020498 188.426235) scale(0.11 -0.11)">
      <use xlink:href="#DejaVuSans-32"/>
      <use xlink:href="#DejaVuSans-30" x="63.623047"/>
      <use xlink:href="#DejaVuSans-30" x="127.246094"/>
      <use xlink:href="#DejaVuSans-31" x="190.869141"/>
     </g>
    </g>
   </g>
   <g id="text_20">
    <g id="patch_12">
     <path d="M 93.020498 193.463891 
L 121.015498 193.463891 
Q 123.765498 193.463891 123.765498 190.713891 
L 123.765498 180.067954 
Q 123.765498 177.317954 121.015498 177.317954 
L 93.020498 177.317954 
Q 90.270498 177.317954 90.270498 180.067954 
L 90.270498 190.713891 
Q 90.270498 193.463891 93.020498 193.463891 
z
" clip-path="url(#pdbff6b7269)" style="fill: #ffffff; stroke: #000000; stroke-width: 0.7; stroke-linejoin: miter"/>
    </g>
    <g clip-path="url(#pdbff6b7269)">
     <!-- 2001 -->
     <g transform="translate(93.020498 188.426235) scale(0.11 -0.11)">
      <use xlink:href="#DejaVuSans-32"/>
      <use xlink:href="#DejaVuSans-30" x="63.623047"/>
      <use xlink:href="#DejaVuSans-30" x="127.246094"/>
      <use xlink:href="#DejaVuSans-31" x="190.869141"/>
     </g>
    </g>
   </g>
   <g id="text_21">
    <g id="patch_13">
     <path d="M 93.020498 193.463891 
L 121.015498 193.463891 
Q 123.765498 193.463891 123.765498 190.713891 
L 123.765498 180.067954 
Q 123.765498 177.317954 121.015498 177.317954 
L 93.020498 177.317954 
Q 90.270498 177.317954 90.270498 180.067954 
L 90.270498 190.713891 
Q 90.270498 193.463891 93.020498 193.463891 
z
" clip-path="url(#pdbff6b7269)" style="fill: #ffffff; stroke: #000000; stroke-width: 0.7; stroke-linejoin: miter"/>
    </g>
    <g clip-path="url(#pdbff6b7269)">
     <!-- 2001 -->
     <g transform="translate(93.020498 188.426235) scale(0.11 -0.11)">
      <use xlink:href="#DejaVuSans-32"/>
      <use xlink:href="#DejaVuSans-30" x="63.623047"/>
      <use xlink:href="#DejaVuSans-30" x="127.246094"/>
      <use xlink:href="#DejaVuSans-31" x="190.869141"/>
     </g>
    </g>
   </g>
   <g id="text_22">
    <g id="patch_14">
     <path d="M 93.020498 193.463891 
L 121.015498 193.463891 
Q 123.765498 193.463891 123.765498 190.713891 
L 123.765498 180.067954 
Q 123.765498 177.317954 121.015498 177.317954 
L 93.020498 177.317954 
Q 90.270498 177.317954 90.270498 180.067954 
L 90.270498 190.713891 
Q 90.270498 193.463891 93.020498 193.463891 
z
" clip-path="url(#pdbff6b7269)" style="fill: #ffffff; stroke: #000000; stroke-width: 0.7; stroke-linejoin: miter"/>
    </g>
    <g clip-path="url(#pdbff6b7269)">
     <!-- 2001 -->
     <g transform="translate(93.020498 188.426235) scale(0.11 -0.11)">
      <use xlink:href="#DejaVuSans-32"/>
      <use xlink:href="#DejaVuSans-30" x="63.623047"/>
      <use xlink:href="#DejaVuSans-30" x="127.246094"/>
      <use xlink:href="#DejaVuSans-31" x="190.869141"/>
     </g>
    </g>
   </g>
   <g id="text_23">
    <g id="patch_15">
     <path d="M 93.020498 193.463891 
L 121.015498 193.463891 
Q 123.765498 193.463891 123.765498 190.713891 
L 123.765498 180.067954 
Q 123.765498 177.317954 121.015498 177.317954 
L 93.020498 177.317954 
Q 90.270498 177.317954 90.270498 180.067954 
L 90.270498 190.713891 
Q 90.270498 193.463891 93.020498 193.463891 
z
" clip-path="url(#pdbff6b7269)" style="fill: #ffffff; stroke: #000000; stroke-width: 0.7; stroke-linejoin: miter"/>
    </g>
    <g clip-path="url(#pdbff6b7269)">
     <!-- 2001 -->
     <g transform="translate(93.020498 188.426235) scale(0.11 -0.11)">
      <use xlink:href="#DejaVuSans-32"/>
      <use xlink:href="#DejaVuSans-30" x="63.623047"/>
      <use xlink:href="#DejaVuSans-30" x="127.246094"/>
      <use xlink:href="#DejaVuSans-31" x="190.869141"/>
     </g>
    </g>
   </g>
   <g id="text_24">
    <g id="patch_16">
     <path d="M 93.020498 193.463891 
L 121.015498 193.463891 
Q 123.765498 193.463891 123.765498 190.713891 
L 123.765498 180.067954 
Q 123.765498 177.317954 121.015498 177.317954 
L 93.020498 177.317954 
Q 90.270498 177.317954 90.270498 180.067954 
L 90.270498 190.713891 
Q 90.270498 193.463891 93.020498 193.463891 
z
" clip-path="url(#pdbff6b7269)" style="fill: #ffffff; stroke: #000000; stroke-width: 0.7; stroke-linejoin: miter"/>
    </g>
    <g clip-path="url(#pdbff6b7269)">
     <!-- 2001 -->
     <g transform="translate(93.020498 188.426235) scale(0.11 -0.11)">
      <use xlink:href="#DejaVuSans-32"/>
      <use xlink:href="#DejaVuSans-30" x="63.623047"/>
      <use xlink:href="#DejaVuSans-30" x="127.246094"/>
      <use xlink:href="#DejaVuSans-31" x="190.869141"/>
     </g>
    </g>
   </g>
   <g id="text_25">
    <g id="patch_17">
     <path d="M 93.020498 193.463891 
L 121.015498 193.463891 
Q 123.765498 193.463891 123.765498 190.713891 
L 123.765498 180.067954 
Q 123.765498 177.317954 121.015498 177.317954 
L 93.020498 177.317954 
Q 90.270498 177.317954 90.270498 180.067954 
L 90.270498 190.713891 
Q 90.270498 193.463891 93.020498 193.463891 
z
" clip-path="url(#pdbff6b7269)" style="fill: #ffffff; stroke: #000000; stroke-width: 0.7; stroke-linejoin: miter"/>
    </g>
    <g clip-path="url(#pdbff6b7269)">
     <!-- 2001 -->
     <g transform="translate(93.020498 188.426235) scale(0.11 -0.11)">
      <use xlink:href="#DejaVuSans-32"/>
      <use xlink:href="#DejaVuSans-30" x="63.623047"/>
      <use xlink:href="#DejaVuSans-30" x="127.246094"/>
      <use xlink:href="#DejaVuSans-31" x="190.869141"/>
     </g>
    </g>
   </g>
   <g id="text_26">
    <g id="patch_18">
     <path d="M 93.020498 193.463891 
L 121.015498 193.463891 
Q 123.765498 193.463891 123.765498 190.713891 
L 123.765498 180.067954 
Q 123.765498 177.317954 121.015498 177.317954 
L 93.020498 177.317954 
Q 90.270498 177.317954 90.270498 180.067954 
L 90.270498 190.713891 
Q 90.270498 193.463891 93.020498 193.463891 
z
" clip-path="url(#pdbff6b7269)" style="fill: #ffffff; stroke: #000000; stroke-width: 0.7; stroke-linejoin: miter"/>
    </g>
    <g clip-path="url(#pdbff6b7269)">
     <!-- 2001 -->
     <g transform="translate(93.020498 188.426235) scale(0.11 -0.11)">
      <use xlink:href="#DejaVuSans-32"/>
      <use xlink:href="#DejaVuSans-30" x="63.623047"/>
      <use xlink:href="#DejaVuSans-30" x="127.246094"/>
      <use xlink:href="#DejaVuSans-31" x="190.869141"/>
     </g>
    </g>
   </g>
   <g id="text_27">
    <g id="patch_19">
     <path d="M 93.020498 193.463891 
L 121.015498 193.463891 
Q 123.765498 193.463891 123.765498 190.713891 
L 123.765498 180.067954 
Q 123.765498 177.317954 121.015498 177.317954 
L 93.020498 177.317954 
Q 90.270498 177.317954 90.270498 180.067954 
L 90.270498 190.713891 
Q 90.270498 193.463891 93.020498 193.463891 
z
" clip-path="url(#pdbff6b7269)" style="fill: #ffffff; stroke: #000000; stroke-width: 0.7; stroke-linejoin: miter"/>
    </g>
    <g clip-path="url(#pdbff6b7269)">
     <!-- 2001 -->
     <g transform="translate(93.020498 188.426235) scale(0.11 -0.11)">
      <use xlink:href="#DejaVuSans-32"/>
      <use xlink:href="#DejaVuSans-30" x="63.623047"/>
      <use xlink:href="#DejaVuSans-30" x="127.246094"/>
      <use xlink:href="#DejaVuSans-31" x="190.869141"/>
     </g>
    </g>
   </g>
   <g id="text_28">
    <g id="patch_20">
     <path d="M 93.020498 193.463891 
L 121.015498 193.463891 
Q 123.765498 193.463891 123.765498 190.713891 
L 123.765498 180.067954 
Q 123.765498 177.317954 121.015498 177.317954 
L 93.020498 177.317954 
Q 90.270498 177.317954 90.270498 180.067954 
L 90.270498 190.713891 
Q 90.270498 193.463891 93.020498 193.463891 
z
" clip-path="url(#pdbff6b7269)" style="fill: #ffffff; stroke: #000000; stroke-width: 0.7; stroke-linejoin: miter"/>
    </g>
    <g clip-path="url(#pdbff6b7269)">
     <!-- 2001 -->
     <g transform="translate(93.020498 188.426235) scale(0.11 -0.11)">
      <use xlink:href="#DejaVuSans-32"/>
      <use xlink:href="#DejaVuSans-30" x="63.623047"/>
      <use xlink:href="#DejaVuSans-30" x="127.246094"/>
      <use xlink:href="#DejaVuSans-31" x="190.869141"/>
     </g>
    </g>
   </g>
   <g id="text_29">
    <g id="patch_21">
     <path d="M 93.020498 193.463891 
L 121.015498 193.463891 
Q 123.765498 193.463891 123.765498 190.713891 
L 123.765498 180.067954 
Q 123.765498 177.317954 121.015498 177.317954 
L 93.020498 177.317954 
Q 90.270498 177.317954 90.270498 180.067954 
L 90.270498 190.713891 
Q 90.270498 193.463891 93.020498 193.463891 
z
" clip-path="url(#pdbff6b7269)" style="fill: #ffffff; stroke: #000000; stroke-width: 0.7; stroke-linejoin: miter"/>
    </g>
    <g clip-path="url(#pdbff6b7269)">
     <!-- 2001 -->
     <g transform="translate(93.020498 188.426235) scale(0.11 -0.11)">
      <use xlink:href="#DejaVuSans-32"/>
      <use xlink:href="#DejaVuSans-30" x="63.623047"/>
      <use xlink:href="#DejaVuSans-30" x="127.246094"/>
      <use xlink:href="#DejaVuSans-31" x="190.869141"/>
     </g>
    </g>
   </g>
   <g id="text_30">
    <g id="patch_22">
     <path d="M 93.020498 193.463891 
L 121.015498 193.463891 
Q 123.765498 193.463891 123.765498 190.713891 
L 123.765498 180.067954 
Q 123.765498 177.317954 121.015498 177.317954 
L 93.020498 177.317954 
Q 90.270498 177.317954 90.270498 180.067954 
L 90.270498 190.713891 
Q 90.270498 193.463891 93.020498 193.463891 
z
" clip-path="url(#pdbff6b7269)" style="fill: #ffffff; stroke: #000000; stroke-width: 0.7; stroke-linejoin: miter"/>
    </g>
    <g clip-path="url(#pdbff6b7269)">
     <!-- 2001 -->
     <g transform="translate(93.020498 188.426235) scale(0.11 -0.11)">
      <use xlink:href="#DejaVuSans-32"/>
      <use xlink:href="#DejaVuSans-30" x="63.623047"/>
      <use xlink:href="#DejaVuSans-30" x="127.246094"/>
      <use xlink:href="#DejaVuSans-31" x="190.869141"/>
     </g>
    </g>
   </g>
   <g id="text_31">
    <g id="patch_23">
     <path d="M 93.020498 193.463891 
L 121.015498 193.463891 
Q 123.765498 193.463891 123.765498 190.713891 
L 123.765498 180.067954 
Q 123.765498 177.317954 121.015498 177.317954 
L 93.020498 177.317954 
Q 90.270498 177.317954 90.270498 180.067954 
L 90.270498 190.713891 
Q 90.270498 193.463891 93.020498 193.463891 
z
" clip-path="url(#pdbff6b7269)" style="fill: #ffffff; stroke: #000000; stroke-width: 0.7; stroke-linejoin: miter"/>
    </g>
    <g clip-path="url(#pdbff6b7269)">
     <!-- 2001 -->
     <g transform="translate(93.020498 188.426235) scale(0.11 -0.11)">
      <use xlink:href="#DejaVuSans-32"/>
      <use xlink:href="#DejaVuSans-30" x="63.623047"/>
      <use xlink:href="#DejaVuSans-30" x="127.246094"/>
      <use xlink:href="#DejaVuSans-31" x="190.869141"/>
     </g>
    </g>
   </g>
   <g id="text_32">
    <g id="patch_24">
     <path d="M 178.40784 27.368969 
L 206.40284 27.368969 
Q 209.15284 27.368969 209.15284 24.618969 
L 209.15284 13.973031 
Q 209.15284 11.223031 206.40284 11.223031 
L 178.40784 11.223031 
Q 175.65784 11.223031 175.65784 13.973031 
L 175.65784 24.618969 
Q 175.65784 27.368969 178.40784 27.368969 
z
" clip-path="url(#pdbff6b7269)" style="fill: #ffffff; stroke: #000000; stroke-width: 0.7; stroke-linejoin: miter"/>
    </g>
    <g clip-path="url(#pdbff6b7269)">
     <!-- 2021 -->
     <g transform="translate(178.40784 22.331313) scale(0.11 -0.11)">
      <use xlink:href="#DejaVuSans-32"/>
      <use xlink:href="#DejaVuSans-30" x="63.623047"/>
      <use xlink:href="#DejaVuSans-32" x="127.246094"/>
      <use xlink:href="#DejaVuSans-31" x="190.869141"/>
     </g>
    </g>
   </g>
   <g id="text_33">
    <g id="patch_25">
     <path d="M 178.40784 27.368969 
L 206.40284 27.368969 
Q 209.15284 27.368969 209.15284 24.618969 
L 209.15284 13.973031 
Q 209.15284 11.223031 206.40284 11.223031 
L 178.40784 11.223031 
Q 175.65784 11.223031 175.65784 13.973031 
L 175.65784 24.618969 
Q 175.65784 27.368969 178.40784 27.368969 
z
" clip-path="url(#pdbff6b7269)" style="fill: #ffffff; stroke: #000000; stroke-width: 0.7; stroke-linejoin: miter"/>
    </g>
    <g clip-path="url(#pdbff6b7269)">
     <!-- 2021 -->
     <g transform="translate(178.40784 22.331313) scale(0.11 -0.11)">
      <use xlink:href="#DejaVuSans-32"/>
      <use xlink:href="#DejaVuSans-30" x="63.623047"/>
      <use xlink:href="#DejaVuSans-32" x="127.246094"/>
      <use xlink:href="#DejaVuSans-31" x="190.869141"/>
     </g>
    </g>
   </g>
   <g id="text_34">
    <g id="patch_26">
     <path d="M 178.40784 27.368969 
L 206.40284 27.368969 
Q 209.15284 27.368969 209.15284 24.618969 
L 209.15284 13.973031 
Q 209.15284 11.223031 206.40284 11.223031 
L 178.40784 11.223031 
Q 175.65784 11.223031 175.65784 13.973031 
L 175.65784 24.618969 
Q 175.65784 27.368969 178.40784 27.368969 
z
" clip-path="url(#pdbff6b7269)" style="fill: #ffffff; stroke: #000000; stroke-width: 0.7; stroke-linejoin: miter"/>
    </g>
    <g clip-path="url(#pdbff6b7269)">
     <!-- 2021 -->
     <g transform="translate(178.40784 22.331313) scale(0.11 -0.11)">
      <use xlink:href="#DejaVuSans-32"/>
      <use xlink:href="#DejaVuSans-30" x="63.623047"/>
      <use xlink:href="#DejaVuSans-32" x="127.246094"/>
      <use xlink:href="#DejaVuSans-31" x="190.869141"/>
     </g>
    </g>
   </g>
   <g id="text_35">
    <g id="patch_27">
     <path d="M 178.40784 27.368969 
L 206.40284 27.368969 
Q 209.15284 27.368969 209.15284 24.618969 
L 209.15284 13.973031 
Q 209.15284 11.223031 206.40284 11.223031 
L 178.40784 11.223031 
Q 175.65784 11.223031 175.65784 13.973031 
L 175.65784 24.618969 
Q 175.65784 27.368969 178.40784 27.368969 
z
" clip-path="url(#pdbff6b7269)" style="fill: #ffffff; stroke: #000000; stroke-width: 0.7; stroke-linejoin: miter"/>
    </g>
    <g clip-path="url(#pdbff6b7269)">
     <!-- 2021 -->
     <g transform="translate(178.40784 22.331313) scale(0.11 -0.11)">
      <use xlink:href="#DejaVuSans-32"/>
      <use xlink:href="#DejaVuSans-30" x="63.623047"/>
      <use xlink:href="#DejaVuSans-32" x="127.246094"/>
      <use xlink:href="#DejaVuSans-31" x="190.869141"/>
     </g>
    </g>
   </g>
   <g id="text_36">
    <g id="patch_28">
     <path d="M 178.40784 27.368969 
L 206.40284 27.368969 
Q 209.15284 27.368969 209.15284 24.618969 
L 209.15284 13.973031 
Q 209.15284 11.223031 206.40284 11.223031 
L 178.40784 11.223031 
Q 175.65784 11.223031 175.65784 13.973031 
L 175.65784 24.618969 
Q 175.65784 27.368969 178.40784 27.368969 
z
" clip-path="url(#pdbff6b7269)" style="fill: #ffffff; stroke: #000000; stroke-width: 0.7; stroke-linejoin: miter"/>
    </g>
    <g clip-path="url(#pdbff6b7269)">
     <!-- 2021 -->
     <g transform="translate(178.40784 22.331313) scale(0.11 -0.11)">
      <use xlink:href="#DejaVuSans-32"/>
      <use xlink:href="#DejaVuSans-30" x="63.623047"/>
      <use xlink:href="#DejaVuSans-32" x="127.246094"/>
      <use xlink:href="#DejaVuSans-31" x="190.869141"/>
     </g>
    </g>
   </g>
   <g id="text_37">
    <g id="patch_29">
     <path d="M 178.40784 27.368969 
L 206.40284 27.368969 
Q 209.15284 27.368969 209.15284 24.618969 
L 209.15284 13.973031 
Q 209.15284 11.223031 206.40284 11.223031 
L 178.40784 11.223031 
Q 175.65784 11.223031 175.65784 13.973031 
L 175.65784 24.618969 
Q 175.65784 27.368969 178.40784 27.368969 
z
" clip-path="url(#pdbff6b7269)" style="fill: #ffffff; stroke: #000000; stroke-width: 0.7; stroke-linejoin: miter"/>
    </g>
    <g clip-path="url(#pdbff6b7269)">
     <!-- 2021 -->
     <g transform="translate(178.40784 22.331313) scale(0.11 -0.11)">
      <use xlink:href="#DejaVuSans-32"/>
      <use xlink:href="#DejaVuSans-30" x="63.623047"/>
      <use xlink:href="#DejaVuSans-32" x="127.246094"/>
      <use xlink:href="#DejaVuSans-31" x="190.869141"/>
     </g>
    </g>
   </g>
   <g id="text_38">
    <g id="patch_30">
     <path d="M 178.40784 27.368969 
L 206.40284 27.368969 
Q 209.15284 27.368969 209.15284 24.618969 
L 209.15284 13.973031 
Q 209.15284 11.223031 206.40284 11.223031 
L 178.40784 11.223031 
Q 175.65784 11.223031 175.65784 13.973031 
L 175.65784 24.618969 
Q 175.65784 27.368969 178.40784 27.368969 
z
" clip-path="url(#pdbff6b7269)" style="fill: #ffffff; stroke: #000000; stroke-width: 0.7; stroke-linejoin: miter"/>
    </g>
    <g clip-path="url(#pdbff6b7269)">
     <!-- 2021 -->
     <g transform="translate(178.40784 22.331313) scale(0.11 -0.11)">
      <use xlink:href="#DejaVuSans-32"/>
      <use xlink:href="#DejaVuSans-30" x="63.623047"/>
      <use xlink:href="#DejaVuSans-32" x="127.246094"/>
      <use xlink:href="#DejaVuSans-31" x="190.869141"/>
     </g>
    </g>
   </g>
   <g id="text_39">
    <g id="patch_31">
     <path d="M 178.40784 27.368969 
L 206.40284 27.368969 
Q 209.15284 27.368969 209.15284 24.618969 
L 209.15284 13.973031 
Q 209.15284 11.223031 206.40284 11.223031 
L 178.40784 11.223031 
Q 175.65784 11.223031 175.65784 13.973031 
L 175.65784 24.618969 
Q 175.65784 27.368969 178.40784 27.368969 
z
" clip-path="url(#pdbff6b7269)" style="fill: #ffffff; stroke: #000000; stroke-width: 0.7; stroke-linejoin: miter"/>
    </g>
    <g clip-path="url(#pdbff6b7269)">
     <!-- 2021 -->
     <g transform="translate(178.40784 22.331313) scale(0.11 -0.11)">
      <use xlink:href="#DejaVuSans-32"/>
      <use xlink:href="#DejaVuSans-30" x="63.623047"/>
      <use xlink:href="#DejaVuSans-32" x="127.246094"/>
      <use xlink:href="#DejaVuSans-31" x="190.869141"/>
     </g>
    </g>
   </g>
   <g id="text_40">
    <g id="patch_32">
     <path d="M 178.40784 27.368969 
L 206.40284 27.368969 
Q 209.15284 27.368969 209.15284 24.618969 
L 209.15284 13.973031 
Q 209.15284 11.223031 206.40284 11.223031 
L 178.40784 11.223031 
Q 175.65784 11.223031 175.65784 13.973031 
L 175.65784 24.618969 
Q 175.65784 27.368969 178.40784 27.368969 
z
" clip-path="url(#pdbff6b7269)" style="fill: #ffffff; stroke: #000000; stroke-width: 0.7; stroke-linejoin: miter"/>
    </g>
    <g clip-path="url(#pdbff6b7269)">
     <!-- 2021 -->
     <g transform="translate(178.40784 22.331313) scale(0.11 -0.11)">
      <use xlink:href="#DejaVuSans-32"/>
      <use xlink:href="#DejaVuSans-30" x="63.623047"/>
      <use xlink:href="#DejaVuSans-32" x="127.246094"/>
      <use xlink:href="#DejaVuSans-31" x="190.869141"/>
     </g>
    </g>
   </g>
   <g id="text_41">
    <g id="patch_33">
     <path d="M 178.40784 27.368969 
L 206.40284 27.368969 
Q 209.15284 27.368969 209.15284 24.618969 
L 209.15284 13.973031 
Q 209.15284 11.223031 206.40284 11.223031 
L 178.40784 11.223031 
Q 175.65784 11.223031 175.65784 13.973031 
L 175.65784 24.618969 
Q 175.65784 27.368969 178.40784 27.368969 
z
" clip-path="url(#pdbff6b7269)" style="fill: #ffffff; stroke: #000000; stroke-width: 0.7; stroke-linejoin: miter"/>
    </g>
    <g clip-path="url(#pdbff6b7269)">
     <!-- 2021 -->
     <g transform="translate(178.40784 22.331313) scale(0.11 -0.11)">
      <use xlink:href="#DejaVuSans-32"/>
      <use xlink:href="#DejaVuSans-30" x="63.623047"/>
      <use xlink:href="#DejaVuSans-32" x="127.246094"/>
      <use xlink:href="#DejaVuSans-31" x="190.869141"/>
     </g>
    </g>
   </g>
   <g id="text_42">
    <g id="patch_34">
     <path d="M 178.40784 27.368969 
L 206.40284 27.368969 
Q 209.15284 27.368969 209.15284 24.618969 
L 209.15284 13.973031 
Q 209.15284 11.223031 206.40284 11.223031 
L 178.40784 11.223031 
Q 175.65784 11.223031 175.65784 13.973031 
L 175.65784 24.618969 
Q 175.65784 27.368969 178.40784 27.368969 
z
" clip-path="url(#pdbff6b7269)" style="fill: #ffffff; stroke: #000000; stroke-width: 0.7; stroke-linejoin: miter"/>
    </g>
    <g clip-path="url(#pdbff6b7269)">
     <!-- 2021 -->
     <g transform="translate(178.40784 22.331313) scale(0.11 -0.11)">
      <use xlink:href="#DejaVuSans-32"/>
      <use xlink:href="#DejaVuSans-30" x="63.623047"/>
      <use xlink:href="#DejaVuSans-32" x="127.246094"/>
      <use xlink:href="#DejaVuSans-31" x="190.869141"/>
     </g>
    </g>
   </g>
   <g id="text_43">
    <g id="patch_35">
     <path d="M 178.40784 27.368969 
L 206.40284 27.368969 
Q 209.15284 27.368969 209.15284 24.618969 
L 209.15284 13.973031 
Q 209.15284 11.223031 206.40284 11.223031 
L 178.40784 11.223031 
Q 175.65784 11.223031 175.65784 13.973031 
L 175.65784 24.618969 
Q 175.65784 27.368969 178.40784 27.368969 
z
" clip-path="url(#pdbff6b7269)" style="fill: #ffffff; stroke: #000000; stroke-width: 0.7; stroke-linejoin: miter"/>
    </g>
    <g clip-path="url(#pdbff6b7269)">
     <!-- 2021 -->
     <g transform="translate(178.40784 22.331313) scale(0.11 -0.11)">
      <use xlink:href="#DejaVuSans-32"/>
      <use xlink:href="#DejaVuSans-30" x="63.623047"/>
      <use xlink:href="#DejaVuSans-32" x="127.246094"/>
      <use xlink:href="#DejaVuSans-31" x="190.869141"/>
     </g>
    </g>
   </g>
   <g id="text_44">
    <g id="patch_36">
     <path d="M 178.40784 27.368969 
L 206.40284 27.368969 
Q 209.15284 27.368969 209.15284 24.618969 
L 209.15284 13.973031 
Q 209.15284 11.223031 206.40284 11.223031 
L 178.40784 11.223031 
Q 175.65784 11.223031 175.65784 13.973031 
L 175.65784 24.618969 
Q 175.65784 27.368969 178.40784 27.368969 
z
" clip-path="url(#pdbff6b7269)" style="fill: #ffffff; stroke: #000000; stroke-width: 0.7; stroke-linejoin: miter"/>
    </g>
    <g clip-path="url(#pdbff6b7269)">
     <!-- 2021 -->
     <g transform="translate(178.40784 22.331313) scale(0.11 -0.11)">
      <use xlink:href="#DejaVuSans-32"/>
      <use xlink:href="#DejaVuSans-30" x="63.623047"/>
      <use xlink:href="#DejaVuSans-32" x="127.246094"/>
      <use xlink:href="#DejaVuSans-31" x="190.869141"/>
     </g>
    </g>
   </g>
   <g id="text_45">
    <g id="patch_37">
     <path d="M 178.40784 27.368969 
L 206.40284 27.368969 
Q 209.15284 27.368969 209.15284 24.618969 
L 209.15284 13.973031 
Q 209.15284 11.223031 206.40284 11.223031 
L 178.40784 11.223031 
Q 175.65784 11.223031 175.65784 13.973031 
L 175.65784 24.618969 
Q 175.65784 27.368969 178.40784 27.368969 
z
" clip-path="url(#pdbff6b7269)" style="fill: #ffffff; stroke: #000000; stroke-width: 0.7; stroke-linejoin: miter"/>
    </g>
    <g clip-path="url(#pdbff6b7269)">
     <!-- 2021 -->
     <g transform="translate(178.40784 22.331313) scale(0.11 -0.11)">
      <use xlink:href="#DejaVuSans-32"/>
      <use xlink:href="#DejaVuSans-30" x="63.623047"/>
      <use xlink:href="#DejaVuSans-32" x="127.246094"/>
      <use xlink:href="#DejaVuSans-31" x="190.869141"/>
     </g>
    </g>
   </g>
   <g id="text_46">
    <g id="patch_38">
     <path d="M 178.40784 27.368969 
L 206.40284 27.368969 
Q 209.15284 27.368969 209.15284 24.618969 
L 209.15284 13.973031 
Q 209.15284 11.223031 206.40284 11.223031 
L 178.40784 11.223031 
Q 175.65784 11.223031 175.65784 13.973031 
L 175.65784 24.618969 
Q 175.65784 27.368969 178.40784 27.368969 
z
" clip-path="url(#pdbff6b7269)" style="fill: #ffffff; stroke: #000000; stroke-width: 0.7; stroke-linejoin: miter"/>
    </g>
    <g clip-path="url(#pdbff6b7269)">
     <!-- 2021 -->
     <g transform="translate(178.40784 22.331313) scale(0.11 -0.11)">
      <use xlink:href="#DejaVuSans-32"/>
      <use xlink:href="#DejaVuSans-30" x="63.623047"/>
      <use xlink:href="#DejaVuSans-32" x="127.246094"/>
      <use xlink:href="#DejaVuSans-31" x="190.869141"/>
     </g>
    </g>
   </g>
   <g id="text_47">
    <g id="patch_39">
     <path d="M 178.40784 27.368969 
L 206.40284 27.368969 
Q 209.15284 27.368969 209.15284 24.618969 
L 209.15284 13.973031 
Q 209.15284 11.223031 206.40284 11.223031 
L 178.40784 11.223031 
Q 175.65784 11.223031 175.65784 13.973031 
L 175.65784 24.618969 
Q 175.65784 27.368969 178.40784 27.368969 
z
" clip-path="url(#pdbff6b7269)" style="fill: #ffffff; stroke: #000000; stroke-width: 0.7; stroke-linejoin: miter"/>
    </g>
    <g clip-path="url(#pdbff6b7269)">
     <!-- 2021 -->
     <g transform="translate(178.40784 22.331313) scale(0.11 -0.11)">
      <use xlink:href="#DejaVuSans-32"/>
      <use xlink:href="#DejaVuSans-30" x="63.623047"/>
      <use xlink:href="#DejaVuSans-32" x="127.246094"/>
      <use xlink:href="#DejaVuSans-31" x="190.869141"/>
     </g>
    </g>
   </g>
   <g id="text_48">
    <g id="patch_40">
     <path d="M 178.40784 27.368969 
L 206.40284 27.368969 
Q 209.15284 27.368969 209.15284 24.618969 
L 209.15284 13.973031 
Q 209.15284 11.223031 206.40284 11.223031 
L 178.40784 11.223031 
Q 175.65784 11.223031 175.65784 13.973031 
L 175.65784 24.618969 
Q 175.65784 27.368969 178.40784 27.368969 
z
" clip-path="url(#pdbff6b7269)" style="fill: #ffffff; stroke: #000000; stroke-width: 0.7; stroke-linejoin: miter"/>
    </g>
    <g clip-path="url(#pdbff6b7269)">
     <!-- 2021 -->
     <g transform="translate(178.40784 22.331313) scale(0.11 -0.11)">
      <use xlink:href="#DejaVuSans-32"/>
      <use xlink:href="#DejaVuSans-30" x="63.623047"/>
      <use xlink:href="#DejaVuSans-32" x="127.246094"/>
      <use xlink:href="#DejaVuSans-31" x="190.869141"/>
     </g>
    </g>
   </g>
   <g id="text_49">
    <g id="patch_41">
     <path d="M 178.40784 27.368969 
L 206.40284 27.368969 
Q 209.15284 27.368969 209.15284 24.618969 
L 209.15284 13.973031 
Q 209.15284 11.223031 206.40284 11.223031 
L 178.40784 11.223031 
Q 175.65784 11.223031 175.65784 13.973031 
L 175.65784 24.618969 
Q 175.65784 27.368969 178.40784 27.368969 
z
" clip-path="url(#pdbff6b7269)" style="fill: #ffffff; stroke: #000000; stroke-width: 0.7; stroke-linejoin: miter"/>
    </g>
    <g clip-path="url(#pdbff6b7269)">
     <!-- 2021 -->
     <g transform="translate(178.40784 22.331313) scale(0.11 -0.11)">
      <use xlink:href="#DejaVuSans-32"/>
      <use xlink:href="#DejaVuSans-30" x="63.623047"/>
      <use xlink:href="#DejaVuSans-32" x="127.246094"/>
      <use xlink:href="#DejaVuSans-31" x="190.869141"/>
     </g>
    </g>
   </g>
   <g id="text_50">
    <g id="patch_42">
     <path d="M 178.40784 27.368969 
L 206.40284 27.368969 
Q 209.15284 27.368969 209.15284 24.618969 
L 209.15284 13.973031 
Q 209.15284 11.223031 206.40284 11.223031 
L 178.40784 11.223031 
Q 175.65784 11.223031 175.65784 13.973031 
L 175.65784 24.618969 
Q 175.65784 27.368969 178.40784 27.368969 
z
" clip-path="url(#pdbff6b7269)" style="fill: #ffffff; stroke: #000000; stroke-width: 0.7; stroke-linejoin: miter"/>
    </g>
    <g clip-path="url(#pdbff6b7269)">
     <!-- 2021 -->
     <g transform="translate(178.40784 22.331313) scale(0.11 -0.11)">
      <use xlink:href="#DejaVuSans-32"/>
      <use xlink:href="#DejaVuSans-30" x="63.623047"/>
      <use xlink:href="#DejaVuSans-32" x="127.246094"/>
      <use xlink:href="#DejaVuSans-31" x="190.869141"/>
     </g>
    </g>
   </g>
   <g id="text_51">
    <g id="patch_43">
     <path d="M 178.40784 27.368969 
L 206.40284 27.368969 
Q 209.15284 27.368969 209.15284 24.618969 
L 209.15284 13.973031 
Q 209.15284 11.223031 206.40284 11.223031 
L 178.40784 11.223031 
Q 175.65784 11.223031 175.65784 13.973031 
L 175.65784 24.618969 
Q 175.65784 27.368969 178.40784 27.368969 
z
" clip-path="url(#pdbff6b7269)" style="fill: #ffffff; stroke: #000000; stroke-width: 0.7; stroke-linejoin: miter"/>
    </g>
    <g clip-path="url(#pdbff6b7269)">
     <!-- 2021 -->
     <g transform="translate(178.40784 22.331313) scale(0.11 -0.11)">
      <use xlink:href="#DejaVuSans-32"/>
      <use xlink:href="#DejaVuSans-30" x="63.623047"/>
      <use xlink:href="#DejaVuSans-32" x="127.246094"/>
      <use xlink:href="#DejaVuSans-31" x="190.869141"/>
     </g>
    </g>
   </g>
   <g id="text_52">
    <g id="patch_44">
     <path d="M 178.40784 27.368969 
L 206.40284 27.368969 
Q 209.15284 27.368969 209.15284 24.618969 
L 209.15284 13.973031 
Q 209.15284 11.223031 206.40284 11.223031 
L 178.40784 11.223031 
Q 175.65784 11.223031 175.65784 13.973031 
L 175.65784 24.618969 
Q 175.65784 27.368969 178.40784 27.368969 
z
" clip-path="url(#pdbff6b7269)" style="fill: #ffffff; stroke: #000000; stroke-width: 0.7; stroke-linejoin: miter"/>
    </g>
    <g clip-path="url(#pdbff6b7269)">
     <!-- 2021 -->
     <g transform="translate(178.40784 22.331313) scale(0.11 -0.11)">
      <use xlink:href="#DejaVuSans-32"/>
      <use xlink:href="#DejaVuSans-30" x="63.623047"/>
      <use xlink:href="#DejaVuSans-32" x="127.246094"/>
      <use xlink:href="#DejaVuSans-31" x="190.869141"/>
     </g>
    </g>
   </g>
  </g>
 </g>
 <defs>
  <clipPath id="pdbff6b7269">
   <rect x="32.794938" y="7.2" width="357.12" height="266.112"/>
  </clipPath>
 </defs>
</svg>
