<?xml version="1.0" encoding="utf-8" standalone="no"?>
<!DOCTYPE svg PUBLIC "-//W3C//DTD SVG 1.1//EN"
  "http://www.w3.org/Graphics/SVG/1.1/DTD/svg11.dtd">
<svg xmlns:xlink="http://www.w3.org/1999/xlink" width="447.252515pt" height="349.155pt" viewBox="0 0 447.252515 349.155" xmlns="http://www.w3.org/2000/svg" version="1.1">
 <metadata>
  <rdf:RDF xmlns:dc="http://purl.org/dc/elements/1.1/" xmlns:cc="http://creativecommons.org/ns#" xmlns:rdf="http://www.w3.org/1999/02/22-rdf-syntax-ns#">
   <cc:Work>
    <dc:type rdf:resource="http://purl.org/dc/dcmitype/StillImage"/>
    <dc:date>2023-07-28T12:37:28.770133</dc:date>
    <dc:format>image/svg+xml</dc:format>
    <dc:creator>
     <cc:Agent>
      <dc:title>Matplotlib v3.6.0, https://matplotlib.org/</dc:title>
     </cc:Agent>
    </dc:creator>
   </cc:Work>
  </rdf:RDF>
 </metadata>
 <defs>
  <style type="text/css">*{stroke-linejoin: round; stroke-linecap: butt}</style>
 </defs>
 <g id="figure_1">
  <g id="patch_1">
   <path d="M 0 349.155 
L 447.252515 349.155 
L 447.252515 0 
L 0 0 
z
" style="fill: #ffffff"/>
  </g>
  <g id="axes_1">
   <g id="patch_2">
    <path d="M 51.615 303.155 
L 332.211515 303.155 
L 332.211515 12.66375 
L 51.615 12.66375 
z
" style="fill: #ffffff"/>
   </g>
   <g id="PolyCollection_1">
    <defs>
     <path id="mcc27d94fee" d="M 90.825339 -46.034507 
L 90.825339 -46 
L 91.705934 -46 
L 92.58653 -46 
L 93.467126 -46 
L 94.347722 -46 
L 95.228318 -46 
L 96.108914 -46 
L 96.989509 -46 
L 97.870105 -46 
L 98.750701 -46 
L 99.631297 -46 
L 100.511893 -46 
L 101.392489 -46 
L 102.273084 -46 
L 103.15368 -46 
L 104.034276 -46 
L 104.914872 -46 
L 105.795468 -46 
L 106.676064 -46 
L 107.55666 -46 
L 108.437255 -46 
L 109.317851 -46 
L 110.198447 -46 
L 111.079043 -46 
L 111.959639 -46 
L 112.840235 -46 
L 113.72083 -46 
L 114.601426 -46 
L 115.482022 -46 
L 116.362618 -46 
L 117.243214 -46 
L 118.12381 -46 
L 119.004405 -46 
L 119.885001 -46 
L 120.765597 -46 
L 121.646193 -46 
L 122.526789 -46 
L 123.407385 -46 
L 124.28798 -46 
L 125.168576 -46 
L 126.049172 -46 
L 126.929768 -46 
L 127.810364 -46 
L 128.69096 -46 
L 129.571556 -46 
L 130.452151 -46 
L 131.332747 -46 
L 132.213343 -46 
L 133.093939 -46 
L 133.974535 -46 
L 134.855131 -46 
L 135.735726 -46 
L 136.616322 -46 
L 137.496918 -46 
L 138.377514 -46 
L 139.25811 -46 
L 140.138706 -46 
L 141.019301 -46 
L 141.899897 -46 
L 142.780493 -46 
L 143.661089 -46 
L 144.541685 -46 
L 145.422281 -46 
L 146.302876 -46 
L 147.183472 -46 
L 148.064068 -46 
L 148.944664 -46 
L 149.82526 -46 
L 150.705856 -46 
L 151.586452 -46 
L 152.467047 -46 
L 153.347643 -46 
L 154.228239 -46 
L 155.108835 -46 
L 155.989431 -46 
L 156.870027 -46 
L 157.750622 -46 
L 158.631218 -46 
L 159.511814 -46 
L 160.39241 -46 
L 161.273006 -46 
L 162.153602 -46 
L 163.034197 -46 
L 163.914793 -46 
L 164.795389 -46 
L 165.675985 -46 
L 166.556581 -46 
L 167.437177 -46 
L 168.317772 -46 
L 169.198368 -46 
L 170.078964 -46 
L 170.95956 -46 
L 171.840156 -46 
L 172.720752 -46 
L 173.601348 -46 
L 174.481943 -46 
L 175.362539 -46 
L 176.243135 -46 
L 177.123731 -46 
L 178.004327 -46 
L 178.884923 -46 
L 179.765518 -46 
L 180.646114 -46 
L 181.52671 -46 
L 182.407306 -46 
L 183.287902 -46 
L 184.168498 -46 
L 185.049093 -46 
L 185.929689 -46 
L 186.810285 -46 
L 187.690881 -46 
L 188.571477 -46 
L 189.452073 -46 
L 190.332668 -46 
L 191.213264 -46 
L 192.09386 -46 
L 192.974456 -46 
L 193.855052 -46 
L 194.735648 -46 
L 195.616244 -46 
L 196.496839 -46 
L 197.377435 -46 
L 198.258031 -46 
L 199.138627 -46 
L 200.019223 -46 
L 200.899819 -46 
L 201.780414 -46 
L 202.66101 -46 
L 203.541606 -46 
L 204.422202 -46 
L 205.302798 -46 
L 206.183394 -46 
L 207.063989 -46 
L 207.944585 -46 
L 208.825181 -46 
L 209.705777 -46 
L 210.586373 -46 
L 211.466969 -46 
L 212.347564 -46 
L 213.22816 -46 
L 214.108756 -46 
L 214.989352 -46 
L 215.869948 -46 
L 216.750544 -46 
L 217.63114 -46 
L 218.511735 -46 
L 219.392331 -46 
L 220.272927 -46 
L 221.153523 -46 
L 222.034119 -46 
L 222.914715 -46 
L 223.79531 -46 
L 224.675906 -46 
L 225.556502 -46 
L 226.437098 -46 
L 227.317694 -46 
L 228.19829 -46 
L 229.078885 -46 
L 229.959481 -46 
L 230.840077 -46 
L 231.720673 -46 
L 232.601269 -46 
L 233.481865 -46 
L 234.36246 -46 
L 235.243056 -46 
L 236.123652 -46 
L 237.004248 -46 
L 237.884844 -46 
L 238.76544 -46 
L 239.646036 -46 
L 240.526631 -46 
L 241.407227 -46 
L 242.287823 -46 
L 243.168419 -46 
L 244.049015 -46 
L 244.929611 -46 
L 245.810206 -46 
L 246.690802 -46 
L 247.571398 -46 
L 248.451994 -46 
L 249.33259 -46 
L 250.213186 -46 
L 251.093781 -46 
L 251.974377 -46 
L 252.854973 -46 
L 253.735569 -46 
L 254.616165 -46 
L 255.496761 -46 
L 256.377356 -46 
L 257.257952 -46 
L 258.138548 -46 
L 259.019144 -46 
L 259.89974 -46 
L 260.780336 -46 
L 261.660932 -46 
L 262.541527 -46 
L 263.422123 -46 
L 264.302719 -46 
L 265.183315 -46 
L 266.063911 -46 
L 266.063911 -46.010923 
L 266.063911 -46.010923 
L 265.183315 -46.013797 
L 264.302719 -46.017323 
L 263.422123 -46.021622 
L 262.541527 -46.026827 
L 261.660932 -46.033089 
L 260.780336 -46.040572 
L 259.89974 -46.049454 
L 259.019144 -46.059928 
L 258.138548 -46.072197 
L 257.257952 -46.086472 
L 256.377356 -46.102969 
L 255.496761 -46.121907 
L 254.616165 -46.143501 
L 253.735569 -46.167956 
L 252.854973 -46.195463 
L 251.974377 -46.226192 
L 251.093781 -46.260285 
L 250.213186 -46.297851 
L 249.33259 -46.338954 
L 248.451994 -46.383615 
L 247.571398 -46.4318 
L 246.690802 -46.483417 
L 245.810206 -46.538314 
L 244.929611 -46.596276 
L 244.049015 -46.657021 
L 243.168419 -46.720205 
L 242.287823 -46.785423 
L 241.407227 -46.852211 
L 240.526631 -46.920055 
L 239.646036 -46.988396 
L 238.76544 -47.056636 
L 237.884844 -47.124154 
L 237.004248 -47.190309 
L 236.123652 -47.254456 
L 235.243056 -47.315955 
L 234.36246 -47.374183 
L 233.481865 -47.428543 
L 232.601269 -47.478478 
L 231.720673 -47.52348 
L 230.840077 -47.563095 
L 229.959481 -47.596938 
L 229.078885 -47.624697 
L 228.19829 -47.646138 
L 227.317694 -47.661115 
L 226.437098 -47.669569 
L 225.556502 -47.671537 
L 224.675906 -47.667148 
L 223.79531 -47.656628 
L 222.914715 -47.6403 
L 222.034119 -47.61858 
L 221.153523 -47.591978 
L 220.272927 -47.561087 
L 219.392331 -47.526585 
L 218.511735 -47.489223 
L 217.63114 -47.44982 
L 216.750544 -47.409249 
L 215.869948 -47.368428 
L 214.989352 -47.32831 
L 214.108756 -47.289869 
L 213.22816 -47.254085 
L 212.347564 -47.221937 
L 211.466969 -47.194383 
L 210.586373 -47.172357 
L 209.705777 -47.156755 
L 208.825181 -47.148429 
L 207.944585 -47.148179 
L 207.063989 -47.156753 
L 206.183394 -47.174846 
L 205.302798 -47.203103 
L 204.422202 -47.242122 
L 203.541606 -47.292463 
L 202.66101 -47.354661 
L 201.780414 -47.42923 
L 200.899819 -47.516684 
L 200.019223 -47.617545 
L 199.138627 -47.732358 
L 198.258031 -47.861705 
L 197.377435 -48.006209 
L 196.496839 -48.166553 
L 195.616244 -48.343475 
L 194.735648 -48.537778 
L 193.855052 -48.750322 
L 192.974456 -48.98202 
L 192.09386 -49.233828 
L 191.213264 -49.506723 
L 190.332668 -49.801686 
L 189.452073 -50.119674 
L 188.571477 -50.461585 
L 187.690881 -50.828223 
L 186.810285 -51.220258 
L 185.929689 -51.638182 
L 185.049093 -52.082257 
L 184.168498 -52.552475 
L 183.287902 -53.048501 
L 182.407306 -53.569633 
L 181.52671 -54.114757 
L 180.646114 -54.682309 
L 179.765518 -55.270244 
L 178.884923 -55.876017 
L 178.004327 -56.496577 
L 177.123731 -57.128366 
L 176.243135 -57.767346 
L 175.362539 -58.409034 
L 174.481943 -59.048553 
L 173.601348 -59.680709 
L 172.720752 -60.300072 
L 171.840156 -60.901082 
L 170.95956 -61.478165 
L 170.078964 -62.02585 
L 169.198368 -62.538899 
L 168.317772 -63.012441 
L 167.437177 -63.44209 
L 166.556581 -63.824065 
L 165.675985 -64.155291 
L 164.795389 -64.433484 
L 163.914793 -64.657217 
L 163.034197 -64.825954 
L 162.153602 -64.940067 
L 161.273006 -65.00082 
L 160.39241 -65.010327 
L 159.511814 -64.971484 
L 158.631218 -64.887885 
L 157.750622 -64.763705 
L 156.870027 -64.60358 
L 155.989431 -64.412474 
L 155.108835 -64.195533 
L 154.228239 -63.957945 
L 153.347643 -63.704804 
L 152.467047 -63.440981 
L 151.586452 -63.171005 
L 150.705856 -62.898963 
L 149.82526 -62.628417 
L 148.944664 -62.362341 
L 148.064068 -62.103071 
L 147.183472 -61.852291 
L 146.302876 -61.61102 
L 145.422281 -61.379632 
L 144.541685 -61.157887 
L 143.661089 -60.944972 
L 142.780493 -60.739566 
L 141.899897 -60.539907 
L 141.019301 -60.343869 
L 140.138706 -60.149046 
L 139.25811 -59.952839 
L 138.377514 -59.752542 
L 137.496918 -59.545435 
L 136.616322 -59.32886 
L 135.735726 -59.100311 
L 134.855131 -58.857501 
L 133.974535 -58.598431 
L 133.093939 -58.321449 
L 132.213343 -58.025294 
L 131.332747 -57.709136 
L 130.452151 -57.372598 
L 129.571556 -57.015772 
L 128.69096 -56.639213 
L 127.810364 -56.243934 
L 126.929768 -55.831379 
L 126.049172 -55.403391 
L 125.168576 -54.962163 
L 124.28798 -54.510194 
L 123.407385 -54.050222 
L 122.526789 -53.585165 
L 121.646193 -53.118055 
L 120.765597 -52.651965 
L 119.885001 -52.189948 
L 119.004405 -51.734971 
L 118.12381 -51.289853 
L 117.243214 -50.857218 
L 116.362618 -50.439444 
L 115.482022 -50.038629 
L 114.601426 -49.656561 
L 113.72083 -49.294702 
L 112.840235 -48.954174 
L 111.959639 -48.635764 
L 111.079043 -48.339929 
L 110.198447 -48.066812 
L 109.317851 -47.816264 
L 108.437255 -47.587872 
L 107.55666 -47.38099 
L 106.676064 -47.194771 
L 105.795468 -47.028205 
L 104.914872 -46.880154 
L 104.034276 -46.749384 
L 103.15368 -46.634602 
L 102.273084 -46.534485 
L 101.392489 -46.447705 
L 100.511893 -46.372955 
L 99.631297 -46.308971 
L 98.750701 -46.254544 
L 97.870105 -46.208536 
L 96.989509 -46.169886 
L 96.108914 -46.137622 
L 95.228318 -46.110856 
L 94.347722 -46.088789 
L 93.467126 -46.070711 
L 92.58653 -46.055992 
L 91.705934 -46.044083 
L 90.825339 -46.034507 
z
" style="stroke: #fccde5; stroke-width: 0.8"/>
    </defs>
    <g clip-path="url(#pce6887dc14)">
     <use xlink:href="#mcc27d94fee" x="0" y="349.155" style="fill: #fccde5; fill-opacity: 0.25; stroke: #fccde5; stroke-width: 0.8"/>
    </g>
   </g>
   <g id="PolyCollection_2">
    <defs>
     <path id="mb09c9b3116" d="M 89.357793 -46.047607 
L 89.357793 -46 
L 90.193917 -46 
L 91.03004 -46 
L 91.866164 -46 
L 92.702288 -46 
L 93.538411 -46 
L 94.374535 -46 
L 95.210659 -46 
L 96.046782 -46 
L 96.882906 -46 
L 97.71903 -46 
L 98.555153 -46 
L 99.391277 -46 
L 100.227401 -46 
L 101.063524 -46 
L 101.899648 -46 
L 102.735772 -46 
L 103.571895 -46 
L 104.408019 -46 
L 105.244143 -46 
L 106.080266 -46 
L 106.91639 -46 
L 107.752514 -46 
L 108.588637 -46 
L 109.424761 -46 
L 110.260885 -46 
L 111.097008 -46 
L 111.933132 -46 
L 112.769256 -46 
L 113.605379 -46 
L 114.441503 -46 
L 115.277627 -46 
L 116.11375 -46 
L 116.949874 -46 
L 117.785998 -46 
L 118.622121 -46 
L 119.458245 -46 
L 120.294369 -46 
L 121.130492 -46 
L 121.966616 -46 
L 122.80274 -46 
L 123.638863 -46 
L 124.474987 -46 
L 125.311111 -46 
L 126.147234 -46 
L 126.983358 -46 
L 127.819482 -46 
L 128.655605 -46 
L 129.491729 -46 
L 130.327853 -46 
L 131.163976 -46 
L 132.0001 -46 
L 132.836224 -46 
L 133.672347 -46 
L 134.508471 -46 
L 135.344595 -46 
L 136.180718 -46 
L 137.016842 -46 
L 137.852966 -46 
L 138.689089 -46 
L 139.525213 -46 
L 140.361337 -46 
L 141.19746 -46 
L 142.033584 -46 
L 142.869708 -46 
L 143.705831 -46 
L 144.541955 -46 
L 145.378079 -46 
L 146.214202 -46 
L 147.050326 -46 
L 147.88645 -46 
L 148.722573 -46 
L 149.558697 -46 
L 150.394821 -46 
L 151.230944 -46 
L 152.067068 -46 
L 152.903192 -46 
L 153.739315 -46 
L 154.575439 -46 
L 155.411563 -46 
L 156.247686 -46 
L 157.08381 -46 
L 157.919934 -46 
L 158.756057 -46 
L 159.592181 -46 
L 160.428305 -46 
L 161.264428 -46 
L 162.100552 -46 
L 162.936676 -46 
L 163.772799 -46 
L 164.608923 -46 
L 165.445047 -46 
L 166.28117 -46 
L 167.117294 -46 
L 167.953418 -46 
L 168.789541 -46 
L 169.625665 -46 
L 170.461789 -46 
L 171.297912 -46 
L 172.134036 -46 
L 172.97016 -46 
L 173.806283 -46 
L 174.642407 -46 
L 175.478531 -46 
L 176.314654 -46 
L 177.150778 -46 
L 177.986902 -46 
L 178.823025 -46 
L 179.659149 -46 
L 180.495273 -46 
L 181.331396 -46 
L 182.16752 -46 
L 183.003644 -46 
L 183.839767 -46 
L 184.675891 -46 
L 185.512015 -46 
L 186.348138 -46 
L 187.184262 -46 
L 188.020386 -46 
L 188.856509 -46 
L 189.692633 -46 
L 190.528757 -46 
L 191.36488 -46 
L 192.201004 -46 
L 193.037128 -46 
L 193.873251 -46 
L 194.709375 -46 
L 195.545499 -46 
L 196.381622 -46 
L 197.217746 -46 
L 198.05387 -46 
L 198.889993 -46 
L 199.726117 -46 
L 200.562241 -46 
L 201.398364 -46 
L 202.234488 -46 
L 203.070612 -46 
L 203.906735 -46 
L 204.742859 -46 
L 205.578983 -46 
L 206.415106 -46 
L 207.25123 -46 
L 208.087354 -46 
L 208.923477 -46 
L 209.759601 -46 
L 210.595725 -46 
L 211.431848 -46 
L 212.267972 -46 
L 213.104096 -46 
L 213.940219 -46 
L 214.776343 -46 
L 215.612467 -46 
L 216.44859 -46 
L 217.284714 -46 
L 218.120838 -46 
L 218.956961 -46 
L 219.793085 -46 
L 220.629209 -46 
L 221.465332 -46 
L 222.301456 -46 
L 223.13758 -46 
L 223.973703 -46 
L 224.809827 -46 
L 225.645951 -46 
L 226.482074 -46 
L 227.318198 -46 
L 228.154322 -46 
L 228.990445 -46 
L 229.826569 -46 
L 230.662693 -46 
L 231.498816 -46 
L 232.33494 -46 
L 233.171064 -46 
L 234.007187 -46 
L 234.843311 -46 
L 235.679435 -46 
L 236.515558 -46 
L 237.351682 -46 
L 238.187806 -46 
L 239.023929 -46 
L 239.860053 -46 
L 240.696177 -46 
L 241.5323 -46 
L 242.368424 -46 
L 243.204548 -46 
L 244.040671 -46 
L 244.876795 -46 
L 245.712919 -46 
L 246.549042 -46 
L 247.385166 -46 
L 248.22129 -46 
L 249.057413 -46 
L 249.893537 -46 
L 250.729661 -46 
L 251.565784 -46 
L 252.401908 -46 
L 253.238032 -46 
L 254.074155 -46 
L 254.910279 -46 
L 255.746403 -46 
L 255.746403 -46.018496 
L 255.746403 -46.018496 
L 254.910279 -46.02372 
L 254.074155 -46.030232 
L 253.238032 -46.038292 
L 252.401908 -46.048202 
L 251.565784 -46.0603 
L 250.729661 -46.074969 
L 249.893537 -46.092629 
L 249.057413 -46.113741 
L 248.22129 -46.138801 
L 247.385166 -46.168335 
L 246.549042 -46.202892 
L 245.712919 -46.243031 
L 244.876795 -46.289312 
L 244.040671 -46.342278 
L 243.204548 -46.402441 
L 242.368424 -46.470256 
L 241.5323 -46.546107 
L 240.696177 -46.630278 
L 239.860053 -46.722935 
L 239.023929 -46.8241 
L 238.187806 -46.933634 
L 237.351682 -47.051212 
L 236.515558 -47.176316 
L 235.679435 -47.308221 
L 234.843311 -47.445988 
L 234.007187 -47.588475 
L 233.171064 -47.734338 
L 232.33494 -47.882055 
L 231.498816 -48.029954 
L 230.662693 -48.17624 
L 229.826569 -48.319045 
L 228.990445 -48.456474 
L 228.154322 -48.586657 
L 227.318198 -48.707811 
L 226.482074 -48.818296 
L 225.645951 -48.916677 
L 224.809827 -49.00178 
L 223.973703 -49.072747 
L 223.13758 -49.129076 
L 222.301456 -49.170662 
L 221.465332 -49.197822 
L 220.629209 -49.211307 
L 219.793085 -49.212304 
L 218.956961 -49.20242 
L 218.120838 -49.183658 
L 217.284714 -49.158373 
L 216.44859 -49.129219 
L 215.612467 -49.099089 
L 214.776343 -49.071036 
L 213.940219 -49.048193 
L 213.104096 -49.033693 
L 212.267972 -49.030577 
L 211.431848 -49.04171 
L 210.595725 -49.0697 
L 209.759601 -49.116821 
L 208.923477 -49.18495 
L 208.087354 -49.275512 
L 207.25123 -49.389438 
L 206.415106 -49.527149 
L 205.578983 -49.688542 
L 204.742859 -49.873008 
L 203.906735 -50.07946 
L 203.070612 -50.306386 
L 202.234488 -50.551909 
L 201.398364 -50.813875 
L 200.562241 -51.089946 
L 199.726117 -51.377706 
L 198.889993 -51.674769 
L 198.05387 -51.9789 
L 197.217746 -52.288123 
L 196.381622 -52.600832 
L 195.545499 -52.915885 
L 194.709375 -53.232685 
L 193.873251 -53.551245 
L 193.037128 -53.87223 
L 192.201004 -54.196969 
L 191.36488 -54.527447 
L 190.528757 -54.866266 
L 189.692633 -55.216581 
L 188.856509 -55.582003 
L 188.020386 -55.966487 
L 187.184262 -56.374195 
L 186.348138 -56.809336 
L 185.512015 -57.276003 
L 184.675891 -57.777997 
L 183.839767 -58.318653 
L 183.003644 -58.900661 
L 182.16752 -59.525914 
L 181.331396 -60.195355 
L 180.495273 -60.908857 
L 179.659149 -61.665121 
L 178.823025 -62.461617 
L 177.986902 -63.294545 
L 177.150778 -64.158848 
L 176.314654 -65.048254 
L 175.478531 -65.95536 
L 174.642407 -66.871764 
L 173.806283 -67.788223 
L 172.97016 -68.694852 
L 172.134036 -69.58135 
L 171.297912 -70.437254 
L 170.461789 -71.252206 
L 169.625665 -72.01623 
L 168.789541 -72.72001 
L 167.953418 -73.355157 
L 167.117294 -73.91446 
L 166.28117 -74.392105 
L 165.445047 -74.783863 
L 164.608923 -75.087231 
L 163.772799 -75.301521 
L 162.936676 -75.427899 
L 162.100552 -75.469367 
L 161.264428 -75.430686 
L 160.428305 -75.318246 
L 159.592181 -75.139889 
L 158.756057 -74.904686 
L 157.919934 -74.622679 
L 157.08381 -74.304597 
L 156.247686 -73.961561 
L 155.411563 -73.604774 
L 154.575439 -73.24523 
L 153.739315 -72.893423 
L 152.903192 -72.559095 
L 152.067068 -72.251 
L 151.230944 -71.976719 
L 150.394821 -71.742503 
L 149.558697 -71.553163 
L 148.722573 -71.412007 
L 147.88645 -71.320807 
L 147.050326 -71.279815 
L 146.214202 -71.287805 
L 145.378079 -71.342152 
L 144.541955 -71.438928 
L 143.705831 -71.573031 
L 142.869708 -71.738312 
L 142.033584 -71.927737 
L 141.19746 -72.133535 
L 140.361337 -72.347368 
L 139.525213 -72.560494 
L 138.689089 -72.763938 
L 137.852966 -72.948657 
L 137.016842 -73.105706 
L 136.180718 -73.226404 
L 135.344595 -73.302484 
L 134.508471 -73.326252 
L 133.672347 -73.290727 
L 132.836224 -73.189775 
L 132.0001 -73.018229 
L 131.163976 -72.771997 
L 130.327853 -72.448148 
L 129.491729 -72.044978 
L 128.655605 -71.562056 
L 127.819482 -71.000241 
L 126.983358 -70.361678 
L 126.147234 -69.649756 
L 125.311111 -68.869048 
L 124.474987 -68.025222 
L 123.638863 -67.124923 
L 122.80274 -66.175635 
L 121.966616 -65.185527 
L 121.130492 -64.163278 
L 120.294369 -63.117898 
L 119.458245 -62.058543 
L 118.622121 -60.994328 
L 117.785998 -59.934148 
L 116.949874 -58.886516 
L 116.11375 -57.859405 
L 115.277627 -56.860122 
L 114.441503 -55.895196 
L 113.605379 -54.970296 
L 112.769256 -54.090174 
L 111.933132 -53.258632 
L 111.097008 -52.478521 
L 110.260885 -51.751756 
L 109.424761 -51.079359 
L 108.588637 -50.461516 
L 107.752514 -49.897655 
L 106.91639 -49.386528 
L 106.080266 -48.926309 
L 105.244143 -48.514692 
L 104.408019 -48.148986 
L 103.571895 -47.826219 
L 102.735772 -47.543226 
L 101.899648 -47.296734 
L 101.063524 -47.083441 
L 100.227401 -46.900079 
L 99.391277 -46.743476 
L 98.555153 -46.610596 
L 97.71903 -46.498576 
L 96.882906 -46.404753 
L 96.046782 -46.326679 
L 95.210659 -46.262131 
L 94.374535 -46.209108 
L 93.538411 -46.165833 
L 92.702288 -46.130741 
L 91.866164 -46.102469 
L 91.03004 -46.079835 
L 90.193917 -46.061833 
L 89.357793 -46.047607 
z
" style="stroke: #fdb462; stroke-width: 0.8"/>
    </defs>
    <g clip-path="url(#pce6887dc14)">
     <use xlink:href="#mb09c9b3116" x="0" y="349.155" style="fill: #fdb462; fill-opacity: 0.25; stroke: #fdb462; stroke-width: 0.8"/>
    </g>
   </g>
   <g id="PolyCollection_3">
    <defs>
     <path id="md980b1b897" d="M 91.999256 -46.204316 
L 91.999256 -46 
L 92.856773 -46 
L 93.714291 -46 
L 94.571808 -46 
L 95.429325 -46 
L 96.286843 -46 
L 97.14436 -46 
L 98.001878 -46 
L 98.859395 -46 
L 99.716913 -46 
L 100.57443 -46 
L 101.431947 -46 
L 102.289465 -46 
L 103.146982 -46 
L 104.0045 -46 
L 104.862017 -46 
L 105.719534 -46 
L 106.577052 -46 
L 107.434569 -46 
L 108.292087 -46 
L 109.149604 -46 
L 110.007122 -46 
L 110.864639 -46 
L 111.722156 -46 
L 112.579674 -46 
L 113.437191 -46 
L 114.294709 -46 
L 115.152226 -46 
L 116.009743 -46 
L 116.867261 -46 
L 117.724778 -46 
L 118.582296 -46 
L 119.439813 -46 
L 120.297331 -46 
L 121.154848 -46 
L 122.012365 -46 
L 122.869883 -46 
L 123.7274 -46 
L 124.584918 -46 
L 125.442435 -46 
L 126.299952 -46 
L 127.15747 -46 
L 128.014987 -46 
L 128.872505 -46 
L 129.730022 -46 
L 130.587539 -46 
L 131.445057 -46 
L 132.302574 -46 
L 133.160092 -46 
L 134.017609 -46 
L 134.875127 -46 
L 135.732644 -46 
L 136.590161 -46 
L 137.447679 -46 
L 138.305196 -46 
L 139.162714 -46 
L 140.020231 -46 
L 140.877748 -46 
L 141.735266 -46 
L 142.592783 -46 
L 143.450301 -46 
L 144.307818 -46 
L 145.165336 -46 
L 146.022853 -46 
L 146.88037 -46 
L 147.737888 -46 
L 148.595405 -46 
L 149.452923 -46 
L 150.31044 -46 
L 151.167957 -46 
L 152.025475 -46 
L 152.882992 -46 
L 153.74051 -46 
L 154.598027 -46 
L 155.455544 -46 
L 156.313062 -46 
L 157.170579 -46 
L 158.028097 -46 
L 158.885614 -46 
L 159.743132 -46 
L 160.600649 -46 
L 161.458166 -46 
L 162.315684 -46 
L 163.173201 -46 
L 164.030719 -46 
L 164.888236 -46 
L 165.745753 -46 
L 166.603271 -46 
L 167.460788 -46 
L 168.318306 -46 
L 169.175823 -46 
L 170.033341 -46 
L 170.890858 -46 
L 171.748375 -46 
L 172.605893 -46 
L 173.46341 -46 
L 174.320928 -46 
L 175.178445 -46 
L 176.035962 -46 
L 176.89348 -46 
L 177.750997 -46 
L 178.608515 -46 
L 179.466032 -46 
L 180.32355 -46 
L 181.181067 -46 
L 182.038584 -46 
L 182.896102 -46 
L 183.753619 -46 
L 184.611137 -46 
L 185.468654 -46 
L 186.326171 -46 
L 187.183689 -46 
L 188.041206 -46 
L 188.898724 -46 
L 189.756241 -46 
L 190.613758 -46 
L 191.471276 -46 
L 192.328793 -46 
L 193.186311 -46 
L 194.043828 -46 
L 194.901346 -46 
L 195.758863 -46 
L 196.61638 -46 
L 197.473898 -46 
L 198.331415 -46 
L 199.188933 -46 
L 200.04645 -46 
L 200.903967 -46 
L 201.761485 -46 
L 202.619002 -46 
L 203.47652 -46 
L 204.334037 -46 
L 205.191555 -46 
L 206.049072 -46 
L 206.906589 -46 
L 207.764107 -46 
L 208.621624 -46 
L 209.479142 -46 
L 210.336659 -46 
L 211.194176 -46 
L 212.051694 -46 
L 212.909211 -46 
L 213.766729 -46 
L 214.624246 -46 
L 215.481764 -46 
L 216.339281 -46 
L 217.196798 -46 
L 218.054316 -46 
L 218.911833 -46 
L 219.769351 -46 
L 220.626868 -46 
L 221.484385 -46 
L 222.341903 -46 
L 223.19942 -46 
L 224.056938 -46 
L 224.914455 -46 
L 225.771972 -46 
L 226.62949 -46 
L 227.487007 -46 
L 228.344525 -46 
L 229.202042 -46 
L 230.05956 -46 
L 230.917077 -46 
L 231.774594 -46 
L 232.632112 -46 
L 233.489629 -46 
L 234.347147 -46 
L 235.204664 -46 
L 236.062181 -46 
L 236.919699 -46 
L 237.777216 -46 
L 238.634734 -46 
L 239.492251 -46 
L 240.349769 -46 
L 241.207286 -46 
L 242.064803 -46 
L 242.922321 -46 
L 243.779838 -46 
L 244.637356 -46 
L 245.494873 -46 
L 246.35239 -46 
L 247.209908 -46 
L 248.067425 -46 
L 248.924943 -46 
L 249.78246 -46 
L 250.639977 -46 
L 251.497495 -46 
L 252.355012 -46 
L 253.21253 -46 
L 254.070047 -46 
L 254.927565 -46 
L 255.785082 -46 
L 256.642599 -46 
L 257.500117 -46 
L 258.357634 -46 
L 259.215152 -46 
L 260.072669 -46 
L 260.930186 -46 
L 261.787704 -46 
L 262.645221 -46 
L 262.645221 -46.019401 
L 262.645221 -46.019401 
L 261.787704 -46.025831 
L 260.930186 -46.034149 
L 260.072669 -46.044833 
L 259.215152 -46.058453 
L 258.357634 -46.075688 
L 257.500117 -46.097338 
L 256.642599 -46.124335 
L 255.785082 -46.157754 
L 254.927565 -46.198823 
L 254.070047 -46.248929 
L 253.21253 -46.309619 
L 252.355012 -46.382598 
L 251.497495 -46.469726 
L 250.639977 -46.572996 
L 249.78246 -46.694518 
L 248.924943 -46.836489 
L 248.067425 -47.001148 
L 247.209908 -47.190736 
L 246.35239 -47.407429 
L 245.494873 -47.653278 
L 244.637356 -47.930132 
L 243.779838 -48.239551 
L 242.922321 -48.582724 
L 242.064803 -48.960375 
L 241.207286 -49.372676 
L 240.349769 -49.819157 
L 239.492251 -50.298632 
L 238.634734 -50.80913 
L 237.777216 -51.347845 
L 236.919699 -51.911114 
L 236.062181 -52.494409 
L 235.204664 -53.092366 
L 234.347147 -53.698846 
L 233.489629 -54.307028 
L 232.632112 -54.909535 
L 231.774594 -55.498602 
L 230.917077 -56.06626 
L 230.05956 -56.604562 
L 229.202042 -57.10582 
L 228.344525 -57.562857 
L 227.487007 -57.969263 
L 226.62949 -58.319644 
L 225.771972 -58.60986 
L 224.914455 -58.83723 
L 224.056938 -59.000704 
L 223.19942 -59.100995 
L 222.341903 -59.140653 
L 221.484385 -59.124088 
L 220.626868 -59.057527 
L 219.769351 -58.94892 
L 218.911833 -58.807778 
L 218.054316 -58.644959 
L 217.196798 -58.472405 
L 216.339281 -58.302826 
L 215.481764 -58.149364 
L 214.624246 -58.025219 
L 213.766729 -57.94326 
L 212.909211 -57.915634 
L 212.051694 -57.953382 
L 211.194176 -58.066065 
L 210.336659 -58.26142 
L 209.479142 -58.54506 
L 208.621624 -58.920216 
L 207.764107 -59.387545 
L 206.906589 -59.945007 
L 206.049072 -60.587824 
L 205.191555 -61.308523 
L 204.334037 -62.09708 
L 203.47652 -62.941156 
L 202.619002 -63.826434 
L 201.761485 -64.737047 
L 200.903967 -65.656091 
L 200.04645 -66.566215 
L 199.188933 -67.450259 
L 198.331415 -68.291932 
L 197.473898 -69.076483 
L 196.61638 -69.791372 
L 195.758863 -70.426867 
L 194.901346 -70.976576 
L 194.043828 -71.437868 
L 193.186311 -71.812155 
L 192.328793 -72.105037 
L 191.471276 -72.326267 
L 190.613758 -72.489569 
L 189.756241 -72.61227 
L 188.898724 -72.714795 
L 188.041206 -72.820012 
L 187.183689 -72.952477 
L 186.326171 -73.137585 
L 185.468654 -73.400678 
L 184.611137 -73.766137 
L 183.753619 -74.256493 
L 182.896102 -74.891593 
L 182.038584 -75.687857 
L 181.181067 -76.657637 
L 180.32355 -77.808726 
L 179.466032 -79.144011 
L 178.608515 -80.661296 
L 177.750997 -82.353293 
L 176.89348 -84.20779 
L 176.035962 -86.207978 
L 175.178445 -88.332936 
L 174.320928 -90.558249 
L 173.46341 -92.85675 
L 172.605893 -95.199346 
L 171.748375 -97.555901 
L 170.890858 -99.89616 
L 170.033341 -102.190653 
L 169.175823 -104.411565 
L 168.318306 -106.533532 
L 167.460788 -108.534326 
L 166.603271 -110.395411 
L 165.745753 -112.102339 
L 164.888236 -113.644983 
L 164.030719 -115.017593 
L 163.173201 -116.218682 
L 162.315684 -117.250754 
L 161.458166 -118.119901 
L 160.600649 -118.835288 
L 159.743132 -119.40857 
L 158.885614 -119.853274 
L 158.028097 -120.184179 
L 157.170579 -120.416745 
L 156.313062 -120.566598 
L 155.455544 -120.649115 
L 154.598027 -120.67911 
L 153.74051 -120.670631 
L 152.882992 -120.636856 
L 152.025475 -120.590084 
L 151.167957 -120.541786 
L 150.31044 -120.502688 
L 149.452923 -120.482876 
L 148.595405 -120.491862 
L 147.737888 -120.538611 
L 146.88037 -120.631492 
L 146.022853 -120.778142 
L 145.165336 -120.985245 
L 144.307818 -121.258224 
L 143.450301 -121.600862 
L 142.592783 -122.014873 
L 141.735266 -122.499454 
L 140.877748 -123.050849 
L 140.020231 -123.661966 
L 139.162714 -124.322073 
L 138.305196 -125.016612 
L 137.447679 -125.727162 
L 136.590161 -126.431563 
L 135.732644 -127.104216 
L 134.875127 -127.716571 
L 134.017609 -128.237785 
L 133.160092 -128.635536 
L 132.302574 -128.876973 
L 131.445057 -128.929759 
L 130.587539 -128.763177 
L 129.730022 -128.349239 
L 128.872505 -127.663762 
L 128.014987 -126.687356 
L 127.15747 -125.406275 
L 126.299952 -123.813096 
L 125.442435 -121.907183 
L 124.584918 -119.694918 
L 123.7274 -117.189678 
L 122.869883 -114.411559 
L 122.012365 -111.386857 
L 121.154848 -108.147319 
L 120.297331 -104.729218 
L 119.439813 -101.172259 
L 118.582296 -97.518403 
L 117.724778 -93.810632 
L 116.867261 -90.091716 
L 116.009743 -86.403049 
L 115.152226 -82.783572 
L 114.294709 -79.268851 
L 113.437191 -75.890317 
L 112.579674 -72.674705 
L 111.722156 -69.643694 
L 110.864639 -66.813745 
L 110.007122 -64.196133 
L 109.149604 -61.797148 
L 108.292087 -59.618445 
L 107.434569 -57.657511 
L 106.577052 -55.908212 
L 105.719534 -54.361399 
L 104.862017 -53.005531 
L 104.0045 -51.827295 
L 103.146982 -50.812195 
L 102.289465 -49.945091 
L 101.431947 -49.210677 
L 100.57443 -48.593886 
L 99.716913 -48.080222 
L 98.859395 -47.656011 
L 98.001878 -47.308586 
L 97.14436 -47.026404 
L 96.286843 -46.799103 
L 95.429325 -46.617517 
L 94.571808 -46.47364 
L 93.714291 -46.360575 
L 92.856773 -46.272447 
L 91.999256 -46.204316 
z
" style="stroke: #b3de69; stroke-width: 0.8"/>
    </defs>
    <g clip-path="url(#pce6887dc14)">
     <use xlink:href="#md980b1b897" x="0" y="349.155" style="fill: #b3de69; fill-opacity: 0.25; stroke: #b3de69; stroke-width: 0.8"/>
    </g>
   </g>
   <g id="PolyCollection_4">
    <defs>
     <path id="m18e2ae2ccf" d="M 91.6245 -46.120498 
L 91.6245 -46 
L 92.705749 -46 
L 93.786998 -46 
L 94.868247 -46 
L 95.949496 -46 
L 97.030745 -46 
L 98.111994 -46 
L 99.193242 -46 
L 100.274491 -46 
L 101.35574 -46 
L 102.436989 -46 
L 103.518238 -46 
L 104.599487 -46 
L 105.680736 -46 
L 106.761985 -46 
L 107.843234 -46 
L 108.924483 -46 
L 110.005732 -46 
L 111.08698 -46 
L 112.168229 -46 
L 113.249478 -46 
L 114.330727 -46 
L 115.411976 -46 
L 116.493225 -46 
L 117.574474 -46 
L 118.655723 -46 
L 119.736972 -46 
L 120.818221 -46 
L 121.89947 -46 
L 122.980718 -46 
L 124.061967 -46 
L 125.143216 -46 
L 126.224465 -46 
L 127.305714 -46 
L 128.386963 -46 
L 129.468212 -46 
L 130.549461 -46 
L 131.63071 -46 
L 132.711959 -46 
L 133.793208 -46 
L 134.874457 -46 
L 135.955705 -46 
L 137.036954 -46 
L 138.118203 -46 
L 139.199452 -46 
L 140.280701 -46 
L 141.36195 -46 
L 142.443199 -46 
L 143.524448 -46 
L 144.605697 -46 
L 145.686946 -46 
L 146.768195 -46 
L 147.849443 -46 
L 148.930692 -46 
L 150.011941 -46 
L 151.09319 -46 
L 152.174439 -46 
L 153.255688 -46 
L 154.336937 -46 
L 155.418186 -46 
L 156.499435 -46 
L 157.580684 -46 
L 158.661933 -46 
L 159.743181 -46 
L 160.82443 -46 
L 161.905679 -46 
L 162.986928 -46 
L 164.068177 -46 
L 165.149426 -46 
L 166.230675 -46 
L 167.311924 -46 
L 168.393173 -46 
L 169.474422 -46 
L 170.555671 -46 
L 171.636919 -46 
L 172.718168 -46 
L 173.799417 -46 
L 174.880666 -46 
L 175.961915 -46 
L 177.043164 -46 
L 178.124413 -46 
L 179.205662 -46 
L 180.286911 -46 
L 181.36816 -46 
L 182.449409 -46 
L 183.530657 -46 
L 184.611906 -46 
L 185.693155 -46 
L 186.774404 -46 
L 187.855653 -46 
L 188.936902 -46 
L 190.018151 -46 
L 191.0994 -46 
L 192.180649 -46 
L 193.261898 -46 
L 194.343147 -46 
L 195.424396 -46 
L 196.505644 -46 
L 197.586893 -46 
L 198.668142 -46 
L 199.749391 -46 
L 200.83064 -46 
L 201.911889 -46 
L 202.993138 -46 
L 204.074387 -46 
L 205.155636 -46 
L 206.236885 -46 
L 207.318134 -46 
L 208.399382 -46 
L 209.480631 -46 
L 210.56188 -46 
L 211.643129 -46 
L 212.724378 -46 
L 213.805627 -46 
L 214.886876 -46 
L 215.968125 -46 
L 217.049374 -46 
L 218.130623 -46 
L 219.211872 -46 
L 220.29312 -46 
L 221.374369 -46 
L 222.455618 -46 
L 223.536867 -46 
L 224.618116 -46 
L 225.699365 -46 
L 226.780614 -46 
L 227.861863 -46 
L 228.943112 -46 
L 230.024361 -46 
L 231.10561 -46 
L 232.186858 -46 
L 233.268107 -46 
L 234.349356 -46 
L 235.430605 -46 
L 236.511854 -46 
L 237.593103 -46 
L 238.674352 -46 
L 239.755601 -46 
L 240.83685 -46 
L 241.918099 -46 
L 242.999348 -46 
L 244.080597 -46 
L 245.161845 -46 
L 246.243094 -46 
L 247.324343 -46 
L 248.405592 -46 
L 249.486841 -46 
L 250.56809 -46 
L 251.649339 -46 
L 252.730588 -46 
L 253.811837 -46 
L 254.893086 -46 
L 255.974335 -46 
L 257.055583 -46 
L 258.136832 -46 
L 259.218081 -46 
L 260.29933 -46 
L 261.380579 -46 
L 262.461828 -46 
L 263.543077 -46 
L 264.624326 -46 
L 265.705575 -46 
L 266.786824 -46 
L 267.868073 -46 
L 268.949321 -46 
L 270.03057 -46 
L 271.111819 -46 
L 272.193068 -46 
L 273.274317 -46 
L 274.355566 -46 
L 275.436815 -46 
L 276.518064 -46 
L 277.599313 -46 
L 278.680562 -46 
L 279.761811 -46 
L 280.843059 -46 
L 281.924308 -46 
L 283.005557 -46 
L 284.086806 -46 
L 285.168055 -46 
L 286.249304 -46 
L 287.330553 -46 
L 288.411802 -46 
L 289.493051 -46 
L 290.5743 -46 
L 291.655549 -46 
L 292.736797 -46 
L 293.818046 -46 
L 294.899295 -46 
L 295.980544 -46 
L 297.061793 -46 
L 298.143042 -46 
L 299.224291 -46 
L 300.30554 -46 
L 301.386789 -46 
L 302.468038 -46 
L 303.549287 -46 
L 304.630536 -46 
L 305.711784 -46 
L 306.793033 -46 
L 306.793033 -46.01295 
L 306.793033 -46.01295 
L 305.711784 -46.018232 
L 304.630536 -46.025325 
L 303.549287 -46.034703 
L 302.468038 -46.046916 
L 301.386789 -46.062574 
L 300.30554 -46.082338 
L 299.224291 -46.10689 
L 298.143042 -46.136898 
L 297.061793 -46.172976 
L 295.980544 -46.215626 
L 294.899295 -46.265182 
L 293.818046 -46.321748 
L 292.736797 -46.385135 
L 291.655549 -46.454819 
L 290.5743 -46.529898 
L 289.493051 -46.609077 
L 288.411802 -46.690685 
L 287.330553 -46.772709 
L 286.249304 -46.852863 
L 285.168055 -46.928689 
L 284.086806 -46.997676 
L 283.005557 -47.057395 
L 281.924308 -47.105642 
L 280.843059 -47.140572 
L 279.761811 -47.160818 
L 278.680562 -47.165581 
L 277.599313 -47.154687 
L 276.518064 -47.1286 
L 275.436815 -47.088398 
L 274.355566 -47.035708 
L 273.274317 -46.972608 
L 272.193068 -46.901515 
L 271.111819 -46.825053 
L 270.03057 -46.745926 
L 268.949321 -46.666808 
L 267.868073 -46.590246 
L 266.786824 -46.518602 
L 265.705575 -46.454018 
L 264.624326 -46.398419 
L 263.543077 -46.35354 
L 262.461828 -46.320984 
L 261.380579 -46.302287 
L 260.29933 -46.299 
L 259.218081 -46.312762 
L 258.136832 -46.345373 
L 257.055583 -46.398845 
L 255.974335 -46.475441 
L 254.893086 -46.577688 
L 253.811837 -46.708371 
L 252.730588 -46.870508 
L 251.649339 -47.067303 
L 250.56809 -47.302095 
L 249.486841 -47.578284 
L 248.405592 -47.899257 
L 247.324343 -48.2683 
L 246.243094 -48.688505 
L 245.161845 -49.162648 
L 244.080597 -49.693057 
L 242.999348 -50.28144 
L 241.918099 -50.928686 
L 240.83685 -51.634618 
L 239.755601 -52.397718 
L 238.674352 -53.214831 
L 237.593103 -54.080862 
L 236.511854 -54.988512 
L 235.430605 -55.928068 
L 234.349356 -56.887319 
L 233.268107 -57.851612 
L 232.186858 -58.804102 
L 231.10561 -59.726215 
L 230.024361 -60.598322 
L 228.943112 -61.400625 
L 227.861863 -62.114195 
L 226.780614 -62.722117 
L 225.699365 -63.210646 
L 224.618116 -63.570299 
L 223.536867 -63.796776 
L 222.455618 -63.891629 
L 221.374369 -63.862613 
L 220.29312 -63.72368 
L 219.211872 -63.494588 
L 218.130623 -63.200164 
L 217.049374 -62.86925 
L 215.968125 -62.533419 
L 214.886876 -62.225533 
L 213.805627 -61.978244 
L 212.724378 -61.822525 
L 211.643129 -61.786323 
L 210.56188 -61.893382 
L 209.480631 -62.162307 
L 208.399382 -62.605903 
L 207.318134 -63.230794 
L 206.236885 -64.037357 
L 205.155636 -65.019952 
L 204.074387 -66.167455 
L 202.993138 -67.464066 
L 201.911889 -68.890374 
L 200.83064 -70.424634 
L 199.749391 -72.044192 
L 198.668142 -73.727006 
L 197.586893 -75.453139 
L 196.505644 -77.206143 
L 195.424396 -78.974226 
L 194.343147 -80.751083 
L 193.261898 -82.536318 
L 192.180649 -84.335398 
L 191.0994 -86.159116 
L 190.018151 -88.02258 
L 188.936902 -89.9438 
L 187.855653 -91.941972 
L 186.774404 -94.035579 
L 185.693155 -96.240465 
L 184.611906 -98.568009 
L 183.530657 -101.023542 
L 182.449409 -103.605116 
L 181.36816 -106.302687 
L 180.286911 -109.097782 
L 179.205662 -111.963655 
L 178.124413 -114.865932 
L 177.043164 -117.763722 
L 175.961915 -120.611157 
L 174.880666 -123.359299 
L 173.799417 -125.958363 
L 172.718168 -128.360147 
L 171.636919 -130.520595 
L 170.555671 -132.402323 
L 169.474422 -133.97699 
L 168.393173 -135.227314 
L 167.311924 -136.148577 
L 166.230675 -136.749448 
L 165.149426 -137.051994 
L 164.068177 -137.090814 
L 162.986928 -136.911295 
L 161.905679 -136.567084 
L 160.82443 -136.116944 
L 159.743181 -135.621263 
L 158.661933 -135.138488 
L 157.580684 -134.721849 
L 156.499435 -134.41664 
L 155.418186 -134.258315 
L 154.336937 -134.271565 
L 153.255688 -134.470397 
L 152.174439 -134.859135 
L 151.09319 -135.434168 
L 150.011941 -136.186124 
L 148.930692 -137.102171 
L 147.849443 -138.168064 
L 146.768195 -139.369658 
L 145.686946 -140.693637 
L 144.605697 -142.127356 
L 143.524448 -143.657802 
L 142.443199 -145.269808 
L 141.36195 -146.943775 
L 140.280701 -148.653235 
L 139.199452 -150.362627 
L 138.118203 -152.025658 
L 137.036954 -153.584576 
L 135.955705 -154.970588 
L 134.874457 -156.105551 
L 133.793208 -156.904916 
L 132.711959 -157.281772 
L 131.63071 -157.151727 
L 130.549461 -156.438241 
L 129.468212 -155.077971 
L 128.386963 -153.025672 
L 127.305714 -150.258216 
L 126.224465 -146.777353 
L 125.143216 -142.610955 
L 124.061967 -137.812604 
L 122.980718 -132.459539 
L 121.89947 -126.649099 
L 120.818221 -120.493963 
L 119.736972 -114.116539 
L 118.655723 -107.642941 
L 117.574474 -101.197018 
L 116.493225 -94.894829 
L 115.411976 -88.839943 
L 114.330727 -83.119823 
L 113.249478 -77.803443 
L 112.168229 -72.940187 
L 111.08698 -68.559954 
L 110.005732 -64.674334 
L 108.924483 -61.278618 
L 107.843234 -58.354405 
L 106.761985 -55.872535 
L 105.680736 -53.796109 
L 104.599487 -52.08339 
L 103.518238 -50.690405 
L 102.436989 -49.57316 
L 101.35574 -48.689393 
L 100.274491 -47.999861 
L 99.193242 -47.469177 
L 98.111994 -47.066262 
L 97.030745 -46.764463 
L 95.949496 -46.541428 
L 94.868247 -46.378796 
L 93.786998 -46.261782 
L 92.705749 -46.178704 
L 91.6245 -46.120498 
z
" style="stroke: #fb8072; stroke-width: 0.8"/>
    </defs>
    <g clip-path="url(#pce6887dc14)">
     <use xlink:href="#m18e2ae2ccf" x="0" y="349.155" style="fill: #fb8072; fill-opacity: 0.25; stroke: #fb8072; stroke-width: 0.8"/>
    </g>
   </g>
   <g id="PolyCollection_5">
    <defs>
     <path id="mc9b75cb4a9" d="M 96.820748 -46.297037 
L 96.820748 -46 
L 97.762352 -46 
L 98.703955 -46 
L 99.645558 -46 
L 100.587162 -46 
L 101.528765 -46 
L 102.470368 -46 
L 103.411971 -46 
L 104.353575 -46 
L 105.295178 -46 
L 106.236781 -46 
L 107.178385 -46 
L 108.119988 -46 
L 109.061591 -46 
L 110.003194 -46 
L 110.944798 -46 
L 111.886401 -46 
L 112.828004 -46 
L 113.769607 -46 
L 114.711211 -46 
L 115.652814 -46 
L 116.594417 -46 
L 117.536021 -46 
L 118.477624 -46 
L 119.419227 -46 
L 120.36083 -46 
L 121.302434 -46 
L 122.244037 -46 
L 123.18564 -46 
L 124.127244 -46 
L 125.068847 -46 
L 126.01045 -46 
L 126.952053 -46 
L 127.893657 -46 
L 128.83526 -46 
L 129.776863 -46 
L 130.718466 -46 
L 131.66007 -46 
L 132.601673 -46 
L 133.543276 -46 
L 134.48488 -46 
L 135.426483 -46 
L 136.368086 -46 
L 137.309689 -46 
L 138.251293 -46 
L 139.192896 -46 
L 140.134499 -46 
L 141.076103 -46 
L 142.017706 -46 
L 142.959309 -46 
L 143.900912 -46 
L 144.842516 -46 
L 145.784119 -46 
L 146.725722 -46 
L 147.667326 -46 
L 148.608929 -46 
L 149.550532 -46 
L 150.492135 -46 
L 151.433739 -46 
L 152.375342 -46 
L 153.316945 -46 
L 154.258548 -46 
L 155.200152 -46 
L 156.141755 -46 
L 157.083358 -46 
L 158.024962 -46 
L 158.966565 -46 
L 159.908168 -46 
L 160.849771 -46 
L 161.791375 -46 
L 162.732978 -46 
L 163.674581 -46 
L 164.616185 -46 
L 165.557788 -46 
L 166.499391 -46 
L 167.440994 -46 
L 168.382598 -46 
L 169.324201 -46 
L 170.265804 -46 
L 171.207408 -46 
L 172.149011 -46 
L 173.090614 -46 
L 174.032217 -46 
L 174.973821 -46 
L 175.915424 -46 
L 176.857027 -46 
L 177.79863 -46 
L 178.740234 -46 
L 179.681837 -46 
L 180.62344 -46 
L 181.565044 -46 
L 182.506647 -46 
L 183.44825 -46 
L 184.389853 -46 
L 185.331457 -46 
L 186.27306 -46 
L 187.214663 -46 
L 188.156267 -46 
L 189.09787 -46 
L 190.039473 -46 
L 190.981076 -46 
L 191.92268 -46 
L 192.864283 -46 
L 193.805886 -46 
L 194.74749 -46 
L 195.689093 -46 
L 196.630696 -46 
L 197.572299 -46 
L 198.513903 -46 
L 199.455506 -46 
L 200.397109 -46 
L 201.338712 -46 
L 202.280316 -46 
L 203.221919 -46 
L 204.163522 -46 
L 205.105126 -46 
L 206.046729 -46 
L 206.988332 -46 
L 207.929935 -46 
L 208.871539 -46 
L 209.813142 -46 
L 210.754745 -46 
L 211.696349 -46 
L 212.637952 -46 
L 213.579555 -46 
L 214.521158 -46 
L 215.462762 -46 
L 216.404365 -46 
L 217.345968 -46 
L 218.287572 -46 
L 219.229175 -46 
L 220.170778 -46 
L 221.112381 -46 
L 222.053985 -46 
L 222.995588 -46 
L 223.937191 -46 
L 224.878794 -46 
L 225.820398 -46 
L 226.762001 -46 
L 227.703604 -46 
L 228.645208 -46 
L 229.586811 -46 
L 230.528414 -46 
L 231.470017 -46 
L 232.411621 -46 
L 233.353224 -46 
L 234.294827 -46 
L 235.236431 -46 
L 236.178034 -46 
L 237.119637 -46 
L 238.06124 -46 
L 239.002844 -46 
L 239.944447 -46 
L 240.88605 -46 
L 241.827653 -46 
L 242.769257 -46 
L 243.71086 -46 
L 244.652463 -46 
L 245.594067 -46 
L 246.53567 -46 
L 247.477273 -46 
L 248.418876 -46 
L 249.36048 -46 
L 250.302083 -46 
L 251.243686 -46 
L 252.18529 -46 
L 253.126893 -46 
L 254.068496 -46 
L 255.010099 -46 
L 255.951703 -46 
L 256.893306 -46 
L 257.834909 -46 
L 258.776513 -46 
L 259.718116 -46 
L 260.659719 -46 
L 261.601322 -46 
L 262.542926 -46 
L 263.484529 -46 
L 264.426132 -46 
L 265.367735 -46 
L 266.309339 -46 
L 267.250942 -46 
L 268.192545 -46 
L 269.134149 -46 
L 270.075752 -46 
L 271.017355 -46 
L 271.958958 -46 
L 272.900562 -46 
L 273.842165 -46 
L 274.783768 -46 
L 275.725372 -46 
L 276.666975 -46 
L 277.608578 -46 
L 278.550181 -46 
L 279.491785 -46 
L 280.433388 -46 
L 281.374991 -46 
L 282.316595 -46 
L 283.258198 -46 
L 284.199801 -46 
L 284.199801 -46.015167 
L 284.199801 -46.015167 
L 283.258198 -46.021496 
L 282.316595 -46.030042 
L 281.374991 -46.041399 
L 280.433388 -46.056255 
L 279.491785 -46.075376 
L 278.550181 -46.09959 
L 277.608578 -46.129752 
L 276.666975 -46.166701 
L 275.725372 -46.2112 
L 274.783768 -46.263873 
L 273.842165 -46.325133 
L 272.900562 -46.395107 
L 271.958958 -46.47357 
L 271.017355 -46.559903 
L 270.075752 -46.653059 
L 269.134149 -46.751578 
L 268.192545 -46.853633 
L 267.250942 -46.957119 
L 266.309339 -47.059789 
L 265.367735 -47.159416 
L 264.426132 -47.253998 
L 263.484529 -47.341956 
L 262.542926 -47.422339 
L 261.601322 -47.49499 
L 260.659719 -47.560676 
L 259.718116 -47.621138 
L 258.776513 -47.679074 
L 257.834909 -47.738024 
L 256.893306 -47.802175 
L 255.951703 -47.876096 
L 255.010099 -47.964401 
L 254.068496 -48.071404 
L 253.126893 -48.200761 
L 252.18529 -48.355163 
L 251.243686 -48.536101 
L 250.302083 -48.743742 
L 249.36048 -48.976935 
L 248.418876 -49.23336 
L 247.477273 -49.509819 
L 246.53567 -49.802656 
L 245.594067 -50.108255 
L 244.652463 -50.423594 
L 243.71086 -50.746774 
L 242.769257 -51.077481 
L 241.827653 -51.417296 
L 240.88605 -51.769826 
L 239.944447 -52.140598 
L 239.002844 -52.536697 
L 238.06124 -52.966176 
L 237.119637 -53.437239 
L 236.178034 -53.957285 
L 235.236431 -54.531873 
L 234.294827 -55.163716 
L 233.353224 -55.851802 
L 232.411621 -56.590743 
L 231.470017 -57.370447 
L 230.528414 -58.176162 
L 229.586811 -58.988942 
L 228.645208 -59.78652 
L 227.703604 -60.544542 
L 226.762001 -61.238092 
L 225.820398 -61.843383 
L 224.878794 -62.33948 
L 223.937191 -62.709917 
L 222.995588 -62.944061 
L 222.053985 -63.038104 
L 221.112381 -62.995597 
L 220.170778 -62.827472 
L 219.229175 -62.551556 
L 218.287572 -62.19162 
L 217.345968 -61.776042 
L 216.404365 -61.336202 
L 215.462762 -60.904746 
L 214.521158 -60.513834 
L 213.579555 -60.193512 
L 212.637952 -59.970295 
L 211.696349 -59.866027 
L 210.754745 -59.897068 
L 209.813142 -60.073784 
L 208.871539 -60.400348 
L 207.929935 -60.874799 
L 206.988332 -61.489324 
L 206.046729 -62.230725 
L 205.105126 -63.081052 
L 204.163522 -64.018385 
L 203.221919 -65.017776 
L 202.280316 -66.052361 
L 201.338712 -67.09464 
L 200.397109 -68.117949 
L 199.455506 -69.098065 
L 198.513903 -70.014927 
L 197.572299 -70.854345 
L 196.630696 -71.609616 
L 195.689093 -72.282872 
L 194.74749 -72.886037 
L 193.805886 -73.441226 
L 192.864283 -73.980496 
L 191.92268 -74.54487 
L 190.981076 -75.182621 
L 190.039473 -75.946898 
L 189.09787 -76.8928 
L 188.156267 -78.074093 
L 187.214663 -79.53979 
L 186.27306 -81.330836 
L 185.331457 -83.477136 
L 184.389853 -85.995139 
L 183.44825 -88.886125 
L 182.506647 -92.135317 
L 181.565044 -95.711838 
L 180.62344 -99.569509 
L 179.681837 -103.648398 
L 178.740234 -107.877026 
L 177.79863 -112.175106 
L 176.857027 -116.45666 
L 175.915424 -120.633413 
L 174.973821 -124.618321 
L 174.032217 -128.32914 
L 173.090614 -131.691921 
L 172.149011 -134.644331 
L 171.207408 -137.138666 
L 170.265804 -139.144446 
L 169.324201 -140.65042 
L 168.382598 -141.665842 
L 167.440994 -142.220864 
L 166.499391 -142.365924 
L 165.557788 -142.170059 
L 164.616185 -141.718139 
L 163.674581 -141.107107 
L 162.732978 -140.441401 
L 161.791375 -139.82784 
L 160.849771 -139.370309 
L 159.908168 -139.164659 
L 158.966565 -139.294214 
L 158.024962 -139.826287 
L 157.083358 -140.809989 
L 156.141755 -142.275546 
L 155.200152 -144.235155 
L 154.258548 -146.685282 
L 153.316945 -149.61015 
L 152.375342 -152.986025 
L 151.433739 -156.785846 
L 150.492135 -160.983667 
L 149.550532 -165.558436 
L 148.608929 -170.496678 
L 147.667326 -175.793778 
L 146.725722 -181.453684 
L 145.784119 -187.487012 
L 144.842516 -193.907692 
L 143.900912 -200.728394 
L 142.959309 -207.955085 
L 142.017706 -215.581142 
L 141.076103 -223.581451 
L 140.134499 -231.906955 
L 139.192896 -240.480097 
L 138.251293 -249.19156 
L 137.309689 -257.89871 
L 136.368086 -266.426052 
L 135.426483 -274.567959 
L 134.48488 -282.093837 
L 133.543276 -288.755718 
L 132.601673 -294.298125 
L 131.66007 -298.469829 
L 130.718466 -301.036908 
L 129.776863 -301.796323 
L 128.83526 -300.589039 
L 127.893657 -297.311674 
L 126.952053 -291.925643 
L 126.01045 -284.462915 
L 125.068847 -275.027698 
L 124.127244 -263.793752 
L 123.18564 -250.997328 
L 122.244037 -236.926215 
L 121.302434 -221.905641 
L 120.36083 -206.282141 
L 119.419227 -190.406595 
L 118.477624 -174.617738 
L 117.536021 -159.227315 
L 116.594417 -144.507849 
L 115.652814 -130.683724 
L 114.711211 -117.925913 
L 113.769607 -106.350368 
L 112.828004 -96.019764 
L 111.886401 -86.948058 
L 110.944798 -79.107158 
L 110.003194 -72.434925 
L 109.061591 -66.843747 
L 108.119988 -62.229005 
L 107.178385 -58.476873 
L 106.236781 -55.47107 
L 105.295178 -53.098318 
L 104.353575 -51.25243 
L 103.411971 -49.837076 
L 102.470368 -48.76735 
L 101.528765 -47.970339 
L 100.587162 -47.384908 
L 99.645558 -46.960939 
L 98.703955 -46.658199 
L 97.762352 -46.445039 
L 96.820748 -46.297037 
z
" style="stroke: #bc80bd; stroke-width: 0.8"/>
    </defs>
    <g clip-path="url(#pce6887dc14)">
     <use xlink:href="#mc9b75cb4a9" x="0" y="349.155" style="fill: #bc80bd; fill-opacity: 0.25; stroke: #bc80bd; stroke-width: 0.8"/>
    </g>
   </g>
   <g id="matplotlib.axis_1">
    <g id="xtick_1">
     <g id="line2d_1">
      <defs>
       <path id="mc0aa4ce869" d="M 0 0 
L 0 3.5 
" style="stroke: #323034; stroke-width: 0.8"/>
      </defs>
      <g>
       <use xlink:href="#mc0aa4ce869" x="51.615" y="303.155" style="fill: #323034; stroke: #323034; stroke-width: 0.8"/>
      </g>
     </g>
     <g id="text_1">
      <!-- $\mathdefault{−1}$ -->
      <g style="fill: #323034" transform="translate(42.095 321.0825) scale(0.16 -0.16)">
       <defs>
        <path id="STIXGeneral-Regular-2212" d="M 3974 1408 
L 410 1408 
L 410 1830 
L 3974 1830 
L 3974 1408 
z
" transform="scale(0.015625)"/>
        <path id="STIXGeneral-Regular-31" d="M 2522 0 
L 755 0 
L 755 96 
Q 1107 115 1235 227 
Q 1363 339 1363 608 
L 1363 3482 
Q 1363 3795 1171 3795 
Q 1082 3795 883 3718 
L 710 3654 
L 710 3744 
L 1856 4326 
L 1914 4307 
L 1914 486 
Q 1914 275 2042 185 
Q 2170 96 2522 96 
L 2522 0 
z
" transform="scale(0.015625)"/>
       </defs>
       <use xlink:href="#STIXGeneral-Regular-2212" transform="translate(0 0.40625)"/>
       <use xlink:href="#STIXGeneral-Regular-31" transform="translate(68.499985 0.40625)"/>
      </g>
     </g>
    </g>
    <g id="xtick_2">
     <g id="line2d_2">
      <g>
       <use xlink:href="#mc0aa4ce869" x="107.734303" y="303.155" style="fill: #323034; stroke: #323034; stroke-width: 0.8"/>
      </g>
     </g>
     <g id="text_2">
      <!-- $\mathdefault{0}$ -->
      <g style="fill: #323034" transform="translate(103.734303 321.0825) scale(0.16 -0.16)">
       <defs>
        <path id="STIXGeneral-Regular-30" d="M 3046 2112 
Q 3046 1683 2963 1302 
Q 2880 922 2717 602 
Q 2554 282 2266 96 
Q 1978 -90 1600 -90 
Q 1210 -90 915 108 
Q 621 307 461 640 
Q 301 973 227 1350 
Q 154 1728 154 2150 
Q 154 2746 301 3222 
Q 448 3699 790 4012 
Q 1133 4326 1626 4326 
Q 2253 4326 2649 3712 
Q 3046 3098 3046 2112 
z
M 2432 2080 
Q 2432 3091 2217 3625 
Q 2003 4160 1587 4160 
Q 1190 4160 979 3622 
Q 768 3085 768 2106 
Q 768 1120 979 598 
Q 1190 77 1600 77 
Q 2003 77 2217 598 
Q 2432 1120 2432 2080 
z
" transform="scale(0.015625)"/>
       </defs>
       <use xlink:href="#STIXGeneral-Regular-30" transform="translate(0 0.40625)"/>
      </g>
     </g>
    </g>
    <g id="xtick_3">
     <g id="line2d_3">
      <g>
       <use xlink:href="#mc0aa4ce869" x="163.853606" y="303.155" style="fill: #323034; stroke: #323034; stroke-width: 0.8"/>
      </g>
     </g>
     <g id="text_3">
      <!-- $\mathdefault{1}$ -->
      <g style="fill: #323034" transform="translate(159.853606 321.0825) scale(0.16 -0.16)">
       <use xlink:href="#STIXGeneral-Regular-31" transform="translate(0 0.40625)"/>
      </g>
     </g>
    </g>
    <g id="xtick_4">
     <g id="line2d_4">
      <g>
       <use xlink:href="#mc0aa4ce869" x="219.972909" y="303.155" style="fill: #323034; stroke: #323034; stroke-width: 0.8"/>
      </g>
     </g>
     <g id="text_4">
      <!-- $\mathdefault{2}$ -->
      <g style="fill: #323034" transform="translate(215.972909 321.0825) scale(0.16 -0.16)">
       <defs>
        <path id="STIXGeneral-Regular-32" d="M 3034 877 
L 2688 0 
L 186 0 
L 186 77 
L 1325 1286 
Q 1773 1754 1965 2144 
Q 2157 2534 2157 2950 
Q 2157 3379 1920 3616 
Q 1683 3853 1267 3853 
Q 922 3853 720 3673 
Q 518 3494 326 3021 
L 192 3053 
Q 301 3648 630 3987 
Q 960 4326 1523 4326 
Q 2054 4326 2380 4006 
Q 2707 3686 2707 3200 
Q 2707 2477 1888 1613 
L 832 486 
L 2330 486 
Q 2541 486 2665 569 
Q 2790 653 2944 915 
L 3034 877 
z
" transform="scale(0.015625)"/>
       </defs>
       <use xlink:href="#STIXGeneral-Regular-32" transform="translate(0 0.40625)"/>
      </g>
     </g>
    </g>
    <g id="xtick_5">
     <g id="line2d_5">
      <g>
       <use xlink:href="#mc0aa4ce869" x="276.092212" y="303.155" style="fill: #323034; stroke: #323034; stroke-width: 0.8"/>
      </g>
     </g>
     <g id="text_5">
      <!-- $\mathdefault{3}$ -->
      <g style="fill: #323034" transform="translate(272.092212 321.0825) scale(0.16 -0.16)">
       <defs>
        <path id="STIXGeneral-Regular-33" d="M 390 3264 
L 288 3290 
Q 435 3770 748 4048 
Q 1062 4326 1542 4326 
Q 1990 4326 2265 4083 
Q 2541 3840 2541 3450 
Q 2541 2925 1946 2566 
Q 2298 2413 2477 2227 
Q 2758 1914 2758 1402 
Q 2758 890 2464 506 
Q 2246 211 1840 60 
Q 1434 -90 979 -90 
Q 262 -90 262 275 
Q 262 378 339 442 
Q 416 506 525 506 
Q 685 506 915 339 
Q 1197 141 1466 141 
Q 1818 141 2058 425 
Q 2298 710 2298 1120 
Q 2298 1856 1632 2048 
Q 1434 2112 979 2112 
L 979 2202 
Q 1338 2323 1517 2432 
Q 2035 2726 2035 3290 
Q 2035 3610 1852 3776 
Q 1670 3942 1344 3942 
Q 768 3942 390 3264 
z
" transform="scale(0.015625)"/>
       </defs>
       <use xlink:href="#STIXGeneral-Regular-33" transform="translate(0 0.40625)"/>
      </g>
     </g>
    </g>
    <g id="xtick_6">
     <g id="line2d_6">
      <g>
       <use xlink:href="#mc0aa4ce869" x="332.211515" y="303.155" style="fill: #323034; stroke: #323034; stroke-width: 0.8"/>
      </g>
     </g>
     <g id="text_6">
      <!-- $\mathdefault{4}$ -->
      <g style="fill: #323034" transform="translate(328.211515 321.0825) scale(0.16 -0.16)">
       <defs>
        <path id="STIXGeneral-Regular-34" d="M 3027 1069 
L 2368 1069 
L 2368 0 
L 1869 0 
L 1869 1069 
L 77 1069 
L 77 1478 
L 2086 4326 
L 2368 4326 
L 2368 1478 
L 3027 1478 
L 3027 1069 
z
M 1869 1478 
L 1869 3674 
L 333 1478 
L 1869 1478 
z
" transform="scale(0.015625)"/>
       </defs>
       <use xlink:href="#STIXGeneral-Regular-34" transform="translate(0 0.40625)"/>
      </g>
     </g>
    </g>
    <g id="text_7">
     <!-- carat -->
     <g transform="translate(176.368257 338.4825) scale(0.16 -0.16)">
      <defs>
       <path id="STIXGeneral-Regular-63" d="M 2547 998 
L 2637 941 
Q 2362 403 2112 205 
Q 1786 -64 1376 -64 
Q 845 -64 502 336 
Q 160 736 160 1357 
Q 160 2170 698 2618 
Q 1094 2944 1562 2944 
Q 1965 2944 2256 2749 
Q 2547 2554 2547 2285 
Q 2547 2176 2457 2096 
Q 2368 2016 2246 2016 
Q 2022 2016 1939 2310 
L 1901 2451 
Q 1850 2630 1773 2694 
Q 1696 2758 1523 2758 
Q 1133 2758 893 2451 
Q 653 2144 653 1645 
Q 653 1094 928 745 
Q 1203 397 1645 397 
Q 1920 397 2118 528 
Q 2317 659 2547 998 
z
" transform="scale(0.015625)"/>
       <path id="STIXGeneral-Regular-61" d="M 2829 422 
L 2829 243 
Q 2586 -64 2253 -64 
Q 1888 -64 1843 403 
L 1837 403 
Q 1427 -64 909 -64 
Q 608 -64 422 112 
Q 237 288 237 602 
Q 237 1050 685 1350 
Q 992 1555 1837 1869 
L 1837 2214 
Q 1837 2502 1699 2646 
Q 1562 2790 1338 2790 
Q 1146 2790 1018 2697 
Q 890 2605 890 2477 
Q 890 2419 909 2348 
Q 928 2278 928 2208 
Q 928 2112 841 2029 
Q 755 1946 634 1946 
Q 525 1946 441 2029 
Q 358 2112 358 2240 
Q 358 2547 685 2752 
Q 986 2944 1421 2944 
Q 1939 2944 2176 2656 
Q 2291 2522 2323 2384 
Q 2355 2246 2355 1946 
L 2355 723 
Q 2355 301 2554 301 
Q 2682 301 2829 422 
z
M 1837 813 
L 1837 1715 
Q 1248 1510 1018 1293 
Q 800 1094 800 800 
Q 800 557 921 432 
Q 1043 307 1242 307 
Q 1453 307 1613 410 
Q 1747 506 1792 589 
Q 1837 672 1837 813 
z
" transform="scale(0.015625)"/>
       <path id="STIXGeneral-Regular-72" d="M 1024 2931 
L 1024 2342 
Q 1267 2688 1430 2816 
Q 1594 2944 1792 2944 
Q 1958 2944 2051 2854 
Q 2144 2765 2144 2605 
Q 2144 2470 2077 2393 
Q 2010 2317 1894 2317 
Q 1773 2317 1638 2445 
Q 1536 2541 1472 2541 
Q 1338 2541 1181 2355 
Q 1024 2170 1024 2016 
L 1024 576 
Q 1024 301 1133 205 
Q 1242 109 1568 96 
L 1568 0 
L 32 0 
L 32 96 
Q 339 154 412 224 
Q 486 294 486 538 
L 486 2138 
Q 486 2349 438 2435 
Q 390 2522 269 2522 
Q 166 2522 45 2496 
L 45 2598 
Q 448 2726 992 2944 
L 1024 2931 
z
" transform="scale(0.015625)"/>
       <path id="STIXGeneral-Regular-74" d="M 1702 493 
L 1786 422 
Q 1478 -64 1011 -64 
Q 448 -64 448 749 
L 448 2675 
L 109 2675 
Q 83 2694 83 2720 
Q 83 2771 192 2842 
Q 435 2982 813 3526 
Q 826 3546 874 3606 
Q 922 3667 941 3706 
Q 986 3706 986 3622 
L 986 2880 
L 1632 2880 
L 1632 2675 
L 986 2675 
L 986 845 
Q 986 538 1062 403 
Q 1139 269 1318 269 
Q 1510 269 1702 493 
z
" transform="scale(0.015625)"/>
      </defs>
      <use xlink:href="#STIXGeneral-Regular-63"/>
      <use xlink:href="#STIXGeneral-Regular-61" x="44.399994"/>
      <use xlink:href="#STIXGeneral-Regular-72" x="88.799988"/>
      <use xlink:href="#STIXGeneral-Regular-61" x="122.099976"/>
      <use xlink:href="#STIXGeneral-Regular-74" x="166.499969"/>
     </g>
    </g>
   </g>
   <g id="matplotlib.axis_2">
    <g id="ytick_1">
     <g id="line2d_7">
      <defs>
       <path id="m9a234eb666" d="M 0 0 
L -3.5 0 
" style="stroke: #323034; stroke-width: 0.8"/>
      </defs>
      <g>
       <use xlink:href="#m9a234eb666" x="51.615" y="303.155" style="fill: #323034; stroke: #323034; stroke-width: 0.8"/>
      </g>
     </g>
     <g id="text_8">
      <!-- $\mathdefault{0.0}$ -->
      <g style="fill: #323034" transform="translate(24.615 308.61875) scale(0.16 -0.16)">
       <defs>
        <path id="STIXGeneral-Regular-2e" d="M 1158 275 
Q 1158 134 1052 32 
Q 947 -70 800 -70 
Q 653 -70 550 32 
Q 448 134 448 281 
Q 448 429 553 534 
Q 659 640 806 640 
Q 947 640 1052 531 
Q 1158 422 1158 275 
z
" transform="scale(0.015625)"/>
       </defs>
       <use xlink:href="#STIXGeneral-Regular-30" transform="translate(0 0.40625)"/>
       <use xlink:href="#STIXGeneral-Regular-2e" transform="translate(49.999985 0.40625)"/>
       <use xlink:href="#STIXGeneral-Regular-30" transform="translate(74.999969 0.40625)"/>
      </g>
     </g>
    </g>
    <g id="ytick_2">
     <g id="line2d_8">
      <g>
       <use xlink:href="#m9a234eb666" x="51.615" y="254.739792" style="fill: #323034; stroke: #323034; stroke-width: 0.8"/>
      </g>
     </g>
     <g id="text_9">
      <!-- $\mathdefault{0.1}$ -->
      <g style="fill: #323034" transform="translate(24.615 260.203542) scale(0.16 -0.16)">
       <use xlink:href="#STIXGeneral-Regular-30" transform="translate(0 0.40625)"/>
       <use xlink:href="#STIXGeneral-Regular-2e" transform="translate(49.999985 0.40625)"/>
       <use xlink:href="#STIXGeneral-Regular-31" transform="translate(74.999969 0.40625)"/>
      </g>
     </g>
    </g>
    <g id="ytick_3">
     <g id="line2d_9">
      <g>
       <use xlink:href="#m9a234eb666" x="51.615" y="206.324583" style="fill: #323034; stroke: #323034; stroke-width: 0.8"/>
      </g>
     </g>
     <g id="text_10">
      <!-- $\mathdefault{0.2}$ -->
      <g style="fill: #323034" transform="translate(24.615 211.788333) scale(0.16 -0.16)">
       <use xlink:href="#STIXGeneral-Regular-30" transform="translate(0 0.40625)"/>
       <use xlink:href="#STIXGeneral-Regular-2e" transform="translate(49.999985 0.40625)"/>
       <use xlink:href="#STIXGeneral-Regular-32" transform="translate(74.999969 0.40625)"/>
      </g>
     </g>
    </g>
    <g id="ytick_4">
     <g id="line2d_10">
      <g>
       <use xlink:href="#m9a234eb666" x="51.615" y="157.909375" style="fill: #323034; stroke: #323034; stroke-width: 0.8"/>
      </g>
     </g>
     <g id="text_11">
      <!-- $\mathdefault{0.3}$ -->
      <g style="fill: #323034" transform="translate(24.615 163.373125) scale(0.16 -0.16)">
       <use xlink:href="#STIXGeneral-Regular-30" transform="translate(0 0.40625)"/>
       <use xlink:href="#STIXGeneral-Regular-2e" transform="translate(49.999985 0.40625)"/>
       <use xlink:href="#STIXGeneral-Regular-33" transform="translate(74.999969 0.40625)"/>
      </g>
     </g>
    </g>
    <g id="ytick_5">
     <g id="line2d_11">
      <g>
       <use xlink:href="#m9a234eb666" x="51.615" y="109.494167" style="fill: #323034; stroke: #323034; stroke-width: 0.8"/>
      </g>
     </g>
     <g id="text_12">
      <!-- $\mathdefault{0.4}$ -->
      <g style="fill: #323034" transform="translate(24.615 114.957917) scale(0.16 -0.16)">
       <use xlink:href="#STIXGeneral-Regular-30" transform="translate(0 0.40625)"/>
       <use xlink:href="#STIXGeneral-Regular-2e" transform="translate(49.999985 0.40625)"/>
       <use xlink:href="#STIXGeneral-Regular-34" transform="translate(74.999969 0.40625)"/>
      </g>
     </g>
    </g>
    <g id="ytick_6">
     <g id="line2d_12">
      <g>
       <use xlink:href="#m9a234eb666" x="51.615" y="61.078958" style="fill: #323034; stroke: #323034; stroke-width: 0.8"/>
      </g>
     </g>
     <g id="text_13">
      <!-- $\mathdefault{0.5}$ -->
      <g style="fill: #323034" transform="translate(24.615 66.542708) scale(0.16 -0.16)">
       <defs>
        <path id="STIXGeneral-Regular-35" d="M 2803 4358 
L 2573 3814 
Q 2534 3731 2400 3731 
L 1158 3731 
L 902 3187 
Q 1606 3053 1920 2896 
Q 2234 2739 2502 2368 
Q 2726 2061 2726 1555 
Q 2726 1094 2576 780 
Q 2426 467 2099 224 
Q 1664 -90 1011 -90 
Q 646 -90 422 19 
Q 198 128 198 307 
Q 198 550 486 550 
Q 717 550 960 352 
Q 1210 147 1414 147 
Q 1747 147 2012 480 
Q 2278 813 2278 1229 
Q 2278 1843 1850 2189 
Q 1293 2637 486 2637 
Q 410 2637 410 2688 
L 416 2720 
L 1114 4237 
L 2438 4237 
Q 2547 4237 2608 4269 
Q 2669 4301 2746 4403 
L 2803 4358 
z
" transform="scale(0.015625)"/>
       </defs>
       <use xlink:href="#STIXGeneral-Regular-30" transform="translate(0 0.203125)"/>
       <use xlink:href="#STIXGeneral-Regular-2e" transform="translate(49.999985 0.203125)"/>
       <use xlink:href="#STIXGeneral-Regular-35" transform="translate(74.999969 0.203125)"/>
      </g>
     </g>
    </g>
    <g id="ytick_7">
     <g id="line2d_13">
      <g>
       <use xlink:href="#m9a234eb666" x="51.615" y="12.66375" style="fill: #323034; stroke: #323034; stroke-width: 0.8"/>
      </g>
     </g>
     <g id="text_14">
      <!-- $\mathdefault{0.6}$ -->
      <g style="fill: #323034" transform="translate(24.615 18.1275) scale(0.16 -0.16)">
       <defs>
        <path id="STIXGeneral-Regular-36" d="M 2854 4378 
L 2867 4275 
Q 2112 4154 1606 3664 
Q 1101 3174 973 2451 
Q 1344 2739 1786 2739 
Q 2349 2739 2672 2380 
Q 2995 2022 2995 1402 
Q 2995 774 2669 378 
Q 2291 -90 1651 -90 
Q 870 -90 518 557 
Q 218 1107 218 1786 
Q 218 2835 915 3552 
Q 1312 3962 1731 4131 
Q 2150 4301 2854 4378 
z
M 2419 1203 
Q 2419 2445 1555 2445 
Q 1235 2445 1024 2275 
Q 813 2106 813 1702 
Q 813 954 1046 522 
Q 1280 90 1722 90 
Q 2061 90 2240 394 
Q 2419 698 2419 1203 
z
" transform="scale(0.015625)"/>
       </defs>
       <use xlink:href="#STIXGeneral-Regular-30" transform="translate(0 0.59375)"/>
       <use xlink:href="#STIXGeneral-Regular-2e" transform="translate(49.999985 0.59375)"/>
       <use xlink:href="#STIXGeneral-Regular-36" transform="translate(74.999969 0.59375)"/>
      </g>
     </g>
    </g>
    <g id="text_15">
     <!-- Density -->
     <g transform="translate(18.1275 182.798125) rotate(-90) scale(0.16 -0.16)">
      <defs>
       <path id="STIXGeneral-Regular-44" d="M 102 4237 
L 1830 4237 
Q 3078 4237 3750 3654 
Q 4384 3110 4384 2138 
Q 4384 966 3514 410 
Q 2880 0 1901 0 
L 102 0 
L 102 122 
Q 474 147 570 252 
Q 666 358 666 736 
L 666 3520 
Q 666 3891 570 3990 
Q 474 4090 102 4115 
L 102 4237 
z
M 1318 3731 
L 1318 538 
Q 1318 365 1379 301 
Q 1440 237 1626 237 
Q 2125 237 2432 307 
Q 2739 378 3021 570 
Q 3686 1018 3686 2099 
Q 3686 3027 3078 3558 
Q 2803 3802 2476 3901 
Q 2150 4000 1658 4000 
Q 1472 4000 1395 3942 
Q 1318 3885 1318 3731 
z
" transform="scale(0.015625)"/>
       <path id="STIXGeneral-Regular-65" d="M 2611 1050 
L 2714 1005 
Q 2330 -64 1376 -64 
Q 813 -64 486 329 
Q 160 723 160 1389 
Q 160 2074 525 2509 
Q 890 2944 1485 2944 
Q 2061 2944 2374 2502 
Q 2560 2246 2592 1773 
L 621 1773 
Q 646 1370 700 1158 
Q 755 947 915 730 
Q 1184 378 1626 378 
Q 1939 378 2153 531 
Q 2368 685 2611 1050 
z
M 634 1978 
L 1939 1978 
Q 1882 2381 1750 2547 
Q 1619 2714 1312 2714 
Q 1043 2714 864 2525 
Q 685 2336 634 1978 
z
" transform="scale(0.015625)"/>
       <path id="STIXGeneral-Regular-6e" d="M 3104 0 
L 1773 0 
L 1779 96 
Q 2016 115 2096 233 
Q 2176 352 2176 672 
L 2176 1946 
Q 2176 2592 1709 2592 
Q 1549 2592 1408 2515 
Q 1267 2438 1050 2227 
L 1050 461 
Q 1050 269 1136 192 
Q 1222 115 1466 96 
L 1466 0 
L 115 0 
L 115 96 
Q 358 115 435 214 
Q 512 314 512 602 
L 512 2157 
Q 512 2394 467 2483 
Q 422 2573 288 2573 
Q 160 2573 102 2547 
L 102 2656 
Q 550 2784 979 2944 
L 1030 2925 
L 1030 2426 
L 1037 2426 
Q 1491 2944 1958 2944 
Q 2323 2944 2518 2688 
Q 2714 2432 2714 1958 
L 2714 544 
Q 2714 288 2790 205 
Q 2867 122 3104 96 
L 3104 0 
z
" transform="scale(0.015625)"/>
       <path id="STIXGeneral-Regular-73" d="M 998 1926 
L 1664 1523 
Q 1984 1331 2105 1164 
Q 2227 998 2227 736 
Q 2227 416 1961 176 
Q 1696 -64 1331 -64 
Q 1030 -64 864 -6 
Q 691 51 570 51 
Q 461 51 416 -26 
L 333 -26 
L 333 979 
L 435 979 
Q 538 512 730 294 
Q 922 77 1248 77 
Q 1485 77 1632 211 
Q 1779 346 1779 550 
Q 1779 845 1440 1030 
L 1094 1222 
Q 326 1651 326 2150 
Q 326 2522 566 2730 
Q 806 2938 1210 2938 
Q 1491 2938 1638 2867 
Q 1754 2816 1818 2816 
Q 1862 2816 1920 2880 
L 1990 2880 
L 2022 2010 
L 1926 2010 
Q 1818 2445 1654 2621 
Q 1491 2797 1203 2797 
Q 986 2797 854 2688 
Q 723 2579 723 2362 
Q 723 2253 796 2128 
Q 870 2003 998 1926 
z
" transform="scale(0.015625)"/>
       <path id="STIXGeneral-Regular-69" d="M 1152 4045 
Q 1152 3904 1056 3811 
Q 960 3718 819 3718 
Q 685 3718 592 3811 
Q 499 3904 499 4045 
Q 499 4179 595 4275 
Q 691 4371 826 4371 
Q 966 4371 1059 4275 
Q 1152 4179 1152 4045 
z
M 1619 0 
L 102 0 
L 102 96 
Q 435 115 521 211 
Q 608 307 608 666 
L 608 2118 
Q 608 2342 563 2432 
Q 518 2522 397 2522 
Q 243 2522 128 2490 
L 128 2592 
L 1120 2944 
L 1146 2918 
L 1146 672 
Q 1146 314 1226 218 
Q 1306 122 1619 96 
L 1619 0 
z
" transform="scale(0.015625)"/>
       <path id="STIXGeneral-Regular-79" d="M 3040 2880 
L 3040 2784 
Q 2925 2771 2854 2700 
Q 2784 2630 2720 2458 
L 1760 -160 
Q 1510 -838 1257 -1116 
Q 1005 -1395 640 -1395 
Q 435 -1395 313 -1289 
Q 192 -1184 192 -1024 
Q 192 -902 272 -816 
Q 352 -730 467 -730 
Q 653 -730 800 -813 
Q 883 -858 966 -858 
Q 1101 -858 1286 -576 
Q 1376 -448 1459 -211 
Q 1542 26 1542 115 
Q 1542 198 1274 762 
L 429 2566 
Q 346 2752 90 2790 
L 90 2880 
L 1402 2880 
L 1402 2784 
Q 1197 2778 1117 2739 
Q 1037 2701 1037 2611 
Q 1037 2541 1120 2349 
L 1837 749 
L 2458 2515 
Q 2483 2573 2483 2630 
Q 2483 2784 2189 2784 
L 2189 2880 
L 3040 2880 
z
" transform="scale(0.015625)"/>
      </defs>
      <use xlink:href="#STIXGeneral-Regular-44"/>
      <use xlink:href="#STIXGeneral-Regular-65" x="72.199982"/>
      <use xlink:href="#STIXGeneral-Regular-6e" x="116.599976"/>
      <use xlink:href="#STIXGeneral-Regular-73" x="166.59996"/>
      <use xlink:href="#STIXGeneral-Regular-69" x="205.499954"/>
      <use xlink:href="#STIXGeneral-Regular-74" x="233.299942"/>
      <use xlink:href="#STIXGeneral-Regular-79" x="261.09993"/>
     </g>
    </g>
   </g>
   <g id="patch_3">
    <path d="M 51.615 303.155 
L 51.615 12.66375 
" style="fill: none; stroke: #000000; stroke-width: 0.6; stroke-linejoin: miter; stroke-linecap: square"/>
   </g>
   <g id="patch_4">
    <path d="M 51.615 303.155 
L 332.211515 303.155 
" style="fill: none; stroke: #000000; stroke-width: 0.6; stroke-linejoin: miter; stroke-linecap: square"/>
   </g>
  </g>
  <g id="legend_1">
   <g id="text_16">
    <!-- cut -->
    <g style="fill: #323034" transform="translate(385.449702 138.788437) scale(0.16 -0.16)">
     <defs>
      <path id="STIXGeneral-Regular-75" d="M 3072 320 
L 3072 230 
Q 2573 96 2195 -58 
L 2163 -38 
L 2163 486 
L 2150 486 
Q 1747 -64 1235 -64 
Q 870 -64 662 160 
Q 454 384 454 755 
L 454 2362 
Q 454 2598 371 2688 
Q 288 2778 58 2790 
L 58 2880 
L 992 2880 
L 992 813 
Q 992 595 1123 451 
Q 1254 307 1446 307 
Q 1760 307 1984 506 
Q 2067 582 2099 649 
Q 2131 717 2131 877 
L 2131 2355 
Q 2131 2605 2041 2678 
Q 1952 2752 1658 2771 
L 1658 2880 
L 2669 2880 
L 2669 685 
Q 2669 461 2742 390 
Q 2816 320 3034 320 
L 3072 320 
z
" transform="scale(0.015625)"/>
     </defs>
     <use xlink:href="#STIXGeneral-Regular-63"/>
     <use xlink:href="#STIXGeneral-Regular-75" x="44.399994"/>
     <use xlink:href="#STIXGeneral-Regular-74" x="94.399979"/>
    </g>
   </g>
   <g id="patch_5">
    <path d="M 351.59939 155.460938 
L 375.59939 155.460938 
L 375.59939 147.060937 
L 351.59939 147.060937 
z
" style="fill: #bc80bd; fill-opacity: 0.25; stroke: #bc80bd; stroke-width: 0.8; stroke-linejoin: miter"/>
   </g>
   <g id="text_17">
    <!-- Ideal -->
    <g style="fill: #323034" transform="translate(385.19939 155.460938) scale(0.12 -0.12)">
     <defs>
      <path id="STIXGeneral-Regular-49" d="M 2016 0 
L 115 0 
L 115 122 
Q 518 134 627 240 
Q 736 346 736 717 
L 736 3526 
Q 736 3898 633 3994 
Q 531 4090 115 4115 
L 115 4237 
L 2016 4237 
L 2016 4115 
Q 1613 4096 1501 3993 
Q 1389 3891 1389 3526 
L 1389 717 
Q 1389 358 1504 246 
Q 1619 134 2016 122 
L 2016 0 
z
" transform="scale(0.015625)"/>
      <path id="STIXGeneral-Regular-64" d="M 3142 269 
L 2202 -64 
L 2176 -45 
L 2176 365 
Q 1869 -64 1357 -64 
Q 826 -64 499 317 
Q 173 698 173 1312 
Q 173 1990 563 2467 
Q 954 2944 1504 2944 
Q 1850 2944 2176 2669 
L 2176 3667 
Q 2176 3866 2118 3930 
Q 2061 3994 1882 3994 
Q 1792 3994 1741 3987 
L 1741 4090 
Q 2323 4243 2682 4371 
L 2714 4358 
L 2714 730 
Q 2714 506 2768 435 
Q 2822 365 2995 365 
Q 3034 365 3142 371 
L 3142 269 
z
M 2176 653 
L 2176 2125 
Q 2176 2381 1981 2573 
Q 1786 2765 1523 2765 
Q 1158 2765 940 2438 
Q 723 2112 723 1568 
Q 723 979 963 624 
Q 1203 269 1606 269 
Q 1907 269 2080 474 
Q 2176 582 2176 653 
z
" transform="scale(0.015625)"/>
      <path id="STIXGeneral-Regular-6c" d="M 1645 0 
L 134 0 
L 134 96 
Q 435 122 531 221 
Q 627 320 627 589 
L 627 3590 
Q 627 3821 569 3910 
Q 512 4000 358 4000 
Q 224 4000 122 3987 
L 122 4090 
Q 730 4237 1133 4371 
L 1165 4346 
L 1165 557 
Q 1165 288 1254 201 
Q 1344 115 1645 96 
L 1645 0 
z
" transform="scale(0.015625)"/>
     </defs>
     <use xlink:href="#STIXGeneral-Regular-49"/>
     <use xlink:href="#STIXGeneral-Regular-64" x="33.299988"/>
     <use xlink:href="#STIXGeneral-Regular-65" x="83.299973"/>
     <use xlink:href="#STIXGeneral-Regular-61" x="127.699966"/>
     <use xlink:href="#STIXGeneral-Regular-6c" x="172.09996"/>
    </g>
   </g>
   <g id="patch_6">
    <path d="M 351.59939 171.265312 
L 375.59939 171.265312 
L 375.59939 162.865312 
L 351.59939 162.865312 
z
" style="fill: #fb8072; fill-opacity: 0.25; stroke: #fb8072; stroke-width: 0.8; stroke-linejoin: miter"/>
   </g>
   <g id="text_18">
    <!-- Premium -->
    <g style="fill: #323034" transform="translate(385.19939 171.265312) scale(0.12 -0.12)">
     <defs>
      <path id="STIXGeneral-Regular-50" d="M 102 4237 
L 1760 4237 
Q 2669 4237 3149 3834 
Q 3469 3565 3469 3072 
Q 3469 2560 3104 2234 
Q 2835 1990 2553 1916 
Q 2272 1843 1734 1843 
Q 1549 1843 1293 1862 
L 1293 717 
Q 1293 352 1398 246 
Q 1504 141 1894 122 
L 1894 0 
L 102 0 
L 102 122 
Q 474 147 557 256 
Q 640 365 640 781 
L 640 3526 
Q 640 3885 547 3987 
Q 454 4090 102 4115 
L 102 4237 
z
M 1293 3770 
L 1293 2118 
Q 1510 2099 1683 2099 
Q 2202 2099 2486 2352 
Q 2771 2605 2771 3040 
Q 2771 3558 2476 3779 
Q 2182 4000 1517 4000 
Q 1382 4000 1337 3952 
Q 1293 3904 1293 3770 
z
" transform="scale(0.015625)"/>
      <path id="STIXGeneral-Regular-6d" d="M 4960 0 
L 3565 0 
L 3565 96 
Q 3834 122 3907 208 
Q 3981 294 3981 576 
L 3981 1894 
Q 3981 2278 3869 2444 
Q 3757 2611 3488 2611 
Q 3264 2611 3107 2521 
Q 2950 2432 2803 2221 
L 2803 608 
Q 2803 301 2896 201 
Q 2989 102 3264 96 
L 3264 0 
L 1830 0 
L 1830 96 
Q 2112 115 2189 188 
Q 2266 262 2266 550 
L 2266 1901 
Q 2266 2611 1850 2611 
Q 1670 2611 1468 2531 
Q 1267 2451 1171 2336 
Q 1088 2240 1088 2227 
L 1088 448 
Q 1088 243 1177 176 
Q 1267 109 1523 96 
L 1523 0 
L 102 0 
L 102 96 
Q 371 102 460 195 
Q 550 288 550 563 
L 550 2150 
Q 550 2387 499 2480 
Q 448 2573 326 2573 
Q 230 2573 122 2547 
L 122 2656 
Q 557 2778 1011 2944 
L 1062 2925 
L 1062 2451 
L 1075 2451 
Q 1363 2752 1584 2848 
Q 1805 2944 2054 2944 
Q 2560 2944 2733 2406 
Q 3232 2944 3776 2944 
Q 4518 2944 4518 1792 
L 4518 493 
Q 4518 282 4582 202 
Q 4646 122 4794 109 
L 4960 96 
L 4960 0 
z
" transform="scale(0.015625)"/>
     </defs>
     <use xlink:href="#STIXGeneral-Regular-50"/>
     <use xlink:href="#STIXGeneral-Regular-72" x="55.699997"/>
     <use xlink:href="#STIXGeneral-Regular-65" x="88.999985"/>
     <use xlink:href="#STIXGeneral-Regular-6d" x="133.399979"/>
     <use xlink:href="#STIXGeneral-Regular-69" x="211.199966"/>
     <use xlink:href="#STIXGeneral-Regular-75" x="238.999954"/>
     <use xlink:href="#STIXGeneral-Regular-6d" x="288.999939"/>
    </g>
   </g>
   <g id="patch_7">
    <path d="M 351.59939 187.069687 
L 375.59939 187.069687 
L 375.59939 178.669687 
L 351.59939 178.669687 
z
" style="fill: #b3de69; fill-opacity: 0.25; stroke: #b3de69; stroke-width: 0.8; stroke-linejoin: miter"/>
   </g>
   <g id="text_19">
    <!-- Very Good -->
    <g style="fill: #323034" transform="translate(385.19939 187.069687) scale(0.12 -0.12)">
     <defs>
      <path id="STIXGeneral-Regular-56" d="M 4461 4237 
L 4461 4115 
Q 4262 4109 4134 3990 
Q 4006 3872 3872 3533 
L 2451 -70 
L 2355 -70 
L 794 3411 
Q 589 3866 467 3987 
Q 346 4109 102 4115 
L 102 4237 
L 1798 4237 
L 1798 4115 
L 1619 4102 
Q 1331 4083 1331 3904 
Q 1331 3776 1581 3219 
L 2554 1030 
L 3494 3392 
Q 3616 3699 3616 3853 
Q 3616 3898 3606 3933 
Q 3597 3968 3584 3993 
Q 3571 4019 3536 4038 
Q 3501 4058 3481 4067 
Q 3462 4077 3411 4086 
Q 3360 4096 3337 4099 
Q 3315 4102 3248 4108 
Q 3181 4115 3155 4115 
L 3155 4237 
L 4461 4237 
z
" transform="scale(0.015625)"/>
      <path id="STIXGeneral-Regular-20" transform="scale(0.015625)"/>
      <path id="STIXGeneral-Regular-47" d="M 4538 2266 
L 4538 2150 
Q 4256 2125 4173 2035 
Q 4090 1946 4090 1638 
L 4090 358 
Q 3539 -90 2464 -90 
Q 1965 -90 1507 89 
Q 1050 269 736 595 
Q 205 1152 205 2093 
Q 205 3155 890 3776 
Q 1491 4326 2419 4326 
Q 2829 4326 3270 4179 
Q 3443 4115 3552 4115 
Q 3654 4115 3731 4176 
Q 3808 4237 3840 4326 
L 3981 4326 
L 4032 2976 
L 3885 2976 
Q 3680 3475 3430 3718 
Q 3059 4070 2496 4070 
Q 1856 4070 1427 3629 
Q 934 3136 934 2074 
Q 934 1190 1395 678 
Q 1856 166 2618 166 
Q 2982 166 3225 281 
Q 3469 397 3469 557 
L 3469 1562 
Q 3469 1933 3376 2025 
Q 3283 2118 2899 2150 
L 2899 2266 
L 4538 2266 
z
" transform="scale(0.015625)"/>
      <path id="STIXGeneral-Regular-6f" d="M 3008 1478 
Q 3008 806 2608 371 
Q 2208 -64 1568 -64 
Q 979 -64 582 368 
Q 186 800 186 1459 
Q 186 2125 582 2534 
Q 979 2944 1626 2944 
Q 2221 2944 2614 2537 
Q 3008 2131 3008 1478 
z
M 2432 1306 
Q 2432 2035 2112 2445 
Q 1856 2765 1504 2765 
Q 1171 2765 966 2493 
Q 762 2221 762 1747 
Q 762 928 1101 435 
Q 1318 115 1677 115 
Q 2029 115 2230 432 
Q 2432 749 2432 1306 
z
" transform="scale(0.015625)"/>
     </defs>
     <use xlink:href="#STIXGeneral-Regular-56"/>
     <use xlink:href="#STIXGeneral-Regular-65" x="72.199982"/>
     <use xlink:href="#STIXGeneral-Regular-72" x="116.599976"/>
     <use xlink:href="#STIXGeneral-Regular-79" x="149.899963"/>
     <use xlink:href="#STIXGeneral-Regular-20" x="199.899948"/>
     <use xlink:href="#STIXGeneral-Regular-47" x="224.899933"/>
     <use xlink:href="#STIXGeneral-Regular-6f" x="297.099915"/>
     <use xlink:href="#STIXGeneral-Regular-6f" x="347.099899"/>
     <use xlink:href="#STIXGeneral-Regular-64" x="397.099884"/>
    </g>
   </g>
   <g id="patch_8">
    <path d="M 351.59939 202.885312 
L 375.59939 202.885312 
L 375.59939 194.485312 
L 351.59939 194.485312 
z
" style="fill: #fdb462; fill-opacity: 0.25; stroke: #fdb462; stroke-width: 0.8; stroke-linejoin: miter"/>
   </g>
   <g id="text_20">
    <!-- Good -->
    <g style="fill: #323034" transform="translate(385.19939 202.885312) scale(0.12 -0.12)">
     <use xlink:href="#STIXGeneral-Regular-47"/>
     <use xlink:href="#STIXGeneral-Regular-6f" x="72.199982"/>
     <use xlink:href="#STIXGeneral-Regular-6f" x="122.199966"/>
     <use xlink:href="#STIXGeneral-Regular-64" x="172.199951"/>
    </g>
   </g>
   <g id="patch_9">
    <path d="M 351.59939 218.689687 
L 375.59939 218.689687 
L 375.59939 210.289687 
L 351.59939 210.289687 
z
" style="fill: #fccde5; fill-opacity: 0.25; stroke: #fccde5; stroke-width: 0.8; stroke-linejoin: miter"/>
   </g>
   <g id="text_21">
    <!-- Fair -->
    <g style="fill: #323034" transform="translate(385.19939 218.689687) scale(0.12 -0.12)">
     <defs>
      <path id="STIXGeneral-Regular-46" d="M 3494 3322 
L 3334 3322 
Q 3264 3757 3094 3875 
Q 2925 3994 2349 3994 
L 1504 3994 
Q 1370 3994 1328 3946 
Q 1286 3898 1286 3744 
L 1286 2355 
L 2195 2355 
Q 2598 2355 2736 2470 
Q 2874 2586 2918 2963 
L 3066 2963 
L 3066 1472 
L 2918 1472 
Q 2880 1862 2745 1977 
Q 2611 2093 2195 2093 
L 1286 2093 
L 1286 717 
Q 1286 352 1392 246 
Q 1498 141 1869 122 
L 1869 0 
L 70 0 
L 70 122 
Q 435 147 534 259 
Q 634 371 634 787 
L 634 3526 
Q 634 3878 538 3984 
Q 442 4090 77 4115 
L 77 4237 
L 3462 4237 
L 3494 3322 
z
" transform="scale(0.015625)"/>
     </defs>
     <use xlink:href="#STIXGeneral-Regular-46"/>
     <use xlink:href="#STIXGeneral-Regular-61" x="55.599991"/>
     <use xlink:href="#STIXGeneral-Regular-69" x="99.999985"/>
     <use xlink:href="#STIXGeneral-Regular-72" x="127.799973"/>
    </g>
   </g>
  </g>
 </g>
 <defs>
  <clipPath id="pce6887dc14">
   <rect x="51.615" y="12.66375" width="280.596515" height="290.49125"/>
  </clipPath>
 </defs>
</svg>
