<?xml version="1.0" encoding="utf-8" standalone="no"?>
<!DOCTYPE svg PUBLIC "-//W3C//DTD SVG 1.1//EN"
  "http://www.w3.org/Graphics/SVG/1.1/DTD/svg11.dtd">
<svg xmlns:xlink="http://www.w3.org/1999/xlink" width="447.267266pt" height="349.155pt" viewBox="0 0 447.267266 349.155" xmlns="http://www.w3.org/2000/svg" version="1.1">
 <metadata>
  <rdf:RDF xmlns:dc="http://purl.org/dc/elements/1.1/" xmlns:cc="http://creativecommons.org/ns#" xmlns:rdf="http://www.w3.org/1999/02/22-rdf-syntax-ns#">
   <cc:Work>
    <dc:type rdf:resource="http://purl.org/dc/dcmitype/StillImage"/>
    <dc:date>2022-10-28T18:13:55.175183</dc:date>
    <dc:format>image/svg+xml</dc:format>
    <dc:creator>
     <cc:Agent>
      <dc:title>Matplotlib v3.5.3, https://matplotlib.org/</dc:title>
     </cc:Agent>
    </dc:creator>
   </cc:Work>
  </rdf:RDF>
 </metadata>
 <defs>
  <style type="text/css">*{stroke-linejoin: round; stroke-linecap: butt}</style>
 </defs>
 <g id="figure_1">
  <g id="patch_1">
   <path d="M 0 349.155 
L 447.267266 349.155 
L 447.267266 0 
L 0 0 
z
" style="fill: #ffffff"/>
  </g>
  <g id="axes_1">
   <g id="patch_2">
    <path d="M 51.615 303.155 
L 332.226266 303.155 
L 332.226266 12.66375 
L 51.615 12.66375 
z
" style="fill: #ffffff"/>
   </g>
   <g id="PolyCollection_1">
    <defs>
     <path id="mc21edcfe93" d="M 90.8274 -46.034507 
L 90.8274 -46 
L 91.708042 -46 
L 92.588684 -46 
L 93.469326 -46 
L 94.349968 -46 
L 95.23061 -46 
L 96.111253 -46 
L 96.991895 -46 
L 97.872537 -46 
L 98.753179 -46 
L 99.633821 -46 
L 100.514463 -46 
L 101.395105 -46 
L 102.275748 -46 
L 103.15639 -46 
L 104.037032 -46 
L 104.917674 -46 
L 105.798316 -46 
L 106.678958 -46 
L 107.5596 -46 
L 108.440242 -46 
L 109.320885 -46 
L 110.201527 -46 
L 111.082169 -46 
L 111.962811 -46 
L 112.843453 -46 
L 113.724095 -46 
L 114.604737 -46 
L 115.48538 -46 
L 116.366022 -46 
L 117.246664 -46 
L 118.127306 -46 
L 119.007948 -46 
L 119.88859 -46 
L 120.769232 -46 
L 121.649874 -46 
L 122.530517 -46 
L 123.411159 -46 
L 124.291801 -46 
L 125.172443 -46 
L 126.053085 -46 
L 126.933727 -46 
L 127.814369 -46 
L 128.695012 -46 
L 129.575654 -46 
L 130.456296 -46 
L 131.336938 -46 
L 132.21758 -46 
L 133.098222 -46 
L 133.978864 -46 
L 134.859506 -46 
L 135.740149 -46 
L 136.620791 -46 
L 137.501433 -46 
L 138.382075 -46 
L 139.262717 -46 
L 140.143359 -46 
L 141.024001 -46 
L 141.904644 -46 
L 142.785286 -46 
L 143.665928 -46 
L 144.54657 -46 
L 145.427212 -46 
L 146.307854 -46 
L 147.188496 -46 
L 148.069138 -46 
L 148.949781 -46 
L 149.830423 -46 
L 150.711065 -46 
L 151.591707 -46 
L 152.472349 -46 
L 153.352991 -46 
L 154.233633 -46 
L 155.114276 -46 
L 155.994918 -46 
L 156.87556 -46 
L 157.756202 -46 
L 158.636844 -46 
L 159.517486 -46 
L 160.398128 -46 
L 161.27877 -46 
L 162.159413 -46 
L 163.040055 -46 
L 163.920697 -46 
L 164.801339 -46 
L 165.681981 -46 
L 166.562623 -46 
L 167.443265 -46 
L 168.323908 -46 
L 169.20455 -46 
L 170.085192 -46 
L 170.965834 -46 
L 171.846476 -46 
L 172.727118 -46 
L 173.60776 -46 
L 174.488402 -46 
L 175.369045 -46 
L 176.249687 -46 
L 177.130329 -46 
L 178.010971 -46 
L 178.891613 -46 
L 179.772255 -46 
L 180.652897 -46 
L 181.53354 -46 
L 182.414182 -46 
L 183.294824 -46 
L 184.175466 -46 
L 185.056108 -46 
L 185.93675 -46 
L 186.817392 -46 
L 187.698034 -46 
L 188.578677 -46 
L 189.459319 -46 
L 190.339961 -46 
L 191.220603 -46 
L 192.101245 -46 
L 192.981887 -46 
L 193.862529 -46 
L 194.743172 -46 
L 195.623814 -46 
L 196.504456 -46 
L 197.385098 -46 
L 198.26574 -46 
L 199.146382 -46 
L 200.027024 -46 
L 200.907666 -46 
L 201.788309 -46 
L 202.668951 -46 
L 203.549593 -46 
L 204.430235 -46 
L 205.310877 -46 
L 206.191519 -46 
L 207.072161 -46 
L 207.952804 -46 
L 208.833446 -46 
L 209.714088 -46 
L 210.59473 -46 
L 211.475372 -46 
L 212.356014 -46 
L 213.236656 -46 
L 214.117298 -46 
L 214.997941 -46 
L 215.878583 -46 
L 216.759225 -46 
L 217.639867 -46 
L 218.520509 -46 
L 219.401151 -46 
L 220.281793 -46 
L 221.162436 -46 
L 222.043078 -46 
L 222.92372 -46 
L 223.804362 -46 
L 224.685004 -46 
L 225.565646 -46 
L 226.446288 -46 
L 227.32693 -46 
L 228.207573 -46 
L 229.088215 -46 
L 229.968857 -46 
L 230.849499 -46 
L 231.730141 -46 
L 232.610783 -46 
L 233.491425 -46 
L 234.372068 -46 
L 235.25271 -46 
L 236.133352 -46 
L 237.013994 -46 
L 237.894636 -46 
L 238.775278 -46 
L 239.65592 -46 
L 240.536562 -46 
L 241.417205 -46 
L 242.297847 -46 
L 243.178489 -46 
L 244.059131 -46 
L 244.939773 -46 
L 245.820415 -46 
L 246.701057 -46 
L 247.5817 -46 
L 248.462342 -46 
L 249.342984 -46 
L 250.223626 -46 
L 251.104268 -46 
L 251.98491 -46 
L 252.865552 -46 
L 253.746194 -46 
L 254.626837 -46 
L 255.507479 -46 
L 256.388121 -46 
L 257.268763 -46 
L 258.149405 -46 
L 259.030047 -46 
L 259.910689 -46 
L 260.791331 -46 
L 261.671974 -46 
L 262.552616 -46 
L 263.433258 -46 
L 264.3139 -46 
L 265.194542 -46 
L 266.075184 -46 
L 266.075184 -46.010923 
L 266.075184 -46.010923 
L 265.194542 -46.013797 
L 264.3139 -46.017323 
L 263.433258 -46.021622 
L 262.552616 -46.026827 
L 261.671974 -46.033089 
L 260.791331 -46.040572 
L 259.910689 -46.049454 
L 259.030047 -46.059928 
L 258.149405 -46.072197 
L 257.268763 -46.086472 
L 256.388121 -46.102969 
L 255.507479 -46.121907 
L 254.626837 -46.143501 
L 253.746194 -46.167956 
L 252.865552 -46.195463 
L 251.98491 -46.226192 
L 251.104268 -46.260285 
L 250.223626 -46.297851 
L 249.342984 -46.338954 
L 248.462342 -46.383615 
L 247.5817 -46.4318 
L 246.701057 -46.483417 
L 245.820415 -46.538314 
L 244.939773 -46.596276 
L 244.059131 -46.657021 
L 243.178489 -46.720205 
L 242.297847 -46.785423 
L 241.417205 -46.852211 
L 240.536562 -46.920055 
L 239.65592 -46.988396 
L 238.775278 -47.056636 
L 237.894636 -47.124154 
L 237.013994 -47.190309 
L 236.133352 -47.254456 
L 235.25271 -47.315955 
L 234.372068 -47.374183 
L 233.491425 -47.428543 
L 232.610783 -47.478478 
L 231.730141 -47.52348 
L 230.849499 -47.563095 
L 229.968857 -47.596938 
L 229.088215 -47.624697 
L 228.207573 -47.646138 
L 227.32693 -47.661115 
L 226.446288 -47.669569 
L 225.565646 -47.671537 
L 224.685004 -47.667148 
L 223.804362 -47.656628 
L 222.92372 -47.6403 
L 222.043078 -47.61858 
L 221.162436 -47.591978 
L 220.281793 -47.561087 
L 219.401151 -47.526585 
L 218.520509 -47.489223 
L 217.639867 -47.44982 
L 216.759225 -47.409249 
L 215.878583 -47.368428 
L 214.997941 -47.32831 
L 214.117298 -47.289869 
L 213.236656 -47.254085 
L 212.356014 -47.221937 
L 211.475372 -47.194383 
L 210.59473 -47.172357 
L 209.714088 -47.156755 
L 208.833446 -47.148429 
L 207.952804 -47.148179 
L 207.072161 -47.156753 
L 206.191519 -47.174846 
L 205.310877 -47.203103 
L 204.430235 -47.242122 
L 203.549593 -47.292463 
L 202.668951 -47.354661 
L 201.788309 -47.42923 
L 200.907666 -47.516684 
L 200.027024 -47.617545 
L 199.146382 -47.732358 
L 198.26574 -47.861705 
L 197.385098 -48.006209 
L 196.504456 -48.166553 
L 195.623814 -48.343475 
L 194.743172 -48.537778 
L 193.862529 -48.750322 
L 192.981887 -48.98202 
L 192.101245 -49.233828 
L 191.220603 -49.506723 
L 190.339961 -49.801686 
L 189.459319 -50.119674 
L 188.578677 -50.461585 
L 187.698034 -50.828223 
L 186.817392 -51.220258 
L 185.93675 -51.638182 
L 185.056108 -52.082257 
L 184.175466 -52.552475 
L 183.294824 -53.048501 
L 182.414182 -53.569633 
L 181.53354 -54.114757 
L 180.652897 -54.682309 
L 179.772255 -55.270244 
L 178.891613 -55.876017 
L 178.010971 -56.496577 
L 177.130329 -57.128366 
L 176.249687 -57.767346 
L 175.369045 -58.409034 
L 174.488402 -59.048553 
L 173.60776 -59.680709 
L 172.727118 -60.300072 
L 171.846476 -60.901082 
L 170.965834 -61.478165 
L 170.085192 -62.02585 
L 169.20455 -62.538899 
L 168.323908 -63.012441 
L 167.443265 -63.44209 
L 166.562623 -63.824065 
L 165.681981 -64.155291 
L 164.801339 -64.433484 
L 163.920697 -64.657217 
L 163.040055 -64.825954 
L 162.159413 -64.940067 
L 161.27877 -65.00082 
L 160.398128 -65.010327 
L 159.517486 -64.971484 
L 158.636844 -64.887885 
L 157.756202 -64.763705 
L 156.87556 -64.60358 
L 155.994918 -64.412474 
L 155.114276 -64.195533 
L 154.233633 -63.957945 
L 153.352991 -63.704804 
L 152.472349 -63.440981 
L 151.591707 -63.171005 
L 150.711065 -62.898963 
L 149.830423 -62.628417 
L 148.949781 -62.362341 
L 148.069138 -62.103071 
L 147.188496 -61.852291 
L 146.307854 -61.61102 
L 145.427212 -61.379632 
L 144.54657 -61.157887 
L 143.665928 -60.944972 
L 142.785286 -60.739566 
L 141.904644 -60.539907 
L 141.024001 -60.343869 
L 140.143359 -60.149046 
L 139.262717 -59.952839 
L 138.382075 -59.752542 
L 137.501433 -59.545435 
L 136.620791 -59.32886 
L 135.740149 -59.100311 
L 134.859506 -58.857501 
L 133.978864 -58.598431 
L 133.098222 -58.321449 
L 132.21758 -58.025294 
L 131.336938 -57.709136 
L 130.456296 -57.372598 
L 129.575654 -57.015772 
L 128.695012 -56.639213 
L 127.814369 -56.243934 
L 126.933727 -55.831379 
L 126.053085 -55.403391 
L 125.172443 -54.962163 
L 124.291801 -54.510194 
L 123.411159 -54.050222 
L 122.530517 -53.585165 
L 121.649874 -53.118055 
L 120.769232 -52.651965 
L 119.88859 -52.189948 
L 119.007948 -51.734971 
L 118.127306 -51.289853 
L 117.246664 -50.857218 
L 116.366022 -50.439444 
L 115.48538 -50.038629 
L 114.604737 -49.656561 
L 113.724095 -49.294702 
L 112.843453 -48.954174 
L 111.962811 -48.635764 
L 111.082169 -48.339929 
L 110.201527 -48.066812 
L 109.320885 -47.816264 
L 108.440242 -47.587872 
L 107.5596 -47.38099 
L 106.678958 -47.194771 
L 105.798316 -47.028205 
L 104.917674 -46.880154 
L 104.037032 -46.749384 
L 103.15639 -46.634602 
L 102.275748 -46.534485 
L 101.395105 -46.447705 
L 100.514463 -46.372955 
L 99.633821 -46.308971 
L 98.753179 -46.254544 
L 97.872537 -46.208536 
L 96.991895 -46.169886 
L 96.111253 -46.137622 
L 95.23061 -46.110856 
L 94.349968 -46.088789 
L 93.469326 -46.070711 
L 92.588684 -46.055992 
L 91.708042 -46.044083 
L 90.8274 -46.034507 
z
" style="stroke: #fccde5; stroke-width: 0.8"/>
    </defs>
    <g clip-path="url(#paa18896146)">
     <use xlink:href="#mc21edcfe93" x="0" y="349.155" style="fill: #fccde5; fill-opacity: 0.25; stroke: #fccde5; stroke-width: 0.8"/>
    </g>
   </g>
   <g id="PolyCollection_2">
    <defs>
     <path id="m37cc2b7737" d="M 89.359777 -46.047607 
L 89.359777 -46 
L 90.195945 -46 
L 91.032112 -46 
L 91.86828 -46 
L 92.704448 -46 
L 93.540615 -46 
L 94.376783 -46 
L 95.21295 -46 
L 96.049118 -46 
L 96.885286 -46 
L 97.721453 -46 
L 98.557621 -46 
L 99.393789 -46 
L 100.229956 -46 
L 101.066124 -46 
L 101.902291 -46 
L 102.738459 -46 
L 103.574627 -46 
L 104.410794 -46 
L 105.246962 -46 
L 106.08313 -46 
L 106.919297 -46 
L 107.755465 -46 
L 108.591632 -46 
L 109.4278 -46 
L 110.263968 -46 
L 111.100135 -46 
L 111.936303 -46 
L 112.772471 -46 
L 113.608638 -46 
L 114.444806 -46 
L 115.280973 -46 
L 116.117141 -46 
L 116.953309 -46 
L 117.789476 -46 
L 118.625644 -46 
L 119.461811 -46 
L 120.297979 -46 
L 121.134147 -46 
L 121.970314 -46 
L 122.806482 -46 
L 123.64265 -46 
L 124.478817 -46 
L 125.314985 -46 
L 126.151152 -46 
L 126.98732 -46 
L 127.823488 -46 
L 128.659655 -46 
L 129.495823 -46 
L 130.331991 -46 
L 131.168158 -46 
L 132.004326 -46 
L 132.840493 -46 
L 133.676661 -46 
L 134.512829 -46 
L 135.348996 -46 
L 136.185164 -46 
L 137.021332 -46 
L 137.857499 -46 
L 138.693667 -46 
L 139.529834 -46 
L 140.366002 -46 
L 141.20217 -46 
L 142.038337 -46 
L 142.874505 -46 
L 143.710673 -46 
L 144.54684 -46 
L 145.383008 -46 
L 146.219175 -46 
L 147.055343 -46 
L 147.891511 -46 
L 148.727678 -46 
L 149.563846 -46 
L 150.400014 -46 
L 151.236181 -46 
L 152.072349 -46 
L 152.908516 -46 
L 153.744684 -46 
L 154.580852 -46 
L 155.417019 -46 
L 156.253187 -46 
L 157.089354 -46 
L 157.925522 -46 
L 158.76169 -46 
L 159.597857 -46 
L 160.434025 -46 
L 161.270193 -46 
L 162.10636 -46 
L 162.942528 -46 
L 163.778695 -46 
L 164.614863 -46 
L 165.451031 -46 
L 166.287198 -46 
L 167.123366 -46 
L 167.959534 -46 
L 168.795701 -46 
L 169.631869 -46 
L 170.468036 -46 
L 171.304204 -46 
L 172.140372 -46 
L 172.976539 -46 
L 173.812707 -46 
L 174.648875 -46 
L 175.485042 -46 
L 176.32121 -46 
L 177.157377 -46 
L 177.993545 -46 
L 178.829713 -46 
L 179.66588 -46 
L 180.502048 -46 
L 181.338216 -46 
L 182.174383 -46 
L 183.010551 -46 
L 183.846718 -46 
L 184.682886 -46 
L 185.519054 -46 
L 186.355221 -46 
L 187.191389 -46 
L 188.027556 -46 
L 188.863724 -46 
L 189.699892 -46 
L 190.536059 -46 
L 191.372227 -46 
L 192.208395 -46 
L 193.044562 -46 
L 193.88073 -46 
L 194.716897 -46 
L 195.553065 -46 
L 196.389233 -46 
L 197.2254 -46 
L 198.061568 -46 
L 198.897736 -46 
L 199.733903 -46 
L 200.570071 -46 
L 201.406238 -46 
L 202.242406 -46 
L 203.078574 -46 
L 203.914741 -46 
L 204.750909 -46 
L 205.587077 -46 
L 206.423244 -46 
L 207.259412 -46 
L 208.095579 -46 
L 208.931747 -46 
L 209.767915 -46 
L 210.604082 -46 
L 211.44025 -46 
L 212.276418 -46 
L 213.112585 -46 
L 213.948753 -46 
L 214.78492 -46 
L 215.621088 -46 
L 216.457256 -46 
L 217.293423 -46 
L 218.129591 -46 
L 218.965758 -46 
L 219.801926 -46 
L 220.638094 -46 
L 221.474261 -46 
L 222.310429 -46 
L 223.146597 -46 
L 223.982764 -46 
L 224.818932 -46 
L 225.655099 -46 
L 226.491267 -46 
L 227.327435 -46 
L 228.163602 -46 
L 228.99977 -46 
L 229.835938 -46 
L 230.672105 -46 
L 231.508273 -46 
L 232.34444 -46 
L 233.180608 -46 
L 234.016776 -46 
L 234.852943 -46 
L 235.689111 -46 
L 236.525279 -46 
L 237.361446 -46 
L 238.197614 -46 
L 239.033781 -46 
L 239.869949 -46 
L 240.706117 -46 
L 241.542284 -46 
L 242.378452 -46 
L 243.21462 -46 
L 244.050787 -46 
L 244.886955 -46 
L 245.723122 -46 
L 246.55929 -46 
L 247.395458 -46 
L 248.231625 -46 
L 249.067793 -46 
L 249.903961 -46 
L 250.740128 -46 
L 251.576296 -46 
L 252.412463 -46 
L 253.248631 -46 
L 254.084799 -46 
L 254.920966 -46 
L 255.757134 -46 
L 255.757134 -46.018496 
L 255.757134 -46.018496 
L 254.920966 -46.02372 
L 254.084799 -46.030232 
L 253.248631 -46.038292 
L 252.412463 -46.048202 
L 251.576296 -46.0603 
L 250.740128 -46.074969 
L 249.903961 -46.092629 
L 249.067793 -46.113741 
L 248.231625 -46.138801 
L 247.395458 -46.168335 
L 246.55929 -46.202892 
L 245.723122 -46.243031 
L 244.886955 -46.289312 
L 244.050787 -46.342278 
L 243.21462 -46.402441 
L 242.378452 -46.470256 
L 241.542284 -46.546107 
L 240.706117 -46.630278 
L 239.869949 -46.722935 
L 239.033781 -46.8241 
L 238.197614 -46.933634 
L 237.361446 -47.051212 
L 236.525279 -47.176316 
L 235.689111 -47.308221 
L 234.852943 -47.445988 
L 234.016776 -47.588475 
L 233.180608 -47.734338 
L 232.34444 -47.882055 
L 231.508273 -48.029954 
L 230.672105 -48.17624 
L 229.835938 -48.319045 
L 228.99977 -48.456474 
L 228.163602 -48.586657 
L 227.327435 -48.707811 
L 226.491267 -48.818296 
L 225.655099 -48.916677 
L 224.818932 -49.00178 
L 223.982764 -49.072747 
L 223.146597 -49.129076 
L 222.310429 -49.170662 
L 221.474261 -49.197822 
L 220.638094 -49.211307 
L 219.801926 -49.212304 
L 218.965758 -49.20242 
L 218.129591 -49.183658 
L 217.293423 -49.158373 
L 216.457256 -49.129219 
L 215.621088 -49.099089 
L 214.78492 -49.071036 
L 213.948753 -49.048193 
L 213.112585 -49.033693 
L 212.276418 -49.030577 
L 211.44025 -49.04171 
L 210.604082 -49.0697 
L 209.767915 -49.116821 
L 208.931747 -49.18495 
L 208.095579 -49.275512 
L 207.259412 -49.389438 
L 206.423244 -49.527149 
L 205.587077 -49.688542 
L 204.750909 -49.873008 
L 203.914741 -50.07946 
L 203.078574 -50.306386 
L 202.242406 -50.551909 
L 201.406238 -50.813875 
L 200.570071 -51.089946 
L 199.733903 -51.377706 
L 198.897736 -51.674769 
L 198.061568 -51.9789 
L 197.2254 -52.288123 
L 196.389233 -52.600832 
L 195.553065 -52.915885 
L 194.716897 -53.232685 
L 193.88073 -53.551245 
L 193.044562 -53.87223 
L 192.208395 -54.196969 
L 191.372227 -54.527447 
L 190.536059 -54.866266 
L 189.699892 -55.216581 
L 188.863724 -55.582003 
L 188.027556 -55.966487 
L 187.191389 -56.374195 
L 186.355221 -56.809336 
L 185.519054 -57.276003 
L 184.682886 -57.777997 
L 183.846718 -58.318653 
L 183.010551 -58.900661 
L 182.174383 -59.525914 
L 181.338216 -60.195355 
L 180.502048 -60.908857 
L 179.66588 -61.665121 
L 178.829713 -62.461617 
L 177.993545 -63.294545 
L 177.157377 -64.158848 
L 176.32121 -65.048254 
L 175.485042 -65.95536 
L 174.648875 -66.871764 
L 173.812707 -67.788223 
L 172.976539 -68.694852 
L 172.140372 -69.58135 
L 171.304204 -70.437254 
L 170.468036 -71.252206 
L 169.631869 -72.01623 
L 168.795701 -72.72001 
L 167.959534 -73.355157 
L 167.123366 -73.91446 
L 166.287198 -74.392105 
L 165.451031 -74.783863 
L 164.614863 -75.087231 
L 163.778695 -75.301521 
L 162.942528 -75.427899 
L 162.10636 -75.469367 
L 161.270193 -75.430686 
L 160.434025 -75.318246 
L 159.597857 -75.139889 
L 158.76169 -74.904686 
L 157.925522 -74.622679 
L 157.089354 -74.304597 
L 156.253187 -73.961561 
L 155.417019 -73.604774 
L 154.580852 -73.24523 
L 153.744684 -72.893423 
L 152.908516 -72.559095 
L 152.072349 -72.251 
L 151.236181 -71.976719 
L 150.400014 -71.742503 
L 149.563846 -71.553163 
L 148.727678 -71.412007 
L 147.891511 -71.320807 
L 147.055343 -71.279815 
L 146.219175 -71.287805 
L 145.383008 -71.342152 
L 144.54684 -71.438928 
L 143.710673 -71.573031 
L 142.874505 -71.738312 
L 142.038337 -71.927737 
L 141.20217 -72.133535 
L 140.366002 -72.347368 
L 139.529834 -72.560494 
L 138.693667 -72.763938 
L 137.857499 -72.948657 
L 137.021332 -73.105706 
L 136.185164 -73.226404 
L 135.348996 -73.302484 
L 134.512829 -73.326252 
L 133.676661 -73.290727 
L 132.840493 -73.189775 
L 132.004326 -73.018229 
L 131.168158 -72.771997 
L 130.331991 -72.448148 
L 129.495823 -72.044978 
L 128.659655 -71.562056 
L 127.823488 -71.000241 
L 126.98732 -70.361678 
L 126.151152 -69.649756 
L 125.314985 -68.869048 
L 124.478817 -68.025222 
L 123.64265 -67.124923 
L 122.806482 -66.175635 
L 121.970314 -65.185527 
L 121.134147 -64.163278 
L 120.297979 -63.117898 
L 119.461811 -62.058543 
L 118.625644 -60.994328 
L 117.789476 -59.934148 
L 116.953309 -58.886516 
L 116.117141 -57.859405 
L 115.280973 -56.860122 
L 114.444806 -55.895196 
L 113.608638 -54.970296 
L 112.772471 -54.090174 
L 111.936303 -53.258632 
L 111.100135 -52.478521 
L 110.263968 -51.751756 
L 109.4278 -51.079359 
L 108.591632 -50.461516 
L 107.755465 -49.897655 
L 106.919297 -49.386528 
L 106.08313 -48.926309 
L 105.246962 -48.514692 
L 104.410794 -48.148986 
L 103.574627 -47.826219 
L 102.738459 -47.543226 
L 101.902291 -47.296734 
L 101.066124 -47.083441 
L 100.229956 -46.900079 
L 99.393789 -46.743476 
L 98.557621 -46.610596 
L 97.721453 -46.498576 
L 96.885286 -46.404753 
L 96.049118 -46.326679 
L 95.21295 -46.262131 
L 94.376783 -46.209108 
L 93.540615 -46.165833 
L 92.704448 -46.130741 
L 91.86828 -46.102469 
L 91.032112 -46.079835 
L 90.195945 -46.061833 
L 89.359777 -46.047607 
z
" style="stroke: #fdb462; stroke-width: 0.8"/>
    </defs>
    <g clip-path="url(#paa18896146)">
     <use xlink:href="#m37cc2b7737" x="0" y="349.155" style="fill: #fdb462; fill-opacity: 0.25; stroke: #fdb462; stroke-width: 0.8"/>
    </g>
   </g>
   <g id="PolyCollection_3">
    <defs>
     <path id="m8c91aa39c7" d="M 92.001379 -46.204316 
L 92.001379 -46 
L 92.858941 -46 
L 93.716504 -46 
L 94.574066 -46 
L 95.431629 -46 
L 96.289191 -46 
L 97.146754 -46 
L 98.004316 -46 
L 98.861879 -46 
L 99.719441 -46 
L 100.577004 -46 
L 101.434566 -46 
L 102.292129 -46 
L 103.149691 -46 
L 104.007254 -46 
L 104.864816 -46 
L 105.722379 -46 
L 106.579941 -46 
L 107.437504 -46 
L 108.295066 -46 
L 109.152629 -46 
L 110.010191 -46 
L 110.867754 -46 
L 111.725316 -46 
L 112.582879 -46 
L 113.440441 -46 
L 114.298004 -46 
L 115.155566 -46 
L 116.013129 -46 
L 116.870691 -46 
L 117.728254 -46 
L 118.585816 -46 
L 119.443379 -46 
L 120.300941 -46 
L 121.158504 -46 
L 122.016066 -46 
L 122.873629 -46 
L 123.731191 -46 
L 124.588754 -46 
L 125.446316 -46 
L 126.303879 -46 
L 127.161441 -46 
L 128.019004 -46 
L 128.876566 -46 
L 129.734129 -46 
L 130.591691 -46 
L 131.449254 -46 
L 132.306816 -46 
L 133.164379 -46 
L 134.021941 -46 
L 134.879504 -46 
L 135.737066 -46 
L 136.594629 -46 
L 137.452191 -46 
L 138.309754 -46 
L 139.167316 -46 
L 140.024879 -46 
L 140.882441 -46 
L 141.740003 -46 
L 142.597566 -46 
L 143.455128 -46 
L 144.312691 -46 
L 145.170253 -46 
L 146.027816 -46 
L 146.885378 -46 
L 147.742941 -46 
L 148.600503 -46 
L 149.458066 -46 
L 150.315628 -46 
L 151.173191 -46 
L 152.030753 -46 
L 152.888316 -46 
L 153.745878 -46 
L 154.603441 -46 
L 155.461003 -46 
L 156.318566 -46 
L 157.176128 -46 
L 158.033691 -46 
L 158.891253 -46 
L 159.748816 -46 
L 160.606378 -46 
L 161.463941 -46 
L 162.321503 -46 
L 163.179066 -46 
L 164.036628 -46 
L 164.894191 -46 
L 165.751753 -46 
L 166.609316 -46 
L 167.466878 -46 
L 168.324441 -46 
L 169.182003 -46 
L 170.039566 -46 
L 170.897128 -46 
L 171.754691 -46 
L 172.612253 -46 
L 173.469816 -46 
L 174.327378 -46 
L 175.184941 -46 
L 176.042503 -46 
L 176.900066 -46 
L 177.757628 -46 
L 178.615191 -46 
L 179.472753 -46 
L 180.330316 -46 
L 181.187878 -46 
L 182.045441 -46 
L 182.903003 -46 
L 183.760566 -46 
L 184.618128 -46 
L 185.475691 -46 
L 186.333253 -46 
L 187.190816 -46 
L 188.048378 -46 
L 188.905941 -46 
L 189.763503 -46 
L 190.621066 -46 
L 191.478628 -46 
L 192.336191 -46 
L 193.193753 -46 
L 194.051316 -46 
L 194.908878 -46 
L 195.766441 -46 
L 196.624003 -46 
L 197.481566 -46 
L 198.339128 -46 
L 199.196691 -46 
L 200.054253 -46 
L 200.911816 -46 
L 201.769378 -46 
L 202.626941 -46 
L 203.484503 -46 
L 204.342066 -46 
L 205.199628 -46 
L 206.057191 -46 
L 206.914753 -46 
L 207.772316 -46 
L 208.629878 -46 
L 209.487441 -46 
L 210.345003 -46 
L 211.202566 -46 
L 212.060128 -46 
L 212.917691 -46 
L 213.775253 -46 
L 214.632815 -46 
L 215.490378 -46 
L 216.34794 -46 
L 217.205503 -46 
L 218.063065 -46 
L 218.920628 -46 
L 219.77819 -46 
L 220.635753 -46 
L 221.493315 -46 
L 222.350878 -46 
L 223.20844 -46 
L 224.066003 -46 
L 224.923565 -46 
L 225.781128 -46 
L 226.63869 -46 
L 227.496253 -46 
L 228.353815 -46 
L 229.211378 -46 
L 230.06894 -46 
L 230.926503 -46 
L 231.784065 -46 
L 232.641628 -46 
L 233.49919 -46 
L 234.356753 -46 
L 235.214315 -46 
L 236.071878 -46 
L 236.92944 -46 
L 237.787003 -46 
L 238.644565 -46 
L 239.502128 -46 
L 240.35969 -46 
L 241.217253 -46 
L 242.074815 -46 
L 242.932378 -46 
L 243.78994 -46 
L 244.647503 -46 
L 245.505065 -46 
L 246.362628 -46 
L 247.22019 -46 
L 248.077753 -46 
L 248.935315 -46 
L 249.792878 -46 
L 250.65044 -46 
L 251.508003 -46 
L 252.365565 -46 
L 253.223128 -46 
L 254.08069 -46 
L 254.938253 -46 
L 255.795815 -46 
L 256.653378 -46 
L 257.51094 -46 
L 258.368503 -46 
L 259.226065 -46 
L 260.083628 -46 
L 260.94119 -46 
L 261.798753 -46 
L 262.656315 -46 
L 262.656315 -46.019401 
L 262.656315 -46.019401 
L 261.798753 -46.025831 
L 260.94119 -46.034149 
L 260.083628 -46.044833 
L 259.226065 -46.058453 
L 258.368503 -46.075688 
L 257.51094 -46.097338 
L 256.653378 -46.124335 
L 255.795815 -46.157754 
L 254.938253 -46.198823 
L 254.08069 -46.248929 
L 253.223128 -46.309619 
L 252.365565 -46.382598 
L 251.508003 -46.469726 
L 250.65044 -46.572996 
L 249.792878 -46.694518 
L 248.935315 -46.836489 
L 248.077753 -47.001148 
L 247.22019 -47.190736 
L 246.362628 -47.407429 
L 245.505065 -47.653278 
L 244.647503 -47.930132 
L 243.78994 -48.239551 
L 242.932378 -48.582724 
L 242.074815 -48.960375 
L 241.217253 -49.372676 
L 240.35969 -49.819157 
L 239.502128 -50.298632 
L 238.644565 -50.80913 
L 237.787003 -51.347845 
L 236.92944 -51.911114 
L 236.071878 -52.494409 
L 235.214315 -53.092366 
L 234.356753 -53.698846 
L 233.49919 -54.307028 
L 232.641628 -54.909535 
L 231.784065 -55.498602 
L 230.926503 -56.06626 
L 230.06894 -56.604562 
L 229.211378 -57.10582 
L 228.353815 -57.562857 
L 227.496253 -57.969263 
L 226.63869 -58.319644 
L 225.781128 -58.60986 
L 224.923565 -58.83723 
L 224.066003 -59.000704 
L 223.20844 -59.100995 
L 222.350878 -59.140653 
L 221.493315 -59.124088 
L 220.635753 -59.057527 
L 219.77819 -58.94892 
L 218.920628 -58.807778 
L 218.063065 -58.644959 
L 217.205503 -58.472405 
L 216.34794 -58.302826 
L 215.490378 -58.149364 
L 214.632815 -58.025219 
L 213.775253 -57.94326 
L 212.917691 -57.915634 
L 212.060128 -57.953382 
L 211.202566 -58.066065 
L 210.345003 -58.26142 
L 209.487441 -58.54506 
L 208.629878 -58.920216 
L 207.772316 -59.387545 
L 206.914753 -59.945007 
L 206.057191 -60.587824 
L 205.199628 -61.308523 
L 204.342066 -62.09708 
L 203.484503 -62.941156 
L 202.626941 -63.826434 
L 201.769378 -64.737047 
L 200.911816 -65.656091 
L 200.054253 -66.566215 
L 199.196691 -67.450259 
L 198.339128 -68.291932 
L 197.481566 -69.076483 
L 196.624003 -69.791372 
L 195.766441 -70.426867 
L 194.908878 -70.976576 
L 194.051316 -71.437868 
L 193.193753 -71.812155 
L 192.336191 -72.105037 
L 191.478628 -72.326267 
L 190.621066 -72.489569 
L 189.763503 -72.61227 
L 188.905941 -72.714795 
L 188.048378 -72.820012 
L 187.190816 -72.952477 
L 186.333253 -73.137585 
L 185.475691 -73.400678 
L 184.618128 -73.766137 
L 183.760566 -74.256493 
L 182.903003 -74.891593 
L 182.045441 -75.687857 
L 181.187878 -76.657637 
L 180.330316 -77.808726 
L 179.472753 -79.144011 
L 178.615191 -80.661296 
L 177.757628 -82.353293 
L 176.900066 -84.20779 
L 176.042503 -86.207978 
L 175.184941 -88.332936 
L 174.327378 -90.558249 
L 173.469816 -92.85675 
L 172.612253 -95.199346 
L 171.754691 -97.555901 
L 170.897128 -99.89616 
L 170.039566 -102.190653 
L 169.182003 -104.411565 
L 168.324441 -106.533532 
L 167.466878 -108.534326 
L 166.609316 -110.395411 
L 165.751753 -112.102339 
L 164.894191 -113.644983 
L 164.036628 -115.017593 
L 163.179066 -116.218682 
L 162.321503 -117.250754 
L 161.463941 -118.119901 
L 160.606378 -118.835288 
L 159.748816 -119.40857 
L 158.891253 -119.853274 
L 158.033691 -120.184179 
L 157.176128 -120.416745 
L 156.318566 -120.566598 
L 155.461003 -120.649115 
L 154.603441 -120.67911 
L 153.745878 -120.670631 
L 152.888316 -120.636856 
L 152.030753 -120.590084 
L 151.173191 -120.541786 
L 150.315628 -120.502688 
L 149.458066 -120.482876 
L 148.600503 -120.491862 
L 147.742941 -120.538611 
L 146.885378 -120.631492 
L 146.027816 -120.778142 
L 145.170253 -120.985245 
L 144.312691 -121.258224 
L 143.455128 -121.600862 
L 142.597566 -122.014873 
L 141.740003 -122.499454 
L 140.882441 -123.050849 
L 140.024879 -123.661966 
L 139.167316 -124.322073 
L 138.309754 -125.016612 
L 137.452191 -125.727162 
L 136.594629 -126.431563 
L 135.737066 -127.104216 
L 134.879504 -127.716571 
L 134.021941 -128.237785 
L 133.164379 -128.635536 
L 132.306816 -128.876973 
L 131.449254 -128.929759 
L 130.591691 -128.763177 
L 129.734129 -128.349239 
L 128.876566 -127.663762 
L 128.019004 -126.687356 
L 127.161441 -125.406275 
L 126.303879 -123.813096 
L 125.446316 -121.907183 
L 124.588754 -119.694918 
L 123.731191 -117.189678 
L 122.873629 -114.411559 
L 122.016066 -111.386857 
L 121.158504 -108.147319 
L 120.300941 -104.729218 
L 119.443379 -101.172259 
L 118.585816 -97.518403 
L 117.728254 -93.810632 
L 116.870691 -90.091716 
L 116.013129 -86.403049 
L 115.155566 -82.783572 
L 114.298004 -79.268851 
L 113.440441 -75.890317 
L 112.582879 -72.674705 
L 111.725316 -69.643694 
L 110.867754 -66.813745 
L 110.010191 -64.196133 
L 109.152629 -61.797148 
L 108.295066 -59.618445 
L 107.437504 -57.657511 
L 106.579941 -55.908212 
L 105.722379 -54.361399 
L 104.864816 -53.005531 
L 104.007254 -51.827295 
L 103.149691 -50.812195 
L 102.292129 -49.945091 
L 101.434566 -49.210677 
L 100.577004 -48.593886 
L 99.719441 -48.080222 
L 98.861879 -47.656011 
L 98.004316 -47.308586 
L 97.146754 -47.026404 
L 96.289191 -46.799103 
L 95.431629 -46.617517 
L 94.574066 -46.47364 
L 93.716504 -46.360575 
L 92.858941 -46.272447 
L 92.001379 -46.204316 
z
" style="stroke: #b3de69; stroke-width: 0.8"/>
    </defs>
    <g clip-path="url(#paa18896146)">
     <use xlink:href="#m8c91aa39c7" x="0" y="349.155" style="fill: #b3de69; fill-opacity: 0.25; stroke: #b3de69; stroke-width: 0.8"/>
    </g>
   </g>
   <g id="PolyCollection_4">
    <defs>
     <path id="mcf29dcb174" d="M 91.626603 -46.120498 
L 91.626603 -46 
L 92.707909 -46 
L 93.789215 -46 
L 94.870521 -46 
L 95.951826 -46 
L 97.033132 -46 
L 98.114438 -46 
L 99.195744 -46 
L 100.277049 -46 
L 101.358355 -46 
L 102.439661 -46 
L 103.520967 -46 
L 104.602272 -46 
L 105.683578 -46 
L 106.764884 -46 
L 107.84619 -46 
L 108.927495 -46 
L 110.008801 -46 
L 111.090107 -46 
L 112.171413 -46 
L 113.252718 -46 
L 114.334024 -46 
L 115.41533 -46 
L 116.496636 -46 
L 117.577941 -46 
L 118.659247 -46 
L 119.740553 -46 
L 120.821859 -46 
L 121.903164 -46 
L 122.98447 -46 
L 124.065776 -46 
L 125.147082 -46 
L 126.228387 -46 
L 127.309693 -46 
L 128.390999 -46 
L 129.472305 -46 
L 130.55361 -46 
L 131.634916 -46 
L 132.716222 -46 
L 133.797528 -46 
L 134.878833 -46 
L 135.960139 -46 
L 137.041445 -46 
L 138.122751 -46 
L 139.204056 -46 
L 140.285362 -46 
L 141.366668 -46 
L 142.447974 -46 
L 143.529279 -46 
L 144.610585 -46 
L 145.691891 -46 
L 146.773197 -46 
L 147.854502 -46 
L 148.935808 -46 
L 150.017114 -46 
L 151.09842 -46 
L 152.179726 -46 
L 153.261031 -46 
L 154.342337 -46 
L 155.423643 -46 
L 156.504949 -46 
L 157.586254 -46 
L 158.66756 -46 
L 159.748866 -46 
L 160.830172 -46 
L 161.911477 -46 
L 162.992783 -46 
L 164.074089 -46 
L 165.155395 -46 
L 166.2367 -46 
L 167.318006 -46 
L 168.399312 -46 
L 169.480618 -46 
L 170.561923 -46 
L 171.643229 -46 
L 172.724535 -46 
L 173.805841 -46 
L 174.887146 -46 
L 175.968452 -46 
L 177.049758 -46 
L 178.131064 -46 
L 179.212369 -46 
L 180.293675 -46 
L 181.374981 -46 
L 182.456287 -46 
L 183.537592 -46 
L 184.618898 -46 
L 185.700204 -46 
L 186.78151 -46 
L 187.862815 -46 
L 188.944121 -46 
L 190.025427 -46 
L 191.106733 -46 
L 192.188038 -46 
L 193.269344 -46 
L 194.35065 -46 
L 195.431956 -46 
L 196.513261 -46 
L 197.594567 -46 
L 198.675873 -46 
L 199.757179 -46 
L 200.838484 -46 
L 201.91979 -46 
L 203.001096 -46 
L 204.082402 -46 
L 205.163707 -46 
L 206.245013 -46 
L 207.326319 -46 
L 208.407625 -46 
L 209.48893 -46 
L 210.570236 -46 
L 211.651542 -46 
L 212.732848 -46 
L 213.814153 -46 
L 214.895459 -46 
L 215.976765 -46 
L 217.058071 -46 
L 218.139376 -46 
L 219.220682 -46 
L 220.301988 -46 
L 221.383294 -46 
L 222.464599 -46 
L 223.545905 -46 
L 224.627211 -46 
L 225.708517 -46 
L 226.789822 -46 
L 227.871128 -46 
L 228.952434 -46 
L 230.03374 -46 
L 231.115045 -46 
L 232.196351 -46 
L 233.277657 -46 
L 234.358963 -46 
L 235.440268 -46 
L 236.521574 -46 
L 237.60288 -46 
L 238.684186 -46 
L 239.765491 -46 
L 240.846797 -46 
L 241.928103 -46 
L 243.009409 -46 
L 244.090714 -46 
L 245.17202 -46 
L 246.253326 -46 
L 247.334632 -46 
L 248.415937 -46 
L 249.497243 -46 
L 250.578549 -46 
L 251.659855 -46 
L 252.74116 -46 
L 253.822466 -46 
L 254.903772 -46 
L 255.985078 -46 
L 257.066383 -46 
L 258.147689 -46 
L 259.228995 -46 
L 260.310301 -46 
L 261.391606 -46 
L 262.472912 -46 
L 263.554218 -46 
L 264.635524 -46 
L 265.716829 -46 
L 266.798135 -46 
L 267.879441 -46 
L 268.960747 -46 
L 270.042052 -46 
L 271.123358 -46 
L 272.204664 -46 
L 273.28597 -46 
L 274.367275 -46 
L 275.448581 -46 
L 276.529887 -46 
L 277.611193 -46 
L 278.692498 -46 
L 279.773804 -46 
L 280.85511 -46 
L 281.936416 -46 
L 283.017722 -46 
L 284.099027 -46 
L 285.180333 -46 
L 286.261639 -46 
L 287.342945 -46 
L 288.42425 -46 
L 289.505556 -46 
L 290.586862 -46 
L 291.668168 -46 
L 292.749473 -46 
L 293.830779 -46 
L 294.912085 -46 
L 295.993391 -46 
L 297.074696 -46 
L 298.156002 -46 
L 299.237308 -46 
L 300.318614 -46 
L 301.399919 -46 
L 302.481225 -46 
L 303.562531 -46 
L 304.643837 -46 
L 305.725142 -46 
L 306.806448 -46 
L 306.806448 -46.01295 
L 306.806448 -46.01295 
L 305.725142 -46.018232 
L 304.643837 -46.025325 
L 303.562531 -46.034703 
L 302.481225 -46.046916 
L 301.399919 -46.062574 
L 300.318614 -46.082338 
L 299.237308 -46.10689 
L 298.156002 -46.136898 
L 297.074696 -46.172976 
L 295.993391 -46.215626 
L 294.912085 -46.265182 
L 293.830779 -46.321748 
L 292.749473 -46.385135 
L 291.668168 -46.454819 
L 290.586862 -46.529898 
L 289.505556 -46.609077 
L 288.42425 -46.690685 
L 287.342945 -46.772709 
L 286.261639 -46.852863 
L 285.180333 -46.928689 
L 284.099027 -46.997676 
L 283.017722 -47.057395 
L 281.936416 -47.105642 
L 280.85511 -47.140572 
L 279.773804 -47.160818 
L 278.692498 -47.165581 
L 277.611193 -47.154687 
L 276.529887 -47.1286 
L 275.448581 -47.088398 
L 274.367275 -47.035708 
L 273.28597 -46.972608 
L 272.204664 -46.901515 
L 271.123358 -46.825053 
L 270.042052 -46.745926 
L 268.960747 -46.666808 
L 267.879441 -46.590246 
L 266.798135 -46.518602 
L 265.716829 -46.454018 
L 264.635524 -46.398419 
L 263.554218 -46.35354 
L 262.472912 -46.320984 
L 261.391606 -46.302287 
L 260.310301 -46.299 
L 259.228995 -46.312762 
L 258.147689 -46.345373 
L 257.066383 -46.398845 
L 255.985078 -46.475441 
L 254.903772 -46.577688 
L 253.822466 -46.708371 
L 252.74116 -46.870508 
L 251.659855 -47.067303 
L 250.578549 -47.302095 
L 249.497243 -47.578284 
L 248.415937 -47.899257 
L 247.334632 -48.2683 
L 246.253326 -48.688505 
L 245.17202 -49.162648 
L 244.090714 -49.693057 
L 243.009409 -50.28144 
L 241.928103 -50.928686 
L 240.846797 -51.634618 
L 239.765491 -52.397718 
L 238.684186 -53.214831 
L 237.60288 -54.080862 
L 236.521574 -54.988512 
L 235.440268 -55.928068 
L 234.358963 -56.887319 
L 233.277657 -57.851612 
L 232.196351 -58.804102 
L 231.115045 -59.726215 
L 230.03374 -60.598322 
L 228.952434 -61.400625 
L 227.871128 -62.114195 
L 226.789822 -62.722117 
L 225.708517 -63.210646 
L 224.627211 -63.570299 
L 223.545905 -63.796776 
L 222.464599 -63.891629 
L 221.383294 -63.862613 
L 220.301988 -63.72368 
L 219.220682 -63.494588 
L 218.139376 -63.200164 
L 217.058071 -62.86925 
L 215.976765 -62.533419 
L 214.895459 -62.225533 
L 213.814153 -61.978244 
L 212.732848 -61.822525 
L 211.651542 -61.786323 
L 210.570236 -61.893382 
L 209.48893 -62.162307 
L 208.407625 -62.605903 
L 207.326319 -63.230794 
L 206.245013 -64.037357 
L 205.163707 -65.019952 
L 204.082402 -66.167455 
L 203.001096 -67.464066 
L 201.91979 -68.890374 
L 200.838484 -70.424634 
L 199.757179 -72.044192 
L 198.675873 -73.727006 
L 197.594567 -75.453139 
L 196.513261 -77.206143 
L 195.431956 -78.974226 
L 194.35065 -80.751083 
L 193.269344 -82.536318 
L 192.188038 -84.335398 
L 191.106733 -86.159116 
L 190.025427 -88.02258 
L 188.944121 -89.9438 
L 187.862815 -91.941972 
L 186.78151 -94.035579 
L 185.700204 -96.240465 
L 184.618898 -98.568009 
L 183.537592 -101.023542 
L 182.456287 -103.605116 
L 181.374981 -106.302687 
L 180.293675 -109.097782 
L 179.212369 -111.963655 
L 178.131064 -114.865932 
L 177.049758 -117.763722 
L 175.968452 -120.611157 
L 174.887146 -123.359299 
L 173.805841 -125.958363 
L 172.724535 -128.360147 
L 171.643229 -130.520595 
L 170.561923 -132.402323 
L 169.480618 -133.97699 
L 168.399312 -135.227314 
L 167.318006 -136.148577 
L 166.2367 -136.749448 
L 165.155395 -137.051994 
L 164.074089 -137.090814 
L 162.992783 -136.911295 
L 161.911477 -136.567084 
L 160.830172 -136.116944 
L 159.748866 -135.621263 
L 158.66756 -135.138488 
L 157.586254 -134.721849 
L 156.504949 -134.41664 
L 155.423643 -134.258315 
L 154.342337 -134.271565 
L 153.261031 -134.470397 
L 152.179726 -134.859135 
L 151.09842 -135.434168 
L 150.017114 -136.186124 
L 148.935808 -137.102171 
L 147.854502 -138.168064 
L 146.773197 -139.369658 
L 145.691891 -140.693637 
L 144.610585 -142.127356 
L 143.529279 -143.657802 
L 142.447974 -145.269808 
L 141.366668 -146.943775 
L 140.285362 -148.653235 
L 139.204056 -150.362627 
L 138.122751 -152.025658 
L 137.041445 -153.584576 
L 135.960139 -154.970588 
L 134.878833 -156.105551 
L 133.797528 -156.904916 
L 132.716222 -157.281772 
L 131.634916 -157.151727 
L 130.55361 -156.438241 
L 129.472305 -155.077971 
L 128.390999 -153.025672 
L 127.309693 -150.258216 
L 126.228387 -146.777353 
L 125.147082 -142.610955 
L 124.065776 -137.812604 
L 122.98447 -132.459539 
L 121.903164 -126.649099 
L 120.821859 -120.493963 
L 119.740553 -114.116539 
L 118.659247 -107.642941 
L 117.577941 -101.197018 
L 116.496636 -94.894829 
L 115.41533 -88.839943 
L 114.334024 -83.119823 
L 113.252718 -77.803443 
L 112.171413 -72.940187 
L 111.090107 -68.559954 
L 110.008801 -64.674334 
L 108.927495 -61.278618 
L 107.84619 -58.354405 
L 106.764884 -55.872535 
L 105.683578 -53.796109 
L 104.602272 -52.08339 
L 103.520967 -50.690405 
L 102.439661 -49.57316 
L 101.358355 -48.689393 
L 100.277049 -47.999861 
L 99.195744 -47.469177 
L 98.114438 -47.066262 
L 97.033132 -46.764463 
L 95.951826 -46.541428 
L 94.870521 -46.378796 
L 93.789215 -46.261782 
L 92.707909 -46.178704 
L 91.626603 -46.120498 
z
" style="stroke: #fb8072; stroke-width: 0.8"/>
    </defs>
    <g clip-path="url(#paa18896146)">
     <use xlink:href="#mcf29dcb174" x="0" y="349.155" style="fill: #fb8072; fill-opacity: 0.25; stroke: #fb8072; stroke-width: 0.8"/>
    </g>
   </g>
   <g id="PolyCollection_5">
    <defs>
     <path id="m74bddee8d7" d="M 96.823125 -46.297037 
L 96.823125 -46 
L 97.764778 -46 
L 98.70643 -46 
L 99.648083 -46 
L 100.589736 -46 
L 101.531389 -46 
L 102.473042 -46 
L 103.414694 -46 
L 104.356347 -46 
L 105.298 -46 
L 106.239653 -46 
L 107.181305 -46 
L 108.122958 -46 
L 109.064611 -46 
L 110.006264 -46 
L 110.947917 -46 
L 111.889569 -46 
L 112.831222 -46 
L 113.772875 -46 
L 114.714528 -46 
L 115.65618 -46 
L 116.597833 -46 
L 117.539486 -46 
L 118.481139 -46 
L 119.422792 -46 
L 120.364444 -46 
L 121.306097 -46 
L 122.24775 -46 
L 123.189403 -46 
L 124.131056 -46 
L 125.072708 -46 
L 126.014361 -46 
L 126.956014 -46 
L 127.897667 -46 
L 128.839319 -46 
L 129.780972 -46 
L 130.722625 -46 
L 131.664278 -46 
L 132.605931 -46 
L 133.547583 -46 
L 134.489236 -46 
L 135.430889 -46 
L 136.372542 -46 
L 137.314194 -46 
L 138.255847 -46 
L 139.1975 -46 
L 140.139153 -46 
L 141.080806 -46 
L 142.022458 -46 
L 142.964111 -46 
L 143.905764 -46 
L 144.847417 -46 
L 145.789069 -46 
L 146.730722 -46 
L 147.672375 -46 
L 148.614028 -46 
L 149.555681 -46 
L 150.497333 -46 
L 151.438986 -46 
L 152.380639 -46 
L 153.322292 -46 
L 154.263944 -46 
L 155.205597 -46 
L 156.14725 -46 
L 157.088903 -46 
L 158.030556 -46 
L 158.972208 -46 
L 159.913861 -46 
L 160.855514 -46 
L 161.797167 -46 
L 162.738819 -46 
L 163.680472 -46 
L 164.622125 -46 
L 165.563778 -46 
L 166.505431 -46 
L 167.447083 -46 
L 168.388736 -46 
L 169.330389 -46 
L 170.272042 -46 
L 171.213694 -46 
L 172.155347 -46 
L 173.097 -46 
L 174.038653 -46 
L 174.980306 -46 
L 175.921958 -46 
L 176.863611 -46 
L 177.805264 -46 
L 178.746917 -46 
L 179.68857 -46 
L 180.630222 -46 
L 181.571875 -46 
L 182.513528 -46 
L 183.455181 -46 
L 184.396833 -46 
L 185.338486 -46 
L 186.280139 -46 
L 187.221792 -46 
L 188.163445 -46 
L 189.105097 -46 
L 190.04675 -46 
L 190.988403 -46 
L 191.930056 -46 
L 192.871708 -46 
L 193.813361 -46 
L 194.755014 -46 
L 195.696667 -46 
L 196.63832 -46 
L 197.579972 -46 
L 198.521625 -46 
L 199.463278 -46 
L 200.404931 -46 
L 201.346583 -46 
L 202.288236 -46 
L 203.229889 -46 
L 204.171542 -46 
L 205.113195 -46 
L 206.054847 -46 
L 206.9965 -46 
L 207.938153 -46 
L 208.879806 -46 
L 209.821458 -46 
L 210.763111 -46 
L 211.704764 -46 
L 212.646417 -46 
L 213.58807 -46 
L 214.529722 -46 
L 215.471375 -46 
L 216.413028 -46 
L 217.354681 -46 
L 218.296333 -46 
L 219.237986 -46 
L 220.179639 -46 
L 221.121292 -46 
L 222.062945 -46 
L 223.004597 -46 
L 223.94625 -46 
L 224.887903 -46 
L 225.829556 -46 
L 226.771209 -46 
L 227.712861 -46 
L 228.654514 -46 
L 229.596167 -46 
L 230.53782 -46 
L 231.479472 -46 
L 232.421125 -46 
L 233.362778 -46 
L 234.304431 -46 
L 235.246084 -46 
L 236.187736 -46 
L 237.129389 -46 
L 238.071042 -46 
L 239.012695 -46 
L 239.954347 -46 
L 240.896 -46 
L 241.837653 -46 
L 242.779306 -46 
L 243.720959 -46 
L 244.662611 -46 
L 245.604264 -46 
L 246.545917 -46 
L 247.48757 -46 
L 248.429222 -46 
L 249.370875 -46 
L 250.312528 -46 
L 251.254181 -46 
L 252.195834 -46 
L 253.137486 -46 
L 254.079139 -46 
L 255.020792 -46 
L 255.962445 -46 
L 256.904097 -46 
L 257.84575 -46 
L 258.787403 -46 
L 259.729056 -46 
L 260.670709 -46 
L 261.612361 -46 
L 262.554014 -46 
L 263.495667 -46 
L 264.43732 -46 
L 265.378972 -46 
L 266.320625 -46 
L 267.262278 -46 
L 268.203931 -46 
L 269.145584 -46 
L 270.087236 -46 
L 271.028889 -46 
L 271.970542 -46 
L 272.912195 -46 
L 273.853847 -46 
L 274.7955 -46 
L 275.737153 -46 
L 276.678806 -46 
L 277.620459 -46 
L 278.562111 -46 
L 279.503764 -46 
L 280.445417 -46 
L 281.38707 -46 
L 282.328723 -46 
L 283.270375 -46 
L 284.212028 -46 
L 284.212028 -46.015167 
L 284.212028 -46.015167 
L 283.270375 -46.021496 
L 282.328723 -46.030042 
L 281.38707 -46.041399 
L 280.445417 -46.056255 
L 279.503764 -46.075376 
L 278.562111 -46.09959 
L 277.620459 -46.129752 
L 276.678806 -46.166701 
L 275.737153 -46.2112 
L 274.7955 -46.263873 
L 273.853847 -46.325133 
L 272.912195 -46.395107 
L 271.970542 -46.47357 
L 271.028889 -46.559903 
L 270.087236 -46.653059 
L 269.145584 -46.751578 
L 268.203931 -46.853633 
L 267.262278 -46.957119 
L 266.320625 -47.059789 
L 265.378972 -47.159416 
L 264.43732 -47.253998 
L 263.495667 -47.341956 
L 262.554014 -47.422339 
L 261.612361 -47.49499 
L 260.670709 -47.560676 
L 259.729056 -47.621138 
L 258.787403 -47.679074 
L 257.84575 -47.738024 
L 256.904097 -47.802175 
L 255.962445 -47.876096 
L 255.020792 -47.964401 
L 254.079139 -48.071404 
L 253.137486 -48.200761 
L 252.195834 -48.355163 
L 251.254181 -48.536101 
L 250.312528 -48.743742 
L 249.370875 -48.976935 
L 248.429222 -49.23336 
L 247.48757 -49.509819 
L 246.545917 -49.802656 
L 245.604264 -50.108255 
L 244.662611 -50.423594 
L 243.720959 -50.746774 
L 242.779306 -51.077481 
L 241.837653 -51.417296 
L 240.896 -51.769826 
L 239.954347 -52.140598 
L 239.012695 -52.536697 
L 238.071042 -52.966176 
L 237.129389 -53.437239 
L 236.187736 -53.957285 
L 235.246084 -54.531873 
L 234.304431 -55.163716 
L 233.362778 -55.851802 
L 232.421125 -56.590743 
L 231.479472 -57.370447 
L 230.53782 -58.176162 
L 229.596167 -58.988942 
L 228.654514 -59.78652 
L 227.712861 -60.544542 
L 226.771209 -61.238092 
L 225.829556 -61.843383 
L 224.887903 -62.33948 
L 223.94625 -62.709917 
L 223.004597 -62.944061 
L 222.062945 -63.038104 
L 221.121292 -62.995597 
L 220.179639 -62.827472 
L 219.237986 -62.551556 
L 218.296333 -62.19162 
L 217.354681 -61.776042 
L 216.413028 -61.336202 
L 215.471375 -60.904746 
L 214.529722 -60.513834 
L 213.58807 -60.193512 
L 212.646417 -59.970295 
L 211.704764 -59.866027 
L 210.763111 -59.897068 
L 209.821458 -60.073784 
L 208.879806 -60.400348 
L 207.938153 -60.874799 
L 206.9965 -61.489324 
L 206.054847 -62.230725 
L 205.113195 -63.081052 
L 204.171542 -64.018385 
L 203.229889 -65.017776 
L 202.288236 -66.052361 
L 201.346583 -67.09464 
L 200.404931 -68.117949 
L 199.463278 -69.098065 
L 198.521625 -70.014927 
L 197.579972 -70.854345 
L 196.63832 -71.609616 
L 195.696667 -72.282872 
L 194.755014 -72.886037 
L 193.813361 -73.441226 
L 192.871708 -73.980496 
L 191.930056 -74.54487 
L 190.988403 -75.182621 
L 190.04675 -75.946898 
L 189.105097 -76.8928 
L 188.163445 -78.074093 
L 187.221792 -79.53979 
L 186.280139 -81.330836 
L 185.338486 -83.477136 
L 184.396833 -85.995139 
L 183.455181 -88.886125 
L 182.513528 -92.135317 
L 181.571875 -95.711838 
L 180.630222 -99.569509 
L 179.68857 -103.648398 
L 178.746917 -107.877026 
L 177.805264 -112.175106 
L 176.863611 -116.45666 
L 175.921958 -120.633413 
L 174.980306 -124.618321 
L 174.038653 -128.32914 
L 173.097 -131.691921 
L 172.155347 -134.644331 
L 171.213694 -137.138666 
L 170.272042 -139.144446 
L 169.330389 -140.65042 
L 168.388736 -141.665842 
L 167.447083 -142.220864 
L 166.505431 -142.365924 
L 165.563778 -142.170059 
L 164.622125 -141.718139 
L 163.680472 -141.107107 
L 162.738819 -140.441401 
L 161.797167 -139.82784 
L 160.855514 -139.370309 
L 159.913861 -139.164659 
L 158.972208 -139.294214 
L 158.030556 -139.826287 
L 157.088903 -140.809989 
L 156.14725 -142.275546 
L 155.205597 -144.235155 
L 154.263944 -146.685282 
L 153.322292 -149.61015 
L 152.380639 -152.986025 
L 151.438986 -156.785846 
L 150.497333 -160.983667 
L 149.555681 -165.558436 
L 148.614028 -170.496678 
L 147.672375 -175.793778 
L 146.730722 -181.453684 
L 145.789069 -187.487012 
L 144.847417 -193.907692 
L 143.905764 -200.728394 
L 142.964111 -207.955085 
L 142.022458 -215.581142 
L 141.080806 -223.581451 
L 140.139153 -231.906955 
L 139.1975 -240.480097 
L 138.255847 -249.19156 
L 137.314194 -257.89871 
L 136.372542 -266.426052 
L 135.430889 -274.567959 
L 134.489236 -282.093837 
L 133.547583 -288.755718 
L 132.605931 -294.298125 
L 131.664278 -298.469829 
L 130.722625 -301.036908 
L 129.780972 -301.796323 
L 128.839319 -300.589039 
L 127.897667 -297.311674 
L 126.956014 -291.925643 
L 126.014361 -284.462915 
L 125.072708 -275.027698 
L 124.131056 -263.793752 
L 123.189403 -250.997328 
L 122.24775 -236.926215 
L 121.306097 -221.905641 
L 120.364444 -206.282141 
L 119.422792 -190.406595 
L 118.481139 -174.617738 
L 117.539486 -159.227315 
L 116.597833 -144.507849 
L 115.65618 -130.683724 
L 114.714528 -117.925913 
L 113.772875 -106.350368 
L 112.831222 -96.019764 
L 111.889569 -86.948058 
L 110.947917 -79.107158 
L 110.006264 -72.434925 
L 109.064611 -66.843747 
L 108.122958 -62.229005 
L 107.181305 -58.476873 
L 106.239653 -55.47107 
L 105.298 -53.098318 
L 104.356347 -51.25243 
L 103.414694 -49.837076 
L 102.473042 -48.76735 
L 101.531389 -47.970339 
L 100.589736 -47.384908 
L 99.648083 -46.960939 
L 98.70643 -46.658199 
L 97.764778 -46.445039 
L 96.823125 -46.297037 
z
" style="stroke: #bc80bd; stroke-width: 0.8"/>
    </defs>
    <g clip-path="url(#paa18896146)">
     <use xlink:href="#m74bddee8d7" x="0" y="349.155" style="fill: #bc80bd; fill-opacity: 0.25; stroke: #bc80bd; stroke-width: 0.8"/>
    </g>
   </g>
   <g id="matplotlib.axis_1">
    <g id="xtick_1">
     <g id="line2d_1">
      <defs>
       <path id="m4f79580186" d="M 0 0 
L 0 3.5 
" style="stroke: #323034; stroke-width: 0.8"/>
      </defs>
      <g>
       <use xlink:href="#m4f79580186" x="51.615" y="303.155" style="fill: #323034; stroke: #323034; stroke-width: 0.8"/>
      </g>
     </g>
     <g id="text_1">
      <!-- $\mathdefault{−1}$ -->
      <g style="fill: #323034" transform="translate(42.095 321.0825)scale(0.16 -0.16)">
       <defs>
        <path id="STIXGeneral-Regular-2212" d="M 3974 1408 
L 410 1408 
L 410 1830 
L 3974 1830 
L 3974 1408 
z
" transform="scale(0.015625)"/>
        <path id="STIXGeneral-Regular-31" d="M 2522 0 
L 755 0 
L 755 96 
Q 1107 115 1235 227 
Q 1363 339 1363 608 
L 1363 3482 
Q 1363 3795 1171 3795 
Q 1082 3795 883 3718 
L 710 3654 
L 710 3744 
L 1856 4326 
L 1914 4307 
L 1914 486 
Q 1914 275 2042 185 
Q 2170 96 2522 96 
L 2522 0 
z
" transform="scale(0.015625)"/>
       </defs>
       <use xlink:href="#STIXGeneral-Regular-2212" transform="translate(0 0.40625)"/>
       <use xlink:href="#STIXGeneral-Regular-31" transform="translate(68.499985 0.40625)"/>
      </g>
     </g>
    </g>
    <g id="xtick_2">
     <g id="line2d_2">
      <g>
       <use xlink:href="#m4f79580186" x="107.737253" y="303.155" style="fill: #323034; stroke: #323034; stroke-width: 0.8"/>
      </g>
     </g>
     <g id="text_2">
      <!-- $\mathdefault{0}$ -->
      <g style="fill: #323034" transform="translate(103.737253 321.0825)scale(0.16 -0.16)">
       <defs>
        <path id="STIXGeneral-Regular-30" d="M 3046 2112 
Q 3046 1683 2963 1302 
Q 2880 922 2717 602 
Q 2554 282 2266 96 
Q 1978 -90 1600 -90 
Q 1210 -90 915 108 
Q 621 307 461 640 
Q 301 973 227 1350 
Q 154 1728 154 2150 
Q 154 2746 301 3222 
Q 448 3699 790 4012 
Q 1133 4326 1626 4326 
Q 2253 4326 2649 3712 
Q 3046 3098 3046 2112 
z
M 2432 2080 
Q 2432 3091 2217 3625 
Q 2003 4160 1587 4160 
Q 1190 4160 979 3622 
Q 768 3085 768 2106 
Q 768 1120 979 598 
Q 1190 77 1600 77 
Q 2003 77 2217 598 
Q 2432 1120 2432 2080 
z
" transform="scale(0.015625)"/>
       </defs>
       <use xlink:href="#STIXGeneral-Regular-30" transform="translate(0 0.40625)"/>
      </g>
     </g>
    </g>
    <g id="xtick_3">
     <g id="line2d_3">
      <g>
       <use xlink:href="#m4f79580186" x="163.859506" y="303.155" style="fill: #323034; stroke: #323034; stroke-width: 0.8"/>
      </g>
     </g>
     <g id="text_3">
      <!-- $\mathdefault{1}$ -->
      <g style="fill: #323034" transform="translate(159.859506 321.0825)scale(0.16 -0.16)">
       <use xlink:href="#STIXGeneral-Regular-31" transform="translate(0 0.40625)"/>
      </g>
     </g>
    </g>
    <g id="xtick_4">
     <g id="line2d_4">
      <g>
       <use xlink:href="#m4f79580186" x="219.981759" y="303.155" style="fill: #323034; stroke: #323034; stroke-width: 0.8"/>
      </g>
     </g>
     <g id="text_4">
      <!-- $\mathdefault{2}$ -->
      <g style="fill: #323034" transform="translate(215.981759 321.0825)scale(0.16 -0.16)">
       <defs>
        <path id="STIXGeneral-Regular-32" d="M 3034 877 
L 2688 0 
L 186 0 
L 186 77 
L 1325 1286 
Q 1773 1754 1965 2144 
Q 2157 2534 2157 2950 
Q 2157 3379 1920 3616 
Q 1683 3853 1267 3853 
Q 922 3853 720 3673 
Q 518 3494 326 3021 
L 192 3053 
Q 301 3648 630 3987 
Q 960 4326 1523 4326 
Q 2054 4326 2380 4006 
Q 2707 3686 2707 3200 
Q 2707 2477 1888 1613 
L 832 486 
L 2330 486 
Q 2541 486 2665 569 
Q 2790 653 2944 915 
L 3034 877 
z
" transform="scale(0.015625)"/>
       </defs>
       <use xlink:href="#STIXGeneral-Regular-32" transform="translate(0 0.40625)"/>
      </g>
     </g>
    </g>
    <g id="xtick_5">
     <g id="line2d_5">
      <g>
       <use xlink:href="#m4f79580186" x="276.104013" y="303.155" style="fill: #323034; stroke: #323034; stroke-width: 0.8"/>
      </g>
     </g>
     <g id="text_5">
      <!-- $\mathdefault{3}$ -->
      <g style="fill: #323034" transform="translate(272.104013 321.0825)scale(0.16 -0.16)">
       <defs>
        <path id="STIXGeneral-Regular-33" d="M 390 3264 
L 288 3290 
Q 435 3770 748 4048 
Q 1062 4326 1542 4326 
Q 1990 4326 2265 4083 
Q 2541 3840 2541 3450 
Q 2541 2925 1946 2566 
Q 2298 2413 2477 2227 
Q 2758 1914 2758 1402 
Q 2758 890 2464 506 
Q 2246 211 1840 60 
Q 1434 -90 979 -90 
Q 262 -90 262 275 
Q 262 378 339 442 
Q 416 506 525 506 
Q 685 506 915 339 
Q 1197 141 1466 141 
Q 1818 141 2058 425 
Q 2298 710 2298 1120 
Q 2298 1856 1632 2048 
Q 1434 2112 979 2112 
L 979 2202 
Q 1338 2323 1517 2432 
Q 2035 2726 2035 3290 
Q 2035 3610 1852 3776 
Q 1670 3942 1344 3942 
Q 768 3942 390 3264 
z
" transform="scale(0.015625)"/>
       </defs>
       <use xlink:href="#STIXGeneral-Regular-33" transform="translate(0 0.40625)"/>
      </g>
     </g>
    </g>
    <g id="xtick_6">
     <g id="line2d_6">
      <g>
       <use xlink:href="#m4f79580186" x="332.226266" y="303.155" style="fill: #323034; stroke: #323034; stroke-width: 0.8"/>
      </g>
     </g>
     <g id="text_6">
      <!-- $\mathdefault{4}$ -->
      <g style="fill: #323034" transform="translate(328.226266 321.0825)scale(0.16 -0.16)">
       <defs>
        <path id="STIXGeneral-Regular-34" d="M 3027 1069 
L 2368 1069 
L 2368 0 
L 1869 0 
L 1869 1069 
L 77 1069 
L 77 1478 
L 2086 4326 
L 2368 4326 
L 2368 1478 
L 3027 1478 
L 3027 1069 
z
M 1869 1478 
L 1869 3674 
L 333 1478 
L 1869 1478 
z
" transform="scale(0.015625)"/>
       </defs>
       <use xlink:href="#STIXGeneral-Regular-34" transform="translate(0 0.40625)"/>
      </g>
     </g>
    </g>
    <g id="text_7">
     <!-- carat -->
     <g transform="translate(176.375633 338.4825)scale(0.16 -0.16)">
      <defs>
       <path id="STIXGeneral-Regular-63" d="M 2547 998 
L 2637 941 
Q 2362 403 2112 205 
Q 1786 -64 1376 -64 
Q 845 -64 502 336 
Q 160 736 160 1357 
Q 160 2170 698 2618 
Q 1094 2944 1562 2944 
Q 1965 2944 2256 2749 
Q 2547 2554 2547 2285 
Q 2547 2176 2457 2096 
Q 2368 2016 2246 2016 
Q 2022 2016 1939 2310 
L 1901 2451 
Q 1850 2630 1773 2694 
Q 1696 2758 1523 2758 
Q 1133 2758 893 2451 
Q 653 2144 653 1645 
Q 653 1094 928 745 
Q 1203 397 1645 397 
Q 1920 397 2118 528 
Q 2317 659 2547 998 
z
" transform="scale(0.015625)"/>
       <path id="STIXGeneral-Regular-61" d="M 2829 422 
L 2829 243 
Q 2586 -64 2253 -64 
Q 1888 -64 1843 403 
L 1837 403 
Q 1427 -64 909 -64 
Q 608 -64 422 112 
Q 237 288 237 602 
Q 237 1050 685 1350 
Q 992 1555 1837 1869 
L 1837 2214 
Q 1837 2502 1699 2646 
Q 1562 2790 1338 2790 
Q 1146 2790 1018 2697 
Q 890 2605 890 2477 
Q 890 2419 909 2348 
Q 928 2278 928 2208 
Q 928 2112 841 2029 
Q 755 1946 634 1946 
Q 525 1946 441 2029 
Q 358 2112 358 2240 
Q 358 2547 685 2752 
Q 986 2944 1421 2944 
Q 1939 2944 2176 2656 
Q 2291 2522 2323 2384 
Q 2355 2246 2355 1946 
L 2355 723 
Q 2355 301 2554 301 
Q 2682 301 2829 422 
z
M 1837 813 
L 1837 1715 
Q 1248 1510 1018 1293 
Q 800 1094 800 800 
Q 800 557 921 432 
Q 1043 307 1242 307 
Q 1453 307 1613 410 
Q 1747 506 1792 589 
Q 1837 672 1837 813 
z
" transform="scale(0.015625)"/>
       <path id="STIXGeneral-Regular-72" d="M 1024 2931 
L 1024 2342 
Q 1267 2688 1430 2816 
Q 1594 2944 1792 2944 
Q 1958 2944 2051 2854 
Q 2144 2765 2144 2605 
Q 2144 2470 2077 2393 
Q 2010 2317 1894 2317 
Q 1773 2317 1638 2445 
Q 1536 2541 1472 2541 
Q 1338 2541 1181 2355 
Q 1024 2170 1024 2016 
L 1024 576 
Q 1024 301 1133 205 
Q 1242 109 1568 96 
L 1568 0 
L 32 0 
L 32 96 
Q 339 154 412 224 
Q 486 294 486 538 
L 486 2138 
Q 486 2349 438 2435 
Q 390 2522 269 2522 
Q 166 2522 45 2496 
L 45 2598 
Q 448 2726 992 2944 
L 1024 2931 
z
" transform="scale(0.015625)"/>
       <path id="STIXGeneral-Regular-74" d="M 1702 493 
L 1786 422 
Q 1478 -64 1011 -64 
Q 448 -64 448 749 
L 448 2675 
L 109 2675 
Q 83 2694 83 2720 
Q 83 2771 192 2842 
Q 435 2982 813 3526 
Q 826 3546 874 3606 
Q 922 3667 941 3706 
Q 986 3706 986 3622 
L 986 2880 
L 1632 2880 
L 1632 2675 
L 986 2675 
L 986 845 
Q 986 538 1062 403 
Q 1139 269 1318 269 
Q 1510 269 1702 493 
z
" transform="scale(0.015625)"/>
      </defs>
      <use xlink:href="#STIXGeneral-Regular-63"/>
      <use xlink:href="#STIXGeneral-Regular-61" x="44.399994"/>
      <use xlink:href="#STIXGeneral-Regular-72" x="88.799988"/>
      <use xlink:href="#STIXGeneral-Regular-61" x="122.099976"/>
      <use xlink:href="#STIXGeneral-Regular-74" x="166.499969"/>
     </g>
    </g>
   </g>
   <g id="matplotlib.axis_2">
    <g id="ytick_1">
     <g id="line2d_7">
      <defs>
       <path id="mc3b7527ceb" d="M 0 0 
L -3.5 0 
" style="stroke: #323034; stroke-width: 0.8"/>
      </defs>
      <g>
       <use xlink:href="#mc3b7527ceb" x="51.615" y="303.155" style="fill: #323034; stroke: #323034; stroke-width: 0.8"/>
      </g>
     </g>
     <g id="text_8">
      <!-- $\mathdefault{0.0}$ -->
      <g style="fill: #323034" transform="translate(24.615 308.61875)scale(0.16 -0.16)">
       <defs>
        <path id="STIXGeneral-Regular-2e" d="M 1158 275 
Q 1158 134 1052 32 
Q 947 -70 800 -70 
Q 653 -70 550 32 
Q 448 134 448 281 
Q 448 429 553 534 
Q 659 640 806 640 
Q 947 640 1052 531 
Q 1158 422 1158 275 
z
" transform="scale(0.015625)"/>
       </defs>
       <use xlink:href="#STIXGeneral-Regular-30" transform="translate(0 0.40625)"/>
       <use xlink:href="#STIXGeneral-Regular-2e" transform="translate(49.999985 0.40625)"/>
       <use xlink:href="#STIXGeneral-Regular-30" transform="translate(74.999969 0.40625)"/>
      </g>
     </g>
    </g>
    <g id="ytick_2">
     <g id="line2d_8">
      <g>
       <use xlink:href="#mc3b7527ceb" x="51.615" y="254.739792" style="fill: #323034; stroke: #323034; stroke-width: 0.8"/>
      </g>
     </g>
     <g id="text_9">
      <!-- $\mathdefault{0.1}$ -->
      <g style="fill: #323034" transform="translate(24.615 260.203542)scale(0.16 -0.16)">
       <use xlink:href="#STIXGeneral-Regular-30" transform="translate(0 0.40625)"/>
       <use xlink:href="#STIXGeneral-Regular-2e" transform="translate(49.999985 0.40625)"/>
       <use xlink:href="#STIXGeneral-Regular-31" transform="translate(74.999969 0.40625)"/>
      </g>
     </g>
    </g>
    <g id="ytick_3">
     <g id="line2d_9">
      <g>
       <use xlink:href="#mc3b7527ceb" x="51.615" y="206.324583" style="fill: #323034; stroke: #323034; stroke-width: 0.8"/>
      </g>
     </g>
     <g id="text_10">
      <!-- $\mathdefault{0.2}$ -->
      <g style="fill: #323034" transform="translate(24.615 211.788333)scale(0.16 -0.16)">
       <use xlink:href="#STIXGeneral-Regular-30" transform="translate(0 0.40625)"/>
       <use xlink:href="#STIXGeneral-Regular-2e" transform="translate(49.999985 0.40625)"/>
       <use xlink:href="#STIXGeneral-Regular-32" transform="translate(74.999969 0.40625)"/>
      </g>
     </g>
    </g>
    <g id="ytick_4">
     <g id="line2d_10">
      <g>
       <use xlink:href="#mc3b7527ceb" x="51.615" y="157.909375" style="fill: #323034; stroke: #323034; stroke-width: 0.8"/>
      </g>
     </g>
     <g id="text_11">
      <!-- $\mathdefault{0.3}$ -->
      <g style="fill: #323034" transform="translate(24.615 163.373125)scale(0.16 -0.16)">
       <use xlink:href="#STIXGeneral-Regular-30" transform="translate(0 0.40625)"/>
       <use xlink:href="#STIXGeneral-Regular-2e" transform="translate(49.999985 0.40625)"/>
       <use xlink:href="#STIXGeneral-Regular-33" transform="translate(74.999969 0.40625)"/>
      </g>
     </g>
    </g>
    <g id="ytick_5">
     <g id="line2d_11">
      <g>
       <use xlink:href="#mc3b7527ceb" x="51.615" y="109.494167" style="fill: #323034; stroke: #323034; stroke-width: 0.8"/>
      </g>
     </g>
     <g id="text_12">
      <!-- $\mathdefault{0.4}$ -->
      <g style="fill: #323034" transform="translate(24.615 114.957917)scale(0.16 -0.16)">
       <use xlink:href="#STIXGeneral-Regular-30" transform="translate(0 0.40625)"/>
       <use xlink:href="#STIXGeneral-Regular-2e" transform="translate(49.999985 0.40625)"/>
       <use xlink:href="#STIXGeneral-Regular-34" transform="translate(74.999969 0.40625)"/>
      </g>
     </g>
    </g>
    <g id="ytick_6">
     <g id="line2d_12">
      <g>
       <use xlink:href="#mc3b7527ceb" x="51.615" y="61.078958" style="fill: #323034; stroke: #323034; stroke-width: 0.8"/>
      </g>
     </g>
     <g id="text_13">
      <!-- $\mathdefault{0.5}$ -->
      <g style="fill: #323034" transform="translate(24.615 66.542708)scale(0.16 -0.16)">
       <defs>
        <path id="STIXGeneral-Regular-35" d="M 2803 4358 
L 2573 3814 
Q 2534 3731 2400 3731 
L 1158 3731 
L 902 3187 
Q 1606 3053 1920 2896 
Q 2234 2739 2502 2368 
Q 2726 2061 2726 1555 
Q 2726 1094 2576 780 
Q 2426 467 2099 224 
Q 1664 -90 1011 -90 
Q 646 -90 422 19 
Q 198 128 198 307 
Q 198 550 486 550 
Q 717 550 960 352 
Q 1210 147 1414 147 
Q 1747 147 2012 480 
Q 2278 813 2278 1229 
Q 2278 1843 1850 2189 
Q 1293 2637 486 2637 
Q 410 2637 410 2688 
L 416 2720 
L 1114 4237 
L 2438 4237 
Q 2547 4237 2608 4269 
Q 2669 4301 2746 4403 
L 2803 4358 
z
" transform="scale(0.015625)"/>
       </defs>
       <use xlink:href="#STIXGeneral-Regular-30" transform="translate(0 0.203125)"/>
       <use xlink:href="#STIXGeneral-Regular-2e" transform="translate(49.999985 0.203125)"/>
       <use xlink:href="#STIXGeneral-Regular-35" transform="translate(74.999969 0.203125)"/>
      </g>
     </g>
    </g>
    <g id="ytick_7">
     <g id="line2d_13">
      <g>
       <use xlink:href="#mc3b7527ceb" x="51.615" y="12.66375" style="fill: #323034; stroke: #323034; stroke-width: 0.8"/>
      </g>
     </g>
     <g id="text_14">
      <!-- $\mathdefault{0.6}$ -->
      <g style="fill: #323034" transform="translate(24.615 18.1275)scale(0.16 -0.16)">
       <defs>
        <path id="STIXGeneral-Regular-36" d="M 2854 4378 
L 2867 4275 
Q 2112 4154 1606 3664 
Q 1101 3174 973 2451 
Q 1344 2739 1786 2739 
Q 2349 2739 2672 2380 
Q 2995 2022 2995 1402 
Q 2995 774 2669 378 
Q 2291 -90 1651 -90 
Q 870 -90 518 557 
Q 218 1107 218 1786 
Q 218 2835 915 3552 
Q 1312 3962 1731 4131 
Q 2150 4301 2854 4378 
z
M 2419 1203 
Q 2419 2445 1555 2445 
Q 1235 2445 1024 2275 
Q 813 2106 813 1702 
Q 813 954 1046 522 
Q 1280 90 1722 90 
Q 2061 90 2240 394 
Q 2419 698 2419 1203 
z
" transform="scale(0.015625)"/>
       </defs>
       <use xlink:href="#STIXGeneral-Regular-30" transform="translate(0 0.59375)"/>
       <use xlink:href="#STIXGeneral-Regular-2e" transform="translate(49.999985 0.59375)"/>
       <use xlink:href="#STIXGeneral-Regular-36" transform="translate(74.999969 0.59375)"/>
      </g>
     </g>
    </g>
    <g id="text_15">
     <!-- Density -->
     <g transform="translate(18.1275 182.798125)rotate(-90)scale(0.16 -0.16)">
      <defs>
       <path id="STIXGeneral-Regular-44" d="M 102 4237 
L 1830 4237 
Q 3078 4237 3750 3654 
Q 4384 3110 4384 2138 
Q 4384 966 3514 410 
Q 2880 0 1901 0 
L 102 0 
L 102 122 
Q 474 147 570 252 
Q 666 358 666 736 
L 666 3520 
Q 666 3891 570 3990 
Q 474 4090 102 4115 
L 102 4237 
z
M 1318 3731 
L 1318 538 
Q 1318 365 1379 301 
Q 1440 237 1626 237 
Q 2125 237 2432 307 
Q 2739 378 3021 570 
Q 3686 1018 3686 2099 
Q 3686 3027 3078 3558 
Q 2803 3802 2476 3901 
Q 2150 4000 1658 4000 
Q 1472 4000 1395 3942 
Q 1318 3885 1318 3731 
z
" transform="scale(0.015625)"/>
       <path id="STIXGeneral-Regular-65" d="M 2611 1050 
L 2714 1005 
Q 2330 -64 1376 -64 
Q 813 -64 486 329 
Q 160 723 160 1389 
Q 160 2074 525 2509 
Q 890 2944 1485 2944 
Q 2061 2944 2374 2502 
Q 2560 2246 2592 1773 
L 621 1773 
Q 646 1370 700 1158 
Q 755 947 915 730 
Q 1184 378 1626 378 
Q 1939 378 2153 531 
Q 2368 685 2611 1050 
z
M 634 1978 
L 1939 1978 
Q 1882 2381 1750 2547 
Q 1619 2714 1312 2714 
Q 1043 2714 864 2525 
Q 685 2336 634 1978 
z
" transform="scale(0.015625)"/>
       <path id="STIXGeneral-Regular-6e" d="M 3104 0 
L 1773 0 
L 1779 96 
Q 2016 115 2096 233 
Q 2176 352 2176 672 
L 2176 1946 
Q 2176 2592 1709 2592 
Q 1549 2592 1408 2515 
Q 1267 2438 1050 2227 
L 1050 461 
Q 1050 269 1136 192 
Q 1222 115 1466 96 
L 1466 0 
L 115 0 
L 115 96 
Q 358 115 435 214 
Q 512 314 512 602 
L 512 2157 
Q 512 2394 467 2483 
Q 422 2573 288 2573 
Q 160 2573 102 2547 
L 102 2656 
Q 550 2784 979 2944 
L 1030 2925 
L 1030 2426 
L 1037 2426 
Q 1491 2944 1958 2944 
Q 2323 2944 2518 2688 
Q 2714 2432 2714 1958 
L 2714 544 
Q 2714 288 2790 205 
Q 2867 122 3104 96 
L 3104 0 
z
" transform="scale(0.015625)"/>
       <path id="STIXGeneral-Regular-73" d="M 998 1926 
L 1664 1523 
Q 1984 1331 2105 1164 
Q 2227 998 2227 736 
Q 2227 416 1961 176 
Q 1696 -64 1331 -64 
Q 1030 -64 864 -6 
Q 691 51 570 51 
Q 461 51 416 -26 
L 333 -26 
L 333 979 
L 435 979 
Q 538 512 730 294 
Q 922 77 1248 77 
Q 1485 77 1632 211 
Q 1779 346 1779 550 
Q 1779 845 1440 1030 
L 1094 1222 
Q 326 1651 326 2150 
Q 326 2522 566 2730 
Q 806 2938 1210 2938 
Q 1491 2938 1638 2867 
Q 1754 2816 1818 2816 
Q 1862 2816 1920 2880 
L 1990 2880 
L 2022 2010 
L 1926 2010 
Q 1818 2445 1654 2621 
Q 1491 2797 1203 2797 
Q 986 2797 854 2688 
Q 723 2579 723 2362 
Q 723 2253 796 2128 
Q 870 2003 998 1926 
z
" transform="scale(0.015625)"/>
       <path id="STIXGeneral-Regular-69" d="M 1152 4045 
Q 1152 3904 1056 3811 
Q 960 3718 819 3718 
Q 685 3718 592 3811 
Q 499 3904 499 4045 
Q 499 4179 595 4275 
Q 691 4371 826 4371 
Q 966 4371 1059 4275 
Q 1152 4179 1152 4045 
z
M 1619 0 
L 102 0 
L 102 96 
Q 435 115 521 211 
Q 608 307 608 666 
L 608 2118 
Q 608 2342 563 2432 
Q 518 2522 397 2522 
Q 243 2522 128 2490 
L 128 2592 
L 1120 2944 
L 1146 2918 
L 1146 672 
Q 1146 314 1226 218 
Q 1306 122 1619 96 
L 1619 0 
z
" transform="scale(0.015625)"/>
       <path id="STIXGeneral-Regular-79" d="M 3040 2880 
L 3040 2784 
Q 2925 2771 2854 2700 
Q 2784 2630 2720 2458 
L 1760 -160 
Q 1510 -838 1257 -1116 
Q 1005 -1395 640 -1395 
Q 435 -1395 313 -1289 
Q 192 -1184 192 -1024 
Q 192 -902 272 -816 
Q 352 -730 467 -730 
Q 653 -730 800 -813 
Q 883 -858 966 -858 
Q 1101 -858 1286 -576 
Q 1376 -448 1459 -211 
Q 1542 26 1542 115 
Q 1542 198 1274 762 
L 429 2566 
Q 346 2752 90 2790 
L 90 2880 
L 1402 2880 
L 1402 2784 
Q 1197 2778 1117 2739 
Q 1037 2701 1037 2611 
Q 1037 2541 1120 2349 
L 1837 749 
L 2458 2515 
Q 2483 2573 2483 2630 
Q 2483 2784 2189 2784 
L 2189 2880 
L 3040 2880 
z
" transform="scale(0.015625)"/>
      </defs>
      <use xlink:href="#STIXGeneral-Regular-44"/>
      <use xlink:href="#STIXGeneral-Regular-65" x="72.199982"/>
      <use xlink:href="#STIXGeneral-Regular-6e" x="116.599976"/>
      <use xlink:href="#STIXGeneral-Regular-73" x="166.59996"/>
      <use xlink:href="#STIXGeneral-Regular-69" x="205.499954"/>
      <use xlink:href="#STIXGeneral-Regular-74" x="233.299942"/>
      <use xlink:href="#STIXGeneral-Regular-79" x="261.09993"/>
     </g>
    </g>
   </g>
   <g id="patch_3">
    <path d="M 51.615 303.155 
L 51.615 12.66375 
" style="fill: none; stroke: #000000; stroke-width: 0.6; stroke-linejoin: miter; stroke-linecap: square"/>
   </g>
   <g id="patch_4">
    <path d="M 51.615 303.155 
L 332.226266 303.155 
" style="fill: none; stroke: #000000; stroke-width: 0.6; stroke-linejoin: miter; stroke-linecap: square"/>
   </g>
  </g>
  <g id="legend_1">
   <g id="text_16">
    <!-- cut -->
    <g style="fill: #323034" transform="translate(385.464453 138.788437)scale(0.16 -0.16)">
     <defs>
      <path id="STIXGeneral-Regular-75" d="M 3072 320 
L 3072 230 
Q 2573 96 2195 -58 
L 2163 -38 
L 2163 486 
L 2150 486 
Q 1747 -64 1235 -64 
Q 870 -64 662 160 
Q 454 384 454 755 
L 454 2362 
Q 454 2598 371 2688 
Q 288 2778 58 2790 
L 58 2880 
L 992 2880 
L 992 813 
Q 992 595 1123 451 
Q 1254 307 1446 307 
Q 1760 307 1984 506 
Q 2067 582 2099 649 
Q 2131 717 2131 877 
L 2131 2355 
Q 2131 2605 2041 2678 
Q 1952 2752 1658 2771 
L 1658 2880 
L 2669 2880 
L 2669 685 
Q 2669 461 2742 390 
Q 2816 320 3034 320 
L 3072 320 
z
" transform="scale(0.015625)"/>
     </defs>
     <use xlink:href="#STIXGeneral-Regular-63"/>
     <use xlink:href="#STIXGeneral-Regular-75" x="44.399994"/>
     <use xlink:href="#STIXGeneral-Regular-74" x="94.399979"/>
    </g>
   </g>
   <g id="patch_5">
    <path d="M 351.614141 155.460938 
L 375.614141 155.460938 
L 375.614141 147.060937 
L 351.614141 147.060937 
z
" style="fill: #bc80bd; fill-opacity: 0.25; stroke: #bc80bd; stroke-width: 0.8; stroke-linejoin: miter"/>
   </g>
   <g id="text_17">
    <!-- Ideal -->
    <g style="fill: #323034" transform="translate(385.214141 155.460938)scale(0.12 -0.12)">
     <defs>
      <path id="STIXGeneral-Regular-49" d="M 2016 0 
L 115 0 
L 115 122 
Q 518 134 627 240 
Q 736 346 736 717 
L 736 3526 
Q 736 3898 633 3994 
Q 531 4090 115 4115 
L 115 4237 
L 2016 4237 
L 2016 4115 
Q 1613 4096 1501 3993 
Q 1389 3891 1389 3526 
L 1389 717 
Q 1389 358 1504 246 
Q 1619 134 2016 122 
L 2016 0 
z
" transform="scale(0.015625)"/>
      <path id="STIXGeneral-Regular-64" d="M 3142 269 
L 2202 -64 
L 2176 -45 
L 2176 365 
Q 1869 -64 1357 -64 
Q 826 -64 499 317 
Q 173 698 173 1312 
Q 173 1990 563 2467 
Q 954 2944 1504 2944 
Q 1850 2944 2176 2669 
L 2176 3667 
Q 2176 3866 2118 3930 
Q 2061 3994 1882 3994 
Q 1792 3994 1741 3987 
L 1741 4090 
Q 2323 4243 2682 4371 
L 2714 4358 
L 2714 730 
Q 2714 506 2768 435 
Q 2822 365 2995 365 
Q 3034 365 3142 371 
L 3142 269 
z
M 2176 653 
L 2176 2125 
Q 2176 2381 1981 2573 
Q 1786 2765 1523 2765 
Q 1158 2765 940 2438 
Q 723 2112 723 1568 
Q 723 979 963 624 
Q 1203 269 1606 269 
Q 1907 269 2080 474 
Q 2176 582 2176 653 
z
" transform="scale(0.015625)"/>
      <path id="STIXGeneral-Regular-6c" d="M 1645 0 
L 134 0 
L 134 96 
Q 435 122 531 221 
Q 627 320 627 589 
L 627 3590 
Q 627 3821 569 3910 
Q 512 4000 358 4000 
Q 224 4000 122 3987 
L 122 4090 
Q 730 4237 1133 4371 
L 1165 4346 
L 1165 557 
Q 1165 288 1254 201 
Q 1344 115 1645 96 
L 1645 0 
z
" transform="scale(0.015625)"/>
     </defs>
     <use xlink:href="#STIXGeneral-Regular-49"/>
     <use xlink:href="#STIXGeneral-Regular-64" x="33.299988"/>
     <use xlink:href="#STIXGeneral-Regular-65" x="83.299973"/>
     <use xlink:href="#STIXGeneral-Regular-61" x="127.699966"/>
     <use xlink:href="#STIXGeneral-Regular-6c" x="172.09996"/>
    </g>
   </g>
   <g id="patch_6">
    <path d="M 351.614141 171.265312 
L 375.614141 171.265312 
L 375.614141 162.865312 
L 351.614141 162.865312 
z
" style="fill: #fb8072; fill-opacity: 0.25; stroke: #fb8072; stroke-width: 0.8; stroke-linejoin: miter"/>
   </g>
   <g id="text_18">
    <!-- Premium -->
    <g style="fill: #323034" transform="translate(385.214141 171.265312)scale(0.12 -0.12)">
     <defs>
      <path id="STIXGeneral-Regular-50" d="M 102 4237 
L 1760 4237 
Q 2669 4237 3149 3834 
Q 3469 3565 3469 3072 
Q 3469 2560 3104 2234 
Q 2835 1990 2553 1916 
Q 2272 1843 1734 1843 
Q 1549 1843 1293 1862 
L 1293 717 
Q 1293 352 1398 246 
Q 1504 141 1894 122 
L 1894 0 
L 102 0 
L 102 122 
Q 474 147 557 256 
Q 640 365 640 781 
L 640 3526 
Q 640 3885 547 3987 
Q 454 4090 102 4115 
L 102 4237 
z
M 1293 3770 
L 1293 2118 
Q 1510 2099 1683 2099 
Q 2202 2099 2486 2352 
Q 2771 2605 2771 3040 
Q 2771 3558 2476 3779 
Q 2182 4000 1517 4000 
Q 1382 4000 1337 3952 
Q 1293 3904 1293 3770 
z
" transform="scale(0.015625)"/>
      <path id="STIXGeneral-Regular-6d" d="M 4960 0 
L 3565 0 
L 3565 96 
Q 3834 122 3907 208 
Q 3981 294 3981 576 
L 3981 1894 
Q 3981 2278 3869 2444 
Q 3757 2611 3488 2611 
Q 3264 2611 3107 2521 
Q 2950 2432 2803 2221 
L 2803 608 
Q 2803 301 2896 201 
Q 2989 102 3264 96 
L 3264 0 
L 1830 0 
L 1830 96 
Q 2112 115 2189 188 
Q 2266 262 2266 550 
L 2266 1901 
Q 2266 2611 1850 2611 
Q 1670 2611 1468 2531 
Q 1267 2451 1171 2336 
Q 1088 2240 1088 2227 
L 1088 448 
Q 1088 243 1177 176 
Q 1267 109 1523 96 
L 1523 0 
L 102 0 
L 102 96 
Q 371 102 460 195 
Q 550 288 550 563 
L 550 2150 
Q 550 2387 499 2480 
Q 448 2573 326 2573 
Q 230 2573 122 2547 
L 122 2656 
Q 557 2778 1011 2944 
L 1062 2925 
L 1062 2451 
L 1075 2451 
Q 1363 2752 1584 2848 
Q 1805 2944 2054 2944 
Q 2560 2944 2733 2406 
Q 3232 2944 3776 2944 
Q 4518 2944 4518 1792 
L 4518 493 
Q 4518 282 4582 202 
Q 4646 122 4794 109 
L 4960 96 
L 4960 0 
z
" transform="scale(0.015625)"/>
     </defs>
     <use xlink:href="#STIXGeneral-Regular-50"/>
     <use xlink:href="#STIXGeneral-Regular-72" x="55.699997"/>
     <use xlink:href="#STIXGeneral-Regular-65" x="88.999985"/>
     <use xlink:href="#STIXGeneral-Regular-6d" x="133.399979"/>
     <use xlink:href="#STIXGeneral-Regular-69" x="211.199966"/>
     <use xlink:href="#STIXGeneral-Regular-75" x="238.999954"/>
     <use xlink:href="#STIXGeneral-Regular-6d" x="288.999939"/>
    </g>
   </g>
   <g id="patch_7">
    <path d="M 351.614141 187.069687 
L 375.614141 187.069687 
L 375.614141 178.669687 
L 351.614141 178.669687 
z
" style="fill: #b3de69; fill-opacity: 0.25; stroke: #b3de69; stroke-width: 0.8; stroke-linejoin: miter"/>
   </g>
   <g id="text_19">
    <!-- Very Good -->
    <g style="fill: #323034" transform="translate(385.214141 187.069687)scale(0.12 -0.12)">
     <defs>
      <path id="STIXGeneral-Regular-56" d="M 4461 4237 
L 4461 4115 
Q 4262 4109 4134 3990 
Q 4006 3872 3872 3533 
L 2451 -70 
L 2355 -70 
L 794 3411 
Q 589 3866 467 3987 
Q 346 4109 102 4115 
L 102 4237 
L 1798 4237 
L 1798 4115 
L 1619 4102 
Q 1331 4083 1331 3904 
Q 1331 3776 1581 3219 
L 2554 1030 
L 3494 3392 
Q 3616 3699 3616 3853 
Q 3616 3898 3606 3933 
Q 3597 3968 3584 3993 
Q 3571 4019 3536 4038 
Q 3501 4058 3481 4067 
Q 3462 4077 3411 4086 
Q 3360 4096 3337 4099 
Q 3315 4102 3248 4108 
Q 3181 4115 3155 4115 
L 3155 4237 
L 4461 4237 
z
" transform="scale(0.015625)"/>
      <path id="STIXGeneral-Regular-20" transform="scale(0.015625)"/>
      <path id="STIXGeneral-Regular-47" d="M 4538 2266 
L 4538 2150 
Q 4256 2125 4173 2035 
Q 4090 1946 4090 1638 
L 4090 358 
Q 3539 -90 2464 -90 
Q 1965 -90 1507 89 
Q 1050 269 736 595 
Q 205 1152 205 2093 
Q 205 3155 890 3776 
Q 1491 4326 2419 4326 
Q 2829 4326 3270 4179 
Q 3443 4115 3552 4115 
Q 3654 4115 3731 4176 
Q 3808 4237 3840 4326 
L 3981 4326 
L 4032 2976 
L 3885 2976 
Q 3680 3475 3430 3718 
Q 3059 4070 2496 4070 
Q 1856 4070 1427 3629 
Q 934 3136 934 2074 
Q 934 1190 1395 678 
Q 1856 166 2618 166 
Q 2982 166 3225 281 
Q 3469 397 3469 557 
L 3469 1562 
Q 3469 1933 3376 2025 
Q 3283 2118 2899 2150 
L 2899 2266 
L 4538 2266 
z
" transform="scale(0.015625)"/>
      <path id="STIXGeneral-Regular-6f" d="M 3008 1478 
Q 3008 806 2608 371 
Q 2208 -64 1568 -64 
Q 979 -64 582 368 
Q 186 800 186 1459 
Q 186 2125 582 2534 
Q 979 2944 1626 2944 
Q 2221 2944 2614 2537 
Q 3008 2131 3008 1478 
z
M 2432 1306 
Q 2432 2035 2112 2445 
Q 1856 2765 1504 2765 
Q 1171 2765 966 2493 
Q 762 2221 762 1747 
Q 762 928 1101 435 
Q 1318 115 1677 115 
Q 2029 115 2230 432 
Q 2432 749 2432 1306 
z
" transform="scale(0.015625)"/>
     </defs>
     <use xlink:href="#STIXGeneral-Regular-56"/>
     <use xlink:href="#STIXGeneral-Regular-65" x="72.199982"/>
     <use xlink:href="#STIXGeneral-Regular-72" x="116.599976"/>
     <use xlink:href="#STIXGeneral-Regular-79" x="149.899963"/>
     <use xlink:href="#STIXGeneral-Regular-20" x="199.899948"/>
     <use xlink:href="#STIXGeneral-Regular-47" x="224.899933"/>
     <use xlink:href="#STIXGeneral-Regular-6f" x="297.099915"/>
     <use xlink:href="#STIXGeneral-Regular-6f" x="347.099899"/>
     <use xlink:href="#STIXGeneral-Regular-64" x="397.099884"/>
    </g>
   </g>
   <g id="patch_8">
    <path d="M 351.614141 202.885312 
L 375.614141 202.885312 
L 375.614141 194.485312 
L 351.614141 194.485312 
z
" style="fill: #fdb462; fill-opacity: 0.25; stroke: #fdb462; stroke-width: 0.8; stroke-linejoin: miter"/>
   </g>
   <g id="text_20">
    <!-- Good -->
    <g style="fill: #323034" transform="translate(385.214141 202.885312)scale(0.12 -0.12)">
     <use xlink:href="#STIXGeneral-Regular-47"/>
     <use xlink:href="#STIXGeneral-Regular-6f" x="72.199982"/>
     <use xlink:href="#STIXGeneral-Regular-6f" x="122.199966"/>
     <use xlink:href="#STIXGeneral-Regular-64" x="172.199951"/>
    </g>
   </g>
   <g id="patch_9">
    <path d="M 351.614141 218.689687 
L 375.614141 218.689687 
L 375.614141 210.289687 
L 351.614141 210.289687 
z
" style="fill: #fccde5; fill-opacity: 0.25; stroke: #fccde5; stroke-width: 0.8; stroke-linejoin: miter"/>
   </g>
   <g id="text_21">
    <!-- Fair -->
    <g style="fill: #323034" transform="translate(385.214141 218.689687)scale(0.12 -0.12)">
     <defs>
      <path id="STIXGeneral-Regular-46" d="M 3494 3322 
L 3334 3322 
Q 3264 3757 3094 3875 
Q 2925 3994 2349 3994 
L 1504 3994 
Q 1370 3994 1328 3946 
Q 1286 3898 1286 3744 
L 1286 2355 
L 2195 2355 
Q 2598 2355 2736 2470 
Q 2874 2586 2918 2963 
L 3066 2963 
L 3066 1472 
L 2918 1472 
Q 2880 1862 2745 1977 
Q 2611 2093 2195 2093 
L 1286 2093 
L 1286 717 
Q 1286 352 1392 246 
Q 1498 141 1869 122 
L 1869 0 
L 70 0 
L 70 122 
Q 435 147 534 259 
Q 634 371 634 787 
L 634 3526 
Q 634 3878 538 3984 
Q 442 4090 77 4115 
L 77 4237 
L 3462 4237 
L 3494 3322 
z
" transform="scale(0.015625)"/>
     </defs>
     <use xlink:href="#STIXGeneral-Regular-46"/>
     <use xlink:href="#STIXGeneral-Regular-61" x="55.599991"/>
     <use xlink:href="#STIXGeneral-Regular-69" x="99.999985"/>
     <use xlink:href="#STIXGeneral-Regular-72" x="127.799973"/>
    </g>
   </g>
  </g>
 </g>
 <defs>
  <clipPath id="paa18896146">
   <rect x="51.615" y="12.66375" width="280.611266" height="290.49125"/>
  </clipPath>
 </defs>
</svg>
