<?xml version="1.0" encoding="utf-8" standalone="no"?>
<!DOCTYPE svg PUBLIC "-//W3C//DTD SVG 1.1//EN"
  "http://www.w3.org/Graphics/SVG/1.1/DTD/svg11.dtd">
<svg height="267.549062pt" version="1.1" viewBox="0 0 390.28 267.549062" width="390.28pt" xmlns="http://www.w3.org/2000/svg" xmlns:xlink="http://www.w3.org/1999/xlink">
 <metadata>
  <rdf:RDF xmlns:cc="http://creativecommons.org/ns#" xmlns:dc="http://purl.org/dc/elements/1.1/" xmlns:rdf="http://www.w3.org/1999/02/22-rdf-syntax-ns#">
   <cc:Work>
    <dc:type rdf:resource="http://purl.org/dc/dcmitype/StillImage"/>
    <dc:date>2022-08-20T18:05:22.633291</dc:date>
    <dc:format>image/svg+xml</dc:format>
    <dc:creator>
     <cc:Agent>
      <dc:title>Matplotlib v3.4.3, https://matplotlib.org/</dc:title>
     </cc:Agent>
    </dc:creator>
   </cc:Work>
  </rdf:RDF>
 </metadata>
 <defs>
  <style type="text/css">*{stroke-linecap:butt;stroke-linejoin:round;}</style>
 </defs>
 <g id="figure_1">
  <g id="patch_1">
   <path d="M 0 267.549062 
L 390.28 267.549062 
L 390.28 0 
L 0 0 
z
" style="fill:none;"/>
  </g>
  <g id="axes_1">
   <g id="patch_2">
    <path d="M 48.28 228.737812 
L 383.08 228.737812 
L 383.08 11.297813 
L 48.28 11.297813 
z
" style="fill:#ffffff;"/>
   </g>
   <g id="PolyCollection_1">
    <defs>
     <path d="M 90.13 -68.323622 
L 89.243022 -68.323622 
L 88.982183 -69.743949 
L 88.659697 -71.164276 
L 88.26557 -72.584603 
L 87.789432 -74.004929 
L 87.220857 -75.425256 
L 86.549773 -76.845583 
L 85.766935 -78.26591 
L 84.864452 -79.686237 
L 83.836362 -81.106564 
L 82.679201 -82.52689 
L 81.392564 -83.947217 
L 79.979601 -85.367544 
L 78.447426 -86.787871 
L 76.8074 -88.208198 
L 75.075255 -89.628525 
L 73.271044 -91.048851 
L 71.41889 -92.469178 
L 69.546546 -93.889505 
L 67.684758 -95.309832 
L 65.866458 -96.730159 
L 64.125812 -98.150485 
L 62.49717 -99.570812 
L 61.013942 -100.991139 
L 59.707475 -102.411466 
L 58.605957 -103.831793 
L 57.733408 -105.25212 
L 57.108801 -106.672446 
L 56.745351 -108.092773 
L 56.65 -109.5131 
L 56.823124 -110.933427 
L 57.258475 -112.353754 
L 57.943366 -113.774081 
L 58.859088 -115.194407 
L 59.981543 -116.614734 
L 61.28209 -118.035061 
L 62.728533 -119.455388 
L 64.28626 -120.875715 
L 65.919439 -122.296042 
L 67.592258 -123.716368 
L 69.270128 -125.136695 
L 70.920815 -126.557022 
L 72.515436 -127.977349 
L 74.029283 -129.397676 
L 75.442433 -130.818002 
L 76.740131 -132.238329 
L 77.912919 -133.658656 
L 78.956529 -135.078983 
L 79.871549 -136.49931 
L 80.662891 -137.919637 
L 81.339107 -139.339963 
L 81.911583 -140.76029 
L 82.393684 -142.180617 
L 82.799878 -143.600944 
L 83.14489 -145.021271 
L 83.442943 -146.441598 
L 83.707095 -147.861924 
L 83.948718 -149.282251 
L 84.177119 -150.702578 
L 84.399316 -152.122905 
L 84.619977 -153.543232 
L 84.841488 -154.963558 
L 85.064165 -156.383885 
L 85.286555 -157.804212 
L 85.505839 -159.224539 
L 85.718275 -160.644866 
L 85.919672 -162.065193 
L 86.105859 -163.485519 
L 86.273121 -164.905846 
L 86.418573 -166.326173 
L 86.540456 -167.7465 
L 86.638333 -169.166827 
L 86.713174 -170.587154 
L 86.767332 -172.00748 
L 86.804413 -173.427807 
L 86.829047 -174.848134 
L 86.846584 -176.268461 
L 86.862749 -177.688788 
L 86.883256 -179.109115 
L 86.913448 -180.529441 
L 86.957957 -181.949768 
L 87.020432 -183.370095 
L 87.103339 -184.790422 
L 87.207854 -186.210749 
L 87.333848 -187.631075 
L 87.479962 -189.051402 
L 87.643756 -190.471729 
L 87.821925 -191.892056 
L 88.010551 -193.312383 
L 88.205375 -194.73271 
L 88.402065 -196.153036 
L 88.596463 -197.573363 
L 88.784792 -198.99369 
L 88.96381 -200.414017 
L 89.130925 -201.834344 
L 89.284237 -203.254671 
L 89.422543 -204.674997 
L 89.545297 -206.095324 
L 89.652536 -207.515651 
L 89.744782 -208.935978 
L 90.13 -208.935978 
L 90.13 -208.935978 
L 90.13 -207.515651 
L 90.13 -206.095324 
L 90.13 -204.674997 
L 90.13 -203.254671 
L 90.13 -201.834344 
L 90.13 -200.414017 
L 90.13 -198.99369 
L 90.13 -197.573363 
L 90.13 -196.153036 
L 90.13 -194.73271 
L 90.13 -193.312383 
L 90.13 -191.892056 
L 90.13 -190.471729 
L 90.13 -189.051402 
L 90.13 -187.631075 
L 90.13 -186.210749 
L 90.13 -184.790422 
L 90.13 -183.370095 
L 90.13 -181.949768 
L 90.13 -180.529441 
L 90.13 -179.109115 
L 90.13 -177.688788 
L 90.13 -176.268461 
L 90.13 -174.848134 
L 90.13 -173.427807 
L 90.13 -172.00748 
L 90.13 -170.587154 
L 90.13 -169.166827 
L 90.13 -167.7465 
L 90.13 -166.326173 
L 90.13 -164.905846 
L 90.13 -163.485519 
L 90.13 -162.065193 
L 90.13 -160.644866 
L 90.13 -159.224539 
L 90.13 -157.804212 
L 90.13 -156.383885 
L 90.13 -154.963558 
L 90.13 -153.543232 
L 90.13 -152.122905 
L 90.13 -150.702578 
L 90.13 -149.282251 
L 90.13 -147.861924 
L 90.13 -146.441598 
L 90.13 -145.021271 
L 90.13 -143.600944 
L 90.13 -142.180617 
L 90.13 -140.76029 
L 90.13 -139.339963 
L 90.13 -137.919637 
L 90.13 -136.49931 
L 90.13 -135.078983 
L 90.13 -133.658656 
L 90.13 -132.238329 
L 90.13 -130.818002 
L 90.13 -129.397676 
L 90.13 -127.977349 
L 90.13 -126.557022 
L 90.13 -125.136695 
L 90.13 -123.716368 
L 90.13 -122.296042 
L 90.13 -120.875715 
L 90.13 -119.455388 
L 90.13 -118.035061 
L 90.13 -116.614734 
L 90.13 -115.194407 
L 90.13 -113.774081 
L 90.13 -112.353754 
L 90.13 -110.933427 
L 90.13 -109.5131 
L 90.13 -108.092773 
L 90.13 -106.672446 
L 90.13 -105.25212 
L 90.13 -103.831793 
L 90.13 -102.411466 
L 90.13 -100.991139 
L 90.13 -99.570812 
L 90.13 -98.150485 
L 90.13 -96.730159 
L 90.13 -95.309832 
L 90.13 -93.889505 
L 90.13 -92.469178 
L 90.13 -91.048851 
L 90.13 -89.628525 
L 90.13 -88.208198 
L 90.13 -86.787871 
L 90.13 -85.367544 
L 90.13 -83.947217 
L 90.13 -82.52689 
L 90.13 -81.106564 
L 90.13 -79.686237 
L 90.13 -78.26591 
L 90.13 -76.845583 
L 90.13 -75.425256 
L 90.13 -74.004929 
L 90.13 -72.584603 
L 90.13 -71.164276 
L 90.13 -69.743949 
L 90.13 -68.323622 
z
" id="m7f53c6ac64" style="stroke:#5f5f5f;"/>
    </defs>
    <g clip-path="url(#pcd3edf8b9d)">
     <use style="fill:#b588b5;stroke:#5f5f5f;" x="0" xlink:href="#m7f53c6ac64" y="267.549062"/>
    </g>
   </g>
   <g id="PolyCollection_2">
    <defs>
     <path d="M 91.037561 -66.799126 
L 90.13 -66.799126 
L 90.13 -68.119841 
L 90.13 -69.440557 
L 90.13 -70.761273 
L 90.13 -72.081988 
L 90.13 -73.402704 
L 90.13 -74.72342 
L 90.13 -76.044135 
L 90.13 -77.364851 
L 90.13 -78.685566 
L 90.13 -80.006282 
L 90.13 -81.326998 
L 90.13 -82.647713 
L 90.13 -83.968429 
L 90.13 -85.289145 
L 90.13 -86.60986 
L 90.13 -87.930576 
L 90.13 -89.251292 
L 90.13 -90.572007 
L 90.13 -91.892723 
L 90.13 -93.213439 
L 90.13 -94.534154 
L 90.13 -95.85487 
L 90.13 -97.175585 
L 90.13 -98.496301 
L 90.13 -99.817017 
L 90.13 -101.137732 
L 90.13 -102.458448 
L 90.13 -103.779164 
L 90.13 -105.099879 
L 90.13 -106.420595 
L 90.13 -107.741311 
L 90.13 -109.062026 
L 90.13 -110.382742 
L 90.13 -111.703458 
L 90.13 -113.024173 
L 90.13 -114.344889 
L 90.13 -115.665604 
L 90.13 -116.98632 
L 90.13 -118.307036 
L 90.13 -119.627751 
L 90.13 -120.948467 
L 90.13 -122.269183 
L 90.13 -123.589898 
L 90.13 -124.910614 
L 90.13 -126.23133 
L 90.13 -127.552045 
L 90.13 -128.872761 
L 90.13 -130.193477 
L 90.13 -131.514192 
L 90.13 -132.834908 
L 90.13 -134.155623 
L 90.13 -135.476339 
L 90.13 -136.797055 
L 90.13 -138.11777 
L 90.13 -139.438486 
L 90.13 -140.759202 
L 90.13 -142.079917 
L 90.13 -143.400633 
L 90.13 -144.721349 
L 90.13 -146.042064 
L 90.13 -147.36278 
L 90.13 -148.683496 
L 90.13 -150.004211 
L 90.13 -151.324927 
L 90.13 -152.645642 
L 90.13 -153.966358 
L 90.13 -155.287074 
L 90.13 -156.607789 
L 90.13 -157.928505 
L 90.13 -159.249221 
L 90.13 -160.569936 
L 90.13 -161.890652 
L 90.13 -163.211368 
L 90.13 -164.532083 
L 90.13 -165.852799 
L 90.13 -167.173515 
L 90.13 -168.49423 
L 90.13 -169.814946 
L 90.13 -171.135661 
L 90.13 -172.456377 
L 90.13 -173.777093 
L 90.13 -175.097808 
L 90.13 -176.418524 
L 90.13 -177.73924 
L 90.13 -179.059955 
L 90.13 -180.380671 
L 90.13 -181.701387 
L 90.13 -183.022102 
L 90.13 -184.342818 
L 90.13 -185.663534 
L 90.13 -186.984249 
L 90.13 -188.304965 
L 90.13 -189.62568 
L 90.13 -190.946396 
L 90.13 -192.267112 
L 90.13 -193.587827 
L 90.13 -194.908543 
L 90.13 -196.229259 
L 90.13 -197.549974 
L 90.322961 -197.549974 
L 90.322961 -197.549974 
L 90.381028 -196.229259 
L 90.450929 -194.908543 
L 90.533292 -193.587827 
L 90.628265 -192.267112 
L 90.735438 -190.946396 
L 90.853801 -189.62568 
L 90.981769 -188.304965 
L 91.117281 -186.984249 
L 91.257969 -185.663534 
L 91.401382 -184.342818 
L 91.545259 -183.022102 
L 91.687786 -181.701387 
L 91.827819 -180.380671 
L 91.965035 -179.059955 
L 92.09996 -177.73924 
L 92.233876 -176.418524 
L 92.368605 -175.097808 
L 92.506196 -173.777093 
L 92.648561 -172.456377 
L 92.797115 -171.135661 
L 92.952502 -169.814946 
L 93.114434 -168.49423 
L 93.281706 -167.173515 
L 93.452389 -165.852799 
L 93.62417 -164.532083 
L 93.794815 -163.211368 
L 93.96266 -161.890652 
L 94.12707 -160.569936 
L 94.288777 -159.249221 
L 94.450044 -157.928505 
L 94.61463 -156.607789 
L 94.787542 -155.287074 
L 94.974629 -153.966358 
L 95.182057 -152.645642 
L 95.415756 -151.324927 
L 95.680913 -150.004211 
L 95.981573 -148.683496 
L 96.320414 -147.36278 
L 96.698698 -146.042064 
L 97.116411 -144.721349 
L 97.572561 -143.400633 
L 98.065579 -142.079917 
L 98.593777 -140.759202 
L 99.155786 -139.438486 
L 99.750934 -138.11777 
L 100.379493 -136.797055 
L 101.042782 -135.476339 
L 101.743083 -134.155623 
L 102.4834 -132.834908 
L 103.267044 -131.514192 
L 104.097118 -130.193477 
L 104.97593 -128.872761 
L 105.904423 -127.552045 
L 106.881676 -126.23133 
L 107.904563 -124.910614 
L 108.967599 -123.589898 
L 110.063022 -122.269183 
L 111.18108 -120.948467 
L 112.310496 -119.627751 
L 113.43902 -118.307036 
L 114.55399 -116.98632 
L 115.642786 -115.665604 
L 116.693105 -114.344889 
L 117.693004 -113.024173 
L 118.630721 -111.703458 
L 119.494296 -110.382742 
L 120.271119 -109.062026 
L 120.947496 -107.741311 
L 121.508384 -106.420595 
L 121.937391 -105.099879 
L 122.217128 -103.779164 
L 122.329928 -102.458448 
L 122.258882 -101.137732 
L 121.989124 -99.817017 
L 121.509205 -98.496301 
L 120.812422 -97.175585 
L 119.897935 -95.85487 
L 118.771561 -94.534154 
L 117.446127 -93.213439 
L 115.941355 -91.892723 
L 114.283277 -90.572007 
L 112.503207 -89.251292 
L 110.636377 -87.930576 
L 108.720327 -86.60986 
L 106.793167 -85.289145 
L 104.891856 -83.968429 
L 103.050594 -82.647713 
L 101.299446 -81.326998 
L 99.663275 -80.006282 
L 98.161042 -78.685566 
L 96.80549 -77.364851 
L 95.603221 -76.044135 
L 94.555103 -74.72342 
L 93.656969 -73.402704 
L 92.900516 -72.081988 
L 92.27432 -70.761273 
L 91.76487 -69.440557 
L 91.35756 -68.119841 
L 91.037561 -66.799126 
z
" id="mf2148ea05e" style="stroke:#5f5f5f;"/>
    </defs>
    <g clip-path="url(#pcd3edf8b9d)">
     <use style="fill:#ea8e83;stroke:#5f5f5f;" x="0" xlink:href="#mf2148ea05e" y="267.549062"/>
    </g>
   </g>
   <g id="PolyCollection_3">
    <defs>
     <path d="M 173.83 -52.882021 
L 173.214786 -52.882021 
L 173.046417 -54.407566 
L 172.840781 -55.933112 
L 172.59205 -57.458658 
L 172.294067 -58.984203 
L 171.940469 -60.509749 
L 171.524836 -62.035294 
L 171.04088 -63.56084 
L 170.482661 -65.086386 
L 169.844839 -66.611931 
L 169.122943 -68.137477 
L 168.313666 -69.663023 
L 167.41517 -71.188568 
L 166.427389 -72.714114 
L 165.352317 -74.23966 
L 164.19427 -75.765205 
L 162.960107 -77.290751 
L 161.659375 -78.816297 
L 160.30439 -80.341842 
L 158.910204 -81.867388 
L 157.494469 -83.392933 
L 156.077174 -84.918479 
L 154.680254 -86.444025 
L 153.327074 -87.96957 
L 152.041795 -89.495116 
L 150.848642 -91.020662 
L 149.771108 -92.546207 
L 148.831111 -94.071753 
L 148.048164 -95.597299 
L 147.438588 -97.122844 
L 147.014817 -98.64839 
L 146.784841 -100.173936 
L 146.751809 -101.699481 
L 146.913832 -103.225027 
L 147.264002 -104.750573 
L 147.790622 -106.276118 
L 148.477641 -107.801664 
L 149.305282 -109.327209 
L 150.250817 -110.852755 
L 151.289462 -112.378301 
L 152.395333 -113.903846 
L 153.542429 -115.429392 
L 154.705578 -116.954938 
L 155.861314 -118.480483 
L 156.988635 -120.006029 
L 158.069625 -121.531575 
L 159.089895 -123.05712 
L 160.038853 -124.582666 
L 160.909778 -126.108212 
L 161.699721 -127.633757 
L 162.409236 -129.159303 
L 163.04196 -130.684848 
L 163.604083 -132.210394 
L 164.103725 -133.73594 
L 164.550265 -135.261485 
L 164.953663 -136.787031 
L 165.323802 -138.312577 
L 165.669894 -139.838122 
L 165.999976 -141.363668 
L 166.320534 -142.889214 
L 166.636249 -144.414759 
L 166.9499 -145.940305 
L 167.262403 -147.465851 
L 167.572989 -148.991396 
L 167.879489 -150.516942 
L 168.178716 -152.042487 
L 168.466886 -153.568033 
L 168.740075 -155.093579 
L 168.994648 -156.619124 
L 169.227639 -158.14467 
L 169.437061 -159.670216 
L 169.622115 -161.195761 
L 169.783285 -162.721307 
L 169.922329 -164.246853 
L 170.042161 -165.772398 
L 170.146641 -167.297944 
L 170.2403 -168.82349 
L 170.32802 -170.349035 
L 170.414695 -171.874581 
L 170.504908 -173.400127 
L 170.602645 -174.925672 
L 170.711059 -176.451218 
L 170.832315 -177.976763 
L 170.967506 -179.502309 
L 171.116649 -181.027855 
L 171.278759 -182.5534 
L 171.451976 -184.078946 
L 171.633751 -185.604492 
L 171.821048 -187.130037 
L 172.010569 -188.655583 
L 172.198965 -190.181129 
L 172.38303 -191.706674 
L 172.559867 -193.23222 
L 172.727006 -194.757766 
L 172.88249 -196.283311 
L 173.024912 -197.808857 
L 173.153416 -199.334402 
L 173.267664 -200.859948 
L 173.367783 -202.385494 
L 173.454285 -203.911039 
L 173.83 -203.911039 
L 173.83 -203.911039 
L 173.83 -202.385494 
L 173.83 -200.859948 
L 173.83 -199.334402 
L 173.83 -197.808857 
L 173.83 -196.283311 
L 173.83 -194.757766 
L 173.83 -193.23222 
L 173.83 -191.706674 
L 173.83 -190.181129 
L 173.83 -188.655583 
L 173.83 -187.130037 
L 173.83 -185.604492 
L 173.83 -184.078946 
L 173.83 -182.5534 
L 173.83 -181.027855 
L 173.83 -179.502309 
L 173.83 -177.976763 
L 173.83 -176.451218 
L 173.83 -174.925672 
L 173.83 -173.400127 
L 173.83 -171.874581 
L 173.83 -170.349035 
L 173.83 -168.82349 
L 173.83 -167.297944 
L 173.83 -165.772398 
L 173.83 -164.246853 
L 173.83 -162.721307 
L 173.83 -161.195761 
L 173.83 -159.670216 
L 173.83 -158.14467 
L 173.83 -156.619124 
L 173.83 -155.093579 
L 173.83 -153.568033 
L 173.83 -152.042487 
L 173.83 -150.516942 
L 173.83 -148.991396 
L 173.83 -147.465851 
L 173.83 -145.940305 
L 173.83 -144.414759 
L 173.83 -142.889214 
L 173.83 -141.363668 
L 173.83 -139.838122 
L 173.83 -138.312577 
L 173.83 -136.787031 
L 173.83 -135.261485 
L 173.83 -133.73594 
L 173.83 -132.210394 
L 173.83 -130.684848 
L 173.83 -129.159303 
L 173.83 -127.633757 
L 173.83 -126.108212 
L 173.83 -124.582666 
L 173.83 -123.05712 
L 173.83 -121.531575 
L 173.83 -120.006029 
L 173.83 -118.480483 
L 173.83 -116.954938 
L 173.83 -115.429392 
L 173.83 -113.903846 
L 173.83 -112.378301 
L 173.83 -110.852755 
L 173.83 -109.327209 
L 173.83 -107.801664 
L 173.83 -106.276118 
L 173.83 -104.750573 
L 173.83 -103.225027 
L 173.83 -101.699481 
L 173.83 -100.173936 
L 173.83 -98.64839 
L 173.83 -97.122844 
L 173.83 -95.597299 
L 173.83 -94.071753 
L 173.83 -92.546207 
L 173.83 -91.020662 
L 173.83 -89.495116 
L 173.83 -87.96957 
L 173.83 -86.444025 
L 173.83 -84.918479 
L 173.83 -83.392933 
L 173.83 -81.867388 
L 173.83 -80.341842 
L 173.83 -78.816297 
L 173.83 -77.290751 
L 173.83 -75.765205 
L 173.83 -74.23966 
L 173.83 -72.714114 
L 173.83 -71.188568 
L 173.83 -69.663023 
L 173.83 -68.137477 
L 173.83 -66.611931 
L 173.83 -65.086386 
L 173.83 -63.56084 
L 173.83 -62.035294 
L 173.83 -60.509749 
L 173.83 -58.984203 
L 173.83 -57.458658 
L 173.83 -55.933112 
L 173.83 -54.407566 
L 173.83 -52.882021 
z
" id="mfa1f0b7941" style="stroke:#5f5f5f;"/>
    </defs>
    <g clip-path="url(#pcd3edf8b9d)">
     <use style="fill:#b588b5;stroke:#5f5f5f;" x="0" xlink:href="#mfa1f0b7941" y="267.549062"/>
    </g>
   </g>
   <g id="PolyCollection_4">
    <defs>
     <path d="M 175.972295 -79.014717 
L 173.83 -79.014717 
L 173.83 -79.718291 
L 173.83 -80.421866 
L 173.83 -81.12544 
L 173.83 -81.829014 
L 173.83 -82.532588 
L 173.83 -83.236162 
L 173.83 -83.939737 
L 173.83 -84.643311 
L 173.83 -85.346885 
L 173.83 -86.050459 
L 173.83 -86.754033 
L 173.83 -87.457608 
L 173.83 -88.161182 
L 173.83 -88.864756 
L 173.83 -89.56833 
L 173.83 -90.271904 
L 173.83 -90.975479 
L 173.83 -91.679053 
L 173.83 -92.382627 
L 173.83 -93.086201 
L 173.83 -93.789775 
L 173.83 -94.49335 
L 173.83 -95.196924 
L 173.83 -95.900498 
L 173.83 -96.604072 
L 173.83 -97.307646 
L 173.83 -98.011221 
L 173.83 -98.714795 
L 173.83 -99.418369 
L 173.83 -100.121943 
L 173.83 -100.825517 
L 173.83 -101.529092 
L 173.83 -102.232666 
L 173.83 -102.93624 
L 173.83 -103.639814 
L 173.83 -104.343388 
L 173.83 -105.046963 
L 173.83 -105.750537 
L 173.83 -106.454111 
L 173.83 -107.157685 
L 173.83 -107.861259 
L 173.83 -108.564834 
L 173.83 -109.268408 
L 173.83 -109.971982 
L 173.83 -110.675556 
L 173.83 -111.37913 
L 173.83 -112.082705 
L 173.83 -112.786279 
L 173.83 -113.489853 
L 173.83 -114.193427 
L 173.83 -114.897001 
L 173.83 -115.600575 
L 173.83 -116.30415 
L 173.83 -117.007724 
L 173.83 -117.711298 
L 173.83 -118.414872 
L 173.83 -119.118446 
L 173.83 -119.822021 
L 173.83 -120.525595 
L 173.83 -121.229169 
L 173.83 -121.932743 
L 173.83 -122.636317 
L 173.83 -123.339892 
L 173.83 -124.043466 
L 173.83 -124.74704 
L 173.83 -125.450614 
L 173.83 -126.154188 
L 173.83 -126.857763 
L 173.83 -127.561337 
L 173.83 -128.264911 
L 173.83 -128.968485 
L 173.83 -129.672059 
L 173.83 -130.375634 
L 173.83 -131.079208 
L 173.83 -131.782782 
L 173.83 -132.486356 
L 173.83 -133.18993 
L 173.83 -133.893505 
L 173.83 -134.597079 
L 173.83 -135.300653 
L 173.83 -136.004227 
L 173.83 -136.707801 
L 173.83 -137.411376 
L 173.83 -138.11495 
L 173.83 -138.818524 
L 173.83 -139.522098 
L 173.83 -140.225672 
L 173.83 -140.929247 
L 173.83 -141.632821 
L 173.83 -142.336395 
L 173.83 -143.039969 
L 173.83 -143.743543 
L 173.83 -144.447118 
L 173.83 -145.150692 
L 173.83 -145.854266 
L 173.83 -146.55784 
L 173.83 -147.261414 
L 173.83 -147.964989 
L 173.83 -148.668563 
L 177.470158 -148.668563 
L 177.470158 -148.668563 
L 177.997546 -147.964989 
L 178.579921 -147.261414 
L 179.219408 -146.55784 
L 179.917623 -145.854266 
L 180.675577 -145.150692 
L 181.493589 -144.447118 
L 182.3712 -143.743543 
L 183.3071 -143.039969 
L 184.299062 -142.336395 
L 185.343906 -141.632821 
L 186.437462 -140.929247 
L 187.574575 -140.225672 
L 188.749121 -139.522098 
L 189.954056 -138.818524 
L 191.181486 -138.11495 
L 192.422769 -137.411376 
L 193.668643 -136.707801 
L 194.909372 -136.004227 
L 196.134921 -135.300653 
L 197.33514 -134.597079 
L 198.499972 -133.893505 
L 199.619655 -133.18993 
L 200.684936 -132.486356 
L 201.687271 -131.782782 
L 202.619026 -131.079208 
L 203.473645 -130.375634 
L 204.245804 -129.672059 
L 204.931532 -128.968485 
L 205.528301 -128.264911 
L 206.035076 -127.561337 
L 206.452322 -126.857763 
L 206.781978 -126.154188 
L 207.027385 -125.450614 
L 207.193175 -124.74704 
L 207.285129 -124.043466 
L 207.31 -123.339892 
L 207.275309 -122.636317 
L 207.189129 -121.932743 
L 207.059848 -121.229169 
L 206.895932 -120.525595 
L 206.705692 -119.822021 
L 206.497055 -119.118446 
L 206.277358 -118.414872 
L 206.05316 -117.711298 
L 205.830085 -117.007724 
L 205.612695 -116.30415 
L 205.404401 -115.600575 
L 205.207405 -114.897001 
L 205.02269 -114.193427 
L 204.850031 -113.489853 
L 204.688057 -112.786279 
L 204.534334 -112.082705 
L 204.385481 -111.37913 
L 204.237304 -110.675556 
L 204.084957 -109.971982 
L 203.923109 -109.268408 
L 203.746122 -108.564834 
L 203.548233 -107.861259 
L 203.323728 -107.157685 
L 203.067114 -106.454111 
L 202.773276 -105.750537 
L 202.437624 -105.046963 
L 202.056212 -104.343388 
L 201.625844 -103.639814 
L 201.144156 -102.93624 
L 200.609673 -102.232666 
L 200.021841 -101.529092 
L 199.381038 -100.825517 
L 198.688562 -100.121943 
L 197.946597 -99.418369 
L 197.158157 -98.714795 
L 196.327018 -98.011221 
L 195.457633 -97.307646 
L 194.555032 -96.604072 
L 193.624716 -95.900498 
L 192.672549 -95.196924 
L 191.704635 -94.49335 
L 190.727209 -93.789775 
L 189.746518 -93.086201 
L 188.768717 -92.382627 
L 187.799764 -91.679053 
L 186.845333 -90.975479 
L 185.910725 -90.271904 
L 185.000806 -89.56833 
L 184.119946 -88.864756 
L 183.271979 -88.161182 
L 182.46017 -87.457608 
L 181.687202 -86.754033 
L 180.955173 -86.050459 
L 180.2656 -85.346885 
L 179.619441 -84.643311 
L 179.017124 -83.939737 
L 178.458583 -83.236162 
L 177.9433 -82.532588 
L 177.470353 -81.829014 
L 177.038469 -81.12544 
L 176.646076 -80.421866 
L 176.291355 -79.718291 
L 175.972295 -79.014717 
z
" id="mf14fb210a8" style="stroke:#5f5f5f;"/>
    </defs>
    <g clip-path="url(#pcd3edf8b9d)">
     <use style="fill:#ea8e83;stroke:#5f5f5f;" x="0" xlink:href="#mf14fb210a8" y="267.549062"/>
    </g>
   </g>
   <g id="PolyCollection_5">
    <defs>
     <path d="M 257.53 -48.416293 
L 257.354194 -48.416293 
L 257.293179 -50.250594 
L 257.215832 -52.084894 
L 257.119199 -53.919195 
L 257.000035 -55.753495 
L 256.854736 -57.587796 
L 256.679235 -59.422097 
L 256.468849 -61.256397 
L 256.218112 -63.090698 
L 255.920598 -64.924998 
L 255.568814 -66.759299 
L 255.154192 -68.593599 
L 254.667262 -70.4279 
L 254.098061 -72.2622 
L 253.436801 -74.096501 
L 252.674818 -75.930801 
L 251.805741 -77.765102 
L 250.826802 -79.599402 
L 249.740139 -81.433703 
L 248.553918 -83.268004 
L 247.283095 -85.102304 
L 245.949642 -86.936605 
L 244.582094 -88.770905 
L 243.21438 -90.605206 
L 241.883948 -92.439506 
L 240.629315 -94.273807 
L 239.48725 -96.108107 
L 238.489888 -97.942408 
L 237.662062 -99.776708 
L 237.019191 -101.611009 
L 236.565961 -103.445309 
L 236.295997 -105.27961 
L 236.192571 -107.113911 
L 236.230311 -108.948211 
L 236.377718 -110.782512 
L 236.600243 -112.616812 
L 236.863593 -114.451113 
L 237.136905 -116.285413 
L 237.395483 -118.119714 
L 237.622815 -119.954014 
L 237.811697 -121.788315 
L 237.964383 -123.622615 
L 238.09179 -125.456916 
L 238.211879 -127.291216 
L 238.347419 -129.125517 
L 238.52337 -130.959818 
L 238.764177 -132.794118 
L 239.091222 -134.628419 
L 239.520683 -136.462719 
L 240.061965 -138.29702 
L 240.716835 -140.13132 
L 241.479289 -141.965621 
L 242.336127 -143.799921 
L 243.268139 -145.634222 
L 244.251756 -147.468522 
L 245.260987 -149.302823 
L 246.26944 -151.137124 
L 247.252241 -152.971424 
L 248.187676 -154.805725 
L 249.058433 -156.640025 
L 249.852352 -158.474326 
L 250.562669 -160.308626 
L 251.187766 -162.142927 
L 251.730519 -163.977227 
L 252.19734 -165.811528 
L 252.597057 -167.645828 
L 252.939759 -169.480129 
L 253.235734 -171.314429 
L 253.494595 -173.14873 
L 253.724658 -174.983031 
L 253.932591 -176.817331 
L 254.123329 -178.651632 
L 254.300201 -180.485932 
L 254.465222 -182.320233 
L 254.619478 -184.154533 
L 254.76353 -185.988834 
L 254.8978 -187.823134 
L 255.022877 -189.657435 
L 255.139721 -191.491735 
L 255.249765 -193.326036 
L 255.354893 -195.160336 
L 255.457325 -196.994637 
L 255.559429 -198.828938 
L 255.663474 -200.663238 
L 255.771382 -202.497539 
L 255.884504 -204.331839 
L 256.003443 -206.16614 
L 256.127973 -208.00044 
L 256.257041 -209.834741 
L 256.388873 -211.669041 
L 256.52115 -213.503342 
L 256.651249 -215.337642 
L 256.776496 -217.171943 
L 256.894415 -219.006243 
L 257.002933 -220.840544 
L 257.100523 -222.674845 
L 257.186276 -224.509145 
L 257.259902 -226.343446 
L 257.321673 -228.177746 
L 257.372321 -230.012047 
L 257.53 -230.012047 
L 257.53 -230.012047 
L 257.53 -228.177746 
L 257.53 -226.343446 
L 257.53 -224.509145 
L 257.53 -222.674845 
L 257.53 -220.840544 
L 257.53 -219.006243 
L 257.53 -217.171943 
L 257.53 -215.337642 
L 257.53 -213.503342 
L 257.53 -211.669041 
L 257.53 -209.834741 
L 257.53 -208.00044 
L 257.53 -206.16614 
L 257.53 -204.331839 
L 257.53 -202.497539 
L 257.53 -200.663238 
L 257.53 -198.828938 
L 257.53 -196.994637 
L 257.53 -195.160336 
L 257.53 -193.326036 
L 257.53 -191.491735 
L 257.53 -189.657435 
L 257.53 -187.823134 
L 257.53 -185.988834 
L 257.53 -184.154533 
L 257.53 -182.320233 
L 257.53 -180.485932 
L 257.53 -178.651632 
L 257.53 -176.817331 
L 257.53 -174.983031 
L 257.53 -173.14873 
L 257.53 -171.314429 
L 257.53 -169.480129 
L 257.53 -167.645828 
L 257.53 -165.811528 
L 257.53 -163.977227 
L 257.53 -162.142927 
L 257.53 -160.308626 
L 257.53 -158.474326 
L 257.53 -156.640025 
L 257.53 -154.805725 
L 257.53 -152.971424 
L 257.53 -151.137124 
L 257.53 -149.302823 
L 257.53 -147.468522 
L 257.53 -145.634222 
L 257.53 -143.799921 
L 257.53 -141.965621 
L 257.53 -140.13132 
L 257.53 -138.29702 
L 257.53 -136.462719 
L 257.53 -134.628419 
L 257.53 -132.794118 
L 257.53 -130.959818 
L 257.53 -129.125517 
L 257.53 -127.291216 
L 257.53 -125.456916 
L 257.53 -123.622615 
L 257.53 -121.788315 
L 257.53 -119.954014 
L 257.53 -118.119714 
L 257.53 -116.285413 
L 257.53 -114.451113 
L 257.53 -112.616812 
L 257.53 -110.782512 
L 257.53 -108.948211 
L 257.53 -107.113911 
L 257.53 -105.27961 
L 257.53 -103.445309 
L 257.53 -101.611009 
L 257.53 -99.776708 
L 257.53 -97.942408 
L 257.53 -96.108107 
L 257.53 -94.273807 
L 257.53 -92.439506 
L 257.53 -90.605206 
L 257.53 -88.770905 
L 257.53 -86.936605 
L 257.53 -85.102304 
L 257.53 -83.268004 
L 257.53 -81.433703 
L 257.53 -79.599402 
L 257.53 -77.765102 
L 257.53 -75.930801 
L 257.53 -74.096501 
L 257.53 -72.2622 
L 257.53 -70.4279 
L 257.53 -68.593599 
L 257.53 -66.759299 
L 257.53 -64.924998 
L 257.53 -63.090698 
L 257.53 -61.256397 
L 257.53 -59.422097 
L 257.53 -57.587796 
L 257.53 -55.753495 
L 257.53 -53.919195 
L 257.53 -52.084894 
L 257.53 -50.250594 
L 257.53 -48.416293 
z
" id="m1fc4fd7698" style="stroke:#5f5f5f;"/>
    </defs>
    <g clip-path="url(#pcd3edf8b9d)">
     <use style="fill:#b588b5;stroke:#5f5f5f;" x="0" xlink:href="#m1fc4fd7698" y="267.549062"/>
    </g>
   </g>
   <g id="PolyCollection_6">
    <defs>
     <path d="M 257.857591 -63.001514 
L 257.53 -63.001514 
L 257.53 -64.587837 
L 257.53 -66.174159 
L 257.53 -67.760481 
L 257.53 -69.346804 
L 257.53 -70.933126 
L 257.53 -72.519448 
L 257.53 -74.105771 
L 257.53 -75.692093 
L 257.53 -77.278415 
L 257.53 -78.864738 
L 257.53 -80.45106 
L 257.53 -82.037382 
L 257.53 -83.623705 
L 257.53 -85.210027 
L 257.53 -86.796349 
L 257.53 -88.382672 
L 257.53 -89.968994 
L 257.53 -91.555316 
L 257.53 -93.141639 
L 257.53 -94.727961 
L 257.53 -96.314283 
L 257.53 -97.900606 
L 257.53 -99.486928 
L 257.53 -101.07325 
L 257.53 -102.659573 
L 257.53 -104.245895 
L 257.53 -105.832217 
L 257.53 -107.41854 
L 257.53 -109.004862 
L 257.53 -110.591184 
L 257.53 -112.177507 
L 257.53 -113.763829 
L 257.53 -115.350151 
L 257.53 -116.936474 
L 257.53 -118.522796 
L 257.53 -120.109118 
L 257.53 -121.695441 
L 257.53 -123.281763 
L 257.53 -124.868085 
L 257.53 -126.454408 
L 257.53 -128.04073 
L 257.53 -129.627052 
L 257.53 -131.213375 
L 257.53 -132.799697 
L 257.53 -134.386019 
L 257.53 -135.972342 
L 257.53 -137.558664 
L 257.53 -139.144986 
L 257.53 -140.731309 
L 257.53 -142.317631 
L 257.53 -143.903954 
L 257.53 -145.490276 
L 257.53 -147.076598 
L 257.53 -148.662921 
L 257.53 -150.249243 
L 257.53 -151.835565 
L 257.53 -153.421888 
L 257.53 -155.00821 
L 257.53 -156.594532 
L 257.53 -158.180855 
L 257.53 -159.767177 
L 257.53 -161.353499 
L 257.53 -162.939822 
L 257.53 -164.526144 
L 257.53 -166.112466 
L 257.53 -167.698789 
L 257.53 -169.285111 
L 257.53 -170.871433 
L 257.53 -172.457756 
L 257.53 -174.044078 
L 257.53 -175.6304 
L 257.53 -177.216723 
L 257.53 -178.803045 
L 257.53 -180.389367 
L 257.53 -181.97569 
L 257.53 -183.562012 
L 257.53 -185.148334 
L 257.53 -186.734657 
L 257.53 -188.320979 
L 257.53 -189.907301 
L 257.53 -191.493624 
L 257.53 -193.079946 
L 257.53 -194.666268 
L 257.53 -196.252591 
L 257.53 -197.838913 
L 257.53 -199.425235 
L 257.53 -201.011558 
L 257.53 -202.59788 
L 257.53 -204.184202 
L 257.53 -205.770525 
L 257.53 -207.356847 
L 257.53 -208.943169 
L 257.53 -210.529492 
L 257.53 -212.115814 
L 257.53 -213.702136 
L 257.53 -215.288459 
L 257.53 -216.874781 
L 257.53 -218.461103 
L 257.53 -220.047426 
L 257.853197 -220.047426 
L 257.853197 -220.047426 
L 257.953827 -218.461103 
L 258.075085 -216.874781 
L 258.217554 -215.288459 
L 258.380618 -213.702136 
L 258.562224 -212.115814 
L 258.758738 -210.529492 
L 258.964954 -208.943169 
L 259.174272 -207.356847 
L 259.379068 -205.770525 
L 259.571236 -204.184202 
L 259.742853 -202.59788 
L 259.886919 -201.011558 
L 259.998063 -199.425235 
L 260.073134 -197.838913 
L 260.111601 -196.252591 
L 260.11568 -194.666268 
L 260.090177 -193.079946 
L 260.042049 -191.493624 
L 259.979738 -189.907301 
L 259.912346 -188.320979 
L 259.848773 -186.734657 
L 259.796905 -185.148334 
L 259.762962 -183.562012 
L 259.751066 -181.97569 
L 259.763074 -180.389367 
L 259.798677 -178.803045 
L 259.85573 -177.216723 
L 259.930752 -175.6304 
L 260.019526 -174.044078 
L 260.117711 -172.457756 
L 260.221397 -170.871433 
L 260.327539 -169.285111 
L 260.434241 -167.698789 
L 260.540878 -166.112466 
L 260.648071 -164.526144 
L 260.757555 -162.939822 
L 260.871994 -161.353499 
L 260.994793 -159.767177 
L 261.129984 -158.180855 
L 261.282211 -156.594532 
L 261.456854 -155.00821 
L 261.660283 -153.421888 
L 261.900211 -151.835565 
L 262.186088 -150.249243 
L 262.52945 -148.662921 
L 262.944107 -147.076598 
L 263.44609 -145.490276 
L 264.053237 -143.903954 
L 264.784368 -142.317631 
L 265.658026 -140.731309 
L 266.690822 -139.144986 
L 267.895485 -137.558664 
L 269.27878 -135.972342 
L 270.839509 -134.386019 
L 272.566837 -132.799697 
L 274.439196 -131.213375 
L 276.423965 -129.627052 
L 278.47808 -128.04073 
L 280.549626 -126.454408 
L 282.58033 -124.868085 
L 284.508804 -123.281763 
L 286.274226 -121.695441 
L 287.820138 -120.109118 
L 289.09797 -118.522796 
L 290.069938 -116.936474 
L 290.711046 -115.350151 
L 291.01 -113.763829 
L 290.969012 -112.177507 
L 290.602569 -110.591184 
L 289.935377 -109.004862 
L 288.999774 -107.41854 
L 287.83294 -105.832217 
L 286.474204 -104.245895 
L 284.962735 -102.659573 
L 283.335773 -101.07325 
L 281.627502 -99.486928 
L 279.868515 -97.900606 
L 278.085798 -96.314283 
L 276.30306 -94.727961 
L 274.541231 -93.141639 
L 272.818983 -91.555316 
L 271.153125 -89.968994 
L 269.558815 -88.382672 
L 268.049557 -86.796349 
L 266.637028 -85.210027 
L 265.330787 -83.623705 
L 264.137959 -82.037382 
L 263.062967 -80.45106 
L 262.107383 -78.864738 
L 261.269938 -77.278415 
L 260.546698 -75.692093 
L 259.931398 -74.105771 
L 259.415893 -72.519448 
L 258.990681 -70.933126 
L 258.645458 -69.346804 
L 258.369636 -67.760481 
L 258.152809 -66.174159 
L 257.985131 -64.587837 
L 257.857591 -63.001514 
z
" id="mb18ca38f32" style="stroke:#5f5f5f;"/>
    </defs>
    <g clip-path="url(#pcd3edf8b9d)">
     <use style="fill:#ea8e83;stroke:#5f5f5f;" x="0" xlink:href="#mb18ca38f32" y="267.549062"/>
    </g>
   </g>
   <g id="PolyCollection_7">
    <defs>
     <path d="M 341.23 -54.195072 
L 340.724374 -54.195072 
L 340.594189 -55.877488 
L 340.43827 -57.559904 
L 340.253541 -59.242319 
L 340.03699 -60.924735 
L 339.78575 -62.607151 
L 339.49718 -64.289566 
L 339.168933 -65.971982 
L 338.799014 -67.654398 
L 338.385812 -69.336814 
L 337.928108 -71.019229 
L 337.425074 -72.701645 
L 336.876237 -74.384061 
L 336.281447 -76.066476 
L 335.640834 -77.748892 
L 334.954785 -79.431308 
L 334.223935 -81.113724 
L 333.449206 -82.796139 
L 332.631873 -84.478555 
L 331.773695 -86.160971 
L 330.877074 -87.843386 
L 329.945257 -89.525802 
L 328.982556 -91.208218 
L 327.994558 -92.890634 
L 326.988309 -94.573049 
L 325.972434 -96.255465 
L 324.957181 -97.937881 
L 323.954345 -99.620296 
L 322.977079 -101.302712 
L 322.039577 -102.985128 
L 321.156635 -104.667544 
L 320.343108 -106.349959 
L 319.613298 -108.032375 
L 318.980293 -109.714791 
L 318.455317 -111.397206 
L 318.047116 -113.079622 
L 317.761445 -114.762038 
L 317.600668 -116.444454 
L 317.563524 -118.126869 
L 317.64507 -119.809285 
L 317.836815 -121.491701 
L 318.127038 -123.174116 
L 318.501294 -124.856532 
L 318.943062 -126.538948 
L 319.434517 -128.221364 
L 319.957384 -129.903779 
L 320.493814 -131.586195 
L 321.027248 -133.268611 
L 321.543201 -134.951026 
L 322.029928 -136.633442 
L 322.478929 -138.315858 
L 322.885248 -139.998274 
L 323.247564 -141.680689 
L 323.568052 -143.363105 
L 323.852036 -145.045521 
L 324.107452 -146.727936 
L 324.34416 -148.410352 
L 324.573161 -150.092768 
L 324.805782 -151.775184 
L 325.05287 -153.457599 
L 325.324078 -155.140015 
L 325.627274 -156.822431 
L 325.968115 -158.504846 
L 326.349819 -160.187262 
L 326.773123 -161.869678 
L 327.236429 -163.552094 
L 327.736104 -165.234509 
L 328.266909 -166.916925 
L 328.822487 -168.599341 
L 329.395893 -170.281756 
L 329.980097 -171.964172 
L 330.568427 -173.646588 
L 331.154925 -175.329004 
L 331.734593 -177.011419 
L 332.303522 -178.693835 
L 332.858904 -180.376251 
L 333.398958 -182.058666 
L 333.922767 -183.741082 
L 334.43007 -185.423498 
L 334.921031 -187.105914 
L 335.396011 -188.788329 
L 335.855364 -190.470745 
L 336.299277 -192.153161 
L 336.727662 -193.835576 
L 337.140105 -195.517992 
L 337.535865 -197.200408 
L 337.913927 -198.882824 
L 338.273088 -200.565239 
L 338.612061 -202.247655 
L 338.929593 -203.930071 
L 339.224581 -205.612486 
L 339.496169 -207.294902 
L 339.743825 -208.977318 
L 339.967392 -210.659734 
L 340.167105 -212.342149 
L 340.343592 -214.024565 
L 340.497835 -215.706981 
L 340.631126 -217.389396 
L 340.744999 -219.071812 
L 340.841164 -220.754228 
L 341.23 -220.754228 
L 341.23 -220.754228 
L 341.23 -219.071812 
L 341.23 -217.389396 
L 341.23 -215.706981 
L 341.23 -214.024565 
L 341.23 -212.342149 
L 341.23 -210.659734 
L 341.23 -208.977318 
L 341.23 -207.294902 
L 341.23 -205.612486 
L 341.23 -203.930071 
L 341.23 -202.247655 
L 341.23 -200.565239 
L 341.23 -198.882824 
L 341.23 -197.200408 
L 341.23 -195.517992 
L 341.23 -193.835576 
L 341.23 -192.153161 
L 341.23 -190.470745 
L 341.23 -188.788329 
L 341.23 -187.105914 
L 341.23 -185.423498 
L 341.23 -183.741082 
L 341.23 -182.058666 
L 341.23 -180.376251 
L 341.23 -178.693835 
L 341.23 -177.011419 
L 341.23 -175.329004 
L 341.23 -173.646588 
L 341.23 -171.964172 
L 341.23 -170.281756 
L 341.23 -168.599341 
L 341.23 -166.916925 
L 341.23 -165.234509 
L 341.23 -163.552094 
L 341.23 -161.869678 
L 341.23 -160.187262 
L 341.23 -158.504846 
L 341.23 -156.822431 
L 341.23 -155.140015 
L 341.23 -153.457599 
L 341.23 -151.775184 
L 341.23 -150.092768 
L 341.23 -148.410352 
L 341.23 -146.727936 
L 341.23 -145.045521 
L 341.23 -143.363105 
L 341.23 -141.680689 
L 341.23 -139.998274 
L 341.23 -138.315858 
L 341.23 -136.633442 
L 341.23 -134.951026 
L 341.23 -133.268611 
L 341.23 -131.586195 
L 341.23 -129.903779 
L 341.23 -128.221364 
L 341.23 -126.538948 
L 341.23 -124.856532 
L 341.23 -123.174116 
L 341.23 -121.491701 
L 341.23 -119.809285 
L 341.23 -118.126869 
L 341.23 -116.444454 
L 341.23 -114.762038 
L 341.23 -113.079622 
L 341.23 -111.397206 
L 341.23 -109.714791 
L 341.23 -108.032375 
L 341.23 -106.349959 
L 341.23 -104.667544 
L 341.23 -102.985128 
L 341.23 -101.302712 
L 341.23 -99.620296 
L 341.23 -97.937881 
L 341.23 -96.255465 
L 341.23 -94.573049 
L 341.23 -92.890634 
L 341.23 -91.208218 
L 341.23 -89.525802 
L 341.23 -87.843386 
L 341.23 -86.160971 
L 341.23 -84.478555 
L 341.23 -82.796139 
L 341.23 -81.113724 
L 341.23 -79.431308 
L 341.23 -77.748892 
L 341.23 -76.066476 
L 341.23 -74.384061 
L 341.23 -72.701645 
L 341.23 -71.019229 
L 341.23 -69.336814 
L 341.23 -67.654398 
L 341.23 -65.971982 
L 341.23 -64.289566 
L 341.23 -62.607151 
L 341.23 -60.924735 
L 341.23 -59.242319 
L 341.23 -57.559904 
L 341.23 -55.877488 
L 341.23 -54.195072 
z
" id="m15e76b2991" style="stroke:#5f5f5f;"/>
    </defs>
    <g clip-path="url(#pcd3edf8b9d)">
     <use style="fill:#b588b5;stroke:#5f5f5f;" x="0" xlink:href="#m15e76b2991" y="267.549062"/>
    </g>
   </g>
   <g id="PolyCollection_8">
    <defs>
     <path d="M 341.947218 -70.13995 
L 341.23 -70.13995 
L 341.23 -71.619399 
L 341.23 -73.098849 
L 341.23 -74.578299 
L 341.23 -76.057748 
L 341.23 -77.537198 
L 341.23 -79.016648 
L 341.23 -80.496097 
L 341.23 -81.975547 
L 341.23 -83.454997 
L 341.23 -84.934447 
L 341.23 -86.413896 
L 341.23 -87.893346 
L 341.23 -89.372796 
L 341.23 -90.852245 
L 341.23 -92.331695 
L 341.23 -93.811145 
L 341.23 -95.290595 
L 341.23 -96.770044 
L 341.23 -98.249494 
L 341.23 -99.728944 
L 341.23 -101.208393 
L 341.23 -102.687843 
L 341.23 -104.167293 
L 341.23 -105.646742 
L 341.23 -107.126192 
L 341.23 -108.605642 
L 341.23 -110.085092 
L 341.23 -111.564541 
L 341.23 -113.043991 
L 341.23 -114.523441 
L 341.23 -116.00289 
L 341.23 -117.48234 
L 341.23 -118.96179 
L 341.23 -120.44124 
L 341.23 -121.920689 
L 341.23 -123.400139 
L 341.23 -124.879589 
L 341.23 -126.359038 
L 341.23 -127.838488 
L 341.23 -129.317938 
L 341.23 -130.797387 
L 341.23 -132.276837 
L 341.23 -133.756287 
L 341.23 -135.235737 
L 341.23 -136.715186 
L 341.23 -138.194636 
L 341.23 -139.674086 
L 341.23 -141.153535 
L 341.23 -142.632985 
L 341.23 -144.112435 
L 341.23 -145.591885 
L 341.23 -147.071334 
L 341.23 -148.550784 
L 341.23 -150.030234 
L 341.23 -151.509683 
L 341.23 -152.989133 
L 341.23 -154.468583 
L 341.23 -155.948033 
L 341.23 -157.427482 
L 341.23 -158.906932 
L 341.23 -160.386382 
L 341.23 -161.865831 
L 341.23 -163.345281 
L 341.23 -164.824731 
L 341.23 -166.30418 
L 341.23 -167.78363 
L 341.23 -169.26308 
L 341.23 -170.74253 
L 341.23 -172.221979 
L 341.23 -173.701429 
L 341.23 -175.180879 
L 341.23 -176.660328 
L 341.23 -178.139778 
L 341.23 -179.619228 
L 341.23 -181.098678 
L 341.23 -182.578127 
L 341.23 -184.057577 
L 341.23 -185.537027 
L 341.23 -187.016476 
L 341.23 -188.495926 
L 341.23 -189.975376 
L 341.23 -191.454825 
L 341.23 -192.934275 
L 341.23 -194.413725 
L 341.23 -195.893175 
L 341.23 -197.372624 
L 341.23 -198.852074 
L 341.23 -200.331524 
L 341.23 -201.810973 
L 341.23 -203.290423 
L 341.23 -204.769873 
L 341.23 -206.249323 
L 341.23 -207.728772 
L 341.23 -209.208222 
L 341.23 -210.687672 
L 341.23 -212.167121 
L 341.23 -213.646571 
L 341.23 -215.126021 
L 341.23 -216.60547 
L 341.410886 -216.60547 
L 341.410886 -216.60547 
L 341.471578 -215.126021 
L 341.545435 -213.646571 
L 341.632687 -212.167121 
L 341.732619 -210.687672 
L 341.843388 -209.208222 
L 341.961941 -207.728772 
L 342.084059 -206.249323 
L 342.204577 -204.769873 
L 342.317744 -203.290423 
L 342.417748 -201.810973 
L 342.499311 -200.331524 
L 342.558327 -198.852074 
L 342.592426 -197.372624 
L 342.601419 -195.893175 
L 342.587536 -194.413725 
L 342.555438 -192.934275 
L 342.511983 -191.454825 
L 342.46579 -189.975376 
L 342.42664 -188.495926 
L 342.404789 -187.016476 
L 342.410267 -185.537027 
L 342.452232 -184.057577 
L 342.538432 -182.578127 
L 342.674813 -181.098678 
L 342.865287 -179.619228 
L 343.111671 -178.139778 
L 343.41378 -176.660328 
L 343.769637 -175.180879 
L 344.175807 -173.701429 
L 344.627772 -172.221979 
L 345.120355 -170.74253 
L 345.64812 -169.26308 
L 346.205738 -167.78363 
L 346.788282 -166.30418 
L 347.391451 -164.824731 
L 348.011712 -163.345281 
L 348.646396 -161.865831 
L 349.293754 -160.386382 
L 349.95302 -158.906932 
L 350.624472 -157.427482 
L 351.309502 -155.948033 
L 352.010649 -154.468583 
L 352.731534 -152.989133 
L 353.476652 -151.509683 
L 354.250936 -150.030234 
L 355.059116 -148.550784 
L 355.904875 -147.071334 
L 356.789949 -145.591885 
L 357.713304 -144.112435 
L 358.670597 -142.632985 
L 359.654082 -141.153535 
L 360.653077 -139.674086 
L 361.654996 -138.194636 
L 362.646811 -136.715186 
L 363.616745 -135.235737 
L 364.555854 -133.756287 
L 365.459213 -132.276837 
L 366.326406 -130.797387 
L 367.161201 -129.317938 
L 367.970368 -127.838488 
L 368.761829 -126.359038 
L 369.542393 -124.879589 
L 370.315471 -123.400139 
L 371.079135 -121.920689 
L 371.824852 -120.44124 
L 372.537124 -118.96179 
L 373.194093 -117.48234 
L 373.76905 -116.00289 
L 374.232612 -114.523441 
L 374.55528 -113.043991 
L 374.71 -111.564541 
L 374.6744 -110.085092 
L 374.432433 -108.605642 
L 373.975267 -107.126192 
L 373.301405 -105.646742 
L 372.416136 -104.167293 
L 371.330526 -102.687843 
L 370.060197 -101.208393 
L 368.624162 -99.728944 
L 367.043892 -98.249494 
L 365.342733 -96.770044 
L 363.545649 -95.290595 
L 361.679174 -93.811145 
L 359.77141 -92.331695 
L 357.851866 -90.852245 
L 355.950983 -89.372796 
L 354.099287 -87.893346 
L 352.32618 -86.413896 
L 350.658509 -84.934447 
L 349.119104 -83.454997 
L 347.725498 -81.975547 
L 346.489036 -80.496097 
L 345.414494 -79.016648 
L 344.500267 -77.537198 
L 343.739068 -76.057748 
L 343.11904 -74.578299 
L 342.625088 -73.098849 
L 342.240294 -71.619399 
L 341.947218 -70.13995 
z
" id="mbeb957e7ec" style="stroke:#5f5f5f;"/>
    </defs>
    <g clip-path="url(#pcd3edf8b9d)">
     <use style="fill:#ea8e83;stroke:#5f5f5f;" x="0" xlink:href="#mbeb957e7ec" y="267.549062"/>
    </g>
   </g>
   <g id="patch_3">
    <path clip-path="url(#pcd3edf8b9d)" d="M 90.13 201.557813 
L 90.13 201.557813 
L 90.13 201.557813 
L 90.13 201.557813 
z
" style="fill:#b588b5;stroke:#5f5f5f;stroke-linejoin:miter;stroke-width:0.5;"/>
   </g>
   <g id="patch_4">
    <path clip-path="url(#pcd3edf8b9d)" d="M 90.13 201.557813 
L 90.13 201.557813 
L 90.13 201.557813 
L 90.13 201.557813 
z
" style="fill:#ea8e83;stroke:#5f5f5f;stroke-linejoin:miter;stroke-width:0.5;"/>
   </g>
   <g id="matplotlib.axis_1">
    <g id="xtick_1">
     <g id="line2d_1">
      <defs>
       <path d="M 0 0 
L 0 3.5 
" id="m6aa5374e7b" style="stroke:#323034;stroke-width:0.8;"/>
      </defs>
      <g>
       <use style="fill:#323034;stroke:#323034;stroke-width:0.8;" x="90.13" xlink:href="#m6aa5374e7b" y="228.737812"/>
      </g>
     </g>
     <g id="text_1">
      <!-- Thur -->
      <g style="fill:#323034;" transform="translate(78.466563 243.933437)scale(0.12 -0.12)">
       <defs>
        <path d="M 3795 3149 
L 3642 3149 
Q 3539 3674 3353 3821 
Q 3168 3968 2656 3968 
L 2278 3968 
L 2278 710 
Q 2278 346 2387 243 
Q 2496 141 2893 122 
L 2893 0 
L 1024 0 
L 1024 122 
Q 1427 147 1526 256 
Q 1626 365 1626 787 
L 1626 3968 
L 1242 3968 
Q 723 3968 540 3817 
Q 358 3667 262 3149 
L 109 3149 
L 154 4237 
L 3750 4237 
L 3795 3149 
z
" id="STIXGeneral-Regular-54" transform="scale(0.015625)"/>
        <path d="M 3117 0 
L 1760 0 
L 1760 96 
Q 2042 128 2118 224 
Q 2195 320 2195 653 
L 2195 1920 
Q 2195 2598 1722 2598 
Q 1530 2598 1370 2508 
Q 1210 2419 1005 2195 
L 1005 653 
Q 1005 320 1081 224 
Q 1158 128 1440 96 
L 1440 0 
L 58 0 
L 58 96 
Q 333 134 400 224 
Q 467 314 467 653 
L 467 3667 
Q 467 3872 406 3933 
Q 346 3994 141 3994 
Q 83 3994 64 3987 
L 64 4090 
L 237 4141 
Q 730 4288 973 4371 
L 1005 4352 
L 1005 2406 
Q 1229 2694 1446 2819 
Q 1664 2944 1946 2944 
Q 2733 2944 2733 1926 
L 2733 653 
Q 2733 320 2793 233 
Q 2854 147 3117 96 
L 3117 0 
z
" id="STIXGeneral-Regular-68" transform="scale(0.015625)"/>
        <path d="M 3072 320 
L 3072 230 
Q 2573 96 2195 -58 
L 2163 -38 
L 2163 486 
L 2150 486 
Q 1747 -64 1235 -64 
Q 870 -64 662 160 
Q 454 384 454 755 
L 454 2362 
Q 454 2598 371 2688 
Q 288 2778 58 2790 
L 58 2880 
L 992 2880 
L 992 813 
Q 992 595 1123 451 
Q 1254 307 1446 307 
Q 1760 307 1984 506 
Q 2067 582 2099 649 
Q 2131 717 2131 877 
L 2131 2355 
Q 2131 2605 2041 2678 
Q 1952 2752 1658 2771 
L 1658 2880 
L 2669 2880 
L 2669 685 
Q 2669 461 2742 390 
Q 2816 320 3034 320 
L 3072 320 
z
" id="STIXGeneral-Regular-75" transform="scale(0.015625)"/>
        <path d="M 1024 2931 
L 1024 2342 
Q 1267 2688 1430 2816 
Q 1594 2944 1792 2944 
Q 1958 2944 2051 2854 
Q 2144 2765 2144 2605 
Q 2144 2470 2077 2393 
Q 2010 2317 1894 2317 
Q 1773 2317 1638 2445 
Q 1536 2541 1472 2541 
Q 1338 2541 1181 2355 
Q 1024 2170 1024 2016 
L 1024 576 
Q 1024 301 1133 205 
Q 1242 109 1568 96 
L 1568 0 
L 32 0 
L 32 96 
Q 339 154 412 224 
Q 486 294 486 538 
L 486 2138 
Q 486 2349 438 2435 
Q 390 2522 269 2522 
Q 166 2522 45 2496 
L 45 2598 
Q 448 2726 992 2944 
L 1024 2931 
z
" id="STIXGeneral-Regular-72" transform="scale(0.015625)"/>
       </defs>
       <use xlink:href="#STIXGeneral-Regular-54"/>
       <use x="61.099991" xlink:href="#STIXGeneral-Regular-68"/>
       <use x="111.099976" xlink:href="#STIXGeneral-Regular-75"/>
       <use x="161.09996" xlink:href="#STIXGeneral-Regular-72"/>
      </g>
     </g>
    </g>
    <g id="xtick_2">
     <g id="line2d_2">
      <g>
       <use style="fill:#323034;stroke:#323034;stroke-width:0.8;" x="173.83" xlink:href="#m6aa5374e7b" y="228.737812"/>
      </g>
     </g>
     <g id="text_2">
      <!-- Fri -->
      <g style="fill:#323034;" transform="translate(166.82875 243.933437)scale(0.12 -0.12)">
       <defs>
        <path d="M 3494 3322 
L 3334 3322 
Q 3264 3757 3094 3875 
Q 2925 3994 2349 3994 
L 1504 3994 
Q 1370 3994 1328 3946 
Q 1286 3898 1286 3744 
L 1286 2355 
L 2195 2355 
Q 2598 2355 2736 2470 
Q 2874 2586 2918 2963 
L 3066 2963 
L 3066 1472 
L 2918 1472 
Q 2880 1862 2745 1977 
Q 2611 2093 2195 2093 
L 1286 2093 
L 1286 717 
Q 1286 352 1392 246 
Q 1498 141 1869 122 
L 1869 0 
L 70 0 
L 70 122 
Q 435 147 534 259 
Q 634 371 634 787 
L 634 3526 
Q 634 3878 538 3984 
Q 442 4090 77 4115 
L 77 4237 
L 3462 4237 
L 3494 3322 
z
" id="STIXGeneral-Regular-46" transform="scale(0.015625)"/>
        <path d="M 1152 4045 
Q 1152 3904 1056 3811 
Q 960 3718 819 3718 
Q 685 3718 592 3811 
Q 499 3904 499 4045 
Q 499 4179 595 4275 
Q 691 4371 826 4371 
Q 966 4371 1059 4275 
Q 1152 4179 1152 4045 
z
M 1619 0 
L 102 0 
L 102 96 
Q 435 115 521 211 
Q 608 307 608 666 
L 608 2118 
Q 608 2342 563 2432 
Q 518 2522 397 2522 
Q 243 2522 128 2490 
L 128 2592 
L 1120 2944 
L 1146 2918 
L 1146 672 
Q 1146 314 1226 218 
Q 1306 122 1619 96 
L 1619 0 
z
" id="STIXGeneral-Regular-69" transform="scale(0.015625)"/>
       </defs>
       <use xlink:href="#STIXGeneral-Regular-46"/>
       <use x="55.599991" xlink:href="#STIXGeneral-Regular-72"/>
       <use x="88.899979" xlink:href="#STIXGeneral-Regular-69"/>
      </g>
     </g>
    </g>
    <g id="xtick_3">
     <g id="line2d_3">
      <g>
       <use style="fill:#323034;stroke:#323034;stroke-width:0.8;" x="257.53" xlink:href="#m6aa5374e7b" y="228.737812"/>
      </g>
     </g>
     <g id="text_3">
      <!-- Sat -->
      <g style="fill:#323034;" transform="translate(249.862188 243.933437)scale(0.12 -0.12)">
       <defs>
        <path d="M 3002 2963 
L 2842 2963 
Q 2733 3360 2579 3565 
Q 2189 4064 1651 4064 
Q 1357 4064 1181 3894 
Q 1005 3725 1005 3456 
Q 1005 3328 1069 3206 
Q 1133 3085 1206 2998 
Q 1280 2912 1465 2784 
Q 1651 2656 1766 2589 
Q 1882 2522 2150 2362 
Q 2669 2061 2905 1763 
Q 3142 1466 3142 1107 
Q 3142 576 2771 243 
Q 2400 -90 1837 -90 
Q 1421 -90 1082 58 
Q 915 128 781 128 
Q 704 128 653 70 
Q 602 13 602 -83 
L 461 -83 
L 275 1274 
L 416 1274 
Q 845 141 1734 141 
Q 2074 141 2285 342 
Q 2496 544 2496 858 
Q 2496 1158 2310 1363 
Q 2003 1696 1235 2106 
Q 454 2522 454 3206 
Q 454 3718 768 4022 
Q 1082 4326 1568 4326 
Q 1907 4326 2240 4186 
Q 2413 4109 2522 4109 
Q 2688 4109 2726 4326 
L 2861 4326 
L 3002 2963 
z
" id="STIXGeneral-Regular-53" transform="scale(0.015625)"/>
        <path d="M 2829 422 
L 2829 243 
Q 2586 -64 2253 -64 
Q 1888 -64 1843 403 
L 1837 403 
Q 1427 -64 909 -64 
Q 608 -64 422 112 
Q 237 288 237 602 
Q 237 1050 685 1350 
Q 992 1555 1837 1869 
L 1837 2214 
Q 1837 2502 1699 2646 
Q 1562 2790 1338 2790 
Q 1146 2790 1018 2697 
Q 890 2605 890 2477 
Q 890 2419 909 2348 
Q 928 2278 928 2208 
Q 928 2112 841 2029 
Q 755 1946 634 1946 
Q 525 1946 441 2029 
Q 358 2112 358 2240 
Q 358 2547 685 2752 
Q 986 2944 1421 2944 
Q 1939 2944 2176 2656 
Q 2291 2522 2323 2384 
Q 2355 2246 2355 1946 
L 2355 723 
Q 2355 301 2554 301 
Q 2682 301 2829 422 
z
M 1837 813 
L 1837 1715 
Q 1248 1510 1018 1293 
Q 800 1094 800 800 
Q 800 557 921 432 
Q 1043 307 1242 307 
Q 1453 307 1613 410 
Q 1747 506 1792 589 
Q 1837 672 1837 813 
z
" id="STIXGeneral-Regular-61" transform="scale(0.015625)"/>
        <path d="M 1702 493 
L 1786 422 
Q 1478 -64 1011 -64 
Q 448 -64 448 749 
L 448 2675 
L 109 2675 
Q 83 2694 83 2720 
Q 83 2771 192 2842 
Q 435 2982 813 3526 
Q 826 3546 874 3606 
Q 922 3667 941 3706 
Q 986 3706 986 3622 
L 986 2880 
L 1632 2880 
L 1632 2675 
L 986 2675 
L 986 845 
Q 986 538 1062 403 
Q 1139 269 1318 269 
Q 1510 269 1702 493 
z
" id="STIXGeneral-Regular-74" transform="scale(0.015625)"/>
       </defs>
       <use xlink:href="#STIXGeneral-Regular-53"/>
       <use x="55.599991" xlink:href="#STIXGeneral-Regular-61"/>
       <use x="99.999985" xlink:href="#STIXGeneral-Regular-74"/>
      </g>
     </g>
    </g>
    <g id="xtick_4">
     <g id="line2d_4">
      <g>
       <use style="fill:#323034;stroke:#323034;stroke-width:0.8;" x="341.23" xlink:href="#m6aa5374e7b" y="228.737812"/>
      </g>
     </g>
     <g id="text_4">
      <!-- Sun -->
      <g style="fill:#323034;" transform="translate(331.894375 243.933437)scale(0.12 -0.12)">
       <defs>
        <path d="M 3104 0 
L 1773 0 
L 1779 96 
Q 2016 115 2096 233 
Q 2176 352 2176 672 
L 2176 1946 
Q 2176 2592 1709 2592 
Q 1549 2592 1408 2515 
Q 1267 2438 1050 2227 
L 1050 461 
Q 1050 269 1136 192 
Q 1222 115 1466 96 
L 1466 0 
L 115 0 
L 115 96 
Q 358 115 435 214 
Q 512 314 512 602 
L 512 2157 
Q 512 2394 467 2483 
Q 422 2573 288 2573 
Q 160 2573 102 2547 
L 102 2656 
Q 550 2784 979 2944 
L 1030 2925 
L 1030 2426 
L 1037 2426 
Q 1491 2944 1958 2944 
Q 2323 2944 2518 2688 
Q 2714 2432 2714 1958 
L 2714 544 
Q 2714 288 2790 205 
Q 2867 122 3104 96 
L 3104 0 
z
" id="STIXGeneral-Regular-6e" transform="scale(0.015625)"/>
       </defs>
       <use xlink:href="#STIXGeneral-Regular-53"/>
       <use x="55.599991" xlink:href="#STIXGeneral-Regular-75"/>
       <use x="105.599976" xlink:href="#STIXGeneral-Regular-6e"/>
      </g>
     </g>
    </g>
    <g id="text_5">
     <!-- day -->
     <g transform="translate(207.015625 257.733437)scale(0.12 -0.12)">
      <defs>
       <path d="M 3142 269 
L 2202 -64 
L 2176 -45 
L 2176 365 
Q 1869 -64 1357 -64 
Q 826 -64 499 317 
Q 173 698 173 1312 
Q 173 1990 563 2467 
Q 954 2944 1504 2944 
Q 1850 2944 2176 2669 
L 2176 3667 
Q 2176 3866 2118 3930 
Q 2061 3994 1882 3994 
Q 1792 3994 1741 3987 
L 1741 4090 
Q 2323 4243 2682 4371 
L 2714 4358 
L 2714 730 
Q 2714 506 2768 435 
Q 2822 365 2995 365 
Q 3034 365 3142 371 
L 3142 269 
z
M 2176 653 
L 2176 2125 
Q 2176 2381 1981 2573 
Q 1786 2765 1523 2765 
Q 1158 2765 940 2438 
Q 723 2112 723 1568 
Q 723 979 963 624 
Q 1203 269 1606 269 
Q 1907 269 2080 474 
Q 2176 582 2176 653 
z
" id="STIXGeneral-Regular-64" transform="scale(0.015625)"/>
       <path d="M 3040 2880 
L 3040 2784 
Q 2925 2771 2854 2700 
Q 2784 2630 2720 2458 
L 1760 -160 
Q 1510 -838 1257 -1116 
Q 1005 -1395 640 -1395 
Q 435 -1395 313 -1289 
Q 192 -1184 192 -1024 
Q 192 -902 272 -816 
Q 352 -730 467 -730 
Q 653 -730 800 -813 
Q 883 -858 966 -858 
Q 1101 -858 1286 -576 
Q 1376 -448 1459 -211 
Q 1542 26 1542 115 
Q 1542 198 1274 762 
L 429 2566 
Q 346 2752 90 2790 
L 90 2880 
L 1402 2880 
L 1402 2784 
Q 1197 2778 1117 2739 
Q 1037 2701 1037 2611 
Q 1037 2541 1120 2349 
L 1837 749 
L 2458 2515 
Q 2483 2573 2483 2630 
Q 2483 2784 2189 2784 
L 2189 2880 
L 3040 2880 
z
" id="STIXGeneral-Regular-79" transform="scale(0.015625)"/>
      </defs>
      <use xlink:href="#STIXGeneral-Regular-64"/>
      <use x="49.999985" xlink:href="#STIXGeneral-Regular-61"/>
      <use x="94.399979" xlink:href="#STIXGeneral-Regular-79"/>
     </g>
    </g>
   </g>
   <g id="matplotlib.axis_2">
    <g id="ytick_1">
     <g id="line2d_5">
      <defs>
       <path d="M 0 0 
L -3.5 0 
" id="m4568fbed14" style="stroke:#323034;stroke-width:0.8;"/>
      </defs>
      <g>
       <use style="fill:#323034;stroke:#323034;stroke-width:0.8;" x="48.28" xlink:href="#m4568fbed14" y="228.737813"/>
      </g>
     </g>
     <g id="text_6">
      <!-- $\mathdefault{10}$ -->
      <g style="fill:#323034;" transform="translate(21 232.835625)scale(0.12 -0.12)">
       <defs>
        <path d="M 3974 1408 
L 410 1408 
L 410 1830 
L 3974 1830 
L 3974 1408 
z
" id="STIXGeneral-Regular-2212" transform="scale(0.015625)"/>
        <path d="M 2522 0 
L 755 0 
L 755 96 
Q 1107 115 1235 227 
Q 1363 339 1363 608 
L 1363 3482 
Q 1363 3795 1171 3795 
Q 1082 3795 883 3718 
L 710 3654 
L 710 3744 
L 1856 4326 
L 1914 4307 
L 1914 486 
Q 1914 275 2042 185 
Q 2170 96 2522 96 
L 2522 0 
z
" id="STIXGeneral-Regular-31" transform="scale(0.015625)"/>
        <path d="M 3046 2112 
Q 3046 1683 2963 1302 
Q 2880 922 2717 602 
Q 2554 282 2266 96 
Q 1978 -90 1600 -90 
Q 1210 -90 915 108 
Q 621 307 461 640 
Q 301 973 227 1350 
Q 154 1728 154 2150 
Q 154 2746 301 3222 
Q 448 3699 790 4012 
Q 1133 4326 1626 4326 
Q 2253 4326 2649 3712 
Q 3046 3098 3046 2112 
z
M 2432 2080 
Q 2432 3091 2217 3625 
Q 2003 4160 1587 4160 
Q 1190 4160 979 3622 
Q 768 3085 768 2106 
Q 768 1120 979 598 
Q 1190 77 1600 77 
Q 2003 77 2217 598 
Q 2432 1120 2432 2080 
z
" id="STIXGeneral-Regular-30" transform="scale(0.015625)"/>
       </defs>
       <use transform="translate(0 0.40625)" xlink:href="#STIXGeneral-Regular-2212"/>
       <use transform="translate(68.499985 0.40625)" xlink:href="#STIXGeneral-Regular-31"/>
       <use transform="translate(118.499969 0.40625)" xlink:href="#STIXGeneral-Regular-30"/>
      </g>
     </g>
    </g>
    <g id="ytick_2">
     <g id="line2d_6">
      <g>
       <use style="fill:#323034;stroke:#323034;stroke-width:0.8;" x="48.28" xlink:href="#m4568fbed14" y="201.557813"/>
      </g>
     </g>
     <g id="text_7">
      <!-- $\mathdefault{0}$ -->
      <g style="fill:#323034;" transform="translate(35.28 205.655625)scale(0.12 -0.12)">
       <use transform="translate(0 0.40625)" xlink:href="#STIXGeneral-Regular-30"/>
      </g>
     </g>
    </g>
    <g id="ytick_3">
     <g id="line2d_7">
      <g>
       <use style="fill:#323034;stroke:#323034;stroke-width:0.8;" x="48.28" xlink:href="#m4568fbed14" y="174.377813"/>
      </g>
     </g>
     <g id="text_8">
      <!-- $\mathdefault{10}$ -->
      <g style="fill:#323034;" transform="translate(29.28 178.475625)scale(0.12 -0.12)">
       <use transform="translate(0 0.40625)" xlink:href="#STIXGeneral-Regular-31"/>
       <use transform="translate(49.999985 0.40625)" xlink:href="#STIXGeneral-Regular-30"/>
      </g>
     </g>
    </g>
    <g id="ytick_4">
     <g id="line2d_8">
      <g>
       <use style="fill:#323034;stroke:#323034;stroke-width:0.8;" x="48.28" xlink:href="#m4568fbed14" y="147.197812"/>
      </g>
     </g>
     <g id="text_9">
      <!-- $\mathdefault{20}$ -->
      <g style="fill:#323034;" transform="translate(29.28 151.295625)scale(0.12 -0.12)">
       <defs>
        <path d="M 3034 877 
L 2688 0 
L 186 0 
L 186 77 
L 1325 1286 
Q 1773 1754 1965 2144 
Q 2157 2534 2157 2950 
Q 2157 3379 1920 3616 
Q 1683 3853 1267 3853 
Q 922 3853 720 3673 
Q 518 3494 326 3021 
L 192 3053 
Q 301 3648 630 3987 
Q 960 4326 1523 4326 
Q 2054 4326 2380 4006 
Q 2707 3686 2707 3200 
Q 2707 2477 1888 1613 
L 832 486 
L 2330 486 
Q 2541 486 2665 569 
Q 2790 653 2944 915 
L 3034 877 
z
" id="STIXGeneral-Regular-32" transform="scale(0.015625)"/>
       </defs>
       <use transform="translate(0 0.40625)" xlink:href="#STIXGeneral-Regular-32"/>
       <use transform="translate(49.999985 0.40625)" xlink:href="#STIXGeneral-Regular-30"/>
      </g>
     </g>
    </g>
    <g id="ytick_5">
     <g id="line2d_9">
      <g>
       <use style="fill:#323034;stroke:#323034;stroke-width:0.8;" x="48.28" xlink:href="#m4568fbed14" y="120.017813"/>
      </g>
     </g>
     <g id="text_10">
      <!-- $\mathdefault{30}$ -->
      <g style="fill:#323034;" transform="translate(29.28 124.115625)scale(0.12 -0.12)">
       <defs>
        <path d="M 390 3264 
L 288 3290 
Q 435 3770 748 4048 
Q 1062 4326 1542 4326 
Q 1990 4326 2265 4083 
Q 2541 3840 2541 3450 
Q 2541 2925 1946 2566 
Q 2298 2413 2477 2227 
Q 2758 1914 2758 1402 
Q 2758 890 2464 506 
Q 2246 211 1840 60 
Q 1434 -90 979 -90 
Q 262 -90 262 275 
Q 262 378 339 442 
Q 416 506 525 506 
Q 685 506 915 339 
Q 1197 141 1466 141 
Q 1818 141 2058 425 
Q 2298 710 2298 1120 
Q 2298 1856 1632 2048 
Q 1434 2112 979 2112 
L 979 2202 
Q 1338 2323 1517 2432 
Q 2035 2726 2035 3290 
Q 2035 3610 1852 3776 
Q 1670 3942 1344 3942 
Q 768 3942 390 3264 
z
" id="STIXGeneral-Regular-33" transform="scale(0.015625)"/>
       </defs>
       <use transform="translate(0 0.40625)" xlink:href="#STIXGeneral-Regular-33"/>
       <use transform="translate(49.999985 0.40625)" xlink:href="#STIXGeneral-Regular-30"/>
      </g>
     </g>
    </g>
    <g id="ytick_6">
     <g id="line2d_10">
      <g>
       <use style="fill:#323034;stroke:#323034;stroke-width:0.8;" x="48.28" xlink:href="#m4568fbed14" y="92.837813"/>
      </g>
     </g>
     <g id="text_11">
      <!-- $\mathdefault{40}$ -->
      <g style="fill:#323034;" transform="translate(29.28 96.935625)scale(0.12 -0.12)">
       <defs>
        <path d="M 3027 1069 
L 2368 1069 
L 2368 0 
L 1869 0 
L 1869 1069 
L 77 1069 
L 77 1478 
L 2086 4326 
L 2368 4326 
L 2368 1478 
L 3027 1478 
L 3027 1069 
z
M 1869 1478 
L 1869 3674 
L 333 1478 
L 1869 1478 
z
" id="STIXGeneral-Regular-34" transform="scale(0.015625)"/>
       </defs>
       <use transform="translate(0 0.40625)" xlink:href="#STIXGeneral-Regular-34"/>
       <use transform="translate(49.999985 0.40625)" xlink:href="#STIXGeneral-Regular-30"/>
      </g>
     </g>
    </g>
    <g id="ytick_7">
     <g id="line2d_11">
      <g>
       <use style="fill:#323034;stroke:#323034;stroke-width:0.8;" x="48.28" xlink:href="#m4568fbed14" y="65.657813"/>
      </g>
     </g>
     <g id="text_12">
      <!-- $\mathdefault{50}$ -->
      <g style="fill:#323034;" transform="translate(29.28 69.755625)scale(0.12 -0.12)">
       <defs>
        <path d="M 2803 4358 
L 2573 3814 
Q 2534 3731 2400 3731 
L 1158 3731 
L 902 3187 
Q 1606 3053 1920 2896 
Q 2234 2739 2502 2368 
Q 2726 2061 2726 1555 
Q 2726 1094 2576 780 
Q 2426 467 2099 224 
Q 1664 -90 1011 -90 
Q 646 -90 422 19 
Q 198 128 198 307 
Q 198 550 486 550 
Q 717 550 960 352 
Q 1210 147 1414 147 
Q 1747 147 2012 480 
Q 2278 813 2278 1229 
Q 2278 1843 1850 2189 
Q 1293 2637 486 2637 
Q 410 2637 410 2688 
L 416 2720 
L 1114 4237 
L 2438 4237 
Q 2547 4237 2608 4269 
Q 2669 4301 2746 4403 
L 2803 4358 
z
" id="STIXGeneral-Regular-35" transform="scale(0.015625)"/>
       </defs>
       <use transform="translate(0 0.203125)" xlink:href="#STIXGeneral-Regular-35"/>
       <use transform="translate(49.999985 0.203125)" xlink:href="#STIXGeneral-Regular-30"/>
      </g>
     </g>
    </g>
    <g id="ytick_8">
     <g id="line2d_12">
      <g>
       <use style="fill:#323034;stroke:#323034;stroke-width:0.8;" x="48.28" xlink:href="#m4568fbed14" y="38.477813"/>
      </g>
     </g>
     <g id="text_13">
      <!-- $\mathdefault{60}$ -->
      <g style="fill:#323034;" transform="translate(29.28 42.575625)scale(0.12 -0.12)">
       <defs>
        <path d="M 2854 4378 
L 2867 4275 
Q 2112 4154 1606 3664 
Q 1101 3174 973 2451 
Q 1344 2739 1786 2739 
Q 2349 2739 2672 2380 
Q 2995 2022 2995 1402 
Q 2995 774 2669 378 
Q 2291 -90 1651 -90 
Q 870 -90 518 557 
Q 218 1107 218 1786 
Q 218 2835 915 3552 
Q 1312 3962 1731 4131 
Q 2150 4301 2854 4378 
z
M 2419 1203 
Q 2419 2445 1555 2445 
Q 1235 2445 1024 2275 
Q 813 2106 813 1702 
Q 813 954 1046 522 
Q 1280 90 1722 90 
Q 2061 90 2240 394 
Q 2419 698 2419 1203 
z
" id="STIXGeneral-Regular-36" transform="scale(0.015625)"/>
       </defs>
       <use transform="translate(0 0.59375)" xlink:href="#STIXGeneral-Regular-36"/>
       <use transform="translate(49.999985 0.59375)" xlink:href="#STIXGeneral-Regular-30"/>
      </g>
     </g>
    </g>
    <g id="ytick_9">
     <g id="line2d_13">
      <g>
       <use style="fill:#323034;stroke:#323034;stroke-width:0.8;" x="48.28" xlink:href="#m4568fbed14" y="11.297813"/>
      </g>
     </g>
     <g id="text_14">
      <!-- $\mathdefault{70}$ -->
      <g style="fill:#323034;" transform="translate(29.28 15.395625)scale(0.12 -0.12)">
       <defs>
        <path d="M 2874 4134 
L 1517 -51 
L 1101 -51 
L 2368 3763 
L 992 3763 
Q 717 3763 582 3667 
Q 448 3571 243 3238 
L 128 3296 
L 512 4237 
L 2874 4237 
L 2874 4134 
z
" id="STIXGeneral-Regular-37" transform="scale(0.015625)"/>
       </defs>
       <use transform="translate(0 0.40625)" xlink:href="#STIXGeneral-Regular-37"/>
       <use transform="translate(49.999985 0.40625)" xlink:href="#STIXGeneral-Regular-30"/>
      </g>
     </g>
    </g>
    <g id="text_15">
     <!-- total_bill -->
     <g transform="translate(15.395625 141.689062)rotate(-90)scale(0.12 -0.12)">
      <defs>
       <path d="M 3008 1478 
Q 3008 806 2608 371 
Q 2208 -64 1568 -64 
Q 979 -64 582 368 
Q 186 800 186 1459 
Q 186 2125 582 2534 
Q 979 2944 1626 2944 
Q 2221 2944 2614 2537 
Q 3008 2131 3008 1478 
z
M 2432 1306 
Q 2432 2035 2112 2445 
Q 1856 2765 1504 2765 
Q 1171 2765 966 2493 
Q 762 2221 762 1747 
Q 762 928 1101 435 
Q 1318 115 1677 115 
Q 2029 115 2230 432 
Q 2432 749 2432 1306 
z
" id="STIXGeneral-Regular-6f" transform="scale(0.015625)"/>
       <path d="M 1645 0 
L 134 0 
L 134 96 
Q 435 122 531 221 
Q 627 320 627 589 
L 627 3590 
Q 627 3821 569 3910 
Q 512 4000 358 4000 
Q 224 4000 122 3987 
L 122 4090 
Q 730 4237 1133 4371 
L 1165 4346 
L 1165 557 
Q 1165 288 1254 201 
Q 1344 115 1645 96 
L 1645 0 
z
" id="STIXGeneral-Regular-6c" transform="scale(0.015625)"/>
       <path d="M 3200 -800 
L 0 -800 
L 0 -480 
L 3200 -480 
L 3200 -800 
z
" id="STIXGeneral-Regular-5f" transform="scale(0.015625)"/>
       <path d="M 979 4358 
L 979 2406 
Q 1082 2650 1315 2797 
Q 1549 2944 1843 2944 
Q 2349 2944 2672 2541 
Q 2995 2138 2995 1536 
Q 2995 832 2566 384 
Q 2138 -64 1498 -64 
Q 1107 -64 774 67 
Q 442 198 442 358 
L 442 3622 
Q 442 3859 384 3926 
Q 326 3994 128 3994 
Q 83 3994 19 3981 
L 19 4090 
L 211 4147 
Q 864 4346 947 4371 
L 979 4358 
z
M 979 2035 
L 979 474 
Q 979 326 1161 233 
Q 1344 141 1600 141 
Q 1978 141 2195 416 
Q 2432 710 2432 1261 
Q 2432 1888 2182 2240 
Q 1971 2541 1613 2541 
Q 1357 2541 1168 2390 
Q 979 2240 979 2035 
z
" id="STIXGeneral-Regular-62" transform="scale(0.015625)"/>
      </defs>
      <use xlink:href="#STIXGeneral-Regular-74"/>
      <use x="27.799988" xlink:href="#STIXGeneral-Regular-6f"/>
      <use x="77.799973" xlink:href="#STIXGeneral-Regular-74"/>
      <use x="105.59996" xlink:href="#STIXGeneral-Regular-61"/>
      <use x="149.999954" xlink:href="#STIXGeneral-Regular-6c"/>
      <use x="177.799942" xlink:href="#STIXGeneral-Regular-5f"/>
      <use x="227.799927" xlink:href="#STIXGeneral-Regular-62"/>
      <use x="277.799911" xlink:href="#STIXGeneral-Regular-69"/>
      <use x="305.599899" xlink:href="#STIXGeneral-Regular-6c"/>
      <use x="333.399887" xlink:href="#STIXGeneral-Regular-6c"/>
     </g>
    </g>
   </g>
   <g id="line2d_14">
    <path clip-path="url(#pcd3edf8b9d)" d="M 60.0117 164.837633 
L 90.13 164.837633 
" style="fill:none;stroke:#5f5f5f;stroke-dasharray:1.5,1.5;stroke-dashoffset:0;"/>
   </g>
   <g id="line2d_15">
    <path clip-path="url(#pcd3edf8b9d)" d="M 57.156192 156.792353 
L 90.13 156.792353 
" style="fill:none;stroke:#5f5f5f;stroke-dasharray:3,3;stroke-dashoffset:0;"/>
   </g>
   <g id="line2d_16">
    <path clip-path="url(#pcd3edf8b9d)" d="M 63.002548 147.714233 
L 90.13 147.714233 
" style="fill:none;stroke:#5f5f5f;stroke-dasharray:1.5,1.5;stroke-dashoffset:0;"/>
   </g>
   <g id="line2d_17">
    <path clip-path="url(#pcd3edf8b9d)" d="M 90.13 169.784393 
L 120.505598 169.784393 
" style="fill:none;stroke:#5f5f5f;stroke-dasharray:1.5,1.5;stroke-dashoffset:0;"/>
   </g>
   <g id="line2d_18">
    <path clip-path="url(#pcd3edf8b9d)" d="M 90.13 158.205713 
L 119.969708 158.205713 
" style="fill:none;stroke:#5f5f5f;stroke-dasharray:3,3;stroke-dashoffset:0;"/>
   </g>
   <g id="line2d_19">
    <path clip-path="url(#pcd3edf8b9d)" d="M 90.13 146.463953 
L 110.97057 146.463953 
" style="fill:none;stroke:#5f5f5f;stroke-dasharray:1.5,1.5;stroke-dashoffset:0;"/>
   </g>
   <g id="line2d_20">
    <path clip-path="url(#pcd3edf8b9d)" d="M 147.702502 169.784393 
L 173.83 169.784393 
" style="fill:none;stroke:#5f5f5f;stroke-dasharray:1.5,1.5;stroke-dashoffset:0;"/>
   </g>
   <g id="line2d_21">
    <path clip-path="url(#pcd3edf8b9d)" d="M 147.182993 165.082253 
L 173.83 165.082253 
" style="fill:none;stroke:#5f5f5f;stroke-dasharray:3,3;stroke-dashoffset:0;"/>
   </g>
   <g id="line2d_22">
    <path clip-path="url(#pcd3edf8b9d)" d="M 154.896823 150.826343 
L 173.83 150.826343 
" style="fill:none;stroke:#5f5f5f;stroke-dasharray:1.5,1.5;stroke-dashoffset:0;"/>
   </g>
   <g id="line2d_23">
    <path clip-path="url(#pcd3edf8b9d)" d="M 173.83 160.516013 
L 203.028791 160.516013 
" style="fill:none;stroke:#5f5f5f;stroke-dasharray:1.5,1.5;stroke-dashoffset:0;"/>
   </g>
   <g id="line2d_24">
    <path clip-path="url(#pcd3edf8b9d)" d="M 173.83 149.277083 
L 205.952884 149.277083 
" style="fill:none;stroke:#5f5f5f;stroke-dasharray:3,3;stroke-dashoffset:0;"/>
   </g>
   <g id="line2d_25">
    <path clip-path="url(#pcd3edf8b9d)" d="M 173.83 140.253323 
L 205.713025 140.253323 
" style="fill:none;stroke:#5f5f5f;stroke-dasharray:1.5,1.5;stroke-dashoffset:0;"/>
   </g>
   <g id="line2d_26">
    <path clip-path="url(#pcd3edf8b9d)" d="M 237.224299 165.123023 
L 257.53 165.123023 
" style="fill:none;stroke:#5f5f5f;stroke-dasharray:1.5,1.5;stroke-dashoffset:0;"/>
   </g>
   <g id="line2d_27">
    <path clip-path="url(#pcd3edf8b9d)" d="M 238.00888 146.137793 
L 257.53 146.137793 
" style="fill:none;stroke:#5f5f5f;stroke-dasharray:3,3;stroke-dashoffset:0;"/>
   </g>
   <g id="line2d_28">
    <path clip-path="url(#pcd3edf8b9d)" d="M 240.236645 128.735797 
L 257.53 128.735797 
" style="fill:none;stroke:#5f5f5f;stroke-dasharray:1.5,1.5;stroke-dashoffset:0;"/>
   </g>
   <g id="line2d_29">
    <path clip-path="url(#pcd3edf8b9d)" d="M 257.53 161.521673 
L 287.529911 161.521673 
" style="fill:none;stroke:#5f5f5f;stroke-dasharray:1.5,1.5;stroke-dashoffset:0;"/>
   </g>
   <g id="line2d_30">
    <path clip-path="url(#pcd3edf8b9d)" d="M 257.53 153.123053 
L 290.6752 153.123053 
" style="fill:none;stroke:#5f5f5f;stroke-dasharray:3,3;stroke-dashoffset:0;"/>
   </g>
   <g id="line2d_31">
    <path clip-path="url(#pcd3edf8b9d)" d="M 257.53 145.431113 
L 285.986783 145.431113 
" style="fill:none;stroke:#5f5f5f;stroke-dasharray:1.5,1.5;stroke-dashoffset:0;"/>
   </g>
   <g id="line2d_32">
    <path clip-path="url(#pcd3edf8b9d)" d="M 318.278945 154.903343 
L 341.23 154.903343 
" style="fill:none;stroke:#5f5f5f;stroke-dasharray:1.5,1.5;stroke-dashoffset:0;"/>
   </g>
   <g id="line2d_33">
    <path clip-path="url(#pcd3edf8b9d)" d="M 319.652472 138.772013 
L 341.23 138.772013 
" style="fill:none;stroke:#5f5f5f;stroke-dasharray:3,3;stroke-dashoffset:0;"/>
   </g>
   <g id="line2d_34">
    <path clip-path="url(#pcd3edf8b9d)" d="M 325.214641 113.562563 
L 341.23 113.562563 
" style="fill:none;stroke:#5f5f5f;stroke-dasharray:1.5,1.5;stroke-dashoffset:0;"/>
   </g>
   <g id="line2d_35">
    <path clip-path="url(#pcd3edf8b9d)" d="M 341.23 161.385773 
L 372.980691 161.385773 
" style="fill:none;stroke:#5f5f5f;stroke-dasharray:1.5,1.5;stroke-dashoffset:0;"/>
   </g>
   <g id="line2d_36">
    <path clip-path="url(#pcd3edf8b9d)" d="M 341.23 151.465073 
L 373.443659 151.465073 
" style="fill:none;stroke:#5f5f5f;stroke-dasharray:3,3;stroke-dashoffset:0;"/>
   </g>
   <g id="line2d_37">
    <path clip-path="url(#pcd3edf8b9d)" d="M 341.23 133.607813 
L 364.322596 133.607813 
" style="fill:none;stroke:#5f5f5f;stroke-dasharray:1.5,1.5;stroke-dashoffset:0;"/>
   </g>
   <g id="patch_5">
    <path d="M 48.28 228.737813 
L 48.28 11.297813 
" style="fill:none;stroke:#000000;stroke-linecap:square;stroke-linejoin:miter;stroke-width:0.6;"/>
   </g>
   <g id="patch_6">
    <path d="M 48.28 228.737812 
L 383.08 228.737812 
" style="fill:none;stroke:#000000;stroke-linecap:square;stroke-linejoin:miter;stroke-width:0.6;"/>
   </g>
   <g id="legend_1">
    <g id="patch_7">
     <path d="M 332.528438 57.438438 
L 376.08 57.438438 
Q 378.08 57.438438 378.08 55.438438 
L 378.08 18.297813 
Q 378.08 16.297813 376.08 16.297813 
L 332.528438 16.297813 
Q 330.528438 16.297813 330.528438 18.297813 
L 330.528438 55.438438 
Q 330.528438 57.438438 332.528438 57.438438 
z
" style="fill:#ffffff;opacity:0.8;stroke:#e6e6e6;stroke-linejoin:miter;stroke-width:0.8;"/>
    </g>
    <g id="text_16">
     <!-- smoker -->
     <g style="fill:#323034;" transform="translate(336.639844 26.493438)scale(0.12 -0.12)">
      <defs>
       <path d="M 998 1926 
L 1664 1523 
Q 1984 1331 2105 1164 
Q 2227 998 2227 736 
Q 2227 416 1961 176 
Q 1696 -64 1331 -64 
Q 1030 -64 864 -6 
Q 691 51 570 51 
Q 461 51 416 -26 
L 333 -26 
L 333 979 
L 435 979 
Q 538 512 730 294 
Q 922 77 1248 77 
Q 1485 77 1632 211 
Q 1779 346 1779 550 
Q 1779 845 1440 1030 
L 1094 1222 
Q 326 1651 326 2150 
Q 326 2522 566 2730 
Q 806 2938 1210 2938 
Q 1491 2938 1638 2867 
Q 1754 2816 1818 2816 
Q 1862 2816 1920 2880 
L 1990 2880 
L 2022 2010 
L 1926 2010 
Q 1818 2445 1654 2621 
Q 1491 2797 1203 2797 
Q 986 2797 854 2688 
Q 723 2579 723 2362 
Q 723 2253 796 2128 
Q 870 2003 998 1926 
z
" id="STIXGeneral-Regular-73" transform="scale(0.015625)"/>
       <path d="M 4960 0 
L 3565 0 
L 3565 96 
Q 3834 122 3907 208 
Q 3981 294 3981 576 
L 3981 1894 
Q 3981 2278 3869 2444 
Q 3757 2611 3488 2611 
Q 3264 2611 3107 2521 
Q 2950 2432 2803 2221 
L 2803 608 
Q 2803 301 2896 201 
Q 2989 102 3264 96 
L 3264 0 
L 1830 0 
L 1830 96 
Q 2112 115 2189 188 
Q 2266 262 2266 550 
L 2266 1901 
Q 2266 2611 1850 2611 
Q 1670 2611 1468 2531 
Q 1267 2451 1171 2336 
Q 1088 2240 1088 2227 
L 1088 448 
Q 1088 243 1177 176 
Q 1267 109 1523 96 
L 1523 0 
L 102 0 
L 102 96 
Q 371 102 460 195 
Q 550 288 550 563 
L 550 2150 
Q 550 2387 499 2480 
Q 448 2573 326 2573 
Q 230 2573 122 2547 
L 122 2656 
Q 557 2778 1011 2944 
L 1062 2925 
L 1062 2451 
L 1075 2451 
Q 1363 2752 1584 2848 
Q 1805 2944 2054 2944 
Q 2560 2944 2733 2406 
Q 3232 2944 3776 2944 
Q 4518 2944 4518 1792 
L 4518 493 
Q 4518 282 4582 202 
Q 4646 122 4794 109 
L 4960 96 
L 4960 0 
z
" id="STIXGeneral-Regular-6d" transform="scale(0.015625)"/>
       <path d="M 3232 0 
L 1837 0 
L 1837 96 
L 1958 96 
Q 2093 96 2093 192 
Q 2093 250 2022 339 
L 1062 1606 
L 1062 429 
Q 1062 262 1142 185 
Q 1222 109 1414 102 
L 1542 96 
L 1542 0 
L 45 0 
L 45 96 
Q 390 154 457 214 
Q 525 275 525 525 
L 525 3610 
Q 525 3840 467 3920 
Q 410 4000 250 4000 
Q 211 4000 45 3987 
L 45 4090 
L 237 4141 
Q 621 4243 1037 4371 
L 1062 4358 
L 1062 1670 
L 1939 2451 
Q 2086 2586 2086 2675 
Q 2086 2739 2019 2761 
Q 1952 2784 1766 2790 
L 1766 2880 
L 3072 2880 
L 3072 2784 
Q 2752 2784 2505 2646 
Q 2259 2509 1690 1978 
L 1504 1805 
L 2483 563 
Q 2829 122 3232 96 
L 3232 0 
z
" id="STIXGeneral-Regular-6b" transform="scale(0.015625)"/>
       <path d="M 2611 1050 
L 2714 1005 
Q 2330 -64 1376 -64 
Q 813 -64 486 329 
Q 160 723 160 1389 
Q 160 2074 525 2509 
Q 890 2944 1485 2944 
Q 2061 2944 2374 2502 
Q 2560 2246 2592 1773 
L 621 1773 
Q 646 1370 700 1158 
Q 755 947 915 730 
Q 1184 378 1626 378 
Q 1939 378 2153 531 
Q 2368 685 2611 1050 
z
M 634 1978 
L 1939 1978 
Q 1882 2381 1750 2547 
Q 1619 2714 1312 2714 
Q 1043 2714 864 2525 
Q 685 2336 634 1978 
z
" id="STIXGeneral-Regular-65" transform="scale(0.015625)"/>
      </defs>
      <use xlink:href="#STIXGeneral-Regular-73"/>
      <use x="38.899994" xlink:href="#STIXGeneral-Regular-6d"/>
      <use x="116.699982" xlink:href="#STIXGeneral-Regular-6f"/>
      <use x="166.699966" xlink:href="#STIXGeneral-Regular-6b"/>
      <use x="216.699951" xlink:href="#STIXGeneral-Regular-65"/>
      <use x="261.099945" xlink:href="#STIXGeneral-Regular-72"/>
     </g>
    </g>
    <g id="patch_8">
     <path d="M 332.528438 40.097813 
L 352.528438 40.097813 
L 352.528438 33.097813 
L 332.528438 33.097813 
z
" style="fill:#b588b5;stroke:#5f5f5f;stroke-linejoin:miter;stroke-width:0.5;"/>
    </g>
    <g id="text_17">
     <!-- Yes -->
     <g style="fill:#323034;" transform="translate(360.528438 40.097813)scale(0.1 -0.1)">
      <defs>
       <path d="M 4499 4237 
L 4499 4115 
Q 4218 4090 4054 3955 
Q 3891 3821 3616 3398 
L 2669 1939 
L 2669 710 
Q 2669 346 2790 243 
Q 2912 141 3328 122 
L 3328 0 
L 1370 0 
L 1370 122 
Q 1805 154 1910 259 
Q 2016 365 2016 787 
L 2016 1882 
L 1178 3110 
Q 742 3750 556 3926 
Q 371 4102 141 4115 
L 141 4237 
L 1926 4237 
L 1926 4115 
L 1773 4109 
Q 1472 4102 1472 3942 
Q 1472 3808 1587 3642 
L 2522 2227 
L 3450 3648 
Q 3539 3782 3539 3917 
Q 3533 4026 3440 4067 
Q 3347 4109 3104 4115 
L 3104 4237 
L 4499 4237 
z
" id="STIXGeneral-Regular-59" transform="scale(0.015625)"/>
      </defs>
      <use xlink:href="#STIXGeneral-Regular-59"/>
      <use x="72.199982" xlink:href="#STIXGeneral-Regular-65"/>
      <use x="116.599976" xlink:href="#STIXGeneral-Regular-73"/>
     </g>
    </g>
    <g id="patch_9">
     <path d="M 332.528438 53.268125 
L 352.528438 53.268125 
L 352.528438 46.268125 
L 332.528438 46.268125 
z
" style="fill:#ea8e83;stroke:#5f5f5f;stroke-linejoin:miter;stroke-width:0.5;"/>
    </g>
    <g id="text_18">
     <!-- No -->
     <g style="fill:#323034;" transform="translate(360.528438 53.268125)scale(0.1 -0.1)">
      <defs>
       <path d="M 4525 4237 
L 4525 4115 
Q 4198 4083 4102 4000 
Q 4000 3910 3958 3756 
Q 3917 3603 3917 3245 
L 3917 -70 
L 3802 -70 
L 979 3443 
L 979 960 
Q 979 474 1088 323 
Q 1197 173 1574 122 
L 1574 0 
L 77 0 
L 77 122 
Q 474 166 586 310 
Q 698 454 698 960 
L 698 3776 
Q 531 3981 416 4048 
Q 301 4115 77 4115 
L 77 4237 
L 1165 4237 
L 3635 1146 
L 3635 3322 
Q 3635 3808 3514 3949 
Q 3437 4032 3344 4061 
Q 3251 4090 3008 4115 
L 3008 4237 
L 4525 4237 
z
" id="STIXGeneral-Regular-4e" transform="scale(0.015625)"/>
      </defs>
      <use xlink:href="#STIXGeneral-Regular-4e"/>
      <use x="72.199982" xlink:href="#STIXGeneral-Regular-6f"/>
     </g>
    </g>
   </g>
  </g>
 </g>
 <defs>
  <clipPath id="pcd3edf8b9d">
   <rect height="217.44" width="334.8" x="48.28" y="11.297813"/>
  </clipPath>
 </defs>
</svg>
