<?xml version="1.0" encoding="UTF-8" standalone="no"?>
<!DOCTYPE svg PUBLIC "-//W3C//DTD SVG 1.1//EN"
 "http://www.w3.org/Graphics/SVG/1.1/DTD/svg11.dtd">
<!-- Generated by graphviz version 2.49.1 (20210923.0004)
 -->
<!-- Pages: 1 -->
<svg width="269pt" height="260pt"
 viewBox="0.00 0.00 269.34 260.00" xmlns="http://www.w3.org/2000/svg" xmlns:xlink="http://www.w3.org/1999/xlink">
<g id="graph0" class="graph" transform="scale(1 1) rotate(0) translate(4 256)">
<polygon fill="white" stroke="transparent" points="-4,4 -4,-256 265.34,-256 265.34,4 -4,4"/>
<!-- A -->
<g id="node1" class="node">
<title>A</title>
<ellipse fill="none" stroke="black" cx="154.04" cy="-234" rx="40.09" ry="18"/>
<text text-anchor="middle" x="154.04" y="-230.3" font-family="Times,serif" font-size="14.00">Utilities</text>
</g>
<!-- B -->
<g id="node2" class="node">
<title>B</title>
<ellipse fill="none" stroke="black" cx="63.04" cy="-162" rx="63.09" ry="18"/>
<text text-anchor="middle" x="63.04" y="-158.3" font-family="Times,serif" font-size="14.00">Data Cleaning</text>
</g>
<!-- A&#45;&gt;B -->
<g id="edge1" class="edge">
<title>A&#45;&gt;B</title>
<path fill="none" stroke="black" d="M134.75,-218.15C122.39,-208.65 106.12,-196.14 92.21,-185.43"/>
<polygon fill="black" stroke="black" points="93.96,-182.37 83.9,-179.04 89.69,-187.91 93.96,-182.37"/>
</g>
<!-- C -->
<g id="node3" class="node">
<title>C</title>
<ellipse fill="none" stroke="black" cx="121.04" cy="-90" rx="42.79" ry="18"/>
<text text-anchor="middle" x="121.04" y="-86.3" font-family="Times,serif" font-size="14.00">Analysis</text>
</g>
<!-- A&#45;&gt;C -->
<g id="edge2" class="edge">
<title>A&#45;&gt;C</title>
<path fill="none" stroke="black" d="M150.64,-215.88C147.02,-197.92 140.99,-168.9 135.04,-144 133.02,-135.54 130.66,-126.36 128.46,-118.06"/>
<polygon fill="black" stroke="black" points="131.77,-116.88 125.79,-108.13 125.01,-118.7 131.77,-116.88"/>
</g>
<!-- D -->
<g id="node4" class="node">
<title>D</title>
<ellipse fill="none" stroke="black" cx="156.04" cy="-18" rx="105.08" ry="18"/>
<text text-anchor="middle" x="156.04" y="-14.3" font-family="Times,serif" font-size="14.00">Generate Plots and Tables</text>
</g>
<!-- A&#45;&gt;D -->
<g id="edge3" class="edge">
<title>A&#45;&gt;D</title>
<path fill="none" stroke="black" d="M159.09,-216.02C167.14,-186.6 181.22,-124.28 173.04,-72 171.69,-63.31 169.14,-54.1 166.43,-45.84"/>
<polygon fill="black" stroke="black" points="169.71,-44.62 163.11,-36.33 163.11,-46.93 169.71,-44.62"/>
</g>
<!-- B&#45;&gt;C -->
<g id="edge4" class="edge">
<title>B&#45;&gt;C</title>
<path fill="none" stroke="black" d="M76.79,-144.41C84.01,-135.69 93,-124.85 100.99,-115.21"/>
<polygon fill="black" stroke="black" points="103.71,-117.4 107.4,-107.47 98.32,-112.94 103.71,-117.4"/>
</g>
<!-- C&#45;&gt;D -->
<g id="edge5" class="edge">
<title>C&#45;&gt;D</title>
<path fill="none" stroke="black" d="M129.52,-72.05C133.54,-64.01 138.44,-54.2 142.93,-45.23"/>
<polygon fill="black" stroke="black" points="146.07,-46.78 147.41,-36.28 139.8,-43.65 146.07,-46.78"/>
</g>
</g>
</svg>
